<?xml version="1.0" encoding="UTF-8" standalone="no"?>
<!-- Created with Inkscape (http://www.inkscape.org/) -->

<svg
   xmlns:dc="http://purl.org/dc/elements/1.1/"
   xmlns:cc="http://creativecommons.org/ns#"
   xmlns:rdf="http://www.w3.org/1999/02/22-rdf-syntax-ns#"
   xmlns:svg="http://www.w3.org/2000/svg"
   xmlns="http://www.w3.org/2000/svg"
   xmlns:sodipodi="http://sodipodi.sourceforge.net/DTD/sodipodi-0.dtd"
   xmlns:inkscape="http://www.inkscape.org/namespaces/inkscape"
   width="162.5219mm"
   height="48.142883mm"
   viewBox="0 0 575.86499 170.58502"
   id="svg2"
   version="1.1"
   inkscape:version="0.91 r13725"
   sodipodi:docname="fid.svg">
  <defs
     id="defs4">
    <marker
       inkscape:stockid="Arrow1Mend"
       orient="auto"
       refY="0"
       refX="0"
       id="marker4643"
       style="overflow:visible"
       inkscape:isstock="true">
      <path
         id="path4645"
         d="M 0,0 5,-5 -12.5,0 5,5 0,0 Z"
         style="fill:#000000;fill-opacity:1;fill-rule:evenodd;stroke:#000000;stroke-width:1pt;stroke-opacity:1"
         transform="matrix(-0.4,0,0,-0.4,-4,0)"
         inkscape:connector-curvature="0" />
    </marker>
    <marker
       inkscape:isstock="true"
       style="overflow:visible"
       id="marker4563"
       refX="0"
       refY="0"
       orient="auto"
       inkscape:stockid="Arrow1Mend"
       inkscape:collect="always">
      <path
         transform="matrix(-0.4,0,0,-0.4,-4,0)"
         style="fill:#000000;fill-opacity:1;fill-rule:evenodd;stroke:#000000;stroke-width:1pt;stroke-opacity:1"
         d="M 0,0 5,-5 -12.5,0 5,5 0,0 Z"
         id="path4565"
         inkscape:connector-curvature="0" />
    </marker>
    <marker
       inkscape:isstock="true"
       style="overflow:visible"
       id="marker4535"
       refX="0"
       refY="0"
       orient="auto"
       inkscape:stockid="Arrow1Mstart">
      <path
         transform="matrix(0.4,0,0,0.4,4,0)"
         style="fill:#000000;fill-opacity:1;fill-rule:evenodd;stroke:#000000;stroke-width:1pt;stroke-opacity:1"
         d="M 0,0 5,-5 -12.5,0 5,5 0,0 Z"
         id="path4537"
         inkscape:connector-curvature="0" />
    </marker>
    <marker
       inkscape:stockid="Arrow1Mend"
       orient="auto"
       refY="0"
       refX="0"
       id="Arrow1Mend"
       style="overflow:visible"
       inkscape:isstock="true"
       inkscape:collect="always">
      <path
         id="path4151"
         d="M 0,0 5,-5 -12.5,0 5,5 0,0 Z"
         style="fill:#000000;fill-opacity:1;fill-rule:evenodd;stroke:#000000;stroke-width:1pt;stroke-opacity:1"
         transform="matrix(-0.4,0,0,-0.4,-4,0)"
         inkscape:connector-curvature="0" />
    </marker>
    <marker
       inkscape:stockid="Arrow1Mstart"
       orient="auto"
       refY="0"
       refX="0"
       id="Arrow1Mstart"
       style="overflow:visible"
       inkscape:isstock="true"
       inkscape:collect="always">
      <path
         id="path4148"
         d="M 0,0 5,-5 -12.5,0 5,5 0,0 Z"
         style="fill:#000000;fill-opacity:1;fill-rule:evenodd;stroke:#000000;stroke-width:1pt;stroke-opacity:1"
         transform="matrix(0.4,0,0,0.4,4,0)"
         inkscape:connector-curvature="0" />
    </marker>
  </defs>
  <sodipodi:namedview
     id="base"
     pagecolor="#ffffff"
     bordercolor="#666666"
     borderopacity="1.0"
     inkscape:pageopacity="0.0"
     inkscape:pageshadow="2"
     inkscape:zoom="1.4142136"
     inkscape:cx="291.31757"
     inkscape:cy="96.830804"
     inkscape:document-units="px"
     inkscape:current-layer="layer1"
     showgrid="false"
     inkscape:window-width="1916"
     inkscape:window-height="1035"
     inkscape:window-x="4"
     inkscape:window-y="1"
     inkscape:window-maximized="1"
     fit-margin-top="0"
     fit-margin-left="0"
     fit-margin-right="0"
     fit-margin-bottom="0" />
  <metadata
     id="metadata7">
    <rdf:RDF>
      <cc:Work
         rdf:about="">
        <dc:format>image/svg+xml</dc:format>
        <dc:type
           rdf:resource="http://purl.org/dc/dcmitype/StillImage" />
        <dc:title></dc:title>
      </cc:Work>
    </rdf:RDF>
  </metadata>
  <g
     inkscape:groupmode="layer"
     id="layer2"
     inkscape:label="guides"
     style="display:none;opacity:0.38000028"
     sodipodi:insensitive="true"
     transform="translate(-28.60791,-287.89731)">
    <path
       style="fill:none;fill-rule:evenodd;stroke:#000000;stroke-width:1px;stroke-linecap:butt;stroke-linejoin:miter;stroke-opacity:1"
       d="m 55.154329,301.4148 c 69.733751,57.32004 284.332481,51.26165 468.104691,58.68987"
       id="path4495"
       inkscape:connector-curvature="0"
       sodipodi:nodetypes="cc" />
    <path
       sodipodi:nodetypes="cc"
       inkscape:connector-curvature="0"
       id="path4497"
       d="M 55.154329,425.27182 C 124.88808,367.95178 339.48681,374.01017 523.25902,366.58195"
       style="fill:none;fill-rule:evenodd;stroke:#000000;stroke-width:1px;stroke-linecap:butt;stroke-linejoin:miter;stroke-opacity:1" />
  </g>
  <g
     inkscape:label="Layer 1"
     inkscape:groupmode="layer"
     id="layer1"
     transform="translate(-28.60791,-287.89731)">
    <path
       style="fill:none;fill-rule:evenodd;stroke:#000000;stroke-width:2;stroke-linecap:butt;stroke-linejoin:miter;stroke-miterlimit:4;stroke-dasharray:none;stroke-opacity:1;marker-start:url(#Arrow1Mstart);marker-end:url(#Arrow1Mend)"
       d="m 54.548237,291.71734 0,143.44166 182.837613,0"
       id="path4136"
       inkscape:connector-curvature="0" />
    <text
       xml:space="preserve"
       style="font-style:normal;font-weight:normal;font-size:40px;line-height:125%;font-family:sans-serif;letter-spacing:0px;word-spacing:0px;fill:#000000;fill-opacity:1;stroke:none;stroke-width:1px;stroke-linecap:butt;stroke-linejoin:miter;stroke-opacity:1"
       x="125"
       y="455.36221"
       id="text4462"
       sodipodi:linespacing="125%"><tspan
         sodipodi:role="line"
         id="tspan4464"
         x="125"
         y="455.36221"
         style="font-size:15px">Time (s)</tspan></text>
    <text
       sodipodi:linespacing="125%"
       id="text4487"
       y="40.004395"
       x="-386.09024"
       style="font-style:normal;font-weight:normal;font-size:40px;line-height:125%;font-family:sans-serif;letter-spacing:0px;word-spacing:0px;fill:#000000;fill-opacity:1;stroke:none;stroke-width:1px;stroke-linecap:butt;stroke-linejoin:miter;stroke-opacity:1"
       xml:space="preserve"
       transform="matrix(0,-1,1,0,0,0)"><tspan
         style="font-size:15px"
         y="40.004395"
         x="-386.09024"
         id="tspan4489"
         sodipodi:role="line">Signal</tspan></text>
    <path
       style="fill:none;fill-rule:evenodd;stroke:#000000;stroke-width:0.72736061px;stroke-linecap:butt;stroke-linejoin:miter;stroke-opacity:1"
       d="m 77.860588,650.36019 c 2.866137,64.90587 5.979736,113.8463 11.616504,0 2.888334,-101.17093 6.799104,-74.29347 11.088478,0 4.98562,108.50968 8.52498,49.6132 12.14453,0 2.50973,-43.90069 5.77667,-59.78282 11.08848,0 4.84797,45.52942 8.6987,34.28985 12.14453,0 2.81612,-30.72652 7.0403,-30.72652 12.67255,0 3.47019,10.96749 6.03992,39.02182 12.14452,0 5.0764,-33.16855 8.38535,-9.32237 12.14453,0 3.50508,9.34193 6.95256,19.2849 13.20057,0"
       id="path4491"
       inkscape:connector-curvature="0"
       sodipodi:nodetypes="cccccccccc" />
    <path
       style="fill:none;fill-rule:evenodd;stroke:#000000;stroke-width:1.20000005;stroke-linecap:butt;stroke-linejoin:miter;stroke-miterlimit:4;stroke-dasharray:none;stroke-opacity:1"
       d="m 55.293152,363.34502 c 2.300464,117.96961 3.841643,49.29266 5.461875,0 1.037497,-52.4282 2.335737,-87.57402 5.461875,0 1.820624,55.07907 3.641249,55.90746 5.461874,0 2.432885,-58.24371 4.014375,-35.49503 5.461875,0 2.03293,36.41011 3.925727,48.78765 5.461874,0 1.306022,-25.74086 2.687671,-47.69882 5.461875,0 1.820623,31.22706 3.641251,35.57413 5.461874,0 1.251631,-23.37907 2.730367,-37.42686 5.461875,0 2.330671,27.33527 4.129131,26.14741 5.461871,0 1.18035,-15.87058 2.33574,-32.35983 5.46188,0 1.60154,18.7862 3.36281,23.87578 5.46187,0 1.13208,-19.06582 2.8347,-22.33349 5.46188,0 1.53833,10.59028 2.9619,25.48612 5.46187,0 1.26785,-10.38677 2.27142,-23.28493 5.46188,0 1.58763,7.18 2.92978,21.92478 5.46187,0 1.87087,-17.63516 3.58079,-14.37263 5.46188,0 2.10211,15.08606 3.85692,11.55883 5.46187,0 1.45364,-9.34241 3.02409,-15.71102 5.46187,0 1.52781,6.27721 2.96912,14.40888 5.46188,0 1.21343,-8.67785 2.7621,-12.56444 5.46187,0 1.39602,8.53362 3.0723,11.43461 5.46188,0 1.15306,-8.34807 2.81531,-10.32847 5.46187,0 1.58756,8.74358 3.37574,9.96076 5.46188,0 1.57668,-8.49791 3.38622,-8.88396 5.46187,0 1.48496,3.59792 2.56545,11.53129 5.46188,0 1.82062,-7.8263 3.64125,-6.86996 5.46187,0 1.82062,5.87069 3.64125,7.46119 5.46188,0 1.28677,-3.57639 2.26197,-9.24007 5.46187,0 1.82062,5.15095 3.64125,5.54369 5.46187,0 1.4287,-4.201 3.04435,-6.39812 5.46188,0 1.20362,3.30673 2.77049,4.66674 5.46187,0 1.57342,-1.65613 2.93879,-4.70593 5.46188,0"
       id="path4493"
       inkscape:connector-curvature="0"
       sodipodi:nodetypes="ccccccccccccccccccccccccccccccccc" />
    <path
       sodipodi:nodetypes="ccccccccccccccccccccccccccccccccc"
       inkscape:connector-curvature="0"
       id="path4521"
       d="m 56,578.3622 c 6.146679,117.62828 10.264603,49.15004 14.59375,0 2.77212,-52.27651 6.240928,-87.32064 14.59375,0 4.864583,54.9197 9.729167,55.7457 14.59375,0 6.5005,-58.07519 10.72613,-35.39233 14.59375,0 5.43185,36.30476 10.48927,48.64649 14.59375,0 3.4896,-25.66638 7.18127,-47.56081 14.59375,0 4.86458,31.13671 9.72917,35.4712 14.59375,0 3.34427,-23.31143 7.29535,-37.31857 14.59375,0 6.22739,27.25618 11.03275,26.07175 14.59375,0 3.15381,-15.82466 6.24093,-32.2662 14.59375,0 4.27921,18.73184 8.98521,23.8067 14.59375,0 3.02484,-19.01066 7.57411,-22.26887 14.59375,0 4.11032,10.55964 7.914,25.41238 14.59375,0 3.38759,-10.35672 6.06907,-23.21756 14.59375,0 4.24204,7.15922 7.82818,21.86134 14.59375,0 4.99883,-17.58414 9.56762,-14.33105 14.59375,0 5.6167,15.04241 10.30544,11.52538 14.59375,0 3.88402,-9.31538 8.08016,-15.66556 14.59375,0 4.0822,6.25905 7.93327,14.36719 14.59375,0 3.2422,-8.65274 7.38015,-12.52809 14.59375,0 3.73006,8.50893 8.20896,11.40152 14.59375,0 3.08089,-8.32392 7.52232,-10.29859 14.59375,0 4.24185,8.71828 9.01974,9.93194 14.59375,0 4.21279,-8.47332 9.04776,-8.85826 14.59375,0 3.96771,3.58751 6.85469,11.49792 14.59375,0 4.86458,-7.80366 9.72917,-6.85008 14.59375,0 4.86458,5.8537 9.72917,7.4396 14.59375,0 3.43817,-3.56604 6.04383,-9.21334 14.59375,0 4.86458,5.13605 9.72917,5.52765 14.59375,0 3.81737,-4.18885 8.13427,-6.37961 14.59375,0 3.216,3.29716 7.40255,4.65324 14.59375,0 4.20405,-1.65134 7.85224,-4.69231 14.59375,0"
       style="fill:none;fill-rule:evenodd;stroke:#000000;stroke-width:1px;stroke-linecap:butt;stroke-linejoin:miter;stroke-opacity:1" />
    <path
       inkscape:connector-curvature="0"
       id="path4523"
       d="m 417.81527,291.71734 0,143.44166 182.83761,0"
       style="fill:none;fill-rule:evenodd;stroke:#000000;stroke-width:2;stroke-linecap:butt;stroke-linejoin:miter;stroke-miterlimit:4;stroke-dasharray:none;stroke-opacity:1;marker-start:url(#marker4535);marker-end:url(#marker4563)" />
    <text
       sodipodi:linespacing="125%"
       id="text4525"
       y="455.36221"
       x="459.26703"
       style="font-style:normal;font-weight:normal;font-size:40px;line-height:125%;font-family:sans-serif;letter-spacing:0px;word-spacing:0px;fill:#000000;fill-opacity:1;stroke:none;stroke-width:1px;stroke-linecap:butt;stroke-linejoin:miter;stroke-opacity:1"
       xml:space="preserve"><tspan
         style="font-size:15px"
         y="455.36221"
         x="459.26703"
         id="tspan4527"
         sodipodi:role="line">Frequency (Hz)</tspan></text>
    <text
       transform="matrix(0,-1,1,0,0,0)"
       xml:space="preserve"
       style="font-style:normal;font-weight:normal;font-size:40px;line-height:125%;font-family:sans-serif;letter-spacing:0px;word-spacing:0px;fill:#000000;fill-opacity:1;stroke:none;stroke-width:1px;stroke-linecap:butt;stroke-linejoin:miter;stroke-opacity:1"
       x="-386.09024"
       y="403.27142"
       id="text4529"
       sodipodi:linespacing="125%"><tspan
         sodipodi:role="line"
         id="tspan4531"
         x="-386.09024"
         y="403.27142"
         style="font-size:15px">Signal</tspan></text>
    <path
       style="fill:none;fill-rule:evenodd;stroke:#000000;stroke-width:1px;stroke-linecap:butt;stroke-linejoin:miter;stroke-opacity:1"
       d="m 418.26703,424.73657 91.5,0 c 1.0795,-136.36484 0.42773,-177.68038 2.4467,0 l 89.0533,0"
       id="path4633"
       inkscape:connector-curvature="0"
       sodipodi:nodetypes="cccc" />
    <path
       style="fill:none;fill-rule:evenodd;stroke:#000000;stroke-width:2;stroke-linecap:butt;stroke-linejoin:miter;stroke-miterlimit:4;stroke-dasharray:none;stroke-opacity:1;marker-end:url(#marker4643)"
       d="m 255.26555,368.58995 c 2.82843,0 115.96551,0 115.96551,0"
       id="path4635"
       inkscape:connector-curvature="0" />
    <text
       xml:space="preserve"
       style="font-style:normal;font-weight:normal;font-size:40px;line-height:125%;font-family:sans-serif;letter-spacing:0px;word-spacing:0px;fill:#000000;fill-opacity:1;stroke:none;stroke-width:1px;stroke-linecap:butt;stroke-linejoin:miter;stroke-opacity:1"
       x="313.26465"
       y="339.59857"
       id="text4699"
       sodipodi:linespacing="125%"><tspan
         sodipodi:role="line"
         id="tspan4701"
         x="313.26465"
         y="339.59857"
         style="font-size:15px;text-align:center;text-anchor:middle">Fourier</tspan><tspan
         sodipodi:role="line"
         x="313.26465"
         y="358.34857"
         id="tspan4703"
         style="font-size:15px;text-align:center;text-anchor:middle">Transform</tspan></text>
  </g>
</svg>
