<?xml version="1.0" encoding="UTF-8" standalone="no"?>
<svg
   xmlns:dc="http://purl.org/dc/elements/1.1/"
   xmlns:cc="http://creativecommons.org/ns#"
   xmlns:rdf="http://www.w3.org/1999/02/22-rdf-syntax-ns#"
   xmlns:svg="http://www.w3.org/2000/svg"
   xmlns="http://www.w3.org/2000/svg"
   xmlns:sodipodi="http://sodipodi.sourceforge.net/DTD/sodipodi-0.dtd"
   xmlns:inkscape="http://www.inkscape.org/namespaces/inkscape"
   inkscape:export-ydpi="300"
   inkscape:export-xdpi="300"
   inkscape:export-filename="/Users/Demos/Documents/Scholarship/Manuscripts/SciComp Book/SciComp Book Chapters/Chap 11 NMRglue/Graphics/rolling figure/rolling.png"
   sodipodi:docname="rolling.svg"
   inkscape:version="1.0 (4035a4f, 2020-05-01)"
   version="1.1"
   id="svg2"
   viewBox="0 0 575.86499 170.58502"
   height="48.142883mm"
   width="162.5219mm">
  <defs
     id="defs4">
    <marker
       inkscape:isstock="true"
       style="overflow:visible"
       id="marker4352"
       refX="0"
       refY="0"
       orient="auto"
       inkscape:stockid="Arrow1Mstart">
      <path
         transform="matrix(0.4,0,0,0.4,4,0)"
         style="fill:#000000;fill-opacity:1;fill-rule:evenodd;stroke:none;stroke-width:1pt;stroke-opacity:1"
         d="M 0,0 5,-5 -12.5,0 5,5 0,0 Z"
         id="path4354"
         inkscape:connector-curvature="0" />
    </marker>
    <marker
       inkscape:stockid="Arrow1Mend"
       orient="auto"
       refY="0"
       refX="0"
       id="marker4282"
       style="overflow:visible"
       inkscape:isstock="true">
      <path
         id="path4284"
         d="M 0,0 5,-5 -12.5,0 5,5 0,0 Z"
         style="fill:#000000;fill-opacity:1;fill-rule:evenodd;stroke:none;stroke-width:1pt;stroke-opacity:1"
         transform="matrix(-0.4,0,0,-0.4,-4,0)"
         inkscape:connector-curvature="0" />
    </marker>
    <marker
       inkscape:collect="always"
       inkscape:isstock="true"
       style="overflow:visible"
       id="marker4218"
       refX="0"
       refY="0"
       orient="auto"
       inkscape:stockid="Arrow1Mend">
      <path
         inkscape:connector-curvature="0"
         transform="matrix(-0.4,0,0,-0.4,-4,0)"
         style="fill:#000000;fill-opacity:1;fill-rule:evenodd;stroke:#000000;stroke-width:1pt;stroke-opacity:1"
         d="M 0,0 5,-5 -12.5,0 5,5 0,0 Z"
         id="path4220" />
    </marker>
    <marker
       inkscape:collect="always"
       inkscape:stockid="Arrow1Mend"
       orient="auto"
       refY="0"
       refX="0"
       id="marker4211"
       style="overflow:visible"
       inkscape:isstock="true">
      <path
         id="path4213"
         d="M 0,0 5,-5 -12.5,0 5,5 0,0 Z"
         style="fill:#000000;fill-opacity:1;fill-rule:evenodd;stroke:#000000;stroke-width:1pt;stroke-opacity:1"
         transform="matrix(-0.4,0,0,-0.4,-4,0)"
         inkscape:connector-curvature="0" />
    </marker>
    <marker
       inkscape:collect="always"
       inkscape:isstock="true"
       style="overflow:visible"
       id="marker4643"
       refX="0"
       refY="0"
       orient="auto"
       inkscape:stockid="Arrow1Mend">
      <path
         inkscape:connector-curvature="0"
         transform="matrix(-0.4,0,0,-0.4,-4,0)"
         style="fill:#000000;fill-opacity:1;fill-rule:evenodd;stroke:#000000;stroke-width:1pt;stroke-opacity:1"
         d="M 0,0 5,-5 -12.5,0 5,5 0,0 Z"
         id="path4645" />
    </marker>
    <marker
       inkscape:collect="always"
       inkscape:stockid="Arrow1Mend"
       orient="auto"
       refY="0"
       refX="0"
       id="marker4563"
       style="overflow:visible"
       inkscape:isstock="true">
      <path
         inkscape:connector-curvature="0"
         id="path4565"
         d="M 0,0 5,-5 -12.5,0 5,5 0,0 Z"
         style="fill:#000000;fill-opacity:1;fill-rule:evenodd;stroke:#000000;stroke-width:1pt;stroke-opacity:1"
         transform="matrix(-0.4,0,0,-0.4,-4,0)" />
    </marker>
    <marker
       inkscape:collect="always"
       inkscape:stockid="Arrow1Mstart"
       orient="auto"
       refY="0"
       refX="0"
       id="marker4535"
       style="overflow:visible"
       inkscape:isstock="true">
      <path
         inkscape:connector-curvature="0"
         id="path4537"
         d="M 0,0 5,-5 -12.5,0 5,5 0,0 Z"
         style="fill:#000000;fill-opacity:1;fill-rule:evenodd;stroke:none;stroke-width:1pt;stroke-opacity:1"
         transform="matrix(0.4,0,0,0.4,4,0)" />
    </marker>
    <marker
       inkscape:collect="always"
       inkscape:isstock="true"
       style="overflow:visible"
       id="Arrow1Mend"
       refX="0"
       refY="0"
       orient="auto"
       inkscape:stockid="Arrow1Mend">
      <path
         inkscape:connector-curvature="0"
         transform="matrix(-0.4,0,0,-0.4,-4,0)"
         style="fill:#000000;fill-opacity:1;fill-rule:evenodd;stroke:#000000;stroke-width:1pt;stroke-opacity:1"
         d="M 0,0 5,-5 -12.5,0 5,5 0,0 Z"
         id="path4151" />
    </marker>
    <marker
       inkscape:collect="always"
       inkscape:isstock="true"
       style="overflow:visible"
       id="Arrow1Mstart"
       refX="0"
       refY="0"
       orient="auto"
       inkscape:stockid="Arrow1Mstart">
      <path
         inkscape:connector-curvature="0"
         transform="matrix(0.4,0,0,0.4,4,0)"
         style="fill:#000000;fill-opacity:1;fill-rule:evenodd;stroke:#000000;stroke-width:1pt;stroke-opacity:1"
         d="M 0,0 5,-5 -12.5,0 5,5 0,0 Z"
         id="path4148" />
    </marker>
  </defs>
  <sodipodi:namedview
     inkscape:document-rotation="0"
     inkscape:guide-bbox="true"
     showguides="true"
     fit-margin-bottom="0"
     fit-margin-right="0"
     fit-margin-left="0"
     fit-margin-top="0"
     inkscape:window-maximized="1"
     inkscape:window-y="23"
     inkscape:window-x="0"
     inkscape:window-height="755"
     inkscape:window-width="1280"
     showgrid="false"
     inkscape:current-layer="layer1"
     inkscape:document-units="px"
     inkscape:cy="143.78507"
     inkscape:cx="291.02225"
     inkscape:zoom="1.133947"
     inkscape:pageshadow="2"
     inkscape:pageopacity="0.0"
     borderopacity="1.0"
     bordercolor="#666666"
     pagecolor="#ffffff"
     id="base">
    <sodipodi:guide
       id="guide4197"
       orientation="0,1"
       position="21.213203,70.003569" />
    <sodipodi:guide
       id="guide4199"
       orientation="0,1"
       position="10.606601,153.44217" />
    <sodipodi:guide
       id="guide4201"
       orientation="0,1"
       position="79.195957,103.94469" />
  </sodipodi:namedview>
  <metadata
     id="metadata7">
    <rdf:RDF>
      <cc:Work
         rdf:about="">
        <dc:format>image/svg+xml</dc:format>
        <dc:type
           rdf:resource="http://purl.org/dc/dcmitype/StillImage" />
        <dc:title />
      </cc:Work>
    </rdf:RDF>
  </metadata>
  <g
     transform="translate(-28.60791,-287.89731)"
     sodipodi:insensitive="true"
     style="display:none;opacity:0.38000028"
     inkscape:label="guides"
     id="layer2"
     inkscape:groupmode="layer">
    <path
       sodipodi:nodetypes="cc"
       inkscape:connector-curvature="0"
       id="path4495"
       d="m 55.154329,301.4148 c 69.733751,57.32004 284.332481,51.26165 468.104691,58.68987"
       style="fill:none;fill-rule:evenodd;stroke:#000000;stroke-width:1px;stroke-linecap:butt;stroke-linejoin:miter;stroke-opacity:1" />
    <path
       style="fill:none;fill-rule:evenodd;stroke:#000000;stroke-width:1px;stroke-linecap:butt;stroke-linejoin:miter;stroke-opacity:1"
       d="M 55.154329,425.27182 C 124.88808,367.95178 339.48681,374.01017 523.25902,366.58195"
       id="path4497"
       inkscape:connector-curvature="0"
       sodipodi:nodetypes="cc" />
  </g>
  <g
     transform="translate(-28.60791,-287.89731)"
     id="layer1"
     inkscape:groupmode="layer"
     inkscape:label="Layer 1">
    <path
       inkscape:connector-curvature="0"
       id="path4136"
       d="m 54.548237,291.71734 0,143.44166 182.837613,0"
       style="fill:none;fill-rule:evenodd;stroke:#000000;stroke-width:2;stroke-linecap:butt;stroke-linejoin:miter;stroke-miterlimit:4;stroke-dasharray:none;stroke-opacity:1;marker-start:url(#Arrow1Mstart);marker-end:url(#Arrow1Mend)" />
    <text
       id="text4462"
       y="554.36218"
       x="252.5"
       style="font-style:normal;font-weight:normal;line-height:0%;font-family:sans-serif;letter-spacing:0px;word-spacing:0px;fill:#000000;fill-opacity:1;stroke:none;stroke-width:1px;stroke-linecap:butt;stroke-linejoin:miter;stroke-opacity:1"
       xml:space="preserve"><tspan
         style="font-size:15px;line-height:1.25"
         y="554.36218"
         x="252.5"
         id="tspan4464"
         sodipodi:role="line">Time (s)</tspan></text>
    <text
       transform="rotate(-90)"
       xml:space="preserve"
       style="font-style:normal;font-weight:normal;line-height:0%;font-family:sans-serif;letter-spacing:0px;word-spacing:0px;fill:#000000;fill-opacity:1;stroke:none;stroke-width:1px;stroke-linecap:butt;stroke-linejoin:miter;stroke-opacity:1"
       x="-386.09024"
       y="40.004395"
       id="text4487"><tspan
         sodipodi:role="line"
         id="tspan4489"
         x="-386.09024"
         y="40.004395"
         style="font-size:15px;line-height:1.25">Signal</tspan></text>
    <path
       sodipodi:nodetypes="cccccccccc"
       inkscape:connector-curvature="0"
       id="path4491"
       d="m 77.860588,650.36019 c 2.866137,64.90587 5.979736,113.8463 11.616504,0 2.888334,-101.17093 6.799104,-74.29347 11.088478,0 4.98562,108.50968 8.52498,49.6132 12.14453,0 2.50973,-43.90069 5.77667,-59.78282 11.08848,0 4.84797,45.52942 8.6987,34.28985 12.14453,0 2.81612,-30.72652 7.0403,-30.72652 12.67255,0 3.47019,10.96749 6.03992,39.02182 12.14452,0 5.0764,-33.16855 8.38535,-9.32237 12.14453,0 3.50508,9.34193 6.95256,19.2849 13.20057,0"
       style="fill:none;fill-rule:evenodd;stroke:#000000;stroke-width:0.72736061px;stroke-linecap:butt;stroke-linejoin:miter;stroke-opacity:1" />
    <path
       style="fill:none;fill-rule:evenodd;stroke:#000000;stroke-width:1px;stroke-linecap:butt;stroke-linejoin:miter;stroke-opacity:1"
       d="m 56,578.3622 c 6.146679,117.62828 10.264603,49.15004 14.59375,0 2.77212,-52.27651 6.240928,-87.32064 14.59375,0 4.864583,54.9197 9.729167,55.7457 14.59375,0 6.5005,-58.07519 10.72613,-35.39233 14.59375,0 5.43185,36.30476 10.48927,48.64649 14.59375,0 3.4896,-25.66638 7.18127,-47.56081 14.59375,0 4.86458,31.13671 9.72917,35.4712 14.59375,0 3.34427,-23.31143 7.29535,-37.31857 14.59375,0 6.22739,27.25618 11.03275,26.07175 14.59375,0 3.15381,-15.82466 6.24093,-32.2662 14.59375,0 4.27921,18.73184 8.98521,23.8067 14.59375,0 3.02484,-19.01066 7.57411,-22.26887 14.59375,0 4.11032,10.55964 7.914,25.41238 14.59375,0 3.38759,-10.35672 6.06907,-23.21756 14.59375,0 4.24204,7.15922 7.82818,21.86134 14.59375,0 4.99883,-17.58414 9.56762,-14.33105 14.59375,0 5.6167,15.04241 10.30544,11.52538 14.59375,0 3.88402,-9.31538 8.08016,-15.66556 14.59375,0 4.0822,6.25905 7.93327,14.36719 14.59375,0 3.2422,-8.65274 7.38015,-12.52809 14.59375,0 3.73006,8.50893 8.20896,11.40152 14.59375,0 3.08089,-8.32392 7.52232,-10.29859 14.59375,0 4.24185,8.71828 9.01974,9.93194 14.59375,0 4.21279,-8.47332 9.04776,-8.85826 14.59375,0 3.96771,3.58751 6.85469,11.49792 14.59375,0 4.86458,-7.80366 9.72917,-6.85008 14.59375,0 4.86458,5.8537 9.72917,7.4396 14.59375,0 3.43817,-3.56604 6.04383,-9.21334 14.59375,0 4.86458,5.13605 9.72917,5.52765 14.59375,0 3.81737,-4.18885 8.13427,-6.37961 14.59375,0 3.216,3.29716 7.40255,4.65324 14.59375,0 4.20405,-1.65134 7.85224,-4.69231 14.59375,0"
       id="path4521"
       inkscape:connector-curvature="0"
       sodipodi:nodetypes="ccccccccccccccccccccccccccccccccc" />
    <path
       style="fill:none;fill-rule:evenodd;stroke:#000000;stroke-width:2;stroke-linecap:butt;stroke-linejoin:miter;stroke-miterlimit:4;stroke-dasharray:none;stroke-opacity:1;marker-start:url(#marker4535);marker-end:url(#marker4563)"
       d="m 417.81527,291.71734 0,143.44166 182.83761,0"
       id="path4523"
       inkscape:connector-curvature="0" />
    <text
       xml:space="preserve"
       style="font-style:normal;font-weight:normal;line-height:0%;font-family:sans-serif;letter-spacing:0px;word-spacing:0px;fill:#000000;fill-opacity:1;stroke:none;stroke-width:1px;stroke-linecap:butt;stroke-linejoin:miter;stroke-opacity:1"
       x="500.60495"
       y="451.22842"
       id="text4525"><tspan
         sodipodi:role="line"
         id="tspan4527"
         x="500.60495"
         y="451.22842"
         style="font-size:15px;line-height:1.25">ppm</tspan></text>
    <text
       id="text4529"
       y="403.27142"
       x="-386.09024"
       style="font-style:normal;font-weight:normal;line-height:0%;font-family:sans-serif;letter-spacing:0px;word-spacing:0px;fill:#000000;fill-opacity:1;stroke:none;stroke-width:1px;stroke-linecap:butt;stroke-linejoin:miter;stroke-opacity:1"
       xml:space="preserve"
       transform="rotate(-90)"><tspan
         style="font-size:15px;line-height:1.25"
         y="403.27142"
         x="-386.09024"
         id="tspan4531"
         sodipodi:role="line">Signal</tspan></text>
    <path
       sodipodi:nodetypes="ccsccscczcc"
       inkscape:connector-curvature="0"
       id="path4633"
       d="m 54.814154,424.73657 41.966882,0 c 0,0 2.832439,-35.92943 3.783114,-36.06244 1.39638,-0.19537 3.07601,36.06244 3.07601,36.06244 l 42.67399,0 c 1.95396,-67.82887 1.88412,-112.60252 3.34592,-117.76696 1.46181,-5.16444 0.91972,28.92677 4.05053,117.76696 l 38.70356,0 c 0,0 1.70804,-68.39399 3.34821,-69.29646 1.64017,-0.90247 2.64112,69.29646 2.64112,69.29646 l 39.41066,0"
       style="fill:none;fill-rule:evenodd;stroke:#000000;stroke-width:1px;stroke-linecap:butt;stroke-linejoin:miter;stroke-opacity:1" />
    <path
       inkscape:connector-curvature="0"
       id="path4635"
       d="m 255.26555,368.58995 c 2.82843,0 115.96551,0 115.96551,0"
       style="fill:none;fill-rule:evenodd;stroke:#000000;stroke-width:2;stroke-linecap:butt;stroke-linejoin:miter;stroke-miterlimit:4;stroke-dasharray:none;stroke-opacity:1;marker-end:url(#marker4643)" />
    <text
       id="text4699"
       y="358.69046"
       x="311.14334"
       style="font-style:normal;font-weight:normal;line-height:0%;font-family:sans-serif;letter-spacing:0px;word-spacing:0px;fill:#000000;fill-opacity:1;stroke:none;stroke-width:1px;stroke-linecap:butt;stroke-linejoin:miter;stroke-opacity:1"
       xml:space="preserve"><tspan
         style="font-size:15px;line-height:1.25;text-align:center;text-anchor:middle"
         id="tspan4703"
         y="358.69046"
         x="311.14334"
         sodipodi:role="line">Rolling</tspan></text>
    <path
       style="fill:none;fill-rule:evenodd;stroke:#000000;stroke-width:1px;stroke-linecap:butt;stroke-linejoin:miter;stroke-opacity:1"
       d="m 418.26703,424.73657 41.96688,0 c 0,0 2.69448,-69.80819 3.78312,-70.00356 1.08864,-0.19537 3.07601,70.00356 3.07601,70.00356 l 42.67399,0 c 1.85041,-23.64689 2.04956,-35.28566 3.34592,-35.74258 1.46181,-0.51523 1.25551,9.59173 4.05053,35.74258 l 38.70356,0 c 0,0 1.76788,-117.32906 3.34821,-117.37972 1.83942,-0.059 2.64112,117.37972 2.64112,117.37972 l 39.41066,0"
       id="path4195"
       inkscape:connector-curvature="0"
       sodipodi:nodetypes="cczccsccscc" />
    <path
       inkscape:connector-curvature="0"
       id="path4203"
       d="m 163.75109,241.01072 58.68986,0"
       style="fill:none;fill-rule:evenodd;stroke:#000000;stroke-width:1px;stroke-linecap:butt;stroke-linejoin:miter;stroke-opacity:1;marker-end:url(#marker4211)" />
    <text
       id="text4263"
       y="238.18231"
       x="187.36574"
       style="font-style:normal;font-weight:normal;line-height:0%;font-family:sans-serif;text-align:center;letter-spacing:0px;word-spacing:0px;text-anchor:middle;fill:#000000;fill-opacity:1;stroke:none;stroke-width:1px;stroke-linecap:butt;stroke-linejoin:miter;stroke-opacity:1"
       xml:space="preserve"><tspan
         style="font-size:12.5px;line-height:1.25;text-align:center;text-anchor:middle"
         y="238.18231"
         x="187.36574"
         id="tspan4265"
         sodipodi:role="line">move</tspan><tspan
         style="font-size:12.5px;line-height:1.25;text-align:center;text-anchor:middle"
         id="tspan4267"
         y="253.80731"
         x="187.36574"
         sodipodi:role="line">right</tspan></text>
    <path
       inkscape:connector-curvature="0"
       id="path4358"
       d="m 276.4891,401.01235 a 47,10.75 0 0 0 60.12126,-1.12603 47,10.75 0 0 0 5.75756,-13.73418 47,10.75 0 0 0 -58.09036,-3.71852"
       style="fill:none;stroke:#000000;stroke-width:1;stroke-miterlimit:4;stroke-dasharray:none;stroke-dashoffset:0;stroke-opacity:1;marker-end:url(#marker4218)" />
    <text
       id="text4626"
       y="382.8219"
       x="97.904373"
       style="font-style:normal;font-weight:normal;line-height:0%;font-family:sans-serif;letter-spacing:0px;word-spacing:0px;fill:#000000;fill-opacity:1;stroke:none;stroke-width:1px;stroke-linecap:butt;stroke-linejoin:miter;stroke-opacity:1"
       xml:space="preserve"><tspan
         style="font-size:10px;line-height:1.25"
         y="382.8219"
         x="97.904373"
         id="tspan4628"
         sodipodi:role="line">a</tspan></text>
    <text
       xml:space="preserve"
       style="font-style:normal;font-weight:normal;line-height:0%;font-family:sans-serif;letter-spacing:0px;word-spacing:0px;fill:#000000;fill-opacity:1;stroke:none;stroke-width:1px;stroke-linecap:butt;stroke-linejoin:miter;stroke-opacity:1"
       x="146.40437"
       y="302.5719"
       id="text4630"><tspan
         sodipodi:role="line"
         id="tspan4632"
         x="146.40437"
         y="302.5719"
         style="font-size:10px;line-height:1.25">b</tspan></text>
    <text
       id="text4634"
       y="351.0719"
       x="192.65437"
       style="font-style:normal;font-weight:normal;line-height:0%;font-family:sans-serif;letter-spacing:0px;word-spacing:0px;fill:#000000;fill-opacity:1;stroke:none;stroke-width:1px;stroke-linecap:butt;stroke-linejoin:miter;stroke-opacity:1"
       xml:space="preserve"><tspan
         style="font-size:10px;line-height:1.25"
         y="351.0719"
         x="192.65437"
         id="tspan4636"
         sodipodi:role="line">c</tspan></text>
    <text
       id="text4638"
       y="334.98233"
       x="239.35789"
       style="font-style:normal;font-weight:normal;line-height:0%;font-family:sans-serif;letter-spacing:0px;word-spacing:0px;fill:#000000;fill-opacity:1;stroke:none;stroke-width:1px;stroke-linecap:butt;stroke-linejoin:miter;stroke-opacity:1"
       xml:space="preserve"><tspan
         style="font-size:40px;line-height:1.25"
         y="334.98233"
         x="239.35789"
         id="tspan4640"
         sodipodi:role="line"> </tspan></text>
    <text
       xml:space="preserve"
       style="font-style:normal;font-weight:normal;line-height:0%;font-family:sans-serif;letter-spacing:0px;word-spacing:0px;fill:#000000;fill-opacity:1;stroke:none;stroke-width:1px;stroke-linecap:butt;stroke-linejoin:miter;stroke-opacity:1"
       x="460.60724"
       y="351.5719"
       id="text4642"><tspan
         sodipodi:role="line"
         id="tspan4644"
         x="460.60724"
         y="351.5719"
         style="font-size:10px;line-height:1.25">c</tspan></text>
    <text
       id="text4646"
       y="386.3219"
       x="509.85724"
       style="font-style:normal;font-weight:normal;line-height:0%;font-family:sans-serif;letter-spacing:0px;word-spacing:0px;fill:#000000;fill-opacity:1;stroke:none;stroke-width:1px;stroke-linecap:butt;stroke-linejoin:miter;stroke-opacity:1"
       xml:space="preserve"><tspan
         style="font-size:10px;line-height:1.25"
         y="386.3219"
         x="509.85724"
         id="tspan4648"
         sodipodi:role="line">a</tspan></text>
    <text
       xml:space="preserve"
       style="font-style:normal;font-weight:normal;line-height:0%;font-family:sans-serif;letter-spacing:0px;word-spacing:0px;fill:#000000;fill-opacity:1;stroke:none;stroke-width:1px;stroke-linecap:butt;stroke-linejoin:miter;stroke-opacity:1"
       x="556.10724"
       y="304.3219"
       id="text4650"><tspan
         sodipodi:role="line"
         id="tspan4652"
         x="556.10724"
         y="304.3219"
         style="font-size:10px;line-height:1.25">b</tspan></text>
    <text
       id="text4525-4"
       y="450.15695"
       x="131.81793"
       style="font-style:normal;font-weight:normal;font-size:12px;line-height:0%;font-family:sans-serif;letter-spacing:0px;word-spacing:0px;fill:#000000;fill-opacity:1;stroke:none;stroke-width:1px;stroke-linecap:butt;stroke-linejoin:miter;stroke-opacity:1"
       xml:space="preserve"><tspan
         style="font-size:15px;line-height:1.25;stroke-width:1px"
         y="450.15695"
         x="131.81793"
         id="tspan4527-6"
         sodipodi:role="line">ppm</tspan></text>
  </g>
</svg>
