<?xml version="1.0" encoding="utf-8" standalone="no"?>
<!DOCTYPE svg PUBLIC "-//W3C//DTD SVG 1.1//EN"
  "http://www.w3.org/Graphics/SVG/1.1/DTD/svg11.dtd">
<svg xmlns:xlink="http://www.w3.org/1999/xlink" width="420.188935pt" height="351.99625pt" viewBox="0 0 420.188935 351.99625" xmlns="http://www.w3.org/2000/svg" version="1.1">
 <metadata>
  <rdf:RDF xmlns:dc="http://purl.org/dc/elements/1.1/" xmlns:cc="http://creativecommons.org/ns#" xmlns:rdf="http://www.w3.org/1999/02/22-rdf-syntax-ns#">
   <cc:Work>
    <dc:type rdf:resource="http://purl.org/dc/dcmitype/StillImage"/>
    <dc:date>2026-06-13T13:13:46.678616</dc:date>
    <dc:format>image/svg+xml</dc:format>
    <dc:creator>
     <cc:Agent>
      <dc:title>Matplotlib v3.10.3, https://matplotlib.org/</dc:title>
     </cc:Agent>
    </dc:creator>
   </cc:Work>
  </rdf:RDF>
 </metadata>
 <defs>
  <style type="text/css">*{stroke-linejoin: round; stroke-linecap: butt}</style>
 </defs>
 <g id="figure_1">
  <g id="patch_1">
   <path d="M 0 351.99625 
L 420.188935 351.99625 
L 420.188935 0 
L 0 0 
z
" style="fill: #ffffff"/>
  </g>
  <g id="axes_1">
   <g id="patch_2">
    <path d="M 47.1875 314.44 
L 341.850735 314.44 
L 341.850735 7.2 
L 47.1875 7.2 
z
" style="fill: #ffffff"/>
   </g>
   <g id="PathCollection_1">
    <defs>
     <path id="m30c8419132" d="M 0 3 
C 0.795609 3 1.55874 2.683901 2.12132 2.12132 
C 2.683901 1.55874 3 0.795609 3 0 
C 3 -0.795609 2.683901 -1.55874 2.12132 -2.12132 
C 1.55874 -2.683901 0.795609 -3 0 -3 
C -0.795609 -3 -1.55874 -2.683901 -2.12132 -2.12132 
C -2.683901 -1.55874 -3 -0.795609 -3 0 
C -3 0.795609 -2.683901 1.55874 -2.12132 2.12132 
C -1.55874 2.683901 -0.795609 3 0 3 
z
" style="stroke: #1f77b4; stroke-opacity: 0.8"/>
    </defs>
    <g clip-path="url(#pee69d87262)">
     <use xlink:href="#m30c8419132" x="60.581283" y="254.404695" style="fill: #1f77b4; fill-opacity: 0.8; stroke: #1f77b4; stroke-opacity: 0.8"/>
     <use xlink:href="#m30c8419132" x="87.756234" y="238.21799" style="fill: #1f77b4; fill-opacity: 0.8; stroke: #1f77b4; stroke-opacity: 0.8"/>
     <use xlink:href="#m30c8419132" x="114.931184" y="213.315369" style="fill: #1f77b4; fill-opacity: 0.8; stroke: #1f77b4; stroke-opacity: 0.8"/>
     <use xlink:href="#m30c8419132" x="142.086765" y="188.412747" style="fill: #1f77b4; fill-opacity: 0.8; stroke: #1f77b4; stroke-opacity: 0.8"/>
     <use xlink:href="#m30c8419132" x="169.261715" y="162.264993" style="fill: #1f77b4; fill-opacity: 0.8; stroke: #1f77b4; stroke-opacity: 0.8"/>
     <use xlink:href="#m30c8419132" x="196.436666" y="139.852634" style="fill: #1f77b4; fill-opacity: 0.8; stroke: #1f77b4; stroke-opacity: 0.8"/>
     <use xlink:href="#m30c8419132" x="223.592247" y="116.195143" style="fill: #1f77b4; fill-opacity: 0.8; stroke: #1f77b4; stroke-opacity: 0.8"/>
     <use xlink:href="#m30c8419132" x="250.767197" y="92.537652" style="fill: #1f77b4; fill-opacity: 0.8; stroke: #1f77b4; stroke-opacity: 0.8"/>
     <use xlink:href="#m30c8419132" x="277.922778" y="71.370423" style="fill: #1f77b4; fill-opacity: 0.8; stroke: #1f77b4; stroke-opacity: 0.8"/>
     <use xlink:href="#m30c8419132" x="305.097728" y="46.467801" style="fill: #1f77b4; fill-opacity: 0.8; stroke: #1f77b4; stroke-opacity: 0.8"/>
     <use xlink:href="#m30c8419132" x="142.086765" y="200.864058" style="fill: #1f77b4; fill-opacity: 0.8; stroke: #1f77b4; stroke-opacity: 0.8"/>
     <use xlink:href="#m30c8419132" x="142.086765" y="231.992335" style="fill: #1f77b4; fill-opacity: 0.8; stroke: #1f77b4; stroke-opacity: 0.8"/>
     <use xlink:href="#m30c8419132" x="169.261715" y="172.226042" style="fill: #1f77b4; fill-opacity: 0.8; stroke: #1f77b4; stroke-opacity: 0.8"/>
     <use xlink:href="#m30c8419132" x="196.436666" y="167.245518" style="fill: #1f77b4; fill-opacity: 0.8; stroke: #1f77b4; stroke-opacity: 0.8"/>
     <use xlink:href="#m30c8419132" x="223.592247" y="161.019862" style="fill: #1f77b4; fill-opacity: 0.8; stroke: #1f77b4; stroke-opacity: 0.8"/>
     <use xlink:href="#m30c8419132" x="180.805743" y="108.724356" style="fill: #1f77b4; fill-opacity: 0.8; stroke: #1f77b4; stroke-opacity: 0.8"/>
     <use xlink:href="#m30c8419132" x="207.980693" y="83.821734" style="fill: #1f77b4; fill-opacity: 0.8; stroke: #1f77b4; stroke-opacity: 0.8"/>
     <use xlink:href="#m30c8419132" x="262.311224" y="61.409374" style="fill: #1f77b4; fill-opacity: 0.8; stroke: #1f77b4; stroke-opacity: 0.8"/>
    </g>
   </g>
   <g id="FillBetweenPolyCollection_1">
    <path d="M 60.581283 251.11829 
L 60.581283 285.150976 
L 63.051146 282.569474 
L 65.52101 279.987972 
L 67.990873 277.40647 
L 70.460736 274.827271 
L 72.930599 272.450588 
L 75.400462 270.026301 
L 77.870325 267.548804 
L 80.340188 265.029919 
L 82.810051 262.462963 
L 85.279914 259.930334 
L 87.749777 257.470772 
L 90.21964 254.953155 
L 92.689503 252.430752 
L 95.159367 249.806841 
L 97.62923 247.177861 
L 100.099093 244.752333 
L 102.568956 242.352818 
L 105.038819 239.83683 
L 107.508682 237.320841 
L 109.978545 234.79649 
L 112.448408 232.27445 
L 114.918271 229.760656 
L 117.388134 227.243488 
L 119.857997 224.721671 
L 122.32786 222.309106 
L 124.797724 219.678037 
L 127.267587 217.230326 
L 129.73745 214.897952 
L 132.207313 212.615773 
L 134.677176 210.117471 
L 137.147039 207.581471 
L 139.616902 204.994203 
L 142.086765 202.493488 
L 144.556628 200.067488 
L 147.026491 197.74214 
L 149.496354 195.41314 
L 151.966217 193.079717 
L 154.436081 190.658095 
L 156.905944 188.420456 
L 159.375807 186.09341 
L 161.84567 183.798456 
L 164.315533 181.572814 
L 166.785396 179.453137 
L 169.255259 177.074977 
L 171.725122 174.807077 
L 174.194985 172.490136 
L 176.664848 170.353887 
L 179.134711 168.139771 
L 181.604574 166.055752 
L 184.074437 163.702973 
L 186.544301 161.453274 
L 189.014164 159.322106 
L 191.484027 157.129235 
L 193.95389 154.797486 
L 196.423753 152.553543 
L 198.893616 150.370665 
L 201.363479 148.186424 
L 203.833342 145.960842 
L 206.303205 143.850415 
L 208.773068 141.691477 
L 211.242931 139.685976 
L 213.712794 137.760624 
L 216.182658 135.583232 
L 218.652521 133.589484 
L 221.122384 131.446313 
L 223.592247 129.135276 
L 226.06211 126.82362 
L 228.531973 124.648562 
L 231.001836 122.553452 
L 233.471699 120.583949 
L 235.941562 118.554821 
L 238.411425 116.403512 
L 240.881288 114.427025 
L 243.351151 112.445668 
L 245.821015 110.196513 
L 248.290878 107.88084 
L 250.760741 105.595793 
L 253.230604 103.759758 
L 255.700467 101.545382 
L 258.17033 99.421523 
L 260.640193 97.430029 
L 263.110056 95.438536 
L 265.579919 93.447042 
L 268.049782 91.453229 
L 270.519645 89.333315 
L 272.989508 87.217978 
L 275.459371 85.219442 
L 277.929235 83.220906 
L 280.399098 81.22237 
L 282.868961 79.223835 
L 285.338824 77.224914 
L 287.808687 75.222966 
L 290.27855 73.221018 
L 292.748413 71.118439 
L 295.218276 68.995023 
L 297.688139 66.86763 
L 300.158002 64.763584 
L 302.627865 62.634356 
L 305.097728 60.493301 
L 305.097728 21.165455 
L 305.097728 21.165455 
L 302.627865 23.780291 
L 300.158002 26.395128 
L 297.688139 28.952018 
L 295.218276 31.360734 
L 292.748413 33.92304 
L 290.27855 36.485345 
L 287.808687 39.04765 
L 285.338824 41.588626 
L 282.868961 44.097384 
L 280.399098 46.606142 
L 277.929235 49.083663 
L 275.459371 51.397603 
L 272.989508 53.914775 
L 270.519645 56.575698 
L 268.049782 59.140289 
L 265.579919 61.649532 
L 263.110056 64.15358 
L 260.640193 66.65477 
L 258.17033 69.161315 
L 255.700467 71.732529 
L 253.230604 74.469563 
L 250.760741 76.96265 
L 248.290878 79.386225 
L 245.821015 81.784328 
L 243.351151 84.194351 
L 240.881288 86.587968 
L 238.411425 88.968932 
L 235.941562 91.288968 
L 233.471699 93.759468 
L 231.001836 96.152636 
L 228.531973 98.545803 
L 226.06211 100.941193 
L 223.592247 103.378439 
L 221.122384 105.66105 
L 218.652521 107.854991 
L 216.182658 110.05154 
L 213.712794 112.484235 
L 211.242931 115.123944 
L 208.773068 117.511535 
L 206.303205 119.829116 
L 203.833342 122.1367 
L 201.363479 124.445349 
L 198.893616 126.753041 
L 196.423753 129.075633 
L 193.95389 131.354227 
L 191.484027 133.659597 
L 189.014164 136.040372 
L 186.544301 138.355436 
L 184.074437 140.725184 
L 181.604574 142.986675 
L 179.134711 145.279898 
L 176.664848 147.615758 
L 174.194985 149.965301 
L 171.725122 152.245818 
L 169.255259 154.562921 
L 166.785396 156.81923 
L 164.315533 159.015476 
L 161.84567 161.27354 
L 159.375807 163.693995 
L 156.905944 165.946709 
L 154.436081 168.225395 
L 151.966217 170.597603 
L 149.496354 172.779976 
L 147.026491 175.201444 
L 144.556628 177.51648 
L 142.086765 179.830838 
L 139.616902 182.157474 
L 137.147039 184.284882 
L 134.677176 186.58288 
L 132.207313 188.805437 
L 129.73745 190.964425 
L 127.267587 193.123414 
L 124.797724 195.283213 
L 122.32786 197.442214 
L 119.857997 199.651855 
L 117.388134 201.810107 
L 114.918271 204.016739 
L 112.448408 206.204349 
L 109.978545 208.374381 
L 107.508682 210.544414 
L 105.038819 212.718368 
L 102.568956 214.884479 
L 100.099093 216.97285 
L 97.62923 219.015551 
L 95.159367 221.17265 
L 92.689503 223.32975 
L 90.21964 225.48685 
L 87.749777 227.643949 
L 85.279914 229.801049 
L 82.810051 231.958149 
L 80.340188 234.115248 
L 77.870325 236.013337 
L 75.400462 238.098523 
L 72.930599 240.399735 
L 70.460736 242.70163 
L 67.990873 244.796285 
L 65.52101 246.850143 
L 63.051146 248.937721 
L 60.581283 251.11829 
z
" clip-path="url(#pee69d87262)" style="fill: #1f77b4; fill-opacity: 0.15"/>
   </g>
   <g id="PathCollection_2">
    <defs>
     <path id="m0c24d25877" d="M 0 3 
C 0.795609 3 1.55874 2.683901 2.12132 2.12132 
C 2.683901 1.55874 3 0.795609 3 0 
C 3 -0.795609 2.683901 -1.55874 2.12132 -2.12132 
C 1.55874 -2.683901 0.795609 -3 0 -3 
C -0.795609 -3 -1.55874 -2.683901 -2.12132 -2.12132 
C -2.683901 -1.55874 -3 -0.795609 -3 0 
C -3 0.795609 -2.683901 1.55874 -2.12132 2.12132 
C -1.55874 2.683901 -0.795609 3 0 3 
z
" style="stroke: #ff7f0e; stroke-opacity: 0.8"/>
    </defs>
    <g clip-path="url(#pee69d87262)">
     <use xlink:href="#m0c24d25877" x="138.271038" y="290.513497" style="fill: #ff7f0e; fill-opacity: 0.8; stroke: #ff7f0e; stroke-opacity: 0.8"/>
     <use xlink:href="#m0c24d25877" x="165.445988" y="249.42417" style="fill: #ff7f0e; fill-opacity: 0.8; stroke: #ff7f0e; stroke-opacity: 0.8"/>
     <use xlink:href="#m0c24d25877" x="192.620939" y="213.315369" style="fill: #ff7f0e; fill-opacity: 0.8; stroke: #ff7f0e; stroke-opacity: 0.8"/>
     <use xlink:href="#m0c24d25877" x="219.77652" y="178.451698" style="fill: #ff7f0e; fill-opacity: 0.8; stroke: #ff7f0e; stroke-opacity: 0.8"/>
     <use xlink:href="#m0c24d25877" x="246.95147" y="147.32342" style="fill: #ff7f0e; fill-opacity: 0.8; stroke: #ff7f0e; stroke-opacity: 0.8"/>
     <use xlink:href="#m0c24d25877" x="274.12642" y="118.685405" style="fill: #ff7f0e; fill-opacity: 0.8; stroke: #ff7f0e; stroke-opacity: 0.8"/>
     <use xlink:href="#m0c24d25877" x="301.282001" y="91.292521" style="fill: #ff7f0e; fill-opacity: 0.8; stroke: #ff7f0e; stroke-opacity: 0.8"/>
     <use xlink:href="#m0c24d25877" x="328.456952" y="66.389899" style="fill: #ff7f0e; fill-opacity: 0.8; stroke: #ff7f0e; stroke-opacity: 0.8"/>
     <use xlink:href="#m0c24d25877" x="165.445988" y="256.894957" style="fill: #ff7f0e; fill-opacity: 0.8; stroke: #ff7f0e; stroke-opacity: 0.8"/>
     <use xlink:href="#m0c24d25877" x="219.77652" y="189.657878" style="fill: #ff7f0e; fill-opacity: 0.8; stroke: #ff7f0e; stroke-opacity: 0.8"/>
     <use xlink:href="#m0c24d25877" x="138.271038" y="300.474545" style="fill: #ff7f0e; fill-opacity: 0.8; stroke: #ff7f0e; stroke-opacity: 0.8"/>
     <use xlink:href="#m0c24d25877" x="192.620939" y="235.727728" style="fill: #ff7f0e; fill-opacity: 0.8; stroke: #ff7f0e; stroke-opacity: 0.8"/>
    </g>
   </g>
   <g id="FillBetweenPolyCollection_2">
    <path d="M 138.271038 280.097347 
L 138.271038 297.2117 
L 140.192108 294.72471 
L 142.113178 292.155532 
L 144.034247 289.615704 
L 145.955317 286.980957 
L 147.876387 284.4639 
L 149.797457 281.989376 
L 151.718527 279.555992 
L 153.639597 277.101819 
L 155.560666 274.604141 
L 157.481736 272.150664 
L 159.402806 269.668165 
L 161.323876 267.143136 
L 163.244946 264.737429 
L 165.166016 262.293797 
L 167.087085 259.800484 
L 169.008155 257.263242 
L 170.929225 254.727067 
L 172.850295 252.319486 
L 174.771365 249.838589 
L 176.692435 247.320748 
L 178.613504 244.941153 
L 180.534574 242.510227 
L 182.455644 240.0419 
L 184.376714 237.628503 
L 186.297784 235.210941 
L 188.218854 232.787284 
L 190.139923 230.391177 
L 192.060993 228.007888 
L 193.982063 225.587034 
L 195.903133 223.198399 
L 197.824203 220.817677 
L 199.745273 218.471418 
L 201.666342 216.085936 
L 203.587412 213.699802 
L 205.508482 211.32652 
L 207.429552 208.968039 
L 209.350622 206.613958 
L 211.271692 204.255336 
L 213.192761 201.871174 
L 215.113831 199.488914 
L 217.034901 197.119017 
L 218.955971 194.74912 
L 220.877041 192.379223 
L 222.798111 190.01504 
L 224.719181 187.639429 
L 226.64025 185.270056 
L 228.56132 182.909625 
L 230.48239 180.621906 
L 232.40346 178.20043 
L 234.32453 175.85856 
L 236.2456 173.543178 
L 238.166669 171.225643 
L 240.087739 168.907366 
L 242.008809 166.564114 
L 243.929879 164.245311 
L 245.850949 161.920863 
L 247.772019 159.533757 
L 249.693088 157.188685 
L 251.614158 154.905611 
L 253.535228 152.622537 
L 255.456298 150.308626 
L 257.377368 148.002149 
L 259.298438 145.694421 
L 261.219507 143.374943 
L 263.140577 141.047003 
L 265.061647 138.704271 
L 266.982717 136.362637 
L 268.903787 134.076291 
L 270.824857 131.744665 
L 272.745926 129.413039 
L 274.666996 127.081413 
L 276.588066 124.823795 
L 278.509136 122.506847 
L 280.430206 120.188044 
L 282.351276 117.86924 
L 284.272345 115.550193 
L 286.193415 113.23085 
L 288.114485 110.924383 
L 290.035555 108.625863 
L 291.956625 106.296003 
L 293.877695 103.976952 
L 295.798764 101.697411 
L 297.719834 99.42115 
L 299.640904 97.121891 
L 301.561974 94.807192 
L 303.483044 92.490696 
L 305.404114 90.175272 
L 307.325183 87.877448 
L 309.246253 85.566443 
L 311.167323 83.339044 
L 313.088393 81.020504 
L 315.009463 78.774341 
L 316.930533 76.597477 
L 318.851602 74.370012 
L 320.772672 72.102702 
L 322.693742 69.86747 
L 324.614812 67.553996 
L 326.535882 65.27572 
L 328.456952 63.052082 
L 328.456952 40.03996 
L 328.456952 40.03996 
L 326.535882 42.594309 
L 324.614812 45.148657 
L 322.693742 47.713342 
L 320.772672 50.314751 
L 318.851602 52.91616 
L 316.930533 55.517569 
L 315.009463 58.119581 
L 313.088393 60.721621 
L 311.167323 63.323661 
L 309.246253 65.925701 
L 307.325183 68.527741 
L 305.404114 71.129781 
L 303.483044 73.720225 
L 301.561974 76.246411 
L 299.640904 78.772596 
L 297.719834 81.298782 
L 295.798764 83.824967 
L 293.877695 86.351153 
L 291.956625 88.879418 
L 290.035555 91.456427 
L 288.114485 94.033437 
L 286.193415 96.610446 
L 284.272345 99.187456 
L 282.351276 101.764465 
L 280.430206 104.341475 
L 278.509136 106.918484 
L 276.588066 109.495494 
L 274.666996 111.990643 
L 272.745926 114.476225 
L 270.824857 116.962475 
L 268.903787 119.449102 
L 266.982717 121.935729 
L 265.061647 124.422362 
L 263.140577 126.977324 
L 261.219507 129.57708 
L 259.298438 132.076916 
L 257.377368 134.612977 
L 255.456298 137.06526 
L 253.535228 139.625495 
L 251.614158 142.167052 
L 249.693088 144.755225 
L 247.772019 147.285532 
L 245.850949 149.824862 
L 243.929879 152.37673 
L 242.008809 154.931909 
L 240.087739 157.485559 
L 238.166669 159.879604 
L 236.2456 162.492481 
L 234.32453 165.107924 
L 232.40346 167.336046 
L 230.48239 169.862035 
L 228.56132 172.419862 
L 226.64025 174.978158 
L 224.719181 177.528178 
L 222.798111 180.05524 
L 220.877041 182.421426 
L 218.955971 184.916335 
L 217.034901 187.407404 
L 215.113831 189.752341 
L 213.192761 192.135997 
L 211.271692 194.411465 
L 209.350622 196.712596 
L 207.429552 199.196403 
L 205.508482 201.591596 
L 203.587412 203.940683 
L 201.666342 206.254704 
L 199.745273 208.574367 
L 197.824203 210.845661 
L 195.903133 213.100495 
L 193.982063 215.3263 
L 192.060993 217.640613 
L 190.139923 219.908671 
L 188.218854 222.188414 
L 186.297784 224.417555 
L 184.376714 226.655095 
L 182.455644 228.869017 
L 180.534574 231.095417 
L 178.613504 233.340449 
L 176.692435 235.571271 
L 174.771365 237.803716 
L 172.850295 240.065691 
L 170.929225 242.298752 
L 169.008155 244.494153 
L 167.087085 246.689564 
L 165.166016 248.909674 
L 163.244946 251.136081 
L 161.323876 253.362488 
L 159.402806 255.588896 
L 157.481736 257.815303 
L 155.560666 260.04171 
L 153.639597 262.268117 
L 151.718527 264.494988 
L 149.797457 266.722388 
L 147.876387 268.949787 
L 145.955317 271.177187 
L 144.034247 273.404587 
L 142.113178 275.655321 
L 140.192108 277.887959 
L 138.271038 280.097347 
z
" clip-path="url(#pee69d87262)" style="fill: #ff7f0e; fill-opacity: 0.15"/>
   </g>
   <g id="matplotlib.axis_1">
    <g id="xtick_1">
     <g id="line2d_1">
      <defs>
       <path id="mf75dfe85d8" d="M 0 0 
L 0 3.5 
" style="stroke: #000000; stroke-width: 0.8"/>
      </defs>
      <g>
       <use xlink:href="#mf75dfe85d8" x="75.999145" y="314.44" style="stroke: #000000; stroke-width: 0.8"/>
      </g>
     </g>
     <g id="text_1">
      <!-- 40 -->
      <g transform="translate(69.636645 329.038437) scale(0.1 -0.1)">
       <defs>
        <path id="DejaVuSans-34" d="M 2419 4116 
L 825 1625 
L 2419 1625 
L 2419 4116 
z
M 2253 4666 
L 3047 4666 
L 3047 1625 
L 3713 1625 
L 3713 1100 
L 3047 1100 
L 3047 0 
L 2419 0 
L 2419 1100 
L 313 1100 
L 313 1709 
L 2253 4666 
z
" transform="scale(0.015625)"/>
        <path id="DejaVuSans-30" d="M 2034 4250 
Q 1547 4250 1301 3770 
Q 1056 3291 1056 2328 
Q 1056 1369 1301 889 
Q 1547 409 2034 409 
Q 2525 409 2770 889 
Q 3016 1369 3016 2328 
Q 3016 3291 2770 3770 
Q 2525 4250 2034 4250 
z
M 2034 4750 
Q 2819 4750 3233 4129 
Q 3647 3509 3647 2328 
Q 3647 1150 3233 529 
Q 2819 -91 2034 -91 
Q 1250 -91 836 529 
Q 422 1150 422 2328 
Q 422 3509 836 4129 
Q 1250 4750 2034 4750 
z
" transform="scale(0.015625)"/>
       </defs>
       <use xlink:href="#DejaVuSans-34"/>
       <use xlink:href="#DejaVuSans-30" transform="translate(63.623047 0)"/>
      </g>
     </g>
    </g>
    <g id="xtick_2">
     <g id="line2d_2">
      <g>
       <use xlink:href="#mf75dfe85d8" x="114.737492" y="314.44" style="stroke: #000000; stroke-width: 0.8"/>
      </g>
     </g>
     <g id="text_2">
      <!-- 60 -->
      <g transform="translate(108.374992 329.038437) scale(0.1 -0.1)">
       <defs>
        <path id="DejaVuSans-36" d="M 2113 2584 
Q 1688 2584 1439 2293 
Q 1191 2003 1191 1497 
Q 1191 994 1439 701 
Q 1688 409 2113 409 
Q 2538 409 2786 701 
Q 3034 994 3034 1497 
Q 3034 2003 2786 2293 
Q 2538 2584 2113 2584 
z
M 3366 4563 
L 3366 3988 
Q 3128 4100 2886 4159 
Q 2644 4219 2406 4219 
Q 1781 4219 1451 3797 
Q 1122 3375 1075 2522 
Q 1259 2794 1537 2939 
Q 1816 3084 2150 3084 
Q 2853 3084 3261 2657 
Q 3669 2231 3669 1497 
Q 3669 778 3244 343 
Q 2819 -91 2113 -91 
Q 1303 -91 875 529 
Q 447 1150 447 2328 
Q 447 3434 972 4092 
Q 1497 4750 2381 4750 
Q 2619 4750 2861 4703 
Q 3103 4656 3366 4563 
z
" transform="scale(0.015625)"/>
       </defs>
       <use xlink:href="#DejaVuSans-36"/>
       <use xlink:href="#DejaVuSans-30" transform="translate(63.623047 0)"/>
      </g>
     </g>
    </g>
    <g id="xtick_3">
     <g id="line2d_3">
      <g>
       <use xlink:href="#mf75dfe85d8" x="153.475839" y="314.44" style="stroke: #000000; stroke-width: 0.8"/>
      </g>
     </g>
     <g id="text_3">
      <!-- 80 -->
      <g transform="translate(147.113339 329.038437) scale(0.1 -0.1)">
       <defs>
        <path id="DejaVuSans-38" d="M 2034 2216 
Q 1584 2216 1326 1975 
Q 1069 1734 1069 1313 
Q 1069 891 1326 650 
Q 1584 409 2034 409 
Q 2484 409 2743 651 
Q 3003 894 3003 1313 
Q 3003 1734 2745 1975 
Q 2488 2216 2034 2216 
z
M 1403 2484 
Q 997 2584 770 2862 
Q 544 3141 544 3541 
Q 544 4100 942 4425 
Q 1341 4750 2034 4750 
Q 2731 4750 3128 4425 
Q 3525 4100 3525 3541 
Q 3525 3141 3298 2862 
Q 3072 2584 2669 2484 
Q 3125 2378 3379 2068 
Q 3634 1759 3634 1313 
Q 3634 634 3220 271 
Q 2806 -91 2034 -91 
Q 1263 -91 848 271 
Q 434 634 434 1313 
Q 434 1759 690 2068 
Q 947 2378 1403 2484 
z
M 1172 3481 
Q 1172 3119 1398 2916 
Q 1625 2713 2034 2713 
Q 2441 2713 2670 2916 
Q 2900 3119 2900 3481 
Q 2900 3844 2670 4047 
Q 2441 4250 2034 4250 
Q 1625 4250 1398 4047 
Q 1172 3844 1172 3481 
z
" transform="scale(0.015625)"/>
       </defs>
       <use xlink:href="#DejaVuSans-38"/>
       <use xlink:href="#DejaVuSans-30" transform="translate(63.623047 0)"/>
      </g>
     </g>
    </g>
    <g id="xtick_4">
     <g id="line2d_4">
      <g>
       <use xlink:href="#mf75dfe85d8" x="192.214186" y="314.44" style="stroke: #000000; stroke-width: 0.8"/>
      </g>
     </g>
     <g id="text_4">
      <!-- 100 -->
      <g transform="translate(182.670436 329.038437) scale(0.1 -0.1)">
       <defs>
        <path id="DejaVuSans-31" d="M 794 531 
L 1825 531 
L 1825 4091 
L 703 3866 
L 703 4441 
L 1819 4666 
L 2450 4666 
L 2450 531 
L 3481 531 
L 3481 0 
L 794 0 
L 794 531 
z
" transform="scale(0.015625)"/>
       </defs>
       <use xlink:href="#DejaVuSans-31"/>
       <use xlink:href="#DejaVuSans-30" transform="translate(63.623047 0)"/>
       <use xlink:href="#DejaVuSans-30" transform="translate(127.246094 0)"/>
      </g>
     </g>
    </g>
    <g id="xtick_5">
     <g id="line2d_5">
      <g>
       <use xlink:href="#mf75dfe85d8" x="230.952533" y="314.44" style="stroke: #000000; stroke-width: 0.8"/>
      </g>
     </g>
     <g id="text_5">
      <!-- 120 -->
      <g transform="translate(221.408783 329.038437) scale(0.1 -0.1)">
       <defs>
        <path id="DejaVuSans-32" d="M 1228 531 
L 3431 531 
L 3431 0 
L 469 0 
L 469 531 
Q 828 903 1448 1529 
Q 2069 2156 2228 2338 
Q 2531 2678 2651 2914 
Q 2772 3150 2772 3378 
Q 2772 3750 2511 3984 
Q 2250 4219 1831 4219 
Q 1534 4219 1204 4116 
Q 875 4013 500 3803 
L 500 4441 
Q 881 4594 1212 4672 
Q 1544 4750 1819 4750 
Q 2544 4750 2975 4387 
Q 3406 4025 3406 3419 
Q 3406 3131 3298 2873 
Q 3191 2616 2906 2266 
Q 2828 2175 2409 1742 
Q 1991 1309 1228 531 
z
" transform="scale(0.015625)"/>
       </defs>
       <use xlink:href="#DejaVuSans-31"/>
       <use xlink:href="#DejaVuSans-32" transform="translate(63.623047 0)"/>
       <use xlink:href="#DejaVuSans-30" transform="translate(127.246094 0)"/>
      </g>
     </g>
    </g>
    <g id="xtick_6">
     <g id="line2d_6">
      <g>
       <use xlink:href="#mf75dfe85d8" x="269.690879" y="314.44" style="stroke: #000000; stroke-width: 0.8"/>
      </g>
     </g>
     <g id="text_6">
      <!-- 140 -->
      <g transform="translate(260.147129 329.038437) scale(0.1 -0.1)">
       <use xlink:href="#DejaVuSans-31"/>
       <use xlink:href="#DejaVuSans-34" transform="translate(63.623047 0)"/>
       <use xlink:href="#DejaVuSans-30" transform="translate(127.246094 0)"/>
      </g>
     </g>
    </g>
    <g id="xtick_7">
     <g id="line2d_7">
      <g>
       <use xlink:href="#mf75dfe85d8" x="308.429226" y="314.44" style="stroke: #000000; stroke-width: 0.8"/>
      </g>
     </g>
     <g id="text_7">
      <!-- 160 -->
      <g transform="translate(298.885476 329.038437) scale(0.1 -0.1)">
       <use xlink:href="#DejaVuSans-31"/>
       <use xlink:href="#DejaVuSans-36" transform="translate(63.623047 0)"/>
       <use xlink:href="#DejaVuSans-30" transform="translate(127.246094 0)"/>
      </g>
     </g>
    </g>
    <g id="text_8">
     <!-- MW, g/mol -->
     <g transform="translate(167.905836 342.716562) scale(0.1 -0.1)">
      <defs>
       <path id="DejaVuSans-4d" d="M 628 4666 
L 1569 4666 
L 2759 1491 
L 3956 4666 
L 4897 4666 
L 4897 0 
L 4281 0 
L 4281 4097 
L 3078 897 
L 2444 897 
L 1241 4097 
L 1241 0 
L 628 0 
L 628 4666 
z
" transform="scale(0.015625)"/>
       <path id="DejaVuSans-57" d="M 213 4666 
L 850 4666 
L 1831 722 
L 2809 4666 
L 3519 4666 
L 4500 722 
L 5478 4666 
L 6119 4666 
L 4947 0 
L 4153 0 
L 3169 4050 
L 2175 0 
L 1381 0 
L 213 4666 
z
" transform="scale(0.015625)"/>
       <path id="DejaVuSans-2c" d="M 750 794 
L 1409 794 
L 1409 256 
L 897 -744 
L 494 -744 
L 750 256 
L 750 794 
z
" transform="scale(0.015625)"/>
       <path id="DejaVuSans-20" transform="scale(0.015625)"/>
       <path id="DejaVuSans-67" d="M 2906 1791 
Q 2906 2416 2648 2759 
Q 2391 3103 1925 3103 
Q 1463 3103 1205 2759 
Q 947 2416 947 1791 
Q 947 1169 1205 825 
Q 1463 481 1925 481 
Q 2391 481 2648 825 
Q 2906 1169 2906 1791 
z
M 3481 434 
Q 3481 -459 3084 -895 
Q 2688 -1331 1869 -1331 
Q 1566 -1331 1297 -1286 
Q 1028 -1241 775 -1147 
L 775 -588 
Q 1028 -725 1275 -790 
Q 1522 -856 1778 -856 
Q 2344 -856 2625 -561 
Q 2906 -266 2906 331 
L 2906 616 
Q 2728 306 2450 153 
Q 2172 0 1784 0 
Q 1141 0 747 490 
Q 353 981 353 1791 
Q 353 2603 747 3093 
Q 1141 3584 1784 3584 
Q 2172 3584 2450 3431 
Q 2728 3278 2906 2969 
L 2906 3500 
L 3481 3500 
L 3481 434 
z
" transform="scale(0.015625)"/>
       <path id="DejaVuSans-2f" d="M 1625 4666 
L 2156 4666 
L 531 -594 
L 0 -594 
L 1625 4666 
z
" transform="scale(0.015625)"/>
       <path id="DejaVuSans-6d" d="M 3328 2828 
Q 3544 3216 3844 3400 
Q 4144 3584 4550 3584 
Q 5097 3584 5394 3201 
Q 5691 2819 5691 2113 
L 5691 0 
L 5113 0 
L 5113 2094 
Q 5113 2597 4934 2840 
Q 4756 3084 4391 3084 
Q 3944 3084 3684 2787 
Q 3425 2491 3425 1978 
L 3425 0 
L 2847 0 
L 2847 2094 
Q 2847 2600 2669 2842 
Q 2491 3084 2119 3084 
Q 1678 3084 1418 2786 
Q 1159 2488 1159 1978 
L 1159 0 
L 581 0 
L 581 3500 
L 1159 3500 
L 1159 2956 
Q 1356 3278 1631 3431 
Q 1906 3584 2284 3584 
Q 2666 3584 2933 3390 
Q 3200 3197 3328 2828 
z
" transform="scale(0.015625)"/>
       <path id="DejaVuSans-6f" d="M 1959 3097 
Q 1497 3097 1228 2736 
Q 959 2375 959 1747 
Q 959 1119 1226 758 
Q 1494 397 1959 397 
Q 2419 397 2687 759 
Q 2956 1122 2956 1747 
Q 2956 2369 2687 2733 
Q 2419 3097 1959 3097 
z
M 1959 3584 
Q 2709 3584 3137 3096 
Q 3566 2609 3566 1747 
Q 3566 888 3137 398 
Q 2709 -91 1959 -91 
Q 1206 -91 779 398 
Q 353 888 353 1747 
Q 353 2609 779 3096 
Q 1206 3584 1959 3584 
z
" transform="scale(0.015625)"/>
       <path id="DejaVuSans-6c" d="M 603 4863 
L 1178 4863 
L 1178 0 
L 603 0 
L 603 4863 
z
" transform="scale(0.015625)"/>
      </defs>
      <use xlink:href="#DejaVuSans-4d"/>
      <use xlink:href="#DejaVuSans-57" transform="translate(86.279297 0)"/>
      <use xlink:href="#DejaVuSans-2c" transform="translate(185.15625 0)"/>
      <use xlink:href="#DejaVuSans-20" transform="translate(216.943359 0)"/>
      <use xlink:href="#DejaVuSans-67" transform="translate(248.730469 0)"/>
      <use xlink:href="#DejaVuSans-2f" transform="translate(312.207031 0)"/>
      <use xlink:href="#DejaVuSans-6d" transform="translate(345.898438 0)"/>
      <use xlink:href="#DejaVuSans-6f" transform="translate(443.310547 0)"/>
      <use xlink:href="#DejaVuSans-6c" transform="translate(504.492188 0)"/>
     </g>
    </g>
   </g>
   <g id="matplotlib.axis_2">
    <g id="ytick_1">
     <g id="line2d_8">
      <defs>
       <path id="m8fc8285bda" d="M 0 0 
L -3.5 0 
" style="stroke: #000000; stroke-width: 0.8"/>
      </defs>
      <g>
       <use xlink:href="#m8fc8285bda" x="47.1875" y="273.081661" style="stroke: #000000; stroke-width: 0.8"/>
      </g>
     </g>
     <g id="text_9">
      <!-- 50 -->
      <g transform="translate(27.4625 276.88088) scale(0.1 -0.1)">
       <defs>
        <path id="DejaVuSans-35" d="M 691 4666 
L 3169 4666 
L 3169 4134 
L 1269 4134 
L 1269 2991 
Q 1406 3038 1543 3061 
Q 1681 3084 1819 3084 
Q 2600 3084 3056 2656 
Q 3513 2228 3513 1497 
Q 3513 744 3044 326 
Q 2575 -91 1722 -91 
Q 1428 -91 1123 -41 
Q 819 9 494 109 
L 494 744 
Q 775 591 1075 516 
Q 1375 441 1709 441 
Q 2250 441 2565 725 
Q 2881 1009 2881 1497 
Q 2881 1984 2565 2268 
Q 2250 2553 1709 2553 
Q 1456 2553 1204 2497 
Q 953 2441 691 2322 
L 691 4666 
z
" transform="scale(0.015625)"/>
       </defs>
       <use xlink:href="#DejaVuSans-35"/>
       <use xlink:href="#DejaVuSans-30" transform="translate(63.623047 0)"/>
      </g>
     </g>
    </g>
    <g id="ytick_2">
     <g id="line2d_9">
      <g>
       <use xlink:href="#m8fc8285bda" x="47.1875" y="210.825106" style="stroke: #000000; stroke-width: 0.8"/>
      </g>
     </g>
     <g id="text_10">
      <!-- 100 -->
      <g transform="translate(21.1 214.624325) scale(0.1 -0.1)">
       <use xlink:href="#DejaVuSans-31"/>
       <use xlink:href="#DejaVuSans-30" transform="translate(63.623047 0)"/>
       <use xlink:href="#DejaVuSans-30" transform="translate(127.246094 0)"/>
      </g>
     </g>
    </g>
    <g id="ytick_3">
     <g id="line2d_10">
      <g>
       <use xlink:href="#m8fc8285bda" x="47.1875" y="148.568551" style="stroke: #000000; stroke-width: 0.8"/>
      </g>
     </g>
     <g id="text_11">
      <!-- 150 -->
      <g transform="translate(21.1 152.36777) scale(0.1 -0.1)">
       <use xlink:href="#DejaVuSans-31"/>
       <use xlink:href="#DejaVuSans-35" transform="translate(63.623047 0)"/>
       <use xlink:href="#DejaVuSans-30" transform="translate(127.246094 0)"/>
      </g>
     </g>
    </g>
    <g id="ytick_4">
     <g id="line2d_11">
      <g>
       <use xlink:href="#m8fc8285bda" x="47.1875" y="86.311996" style="stroke: #000000; stroke-width: 0.8"/>
      </g>
     </g>
     <g id="text_12">
      <!-- 200 -->
      <g transform="translate(21.1 90.111215) scale(0.1 -0.1)">
       <use xlink:href="#DejaVuSans-32"/>
       <use xlink:href="#DejaVuSans-30" transform="translate(63.623047 0)"/>
       <use xlink:href="#DejaVuSans-30" transform="translate(127.246094 0)"/>
      </g>
     </g>
    </g>
    <g id="ytick_5">
     <g id="line2d_12">
      <g>
       <use xlink:href="#m8fc8285bda" x="47.1875" y="24.055441" style="stroke: #000000; stroke-width: 0.8"/>
      </g>
     </g>
     <g id="text_13">
      <!-- 250 -->
      <g transform="translate(21.1 27.85466) scale(0.1 -0.1)">
       <use xlink:href="#DejaVuSans-32"/>
       <use xlink:href="#DejaVuSans-35" transform="translate(63.623047 0)"/>
       <use xlink:href="#DejaVuSans-30" transform="translate(127.246094 0)"/>
      </g>
     </g>
    </g>
    <g id="text_14">
     <!-- bp, $^o$C -->
     <g transform="translate(15 176.17) rotate(-90) scale(0.1 -0.1)">
      <defs>
       <path id="DejaVuSans-62" d="M 3116 1747 
Q 3116 2381 2855 2742 
Q 2594 3103 2138 3103 
Q 1681 3103 1420 2742 
Q 1159 2381 1159 1747 
Q 1159 1113 1420 752 
Q 1681 391 2138 391 
Q 2594 391 2855 752 
Q 3116 1113 3116 1747 
z
M 1159 2969 
Q 1341 3281 1617 3432 
Q 1894 3584 2278 3584 
Q 2916 3584 3314 3078 
Q 3713 2572 3713 1747 
Q 3713 922 3314 415 
Q 2916 -91 2278 -91 
Q 1894 -91 1617 61 
Q 1341 213 1159 525 
L 1159 0 
L 581 0 
L 581 4863 
L 1159 4863 
L 1159 2969 
z
" transform="scale(0.015625)"/>
       <path id="DejaVuSans-70" d="M 1159 525 
L 1159 -1331 
L 581 -1331 
L 581 3500 
L 1159 3500 
L 1159 2969 
Q 1341 3281 1617 3432 
Q 1894 3584 2278 3584 
Q 2916 3584 3314 3078 
Q 3713 2572 3713 1747 
Q 3713 922 3314 415 
Q 2916 -91 2278 -91 
Q 1894 -91 1617 61 
Q 1341 213 1159 525 
z
M 3116 1747 
Q 3116 2381 2855 2742 
Q 2594 3103 2138 3103 
Q 1681 3103 1420 2742 
Q 1159 2381 1159 1747 
Q 1159 1113 1420 752 
Q 1681 391 2138 391 
Q 2594 391 2855 752 
Q 3116 1113 3116 1747 
z
" transform="scale(0.015625)"/>
       <path id="DejaVuSans-Oblique-6f" d="M 1625 -91 
Q 1009 -91 651 289 
Q 294 669 294 1325 
Q 294 1706 417 2101 
Q 541 2497 738 2766 
Q 1047 3184 1428 3384 
Q 1809 3584 2291 3584 
Q 2888 3584 3255 3212 
Q 3622 2841 3622 2241 
Q 3622 1825 3500 1412 
Q 3378 1000 3181 728 
Q 2875 309 2494 109 
Q 2113 -91 1625 -91 
z
M 891 1344 
Q 891 869 1089 633 
Q 1288 397 1691 397 
Q 2269 397 2648 901 
Q 3028 1406 3028 2181 
Q 3028 2634 2825 2865 
Q 2622 3097 2228 3097 
Q 1903 3097 1650 2945 
Q 1397 2794 1197 2484 
Q 1050 2253 970 1956 
Q 891 1659 891 1344 
z
" transform="scale(0.015625)"/>
       <path id="DejaVuSans-43" d="M 4122 4306 
L 4122 3641 
Q 3803 3938 3442 4084 
Q 3081 4231 2675 4231 
Q 1875 4231 1450 3742 
Q 1025 3253 1025 2328 
Q 1025 1406 1450 917 
Q 1875 428 2675 428 
Q 3081 428 3442 575 
Q 3803 722 4122 1019 
L 4122 359 
Q 3791 134 3420 21 
Q 3050 -91 2638 -91 
Q 1578 -91 968 557 
Q 359 1206 359 2328 
Q 359 3453 968 4101 
Q 1578 4750 2638 4750 
Q 3056 4750 3426 4639 
Q 3797 4528 4122 4306 
z
" transform="scale(0.015625)"/>
      </defs>
      <use xlink:href="#DejaVuSans-62" transform="translate(0 0.51875)"/>
      <use xlink:href="#DejaVuSans-70" transform="translate(63.476562 0.51875)"/>
      <use xlink:href="#DejaVuSans-2c" transform="translate(126.953125 0.51875)"/>
      <use xlink:href="#DejaVuSans-20" transform="translate(158.740234 0.51875)"/>
      <use xlink:href="#DejaVuSans-Oblique-6f" transform="translate(191.484375 38.8) scale(0.7)"/>
      <use xlink:href="#DejaVuSans-43" transform="translate(237.045898 0.51875)"/>
     </g>
    </g>
   </g>
   <g id="line2d_13">
    <path d="M 60.581283 264.976408 
L 63.051146 262.728475 
L 65.52101 260.480541 
L 67.990873 258.232608 
L 70.460736 255.984674 
L 72.930599 253.736741 
L 75.400462 251.488807 
L 77.870325 249.240874 
L 80.340188 246.99294 
L 82.810051 244.745007 
L 85.279914 242.497073 
L 87.749777 240.24914 
L 90.21964 238.001206 
L 92.689503 235.753273 
L 95.159367 233.505339 
L 97.62923 231.257406 
L 100.099093 229.009472 
L 102.568956 226.761539 
L 105.038819 224.513605 
L 107.508682 222.265672 
L 109.978545 220.017738 
L 112.448408 217.769805 
L 114.918271 215.521871 
L 117.388134 213.273938 
L 119.857997 211.026004 
L 122.32786 208.778071 
L 124.797724 206.530137 
L 127.267587 204.282204 
L 129.73745 202.03427 
L 132.207313 199.786337 
L 134.677176 197.538403 
L 137.147039 195.29047 
L 139.616902 193.042536 
L 142.086765 190.794603 
L 144.556628 188.546669 
L 147.026491 186.298736 
L 149.496354 184.050802 
L 151.966217 181.802869 
L 154.436081 179.554935 
L 156.905944 177.307002 
L 159.375807 175.059068 
L 161.84567 172.811135 
L 164.315533 170.563201 
L 166.785396 168.315268 
L 169.255259 166.067334 
L 171.725122 163.819401 
L 174.194985 161.571467 
L 176.664848 159.323534 
L 179.134711 157.0756 
L 181.604574 154.827667 
L 184.074437 152.579733 
L 186.544301 150.3318 
L 189.014164 148.083866 
L 191.484027 145.835933 
L 193.95389 143.587999 
L 196.423753 141.340066 
L 198.893616 139.092132 
L 201.363479 136.844199 
L 203.833342 134.596265 
L 206.303205 132.348332 
L 208.773068 130.100398 
L 211.242931 127.852465 
L 213.712794 125.604531 
L 216.182658 123.356598 
L 218.652521 121.108664 
L 221.122384 118.860731 
L 223.592247 116.612797 
L 226.06211 114.364864 
L 228.531973 112.11693 
L 231.001836 109.868997 
L 233.471699 107.621063 
L 235.941562 105.37313 
L 238.411425 103.125196 
L 240.881288 100.877263 
L 243.351151 98.629329 
L 245.821015 96.381396 
L 248.290878 94.133462 
L 250.760741 91.885529 
L 253.230604 89.637595 
L 255.700467 87.389662 
L 258.17033 85.141728 
L 260.640193 82.893795 
L 263.110056 80.645861 
L 265.579919 78.397928 
L 268.049782 76.149994 
L 270.519645 73.902061 
L 272.989508 71.654127 
L 275.459371 69.406194 
L 277.929235 67.15826 
L 280.399098 64.910327 
L 282.868961 62.662393 
L 285.338824 60.41446 
L 287.808687 58.166526 
L 290.27855 55.918593 
L 292.748413 53.670659 
L 295.218276 51.422726 
L 297.688139 49.174792 
L 300.158002 46.926859 
L 302.627865 44.678925 
L 305.097728 42.430992 
" clip-path="url(#pee69d87262)" style="fill: none; stroke: #1f77b4; stroke-width: 2.25; stroke-linecap: square"/>
   </g>
   <g id="line2d_14">
    <path d="M 138.271038 289.22719 
L 140.192108 286.871949 
L 142.113178 284.516708 
L 144.034247 282.161467 
L 145.955317 279.806226 
L 147.876387 277.450985 
L 149.797457 275.095744 
L 151.718527 272.740503 
L 153.639597 270.385262 
L 155.560666 268.030021 
L 157.481736 265.67478 
L 159.402806 263.319538 
L 161.323876 260.964297 
L 163.244946 258.609056 
L 165.166016 256.253815 
L 167.087085 253.898574 
L 169.008155 251.543333 
L 170.929225 249.188092 
L 172.850295 246.832851 
L 174.771365 244.47761 
L 176.692435 242.122369 
L 178.613504 239.767128 
L 180.534574 237.411887 
L 182.455644 235.056646 
L 184.376714 232.701405 
L 186.297784 230.346164 
L 188.218854 227.990923 
L 190.139923 225.635682 
L 192.060993 223.28044 
L 193.982063 220.925199 
L 195.903133 218.569958 
L 197.824203 216.214717 
L 199.745273 213.859476 
L 201.666342 211.504235 
L 203.587412 209.148994 
L 205.508482 206.793753 
L 207.429552 204.438512 
L 209.350622 202.083271 
L 211.271692 199.72803 
L 213.192761 197.372789 
L 215.113831 195.017548 
L 217.034901 192.662307 
L 218.955971 190.307066 
L 220.877041 187.951825 
L 222.798111 185.596584 
L 224.719181 183.241342 
L 226.64025 180.886101 
L 228.56132 178.53086 
L 230.48239 176.175619 
L 232.40346 173.820378 
L 234.32453 171.465137 
L 236.2456 169.109896 
L 238.166669 166.754655 
L 240.087739 164.399414 
L 242.008809 162.044173 
L 243.929879 159.688932 
L 245.850949 157.333691 
L 247.772019 154.97845 
L 249.693088 152.623209 
L 251.614158 150.267968 
L 253.535228 147.912727 
L 255.456298 145.557486 
L 257.377368 143.202244 
L 259.298438 140.847003 
L 261.219507 138.491762 
L 263.140577 136.136521 
L 265.061647 133.78128 
L 266.982717 131.426039 
L 268.903787 129.070798 
L 270.824857 126.715557 
L 272.745926 124.360316 
L 274.666996 122.005075 
L 276.588066 119.649834 
L 278.509136 117.294593 
L 280.430206 114.939352 
L 282.351276 112.584111 
L 284.272345 110.22887 
L 286.193415 107.873629 
L 288.114485 105.518388 
L 290.035555 103.163146 
L 291.956625 100.807905 
L 293.877695 98.452664 
L 295.798764 96.097423 
L 297.719834 93.742182 
L 299.640904 91.386941 
L 301.561974 89.0317 
L 303.483044 86.676459 
L 305.404114 84.321218 
L 307.325183 81.965977 
L 309.246253 79.610736 
L 311.167323 77.255495 
L 313.088393 74.900254 
L 315.009463 72.545013 
L 316.930533 70.189772 
L 318.851602 67.834531 
L 320.772672 65.47929 
L 322.693742 63.124048 
L 324.614812 60.768807 
L 326.535882 58.413566 
L 328.456952 56.058325 
" clip-path="url(#pee69d87262)" style="fill: none; stroke: #ff7f0e; stroke-width: 2.25; stroke-linecap: square"/>
   </g>
   <g id="patch_3">
    <path d="M 47.1875 314.44 
L 47.1875 7.2 
" style="fill: none; stroke: #000000; stroke-width: 0.8; stroke-linejoin: miter; stroke-linecap: square"/>
   </g>
   <g id="patch_4">
    <path d="M 47.1875 314.44 
L 341.850735 314.44 
" style="fill: none; stroke: #000000; stroke-width: 0.8; stroke-linejoin: miter; stroke-linecap: square"/>
   </g>
  </g>
  <g id="legend_1">
   <g id="text_15">
    <!-- type -->
    <g transform="translate(368.139716 164.079375) scale(0.1 -0.1)">
     <defs>
      <path id="DejaVuSans-74" d="M 1172 4494 
L 1172 3500 
L 2356 3500 
L 2356 3053 
L 1172 3053 
L 1172 1153 
Q 1172 725 1289 603 
Q 1406 481 1766 481 
L 2356 481 
L 2356 0 
L 1766 0 
Q 1100 0 847 248 
Q 594 497 594 1153 
L 594 3053 
L 172 3053 
L 172 3500 
L 594 3500 
L 594 4494 
L 1172 4494 
z
" transform="scale(0.015625)"/>
      <path id="DejaVuSans-79" d="M 2059 -325 
Q 1816 -950 1584 -1140 
Q 1353 -1331 966 -1331 
L 506 -1331 
L 506 -850 
L 844 -850 
Q 1081 -850 1212 -737 
Q 1344 -625 1503 -206 
L 1606 56 
L 191 3500 
L 800 3500 
L 1894 763 
L 2988 3500 
L 3597 3500 
L 2059 -325 
z
" transform="scale(0.015625)"/>
      <path id="DejaVuSans-65" d="M 3597 1894 
L 3597 1613 
L 953 1613 
Q 991 1019 1311 708 
Q 1631 397 2203 397 
Q 2534 397 2845 478 
Q 3156 559 3463 722 
L 3463 178 
Q 3153 47 2828 -22 
Q 2503 -91 2169 -91 
Q 1331 -91 842 396 
Q 353 884 353 1716 
Q 353 2575 817 3079 
Q 1281 3584 2069 3584 
Q 2775 3584 3186 3129 
Q 3597 2675 3597 1894 
z
M 3022 2063 
Q 3016 2534 2758 2815 
Q 2500 3097 2075 3097 
Q 1594 3097 1305 2825 
Q 1016 2553 972 2059 
L 3022 2063 
z
" transform="scale(0.015625)"/>
     </defs>
     <use xlink:href="#DejaVuSans-74"/>
     <use xlink:href="#DejaVuSans-79" transform="translate(39.208984 0)"/>
     <use xlink:href="#DejaVuSans-70" transform="translate(98.388672 0)"/>
     <use xlink:href="#DejaVuSans-65" transform="translate(161.865234 0)"/>
    </g>
   </g>
   <g id="PathCollection_3">
    <g>
     <use xlink:href="#m30c8419132" x="357.431122" y="176.1325" style="fill: #1f77b4; fill-opacity: 0.8; stroke: #1f77b4; stroke-opacity: 0.8"/>
    </g>
   </g>
   <g id="text_16">
    <!-- alcohol -->
    <g transform="translate(375.431122 178.7575) scale(0.1 -0.1)">
     <defs>
      <path id="DejaVuSans-61" d="M 2194 1759 
Q 1497 1759 1228 1600 
Q 959 1441 959 1056 
Q 959 750 1161 570 
Q 1363 391 1709 391 
Q 2188 391 2477 730 
Q 2766 1069 2766 1631 
L 2766 1759 
L 2194 1759 
z
M 3341 1997 
L 3341 0 
L 2766 0 
L 2766 531 
Q 2569 213 2275 61 
Q 1981 -91 1556 -91 
Q 1019 -91 701 211 
Q 384 513 384 1019 
Q 384 1609 779 1909 
Q 1175 2209 1959 2209 
L 2766 2209 
L 2766 2266 
Q 2766 2663 2505 2880 
Q 2244 3097 1772 3097 
Q 1472 3097 1187 3025 
Q 903 2953 641 2809 
L 641 3341 
Q 956 3463 1253 3523 
Q 1550 3584 1831 3584 
Q 2591 3584 2966 3190 
Q 3341 2797 3341 1997 
z
" transform="scale(0.015625)"/>
      <path id="DejaVuSans-63" d="M 3122 3366 
L 3122 2828 
Q 2878 2963 2633 3030 
Q 2388 3097 2138 3097 
Q 1578 3097 1268 2742 
Q 959 2388 959 1747 
Q 959 1106 1268 751 
Q 1578 397 2138 397 
Q 2388 397 2633 464 
Q 2878 531 3122 666 
L 3122 134 
Q 2881 22 2623 -34 
Q 2366 -91 2075 -91 
Q 1284 -91 818 406 
Q 353 903 353 1747 
Q 353 2603 823 3093 
Q 1294 3584 2113 3584 
Q 2378 3584 2631 3529 
Q 2884 3475 3122 3366 
z
" transform="scale(0.015625)"/>
      <path id="DejaVuSans-68" d="M 3513 2113 
L 3513 0 
L 2938 0 
L 2938 2094 
Q 2938 2591 2744 2837 
Q 2550 3084 2163 3084 
Q 1697 3084 1428 2787 
Q 1159 2491 1159 1978 
L 1159 0 
L 581 0 
L 581 4863 
L 1159 4863 
L 1159 2956 
Q 1366 3272 1645 3428 
Q 1925 3584 2291 3584 
Q 2894 3584 3203 3211 
Q 3513 2838 3513 2113 
z
" transform="scale(0.015625)"/>
     </defs>
     <use xlink:href="#DejaVuSans-61"/>
     <use xlink:href="#DejaVuSans-6c" transform="translate(61.279297 0)"/>
     <use xlink:href="#DejaVuSans-63" transform="translate(89.0625 0)"/>
     <use xlink:href="#DejaVuSans-6f" transform="translate(144.042969 0)"/>
     <use xlink:href="#DejaVuSans-68" transform="translate(205.224609 0)"/>
     <use xlink:href="#DejaVuSans-6f" transform="translate(268.603516 0)"/>
     <use xlink:href="#DejaVuSans-6c" transform="translate(329.785156 0)"/>
    </g>
   </g>
   <g id="PathCollection_4">
    <g>
     <use xlink:href="#m0c24d25877" x="357.431122" y="190.810625" style="fill: #ff7f0e; fill-opacity: 0.8; stroke: #ff7f0e; stroke-opacity: 0.8"/>
    </g>
   </g>
   <g id="text_17">
    <!-- alkane -->
    <g transform="translate(375.431122 193.435625) scale(0.1 -0.1)">
     <defs>
      <path id="DejaVuSans-6b" d="M 581 4863 
L 1159 4863 
L 1159 1991 
L 2875 3500 
L 3609 3500 
L 1753 1863 
L 3688 0 
L 2938 0 
L 1159 1709 
L 1159 0 
L 581 0 
L 581 4863 
z
" transform="scale(0.015625)"/>
      <path id="DejaVuSans-6e" d="M 3513 2113 
L 3513 0 
L 2938 0 
L 2938 2094 
Q 2938 2591 2744 2837 
Q 2550 3084 2163 3084 
Q 1697 3084 1428 2787 
Q 1159 2491 1159 1978 
L 1159 0 
L 581 0 
L 581 3500 
L 1159 3500 
L 1159 2956 
Q 1366 3272 1645 3428 
Q 1925 3584 2291 3584 
Q 2894 3584 3203 3211 
Q 3513 2838 3513 2113 
z
" transform="scale(0.015625)"/>
     </defs>
     <use xlink:href="#DejaVuSans-61"/>
     <use xlink:href="#DejaVuSans-6c" transform="translate(61.279297 0)"/>
     <use xlink:href="#DejaVuSans-6b" transform="translate(89.0625 0)"/>
     <use xlink:href="#DejaVuSans-61" transform="translate(145.222656 0)"/>
     <use xlink:href="#DejaVuSans-6e" transform="translate(206.501953 0)"/>
     <use xlink:href="#DejaVuSans-65" transform="translate(269.880859 0)"/>
    </g>
   </g>
  </g>
 </g>
 <defs>
  <clipPath id="pee69d87262">
   <rect x="47.1875" y="7.2" width="294.663235" height="307.24"/>
  </clipPath>
 </defs>
</svg>