<?xml version="1.0" encoding="utf-8" standalone="no"?>
<!DOCTYPE svg PUBLIC "-//W3C//DTD SVG 1.1//EN"
  "http://www.w3.org/Graphics/SVG/1.1/DTD/svg11.dtd">
<svg xmlns:xlink="http://www.w3.org/1999/xlink" width="391.245pt" height="297.190125pt" viewBox="0 0 391.245 297.190125" xmlns="http://www.w3.org/2000/svg" version="1.1">
 <metadata>
  <rdf:RDF xmlns:dc="http://purl.org/dc/elements/1.1/" xmlns:cc="http://creativecommons.org/ns#" xmlns:rdf="http://www.w3.org/1999/02/22-rdf-syntax-ns#">
   <cc:Work>
    <dc:type rdf:resource="http://purl.org/dc/dcmitype/StillImage"/>
    <dc:date>2025-08-24T16:33:26.370958</dc:date>
    <dc:format>image/svg+xml</dc:format>
    <dc:creator>
     <cc:Agent>
      <dc:title>Matplotlib v3.10.3, https://matplotlib.org/</dc:title>
     </cc:Agent>
    </dc:creator>
   </cc:Work>
  </rdf:RDF>
 </metadata>
 <defs>
  <style type="text/css">*{stroke-linejoin: round; stroke-linecap: butt}</style>
 </defs>
 <g id="figure_1">
  <g id="patch_1">
   <path d="M 0 297.190125 
L 391.245 297.190125 
L 391.245 0 
L 0 0 
z
" style="fill: #ffffff"/>
  </g>
  <g id="axes_1">
   <g id="patch_2">
    <path d="M 26.925 273.312 
L 384.045 273.312 
L 384.045 7.2 
L 26.925 7.2 
z
" style="fill: #ffffff"/>
   </g>
   <g id="PathCollection_1">
    <defs>
     <path id="m0ff4bf5e37" d="M 0 3 
C 0.795609 3 1.55874 2.683901 2.12132 2.12132 
C 2.683901 1.55874 3 0.795609 3 0 
C 3 -0.795609 2.683901 -1.55874 2.12132 -2.12132 
C 1.55874 -2.683901 0.795609 -3 0 -3 
C -0.795609 -3 -1.55874 -2.683901 -2.12132 -2.12132 
C -2.683901 -1.55874 -3 -0.795609 -3 0 
C -3 0.795609 -2.683901 1.55874 -2.12132 2.12132 
C -1.55874 2.683901 -0.795609 3 0 3 
z
" style="stroke: #1f77b4; stroke-opacity: 0.8"/>
    </defs>
    <g clip-path="url(#p1077ab78ea)">
     <use xlink:href="#m0ff4bf5e37" x="43.157727" y="247.181939" style="fill: #1f77b4; fill-opacity: 0.8; stroke: #1f77b4; stroke-opacity: 0.8"/>
     <use xlink:href="#m0ff4bf5e37" x="79.230455" y="233.227335" style="fill: #1f77b4; fill-opacity: 0.8; stroke: #1f77b4; stroke-opacity: 0.8"/>
     <use xlink:href="#m0ff4bf5e37" x="115.303182" y="192.464995" style="fill: #1f77b4; fill-opacity: 0.8; stroke: #1f77b4; stroke-opacity: 0.8"/>
     <use xlink:href="#m0ff4bf5e37" x="151.375909" y="190.125284" style="fill: #1f77b4; fill-opacity: 0.8; stroke: #1f77b4; stroke-opacity: 0.8"/>
     <use xlink:href="#m0ff4bf5e37" x="187.448636" y="135.241747" style="fill: #1f77b4; fill-opacity: 0.8; stroke: #1f77b4; stroke-opacity: 0.8"/>
     <use xlink:href="#m0ff4bf5e37" x="223.521364" y="125.488246" style="fill: #1f77b4; fill-opacity: 0.8; stroke: #1f77b4; stroke-opacity: 0.8"/>
     <use xlink:href="#m0ff4bf5e37" x="259.594091" y="117.809021" style="fill: #1f77b4; fill-opacity: 0.8; stroke: #1f77b4; stroke-opacity: 0.8"/>
     <use xlink:href="#m0ff4bf5e37" x="295.666818" y="86.414041" style="fill: #1f77b4; fill-opacity: 0.8; stroke: #1f77b4; stroke-opacity: 0.8"/>
     <use xlink:href="#m0ff4bf5e37" x="331.739545" y="53.826447" style="fill: #1f77b4; fill-opacity: 0.8; stroke: #1f77b4; stroke-opacity: 0.8"/>
     <use xlink:href="#m0ff4bf5e37" x="367.812273" y="19.296" style="fill: #1f77b4; fill-opacity: 0.8; stroke: #1f77b4; stroke-opacity: 0.8"/>
    </g>
   </g>
   <g id="FillBetweenPolyCollection_1">
    <path d="M 43.157727 239.884521 
L 43.157727 261.216 
L 46.437066 258.873024 
L 49.716405 256.530047 
L 52.995744 254.187071 
L 56.275083 251.844095 
L 59.554421 249.501119 
L 62.83376 247.158142 
L 66.113099 244.8481 
L 69.392438 242.548313 
L 72.671777 240.248526 
L 75.951116 237.94874 
L 79.230455 235.648953 
L 82.509793 233.347942 
L 85.789132 230.966591 
L 89.068471 228.569576 
L 92.34781 226.292042 
L 95.627149 224.013955 
L 98.906488 221.735441 
L 102.185826 219.450646 
L 105.465165 217.055922 
L 108.744504 214.661148 
L 112.023843 212.266375 
L 115.303182 209.871601 
L 118.582521 207.486597 
L 121.86186 205.260036 
L 125.141198 203.033123 
L 128.420537 200.694744 
L 131.699876 198.322111 
L 134.979215 196.059999 
L 138.258554 193.728983 
L 141.537893 191.432202 
L 144.817231 189.217817 
L 148.09657 186.89318 
L 151.375909 184.505302 
L 154.655248 182.210525 
L 157.934587 179.91742 
L 161.213926 177.458537 
L 164.493264 175.236044 
L 167.772603 172.970872 
L 171.051942 170.717971 
L 174.331281 168.515624 
L 177.61062 166.232983 
L 180.889959 163.89988 
L 184.169298 161.630844 
L 187.448636 159.241404 
L 190.727975 157.152566 
L 194.007314 154.759647 
L 197.286653 152.518131 
L 200.565992 150.318078 
L 203.845331 148.117845 
L 207.124669 145.866289 
L 210.404008 143.640147 
L 213.683347 141.470417 
L 216.962686 139.317727 
L 220.242025 137.117427 
L 223.521364 134.937232 
L 226.800702 132.765546 
L 230.080041 130.568958 
L 233.35938 128.371004 
L 236.638719 126.16522 
L 239.918058 124.050799 
L 243.197397 121.966275 
L 246.476736 119.883653 
L 249.756074 117.801687 
L 253.035413 115.753221 
L 256.314752 113.732494 
L 259.594091 111.698925 
L 262.87343 109.516015 
L 266.152769 107.381195 
L 269.432107 105.282504 
L 272.711446 103.103756 
L 275.990785 100.925009 
L 279.270124 98.746262 
L 282.549463 96.604421 
L 285.828802 94.596596 
L 289.10814 92.602358 
L 292.387479 90.608119 
L 295.666818 88.613832 
L 298.946157 86.512245 
L 302.225496 84.39936 
L 305.504835 82.36823 
L 308.784174 80.292247 
L 312.063512 78.20913 
L 315.342851 76.128295 
L 318.62219 74.057862 
L 321.901529 72.016598 
L 325.180868 69.975335 
L 328.460207 67.934071 
L 331.739545 65.857507 
L 335.018884 63.800062 
L 338.298223 61.804927 
L 341.577562 59.775016 
L 344.856901 57.735438 
L 348.13624 55.652807 
L 351.415579 53.523844 
L 354.694917 51.392252 
L 357.974256 49.260661 
L 361.253595 47.192867 
L 364.532934 45.242174 
L 367.812273 43.258499 
L 367.812273 19.629847 
L 367.812273 19.629847 
L 364.532934 21.860915 
L 361.253595 24.138077 
L 357.974256 26.478714 
L 354.694917 28.895067 
L 351.415579 31.311421 
L 348.13624 33.710367 
L 344.856901 35.962116 
L 341.577562 38.212712 
L 338.298223 40.46343 
L 335.018884 42.735653 
L 331.739545 44.973606 
L 328.460207 47.278697 
L 325.180868 49.59338 
L 321.901529 51.969105 
L 318.62219 54.317205 
L 315.342851 56.606853 
L 312.063512 58.896502 
L 308.784174 61.181325 
L 305.504835 63.475423 
L 302.225496 65.788373 
L 298.946157 68.106007 
L 295.666818 70.421288 
L 292.387479 72.778151 
L 289.10814 75.076354 
L 285.828802 77.463156 
L 282.549463 79.854246 
L 279.270124 82.099475 
L 275.990785 84.360255 
L 272.711446 86.619923 
L 269.432107 88.932863 
L 266.152769 91.163793 
L 262.87343 93.457729 
L 259.594091 95.801892 
L 256.314752 98.053128 
L 253.035413 100.349533 
L 249.756074 102.547964 
L 246.476736 104.795517 
L 243.197397 107.074859 
L 239.918058 109.408087 
L 236.638719 111.702903 
L 233.35938 113.984503 
L 230.080041 116.209103 
L 226.800702 118.457541 
L 223.521364 120.800769 
L 220.242025 123.142388 
L 216.962686 125.4694 
L 213.683347 127.702675 
L 210.404008 129.963957 
L 207.124669 132.145873 
L 203.845331 134.33343 
L 200.565992 136.500121 
L 197.286653 138.664954 
L 194.007314 140.887363 
L 190.727975 143.113466 
L 187.448636 145.314264 
L 184.169298 147.662639 
L 180.889959 149.938327 
L 177.61062 152.136508 
L 174.331281 154.428775 
L 171.051942 156.776612 
L 167.772603 158.991036 
L 164.493264 161.1667 
L 161.213926 163.260054 
L 157.934587 165.405471 
L 154.655248 167.491318 
L 151.375909 169.579992 
L 148.09657 171.778742 
L 144.817231 173.962777 
L 141.537893 176.100419 
L 138.258554 178.328354 
L 134.979215 180.431636 
L 131.699876 182.466494 
L 128.420537 184.552634 
L 125.141198 186.6666 
L 121.86186 188.830505 
L 118.582521 190.929098 
L 115.303182 193.006189 
L 112.023843 195.213057 
L 108.744504 197.426936 
L 105.465165 199.620519 
L 102.185826 201.775499 
L 98.906488 203.879312 
L 95.627149 206.080896 
L 92.34781 208.315807 
L 89.068471 210.535193 
L 85.789132 212.586259 
L 82.509793 214.637325 
L 79.230455 216.654283 
L 75.951116 218.766826 
L 72.671777 220.910646 
L 69.392438 222.971956 
L 66.113099 225.114475 
L 62.83376 227.257924 
L 59.554421 229.406457 
L 56.275083 231.554151 
L 52.995744 233.685728 
L 49.716405 235.814861 
L 46.437066 237.907763 
L 43.157727 239.884521 
z
" clip-path="url(#p1077ab78ea)" style="fill: #1f77b4; fill-opacity: 0.15"/>
   </g>
   <g id="matplotlib.axis_1">
    <g id="xtick_1">
     <g id="line2d_1">
      <defs>
       <path id="m7ee1a6126f" d="M 0 0 
L 0 3.5 
" style="stroke: #000000; stroke-width: 0.8"/>
      </defs>
      <g>
       <use xlink:href="#m7ee1a6126f" x="43.157727" y="273.312" style="stroke: #000000; stroke-width: 0.8"/>
      </g>
     </g>
     <g id="text_1">
      <!-- 0 -->
      <g transform="translate(39.976477 287.910437) scale(0.1 -0.1)">
       <defs>
        <path id="DejaVuSans-30" d="M 2034 4250 
Q 1547 4250 1301 3770 
Q 1056 3291 1056 2328 
Q 1056 1369 1301 889 
Q 1547 409 2034 409 
Q 2525 409 2770 889 
Q 3016 1369 3016 2328 
Q 3016 3291 2770 3770 
Q 2525 4250 2034 4250 
z
M 2034 4750 
Q 2819 4750 3233 4129 
Q 3647 3509 3647 2328 
Q 3647 1150 3233 529 
Q 2819 -91 2034 -91 
Q 1250 -91 836 529 
Q 422 1150 422 2328 
Q 422 3509 836 4129 
Q 1250 4750 2034 4750 
z
" transform="scale(0.015625)"/>
       </defs>
       <use xlink:href="#DejaVuSans-30"/>
      </g>
     </g>
    </g>
    <g id="xtick_2">
     <g id="line2d_2">
      <g>
       <use xlink:href="#m7ee1a6126f" x="115.303182" y="273.312" style="stroke: #000000; stroke-width: 0.8"/>
      </g>
     </g>
     <g id="text_2">
      <!-- 2 -->
      <g transform="translate(112.121932 287.910437) scale(0.1 -0.1)">
       <defs>
        <path id="DejaVuSans-32" d="M 1228 531 
L 3431 531 
L 3431 0 
L 469 0 
L 469 531 
Q 828 903 1448 1529 
Q 2069 2156 2228 2338 
Q 2531 2678 2651 2914 
Q 2772 3150 2772 3378 
Q 2772 3750 2511 3984 
Q 2250 4219 1831 4219 
Q 1534 4219 1204 4116 
Q 875 4013 500 3803 
L 500 4441 
Q 881 4594 1212 4672 
Q 1544 4750 1819 4750 
Q 2544 4750 2975 4387 
Q 3406 4025 3406 3419 
Q 3406 3131 3298 2873 
Q 3191 2616 2906 2266 
Q 2828 2175 2409 1742 
Q 1991 1309 1228 531 
z
" transform="scale(0.015625)"/>
       </defs>
       <use xlink:href="#DejaVuSans-32"/>
      </g>
     </g>
    </g>
    <g id="xtick_3">
     <g id="line2d_3">
      <g>
       <use xlink:href="#m7ee1a6126f" x="187.448636" y="273.312" style="stroke: #000000; stroke-width: 0.8"/>
      </g>
     </g>
     <g id="text_3">
      <!-- 4 -->
      <g transform="translate(184.267386 287.910437) scale(0.1 -0.1)">
       <defs>
        <path id="DejaVuSans-34" d="M 2419 4116 
L 825 1625 
L 2419 1625 
L 2419 4116 
z
M 2253 4666 
L 3047 4666 
L 3047 1625 
L 3713 1625 
L 3713 1100 
L 3047 1100 
L 3047 0 
L 2419 0 
L 2419 1100 
L 313 1100 
L 313 1709 
L 2253 4666 
z
" transform="scale(0.015625)"/>
       </defs>
       <use xlink:href="#DejaVuSans-34"/>
      </g>
     </g>
    </g>
    <g id="xtick_4">
     <g id="line2d_4">
      <g>
       <use xlink:href="#m7ee1a6126f" x="259.594091" y="273.312" style="stroke: #000000; stroke-width: 0.8"/>
      </g>
     </g>
     <g id="text_4">
      <!-- 6 -->
      <g transform="translate(256.412841 287.910437) scale(0.1 -0.1)">
       <defs>
        <path id="DejaVuSans-36" d="M 2113 2584 
Q 1688 2584 1439 2293 
Q 1191 2003 1191 1497 
Q 1191 994 1439 701 
Q 1688 409 2113 409 
Q 2538 409 2786 701 
Q 3034 994 3034 1497 
Q 3034 2003 2786 2293 
Q 2538 2584 2113 2584 
z
M 3366 4563 
L 3366 3988 
Q 3128 4100 2886 4159 
Q 2644 4219 2406 4219 
Q 1781 4219 1451 3797 
Q 1122 3375 1075 2522 
Q 1259 2794 1537 2939 
Q 1816 3084 2150 3084 
Q 2853 3084 3261 2657 
Q 3669 2231 3669 1497 
Q 3669 778 3244 343 
Q 2819 -91 2113 -91 
Q 1303 -91 875 529 
Q 447 1150 447 2328 
Q 447 3434 972 4092 
Q 1497 4750 2381 4750 
Q 2619 4750 2861 4703 
Q 3103 4656 3366 4563 
z
" transform="scale(0.015625)"/>
       </defs>
       <use xlink:href="#DejaVuSans-36"/>
      </g>
     </g>
    </g>
    <g id="xtick_5">
     <g id="line2d_5">
      <g>
       <use xlink:href="#m7ee1a6126f" x="331.739545" y="273.312" style="stroke: #000000; stroke-width: 0.8"/>
      </g>
     </g>
     <g id="text_5">
      <!-- 8 -->
      <g transform="translate(328.558295 287.910437) scale(0.1 -0.1)">
       <defs>
        <path id="DejaVuSans-38" d="M 2034 2216 
Q 1584 2216 1326 1975 
Q 1069 1734 1069 1313 
Q 1069 891 1326 650 
Q 1584 409 2034 409 
Q 2484 409 2743 651 
Q 3003 894 3003 1313 
Q 3003 1734 2745 1975 
Q 2488 2216 2034 2216 
z
M 1403 2484 
Q 997 2584 770 2862 
Q 544 3141 544 3541 
Q 544 4100 942 4425 
Q 1341 4750 2034 4750 
Q 2731 4750 3128 4425 
Q 3525 4100 3525 3541 
Q 3525 3141 3298 2862 
Q 3072 2584 2669 2484 
Q 3125 2378 3379 2068 
Q 3634 1759 3634 1313 
Q 3634 634 3220 271 
Q 2806 -91 2034 -91 
Q 1263 -91 848 271 
Q 434 634 434 1313 
Q 434 1759 690 2068 
Q 947 2378 1403 2484 
z
M 1172 3481 
Q 1172 3119 1398 2916 
Q 1625 2713 2034 2713 
Q 2441 2713 2670 2916 
Q 2900 3119 2900 3481 
Q 2900 3844 2670 4047 
Q 2441 4250 2034 4250 
Q 1625 4250 1398 4047 
Q 1172 3844 1172 3481 
z
" transform="scale(0.015625)"/>
       </defs>
       <use xlink:href="#DejaVuSans-38"/>
      </g>
     </g>
    </g>
   </g>
   <g id="matplotlib.axis_2">
    <g id="ytick_1">
     <g id="line2d_6">
      <defs>
       <path id="m48887c0c8e" d="M 0 0 
L -3.5 0 
" style="stroke: #000000; stroke-width: 0.8"/>
      </defs>
      <g>
       <use xlink:href="#m48887c0c8e" x="26.925" y="242.549061" style="stroke: #000000; stroke-width: 0.8"/>
      </g>
     </g>
     <g id="text_6">
      <!-- 0 -->
      <g transform="translate(13.5625 246.34828) scale(0.1 -0.1)">
       <use xlink:href="#DejaVuSans-30"/>
      </g>
     </g>
    </g>
    <g id="ytick_2">
     <g id="line2d_7">
      <g>
       <use xlink:href="#m48887c0c8e" x="26.925" y="188.969963" style="stroke: #000000; stroke-width: 0.8"/>
      </g>
     </g>
     <g id="text_7">
      <!-- 5 -->
      <g transform="translate(13.5625 192.769181) scale(0.1 -0.1)">
       <defs>
        <path id="DejaVuSans-35" d="M 691 4666 
L 3169 4666 
L 3169 4134 
L 1269 4134 
L 1269 2991 
Q 1406 3038 1543 3061 
Q 1681 3084 1819 3084 
Q 2600 3084 3056 2656 
Q 3513 2228 3513 1497 
Q 3513 744 3044 326 
Q 2575 -91 1722 -91 
Q 1428 -91 1123 -41 
Q 819 9 494 109 
L 494 744 
Q 775 591 1075 516 
Q 1375 441 1709 441 
Q 2250 441 2565 725 
Q 2881 1009 2881 1497 
Q 2881 1984 2565 2268 
Q 2250 2553 1709 2553 
Q 1456 2553 1204 2497 
Q 953 2441 691 2322 
L 691 4666 
z
" transform="scale(0.015625)"/>
       </defs>
       <use xlink:href="#DejaVuSans-35"/>
      </g>
     </g>
    </g>
    <g id="ytick_3">
     <g id="line2d_8">
      <g>
       <use xlink:href="#m48887c0c8e" x="26.925" y="135.390864" style="stroke: #000000; stroke-width: 0.8"/>
      </g>
     </g>
     <g id="text_8">
      <!-- 10 -->
      <g transform="translate(7.2 139.190082) scale(0.1 -0.1)">
       <defs>
        <path id="DejaVuSans-31" d="M 794 531 
L 1825 531 
L 1825 4091 
L 703 3866 
L 703 4441 
L 1819 4666 
L 2450 4666 
L 2450 531 
L 3481 531 
L 3481 0 
L 794 0 
L 794 531 
z
" transform="scale(0.015625)"/>
       </defs>
       <use xlink:href="#DejaVuSans-31"/>
       <use xlink:href="#DejaVuSans-30" transform="translate(63.623047 0)"/>
      </g>
     </g>
    </g>
    <g id="ytick_4">
     <g id="line2d_9">
      <g>
       <use xlink:href="#m48887c0c8e" x="26.925" y="81.811765" style="stroke: #000000; stroke-width: 0.8"/>
      </g>
     </g>
     <g id="text_9">
      <!-- 15 -->
      <g transform="translate(7.2 85.610983) scale(0.1 -0.1)">
       <use xlink:href="#DejaVuSans-31"/>
       <use xlink:href="#DejaVuSans-35" transform="translate(63.623047 0)"/>
      </g>
     </g>
    </g>
    <g id="ytick_5">
     <g id="line2d_10">
      <g>
       <use xlink:href="#m48887c0c8e" x="26.925" y="28.232666" style="stroke: #000000; stroke-width: 0.8"/>
      </g>
     </g>
     <g id="text_10">
      <!-- 20 -->
      <g transform="translate(7.2 32.031885) scale(0.1 -0.1)">
       <use xlink:href="#DejaVuSans-32"/>
       <use xlink:href="#DejaVuSans-30" transform="translate(63.623047 0)"/>
      </g>
     </g>
    </g>
   </g>
   <g id="line2d_11">
    <path d="M 43.157727 250.936689 
L 46.437066 248.697716 
L 49.716405 246.458742 
L 52.995744 244.219769 
L 56.275083 241.980795 
L 59.554421 239.741822 
L 62.83376 237.502849 
L 66.113099 235.263875 
L 69.392438 233.024902 
L 72.671777 230.785928 
L 75.951116 228.546955 
L 79.230455 226.307982 
L 82.509793 224.069008 
L 85.789132 221.830035 
L 89.068471 219.591061 
L 92.34781 217.352088 
L 95.627149 215.113115 
L 98.906488 212.874141 
L 102.185826 210.635168 
L 105.465165 208.396194 
L 108.744504 206.157221 
L 112.023843 203.918248 
L 115.303182 201.679274 
L 118.582521 199.440301 
L 121.86186 197.201327 
L 125.141198 194.962354 
L 128.420537 192.72338 
L 131.699876 190.484407 
L 134.979215 188.245434 
L 138.258554 186.00646 
L 141.537893 183.767487 
L 144.817231 181.528513 
L 148.09657 179.28954 
L 151.375909 177.050567 
L 154.655248 174.811593 
L 157.934587 172.57262 
L 161.213926 170.333646 
L 164.493264 168.094673 
L 167.772603 165.8557 
L 171.051942 163.616726 
L 174.331281 161.377753 
L 177.61062 159.138779 
L 180.889959 156.899806 
L 184.169298 154.660833 
L 187.448636 152.421859 
L 190.727975 150.182886 
L 194.007314 147.943912 
L 197.286653 145.704939 
L 200.565992 143.465966 
L 203.845331 141.226992 
L 207.124669 138.988019 
L 210.404008 136.749045 
L 213.683347 134.510072 
L 216.962686 132.271099 
L 220.242025 130.032125 
L 223.521364 127.793152 
L 226.800702 125.554178 
L 230.080041 123.315205 
L 233.35938 121.076231 
L 236.638719 118.837258 
L 239.918058 116.598285 
L 243.197397 114.359311 
L 246.476736 112.120338 
L 249.756074 109.881364 
L 253.035413 107.642391 
L 256.314752 105.403418 
L 259.594091 103.164444 
L 262.87343 100.925471 
L 266.152769 98.686497 
L 269.432107 96.447524 
L 272.711446 94.208551 
L 275.990785 91.969577 
L 279.270124 89.730604 
L 282.549463 87.49163 
L 285.828802 85.252657 
L 289.10814 83.013684 
L 292.387479 80.77471 
L 295.666818 78.535737 
L 298.946157 76.296763 
L 302.225496 74.05779 
L 305.504835 71.818817 
L 308.784174 69.579843 
L 312.063512 67.34087 
L 315.342851 65.101896 
L 318.62219 62.862923 
L 321.901529 60.62395 
L 325.180868 58.384976 
L 328.460207 56.146003 
L 331.739545 53.907029 
L 335.018884 51.668056 
L 338.298223 49.429082 
L 341.577562 47.190109 
L 344.856901 44.951136 
L 348.13624 42.712162 
L 351.415579 40.473189 
L 354.694917 38.234215 
L 357.974256 35.995242 
L 361.253595 33.756269 
L 364.532934 31.517295 
L 367.812273 29.278322 
" clip-path="url(#p1077ab78ea)" style="fill: none; stroke: #1f77b4; stroke-width: 2.25; stroke-linecap: square"/>
   </g>
   <g id="patch_3">
    <path d="M 26.925 273.312 
L 26.925 7.2 
" style="fill: none; stroke: #000000; stroke-width: 0.8; stroke-linejoin: miter; stroke-linecap: square"/>
   </g>
   <g id="patch_4">
    <path d="M 384.045 273.312 
L 384.045 7.2 
" style="fill: none; stroke: #000000; stroke-width: 0.8; stroke-linejoin: miter; stroke-linecap: square"/>
   </g>
   <g id="patch_5">
    <path d="M 26.925 273.312 
L 384.045 273.312 
" style="fill: none; stroke: #000000; stroke-width: 0.8; stroke-linejoin: miter; stroke-linecap: square"/>
   </g>
   <g id="patch_6">
    <path d="M 26.925 7.2 
L 384.045 7.2 
" style="fill: none; stroke: #000000; stroke-width: 0.8; stroke-linejoin: miter; stroke-linecap: square"/>
   </g>
  </g>
 </g>
 <defs>
  <clipPath id="p1077ab78ea">
   <rect x="26.925" y="7.2" width="357.12" height="266.112"/>
  </clipPath>
 </defs>
</svg>