<?xml version="1.0" encoding="utf-8" standalone="no"?>
<!DOCTYPE svg PUBLIC "-//W3C//DTD SVG 1.1//EN"
  "http://www.w3.org/Graphics/SVG/1.1/DTD/svg11.dtd">
<svg xmlns:xlink="http://www.w3.org/1999/xlink" width="391.245pt" height="297.190125pt" viewBox="0 0 391.245 297.190125" xmlns="http://www.w3.org/2000/svg" version="1.1">
 <metadata>
  <rdf:RDF xmlns:dc="http://purl.org/dc/elements/1.1/" xmlns:cc="http://creativecommons.org/ns#" xmlns:rdf="http://www.w3.org/1999/02/22-rdf-syntax-ns#">
   <cc:Work>
    <dc:type rdf:resource="http://purl.org/dc/dcmitype/StillImage"/>
    <dc:date>2025-12-27T13:41:40.641224</dc:date>
    <dc:format>image/svg+xml</dc:format>
    <dc:creator>
     <cc:Agent>
      <dc:title>Matplotlib v3.10.3, https://matplotlib.org/</dc:title>
     </cc:Agent>
    </dc:creator>
   </cc:Work>
  </rdf:RDF>
 </metadata>
 <defs>
  <style type="text/css">*{stroke-linejoin: round; stroke-linecap: butt}</style>
 </defs>
 <g id="figure_1">
  <g id="patch_1">
   <path d="M 0 297.190125 
L 391.245 297.190125 
L 391.245 0 
L 0 0 
z
" style="fill: #ffffff"/>
  </g>
  <g id="axes_1">
   <g id="patch_2">
    <path d="M 26.925 273.312 
L 384.045 273.312 
L 384.045 7.2 
L 26.925 7.2 
z
" style="fill: #ffffff"/>
   </g>
   <g id="PathCollection_1">
    <defs>
     <path id="m57bef62ce3" d="M 0 3 
C 0.795609 3 1.55874 2.683901 2.12132 2.12132 
C 2.683901 1.55874 3 0.795609 3 0 
C 3 -0.795609 2.683901 -1.55874 2.12132 -2.12132 
C 1.55874 -2.683901 0.795609 -3 0 -3 
C -0.795609 -3 -1.55874 -2.683901 -2.12132 -2.12132 
C -2.683901 -1.55874 -3 -0.795609 -3 0 
C -3 0.795609 -2.683901 1.55874 -2.12132 2.12132 
C -1.55874 2.683901 -0.795609 3 0 3 
z
" style="stroke: #1f77b4; stroke-opacity: 0.8"/>
    </defs>
    <g clip-path="url(#p9daa84515f)">
     <use xlink:href="#m57bef62ce3" x="43.157727" y="245.420562" style="fill: #1f77b4; fill-opacity: 0.8; stroke: #1f77b4; stroke-opacity: 0.8"/>
     <use xlink:href="#m57bef62ce3" x="79.230455" y="231.573817" style="fill: #1f77b4; fill-opacity: 0.8; stroke: #1f77b4; stroke-opacity: 0.8"/>
     <use xlink:href="#m57bef62ce3" x="115.303182" y="191.126537" style="fill: #1f77b4; fill-opacity: 0.8; stroke: #1f77b4; stroke-opacity: 0.8"/>
     <use xlink:href="#m57bef62ce3" x="151.375909" y="188.80491" style="fill: #1f77b4; fill-opacity: 0.8; stroke: #1f77b4; stroke-opacity: 0.8"/>
     <use xlink:href="#m57bef62ce3" x="187.448636" y="134.345579" style="fill: #1f77b4; fill-opacity: 0.8; stroke: #1f77b4; stroke-opacity: 0.8"/>
     <use xlink:href="#m57bef62ce3" x="223.521364" y="124.667464" style="fill: #1f77b4; fill-opacity: 0.8; stroke: #1f77b4; stroke-opacity: 0.8"/>
     <use xlink:href="#m57bef62ce3" x="259.594091" y="117.047594" style="fill: #1f77b4; fill-opacity: 0.8; stroke: #1f77b4; stroke-opacity: 0.8"/>
     <use xlink:href="#m57bef62ce3" x="295.666818" y="85.895272" style="fill: #1f77b4; fill-opacity: 0.8; stroke: #1f77b4; stroke-opacity: 0.8"/>
     <use xlink:href="#m57bef62ce3" x="331.739545" y="53.559554" style="fill: #1f77b4; fill-opacity: 0.8; stroke: #1f77b4; stroke-opacity: 0.8"/>
     <use xlink:href="#m57bef62ce3" x="367.812273" y="19.296" style="fill: #1f77b4; fill-opacity: 0.8; stroke: #1f77b4; stroke-opacity: 0.8"/>
    </g>
   </g>
   <g id="FillBetweenPolyCollection_1">
    <path d="M 43.157727 237.182 
L 43.157727 261.216 
L 46.437066 258.838902 
L 49.716405 256.493831 
L 52.995744 254.157322 
L 56.275083 251.814967 
L 59.554421 249.448088 
L 62.83376 247.058647 
L 66.113099 244.716066 
L 69.392438 242.349477 
L 72.671777 239.991732 
L 75.951116 237.635195 
L 79.230455 235.27972 
L 82.509793 232.924688 
L 85.789132 230.569656 
L 89.068471 228.214625 
L 92.34781 225.859024 
L 95.627149 223.50268 
L 98.906488 221.146165 
L 102.185826 218.78938 
L 105.465165 216.41815 
L 108.744504 214.023019 
L 112.023843 211.627425 
L 115.303182 209.316808 
L 118.582521 206.999489 
L 121.86186 204.66991 
L 125.141198 202.394487 
L 128.420537 200.088039 
L 131.699876 197.779959 
L 134.979215 195.472685 
L 138.258554 193.081119 
L 141.537893 190.734159 
L 144.817231 188.382627 
L 148.09657 186.124456 
L 151.375909 183.787127 
L 154.655248 181.409994 
L 157.934587 179.034516 
L 161.213926 176.659039 
L 164.493264 174.346155 
L 167.772603 172.07336 
L 171.051942 169.798992 
L 174.331281 167.477812 
L 177.61062 165.156632 
L 180.889959 162.835451 
L 184.169298 160.51313 
L 187.448636 158.284078 
L 190.727975 156.039967 
L 194.007314 153.825335 
L 197.286653 151.547333 
L 200.565992 149.324251 
L 203.845331 147.124531 
L 207.124669 144.952992 
L 210.404008 142.707697 
L 213.683347 140.602674 
L 216.962686 138.262437 
L 220.242025 136.254985 
L 223.521364 134.060224 
L 226.800702 131.946909 
L 230.080041 129.801064 
L 233.35938 127.673457 
L 236.638719 125.48427 
L 239.918058 123.342056 
L 243.197397 121.281935 
L 246.476736 119.206334 
L 249.756074 117.067263 
L 253.035413 114.986243 
L 256.314752 112.967178 
L 259.594091 110.832885 
L 262.87343 108.650905 
L 266.152769 106.582315 
L 269.432107 104.576728 
L 272.711446 102.388296 
L 275.990785 100.161754 
L 279.270124 98.155104 
L 282.549463 96.123907 
L 285.828802 94.003243 
L 289.10814 91.881397 
L 292.387479 89.770572 
L 295.666818 87.704544 
L 298.946157 85.638516 
L 302.225496 83.572206 
L 305.504835 81.505694 
L 308.784174 79.439181 
L 312.063512 77.372669 
L 315.342851 75.477976 
L 318.62219 73.37703 
L 321.901529 71.381849 
L 325.180868 69.313015 
L 328.460207 67.226477 
L 331.739545 65.139938 
L 335.018884 63.0534 
L 338.298223 60.952268 
L 341.577562 58.839888 
L 344.856901 56.727509 
L 348.13624 54.648091 
L 351.415579 52.628997 
L 354.694917 50.707908 
L 357.974256 48.683303 
L 361.253595 46.596954 
L 364.532934 44.700094 
L 367.812273 42.79946 
L 367.812273 20.031942 
L 367.812273 20.031942 
L 364.532934 22.331257 
L 361.253595 24.605229 
L 357.974256 26.934066 
L 354.694917 29.212135 
L 351.415579 31.468806 
L 348.13624 33.726257 
L 344.856901 36.074541 
L 341.577562 38.43521 
L 338.298223 40.736327 
L 335.018884 43.037444 
L 331.739545 45.334934 
L 328.460207 47.611827 
L 325.180868 49.940795 
L 321.901529 52.213333 
L 318.62219 54.47577 
L 315.342851 56.715971 
L 312.063512 59.017527 
L 308.784174 61.224621 
L 305.504835 63.494263 
L 302.225496 65.764182 
L 298.946157 68.032216 
L 295.666818 70.30114 
L 292.387479 72.572759 
L 289.10814 74.847607 
L 285.828802 77.18747 
L 282.549463 79.527333 
L 279.270124 81.809542 
L 275.990785 84.0751 
L 272.711446 86.340657 
L 269.432107 88.581984 
L 266.152769 90.796098 
L 262.87343 93.138991 
L 259.594091 95.451871 
L 256.314752 97.783848 
L 253.035413 100.108896 
L 249.756074 102.201805 
L 246.476736 104.486313 
L 243.197397 106.838459 
L 239.918058 109.008064 
L 236.638719 111.324718 
L 233.35938 113.528384 
L 230.080041 115.754268 
L 226.800702 117.950561 
L 223.521364 120.060521 
L 220.242025 122.135633 
L 216.962686 124.109909 
L 213.683347 126.38757 
L 210.404008 128.596488 
L 207.124669 130.856223 
L 203.845331 133.091239 
L 200.565992 135.377354 
L 197.286653 137.63792 
L 194.007314 139.898485 
L 190.727975 142.159051 
L 187.448636 144.296866 
L 184.169298 146.393365 
L 180.889959 148.447312 
L 177.61062 150.585297 
L 174.331281 152.791719 
L 171.051942 154.942762 
L 167.772603 157.085738 
L 164.493264 159.24718 
L 161.213926 161.403929 
L 157.934587 163.598051 
L 154.655248 165.791046 
L 151.375909 167.871551 
L 148.09657 169.870288 
L 144.817231 172.04149 
L 141.537893 174.304173 
L 138.258554 176.523412 
L 134.979215 178.74265 
L 131.699876 180.855044 
L 128.420537 182.849705 
L 125.141198 184.971664 
L 121.86186 187.034265 
L 118.582521 189.089906 
L 115.303182 191.147471 
L 112.023843 193.206184 
L 108.744504 195.264375 
L 105.465165 197.323836 
L 102.185826 199.426598 
L 98.906488 201.543372 
L 95.627149 203.663434 
L 92.34781 205.863948 
L 89.068471 208.097486 
L 85.789132 210.27601 
L 82.509793 212.376096 
L 79.230455 214.46508 
L 75.951116 216.372144 
L 72.671777 218.483203 
L 69.392438 220.594343 
L 66.113099 222.711117 
L 62.83376 224.827891 
L 59.554421 226.944666 
L 56.275083 229.061713 
L 52.995744 231.180267 
L 49.716405 233.271613 
L 46.437066 235.226806 
L 43.157727 237.182 
z
" clip-path="url(#p9daa84515f)" style="fill: #1f77b4; fill-opacity: 0.15"/>
   </g>
   <g id="matplotlib.axis_1">
    <g id="xtick_1">
     <g id="line2d_1">
      <defs>
       <path id="mc6764ba44f" d="M 0 0 
L 0 3.5 
" style="stroke: #000000; stroke-width: 0.8"/>
      </defs>
      <g>
       <use xlink:href="#mc6764ba44f" x="43.157727" y="273.312" style="stroke: #000000; stroke-width: 0.8"/>
      </g>
     </g>
     <g id="text_1">
      <!-- 0 -->
      <g transform="translate(39.976477 287.910437) scale(0.1 -0.1)">
       <defs>
        <path id="DejaVuSans-30" d="M 2034 4250 
Q 1547 4250 1301 3770 
Q 1056 3291 1056 2328 
Q 1056 1369 1301 889 
Q 1547 409 2034 409 
Q 2525 409 2770 889 
Q 3016 1369 3016 2328 
Q 3016 3291 2770 3770 
Q 2525 4250 2034 4250 
z
M 2034 4750 
Q 2819 4750 3233 4129 
Q 3647 3509 3647 2328 
Q 3647 1150 3233 529 
Q 2819 -91 2034 -91 
Q 1250 -91 836 529 
Q 422 1150 422 2328 
Q 422 3509 836 4129 
Q 1250 4750 2034 4750 
z
" transform="scale(0.015625)"/>
       </defs>
       <use xlink:href="#DejaVuSans-30"/>
      </g>
     </g>
    </g>
    <g id="xtick_2">
     <g id="line2d_2">
      <g>
       <use xlink:href="#mc6764ba44f" x="115.303182" y="273.312" style="stroke: #000000; stroke-width: 0.8"/>
      </g>
     </g>
     <g id="text_2">
      <!-- 2 -->
      <g transform="translate(112.121932 287.910437) scale(0.1 -0.1)">
       <defs>
        <path id="DejaVuSans-32" d="M 1228 531 
L 3431 531 
L 3431 0 
L 469 0 
L 469 531 
Q 828 903 1448 1529 
Q 2069 2156 2228 2338 
Q 2531 2678 2651 2914 
Q 2772 3150 2772 3378 
Q 2772 3750 2511 3984 
Q 2250 4219 1831 4219 
Q 1534 4219 1204 4116 
Q 875 4013 500 3803 
L 500 4441 
Q 881 4594 1212 4672 
Q 1544 4750 1819 4750 
Q 2544 4750 2975 4387 
Q 3406 4025 3406 3419 
Q 3406 3131 3298 2873 
Q 3191 2616 2906 2266 
Q 2828 2175 2409 1742 
Q 1991 1309 1228 531 
z
" transform="scale(0.015625)"/>
       </defs>
       <use xlink:href="#DejaVuSans-32"/>
      </g>
     </g>
    </g>
    <g id="xtick_3">
     <g id="line2d_3">
      <g>
       <use xlink:href="#mc6764ba44f" x="187.448636" y="273.312" style="stroke: #000000; stroke-width: 0.8"/>
      </g>
     </g>
     <g id="text_3">
      <!-- 4 -->
      <g transform="translate(184.267386 287.910437) scale(0.1 -0.1)">
       <defs>
        <path id="DejaVuSans-34" d="M 2419 4116 
L 825 1625 
L 2419 1625 
L 2419 4116 
z
M 2253 4666 
L 3047 4666 
L 3047 1625 
L 3713 1625 
L 3713 1100 
L 3047 1100 
L 3047 0 
L 2419 0 
L 2419 1100 
L 313 1100 
L 313 1709 
L 2253 4666 
z
" transform="scale(0.015625)"/>
       </defs>
       <use xlink:href="#DejaVuSans-34"/>
      </g>
     </g>
    </g>
    <g id="xtick_4">
     <g id="line2d_4">
      <g>
       <use xlink:href="#mc6764ba44f" x="259.594091" y="273.312" style="stroke: #000000; stroke-width: 0.8"/>
      </g>
     </g>
     <g id="text_4">
      <!-- 6 -->
      <g transform="translate(256.412841 287.910437) scale(0.1 -0.1)">
       <defs>
        <path id="DejaVuSans-36" d="M 2113 2584 
Q 1688 2584 1439 2293 
Q 1191 2003 1191 1497 
Q 1191 994 1439 701 
Q 1688 409 2113 409 
Q 2538 409 2786 701 
Q 3034 994 3034 1497 
Q 3034 2003 2786 2293 
Q 2538 2584 2113 2584 
z
M 3366 4563 
L 3366 3988 
Q 3128 4100 2886 4159 
Q 2644 4219 2406 4219 
Q 1781 4219 1451 3797 
Q 1122 3375 1075 2522 
Q 1259 2794 1537 2939 
Q 1816 3084 2150 3084 
Q 2853 3084 3261 2657 
Q 3669 2231 3669 1497 
Q 3669 778 3244 343 
Q 2819 -91 2113 -91 
Q 1303 -91 875 529 
Q 447 1150 447 2328 
Q 447 3434 972 4092 
Q 1497 4750 2381 4750 
Q 2619 4750 2861 4703 
Q 3103 4656 3366 4563 
z
" transform="scale(0.015625)"/>
       </defs>
       <use xlink:href="#DejaVuSans-36"/>
      </g>
     </g>
    </g>
    <g id="xtick_5">
     <g id="line2d_5">
      <g>
       <use xlink:href="#mc6764ba44f" x="331.739545" y="273.312" style="stroke: #000000; stroke-width: 0.8"/>
      </g>
     </g>
     <g id="text_5">
      <!-- 8 -->
      <g transform="translate(328.558295 287.910437) scale(0.1 -0.1)">
       <defs>
        <path id="DejaVuSans-38" d="M 2034 2216 
Q 1584 2216 1326 1975 
Q 1069 1734 1069 1313 
Q 1069 891 1326 650 
Q 1584 409 2034 409 
Q 2484 409 2743 651 
Q 3003 894 3003 1313 
Q 3003 1734 2745 1975 
Q 2488 2216 2034 2216 
z
M 1403 2484 
Q 997 2584 770 2862 
Q 544 3141 544 3541 
Q 544 4100 942 4425 
Q 1341 4750 2034 4750 
Q 2731 4750 3128 4425 
Q 3525 4100 3525 3541 
Q 3525 3141 3298 2862 
Q 3072 2584 2669 2484 
Q 3125 2378 3379 2068 
Q 3634 1759 3634 1313 
Q 3634 634 3220 271 
Q 2806 -91 2034 -91 
Q 1263 -91 848 271 
Q 434 634 434 1313 
Q 434 1759 690 2068 
Q 947 2378 1403 2484 
z
M 1172 3481 
Q 1172 3119 1398 2916 
Q 1625 2713 2034 2713 
Q 2441 2713 2670 2916 
Q 2900 3119 2900 3481 
Q 2900 3844 2670 4047 
Q 2441 4250 2034 4250 
Q 1625 4250 1398 4047 
Q 1172 3844 1172 3481 
z
" transform="scale(0.015625)"/>
       </defs>
       <use xlink:href="#DejaVuSans-38"/>
      </g>
     </g>
    </g>
   </g>
   <g id="matplotlib.axis_2">
    <g id="ytick_1">
     <g id="line2d_6">
      <defs>
       <path id="m0914b31eb0" d="M 0 0 
L -3.5 0 
" style="stroke: #000000; stroke-width: 0.8"/>
      </defs>
      <g>
       <use xlink:href="#m0914b31eb0" x="26.925" y="240.823493" style="stroke: #000000; stroke-width: 0.8"/>
      </g>
     </g>
     <g id="text_6">
      <!-- 0 -->
      <g transform="translate(13.5625 244.622712) scale(0.1 -0.1)">
       <use xlink:href="#DejaVuSans-30"/>
      </g>
     </g>
    </g>
    <g id="ytick_2">
     <g id="line2d_7">
      <g>
       <use xlink:href="#m0914b31eb0" x="26.925" y="187.658518" style="stroke: #000000; stroke-width: 0.8"/>
      </g>
     </g>
     <g id="text_7">
      <!-- 5 -->
      <g transform="translate(13.5625 191.457737) scale(0.1 -0.1)">
       <defs>
        <path id="DejaVuSans-35" d="M 691 4666 
L 3169 4666 
L 3169 4134 
L 1269 4134 
L 1269 2991 
Q 1406 3038 1543 3061 
Q 1681 3084 1819 3084 
Q 2600 3084 3056 2656 
Q 3513 2228 3513 1497 
Q 3513 744 3044 326 
Q 2575 -91 1722 -91 
Q 1428 -91 1123 -41 
Q 819 9 494 109 
L 494 744 
Q 775 591 1075 516 
Q 1375 441 1709 441 
Q 2250 441 2565 725 
Q 2881 1009 2881 1497 
Q 2881 1984 2565 2268 
Q 2250 2553 1709 2553 
Q 1456 2553 1204 2497 
Q 953 2441 691 2322 
L 691 4666 
z
" transform="scale(0.015625)"/>
       </defs>
       <use xlink:href="#DejaVuSans-35"/>
      </g>
     </g>
    </g>
    <g id="ytick_3">
     <g id="line2d_8">
      <g>
       <use xlink:href="#m0914b31eb0" x="26.925" y="134.493543" style="stroke: #000000; stroke-width: 0.8"/>
      </g>
     </g>
     <g id="text_8">
      <!-- 10 -->
      <g transform="translate(7.2 138.292762) scale(0.1 -0.1)">
       <defs>
        <path id="DejaVuSans-31" d="M 794 531 
L 1825 531 
L 1825 4091 
L 703 3866 
L 703 4441 
L 1819 4666 
L 2450 4666 
L 2450 531 
L 3481 531 
L 3481 0 
L 794 0 
L 794 531 
z
" transform="scale(0.015625)"/>
       </defs>
       <use xlink:href="#DejaVuSans-31"/>
       <use xlink:href="#DejaVuSans-30" transform="translate(63.623047 0)"/>
      </g>
     </g>
    </g>
    <g id="ytick_4">
     <g id="line2d_9">
      <g>
       <use xlink:href="#m0914b31eb0" x="26.925" y="81.328568" style="stroke: #000000; stroke-width: 0.8"/>
      </g>
     </g>
     <g id="text_9">
      <!-- 15 -->
      <g transform="translate(7.2 85.127787) scale(0.1 -0.1)">
       <use xlink:href="#DejaVuSans-31"/>
       <use xlink:href="#DejaVuSans-35" transform="translate(63.623047 0)"/>
      </g>
     </g>
    </g>
    <g id="ytick_5">
     <g id="line2d_10">
      <g>
       <use xlink:href="#m0914b31eb0" x="26.925" y="28.163593" style="stroke: #000000; stroke-width: 0.8"/>
      </g>
     </g>
     <g id="text_10">
      <!-- 20 -->
      <g transform="translate(7.2 31.962811) scale(0.1 -0.1)">
       <use xlink:href="#DejaVuSans-32"/>
       <use xlink:href="#DejaVuSans-30" transform="translate(63.623047 0)"/>
      </g>
     </g>
    </g>
   </g>
   <g id="line2d_11">
    <path d="M 43.157727 249.146291 
L 46.437066 246.924623 
L 49.716405 244.702955 
L 52.995744 242.481288 
L 56.275083 240.25962 
L 59.554421 238.037952 
L 62.83376 235.816284 
L 66.113099 233.594616 
L 69.392438 231.372948 
L 72.671777 229.15128 
L 75.951116 226.929612 
L 79.230455 224.707944 
L 82.509793 222.486276 
L 85.789132 220.264608 
L 89.068471 218.04294 
L 92.34781 215.821272 
L 95.627149 213.599604 
L 98.906488 211.377937 
L 102.185826 209.156269 
L 105.465165 206.934601 
L 108.744504 204.712933 
L 112.023843 202.491265 
L 115.303182 200.269597 
L 118.582521 198.047929 
L 121.86186 195.826261 
L 125.141198 193.604593 
L 128.420537 191.382925 
L 131.699876 189.161257 
L 134.979215 186.939589 
L 138.258554 184.717921 
L 141.537893 182.496253 
L 144.817231 180.274586 
L 148.09657 178.052918 
L 151.375909 175.83125 
L 154.655248 173.609582 
L 157.934587 171.387914 
L 161.213926 169.166246 
L 164.493264 166.944578 
L 167.772603 164.72291 
L 171.051942 162.501242 
L 174.331281 160.279574 
L 177.61062 158.057906 
L 180.889959 155.836238 
L 184.169298 153.61457 
L 187.448636 151.392902 
L 190.727975 149.171235 
L 194.007314 146.949567 
L 197.286653 144.727899 
L 200.565992 142.506231 
L 203.845331 140.284563 
L 207.124669 138.062895 
L 210.404008 135.841227 
L 213.683347 133.619559 
L 216.962686 131.397891 
L 220.242025 129.176223 
L 223.521364 126.954555 
L 226.800702 124.732887 
L 230.080041 122.511219 
L 233.35938 120.289551 
L 236.638719 118.067884 
L 239.918058 115.846216 
L 243.197397 113.624548 
L 246.476736 111.40288 
L 249.756074 109.181212 
L 253.035413 106.959544 
L 256.314752 104.737876 
L 259.594091 102.516208 
L 262.87343 100.29454 
L 266.152769 98.072872 
L 269.432107 95.851204 
L 272.711446 93.629536 
L 275.990785 91.407868 
L 279.270124 89.1862 
L 282.549463 86.964533 
L 285.828802 84.742865 
L 289.10814 82.521197 
L 292.387479 80.299529 
L 295.666818 78.077861 
L 298.946157 75.856193 
L 302.225496 73.634525 
L 305.504835 71.412857 
L 308.784174 69.191189 
L 312.063512 66.969521 
L 315.342851 64.747853 
L 318.62219 62.526185 
L 321.901529 60.304517 
L 325.180868 58.082849 
L 328.460207 55.861182 
L 331.739545 53.639514 
L 335.018884 51.417846 
L 338.298223 49.196178 
L 341.577562 46.97451 
L 344.856901 44.752842 
L 348.13624 42.531174 
L 351.415579 40.309506 
L 354.694917 38.087838 
L 357.974256 35.86617 
L 361.253595 33.644502 
L 364.532934 31.422834 
L 367.812273 29.201166 
" clip-path="url(#p9daa84515f)" style="fill: none; stroke: #1f77b4; stroke-width: 2.25; stroke-linecap: square"/>
   </g>
   <g id="patch_3">
    <path d="M 26.925 273.312 
L 26.925 7.2 
" style="fill: none; stroke: #000000; stroke-width: 0.8; stroke-linejoin: miter; stroke-linecap: square"/>
   </g>
   <g id="patch_4">
    <path d="M 384.045 273.312 
L 384.045 7.2 
" style="fill: none; stroke: #000000; stroke-width: 0.8; stroke-linejoin: miter; stroke-linecap: square"/>
   </g>
   <g id="patch_5">
    <path d="M 26.925 273.312 
L 384.045 273.312 
" style="fill: none; stroke: #000000; stroke-width: 0.8; stroke-linejoin: miter; stroke-linecap: square"/>
   </g>
   <g id="patch_6">
    <path d="M 26.925 7.2 
L 384.045 7.2 
" style="fill: none; stroke: #000000; stroke-width: 0.8; stroke-linejoin: miter; stroke-linecap: square"/>
   </g>
  </g>
 </g>
 <defs>
  <clipPath id="p9daa84515f">
   <rect x="26.925" y="7.2" width="357.12" height="266.112"/>
  </clipPath>
 </defs>
</svg>