<?xml version="1.0" encoding="utf-8" standalone="no"?>
<!DOCTYPE svg PUBLIC "-//W3C//DTD SVG 1.1//EN"
  "http://www.w3.org/Graphics/SVG/1.1/DTD/svg11.dtd">
<svg xmlns:xlink="http://www.w3.org/1999/xlink" width="420.188935pt" height="351.99625pt" viewBox="0 0 420.188935 351.99625" xmlns="http://www.w3.org/2000/svg" version="1.1">
 <metadata>
  <rdf:RDF xmlns:dc="http://purl.org/dc/elements/1.1/" xmlns:cc="http://creativecommons.org/ns#" xmlns:rdf="http://www.w3.org/1999/02/22-rdf-syntax-ns#">
   <cc:Work>
    <dc:type rdf:resource="http://purl.org/dc/dcmitype/StillImage"/>
    <dc:date>2025-08-24T16:33:26.670157</dc:date>
    <dc:format>image/svg+xml</dc:format>
    <dc:creator>
     <cc:Agent>
      <dc:title>Matplotlib v3.10.3, https://matplotlib.org/</dc:title>
     </cc:Agent>
    </dc:creator>
   </cc:Work>
  </rdf:RDF>
 </metadata>
 <defs>
  <style type="text/css">*{stroke-linejoin: round; stroke-linecap: butt}</style>
 </defs>
 <g id="figure_1">
  <g id="patch_1">
   <path d="M 0 351.99625 
L 420.188935 351.99625 
L 420.188935 0 
L 0 0 
z
" style="fill: #ffffff"/>
  </g>
  <g id="axes_1">
   <g id="patch_2">
    <path d="M 47.1875 314.44 
L 341.850735 314.44 
L 341.850735 7.2 
L 47.1875 7.2 
z
" style="fill: #ffffff"/>
   </g>
   <g id="PathCollection_1">
    <defs>
     <path id="me052f01985" d="M 0 3 
C 0.795609 3 1.55874 2.683901 2.12132 2.12132 
C 2.683901 1.55874 3 0.795609 3 0 
C 3 -0.795609 2.683901 -1.55874 2.12132 -2.12132 
C 1.55874 -2.683901 0.795609 -3 0 -3 
C -0.795609 -3 -1.55874 -2.683901 -2.12132 -2.12132 
C -2.683901 -1.55874 -3 -0.795609 -3 0 
C -3 0.795609 -2.683901 1.55874 -2.12132 2.12132 
C -1.55874 2.683901 -0.795609 3 0 3 
z
" style="stroke: #1f77b4; stroke-opacity: 0.8"/>
    </defs>
    <g clip-path="url(#p0dcdb53487)">
     <use xlink:href="#me052f01985" x="60.581283" y="254.625334" style="fill: #1f77b4; fill-opacity: 0.8; stroke: #1f77b4; stroke-opacity: 0.8"/>
     <use xlink:href="#me052f01985" x="87.756234" y="238.516152" style="fill: #1f77b4; fill-opacity: 0.8; stroke: #1f77b4; stroke-opacity: 0.8"/>
     <use xlink:href="#me052f01985" x="114.931184" y="213.732795" style="fill: #1f77b4; fill-opacity: 0.8; stroke: #1f77b4; stroke-opacity: 0.8"/>
     <use xlink:href="#me052f01985" x="142.086765" y="188.949437" style="fill: #1f77b4; fill-opacity: 0.8; stroke: #1f77b4; stroke-opacity: 0.8"/>
     <use xlink:href="#me052f01985" x="169.261715" y="162.926912" style="fill: #1f77b4; fill-opacity: 0.8; stroke: #1f77b4; stroke-opacity: 0.8"/>
     <use xlink:href="#me052f01985" x="196.436666" y="140.621891" style="fill: #1f77b4; fill-opacity: 0.8; stroke: #1f77b4; stroke-opacity: 0.8"/>
     <use xlink:href="#me052f01985" x="223.592247" y="117.077701" style="fill: #1f77b4; fill-opacity: 0.8; stroke: #1f77b4; stroke-opacity: 0.8"/>
     <use xlink:href="#me052f01985" x="250.767197" y="93.533512" style="fill: #1f77b4; fill-opacity: 0.8; stroke: #1f77b4; stroke-opacity: 0.8"/>
     <use xlink:href="#me052f01985" x="277.922778" y="72.467658" style="fill: #1f77b4; fill-opacity: 0.8; stroke: #1f77b4; stroke-opacity: 0.8"/>
     <use xlink:href="#me052f01985" x="305.097728" y="47.6843" style="fill: #1f77b4; fill-opacity: 0.8; stroke: #1f77b4; stroke-opacity: 0.8"/>
     <use xlink:href="#me052f01985" x="142.086765" y="201.341116" style="fill: #1f77b4; fill-opacity: 0.8; stroke: #1f77b4; stroke-opacity: 0.8"/>
     <use xlink:href="#me052f01985" x="142.086765" y="232.320313" style="fill: #1f77b4; fill-opacity: 0.8; stroke: #1f77b4; stroke-opacity: 0.8"/>
     <use xlink:href="#me052f01985" x="169.261715" y="172.840255" style="fill: #1f77b4; fill-opacity: 0.8; stroke: #1f77b4; stroke-opacity: 0.8"/>
     <use xlink:href="#me052f01985" x="196.436666" y="167.883584" style="fill: #1f77b4; fill-opacity: 0.8; stroke: #1f77b4; stroke-opacity: 0.8"/>
     <use xlink:href="#me052f01985" x="223.592247" y="161.687744" style="fill: #1f77b4; fill-opacity: 0.8; stroke: #1f77b4; stroke-opacity: 0.8"/>
     <use xlink:href="#me052f01985" x="180.805743" y="109.642694" style="fill: #1f77b4; fill-opacity: 0.8; stroke: #1f77b4; stroke-opacity: 0.8"/>
     <use xlink:href="#me052f01985" x="207.980693" y="84.859336" style="fill: #1f77b4; fill-opacity: 0.8; stroke: #1f77b4; stroke-opacity: 0.8"/>
     <use xlink:href="#me052f01985" x="262.311224" y="62.554315" style="fill: #1f77b4; fill-opacity: 0.8; stroke: #1f77b4; stroke-opacity: 0.8"/>
    </g>
   </g>
   <g id="FillBetweenPolyCollection_1">
    <path d="M 60.581283 252.194817 
L 60.581283 285.297114 
L 63.051146 282.736596 
L 65.52101 280.315155 
L 67.990873 277.91028 
L 70.460736 275.505406 
L 72.930599 272.863519 
L 75.400462 270.073379 
L 77.870325 267.506545 
L 80.340188 265.139885 
L 82.810051 262.769841 
L 85.279914 260.395115 
L 87.749777 257.55602 
L 90.21964 255.11225 
L 92.689503 252.394058 
L 95.159367 249.966134 
L 97.62923 247.557561 
L 100.099093 245.148988 
L 102.568956 242.670225 
L 105.038819 240.08767 
L 107.508682 237.517274 
L 109.978545 234.968435 
L 112.448408 232.383274 
L 114.918271 229.823548 
L 117.388134 227.396945 
L 119.857997 225.045125 
L 122.32786 222.719727 
L 124.797724 220.437706 
L 127.267587 218.054317 
L 129.73745 215.647207 
L 132.207313 213.302082 
L 134.677176 210.988572 
L 137.147039 208.611831 
L 139.616902 206.260955 
L 142.086765 203.909781 
L 144.556628 201.518264 
L 147.026491 199.078885 
L 149.496354 196.646354 
L 151.966217 194.502739 
L 154.436081 192.172568 
L 156.905944 189.805791 
L 159.375807 187.441746 
L 161.84567 185.131834 
L 164.315533 182.711565 
L 166.785396 180.320226 
L 169.255259 178.058025 
L 171.725122 175.744958 
L 174.194985 173.397081 
L 176.664848 171.022101 
L 179.134711 168.660446 
L 181.604574 166.356627 
L 184.074437 164.00533 
L 186.544301 161.602578 
L 189.014164 159.498737 
L 191.484027 157.446318 
L 193.95389 154.988935 
L 196.423753 152.60748 
L 198.893616 150.51968 
L 201.363479 148.445915 
L 203.833342 146.376045 
L 206.303205 144.151971 
L 208.773068 141.902843 
L 211.242931 139.706402 
L 213.712794 137.483515 
L 216.182658 135.263948 
L 218.652521 133.230746 
L 221.122384 131.19623 
L 223.592247 129.061529 
L 226.06211 126.926637 
L 228.531973 124.784797 
L 231.001836 122.595947 
L 233.471699 120.324069 
L 235.941562 118.261998 
L 238.411425 116.232429 
L 240.881288 114.099966 
L 243.351151 112.027743 
L 245.821015 110.010251 
L 248.290878 108.021158 
L 250.760741 105.973742 
L 253.230604 103.957375 
L 255.700467 101.939185 
L 258.17033 99.921357 
L 260.640193 97.936859 
L 263.110056 95.966125 
L 265.579919 93.939759 
L 268.049782 91.927652 
L 270.519645 89.91709 
L 272.989508 87.890189 
L 275.459371 85.891164 
L 277.929235 83.856717 
L 280.399098 81.916562 
L 282.868961 79.977636 
L 285.338824 77.979508 
L 287.808687 75.997083 
L 290.27855 73.974745 
L 292.748413 71.942479 
L 295.218276 69.907386 
L 297.688139 67.83266 
L 300.158002 65.725969 
L 302.627865 63.619277 
L 305.097728 61.597025 
L 305.097728 21.165455 
L 305.097728 21.165455 
L 302.627865 23.684255 
L 300.158002 26.203055 
L 297.688139 28.721855 
L 295.218276 31.240655 
L 292.748413 33.76054 
L 290.27855 36.285167 
L 287.808687 38.809794 
L 285.338824 41.334421 
L 282.868961 43.859048 
L 280.399098 46.42372 
L 277.929235 49.06308 
L 275.459371 51.610433 
L 272.989508 54.244843 
L 270.519645 56.91753 
L 268.049782 59.594458 
L 265.579919 62.145743 
L 263.110056 64.592268 
L 260.640193 67.026012 
L 258.17033 69.601861 
L 255.700467 72.086567 
L 253.230604 74.422244 
L 250.760741 76.732847 
L 248.290878 79.421726 
L 245.821015 82.034698 
L 243.351151 84.524137 
L 240.881288 87.08754 
L 238.411425 89.783074 
L 235.941562 92.570461 
L 233.471699 95.357544 
L 231.001836 97.651919 
L 228.531973 100.226716 
L 226.06211 102.740659 
L 223.592247 105.160447 
L 221.122384 107.629129 
L 218.652521 110.36431 
L 216.182658 112.624401 
L 213.712794 114.885326 
L 211.242931 117.15681 
L 208.773068 119.507951 
L 206.303205 121.922854 
L 203.833342 124.306547 
L 201.363479 126.793348 
L 198.893616 129.273823 
L 196.423753 131.67802 
L 193.95389 134.118733 
L 191.484027 136.351205 
L 189.014164 138.67101 
L 186.544301 141.0114 
L 184.074437 143.305421 
L 181.604574 145.569119 
L 179.134711 147.80727 
L 176.664848 150.095016 
L 174.194985 152.338654 
L 171.725122 154.670547 
L 169.255259 156.960911 
L 166.785396 159.238399 
L 164.315533 161.470222 
L 161.84567 163.79798 
L 159.375807 165.992489 
L 156.905944 168.198304 
L 154.436081 170.432554 
L 151.966217 172.623748 
L 149.496354 174.853441 
L 147.026491 177.08438 
L 144.556628 179.347419 
L 142.086765 181.543509 
L 139.616902 183.773411 
L 137.147039 185.949222 
L 134.677176 188.071934 
L 132.207313 190.277569 
L 129.73745 192.318975 
L 127.267587 194.560712 
L 124.797724 196.679565 
L 122.32786 198.80369 
L 119.857997 200.964092 
L 117.388134 203.089381 
L 114.918271 205.191412 
L 112.448408 207.424707 
L 109.978545 209.639246 
L 107.508682 211.922958 
L 105.038819 214.194919 
L 102.568956 216.494741 
L 100.099093 218.690787 
L 97.62923 220.765512 
L 95.159367 222.851567 
L 92.689503 224.921708 
L 90.21964 227.003307 
L 87.749777 229.083725 
L 85.279914 231.273537 
L 82.810051 233.469129 
L 80.340188 235.572539 
L 77.870325 237.671075 
L 75.400462 239.730751 
L 72.930599 241.816085 
L 70.460736 243.976903 
L 67.990873 246.073576 
L 65.52101 247.976578 
L 63.051146 250.030533 
L 60.581283 252.194817 
z
" clip-path="url(#p0dcdb53487)" style="fill: #1f77b4; fill-opacity: 0.15"/>
   </g>
   <g id="PathCollection_2">
    <defs>
     <path id="m73bc78f8b7" d="M 0 3 
C 0.795609 3 1.55874 2.683901 2.12132 2.12132 
C 2.683901 1.55874 3 0.795609 3 0 
C 3 -0.795609 2.683901 -1.55874 2.12132 -2.12132 
C 1.55874 -2.683901 0.795609 -3 0 -3 
C -0.795609 -3 -1.55874 -2.683901 -2.12132 -2.12132 
C -2.683901 -1.55874 -3 -0.795609 -3 0 
C -3 0.795609 -2.683901 1.55874 -2.12132 2.12132 
C -1.55874 2.683901 -0.795609 3 0 3 
z
" style="stroke: #ff7f0e; stroke-opacity: 0.8"/>
    </defs>
    <g clip-path="url(#p0dcdb53487)">
     <use xlink:href="#m73bc78f8b7" x="138.271038" y="290.561203" style="fill: #ff7f0e; fill-opacity: 0.8; stroke: #ff7f0e; stroke-opacity: 0.8"/>
     <use xlink:href="#m73bc78f8b7" x="165.445988" y="249.668663" style="fill: #ff7f0e; fill-opacity: 0.8; stroke: #ff7f0e; stroke-opacity: 0.8"/>
     <use xlink:href="#m73bc78f8b7" x="192.620939" y="213.732795" style="fill: #ff7f0e; fill-opacity: 0.8; stroke: #ff7f0e; stroke-opacity: 0.8"/>
     <use xlink:href="#m73bc78f8b7" x="219.77652" y="179.036094" style="fill: #ff7f0e; fill-opacity: 0.8; stroke: #ff7f0e; stroke-opacity: 0.8"/>
     <use xlink:href="#m73bc78f8b7" x="246.95147" y="148.056898" style="fill: #ff7f0e; fill-opacity: 0.8; stroke: #ff7f0e; stroke-opacity: 0.8"/>
     <use xlink:href="#m73bc78f8b7" x="274.12642" y="119.556037" style="fill: #ff7f0e; fill-opacity: 0.8; stroke: #ff7f0e; stroke-opacity: 0.8"/>
     <use xlink:href="#m73bc78f8b7" x="301.282001" y="92.294344" style="fill: #ff7f0e; fill-opacity: 0.8; stroke: #ff7f0e; stroke-opacity: 0.8"/>
     <use xlink:href="#m73bc78f8b7" x="328.456952" y="67.510986" style="fill: #ff7f0e; fill-opacity: 0.8; stroke: #ff7f0e; stroke-opacity: 0.8"/>
     <use xlink:href="#m73bc78f8b7" x="165.445988" y="257.10367" style="fill: #ff7f0e; fill-opacity: 0.8; stroke: #ff7f0e; stroke-opacity: 0.8"/>
     <use xlink:href="#m73bc78f8b7" x="219.77652" y="190.188605" style="fill: #ff7f0e; fill-opacity: 0.8; stroke: #ff7f0e; stroke-opacity: 0.8"/>
     <use xlink:href="#m73bc78f8b7" x="138.271038" y="300.474545" style="fill: #ff7f0e; fill-opacity: 0.8; stroke: #ff7f0e; stroke-opacity: 0.8"/>
     <use xlink:href="#m73bc78f8b7" x="192.620939" y="236.037816" style="fill: #ff7f0e; fill-opacity: 0.8; stroke: #ff7f0e; stroke-opacity: 0.8"/>
    </g>
   </g>
   <g id="FillBetweenPolyCollection_2">
    <path d="M 138.271038 280.093147 
L 138.271038 297.242297 
L 140.192108 294.750517 
L 142.113178 292.242934 
L 144.034247 289.64908 
L 145.955317 287.059381 
L 147.876387 284.560267 
L 149.797457 282.113239 
L 151.718527 279.756655 
L 153.639597 277.357105 
L 155.560666 274.954524 
L 157.481736 272.386723 
L 159.402806 269.882499 
L 161.323876 267.448196 
L 163.244946 265.080405 
L 165.166016 262.577718 
L 167.087085 260.071846 
L 169.008155 257.572638 
L 170.929225 255.068077 
L 172.850295 252.601066 
L 174.771365 250.145476 
L 176.692435 247.696896 
L 178.613504 245.283433 
L 180.534574 242.930411 
L 182.455644 240.535748 
L 184.376714 238.204625 
L 186.297784 235.795812 
L 188.218854 233.386999 
L 190.139923 230.978186 
L 192.060993 228.612695 
L 193.982063 226.215076 
L 195.903133 223.848568 
L 197.824203 221.477627 
L 199.745273 219.136257 
L 201.666342 216.793631 
L 203.587412 214.376369 
L 205.508482 211.9481 
L 207.429552 209.621202 
L 209.350622 207.307299 
L 211.271692 204.993397 
L 213.192761 202.679494 
L 215.113831 200.364945 
L 217.034901 197.972045 
L 218.955971 195.554772 
L 220.877041 193.201618 
L 222.798111 190.870908 
L 224.719181 188.451586 
L 226.64025 186.108829 
L 228.56132 183.730023 
L 230.48239 181.410745 
L 232.40346 179.069424 
L 234.32453 176.739725 
L 236.2456 174.409371 
L 238.166669 172.097409 
L 240.087739 169.754237 
L 242.008809 167.43328 
L 243.929879 165.113204 
L 245.850949 162.759994 
L 247.772019 160.350947 
L 249.693088 158.06329 
L 251.614158 155.769232 
L 253.535228 153.419037 
L 255.456298 151.066774 
L 257.377368 148.729764 
L 259.298438 146.365754 
L 261.219507 144.058093 
L 263.140577 141.755848 
L 265.061647 139.402847 
L 266.982717 137.081395 
L 268.903787 134.776299 
L 270.824857 132.450686 
L 272.745926 130.139572 
L 274.666996 127.811387 
L 276.588066 125.552311 
L 278.509136 123.303051 
L 280.430206 121.014554 
L 282.351276 118.712446 
L 284.272345 116.394451 
L 286.193415 114.142421 
L 288.114485 111.850268 
L 290.035555 109.622771 
L 291.956625 107.357953 
L 293.877695 105.1335 
L 295.798764 102.847025 
L 297.719834 100.513405 
L 299.640904 98.289639 
L 301.561974 95.998796 
L 303.483044 93.74976 
L 305.404114 91.541373 
L 307.325183 89.287108 
L 309.246253 86.990771 
L 311.167323 84.691478 
L 313.088393 82.443166 
L 315.009463 80.216797 
L 316.930533 77.918374 
L 318.851602 75.599024 
L 320.772672 73.279674 
L 322.693742 71.055695 
L 324.614812 68.774535 
L 326.535882 66.50144 
L 328.456952 64.230466 
L 328.456952 40.313529 
L 328.456952 40.313529 
L 326.535882 42.898772 
L 324.614812 45.518138 
L 322.693742 48.137504 
L 320.772672 50.75687 
L 318.851602 53.37659 
L 316.930533 55.987197 
L 315.009463 58.569461 
L 313.088393 61.151726 
L 311.167323 63.733991 
L 309.246253 66.316255 
L 307.325183 68.87987 
L 305.404114 71.443082 
L 303.483044 74.006294 
L 301.561974 76.569505 
L 299.640904 79.132717 
L 297.719834 81.719997 
L 295.798764 84.332044 
L 293.877695 86.944091 
L 291.956625 89.543071 
L 290.035555 92.084842 
L 288.114485 94.595132 
L 286.193415 97.099316 
L 284.272345 99.628133 
L 282.351276 102.188579 
L 280.430206 104.749025 
L 278.509136 107.309471 
L 276.588066 109.859213 
L 274.666996 112.348267 
L 272.745926 114.956613 
L 270.824857 117.496458 
L 268.903787 120.036303 
L 266.982717 122.576148 
L 265.061647 125.110836 
L 263.140577 127.626073 
L 261.219507 130.13928 
L 259.298438 132.567586 
L 257.377368 134.995892 
L 255.456298 137.426212 
L 253.535228 139.885482 
L 251.614158 142.489009 
L 249.693088 145.095429 
L 247.772019 147.703299 
L 245.850949 150.198316 
L 243.929879 152.647099 
L 242.008809 155.272296 
L 240.087739 157.828959 
L 238.166669 160.427385 
L 236.2456 162.939376 
L 234.32453 165.501628 
L 232.40346 167.895613 
L 230.48239 170.372853 
L 228.56132 172.75733 
L 226.64025 175.242791 
L 224.719181 177.723178 
L 222.798111 180.108887 
L 220.877041 182.435501 
L 218.955971 184.884092 
L 217.034901 187.197002 
L 215.113831 189.561428 
L 213.192761 191.98654 
L 211.271692 194.392211 
L 209.350622 196.861383 
L 207.429552 199.202498 
L 205.508482 201.606028 
L 203.587412 203.989572 
L 201.666342 206.43474 
L 199.745273 208.878628 
L 197.824203 211.191395 
L 195.903133 213.427774 
L 193.982063 215.589901 
L 192.060993 217.781449 
L 190.139923 219.996646 
L 188.218854 222.373422 
L 186.297784 224.72453 
L 184.376714 226.929743 
L 182.455644 229.150105 
L 180.534574 231.370467 
L 178.613504 233.590829 
L 176.692435 235.811192 
L 174.771365 238.031554 
L 172.850295 240.251916 
L 170.929225 242.472278 
L 169.008155 244.69264 
L 167.087085 246.913002 
L 165.166016 249.133397 
L 163.244946 251.350221 
L 161.323876 253.524057 
L 159.402806 255.698607 
L 157.481736 257.873158 
L 155.560666 260.047708 
L 153.639597 262.293679 
L 151.718527 264.552456 
L 149.797457 266.812028 
L 147.876387 269.072732 
L 145.955317 271.296187 
L 144.034247 273.492755 
L 142.113178 275.689324 
L 140.192108 277.885892 
L 138.271038 280.093147 
z
" clip-path="url(#p0dcdb53487)" style="fill: #ff7f0e; fill-opacity: 0.15"/>
   </g>
   <g id="matplotlib.axis_1">
    <g id="xtick_1">
     <g id="line2d_1">
      <defs>
       <path id="m0f5e6dfe8d" d="M 0 0 
L 0 3.5 
" style="stroke: #000000; stroke-width: 0.8"/>
      </defs>
      <g>
       <use xlink:href="#m0f5e6dfe8d" x="75.999145" y="314.44" style="stroke: #000000; stroke-width: 0.8"/>
      </g>
     </g>
     <g id="text_1">
      <!-- 40 -->
      <g transform="translate(69.636645 329.038437) scale(0.1 -0.1)">
       <defs>
        <path id="DejaVuSans-34" d="M 2419 4116 
L 825 1625 
L 2419 1625 
L 2419 4116 
z
M 2253 4666 
L 3047 4666 
L 3047 1625 
L 3713 1625 
L 3713 1100 
L 3047 1100 
L 3047 0 
L 2419 0 
L 2419 1100 
L 313 1100 
L 313 1709 
L 2253 4666 
z
" transform="scale(0.015625)"/>
        <path id="DejaVuSans-30" d="M 2034 4250 
Q 1547 4250 1301 3770 
Q 1056 3291 1056 2328 
Q 1056 1369 1301 889 
Q 1547 409 2034 409 
Q 2525 409 2770 889 
Q 3016 1369 3016 2328 
Q 3016 3291 2770 3770 
Q 2525 4250 2034 4250 
z
M 2034 4750 
Q 2819 4750 3233 4129 
Q 3647 3509 3647 2328 
Q 3647 1150 3233 529 
Q 2819 -91 2034 -91 
Q 1250 -91 836 529 
Q 422 1150 422 2328 
Q 422 3509 836 4129 
Q 1250 4750 2034 4750 
z
" transform="scale(0.015625)"/>
       </defs>
       <use xlink:href="#DejaVuSans-34"/>
       <use xlink:href="#DejaVuSans-30" transform="translate(63.623047 0)"/>
      </g>
     </g>
    </g>
    <g id="xtick_2">
     <g id="line2d_2">
      <g>
       <use xlink:href="#m0f5e6dfe8d" x="114.737492" y="314.44" style="stroke: #000000; stroke-width: 0.8"/>
      </g>
     </g>
     <g id="text_2">
      <!-- 60 -->
      <g transform="translate(108.374992 329.038437) scale(0.1 -0.1)">
       <defs>
        <path id="DejaVuSans-36" d="M 2113 2584 
Q 1688 2584 1439 2293 
Q 1191 2003 1191 1497 
Q 1191 994 1439 701 
Q 1688 409 2113 409 
Q 2538 409 2786 701 
Q 3034 994 3034 1497 
Q 3034 2003 2786 2293 
Q 2538 2584 2113 2584 
z
M 3366 4563 
L 3366 3988 
Q 3128 4100 2886 4159 
Q 2644 4219 2406 4219 
Q 1781 4219 1451 3797 
Q 1122 3375 1075 2522 
Q 1259 2794 1537 2939 
Q 1816 3084 2150 3084 
Q 2853 3084 3261 2657 
Q 3669 2231 3669 1497 
Q 3669 778 3244 343 
Q 2819 -91 2113 -91 
Q 1303 -91 875 529 
Q 447 1150 447 2328 
Q 447 3434 972 4092 
Q 1497 4750 2381 4750 
Q 2619 4750 2861 4703 
Q 3103 4656 3366 4563 
z
" transform="scale(0.015625)"/>
       </defs>
       <use xlink:href="#DejaVuSans-36"/>
       <use xlink:href="#DejaVuSans-30" transform="translate(63.623047 0)"/>
      </g>
     </g>
    </g>
    <g id="xtick_3">
     <g id="line2d_3">
      <g>
       <use xlink:href="#m0f5e6dfe8d" x="153.475839" y="314.44" style="stroke: #000000; stroke-width: 0.8"/>
      </g>
     </g>
     <g id="text_3">
      <!-- 80 -->
      <g transform="translate(147.113339 329.038437) scale(0.1 -0.1)">
       <defs>
        <path id="DejaVuSans-38" d="M 2034 2216 
Q 1584 2216 1326 1975 
Q 1069 1734 1069 1313 
Q 1069 891 1326 650 
Q 1584 409 2034 409 
Q 2484 409 2743 651 
Q 3003 894 3003 1313 
Q 3003 1734 2745 1975 
Q 2488 2216 2034 2216 
z
M 1403 2484 
Q 997 2584 770 2862 
Q 544 3141 544 3541 
Q 544 4100 942 4425 
Q 1341 4750 2034 4750 
Q 2731 4750 3128 4425 
Q 3525 4100 3525 3541 
Q 3525 3141 3298 2862 
Q 3072 2584 2669 2484 
Q 3125 2378 3379 2068 
Q 3634 1759 3634 1313 
Q 3634 634 3220 271 
Q 2806 -91 2034 -91 
Q 1263 -91 848 271 
Q 434 634 434 1313 
Q 434 1759 690 2068 
Q 947 2378 1403 2484 
z
M 1172 3481 
Q 1172 3119 1398 2916 
Q 1625 2713 2034 2713 
Q 2441 2713 2670 2916 
Q 2900 3119 2900 3481 
Q 2900 3844 2670 4047 
Q 2441 4250 2034 4250 
Q 1625 4250 1398 4047 
Q 1172 3844 1172 3481 
z
" transform="scale(0.015625)"/>
       </defs>
       <use xlink:href="#DejaVuSans-38"/>
       <use xlink:href="#DejaVuSans-30" transform="translate(63.623047 0)"/>
      </g>
     </g>
    </g>
    <g id="xtick_4">
     <g id="line2d_4">
      <g>
       <use xlink:href="#m0f5e6dfe8d" x="192.214186" y="314.44" style="stroke: #000000; stroke-width: 0.8"/>
      </g>
     </g>
     <g id="text_4">
      <!-- 100 -->
      <g transform="translate(182.670436 329.038437) scale(0.1 -0.1)">
       <defs>
        <path id="DejaVuSans-31" d="M 794 531 
L 1825 531 
L 1825 4091 
L 703 3866 
L 703 4441 
L 1819 4666 
L 2450 4666 
L 2450 531 
L 3481 531 
L 3481 0 
L 794 0 
L 794 531 
z
" transform="scale(0.015625)"/>
       </defs>
       <use xlink:href="#DejaVuSans-31"/>
       <use xlink:href="#DejaVuSans-30" transform="translate(63.623047 0)"/>
       <use xlink:href="#DejaVuSans-30" transform="translate(127.246094 0)"/>
      </g>
     </g>
    </g>
    <g id="xtick_5">
     <g id="line2d_5">
      <g>
       <use xlink:href="#m0f5e6dfe8d" x="230.952533" y="314.44" style="stroke: #000000; stroke-width: 0.8"/>
      </g>
     </g>
     <g id="text_5">
      <!-- 120 -->
      <g transform="translate(221.408783 329.038437) scale(0.1 -0.1)">
       <defs>
        <path id="DejaVuSans-32" d="M 1228 531 
L 3431 531 
L 3431 0 
L 469 0 
L 469 531 
Q 828 903 1448 1529 
Q 2069 2156 2228 2338 
Q 2531 2678 2651 2914 
Q 2772 3150 2772 3378 
Q 2772 3750 2511 3984 
Q 2250 4219 1831 4219 
Q 1534 4219 1204 4116 
Q 875 4013 500 3803 
L 500 4441 
Q 881 4594 1212 4672 
Q 1544 4750 1819 4750 
Q 2544 4750 2975 4387 
Q 3406 4025 3406 3419 
Q 3406 3131 3298 2873 
Q 3191 2616 2906 2266 
Q 2828 2175 2409 1742 
Q 1991 1309 1228 531 
z
" transform="scale(0.015625)"/>
       </defs>
       <use xlink:href="#DejaVuSans-31"/>
       <use xlink:href="#DejaVuSans-32" transform="translate(63.623047 0)"/>
       <use xlink:href="#DejaVuSans-30" transform="translate(127.246094 0)"/>
      </g>
     </g>
    </g>
    <g id="xtick_6">
     <g id="line2d_6">
      <g>
       <use xlink:href="#m0f5e6dfe8d" x="269.690879" y="314.44" style="stroke: #000000; stroke-width: 0.8"/>
      </g>
     </g>
     <g id="text_6">
      <!-- 140 -->
      <g transform="translate(260.147129 329.038437) scale(0.1 -0.1)">
       <use xlink:href="#DejaVuSans-31"/>
       <use xlink:href="#DejaVuSans-34" transform="translate(63.623047 0)"/>
       <use xlink:href="#DejaVuSans-30" transform="translate(127.246094 0)"/>
      </g>
     </g>
    </g>
    <g id="xtick_7">
     <g id="line2d_7">
      <g>
       <use xlink:href="#m0f5e6dfe8d" x="308.429226" y="314.44" style="stroke: #000000; stroke-width: 0.8"/>
      </g>
     </g>
     <g id="text_7">
      <!-- 160 -->
      <g transform="translate(298.885476 329.038437) scale(0.1 -0.1)">
       <use xlink:href="#DejaVuSans-31"/>
       <use xlink:href="#DejaVuSans-36" transform="translate(63.623047 0)"/>
       <use xlink:href="#DejaVuSans-30" transform="translate(127.246094 0)"/>
      </g>
     </g>
    </g>
    <g id="text_8">
     <!-- MW, g/mol -->
     <g transform="translate(167.905836 342.716562) scale(0.1 -0.1)">
      <defs>
       <path id="DejaVuSans-4d" d="M 628 4666 
L 1569 4666 
L 2759 1491 
L 3956 4666 
L 4897 4666 
L 4897 0 
L 4281 0 
L 4281 4097 
L 3078 897 
L 2444 897 
L 1241 4097 
L 1241 0 
L 628 0 
L 628 4666 
z
" transform="scale(0.015625)"/>
       <path id="DejaVuSans-57" d="M 213 4666 
L 850 4666 
L 1831 722 
L 2809 4666 
L 3519 4666 
L 4500 722 
L 5478 4666 
L 6119 4666 
L 4947 0 
L 4153 0 
L 3169 4050 
L 2175 0 
L 1381 0 
L 213 4666 
z
" transform="scale(0.015625)"/>
       <path id="DejaVuSans-2c" d="M 750 794 
L 1409 794 
L 1409 256 
L 897 -744 
L 494 -744 
L 750 256 
L 750 794 
z
" transform="scale(0.015625)"/>
       <path id="DejaVuSans-20" transform="scale(0.015625)"/>
       <path id="DejaVuSans-67" d="M 2906 1791 
Q 2906 2416 2648 2759 
Q 2391 3103 1925 3103 
Q 1463 3103 1205 2759 
Q 947 2416 947 1791 
Q 947 1169 1205 825 
Q 1463 481 1925 481 
Q 2391 481 2648 825 
Q 2906 1169 2906 1791 
z
M 3481 434 
Q 3481 -459 3084 -895 
Q 2688 -1331 1869 -1331 
Q 1566 -1331 1297 -1286 
Q 1028 -1241 775 -1147 
L 775 -588 
Q 1028 -725 1275 -790 
Q 1522 -856 1778 -856 
Q 2344 -856 2625 -561 
Q 2906 -266 2906 331 
L 2906 616 
Q 2728 306 2450 153 
Q 2172 0 1784 0 
Q 1141 0 747 490 
Q 353 981 353 1791 
Q 353 2603 747 3093 
Q 1141 3584 1784 3584 
Q 2172 3584 2450 3431 
Q 2728 3278 2906 2969 
L 2906 3500 
L 3481 3500 
L 3481 434 
z
" transform="scale(0.015625)"/>
       <path id="DejaVuSans-2f" d="M 1625 4666 
L 2156 4666 
L 531 -594 
L 0 -594 
L 1625 4666 
z
" transform="scale(0.015625)"/>
       <path id="DejaVuSans-6d" d="M 3328 2828 
Q 3544 3216 3844 3400 
Q 4144 3584 4550 3584 
Q 5097 3584 5394 3201 
Q 5691 2819 5691 2113 
L 5691 0 
L 5113 0 
L 5113 2094 
Q 5113 2597 4934 2840 
Q 4756 3084 4391 3084 
Q 3944 3084 3684 2787 
Q 3425 2491 3425 1978 
L 3425 0 
L 2847 0 
L 2847 2094 
Q 2847 2600 2669 2842 
Q 2491 3084 2119 3084 
Q 1678 3084 1418 2786 
Q 1159 2488 1159 1978 
L 1159 0 
L 581 0 
L 581 3500 
L 1159 3500 
L 1159 2956 
Q 1356 3278 1631 3431 
Q 1906 3584 2284 3584 
Q 2666 3584 2933 3390 
Q 3200 3197 3328 2828 
z
" transform="scale(0.015625)"/>
       <path id="DejaVuSans-6f" d="M 1959 3097 
Q 1497 3097 1228 2736 
Q 959 2375 959 1747 
Q 959 1119 1226 758 
Q 1494 397 1959 397 
Q 2419 397 2687 759 
Q 2956 1122 2956 1747 
Q 2956 2369 2687 2733 
Q 2419 3097 1959 3097 
z
M 1959 3584 
Q 2709 3584 3137 3096 
Q 3566 2609 3566 1747 
Q 3566 888 3137 398 
Q 2709 -91 1959 -91 
Q 1206 -91 779 398 
Q 353 888 353 1747 
Q 353 2609 779 3096 
Q 1206 3584 1959 3584 
z
" transform="scale(0.015625)"/>
       <path id="DejaVuSans-6c" d="M 603 4863 
L 1178 4863 
L 1178 0 
L 603 0 
L 603 4863 
z
" transform="scale(0.015625)"/>
      </defs>
      <use xlink:href="#DejaVuSans-4d"/>
      <use xlink:href="#DejaVuSans-57" transform="translate(86.279297 0)"/>
      <use xlink:href="#DejaVuSans-2c" transform="translate(185.15625 0)"/>
      <use xlink:href="#DejaVuSans-20" transform="translate(216.943359 0)"/>
      <use xlink:href="#DejaVuSans-67" transform="translate(248.730469 0)"/>
      <use xlink:href="#DejaVuSans-2f" transform="translate(312.207031 0)"/>
      <use xlink:href="#DejaVuSans-6d" transform="translate(345.898438 0)"/>
      <use xlink:href="#DejaVuSans-6f" transform="translate(443.310547 0)"/>
      <use xlink:href="#DejaVuSans-6c" transform="translate(504.492188 0)"/>
     </g>
    </g>
   </g>
   <g id="matplotlib.axis_2">
    <g id="ytick_1">
     <g id="line2d_8">
      <defs>
       <path id="mf835a70d76" d="M 0 0 
L -3.5 0 
" style="stroke: #000000; stroke-width: 0.8"/>
      </defs>
      <g>
       <use xlink:href="#mf835a70d76" x="47.1875" y="273.212852" style="stroke: #000000; stroke-width: 0.8"/>
      </g>
     </g>
     <g id="text_9">
      <!-- 50 -->
      <g transform="translate(27.4625 277.012071) scale(0.1 -0.1)">
       <defs>
        <path id="DejaVuSans-35" d="M 691 4666 
L 3169 4666 
L 3169 4134 
L 1269 4134 
L 1269 2991 
Q 1406 3038 1543 3061 
Q 1681 3084 1819 3084 
Q 2600 3084 3056 2656 
Q 3513 2228 3513 1497 
Q 3513 744 3044 326 
Q 2575 -91 1722 -91 
Q 1428 -91 1123 -41 
Q 819 9 494 109 
L 494 744 
Q 775 591 1075 516 
Q 1375 441 1709 441 
Q 2250 441 2565 725 
Q 2881 1009 2881 1497 
Q 2881 1984 2565 2268 
Q 2250 2553 1709 2553 
Q 1456 2553 1204 2497 
Q 953 2441 691 2322 
L 691 4666 
z
" transform="scale(0.015625)"/>
       </defs>
       <use xlink:href="#DejaVuSans-35"/>
       <use xlink:href="#DejaVuSans-30" transform="translate(63.623047 0)"/>
      </g>
     </g>
    </g>
    <g id="ytick_2">
     <g id="line2d_9">
      <g>
       <use xlink:href="#mf835a70d76" x="47.1875" y="211.254459" style="stroke: #000000; stroke-width: 0.8"/>
      </g>
     </g>
     <g id="text_10">
      <!-- 100 -->
      <g transform="translate(21.1 215.053678) scale(0.1 -0.1)">
       <use xlink:href="#DejaVuSans-31"/>
       <use xlink:href="#DejaVuSans-30" transform="translate(63.623047 0)"/>
       <use xlink:href="#DejaVuSans-30" transform="translate(127.246094 0)"/>
      </g>
     </g>
    </g>
    <g id="ytick_3">
     <g id="line2d_10">
      <g>
       <use xlink:href="#mf835a70d76" x="47.1875" y="149.296066" style="stroke: #000000; stroke-width: 0.8"/>
      </g>
     </g>
     <g id="text_11">
      <!-- 150 -->
      <g transform="translate(21.1 153.095284) scale(0.1 -0.1)">
       <use xlink:href="#DejaVuSans-31"/>
       <use xlink:href="#DejaVuSans-35" transform="translate(63.623047 0)"/>
       <use xlink:href="#DejaVuSans-30" transform="translate(127.246094 0)"/>
      </g>
     </g>
    </g>
    <g id="ytick_4">
     <g id="line2d_11">
      <g>
       <use xlink:href="#mf835a70d76" x="47.1875" y="87.337672" style="stroke: #000000; stroke-width: 0.8"/>
      </g>
     </g>
     <g id="text_12">
      <!-- 200 -->
      <g transform="translate(21.1 91.136891) scale(0.1 -0.1)">
       <use xlink:href="#DejaVuSans-32"/>
       <use xlink:href="#DejaVuSans-30" transform="translate(63.623047 0)"/>
       <use xlink:href="#DejaVuSans-30" transform="translate(127.246094 0)"/>
      </g>
     </g>
    </g>
    <g id="ytick_5">
     <g id="line2d_12">
      <g>
       <use xlink:href="#mf835a70d76" x="47.1875" y="25.379279" style="stroke: #000000; stroke-width: 0.8"/>
      </g>
     </g>
     <g id="text_13">
      <!-- 250 -->
      <g transform="translate(21.1 29.178498) scale(0.1 -0.1)">
       <use xlink:href="#DejaVuSans-32"/>
       <use xlink:href="#DejaVuSans-35" transform="translate(63.623047 0)"/>
       <use xlink:href="#DejaVuSans-30" transform="translate(127.246094 0)"/>
      </g>
     </g>
    </g>
    <g id="text_14">
     <!-- bp, $^o$C -->
     <g transform="translate(15 176.17) rotate(-90) scale(0.1 -0.1)">
      <defs>
       <path id="DejaVuSans-62" d="M 3116 1747 
Q 3116 2381 2855 2742 
Q 2594 3103 2138 3103 
Q 1681 3103 1420 2742 
Q 1159 2381 1159 1747 
Q 1159 1113 1420 752 
Q 1681 391 2138 391 
Q 2594 391 2855 752 
Q 3116 1113 3116 1747 
z
M 1159 2969 
Q 1341 3281 1617 3432 
Q 1894 3584 2278 3584 
Q 2916 3584 3314 3078 
Q 3713 2572 3713 1747 
Q 3713 922 3314 415 
Q 2916 -91 2278 -91 
Q 1894 -91 1617 61 
Q 1341 213 1159 525 
L 1159 0 
L 581 0 
L 581 4863 
L 1159 4863 
L 1159 2969 
z
" transform="scale(0.015625)"/>
       <path id="DejaVuSans-70" d="M 1159 525 
L 1159 -1331 
L 581 -1331 
L 581 3500 
L 1159 3500 
L 1159 2969 
Q 1341 3281 1617 3432 
Q 1894 3584 2278 3584 
Q 2916 3584 3314 3078 
Q 3713 2572 3713 1747 
Q 3713 922 3314 415 
Q 2916 -91 2278 -91 
Q 1894 -91 1617 61 
Q 1341 213 1159 525 
z
M 3116 1747 
Q 3116 2381 2855 2742 
Q 2594 3103 2138 3103 
Q 1681 3103 1420 2742 
Q 1159 2381 1159 1747 
Q 1159 1113 1420 752 
Q 1681 391 2138 391 
Q 2594 391 2855 752 
Q 3116 1113 3116 1747 
z
" transform="scale(0.015625)"/>
       <path id="DejaVuSans-Oblique-6f" d="M 1625 -91 
Q 1009 -91 651 289 
Q 294 669 294 1325 
Q 294 1706 417 2101 
Q 541 2497 738 2766 
Q 1047 3184 1428 3384 
Q 1809 3584 2291 3584 
Q 2888 3584 3255 3212 
Q 3622 2841 3622 2241 
Q 3622 1825 3500 1412 
Q 3378 1000 3181 728 
Q 2875 309 2494 109 
Q 2113 -91 1625 -91 
z
M 891 1344 
Q 891 869 1089 633 
Q 1288 397 1691 397 
Q 2269 397 2648 901 
Q 3028 1406 3028 2181 
Q 3028 2634 2825 2865 
Q 2622 3097 2228 3097 
Q 1903 3097 1650 2945 
Q 1397 2794 1197 2484 
Q 1050 2253 970 1956 
Q 891 1659 891 1344 
z
" transform="scale(0.015625)"/>
       <path id="DejaVuSans-43" d="M 4122 4306 
L 4122 3641 
Q 3803 3938 3442 4084 
Q 3081 4231 2675 4231 
Q 1875 4231 1450 3742 
Q 1025 3253 1025 2328 
Q 1025 1406 1450 917 
Q 1875 428 2675 428 
Q 3081 428 3442 575 
Q 3803 722 4122 1019 
L 4122 359 
Q 3791 134 3420 21 
Q 3050 -91 2638 -91 
Q 1578 -91 968 557 
Q 359 1206 359 2328 
Q 359 3453 968 4101 
Q 1578 4750 2638 4750 
Q 3056 4750 3426 4639 
Q 3797 4528 4122 4306 
z
" transform="scale(0.015625)"/>
      </defs>
      <use xlink:href="#DejaVuSans-62" transform="translate(0 0.51875)"/>
      <use xlink:href="#DejaVuSans-70" transform="translate(63.476562 0.51875)"/>
      <use xlink:href="#DejaVuSans-2c" transform="translate(126.953125 0.51875)"/>
      <use xlink:href="#DejaVuSans-20" transform="translate(158.740234 0.51875)"/>
      <use xlink:href="#DejaVuSans-Oblique-6f" transform="translate(191.484375 38.8) scale(0.7)"/>
      <use xlink:href="#DejaVuSans-43" transform="translate(237.045898 0.51875)"/>
     </g>
    </g>
   </g>
   <g id="line2d_13">
    <path d="M 60.581283 265.146418 
L 63.051146 262.90925 
L 65.52101 260.672082 
L 67.990873 258.434915 
L 70.460736 256.197747 
L 72.930599 253.96058 
L 75.400462 251.723412 
L 77.870325 249.486244 
L 80.340188 247.249077 
L 82.810051 245.011909 
L 85.279914 242.774741 
L 87.749777 240.537574 
L 90.21964 238.300406 
L 92.689503 236.063239 
L 95.159367 233.826071 
L 97.62923 231.588903 
L 100.099093 229.351736 
L 102.568956 227.114568 
L 105.038819 224.877401 
L 107.508682 222.640233 
L 109.978545 220.403065 
L 112.448408 218.165898 
L 114.918271 215.92873 
L 117.388134 213.691563 
L 119.857997 211.454395 
L 122.32786 209.217227 
L 124.797724 206.98006 
L 127.267587 204.742892 
L 129.73745 202.505724 
L 132.207313 200.268557 
L 134.677176 198.031389 
L 137.147039 195.794222 
L 139.616902 193.557054 
L 142.086765 191.319886 
L 144.556628 189.082719 
L 147.026491 186.845551 
L 149.496354 184.608384 
L 151.966217 182.371216 
L 154.436081 180.134048 
L 156.905944 177.896881 
L 159.375807 175.659713 
L 161.84567 173.422546 
L 164.315533 171.185378 
L 166.785396 168.94821 
L 169.255259 166.711043 
L 171.725122 164.473875 
L 174.194985 162.236708 
L 176.664848 159.99954 
L 179.134711 157.762372 
L 181.604574 155.525205 
L 184.074437 153.288037 
L 186.544301 151.050869 
L 189.014164 148.813702 
L 191.484027 146.576534 
L 193.95389 144.339367 
L 196.423753 142.102199 
L 198.893616 139.865031 
L 201.363479 137.627864 
L 203.833342 135.390696 
L 206.303205 133.153529 
L 208.773068 130.916361 
L 211.242931 128.679193 
L 213.712794 126.442026 
L 216.182658 124.204858 
L 218.652521 121.967691 
L 221.122384 119.730523 
L 223.592247 117.493355 
L 226.06211 115.256188 
L 228.531973 113.01902 
L 231.001836 110.781852 
L 233.471699 108.544685 
L 235.941562 106.307517 
L 238.411425 104.07035 
L 240.881288 101.833182 
L 243.351151 99.596014 
L 245.821015 97.358847 
L 248.290878 95.121679 
L 250.760741 92.884512 
L 253.230604 90.647344 
L 255.700467 88.410176 
L 258.17033 86.173009 
L 260.640193 83.935841 
L 263.110056 81.698674 
L 265.579919 79.461506 
L 268.049782 77.224338 
L 270.519645 74.987171 
L 272.989508 72.750003 
L 275.459371 70.512836 
L 277.929235 68.275668 
L 280.399098 66.0385 
L 282.868961 63.801333 
L 285.338824 61.564165 
L 287.808687 59.326997 
L 290.27855 57.08983 
L 292.748413 54.852662 
L 295.218276 52.615495 
L 297.688139 50.378327 
L 300.158002 48.141159 
L 302.627865 45.903992 
L 305.097728 43.666824 
" clip-path="url(#p0dcdb53487)" style="fill: none; stroke: #1f77b4; stroke-width: 2.25; stroke-linecap: square"/>
   </g>
   <g id="line2d_14">
    <path d="M 138.271038 289.281056 
L 140.192108 286.937095 
L 142.113178 284.593134 
L 144.034247 282.249173 
L 145.955317 279.905211 
L 147.876387 277.56125 
L 149.797457 275.217289 
L 151.718527 272.873328 
L 153.639597 270.529366 
L 155.560666 268.185405 
L 157.481736 265.841444 
L 159.402806 263.497483 
L 161.323876 261.153521 
L 163.244946 258.80956 
L 165.166016 256.465599 
L 167.087085 254.121638 
L 169.008155 251.777676 
L 170.929225 249.433715 
L 172.850295 247.089754 
L 174.771365 244.745793 
L 176.692435 242.401831 
L 178.613504 240.05787 
L 180.534574 237.713909 
L 182.455644 235.369948 
L 184.376714 233.025987 
L 186.297784 230.682025 
L 188.218854 228.338064 
L 190.139923 225.994103 
L 192.060993 223.650142 
L 193.982063 221.30618 
L 195.903133 218.962219 
L 197.824203 216.618258 
L 199.745273 214.274297 
L 201.666342 211.930335 
L 203.587412 209.586374 
L 205.508482 207.242413 
L 207.429552 204.898452 
L 209.350622 202.55449 
L 211.271692 200.210529 
L 213.192761 197.866568 
L 215.113831 195.522607 
L 217.034901 193.178645 
L 218.955971 190.834684 
L 220.877041 188.490723 
L 222.798111 186.146762 
L 224.719181 183.8028 
L 226.64025 181.458839 
L 228.56132 179.114878 
L 230.48239 176.770917 
L 232.40346 174.426955 
L 234.32453 172.082994 
L 236.2456 169.739033 
L 238.166669 167.395072 
L 240.087739 165.05111 
L 242.008809 162.707149 
L 243.929879 160.363188 
L 245.850949 158.019227 
L 247.772019 155.675265 
L 249.693088 153.331304 
L 251.614158 150.987343 
L 253.535228 148.643382 
L 255.456298 146.29942 
L 257.377368 143.955459 
L 259.298438 141.611498 
L 261.219507 139.267537 
L 263.140577 136.923576 
L 265.061647 134.579614 
L 266.982717 132.235653 
L 268.903787 129.891692 
L 270.824857 127.547731 
L 272.745926 125.203769 
L 274.666996 122.859808 
L 276.588066 120.515847 
L 278.509136 118.171886 
L 280.430206 115.827924 
L 282.351276 113.483963 
L 284.272345 111.140002 
L 286.193415 108.796041 
L 288.114485 106.452079 
L 290.035555 104.108118 
L 291.956625 101.764157 
L 293.877695 99.420196 
L 295.798764 97.076234 
L 297.719834 94.732273 
L 299.640904 92.388312 
L 301.561974 90.044351 
L 303.483044 87.700389 
L 305.404114 85.356428 
L 307.325183 83.012467 
L 309.246253 80.668506 
L 311.167323 78.324544 
L 313.088393 75.980583 
L 315.009463 73.636622 
L 316.930533 71.292661 
L 318.851602 68.948699 
L 320.772672 66.604738 
L 322.693742 64.260777 
L 324.614812 61.916816 
L 326.535882 59.572854 
L 328.456952 57.228893 
" clip-path="url(#p0dcdb53487)" style="fill: none; stroke: #ff7f0e; stroke-width: 2.25; stroke-linecap: square"/>
   </g>
   <g id="patch_3">
    <path d="M 47.1875 314.44 
L 47.1875 7.2 
" style="fill: none; stroke: #000000; stroke-width: 0.8; stroke-linejoin: miter; stroke-linecap: square"/>
   </g>
   <g id="patch_4">
    <path d="M 47.1875 314.44 
L 341.850735 314.44 
" style="fill: none; stroke: #000000; stroke-width: 0.8; stroke-linejoin: miter; stroke-linecap: square"/>
   </g>
  </g>
  <g id="legend_1">
   <g id="text_15">
    <!-- type -->
    <g transform="translate(368.139716 164.079375) scale(0.1 -0.1)">
     <defs>
      <path id="DejaVuSans-74" d="M 1172 4494 
L 1172 3500 
L 2356 3500 
L 2356 3053 
L 1172 3053 
L 1172 1153 
Q 1172 725 1289 603 
Q 1406 481 1766 481 
L 2356 481 
L 2356 0 
L 1766 0 
Q 1100 0 847 248 
Q 594 497 594 1153 
L 594 3053 
L 172 3053 
L 172 3500 
L 594 3500 
L 594 4494 
L 1172 4494 
z
" transform="scale(0.015625)"/>
      <path id="DejaVuSans-79" d="M 2059 -325 
Q 1816 -950 1584 -1140 
Q 1353 -1331 966 -1331 
L 506 -1331 
L 506 -850 
L 844 -850 
Q 1081 -850 1212 -737 
Q 1344 -625 1503 -206 
L 1606 56 
L 191 3500 
L 800 3500 
L 1894 763 
L 2988 3500 
L 3597 3500 
L 2059 -325 
z
" transform="scale(0.015625)"/>
      <path id="DejaVuSans-65" d="M 3597 1894 
L 3597 1613 
L 953 1613 
Q 991 1019 1311 708 
Q 1631 397 2203 397 
Q 2534 397 2845 478 
Q 3156 559 3463 722 
L 3463 178 
Q 3153 47 2828 -22 
Q 2503 -91 2169 -91 
Q 1331 -91 842 396 
Q 353 884 353 1716 
Q 353 2575 817 3079 
Q 1281 3584 2069 3584 
Q 2775 3584 3186 3129 
Q 3597 2675 3597 1894 
z
M 3022 2063 
Q 3016 2534 2758 2815 
Q 2500 3097 2075 3097 
Q 1594 3097 1305 2825 
Q 1016 2553 972 2059 
L 3022 2063 
z
" transform="scale(0.015625)"/>
     </defs>
     <use xlink:href="#DejaVuSans-74"/>
     <use xlink:href="#DejaVuSans-79" transform="translate(39.208984 0)"/>
     <use xlink:href="#DejaVuSans-70" transform="translate(98.388672 0)"/>
     <use xlink:href="#DejaVuSans-65" transform="translate(161.865234 0)"/>
    </g>
   </g>
   <g id="PathCollection_3">
    <g>
     <use xlink:href="#me052f01985" x="357.431122" y="176.1325" style="fill: #1f77b4; fill-opacity: 0.8; stroke: #1f77b4; stroke-opacity: 0.8"/>
    </g>
   </g>
   <g id="text_16">
    <!-- alcohol -->
    <g transform="translate(375.431122 178.7575) scale(0.1 -0.1)">
     <defs>
      <path id="DejaVuSans-61" d="M 2194 1759 
Q 1497 1759 1228 1600 
Q 959 1441 959 1056 
Q 959 750 1161 570 
Q 1363 391 1709 391 
Q 2188 391 2477 730 
Q 2766 1069 2766 1631 
L 2766 1759 
L 2194 1759 
z
M 3341 1997 
L 3341 0 
L 2766 0 
L 2766 531 
Q 2569 213 2275 61 
Q 1981 -91 1556 -91 
Q 1019 -91 701 211 
Q 384 513 384 1019 
Q 384 1609 779 1909 
Q 1175 2209 1959 2209 
L 2766 2209 
L 2766 2266 
Q 2766 2663 2505 2880 
Q 2244 3097 1772 3097 
Q 1472 3097 1187 3025 
Q 903 2953 641 2809 
L 641 3341 
Q 956 3463 1253 3523 
Q 1550 3584 1831 3584 
Q 2591 3584 2966 3190 
Q 3341 2797 3341 1997 
z
" transform="scale(0.015625)"/>
      <path id="DejaVuSans-63" d="M 3122 3366 
L 3122 2828 
Q 2878 2963 2633 3030 
Q 2388 3097 2138 3097 
Q 1578 3097 1268 2742 
Q 959 2388 959 1747 
Q 959 1106 1268 751 
Q 1578 397 2138 397 
Q 2388 397 2633 464 
Q 2878 531 3122 666 
L 3122 134 
Q 2881 22 2623 -34 
Q 2366 -91 2075 -91 
Q 1284 -91 818 406 
Q 353 903 353 1747 
Q 353 2603 823 3093 
Q 1294 3584 2113 3584 
Q 2378 3584 2631 3529 
Q 2884 3475 3122 3366 
z
" transform="scale(0.015625)"/>
      <path id="DejaVuSans-68" d="M 3513 2113 
L 3513 0 
L 2938 0 
L 2938 2094 
Q 2938 2591 2744 2837 
Q 2550 3084 2163 3084 
Q 1697 3084 1428 2787 
Q 1159 2491 1159 1978 
L 1159 0 
L 581 0 
L 581 4863 
L 1159 4863 
L 1159 2956 
Q 1366 3272 1645 3428 
Q 1925 3584 2291 3584 
Q 2894 3584 3203 3211 
Q 3513 2838 3513 2113 
z
" transform="scale(0.015625)"/>
     </defs>
     <use xlink:href="#DejaVuSans-61"/>
     <use xlink:href="#DejaVuSans-6c" transform="translate(61.279297 0)"/>
     <use xlink:href="#DejaVuSans-63" transform="translate(89.0625 0)"/>
     <use xlink:href="#DejaVuSans-6f" transform="translate(144.042969 0)"/>
     <use xlink:href="#DejaVuSans-68" transform="translate(205.224609 0)"/>
     <use xlink:href="#DejaVuSans-6f" transform="translate(268.603516 0)"/>
     <use xlink:href="#DejaVuSans-6c" transform="translate(329.785156 0)"/>
    </g>
   </g>
   <g id="PathCollection_4">
    <g>
     <use xlink:href="#m73bc78f8b7" x="357.431122" y="190.810625" style="fill: #ff7f0e; fill-opacity: 0.8; stroke: #ff7f0e; stroke-opacity: 0.8"/>
    </g>
   </g>
   <g id="text_17">
    <!-- alkane -->
    <g transform="translate(375.431122 193.435625) scale(0.1 -0.1)">
     <defs>
      <path id="DejaVuSans-6b" d="M 581 4863 
L 1159 4863 
L 1159 1991 
L 2875 3500 
L 3609 3500 
L 1753 1863 
L 3688 0 
L 2938 0 
L 1159 1709 
L 1159 0 
L 581 0 
L 581 4863 
z
" transform="scale(0.015625)"/>
      <path id="DejaVuSans-6e" d="M 3513 2113 
L 3513 0 
L 2938 0 
L 2938 2094 
Q 2938 2591 2744 2837 
Q 2550 3084 2163 3084 
Q 1697 3084 1428 2787 
Q 1159 2491 1159 1978 
L 1159 0 
L 581 0 
L 581 3500 
L 1159 3500 
L 1159 2956 
Q 1366 3272 1645 3428 
Q 1925 3584 2291 3584 
Q 2894 3584 3203 3211 
Q 3513 2838 3513 2113 
z
" transform="scale(0.015625)"/>
     </defs>
     <use xlink:href="#DejaVuSans-61"/>
     <use xlink:href="#DejaVuSans-6c" transform="translate(61.279297 0)"/>
     <use xlink:href="#DejaVuSans-6b" transform="translate(89.0625 0)"/>
     <use xlink:href="#DejaVuSans-61" transform="translate(145.222656 0)"/>
     <use xlink:href="#DejaVuSans-6e" transform="translate(206.501953 0)"/>
     <use xlink:href="#DejaVuSans-65" transform="translate(269.880859 0)"/>
    </g>
   </g>
  </g>
 </g>
 <defs>
  <clipPath id="p0dcdb53487">
   <rect x="47.1875" y="7.2" width="294.663235" height="307.24"/>
  </clipPath>
 </defs>
</svg>