<?xml version="1.0" encoding="utf-8" standalone="no"?>
<!DOCTYPE svg PUBLIC "-//W3C//DTD SVG 1.1//EN"
  "http://www.w3.org/Graphics/SVG/1.1/DTD/svg11.dtd">
<svg xmlns:xlink="http://www.w3.org/1999/xlink" width="391.245pt" height="297.190125pt" viewBox="0 0 391.245 297.190125" xmlns="http://www.w3.org/2000/svg" version="1.1">
 <metadata>
  <rdf:RDF xmlns:dc="http://purl.org/dc/elements/1.1/" xmlns:cc="http://creativecommons.org/ns#" xmlns:rdf="http://www.w3.org/1999/02/22-rdf-syntax-ns#">
   <cc:Work>
    <dc:type rdf:resource="http://purl.org/dc/dcmitype/StillImage"/>
    <dc:date>2025-12-28T13:56:07.428924</dc:date>
    <dc:format>image/svg+xml</dc:format>
    <dc:creator>
     <cc:Agent>
      <dc:title>Matplotlib v3.10.3, https://matplotlib.org/</dc:title>
     </cc:Agent>
    </dc:creator>
   </cc:Work>
  </rdf:RDF>
 </metadata>
 <defs>
  <style type="text/css">*{stroke-linejoin: round; stroke-linecap: butt}</style>
 </defs>
 <g id="figure_1">
  <g id="patch_1">
   <path d="M 0 297.190125 
L 391.245 297.190125 
L 391.245 0 
L 0 0 
z
" style="fill: #ffffff"/>
  </g>
  <g id="axes_1">
   <g id="patch_2">
    <path d="M 26.925 273.312 
L 384.045 273.312 
L 384.045 7.2 
L 26.925 7.2 
z
" style="fill: #ffffff"/>
   </g>
   <g id="PathCollection_1">
    <defs>
     <path id="m82de1300c2" d="M 0 3 
C 0.795609 3 1.55874 2.683901 2.12132 2.12132 
C 2.683901 1.55874 3 0.795609 3 0 
C 3 -0.795609 2.683901 -1.55874 2.12132 -2.12132 
C 1.55874 -2.683901 0.795609 -3 0 -3 
C -0.795609 -3 -1.55874 -2.683901 -2.12132 -2.12132 
C -2.683901 -1.55874 -3 -0.795609 -3 0 
C -3 0.795609 -2.683901 1.55874 -2.12132 2.12132 
C -1.55874 2.683901 -0.795609 3 0 3 
z
" style="stroke: #1f77b4; stroke-opacity: 0.8"/>
    </defs>
    <g clip-path="url(#pe4b598870f)">
     <use xlink:href="#m82de1300c2" x="43.157727" y="246.359294" style="fill: #1f77b4; fill-opacity: 0.8; stroke: #1f77b4; stroke-opacity: 0.8"/>
     <use xlink:href="#m82de1300c2" x="79.230455" y="232.455065" style="fill: #1f77b4; fill-opacity: 0.8; stroke: #1f77b4; stroke-opacity: 0.8"/>
     <use xlink:href="#m82de1300c2" x="115.303182" y="191.839872" style="fill: #1f77b4; fill-opacity: 0.8; stroke: #1f77b4; stroke-opacity: 0.8"/>
     <use xlink:href="#m82de1300c2" x="151.375909" y="189.508608" style="fill: #1f77b4; fill-opacity: 0.8; stroke: #1f77b4; stroke-opacity: 0.8"/>
     <use xlink:href="#m82de1300c2" x="187.448636" y="134.823194" style="fill: #1f77b4; fill-opacity: 0.8; stroke: #1f77b4; stroke-opacity: 0.8"/>
     <use xlink:href="#m82de1300c2" x="223.521364" y="125.104902" style="fill: #1f77b4; fill-opacity: 0.8; stroke: #1f77b4; stroke-opacity: 0.8"/>
     <use xlink:href="#m82de1300c2" x="259.594091" y="117.453399" style="fill: #1f77b4; fill-opacity: 0.8; stroke: #1f77b4; stroke-opacity: 0.8"/>
     <use xlink:href="#m82de1300c2" x="295.666818" y="86.171751" style="fill: #1f77b4; fill-opacity: 0.8; stroke: #1f77b4; stroke-opacity: 0.8"/>
     <use xlink:href="#m82de1300c2" x="331.739545" y="53.701795" style="fill: #1f77b4; fill-opacity: 0.8; stroke: #1f77b4; stroke-opacity: 0.8"/>
     <use xlink:href="#m82de1300c2" x="367.812273" y="19.296" style="fill: #1f77b4; fill-opacity: 0.8; stroke: #1f77b4; stroke-opacity: 0.8"/>
    </g>
   </g>
   <g id="FillBetweenPolyCollection_1">
    <path d="M 43.157727 237.662853 
L 43.157727 261.216 
L 46.437066 258.884633 
L 49.716405 256.553267 
L 52.995744 254.175077 
L 56.275083 251.752847 
L 59.554421 249.357458 
L 62.83376 247.013422 
L 66.113099 244.669387 
L 69.392438 242.260377 
L 72.671777 239.894961 
L 75.951116 237.542015 
L 79.230455 235.176284 
L 82.509793 232.874661 
L 85.789132 230.534725 
L 89.068471 228.165158 
L 92.34781 225.773468 
L 95.627149 223.428358 
L 98.906488 221.094904 
L 102.185826 218.760234 
L 105.465165 216.381736 
L 108.744504 213.98928 
L 112.023843 211.596823 
L 115.303182 209.271906 
L 118.582521 206.965725 
L 121.86186 204.659543 
L 125.141198 202.353362 
L 128.420537 200.04718 
L 131.699876 197.740998 
L 134.979215 195.428476 
L 138.258554 193.092611 
L 141.537893 190.752685 
L 144.817231 188.399047 
L 148.09657 185.984253 
L 151.375909 183.725322 
L 154.655248 181.392445 
L 157.934587 179.052107 
L 161.213926 176.7121 
L 164.493264 174.328875 
L 167.772603 171.938384 
L 171.051942 169.691582 
L 174.331281 167.394009 
L 177.61062 165.256163 
L 180.889959 162.969103 
L 184.169298 160.558361 
L 187.448636 158.299733 
L 190.727975 156.014378 
L 194.007314 153.925073 
L 197.286653 151.643387 
L 200.565992 149.400604 
L 203.845331 147.207548 
L 207.124669 145.081192 
L 210.404008 142.914441 
L 213.683347 140.624673 
L 216.962686 138.426521 
L 220.242025 136.243917 
L 223.521364 134.118387 
L 226.800702 131.930009 
L 230.080041 129.798813 
L 233.35938 127.630133 
L 236.638719 125.507811 
L 239.918058 123.355406 
L 243.197397 121.203 
L 246.476736 119.049915 
L 249.756074 116.895426 
L 253.035413 114.620146 
L 256.314752 112.447602 
L 259.594091 110.385358 
L 262.87343 108.248036 
L 266.152769 106.143951 
L 269.432107 104.053283 
L 272.711446 101.969977 
L 275.990785 99.969905 
L 279.270124 97.943637 
L 282.549463 95.712332 
L 285.828802 93.58184 
L 289.10814 91.462462 
L 292.387479 89.363212 
L 295.666818 87.263962 
L 298.946157 85.164712 
L 302.225496 83.116082 
L 305.504835 81.036589 
L 308.784174 78.972915 
L 312.063512 76.907963 
L 315.342851 74.844773 
L 318.62219 72.745798 
L 321.901529 70.738113 
L 325.180868 68.770988 
L 328.460207 66.81964 
L 331.739545 64.860403 
L 335.018884 62.901167 
L 338.298223 60.918843 
L 341.577562 58.821674 
L 344.856901 56.724506 
L 348.13624 54.62611 
L 351.415579 52.549868 
L 354.694917 50.550816 
L 357.974256 48.592475 
L 361.253595 46.537669 
L 364.532934 44.428655 
L 367.812273 42.397694 
L 367.812273 20.389217 
L 367.812273 20.389217 
L 364.532934 22.681104 
L 361.253595 25.087521 
L 357.974256 27.477729 
L 354.694917 29.745914 
L 351.415579 32.0141 
L 348.13624 34.282286 
L 344.856901 36.550769 
L 341.577562 38.82007 
L 338.298223 41.160837 
L 335.018884 43.502009 
L 331.739545 45.84443 
L 328.460207 48.182555 
L 325.180868 50.506513 
L 321.901529 52.763781 
L 318.62219 55.022021 
L 315.342851 57.293322 
L 312.063512 59.607428 
L 308.784174 61.974379 
L 305.504835 64.370413 
L 302.225496 66.754724 
L 298.946157 69.041114 
L 295.666818 71.322855 
L 292.387479 73.590813 
L 289.10814 75.901537 
L 285.828802 78.186733 
L 282.549463 80.473064 
L 279.270124 82.753459 
L 275.990785 85.044886 
L 272.711446 87.309574 
L 269.432107 89.613793 
L 266.152769 91.898246 
L 262.87343 94.094654 
L 259.594091 96.320305 
L 256.314752 98.622448 
L 253.035413 100.922744 
L 249.756074 103.144491 
L 246.476736 105.327689 
L 243.197397 107.529229 
L 239.918058 109.657779 
L 236.638719 111.956595 
L 233.35938 114.234011 
L 230.080041 116.348479 
L 226.800702 118.472866 
L 223.521364 120.738714 
L 220.242025 122.871241 
L 216.962686 125.276446 
L 213.683347 127.513061 
L 210.404008 129.625892 
L 207.124669 131.875584 
L 203.845331 134.154936 
L 200.565992 136.340384 
L 197.286653 138.535475 
L 194.007314 140.74671 
L 190.727975 142.953944 
L 187.448636 145.07159 
L 184.169298 147.285823 
L 180.889959 149.470013 
L 177.61062 151.807346 
L 174.331281 154.003823 
L 171.051942 156.150478 
L 167.772603 158.297134 
L 164.493264 160.443789 
L 161.213926 162.584713 
L 157.934587 164.737099 
L 154.655248 166.883754 
L 151.375909 169.013881 
L 148.09657 171.05726 
L 144.817231 173.184374 
L 141.537893 175.260227 
L 138.258554 177.392582 
L 134.979215 179.560893 
L 131.699876 181.72769 
L 128.420537 183.893626 
L 125.141198 186.061473 
L 121.86186 188.229321 
L 118.582521 190.397169 
L 115.303182 192.565017 
L 112.023843 194.732865 
L 108.744504 196.823575 
L 105.465165 198.831449 
L 102.185826 200.839322 
L 98.906488 202.973893 
L 95.627149 205.107255 
L 92.34781 207.150327 
L 89.068471 209.099314 
L 85.789132 211.052038 
L 82.509793 213.245863 
L 79.230455 215.508098 
L 75.951116 217.574789 
L 72.671777 219.629681 
L 69.392438 221.601536 
L 66.113099 223.56325 
L 62.83376 225.526395 
L 59.554421 227.489539 
L 56.275083 229.452683 
L 52.995744 231.415827 
L 49.716405 233.45266 
L 46.437066 235.55739 
L 43.157727 237.662853 
z
" clip-path="url(#pe4b598870f)" style="fill: #1f77b4; fill-opacity: 0.15"/>
   </g>
   <g id="matplotlib.axis_1">
    <g id="xtick_1">
     <g id="line2d_1">
      <defs>
       <path id="m4fcbb903a0" d="M 0 0 
L 0 3.5 
" style="stroke: #000000; stroke-width: 0.8"/>
      </defs>
      <g>
       <use xlink:href="#m4fcbb903a0" x="43.157727" y="273.312" style="stroke: #000000; stroke-width: 0.8"/>
      </g>
     </g>
     <g id="text_1">
      <!-- 0 -->
      <g transform="translate(39.976477 287.910437) scale(0.1 -0.1)">
       <defs>
        <path id="DejaVuSans-30" d="M 2034 4250 
Q 1547 4250 1301 3770 
Q 1056 3291 1056 2328 
Q 1056 1369 1301 889 
Q 1547 409 2034 409 
Q 2525 409 2770 889 
Q 3016 1369 3016 2328 
Q 3016 3291 2770 3770 
Q 2525 4250 2034 4250 
z
M 2034 4750 
Q 2819 4750 3233 4129 
Q 3647 3509 3647 2328 
Q 3647 1150 3233 529 
Q 2819 -91 2034 -91 
Q 1250 -91 836 529 
Q 422 1150 422 2328 
Q 422 3509 836 4129 
Q 1250 4750 2034 4750 
z
" transform="scale(0.015625)"/>
       </defs>
       <use xlink:href="#DejaVuSans-30"/>
      </g>
     </g>
    </g>
    <g id="xtick_2">
     <g id="line2d_2">
      <g>
       <use xlink:href="#m4fcbb903a0" x="115.303182" y="273.312" style="stroke: #000000; stroke-width: 0.8"/>
      </g>
     </g>
     <g id="text_2">
      <!-- 2 -->
      <g transform="translate(112.121932 287.910437) scale(0.1 -0.1)">
       <defs>
        <path id="DejaVuSans-32" d="M 1228 531 
L 3431 531 
L 3431 0 
L 469 0 
L 469 531 
Q 828 903 1448 1529 
Q 2069 2156 2228 2338 
Q 2531 2678 2651 2914 
Q 2772 3150 2772 3378 
Q 2772 3750 2511 3984 
Q 2250 4219 1831 4219 
Q 1534 4219 1204 4116 
Q 875 4013 500 3803 
L 500 4441 
Q 881 4594 1212 4672 
Q 1544 4750 1819 4750 
Q 2544 4750 2975 4387 
Q 3406 4025 3406 3419 
Q 3406 3131 3298 2873 
Q 3191 2616 2906 2266 
Q 2828 2175 2409 1742 
Q 1991 1309 1228 531 
z
" transform="scale(0.015625)"/>
       </defs>
       <use xlink:href="#DejaVuSans-32"/>
      </g>
     </g>
    </g>
    <g id="xtick_3">
     <g id="line2d_3">
      <g>
       <use xlink:href="#m4fcbb903a0" x="187.448636" y="273.312" style="stroke: #000000; stroke-width: 0.8"/>
      </g>
     </g>
     <g id="text_3">
      <!-- 4 -->
      <g transform="translate(184.267386 287.910437) scale(0.1 -0.1)">
       <defs>
        <path id="DejaVuSans-34" d="M 2419 4116 
L 825 1625 
L 2419 1625 
L 2419 4116 
z
M 2253 4666 
L 3047 4666 
L 3047 1625 
L 3713 1625 
L 3713 1100 
L 3047 1100 
L 3047 0 
L 2419 0 
L 2419 1100 
L 313 1100 
L 313 1709 
L 2253 4666 
z
" transform="scale(0.015625)"/>
       </defs>
       <use xlink:href="#DejaVuSans-34"/>
      </g>
     </g>
    </g>
    <g id="xtick_4">
     <g id="line2d_4">
      <g>
       <use xlink:href="#m4fcbb903a0" x="259.594091" y="273.312" style="stroke: #000000; stroke-width: 0.8"/>
      </g>
     </g>
     <g id="text_4">
      <!-- 6 -->
      <g transform="translate(256.412841 287.910437) scale(0.1 -0.1)">
       <defs>
        <path id="DejaVuSans-36" d="M 2113 2584 
Q 1688 2584 1439 2293 
Q 1191 2003 1191 1497 
Q 1191 994 1439 701 
Q 1688 409 2113 409 
Q 2538 409 2786 701 
Q 3034 994 3034 1497 
Q 3034 2003 2786 2293 
Q 2538 2584 2113 2584 
z
M 3366 4563 
L 3366 3988 
Q 3128 4100 2886 4159 
Q 2644 4219 2406 4219 
Q 1781 4219 1451 3797 
Q 1122 3375 1075 2522 
Q 1259 2794 1537 2939 
Q 1816 3084 2150 3084 
Q 2853 3084 3261 2657 
Q 3669 2231 3669 1497 
Q 3669 778 3244 343 
Q 2819 -91 2113 -91 
Q 1303 -91 875 529 
Q 447 1150 447 2328 
Q 447 3434 972 4092 
Q 1497 4750 2381 4750 
Q 2619 4750 2861 4703 
Q 3103 4656 3366 4563 
z
" transform="scale(0.015625)"/>
       </defs>
       <use xlink:href="#DejaVuSans-36"/>
      </g>
     </g>
    </g>
    <g id="xtick_5">
     <g id="line2d_5">
      <g>
       <use xlink:href="#m4fcbb903a0" x="331.739545" y="273.312" style="stroke: #000000; stroke-width: 0.8"/>
      </g>
     </g>
     <g id="text_5">
      <!-- 8 -->
      <g transform="translate(328.558295 287.910437) scale(0.1 -0.1)">
       <defs>
        <path id="DejaVuSans-38" d="M 2034 2216 
Q 1584 2216 1326 1975 
Q 1069 1734 1069 1313 
Q 1069 891 1326 650 
Q 1584 409 2034 409 
Q 2484 409 2743 651 
Q 3003 894 3003 1313 
Q 3003 1734 2745 1975 
Q 2488 2216 2034 2216 
z
M 1403 2484 
Q 997 2584 770 2862 
Q 544 3141 544 3541 
Q 544 4100 942 4425 
Q 1341 4750 2034 4750 
Q 2731 4750 3128 4425 
Q 3525 4100 3525 3541 
Q 3525 3141 3298 2862 
Q 3072 2584 2669 2484 
Q 3125 2378 3379 2068 
Q 3634 1759 3634 1313 
Q 3634 634 3220 271 
Q 2806 -91 2034 -91 
Q 1263 -91 848 271 
Q 434 634 434 1313 
Q 434 1759 690 2068 
Q 947 2378 1403 2484 
z
M 1172 3481 
Q 1172 3119 1398 2916 
Q 1625 2713 2034 2713 
Q 2441 2713 2670 2916 
Q 2900 3119 2900 3481 
Q 2900 3844 2670 4047 
Q 2441 4250 2034 4250 
Q 1625 4250 1398 4047 
Q 1172 3844 1172 3481 
z
" transform="scale(0.015625)"/>
       </defs>
       <use xlink:href="#DejaVuSans-38"/>
      </g>
     </g>
    </g>
   </g>
   <g id="matplotlib.axis_2">
    <g id="ytick_1">
     <g id="line2d_6">
      <defs>
       <path id="m21eb6ed007" d="M 0 0 
L -3.5 0 
" style="stroke: #000000; stroke-width: 0.8"/>
      </defs>
      <g>
       <use xlink:href="#m21eb6ed007" x="26.925" y="241.74314" style="stroke: #000000; stroke-width: 0.8"/>
      </g>
     </g>
     <g id="text_6">
      <!-- 0 -->
      <g transform="translate(13.5625 245.542359) scale(0.1 -0.1)">
       <use xlink:href="#DejaVuSans-30"/>
      </g>
     </g>
    </g>
    <g id="ytick_2">
     <g id="line2d_7">
      <g>
       <use xlink:href="#m21eb6ed007" x="26.925" y="188.357457" style="stroke: #000000; stroke-width: 0.8"/>
      </g>
     </g>
     <g id="text_7">
      <!-- 5 -->
      <g transform="translate(13.5625 192.156675) scale(0.1 -0.1)">
       <defs>
        <path id="DejaVuSans-35" d="M 691 4666 
L 3169 4666 
L 3169 4134 
L 1269 4134 
L 1269 2991 
Q 1406 3038 1543 3061 
Q 1681 3084 1819 3084 
Q 2600 3084 3056 2656 
Q 3513 2228 3513 1497 
Q 3513 744 3044 326 
Q 2575 -91 1722 -91 
Q 1428 -91 1123 -41 
Q 819 9 494 109 
L 494 744 
Q 775 591 1075 516 
Q 1375 441 1709 441 
Q 2250 441 2565 725 
Q 2881 1009 2881 1497 
Q 2881 1984 2565 2268 
Q 2250 2553 1709 2553 
Q 1456 2553 1204 2497 
Q 953 2441 691 2322 
L 691 4666 
z
" transform="scale(0.015625)"/>
       </defs>
       <use xlink:href="#DejaVuSans-35"/>
      </g>
     </g>
    </g>
    <g id="ytick_3">
     <g id="line2d_8">
      <g>
       <use xlink:href="#m21eb6ed007" x="26.925" y="134.971773" style="stroke: #000000; stroke-width: 0.8"/>
      </g>
     </g>
     <g id="text_8">
      <!-- 10 -->
      <g transform="translate(7.2 138.770992) scale(0.1 -0.1)">
       <defs>
        <path id="DejaVuSans-31" d="M 794 531 
L 1825 531 
L 1825 4091 
L 703 3866 
L 703 4441 
L 1819 4666 
L 2450 4666 
L 2450 531 
L 3481 531 
L 3481 0 
L 794 0 
L 794 531 
z
" transform="scale(0.015625)"/>
       </defs>
       <use xlink:href="#DejaVuSans-31"/>
       <use xlink:href="#DejaVuSans-30" transform="translate(63.623047 0)"/>
      </g>
     </g>
    </g>
    <g id="ytick_4">
     <g id="line2d_9">
      <g>
       <use xlink:href="#m21eb6ed007" x="26.925" y="81.586089" style="stroke: #000000; stroke-width: 0.8"/>
      </g>
     </g>
     <g id="text_9">
      <!-- 15 -->
      <g transform="translate(7.2 85.385308) scale(0.1 -0.1)">
       <use xlink:href="#DejaVuSans-31"/>
       <use xlink:href="#DejaVuSans-35" transform="translate(63.623047 0)"/>
      </g>
     </g>
    </g>
    <g id="ytick_5">
     <g id="line2d_10">
      <g>
       <use xlink:href="#m21eb6ed007" x="26.925" y="28.200405" style="stroke: #000000; stroke-width: 0.8"/>
      </g>
     </g>
     <g id="text_10">
      <!-- 20 -->
      <g transform="translate(7.2 31.999624) scale(0.1 -0.1)">
       <use xlink:href="#DejaVuSans-32"/>
       <use xlink:href="#DejaVuSans-30" transform="translate(63.623047 0)"/>
      </g>
     </g>
    </g>
   </g>
   <g id="line2d_11">
    <path d="M 43.157727 250.10049 
L 46.437066 247.869599 
L 49.716405 245.638708 
L 52.995744 243.407817 
L 56.275083 241.176926 
L 59.554421 238.946035 
L 62.83376 236.715144 
L 66.113099 234.484253 
L 69.392438 232.253362 
L 72.671777 230.022471 
L 75.951116 227.79158 
L 79.230455 225.560689 
L 82.509793 223.329798 
L 85.789132 221.098907 
L 89.068471 218.868016 
L 92.34781 216.637125 
L 95.627149 214.406235 
L 98.906488 212.175344 
L 102.185826 209.944453 
L 105.465165 207.713562 
L 108.744504 205.482671 
L 112.023843 203.25178 
L 115.303182 201.020889 
L 118.582521 198.789998 
L 121.86186 196.559107 
L 125.141198 194.328216 
L 128.420537 192.097325 
L 131.699876 189.866434 
L 134.979215 187.635543 
L 138.258554 185.404652 
L 141.537893 183.173761 
L 144.817231 180.94287 
L 148.09657 178.71198 
L 151.375909 176.481089 
L 154.655248 174.250198 
L 157.934587 172.019307 
L 161.213926 169.788416 
L 164.493264 167.557525 
L 167.772603 165.326634 
L 171.051942 163.095743 
L 174.331281 160.864852 
L 177.61062 158.633961 
L 180.889959 156.40307 
L 184.169298 154.172179 
L 187.448636 151.941288 
L 190.727975 149.710397 
L 194.007314 147.479506 
L 197.286653 145.248615 
L 200.565992 143.017725 
L 203.845331 140.786834 
L 207.124669 138.555943 
L 210.404008 136.325052 
L 213.683347 134.094161 
L 216.962686 131.86327 
L 220.242025 129.632379 
L 223.521364 127.401488 
L 226.800702 125.170597 
L 230.080041 122.939706 
L 233.35938 120.708815 
L 236.638719 118.477924 
L 239.918058 116.247033 
L 243.197397 114.016142 
L 246.476736 111.785251 
L 249.756074 109.55436 
L 253.035413 107.323469 
L 256.314752 105.092579 
L 259.594091 102.861688 
L 262.87343 100.630797 
L 266.152769 98.399906 
L 269.432107 96.169015 
L 272.711446 93.938124 
L 275.990785 91.707233 
L 279.270124 89.476342 
L 282.549463 87.245451 
L 285.828802 85.01456 
L 289.10814 82.783669 
L 292.387479 80.552778 
L 295.666818 78.321887 
L 298.946157 76.090996 
L 302.225496 73.860105 
L 305.504835 71.629214 
L 308.784174 69.398324 
L 312.063512 67.167433 
L 315.342851 64.936542 
L 318.62219 62.705651 
L 321.901529 60.47476 
L 325.180868 58.243869 
L 328.460207 56.012978 
L 331.739545 53.782087 
L 335.018884 51.551196 
L 338.298223 49.320305 
L 341.577562 47.089414 
L 344.856901 44.858523 
L 348.13624 42.627632 
L 351.415579 40.396741 
L 354.694917 38.16585 
L 357.974256 35.934959 
L 361.253595 33.704069 
L 364.532934 31.473178 
L 367.812273 29.242287 
" clip-path="url(#pe4b598870f)" style="fill: none; stroke: #1f77b4; stroke-width: 2.25; stroke-linecap: square"/>
   </g>
   <g id="patch_3">
    <path d="M 26.925 273.312 
L 26.925 7.2 
" style="fill: none; stroke: #000000; stroke-width: 0.8; stroke-linejoin: miter; stroke-linecap: square"/>
   </g>
   <g id="patch_4">
    <path d="M 384.045 273.312 
L 384.045 7.2 
" style="fill: none; stroke: #000000; stroke-width: 0.8; stroke-linejoin: miter; stroke-linecap: square"/>
   </g>
   <g id="patch_5">
    <path d="M 26.925 273.312 
L 384.045 273.312 
" style="fill: none; stroke: #000000; stroke-width: 0.8; stroke-linejoin: miter; stroke-linecap: square"/>
   </g>
   <g id="patch_6">
    <path d="M 26.925 7.2 
L 384.045 7.2 
" style="fill: none; stroke: #000000; stroke-width: 0.8; stroke-linejoin: miter; stroke-linecap: square"/>
   </g>
  </g>
 </g>
 <defs>
  <clipPath id="pe4b598870f">
   <rect x="26.925" y="7.2" width="357.12" height="266.112"/>
  </clipPath>
 </defs>
</svg>