<?xml version="1.0" encoding="utf-8" standalone="no"?>
<!DOCTYPE svg PUBLIC "-//W3C//DTD SVG 1.1//EN"
  "http://www.w3.org/Graphics/SVG/1.1/DTD/svg11.dtd">
<svg xmlns:xlink="http://www.w3.org/1999/xlink" width="411.285625pt" height="311.390125pt" viewBox="0 0 411.285625 311.390125" xmlns="http://www.w3.org/2000/svg" version="1.1">
 <metadata>
  <rdf:RDF xmlns:dc="http://purl.org/dc/elements/1.1/" xmlns:cc="http://creativecommons.org/ns#" xmlns:rdf="http://www.w3.org/1999/02/22-rdf-syntax-ns#">
   <cc:Work>
    <dc:type rdf:resource="http://purl.org/dc/dcmitype/StillImage"/>
    <dc:date>2025-07-01T12:26:08.471058</dc:date>
    <dc:format>image/svg+xml</dc:format>
    <dc:creator>
     <cc:Agent>
      <dc:title>Matplotlib v3.10.3, https://matplotlib.org/</dc:title>
     </cc:Agent>
    </dc:creator>
   </cc:Work>
  </rdf:RDF>
 </metadata>
 <defs>
  <style type="text/css">*{stroke-linejoin: round; stroke-linecap: butt}</style>
 </defs>
 <g id="figure_1">
  <g id="patch_1">
   <path d="M 0 311.390125 
L 411.285625 311.390125 
L 411.285625 0 
L 0 0 
z
" style="fill: #ffffff"/>
  </g>
  <g id="axes_1">
   <g id="patch_2">
    <path d="M 46.965625 273.312 
L 404.085625 273.312 
L 404.085625 7.2 
L 46.965625 7.2 
z
" style="fill: #ffffff"/>
   </g>
   <g id="matplotlib.axis_1">
    <g id="xtick_1">
     <g id="line2d_1">
      <defs>
       <path id="m9142a1947e" d="M 0 0 
L 0 3.5 
" style="stroke: #000000; stroke-width: 0.8"/>
      </defs>
      <g>
       <use xlink:href="#m9142a1947e" x="362.071507" y="273.312" style="stroke: #000000; stroke-width: 0.8"/>
      </g>
     </g>
     <g id="text_1">
      <!-- 1000 -->
      <g transform="translate(349.346507 287.910437) scale(0.1 -0.1)">
       <defs>
        <path id="DejaVuSans-31" d="M 794 531 
L 1825 531 
L 1825 4091 
L 703 3866 
L 703 4441 
L 1819 4666 
L 2450 4666 
L 2450 531 
L 3481 531 
L 3481 0 
L 794 0 
L 794 531 
z
" transform="scale(0.015625)"/>
        <path id="DejaVuSans-30" d="M 2034 4250 
Q 1547 4250 1301 3770 
Q 1056 3291 1056 2328 
Q 1056 1369 1301 889 
Q 1547 409 2034 409 
Q 2525 409 2770 889 
Q 3016 1369 3016 2328 
Q 3016 3291 2770 3770 
Q 2525 4250 2034 4250 
z
M 2034 4750 
Q 2819 4750 3233 4129 
Q 3647 3509 3647 2328 
Q 3647 1150 3233 529 
Q 2819 -91 2034 -91 
Q 1250 -91 836 529 
Q 422 1150 422 2328 
Q 422 3509 836 4129 
Q 1250 4750 2034 4750 
z
" transform="scale(0.015625)"/>
       </defs>
       <use xlink:href="#DejaVuSans-31"/>
       <use xlink:href="#DejaVuSans-30" transform="translate(63.623047 0)"/>
       <use xlink:href="#DejaVuSans-30" transform="translate(127.246094 0)"/>
       <use xlink:href="#DejaVuSans-30" transform="translate(190.869141 0)"/>
      </g>
     </g>
    </g>
    <g id="xtick_2">
     <g id="line2d_2">
      <g>
       <use xlink:href="#m9142a1947e" x="309.55386" y="273.312" style="stroke: #000000; stroke-width: 0.8"/>
      </g>
     </g>
     <g id="text_2">
      <!-- 1500 -->
      <g transform="translate(296.82886 287.910437) scale(0.1 -0.1)">
       <defs>
        <path id="DejaVuSans-35" d="M 691 4666 
L 3169 4666 
L 3169 4134 
L 1269 4134 
L 1269 2991 
Q 1406 3038 1543 3061 
Q 1681 3084 1819 3084 
Q 2600 3084 3056 2656 
Q 3513 2228 3513 1497 
Q 3513 744 3044 326 
Q 2575 -91 1722 -91 
Q 1428 -91 1123 -41 
Q 819 9 494 109 
L 494 744 
Q 775 591 1075 516 
Q 1375 441 1709 441 
Q 2250 441 2565 725 
Q 2881 1009 2881 1497 
Q 2881 1984 2565 2268 
Q 2250 2553 1709 2553 
Q 1456 2553 1204 2497 
Q 953 2441 691 2322 
L 691 4666 
z
" transform="scale(0.015625)"/>
       </defs>
       <use xlink:href="#DejaVuSans-31"/>
       <use xlink:href="#DejaVuSans-35" transform="translate(63.623047 0)"/>
       <use xlink:href="#DejaVuSans-30" transform="translate(127.246094 0)"/>
       <use xlink:href="#DejaVuSans-30" transform="translate(190.869141 0)"/>
      </g>
     </g>
    </g>
    <g id="xtick_3">
     <g id="line2d_3">
      <g>
       <use xlink:href="#m9142a1947e" x="257.036213" y="273.312" style="stroke: #000000; stroke-width: 0.8"/>
      </g>
     </g>
     <g id="text_3">
      <!-- 2000 -->
      <g transform="translate(244.311213 287.910437) scale(0.1 -0.1)">
       <defs>
        <path id="DejaVuSans-32" d="M 1228 531 
L 3431 531 
L 3431 0 
L 469 0 
L 469 531 
Q 828 903 1448 1529 
Q 2069 2156 2228 2338 
Q 2531 2678 2651 2914 
Q 2772 3150 2772 3378 
Q 2772 3750 2511 3984 
Q 2250 4219 1831 4219 
Q 1534 4219 1204 4116 
Q 875 4013 500 3803 
L 500 4441 
Q 881 4594 1212 4672 
Q 1544 4750 1819 4750 
Q 2544 4750 2975 4387 
Q 3406 4025 3406 3419 
Q 3406 3131 3298 2873 
Q 3191 2616 2906 2266 
Q 2828 2175 2409 1742 
Q 1991 1309 1228 531 
z
" transform="scale(0.015625)"/>
       </defs>
       <use xlink:href="#DejaVuSans-32"/>
       <use xlink:href="#DejaVuSans-30" transform="translate(63.623047 0)"/>
       <use xlink:href="#DejaVuSans-30" transform="translate(127.246094 0)"/>
       <use xlink:href="#DejaVuSans-30" transform="translate(190.869141 0)"/>
      </g>
     </g>
    </g>
    <g id="xtick_4">
     <g id="line2d_4">
      <g>
       <use xlink:href="#m9142a1947e" x="204.518566" y="273.312" style="stroke: #000000; stroke-width: 0.8"/>
      </g>
     </g>
     <g id="text_4">
      <!-- 2500 -->
      <g transform="translate(191.793566 287.910437) scale(0.1 -0.1)">
       <use xlink:href="#DejaVuSans-32"/>
       <use xlink:href="#DejaVuSans-35" transform="translate(63.623047 0)"/>
       <use xlink:href="#DejaVuSans-30" transform="translate(127.246094 0)"/>
       <use xlink:href="#DejaVuSans-30" transform="translate(190.869141 0)"/>
      </g>
     </g>
    </g>
    <g id="xtick_5">
     <g id="line2d_5">
      <g>
       <use xlink:href="#m9142a1947e" x="152.000919" y="273.312" style="stroke: #000000; stroke-width: 0.8"/>
      </g>
     </g>
     <g id="text_5">
      <!-- 3000 -->
      <g transform="translate(139.275919 287.910437) scale(0.1 -0.1)">
       <defs>
        <path id="DejaVuSans-33" d="M 2597 2516 
Q 3050 2419 3304 2112 
Q 3559 1806 3559 1356 
Q 3559 666 3084 287 
Q 2609 -91 1734 -91 
Q 1441 -91 1130 -33 
Q 819 25 488 141 
L 488 750 
Q 750 597 1062 519 
Q 1375 441 1716 441 
Q 2309 441 2620 675 
Q 2931 909 2931 1356 
Q 2931 1769 2642 2001 
Q 2353 2234 1838 2234 
L 1294 2234 
L 1294 2753 
L 1863 2753 
Q 2328 2753 2575 2939 
Q 2822 3125 2822 3475 
Q 2822 3834 2567 4026 
Q 2313 4219 1838 4219 
Q 1578 4219 1281 4162 
Q 984 4106 628 3988 
L 628 4550 
Q 988 4650 1302 4700 
Q 1616 4750 1894 4750 
Q 2613 4750 3031 4423 
Q 3450 4097 3450 3541 
Q 3450 3153 3228 2886 
Q 3006 2619 2597 2516 
z
" transform="scale(0.015625)"/>
       </defs>
       <use xlink:href="#DejaVuSans-33"/>
       <use xlink:href="#DejaVuSans-30" transform="translate(63.623047 0)"/>
       <use xlink:href="#DejaVuSans-30" transform="translate(127.246094 0)"/>
       <use xlink:href="#DejaVuSans-30" transform="translate(190.869141 0)"/>
      </g>
     </g>
    </g>
    <g id="xtick_6">
     <g id="line2d_6">
      <g>
       <use xlink:href="#m9142a1947e" x="99.483272" y="273.312" style="stroke: #000000; stroke-width: 0.8"/>
      </g>
     </g>
     <g id="text_6">
      <!-- 3500 -->
      <g transform="translate(86.758272 287.910437) scale(0.1 -0.1)">
       <use xlink:href="#DejaVuSans-33"/>
       <use xlink:href="#DejaVuSans-35" transform="translate(63.623047 0)"/>
       <use xlink:href="#DejaVuSans-30" transform="translate(127.246094 0)"/>
       <use xlink:href="#DejaVuSans-30" transform="translate(190.869141 0)"/>
      </g>
     </g>
    </g>
    <g id="xtick_7">
     <g id="line2d_7">
      <g>
       <use xlink:href="#m9142a1947e" x="46.965625" y="273.312" style="stroke: #000000; stroke-width: 0.8"/>
      </g>
     </g>
     <g id="text_7">
      <!-- 4000 -->
      <g transform="translate(34.240625 287.910437) scale(0.1 -0.1)">
       <defs>
        <path id="DejaVuSans-34" d="M 2419 4116 
L 825 1625 
L 2419 1625 
L 2419 4116 
z
M 2253 4666 
L 3047 4666 
L 3047 1625 
L 3713 1625 
L 3713 1100 
L 3047 1100 
L 3047 0 
L 2419 0 
L 2419 1100 
L 313 1100 
L 313 1709 
L 2253 4666 
z
" transform="scale(0.015625)"/>
       </defs>
       <use xlink:href="#DejaVuSans-34"/>
       <use xlink:href="#DejaVuSans-30" transform="translate(63.623047 0)"/>
       <use xlink:href="#DejaVuSans-30" transform="translate(127.246094 0)"/>
       <use xlink:href="#DejaVuSans-30" transform="translate(190.869141 0)"/>
      </g>
     </g>
    </g>
    <g id="text_8">
     <!-- Wavenumbers, cm$^{-1}$ -->
     <g transform="translate(173.175625 302.110437) scale(0.1 -0.1)">
      <defs>
       <path id="DejaVuSans-57" d="M 213 4666 
L 850 4666 
L 1831 722 
L 2809 4666 
L 3519 4666 
L 4500 722 
L 5478 4666 
L 6119 4666 
L 4947 0 
L 4153 0 
L 3169 4050 
L 2175 0 
L 1381 0 
L 213 4666 
z
" transform="scale(0.015625)"/>
       <path id="DejaVuSans-61" d="M 2194 1759 
Q 1497 1759 1228 1600 
Q 959 1441 959 1056 
Q 959 750 1161 570 
Q 1363 391 1709 391 
Q 2188 391 2477 730 
Q 2766 1069 2766 1631 
L 2766 1759 
L 2194 1759 
z
M 3341 1997 
L 3341 0 
L 2766 0 
L 2766 531 
Q 2569 213 2275 61 
Q 1981 -91 1556 -91 
Q 1019 -91 701 211 
Q 384 513 384 1019 
Q 384 1609 779 1909 
Q 1175 2209 1959 2209 
L 2766 2209 
L 2766 2266 
Q 2766 2663 2505 2880 
Q 2244 3097 1772 3097 
Q 1472 3097 1187 3025 
Q 903 2953 641 2809 
L 641 3341 
Q 956 3463 1253 3523 
Q 1550 3584 1831 3584 
Q 2591 3584 2966 3190 
Q 3341 2797 3341 1997 
z
" transform="scale(0.015625)"/>
       <path id="DejaVuSans-76" d="M 191 3500 
L 800 3500 
L 1894 563 
L 2988 3500 
L 3597 3500 
L 2284 0 
L 1503 0 
L 191 3500 
z
" transform="scale(0.015625)"/>
       <path id="DejaVuSans-65" d="M 3597 1894 
L 3597 1613 
L 953 1613 
Q 991 1019 1311 708 
Q 1631 397 2203 397 
Q 2534 397 2845 478 
Q 3156 559 3463 722 
L 3463 178 
Q 3153 47 2828 -22 
Q 2503 -91 2169 -91 
Q 1331 -91 842 396 
Q 353 884 353 1716 
Q 353 2575 817 3079 
Q 1281 3584 2069 3584 
Q 2775 3584 3186 3129 
Q 3597 2675 3597 1894 
z
M 3022 2063 
Q 3016 2534 2758 2815 
Q 2500 3097 2075 3097 
Q 1594 3097 1305 2825 
Q 1016 2553 972 2059 
L 3022 2063 
z
" transform="scale(0.015625)"/>
       <path id="DejaVuSans-6e" d="M 3513 2113 
L 3513 0 
L 2938 0 
L 2938 2094 
Q 2938 2591 2744 2837 
Q 2550 3084 2163 3084 
Q 1697 3084 1428 2787 
Q 1159 2491 1159 1978 
L 1159 0 
L 581 0 
L 581 3500 
L 1159 3500 
L 1159 2956 
Q 1366 3272 1645 3428 
Q 1925 3584 2291 3584 
Q 2894 3584 3203 3211 
Q 3513 2838 3513 2113 
z
" transform="scale(0.015625)"/>
       <path id="DejaVuSans-75" d="M 544 1381 
L 544 3500 
L 1119 3500 
L 1119 1403 
Q 1119 906 1312 657 
Q 1506 409 1894 409 
Q 2359 409 2629 706 
Q 2900 1003 2900 1516 
L 2900 3500 
L 3475 3500 
L 3475 0 
L 2900 0 
L 2900 538 
Q 2691 219 2414 64 
Q 2138 -91 1772 -91 
Q 1169 -91 856 284 
Q 544 659 544 1381 
z
M 1991 3584 
L 1991 3584 
z
" transform="scale(0.015625)"/>
       <path id="DejaVuSans-6d" d="M 3328 2828 
Q 3544 3216 3844 3400 
Q 4144 3584 4550 3584 
Q 5097 3584 5394 3201 
Q 5691 2819 5691 2113 
L 5691 0 
L 5113 0 
L 5113 2094 
Q 5113 2597 4934 2840 
Q 4756 3084 4391 3084 
Q 3944 3084 3684 2787 
Q 3425 2491 3425 1978 
L 3425 0 
L 2847 0 
L 2847 2094 
Q 2847 2600 2669 2842 
Q 2491 3084 2119 3084 
Q 1678 3084 1418 2786 
Q 1159 2488 1159 1978 
L 1159 0 
L 581 0 
L 581 3500 
L 1159 3500 
L 1159 2956 
Q 1356 3278 1631 3431 
Q 1906 3584 2284 3584 
Q 2666 3584 2933 3390 
Q 3200 3197 3328 2828 
z
" transform="scale(0.015625)"/>
       <path id="DejaVuSans-62" d="M 3116 1747 
Q 3116 2381 2855 2742 
Q 2594 3103 2138 3103 
Q 1681 3103 1420 2742 
Q 1159 2381 1159 1747 
Q 1159 1113 1420 752 
Q 1681 391 2138 391 
Q 2594 391 2855 752 
Q 3116 1113 3116 1747 
z
M 1159 2969 
Q 1341 3281 1617 3432 
Q 1894 3584 2278 3584 
Q 2916 3584 3314 3078 
Q 3713 2572 3713 1747 
Q 3713 922 3314 415 
Q 2916 -91 2278 -91 
Q 1894 -91 1617 61 
Q 1341 213 1159 525 
L 1159 0 
L 581 0 
L 581 4863 
L 1159 4863 
L 1159 2969 
z
" transform="scale(0.015625)"/>
       <path id="DejaVuSans-72" d="M 2631 2963 
Q 2534 3019 2420 3045 
Q 2306 3072 2169 3072 
Q 1681 3072 1420 2755 
Q 1159 2438 1159 1844 
L 1159 0 
L 581 0 
L 581 3500 
L 1159 3500 
L 1159 2956 
Q 1341 3275 1631 3429 
Q 1922 3584 2338 3584 
Q 2397 3584 2469 3576 
Q 2541 3569 2628 3553 
L 2631 2963 
z
" transform="scale(0.015625)"/>
       <path id="DejaVuSans-73" d="M 2834 3397 
L 2834 2853 
Q 2591 2978 2328 3040 
Q 2066 3103 1784 3103 
Q 1356 3103 1142 2972 
Q 928 2841 928 2578 
Q 928 2378 1081 2264 
Q 1234 2150 1697 2047 
L 1894 2003 
Q 2506 1872 2764 1633 
Q 3022 1394 3022 966 
Q 3022 478 2636 193 
Q 2250 -91 1575 -91 
Q 1294 -91 989 -36 
Q 684 19 347 128 
L 347 722 
Q 666 556 975 473 
Q 1284 391 1588 391 
Q 1994 391 2212 530 
Q 2431 669 2431 922 
Q 2431 1156 2273 1281 
Q 2116 1406 1581 1522 
L 1381 1569 
Q 847 1681 609 1914 
Q 372 2147 372 2553 
Q 372 3047 722 3315 
Q 1072 3584 1716 3584 
Q 2034 3584 2315 3537 
Q 2597 3491 2834 3397 
z
" transform="scale(0.015625)"/>
       <path id="DejaVuSans-2c" d="M 750 794 
L 1409 794 
L 1409 256 
L 897 -744 
L 494 -744 
L 750 256 
L 750 794 
z
" transform="scale(0.015625)"/>
       <path id="DejaVuSans-20" transform="scale(0.015625)"/>
       <path id="DejaVuSans-63" d="M 3122 3366 
L 3122 2828 
Q 2878 2963 2633 3030 
Q 2388 3097 2138 3097 
Q 1578 3097 1268 2742 
Q 959 2388 959 1747 
Q 959 1106 1268 751 
Q 1578 397 2138 397 
Q 2388 397 2633 464 
Q 2878 531 3122 666 
L 3122 134 
Q 2881 22 2623 -34 
Q 2366 -91 2075 -91 
Q 1284 -91 818 406 
Q 353 903 353 1747 
Q 353 2603 823 3093 
Q 1294 3584 2113 3584 
Q 2378 3584 2631 3529 
Q 2884 3475 3122 3366 
z
" transform="scale(0.015625)"/>
       <path id="DejaVuSans-2212" d="M 678 2272 
L 4684 2272 
L 4684 1741 
L 678 1741 
L 678 2272 
z
" transform="scale(0.015625)"/>
      </defs>
      <use xlink:href="#DejaVuSans-57" transform="translate(0 0.684375)"/>
      <use xlink:href="#DejaVuSans-61" transform="translate(98.876953 0.684375)"/>
      <use xlink:href="#DejaVuSans-76" transform="translate(160.15625 0.684375)"/>
      <use xlink:href="#DejaVuSans-65" transform="translate(219.335938 0.684375)"/>
      <use xlink:href="#DejaVuSans-6e" transform="translate(280.859375 0.684375)"/>
      <use xlink:href="#DejaVuSans-75" transform="translate(344.238281 0.684375)"/>
      <use xlink:href="#DejaVuSans-6d" transform="translate(407.617188 0.684375)"/>
      <use xlink:href="#DejaVuSans-62" transform="translate(505.029297 0.684375)"/>
      <use xlink:href="#DejaVuSans-65" transform="translate(568.505859 0.684375)"/>
      <use xlink:href="#DejaVuSans-72" transform="translate(630.029297 0.684375)"/>
      <use xlink:href="#DejaVuSans-73" transform="translate(671.142578 0.684375)"/>
      <use xlink:href="#DejaVuSans-2c" transform="translate(723.242188 0.684375)"/>
      <use xlink:href="#DejaVuSans-20" transform="translate(755.029297 0.684375)"/>
      <use xlink:href="#DejaVuSans-63" transform="translate(786.816406 0.684375)"/>
      <use xlink:href="#DejaVuSans-6d" transform="translate(841.796875 0.684375)"/>
      <use xlink:href="#DejaVuSans-2212" transform="translate(940.166016 38.965625) scale(0.7)"/>
      <use xlink:href="#DejaVuSans-31" transform="translate(998.818359 38.965625) scale(0.7)"/>
     </g>
    </g>
   </g>
   <g id="matplotlib.axis_2">
    <g id="ytick_1">
     <g id="line2d_8">
      <defs>
       <path id="m7a4f787e45" d="M 0 0 
L -3.5 0 
" style="stroke: #000000; stroke-width: 0.8"/>
      </defs>
      <g>
       <use xlink:href="#m7a4f787e45" x="46.965625" y="237.62443" style="stroke: #000000; stroke-width: 0.8"/>
      </g>
     </g>
     <g id="text_9">
      <!-- 70 -->
      <g transform="translate(27.240625 241.423649) scale(0.1 -0.1)">
       <defs>
        <path id="DejaVuSans-37" d="M 525 4666 
L 3525 4666 
L 3525 4397 
L 1831 0 
L 1172 0 
L 2766 4134 
L 525 4134 
L 525 4666 
z
" transform="scale(0.015625)"/>
       </defs>
       <use xlink:href="#DejaVuSans-37"/>
       <use xlink:href="#DejaVuSans-30" transform="translate(63.623047 0)"/>
      </g>
     </g>
    </g>
    <g id="ytick_2">
     <g id="line2d_9">
      <g>
       <use xlink:href="#m7a4f787e45" x="46.965625" y="200.760643" style="stroke: #000000; stroke-width: 0.8"/>
      </g>
     </g>
     <g id="text_10">
      <!-- 75 -->
      <g transform="translate(27.240625 204.559862) scale(0.1 -0.1)">
       <use xlink:href="#DejaVuSans-37"/>
       <use xlink:href="#DejaVuSans-35" transform="translate(63.623047 0)"/>
      </g>
     </g>
    </g>
    <g id="ytick_3">
     <g id="line2d_10">
      <g>
       <use xlink:href="#m7a4f787e45" x="46.965625" y="163.896857" style="stroke: #000000; stroke-width: 0.8"/>
      </g>
     </g>
     <g id="text_11">
      <!-- 80 -->
      <g transform="translate(27.240625 167.696076) scale(0.1 -0.1)">
       <defs>
        <path id="DejaVuSans-38" d="M 2034 2216 
Q 1584 2216 1326 1975 
Q 1069 1734 1069 1313 
Q 1069 891 1326 650 
Q 1584 409 2034 409 
Q 2484 409 2743 651 
Q 3003 894 3003 1313 
Q 3003 1734 2745 1975 
Q 2488 2216 2034 2216 
z
M 1403 2484 
Q 997 2584 770 2862 
Q 544 3141 544 3541 
Q 544 4100 942 4425 
Q 1341 4750 2034 4750 
Q 2731 4750 3128 4425 
Q 3525 4100 3525 3541 
Q 3525 3141 3298 2862 
Q 3072 2584 2669 2484 
Q 3125 2378 3379 2068 
Q 3634 1759 3634 1313 
Q 3634 634 3220 271 
Q 2806 -91 2034 -91 
Q 1263 -91 848 271 
Q 434 634 434 1313 
Q 434 1759 690 2068 
Q 947 2378 1403 2484 
z
M 1172 3481 
Q 1172 3119 1398 2916 
Q 1625 2713 2034 2713 
Q 2441 2713 2670 2916 
Q 2900 3119 2900 3481 
Q 2900 3844 2670 4047 
Q 2441 4250 2034 4250 
Q 1625 4250 1398 4047 
Q 1172 3844 1172 3481 
z
" transform="scale(0.015625)"/>
       </defs>
       <use xlink:href="#DejaVuSans-38"/>
       <use xlink:href="#DejaVuSans-30" transform="translate(63.623047 0)"/>
      </g>
     </g>
    </g>
    <g id="ytick_4">
     <g id="line2d_11">
      <g>
       <use xlink:href="#m7a4f787e45" x="46.965625" y="127.03307" style="stroke: #000000; stroke-width: 0.8"/>
      </g>
     </g>
     <g id="text_12">
      <!-- 85 -->
      <g transform="translate(27.240625 130.832289) scale(0.1 -0.1)">
       <use xlink:href="#DejaVuSans-38"/>
       <use xlink:href="#DejaVuSans-35" transform="translate(63.623047 0)"/>
      </g>
     </g>
    </g>
    <g id="ytick_5">
     <g id="line2d_12">
      <g>
       <use xlink:href="#m7a4f787e45" x="46.965625" y="90.169284" style="stroke: #000000; stroke-width: 0.8"/>
      </g>
     </g>
     <g id="text_13">
      <!-- 90 -->
      <g transform="translate(27.240625 93.968503) scale(0.1 -0.1)">
       <defs>
        <path id="DejaVuSans-39" d="M 703 97 
L 703 672 
Q 941 559 1184 500 
Q 1428 441 1663 441 
Q 2288 441 2617 861 
Q 2947 1281 2994 2138 
Q 2813 1869 2534 1725 
Q 2256 1581 1919 1581 
Q 1219 1581 811 2004 
Q 403 2428 403 3163 
Q 403 3881 828 4315 
Q 1253 4750 1959 4750 
Q 2769 4750 3195 4129 
Q 3622 3509 3622 2328 
Q 3622 1225 3098 567 
Q 2575 -91 1691 -91 
Q 1453 -91 1209 -44 
Q 966 3 703 97 
z
M 1959 2075 
Q 2384 2075 2632 2365 
Q 2881 2656 2881 3163 
Q 2881 3666 2632 3958 
Q 2384 4250 1959 4250 
Q 1534 4250 1286 3958 
Q 1038 3666 1038 3163 
Q 1038 2656 1286 2365 
Q 1534 2075 1959 2075 
z
" transform="scale(0.015625)"/>
       </defs>
       <use xlink:href="#DejaVuSans-39"/>
       <use xlink:href="#DejaVuSans-30" transform="translate(63.623047 0)"/>
      </g>
     </g>
    </g>
    <g id="ytick_6">
     <g id="line2d_13">
      <g>
       <use xlink:href="#m7a4f787e45" x="46.965625" y="53.305497" style="stroke: #000000; stroke-width: 0.8"/>
      </g>
     </g>
     <g id="text_14">
      <!-- 95 -->
      <g transform="translate(27.240625 57.104716) scale(0.1 -0.1)">
       <use xlink:href="#DejaVuSans-39"/>
       <use xlink:href="#DejaVuSans-35" transform="translate(63.623047 0)"/>
      </g>
     </g>
    </g>
    <g id="ytick_7">
     <g id="line2d_14">
      <g>
       <use xlink:href="#m7a4f787e45" x="46.965625" y="16.441711" style="stroke: #000000; stroke-width: 0.8"/>
      </g>
     </g>
     <g id="text_15">
      <!-- 100 -->
      <g transform="translate(20.878125 20.240929) scale(0.1 -0.1)">
       <use xlink:href="#DejaVuSans-31"/>
       <use xlink:href="#DejaVuSans-30" transform="translate(63.623047 0)"/>
       <use xlink:href="#DejaVuSans-30" transform="translate(127.246094 0)"/>
      </g>
     </g>
    </g>
    <g id="text_16">
     <!-- Transmittance, % -->
     <g transform="translate(14.798438 183.632562) rotate(-90) scale(0.1 -0.1)">
      <defs>
       <path id="DejaVuSans-54" d="M -19 4666 
L 3928 4666 
L 3928 4134 
L 2272 4134 
L 2272 0 
L 1638 0 
L 1638 4134 
L -19 4134 
L -19 4666 
z
" transform="scale(0.015625)"/>
       <path id="DejaVuSans-69" d="M 603 3500 
L 1178 3500 
L 1178 0 
L 603 0 
L 603 3500 
z
M 603 4863 
L 1178 4863 
L 1178 4134 
L 603 4134 
L 603 4863 
z
" transform="scale(0.015625)"/>
       <path id="DejaVuSans-74" d="M 1172 4494 
L 1172 3500 
L 2356 3500 
L 2356 3053 
L 1172 3053 
L 1172 1153 
Q 1172 725 1289 603 
Q 1406 481 1766 481 
L 2356 481 
L 2356 0 
L 1766 0 
Q 1100 0 847 248 
Q 594 497 594 1153 
L 594 3053 
L 172 3053 
L 172 3500 
L 594 3500 
L 594 4494 
L 1172 4494 
z
" transform="scale(0.015625)"/>
       <path id="DejaVuSans-25" d="M 4653 2053 
Q 4381 2053 4226 1822 
Q 4072 1591 4072 1178 
Q 4072 772 4226 539 
Q 4381 306 4653 306 
Q 4919 306 5073 539 
Q 5228 772 5228 1178 
Q 5228 1588 5073 1820 
Q 4919 2053 4653 2053 
z
M 4653 2450 
Q 5147 2450 5437 2106 
Q 5728 1763 5728 1178 
Q 5728 594 5436 251 
Q 5144 -91 4653 -91 
Q 4153 -91 3862 251 
Q 3572 594 3572 1178 
Q 3572 1766 3864 2108 
Q 4156 2450 4653 2450 
z
M 1428 4353 
Q 1159 4353 1004 4120 
Q 850 3888 850 3481 
Q 850 3069 1003 2837 
Q 1156 2606 1428 2606 
Q 1700 2606 1854 2837 
Q 2009 3069 2009 3481 
Q 2009 3884 1853 4118 
Q 1697 4353 1428 4353 
z
M 4250 4750 
L 4750 4750 
L 1831 -91 
L 1331 -91 
L 4250 4750 
z
M 1428 4750 
Q 1922 4750 2215 4408 
Q 2509 4066 2509 3481 
Q 2509 2891 2217 2550 
Q 1925 2209 1428 2209 
Q 931 2209 642 2551 
Q 353 2894 353 3481 
Q 353 4063 643 4406 
Q 934 4750 1428 4750 
z
" transform="scale(0.015625)"/>
      </defs>
      <use xlink:href="#DejaVuSans-54"/>
      <use xlink:href="#DejaVuSans-72" transform="translate(46.333984 0)"/>
      <use xlink:href="#DejaVuSans-61" transform="translate(87.447266 0)"/>
      <use xlink:href="#DejaVuSans-6e" transform="translate(148.726562 0)"/>
      <use xlink:href="#DejaVuSans-73" transform="translate(212.105469 0)"/>
      <use xlink:href="#DejaVuSans-6d" transform="translate(264.205078 0)"/>
      <use xlink:href="#DejaVuSans-69" transform="translate(361.617188 0)"/>
      <use xlink:href="#DejaVuSans-74" transform="translate(389.400391 0)"/>
      <use xlink:href="#DejaVuSans-74" transform="translate(428.609375 0)"/>
      <use xlink:href="#DejaVuSans-61" transform="translate(467.818359 0)"/>
      <use xlink:href="#DejaVuSans-6e" transform="translate(529.097656 0)"/>
      <use xlink:href="#DejaVuSans-63" transform="translate(592.476562 0)"/>
      <use xlink:href="#DejaVuSans-65" transform="translate(647.457031 0)"/>
      <use xlink:href="#DejaVuSans-2c" transform="translate(708.980469 0)"/>
      <use xlink:href="#DejaVuSans-20" transform="translate(740.767578 0)"/>
      <use xlink:href="#DejaVuSans-25" transform="translate(772.554688 0)"/>
     </g>
    </g>
   </g>
   <g id="line2d_15">
    <path d="M 404.06091 44.830439 
L 403.959635 44.960421 
L 403.908998 44.905494 
L 403.807712 44.798589 
L 403.706437 45.135155 
L 403.250678 48.83134 
L 403.200041 48.807525 
L 403.098766 47.911514 
L 402.744293 41.554354 
L 402.693655 41.771187 
L 402.491095 42.89686 
L 402.237897 41.644228 
L 402.187259 41.743687 
L 401.680863 44.154652 
L 401.630225 44.040817 
L 401.478313 42.736723 
L 401.174477 39.238498 
L 401.073192 39.72215 
L 400.921279 40.544434 
L 400.819994 40.050238 
L 400.465521 37.220795 
L 400.111047 36.943727 
L 399.959135 37.565177 
L 399.807212 38.24089 
L 399.756574 38.221499 
L 399.604651 37.376286 
L 399.452739 36.708757 
L 399.351464 36.99047 
L 398.895705 39.088536 
L 398.79443 38.857768 
L 398.389309 37.612141 
L 398.136121 37.77213 
L 397.882923 37.383586 
L 397.832286 37.444558 
L 397.477802 38.305033 
L 397.427165 38.270528 
L 397.275252 38.194368 
L 397.123329 38.463989 
L 396.971416 38.769369 
L 396.920779 38.736855 
L 396.667581 37.902333 
L 396.46502 37.615016 
L 396.26246 37.718825 
L 395.857349 38.263524 
L 395.806712 38.183751 
L 395.452238 37.036624 
L 395.350953 37.135271 
L 395.148403 37.393391 
L 394.895205 37.183194 
L 394.186259 36.839329 
L 393.983698 37.054687 
L 393.831775 36.688629 
L 393.527939 35.860742 
L 393.376027 35.998613 
L 393.173466 36.131323 
L 392.616433 36.129627 
L 392.110047 36.702416 
L 392.059409 36.653535 
L 391.755574 36.241693 
L 391.40109 36.581724 
L 390.945342 36.258208 
L 390.236396 36.172758 
L 390.033835 36.17261 
L 389.881912 36.206672 
L 389.679362 35.841573 
L 389.527439 35.717785 
L 389.223604 35.861922 
L 388.970405 35.735848 
L 388.46402 35.996401 
L 387.906986 35.697067 
L 387.603151 35.482299 
L 387.40059 35.685861 
L 387.046117 36.135451 
L 386.691644 36.335106 
L 386.387808 36.758744 
L 386.033335 37.554928 
L 385.324378 40.260878 
L 384.767345 42.475654 
L 384.66607 42.435989 
L 384.463509 41.832455 
L 384.109036 39.966262 
L 383.501365 36.458378 
L 383.096254 35.599083 
L 382.589858 35.128185 
L 381.830274 34.860923 
L 381.627714 34.943129 
L 381.171966 34.887096 
L 380.969405 34.933323 
L 380.463009 34.726517 
L 380.108536 34.82981 
L 379.652788 34.745465 
L 379.399589 34.836445 
L 379.197029 34.847578 
L 378.842556 35.15716 
L 378.437445 34.968196 
L 377.424653 35.524471 
L 377.222103 35.63956 
L 376.968905 35.760694 
L 376.766344 35.878585 
L 374.74077 39.09613 
L 374.335659 40.92273 
L 373.829263 43.863281 
L 373.221592 49.245246 
L 372.664569 53.820189 
L 372.462008 54.38192 
L 372.360733 54.328025 
L 372.20881 53.870472 
L 371.904975 51.997054 
L 370.689632 43.112955 
L 369.930048 40.018978 
L 369.322377 38.40427 
L 367.853837 36.271626 
L 367.550001 35.930341 
L 367.296803 35.800507 
L 366.992968 35.657476 
L 366.435934 35.349147 
L 365.726988 35.310145 
L 365.271229 35.293114 
L 364.916756 35.610511 
L 363.903974 36.156906 
L 362.334159 35.697288 
L 361.625212 35.788932 
L 361.118837 35.835454 
L 360.713716 36.056342 
L 360.308595 36.338792 
L 359.852847 36.354349 
L 359.397099 36.57214 
L 359.042605 36.930456 
L 358.738737 37.104011 
L 358.485602 37.214012 
L 357.67536 37.66552 
L 357.371493 37.943473 
L 356.865118 38.397856 
L 356.358743 38.789349 
L 356.105503 39.37047 
L 355.801636 39.933306 
L 355.194006 40.384814 
L 354.383764 41.590038 
L 354.02927 43.221335 
L 353.674881 45.908926 
L 353.320387 50.72142 
L 352.965893 58.888886 
L 352.510145 69.517601 
L 352.408891 69.860803 
L 352.307636 69.002319 
L 352.105023 64.371564 
L 351.446662 48.046215 
L 351.041646 43.380439 
L 350.636525 40.716809 
L 350.231404 39.60544 
L 349.218548 37.594225 
L 348.408306 36.839918 
L 347.699423 36.613722 
L 346.787927 36.739133 
L 346.078939 37.283463 
L 345.268696 38.031946 
L 344.407827 39.598288 
L 343.698944 41.278613 
L 343.192464 43.388844 
L 342.736715 46.302557 
L 342.23034 51.361596 
L 341.774592 58.488914 
L 340.812469 76.703606 
L 340.407348 92.297135 
L 340.052854 114.867136 
L 339.647732 156.961378 
L 339.09073 218.053003 
L 338.989476 220.463526 
L 338.938849 220.024995 
L 338.786863 211.89653 
L 338.533728 179.987162 
L 337.875367 94.185815 
L 337.419619 64.475593 
L 337.014498 50.948795 
L 336.609377 44.032264 
L 336.153628 39.855966 
L 335.69788 37.705185 
L 335.242132 36.357077 
L 334.735757 35.521743 
L 334.229382 35.262148 
L 333.520394 34.874415 
L 333.267259 34.807839 
L 332.608897 35.198448 
L 331.140399 37.363974 
L 330.228903 39.702834 
L 329.722422 41.663545 
L 328.912285 46.141905 
L 328.253924 50.578683 
L 327.646295 56.252462 
L 327.139815 63.594106 
L 326.684066 73.8923 
L 326.228318 90.105141 
L 325.823197 112.574577 
L 325.316822 154.166366 
L 324.810447 191.883401 
L 324.557312 197.902594 
L 324.405326 198.486148 
L 324.304072 197.966442 
L 324.152191 195.260935 
L 323.949578 187.108582 
L 323.595083 160.934704 
L 322.835573 101.050368 
L 322.37972 81.09283 
L 321.923972 69.700961 
L 321.468224 63.230113 
L 321.113835 60.282706 
L 320.860595 59.559807 
L 320.658087 59.500752 
L 320.5061 59.666565 
L 320.252965 60.524754 
L 319.898471 62.512744 
L 319.543977 66.379387 
L 318.936348 75.541143 
L 318.22736 86.122377 
L 318.024747 86.727386 
L 317.872866 86.358379 
L 317.619731 84.913687 
L 317.011996 80.732007 
L 316.758861 80.030784 
L 316.606875 80.039705 
L 316.404367 80.191953 
L 316.35374 80.137689 
L 316.201754 79.385815 
L 315.644752 73.730173 
L 313.821759 49.218925 
L 313.163398 44.158265 
L 312.808904 42.045232 
L 312.454515 40.891249 
L 311.948035 38.516999 
L 311.492287 37.338833 
L 311.188525 36.970564 
L 310.935284 36.742377 
L 310.682149 36.148133 
L 310.277028 34.913343 
L 310.074415 34.893068 
L 309.871907 34.86542 
L 309.618667 34.415682 
L 309.3148 33.997942 
L 309.162919 34.235418 
L 308.909784 34.731457 
L 308.757798 34.458813 
L 308.453931 33.893691 
L 308.099542 33.849454 
L 307.390553 34.349106 
L 306.884178 33.836773 
L 306.681565 33.712321 
L 306.479057 33.631073 
L 306.276444 33.925836 
L 306.073936 34.089216 
L 305.770069 33.741296 
L 305.719442 33.795412 
L 305.364948 34.459108 
L 305.314321 34.39725 
L 304.9092 33.850855 
L 304.098957 33.553954 
L 303.693836 33.924583 
L 303.390074 34.858269 
L 303.339447 34.751732 
L 302.934326 33.589122 
L 302.731713 33.515763 
L 302.529205 33.679807 
L 302.275965 33.902243 
L 301.668336 33.344494 
L 300.959347 32.965534 
L 300.706212 32.786893 
L 300.452972 32.690899 
L 300.098478 32.350941 
L 299.743984 31.986948 
L 298.984474 31.833816 
L 297.819737 32.313267 
L 297.566497 32.798247 
L 297.313362 33.234566 
L 297.009495 33.121247 
L 296.806987 33.623332 
L 296.50312 34.256799 
L 296.300507 34.397914 
L 295.996745 34.661711 
L 295.844759 34.794199 
L 295.642251 35.30609 
L 295.287757 36.322867 
L 295.085249 36.307532 
L 294.680127 36.84825 
L 294.072393 38.336588 
L 293.920512 38.396602 
L 293.718004 39.051156 
L 293.464764 39.663021 
L 293.160897 39.490941 
L 292.958389 39.965009 
L 292.654522 41.256053 
L 292.046893 45.285191 
L 291.540412 51.689241 
L 291.084664 56.77637 
L 290.628916 58.585866 
L 290.223795 63.877589 
L 289.768047 72.298605 
L 289.363031 86.307507 
L 289.059164 103.60842 
L 288.603415 145.983785 
L 287.793173 249.322563 
L 287.539933 260.807992 
L 287.489306 261.216 
L 287.438679 261.114993 
L 287.337425 259.403997 
L 287.185439 252.402753 
L 286.881677 223.527054 
L 285.919554 108.544481 
L 285.4637 84.345838 
L 285.109311 75.087277 
L 284.70419 69.341466 
L 284.197815 66.307502 
L 284.045829 66.123699 
L 283.691335 66.583538 
L 283.488827 66.851907 
L 283.387573 66.64053 
L 283.235587 65.434494 
L 282.931825 59.86762 
L 282.070955 44.319359 
L 281.615207 39.408956 
L 280.956846 35.427372 
L 280.501098 32.949904 
L 280.247963 32.470159 
L 279.589602 31.697273 
L 279.285735 31.487444 
L 278.981972 31.503148 
L 276.804486 26.928794 
L 275.639749 25.694079 
L 275.386509 25.673804 
L 274.424386 24.810306 
L 274.069892 24.879758 
L 273.816757 24.66956 
L 273.614144 24.93262 
L 273.411636 25.125344 
L 272.854529 24.481924 
L 272.550766 24.087408 
L 272.297526 23.968854 
L 271.943032 24.094559 
L 271.335403 24.004611 
L 270.930282 24.511636 
L 270.626415 24.032702 
L 270.221294 23.517493 
L 269.968159 23.701296 
L 269.613665 23.914221 
L 269.411156 24.137911 
L 269.25917 24.235084 
L 269.006035 24.125303 
L 268.600914 24.409523 
L 267.334924 23.817638 
L 267.031057 23.630002 
L 266.828549 23.843664 
L 266.474055 24.327981 
L 266.170187 24.171678 
L 265.613185 24.364697 
L 265.359945 24.24054 
L 264.954824 24.40392 
L 264.549703 24.149412 
L 264.296568 24.070966 
L 263.992701 23.995838 
L 262.625456 24.498218 
L 262.372216 24.531469 
L 262.119081 24.90947 
L 261.916468 25.051396 
L 261.612706 25.024706 
L 261.308839 24.724856 
L 261.106226 25.085753 
L 260.802464 25.714723 
L 260.751837 25.682946 
L 260.346716 25.038198 
L 260.296089 25.093494 
L 259.890967 25.62942 
L 259.688354 25.697544 
L 259.536473 25.736915 
L 259.232606 25.546992 
L 258.878112 25.682135 
L 258.270483 25.006643 
L 258.219856 25.080223 
L 257.915989 25.72851 
L 257.865362 25.699092 
L 257.612122 25.574198 
L 256.953866 25.870288 
L 256.751252 26.116169 
L 256.244877 25.876702 
L 256.092996 25.849497 
L 255.789129 26.013024 
L 255.384008 25.59086 
L 255.029514 25.309 
L 254.877633 25.490812 
L 254.675125 25.701894 
L 254.016764 25.495236 
L 253.864883 25.557757 
L 253.561015 25.838511 
L 253.05464 25.396146 
L 252.852027 25.4524 
L 252.649519 25.134265 
L 252.446906 24.972728 
L 252.193771 24.92945 
L 252.041785 24.964913 
L 251.687396 25.224434 
L 251.231648 25.080518 
L 250.066911 24.309106 
L 249.206042 24.549016 
L 248.243919 24.448894 
L 247.838798 24.615592 
L 247.636185 24.687108 
L 247.433677 24.768208 
L 247.079182 24.552702 
L 246.825942 24.924437 
L 246.623434 25.071302 
L 246.117059 24.997648 
L 245.863819 25.067689 
L 245.610684 25.072629 
L 244.901696 25.53844 
L 244.192708 25.372258 
L 243.838318 25.535638 
L 243.585078 25.72792 
L 243.38257 25.478647 
L 243.230584 25.405067 
L 243.028076 25.764784 
L 242.724209 26.155835 
L 241.86334 26.270186 
L 241.610205 26.134454 
L 241.255711 26.324081 
L 240.951844 26.306018 
L 240.74923 26.563696 
L 240.597349 26.657772 
L 240.394841 26.093019 
L 240.242855 25.945121 
L 239.98972 26.23288 
L 239.939093 26.192625 
L 239.73648 25.609734 
L 239.48324 25.048889 
L 239.331359 25.219052 
L 239.078224 25.435369 
L 238.875611 25.096959 
L 238.571849 24.752062 
L 238.419863 24.800279 
L 238.065369 25.197818 
L 237.761607 25.070565 
L 237.60962 24.967862 
L 237.356485 24.742846 
L 237.001991 25.01232 
L 236.748751 25.09025 
L 236.090495 24.760909 
L 235.482761 24.650834 
L 235.229626 24.829844 
L 234.773878 24.816647 
L 234.520638 25.087153 
L 234.470011 25.045571 
L 234.115516 24.539874 
L 233.609141 24.87644 
L 233.254647 24.59657 
L 232.647018 24.723824 
L 232.343151 24.694185 
L 231.93803 24.84835 
L 231.532909 24.621785 
L 231.229147 24.567227 
L 231.026533 24.580498 
L 230.368172 24.948324 
L 230.165664 24.998828 
L 229.659289 24.804408 
L 229.406049 24.776244 
L 229.05166 24.646705 
L 228.089431 24.433485 
L 227.279189 23.768536 
L 226.9248 24.077749 
L 226.418425 23.799796 
L 226.165185 23.658018 
L 225.40557 23.829066 
L 224.899195 23.859221 
L 224.240833 24.250493 
L 223.937071 24.523727 
L 223.633204 24.568406 
L 223.329337 24.723455 
L 223.076202 24.766586 
L 222.26596 25.348886 
L 221.962093 25.411702 
L 221.15185 25.551785 
L 220.848088 25.279287 
L 220.392235 24.303061 
L 220.341713 24.351205 
L 220.088473 25.006864 
L 219.784606 25.543158 
L 219.379485 25.951314 
L 218.569243 26.06279 
L 218.366734 25.800541 
L 217.151371 23.207616 
L 216.442383 22.715927 
L 215.936008 22.717918 
L 215.429633 22.515462 
L 214.923257 22.658346 
L 214.113015 22.660115 
L 213.556013 22.6436 
L 213.302773 22.592728 
L 212.847025 22.81369 
L 212.391277 22.42028 
L 211.834274 22.701772 
L 211.530407 22.672133 
L 211.277167 22.690491 
L 210.922778 22.494671 
L 210.011282 22.612487 
L 209.302294 22.653701 
L 208.846545 22.731041 
L 208.593305 22.676483 
L 208.036303 22.899435 
L 206.972926 22.567219 
L 206.719686 22.773656 
L 206.365192 22.693588 
L 205.960071 22.922881 
L 205.504322 22.666382 
L 205.251187 22.812805 
L 204.846066 22.632246 
L 204.542199 22.873041 
L 203.580076 22.613962 
L 202.415339 22.934235 
L 202.111472 22.701182 
L 201.453216 22.858959 
L 201.250603 22.833965 
L 200.794855 22.517379 
L 200.54172 22.69086 
L 200.085972 22.660484 
L 199.731478 22.684446 
L 198.921235 22.562131 
L 198.6681 22.58248 
L 198.16162 22.866405 
L 197.807231 22.993585 
L 197.452737 23.096361 
L 197.098243 23.241679 
L 196.743749 23.456521 
L 195.629744 23.430642 
L 194.819502 22.795111 
L 193.958633 22.656134 
L 193.654766 22.755003 
L 192.945777 22.245914 
L 191.578533 22.361814 
L 191.325398 22.40229 
L 190.970904 22.463042 
L 189.5023 22.17661 
L 189.097179 22.216865 
L 187.831189 22.165256 
L 187.22356 22.025026 
L 186.919693 22.014631 
L 186.666558 21.97961 
L 186.261436 22.067862 
L 185.805688 21.951446 
L 185.400567 21.92107 
L 184.944819 21.881331 
L 184.590325 21.851545 
L 184.033323 21.891284 
L 183.729456 21.84373 
L 183.324334 21.589665 
L 182.716705 21.709546 
L 182.463465 21.643265 
L 181.754477 21.640832 
L 181.197475 21.661992 
L 180.842981 21.68905 
L 180.437965 21.800304 
L 180.134097 21.757026 
L 179.880857 21.815197 
L 179.323855 22.076046 
L 178.81748 22.011239 
L 178.462986 22.22033 
L 177.905984 22.121019 
L 177.500863 22.225049 
L 177.247623 22.271055 
L 176.69062 22.601133 
L 176.336126 22.627012 
L 175.627243 22.988572 
L 174.15864 23.039886 
L 173.905399 22.971246 
L 173.55101 22.974195 
L 173.04453 22.836988 
L 172.588887 22.893906 
L 171.981153 22.822316 
L 171.474778 22.946842 
L 171.221538 22.884985 
L 170.816417 22.955173 
L 170.461922 23.018063 
L 170.056906 23.059645 
L 169.753039 23.071884 
L 168.841543 23.861359 
L 167.930047 23.867921 
L 167.271685 23.91577 
L 166.866564 23.957868 
L 166.562697 24.010436 
L 166.208308 23.933243 
L 165.853814 23.945113 
L 165.600574 23.936413 
L 165.195453 24.13393 
L 164.891691 24.222698 
L 164.48657 24.323704 
L 164.132075 24.292002 
L 162.10647 25.972179 
L 161.296228 27.506524 
L 160.587344 28.674737 
L 160.080969 29.186849 
L 159.422608 29.01993 
L 158.764352 28.367146 
L 158.409858 28.467489 
L 157.903483 28.135936 
L 157.599615 28.306689 
L 157.194494 28.705187 
L 156.434879 29.535507 
L 155.523383 30.649088 
L 155.168889 31.374862 
L 155.017008 31.007035 
L 154.510632 29.571486 
L 154.257392 29.422703 
L 154.054884 29.5156 
L 153.497777 30.249853 
L 153.194015 31.265671 
L 152.4344 34.615115 
L 151.776039 37.875938 
L 151.624158 37.961388 
L 151.472276 37.764094 
L 151.269663 37.075478 
L 150.256913 31.526741 
L 149.801165 29.377213 
L 149.345417 28.401208 
L 148.940296 27.521712 
L 148.130053 26.356595 
L 147.674305 25.623964 
L 147.218557 25.214923 
L 146.813436 25.051985 
L 146.256434 24.882338 
L 145.952567 24.902982 
L 144.737203 24.240024 
L 144.332082 24.472708 
L 143.724453 23.912231 
L 143.319332 24.108051 
L 142.559717 23.589009 
L 141.850833 23.46699 
L 141.64822 23.398792 
L 141.141845 23.041656 
L 140.888605 22.957385 
L 140.331603 22.73635 
L 139.825228 22.730894 
L 139.571988 22.624063 
L 139.217494 22.366459 
L 138.660491 22.36292 
L 137.748995 22.195411 
L 137.445128 22.067714 
L 136.98938 22.129646 
L 136.483005 21.827289 
L 135.875376 22.088063 
L 135.520881 22.01087 
L 135.369 21.895634 
L 135.065133 21.603452 
L 134.660012 21.849702 
L 134.204264 21.548304 
L 133.596635 21.672092 
L 133.039528 21.342456 
L 132.887647 21.419133 
L 132.533153 21.721416 
L 132.128031 21.642527 
L 131.874896 21.801779 
L 130.963295 21.049315 
L 130.912668 21.112352 
L 130.558279 21.521688 
L 130.102426 21.289741 
L 129.748037 21.371874 
L 129.342916 21.049168 
L 128.785913 21.294386 
L 128.127552 21.341424 
L 127.924939 21.345921 
L 127.519923 21.129826 
L 126.912189 21.668922 
L 126.608427 21.62557 
L 126.000692 21.2197 
L 125.44369 21.32631 
L 125.139823 21.413751 
L 124.532194 21.177012 
L 123.570071 21.20112 
L 123.316831 21.152534 
L 123.114218 21.141106 
L 122.759828 21.357718 
L 122.30408 20.972491 
L 122.05084 20.978168 
L 121.7976 20.943443 
L 121.443211 20.96534 
L 120.683596 20.90127 
L 120.480983 20.931499 
L 120.075862 20.817737 
L 119.366978 21.041943 
L 119.012484 20.724988 
L 118.556736 21.099745 
L 118.202242 20.949931 
L 117.949002 20.806604 
L 117.493359 21.059342 
L 117.290746 21.146341 
L 117.088238 21.22228 
L 116.277995 20.925895 
L 116.126009 20.852168 
L 115.872874 20.689525 
L 115.467753 20.807784 
L 115.113259 20.823783 
L 114.809392 20.79702 
L 114.404271 20.760377 
L 114.049882 20.861384 
L 113.796642 20.799674 
L 113.239639 21.248527 
L 113.037026 21.056467 
L 112.783891 20.824668 
L 112.429397 20.964086 
L 112.024276 21.108887 
L 111.517901 21.004268 
L 110.302538 22.063217 
L 109.948043 22.522024 
L 109.593549 22.838389 
L 109.137801 23.504517 
L 108.884666 23.713535 
L 108.631426 23.647549 
L 108.074424 23.040623 
L 107.669303 22.059309 
L 107.112301 21.853315 
L 106.757806 21.696349 
L 106.555193 21.562091 
L 106.048818 21.625939 
L 105.795578 21.734687 
L 105.289203 22.17543 
L 104.732201 21.887156 
L 104.428334 21.949087 
L 104.225826 22.04825 
L 103.921959 22.305707 
L 103.213075 22.183098 
L 102.858581 22.311237 
L 102.504087 22.015958 
L 101.896458 22.526374 
L 101.18747 22.090791 
L 100.377227 22.332544 
L 100.022733 22.64478 
L 99.516358 22.281082 
L 99.06061 22.709071 
L 98.554235 22.421754 
L 98.351622 22.632984 
L 98.04786 22.984812 
L 96.731242 22.880413 
L 96.528629 22.962546 
L 95.819746 22.673239 
L 95.414625 22.909093 
L 95.009504 22.548787 
L 94.249889 22.567587 
L 93.895394 22.664244 
L 93.439646 22.690934 
L 93.186511 22.667562 
L 92.426896 22.971836 
L 91.5154 22.860507 
L 90.958292 22.762449 
L 90.40129 23.323442 
L 90.046796 23.049102 
L 89.894915 23.002064 
L 89.38854 23.338188 
L 89.084673 23.178863 
L 88.831433 23.139123 
L 88.527671 23.042688 
L 88.173177 23.09555 
L 87.970669 23.168025 
L 87.565547 23.506803 
L 87.211053 23.23578 
L 86.957813 23.297195 
L 86.603319 23.029122 
L 86.046317 23.415823 
L 85.894436 23.270359 
L 85.489315 22.788033 
L 85.033567 22.229989 
L 84.780327 22.277027 
L 84.071443 22.923692 
L 84.020711 22.845761 
L 83.61559 22.19777 
L 82.400332 21.050716 
L 82.197719 21.17045 
L 81.843225 21.544322 
L 81.59009 21.782094 
L 81.387476 21.850513 
L 81.184968 21.903228 
L 80.982355 21.399226 
L 80.678593 20.867208 
L 80.222845 20.240745 
L 80.172113 20.298695 
L 79.716365 21.120094 
L 79.665738 21.071876 
L 78.804869 20.03593 
L 78.652988 20.064462 
L 78.247867 20.299653 
L 77.893372 20.05274 
L 77.741491 20.147996 
L 77.386997 20.645067 
L 77.33637 20.602674 
L 76.981876 20.18803 
L 76.728741 20.221797 
L 76.526128 20.121306 
L 76.32362 20.402503 
L 76.07038 20.656864 
L 75.817245 20.593015 
L 75.462751 20.464287 
L 75.158884 20.653177 
L 74.753762 20.869273 
L 74.449895 20.579302 
L 74.399268 20.64057 
L 73.94352 21.29704 
L 73.791639 21.085 
L 73.589026 20.723071 
L 73.487772 20.846343 
L 73.285264 21.202374 
L 73.18401 21.032727 
L 72.829516 20.217742 
L 72.424395 20.391739 
L 72.120528 20.133398 
L 71.867287 20.082378 
L 71.563525 19.932343 
L 71.158404 19.984173 
L 70.854537 19.885673 
L 70.55067 19.701723 
L 70.044295 19.901967 
L 69.588547 19.616494 
L 69.234053 19.709169 
L 68.930291 19.672969 
L 68.474542 19.787689 
L 68.221302 19.872623 
L 67.816181 20.454408 
L 67.765554 20.378026 
L 67.41106 19.671716 
L 66.904685 20.227917 
L 66.702177 20.465835 
L 66.550191 20.26655 
L 66.347683 20.069402 
L 65.689322 20.417249 
L 65.436187 20.19872 
L 65.233573 20.125361 
L 64.929706 20.262716 
L 64.625944 20.101253 
L 64.27145 20.259914 
L 63.866329 19.979897 
L 63.562462 20.146448 
L 63.359954 19.829493 
L 63.106714 19.568202 
L 62.954833 19.854781 
L 62.549712 20.78714 
L 62.397831 20.810659 
L 62.245844 20.348977 
L 61.992709 19.655717 
L 61.89135 19.703861 
L 61.536961 20.128237 
L 61.182467 19.894963 
L 60.675987 20.53337 
L 60.321598 20.230571 
L 59.967104 20.514422 
L 59.511356 20.229833 
L 58.903621 20.057237 
L 58.599859 19.852275 
L 58.194738 19.910814 
L 57.840244 19.901598 
L 57.587109 20.165248 
L 57.283242 20.413857 
L 57.080629 20.37692 
L 56.827494 19.934555 
L 56.523627 19.540333 
L 56.21976 19.523081 
L 56.017252 19.767856 
L 55.713384 20.209337 
L 55.460249 20.014033 
L 55.004396 19.645395 
L 54.447394 19.856993 
L 53.991646 19.702902 
L 53.687884 19.952397 
L 53.181404 19.876605 
L 52.877642 20.041386 
L 52.118026 19.322837 
L 52.067399 19.389855 
L 51.763532 19.725168 
L 51.409038 19.632345 
L 49.889913 19.803614 
L 49.636673 19.594228 
L 49.180924 19.649597 
L 48.623922 19.692802 
L 48.218801 20.227695 
L 47.712426 19.88501 
L 47.256678 19.633377 
L 46.952811 19.843722 
L 46.952811 19.843722 
" clip-path="url(#p55a9530b8e)" style="fill: none; stroke: #1f77b4; stroke-width: 1.5; stroke-linecap: square"/>
   </g>
   <g id="patch_3">
    <path d="M 46.965625 273.312 
L 46.965625 7.2 
" style="fill: none; stroke: #000000; stroke-width: 0.8; stroke-linejoin: miter; stroke-linecap: square"/>
   </g>
   <g id="patch_4">
    <path d="M 404.085625 273.312 
L 404.085625 7.2 
" style="fill: none; stroke: #000000; stroke-width: 0.8; stroke-linejoin: miter; stroke-linecap: square"/>
   </g>
   <g id="patch_5">
    <path d="M 46.965625 273.312 
L 404.085625 273.312 
" style="fill: none; stroke: #000000; stroke-width: 0.8; stroke-linejoin: miter; stroke-linecap: square"/>
   </g>
   <g id="patch_6">
    <path d="M 46.965625 7.2 
L 404.085625 7.2 
" style="fill: none; stroke: #000000; stroke-width: 0.8; stroke-linejoin: miter; stroke-linecap: square"/>
   </g>
  </g>
 </g>
 <defs>
  <clipPath id="p55a9530b8e">
   <rect x="46.965625" y="7.2" width="357.12" height="266.112"/>
  </clipPath>
 </defs>
</svg>