<?xml version="1.0" encoding="utf-8" standalone="no"?>
<!DOCTYPE svg PUBLIC "-//W3C//DTD SVG 1.1//EN"
  "http://www.w3.org/Graphics/SVG/1.1/DTD/svg11.dtd">
<svg xmlns:xlink="http://www.w3.org/1999/xlink" width="936.465625pt" height="377.39625pt" viewBox="0 0 936.465625 377.39625" xmlns="http://www.w3.org/2000/svg" version="1.1">
 <metadata>
  <rdf:RDF xmlns:dc="http://purl.org/dc/elements/1.1/" xmlns:cc="http://creativecommons.org/ns#" xmlns:rdf="http://www.w3.org/1999/02/22-rdf-syntax-ns#">
   <cc:Work>
    <dc:type rdf:resource="http://purl.org/dc/dcmitype/StillImage"/>
    <dc:date>2023-06-10T11:34:50.464547</dc:date>
    <dc:format>image/svg+xml</dc:format>
    <dc:creator>
     <cc:Agent>
      <dc:title>Matplotlib v3.7.1, https://matplotlib.org/</dc:title>
     </cc:Agent>
    </dc:creator>
   </cc:Work>
  </rdf:RDF>
 </metadata>
 <defs>
  <style type="text/css">*{stroke-linejoin: round; stroke-linecap: butt}</style>
 </defs>
 <g id="figure_1">
  <g id="patch_1">
   <path d="M 0 377.39625 
L 936.465625 377.39625 
L 936.465625 0 
L 0 0 
z
" style="fill: #ffffff"/>
  </g>
  <g id="axes_1">
   <g id="patch_2">
    <path d="M 36.465625 339.84 
L 929.265625 339.84 
L 929.265625 7.2 
L 36.465625 7.2 
z
" style="fill: #ffffff"/>
   </g>
   <g id="matplotlib.axis_1">
    <g id="xtick_1">
     <g id="line2d_1">
      <defs>
       <path id="mfb66425c0c" d="M 0 0 
L 0 3.5 
" style="stroke: #000000; stroke-width: 0.8"/>
      </defs>
      <g>
       <use xlink:href="#mfb66425c0c" x="888.683807" y="339.84" style="stroke: #000000; stroke-width: 0.8"/>
      </g>
     </g>
     <g id="text_1">
      <!-- 0 -->
      <g transform="translate(885.502557 354.438438) scale(0.1 -0.1)">
       <defs>
        <path id="DejaVuSans-30" d="M 2034 4250 
Q 1547 4250 1301 3770 
Q 1056 3291 1056 2328 
Q 1056 1369 1301 889 
Q 1547 409 2034 409 
Q 2525 409 2770 889 
Q 3016 1369 3016 2328 
Q 3016 3291 2770 3770 
Q 2525 4250 2034 4250 
z
M 2034 4750 
Q 2819 4750 3233 4129 
Q 3647 3509 3647 2328 
Q 3647 1150 3233 529 
Q 2819 -91 2034 -91 
Q 1250 -91 836 529 
Q 422 1150 422 2328 
Q 422 3509 836 4129 
Q 1250 4750 2034 4750 
z
" transform="scale(0.015625)"/>
       </defs>
       <use xlink:href="#DejaVuSans-30"/>
      </g>
     </g>
    </g>
    <g id="xtick_2">
     <g id="line2d_2">
      <g>
       <use xlink:href="#mfb66425c0c" x="780.416283" y="339.84" style="stroke: #000000; stroke-width: 0.8"/>
      </g>
     </g>
     <g id="text_2">
      <!-- 2 -->
      <g transform="translate(777.235033 354.438438) scale(0.1 -0.1)">
       <defs>
        <path id="DejaVuSans-32" d="M 1228 531 
L 3431 531 
L 3431 0 
L 469 0 
L 469 531 
Q 828 903 1448 1529 
Q 2069 2156 2228 2338 
Q 2531 2678 2651 2914 
Q 2772 3150 2772 3378 
Q 2772 3750 2511 3984 
Q 2250 4219 1831 4219 
Q 1534 4219 1204 4116 
Q 875 4013 500 3803 
L 500 4441 
Q 881 4594 1212 4672 
Q 1544 4750 1819 4750 
Q 2544 4750 2975 4387 
Q 3406 4025 3406 3419 
Q 3406 3131 3298 2873 
Q 3191 2616 2906 2266 
Q 2828 2175 2409 1742 
Q 1991 1309 1228 531 
z
" transform="scale(0.015625)"/>
       </defs>
       <use xlink:href="#DejaVuSans-32"/>
      </g>
     </g>
    </g>
    <g id="xtick_3">
     <g id="line2d_3">
      <g>
       <use xlink:href="#mfb66425c0c" x="672.14876" y="339.84" style="stroke: #000000; stroke-width: 0.8"/>
      </g>
     </g>
     <g id="text_3">
      <!-- 4 -->
      <g transform="translate(668.96751 354.438438) scale(0.1 -0.1)">
       <defs>
        <path id="DejaVuSans-34" d="M 2419 4116 
L 825 1625 
L 2419 1625 
L 2419 4116 
z
M 2253 4666 
L 3047 4666 
L 3047 1625 
L 3713 1625 
L 3713 1100 
L 3047 1100 
L 3047 0 
L 2419 0 
L 2419 1100 
L 313 1100 
L 313 1709 
L 2253 4666 
z
" transform="scale(0.015625)"/>
       </defs>
       <use xlink:href="#DejaVuSans-34"/>
      </g>
     </g>
    </g>
    <g id="xtick_4">
     <g id="line2d_4">
      <g>
       <use xlink:href="#mfb66425c0c" x="563.881236" y="339.84" style="stroke: #000000; stroke-width: 0.8"/>
      </g>
     </g>
     <g id="text_4">
      <!-- 6 -->
      <g transform="translate(560.699986 354.438438) scale(0.1 -0.1)">
       <defs>
        <path id="DejaVuSans-36" d="M 2113 2584 
Q 1688 2584 1439 2293 
Q 1191 2003 1191 1497 
Q 1191 994 1439 701 
Q 1688 409 2113 409 
Q 2538 409 2786 701 
Q 3034 994 3034 1497 
Q 3034 2003 2786 2293 
Q 2538 2584 2113 2584 
z
M 3366 4563 
L 3366 3988 
Q 3128 4100 2886 4159 
Q 2644 4219 2406 4219 
Q 1781 4219 1451 3797 
Q 1122 3375 1075 2522 
Q 1259 2794 1537 2939 
Q 1816 3084 2150 3084 
Q 2853 3084 3261 2657 
Q 3669 2231 3669 1497 
Q 3669 778 3244 343 
Q 2819 -91 2113 -91 
Q 1303 -91 875 529 
Q 447 1150 447 2328 
Q 447 3434 972 4092 
Q 1497 4750 2381 4750 
Q 2619 4750 2861 4703 
Q 3103 4656 3366 4563 
z
" transform="scale(0.015625)"/>
       </defs>
       <use xlink:href="#DejaVuSans-36"/>
      </g>
     </g>
    </g>
    <g id="xtick_5">
     <g id="line2d_5">
      <g>
       <use xlink:href="#mfb66425c0c" x="455.613713" y="339.84" style="stroke: #000000; stroke-width: 0.8"/>
      </g>
     </g>
     <g id="text_5">
      <!-- 8 -->
      <g transform="translate(452.432463 354.438438) scale(0.1 -0.1)">
       <defs>
        <path id="DejaVuSans-38" d="M 2034 2216 
Q 1584 2216 1326 1975 
Q 1069 1734 1069 1313 
Q 1069 891 1326 650 
Q 1584 409 2034 409 
Q 2484 409 2743 651 
Q 3003 894 3003 1313 
Q 3003 1734 2745 1975 
Q 2488 2216 2034 2216 
z
M 1403 2484 
Q 997 2584 770 2862 
Q 544 3141 544 3541 
Q 544 4100 942 4425 
Q 1341 4750 2034 4750 
Q 2731 4750 3128 4425 
Q 3525 4100 3525 3541 
Q 3525 3141 3298 2862 
Q 3072 2584 2669 2484 
Q 3125 2378 3379 2068 
Q 3634 1759 3634 1313 
Q 3634 634 3220 271 
Q 2806 -91 2034 -91 
Q 1263 -91 848 271 
Q 434 634 434 1313 
Q 434 1759 690 2068 
Q 947 2378 1403 2484 
z
M 1172 3481 
Q 1172 3119 1398 2916 
Q 1625 2713 2034 2713 
Q 2441 2713 2670 2916 
Q 2900 3119 2900 3481 
Q 2900 3844 2670 4047 
Q 2441 4250 2034 4250 
Q 1625 4250 1398 4047 
Q 1172 3844 1172 3481 
z
" transform="scale(0.015625)"/>
       </defs>
       <use xlink:href="#DejaVuSans-38"/>
      </g>
     </g>
    </g>
    <g id="xtick_6">
     <g id="line2d_6">
      <g>
       <use xlink:href="#mfb66425c0c" x="347.346189" y="339.84" style="stroke: #000000; stroke-width: 0.8"/>
      </g>
     </g>
     <g id="text_6">
      <!-- 10 -->
      <g transform="translate(340.983689 354.438438) scale(0.1 -0.1)">
       <defs>
        <path id="DejaVuSans-31" d="M 794 531 
L 1825 531 
L 1825 4091 
L 703 3866 
L 703 4441 
L 1819 4666 
L 2450 4666 
L 2450 531 
L 3481 531 
L 3481 0 
L 794 0 
L 794 531 
z
" transform="scale(0.015625)"/>
       </defs>
       <use xlink:href="#DejaVuSans-31"/>
       <use xlink:href="#DejaVuSans-30" x="63.623047"/>
      </g>
     </g>
    </g>
    <g id="xtick_7">
     <g id="line2d_7">
      <g>
       <use xlink:href="#mfb66425c0c" x="239.078666" y="339.84" style="stroke: #000000; stroke-width: 0.8"/>
      </g>
     </g>
     <g id="text_7">
      <!-- 12 -->
      <g transform="translate(232.716166 354.438438) scale(0.1 -0.1)">
       <use xlink:href="#DejaVuSans-31"/>
       <use xlink:href="#DejaVuSans-32" x="63.623047"/>
      </g>
     </g>
    </g>
    <g id="xtick_8">
     <g id="line2d_8">
      <g>
       <use xlink:href="#mfb66425c0c" x="130.811143" y="339.84" style="stroke: #000000; stroke-width: 0.8"/>
      </g>
     </g>
     <g id="text_8">
      <!-- 14 -->
      <g transform="translate(124.448643 354.438438) scale(0.1 -0.1)">
       <use xlink:href="#DejaVuSans-31"/>
       <use xlink:href="#DejaVuSans-34" x="63.623047"/>
      </g>
     </g>
    </g>
    <g id="text_9">
     <!-- Chemical Shift, ppm -->
     <g transform="translate(432.316406 368.116562) scale(0.1 -0.1)">
      <defs>
       <path id="DejaVuSans-43" d="M 4122 4306 
L 4122 3641 
Q 3803 3938 3442 4084 
Q 3081 4231 2675 4231 
Q 1875 4231 1450 3742 
Q 1025 3253 1025 2328 
Q 1025 1406 1450 917 
Q 1875 428 2675 428 
Q 3081 428 3442 575 
Q 3803 722 4122 1019 
L 4122 359 
Q 3791 134 3420 21 
Q 3050 -91 2638 -91 
Q 1578 -91 968 557 
Q 359 1206 359 2328 
Q 359 3453 968 4101 
Q 1578 4750 2638 4750 
Q 3056 4750 3426 4639 
Q 3797 4528 4122 4306 
z
" transform="scale(0.015625)"/>
       <path id="DejaVuSans-68" d="M 3513 2113 
L 3513 0 
L 2938 0 
L 2938 2094 
Q 2938 2591 2744 2837 
Q 2550 3084 2163 3084 
Q 1697 3084 1428 2787 
Q 1159 2491 1159 1978 
L 1159 0 
L 581 0 
L 581 4863 
L 1159 4863 
L 1159 2956 
Q 1366 3272 1645 3428 
Q 1925 3584 2291 3584 
Q 2894 3584 3203 3211 
Q 3513 2838 3513 2113 
z
" transform="scale(0.015625)"/>
       <path id="DejaVuSans-65" d="M 3597 1894 
L 3597 1613 
L 953 1613 
Q 991 1019 1311 708 
Q 1631 397 2203 397 
Q 2534 397 2845 478 
Q 3156 559 3463 722 
L 3463 178 
Q 3153 47 2828 -22 
Q 2503 -91 2169 -91 
Q 1331 -91 842 396 
Q 353 884 353 1716 
Q 353 2575 817 3079 
Q 1281 3584 2069 3584 
Q 2775 3584 3186 3129 
Q 3597 2675 3597 1894 
z
M 3022 2063 
Q 3016 2534 2758 2815 
Q 2500 3097 2075 3097 
Q 1594 3097 1305 2825 
Q 1016 2553 972 2059 
L 3022 2063 
z
" transform="scale(0.015625)"/>
       <path id="DejaVuSans-6d" d="M 3328 2828 
Q 3544 3216 3844 3400 
Q 4144 3584 4550 3584 
Q 5097 3584 5394 3201 
Q 5691 2819 5691 2113 
L 5691 0 
L 5113 0 
L 5113 2094 
Q 5113 2597 4934 2840 
Q 4756 3084 4391 3084 
Q 3944 3084 3684 2787 
Q 3425 2491 3425 1978 
L 3425 0 
L 2847 0 
L 2847 2094 
Q 2847 2600 2669 2842 
Q 2491 3084 2119 3084 
Q 1678 3084 1418 2786 
Q 1159 2488 1159 1978 
L 1159 0 
L 581 0 
L 581 3500 
L 1159 3500 
L 1159 2956 
Q 1356 3278 1631 3431 
Q 1906 3584 2284 3584 
Q 2666 3584 2933 3390 
Q 3200 3197 3328 2828 
z
" transform="scale(0.015625)"/>
       <path id="DejaVuSans-69" d="M 603 3500 
L 1178 3500 
L 1178 0 
L 603 0 
L 603 3500 
z
M 603 4863 
L 1178 4863 
L 1178 4134 
L 603 4134 
L 603 4863 
z
" transform="scale(0.015625)"/>
       <path id="DejaVuSans-63" d="M 3122 3366 
L 3122 2828 
Q 2878 2963 2633 3030 
Q 2388 3097 2138 3097 
Q 1578 3097 1268 2742 
Q 959 2388 959 1747 
Q 959 1106 1268 751 
Q 1578 397 2138 397 
Q 2388 397 2633 464 
Q 2878 531 3122 666 
L 3122 134 
Q 2881 22 2623 -34 
Q 2366 -91 2075 -91 
Q 1284 -91 818 406 
Q 353 903 353 1747 
Q 353 2603 823 3093 
Q 1294 3584 2113 3584 
Q 2378 3584 2631 3529 
Q 2884 3475 3122 3366 
z
" transform="scale(0.015625)"/>
       <path id="DejaVuSans-61" d="M 2194 1759 
Q 1497 1759 1228 1600 
Q 959 1441 959 1056 
Q 959 750 1161 570 
Q 1363 391 1709 391 
Q 2188 391 2477 730 
Q 2766 1069 2766 1631 
L 2766 1759 
L 2194 1759 
z
M 3341 1997 
L 3341 0 
L 2766 0 
L 2766 531 
Q 2569 213 2275 61 
Q 1981 -91 1556 -91 
Q 1019 -91 701 211 
Q 384 513 384 1019 
Q 384 1609 779 1909 
Q 1175 2209 1959 2209 
L 2766 2209 
L 2766 2266 
Q 2766 2663 2505 2880 
Q 2244 3097 1772 3097 
Q 1472 3097 1187 3025 
Q 903 2953 641 2809 
L 641 3341 
Q 956 3463 1253 3523 
Q 1550 3584 1831 3584 
Q 2591 3584 2966 3190 
Q 3341 2797 3341 1997 
z
" transform="scale(0.015625)"/>
       <path id="DejaVuSans-6c" d="M 603 4863 
L 1178 4863 
L 1178 0 
L 603 0 
L 603 4863 
z
" transform="scale(0.015625)"/>
       <path id="DejaVuSans-20" transform="scale(0.015625)"/>
       <path id="DejaVuSans-53" d="M 3425 4513 
L 3425 3897 
Q 3066 4069 2747 4153 
Q 2428 4238 2131 4238 
Q 1616 4238 1336 4038 
Q 1056 3838 1056 3469 
Q 1056 3159 1242 3001 
Q 1428 2844 1947 2747 
L 2328 2669 
Q 3034 2534 3370 2195 
Q 3706 1856 3706 1288 
Q 3706 609 3251 259 
Q 2797 -91 1919 -91 
Q 1588 -91 1214 -16 
Q 841 59 441 206 
L 441 856 
Q 825 641 1194 531 
Q 1563 422 1919 422 
Q 2459 422 2753 634 
Q 3047 847 3047 1241 
Q 3047 1584 2836 1778 
Q 2625 1972 2144 2069 
L 1759 2144 
Q 1053 2284 737 2584 
Q 422 2884 422 3419 
Q 422 4038 858 4394 
Q 1294 4750 2059 4750 
Q 2388 4750 2728 4690 
Q 3069 4631 3425 4513 
z
" transform="scale(0.015625)"/>
       <path id="DejaVuSans-66" d="M 2375 4863 
L 2375 4384 
L 1825 4384 
Q 1516 4384 1395 4259 
Q 1275 4134 1275 3809 
L 1275 3500 
L 2222 3500 
L 2222 3053 
L 1275 3053 
L 1275 0 
L 697 0 
L 697 3053 
L 147 3053 
L 147 3500 
L 697 3500 
L 697 3744 
Q 697 4328 969 4595 
Q 1241 4863 1831 4863 
L 2375 4863 
z
" transform="scale(0.015625)"/>
       <path id="DejaVuSans-74" d="M 1172 4494 
L 1172 3500 
L 2356 3500 
L 2356 3053 
L 1172 3053 
L 1172 1153 
Q 1172 725 1289 603 
Q 1406 481 1766 481 
L 2356 481 
L 2356 0 
L 1766 0 
Q 1100 0 847 248 
Q 594 497 594 1153 
L 594 3053 
L 172 3053 
L 172 3500 
L 594 3500 
L 594 4494 
L 1172 4494 
z
" transform="scale(0.015625)"/>
       <path id="DejaVuSans-2c" d="M 750 794 
L 1409 794 
L 1409 256 
L 897 -744 
L 494 -744 
L 750 256 
L 750 794 
z
" transform="scale(0.015625)"/>
       <path id="DejaVuSans-70" d="M 1159 525 
L 1159 -1331 
L 581 -1331 
L 581 3500 
L 1159 3500 
L 1159 2969 
Q 1341 3281 1617 3432 
Q 1894 3584 2278 3584 
Q 2916 3584 3314 3078 
Q 3713 2572 3713 1747 
Q 3713 922 3314 415 
Q 2916 -91 2278 -91 
Q 1894 -91 1617 61 
Q 1341 213 1159 525 
z
M 3116 1747 
Q 3116 2381 2855 2742 
Q 2594 3103 2138 3103 
Q 1681 3103 1420 2742 
Q 1159 2381 1159 1747 
Q 1159 1113 1420 752 
Q 1681 391 2138 391 
Q 2594 391 2855 752 
Q 3116 1113 3116 1747 
z
" transform="scale(0.015625)"/>
      </defs>
      <use xlink:href="#DejaVuSans-43"/>
      <use xlink:href="#DejaVuSans-68" x="69.824219"/>
      <use xlink:href="#DejaVuSans-65" x="133.203125"/>
      <use xlink:href="#DejaVuSans-6d" x="194.726562"/>
      <use xlink:href="#DejaVuSans-69" x="292.138672"/>
      <use xlink:href="#DejaVuSans-63" x="319.921875"/>
      <use xlink:href="#DejaVuSans-61" x="374.902344"/>
      <use xlink:href="#DejaVuSans-6c" x="436.181641"/>
      <use xlink:href="#DejaVuSans-20" x="463.964844"/>
      <use xlink:href="#DejaVuSans-53" x="495.751953"/>
      <use xlink:href="#DejaVuSans-68" x="559.228516"/>
      <use xlink:href="#DejaVuSans-69" x="622.607422"/>
      <use xlink:href="#DejaVuSans-66" x="650.390625"/>
      <use xlink:href="#DejaVuSans-74" x="683.845703"/>
      <use xlink:href="#DejaVuSans-2c" x="723.054688"/>
      <use xlink:href="#DejaVuSans-20" x="754.841797"/>
      <use xlink:href="#DejaVuSans-70" x="786.628906"/>
      <use xlink:href="#DejaVuSans-70" x="850.105469"/>
      <use xlink:href="#DejaVuSans-6d" x="913.582031"/>
     </g>
    </g>
   </g>
   <g id="matplotlib.axis_2">
    <g id="ytick_1">
     <g id="line2d_9">
      <defs>
       <path id="mf46c2e933f" d="M 0 0 
L -3.5 0 
" style="stroke: #000000; stroke-width: 0.8"/>
      </defs>
      <g>
       <use xlink:href="#mf46c2e933f" x="36.465625" y="323.958436" style="stroke: #000000; stroke-width: 0.8"/>
      </g>
     </g>
     <g id="text_10">
      <!-- 0.00 -->
      <g transform="translate(7.2 327.757655) scale(0.1 -0.1)">
       <defs>
        <path id="DejaVuSans-2e" d="M 684 794 
L 1344 794 
L 1344 0 
L 684 0 
L 684 794 
z
" transform="scale(0.015625)"/>
       </defs>
       <use xlink:href="#DejaVuSans-30"/>
       <use xlink:href="#DejaVuSans-2e" x="63.623047"/>
       <use xlink:href="#DejaVuSans-30" x="95.410156"/>
       <use xlink:href="#DejaVuSans-30" x="159.033203"/>
      </g>
     </g>
    </g>
    <g id="ytick_2">
     <g id="line2d_10">
      <g>
       <use xlink:href="#mf46c2e933f" x="36.465625" y="280.917118" style="stroke: #000000; stroke-width: 0.8"/>
      </g>
     </g>
     <g id="text_11">
      <!-- 0.25 -->
      <g transform="translate(7.2 284.716337) scale(0.1 -0.1)">
       <defs>
        <path id="DejaVuSans-35" d="M 691 4666 
L 3169 4666 
L 3169 4134 
L 1269 4134 
L 1269 2991 
Q 1406 3038 1543 3061 
Q 1681 3084 1819 3084 
Q 2600 3084 3056 2656 
Q 3513 2228 3513 1497 
Q 3513 744 3044 326 
Q 2575 -91 1722 -91 
Q 1428 -91 1123 -41 
Q 819 9 494 109 
L 494 744 
Q 775 591 1075 516 
Q 1375 441 1709 441 
Q 2250 441 2565 725 
Q 2881 1009 2881 1497 
Q 2881 1984 2565 2268 
Q 2250 2553 1709 2553 
Q 1456 2553 1204 2497 
Q 953 2441 691 2322 
L 691 4666 
z
" transform="scale(0.015625)"/>
       </defs>
       <use xlink:href="#DejaVuSans-30"/>
       <use xlink:href="#DejaVuSans-2e" x="63.623047"/>
       <use xlink:href="#DejaVuSans-32" x="95.410156"/>
       <use xlink:href="#DejaVuSans-35" x="159.033203"/>
      </g>
     </g>
    </g>
    <g id="ytick_3">
     <g id="line2d_11">
      <g>
       <use xlink:href="#mf46c2e933f" x="36.465625" y="237.8758" style="stroke: #000000; stroke-width: 0.8"/>
      </g>
     </g>
     <g id="text_12">
      <!-- 0.50 -->
      <g transform="translate(7.2 241.675019) scale(0.1 -0.1)">
       <use xlink:href="#DejaVuSans-30"/>
       <use xlink:href="#DejaVuSans-2e" x="63.623047"/>
       <use xlink:href="#DejaVuSans-35" x="95.410156"/>
       <use xlink:href="#DejaVuSans-30" x="159.033203"/>
      </g>
     </g>
    </g>
    <g id="ytick_4">
     <g id="line2d_12">
      <g>
       <use xlink:href="#mf46c2e933f" x="36.465625" y="194.834482" style="stroke: #000000; stroke-width: 0.8"/>
      </g>
     </g>
     <g id="text_13">
      <!-- 0.75 -->
      <g transform="translate(7.2 198.633701) scale(0.1 -0.1)">
       <defs>
        <path id="DejaVuSans-37" d="M 525 4666 
L 3525 4666 
L 3525 4397 
L 1831 0 
L 1172 0 
L 2766 4134 
L 525 4134 
L 525 4666 
z
" transform="scale(0.015625)"/>
       </defs>
       <use xlink:href="#DejaVuSans-30"/>
       <use xlink:href="#DejaVuSans-2e" x="63.623047"/>
       <use xlink:href="#DejaVuSans-37" x="95.410156"/>
       <use xlink:href="#DejaVuSans-35" x="159.033203"/>
      </g>
     </g>
    </g>
    <g id="ytick_5">
     <g id="line2d_13">
      <g>
       <use xlink:href="#mf46c2e933f" x="36.465625" y="151.793164" style="stroke: #000000; stroke-width: 0.8"/>
      </g>
     </g>
     <g id="text_14">
      <!-- 1.00 -->
      <g transform="translate(7.2 155.592383) scale(0.1 -0.1)">
       <use xlink:href="#DejaVuSans-31"/>
       <use xlink:href="#DejaVuSans-2e" x="63.623047"/>
       <use xlink:href="#DejaVuSans-30" x="95.410156"/>
       <use xlink:href="#DejaVuSans-30" x="159.033203"/>
      </g>
     </g>
    </g>
    <g id="ytick_6">
     <g id="line2d_14">
      <g>
       <use xlink:href="#mf46c2e933f" x="36.465625" y="108.751847" style="stroke: #000000; stroke-width: 0.8"/>
      </g>
     </g>
     <g id="text_15">
      <!-- 1.25 -->
      <g transform="translate(7.2 112.551065) scale(0.1 -0.1)">
       <use xlink:href="#DejaVuSans-31"/>
       <use xlink:href="#DejaVuSans-2e" x="63.623047"/>
       <use xlink:href="#DejaVuSans-32" x="95.410156"/>
       <use xlink:href="#DejaVuSans-35" x="159.033203"/>
      </g>
     </g>
    </g>
    <g id="ytick_7">
     <g id="line2d_15">
      <g>
       <use xlink:href="#mf46c2e933f" x="36.465625" y="65.710529" style="stroke: #000000; stroke-width: 0.8"/>
      </g>
     </g>
     <g id="text_16">
      <!-- 1.50 -->
      <g transform="translate(7.2 69.509747) scale(0.1 -0.1)">
       <use xlink:href="#DejaVuSans-31"/>
       <use xlink:href="#DejaVuSans-2e" x="63.623047"/>
       <use xlink:href="#DejaVuSans-35" x="95.410156"/>
       <use xlink:href="#DejaVuSans-30" x="159.033203"/>
      </g>
     </g>
    </g>
    <g id="ytick_8">
     <g id="line2d_16">
      <g>
       <use xlink:href="#mf46c2e933f" x="36.465625" y="22.669211" style="stroke: #000000; stroke-width: 0.8"/>
      </g>
     </g>
     <g id="text_17">
      <!-- 1.75 -->
      <g transform="translate(7.2 26.46843) scale(0.1 -0.1)">
       <use xlink:href="#DejaVuSans-31"/>
       <use xlink:href="#DejaVuSans-2e" x="63.623047"/>
       <use xlink:href="#DejaVuSans-37" x="95.410156"/>
       <use xlink:href="#DejaVuSans-35" x="159.033203"/>
      </g>
     </g>
    </g>
   </g>
   <g id="line2d_17">
    <path d="M 888.683807 324.379839 
L 888.55995 324.177503 
L 887.011734 324.175022 
L 883.234089 324.176352 
L 882.30516 324.174389 
L 881.252374 324.168163 
L 879.146801 324.171368 
L 855.366215 324.164648 
L 854.313428 324.17228 
L 853.136785 324.165816 
L 843.10435 324.162529 
L 835.734845 324.166717 
L 834.805916 324.157411 
L 833.629272 324.160081 
L 827.436411 324.154573 
L 825.826268 324.155271 
L 824.773481 324.158752 
L 751.635793 323.892332 
L 750.830721 323.318784 
L 750.521078 322.841269 
L 750.211435 321.755531 
L 750.025649 319.610547 
L 749.901792 317.2485 
L 749.716006 320.959897 
L 749.53022 321.169327 
L 749.406363 321.013669 
L 749.282506 319.737905 
L 749.220577 317.888879 
L 749.158648 312.219551 
L 748.972862 322.919768 
L 748.787077 323.514471 
L 748.725148 323.477464 
L 748.477434 323.904338 
L 747.858148 324.058133 
L 746.186075 324.112571 
L 717.0177 324.006433 
L 710.019767 323.94756 
L 709.338552 323.936128 
L 706.180193 323.885412 
L 705.003549 323.859475 
L 704.570049 323.858975 
L 693.360971 323.420069 
L 692.989399 323.252715 
L 692.803613 322.955952 
L 692.617827 323.177212 
L 692.308184 323.014734 
L 692.122398 322.400591 
L 691.998541 322.955955 
L 691.874684 322.679526 
L 691.812755 322.33016 
L 691.750827 322.575694 
L 691.565041 322.894786 
L 691.317327 322.80915 
L 691.193469 322.367826 
L 691.131541 321.725574 
L 691.069612 322.04743 
L 690.945755 322.93249 
L 690.821898 322.791468 
L 690.759969 322.6657 
L 690.574183 322.9876 
L 690.26454 322.934723 
L 690.140683 322.643912 
L 690.078754 322.294207 
L 689.892968 323.061322 
L 689.39754 323.040404 
L 688.220896 322.768497 
L 687.106181 322.282294 
L 686.486895 321.79564 
L 686.053395 321.155151 
L 685.743752 320.103012 
L 685.37218 317.483945 
L 685.062537 314.3182 
L 684.814822 309.790448 
L 684.567108 300.378308 
L 684.381322 284.874388 
L 684.257465 257.583437 
L 684.195536 227.773225 
L 684.133608 241.962074 
L 683.947822 271.187663 
L 683.823965 266.92563 
L 683.700107 257.454584 
L 683.57625 216.263729 
L 683.514322 163.315282 
L 683.452393 170.506397 
L 683.328536 239.498491 
L 683.204679 184.014614 
L 683.14275 130.210483 
L 682.956964 237.738004 
L 682.895036 240.695187 
L 682.833107 240.257401 
L 682.70925 235.491049 
L 682.647321 223.633564 
L 682.523464 137.987487 
L 682.461535 22.32 
L 682.275749 255.345132 
L 682.213821 249.701135 
L 682.089964 220.88346 
L 681.904178 275.881182 
L 681.718392 279.301564 
L 681.656463 278.105936 
L 681.532606 251.75977 
L 681.408749 173.115411 
L 681.222963 305.252291 
L 680.91332 316.71012 
L 680.541748 320.440992 
L 680.108248 322.312985 
L 679.736676 323.148382 
L 679.179319 323.831902 
L 678.436176 324.256508 
L 677.135675 324.53049 
L 675.897103 324.405935 
L 675.773245 324.234354 
L 675.711317 324.073174 
L 675.525531 324.353761 
L 675.215888 324.264199 
L 675.092031 323.987649 
L 675.030102 323.609129 
L 674.906245 324.181253 
L 674.844316 324.138104 
L 674.65853 323.607767 
L 674.472745 324.159163 
L 674.22503 324.10961 
L 674.101173 323.791552 
L 673.977316 322.879108 
L 673.79153 324.241357 
L 673.667673 324.005258 
L 673.605744 324.133836 
L 673.419958 324.353437 
L 673.172244 324.333292 
L 673.048387 324.108806 
L 672.986458 323.79262 
L 672.924529 323.941465 
L 672.800672 324.420791 
L 672.676815 324.377596 
L 672.367172 323.710476 
L 672.181386 322.86233 
L 671.9956 318.716616 
L 671.871743 322.583561 
L 671.809814 322.514749 
L 671.747886 322.221588 
L 671.5621 324.327552 
L 671.376314 324.556143 
L 670.818957 324.573969 
L 666.360097 324.520659 
L 665.493096 324.509152 
L 663.697166 324.473024 
L 662.025094 324.44113 
L 661.158093 324.435396 
L 659.733735 324.421801 
L 657.875877 324.405947 
L 645.861727 324.332452 
L 644.37544 324.317493 
L 637.067864 324.277446 
L 630.936932 324.238481 
L 624.434428 324.180773 
L 623.691284 324.167616 
L 622.390783 324.144456 
L 621.709569 324.146623 
L 617.498423 324.006788 
L 616.135994 323.61914 
L 616.012137 323.620645 
L 615.826351 323.72753 
L 615.640565 323.6704 
L 615.392851 323.401605 
L 615.207065 323.657538 
L 615.021279 323.550671 
L 614.711636 323.695829 
L 614.587779 323.636598 
L 614.401993 323.39215 
L 614.030421 323.740936 
L 612.420277 323.759519 
L 610.810133 323.446802 
L 610.314705 323.208673 
L 609.943133 322.737604 
L 609.447704 321.32812 
L 609.19999 320.056123 
L 608.952275 317.512478 
L 608.766489 313.485314 
L 608.580703 302.757865 
L 608.456846 295.056613 
L 608.209132 302.229605 
L 608.147203 301.336688 
L 608.023346 296.270675 
L 607.775632 273.159216 
L 607.651774 280.731502 
L 607.527917 261.981855 
L 607.40406 249.563052 
L 607.156345 276.261276 
L 607.094417 275.183094 
L 606.97056 262.546734 
L 606.784774 214.508829 
L 606.598988 266.396108 
L 606.475131 254.395444 
L 606.413202 247.680808 
L 606.351273 251.951672 
L 606.103559 279.817664 
L 606.04163 279.112254 
L 605.917773 265.048635 
L 605.731987 228.892064 
L 605.484273 293.275177 
L 605.422344 291.808992 
L 605.360416 292.191284 
L 605.050773 307.008468 
L 604.988844 306.962823 
L 604.926915 305.590038 
L 604.74113 291.562633 
L 604.679201 294.2537 
L 604.431487 318.104389 
L 604.121844 321.368036 
L 603.750272 322.601884 
L 603.316772 323.312943 
L 602.821343 323.723809 
L 602.016271 324.085293 
L 600.529984 324.302189 
L 598.795983 324.13745 
L 598.548269 324.113969 
L 598.300554 323.837618 
L 598.114768 324.11629 
L 598.05284 324.07409 
L 597.928983 324.007827 
L 597.619339 324.188451 
L 597.495482 324.147887 
L 597.309696 323.897282 
L 597.247768 323.956496 
L 597.000053 324.270281 
L 596.69041 324.346072 
L 596.318839 324.276552 
L 596.133053 324.361461 
L 595.82341 324.428843 
L 595.018338 324.443 
L 593.965551 324.437003 
L 590.249835 324.434942 
L 589.073191 324.428231 
L 587.958476 324.414359 
L 584.985903 324.407142 
L 582.508759 324.398764 
L 580.836686 324.398147 
L 578.669185 324.387696 
L 576.873255 324.38189 
L 575.634683 324.376027 
L 571.73318 324.374268 
L 570.123037 324.36379 
L 562.38196 324.28916 
L 562.134246 324.31491 
L 560.338316 324.312526 
L 559.904816 324.336386 
L 551.420596 324.332545 
L 550.120096 324.338143 
L 549.129238 324.326568 
L 547.642951 324.335153 
L 546.961736 324.326444 
L 543.184091 324.330441 
L 533.151656 324.322617 
L 531.851156 324.320681 
L 530.674512 324.320202 
L 527.020724 324.322623 
L 505.531496 324.31536 
L 504.602567 324.30838 
L 503.054352 324.312578 
L 499.772136 324.311361 
L 496.056419 324.309109 
L 491.349845 324.31135 
L 487.819914 324.30949 
L 485.342769 324.307595 
L 484.351912 324.312995 
L 482.865625 324.310353 
L 476.610835 324.308787 
L 473.762119 324.307348 
L 468.436259 324.307047 
L 466.888044 324.308218 
L 462.057612 324.311799 
L 458.837324 324.309761 
L 454.192679 324.305107 
L 452.520606 324.309302 
L 447.87596 324.312968 
L 445.584602 324.322221 
L 442.859743 324.313773 
L 428.368448 324.326426 
L 427.067947 324.325191 
L 426.262875 324.331752 
L 425.333946 324.327487 
L 422.547159 324.334698 
L 421.865944 324.325421 
L 418.769514 324.341761 
L 417.840584 324.336902 
L 410.161437 324.348482 
L 407.684292 324.353686 
L 405.640648 324.352319 
L 402.977718 324.364454 
L 401.615289 324.369863 
L 399.571644 324.371324 
L 398.209215 324.373388 
L 393.378783 324.385971 
L 375.976844 324.522557 
L 374.8002 324.532823 
L 372.57077 324.309196 
L 372.13727 324.132595 
L 371.765699 324.092859 
L 371.394127 323.986965 
L 371.146412 323.956888 
L 370.34134 324.102403 
L 370.217483 324.115605 
L 369.536269 324.58832 
L 368.545411 324.600446 
L 367.988053 324.533141 
L 367.616482 324.450456 
L 367.368767 324.316012 
L 366.377909 324.30042 
L 365.696695 324.425041 
L 365.634766 324.31487 
L 365.572838 324.375921 
L 365.325123 324.642065 
L 365.077409 324.72 
L 364.705837 324.621708 
L 364.334265 324.208446 
L 364.024622 323.629944 
L 363.776908 322.687101 
L 363.529193 320.555661 
L 363.281479 314.292694 
L 363.095693 309.499043 
L 363.033765 310.181782 
L 362.78605 308.612217 
L 362.166764 280.142246 
L 362.104835 281.098047 
L 361.980978 284.540552 
L 361.733264 276.551548 
L 361.609406 259.9522 
L 361.423621 232.374741 
L 361.361692 232.294072 
L 361.237835 219.788336 
L 361.175906 222.158669 
L 360.928192 241.49655 
L 360.866263 238.956727 
L 360.55662 195.730352 
L 360.432763 205.166164 
L 360.308906 200.311663 
L 360.061191 232.064207 
L 359.875405 243.032257 
L 359.813477 238.766462 
L 359.68962 207.669758 
L 359.627691 207.719446 
L 358.946476 310.400533 
L 358.698762 314.236177 
L 358.451047 315.353242 
L 358.32719 315.510965 
L 358.203333 315.240669 
L 358.017547 314.34793 
L 357.831761 312.008024 
L 357.645975 306.604663 
L 357.46019 291.549436 
L 357.212475 261.357468 
L 357.088618 276.502973 
L 357.026689 274.206735 
L 356.840903 266.441691 
L 356.717046 246.728508 
L 356.593189 223.729389 
L 356.469332 251.804081 
L 356.407403 247.1297 
L 356.283546 234.786224 
L 355.973903 264.823854 
L 355.911974 263.314936 
L 355.602331 221.434788 
L 355.540403 231.09124 
L 355.106902 286.386274 
L 354.921117 294.746046 
L 354.797259 290.583085 
L 354.735331 292.784155 
L 354.611474 280.513971 
L 354.549545 284.58594 
L 354.239902 313.010231 
L 353.930259 316.917858 
L 353.558687 319.027899 
L 353.063258 320.441227 
L 352.567829 321.192944 
L 352.320115 321.306846 
L 352.196258 321.228427 
L 352.010472 321.616148 
L 351.824686 321.6963 
L 351.700829 321.634588 
L 351.576972 321.380396 
L 351.391186 321.963832 
L 350.957686 322.076616 
L 350.524185 322.040255 
L 350.276471 322.163766 
L 350.028756 322.189809 
L 349.595256 322.529645 
L 349.223684 322.690291 
L 349.037899 322.735816 
L 348.418613 323.195542 
L 347.365826 323.35202 
L 346.251111 323.181071 
L 345.87954 323.141992 
L 345.507968 323.188282 
L 345.322182 323.178211 
L 345.136396 323.06772 
L 345.012539 323.113639 
L 344.764825 323.303643 
L 344.579039 323.396261 
L 343.959753 323.48488 
L 343.835895 323.553634 
L 343.588181 323.664677 
L 338.695821 323.889686 
L 336.96182 323.921023 
L 331.883674 324.002169 
L 330.149673 324.017183 
L 327.982171 324.036754 
L 314.295948 324.106563 
L 313.057376 324.104445 
L 310.951803 324.122537 
L 309.713231 324.113524 
L 305.873657 324.133487 
L 77.047443 324.202634 
L 77.047443 324.202634 
" clip-path="url(#pb596bb7c09)" style="fill: none; stroke: #1f77b4; stroke-width: 1.5; stroke-linecap: square"/>
   </g>
   <g id="patch_3">
    <path d="M 36.465625 339.84 
L 36.465625 7.2 
" style="fill: none; stroke: #000000; stroke-width: 0.8; stroke-linejoin: miter; stroke-linecap: square"/>
   </g>
   <g id="patch_4">
    <path d="M 929.265625 339.84 
L 929.265625 7.2 
" style="fill: none; stroke: #000000; stroke-width: 0.8; stroke-linejoin: miter; stroke-linecap: square"/>
   </g>
   <g id="patch_5">
    <path d="M 36.465625 339.84 
L 929.265625 339.84 
" style="fill: none; stroke: #000000; stroke-width: 0.8; stroke-linejoin: miter; stroke-linecap: square"/>
   </g>
   <g id="patch_6">
    <path d="M 36.465625 7.2 
L 929.265625 7.2 
" style="fill: none; stroke: #000000; stroke-width: 0.8; stroke-linejoin: miter; stroke-linecap: square"/>
   </g>
  </g>
 </g>
 <defs>
  <clipPath id="pb596bb7c09">
   <rect x="36.465625" y="7.2" width="892.8" height="332.64"/>
  </clipPath>
 </defs>
</svg>