<?xml version="1.0" encoding="utf-8" standalone="no"?>
<!DOCTYPE svg PUBLIC "-//W3C//DTD SVG 1.1//EN"
  "http://www.w3.org/Graphics/SVG/1.1/DTD/svg11.dtd">
<svg xmlns:xlink="http://www.w3.org/1999/xlink" width="411.285625pt" height="310.86825pt" viewBox="0 0 411.285625 310.86825" xmlns="http://www.w3.org/2000/svg" version="1.1">
 <metadata>
  <rdf:RDF xmlns:dc="http://purl.org/dc/elements/1.1/" xmlns:cc="http://creativecommons.org/ns#" xmlns:rdf="http://www.w3.org/1999/02/22-rdf-syntax-ns#">
   <cc:Work>
    <dc:type rdf:resource="http://purl.org/dc/dcmitype/StillImage"/>
    <dc:date>2025-08-06T15:36:47.304255</dc:date>
    <dc:format>image/svg+xml</dc:format>
    <dc:creator>
     <cc:Agent>
      <dc:title>Matplotlib v3.10.3, https://matplotlib.org/</dc:title>
     </cc:Agent>
    </dc:creator>
   </cc:Work>
  </rdf:RDF>
 </metadata>
 <defs>
  <style type="text/css">*{stroke-linejoin: round; stroke-linecap: butt}</style>
 </defs>
 <g id="figure_1">
  <g id="patch_1">
   <path d="M 0 310.86825 
L 411.285625 310.86825 
L 411.285625 0 
L 0 0 
z
" style="fill: #ffffff"/>
  </g>
  <g id="axes_1">
   <g id="patch_2">
    <path d="M 46.965625 273.312 
L 404.085625 273.312 
L 404.085625 7.2 
L 46.965625 7.2 
z
" style="fill: #ffffff"/>
   </g>
   <g id="PathCollection_1">
    <defs>
     <path id="mbebe7b00ab" d="M 0 3 
C 0.795609 3 1.55874 2.683901 2.12132 2.12132 
C 2.683901 1.55874 3 0.795609 3 0 
C 3 -0.795609 2.683901 -1.55874 2.12132 -2.12132 
C 1.55874 -2.683901 0.795609 -3 0 -3 
C -0.795609 -3 -1.55874 -2.683901 -2.12132 -2.12132 
C -2.683901 -1.55874 -3 -0.795609 -3 0 
C -3 0.795609 -2.683901 1.55874 -2.12132 2.12132 
C -1.55874 2.683901 -0.795609 3 0 3 
z
" style="stroke: #1f77b4; stroke-opacity: 0.8"/>
    </defs>
    <g clip-path="url(#pa592f6b225)">
     <use xlink:href="#mbebe7b00ab" x="63.198352" y="196.130866" style="fill: #1f77b4; fill-opacity: 0.8; stroke: #1f77b4; stroke-opacity: 0.8"/>
     <use xlink:href="#mbebe7b00ab" x="96.1333" y="183.81229" style="fill: #1f77b4; fill-opacity: 0.8; stroke: #1f77b4; stroke-opacity: 0.8"/>
     <use xlink:href="#mbebe7b00ab" x="129.068248" y="164.860635" style="fill: #1f77b4; fill-opacity: 0.8; stroke: #1f77b4; stroke-opacity: 0.8"/>
     <use xlink:href="#mbebe7b00ab" x="161.979721" y="145.90898" style="fill: #1f77b4; fill-opacity: 0.8; stroke: #1f77b4; stroke-opacity: 0.8"/>
     <use xlink:href="#mbebe7b00ab" x="194.914669" y="126.009743" style="fill: #1f77b4; fill-opacity: 0.8; stroke: #1f77b4; stroke-opacity: 0.8"/>
     <use xlink:href="#mbebe7b00ab" x="227.849616" y="108.953253" style="fill: #1f77b4; fill-opacity: 0.8; stroke: #1f77b4; stroke-opacity: 0.8"/>
     <use xlink:href="#mbebe7b00ab" x="260.761089" y="90.949181" style="fill: #1f77b4; fill-opacity: 0.8; stroke: #1f77b4; stroke-opacity: 0.8"/>
     <use xlink:href="#mbebe7b00ab" x="293.696037" y="72.945109" style="fill: #1f77b4; fill-opacity: 0.8; stroke: #1f77b4; stroke-opacity: 0.8"/>
     <use xlink:href="#mbebe7b00ab" x="326.60751" y="56.836202" style="fill: #1f77b4; fill-opacity: 0.8; stroke: #1f77b4; stroke-opacity: 0.8"/>
     <use xlink:href="#mbebe7b00ab" x="359.542458" y="37.884547" style="fill: #1f77b4; fill-opacity: 0.8; stroke: #1f77b4; stroke-opacity: 0.8"/>
     <use xlink:href="#mbebe7b00ab" x="157.355213" y="223.610766" style="fill: #1f77b4; fill-opacity: 0.8; stroke: #1f77b4; stroke-opacity: 0.8"/>
     <use xlink:href="#mbebe7b00ab" x="190.290161" y="192.340535" style="fill: #1f77b4; fill-opacity: 0.8; stroke: #1f77b4; stroke-opacity: 0.8"/>
     <use xlink:href="#mbebe7b00ab" x="223.225108" y="164.860635" style="fill: #1f77b4; fill-opacity: 0.8; stroke: #1f77b4; stroke-opacity: 0.8"/>
     <use xlink:href="#mbebe7b00ab" x="256.136581" y="138.328318" style="fill: #1f77b4; fill-opacity: 0.8; stroke: #1f77b4; stroke-opacity: 0.8"/>
     <use xlink:href="#mbebe7b00ab" x="289.071529" y="114.63875" style="fill: #1f77b4; fill-opacity: 0.8; stroke: #1f77b4; stroke-opacity: 0.8"/>
     <use xlink:href="#mbebe7b00ab" x="322.006477" y="92.844346" style="fill: #1f77b4; fill-opacity: 0.8; stroke: #1f77b4; stroke-opacity: 0.8"/>
     <use xlink:href="#mbebe7b00ab" x="354.91795" y="71.997526" style="fill: #1f77b4; fill-opacity: 0.8; stroke: #1f77b4; stroke-opacity: 0.8"/>
     <use xlink:href="#mbebe7b00ab" x="387.852898" y="53.045871" style="fill: #1f77b4; fill-opacity: 0.8; stroke: #1f77b4; stroke-opacity: 0.8"/>
     <use xlink:href="#mbebe7b00ab" x="190.290161" y="198.026032" style="fill: #1f77b4; fill-opacity: 0.8; stroke: #1f77b4; stroke-opacity: 0.8"/>
     <use xlink:href="#mbebe7b00ab" x="256.136581" y="146.856563" style="fill: #1f77b4; fill-opacity: 0.8; stroke: #1f77b4; stroke-opacity: 0.8"/>
     <use xlink:href="#mbebe7b00ab" x="157.355213" y="231.191428" style="fill: #1f77b4; fill-opacity: 0.8; stroke: #1f77b4; stroke-opacity: 0.8"/>
     <use xlink:href="#mbebe7b00ab" x="223.225108" y="181.917125" style="fill: #1f77b4; fill-opacity: 0.8; stroke: #1f77b4; stroke-opacity: 0.8"/>
     <use xlink:href="#mbebe7b00ab" x="161.979721" y="155.384808" style="fill: #1f77b4; fill-opacity: 0.8; stroke: #1f77b4; stroke-opacity: 0.8"/>
     <use xlink:href="#mbebe7b00ab" x="161.979721" y="179.074377" style="fill: #1f77b4; fill-opacity: 0.8; stroke: #1f77b4; stroke-opacity: 0.8"/>
     <use xlink:href="#mbebe7b00ab" x="194.914669" y="133.590405" style="fill: #1f77b4; fill-opacity: 0.8; stroke: #1f77b4; stroke-opacity: 0.8"/>
     <use xlink:href="#mbebe7b00ab" x="227.849616" y="129.800074" style="fill: #1f77b4; fill-opacity: 0.8; stroke: #1f77b4; stroke-opacity: 0.8"/>
     <use xlink:href="#mbebe7b00ab" x="260.761089" y="125.06216" style="fill: #1f77b4; fill-opacity: 0.8; stroke: #1f77b4; stroke-opacity: 0.8"/>
     <use xlink:href="#mbebe7b00ab" x="208.905566" y="85.263684" style="fill: #1f77b4; fill-opacity: 0.8; stroke: #1f77b4; stroke-opacity: 0.8"/>
     <use xlink:href="#mbebe7b00ab" x="241.840514" y="66.312029" style="fill: #1f77b4; fill-opacity: 0.8; stroke: #1f77b4; stroke-opacity: 0.8"/>
     <use xlink:href="#mbebe7b00ab" x="307.686934" y="49.25554" style="fill: #1f77b4; fill-opacity: 0.8; stroke: #1f77b4; stroke-opacity: 0.8"/>
    </g>
   </g>
   <g id="FillBetweenPolyCollection_1">
    <path d="M 63.198352 201.905418 
L 63.198352 261.216 
L 66.477691 258.834834 
L 69.75703 256.453668 
L 73.036369 254.072502 
L 76.315708 251.691336 
L 79.595046 249.310005 
L 82.874385 246.924925 
L 86.153724 244.539844 
L 89.433063 242.154764 
L 92.712402 239.766227 
L 95.991741 237.215973 
L 99.27108 234.791506 
L 102.550418 232.535924 
L 105.829757 230.247698 
L 109.109096 227.80028 
L 112.388435 225.488486 
L 115.667774 223.113338 
L 118.947113 220.73525 
L 122.226451 218.348953 
L 125.50579 215.962656 
L 128.785129 213.376803 
L 132.064468 211.202756 
L 135.343807 208.829064 
L 138.623146 206.44918 
L 141.902485 204.068014 
L 145.181823 201.686848 
L 148.461162 199.411054 
L 151.740501 197.156814 
L 155.01984 194.838255 
L 158.299179 192.443918 
L 161.578518 190.043929 
L 164.857856 187.639952 
L 168.137195 185.158443 
L 171.416534 182.699092 
L 174.695873 180.393623 
L 177.975212 178.051234 
L 181.254551 175.657101 
L 184.533889 173.451051 
L 187.813228 171.167084 
L 191.092567 168.939414 
L 194.371906 166.495332 
L 197.651245 164.023774 
L 200.930584 161.550083 
L 204.209923 159.111943 
L 207.489261 156.732189 
L 210.7686 154.773864 
L 214.047939 152.823349 
L 217.327278 150.853362 
L 220.606617 148.565358 
L 223.885956 146.221703 
L 227.165294 143.856634 
L 230.444633 141.782796 
L 233.723972 139.55468 
L 237.003311 137.416837 
L 240.28265 135.414143 
L 243.561989 133.447853 
L 246.841327 131.674016 
L 250.120666 129.613902 
L 253.400005 127.701026 
L 256.679344 125.783165 
L 259.958683 123.86347 
L 263.238022 121.949229 
L 266.517361 120.129539 
L 269.796699 118.42177 
L 273.076038 116.386584 
L 276.355377 114.570501 
L 279.634716 112.965893 
L 282.914055 111.293494 
L 286.193394 109.657401 
L 289.472732 108.001139 
L 292.752071 106.318542 
L 296.03141 104.600065 
L 299.310749 102.759801 
L 302.590088 100.884082 
L 305.869427 99.079746 
L 309.148765 97.244957 
L 312.428104 95.410168 
L 315.707443 93.564312 
L 318.986782 91.796808 
L 322.266121 90.181936 
L 325.54546 88.610584 
L 328.824799 87.022548 
L 332.104137 85.325668 
L 335.383476 83.841534 
L 338.662815 82.251355 
L 341.942154 80.729338 
L 345.221493 79.212302 
L 348.500832 77.694885 
L 351.78017 76.088584 
L 355.059509 74.582251 
L 358.338848 73.057235 
L 361.618187 71.529371 
L 364.897526 69.977632 
L 368.176865 68.425894 
L 371.456204 66.874156 
L 374.735542 65.322418 
L 378.014881 63.77068 
L 381.29422 62.218817 
L 384.573559 60.66681 
L 387.852898 59.11082 
L 387.852898 19.296 
L 387.852898 19.296 
L 384.573559 21.378964 
L 381.29422 23.724217 
L 378.014881 25.994173 
L 374.735542 28.064653 
L 371.456204 30.13591 
L 368.176865 32.269131 
L 364.897526 34.457375 
L 361.618187 36.549453 
L 358.338848 38.716401 
L 355.059509 40.826223 
L 351.78017 43.019008 
L 348.500832 45.331781 
L 345.221493 47.527351 
L 341.942154 49.946226 
L 338.662815 52.383703 
L 335.383476 54.639549 
L 332.104137 56.790064 
L 328.824799 58.96009 
L 325.54546 61.130117 
L 322.266121 63.300143 
L 318.986782 65.372304 
L 315.707443 67.361511 
L 312.428104 69.507187 
L 309.148765 71.971723 
L 305.869427 74.236684 
L 302.590088 76.231426 
L 299.310749 78.432943 
L 296.03141 80.448143 
L 292.752071 82.642581 
L 289.472732 84.845426 
L 286.193394 87.026951 
L 282.914055 88.961078 
L 279.634716 90.954824 
L 276.355377 92.783083 
L 273.076038 94.594748 
L 269.796699 96.471958 
L 266.517361 98.526514 
L 263.238022 100.500289 
L 259.958683 102.401681 
L 256.679344 104.414661 
L 253.400005 106.395277 
L 250.120666 108.322127 
L 246.841327 110.136121 
L 243.561989 111.934069 
L 240.28265 113.720735 
L 237.003311 115.580297 
L 233.723972 117.33296 
L 230.444633 119.218727 
L 227.165294 121.017989 
L 223.885956 122.80606 
L 220.606617 124.447105 
L 217.327278 126.239594 
L 214.047939 128.073308 
L 210.7686 129.843632 
L 207.489261 131.507932 
L 204.209923 133.201412 
L 200.930584 135.153321 
L 197.651245 136.927989 
L 194.371906 138.43725 
L 191.092567 140.005658 
L 187.813228 141.577718 
L 184.533889 143.364351 
L 181.254551 145.167419 
L 177.975212 146.897293 
L 174.695873 148.463879 
L 171.416534 150.098143 
L 168.137195 151.726786 
L 164.857856 153.353669 
L 161.578518 154.977901 
L 158.299179 156.588494 
L 155.01984 158.004438 
L 151.740501 159.420381 
L 148.461162 160.898953 
L 145.181823 162.640416 
L 141.902485 164.150826 
L 138.623146 165.793079 
L 135.343807 167.468615 
L 132.064468 169.263802 
L 128.785129 170.882745 
L 125.50579 172.482311 
L 122.226451 174.149172 
L 118.947113 175.761405 
L 115.667774 177.295948 
L 112.388435 178.806954 
L 109.109096 180.185541 
L 105.829757 181.806322 
L 102.550418 183.426978 
L 99.27108 184.964187 
L 95.991741 186.501396 
L 92.712402 188.038605 
L 89.433063 189.575814 
L 86.153724 191.110212 
L 82.874385 192.641032 
L 79.595046 194.171852 
L 76.315708 195.70358 
L 73.036369 197.240238 
L 69.75703 198.776896 
L 66.477691 200.313554 
L 63.198352 201.905418 
z
" clip-path="url(#pa592f6b225)" style="fill: #1f77b4; fill-opacity: 0.15"/>
   </g>
   <g id="matplotlib.axis_1">
    <g id="xtick_1">
     <g id="line2d_1">
      <defs>
       <path id="m94a446ecb0" d="M 0 0 
L 0 3.5 
" style="stroke: #000000; stroke-width: 0.8"/>
      </defs>
      <g>
       <use xlink:href="#m94a446ecb0" x="81.884181" y="273.312" style="stroke: #000000; stroke-width: 0.8"/>
      </g>
     </g>
     <g id="text_1">
      <!-- 40 -->
      <g transform="translate(75.521681 287.910437) scale(0.1 -0.1)">
       <defs>
        <path id="DejaVuSans-34" d="M 2419 4116 
L 825 1625 
L 2419 1625 
L 2419 4116 
z
M 2253 4666 
L 3047 4666 
L 3047 1625 
L 3713 1625 
L 3713 1100 
L 3047 1100 
L 3047 0 
L 2419 0 
L 2419 1100 
L 313 1100 
L 313 1709 
L 2253 4666 
z
" transform="scale(0.015625)"/>
        <path id="DejaVuSans-30" d="M 2034 4250 
Q 1547 4250 1301 3770 
Q 1056 3291 1056 2328 
Q 1056 1369 1301 889 
Q 1547 409 2034 409 
Q 2525 409 2770 889 
Q 3016 1369 3016 2328 
Q 3016 3291 2770 3770 
Q 2525 4250 2034 4250 
z
M 2034 4750 
Q 2819 4750 3233 4129 
Q 3647 3509 3647 2328 
Q 3647 1150 3233 529 
Q 2819 -91 2034 -91 
Q 1250 -91 836 529 
Q 422 1150 422 2328 
Q 422 3509 836 4129 
Q 1250 4750 2034 4750 
z
" transform="scale(0.015625)"/>
       </defs>
       <use xlink:href="#DejaVuSans-34"/>
       <use xlink:href="#DejaVuSans-30" transform="translate(63.623047 0)"/>
      </g>
     </g>
    </g>
    <g id="xtick_2">
     <g id="line2d_2">
      <g>
       <use xlink:href="#m94a446ecb0" x="128.833501" y="273.312" style="stroke: #000000; stroke-width: 0.8"/>
      </g>
     </g>
     <g id="text_2">
      <!-- 60 -->
      <g transform="translate(122.471001 287.910437) scale(0.1 -0.1)">
       <defs>
        <path id="DejaVuSans-36" d="M 2113 2584 
Q 1688 2584 1439 2293 
Q 1191 2003 1191 1497 
Q 1191 994 1439 701 
Q 1688 409 2113 409 
Q 2538 409 2786 701 
Q 3034 994 3034 1497 
Q 3034 2003 2786 2293 
Q 2538 2584 2113 2584 
z
M 3366 4563 
L 3366 3988 
Q 3128 4100 2886 4159 
Q 2644 4219 2406 4219 
Q 1781 4219 1451 3797 
Q 1122 3375 1075 2522 
Q 1259 2794 1537 2939 
Q 1816 3084 2150 3084 
Q 2853 3084 3261 2657 
Q 3669 2231 3669 1497 
Q 3669 778 3244 343 
Q 2819 -91 2113 -91 
Q 1303 -91 875 529 
Q 447 1150 447 2328 
Q 447 3434 972 4092 
Q 1497 4750 2381 4750 
Q 2619 4750 2861 4703 
Q 3103 4656 3366 4563 
z
" transform="scale(0.015625)"/>
       </defs>
       <use xlink:href="#DejaVuSans-36"/>
       <use xlink:href="#DejaVuSans-30" transform="translate(63.623047 0)"/>
      </g>
     </g>
    </g>
    <g id="xtick_3">
     <g id="line2d_3">
      <g>
       <use xlink:href="#m94a446ecb0" x="175.782821" y="273.312" style="stroke: #000000; stroke-width: 0.8"/>
      </g>
     </g>
     <g id="text_3">
      <!-- 80 -->
      <g transform="translate(169.420321 287.910437) scale(0.1 -0.1)">
       <defs>
        <path id="DejaVuSans-38" d="M 2034 2216 
Q 1584 2216 1326 1975 
Q 1069 1734 1069 1313 
Q 1069 891 1326 650 
Q 1584 409 2034 409 
Q 2484 409 2743 651 
Q 3003 894 3003 1313 
Q 3003 1734 2745 1975 
Q 2488 2216 2034 2216 
z
M 1403 2484 
Q 997 2584 770 2862 
Q 544 3141 544 3541 
Q 544 4100 942 4425 
Q 1341 4750 2034 4750 
Q 2731 4750 3128 4425 
Q 3525 4100 3525 3541 
Q 3525 3141 3298 2862 
Q 3072 2584 2669 2484 
Q 3125 2378 3379 2068 
Q 3634 1759 3634 1313 
Q 3634 634 3220 271 
Q 2806 -91 2034 -91 
Q 1263 -91 848 271 
Q 434 634 434 1313 
Q 434 1759 690 2068 
Q 947 2378 1403 2484 
z
M 1172 3481 
Q 1172 3119 1398 2916 
Q 1625 2713 2034 2713 
Q 2441 2713 2670 2916 
Q 2900 3119 2900 3481 
Q 2900 3844 2670 4047 
Q 2441 4250 2034 4250 
Q 1625 4250 1398 4047 
Q 1172 3844 1172 3481 
z
" transform="scale(0.015625)"/>
       </defs>
       <use xlink:href="#DejaVuSans-38"/>
       <use xlink:href="#DejaVuSans-30" transform="translate(63.623047 0)"/>
      </g>
     </g>
    </g>
    <g id="xtick_4">
     <g id="line2d_4">
      <g>
       <use xlink:href="#m94a446ecb0" x="222.73214" y="273.312" style="stroke: #000000; stroke-width: 0.8"/>
      </g>
     </g>
     <g id="text_4">
      <!-- 100 -->
      <g transform="translate(213.18839 287.910437) scale(0.1 -0.1)">
       <defs>
        <path id="DejaVuSans-31" d="M 794 531 
L 1825 531 
L 1825 4091 
L 703 3866 
L 703 4441 
L 1819 4666 
L 2450 4666 
L 2450 531 
L 3481 531 
L 3481 0 
L 794 0 
L 794 531 
z
" transform="scale(0.015625)"/>
       </defs>
       <use xlink:href="#DejaVuSans-31"/>
       <use xlink:href="#DejaVuSans-30" transform="translate(63.623047 0)"/>
       <use xlink:href="#DejaVuSans-30" transform="translate(127.246094 0)"/>
      </g>
     </g>
    </g>
    <g id="xtick_5">
     <g id="line2d_5">
      <g>
       <use xlink:href="#m94a446ecb0" x="269.68146" y="273.312" style="stroke: #000000; stroke-width: 0.8"/>
      </g>
     </g>
     <g id="text_5">
      <!-- 120 -->
      <g transform="translate(260.13771 287.910437) scale(0.1 -0.1)">
       <defs>
        <path id="DejaVuSans-32" d="M 1228 531 
L 3431 531 
L 3431 0 
L 469 0 
L 469 531 
Q 828 903 1448 1529 
Q 2069 2156 2228 2338 
Q 2531 2678 2651 2914 
Q 2772 3150 2772 3378 
Q 2772 3750 2511 3984 
Q 2250 4219 1831 4219 
Q 1534 4219 1204 4116 
Q 875 4013 500 3803 
L 500 4441 
Q 881 4594 1212 4672 
Q 1544 4750 1819 4750 
Q 2544 4750 2975 4387 
Q 3406 4025 3406 3419 
Q 3406 3131 3298 2873 
Q 3191 2616 2906 2266 
Q 2828 2175 2409 1742 
Q 1991 1309 1228 531 
z
" transform="scale(0.015625)"/>
       </defs>
       <use xlink:href="#DejaVuSans-31"/>
       <use xlink:href="#DejaVuSans-32" transform="translate(63.623047 0)"/>
       <use xlink:href="#DejaVuSans-30" transform="translate(127.246094 0)"/>
      </g>
     </g>
    </g>
    <g id="xtick_6">
     <g id="line2d_6">
      <g>
       <use xlink:href="#m94a446ecb0" x="316.63078" y="273.312" style="stroke: #000000; stroke-width: 0.8"/>
      </g>
     </g>
     <g id="text_6">
      <!-- 140 -->
      <g transform="translate(307.08703 287.910437) scale(0.1 -0.1)">
       <use xlink:href="#DejaVuSans-31"/>
       <use xlink:href="#DejaVuSans-34" transform="translate(63.623047 0)"/>
       <use xlink:href="#DejaVuSans-30" transform="translate(127.246094 0)"/>
      </g>
     </g>
    </g>
    <g id="xtick_7">
     <g id="line2d_7">
      <g>
       <use xlink:href="#m94a446ecb0" x="363.580099" y="273.312" style="stroke: #000000; stroke-width: 0.8"/>
      </g>
     </g>
     <g id="text_7">
      <!-- 160 -->
      <g transform="translate(354.036349 287.910437) scale(0.1 -0.1)">
       <use xlink:href="#DejaVuSans-31"/>
       <use xlink:href="#DejaVuSans-36" transform="translate(63.623047 0)"/>
       <use xlink:href="#DejaVuSans-30" transform="translate(127.246094 0)"/>
      </g>
     </g>
    </g>
    <g id="text_8">
     <!-- MW -->
     <g transform="translate(216.267813 301.588562) scale(0.1 -0.1)">
      <defs>
       <path id="DejaVuSans-4d" d="M 628 4666 
L 1569 4666 
L 2759 1491 
L 3956 4666 
L 4897 4666 
L 4897 0 
L 4281 0 
L 4281 4097 
L 3078 897 
L 2444 897 
L 1241 4097 
L 1241 0 
L 628 0 
L 628 4666 
z
" transform="scale(0.015625)"/>
       <path id="DejaVuSans-57" d="M 213 4666 
L 850 4666 
L 1831 722 
L 2809 4666 
L 3519 4666 
L 4500 722 
L 5478 4666 
L 6119 4666 
L 4947 0 
L 4153 0 
L 3169 4050 
L 2175 0 
L 1381 0 
L 213 4666 
z
" transform="scale(0.015625)"/>
      </defs>
      <use xlink:href="#DejaVuSans-4d"/>
      <use xlink:href="#DejaVuSans-57" transform="translate(86.279297 0)"/>
     </g>
    </g>
   </g>
   <g id="matplotlib.axis_2">
    <g id="ytick_1">
     <g id="line2d_8">
      <defs>
       <path id="m34079d035c" d="M 0 0 
L -3.5 0 
" style="stroke: #000000; stroke-width: 0.8"/>
      </defs>
      <g>
       <use xlink:href="#m34079d035c" x="46.965625" y="257.723745" style="stroke: #000000; stroke-width: 0.8"/>
      </g>
     </g>
     <g id="text_9">
      <!-- 0 -->
      <g transform="translate(33.603125 261.522964) scale(0.1 -0.1)">
       <use xlink:href="#DejaVuSans-30"/>
      </g>
     </g>
    </g>
    <g id="ytick_2">
     <g id="line2d_9">
      <g>
       <use xlink:href="#m34079d035c" x="46.965625" y="210.344607" style="stroke: #000000; stroke-width: 0.8"/>
      </g>
     </g>
     <g id="text_10">
      <!-- 50 -->
      <g transform="translate(27.240625 214.143826) scale(0.1 -0.1)">
       <defs>
        <path id="DejaVuSans-35" d="M 691 4666 
L 3169 4666 
L 3169 4134 
L 1269 4134 
L 1269 2991 
Q 1406 3038 1543 3061 
Q 1681 3084 1819 3084 
Q 2600 3084 3056 2656 
Q 3513 2228 3513 1497 
Q 3513 744 3044 326 
Q 2575 -91 1722 -91 
Q 1428 -91 1123 -41 
Q 819 9 494 109 
L 494 744 
Q 775 591 1075 516 
Q 1375 441 1709 441 
Q 2250 441 2565 725 
Q 2881 1009 2881 1497 
Q 2881 1984 2565 2268 
Q 2250 2553 1709 2553 
Q 1456 2553 1204 2497 
Q 953 2441 691 2322 
L 691 4666 
z
" transform="scale(0.015625)"/>
       </defs>
       <use xlink:href="#DejaVuSans-35"/>
       <use xlink:href="#DejaVuSans-30" transform="translate(63.623047 0)"/>
      </g>
     </g>
    </g>
    <g id="ytick_3">
     <g id="line2d_10">
      <g>
       <use xlink:href="#m34079d035c" x="46.965625" y="162.96547" style="stroke: #000000; stroke-width: 0.8"/>
      </g>
     </g>
     <g id="text_11">
      <!-- 100 -->
      <g transform="translate(20.878125 166.764689) scale(0.1 -0.1)">
       <use xlink:href="#DejaVuSans-31"/>
       <use xlink:href="#DejaVuSans-30" transform="translate(63.623047 0)"/>
       <use xlink:href="#DejaVuSans-30" transform="translate(127.246094 0)"/>
      </g>
     </g>
    </g>
    <g id="ytick_4">
     <g id="line2d_11">
      <g>
       <use xlink:href="#m34079d035c" x="46.965625" y="115.586332" style="stroke: #000000; stroke-width: 0.8"/>
      </g>
     </g>
     <g id="text_12">
      <!-- 150 -->
      <g transform="translate(20.878125 119.385551) scale(0.1 -0.1)">
       <use xlink:href="#DejaVuSans-31"/>
       <use xlink:href="#DejaVuSans-35" transform="translate(63.623047 0)"/>
       <use xlink:href="#DejaVuSans-30" transform="translate(127.246094 0)"/>
      </g>
     </g>
    </g>
    <g id="ytick_5">
     <g id="line2d_12">
      <g>
       <use xlink:href="#m34079d035c" x="46.965625" y="68.207195" style="stroke: #000000; stroke-width: 0.8"/>
      </g>
     </g>
     <g id="text_13">
      <!-- 200 -->
      <g transform="translate(20.878125 72.006414) scale(0.1 -0.1)">
       <use xlink:href="#DejaVuSans-32"/>
       <use xlink:href="#DejaVuSans-30" transform="translate(63.623047 0)"/>
       <use xlink:href="#DejaVuSans-30" transform="translate(127.246094 0)"/>
      </g>
     </g>
    </g>
    <g id="ytick_6">
     <g id="line2d_13">
      <g>
       <use xlink:href="#m34079d035c" x="46.965625" y="20.828058" style="stroke: #000000; stroke-width: 0.8"/>
      </g>
     </g>
     <g id="text_14">
      <!-- 250 -->
      <g transform="translate(20.878125 24.627276) scale(0.1 -0.1)">
       <use xlink:href="#DejaVuSans-32"/>
       <use xlink:href="#DejaVuSans-35" transform="translate(63.623047 0)"/>
       <use xlink:href="#DejaVuSans-30" transform="translate(127.246094 0)"/>
      </g>
     </g>
    </g>
    <g id="text_15">
     <!-- bp -->
     <g transform="translate(14.798438 146.604437) rotate(-90) scale(0.1 -0.1)">
      <defs>
       <path id="DejaVuSans-62" d="M 3116 1747 
Q 3116 2381 2855 2742 
Q 2594 3103 2138 3103 
Q 1681 3103 1420 2742 
Q 1159 2381 1159 1747 
Q 1159 1113 1420 752 
Q 1681 391 2138 391 
Q 2594 391 2855 752 
Q 3116 1113 3116 1747 
z
M 1159 2969 
Q 1341 3281 1617 3432 
Q 1894 3584 2278 3584 
Q 2916 3584 3314 3078 
Q 3713 2572 3713 1747 
Q 3713 922 3314 415 
Q 2916 -91 2278 -91 
Q 1894 -91 1617 61 
Q 1341 213 1159 525 
L 1159 0 
L 581 0 
L 581 4863 
L 1159 4863 
L 1159 2969 
z
" transform="scale(0.015625)"/>
       <path id="DejaVuSans-70" d="M 1159 525 
L 1159 -1331 
L 581 -1331 
L 581 3500 
L 1159 3500 
L 1159 2969 
Q 1341 3281 1617 3432 
Q 1894 3584 2278 3584 
Q 2916 3584 3314 3078 
Q 3713 2572 3713 1747 
Q 3713 922 3314 415 
Q 2916 -91 2278 -91 
Q 1894 -91 1617 61 
Q 1341 213 1159 525 
z
M 3116 1747 
Q 3116 2381 2855 2742 
Q 2594 3103 2138 3103 
Q 1681 3103 1420 2742 
Q 1159 2381 1159 1747 
Q 1159 1113 1420 752 
Q 1681 391 2138 391 
Q 2594 391 2855 752 
Q 3116 1113 3116 1747 
z
" transform="scale(0.015625)"/>
      </defs>
      <use xlink:href="#DejaVuSans-62"/>
      <use xlink:href="#DejaVuSans-70" transform="translate(63.476562 0)"/>
     </g>
    </g>
   </g>
   <g id="line2d_14">
    <path d="M 63.198352 224.569783 
L 66.477691 222.71751 
L 69.75703 220.865236 
L 73.036369 219.012963 
L 76.315708 217.160689 
L 79.595046 215.308416 
L 82.874385 213.456142 
L 86.153724 211.603869 
L 89.433063 209.751595 
L 92.712402 207.899322 
L 95.991741 206.047048 
L 99.27108 204.194775 
L 102.550418 202.342501 
L 105.829757 200.490228 
L 109.109096 198.637954 
L 112.388435 196.785681 
L 115.667774 194.933407 
L 118.947113 193.081134 
L 122.226451 191.22886 
L 125.50579 189.376587 
L 128.785129 187.524313 
L 132.064468 185.67204 
L 135.343807 183.819767 
L 138.623146 181.967493 
L 141.902485 180.11522 
L 145.181823 178.262946 
L 148.461162 176.410673 
L 151.740501 174.558399 
L 155.01984 172.706126 
L 158.299179 170.853852 
L 161.578518 169.001579 
L 164.857856 167.149305 
L 168.137195 165.297032 
L 171.416534 163.444758 
L 174.695873 161.592485 
L 177.975212 159.740211 
L 181.254551 157.887938 
L 184.533889 156.035664 
L 187.813228 154.183391 
L 191.092567 152.331117 
L 194.371906 150.478844 
L 197.651245 148.62657 
L 200.930584 146.774297 
L 204.209923 144.922023 
L 207.489261 143.06975 
L 210.7686 141.217477 
L 214.047939 139.365203 
L 217.327278 137.51293 
L 220.606617 135.660656 
L 223.885956 133.808383 
L 227.165294 131.956109 
L 230.444633 130.103836 
L 233.723972 128.251562 
L 237.003311 126.399289 
L 240.28265 124.547015 
L 243.561989 122.694742 
L 246.841327 120.842468 
L 250.120666 118.990195 
L 253.400005 117.137921 
L 256.679344 115.285648 
L 259.958683 113.433374 
L 263.238022 111.581101 
L 266.517361 109.728827 
L 269.796699 107.876554 
L 273.076038 106.02428 
L 276.355377 104.172007 
L 279.634716 102.319733 
L 282.914055 100.46746 
L 286.193394 98.615187 
L 289.472732 96.762913 
L 292.752071 94.91064 
L 296.03141 93.058366 
L 299.310749 91.206093 
L 302.590088 89.353819 
L 305.869427 87.501546 
L 309.148765 85.649272 
L 312.428104 83.796999 
L 315.707443 81.944725 
L 318.986782 80.092452 
L 322.266121 78.240178 
L 325.54546 76.387905 
L 328.824799 74.535631 
L 332.104137 72.683358 
L 335.383476 70.831084 
L 338.662815 68.978811 
L 341.942154 67.126537 
L 345.221493 65.274264 
L 348.500832 63.42199 
L 351.78017 61.569717 
L 355.059509 59.717443 
L 358.338848 57.86517 
L 361.618187 56.012897 
L 364.897526 54.160623 
L 368.176865 52.30835 
L 371.456204 50.456076 
L 374.735542 48.603803 
L 378.014881 46.751529 
L 381.29422 44.899256 
L 384.573559 43.046982 
L 387.852898 41.194709 
" clip-path="url(#pa592f6b225)" style="fill: none; stroke: #1f77b4; stroke-width: 2.25; stroke-linecap: square"/>
   </g>
   <g id="patch_3">
    <path d="M 46.965625 273.312 
L 46.965625 7.2 
" style="fill: none; stroke: #000000; stroke-width: 0.8; stroke-linejoin: miter; stroke-linecap: square"/>
   </g>
   <g id="patch_4">
    <path d="M 404.085625 273.312 
L 404.085625 7.2 
" style="fill: none; stroke: #000000; stroke-width: 0.8; stroke-linejoin: miter; stroke-linecap: square"/>
   </g>
   <g id="patch_5">
    <path d="M 46.965625 273.312 
L 404.085625 273.312 
" style="fill: none; stroke: #000000; stroke-width: 0.8; stroke-linejoin: miter; stroke-linecap: square"/>
   </g>
   <g id="patch_6">
    <path d="M 46.965625 7.2 
L 404.085625 7.2 
" style="fill: none; stroke: #000000; stroke-width: 0.8; stroke-linejoin: miter; stroke-linecap: square"/>
   </g>
  </g>
 </g>
 <defs>
  <clipPath id="pa592f6b225">
   <rect x="46.965625" y="7.2" width="357.12" height="266.112"/>
  </clipPath>
 </defs>
</svg>