<?xml version="1.0" encoding="utf-8" standalone="no"?>
<!DOCTYPE svg PUBLIC "-//W3C//DTD SVG 1.1//EN"
  "http://www.w3.org/Graphics/SVG/1.1/DTD/svg11.dtd">
<svg xmlns:xlink="http://www.w3.org/1999/xlink" width="400.785625pt" height="297.190125pt" viewBox="0 0 400.785625 297.190125" xmlns="http://www.w3.org/2000/svg" version="1.1">
 <metadata>
  <rdf:RDF xmlns:dc="http://purl.org/dc/elements/1.1/" xmlns:cc="http://creativecommons.org/ns#" xmlns:rdf="http://www.w3.org/1999/02/22-rdf-syntax-ns#">
   <cc:Work>
    <dc:type rdf:resource="http://purl.org/dc/dcmitype/StillImage"/>
    <dc:date>2023-04-26T06:06:40.670545</dc:date>
    <dc:format>image/svg+xml</dc:format>
    <dc:creator>
     <cc:Agent>
      <dc:title>Matplotlib v3.7.1, https://matplotlib.org/</dc:title>
     </cc:Agent>
    </dc:creator>
   </cc:Work>
  </rdf:RDF>
 </metadata>
 <defs>
  <style type="text/css">*{stroke-linejoin: round; stroke-linecap: butt}</style>
 </defs>
 <g id="figure_1">
  <g id="patch_1">
   <path d="M 0 297.190125 
L 400.785625 297.190125 
L 400.785625 0 
L 0 0 
z
" style="fill: #ffffff"/>
  </g>
  <g id="axes_1">
   <g id="patch_2">
    <path d="M 36.465625 273.312 
L 393.585625 273.312 
L 393.585625 7.2 
L 36.465625 7.2 
z
" style="fill: #ffffff"/>
   </g>
   <g id="PathCollection_1">
    <defs>
     <path id="m9a1fbf1bc2" d="M 0 3 
C 0.795609 3 1.55874 2.683901 2.12132 2.12132 
C 2.683901 1.55874 3 0.795609 3 0 
C 3 -0.795609 2.683901 -1.55874 2.12132 -2.12132 
C 1.55874 -2.683901 0.795609 -3 0 -3 
C -0.795609 -3 -1.55874 -2.683901 -2.12132 -2.12132 
C -2.683901 -1.55874 -3 -0.795609 -3 0 
C -3 0.795609 -2.683901 1.55874 -2.12132 2.12132 
C -1.55874 2.683901 -0.795609 3 0 3 
z
" style="stroke: #1f77b4; stroke-opacity: 0.8"/>
    </defs>
    <g clip-path="url(#p20b27d9a6b)">
     <use xlink:href="#m9a1fbf1bc2" x="52.698352" y="260.012365" style="fill: #1f77b4; fill-opacity: 0.8; stroke: #1f77b4; stroke-opacity: 0.8"/>
     <use xlink:href="#m9a1fbf1bc2" x="88.77108" y="207.368051" style="fill: #1f77b4; fill-opacity: 0.8; stroke: #1f77b4; stroke-opacity: 0.8"/>
     <use xlink:href="#m9a1fbf1bc2" x="124.843807" y="211.531349" style="fill: #1f77b4; fill-opacity: 0.8; stroke: #1f77b4; stroke-opacity: 0.8"/>
     <use xlink:href="#m9a1fbf1bc2" x="160.916534" y="182.135354" style="fill: #1f77b4; fill-opacity: 0.8; stroke: #1f77b4; stroke-opacity: 0.8"/>
     <use xlink:href="#m9a1fbf1bc2" x="196.989261" y="152.908791" style="fill: #1f77b4; fill-opacity: 0.8; stroke: #1f77b4; stroke-opacity: 0.8"/>
     <use xlink:href="#m9a1fbf1bc2" x="233.061989" y="124.981904" style="fill: #1f77b4; fill-opacity: 0.8; stroke: #1f77b4; stroke-opacity: 0.8"/>
     <use xlink:href="#m9a1fbf1bc2" x="269.134716" y="94.432025" style="fill: #1f77b4; fill-opacity: 0.8; stroke: #1f77b4; stroke-opacity: 0.8"/>
     <use xlink:href="#m9a1fbf1bc2" x="305.207443" y="76.690706" style="fill: #1f77b4; fill-opacity: 0.8; stroke: #1f77b4; stroke-opacity: 0.8"/>
     <use xlink:href="#m9a1fbf1bc2" x="341.28017" y="60.434686" style="fill: #1f77b4; fill-opacity: 0.8; stroke: #1f77b4; stroke-opacity: 0.8"/>
     <use xlink:href="#m9a1fbf1bc2" x="377.352898" y="38.785679" style="fill: #1f77b4; fill-opacity: 0.8; stroke: #1f77b4; stroke-opacity: 0.8"/>
    </g>
   </g>
   <g id="PolyCollection_1">
    <path d="M 52.698352 232.325399 
L 52.698352 261.216 
L 55.977691 258.789743 
L 59.25703 256.425823 
L 62.536369 254.055148 
L 65.815708 251.634886 
L 69.095046 249.214475 
L 72.374385 246.778532 
L 75.653724 244.32122 
L 78.933063 241.863617 
L 82.212402 239.405079 
L 85.491741 236.949389 
L 88.77108 234.489243 
L 92.050418 232.032031 
L 95.329757 229.671402 
L 98.609096 227.32092 
L 101.888435 224.901735 
L 105.167774 222.522404 
L 108.447113 220.174442 
L 111.726451 217.844113 
L 115.00579 215.468817 
L 118.285129 213.132489 
L 121.564468 210.825416 
L 124.843807 208.517869 
L 128.123146 206.183857 
L 131.402485 203.875788 
L 134.681823 201.591233 
L 137.961162 199.28225 
L 141.240501 196.941283 
L 144.51984 194.609948 
L 147.799179 192.315624 
L 151.078518 190.008493 
L 154.357856 187.679442 
L 157.637195 185.397854 
L 160.916534 183.106702 
L 164.195873 180.785948 
L 167.475212 178.51174 
L 170.754551 176.235971 
L 174.033889 173.945724 
L 177.313228 171.635506 
L 180.592567 169.345041 
L 183.871906 167.069357 
L 187.151245 164.776297 
L 190.430584 162.504864 
L 193.709923 160.233448 
L 196.989261 157.973961 
L 200.2686 155.722774 
L 203.547939 153.449117 
L 206.827278 151.208618 
L 210.106617 148.979938 
L 213.385956 146.748499 
L 216.665294 144.5053 
L 219.944633 142.244726 
L 223.223972 140.006529 
L 226.503311 137.788597 
L 229.78265 135.609845 
L 233.061989 133.326156 
L 236.341327 131.044257 
L 239.620666 128.81231 
L 242.900005 126.619355 
L 246.179344 124.370978 
L 249.458683 122.14874 
L 252.738022 119.916234 
L 256.017361 117.697131 
L 259.296699 115.485208 
L 262.576038 113.263574 
L 265.855377 111.065669 
L 269.134716 108.820305 
L 272.414055 106.598938 
L 275.693394 104.377713 
L 278.972732 102.156821 
L 282.252071 99.93535 
L 285.53141 97.730773 
L 288.810749 95.536184 
L 292.090088 93.274314 
L 295.369427 91.111884 
L 298.648765 88.971603 
L 301.928104 86.779614 
L 305.207443 84.623984 
L 308.486782 82.55479 
L 311.766121 80.490828 
L 315.04546 78.370104 
L 318.324799 76.2463 
L 321.604137 74.175878 
L 324.883476 72.060604 
L 328.162815 69.972937 
L 331.442154 67.819569 
L 334.721493 65.716788 
L 338.000832 63.647922 
L 341.28017 61.516436 
L 344.559509 59.450385 
L 347.838848 57.382018 
L 351.118187 55.218079 
L 354.397526 53.153491 
L 357.676865 51.083299 
L 360.956204 49.054755 
L 364.235542 47.040896 
L 367.514881 44.969787 
L 370.79422 42.994872 
L 374.073559 40.916763 
L 377.352898 38.910828 
L 377.352898 19.296 
L 377.352898 19.296 
L 374.073559 21.639603 
L 370.79422 24.078206 
L 367.514881 26.517924 
L 364.235542 28.957643 
L 360.956204 31.400191 
L 357.676865 33.835574 
L 354.397526 36.273328 
L 351.118187 38.711081 
L 347.838848 41.148835 
L 344.559509 43.588231 
L 341.28017 46.028086 
L 338.000832 48.46794 
L 334.721493 50.907794 
L 331.442154 53.30177 
L 328.162815 55.692158 
L 324.883476 58.109451 
L 321.604137 60.568143 
L 318.324799 63.006992 
L 315.04546 65.401953 
L 311.766121 67.775727 
L 308.486782 70.152549 
L 305.207443 72.609877 
L 301.928104 75.024555 
L 298.648765 77.394463 
L 295.369427 79.835994 
L 292.090088 82.183432 
L 288.810749 84.517476 
L 285.53141 86.982326 
L 282.252071 89.320741 
L 278.972732 91.786775 
L 275.693394 94.190774 
L 272.414055 96.639641 
L 269.134716 98.689377 
L 265.855377 101.200925 
L 262.576038 103.463732 
L 259.296699 105.727831 
L 256.017361 108.019926 
L 252.738022 110.123572 
L 249.458683 112.268069 
L 246.179344 114.56187 
L 242.900005 116.873631 
L 239.620666 118.95054 
L 236.341327 121.099266 
L 233.061989 123.165215 
L 229.78265 125.202881 
L 226.503311 127.209144 
L 223.223972 129.170735 
L 219.944633 131.235807 
L 216.665294 133.243112 
L 213.385956 135.253927 
L 210.106617 137.253338 
L 206.827278 139.280788 
L 203.547939 141.263406 
L 200.2686 143.312657 
L 196.989261 145.369572 
L 193.709923 147.331893 
L 190.430584 149.368335 
L 187.151245 151.343175 
L 183.871906 153.318015 
L 180.592567 155.2637 
L 177.313228 157.227382 
L 174.033889 159.171861 
L 170.754551 161.117027 
L 167.475212 163.066288 
L 164.195873 165.04733 
L 160.916534 167.028371 
L 157.637195 169.009413 
L 154.357856 170.990455 
L 151.078518 172.971718 
L 147.799179 174.953108 
L 144.51984 176.934784 
L 141.240501 178.916573 
L 137.961162 180.898937 
L 134.681823 182.881548 
L 131.402485 184.864159 
L 128.123146 186.846769 
L 124.843807 188.82938 
L 121.564468 190.811991 
L 118.285129 192.794601 
L 115.00579 194.777212 
L 111.726451 196.759823 
L 108.447113 198.751399 
L 105.167774 200.72682 
L 101.888435 202.705685 
L 98.609096 204.687487 
L 95.329757 206.669289 
L 92.050418 208.651091 
L 88.77108 210.632893 
L 85.491741 212.614695 
L 82.212402 214.577816 
L 78.933063 216.528845 
L 75.653724 218.503404 
L 72.374385 220.477963 
L 69.095046 222.452522 
L 65.815708 224.427081 
L 62.536369 226.40164 
L 59.25703 228.376198 
L 55.977691 230.350757 
L 52.698352 232.325399 
z
" clip-path="url(#p20b27d9a6b)" style="fill: #1f77b4; fill-opacity: 0.15"/>
   </g>
   <g id="matplotlib.axis_1">
    <g id="xtick_1">
     <g id="line2d_1">
      <defs>
       <path id="mecdbee49fa" d="M 0 0 
L 0 3.5 
" style="stroke: #000000; stroke-width: 0.8"/>
      </defs>
      <g>
       <use xlink:href="#mecdbee49fa" x="52.698352" y="273.312" style="stroke: #000000; stroke-width: 0.8"/>
      </g>
     </g>
     <g id="text_1">
      <!-- 0 -->
      <g transform="translate(49.517102 287.910437) scale(0.1 -0.1)">
       <defs>
        <path id="DejaVuSans-30" d="M 2034 4250 
Q 1547 4250 1301 3770 
Q 1056 3291 1056 2328 
Q 1056 1369 1301 889 
Q 1547 409 2034 409 
Q 2525 409 2770 889 
Q 3016 1369 3016 2328 
Q 3016 3291 2770 3770 
Q 2525 4250 2034 4250 
z
M 2034 4750 
Q 2819 4750 3233 4129 
Q 3647 3509 3647 2328 
Q 3647 1150 3233 529 
Q 2819 -91 2034 -91 
Q 1250 -91 836 529 
Q 422 1150 422 2328 
Q 422 3509 836 4129 
Q 1250 4750 2034 4750 
z
" transform="scale(0.015625)"/>
       </defs>
       <use xlink:href="#DejaVuSans-30"/>
      </g>
     </g>
    </g>
    <g id="xtick_2">
     <g id="line2d_2">
      <g>
       <use xlink:href="#mecdbee49fa" x="124.843807" y="273.312" style="stroke: #000000; stroke-width: 0.8"/>
      </g>
     </g>
     <g id="text_2">
      <!-- 2 -->
      <g transform="translate(121.662557 287.910437) scale(0.1 -0.1)">
       <defs>
        <path id="DejaVuSans-32" d="M 1228 531 
L 3431 531 
L 3431 0 
L 469 0 
L 469 531 
Q 828 903 1448 1529 
Q 2069 2156 2228 2338 
Q 2531 2678 2651 2914 
Q 2772 3150 2772 3378 
Q 2772 3750 2511 3984 
Q 2250 4219 1831 4219 
Q 1534 4219 1204 4116 
Q 875 4013 500 3803 
L 500 4441 
Q 881 4594 1212 4672 
Q 1544 4750 1819 4750 
Q 2544 4750 2975 4387 
Q 3406 4025 3406 3419 
Q 3406 3131 3298 2873 
Q 3191 2616 2906 2266 
Q 2828 2175 2409 1742 
Q 1991 1309 1228 531 
z
" transform="scale(0.015625)"/>
       </defs>
       <use xlink:href="#DejaVuSans-32"/>
      </g>
     </g>
    </g>
    <g id="xtick_3">
     <g id="line2d_3">
      <g>
       <use xlink:href="#mecdbee49fa" x="196.989261" y="273.312" style="stroke: #000000; stroke-width: 0.8"/>
      </g>
     </g>
     <g id="text_3">
      <!-- 4 -->
      <g transform="translate(193.808011 287.910437) scale(0.1 -0.1)">
       <defs>
        <path id="DejaVuSans-34" d="M 2419 4116 
L 825 1625 
L 2419 1625 
L 2419 4116 
z
M 2253 4666 
L 3047 4666 
L 3047 1625 
L 3713 1625 
L 3713 1100 
L 3047 1100 
L 3047 0 
L 2419 0 
L 2419 1100 
L 313 1100 
L 313 1709 
L 2253 4666 
z
" transform="scale(0.015625)"/>
       </defs>
       <use xlink:href="#DejaVuSans-34"/>
      </g>
     </g>
    </g>
    <g id="xtick_4">
     <g id="line2d_4">
      <g>
       <use xlink:href="#mecdbee49fa" x="269.134716" y="273.312" style="stroke: #000000; stroke-width: 0.8"/>
      </g>
     </g>
     <g id="text_4">
      <!-- 6 -->
      <g transform="translate(265.953466 287.910437) scale(0.1 -0.1)">
       <defs>
        <path id="DejaVuSans-36" d="M 2113 2584 
Q 1688 2584 1439 2293 
Q 1191 2003 1191 1497 
Q 1191 994 1439 701 
Q 1688 409 2113 409 
Q 2538 409 2786 701 
Q 3034 994 3034 1497 
Q 3034 2003 2786 2293 
Q 2538 2584 2113 2584 
z
M 3366 4563 
L 3366 3988 
Q 3128 4100 2886 4159 
Q 2644 4219 2406 4219 
Q 1781 4219 1451 3797 
Q 1122 3375 1075 2522 
Q 1259 2794 1537 2939 
Q 1816 3084 2150 3084 
Q 2853 3084 3261 2657 
Q 3669 2231 3669 1497 
Q 3669 778 3244 343 
Q 2819 -91 2113 -91 
Q 1303 -91 875 529 
Q 447 1150 447 2328 
Q 447 3434 972 4092 
Q 1497 4750 2381 4750 
Q 2619 4750 2861 4703 
Q 3103 4656 3366 4563 
z
" transform="scale(0.015625)"/>
       </defs>
       <use xlink:href="#DejaVuSans-36"/>
      </g>
     </g>
    </g>
    <g id="xtick_5">
     <g id="line2d_5">
      <g>
       <use xlink:href="#mecdbee49fa" x="341.28017" y="273.312" style="stroke: #000000; stroke-width: 0.8"/>
      </g>
     </g>
     <g id="text_5">
      <!-- 8 -->
      <g transform="translate(338.09892 287.910437) scale(0.1 -0.1)">
       <defs>
        <path id="DejaVuSans-38" d="M 2034 2216 
Q 1584 2216 1326 1975 
Q 1069 1734 1069 1313 
Q 1069 891 1326 650 
Q 1584 409 2034 409 
Q 2484 409 2743 651 
Q 3003 894 3003 1313 
Q 3003 1734 2745 1975 
Q 2488 2216 2034 2216 
z
M 1403 2484 
Q 997 2584 770 2862 
Q 544 3141 544 3541 
Q 544 4100 942 4425 
Q 1341 4750 2034 4750 
Q 2731 4750 3128 4425 
Q 3525 4100 3525 3541 
Q 3525 3141 3298 2862 
Q 3072 2584 2669 2484 
Q 3125 2378 3379 2068 
Q 3634 1759 3634 1313 
Q 3634 634 3220 271 
Q 2806 -91 2034 -91 
Q 1263 -91 848 271 
Q 434 634 434 1313 
Q 434 1759 690 2068 
Q 947 2378 1403 2484 
z
M 1172 3481 
Q 1172 3119 1398 2916 
Q 1625 2713 2034 2713 
Q 2441 2713 2670 2916 
Q 2900 3119 2900 3481 
Q 2900 3844 2670 4047 
Q 2441 4250 2034 4250 
Q 1625 4250 1398 4047 
Q 1172 3844 1172 3481 
z
" transform="scale(0.015625)"/>
       </defs>
       <use xlink:href="#DejaVuSans-38"/>
      </g>
     </g>
    </g>
   </g>
   <g id="matplotlib.axis_2">
    <g id="ytick_1">
     <g id="line2d_6">
      <defs>
       <path id="m2773e19976" d="M 0 0 
L -3.5 0 
" style="stroke: #000000; stroke-width: 0.8"/>
      </defs>
      <g>
       <use xlink:href="#m2773e19976" x="36.465625" y="261.029559" style="stroke: #000000; stroke-width: 0.8"/>
      </g>
     </g>
     <g id="text_6">
      <!-- 0.0 -->
      <g transform="translate(13.5625 264.828778) scale(0.1 -0.1)">
       <defs>
        <path id="DejaVuSans-2e" d="M 684 794 
L 1344 794 
L 1344 0 
L 684 0 
L 684 794 
z
" transform="scale(0.015625)"/>
       </defs>
       <use xlink:href="#DejaVuSans-30"/>
       <use xlink:href="#DejaVuSans-2e" x="63.623047"/>
       <use xlink:href="#DejaVuSans-30" x="95.410156"/>
      </g>
     </g>
    </g>
    <g id="ytick_2">
     <g id="line2d_7">
      <g>
       <use xlink:href="#m2773e19976" x="36.465625" y="229.013499" style="stroke: #000000; stroke-width: 0.8"/>
      </g>
     </g>
     <g id="text_7">
      <!-- 2.5 -->
      <g transform="translate(13.5625 232.812718) scale(0.1 -0.1)">
       <defs>
        <path id="DejaVuSans-35" d="M 691 4666 
L 3169 4666 
L 3169 4134 
L 1269 4134 
L 1269 2991 
Q 1406 3038 1543 3061 
Q 1681 3084 1819 3084 
Q 2600 3084 3056 2656 
Q 3513 2228 3513 1497 
Q 3513 744 3044 326 
Q 2575 -91 1722 -91 
Q 1428 -91 1123 -41 
Q 819 9 494 109 
L 494 744 
Q 775 591 1075 516 
Q 1375 441 1709 441 
Q 2250 441 2565 725 
Q 2881 1009 2881 1497 
Q 2881 1984 2565 2268 
Q 2250 2553 1709 2553 
Q 1456 2553 1204 2497 
Q 953 2441 691 2322 
L 691 4666 
z
" transform="scale(0.015625)"/>
       </defs>
       <use xlink:href="#DejaVuSans-32"/>
       <use xlink:href="#DejaVuSans-2e" x="63.623047"/>
       <use xlink:href="#DejaVuSans-35" x="95.410156"/>
      </g>
     </g>
    </g>
    <g id="ytick_3">
     <g id="line2d_8">
      <g>
       <use xlink:href="#m2773e19976" x="36.465625" y="196.997439" style="stroke: #000000; stroke-width: 0.8"/>
      </g>
     </g>
     <g id="text_8">
      <!-- 5.0 -->
      <g transform="translate(13.5625 200.796658) scale(0.1 -0.1)">
       <use xlink:href="#DejaVuSans-35"/>
       <use xlink:href="#DejaVuSans-2e" x="63.623047"/>
       <use xlink:href="#DejaVuSans-30" x="95.410156"/>
      </g>
     </g>
    </g>
    <g id="ytick_4">
     <g id="line2d_9">
      <g>
       <use xlink:href="#m2773e19976" x="36.465625" y="164.981379" style="stroke: #000000; stroke-width: 0.8"/>
      </g>
     </g>
     <g id="text_9">
      <!-- 7.5 -->
      <g transform="translate(13.5625 168.780598) scale(0.1 -0.1)">
       <defs>
        <path id="DejaVuSans-37" d="M 525 4666 
L 3525 4666 
L 3525 4397 
L 1831 0 
L 1172 0 
L 2766 4134 
L 525 4134 
L 525 4666 
z
" transform="scale(0.015625)"/>
       </defs>
       <use xlink:href="#DejaVuSans-37"/>
       <use xlink:href="#DejaVuSans-2e" x="63.623047"/>
       <use xlink:href="#DejaVuSans-35" x="95.410156"/>
      </g>
     </g>
    </g>
    <g id="ytick_5">
     <g id="line2d_10">
      <g>
       <use xlink:href="#m2773e19976" x="36.465625" y="132.965319" style="stroke: #000000; stroke-width: 0.8"/>
      </g>
     </g>
     <g id="text_10">
      <!-- 10.0 -->
      <g transform="translate(7.2 136.764538) scale(0.1 -0.1)">
       <defs>
        <path id="DejaVuSans-31" d="M 794 531 
L 1825 531 
L 1825 4091 
L 703 3866 
L 703 4441 
L 1819 4666 
L 2450 4666 
L 2450 531 
L 3481 531 
L 3481 0 
L 794 0 
L 794 531 
z
" transform="scale(0.015625)"/>
       </defs>
       <use xlink:href="#DejaVuSans-31"/>
       <use xlink:href="#DejaVuSans-30" x="63.623047"/>
       <use xlink:href="#DejaVuSans-2e" x="127.246094"/>
       <use xlink:href="#DejaVuSans-30" x="159.033203"/>
      </g>
     </g>
    </g>
    <g id="ytick_6">
     <g id="line2d_11">
      <g>
       <use xlink:href="#m2773e19976" x="36.465625" y="100.949259" style="stroke: #000000; stroke-width: 0.8"/>
      </g>
     </g>
     <g id="text_11">
      <!-- 12.5 -->
      <g transform="translate(7.2 104.748478) scale(0.1 -0.1)">
       <use xlink:href="#DejaVuSans-31"/>
       <use xlink:href="#DejaVuSans-32" x="63.623047"/>
       <use xlink:href="#DejaVuSans-2e" x="127.246094"/>
       <use xlink:href="#DejaVuSans-35" x="159.033203"/>
      </g>
     </g>
    </g>
    <g id="ytick_7">
     <g id="line2d_12">
      <g>
       <use xlink:href="#m2773e19976" x="36.465625" y="68.933199" style="stroke: #000000; stroke-width: 0.8"/>
      </g>
     </g>
     <g id="text_12">
      <!-- 15.0 -->
      <g transform="translate(7.2 72.732418) scale(0.1 -0.1)">
       <use xlink:href="#DejaVuSans-31"/>
       <use xlink:href="#DejaVuSans-35" x="63.623047"/>
       <use xlink:href="#DejaVuSans-2e" x="127.246094"/>
       <use xlink:href="#DejaVuSans-30" x="159.033203"/>
      </g>
     </g>
    </g>
    <g id="ytick_8">
     <g id="line2d_13">
      <g>
       <use xlink:href="#m2773e19976" x="36.465625" y="36.917139" style="stroke: #000000; stroke-width: 0.8"/>
      </g>
     </g>
     <g id="text_13">
      <!-- 17.5 -->
      <g transform="translate(7.2 40.716358) scale(0.1 -0.1)">
       <use xlink:href="#DejaVuSans-31"/>
       <use xlink:href="#DejaVuSans-37" x="63.623047"/>
       <use xlink:href="#DejaVuSans-2e" x="127.246094"/>
       <use xlink:href="#DejaVuSans-35" x="159.033203"/>
      </g>
     </g>
    </g>
   </g>
   <g id="line2d_14">
    <path d="M 52.698352 249.604831 
L 55.977691 247.409342 
L 59.25703 245.213852 
L 62.536369 243.018362 
L 65.815708 240.822873 
L 69.095046 238.627383 
L 72.374385 236.431893 
L 75.653724 234.236404 
L 78.933063 232.040914 
L 82.212402 229.845424 
L 85.491741 227.649934 
L 88.77108 225.454445 
L 92.050418 223.258955 
L 95.329757 221.063465 
L 98.609096 218.867976 
L 101.888435 216.672486 
L 105.167774 214.476996 
L 108.447113 212.281506 
L 111.726451 210.086017 
L 115.00579 207.890527 
L 118.285129 205.695037 
L 121.564468 203.499548 
L 124.843807 201.304058 
L 128.123146 199.108568 
L 131.402485 196.913079 
L 134.681823 194.717589 
L 137.961162 192.522099 
L 141.240501 190.326609 
L 144.51984 188.13112 
L 147.799179 185.93563 
L 151.078518 183.74014 
L 154.357856 181.544651 
L 157.637195 179.349161 
L 160.916534 177.153671 
L 164.195873 174.958181 
L 167.475212 172.762692 
L 170.754551 170.567202 
L 174.033889 168.371712 
L 177.313228 166.176223 
L 180.592567 163.980733 
L 183.871906 161.785243 
L 187.151245 159.589753 
L 190.430584 157.394264 
L 193.709923 155.198774 
L 196.989261 153.003284 
L 200.2686 150.807795 
L 203.547939 148.612305 
L 206.827278 146.416815 
L 210.106617 144.221326 
L 213.385956 142.025836 
L 216.665294 139.830346 
L 219.944633 137.634856 
L 223.223972 135.439367 
L 226.503311 133.243877 
L 229.78265 131.048387 
L 233.061989 128.852898 
L 236.341327 126.657408 
L 239.620666 124.461918 
L 242.900005 122.266428 
L 246.179344 120.070939 
L 249.458683 117.875449 
L 252.738022 115.679959 
L 256.017361 113.48447 
L 259.296699 111.28898 
L 262.576038 109.09349 
L 265.855377 106.898 
L 269.134716 104.702511 
L 272.414055 102.507021 
L 275.693394 100.311531 
L 278.972732 98.116042 
L 282.252071 95.920552 
L 285.53141 93.725062 
L 288.810749 91.529573 
L 292.090088 89.334083 
L 295.369427 87.138593 
L 298.648765 84.943103 
L 301.928104 82.747614 
L 305.207443 80.552124 
L 308.486782 78.356634 
L 311.766121 76.161145 
L 315.04546 73.965655 
L 318.324799 71.770165 
L 321.604137 69.574675 
L 324.883476 67.379186 
L 328.162815 65.183696 
L 331.442154 62.988206 
L 334.721493 60.792717 
L 338.000832 58.597227 
L 341.28017 56.401737 
L 344.559509 54.206247 
L 347.838848 52.010758 
L 351.118187 49.815268 
L 354.397526 47.619778 
L 357.676865 45.424289 
L 360.956204 43.228799 
L 364.235542 41.033309 
L 367.514881 38.83782 
L 370.79422 36.64233 
L 374.073559 34.44684 
L 377.352898 32.25135 
" clip-path="url(#p20b27d9a6b)" style="fill: none; stroke: #1f77b4; stroke-width: 2.25; stroke-linecap: square"/>
   </g>
   <g id="patch_3">
    <path d="M 36.465625 273.312 
L 36.465625 7.2 
" style="fill: none; stroke: #000000; stroke-width: 0.8; stroke-linejoin: miter; stroke-linecap: square"/>
   </g>
   <g id="patch_4">
    <path d="M 393.585625 273.312 
L 393.585625 7.2 
" style="fill: none; stroke: #000000; stroke-width: 0.8; stroke-linejoin: miter; stroke-linecap: square"/>
   </g>
   <g id="patch_5">
    <path d="M 36.465625 273.312 
L 393.585625 273.312 
" style="fill: none; stroke: #000000; stroke-width: 0.8; stroke-linejoin: miter; stroke-linecap: square"/>
   </g>
   <g id="patch_6">
    <path d="M 36.465625 7.2 
L 393.585625 7.2 
" style="fill: none; stroke: #000000; stroke-width: 0.8; stroke-linejoin: miter; stroke-linecap: square"/>
   </g>
  </g>
 </g>
 <defs>
  <clipPath id="p20b27d9a6b">
   <rect x="36.465625" y="7.2" width="357.12" height="266.112"/>
  </clipPath>
 </defs>
</svg>