<?xml version="1.0" encoding="utf-8" standalone="no"?>
<!DOCTYPE svg PUBLIC "-//W3C//DTD SVG 1.1//EN"
  "http://www.w3.org/Graphics/SVG/1.1/DTD/svg11.dtd">
<svg xmlns:xlink="http://www.w3.org/1999/xlink" width="391.245pt" height="297.190125pt" viewBox="0 0 391.245 297.190125" xmlns="http://www.w3.org/2000/svg" version="1.1">
 <metadata>
  <rdf:RDF xmlns:dc="http://purl.org/dc/elements/1.1/" xmlns:cc="http://creativecommons.org/ns#" xmlns:rdf="http://www.w3.org/1999/02/22-rdf-syntax-ns#">
   <cc:Work>
    <dc:type rdf:resource="http://purl.org/dc/dcmitype/StillImage"/>
    <dc:date>2023-12-16T13:07:10.860999</dc:date>
    <dc:format>image/svg+xml</dc:format>
    <dc:creator>
     <cc:Agent>
      <dc:title>Matplotlib v3.8.2, https://matplotlib.org/</dc:title>
     </cc:Agent>
    </dc:creator>
   </cc:Work>
  </rdf:RDF>
 </metadata>
 <defs>
  <style type="text/css">*{stroke-linejoin: round; stroke-linecap: butt}</style>
 </defs>
 <g id="figure_1">
  <g id="patch_1">
   <path d="M 0 297.190125 
L 391.245 297.190125 
L 391.245 0 
L 0 0 
z
" style="fill: #ffffff"/>
  </g>
  <g id="axes_1">
   <g id="patch_2">
    <path d="M 26.925 273.312 
L 384.045 273.312 
L 384.045 7.2 
L 26.925 7.2 
z
" style="fill: #ffffff"/>
   </g>
   <g id="PathCollection_1">
    <defs>
     <path id="m78a96500b9" d="M 0 3 
C 0.795609 3 1.55874 2.683901 2.12132 2.12132 
C 2.683901 1.55874 3 0.795609 3 0 
C 3 -0.795609 2.683901 -1.55874 2.12132 -2.12132 
C 1.55874 -2.683901 0.795609 -3 0 -3 
C -0.795609 -3 -1.55874 -2.683901 -2.12132 -2.12132 
C -2.683901 -1.55874 -3 -0.795609 -3 0 
C -3 0.795609 -2.683901 1.55874 -2.12132 2.12132 
C -1.55874 2.683901 -0.795609 3 0 3 
z
" style="stroke: #1f77b4; stroke-opacity: 0.8"/>
    </defs>
    <g clip-path="url(#p512cdd08b0)">
     <use xlink:href="#m78a96500b9" x="43.157727" y="246.59505" style="fill: #1f77b4; fill-opacity: 0.8; stroke: #1f77b4; stroke-opacity: 0.8"/>
     <use xlink:href="#m78a96500b9" x="79.230455" y="232.676384" style="fill: #1f77b4; fill-opacity: 0.8; stroke: #1f77b4; stroke-opacity: 0.8"/>
     <use xlink:href="#m78a96500b9" x="115.303182" y="192.019022" style="fill: #1f77b4; fill-opacity: 0.8; stroke: #1f77b4; stroke-opacity: 0.8"/>
     <use xlink:href="#m78a96500b9" x="151.375909" y="189.685337" style="fill: #1f77b4; fill-opacity: 0.8; stroke: #1f77b4; stroke-opacity: 0.8"/>
     <use xlink:href="#m78a96500b9" x="187.448636" y="134.943144" style="fill: #1f77b4; fill-opacity: 0.8; stroke: #1f77b4; stroke-opacity: 0.8"/>
     <use xlink:href="#m78a96500b9" x="223.521364" y="125.214762" style="fill: #1f77b4; fill-opacity: 0.8; stroke: #1f77b4; stroke-opacity: 0.8"/>
     <use xlink:href="#m78a96500b9" x="259.594091" y="117.555314" style="fill: #1f77b4; fill-opacity: 0.8; stroke: #1f77b4; stroke-opacity: 0.8"/>
     <use xlink:href="#m78a96500b9" x="295.666818" y="86.241187" style="fill: #1f77b4; fill-opacity: 0.8; stroke: #1f77b4; stroke-opacity: 0.8"/>
     <use xlink:href="#m78a96500b9" x="331.739545" y="53.737518" style="fill: #1f77b4; fill-opacity: 0.8; stroke: #1f77b4; stroke-opacity: 0.8"/>
     <use xlink:href="#m78a96500b9" x="367.812273" y="19.296" style="fill: #1f77b4; fill-opacity: 0.8; stroke: #1f77b4; stroke-opacity: 0.8"/>
    </g>
   </g>
   <g id="PolyCollection_1">
    <path d="M 43.157727 238.329868 
L 43.157727 261.216 
L 46.437066 258.846149 
L 49.716405 256.476411 
L 52.995744 254.090169 
L 56.275083 251.708927 
L 59.554421 249.369417 
L 62.83376 247.001804 
L 66.113099 244.63419 
L 69.392438 242.266576 
L 72.671777 239.89503 
L 75.951116 237.415783 
L 79.230455 235.060502 
L 82.509793 232.728034 
L 85.789132 230.395565 
L 89.068471 228.048151 
L 92.34781 225.666832 
L 95.627149 223.246177 
L 98.906488 220.825523 
L 102.185826 218.568012 
L 105.465165 216.166894 
L 108.744504 213.784628 
L 112.023843 211.438947 
L 115.303182 209.050165 
L 118.582521 206.679577 
L 121.86186 204.362478 
L 125.141198 202.047943 
L 128.420537 199.869971 
L 131.699876 197.599301 
L 134.979215 195.287828 
L 138.258554 192.973029 
L 141.537893 190.597893 
L 144.817231 188.218856 
L 148.09657 186.047869 
L 151.375909 183.730541 
L 154.655248 181.410602 
L 157.934587 179.104672 
L 161.213926 176.978887 
L 164.493264 174.703535 
L 167.772603 172.378774 
L 171.051942 170.156223 
L 174.331281 167.986626 
L 177.61062 165.81679 
L 180.889959 163.532119 
L 184.169298 161.368335 
L 187.448636 159.21253 
L 190.727975 157.007762 
L 194.007314 154.696059 
L 197.286653 152.475074 
L 200.565992 150.267719 
L 203.845331 147.888788 
L 207.124669 145.709462 
L 210.404008 143.386855 
L 213.683347 141.100936 
L 216.962686 138.967752 
L 220.242025 136.78121 
L 223.521364 134.415388 
L 226.800702 132.316539 
L 230.080041 130.224784 
L 233.35938 128.13303 
L 236.638719 126.039026 
L 239.918058 123.944823 
L 243.197397 121.865163 
L 246.476736 119.757739 
L 249.756074 117.664349 
L 253.035413 115.570272 
L 256.314752 113.478063 
L 259.594091 111.560375 
L 262.87343 109.476227 
L 266.152769 107.224774 
L 269.432107 105.105868 
L 272.711446 102.992375 
L 275.990785 100.913107 
L 279.270124 98.912124 
L 282.549463 96.78199 
L 285.828802 94.705546 
L 289.10814 92.73792 
L 292.387479 90.627865 
L 295.666818 88.463012 
L 298.946157 86.363643 
L 302.225496 84.335355 
L 305.504835 82.295956 
L 308.784174 80.323322 
L 312.063512 78.275666 
L 315.342851 76.179474 
L 318.62219 74.136719 
L 321.901529 72.132639 
L 325.180868 70.143707 
L 328.460207 68.148336 
L 331.739545 66.141517 
L 335.018884 64.134434 
L 338.298223 62.097893 
L 341.577562 60.006313 
L 344.856901 57.926752 
L 348.13624 55.925042 
L 351.415579 53.865949 
L 354.694917 51.806855 
L 357.974256 49.747762 
L 361.253595 47.688668 
L 364.532934 45.651555 
L 367.812273 43.640836 
L 367.812273 19.708192 
L 367.812273 19.708192 
L 364.532934 22.044782 
L 361.253595 24.381373 
L 357.974256 26.717963 
L 354.694917 28.902631 
L 351.415579 31.225476 
L 348.13624 33.638939 
L 344.856901 36.052402 
L 341.577562 38.408024 
L 338.298223 40.744598 
L 335.018884 43.081172 
L 331.739545 45.417745 
L 328.460207 47.674559 
L 325.180868 49.918543 
L 321.901529 52.213424 
L 318.62219 54.599264 
L 315.342851 56.838654 
L 312.063512 59.07069 
L 308.784174 61.368542 
L 305.504835 63.698788 
L 302.225496 66.029514 
L 298.946157 68.337167 
L 295.666818 70.680068 
L 292.387479 73.022175 
L 289.10814 75.293468 
L 285.828802 77.547614 
L 282.549463 79.870351 
L 279.270124 82.248211 
L 275.990785 84.626096 
L 272.711446 86.917718 
L 269.432107 89.207114 
L 266.152769 91.496509 
L 262.87343 93.68224 
L 259.594091 95.86407 
L 256.314752 98.153599 
L 253.035413 100.463307 
L 249.756074 102.762 
L 246.476736 105.062575 
L 243.197397 107.326934 
L 239.918058 109.583304 
L 236.638719 111.815216 
L 233.35938 114.049346 
L 230.080041 116.401769 
L 226.800702 118.729423 
L 223.521364 120.982413 
L 220.242025 123.135033 
L 216.962686 125.414055 
L 213.683347 127.627287 
L 210.404008 129.773774 
L 207.124669 131.990902 
L 203.845331 134.191212 
L 200.565992 136.390662 
L 197.286653 138.642411 
L 194.007314 140.83836 
L 190.727975 143.070511 
L 187.448636 145.376192 
L 184.169298 147.53538 
L 180.889959 149.767887 
L 177.61062 151.998887 
L 174.331281 154.171678 
L 171.051942 156.416338 
L 167.772603 158.641399 
L 164.493264 160.708846 
L 161.213926 162.839066 
L 157.934587 164.992079 
L 154.655248 167.164609 
L 151.375909 169.338235 
L 148.09657 171.425605 
L 144.817231 173.364482 
L 141.537893 175.543145 
L 138.258554 177.737867 
L 134.979215 179.973012 
L 131.699876 182.182235 
L 128.420537 184.326837 
L 125.141198 186.375393 
L 121.86186 188.549026 
L 118.582521 190.65829 
L 115.303182 192.807255 
L 112.023843 194.99192 
L 108.744504 197.180426 
L 105.465165 199.242489 
L 102.185826 201.479826 
L 98.906488 203.518179 
L 95.627149 205.559339 
L 92.34781 207.600499 
L 89.068471 209.641659 
L 85.789132 211.682818 
L 82.509793 213.706804 
L 79.230455 215.717092 
L 75.951116 217.798562 
L 72.671777 219.837134 
L 69.392438 221.877383 
L 66.113099 223.917632 
L 62.83376 225.957881 
L 59.554421 227.998487 
L 56.275083 230.040567 
L 52.995744 232.082648 
L 49.716405 234.124729 
L 46.437066 236.206685 
L 43.157727 238.329868 
z
" clip-path="url(#p512cdd08b0)" style="fill: #1f77b4; fill-opacity: 0.15"/>
   </g>
   <g id="matplotlib.axis_1">
    <g id="xtick_1">
     <g id="line2d_1">
      <defs>
       <path id="m9325748611" d="M 0 0 
L 0 3.5 
" style="stroke: #000000; stroke-width: 0.8"/>
      </defs>
      <g>
       <use xlink:href="#m9325748611" x="43.157727" y="273.312" style="stroke: #000000; stroke-width: 0.8"/>
      </g>
     </g>
     <g id="text_1">
      <!-- 0 -->
      <g transform="translate(39.976477 287.910437) scale(0.1 -0.1)">
       <defs>
        <path id="DejaVuSans-30" d="M 2034 4250 
Q 1547 4250 1301 3770 
Q 1056 3291 1056 2328 
Q 1056 1369 1301 889 
Q 1547 409 2034 409 
Q 2525 409 2770 889 
Q 3016 1369 3016 2328 
Q 3016 3291 2770 3770 
Q 2525 4250 2034 4250 
z
M 2034 4750 
Q 2819 4750 3233 4129 
Q 3647 3509 3647 2328 
Q 3647 1150 3233 529 
Q 2819 -91 2034 -91 
Q 1250 -91 836 529 
Q 422 1150 422 2328 
Q 422 3509 836 4129 
Q 1250 4750 2034 4750 
z
" transform="scale(0.015625)"/>
       </defs>
       <use xlink:href="#DejaVuSans-30"/>
      </g>
     </g>
    </g>
    <g id="xtick_2">
     <g id="line2d_2">
      <g>
       <use xlink:href="#m9325748611" x="115.303182" y="273.312" style="stroke: #000000; stroke-width: 0.8"/>
      </g>
     </g>
     <g id="text_2">
      <!-- 2 -->
      <g transform="translate(112.121932 287.910437) scale(0.1 -0.1)">
       <defs>
        <path id="DejaVuSans-32" d="M 1228 531 
L 3431 531 
L 3431 0 
L 469 0 
L 469 531 
Q 828 903 1448 1529 
Q 2069 2156 2228 2338 
Q 2531 2678 2651 2914 
Q 2772 3150 2772 3378 
Q 2772 3750 2511 3984 
Q 2250 4219 1831 4219 
Q 1534 4219 1204 4116 
Q 875 4013 500 3803 
L 500 4441 
Q 881 4594 1212 4672 
Q 1544 4750 1819 4750 
Q 2544 4750 2975 4387 
Q 3406 4025 3406 3419 
Q 3406 3131 3298 2873 
Q 3191 2616 2906 2266 
Q 2828 2175 2409 1742 
Q 1991 1309 1228 531 
z
" transform="scale(0.015625)"/>
       </defs>
       <use xlink:href="#DejaVuSans-32"/>
      </g>
     </g>
    </g>
    <g id="xtick_3">
     <g id="line2d_3">
      <g>
       <use xlink:href="#m9325748611" x="187.448636" y="273.312" style="stroke: #000000; stroke-width: 0.8"/>
      </g>
     </g>
     <g id="text_3">
      <!-- 4 -->
      <g transform="translate(184.267386 287.910437) scale(0.1 -0.1)">
       <defs>
        <path id="DejaVuSans-34" d="M 2419 4116 
L 825 1625 
L 2419 1625 
L 2419 4116 
z
M 2253 4666 
L 3047 4666 
L 3047 1625 
L 3713 1625 
L 3713 1100 
L 3047 1100 
L 3047 0 
L 2419 0 
L 2419 1100 
L 313 1100 
L 313 1709 
L 2253 4666 
z
" transform="scale(0.015625)"/>
       </defs>
       <use xlink:href="#DejaVuSans-34"/>
      </g>
     </g>
    </g>
    <g id="xtick_4">
     <g id="line2d_4">
      <g>
       <use xlink:href="#m9325748611" x="259.594091" y="273.312" style="stroke: #000000; stroke-width: 0.8"/>
      </g>
     </g>
     <g id="text_4">
      <!-- 6 -->
      <g transform="translate(256.412841 287.910437) scale(0.1 -0.1)">
       <defs>
        <path id="DejaVuSans-36" d="M 2113 2584 
Q 1688 2584 1439 2293 
Q 1191 2003 1191 1497 
Q 1191 994 1439 701 
Q 1688 409 2113 409 
Q 2538 409 2786 701 
Q 3034 994 3034 1497 
Q 3034 2003 2786 2293 
Q 2538 2584 2113 2584 
z
M 3366 4563 
L 3366 3988 
Q 3128 4100 2886 4159 
Q 2644 4219 2406 4219 
Q 1781 4219 1451 3797 
Q 1122 3375 1075 2522 
Q 1259 2794 1537 2939 
Q 1816 3084 2150 3084 
Q 2853 3084 3261 2657 
Q 3669 2231 3669 1497 
Q 3669 778 3244 343 
Q 2819 -91 2113 -91 
Q 1303 -91 875 529 
Q 447 1150 447 2328 
Q 447 3434 972 4092 
Q 1497 4750 2381 4750 
Q 2619 4750 2861 4703 
Q 3103 4656 3366 4563 
z
" transform="scale(0.015625)"/>
       </defs>
       <use xlink:href="#DejaVuSans-36"/>
      </g>
     </g>
    </g>
    <g id="xtick_5">
     <g id="line2d_5">
      <g>
       <use xlink:href="#m9325748611" x="331.739545" y="273.312" style="stroke: #000000; stroke-width: 0.8"/>
      </g>
     </g>
     <g id="text_5">
      <!-- 8 -->
      <g transform="translate(328.558295 287.910437) scale(0.1 -0.1)">
       <defs>
        <path id="DejaVuSans-38" d="M 2034 2216 
Q 1584 2216 1326 1975 
Q 1069 1734 1069 1313 
Q 1069 891 1326 650 
Q 1584 409 2034 409 
Q 2484 409 2743 651 
Q 3003 894 3003 1313 
Q 3003 1734 2745 1975 
Q 2488 2216 2034 2216 
z
M 1403 2484 
Q 997 2584 770 2862 
Q 544 3141 544 3541 
Q 544 4100 942 4425 
Q 1341 4750 2034 4750 
Q 2731 4750 3128 4425 
Q 3525 4100 3525 3541 
Q 3525 3141 3298 2862 
Q 3072 2584 2669 2484 
Q 3125 2378 3379 2068 
Q 3634 1759 3634 1313 
Q 3634 634 3220 271 
Q 2806 -91 2034 -91 
Q 1263 -91 848 271 
Q 434 634 434 1313 
Q 434 1759 690 2068 
Q 947 2378 1403 2484 
z
M 1172 3481 
Q 1172 3119 1398 2916 
Q 1625 2713 2034 2713 
Q 2441 2713 2670 2916 
Q 2900 3119 2900 3481 
Q 2900 3844 2670 4047 
Q 2441 4250 2034 4250 
Q 1625 4250 1398 4047 
Q 1172 3844 1172 3481 
z
" transform="scale(0.015625)"/>
       </defs>
       <use xlink:href="#DejaVuSans-38"/>
      </g>
     </g>
    </g>
   </g>
   <g id="matplotlib.axis_2">
    <g id="ytick_1">
     <g id="line2d_6">
      <defs>
       <path id="mb8995b01d4" d="M 0 0 
L -3.5 0 
" style="stroke: #000000; stroke-width: 0.8"/>
      </defs>
      <g>
       <use xlink:href="#mb8995b01d4" x="26.925" y="241.974104" style="stroke: #000000; stroke-width: 0.8"/>
      </g>
     </g>
     <g id="text_6">
      <!-- 0 -->
      <g transform="translate(13.5625 245.773322) scale(0.1 -0.1)">
       <use xlink:href="#DejaVuSans-30"/>
      </g>
     </g>
    </g>
    <g id="ytick_2">
     <g id="line2d_7">
      <g>
       <use xlink:href="#mb8995b01d4" x="26.925" y="188.53299" style="stroke: #000000; stroke-width: 0.8"/>
      </g>
     </g>
     <g id="text_7">
      <!-- 5 -->
      <g transform="translate(13.5625 192.332209) scale(0.1 -0.1)">
       <defs>
        <path id="DejaVuSans-35" d="M 691 4666 
L 3169 4666 
L 3169 4134 
L 1269 4134 
L 1269 2991 
Q 1406 3038 1543 3061 
Q 1681 3084 1819 3084 
Q 2600 3084 3056 2656 
Q 3513 2228 3513 1497 
Q 3513 744 3044 326 
Q 2575 -91 1722 -91 
Q 1428 -91 1123 -41 
Q 819 9 494 109 
L 494 744 
Q 775 591 1075 516 
Q 1375 441 1709 441 
Q 2250 441 2565 725 
Q 2881 1009 2881 1497 
Q 2881 1984 2565 2268 
Q 2250 2553 1709 2553 
Q 1456 2553 1204 2497 
Q 953 2441 691 2322 
L 691 4666 
z
" transform="scale(0.015625)"/>
       </defs>
       <use xlink:href="#DejaVuSans-35"/>
      </g>
     </g>
    </g>
    <g id="ytick_3">
     <g id="line2d_8">
      <g>
       <use xlink:href="#mb8995b01d4" x="26.925" y="135.091877" style="stroke: #000000; stroke-width: 0.8"/>
      </g>
     </g>
     <g id="text_8">
      <!-- 10 -->
      <g transform="translate(7.2 138.891096) scale(0.1 -0.1)">
       <defs>
        <path id="DejaVuSans-31" d="M 794 531 
L 1825 531 
L 1825 4091 
L 703 3866 
L 703 4441 
L 1819 4666 
L 2450 4666 
L 2450 531 
L 3481 531 
L 3481 0 
L 794 0 
L 794 531 
z
" transform="scale(0.015625)"/>
       </defs>
       <use xlink:href="#DejaVuSans-31"/>
       <use xlink:href="#DejaVuSans-30" x="63.623047"/>
      </g>
     </g>
    </g>
    <g id="ytick_4">
     <g id="line2d_9">
      <g>
       <use xlink:href="#mb8995b01d4" x="26.925" y="81.650764" style="stroke: #000000; stroke-width: 0.8"/>
      </g>
     </g>
     <g id="text_9">
      <!-- 15 -->
      <g transform="translate(7.2 85.449983) scale(0.1 -0.1)">
       <use xlink:href="#DejaVuSans-31"/>
       <use xlink:href="#DejaVuSans-35" x="63.623047"/>
      </g>
     </g>
    </g>
    <g id="ytick_5">
     <g id="line2d_10">
      <g>
       <use xlink:href="#mb8995b01d4" x="26.925" y="28.209651" style="stroke: #000000; stroke-width: 0.8"/>
      </g>
     </g>
     <g id="text_10">
      <!-- 20 -->
      <g transform="translate(7.2 32.008869) scale(0.1 -0.1)">
       <use xlink:href="#DejaVuSans-32"/>
       <use xlink:href="#DejaVuSans-30" x="63.623047"/>
      </g>
     </g>
    </g>
   </g>
   <g id="line2d_11">
    <path d="M 43.157727 250.34013 
L 46.437066 248.106923 
L 49.716405 245.873716 
L 52.995744 243.640508 
L 56.275083 241.407301 
L 59.554421 239.174094 
L 62.83376 236.940887 
L 66.113099 234.707679 
L 69.392438 232.474472 
L 72.671777 230.241265 
L 75.951116 228.008058 
L 79.230455 225.774851 
L 82.509793 223.541643 
L 85.789132 221.308436 
L 89.068471 219.075229 
L 92.34781 216.842022 
L 95.627149 214.608814 
L 98.906488 212.375607 
L 102.185826 210.1424 
L 105.465165 207.909193 
L 108.744504 205.675985 
L 112.023843 203.442778 
L 115.303182 201.209571 
L 118.582521 198.976364 
L 121.86186 196.743156 
L 125.141198 194.509949 
L 128.420537 192.276742 
L 131.699876 190.043535 
L 134.979215 187.810328 
L 138.258554 185.57712 
L 141.537893 183.343913 
L 144.817231 181.110706 
L 148.09657 178.877499 
L 151.375909 176.644291 
L 154.655248 174.411084 
L 157.934587 172.177877 
L 161.213926 169.94467 
L 164.493264 167.711462 
L 167.772603 165.478255 
L 171.051942 163.245048 
L 174.331281 161.011841 
L 177.61062 158.778633 
L 180.889959 156.545426 
L 184.169298 154.312219 
L 187.448636 152.079012 
L 190.727975 149.845804 
L 194.007314 147.612597 
L 197.286653 145.37939 
L 200.565992 143.146183 
L 203.845331 140.912976 
L 207.124669 138.679768 
L 210.404008 136.446561 
L 213.683347 134.213354 
L 216.962686 131.980147 
L 220.242025 129.746939 
L 223.521364 127.513732 
L 226.800702 125.280525 
L 230.080041 123.047318 
L 233.35938 120.81411 
L 236.638719 118.580903 
L 239.918058 116.347696 
L 243.197397 114.114489 
L 246.476736 111.881281 
L 249.756074 109.648074 
L 253.035413 107.414867 
L 256.314752 105.18166 
L 259.594091 102.948453 
L 262.87343 100.715245 
L 266.152769 98.482038 
L 269.432107 96.248831 
L 272.711446 94.015624 
L 275.990785 91.782416 
L 279.270124 89.549209 
L 282.549463 87.316002 
L 285.828802 85.082795 
L 289.10814 82.849587 
L 292.387479 80.61638 
L 295.666818 78.383173 
L 298.946157 76.149966 
L 302.225496 73.916758 
L 305.504835 71.683551 
L 308.784174 69.450344 
L 312.063512 67.217137 
L 315.342851 64.983929 
L 318.62219 62.750722 
L 321.901529 60.517515 
L 325.180868 58.284308 
L 328.460207 56.051101 
L 331.739545 53.817893 
L 335.018884 51.584686 
L 338.298223 49.351479 
L 341.577562 47.118272 
L 344.856901 44.885064 
L 348.13624 42.651857 
L 351.415579 40.41865 
L 354.694917 38.185443 
L 357.974256 35.952235 
L 361.253595 33.719028 
L 364.532934 31.485821 
L 367.812273 29.252614 
" clip-path="url(#p512cdd08b0)" style="fill: none; stroke: #1f77b4; stroke-width: 2.25; stroke-linecap: square"/>
   </g>
   <g id="patch_3">
    <path d="M 26.925 273.312 
L 26.925 7.2 
" style="fill: none; stroke: #000000; stroke-width: 0.8; stroke-linejoin: miter; stroke-linecap: square"/>
   </g>
   <g id="patch_4">
    <path d="M 384.045 273.312 
L 384.045 7.2 
" style="fill: none; stroke: #000000; stroke-width: 0.8; stroke-linejoin: miter; stroke-linecap: square"/>
   </g>
   <g id="patch_5">
    <path d="M 26.925 273.312 
L 384.045 273.312 
" style="fill: none; stroke: #000000; stroke-width: 0.8; stroke-linejoin: miter; stroke-linecap: square"/>
   </g>
   <g id="patch_6">
    <path d="M 26.925 7.2 
L 384.045 7.2 
" style="fill: none; stroke: #000000; stroke-width: 0.8; stroke-linejoin: miter; stroke-linecap: square"/>
   </g>
  </g>
 </g>
 <defs>
  <clipPath id="p512cdd08b0">
   <rect x="26.925" y="7.2" width="357.12" height="266.112"/>
  </clipPath>
 </defs>
</svg>