<?xml version="1.0" encoding="utf-8" standalone="no"?>
<!DOCTYPE svg PUBLIC "-//W3C//DTD SVG 1.1//EN"
  "http://www.w3.org/Graphics/SVG/1.1/DTD/svg11.dtd">
<svg xmlns:xlink="http://www.w3.org/1999/xlink" width="391.245pt" height="297.190125pt" viewBox="0 0 391.245 297.190125" xmlns="http://www.w3.org/2000/svg" version="1.1">
 <metadata>
  <rdf:RDF xmlns:dc="http://purl.org/dc/elements/1.1/" xmlns:cc="http://creativecommons.org/ns#" xmlns:rdf="http://www.w3.org/1999/02/22-rdf-syntax-ns#">
   <cc:Work>
    <dc:type rdf:resource="http://purl.org/dc/dcmitype/StillImage"/>
    <dc:date>2025-12-29T19:36:36.162587</dc:date>
    <dc:format>image/svg+xml</dc:format>
    <dc:creator>
     <cc:Agent>
      <dc:title>Matplotlib v3.10.3, https://matplotlib.org/</dc:title>
     </cc:Agent>
    </dc:creator>
   </cc:Work>
  </rdf:RDF>
 </metadata>
 <defs>
  <style type="text/css">*{stroke-linejoin: round; stroke-linecap: butt}</style>
 </defs>
 <g id="figure_1">
  <g id="patch_1">
   <path d="M 0 297.190125 
L 391.245 297.190125 
L 391.245 0 
L 0 0 
z
" style="fill: #ffffff"/>
  </g>
  <g id="axes_1">
   <g id="patch_2">
    <path d="M 26.925 273.312 
L 384.045 273.312 
L 384.045 7.2 
L 26.925 7.2 
z
" style="fill: #ffffff"/>
   </g>
   <g id="PathCollection_1">
    <defs>
     <path id="m8e24655c9e" d="M 0 3 
C 0.795609 3 1.55874 2.683901 2.12132 2.12132 
C 2.683901 1.55874 3 0.795609 3 0 
C 3 -0.795609 2.683901 -1.55874 2.12132 -2.12132 
C 1.55874 -2.683901 0.795609 -3 0 -3 
C -0.795609 -3 -1.55874 -2.683901 -2.12132 -2.12132 
C -2.683901 -1.55874 -3 -0.795609 -3 0 
C -3 0.795609 -2.683901 1.55874 -2.12132 2.12132 
C -1.55874 2.683901 -0.795609 3 0 3 
z
" style="stroke: #1f77b4; stroke-opacity: 0.8"/>
    </defs>
    <g clip-path="url(#p69d3e94f8c)">
     <use xlink:href="#m8e24655c9e" x="43.157727" y="246.798334" style="fill: #1f77b4; fill-opacity: 0.8; stroke: #1f77b4; stroke-opacity: 0.8"/>
     <use xlink:href="#m8e24655c9e" x="79.230455" y="232.867221" style="fill: #1f77b4; fill-opacity: 0.8; stroke: #1f77b4; stroke-opacity: 0.8"/>
     <use xlink:href="#m8e24655c9e" x="115.303182" y="192.173497" style="fill: #1f77b4; fill-opacity: 0.8; stroke: #1f77b4; stroke-opacity: 0.8"/>
     <use xlink:href="#m8e24655c9e" x="151.375909" y="189.837724" style="fill: #1f77b4; fill-opacity: 0.8; stroke: #1f77b4; stroke-opacity: 0.8"/>
     <use xlink:href="#m8e24655c9e" x="187.448636" y="135.046573" style="fill: #1f77b4; fill-opacity: 0.8; stroke: #1f77b4; stroke-opacity: 0.8"/>
     <use xlink:href="#m8e24655c9e" x="223.521364" y="125.30949" style="fill: #1f77b4; fill-opacity: 0.8; stroke: #1f77b4; stroke-opacity: 0.8"/>
     <use xlink:href="#m8e24655c9e" x="259.594091" y="117.643192" style="fill: #1f77b4; fill-opacity: 0.8; stroke: #1f77b4; stroke-opacity: 0.8"/>
     <use xlink:href="#m8e24655c9e" x="295.666818" y="86.30106" style="fill: #1f77b4; fill-opacity: 0.8; stroke: #1f77b4; stroke-opacity: 0.8"/>
     <use xlink:href="#m8e24655c9e" x="331.739545" y="53.768321" style="fill: #1f77b4; fill-opacity: 0.8; stroke: #1f77b4; stroke-opacity: 0.8"/>
     <use xlink:href="#m8e24655c9e" x="367.812273" y="19.296" style="fill: #1f77b4; fill-opacity: 0.8; stroke: #1f77b4; stroke-opacity: 0.8"/>
    </g>
   </g>
   <g id="FillBetweenPolyCollection_1">
    <path d="M 43.157727 238.611272 
L 43.157727 261.216 
L 46.437066 258.879603 
L 49.716405 256.510866 
L 52.995744 254.156162 
L 56.275083 251.804316 
L 59.554421 249.441216 
L 62.83376 247.078117 
L 66.113099 244.715017 
L 69.392438 242.351918 
L 72.671777 239.988818 
L 75.951116 237.625719 
L 79.230455 235.26262 
L 82.509793 232.89952 
L 85.789132 230.536421 
L 89.068471 228.187072 
L 92.34781 225.854087 
L 95.627149 223.521102 
L 98.906488 221.141262 
L 102.185826 218.745912 
L 105.465165 216.355617 
L 108.744504 213.992892 
L 112.023843 211.630167 
L 115.303182 209.267441 
L 118.582521 206.904716 
L 121.86186 204.541991 
L 125.141198 202.228464 
L 128.420537 199.927425 
L 131.699876 197.626386 
L 134.979215 195.324077 
L 138.258554 193.021257 
L 141.537893 190.697181 
L 144.817231 188.435932 
L 148.09657 186.179024 
L 151.375909 183.852081 
L 154.655248 181.539624 
L 157.934587 179.225711 
L 161.213926 176.872436 
L 164.493264 174.562913 
L 167.772603 172.232907 
L 171.051942 169.927807 
L 174.331281 167.590083 
L 177.61062 165.365683 
L 180.889959 163.115653 
L 184.169298 160.805224 
L 187.448636 158.630826 
L 190.727975 156.451457 
L 194.007314 154.259595 
L 197.286653 151.999651 
L 200.565992 149.74328 
L 203.845331 147.453643 
L 207.124669 145.176321 
L 210.404008 143.000427 
L 213.683347 140.926125 
L 216.962686 138.774416 
L 220.242025 136.59678 
L 223.521364 134.42824 
L 226.800702 132.284135 
L 230.080041 130.073544 
L 233.35938 127.839289 
L 236.638719 125.456111 
L 239.918058 123.181588 
L 243.197397 121.026703 
L 246.476736 118.871818 
L 249.756074 116.736038 
L 253.035413 114.742914 
L 256.314752 112.566402 
L 259.594091 110.398507 
L 262.87343 108.229928 
L 266.152769 106.15843 
L 269.432107 104.118812 
L 272.711446 101.976205 
L 275.990785 99.908577 
L 279.270124 97.884591 
L 282.549463 95.797827 
L 285.828802 93.683495 
L 289.10814 91.626617 
L 292.387479 89.547541 
L 295.666818 87.462947 
L 298.946157 85.378319 
L 302.225496 83.292773 
L 305.504835 81.205423 
L 308.784174 79.118072 
L 312.063512 77.059901 
L 315.342851 75.073598 
L 318.62219 72.962275 
L 321.901529 70.865203 
L 325.180868 68.875842 
L 328.460207 66.88648 
L 331.739545 64.897119 
L 335.018884 62.905558 
L 338.298223 60.911682 
L 341.577562 58.839633 
L 344.856901 56.718661 
L 348.13624 54.597356 
L 351.415579 52.473683 
L 354.694917 50.35001 
L 357.974256 48.260638 
L 361.253595 46.235583 
L 364.532934 44.210527 
L 367.812273 42.185472 
L 367.812273 19.62962 
L 367.812273 19.62962 
L 364.532934 21.973093 
L 361.253595 24.387576 
L 357.974256 26.765011 
L 354.694917 29.109036 
L 351.415579 31.44567 
L 348.13624 33.780196 
L 344.856901 36.031016 
L 341.577562 38.455573 
L 338.298223 40.792207 
L 335.018884 43.128841 
L 331.739545 45.482073 
L 328.460207 47.844265 
L 325.180868 50.206456 
L 321.901529 52.568647 
L 318.62219 54.903299 
L 315.342851 57.196953 
L 312.063512 59.490608 
L 308.784174 61.815936 
L 305.504835 64.150813 
L 302.225496 66.48569 
L 298.946157 68.820566 
L 295.666818 71.094385 
L 292.387479 73.357699 
L 289.10814 75.635337 
L 285.828802 77.969109 
L 282.549463 80.279166 
L 279.270124 82.543923 
L 275.990785 84.795428 
L 272.711446 87.070276 
L 269.432107 89.346212 
L 266.152769 91.622147 
L 262.87343 93.877554 
L 259.594091 96.160175 
L 256.314752 98.373665 
L 253.035413 100.587156 
L 249.756074 102.788756 
L 246.476736 105.011988 
L 243.197397 107.297192 
L 239.918058 109.540318 
L 236.638719 111.855448 
L 233.35938 114.152464 
L 230.080041 116.432695 
L 226.800702 118.731787 
L 223.521364 121.04648 
L 220.242025 123.363361 
L 216.962686 125.678172 
L 213.683347 127.942593 
L 210.404008 130.162424 
L 207.124669 132.331364 
L 203.845331 134.537161 
L 200.565992 136.752035 
L 197.286653 139.04247 
L 194.007314 141.135407 
L 190.727975 143.22195 
L 187.448636 145.459937 
L 184.169298 147.751109 
L 180.889959 149.896351 
L 177.61062 151.992054 
L 174.331281 154.166047 
L 171.051942 156.308041 
L 167.772603 158.404036 
L 164.493264 160.612901 
L 161.213926 162.762376 
L 157.934587 164.967182 
L 154.655248 167.090243 
L 151.375909 169.360797 
L 148.09657 171.577326 
L 144.817231 173.671221 
L 141.537893 175.774832 
L 138.258554 177.845307 
L 134.979215 179.915127 
L 131.699876 181.984946 
L 128.420537 184.125754 
L 125.141198 186.2161 
L 121.86186 188.433332 
L 118.582521 190.533108 
L 115.303182 192.621862 
L 112.023843 194.730099 
L 108.744504 196.831884 
L 105.465165 199.056269 
L 102.185826 201.173949 
L 98.906488 203.128492 
L 95.627149 205.217474 
L 92.34781 207.314282 
L 89.068471 209.42013 
L 85.789132 211.493651 
L 82.509793 213.498193 
L 79.230455 215.535018 
L 75.951116 217.712719 
L 72.671777 219.890735 
L 69.392438 221.992077 
L 66.113099 224.069476 
L 62.83376 226.093579 
L 59.554421 228.148134 
L 56.275083 230.229326 
L 52.995744 232.375095 
L 49.716405 234.456473 
L 46.437066 236.533872 
L 43.157727 238.611272 
z
" clip-path="url(#p69d3e94f8c)" style="fill: #1f77b4; fill-opacity: 0.15"/>
   </g>
   <g id="matplotlib.axis_1">
    <g id="xtick_1">
     <g id="line2d_1">
      <defs>
       <path id="m24a5846736" d="M 0 0 
L 0 3.5 
" style="stroke: #000000; stroke-width: 0.8"/>
      </defs>
      <g>
       <use xlink:href="#m24a5846736" x="43.157727" y="273.312" style="stroke: #000000; stroke-width: 0.8"/>
      </g>
     </g>
     <g id="text_1">
      <!-- 0 -->
      <g transform="translate(39.976477 287.910437) scale(0.1 -0.1)">
       <defs>
        <path id="DejaVuSans-30" d="M 2034 4250 
Q 1547 4250 1301 3770 
Q 1056 3291 1056 2328 
Q 1056 1369 1301 889 
Q 1547 409 2034 409 
Q 2525 409 2770 889 
Q 3016 1369 3016 2328 
Q 3016 3291 2770 3770 
Q 2525 4250 2034 4250 
z
M 2034 4750 
Q 2819 4750 3233 4129 
Q 3647 3509 3647 2328 
Q 3647 1150 3233 529 
Q 2819 -91 2034 -91 
Q 1250 -91 836 529 
Q 422 1150 422 2328 
Q 422 3509 836 4129 
Q 1250 4750 2034 4750 
z
" transform="scale(0.015625)"/>
       </defs>
       <use xlink:href="#DejaVuSans-30"/>
      </g>
     </g>
    </g>
    <g id="xtick_2">
     <g id="line2d_2">
      <g>
       <use xlink:href="#m24a5846736" x="115.303182" y="273.312" style="stroke: #000000; stroke-width: 0.8"/>
      </g>
     </g>
     <g id="text_2">
      <!-- 2 -->
      <g transform="translate(112.121932 287.910437) scale(0.1 -0.1)">
       <defs>
        <path id="DejaVuSans-32" d="M 1228 531 
L 3431 531 
L 3431 0 
L 469 0 
L 469 531 
Q 828 903 1448 1529 
Q 2069 2156 2228 2338 
Q 2531 2678 2651 2914 
Q 2772 3150 2772 3378 
Q 2772 3750 2511 3984 
Q 2250 4219 1831 4219 
Q 1534 4219 1204 4116 
Q 875 4013 500 3803 
L 500 4441 
Q 881 4594 1212 4672 
Q 1544 4750 1819 4750 
Q 2544 4750 2975 4387 
Q 3406 4025 3406 3419 
Q 3406 3131 3298 2873 
Q 3191 2616 2906 2266 
Q 2828 2175 2409 1742 
Q 1991 1309 1228 531 
z
" transform="scale(0.015625)"/>
       </defs>
       <use xlink:href="#DejaVuSans-32"/>
      </g>
     </g>
    </g>
    <g id="xtick_3">
     <g id="line2d_3">
      <g>
       <use xlink:href="#m24a5846736" x="187.448636" y="273.312" style="stroke: #000000; stroke-width: 0.8"/>
      </g>
     </g>
     <g id="text_3">
      <!-- 4 -->
      <g transform="translate(184.267386 287.910437) scale(0.1 -0.1)">
       <defs>
        <path id="DejaVuSans-34" d="M 2419 4116 
L 825 1625 
L 2419 1625 
L 2419 4116 
z
M 2253 4666 
L 3047 4666 
L 3047 1625 
L 3713 1625 
L 3713 1100 
L 3047 1100 
L 3047 0 
L 2419 0 
L 2419 1100 
L 313 1100 
L 313 1709 
L 2253 4666 
z
" transform="scale(0.015625)"/>
       </defs>
       <use xlink:href="#DejaVuSans-34"/>
      </g>
     </g>
    </g>
    <g id="xtick_4">
     <g id="line2d_4">
      <g>
       <use xlink:href="#m24a5846736" x="259.594091" y="273.312" style="stroke: #000000; stroke-width: 0.8"/>
      </g>
     </g>
     <g id="text_4">
      <!-- 6 -->
      <g transform="translate(256.412841 287.910437) scale(0.1 -0.1)">
       <defs>
        <path id="DejaVuSans-36" d="M 2113 2584 
Q 1688 2584 1439 2293 
Q 1191 2003 1191 1497 
Q 1191 994 1439 701 
Q 1688 409 2113 409 
Q 2538 409 2786 701 
Q 3034 994 3034 1497 
Q 3034 2003 2786 2293 
Q 2538 2584 2113 2584 
z
M 3366 4563 
L 3366 3988 
Q 3128 4100 2886 4159 
Q 2644 4219 2406 4219 
Q 1781 4219 1451 3797 
Q 1122 3375 1075 2522 
Q 1259 2794 1537 2939 
Q 1816 3084 2150 3084 
Q 2853 3084 3261 2657 
Q 3669 2231 3669 1497 
Q 3669 778 3244 343 
Q 2819 -91 2113 -91 
Q 1303 -91 875 529 
Q 447 1150 447 2328 
Q 447 3434 972 4092 
Q 1497 4750 2381 4750 
Q 2619 4750 2861 4703 
Q 3103 4656 3366 4563 
z
" transform="scale(0.015625)"/>
       </defs>
       <use xlink:href="#DejaVuSans-36"/>
      </g>
     </g>
    </g>
    <g id="xtick_5">
     <g id="line2d_5">
      <g>
       <use xlink:href="#m24a5846736" x="331.739545" y="273.312" style="stroke: #000000; stroke-width: 0.8"/>
      </g>
     </g>
     <g id="text_5">
      <!-- 8 -->
      <g transform="translate(328.558295 287.910437) scale(0.1 -0.1)">
       <defs>
        <path id="DejaVuSans-38" d="M 2034 2216 
Q 1584 2216 1326 1975 
Q 1069 1734 1069 1313 
Q 1069 891 1326 650 
Q 1584 409 2034 409 
Q 2484 409 2743 651 
Q 3003 894 3003 1313 
Q 3003 1734 2745 1975 
Q 2488 2216 2034 2216 
z
M 1403 2484 
Q 997 2584 770 2862 
Q 544 3141 544 3541 
Q 544 4100 942 4425 
Q 1341 4750 2034 4750 
Q 2731 4750 3128 4425 
Q 3525 4100 3525 3541 
Q 3525 3141 3298 2862 
Q 3072 2584 2669 2484 
Q 3125 2378 3379 2068 
Q 3634 1759 3634 1313 
Q 3634 634 3220 271 
Q 2806 -91 2034 -91 
Q 1263 -91 848 271 
Q 434 634 434 1313 
Q 434 1759 690 2068 
Q 947 2378 1403 2484 
z
M 1172 3481 
Q 1172 3119 1398 2916 
Q 1625 2713 2034 2713 
Q 2441 2713 2670 2916 
Q 2900 3119 2900 3481 
Q 2900 3844 2670 4047 
Q 2441 4250 2034 4250 
Q 1625 4250 1398 4047 
Q 1172 3844 1172 3481 
z
" transform="scale(0.015625)"/>
       </defs>
       <use xlink:href="#DejaVuSans-38"/>
      </g>
     </g>
    </g>
   </g>
   <g id="matplotlib.axis_2">
    <g id="ytick_1">
     <g id="line2d_6">
      <defs>
       <path id="m0f65ef00e6" d="M 0 0 
L -3.5 0 
" style="stroke: #000000; stroke-width: 0.8"/>
      </defs>
      <g>
       <use xlink:href="#m0f65ef00e6" x="26.925" y="242.173255" style="stroke: #000000; stroke-width: 0.8"/>
      </g>
     </g>
     <g id="text_6">
      <!-- 0 -->
      <g transform="translate(13.5625 245.972474) scale(0.1 -0.1)">
       <use xlink:href="#DejaVuSans-30"/>
      </g>
     </g>
    </g>
    <g id="ytick_2">
     <g id="line2d_7">
      <g>
       <use xlink:href="#m0f65ef00e6" x="26.925" y="188.684347" style="stroke: #000000; stroke-width: 0.8"/>
      </g>
     </g>
     <g id="text_7">
      <!-- 5 -->
      <g transform="translate(13.5625 192.483566) scale(0.1 -0.1)">
       <defs>
        <path id="DejaVuSans-35" d="M 691 4666 
L 3169 4666 
L 3169 4134 
L 1269 4134 
L 1269 2991 
Q 1406 3038 1543 3061 
Q 1681 3084 1819 3084 
Q 2600 3084 3056 2656 
Q 3513 2228 3513 1497 
Q 3513 744 3044 326 
Q 2575 -91 1722 -91 
Q 1428 -91 1123 -41 
Q 819 9 494 109 
L 494 744 
Q 775 591 1075 516 
Q 1375 441 1709 441 
Q 2250 441 2565 725 
Q 2881 1009 2881 1497 
Q 2881 1984 2565 2268 
Q 2250 2553 1709 2553 
Q 1456 2553 1204 2497 
Q 953 2441 691 2322 
L 691 4666 
z
" transform="scale(0.015625)"/>
       </defs>
       <use xlink:href="#DejaVuSans-35"/>
      </g>
     </g>
    </g>
    <g id="ytick_3">
     <g id="line2d_8">
      <g>
       <use xlink:href="#m0f65ef00e6" x="26.925" y="135.195439" style="stroke: #000000; stroke-width: 0.8"/>
      </g>
     </g>
     <g id="text_8">
      <!-- 10 -->
      <g transform="translate(7.2 138.994658) scale(0.1 -0.1)">
       <defs>
        <path id="DejaVuSans-31" d="M 794 531 
L 1825 531 
L 1825 4091 
L 703 3866 
L 703 4441 
L 1819 4666 
L 2450 4666 
L 2450 531 
L 3481 531 
L 3481 0 
L 794 0 
L 794 531 
z
" transform="scale(0.015625)"/>
       </defs>
       <use xlink:href="#DejaVuSans-31"/>
       <use xlink:href="#DejaVuSans-30" transform="translate(63.623047 0)"/>
      </g>
     </g>
    </g>
    <g id="ytick_4">
     <g id="line2d_9">
      <g>
       <use xlink:href="#m0f65ef00e6" x="26.925" y="81.706531" style="stroke: #000000; stroke-width: 0.8"/>
      </g>
     </g>
     <g id="text_9">
      <!-- 15 -->
      <g transform="translate(7.2 85.50575) scale(0.1 -0.1)">
       <use xlink:href="#DejaVuSans-31"/>
       <use xlink:href="#DejaVuSans-35" transform="translate(63.623047 0)"/>
      </g>
     </g>
    </g>
    <g id="ytick_5">
     <g id="line2d_10">
      <g>
       <use xlink:href="#m0f65ef00e6" x="26.925" y="28.217623" style="stroke: #000000; stroke-width: 0.8"/>
      </g>
     </g>
     <g id="text_10">
      <!-- 20 -->
      <g transform="translate(7.2 32.016841) scale(0.1 -0.1)">
       <use xlink:href="#DejaVuSans-32"/>
       <use xlink:href="#DejaVuSans-30" transform="translate(63.623047 0)"/>
      </g>
     </g>
    </g>
   </g>
   <g id="line2d_11">
    <path d="M 43.157727 250.546764 
L 46.437066 248.31156 
L 49.716405 246.076355 
L 52.995744 243.841151 
L 56.275083 241.605946 
L 59.554421 239.370742 
L 62.83376 237.135537 
L 66.113099 234.900333 
L 69.392438 232.665128 
L 72.671777 230.429924 
L 75.951116 228.194719 
L 79.230455 225.959515 
L 82.509793 223.72431 
L 85.789132 221.489106 
L 89.068471 219.253901 
L 92.34781 217.018697 
L 95.627149 214.783492 
L 98.906488 212.548288 
L 102.185826 210.313083 
L 105.465165 208.077879 
L 108.744504 205.842674 
L 112.023843 203.60747 
L 115.303182 201.372265 
L 118.582521 199.137061 
L 121.86186 196.901856 
L 125.141198 194.666652 
L 128.420537 192.431447 
L 131.699876 190.196243 
L 134.979215 187.961038 
L 138.258554 185.725834 
L 141.537893 183.490629 
L 144.817231 181.255425 
L 148.09657 179.02022 
L 151.375909 176.785016 
L 154.655248 174.549811 
L 157.934587 172.314607 
L 161.213926 170.079402 
L 164.493264 167.844197 
L 167.772603 165.608993 
L 171.051942 163.373788 
L 174.331281 161.138584 
L 177.61062 158.903379 
L 180.889959 156.668175 
L 184.169298 154.43297 
L 187.448636 152.197766 
L 190.727975 149.962561 
L 194.007314 147.727357 
L 197.286653 145.492152 
L 200.565992 143.256948 
L 203.845331 141.021743 
L 207.124669 138.786539 
L 210.404008 136.551334 
L 213.683347 134.31613 
L 216.962686 132.080925 
L 220.242025 129.845721 
L 223.521364 127.610516 
L 226.800702 125.375312 
L 230.080041 123.140107 
L 233.35938 120.904903 
L 236.638719 118.669698 
L 239.918058 116.434494 
L 243.197397 114.199289 
L 246.476736 111.964085 
L 249.756074 109.72888 
L 253.035413 107.493676 
L 256.314752 105.258471 
L 259.594091 103.023267 
L 262.87343 100.788062 
L 266.152769 98.552858 
L 269.432107 96.317653 
L 272.711446 94.082449 
L 275.990785 91.847244 
L 279.270124 89.61204 
L 282.549463 87.376835 
L 285.828802 85.141631 
L 289.10814 82.906426 
L 292.387479 80.671222 
L 295.666818 78.436017 
L 298.946157 76.200813 
L 302.225496 73.965608 
L 305.504835 71.730404 
L 308.784174 69.495199 
L 312.063512 67.259995 
L 315.342851 65.02479 
L 318.62219 62.789586 
L 321.901529 60.554381 
L 325.180868 58.319177 
L 328.460207 56.083972 
L 331.739545 53.848768 
L 335.018884 51.613563 
L 338.298223 49.378359 
L 341.577562 47.143154 
L 344.856901 44.90795 
L 348.13624 42.672745 
L 351.415579 40.437541 
L 354.694917 38.202336 
L 357.974256 35.967132 
L 361.253595 33.731927 
L 364.532934 31.496723 
L 367.812273 29.261518 
" clip-path="url(#p69d3e94f8c)" style="fill: none; stroke: #1f77b4; stroke-width: 2.25; stroke-linecap: square"/>
   </g>
   <g id="patch_3">
    <path d="M 26.925 273.312 
L 26.925 7.2 
" style="fill: none; stroke: #000000; stroke-width: 0.8; stroke-linejoin: miter; stroke-linecap: square"/>
   </g>
   <g id="patch_4">
    <path d="M 384.045 273.312 
L 384.045 7.2 
" style="fill: none; stroke: #000000; stroke-width: 0.8; stroke-linejoin: miter; stroke-linecap: square"/>
   </g>
   <g id="patch_5">
    <path d="M 26.925 273.312 
L 384.045 273.312 
" style="fill: none; stroke: #000000; stroke-width: 0.8; stroke-linejoin: miter; stroke-linecap: square"/>
   </g>
   <g id="patch_6">
    <path d="M 26.925 7.2 
L 384.045 7.2 
" style="fill: none; stroke: #000000; stroke-width: 0.8; stroke-linejoin: miter; stroke-linecap: square"/>
   </g>
  </g>
 </g>
 <defs>
  <clipPath id="p69d3e94f8c">
   <rect x="26.925" y="7.2" width="357.12" height="266.112"/>
  </clipPath>
 </defs>
</svg>