<?xml version="1.0" encoding="utf-8" standalone="no"?>
<!DOCTYPE svg PUBLIC "-//W3C//DTD SVG 1.1//EN"
  "http://www.w3.org/Graphics/SVG/1.1/DTD/svg11.dtd">
<svg xmlns:xlink="http://www.w3.org/1999/xlink" width="411.285625pt" height="310.86825pt" viewBox="0 0 411.285625 310.86825" xmlns="http://www.w3.org/2000/svg" version="1.1">
 <metadata>
  <rdf:RDF xmlns:dc="http://purl.org/dc/elements/1.1/" xmlns:cc="http://creativecommons.org/ns#" xmlns:rdf="http://www.w3.org/1999/02/22-rdf-syntax-ns#">
   <cc:Work>
    <dc:type rdf:resource="http://purl.org/dc/dcmitype/StillImage"/>
    <dc:date>2025-08-30T20:43:26.822087</dc:date>
    <dc:format>image/svg+xml</dc:format>
    <dc:creator>
     <cc:Agent>
      <dc:title>Matplotlib v3.10.3, https://matplotlib.org/</dc:title>
     </cc:Agent>
    </dc:creator>
   </cc:Work>
  </rdf:RDF>
 </metadata>
 <defs>
  <style type="text/css">*{stroke-linejoin: round; stroke-linecap: butt}</style>
 </defs>
 <g id="figure_1">
  <g id="patch_1">
   <path d="M 0 310.86825 
L 411.285625 310.86825 
L 411.285625 0 
L 0 0 
z
" style="fill: #ffffff"/>
  </g>
  <g id="axes_1">
   <g id="patch_2">
    <path d="M 46.965625 273.312 
L 404.085625 273.312 
L 404.085625 7.2 
L 46.965625 7.2 
z
" style="fill: #ffffff"/>
   </g>
   <g id="PathCollection_1">
    <defs>
     <path id="me4d1ca917d" d="M 0 3 
C 0.795609 3 1.55874 2.683901 2.12132 2.12132 
C 2.683901 1.55874 3 0.795609 3 0 
C 3 -0.795609 2.683901 -1.55874 2.12132 -2.12132 
C 1.55874 -2.683901 0.795609 -3 0 -3 
C -0.795609 -3 -1.55874 -2.683901 -2.12132 -2.12132 
C -2.683901 -1.55874 -3 -0.795609 -3 0 
C -3 0.795609 -2.683901 1.55874 -2.12132 2.12132 
C -1.55874 2.683901 -0.795609 3 0 3 
z
" style="stroke: #1f77b4; stroke-opacity: 0.8"/>
    </defs>
    <g clip-path="url(#pa99dbc8c15)">
     <use xlink:href="#me4d1ca917d" x="63.198352" y="198.458843" style="fill: #1f77b4; fill-opacity: 0.8; stroke: #1f77b4; stroke-opacity: 0.8"/>
     <use xlink:href="#me4d1ca917d" x="96.1333" y="186.135664" style="fill: #1f77b4; fill-opacity: 0.8; stroke: #1f77b4; stroke-opacity: 0.8"/>
     <use xlink:href="#me4d1ca917d" x="129.068248" y="167.176926" style="fill: #1f77b4; fill-opacity: 0.8; stroke: #1f77b4; stroke-opacity: 0.8"/>
     <use xlink:href="#me4d1ca917d" x="161.979721" y="148.218189" style="fill: #1f77b4; fill-opacity: 0.8; stroke: #1f77b4; stroke-opacity: 0.8"/>
     <use xlink:href="#me4d1ca917d" x="194.914669" y="128.311515" style="fill: #1f77b4; fill-opacity: 0.8; stroke: #1f77b4; stroke-opacity: 0.8"/>
     <use xlink:href="#me4d1ca917d" x="227.849616" y="111.248651" style="fill: #1f77b4; fill-opacity: 0.8; stroke: #1f77b4; stroke-opacity: 0.8"/>
     <use xlink:href="#me4d1ca917d" x="260.761089" y="93.237851" style="fill: #1f77b4; fill-opacity: 0.8; stroke: #1f77b4; stroke-opacity: 0.8"/>
     <use xlink:href="#me4d1ca917d" x="293.696037" y="75.22705" style="fill: #1f77b4; fill-opacity: 0.8; stroke: #1f77b4; stroke-opacity: 0.8"/>
     <use xlink:href="#me4d1ca917d" x="326.60751" y="59.112124" style="fill: #1f77b4; fill-opacity: 0.8; stroke: #1f77b4; stroke-opacity: 0.8"/>
     <use xlink:href="#me4d1ca917d" x="359.542458" y="40.153386" style="fill: #1f77b4; fill-opacity: 0.8; stroke: #1f77b4; stroke-opacity: 0.8"/>
     <use xlink:href="#me4d1ca917d" x="157.355213" y="225.949012" style="fill: #1f77b4; fill-opacity: 0.8; stroke: #1f77b4; stroke-opacity: 0.8"/>
     <use xlink:href="#me4d1ca917d" x="190.290161" y="194.667096" style="fill: #1f77b4; fill-opacity: 0.8; stroke: #1f77b4; stroke-opacity: 0.8"/>
     <use xlink:href="#me4d1ca917d" x="223.225108" y="167.176926" style="fill: #1f77b4; fill-opacity: 0.8; stroke: #1f77b4; stroke-opacity: 0.8"/>
     <use xlink:href="#me4d1ca917d" x="256.136581" y="140.634694" style="fill: #1f77b4; fill-opacity: 0.8; stroke: #1f77b4; stroke-opacity: 0.8"/>
     <use xlink:href="#me4d1ca917d" x="289.071529" y="116.936273" style="fill: #1f77b4; fill-opacity: 0.8; stroke: #1f77b4; stroke-opacity: 0.8"/>
     <use xlink:href="#me4d1ca917d" x="322.006477" y="95.133725" style="fill: #1f77b4; fill-opacity: 0.8; stroke: #1f77b4; stroke-opacity: 0.8"/>
     <use xlink:href="#me4d1ca917d" x="354.91795" y="74.279114" style="fill: #1f77b4; fill-opacity: 0.8; stroke: #1f77b4; stroke-opacity: 0.8"/>
     <use xlink:href="#me4d1ca917d" x="387.852898" y="55.320376" style="fill: #1f77b4; fill-opacity: 0.8; stroke: #1f77b4; stroke-opacity: 0.8"/>
     <use xlink:href="#me4d1ca917d" x="190.290161" y="200.354717" style="fill: #1f77b4; fill-opacity: 0.8; stroke: #1f77b4; stroke-opacity: 0.8"/>
     <use xlink:href="#me4d1ca917d" x="256.136581" y="149.166126" style="fill: #1f77b4; fill-opacity: 0.8; stroke: #1f77b4; stroke-opacity: 0.8"/>
     <use xlink:href="#me4d1ca917d" x="157.355213" y="233.532507" style="fill: #1f77b4; fill-opacity: 0.8; stroke: #1f77b4; stroke-opacity: 0.8"/>
     <use xlink:href="#me4d1ca917d" x="223.225108" y="184.23979" style="fill: #1f77b4; fill-opacity: 0.8; stroke: #1f77b4; stroke-opacity: 0.8"/>
     <use xlink:href="#me4d1ca917d" x="161.979721" y="157.697558" style="fill: #1f77b4; fill-opacity: 0.8; stroke: #1f77b4; stroke-opacity: 0.8"/>
     <use xlink:href="#me4d1ca917d" x="161.979721" y="181.395979" style="fill: #1f77b4; fill-opacity: 0.8; stroke: #1f77b4; stroke-opacity: 0.8"/>
     <use xlink:href="#me4d1ca917d" x="194.914669" y="135.89501" style="fill: #1f77b4; fill-opacity: 0.8; stroke: #1f77b4; stroke-opacity: 0.8"/>
     <use xlink:href="#me4d1ca917d" x="227.849616" y="132.103262" style="fill: #1f77b4; fill-opacity: 0.8; stroke: #1f77b4; stroke-opacity: 0.8"/>
     <use xlink:href="#me4d1ca917d" x="260.761089" y="127.363578" style="fill: #1f77b4; fill-opacity: 0.8; stroke: #1f77b4; stroke-opacity: 0.8"/>
     <use xlink:href="#me4d1ca917d" x="208.905566" y="87.55023" style="fill: #1f77b4; fill-opacity: 0.8; stroke: #1f77b4; stroke-opacity: 0.8"/>
     <use xlink:href="#me4d1ca917d" x="241.840514" y="68.591492" style="fill: #1f77b4; fill-opacity: 0.8; stroke: #1f77b4; stroke-opacity: 0.8"/>
     <use xlink:href="#me4d1ca917d" x="307.686934" y="51.528629" style="fill: #1f77b4; fill-opacity: 0.8; stroke: #1f77b4; stroke-opacity: 0.8"/>
    </g>
   </g>
   <g id="FillBetweenPolyCollection_1">
    <path d="M 63.198352 205.322212 
L 63.198352 261.216 
L 66.477691 258.811862 
L 69.75703 256.436607 
L 73.036369 254.097342 
L 76.315708 251.755825 
L 79.595046 249.414308 
L 82.874385 246.860304 
L 86.153724 244.359311 
L 89.433063 241.95374 
L 92.712402 239.615426 
L 95.991741 237.303068 
L 99.27108 234.990709 
L 102.550418 232.589901 
L 105.829757 230.136667 
L 109.109096 227.757281 
L 112.388435 225.48679 
L 115.667774 223.216299 
L 118.947113 220.945808 
L 122.226451 218.675317 
L 125.50579 216.402571 
L 128.785129 214.015188 
L 132.064468 211.717375 
L 135.343807 209.293388 
L 138.623146 206.851306 
L 141.902485 204.481146 
L 145.181823 202.237358 
L 148.461162 199.993571 
L 151.740501 197.745566 
L 155.01984 195.333921 
L 158.299179 192.846693 
L 161.578518 190.564143 
L 164.857856 188.279996 
L 168.137195 185.99515 
L 171.416534 183.710304 
L 174.695873 181.425458 
L 177.975212 179.140612 
L 181.254551 176.855766 
L 184.533889 174.697898 
L 187.813228 172.367743 
L 191.092567 170.03246 
L 194.371906 167.721335 
L 197.651245 165.434539 
L 200.930584 163.151027 
L 204.209923 160.940135 
L 207.489261 158.785419 
L 210.7686 156.482762 
L 214.047939 154.187538 
L 217.327278 152.173117 
L 220.606617 150.051384 
L 223.885956 148.034244 
L 227.165294 145.841414 
L 230.444633 143.900991 
L 233.723972 141.600001 
L 237.003311 139.384953 
L 240.28265 137.696997 
L 243.561989 135.884871 
L 246.841327 133.83842 
L 250.120666 131.971291 
L 253.400005 129.833999 
L 256.679344 127.829155 
L 259.958683 126.037164 
L 263.238022 124.327805 
L 266.517361 122.444805 
L 269.796699 120.690784 
L 273.076038 118.99497 
L 276.355377 117.299156 
L 279.634716 115.600721 
L 282.914055 113.903896 
L 286.193394 112.207667 
L 289.472732 110.486024 
L 292.752071 108.803518 
L 296.03141 107.121978 
L 299.310749 105.428456 
L 302.590088 103.727875 
L 305.869427 102.028287 
L 309.148765 100.331417 
L 312.428104 98.442509 
L 315.707443 96.84004 
L 318.986782 95.237572 
L 322.266121 93.546313 
L 325.54546 91.852095 
L 328.824799 90.20342 
L 332.104137 88.574029 
L 335.383476 86.931148 
L 338.662815 85.248467 
L 341.942154 83.565796 
L 345.221493 82.028398 
L 348.500832 80.396849 
L 351.78017 78.780661 
L 355.059509 77.173034 
L 358.338848 75.589146 
L 361.618187 73.888895 
L 364.897526 72.402239 
L 368.176865 70.808927 
L 371.456204 69.268313 
L 374.735542 67.725356 
L 378.014881 66.185722 
L 381.29422 64.457086 
L 384.573559 62.719671 
L 387.852898 60.982256 
L 387.852898 19.296 
L 387.852898 19.296 
L 384.573559 21.691298 
L 381.29422 24.026451 
L 378.014881 26.232296 
L 374.735542 28.655768 
L 371.456204 31.033726 
L 368.176865 33.56914 
L 364.897526 35.867731 
L 361.618187 38.397983 
L 358.338848 40.841423 
L 355.059509 43.23315 
L 351.78017 45.624876 
L 348.500832 47.822227 
L 345.221493 49.857851 
L 341.942154 51.893475 
L 338.662815 53.92956 
L 335.383476 56.319112 
L 332.104137 58.711269 
L 328.824799 61.064531 
L 325.54546 63.253284 
L 322.266121 65.521487 
L 318.986782 67.891135 
L 315.707443 69.944002 
L 312.428104 72.287897 
L 309.148765 74.405248 
L 305.869427 76.519206 
L 302.590088 78.712057 
L 299.310749 80.86432 
L 296.03141 82.868871 
L 292.752071 84.710067 
L 289.472732 86.809075 
L 286.193394 89.103737 
L 282.914055 91.080899 
L 279.634716 93.11228 
L 276.355377 94.907091 
L 273.076038 96.865613 
L 269.796699 98.8943 
L 266.517361 101.006271 
L 263.238022 102.739656 
L 259.958683 104.68709 
L 256.679344 106.661712 
L 253.400005 108.417925 
L 250.120666 110.176842 
L 246.841327 111.856415 
L 243.561989 113.685676 
L 240.28265 115.448404 
L 237.003311 117.203227 
L 233.723972 118.959599 
L 230.444633 120.719583 
L 227.165294 122.472655 
L 223.885956 124.690221 
L 220.606617 126.621428 
L 217.327278 128.204195 
L 214.047939 129.75074 
L 210.7686 131.297286 
L 207.489261 133.018662 
L 204.209923 134.773003 
L 200.930584 136.531648 
L 197.651245 138.093202 
L 194.371906 139.834036 
L 191.092567 141.634473 
L 187.813228 143.418806 
L 184.533889 145.112019 
L 181.254551 146.900294 
L 177.975212 148.509618 
L 174.695873 150.11779 
L 171.416534 151.794632 
L 168.137195 153.382353 
L 164.857856 154.985765 
L 161.578518 156.714064 
L 158.299179 158.313102 
L 155.01984 160.067397 
L 151.740501 161.696743 
L 148.461162 163.356047 
L 145.181823 165.071403 
L 141.902485 166.685302 
L 138.623146 168.299202 
L 135.343807 169.897604 
L 132.064468 171.436737 
L 128.785129 173.04067 
L 125.50579 174.610642 
L 122.226451 176.184838 
L 118.947113 177.762277 
L 115.667774 179.365249 
L 112.388435 180.91234 
L 109.109096 182.481624 
L 105.829757 184.05582 
L 102.550418 185.630017 
L 99.27108 187.204213 
L 95.991741 188.778409 
L 92.712402 190.353108 
L 89.433063 191.961554 
L 86.153724 193.570599 
L 82.874385 195.209164 
L 79.595046 196.893987 
L 76.315708 198.581249 
L 73.036369 200.269533 
L 69.75703 201.959917 
L 66.477691 203.639603 
L 63.198352 205.322212 
z
" clip-path="url(#pa99dbc8c15)" style="fill: #1f77b4; fill-opacity: 0.15"/>
   </g>
   <g id="matplotlib.axis_1">
    <g id="xtick_1">
     <g id="line2d_1">
      <defs>
       <path id="mcdf2360d4c" d="M 0 0 
L 0 3.5 
" style="stroke: #000000; stroke-width: 0.8"/>
      </defs>
      <g>
       <use xlink:href="#mcdf2360d4c" x="81.884181" y="273.312" style="stroke: #000000; stroke-width: 0.8"/>
      </g>
     </g>
     <g id="text_1">
      <!-- 40 -->
      <g transform="translate(75.521681 287.910437) scale(0.1 -0.1)">
       <defs>
        <path id="DejaVuSans-34" d="M 2419 4116 
L 825 1625 
L 2419 1625 
L 2419 4116 
z
M 2253 4666 
L 3047 4666 
L 3047 1625 
L 3713 1625 
L 3713 1100 
L 3047 1100 
L 3047 0 
L 2419 0 
L 2419 1100 
L 313 1100 
L 313 1709 
L 2253 4666 
z
" transform="scale(0.015625)"/>
        <path id="DejaVuSans-30" d="M 2034 4250 
Q 1547 4250 1301 3770 
Q 1056 3291 1056 2328 
Q 1056 1369 1301 889 
Q 1547 409 2034 409 
Q 2525 409 2770 889 
Q 3016 1369 3016 2328 
Q 3016 3291 2770 3770 
Q 2525 4250 2034 4250 
z
M 2034 4750 
Q 2819 4750 3233 4129 
Q 3647 3509 3647 2328 
Q 3647 1150 3233 529 
Q 2819 -91 2034 -91 
Q 1250 -91 836 529 
Q 422 1150 422 2328 
Q 422 3509 836 4129 
Q 1250 4750 2034 4750 
z
" transform="scale(0.015625)"/>
       </defs>
       <use xlink:href="#DejaVuSans-34"/>
       <use xlink:href="#DejaVuSans-30" transform="translate(63.623047 0)"/>
      </g>
     </g>
    </g>
    <g id="xtick_2">
     <g id="line2d_2">
      <g>
       <use xlink:href="#mcdf2360d4c" x="128.833501" y="273.312" style="stroke: #000000; stroke-width: 0.8"/>
      </g>
     </g>
     <g id="text_2">
      <!-- 60 -->
      <g transform="translate(122.471001 287.910437) scale(0.1 -0.1)">
       <defs>
        <path id="DejaVuSans-36" d="M 2113 2584 
Q 1688 2584 1439 2293 
Q 1191 2003 1191 1497 
Q 1191 994 1439 701 
Q 1688 409 2113 409 
Q 2538 409 2786 701 
Q 3034 994 3034 1497 
Q 3034 2003 2786 2293 
Q 2538 2584 2113 2584 
z
M 3366 4563 
L 3366 3988 
Q 3128 4100 2886 4159 
Q 2644 4219 2406 4219 
Q 1781 4219 1451 3797 
Q 1122 3375 1075 2522 
Q 1259 2794 1537 2939 
Q 1816 3084 2150 3084 
Q 2853 3084 3261 2657 
Q 3669 2231 3669 1497 
Q 3669 778 3244 343 
Q 2819 -91 2113 -91 
Q 1303 -91 875 529 
Q 447 1150 447 2328 
Q 447 3434 972 4092 
Q 1497 4750 2381 4750 
Q 2619 4750 2861 4703 
Q 3103 4656 3366 4563 
z
" transform="scale(0.015625)"/>
       </defs>
       <use xlink:href="#DejaVuSans-36"/>
       <use xlink:href="#DejaVuSans-30" transform="translate(63.623047 0)"/>
      </g>
     </g>
    </g>
    <g id="xtick_3">
     <g id="line2d_3">
      <g>
       <use xlink:href="#mcdf2360d4c" x="175.782821" y="273.312" style="stroke: #000000; stroke-width: 0.8"/>
      </g>
     </g>
     <g id="text_3">
      <!-- 80 -->
      <g transform="translate(169.420321 287.910437) scale(0.1 -0.1)">
       <defs>
        <path id="DejaVuSans-38" d="M 2034 2216 
Q 1584 2216 1326 1975 
Q 1069 1734 1069 1313 
Q 1069 891 1326 650 
Q 1584 409 2034 409 
Q 2484 409 2743 651 
Q 3003 894 3003 1313 
Q 3003 1734 2745 1975 
Q 2488 2216 2034 2216 
z
M 1403 2484 
Q 997 2584 770 2862 
Q 544 3141 544 3541 
Q 544 4100 942 4425 
Q 1341 4750 2034 4750 
Q 2731 4750 3128 4425 
Q 3525 4100 3525 3541 
Q 3525 3141 3298 2862 
Q 3072 2584 2669 2484 
Q 3125 2378 3379 2068 
Q 3634 1759 3634 1313 
Q 3634 634 3220 271 
Q 2806 -91 2034 -91 
Q 1263 -91 848 271 
Q 434 634 434 1313 
Q 434 1759 690 2068 
Q 947 2378 1403 2484 
z
M 1172 3481 
Q 1172 3119 1398 2916 
Q 1625 2713 2034 2713 
Q 2441 2713 2670 2916 
Q 2900 3119 2900 3481 
Q 2900 3844 2670 4047 
Q 2441 4250 2034 4250 
Q 1625 4250 1398 4047 
Q 1172 3844 1172 3481 
z
" transform="scale(0.015625)"/>
       </defs>
       <use xlink:href="#DejaVuSans-38"/>
       <use xlink:href="#DejaVuSans-30" transform="translate(63.623047 0)"/>
      </g>
     </g>
    </g>
    <g id="xtick_4">
     <g id="line2d_4">
      <g>
       <use xlink:href="#mcdf2360d4c" x="222.73214" y="273.312" style="stroke: #000000; stroke-width: 0.8"/>
      </g>
     </g>
     <g id="text_4">
      <!-- 100 -->
      <g transform="translate(213.18839 287.910437) scale(0.1 -0.1)">
       <defs>
        <path id="DejaVuSans-31" d="M 794 531 
L 1825 531 
L 1825 4091 
L 703 3866 
L 703 4441 
L 1819 4666 
L 2450 4666 
L 2450 531 
L 3481 531 
L 3481 0 
L 794 0 
L 794 531 
z
" transform="scale(0.015625)"/>
       </defs>
       <use xlink:href="#DejaVuSans-31"/>
       <use xlink:href="#DejaVuSans-30" transform="translate(63.623047 0)"/>
       <use xlink:href="#DejaVuSans-30" transform="translate(127.246094 0)"/>
      </g>
     </g>
    </g>
    <g id="xtick_5">
     <g id="line2d_5">
      <g>
       <use xlink:href="#mcdf2360d4c" x="269.68146" y="273.312" style="stroke: #000000; stroke-width: 0.8"/>
      </g>
     </g>
     <g id="text_5">
      <!-- 120 -->
      <g transform="translate(260.13771 287.910437) scale(0.1 -0.1)">
       <defs>
        <path id="DejaVuSans-32" d="M 1228 531 
L 3431 531 
L 3431 0 
L 469 0 
L 469 531 
Q 828 903 1448 1529 
Q 2069 2156 2228 2338 
Q 2531 2678 2651 2914 
Q 2772 3150 2772 3378 
Q 2772 3750 2511 3984 
Q 2250 4219 1831 4219 
Q 1534 4219 1204 4116 
Q 875 4013 500 3803 
L 500 4441 
Q 881 4594 1212 4672 
Q 1544 4750 1819 4750 
Q 2544 4750 2975 4387 
Q 3406 4025 3406 3419 
Q 3406 3131 3298 2873 
Q 3191 2616 2906 2266 
Q 2828 2175 2409 1742 
Q 1991 1309 1228 531 
z
" transform="scale(0.015625)"/>
       </defs>
       <use xlink:href="#DejaVuSans-31"/>
       <use xlink:href="#DejaVuSans-32" transform="translate(63.623047 0)"/>
       <use xlink:href="#DejaVuSans-30" transform="translate(127.246094 0)"/>
      </g>
     </g>
    </g>
    <g id="xtick_6">
     <g id="line2d_6">
      <g>
       <use xlink:href="#mcdf2360d4c" x="316.63078" y="273.312" style="stroke: #000000; stroke-width: 0.8"/>
      </g>
     </g>
     <g id="text_6">
      <!-- 140 -->
      <g transform="translate(307.08703 287.910437) scale(0.1 -0.1)">
       <use xlink:href="#DejaVuSans-31"/>
       <use xlink:href="#DejaVuSans-34" transform="translate(63.623047 0)"/>
       <use xlink:href="#DejaVuSans-30" transform="translate(127.246094 0)"/>
      </g>
     </g>
    </g>
    <g id="xtick_7">
     <g id="line2d_7">
      <g>
       <use xlink:href="#mcdf2360d4c" x="363.580099" y="273.312" style="stroke: #000000; stroke-width: 0.8"/>
      </g>
     </g>
     <g id="text_7">
      <!-- 160 -->
      <g transform="translate(354.036349 287.910437) scale(0.1 -0.1)">
       <use xlink:href="#DejaVuSans-31"/>
       <use xlink:href="#DejaVuSans-36" transform="translate(63.623047 0)"/>
       <use xlink:href="#DejaVuSans-30" transform="translate(127.246094 0)"/>
      </g>
     </g>
    </g>
    <g id="text_8">
     <!-- MW -->
     <g transform="translate(216.267813 301.588562) scale(0.1 -0.1)">
      <defs>
       <path id="DejaVuSans-4d" d="M 628 4666 
L 1569 4666 
L 2759 1491 
L 3956 4666 
L 4897 4666 
L 4897 0 
L 4281 0 
L 4281 4097 
L 3078 897 
L 2444 897 
L 1241 4097 
L 1241 0 
L 628 0 
L 628 4666 
z
" transform="scale(0.015625)"/>
       <path id="DejaVuSans-57" d="M 213 4666 
L 850 4666 
L 1831 722 
L 2809 4666 
L 3519 4666 
L 4500 722 
L 5478 4666 
L 6119 4666 
L 4947 0 
L 4153 0 
L 3169 4050 
L 2175 0 
L 1381 0 
L 213 4666 
z
" transform="scale(0.015625)"/>
      </defs>
      <use xlink:href="#DejaVuSans-4d"/>
      <use xlink:href="#DejaVuSans-57" transform="translate(86.279297 0)"/>
     </g>
    </g>
   </g>
   <g id="matplotlib.axis_2">
    <g id="ytick_1">
     <g id="line2d_8">
      <defs>
       <path id="m91853a7f49" d="M 0 0 
L -3.5 0 
" style="stroke: #000000; stroke-width: 0.8"/>
      </defs>
      <g>
       <use xlink:href="#m91853a7f49" x="46.965625" y="260.074739" style="stroke: #000000; stroke-width: 0.8"/>
      </g>
     </g>
     <g id="text_9">
      <!-- 0 -->
      <g transform="translate(33.603125 263.873958) scale(0.1 -0.1)">
       <use xlink:href="#DejaVuSans-30"/>
      </g>
     </g>
    </g>
    <g id="ytick_2">
     <g id="line2d_9">
      <g>
       <use xlink:href="#m91853a7f49" x="46.965625" y="212.677896" style="stroke: #000000; stroke-width: 0.8"/>
      </g>
     </g>
     <g id="text_10">
      <!-- 50 -->
      <g transform="translate(27.240625 216.477115) scale(0.1 -0.1)">
       <defs>
        <path id="DejaVuSans-35" d="M 691 4666 
L 3169 4666 
L 3169 4134 
L 1269 4134 
L 1269 2991 
Q 1406 3038 1543 3061 
Q 1681 3084 1819 3084 
Q 2600 3084 3056 2656 
Q 3513 2228 3513 1497 
Q 3513 744 3044 326 
Q 2575 -91 1722 -91 
Q 1428 -91 1123 -41 
Q 819 9 494 109 
L 494 744 
Q 775 591 1075 516 
Q 1375 441 1709 441 
Q 2250 441 2565 725 
Q 2881 1009 2881 1497 
Q 2881 1984 2565 2268 
Q 2250 2553 1709 2553 
Q 1456 2553 1204 2497 
Q 953 2441 691 2322 
L 691 4666 
z
" transform="scale(0.015625)"/>
       </defs>
       <use xlink:href="#DejaVuSans-35"/>
       <use xlink:href="#DejaVuSans-30" transform="translate(63.623047 0)"/>
      </g>
     </g>
    </g>
    <g id="ytick_3">
     <g id="line2d_10">
      <g>
       <use xlink:href="#m91853a7f49" x="46.965625" y="165.281053" style="stroke: #000000; stroke-width: 0.8"/>
      </g>
     </g>
     <g id="text_11">
      <!-- 100 -->
      <g transform="translate(20.878125 169.080271) scale(0.1 -0.1)">
       <use xlink:href="#DejaVuSans-31"/>
       <use xlink:href="#DejaVuSans-30" transform="translate(63.623047 0)"/>
       <use xlink:href="#DejaVuSans-30" transform="translate(127.246094 0)"/>
      </g>
     </g>
    </g>
    <g id="ytick_4">
     <g id="line2d_11">
      <g>
       <use xlink:href="#m91853a7f49" x="46.965625" y="117.884209" style="stroke: #000000; stroke-width: 0.8"/>
      </g>
     </g>
     <g id="text_12">
      <!-- 150 -->
      <g transform="translate(20.878125 121.683428) scale(0.1 -0.1)">
       <use xlink:href="#DejaVuSans-31"/>
       <use xlink:href="#DejaVuSans-35" transform="translate(63.623047 0)"/>
       <use xlink:href="#DejaVuSans-30" transform="translate(127.246094 0)"/>
      </g>
     </g>
    </g>
    <g id="ytick_5">
     <g id="line2d_12">
      <g>
       <use xlink:href="#m91853a7f49" x="46.965625" y="70.487366" style="stroke: #000000; stroke-width: 0.8"/>
      </g>
     </g>
     <g id="text_13">
      <!-- 200 -->
      <g transform="translate(20.878125 74.286585) scale(0.1 -0.1)">
       <use xlink:href="#DejaVuSans-32"/>
       <use xlink:href="#DejaVuSans-30" transform="translate(63.623047 0)"/>
       <use xlink:href="#DejaVuSans-30" transform="translate(127.246094 0)"/>
      </g>
     </g>
    </g>
    <g id="ytick_6">
     <g id="line2d_13">
      <g>
       <use xlink:href="#m91853a7f49" x="46.965625" y="23.090523" style="stroke: #000000; stroke-width: 0.8"/>
      </g>
     </g>
     <g id="text_14">
      <!-- 250 -->
      <g transform="translate(20.878125 26.889742) scale(0.1 -0.1)">
       <use xlink:href="#DejaVuSans-32"/>
       <use xlink:href="#DejaVuSans-35" transform="translate(63.623047 0)"/>
       <use xlink:href="#DejaVuSans-30" transform="translate(127.246094 0)"/>
      </g>
     </g>
    </g>
    <g id="text_15">
     <!-- bp -->
     <g transform="translate(14.798438 146.604437) rotate(-90) scale(0.1 -0.1)">
      <defs>
       <path id="DejaVuSans-62" d="M 3116 1747 
Q 3116 2381 2855 2742 
Q 2594 3103 2138 3103 
Q 1681 3103 1420 2742 
Q 1159 2381 1159 1747 
Q 1159 1113 1420 752 
Q 1681 391 2138 391 
Q 2594 391 2855 752 
Q 3116 1113 3116 1747 
z
M 1159 2969 
Q 1341 3281 1617 3432 
Q 1894 3584 2278 3584 
Q 2916 3584 3314 3078 
Q 3713 2572 3713 1747 
Q 3713 922 3314 415 
Q 2916 -91 2278 -91 
Q 1894 -91 1617 61 
Q 1341 213 1159 525 
L 1159 0 
L 581 0 
L 581 4863 
L 1159 4863 
L 1159 2969 
z
" transform="scale(0.015625)"/>
       <path id="DejaVuSans-70" d="M 1159 525 
L 1159 -1331 
L 581 -1331 
L 581 3500 
L 1159 3500 
L 1159 2969 
Q 1341 3281 1617 3432 
Q 1894 3584 2278 3584 
Q 2916 3584 3314 3078 
Q 3713 2572 3713 1747 
Q 3713 922 3314 415 
Q 2916 -91 2278 -91 
Q 1894 -91 1617 61 
Q 1341 213 1159 525 
z
M 3116 1747 
Q 3116 2381 2855 2742 
Q 2594 3103 2138 3103 
Q 1681 3103 1420 2742 
Q 1159 2381 1159 1747 
Q 1159 1113 1420 752 
Q 1681 391 2138 391 
Q 2594 391 2855 752 
Q 3116 1113 3116 1747 
z
" transform="scale(0.015625)"/>
      </defs>
      <use xlink:href="#DejaVuSans-62"/>
      <use xlink:href="#DejaVuSans-70" transform="translate(63.476562 0)"/>
     </g>
    </g>
   </g>
   <g id="line2d_14">
    <path d="M 63.198352 226.908388 
L 66.477691 225.055422 
L 69.75703 223.202456 
L 73.036369 221.349491 
L 76.315708 219.496525 
L 79.595046 217.643559 
L 82.874385 215.790594 
L 86.153724 213.937628 
L 89.433063 212.084662 
L 92.712402 210.231697 
L 95.991741 208.378731 
L 99.27108 206.525765 
L 102.550418 204.6728 
L 105.829757 202.819834 
L 109.109096 200.966868 
L 112.388435 199.113902 
L 115.667774 197.260937 
L 118.947113 195.407971 
L 122.226451 193.555005 
L 125.50579 191.70204 
L 128.785129 189.849074 
L 132.064468 187.996108 
L 135.343807 186.143143 
L 138.623146 184.290177 
L 141.902485 182.437211 
L 145.181823 180.584246 
L 148.461162 178.73128 
L 151.740501 176.878314 
L 155.01984 175.025349 
L 158.299179 173.172383 
L 161.578518 171.319417 
L 164.857856 169.466452 
L 168.137195 167.613486 
L 171.416534 165.76052 
L 174.695873 163.907554 
L 177.975212 162.054589 
L 181.254551 160.201623 
L 184.533889 158.348657 
L 187.813228 156.495692 
L 191.092567 154.642726 
L 194.371906 152.78976 
L 197.651245 150.936795 
L 200.930584 149.083829 
L 204.209923 147.230863 
L 207.489261 145.377898 
L 210.7686 143.524932 
L 214.047939 141.671966 
L 217.327278 139.819001 
L 220.606617 137.966035 
L 223.885956 136.113069 
L 227.165294 134.260104 
L 230.444633 132.407138 
L 233.723972 130.554172 
L 237.003311 128.701207 
L 240.28265 126.848241 
L 243.561989 124.995275 
L 246.841327 123.142309 
L 250.120666 121.289344 
L 253.400005 119.436378 
L 256.679344 117.583412 
L 259.958683 115.730447 
L 263.238022 113.877481 
L 266.517361 112.024515 
L 269.796699 110.17155 
L 273.076038 108.318584 
L 276.355377 106.465618 
L 279.634716 104.612653 
L 282.914055 102.759687 
L 286.193394 100.906721 
L 289.472732 99.053756 
L 292.752071 97.20079 
L 296.03141 95.347824 
L 299.310749 93.494859 
L 302.590088 91.641893 
L 305.869427 89.788927 
L 309.148765 87.935961 
L 312.428104 86.082996 
L 315.707443 84.23003 
L 318.986782 82.377064 
L 322.266121 80.524099 
L 325.54546 78.671133 
L 328.824799 76.818167 
L 332.104137 74.965202 
L 335.383476 73.112236 
L 338.662815 71.25927 
L 341.942154 69.406305 
L 345.221493 67.553339 
L 348.500832 65.700373 
L 351.78017 63.847408 
L 355.059509 61.994442 
L 358.338848 60.141476 
L 361.618187 58.288511 
L 364.897526 56.435545 
L 368.176865 54.582579 
L 371.456204 52.729614 
L 374.735542 50.876648 
L 378.014881 49.023682 
L 381.29422 47.170716 
L 384.573559 45.317751 
L 387.852898 43.464785 
" clip-path="url(#pa99dbc8c15)" style="fill: none; stroke: #1f77b4; stroke-width: 2.25; stroke-linecap: square"/>
   </g>
   <g id="patch_3">
    <path d="M 46.965625 273.312 
L 46.965625 7.2 
" style="fill: none; stroke: #000000; stroke-width: 0.8; stroke-linejoin: miter; stroke-linecap: square"/>
   </g>
   <g id="patch_4">
    <path d="M 404.085625 273.312 
L 404.085625 7.2 
" style="fill: none; stroke: #000000; stroke-width: 0.8; stroke-linejoin: miter; stroke-linecap: square"/>
   </g>
   <g id="patch_5">
    <path d="M 46.965625 273.312 
L 404.085625 273.312 
" style="fill: none; stroke: #000000; stroke-width: 0.8; stroke-linejoin: miter; stroke-linecap: square"/>
   </g>
   <g id="patch_6">
    <path d="M 46.965625 7.2 
L 404.085625 7.2 
" style="fill: none; stroke: #000000; stroke-width: 0.8; stroke-linejoin: miter; stroke-linecap: square"/>
   </g>
  </g>
 </g>
 <defs>
  <clipPath id="pa99dbc8c15">
   <rect x="46.965625" y="7.2" width="357.12" height="266.112"/>
  </clipPath>
 </defs>
</svg>