<?xml version="1.0" encoding="utf-8" standalone="no"?>
<!DOCTYPE svg PUBLIC "-//W3C//DTD SVG 1.1//EN"
  "http://www.w3.org/Graphics/SVG/1.1/DTD/svg11.dtd">
<svg xmlns:xlink="http://www.w3.org/1999/xlink" width="729.277116pt" height="393.03625pt" viewBox="0 0 729.277116 393.03625" xmlns="http://www.w3.org/2000/svg" version="1.1">
 <metadata>
  <rdf:RDF xmlns:dc="http://purl.org/dc/elements/1.1/" xmlns:cc="http://creativecommons.org/ns#" xmlns:rdf="http://www.w3.org/1999/02/22-rdf-syntax-ns#">
   <cc:Work>
    <dc:type rdf:resource="http://purl.org/dc/dcmitype/StillImage"/>
    <dc:date>2023-06-10T11:34:53.980515</dc:date>
    <dc:format>image/svg+xml</dc:format>
    <dc:creator>
     <cc:Agent>
      <dc:title>Matplotlib v3.7.1, https://matplotlib.org/</dc:title>
     </cc:Agent>
    </dc:creator>
   </cc:Work>
  </rdf:RDF>
 </metadata>
 <defs>
  <style type="text/css">*{stroke-linejoin: round; stroke-linecap: butt}</style>
 </defs>
 <g id="figure_1">
  <g id="patch_1">
   <path d="M 0 393.03625 
L 729.277116 393.03625 
L 729.277116 0 
L 0 0 
z
" style="fill: #ffffff"/>
  </g>
  <g id="axes_1">
   <g id="patch_2">
    <path d="M 44.845313 354.958125 
L 349.208949 354.958125 
L 349.208949 22.318125 
L 44.845313 22.318125 
z
" style="fill: #ffffff"/>
   </g>
   <g id="matplotlib.axis_1">
    <g id="xtick_1">
     <g id="line2d_1">
      <defs>
       <path id="m47a0425c6d" d="M 0 0 
L 0 3.5 
" style="stroke: #000000; stroke-width: 0.8"/>
      </defs>
      <g>
       <use xlink:href="#m47a0425c6d" x="347.297002" y="354.958125" style="stroke: #000000; stroke-width: 0.8"/>
      </g>
     </g>
     <g id="text_1">
      <!-- 500 -->
      <g transform="translate(337.753252 369.556562) scale(0.1 -0.1)">
       <defs>
        <path id="DejaVuSans-35" d="M 691 4666 
L 3169 4666 
L 3169 4134 
L 1269 4134 
L 1269 2991 
Q 1406 3038 1543 3061 
Q 1681 3084 1819 3084 
Q 2600 3084 3056 2656 
Q 3513 2228 3513 1497 
Q 3513 744 3044 326 
Q 2575 -91 1722 -91 
Q 1428 -91 1123 -41 
Q 819 9 494 109 
L 494 744 
Q 775 591 1075 516 
Q 1375 441 1709 441 
Q 2250 441 2565 725 
Q 2881 1009 2881 1497 
Q 2881 1984 2565 2268 
Q 2250 2553 1709 2553 
Q 1456 2553 1204 2497 
Q 953 2441 691 2322 
L 691 4666 
z
" transform="scale(0.015625)"/>
        <path id="DejaVuSans-30" d="M 2034 4250 
Q 1547 4250 1301 3770 
Q 1056 3291 1056 2328 
Q 1056 1369 1301 889 
Q 1547 409 2034 409 
Q 2525 409 2770 889 
Q 3016 1369 3016 2328 
Q 3016 3291 2770 3770 
Q 2525 4250 2034 4250 
z
M 2034 4750 
Q 2819 4750 3233 4129 
Q 3647 3509 3647 2328 
Q 3647 1150 3233 529 
Q 2819 -91 2034 -91 
Q 1250 -91 836 529 
Q 422 1150 422 2328 
Q 422 3509 836 4129 
Q 1250 4750 2034 4750 
z
" transform="scale(0.015625)"/>
       </defs>
       <use xlink:href="#DejaVuSans-35"/>
       <use xlink:href="#DejaVuSans-30" x="63.623047"/>
       <use xlink:href="#DejaVuSans-30" x="127.246094"/>
      </g>
     </g>
    </g>
    <g id="xtick_2">
     <g id="line2d_2">
      <g>
       <use xlink:href="#m47a0425c6d" x="306.067442" y="354.958125" style="stroke: #000000; stroke-width: 0.8"/>
      </g>
     </g>
     <g id="text_2">
      <!-- 1000 -->
      <g transform="translate(293.342442 369.556562) scale(0.1 -0.1)">
       <defs>
        <path id="DejaVuSans-31" d="M 794 531 
L 1825 531 
L 1825 4091 
L 703 3866 
L 703 4441 
L 1819 4666 
L 2450 4666 
L 2450 531 
L 3481 531 
L 3481 0 
L 794 0 
L 794 531 
z
" transform="scale(0.015625)"/>
       </defs>
       <use xlink:href="#DejaVuSans-31"/>
       <use xlink:href="#DejaVuSans-30" x="63.623047"/>
       <use xlink:href="#DejaVuSans-30" x="127.246094"/>
       <use xlink:href="#DejaVuSans-30" x="190.869141"/>
      </g>
     </g>
    </g>
    <g id="xtick_3">
     <g id="line2d_3">
      <g>
       <use xlink:href="#m47a0425c6d" x="264.837883" y="354.958125" style="stroke: #000000; stroke-width: 0.8"/>
      </g>
     </g>
     <g id="text_3">
      <!-- 1500 -->
      <g transform="translate(252.112883 369.556562) scale(0.1 -0.1)">
       <use xlink:href="#DejaVuSans-31"/>
       <use xlink:href="#DejaVuSans-35" x="63.623047"/>
       <use xlink:href="#DejaVuSans-30" x="127.246094"/>
       <use xlink:href="#DejaVuSans-30" x="190.869141"/>
      </g>
     </g>
    </g>
    <g id="xtick_4">
     <g id="line2d_4">
      <g>
       <use xlink:href="#m47a0425c6d" x="223.608323" y="354.958125" style="stroke: #000000; stroke-width: 0.8"/>
      </g>
     </g>
     <g id="text_4">
      <!-- 2000 -->
      <g transform="translate(210.883323 369.556562) scale(0.1 -0.1)">
       <defs>
        <path id="DejaVuSans-32" d="M 1228 531 
L 3431 531 
L 3431 0 
L 469 0 
L 469 531 
Q 828 903 1448 1529 
Q 2069 2156 2228 2338 
Q 2531 2678 2651 2914 
Q 2772 3150 2772 3378 
Q 2772 3750 2511 3984 
Q 2250 4219 1831 4219 
Q 1534 4219 1204 4116 
Q 875 4013 500 3803 
L 500 4441 
Q 881 4594 1212 4672 
Q 1544 4750 1819 4750 
Q 2544 4750 2975 4387 
Q 3406 4025 3406 3419 
Q 3406 3131 3298 2873 
Q 3191 2616 2906 2266 
Q 2828 2175 2409 1742 
Q 1991 1309 1228 531 
z
" transform="scale(0.015625)"/>
       </defs>
       <use xlink:href="#DejaVuSans-32"/>
       <use xlink:href="#DejaVuSans-30" x="63.623047"/>
       <use xlink:href="#DejaVuSans-30" x="127.246094"/>
       <use xlink:href="#DejaVuSans-30" x="190.869141"/>
      </g>
     </g>
    </g>
    <g id="xtick_5">
     <g id="line2d_5">
      <g>
       <use xlink:href="#m47a0425c6d" x="182.378763" y="354.958125" style="stroke: #000000; stroke-width: 0.8"/>
      </g>
     </g>
     <g id="text_5">
      <!-- 2500 -->
      <g transform="translate(169.653763 369.556562) scale(0.1 -0.1)">
       <use xlink:href="#DejaVuSans-32"/>
       <use xlink:href="#DejaVuSans-35" x="63.623047"/>
       <use xlink:href="#DejaVuSans-30" x="127.246094"/>
       <use xlink:href="#DejaVuSans-30" x="190.869141"/>
      </g>
     </g>
    </g>
    <g id="xtick_6">
     <g id="line2d_6">
      <g>
       <use xlink:href="#m47a0425c6d" x="141.149203" y="354.958125" style="stroke: #000000; stroke-width: 0.8"/>
      </g>
     </g>
     <g id="text_6">
      <!-- 3000 -->
      <g transform="translate(128.424203 369.556562) scale(0.1 -0.1)">
       <defs>
        <path id="DejaVuSans-33" d="M 2597 2516 
Q 3050 2419 3304 2112 
Q 3559 1806 3559 1356 
Q 3559 666 3084 287 
Q 2609 -91 1734 -91 
Q 1441 -91 1130 -33 
Q 819 25 488 141 
L 488 750 
Q 750 597 1062 519 
Q 1375 441 1716 441 
Q 2309 441 2620 675 
Q 2931 909 2931 1356 
Q 2931 1769 2642 2001 
Q 2353 2234 1838 2234 
L 1294 2234 
L 1294 2753 
L 1863 2753 
Q 2328 2753 2575 2939 
Q 2822 3125 2822 3475 
Q 2822 3834 2567 4026 
Q 2313 4219 1838 4219 
Q 1578 4219 1281 4162 
Q 984 4106 628 3988 
L 628 4550 
Q 988 4650 1302 4700 
Q 1616 4750 1894 4750 
Q 2613 4750 3031 4423 
Q 3450 4097 3450 3541 
Q 3450 3153 3228 2886 
Q 3006 2619 2597 2516 
z
" transform="scale(0.015625)"/>
       </defs>
       <use xlink:href="#DejaVuSans-33"/>
       <use xlink:href="#DejaVuSans-30" x="63.623047"/>
       <use xlink:href="#DejaVuSans-30" x="127.246094"/>
       <use xlink:href="#DejaVuSans-30" x="190.869141"/>
      </g>
     </g>
    </g>
    <g id="xtick_7">
     <g id="line2d_7">
      <g>
       <use xlink:href="#m47a0425c6d" x="99.919643" y="354.958125" style="stroke: #000000; stroke-width: 0.8"/>
      </g>
     </g>
     <g id="text_7">
      <!-- 3500 -->
      <g transform="translate(87.194643 369.556562) scale(0.1 -0.1)">
       <use xlink:href="#DejaVuSans-33"/>
       <use xlink:href="#DejaVuSans-35" x="63.623047"/>
       <use xlink:href="#DejaVuSans-30" x="127.246094"/>
       <use xlink:href="#DejaVuSans-30" x="190.869141"/>
      </g>
     </g>
    </g>
    <g id="xtick_8">
     <g id="line2d_8">
      <g>
       <use xlink:href="#m47a0425c6d" x="58.690083" y="354.958125" style="stroke: #000000; stroke-width: 0.8"/>
      </g>
     </g>
     <g id="text_8">
      <!-- 4000 -->
      <g transform="translate(45.965083 369.556562) scale(0.1 -0.1)">
       <defs>
        <path id="DejaVuSans-34" d="M 2419 4116 
L 825 1625 
L 2419 1625 
L 2419 4116 
z
M 2253 4666 
L 3047 4666 
L 3047 1625 
L 3713 1625 
L 3713 1100 
L 3047 1100 
L 3047 0 
L 2419 0 
L 2419 1100 
L 313 1100 
L 313 1709 
L 2253 4666 
z
" transform="scale(0.015625)"/>
       </defs>
       <use xlink:href="#DejaVuSans-34"/>
       <use xlink:href="#DejaVuSans-30" x="63.623047"/>
       <use xlink:href="#DejaVuSans-30" x="127.246094"/>
       <use xlink:href="#DejaVuSans-30" x="190.869141"/>
      </g>
     </g>
    </g>
    <g id="text_9">
     <!-- Wavenumbers, cm$^{-1}$ -->
     <g transform="translate(144.677131 383.756562) scale(0.1 -0.1)">
      <defs>
       <path id="DejaVuSans-57" d="M 213 4666 
L 850 4666 
L 1831 722 
L 2809 4666 
L 3519 4666 
L 4500 722 
L 5478 4666 
L 6119 4666 
L 4947 0 
L 4153 0 
L 3169 4050 
L 2175 0 
L 1381 0 
L 213 4666 
z
" transform="scale(0.015625)"/>
       <path id="DejaVuSans-61" d="M 2194 1759 
Q 1497 1759 1228 1600 
Q 959 1441 959 1056 
Q 959 750 1161 570 
Q 1363 391 1709 391 
Q 2188 391 2477 730 
Q 2766 1069 2766 1631 
L 2766 1759 
L 2194 1759 
z
M 3341 1997 
L 3341 0 
L 2766 0 
L 2766 531 
Q 2569 213 2275 61 
Q 1981 -91 1556 -91 
Q 1019 -91 701 211 
Q 384 513 384 1019 
Q 384 1609 779 1909 
Q 1175 2209 1959 2209 
L 2766 2209 
L 2766 2266 
Q 2766 2663 2505 2880 
Q 2244 3097 1772 3097 
Q 1472 3097 1187 3025 
Q 903 2953 641 2809 
L 641 3341 
Q 956 3463 1253 3523 
Q 1550 3584 1831 3584 
Q 2591 3584 2966 3190 
Q 3341 2797 3341 1997 
z
" transform="scale(0.015625)"/>
       <path id="DejaVuSans-76" d="M 191 3500 
L 800 3500 
L 1894 563 
L 2988 3500 
L 3597 3500 
L 2284 0 
L 1503 0 
L 191 3500 
z
" transform="scale(0.015625)"/>
       <path id="DejaVuSans-65" d="M 3597 1894 
L 3597 1613 
L 953 1613 
Q 991 1019 1311 708 
Q 1631 397 2203 397 
Q 2534 397 2845 478 
Q 3156 559 3463 722 
L 3463 178 
Q 3153 47 2828 -22 
Q 2503 -91 2169 -91 
Q 1331 -91 842 396 
Q 353 884 353 1716 
Q 353 2575 817 3079 
Q 1281 3584 2069 3584 
Q 2775 3584 3186 3129 
Q 3597 2675 3597 1894 
z
M 3022 2063 
Q 3016 2534 2758 2815 
Q 2500 3097 2075 3097 
Q 1594 3097 1305 2825 
Q 1016 2553 972 2059 
L 3022 2063 
z
" transform="scale(0.015625)"/>
       <path id="DejaVuSans-6e" d="M 3513 2113 
L 3513 0 
L 2938 0 
L 2938 2094 
Q 2938 2591 2744 2837 
Q 2550 3084 2163 3084 
Q 1697 3084 1428 2787 
Q 1159 2491 1159 1978 
L 1159 0 
L 581 0 
L 581 3500 
L 1159 3500 
L 1159 2956 
Q 1366 3272 1645 3428 
Q 1925 3584 2291 3584 
Q 2894 3584 3203 3211 
Q 3513 2838 3513 2113 
z
" transform="scale(0.015625)"/>
       <path id="DejaVuSans-75" d="M 544 1381 
L 544 3500 
L 1119 3500 
L 1119 1403 
Q 1119 906 1312 657 
Q 1506 409 1894 409 
Q 2359 409 2629 706 
Q 2900 1003 2900 1516 
L 2900 3500 
L 3475 3500 
L 3475 0 
L 2900 0 
L 2900 538 
Q 2691 219 2414 64 
Q 2138 -91 1772 -91 
Q 1169 -91 856 284 
Q 544 659 544 1381 
z
M 1991 3584 
L 1991 3584 
z
" transform="scale(0.015625)"/>
       <path id="DejaVuSans-6d" d="M 3328 2828 
Q 3544 3216 3844 3400 
Q 4144 3584 4550 3584 
Q 5097 3584 5394 3201 
Q 5691 2819 5691 2113 
L 5691 0 
L 5113 0 
L 5113 2094 
Q 5113 2597 4934 2840 
Q 4756 3084 4391 3084 
Q 3944 3084 3684 2787 
Q 3425 2491 3425 1978 
L 3425 0 
L 2847 0 
L 2847 2094 
Q 2847 2600 2669 2842 
Q 2491 3084 2119 3084 
Q 1678 3084 1418 2786 
Q 1159 2488 1159 1978 
L 1159 0 
L 581 0 
L 581 3500 
L 1159 3500 
L 1159 2956 
Q 1356 3278 1631 3431 
Q 1906 3584 2284 3584 
Q 2666 3584 2933 3390 
Q 3200 3197 3328 2828 
z
" transform="scale(0.015625)"/>
       <path id="DejaVuSans-62" d="M 3116 1747 
Q 3116 2381 2855 2742 
Q 2594 3103 2138 3103 
Q 1681 3103 1420 2742 
Q 1159 2381 1159 1747 
Q 1159 1113 1420 752 
Q 1681 391 2138 391 
Q 2594 391 2855 752 
Q 3116 1113 3116 1747 
z
M 1159 2969 
Q 1341 3281 1617 3432 
Q 1894 3584 2278 3584 
Q 2916 3584 3314 3078 
Q 3713 2572 3713 1747 
Q 3713 922 3314 415 
Q 2916 -91 2278 -91 
Q 1894 -91 1617 61 
Q 1341 213 1159 525 
L 1159 0 
L 581 0 
L 581 4863 
L 1159 4863 
L 1159 2969 
z
" transform="scale(0.015625)"/>
       <path id="DejaVuSans-72" d="M 2631 2963 
Q 2534 3019 2420 3045 
Q 2306 3072 2169 3072 
Q 1681 3072 1420 2755 
Q 1159 2438 1159 1844 
L 1159 0 
L 581 0 
L 581 3500 
L 1159 3500 
L 1159 2956 
Q 1341 3275 1631 3429 
Q 1922 3584 2338 3584 
Q 2397 3584 2469 3576 
Q 2541 3569 2628 3553 
L 2631 2963 
z
" transform="scale(0.015625)"/>
       <path id="DejaVuSans-73" d="M 2834 3397 
L 2834 2853 
Q 2591 2978 2328 3040 
Q 2066 3103 1784 3103 
Q 1356 3103 1142 2972 
Q 928 2841 928 2578 
Q 928 2378 1081 2264 
Q 1234 2150 1697 2047 
L 1894 2003 
Q 2506 1872 2764 1633 
Q 3022 1394 3022 966 
Q 3022 478 2636 193 
Q 2250 -91 1575 -91 
Q 1294 -91 989 -36 
Q 684 19 347 128 
L 347 722 
Q 666 556 975 473 
Q 1284 391 1588 391 
Q 1994 391 2212 530 
Q 2431 669 2431 922 
Q 2431 1156 2273 1281 
Q 2116 1406 1581 1522 
L 1381 1569 
Q 847 1681 609 1914 
Q 372 2147 372 2553 
Q 372 3047 722 3315 
Q 1072 3584 1716 3584 
Q 2034 3584 2315 3537 
Q 2597 3491 2834 3397 
z
" transform="scale(0.015625)"/>
       <path id="DejaVuSans-2c" d="M 750 794 
L 1409 794 
L 1409 256 
L 897 -744 
L 494 -744 
L 750 256 
L 750 794 
z
" transform="scale(0.015625)"/>
       <path id="DejaVuSans-20" transform="scale(0.015625)"/>
       <path id="DejaVuSans-63" d="M 3122 3366 
L 3122 2828 
Q 2878 2963 2633 3030 
Q 2388 3097 2138 3097 
Q 1578 3097 1268 2742 
Q 959 2388 959 1747 
Q 959 1106 1268 751 
Q 1578 397 2138 397 
Q 2388 397 2633 464 
Q 2878 531 3122 666 
L 3122 134 
Q 2881 22 2623 -34 
Q 2366 -91 2075 -91 
Q 1284 -91 818 406 
Q 353 903 353 1747 
Q 353 2603 823 3093 
Q 1294 3584 2113 3584 
Q 2378 3584 2631 3529 
Q 2884 3475 3122 3366 
z
" transform="scale(0.015625)"/>
       <path id="DejaVuSans-2212" d="M 678 2272 
L 4684 2272 
L 4684 1741 
L 678 1741 
L 678 2272 
z
" transform="scale(0.015625)"/>
      </defs>
      <use xlink:href="#DejaVuSans-57" transform="translate(0 0.684375)"/>
      <use xlink:href="#DejaVuSans-61" transform="translate(98.876953 0.684375)"/>
      <use xlink:href="#DejaVuSans-76" transform="translate(160.15625 0.684375)"/>
      <use xlink:href="#DejaVuSans-65" transform="translate(219.335938 0.684375)"/>
      <use xlink:href="#DejaVuSans-6e" transform="translate(280.859375 0.684375)"/>
      <use xlink:href="#DejaVuSans-75" transform="translate(344.238281 0.684375)"/>
      <use xlink:href="#DejaVuSans-6d" transform="translate(407.617188 0.684375)"/>
      <use xlink:href="#DejaVuSans-62" transform="translate(505.029297 0.684375)"/>
      <use xlink:href="#DejaVuSans-65" transform="translate(568.505859 0.684375)"/>
      <use xlink:href="#DejaVuSans-72" transform="translate(630.029297 0.684375)"/>
      <use xlink:href="#DejaVuSans-73" transform="translate(671.142578 0.684375)"/>
      <use xlink:href="#DejaVuSans-2c" transform="translate(723.242188 0.684375)"/>
      <use xlink:href="#DejaVuSans-20" transform="translate(755.029297 0.684375)"/>
      <use xlink:href="#DejaVuSans-63" transform="translate(786.816406 0.684375)"/>
      <use xlink:href="#DejaVuSans-6d" transform="translate(841.796875 0.684375)"/>
      <use xlink:href="#DejaVuSans-2212" transform="translate(940.166016 38.965625) scale(0.7)"/>
      <use xlink:href="#DejaVuSans-31" transform="translate(998.818359 38.965625) scale(0.7)"/>
     </g>
    </g>
   </g>
   <g id="matplotlib.axis_2">
    <g id="ytick_1">
     <g id="line2d_9">
      <defs>
       <path id="mc0cc385ff1" d="M 0 0 
L -3.5 0 
" style="stroke: #000000; stroke-width: 0.8"/>
      </defs>
      <g>
       <use xlink:href="#mc0cc385ff1" x="44.845313" y="318.066889" style="stroke: #000000; stroke-width: 0.8"/>
      </g>
     </g>
     <g id="text_10">
      <!-- −0.10 -->
      <g transform="translate(7.2 321.866107) scale(0.1 -0.1)">
       <defs>
        <path id="DejaVuSans-2e" d="M 684 794 
L 1344 794 
L 1344 0 
L 684 0 
L 684 794 
z
" transform="scale(0.015625)"/>
       </defs>
       <use xlink:href="#DejaVuSans-2212"/>
       <use xlink:href="#DejaVuSans-30" x="83.789062"/>
       <use xlink:href="#DejaVuSans-2e" x="147.412109"/>
       <use xlink:href="#DejaVuSans-31" x="179.199219"/>
       <use xlink:href="#DejaVuSans-30" x="242.822266"/>
      </g>
     </g>
    </g>
    <g id="ytick_2">
     <g id="line2d_10">
      <g>
       <use xlink:href="#mc0cc385ff1" x="44.845313" y="269.455452" style="stroke: #000000; stroke-width: 0.8"/>
      </g>
     </g>
     <g id="text_11">
      <!-- −0.08 -->
      <g transform="translate(7.2 273.254671) scale(0.1 -0.1)">
       <defs>
        <path id="DejaVuSans-38" d="M 2034 2216 
Q 1584 2216 1326 1975 
Q 1069 1734 1069 1313 
Q 1069 891 1326 650 
Q 1584 409 2034 409 
Q 2484 409 2743 651 
Q 3003 894 3003 1313 
Q 3003 1734 2745 1975 
Q 2488 2216 2034 2216 
z
M 1403 2484 
Q 997 2584 770 2862 
Q 544 3141 544 3541 
Q 544 4100 942 4425 
Q 1341 4750 2034 4750 
Q 2731 4750 3128 4425 
Q 3525 4100 3525 3541 
Q 3525 3141 3298 2862 
Q 3072 2584 2669 2484 
Q 3125 2378 3379 2068 
Q 3634 1759 3634 1313 
Q 3634 634 3220 271 
Q 2806 -91 2034 -91 
Q 1263 -91 848 271 
Q 434 634 434 1313 
Q 434 1759 690 2068 
Q 947 2378 1403 2484 
z
M 1172 3481 
Q 1172 3119 1398 2916 
Q 1625 2713 2034 2713 
Q 2441 2713 2670 2916 
Q 2900 3119 2900 3481 
Q 2900 3844 2670 4047 
Q 2441 4250 2034 4250 
Q 1625 4250 1398 4047 
Q 1172 3844 1172 3481 
z
" transform="scale(0.015625)"/>
       </defs>
       <use xlink:href="#DejaVuSans-2212"/>
       <use xlink:href="#DejaVuSans-30" x="83.789062"/>
       <use xlink:href="#DejaVuSans-2e" x="147.412109"/>
       <use xlink:href="#DejaVuSans-30" x="179.199219"/>
       <use xlink:href="#DejaVuSans-38" x="242.822266"/>
      </g>
     </g>
    </g>
    <g id="ytick_3">
     <g id="line2d_11">
      <g>
       <use xlink:href="#mc0cc385ff1" x="44.845313" y="220.844015" style="stroke: #000000; stroke-width: 0.8"/>
      </g>
     </g>
     <g id="text_12">
      <!-- −0.06 -->
      <g transform="translate(7.2 224.643234) scale(0.1 -0.1)">
       <defs>
        <path id="DejaVuSans-36" d="M 2113 2584 
Q 1688 2584 1439 2293 
Q 1191 2003 1191 1497 
Q 1191 994 1439 701 
Q 1688 409 2113 409 
Q 2538 409 2786 701 
Q 3034 994 3034 1497 
Q 3034 2003 2786 2293 
Q 2538 2584 2113 2584 
z
M 3366 4563 
L 3366 3988 
Q 3128 4100 2886 4159 
Q 2644 4219 2406 4219 
Q 1781 4219 1451 3797 
Q 1122 3375 1075 2522 
Q 1259 2794 1537 2939 
Q 1816 3084 2150 3084 
Q 2853 3084 3261 2657 
Q 3669 2231 3669 1497 
Q 3669 778 3244 343 
Q 2819 -91 2113 -91 
Q 1303 -91 875 529 
Q 447 1150 447 2328 
Q 447 3434 972 4092 
Q 1497 4750 2381 4750 
Q 2619 4750 2861 4703 
Q 3103 4656 3366 4563 
z
" transform="scale(0.015625)"/>
       </defs>
       <use xlink:href="#DejaVuSans-2212"/>
       <use xlink:href="#DejaVuSans-30" x="83.789062"/>
       <use xlink:href="#DejaVuSans-2e" x="147.412109"/>
       <use xlink:href="#DejaVuSans-30" x="179.199219"/>
       <use xlink:href="#DejaVuSans-36" x="242.822266"/>
      </g>
     </g>
    </g>
    <g id="ytick_4">
     <g id="line2d_12">
      <g>
       <use xlink:href="#mc0cc385ff1" x="44.845313" y="172.232579" style="stroke: #000000; stroke-width: 0.8"/>
      </g>
     </g>
     <g id="text_13">
      <!-- −0.04 -->
      <g transform="translate(7.2 176.031797) scale(0.1 -0.1)">
       <use xlink:href="#DejaVuSans-2212"/>
       <use xlink:href="#DejaVuSans-30" x="83.789062"/>
       <use xlink:href="#DejaVuSans-2e" x="147.412109"/>
       <use xlink:href="#DejaVuSans-30" x="179.199219"/>
       <use xlink:href="#DejaVuSans-34" x="242.822266"/>
      </g>
     </g>
    </g>
    <g id="ytick_5">
     <g id="line2d_13">
      <g>
       <use xlink:href="#mc0cc385ff1" x="44.845313" y="123.621142" style="stroke: #000000; stroke-width: 0.8"/>
      </g>
     </g>
     <g id="text_14">
      <!-- −0.02 -->
      <g transform="translate(7.2 127.420361) scale(0.1 -0.1)">
       <use xlink:href="#DejaVuSans-2212"/>
       <use xlink:href="#DejaVuSans-30" x="83.789062"/>
       <use xlink:href="#DejaVuSans-2e" x="147.412109"/>
       <use xlink:href="#DejaVuSans-30" x="179.199219"/>
       <use xlink:href="#DejaVuSans-32" x="242.822266"/>
      </g>
     </g>
    </g>
    <g id="ytick_6">
     <g id="line2d_14">
      <g>
       <use xlink:href="#mc0cc385ff1" x="44.845313" y="75.009705" style="stroke: #000000; stroke-width: 0.8"/>
      </g>
     </g>
     <g id="text_15">
      <!-- 0.00 -->
      <g transform="translate(15.579688 78.808924) scale(0.1 -0.1)">
       <use xlink:href="#DejaVuSans-30"/>
       <use xlink:href="#DejaVuSans-2e" x="63.623047"/>
       <use xlink:href="#DejaVuSans-30" x="95.410156"/>
       <use xlink:href="#DejaVuSans-30" x="159.033203"/>
      </g>
     </g>
    </g>
    <g id="ytick_7">
     <g id="line2d_15">
      <g>
       <use xlink:href="#mc0cc385ff1" x="44.845313" y="26.398268" style="stroke: #000000; stroke-width: 0.8"/>
      </g>
     </g>
     <g id="text_16">
      <!-- 0.02 -->
      <g transform="translate(15.579688 30.197487) scale(0.1 -0.1)">
       <use xlink:href="#DejaVuSans-30"/>
       <use xlink:href="#DejaVuSans-2e" x="63.623047"/>
       <use xlink:href="#DejaVuSans-30" x="95.410156"/>
       <use xlink:href="#DejaVuSans-32" x="159.033203"/>
      </g>
     </g>
    </g>
   </g>
   <g id="line2d_16">
    <path d="M 335.374238 78.055286 
L 335.215216 78.477505 
L 335.095955 78.202049 
L 334.936933 77.002285 
L 334.539381 73.62456 
L 334.221344 72.757996 
L 334.022568 73.262336 
L 333.982815 73.187167 
L 333.744285 71.627044 
L 333.664778 71.959268 
L 333.466002 74.055521 
L 333.426249 73.965694 
L 332.94919 70.521356 
L 332.790167 70.079766 
L 332.392615 67.988388 
L 332.154086 66.914187 
L 331.95531 66.221754 
L 331.796296 64.952256 
L 331.557766 60.579439 
L 331.35899 57.344 
L 331.279483 59.045182 
L 330.961438 74.390987 
L 330.881931 73.582027 
L 330.524133 67.32951 
L 330.00732 65.151295 
L 329.411001 62.768383 
L 329.172471 60.41703 
L 328.933942 54.628241 
L 328.576143 41.558309 
L 328.496636 42.473934 
L 328.377367 50.15888 
L 327.900308 92.517266 
L 327.860555 92.411995 
L 327.741294 89.469598 
L 327.144966 70.827664 
L 326.866683 68.293053 
L 326.389624 66.320174 
L 325.713789 65.388238 
L 325.554767 65.44939 
L 325.157223 65.78874 
L 324.799425 65.886424 
L 324.600649 66.812887 
L 324.36212 67.621525 
L 324.163352 68.107317 
L 323.924822 68.570178 
L 323.7658 68.518812 
L 323.487517 68.15068 
L 323.248987 67.381252 
L 322.891189 66.031935 
L 322.573152 65.726094 
L 322.374376 65.653127 
L 322.175601 65.718159 
L 321.738295 65.480267 
L 321.340751 65.984932 
L 321.181729 66.015821 
L 320.9432 65.945709 
L 320.784177 66.297627 
L 320.585409 66.593507 
L 320.34688 66.619613 
L 320.148104 66.856932 
L 319.869821 67.212612 
L 319.551776 67.467657 
L 319.353 67.566081 
L 319.154232 67.564377 
L 318.915703 68.027182 
L 318.319375 69.536387 
L 317.683294 71.174791 
L 317.28575 72.273131 
L 317.166481 72.207409 
L 316.967705 71.988541 
L 316.927952 72.021258 
L 316.291878 73.220718 
L 315.377514 77.056405 
L 314.781186 81.947438 
L 314.22462 86.890604 
L 313.906584 87.807955 
L 313.827068 87.729774 
L 313.668054 86.852283 
L 312.833197 80.820664 
L 311.720056 76.909317 
L 310.845454 75.227241 
L 310.527409 74.859074 
L 310.05035 74.571957 
L 309.295008 73.727373 
L 308.976971 73.541052 
L 308.10236 72.288456 
L 307.625301 71.344267 
L 306.869959 67.547232 
L 306.472416 63.982052 
L 305.955628 56.945101 
L 305.438774 50.216554 
L 305.359283 50.05154 
L 305.319538 50.165407 
L 305.20022 51.506758 
L 305.001493 57.502214 
L 304.723194 74.881511 
L 303.689569 152.78169 
L 303.530505 154.057454 
L 303.451015 153.629764 
L 303.292033 150.552528 
L 303.053479 140.638605 
L 302.178918 98.262815 
L 301.7813 90.89146 
L 301.383764 87.170484 
L 300.906738 85.123721 
L 300.668184 84.933066 
L 300.389885 84.926084 
L 299.992349 85.13559 
L 299.753795 85.841455 
L 299.515323 87.017506 
L 299.316514 89.350681 
L 298.958724 97.119544 
L 298.481698 107.609857 
L 298.402208 107.191245 
L 298.243144 103.901523 
L 297.567309 87.19401 
L 297.090283 81.644268 
L 296.29513 75.774174 
L 295.93734 74.500571 
L 295.579549 74.152819 
L 295.420568 74.215946 
L 295.142269 74.692386 
L 294.386943 76.241639 
L 294.188134 76.669165 
L 293.94958 77.026202 
L 293.631535 77.188918 
L 292.200375 79.283015 
L 291.16675 82.064157 
L 290.53066 85.953477 
L 290.133125 90.369483 
L 289.497035 99.909129 
L 289.139245 108.98186 
L 288.8212 123.531706 
L 288.542983 148.32767 
L 288.18511 205.460722 
L 287.867148 241.921046 
L 287.82732 241.984123 
L 287.708084 236.34527 
L 286.793695 153.936097 
L 286.356414 106.227126 
L 285.998624 90.004747 
L 285.640834 82.812972 
L 285.322789 80.150657 
L 284.806018 77.744957 
L 284.368655 76.625245 
L 284.130183 76.33659 
L 283.851884 76.274683 
L 283.573584 76.043938 
L 283.016985 76.208861 
L 282.500214 76.426693 
L 281.98336 77.201657 
L 281.387098 78.391752 
L 280.90999 79.731802 
L 280.393218 81.918034 
L 279.955855 84.334247 
L 279.439084 88.380202 
L 278.961975 93.301083 
L 278.445204 101.251957 
L 278.047669 111.909203 
L 277.650133 130.519286 
L 277.292261 159.28752 
L 276.377954 246.133553 
L 276.298463 246.880045 
L 276.258636 246.780115 
L 276.1394 244.454453 
L 275.940673 233.201355 
L 275.622628 198.52066 
L 275.026284 136.272445 
L 274.628749 116.669605 
L 274.231213 106.818955 
L 273.873341 102.113533 
L 273.51555 100.051049 
L 273.356569 99.87461 
L 273.197588 99.96768 
L 273.038524 100.474994 
L 272.760225 102.083401 
L 272.44218 105.87668 
L 271.965154 114.061161 
L 271.607364 118.360857 
L 271.36881 118.867792 
L 271.289319 118.643766 
L 271.130255 117.101363 
L 270.37493 108.368697 
L 270.176203 107.156246 
L 269.619604 100.181421 
L 268.983515 90.34285 
L 268.546234 86.503298 
L 268.108953 80.301608 
L 267.274055 76.220396 
L 266.757283 74.468483 
L 265.485104 70.951246 
L 265.24655 70.061021 
L 265.206805 70.147377 
L 265.007996 71.601832 
L 264.769524 72.562113 
L 264.491224 72.722656 
L 264.25267 72.411014 
L 264.17318 72.523483 
L 263.696154 73.168458 
L 263.53709 72.899709 
L 263.338363 72.685241 
L 263.020319 72.867521 
L 262.781764 73.314517 
L 262.662528 73.394905 
L 262.46372 73.674791 
L 262.423974 73.652749 
L 262.066184 73.254028 
L 262.026439 73.339072 
L 261.82763 73.808468 
L 261.787885 73.78766 
L 261.628903 73.299263 
L 261.46984 72.948803 
L 261.430094 72.979806 
L 260.674769 73.863302 
L 260.515705 73.858547 
L 260.078425 73.282056 
L 259.959189 72.938744 
L 259.919443 72.960893 
L 259.442335 73.877019 
L 259.323099 73.837295 
L 259.12429 73.573516 
L 259.084545 73.603338 
L 258.925564 74.030876 
L 258.7665 74.404091 
L 258.726755 74.387727 
L 258.528028 74.10767 
L 258.4882 74.155656 
L 258.209983 74.498671 
L 258.011174 74.374085 
L 257.573894 73.79302 
L 257.375085 73.705868 
L 257.136531 73.685174 
L 256.34146 72.527148 
L 256.06316 72.6053 
L 255.784861 73.060294 
L 255.34758 73.734599 
L 255.188599 73.731689 
L 254.791063 74.295251 
L 254.632 74.407016 
L 254.433191 74.869445 
L 253.797184 76.473187 
L 253.558629 76.6541 
L 253.240585 77.682404 
L 252.92254 78.693551 
L 252.56475 79.491158 
L 252.405768 80.014469 
L 252.365941 79.959913 
L 252.246705 79.680469 
L 252.206959 79.781454 
L 251.491379 84.580708 
L 249.901155 99.853849 
L 249.662601 104.402596 
L 249.22532 124.066963 
L 248.86753 153.332479 
L 248.589231 196.271851 
L 248.310931 258.827205 
L 247.953141 329.210874 
L 247.754414 339.838125 
L 247.674924 338.427053 
L 247.43637 324.727388 
L 247.118325 299.288384 
L 246.919516 263.517414 
L 246.402745 161.912111 
L 246.044954 127.056585 
L 245.687164 111.448834 
L 245.369119 105.021227 
L 244.772775 100.206016 
L 244.414985 100.144959 
L 244.295749 99.490081 
L 244.01745 95.542413 
L 243.222379 83.670295 
L 242.38748 76.759576 
L 242.109181 75.570938 
L 241.6719 74.277087 
L 241.433346 73.806006 
L 241.234619 73.485909 
L 241.115301 73.362849 
L 240.757511 72.744047 
L 240.558784 72.670049 
L 239.882949 71.321601 
L 239.723886 71.223304 
L 239.32635 70.94363 
L 239.207114 70.818039 
L 238.730006 69.789497 
L 238.491534 69.745406 
L 238.292725 69.50709 
L 237.97468 68.942819 
L 237.736126 69.038659 
L 237.497654 68.715284 
L 237.457909 68.746609 
L 237.298845 68.797363 
L 237.020546 68.675745 
L 236.702501 68.603254 
L 236.503775 68.129119 
L 236.464029 68.147263 
L 236.066494 68.57412 
L 235.82794 68.469739 
L 235.231595 67.65377 
L 235.19185 67.700144 
L 234.91355 67.944107 
L 234.357034 67.805581 
L 233.999161 68.188087 
L 233.681199 68.078247 
L 233.442645 68.393804 
L 233.20409 68.393267 
L 232.925791 68.377753 
L 232.568001 67.926791 
L 232.090975 67.987318 
L 231.812675 68.048529 
L 231.534376 68.542019 
L 230.898286 68.458972 
L 230.341769 67.752418 
L 230.182706 67.709624 
L 229.983979 67.816021 
L 229.78517 67.744063 
L 229.42738 68.103384 
L 229.06959 67.883412 
L 228.950354 68.193032 
L 228.751545 68.684957 
L 228.592564 68.252374 
L 228.35401 67.641895 
L 228.314265 67.654175 
L 228.155201 68.114493 
L 227.916729 68.542997 
L 227.678175 68.502514 
L 227.479366 68.649294 
L 227.081831 68.508458 
L 226.922849 68.895872 
L 226.763786 69.010087 
L 226.604805 69.032178 
L 226.167524 69.50971 
L 225.92897 70.682713 
L 225.889224 70.631598 
L 225.730161 69.571284 
L 225.531434 68.798867 
L 225.412116 69.181706 
L 225.253135 69.631602 
L 225.213389 69.605624 
L 224.895345 69.281451 
L 224.537554 69.412357 
L 224.378491 69.332328 
L 224.259255 69.605101 
L 224.060446 70.214097 
L 224.020701 70.18948 
L 223.623165 69.614602 
L 223.503929 69.63675 
L 223.185885 70.190861 
L 223.146139 70.134323 
L 222.907585 69.67823 
L 222.86784 69.725085 
L 222.58954 70.007105 
L 222.311241 70.206298 
L 221.913705 69.756775 
L 221.87396 69.809452 
L 221.675151 70.095712 
L 221.635406 70.064939 
L 221.476425 69.930668 
L 221.436679 69.962952 
L 221.317361 70.086623 
L 221.277616 70.05259 
L 221.118634 69.377343 
L 220.959571 68.953701 
L 220.840335 69.143977 
L 220.601781 69.53695 
L 220.4428 69.524099 
L 220.283736 69.947545 
L 220.243991 69.931642 
L 220.085009 69.193787 
L 219.965691 68.878065 
L 219.925946 68.889262 
L 219.727219 68.989115 
L 219.568156 68.531846 
L 219.44892 68.266648 
L 219.409174 68.289124 
L 218.932066 69.019931 
L 218.614021 68.719977 
L 218.375549 68.055245 
L 218.335804 68.068261 
L 217.898441 68.475368 
L 217.540651 68.5346 
L 216.74558 67.815522 
L 216.626262 68.007245 
L 216.308217 68.786315 
L 216.268554 68.766634 
L 215.990254 68.670475 
L 215.831191 68.859709 
L 215.552891 69.194436 
L 214.797566 69.144443 
L 214.479521 69.314197 
L 214.280794 69.23218 
L 214.04224 69.297702 
L 213.803686 69.200795 
L 213.525386 69.740318 
L 213.485641 69.684954 
L 213.32666 69.512673 
L 212.889379 69.999942 
L 212.770061 70.144618 
L 212.491761 70.61647 
L 212.33278 70.736069 
L 212.094226 71.242396 
L 211.815926 71.928555 
L 211.736436 71.800063 
L 211.418391 70.271128 
L 211.3389 70.366468 
L 211.020856 71.575858 
L 210.941365 71.418549 
L 210.782301 71.153567 
L 210.742556 71.170736 
L 210.583575 71.16925 
L 210.146212 70.662893 
L 209.947485 70.426196 
L 209.748676 70.508036 
L 208.83437 68.964852 
L 208.754797 69.047507 
L 208.317516 69.470593 
L 208.158535 69.437165 
L 207.880235 69.24707 
L 207.721171 69.437927 
L 207.601936 69.57513 
L 207.56219 69.544909 
L 207.164655 69.005284 
L 206.926101 68.817398 
L 206.727374 68.739176 
L 206.528565 68.758073 
L 206.329756 68.754758 
L 204.978086 69.097191 
L 204.699787 69.446499 
L 204.381742 69.06732 
L 204.024034 68.585166 
L 203.904716 68.701708 
L 203.70599 69.025058 
L 203.666162 68.984114 
L 203.308372 68.489117 
L 202.910836 68.882609 
L 202.672282 68.975657 
L 202.274747 68.805228 
L 201.956784 68.916907 
L 201.757975 68.661334 
L 201.400185 68.234844 
L 201.280867 68.370679 
L 201.042395 68.683164 
L 200.36656 68.17974 
L 200.207496 68.107658 
L 200.048515 68.126422 
L 199.770216 67.914303 
L 199.491916 68.021166 
L 199.332935 68.105434 
L 199.054636 68.278829 
L 198.617355 68.377781 
L 197.742711 69.131648 
L 197.345176 70.073878 
L 197.066876 70.752618 
L 196.391041 71.337099 
L 196.112742 71.626694 
L 195.87427 71.762083 
L 195.516397 71.532951 
L 195.118862 71.015114 
L 194.88039 70.078409 
L 194.840562 70.10289 
L 194.721326 70.59911 
L 194.403281 72.012701 
L 193.966001 73.23874 
L 193.88651 73.14879 
L 193.409402 72.370062 
L 193.091357 71.188979 
L 192.137305 67.585237 
L 191.81926 67.282173 
L 191.620451 67.227825 
L 190.984361 67.531114 
L 190.547081 67.628642 
L 190.348272 67.643488 
L 189.592946 67.151671 
L 188.797875 67.384665 
L 188.479831 67.217415 
L 188.122041 67.258519 
L 187.525696 66.711932 
L 187.32697 66.796112 
L 186.651135 67.272522 
L 186.452326 67.002976 
L 186.253517 66.882504 
L 185.895727 67.269149 
L 185.816236 67.168349 
L 185.458446 66.719434 
L 185.259637 66.820538 
L 184.862102 67.104759 
L 184.544057 66.858285 
L 183.709241 67.089882 
L 182.953915 66.715112 
L 182.55638 66.958598 
L 182.437061 66.860498 
L 181.92029 66.015603 
L 181.443182 65.989035 
L 181.164965 65.615539 
L 180.807092 65.487228 
L 180.608366 65.301481 
L 180.21083 65.574437 
L 180.012021 65.543688 
L 179.85304 65.52435 
L 179.654231 65.438174 
L 179.296441 65.648362 
L 179.018141 65.46617 
L 178.739842 65.361237 
L 178.541115 65.37102 
L 178.14358 65.555291 
L 177.825535 65.536425 
L 177.586981 65.540305 
L 176.950891 66.036237 
L 176.752082 66.16143 
L 176.473865 66.210809 
L 176.195566 66.222937 
L 175.917266 66.057242 
L 175.678712 66.174553 
L 175.320922 65.943461 
L 175.08245 65.730879 
L 174.645087 65.739855 
L 174.366787 65.574175 
L 173.969252 65.819657 
L 173.691035 65.573498 
L 173.412735 65.497013 
L 172.7369 65.569645 
L 172.100811 65.749239 
L 171.583957 65.729974 
L 171.30574 65.473881 
L 170.590077 65.773749 
L 170.391351 65.872204 
L 170.113051 65.778171 
L 169.834752 65.806395 
L 169.476962 65.663922 
L 169.23849 65.599213 
L 168.761381 65.891857 
L 168.403591 65.702677 
L 168.085546 65.647234 
L 167.807247 65.675817 
L 167.568775 65.587529 
L 167.25073 65.788354 
L 166.813367 65.415973 
L 166.53515 65.488902 
L 166.018296 65.609315 
L 165.620761 65.371599 
L 165.382207 65.418995 
L 164.269091 65.089723 
L 164.070282 65.081341 
L 163.712492 64.840753 
L 163.47402 64.891082 
L 162.957166 64.707476 
L 162.718612 64.815192 
L 162.321077 65.032227 
L 162.122268 64.940228 
L 161.804305 64.734632 
L 161.605496 64.77159 
L 161.327197 64.907252 
L 161.088725 64.628828 
L 160.850171 64.521361 
L 160.094845 64.258531 
L 159.140711 63.181374 
L 158.425131 62.050871 
L 157.987768 61.726841 
L 157.232442 61.124061 
L 156.99397 61.080172 
L 156.675925 61.085089 
L 156.00009 60.497405 
L 155.761536 59.407328 
L 155.204937 56.546742 
L 155.085701 56.553905 
L 154.966383 56.828105 
L 154.767656 58.079364 
L 154.131567 62.52061 
L 153.773777 63.783179 
L 153.535222 64.4615 
L 152.899133 67.43739 
L 152.819642 67.292422 
L 152.581088 66.098036 
L 152.143807 64.16641 
L 151.825762 63.415008 
L 151.547545 63.357655 
L 151.070437 63.292279 
L 150.792137 63.332945 
L 150.513838 63.700693 
L 150.116302 64.214513 
L 149.917576 64.559689 
L 149.16225 66.655894 
L 148.804378 68.912432 
L 148.446588 70.991368 
L 148.247861 71.291302 
L 148.128543 71.102108 
L 147.770835 70.001843 
L 147.731007 70.018327 
L 147.611772 70.354429 
L 147.373217 72.11427 
L 146.935937 75.294073 
L 146.776955 75.607958 
L 146.737128 75.587813 
L 146.617892 75.289066 
L 146.180611 73.022884 
L 145.584267 70.1225 
L 145.186731 69.467695 
L 144.828941 69.074503 
L 144.113361 69.180318 
L 143.954297 69.203329 
L 143.675998 69.336331 
L 143.517017 68.816239 
L 143.000245 66.850399 
L 142.761691 66.381959 
L 142.602627 66.432536 
L 142.205092 66.766395 
L 141.370276 70.155101 
L 140.932913 71.800228 
L 140.734186 71.941775 
L 140.61495 71.741384 
L 140.336651 70.434947 
L 138.865663 63.143752 
L 138.507872 62.493025 
L 138.269318 62.514922 
L 137.871783 62.07033 
L 137.712802 61.974259 
L 137.355011 61.499014 
L 137.195948 61.420066 
L 136.202068 59.936227 
L 136.043087 59.763151 
L 135.645551 59.126386 
L 135.406997 59.038564 
L 135.088952 59.234424 
L 134.770908 58.540148 
L 134.413117 57.88306 
L 134.254136 57.480542 
L 133.975837 56.886629 
L 133.697537 56.833586 
L 133.300002 56.294185 
L 133.061448 56.091657 
L 132.902466 55.878032 
L 132.107313 54.351643 
L 131.272497 53.078808 
L 130.954452 52.500825 
L 130.159381 51.408614 
L 129.761846 50.396772 
L 127.575277 46.346251 
L 126.899442 44.860083 
L 126.104372 43.487541 
L 125.110492 41.710776 
L 124.871938 41.095711 
L 124.553893 40.478527 
L 124.196103 40.367651 
L 123.520268 39.295224 
L 123.082987 38.932209 
L 122.804688 38.600733 
L 122.367407 38.085979 
L 122.089107 38.05923 
L 121.810808 37.822597 
L 121.453018 37.44476 
L 121.055482 37.492813 
L 120.657947 37.703923 
L 120.260411 37.977749 
L 120.021857 38.012697 
L 119.266532 38.667442 
L 118.948487 39.050803 
L 118.749678 38.899813 
L 118.709933 38.945734 
L 118.272652 39.644055 
L 118.153416 39.734814 
L 116.920982 41.934372 
L 116.801664 42.045594 
L 116.284892 43.419437 
L 115.489821 45.406448 
L 115.330758 45.687583 
L 112.428692 55.715124 
L 110.878213 62.579496 
L 110.599913 63.571971 
L 110.162633 65.293389 
L 108.771217 72.256311 
L 108.333937 74.297648 
L 107.856828 76.236489 
L 107.340057 78.202762 
L 106.982267 79.431247 
L 106.703967 80.163337 
L 106.067878 82.102209 
L 105.034252 84.939855 
L 104.835444 85.366561 
L 104.239182 87.006856 
L 104.040373 87.122966 
L 103.603092 88.36526 
L 103.364538 88.749872 
L 103.046493 88.778769 
L 102.648958 89.373386 
L 102.450149 89.706856 
L 102.211677 89.642218 
L 101.853887 90.081984 
L 101.575587 89.942527 
L 101.376778 89.750733 
L 101.098479 89.987156 
L 101.058733 89.935362 
L 100.820262 89.742705 
L 100.541962 89.935557 
L 100.025108 89.59613 
L 99.866127 89.481932 
L 99.587828 89.253206 
L 99.389019 89.211602 
L 98.951738 88.447056 
L 98.593948 87.718233 
L 97.639813 86.406608 
L 97.361596 85.724118 
L 97.202533 85.441868 
L 96.884488 84.879952 
L 96.685679 84.401586 
L 96.367717 83.796996 
L 96.129162 83.150167 
L 95.731627 82.247213 
L 95.373837 81.824569 
L 94.936474 80.903904 
L 94.698002 80.287598 
L 93.982422 78.087263 
L 93.505313 76.844976 
L 92.948797 74.931963 
L 92.829478 74.765797 
L 92.511433 74.050574 
L 92.352452 73.719099 
L 91.994662 72.911398 
L 91.835598 72.706541 
L 91.438063 71.790573 
L 91.318827 71.611223 
L 90.961037 70.894256 
L 90.762228 70.660111 
L 89.927412 69.16042 
L 89.728603 69.145069 
L 89.529794 69.272963 
L 89.410558 68.826733 
L 89.172004 67.91165 
L 88.893787 67.97107 
L 88.575742 68.240416 
L 88.376933 68.108172 
L 88.138379 67.908554 
L 87.939652 67.928023 
L 87.581862 67.516641 
L 87.542117 67.545393 
L 87.343308 67.636983 
L 87.224072 67.336539 
L 86.985518 66.635264 
L 86.707218 67.086395 
L 86.627728 66.962304 
L 86.429001 66.760293 
L 86.230192 67.076868 
L 86.110956 67.176544 
L 86.071129 67.139698 
L 85.792912 66.762341 
L 85.753084 66.795412 
L 85.395294 66.986802 
L 84.878522 66.885066 
L 84.520732 66.720583 
L 84.361669 66.732493 
L 84.162942 66.788855 
L 83.924388 66.68287 
L 83.566598 66.773677 
L 83.288298 66.532727 
L 83.009999 67.021284 
L 82.970254 66.979931 
L 82.691954 66.14386 
L 82.612463 66.287181 
L 82.413737 66.714175 
L 82.373909 66.696687 
L 82.095692 66.544866 
L 81.896883 66.527036 
L 81.658411 66.25879 
L 81.459602 66.640293 
L 81.141558 67.334359 
L 81.101812 67.282879 
L 80.783767 66.837991 
L 80.664532 66.782478 
L 80.425977 66.4091 
L 80.386232 66.480153 
L 80.068187 67.17198 
L 79.948869 66.820933 
L 79.710397 65.818422 
L 79.670652 65.889819 
L 79.392352 66.538826 
L 79.352607 66.521804 
L 79.193543 66.108087 
L 78.994817 65.785556 
L 78.716517 65.837669 
L 78.517708 65.900356 
L 78.318982 65.906572 
L 78.120173 65.937923 
L 77.762383 66.37514 
L 77.563574 66.730076 
L 77.404593 66.461713 
L 77.245529 66.321851 
L 76.887739 66.526173 
L 76.689013 66.439861 
L 76.529949 66.613626 
L 76.291477 66.892234 
L 75.655387 66.447058 
L 75.416833 66.565798 
L 75.059043 66.414616 
L 74.820489 66.538113 
L 74.422953 66.417858 
L 74.224145 66.676577 
L 73.826609 67.070652 
L 73.707373 67.055621 
L 73.071284 65.891095 
L 72.991793 66.054974 
L 72.594258 66.9496 
L 72.514767 66.933828 
L 72.355703 66.440541 
L 72.117149 65.906215 
L 71.958168 65.838012 
L 71.799187 66.129474 
L 71.600378 66.396289 
L 71.123352 66.16574 
L 70.924543 65.656697 
L 70.884798 65.674829 
L 70.685989 66.032307 
L 70.606498 65.96368 
L 70.487262 65.893054 
L 70.447434 65.937056 
L 70.248708 66.567951 
L 70.049899 66.952753 
L 69.930663 66.625821 
L 69.771599 66.199124 
L 69.731854 66.232282 
L 69.572873 66.452309 
L 69.533128 66.403529 
L 69.334319 66.062146 
L 69.294573 66.089171 
L 68.817547 66.461809 
L 68.499503 66.105795 
L 68.300694 66.080861 
L 67.903158 65.874631 
L 67.426132 66.215205 
L 67.147833 66.369526 
L 66.829788 66.791424 
L 66.790043 66.734963 
L 66.511743 66.350911 
L 66.114208 66.230468 
L 65.915399 66.065081 
L 65.875653 66.106563 
L 65.557609 66.488473 
L 65.358882 66.451825 
L 64.881774 65.558537 
L 64.802283 65.652327 
L 64.523984 66.357303 
L 64.484238 66.308946 
L 64.285429 65.908406 
L 64.245684 65.946168 
L 63.967467 66.425518 
L 63.927639 66.393419 
L 63.689167 65.952087 
L 63.530104 65.825756 
L 63.29155 66.178022 
L 63.092823 66.568437 
L 63.053078 66.549496 
L 62.695288 65.851247 
L 62.615715 65.946954 
L 62.377243 66.157851 
L 62.059198 65.92139 
L 61.502599 66.491171 
L 61.303872 66.414711 
L 61.105063 66.614489 
L 60.906255 66.421222 
L 60.667783 66.876214 
L 60.588292 66.764127 
L 60.309993 66.341807 
L 59.991948 66.613959 
L 59.793139 66.782663 
L 59.634158 66.523705 
L 59.316113 65.981918 
L 59.117304 66.047576 
L 58.680023 66.400241 
L 58.680023 66.400241 
" clip-path="url(#p5ef6047d4d)" style="fill: none; stroke: #1f77b4; stroke-width: 1.5; stroke-linecap: square"/>
   </g>
   <g id="patch_3">
    <path d="M 44.845313 354.958125 
L 44.845313 22.318125 
" style="fill: none; stroke: #000000; stroke-width: 0.8; stroke-linejoin: miter; stroke-linecap: square"/>
   </g>
   <g id="patch_4">
    <path d="M 349.208949 354.958125 
L 349.208949 22.318125 
" style="fill: none; stroke: #000000; stroke-width: 0.8; stroke-linejoin: miter; stroke-linecap: square"/>
   </g>
   <g id="patch_5">
    <path d="M 44.845313 354.958125 
L 349.208949 354.958125 
" style="fill: none; stroke: #000000; stroke-width: 0.8; stroke-linejoin: miter; stroke-linecap: square"/>
   </g>
   <g id="patch_6">
    <path d="M 44.845313 22.318125 
L 349.208949 22.318125 
" style="fill: none; stroke: #000000; stroke-width: 0.8; stroke-linejoin: miter; stroke-linecap: square"/>
   </g>
   <g id="text_17">
    <!-- Extracted Acetone Spectrum -->
    <g transform="translate(110.640256 16.318125) scale(0.12 -0.12)">
     <defs>
      <path id="DejaVuSans-45" d="M 628 4666 
L 3578 4666 
L 3578 4134 
L 1259 4134 
L 1259 2753 
L 3481 2753 
L 3481 2222 
L 1259 2222 
L 1259 531 
L 3634 531 
L 3634 0 
L 628 0 
L 628 4666 
z
" transform="scale(0.015625)"/>
      <path id="DejaVuSans-78" d="M 3513 3500 
L 2247 1797 
L 3578 0 
L 2900 0 
L 1881 1375 
L 863 0 
L 184 0 
L 1544 1831 
L 300 3500 
L 978 3500 
L 1906 2253 
L 2834 3500 
L 3513 3500 
z
" transform="scale(0.015625)"/>
      <path id="DejaVuSans-74" d="M 1172 4494 
L 1172 3500 
L 2356 3500 
L 2356 3053 
L 1172 3053 
L 1172 1153 
Q 1172 725 1289 603 
Q 1406 481 1766 481 
L 2356 481 
L 2356 0 
L 1766 0 
Q 1100 0 847 248 
Q 594 497 594 1153 
L 594 3053 
L 172 3053 
L 172 3500 
L 594 3500 
L 594 4494 
L 1172 4494 
z
" transform="scale(0.015625)"/>
      <path id="DejaVuSans-64" d="M 2906 2969 
L 2906 4863 
L 3481 4863 
L 3481 0 
L 2906 0 
L 2906 525 
Q 2725 213 2448 61 
Q 2172 -91 1784 -91 
Q 1150 -91 751 415 
Q 353 922 353 1747 
Q 353 2572 751 3078 
Q 1150 3584 1784 3584 
Q 2172 3584 2448 3432 
Q 2725 3281 2906 2969 
z
M 947 1747 
Q 947 1113 1208 752 
Q 1469 391 1925 391 
Q 2381 391 2643 752 
Q 2906 1113 2906 1747 
Q 2906 2381 2643 2742 
Q 2381 3103 1925 3103 
Q 1469 3103 1208 2742 
Q 947 2381 947 1747 
z
" transform="scale(0.015625)"/>
      <path id="DejaVuSans-41" d="M 2188 4044 
L 1331 1722 
L 3047 1722 
L 2188 4044 
z
M 1831 4666 
L 2547 4666 
L 4325 0 
L 3669 0 
L 3244 1197 
L 1141 1197 
L 716 0 
L 50 0 
L 1831 4666 
z
" transform="scale(0.015625)"/>
      <path id="DejaVuSans-6f" d="M 1959 3097 
Q 1497 3097 1228 2736 
Q 959 2375 959 1747 
Q 959 1119 1226 758 
Q 1494 397 1959 397 
Q 2419 397 2687 759 
Q 2956 1122 2956 1747 
Q 2956 2369 2687 2733 
Q 2419 3097 1959 3097 
z
M 1959 3584 
Q 2709 3584 3137 3096 
Q 3566 2609 3566 1747 
Q 3566 888 3137 398 
Q 2709 -91 1959 -91 
Q 1206 -91 779 398 
Q 353 888 353 1747 
Q 353 2609 779 3096 
Q 1206 3584 1959 3584 
z
" transform="scale(0.015625)"/>
      <path id="DejaVuSans-53" d="M 3425 4513 
L 3425 3897 
Q 3066 4069 2747 4153 
Q 2428 4238 2131 4238 
Q 1616 4238 1336 4038 
Q 1056 3838 1056 3469 
Q 1056 3159 1242 3001 
Q 1428 2844 1947 2747 
L 2328 2669 
Q 3034 2534 3370 2195 
Q 3706 1856 3706 1288 
Q 3706 609 3251 259 
Q 2797 -91 1919 -91 
Q 1588 -91 1214 -16 
Q 841 59 441 206 
L 441 856 
Q 825 641 1194 531 
Q 1563 422 1919 422 
Q 2459 422 2753 634 
Q 3047 847 3047 1241 
Q 3047 1584 2836 1778 
Q 2625 1972 2144 2069 
L 1759 2144 
Q 1053 2284 737 2584 
Q 422 2884 422 3419 
Q 422 4038 858 4394 
Q 1294 4750 2059 4750 
Q 2388 4750 2728 4690 
Q 3069 4631 3425 4513 
z
" transform="scale(0.015625)"/>
      <path id="DejaVuSans-70" d="M 1159 525 
L 1159 -1331 
L 581 -1331 
L 581 3500 
L 1159 3500 
L 1159 2969 
Q 1341 3281 1617 3432 
Q 1894 3584 2278 3584 
Q 2916 3584 3314 3078 
Q 3713 2572 3713 1747 
Q 3713 922 3314 415 
Q 2916 -91 2278 -91 
Q 1894 -91 1617 61 
Q 1341 213 1159 525 
z
M 3116 1747 
Q 3116 2381 2855 2742 
Q 2594 3103 2138 3103 
Q 1681 3103 1420 2742 
Q 1159 2381 1159 1747 
Q 1159 1113 1420 752 
Q 1681 391 2138 391 
Q 2594 391 2855 752 
Q 3116 1113 3116 1747 
z
" transform="scale(0.015625)"/>
     </defs>
     <use xlink:href="#DejaVuSans-45"/>
     <use xlink:href="#DejaVuSans-78" x="63.183594"/>
     <use xlink:href="#DejaVuSans-74" x="122.363281"/>
     <use xlink:href="#DejaVuSans-72" x="161.572266"/>
     <use xlink:href="#DejaVuSans-61" x="202.685547"/>
     <use xlink:href="#DejaVuSans-63" x="263.964844"/>
     <use xlink:href="#DejaVuSans-74" x="318.945312"/>
     <use xlink:href="#DejaVuSans-65" x="358.154297"/>
     <use xlink:href="#DejaVuSans-64" x="419.677734"/>
     <use xlink:href="#DejaVuSans-20" x="483.154297"/>
     <use xlink:href="#DejaVuSans-41" x="514.941406"/>
     <use xlink:href="#DejaVuSans-63" x="581.599609"/>
     <use xlink:href="#DejaVuSans-65" x="636.580078"/>
     <use xlink:href="#DejaVuSans-74" x="698.103516"/>
     <use xlink:href="#DejaVuSans-6f" x="737.3125"/>
     <use xlink:href="#DejaVuSans-6e" x="798.494141"/>
     <use xlink:href="#DejaVuSans-65" x="861.873047"/>
     <use xlink:href="#DejaVuSans-20" x="923.396484"/>
     <use xlink:href="#DejaVuSans-53" x="955.183594"/>
     <use xlink:href="#DejaVuSans-70" x="1018.660156"/>
     <use xlink:href="#DejaVuSans-65" x="1082.136719"/>
     <use xlink:href="#DejaVuSans-63" x="1143.660156"/>
     <use xlink:href="#DejaVuSans-74" x="1198.640625"/>
     <use xlink:href="#DejaVuSans-72" x="1237.849609"/>
     <use xlink:href="#DejaVuSans-75" x="1278.962891"/>
     <use xlink:href="#DejaVuSans-6d" x="1342.341797"/>
    </g>
   </g>
  </g>
  <g id="axes_2">
   <g id="patch_7">
    <path d="M 410.081676 354.958125 
L 714.445312 354.958125 
L 714.445312 22.318125 
L 410.081676 22.318125 
z
" style="fill: #ffffff"/>
   </g>
   <g id="matplotlib.axis_3">
    <g id="xtick_9">
     <g id="line2d_17">
      <g>
       <use xlink:href="#m47a0425c6d" x="712.533366" y="354.958125" style="stroke: #000000; stroke-width: 0.8"/>
      </g>
     </g>
     <g id="text_18">
      <!-- 500 -->
      <g transform="translate(702.989616 369.556562) scale(0.1 -0.1)">
       <use xlink:href="#DejaVuSans-35"/>
       <use xlink:href="#DejaVuSans-30" x="63.623047"/>
       <use xlink:href="#DejaVuSans-30" x="127.246094"/>
      </g>
     </g>
    </g>
    <g id="xtick_10">
     <g id="line2d_18">
      <g>
       <use xlink:href="#m47a0425c6d" x="671.303806" y="354.958125" style="stroke: #000000; stroke-width: 0.8"/>
      </g>
     </g>
     <g id="text_19">
      <!-- 1000 -->
      <g transform="translate(658.578806 369.556562) scale(0.1 -0.1)">
       <use xlink:href="#DejaVuSans-31"/>
       <use xlink:href="#DejaVuSans-30" x="63.623047"/>
       <use xlink:href="#DejaVuSans-30" x="127.246094"/>
       <use xlink:href="#DejaVuSans-30" x="190.869141"/>
      </g>
     </g>
    </g>
    <g id="xtick_11">
     <g id="line2d_19">
      <g>
       <use xlink:href="#m47a0425c6d" x="630.074246" y="354.958125" style="stroke: #000000; stroke-width: 0.8"/>
      </g>
     </g>
     <g id="text_20">
      <!-- 1500 -->
      <g transform="translate(617.349246 369.556562) scale(0.1 -0.1)">
       <use xlink:href="#DejaVuSans-31"/>
       <use xlink:href="#DejaVuSans-35" x="63.623047"/>
       <use xlink:href="#DejaVuSans-30" x="127.246094"/>
       <use xlink:href="#DejaVuSans-30" x="190.869141"/>
      </g>
     </g>
    </g>
    <g id="xtick_12">
     <g id="line2d_20">
      <g>
       <use xlink:href="#m47a0425c6d" x="588.844686" y="354.958125" style="stroke: #000000; stroke-width: 0.8"/>
      </g>
     </g>
     <g id="text_21">
      <!-- 2000 -->
      <g transform="translate(576.119686 369.556562) scale(0.1 -0.1)">
       <use xlink:href="#DejaVuSans-32"/>
       <use xlink:href="#DejaVuSans-30" x="63.623047"/>
       <use xlink:href="#DejaVuSans-30" x="127.246094"/>
       <use xlink:href="#DejaVuSans-30" x="190.869141"/>
      </g>
     </g>
    </g>
    <g id="xtick_13">
     <g id="line2d_21">
      <g>
       <use xlink:href="#m47a0425c6d" x="547.615126" y="354.958125" style="stroke: #000000; stroke-width: 0.8"/>
      </g>
     </g>
     <g id="text_22">
      <!-- 2500 -->
      <g transform="translate(534.890126 369.556562) scale(0.1 -0.1)">
       <use xlink:href="#DejaVuSans-32"/>
       <use xlink:href="#DejaVuSans-35" x="63.623047"/>
       <use xlink:href="#DejaVuSans-30" x="127.246094"/>
       <use xlink:href="#DejaVuSans-30" x="190.869141"/>
      </g>
     </g>
    </g>
    <g id="xtick_14">
     <g id="line2d_22">
      <g>
       <use xlink:href="#m47a0425c6d" x="506.385567" y="354.958125" style="stroke: #000000; stroke-width: 0.8"/>
      </g>
     </g>
     <g id="text_23">
      <!-- 3000 -->
      <g transform="translate(493.660567 369.556562) scale(0.1 -0.1)">
       <use xlink:href="#DejaVuSans-33"/>
       <use xlink:href="#DejaVuSans-30" x="63.623047"/>
       <use xlink:href="#DejaVuSans-30" x="127.246094"/>
       <use xlink:href="#DejaVuSans-30" x="190.869141"/>
      </g>
     </g>
    </g>
    <g id="xtick_15">
     <g id="line2d_23">
      <g>
       <use xlink:href="#m47a0425c6d" x="465.156007" y="354.958125" style="stroke: #000000; stroke-width: 0.8"/>
      </g>
     </g>
     <g id="text_24">
      <!-- 3500 -->
      <g transform="translate(452.431007 369.556562) scale(0.1 -0.1)">
       <use xlink:href="#DejaVuSans-33"/>
       <use xlink:href="#DejaVuSans-35" x="63.623047"/>
       <use xlink:href="#DejaVuSans-30" x="127.246094"/>
       <use xlink:href="#DejaVuSans-30" x="190.869141"/>
      </g>
     </g>
    </g>
    <g id="xtick_16">
     <g id="line2d_24">
      <g>
       <use xlink:href="#m47a0425c6d" x="423.926447" y="354.958125" style="stroke: #000000; stroke-width: 0.8"/>
      </g>
     </g>
     <g id="text_25">
      <!-- 4000 -->
      <g transform="translate(411.201447 369.556562) scale(0.1 -0.1)">
       <use xlink:href="#DejaVuSans-34"/>
       <use xlink:href="#DejaVuSans-30" x="63.623047"/>
       <use xlink:href="#DejaVuSans-30" x="127.246094"/>
       <use xlink:href="#DejaVuSans-30" x="190.869141"/>
      </g>
     </g>
    </g>
    <g id="text_26">
     <!-- Wavenumbers, cm$^{-1}$ -->
     <g transform="translate(509.913494 383.756562) scale(0.1 -0.1)">
      <use xlink:href="#DejaVuSans-57" transform="translate(0 0.684375)"/>
      <use xlink:href="#DejaVuSans-61" transform="translate(98.876953 0.684375)"/>
      <use xlink:href="#DejaVuSans-76" transform="translate(160.15625 0.684375)"/>
      <use xlink:href="#DejaVuSans-65" transform="translate(219.335938 0.684375)"/>
      <use xlink:href="#DejaVuSans-6e" transform="translate(280.859375 0.684375)"/>
      <use xlink:href="#DejaVuSans-75" transform="translate(344.238281 0.684375)"/>
      <use xlink:href="#DejaVuSans-6d" transform="translate(407.617188 0.684375)"/>
      <use xlink:href="#DejaVuSans-62" transform="translate(505.029297 0.684375)"/>
      <use xlink:href="#DejaVuSans-65" transform="translate(568.505859 0.684375)"/>
      <use xlink:href="#DejaVuSans-72" transform="translate(630.029297 0.684375)"/>
      <use xlink:href="#DejaVuSans-73" transform="translate(671.142578 0.684375)"/>
      <use xlink:href="#DejaVuSans-2c" transform="translate(723.242188 0.684375)"/>
      <use xlink:href="#DejaVuSans-20" transform="translate(755.029297 0.684375)"/>
      <use xlink:href="#DejaVuSans-63" transform="translate(786.816406 0.684375)"/>
      <use xlink:href="#DejaVuSans-6d" transform="translate(841.796875 0.684375)"/>
      <use xlink:href="#DejaVuSans-2212" transform="translate(940.166016 38.965625) scale(0.7)"/>
      <use xlink:href="#DejaVuSans-31" transform="translate(998.818359 38.965625) scale(0.7)"/>
     </g>
    </g>
   </g>
   <g id="matplotlib.axis_4">
    <g id="ytick_8">
     <g id="line2d_25">
      <g>
       <use xlink:href="#mc0cc385ff1" x="410.081676" y="310.348662" style="stroke: #000000; stroke-width: 0.8"/>
      </g>
     </g>
     <g id="text_27">
      <!-- 70 -->
      <g transform="translate(390.356676 314.147881) scale(0.1 -0.1)">
       <defs>
        <path id="DejaVuSans-37" d="M 525 4666 
L 3525 4666 
L 3525 4397 
L 1831 0 
L 1172 0 
L 2766 4134 
L 525 4134 
L 525 4666 
z
" transform="scale(0.015625)"/>
       </defs>
       <use xlink:href="#DejaVuSans-37"/>
       <use xlink:href="#DejaVuSans-30" x="63.623047"/>
      </g>
     </g>
    </g>
    <g id="ytick_9">
     <g id="line2d_26">
      <g>
       <use xlink:href="#mc0cc385ff1" x="410.081676" y="264.268929" style="stroke: #000000; stroke-width: 0.8"/>
      </g>
     </g>
     <g id="text_28">
      <!-- 75 -->
      <g transform="translate(390.356676 268.068148) scale(0.1 -0.1)">
       <use xlink:href="#DejaVuSans-37"/>
       <use xlink:href="#DejaVuSans-35" x="63.623047"/>
      </g>
     </g>
    </g>
    <g id="ytick_10">
     <g id="line2d_27">
      <g>
       <use xlink:href="#mc0cc385ff1" x="410.081676" y="218.189196" style="stroke: #000000; stroke-width: 0.8"/>
      </g>
     </g>
     <g id="text_29">
      <!-- 80 -->
      <g transform="translate(390.356676 221.988415) scale(0.1 -0.1)">
       <use xlink:href="#DejaVuSans-38"/>
       <use xlink:href="#DejaVuSans-30" x="63.623047"/>
      </g>
     </g>
    </g>
    <g id="ytick_11">
     <g id="line2d_28">
      <g>
       <use xlink:href="#mc0cc385ff1" x="410.081676" y="172.109463" style="stroke: #000000; stroke-width: 0.8"/>
      </g>
     </g>
     <g id="text_30">
      <!-- 85 -->
      <g transform="translate(390.356676 175.908682) scale(0.1 -0.1)">
       <use xlink:href="#DejaVuSans-38"/>
       <use xlink:href="#DejaVuSans-35" x="63.623047"/>
      </g>
     </g>
    </g>
    <g id="ytick_12">
     <g id="line2d_29">
      <g>
       <use xlink:href="#mc0cc385ff1" x="410.081676" y="126.02973" style="stroke: #000000; stroke-width: 0.8"/>
      </g>
     </g>
     <g id="text_31">
      <!-- 90 -->
      <g transform="translate(390.356676 129.828949) scale(0.1 -0.1)">
       <defs>
        <path id="DejaVuSans-39" d="M 703 97 
L 703 672 
Q 941 559 1184 500 
Q 1428 441 1663 441 
Q 2288 441 2617 861 
Q 2947 1281 2994 2138 
Q 2813 1869 2534 1725 
Q 2256 1581 1919 1581 
Q 1219 1581 811 2004 
Q 403 2428 403 3163 
Q 403 3881 828 4315 
Q 1253 4750 1959 4750 
Q 2769 4750 3195 4129 
Q 3622 3509 3622 2328 
Q 3622 1225 3098 567 
Q 2575 -91 1691 -91 
Q 1453 -91 1209 -44 
Q 966 3 703 97 
z
M 1959 2075 
Q 2384 2075 2632 2365 
Q 2881 2656 2881 3163 
Q 2881 3666 2632 3958 
Q 2384 4250 1959 4250 
Q 1534 4250 1286 3958 
Q 1038 3666 1038 3163 
Q 1038 2656 1286 2365 
Q 1534 2075 1959 2075 
z
" transform="scale(0.015625)"/>
       </defs>
       <use xlink:href="#DejaVuSans-39"/>
       <use xlink:href="#DejaVuSans-30" x="63.623047"/>
      </g>
     </g>
    </g>
    <g id="ytick_13">
     <g id="line2d_30">
      <g>
       <use xlink:href="#mc0cc385ff1" x="410.081676" y="79.949997" style="stroke: #000000; stroke-width: 0.8"/>
      </g>
     </g>
     <g id="text_32">
      <!-- 95 -->
      <g transform="translate(390.356676 83.749215) scale(0.1 -0.1)">
       <use xlink:href="#DejaVuSans-39"/>
       <use xlink:href="#DejaVuSans-35" x="63.623047"/>
      </g>
     </g>
    </g>
    <g id="ytick_14">
     <g id="line2d_31">
      <g>
       <use xlink:href="#mc0cc385ff1" x="410.081676" y="33.870263" style="stroke: #000000; stroke-width: 0.8"/>
      </g>
     </g>
     <g id="text_33">
      <!-- 100 -->
      <g transform="translate(383.994176 37.669482) scale(0.1 -0.1)">
       <use xlink:href="#DejaVuSans-31"/>
       <use xlink:href="#DejaVuSans-30" x="63.623047"/>
       <use xlink:href="#DejaVuSans-30" x="127.246094"/>
      </g>
     </g>
    </g>
    <g id="text_34">
     <!-- Transmittance, % -->
     <g transform="translate(377.914489 232.014687) rotate(-90) scale(0.1 -0.1)">
      <defs>
       <path id="DejaVuSans-54" d="M -19 4666 
L 3928 4666 
L 3928 4134 
L 2272 4134 
L 2272 0 
L 1638 0 
L 1638 4134 
L -19 4134 
L -19 4666 
z
" transform="scale(0.015625)"/>
       <path id="DejaVuSans-69" d="M 603 3500 
L 1178 3500 
L 1178 0 
L 603 0 
L 603 3500 
z
M 603 4863 
L 1178 4863 
L 1178 4134 
L 603 4134 
L 603 4863 
z
" transform="scale(0.015625)"/>
       <path id="DejaVuSans-25" d="M 4653 2053 
Q 4381 2053 4226 1822 
Q 4072 1591 4072 1178 
Q 4072 772 4226 539 
Q 4381 306 4653 306 
Q 4919 306 5073 539 
Q 5228 772 5228 1178 
Q 5228 1588 5073 1820 
Q 4919 2053 4653 2053 
z
M 4653 2450 
Q 5147 2450 5437 2106 
Q 5728 1763 5728 1178 
Q 5728 594 5436 251 
Q 5144 -91 4653 -91 
Q 4153 -91 3862 251 
Q 3572 594 3572 1178 
Q 3572 1766 3864 2108 
Q 4156 2450 4653 2450 
z
M 1428 4353 
Q 1159 4353 1004 4120 
Q 850 3888 850 3481 
Q 850 3069 1003 2837 
Q 1156 2606 1428 2606 
Q 1700 2606 1854 2837 
Q 2009 3069 2009 3481 
Q 2009 3884 1853 4118 
Q 1697 4353 1428 4353 
z
M 4250 4750 
L 4750 4750 
L 1831 -91 
L 1331 -91 
L 4250 4750 
z
M 1428 4750 
Q 1922 4750 2215 4408 
Q 2509 4066 2509 3481 
Q 2509 2891 2217 2550 
Q 1925 2209 1428 2209 
Q 931 2209 642 2551 
Q 353 2894 353 3481 
Q 353 4063 643 4406 
Q 934 4750 1428 4750 
z
" transform="scale(0.015625)"/>
      </defs>
      <use xlink:href="#DejaVuSans-54"/>
      <use xlink:href="#DejaVuSans-72" x="46.333984"/>
      <use xlink:href="#DejaVuSans-61" x="87.447266"/>
      <use xlink:href="#DejaVuSans-6e" x="148.726562"/>
      <use xlink:href="#DejaVuSans-73" x="212.105469"/>
      <use xlink:href="#DejaVuSans-6d" x="264.205078"/>
      <use xlink:href="#DejaVuSans-69" x="361.617188"/>
      <use xlink:href="#DejaVuSans-74" x="389.400391"/>
      <use xlink:href="#DejaVuSans-74" x="428.609375"/>
      <use xlink:href="#DejaVuSans-61" x="467.818359"/>
      <use xlink:href="#DejaVuSans-6e" x="529.097656"/>
      <use xlink:href="#DejaVuSans-63" x="592.476562"/>
      <use xlink:href="#DejaVuSans-65" x="647.457031"/>
      <use xlink:href="#DejaVuSans-2c" x="708.980469"/>
      <use xlink:href="#DejaVuSans-20" x="740.767578"/>
      <use xlink:href="#DejaVuSans-25" x="772.554688"/>
     </g>
    </g>
   </g>
   <g id="line2d_32">
    <path d="M 700.610602 59.293742 
L 700.21305 62.178795 
L 700.133543 61.890335 
L 699.815498 60.333301 
L 699.656484 60.564621 
L 699.61673 60.533287 
L 699.417954 60.047607 
L 699.378201 60.123823 
L 699.099909 61.199416 
L 699.060156 61.156285 
L 698.940895 61.061085 
L 698.901142 61.120527 
L 698.702366 61.779836 
L 698.62285 61.596531 
L 698.304814 60.336895 
L 698.185553 60.40067 
L 697.986777 60.917224 
L 697.867508 61.169648 
L 697.827755 61.14753 
L 697.708494 60.623972 
L 697.509718 59.613904 
L 697.469965 59.643764 
L 697.271189 60.059864 
L 697.231435 60.035626 
L 696.91339 59.744034 
L 696.79413 59.660537 
L 696.5556 59.296784 
L 696.356824 59.636484 
L 696.317071 59.556673 
L 695.999026 58.144053 
L 695.919519 58.233448 
L 695.680989 58.475274 
L 695.283438 58.480159 
L 694.885894 59.196146 
L 694.84614 59.135044 
L 694.607611 58.620241 
L 694.567849 58.69701 
L 694.369081 59.082052 
L 693.693246 58.604482 
L 693.375202 58.499144 
L 693.255941 58.533888 
L 693.136672 58.576465 
L 692.858389 57.965356 
L 692.778882 58.081569 
L 692.659613 58.182484 
L 692.61986 58.145528 
L 692.421084 57.987935 
L 692.02354 58.313627 
L 691.625988 57.991161 
L 691.307951 57.697725 
L 691.148929 58.037793 
L 690.9104 58.487439 
L 690.632116 58.737007 
L 690.393587 59.266555 
L 690.115304 60.261785 
L 689.518976 63.954892 
L 689.121424 66.412693 
L 689.041917 66.363111 
L 688.882895 65.608693 
L 688.564858 62.827874 
L 688.127553 58.891098 
L 687.769763 57.736432 
L 687.372211 57.195824 
L 687.133681 56.993258 
L 686.934905 56.740741 
L 686.577115 56.941556 
L 686.378339 56.854742 
L 686.100056 56.947455 
L 685.782011 56.70231 
L 685.424221 56.831518 
L 685.145938 56.711711 
L 684.867655 56.842761 
L 684.748386 56.877598 
L 684.470103 57.264575 
L 684.152067 57.028371 
L 683.356963 57.723714 
L 683.197949 57.867575 
L 682.959419 58.024983 
L 682.84015 58.166356 
L 681.249951 62.188287 
L 680.852407 65.0832 
L 680.494609 68.630418 
L 679.977796 76.142428 
L 679.540491 81.079687 
L 679.42123 81.296631 
L 679.301961 80.90182 
L 679.063432 78.793211 
L 677.870784 65.734583 
L 677.353972 62.70226 
L 676.996182 61.323463 
L 675.803534 58.613698 
L 674.88917 57.535801 
L 674.65064 57.51783 
L 674.253088 57.488154 
L 673.815783 57.434517 
L 673.577253 57.779009 
L 672.901418 58.506608 
L 672.702651 58.492139 
L 671.58951 57.911811 
L 670.794456 58.037793 
L 670.396838 58.202574 
L 670.118621 58.590474 
L 669.919812 58.741615 
L 669.562022 58.761061 
L 669.204232 59.0333 
L 668.925932 59.481195 
L 668.687378 59.698138 
L 668.488652 59.83564 
L 667.892307 60.373944 
L 667.693498 60.60296 
L 667.097236 61.439031 
L 666.779192 61.906187 
L 666.222593 63.347745 
L 665.944293 63.726705 
L 665.308203 65.109281 
L 665.029986 66.985095 
L 664.711942 70.704282 
L 664.393897 77.884242 
L 663.996279 93.985975 
L 663.757807 100.615282 
L 663.718062 100.644128 
L 663.638571 99.571023 
L 663.439762 91.912572 
L 662.922908 72.380295 
L 662.565118 66.512133 
L 662.247074 63.781079 
L 661.610984 61.36346 
L 661.054467 60.085024 
L 660.696677 59.505801 
L 660.299142 59.13274 
L 660.060588 59.077997 
L 659.782288 59.019937 
L 659.503988 59.078919 
L 659.106453 59.420093 
L 658.271637 60.555774 
L 658.033083 61.062928 
L 657.158439 63.72182 
L 656.800649 65.371106 
L 656.323623 68.94929 
L 655.965833 73.427779 
L 655.568297 81.081991 
L 654.653908 107.402274 
L 654.335863 125.653166 
L 654.017818 156.902045 
L 653.660028 217.603338 
L 653.222747 288.054827 
L 653.183002 288.897533 
L 653.143257 288.349368 
L 653.023939 278.188787 
L 652.785467 228.456314 
L 652.268613 125.6563 
L 651.871078 88.626442 
L 651.513287 73.033982 
L 651.115752 65.043295 
L 650.757962 61.48124 
L 650.280853 58.906949 
L 649.843573 57.720304 
L 649.446037 57.39581 
L 648.968929 56.98865 
L 648.690712 56.827924 
L 648.173858 57.316185 
L 646.981252 60.166861 
L 646.384907 62.54135 
L 645.868054 65.705092 
L 645.152473 72.11976 
L 644.595957 78.630089 
L 644.158594 86.015011 
L 643.761058 96.48147 
L 643.363523 113.535026 
L 642.965987 142.091927 
L 642.568452 188.792538 
L 642.011853 255.590365 
L 641.813044 261.150345 
L 641.733553 261.42581 
L 641.693808 261.234579 
L 641.574572 258.889305 
L 641.415509 250.413767 
L 641.137209 220.034505 
L 640.381884 129.520177 
L 639.984348 107.376193 
L 639.586813 95.440989 
L 639.149532 88.671508 
L 638.910978 87.713971 
L 638.751914 87.730283 
L 638.632678 88.047865 
L 638.354379 89.865157 
L 638.115907 92.576489 
L 637.678544 101.518906 
L 636.764237 121.732057 
L 636.684664 121.634276 
L 636.525683 120.706323 
L 636.247383 117.282598 
L 635.889593 113.978497 
L 635.690784 113.32223 
L 635.571548 113.427568 
L 635.452312 113.558066 
L 635.412567 113.490236 
L 635.293249 112.550394 
L 634.855968 105.480841 
L 633.345317 73.709695 
L 632.629654 65.874666 
L 632.351437 64.432186 
L 631.914074 61.256923 
L 631.516539 59.769101 
L 630.920277 58.267362 
L 630.602232 56.918885 
L 630.244359 56.72406 
L 629.886569 55.815552 
L 629.846824 55.866793 
L 629.568607 56.732447 
L 629.489034 56.554487 
L 629.170989 55.655655 
L 628.932517 55.629943 
L 628.375918 56.254508 
L 627.938637 55.601005 
L 627.660338 55.356967 
L 627.620593 55.409313 
L 627.382038 55.952593 
L 627.302548 55.854167 
L 627.103739 55.494745 
L 626.984503 55.850849 
L 626.825439 56.404912 
L 626.785694 56.392009 
L 626.149687 55.354386 
L 625.831642 55.22739 
L 625.513597 55.598148 
L 625.354534 56.448227 
L 625.235298 56.890961 
L 625.195552 56.75779 
L 624.837762 55.254024 
L 624.678699 55.236514 
L 624.479972 55.599254 
L 624.360654 55.695929 
L 623.883628 54.998743 
L 623.327029 54.525043 
L 623.128302 54.301741 
L 622.929493 54.181749 
L 622.651194 53.756802 
L 622.372894 53.30181 
L 621.776632 53.110395 
L 621.259779 53.491843 
L 621.061052 53.52373 
L 620.941734 53.577552 
L 620.743007 54.011623 
L 620.464708 54.861333 
L 620.424962 54.810553 
L 620.265899 54.658582 
L 620.146663 54.967224 
L 619.788873 56.154515 
L 619.669554 56.315517 
L 619.431083 56.645264 
L 619.311764 56.810874 
L 619.113038 57.690813 
L 618.874484 58.721709 
L 618.715502 58.702539 
L 618.397458 59.378437 
L 617.920349 61.23886 
L 617.880604 61.228815 
L 617.801113 61.313878 
L 617.642132 62.13207 
L 617.443323 62.896901 
L 617.244514 62.63609 
L 617.204769 62.681801 
L 617.045788 63.274386 
L 616.807233 64.888191 
L 616.330207 69.924613 
L 615.853099 79.730473 
L 615.535054 84.524608 
L 615.256837 86.014366 
L 615.018283 90.391111 
L 614.58092 102.066702 
L 614.223212 121.202509 
L 613.944913 147.915852 
L 613.547295 214.806483 
L 612.990778 324.971329 
L 612.752224 339.838125 
L 612.712479 339.711867 
L 612.593243 335.450505 
L 612.394434 313.501346 
L 612.116134 255.132701 
L 611.678853 170.504782 
L 611.281318 126.882205 
L 610.923528 108.342485 
L 610.525992 99.514714 
L 610.128375 96.046938 
L 610.048884 95.972749 
L 610.009139 96.029427 
L 609.611603 96.883008 
L 609.571858 96.8114 
L 609.452622 95.785481 
L 609.253813 90.788042 
L 608.458742 67.837294 
L 608.061124 61.673761 
L 607.425035 55.662659 
L 607.107072 53.982039 
L 606.311919 52.67743 
L 606.113193 52.779635 
L 606.073447 52.69706 
L 604.32416 46.902534 
L 603.449598 45.435723 
L 603.250789 45.41038 
L 602.495464 44.331008 
L 602.25691 44.481504 
L 602.217164 44.417822 
L 602.018438 44.155076 
L 601.859374 44.483901 
L 601.700393 44.724805 
L 601.223284 43.798695 
L 600.945067 43.321677 
L 600.825749 43.279192 
L 600.547449 43.436324 
L 600.26915 43.232006 
L 600.149914 43.192009 
L 599.990933 43.546823 
L 599.792124 43.982737 
L 599.752379 43.95767 
L 599.474079 43.258548 
L 599.19578 42.714992 
L 598.997053 42.944745 
L 598.718754 43.210902 
L 598.599518 43.393009 
L 598.440454 43.61198 
L 598.241728 43.474754 
L 597.923683 43.830029 
L 596.929803 43.090173 
L 596.691249 42.855627 
L 596.572013 43.019302 
L 596.293713 43.746256 
L 596.214223 43.674556 
L 596.015414 43.532723 
L 595.578133 43.773996 
L 595.379324 43.6188 
L 595.061279 43.823025 
L 594.743235 43.504891 
L 594.584253 43.446738 
L 594.305954 43.312922 
L 593.272329 43.967255 
L 593.07352 43.946427 
L 592.914539 44.228342 
L 592.675984 44.632369 
L 592.437513 44.599008 
L 592.238704 44.191755 
L 592.198958 44.224195 
L 592.000149 44.831987 
L 591.801423 45.461528 
L 591.761678 45.421807 
L 591.483378 44.593755 
L 591.403888 44.684992 
L 591.085843 45.3549 
L 590.966524 45.389091 
L 590.807543 45.489268 
L 590.568989 45.251865 
L 590.529244 45.296563 
L 590.330435 45.458763 
L 590.171454 45.178599 
L 589.853409 44.55431 
L 589.813663 44.576429 
L 589.6546 45.213527 
L 589.535364 45.478762 
L 589.495619 45.44199 
L 589.29681 45.285872 
L 589.018593 45.32034 
L 588.859529 45.447704 
L 588.620975 45.963336 
L 588.581229 45.946195 
L 588.104203 45.629996 
L 587.865649 45.834405 
L 587.547604 45.3067 
L 587.269305 44.954375 
L 587.22956 44.992897 
L 586.991088 45.445492 
L 586.95126 45.414066 
L 586.712788 45.252971 
L 586.315253 45.34126 
L 586.156189 45.636631 
L 586.116444 45.616264 
L 585.798399 44.997782 
L 585.718908 45.063307 
L 585.559845 45.133625 
L 585.400864 44.735957 
L 585.2418 44.534035 
L 585.082819 44.511548 
L 584.923755 44.524266 
L 584.645538 44.848668 
L 584.287748 44.668772 
L 583.373359 43.704508 
L 582.737269 43.997575 
L 582.578288 43.923663 
L 582.419224 43.878966 
L 582.18067 43.953062 
L 581.942198 43.879242 
L 581.624153 44.087615 
L 581.504918 44.122082 
L 581.306109 44.278385 
L 581.027809 44.009003 
L 580.829 44.473671 
L 580.670019 44.657252 
L 580.272484 44.565185 
L 580.073675 44.652737 
L 579.914693 44.616057 
L 579.278604 45.216845 
L 578.881068 44.938523 
L 578.244979 45.436369 
L 578.006425 45.074458 
L 577.966679 45.142841 
L 577.529399 46.037433 
L 577.370335 46.14913 
L 577.171608 46.307091 
L 576.893309 46.097428 
L 576.734328 45.986192 
L 576.456028 46.223226 
L 576.217474 46.200647 
L 576.05841 46.522744 
L 575.97892 46.666697 
L 575.939174 46.64034 
L 575.70062 45.730265 
L 575.581384 45.935228 
L 575.462148 46.109225 
L 575.422403 46.058906 
L 575.263339 45.330293 
L 575.064531 44.629236 
L 574.945295 44.84194 
L 574.786313 45.133901 
L 574.746568 45.112336 
L 574.547759 44.572097 
L 574.309205 44.244931 
L 574.189969 44.414504 
L 573.99116 44.847009 
L 573.951415 44.815398 
L 573.712943 44.656331 
L 573.593625 44.527953 
L 573.394898 44.246682 
L 573.355153 44.273316 
L 572.91779 44.680937 
L 572.440764 44.286218 
L 572.122719 44.054253 
L 572.003401 44.00633 
L 571.645693 44.333312 
L 571.367393 44.338934 
L 571.168584 44.677067 
L 571.128839 44.625089 
L 570.85054 43.992967 
L 570.810794 44.045221 
L 570.532495 44.51717 
L 570.49275 44.478924 
L 570.134959 44.087062 
L 569.816915 44.332575 
L 569.49887 44.167241 
L 569.300143 44.371927 
L 569.14108 44.378562 
L 568.823035 44.095356 
L 568.624308 44.057479 
L 568.425499 44.043747 
L 567.908646 44.50353 
L 567.749664 44.56666 
L 567.352129 44.323635 
L 567.193148 44.324465 
L 566.636549 43.953338 
L 566.43774 43.998865 
L 566.199268 43.947993 
L 565.80165 43.410058 
L 565.563178 42.950367 
L 565.523351 42.971932 
L 565.165561 43.394207 
L 565.125815 43.365177 
L 564.72828 42.941059 
L 564.569299 42.914333 
L 564.211509 43.064737 
L 563.853718 43.051927 
L 563.65491 43.112476 
L 563.09831 43.631241 
L 562.820093 43.96578 
L 562.66103 43.983751 
L 562.342985 44.215532 
L 562.184004 44.276357 
L 561.547914 45.004233 
L 561.349105 45.062385 
L 560.713015 45.289006 
L 560.474544 45.021098 
L 560.275735 44.210832 
L 560.076926 43.696951 
L 559.95769 44.023195 
L 559.560155 45.332966 
L 559.281855 45.757268 
L 558.645765 45.896613 
L 558.526529 45.692019 
L 557.89044 43.376973 
L 557.572395 42.3846 
L 556.976051 41.713034 
L 556.618261 41.746672 
L 556.141235 41.492404 
L 555.862935 41.665019 
L 555.346164 41.588895 
L 554.82931 41.747041 
L 554.511265 41.559036 
L 554.19322 41.883068 
L 554.153475 41.835237 
L 553.83543 41.315919 
L 553.795685 41.343475 
L 553.358404 41.695339 
L 553.159595 41.627694 
L 552.921041 41.681239 
L 552.642824 41.436463 
L 551.966989 41.599494 
L 551.728435 41.610368 
L 550.655064 41.843624 
L 550.41651 41.952741 
L 550.217701 41.795609 
L 550.018975 41.733033 
L 549.859994 41.652393 
L 549.621439 41.415359 
L 549.303394 41.759667 
L 549.263649 41.716628 
L 549.104586 41.64373 
L 548.746795 41.971726 
L 548.70705 41.922144 
L 548.468578 41.567791 
L 548.428751 41.596176 
L 548.190279 41.834132 
L 547.911979 41.554151 
L 547.872234 41.608433 
L 547.63368 41.909426 
L 546.878354 41.585577 
L 545.963965 41.985918 
L 545.725411 41.694602 
L 545.685666 41.721144 
L 545.407448 41.856065 
L 545.168894 41.909057 
L 545.049576 41.860581 
L 544.771359 41.378403 
L 544.691786 41.464849 
L 544.493059 41.6817 
L 544.175014 41.619031 
L 543.896715 41.680041 
L 542.982326 41.595162 
L 542.624536 41.901131 
L 542.386064 42.017068 
L 542.107764 42.180098 
L 541.829465 42.317692 
L 541.471675 42.640896 
L 541.034394 42.655641 
L 540.79584 42.788259 
L 540.557285 42.48192 
L 540.040514 41.824823 
L 539.285106 41.684649 
L 539.08638 41.761879 
L 538.529781 41.125517 
L 538.291309 41.291036 
L 537.973264 41.375915 
L 537.297429 41.292971 
L 536.979384 41.396927 
L 535.866269 41.021562 
L 535.349415 41.126347 
L 535.03137 41.078055 
L 534.276044 40.857702 
L 534.03749 40.849408 
L 533.798936 40.836413 
L 533.60021 40.792637 
L 533.32191 40.930508 
L 532.924375 40.757432 
L 532.646075 40.73854 
L 532.24854 40.669789 
L 532.009985 40.646288 
L 531.691941 40.653108 
L 531.294405 40.622788 
L 530.97636 40.305206 
L 530.499334 40.455057 
L 530.300525 40.372206 
L 529.783754 40.379763 
L 529.346391 40.368888 
L 529.068174 40.432755 
L 528.789874 40.520398 
L 528.55132 40.552101 
L 528.312766 40.550995 
L 527.795995 40.891801 
L 527.47795 40.775864 
L 527.159905 41.093538 
L 526.722624 40.969399 
L 526.444325 41.106717 
L 526.20577 41.156944 
L 525.76849 41.569542 
L 525.529936 41.567883 
L 524.734865 42.105173 
L 524.297584 42.213183 
L 524.05903 42.285805 
L 523.899966 42.24931 
L 523.542176 42.047942 
L 523.303704 42.035869 
L 522.906086 41.86436 
L 522.588041 41.953478 
L 522.111015 41.831182 
L 521.872461 42.036145 
L 521.71348 42.043241 
L 521.474926 41.924356 
L 521.196626 42.019741 
L 520.918409 42.066558 
L 520.600364 42.150607 
L 520.322065 42.15798 
L 519.606485 43.144823 
L 518.93065 43.143718 
L 517.817452 43.33117 
L 517.57898 43.216155 
L 517.260935 43.249517 
L 517.062126 43.238642 
L 516.744081 43.485537 
L 516.505609 43.596497 
L 516.187565 43.722755 
L 515.909265 43.683127 
L 514.319041 45.783349 
L 513.603461 47.947898 
L 513.046862 49.329184 
L 512.689154 49.793392 
L 512.410854 49.743349 
L 512.251791 49.659023 
L 511.695274 48.777057 
L 511.655446 48.813552 
L 511.45672 48.947276 
L 510.939866 48.530991 
L 510.502586 49.116388 
L 509.787005 50.366531 
L 509.270152 51.331902 
L 509.071425 51.965406 
L 508.912361 52.548499 
L 508.872616 52.536703 
L 508.75338 52.076919 
L 508.3161 50.209215 
L 508.117291 50.101942 
L 507.958309 50.280823 
L 507.520946 51.289232 
L 507.083666 53.833663 
L 506.725875 56.587019 
L 506.169276 60.746636 
L 506.089786 60.769861 
L 506.05004 60.722306 
L 505.890977 60.175156 
L 505.61276 57.868588 
L 504.738116 50.357868 
L 504.141771 48.129453 
L 503.704491 47.040681 
L 502.511885 44.794017 
L 501.83605 44.448972 
L 501.676986 44.478094 
L 501.239705 43.993796 
L 500.722851 43.579908 
L 500.365061 43.90901 
L 500.325316 43.838508 
L 499.967526 43.15579 
L 499.768799 43.359555 
L 499.569991 43.453189 
L 498.973646 42.804386 
L 498.456875 42.643107 
L 498.297811 42.611404 
L 497.542486 41.919656 
L 497.14495 41.769712 
L 496.906396 41.756072 
L 496.588351 41.529729 
L 496.349797 41.276198 
L 495.992089 41.274816 
L 495.395745 41.153718 
L 495.157191 41.016124 
L 494.958382 40.902768 
L 494.600592 40.980182 
L 494.203056 40.602236 
L 493.72603 40.928204 
L 493.487476 40.834017 
L 493.36824 40.762593 
L 493.089941 40.32244 
L 493.050195 40.376353 
L 492.811641 40.671079 
L 492.334615 40.311749 
L 492.01657 40.466116 
L 491.817761 40.246408 
L 491.499716 39.996195 
L 491.380481 40.092041 
L 491.102181 40.469895 
L 490.784136 40.371284 
L 490.58541 40.570349 
L 489.909575 39.587376 
L 489.830002 39.708566 
L 489.59153 40.235533 
L 489.551785 40.220235 
L 489.193912 39.930301 
L 488.95544 40.075729 
L 488.59765 39.629585 
L 488.51816 39.729117 
L 488.279605 40.005135 
L 488.001306 39.96781 
L 487.404962 39.879337 
L 487.206235 39.68912 
L 487.047171 40.004398 
L 486.808617 40.376537 
L 486.450909 40.350088 
L 485.973801 39.84275 
L 485.576266 39.936199 
L 485.297966 40.085314 
L 484.82094 39.789389 
L 484.105277 39.792062 
L 483.946296 39.817406 
L 483.707742 39.744508 
L 483.429525 40.015272 
L 483.071735 39.533739 
L 483.031907 39.558622 
L 482.872926 39.540835 
L 482.674117 39.497428 
L 482.435645 39.540743 
L 481.839301 39.388496 
L 481.640492 39.482498 
L 481.322447 39.340296 
L 481.04423 39.656956 
L 480.845421 39.712805 
L 480.68644 39.45015 
L 480.527376 39.194224 
L 480.487631 39.22436 
L 480.129841 39.692806 
L 479.851541 39.505538 
L 479.69256 39.304354 
L 479.652732 39.32638 
L 479.295025 39.642303 
L 479.175706 39.697046 
L 478.97698 39.845975 
L 478.380635 39.464896 
L 478.261317 39.439644 
L 478.022845 39.180031 
L 477.9831 39.215881 
L 477.744546 39.345642 
L 477.466246 39.329606 
L 477.227692 39.337992 
L 476.90973 39.2474 
L 476.551857 39.351908 
L 476.392876 39.317717 
L 475.955595 39.878784 
L 475.796532 39.638709 
L 475.557977 39.354212 
L 475.200187 39.646266 
L 475.001461 39.704234 
L 474.603925 39.57346 
L 473.649791 40.897146 
L 473.331746 41.507518 
L 473.053446 41.936152 
L 472.775147 42.581821 
L 472.536675 42.960044 
L 472.337866 42.877561 
L 471.900586 42.118904 
L 471.542795 40.855398 
L 470.588661 40.361331 
L 470.389852 40.358198 
L 470.191126 40.399762 
L 469.992317 40.72573 
L 469.753845 41.05778 
L 469.594781 40.860282 
L 469.356227 40.609056 
L 468.481666 41.12948 
L 468.203366 41.068931 
L 468.044385 41.088193 
L 467.845576 41.258135 
L 467.527531 40.838072 
L 467.487786 40.898805 
L 467.09025 41.504293 
L 466.891441 41.227261 
L 466.533651 40.938802 
L 466.37467 41.00359 
L 466.096371 41.113352 
L 465.897562 41.175836 
L 465.579517 41.6241 
L 465.539771 41.56051 
L 465.261472 41.080175 
L 465.221727 41.110403 
L 464.863937 41.736811 
L 464.784446 41.652393 
L 464.466401 41.328453 
L 464.307337 41.516181 
L 463.989375 42.04103 
L 463.512267 41.842979 
L 463.035241 41.850812 
L 462.836432 42.021307 
L 462.279915 41.659674 
L 462.001616 42.008221 
L 461.96187 41.954492 
L 461.60408 41.496459 
L 461.087226 41.478304 
L 460.848672 41.631012 
L 459.89462 41.904081 
L 459.536748 42.027298 
L 459.258531 42.058079 
L 459.099467 42.069507 
L 458.54295 41.668337 
L 458.383887 41.949792 
L 458.065842 42.494178 
L 457.82737 42.268387 
L 457.628561 42.070705 
L 457.310516 42.593157 
L 457.231026 42.49086 
L 456.992471 42.291703 
L 456.793662 42.242029 
L 456.555191 42.121485 
L 456.276891 42.187563 
L 456.11791 42.278156 
L 455.83961 42.738216 
L 455.799865 42.701629 
L 455.521566 42.36285 
L 455.322757 42.439619 
L 455.084202 42.077617 
L 455.004712 42.158902 
L 454.646922 42.574725 
L 454.527686 42.501182 
L 453.851851 41.131784 
L 453.653042 41.119527 
L 453.334997 41.627879 
L 453.096525 42.014488 
L 453.05678 41.972739 
L 452.301372 40.380869 
L 451.983327 39.920993 
L 451.705028 39.64304 
L 451.665365 39.678245 
L 451.307492 40.248528 
L 451.108766 40.545742 
L 450.949702 40.631266 
L 450.830466 40.738816 
L 450.790721 40.69716 
L 450.591912 39.89823 
L 450.114886 38.62689 
L 450.035396 38.619056 
L 449.876332 39.133306 
L 449.677605 39.733633 
L 449.637778 39.718242 
L 449.28007 38.988432 
L 448.882452 38.351517 
L 448.763216 38.458607 
L 448.524662 38.738219 
L 448.166872 38.398334 
L 448.127127 38.437134 
L 447.928318 38.963733 
L 447.809082 39.124459 
L 447.769336 39.071467 
L 447.530782 38.533256 
L 447.491037 38.553162 
L 447.29231 38.595371 
L 447.133247 38.469758 
L 446.974266 38.821254 
L 446.735711 39.151369 
L 446.57673 39.059394 
L 446.298431 38.898484 
L 446.099622 39.084093 
L 445.741832 39.404716 
L 445.503277 39.042253 
L 445.463532 39.118837 
L 445.105742 39.939425 
L 445.026251 39.813443 
L 444.827442 39.221964 
L 444.787697 39.265279 
L 444.588971 39.821092 
L 444.549143 39.758516 
L 444.231181 38.590303 
L 444.191435 38.633802 
L 443.992626 38.913045 
L 443.952881 38.87784 
L 443.634836 38.492337 
L 443.475773 38.421098 
L 443.237301 38.233553 
L 442.919256 38.298341 
L 442.680702 38.175216 
L 442.442147 37.945279 
L 442.044612 38.195584 
L 441.686822 37.838742 
L 441.408522 37.954587 
L 441.170051 37.909336 
L 440.812261 38.052736 
L 440.653197 38.097157 
L 440.494216 38.507175 
L 440.335152 38.914059 
L 440.295407 38.886135 
L 440.136426 38.270141 
L 439.977362 37.90777 
L 439.579827 38.603021 
L 439.420845 38.900419 
L 439.381018 38.857657 
L 439.142546 38.404878 
L 439.1028 38.447455 
L 438.74501 38.836645 
L 438.585947 38.812407 
L 438.267902 38.474827 
L 438.228157 38.521552 
L 438.029348 38.64652 
L 437.790876 38.444691 
L 437.512576 38.643018 
L 437.234277 38.246087 
L 437.194532 38.292996 
L 436.995723 38.531413 
L 436.955977 38.501184 
L 436.757251 37.981866 
L 436.637932 37.761973 
L 436.598187 37.778378 
L 436.478951 38.136602 
L 436.121161 39.363152 
L 436.041671 39.331449 
L 435.882607 38.495194 
L 435.683798 37.891642 
L 435.524817 38.278343 
L 435.365836 38.478421 
L 435.127281 38.12545 
L 435.087536 38.186829 
L 434.729746 39.00843 
L 434.689918 38.984837 
L 434.451446 38.568553 
L 434.371956 38.683292 
L 434.173147 38.994145 
L 433.457567 38.541642 
L 433.338331 38.458515 
L 433.060031 38.133468 
L 432.741986 38.206643 
L 432.463687 38.195123 
L 432.26496 38.524685 
L 431.986661 38.848441 
L 431.867343 38.789275 
L 431.668616 38.236318 
L 431.390317 37.718843 
L 431.191508 37.721976 
L 431.032526 38.027946 
L 430.793972 38.579796 
L 430.634991 38.397689 
L 430.237373 37.874869 
L 430.197628 37.908691 
L 429.839838 38.155402 
L 429.720602 38.040295 
L 429.521793 37.835977 
L 429.084512 38.177152 
L 428.885786 38.08149 
L 428.567741 38.369857 
L 428.527913 38.311059 
L 428.011142 37.438125 
L 427.971397 37.471671 
L 427.693097 37.974585 
L 427.653352 37.940947 
L 427.454543 37.847221 
L 426.699217 37.962697 
L 426.540236 38.033383 
L 426.301682 38.204892 
L 425.983637 37.832383 
L 425.943892 37.870169 
L 425.745083 37.930441 
L 425.546356 37.902977 
L 425.387293 37.898277 
L 425.268057 37.872749 
L 425.109076 38.309861 
L 424.910267 38.602744 
L 424.552477 38.218163 
L 424.154941 37.859847 
L 423.916387 38.122778 
L 423.916387 38.122778 
" clip-path="url(#paf5be0ffc3)" style="fill: none; stroke: #1f77b4; stroke-width: 1.5; stroke-linecap: square"/>
   </g>
   <g id="patch_8">
    <path d="M 410.081676 354.958125 
L 410.081676 22.318125 
" style="fill: none; stroke: #000000; stroke-width: 0.8; stroke-linejoin: miter; stroke-linecap: square"/>
   </g>
   <g id="patch_9">
    <path d="M 714.445312 354.958125 
L 714.445312 22.318125 
" style="fill: none; stroke: #000000; stroke-width: 0.8; stroke-linejoin: miter; stroke-linecap: square"/>
   </g>
   <g id="patch_10">
    <path d="M 410.081676 354.958125 
L 714.445312 354.958125 
" style="fill: none; stroke: #000000; stroke-width: 0.8; stroke-linejoin: miter; stroke-linecap: square"/>
   </g>
   <g id="patch_11">
    <path d="M 410.081676 22.318125 
L 714.445312 22.318125 
" style="fill: none; stroke: #000000; stroke-width: 0.8; stroke-linejoin: miter; stroke-linecap: square"/>
   </g>
   <g id="text_35">
    <!-- Pure Acetone Spectrum -->
    <g transform="translate(491.528182 16.318125) scale(0.12 -0.12)">
     <defs>
      <path id="DejaVuSans-50" d="M 1259 4147 
L 1259 2394 
L 2053 2394 
Q 2494 2394 2734 2622 
Q 2975 2850 2975 3272 
Q 2975 3691 2734 3919 
Q 2494 4147 2053 4147 
L 1259 4147 
z
M 628 4666 
L 2053 4666 
Q 2838 4666 3239 4311 
Q 3641 3956 3641 3272 
Q 3641 2581 3239 2228 
Q 2838 1875 2053 1875 
L 1259 1875 
L 1259 0 
L 628 0 
L 628 4666 
z
" transform="scale(0.015625)"/>
     </defs>
     <use xlink:href="#DejaVuSans-50"/>
     <use xlink:href="#DejaVuSans-75" x="58.552734"/>
     <use xlink:href="#DejaVuSans-72" x="121.931641"/>
     <use xlink:href="#DejaVuSans-65" x="160.794922"/>
     <use xlink:href="#DejaVuSans-20" x="222.318359"/>
     <use xlink:href="#DejaVuSans-41" x="254.105469"/>
     <use xlink:href="#DejaVuSans-63" x="320.763672"/>
     <use xlink:href="#DejaVuSans-65" x="375.744141"/>
     <use xlink:href="#DejaVuSans-74" x="437.267578"/>
     <use xlink:href="#DejaVuSans-6f" x="476.476562"/>
     <use xlink:href="#DejaVuSans-6e" x="537.658203"/>
     <use xlink:href="#DejaVuSans-65" x="601.037109"/>
     <use xlink:href="#DejaVuSans-20" x="662.560547"/>
     <use xlink:href="#DejaVuSans-53" x="694.347656"/>
     <use xlink:href="#DejaVuSans-70" x="757.824219"/>
     <use xlink:href="#DejaVuSans-65" x="821.300781"/>
     <use xlink:href="#DejaVuSans-63" x="882.824219"/>
     <use xlink:href="#DejaVuSans-74" x="937.804688"/>
     <use xlink:href="#DejaVuSans-72" x="977.013672"/>
     <use xlink:href="#DejaVuSans-75" x="1018.126953"/>
     <use xlink:href="#DejaVuSans-6d" x="1081.505859"/>
    </g>
   </g>
  </g>
 </g>
 <defs>
  <clipPath id="p5ef6047d4d">
   <rect x="44.845313" y="22.318125" width="304.363636" height="332.64"/>
  </clipPath>
  <clipPath id="paf5be0ffc3">
   <rect x="410.081676" y="22.318125" width="304.363636" height="332.64"/>
  </clipPath>
 </defs>
</svg>