<?xml version="1.0" encoding="utf-8" standalone="no"?>
<!DOCTYPE svg PUBLIC "-//W3C//DTD SVG 1.1//EN"
  "http://www.w3.org/Graphics/SVG/1.1/DTD/svg11.dtd">
<svg xmlns:xlink="http://www.w3.org/1999/xlink" width="353.762008pt" height="348.575535pt" viewBox="0 0 353.762008 348.575535" xmlns="http://www.w3.org/2000/svg" version="1.1">
 <metadata>
  <rdf:RDF xmlns:dc="http://purl.org/dc/elements/1.1/" xmlns:cc="http://creativecommons.org/ns#" xmlns:rdf="http://www.w3.org/1999/02/22-rdf-syntax-ns#">
   <cc:Work>
    <dc:type rdf:resource="http://purl.org/dc/dcmitype/StillImage"/>
    <dc:date>2024-09-08T15:36:06.288662</dc:date>
    <dc:format>image/svg+xml</dc:format>
    <dc:creator>
     <cc:Agent>
      <dc:title>Matplotlib v3.9.1, https://matplotlib.org/</dc:title>
     </cc:Agent>
    </dc:creator>
   </cc:Work>
  </rdf:RDF>
 </metadata>
 <defs>
  <style type="text/css">*{stroke-linejoin: round; stroke-linecap: butt}</style>
 </defs>
 <g id="figure_1">
  <g id="patch_1">
   <path d="M -0 348.575535 
L 353.762008 348.575535 
L 353.762008 0 
L -0 0 
z
" style="fill: #ffffff"/>
  </g>
  <g id="patch_2">
   <path d="M 7.2 339.84 
L 339.84 339.84 
L 339.84 7.2 
L 7.2 7.2 
z
" style="fill: #ffffff"/>
  </g>
  <g id="pane3d_1">
   <g id="patch_3">
    <path d="M 32.316614 257.821636 
L 142.165206 165.744369 
L 140.638205 32.952489 
L 25.532792 116.951176 
" style="fill: #f2f2f2; opacity: 0.5; stroke: #f2f2f2; stroke-linejoin: miter"/>
   </g>
  </g>
  <g id="pane3d_2">
   <g id="patch_4">
    <path d="M 142.165206 165.744369 
L 318.433001 216.978458 
L 324.723377 79.612714 
L 140.638205 32.952489 
" style="fill: #e6e6e6; opacity: 0.5; stroke: #e6e6e6; stroke-linejoin: miter"/>
   </g>
  </g>
  <g id="pane3d_3">
   <g id="patch_5">
    <path d="M 32.316614 257.821636 
L 219.169086 318.847653 
L 318.433001 216.978458 
L 142.165206 165.744369 
" style="fill: #ececec; opacity: 0.5; stroke: #ececec; stroke-linejoin: miter"/>
   </g>
  </g>
  <g id="grid3d_1">
   <g id="Line3DCollection_1">
    <path d="M 33.150069 258.093843 
L 142.954911 165.973905 
L 141.461202 33.161094 
" style="fill: none; stroke: #b0b0b0; stroke-width: 0.8"/>
    <path d="M 55.822968 265.498812 
L 164.425718 172.214621 
L 163.843112 38.834256 
" style="fill: none; stroke: #b0b0b0; stroke-width: 0.8"/>
    <path d="M 78.795736 273.001717 
L 186.157004 178.531048 
L 186.508271 44.579213 
" style="fill: none; stroke: #b0b0b0; stroke-width: 0.8"/>
    <path d="M 102.074361 280.604516 
L 208.153541 184.924572 
L 209.46209 50.397337 
" style="fill: none; stroke: #b0b0b0; stroke-width: 0.8"/>
    <path d="M 125.664992 288.309216 
L 230.420213 191.396615 
L 232.710118 56.290035 
" style="fill: none; stroke: #b0b0b0; stroke-width: 0.8"/>
    <path d="M 149.573945 296.11788 
L 252.962028 197.948631 
L 256.25805 62.258749 
" style="fill: none; stroke: #b0b0b0; stroke-width: 0.8"/>
    <path d="M 173.807706 304.032627 
L 275.784118 204.582111 
L 280.111724 68.30496 
" style="fill: none; stroke: #b0b0b0; stroke-width: 0.8"/>
    <path d="M 198.37294 312.055632 
L 298.891742 211.298585 
L 304.277136 74.430188 
" style="fill: none; stroke: #b0b0b0; stroke-width: 0.8"/>
   </g>
  </g>
  <g id="grid3d_2">
   <g id="Line3DCollection_2">
    <path d="M 26.264308 116.417349 
L 33.012093 257.238672 
L 219.800314 318.199858 
" style="fill: none; stroke: #b0b0b0; stroke-width: 0.8"/>
    <path d="M 41.616004 105.214381 
L 47.615242 244.998023 
L 233.046204 304.606317 
" style="fill: none; stroke: #b0b0b0; stroke-width: 0.8"/>
    <path d="M 56.622593 94.263255 
L 61.904395 233.020571 
L 245.992215 291.320524 
" style="fill: none; stroke: #b0b0b0; stroke-width: 0.8"/>
    <path d="M 71.295582 83.555576 
L 75.889571 221.297919 
L 258.648417 278.332148 
" style="fill: none; stroke: #b0b0b0; stroke-width: 0.8"/>
    <path d="M 85.645974 73.083314 
L 89.580369 209.822022 
L 271.024434 265.63131 
" style="fill: none; stroke: #b0b0b0; stroke-width: 0.8"/>
    <path d="M 99.684291 62.83879 
L 102.985985 198.585168 
L 283.129467 253.208568 
" style="fill: none; stroke: #b0b0b0; stroke-width: 0.8"/>
    <path d="M 113.420604 52.814654 
L 116.115239 187.579967 
L 294.972321 241.054887 
" style="fill: none; stroke: #b0b0b0; stroke-width: 0.8"/>
    <path d="M 126.864554 43.003871 
L 128.976589 176.799328 
L 306.561422 229.161618 
" style="fill: none; stroke: #b0b0b0; stroke-width: 0.8"/>
    <path d="M 140.025378 33.399702 
L 141.578153 166.236447 
L 317.90484 217.520481 
" style="fill: none; stroke: #b0b0b0; stroke-width: 0.8"/>
   </g>
  </g>
  <g id="grid3d_3">
   <g id="Line3DCollection_3">
    <path d="M 318.959706 205.476563 
L 142.037099 154.603926 
L 31.749469 246.044495 
" style="fill: none; stroke: #b0b0b0; stroke-width: 0.8"/>
    <path d="M 319.799438 187.138949 
L 141.832952 136.850729 
L 30.844931 227.261178 
" style="fill: none; stroke: #b0b0b0; stroke-width: 0.8"/>
    <path d="M 320.649237 168.581518 
L 141.626474 118.894912 
L 29.929135 208.244096 
" style="fill: none; stroke: #b0b0b0; stroke-width: 0.8"/>
    <path d="M 321.509284 149.800294 
L 141.417627 100.732984 
L 29.001871 188.988857 
" style="fill: none; stroke: #b0b0b0; stroke-width: 0.8"/>
    <path d="M 322.379765 130.791205 
L 141.206368 82.361377 
L 28.062922 169.490958 
" style="fill: none; stroke: #b0b0b0; stroke-width: 0.8"/>
    <path d="M 323.260872 111.550077 
L 140.992656 63.776439 
L 27.112064 149.745785 
" style="fill: none; stroke: #b0b0b0; stroke-width: 0.8"/>
    <path d="M 324.152801 92.072636 
L 140.776448 44.974432 
L 26.149071 129.748602 
" style="fill: none; stroke: #b0b0b0; stroke-width: 0.8"/>
   </g>
  </g>
  <g id="axis3d_1">
   <g id="line2d_1">
    <path d="M 32.316614 257.821636 
L 219.169086 318.847653 
" style="fill: none; stroke: #000000; stroke-width: 0.8; stroke-linecap: square"/>
   </g>
   <g id="xtick_1">
    <g id="line2d_2">
     <path d="M 34.106008 257.291865 
L 31.234102 259.701229 
" style="fill: none; stroke: #000000; stroke-width: 0.8; stroke-linecap: square"/>
    </g>
    <g id="text_1">
     <!-- 4 -->
     <g transform="translate(22.437157 281.333494) scale(0.1 -0.1)">
      <defs>
       <path id="DejaVuSans-34" d="M 2419 4116 
L 825 1625 
L 2419 1625 
L 2419 4116 
z
M 2253 4666 
L 3047 4666 
L 3047 1625 
L 3713 1625 
L 3713 1100 
L 3047 1100 
L 3047 0 
L 2419 0 
L 2419 1100 
L 313 1100 
L 313 1709 
L 2253 4666 
z
" transform="scale(0.015625)"/>
      </defs>
      <use xlink:href="#DejaVuSans-34"/>
     </g>
    </g>
   </g>
   <g id="xtick_2">
    <g id="line2d_3">
     <path d="M 56.768945 264.686266 
L 53.92694 267.127402 
" style="fill: none; stroke: #000000; stroke-width: 0.8; stroke-linecap: square"/>
    </g>
    <g id="text_2">
     <!-- 5 -->
     <g transform="translate(45.128042 288.863606) scale(0.1 -0.1)">
      <defs>
       <path id="DejaVuSans-35" d="M 691 4666 
L 3169 4666 
L 3169 4134 
L 1269 4134 
L 1269 2991 
Q 1406 3038 1543 3061 
Q 1681 3084 1819 3084 
Q 2600 3084 3056 2656 
Q 3513 2228 3513 1497 
Q 3513 744 3044 326 
Q 2575 -91 1722 -91 
Q 1428 -91 1123 -41 
Q 819 9 494 109 
L 494 744 
Q 775 591 1075 516 
Q 1375 441 1709 441 
Q 2250 441 2565 725 
Q 2881 1009 2881 1497 
Q 2881 1984 2565 2268 
Q 2250 2553 1709 2553 
Q 1456 2553 1204 2497 
Q 953 2441 691 2322 
L 691 4666 
z
" transform="scale(0.015625)"/>
      </defs>
      <use xlink:href="#DejaVuSans-35"/>
     </g>
    </g>
   </g>
   <g id="xtick_3">
    <g id="line2d_4">
     <path d="M 79.731403 272.178393 
L 76.920345 274.651935 
" style="fill: none; stroke: #000000; stroke-width: 0.8; stroke-linecap: square"/>
    </g>
    <g id="text_3">
     <!-- 6 -->
     <g transform="translate(68.119934 296.49361) scale(0.1 -0.1)">
      <defs>
       <path id="DejaVuSans-36" d="M 2113 2584 
Q 1688 2584 1439 2293 
Q 1191 2003 1191 1497 
Q 1191 994 1439 701 
Q 1688 409 2113 409 
Q 2538 409 2786 701 
Q 3034 994 3034 1497 
Q 3034 2003 2786 2293 
Q 2538 2584 2113 2584 
z
M 3366 4563 
L 3366 3988 
Q 3128 4100 2886 4159 
Q 2644 4219 2406 4219 
Q 1781 4219 1451 3797 
Q 1122 3375 1075 2522 
Q 1259 2794 1537 2939 
Q 1816 3084 2150 3084 
Q 2853 3084 3261 2657 
Q 3669 2231 3669 1497 
Q 3669 778 3244 343 
Q 2819 -91 2113 -91 
Q 1303 -91 875 529 
Q 447 1150 447 2328 
Q 447 3434 972 4092 
Q 1497 4750 2381 4750 
Q 2619 4750 2861 4703 
Q 3103 4656 3366 4563 
z
" transform="scale(0.015625)"/>
      </defs>
      <use xlink:href="#DejaVuSans-36"/>
     </g>
    </g>
   </g>
   <g id="xtick_4">
    <g id="line2d_5">
     <path d="M 102.999359 279.770198 
L 100.220328 282.276793 
" style="fill: none; stroke: #000000; stroke-width: 0.8; stroke-linecap: square"/>
    </g>
    <g id="text_4">
     <!-- 7 -->
     <g transform="translate(91.418863 304.225505) scale(0.1 -0.1)">
      <defs>
       <path id="DejaVuSans-37" d="M 525 4666 
L 3525 4666 
L 3525 4397 
L 1831 0 
L 1172 0 
L 2766 4134 
L 525 4134 
L 525 4666 
z
" transform="scale(0.015625)"/>
      </defs>
      <use xlink:href="#DejaVuSans-37"/>
     </g>
    </g>
   </g>
   <g id="xtick_5">
    <g id="line2d_6">
     <path d="M 126.578951 287.463682 
L 123.83306 290.003999 
" style="fill: none; stroke: #000000; stroke-width: 0.8; stroke-linecap: square"/>
    </g>
    <g id="text_5">
     <!-- 8 -->
     <g transform="translate(115.031021 312.061348) scale(0.1 -0.1)">
      <defs>
       <path id="DejaVuSans-38" d="M 2034 2216 
Q 1584 2216 1326 1975 
Q 1069 1734 1069 1313 
Q 1069 891 1326 650 
Q 1584 409 2034 409 
Q 2484 409 2743 651 
Q 3003 894 3003 1313 
Q 3003 1734 2745 1975 
Q 2488 2216 2034 2216 
z
M 1403 2484 
Q 997 2584 770 2862 
Q 544 3141 544 3541 
Q 544 4100 942 4425 
Q 1341 4750 2034 4750 
Q 2731 4750 3128 4425 
Q 3525 4100 3525 3541 
Q 3525 3141 3298 2862 
Q 3072 2584 2669 2484 
Q 3125 2378 3379 2068 
Q 3634 1759 3634 1313 
Q 3634 634 3220 271 
Q 2806 -91 2034 -91 
Q 1263 -91 848 271 
Q 434 634 434 1313 
Q 434 1759 690 2068 
Q 947 2378 1403 2484 
z
M 1172 3481 
Q 1172 3119 1398 2916 
Q 1625 2713 2034 2713 
Q 2441 2713 2670 2916 
Q 2900 3119 2900 3481 
Q 2900 3844 2670 4047 
Q 2441 4250 2034 4250 
Q 1625 4250 1398 4047 
Q 1172 3844 1172 3481 
z
" transform="scale(0.015625)"/>
      </defs>
      <use xlink:href="#DejaVuSans-38"/>
     </g>
    </g>
   </g>
   <g id="xtick_6">
    <g id="line2d_7">
     <path d="M 150.476481 295.260903 
L 147.764882 297.835626 
" style="fill: none; stroke: #000000; stroke-width: 0.8; stroke-linecap: square"/>
    </g>
    <g id="text_6">
     <!-- 9 -->
     <g transform="translate(138.962767 320.003247) scale(0.1 -0.1)">
      <defs>
       <path id="DejaVuSans-39" d="M 703 97 
L 703 672 
Q 941 559 1184 500 
Q 1428 441 1663 441 
Q 2288 441 2617 861 
Q 2947 1281 2994 2138 
Q 2813 1869 2534 1725 
Q 2256 1581 1919 1581 
Q 1219 1581 811 2004 
Q 403 2428 403 3163 
Q 403 3881 828 4315 
Q 1253 4750 1959 4750 
Q 2769 4750 3195 4129 
Q 3622 3509 3622 2328 
Q 3622 1225 3098 567 
Q 2575 -91 1691 -91 
Q 1453 -91 1209 -44 
Q 966 3 703 97 
z
M 1959 2075 
Q 2384 2075 2632 2365 
Q 2881 2656 2881 3163 
Q 2881 3666 2632 3958 
Q 2384 4250 1959 4250 
Q 1534 4250 1286 3958 
Q 1038 3666 1038 3163 
Q 1038 2656 1286 2365 
Q 1534 2075 1959 2075 
z
" transform="scale(0.015625)"/>
      </defs>
      <use xlink:href="#DejaVuSans-39"/>
     </g>
    </g>
   </g>
   <g id="xtick_7">
    <g id="line2d_8">
     <path d="M 174.698424 303.163972 
L 172.022305 305.773805 
" style="fill: none; stroke: #000000; stroke-width: 0.8; stroke-linecap: square"/>
    </g>
    <g id="text_7">
     <!-- 10 -->
     <g transform="translate(160.039384 328.053372) scale(0.1 -0.1)">
      <defs>
       <path id="DejaVuSans-31" d="M 794 531 
L 1825 531 
L 1825 4091 
L 703 3866 
L 703 4441 
L 1819 4666 
L 2450 4666 
L 2450 531 
L 3481 531 
L 3481 0 
L 794 0 
L 794 531 
z
" transform="scale(0.015625)"/>
       <path id="DejaVuSans-30" d="M 2034 4250 
Q 1547 4250 1301 3770 
Q 1056 3291 1056 2328 
Q 1056 1369 1301 889 
Q 1547 409 2034 409 
Q 2525 409 2770 889 
Q 3016 1369 3016 2328 
Q 3016 3291 2770 3770 
Q 2525 4250 2034 4250 
z
M 2034 4750 
Q 2819 4750 3233 4129 
Q 3647 3509 3647 2328 
Q 3647 1150 3233 529 
Q 2819 -91 2034 -91 
Q 1250 -91 836 529 
Q 422 1150 422 2328 
Q 422 3509 836 4129 
Q 1250 4750 2034 4750 
z
" transform="scale(0.015625)"/>
      </defs>
      <use xlink:href="#DejaVuSans-31"/>
      <use xlink:href="#DejaVuSans-30" x="63.623047"/>
     </g>
    </g>
   </g>
   <g id="xtick_8">
    <g id="line2d_9">
     <path d="M 199.251431 311.175059 
L 196.61202 313.820725 
" style="fill: none; stroke: #000000; stroke-width: 0.8; stroke-linecap: square"/>
    </g>
    <g id="text_8">
     <!-- 11 -->
     <g transform="translate(184.630082 336.21395) scale(0.1 -0.1)">
      <use xlink:href="#DejaVuSans-31"/>
      <use xlink:href="#DejaVuSans-31" x="63.623047"/>
     </g>
    </g>
   </g>
   <g id="text_9">
    <!-- X axis -->
    <g transform="translate(91.870238 320.700174) rotate(-341.912962) scale(0.1 -0.1)">
     <defs>
      <path id="DejaVuSans-58" d="M 403 4666 
L 1081 4666 
L 2241 2931 
L 3406 4666 
L 4084 4666 
L 2584 2425 
L 4184 0 
L 3506 0 
L 2194 1984 
L 872 0 
L 191 0 
L 1856 2491 
L 403 4666 
z
" transform="scale(0.015625)"/>
      <path id="DejaVuSans-20" transform="scale(0.015625)"/>
      <path id="DejaVuSans-61" d="M 2194 1759 
Q 1497 1759 1228 1600 
Q 959 1441 959 1056 
Q 959 750 1161 570 
Q 1363 391 1709 391 
Q 2188 391 2477 730 
Q 2766 1069 2766 1631 
L 2766 1759 
L 2194 1759 
z
M 3341 1997 
L 3341 0 
L 2766 0 
L 2766 531 
Q 2569 213 2275 61 
Q 1981 -91 1556 -91 
Q 1019 -91 701 211 
Q 384 513 384 1019 
Q 384 1609 779 1909 
Q 1175 2209 1959 2209 
L 2766 2209 
L 2766 2266 
Q 2766 2663 2505 2880 
Q 2244 3097 1772 3097 
Q 1472 3097 1187 3025 
Q 903 2953 641 2809 
L 641 3341 
Q 956 3463 1253 3523 
Q 1550 3584 1831 3584 
Q 2591 3584 2966 3190 
Q 3341 2797 3341 1997 
z
" transform="scale(0.015625)"/>
      <path id="DejaVuSans-78" d="M 3513 3500 
L 2247 1797 
L 3578 0 
L 2900 0 
L 1881 1375 
L 863 0 
L 184 0 
L 1544 1831 
L 300 3500 
L 978 3500 
L 1906 2253 
L 2834 3500 
L 3513 3500 
z
" transform="scale(0.015625)"/>
      <path id="DejaVuSans-69" d="M 603 3500 
L 1178 3500 
L 1178 0 
L 603 0 
L 603 3500 
z
M 603 4863 
L 1178 4863 
L 1178 4134 
L 603 4134 
L 603 4863 
z
" transform="scale(0.015625)"/>
      <path id="DejaVuSans-73" d="M 2834 3397 
L 2834 2853 
Q 2591 2978 2328 3040 
Q 2066 3103 1784 3103 
Q 1356 3103 1142 2972 
Q 928 2841 928 2578 
Q 928 2378 1081 2264 
Q 1234 2150 1697 2047 
L 1894 2003 
Q 2506 1872 2764 1633 
Q 3022 1394 3022 966 
Q 3022 478 2636 193 
Q 2250 -91 1575 -91 
Q 1294 -91 989 -36 
Q 684 19 347 128 
L 347 722 
Q 666 556 975 473 
Q 1284 391 1588 391 
Q 1994 391 2212 530 
Q 2431 669 2431 922 
Q 2431 1156 2273 1281 
Q 2116 1406 1581 1522 
L 1381 1569 
Q 847 1681 609 1914 
Q 372 2147 372 2553 
Q 372 3047 722 3315 
Q 1072 3584 1716 3584 
Q 2034 3584 2315 3537 
Q 2597 3491 2834 3397 
z
" transform="scale(0.015625)"/>
     </defs>
     <use xlink:href="#DejaVuSans-58"/>
     <use xlink:href="#DejaVuSans-20" x="68.505859"/>
     <use xlink:href="#DejaVuSans-61" x="100.292969"/>
     <use xlink:href="#DejaVuSans-78" x="161.572266"/>
     <use xlink:href="#DejaVuSans-69" x="220.751953"/>
     <use xlink:href="#DejaVuSans-73" x="248.535156"/>
    </g>
   </g>
  </g>
  <g id="axis3d_2">
   <g id="line2d_10">
    <path d="M 318.433001 216.978458 
L 219.169086 318.847653 
" style="fill: none; stroke: #000000; stroke-width: 0.8; stroke-linecap: square"/>
   </g>
   <g id="xtick_9">
    <g id="line2d_11">
     <path d="M 218.225812 317.685995 
L 222.953412 319.22892 
" style="fill: none; stroke: #000000; stroke-width: 0.8; stroke-linecap: square"/>
    </g>
    <g id="text_10">
     <!-- −4 -->
     <g transform="translate(225.375151 339.295848) scale(0.1 -0.1)">
      <defs>
       <path id="DejaVuSans-2212" d="M 678 2272 
L 4684 2272 
L 4684 1741 
L 678 1741 
L 678 2272 
z
" transform="scale(0.015625)"/>
      </defs>
      <use xlink:href="#DejaVuSans-2212"/>
      <use xlink:href="#DejaVuSans-34" x="83.789062"/>
     </g>
    </g>
   </g>
   <g id="xtick_10">
    <g id="line2d_12">
     <path d="M 231.484054 304.104151 
L 236.17452 305.611939 
" style="fill: none; stroke: #000000; stroke-width: 0.8; stroke-linecap: square"/>
    </g>
    <g id="text_11">
     <!-- −3 -->
     <g transform="translate(238.479054 325.541224) scale(0.1 -0.1)">
      <defs>
       <path id="DejaVuSans-33" d="M 2597 2516 
Q 3050 2419 3304 2112 
Q 3559 1806 3559 1356 
Q 3559 666 3084 287 
Q 2609 -91 1734 -91 
Q 1441 -91 1130 -33 
Q 819 25 488 141 
L 488 750 
Q 750 597 1062 519 
Q 1375 441 1716 441 
Q 2309 441 2620 675 
Q 2931 909 2931 1356 
Q 2931 1769 2642 2001 
Q 2353 2234 1838 2234 
L 1294 2234 
L 1294 2753 
L 1863 2753 
Q 2328 2753 2575 2939 
Q 2822 3125 2822 3475 
Q 2822 3834 2567 4026 
Q 2313 4219 1838 4219 
Q 1578 4219 1281 4162 
Q 984 4106 628 3988 
L 628 4550 
Q 988 4650 1302 4700 
Q 1616 4750 1894 4750 
Q 2613 4750 3031 4423 
Q 3450 4097 3450 3541 
Q 3450 3153 3228 2886 
Q 3006 2619 2597 2516 
z
" transform="scale(0.015625)"/>
      </defs>
      <use xlink:href="#DejaVuSans-2212"/>
      <use xlink:href="#DejaVuSans-33" x="83.789062"/>
     </g>
    </g>
   </g>
   <g id="xtick_11">
    <g id="line2d_13">
     <path d="M 244.442264 290.829661 
L 249.096056 292.3035 
" style="fill: none; stroke: #000000; stroke-width: 0.8; stroke-linecap: square"/>
    </g>
    <g id="text_12">
     <!-- −2 -->
     <g transform="translate(251.286154 312.098144) scale(0.1 -0.1)">
      <defs>
       <path id="DejaVuSans-32" d="M 1228 531 
L 3431 531 
L 3431 0 
L 469 0 
L 469 531 
Q 828 903 1448 1529 
Q 2069 2156 2228 2338 
Q 2531 2678 2651 2914 
Q 2772 3150 2772 3378 
Q 2772 3750 2511 3984 
Q 2250 4219 1831 4219 
Q 1534 4219 1204 4116 
Q 875 4013 500 3803 
L 500 4441 
Q 881 4594 1212 4672 
Q 1544 4750 1819 4750 
Q 2544 4750 2975 4387 
Q 3406 4025 3406 3419 
Q 3406 3131 3298 2873 
Q 3191 2616 2906 2266 
Q 2828 2175 2409 1742 
Q 1991 1309 1228 531 
z
" transform="scale(0.015625)"/>
      </defs>
      <use xlink:href="#DejaVuSans-2212"/>
      <use xlink:href="#DejaVuSans-32" x="83.789062"/>
     </g>
    </g>
   </g>
   <g id="xtick_12">
    <g id="line2d_14">
     <path d="M 257.110514 277.852209 
L 261.728088 279.293232 
" style="fill: none; stroke: #000000; stroke-width: 0.8; stroke-linecap: square"/>
    </g>
    <g id="text_13">
     <!-- −1 -->
     <g transform="translate(263.80642 298.956139) scale(0.1 -0.1)">
      <use xlink:href="#DejaVuSans-2212"/>
      <use xlink:href="#DejaVuSans-31" x="83.789062"/>
     </g>
    </g>
   </g>
   <g id="xtick_13">
    <g id="line2d_15">
     <path d="M 269.498427 265.161935 
L 274.080239 266.571227 
" style="fill: none; stroke: #000000; stroke-width: 0.8; stroke-linecap: square"/>
    </g>
    <g id="text_14">
     <!-- 0 -->
     <g transform="translate(280.239226 286.105209) scale(0.1 -0.1)">
      <use xlink:href="#DejaVuSans-30"/>
     </g>
    </g>
   </g>
   <g id="xtick_14">
    <g id="line2d_16">
     <path d="M 281.615208 252.749412 
L 286.161707 254.128009 
" style="fill: none; stroke: #000000; stroke-width: 0.8; stroke-linecap: square"/>
    </g>
    <g id="text_15">
     <!-- 1 -->
     <g transform="translate(292.213997 273.535789) scale(0.1 -0.1)">
      <use xlink:href="#DejaVuSans-31"/>
     </g>
    </g>
   </g>
   <g id="xtick_15">
    <g id="line2d_17">
     <path d="M 293.469661 240.605619 
L 297.981295 241.954513 
" style="fill: none; stroke: #000000; stroke-width: 0.8; stroke-linecap: square"/>
    </g>
    <g id="text_16">
     <!-- 2 -->
     <g transform="translate(303.929293 261.238728) scale(0.1 -0.1)">
      <use xlink:href="#DejaVuSans-32"/>
     </g>
    </g>
   </g>
   <g id="xtick_16">
    <g id="line2d_18">
     <path d="M 305.070214 228.721923 
L 309.547425 230.042064 
" style="fill: none; stroke: #000000; stroke-width: 0.8; stroke-linecap: square"/>
    </g>
    <g id="text_17">
     <!-- 3 -->
     <g transform="translate(315.393458 249.20527) scale(0.1 -0.1)">
      <use xlink:href="#DejaVuSans-33"/>
     </g>
    </g>
   </g>
   <g id="xtick_17">
    <g id="line2d_19">
     <path d="M 316.424938 217.090057 
L 320.868163 218.382354 
" style="fill: none; stroke: #000000; stroke-width: 0.8; stroke-linecap: square"/>
    </g>
    <g id="text_18">
     <!-- 4 -->
     <g transform="translate(326.61448 237.427029) scale(0.1 -0.1)">
      <use xlink:href="#DejaVuSans-34"/>
     </g>
    </g>
   </g>
   <g id="text_19">
    <!-- Y axis -->
    <g transform="translate(289.732037 306.062001) rotate(-45.742112) scale(0.1 -0.1)">
     <defs>
      <path id="DejaVuSans-59" d="M -13 4666 
L 666 4666 
L 1959 2747 
L 3244 4666 
L 3922 4666 
L 2272 2222 
L 2272 0 
L 1638 0 
L 1638 2222 
L -13 4666 
z
" transform="scale(0.015625)"/>
     </defs>
     <use xlink:href="#DejaVuSans-59"/>
     <use xlink:href="#DejaVuSans-20" x="61.083984"/>
     <use xlink:href="#DejaVuSans-61" x="92.871094"/>
     <use xlink:href="#DejaVuSans-78" x="154.150391"/>
     <use xlink:href="#DejaVuSans-69" x="213.330078"/>
     <use xlink:href="#DejaVuSans-73" x="241.113281"/>
    </g>
   </g>
  </g>
  <g id="axis3d_3">
   <g id="line2d_20">
    <path d="M 318.433001 216.978458 
L 324.723377 79.612714 
" style="fill: none; stroke: #000000; stroke-width: 0.8; stroke-linecap: square"/>
   </g>
   <g id="xtick_18">
    <g id="line2d_21">
     <path d="M 317.474577 205.049527 
L 321.933508 206.331655 
" style="fill: none; stroke: #000000; stroke-width: 0.8; stroke-linecap: square"/>
    </g>
    <g id="text_20">
     <!-- −3 -->
     <g transform="translate(329.915258 210.486395) scale(0.1 -0.1)">
      <use xlink:href="#DejaVuSans-2212"/>
      <use xlink:href="#DejaVuSans-33" x="83.789062"/>
     </g>
    </g>
   </g>
   <g id="xtick_19">
    <g id="line2d_22">
     <path d="M 318.305129 186.7167 
L 322.791645 187.984461 
" style="fill: none; stroke: #000000; stroke-width: 0.8; stroke-linecap: square"/>
    </g>
    <g id="text_21">
     <!-- −2 -->
     <g transform="translate(330.861879 192.177833) scale(0.1 -0.1)">
      <use xlink:href="#DejaVuSans-2212"/>
      <use xlink:href="#DejaVuSans-32" x="83.789062"/>
     </g>
    </g>
   </g>
   <g id="xtick_20">
    <g id="line2d_23">
     <path d="M 319.145634 168.164203 
L 323.660076 169.417157 
" style="fill: none; stroke: #000000; stroke-width: 0.8; stroke-linecap: square"/>
    </g>
    <g id="text_22">
     <!-- −1 -->
     <g transform="translate(331.81982 173.650338) scale(0.1 -0.1)">
      <use xlink:href="#DejaVuSans-2212"/>
      <use xlink:href="#DejaVuSans-31" x="83.789062"/>
     </g>
    </g>
   </g>
   <g id="xtick_21">
    <g id="line2d_24">
     <path d="M 319.99627 149.388062 
L 324.538989 150.62576 
" style="fill: none; stroke: #000000; stroke-width: 0.8; stroke-linecap: square"/>
    </g>
    <g id="text_23">
     <!-- 0 -->
     <g transform="translate(336.979129 154.899959) scale(0.1 -0.1)">
      <use xlink:href="#DejaVuSans-30"/>
     </g>
    </g>
   </g>
   <g id="xtick_22">
    <g id="line2d_25">
     <path d="M 320.857222 130.384211 
L 325.428574 131.606188 
" style="fill: none; stroke: #000000; stroke-width: 0.8; stroke-linecap: square"/>
    </g>
    <g id="text_24">
     <!-- 1 -->
     <g transform="translate(337.960327 135.922649) scale(0.1 -0.1)">
      <use xlink:href="#DejaVuSans-31"/>
     </g>
    </g>
   </g>
   <g id="xtick_23">
    <g id="line2d_26">
     <path d="M 321.72868 111.14848 
L 326.329027 112.354259 
" style="fill: none; stroke: #000000; stroke-width: 0.8; stroke-linecap: square"/>
    </g>
    <g id="text_25">
     <!-- 2 -->
     <g transform="translate(338.953472 116.714265) scale(0.1 -0.1)">
      <use xlink:href="#DejaVuSans-32"/>
     </g>
    </g>
   </g>
   <g id="xtick_24">
    <g id="line2d_27">
     <path d="M 322.610836 91.6766 
L 327.240548 92.86569 
" style="fill: none; stroke: #000000; stroke-width: 0.8; stroke-linecap: square"/>
    </g>
    <g id="text_26">
     <!-- 3 -->
     <g transform="translate(339.958785 97.270559) scale(0.1 -0.1)">
      <use xlink:href="#DejaVuSans-33"/>
     </g>
    </g>
   </g>
   <g id="text_27">
    <!-- Z axis -->
    <g transform="translate(364.00763 159.525515) rotate(-87.378092) scale(0.1 -0.1)">
     <defs>
      <path id="DejaVuSans-5a" d="M 359 4666 
L 4025 4666 
L 4025 4184 
L 1075 531 
L 4097 531 
L 4097 0 
L 288 0 
L 288 481 
L 3238 4134 
L 359 4134 
L 359 4666 
z
" transform="scale(0.015625)"/>
     </defs>
     <use xlink:href="#DejaVuSans-5a"/>
     <use xlink:href="#DejaVuSans-20" x="68.505859"/>
     <use xlink:href="#DejaVuSans-61" x="100.292969"/>
     <use xlink:href="#DejaVuSans-78" x="161.572266"/>
     <use xlink:href="#DejaVuSans-69" x="220.751953"/>
     <use xlink:href="#DejaVuSans-73" x="248.535156"/>
    </g>
   </g>
  </g>
  <g id="axes_1">
   <g id="line2d_28">
    <defs>
     <path id="m468d921f2f" d="M 0 3 
C 0.795609 3 1.55874 2.683901 2.12132 2.12132 
C 2.683901 1.55874 3 0.795609 3 0 
C 3 -0.795609 2.683901 -1.55874 2.12132 -2.12132 
C 1.55874 -2.683901 0.795609 -3 0 -3 
C -0.795609 -3 -1.55874 -2.683901 -2.12132 -2.12132 
C -2.683901 -1.55874 -3 -0.795609 -3 0 
C -3 0.795609 -2.683901 1.55874 -2.12132 2.12132 
C -1.55874 2.683901 -0.795609 3 0 3 
z
" style="stroke: #1f77b4"/>
    </defs>
    <g clip-path="url(#p1de44cb8f0)">
     <use xlink:href="#m468d921f2f" x="216.476145" y="245.934824" style="fill: #1f77b4; stroke: #1f77b4"/>
     <use xlink:href="#m468d921f2f" x="232.73544" y="221.054264" style="fill: #1f77b4; stroke: #1f77b4"/>
     <use xlink:href="#m468d921f2f" x="242.862999" y="229.621298" style="fill: #1f77b4; stroke: #1f77b4"/>
     <use xlink:href="#m468d921f2f" x="181.944352" y="252.021589" style="fill: #1f77b4; stroke: #1f77b4"/>
     <use xlink:href="#m468d921f2f" x="243.235026" y="191.081017" style="fill: #1f77b4; stroke: #1f77b4"/>
     <use xlink:href="#m468d921f2f" x="221.026966" y="235.143993" style="fill: #1f77b4; stroke: #1f77b4"/>
     <use xlink:href="#m468d921f2f" x="152.632017" y="236.514793" style="fill: #1f77b4; stroke: #1f77b4"/>
     <use xlink:href="#m468d921f2f" x="149.21766" y="247.262794" style="fill: #1f77b4; stroke: #1f77b4"/>
     <use xlink:href="#m468d921f2f" x="198.28121" y="227.074332" style="fill: #1f77b4; stroke: #1f77b4"/>
     <use xlink:href="#m468d921f2f" x="189.479144" y="230.325667" style="fill: #1f77b4; stroke: #1f77b4"/>
     <use xlink:href="#m468d921f2f" x="173.343801" y="242.207928" style="fill: #1f77b4; stroke: #1f77b4"/>
     <use xlink:href="#m468d921f2f" x="263.042914" y="208.853056" style="fill: #1f77b4; stroke: #1f77b4"/>
     <use xlink:href="#m468d921f2f" x="215.134396" y="180.163557" style="fill: #1f77b4; stroke: #1f77b4"/>
     <use xlink:href="#m468d921f2f" x="250.660002" y="211.253526" style="fill: #1f77b4; stroke: #1f77b4"/>
     <use xlink:href="#m468d921f2f" x="187.341166" y="201.856623" style="fill: #1f77b4; stroke: #1f77b4"/>
     <use xlink:href="#m468d921f2f" x="126.658268" y="211.967762" style="fill: #1f77b4; stroke: #1f77b4"/>
     <use xlink:href="#m468d921f2f" x="120.677949" y="234.766383" style="fill: #1f77b4; stroke: #1f77b4"/>
     <use xlink:href="#m468d921f2f" x="186.146942" y="201.178781" style="fill: #1f77b4; stroke: #1f77b4"/>
     <use xlink:href="#m468d921f2f" x="136.182467" y="231.781674" style="fill: #1f77b4; stroke: #1f77b4"/>
     <use xlink:href="#m468d921f2f" x="206.530665" y="150.076313" style="fill: #1f77b4; stroke: #1f77b4"/>
     <use xlink:href="#m468d921f2f" x="247.478195" y="184.277144" style="fill: #1f77b4; stroke: #1f77b4"/>
     <use xlink:href="#m468d921f2f" x="98.72666" y="200.104267" style="fill: #1f77b4; stroke: #1f77b4"/>
     <use xlink:href="#m468d921f2f" x="152.777983" y="191.809644" style="fill: #1f77b4; stroke: #1f77b4"/>
     <use xlink:href="#m468d921f2f" x="96.280951" y="211.978455" style="fill: #1f77b4; stroke: #1f77b4"/>
     <use xlink:href="#m468d921f2f" x="214.944182" y="178.280813" style="fill: #1f77b4; stroke: #1f77b4"/>
     <use xlink:href="#m468d921f2f" x="126.688234" y="207.116738" style="fill: #1f77b4; stroke: #1f77b4"/>
     <use xlink:href="#m468d921f2f" x="87.02229" y="186.105105" style="fill: #1f77b4; stroke: #1f77b4"/>
     <use xlink:href="#m468d921f2f" x="257.819881" y="152.889716" style="fill: #1f77b4; stroke: #1f77b4"/>
     <use xlink:href="#m468d921f2f" x="262.146864" y="171.78531" style="fill: #1f77b4; stroke: #1f77b4"/>
     <use xlink:href="#m468d921f2f" x="273.033864" y="179.807528" style="fill: #1f77b4; stroke: #1f77b4"/>
     <use xlink:href="#m468d921f2f" x="140.521773" y="94.0499" style="fill: #1f77b4; stroke: #1f77b4"/>
     <use xlink:href="#m468d921f2f" x="121.101831" y="114.910308" style="fill: #1f77b4; stroke: #1f77b4"/>
     <use xlink:href="#m468d921f2f" x="113.096023" y="108.361854" style="fill: #1f77b4; stroke: #1f77b4"/>
     <use xlink:href="#m468d921f2f" x="174.13186" y="86.99858" style="fill: #1f77b4; stroke: #1f77b4"/>
     <use xlink:href="#m468d921f2f" x="108.75545" y="145.60253" style="fill: #1f77b4; stroke: #1f77b4"/>
     <use xlink:href="#m468d921f2f" x="137.526238" y="106.784069" style="fill: #1f77b4; stroke: #1f77b4"/>
     <use xlink:href="#m468d921f2f" x="201.759596" y="105.891882" style="fill: #1f77b4; stroke: #1f77b4"/>
     <use xlink:href="#m468d921f2f" x="205.884282" y="93.309048" style="fill: #1f77b4; stroke: #1f77b4"/>
     <use xlink:href="#m468d921f2f" x="156.632963" y="107.778487" style="fill: #1f77b4; stroke: #1f77b4"/>
     <use xlink:href="#m468d921f2f" x="167.440896" y="112.481873" style="fill: #1f77b4; stroke: #1f77b4"/>
     <use xlink:href="#m468d921f2f" x="182.821195" y="93.731131" style="fill: #1f77b4; stroke: #1f77b4"/>
     <use xlink:href="#m468d921f2f" x="94.555406" y="129.93117" style="fill: #1f77b4; stroke: #1f77b4"/>
     <use xlink:href="#m468d921f2f" x="137.515262" y="156.871723" style="fill: #1f77b4; stroke: #1f77b4"/>
     <use xlink:href="#m468d921f2f" x="109.365166" y="129.118448" style="fill: #1f77b4; stroke: #1f77b4"/>
     <use xlink:href="#m468d921f2f" x="167.878711" y="133.340165" style="fill: #1f77b4; stroke: #1f77b4"/>
     <use xlink:href="#m468d921f2f" x="225.643209" y="129.199861" style="fill: #1f77b4; stroke: #1f77b4"/>
     <use xlink:href="#m468d921f2f" x="235.013997" y="103.671261" style="fill: #1f77b4; stroke: #1f77b4"/>
     <use xlink:href="#m468d921f2f" x="170.645023" y="139.88276" style="fill: #1f77b4; stroke: #1f77b4"/>
     <use xlink:href="#m468d921f2f" x="221.225253" y="104.201625" style="fill: #1f77b4; stroke: #1f77b4"/>
     <use xlink:href="#m468d921f2f" x="146.666355" y="189.85611" style="fill: #1f77b4; stroke: #1f77b4"/>
     <use xlink:href="#m468d921f2f" x="113.465458" y="154.851437" style="fill: #1f77b4; stroke: #1f77b4"/>
     <use xlink:href="#m468d921f2f" x="253.502503" y="139.435416" style="fill: #1f77b4; stroke: #1f77b4"/>
     <use xlink:href="#m468d921f2f" x="205.54888" y="144.16666" style="fill: #1f77b4; stroke: #1f77b4"/>
     <use xlink:href="#m468d921f2f" x="258.612531" y="126.668689" style="fill: #1f77b4; stroke: #1f77b4"/>
     <use xlink:href="#m468d921f2f" x="144.415027" y="160.603287" style="fill: #1f77b4; stroke: #1f77b4"/>
     <use xlink:href="#m468d921f2f" x="232.561449" y="128.543729" style="fill: #1f77b4; stroke: #1f77b4"/>
     <use xlink:href="#m468d921f2f" x="270.464695" y="151.671185" style="fill: #1f77b4; stroke: #1f77b4"/>
     <use xlink:href="#m468d921f2f" x="102.281289" y="184.336947" style="fill: #1f77b4; stroke: #1f77b4"/>
     <use xlink:href="#m468d921f2f" x="90.300065" y="166.146847" style="fill: #1f77b4; stroke: #1f77b4"/>
     <use xlink:href="#m468d921f2f" x="82.934801" y="158.235211" style="fill: #1f77b4; stroke: #1f77b4"/>
    </g>
   </g>
  </g>
 </g>
 <defs>
  <clipPath id="p1de44cb8f0">
   <rect x="7.2" y="7.2" width="332.64" height="332.64"/>
  </clipPath>
 </defs>
</svg>