<?xml version="1.0" encoding="utf-8" standalone="no"?>
<!DOCTYPE svg PUBLIC "-//W3C//DTD SVG 1.1//EN"
  "http://www.w3.org/Graphics/SVG/1.1/DTD/svg11.dtd">
<svg xmlns:xlink="http://www.w3.org/1999/xlink" width="532.7175pt" height="351.99625pt" viewBox="0 0 532.7175 351.99625" xmlns="http://www.w3.org/2000/svg" version="1.1">
 <metadata>
  <rdf:RDF xmlns:dc="http://purl.org/dc/elements/1.1/" xmlns:cc="http://creativecommons.org/ns#" xmlns:rdf="http://www.w3.org/1999/02/22-rdf-syntax-ns#">
   <cc:Work>
    <dc:type rdf:resource="http://purl.org/dc/dcmitype/StillImage"/>
    <dc:date>2025-07-20T07:30:50.051961</dc:date>
    <dc:format>image/svg+xml</dc:format>
    <dc:creator>
     <cc:Agent>
      <dc:title>Matplotlib v3.10.3, https://matplotlib.org/</dc:title>
     </cc:Agent>
    </dc:creator>
   </cc:Work>
  </rdf:RDF>
 </metadata>
 <defs>
  <style type="text/css">*{stroke-linejoin: round; stroke-linecap: butt}</style>
 </defs>
 <g id="figure_1">
  <g id="patch_1">
   <path d="M 0 351.99625 
L 532.7175 351.99625 
L 532.7175 0 
L 0 0 
z
" style="fill: #ffffff"/>
  </g>
  <g id="axes_1">
   <g id="patch_2">
    <path d="M 47.1875 314.44 
L 525.5175 314.44 
L 525.5175 7.2 
L 47.1875 7.2 
z
" style="fill: #ffffff"/>
   </g>
   <g id="PathCollection_1">
    <defs>
     <path id="m407895fa95" d="M 0 3 
C 0.795609 3 1.55874 2.683901 2.12132 2.12132 
C 2.683901 1.55874 3 0.795609 3 0 
C 3 -0.795609 2.683901 -1.55874 2.12132 -2.12132 
C 1.55874 -2.683901 0.795609 -3 0 -3 
C -0.795609 -3 -1.55874 -2.683901 -2.12132 -2.12132 
C -2.683901 -1.55874 -3 -0.795609 -3 0 
C -3 0.795609 -2.683901 1.55874 -2.12132 2.12132 
C -1.55874 2.683901 -0.795609 3 0 3 
z
" style="stroke: #1f77b4; stroke-opacity: 0.8"/>
    </defs>
    <g clip-path="url(#p0c87110775)">
     <use xlink:href="#m407895fa95" x="68.929773" y="254.327127" style="fill: #1f77b4; fill-opacity: 0.8; stroke: #1f77b4; stroke-opacity: 0.8"/>
     <use xlink:href="#m407895fa95" x="113.043162" y="238.113169" style="fill: #1f77b4; fill-opacity: 0.8; stroke: #1f77b4; stroke-opacity: 0.8"/>
     <use xlink:href="#m407895fa95" x="157.156551" y="213.168618" style="fill: #1f77b4; fill-opacity: 0.8; stroke: #1f77b4; stroke-opacity: 0.8"/>
     <use xlink:href="#m407895fa95" x="201.238498" y="188.224068" style="fill: #1f77b4; fill-opacity: 0.8; stroke: #1f77b4; stroke-opacity: 0.8"/>
     <use xlink:href="#m407895fa95" x="245.351887" y="162.032289" style="fill: #1f77b4; fill-opacity: 0.8; stroke: #1f77b4; stroke-opacity: 0.8"/>
     <use xlink:href="#m407895fa95" x="289.465277" y="139.582194" style="fill: #1f77b4; fill-opacity: 0.8; stroke: #1f77b4; stroke-opacity: 0.8"/>
     <use xlink:href="#m407895fa95" x="333.547224" y="115.884871" style="fill: #1f77b4; fill-opacity: 0.8; stroke: #1f77b4; stroke-opacity: 0.8"/>
     <use xlink:href="#m407895fa95" x="377.660613" y="92.187548" style="fill: #1f77b4; fill-opacity: 0.8; stroke: #1f77b4; stroke-opacity: 0.8"/>
     <use xlink:href="#m407895fa95" x="421.74256" y="70.98468" style="fill: #1f77b4; fill-opacity: 0.8; stroke: #1f77b4; stroke-opacity: 0.8"/>
     <use xlink:href="#m407895fa95" x="465.855949" y="46.040129" style="fill: #1f77b4; fill-opacity: 0.8; stroke: #1f77b4; stroke-opacity: 0.8"/>
     <use xlink:href="#m407895fa95" x="201.238498" y="200.696343" style="fill: #1f77b4; fill-opacity: 0.8; stroke: #1f77b4; stroke-opacity: 0.8"/>
     <use xlink:href="#m407895fa95" x="201.238498" y="231.877031" style="fill: #1f77b4; fill-opacity: 0.8; stroke: #1f77b4; stroke-opacity: 0.8"/>
     <use xlink:href="#m407895fa95" x="245.351887" y="172.01011" style="fill: #1f77b4; fill-opacity: 0.8; stroke: #1f77b4; stroke-opacity: 0.8"/>
     <use xlink:href="#m407895fa95" x="289.465277" y="167.0212" style="fill: #1f77b4; fill-opacity: 0.8; stroke: #1f77b4; stroke-opacity: 0.8"/>
     <use xlink:href="#m407895fa95" x="333.547224" y="160.785062" style="fill: #1f77b4; fill-opacity: 0.8; stroke: #1f77b4; stroke-opacity: 0.8"/>
     <use xlink:href="#m407895fa95" x="264.091431" y="108.401506" style="fill: #1f77b4; fill-opacity: 0.8; stroke: #1f77b4; stroke-opacity: 0.8"/>
     <use xlink:href="#m407895fa95" x="308.20482" y="83.456955" style="fill: #1f77b4; fill-opacity: 0.8; stroke: #1f77b4; stroke-opacity: 0.8"/>
     <use xlink:href="#m407895fa95" x="396.400157" y="61.006859" style="fill: #1f77b4; fill-opacity: 0.8; stroke: #1f77b4; stroke-opacity: 0.8"/>
    </g>
   </g>
   <g id="FillBetweenPolyCollection_1">
    <path d="M 68.929773 250.892811 
L 68.929773 287.112567 
L 72.939128 284.605057 
L 76.948483 282.094959 
L 80.957839 279.579746 
L 84.967194 276.86596 
L 88.976549 274.501572 
L 92.985905 271.922785 
L 96.99526 269.307409 
L 101.004615 266.688437 
L 105.013971 264.10181 
L 109.023326 261.451389 
L 113.032681 258.831159 
L 117.042037 256.195015 
L 121.051392 253.582217 
L 125.060747 250.978675 
L 129.070102 248.365029 
L 133.079458 245.747821 
L 137.088813 243.127608 
L 141.098168 240.507394 
L 145.107524 237.887181 
L 149.116879 235.266968 
L 153.126234 232.654063 
L 157.13559 230.161739 
L 161.144945 227.818413 
L 165.1543 225.475088 
L 169.163656 223.131763 
L 173.173011 220.783599 
L 177.182366 218.178305 
L 181.191722 215.351687 
L 185.201077 212.694598 
L 189.210432 210.269252 
L 193.219788 207.831894 
L 197.229143 205.228556 
L 201.238498 202.905264 
L 205.247853 200.395141 
L 209.257209 197.864185 
L 213.266564 195.568279 
L 217.275919 193.096439 
L 221.285275 190.738947 
L 225.29463 188.196165 
L 229.303985 185.911079 
L 233.313341 183.672885 
L 237.322696 181.342198 
L 241.332051 179.056235 
L 245.341407 176.770326 
L 249.350762 174.233315 
L 253.360117 171.850635 
L 257.369473 169.635389 
L 261.378828 167.468746 
L 265.388183 165.351956 
L 269.397539 163.144313 
L 273.406894 160.836633 
L 277.416249 158.495847 
L 281.425604 156.349489 
L 285.43496 154.146525 
L 289.444315 151.894504 
L 293.45367 149.71873 
L 297.463026 147.515527 
L 301.472381 145.325386 
L 305.481736 143.128246 
L 309.491092 140.980972 
L 313.500447 138.885116 
L 317.509802 136.822126 
L 321.519158 134.568362 
L 325.528513 132.540633 
L 329.537868 130.574023 
L 333.547224 128.490968 
L 337.556579 126.359353 
L 341.565934 124.153956 
L 345.57529 121.948559 
L 349.584645 119.743162 
L 353.594 117.612683 
L 357.603355 115.572222 
L 361.612711 113.609856 
L 365.622066 111.374803 
L 369.631421 109.299429 
L 373.640777 107.093554 
L 377.650132 105.158368 
L 381.659487 103.223181 
L 385.668843 101.282392 
L 389.678198 99.107972 
L 393.687553 97.025916 
L 397.696909 95.058721 
L 401.706264 93.091526 
L 405.715619 91.089284 
L 409.724975 89.012238 
L 413.73433 86.932338 
L 417.743685 84.840813 
L 421.753041 82.697695 
L 425.762396 80.694682 
L 429.771751 78.61804 
L 433.781106 76.540003 
L 437.790462 74.461297 
L 441.799817 72.41377 
L 445.809172 70.408442 
L 449.818528 68.385023 
L 453.827883 66.40096 
L 457.837238 64.398082 
L 461.846594 62.395204 
L 465.855949 60.392326 
L 465.855949 21.165455 
L 465.855949 21.165455 
L 461.846594 23.831806 
L 457.837238 26.43663 
L 453.827883 28.93699 
L 449.818528 31.434645 
L 445.809172 33.9323 
L 441.799817 36.429955 
L 437.790462 38.931836 
L 433.781106 41.436627 
L 429.771751 43.92551 
L 425.762396 46.368232 
L 421.753041 48.894072 
L 417.743685 51.455792 
L 413.73433 53.960583 
L 409.724975 56.544147 
L 405.715619 59.153954 
L 401.706264 61.594909 
L 397.696909 64.051727 
L 393.687553 66.439937 
L 389.678198 68.814401 
L 385.668843 71.220497 
L 381.659487 73.703544 
L 377.650132 76.04147 
L 373.640777 78.628638 
L 369.631421 81.316982 
L 365.622066 83.972598 
L 361.612711 86.292673 
L 357.603355 88.592503 
L 353.594 91.080471 
L 349.584645 93.631537 
L 345.57529 96.108432 
L 341.565934 98.578346 
L 337.556579 100.801143 
L 333.547224 103.103349 
L 329.537868 105.458333 
L 325.528513 107.7845 
L 321.519158 110.168301 
L 317.509802 112.523285 
L 313.500447 114.960687 
L 309.491092 117.233253 
L 305.481736 119.576075 
L 301.472381 121.936844 
L 297.463026 124.298205 
L 293.45367 126.669298 
L 289.444315 129.061696 
L 285.43496 131.446892 
L 281.425604 133.854512 
L 277.416249 136.261844 
L 273.406894 138.448775 
L 269.397539 140.8075 
L 265.388183 143.166225 
L 261.378828 145.570278 
L 257.369473 147.883843 
L 253.360117 150.242401 
L 249.350762 152.601127 
L 245.341407 154.959852 
L 241.332051 157.266315 
L 237.322696 159.606782 
L 233.313341 161.946436 
L 229.303985 164.323256 
L 225.29463 166.60657 
L 221.285275 168.857019 
L 217.275919 170.8989 
L 213.266564 173.32172 
L 209.257209 175.382637 
L 205.247853 177.68588 
L 201.238498 179.8355 
L 197.229143 181.923963 
L 193.219788 184.136569 
L 189.210432 186.282568 
L 185.201077 188.428567 
L 181.191722 190.574566 
L 177.182366 192.72553 
L 173.173011 194.787429 
L 169.163656 197.027795 
L 165.1543 199.173974 
L 161.144945 201.322084 
L 157.13559 203.47625 
L 153.126234 205.677418 
L 149.116879 207.782313 
L 145.107524 209.920235 
L 141.098168 212.065886 
L 137.088813 214.211876 
L 133.079458 216.192164 
L 129.070102 218.118993 
L 125.060747 220.317983 
L 121.051392 222.517213 
L 117.042037 224.716443 
L 113.032681 226.915673 
L 109.023326 229.114903 
L 105.013971 231.314133 
L 101.004615 233.53709 
L 96.99526 235.711138 
L 92.985905 237.908421 
L 88.976549 240.105704 
L 84.967194 242.302986 
L 80.957839 244.500269 
L 76.948483 246.697552 
L 72.939128 248.797441 
L 68.929773 250.892811 
z
" clip-path="url(#p0c87110775)" style="fill: #1f77b4; fill-opacity: 0.15"/>
   </g>
   <g id="PathCollection_2">
    <defs>
     <path id="mbf206df5e1" d="M 0 -3 
L -3 3 
L 3 3 
z
" style="stroke: #ff7f0e; stroke-opacity: 0.8"/>
    </defs>
    <g clip-path="url(#p0c87110775)">
     <use xlink:href="#mbf206df5e1" x="195.044387" y="290.496725" style="fill: #ff7f0e; fill-opacity: 0.8; stroke: #ff7f0e; stroke-opacity: 0.8"/>
     <use xlink:href="#mbf206df5e1" x="239.157776" y="249.338217" style="fill: #ff7f0e; fill-opacity: 0.8; stroke: #ff7f0e; stroke-opacity: 0.8"/>
     <use xlink:href="#mbf206df5e1" x="283.271166" y="213.168618" style="fill: #ff7f0e; fill-opacity: 0.8; stroke: #ff7f0e; stroke-opacity: 0.8"/>
     <use xlink:href="#mbf206df5e1" x="327.353113" y="178.246247" style="fill: #ff7f0e; fill-opacity: 0.8; stroke: #ff7f0e; stroke-opacity: 0.8"/>
     <use xlink:href="#mbf206df5e1" x="371.466502" y="147.065559" style="fill: #ff7f0e; fill-opacity: 0.8; stroke: #ff7f0e; stroke-opacity: 0.8"/>
     <use xlink:href="#mbf206df5e1" x="415.579891" y="118.379326" style="fill: #ff7f0e; fill-opacity: 0.8; stroke: #ff7f0e; stroke-opacity: 0.8"/>
     <use xlink:href="#mbf206df5e1" x="459.661838" y="90.94032" style="fill: #ff7f0e; fill-opacity: 0.8; stroke: #ff7f0e; stroke-opacity: 0.8"/>
     <use xlink:href="#mbf206df5e1" x="503.775227" y="65.99577" style="fill: #ff7f0e; fill-opacity: 0.8; stroke: #ff7f0e; stroke-opacity: 0.8"/>
     <use xlink:href="#mbf206df5e1" x="239.157776" y="256.821582" style="fill: #ff7f0e; fill-opacity: 0.8; stroke: #ff7f0e; stroke-opacity: 0.8"/>
     <use xlink:href="#mbf206df5e1" x="327.353113" y="189.471295" style="fill: #ff7f0e; fill-opacity: 0.8; stroke: #ff7f0e; stroke-opacity: 0.8"/>
     <use xlink:href="#mbf206df5e1" x="195.044387" y="300.474545" style="fill: #ff7f0e; fill-opacity: 0.8; stroke: #ff7f0e; stroke-opacity: 0.8"/>
     <use xlink:href="#mbf206df5e1" x="283.271166" y="235.618714" style="fill: #ff7f0e; fill-opacity: 0.8; stroke: #ff7f0e; stroke-opacity: 0.8"/>
    </g>
   </g>
   <g id="FillBetweenPolyCollection_2">
    <path d="M 195.044387 280.107426 
L 195.044387 297.32396 
L 198.162881 294.828453 
L 201.281374 292.32891 
L 204.399867 289.807441 
L 207.518361 287.227354 
L 210.636854 284.691534 
L 213.755347 282.288143 
L 216.873841 279.61852 
L 219.992334 277.080089 
L 223.110827 274.541657 
L 226.229321 272.063448 
L 229.347814 269.646869 
L 232.466307 267.113845 
L 235.584801 264.641555 
L 238.703294 262.12031 
L 241.821787 259.576954 
L 244.940281 257.165562 
L 248.058774 254.721558 
L 251.177267 252.307028 
L 254.295761 249.785537 
L 257.414254 247.361301 
L 260.532747 244.817677 
L 263.651241 242.416397 
L 266.769734 239.983334 
L 269.888227 237.523779 
L 273.006721 235.112357 
L 276.125214 232.701868 
L 279.243707 230.292744 
L 282.362201 227.884851 
L 285.480694 225.46936 
L 288.599187 223.066807 
L 291.717681 220.659305 
L 294.836174 218.250188 
L 297.954667 215.839743 
L 301.073161 213.443798 
L 304.191654 211.115731 
L 307.310147 208.787664 
L 310.428641 206.458792 
L 313.547134 204.132195 
L 316.665627 201.730534 
L 319.784121 199.405757 
L 322.902614 196.981704 
L 326.021107 194.636303 
L 329.139601 192.238676 
L 332.258094 189.868428 
L 335.376587 187.55123 
L 338.495081 185.173282 
L 341.613574 182.765926 
L 344.732067 180.373804 
L 347.850561 177.998092 
L 350.969054 175.668263 
L 354.087547 173.290045 
L 357.206041 170.961937 
L 360.324534 168.624983 
L 363.443027 166.27264 
L 366.561521 163.91965 
L 369.680014 161.565336 
L 372.798507 159.178271 
L 375.917001 156.791207 
L 379.035494 154.429416 
L 382.153987 152.149577 
L 385.272481 149.801571 
L 388.390974 147.450824 
L 391.509467 145.125366 
L 394.627961 142.831475 
L 397.746454 140.5309 
L 400.864947 138.17031 
L 403.983441 135.809719 
L 407.101934 133.449129 
L 410.220427 131.166775 
L 413.338921 128.971274 
L 416.457414 126.643477 
L 419.575907 124.249834 
L 422.694401 121.932134 
L 425.812894 119.598671 
L 428.931387 117.292429 
L 432.049881 114.985837 
L 435.168374 112.677662 
L 438.286867 110.374767 
L 441.405361 108.078561 
L 444.523854 105.764178 
L 447.642347 103.459044 
L 450.760841 101.153463 
L 453.879334 98.847973 
L 456.997827 96.543275 
L 460.116321 94.238577 
L 463.234814 91.96582 
L 466.353307 89.705406 
L 469.471801 87.430738 
L 472.590294 85.164661 
L 475.708787 82.897608 
L 478.827281 80.634578 
L 481.945774 78.417666 
L 485.064267 76.16195 
L 488.182761 73.931936 
L 491.301254 71.624676 
L 494.419747 69.377232 
L 497.538241 67.124579 
L 500.656734 64.885371 
L 503.775227 62.692248 
L 503.775227 38.353866 
L 503.775227 38.353866 
L 500.656734 40.941966 
L 497.538241 43.530066 
L 494.419747 46.118167 
L 491.301254 48.706267 
L 488.182761 51.294367 
L 485.064267 53.882467 
L 481.945774 56.470568 
L 478.827281 59.058668 
L 475.708787 61.646768 
L 472.590294 64.234868 
L 469.471801 66.822968 
L 466.353307 69.411069 
L 463.234814 71.999169 
L 460.116321 74.565115 
L 456.997827 77.115784 
L 453.879334 79.667174 
L 450.760841 82.28992 
L 447.642347 84.93335 
L 444.523854 87.52777 
L 441.405361 90.11587 
L 438.286867 92.703971 
L 435.168374 95.273512 
L 432.049881 97.821104 
L 428.931387 100.368697 
L 425.812894 102.916289 
L 422.694401 105.463882 
L 419.575907 108.011474 
L 416.457414 110.56784 
L 413.338921 113.230425 
L 410.220427 115.826821 
L 407.101934 118.454518 
L 403.983441 121.047127 
L 400.864947 123.618719 
L 397.746454 126.190311 
L 394.627961 128.761903 
L 391.509467 131.333495 
L 388.390974 133.905087 
L 385.272481 136.476678 
L 382.153987 139.04827 
L 379.035494 141.619862 
L 375.917001 144.115638 
L 372.798507 146.674833 
L 369.680014 149.255586 
L 366.561521 151.838825 
L 363.443027 154.361865 
L 360.324534 156.881759 
L 357.206041 159.418314 
L 354.087547 162.047201 
L 350.969054 164.630821 
L 347.850561 167.214801 
L 344.732067 169.799947 
L 341.613574 172.32991 
L 338.495081 174.701741 
L 335.376587 177.300178 
L 332.258094 179.685229 
L 329.139601 182.071142 
L 326.021107 184.561326 
L 322.902614 186.960405 
L 319.784121 189.343566 
L 316.665627 191.864507 
L 313.547134 194.344937 
L 310.428641 196.663068 
L 307.310147 198.95093 
L 304.191654 201.280312 
L 301.073161 203.569194 
L 297.954667 205.857853 
L 294.836174 208.190283 
L 291.717681 210.480876 
L 288.599187 212.748734 
L 285.480694 215.042181 
L 282.362201 217.343474 
L 279.243707 219.644766 
L 276.125214 221.946058 
L 273.006721 224.211538 
L 269.888227 226.453032 
L 266.769734 228.668742 
L 263.651241 230.852772 
L 260.532747 233.036801 
L 257.414254 235.220831 
L 254.295761 237.40486 
L 251.177267 239.58889 
L 248.058774 241.794766 
L 244.940281 244.076288 
L 241.821787 246.357873 
L 238.703294 248.64061 
L 235.584801 250.923347 
L 232.466307 253.206085 
L 229.347814 255.488822 
L 226.229321 257.771559 
L 223.110827 260.054297 
L 219.992334 262.337034 
L 216.873841 264.577806 
L 213.755347 266.792658 
L 210.636854 269.007509 
L 207.518361 271.22236 
L 204.399867 273.437212 
L 201.281374 275.652063 
L 198.162881 277.866915 
L 195.044387 280.107426 
z
" clip-path="url(#p0c87110775)" style="fill: #ff7f0e; fill-opacity: 0.15"/>
   </g>
   <g id="matplotlib.axis_1">
    <g id="xtick_1">
     <g id="line2d_1">
      <defs>
       <path id="m167c85bc0c" d="M 0 0 
L 0 3.5 
" style="stroke: #000000; stroke-width: 0.8"/>
      </defs>
      <g>
       <use xlink:href="#m167c85bc0c" x="93.957754" y="314.44" style="stroke: #000000; stroke-width: 0.8"/>
      </g>
     </g>
     <g id="text_1">
      <!-- 40 -->
      <g transform="translate(87.595254 329.038437) scale(0.1 -0.1)">
       <defs>
        <path id="DejaVuSans-34" d="M 2419 4116 
L 825 1625 
L 2419 1625 
L 2419 4116 
z
M 2253 4666 
L 3047 4666 
L 3047 1625 
L 3713 1625 
L 3713 1100 
L 3047 1100 
L 3047 0 
L 2419 0 
L 2419 1100 
L 313 1100 
L 313 1709 
L 2253 4666 
z
" transform="scale(0.015625)"/>
        <path id="DejaVuSans-30" d="M 2034 4250 
Q 1547 4250 1301 3770 
Q 1056 3291 1056 2328 
Q 1056 1369 1301 889 
Q 1547 409 2034 409 
Q 2525 409 2770 889 
Q 3016 1369 3016 2328 
Q 3016 3291 2770 3770 
Q 2525 4250 2034 4250 
z
M 2034 4750 
Q 2819 4750 3233 4129 
Q 3647 3509 3647 2328 
Q 3647 1150 3233 529 
Q 2819 -91 2034 -91 
Q 1250 -91 836 529 
Q 422 1150 422 2328 
Q 422 3509 836 4129 
Q 1250 4750 2034 4750 
z
" transform="scale(0.015625)"/>
       </defs>
       <use xlink:href="#DejaVuSans-34"/>
       <use xlink:href="#DejaVuSans-30" transform="translate(63.623047 0)"/>
      </g>
     </g>
    </g>
    <g id="xtick_2">
     <g id="line2d_2">
      <g>
       <use xlink:href="#m167c85bc0c" x="156.842129" y="314.44" style="stroke: #000000; stroke-width: 0.8"/>
      </g>
     </g>
     <g id="text_2">
      <!-- 60 -->
      <g transform="translate(150.479629 329.038437) scale(0.1 -0.1)">
       <defs>
        <path id="DejaVuSans-36" d="M 2113 2584 
Q 1688 2584 1439 2293 
Q 1191 2003 1191 1497 
Q 1191 994 1439 701 
Q 1688 409 2113 409 
Q 2538 409 2786 701 
Q 3034 994 3034 1497 
Q 3034 2003 2786 2293 
Q 2538 2584 2113 2584 
z
M 3366 4563 
L 3366 3988 
Q 3128 4100 2886 4159 
Q 2644 4219 2406 4219 
Q 1781 4219 1451 3797 
Q 1122 3375 1075 2522 
Q 1259 2794 1537 2939 
Q 1816 3084 2150 3084 
Q 2853 3084 3261 2657 
Q 3669 2231 3669 1497 
Q 3669 778 3244 343 
Q 2819 -91 2113 -91 
Q 1303 -91 875 529 
Q 447 1150 447 2328 
Q 447 3434 972 4092 
Q 1497 4750 2381 4750 
Q 2619 4750 2861 4703 
Q 3103 4656 3366 4563 
z
" transform="scale(0.015625)"/>
       </defs>
       <use xlink:href="#DejaVuSans-36"/>
       <use xlink:href="#DejaVuSans-30" transform="translate(63.623047 0)"/>
      </g>
     </g>
    </g>
    <g id="xtick_3">
     <g id="line2d_3">
      <g>
       <use xlink:href="#m167c85bc0c" x="219.726504" y="314.44" style="stroke: #000000; stroke-width: 0.8"/>
      </g>
     </g>
     <g id="text_3">
      <!-- 80 -->
      <g transform="translate(213.364004 329.038437) scale(0.1 -0.1)">
       <defs>
        <path id="DejaVuSans-38" d="M 2034 2216 
Q 1584 2216 1326 1975 
Q 1069 1734 1069 1313 
Q 1069 891 1326 650 
Q 1584 409 2034 409 
Q 2484 409 2743 651 
Q 3003 894 3003 1313 
Q 3003 1734 2745 1975 
Q 2488 2216 2034 2216 
z
M 1403 2484 
Q 997 2584 770 2862 
Q 544 3141 544 3541 
Q 544 4100 942 4425 
Q 1341 4750 2034 4750 
Q 2731 4750 3128 4425 
Q 3525 4100 3525 3541 
Q 3525 3141 3298 2862 
Q 3072 2584 2669 2484 
Q 3125 2378 3379 2068 
Q 3634 1759 3634 1313 
Q 3634 634 3220 271 
Q 2806 -91 2034 -91 
Q 1263 -91 848 271 
Q 434 634 434 1313 
Q 434 1759 690 2068 
Q 947 2378 1403 2484 
z
M 1172 3481 
Q 1172 3119 1398 2916 
Q 1625 2713 2034 2713 
Q 2441 2713 2670 2916 
Q 2900 3119 2900 3481 
Q 2900 3844 2670 4047 
Q 2441 4250 2034 4250 
Q 1625 4250 1398 4047 
Q 1172 3844 1172 3481 
z
" transform="scale(0.015625)"/>
       </defs>
       <use xlink:href="#DejaVuSans-38"/>
       <use xlink:href="#DejaVuSans-30" transform="translate(63.623047 0)"/>
      </g>
     </g>
    </g>
    <g id="xtick_4">
     <g id="line2d_4">
      <g>
       <use xlink:href="#m167c85bc0c" x="282.61088" y="314.44" style="stroke: #000000; stroke-width: 0.8"/>
      </g>
     </g>
     <g id="text_4">
      <!-- 100 -->
      <g transform="translate(273.06713 329.038437) scale(0.1 -0.1)">
       <defs>
        <path id="DejaVuSans-31" d="M 794 531 
L 1825 531 
L 1825 4091 
L 703 3866 
L 703 4441 
L 1819 4666 
L 2450 4666 
L 2450 531 
L 3481 531 
L 3481 0 
L 794 0 
L 794 531 
z
" transform="scale(0.015625)"/>
       </defs>
       <use xlink:href="#DejaVuSans-31"/>
       <use xlink:href="#DejaVuSans-30" transform="translate(63.623047 0)"/>
       <use xlink:href="#DejaVuSans-30" transform="translate(127.246094 0)"/>
      </g>
     </g>
    </g>
    <g id="xtick_5">
     <g id="line2d_5">
      <g>
       <use xlink:href="#m167c85bc0c" x="345.495255" y="314.44" style="stroke: #000000; stroke-width: 0.8"/>
      </g>
     </g>
     <g id="text_5">
      <!-- 120 -->
      <g transform="translate(335.951505 329.038437) scale(0.1 -0.1)">
       <defs>
        <path id="DejaVuSans-32" d="M 1228 531 
L 3431 531 
L 3431 0 
L 469 0 
L 469 531 
Q 828 903 1448 1529 
Q 2069 2156 2228 2338 
Q 2531 2678 2651 2914 
Q 2772 3150 2772 3378 
Q 2772 3750 2511 3984 
Q 2250 4219 1831 4219 
Q 1534 4219 1204 4116 
Q 875 4013 500 3803 
L 500 4441 
Q 881 4594 1212 4672 
Q 1544 4750 1819 4750 
Q 2544 4750 2975 4387 
Q 3406 4025 3406 3419 
Q 3406 3131 3298 2873 
Q 3191 2616 2906 2266 
Q 2828 2175 2409 1742 
Q 1991 1309 1228 531 
z
" transform="scale(0.015625)"/>
       </defs>
       <use xlink:href="#DejaVuSans-31"/>
       <use xlink:href="#DejaVuSans-32" transform="translate(63.623047 0)"/>
       <use xlink:href="#DejaVuSans-30" transform="translate(127.246094 0)"/>
      </g>
     </g>
    </g>
    <g id="xtick_6">
     <g id="line2d_6">
      <g>
       <use xlink:href="#m167c85bc0c" x="408.37963" y="314.44" style="stroke: #000000; stroke-width: 0.8"/>
      </g>
     </g>
     <g id="text_6">
      <!-- 140 -->
      <g transform="translate(398.83588 329.038437) scale(0.1 -0.1)">
       <use xlink:href="#DejaVuSans-31"/>
       <use xlink:href="#DejaVuSans-34" transform="translate(63.623047 0)"/>
       <use xlink:href="#DejaVuSans-30" transform="translate(127.246094 0)"/>
      </g>
     </g>
    </g>
    <g id="xtick_7">
     <g id="line2d_7">
      <g>
       <use xlink:href="#m167c85bc0c" x="471.264005" y="314.44" style="stroke: #000000; stroke-width: 0.8"/>
      </g>
     </g>
     <g id="text_7">
      <!-- 160 -->
      <g transform="translate(461.720255 329.038437) scale(0.1 -0.1)">
       <use xlink:href="#DejaVuSans-31"/>
       <use xlink:href="#DejaVuSans-36" transform="translate(63.623047 0)"/>
       <use xlink:href="#DejaVuSans-30" transform="translate(127.246094 0)"/>
      </g>
     </g>
    </g>
    <g id="text_8">
     <!-- MW, g/mol -->
     <g transform="translate(259.739219 342.716562) scale(0.1 -0.1)">
      <defs>
       <path id="DejaVuSans-4d" d="M 628 4666 
L 1569 4666 
L 2759 1491 
L 3956 4666 
L 4897 4666 
L 4897 0 
L 4281 0 
L 4281 4097 
L 3078 897 
L 2444 897 
L 1241 4097 
L 1241 0 
L 628 0 
L 628 4666 
z
" transform="scale(0.015625)"/>
       <path id="DejaVuSans-57" d="M 213 4666 
L 850 4666 
L 1831 722 
L 2809 4666 
L 3519 4666 
L 4500 722 
L 5478 4666 
L 6119 4666 
L 4947 0 
L 4153 0 
L 3169 4050 
L 2175 0 
L 1381 0 
L 213 4666 
z
" transform="scale(0.015625)"/>
       <path id="DejaVuSans-2c" d="M 750 794 
L 1409 794 
L 1409 256 
L 897 -744 
L 494 -744 
L 750 256 
L 750 794 
z
" transform="scale(0.015625)"/>
       <path id="DejaVuSans-20" transform="scale(0.015625)"/>
       <path id="DejaVuSans-67" d="M 2906 1791 
Q 2906 2416 2648 2759 
Q 2391 3103 1925 3103 
Q 1463 3103 1205 2759 
Q 947 2416 947 1791 
Q 947 1169 1205 825 
Q 1463 481 1925 481 
Q 2391 481 2648 825 
Q 2906 1169 2906 1791 
z
M 3481 434 
Q 3481 -459 3084 -895 
Q 2688 -1331 1869 -1331 
Q 1566 -1331 1297 -1286 
Q 1028 -1241 775 -1147 
L 775 -588 
Q 1028 -725 1275 -790 
Q 1522 -856 1778 -856 
Q 2344 -856 2625 -561 
Q 2906 -266 2906 331 
L 2906 616 
Q 2728 306 2450 153 
Q 2172 0 1784 0 
Q 1141 0 747 490 
Q 353 981 353 1791 
Q 353 2603 747 3093 
Q 1141 3584 1784 3584 
Q 2172 3584 2450 3431 
Q 2728 3278 2906 2969 
L 2906 3500 
L 3481 3500 
L 3481 434 
z
" transform="scale(0.015625)"/>
       <path id="DejaVuSans-2f" d="M 1625 4666 
L 2156 4666 
L 531 -594 
L 0 -594 
L 1625 4666 
z
" transform="scale(0.015625)"/>
       <path id="DejaVuSans-6d" d="M 3328 2828 
Q 3544 3216 3844 3400 
Q 4144 3584 4550 3584 
Q 5097 3584 5394 3201 
Q 5691 2819 5691 2113 
L 5691 0 
L 5113 0 
L 5113 2094 
Q 5113 2597 4934 2840 
Q 4756 3084 4391 3084 
Q 3944 3084 3684 2787 
Q 3425 2491 3425 1978 
L 3425 0 
L 2847 0 
L 2847 2094 
Q 2847 2600 2669 2842 
Q 2491 3084 2119 3084 
Q 1678 3084 1418 2786 
Q 1159 2488 1159 1978 
L 1159 0 
L 581 0 
L 581 3500 
L 1159 3500 
L 1159 2956 
Q 1356 3278 1631 3431 
Q 1906 3584 2284 3584 
Q 2666 3584 2933 3390 
Q 3200 3197 3328 2828 
z
" transform="scale(0.015625)"/>
       <path id="DejaVuSans-6f" d="M 1959 3097 
Q 1497 3097 1228 2736 
Q 959 2375 959 1747 
Q 959 1119 1226 758 
Q 1494 397 1959 397 
Q 2419 397 2687 759 
Q 2956 1122 2956 1747 
Q 2956 2369 2687 2733 
Q 2419 3097 1959 3097 
z
M 1959 3584 
Q 2709 3584 3137 3096 
Q 3566 2609 3566 1747 
Q 3566 888 3137 398 
Q 2709 -91 1959 -91 
Q 1206 -91 779 398 
Q 353 888 353 1747 
Q 353 2609 779 3096 
Q 1206 3584 1959 3584 
z
" transform="scale(0.015625)"/>
       <path id="DejaVuSans-6c" d="M 603 4863 
L 1178 4863 
L 1178 0 
L 603 0 
L 603 4863 
z
" transform="scale(0.015625)"/>
      </defs>
      <use xlink:href="#DejaVuSans-4d"/>
      <use xlink:href="#DejaVuSans-57" transform="translate(86.279297 0)"/>
      <use xlink:href="#DejaVuSans-2c" transform="translate(185.15625 0)"/>
      <use xlink:href="#DejaVuSans-20" transform="translate(216.943359 0)"/>
      <use xlink:href="#DejaVuSans-67" transform="translate(248.730469 0)"/>
      <use xlink:href="#DejaVuSans-2f" transform="translate(312.207031 0)"/>
      <use xlink:href="#DejaVuSans-6d" transform="translate(345.898438 0)"/>
      <use xlink:href="#DejaVuSans-6f" transform="translate(443.310547 0)"/>
      <use xlink:href="#DejaVuSans-6c" transform="translate(504.492188 0)"/>
     </g>
    </g>
   </g>
   <g id="matplotlib.axis_2">
    <g id="ytick_1">
     <g id="line2d_8">
      <defs>
       <path id="m94c2454fd6" d="M 0 0 
L -3.5 0 
" style="stroke: #000000; stroke-width: 0.8"/>
      </defs>
      <g>
       <use xlink:href="#m94c2454fd6" x="47.1875" y="273.03554" style="stroke: #000000; stroke-width: 0.8"/>
      </g>
     </g>
     <g id="text_9">
      <!-- 50 -->
      <g transform="translate(27.4625 276.834759) scale(0.1 -0.1)">
       <defs>
        <path id="DejaVuSans-35" d="M 691 4666 
L 3169 4666 
L 3169 4134 
L 1269 4134 
L 1269 2991 
Q 1406 3038 1543 3061 
Q 1681 3084 1819 3084 
Q 2600 3084 3056 2656 
Q 3513 2228 3513 1497 
Q 3513 744 3044 326 
Q 2575 -91 1722 -91 
Q 1428 -91 1123 -41 
Q 819 9 494 109 
L 494 744 
Q 775 591 1075 516 
Q 1375 441 1709 441 
Q 2250 441 2565 725 
Q 2881 1009 2881 1497 
Q 2881 1984 2565 2268 
Q 2250 2553 1709 2553 
Q 1456 2553 1204 2497 
Q 953 2441 691 2322 
L 691 4666 
z
" transform="scale(0.015625)"/>
       </defs>
       <use xlink:href="#DejaVuSans-35"/>
       <use xlink:href="#DejaVuSans-30" transform="translate(63.623047 0)"/>
      </g>
     </g>
    </g>
    <g id="ytick_2">
     <g id="line2d_9">
      <g>
       <use xlink:href="#m94c2454fd6" x="47.1875" y="210.674163" style="stroke: #000000; stroke-width: 0.8"/>
      </g>
     </g>
     <g id="text_10">
      <!-- 100 -->
      <g transform="translate(21.1 214.473382) scale(0.1 -0.1)">
       <use xlink:href="#DejaVuSans-31"/>
       <use xlink:href="#DejaVuSans-30" transform="translate(63.623047 0)"/>
       <use xlink:href="#DejaVuSans-30" transform="translate(127.246094 0)"/>
      </g>
     </g>
    </g>
    <g id="ytick_3">
     <g id="line2d_10">
      <g>
       <use xlink:href="#m94c2454fd6" x="47.1875" y="148.312787" style="stroke: #000000; stroke-width: 0.8"/>
      </g>
     </g>
     <g id="text_11">
      <!-- 150 -->
      <g transform="translate(21.1 152.112005) scale(0.1 -0.1)">
       <use xlink:href="#DejaVuSans-31"/>
       <use xlink:href="#DejaVuSans-35" transform="translate(63.623047 0)"/>
       <use xlink:href="#DejaVuSans-30" transform="translate(127.246094 0)"/>
      </g>
     </g>
    </g>
    <g id="ytick_4">
     <g id="line2d_11">
      <g>
       <use xlink:href="#m94c2454fd6" x="47.1875" y="85.95141" style="stroke: #000000; stroke-width: 0.8"/>
      </g>
     </g>
     <g id="text_12">
      <!-- 200 -->
      <g transform="translate(21.1 89.750629) scale(0.1 -0.1)">
       <use xlink:href="#DejaVuSans-32"/>
       <use xlink:href="#DejaVuSans-30" transform="translate(63.623047 0)"/>
       <use xlink:href="#DejaVuSans-30" transform="translate(127.246094 0)"/>
      </g>
     </g>
    </g>
    <g id="ytick_5">
     <g id="line2d_12">
      <g>
       <use xlink:href="#m94c2454fd6" x="47.1875" y="23.590033" style="stroke: #000000; stroke-width: 0.8"/>
      </g>
     </g>
     <g id="text_13">
      <!-- 250 -->
      <g transform="translate(21.1 27.389252) scale(0.1 -0.1)">
       <use xlink:href="#DejaVuSans-32"/>
       <use xlink:href="#DejaVuSans-35" transform="translate(63.623047 0)"/>
       <use xlink:href="#DejaVuSans-30" transform="translate(127.246094 0)"/>
      </g>
     </g>
    </g>
    <g id="text_14">
     <!-- bp, $^o$C -->
     <g transform="translate(15 176.17) rotate(-90) scale(0.1 -0.1)">
      <defs>
       <path id="DejaVuSans-62" d="M 3116 1747 
Q 3116 2381 2855 2742 
Q 2594 3103 2138 3103 
Q 1681 3103 1420 2742 
Q 1159 2381 1159 1747 
Q 1159 1113 1420 752 
Q 1681 391 2138 391 
Q 2594 391 2855 752 
Q 3116 1113 3116 1747 
z
M 1159 2969 
Q 1341 3281 1617 3432 
Q 1894 3584 2278 3584 
Q 2916 3584 3314 3078 
Q 3713 2572 3713 1747 
Q 3713 922 3314 415 
Q 2916 -91 2278 -91 
Q 1894 -91 1617 61 
Q 1341 213 1159 525 
L 1159 0 
L 581 0 
L 581 4863 
L 1159 4863 
L 1159 2969 
z
" transform="scale(0.015625)"/>
       <path id="DejaVuSans-70" d="M 1159 525 
L 1159 -1331 
L 581 -1331 
L 581 3500 
L 1159 3500 
L 1159 2969 
Q 1341 3281 1617 3432 
Q 1894 3584 2278 3584 
Q 2916 3584 3314 3078 
Q 3713 2572 3713 1747 
Q 3713 922 3314 415 
Q 2916 -91 2278 -91 
Q 1894 -91 1617 61 
Q 1341 213 1159 525 
z
M 3116 1747 
Q 3116 2381 2855 2742 
Q 2594 3103 2138 3103 
Q 1681 3103 1420 2742 
Q 1159 2381 1159 1747 
Q 1159 1113 1420 752 
Q 1681 391 2138 391 
Q 2594 391 2855 752 
Q 3116 1113 3116 1747 
z
" transform="scale(0.015625)"/>
       <path id="DejaVuSans-Oblique-6f" d="M 1625 -91 
Q 1009 -91 651 289 
Q 294 669 294 1325 
Q 294 1706 417 2101 
Q 541 2497 738 2766 
Q 1047 3184 1428 3384 
Q 1809 3584 2291 3584 
Q 2888 3584 3255 3212 
Q 3622 2841 3622 2241 
Q 3622 1825 3500 1412 
Q 3378 1000 3181 728 
Q 2875 309 2494 109 
Q 2113 -91 1625 -91 
z
M 891 1344 
Q 891 869 1089 633 
Q 1288 397 1691 397 
Q 2269 397 2648 901 
Q 3028 1406 3028 2181 
Q 3028 2634 2825 2865 
Q 2622 3097 2228 3097 
Q 1903 3097 1650 2945 
Q 1397 2794 1197 2484 
Q 1050 2253 970 1956 
Q 891 1659 891 1344 
z
" transform="scale(0.015625)"/>
       <path id="DejaVuSans-43" d="M 4122 4306 
L 4122 3641 
Q 3803 3938 3442 4084 
Q 3081 4231 2675 4231 
Q 1875 4231 1450 3742 
Q 1025 3253 1025 2328 
Q 1025 1406 1450 917 
Q 1875 428 2675 428 
Q 3081 428 3442 575 
Q 3803 722 4122 1019 
L 4122 359 
Q 3791 134 3420 21 
Q 3050 -91 2638 -91 
Q 1578 -91 968 557 
Q 359 1206 359 2328 
Q 359 3453 968 4101 
Q 1578 4750 2638 4750 
Q 3056 4750 3426 4639 
Q 3797 4528 4122 4306 
z
" transform="scale(0.015625)"/>
      </defs>
      <use xlink:href="#DejaVuSans-62" transform="translate(0 0.51875)"/>
      <use xlink:href="#DejaVuSans-70" transform="translate(63.476562 0.51875)"/>
      <use xlink:href="#DejaVuSans-2c" transform="translate(126.953125 0.51875)"/>
      <use xlink:href="#DejaVuSans-20" transform="translate(158.740234 0.51875)"/>
      <use xlink:href="#DejaVuSans-Oblique-6f" transform="translate(191.484375 38.8) scale(0.7)"/>
      <use xlink:href="#DejaVuSans-43" transform="translate(237.045898 0.51875)"/>
     </g>
    </g>
   </g>
   <g id="line2d_13">
    <path d="M 68.929773 264.91664 
L 72.939128 262.664922 
L 76.948483 260.413203 
L 80.957839 258.161485 
L 84.967194 255.909767 
L 88.976549 253.658048 
L 92.985905 251.40633 
L 96.99526 249.154612 
L 101.004615 246.902893 
L 105.013971 244.651175 
L 109.023326 242.399457 
L 113.032681 240.147738 
L 117.042037 237.89602 
L 121.051392 235.644301 
L 125.060747 233.392583 
L 129.070102 231.140865 
L 133.079458 228.889146 
L 137.088813 226.637428 
L 141.098168 224.38571 
L 145.107524 222.133991 
L 149.116879 219.882273 
L 153.126234 217.630555 
L 157.13559 215.378836 
L 161.144945 213.127118 
L 165.1543 210.8754 
L 169.163656 208.623681 
L 173.173011 206.371963 
L 177.182366 204.120244 
L 181.191722 201.868526 
L 185.201077 199.616808 
L 189.210432 197.365089 
L 193.219788 195.113371 
L 197.229143 192.861653 
L 201.238498 190.609934 
L 205.247853 188.358216 
L 209.257209 186.106498 
L 213.266564 183.854779 
L 217.275919 181.603061 
L 221.285275 179.351343 
L 225.29463 177.099624 
L 229.303985 174.847906 
L 233.313341 172.596187 
L 237.322696 170.344469 
L 241.332051 168.092751 
L 245.341407 165.841032 
L 249.350762 163.589314 
L 253.360117 161.337596 
L 257.369473 159.085877 
L 261.378828 156.834159 
L 265.388183 154.582441 
L 269.397539 152.330722 
L 273.406894 150.079004 
L 277.416249 147.827286 
L 281.425604 145.575567 
L 285.43496 143.323849 
L 289.444315 141.07213 
L 293.45367 138.820412 
L 297.463026 136.568694 
L 301.472381 134.316975 
L 305.481736 132.065257 
L 309.491092 129.813539 
L 313.500447 127.56182 
L 317.509802 125.310102 
L 321.519158 123.058384 
L 325.528513 120.806665 
L 329.537868 118.554947 
L 333.547224 116.303229 
L 337.556579 114.05151 
L 341.565934 111.799792 
L 345.57529 109.548073 
L 349.584645 107.296355 
L 353.594 105.044637 
L 357.603355 102.792918 
L 361.612711 100.5412 
L 365.622066 98.289482 
L 369.631421 96.037763 
L 373.640777 93.786045 
L 377.650132 91.534327 
L 381.659487 89.282608 
L 385.668843 87.03089 
L 389.678198 84.779172 
L 393.687553 82.527453 
L 397.696909 80.275735 
L 401.706264 78.024017 
L 405.715619 75.772298 
L 409.724975 73.52058 
L 413.73433 71.268861 
L 417.743685 69.017143 
L 421.753041 66.765425 
L 425.762396 64.513706 
L 429.771751 62.261988 
L 433.781106 60.01027 
L 437.790462 57.758551 
L 441.799817 55.506833 
L 445.809172 53.255115 
L 449.818528 51.003396 
L 453.827883 48.751678 
L 457.837238 46.49996 
L 461.846594 44.248241 
L 465.855949 41.996523 
" clip-path="url(#p0c87110775)" style="fill: none; stroke: #1f77b4; stroke-width: 2.25; stroke-linecap: square"/>
   </g>
   <g id="line2d_14">
    <path d="M 195.044387 289.208253 
L 198.162881 286.849046 
L 201.281374 284.48984 
L 204.399867 282.130633 
L 207.518361 279.771427 
L 210.636854 277.41222 
L 213.755347 275.053013 
L 216.873841 272.693807 
L 219.992334 270.3346 
L 223.110827 267.975394 
L 226.229321 265.616187 
L 229.347814 263.25698 
L 232.466307 260.897774 
L 235.584801 258.538567 
L 238.703294 256.179361 
L 241.821787 253.820154 
L 244.940281 251.460947 
L 248.058774 249.101741 
L 251.177267 246.742534 
L 254.295761 244.383328 
L 257.414254 242.024121 
L 260.532747 239.664915 
L 263.651241 237.305708 
L 266.769734 234.946501 
L 269.888227 232.587295 
L 273.006721 230.228088 
L 276.125214 227.868882 
L 279.243707 225.509675 
L 282.362201 223.150468 
L 285.480694 220.791262 
L 288.599187 218.432055 
L 291.717681 216.072849 
L 294.836174 213.713642 
L 297.954667 211.354436 
L 301.073161 208.995229 
L 304.191654 206.636022 
L 307.310147 204.276816 
L 310.428641 201.917609 
L 313.547134 199.558403 
L 316.665627 197.199196 
L 319.784121 194.839989 
L 322.902614 192.480783 
L 326.021107 190.121576 
L 329.139601 187.76237 
L 332.258094 185.403163 
L 335.376587 183.043956 
L 338.495081 180.68475 
L 341.613574 178.325543 
L 344.732067 175.966337 
L 347.850561 173.60713 
L 350.969054 171.247924 
L 354.087547 168.888717 
L 357.206041 166.52951 
L 360.324534 164.170304 
L 363.443027 161.811097 
L 366.561521 159.451891 
L 369.680014 157.092684 
L 372.798507 154.733477 
L 375.917001 152.374271 
L 379.035494 150.015064 
L 382.153987 147.655858 
L 385.272481 145.296651 
L 388.390974 142.937444 
L 391.509467 140.578238 
L 394.627961 138.219031 
L 397.746454 135.859825 
L 400.864947 133.500618 
L 403.983441 131.141412 
L 407.101934 128.782205 
L 410.220427 126.422998 
L 413.338921 124.063792 
L 416.457414 121.704585 
L 419.575907 119.345379 
L 422.694401 116.986172 
L 425.812894 114.626965 
L 428.931387 112.267759 
L 432.049881 109.908552 
L 435.168374 107.549346 
L 438.286867 105.190139 
L 441.405361 102.830933 
L 444.523854 100.471726 
L 447.642347 98.112519 
L 450.760841 95.753313 
L 453.879334 93.394106 
L 456.997827 91.0349 
L 460.116321 88.675693 
L 463.234814 86.316486 
L 466.353307 83.95728 
L 469.471801 81.598073 
L 472.590294 79.238867 
L 475.708787 76.87966 
L 478.827281 74.520453 
L 481.945774 72.161247 
L 485.064267 69.80204 
L 488.182761 67.442834 
L 491.301254 65.083627 
L 494.419747 62.724421 
L 497.538241 60.365214 
L 500.656734 58.006007 
L 503.775227 55.646801 
" clip-path="url(#p0c87110775)" style="fill: none; stroke: #ff7f0e; stroke-width: 2.25; stroke-linecap: square"/>
   </g>
   <g id="patch_3">
    <path d="M 47.1875 314.44 
L 47.1875 7.2 
" style="fill: none; stroke: #000000; stroke-width: 0.8; stroke-linejoin: miter; stroke-linecap: square"/>
   </g>
   <g id="patch_4">
    <path d="M 47.1875 314.44 
L 525.5175 314.44 
" style="fill: none; stroke: #000000; stroke-width: 0.8; stroke-linejoin: miter; stroke-linecap: square"/>
   </g>
   <g id="legend_1">
    <g id="patch_5">
     <path d="M 54.1875 59.234375 
L 121.945312 59.234375 
Q 123.945312 59.234375 123.945312 57.234375 
L 123.945312 14.2 
Q 123.945312 12.2 121.945312 12.2 
L 54.1875 12.2 
Q 52.1875 12.2 52.1875 14.2 
L 52.1875 57.234375 
Q 52.1875 59.234375 54.1875 59.234375 
z
" style="fill: #ffffff; opacity: 0.8; stroke: #cccccc; stroke-linejoin: miter"/>
    </g>
    <g id="text_15">
     <!-- type -->
     <g transform="translate(76.896094 23.798437) scale(0.1 -0.1)">
      <defs>
       <path id="DejaVuSans-74" d="M 1172 4494 
L 1172 3500 
L 2356 3500 
L 2356 3053 
L 1172 3053 
L 1172 1153 
Q 1172 725 1289 603 
Q 1406 481 1766 481 
L 2356 481 
L 2356 0 
L 1766 0 
Q 1100 0 847 248 
Q 594 497 594 1153 
L 594 3053 
L 172 3053 
L 172 3500 
L 594 3500 
L 594 4494 
L 1172 4494 
z
" transform="scale(0.015625)"/>
       <path id="DejaVuSans-79" d="M 2059 -325 
Q 1816 -950 1584 -1140 
Q 1353 -1331 966 -1331 
L 506 -1331 
L 506 -850 
L 844 -850 
Q 1081 -850 1212 -737 
Q 1344 -625 1503 -206 
L 1606 56 
L 191 3500 
L 800 3500 
L 1894 763 
L 2988 3500 
L 3597 3500 
L 2059 -325 
z
" transform="scale(0.015625)"/>
       <path id="DejaVuSans-65" d="M 3597 1894 
L 3597 1613 
L 953 1613 
Q 991 1019 1311 708 
Q 1631 397 2203 397 
Q 2534 397 2845 478 
Q 3156 559 3463 722 
L 3463 178 
Q 3153 47 2828 -22 
Q 2503 -91 2169 -91 
Q 1331 -91 842 396 
Q 353 884 353 1716 
Q 353 2575 817 3079 
Q 1281 3584 2069 3584 
Q 2775 3584 3186 3129 
Q 3597 2675 3597 1894 
z
M 3022 2063 
Q 3016 2534 2758 2815 
Q 2500 3097 2075 3097 
Q 1594 3097 1305 2825 
Q 1016 2553 972 2059 
L 3022 2063 
z
" transform="scale(0.015625)"/>
      </defs>
      <use xlink:href="#DejaVuSans-74"/>
      <use xlink:href="#DejaVuSans-79" transform="translate(39.208984 0)"/>
      <use xlink:href="#DejaVuSans-70" transform="translate(98.388672 0)"/>
      <use xlink:href="#DejaVuSans-65" transform="translate(161.865234 0)"/>
     </g>
    </g>
    <g id="PathCollection_3">
     <g>
      <use xlink:href="#m407895fa95" x="66.1875" y="35.851562" style="fill: #1f77b4; fill-opacity: 0.8; stroke: #1f77b4; stroke-opacity: 0.8"/>
     </g>
    </g>
    <g id="text_16">
     <!-- alcohol -->
     <g transform="translate(84.1875 38.476562) scale(0.1 -0.1)">
      <defs>
       <path id="DejaVuSans-61" d="M 2194 1759 
Q 1497 1759 1228 1600 
Q 959 1441 959 1056 
Q 959 750 1161 570 
Q 1363 391 1709 391 
Q 2188 391 2477 730 
Q 2766 1069 2766 1631 
L 2766 1759 
L 2194 1759 
z
M 3341 1997 
L 3341 0 
L 2766 0 
L 2766 531 
Q 2569 213 2275 61 
Q 1981 -91 1556 -91 
Q 1019 -91 701 211 
Q 384 513 384 1019 
Q 384 1609 779 1909 
Q 1175 2209 1959 2209 
L 2766 2209 
L 2766 2266 
Q 2766 2663 2505 2880 
Q 2244 3097 1772 3097 
Q 1472 3097 1187 3025 
Q 903 2953 641 2809 
L 641 3341 
Q 956 3463 1253 3523 
Q 1550 3584 1831 3584 
Q 2591 3584 2966 3190 
Q 3341 2797 3341 1997 
z
" transform="scale(0.015625)"/>
       <path id="DejaVuSans-63" d="M 3122 3366 
L 3122 2828 
Q 2878 2963 2633 3030 
Q 2388 3097 2138 3097 
Q 1578 3097 1268 2742 
Q 959 2388 959 1747 
Q 959 1106 1268 751 
Q 1578 397 2138 397 
Q 2388 397 2633 464 
Q 2878 531 3122 666 
L 3122 134 
Q 2881 22 2623 -34 
Q 2366 -91 2075 -91 
Q 1284 -91 818 406 
Q 353 903 353 1747 
Q 353 2603 823 3093 
Q 1294 3584 2113 3584 
Q 2378 3584 2631 3529 
Q 2884 3475 3122 3366 
z
" transform="scale(0.015625)"/>
       <path id="DejaVuSans-68" d="M 3513 2113 
L 3513 0 
L 2938 0 
L 2938 2094 
Q 2938 2591 2744 2837 
Q 2550 3084 2163 3084 
Q 1697 3084 1428 2787 
Q 1159 2491 1159 1978 
L 1159 0 
L 581 0 
L 581 4863 
L 1159 4863 
L 1159 2956 
Q 1366 3272 1645 3428 
Q 1925 3584 2291 3584 
Q 2894 3584 3203 3211 
Q 3513 2838 3513 2113 
z
" transform="scale(0.015625)"/>
      </defs>
      <use xlink:href="#DejaVuSans-61"/>
      <use xlink:href="#DejaVuSans-6c" transform="translate(61.279297 0)"/>
      <use xlink:href="#DejaVuSans-63" transform="translate(89.0625 0)"/>
      <use xlink:href="#DejaVuSans-6f" transform="translate(144.042969 0)"/>
      <use xlink:href="#DejaVuSans-68" transform="translate(205.224609 0)"/>
      <use xlink:href="#DejaVuSans-6f" transform="translate(268.603516 0)"/>
      <use xlink:href="#DejaVuSans-6c" transform="translate(329.785156 0)"/>
     </g>
    </g>
    <g id="PathCollection_4">
     <g>
      <use xlink:href="#mbf206df5e1" x="66.1875" y="50.529688" style="fill: #ff7f0e; fill-opacity: 0.8; stroke: #ff7f0e; stroke-opacity: 0.8"/>
     </g>
    </g>
    <g id="text_17">
     <!-- alkane -->
     <g transform="translate(84.1875 53.154688) scale(0.1 -0.1)">
      <defs>
       <path id="DejaVuSans-6b" d="M 581 4863 
L 1159 4863 
L 1159 1991 
L 2875 3500 
L 3609 3500 
L 1753 1863 
L 3688 0 
L 2938 0 
L 1159 1709 
L 1159 0 
L 581 0 
L 581 4863 
z
" transform="scale(0.015625)"/>
       <path id="DejaVuSans-6e" d="M 3513 2113 
L 3513 0 
L 2938 0 
L 2938 2094 
Q 2938 2591 2744 2837 
Q 2550 3084 2163 3084 
Q 1697 3084 1428 2787 
Q 1159 2491 1159 1978 
L 1159 0 
L 581 0 
L 581 3500 
L 1159 3500 
L 1159 2956 
Q 1366 3272 1645 3428 
Q 1925 3584 2291 3584 
Q 2894 3584 3203 3211 
Q 3513 2838 3513 2113 
z
" transform="scale(0.015625)"/>
      </defs>
      <use xlink:href="#DejaVuSans-61"/>
      <use xlink:href="#DejaVuSans-6c" transform="translate(61.279297 0)"/>
      <use xlink:href="#DejaVuSans-6b" transform="translate(89.0625 0)"/>
      <use xlink:href="#DejaVuSans-61" transform="translate(145.222656 0)"/>
      <use xlink:href="#DejaVuSans-6e" transform="translate(206.501953 0)"/>
      <use xlink:href="#DejaVuSans-65" transform="translate(269.880859 0)"/>
     </g>
    </g>
   </g>
  </g>
 </g>
 <defs>
  <clipPath id="p0c87110775">
   <rect x="47.1875" y="7.2" width="478.33" height="307.24"/>
  </clipPath>
 </defs>
</svg>