<?xml version="1.0" encoding="utf-8" standalone="no"?>
<!DOCTYPE svg PUBLIC "-//W3C//DTD SVG 1.1//EN"
  "http://www.w3.org/Graphics/SVG/1.1/DTD/svg11.dtd">
<svg xmlns:xlink="http://www.w3.org/1999/xlink" width="532.7175pt" height="351.99625pt" viewBox="0 0 532.7175 351.99625" xmlns="http://www.w3.org/2000/svg" version="1.1">
 <metadata>
  <rdf:RDF xmlns:dc="http://purl.org/dc/elements/1.1/" xmlns:cc="http://creativecommons.org/ns#" xmlns:rdf="http://www.w3.org/1999/02/22-rdf-syntax-ns#">
   <cc:Work>
    <dc:type rdf:resource="http://purl.org/dc/dcmitype/StillImage"/>
    <dc:date>2025-07-03T14:13:04.483515</dc:date>
    <dc:format>image/svg+xml</dc:format>
    <dc:creator>
     <cc:Agent>
      <dc:title>Matplotlib v3.10.3, https://matplotlib.org/</dc:title>
     </cc:Agent>
    </dc:creator>
   </cc:Work>
  </rdf:RDF>
 </metadata>
 <defs>
  <style type="text/css">*{stroke-linejoin: round; stroke-linecap: butt}</style>
 </defs>
 <g id="figure_1">
  <g id="patch_1">
   <path d="M 0 351.99625 
L 532.7175 351.99625 
L 532.7175 0 
L 0 0 
z
" style="fill: #ffffff"/>
  </g>
  <g id="axes_1">
   <g id="patch_2">
    <path d="M 47.1875 314.44 
L 525.5175 314.44 
L 525.5175 7.2 
L 47.1875 7.2 
z
" style="fill: #ffffff"/>
   </g>
   <g id="PathCollection_1">
    <defs>
     <path id="m13e940aa4a" d="M 0 3 
C 0.795609 3 1.55874 2.683901 2.12132 2.12132 
C 2.683901 1.55874 3 0.795609 3 0 
C 3 -0.795609 2.683901 -1.55874 2.12132 -2.12132 
C 1.55874 -2.683901 0.795609 -3 0 -3 
C -0.795609 -3 -1.55874 -2.683901 -2.12132 -2.12132 
C -2.683901 -1.55874 -3 -0.795609 -3 0 
C -3 0.795609 -2.683901 1.55874 -2.12132 2.12132 
C -1.55874 2.683901 -0.795609 3 0 3 
z
" style="stroke: #1f77b4; stroke-opacity: 0.8"/>
    </defs>
    <g clip-path="url(#p5f254ce8a5)">
     <use xlink:href="#m13e940aa4a" x="68.929773" y="254.287892" style="fill: #1f77b4; fill-opacity: 0.8; stroke: #1f77b4; stroke-opacity: 0.8"/>
     <use xlink:href="#m13e940aa4a" x="113.043162" y="238.060149" style="fill: #1f77b4; fill-opacity: 0.8; stroke: #1f77b4; stroke-opacity: 0.8"/>
     <use xlink:href="#m13e940aa4a" x="157.156551" y="213.09439" style="fill: #1f77b4; fill-opacity: 0.8; stroke: #1f77b4; stroke-opacity: 0.8"/>
     <use xlink:href="#m13e940aa4a" x="201.238498" y="188.128632" style="fill: #1f77b4; fill-opacity: 0.8; stroke: #1f77b4; stroke-opacity: 0.8"/>
     <use xlink:href="#m13e940aa4a" x="245.351887" y="161.914585" style="fill: #1f77b4; fill-opacity: 0.8; stroke: #1f77b4; stroke-opacity: 0.8"/>
     <use xlink:href="#m13e940aa4a" x="289.465277" y="139.445403" style="fill: #1f77b4; fill-opacity: 0.8; stroke: #1f77b4; stroke-opacity: 0.8"/>
     <use xlink:href="#m13e940aa4a" x="333.547224" y="115.727932" style="fill: #1f77b4; fill-opacity: 0.8; stroke: #1f77b4; stroke-opacity: 0.8"/>
     <use xlink:href="#m13e940aa4a" x="377.660613" y="92.010461" style="fill: #1f77b4; fill-opacity: 0.8; stroke: #1f77b4; stroke-opacity: 0.8"/>
     <use xlink:href="#m13e940aa4a" x="421.74256" y="70.789567" style="fill: #1f77b4; fill-opacity: 0.8; stroke: #1f77b4; stroke-opacity: 0.8"/>
     <use xlink:href="#m13e940aa4a" x="465.855949" y="45.823808" style="fill: #1f77b4; fill-opacity: 0.8; stroke: #1f77b4; stroke-opacity: 0.8"/>
     <use xlink:href="#m13e940aa4a" x="201.238498" y="200.611511" style="fill: #1f77b4; fill-opacity: 0.8; stroke: #1f77b4; stroke-opacity: 0.8"/>
     <use xlink:href="#m13e940aa4a" x="201.238498" y="231.818709" style="fill: #1f77b4; fill-opacity: 0.8; stroke: #1f77b4; stroke-opacity: 0.8"/>
     <use xlink:href="#m13e940aa4a" x="245.351887" y="171.900889" style="fill: #1f77b4; fill-opacity: 0.8; stroke: #1f77b4; stroke-opacity: 0.8"/>
     <use xlink:href="#m13e940aa4a" x="289.465277" y="166.907737" style="fill: #1f77b4; fill-opacity: 0.8; stroke: #1f77b4; stroke-opacity: 0.8"/>
     <use xlink:href="#m13e940aa4a" x="333.547224" y="160.666298" style="fill: #1f77b4; fill-opacity: 0.8; stroke: #1f77b4; stroke-opacity: 0.8"/>
     <use xlink:href="#m13e940aa4a" x="264.091431" y="108.238205" style="fill: #1f77b4; fill-opacity: 0.8; stroke: #1f77b4; stroke-opacity: 0.8"/>
     <use xlink:href="#m13e940aa4a" x="308.20482" y="83.272446" style="fill: #1f77b4; fill-opacity: 0.8; stroke: #1f77b4; stroke-opacity: 0.8"/>
     <use xlink:href="#m13e940aa4a" x="396.400157" y="60.803263" style="fill: #1f77b4; fill-opacity: 0.8; stroke: #1f77b4; stroke-opacity: 0.8"/>
    </g>
   </g>
   <g id="FillBetweenPolyCollection_1">
    <path d="M 68.929773 250.369657 
L 68.929773 282.769718 
L 72.939128 280.242309 
L 76.948483 277.718524 
L 80.957839 275.223656 
L 84.967194 272.771826 
L 88.976549 270.282864 
L 92.985905 267.793902 
L 96.99526 265.303406 
L 101.004615 262.809607 
L 105.013971 260.315809 
L 109.023326 257.825844 
L 113.032681 255.336496 
L 117.042037 252.844616 
L 121.051392 250.20891 
L 125.060747 247.860285 
L 129.070102 245.370032 
L 133.079458 242.878188 
L 137.088813 240.389048 
L 141.098168 237.899068 
L 145.107524 235.405703 
L 149.116879 232.818367 
L 153.126234 230.441727 
L 157.13559 228.078344 
L 161.144945 225.675781 
L 165.1543 223.21546 
L 169.163656 220.977727 
L 173.173011 218.610854 
L 177.182366 216.310802 
L 181.191722 213.884319 
L 185.201077 211.510237 
L 189.210432 209.143364 
L 193.219788 206.827567 
L 197.229143 204.51992 
L 201.238498 202.162177 
L 205.247853 199.805189 
L 209.257209 197.449384 
L 213.266564 195.087432 
L 217.275919 192.702729 
L 221.285275 190.263932 
L 225.29463 188.015148 
L 229.303985 185.702277 
L 233.313341 183.32683 
L 237.322696 180.943117 
L 241.332051 178.613902 
L 245.341407 176.494911 
L 249.350762 174.17944 
L 253.360117 172.032947 
L 257.369473 169.811076 
L 261.378828 167.657923 
L 265.388183 165.561672 
L 269.397539 163.355326 
L 273.406894 161.154196 
L 277.416249 159.000735 
L 281.425604 156.769085 
L 285.43496 154.492021 
L 289.444315 152.267456 
L 293.45367 150.055164 
L 297.463026 147.895829 
L 301.472381 145.601838 
L 305.481736 143.281415 
L 309.491092 140.958907 
L 313.500447 138.853076 
L 317.509802 136.919822 
L 321.519158 134.815775 
L 325.528513 132.53992 
L 329.537868 130.40869 
L 333.547224 128.371247 
L 337.556579 126.206817 
L 341.565934 124.113498 
L 345.57529 121.987974 
L 349.584645 119.858409 
L 353.594 117.871125 
L 357.603355 115.842482 
L 361.612711 113.778364 
L 365.622066 111.625613 
L 369.631421 109.532564 
L 373.640777 107.383185 
L 377.650132 105.233805 
L 381.659487 103.090917 
L 385.668843 101.110107 
L 389.678198 99.129298 
L 393.687553 97.148488 
L 397.696909 95.167679 
L 401.706264 93.186869 
L 405.715619 91.20606 
L 409.724975 89.22525 
L 413.73433 87.24444 
L 417.743685 85.263631 
L 421.753041 83.282821 
L 425.762396 81.23148 
L 429.771751 79.05559 
L 433.781106 76.877728 
L 437.790462 74.821027 
L 441.799817 72.81886 
L 445.809172 70.816694 
L 449.818528 68.769093 
L 453.827883 66.659635 
L 457.837238 64.550177 
L 461.846594 62.440719 
L 465.855949 60.331262 
L 465.855949 21.165455 
L 465.855949 21.165455 
L 461.846594 23.728969 
L 457.837238 26.139829 
L 453.827883 28.651095 
L 449.818528 31.182843 
L 445.809172 33.716463 
L 441.799817 36.302155 
L 437.790462 38.910313 
L 433.781106 41.518471 
L 429.771751 44.052554 
L 425.762396 46.484279 
L 421.753041 48.916003 
L 417.743685 51.436332 
L 413.73433 53.965428 
L 409.724975 56.494524 
L 405.715619 59.02362 
L 401.706264 61.556008 
L 397.696909 64.089613 
L 393.687553 66.623218 
L 389.678198 69.108737 
L 385.668843 71.629198 
L 381.659487 74.051769 
L 377.650132 76.414516 
L 373.640777 78.788543 
L 369.631421 81.426125 
L 365.622066 83.841697 
L 361.612711 86.082261 
L 357.603355 88.435704 
L 353.594 90.851423 
L 349.584645 93.446369 
L 345.57529 95.871588 
L 341.565934 98.092822 
L 337.556579 100.501702 
L 333.547224 102.914618 
L 329.537868 105.255347 
L 325.528513 107.672326 
L 321.519158 110.170539 
L 317.509802 112.712119 
L 313.500447 115.000801 
L 309.491092 117.411465 
L 305.481736 119.82213 
L 301.472381 122.089635 
L 297.463026 124.220225 
L 293.45367 126.648431 
L 289.444315 129.078394 
L 285.43496 131.504006 
L 281.425604 133.936238 
L 277.416249 136.229326 
L 273.406894 138.754085 
L 269.397539 141.034996 
L 265.388183 143.31066 
L 261.378828 145.392159 
L 257.369473 147.635729 
L 253.360117 149.743638 
L 249.350762 151.976932 
L 245.341407 154.210694 
L 241.332051 156.445085 
L 237.322696 158.666604 
L 233.313341 160.944512 
L 229.303985 163.219521 
L 225.29463 165.511066 
L 221.285275 167.967408 
L 217.275919 170.46013 
L 213.266564 172.780676 
L 209.257209 174.961211 
L 205.247853 177.14106 
L 201.238498 179.425586 
L 197.229143 181.586167 
L 193.219788 183.702332 
L 189.210432 185.975619 
L 185.201077 188.248957 
L 181.191722 190.376139 
L 177.182366 192.363297 
L 173.173011 194.564815 
L 169.163656 196.71197 
L 165.1543 198.884642 
L 161.144945 201.062705 
L 157.13559 203.231657 
L 153.126234 205.396801 
L 149.116879 207.527219 
L 145.107524 209.657638 
L 141.098168 211.788056 
L 137.088813 213.918474 
L 133.079458 216.059274 
L 129.070102 218.267744 
L 125.060747 220.476214 
L 121.051392 222.684684 
L 117.042037 224.893153 
L 113.032681 227.101623 
L 109.023326 229.279209 
L 105.013971 231.349812 
L 101.004615 233.413953 
L 96.99526 235.478806 
L 92.985905 237.722084 
L 88.976549 239.847976 
L 84.967194 241.937809 
L 80.957839 244.04387 
L 76.948483 246.149931 
L 72.939128 248.258587 
L 68.929773 250.369657 
z
" clip-path="url(#p5f254ce8a5)" style="fill: #1f77b4; fill-opacity: 0.15"/>
   </g>
   <g id="PathCollection_2">
    <defs>
     <path id="m4f5ba16aed" d="M 0 -3 
L -3 3 
L 3 3 
z
" style="stroke: #ff7f0e; stroke-opacity: 0.8"/>
    </defs>
    <g clip-path="url(#p5f254ce8a5)">
     <use xlink:href="#m4f5ba16aed" x="195.044387" y="290.488242" style="fill: #ff7f0e; fill-opacity: 0.8; stroke: #ff7f0e; stroke-opacity: 0.8"/>
     <use xlink:href="#m4f5ba16aed" x="239.157776" y="249.29474" style="fill: #ff7f0e; fill-opacity: 0.8; stroke: #ff7f0e; stroke-opacity: 0.8"/>
     <use xlink:href="#m4f5ba16aed" x="283.271166" y="213.09439" style="fill: #ff7f0e; fill-opacity: 0.8; stroke: #ff7f0e; stroke-opacity: 0.8"/>
     <use xlink:href="#m4f5ba16aed" x="327.353113" y="178.142329" style="fill: #ff7f0e; fill-opacity: 0.8; stroke: #ff7f0e; stroke-opacity: 0.8"/>
     <use xlink:href="#m4f5ba16aed" x="371.466502" y="146.93513" style="fill: #ff7f0e; fill-opacity: 0.8; stroke: #ff7f0e; stroke-opacity: 0.8"/>
     <use xlink:href="#m4f5ba16aed" x="415.579891" y="118.224508" style="fill: #ff7f0e; fill-opacity: 0.8; stroke: #ff7f0e; stroke-opacity: 0.8"/>
     <use xlink:href="#m4f5ba16aed" x="459.661838" y="90.762174" style="fill: #ff7f0e; fill-opacity: 0.8; stroke: #ff7f0e; stroke-opacity: 0.8"/>
     <use xlink:href="#m4f5ba16aed" x="503.775227" y="65.796415" style="fill: #ff7f0e; fill-opacity: 0.8; stroke: #ff7f0e; stroke-opacity: 0.8"/>
     <use xlink:href="#m4f5ba16aed" x="239.157776" y="256.784468" style="fill: #ff7f0e; fill-opacity: 0.8; stroke: #ff7f0e; stroke-opacity: 0.8"/>
     <use xlink:href="#m4f5ba16aed" x="327.353113" y="189.37692" style="fill: #ff7f0e; fill-opacity: 0.8; stroke: #ff7f0e; stroke-opacity: 0.8"/>
     <use xlink:href="#m4f5ba16aed" x="195.044387" y="300.474545" style="fill: #ff7f0e; fill-opacity: 0.8; stroke: #ff7f0e; stroke-opacity: 0.8"/>
     <use xlink:href="#m4f5ba16aed" x="283.271166" y="235.563573" style="fill: #ff7f0e; fill-opacity: 0.8; stroke: #ff7f0e; stroke-opacity: 0.8"/>
    </g>
   </g>
   <g id="FillBetweenPolyCollection_2">
    <path d="M 195.044387 279.484197 
L 195.044387 296.585487 
L 198.162881 294.089148 
L 201.281374 291.602052 
L 204.399867 289.108498 
L 207.518361 286.606005 
L 210.636854 284.11195 
L 213.755347 281.617896 
L 216.873841 279.102672 
L 219.992334 276.628139 
L 223.110827 274.030158 
L 226.229321 271.578178 
L 229.347814 269.033875 
L 232.466307 266.507794 
L 235.584801 264.029773 
L 238.703294 261.492292 
L 241.821787 259.132786 
L 244.940281 256.672505 
L 248.058774 254.180271 
L 251.177267 251.719246 
L 254.295761 249.351976 
L 257.414254 246.868127 
L 260.532747 244.48263 
L 263.651241 242.016815 
L 266.769734 239.606194 
L 269.888227 237.187881 
L 273.006721 234.719066 
L 276.125214 232.341014 
L 279.243707 229.960225 
L 282.362201 227.604623 
L 285.480694 225.197624 
L 288.599187 222.772691 
L 291.717681 220.41233 
L 294.836174 218.032818 
L 297.954667 215.690405 
L 301.073161 213.265965 
L 304.191654 210.802748 
L 307.310147 208.401579 
L 310.428641 205.99188 
L 313.547134 203.568016 
L 316.665627 201.203699 
L 319.784121 198.847487 
L 322.902614 196.441183 
L 326.021107 194.062647 
L 329.139601 191.737079 
L 332.258094 189.411512 
L 335.376587 187.070485 
L 338.495081 184.71972 
L 341.613574 182.36099 
L 344.732067 180.006243 
L 347.850561 177.651305 
L 350.969054 175.295122 
L 354.087547 172.938939 
L 357.206041 170.62675 
L 360.324534 168.312806 
L 363.443027 166.015541 
L 366.561521 163.718333 
L 369.680014 161.41454 
L 372.798507 159.091014 
L 375.917001 156.724295 
L 379.035494 154.366659 
L 382.153987 152.055874 
L 385.272481 149.707028 
L 388.390974 147.344148 
L 391.509467 145.042938 
L 394.627961 142.749703 
L 397.746454 140.455479 
L 400.864947 138.101273 
L 403.983441 135.771877 
L 407.101934 133.443679 
L 410.220427 131.193959 
L 413.338921 128.837663 
L 416.457414 126.517272 
L 419.575907 124.213546 
L 422.694401 121.909819 
L 425.812894 119.639412 
L 428.931387 117.343888 
L 432.049881 115.019756 
L 435.168374 112.695855 
L 438.286867 110.392706 
L 441.405361 108.103362 
L 444.523854 105.819795 
L 447.642347 103.535765 
L 450.760841 101.20056 
L 453.879334 98.877435 
L 456.997827 96.574093 
L 460.116321 94.270751 
L 463.234814 91.997102 
L 466.353307 89.701917 
L 469.471801 87.372905 
L 472.590294 85.109555 
L 475.708787 82.817871 
L 478.827281 80.551042 
L 481.945774 78.311849 
L 485.064267 76.052048 
L 488.182761 73.790544 
L 491.301254 71.559717 
L 494.419747 69.292677 
L 497.538241 67.010207 
L 500.656734 64.755252 
L 503.775227 62.505532 
L 503.775227 40.11608 
L 503.775227 40.11608 
L 500.656734 42.700402 
L 497.538241 45.285327 
L 494.419747 47.879978 
L 491.301254 50.521601 
L 488.182761 53.130546 
L 485.064267 55.656889 
L 481.945774 58.21042 
L 478.827281 60.74173 
L 475.708787 63.33095 
L 472.590294 65.91397 
L 469.471801 68.466474 
L 466.353307 71.018978 
L 463.234814 73.593307 
L 460.116321 76.184953 
L 456.997827 78.776599 
L 453.879334 81.368245 
L 450.760841 83.960369 
L 447.642347 86.554013 
L 444.523854 89.147657 
L 441.405361 91.735153 
L 438.286867 94.297091 
L 435.168374 96.841274 
L 432.049881 99.385456 
L 428.931387 101.929639 
L 425.812894 104.473822 
L 422.694401 107.018005 
L 419.575907 109.562187 
L 416.457414 112.10637 
L 413.338921 114.650553 
L 410.220427 117.195315 
L 407.101934 119.740319 
L 403.983441 122.285332 
L 400.864947 124.831381 
L 397.746454 127.377684 
L 394.627961 129.923986 
L 391.509467 132.452685 
L 388.390974 135.012464 
L 385.272481 137.556813 
L 382.153987 140.10206 
L 379.035494 142.647307 
L 375.917001 145.192554 
L 372.798507 147.738283 
L 369.680014 150.291736 
L 366.561521 152.828938 
L 363.443027 155.384512 
L 360.324534 157.929446 
L 357.206041 160.467996 
L 354.087547 163.050493 
L 350.969054 165.556821 
L 347.850561 168.037956 
L 344.732067 170.442335 
L 341.613574 172.78567 
L 338.495081 175.217836 
L 335.376587 177.589472 
L 332.258094 179.987516 
L 329.139601 182.546664 
L 326.021107 185.033243 
L 322.902614 187.409261 
L 319.784121 189.642324 
L 316.665627 191.996155 
L 313.547134 194.328131 
L 310.428641 196.585354 
L 307.310147 198.925986 
L 304.191654 201.21403 
L 301.073161 203.435914 
L 297.954667 205.672518 
L 294.836174 207.953726 
L 291.717681 210.324585 
L 288.599187 212.585762 
L 285.480694 214.872038 
L 282.362201 217.145372 
L 279.243707 219.393171 
L 276.125214 221.610037 
L 273.006721 223.846852 
L 269.888227 226.098284 
L 266.769734 228.348883 
L 263.651241 230.600031 
L 260.532747 232.848352 
L 257.414254 235.089279 
L 254.295761 237.325916 
L 251.177267 239.545467 
L 248.058774 241.765017 
L 244.940281 243.987067 
L 241.821787 246.209296 
L 238.703294 248.4328 
L 235.584801 250.650839 
L 232.466307 252.868877 
L 229.347814 255.088248 
L 226.229321 257.30785 
L 223.110827 259.527452 
L 219.992334 261.747053 
L 216.873841 263.958684 
L 213.755347 266.175744 
L 210.636854 268.392804 
L 207.518361 270.609979 
L 204.399867 272.828534 
L 201.281374 275.047088 
L 198.162881 277.265642 
L 195.044387 279.484197 
z
" clip-path="url(#p5f254ce8a5)" style="fill: #ff7f0e; fill-opacity: 0.15"/>
   </g>
   <g id="matplotlib.axis_1">
    <g id="xtick_1">
     <g id="line2d_1">
      <defs>
       <path id="m588664c294" d="M 0 0 
L 0 3.5 
" style="stroke: #000000; stroke-width: 0.8"/>
      </defs>
      <g>
       <use xlink:href="#m588664c294" x="93.957754" y="314.44" style="stroke: #000000; stroke-width: 0.8"/>
      </g>
     </g>
     <g id="text_1">
      <!-- 40 -->
      <g transform="translate(87.595254 329.038437) scale(0.1 -0.1)">
       <defs>
        <path id="DejaVuSans-34" d="M 2419 4116 
L 825 1625 
L 2419 1625 
L 2419 4116 
z
M 2253 4666 
L 3047 4666 
L 3047 1625 
L 3713 1625 
L 3713 1100 
L 3047 1100 
L 3047 0 
L 2419 0 
L 2419 1100 
L 313 1100 
L 313 1709 
L 2253 4666 
z
" transform="scale(0.015625)"/>
        <path id="DejaVuSans-30" d="M 2034 4250 
Q 1547 4250 1301 3770 
Q 1056 3291 1056 2328 
Q 1056 1369 1301 889 
Q 1547 409 2034 409 
Q 2525 409 2770 889 
Q 3016 1369 3016 2328 
Q 3016 3291 2770 3770 
Q 2525 4250 2034 4250 
z
M 2034 4750 
Q 2819 4750 3233 4129 
Q 3647 3509 3647 2328 
Q 3647 1150 3233 529 
Q 2819 -91 2034 -91 
Q 1250 -91 836 529 
Q 422 1150 422 2328 
Q 422 3509 836 4129 
Q 1250 4750 2034 4750 
z
" transform="scale(0.015625)"/>
       </defs>
       <use xlink:href="#DejaVuSans-34"/>
       <use xlink:href="#DejaVuSans-30" transform="translate(63.623047 0)"/>
      </g>
     </g>
    </g>
    <g id="xtick_2">
     <g id="line2d_2">
      <g>
       <use xlink:href="#m588664c294" x="156.842129" y="314.44" style="stroke: #000000; stroke-width: 0.8"/>
      </g>
     </g>
     <g id="text_2">
      <!-- 60 -->
      <g transform="translate(150.479629 329.038437) scale(0.1 -0.1)">
       <defs>
        <path id="DejaVuSans-36" d="M 2113 2584 
Q 1688 2584 1439 2293 
Q 1191 2003 1191 1497 
Q 1191 994 1439 701 
Q 1688 409 2113 409 
Q 2538 409 2786 701 
Q 3034 994 3034 1497 
Q 3034 2003 2786 2293 
Q 2538 2584 2113 2584 
z
M 3366 4563 
L 3366 3988 
Q 3128 4100 2886 4159 
Q 2644 4219 2406 4219 
Q 1781 4219 1451 3797 
Q 1122 3375 1075 2522 
Q 1259 2794 1537 2939 
Q 1816 3084 2150 3084 
Q 2853 3084 3261 2657 
Q 3669 2231 3669 1497 
Q 3669 778 3244 343 
Q 2819 -91 2113 -91 
Q 1303 -91 875 529 
Q 447 1150 447 2328 
Q 447 3434 972 4092 
Q 1497 4750 2381 4750 
Q 2619 4750 2861 4703 
Q 3103 4656 3366 4563 
z
" transform="scale(0.015625)"/>
       </defs>
       <use xlink:href="#DejaVuSans-36"/>
       <use xlink:href="#DejaVuSans-30" transform="translate(63.623047 0)"/>
      </g>
     </g>
    </g>
    <g id="xtick_3">
     <g id="line2d_3">
      <g>
       <use xlink:href="#m588664c294" x="219.726504" y="314.44" style="stroke: #000000; stroke-width: 0.8"/>
      </g>
     </g>
     <g id="text_3">
      <!-- 80 -->
      <g transform="translate(213.364004 329.038437) scale(0.1 -0.1)">
       <defs>
        <path id="DejaVuSans-38" d="M 2034 2216 
Q 1584 2216 1326 1975 
Q 1069 1734 1069 1313 
Q 1069 891 1326 650 
Q 1584 409 2034 409 
Q 2484 409 2743 651 
Q 3003 894 3003 1313 
Q 3003 1734 2745 1975 
Q 2488 2216 2034 2216 
z
M 1403 2484 
Q 997 2584 770 2862 
Q 544 3141 544 3541 
Q 544 4100 942 4425 
Q 1341 4750 2034 4750 
Q 2731 4750 3128 4425 
Q 3525 4100 3525 3541 
Q 3525 3141 3298 2862 
Q 3072 2584 2669 2484 
Q 3125 2378 3379 2068 
Q 3634 1759 3634 1313 
Q 3634 634 3220 271 
Q 2806 -91 2034 -91 
Q 1263 -91 848 271 
Q 434 634 434 1313 
Q 434 1759 690 2068 
Q 947 2378 1403 2484 
z
M 1172 3481 
Q 1172 3119 1398 2916 
Q 1625 2713 2034 2713 
Q 2441 2713 2670 2916 
Q 2900 3119 2900 3481 
Q 2900 3844 2670 4047 
Q 2441 4250 2034 4250 
Q 1625 4250 1398 4047 
Q 1172 3844 1172 3481 
z
" transform="scale(0.015625)"/>
       </defs>
       <use xlink:href="#DejaVuSans-38"/>
       <use xlink:href="#DejaVuSans-30" transform="translate(63.623047 0)"/>
      </g>
     </g>
    </g>
    <g id="xtick_4">
     <g id="line2d_4">
      <g>
       <use xlink:href="#m588664c294" x="282.61088" y="314.44" style="stroke: #000000; stroke-width: 0.8"/>
      </g>
     </g>
     <g id="text_4">
      <!-- 100 -->
      <g transform="translate(273.06713 329.038437) scale(0.1 -0.1)">
       <defs>
        <path id="DejaVuSans-31" d="M 794 531 
L 1825 531 
L 1825 4091 
L 703 3866 
L 703 4441 
L 1819 4666 
L 2450 4666 
L 2450 531 
L 3481 531 
L 3481 0 
L 794 0 
L 794 531 
z
" transform="scale(0.015625)"/>
       </defs>
       <use xlink:href="#DejaVuSans-31"/>
       <use xlink:href="#DejaVuSans-30" transform="translate(63.623047 0)"/>
       <use xlink:href="#DejaVuSans-30" transform="translate(127.246094 0)"/>
      </g>
     </g>
    </g>
    <g id="xtick_5">
     <g id="line2d_5">
      <g>
       <use xlink:href="#m588664c294" x="345.495255" y="314.44" style="stroke: #000000; stroke-width: 0.8"/>
      </g>
     </g>
     <g id="text_5">
      <!-- 120 -->
      <g transform="translate(335.951505 329.038437) scale(0.1 -0.1)">
       <defs>
        <path id="DejaVuSans-32" d="M 1228 531 
L 3431 531 
L 3431 0 
L 469 0 
L 469 531 
Q 828 903 1448 1529 
Q 2069 2156 2228 2338 
Q 2531 2678 2651 2914 
Q 2772 3150 2772 3378 
Q 2772 3750 2511 3984 
Q 2250 4219 1831 4219 
Q 1534 4219 1204 4116 
Q 875 4013 500 3803 
L 500 4441 
Q 881 4594 1212 4672 
Q 1544 4750 1819 4750 
Q 2544 4750 2975 4387 
Q 3406 4025 3406 3419 
Q 3406 3131 3298 2873 
Q 3191 2616 2906 2266 
Q 2828 2175 2409 1742 
Q 1991 1309 1228 531 
z
" transform="scale(0.015625)"/>
       </defs>
       <use xlink:href="#DejaVuSans-31"/>
       <use xlink:href="#DejaVuSans-32" transform="translate(63.623047 0)"/>
       <use xlink:href="#DejaVuSans-30" transform="translate(127.246094 0)"/>
      </g>
     </g>
    </g>
    <g id="xtick_6">
     <g id="line2d_6">
      <g>
       <use xlink:href="#m588664c294" x="408.37963" y="314.44" style="stroke: #000000; stroke-width: 0.8"/>
      </g>
     </g>
     <g id="text_6">
      <!-- 140 -->
      <g transform="translate(398.83588 329.038437) scale(0.1 -0.1)">
       <use xlink:href="#DejaVuSans-31"/>
       <use xlink:href="#DejaVuSans-34" transform="translate(63.623047 0)"/>
       <use xlink:href="#DejaVuSans-30" transform="translate(127.246094 0)"/>
      </g>
     </g>
    </g>
    <g id="xtick_7">
     <g id="line2d_7">
      <g>
       <use xlink:href="#m588664c294" x="471.264005" y="314.44" style="stroke: #000000; stroke-width: 0.8"/>
      </g>
     </g>
     <g id="text_7">
      <!-- 160 -->
      <g transform="translate(461.720255 329.038437) scale(0.1 -0.1)">
       <use xlink:href="#DejaVuSans-31"/>
       <use xlink:href="#DejaVuSans-36" transform="translate(63.623047 0)"/>
       <use xlink:href="#DejaVuSans-30" transform="translate(127.246094 0)"/>
      </g>
     </g>
    </g>
    <g id="text_8">
     <!-- MW, g/mol -->
     <g transform="translate(259.739219 342.716562) scale(0.1 -0.1)">
      <defs>
       <path id="DejaVuSans-4d" d="M 628 4666 
L 1569 4666 
L 2759 1491 
L 3956 4666 
L 4897 4666 
L 4897 0 
L 4281 0 
L 4281 4097 
L 3078 897 
L 2444 897 
L 1241 4097 
L 1241 0 
L 628 0 
L 628 4666 
z
" transform="scale(0.015625)"/>
       <path id="DejaVuSans-57" d="M 213 4666 
L 850 4666 
L 1831 722 
L 2809 4666 
L 3519 4666 
L 4500 722 
L 5478 4666 
L 6119 4666 
L 4947 0 
L 4153 0 
L 3169 4050 
L 2175 0 
L 1381 0 
L 213 4666 
z
" transform="scale(0.015625)"/>
       <path id="DejaVuSans-2c" d="M 750 794 
L 1409 794 
L 1409 256 
L 897 -744 
L 494 -744 
L 750 256 
L 750 794 
z
" transform="scale(0.015625)"/>
       <path id="DejaVuSans-20" transform="scale(0.015625)"/>
       <path id="DejaVuSans-67" d="M 2906 1791 
Q 2906 2416 2648 2759 
Q 2391 3103 1925 3103 
Q 1463 3103 1205 2759 
Q 947 2416 947 1791 
Q 947 1169 1205 825 
Q 1463 481 1925 481 
Q 2391 481 2648 825 
Q 2906 1169 2906 1791 
z
M 3481 434 
Q 3481 -459 3084 -895 
Q 2688 -1331 1869 -1331 
Q 1566 -1331 1297 -1286 
Q 1028 -1241 775 -1147 
L 775 -588 
Q 1028 -725 1275 -790 
Q 1522 -856 1778 -856 
Q 2344 -856 2625 -561 
Q 2906 -266 2906 331 
L 2906 616 
Q 2728 306 2450 153 
Q 2172 0 1784 0 
Q 1141 0 747 490 
Q 353 981 353 1791 
Q 353 2603 747 3093 
Q 1141 3584 1784 3584 
Q 2172 3584 2450 3431 
Q 2728 3278 2906 2969 
L 2906 3500 
L 3481 3500 
L 3481 434 
z
" transform="scale(0.015625)"/>
       <path id="DejaVuSans-2f" d="M 1625 4666 
L 2156 4666 
L 531 -594 
L 0 -594 
L 1625 4666 
z
" transform="scale(0.015625)"/>
       <path id="DejaVuSans-6d" d="M 3328 2828 
Q 3544 3216 3844 3400 
Q 4144 3584 4550 3584 
Q 5097 3584 5394 3201 
Q 5691 2819 5691 2113 
L 5691 0 
L 5113 0 
L 5113 2094 
Q 5113 2597 4934 2840 
Q 4756 3084 4391 3084 
Q 3944 3084 3684 2787 
Q 3425 2491 3425 1978 
L 3425 0 
L 2847 0 
L 2847 2094 
Q 2847 2600 2669 2842 
Q 2491 3084 2119 3084 
Q 1678 3084 1418 2786 
Q 1159 2488 1159 1978 
L 1159 0 
L 581 0 
L 581 3500 
L 1159 3500 
L 1159 2956 
Q 1356 3278 1631 3431 
Q 1906 3584 2284 3584 
Q 2666 3584 2933 3390 
Q 3200 3197 3328 2828 
z
" transform="scale(0.015625)"/>
       <path id="DejaVuSans-6f" d="M 1959 3097 
Q 1497 3097 1228 2736 
Q 959 2375 959 1747 
Q 959 1119 1226 758 
Q 1494 397 1959 397 
Q 2419 397 2687 759 
Q 2956 1122 2956 1747 
Q 2956 2369 2687 2733 
Q 2419 3097 1959 3097 
z
M 1959 3584 
Q 2709 3584 3137 3096 
Q 3566 2609 3566 1747 
Q 3566 888 3137 398 
Q 2709 -91 1959 -91 
Q 1206 -91 779 398 
Q 353 888 353 1747 
Q 353 2609 779 3096 
Q 1206 3584 1959 3584 
z
" transform="scale(0.015625)"/>
       <path id="DejaVuSans-6c" d="M 603 4863 
L 1178 4863 
L 1178 0 
L 603 0 
L 603 4863 
z
" transform="scale(0.015625)"/>
      </defs>
      <use xlink:href="#DejaVuSans-4d"/>
      <use xlink:href="#DejaVuSans-57" transform="translate(86.279297 0)"/>
      <use xlink:href="#DejaVuSans-2c" transform="translate(185.15625 0)"/>
      <use xlink:href="#DejaVuSans-20" transform="translate(216.943359 0)"/>
      <use xlink:href="#DejaVuSans-67" transform="translate(248.730469 0)"/>
      <use xlink:href="#DejaVuSans-2f" transform="translate(312.207031 0)"/>
      <use xlink:href="#DejaVuSans-6d" transform="translate(345.898438 0)"/>
      <use xlink:href="#DejaVuSans-6f" transform="translate(443.310547 0)"/>
      <use xlink:href="#DejaVuSans-6c" transform="translate(504.492188 0)"/>
     </g>
    </g>
   </g>
   <g id="matplotlib.axis_2">
    <g id="ytick_1">
     <g id="line2d_8">
      <defs>
       <path id="m313d76595f" d="M 0 0 
L -3.5 0 
" style="stroke: #000000; stroke-width: 0.8"/>
      </defs>
      <g>
       <use xlink:href="#m313d76595f" x="47.1875" y="273.012211" style="stroke: #000000; stroke-width: 0.8"/>
      </g>
     </g>
     <g id="text_9">
      <!-- 50 -->
      <g transform="translate(27.4625 276.81143) scale(0.1 -0.1)">
       <defs>
        <path id="DejaVuSans-35" d="M 691 4666 
L 3169 4666 
L 3169 4134 
L 1269 4134 
L 1269 2991 
Q 1406 3038 1543 3061 
Q 1681 3084 1819 3084 
Q 2600 3084 3056 2656 
Q 3513 2228 3513 1497 
Q 3513 744 3044 326 
Q 2575 -91 1722 -91 
Q 1428 -91 1123 -41 
Q 819 9 494 109 
L 494 744 
Q 775 591 1075 516 
Q 1375 441 1709 441 
Q 2250 441 2565 725 
Q 2881 1009 2881 1497 
Q 2881 1984 2565 2268 
Q 2250 2553 1709 2553 
Q 1456 2553 1204 2497 
Q 953 2441 691 2322 
L 691 4666 
z
" transform="scale(0.015625)"/>
       </defs>
       <use xlink:href="#DejaVuSans-35"/>
       <use xlink:href="#DejaVuSans-30" transform="translate(63.623047 0)"/>
      </g>
     </g>
    </g>
    <g id="ytick_2">
     <g id="line2d_9">
      <g>
       <use xlink:href="#m313d76595f" x="47.1875" y="210.597815" style="stroke: #000000; stroke-width: 0.8"/>
      </g>
     </g>
     <g id="text_10">
      <!-- 100 -->
      <g transform="translate(21.1 214.397033) scale(0.1 -0.1)">
       <use xlink:href="#DejaVuSans-31"/>
       <use xlink:href="#DejaVuSans-30" transform="translate(63.623047 0)"/>
       <use xlink:href="#DejaVuSans-30" transform="translate(127.246094 0)"/>
      </g>
     </g>
    </g>
    <g id="ytick_3">
     <g id="line2d_10">
      <g>
       <use xlink:href="#m313d76595f" x="47.1875" y="148.183418" style="stroke: #000000; stroke-width: 0.8"/>
      </g>
     </g>
     <g id="text_11">
      <!-- 150 -->
      <g transform="translate(21.1 151.982637) scale(0.1 -0.1)">
       <use xlink:href="#DejaVuSans-31"/>
       <use xlink:href="#DejaVuSans-35" transform="translate(63.623047 0)"/>
       <use xlink:href="#DejaVuSans-30" transform="translate(127.246094 0)"/>
      </g>
     </g>
    </g>
    <g id="ytick_4">
     <g id="line2d_11">
      <g>
       <use xlink:href="#m313d76595f" x="47.1875" y="85.769022" style="stroke: #000000; stroke-width: 0.8"/>
      </g>
     </g>
     <g id="text_12">
      <!-- 200 -->
      <g transform="translate(21.1 89.568241) scale(0.1 -0.1)">
       <use xlink:href="#DejaVuSans-32"/>
       <use xlink:href="#DejaVuSans-30" transform="translate(63.623047 0)"/>
       <use xlink:href="#DejaVuSans-30" transform="translate(127.246094 0)"/>
      </g>
     </g>
    </g>
    <g id="ytick_5">
     <g id="line2d_12">
      <g>
       <use xlink:href="#m313d76595f" x="47.1875" y="23.354625" style="stroke: #000000; stroke-width: 0.8"/>
      </g>
     </g>
     <g id="text_13">
      <!-- 250 -->
      <g transform="translate(21.1 27.153844) scale(0.1 -0.1)">
       <use xlink:href="#DejaVuSans-32"/>
       <use xlink:href="#DejaVuSans-35" transform="translate(63.623047 0)"/>
       <use xlink:href="#DejaVuSans-30" transform="translate(127.246094 0)"/>
      </g>
     </g>
    </g>
    <g id="text_14">
     <!-- bp, $^o$C -->
     <g transform="translate(15 176.17) rotate(-90) scale(0.1 -0.1)">
      <defs>
       <path id="DejaVuSans-62" d="M 3116 1747 
Q 3116 2381 2855 2742 
Q 2594 3103 2138 3103 
Q 1681 3103 1420 2742 
Q 1159 2381 1159 1747 
Q 1159 1113 1420 752 
Q 1681 391 2138 391 
Q 2594 391 2855 752 
Q 3116 1113 3116 1747 
z
M 1159 2969 
Q 1341 3281 1617 3432 
Q 1894 3584 2278 3584 
Q 2916 3584 3314 3078 
Q 3713 2572 3713 1747 
Q 3713 922 3314 415 
Q 2916 -91 2278 -91 
Q 1894 -91 1617 61 
Q 1341 213 1159 525 
L 1159 0 
L 581 0 
L 581 4863 
L 1159 4863 
L 1159 2969 
z
" transform="scale(0.015625)"/>
       <path id="DejaVuSans-70" d="M 1159 525 
L 1159 -1331 
L 581 -1331 
L 581 3500 
L 1159 3500 
L 1159 2969 
Q 1341 3281 1617 3432 
Q 1894 3584 2278 3584 
Q 2916 3584 3314 3078 
Q 3713 2572 3713 1747 
Q 3713 922 3314 415 
Q 2916 -91 2278 -91 
Q 1894 -91 1617 61 
Q 1341 213 1159 525 
z
M 3116 1747 
Q 3116 2381 2855 2742 
Q 2594 3103 2138 3103 
Q 1681 3103 1420 2742 
Q 1159 2381 1159 1747 
Q 1159 1113 1420 752 
Q 1681 391 2138 391 
Q 2594 391 2855 752 
Q 3116 1113 3116 1747 
z
" transform="scale(0.015625)"/>
       <path id="DejaVuSans-Oblique-6f" d="M 1625 -91 
Q 1009 -91 651 289 
Q 294 669 294 1325 
Q 294 1706 417 2101 
Q 541 2497 738 2766 
Q 1047 3184 1428 3384 
Q 1809 3584 2291 3584 
Q 2888 3584 3255 3212 
Q 3622 2841 3622 2241 
Q 3622 1825 3500 1412 
Q 3378 1000 3181 728 
Q 2875 309 2494 109 
Q 2113 -91 1625 -91 
z
M 891 1344 
Q 891 869 1089 633 
Q 1288 397 1691 397 
Q 2269 397 2648 901 
Q 3028 1406 3028 2181 
Q 3028 2634 2825 2865 
Q 2622 3097 2228 3097 
Q 1903 3097 1650 2945 
Q 1397 2794 1197 2484 
Q 1050 2253 970 1956 
Q 891 1659 891 1344 
z
" transform="scale(0.015625)"/>
       <path id="DejaVuSans-43" d="M 4122 4306 
L 4122 3641 
Q 3803 3938 3442 4084 
Q 3081 4231 2675 4231 
Q 1875 4231 1450 3742 
Q 1025 3253 1025 2328 
Q 1025 1406 1450 917 
Q 1875 428 2675 428 
Q 3081 428 3442 575 
Q 3803 722 4122 1019 
L 4122 359 
Q 3791 134 3420 21 
Q 3050 -91 2638 -91 
Q 1578 -91 968 557 
Q 359 1206 359 2328 
Q 359 3453 968 4101 
Q 1578 4750 2638 4750 
Q 3056 4750 3426 4639 
Q 3797 4528 4122 4306 
z
" transform="scale(0.015625)"/>
      </defs>
      <use xlink:href="#DejaVuSans-62" transform="translate(0 0.51875)"/>
      <use xlink:href="#DejaVuSans-70" transform="translate(63.476562 0.51875)"/>
      <use xlink:href="#DejaVuSans-2c" transform="translate(126.953125 0.51875)"/>
      <use xlink:href="#DejaVuSans-20" transform="translate(158.740234 0.51875)"/>
      <use xlink:href="#DejaVuSans-Oblique-6f" transform="translate(191.484375 38.8) scale(0.7)"/>
      <use xlink:href="#DejaVuSans-43" transform="translate(237.045898 0.51875)"/>
     </g>
    </g>
   </g>
   <g id="line2d_13">
    <path d="M 68.929773 264.886409 
L 72.939128 262.632776 
L 76.948483 260.379143 
L 80.957839 258.12551 
L 84.967194 255.871878 
L 88.976549 253.618245 
L 92.985905 251.364612 
L 96.99526 249.110979 
L 101.004615 246.857346 
L 105.013971 244.603714 
L 109.023326 242.350081 
L 113.032681 240.096448 
L 117.042037 237.842815 
L 121.051392 235.589183 
L 125.060747 233.33555 
L 129.070102 231.081917 
L 133.079458 228.828284 
L 137.088813 226.574652 
L 141.098168 224.321019 
L 145.107524 222.067386 
L 149.116879 219.813753 
L 153.126234 217.56012 
L 157.13559 215.306488 
L 161.144945 213.052855 
L 165.1543 210.799222 
L 169.163656 208.545589 
L 173.173011 206.291957 
L 177.182366 204.038324 
L 181.191722 201.784691 
L 185.201077 199.531058 
L 189.210432 197.277425 
L 193.219788 195.023793 
L 197.229143 192.77016 
L 201.238498 190.516527 
L 205.247853 188.262894 
L 209.257209 186.009262 
L 213.266564 183.755629 
L 217.275919 181.501996 
L 221.285275 179.248363 
L 225.29463 176.99473 
L 229.303985 174.741098 
L 233.313341 172.487465 
L 237.322696 170.233832 
L 241.332051 167.980199 
L 245.341407 165.726567 
L 249.350762 163.472934 
L 253.360117 161.219301 
L 257.369473 158.965668 
L 261.378828 156.712035 
L 265.388183 154.458403 
L 269.397539 152.20477 
L 273.406894 149.951137 
L 277.416249 147.697504 
L 281.425604 145.443872 
L 285.43496 143.190239 
L 289.444315 140.936606 
L 293.45367 138.682973 
L 297.463026 136.429341 
L 301.472381 134.175708 
L 305.481736 131.922075 
L 309.491092 129.668442 
L 313.500447 127.414809 
L 317.509802 125.161177 
L 321.519158 122.907544 
L 325.528513 120.653911 
L 329.537868 118.400278 
L 333.547224 116.146646 
L 337.556579 113.893013 
L 341.565934 111.63938 
L 345.57529 109.385747 
L 349.584645 107.132114 
L 353.594 104.878482 
L 357.603355 102.624849 
L 361.612711 100.371216 
L 365.622066 98.117583 
L 369.631421 95.863951 
L 373.640777 93.610318 
L 377.650132 91.356685 
L 381.659487 89.103052 
L 385.668843 86.849419 
L 389.678198 84.595787 
L 393.687553 82.342154 
L 397.696909 80.088521 
L 401.706264 77.834888 
L 405.715619 75.581256 
L 409.724975 73.327623 
L 413.73433 71.07399 
L 417.743685 68.820357 
L 421.753041 66.566725 
L 425.762396 64.313092 
L 429.771751 62.059459 
L 433.781106 59.805826 
L 437.790462 57.552193 
L 441.799817 55.298561 
L 445.809172 53.044928 
L 449.818528 50.791295 
L 453.827883 48.537662 
L 457.837238 46.28403 
L 461.846594 44.030397 
L 465.855949 41.776764 
" clip-path="url(#p5f254ce8a5)" style="fill: none; stroke: #1f77b4; stroke-width: 2.25; stroke-linecap: square"/>
   </g>
   <g id="line2d_14">
    <path d="M 195.044387 289.198674 
L 198.162881 286.837462 
L 201.281374 284.476249 
L 204.399867 282.115037 
L 207.518361 279.753825 
L 210.636854 277.392612 
L 213.755347 275.0314 
L 216.873841 272.670187 
L 219.992334 270.308975 
L 223.110827 267.947763 
L 226.229321 265.58655 
L 229.347814 263.225338 
L 232.466307 260.864126 
L 235.584801 258.502913 
L 238.703294 256.141701 
L 241.821787 253.780488 
L 244.940281 251.419276 
L 248.058774 249.058064 
L 251.177267 246.696851 
L 254.295761 244.335639 
L 257.414254 241.974426 
L 260.532747 239.613214 
L 263.651241 237.252002 
L 266.769734 234.890789 
L 269.888227 232.529577 
L 273.006721 230.168364 
L 276.125214 227.807152 
L 279.243707 225.44594 
L 282.362201 223.084727 
L 285.480694 220.723515 
L 288.599187 218.362302 
L 291.717681 216.00109 
L 294.836174 213.639878 
L 297.954667 211.278665 
L 301.073161 208.917453 
L 304.191654 206.556241 
L 307.310147 204.195028 
L 310.428641 201.833816 
L 313.547134 199.472603 
L 316.665627 197.111391 
L 319.784121 194.750179 
L 322.902614 192.388966 
L 326.021107 190.027754 
L 329.139601 187.666541 
L 332.258094 185.305329 
L 335.376587 182.944117 
L 338.495081 180.582904 
L 341.613574 178.221692 
L 344.732067 175.860479 
L 347.850561 173.499267 
L 350.969054 171.138055 
L 354.087547 168.776842 
L 357.206041 166.41563 
L 360.324534 164.054417 
L 363.443027 161.693205 
L 366.561521 159.331993 
L 369.680014 156.97078 
L 372.798507 154.609568 
L 375.917001 152.248356 
L 379.035494 149.887143 
L 382.153987 147.525931 
L 385.272481 145.164718 
L 388.390974 142.803506 
L 391.509467 140.442294 
L 394.627961 138.081081 
L 397.746454 135.719869 
L 400.864947 133.358656 
L 403.983441 130.997444 
L 407.101934 128.636232 
L 410.220427 126.275019 
L 413.338921 123.913807 
L 416.457414 121.552594 
L 419.575907 119.191382 
L 422.694401 116.83017 
L 425.812894 114.468957 
L 428.931387 112.107745 
L 432.049881 109.746532 
L 435.168374 107.38532 
L 438.286867 105.024108 
L 441.405361 102.662895 
L 444.523854 100.301683 
L 447.642347 97.940471 
L 450.760841 95.579258 
L 453.879334 93.218046 
L 456.997827 90.856833 
L 460.116321 88.495621 
L 463.234814 86.134409 
L 466.353307 83.773196 
L 469.471801 81.411984 
L 472.590294 79.050771 
L 475.708787 76.689559 
L 478.827281 74.328347 
L 481.945774 71.967134 
L 485.064267 69.605922 
L 488.182761 67.244709 
L 491.301254 64.883497 
L 494.419747 62.522285 
L 497.538241 60.161072 
L 500.656734 57.79986 
L 503.775227 55.438647 
" clip-path="url(#p5f254ce8a5)" style="fill: none; stroke: #ff7f0e; stroke-width: 2.25; stroke-linecap: square"/>
   </g>
   <g id="patch_3">
    <path d="M 47.1875 314.44 
L 47.1875 7.2 
" style="fill: none; stroke: #000000; stroke-width: 0.8; stroke-linejoin: miter; stroke-linecap: square"/>
   </g>
   <g id="patch_4">
    <path d="M 47.1875 314.44 
L 525.5175 314.44 
" style="fill: none; stroke: #000000; stroke-width: 0.8; stroke-linejoin: miter; stroke-linecap: square"/>
   </g>
   <g id="legend_1">
    <g id="patch_5">
     <path d="M 54.1875 59.234375 
L 121.945312 59.234375 
Q 123.945312 59.234375 123.945312 57.234375 
L 123.945312 14.2 
Q 123.945312 12.2 121.945312 12.2 
L 54.1875 12.2 
Q 52.1875 12.2 52.1875 14.2 
L 52.1875 57.234375 
Q 52.1875 59.234375 54.1875 59.234375 
z
" style="fill: #ffffff; opacity: 0.8; stroke: #cccccc; stroke-linejoin: miter"/>
    </g>
    <g id="text_15">
     <!-- type -->
     <g transform="translate(76.896094 23.798438) scale(0.1 -0.1)">
      <defs>
       <path id="DejaVuSans-74" d="M 1172 4494 
L 1172 3500 
L 2356 3500 
L 2356 3053 
L 1172 3053 
L 1172 1153 
Q 1172 725 1289 603 
Q 1406 481 1766 481 
L 2356 481 
L 2356 0 
L 1766 0 
Q 1100 0 847 248 
Q 594 497 594 1153 
L 594 3053 
L 172 3053 
L 172 3500 
L 594 3500 
L 594 4494 
L 1172 4494 
z
" transform="scale(0.015625)"/>
       <path id="DejaVuSans-79" d="M 2059 -325 
Q 1816 -950 1584 -1140 
Q 1353 -1331 966 -1331 
L 506 -1331 
L 506 -850 
L 844 -850 
Q 1081 -850 1212 -737 
Q 1344 -625 1503 -206 
L 1606 56 
L 191 3500 
L 800 3500 
L 1894 763 
L 2988 3500 
L 3597 3500 
L 2059 -325 
z
" transform="scale(0.015625)"/>
       <path id="DejaVuSans-65" d="M 3597 1894 
L 3597 1613 
L 953 1613 
Q 991 1019 1311 708 
Q 1631 397 2203 397 
Q 2534 397 2845 478 
Q 3156 559 3463 722 
L 3463 178 
Q 3153 47 2828 -22 
Q 2503 -91 2169 -91 
Q 1331 -91 842 396 
Q 353 884 353 1716 
Q 353 2575 817 3079 
Q 1281 3584 2069 3584 
Q 2775 3584 3186 3129 
Q 3597 2675 3597 1894 
z
M 3022 2063 
Q 3016 2534 2758 2815 
Q 2500 3097 2075 3097 
Q 1594 3097 1305 2825 
Q 1016 2553 972 2059 
L 3022 2063 
z
" transform="scale(0.015625)"/>
      </defs>
      <use xlink:href="#DejaVuSans-74"/>
      <use xlink:href="#DejaVuSans-79" transform="translate(39.208984 0)"/>
      <use xlink:href="#DejaVuSans-70" transform="translate(98.388672 0)"/>
      <use xlink:href="#DejaVuSans-65" transform="translate(161.865234 0)"/>
     </g>
    </g>
    <g id="PathCollection_3">
     <g>
      <use xlink:href="#m13e940aa4a" x="66.1875" y="35.851563" style="fill: #1f77b4; fill-opacity: 0.8; stroke: #1f77b4; stroke-opacity: 0.8"/>
     </g>
    </g>
    <g id="text_16">
     <!-- alcohol -->
     <g transform="translate(84.1875 38.476563) scale(0.1 -0.1)">
      <defs>
       <path id="DejaVuSans-61" d="M 2194 1759 
Q 1497 1759 1228 1600 
Q 959 1441 959 1056 
Q 959 750 1161 570 
Q 1363 391 1709 391 
Q 2188 391 2477 730 
Q 2766 1069 2766 1631 
L 2766 1759 
L 2194 1759 
z
M 3341 1997 
L 3341 0 
L 2766 0 
L 2766 531 
Q 2569 213 2275 61 
Q 1981 -91 1556 -91 
Q 1019 -91 701 211 
Q 384 513 384 1019 
Q 384 1609 779 1909 
Q 1175 2209 1959 2209 
L 2766 2209 
L 2766 2266 
Q 2766 2663 2505 2880 
Q 2244 3097 1772 3097 
Q 1472 3097 1187 3025 
Q 903 2953 641 2809 
L 641 3341 
Q 956 3463 1253 3523 
Q 1550 3584 1831 3584 
Q 2591 3584 2966 3190 
Q 3341 2797 3341 1997 
z
" transform="scale(0.015625)"/>
       <path id="DejaVuSans-63" d="M 3122 3366 
L 3122 2828 
Q 2878 2963 2633 3030 
Q 2388 3097 2138 3097 
Q 1578 3097 1268 2742 
Q 959 2388 959 1747 
Q 959 1106 1268 751 
Q 1578 397 2138 397 
Q 2388 397 2633 464 
Q 2878 531 3122 666 
L 3122 134 
Q 2881 22 2623 -34 
Q 2366 -91 2075 -91 
Q 1284 -91 818 406 
Q 353 903 353 1747 
Q 353 2603 823 3093 
Q 1294 3584 2113 3584 
Q 2378 3584 2631 3529 
Q 2884 3475 3122 3366 
z
" transform="scale(0.015625)"/>
       <path id="DejaVuSans-68" d="M 3513 2113 
L 3513 0 
L 2938 0 
L 2938 2094 
Q 2938 2591 2744 2837 
Q 2550 3084 2163 3084 
Q 1697 3084 1428 2787 
Q 1159 2491 1159 1978 
L 1159 0 
L 581 0 
L 581 4863 
L 1159 4863 
L 1159 2956 
Q 1366 3272 1645 3428 
Q 1925 3584 2291 3584 
Q 2894 3584 3203 3211 
Q 3513 2838 3513 2113 
z
" transform="scale(0.015625)"/>
      </defs>
      <use xlink:href="#DejaVuSans-61"/>
      <use xlink:href="#DejaVuSans-6c" transform="translate(61.279297 0)"/>
      <use xlink:href="#DejaVuSans-63" transform="translate(89.0625 0)"/>
      <use xlink:href="#DejaVuSans-6f" transform="translate(144.042969 0)"/>
      <use xlink:href="#DejaVuSans-68" transform="translate(205.224609 0)"/>
      <use xlink:href="#DejaVuSans-6f" transform="translate(268.603516 0)"/>
      <use xlink:href="#DejaVuSans-6c" transform="translate(329.785156 0)"/>
     </g>
    </g>
    <g id="PathCollection_4">
     <g>
      <use xlink:href="#m4f5ba16aed" x="66.1875" y="50.529688" style="fill: #ff7f0e; fill-opacity: 0.8; stroke: #ff7f0e; stroke-opacity: 0.8"/>
     </g>
    </g>
    <g id="text_17">
     <!-- alkane -->
     <g transform="translate(84.1875 53.154688) scale(0.1 -0.1)">
      <defs>
       <path id="DejaVuSans-6b" d="M 581 4863 
L 1159 4863 
L 1159 1991 
L 2875 3500 
L 3609 3500 
L 1753 1863 
L 3688 0 
L 2938 0 
L 1159 1709 
L 1159 0 
L 581 0 
L 581 4863 
z
" transform="scale(0.015625)"/>
       <path id="DejaVuSans-6e" d="M 3513 2113 
L 3513 0 
L 2938 0 
L 2938 2094 
Q 2938 2591 2744 2837 
Q 2550 3084 2163 3084 
Q 1697 3084 1428 2787 
Q 1159 2491 1159 1978 
L 1159 0 
L 581 0 
L 581 3500 
L 1159 3500 
L 1159 2956 
Q 1366 3272 1645 3428 
Q 1925 3584 2291 3584 
Q 2894 3584 3203 3211 
Q 3513 2838 3513 2113 
z
" transform="scale(0.015625)"/>
      </defs>
      <use xlink:href="#DejaVuSans-61"/>
      <use xlink:href="#DejaVuSans-6c" transform="translate(61.279297 0)"/>
      <use xlink:href="#DejaVuSans-6b" transform="translate(89.0625 0)"/>
      <use xlink:href="#DejaVuSans-61" transform="translate(145.222656 0)"/>
      <use xlink:href="#DejaVuSans-6e" transform="translate(206.501953 0)"/>
      <use xlink:href="#DejaVuSans-65" transform="translate(269.880859 0)"/>
     </g>
    </g>
   </g>
  </g>
 </g>
 <defs>
  <clipPath id="p5f254ce8a5">
   <rect x="47.1875" y="7.2" width="478.33" height="307.24"/>
  </clipPath>
 </defs>
</svg>