<?xml version="1.0" encoding="utf-8" standalone="no"?>
<!DOCTYPE svg PUBLIC "-//W3C//DTD SVG 1.1//EN"
  "http://www.w3.org/Graphics/SVG/1.1/DTD/svg11.dtd">
<svg xmlns:xlink="http://www.w3.org/1999/xlink" width="411.285625pt" height="310.86825pt" viewBox="0 0 411.285625 310.86825" xmlns="http://www.w3.org/2000/svg" version="1.1">
 <metadata>
  <rdf:RDF xmlns:dc="http://purl.org/dc/elements/1.1/" xmlns:cc="http://creativecommons.org/ns#" xmlns:rdf="http://www.w3.org/1999/02/22-rdf-syntax-ns#">
   <cc:Work>
    <dc:type rdf:resource="http://purl.org/dc/dcmitype/StillImage"/>
    <dc:date>2025-07-20T07:30:49.702889</dc:date>
    <dc:format>image/svg+xml</dc:format>
    <dc:creator>
     <cc:Agent>
      <dc:title>Matplotlib v3.10.3, https://matplotlib.org/</dc:title>
     </cc:Agent>
    </dc:creator>
   </cc:Work>
  </rdf:RDF>
 </metadata>
 <defs>
  <style type="text/css">*{stroke-linejoin: round; stroke-linecap: butt}</style>
 </defs>
 <g id="figure_1">
  <g id="patch_1">
   <path d="M 0 310.86825 
L 411.285625 310.86825 
L 411.285625 0 
L 0 0 
z
" style="fill: #ffffff"/>
  </g>
  <g id="axes_1">
   <g id="patch_2">
    <path d="M 46.965625 273.312 
L 404.085625 273.312 
L 404.085625 7.2 
L 46.965625 7.2 
z
" style="fill: #ffffff"/>
   </g>
   <g id="PathCollection_1">
    <defs>
     <path id="m28a58dd67d" d="M 0 3 
C 0.795609 3 1.55874 2.683901 2.12132 2.12132 
C 2.683901 1.55874 3 0.795609 3 0 
C 3 -0.795609 2.683901 -1.55874 2.12132 -2.12132 
C 1.55874 -2.683901 0.795609 -3 0 -3 
C -0.795609 -3 -1.55874 -2.683901 -2.12132 -2.12132 
C -2.683901 -1.55874 -3 -0.795609 -3 0 
C -3 0.795609 -2.683901 1.55874 -2.12132 2.12132 
C -1.55874 2.683901 -0.795609 3 0 3 
z
" style="stroke: #1f77b4; stroke-opacity: 0.8"/>
    </defs>
    <g clip-path="url(#p22b27606e3)">
     <use xlink:href="#m28a58dd67d" x="63.198352" y="199.245474" style="fill: #1f77b4; fill-opacity: 0.8; stroke: #1f77b4; stroke-opacity: 0.8"/>
     <use xlink:href="#m28a58dd67d" x="96.1333" y="186.7664" style="fill: #1f77b4; fill-opacity: 0.8; stroke: #1f77b4; stroke-opacity: 0.8"/>
     <use xlink:href="#m28a58dd67d" x="129.068248" y="167.567826" style="fill: #1f77b4; fill-opacity: 0.8; stroke: #1f77b4; stroke-opacity: 0.8"/>
     <use xlink:href="#m28a58dd67d" x="161.979721" y="148.369252" style="fill: #1f77b4; fill-opacity: 0.8; stroke: #1f77b4; stroke-opacity: 0.8"/>
     <use xlink:href="#m28a58dd67d" x="194.914669" y="128.210749" style="fill: #1f77b4; fill-opacity: 0.8; stroke: #1f77b4; stroke-opacity: 0.8"/>
     <use xlink:href="#m28a58dd67d" x="227.849616" y="110.932032" style="fill: #1f77b4; fill-opacity: 0.8; stroke: #1f77b4; stroke-opacity: 0.8"/>
     <use xlink:href="#m28a58dd67d" x="260.761089" y="92.693387" style="fill: #1f77b4; fill-opacity: 0.8; stroke: #1f77b4; stroke-opacity: 0.8"/>
     <use xlink:href="#m28a58dd67d" x="293.696037" y="74.454741" style="fill: #1f77b4; fill-opacity: 0.8; stroke: #1f77b4; stroke-opacity: 0.8"/>
     <use xlink:href="#m28a58dd67d" x="326.60751" y="58.135953" style="fill: #1f77b4; fill-opacity: 0.8; stroke: #1f77b4; stroke-opacity: 0.8"/>
     <use xlink:href="#m28a58dd67d" x="359.542458" y="38.937379" style="fill: #1f77b4; fill-opacity: 0.8; stroke: #1f77b4; stroke-opacity: 0.8"/>
     <use xlink:href="#m28a58dd67d" x="157.355213" y="227.083406" style="fill: #1f77b4; fill-opacity: 0.8; stroke: #1f77b4; stroke-opacity: 0.8"/>
     <use xlink:href="#m28a58dd67d" x="190.290161" y="195.405759" style="fill: #1f77b4; fill-opacity: 0.8; stroke: #1f77b4; stroke-opacity: 0.8"/>
     <use xlink:href="#m28a58dd67d" x="223.225108" y="167.567826" style="fill: #1f77b4; fill-opacity: 0.8; stroke: #1f77b4; stroke-opacity: 0.8"/>
     <use xlink:href="#m28a58dd67d" x="256.136581" y="140.689822" style="fill: #1f77b4; fill-opacity: 0.8; stroke: #1f77b4; stroke-opacity: 0.8"/>
     <use xlink:href="#m28a58dd67d" x="289.071529" y="116.691605" style="fill: #1f77b4; fill-opacity: 0.8; stroke: #1f77b4; stroke-opacity: 0.8"/>
     <use xlink:href="#m28a58dd67d" x="322.006477" y="94.613244" style="fill: #1f77b4; fill-opacity: 0.8; stroke: #1f77b4; stroke-opacity: 0.8"/>
     <use xlink:href="#m28a58dd67d" x="354.91795" y="73.494813" style="fill: #1f77b4; fill-opacity: 0.8; stroke: #1f77b4; stroke-opacity: 0.8"/>
     <use xlink:href="#m28a58dd67d" x="387.852898" y="54.296239" style="fill: #1f77b4; fill-opacity: 0.8; stroke: #1f77b4; stroke-opacity: 0.8"/>
     <use xlink:href="#m28a58dd67d" x="190.290161" y="201.165331" style="fill: #1f77b4; fill-opacity: 0.8; stroke: #1f77b4; stroke-opacity: 0.8"/>
     <use xlink:href="#m28a58dd67d" x="256.136581" y="149.329181" style="fill: #1f77b4; fill-opacity: 0.8; stroke: #1f77b4; stroke-opacity: 0.8"/>
     <use xlink:href="#m28a58dd67d" x="157.355213" y="234.762836" style="fill: #1f77b4; fill-opacity: 0.8; stroke: #1f77b4; stroke-opacity: 0.8"/>
     <use xlink:href="#m28a58dd67d" x="223.225108" y="184.846543" style="fill: #1f77b4; fill-opacity: 0.8; stroke: #1f77b4; stroke-opacity: 0.8"/>
     <use xlink:href="#m28a58dd67d" x="161.979721" y="157.968539" style="fill: #1f77b4; fill-opacity: 0.8; stroke: #1f77b4; stroke-opacity: 0.8"/>
     <use xlink:href="#m28a58dd67d" x="161.979721" y="181.966757" style="fill: #1f77b4; fill-opacity: 0.8; stroke: #1f77b4; stroke-opacity: 0.8"/>
     <use xlink:href="#m28a58dd67d" x="194.914669" y="135.890179" style="fill: #1f77b4; fill-opacity: 0.8; stroke: #1f77b4; stroke-opacity: 0.8"/>
     <use xlink:href="#m28a58dd67d" x="227.849616" y="132.050464" style="fill: #1f77b4; fill-opacity: 0.8; stroke: #1f77b4; stroke-opacity: 0.8"/>
     <use xlink:href="#m28a58dd67d" x="260.761089" y="127.25082" style="fill: #1f77b4; fill-opacity: 0.8; stroke: #1f77b4; stroke-opacity: 0.8"/>
     <use xlink:href="#m28a58dd67d" x="208.905566" y="86.933815" style="fill: #1f77b4; fill-opacity: 0.8; stroke: #1f77b4; stroke-opacity: 0.8"/>
     <use xlink:href="#m28a58dd67d" x="241.840514" y="67.73524" style="fill: #1f77b4; fill-opacity: 0.8; stroke: #1f77b4; stroke-opacity: 0.8"/>
     <use xlink:href="#m28a58dd67d" x="307.686934" y="50.456524" style="fill: #1f77b4; fill-opacity: 0.8; stroke: #1f77b4; stroke-opacity: 0.8"/>
    </g>
   </g>
   <g id="FillBetweenPolyCollection_1">
    <path d="M 63.198352 205.533198 
L 63.198352 261.216 
L 66.477691 258.93865 
L 69.75703 256.6613 
L 73.036369 254.38395 
L 76.315708 252.1066 
L 79.595046 249.82925 
L 82.874385 247.5519 
L 86.153724 245.27455 
L 89.433063 242.996662 
L 92.712402 240.716665 
L 95.991741 238.436669 
L 99.27108 236.051776 
L 102.550418 233.61991 
L 105.829757 231.187271 
L 109.109096 228.754632 
L 112.388435 226.321992 
L 115.667774 223.901602 
L 118.947113 221.580226 
L 122.226451 219.10559 
L 125.50579 216.688834 
L 128.785129 214.184363 
L 132.064468 211.743547 
L 135.343807 209.315725 
L 138.623146 206.884525 
L 141.902485 204.520083 
L 145.181823 202.155641 
L 148.461162 199.791199 
L 151.740501 197.426758 
L 155.01984 195.084877 
L 158.299179 192.763771 
L 161.578518 190.523487 
L 164.857856 188.292154 
L 168.137195 186.227981 
L 171.416534 184.166739 
L 174.695873 181.775136 
L 177.975212 179.389501 
L 181.254551 176.997496 
L 184.533889 175.096444 
L 187.813228 172.859339 
L 191.092567 170.381241 
L 194.371906 167.733754 
L 197.651245 165.437505 
L 200.930584 163.178636 
L 204.209923 161.324836 
L 207.489261 159.000465 
L 210.7686 157.182666 
L 214.047939 154.860465 
L 217.327278 152.582571 
L 220.606617 150.322546 
L 223.885956 147.973815 
L 227.165294 145.678395 
L 230.444633 143.598642 
L 233.723972 141.62038 
L 237.003311 139.547615 
L 240.28265 137.559312 
L 243.561989 135.49591 
L 246.841327 133.587351 
L 250.120666 131.722728 
L 253.400005 129.704383 
L 256.679344 127.859356 
L 259.958683 125.984029 
L 263.238022 123.975131 
L 266.517361 122.060578 
L 269.796699 120.380476 
L 273.076038 118.668074 
L 276.355377 116.804508 
L 279.634716 114.937493 
L 282.914055 113.171985 
L 286.193394 111.531633 
L 289.472732 109.822567 
L 292.752071 108.085235 
L 296.03141 106.400197 
L 299.310749 104.70312 
L 302.590088 103.089196 
L 305.869427 101.534937 
L 309.148765 99.899083 
L 312.428104 98.227115 
L 315.707443 96.429836 
L 318.986782 94.755499 
L 322.266121 93.195085 
L 325.54546 91.449154 
L 328.824799 89.816221 
L 332.104137 88.255777 
L 335.383476 86.700031 
L 338.662815 85.138081 
L 341.942154 83.510202 
L 345.221493 81.877718 
L 348.500832 80.331673 
L 351.78017 78.688412 
L 355.059509 77.12961 
L 358.338848 75.543357 
L 361.618187 73.964127 
L 364.897526 72.384447 
L 368.176865 70.803439 
L 371.456204 69.22243 
L 374.735542 67.641421 
L 378.014881 66.052415 
L 381.29422 64.442923 
L 384.573559 62.83343 
L 387.852898 61.223938 
L 387.852898 19.296 
L 387.852898 19.296 
L 384.573559 21.373636 
L 381.29422 23.704056 
L 378.014881 26.006423 
L 374.735542 28.174945 
L 371.456204 30.5445 
L 368.176865 32.927831 
L 364.897526 35.281135 
L 361.618187 37.327269 
L 358.338848 39.488659 
L 355.059509 41.810929 
L 351.78017 44.1332 
L 348.500832 46.479482 
L 345.221493 48.828153 
L 341.942154 51.102155 
L 338.662815 53.523313 
L 335.383476 55.851541 
L 332.104137 58.179346 
L 328.824799 60.528826 
L 325.54546 62.874937 
L 322.266121 65.135803 
L 318.986782 67.346665 
L 315.707443 69.630665 
L 312.428104 71.990941 
L 309.148765 74.236724 
L 305.869427 76.324879 
L 302.590088 78.378552 
L 299.310749 80.263407 
L 296.03141 82.314337 
L 292.752071 84.475299 
L 289.472732 86.575314 
L 286.193394 88.774118 
L 282.914055 90.840349 
L 279.634716 92.882246 
L 276.355377 95.022696 
L 273.076038 96.955018 
L 269.796699 98.988716 
L 266.517361 100.922014 
L 263.238022 102.361535 
L 259.958683 104.698311 
L 256.679344 106.422036 
L 253.400005 108.199996 
L 250.120666 110.362144 
L 246.841327 112.248638 
L 243.561989 113.878609 
L 240.28265 115.700481 
L 237.003311 117.666287 
L 233.723972 119.54345 
L 230.444633 121.444905 
L 227.165294 123.073118 
L 223.885956 124.832108 
L 220.606617 126.596305 
L 217.327278 128.309589 
L 214.047939 129.915745 
L 210.7686 131.568151 
L 207.489261 133.313802 
L 204.209923 134.9841 
L 200.930584 136.649023 
L 197.651245 138.415414 
L 194.371906 140.141258 
L 191.092567 141.850138 
L 187.813228 143.529152 
L 184.533889 145.252865 
L 181.254551 146.881275 
L 177.975212 148.558054 
L 174.695873 150.23487 
L 171.416534 151.911686 
L 168.137195 153.588503 
L 164.857856 155.265319 
L 161.578518 156.921498 
L 158.299179 158.606111 
L 155.01984 160.295768 
L 151.740501 161.972585 
L 148.461162 163.64876 
L 145.181823 165.325494 
L 141.902485 167.01878 
L 138.623146 168.701188 
L 135.343807 170.383595 
L 132.064468 172.030222 
L 128.785129 173.705568 
L 125.50579 175.250425 
L 122.226451 176.868621 
L 118.947113 178.522149 
L 115.667774 180.178875 
L 112.388435 181.835601 
L 109.109096 183.508865 
L 105.829757 185.220259 
L 102.550418 186.931652 
L 99.27108 188.54591 
L 95.991741 190.112374 
L 92.712402 191.7082 
L 89.433063 193.161652 
L 86.153724 194.696745 
L 82.874385 196.2329 
L 79.595046 197.769806 
L 76.315708 199.309176 
L 73.036369 200.851453 
L 69.75703 202.48793 
L 66.477691 204.05896 
L 63.198352 205.533198 
z
" clip-path="url(#p22b27606e3)" style="fill: #1f77b4; fill-opacity: 0.15"/>
   </g>
   <g id="matplotlib.axis_1">
    <g id="xtick_1">
     <g id="line2d_1">
      <defs>
       <path id="mb0fe7f77f9" d="M 0 0 
L 0 3.5 
" style="stroke: #000000; stroke-width: 0.8"/>
      </defs>
      <g>
       <use xlink:href="#mb0fe7f77f9" x="81.884181" y="273.312" style="stroke: #000000; stroke-width: 0.8"/>
      </g>
     </g>
     <g id="text_1">
      <!-- 40 -->
      <g transform="translate(75.521681 287.910437) scale(0.1 -0.1)">
       <defs>
        <path id="DejaVuSans-34" d="M 2419 4116 
L 825 1625 
L 2419 1625 
L 2419 4116 
z
M 2253 4666 
L 3047 4666 
L 3047 1625 
L 3713 1625 
L 3713 1100 
L 3047 1100 
L 3047 0 
L 2419 0 
L 2419 1100 
L 313 1100 
L 313 1709 
L 2253 4666 
z
" transform="scale(0.015625)"/>
        <path id="DejaVuSans-30" d="M 2034 4250 
Q 1547 4250 1301 3770 
Q 1056 3291 1056 2328 
Q 1056 1369 1301 889 
Q 1547 409 2034 409 
Q 2525 409 2770 889 
Q 3016 1369 3016 2328 
Q 3016 3291 2770 3770 
Q 2525 4250 2034 4250 
z
M 2034 4750 
Q 2819 4750 3233 4129 
Q 3647 3509 3647 2328 
Q 3647 1150 3233 529 
Q 2819 -91 2034 -91 
Q 1250 -91 836 529 
Q 422 1150 422 2328 
Q 422 3509 836 4129 
Q 1250 4750 2034 4750 
z
" transform="scale(0.015625)"/>
       </defs>
       <use xlink:href="#DejaVuSans-34"/>
       <use xlink:href="#DejaVuSans-30" transform="translate(63.623047 0)"/>
      </g>
     </g>
    </g>
    <g id="xtick_2">
     <g id="line2d_2">
      <g>
       <use xlink:href="#mb0fe7f77f9" x="128.833501" y="273.312" style="stroke: #000000; stroke-width: 0.8"/>
      </g>
     </g>
     <g id="text_2">
      <!-- 60 -->
      <g transform="translate(122.471001 287.910437) scale(0.1 -0.1)">
       <defs>
        <path id="DejaVuSans-36" d="M 2113 2584 
Q 1688 2584 1439 2293 
Q 1191 2003 1191 1497 
Q 1191 994 1439 701 
Q 1688 409 2113 409 
Q 2538 409 2786 701 
Q 3034 994 3034 1497 
Q 3034 2003 2786 2293 
Q 2538 2584 2113 2584 
z
M 3366 4563 
L 3366 3988 
Q 3128 4100 2886 4159 
Q 2644 4219 2406 4219 
Q 1781 4219 1451 3797 
Q 1122 3375 1075 2522 
Q 1259 2794 1537 2939 
Q 1816 3084 2150 3084 
Q 2853 3084 3261 2657 
Q 3669 2231 3669 1497 
Q 3669 778 3244 343 
Q 2819 -91 2113 -91 
Q 1303 -91 875 529 
Q 447 1150 447 2328 
Q 447 3434 972 4092 
Q 1497 4750 2381 4750 
Q 2619 4750 2861 4703 
Q 3103 4656 3366 4563 
z
" transform="scale(0.015625)"/>
       </defs>
       <use xlink:href="#DejaVuSans-36"/>
       <use xlink:href="#DejaVuSans-30" transform="translate(63.623047 0)"/>
      </g>
     </g>
    </g>
    <g id="xtick_3">
     <g id="line2d_3">
      <g>
       <use xlink:href="#mb0fe7f77f9" x="175.782821" y="273.312" style="stroke: #000000; stroke-width: 0.8"/>
      </g>
     </g>
     <g id="text_3">
      <!-- 80 -->
      <g transform="translate(169.420321 287.910437) scale(0.1 -0.1)">
       <defs>
        <path id="DejaVuSans-38" d="M 2034 2216 
Q 1584 2216 1326 1975 
Q 1069 1734 1069 1313 
Q 1069 891 1326 650 
Q 1584 409 2034 409 
Q 2484 409 2743 651 
Q 3003 894 3003 1313 
Q 3003 1734 2745 1975 
Q 2488 2216 2034 2216 
z
M 1403 2484 
Q 997 2584 770 2862 
Q 544 3141 544 3541 
Q 544 4100 942 4425 
Q 1341 4750 2034 4750 
Q 2731 4750 3128 4425 
Q 3525 4100 3525 3541 
Q 3525 3141 3298 2862 
Q 3072 2584 2669 2484 
Q 3125 2378 3379 2068 
Q 3634 1759 3634 1313 
Q 3634 634 3220 271 
Q 2806 -91 2034 -91 
Q 1263 -91 848 271 
Q 434 634 434 1313 
Q 434 1759 690 2068 
Q 947 2378 1403 2484 
z
M 1172 3481 
Q 1172 3119 1398 2916 
Q 1625 2713 2034 2713 
Q 2441 2713 2670 2916 
Q 2900 3119 2900 3481 
Q 2900 3844 2670 4047 
Q 2441 4250 2034 4250 
Q 1625 4250 1398 4047 
Q 1172 3844 1172 3481 
z
" transform="scale(0.015625)"/>
       </defs>
       <use xlink:href="#DejaVuSans-38"/>
       <use xlink:href="#DejaVuSans-30" transform="translate(63.623047 0)"/>
      </g>
     </g>
    </g>
    <g id="xtick_4">
     <g id="line2d_4">
      <g>
       <use xlink:href="#mb0fe7f77f9" x="222.73214" y="273.312" style="stroke: #000000; stroke-width: 0.8"/>
      </g>
     </g>
     <g id="text_4">
      <!-- 100 -->
      <g transform="translate(213.18839 287.910437) scale(0.1 -0.1)">
       <defs>
        <path id="DejaVuSans-31" d="M 794 531 
L 1825 531 
L 1825 4091 
L 703 3866 
L 703 4441 
L 1819 4666 
L 2450 4666 
L 2450 531 
L 3481 531 
L 3481 0 
L 794 0 
L 794 531 
z
" transform="scale(0.015625)"/>
       </defs>
       <use xlink:href="#DejaVuSans-31"/>
       <use xlink:href="#DejaVuSans-30" transform="translate(63.623047 0)"/>
       <use xlink:href="#DejaVuSans-30" transform="translate(127.246094 0)"/>
      </g>
     </g>
    </g>
    <g id="xtick_5">
     <g id="line2d_5">
      <g>
       <use xlink:href="#mb0fe7f77f9" x="269.68146" y="273.312" style="stroke: #000000; stroke-width: 0.8"/>
      </g>
     </g>
     <g id="text_5">
      <!-- 120 -->
      <g transform="translate(260.13771 287.910437) scale(0.1 -0.1)">
       <defs>
        <path id="DejaVuSans-32" d="M 1228 531 
L 3431 531 
L 3431 0 
L 469 0 
L 469 531 
Q 828 903 1448 1529 
Q 2069 2156 2228 2338 
Q 2531 2678 2651 2914 
Q 2772 3150 2772 3378 
Q 2772 3750 2511 3984 
Q 2250 4219 1831 4219 
Q 1534 4219 1204 4116 
Q 875 4013 500 3803 
L 500 4441 
Q 881 4594 1212 4672 
Q 1544 4750 1819 4750 
Q 2544 4750 2975 4387 
Q 3406 4025 3406 3419 
Q 3406 3131 3298 2873 
Q 3191 2616 2906 2266 
Q 2828 2175 2409 1742 
Q 1991 1309 1228 531 
z
" transform="scale(0.015625)"/>
       </defs>
       <use xlink:href="#DejaVuSans-31"/>
       <use xlink:href="#DejaVuSans-32" transform="translate(63.623047 0)"/>
       <use xlink:href="#DejaVuSans-30" transform="translate(127.246094 0)"/>
      </g>
     </g>
    </g>
    <g id="xtick_6">
     <g id="line2d_6">
      <g>
       <use xlink:href="#mb0fe7f77f9" x="316.63078" y="273.312" style="stroke: #000000; stroke-width: 0.8"/>
      </g>
     </g>
     <g id="text_6">
      <!-- 140 -->
      <g transform="translate(307.08703 287.910437) scale(0.1 -0.1)">
       <use xlink:href="#DejaVuSans-31"/>
       <use xlink:href="#DejaVuSans-34" transform="translate(63.623047 0)"/>
       <use xlink:href="#DejaVuSans-30" transform="translate(127.246094 0)"/>
      </g>
     </g>
    </g>
    <g id="xtick_7">
     <g id="line2d_7">
      <g>
       <use xlink:href="#mb0fe7f77f9" x="363.580099" y="273.312" style="stroke: #000000; stroke-width: 0.8"/>
      </g>
     </g>
     <g id="text_7">
      <!-- 160 -->
      <g transform="translate(354.036349 287.910437) scale(0.1 -0.1)">
       <use xlink:href="#DejaVuSans-31"/>
       <use xlink:href="#DejaVuSans-36" transform="translate(63.623047 0)"/>
       <use xlink:href="#DejaVuSans-30" transform="translate(127.246094 0)"/>
      </g>
     </g>
    </g>
    <g id="text_8">
     <!-- MW -->
     <g transform="translate(216.267813 301.588562) scale(0.1 -0.1)">
      <defs>
       <path id="DejaVuSans-4d" d="M 628 4666 
L 1569 4666 
L 2759 1491 
L 3956 4666 
L 4897 4666 
L 4897 0 
L 4281 0 
L 4281 4097 
L 3078 897 
L 2444 897 
L 1241 4097 
L 1241 0 
L 628 0 
L 628 4666 
z
" transform="scale(0.015625)"/>
       <path id="DejaVuSans-57" d="M 213 4666 
L 850 4666 
L 1831 722 
L 2809 4666 
L 3519 4666 
L 4500 722 
L 5478 4666 
L 6119 4666 
L 4947 0 
L 4153 0 
L 3169 4050 
L 2175 0 
L 1381 0 
L 213 4666 
z
" transform="scale(0.015625)"/>
      </defs>
      <use xlink:href="#DejaVuSans-4d"/>
      <use xlink:href="#DejaVuSans-57" transform="translate(86.279297 0)"/>
     </g>
    </g>
   </g>
   <g id="matplotlib.axis_2">
    <g id="ytick_1">
     <g id="line2d_8">
      <defs>
       <path id="m24d535136c" d="M 0 0 
L -3.5 0 
" style="stroke: #000000; stroke-width: 0.8"/>
      </defs>
      <g>
       <use xlink:href="#m24d535136c" x="46.965625" y="261.64084" style="stroke: #000000; stroke-width: 0.8"/>
      </g>
     </g>
     <g id="text_9">
      <!-- 0 -->
      <g transform="translate(33.603125 265.440058) scale(0.1 -0.1)">
       <use xlink:href="#DejaVuSans-30"/>
      </g>
     </g>
    </g>
    <g id="ytick_2">
     <g id="line2d_9">
      <g>
       <use xlink:href="#m24d535136c" x="46.965625" y="213.644404" style="stroke: #000000; stroke-width: 0.8"/>
      </g>
     </g>
     <g id="text_10">
      <!-- 50 -->
      <g transform="translate(27.240625 217.443623) scale(0.1 -0.1)">
       <defs>
        <path id="DejaVuSans-35" d="M 691 4666 
L 3169 4666 
L 3169 4134 
L 1269 4134 
L 1269 2991 
Q 1406 3038 1543 3061 
Q 1681 3084 1819 3084 
Q 2600 3084 3056 2656 
Q 3513 2228 3513 1497 
Q 3513 744 3044 326 
Q 2575 -91 1722 -91 
Q 1428 -91 1123 -41 
Q 819 9 494 109 
L 494 744 
Q 775 591 1075 516 
Q 1375 441 1709 441 
Q 2250 441 2565 725 
Q 2881 1009 2881 1497 
Q 2881 1984 2565 2268 
Q 2250 2553 1709 2553 
Q 1456 2553 1204 2497 
Q 953 2441 691 2322 
L 691 4666 
z
" transform="scale(0.015625)"/>
       </defs>
       <use xlink:href="#DejaVuSans-35"/>
       <use xlink:href="#DejaVuSans-30" transform="translate(63.623047 0)"/>
      </g>
     </g>
    </g>
    <g id="ytick_3">
     <g id="line2d_10">
      <g>
       <use xlink:href="#m24d535136c" x="46.965625" y="165.647969" style="stroke: #000000; stroke-width: 0.8"/>
      </g>
     </g>
     <g id="text_11">
      <!-- 100 -->
      <g transform="translate(20.878125 169.447187) scale(0.1 -0.1)">
       <use xlink:href="#DejaVuSans-31"/>
       <use xlink:href="#DejaVuSans-30" transform="translate(63.623047 0)"/>
       <use xlink:href="#DejaVuSans-30" transform="translate(127.246094 0)"/>
      </g>
     </g>
    </g>
    <g id="ytick_4">
     <g id="line2d_11">
      <g>
       <use xlink:href="#m24d535136c" x="46.965625" y="117.651533" style="stroke: #000000; stroke-width: 0.8"/>
      </g>
     </g>
     <g id="text_12">
      <!-- 150 -->
      <g transform="translate(20.878125 121.450752) scale(0.1 -0.1)">
       <use xlink:href="#DejaVuSans-31"/>
       <use xlink:href="#DejaVuSans-35" transform="translate(63.623047 0)"/>
       <use xlink:href="#DejaVuSans-30" transform="translate(127.246094 0)"/>
      </g>
     </g>
    </g>
    <g id="ytick_5">
     <g id="line2d_12">
      <g>
       <use xlink:href="#m24d535136c" x="46.965625" y="69.655098" style="stroke: #000000; stroke-width: 0.8"/>
      </g>
     </g>
     <g id="text_13">
      <!-- 200 -->
      <g transform="translate(20.878125 73.454317) scale(0.1 -0.1)">
       <use xlink:href="#DejaVuSans-32"/>
       <use xlink:href="#DejaVuSans-30" transform="translate(63.623047 0)"/>
       <use xlink:href="#DejaVuSans-30" transform="translate(127.246094 0)"/>
      </g>
     </g>
    </g>
    <g id="ytick_6">
     <g id="line2d_13">
      <g>
       <use xlink:href="#m24d535136c" x="46.965625" y="21.658662" style="stroke: #000000; stroke-width: 0.8"/>
      </g>
     </g>
     <g id="text_14">
      <!-- 250 -->
      <g transform="translate(20.878125 25.457881) scale(0.1 -0.1)">
       <use xlink:href="#DejaVuSans-32"/>
       <use xlink:href="#DejaVuSans-35" transform="translate(63.623047 0)"/>
       <use xlink:href="#DejaVuSans-30" transform="translate(127.246094 0)"/>
      </g>
     </g>
    </g>
    <g id="text_15">
     <!-- bp -->
     <g transform="translate(14.798438 146.604437) rotate(-90) scale(0.1 -0.1)">
      <defs>
       <path id="DejaVuSans-62" d="M 3116 1747 
Q 3116 2381 2855 2742 
Q 2594 3103 2138 3103 
Q 1681 3103 1420 2742 
Q 1159 2381 1159 1747 
Q 1159 1113 1420 752 
Q 1681 391 2138 391 
Q 2594 391 2855 752 
Q 3116 1113 3116 1747 
z
M 1159 2969 
Q 1341 3281 1617 3432 
Q 1894 3584 2278 3584 
Q 2916 3584 3314 3078 
Q 3713 2572 3713 1747 
Q 3713 922 3314 415 
Q 2916 -91 2278 -91 
Q 1894 -91 1617 61 
Q 1341 213 1159 525 
L 1159 0 
L 581 0 
L 581 4863 
L 1159 4863 
L 1159 2969 
z
" transform="scale(0.015625)"/>
       <path id="DejaVuSans-70" d="M 1159 525 
L 1159 -1331 
L 581 -1331 
L 581 3500 
L 1159 3500 
L 1159 2969 
Q 1341 3281 1617 3432 
Q 1894 3584 2278 3584 
Q 2916 3584 3314 3078 
Q 3713 2572 3713 1747 
Q 3713 922 3314 415 
Q 2916 -91 2278 -91 
Q 1894 -91 1617 61 
Q 1341 213 1159 525 
z
M 3116 1747 
Q 3116 2381 2855 2742 
Q 2594 3103 2138 3103 
Q 1681 3103 1420 2742 
Q 1159 2381 1159 1747 
Q 1159 1113 1420 752 
Q 1681 391 2138 391 
Q 2594 391 2855 752 
Q 3116 1113 3116 1747 
z
" transform="scale(0.015625)"/>
      </defs>
      <use xlink:href="#DejaVuSans-62"/>
      <use xlink:href="#DejaVuSans-70" transform="translate(63.476562 0)"/>
     </g>
    </g>
   </g>
   <g id="line2d_14">
    <path d="M 63.198352 228.054918 
L 66.477691 226.178512 
L 69.75703 224.302105 
L 73.036369 222.425699 
L 76.315708 220.549292 
L 79.595046 218.672885 
L 82.874385 216.796479 
L 86.153724 214.920072 
L 89.433063 213.043666 
L 92.712402 211.167259 
L 95.991741 209.290853 
L 99.27108 207.414446 
L 102.550418 205.538039 
L 105.829757 203.661633 
L 109.109096 201.785226 
L 112.388435 199.90882 
L 115.667774 198.032413 
L 118.947113 196.156007 
L 122.226451 194.2796 
L 125.50579 192.403194 
L 128.785129 190.526787 
L 132.064468 188.65038 
L 135.343807 186.773974 
L 138.623146 184.897567 
L 141.902485 183.021161 
L 145.181823 181.144754 
L 148.461162 179.268348 
L 151.740501 177.391941 
L 155.01984 175.515535 
L 158.299179 173.639128 
L 161.578518 171.762721 
L 164.857856 169.886315 
L 168.137195 168.009908 
L 171.416534 166.133502 
L 174.695873 164.257095 
L 177.975212 162.380689 
L 181.254551 160.504282 
L 184.533889 158.627875 
L 187.813228 156.751469 
L 191.092567 154.875062 
L 194.371906 152.998656 
L 197.651245 151.122249 
L 200.930584 149.245843 
L 204.209923 147.369436 
L 207.489261 145.49303 
L 210.7686 143.616623 
L 214.047939 141.740216 
L 217.327278 139.86381 
L 220.606617 137.987403 
L 223.885956 136.110997 
L 227.165294 134.23459 
L 230.444633 132.358184 
L 233.723972 130.481777 
L 237.003311 128.60537 
L 240.28265 126.728964 
L 243.561989 124.852557 
L 246.841327 122.976151 
L 250.120666 121.099744 
L 253.400005 119.223338 
L 256.679344 117.346931 
L 259.958683 115.470525 
L 263.238022 113.594118 
L 266.517361 111.717711 
L 269.796699 109.841305 
L 273.076038 107.964898 
L 276.355377 106.088492 
L 279.634716 104.212085 
L 282.914055 102.335679 
L 286.193394 100.459272 
L 289.472732 98.582865 
L 292.752071 96.706459 
L 296.03141 94.830052 
L 299.310749 92.953646 
L 302.590088 91.077239 
L 305.869427 89.200833 
L 309.148765 87.324426 
L 312.428104 85.44802 
L 315.707443 83.571613 
L 318.986782 81.695206 
L 322.266121 79.8188 
L 325.54546 77.942393 
L 328.824799 76.065987 
L 332.104137 74.18958 
L 335.383476 72.313174 
L 338.662815 70.436767 
L 341.942154 68.560361 
L 345.221493 66.683954 
L 348.500832 64.807547 
L 351.78017 62.931141 
L 355.059509 61.054734 
L 358.338848 59.178328 
L 361.618187 57.301921 
L 364.897526 55.425515 
L 368.176865 53.549108 
L 371.456204 51.672701 
L 374.735542 49.796295 
L 378.014881 47.919888 
L 381.29422 46.043482 
L 384.573559 44.167075 
L 387.852898 42.290669 
" clip-path="url(#p22b27606e3)" style="fill: none; stroke: #1f77b4; stroke-width: 2.25; stroke-linecap: square"/>
   </g>
   <g id="patch_3">
    <path d="M 46.965625 273.312 
L 46.965625 7.2 
" style="fill: none; stroke: #000000; stroke-width: 0.8; stroke-linejoin: miter; stroke-linecap: square"/>
   </g>
   <g id="patch_4">
    <path d="M 404.085625 273.312 
L 404.085625 7.2 
" style="fill: none; stroke: #000000; stroke-width: 0.8; stroke-linejoin: miter; stroke-linecap: square"/>
   </g>
   <g id="patch_5">
    <path d="M 46.965625 273.312 
L 404.085625 273.312 
" style="fill: none; stroke: #000000; stroke-width: 0.8; stroke-linejoin: miter; stroke-linecap: square"/>
   </g>
   <g id="patch_6">
    <path d="M 46.965625 7.2 
L 404.085625 7.2 
" style="fill: none; stroke: #000000; stroke-width: 0.8; stroke-linejoin: miter; stroke-linecap: square"/>
   </g>
  </g>
 </g>
 <defs>
  <clipPath id="p22b27606e3">
   <rect x="46.965625" y="7.2" width="357.12" height="266.112"/>
  </clipPath>
 </defs>
</svg>