<?xml version="1.0" encoding="utf-8" standalone="no"?>
<!DOCTYPE svg PUBLIC "-//W3C//DTD SVG 1.1//EN"
  "http://www.w3.org/Graphics/SVG/1.1/DTD/svg11.dtd">
<svg xmlns:xlink="http://www.w3.org/1999/xlink" width="408.10125pt" height="311.146375pt" viewBox="0 0 408.10125 311.146375" xmlns="http://www.w3.org/2000/svg" version="1.1">
 <metadata>
  <rdf:RDF xmlns:dc="http://purl.org/dc/elements/1.1/" xmlns:cc="http://creativecommons.org/ns#" xmlns:rdf="http://www.w3.org/1999/02/22-rdf-syntax-ns#">
   <cc:Work>
    <dc:type rdf:resource="http://purl.org/dc/dcmitype/StillImage"/>
    <dc:date>2025-08-06T15:36:51.093115</dc:date>
    <dc:format>image/svg+xml</dc:format>
    <dc:creator>
     <cc:Agent>
      <dc:title>Matplotlib v3.10.3, https://matplotlib.org/</dc:title>
     </cc:Agent>
    </dc:creator>
   </cc:Work>
  </rdf:RDF>
 </metadata>
 <defs>
  <style type="text/css">*{stroke-linejoin: round; stroke-linecap: butt}</style>
 </defs>
 <g id="figure_1">
  <g id="patch_1">
   <path d="M 0 311.146375 
L 408.10125 311.146375 
L 408.10125 0 
L 0 0 
z
" style="fill: #ffffff"/>
  </g>
  <g id="axes_1">
   <g id="patch_2">
    <path d="M 43.78125 273.312 
L 400.90125 273.312 
L 400.90125 7.2 
L 43.78125 7.2 
z
" style="fill: #ffffff"/>
   </g>
   <g id="PathCollection_1">
    <path d="M 60.013977 171.284723 
C 60.999253 171.284723 61.944307 170.893269 62.641002 170.196573 
C 63.337697 169.499878 63.729152 168.554824 63.729152 167.569548 
C 63.729152 166.584273 63.337697 165.639219 62.641002 164.942523 
C 61.944307 164.245828 60.999253 163.854374 60.013977 163.854374 
C 59.028701 163.854374 58.083647 164.245828 57.386952 164.942523 
C 56.690257 165.639219 56.298803 166.584273 56.298803 167.569548 
C 56.298803 168.554824 56.690257 169.499878 57.386952 170.196573 
C 58.083647 170.893269 59.028701 171.284723 60.013977 171.284723 
z
" clip-path="url(#p1170076448)" style="fill: #00b0a7; stroke: #ffffff; stroke-width: 0.361777"/>
    <path d="M 327.593563 255.612205 
L 328.693601 254.512167 
L 329.793639 255.612205 
L 330.893677 254.512167 
L 329.793639 253.412129 
L 330.893677 252.312091 
L 329.793639 251.212053 
L 328.693601 252.312091 
L 327.593563 251.212053 
L 326.493525 252.312091 
L 327.593563 253.412129 
L 326.493525 254.512167 
z
" clip-path="url(#p1170076448)" style="fill: #0006fc; stroke: #ffffff; stroke-width: 0.361777"/>
    <path d="M 204.036221 217.417879 
L 205.548774 215.905327 
L 207.061326 217.417879 
L 208.573879 215.905327 
L 207.061326 214.392774 
L 208.573879 212.880222 
L 207.061326 211.367669 
L 205.548774 212.880222 
L 204.036221 211.367669 
L 202.523668 212.880222 
L 204.036221 214.392774 
L 202.523668 215.905327 
z
" clip-path="url(#p1170076448)" style="fill: #0058d3; stroke: #ffffff; stroke-width: 0.361777"/>
    <path d="M 181.743107 178.204816 
L 183.158805 176.789118 
L 184.574503 178.204816 
L 185.990201 176.789118 
L 184.574503 175.373419 
L 185.990201 173.957721 
L 184.574503 172.542023 
L 183.158805 173.957721 
L 181.743107 172.542023 
L 180.327408 173.957721 
L 181.743107 175.373419 
L 180.327408 176.789118 
z
" clip-path="url(#p1170076448)" style="fill: #0042de; stroke: #ffffff; stroke-width: 0.361777"/>
    <path d="M 167.483801 139.716612 
L 169.165074 138.035338 
L 170.846348 139.716612 
L 172.527622 138.035338 
L 170.846348 136.354065 
L 172.527622 134.672791 
L 170.846348 132.991517 
L 169.165074 134.672791 
L 167.483801 132.991517 
L 165.802527 134.672791 
L 167.483801 136.354065 
L 165.802527 138.035338 
z
" clip-path="url(#p1170076448)" style="fill: #0081be; stroke: #ffffff; stroke-width: 0.361777"/>
    <path d="M 161.642515 101.184843 
L 163.567582 99.259777 
L 165.492649 101.184843 
L 167.417716 99.259777 
L 165.492649 97.33471 
L 167.417716 95.409643 
L 165.492649 93.484576 
L 163.567582 95.409643 
L 161.642515 93.484576 
L 159.717449 95.409643 
L 161.642515 97.33471 
L 159.717449 99.259777 
z
" clip-path="url(#p1170076448)" style="fill: #00c39e; stroke: #ffffff; stroke-width: 0.361777"/>
    <path d="M 156.112503 62.030529 
L 157.97009 60.172942 
L 159.827677 62.030529 
L 161.685265 60.172942 
L 159.827677 58.315355 
L 161.685265 56.457768 
L 159.827677 54.60018 
L 157.97009 56.457768 
L 156.112503 54.60018 
L 154.254916 56.457768 
L 156.112503 58.315355 
L 154.254916 60.172942 
z
" clip-path="url(#p1170076448)" style="fill: #00b0a7; stroke: #ffffff; stroke-width: 0.361777"/>
    <path d="M 150.251278 23.538641 
L 152.372598 21.41732 
L 154.493918 23.538641 
L 156.615239 21.41732 
L 154.493918 19.296 
L 156.615239 17.17468 
L 154.493918 15.053359 
L 152.372598 17.17468 
L 150.251278 15.053359 
L 148.129957 17.17468 
L 150.251278 19.296 
L 148.129957 21.41732 
z
" clip-path="url(#p1170076448)" style="fill: #00ff80; stroke: #ffffff; stroke-width: 0.361777"/>
    <path d="M 383.168523 259.716 
L 383.168523 262.716 
L 386.168523 262.716 
L 386.168523 259.716 
z
" clip-path="url(#p1170076448)" style="fill: #0000ff; stroke: #ffffff; stroke-width: 0.361777"/>
    <path d="M 315.598263 235.904033 
L 315.598263 239.704741 
L 319.398971 239.704741 
L 319.398971 235.904033 
z
" clip-path="url(#p1170076448)" style="fill: #0033e6; stroke: #ffffff; stroke-width: 0.361777"/>
    <path d="M 282.252187 212.731298 
L 282.252187 216.054251 
L 285.57514 216.054251 
L 285.57514 212.731298 
z
" clip-path="url(#p1170076448)" style="fill: #0013f6; stroke: #ffffff; stroke-width: 0.361777"/>
    <path d="M 262.348876 189.007596 
L 262.348876 192.954726 
L 266.296006 192.954726 
L 266.296006 189.007596 
z
" clip-path="url(#p1170076448)" style="fill: #003ee0; stroke: #ffffff; stroke-width: 0.361777"/>
    <path d="M 247.987089 165.227926 
L 247.987089 169.91117 
L 252.670333 169.91117 
L 252.670333 165.227926 
z
" clip-path="url(#p1170076448)" style="fill: #007ac2; stroke: #ffffff; stroke-width: 0.361777"/>
    <path d="M 236.86594 134.086278 
L 236.86594 138.621851 
L 241.401513 138.621851 
L 241.401513 134.086278 
z
" clip-path="url(#p1170076448)" style="fill: #006dc8; stroke: #ffffff; stroke-width: 0.361777"/>
    <path d="M 228.176058 94.77328 
L 228.176058 99.89614 
L 233.298918 99.89614 
L 233.298918 94.77328 
z
" clip-path="url(#p1170076448)" style="fill: #00a3ae; stroke: #ffffff; stroke-width: 0.361777"/>
   </g>
   <g id="matplotlib.axis_1">
    <g id="xtick_1">
     <g id="line2d_1">
      <defs>
       <path id="ma7a8e1ddc0" d="M 0 0 
L 0 3.5 
" style="stroke: #000000; stroke-width: 0.8"/>
      </defs>
      <g>
       <use xlink:href="#ma7a8e1ddc0" x="65.611469" y="273.312" style="stroke: #000000; stroke-width: 0.8"/>
      </g>
     </g>
     <g id="text_1">
      <!-- 40 -->
      <g transform="translate(59.248969 287.910437) scale(0.1 -0.1)">
       <defs>
        <path id="DejaVuSans-34" d="M 2419 4116 
L 825 1625 
L 2419 1625 
L 2419 4116 
z
M 2253 4666 
L 3047 4666 
L 3047 1625 
L 3713 1625 
L 3713 1100 
L 3047 1100 
L 3047 0 
L 2419 0 
L 2419 1100 
L 313 1100 
L 313 1709 
L 2253 4666 
z
" transform="scale(0.015625)"/>
        <path id="DejaVuSans-30" d="M 2034 4250 
Q 1547 4250 1301 3770 
Q 1056 3291 1056 2328 
Q 1056 1369 1301 889 
Q 1547 409 2034 409 
Q 2525 409 2770 889 
Q 3016 1369 3016 2328 
Q 3016 3291 2770 3770 
Q 2525 4250 2034 4250 
z
M 2034 4750 
Q 2819 4750 3233 4129 
Q 3647 3509 3647 2328 
Q 3647 1150 3233 529 
Q 2819 -91 2034 -91 
Q 1250 -91 836 529 
Q 422 1150 422 2328 
Q 422 3509 836 4129 
Q 1250 4750 2034 4750 
z
" transform="scale(0.015625)"/>
       </defs>
       <use xlink:href="#DejaVuSans-34"/>
       <use xlink:href="#DejaVuSans-30" transform="translate(63.623047 0)"/>
      </g>
     </g>
    </g>
    <g id="xtick_2">
     <g id="line2d_2">
      <g>
       <use xlink:href="#ma7a8e1ddc0" x="121.586391" y="273.312" style="stroke: #000000; stroke-width: 0.8"/>
      </g>
     </g>
     <g id="text_2">
      <!-- 60 -->
      <g transform="translate(115.223891 287.910437) scale(0.1 -0.1)">
       <defs>
        <path id="DejaVuSans-36" d="M 2113 2584 
Q 1688 2584 1439 2293 
Q 1191 2003 1191 1497 
Q 1191 994 1439 701 
Q 1688 409 2113 409 
Q 2538 409 2786 701 
Q 3034 994 3034 1497 
Q 3034 2003 2786 2293 
Q 2538 2584 2113 2584 
z
M 3366 4563 
L 3366 3988 
Q 3128 4100 2886 4159 
Q 2644 4219 2406 4219 
Q 1781 4219 1451 3797 
Q 1122 3375 1075 2522 
Q 1259 2794 1537 2939 
Q 1816 3084 2150 3084 
Q 2853 3084 3261 2657 
Q 3669 2231 3669 1497 
Q 3669 778 3244 343 
Q 2819 -91 2113 -91 
Q 1303 -91 875 529 
Q 447 1150 447 2328 
Q 447 3434 972 4092 
Q 1497 4750 2381 4750 
Q 2619 4750 2861 4703 
Q 3103 4656 3366 4563 
z
" transform="scale(0.015625)"/>
       </defs>
       <use xlink:href="#DejaVuSans-36"/>
       <use xlink:href="#DejaVuSans-30" transform="translate(63.623047 0)"/>
      </g>
     </g>
    </g>
    <g id="xtick_3">
     <g id="line2d_3">
      <g>
       <use xlink:href="#ma7a8e1ddc0" x="177.561313" y="273.312" style="stroke: #000000; stroke-width: 0.8"/>
      </g>
     </g>
     <g id="text_3">
      <!-- 80 -->
      <g transform="translate(171.198813 287.910437) scale(0.1 -0.1)">
       <defs>
        <path id="DejaVuSans-38" d="M 2034 2216 
Q 1584 2216 1326 1975 
Q 1069 1734 1069 1313 
Q 1069 891 1326 650 
Q 1584 409 2034 409 
Q 2484 409 2743 651 
Q 3003 894 3003 1313 
Q 3003 1734 2745 1975 
Q 2488 2216 2034 2216 
z
M 1403 2484 
Q 997 2584 770 2862 
Q 544 3141 544 3541 
Q 544 4100 942 4425 
Q 1341 4750 2034 4750 
Q 2731 4750 3128 4425 
Q 3525 4100 3525 3541 
Q 3525 3141 3298 2862 
Q 3072 2584 2669 2484 
Q 3125 2378 3379 2068 
Q 3634 1759 3634 1313 
Q 3634 634 3220 271 
Q 2806 -91 2034 -91 
Q 1263 -91 848 271 
Q 434 634 434 1313 
Q 434 1759 690 2068 
Q 947 2378 1403 2484 
z
M 1172 3481 
Q 1172 3119 1398 2916 
Q 1625 2713 2034 2713 
Q 2441 2713 2670 2916 
Q 2900 3119 2900 3481 
Q 2900 3844 2670 4047 
Q 2441 4250 2034 4250 
Q 1625 4250 1398 4047 
Q 1172 3844 1172 3481 
z
" transform="scale(0.015625)"/>
       </defs>
       <use xlink:href="#DejaVuSans-38"/>
       <use xlink:href="#DejaVuSans-30" transform="translate(63.623047 0)"/>
      </g>
     </g>
    </g>
    <g id="xtick_4">
     <g id="line2d_4">
      <g>
       <use xlink:href="#ma7a8e1ddc0" x="233.536234" y="273.312" style="stroke: #000000; stroke-width: 0.8"/>
      </g>
     </g>
     <g id="text_4">
      <!-- 100 -->
      <g transform="translate(223.992484 287.910437) scale(0.1 -0.1)">
       <defs>
        <path id="DejaVuSans-31" d="M 794 531 
L 1825 531 
L 1825 4091 
L 703 3866 
L 703 4441 
L 1819 4666 
L 2450 4666 
L 2450 531 
L 3481 531 
L 3481 0 
L 794 0 
L 794 531 
z
" transform="scale(0.015625)"/>
       </defs>
       <use xlink:href="#DejaVuSans-31"/>
       <use xlink:href="#DejaVuSans-30" transform="translate(63.623047 0)"/>
       <use xlink:href="#DejaVuSans-30" transform="translate(127.246094 0)"/>
      </g>
     </g>
    </g>
    <g id="xtick_5">
     <g id="line2d_5">
      <g>
       <use xlink:href="#ma7a8e1ddc0" x="289.511156" y="273.312" style="stroke: #000000; stroke-width: 0.8"/>
      </g>
     </g>
     <g id="text_5">
      <!-- 120 -->
      <g transform="translate(279.967406 287.910437) scale(0.1 -0.1)">
       <defs>
        <path id="DejaVuSans-32" d="M 1228 531 
L 3431 531 
L 3431 0 
L 469 0 
L 469 531 
Q 828 903 1448 1529 
Q 2069 2156 2228 2338 
Q 2531 2678 2651 2914 
Q 2772 3150 2772 3378 
Q 2772 3750 2511 3984 
Q 2250 4219 1831 4219 
Q 1534 4219 1204 4116 
Q 875 4013 500 3803 
L 500 4441 
Q 881 4594 1212 4672 
Q 1544 4750 1819 4750 
Q 2544 4750 2975 4387 
Q 3406 4025 3406 3419 
Q 3406 3131 3298 2873 
Q 3191 2616 2906 2266 
Q 2828 2175 2409 1742 
Q 1991 1309 1228 531 
z
" transform="scale(0.015625)"/>
       </defs>
       <use xlink:href="#DejaVuSans-31"/>
       <use xlink:href="#DejaVuSans-32" transform="translate(63.623047 0)"/>
       <use xlink:href="#DejaVuSans-30" transform="translate(127.246094 0)"/>
      </g>
     </g>
    </g>
    <g id="xtick_6">
     <g id="line2d_6">
      <g>
       <use xlink:href="#ma7a8e1ddc0" x="345.486078" y="273.312" style="stroke: #000000; stroke-width: 0.8"/>
      </g>
     </g>
     <g id="text_6">
      <!-- 140 -->
      <g transform="translate(335.942328 287.910437) scale(0.1 -0.1)">
       <use xlink:href="#DejaVuSans-31"/>
       <use xlink:href="#DejaVuSans-34" transform="translate(63.623047 0)"/>
       <use xlink:href="#DejaVuSans-30" transform="translate(127.246094 0)"/>
      </g>
     </g>
    </g>
    <g id="text_7">
     <!-- radius_pm -->
     <g transform="translate(196.340469 301.588562) scale(0.1 -0.1)">
      <defs>
       <path id="DejaVuSans-72" d="M 2631 2963 
Q 2534 3019 2420 3045 
Q 2306 3072 2169 3072 
Q 1681 3072 1420 2755 
Q 1159 2438 1159 1844 
L 1159 0 
L 581 0 
L 581 3500 
L 1159 3500 
L 1159 2956 
Q 1341 3275 1631 3429 
Q 1922 3584 2338 3584 
Q 2397 3584 2469 3576 
Q 2541 3569 2628 3553 
L 2631 2963 
z
" transform="scale(0.015625)"/>
       <path id="DejaVuSans-61" d="M 2194 1759 
Q 1497 1759 1228 1600 
Q 959 1441 959 1056 
Q 959 750 1161 570 
Q 1363 391 1709 391 
Q 2188 391 2477 730 
Q 2766 1069 2766 1631 
L 2766 1759 
L 2194 1759 
z
M 3341 1997 
L 3341 0 
L 2766 0 
L 2766 531 
Q 2569 213 2275 61 
Q 1981 -91 1556 -91 
Q 1019 -91 701 211 
Q 384 513 384 1019 
Q 384 1609 779 1909 
Q 1175 2209 1959 2209 
L 2766 2209 
L 2766 2266 
Q 2766 2663 2505 2880 
Q 2244 3097 1772 3097 
Q 1472 3097 1187 3025 
Q 903 2953 641 2809 
L 641 3341 
Q 956 3463 1253 3523 
Q 1550 3584 1831 3584 
Q 2591 3584 2966 3190 
Q 3341 2797 3341 1997 
z
" transform="scale(0.015625)"/>
       <path id="DejaVuSans-64" d="M 2906 2969 
L 2906 4863 
L 3481 4863 
L 3481 0 
L 2906 0 
L 2906 525 
Q 2725 213 2448 61 
Q 2172 -91 1784 -91 
Q 1150 -91 751 415 
Q 353 922 353 1747 
Q 353 2572 751 3078 
Q 1150 3584 1784 3584 
Q 2172 3584 2448 3432 
Q 2725 3281 2906 2969 
z
M 947 1747 
Q 947 1113 1208 752 
Q 1469 391 1925 391 
Q 2381 391 2643 752 
Q 2906 1113 2906 1747 
Q 2906 2381 2643 2742 
Q 2381 3103 1925 3103 
Q 1469 3103 1208 2742 
Q 947 2381 947 1747 
z
" transform="scale(0.015625)"/>
       <path id="DejaVuSans-69" d="M 603 3500 
L 1178 3500 
L 1178 0 
L 603 0 
L 603 3500 
z
M 603 4863 
L 1178 4863 
L 1178 4134 
L 603 4134 
L 603 4863 
z
" transform="scale(0.015625)"/>
       <path id="DejaVuSans-75" d="M 544 1381 
L 544 3500 
L 1119 3500 
L 1119 1403 
Q 1119 906 1312 657 
Q 1506 409 1894 409 
Q 2359 409 2629 706 
Q 2900 1003 2900 1516 
L 2900 3500 
L 3475 3500 
L 3475 0 
L 2900 0 
L 2900 538 
Q 2691 219 2414 64 
Q 2138 -91 1772 -91 
Q 1169 -91 856 284 
Q 544 659 544 1381 
z
M 1991 3584 
L 1991 3584 
z
" transform="scale(0.015625)"/>
       <path id="DejaVuSans-73" d="M 2834 3397 
L 2834 2853 
Q 2591 2978 2328 3040 
Q 2066 3103 1784 3103 
Q 1356 3103 1142 2972 
Q 928 2841 928 2578 
Q 928 2378 1081 2264 
Q 1234 2150 1697 2047 
L 1894 2003 
Q 2506 1872 2764 1633 
Q 3022 1394 3022 966 
Q 3022 478 2636 193 
Q 2250 -91 1575 -91 
Q 1294 -91 989 -36 
Q 684 19 347 128 
L 347 722 
Q 666 556 975 473 
Q 1284 391 1588 391 
Q 1994 391 2212 530 
Q 2431 669 2431 922 
Q 2431 1156 2273 1281 
Q 2116 1406 1581 1522 
L 1381 1569 
Q 847 1681 609 1914 
Q 372 2147 372 2553 
Q 372 3047 722 3315 
Q 1072 3584 1716 3584 
Q 2034 3584 2315 3537 
Q 2597 3491 2834 3397 
z
" transform="scale(0.015625)"/>
       <path id="DejaVuSans-5f" d="M 3263 -1063 
L 3263 -1509 
L -63 -1509 
L -63 -1063 
L 3263 -1063 
z
" transform="scale(0.015625)"/>
       <path id="DejaVuSans-70" d="M 1159 525 
L 1159 -1331 
L 581 -1331 
L 581 3500 
L 1159 3500 
L 1159 2969 
Q 1341 3281 1617 3432 
Q 1894 3584 2278 3584 
Q 2916 3584 3314 3078 
Q 3713 2572 3713 1747 
Q 3713 922 3314 415 
Q 2916 -91 2278 -91 
Q 1894 -91 1617 61 
Q 1341 213 1159 525 
z
M 3116 1747 
Q 3116 2381 2855 2742 
Q 2594 3103 2138 3103 
Q 1681 3103 1420 2742 
Q 1159 2381 1159 1747 
Q 1159 1113 1420 752 
Q 1681 391 2138 391 
Q 2594 391 2855 752 
Q 3116 1113 3116 1747 
z
" transform="scale(0.015625)"/>
       <path id="DejaVuSans-6d" d="M 3328 2828 
Q 3544 3216 3844 3400 
Q 4144 3584 4550 3584 
Q 5097 3584 5394 3201 
Q 5691 2819 5691 2113 
L 5691 0 
L 5113 0 
L 5113 2094 
Q 5113 2597 4934 2840 
Q 4756 3084 4391 3084 
Q 3944 3084 3684 2787 
Q 3425 2491 3425 1978 
L 3425 0 
L 2847 0 
L 2847 2094 
Q 2847 2600 2669 2842 
Q 2491 3084 2119 3084 
Q 1678 3084 1418 2786 
Q 1159 2488 1159 1978 
L 1159 0 
L 581 0 
L 581 3500 
L 1159 3500 
L 1159 2956 
Q 1356 3278 1631 3431 
Q 1906 3584 2284 3584 
Q 2666 3584 2933 3390 
Q 3200 3197 3328 2828 
z
" transform="scale(0.015625)"/>
      </defs>
      <use xlink:href="#DejaVuSans-72"/>
      <use xlink:href="#DejaVuSans-61" transform="translate(41.113281 0)"/>
      <use xlink:href="#DejaVuSans-64" transform="translate(102.392578 0)"/>
      <use xlink:href="#DejaVuSans-69" transform="translate(165.869141 0)"/>
      <use xlink:href="#DejaVuSans-75" transform="translate(193.652344 0)"/>
      <use xlink:href="#DejaVuSans-73" transform="translate(257.03125 0)"/>
      <use xlink:href="#DejaVuSans-5f" transform="translate(309.130859 0)"/>
      <use xlink:href="#DejaVuSans-70" transform="translate(359.130859 0)"/>
      <use xlink:href="#DejaVuSans-6d" transform="translate(422.607422 0)"/>
     </g>
    </g>
   </g>
   <g id="matplotlib.axis_2">
    <g id="ytick_1">
     <g id="line2d_7">
      <defs>
       <path id="m60ef26c18e" d="M 0 0 
L -3.5 0 
" style="stroke: #000000; stroke-width: 0.8"/>
      </defs>
      <g>
       <use xlink:href="#m60ef26c18e" x="43.78125" y="253.412129" style="stroke: #000000; stroke-width: 0.8"/>
      </g>
     </g>
     <g id="text_8">
      <!-- 1.0 -->
      <g transform="translate(20.878125 257.211348) scale(0.1 -0.1)">
       <defs>
        <path id="DejaVuSans-2e" d="M 684 794 
L 1344 794 
L 1344 0 
L 684 0 
L 684 794 
z
" transform="scale(0.015625)"/>
       </defs>
       <use xlink:href="#DejaVuSans-31"/>
       <use xlink:href="#DejaVuSans-2e" transform="translate(63.623047 0)"/>
       <use xlink:href="#DejaVuSans-30" transform="translate(95.410156 0)"/>
      </g>
     </g>
    </g>
    <g id="ytick_2">
     <g id="line2d_8">
      <g>
       <use xlink:href="#m60ef26c18e" x="43.78125" y="214.392774" style="stroke: #000000; stroke-width: 0.8"/>
      </g>
     </g>
     <g id="text_9">
      <!-- 1.5 -->
      <g transform="translate(20.878125 218.191993) scale(0.1 -0.1)">
       <defs>
        <path id="DejaVuSans-35" d="M 691 4666 
L 3169 4666 
L 3169 4134 
L 1269 4134 
L 1269 2991 
Q 1406 3038 1543 3061 
Q 1681 3084 1819 3084 
Q 2600 3084 3056 2656 
Q 3513 2228 3513 1497 
Q 3513 744 3044 326 
Q 2575 -91 1722 -91 
Q 1428 -91 1123 -41 
Q 819 9 494 109 
L 494 744 
Q 775 591 1075 516 
Q 1375 441 1709 441 
Q 2250 441 2565 725 
Q 2881 1009 2881 1497 
Q 2881 1984 2565 2268 
Q 2250 2553 1709 2553 
Q 1456 2553 1204 2497 
Q 953 2441 691 2322 
L 691 4666 
z
" transform="scale(0.015625)"/>
       </defs>
       <use xlink:href="#DejaVuSans-31"/>
       <use xlink:href="#DejaVuSans-2e" transform="translate(63.623047 0)"/>
       <use xlink:href="#DejaVuSans-35" transform="translate(95.410156 0)"/>
      </g>
     </g>
    </g>
    <g id="ytick_3">
     <g id="line2d_9">
      <g>
       <use xlink:href="#m60ef26c18e" x="43.78125" y="175.373419" style="stroke: #000000; stroke-width: 0.8"/>
      </g>
     </g>
     <g id="text_10">
      <!-- 2.0 -->
      <g transform="translate(20.878125 179.172638) scale(0.1 -0.1)">
       <use xlink:href="#DejaVuSans-32"/>
       <use xlink:href="#DejaVuSans-2e" transform="translate(63.623047 0)"/>
       <use xlink:href="#DejaVuSans-30" transform="translate(95.410156 0)"/>
      </g>
     </g>
    </g>
    <g id="ytick_4">
     <g id="line2d_10">
      <g>
       <use xlink:href="#m60ef26c18e" x="43.78125" y="136.354065" style="stroke: #000000; stroke-width: 0.8"/>
      </g>
     </g>
     <g id="text_11">
      <!-- 2.5 -->
      <g transform="translate(20.878125 140.153283) scale(0.1 -0.1)">
       <use xlink:href="#DejaVuSans-32"/>
       <use xlink:href="#DejaVuSans-2e" transform="translate(63.623047 0)"/>
       <use xlink:href="#DejaVuSans-35" transform="translate(95.410156 0)"/>
      </g>
     </g>
    </g>
    <g id="ytick_5">
     <g id="line2d_11">
      <g>
       <use xlink:href="#m60ef26c18e" x="43.78125" y="97.33471" style="stroke: #000000; stroke-width: 0.8"/>
      </g>
     </g>
     <g id="text_12">
      <!-- 3.0 -->
      <g transform="translate(20.878125 101.133928) scale(0.1 -0.1)">
       <defs>
        <path id="DejaVuSans-33" d="M 2597 2516 
Q 3050 2419 3304 2112 
Q 3559 1806 3559 1356 
Q 3559 666 3084 287 
Q 2609 -91 1734 -91 
Q 1441 -91 1130 -33 
Q 819 25 488 141 
L 488 750 
Q 750 597 1062 519 
Q 1375 441 1716 441 
Q 2309 441 2620 675 
Q 2931 909 2931 1356 
Q 2931 1769 2642 2001 
Q 2353 2234 1838 2234 
L 1294 2234 
L 1294 2753 
L 1863 2753 
Q 2328 2753 2575 2939 
Q 2822 3125 2822 3475 
Q 2822 3834 2567 4026 
Q 2313 4219 1838 4219 
Q 1578 4219 1281 4162 
Q 984 4106 628 3988 
L 628 4550 
Q 988 4650 1302 4700 
Q 1616 4750 1894 4750 
Q 2613 4750 3031 4423 
Q 3450 4097 3450 3541 
Q 3450 3153 3228 2886 
Q 3006 2619 2597 2516 
z
" transform="scale(0.015625)"/>
       </defs>
       <use xlink:href="#DejaVuSans-33"/>
       <use xlink:href="#DejaVuSans-2e" transform="translate(63.623047 0)"/>
       <use xlink:href="#DejaVuSans-30" transform="translate(95.410156 0)"/>
      </g>
     </g>
    </g>
    <g id="ytick_6">
     <g id="line2d_12">
      <g>
       <use xlink:href="#m60ef26c18e" x="43.78125" y="58.315355" style="stroke: #000000; stroke-width: 0.8"/>
      </g>
     </g>
     <g id="text_13">
      <!-- 3.5 -->
      <g transform="translate(20.878125 62.114574) scale(0.1 -0.1)">
       <use xlink:href="#DejaVuSans-33"/>
       <use xlink:href="#DejaVuSans-2e" transform="translate(63.623047 0)"/>
       <use xlink:href="#DejaVuSans-35" transform="translate(95.410156 0)"/>
      </g>
     </g>
    </g>
    <g id="ytick_7">
     <g id="line2d_13">
      <g>
       <use xlink:href="#m60ef26c18e" x="43.78125" y="19.296" style="stroke: #000000; stroke-width: 0.8"/>
      </g>
     </g>
     <g id="text_14">
      <!-- 4.0 -->
      <g transform="translate(20.878125 23.095219) scale(0.1 -0.1)">
       <use xlink:href="#DejaVuSans-34"/>
       <use xlink:href="#DejaVuSans-2e" transform="translate(63.623047 0)"/>
       <use xlink:href="#DejaVuSans-30" transform="translate(95.410156 0)"/>
      </g>
     </g>
    </g>
    <g id="text_15">
     <!-- EN -->
     <g transform="translate(14.798438 147.156) rotate(-90) scale(0.1 -0.1)">
      <defs>
       <path id="DejaVuSans-45" d="M 628 4666 
L 3578 4666 
L 3578 4134 
L 1259 4134 
L 1259 2753 
L 3481 2753 
L 3481 2222 
L 1259 2222 
L 1259 531 
L 3634 531 
L 3634 0 
L 628 0 
L 628 4666 
z
" transform="scale(0.015625)"/>
       <path id="DejaVuSans-4e" d="M 628 4666 
L 1478 4666 
L 3547 763 
L 3547 4666 
L 4159 4666 
L 4159 0 
L 3309 0 
L 1241 3903 
L 1241 0 
L 628 0 
L 628 4666 
z
" transform="scale(0.015625)"/>
      </defs>
      <use xlink:href="#DejaVuSans-45"/>
      <use xlink:href="#DejaVuSans-4e" transform="translate(63.183594 0)"/>
     </g>
    </g>
   </g>
   <g id="line2d_14"/>
   <g id="line2d_15"/>
   <g id="line2d_16"/>
   <g id="line2d_17"/>
   <g id="line2d_18"/>
   <g id="line2d_19"/>
   <g id="line2d_20"/>
   <g id="line2d_21"/>
   <g id="line2d_22"/>
   <g id="line2d_23"/>
   <g id="line2d_24"/>
   <g id="patch_3">
    <path d="M 43.78125 273.312 
L 43.78125 7.2 
" style="fill: none; stroke: #000000; stroke-width: 0.8; stroke-linejoin: miter; stroke-linecap: square"/>
   </g>
   <g id="patch_4">
    <path d="M 400.90125 273.312 
L 400.90125 7.2 
" style="fill: none; stroke: #000000; stroke-width: 0.8; stroke-linejoin: miter; stroke-linecap: square"/>
   </g>
   <g id="patch_5">
    <path d="M 43.78125 273.312 
L 400.90125 273.312 
" style="fill: none; stroke: #000000; stroke-width: 0.8; stroke-linejoin: miter; stroke-linecap: square"/>
   </g>
   <g id="patch_6">
    <path d="M 43.78125 7.2 
L 400.90125 7.2 
" style="fill: none; stroke: #000000; stroke-width: 0.8; stroke-linejoin: miter; stroke-linecap: square"/>
   </g>
   <g id="legend_1">
    <g id="patch_7">
     <path d="M 336.45125 176.9375 
L 393.90125 176.9375 
Q 395.90125 176.9375 395.90125 174.9375 
L 395.90125 14.2 
Q 395.90125 12.2 393.90125 12.2 
L 336.45125 12.2 
Q 334.45125 12.2 334.45125 14.2 
L 334.45125 174.9375 
Q 334.45125 176.9375 336.45125 176.9375 
z
" style="fill: #ffffff; opacity: 0.8; stroke: #cccccc; stroke-linejoin: miter"/>
    </g>
    <g id="line2d_25"/>
    <g id="text_16">
     <!-- IE_kJ -->
     <g transform="translate(366.45125 23.798437) scale(0.1 -0.1)">
      <defs>
       <path id="DejaVuSans-49" d="M 628 4666 
L 1259 4666 
L 1259 0 
L 628 0 
L 628 4666 
z
" transform="scale(0.015625)"/>
       <path id="DejaVuSans-6b" d="M 581 4863 
L 1159 4863 
L 1159 1991 
L 2875 3500 
L 3609 3500 
L 1753 1863 
L 3688 0 
L 2938 0 
L 1159 1709 
L 1159 0 
L 581 0 
L 581 4863 
z
" transform="scale(0.015625)"/>
       <path id="DejaVuSans-4a" d="M 628 4666 
L 1259 4666 
L 1259 325 
Q 1259 -519 939 -900 
Q 619 -1281 -91 -1281 
L -331 -1281 
L -331 -750 
L -134 -750 
Q 284 -750 456 -515 
Q 628 -281 628 325 
L 628 4666 
z
" transform="scale(0.015625)"/>
      </defs>
      <use xlink:href="#DejaVuSans-49"/>
      <use xlink:href="#DejaVuSans-45" transform="translate(29.492188 0)"/>
      <use xlink:href="#DejaVuSans-5f" transform="translate(92.675781 0)"/>
      <use xlink:href="#DejaVuSans-6b" transform="translate(142.675781 0)"/>
      <use xlink:href="#DejaVuSans-4a" transform="translate(200.585938 0)"/>
     </g>
    </g>
    <g id="line2d_26">
     <defs>
      <path id="mf0ff136126" d="M 0 2.397478 
C 0.635819 2.397478 1.245681 2.144864 1.695273 1.695273 
C 2.144864 1.245681 2.397478 0.635819 2.397478 0 
C 2.397478 -0.635819 2.144864 -1.245681 1.695273 -1.695273 
C 1.245681 -2.144864 0.635819 -2.397478 0 -2.397478 
C -0.635819 -2.397478 -1.245681 -2.144864 -1.695273 -1.695273 
C -2.144864 -1.245681 -2.397478 -0.635819 -2.397478 0 
C -2.397478 0.635819 -2.144864 1.245681 -1.695273 1.695273 
C -1.245681 2.144864 -0.635819 2.397478 0 2.397478 
z
" style="stroke: #ffffff; stroke-width: 0.361777"/>
     </defs>
     <g>
      <use xlink:href="#mf0ff136126" x="348.45125" y="35.254687" style="fill: #0017f4; stroke: #ffffff; stroke-width: 0.361777"/>
     </g>
    </g>
    <g id="text_17">
     <!-- 600 -->
     <g transform="translate(366.45125 38.754687) scale(0.1 -0.1)">
      <use xlink:href="#DejaVuSans-36"/>
      <use xlink:href="#DejaVuSans-30" transform="translate(63.623047 0)"/>
      <use xlink:href="#DejaVuSans-30" transform="translate(127.246094 0)"/>
     </g>
    </g>
    <g id="line2d_27">
     <defs>
      <path id="mc2f2b4f511" d="M 0 2.831397 
C 0.750895 2.831397 1.471137 2.533063 2.0021 2.0021 
C 2.533063 1.471137 2.831397 0.750895 2.831397 0 
C 2.831397 -0.750895 2.533063 -1.471137 2.0021 -2.0021 
C 1.471137 -2.533063 0.750895 -2.831397 0 -2.831397 
C -0.750895 -2.831397 -1.471137 -2.533063 -2.0021 -2.0021 
C -2.533063 -1.471137 -2.831397 -0.750895 -2.831397 0 
C -2.831397 0.750895 -2.533063 1.471137 -2.0021 2.0021 
C -1.471137 2.533063 -0.750895 2.831397 0 2.831397 
z
" style="stroke: #ffffff; stroke-width: 0.361777"/>
     </defs>
     <g>
      <use xlink:href="#mc2f2b4f511" x="348.45125" y="49.932812" style="fill: #0042de; stroke: #ffffff; stroke-width: 0.361777"/>
     </g>
    </g>
    <g id="text_18">
     <!-- 800 -->
     <g transform="translate(366.45125 53.432812) scale(0.1 -0.1)">
      <use xlink:href="#DejaVuSans-38"/>
      <use xlink:href="#DejaVuSans-30" transform="translate(63.623047 0)"/>
      <use xlink:href="#DejaVuSans-30" transform="translate(127.246094 0)"/>
     </g>
    </g>
    <g id="line2d_28">
     <defs>
      <path id="m4d8f4d09fc" d="M 0 3.207135 
C 0.850542 3.207135 1.666363 2.869211 2.267787 2.267787 
C 2.869211 1.666363 3.207135 0.850542 3.207135 0 
C 3.207135 -0.850542 2.869211 -1.666363 2.267787 -2.267787 
C 1.666363 -2.869211 0.850542 -3.207135 0 -3.207135 
C -0.850542 -3.207135 -1.666363 -2.869211 -2.267787 -2.267787 
C -2.869211 -1.666363 -3.207135 -0.850542 -3.207135 0 
C -3.207135 0.850542 -2.869211 1.666363 -2.267787 2.267787 
C -1.666363 2.869211 -0.850542 3.207135 0 3.207135 
z
" style="stroke: #ffffff; stroke-width: 0.361777"/>
     </defs>
     <g>
      <use xlink:href="#m4d8f4d09fc" x="348.45125" y="64.610937" style="fill: #006dc8; stroke: #ffffff; stroke-width: 0.361777"/>
     </g>
    </g>
    <g id="text_19">
     <!-- 1000 -->
     <g transform="translate(366.45125 68.110937) scale(0.1 -0.1)">
      <use xlink:href="#DejaVuSans-31"/>
      <use xlink:href="#DejaVuSans-30" transform="translate(63.623047 0)"/>
      <use xlink:href="#DejaVuSans-30" transform="translate(127.246094 0)"/>
      <use xlink:href="#DejaVuSans-30" transform="translate(190.869141 0)"/>
     </g>
    </g>
    <g id="line2d_29">
     <defs>
      <path id="m0886c338f8" d="M 0 3.54325 
C 0.939681 3.54325 1.841001 3.169911 2.505456 2.505456 
C 3.169911 1.841001 3.54325 0.939681 3.54325 0 
C 3.54325 -0.939681 3.169911 -1.841001 2.505456 -2.505456 
C 1.841001 -3.169911 0.939681 -3.54325 0 -3.54325 
C -0.939681 -3.54325 -1.841001 -3.169911 -2.505456 -2.505456 
C -3.169911 -1.841001 -3.54325 -0.939681 -3.54325 0 
C -3.54325 0.939681 -3.169911 1.841001 -2.505456 2.505456 
C -1.841001 3.169911 -0.939681 3.54325 0 3.54325 
z
" style="stroke: #ffffff; stroke-width: 0.361777"/>
     </defs>
     <g>
      <use xlink:href="#m0886c338f8" x="348.45125" y="79.289062" style="fill: #0098b3; stroke: #ffffff; stroke-width: 0.361777"/>
     </g>
    </g>
    <g id="text_20">
     <!-- 1200 -->
     <g transform="translate(366.45125 82.789062) scale(0.1 -0.1)">
      <use xlink:href="#DejaVuSans-31"/>
      <use xlink:href="#DejaVuSans-32" transform="translate(63.623047 0)"/>
      <use xlink:href="#DejaVuSans-30" transform="translate(127.246094 0)"/>
      <use xlink:href="#DejaVuSans-30" transform="translate(190.869141 0)"/>
     </g>
    </g>
    <g id="line2d_30">
     <defs>
      <path id="md30c65cb17" d="M 0 3.850134 
C 1.021067 3.850134 2.000452 3.444459 2.722456 2.722456 
C 3.444459 2.000452 3.850134 1.021067 3.850134 0 
C 3.850134 -1.021067 3.444459 -2.000452 2.722456 -2.722456 
C 2.000452 -3.444459 1.021067 -3.850134 0 -3.850134 
C -1.021067 -3.850134 -2.000452 -3.444459 -2.722456 -2.722456 
C -3.444459 -2.000452 -3.850134 -1.021067 -3.850134 0 
C -3.850134 1.021067 -3.444459 2.000452 -2.722456 2.722456 
C -2.000452 3.444459 -1.021067 3.850134 0 3.850134 
z
" style="stroke: #ffffff; stroke-width: 0.361777"/>
     </defs>
     <g>
      <use xlink:href="#md30c65cb17" x="348.45125" y="93.967187" style="fill: #00c39e; stroke: #ffffff; stroke-width: 0.361777"/>
     </g>
    </g>
    <g id="text_21">
     <!-- 1400 -->
     <g transform="translate(366.45125 97.467187) scale(0.1 -0.1)">
      <use xlink:href="#DejaVuSans-31"/>
      <use xlink:href="#DejaVuSans-34" transform="translate(63.623047 0)"/>
      <use xlink:href="#DejaVuSans-30" transform="translate(127.246094 0)"/>
      <use xlink:href="#DejaVuSans-30" transform="translate(190.869141 0)"/>
     </g>
    </g>
    <g id="line2d_31">
     <defs>
      <path id="m07a1dcd3b3" d="M 0 4.1343 
C 1.096429 4.1343 2.148099 3.698684 2.923392 2.923392 
C 3.698684 2.148099 4.1343 1.096429 4.1343 0 
C 4.1343 -1.096429 3.698684 -2.148099 2.923392 -2.923392 
C 2.148099 -3.698684 1.096429 -4.1343 0 -4.1343 
C -1.096429 -4.1343 -2.148099 -3.698684 -2.923392 -2.923392 
C -3.698684 -2.148099 -4.1343 -1.096429 -4.1343 0 
C -4.1343 1.096429 -3.698684 2.148099 -2.923392 2.923392 
C -2.148099 3.698684 -1.096429 4.1343 0 4.1343 
z
" style="stroke: #ffffff; stroke-width: 0.361777"/>
     </defs>
     <g>
      <use xlink:href="#m07a1dcd3b3" x="348.45125" y="108.645312" style="fill: #00ee88; stroke: #ffffff; stroke-width: 0.361777"/>
     </g>
    </g>
    <g id="text_22">
     <!-- 1600 -->
     <g transform="translate(366.45125 112.145312) scale(0.1 -0.1)">
      <use xlink:href="#DejaVuSans-31"/>
      <use xlink:href="#DejaVuSans-36" transform="translate(63.623047 0)"/>
      <use xlink:href="#DejaVuSans-30" transform="translate(127.246094 0)"/>
      <use xlink:href="#DejaVuSans-30" transform="translate(190.869141 0)"/>
     </g>
    </g>
    <g id="line2d_32"/>
    <g id="text_23">
     <!-- row -->
     <g transform="translate(366.45125 126.823438) scale(0.1 -0.1)">
      <defs>
       <path id="DejaVuSans-6f" d="M 1959 3097 
Q 1497 3097 1228 2736 
Q 959 2375 959 1747 
Q 959 1119 1226 758 
Q 1494 397 1959 397 
Q 2419 397 2687 759 
Q 2956 1122 2956 1747 
Q 2956 2369 2687 2733 
Q 2419 3097 1959 3097 
z
M 1959 3584 
Q 2709 3584 3137 3096 
Q 3566 2609 3566 1747 
Q 3566 888 3137 398 
Q 2709 -91 1959 -91 
Q 1206 -91 779 398 
Q 353 888 353 1747 
Q 353 2609 779 3096 
Q 1206 3584 1959 3584 
z
" transform="scale(0.015625)"/>
       <path id="DejaVuSans-77" d="M 269 3500 
L 844 3500 
L 1563 769 
L 2278 3500 
L 2956 3500 
L 3675 769 
L 4391 3500 
L 4966 3500 
L 4050 0 
L 3372 0 
L 2619 2869 
L 1863 0 
L 1184 0 
L 269 3500 
z
" transform="scale(0.015625)"/>
      </defs>
      <use xlink:href="#DejaVuSans-72"/>
      <use xlink:href="#DejaVuSans-6f" transform="translate(38.863281 0)"/>
      <use xlink:href="#DejaVuSans-77" transform="translate(100.044922 0)"/>
     </g>
    </g>
    <g id="line2d_33">
     <defs>
      <path id="m152d3e19e0" d="M 0 3 
C 0.795609 3 1.55874 2.683901 2.12132 2.12132 
C 2.683901 1.55874 3 0.795609 3 0 
C 3 -0.795609 2.683901 -1.55874 2.12132 -2.12132 
C 1.55874 -2.683901 0.795609 -3 0 -3 
C -0.795609 -3 -1.55874 -2.683901 -2.12132 -2.12132 
C -2.683901 -1.55874 -3 -0.795609 -3 0 
C -3 0.795609 -2.683901 1.55874 -2.12132 2.12132 
C -1.55874 2.683901 -0.795609 3 0 3 
z
" style="stroke: #ffffff; stroke-width: 0.361777"/>
     </defs>
     <g>
      <use xlink:href="#m152d3e19e0" x="348.45125" y="138.001562" style="fill: #333333; stroke: #ffffff; stroke-width: 0.361777"/>
     </g>
    </g>
    <g id="text_24">
     <!-- 1 -->
     <g transform="translate(366.45125 141.501562) scale(0.1 -0.1)">
      <use xlink:href="#DejaVuSans-31"/>
     </g>
    </g>
    <g id="line2d_34">
     <defs>
      <path id="m45b978faf8" d="M -1.5 3 
L 0 1.5 
L 1.5 3 
L 3 1.5 
L 1.5 0 
L 3 -1.5 
L 1.5 -3 
L 0 -1.5 
L -1.5 -3 
L -3 -1.5 
L -1.5 0 
L -3 1.5 
z
" style="stroke: #ffffff; stroke-width: 0.361777; stroke-linejoin: miter"/>
     </defs>
     <g>
      <use xlink:href="#m45b978faf8" x="348.45125" y="152.679687" style="fill: #333333; stroke: #ffffff; stroke-width: 0.361777; stroke-linejoin: miter"/>
     </g>
    </g>
    <g id="text_25">
     <!-- 2 -->
     <g transform="translate(366.45125 156.179687) scale(0.1 -0.1)">
      <use xlink:href="#DejaVuSans-32"/>
     </g>
    </g>
    <g id="line2d_35">
     <defs>
      <path id="me8a87aafe1" d="M -2.12132 -2.12132 
L -2.12132 2.12132 
L 2.12132 2.12132 
L 2.12132 -2.12132 
z
" style="stroke: #ffffff; stroke-width: 0.361777; stroke-linejoin: miter"/>
     </defs>
     <g>
      <use xlink:href="#me8a87aafe1" x="348.45125" y="167.357812" style="fill: #333333; stroke: #ffffff; stroke-width: 0.361777; stroke-linejoin: miter"/>
     </g>
    </g>
    <g id="text_26">
     <!-- 3 -->
     <g transform="translate(366.45125 170.857812) scale(0.1 -0.1)">
      <use xlink:href="#DejaVuSans-33"/>
     </g>
    </g>
   </g>
  </g>
 </g>
 <defs>
  <clipPath id="p1170076448">
   <rect x="43.78125" y="7.2" width="357.12" height="266.112"/>
  </clipPath>
 </defs>
</svg>