<?xml version="1.0" encoding="utf-8" standalone="no"?>
<!DOCTYPE svg PUBLIC "-//W3C//DTD SVG 1.1//EN"
  "http://www.w3.org/Graphics/SVG/1.1/DTD/svg11.dtd">
<svg xmlns:xlink="http://www.w3.org/1999/xlink" width="402.802812pt" height="310.86825pt" viewBox="0 0 402.802812 310.86825" xmlns="http://www.w3.org/2000/svg" version="1.1">
 <metadata>
  <rdf:RDF xmlns:dc="http://purl.org/dc/elements/1.1/" xmlns:cc="http://creativecommons.org/ns#" xmlns:rdf="http://www.w3.org/1999/02/22-rdf-syntax-ns#">
   <cc:Work>
    <dc:type rdf:resource="http://purl.org/dc/dcmitype/StillImage"/>
    <dc:date>2023-04-26T06:06:24.036067</dc:date>
    <dc:format>image/svg+xml</dc:format>
    <dc:creator>
     <cc:Agent>
      <dc:title>Matplotlib v3.7.1, https://matplotlib.org/</dc:title>
     </cc:Agent>
    </dc:creator>
   </cc:Work>
  </rdf:RDF>
 </metadata>
 <defs>
  <style type="text/css">*{stroke-linejoin: round; stroke-linecap: butt}</style>
 </defs>
 <g id="figure_1">
  <g id="patch_1">
   <path d="M 0 310.86825 
L 402.802812 310.86825 
L 402.802812 0 
L 0 0 
z
" style="fill: #ffffff"/>
  </g>
  <g id="axes_1">
   <g id="patch_2">
    <path d="M 38.482813 273.312 
L 395.602813 273.312 
L 395.602813 7.2 
L 38.482813 7.2 
z
" style="fill: #ffffff"/>
   </g>
   <g id="matplotlib.axis_1">
    <g id="xtick_1">
     <g id="line2d_1">
      <defs>
       <path id="m18a1e6ee5d" d="M 0 0 
L 0 3.5 
" style="stroke: #000000; stroke-width: 0.8"/>
      </defs>
      <g>
       <use xlink:href="#m18a1e6ee5d" x="54.71554" y="273.312" style="stroke: #000000; stroke-width: 0.8"/>
      </g>
     </g>
     <g id="text_1">
      <!-- 0.0 -->
      <g transform="translate(46.763977 287.910437) scale(0.1 -0.1)">
       <defs>
        <path id="DejaVuSans-30" d="M 2034 4250 
Q 1547 4250 1301 3770 
Q 1056 3291 1056 2328 
Q 1056 1369 1301 889 
Q 1547 409 2034 409 
Q 2525 409 2770 889 
Q 3016 1369 3016 2328 
Q 3016 3291 2770 3770 
Q 2525 4250 2034 4250 
z
M 2034 4750 
Q 2819 4750 3233 4129 
Q 3647 3509 3647 2328 
Q 3647 1150 3233 529 
Q 2819 -91 2034 -91 
Q 1250 -91 836 529 
Q 422 1150 422 2328 
Q 422 3509 836 4129 
Q 1250 4750 2034 4750 
z
" transform="scale(0.015625)"/>
        <path id="DejaVuSans-2e" d="M 684 794 
L 1344 794 
L 1344 0 
L 684 0 
L 684 794 
z
" transform="scale(0.015625)"/>
       </defs>
       <use xlink:href="#DejaVuSans-30"/>
       <use xlink:href="#DejaVuSans-2e" x="63.623047"/>
       <use xlink:href="#DejaVuSans-30" x="95.410156"/>
      </g>
     </g>
    </g>
    <g id="xtick_2">
     <g id="line2d_2">
      <g>
       <use xlink:href="#m18a1e6ee5d" x="119.646449" y="273.312" style="stroke: #000000; stroke-width: 0.8"/>
      </g>
     </g>
     <g id="text_2">
      <!-- 0.2 -->
      <g transform="translate(111.694886 287.910437) scale(0.1 -0.1)">
       <defs>
        <path id="DejaVuSans-32" d="M 1228 531 
L 3431 531 
L 3431 0 
L 469 0 
L 469 531 
Q 828 903 1448 1529 
Q 2069 2156 2228 2338 
Q 2531 2678 2651 2914 
Q 2772 3150 2772 3378 
Q 2772 3750 2511 3984 
Q 2250 4219 1831 4219 
Q 1534 4219 1204 4116 
Q 875 4013 500 3803 
L 500 4441 
Q 881 4594 1212 4672 
Q 1544 4750 1819 4750 
Q 2544 4750 2975 4387 
Q 3406 4025 3406 3419 
Q 3406 3131 3298 2873 
Q 3191 2616 2906 2266 
Q 2828 2175 2409 1742 
Q 1991 1309 1228 531 
z
" transform="scale(0.015625)"/>
       </defs>
       <use xlink:href="#DejaVuSans-30"/>
       <use xlink:href="#DejaVuSans-2e" x="63.623047"/>
       <use xlink:href="#DejaVuSans-32" x="95.410156"/>
      </g>
     </g>
    </g>
    <g id="xtick_3">
     <g id="line2d_3">
      <g>
       <use xlink:href="#m18a1e6ee5d" x="184.577358" y="273.312" style="stroke: #000000; stroke-width: 0.8"/>
      </g>
     </g>
     <g id="text_3">
      <!-- 0.4 -->
      <g transform="translate(176.625795 287.910437) scale(0.1 -0.1)">
       <defs>
        <path id="DejaVuSans-34" d="M 2419 4116 
L 825 1625 
L 2419 1625 
L 2419 4116 
z
M 2253 4666 
L 3047 4666 
L 3047 1625 
L 3713 1625 
L 3713 1100 
L 3047 1100 
L 3047 0 
L 2419 0 
L 2419 1100 
L 313 1100 
L 313 1709 
L 2253 4666 
z
" transform="scale(0.015625)"/>
       </defs>
       <use xlink:href="#DejaVuSans-30"/>
       <use xlink:href="#DejaVuSans-2e" x="63.623047"/>
       <use xlink:href="#DejaVuSans-34" x="95.410156"/>
      </g>
     </g>
    </g>
    <g id="xtick_4">
     <g id="line2d_4">
      <g>
       <use xlink:href="#m18a1e6ee5d" x="249.508267" y="273.312" style="stroke: #000000; stroke-width: 0.8"/>
      </g>
     </g>
     <g id="text_4">
      <!-- 0.6 -->
      <g transform="translate(241.556705 287.910437) scale(0.1 -0.1)">
       <defs>
        <path id="DejaVuSans-36" d="M 2113 2584 
Q 1688 2584 1439 2293 
Q 1191 2003 1191 1497 
Q 1191 994 1439 701 
Q 1688 409 2113 409 
Q 2538 409 2786 701 
Q 3034 994 3034 1497 
Q 3034 2003 2786 2293 
Q 2538 2584 2113 2584 
z
M 3366 4563 
L 3366 3988 
Q 3128 4100 2886 4159 
Q 2644 4219 2406 4219 
Q 1781 4219 1451 3797 
Q 1122 3375 1075 2522 
Q 1259 2794 1537 2939 
Q 1816 3084 2150 3084 
Q 2853 3084 3261 2657 
Q 3669 2231 3669 1497 
Q 3669 778 3244 343 
Q 2819 -91 2113 -91 
Q 1303 -91 875 529 
Q 447 1150 447 2328 
Q 447 3434 972 4092 
Q 1497 4750 2381 4750 
Q 2619 4750 2861 4703 
Q 3103 4656 3366 4563 
z
" transform="scale(0.015625)"/>
       </defs>
       <use xlink:href="#DejaVuSans-30"/>
       <use xlink:href="#DejaVuSans-2e" x="63.623047"/>
       <use xlink:href="#DejaVuSans-36" x="95.410156"/>
      </g>
     </g>
    </g>
    <g id="xtick_5">
     <g id="line2d_5">
      <g>
       <use xlink:href="#m18a1e6ee5d" x="314.439176" y="273.312" style="stroke: #000000; stroke-width: 0.8"/>
      </g>
     </g>
     <g id="text_5">
      <!-- 0.8 -->
      <g transform="translate(306.487614 287.910437) scale(0.1 -0.1)">
       <defs>
        <path id="DejaVuSans-38" d="M 2034 2216 
Q 1584 2216 1326 1975 
Q 1069 1734 1069 1313 
Q 1069 891 1326 650 
Q 1584 409 2034 409 
Q 2484 409 2743 651 
Q 3003 894 3003 1313 
Q 3003 1734 2745 1975 
Q 2488 2216 2034 2216 
z
M 1403 2484 
Q 997 2584 770 2862 
Q 544 3141 544 3541 
Q 544 4100 942 4425 
Q 1341 4750 2034 4750 
Q 2731 4750 3128 4425 
Q 3525 4100 3525 3541 
Q 3525 3141 3298 2862 
Q 3072 2584 2669 2484 
Q 3125 2378 3379 2068 
Q 3634 1759 3634 1313 
Q 3634 634 3220 271 
Q 2806 -91 2034 -91 
Q 1263 -91 848 271 
Q 434 634 434 1313 
Q 434 1759 690 2068 
Q 947 2378 1403 2484 
z
M 1172 3481 
Q 1172 3119 1398 2916 
Q 1625 2713 2034 2713 
Q 2441 2713 2670 2916 
Q 2900 3119 2900 3481 
Q 2900 3844 2670 4047 
Q 2441 4250 2034 4250 
Q 1625 4250 1398 4047 
Q 1172 3844 1172 3481 
z
" transform="scale(0.015625)"/>
       </defs>
       <use xlink:href="#DejaVuSans-30"/>
       <use xlink:href="#DejaVuSans-2e" x="63.623047"/>
       <use xlink:href="#DejaVuSans-38" x="95.410156"/>
      </g>
     </g>
    </g>
    <g id="xtick_6">
     <g id="line2d_6">
      <g>
       <use xlink:href="#m18a1e6ee5d" x="379.370085" y="273.312" style="stroke: #000000; stroke-width: 0.8"/>
      </g>
     </g>
     <g id="text_6">
      <!-- 1.0 -->
      <g transform="translate(371.418523 287.910437) scale(0.1 -0.1)">
       <defs>
        <path id="DejaVuSans-31" d="M 794 531 
L 1825 531 
L 1825 4091 
L 703 3866 
L 703 4441 
L 1819 4666 
L 2450 4666 
L 2450 531 
L 3481 531 
L 3481 0 
L 794 0 
L 794 531 
z
" transform="scale(0.015625)"/>
       </defs>
       <use xlink:href="#DejaVuSans-31"/>
       <use xlink:href="#DejaVuSans-2e" x="63.623047"/>
       <use xlink:href="#DejaVuSans-30" x="95.410156"/>
      </g>
     </g>
    </g>
    <g id="text_7">
     <!-- Time, s -->
     <g transform="translate(199.026406 301.588562) scale(0.1 -0.1)">
      <defs>
       <path id="DejaVuSans-54" d="M -19 4666 
L 3928 4666 
L 3928 4134 
L 2272 4134 
L 2272 0 
L 1638 0 
L 1638 4134 
L -19 4134 
L -19 4666 
z
" transform="scale(0.015625)"/>
       <path id="DejaVuSans-69" d="M 603 3500 
L 1178 3500 
L 1178 0 
L 603 0 
L 603 3500 
z
M 603 4863 
L 1178 4863 
L 1178 4134 
L 603 4134 
L 603 4863 
z
" transform="scale(0.015625)"/>
       <path id="DejaVuSans-6d" d="M 3328 2828 
Q 3544 3216 3844 3400 
Q 4144 3584 4550 3584 
Q 5097 3584 5394 3201 
Q 5691 2819 5691 2113 
L 5691 0 
L 5113 0 
L 5113 2094 
Q 5113 2597 4934 2840 
Q 4756 3084 4391 3084 
Q 3944 3084 3684 2787 
Q 3425 2491 3425 1978 
L 3425 0 
L 2847 0 
L 2847 2094 
Q 2847 2600 2669 2842 
Q 2491 3084 2119 3084 
Q 1678 3084 1418 2786 
Q 1159 2488 1159 1978 
L 1159 0 
L 581 0 
L 581 3500 
L 1159 3500 
L 1159 2956 
Q 1356 3278 1631 3431 
Q 1906 3584 2284 3584 
Q 2666 3584 2933 3390 
Q 3200 3197 3328 2828 
z
" transform="scale(0.015625)"/>
       <path id="DejaVuSans-65" d="M 3597 1894 
L 3597 1613 
L 953 1613 
Q 991 1019 1311 708 
Q 1631 397 2203 397 
Q 2534 397 2845 478 
Q 3156 559 3463 722 
L 3463 178 
Q 3153 47 2828 -22 
Q 2503 -91 2169 -91 
Q 1331 -91 842 396 
Q 353 884 353 1716 
Q 353 2575 817 3079 
Q 1281 3584 2069 3584 
Q 2775 3584 3186 3129 
Q 3597 2675 3597 1894 
z
M 3022 2063 
Q 3016 2534 2758 2815 
Q 2500 3097 2075 3097 
Q 1594 3097 1305 2825 
Q 1016 2553 972 2059 
L 3022 2063 
z
" transform="scale(0.015625)"/>
       <path id="DejaVuSans-2c" d="M 750 794 
L 1409 794 
L 1409 256 
L 897 -744 
L 494 -744 
L 750 256 
L 750 794 
z
" transform="scale(0.015625)"/>
       <path id="DejaVuSans-20" transform="scale(0.015625)"/>
       <path id="DejaVuSans-73" d="M 2834 3397 
L 2834 2853 
Q 2591 2978 2328 3040 
Q 2066 3103 1784 3103 
Q 1356 3103 1142 2972 
Q 928 2841 928 2578 
Q 928 2378 1081 2264 
Q 1234 2150 1697 2047 
L 1894 2003 
Q 2506 1872 2764 1633 
Q 3022 1394 3022 966 
Q 3022 478 2636 193 
Q 2250 -91 1575 -91 
Q 1294 -91 989 -36 
Q 684 19 347 128 
L 347 722 
Q 666 556 975 473 
Q 1284 391 1588 391 
Q 1994 391 2212 530 
Q 2431 669 2431 922 
Q 2431 1156 2273 1281 
Q 2116 1406 1581 1522 
L 1381 1569 
Q 847 1681 609 1914 
Q 372 2147 372 2553 
Q 372 3047 722 3315 
Q 1072 3584 1716 3584 
Q 2034 3584 2315 3537 
Q 2597 3491 2834 3397 
z
" transform="scale(0.015625)"/>
      </defs>
      <use xlink:href="#DejaVuSans-54"/>
      <use xlink:href="#DejaVuSans-69" x="57.958984"/>
      <use xlink:href="#DejaVuSans-6d" x="85.742188"/>
      <use xlink:href="#DejaVuSans-65" x="183.154297"/>
      <use xlink:href="#DejaVuSans-2c" x="244.677734"/>
      <use xlink:href="#DejaVuSans-20" x="276.464844"/>
      <use xlink:href="#DejaVuSans-73" x="308.251953"/>
     </g>
    </g>
   </g>
   <g id="matplotlib.axis_2">
    <g id="ytick_1">
     <g id="line2d_7">
      <defs>
       <path id="m78eefcdb75" d="M 0 0 
L -3.5 0 
" style="stroke: #000000; stroke-width: 0.8"/>
      </defs>
      <g>
       <use xlink:href="#m78eefcdb75" x="38.482813" y="263.924916" style="stroke: #000000; stroke-width: 0.8"/>
      </g>
     </g>
     <g id="text_8">
      <!-- −1.0 -->
      <g transform="translate(7.2 267.724134) scale(0.1 -0.1)">
       <defs>
        <path id="DejaVuSans-2212" d="M 678 2272 
L 4684 2272 
L 4684 1741 
L 678 1741 
L 678 2272 
z
" transform="scale(0.015625)"/>
       </defs>
       <use xlink:href="#DejaVuSans-2212"/>
       <use xlink:href="#DejaVuSans-31" x="83.789062"/>
       <use xlink:href="#DejaVuSans-2e" x="147.412109"/>
       <use xlink:href="#DejaVuSans-30" x="179.199219"/>
      </g>
     </g>
    </g>
    <g id="ytick_2">
     <g id="line2d_8">
      <g>
       <use xlink:href="#m78eefcdb75" x="38.482813" y="214.439481" style="stroke: #000000; stroke-width: 0.8"/>
      </g>
     </g>
     <g id="text_9">
      <!-- −0.5 -->
      <g transform="translate(7.2 218.238699) scale(0.1 -0.1)">
       <defs>
        <path id="DejaVuSans-35" d="M 691 4666 
L 3169 4666 
L 3169 4134 
L 1269 4134 
L 1269 2991 
Q 1406 3038 1543 3061 
Q 1681 3084 1819 3084 
Q 2600 3084 3056 2656 
Q 3513 2228 3513 1497 
Q 3513 744 3044 326 
Q 2575 -91 1722 -91 
Q 1428 -91 1123 -41 
Q 819 9 494 109 
L 494 744 
Q 775 591 1075 516 
Q 1375 441 1709 441 
Q 2250 441 2565 725 
Q 2881 1009 2881 1497 
Q 2881 1984 2565 2268 
Q 2250 2553 1709 2553 
Q 1456 2553 1204 2497 
Q 953 2441 691 2322 
L 691 4666 
z
" transform="scale(0.015625)"/>
       </defs>
       <use xlink:href="#DejaVuSans-2212"/>
       <use xlink:href="#DejaVuSans-30" x="83.789062"/>
       <use xlink:href="#DejaVuSans-2e" x="147.412109"/>
       <use xlink:href="#DejaVuSans-35" x="179.199219"/>
      </g>
     </g>
    </g>
    <g id="ytick_3">
     <g id="line2d_9">
      <g>
       <use xlink:href="#m78eefcdb75" x="38.482813" y="164.954046" style="stroke: #000000; stroke-width: 0.8"/>
      </g>
     </g>
     <g id="text_10">
      <!-- 0.0 -->
      <g transform="translate(15.579688 168.753265) scale(0.1 -0.1)">
       <use xlink:href="#DejaVuSans-30"/>
       <use xlink:href="#DejaVuSans-2e" x="63.623047"/>
       <use xlink:href="#DejaVuSans-30" x="95.410156"/>
      </g>
     </g>
    </g>
    <g id="ytick_4">
     <g id="line2d_10">
      <g>
       <use xlink:href="#m78eefcdb75" x="38.482813" y="115.468611" style="stroke: #000000; stroke-width: 0.8"/>
      </g>
     </g>
     <g id="text_11">
      <!-- 0.5 -->
      <g transform="translate(15.579688 119.26783) scale(0.1 -0.1)">
       <use xlink:href="#DejaVuSans-30"/>
       <use xlink:href="#DejaVuSans-2e" x="63.623047"/>
       <use xlink:href="#DejaVuSans-35" x="95.410156"/>
      </g>
     </g>
    </g>
    <g id="ytick_5">
     <g id="line2d_11">
      <g>
       <use xlink:href="#m78eefcdb75" x="38.482813" y="65.983176" style="stroke: #000000; stroke-width: 0.8"/>
      </g>
     </g>
     <g id="text_12">
      <!-- 1.0 -->
      <g transform="translate(15.579688 69.782395) scale(0.1 -0.1)">
       <use xlink:href="#DejaVuSans-31"/>
       <use xlink:href="#DejaVuSans-2e" x="63.623047"/>
       <use xlink:href="#DejaVuSans-30" x="95.410156"/>
      </g>
     </g>
    </g>
    <g id="ytick_6">
     <g id="line2d_12">
      <g>
       <use xlink:href="#m78eefcdb75" x="38.482813" y="16.497741" style="stroke: #000000; stroke-width: 0.8"/>
      </g>
     </g>
     <g id="text_13">
      <!-- 1.5 -->
      <g transform="translate(15.579688 20.29696) scale(0.1 -0.1)">
       <use xlink:href="#DejaVuSans-31"/>
       <use xlink:href="#DejaVuSans-2e" x="63.623047"/>
       <use xlink:href="#DejaVuSans-35" x="95.410156"/>
      </g>
     </g>
    </g>
   </g>
   <g id="line2d_13">
    <path d="M 54.71554 160.285632 
L 55.040519 89.650736 
L 55.365499 92.587005 
L 55.690478 73.02137 
L 56.015458 32.66328 
L 56.340437 56.502427 
L 56.665417 62.656491 
L 56.990396 97.931992 
L 57.315376 113.977795 
L 57.965335 226.267983 
L 58.290315 251.5655 
L 58.940274 232.33782 
L 59.590233 172.225986 
L 59.915212 165.159585 
L 60.565171 85.534601 
L 60.890151 28.319119 
L 61.21513 62.99833 
L 61.54011 70.53946 
L 61.865089 71.724199 
L 62.190069 82.801029 
L 63.489987 224.01796 
L 63.814966 227.526347 
L 64.139946 252.444369 
L 64.789905 189.820451 
L 65.114885 133.640259 
L 65.439864 118.314962 
L 65.764844 94.443143 
L 66.089823 28.152328 
L 66.739782 55.793275 
L 67.389741 106.381069 
L 67.714721 152.055765 
L 68.0397 162.428751 
L 68.36468 221.712776 
L 68.689659 241.392691 
L 69.014639 223.105536 
L 69.339618 257.846399 
L 69.989577 209.304721 
L 70.314557 166.639896 
L 70.639536 98.494753 
L 70.964516 90.186316 
L 71.289496 65.212659 
L 71.614475 22.161952 
L 71.939455 65.80284 
L 72.589414 93.303688 
L 72.914393 120.05063 
L 73.239373 168.850638 
L 73.889332 232.758584 
L 74.214311 214.438571 
L 74.539291 253.528069 
L 74.86427 199.537019 
L 75.18925 207.160358 
L 75.514229 181.812248 
L 75.839209 99.098042 
L 76.164188 61.770504 
L 76.489168 66.055282 
L 76.814147 59.537355 
L 77.139127 61.012059 
L 77.464107 54.220597 
L 77.789086 68.28403 
L 78.439045 182.910067 
L 78.764025 194.26215 
L 79.089004 229.744246 
L 79.738963 241.428756 
L 80.713902 137.301983 
L 81.038881 112.450294 
L 81.363861 70.637216 
L 81.68884 67.915434 
L 82.01382 30.933928 
L 82.338799 65.585262 
L 82.663779 63.912077 
L 82.988758 82.642794 
L 83.638717 178.819958 
L 83.963697 168.959792 
L 84.288677 239.374036 
L 84.613656 217.700139 
L 84.938636 232.875705 
L 85.588595 179.778063 
L 85.913574 164.390072 
L 86.238554 142.387024 
L 86.563533 104.420446 
L 86.888513 41.650693 
L 87.213492 62.862972 
L 87.538472 19.76682 
L 87.863451 31.261668 
L 88.51341 116.94602 
L 88.83839 136.991734 
L 89.163369 164.468415 
L 89.813328 250.294126 
L 90.138308 249.812978 
L 90.463288 244.892777 
L 90.788267 194.683387 
L 91.113247 164.528257 
L 91.438226 151.594753 
L 91.763206 83.384845 
L 92.088185 47.333835 
L 92.413165 37.135181 
L 92.738144 52.703643 
L 93.063124 51.910261 
L 93.388103 69.842728 
L 94.038062 155.89746 
L 94.363042 180.123735 
L 94.688021 222.999892 
L 95.013001 226.541376 
L 95.33798 249.025879 
L 95.66296 243.445994 
L 96.312919 186.573082 
L 96.637898 135.53713 
L 96.962878 111.368676 
L 97.287858 51.471952 
L 97.612837 51.565061 
L 97.937817 24.474034 
L 98.262796 62.212159 
L 98.587776 60.897583 
L 99.237735 165.067041 
L 99.562714 172.083808 
L 99.887694 216.397751 
L 100.212673 210.420845 
L 100.537653 219.861445 
L 100.862632 254.24877 
L 101.187612 190.461944 
L 101.512591 199.276474 
L 101.837571 121.093547 
L 102.16255 109.910102 
L 102.48753 74.998394 
L 103.137489 24.875001 
L 103.462469 44.306736 
L 103.787448 45.835721 
L 104.112428 104.05566 
L 104.437407 113.057379 
L 104.762387 152.678165 
L 105.087366 221.318726 
L 105.412346 222.873814 
L 105.737325 235.904353 
L 106.062305 239.702778 
L 106.387284 235.558101 
L 106.712264 163.314356 
L 107.037243 148.888823 
L 107.362223 113.884776 
L 107.687202 91.28699 
L 108.337161 21.243281 
L 108.662141 70.055068 
L 108.98712 43.983552 
L 109.3121 120.154658 
L 109.962059 192.984688 
L 110.287039 191.802545 
L 110.612018 235.399751 
L 110.936998 229.36363 
L 111.261977 252.33963 
L 111.586957 197.071865 
L 112.236916 127.878161 
L 112.561895 133.660952 
L 112.886875 94.650375 
L 113.211854 30.460702 
L 113.536834 60.028086 
L 113.861813 52.489391 
L 114.186793 58.832885 
L 114.511772 83.099179 
L 115.161731 175.660278 
L 115.486711 221.614774 
L 115.81169 203.960634 
L 116.46165 259.700034 
L 116.786629 211.260381 
L 117.436588 154.115179 
L 117.761568 109.102536 
L 118.086547 84.515914 
L 118.411527 34.60887 
L 118.736506 39.156573 
L 119.061486 53.345632 
L 119.386465 53.59886 
L 119.711445 98.115357 
L 120.361404 147.531606 
L 120.686383 197.510603 
L 121.011363 225.300907 
L 121.336342 216.911905 
L 121.661322 252.823319 
L 122.311281 195.528385 
L 122.63626 173.029765 
L 122.96124 137.867242 
L 123.28622 78.659052 
L 123.611199 65.478335 
L 123.936179 24.832995 
L 124.261158 66.728571 
L 124.586138 75.431542 
L 124.911117 74.59172 
L 125.236097 128.371693 
L 125.561076 158.795428 
L 125.886056 200.953536 
L 126.211035 219.80134 
L 126.536015 258.290157 
L 126.860994 217.386932 
L 127.185974 204.184166 
L 127.510953 218.313759 
L 127.835933 138.305069 
L 128.160912 128.463288 
L 128.485892 108.238289 
L 129.135851 19.528423 
L 129.78581 45.779923 
L 130.435769 94.509791 
L 131.410708 223.928235 
L 132.060667 251.81774 
L 132.385646 213.684299 
L 132.710626 204.591534 
L 133.035605 147.655817 
L 133.360585 149.368323 
L 133.685564 80.884574 
L 134.010544 74.930363 
L 134.335523 28.547397 
L 134.660503 49.14858 
L 134.985482 33.990146 
L 135.635441 87.697432 
L 135.960421 167.067902 
L 136.285401 194.964677 
L 136.61038 212.686162 
L 136.93536 211.679258 
L 137.260339 217.396275 
L 137.585319 239.730963 
L 137.910298 213.652662 
L 138.235278 157.32742 
L 138.560257 124.194404 
L 138.885237 108.503087 
L 139.210216 85.767223 
L 139.535196 29.837621 
L 139.860175 35.793337 
L 140.185155 68.677355 
L 140.835114 90.353386 
L 141.160093 157.006881 
L 141.485073 174.652649 
L 141.810052 201.12857 
L 142.135032 256.220145 
L 142.460012 235.685562 
L 142.784991 245.397308 
L 143.109971 194.898543 
L 143.43495 181.47108 
L 144.084909 95.793089 
L 144.409889 91.026849 
L 144.734868 25.422793 
L 145.059848 51.013495 
L 145.384827 56.505865 
L 145.709807 67.243976 
L 146.034786 82.874328 
L 147.334704 251.078043 
L 147.659684 228.975678 
L 147.984663 242.259511 
L 148.309643 186.225974 
L 148.634622 191.137112 
L 148.959602 148.9343 
L 149.284582 79.056676 
L 149.609561 81.083974 
L 149.934541 26.255455 
L 150.25952 28.189381 
L 150.5845 51.516323 
L 150.909479 52.305284 
L 151.234459 91.817838 
L 151.559438 149.39179 
L 151.884418 153.92161 
L 152.209397 201.190796 
L 152.534377 222.545709 
L 152.859356 232.604971 
L 153.184336 234.819433 
L 153.509315 223.862563 
L 153.834295 179.70461 
L 154.159274 164.581136 
L 154.484254 100.749733 
L 154.809233 90.287445 
L 155.134213 31.064672 
L 155.459193 39.045031 
L 155.784172 28.265633 
L 156.109152 79.282985 
L 156.434131 73.365334 
L 157.08409 168.353148 
L 157.734049 217.606306 
L 158.059029 219.994645 
L 158.384008 251.147004 
L 158.708988 194.503968 
L 159.033967 178.319077 
L 159.358947 172.870041 
L 159.683926 134.920085 
L 160.008906 71.316534 
L 160.333885 65.976512 
L 160.658865 65.944905 
L 160.983844 36.02781 
L 161.308824 38.778544 
L 161.633803 68.854372 
L 161.958783 117.490064 
L 162.283763 188.00873 
L 162.608742 215.725299 
L 163.258701 224.734291 
L 163.583681 223.40908 
L 165.208578 74.975897 
L 165.533558 80.087639 
L 165.858537 40.080001 
L 166.183517 36.148383 
L 166.508496 70.434932 
L 167.158455 112.211659 
L 167.808414 191.454643 
L 168.133394 204.971382 
L 168.458374 237.943983 
L 168.783353 219.862249 
L 169.108333 217.644391 
L 169.758292 145.931301 
L 170.083271 103.005554 
L 170.73323 55.751438 
L 171.05821 56.271478 
L 171.383189 59.324539 
L 171.708169 49.82738 
L 172.033148 85.93408 
L 172.358128 103.595618 
L 172.683107 134.810383 
L 173.333066 239.864087 
L 173.658046 248.688078 
L 173.983025 243.246101 
L 174.308005 247.904516 
L 174.632984 220.256616 
L 174.957964 172.21396 
L 175.282944 105.458928 
L 175.607923 96.265979 
L 175.932903 38.139331 
L 176.257882 30.357158 
L 176.582862 26.263292 
L 176.907841 31.513688 
L 177.5578 119.811891 
L 177.88278 133.144244 
L 178.207759 187.616768 
L 178.532739 195.501463 
L 178.857718 255.312852 
L 179.182698 218.328716 
L 179.507677 212.240209 
L 179.832657 196.657364 
L 180.157636 167.811161 
L 180.482616 112.816026 
L 180.807595 105.265886 
L 181.132575 65.165593 
L 181.457555 66.363022 
L 181.782534 24.746667 
L 182.107514 77.014327 
L 182.432493 98.023453 
L 182.757473 99.016775 
L 183.407432 169.29487 
L 184.38237 235.432404 
L 184.70735 227.278722 
L 185.357309 191.112303 
L 186.332247 78.315746 
L 186.982206 19.552955 
L 187.307186 31.901789 
L 187.632165 53.600598 
L 188.282125 151.282812 
L 188.607104 195.747562 
L 188.932084 215.839675 
L 189.257063 225.262107 
L 189.582043 215.03229 
L 189.907022 236.432673 
L 190.556981 198.672883 
L 190.881961 149.76338 
L 191.20694 81.224343 
L 191.53192 63.275505 
L 191.856899 67.187098 
L 192.181879 63.108592 
L 192.506858 56.850856 
L 192.831838 65.593044 
L 193.156817 97.107499 
L 193.481797 141.315813 
L 194.131756 191.333978 
L 194.456736 223.277444 
L 194.781715 217.79227 
L 195.106695 248.545586 
L 195.756654 161.684682 
L 196.081633 164.569168 
L 196.406613 79.965367 
L 196.731592 79.343923 
L 197.056572 36.646417 
L 197.381551 31.437685 
L 197.706531 28.829368 
L 198.03151 64.031289 
L 198.35649 113.082066 
L 199.006449 173.800077 
L 199.331428 189.304205 
L 199.656408 252.70808 
L 199.981387 253.094993 
L 200.306367 229.178975 
L 200.631346 220.711572 
L 201.281306 134.751733 
L 201.931265 69.913129 
L 202.256244 67.715516 
L 202.581224 28.436145 
L 203.556162 106.097505 
L 203.881142 122.286736 
L 204.206121 193.969258 
L 204.531101 212.813912 
L 204.85608 247.637466 
L 205.18106 241.311049 
L 205.506039 255.230981 
L 205.831019 200.989868 
L 206.155998 199.080911 
L 206.480978 170.315045 
L 207.130937 63.831532 
L 207.455917 55.438107 
L 207.780896 28.717714 
L 208.105876 31.164268 
L 208.755835 81.809561 
L 209.405794 187.354622 
L 209.730773 199.307641 
L 210.055753 245.739074 
L 210.380732 257.242665 
L 211.030691 229.566838 
L 211.355671 214.652324 
L 211.68065 139.85193 
L 212.655589 54.405757 
L 212.980568 64.004389 
L 213.305548 64.118398 
L 213.630527 49.260531 
L 213.955507 91.334256 
L 214.605466 141.568977 
L 215.580405 251.638927 
L 215.905384 251.696093 
L 216.555343 212.61189 
L 216.880323 156.372552 
L 217.205302 138.516219 
L 217.855261 70.613232 
L 218.180241 63.829365 
L 218.50522 43.803787 
L 218.8302 43.59207 
L 219.480159 115.066516 
L 220.130118 176.979533 
L 220.455098 228.369802 
L 220.780077 254.5182 
L 221.105057 247.294482 
L 221.430036 237.032728 
L 221.755016 181.473063 
L 222.079995 178.261322 
L 222.404975 148.363872 
L 223.054934 40.740128 
L 223.379913 62.111323 
L 223.704893 40.474695 
L 224.029872 36.548301 
L 225.004811 164.867578 
L 225.65477 204.375266 
L 225.979749 257.585651 
L 226.304729 237.888439 
L 226.629708 249.227863 
L 226.954688 191.610456 
L 227.604647 123.098262 
L 227.929627 103.672007 
L 228.254606 39.214302 
L 228.579586 36.214872 
L 228.904565 29.242298 
L 229.554524 59.463752 
L 229.879504 123.389155 
L 230.204483 139.064856 
L 230.529463 171.425451 
L 230.854442 190.922664 
L 231.179422 229.664028 
L 231.504401 243.887245 
L 232.15436 187.890968 
L 232.47934 187.152317 
L 233.129299 93.222696 
L 233.454279 50.182873 
L 233.779258 64.527002 
L 234.104238 59.463869 
L 234.429217 29.909991 
L 234.754197 87.765235 
L 235.079176 103.805824 
L 235.404156 143.219873 
L 235.729135 164.75395 
L 236.054115 206.974189 
L 236.379094 219.136285 
L 236.704074 254.061824 
L 237.029053 252.342691 
L 237.354033 204.918715 
L 238.003992 157.126201 
L 238.328971 102.39992 
L 238.97893 67.058702 
L 239.30391 58.883529 
L 239.628889 26.785985 
L 240.278849 79.278924 
L 240.603828 148.532636 
L 240.928808 157.257262 
L 241.578767 231.655696 
L 241.903746 234.95485 
L 242.228726 249.291992 
L 242.553705 220.524731 
L 242.878685 167.36732 
L 243.853623 73.732673 
L 244.178603 61.814575 
L 244.503582 55.279816 
L 244.828562 30.1849 
L 245.153541 52.3737 
L 245.478521 109.859421 
L 245.8035 126.109294 
L 246.12848 191.985397 
L 246.778439 250.810597 
L 247.103419 244.046972 
L 247.428398 217.238113 
L 247.753378 211.564259 
L 248.078357 164.401993 
L 248.403337 168.70139 
L 248.728316 86.710756 
L 249.053296 72.03173 
L 249.378275 45.808382 
L 249.703255 64.500292 
L 250.353214 60.427933 
L 251.653132 214.461103 
L 251.978111 229.805286 
L 252.303091 239.185384 
L 252.62807 231.40843 
L 252.95305 201.89914 
L 253.27803 202.085093 
L 253.603009 169.061107 
L 253.927989 97.549811 
L 254.252968 101.260826 
L 254.577948 45.898767 
L 254.902927 44.421111 
L 255.227907 52.933156 
L 255.552886 42.020619 
L 257.177784 237.575166 
L 257.502763 215.214274 
L 257.827743 239.254769 
L 258.152722 221.99668 
L 258.477702 172.380476 
L 258.802681 155.656524 
L 259.127661 125.899183 
L 259.452641 62.422045 
L 259.77762 43.186174 
L 260.1026 37.776806 
L 260.427579 23.433631 
L 260.752559 75.814095 
L 261.077538 98.605942 
L 261.727497 178.091356 
L 262.052477 190.081833 
L 262.377456 215.158339 
L 262.702436 221.82986 
L 263.027415 225.639535 
L 263.352395 204.798928 
L 263.677374 212.896715 
L 264.327333 138.902415 
L 264.652313 83.708016 
L 264.977292 71.942409 
L 265.302272 34.586475 
L 265.627251 21.687011 
L 266.277211 71.406498 
L 266.92717 164.182004 
L 267.252149 178.723086 
L 267.577129 217.374718 
L 267.902108 241.343623 
L 268.227088 253.694663 
L 268.552067 239.322765 
L 268.877047 217.045364 
L 269.202026 161.223946 
L 269.527006 132.970679 
L 270.176965 39.219649 
L 270.501944 51.783457 
L 270.826924 58.21409 
L 271.151903 75.374951 
L 271.476883 73.877775 
L 271.801862 107.794184 
L 272.451822 199.411615 
L 273.101781 255.845573 
L 273.42676 259.026665 
L 273.75174 232.751695 
L 274.076719 217.128779 
L 274.726678 134.634505 
L 275.376637 86.252198 
L 275.701617 32.700862 
L 276.026596 30.42247 
L 277.326514 133.675906 
L 277.976473 213.025863 
L 278.301453 232.590826 
L 278.626432 227.246384 
L 278.951412 208.93669 
L 279.276392 198.644443 
L 279.601371 155.244282 
L 279.926351 139.557455 
L 280.25133 116.675832 
L 280.901289 40.303841 
L 281.226269 51.816128 
L 281.876228 89.79956 
L 282.201207 96.519278 
L 282.851166 193.176343 
L 283.176146 194.37764 
L 283.501125 228.66183 
L 283.826105 216.760028 
L 284.151084 226.008779 
L 284.476064 208.043592 
L 285.126023 130.278147 
L 285.775982 64.878174 
L 286.100962 67.742085 
L 286.425941 21.935789 
L 286.750921 68.771281 
L 287.40088 105.100333 
L 287.725859 162.236097 
L 288.375818 220.554038 
L 288.700798 225.519755 
L 289.025777 216.531524 
L 289.350757 222.91184 
L 290.650675 87.891549 
L 291.300634 60.710893 
L 291.625613 63.603401 
L 291.950593 63.895911 
L 292.275573 74.916405 
L 293.575491 228.950386 
L 293.90047 208.848966 
L 294.22545 252.804318 
L 294.875409 213.119098 
L 295.200388 166.373793 
L 295.525368 141.947613 
L 296.500306 32.27854 
L 297.150265 60.893149 
L 297.475245 86.251222 
L 297.800224 100.242473 
L 298.450184 186.062826 
L 299.750102 244.027382 
L 300.075081 202.302134 
L 300.400061 199.154513 
L 300.72504 143.637029 
L 301.05002 122.505513 
L 301.374999 75.132876 
L 301.699979 74.6895 
L 302.024958 44.639685 
L 302.349938 65.408367 
L 302.674917 55.237903 
L 302.999897 103.230827 
L 303.324876 105.042493 
L 303.649856 170.604099 
L 304.299815 247.009989 
L 304.624794 248.779822 
L 304.949774 212.676253 
L 305.274754 223.097085 
L 305.599733 188.245849 
L 305.924713 168.293342 
L 306.249692 115.040754 
L 306.899651 50.019716 
L 307.224631 37.634974 
L 307.54961 64.483823 
L 307.87459 57.231367 
L 308.199569 107.567827 
L 308.524549 134.782507 
L 308.849528 151.896445 
L 309.174508 199.067654 
L 309.499487 220.985583 
L 309.824467 215.726102 
L 310.149446 239.888307 
L 310.474426 226.445203 
L 310.799405 207.837939 
L 311.124385 138.87092 
L 311.449365 113.308862 
L 312.099324 38.454904 
L 312.424303 21.951748 
L 312.749283 58.80793 
L 313.074262 61.42984 
L 313.399242 69.023919 
L 313.724221 111.020231 
L 314.049201 177.201674 
L 314.37418 172.421095 
L 314.69916 228.713213 
L 315.024139 215.198426 
L 315.349119 261.216 
L 316.974016 109.287019 
L 317.298996 45.706921 
L 317.623975 32.16875 
L 317.948955 24.543362 
L 318.598914 62.399496 
L 318.923894 94.272998 
L 319.248873 138.486085 
L 319.573853 209.248518 
L 319.898832 196.881947 
L 320.223812 250.684956 
L 320.548791 218.397587 
L 320.873771 221.204061 
L 321.19875 198.109677 
L 321.52373 155.258811 
L 321.848709 147.505973 
L 322.173689 101.219309 
L 322.498668 71.398101 
L 322.823648 67.10639 
L 323.148627 64.31662 
L 323.473607 41.949781 
L 324.123566 106.516793 
L 324.448546 135.066788 
L 324.773525 182.310478 
L 325.423484 209.934692 
L 325.748464 214.466263 
L 326.073443 225.970525 
L 326.398423 189.894752 
L 326.723402 190.030826 
L 327.373361 92.113411 
L 327.698341 85.744829 
L 328.02332 50.631163 
L 328.3483 43.147861 
L 328.673279 38.711138 
L 328.998259 87.208726 
L 329.648218 139.06682 
L 330.298177 201.068333 
L 330.623156 222.499456 
L 330.948136 258.270467 
L 331.598095 188.036439 
L 332.573034 100.310543 
L 332.898013 86.048673 
L 333.222993 63.434164 
L 333.547972 56.432094 
L 333.872952 39.48202 
L 334.197931 85.545734 
L 334.522911 82.017738 
L 334.84789 156.577633 
L 335.17287 193.918662 
L 335.497849 194.183195 
L 335.822829 231.523826 
L 336.147808 248.210831 
L 336.472788 232.696861 
L 336.797767 199.005616 
L 337.122747 187.580561 
L 338.747645 27.725916 
L 339.397604 86.770043 
L 339.722583 98.059977 
L 340.047563 151.969602 
L 340.697522 208.787207 
L 341.022501 225.387941 
L 341.347481 218.685967 
L 341.67246 218.533643 
L 341.99744 230.156982 
L 342.972378 109.841667 
L 343.297358 80.787892 
L 343.622337 39.75762 
L 344.272297 66.477321 
L 344.597276 58.493939 
L 344.922256 116.689151 
L 345.247235 109.394895 
L 345.897194 219.835881 
L 346.222174 210.96115 
L 346.547153 236.481658 
L 346.872133 243.394381 
L 347.197112 206.215568 
L 347.522092 211.943093 
L 347.847071 150.524405 
L 348.172051 118.155194 
L 348.82201 38.416097 
L 349.146989 32.270549 
L 349.471969 48.618115 
L 349.796948 48.093473 
L 350.121928 72.450259 
L 350.446908 138.919508 
L 350.771887 142.580143 
L 351.421846 204.038214 
L 351.746826 232.084599 
L 352.071805 244.313118 
L 352.396785 199.18432 
L 352.721764 211.929158 
L 353.696703 70.943444 
L 354.021682 70.388825 
L 354.346662 64.8562 
L 354.671641 39.576239 
L 354.996621 66.003055 
L 355.3216 80.853311 
L 355.64658 105.197577 
L 356.296539 210.184714 
L 356.621518 226.510802 
L 356.946498 229.24594 
L 357.271478 234.9276 
L 357.596457 233.667376 
L 357.921437 214.421556 
L 358.571396 106.123402 
L 358.896375 81.718612 
L 359.221355 77.408834 
L 359.546334 19.296 
L 359.871314 47.914613 
L 360.196293 59.221265 
L 360.521273 102.642425 
L 360.846252 119.985054 
L 361.171232 149.141392 
L 361.821191 223.7463 
L 362.14617 238.285846 
L 362.47115 222.486646 
L 362.796129 201.266862 
L 363.121109 199.35825 
L 363.446089 189.479045 
L 363.771068 107.135524 
L 364.096048 81.315298 
L 364.421027 37.439333 
L 364.746007 50.061818 
L 365.070986 21.460191 
L 365.395966 41.911771 
L 365.720945 100.768486 
L 366.045925 120.275812 
L 366.695884 194.13424 
L 367.345843 223.822418 
L 367.670822 243.773424 
L 368.320781 181.503093 
L 368.645761 182.455526 
L 369.29572 104.413549 
L 369.620699 41.902236 
L 370.270659 27.037977 
L 370.595638 49.023112 
L 370.920618 56.263991 
L 371.245597 133.358356 
L 371.570577 156.073575 
L 371.895556 198.338495 
L 372.220536 208.822709 
L 372.545515 255.647783 
L 372.870495 245.774527 
L 373.845433 176.294482 
L 374.495392 93.967547 
L 375.145351 61.5155 
L 375.470331 38.792055 
L 375.79531 68.597717 
L 376.12029 50.57525 
L 376.44527 82.638321 
L 376.770249 146.476893 
L 377.095229 159.351265 
L 377.420208 217.450599 
L 377.745188 252.572611 
L 378.070167 227.48015 
L 378.395147 228.362941 
L 378.720126 217.590038 
L 379.370085 125.784819 
L 379.370085 125.784819 
" clip-path="url(#p608d5bbacb)" style="fill: none; stroke: #1f77b4; stroke-width: 1.5; stroke-linecap: square"/>
   </g>
   <g id="patch_3">
    <path d="M 38.482813 273.312 
L 38.482813 7.2 
" style="fill: none; stroke: #000000; stroke-width: 0.8; stroke-linejoin: miter; stroke-linecap: square"/>
   </g>
   <g id="patch_4">
    <path d="M 395.602813 273.312 
L 395.602813 7.2 
" style="fill: none; stroke: #000000; stroke-width: 0.8; stroke-linejoin: miter; stroke-linecap: square"/>
   </g>
   <g id="patch_5">
    <path d="M 38.482813 273.312 
L 395.602813 273.312 
" style="fill: none; stroke: #000000; stroke-width: 0.8; stroke-linejoin: miter; stroke-linecap: square"/>
   </g>
   <g id="patch_6">
    <path d="M 38.482813 7.2 
L 395.602813 7.2 
" style="fill: none; stroke: #000000; stroke-width: 0.8; stroke-linejoin: miter; stroke-linecap: square"/>
   </g>
  </g>
 </g>
 <defs>
  <clipPath id="p608d5bbacb">
   <rect x="38.482813" y="7.2" width="357.12" height="266.112"/>
  </clipPath>
 </defs>
</svg>