<?xml version="1.0" encoding="utf-8" standalone="no"?>
<!DOCTYPE svg PUBLIC "-//W3C//DTD SVG 1.1//EN"
  "http://www.w3.org/Graphics/SVG/1.1/DTD/svg11.dtd">
<svg xmlns:xlink="http://www.w3.org/1999/xlink" width="729.277116pt" height="393.03625pt" viewBox="0 0 729.277116 393.03625" xmlns="http://www.w3.org/2000/svg" version="1.1">
 <metadata>
  <rdf:RDF xmlns:dc="http://purl.org/dc/elements/1.1/" xmlns:cc="http://creativecommons.org/ns#" xmlns:rdf="http://www.w3.org/1999/02/22-rdf-syntax-ns#">
   <cc:Work>
    <dc:type rdf:resource="http://purl.org/dc/dcmitype/StillImage"/>
    <dc:date>2025-07-01T12:14:39.543134</dc:date>
    <dc:format>image/svg+xml</dc:format>
    <dc:creator>
     <cc:Agent>
      <dc:title>Matplotlib v3.10.3, https://matplotlib.org/</dc:title>
     </cc:Agent>
    </dc:creator>
   </cc:Work>
  </rdf:RDF>
 </metadata>
 <defs>
  <style type="text/css">*{stroke-linejoin: round; stroke-linecap: butt}</style>
 </defs>
 <g id="figure_1">
  <g id="patch_1">
   <path d="M 0 393.03625 
L 729.277116 393.03625 
L 729.277116 0 
L 0 0 
z
" style="fill: #ffffff"/>
  </g>
  <g id="axes_1">
   <g id="patch_2">
    <path d="M 44.845313 354.958125 
L 349.208949 354.958125 
L 349.208949 22.318125 
L 44.845313 22.318125 
z
" style="fill: #ffffff"/>
   </g>
   <g id="matplotlib.axis_1">
    <g id="xtick_1">
     <g id="line2d_1">
      <defs>
       <path id="m8bfdcd4ca5" d="M 0 0 
L 0 3.5 
" style="stroke: #000000; stroke-width: 0.8"/>
      </defs>
      <g>
       <use xlink:href="#m8bfdcd4ca5" x="347.297002" y="354.958125" style="stroke: #000000; stroke-width: 0.8"/>
      </g>
     </g>
     <g id="text_1">
      <!-- 500 -->
      <g transform="translate(337.753252 369.556562) scale(0.1 -0.1)">
       <defs>
        <path id="DejaVuSans-35" d="M 691 4666 
L 3169 4666 
L 3169 4134 
L 1269 4134 
L 1269 2991 
Q 1406 3038 1543 3061 
Q 1681 3084 1819 3084 
Q 2600 3084 3056 2656 
Q 3513 2228 3513 1497 
Q 3513 744 3044 326 
Q 2575 -91 1722 -91 
Q 1428 -91 1123 -41 
Q 819 9 494 109 
L 494 744 
Q 775 591 1075 516 
Q 1375 441 1709 441 
Q 2250 441 2565 725 
Q 2881 1009 2881 1497 
Q 2881 1984 2565 2268 
Q 2250 2553 1709 2553 
Q 1456 2553 1204 2497 
Q 953 2441 691 2322 
L 691 4666 
z
" transform="scale(0.015625)"/>
        <path id="DejaVuSans-30" d="M 2034 4250 
Q 1547 4250 1301 3770 
Q 1056 3291 1056 2328 
Q 1056 1369 1301 889 
Q 1547 409 2034 409 
Q 2525 409 2770 889 
Q 3016 1369 3016 2328 
Q 3016 3291 2770 3770 
Q 2525 4250 2034 4250 
z
M 2034 4750 
Q 2819 4750 3233 4129 
Q 3647 3509 3647 2328 
Q 3647 1150 3233 529 
Q 2819 -91 2034 -91 
Q 1250 -91 836 529 
Q 422 1150 422 2328 
Q 422 3509 836 4129 
Q 1250 4750 2034 4750 
z
" transform="scale(0.015625)"/>
       </defs>
       <use xlink:href="#DejaVuSans-35"/>
       <use xlink:href="#DejaVuSans-30" transform="translate(63.623047 0)"/>
       <use xlink:href="#DejaVuSans-30" transform="translate(127.246094 0)"/>
      </g>
     </g>
    </g>
    <g id="xtick_2">
     <g id="line2d_2">
      <g>
       <use xlink:href="#m8bfdcd4ca5" x="306.067442" y="354.958125" style="stroke: #000000; stroke-width: 0.8"/>
      </g>
     </g>
     <g id="text_2">
      <!-- 1000 -->
      <g transform="translate(293.342442 369.556562) scale(0.1 -0.1)">
       <defs>
        <path id="DejaVuSans-31" d="M 794 531 
L 1825 531 
L 1825 4091 
L 703 3866 
L 703 4441 
L 1819 4666 
L 2450 4666 
L 2450 531 
L 3481 531 
L 3481 0 
L 794 0 
L 794 531 
z
" transform="scale(0.015625)"/>
       </defs>
       <use xlink:href="#DejaVuSans-31"/>
       <use xlink:href="#DejaVuSans-30" transform="translate(63.623047 0)"/>
       <use xlink:href="#DejaVuSans-30" transform="translate(127.246094 0)"/>
       <use xlink:href="#DejaVuSans-30" transform="translate(190.869141 0)"/>
      </g>
     </g>
    </g>
    <g id="xtick_3">
     <g id="line2d_3">
      <g>
       <use xlink:href="#m8bfdcd4ca5" x="264.837883" y="354.958125" style="stroke: #000000; stroke-width: 0.8"/>
      </g>
     </g>
     <g id="text_3">
      <!-- 1500 -->
      <g transform="translate(252.112883 369.556562) scale(0.1 -0.1)">
       <use xlink:href="#DejaVuSans-31"/>
       <use xlink:href="#DejaVuSans-35" transform="translate(63.623047 0)"/>
       <use xlink:href="#DejaVuSans-30" transform="translate(127.246094 0)"/>
       <use xlink:href="#DejaVuSans-30" transform="translate(190.869141 0)"/>
      </g>
     </g>
    </g>
    <g id="xtick_4">
     <g id="line2d_4">
      <g>
       <use xlink:href="#m8bfdcd4ca5" x="223.608323" y="354.958125" style="stroke: #000000; stroke-width: 0.8"/>
      </g>
     </g>
     <g id="text_4">
      <!-- 2000 -->
      <g transform="translate(210.883323 369.556562) scale(0.1 -0.1)">
       <defs>
        <path id="DejaVuSans-32" d="M 1228 531 
L 3431 531 
L 3431 0 
L 469 0 
L 469 531 
Q 828 903 1448 1529 
Q 2069 2156 2228 2338 
Q 2531 2678 2651 2914 
Q 2772 3150 2772 3378 
Q 2772 3750 2511 3984 
Q 2250 4219 1831 4219 
Q 1534 4219 1204 4116 
Q 875 4013 500 3803 
L 500 4441 
Q 881 4594 1212 4672 
Q 1544 4750 1819 4750 
Q 2544 4750 2975 4387 
Q 3406 4025 3406 3419 
Q 3406 3131 3298 2873 
Q 3191 2616 2906 2266 
Q 2828 2175 2409 1742 
Q 1991 1309 1228 531 
z
" transform="scale(0.015625)"/>
       </defs>
       <use xlink:href="#DejaVuSans-32"/>
       <use xlink:href="#DejaVuSans-30" transform="translate(63.623047 0)"/>
       <use xlink:href="#DejaVuSans-30" transform="translate(127.246094 0)"/>
       <use xlink:href="#DejaVuSans-30" transform="translate(190.869141 0)"/>
      </g>
     </g>
    </g>
    <g id="xtick_5">
     <g id="line2d_5">
      <g>
       <use xlink:href="#m8bfdcd4ca5" x="182.378763" y="354.958125" style="stroke: #000000; stroke-width: 0.8"/>
      </g>
     </g>
     <g id="text_5">
      <!-- 2500 -->
      <g transform="translate(169.653763 369.556562) scale(0.1 -0.1)">
       <use xlink:href="#DejaVuSans-32"/>
       <use xlink:href="#DejaVuSans-35" transform="translate(63.623047 0)"/>
       <use xlink:href="#DejaVuSans-30" transform="translate(127.246094 0)"/>
       <use xlink:href="#DejaVuSans-30" transform="translate(190.869141 0)"/>
      </g>
     </g>
    </g>
    <g id="xtick_6">
     <g id="line2d_6">
      <g>
       <use xlink:href="#m8bfdcd4ca5" x="141.149203" y="354.958125" style="stroke: #000000; stroke-width: 0.8"/>
      </g>
     </g>
     <g id="text_6">
      <!-- 3000 -->
      <g transform="translate(128.424203 369.556562) scale(0.1 -0.1)">
       <defs>
        <path id="DejaVuSans-33" d="M 2597 2516 
Q 3050 2419 3304 2112 
Q 3559 1806 3559 1356 
Q 3559 666 3084 287 
Q 2609 -91 1734 -91 
Q 1441 -91 1130 -33 
Q 819 25 488 141 
L 488 750 
Q 750 597 1062 519 
Q 1375 441 1716 441 
Q 2309 441 2620 675 
Q 2931 909 2931 1356 
Q 2931 1769 2642 2001 
Q 2353 2234 1838 2234 
L 1294 2234 
L 1294 2753 
L 1863 2753 
Q 2328 2753 2575 2939 
Q 2822 3125 2822 3475 
Q 2822 3834 2567 4026 
Q 2313 4219 1838 4219 
Q 1578 4219 1281 4162 
Q 984 4106 628 3988 
L 628 4550 
Q 988 4650 1302 4700 
Q 1616 4750 1894 4750 
Q 2613 4750 3031 4423 
Q 3450 4097 3450 3541 
Q 3450 3153 3228 2886 
Q 3006 2619 2597 2516 
z
" transform="scale(0.015625)"/>
       </defs>
       <use xlink:href="#DejaVuSans-33"/>
       <use xlink:href="#DejaVuSans-30" transform="translate(63.623047 0)"/>
       <use xlink:href="#DejaVuSans-30" transform="translate(127.246094 0)"/>
       <use xlink:href="#DejaVuSans-30" transform="translate(190.869141 0)"/>
      </g>
     </g>
    </g>
    <g id="xtick_7">
     <g id="line2d_7">
      <g>
       <use xlink:href="#m8bfdcd4ca5" x="99.919643" y="354.958125" style="stroke: #000000; stroke-width: 0.8"/>
      </g>
     </g>
     <g id="text_7">
      <!-- 3500 -->
      <g transform="translate(87.194643 369.556562) scale(0.1 -0.1)">
       <use xlink:href="#DejaVuSans-33"/>
       <use xlink:href="#DejaVuSans-35" transform="translate(63.623047 0)"/>
       <use xlink:href="#DejaVuSans-30" transform="translate(127.246094 0)"/>
       <use xlink:href="#DejaVuSans-30" transform="translate(190.869141 0)"/>
      </g>
     </g>
    </g>
    <g id="xtick_8">
     <g id="line2d_8">
      <g>
       <use xlink:href="#m8bfdcd4ca5" x="58.690083" y="354.958125" style="stroke: #000000; stroke-width: 0.8"/>
      </g>
     </g>
     <g id="text_8">
      <!-- 4000 -->
      <g transform="translate(45.965083 369.556562) scale(0.1 -0.1)">
       <defs>
        <path id="DejaVuSans-34" d="M 2419 4116 
L 825 1625 
L 2419 1625 
L 2419 4116 
z
M 2253 4666 
L 3047 4666 
L 3047 1625 
L 3713 1625 
L 3713 1100 
L 3047 1100 
L 3047 0 
L 2419 0 
L 2419 1100 
L 313 1100 
L 313 1709 
L 2253 4666 
z
" transform="scale(0.015625)"/>
       </defs>
       <use xlink:href="#DejaVuSans-34"/>
       <use xlink:href="#DejaVuSans-30" transform="translate(63.623047 0)"/>
       <use xlink:href="#DejaVuSans-30" transform="translate(127.246094 0)"/>
       <use xlink:href="#DejaVuSans-30" transform="translate(190.869141 0)"/>
      </g>
     </g>
    </g>
    <g id="text_9">
     <!-- Wavenumbers, cm$^{-1}$ -->
     <g transform="translate(144.677131 383.756562) scale(0.1 -0.1)">
      <defs>
       <path id="DejaVuSans-57" d="M 213 4666 
L 850 4666 
L 1831 722 
L 2809 4666 
L 3519 4666 
L 4500 722 
L 5478 4666 
L 6119 4666 
L 4947 0 
L 4153 0 
L 3169 4050 
L 2175 0 
L 1381 0 
L 213 4666 
z
" transform="scale(0.015625)"/>
       <path id="DejaVuSans-61" d="M 2194 1759 
Q 1497 1759 1228 1600 
Q 959 1441 959 1056 
Q 959 750 1161 570 
Q 1363 391 1709 391 
Q 2188 391 2477 730 
Q 2766 1069 2766 1631 
L 2766 1759 
L 2194 1759 
z
M 3341 1997 
L 3341 0 
L 2766 0 
L 2766 531 
Q 2569 213 2275 61 
Q 1981 -91 1556 -91 
Q 1019 -91 701 211 
Q 384 513 384 1019 
Q 384 1609 779 1909 
Q 1175 2209 1959 2209 
L 2766 2209 
L 2766 2266 
Q 2766 2663 2505 2880 
Q 2244 3097 1772 3097 
Q 1472 3097 1187 3025 
Q 903 2953 641 2809 
L 641 3341 
Q 956 3463 1253 3523 
Q 1550 3584 1831 3584 
Q 2591 3584 2966 3190 
Q 3341 2797 3341 1997 
z
" transform="scale(0.015625)"/>
       <path id="DejaVuSans-76" d="M 191 3500 
L 800 3500 
L 1894 563 
L 2988 3500 
L 3597 3500 
L 2284 0 
L 1503 0 
L 191 3500 
z
" transform="scale(0.015625)"/>
       <path id="DejaVuSans-65" d="M 3597 1894 
L 3597 1613 
L 953 1613 
Q 991 1019 1311 708 
Q 1631 397 2203 397 
Q 2534 397 2845 478 
Q 3156 559 3463 722 
L 3463 178 
Q 3153 47 2828 -22 
Q 2503 -91 2169 -91 
Q 1331 -91 842 396 
Q 353 884 353 1716 
Q 353 2575 817 3079 
Q 1281 3584 2069 3584 
Q 2775 3584 3186 3129 
Q 3597 2675 3597 1894 
z
M 3022 2063 
Q 3016 2534 2758 2815 
Q 2500 3097 2075 3097 
Q 1594 3097 1305 2825 
Q 1016 2553 972 2059 
L 3022 2063 
z
" transform="scale(0.015625)"/>
       <path id="DejaVuSans-6e" d="M 3513 2113 
L 3513 0 
L 2938 0 
L 2938 2094 
Q 2938 2591 2744 2837 
Q 2550 3084 2163 3084 
Q 1697 3084 1428 2787 
Q 1159 2491 1159 1978 
L 1159 0 
L 581 0 
L 581 3500 
L 1159 3500 
L 1159 2956 
Q 1366 3272 1645 3428 
Q 1925 3584 2291 3584 
Q 2894 3584 3203 3211 
Q 3513 2838 3513 2113 
z
" transform="scale(0.015625)"/>
       <path id="DejaVuSans-75" d="M 544 1381 
L 544 3500 
L 1119 3500 
L 1119 1403 
Q 1119 906 1312 657 
Q 1506 409 1894 409 
Q 2359 409 2629 706 
Q 2900 1003 2900 1516 
L 2900 3500 
L 3475 3500 
L 3475 0 
L 2900 0 
L 2900 538 
Q 2691 219 2414 64 
Q 2138 -91 1772 -91 
Q 1169 -91 856 284 
Q 544 659 544 1381 
z
M 1991 3584 
L 1991 3584 
z
" transform="scale(0.015625)"/>
       <path id="DejaVuSans-6d" d="M 3328 2828 
Q 3544 3216 3844 3400 
Q 4144 3584 4550 3584 
Q 5097 3584 5394 3201 
Q 5691 2819 5691 2113 
L 5691 0 
L 5113 0 
L 5113 2094 
Q 5113 2597 4934 2840 
Q 4756 3084 4391 3084 
Q 3944 3084 3684 2787 
Q 3425 2491 3425 1978 
L 3425 0 
L 2847 0 
L 2847 2094 
Q 2847 2600 2669 2842 
Q 2491 3084 2119 3084 
Q 1678 3084 1418 2786 
Q 1159 2488 1159 1978 
L 1159 0 
L 581 0 
L 581 3500 
L 1159 3500 
L 1159 2956 
Q 1356 3278 1631 3431 
Q 1906 3584 2284 3584 
Q 2666 3584 2933 3390 
Q 3200 3197 3328 2828 
z
" transform="scale(0.015625)"/>
       <path id="DejaVuSans-62" d="M 3116 1747 
Q 3116 2381 2855 2742 
Q 2594 3103 2138 3103 
Q 1681 3103 1420 2742 
Q 1159 2381 1159 1747 
Q 1159 1113 1420 752 
Q 1681 391 2138 391 
Q 2594 391 2855 752 
Q 3116 1113 3116 1747 
z
M 1159 2969 
Q 1341 3281 1617 3432 
Q 1894 3584 2278 3584 
Q 2916 3584 3314 3078 
Q 3713 2572 3713 1747 
Q 3713 922 3314 415 
Q 2916 -91 2278 -91 
Q 1894 -91 1617 61 
Q 1341 213 1159 525 
L 1159 0 
L 581 0 
L 581 4863 
L 1159 4863 
L 1159 2969 
z
" transform="scale(0.015625)"/>
       <path id="DejaVuSans-72" d="M 2631 2963 
Q 2534 3019 2420 3045 
Q 2306 3072 2169 3072 
Q 1681 3072 1420 2755 
Q 1159 2438 1159 1844 
L 1159 0 
L 581 0 
L 581 3500 
L 1159 3500 
L 1159 2956 
Q 1341 3275 1631 3429 
Q 1922 3584 2338 3584 
Q 2397 3584 2469 3576 
Q 2541 3569 2628 3553 
L 2631 2963 
z
" transform="scale(0.015625)"/>
       <path id="DejaVuSans-73" d="M 2834 3397 
L 2834 2853 
Q 2591 2978 2328 3040 
Q 2066 3103 1784 3103 
Q 1356 3103 1142 2972 
Q 928 2841 928 2578 
Q 928 2378 1081 2264 
Q 1234 2150 1697 2047 
L 1894 2003 
Q 2506 1872 2764 1633 
Q 3022 1394 3022 966 
Q 3022 478 2636 193 
Q 2250 -91 1575 -91 
Q 1294 -91 989 -36 
Q 684 19 347 128 
L 347 722 
Q 666 556 975 473 
Q 1284 391 1588 391 
Q 1994 391 2212 530 
Q 2431 669 2431 922 
Q 2431 1156 2273 1281 
Q 2116 1406 1581 1522 
L 1381 1569 
Q 847 1681 609 1914 
Q 372 2147 372 2553 
Q 372 3047 722 3315 
Q 1072 3584 1716 3584 
Q 2034 3584 2315 3537 
Q 2597 3491 2834 3397 
z
" transform="scale(0.015625)"/>
       <path id="DejaVuSans-2c" d="M 750 794 
L 1409 794 
L 1409 256 
L 897 -744 
L 494 -744 
L 750 256 
L 750 794 
z
" transform="scale(0.015625)"/>
       <path id="DejaVuSans-20" transform="scale(0.015625)"/>
       <path id="DejaVuSans-63" d="M 3122 3366 
L 3122 2828 
Q 2878 2963 2633 3030 
Q 2388 3097 2138 3097 
Q 1578 3097 1268 2742 
Q 959 2388 959 1747 
Q 959 1106 1268 751 
Q 1578 397 2138 397 
Q 2388 397 2633 464 
Q 2878 531 3122 666 
L 3122 134 
Q 2881 22 2623 -34 
Q 2366 -91 2075 -91 
Q 1284 -91 818 406 
Q 353 903 353 1747 
Q 353 2603 823 3093 
Q 1294 3584 2113 3584 
Q 2378 3584 2631 3529 
Q 2884 3475 3122 3366 
z
" transform="scale(0.015625)"/>
       <path id="DejaVuSans-2212" d="M 678 2272 
L 4684 2272 
L 4684 1741 
L 678 1741 
L 678 2272 
z
" transform="scale(0.015625)"/>
      </defs>
      <use xlink:href="#DejaVuSans-57" transform="translate(0 0.684375)"/>
      <use xlink:href="#DejaVuSans-61" transform="translate(98.876953 0.684375)"/>
      <use xlink:href="#DejaVuSans-76" transform="translate(160.15625 0.684375)"/>
      <use xlink:href="#DejaVuSans-65" transform="translate(219.335938 0.684375)"/>
      <use xlink:href="#DejaVuSans-6e" transform="translate(280.859375 0.684375)"/>
      <use xlink:href="#DejaVuSans-75" transform="translate(344.238281 0.684375)"/>
      <use xlink:href="#DejaVuSans-6d" transform="translate(407.617188 0.684375)"/>
      <use xlink:href="#DejaVuSans-62" transform="translate(505.029297 0.684375)"/>
      <use xlink:href="#DejaVuSans-65" transform="translate(568.505859 0.684375)"/>
      <use xlink:href="#DejaVuSans-72" transform="translate(630.029297 0.684375)"/>
      <use xlink:href="#DejaVuSans-73" transform="translate(671.142578 0.684375)"/>
      <use xlink:href="#DejaVuSans-2c" transform="translate(723.242188 0.684375)"/>
      <use xlink:href="#DejaVuSans-20" transform="translate(755.029297 0.684375)"/>
      <use xlink:href="#DejaVuSans-63" transform="translate(786.816406 0.684375)"/>
      <use xlink:href="#DejaVuSans-6d" transform="translate(841.796875 0.684375)"/>
      <use xlink:href="#DejaVuSans-2212" transform="translate(940.166016 38.965625) scale(0.7)"/>
      <use xlink:href="#DejaVuSans-31" transform="translate(998.818359 38.965625) scale(0.7)"/>
     </g>
    </g>
   </g>
   <g id="matplotlib.axis_2">
    <g id="ytick_1">
     <g id="line2d_9">
      <defs>
       <path id="m9d2b819fa9" d="M 0 0 
L -3.5 0 
" style="stroke: #000000; stroke-width: 0.8"/>
      </defs>
      <g>
       <use xlink:href="#m9d2b819fa9" x="44.845313" y="317.819591" style="stroke: #000000; stroke-width: 0.8"/>
      </g>
     </g>
     <g id="text_10">
      <!-- −15.0 -->
      <g transform="translate(7.2 321.618809) scale(0.1 -0.1)">
       <defs>
        <path id="DejaVuSans-2e" d="M 684 794 
L 1344 794 
L 1344 0 
L 684 0 
L 684 794 
z
" transform="scale(0.015625)"/>
       </defs>
       <use xlink:href="#DejaVuSans-2212"/>
       <use xlink:href="#DejaVuSans-31" transform="translate(83.789062 0)"/>
       <use xlink:href="#DejaVuSans-35" transform="translate(147.412109 0)"/>
       <use xlink:href="#DejaVuSans-2e" transform="translate(211.035156 0)"/>
       <use xlink:href="#DejaVuSans-30" transform="translate(242.822266 0)"/>
      </g>
     </g>
    </g>
    <g id="ytick_2">
     <g id="line2d_10">
      <g>
       <use xlink:href="#m9d2b819fa9" x="44.845313" y="273.561028" style="stroke: #000000; stroke-width: 0.8"/>
      </g>
     </g>
     <g id="text_11">
      <!-- −12.5 -->
      <g transform="translate(7.2 277.360246) scale(0.1 -0.1)">
       <use xlink:href="#DejaVuSans-2212"/>
       <use xlink:href="#DejaVuSans-31" transform="translate(83.789062 0)"/>
       <use xlink:href="#DejaVuSans-32" transform="translate(147.412109 0)"/>
       <use xlink:href="#DejaVuSans-2e" transform="translate(211.035156 0)"/>
       <use xlink:href="#DejaVuSans-35" transform="translate(242.822266 0)"/>
      </g>
     </g>
    </g>
    <g id="ytick_3">
     <g id="line2d_11">
      <g>
       <use xlink:href="#m9d2b819fa9" x="44.845313" y="229.302465" style="stroke: #000000; stroke-width: 0.8"/>
      </g>
     </g>
     <g id="text_12">
      <!-- −10.0 -->
      <g transform="translate(7.2 233.101684) scale(0.1 -0.1)">
       <use xlink:href="#DejaVuSans-2212"/>
       <use xlink:href="#DejaVuSans-31" transform="translate(83.789062 0)"/>
       <use xlink:href="#DejaVuSans-30" transform="translate(147.412109 0)"/>
       <use xlink:href="#DejaVuSans-2e" transform="translate(211.035156 0)"/>
       <use xlink:href="#DejaVuSans-30" transform="translate(242.822266 0)"/>
      </g>
     </g>
    </g>
    <g id="ytick_4">
     <g id="line2d_12">
      <g>
       <use xlink:href="#m9d2b819fa9" x="44.845313" y="185.043902" style="stroke: #000000; stroke-width: 0.8"/>
      </g>
     </g>
     <g id="text_13">
      <!-- −7.5 -->
      <g transform="translate(13.5625 188.843121) scale(0.1 -0.1)">
       <defs>
        <path id="DejaVuSans-37" d="M 525 4666 
L 3525 4666 
L 3525 4397 
L 1831 0 
L 1172 0 
L 2766 4134 
L 525 4134 
L 525 4666 
z
" transform="scale(0.015625)"/>
       </defs>
       <use xlink:href="#DejaVuSans-2212"/>
       <use xlink:href="#DejaVuSans-37" transform="translate(83.789062 0)"/>
       <use xlink:href="#DejaVuSans-2e" transform="translate(147.412109 0)"/>
       <use xlink:href="#DejaVuSans-35" transform="translate(179.199219 0)"/>
      </g>
     </g>
    </g>
    <g id="ytick_5">
     <g id="line2d_13">
      <g>
       <use xlink:href="#m9d2b819fa9" x="44.845313" y="140.785339" style="stroke: #000000; stroke-width: 0.8"/>
      </g>
     </g>
     <g id="text_14">
      <!-- −5.0 -->
      <g transform="translate(13.5625 144.584558) scale(0.1 -0.1)">
       <use xlink:href="#DejaVuSans-2212"/>
       <use xlink:href="#DejaVuSans-35" transform="translate(83.789062 0)"/>
       <use xlink:href="#DejaVuSans-2e" transform="translate(147.412109 0)"/>
       <use xlink:href="#DejaVuSans-30" transform="translate(179.199219 0)"/>
      </g>
     </g>
    </g>
    <g id="ytick_6">
     <g id="line2d_14">
      <g>
       <use xlink:href="#m9d2b819fa9" x="44.845313" y="96.526776" style="stroke: #000000; stroke-width: 0.8"/>
      </g>
     </g>
     <g id="text_15">
      <!-- −2.5 -->
      <g transform="translate(13.5625 100.325995) scale(0.1 -0.1)">
       <use xlink:href="#DejaVuSans-2212"/>
       <use xlink:href="#DejaVuSans-32" transform="translate(83.789062 0)"/>
       <use xlink:href="#DejaVuSans-2e" transform="translate(147.412109 0)"/>
       <use xlink:href="#DejaVuSans-35" transform="translate(179.199219 0)"/>
      </g>
     </g>
    </g>
    <g id="ytick_7">
     <g id="line2d_15">
      <g>
       <use xlink:href="#m9d2b819fa9" x="44.845313" y="52.268213" style="stroke: #000000; stroke-width: 0.8"/>
      </g>
     </g>
     <g id="text_16">
      <!-- 0.0 -->
      <g transform="translate(21.942188 56.067432) scale(0.1 -0.1)">
       <use xlink:href="#DejaVuSans-30"/>
       <use xlink:href="#DejaVuSans-2e" transform="translate(63.623047 0)"/>
       <use xlink:href="#DejaVuSans-30" transform="translate(95.410156 0)"/>
      </g>
     </g>
    </g>
   </g>
   <g id="line2d_16">
    <path d="M 335.374238 67.192384 
L 335.334485 67.368297 
L 335.294723 67.334374 
L 334.65865 64.175416 
L 334.618896 64.199457 
L 334.42012 64.476494 
L 334.141837 65.122081 
L 334.102075 65.100993 
L 334.022568 65.167065 
L 333.863546 65.976524 
L 333.505756 67.72121 
L 333.426249 67.953087 
L 333.30698 69.208244 
L 332.591391 79.315511 
L 332.352862 79.838132 
L 332.233601 81.313498 
L 332.074579 86.442648 
L 331.836049 102.775215 
L 331.637273 134.77754 
L 331.279483 225.490953 
L 331.199968 218.620699 
L 330.524133 79.420654 
L 330.285603 74.358708 
L 330.206096 74.07864 
L 330.166343 74.114653 
L 330.047074 75.141232 
L 329.808544 80.375067 
L 329.530261 91.307742 
L 329.291732 109.00549 
L 329.053202 146.477537 
L 328.814673 229.501659 
L 328.496636 339.838125 
L 328.456883 339.636178 
L 328.337614 318.149042 
L 327.502765 93.986291 
L 327.18472 70.864193 
L 326.866683 61.330644 
L 326.310117 54.050235 
L 325.952319 52.4276 
L 325.674036 51.930773 
L 325.47526 51.857352 
L 325.355999 51.774463 
L 325.11747 51.39317 
L 324.87894 51.761984 
L 324.839179 51.703506 
L 324.680164 51.452002 
L 324.640411 51.50695 
L 324.36212 52.170138 
L 324.322366 52.128784 
L 324.163352 52.041864 
L 324.044083 52.432864 
L 323.7658 53.778536 
L 323.726046 53.710207 
L 323.487517 52.421167 
L 323.248987 51.672659 
L 322.811682 51.178482 
L 322.65266 50.994815 
L 322.41413 51.288308 
L 321.937071 51.77767 
L 321.81781 51.907949 
L 321.658788 52.104204 
L 321.619034 52.078103 
L 321.499766 52.019603 
L 321.380505 52.329177 
L 321.221483 52.729767 
L 321.181729 52.69697 
L 320.9432 52.249959 
L 320.903446 52.310879 
L 320.664916 52.784651 
L 320.625163 52.765373 
L 320.187857 52.439248 
L 320.148104 52.508915 
L 319.909574 52.886671 
L 319.710798 52.895036 
L 319.472269 53.379679 
L 319.313247 53.593896 
L 319.273493 53.567025 
L 318.836188 53.118792 
L 318.716927 53.028916 
L 318.319375 52.184164 
L 318.001338 50.993229 
L 317.802563 50.667233 
L 317.484526 49.822345 
L 317.405011 49.885467 
L 317.28575 50.315418 
L 316.848445 52.301853 
L 316.411139 53.305181 
L 316.053349 53.451631 
L 315.93408 53.491986 
L 315.417268 54.482734 
L 315.178738 55.459837 
L 314.741433 58.520043 
L 314.701679 58.438904 
L 314.542657 57.319701 
L 313.986091 51.18389 
L 313.906584 51.401244 
L 313.350009 53.602372 
L 313.11148 53.612169 
L 312.435645 54.375873 
L 312.276631 54.433615 
L 312.077855 54.421738 
L 311.799572 54.91381 
L 311.759818 54.879018 
L 311.561042 54.642844 
L 311.521289 54.673463 
L 311.282759 54.985745 
L 311.242997 54.953156 
L 310.8057 54.253251 
L 310.765938 54.29421 
L 310.487655 54.740503 
L 310.447902 54.702966 
L 310.209372 54.483485 
L 309.81182 54.62109 
L 309.69256 54.509342 
L 309.493784 54.199075 
L 309.45403 54.229219 
L 309.175747 54.645063 
L 309.135994 54.612871 
L 308.738442 53.980474 
L 308.658935 54.044375 
L 308.499912 54.087211 
L 308.380643 53.880677 
L 308.062607 53.267889 
L 307.903584 53.26829 
L 307.704817 52.892711 
L 307.347018 52.315553 
L 307.187996 52.010082 
L 306.432662 49.045948 
L 305.756819 45.272615 
L 305.478519 44.178122 
L 305.359283 44.192732 
L 305.240048 44.560035 
L 305.041239 46.168655 
L 304.802684 50.544966 
L 304.405149 63.035688 
L 303.888378 89.802834 
L 303.649823 97.851481 
L 303.570333 96.929793 
L 302.49688 69.113362 
L 302.059599 62.232435 
L 301.622319 58.676167 
L 301.344019 57.816346 
L 300.946484 57.337999 
L 300.787502 57.408588 
L 300.548948 58.036334 
L 300.310394 59.35443 
L 299.952604 62.875348 
L 299.674304 68.090469 
L 299.35626 73.980223 
L 299.276769 72.869534 
L 298.561189 55.796606 
L 298.282889 54.337169 
L 298.123908 54.268812 
L 297.925099 54.48339 
L 297.607054 55.612816 
L 297.328755 56.270836 
L 297.209519 56.198952 
L 297.050538 55.731948 
L 296.454193 53.362216 
L 296.255384 53.26883 
L 296.016913 53.31402 
L 295.579549 52.953394 
L 295.261505 53.008374 
L 294.426688 53.724714 
L 294.267625 53.789685 
L 293.94958 54.06011 
L 293.790599 54.285609 
L 293.472554 54.772973 
L 293.194254 54.78788 
L 292.637738 54.206388 
L 292.319693 53.810569 
L 292.200375 53.861453 
L 291.802839 54.484095 
L 291.60403 55.893363 
L 291.365559 57.3623 
L 291.286068 57.11608 
L 290.689724 53.536598 
L 290.490915 53.412235 
L 290.17287 53.333193 
L 289.616353 53.634959 
L 289.45729 53.579735 
L 288.860945 52.674671 
L 288.662219 50.62554 
L 288.344174 47.352539 
L 288.026129 46.461106 
L 287.82732 45.403788 
L 287.787575 45.410263 
L 287.668339 46.017583 
L 287.231058 49.042503 
L 286.75395 50.01619 
L 286.39616 51.212047 
L 286.197433 51.83348 
L 285.919134 52.557186 
L 285.601089 52.68741 
L 285.362535 52.421799 
L 284.726445 51.67269 
L 284.6867 51.715253 
L 284.010865 52.673561 
L 283.812138 52.597961 
L 283.573584 52.596898 
L 283.05673 52.779377 
L 282.579704 52.367997 
L 282.301405 52.468959 
L 281.98336 52.551635 
L 281.784633 52.507149 
L 281.387098 52.839821 
L 280.949735 52.602895 
L 280.154664 52.660301 
L 279.9956 52.476956 
L 279.757129 52.16616 
L 279.28002 52.531933 
L 278.92223 52.64906 
L 278.64393 52.568858 
L 278.484949 52.562963 
L 278.325968 52.201044 
L 278.127159 51.776188 
L 278.087414 51.804408 
L 277.84886 52.295862 
L 277.809114 52.245699 
L 277.292261 50.650454 
L 276.894725 48.773948 
L 276.298463 45.950457 
L 276.21889 45.858957 
L 276.179145 45.911064 
L 276.020164 46.759249 
L 275.185265 52.70735 
L 274.747984 58.979884 
L 274.668494 58.71912 
L 274.390194 55.745742 
L 274.07215 53.332538 
L 273.79385 52.966217 
L 273.356569 51.799646 
L 273.197588 51.799546 
L 273.038524 52.283943 
L 272.919289 52.480906 
L 272.879543 52.426103 
L 272.680734 52.059106 
L 272.640989 52.126655 
L 272.402435 52.649028 
L 272.362689 52.620063 
L 272.163881 52.523377 
L 272.004899 52.497865 
L 271.845918 52.147179 
L 271.527873 50.594014 
L 271.4483 50.971933 
L 271.170083 52.484845 
L 270.971274 52.923622 
L 270.852038 53.042266 
L 270.812293 53.000092 
L 270.653229 52.900412 
L 270.494248 53.324154 
L 270.295439 53.802288 
L 270.09663 53.368888 
L 270.056885 53.51349 
L 269.222069 60.476286 
L 268.943769 63.144771 
L 268.904024 63.072105 
L 268.506489 61.304585 
L 268.466743 61.393704 
L 268.347425 62.753576 
L 268.02938 67.24863 
L 267.94989 67.36032 
L 267.910144 67.272609 
L 267.67159 66.634156 
L 267.631845 66.657708 
L 267.552354 66.656216 
L 267.433118 66.221074 
L 267.234309 63.985362 
L 266.995755 61.832286 
L 266.797029 61.712327 
L 266.478984 61.709033 
L 266.399411 61.767936 
L 266.200684 62.423576 
L 266.001875 63.613811 
L 265.803149 66.775628 
L 265.644085 73.54185 
L 265.405614 97.739665 
L 265.206805 115.581784 
L 265.167059 114.841035 
L 265.047823 102.215708 
L 264.729779 66.668826 
L 264.371989 55.162196 
L 264.212925 53.332683 
L 263.815389 54.886542 
L 263.735899 54.852439 
L 263.616581 54.337433 
L 263.417854 53.459245 
L 263.378109 53.473405 
L 263.099809 53.802586 
L 262.861255 55.564297 
L 262.82151 55.478092 
L 262.46372 54.215148 
L 262.344484 54.04429 
L 262.066184 53.10073 
L 262.026439 53.201561 
L 261.867375 53.861703 
L 261.82763 53.816903 
L 261.708394 52.750625 
L 261.509585 50.623706 
L 261.46984 50.65459 
L 261.072304 52.584528 
L 260.913323 53.058074 
L 260.873495 53.045638 
L 260.75426 53.04113 
L 260.595278 53.347645 
L 260.555451 53.305784 
L 260.277234 52.13249 
L 260.157915 51.081917 
L 259.998934 49.300254 
L 259.959189 49.501132 
L 259.521826 54.207251 
L 259.323099 54.583452 
L 259.12429 54.048557 
L 259.0448 54.21405 
L 258.845991 54.958694 
L 258.806245 54.89633 
L 258.647264 53.876841 
L 258.567774 53.487693 
L 258.528028 53.494807 
L 258.368965 54.403137 
L 258.170156 55.006387 
L 257.891939 55.383261 
L 257.69313 55.660292 
L 257.653384 55.634029 
L 257.454575 55.404243 
L 257.41483 55.44955 
L 257.216104 56.155558 
L 256.898059 58.05747 
L 256.659505 61.764387 
L 256.381205 71.35522 
L 256.222224 74.916482 
L 256.182479 74.58045 
L 256.06316 70.444577 
L 255.70537 56.922552 
L 255.427071 54.627516 
L 255.188599 53.459483 
L 254.950045 54.199707 
L 254.870554 54.083146 
L 254.592254 53.360833 
L 254.473019 53.343559 
L 253.876674 51.959952 
L 253.63812 49.725295 
L 253.558629 49.880731 
L 253.240585 51.067405 
L 253.161094 51.086832 
L 253.121349 51.023259 
L 253.00203 50.461123 
L 252.723731 48.587588 
L 252.683985 48.677124 
L 252.485259 49.454445 
L 252.445514 49.289634 
L 252.206959 46.637493 
L 252.127469 47.388346 
L 251.849169 50.198822 
L 251.769679 50.199246 
L 251.451634 49.569279 
L 251.372143 49.703366 
L 251.252825 49.867478 
L 251.21308 49.818666 
L 251.054099 49.042209 
L 250.895035 48.346863 
L 250.85529 48.375319 
L 250.616735 49.095218 
L 250.57699 48.999782 
L 250.378264 48.312926 
L 250.338436 48.424284 
L 250.139709 49.129666 
L 250.099964 49.079225 
L 249.9409 48.303087 
L 249.662601 45.931548 
L 249.622856 46.139475 
L 249.344556 47.98536 
L 248.947021 47.434124 
L 248.271186 42.791823 
L 248.15195 43.055002 
L 248.072459 42.886396 
L 247.714669 41.426544 
L 247.51586 40.8296 
L 247.277306 39.12986 
L 246.959261 37.438125 
L 246.879771 37.66131 
L 246.681044 39.968068 
L 245.846145 50.733484 
L 245.488355 52.434168 
L 245.249884 54.705297 
L 244.971584 53.984536 
L 244.892011 54.038702 
L 244.73303 53.991712 
L 244.613794 53.791062 
L 244.216258 52.290011 
L 244.136685 52.545384 
L 243.858386 53.811313 
L 243.659659 53.538113 
L 243.619914 53.571526 
L 243.500596 53.648716 
L 243.46085 53.599122 
L 243.222379 53.089883 
L 243.182551 53.154197 
L 243.02357 53.492851 
L 242.983824 53.467657 
L 242.824761 52.892694 
L 242.38748 51.543253 
L 242.268244 51.863681 
L 241.950199 52.740912 
L 241.6719 52.985027 
L 241.512919 52.984689 
L 241.31411 52.839986 
L 241.115301 53.083446 
L 240.996065 52.70773 
L 240.837084 52.189387 
L 240.797256 52.221354 
L 240.638275 52.993724 
L 240.32023 54.297202 
L 240.200994 54.366989 
L 240.002185 54.18708 
L 239.96244 54.240103 
L 239.644395 54.919856 
L 239.60465 54.878051 
L 239.008305 53.844284 
L 238.133744 52.965465 
L 237.97468 52.768173 
L 237.815699 52.810202 
L 237.61689 52.569495 
L 237.17961 53.230547 
L 236.941055 53.469211 
L 236.821819 53.545611 
L 236.782074 53.50119 
L 236.62301 52.8266 
L 236.503775 52.389181 
L 236.464029 52.4112 
L 236.225475 53.359347 
L 235.509895 55.882464 
L 235.47015 55.863976 
L 235.311086 55.545692 
L 234.993041 54.948285 
L 234.83406 54.82802 
L 234.635251 54.263404 
L 234.436524 53.572726 
L 234.396779 53.629842 
L 234.078734 54.956628 
L 233.999161 54.828449 
L 233.601626 54.0191 
L 233.283581 53.993415 
L 233.1246 54.164988 
L 233.084855 54.118836 
L 232.925791 53.425112 
L 232.727064 52.835058 
L 232.48851 53.029826 
L 232.448765 52.979448 
L 232.249956 52.760792 
L 231.295904 53.37826 
L 231.13684 53.136472 
L 230.858541 52.781989 
L 230.500751 52.754389 
L 230.222451 52.919874 
L 230.023725 52.676723 
L 229.983979 52.727559 
L 229.78517 53.478772 
L 229.34789 55.083909 
L 229.188826 54.822782 
L 229.109335 54.742864 
L 229.06959 54.789074 
L 228.7118 55.908211 
L 228.632309 55.855261 
L 228.473246 55.495591 
L 228.274519 55.166762 
L 227.876901 55.597254 
L 227.797411 55.458676 
L 227.678175 55.337093 
L 227.479366 55.743118 
L 227.399875 55.636266 
L 227.28064 55.432383 
L 227.240894 55.45064 
L 227.00234 56.003359 
L 226.922849 55.838375 
L 226.36625 53.163667 
L 226.326505 53.243819 
L 225.968715 54.894064 
L 225.889224 54.69543 
L 225.531434 53.0693 
L 225.491607 53.110318 
L 225.213389 53.428334 
L 225.094071 53.629442 
L 224.815854 54.482975 
L 224.776026 54.470484 
L 224.617045 54.22293 
L 224.338746 53.229124 
L 224.259255 53.329842 
L 224.100191 53.679063 
L 224.060446 53.627033 
L 223.782229 52.841242 
L 223.702656 52.910552 
L 223.384611 53.772285 
L 223.30512 53.668917 
L 222.86784 52.79133 
L 222.828094 52.843422 
L 222.748521 52.926991 
L 222.708776 52.893558 
L 222.430559 52.105599 
L 222.350986 52.271076 
L 222.112514 52.634863 
L 221.87396 52.763423 
L 221.51617 53.88707 
L 221.436679 53.819701 
L 221.039061 53.638929 
L 220.840335 53.533217 
L 220.721017 53.331022 
L 220.4428 52.033789 
L 220.323481 52.18751 
L 220.243991 52.120893 
L 220.085009 51.831911 
L 219.925946 52.421556 
L 219.727219 52.78749 
L 219.607901 52.708906 
L 219.329601 52.148145 
L 219.289856 52.169309 
L 218.892321 52.312609 
L 218.773085 52.428277 
L 218.614021 52.75527 
L 218.574276 52.71293 
L 218.335804 52.052498 
L 218.295976 52.116704 
L 218.057505 52.750128 
L 218.017759 52.734107 
L 217.858696 52.386771 
L 217.620141 51.906625 
L 217.500906 52.21624 
L 217.302097 52.830751 
L 217.262351 52.791 
L 216.904561 51.840453 
L 216.825071 51.93516 
L 216.507026 52.564359 
L 216.348045 52.680662 
L 216.228726 52.714964 
L 216.069745 52.303138 
L 215.831191 51.85487 
L 214.916802 51.838636 
L 214.67833 51.59728 
L 214.638585 51.664338 
L 214.40003 52.433036 
L 214.360285 52.388635 
L 214.121731 51.723291 
L 214.04224 51.809439 
L 213.883259 51.981479 
L 213.763941 51.765748 
L 213.525386 51.349673 
L 213.167596 51.674991 
L 212.849551 52.698574 
L 212.730316 52.541365 
L 212.25329 51.86123 
L 212.173717 51.975393 
L 211.895499 52.655237 
L 211.855672 52.615105 
L 211.736436 52.096246 
L 211.458136 50.823797 
L 211.3389 51.051787 
L 211.179919 51.885875 
L 210.941365 53.085764 
L 210.702811 52.928997 
L 210.583575 52.862347 
L 210.464257 52.705331 
L 210.424511 52.763355 
L 210.26553 53.160198 
L 210.225785 53.089841 
L 209.987231 52.11794 
L 209.947485 52.223973 
L 209.708931 53.112231 
L 209.669186 53.062482 
L 209.430631 52.119027 
L 209.152332 51.331941 
L 209.033096 51.833045 
L 208.794624 53.053427 
L 208.55607 52.926285 
L 208.397006 53.044531 
L 207.880235 52.274006 
L 207.681426 51.359596 
L 207.641681 51.418972 
L 207.363381 52.714154 
L 207.283891 52.508364 
L 207.085082 52.061808 
L 206.84661 52.31568 
L 206.806865 52.266987 
L 206.528565 51.783854 
L 206.48882 51.821426 
L 206.290011 52.125733 
L 206.250266 52.059012 
L 206.091284 51.718915 
L 206.051457 51.764399 
L 205.85273 52.251817 
L 205.812985 52.206467 
L 205.41545 51.462687 
L 204.938341 50.860225 
L 204.819105 50.783401 
L 204.540806 51.282431 
L 204.50106 51.242819 
L 204.183016 50.810026 
L 204.14327 50.852826 
L 203.78548 51.51576 
L 203.745735 51.47154 
L 203.586671 51.038503 
L 203.348199 50.280549 
L 203.308372 50.315957 
L 203.109645 50.69182 
L 203.0699 50.63945 
L 202.910836 50.379663 
L 202.7916 50.855092 
L 202.592791 51.648639 
L 202.553046 51.631957 
L 202.314492 51.472658 
L 201.956784 51.661632 
L 201.797721 51.603404 
L 201.598912 50.933162 
L 201.43993 50.530411 
L 201.400185 50.548839 
L 201.121886 51.108285 
L 201.042395 51.042552 
L 200.923077 51.113247 
L 200.72435 51.384071 
L 200.525541 51.327779 
L 200.36656 51.356735 
L 200.128006 51.282886 
L 199.969025 51.242377 
L 199.37268 50.717044 
L 199.332935 50.767428 
L 199.134126 50.885165 
L 198.776336 50.729727 
L 198.498036 50.9309 
L 198.339055 50.924486 
L 198.060756 50.676112 
L 197.861947 50.688908 
L 197.543902 50.421044 
L 197.30543 50.665483 
L 197.146367 50.711109 
L 196.828322 50.382813 
L 196.788576 50.444411 
L 196.629595 50.618207 
L 196.58985 50.588979 
L 196.430786 50.494737 
L 196.271805 50.954803 
L 196.072996 51.41446 
L 195.95376 51.265161 
L 195.476652 50.333998 
L 195.357416 50.424329 
L 195.039371 50.79917 
L 194.800899 50.498198 
L 194.562345 50.276283 
L 194.403281 50.143297 
L 194.2443 50.054709 
L 193.80702 50.611318 
L 193.687701 50.51179 
L 193.409402 49.916988 
L 193.369656 49.947994 
L 193.051612 50.266649 
L 192.852885 50.191577 
L 192.614331 50.023425 
L 192.137305 50.471805 
L 191.859005 50.736603 
L 191.699942 50.828989 
L 191.501215 50.967667 
L 191.222916 50.782312 
L 191.024107 50.679659 
L 190.547081 50.564545 
L 190.189291 50.997775 
L 190.149545 50.968299 
L 189.592946 50.478647 
L 189.274901 50.678938 
L 188.718385 50.557358 
L 188.440085 51.319121 
L 188.281022 51.520034 
L 188.122041 51.292558 
L 187.843741 50.971677 
L 187.605187 51.124522 
L 187.287142 50.500669 
L 187.207651 50.622432 
L 187.008925 50.8519 
L 186.69088 50.692364 
L 186.492071 50.767957 
L 186.293262 50.368686 
L 186.134281 50.246695 
L 185.855981 50.371089 
L 185.657255 50.253574 
L 185.259637 50.663246 
L 184.742866 50.299649 
L 184.504312 49.930768 
L 184.027286 50.419224 
L 183.98754 50.362082 
L 183.709241 49.938868 
L 183.669495 49.968791 
L 183.391196 50.163555 
L 182.953915 49.955837 
L 182.794852 49.892027 
L 182.55638 49.82337 
L 182.397316 50.025906 
L 182.238335 50.176837 
L 182.039526 49.899259 
L 181.761226 49.67892 
L 181.443182 49.815919 
L 181.005901 49.715882 
L 180.886665 49.741667 
L 180.687856 49.320807 
L 180.528875 49.183541 
L 180.369811 49.606571 
L 180.171085 49.935175 
L 179.932531 49.841288 
L 179.49525 50.096242 
L 179.415677 50.039967 
L 179.097632 49.385109 
L 179.057887 49.435077 
L 178.739842 49.990687 
L 178.700097 49.967012 
L 178.262816 49.630765 
L 177.984516 49.912042 
L 177.944771 49.874689 
L 177.586981 49.581479 
L 177.388172 49.559474 
L 177.189445 49.516052 
L 176.831655 49.779689 
L 176.513611 49.685324 
L 176.275056 49.288783 
L 176.235311 49.325982 
L 175.758285 49.838282 
L 175.320922 49.718042 
L 175.08245 49.532897 
L 174.764405 49.551707 
L 174.565596 49.499758 
L 174.327042 49.688869 
L 174.287297 49.641663 
L 174.048743 49.221882 
L 174.00908 49.242588 
L 173.810271 49.37056 
L 173.452481 49.167574 
L 173.094691 49.266973 
L 172.577837 49.527592 
L 172.37911 49.659671 
L 172.180301 49.417985 
L 171.981492 49.260239 
L 171.583957 49.607715 
L 171.186422 49.498096 
L 170.947867 49.692179 
L 170.629905 49.484355 
L 170.431096 49.289414 
L 170.152797 48.90932 
L 169.993815 49.232614 
L 169.795006 49.437074 
L 169.516707 49.089091 
L 169.198662 48.63014 
L 168.999936 48.724143 
L 168.681891 48.988147 
L 168.522827 49.072051 
L 168.24461 49.253176 
L 167.807247 49.266309 
L 167.449457 49.057899 
L 167.171157 49.204564 
L 166.892858 49.012795 
L 166.694131 48.98291 
L 166.455577 48.916553 
L 165.978551 49.011614 
L 165.819487 49.016772 
L 165.660506 49.061748 
L 165.382207 48.957726 
L 165.064162 49.093688 
L 164.905181 49.095172 
L 164.626881 48.986136 
L 164.070282 49.347497 
L 163.871556 49.262112 
L 163.712492 49.46898 
L 163.434192 49.827813 
L 163.275211 49.910819 
L 162.877676 50.288401 
L 162.678867 49.95344 
L 162.042777 48.636647 
L 161.526006 48.614813 
L 161.327197 48.359735 
L 161.088725 48.106984 
L 160.730853 48.237331 
L 160.41289 48.181408 
L 159.935782 47.860969 
L 159.69731 48.080614 
L 159.657482 48.045439 
L 158.743176 46.993616 
L 158.385385 46.847527 
L 157.789041 45.798895 
L 157.590232 45.812931 
L 157.113206 46.17033 
L 156.954142 46.088087 
L 156.238562 45.06598 
L 155.880772 44.850171 
L 155.682046 44.912975 
L 155.562727 44.567128 
L 155.165192 43.296831 
L 154.767656 42.728827 
L 154.608675 42.878637 
L 154.091821 43.663745 
L 153.853267 44.252287 
L 153.694286 44.089478 
L 153.415987 43.496879 
L 153.177432 43.08448 
L 153.058196 43.343845 
L 152.779897 44.834336 
L 152.064317 49.179891 
L 151.706527 49.781178 
L 151.547545 49.696514 
L 151.269246 49.569496 
L 151.149927 49.442851 
L 150.593411 47.972926 
L 149.758512 44.454065 
L 149.360977 42.920018 
L 149.241741 42.96951 
L 149.082677 43.519024 
L 148.804378 44.440927 
L 148.645397 44.403789 
L 148.367097 44.128582 
L 148.247861 44.587678 
L 148.009307 47.152537 
L 147.651517 53.6399 
L 147.373217 57.175683 
L 147.253981 57.447428 
L 147.214236 57.402315 
L 147.055172 56.893464 
L 146.816701 55.105703 
L 146.260102 51.320559 
L 145.783076 49.258316 
L 145.266222 48.796636 
L 145.107241 48.914867 
L 144.749451 49.242296 
L 144.630132 49.20262 
L 144.431406 49.077739 
L 144.033788 49.363268 
L 143.914552 49.433849 
L 143.437526 50.405735 
L 143.397781 50.382581 
L 143.159226 50.26365 
L 142.761691 50.566246 
L 142.562882 50.496396 
L 142.284583 50.022451 
L 142.205092 50.108767 
L 141.887047 50.614841 
L 141.648493 50.492404 
L 141.131722 51.675286 
L 140.773932 52.877661 
L 140.376396 53.850318 
L 140.137842 55.085931 
L 139.700561 58.686333 
L 139.462007 61.661731 
L 138.945153 69.175667 
L 138.865663 69.252249 
L 138.825917 69.17686 
L 138.666936 68.256483 
L 138.428382 65.383793 
L 137.752547 55.908205 
L 137.474247 54.601196 
L 137.315266 54.521628 
L 137.076712 54.59642 
L 136.440622 55.879269 
L 136.162323 56.326974 
L 135.804533 56.408249 
L 135.645551 55.662548 
L 134.969717 51.65413 
L 134.770908 51.410901 
L 134.651672 51.608456 
L 133.975837 53.984143 
L 133.896346 53.779667 
L 133.697537 52.263496 
L 133.180766 48.060042 
L 132.743403 47.178531 
L 132.385613 47.130622 
L 131.829096 46.053531 
L 131.630287 45.928588 
L 130.954452 44.811 
L 130.835216 44.669431 
L 130.556917 44.192831 
L 130.079891 44.469161 
L 129.841337 44.215603 
L 129.563037 43.805935 
L 129.523292 43.84868 
L 129.364228 43.952351 
L 129.046183 43.373214 
L 128.847457 43.041137 
L 128.807711 43.077979 
L 128.529412 43.358647 
L 128.251112 43.177741 
L 127.893322 42.705526 
L 127.535532 42.779842 
L 127.416296 42.740022 
L 127.257233 42.16066 
L 127.018678 41.49349 
L 126.621143 41.632784 
L 126.263353 41.647141 
L 125.945308 41.094784 
L 125.905563 41.129312 
L 125.746582 41.147585 
L 125.547773 41.006833 
L 125.269473 41.437249 
L 125.189982 41.336456 
L 124.871938 40.449087 
L 124.673211 40.108324 
L 124.434657 40.188703 
L 124.235848 40.46128 
L 124.196103 40.422244 
L 123.838313 39.914271 
L 123.639504 39.765125 
L 123.480522 39.662246 
L 123.281796 39.932883 
L 123.241968 39.896722 
L 122.844433 39.296763 
L 122.645706 39.204223 
L 122.407152 38.710463 
L 122.367407 38.744698 
L 121.850553 39.669012 
L 121.810808 39.617535 
L 121.453018 39.112552 
L 121.333782 39.005814 
L 121.174718 38.846231 
L 120.936246 39.031309 
L 120.697692 38.853902 
L 120.459138 38.870636 
L 120.101348 38.844143 
L 119.783303 39.421397 
L 119.743558 39.365173 
L 119.266532 38.368697 
L 119.147213 38.570199 
L 118.948487 39.066951 
L 118.908741 39.04084 
L 118.709933 38.852556 
L 118.670187 38.883497 
L 118.113588 39.593992 
L 118.073843 39.552474 
L 117.755798 39.283135 
L 117.477499 39.434755 
L 117.239027 39.034573 
L 117.159536 39.13366 
L 116.960727 39.342812 
L 116.801664 39.376688 
L 116.563192 39.633327 
L 116.364383 39.394245 
L 116.165656 39.079479 
L 116.125911 39.118962 
L 115.927102 39.781284 
L 115.609057 40.510274 
L 115.489821 40.377616 
L 115.052458 39.61727 
L 114.933222 39.631912 
L 114.575432 40.036644 
L 114.416369 39.880763 
L 114.257387 39.66543 
L 114.217642 39.688722 
L 113.541807 40.548005 
L 113.263508 40.477073 
L 112.985208 40.401613 
L 112.349119 41.27653 
L 112.190137 41.035056 
L 111.911838 40.63847 
L 111.752857 40.766012 
L 111.593793 40.825645 
L 111.315493 40.287733 
L 111.236003 40.403902 
L 110.758977 41.452782 
L 110.401187 41.265153 
L 110.003651 41.774131 
L 109.884333 41.526966 
L 109.725352 41.07751 
L 109.685606 41.116446 
L 109.407307 41.978722 
L 109.327734 41.89435 
L 109.089262 41.704071 
L 108.532663 41.599649 
L 108.373682 41.454945 
L 108.333937 41.500733 
L 108.135128 41.84656 
L 108.095382 41.809668 
L 107.817083 41.529403 
L 107.538783 41.73933 
L 107.379802 41.888637 
L 107.340057 41.865208 
L 107.220738 41.858441 
L 106.982267 42.33375 
L 106.902776 42.222182 
L 106.703967 41.937472 
L 106.505158 42.184711 
L 106.306432 42.588466 
L 106.067878 43.294957 
L 106.028132 43.238803 
L 105.789578 42.652216 
L 105.749833 42.67001 
L 105.590852 42.671234 
L 105.431788 42.679022 
L 105.233061 42.949448 
L 105.193234 42.918525 
L 104.795698 42.283342 
L 104.716208 42.403177 
L 104.437908 43.359093 
L 104.398163 43.2894 
L 104.080118 42.258537 
L 104.040373 42.306666 
L 103.762073 43.010429 
L 103.682583 42.953346 
L 103.563347 42.923329 
L 103.404283 43.374489 
L 103.285047 43.595604 
L 103.245302 43.543912 
L 103.006748 42.957571 
L 102.967002 43.011884 
L 102.609212 44.080408 
L 102.529722 43.95282 
L 102.330913 43.452187 
L 102.171932 43.952337 
L 102.012868 44.220056 
L 101.853887 43.958265 
L 101.655078 43.796713 
L 101.535842 43.796605 
L 101.297288 43.502771 
L 101.257542 43.535945 
L 101.098479 43.638359 
L 100.860007 43.27129 
L 100.780434 43.406778 
L 100.581707 43.93158 
L 100.541962 43.858379 
L 100.343153 43.271337 
L 100.303408 43.324917 
L 100.025108 44.214263 
L 99.945618 44.134224 
L 99.746891 43.656284 
L 99.707064 43.673197 
L 99.468592 44.32381 
L 99.389019 44.148829 
L 99.150547 43.488078 
L 99.031229 43.732026 
L 98.713184 44.662173 
L 98.673438 44.624343 
L 98.474712 44.454234 
L 98.236158 44.560865 
L 97.679559 43.999008 
L 97.560323 44.237379 
L 97.282023 44.894048 
L 97.043551 44.768478 
L 96.725507 44.502164 
L 96.526698 44.501731 
L 96.288143 44.681741 
L 96.049672 44.291619 
L 95.850863 43.993847 
L 95.254518 45.137968 
L 95.095537 45.587327 
L 95.055792 45.56665 
L 94.896728 45.387932 
L 94.856983 45.418575 
L 94.658257 45.788433 
L 94.618429 45.734128 
L 94.459448 44.864275 
L 94.340212 44.465481 
L 94.300384 44.547958 
L 93.942594 46.382973 
L 93.823358 46.268989 
L 93.743867 46.2235 
L 93.704122 46.263758 
L 93.306587 46.860443 
L 93.147523 47.029844 
L 92.948797 47.306806 
L 92.908969 47.274322 
L 92.789733 46.834319 
L 92.591006 46.128089 
L 92.431943 46.541864 
L 92.074153 47.372528 
L 91.954917 47.179823 
L 91.716363 46.861053 
L 91.557299 46.923827 
L 91.318827 47.479191 
L 91.279082 47.430861 
L 91.080273 46.960657 
L 91.040528 47.017026 
L 90.801973 47.62844 
L 90.762228 47.610255 
L 90.603247 47.54933 
L 90.324947 48.082358 
L 90.245457 47.91666 
L 89.927412 46.519662 
L 89.847839 46.600385 
L 89.529794 47.791447 
L 89.450303 47.535206 
L 89.211832 46.457667 
L 89.172004 46.504606 
L 88.734723 47.60503 
L 88.535997 48.340848 
L 88.496251 48.330102 
L 88.376933 47.969665 
L 88.098634 47.109093 
L 87.979398 46.975053 
L 87.701098 45.824748 
L 87.621608 46.089834 
L 87.383053 47.03294 
L 87.263817 46.910076 
L 87.065008 46.727937 
L 86.945773 47.0412 
L 86.627728 48.13082 
L 86.190447 47.447119 
L 85.912148 46.283651 
L 85.713339 46.500326 
L 85.594103 46.072693 
L 85.435122 45.53842 
L 85.395294 45.620745 
L 84.838777 47.656242 
L 84.719459 47.528744 
L 84.520732 46.853518 
L 84.401414 46.560882 
L 84.361669 46.587584 
L 83.805152 47.767059 
L 83.725662 47.684649 
L 83.447362 47.170589 
L 83.288298 46.76911 
L 83.248553 46.788475 
L 83.089572 47.420693 
L 82.970254 47.699421 
L 82.930508 47.609693 
L 82.572718 45.753947 
L 82.493228 45.879189 
L 82.175183 46.823704 
L 82.135437 46.792826 
L 81.539093 46.216716 
L 81.499348 46.274895 
L 81.062067 47.224993 
L 81.022322 47.175763 
L 80.823513 46.473523 
L 80.505468 45.703496 
L 80.425977 45.77354 
L 80.187423 46.280114 
L 80.147678 46.213523 
L 79.988614 45.475792 
L 79.789888 44.521853 
L 79.750142 44.62233 
L 79.471843 46.194814 
L 79.392352 46.109017 
L 79.153798 45.737278 
L 79.034562 45.911787 
L 78.756263 46.421604 
L 78.597199 46.602356 
L 78.199664 47.388961 
L 78.159918 47.331436 
L 77.722638 46.382216 
L 77.603319 46.66062 
L 77.325102 47.413578 
L 77.046803 47.596275 
L 76.927484 47.26906 
L 76.689013 46.593993 
L 76.569777 46.835369 
L 76.251732 47.928906 
L 76.172159 47.857739 
L 75.893942 47.548801 
L 75.655387 47.340053 
L 75.337343 46.703982 
L 75.257852 46.56224 
L 75.019298 45.447129 
L 74.939807 45.581747 
L 74.542189 46.925449 
L 74.303718 47.784835 
L 74.184482 47.646225 
L 73.985673 46.834328 
L 73.866437 46.45966 
L 73.826609 46.496979 
L 73.667628 46.853473 
L 73.627883 46.820651 
L 73.429074 46.497369 
L 73.389328 46.55379 
L 73.270093 46.662479 
L 73.230347 46.626727 
L 72.991793 46.454645 
L 72.832729 46.663569 
L 72.594258 47.118476 
L 72.474939 46.755433 
L 72.156894 45.435195 
L 72.117149 45.495897 
L 71.918423 46.585325 
L 71.719614 47.15583 
L 71.282333 46.993296 
L 70.765479 45.463899 
L 70.685989 45.660731 
L 70.208963 47.489014 
L 70.169217 47.450063 
L 69.811427 46.928767 
L 69.453555 44.949822 
L 69.374064 45.190773 
L 69.016274 46.964097 
L 68.897038 47.185941 
L 68.857293 47.146084 
L 68.698229 46.309461 
L 68.578993 45.84581 
L 68.539248 45.864097 
L 68.300694 46.471961 
L 68.260948 46.420746 
L 68.022394 45.780792 
L 67.982649 45.847163 
L 67.783922 46.263474 
L 67.744177 46.215391 
L 67.465878 45.478396 
L 67.386304 45.583423 
L 67.108087 46.580973 
L 67.028597 46.483767 
L 66.670724 45.6157 
L 66.511743 45.698412 
L 65.875653 47.104085 
L 65.835908 47.040723 
L 65.637099 46.478185 
L 65.597354 46.507803 
L 65.358882 46.924897 
L 65.319054 46.86877 
L 64.921519 46.216523 
L 64.802283 46.368958 
L 64.563729 46.637531 
L 64.365002 46.563604 
L 63.689167 47.620416 
L 63.132568 47.126287 
L 63.013332 47.109396 
L 62.735033 47.633177 
L 62.655542 47.515696 
L 62.138689 46.603271 
L 62.019453 46.72991 
L 61.582172 47.502602 
L 61.502599 47.436614 
L 61.105063 47.193187 
L 60.906255 47.113526 
L 60.707528 46.542653 
L 60.667783 46.616324 
L 60.389483 48.058226 
L 60.309993 47.901626 
L 60.190674 47.642376 
L 60.150929 47.6591 
L 59.991948 47.808549 
L 59.832884 47.297577 
L 59.554667 46.758822 
L 59.435349 46.719234 
L 59.236622 47.207635 
L 58.998068 47.928543 
L 58.958323 47.899064 
L 58.799259 47.274646 
L 58.680023 46.833215 
L 58.680023 46.833215 
" clip-path="url(#p21c6026b7c)" style="fill: none; stroke: #1f77b4; stroke-width: 1.5; stroke-linecap: square"/>
   </g>
   <g id="patch_3">
    <path d="M 44.845313 354.958125 
L 44.845313 22.318125 
" style="fill: none; stroke: #000000; stroke-width: 0.8; stroke-linejoin: miter; stroke-linecap: square"/>
   </g>
   <g id="patch_4">
    <path d="M 349.208949 354.958125 
L 349.208949 22.318125 
" style="fill: none; stroke: #000000; stroke-width: 0.8; stroke-linejoin: miter; stroke-linecap: square"/>
   </g>
   <g id="patch_5">
    <path d="M 44.845313 354.958125 
L 349.208949 354.958125 
" style="fill: none; stroke: #000000; stroke-width: 0.8; stroke-linejoin: miter; stroke-linecap: square"/>
   </g>
   <g id="patch_6">
    <path d="M 44.845313 22.318125 
L 349.208949 22.318125 
" style="fill: none; stroke: #000000; stroke-width: 0.8; stroke-linejoin: miter; stroke-linecap: square"/>
   </g>
   <g id="text_17">
    <!-- Extracted Toluene Spectrum -->
    <g transform="translate(112.176818 16.318125) scale(0.12 -0.12)">
     <defs>
      <path id="DejaVuSans-45" d="M 628 4666 
L 3578 4666 
L 3578 4134 
L 1259 4134 
L 1259 2753 
L 3481 2753 
L 3481 2222 
L 1259 2222 
L 1259 531 
L 3634 531 
L 3634 0 
L 628 0 
L 628 4666 
z
" transform="scale(0.015625)"/>
      <path id="DejaVuSans-78" d="M 3513 3500 
L 2247 1797 
L 3578 0 
L 2900 0 
L 1881 1375 
L 863 0 
L 184 0 
L 1544 1831 
L 300 3500 
L 978 3500 
L 1906 2253 
L 2834 3500 
L 3513 3500 
z
" transform="scale(0.015625)"/>
      <path id="DejaVuSans-74" d="M 1172 4494 
L 1172 3500 
L 2356 3500 
L 2356 3053 
L 1172 3053 
L 1172 1153 
Q 1172 725 1289 603 
Q 1406 481 1766 481 
L 2356 481 
L 2356 0 
L 1766 0 
Q 1100 0 847 248 
Q 594 497 594 1153 
L 594 3053 
L 172 3053 
L 172 3500 
L 594 3500 
L 594 4494 
L 1172 4494 
z
" transform="scale(0.015625)"/>
      <path id="DejaVuSans-64" d="M 2906 2969 
L 2906 4863 
L 3481 4863 
L 3481 0 
L 2906 0 
L 2906 525 
Q 2725 213 2448 61 
Q 2172 -91 1784 -91 
Q 1150 -91 751 415 
Q 353 922 353 1747 
Q 353 2572 751 3078 
Q 1150 3584 1784 3584 
Q 2172 3584 2448 3432 
Q 2725 3281 2906 2969 
z
M 947 1747 
Q 947 1113 1208 752 
Q 1469 391 1925 391 
Q 2381 391 2643 752 
Q 2906 1113 2906 1747 
Q 2906 2381 2643 2742 
Q 2381 3103 1925 3103 
Q 1469 3103 1208 2742 
Q 947 2381 947 1747 
z
" transform="scale(0.015625)"/>
      <path id="DejaVuSans-54" d="M -19 4666 
L 3928 4666 
L 3928 4134 
L 2272 4134 
L 2272 0 
L 1638 0 
L 1638 4134 
L -19 4134 
L -19 4666 
z
" transform="scale(0.015625)"/>
      <path id="DejaVuSans-6f" d="M 1959 3097 
Q 1497 3097 1228 2736 
Q 959 2375 959 1747 
Q 959 1119 1226 758 
Q 1494 397 1959 397 
Q 2419 397 2687 759 
Q 2956 1122 2956 1747 
Q 2956 2369 2687 2733 
Q 2419 3097 1959 3097 
z
M 1959 3584 
Q 2709 3584 3137 3096 
Q 3566 2609 3566 1747 
Q 3566 888 3137 398 
Q 2709 -91 1959 -91 
Q 1206 -91 779 398 
Q 353 888 353 1747 
Q 353 2609 779 3096 
Q 1206 3584 1959 3584 
z
" transform="scale(0.015625)"/>
      <path id="DejaVuSans-6c" d="M 603 4863 
L 1178 4863 
L 1178 0 
L 603 0 
L 603 4863 
z
" transform="scale(0.015625)"/>
      <path id="DejaVuSans-53" d="M 3425 4513 
L 3425 3897 
Q 3066 4069 2747 4153 
Q 2428 4238 2131 4238 
Q 1616 4238 1336 4038 
Q 1056 3838 1056 3469 
Q 1056 3159 1242 3001 
Q 1428 2844 1947 2747 
L 2328 2669 
Q 3034 2534 3370 2195 
Q 3706 1856 3706 1288 
Q 3706 609 3251 259 
Q 2797 -91 1919 -91 
Q 1588 -91 1214 -16 
Q 841 59 441 206 
L 441 856 
Q 825 641 1194 531 
Q 1563 422 1919 422 
Q 2459 422 2753 634 
Q 3047 847 3047 1241 
Q 3047 1584 2836 1778 
Q 2625 1972 2144 2069 
L 1759 2144 
Q 1053 2284 737 2584 
Q 422 2884 422 3419 
Q 422 4038 858 4394 
Q 1294 4750 2059 4750 
Q 2388 4750 2728 4690 
Q 3069 4631 3425 4513 
z
" transform="scale(0.015625)"/>
      <path id="DejaVuSans-70" d="M 1159 525 
L 1159 -1331 
L 581 -1331 
L 581 3500 
L 1159 3500 
L 1159 2969 
Q 1341 3281 1617 3432 
Q 1894 3584 2278 3584 
Q 2916 3584 3314 3078 
Q 3713 2572 3713 1747 
Q 3713 922 3314 415 
Q 2916 -91 2278 -91 
Q 1894 -91 1617 61 
Q 1341 213 1159 525 
z
M 3116 1747 
Q 3116 2381 2855 2742 
Q 2594 3103 2138 3103 
Q 1681 3103 1420 2742 
Q 1159 2381 1159 1747 
Q 1159 1113 1420 752 
Q 1681 391 2138 391 
Q 2594 391 2855 752 
Q 3116 1113 3116 1747 
z
" transform="scale(0.015625)"/>
     </defs>
     <use xlink:href="#DejaVuSans-45"/>
     <use xlink:href="#DejaVuSans-78" transform="translate(63.183594 0)"/>
     <use xlink:href="#DejaVuSans-74" transform="translate(122.363281 0)"/>
     <use xlink:href="#DejaVuSans-72" transform="translate(161.572266 0)"/>
     <use xlink:href="#DejaVuSans-61" transform="translate(202.685547 0)"/>
     <use xlink:href="#DejaVuSans-63" transform="translate(263.964844 0)"/>
     <use xlink:href="#DejaVuSans-74" transform="translate(318.945312 0)"/>
     <use xlink:href="#DejaVuSans-65" transform="translate(358.154297 0)"/>
     <use xlink:href="#DejaVuSans-64" transform="translate(419.677734 0)"/>
     <use xlink:href="#DejaVuSans-20" transform="translate(483.154297 0)"/>
     <use xlink:href="#DejaVuSans-54" transform="translate(514.941406 0)"/>
     <use xlink:href="#DejaVuSans-6f" transform="translate(559.025391 0)"/>
     <use xlink:href="#DejaVuSans-6c" transform="translate(620.207031 0)"/>
     <use xlink:href="#DejaVuSans-75" transform="translate(647.990234 0)"/>
     <use xlink:href="#DejaVuSans-65" transform="translate(711.369141 0)"/>
     <use xlink:href="#DejaVuSans-6e" transform="translate(772.892578 0)"/>
     <use xlink:href="#DejaVuSans-65" transform="translate(836.271484 0)"/>
     <use xlink:href="#DejaVuSans-20" transform="translate(897.794922 0)"/>
     <use xlink:href="#DejaVuSans-53" transform="translate(929.582031 0)"/>
     <use xlink:href="#DejaVuSans-70" transform="translate(993.058594 0)"/>
     <use xlink:href="#DejaVuSans-65" transform="translate(1056.535156 0)"/>
     <use xlink:href="#DejaVuSans-63" transform="translate(1118.058594 0)"/>
     <use xlink:href="#DejaVuSans-74" transform="translate(1173.039062 0)"/>
     <use xlink:href="#DejaVuSans-72" transform="translate(1212.248047 0)"/>
     <use xlink:href="#DejaVuSans-75" transform="translate(1253.361328 0)"/>
     <use xlink:href="#DejaVuSans-6d" transform="translate(1316.740234 0)"/>
    </g>
   </g>
  </g>
  <g id="axes_2">
   <g id="patch_7">
    <path d="M 410.081676 354.958125 
L 714.445312 354.958125 
L 714.445312 22.318125 
L 410.081676 22.318125 
z
" style="fill: #ffffff"/>
   </g>
   <g id="matplotlib.axis_3">
    <g id="xtick_9">
     <g id="line2d_17">
      <g>
       <use xlink:href="#m8bfdcd4ca5" x="712.533366" y="354.958125" style="stroke: #000000; stroke-width: 0.8"/>
      </g>
     </g>
     <g id="text_18">
      <!-- 500 -->
      <g transform="translate(702.989616 369.556562) scale(0.1 -0.1)">
       <use xlink:href="#DejaVuSans-35"/>
       <use xlink:href="#DejaVuSans-30" transform="translate(63.623047 0)"/>
       <use xlink:href="#DejaVuSans-30" transform="translate(127.246094 0)"/>
      </g>
     </g>
    </g>
    <g id="xtick_10">
     <g id="line2d_18">
      <g>
       <use xlink:href="#m8bfdcd4ca5" x="671.303806" y="354.958125" style="stroke: #000000; stroke-width: 0.8"/>
      </g>
     </g>
     <g id="text_19">
      <!-- 1000 -->
      <g transform="translate(658.578806 369.556562) scale(0.1 -0.1)">
       <use xlink:href="#DejaVuSans-31"/>
       <use xlink:href="#DejaVuSans-30" transform="translate(63.623047 0)"/>
       <use xlink:href="#DejaVuSans-30" transform="translate(127.246094 0)"/>
       <use xlink:href="#DejaVuSans-30" transform="translate(190.869141 0)"/>
      </g>
     </g>
    </g>
    <g id="xtick_11">
     <g id="line2d_19">
      <g>
       <use xlink:href="#m8bfdcd4ca5" x="630.074246" y="354.958125" style="stroke: #000000; stroke-width: 0.8"/>
      </g>
     </g>
     <g id="text_20">
      <!-- 1500 -->
      <g transform="translate(617.349246 369.556562) scale(0.1 -0.1)">
       <use xlink:href="#DejaVuSans-31"/>
       <use xlink:href="#DejaVuSans-35" transform="translate(63.623047 0)"/>
       <use xlink:href="#DejaVuSans-30" transform="translate(127.246094 0)"/>
       <use xlink:href="#DejaVuSans-30" transform="translate(190.869141 0)"/>
      </g>
     </g>
    </g>
    <g id="xtick_12">
     <g id="line2d_20">
      <g>
       <use xlink:href="#m8bfdcd4ca5" x="588.844686" y="354.958125" style="stroke: #000000; stroke-width: 0.8"/>
      </g>
     </g>
     <g id="text_21">
      <!-- 2000 -->
      <g transform="translate(576.119686 369.556562) scale(0.1 -0.1)">
       <use xlink:href="#DejaVuSans-32"/>
       <use xlink:href="#DejaVuSans-30" transform="translate(63.623047 0)"/>
       <use xlink:href="#DejaVuSans-30" transform="translate(127.246094 0)"/>
       <use xlink:href="#DejaVuSans-30" transform="translate(190.869141 0)"/>
      </g>
     </g>
    </g>
    <g id="xtick_13">
     <g id="line2d_21">
      <g>
       <use xlink:href="#m8bfdcd4ca5" x="547.615126" y="354.958125" style="stroke: #000000; stroke-width: 0.8"/>
      </g>
     </g>
     <g id="text_22">
      <!-- 2500 -->
      <g transform="translate(534.890126 369.556562) scale(0.1 -0.1)">
       <use xlink:href="#DejaVuSans-32"/>
       <use xlink:href="#DejaVuSans-35" transform="translate(63.623047 0)"/>
       <use xlink:href="#DejaVuSans-30" transform="translate(127.246094 0)"/>
       <use xlink:href="#DejaVuSans-30" transform="translate(190.869141 0)"/>
      </g>
     </g>
    </g>
    <g id="xtick_14">
     <g id="line2d_22">
      <g>
       <use xlink:href="#m8bfdcd4ca5" x="506.385567" y="354.958125" style="stroke: #000000; stroke-width: 0.8"/>
      </g>
     </g>
     <g id="text_23">
      <!-- 3000 -->
      <g transform="translate(493.660567 369.556562) scale(0.1 -0.1)">
       <use xlink:href="#DejaVuSans-33"/>
       <use xlink:href="#DejaVuSans-30" transform="translate(63.623047 0)"/>
       <use xlink:href="#DejaVuSans-30" transform="translate(127.246094 0)"/>
       <use xlink:href="#DejaVuSans-30" transform="translate(190.869141 0)"/>
      </g>
     </g>
    </g>
    <g id="xtick_15">
     <g id="line2d_23">
      <g>
       <use xlink:href="#m8bfdcd4ca5" x="465.156007" y="354.958125" style="stroke: #000000; stroke-width: 0.8"/>
      </g>
     </g>
     <g id="text_24">
      <!-- 3500 -->
      <g transform="translate(452.431007 369.556562) scale(0.1 -0.1)">
       <use xlink:href="#DejaVuSans-33"/>
       <use xlink:href="#DejaVuSans-35" transform="translate(63.623047 0)"/>
       <use xlink:href="#DejaVuSans-30" transform="translate(127.246094 0)"/>
       <use xlink:href="#DejaVuSans-30" transform="translate(190.869141 0)"/>
      </g>
     </g>
    </g>
    <g id="xtick_16">
     <g id="line2d_24">
      <g>
       <use xlink:href="#m8bfdcd4ca5" x="423.926447" y="354.958125" style="stroke: #000000; stroke-width: 0.8"/>
      </g>
     </g>
     <g id="text_25">
      <!-- 4000 -->
      <g transform="translate(411.201447 369.556562) scale(0.1 -0.1)">
       <use xlink:href="#DejaVuSans-34"/>
       <use xlink:href="#DejaVuSans-30" transform="translate(63.623047 0)"/>
       <use xlink:href="#DejaVuSans-30" transform="translate(127.246094 0)"/>
       <use xlink:href="#DejaVuSans-30" transform="translate(190.869141 0)"/>
      </g>
     </g>
    </g>
    <g id="text_26">
     <!-- Wavenumbers, cm$^{-1}$ -->
     <g transform="translate(509.913494 383.756562) scale(0.1 -0.1)">
      <use xlink:href="#DejaVuSans-57" transform="translate(0 0.684375)"/>
      <use xlink:href="#DejaVuSans-61" transform="translate(98.876953 0.684375)"/>
      <use xlink:href="#DejaVuSans-76" transform="translate(160.15625 0.684375)"/>
      <use xlink:href="#DejaVuSans-65" transform="translate(219.335938 0.684375)"/>
      <use xlink:href="#DejaVuSans-6e" transform="translate(280.859375 0.684375)"/>
      <use xlink:href="#DejaVuSans-75" transform="translate(344.238281 0.684375)"/>
      <use xlink:href="#DejaVuSans-6d" transform="translate(407.617188 0.684375)"/>
      <use xlink:href="#DejaVuSans-62" transform="translate(505.029297 0.684375)"/>
      <use xlink:href="#DejaVuSans-65" transform="translate(568.505859 0.684375)"/>
      <use xlink:href="#DejaVuSans-72" transform="translate(630.029297 0.684375)"/>
      <use xlink:href="#DejaVuSans-73" transform="translate(671.142578 0.684375)"/>
      <use xlink:href="#DejaVuSans-2c" transform="translate(723.242188 0.684375)"/>
      <use xlink:href="#DejaVuSans-20" transform="translate(755.029297 0.684375)"/>
      <use xlink:href="#DejaVuSans-63" transform="translate(786.816406 0.684375)"/>
      <use xlink:href="#DejaVuSans-6d" transform="translate(841.796875 0.684375)"/>
      <use xlink:href="#DejaVuSans-2212" transform="translate(940.166016 38.965625) scale(0.7)"/>
      <use xlink:href="#DejaVuSans-31" transform="translate(998.818359 38.965625) scale(0.7)"/>
     </g>
    </g>
   </g>
   <g id="matplotlib.axis_4">
    <g id="ytick_8">
     <g id="line2d_25">
      <g>
       <use xlink:href="#m9d2b819fa9" x="410.081676" y="333.740681" style="stroke: #000000; stroke-width: 0.8"/>
      </g>
     </g>
     <g id="text_27">
      <!-- 30 -->
      <g transform="translate(390.356676 337.5399) scale(0.1 -0.1)">
       <use xlink:href="#DejaVuSans-33"/>
       <use xlink:href="#DejaVuSans-30" transform="translate(63.623047 0)"/>
      </g>
     </g>
    </g>
    <g id="ytick_9">
     <g id="line2d_26">
      <g>
       <use xlink:href="#m9d2b819fa9" x="410.081676" y="290.315303" style="stroke: #000000; stroke-width: 0.8"/>
      </g>
     </g>
     <g id="text_28">
      <!-- 40 -->
      <g transform="translate(390.356676 294.114522) scale(0.1 -0.1)">
       <use xlink:href="#DejaVuSans-34"/>
       <use xlink:href="#DejaVuSans-30" transform="translate(63.623047 0)"/>
      </g>
     </g>
    </g>
    <g id="ytick_10">
     <g id="line2d_27">
      <g>
       <use xlink:href="#m9d2b819fa9" x="410.081676" y="246.889925" style="stroke: #000000; stroke-width: 0.8"/>
      </g>
     </g>
     <g id="text_29">
      <!-- 50 -->
      <g transform="translate(390.356676 250.689144) scale(0.1 -0.1)">
       <use xlink:href="#DejaVuSans-35"/>
       <use xlink:href="#DejaVuSans-30" transform="translate(63.623047 0)"/>
      </g>
     </g>
    </g>
    <g id="ytick_11">
     <g id="line2d_28">
      <g>
       <use xlink:href="#m9d2b819fa9" x="410.081676" y="203.464548" style="stroke: #000000; stroke-width: 0.8"/>
      </g>
     </g>
     <g id="text_30">
      <!-- 60 -->
      <g transform="translate(390.356676 207.263766) scale(0.1 -0.1)">
       <defs>
        <path id="DejaVuSans-36" d="M 2113 2584 
Q 1688 2584 1439 2293 
Q 1191 2003 1191 1497 
Q 1191 994 1439 701 
Q 1688 409 2113 409 
Q 2538 409 2786 701 
Q 3034 994 3034 1497 
Q 3034 2003 2786 2293 
Q 2538 2584 2113 2584 
z
M 3366 4563 
L 3366 3988 
Q 3128 4100 2886 4159 
Q 2644 4219 2406 4219 
Q 1781 4219 1451 3797 
Q 1122 3375 1075 2522 
Q 1259 2794 1537 2939 
Q 1816 3084 2150 3084 
Q 2853 3084 3261 2657 
Q 3669 2231 3669 1497 
Q 3669 778 3244 343 
Q 2819 -91 2113 -91 
Q 1303 -91 875 529 
Q 447 1150 447 2328 
Q 447 3434 972 4092 
Q 1497 4750 2381 4750 
Q 2619 4750 2861 4703 
Q 3103 4656 3366 4563 
z
" transform="scale(0.015625)"/>
       </defs>
       <use xlink:href="#DejaVuSans-36"/>
       <use xlink:href="#DejaVuSans-30" transform="translate(63.623047 0)"/>
      </g>
     </g>
    </g>
    <g id="ytick_12">
     <g id="line2d_29">
      <g>
       <use xlink:href="#m9d2b819fa9" x="410.081676" y="160.03917" style="stroke: #000000; stroke-width: 0.8"/>
      </g>
     </g>
     <g id="text_31">
      <!-- 70 -->
      <g transform="translate(390.356676 163.838389) scale(0.1 -0.1)">
       <use xlink:href="#DejaVuSans-37"/>
       <use xlink:href="#DejaVuSans-30" transform="translate(63.623047 0)"/>
      </g>
     </g>
    </g>
    <g id="ytick_13">
     <g id="line2d_30">
      <g>
       <use xlink:href="#m9d2b819fa9" x="410.081676" y="116.613792" style="stroke: #000000; stroke-width: 0.8"/>
      </g>
     </g>
     <g id="text_32">
      <!-- 80 -->
      <g transform="translate(390.356676 120.413011) scale(0.1 -0.1)">
       <defs>
        <path id="DejaVuSans-38" d="M 2034 2216 
Q 1584 2216 1326 1975 
Q 1069 1734 1069 1313 
Q 1069 891 1326 650 
Q 1584 409 2034 409 
Q 2484 409 2743 651 
Q 3003 894 3003 1313 
Q 3003 1734 2745 1975 
Q 2488 2216 2034 2216 
z
M 1403 2484 
Q 997 2584 770 2862 
Q 544 3141 544 3541 
Q 544 4100 942 4425 
Q 1341 4750 2034 4750 
Q 2731 4750 3128 4425 
Q 3525 4100 3525 3541 
Q 3525 3141 3298 2862 
Q 3072 2584 2669 2484 
Q 3125 2378 3379 2068 
Q 3634 1759 3634 1313 
Q 3634 634 3220 271 
Q 2806 -91 2034 -91 
Q 1263 -91 848 271 
Q 434 634 434 1313 
Q 434 1759 690 2068 
Q 947 2378 1403 2484 
z
M 1172 3481 
Q 1172 3119 1398 2916 
Q 1625 2713 2034 2713 
Q 2441 2713 2670 2916 
Q 2900 3119 2900 3481 
Q 2900 3844 2670 4047 
Q 2441 4250 2034 4250 
Q 1625 4250 1398 4047 
Q 1172 3844 1172 3481 
z
" transform="scale(0.015625)"/>
       </defs>
       <use xlink:href="#DejaVuSans-38"/>
       <use xlink:href="#DejaVuSans-30" transform="translate(63.623047 0)"/>
      </g>
     </g>
    </g>
    <g id="ytick_14">
     <g id="line2d_31">
      <g>
       <use xlink:href="#m9d2b819fa9" x="410.081676" y="73.188415" style="stroke: #000000; stroke-width: 0.8"/>
      </g>
     </g>
     <g id="text_33">
      <!-- 90 -->
      <g transform="translate(390.356676 76.987633) scale(0.1 -0.1)">
       <defs>
        <path id="DejaVuSans-39" d="M 703 97 
L 703 672 
Q 941 559 1184 500 
Q 1428 441 1663 441 
Q 2288 441 2617 861 
Q 2947 1281 2994 2138 
Q 2813 1869 2534 1725 
Q 2256 1581 1919 1581 
Q 1219 1581 811 2004 
Q 403 2428 403 3163 
Q 403 3881 828 4315 
Q 1253 4750 1959 4750 
Q 2769 4750 3195 4129 
Q 3622 3509 3622 2328 
Q 3622 1225 3098 567 
Q 2575 -91 1691 -91 
Q 1453 -91 1209 -44 
Q 966 3 703 97 
z
M 1959 2075 
Q 2384 2075 2632 2365 
Q 2881 2656 2881 3163 
Q 2881 3666 2632 3958 
Q 2384 4250 1959 4250 
Q 1534 4250 1286 3958 
Q 1038 3666 1038 3163 
Q 1038 2656 1286 2365 
Q 1534 2075 1959 2075 
z
" transform="scale(0.015625)"/>
       </defs>
       <use xlink:href="#DejaVuSans-39"/>
       <use xlink:href="#DejaVuSans-30" transform="translate(63.623047 0)"/>
      </g>
     </g>
    </g>
    <g id="ytick_15">
     <g id="line2d_32">
      <g>
       <use xlink:href="#m9d2b819fa9" x="410.081676" y="29.763037" style="stroke: #000000; stroke-width: 0.8"/>
      </g>
     </g>
     <g id="text_34">
      <!-- 100 -->
      <g transform="translate(383.994176 33.562256) scale(0.1 -0.1)">
       <use xlink:href="#DejaVuSans-31"/>
       <use xlink:href="#DejaVuSans-30" transform="translate(63.623047 0)"/>
       <use xlink:href="#DejaVuSans-30" transform="translate(127.246094 0)"/>
      </g>
     </g>
    </g>
    <g id="text_35">
     <!-- Transmittance, % -->
     <g transform="translate(377.914489 232.014687) rotate(-90) scale(0.1 -0.1)">
      <defs>
       <path id="DejaVuSans-69" d="M 603 3500 
L 1178 3500 
L 1178 0 
L 603 0 
L 603 3500 
z
M 603 4863 
L 1178 4863 
L 1178 4134 
L 603 4134 
L 603 4863 
z
" transform="scale(0.015625)"/>
       <path id="DejaVuSans-25" d="M 4653 2053 
Q 4381 2053 4226 1822 
Q 4072 1591 4072 1178 
Q 4072 772 4226 539 
Q 4381 306 4653 306 
Q 4919 306 5073 539 
Q 5228 772 5228 1178 
Q 5228 1588 5073 1820 
Q 4919 2053 4653 2053 
z
M 4653 2450 
Q 5147 2450 5437 2106 
Q 5728 1763 5728 1178 
Q 5728 594 5436 251 
Q 5144 -91 4653 -91 
Q 4153 -91 3862 251 
Q 3572 594 3572 1178 
Q 3572 1766 3864 2108 
Q 4156 2450 4653 2450 
z
M 1428 4353 
Q 1159 4353 1004 4120 
Q 850 3888 850 3481 
Q 850 3069 1003 2837 
Q 1156 2606 1428 2606 
Q 1700 2606 1854 2837 
Q 2009 3069 2009 3481 
Q 2009 3884 1853 4118 
Q 1697 4353 1428 4353 
z
M 4250 4750 
L 4750 4750 
L 1831 -91 
L 1331 -91 
L 4250 4750 
z
M 1428 4750 
Q 1922 4750 2215 4408 
Q 2509 4066 2509 3481 
Q 2509 2891 2217 2550 
Q 1925 2209 1428 2209 
Q 931 2209 642 2551 
Q 353 2894 353 3481 
Q 353 4063 643 4406 
Q 934 4750 1428 4750 
z
" transform="scale(0.015625)"/>
      </defs>
      <use xlink:href="#DejaVuSans-54"/>
      <use xlink:href="#DejaVuSans-72" transform="translate(46.333984 0)"/>
      <use xlink:href="#DejaVuSans-61" transform="translate(87.447266 0)"/>
      <use xlink:href="#DejaVuSans-6e" transform="translate(148.726562 0)"/>
      <use xlink:href="#DejaVuSans-73" transform="translate(212.105469 0)"/>
      <use xlink:href="#DejaVuSans-6d" transform="translate(264.205078 0)"/>
      <use xlink:href="#DejaVuSans-69" transform="translate(361.617188 0)"/>
      <use xlink:href="#DejaVuSans-74" transform="translate(389.400391 0)"/>
      <use xlink:href="#DejaVuSans-74" transform="translate(428.609375 0)"/>
      <use xlink:href="#DejaVuSans-61" transform="translate(467.818359 0)"/>
      <use xlink:href="#DejaVuSans-6e" transform="translate(529.097656 0)"/>
      <use xlink:href="#DejaVuSans-63" transform="translate(592.476562 0)"/>
      <use xlink:href="#DejaVuSans-65" transform="translate(647.457031 0)"/>
      <use xlink:href="#DejaVuSans-2c" transform="translate(708.980469 0)"/>
      <use xlink:href="#DejaVuSans-20" transform="translate(740.767578 0)"/>
      <use xlink:href="#DejaVuSans-25" transform="translate(772.554688 0)"/>
     </g>
    </g>
   </g>
   <g id="line2d_33">
    <path d="M 700.610602 74.713948 
L 699.417954 82.130047 
L 698.980649 86.918824 
L 698.781873 91.290804 
L 697.708494 119.39458 
L 697.509718 125.349936 
L 697.310942 138.714965 
L 697.072413 173.625321 
L 696.595354 285.659278 
L 696.515847 275.316829 
L 695.840012 115.137764 
L 695.561729 104.503149 
L 695.521967 104.243639 
L 695.482213 104.280724 
L 695.362953 106.054564 
L 695.164177 113.96111 
L 694.885894 134.625988 
L 694.607611 170.6466 
L 694.32932 237.153565 
L 693.892022 339.838125 
L 693.812507 334.627644 
L 693.653493 298.851169 
L 692.977658 117.739943 
L 692.659613 88.445661 
L 692.301823 75.004464 
L 691.78501 65.777005 
L 691.347705 61.008942 
L 691.109175 59.955616 
L 690.473094 58.94945 
L 689.876774 59.345968 
L 689.598483 60.033956 
L 689.399715 61.10691 
L 689.041917 65.003947 
L 688.96241 64.677866 
L 688.366082 58.679562 
L 688.008292 58.364424 
L 687.690247 58.314615 
L 687.411964 58.497218 
L 687.133681 58.592233 
L 686.895152 58.679431 
L 686.696376 58.759508 
L 686.338586 58.598052 
L 686.100056 58.723725 
L 685.90128 58.762374 
L 685.662751 59.194066 
L 684.629126 61.674523 
L 684.350834 62.257509 
L 684.231574 62.221943 
L 683.993044 61.645993 
L 683.118433 59.551066 
L 682.72089 59.431255 
L 682.363091 60.058013 
L 681.846279 60.747174 
L 681.687256 60.671049 
L 681.329466 60.403332 
L 681.170444 60.544638 
L 680.852407 61.318131 
L 680.613878 62.642301 
L 680.375348 65.418399 
L 679.977796 71.795155 
L 679.898289 71.540031 
L 679.699513 68.227152 
L 679.341715 63.101698 
L 679.063432 61.796114 
L 678.705642 61.147817 
L 677.990053 60.425566 
L 677.672008 60.586674 
L 677.433479 61.002906 
L 677.115442 61.567393 
L 676.95642 61.400118 
L 676.638383 61.052585 
L 676.320347 61.155025 
L 675.286713 62.283825 
L 674.968677 62.58194 
L 674.571125 63.279786 
L 674.173581 64.015064 
L 673.974805 64.002558 
L 673.776029 64.010591 
L 673.338724 64.437202 
L 672.742404 65.154329 
L 672.18583 64.902853 
L 671.907547 65.109948 
L 671.549757 65.603304 
L 671.112418 66.673696 
L 671.072673 66.655674 
L 670.675138 66.305579 
L 670.476411 66.647597 
L 670.237857 67.479106 
L 669.919812 69.346789 
L 669.641513 72.492566 
L 669.363213 77.776697 
L 669.204232 85.021179 
L 668.846442 110.65887 
L 668.806696 109.267521 
L 668.329588 81.426078 
L 668.289843 81.497513 
L 667.932053 83.195706 
L 667.892307 83.11246 
L 667.733244 81.98835 
L 667.375454 76.759935 
L 666.898428 70.784038 
L 666.580383 68.928689 
L 666.302083 68.264932 
L 666.143102 68.313742 
L 665.984038 68.646381 
L 665.785312 69.635871 
L 665.507012 72.551364 
L 665.228713 78.258718 
L 664.950413 88.738044 
L 664.632368 99.992729 
L 664.552878 98.071721 
L 664.274578 79.569948 
L 663.996279 68.275745 
L 663.718062 64.777049 
L 663.439762 63.476763 
L 663.280699 63.384918 
L 663.121717 63.695584 
L 662.883163 64.852523 
L 662.565118 66.596182 
L 662.485628 66.319866 
L 662.286901 64.155285 
L 661.889283 60.294899 
L 661.571239 59.250562 
L 661.213448 58.691851 
L 660.060588 58.234365 
L 659.663052 58.456268 
L 659.185944 59.056494 
L 658.828154 60.197018 
L 658.470363 61.175001 
L 658.351127 61.056102 
L 657.476484 59.373847 
L 657.317502 59.506685 
L 657.158439 59.963563 
L 656.999458 61.249649 
L 656.721158 66.402982 
L 656.601922 67.456091 
L 656.562177 67.230713 
L 656.403113 64.038644 
L 656.124814 59.224767 
L 655.886342 58.327816 
L 655.767024 58.336067 
L 655.568297 58.672396 
L 654.534672 61.41688 
L 654.296118 62.694542 
L 654.017818 64.203096 
L 653.938328 63.955571 
L 653.620283 61.9217 
L 653.540792 61.990964 
L 653.461302 62.032696 
L 653.381729 61.781914 
L 652.984193 58.875367 
L 652.904703 59.018323 
L 652.467422 60.121588 
L 652.348104 60.015239 
L 652.149377 59.423916 
L 651.314479 56.249868 
L 650.956688 56.048114 
L 650.718217 55.952882 
L 650.479662 55.466431 
L 650.121872 54.884748 
L 649.485783 54.602917 
L 648.213603 54.766371 
L 647.259469 54.9313 
L 646.901679 55.260769 
L 646.265589 55.793337 
L 645.987372 56.10448 
L 645.470518 57.308492 
L 645.430773 57.2698 
L 644.834429 56.580943 
L 644.397148 56.869505 
L 644.118848 57.380274 
L 643.800804 57.81518 
L 643.562332 58.01333 
L 643.124969 58.955617 
L 641.375763 65.044072 
L 641.057718 66.273401 
L 640.898737 66.76667 
L 640.660183 68.64777 
L 640.421629 72.588623 
L 640.103584 78.105036 
L 640.024093 77.466466 
L 639.745794 70.546632 
L 639.427749 65.556057 
L 639.109704 62.853956 
L 638.791742 61.995002 
L 638.553188 61.665534 
L 638.155652 61.532956 
L 637.241263 63.311269 
L 636.923218 64.80241 
L 636.446192 66.530479 
L 635.810103 68.637956 
L 635.611294 69.615244 
L 635.174013 73.68646 
L 634.776477 80.458778 
L 633.862088 94.836617 
L 633.623534 96.789977 
L 633.464553 96.743425 
L 633.345317 96.437233 
L 633.146508 95.062602 
L 632.907954 90.915349 
L 632.152628 78.464164 
L 631.794838 75.379355 
L 631.675602 75.085669 
L 631.635775 75.107339 
L 631.516539 75.63031 
L 631.357557 77.909622 
L 631.158749 84.74964 
L 630.920277 101.729744 
L 630.681723 141.64887 
L 630.522659 164.260855 
L 630.482914 164.241748 
L 630.363678 145.659073 
L 630.005888 76.810916 
L 629.767333 66.789077 
L 629.369798 60.442719 
L 629.051753 58.945716 
L 628.932517 58.858214 
L 628.733708 59.108865 
L 628.574727 59.63657 
L 628.336173 61.515022 
L 628.177109 62.409975 
L 628.137364 62.372543 
L 628.018128 61.515803 
L 627.620593 57.437248 
L 627.501274 57.414146 
L 627.382038 57.460394 
L 627.143484 57.117898 
L 627.103739 57.168272 
L 626.944758 57.411801 
L 626.905012 57.384226 
L 626.785694 56.96287 
L 626.427904 55.554498 
L 626.189432 55.200624 
L 625.911133 55.316353 
L 625.672578 55.386224 
L 625.553342 55.517977 
L 625.314788 56.23632 
L 625.235298 56.10739 
L 625.076234 55.629928 
L 625.036489 55.641479 
L 624.877508 56.078859 
L 624.161927 58.415579 
L 623.963118 58.556494 
L 623.843882 58.159977 
L 623.565583 57.102091 
L 623.366774 57.051978 
L 623.207793 57.405939 
L 622.889748 58.119287 
L 622.651194 58.42244 
L 622.492213 59.057319 
L 622.293404 60.942675 
L 622.054849 65.269754 
L 621.856123 73.179556 
L 621.498333 91.945876 
L 621.458588 91.223756 
L 621.299524 80.317906 
L 620.981479 59.111731 
L 620.743007 55.861038 
L 620.345389 54.832811 
L 620.265899 54.884618 
L 619.947854 55.486059 
L 619.908109 55.438899 
L 619.709382 54.866466 
L 618.755248 50.866164 
L 618.437203 50.366207 
L 618.317885 50.418188 
L 618.039667 50.849966 
L 617.999922 50.809667 
L 617.840859 50.638354 
L 617.801113 50.668795 
L 617.562559 51.2827 
L 617.483068 51.14439 
L 617.204769 50.32643 
L 616.966215 50.283439 
L 616.767488 50.377324 
L 616.608507 50.01342 
L 616.449443 49.810406 
L 616.250634 50.205664 
L 616.131399 50.271887 
L 616.091653 50.239145 
L 615.892844 50.170446 
L 615.654373 50.365165 
L 615.614627 50.324866 
L 615.376073 50.130234 
L 615.217009 50.26051 
L 615.018283 50.63006 
L 614.978538 50.595363 
L 614.700238 49.69763 
L 614.620747 49.764592 
L 614.382193 49.891003 
L 614.262957 50.007731 
L 613.666613 51.30311 
L 613.626868 51.283872 
L 613.428059 50.891872 
L 613.388313 50.932691 
L 612.911287 52.055628 
L 612.593243 53.292122 
L 612.116134 55.449843 
L 611.877662 56.060794 
L 611.003019 59.646124 
L 610.605483 61.491485 
L 610.446419 61.651638 
L 610.327184 61.327554 
L 609.134577 56.260812 
L 608.140698 53.523406 
L 607.584098 52.694372 
L 607.345544 52.229634 
L 606.629964 51.599184 
L 606.431238 51.729808 
L 605.795148 52.969819 
L 605.198804 55.246482 
L 605.159058 55.223162 
L 604.999995 54.852266 
L 604.602459 52.914365 
L 604.165178 51.293556 
L 603.847134 50.892176 
L 603.489344 50.68812 
L 603.290535 50.654856 
L 602.495464 49.818613 
L 602.097928 49.95397 
L 601.938865 50.258512 
L 601.581075 51.053197 
L 601.382348 51.673789 
L 601.064303 53.425004 
L 600.666768 55.391913 
L 600.587195 55.461828 
L 600.547449 55.417491 
L 600.388468 54.812488 
L 599.951188 52.840238 
L 599.633143 52.718082 
L 598.837989 51.219386 
L 598.321218 49.793817 
L 598.122409 49.722339 
L 597.923683 49.543514 
L 597.526065 49.155682 
L 597.287593 49.266807 
L 597.088784 49.255343 
L 596.691249 48.960571 
L 596.412949 49.045207 
L 596.094904 49.125935 
L 595.896178 49.28218 
L 595.299834 50.234107 
L 595.061279 50.559841 
L 594.862553 50.778401 
L 594.504763 51.658243 
L 593.987909 54.548592 
L 593.630119 56.052674 
L 593.510883 55.824604 
L 593.232583 54.54425 
L 592.835048 53.166797 
L 592.517003 52.609606 
L 592.278449 52.385878 
L 591.682105 51.384228 
L 591.324314 50.333986 
L 590.847288 49.750609 
L 590.608734 49.444026 
L 589.455873 50.069699 
L 589.018593 49.415148 
L 588.620975 49.666842 
L 588.104203 49.190161 
L 587.706668 49.358739 
L 587.547604 49.432431 
L 587.22956 48.973729 
L 587.150069 49.065444 
L 586.95126 49.205186 
L 586.315253 48.981546 
L 586.116444 49.082032 
L 585.361118 48.347535 
L 584.844265 48.355829 
L 584.645538 48.364341 
L 584.16843 47.977247 
L 583.929875 47.878845 
L 583.691404 47.820308 
L 583.492595 47.821133 
L 583.214295 47.976509 
L 582.856505 47.823391 
L 582.697524 47.7728 
L 582.339734 47.535437 
L 581.981944 47.643914 
L 581.703644 47.540127 
L 581.147045 47.662413 
L 580.908573 47.521758 
L 580.073675 47.717824 
L 579.835203 47.691465 
L 579.517158 47.588546 
L 579.278604 47.851313 
L 578.801578 47.575345 
L 578.324469 47.756733 
L 577.926934 47.658852 
L 577.68838 47.791039 
L 577.41008 47.677351 
L 576.972799 48.211223 
L 576.575264 48.134186 
L 576.376455 47.97095 
L 576.217474 48.268675 
L 575.939174 48.668449 
L 575.541639 48.415757 
L 575.223594 48.152382 
L 575.024785 48.321437 
L 574.905549 48.321393 
L 574.468269 47.940335 
L 574.070733 48.17049 
L 573.792434 48.326083 
L 573.63337 48.292385 
L 573.355153 47.971254 
L 573.315325 48.020368 
L 573.076853 48.275406 
L 572.082974 47.348274 
L 571.963738 47.390527 
L 571.725184 47.589241 
L 571.049349 47.209226 
L 570.810794 47.00999 
L 570.611985 47.073131 
L 570.254195 47.223686 
L 569.737424 47.142611 
L 569.49887 46.908375 
L 569.14108 47.035133 
L 568.78329 46.85444 
L 568.346009 46.756429 
L 568.107455 46.9911 
L 567.908646 47.057802 
L 567.630429 47.081903 
L 567.232811 47.127543 
L 566.596804 46.59784 
L 566.239013 46.678698 
L 565.682414 46.449412 
L 565.205388 46.397215 
L 565.006579 46.336506 
L 564.768025 46.376284 
L 564.251254 46.244097 
L 563.456101 47.132102 
L 563.01882 47.999177 
L 562.780266 48.040648 
L 562.621284 48.098838 
L 561.706895 49.366989 
L 561.30936 50.046423 
L 561.070806 49.98515 
L 560.59378 49.616034 
L 560.394971 48.954709 
L 560.116754 47.878454 
L 560.037263 48.051548 
L 559.24211 51.189205 
L 559.083129 51.170011 
L 558.88432 50.73706 
L 558.168739 48.543644 
L 557.453159 46.029575 
L 557.055624 45.576084 
L 556.817069 45.677656 
L 556.618261 45.605961 
L 556.220725 45.415671 
L 555.505145 45.419666 
L 554.908801 45.648865 
L 553.994494 45.23133 
L 553.795685 45.15564 
L 553.47764 45.163413 
L 553.080105 45.140788 
L 552.84155 45.052374 
L 552.40427 44.910634 
L 552.165715 44.975034 
L 551.927244 44.959096 
L 551.41039 44.824304 
L 550.098465 44.950368 
L 549.502203 44.714829 
L 549.223904 44.785829 
L 547.872234 44.825259 
L 547.673425 44.801375 
L 547.196399 44.59137 
L 546.878354 44.668928 
L 546.600055 44.681044 
L 546.202519 44.648388 
L 546.00371 44.691683 
L 545.685666 44.615689 
L 545.447194 44.622723 
L 545.248385 44.672532 
L 545.089404 44.678265 
L 544.731613 44.413457 
L 544.413569 44.566618 
L 541.749974 44.298857 
L 540.835585 45.001566 
L 540.597031 45.244401 
L 540.43805 45.126371 
L 539.841705 44.352183 
L 539.285106 44.256691 
L 539.006889 44.354615 
L 537.893691 43.857785 
L 537.535901 43.804329 
L 537.297429 43.790389 
L 536.820321 43.83021 
L 535.587969 43.618555 
L 535.30967 43.585421 
L 534.951879 43.437949 
L 533.242419 43.310322 
L 532.884629 43.234718 
L 532.646075 43.2421 
L 532.367776 43.141136 
L 531.97024 43.244532 
L 531.61245 43.267417 
L 531.175169 43.284744 
L 530.380016 43.227032 
L 529.664436 43.483372 
L 529.147664 43.954494 
L 528.90911 44.364256 
L 528.352511 45.639789 
L 528.233275 45.556413 
L 527.994721 44.941509 
L 527.47795 43.653686 
L 527.19965 43.466262 
L 526.325089 43.25756 
L 525.49019 43.361781 
L 525.172145 43.408029 
L 524.734865 43.513856 
L 524.337329 43.552679 
L 523.144641 43.850143 
L 521.594244 44.526059 
L 521.07739 44.793125 
L 520.7196 45.087766 
L 520.401555 45.252869 
L 520.163084 45.655205 
L 519.28844 47.907115 
L 518.811331 50.339674 
L 517.897025 55.751302 
L 517.618725 56.211046 
L 517.22119 56.410586 
L 516.823654 56.301414 
L 516.5851 55.837979 
L 516.267055 54.675785 
L 515.59122 52.140438 
L 515.273175 51.590542 
L 514.994876 51.578036 
L 514.835895 51.797291 
L 514.59734 52.787563 
L 514.199805 55.534348 
L 513.842015 60.116117 
L 513.16618 69.558096 
L 513.086689 69.75616 
L 513.046862 69.737878 
L 512.927626 69.274702 
L 512.689154 67.086628 
L 512.013319 60.472031 
L 511.695274 59.163581 
L 511.496465 59.098182 
L 511.218166 59.216256 
L 510.860376 59.396949 
L 510.423095 59.161583 
L 510.184541 58.653289 
L 509.628024 56.748435 
L 509.270152 55.693416 
L 509.150916 55.753951 
L 508.793126 56.671529 
L 508.713635 56.574734 
L 508.39559 56.244527 
L 507.998055 56.086024 
L 507.7595 55.570435 
L 507.40171 54.887267 
L 507.163156 54.900902 
L 506.924684 55.219384 
L 506.725875 55.861038 
L 505.890977 59.318479 
L 505.69225 60.132445 
L 505.453696 62.287733 
L 505.135651 67.603564 
L 504.777861 77.575898 
L 504.34058 89.213942 
L 504.26109 89.559565 
L 504.221345 89.477404 
L 504.102026 88.31317 
L 503.863554 82.945706 
L 503.028656 61.385093 
L 502.750356 59.33915 
L 502.55163 58.982931 
L 502.392566 58.995481 
L 502.233585 59.377103 
L 501.358941 62.381097 
L 501.239705 62.229022 
L 501.080724 61.425261 
L 500.84217 58.594187 
L 500.404807 53.637137 
L 500.12659 52.439248 
L 500.047017 52.485192 
L 499.927781 53.005732 
L 499.649481 55.726375 
L 499.331436 58.281829 
L 499.251946 58.069609 
L 499.092965 56.058145 
L 498.49662 46.752608 
L 498.258066 45.975945 
L 498.059339 45.979028 
L 497.820785 46.011554 
L 497.661722 45.637575 
L 496.906396 43.268503 
L 496.508861 42.551984 
L 496.07158 41.679916 
L 495.594471 41.362824 
L 495.236681 41.295254 
L 494.839146 41.160201 
L 494.560846 41.254217 
L 494.203056 41.118165 
L 493.924757 41.0608 
L 493.527221 41.016463 
L 493.328495 41.032747 
L 493.01045 40.93174 
L 492.692405 41.089114 
L 492.215297 40.825999 
L 492.01657 40.784832 
L 491.817761 40.742796 
L 491.579207 40.734328 
L 491.380481 40.643656 
L 491.141926 40.593152 
L 490.704646 40.817488 
L 490.545664 40.899822 
L 489.790256 40.294907 
L 489.511957 40.414978 
L 489.074676 40.245098 
L 488.796377 40.350187 
L 488.319351 40.39066 
L 487.842325 40.320398 
L 487.683261 40.306936 
L 487.444707 40.357657 
L 487.206235 40.275409 
L 486.570145 40.480377 
L 486.331591 40.365473 
L 485.973801 40.261165 
L 485.496775 40.275669 
L 485.059412 40.269242 
L 484.701622 40.117948 
L 484.46315 40.164414 
L 484.105277 40.010427 
L 483.866806 39.92818 
L 483.628251 40.199675 
L 483.46927 40.237455 
L 482.912671 39.944073 
L 482.236836 40.01655 
L 481.75981 39.919625 
L 480.646612 39.846062 
L 480.447886 39.873246 
L 479.931032 40.028579 
L 479.334687 39.739409 
L 479.05647 39.914891 
L 478.301145 39.715439 
L 478.062591 39.651126 
L 476.90973 39.485545 
L 476.671175 39.581906 
L 476.392876 39.493882 
L 476.035086 39.663111 
L 475.876022 39.563102 
L 475.557977 39.248138 
L 475.041206 39.42019 
L 474.882142 39.423316 
L 474.564098 39.629587 
L 472.13914 39.231333 
L 471.86084 39.240018 
L 471.622286 39.013641 
L 471.185005 39.415456 
L 471.14526 39.378154 
L 470.787387 39.179439 
L 470.111552 39.274411 
L 469.714017 39.463007 
L 469.515291 39.199632 
L 469.276736 38.992189 
L 468.998437 39.031793 
L 468.79971 38.986674 
L 468.402092 39.077476 
L 468.004557 38.969347 
L 467.686512 39.082905 
L 467.44804 39.061018 
L 467.129996 39.181046 
L 466.414415 38.915543 
L 465.420536 38.840982 
L 465.221727 38.735371 
L 464.824191 38.762425 
L 464.188102 38.741972 
L 463.989375 38.869425 
L 463.512267 38.660897 
L 463.035241 38.775062 
L 462.756941 38.708621 
L 462.438896 38.443987 
L 461.922043 38.823004 
L 461.047481 38.724558 
L 460.769182 38.869121 
L 460.530627 38.705495 
L 460.292156 38.536657 
L 460.053601 38.784138 
L 459.735557 38.949762 
L 459.019976 38.555243 
L 458.701931 38.662721 
L 458.503205 38.689254 
L 457.906861 38.931263 
L 457.588816 38.707015 
L 457.19128 38.982766 
L 456.594936 38.716612 
L 456.316636 38.742797 
L 455.521566 39.028449 
L 455.362502 39.004261 
L 455.12403 38.869773 
L 454.567431 39.205104 
L 454.13015 38.692206 
L 453.891596 38.639835 
L 453.05678 39.510645 
L 452.579672 39.244794 
L 452.142391 38.74436 
L 451.625537 38.725774 
L 451.188256 39.208795 
L 450.989448 39.163068 
L 450.830466 39.2299 
L 450.114886 38.549598 
L 449.876332 38.810497 
L 449.558287 39.132019 
L 449.399306 38.882844 
L 449.160752 38.472648 
L 448.763216 38.48802 
L 448.405426 38.534659 
L 447.928318 38.946853 
L 447.809082 38.824654 
L 447.491037 38.335424 
L 447.133247 38.538394 
L 446.775457 38.889445 
L 446.57673 38.810627 
L 445.781577 39.413676 
L 445.741832 39.333295 
L 445.503277 38.860263 
L 445.463532 38.875722 
L 445.145487 39.231941 
L 445.105742 39.193379 
L 444.787697 38.727511 
L 444.747952 38.776148 
L 444.588971 38.961922 
L 444.549143 38.934346 
L 444.191435 38.466091 
L 443.754072 38.646697 
L 443.555346 38.5694 
L 443.316791 38.437343 
L 443.038492 38.496184 
L 442.839683 38.301856 
L 442.561466 38.041217 
L 442.163848 38.278363 
L 441.885631 38.206059 
L 440.573706 38.506737 
L 440.374897 38.65447 
L 439.659317 38.261166 
L 439.341272 38.555199 
L 439.182291 38.559368 
L 438.864246 38.822309 
L 438.267902 38.628458 
L 437.790876 38.737456 
L 437.552322 38.971605 
L 437.393258 38.666629 
L 437.194532 38.435345 
L 436.995723 38.364432 
L 436.717506 38.266768 
L 436.558442 38.419669 
L 436.200652 39.185606 
L 436.160906 39.137751 
L 435.723626 38.400518 
L 435.524817 38.385015 
L 435.167027 38.623898 
L 434.968218 38.576044 
L 434.689918 38.585945 
L 434.252638 38.397739 
L 433.815357 38.376504 
L 433.457567 38.608005 
L 433.139522 38.354487 
L 432.980541 38.376504 
L 432.662496 38.044691 
L 432.622668 38.084729 
L 432.066152 38.899042 
L 432.026406 38.868991 
L 431.827597 38.420103 
L 431.549298 37.993666 
L 431.271081 37.88102 
L 431.072272 38.046515 
L 430.793972 38.362 
L 429.203831 37.967263 
L 428.408677 37.983591 
L 428.289441 37.972735 
L 427.891906 37.447375 
L 427.454543 37.643527 
L 427.017262 37.825523 
L 426.540236 37.551205 
L 425.665592 38.061236 
L 425.228311 37.847626 
L 424.989757 37.909985 
L 424.751203 37.68743 
L 424.711458 37.721476 
L 424.472986 37.964745 
L 424.433241 37.928137 
L 424.115196 37.629674 
L 423.916387 37.739541 
L 423.916387 37.739541 
" clip-path="url(#p5fc5a4d3ae)" style="fill: none; stroke: #1f77b4; stroke-width: 1.5; stroke-linecap: square"/>
   </g>
   <g id="patch_8">
    <path d="M 410.081676 354.958125 
L 410.081676 22.318125 
" style="fill: none; stroke: #000000; stroke-width: 0.8; stroke-linejoin: miter; stroke-linecap: square"/>
   </g>
   <g id="patch_9">
    <path d="M 714.445312 354.958125 
L 714.445312 22.318125 
" style="fill: none; stroke: #000000; stroke-width: 0.8; stroke-linejoin: miter; stroke-linecap: square"/>
   </g>
   <g id="patch_10">
    <path d="M 410.081676 354.958125 
L 714.445312 354.958125 
" style="fill: none; stroke: #000000; stroke-width: 0.8; stroke-linejoin: miter; stroke-linecap: square"/>
   </g>
   <g id="patch_11">
    <path d="M 410.081676 22.318125 
L 714.445312 22.318125 
" style="fill: none; stroke: #000000; stroke-width: 0.8; stroke-linejoin: miter; stroke-linecap: square"/>
   </g>
   <g id="text_36">
    <!-- Pure Toluene Spectrum -->
    <g transform="translate(493.064744 16.318125) scale(0.12 -0.12)">
     <defs>
      <path id="DejaVuSans-50" d="M 1259 4147 
L 1259 2394 
L 2053 2394 
Q 2494 2394 2734 2622 
Q 2975 2850 2975 3272 
Q 2975 3691 2734 3919 
Q 2494 4147 2053 4147 
L 1259 4147 
z
M 628 4666 
L 2053 4666 
Q 2838 4666 3239 4311 
Q 3641 3956 3641 3272 
Q 3641 2581 3239 2228 
Q 2838 1875 2053 1875 
L 1259 1875 
L 1259 0 
L 628 0 
L 628 4666 
z
" transform="scale(0.015625)"/>
     </defs>
     <use xlink:href="#DejaVuSans-50"/>
     <use xlink:href="#DejaVuSans-75" transform="translate(58.552734 0)"/>
     <use xlink:href="#DejaVuSans-72" transform="translate(121.931641 0)"/>
     <use xlink:href="#DejaVuSans-65" transform="translate(160.794922 0)"/>
     <use xlink:href="#DejaVuSans-20" transform="translate(222.318359 0)"/>
     <use xlink:href="#DejaVuSans-54" transform="translate(254.105469 0)"/>
     <use xlink:href="#DejaVuSans-6f" transform="translate(298.189453 0)"/>
     <use xlink:href="#DejaVuSans-6c" transform="translate(359.371094 0)"/>
     <use xlink:href="#DejaVuSans-75" transform="translate(387.154297 0)"/>
     <use xlink:href="#DejaVuSans-65" transform="translate(450.533203 0)"/>
     <use xlink:href="#DejaVuSans-6e" transform="translate(512.056641 0)"/>
     <use xlink:href="#DejaVuSans-65" transform="translate(575.435547 0)"/>
     <use xlink:href="#DejaVuSans-20" transform="translate(636.958984 0)"/>
     <use xlink:href="#DejaVuSans-53" transform="translate(668.746094 0)"/>
     <use xlink:href="#DejaVuSans-70" transform="translate(732.222656 0)"/>
     <use xlink:href="#DejaVuSans-65" transform="translate(795.699219 0)"/>
     <use xlink:href="#DejaVuSans-63" transform="translate(857.222656 0)"/>
     <use xlink:href="#DejaVuSans-74" transform="translate(912.203125 0)"/>
     <use xlink:href="#DejaVuSans-72" transform="translate(951.412109 0)"/>
     <use xlink:href="#DejaVuSans-75" transform="translate(992.525391 0)"/>
     <use xlink:href="#DejaVuSans-6d" transform="translate(1055.904297 0)"/>
    </g>
   </g>
  </g>
 </g>
 <defs>
  <clipPath id="p21c6026b7c">
   <rect x="44.845313" y="22.318125" width="304.363636" height="332.64"/>
  </clipPath>
  <clipPath id="p5fc5a4d3ae">
   <rect x="410.081676" y="22.318125" width="304.363636" height="332.64"/>
  </clipPath>
 </defs>
</svg>