<?xml version="1.0" encoding="utf-8" standalone="no"?>
<!DOCTYPE svg PUBLIC "-//W3C//DTD SVG 1.1//EN"
  "http://www.w3.org/Graphics/SVG/1.1/DTD/svg11.dtd">
<svg xmlns:xlink="http://www.w3.org/1999/xlink" width="391.245pt" height="297.190125pt" viewBox="0 0 391.245 297.190125" xmlns="http://www.w3.org/2000/svg" version="1.1">
 <metadata>
  <rdf:RDF xmlns:dc="http://purl.org/dc/elements/1.1/" xmlns:cc="http://creativecommons.org/ns#" xmlns:rdf="http://www.w3.org/1999/02/22-rdf-syntax-ns#">
   <cc:Work>
    <dc:type rdf:resource="http://purl.org/dc/dcmitype/StillImage"/>
    <dc:date>2025-07-03T14:18:57.913261</dc:date>
    <dc:format>image/svg+xml</dc:format>
    <dc:creator>
     <cc:Agent>
      <dc:title>Matplotlib v3.10.3, https://matplotlib.org/</dc:title>
     </cc:Agent>
    </dc:creator>
   </cc:Work>
  </rdf:RDF>
 </metadata>
 <defs>
  <style type="text/css">*{stroke-linejoin: round; stroke-linecap: butt}</style>
 </defs>
 <g id="figure_1">
  <g id="patch_1">
   <path d="M 0 297.190125 
L 391.245 297.190125 
L 391.245 0 
L 0 0 
z
" style="fill: #ffffff"/>
  </g>
  <g id="axes_1">
   <g id="patch_2">
    <path d="M 26.925 273.312 
L 384.045 273.312 
L 384.045 7.2 
L 26.925 7.2 
z
" style="fill: #ffffff"/>
   </g>
   <g id="PathCollection_1">
    <defs>
     <path id="m3532da21e5" d="M 0 3 
C 0.795609 3 1.55874 2.683901 2.12132 2.12132 
C 2.683901 1.55874 3 0.795609 3 0 
C 3 -0.795609 2.683901 -1.55874 2.12132 -2.12132 
C 1.55874 -2.683901 0.795609 -3 0 -3 
C -0.795609 -3 -1.55874 -2.683901 -2.12132 -2.12132 
C -2.683901 -1.55874 -3 -0.795609 -3 0 
C -3 0.795609 -2.683901 1.55874 -2.12132 2.12132 
C -1.55874 2.683901 -0.795609 3 0 3 
z
" style="stroke: #1f77b4; stroke-opacity: 0.8"/>
    </defs>
    <g clip-path="url(#p15d5f1f236)">
     <use xlink:href="#m3532da21e5" x="43.157727" y="244.524766" style="fill: #1f77b4; fill-opacity: 0.8; stroke: #1f77b4; stroke-opacity: 0.8"/>
     <use xlink:href="#m3532da21e5" x="79.230455" y="230.732874" style="fill: #1f77b4; fill-opacity: 0.8; stroke: #1f77b4; stroke-opacity: 0.8"/>
     <use xlink:href="#m3532da21e5" x="115.303182" y="190.445827" style="fill: #1f77b4; fill-opacity: 0.8; stroke: #1f77b4; stroke-opacity: 0.8"/>
     <use xlink:href="#m3532da21e5" x="151.375909" y="188.133398" style="fill: #1f77b4; fill-opacity: 0.8; stroke: #1f77b4; stroke-opacity: 0.8"/>
     <use xlink:href="#m3532da21e5" x="187.448636" y="133.889808" style="fill: #1f77b4; fill-opacity: 0.8; stroke: #1f77b4; stroke-opacity: 0.8"/>
     <use xlink:href="#m3532da21e5" x="223.521364" y="124.250033" style="fill: #1f77b4; fill-opacity: 0.8; stroke: #1f77b4; stroke-opacity: 0.8"/>
     <use xlink:href="#m3532da21e5" x="259.594091" y="116.660349" style="fill: #1f77b4; fill-opacity: 0.8; stroke: #1f77b4; stroke-opacity: 0.8"/>
     <use xlink:href="#m3532da21e5" x="295.666818" y="85.631438" style="fill: #1f77b4; fill-opacity: 0.8; stroke: #1f77b4; stroke-opacity: 0.8"/>
     <use xlink:href="#m3532da21e5" x="331.739545" y="53.423818" style="fill: #1f77b4; fill-opacity: 0.8; stroke: #1f77b4; stroke-opacity: 0.8"/>
     <use xlink:href="#m3532da21e5" x="367.812273" y="19.296" style="fill: #1f77b4; fill-opacity: 0.8; stroke: #1f77b4; stroke-opacity: 0.8"/>
    </g>
   </g>
   <g id="FillBetweenPolyCollection_1">
    <path d="M 43.157727 236.89795 
L 43.157727 261.216 
L 46.437066 258.834396 
L 49.716405 256.452792 
L 52.995744 254.071189 
L 56.275083 251.689585 
L 59.554421 249.307981 
L 62.83376 246.926377 
L 66.113099 244.544774 
L 69.392438 242.16317 
L 72.671777 239.796551 
L 75.951116 237.459169 
L 79.230455 235.121787 
L 82.509793 232.784404 
L 85.789132 230.447022 
L 89.068471 228.100046 
L 92.34781 225.69812 
L 95.627149 223.296195 
L 98.906488 220.89427 
L 102.185826 218.538531 
L 105.465165 216.228993 
L 108.744504 213.919456 
L 112.023843 211.651873 
L 115.303182 209.391393 
L 118.582521 207.073663 
L 121.86186 204.679642 
L 125.141198 202.265781 
L 128.420537 199.843741 
L 131.699876 197.419517 
L 134.979215 195.023389 
L 138.258554 192.686914 
L 141.537893 190.353371 
L 144.817231 188.019827 
L 148.09657 185.686283 
L 151.375909 183.352739 
L 154.655248 181.024626 
L 157.934587 178.925148 
L 161.213926 176.621431 
L 164.493264 174.234996 
L 167.772603 171.977413 
L 171.051942 169.604544 
L 174.331281 167.145175 
L 177.61062 164.824149 
L 180.889959 162.533805 
L 184.169298 160.108146 
L 187.448636 157.806436 
L 190.727975 155.506174 
L 194.007314 153.353948 
L 197.286653 151.096689 
L 200.565992 148.972697 
L 203.845331 146.593142 
L 207.124669 144.419553 
L 210.404008 142.309304 
L 213.683347 140.001641 
L 216.962686 137.722469 
L 220.242025 135.629417 
L 223.521364 133.343105 
L 226.800702 131.276353 
L 230.080041 129.351309 
L 233.35938 127.181742 
L 236.638719 124.769573 
L 239.918058 122.640403 
L 243.197397 120.474348 
L 246.476736 118.265656 
L 249.756074 115.950539 
L 253.035413 113.938065 
L 256.314752 111.934073 
L 259.594091 109.7915 
L 262.87343 107.544639 
L 266.152769 105.365031 
L 269.432107 103.264473 
L 272.711446 101.125332 
L 275.990785 99.069504 
L 279.270124 96.972847 
L 282.549463 94.875529 
L 285.828802 92.972881 
L 289.10814 90.926133 
L 292.387479 88.962241 
L 295.666818 87.187163 
L 298.946157 85.080106 
L 302.225496 83.015405 
L 305.504835 80.887904 
L 308.784174 78.760553 
L 312.063512 76.65324 
L 315.342851 74.589486 
L 318.62219 72.612118 
L 321.901529 70.634749 
L 325.180868 68.65738 
L 328.460207 66.597238 
L 331.739545 64.505929 
L 335.018884 62.414619 
L 338.298223 60.32331 
L 341.577562 58.316897 
L 344.856901 56.258863 
L 348.13624 54.26295 
L 351.415579 52.276817 
L 354.694917 50.287322 
L 357.974256 48.296786 
L 361.253595 46.305802 
L 364.532934 44.314818 
L 367.812273 42.323833 
L 367.812273 20.781422 
L 367.812273 20.781422 
L 364.532934 23.101558 
L 361.253595 25.414762 
L 357.974256 27.728085 
L 354.694917 30.020883 
L 351.415579 32.215815 
L 348.13624 34.50655 
L 344.856901 36.804462 
L 341.577562 39.101749 
L 338.298223 41.398522 
L 335.018884 43.696074 
L 331.739545 45.995297 
L 328.460207 48.329715 
L 325.180868 50.706345 
L 321.901529 52.960064 
L 318.62219 55.246189 
L 315.342851 57.484695 
L 312.063512 59.779374 
L 308.784174 61.952583 
L 305.504835 64.198896 
L 302.225496 66.485368 
L 298.946157 68.747348 
L 295.666818 70.90694 
L 292.387479 73.149427 
L 289.10814 75.422817 
L 285.828802 77.638679 
L 282.549463 79.881409 
L 279.270124 82.125182 
L 275.990785 84.400724 
L 272.711446 86.694723 
L 269.432107 88.879239 
L 266.152769 91.157972 
L 262.87343 93.566384 
L 259.594091 95.777263 
L 256.314752 97.988142 
L 253.035413 100.263248 
L 249.756074 102.533105 
L 246.476736 104.64295 
L 243.197397 106.853907 
L 239.918058 109.118213 
L 236.638719 111.343092 
L 233.35938 113.540592 
L 230.080041 115.767357 
L 226.800702 117.961774 
L 223.521364 120.156366 
L 220.242025 122.371086 
L 216.962686 124.555856 
L 213.683347 126.806238 
L 210.404008 128.960111 
L 207.124669 131.223936 
L 203.845331 133.330628 
L 200.565992 135.621502 
L 197.286653 137.7477 
L 194.007314 139.956236 
L 190.727975 142.13279 
L 187.448636 144.294774 
L 184.169298 146.483656 
L 180.889959 148.544972 
L 177.61062 150.682557 
L 174.331281 152.818732 
L 171.051942 155.043421 
L 167.772603 157.095051 
L 164.493264 159.23321 
L 161.213926 161.371482 
L 157.934587 163.58698 
L 154.655248 165.647914 
L 151.375909 167.785597 
L 148.09657 169.922215 
L 144.817231 172.058834 
L 141.537893 174.195453 
L 138.258554 176.375552 
L 134.979215 178.488829 
L 131.699876 180.614743 
L 128.420537 182.792434 
L 125.141198 184.88974 
L 121.86186 186.996038 
L 118.582521 189.055184 
L 115.303182 191.189821 
L 112.023843 193.223528 
L 108.744504 195.298962 
L 105.465165 197.397895 
L 102.185826 199.49662 
L 98.906488 201.527627 
L 95.627149 203.558589 
L 92.34781 205.586889 
L 89.068471 207.642438 
L 85.789132 209.793169 
L 82.509793 211.958308 
L 79.230455 214.114946 
L 75.951116 216.209276 
L 72.671777 218.25891 
L 69.392438 220.308544 
L 66.113099 222.358178 
L 62.83376 224.407812 
L 59.554421 226.457446 
L 56.275083 228.542409 
L 52.995744 230.636541 
L 49.716405 232.730673 
L 46.437066 234.824805 
L 43.157727 236.89795 
z
" clip-path="url(#p15d5f1f236)" style="fill: #1f77b4; fill-opacity: 0.15"/>
   </g>
   <g id="matplotlib.axis_1">
    <g id="xtick_1">
     <g id="line2d_1">
      <defs>
       <path id="m1529677356" d="M 0 0 
L 0 3.5 
" style="stroke: #000000; stroke-width: 0.8"/>
      </defs>
      <g>
       <use xlink:href="#m1529677356" x="43.157727" y="273.312" style="stroke: #000000; stroke-width: 0.8"/>
      </g>
     </g>
     <g id="text_1">
      <!-- 0 -->
      <g transform="translate(39.976477 287.910437) scale(0.1 -0.1)">
       <defs>
        <path id="DejaVuSans-30" d="M 2034 4250 
Q 1547 4250 1301 3770 
Q 1056 3291 1056 2328 
Q 1056 1369 1301 889 
Q 1547 409 2034 409 
Q 2525 409 2770 889 
Q 3016 1369 3016 2328 
Q 3016 3291 2770 3770 
Q 2525 4250 2034 4250 
z
M 2034 4750 
Q 2819 4750 3233 4129 
Q 3647 3509 3647 2328 
Q 3647 1150 3233 529 
Q 2819 -91 2034 -91 
Q 1250 -91 836 529 
Q 422 1150 422 2328 
Q 422 3509 836 4129 
Q 1250 4750 2034 4750 
z
" transform="scale(0.015625)"/>
       </defs>
       <use xlink:href="#DejaVuSans-30"/>
      </g>
     </g>
    </g>
    <g id="xtick_2">
     <g id="line2d_2">
      <g>
       <use xlink:href="#m1529677356" x="115.303182" y="273.312" style="stroke: #000000; stroke-width: 0.8"/>
      </g>
     </g>
     <g id="text_2">
      <!-- 2 -->
      <g transform="translate(112.121932 287.910437) scale(0.1 -0.1)">
       <defs>
        <path id="DejaVuSans-32" d="M 1228 531 
L 3431 531 
L 3431 0 
L 469 0 
L 469 531 
Q 828 903 1448 1529 
Q 2069 2156 2228 2338 
Q 2531 2678 2651 2914 
Q 2772 3150 2772 3378 
Q 2772 3750 2511 3984 
Q 2250 4219 1831 4219 
Q 1534 4219 1204 4116 
Q 875 4013 500 3803 
L 500 4441 
Q 881 4594 1212 4672 
Q 1544 4750 1819 4750 
Q 2544 4750 2975 4387 
Q 3406 4025 3406 3419 
Q 3406 3131 3298 2873 
Q 3191 2616 2906 2266 
Q 2828 2175 2409 1742 
Q 1991 1309 1228 531 
z
" transform="scale(0.015625)"/>
       </defs>
       <use xlink:href="#DejaVuSans-32"/>
      </g>
     </g>
    </g>
    <g id="xtick_3">
     <g id="line2d_3">
      <g>
       <use xlink:href="#m1529677356" x="187.448636" y="273.312" style="stroke: #000000; stroke-width: 0.8"/>
      </g>
     </g>
     <g id="text_3">
      <!-- 4 -->
      <g transform="translate(184.267386 287.910437) scale(0.1 -0.1)">
       <defs>
        <path id="DejaVuSans-34" d="M 2419 4116 
L 825 1625 
L 2419 1625 
L 2419 4116 
z
M 2253 4666 
L 3047 4666 
L 3047 1625 
L 3713 1625 
L 3713 1100 
L 3047 1100 
L 3047 0 
L 2419 0 
L 2419 1100 
L 313 1100 
L 313 1709 
L 2253 4666 
z
" transform="scale(0.015625)"/>
       </defs>
       <use xlink:href="#DejaVuSans-34"/>
      </g>
     </g>
    </g>
    <g id="xtick_4">
     <g id="line2d_4">
      <g>
       <use xlink:href="#m1529677356" x="259.594091" y="273.312" style="stroke: #000000; stroke-width: 0.8"/>
      </g>
     </g>
     <g id="text_4">
      <!-- 6 -->
      <g transform="translate(256.412841 287.910437) scale(0.1 -0.1)">
       <defs>
        <path id="DejaVuSans-36" d="M 2113 2584 
Q 1688 2584 1439 2293 
Q 1191 2003 1191 1497 
Q 1191 994 1439 701 
Q 1688 409 2113 409 
Q 2538 409 2786 701 
Q 3034 994 3034 1497 
Q 3034 2003 2786 2293 
Q 2538 2584 2113 2584 
z
M 3366 4563 
L 3366 3988 
Q 3128 4100 2886 4159 
Q 2644 4219 2406 4219 
Q 1781 4219 1451 3797 
Q 1122 3375 1075 2522 
Q 1259 2794 1537 2939 
Q 1816 3084 2150 3084 
Q 2853 3084 3261 2657 
Q 3669 2231 3669 1497 
Q 3669 778 3244 343 
Q 2819 -91 2113 -91 
Q 1303 -91 875 529 
Q 447 1150 447 2328 
Q 447 3434 972 4092 
Q 1497 4750 2381 4750 
Q 2619 4750 2861 4703 
Q 3103 4656 3366 4563 
z
" transform="scale(0.015625)"/>
       </defs>
       <use xlink:href="#DejaVuSans-36"/>
      </g>
     </g>
    </g>
    <g id="xtick_5">
     <g id="line2d_5">
      <g>
       <use xlink:href="#m1529677356" x="331.739545" y="273.312" style="stroke: #000000; stroke-width: 0.8"/>
      </g>
     </g>
     <g id="text_5">
      <!-- 8 -->
      <g transform="translate(328.558295 287.910437) scale(0.1 -0.1)">
       <defs>
        <path id="DejaVuSans-38" d="M 2034 2216 
Q 1584 2216 1326 1975 
Q 1069 1734 1069 1313 
Q 1069 891 1326 650 
Q 1584 409 2034 409 
Q 2484 409 2743 651 
Q 3003 894 3003 1313 
Q 3003 1734 2745 1975 
Q 2488 2216 2034 2216 
z
M 1403 2484 
Q 997 2584 770 2862 
Q 544 3141 544 3541 
Q 544 4100 942 4425 
Q 1341 4750 2034 4750 
Q 2731 4750 3128 4425 
Q 3525 4100 3525 3541 
Q 3525 3141 3298 2862 
Q 3072 2584 2669 2484 
Q 3125 2378 3379 2068 
Q 3634 1759 3634 1313 
Q 3634 634 3220 271 
Q 2806 -91 2034 -91 
Q 1263 -91 848 271 
Q 434 634 434 1313 
Q 434 1759 690 2068 
Q 947 2378 1403 2484 
z
M 1172 3481 
Q 1172 3119 1398 2916 
Q 1625 2713 2034 2713 
Q 2441 2713 2670 2916 
Q 2900 3119 2900 3481 
Q 2900 3844 2670 4047 
Q 2441 4250 2034 4250 
Q 1625 4250 1398 4047 
Q 1172 3844 1172 3481 
z
" transform="scale(0.015625)"/>
       </defs>
       <use xlink:href="#DejaVuSans-38"/>
      </g>
     </g>
    </g>
   </g>
   <g id="matplotlib.axis_2">
    <g id="ytick_1">
     <g id="line2d_6">
      <defs>
       <path id="m9bb9f46d0f" d="M 0 0 
L -3.5 0 
" style="stroke: #000000; stroke-width: 0.8"/>
      </defs>
      <g>
       <use xlink:href="#m9bb9f46d0f" x="26.925" y="239.945908" style="stroke: #000000; stroke-width: 0.8"/>
      </g>
     </g>
     <g id="text_6">
      <!-- 0 -->
      <g transform="translate(13.5625 243.745127) scale(0.1 -0.1)">
       <use xlink:href="#DejaVuSans-30"/>
      </g>
     </g>
    </g>
    <g id="ytick_2">
     <g id="line2d_7">
      <g>
       <use xlink:href="#m9bb9f46d0f" x="26.925" y="186.991547" style="stroke: #000000; stroke-width: 0.8"/>
      </g>
     </g>
     <g id="text_7">
      <!-- 5 -->
      <g transform="translate(13.5625 190.790766) scale(0.1 -0.1)">
       <defs>
        <path id="DejaVuSans-35" d="M 691 4666 
L 3169 4666 
L 3169 4134 
L 1269 4134 
L 1269 2991 
Q 1406 3038 1543 3061 
Q 1681 3084 1819 3084 
Q 2600 3084 3056 2656 
Q 3513 2228 3513 1497 
Q 3513 744 3044 326 
Q 2575 -91 1722 -91 
Q 1428 -91 1123 -41 
Q 819 9 494 109 
L 494 744 
Q 775 591 1075 516 
Q 1375 441 1709 441 
Q 2250 441 2565 725 
Q 2881 1009 2881 1497 
Q 2881 1984 2565 2268 
Q 2250 2553 1709 2553 
Q 1456 2553 1204 2497 
Q 953 2441 691 2322 
L 691 4666 
z
" transform="scale(0.015625)"/>
       </defs>
       <use xlink:href="#DejaVuSans-35"/>
      </g>
     </g>
    </g>
    <g id="ytick_3">
     <g id="line2d_8">
      <g>
       <use xlink:href="#m9bb9f46d0f" x="26.925" y="134.037186" style="stroke: #000000; stroke-width: 0.8"/>
      </g>
     </g>
     <g id="text_8">
      <!-- 10 -->
      <g transform="translate(7.2 137.836405) scale(0.1 -0.1)">
       <defs>
        <path id="DejaVuSans-31" d="M 794 531 
L 1825 531 
L 1825 4091 
L 703 3866 
L 703 4441 
L 1819 4666 
L 2450 4666 
L 2450 531 
L 3481 531 
L 3481 0 
L 794 0 
L 794 531 
z
" transform="scale(0.015625)"/>
       </defs>
       <use xlink:href="#DejaVuSans-31"/>
       <use xlink:href="#DejaVuSans-30" transform="translate(63.623047 0)"/>
      </g>
     </g>
    </g>
    <g id="ytick_4">
     <g id="line2d_9">
      <g>
       <use xlink:href="#m9bb9f46d0f" x="26.925" y="81.082825" style="stroke: #000000; stroke-width: 0.8"/>
      </g>
     </g>
     <g id="text_9">
      <!-- 15 -->
      <g transform="translate(7.2 84.882043) scale(0.1 -0.1)">
       <use xlink:href="#DejaVuSans-31"/>
       <use xlink:href="#DejaVuSans-35" transform="translate(63.623047 0)"/>
      </g>
     </g>
    </g>
    <g id="ytick_5">
     <g id="line2d_10">
      <g>
       <use xlink:href="#m9bb9f46d0f" x="26.925" y="28.128463" style="stroke: #000000; stroke-width: 0.8"/>
      </g>
     </g>
     <g id="text_10">
      <!-- 20 -->
      <g transform="translate(7.2 31.927682) scale(0.1 -0.1)">
       <use xlink:href="#DejaVuSans-32"/>
       <use xlink:href="#DejaVuSans-30" transform="translate(63.623047 0)"/>
      </g>
     </g>
    </g>
   </g>
   <g id="line2d_11">
    <path d="M 43.157727 248.235735 
L 46.437066 246.022869 
L 49.716405 243.810002 
L 52.995744 241.597135 
L 56.275083 239.384268 
L 59.554421 237.171402 
L 62.83376 234.958535 
L 66.113099 232.745668 
L 69.392438 230.532801 
L 72.671777 228.319935 
L 75.951116 226.107068 
L 79.230455 223.894201 
L 82.509793 221.681334 
L 85.789132 219.468468 
L 89.068471 217.255601 
L 92.34781 215.042734 
L 95.627149 212.829867 
L 98.906488 210.617001 
L 102.185826 208.404134 
L 105.465165 206.191267 
L 108.744504 203.9784 
L 112.023843 201.765534 
L 115.303182 199.552667 
L 118.582521 197.3398 
L 121.86186 195.126933 
L 125.141198 192.914067 
L 128.420537 190.7012 
L 131.699876 188.488333 
L 134.979215 186.275466 
L 138.258554 184.0626 
L 141.537893 181.849733 
L 144.817231 179.636866 
L 148.09657 177.423999 
L 151.375909 175.211133 
L 154.655248 172.998266 
L 157.934587 170.785399 
L 161.213926 168.572532 
L 164.493264 166.359666 
L 167.772603 164.146799 
L 171.051942 161.933932 
L 174.331281 159.721065 
L 177.61062 157.508199 
L 180.889959 155.295332 
L 184.169298 153.082465 
L 187.448636 150.869598 
L 190.727975 148.656732 
L 194.007314 146.443865 
L 197.286653 144.230998 
L 200.565992 142.018131 
L 203.845331 139.805265 
L 207.124669 137.592398 
L 210.404008 135.379531 
L 213.683347 133.166664 
L 216.962686 130.953798 
L 220.242025 128.740931 
L 223.521364 126.528064 
L 226.800702 124.315197 
L 230.080041 122.102331 
L 233.35938 119.889464 
L 236.638719 117.676597 
L 239.918058 115.46373 
L 243.197397 113.250864 
L 246.476736 111.037997 
L 249.756074 108.82513 
L 253.035413 106.612263 
L 256.314752 104.399397 
L 259.594091 102.18653 
L 262.87343 99.973663 
L 266.152769 97.760796 
L 269.432107 95.54793 
L 272.711446 93.335063 
L 275.990785 91.122196 
L 279.270124 88.909329 
L 282.549463 86.696463 
L 285.828802 84.483596 
L 289.10814 82.270729 
L 292.387479 80.057862 
L 295.666818 77.844995 
L 298.946157 75.632129 
L 302.225496 73.419262 
L 305.504835 71.206395 
L 308.784174 68.993528 
L 312.063512 66.780662 
L 315.342851 64.567795 
L 318.62219 62.354928 
L 321.901529 60.142061 
L 325.180868 57.929195 
L 328.460207 55.716328 
L 331.739545 53.503461 
L 335.018884 51.290594 
L 338.298223 49.077728 
L 341.577562 46.864861 
L 344.856901 44.651994 
L 348.13624 42.439127 
L 351.415579 40.226261 
L 354.694917 38.013394 
L 357.974256 35.800527 
L 361.253595 33.58766 
L 364.532934 31.374794 
L 367.812273 29.161927 
" clip-path="url(#p15d5f1f236)" style="fill: none; stroke: #1f77b4; stroke-width: 2.25; stroke-linecap: square"/>
   </g>
   <g id="patch_3">
    <path d="M 26.925 273.312 
L 26.925 7.2 
" style="fill: none; stroke: #000000; stroke-width: 0.8; stroke-linejoin: miter; stroke-linecap: square"/>
   </g>
   <g id="patch_4">
    <path d="M 384.045 273.312 
L 384.045 7.2 
" style="fill: none; stroke: #000000; stroke-width: 0.8; stroke-linejoin: miter; stroke-linecap: square"/>
   </g>
   <g id="patch_5">
    <path d="M 26.925 273.312 
L 384.045 273.312 
" style="fill: none; stroke: #000000; stroke-width: 0.8; stroke-linejoin: miter; stroke-linecap: square"/>
   </g>
   <g id="patch_6">
    <path d="M 26.925 7.2 
L 384.045 7.2 
" style="fill: none; stroke: #000000; stroke-width: 0.8; stroke-linejoin: miter; stroke-linecap: square"/>
   </g>
  </g>
 </g>
 <defs>
  <clipPath id="p15d5f1f236">
   <rect x="26.925" y="7.2" width="357.12" height="266.112"/>
  </clipPath>
 </defs>
</svg>