<?xml version="1.0" encoding="utf-8" standalone="no"?>
<!DOCTYPE svg PUBLIC "-//W3C//DTD SVG 1.1//EN"
  "http://www.w3.org/Graphics/SVG/1.1/DTD/svg11.dtd">
<svg xmlns:xlink="http://www.w3.org/1999/xlink" width="420.188935pt" height="351.99625pt" viewBox="0 0 420.188935 351.99625" xmlns="http://www.w3.org/2000/svg" version="1.1">
 <metadata>
  <rdf:RDF xmlns:dc="http://purl.org/dc/elements/1.1/" xmlns:cc="http://creativecommons.org/ns#" xmlns:rdf="http://www.w3.org/1999/02/22-rdf-syntax-ns#">
   <cc:Work>
    <dc:type rdf:resource="http://purl.org/dc/dcmitype/StillImage"/>
    <dc:date>2025-07-01T12:26:24.602791</dc:date>
    <dc:format>image/svg+xml</dc:format>
    <dc:creator>
     <cc:Agent>
      <dc:title>Matplotlib v3.10.3, https://matplotlib.org/</dc:title>
     </cc:Agent>
    </dc:creator>
   </cc:Work>
  </rdf:RDF>
 </metadata>
 <defs>
  <style type="text/css">*{stroke-linejoin: round; stroke-linecap: butt}</style>
 </defs>
 <g id="figure_1">
  <g id="patch_1">
   <path d="M 0 351.99625 
L 420.188935 351.99625 
L 420.188935 0 
L 0 0 
z
" style="fill: #ffffff"/>
  </g>
  <g id="axes_1">
   <g id="patch_2">
    <path d="M 47.1875 314.44 
L 341.850735 314.44 
L 341.850735 7.2 
L 47.1875 7.2 
z
" style="fill: #ffffff"/>
   </g>
   <g id="PathCollection_1">
    <defs>
     <path id="m2c6dd2b83d" d="M 0 3 
C 0.795609 3 1.55874 2.683901 2.12132 2.12132 
C 2.683901 1.55874 3 0.795609 3 0 
C 3 -0.795609 2.683901 -1.55874 2.12132 -2.12132 
C 1.55874 -2.683901 0.795609 -3 0 -3 
C -0.795609 -3 -1.55874 -2.683901 -2.12132 -2.12132 
C -2.683901 -1.55874 -3 -0.795609 -3 0 
C -3 0.795609 -2.683901 1.55874 -2.12132 2.12132 
C -1.55874 2.683901 -0.795609 3 0 3 
z
" style="stroke: #1f77b4; stroke-opacity: 0.8"/>
    </defs>
    <g clip-path="url(#pb9466d92fc)">
     <use xlink:href="#m2c6dd2b83d" x="60.581283" y="254.217404" style="fill: #1f77b4; fill-opacity: 0.8; stroke: #1f77b4; stroke-opacity: 0.8"/>
     <use xlink:href="#m2c6dd2b83d" x="87.756234" y="237.964895" style="fill: #1f77b4; fill-opacity: 0.8; stroke: #1f77b4; stroke-opacity: 0.8"/>
     <use xlink:href="#m2c6dd2b83d" x="114.931184" y="212.961035" style="fill: #1f77b4; fill-opacity: 0.8; stroke: #1f77b4; stroke-opacity: 0.8"/>
     <use xlink:href="#m2c6dd2b83d" x="142.086765" y="187.957175" style="fill: #1f77b4; fill-opacity: 0.8; stroke: #1f77b4; stroke-opacity: 0.8"/>
     <use xlink:href="#m2c6dd2b83d" x="169.261715" y="161.703122" style="fill: #1f77b4; fill-opacity: 0.8; stroke: #1f77b4; stroke-opacity: 0.8"/>
     <use xlink:href="#m2c6dd2b83d" x="196.436666" y="139.199648" style="fill: #1f77b4; fill-opacity: 0.8; stroke: #1f77b4; stroke-opacity: 0.8"/>
     <use xlink:href="#m2c6dd2b83d" x="223.592247" y="115.445981" style="fill: #1f77b4; fill-opacity: 0.8; stroke: #1f77b4; stroke-opacity: 0.8"/>
     <use xlink:href="#m2c6dd2b83d" x="250.767197" y="91.692314" style="fill: #1f77b4; fill-opacity: 0.8; stroke: #1f77b4; stroke-opacity: 0.8"/>
     <use xlink:href="#m2c6dd2b83d" x="277.922778" y="70.439033" style="fill: #1f77b4; fill-opacity: 0.8; stroke: #1f77b4; stroke-opacity: 0.8"/>
     <use xlink:href="#m2c6dd2b83d" x="305.097728" y="45.435172" style="fill: #1f77b4; fill-opacity: 0.8; stroke: #1f77b4; stroke-opacity: 0.8"/>
     <use xlink:href="#m2c6dd2b83d" x="142.086765" y="200.459105" style="fill: #1f77b4; fill-opacity: 0.8; stroke: #1f77b4; stroke-opacity: 0.8"/>
     <use xlink:href="#m2c6dd2b83d" x="142.086765" y="231.71393" style="fill: #1f77b4; fill-opacity: 0.8; stroke: #1f77b4; stroke-opacity: 0.8"/>
     <use xlink:href="#m2c6dd2b83d" x="169.261715" y="171.704666" style="fill: #1f77b4; fill-opacity: 0.8; stroke: #1f77b4; stroke-opacity: 0.8"/>
     <use xlink:href="#m2c6dd2b83d" x="196.436666" y="166.703894" style="fill: #1f77b4; fill-opacity: 0.8; stroke: #1f77b4; stroke-opacity: 0.8"/>
     <use xlink:href="#m2c6dd2b83d" x="223.592247" y="160.452929" style="fill: #1f77b4; fill-opacity: 0.8; stroke: #1f77b4; stroke-opacity: 0.8"/>
     <use xlink:href="#m2c6dd2b83d" x="180.805743" y="107.944823" style="fill: #1f77b4; fill-opacity: 0.8; stroke: #1f77b4; stroke-opacity: 0.8"/>
     <use xlink:href="#m2c6dd2b83d" x="207.980693" y="82.940963" style="fill: #1f77b4; fill-opacity: 0.8; stroke: #1f77b4; stroke-opacity: 0.8"/>
     <use xlink:href="#m2c6dd2b83d" x="262.311224" y="60.437488" style="fill: #1f77b4; fill-opacity: 0.8; stroke: #1f77b4; stroke-opacity: 0.8"/>
    </g>
   </g>
   <g id="FillBetweenPolyCollection_1">
    <path d="M 60.581283 249.632996 
L 60.581283 285.635619 
L 63.051146 283.146142 
L 65.52101 280.549149 
L 67.990873 278.080922 
L 70.460736 275.610984 
L 72.930599 273.14362 
L 75.400462 270.676256 
L 77.870325 268.091399 
L 80.340188 265.527691 
L 82.810051 262.902941 
L 85.279914 260.265042 
L 87.749777 257.627143 
L 90.21964 255.047 
L 92.689503 252.568233 
L 95.159367 250.176676 
L 97.62923 247.632764 
L 100.099093 245.039624 
L 102.568956 242.542167 
L 105.038819 240.04471 
L 107.508682 237.547253 
L 109.978545 235.049796 
L 112.448408 232.480432 
L 114.918271 229.902968 
L 117.388134 227.385122 
L 119.857997 224.667512 
L 122.32786 222.127563 
L 124.797724 219.672518 
L 127.267587 217.213479 
L 129.73745 214.655802 
L 132.207313 212.266016 
L 134.677176 209.78818 
L 137.147039 207.273801 
L 139.616902 204.841197 
L 142.086765 202.47794 
L 144.556628 200.075496 
L 147.026491 197.60274 
L 149.496354 195.239259 
L 151.966217 192.745269 
L 154.436081 190.417904 
L 156.905944 188.086563 
L 159.375807 185.758328 
L 161.84567 183.43441 
L 164.315533 181.052733 
L 166.785396 178.726175 
L 169.255259 176.439097 
L 171.725122 174.074511 
L 174.194985 171.880816 
L 176.664848 169.514194 
L 179.134711 167.188862 
L 181.604574 164.869614 
L 184.074437 162.934213 
L 186.544301 160.801354 
L 189.014164 158.567396 
L 191.484027 156.284973 
L 193.95389 153.998388 
L 196.423753 151.679286 
L 198.893616 149.473662 
L 201.363479 147.326882 
L 203.833342 145.080855 
L 206.303205 142.832195 
L 208.773068 140.756757 
L 211.242931 138.562227 
L 213.712794 136.454593 
L 216.182658 134.35123 
L 218.652521 132.225028 
L 221.122384 130.170982 
L 223.592247 128.026478 
L 226.06211 125.850075 
L 228.531973 123.813804 
L 231.001836 121.777534 
L 233.471699 119.765344 
L 235.941562 117.796433 
L 238.411425 115.661079 
L 240.881288 113.470357 
L 243.351151 111.284024 
L 245.821015 109.095616 
L 248.290878 106.905978 
L 250.760741 104.848031 
L 253.230604 102.861824 
L 255.700467 100.786797 
L 258.17033 98.751581 
L 260.640193 96.845433 
L 263.110056 94.724945 
L 265.579919 92.606127 
L 268.049782 90.488866 
L 270.519645 88.438697 
L 272.989508 86.388528 
L 275.459371 84.37634 
L 277.929235 82.377715 
L 280.399098 80.378461 
L 282.868961 78.380134 
L 285.338824 76.381841 
L 287.808687 74.356534 
L 290.27855 72.327483 
L 292.748413 70.298431 
L 295.218276 68.269379 
L 297.688139 66.237902 
L 300.158002 64.182897 
L 302.627865 62.098779 
L 305.097728 60.11397 
L 305.097728 21.165455 
L 305.097728 21.165455 
L 302.627865 23.654931 
L 300.158002 26.203926 
L 297.688139 28.623387 
L 295.218276 31.306132 
L 292.748413 33.979723 
L 290.27855 36.413005 
L 287.808687 38.851348 
L 285.338824 41.407217 
L 282.868961 43.83024 
L 280.399098 46.253264 
L 277.929235 48.676288 
L 275.459371 51.099312 
L 272.989508 53.524569 
L 270.519645 56.309899 
L 268.049782 59.121772 
L 265.579919 61.663026 
L 263.110056 64.087765 
L 260.640193 66.704891 
L 258.17033 69.129588 
L 255.700467 71.554285 
L 253.230604 73.978983 
L 250.760741 76.40368 
L 248.290878 78.798083 
L 245.821015 81.153208 
L 243.351151 83.508976 
L 240.881288 85.985463 
L 238.411425 88.511526 
L 235.941562 90.954292 
L 233.471699 93.376561 
L 231.001836 95.806589 
L 228.531973 98.232585 
L 226.06211 100.560591 
L 223.592247 103.011785 
L 221.122384 105.455739 
L 218.652521 107.811518 
L 216.182658 110.180479 
L 213.712794 112.552549 
L 211.242931 114.869468 
L 208.773068 117.296689 
L 206.303205 119.902846 
L 203.833342 122.30745 
L 201.363479 124.768025 
L 198.893616 127.146103 
L 196.423753 129.433362 
L 193.95389 131.751209 
L 191.484027 134.018604 
L 189.014164 136.254641 
L 186.544301 138.62608 
L 184.074437 141.061519 
L 181.604574 143.253375 
L 179.134711 145.676002 
L 176.664848 148.017082 
L 174.194985 150.35802 
L 171.725122 152.592251 
L 169.255259 154.897767 
L 166.785396 157.182972 
L 164.315533 159.402644 
L 161.84567 161.654004 
L 159.375807 163.891483 
L 156.905944 166.145398 
L 154.436081 168.307668 
L 151.966217 170.551179 
L 149.496354 172.907115 
L 147.026491 175.16298 
L 144.556628 177.250925 
L 142.086765 179.472712 
L 139.616902 181.654702 
L 137.147039 183.761015 
L 134.677176 185.871715 
L 132.207313 187.985238 
L 129.73745 190.094018 
L 127.267587 192.483571 
L 124.797724 194.732848 
L 122.32786 196.901327 
L 119.857997 199.016089 
L 117.388134 201.115239 
L 114.918271 203.214389 
L 112.448408 205.313539 
L 109.978545 207.412689 
L 107.508682 209.514205 
L 105.038819 211.615736 
L 102.568956 213.717267 
L 100.099093 215.63982 
L 97.62923 217.4995 
L 95.159367 219.733232 
L 92.689503 221.992653 
L 90.21964 224.227785 
L 87.749777 226.332695 
L 85.279914 228.437606 
L 82.810051 230.583016 
L 80.340188 232.684828 
L 77.870325 234.922286 
L 75.400462 237.160055 
L 72.930599 239.270767 
L 70.460736 241.295764 
L 67.990873 243.321128 
L 65.52101 245.495513 
L 63.051146 247.5578 
L 60.581283 249.632996 
z
" clip-path="url(#pb9466d92fc)" style="fill: #1f77b4; fill-opacity: 0.15"/>
   </g>
   <g id="PathCollection_2">
    <defs>
     <path id="m29f380990a" d="M 0 3 
C 0.795609 3 1.55874 2.683901 2.12132 2.12132 
C 2.683901 1.55874 3 0.795609 3 0 
C 3 -0.795609 2.683901 -1.55874 2.12132 -2.12132 
C 1.55874 -2.683901 0.795609 -3 0 -3 
C -0.795609 -3 -1.55874 -2.683901 -2.12132 -2.12132 
C -2.683901 -1.55874 -3 -0.795609 -3 0 
C -3 0.795609 -2.683901 1.55874 -2.12132 2.12132 
C -1.55874 2.683901 -0.795609 3 0 3 
z
" style="stroke: #ff7f0e; stroke-opacity: 0.8"/>
    </defs>
    <g clip-path="url(#pb9466d92fc)">
     <use xlink:href="#m29f380990a" x="138.271038" y="290.473001" style="fill: #ff7f0e; fill-opacity: 0.8; stroke: #ff7f0e; stroke-opacity: 0.8"/>
     <use xlink:href="#m29f380990a" x="165.445988" y="249.216632" style="fill: #ff7f0e; fill-opacity: 0.8; stroke: #ff7f0e; stroke-opacity: 0.8"/>
     <use xlink:href="#m29f380990a" x="192.620939" y="212.961035" style="fill: #ff7f0e; fill-opacity: 0.8; stroke: #ff7f0e; stroke-opacity: 0.8"/>
     <use xlink:href="#m29f380990a" x="219.77652" y="177.955631" style="fill: #ff7f0e; fill-opacity: 0.8; stroke: #ff7f0e; stroke-opacity: 0.8"/>
     <use xlink:href="#m29f380990a" x="246.95147" y="146.700806" style="fill: #ff7f0e; fill-opacity: 0.8; stroke: #ff7f0e; stroke-opacity: 0.8"/>
     <use xlink:href="#m29f380990a" x="274.12642" y="117.946367" style="fill: #ff7f0e; fill-opacity: 0.8; stroke: #ff7f0e; stroke-opacity: 0.8"/>
     <use xlink:href="#m29f380990a" x="301.282001" y="90.442121" style="fill: #ff7f0e; fill-opacity: 0.8; stroke: #ff7f0e; stroke-opacity: 0.8"/>
     <use xlink:href="#m29f380990a" x="328.456952" y="65.438261" style="fill: #ff7f0e; fill-opacity: 0.8; stroke: #ff7f0e; stroke-opacity: 0.8"/>
     <use xlink:href="#m29f380990a" x="165.445988" y="256.71779" style="fill: #ff7f0e; fill-opacity: 0.8; stroke: #ff7f0e; stroke-opacity: 0.8"/>
     <use xlink:href="#m29f380990a" x="219.77652" y="189.207368" style="fill: #ff7f0e; fill-opacity: 0.8; stroke: #ff7f0e; stroke-opacity: 0.8"/>
     <use xlink:href="#m29f380990a" x="138.271038" y="300.474545" style="fill: #ff7f0e; fill-opacity: 0.8; stroke: #ff7f0e; stroke-opacity: 0.8"/>
     <use xlink:href="#m29f380990a" x="192.620939" y="235.464509" style="fill: #ff7f0e; fill-opacity: 0.8; stroke: #ff7f0e; stroke-opacity: 0.8"/>
    </g>
   </g>
   <g id="FillBetweenPolyCollection_2">
    <path d="M 138.271038 280.757815 
L 138.271038 296.432079 
L 140.192108 293.895489 
L 142.113178 291.439219 
L 144.034247 289.003116 
L 145.955317 286.578828 
L 147.876387 284.041829 
L 149.797457 281.484349 
L 151.718527 278.989335 
L 153.639597 276.556552 
L 155.560666 274.044238 
L 157.481736 271.654644 
L 159.402806 269.141033 
L 161.323876 266.620488 
L 163.244946 264.105161 
L 165.166016 261.600481 
L 167.087085 259.161747 
L 169.008155 256.697855 
L 170.929225 254.256332 
L 172.850295 251.747791 
L 174.771365 249.26632 
L 176.692435 246.871429 
L 178.613504 244.426612 
L 180.534574 242.088009 
L 182.455644 239.73778 
L 184.376714 237.320059 
L 186.297784 234.898731 
L 188.218854 232.478356 
L 190.139923 230.059991 
L 192.060993 227.686729 
L 193.982063 225.288042 
L 195.903133 222.883913 
L 197.824203 220.451081 
L 199.745273 218.044427 
L 201.666342 215.621093 
L 203.587412 213.271523 
L 205.508482 210.911274 
L 207.429552 208.553609 
L 209.350622 206.204611 
L 211.271692 203.805866 
L 213.192761 201.389949 
L 215.113831 199.065756 
L 217.034901 196.66233 
L 218.955971 194.336958 
L 220.877041 192.015899 
L 222.798111 189.655908 
L 224.719181 187.355592 
L 226.64025 184.965977 
L 228.56132 182.65576 
L 230.48239 180.345356 
L 232.40346 178.016514 
L 234.32453 175.667646 
L 236.2456 173.318649 
L 238.166669 170.969652 
L 240.087739 168.620592 
L 242.008809 166.271202 
L 243.929879 163.922075 
L 245.850949 161.57302 
L 247.772019 159.226032 
L 249.693088 156.89361 
L 251.614158 154.534165 
L 253.535228 152.177673 
L 255.456298 149.828676 
L 257.377368 147.512002 
L 259.298438 145.189683 
L 261.219507 142.877982 
L 263.140577 140.548818 
L 265.061647 138.245604 
L 266.982717 135.906671 
L 268.903787 133.538427 
L 270.824857 131.19272 
L 272.745926 128.849405 
L 274.666996 126.538693 
L 276.588066 124.174366 
L 278.509136 121.787328 
L 280.430206 119.499735 
L 282.351276 117.229134 
L 284.272345 114.844591 
L 286.193415 112.467327 
L 288.114485 110.14948 
L 290.035555 107.832407 
L 291.956625 105.516126 
L 293.877695 103.198967 
L 295.798764 100.882405 
L 297.719834 98.573405 
L 299.640904 96.290446 
L 301.561974 93.964932 
L 303.483044 91.640916 
L 305.404114 89.332328 
L 307.325183 87.100481 
L 309.246253 84.815602 
L 311.167323 82.557239 
L 313.088393 80.404875 
L 315.009463 78.138727 
L 316.930533 75.858043 
L 318.851602 73.604362 
L 320.772672 71.351905 
L 322.693742 69.064426 
L 324.614812 66.757109 
L 326.535882 64.438496 
L 328.456952 62.120421 
L 328.456952 38.215656 
L 328.456952 38.215656 
L 326.535882 40.80221 
L 324.614812 43.388763 
L 322.693742 45.975317 
L 320.772672 48.561871 
L 318.851602 51.14902 
L 316.930533 53.736663 
L 315.009463 56.34104 
L 313.088393 58.945775 
L 311.167323 61.522487 
L 309.246253 64.0992 
L 307.325183 66.675912 
L 305.404114 69.252461 
L 303.483044 71.827707 
L 301.561974 74.392503 
L 299.640904 76.931797 
L 297.719834 79.49881 
L 295.798764 82.083068 
L 293.877695 84.667327 
L 291.956625 87.245314 
L 290.035555 89.799298 
L 288.114485 92.378111 
L 286.193415 94.99402 
L 284.272345 97.591246 
L 282.351276 100.168246 
L 280.430206 102.745459 
L 278.509136 105.322247 
L 276.588066 107.906422 
L 274.666996 110.49132 
L 272.745926 113.06518 
L 270.824857 115.62259 
L 268.903787 118.186371 
L 266.982717 120.751245 
L 265.061647 123.316119 
L 263.140577 125.863884 
L 261.219507 128.445866 
L 259.298438 131.01074 
L 257.377368 133.62528 
L 255.456298 136.22035 
L 253.535228 138.767583 
L 251.614158 141.39035 
L 249.693088 143.966525 
L 247.772019 146.536511 
L 245.850949 149.025312 
L 243.929879 151.531988 
L 242.008809 154.095103 
L 240.087739 156.607453 
L 238.166669 159.224452 
L 236.2456 161.777753 
L 234.32453 164.24885 
L 232.40346 166.765372 
L 230.48239 169.256303 
L 228.56132 171.691787 
L 226.64025 174.240208 
L 224.719181 176.771036 
L 222.798111 179.28771 
L 220.877041 181.745498 
L 218.955971 184.237369 
L 217.034901 186.704965 
L 215.113831 189.01264 
L 213.192761 191.556081 
L 211.271692 194.043853 
L 209.350622 196.34071 
L 207.429552 198.75998 
L 205.508482 201.247003 
L 203.587412 203.535017 
L 201.666342 205.975638 
L 199.745273 208.291488 
L 197.824203 210.559436 
L 195.903133 212.84099 
L 193.982063 215.079127 
L 192.060993 217.340719 
L 190.139923 219.604455 
L 188.218854 222.019451 
L 186.297784 224.450652 
L 184.376714 226.67635 
L 182.455644 228.89961 
L 180.534574 231.126048 
L 178.613504 233.349438 
L 176.692435 235.666984 
L 174.771365 237.988857 
L 172.850295 240.279346 
L 170.929225 242.563328 
L 169.008155 244.777341 
L 167.087085 247.016837 
L 165.166016 249.247823 
L 163.244946 251.439262 
L 161.323876 253.692443 
L 159.402806 256.010872 
L 157.481736 258.198919 
L 155.560666 260.394348 
L 153.639597 262.729062 
L 151.718527 265.010302 
L 149.797457 267.260312 
L 147.876387 269.510323 
L 145.955317 271.760334 
L 144.034247 274.010345 
L 142.113178 276.276911 
L 140.192108 278.50915 
L 138.271038 280.757815 
z
" clip-path="url(#pb9466d92fc)" style="fill: #ff7f0e; fill-opacity: 0.15"/>
   </g>
   <g id="matplotlib.axis_1">
    <g id="xtick_1">
     <g id="line2d_1">
      <defs>
       <path id="m15a93ad3a9" d="M 0 0 
L 0 3.5 
" style="stroke: #000000; stroke-width: 0.8"/>
      </defs>
      <g>
       <use xlink:href="#m15a93ad3a9" x="75.999145" y="314.44" style="stroke: #000000; stroke-width: 0.8"/>
      </g>
     </g>
     <g id="text_1">
      <!-- 40 -->
      <g transform="translate(69.636645 329.038437) scale(0.1 -0.1)">
       <defs>
        <path id="DejaVuSans-34" d="M 2419 4116 
L 825 1625 
L 2419 1625 
L 2419 4116 
z
M 2253 4666 
L 3047 4666 
L 3047 1625 
L 3713 1625 
L 3713 1100 
L 3047 1100 
L 3047 0 
L 2419 0 
L 2419 1100 
L 313 1100 
L 313 1709 
L 2253 4666 
z
" transform="scale(0.015625)"/>
        <path id="DejaVuSans-30" d="M 2034 4250 
Q 1547 4250 1301 3770 
Q 1056 3291 1056 2328 
Q 1056 1369 1301 889 
Q 1547 409 2034 409 
Q 2525 409 2770 889 
Q 3016 1369 3016 2328 
Q 3016 3291 2770 3770 
Q 2525 4250 2034 4250 
z
M 2034 4750 
Q 2819 4750 3233 4129 
Q 3647 3509 3647 2328 
Q 3647 1150 3233 529 
Q 2819 -91 2034 -91 
Q 1250 -91 836 529 
Q 422 1150 422 2328 
Q 422 3509 836 4129 
Q 1250 4750 2034 4750 
z
" transform="scale(0.015625)"/>
       </defs>
       <use xlink:href="#DejaVuSans-34"/>
       <use xlink:href="#DejaVuSans-30" transform="translate(63.623047 0)"/>
      </g>
     </g>
    </g>
    <g id="xtick_2">
     <g id="line2d_2">
      <g>
       <use xlink:href="#m15a93ad3a9" x="114.737492" y="314.44" style="stroke: #000000; stroke-width: 0.8"/>
      </g>
     </g>
     <g id="text_2">
      <!-- 60 -->
      <g transform="translate(108.374992 329.038437) scale(0.1 -0.1)">
       <defs>
        <path id="DejaVuSans-36" d="M 2113 2584 
Q 1688 2584 1439 2293 
Q 1191 2003 1191 1497 
Q 1191 994 1439 701 
Q 1688 409 2113 409 
Q 2538 409 2786 701 
Q 3034 994 3034 1497 
Q 3034 2003 2786 2293 
Q 2538 2584 2113 2584 
z
M 3366 4563 
L 3366 3988 
Q 3128 4100 2886 4159 
Q 2644 4219 2406 4219 
Q 1781 4219 1451 3797 
Q 1122 3375 1075 2522 
Q 1259 2794 1537 2939 
Q 1816 3084 2150 3084 
Q 2853 3084 3261 2657 
Q 3669 2231 3669 1497 
Q 3669 778 3244 343 
Q 2819 -91 2113 -91 
Q 1303 -91 875 529 
Q 447 1150 447 2328 
Q 447 3434 972 4092 
Q 1497 4750 2381 4750 
Q 2619 4750 2861 4703 
Q 3103 4656 3366 4563 
z
" transform="scale(0.015625)"/>
       </defs>
       <use xlink:href="#DejaVuSans-36"/>
       <use xlink:href="#DejaVuSans-30" transform="translate(63.623047 0)"/>
      </g>
     </g>
    </g>
    <g id="xtick_3">
     <g id="line2d_3">
      <g>
       <use xlink:href="#m15a93ad3a9" x="153.475839" y="314.44" style="stroke: #000000; stroke-width: 0.8"/>
      </g>
     </g>
     <g id="text_3">
      <!-- 80 -->
      <g transform="translate(147.113339 329.038437) scale(0.1 -0.1)">
       <defs>
        <path id="DejaVuSans-38" d="M 2034 2216 
Q 1584 2216 1326 1975 
Q 1069 1734 1069 1313 
Q 1069 891 1326 650 
Q 1584 409 2034 409 
Q 2484 409 2743 651 
Q 3003 894 3003 1313 
Q 3003 1734 2745 1975 
Q 2488 2216 2034 2216 
z
M 1403 2484 
Q 997 2584 770 2862 
Q 544 3141 544 3541 
Q 544 4100 942 4425 
Q 1341 4750 2034 4750 
Q 2731 4750 3128 4425 
Q 3525 4100 3525 3541 
Q 3525 3141 3298 2862 
Q 3072 2584 2669 2484 
Q 3125 2378 3379 2068 
Q 3634 1759 3634 1313 
Q 3634 634 3220 271 
Q 2806 -91 2034 -91 
Q 1263 -91 848 271 
Q 434 634 434 1313 
Q 434 1759 690 2068 
Q 947 2378 1403 2484 
z
M 1172 3481 
Q 1172 3119 1398 2916 
Q 1625 2713 2034 2713 
Q 2441 2713 2670 2916 
Q 2900 3119 2900 3481 
Q 2900 3844 2670 4047 
Q 2441 4250 2034 4250 
Q 1625 4250 1398 4047 
Q 1172 3844 1172 3481 
z
" transform="scale(0.015625)"/>
       </defs>
       <use xlink:href="#DejaVuSans-38"/>
       <use xlink:href="#DejaVuSans-30" transform="translate(63.623047 0)"/>
      </g>
     </g>
    </g>
    <g id="xtick_4">
     <g id="line2d_4">
      <g>
       <use xlink:href="#m15a93ad3a9" x="192.214186" y="314.44" style="stroke: #000000; stroke-width: 0.8"/>
      </g>
     </g>
     <g id="text_4">
      <!-- 100 -->
      <g transform="translate(182.670436 329.038437) scale(0.1 -0.1)">
       <defs>
        <path id="DejaVuSans-31" d="M 794 531 
L 1825 531 
L 1825 4091 
L 703 3866 
L 703 4441 
L 1819 4666 
L 2450 4666 
L 2450 531 
L 3481 531 
L 3481 0 
L 794 0 
L 794 531 
z
" transform="scale(0.015625)"/>
       </defs>
       <use xlink:href="#DejaVuSans-31"/>
       <use xlink:href="#DejaVuSans-30" transform="translate(63.623047 0)"/>
       <use xlink:href="#DejaVuSans-30" transform="translate(127.246094 0)"/>
      </g>
     </g>
    </g>
    <g id="xtick_5">
     <g id="line2d_5">
      <g>
       <use xlink:href="#m15a93ad3a9" x="230.952533" y="314.44" style="stroke: #000000; stroke-width: 0.8"/>
      </g>
     </g>
     <g id="text_5">
      <!-- 120 -->
      <g transform="translate(221.408783 329.038437) scale(0.1 -0.1)">
       <defs>
        <path id="DejaVuSans-32" d="M 1228 531 
L 3431 531 
L 3431 0 
L 469 0 
L 469 531 
Q 828 903 1448 1529 
Q 2069 2156 2228 2338 
Q 2531 2678 2651 2914 
Q 2772 3150 2772 3378 
Q 2772 3750 2511 3984 
Q 2250 4219 1831 4219 
Q 1534 4219 1204 4116 
Q 875 4013 500 3803 
L 500 4441 
Q 881 4594 1212 4672 
Q 1544 4750 1819 4750 
Q 2544 4750 2975 4387 
Q 3406 4025 3406 3419 
Q 3406 3131 3298 2873 
Q 3191 2616 2906 2266 
Q 2828 2175 2409 1742 
Q 1991 1309 1228 531 
z
" transform="scale(0.015625)"/>
       </defs>
       <use xlink:href="#DejaVuSans-31"/>
       <use xlink:href="#DejaVuSans-32" transform="translate(63.623047 0)"/>
       <use xlink:href="#DejaVuSans-30" transform="translate(127.246094 0)"/>
      </g>
     </g>
    </g>
    <g id="xtick_6">
     <g id="line2d_6">
      <g>
       <use xlink:href="#m15a93ad3a9" x="269.690879" y="314.44" style="stroke: #000000; stroke-width: 0.8"/>
      </g>
     </g>
     <g id="text_6">
      <!-- 140 -->
      <g transform="translate(260.147129 329.038437) scale(0.1 -0.1)">
       <use xlink:href="#DejaVuSans-31"/>
       <use xlink:href="#DejaVuSans-34" transform="translate(63.623047 0)"/>
       <use xlink:href="#DejaVuSans-30" transform="translate(127.246094 0)"/>
      </g>
     </g>
    </g>
    <g id="xtick_7">
     <g id="line2d_7">
      <g>
       <use xlink:href="#m15a93ad3a9" x="308.429226" y="314.44" style="stroke: #000000; stroke-width: 0.8"/>
      </g>
     </g>
     <g id="text_7">
      <!-- 160 -->
      <g transform="translate(298.885476 329.038437) scale(0.1 -0.1)">
       <use xlink:href="#DejaVuSans-31"/>
       <use xlink:href="#DejaVuSans-36" transform="translate(63.623047 0)"/>
       <use xlink:href="#DejaVuSans-30" transform="translate(127.246094 0)"/>
      </g>
     </g>
    </g>
    <g id="text_8">
     <!-- MW, g/mol -->
     <g transform="translate(167.905836 342.716562) scale(0.1 -0.1)">
      <defs>
       <path id="DejaVuSans-4d" d="M 628 4666 
L 1569 4666 
L 2759 1491 
L 3956 4666 
L 4897 4666 
L 4897 0 
L 4281 0 
L 4281 4097 
L 3078 897 
L 2444 897 
L 1241 4097 
L 1241 0 
L 628 0 
L 628 4666 
z
" transform="scale(0.015625)"/>
       <path id="DejaVuSans-57" d="M 213 4666 
L 850 4666 
L 1831 722 
L 2809 4666 
L 3519 4666 
L 4500 722 
L 5478 4666 
L 6119 4666 
L 4947 0 
L 4153 0 
L 3169 4050 
L 2175 0 
L 1381 0 
L 213 4666 
z
" transform="scale(0.015625)"/>
       <path id="DejaVuSans-2c" d="M 750 794 
L 1409 794 
L 1409 256 
L 897 -744 
L 494 -744 
L 750 256 
L 750 794 
z
" transform="scale(0.015625)"/>
       <path id="DejaVuSans-20" transform="scale(0.015625)"/>
       <path id="DejaVuSans-67" d="M 2906 1791 
Q 2906 2416 2648 2759 
Q 2391 3103 1925 3103 
Q 1463 3103 1205 2759 
Q 947 2416 947 1791 
Q 947 1169 1205 825 
Q 1463 481 1925 481 
Q 2391 481 2648 825 
Q 2906 1169 2906 1791 
z
M 3481 434 
Q 3481 -459 3084 -895 
Q 2688 -1331 1869 -1331 
Q 1566 -1331 1297 -1286 
Q 1028 -1241 775 -1147 
L 775 -588 
Q 1028 -725 1275 -790 
Q 1522 -856 1778 -856 
Q 2344 -856 2625 -561 
Q 2906 -266 2906 331 
L 2906 616 
Q 2728 306 2450 153 
Q 2172 0 1784 0 
Q 1141 0 747 490 
Q 353 981 353 1791 
Q 353 2603 747 3093 
Q 1141 3584 1784 3584 
Q 2172 3584 2450 3431 
Q 2728 3278 2906 2969 
L 2906 3500 
L 3481 3500 
L 3481 434 
z
" transform="scale(0.015625)"/>
       <path id="DejaVuSans-2f" d="M 1625 4666 
L 2156 4666 
L 531 -594 
L 0 -594 
L 1625 4666 
z
" transform="scale(0.015625)"/>
       <path id="DejaVuSans-6d" d="M 3328 2828 
Q 3544 3216 3844 3400 
Q 4144 3584 4550 3584 
Q 5097 3584 5394 3201 
Q 5691 2819 5691 2113 
L 5691 0 
L 5113 0 
L 5113 2094 
Q 5113 2597 4934 2840 
Q 4756 3084 4391 3084 
Q 3944 3084 3684 2787 
Q 3425 2491 3425 1978 
L 3425 0 
L 2847 0 
L 2847 2094 
Q 2847 2600 2669 2842 
Q 2491 3084 2119 3084 
Q 1678 3084 1418 2786 
Q 1159 2488 1159 1978 
L 1159 0 
L 581 0 
L 581 3500 
L 1159 3500 
L 1159 2956 
Q 1356 3278 1631 3431 
Q 1906 3584 2284 3584 
Q 2666 3584 2933 3390 
Q 3200 3197 3328 2828 
z
" transform="scale(0.015625)"/>
       <path id="DejaVuSans-6f" d="M 1959 3097 
Q 1497 3097 1228 2736 
Q 959 2375 959 1747 
Q 959 1119 1226 758 
Q 1494 397 1959 397 
Q 2419 397 2687 759 
Q 2956 1122 2956 1747 
Q 2956 2369 2687 2733 
Q 2419 3097 1959 3097 
z
M 1959 3584 
Q 2709 3584 3137 3096 
Q 3566 2609 3566 1747 
Q 3566 888 3137 398 
Q 2709 -91 1959 -91 
Q 1206 -91 779 398 
Q 353 888 353 1747 
Q 353 2609 779 3096 
Q 1206 3584 1959 3584 
z
" transform="scale(0.015625)"/>
       <path id="DejaVuSans-6c" d="M 603 4863 
L 1178 4863 
L 1178 0 
L 603 0 
L 603 4863 
z
" transform="scale(0.015625)"/>
      </defs>
      <use xlink:href="#DejaVuSans-4d"/>
      <use xlink:href="#DejaVuSans-57" transform="translate(86.279297 0)"/>
      <use xlink:href="#DejaVuSans-2c" transform="translate(185.15625 0)"/>
      <use xlink:href="#DejaVuSans-20" transform="translate(216.943359 0)"/>
      <use xlink:href="#DejaVuSans-67" transform="translate(248.730469 0)"/>
      <use xlink:href="#DejaVuSans-2f" transform="translate(312.207031 0)"/>
      <use xlink:href="#DejaVuSans-6d" transform="translate(345.898438 0)"/>
      <use xlink:href="#DejaVuSans-6f" transform="translate(443.310547 0)"/>
      <use xlink:href="#DejaVuSans-6c" transform="translate(504.492188 0)"/>
     </g>
    </g>
   </g>
   <g id="matplotlib.axis_2">
    <g id="ytick_1">
     <g id="line2d_8">
      <defs>
       <path id="mf910fcb3c9" d="M 0 0 
L -3.5 0 
" style="stroke: #000000; stroke-width: 0.8"/>
      </defs>
      <g>
       <use xlink:href="#mf910fcb3c9" x="47.1875" y="272.970299" style="stroke: #000000; stroke-width: 0.8"/>
      </g>
     </g>
     <g id="text_9">
      <!-- 50 -->
      <g transform="translate(27.4625 276.769518) scale(0.1 -0.1)">
       <defs>
        <path id="DejaVuSans-35" d="M 691 4666 
L 3169 4666 
L 3169 4134 
L 1269 4134 
L 1269 2991 
Q 1406 3038 1543 3061 
Q 1681 3084 1819 3084 
Q 2600 3084 3056 2656 
Q 3513 2228 3513 1497 
Q 3513 744 3044 326 
Q 2575 -91 1722 -91 
Q 1428 -91 1123 -41 
Q 819 9 494 109 
L 494 744 
Q 775 591 1075 516 
Q 1375 441 1709 441 
Q 2250 441 2565 725 
Q 2881 1009 2881 1497 
Q 2881 1984 2565 2268 
Q 2250 2553 1709 2553 
Q 1456 2553 1204 2497 
Q 953 2441 691 2322 
L 691 4666 
z
" transform="scale(0.015625)"/>
       </defs>
       <use xlink:href="#DejaVuSans-35"/>
       <use xlink:href="#DejaVuSans-30" transform="translate(63.623047 0)"/>
      </g>
     </g>
    </g>
    <g id="ytick_2">
     <g id="line2d_9">
      <g>
       <use xlink:href="#mf910fcb3c9" x="47.1875" y="210.460649" style="stroke: #000000; stroke-width: 0.8"/>
      </g>
     </g>
     <g id="text_10">
      <!-- 100 -->
      <g transform="translate(21.1 214.259868) scale(0.1 -0.1)">
       <use xlink:href="#DejaVuSans-31"/>
       <use xlink:href="#DejaVuSans-30" transform="translate(63.623047 0)"/>
       <use xlink:href="#DejaVuSans-30" transform="translate(127.246094 0)"/>
      </g>
     </g>
    </g>
    <g id="ytick_3">
     <g id="line2d_10">
      <g>
       <use xlink:href="#mf910fcb3c9" x="47.1875" y="147.950999" style="stroke: #000000; stroke-width: 0.8"/>
      </g>
     </g>
     <g id="text_11">
      <!-- 150 -->
      <g transform="translate(21.1 151.750218) scale(0.1 -0.1)">
       <use xlink:href="#DejaVuSans-31"/>
       <use xlink:href="#DejaVuSans-35" transform="translate(63.623047 0)"/>
       <use xlink:href="#DejaVuSans-30" transform="translate(127.246094 0)"/>
      </g>
     </g>
    </g>
    <g id="ytick_4">
     <g id="line2d_11">
      <g>
       <use xlink:href="#mf910fcb3c9" x="47.1875" y="85.441349" style="stroke: #000000; stroke-width: 0.8"/>
      </g>
     </g>
     <g id="text_12">
      <!-- 200 -->
      <g transform="translate(21.1 89.240567) scale(0.1 -0.1)">
       <use xlink:href="#DejaVuSans-32"/>
       <use xlink:href="#DejaVuSans-30" transform="translate(63.623047 0)"/>
       <use xlink:href="#DejaVuSans-30" transform="translate(127.246094 0)"/>
      </g>
     </g>
    </g>
    <g id="ytick_5">
     <g id="line2d_12">
      <g>
       <use xlink:href="#mf910fcb3c9" x="47.1875" y="22.931698" style="stroke: #000000; stroke-width: 0.8"/>
      </g>
     </g>
     <g id="text_13">
      <!-- 250 -->
      <g transform="translate(21.1 26.730917) scale(0.1 -0.1)">
       <use xlink:href="#DejaVuSans-32"/>
       <use xlink:href="#DejaVuSans-35" transform="translate(63.623047 0)"/>
       <use xlink:href="#DejaVuSans-30" transform="translate(127.246094 0)"/>
      </g>
     </g>
    </g>
    <g id="text_14">
     <!-- bp, $^o$C -->
     <g transform="translate(15 176.17) rotate(-90) scale(0.1 -0.1)">
      <defs>
       <path id="DejaVuSans-62" d="M 3116 1747 
Q 3116 2381 2855 2742 
Q 2594 3103 2138 3103 
Q 1681 3103 1420 2742 
Q 1159 2381 1159 1747 
Q 1159 1113 1420 752 
Q 1681 391 2138 391 
Q 2594 391 2855 752 
Q 3116 1113 3116 1747 
z
M 1159 2969 
Q 1341 3281 1617 3432 
Q 1894 3584 2278 3584 
Q 2916 3584 3314 3078 
Q 3713 2572 3713 1747 
Q 3713 922 3314 415 
Q 2916 -91 2278 -91 
Q 1894 -91 1617 61 
Q 1341 213 1159 525 
L 1159 0 
L 581 0 
L 581 4863 
L 1159 4863 
L 1159 2969 
z
" transform="scale(0.015625)"/>
       <path id="DejaVuSans-70" d="M 1159 525 
L 1159 -1331 
L 581 -1331 
L 581 3500 
L 1159 3500 
L 1159 2969 
Q 1341 3281 1617 3432 
Q 1894 3584 2278 3584 
Q 2916 3584 3314 3078 
Q 3713 2572 3713 1747 
Q 3713 922 3314 415 
Q 2916 -91 2278 -91 
Q 1894 -91 1617 61 
Q 1341 213 1159 525 
z
M 3116 1747 
Q 3116 2381 2855 2742 
Q 2594 3103 2138 3103 
Q 1681 3103 1420 2742 
Q 1159 2381 1159 1747 
Q 1159 1113 1420 752 
Q 1681 391 2138 391 
Q 2594 391 2855 752 
Q 3116 1113 3116 1747 
z
" transform="scale(0.015625)"/>
       <path id="DejaVuSans-Oblique-6f" d="M 1625 -91 
Q 1009 -91 651 289 
Q 294 669 294 1325 
Q 294 1706 417 2101 
Q 541 2497 738 2766 
Q 1047 3184 1428 3384 
Q 1809 3584 2291 3584 
Q 2888 3584 3255 3212 
Q 3622 2841 3622 2241 
Q 3622 1825 3500 1412 
Q 3378 1000 3181 728 
Q 2875 309 2494 109 
Q 2113 -91 1625 -91 
z
M 891 1344 
Q 891 869 1089 633 
Q 1288 397 1691 397 
Q 2269 397 2648 901 
Q 3028 1406 3028 2181 
Q 3028 2634 2825 2865 
Q 2622 3097 2228 3097 
Q 1903 3097 1650 2945 
Q 1397 2794 1197 2484 
Q 1050 2253 970 1956 
Q 891 1659 891 1344 
z
" transform="scale(0.015625)"/>
       <path id="DejaVuSans-43" d="M 4122 4306 
L 4122 3641 
Q 3803 3938 3442 4084 
Q 3081 4231 2675 4231 
Q 1875 4231 1450 3742 
Q 1025 3253 1025 2328 
Q 1025 1406 1450 917 
Q 1875 428 2675 428 
Q 3081 428 3442 575 
Q 3803 722 4122 1019 
L 4122 359 
Q 3791 134 3420 21 
Q 3050 -91 2638 -91 
Q 1578 -91 968 557 
Q 359 1206 359 2328 
Q 359 3453 968 4101 
Q 1578 4750 2638 4750 
Q 3056 4750 3426 4639 
Q 3797 4528 4122 4306 
z
" transform="scale(0.015625)"/>
      </defs>
      <use xlink:href="#DejaVuSans-62" transform="translate(0 0.51875)"/>
      <use xlink:href="#DejaVuSans-70" transform="translate(63.476562 0.51875)"/>
      <use xlink:href="#DejaVuSans-2c" transform="translate(126.953125 0.51875)"/>
      <use xlink:href="#DejaVuSans-20" transform="translate(158.740234 0.51875)"/>
      <use xlink:href="#DejaVuSans-Oblique-6f" transform="translate(191.484375 38.8) scale(0.7)"/>
      <use xlink:href="#DejaVuSans-43" transform="translate(237.045898 0.51875)"/>
     </g>
    </g>
   </g>
   <g id="line2d_13">
    <path d="M 60.581283 264.832096 
L 63.051146 262.575024 
L 65.52101 260.317951 
L 67.990873 258.060879 
L 70.460736 255.803807 
L 72.930599 253.546735 
L 75.400462 251.289663 
L 77.870325 249.032591 
L 80.340188 246.775518 
L 82.810051 244.518446 
L 85.279914 242.261374 
L 87.749777 240.004302 
L 90.21964 237.74723 
L 92.689503 235.490158 
L 95.159367 233.233086 
L 97.62923 230.976013 
L 100.099093 228.718941 
L 102.568956 226.461869 
L 105.038819 224.204797 
L 107.508682 221.947725 
L 109.978545 219.690653 
L 112.448408 217.43358 
L 114.918271 215.176508 
L 117.388134 212.919436 
L 119.857997 210.662364 
L 122.32786 208.405292 
L 124.797724 206.14822 
L 127.267587 203.891147 
L 129.73745 201.634075 
L 132.207313 199.377003 
L 134.677176 197.119931 
L 137.147039 194.862859 
L 139.616902 192.605787 
L 142.086765 190.348714 
L 144.556628 188.091642 
L 147.026491 185.83457 
L 149.496354 183.577498 
L 151.966217 181.320426 
L 154.436081 179.063354 
L 156.905944 176.806282 
L 159.375807 174.549209 
L 161.84567 172.292137 
L 164.315533 170.035065 
L 166.785396 167.777993 
L 169.255259 165.520921 
L 171.725122 163.263849 
L 174.194985 161.006776 
L 176.664848 158.749704 
L 179.134711 156.492632 
L 181.604574 154.23556 
L 184.074437 151.978488 
L 186.544301 149.721416 
L 189.014164 147.464343 
L 191.484027 145.207271 
L 193.95389 142.950199 
L 196.423753 140.693127 
L 198.893616 138.436055 
L 201.363479 136.178983 
L 203.833342 133.92191 
L 206.303205 131.664838 
L 208.773068 129.407766 
L 211.242931 127.150694 
L 213.712794 124.893622 
L 216.182658 122.63655 
L 218.652521 120.379477 
L 221.122384 118.122405 
L 223.592247 115.865333 
L 226.06211 113.608261 
L 228.531973 111.351189 
L 231.001836 109.094117 
L 233.471699 106.837045 
L 235.941562 104.579972 
L 238.411425 102.3229 
L 240.881288 100.065828 
L 243.351151 97.808756 
L 245.821015 95.551684 
L 248.290878 93.294612 
L 250.760741 91.037539 
L 253.230604 88.780467 
L 255.700467 86.523395 
L 258.17033 84.266323 
L 260.640193 82.009251 
L 263.110056 79.752179 
L 265.579919 77.495106 
L 268.049782 75.238034 
L 270.519645 72.980962 
L 272.989508 70.72389 
L 275.459371 68.466818 
L 277.929235 66.209746 
L 280.399098 63.952673 
L 282.868961 61.695601 
L 285.338824 59.438529 
L 287.808687 57.181457 
L 290.27855 54.924385 
L 292.748413 52.667313 
L 295.218276 50.410241 
L 297.688139 48.153168 
L 300.158002 45.896096 
L 302.627865 43.639024 
L 305.097728 41.381952 
" clip-path="url(#pb9466d92fc)" style="fill: none; stroke: #1f77b4; stroke-width: 2.25; stroke-linecap: square"/>
   </g>
   <g id="line2d_14">
    <path d="M 138.271038 289.181466 
L 140.192108 286.81665 
L 142.113178 284.451834 
L 144.034247 282.087018 
L 145.955317 279.722202 
L 147.876387 277.357386 
L 149.797457 274.99257 
L 151.718527 272.627754 
L 153.639597 270.262938 
L 155.560666 267.898122 
L 157.481736 265.533306 
L 159.402806 263.16849 
L 161.323876 260.803674 
L 163.244946 258.438858 
L 165.166016 256.074042 
L 167.087085 253.709226 
L 169.008155 251.34441 
L 170.929225 248.979594 
L 172.850295 246.614778 
L 174.771365 244.249962 
L 176.692435 241.885146 
L 178.613504 239.52033 
L 180.534574 237.155514 
L 182.455644 234.790698 
L 184.376714 232.425882 
L 186.297784 230.061067 
L 188.218854 227.696251 
L 190.139923 225.331435 
L 192.060993 222.966619 
L 193.982063 220.601803 
L 195.903133 218.236987 
L 197.824203 215.872171 
L 199.745273 213.507355 
L 201.666342 211.142539 
L 203.587412 208.777723 
L 205.508482 206.412907 
L 207.429552 204.048091 
L 209.350622 201.683275 
L 211.271692 199.318459 
L 213.192761 196.953643 
L 215.113831 194.588827 
L 217.034901 192.224011 
L 218.955971 189.859195 
L 220.877041 187.494379 
L 222.798111 185.129563 
L 224.719181 182.764747 
L 226.64025 180.399931 
L 228.56132 178.035115 
L 230.48239 175.670299 
L 232.40346 173.305483 
L 234.32453 170.940668 
L 236.2456 168.575852 
L 238.166669 166.211036 
L 240.087739 163.84622 
L 242.008809 161.481404 
L 243.929879 159.116588 
L 245.850949 156.751772 
L 247.772019 154.386956 
L 249.693088 152.02214 
L 251.614158 149.657324 
L 253.535228 147.292508 
L 255.456298 144.927692 
L 257.377368 142.562876 
L 259.298438 140.19806 
L 261.219507 137.833244 
L 263.140577 135.468428 
L 265.061647 133.103612 
L 266.982717 130.738796 
L 268.903787 128.37398 
L 270.824857 126.009164 
L 272.745926 123.644348 
L 274.666996 121.279532 
L 276.588066 118.914716 
L 278.509136 116.5499 
L 280.430206 114.185084 
L 282.351276 111.820269 
L 284.272345 109.455453 
L 286.193415 107.090637 
L 288.114485 104.725821 
L 290.035555 102.361005 
L 291.956625 99.996189 
L 293.877695 97.631373 
L 295.798764 95.266557 
L 297.719834 92.901741 
L 299.640904 90.536925 
L 301.561974 88.172109 
L 303.483044 85.807293 
L 305.404114 83.442477 
L 307.325183 81.077661 
L 309.246253 78.712845 
L 311.167323 76.348029 
L 313.088393 73.983213 
L 315.009463 71.618397 
L 316.930533 69.253581 
L 318.851602 66.888765 
L 320.772672 64.523949 
L 322.693742 62.159133 
L 324.614812 59.794317 
L 326.535882 57.429501 
L 328.456952 55.064685 
" clip-path="url(#pb9466d92fc)" style="fill: none; stroke: #ff7f0e; stroke-width: 2.25; stroke-linecap: square"/>
   </g>
   <g id="patch_3">
    <path d="M 47.1875 314.44 
L 47.1875 7.2 
" style="fill: none; stroke: #000000; stroke-width: 0.8; stroke-linejoin: miter; stroke-linecap: square"/>
   </g>
   <g id="patch_4">
    <path d="M 47.1875 314.44 
L 341.850735 314.44 
" style="fill: none; stroke: #000000; stroke-width: 0.8; stroke-linejoin: miter; stroke-linecap: square"/>
   </g>
  </g>
  <g id="legend_1">
   <g id="text_15">
    <!-- type -->
    <g transform="translate(368.139716 164.079375) scale(0.1 -0.1)">
     <defs>
      <path id="DejaVuSans-74" d="M 1172 4494 
L 1172 3500 
L 2356 3500 
L 2356 3053 
L 1172 3053 
L 1172 1153 
Q 1172 725 1289 603 
Q 1406 481 1766 481 
L 2356 481 
L 2356 0 
L 1766 0 
Q 1100 0 847 248 
Q 594 497 594 1153 
L 594 3053 
L 172 3053 
L 172 3500 
L 594 3500 
L 594 4494 
L 1172 4494 
z
" transform="scale(0.015625)"/>
      <path id="DejaVuSans-79" d="M 2059 -325 
Q 1816 -950 1584 -1140 
Q 1353 -1331 966 -1331 
L 506 -1331 
L 506 -850 
L 844 -850 
Q 1081 -850 1212 -737 
Q 1344 -625 1503 -206 
L 1606 56 
L 191 3500 
L 800 3500 
L 1894 763 
L 2988 3500 
L 3597 3500 
L 2059 -325 
z
" transform="scale(0.015625)"/>
      <path id="DejaVuSans-65" d="M 3597 1894 
L 3597 1613 
L 953 1613 
Q 991 1019 1311 708 
Q 1631 397 2203 397 
Q 2534 397 2845 478 
Q 3156 559 3463 722 
L 3463 178 
Q 3153 47 2828 -22 
Q 2503 -91 2169 -91 
Q 1331 -91 842 396 
Q 353 884 353 1716 
Q 353 2575 817 3079 
Q 1281 3584 2069 3584 
Q 2775 3584 3186 3129 
Q 3597 2675 3597 1894 
z
M 3022 2063 
Q 3016 2534 2758 2815 
Q 2500 3097 2075 3097 
Q 1594 3097 1305 2825 
Q 1016 2553 972 2059 
L 3022 2063 
z
" transform="scale(0.015625)"/>
     </defs>
     <use xlink:href="#DejaVuSans-74"/>
     <use xlink:href="#DejaVuSans-79" transform="translate(39.208984 0)"/>
     <use xlink:href="#DejaVuSans-70" transform="translate(98.388672 0)"/>
     <use xlink:href="#DejaVuSans-65" transform="translate(161.865234 0)"/>
    </g>
   </g>
   <g id="PathCollection_3">
    <g>
     <use xlink:href="#m2c6dd2b83d" x="357.431122" y="176.1325" style="fill: #1f77b4; fill-opacity: 0.8; stroke: #1f77b4; stroke-opacity: 0.8"/>
    </g>
   </g>
   <g id="text_16">
    <!-- alcohol -->
    <g transform="translate(375.431122 178.7575) scale(0.1 -0.1)">
     <defs>
      <path id="DejaVuSans-61" d="M 2194 1759 
Q 1497 1759 1228 1600 
Q 959 1441 959 1056 
Q 959 750 1161 570 
Q 1363 391 1709 391 
Q 2188 391 2477 730 
Q 2766 1069 2766 1631 
L 2766 1759 
L 2194 1759 
z
M 3341 1997 
L 3341 0 
L 2766 0 
L 2766 531 
Q 2569 213 2275 61 
Q 1981 -91 1556 -91 
Q 1019 -91 701 211 
Q 384 513 384 1019 
Q 384 1609 779 1909 
Q 1175 2209 1959 2209 
L 2766 2209 
L 2766 2266 
Q 2766 2663 2505 2880 
Q 2244 3097 1772 3097 
Q 1472 3097 1187 3025 
Q 903 2953 641 2809 
L 641 3341 
Q 956 3463 1253 3523 
Q 1550 3584 1831 3584 
Q 2591 3584 2966 3190 
Q 3341 2797 3341 1997 
z
" transform="scale(0.015625)"/>
      <path id="DejaVuSans-63" d="M 3122 3366 
L 3122 2828 
Q 2878 2963 2633 3030 
Q 2388 3097 2138 3097 
Q 1578 3097 1268 2742 
Q 959 2388 959 1747 
Q 959 1106 1268 751 
Q 1578 397 2138 397 
Q 2388 397 2633 464 
Q 2878 531 3122 666 
L 3122 134 
Q 2881 22 2623 -34 
Q 2366 -91 2075 -91 
Q 1284 -91 818 406 
Q 353 903 353 1747 
Q 353 2603 823 3093 
Q 1294 3584 2113 3584 
Q 2378 3584 2631 3529 
Q 2884 3475 3122 3366 
z
" transform="scale(0.015625)"/>
      <path id="DejaVuSans-68" d="M 3513 2113 
L 3513 0 
L 2938 0 
L 2938 2094 
Q 2938 2591 2744 2837 
Q 2550 3084 2163 3084 
Q 1697 3084 1428 2787 
Q 1159 2491 1159 1978 
L 1159 0 
L 581 0 
L 581 4863 
L 1159 4863 
L 1159 2956 
Q 1366 3272 1645 3428 
Q 1925 3584 2291 3584 
Q 2894 3584 3203 3211 
Q 3513 2838 3513 2113 
z
" transform="scale(0.015625)"/>
     </defs>
     <use xlink:href="#DejaVuSans-61"/>
     <use xlink:href="#DejaVuSans-6c" transform="translate(61.279297 0)"/>
     <use xlink:href="#DejaVuSans-63" transform="translate(89.0625 0)"/>
     <use xlink:href="#DejaVuSans-6f" transform="translate(144.042969 0)"/>
     <use xlink:href="#DejaVuSans-68" transform="translate(205.224609 0)"/>
     <use xlink:href="#DejaVuSans-6f" transform="translate(268.603516 0)"/>
     <use xlink:href="#DejaVuSans-6c" transform="translate(329.785156 0)"/>
    </g>
   </g>
   <g id="PathCollection_4">
    <g>
     <use xlink:href="#m29f380990a" x="357.431122" y="190.810625" style="fill: #ff7f0e; fill-opacity: 0.8; stroke: #ff7f0e; stroke-opacity: 0.8"/>
    </g>
   </g>
   <g id="text_17">
    <!-- alkane -->
    <g transform="translate(375.431122 193.435625) scale(0.1 -0.1)">
     <defs>
      <path id="DejaVuSans-6b" d="M 581 4863 
L 1159 4863 
L 1159 1991 
L 2875 3500 
L 3609 3500 
L 1753 1863 
L 3688 0 
L 2938 0 
L 1159 1709 
L 1159 0 
L 581 0 
L 581 4863 
z
" transform="scale(0.015625)"/>
      <path id="DejaVuSans-6e" d="M 3513 2113 
L 3513 0 
L 2938 0 
L 2938 2094 
Q 2938 2591 2744 2837 
Q 2550 3084 2163 3084 
Q 1697 3084 1428 2787 
Q 1159 2491 1159 1978 
L 1159 0 
L 581 0 
L 581 3500 
L 1159 3500 
L 1159 2956 
Q 1366 3272 1645 3428 
Q 1925 3584 2291 3584 
Q 2894 3584 3203 3211 
Q 3513 2838 3513 2113 
z
" transform="scale(0.015625)"/>
     </defs>
     <use xlink:href="#DejaVuSans-61"/>
     <use xlink:href="#DejaVuSans-6c" transform="translate(61.279297 0)"/>
     <use xlink:href="#DejaVuSans-6b" transform="translate(89.0625 0)"/>
     <use xlink:href="#DejaVuSans-61" transform="translate(145.222656 0)"/>
     <use xlink:href="#DejaVuSans-6e" transform="translate(206.501953 0)"/>
     <use xlink:href="#DejaVuSans-65" transform="translate(269.880859 0)"/>
    </g>
   </g>
  </g>
 </g>
 <defs>
  <clipPath id="pb9466d92fc">
   <rect x="47.1875" y="7.2" width="294.663235" height="307.24"/>
  </clipPath>
 </defs>
</svg>