<?xml version="1.0" encoding="utf-8" standalone="no"?>
<!DOCTYPE svg PUBLIC "-//W3C//DTD SVG 1.1//EN"
  "http://www.w3.org/Graphics/SVG/1.1/DTD/svg11.dtd">
<svg xmlns:xlink="http://www.w3.org/1999/xlink" width="391.245pt" height="297.190125pt" viewBox="0 0 391.245 297.190125" xmlns="http://www.w3.org/2000/svg" version="1.1">
 <metadata>
  <rdf:RDF xmlns:dc="http://purl.org/dc/elements/1.1/" xmlns:cc="http://creativecommons.org/ns#" xmlns:rdf="http://www.w3.org/1999/02/22-rdf-syntax-ns#">
   <cc:Work>
    <dc:type rdf:resource="http://purl.org/dc/dcmitype/StillImage"/>
    <dc:date>2025-07-04T13:51:05.892066</dc:date>
    <dc:format>image/svg+xml</dc:format>
    <dc:creator>
     <cc:Agent>
      <dc:title>Matplotlib v3.10.3, https://matplotlib.org/</dc:title>
     </cc:Agent>
    </dc:creator>
   </cc:Work>
  </rdf:RDF>
 </metadata>
 <defs>
  <style type="text/css">*{stroke-linejoin: round; stroke-linecap: butt}</style>
 </defs>
 <g id="figure_1">
  <g id="patch_1">
   <path d="M 0 297.190125 
L 391.245 297.190125 
L 391.245 0 
L 0 0 
z
" style="fill: #ffffff"/>
  </g>
  <g id="axes_1">
   <g id="patch_2">
    <path d="M 26.925 273.312 
L 384.045 273.312 
L 384.045 7.2 
L 26.925 7.2 
z
" style="fill: #ffffff"/>
   </g>
   <g id="PathCollection_1">
    <defs>
     <path id="m754b31dfc8" d="M 0 3 
C 0.795609 3 1.55874 2.683901 2.12132 2.12132 
C 2.683901 1.55874 3 0.795609 3 0 
C 3 -0.795609 2.683901 -1.55874 2.12132 -2.12132 
C 1.55874 -2.683901 0.795609 -3 0 -3 
C -0.795609 -3 -1.55874 -2.683901 -2.12132 -2.12132 
C -2.683901 -1.55874 -3 -0.795609 -3 0 
C -3 0.795609 -2.683901 1.55874 -2.12132 2.12132 
C -1.55874 2.683901 -0.795609 3 0 3 
z
" style="stroke: #1f77b4; stroke-opacity: 0.8"/>
    </defs>
    <g clip-path="url(#pa80f575c70)">
     <use xlink:href="#m754b31dfc8" x="43.157727" y="245.439026" style="fill: #1f77b4; fill-opacity: 0.8; stroke: #1f77b4; stroke-opacity: 0.8"/>
     <use xlink:href="#m754b31dfc8" x="79.230455" y="231.594462" style="fill: #1f77b4; fill-opacity: 0.8; stroke: #1f77b4; stroke-opacity: 0.8"/>
     <use xlink:href="#m754b31dfc8" x="115.303182" y="191.153554" style="fill: #1f77b4; fill-opacity: 0.8; stroke: #1f77b4; stroke-opacity: 0.8"/>
     <use xlink:href="#m754b31dfc8" x="151.375909" y="188.832293" style="fill: #1f77b4; fill-opacity: 0.8; stroke: #1f77b4; stroke-opacity: 0.8"/>
     <use xlink:href="#m754b31dfc8" x="187.448636" y="134.381541" style="fill: #1f77b4; fill-opacity: 0.8; stroke: #1f77b4; stroke-opacity: 0.8"/>
     <use xlink:href="#m754b31dfc8" x="223.521364" y="124.704952" style="fill: #1f77b4; fill-opacity: 0.8; stroke: #1f77b4; stroke-opacity: 0.8"/>
     <use xlink:href="#m754b31dfc8" x="259.594091" y="117.086282" style="fill: #1f77b4; fill-opacity: 0.8; stroke: #1f77b4; stroke-opacity: 0.8"/>
     <use xlink:href="#m754b31dfc8" x="295.666818" y="85.938867" style="fill: #1f77b4; fill-opacity: 0.8; stroke: #1f77b4; stroke-opacity: 0.8"/>
     <use xlink:href="#m754b31dfc8" x="331.739545" y="53.608244" style="fill: #1f77b4; fill-opacity: 0.8; stroke: #1f77b4; stroke-opacity: 0.8"/>
     <use xlink:href="#m754b31dfc8" x="367.812273" y="19.350088" style="fill: #1f77b4; fill-opacity: 0.8; stroke: #1f77b4; stroke-opacity: 0.8"/>
    </g>
   </g>
   <g id="FillBetweenPolyCollection_1">
    <path d="M 43.157727 237.059603 
L 43.157727 261.216 
L 46.437066 258.859508 
L 49.716405 256.503016 
L 52.995744 254.146523 
L 56.275083 251.818935 
L 59.554421 249.50835 
L 62.83376 247.190634 
L 66.113099 244.875252 
L 69.392438 242.558202 
L 72.671777 240.241113 
L 75.951116 237.924024 
L 79.230455 235.546097 
L 82.509793 233.165575 
L 85.789132 230.785052 
L 89.068471 228.404529 
L 92.34781 226.024006 
L 95.627149 223.643483 
L 98.906488 221.279845 
L 102.185826 218.901387 
L 105.465165 216.555026 
L 108.744504 214.142342 
L 112.023843 211.745647 
L 115.303182 209.389826 
L 118.582521 207.035494 
L 121.86186 204.682037 
L 125.141198 202.413794 
L 128.420537 200.039412 
L 131.699876 197.783719 
L 134.979215 195.479577 
L 138.258554 193.125685 
L 141.537893 190.841081 
L 144.817231 188.556227 
L 148.09657 186.177765 
L 151.375909 183.839892 
L 154.655248 181.472478 
L 157.934587 179.059377 
L 161.213926 176.644763 
L 164.493264 174.230148 
L 167.772603 171.953213 
L 171.051942 169.738831 
L 174.331281 167.587514 
L 177.61062 165.454236 
L 180.889959 163.105413 
L 184.169298 160.798793 
L 187.448636 158.377289 
L 190.727975 156.128167 
L 194.007314 153.77461 
L 197.286653 151.620768 
L 200.565992 149.612744 
L 203.845331 147.275884 
L 207.124669 144.993317 
L 210.404008 142.714869 
L 213.683347 140.441605 
L 216.962686 138.237144 
L 220.242025 136.046218 
L 223.521364 133.856921 
L 226.800702 131.600403 
L 230.080041 129.392677 
L 233.35938 127.231868 
L 236.638719 125.103979 
L 239.918058 122.966555 
L 243.197397 120.823558 
L 246.476736 118.659959 
L 249.756074 116.59687 
L 253.035413 114.390912 
L 256.314752 112.271878 
L 259.594091 110.086161 
L 262.87343 108.031881 
L 266.152769 105.995327 
L 269.432107 103.938101 
L 272.711446 101.843647 
L 275.990785 99.750769 
L 279.270124 97.657841 
L 282.549463 95.562674 
L 285.828802 93.49742 
L 289.10814 91.414341 
L 292.387479 89.479616 
L 295.666818 87.473636 
L 298.946157 85.464868 
L 302.225496 83.424011 
L 305.504835 81.337244 
L 308.784174 79.396983 
L 312.063512 77.362714 
L 315.342851 75.272954 
L 318.62219 73.212458 
L 321.901529 71.178886 
L 325.180868 69.180433 
L 328.460207 67.162286 
L 331.739545 65.144138 
L 335.018884 63.12599 
L 338.298223 61.107843 
L 341.577562 59.064627 
L 344.856901 56.93505 
L 348.13624 54.929244 
L 351.415579 52.877364 
L 354.694917 50.718524 
L 357.974256 48.718714 
L 361.253595 46.777106 
L 364.532934 44.835449 
L 367.812273 42.862158 
L 367.812273 19.296 
L 367.812273 19.296 
L 364.532934 21.574283 
L 361.253595 23.8642 
L 357.974256 26.154117 
L 354.694917 28.444034 
L 351.415579 30.733952 
L 348.13624 33.023869 
L 344.856901 35.313786 
L 341.577562 37.604291 
L 338.298223 39.895575 
L 335.018884 42.186858 
L 331.739545 44.478141 
L 328.460207 46.769425 
L 325.180868 49.09231 
L 321.901529 51.433516 
L 318.62219 53.741734 
L 315.342851 56.064354 
L 312.063512 58.378601 
L 308.784174 60.713228 
L 305.504835 63.046221 
L 302.225496 65.379215 
L 298.946157 67.6824 
L 295.666818 69.940659 
L 292.387479 72.192488 
L 289.10814 74.488812 
L 285.828802 76.837579 
L 282.549463 79.186346 
L 279.270124 81.535844 
L 275.990785 83.87274 
L 272.711446 86.07595 
L 269.432107 88.332591 
L 266.152769 90.511385 
L 262.87343 92.827732 
L 259.594091 95.066169 
L 256.314752 97.403126 
L 253.035413 99.740082 
L 249.756074 101.990521 
L 246.476736 104.130648 
L 243.197397 106.334825 
L 239.918058 108.623032 
L 236.638719 110.955508 
L 233.35938 113.284391 
L 230.080041 115.48226 
L 226.800702 117.772793 
L 223.521364 120.068571 
L 220.242025 122.340725 
L 216.962686 124.632158 
L 213.683347 126.92335 
L 210.404008 129.018639 
L 207.124669 131.380724 
L 203.845331 133.458794 
L 200.565992 135.755394 
L 197.286653 138.055054 
L 194.007314 140.299385 
L 190.727975 142.428397 
L 187.448636 144.666555 
L 184.169298 146.64079 
L 180.889959 148.833696 
L 177.61062 150.944373 
L 174.331281 153.168361 
L 171.051942 155.373071 
L 167.772603 157.447781 
L 164.493264 159.708898 
L 161.213926 161.804769 
L 157.934587 163.968306 
L 154.655248 166.055768 
L 151.375909 168.240864 
L 148.09657 170.265607 
L 144.817231 172.286781 
L 141.537893 174.406426 
L 138.258554 176.608668 
L 134.979215 178.771217 
L 131.699876 180.82211 
L 128.420537 183.08203 
L 125.141198 185.142248 
L 121.86186 187.204405 
L 118.582521 189.3842 
L 115.303182 191.441677 
L 112.023843 193.430899 
L 108.744504 195.439441 
L 105.465165 197.49656 
L 102.185826 199.513553 
L 98.906488 201.607222 
L 95.627149 203.673396 
L 92.34781 205.731293 
L 89.068471 207.792024 
L 85.789132 209.848668 
L 82.509793 211.908318 
L 79.230455 213.984837 
L 75.951116 216.081663 
L 72.671777 218.178903 
L 69.392438 220.27803 
L 66.113099 222.402226 
L 62.83376 224.551636 
L 59.554421 226.592013 
L 56.275083 228.767848 
L 52.995744 230.843993 
L 49.716405 232.896568 
L 46.437066 234.962959 
L 43.157727 237.059603 
z
" clip-path="url(#pa80f575c70)" style="fill: #1f77b4; fill-opacity: 0.15"/>
   </g>
   <g id="matplotlib.axis_1">
    <g id="xtick_1">
     <g id="line2d_1">
      <defs>
       <path id="m14fd264d8b" d="M 0 0 
L 0 3.5 
" style="stroke: #000000; stroke-width: 0.8"/>
      </defs>
      <g>
       <use xlink:href="#m14fd264d8b" x="43.157727" y="273.312" style="stroke: #000000; stroke-width: 0.8"/>
      </g>
     </g>
     <g id="text_1">
      <!-- 0 -->
      <g transform="translate(39.976477 287.910437) scale(0.1 -0.1)">
       <defs>
        <path id="DejaVuSans-30" d="M 2034 4250 
Q 1547 4250 1301 3770 
Q 1056 3291 1056 2328 
Q 1056 1369 1301 889 
Q 1547 409 2034 409 
Q 2525 409 2770 889 
Q 3016 1369 3016 2328 
Q 3016 3291 2770 3770 
Q 2525 4250 2034 4250 
z
M 2034 4750 
Q 2819 4750 3233 4129 
Q 3647 3509 3647 2328 
Q 3647 1150 3233 529 
Q 2819 -91 2034 -91 
Q 1250 -91 836 529 
Q 422 1150 422 2328 
Q 422 3509 836 4129 
Q 1250 4750 2034 4750 
z
" transform="scale(0.015625)"/>
       </defs>
       <use xlink:href="#DejaVuSans-30"/>
      </g>
     </g>
    </g>
    <g id="xtick_2">
     <g id="line2d_2">
      <g>
       <use xlink:href="#m14fd264d8b" x="115.303182" y="273.312" style="stroke: #000000; stroke-width: 0.8"/>
      </g>
     </g>
     <g id="text_2">
      <!-- 2 -->
      <g transform="translate(112.121932 287.910437) scale(0.1 -0.1)">
       <defs>
        <path id="DejaVuSans-32" d="M 1228 531 
L 3431 531 
L 3431 0 
L 469 0 
L 469 531 
Q 828 903 1448 1529 
Q 2069 2156 2228 2338 
Q 2531 2678 2651 2914 
Q 2772 3150 2772 3378 
Q 2772 3750 2511 3984 
Q 2250 4219 1831 4219 
Q 1534 4219 1204 4116 
Q 875 4013 500 3803 
L 500 4441 
Q 881 4594 1212 4672 
Q 1544 4750 1819 4750 
Q 2544 4750 2975 4387 
Q 3406 4025 3406 3419 
Q 3406 3131 3298 2873 
Q 3191 2616 2906 2266 
Q 2828 2175 2409 1742 
Q 1991 1309 1228 531 
z
" transform="scale(0.015625)"/>
       </defs>
       <use xlink:href="#DejaVuSans-32"/>
      </g>
     </g>
    </g>
    <g id="xtick_3">
     <g id="line2d_3">
      <g>
       <use xlink:href="#m14fd264d8b" x="187.448636" y="273.312" style="stroke: #000000; stroke-width: 0.8"/>
      </g>
     </g>
     <g id="text_3">
      <!-- 4 -->
      <g transform="translate(184.267386 287.910437) scale(0.1 -0.1)">
       <defs>
        <path id="DejaVuSans-34" d="M 2419 4116 
L 825 1625 
L 2419 1625 
L 2419 4116 
z
M 2253 4666 
L 3047 4666 
L 3047 1625 
L 3713 1625 
L 3713 1100 
L 3047 1100 
L 3047 0 
L 2419 0 
L 2419 1100 
L 313 1100 
L 313 1709 
L 2253 4666 
z
" transform="scale(0.015625)"/>
       </defs>
       <use xlink:href="#DejaVuSans-34"/>
      </g>
     </g>
    </g>
    <g id="xtick_4">
     <g id="line2d_4">
      <g>
       <use xlink:href="#m14fd264d8b" x="259.594091" y="273.312" style="stroke: #000000; stroke-width: 0.8"/>
      </g>
     </g>
     <g id="text_4">
      <!-- 6 -->
      <g transform="translate(256.412841 287.910437) scale(0.1 -0.1)">
       <defs>
        <path id="DejaVuSans-36" d="M 2113 2584 
Q 1688 2584 1439 2293 
Q 1191 2003 1191 1497 
Q 1191 994 1439 701 
Q 1688 409 2113 409 
Q 2538 409 2786 701 
Q 3034 994 3034 1497 
Q 3034 2003 2786 2293 
Q 2538 2584 2113 2584 
z
M 3366 4563 
L 3366 3988 
Q 3128 4100 2886 4159 
Q 2644 4219 2406 4219 
Q 1781 4219 1451 3797 
Q 1122 3375 1075 2522 
Q 1259 2794 1537 2939 
Q 1816 3084 2150 3084 
Q 2853 3084 3261 2657 
Q 3669 2231 3669 1497 
Q 3669 778 3244 343 
Q 2819 -91 2113 -91 
Q 1303 -91 875 529 
Q 447 1150 447 2328 
Q 447 3434 972 4092 
Q 1497 4750 2381 4750 
Q 2619 4750 2861 4703 
Q 3103 4656 3366 4563 
z
" transform="scale(0.015625)"/>
       </defs>
       <use xlink:href="#DejaVuSans-36"/>
      </g>
     </g>
    </g>
    <g id="xtick_5">
     <g id="line2d_5">
      <g>
       <use xlink:href="#m14fd264d8b" x="331.739545" y="273.312" style="stroke: #000000; stroke-width: 0.8"/>
      </g>
     </g>
     <g id="text_5">
      <!-- 8 -->
      <g transform="translate(328.558295 287.910437) scale(0.1 -0.1)">
       <defs>
        <path id="DejaVuSans-38" d="M 2034 2216 
Q 1584 2216 1326 1975 
Q 1069 1734 1069 1313 
Q 1069 891 1326 650 
Q 1584 409 2034 409 
Q 2484 409 2743 651 
Q 3003 894 3003 1313 
Q 3003 1734 2745 1975 
Q 2488 2216 2034 2216 
z
M 1403 2484 
Q 997 2584 770 2862 
Q 544 3141 544 3541 
Q 544 4100 942 4425 
Q 1341 4750 2034 4750 
Q 2731 4750 3128 4425 
Q 3525 4100 3525 3541 
Q 3525 3141 3298 2862 
Q 3072 2584 2669 2484 
Q 3125 2378 3379 2068 
Q 3634 1759 3634 1313 
Q 3634 634 3220 271 
Q 2806 -91 2034 -91 
Q 1263 -91 848 271 
Q 434 634 434 1313 
Q 434 1759 690 2068 
Q 947 2378 1403 2484 
z
M 1172 3481 
Q 1172 3119 1398 2916 
Q 1625 2713 2034 2713 
Q 2441 2713 2670 2916 
Q 2900 3119 2900 3481 
Q 2900 3844 2670 4047 
Q 2441 4250 2034 4250 
Q 1625 4250 1398 4047 
Q 1172 3844 1172 3481 
z
" transform="scale(0.015625)"/>
       </defs>
       <use xlink:href="#DejaVuSans-38"/>
      </g>
     </g>
    </g>
   </g>
   <g id="matplotlib.axis_2">
    <g id="ytick_1">
     <g id="line2d_6">
      <defs>
       <path id="m225c37c4fd" d="M 0 0 
L -3.5 0 
" style="stroke: #000000; stroke-width: 0.8"/>
      </defs>
      <g>
       <use xlink:href="#m225c37c4fd" x="26.925" y="240.842681" style="stroke: #000000; stroke-width: 0.8"/>
      </g>
     </g>
     <g id="text_6">
      <!-- 0 -->
      <g transform="translate(13.5625 244.6419) scale(0.1 -0.1)">
       <use xlink:href="#DejaVuSans-30"/>
      </g>
     </g>
    </g>
    <g id="ytick_2">
     <g id="line2d_7">
      <g>
       <use xlink:href="#m225c37c4fd" x="26.925" y="187.686082" style="stroke: #000000; stroke-width: 0.8"/>
      </g>
     </g>
     <g id="text_7">
      <!-- 5 -->
      <g transform="translate(13.5625 191.485301) scale(0.1 -0.1)">
       <defs>
        <path id="DejaVuSans-35" d="M 691 4666 
L 3169 4666 
L 3169 4134 
L 1269 4134 
L 1269 2991 
Q 1406 3038 1543 3061 
Q 1681 3084 1819 3084 
Q 2600 3084 3056 2656 
Q 3513 2228 3513 1497 
Q 3513 744 3044 326 
Q 2575 -91 1722 -91 
Q 1428 -91 1123 -41 
Q 819 9 494 109 
L 494 744 
Q 775 591 1075 516 
Q 1375 441 1709 441 
Q 2250 441 2565 725 
Q 2881 1009 2881 1497 
Q 2881 1984 2565 2268 
Q 2250 2553 1709 2553 
Q 1456 2553 1204 2497 
Q 953 2441 691 2322 
L 691 4666 
z
" transform="scale(0.015625)"/>
       </defs>
       <use xlink:href="#DejaVuSans-35"/>
      </g>
     </g>
    </g>
    <g id="ytick_3">
     <g id="line2d_8">
      <g>
       <use xlink:href="#m225c37c4fd" x="26.925" y="134.529482" style="stroke: #000000; stroke-width: 0.8"/>
      </g>
     </g>
     <g id="text_8">
      <!-- 10 -->
      <g transform="translate(7.2 138.328701) scale(0.1 -0.1)">
       <defs>
        <path id="DejaVuSans-31" d="M 794 531 
L 1825 531 
L 1825 4091 
L 703 3866 
L 703 4441 
L 1819 4666 
L 2450 4666 
L 2450 531 
L 3481 531 
L 3481 0 
L 794 0 
L 794 531 
z
" transform="scale(0.015625)"/>
       </defs>
       <use xlink:href="#DejaVuSans-31"/>
       <use xlink:href="#DejaVuSans-30" transform="translate(63.623047 0)"/>
      </g>
     </g>
    </g>
    <g id="ytick_4">
     <g id="line2d_9">
      <g>
       <use xlink:href="#m225c37c4fd" x="26.925" y="81.372883" style="stroke: #000000; stroke-width: 0.8"/>
      </g>
     </g>
     <g id="text_9">
      <!-- 15 -->
      <g transform="translate(7.2 85.172102) scale(0.1 -0.1)">
       <use xlink:href="#DejaVuSans-31"/>
       <use xlink:href="#DejaVuSans-35" transform="translate(63.623047 0)"/>
      </g>
     </g>
    </g>
    <g id="ytick_5">
     <g id="line2d_10">
      <g>
       <use xlink:href="#m225c37c4fd" x="26.925" y="28.216283" style="stroke: #000000; stroke-width: 0.8"/>
      </g>
     </g>
     <g id="text_10">
      <!-- 20 -->
      <g transform="translate(7.2 32.015502) scale(0.1 -0.1)">
       <use xlink:href="#DejaVuSans-32"/>
       <use xlink:href="#DejaVuSans-30" transform="translate(63.623047 0)"/>
      </g>
     </g>
    </g>
   </g>
   <g id="line2d_11">
    <path d="M 43.157727 249.164168 
L 46.437066 246.94285 
L 49.716405 244.721532 
L 52.995744 242.500214 
L 56.275083 240.278896 
L 59.554421 238.057579 
L 62.83376 235.836261 
L 66.113099 233.614943 
L 69.392438 231.393625 
L 72.671777 229.172307 
L 75.951116 226.950989 
L 79.230455 224.729671 
L 82.509793 222.508353 
L 85.789132 220.287035 
L 89.068471 218.065717 
L 92.34781 215.844399 
L 95.627149 213.623081 
L 98.906488 211.401763 
L 102.185826 209.180446 
L 105.465165 206.959128 
L 108.744504 204.73781 
L 112.023843 202.516492 
L 115.303182 200.295174 
L 118.582521 198.073856 
L 121.86186 195.852538 
L 125.141198 193.63122 
L 128.420537 191.409902 
L 131.699876 189.188584 
L 134.979215 186.967266 
L 138.258554 184.745948 
L 141.537893 182.52463 
L 144.817231 180.303313 
L 148.09657 178.081995 
L 151.375909 175.860677 
L 154.655248 173.639359 
L 157.934587 171.418041 
L 161.213926 169.196723 
L 164.493264 166.975405 
L 167.772603 164.754087 
L 171.051942 162.532769 
L 174.331281 160.311451 
L 177.61062 158.090133 
L 180.889959 155.868815 
L 184.169298 153.647497 
L 187.448636 151.426179 
L 190.727975 149.204862 
L 194.007314 146.983544 
L 197.286653 144.762226 
L 200.565992 142.540908 
L 203.845331 140.31959 
L 207.124669 138.098272 
L 210.404008 135.876954 
L 213.683347 133.655636 
L 216.962686 131.434318 
L 220.242025 129.213 
L 223.521364 126.991682 
L 226.800702 124.770364 
L 230.080041 122.549046 
L 233.35938 120.327729 
L 236.638719 118.106411 
L 239.918058 115.885093 
L 243.197397 113.663775 
L 246.476736 111.442457 
L 249.756074 109.221139 
L 253.035413 106.999821 
L 256.314752 104.778503 
L 259.594091 102.557185 
L 262.87343 100.335867 
L 266.152769 98.114549 
L 269.432107 95.893231 
L 272.711446 93.671913 
L 275.990785 91.450596 
L 279.270124 89.229278 
L 282.549463 87.00796 
L 285.828802 84.786642 
L 289.10814 82.565324 
L 292.387479 80.344006 
L 295.666818 78.122688 
L 298.946157 75.90137 
L 302.225496 73.680052 
L 305.504835 71.458734 
L 308.784174 69.237416 
L 312.063512 67.016098 
L 315.342851 64.79478 
L 318.62219 62.573463 
L 321.901529 60.352145 
L 325.180868 58.130827 
L 328.460207 55.909509 
L 331.739545 53.688191 
L 335.018884 51.466873 
L 338.298223 49.245555 
L 341.577562 47.024237 
L 344.856901 44.802919 
L 348.13624 42.581601 
L 351.415579 40.360283 
L 354.694917 38.138965 
L 357.974256 35.917647 
L 361.253595 33.69633 
L 364.532934 31.475012 
L 367.812273 29.253694 
" clip-path="url(#pa80f575c70)" style="fill: none; stroke: #1f77b4; stroke-width: 2.25; stroke-linecap: square"/>
   </g>
   <g id="patch_3">
    <path d="M 26.925 273.312 
L 26.925 7.2 
" style="fill: none; stroke: #000000; stroke-width: 0.8; stroke-linejoin: miter; stroke-linecap: square"/>
   </g>
   <g id="patch_4">
    <path d="M 384.045 273.312 
L 384.045 7.2 
" style="fill: none; stroke: #000000; stroke-width: 0.8; stroke-linejoin: miter; stroke-linecap: square"/>
   </g>
   <g id="patch_5">
    <path d="M 26.925 273.312 
L 384.045 273.312 
" style="fill: none; stroke: #000000; stroke-width: 0.8; stroke-linejoin: miter; stroke-linecap: square"/>
   </g>
   <g id="patch_6">
    <path d="M 26.925 7.2 
L 384.045 7.2 
" style="fill: none; stroke: #000000; stroke-width: 0.8; stroke-linejoin: miter; stroke-linecap: square"/>
   </g>
  </g>
 </g>
 <defs>
  <clipPath id="pa80f575c70">
   <rect x="26.925" y="7.2" width="357.12" height="266.112"/>
  </clipPath>
 </defs>
</svg>