<?xml version="1.0" encoding="utf-8" standalone="no"?>
<!DOCTYPE svg PUBLIC "-//W3C//DTD SVG 1.1//EN"
  "http://www.w3.org/Graphics/SVG/1.1/DTD/svg11.dtd">
<svg xmlns:xlink="http://www.w3.org/1999/xlink" width="420.188935pt" height="351.99625pt" viewBox="0 0 420.188935 351.99625" xmlns="http://www.w3.org/2000/svg" version="1.1">
 <metadata>
  <rdf:RDF xmlns:dc="http://purl.org/dc/elements/1.1/" xmlns:cc="http://creativecommons.org/ns#" xmlns:rdf="http://www.w3.org/1999/02/22-rdf-syntax-ns#">
   <cc:Work>
    <dc:type rdf:resource="http://purl.org/dc/dcmitype/StillImage"/>
    <dc:date>2025-12-28T13:56:07.723737</dc:date>
    <dc:format>image/svg+xml</dc:format>
    <dc:creator>
     <cc:Agent>
      <dc:title>Matplotlib v3.10.3, https://matplotlib.org/</dc:title>
     </cc:Agent>
    </dc:creator>
   </cc:Work>
  </rdf:RDF>
 </metadata>
 <defs>
  <style type="text/css">*{stroke-linejoin: round; stroke-linecap: butt}</style>
 </defs>
 <g id="figure_1">
  <g id="patch_1">
   <path d="M 0 351.99625 
L 420.188935 351.99625 
L 420.188935 0 
L 0 0 
z
" style="fill: #ffffff"/>
  </g>
  <g id="axes_1">
   <g id="patch_2">
    <path d="M 47.1875 314.44 
L 341.850735 314.44 
L 341.850735 7.2 
L 47.1875 7.2 
z
" style="fill: #ffffff"/>
   </g>
   <g id="PathCollection_1">
    <defs>
     <path id="mffbf90faf8" d="M 0 3 
C 0.795609 3 1.55874 2.683901 2.12132 2.12132 
C 2.683901 1.55874 3 0.795609 3 0 
C 3 -0.795609 2.683901 -1.55874 2.12132 -2.12132 
C 1.55874 -2.683901 0.795609 -3 0 -3 
C -0.795609 -3 -1.55874 -2.683901 -2.12132 -2.12132 
C -2.683901 -1.55874 -3 -0.795609 -3 0 
C -3 0.795609 -2.683901 1.55874 -2.12132 2.12132 
C -1.55874 2.683901 -0.795609 3 0 3 
z
" style="stroke: #1f77b4; stroke-opacity: 0.8"/>
    </defs>
    <g clip-path="url(#p1743099a64)">
     <use xlink:href="#mffbf90faf8" x="60.581283" y="254.422626" style="fill: #1f77b4; fill-opacity: 0.8; stroke: #1f77b4; stroke-opacity: 0.8"/>
     <use xlink:href="#mffbf90faf8" x="87.756234" y="238.242222" style="fill: #1f77b4; fill-opacity: 0.8; stroke: #1f77b4; stroke-opacity: 0.8"/>
     <use xlink:href="#mffbf90faf8" x="114.931184" y="213.349293" style="fill: #1f77b4; fill-opacity: 0.8; stroke: #1f77b4; stroke-opacity: 0.8"/>
     <use xlink:href="#mffbf90faf8" x="142.086765" y="188.456363" style="fill: #1f77b4; fill-opacity: 0.8; stroke: #1f77b4; stroke-opacity: 0.8"/>
     <use xlink:href="#mffbf90faf8" x="169.261715" y="162.318787" style="fill: #1f77b4; fill-opacity: 0.8; stroke: #1f77b4; stroke-opacity: 0.8"/>
     <use xlink:href="#mffbf90faf8" x="196.436666" y="139.915151" style="fill: #1f77b4; fill-opacity: 0.8; stroke: #1f77b4; stroke-opacity: 0.8"/>
     <use xlink:href="#mffbf90faf8" x="223.592247" y="116.266868" style="fill: #1f77b4; fill-opacity: 0.8; stroke: #1f77b4; stroke-opacity: 0.8"/>
     <use xlink:href="#mffbf90faf8" x="250.767197" y="92.618585" style="fill: #1f77b4; fill-opacity: 0.8; stroke: #1f77b4; stroke-opacity: 0.8"/>
     <use xlink:href="#mffbf90faf8" x="277.922778" y="71.459595" style="fill: #1f77b4; fill-opacity: 0.8; stroke: #1f77b4; stroke-opacity: 0.8"/>
     <use xlink:href="#mffbf90faf8" x="305.097728" y="46.566666" style="fill: #1f77b4; fill-opacity: 0.8; stroke: #1f77b4; stroke-opacity: 0.8"/>
     <use xlink:href="#mffbf90faf8" x="142.086765" y="200.902828" style="fill: #1f77b4; fill-opacity: 0.8; stroke: #1f77b4; stroke-opacity: 0.8"/>
     <use xlink:href="#mffbf90faf8" x="142.086765" y="232.01899" style="fill: #1f77b4; fill-opacity: 0.8; stroke: #1f77b4; stroke-opacity: 0.8"/>
     <use xlink:href="#mffbf90faf8" x="169.261715" y="172.275959" style="fill: #1f77b4; fill-opacity: 0.8; stroke: #1f77b4; stroke-opacity: 0.8"/>
     <use xlink:href="#mffbf90faf8" x="196.436666" y="167.297373" style="fill: #1f77b4; fill-opacity: 0.8; stroke: #1f77b4; stroke-opacity: 0.8"/>
     <use xlink:href="#mffbf90faf8" x="223.592247" y="161.074141" style="fill: #1f77b4; fill-opacity: 0.8; stroke: #1f77b4; stroke-opacity: 0.8"/>
     <use xlink:href="#mffbf90faf8" x="180.805743" y="108.798989" style="fill: #1f77b4; fill-opacity: 0.8; stroke: #1f77b4; stroke-opacity: 0.8"/>
     <use xlink:href="#mffbf90faf8" x="207.980693" y="83.90606" style="fill: #1f77b4; fill-opacity: 0.8; stroke: #1f77b4; stroke-opacity: 0.8"/>
     <use xlink:href="#mffbf90faf8" x="262.311224" y="61.502424" style="fill: #1f77b4; fill-opacity: 0.8; stroke: #1f77b4; stroke-opacity: 0.8"/>
    </g>
   </g>
   <g id="FillBetweenPolyCollection_1">
    <path d="M 60.581283 250.939368 
L 60.581283 286.069343 
L 63.051146 283.423413 
L 65.52101 280.885417 
L 67.990873 278.347421 
L 70.460736 275.809425 
L 72.930599 273.27053 
L 75.400462 270.728201 
L 77.870325 268.185162 
L 80.340188 265.643744 
L 82.810051 263.106411 
L 85.279914 260.56898 
L 87.749777 258.083969 
L 90.21964 255.579083 
L 92.689503 253.091068 
L 95.159367 250.470814 
L 97.62923 247.881851 
L 100.099093 245.336021 
L 102.568956 242.787299 
L 105.038819 240.302693 
L 107.508682 237.718909 
L 109.978545 235.113853 
L 112.448408 232.401784 
L 114.918271 229.910178 
L 117.388134 227.561138 
L 119.857997 225.029989 
L 122.32786 222.7318 
L 124.797724 220.012454 
L 127.267587 217.548305 
L 129.73745 215.174305 
L 132.207313 212.798087 
L 134.677176 210.233177 
L 137.147039 207.901911 
L 139.616902 205.601267 
L 142.086765 203.303792 
L 144.556628 201.003696 
L 147.026491 198.657618 
L 149.496354 196.176486 
L 151.966217 193.807769 
L 154.436081 191.436896 
L 156.905944 189.051141 
L 159.375807 186.55576 
L 161.84567 184.275898 
L 164.315533 181.935817 
L 166.785396 179.723918 
L 169.255259 177.716541 
L 171.725122 175.310673 
L 174.194985 172.901543 
L 176.664848 170.455922 
L 179.134711 168.054388 
L 181.604574 165.687392 
L 184.074437 163.350352 
L 186.544301 161.140351 
L 189.014164 158.954042 
L 191.484027 156.777818 
L 193.95389 154.666782 
L 196.423753 152.567838 
L 198.893616 150.430466 
L 201.363479 148.136357 
L 203.833342 145.986126 
L 206.303205 143.919012 
L 208.773068 141.741315 
L 211.242931 139.613492 
L 213.712794 137.496599 
L 216.182658 135.401071 
L 218.652521 133.449743 
L 221.122384 131.426736 
L 223.592247 129.30932 
L 226.06211 127.245325 
L 228.531973 125.282031 
L 231.001836 123.317631 
L 233.471699 121.353178 
L 235.941562 119.383957 
L 238.411425 117.121754 
L 240.881288 115.069389 
L 243.351151 113.095029 
L 245.821015 111.083876 
L 248.290878 109.00813 
L 250.760741 106.859927 
L 253.230604 104.807445 
L 255.700467 102.755197 
L 258.17033 100.702831 
L 260.640193 98.629982 
L 263.110056 96.555742 
L 265.579919 94.532871 
L 268.049782 92.496052 
L 270.519645 90.358947 
L 272.989508 88.392504 
L 275.459371 86.342041 
L 277.929235 84.289874 
L 280.399098 82.237707 
L 282.868961 80.185541 
L 285.338824 78.138387 
L 287.808687 76.141421 
L 290.27855 74.05973 
L 292.748413 71.98227 
L 295.218276 70.06274 
L 297.688139 68.1623 
L 300.158002 66.167792 
L 302.627865 64.171693 
L 305.097728 62.068079 
L 305.097728 21.165455 
L 305.097728 21.165455 
L 302.627865 23.693911 
L 300.158002 26.131167 
L 297.688139 28.655102 
L 295.218276 31.358846 
L 292.748413 33.902394 
L 290.27855 36.445942 
L 287.808687 38.893944 
L 285.338824 41.32188 
L 282.868961 43.766187 
L 280.399098 46.588644 
L 277.929235 49.061963 
L 275.459371 51.62222 
L 272.989508 54.009727 
L 270.519645 56.408524 
L 268.049782 59.007463 
L 265.579919 61.46921 
L 263.110056 63.930958 
L 260.640193 66.480635 
L 258.17033 68.857346 
L 255.700467 71.334739 
L 253.230604 73.87937 
L 250.760741 76.42511 
L 248.290878 79.052002 
L 245.821015 81.518481 
L 243.351151 84.059658 
L 240.881288 86.494931 
L 238.411425 88.871998 
L 235.941562 91.249064 
L 233.471699 93.626131 
L 231.001836 96.003197 
L 228.531973 98.402291 
L 226.06211 100.883777 
L 223.592247 103.378351 
L 221.122384 105.912387 
L 218.652521 108.285539 
L 216.182658 110.650305 
L 213.712794 113.023297 
L 211.242931 115.505893 
L 208.773068 117.830334 
L 206.303205 120.267771 
L 203.833342 122.799102 
L 201.363479 125.103305 
L 198.893616 127.53637 
L 196.423753 129.951323 
L 193.95389 132.339596 
L 191.484027 134.723161 
L 189.014164 137.109823 
L 186.544301 139.494264 
L 184.074437 141.873649 
L 181.604574 144.189726 
L 179.134711 146.373471 
L 176.664848 148.590831 
L 174.194985 150.800772 
L 171.725122 153.00133 
L 169.255259 155.372898 
L 166.785396 157.671993 
L 164.315533 160.037141 
L 161.84567 162.432348 
L 159.375807 164.430944 
L 156.905944 166.620079 
L 154.436081 168.810384 
L 151.966217 171.035091 
L 149.496354 173.282067 
L 147.026491 175.538869 
L 144.556628 177.798258 
L 142.086765 180.057648 
L 139.616902 182.311834 
L 137.147039 184.544193 
L 134.677176 186.769726 
L 132.207313 188.871272 
L 129.73745 190.972819 
L 127.267587 193.075375 
L 124.797724 195.336551 
L 122.32786 197.570612 
L 119.857997 199.867099 
L 117.388134 202.015981 
L 114.918271 204.285989 
L 112.448408 206.454435 
L 109.978545 208.619464 
L 107.508682 210.730103 
L 105.038819 212.840742 
L 102.568956 214.871552 
L 100.099093 217.053566 
L 97.62923 219.164334 
L 95.159367 221.186757 
L 92.689503 223.325521 
L 90.21964 225.494043 
L 87.749777 227.600622 
L 85.279914 229.707202 
L 82.810051 231.814116 
L 80.340188 233.84211 
L 77.870325 235.848247 
L 75.400462 238.124743 
L 72.930599 240.253048 
L 70.460736 242.313686 
L 67.990873 244.471776 
L 65.52101 246.627304 
L 63.051146 248.783336 
L 60.581283 250.939368 
z
" clip-path="url(#p1743099a64)" style="fill: #1f77b4; fill-opacity: 0.15"/>
   </g>
   <g id="PathCollection_2">
    <defs>
     <path id="mda496ce104" d="M 0 3 
C 0.795609 3 1.55874 2.683901 2.12132 2.12132 
C 2.683901 1.55874 3 0.795609 3 0 
C 3 -0.795609 2.683901 -1.55874 2.12132 -2.12132 
C 1.55874 -2.683901 0.795609 -3 0 -3 
C -0.795609 -3 -1.55874 -2.683901 -2.12132 -2.12132 
C -2.683901 -1.55874 -3 -0.795609 -3 0 
C -3 0.795609 -2.683901 1.55874 -2.12132 2.12132 
C -1.55874 2.683901 -0.795609 3 0 3 
z
" style="stroke: #ff7f0e; stroke-opacity: 0.8"/>
    </defs>
    <g clip-path="url(#p1743099a64)">
     <use xlink:href="#mda496ce104" x="138.271038" y="290.517374" style="fill: #ff7f0e; fill-opacity: 0.8; stroke: #ff7f0e; stroke-opacity: 0.8"/>
     <use xlink:href="#mda496ce104" x="165.445988" y="249.44404" style="fill: #ff7f0e; fill-opacity: 0.8; stroke: #ff7f0e; stroke-opacity: 0.8"/>
     <use xlink:href="#mda496ce104" x="192.620939" y="213.349293" style="fill: #ff7f0e; fill-opacity: 0.8; stroke: #ff7f0e; stroke-opacity: 0.8"/>
     <use xlink:href="#mda496ce104" x="219.77652" y="178.499192" style="fill: #ff7f0e; fill-opacity: 0.8; stroke: #ff7f0e; stroke-opacity: 0.8"/>
     <use xlink:href="#mda496ce104" x="246.95147" y="147.38303" style="fill: #ff7f0e; fill-opacity: 0.8; stroke: #ff7f0e; stroke-opacity: 0.8"/>
     <use xlink:href="#mda496ce104" x="274.12642" y="118.756161" style="fill: #ff7f0e; fill-opacity: 0.8; stroke: #ff7f0e; stroke-opacity: 0.8"/>
     <use xlink:href="#mda496ce104" x="301.282001" y="91.373939" style="fill: #ff7f0e; fill-opacity: 0.8; stroke: #ff7f0e; stroke-opacity: 0.8"/>
     <use xlink:href="#mda496ce104" x="328.456952" y="66.481009" style="fill: #ff7f0e; fill-opacity: 0.8; stroke: #ff7f0e; stroke-opacity: 0.8"/>
     <use xlink:href="#mda496ce104" x="165.445988" y="256.911919" style="fill: #ff7f0e; fill-opacity: 0.8; stroke: #ff7f0e; stroke-opacity: 0.8"/>
     <use xlink:href="#mda496ce104" x="219.77652" y="189.70101" style="fill: #ff7f0e; fill-opacity: 0.8; stroke: #ff7f0e; stroke-opacity: 0.8"/>
     <use xlink:href="#mda496ce104" x="138.271038" y="300.474545" style="fill: #ff7f0e; fill-opacity: 0.8; stroke: #ff7f0e; stroke-opacity: 0.8"/>
     <use xlink:href="#mda496ce104" x="192.620939" y="235.752929" style="fill: #ff7f0e; fill-opacity: 0.8; stroke: #ff7f0e; stroke-opacity: 0.8"/>
    </g>
   </g>
   <g id="FillBetweenPolyCollection_2">
    <path d="M 138.271038 280.007413 
L 138.271038 296.674846 
L 140.192108 294.271881 
L 142.113178 291.811829 
L 144.034247 289.295983 
L 145.955317 286.802455 
L 147.876387 284.308927 
L 149.797457 281.814896 
L 151.718527 279.294859 
L 153.639597 276.84217 
L 155.560666 274.358503 
L 157.481736 271.900067 
L 159.402806 269.352331 
L 161.323876 266.94845 
L 163.244946 264.58445 
L 165.166016 262.201133 
L 167.087085 259.69887 
L 169.008155 257.264942 
L 170.929225 254.78141 
L 172.850295 252.370028 
L 174.771365 249.974943 
L 176.692435 247.527438 
L 178.613504 245.096468 
L 180.534574 242.651108 
L 182.455644 240.270062 
L 184.376714 237.884031 
L 186.297784 235.395972 
L 188.218854 232.937841 
L 190.139923 230.478638 
L 192.060993 228.019435 
L 193.982063 225.594761 
L 195.903133 223.135024 
L 197.824203 220.74789 
L 199.745273 218.348822 
L 201.666342 216.023723 
L 203.587412 213.673811 
L 205.508482 211.316627 
L 207.429552 208.883024 
L 209.350622 206.533174 
L 211.271692 204.241342 
L 213.192761 201.935711 
L 215.113831 199.526106 
L 217.034901 197.154743 
L 218.955971 194.805527 
L 220.877041 192.453478 
L 222.798111 190.09335 
L 224.719181 187.717765 
L 226.64025 185.350036 
L 228.56132 183.015581 
L 230.48239 180.605774 
L 232.40346 178.271287 
L 234.32453 175.9368 
L 236.2456 173.602875 
L 238.166669 171.270106 
L 240.087739 168.935119 
L 242.008809 166.60127 
L 243.929879 164.278367 
L 245.850949 161.964943 
L 247.772019 159.631037 
L 249.693088 157.321604 
L 251.614158 155.014388 
L 253.535228 152.645465 
L 255.456298 150.271542 
L 257.377368 147.932586 
L 259.298438 145.599 
L 261.219507 143.264381 
L 263.140577 140.929746 
L 265.061647 138.595112 
L 266.982717 136.256417 
L 268.903787 133.926991 
L 270.824857 131.623385 
L 272.745926 129.322451 
L 274.666996 127.056785 
L 276.588066 124.780189 
L 278.509136 122.49176 
L 280.430206 120.169892 
L 282.351276 117.84893 
L 284.272345 115.571449 
L 286.193415 113.311736 
L 288.114485 111.044113 
L 290.035555 108.721136 
L 291.956625 106.422921 
L 293.877695 104.129834 
L 295.798764 101.84581 
L 297.719834 99.548177 
L 299.640904 97.336548 
L 301.561974 95.112113 
L 303.483044 92.829854 
L 305.404114 90.514368 
L 307.325183 88.189715 
L 309.246253 85.865324 
L 311.167323 83.542348 
L 313.088393 81.322943 
L 315.009463 79.048973 
L 316.930533 76.774951 
L 318.851602 74.50271 
L 320.772672 72.231242 
L 322.693742 69.96994 
L 324.614812 67.683103 
L 326.535882 65.409757 
L 328.456952 63.136411 
L 328.456952 41.812443 
L 328.456952 41.812443 
L 326.535882 44.374952 
L 324.614812 46.937462 
L 322.693742 49.499972 
L 320.772672 52.062481 
L 318.851602 54.624991 
L 316.930533 57.186909 
L 315.009463 59.747638 
L 313.088393 62.308367 
L 311.167323 64.869096 
L 309.246253 67.4258 
L 307.325183 69.913317 
L 305.404114 72.400834 
L 303.483044 74.88835 
L 301.561974 77.375867 
L 299.640904 79.863383 
L 297.719834 82.422269 
L 295.798764 84.973889 
L 293.877695 87.469478 
L 291.956625 89.965068 
L 290.035555 92.460657 
L 288.114485 94.956246 
L 286.193415 97.451836 
L 284.272345 99.947425 
L 282.351276 102.448062 
L 280.430206 104.963165 
L 278.509136 107.478269 
L 276.588066 109.993373 
L 274.666996 112.514386 
L 272.745926 115.103489 
L 270.824857 117.629426 
L 268.903787 120.119815 
L 266.982717 122.639679 
L 265.061647 125.24476 
L 263.140577 127.908428 
L 261.219507 130.475302 
L 259.298438 132.968255 
L 257.377368 135.461208 
L 255.456298 137.95416 
L 253.535228 140.503975 
L 251.614158 143.002922 
L 249.693088 145.49744 
L 247.772019 147.991957 
L 245.850949 150.486475 
L 243.929879 152.980992 
L 242.008809 155.498136 
L 240.087739 158.011918 
L 238.166669 160.53719 
L 236.2456 162.996315 
L 234.32453 165.740163 
L 232.40346 168.189285 
L 230.48239 170.520552 
L 228.56132 172.908846 
L 226.64025 175.324999 
L 224.719181 177.751075 
L 222.798111 180.205775 
L 220.877041 182.59397 
L 218.955971 184.914871 
L 217.034901 187.320435 
L 215.113831 189.651326 
L 213.192761 192.014803 
L 211.271692 194.456632 
L 209.350622 196.889193 
L 207.429552 199.229752 
L 205.508482 201.459296 
L 203.587412 203.696537 
L 201.666342 205.999345 
L 199.745273 208.313471 
L 197.824203 210.515782 
L 195.903133 212.765911 
L 193.982063 215.099017 
L 192.060993 217.279907 
L 190.139923 219.460797 
L 188.218854 221.641941 
L 186.297784 223.893673 
L 184.376714 226.212451 
L 182.455644 228.398721 
L 180.534574 230.578513 
L 178.613504 232.790872 
L 176.692435 235.022053 
L 174.771365 237.254638 
L 172.850295 239.487734 
L 170.929225 241.720829 
L 169.008155 243.953924 
L 167.087085 246.19053 
L 165.166016 248.444988 
L 163.244946 250.699447 
L 161.323876 252.953906 
L 159.402806 255.208365 
L 157.481736 257.462824 
L 155.560666 259.717283 
L 153.639597 261.971742 
L 151.718527 264.226201 
L 149.797457 266.48066 
L 147.876387 268.735119 
L 145.955317 270.989578 
L 144.034247 273.244036 
L 142.113178 275.498495 
L 140.192108 277.752954 
L 138.271038 280.007413 
z
" clip-path="url(#p1743099a64)" style="fill: #ff7f0e; fill-opacity: 0.15"/>
   </g>
   <g id="matplotlib.axis_1">
    <g id="xtick_1">
     <g id="line2d_1">
      <defs>
       <path id="m167572b7b8" d="M 0 0 
L 0 3.5 
" style="stroke: #000000; stroke-width: 0.8"/>
      </defs>
      <g>
       <use xlink:href="#m167572b7b8" x="75.999145" y="314.44" style="stroke: #000000; stroke-width: 0.8"/>
      </g>
     </g>
     <g id="text_1">
      <!-- 40 -->
      <g transform="translate(69.636645 329.038437) scale(0.1 -0.1)">
       <defs>
        <path id="DejaVuSans-34" d="M 2419 4116 
L 825 1625 
L 2419 1625 
L 2419 4116 
z
M 2253 4666 
L 3047 4666 
L 3047 1625 
L 3713 1625 
L 3713 1100 
L 3047 1100 
L 3047 0 
L 2419 0 
L 2419 1100 
L 313 1100 
L 313 1709 
L 2253 4666 
z
" transform="scale(0.015625)"/>
        <path id="DejaVuSans-30" d="M 2034 4250 
Q 1547 4250 1301 3770 
Q 1056 3291 1056 2328 
Q 1056 1369 1301 889 
Q 1547 409 2034 409 
Q 2525 409 2770 889 
Q 3016 1369 3016 2328 
Q 3016 3291 2770 3770 
Q 2525 4250 2034 4250 
z
M 2034 4750 
Q 2819 4750 3233 4129 
Q 3647 3509 3647 2328 
Q 3647 1150 3233 529 
Q 2819 -91 2034 -91 
Q 1250 -91 836 529 
Q 422 1150 422 2328 
Q 422 3509 836 4129 
Q 1250 4750 2034 4750 
z
" transform="scale(0.015625)"/>
       </defs>
       <use xlink:href="#DejaVuSans-34"/>
       <use xlink:href="#DejaVuSans-30" transform="translate(63.623047 0)"/>
      </g>
     </g>
    </g>
    <g id="xtick_2">
     <g id="line2d_2">
      <g>
       <use xlink:href="#m167572b7b8" x="114.737492" y="314.44" style="stroke: #000000; stroke-width: 0.8"/>
      </g>
     </g>
     <g id="text_2">
      <!-- 60 -->
      <g transform="translate(108.374992 329.038437) scale(0.1 -0.1)">
       <defs>
        <path id="DejaVuSans-36" d="M 2113 2584 
Q 1688 2584 1439 2293 
Q 1191 2003 1191 1497 
Q 1191 994 1439 701 
Q 1688 409 2113 409 
Q 2538 409 2786 701 
Q 3034 994 3034 1497 
Q 3034 2003 2786 2293 
Q 2538 2584 2113 2584 
z
M 3366 4563 
L 3366 3988 
Q 3128 4100 2886 4159 
Q 2644 4219 2406 4219 
Q 1781 4219 1451 3797 
Q 1122 3375 1075 2522 
Q 1259 2794 1537 2939 
Q 1816 3084 2150 3084 
Q 2853 3084 3261 2657 
Q 3669 2231 3669 1497 
Q 3669 778 3244 343 
Q 2819 -91 2113 -91 
Q 1303 -91 875 529 
Q 447 1150 447 2328 
Q 447 3434 972 4092 
Q 1497 4750 2381 4750 
Q 2619 4750 2861 4703 
Q 3103 4656 3366 4563 
z
" transform="scale(0.015625)"/>
       </defs>
       <use xlink:href="#DejaVuSans-36"/>
       <use xlink:href="#DejaVuSans-30" transform="translate(63.623047 0)"/>
      </g>
     </g>
    </g>
    <g id="xtick_3">
     <g id="line2d_3">
      <g>
       <use xlink:href="#m167572b7b8" x="153.475839" y="314.44" style="stroke: #000000; stroke-width: 0.8"/>
      </g>
     </g>
     <g id="text_3">
      <!-- 80 -->
      <g transform="translate(147.113339 329.038437) scale(0.1 -0.1)">
       <defs>
        <path id="DejaVuSans-38" d="M 2034 2216 
Q 1584 2216 1326 1975 
Q 1069 1734 1069 1313 
Q 1069 891 1326 650 
Q 1584 409 2034 409 
Q 2484 409 2743 651 
Q 3003 894 3003 1313 
Q 3003 1734 2745 1975 
Q 2488 2216 2034 2216 
z
M 1403 2484 
Q 997 2584 770 2862 
Q 544 3141 544 3541 
Q 544 4100 942 4425 
Q 1341 4750 2034 4750 
Q 2731 4750 3128 4425 
Q 3525 4100 3525 3541 
Q 3525 3141 3298 2862 
Q 3072 2584 2669 2484 
Q 3125 2378 3379 2068 
Q 3634 1759 3634 1313 
Q 3634 634 3220 271 
Q 2806 -91 2034 -91 
Q 1263 -91 848 271 
Q 434 634 434 1313 
Q 434 1759 690 2068 
Q 947 2378 1403 2484 
z
M 1172 3481 
Q 1172 3119 1398 2916 
Q 1625 2713 2034 2713 
Q 2441 2713 2670 2916 
Q 2900 3119 2900 3481 
Q 2900 3844 2670 4047 
Q 2441 4250 2034 4250 
Q 1625 4250 1398 4047 
Q 1172 3844 1172 3481 
z
" transform="scale(0.015625)"/>
       </defs>
       <use xlink:href="#DejaVuSans-38"/>
       <use xlink:href="#DejaVuSans-30" transform="translate(63.623047 0)"/>
      </g>
     </g>
    </g>
    <g id="xtick_4">
     <g id="line2d_4">
      <g>
       <use xlink:href="#m167572b7b8" x="192.214186" y="314.44" style="stroke: #000000; stroke-width: 0.8"/>
      </g>
     </g>
     <g id="text_4">
      <!-- 100 -->
      <g transform="translate(182.670436 329.038437) scale(0.1 -0.1)">
       <defs>
        <path id="DejaVuSans-31" d="M 794 531 
L 1825 531 
L 1825 4091 
L 703 3866 
L 703 4441 
L 1819 4666 
L 2450 4666 
L 2450 531 
L 3481 531 
L 3481 0 
L 794 0 
L 794 531 
z
" transform="scale(0.015625)"/>
       </defs>
       <use xlink:href="#DejaVuSans-31"/>
       <use xlink:href="#DejaVuSans-30" transform="translate(63.623047 0)"/>
       <use xlink:href="#DejaVuSans-30" transform="translate(127.246094 0)"/>
      </g>
     </g>
    </g>
    <g id="xtick_5">
     <g id="line2d_5">
      <g>
       <use xlink:href="#m167572b7b8" x="230.952533" y="314.44" style="stroke: #000000; stroke-width: 0.8"/>
      </g>
     </g>
     <g id="text_5">
      <!-- 120 -->
      <g transform="translate(221.408783 329.038437) scale(0.1 -0.1)">
       <defs>
        <path id="DejaVuSans-32" d="M 1228 531 
L 3431 531 
L 3431 0 
L 469 0 
L 469 531 
Q 828 903 1448 1529 
Q 2069 2156 2228 2338 
Q 2531 2678 2651 2914 
Q 2772 3150 2772 3378 
Q 2772 3750 2511 3984 
Q 2250 4219 1831 4219 
Q 1534 4219 1204 4116 
Q 875 4013 500 3803 
L 500 4441 
Q 881 4594 1212 4672 
Q 1544 4750 1819 4750 
Q 2544 4750 2975 4387 
Q 3406 4025 3406 3419 
Q 3406 3131 3298 2873 
Q 3191 2616 2906 2266 
Q 2828 2175 2409 1742 
Q 1991 1309 1228 531 
z
" transform="scale(0.015625)"/>
       </defs>
       <use xlink:href="#DejaVuSans-31"/>
       <use xlink:href="#DejaVuSans-32" transform="translate(63.623047 0)"/>
       <use xlink:href="#DejaVuSans-30" transform="translate(127.246094 0)"/>
      </g>
     </g>
    </g>
    <g id="xtick_6">
     <g id="line2d_6">
      <g>
       <use xlink:href="#m167572b7b8" x="269.690879" y="314.44" style="stroke: #000000; stroke-width: 0.8"/>
      </g>
     </g>
     <g id="text_6">
      <!-- 140 -->
      <g transform="translate(260.147129 329.038437) scale(0.1 -0.1)">
       <use xlink:href="#DejaVuSans-31"/>
       <use xlink:href="#DejaVuSans-34" transform="translate(63.623047 0)"/>
       <use xlink:href="#DejaVuSans-30" transform="translate(127.246094 0)"/>
      </g>
     </g>
    </g>
    <g id="xtick_7">
     <g id="line2d_7">
      <g>
       <use xlink:href="#m167572b7b8" x="308.429226" y="314.44" style="stroke: #000000; stroke-width: 0.8"/>
      </g>
     </g>
     <g id="text_7">
      <!-- 160 -->
      <g transform="translate(298.885476 329.038437) scale(0.1 -0.1)">
       <use xlink:href="#DejaVuSans-31"/>
       <use xlink:href="#DejaVuSans-36" transform="translate(63.623047 0)"/>
       <use xlink:href="#DejaVuSans-30" transform="translate(127.246094 0)"/>
      </g>
     </g>
    </g>
    <g id="text_8">
     <!-- MW, g/mol -->
     <g transform="translate(167.905836 342.716562) scale(0.1 -0.1)">
      <defs>
       <path id="DejaVuSans-4d" d="M 628 4666 
L 1569 4666 
L 2759 1491 
L 3956 4666 
L 4897 4666 
L 4897 0 
L 4281 0 
L 4281 4097 
L 3078 897 
L 2444 897 
L 1241 4097 
L 1241 0 
L 628 0 
L 628 4666 
z
" transform="scale(0.015625)"/>
       <path id="DejaVuSans-57" d="M 213 4666 
L 850 4666 
L 1831 722 
L 2809 4666 
L 3519 4666 
L 4500 722 
L 5478 4666 
L 6119 4666 
L 4947 0 
L 4153 0 
L 3169 4050 
L 2175 0 
L 1381 0 
L 213 4666 
z
" transform="scale(0.015625)"/>
       <path id="DejaVuSans-2c" d="M 750 794 
L 1409 794 
L 1409 256 
L 897 -744 
L 494 -744 
L 750 256 
L 750 794 
z
" transform="scale(0.015625)"/>
       <path id="DejaVuSans-20" transform="scale(0.015625)"/>
       <path id="DejaVuSans-67" d="M 2906 1791 
Q 2906 2416 2648 2759 
Q 2391 3103 1925 3103 
Q 1463 3103 1205 2759 
Q 947 2416 947 1791 
Q 947 1169 1205 825 
Q 1463 481 1925 481 
Q 2391 481 2648 825 
Q 2906 1169 2906 1791 
z
M 3481 434 
Q 3481 -459 3084 -895 
Q 2688 -1331 1869 -1331 
Q 1566 -1331 1297 -1286 
Q 1028 -1241 775 -1147 
L 775 -588 
Q 1028 -725 1275 -790 
Q 1522 -856 1778 -856 
Q 2344 -856 2625 -561 
Q 2906 -266 2906 331 
L 2906 616 
Q 2728 306 2450 153 
Q 2172 0 1784 0 
Q 1141 0 747 490 
Q 353 981 353 1791 
Q 353 2603 747 3093 
Q 1141 3584 1784 3584 
Q 2172 3584 2450 3431 
Q 2728 3278 2906 2969 
L 2906 3500 
L 3481 3500 
L 3481 434 
z
" transform="scale(0.015625)"/>
       <path id="DejaVuSans-2f" d="M 1625 4666 
L 2156 4666 
L 531 -594 
L 0 -594 
L 1625 4666 
z
" transform="scale(0.015625)"/>
       <path id="DejaVuSans-6d" d="M 3328 2828 
Q 3544 3216 3844 3400 
Q 4144 3584 4550 3584 
Q 5097 3584 5394 3201 
Q 5691 2819 5691 2113 
L 5691 0 
L 5113 0 
L 5113 2094 
Q 5113 2597 4934 2840 
Q 4756 3084 4391 3084 
Q 3944 3084 3684 2787 
Q 3425 2491 3425 1978 
L 3425 0 
L 2847 0 
L 2847 2094 
Q 2847 2600 2669 2842 
Q 2491 3084 2119 3084 
Q 1678 3084 1418 2786 
Q 1159 2488 1159 1978 
L 1159 0 
L 581 0 
L 581 3500 
L 1159 3500 
L 1159 2956 
Q 1356 3278 1631 3431 
Q 1906 3584 2284 3584 
Q 2666 3584 2933 3390 
Q 3200 3197 3328 2828 
z
" transform="scale(0.015625)"/>
       <path id="DejaVuSans-6f" d="M 1959 3097 
Q 1497 3097 1228 2736 
Q 959 2375 959 1747 
Q 959 1119 1226 758 
Q 1494 397 1959 397 
Q 2419 397 2687 759 
Q 2956 1122 2956 1747 
Q 2956 2369 2687 2733 
Q 2419 3097 1959 3097 
z
M 1959 3584 
Q 2709 3584 3137 3096 
Q 3566 2609 3566 1747 
Q 3566 888 3137 398 
Q 2709 -91 1959 -91 
Q 1206 -91 779 398 
Q 353 888 353 1747 
Q 353 2609 779 3096 
Q 1206 3584 1959 3584 
z
" transform="scale(0.015625)"/>
       <path id="DejaVuSans-6c" d="M 603 4863 
L 1178 4863 
L 1178 0 
L 603 0 
L 603 4863 
z
" transform="scale(0.015625)"/>
      </defs>
      <use xlink:href="#DejaVuSans-4d"/>
      <use xlink:href="#DejaVuSans-57" transform="translate(86.279297 0)"/>
      <use xlink:href="#DejaVuSans-2c" transform="translate(185.15625 0)"/>
      <use xlink:href="#DejaVuSans-20" transform="translate(216.943359 0)"/>
      <use xlink:href="#DejaVuSans-67" transform="translate(248.730469 0)"/>
      <use xlink:href="#DejaVuSans-2f" transform="translate(312.207031 0)"/>
      <use xlink:href="#DejaVuSans-6d" transform="translate(345.898438 0)"/>
      <use xlink:href="#DejaVuSans-6f" transform="translate(443.310547 0)"/>
      <use xlink:href="#DejaVuSans-6c" transform="translate(504.492188 0)"/>
     </g>
    </g>
   </g>
   <g id="matplotlib.axis_2">
    <g id="ytick_1">
     <g id="line2d_8">
      <defs>
       <path id="m34128cdf29" d="M 0 0 
L -3.5 0 
" style="stroke: #000000; stroke-width: 0.8"/>
      </defs>
      <g>
       <use xlink:href="#m34128cdf29" x="47.1875" y="273.092323" style="stroke: #000000; stroke-width: 0.8"/>
      </g>
     </g>
     <g id="text_9">
      <!-- 50 -->
      <g transform="translate(27.4625 276.891542) scale(0.1 -0.1)">
       <defs>
        <path id="DejaVuSans-35" d="M 691 4666 
L 3169 4666 
L 3169 4134 
L 1269 4134 
L 1269 2991 
Q 1406 3038 1543 3061 
Q 1681 3084 1819 3084 
Q 2600 3084 3056 2656 
Q 3513 2228 3513 1497 
Q 3513 744 3044 326 
Q 2575 -91 1722 -91 
Q 1428 -91 1123 -41 
Q 819 9 494 109 
L 494 744 
Q 775 591 1075 516 
Q 1375 441 1709 441 
Q 2250 441 2565 725 
Q 2881 1009 2881 1497 
Q 2881 1984 2565 2268 
Q 2250 2553 1709 2553 
Q 1456 2553 1204 2497 
Q 953 2441 691 2322 
L 691 4666 
z
" transform="scale(0.015625)"/>
       </defs>
       <use xlink:href="#DejaVuSans-35"/>
       <use xlink:href="#DejaVuSans-30" transform="translate(63.623047 0)"/>
      </g>
     </g>
    </g>
    <g id="ytick_2">
     <g id="line2d_9">
      <g>
       <use xlink:href="#m34128cdf29" x="47.1875" y="210.86" style="stroke: #000000; stroke-width: 0.8"/>
      </g>
     </g>
     <g id="text_10">
      <!-- 100 -->
      <g transform="translate(21.1 214.659218) scale(0.1 -0.1)">
       <use xlink:href="#DejaVuSans-31"/>
       <use xlink:href="#DejaVuSans-30" transform="translate(63.623047 0)"/>
       <use xlink:href="#DejaVuSans-30" transform="translate(127.246094 0)"/>
      </g>
     </g>
    </g>
    <g id="ytick_3">
     <g id="line2d_10">
      <g>
       <use xlink:href="#m34128cdf29" x="47.1875" y="148.627676" style="stroke: #000000; stroke-width: 0.8"/>
      </g>
     </g>
     <g id="text_11">
      <!-- 150 -->
      <g transform="translate(21.1 152.426895) scale(0.1 -0.1)">
       <use xlink:href="#DejaVuSans-31"/>
       <use xlink:href="#DejaVuSans-35" transform="translate(63.623047 0)"/>
       <use xlink:href="#DejaVuSans-30" transform="translate(127.246094 0)"/>
      </g>
     </g>
    </g>
    <g id="ytick_4">
     <g id="line2d_11">
      <g>
       <use xlink:href="#m34128cdf29" x="47.1875" y="86.395353" style="stroke: #000000; stroke-width: 0.8"/>
      </g>
     </g>
     <g id="text_12">
      <!-- 200 -->
      <g transform="translate(21.1 90.194572) scale(0.1 -0.1)">
       <use xlink:href="#DejaVuSans-32"/>
       <use xlink:href="#DejaVuSans-30" transform="translate(63.623047 0)"/>
       <use xlink:href="#DejaVuSans-30" transform="translate(127.246094 0)"/>
      </g>
     </g>
    </g>
    <g id="ytick_5">
     <g id="line2d_12">
      <g>
       <use xlink:href="#m34128cdf29" x="47.1875" y="24.16303" style="stroke: #000000; stroke-width: 0.8"/>
      </g>
     </g>
     <g id="text_13">
      <!-- 250 -->
      <g transform="translate(21.1 27.962248) scale(0.1 -0.1)">
       <use xlink:href="#DejaVuSans-32"/>
       <use xlink:href="#DejaVuSans-35" transform="translate(63.623047 0)"/>
       <use xlink:href="#DejaVuSans-30" transform="translate(127.246094 0)"/>
      </g>
     </g>
    </g>
    <g id="text_14">
     <!-- bp, $^o$C -->
     <g transform="translate(15 176.17) rotate(-90) scale(0.1 -0.1)">
      <defs>
       <path id="DejaVuSans-62" d="M 3116 1747 
Q 3116 2381 2855 2742 
Q 2594 3103 2138 3103 
Q 1681 3103 1420 2742 
Q 1159 2381 1159 1747 
Q 1159 1113 1420 752 
Q 1681 391 2138 391 
Q 2594 391 2855 752 
Q 3116 1113 3116 1747 
z
M 1159 2969 
Q 1341 3281 1617 3432 
Q 1894 3584 2278 3584 
Q 2916 3584 3314 3078 
Q 3713 2572 3713 1747 
Q 3713 922 3314 415 
Q 2916 -91 2278 -91 
Q 1894 -91 1617 61 
Q 1341 213 1159 525 
L 1159 0 
L 581 0 
L 581 4863 
L 1159 4863 
L 1159 2969 
z
" transform="scale(0.015625)"/>
       <path id="DejaVuSans-70" d="M 1159 525 
L 1159 -1331 
L 581 -1331 
L 581 3500 
L 1159 3500 
L 1159 2969 
Q 1341 3281 1617 3432 
Q 1894 3584 2278 3584 
Q 2916 3584 3314 3078 
Q 3713 2572 3713 1747 
Q 3713 922 3314 415 
Q 2916 -91 2278 -91 
Q 1894 -91 1617 61 
Q 1341 213 1159 525 
z
M 3116 1747 
Q 3116 2381 2855 2742 
Q 2594 3103 2138 3103 
Q 1681 3103 1420 2742 
Q 1159 2381 1159 1747 
Q 1159 1113 1420 752 
Q 1681 391 2138 391 
Q 2594 391 2855 752 
Q 3116 1113 3116 1747 
z
" transform="scale(0.015625)"/>
       <path id="DejaVuSans-Oblique-6f" d="M 1625 -91 
Q 1009 -91 651 289 
Q 294 669 294 1325 
Q 294 1706 417 2101 
Q 541 2497 738 2766 
Q 1047 3184 1428 3384 
Q 1809 3584 2291 3584 
Q 2888 3584 3255 3212 
Q 3622 2841 3622 2241 
Q 3622 1825 3500 1412 
Q 3378 1000 3181 728 
Q 2875 309 2494 109 
Q 2113 -91 1625 -91 
z
M 891 1344 
Q 891 869 1089 633 
Q 1288 397 1691 397 
Q 2269 397 2648 901 
Q 3028 1406 3028 2181 
Q 3028 2634 2825 2865 
Q 2622 3097 2228 3097 
Q 1903 3097 1650 2945 
Q 1397 2794 1197 2484 
Q 1050 2253 970 1956 
Q 891 1659 891 1344 
z
" transform="scale(0.015625)"/>
       <path id="DejaVuSans-43" d="M 4122 4306 
L 4122 3641 
Q 3803 3938 3442 4084 
Q 3081 4231 2675 4231 
Q 1875 4231 1450 3742 
Q 1025 3253 1025 2328 
Q 1025 1406 1450 917 
Q 1875 428 2675 428 
Q 3081 428 3442 575 
Q 3803 722 4122 1019 
L 4122 359 
Q 3791 134 3420 21 
Q 3050 -91 2638 -91 
Q 1578 -91 968 557 
Q 359 1206 359 2328 
Q 359 3453 968 4101 
Q 1578 4750 2638 4750 
Q 3056 4750 3426 4639 
Q 3797 4528 4122 4306 
z
" transform="scale(0.015625)"/>
      </defs>
      <use xlink:href="#DejaVuSans-62" transform="translate(0 0.51875)"/>
      <use xlink:href="#DejaVuSans-70" transform="translate(63.476562 0.51875)"/>
      <use xlink:href="#DejaVuSans-2c" transform="translate(126.953125 0.51875)"/>
      <use xlink:href="#DejaVuSans-20" transform="translate(158.740234 0.51875)"/>
      <use xlink:href="#DejaVuSans-Oblique-6f" transform="translate(191.484375 38.8) scale(0.7)"/>
      <use xlink:href="#DejaVuSans-43" transform="translate(237.045898 0.51875)"/>
     </g>
    </g>
   </g>
   <g id="line2d_13">
    <path d="M 60.581283 264.990225 
L 63.051146 262.743167 
L 65.52101 260.496108 
L 67.990873 258.249049 
L 70.460736 256.001991 
L 72.930599 253.754932 
L 75.400462 251.507874 
L 77.870325 249.260815 
L 80.340188 247.013757 
L 82.810051 244.766698 
L 85.279914 242.519639 
L 87.749777 240.272581 
L 90.21964 238.025522 
L 92.689503 235.778464 
L 95.159367 233.531405 
L 97.62923 231.284347 
L 100.099093 229.037288 
L 102.568956 226.79023 
L 105.038819 224.543171 
L 107.508682 222.296112 
L 109.978545 220.049054 
L 112.448408 217.801995 
L 114.918271 215.554937 
L 117.388134 213.307878 
L 119.857997 211.06082 
L 122.32786 208.813761 
L 124.797724 206.566703 
L 127.267587 204.319644 
L 129.73745 202.072585 
L 132.207313 199.825527 
L 134.677176 197.578468 
L 137.147039 195.33141 
L 139.616902 193.084351 
L 142.086765 190.837293 
L 144.556628 188.590234 
L 147.026491 186.343175 
L 149.496354 184.096117 
L 151.966217 181.849058 
L 154.436081 179.602 
L 156.905944 177.354941 
L 159.375807 175.107883 
L 161.84567 172.860824 
L 164.315533 170.613766 
L 166.785396 168.366707 
L 169.255259 166.119648 
L 171.725122 163.87259 
L 174.194985 161.625531 
L 176.664848 159.378473 
L 179.134711 157.131414 
L 181.604574 154.884356 
L 184.074437 152.637297 
L 186.544301 150.390239 
L 189.014164 148.14318 
L 191.484027 145.896121 
L 193.95389 143.649063 
L 196.423753 141.402004 
L 198.893616 139.154946 
L 201.363479 136.907887 
L 203.833342 134.660829 
L 206.303205 132.41377 
L 208.773068 130.166712 
L 211.242931 127.919653 
L 213.712794 125.672594 
L 216.182658 123.425536 
L 218.652521 121.178477 
L 221.122384 118.931419 
L 223.592247 116.68436 
L 226.06211 114.437302 
L 228.531973 112.190243 
L 231.001836 109.943184 
L 233.471699 107.696126 
L 235.941562 105.449067 
L 238.411425 103.202009 
L 240.881288 100.95495 
L 243.351151 98.707892 
L 245.821015 96.460833 
L 248.290878 94.213775 
L 250.760741 91.966716 
L 253.230604 89.719657 
L 255.700467 87.472599 
L 258.17033 85.22554 
L 260.640193 82.978482 
L 263.110056 80.731423 
L 265.579919 78.484365 
L 268.049782 76.237306 
L 270.519645 73.990248 
L 272.989508 71.743189 
L 275.459371 69.49613 
L 277.929235 67.249072 
L 280.399098 65.002013 
L 282.868961 62.754955 
L 285.338824 60.507896 
L 287.808687 58.260838 
L 290.27855 56.013779 
L 292.748413 53.76672 
L 295.218276 51.519662 
L 297.688139 49.272603 
L 300.158002 47.025545 
L 302.627865 44.778486 
L 305.097728 42.531428 
" clip-path="url(#p1743099a64)" style="fill: none; stroke: #1f77b4; stroke-width: 2.25; stroke-linecap: square"/>
   </g>
   <g id="line2d_14">
    <path d="M 138.271038 289.231568 
L 140.192108 286.877243 
L 142.113178 284.522919 
L 144.034247 282.168595 
L 145.955317 279.81427 
L 147.876387 277.459946 
L 149.797457 275.105622 
L 151.718527 272.751297 
L 153.639597 270.396973 
L 155.560666 268.042649 
L 157.481736 265.688324 
L 159.402806 263.334 
L 161.323876 260.979676 
L 163.244946 258.625351 
L 165.166016 256.271027 
L 167.087085 253.916703 
L 169.008155 251.562378 
L 170.929225 249.208054 
L 172.850295 246.85373 
L 174.771365 244.499405 
L 176.692435 242.145081 
L 178.613504 239.790756 
L 180.534574 237.436432 
L 182.455644 235.082108 
L 184.376714 232.727783 
L 186.297784 230.373459 
L 188.218854 228.019135 
L 190.139923 225.66481 
L 192.060993 223.310486 
L 193.982063 220.956162 
L 195.903133 218.601837 
L 197.824203 216.247513 
L 199.745273 213.893189 
L 201.666342 211.538864 
L 203.587412 209.18454 
L 205.508482 206.830216 
L 207.429552 204.475891 
L 209.350622 202.121567 
L 211.271692 199.767243 
L 213.192761 197.412918 
L 215.113831 195.058594 
L 217.034901 192.704269 
L 218.955971 190.349945 
L 220.877041 187.995621 
L 222.798111 185.641296 
L 224.719181 183.286972 
L 226.64025 180.932648 
L 228.56132 178.578323 
L 230.48239 176.223999 
L 232.40346 173.869675 
L 234.32453 171.51535 
L 236.2456 169.161026 
L 238.166669 166.806702 
L 240.087739 164.452377 
L 242.008809 162.098053 
L 243.929879 159.743729 
L 245.850949 157.389404 
L 247.772019 155.03508 
L 249.693088 152.680756 
L 251.614158 150.326431 
L 253.535228 147.972107 
L 255.456298 145.617782 
L 257.377368 143.263458 
L 259.298438 140.909134 
L 261.219507 138.554809 
L 263.140577 136.200485 
L 265.061647 133.846161 
L 266.982717 131.491836 
L 268.903787 129.137512 
L 270.824857 126.783188 
L 272.745926 124.428863 
L 274.666996 122.074539 
L 276.588066 119.720215 
L 278.509136 117.36589 
L 280.430206 115.011566 
L 282.351276 112.657242 
L 284.272345 110.302917 
L 286.193415 107.948593 
L 288.114485 105.594269 
L 290.035555 103.239944 
L 291.956625 100.88562 
L 293.877695 98.531296 
L 295.798764 96.176971 
L 297.719834 93.822647 
L 299.640904 91.468322 
L 301.561974 89.113998 
L 303.483044 86.759674 
L 305.404114 84.405349 
L 307.325183 82.051025 
L 309.246253 79.696701 
L 311.167323 77.342376 
L 313.088393 74.988052 
L 315.009463 72.633728 
L 316.930533 70.279403 
L 318.851602 67.925079 
L 320.772672 65.570755 
L 322.693742 63.21643 
L 324.614812 60.862106 
L 326.535882 58.507782 
L 328.456952 56.153457 
" clip-path="url(#p1743099a64)" style="fill: none; stroke: #ff7f0e; stroke-width: 2.25; stroke-linecap: square"/>
   </g>
   <g id="patch_3">
    <path d="M 47.1875 314.44 
L 47.1875 7.2 
" style="fill: none; stroke: #000000; stroke-width: 0.8; stroke-linejoin: miter; stroke-linecap: square"/>
   </g>
   <g id="patch_4">
    <path d="M 47.1875 314.44 
L 341.850735 314.44 
" style="fill: none; stroke: #000000; stroke-width: 0.8; stroke-linejoin: miter; stroke-linecap: square"/>
   </g>
  </g>
  <g id="legend_1">
   <g id="text_15">
    <!-- type -->
    <g transform="translate(368.139716 164.079375) scale(0.1 -0.1)">
     <defs>
      <path id="DejaVuSans-74" d="M 1172 4494 
L 1172 3500 
L 2356 3500 
L 2356 3053 
L 1172 3053 
L 1172 1153 
Q 1172 725 1289 603 
Q 1406 481 1766 481 
L 2356 481 
L 2356 0 
L 1766 0 
Q 1100 0 847 248 
Q 594 497 594 1153 
L 594 3053 
L 172 3053 
L 172 3500 
L 594 3500 
L 594 4494 
L 1172 4494 
z
" transform="scale(0.015625)"/>
      <path id="DejaVuSans-79" d="M 2059 -325 
Q 1816 -950 1584 -1140 
Q 1353 -1331 966 -1331 
L 506 -1331 
L 506 -850 
L 844 -850 
Q 1081 -850 1212 -737 
Q 1344 -625 1503 -206 
L 1606 56 
L 191 3500 
L 800 3500 
L 1894 763 
L 2988 3500 
L 3597 3500 
L 2059 -325 
z
" transform="scale(0.015625)"/>
      <path id="DejaVuSans-65" d="M 3597 1894 
L 3597 1613 
L 953 1613 
Q 991 1019 1311 708 
Q 1631 397 2203 397 
Q 2534 397 2845 478 
Q 3156 559 3463 722 
L 3463 178 
Q 3153 47 2828 -22 
Q 2503 -91 2169 -91 
Q 1331 -91 842 396 
Q 353 884 353 1716 
Q 353 2575 817 3079 
Q 1281 3584 2069 3584 
Q 2775 3584 3186 3129 
Q 3597 2675 3597 1894 
z
M 3022 2063 
Q 3016 2534 2758 2815 
Q 2500 3097 2075 3097 
Q 1594 3097 1305 2825 
Q 1016 2553 972 2059 
L 3022 2063 
z
" transform="scale(0.015625)"/>
     </defs>
     <use xlink:href="#DejaVuSans-74"/>
     <use xlink:href="#DejaVuSans-79" transform="translate(39.208984 0)"/>
     <use xlink:href="#DejaVuSans-70" transform="translate(98.388672 0)"/>
     <use xlink:href="#DejaVuSans-65" transform="translate(161.865234 0)"/>
    </g>
   </g>
   <g id="PathCollection_3">
    <g>
     <use xlink:href="#mffbf90faf8" x="357.431122" y="176.1325" style="fill: #1f77b4; fill-opacity: 0.8; stroke: #1f77b4; stroke-opacity: 0.8"/>
    </g>
   </g>
   <g id="text_16">
    <!-- alcohol -->
    <g transform="translate(375.431122 178.7575) scale(0.1 -0.1)">
     <defs>
      <path id="DejaVuSans-61" d="M 2194 1759 
Q 1497 1759 1228 1600 
Q 959 1441 959 1056 
Q 959 750 1161 570 
Q 1363 391 1709 391 
Q 2188 391 2477 730 
Q 2766 1069 2766 1631 
L 2766 1759 
L 2194 1759 
z
M 3341 1997 
L 3341 0 
L 2766 0 
L 2766 531 
Q 2569 213 2275 61 
Q 1981 -91 1556 -91 
Q 1019 -91 701 211 
Q 384 513 384 1019 
Q 384 1609 779 1909 
Q 1175 2209 1959 2209 
L 2766 2209 
L 2766 2266 
Q 2766 2663 2505 2880 
Q 2244 3097 1772 3097 
Q 1472 3097 1187 3025 
Q 903 2953 641 2809 
L 641 3341 
Q 956 3463 1253 3523 
Q 1550 3584 1831 3584 
Q 2591 3584 2966 3190 
Q 3341 2797 3341 1997 
z
" transform="scale(0.015625)"/>
      <path id="DejaVuSans-63" d="M 3122 3366 
L 3122 2828 
Q 2878 2963 2633 3030 
Q 2388 3097 2138 3097 
Q 1578 3097 1268 2742 
Q 959 2388 959 1747 
Q 959 1106 1268 751 
Q 1578 397 2138 397 
Q 2388 397 2633 464 
Q 2878 531 3122 666 
L 3122 134 
Q 2881 22 2623 -34 
Q 2366 -91 2075 -91 
Q 1284 -91 818 406 
Q 353 903 353 1747 
Q 353 2603 823 3093 
Q 1294 3584 2113 3584 
Q 2378 3584 2631 3529 
Q 2884 3475 3122 3366 
z
" transform="scale(0.015625)"/>
      <path id="DejaVuSans-68" d="M 3513 2113 
L 3513 0 
L 2938 0 
L 2938 2094 
Q 2938 2591 2744 2837 
Q 2550 3084 2163 3084 
Q 1697 3084 1428 2787 
Q 1159 2491 1159 1978 
L 1159 0 
L 581 0 
L 581 4863 
L 1159 4863 
L 1159 2956 
Q 1366 3272 1645 3428 
Q 1925 3584 2291 3584 
Q 2894 3584 3203 3211 
Q 3513 2838 3513 2113 
z
" transform="scale(0.015625)"/>
     </defs>
     <use xlink:href="#DejaVuSans-61"/>
     <use xlink:href="#DejaVuSans-6c" transform="translate(61.279297 0)"/>
     <use xlink:href="#DejaVuSans-63" transform="translate(89.0625 0)"/>
     <use xlink:href="#DejaVuSans-6f" transform="translate(144.042969 0)"/>
     <use xlink:href="#DejaVuSans-68" transform="translate(205.224609 0)"/>
     <use xlink:href="#DejaVuSans-6f" transform="translate(268.603516 0)"/>
     <use xlink:href="#DejaVuSans-6c" transform="translate(329.785156 0)"/>
    </g>
   </g>
   <g id="PathCollection_4">
    <g>
     <use xlink:href="#mda496ce104" x="357.431122" y="190.810625" style="fill: #ff7f0e; fill-opacity: 0.8; stroke: #ff7f0e; stroke-opacity: 0.8"/>
    </g>
   </g>
   <g id="text_17">
    <!-- alkane -->
    <g transform="translate(375.431122 193.435625) scale(0.1 -0.1)">
     <defs>
      <path id="DejaVuSans-6b" d="M 581 4863 
L 1159 4863 
L 1159 1991 
L 2875 3500 
L 3609 3500 
L 1753 1863 
L 3688 0 
L 2938 0 
L 1159 1709 
L 1159 0 
L 581 0 
L 581 4863 
z
" transform="scale(0.015625)"/>
      <path id="DejaVuSans-6e" d="M 3513 2113 
L 3513 0 
L 2938 0 
L 2938 2094 
Q 2938 2591 2744 2837 
Q 2550 3084 2163 3084 
Q 1697 3084 1428 2787 
Q 1159 2491 1159 1978 
L 1159 0 
L 581 0 
L 581 3500 
L 1159 3500 
L 1159 2956 
Q 1366 3272 1645 3428 
Q 1925 3584 2291 3584 
Q 2894 3584 3203 3211 
Q 3513 2838 3513 2113 
z
" transform="scale(0.015625)"/>
     </defs>
     <use xlink:href="#DejaVuSans-61"/>
     <use xlink:href="#DejaVuSans-6c" transform="translate(61.279297 0)"/>
     <use xlink:href="#DejaVuSans-6b" transform="translate(89.0625 0)"/>
     <use xlink:href="#DejaVuSans-61" transform="translate(145.222656 0)"/>
     <use xlink:href="#DejaVuSans-6e" transform="translate(206.501953 0)"/>
     <use xlink:href="#DejaVuSans-65" transform="translate(269.880859 0)"/>
    </g>
   </g>
  </g>
 </g>
 <defs>
  <clipPath id="p1743099a64">
   <rect x="47.1875" y="7.2" width="294.663235" height="307.24"/>
  </clipPath>
 </defs>
</svg>