<?xml version="1.0" encoding="utf-8" standalone="no"?>
<!DOCTYPE svg PUBLIC "-//W3C//DTD SVG 1.1//EN"
  "http://www.w3.org/Graphics/SVG/1.1/DTD/svg11.dtd">
<svg xmlns:xlink="http://www.w3.org/1999/xlink" width="729.277116pt" height="393.03625pt" viewBox="0 0 729.277116 393.03625" xmlns="http://www.w3.org/2000/svg" version="1.1">
 <metadata>
  <rdf:RDF xmlns:dc="http://purl.org/dc/elements/1.1/" xmlns:cc="http://creativecommons.org/ns#" xmlns:rdf="http://www.w3.org/1999/02/22-rdf-syntax-ns#">
   <cc:Work>
    <dc:type rdf:resource="http://purl.org/dc/dcmitype/StillImage"/>
    <dc:date>2023-05-07T08:28:10.940839</dc:date>
    <dc:format>image/svg+xml</dc:format>
    <dc:creator>
     <cc:Agent>
      <dc:title>Matplotlib v3.7.1, https://matplotlib.org/</dc:title>
     </cc:Agent>
    </dc:creator>
   </cc:Work>
  </rdf:RDF>
 </metadata>
 <defs>
  <style type="text/css">*{stroke-linejoin: round; stroke-linecap: butt}</style>
 </defs>
 <g id="figure_1">
  <g id="patch_1">
   <path d="M 0 393.03625 
L 729.277116 393.03625 
L 729.277116 0 
L 0 0 
z
" style="fill: #ffffff"/>
  </g>
  <g id="axes_1">
   <g id="patch_2">
    <path d="M 44.845313 354.958125 
L 349.208949 354.958125 
L 349.208949 22.318125 
L 44.845313 22.318125 
z
" style="fill: #ffffff"/>
   </g>
   <g id="matplotlib.axis_1">
    <g id="xtick_1">
     <g id="line2d_1">
      <defs>
       <path id="m5fb5cf1a63" d="M 0 0 
L 0 3.5 
" style="stroke: #000000; stroke-width: 0.8"/>
      </defs>
      <g>
       <use xlink:href="#m5fb5cf1a63" x="347.297002" y="354.958125" style="stroke: #000000; stroke-width: 0.8"/>
      </g>
     </g>
     <g id="text_1">
      <!-- 500 -->
      <g transform="translate(337.753252 369.556562) scale(0.1 -0.1)">
       <defs>
        <path id="DejaVuSans-35" d="M 691 4666 
L 3169 4666 
L 3169 4134 
L 1269 4134 
L 1269 2991 
Q 1406 3038 1543 3061 
Q 1681 3084 1819 3084 
Q 2600 3084 3056 2656 
Q 3513 2228 3513 1497 
Q 3513 744 3044 326 
Q 2575 -91 1722 -91 
Q 1428 -91 1123 -41 
Q 819 9 494 109 
L 494 744 
Q 775 591 1075 516 
Q 1375 441 1709 441 
Q 2250 441 2565 725 
Q 2881 1009 2881 1497 
Q 2881 1984 2565 2268 
Q 2250 2553 1709 2553 
Q 1456 2553 1204 2497 
Q 953 2441 691 2322 
L 691 4666 
z
" transform="scale(0.015625)"/>
        <path id="DejaVuSans-30" d="M 2034 4250 
Q 1547 4250 1301 3770 
Q 1056 3291 1056 2328 
Q 1056 1369 1301 889 
Q 1547 409 2034 409 
Q 2525 409 2770 889 
Q 3016 1369 3016 2328 
Q 3016 3291 2770 3770 
Q 2525 4250 2034 4250 
z
M 2034 4750 
Q 2819 4750 3233 4129 
Q 3647 3509 3647 2328 
Q 3647 1150 3233 529 
Q 2819 -91 2034 -91 
Q 1250 -91 836 529 
Q 422 1150 422 2328 
Q 422 3509 836 4129 
Q 1250 4750 2034 4750 
z
" transform="scale(0.015625)"/>
       </defs>
       <use xlink:href="#DejaVuSans-35"/>
       <use xlink:href="#DejaVuSans-30" x="63.623047"/>
       <use xlink:href="#DejaVuSans-30" x="127.246094"/>
      </g>
     </g>
    </g>
    <g id="xtick_2">
     <g id="line2d_2">
      <g>
       <use xlink:href="#m5fb5cf1a63" x="306.067442" y="354.958125" style="stroke: #000000; stroke-width: 0.8"/>
      </g>
     </g>
     <g id="text_2">
      <!-- 1000 -->
      <g transform="translate(293.342442 369.556562) scale(0.1 -0.1)">
       <defs>
        <path id="DejaVuSans-31" d="M 794 531 
L 1825 531 
L 1825 4091 
L 703 3866 
L 703 4441 
L 1819 4666 
L 2450 4666 
L 2450 531 
L 3481 531 
L 3481 0 
L 794 0 
L 794 531 
z
" transform="scale(0.015625)"/>
       </defs>
       <use xlink:href="#DejaVuSans-31"/>
       <use xlink:href="#DejaVuSans-30" x="63.623047"/>
       <use xlink:href="#DejaVuSans-30" x="127.246094"/>
       <use xlink:href="#DejaVuSans-30" x="190.869141"/>
      </g>
     </g>
    </g>
    <g id="xtick_3">
     <g id="line2d_3">
      <g>
       <use xlink:href="#m5fb5cf1a63" x="264.837883" y="354.958125" style="stroke: #000000; stroke-width: 0.8"/>
      </g>
     </g>
     <g id="text_3">
      <!-- 1500 -->
      <g transform="translate(252.112883 369.556562) scale(0.1 -0.1)">
       <use xlink:href="#DejaVuSans-31"/>
       <use xlink:href="#DejaVuSans-35" x="63.623047"/>
       <use xlink:href="#DejaVuSans-30" x="127.246094"/>
       <use xlink:href="#DejaVuSans-30" x="190.869141"/>
      </g>
     </g>
    </g>
    <g id="xtick_4">
     <g id="line2d_4">
      <g>
       <use xlink:href="#m5fb5cf1a63" x="223.608323" y="354.958125" style="stroke: #000000; stroke-width: 0.8"/>
      </g>
     </g>
     <g id="text_4">
      <!-- 2000 -->
      <g transform="translate(210.883323 369.556562) scale(0.1 -0.1)">
       <defs>
        <path id="DejaVuSans-32" d="M 1228 531 
L 3431 531 
L 3431 0 
L 469 0 
L 469 531 
Q 828 903 1448 1529 
Q 2069 2156 2228 2338 
Q 2531 2678 2651 2914 
Q 2772 3150 2772 3378 
Q 2772 3750 2511 3984 
Q 2250 4219 1831 4219 
Q 1534 4219 1204 4116 
Q 875 4013 500 3803 
L 500 4441 
Q 881 4594 1212 4672 
Q 1544 4750 1819 4750 
Q 2544 4750 2975 4387 
Q 3406 4025 3406 3419 
Q 3406 3131 3298 2873 
Q 3191 2616 2906 2266 
Q 2828 2175 2409 1742 
Q 1991 1309 1228 531 
z
" transform="scale(0.015625)"/>
       </defs>
       <use xlink:href="#DejaVuSans-32"/>
       <use xlink:href="#DejaVuSans-30" x="63.623047"/>
       <use xlink:href="#DejaVuSans-30" x="127.246094"/>
       <use xlink:href="#DejaVuSans-30" x="190.869141"/>
      </g>
     </g>
    </g>
    <g id="xtick_5">
     <g id="line2d_5">
      <g>
       <use xlink:href="#m5fb5cf1a63" x="182.378763" y="354.958125" style="stroke: #000000; stroke-width: 0.8"/>
      </g>
     </g>
     <g id="text_5">
      <!-- 2500 -->
      <g transform="translate(169.653763 369.556562) scale(0.1 -0.1)">
       <use xlink:href="#DejaVuSans-32"/>
       <use xlink:href="#DejaVuSans-35" x="63.623047"/>
       <use xlink:href="#DejaVuSans-30" x="127.246094"/>
       <use xlink:href="#DejaVuSans-30" x="190.869141"/>
      </g>
     </g>
    </g>
    <g id="xtick_6">
     <g id="line2d_6">
      <g>
       <use xlink:href="#m5fb5cf1a63" x="141.149203" y="354.958125" style="stroke: #000000; stroke-width: 0.8"/>
      </g>
     </g>
     <g id="text_6">
      <!-- 3000 -->
      <g transform="translate(128.424203 369.556562) scale(0.1 -0.1)">
       <defs>
        <path id="DejaVuSans-33" d="M 2597 2516 
Q 3050 2419 3304 2112 
Q 3559 1806 3559 1356 
Q 3559 666 3084 287 
Q 2609 -91 1734 -91 
Q 1441 -91 1130 -33 
Q 819 25 488 141 
L 488 750 
Q 750 597 1062 519 
Q 1375 441 1716 441 
Q 2309 441 2620 675 
Q 2931 909 2931 1356 
Q 2931 1769 2642 2001 
Q 2353 2234 1838 2234 
L 1294 2234 
L 1294 2753 
L 1863 2753 
Q 2328 2753 2575 2939 
Q 2822 3125 2822 3475 
Q 2822 3834 2567 4026 
Q 2313 4219 1838 4219 
Q 1578 4219 1281 4162 
Q 984 4106 628 3988 
L 628 4550 
Q 988 4650 1302 4700 
Q 1616 4750 1894 4750 
Q 2613 4750 3031 4423 
Q 3450 4097 3450 3541 
Q 3450 3153 3228 2886 
Q 3006 2619 2597 2516 
z
" transform="scale(0.015625)"/>
       </defs>
       <use xlink:href="#DejaVuSans-33"/>
       <use xlink:href="#DejaVuSans-30" x="63.623047"/>
       <use xlink:href="#DejaVuSans-30" x="127.246094"/>
       <use xlink:href="#DejaVuSans-30" x="190.869141"/>
      </g>
     </g>
    </g>
    <g id="xtick_7">
     <g id="line2d_7">
      <g>
       <use xlink:href="#m5fb5cf1a63" x="99.919643" y="354.958125" style="stroke: #000000; stroke-width: 0.8"/>
      </g>
     </g>
     <g id="text_7">
      <!-- 3500 -->
      <g transform="translate(87.194643 369.556562) scale(0.1 -0.1)">
       <use xlink:href="#DejaVuSans-33"/>
       <use xlink:href="#DejaVuSans-35" x="63.623047"/>
       <use xlink:href="#DejaVuSans-30" x="127.246094"/>
       <use xlink:href="#DejaVuSans-30" x="190.869141"/>
      </g>
     </g>
    </g>
    <g id="xtick_8">
     <g id="line2d_8">
      <g>
       <use xlink:href="#m5fb5cf1a63" x="58.690083" y="354.958125" style="stroke: #000000; stroke-width: 0.8"/>
      </g>
     </g>
     <g id="text_8">
      <!-- 4000 -->
      <g transform="translate(45.965083 369.556562) scale(0.1 -0.1)">
       <defs>
        <path id="DejaVuSans-34" d="M 2419 4116 
L 825 1625 
L 2419 1625 
L 2419 4116 
z
M 2253 4666 
L 3047 4666 
L 3047 1625 
L 3713 1625 
L 3713 1100 
L 3047 1100 
L 3047 0 
L 2419 0 
L 2419 1100 
L 313 1100 
L 313 1709 
L 2253 4666 
z
" transform="scale(0.015625)"/>
       </defs>
       <use xlink:href="#DejaVuSans-34"/>
       <use xlink:href="#DejaVuSans-30" x="63.623047"/>
       <use xlink:href="#DejaVuSans-30" x="127.246094"/>
       <use xlink:href="#DejaVuSans-30" x="190.869141"/>
      </g>
     </g>
    </g>
    <g id="text_9">
     <!-- Wavenumbers, cm$^{-1}$ -->
     <g transform="translate(144.677131 383.756562) scale(0.1 -0.1)">
      <defs>
       <path id="DejaVuSans-57" d="M 213 4666 
L 850 4666 
L 1831 722 
L 2809 4666 
L 3519 4666 
L 4500 722 
L 5478 4666 
L 6119 4666 
L 4947 0 
L 4153 0 
L 3169 4050 
L 2175 0 
L 1381 0 
L 213 4666 
z
" transform="scale(0.015625)"/>
       <path id="DejaVuSans-61" d="M 2194 1759 
Q 1497 1759 1228 1600 
Q 959 1441 959 1056 
Q 959 750 1161 570 
Q 1363 391 1709 391 
Q 2188 391 2477 730 
Q 2766 1069 2766 1631 
L 2766 1759 
L 2194 1759 
z
M 3341 1997 
L 3341 0 
L 2766 0 
L 2766 531 
Q 2569 213 2275 61 
Q 1981 -91 1556 -91 
Q 1019 -91 701 211 
Q 384 513 384 1019 
Q 384 1609 779 1909 
Q 1175 2209 1959 2209 
L 2766 2209 
L 2766 2266 
Q 2766 2663 2505 2880 
Q 2244 3097 1772 3097 
Q 1472 3097 1187 3025 
Q 903 2953 641 2809 
L 641 3341 
Q 956 3463 1253 3523 
Q 1550 3584 1831 3584 
Q 2591 3584 2966 3190 
Q 3341 2797 3341 1997 
z
" transform="scale(0.015625)"/>
       <path id="DejaVuSans-76" d="M 191 3500 
L 800 3500 
L 1894 563 
L 2988 3500 
L 3597 3500 
L 2284 0 
L 1503 0 
L 191 3500 
z
" transform="scale(0.015625)"/>
       <path id="DejaVuSans-65" d="M 3597 1894 
L 3597 1613 
L 953 1613 
Q 991 1019 1311 708 
Q 1631 397 2203 397 
Q 2534 397 2845 478 
Q 3156 559 3463 722 
L 3463 178 
Q 3153 47 2828 -22 
Q 2503 -91 2169 -91 
Q 1331 -91 842 396 
Q 353 884 353 1716 
Q 353 2575 817 3079 
Q 1281 3584 2069 3584 
Q 2775 3584 3186 3129 
Q 3597 2675 3597 1894 
z
M 3022 2063 
Q 3016 2534 2758 2815 
Q 2500 3097 2075 3097 
Q 1594 3097 1305 2825 
Q 1016 2553 972 2059 
L 3022 2063 
z
" transform="scale(0.015625)"/>
       <path id="DejaVuSans-6e" d="M 3513 2113 
L 3513 0 
L 2938 0 
L 2938 2094 
Q 2938 2591 2744 2837 
Q 2550 3084 2163 3084 
Q 1697 3084 1428 2787 
Q 1159 2491 1159 1978 
L 1159 0 
L 581 0 
L 581 3500 
L 1159 3500 
L 1159 2956 
Q 1366 3272 1645 3428 
Q 1925 3584 2291 3584 
Q 2894 3584 3203 3211 
Q 3513 2838 3513 2113 
z
" transform="scale(0.015625)"/>
       <path id="DejaVuSans-75" d="M 544 1381 
L 544 3500 
L 1119 3500 
L 1119 1403 
Q 1119 906 1312 657 
Q 1506 409 1894 409 
Q 2359 409 2629 706 
Q 2900 1003 2900 1516 
L 2900 3500 
L 3475 3500 
L 3475 0 
L 2900 0 
L 2900 538 
Q 2691 219 2414 64 
Q 2138 -91 1772 -91 
Q 1169 -91 856 284 
Q 544 659 544 1381 
z
M 1991 3584 
L 1991 3584 
z
" transform="scale(0.015625)"/>
       <path id="DejaVuSans-6d" d="M 3328 2828 
Q 3544 3216 3844 3400 
Q 4144 3584 4550 3584 
Q 5097 3584 5394 3201 
Q 5691 2819 5691 2113 
L 5691 0 
L 5113 0 
L 5113 2094 
Q 5113 2597 4934 2840 
Q 4756 3084 4391 3084 
Q 3944 3084 3684 2787 
Q 3425 2491 3425 1978 
L 3425 0 
L 2847 0 
L 2847 2094 
Q 2847 2600 2669 2842 
Q 2491 3084 2119 3084 
Q 1678 3084 1418 2786 
Q 1159 2488 1159 1978 
L 1159 0 
L 581 0 
L 581 3500 
L 1159 3500 
L 1159 2956 
Q 1356 3278 1631 3431 
Q 1906 3584 2284 3584 
Q 2666 3584 2933 3390 
Q 3200 3197 3328 2828 
z
" transform="scale(0.015625)"/>
       <path id="DejaVuSans-62" d="M 3116 1747 
Q 3116 2381 2855 2742 
Q 2594 3103 2138 3103 
Q 1681 3103 1420 2742 
Q 1159 2381 1159 1747 
Q 1159 1113 1420 752 
Q 1681 391 2138 391 
Q 2594 391 2855 752 
Q 3116 1113 3116 1747 
z
M 1159 2969 
Q 1341 3281 1617 3432 
Q 1894 3584 2278 3584 
Q 2916 3584 3314 3078 
Q 3713 2572 3713 1747 
Q 3713 922 3314 415 
Q 2916 -91 2278 -91 
Q 1894 -91 1617 61 
Q 1341 213 1159 525 
L 1159 0 
L 581 0 
L 581 4863 
L 1159 4863 
L 1159 2969 
z
" transform="scale(0.015625)"/>
       <path id="DejaVuSans-72" d="M 2631 2963 
Q 2534 3019 2420 3045 
Q 2306 3072 2169 3072 
Q 1681 3072 1420 2755 
Q 1159 2438 1159 1844 
L 1159 0 
L 581 0 
L 581 3500 
L 1159 3500 
L 1159 2956 
Q 1341 3275 1631 3429 
Q 1922 3584 2338 3584 
Q 2397 3584 2469 3576 
Q 2541 3569 2628 3553 
L 2631 2963 
z
" transform="scale(0.015625)"/>
       <path id="DejaVuSans-73" d="M 2834 3397 
L 2834 2853 
Q 2591 2978 2328 3040 
Q 2066 3103 1784 3103 
Q 1356 3103 1142 2972 
Q 928 2841 928 2578 
Q 928 2378 1081 2264 
Q 1234 2150 1697 2047 
L 1894 2003 
Q 2506 1872 2764 1633 
Q 3022 1394 3022 966 
Q 3022 478 2636 193 
Q 2250 -91 1575 -91 
Q 1294 -91 989 -36 
Q 684 19 347 128 
L 347 722 
Q 666 556 975 473 
Q 1284 391 1588 391 
Q 1994 391 2212 530 
Q 2431 669 2431 922 
Q 2431 1156 2273 1281 
Q 2116 1406 1581 1522 
L 1381 1569 
Q 847 1681 609 1914 
Q 372 2147 372 2553 
Q 372 3047 722 3315 
Q 1072 3584 1716 3584 
Q 2034 3584 2315 3537 
Q 2597 3491 2834 3397 
z
" transform="scale(0.015625)"/>
       <path id="DejaVuSans-2c" d="M 750 794 
L 1409 794 
L 1409 256 
L 897 -744 
L 494 -744 
L 750 256 
L 750 794 
z
" transform="scale(0.015625)"/>
       <path id="DejaVuSans-20" transform="scale(0.015625)"/>
       <path id="DejaVuSans-63" d="M 3122 3366 
L 3122 2828 
Q 2878 2963 2633 3030 
Q 2388 3097 2138 3097 
Q 1578 3097 1268 2742 
Q 959 2388 959 1747 
Q 959 1106 1268 751 
Q 1578 397 2138 397 
Q 2388 397 2633 464 
Q 2878 531 3122 666 
L 3122 134 
Q 2881 22 2623 -34 
Q 2366 -91 2075 -91 
Q 1284 -91 818 406 
Q 353 903 353 1747 
Q 353 2603 823 3093 
Q 1294 3584 2113 3584 
Q 2378 3584 2631 3529 
Q 2884 3475 3122 3366 
z
" transform="scale(0.015625)"/>
       <path id="DejaVuSans-2212" d="M 678 2272 
L 4684 2272 
L 4684 1741 
L 678 1741 
L 678 2272 
z
" transform="scale(0.015625)"/>
      </defs>
      <use xlink:href="#DejaVuSans-57" transform="translate(0 0.684375)"/>
      <use xlink:href="#DejaVuSans-61" transform="translate(98.876953 0.684375)"/>
      <use xlink:href="#DejaVuSans-76" transform="translate(160.15625 0.684375)"/>
      <use xlink:href="#DejaVuSans-65" transform="translate(219.335938 0.684375)"/>
      <use xlink:href="#DejaVuSans-6e" transform="translate(280.859375 0.684375)"/>
      <use xlink:href="#DejaVuSans-75" transform="translate(344.238281 0.684375)"/>
      <use xlink:href="#DejaVuSans-6d" transform="translate(407.617188 0.684375)"/>
      <use xlink:href="#DejaVuSans-62" transform="translate(505.029297 0.684375)"/>
      <use xlink:href="#DejaVuSans-65" transform="translate(568.505859 0.684375)"/>
      <use xlink:href="#DejaVuSans-72" transform="translate(630.029297 0.684375)"/>
      <use xlink:href="#DejaVuSans-73" transform="translate(671.142578 0.684375)"/>
      <use xlink:href="#DejaVuSans-2c" transform="translate(723.242188 0.684375)"/>
      <use xlink:href="#DejaVuSans-20" transform="translate(755.029297 0.684375)"/>
      <use xlink:href="#DejaVuSans-63" transform="translate(786.816406 0.684375)"/>
      <use xlink:href="#DejaVuSans-6d" transform="translate(841.796875 0.684375)"/>
      <use xlink:href="#DejaVuSans-2212" transform="translate(940.166016 38.965625) scale(0.7)"/>
      <use xlink:href="#DejaVuSans-31" transform="translate(998.818359 38.965625) scale(0.7)"/>
     </g>
    </g>
   </g>
   <g id="matplotlib.axis_2">
    <g id="ytick_1">
     <g id="line2d_9">
      <defs>
       <path id="mff9d82e504" d="M 0 0 
L -3.5 0 
" style="stroke: #000000; stroke-width: 0.8"/>
      </defs>
      <g>
       <use xlink:href="#mff9d82e504" x="44.845313" y="350.877982" style="stroke: #000000; stroke-width: 0.8"/>
      </g>
     </g>
     <g id="text_10">
      <!-- −0.02 -->
      <g transform="translate(7.2 354.6772) scale(0.1 -0.1)">
       <defs>
        <path id="DejaVuSans-2e" d="M 684 794 
L 1344 794 
L 1344 0 
L 684 0 
L 684 794 
z
" transform="scale(0.015625)"/>
       </defs>
       <use xlink:href="#DejaVuSans-2212"/>
       <use xlink:href="#DejaVuSans-30" x="83.789062"/>
       <use xlink:href="#DejaVuSans-2e" x="147.412109"/>
       <use xlink:href="#DejaVuSans-30" x="179.199219"/>
       <use xlink:href="#DejaVuSans-32" x="242.822266"/>
      </g>
     </g>
    </g>
    <g id="ytick_2">
     <g id="line2d_10">
      <g>
       <use xlink:href="#mff9d82e504" x="44.845313" y="302.266545" style="stroke: #000000; stroke-width: 0.8"/>
      </g>
     </g>
     <g id="text_11">
      <!-- 0.00 -->
      <g transform="translate(15.579688 306.065764) scale(0.1 -0.1)">
       <use xlink:href="#DejaVuSans-30"/>
       <use xlink:href="#DejaVuSans-2e" x="63.623047"/>
       <use xlink:href="#DejaVuSans-30" x="95.410156"/>
       <use xlink:href="#DejaVuSans-30" x="159.033203"/>
      </g>
     </g>
    </g>
    <g id="ytick_3">
     <g id="line2d_11">
      <g>
       <use xlink:href="#mff9d82e504" x="44.845313" y="253.655108" style="stroke: #000000; stroke-width: 0.8"/>
      </g>
     </g>
     <g id="text_12">
      <!-- 0.02 -->
      <g transform="translate(15.579688 257.454327) scale(0.1 -0.1)">
       <use xlink:href="#DejaVuSans-30"/>
       <use xlink:href="#DejaVuSans-2e" x="63.623047"/>
       <use xlink:href="#DejaVuSans-30" x="95.410156"/>
       <use xlink:href="#DejaVuSans-32" x="159.033203"/>
      </g>
     </g>
    </g>
    <g id="ytick_4">
     <g id="line2d_12">
      <g>
       <use xlink:href="#mff9d82e504" x="44.845313" y="205.043671" style="stroke: #000000; stroke-width: 0.8"/>
      </g>
     </g>
     <g id="text_13">
      <!-- 0.04 -->
      <g transform="translate(15.579688 208.84289) scale(0.1 -0.1)">
       <use xlink:href="#DejaVuSans-30"/>
       <use xlink:href="#DejaVuSans-2e" x="63.623047"/>
       <use xlink:href="#DejaVuSans-30" x="95.410156"/>
       <use xlink:href="#DejaVuSans-34" x="159.033203"/>
      </g>
     </g>
    </g>
    <g id="ytick_5">
     <g id="line2d_13">
      <g>
       <use xlink:href="#mff9d82e504" x="44.845313" y="156.432235" style="stroke: #000000; stroke-width: 0.8"/>
      </g>
     </g>
     <g id="text_14">
      <!-- 0.06 -->
      <g transform="translate(15.579688 160.231453) scale(0.1 -0.1)">
       <defs>
        <path id="DejaVuSans-36" d="M 2113 2584 
Q 1688 2584 1439 2293 
Q 1191 2003 1191 1497 
Q 1191 994 1439 701 
Q 1688 409 2113 409 
Q 2538 409 2786 701 
Q 3034 994 3034 1497 
Q 3034 2003 2786 2293 
Q 2538 2584 2113 2584 
z
M 3366 4563 
L 3366 3988 
Q 3128 4100 2886 4159 
Q 2644 4219 2406 4219 
Q 1781 4219 1451 3797 
Q 1122 3375 1075 2522 
Q 1259 2794 1537 2939 
Q 1816 3084 2150 3084 
Q 2853 3084 3261 2657 
Q 3669 2231 3669 1497 
Q 3669 778 3244 343 
Q 2819 -91 2113 -91 
Q 1303 -91 875 529 
Q 447 1150 447 2328 
Q 447 3434 972 4092 
Q 1497 4750 2381 4750 
Q 2619 4750 2861 4703 
Q 3103 4656 3366 4563 
z
" transform="scale(0.015625)"/>
       </defs>
       <use xlink:href="#DejaVuSans-30"/>
       <use xlink:href="#DejaVuSans-2e" x="63.623047"/>
       <use xlink:href="#DejaVuSans-30" x="95.410156"/>
       <use xlink:href="#DejaVuSans-36" x="159.033203"/>
      </g>
     </g>
    </g>
    <g id="ytick_6">
     <g id="line2d_14">
      <g>
       <use xlink:href="#mff9d82e504" x="44.845313" y="107.820798" style="stroke: #000000; stroke-width: 0.8"/>
      </g>
     </g>
     <g id="text_15">
      <!-- 0.08 -->
      <g transform="translate(15.579688 111.620017) scale(0.1 -0.1)">
       <defs>
        <path id="DejaVuSans-38" d="M 2034 2216 
Q 1584 2216 1326 1975 
Q 1069 1734 1069 1313 
Q 1069 891 1326 650 
Q 1584 409 2034 409 
Q 2484 409 2743 651 
Q 3003 894 3003 1313 
Q 3003 1734 2745 1975 
Q 2488 2216 2034 2216 
z
M 1403 2484 
Q 997 2584 770 2862 
Q 544 3141 544 3541 
Q 544 4100 942 4425 
Q 1341 4750 2034 4750 
Q 2731 4750 3128 4425 
Q 3525 4100 3525 3541 
Q 3525 3141 3298 2862 
Q 3072 2584 2669 2484 
Q 3125 2378 3379 2068 
Q 3634 1759 3634 1313 
Q 3634 634 3220 271 
Q 2806 -91 2034 -91 
Q 1263 -91 848 271 
Q 434 634 434 1313 
Q 434 1759 690 2068 
Q 947 2378 1403 2484 
z
M 1172 3481 
Q 1172 3119 1398 2916 
Q 1625 2713 2034 2713 
Q 2441 2713 2670 2916 
Q 2900 3119 2900 3481 
Q 2900 3844 2670 4047 
Q 2441 4250 2034 4250 
Q 1625 4250 1398 4047 
Q 1172 3844 1172 3481 
z
" transform="scale(0.015625)"/>
       </defs>
       <use xlink:href="#DejaVuSans-30"/>
       <use xlink:href="#DejaVuSans-2e" x="63.623047"/>
       <use xlink:href="#DejaVuSans-30" x="95.410156"/>
       <use xlink:href="#DejaVuSans-38" x="159.033203"/>
      </g>
     </g>
    </g>
    <g id="ytick_7">
     <g id="line2d_15">
      <g>
       <use xlink:href="#mff9d82e504" x="44.845313" y="59.209361" style="stroke: #000000; stroke-width: 0.8"/>
      </g>
     </g>
     <g id="text_16">
      <!-- 0.10 -->
      <g transform="translate(15.579688 63.00858) scale(0.1 -0.1)">
       <use xlink:href="#DejaVuSans-30"/>
       <use xlink:href="#DejaVuSans-2e" x="63.623047"/>
       <use xlink:href="#DejaVuSans-31" x="95.410156"/>
       <use xlink:href="#DejaVuSans-30" x="159.033203"/>
      </g>
     </g>
    </g>
   </g>
   <g id="line2d_16">
    <path d="M 335.374238 299.220964 
L 335.215216 298.798745 
L 335.095955 299.074201 
L 334.936933 300.273965 
L 334.539381 303.65169 
L 334.221344 304.518254 
L 334.022568 304.013914 
L 333.982815 304.089083 
L 333.744285 305.649206 
L 333.664778 305.316982 
L 333.466002 303.220729 
L 333.426249 303.310556 
L 332.94919 306.754894 
L 332.790167 307.196484 
L 332.392615 309.287862 
L 332.154086 310.362063 
L 331.95531 311.054496 
L 331.796296 312.323994 
L 331.557766 316.696811 
L 331.35899 319.93225 
L 331.279483 318.231068 
L 330.961438 302.885263 
L 330.881931 303.694223 
L 330.524133 309.94674 
L 330.00732 312.124955 
L 329.411001 314.507867 
L 329.172471 316.85922 
L 328.933942 322.648009 
L 328.576143 335.717941 
L 328.496636 334.802316 
L 328.377367 327.11737 
L 327.900308 284.758984 
L 327.860555 284.864255 
L 327.741294 287.806652 
L 327.144966 306.448586 
L 326.866683 308.983197 
L 326.389624 310.956076 
L 325.713789 311.888012 
L 325.554767 311.82686 
L 325.157223 311.48751 
L 324.799425 311.389826 
L 324.600649 310.463363 
L 324.36212 309.654725 
L 324.163352 309.168933 
L 323.924822 308.706072 
L 323.7658 308.757438 
L 323.487517 309.12557 
L 323.248987 309.894998 
L 322.891189 311.244315 
L 322.573152 311.550156 
L 322.374376 311.623123 
L 322.175601 311.558091 
L 321.738295 311.795983 
L 321.340751 311.291318 
L 321.181729 311.260429 
L 320.9432 311.330541 
L 320.784177 310.978623 
L 320.585409 310.682743 
L 320.34688 310.656637 
L 320.148104 310.419318 
L 319.869821 310.063638 
L 319.551776 309.808593 
L 319.353 309.710169 
L 319.154232 309.711873 
L 318.915703 309.249068 
L 318.319375 307.739863 
L 317.683294 306.101459 
L 317.28575 305.003119 
L 317.166481 305.068841 
L 316.967705 305.287709 
L 316.927952 305.254992 
L 316.291878 304.055532 
L 315.377514 300.219845 
L 314.781186 295.328812 
L 314.22462 290.385646 
L 313.906584 289.468295 
L 313.827068 289.546476 
L 313.668054 290.423967 
L 312.833197 296.455586 
L 311.720056 300.366933 
L 310.845454 302.049009 
L 310.527409 302.417176 
L 310.05035 302.704293 
L 309.295008 303.548877 
L 308.976971 303.735198 
L 308.10236 304.987794 
L 307.625301 305.931983 
L 306.869959 309.729018 
L 306.472416 313.294198 
L 305.955628 320.331149 
L 305.438774 327.059696 
L 305.359283 327.22471 
L 305.319538 327.110843 
L 305.20022 325.769492 
L 305.001493 319.774036 
L 304.723194 302.394739 
L 303.689569 224.49456 
L 303.530505 223.218796 
L 303.451015 223.646486 
L 303.292033 226.723722 
L 303.053479 236.637645 
L 302.178918 279.013435 
L 301.7813 286.38479 
L 301.383764 290.105766 
L 300.906738 292.152529 
L 300.668184 292.343184 
L 300.389885 292.350166 
L 299.992349 292.14066 
L 299.753795 291.434795 
L 299.515323 290.258744 
L 299.316514 287.925569 
L 298.958724 280.156706 
L 298.481698 269.666393 
L 298.402208 270.085005 
L 298.243144 273.374727 
L 297.567309 290.08224 
L 297.090283 295.631982 
L 296.29513 301.502076 
L 295.93734 302.775679 
L 295.579549 303.123431 
L 295.420568 303.060304 
L 295.142269 302.583864 
L 294.386943 301.034611 
L 294.188134 300.607085 
L 293.94958 300.250048 
L 293.631535 300.087332 
L 292.200375 297.993235 
L 291.16675 295.212093 
L 290.53066 291.322773 
L 290.133125 286.906767 
L 289.497035 277.367121 
L 289.139245 268.29439 
L 288.8212 253.744544 
L 288.542983 228.94858 
L 288.18511 171.815528 
L 287.867148 135.355204 
L 287.82732 135.292127 
L 287.708084 140.93098 
L 286.793695 223.340153 
L 286.356414 271.049124 
L 285.998624 287.271503 
L 285.640834 294.463278 
L 285.322789 297.125593 
L 284.806018 299.531293 
L 284.368655 300.651005 
L 284.130183 300.93966 
L 283.851884 301.001567 
L 283.573584 301.232312 
L 283.016985 301.067389 
L 282.500214 300.849557 
L 281.98336 300.074593 
L 281.387098 298.884498 
L 280.90999 297.544448 
L 280.393218 295.358216 
L 279.955855 292.942003 
L 279.439084 288.896048 
L 278.961975 283.975167 
L 278.445204 276.024293 
L 278.047669 265.367047 
L 277.650133 246.756964 
L 277.292261 217.98873 
L 276.377954 131.142697 
L 276.298463 130.396205 
L 276.258636 130.496135 
L 276.1394 132.821797 
L 275.940673 144.074895 
L 275.622628 178.75559 
L 275.026284 241.003805 
L 274.628749 260.606645 
L 274.231213 270.457295 
L 273.873341 275.162717 
L 273.51555 277.225201 
L 273.356569 277.40164 
L 273.197588 277.30857 
L 273.038524 276.801256 
L 272.760225 275.192849 
L 272.44218 271.39957 
L 271.965154 263.215089 
L 271.607364 258.915393 
L 271.36881 258.408458 
L 271.289319 258.632484 
L 271.130255 260.174887 
L 270.37493 268.907553 
L 270.176203 270.120004 
L 269.619604 277.094829 
L 268.983515 286.9334 
L 268.546234 290.772952 
L 268.108953 296.974642 
L 267.274055 301.055854 
L 266.757283 302.807767 
L 265.485104 306.325004 
L 265.24655 307.215229 
L 265.206805 307.128873 
L 265.007996 305.674418 
L 264.769524 304.714137 
L 264.491224 304.553594 
L 264.25267 304.865236 
L 264.17318 304.752767 
L 263.696154 304.107792 
L 263.53709 304.376541 
L 263.338363 304.591009 
L 263.020319 304.408729 
L 262.781764 303.961733 
L 262.662528 303.881345 
L 262.46372 303.601459 
L 262.423974 303.623501 
L 262.066184 304.022222 
L 262.026439 303.937178 
L 261.82763 303.467782 
L 261.787885 303.48859 
L 261.628903 303.976987 
L 261.46984 304.327447 
L 261.430094 304.296444 
L 260.674769 303.412948 
L 260.515705 303.417703 
L 260.078425 303.994194 
L 259.959189 304.337506 
L 259.919443 304.315357 
L 259.442335 303.399231 
L 259.323099 303.438955 
L 259.12429 303.702734 
L 259.084545 303.672912 
L 258.925564 303.245374 
L 258.7665 302.872159 
L 258.726755 302.888523 
L 258.528028 303.16858 
L 258.4882 303.120594 
L 258.209983 302.777579 
L 258.011174 302.902165 
L 257.573894 303.48323 
L 257.375085 303.570382 
L 257.136531 303.591076 
L 256.34146 304.749102 
L 256.06316 304.67095 
L 255.784861 304.215956 
L 255.34758 303.541651 
L 255.188599 303.544561 
L 254.791063 302.980999 
L 254.632 302.869234 
L 254.433191 302.406805 
L 253.797184 300.803063 
L 253.558629 300.62215 
L 253.240585 299.593846 
L 252.92254 298.582699 
L 252.56475 297.785092 
L 252.405768 297.261781 
L 252.365941 297.316337 
L 252.246705 297.595781 
L 252.206959 297.494796 
L 251.491379 292.695542 
L 249.901155 277.422401 
L 249.662601 272.873654 
L 249.22532 253.209287 
L 248.86753 223.943771 
L 248.589231 181.004399 
L 248.310931 118.449045 
L 247.953141 48.065376 
L 247.754414 37.438125 
L 247.674924 38.849197 
L 247.43637 52.548862 
L 247.118325 77.987866 
L 246.919516 113.758836 
L 246.402745 215.364139 
L 246.044954 250.219665 
L 245.687164 265.827416 
L 245.369119 272.255023 
L 244.772775 277.070234 
L 244.414985 277.131291 
L 244.295749 277.786169 
L 244.01745 281.733837 
L 243.222379 293.605955 
L 242.38748 300.516674 
L 242.109181 301.705312 
L 241.6719 302.999163 
L 241.433346 303.470244 
L 241.234619 303.790341 
L 241.115301 303.913401 
L 240.757511 304.532203 
L 240.558784 304.606201 
L 239.882949 305.954649 
L 239.723886 306.052946 
L 239.32635 306.33262 
L 239.207114 306.458211 
L 238.730006 307.486753 
L 238.491534 307.530844 
L 238.292725 307.76916 
L 237.97468 308.333431 
L 237.736126 308.237591 
L 237.497654 308.560966 
L 237.457909 308.529641 
L 237.298845 308.478887 
L 237.020546 308.600505 
L 236.702501 308.672996 
L 236.503775 309.147131 
L 236.464029 309.128987 
L 236.066494 308.70213 
L 235.82794 308.806511 
L 235.231595 309.62248 
L 235.19185 309.576106 
L 234.91355 309.332143 
L 234.357034 309.470669 
L 233.999161 309.088163 
L 233.681199 309.198003 
L 233.442645 308.882446 
L 233.20409 308.882983 
L 232.925791 308.898497 
L 232.568001 309.349459 
L 232.090975 309.288932 
L 231.812675 309.227721 
L 231.534376 308.734231 
L 230.898286 308.817278 
L 230.341769 309.523832 
L 230.182706 309.566626 
L 229.983979 309.460229 
L 229.78517 309.532187 
L 229.42738 309.172866 
L 229.06959 309.392838 
L 228.950354 309.083218 
L 228.751545 308.591293 
L 228.592564 309.023876 
L 228.35401 309.634355 
L 228.314265 309.622075 
L 228.155201 309.161757 
L 227.916729 308.733253 
L 227.678175 308.773736 
L 227.479366 308.626956 
L 227.081831 308.767792 
L 226.922849 308.380378 
L 226.763786 308.266163 
L 226.604805 308.244072 
L 226.167524 307.76654 
L 225.92897 306.593537 
L 225.889224 306.644652 
L 225.730161 307.704966 
L 225.531434 308.477383 
L 225.412116 308.094544 
L 225.253135 307.644648 
L 225.213389 307.670626 
L 224.895345 307.994799 
L 224.537554 307.863893 
L 224.378491 307.943922 
L 224.259255 307.671149 
L 224.060446 307.062153 
L 224.020701 307.08677 
L 223.623165 307.661648 
L 223.503929 307.6395 
L 223.185885 307.085389 
L 223.146139 307.141927 
L 222.907585 307.59802 
L 222.86784 307.551165 
L 222.58954 307.269145 
L 222.311241 307.069952 
L 221.913705 307.519475 
L 221.87396 307.466798 
L 221.675151 307.180538 
L 221.635406 307.211311 
L 221.476425 307.345582 
L 221.436679 307.313298 
L 221.317361 307.189627 
L 221.277616 307.22366 
L 221.118634 307.898907 
L 220.959571 308.322549 
L 220.840335 308.132273 
L 220.601781 307.7393 
L 220.4428 307.752151 
L 220.283736 307.328705 
L 220.243991 307.344608 
L 220.085009 308.082463 
L 219.965691 308.398185 
L 219.925946 308.386988 
L 219.727219 308.287135 
L 219.568156 308.744404 
L 219.44892 309.009602 
L 219.409174 308.987126 
L 218.932066 308.256319 
L 218.614021 308.556273 
L 218.375549 309.221005 
L 218.335804 309.207989 
L 217.898441 308.800882 
L 217.540651 308.74165 
L 216.74558 309.460728 
L 216.626262 309.269005 
L 216.308217 308.489935 
L 216.268554 308.509616 
L 215.990254 308.605775 
L 215.831191 308.416541 
L 215.552891 308.081814 
L 214.797566 308.131807 
L 214.479521 307.962053 
L 214.280794 308.04407 
L 214.04224 307.978548 
L 213.803686 308.075455 
L 213.525386 307.535932 
L 213.485641 307.591296 
L 213.32666 307.763577 
L 212.889379 307.276308 
L 212.770061 307.131632 
L 212.491761 306.65978 
L 212.33278 306.540181 
L 212.094226 306.033854 
L 211.815926 305.347695 
L 211.736436 305.476187 
L 211.418391 307.005122 
L 211.3389 306.909782 
L 211.020856 305.700392 
L 210.941365 305.857701 
L 210.782301 306.122683 
L 210.742556 306.105514 
L 210.583575 306.107 
L 210.146212 306.613357 
L 209.947485 306.850054 
L 209.748676 306.768214 
L 208.83437 308.311398 
L 208.754797 308.228743 
L 208.317516 307.805657 
L 208.158535 307.839085 
L 207.880235 308.02918 
L 207.721171 307.838323 
L 207.601936 307.70112 
L 207.56219 307.731341 
L 207.164655 308.270966 
L 206.926101 308.458852 
L 206.727374 308.537074 
L 206.528565 308.518177 
L 206.329756 308.521492 
L 204.978086 308.179059 
L 204.699787 307.829751 
L 204.381742 308.20893 
L 204.024034 308.691084 
L 203.904716 308.574542 
L 203.70599 308.251192 
L 203.666162 308.292136 
L 203.308372 308.787133 
L 202.910836 308.393641 
L 202.672282 308.300593 
L 202.274747 308.471022 
L 201.956784 308.359343 
L 201.757975 308.614916 
L 201.400185 309.041406 
L 201.280867 308.905571 
L 201.042395 308.593086 
L 200.36656 309.09651 
L 200.207496 309.168592 
L 200.048515 309.149828 
L 199.770216 309.361947 
L 199.491916 309.255084 
L 199.332935 309.170816 
L 199.054636 308.997421 
L 198.617355 308.898469 
L 197.742711 308.144602 
L 197.345176 307.202372 
L 197.066876 306.523632 
L 196.391041 305.939151 
L 196.112742 305.649556 
L 195.87427 305.514167 
L 195.516397 305.743299 
L 195.118862 306.261136 
L 194.88039 307.197841 
L 194.840562 307.17336 
L 194.721326 306.67714 
L 194.403281 305.263549 
L 193.966001 304.03751 
L 193.88651 304.12746 
L 193.409402 304.906188 
L 193.091357 306.087271 
L 192.137305 309.691013 
L 191.81926 309.994077 
L 191.620451 310.048425 
L 190.984361 309.745136 
L 190.547081 309.647608 
L 190.348272 309.632762 
L 189.592946 310.124579 
L 188.797875 309.891585 
L 188.479831 310.058835 
L 188.122041 310.017731 
L 187.525696 310.564318 
L 187.32697 310.480138 
L 186.651135 310.003728 
L 186.452326 310.273274 
L 186.253517 310.393746 
L 185.895727 310.007101 
L 185.816236 310.107901 
L 185.458446 310.556816 
L 185.259637 310.455712 
L 184.862102 310.171491 
L 184.544057 310.417965 
L 183.709241 310.186368 
L 182.953915 310.561138 
L 182.55638 310.317652 
L 182.437061 310.415752 
L 181.92029 311.260647 
L 181.443182 311.287215 
L 181.164965 311.660711 
L 180.807092 311.789022 
L 180.608366 311.974769 
L 180.21083 311.701813 
L 180.012021 311.732562 
L 179.85304 311.7519 
L 179.654231 311.838076 
L 179.296441 311.627888 
L 179.018141 311.81008 
L 178.739842 311.915013 
L 178.541115 311.90523 
L 178.14358 311.720959 
L 177.825535 311.739825 
L 177.586981 311.735945 
L 176.950891 311.240013 
L 176.752082 311.11482 
L 176.473865 311.065441 
L 176.195566 311.053313 
L 175.917266 311.219008 
L 175.678712 311.101697 
L 175.320922 311.332789 
L 175.08245 311.545371 
L 174.645087 311.536395 
L 174.366787 311.702075 
L 173.969252 311.456593 
L 173.691035 311.702752 
L 173.412735 311.779237 
L 172.7369 311.706605 
L 172.100811 311.527011 
L 171.583957 311.546276 
L 171.30574 311.802369 
L 170.590077 311.502501 
L 170.391351 311.404046 
L 170.113051 311.498079 
L 169.834752 311.469855 
L 169.476962 311.612328 
L 169.23849 311.677037 
L 168.761381 311.384393 
L 168.403591 311.573573 
L 168.085546 311.629016 
L 167.807247 311.600433 
L 167.568775 311.688721 
L 167.25073 311.487896 
L 166.813367 311.860277 
L 166.53515 311.787348 
L 166.018296 311.666935 
L 165.620761 311.904651 
L 165.382207 311.857255 
L 164.269091 312.186527 
L 164.070282 312.194909 
L 163.712492 312.435497 
L 163.47402 312.385168 
L 162.957166 312.568774 
L 162.718612 312.461058 
L 162.321077 312.244023 
L 162.122268 312.336022 
L 161.804305 312.541618 
L 161.605496 312.50466 
L 161.327197 312.368998 
L 161.088725 312.647422 
L 160.850171 312.754889 
L 160.094845 313.017719 
L 159.140711 314.094876 
L 158.425131 315.225379 
L 157.987768 315.549409 
L 157.232442 316.152189 
L 156.99397 316.196078 
L 156.675925 316.191161 
L 156.00009 316.778845 
L 155.761536 317.868922 
L 155.204937 320.729508 
L 155.085701 320.722345 
L 154.966383 320.448145 
L 154.767656 319.196886 
L 154.131567 314.75564 
L 153.773777 313.493071 
L 153.535222 312.81475 
L 152.899133 309.83886 
L 152.819642 309.983828 
L 152.581088 311.178214 
L 152.143807 313.10984 
L 151.825762 313.861242 
L 151.547545 313.918595 
L 151.070437 313.983971 
L 150.792137 313.943305 
L 150.513838 313.575557 
L 150.116302 313.061737 
L 149.917576 312.716561 
L 149.16225 310.620356 
L 148.804378 308.363818 
L 148.446588 306.284882 
L 148.247861 305.984948 
L 148.128543 306.174142 
L 147.770835 307.274407 
L 147.731007 307.257923 
L 147.611772 306.921821 
L 147.373217 305.16198 
L 146.935937 301.982177 
L 146.776955 301.668292 
L 146.737128 301.688437 
L 146.617892 301.987184 
L 146.180611 304.253366 
L 145.584267 307.15375 
L 145.186731 307.808555 
L 144.828941 308.201747 
L 144.113361 308.095932 
L 143.954297 308.072921 
L 143.675998 307.939919 
L 143.517017 308.460011 
L 143.000245 310.425851 
L 142.761691 310.894291 
L 142.602627 310.843714 
L 142.205092 310.509855 
L 141.370276 307.121149 
L 140.932913 305.476022 
L 140.734186 305.334475 
L 140.61495 305.534866 
L 140.336651 306.841303 
L 138.865663 314.132498 
L 138.507872 314.783225 
L 138.269318 314.761328 
L 137.871783 315.20592 
L 137.712802 315.301991 
L 137.355011 315.777236 
L 137.195948 315.856184 
L 136.202068 317.340023 
L 136.043087 317.513099 
L 135.645551 318.149864 
L 135.406997 318.237686 
L 135.088952 318.041826 
L 134.770908 318.736102 
L 134.413117 319.39319 
L 134.254136 319.795708 
L 133.975837 320.389621 
L 133.697537 320.442664 
L 133.300002 320.982065 
L 133.061448 321.184593 
L 132.902466 321.398218 
L 132.107313 322.924607 
L 131.272497 324.197442 
L 130.954452 324.775425 
L 130.159381 325.867636 
L 129.761846 326.879478 
L 127.575277 330.929999 
L 126.899442 332.416167 
L 126.104372 333.788709 
L 125.110492 335.565474 
L 124.871938 336.180539 
L 124.553893 336.797723 
L 124.196103 336.908599 
L 123.520268 337.981026 
L 123.082987 338.344041 
L 122.804688 338.675517 
L 122.367407 339.190271 
L 122.089107 339.21702 
L 121.810808 339.453653 
L 121.453018 339.83149 
L 121.055482 339.783437 
L 120.657947 339.572327 
L 120.260411 339.298501 
L 120.021857 339.263553 
L 119.266532 338.608808 
L 118.948487 338.225447 
L 118.749678 338.376437 
L 118.709933 338.330516 
L 118.272652 337.632195 
L 118.153416 337.541436 
L 116.920982 335.341878 
L 116.801664 335.230656 
L 116.284892 333.856813 
L 115.489821 331.869802 
L 115.330758 331.588667 
L 112.428692 321.561126 
L 110.878213 314.696754 
L 110.599913 313.704279 
L 110.162633 311.982861 
L 108.771217 305.019939 
L 108.333937 302.978602 
L 107.856828 301.039761 
L 107.340057 299.073488 
L 106.982267 297.845003 
L 106.703967 297.112913 
L 106.067878 295.174041 
L 105.034252 292.336395 
L 104.835444 291.909689 
L 104.239182 290.269394 
L 104.040373 290.153284 
L 103.603092 288.91099 
L 103.364538 288.526378 
L 103.046493 288.497481 
L 102.648958 287.902864 
L 102.450149 287.569394 
L 102.211677 287.634032 
L 101.853887 287.194266 
L 101.575587 287.333723 
L 101.376778 287.525517 
L 101.098479 287.289094 
L 101.058733 287.340888 
L 100.820262 287.533545 
L 100.541962 287.340693 
L 100.025108 287.68012 
L 99.866127 287.794318 
L 99.587828 288.023044 
L 99.389019 288.064648 
L 98.951738 288.829194 
L 98.593948 289.558017 
L 97.639813 290.869642 
L 97.361596 291.552132 
L 97.202533 291.834382 
L 96.884488 292.396298 
L 96.685679 292.874664 
L 96.367717 293.479254 
L 96.129162 294.126083 
L 95.731627 295.029037 
L 95.373837 295.451681 
L 94.936474 296.372346 
L 94.698002 296.988652 
L 93.982422 299.188987 
L 93.505313 300.431274 
L 92.948797 302.344287 
L 92.829478 302.510453 
L 92.511433 303.225676 
L 92.352452 303.557151 
L 91.994662 304.364852 
L 91.835598 304.569709 
L 91.438063 305.485677 
L 91.318827 305.665027 
L 90.961037 306.381994 
L 90.762228 306.616139 
L 89.927412 308.11583 
L 89.728603 308.131181 
L 89.529794 308.003287 
L 89.410558 308.449517 
L 89.172004 309.3646 
L 88.893787 309.30518 
L 88.575742 309.035834 
L 88.376933 309.168078 
L 88.138379 309.367696 
L 87.939652 309.348227 
L 87.581862 309.759609 
L 87.542117 309.730857 
L 87.343308 309.639267 
L 87.224072 309.939711 
L 86.985518 310.640986 
L 86.707218 310.189855 
L 86.627728 310.313946 
L 86.429001 310.515957 
L 86.230192 310.199382 
L 86.110956 310.099706 
L 86.071129 310.136552 
L 85.792912 310.513909 
L 85.753084 310.480838 
L 85.395294 310.289448 
L 84.878522 310.391184 
L 84.520732 310.555667 
L 84.361669 310.543757 
L 84.162942 310.487395 
L 83.924388 310.59338 
L 83.566598 310.502573 
L 83.288298 310.743523 
L 83.009999 310.254966 
L 82.970254 310.296319 
L 82.691954 311.13239 
L 82.612463 310.989069 
L 82.413737 310.562075 
L 82.373909 310.579563 
L 82.095692 310.731384 
L 81.896883 310.749214 
L 81.658411 311.01746 
L 81.459602 310.635957 
L 81.141558 309.941891 
L 81.101812 309.993371 
L 80.783767 310.438259 
L 80.664532 310.493772 
L 80.425977 310.86715 
L 80.386232 310.796097 
L 80.068187 310.10427 
L 79.948869 310.455317 
L 79.710397 311.457828 
L 79.670652 311.386431 
L 79.392352 310.737424 
L 79.352607 310.754446 
L 79.193543 311.168163 
L 78.994817 311.490694 
L 78.716517 311.438581 
L 78.517708 311.375894 
L 78.318982 311.369678 
L 78.120173 311.338327 
L 77.762383 310.90111 
L 77.563574 310.546174 
L 77.404593 310.814537 
L 77.245529 310.954399 
L 76.887739 310.750077 
L 76.689013 310.836389 
L 76.529949 310.662624 
L 76.291477 310.384016 
L 75.655387 310.829192 
L 75.416833 310.710452 
L 75.059043 310.861634 
L 74.820489 310.738137 
L 74.422953 310.858392 
L 74.224145 310.599673 
L 73.826609 310.205598 
L 73.707373 310.220629 
L 73.071284 311.385155 
L 72.991793 311.221276 
L 72.594258 310.32665 
L 72.514767 310.342422 
L 72.355703 310.835709 
L 72.117149 311.370035 
L 71.958168 311.438238 
L 71.799187 311.146776 
L 71.600378 310.879961 
L 71.123352 311.11051 
L 70.924543 311.619553 
L 70.884798 311.601421 
L 70.685989 311.243943 
L 70.606498 311.31257 
L 70.487262 311.383196 
L 70.447434 311.339194 
L 70.248708 310.708299 
L 70.049899 310.323497 
L 69.930663 310.650429 
L 69.771599 311.077126 
L 69.731854 311.043968 
L 69.572873 310.823941 
L 69.533128 310.872721 
L 69.334319 311.214104 
L 69.294573 311.187079 
L 68.817547 310.814441 
L 68.499503 311.170455 
L 68.300694 311.195389 
L 67.903158 311.401619 
L 67.426132 311.061045 
L 67.147833 310.906724 
L 66.829788 310.484826 
L 66.790043 310.541287 
L 66.511743 310.925339 
L 66.114208 311.045782 
L 65.915399 311.211169 
L 65.875653 311.169687 
L 65.557609 310.787777 
L 65.358882 310.824425 
L 64.881774 311.717713 
L 64.802283 311.623923 
L 64.523984 310.918947 
L 64.484238 310.967304 
L 64.285429 311.367844 
L 64.245684 311.330082 
L 63.967467 310.850732 
L 63.927639 310.882831 
L 63.689167 311.324163 
L 63.530104 311.450494 
L 63.29155 311.098228 
L 63.092823 310.707813 
L 63.053078 310.726754 
L 62.695288 311.425003 
L 62.615715 311.329296 
L 62.377243 311.118399 
L 62.059198 311.35486 
L 61.502599 310.785079 
L 61.303872 310.861539 
L 61.105063 310.661761 
L 60.906255 310.855028 
L 60.667783 310.400036 
L 60.588292 310.512123 
L 60.309993 310.934443 
L 59.991948 310.662291 
L 59.793139 310.493587 
L 59.634158 310.752545 
L 59.316113 311.294332 
L 59.117304 311.228674 
L 58.680023 310.876009 
L 58.680023 310.876009 
" clip-path="url(#pc6cc867851)" style="fill: none; stroke: #1f77b4; stroke-width: 1.5; stroke-linecap: square"/>
   </g>
   <g id="patch_3">
    <path d="M 44.845313 354.958125 
L 44.845313 22.318125 
" style="fill: none; stroke: #000000; stroke-width: 0.8; stroke-linejoin: miter; stroke-linecap: square"/>
   </g>
   <g id="patch_4">
    <path d="M 349.208949 354.958125 
L 349.208949 22.318125 
" style="fill: none; stroke: #000000; stroke-width: 0.8; stroke-linejoin: miter; stroke-linecap: square"/>
   </g>
   <g id="patch_5">
    <path d="M 44.845313 354.958125 
L 349.208949 354.958125 
" style="fill: none; stroke: #000000; stroke-width: 0.8; stroke-linejoin: miter; stroke-linecap: square"/>
   </g>
   <g id="patch_6">
    <path d="M 44.845313 22.318125 
L 349.208949 22.318125 
" style="fill: none; stroke: #000000; stroke-width: 0.8; stroke-linejoin: miter; stroke-linecap: square"/>
   </g>
   <g id="text_17">
    <!-- Extracted Methanol Spectrum -->
    <g transform="translate(107.307443 16.318125) scale(0.12 -0.12)">
     <defs>
      <path id="DejaVuSans-45" d="M 628 4666 
L 3578 4666 
L 3578 4134 
L 1259 4134 
L 1259 2753 
L 3481 2753 
L 3481 2222 
L 1259 2222 
L 1259 531 
L 3634 531 
L 3634 0 
L 628 0 
L 628 4666 
z
" transform="scale(0.015625)"/>
      <path id="DejaVuSans-78" d="M 3513 3500 
L 2247 1797 
L 3578 0 
L 2900 0 
L 1881 1375 
L 863 0 
L 184 0 
L 1544 1831 
L 300 3500 
L 978 3500 
L 1906 2253 
L 2834 3500 
L 3513 3500 
z
" transform="scale(0.015625)"/>
      <path id="DejaVuSans-74" d="M 1172 4494 
L 1172 3500 
L 2356 3500 
L 2356 3053 
L 1172 3053 
L 1172 1153 
Q 1172 725 1289 603 
Q 1406 481 1766 481 
L 2356 481 
L 2356 0 
L 1766 0 
Q 1100 0 847 248 
Q 594 497 594 1153 
L 594 3053 
L 172 3053 
L 172 3500 
L 594 3500 
L 594 4494 
L 1172 4494 
z
" transform="scale(0.015625)"/>
      <path id="DejaVuSans-64" d="M 2906 2969 
L 2906 4863 
L 3481 4863 
L 3481 0 
L 2906 0 
L 2906 525 
Q 2725 213 2448 61 
Q 2172 -91 1784 -91 
Q 1150 -91 751 415 
Q 353 922 353 1747 
Q 353 2572 751 3078 
Q 1150 3584 1784 3584 
Q 2172 3584 2448 3432 
Q 2725 3281 2906 2969 
z
M 947 1747 
Q 947 1113 1208 752 
Q 1469 391 1925 391 
Q 2381 391 2643 752 
Q 2906 1113 2906 1747 
Q 2906 2381 2643 2742 
Q 2381 3103 1925 3103 
Q 1469 3103 1208 2742 
Q 947 2381 947 1747 
z
" transform="scale(0.015625)"/>
      <path id="DejaVuSans-4d" d="M 628 4666 
L 1569 4666 
L 2759 1491 
L 3956 4666 
L 4897 4666 
L 4897 0 
L 4281 0 
L 4281 4097 
L 3078 897 
L 2444 897 
L 1241 4097 
L 1241 0 
L 628 0 
L 628 4666 
z
" transform="scale(0.015625)"/>
      <path id="DejaVuSans-68" d="M 3513 2113 
L 3513 0 
L 2938 0 
L 2938 2094 
Q 2938 2591 2744 2837 
Q 2550 3084 2163 3084 
Q 1697 3084 1428 2787 
Q 1159 2491 1159 1978 
L 1159 0 
L 581 0 
L 581 4863 
L 1159 4863 
L 1159 2956 
Q 1366 3272 1645 3428 
Q 1925 3584 2291 3584 
Q 2894 3584 3203 3211 
Q 3513 2838 3513 2113 
z
" transform="scale(0.015625)"/>
      <path id="DejaVuSans-6f" d="M 1959 3097 
Q 1497 3097 1228 2736 
Q 959 2375 959 1747 
Q 959 1119 1226 758 
Q 1494 397 1959 397 
Q 2419 397 2687 759 
Q 2956 1122 2956 1747 
Q 2956 2369 2687 2733 
Q 2419 3097 1959 3097 
z
M 1959 3584 
Q 2709 3584 3137 3096 
Q 3566 2609 3566 1747 
Q 3566 888 3137 398 
Q 2709 -91 1959 -91 
Q 1206 -91 779 398 
Q 353 888 353 1747 
Q 353 2609 779 3096 
Q 1206 3584 1959 3584 
z
" transform="scale(0.015625)"/>
      <path id="DejaVuSans-6c" d="M 603 4863 
L 1178 4863 
L 1178 0 
L 603 0 
L 603 4863 
z
" transform="scale(0.015625)"/>
      <path id="DejaVuSans-53" d="M 3425 4513 
L 3425 3897 
Q 3066 4069 2747 4153 
Q 2428 4238 2131 4238 
Q 1616 4238 1336 4038 
Q 1056 3838 1056 3469 
Q 1056 3159 1242 3001 
Q 1428 2844 1947 2747 
L 2328 2669 
Q 3034 2534 3370 2195 
Q 3706 1856 3706 1288 
Q 3706 609 3251 259 
Q 2797 -91 1919 -91 
Q 1588 -91 1214 -16 
Q 841 59 441 206 
L 441 856 
Q 825 641 1194 531 
Q 1563 422 1919 422 
Q 2459 422 2753 634 
Q 3047 847 3047 1241 
Q 3047 1584 2836 1778 
Q 2625 1972 2144 2069 
L 1759 2144 
Q 1053 2284 737 2584 
Q 422 2884 422 3419 
Q 422 4038 858 4394 
Q 1294 4750 2059 4750 
Q 2388 4750 2728 4690 
Q 3069 4631 3425 4513 
z
" transform="scale(0.015625)"/>
      <path id="DejaVuSans-70" d="M 1159 525 
L 1159 -1331 
L 581 -1331 
L 581 3500 
L 1159 3500 
L 1159 2969 
Q 1341 3281 1617 3432 
Q 1894 3584 2278 3584 
Q 2916 3584 3314 3078 
Q 3713 2572 3713 1747 
Q 3713 922 3314 415 
Q 2916 -91 2278 -91 
Q 1894 -91 1617 61 
Q 1341 213 1159 525 
z
M 3116 1747 
Q 3116 2381 2855 2742 
Q 2594 3103 2138 3103 
Q 1681 3103 1420 2742 
Q 1159 2381 1159 1747 
Q 1159 1113 1420 752 
Q 1681 391 2138 391 
Q 2594 391 2855 752 
Q 3116 1113 3116 1747 
z
" transform="scale(0.015625)"/>
     </defs>
     <use xlink:href="#DejaVuSans-45"/>
     <use xlink:href="#DejaVuSans-78" x="63.183594"/>
     <use xlink:href="#DejaVuSans-74" x="122.363281"/>
     <use xlink:href="#DejaVuSans-72" x="161.572266"/>
     <use xlink:href="#DejaVuSans-61" x="202.685547"/>
     <use xlink:href="#DejaVuSans-63" x="263.964844"/>
     <use xlink:href="#DejaVuSans-74" x="318.945312"/>
     <use xlink:href="#DejaVuSans-65" x="358.154297"/>
     <use xlink:href="#DejaVuSans-64" x="419.677734"/>
     <use xlink:href="#DejaVuSans-20" x="483.154297"/>
     <use xlink:href="#DejaVuSans-4d" x="514.941406"/>
     <use xlink:href="#DejaVuSans-65" x="601.220703"/>
     <use xlink:href="#DejaVuSans-74" x="662.744141"/>
     <use xlink:href="#DejaVuSans-68" x="701.953125"/>
     <use xlink:href="#DejaVuSans-61" x="765.332031"/>
     <use xlink:href="#DejaVuSans-6e" x="826.611328"/>
     <use xlink:href="#DejaVuSans-6f" x="889.990234"/>
     <use xlink:href="#DejaVuSans-6c" x="951.171875"/>
     <use xlink:href="#DejaVuSans-20" x="978.955078"/>
     <use xlink:href="#DejaVuSans-53" x="1010.742188"/>
     <use xlink:href="#DejaVuSans-70" x="1074.21875"/>
     <use xlink:href="#DejaVuSans-65" x="1137.695312"/>
     <use xlink:href="#DejaVuSans-63" x="1199.21875"/>
     <use xlink:href="#DejaVuSans-74" x="1254.199219"/>
     <use xlink:href="#DejaVuSans-72" x="1293.408203"/>
     <use xlink:href="#DejaVuSans-75" x="1334.521484"/>
     <use xlink:href="#DejaVuSans-6d" x="1397.900391"/>
    </g>
   </g>
  </g>
  <g id="axes_2">
   <g id="patch_7">
    <path d="M 410.081676 354.958125 
L 714.445312 354.958125 
L 714.445312 22.318125 
L 410.081676 22.318125 
z
" style="fill: #ffffff"/>
   </g>
   <g id="matplotlib.axis_3">
    <g id="xtick_9">
     <g id="line2d_17">
      <g>
       <use xlink:href="#m5fb5cf1a63" x="712.533366" y="354.958125" style="stroke: #000000; stroke-width: 0.8"/>
      </g>
     </g>
     <g id="text_18">
      <!-- 500 -->
      <g transform="translate(702.989616 369.556562) scale(0.1 -0.1)">
       <use xlink:href="#DejaVuSans-35"/>
       <use xlink:href="#DejaVuSans-30" x="63.623047"/>
       <use xlink:href="#DejaVuSans-30" x="127.246094"/>
      </g>
     </g>
    </g>
    <g id="xtick_10">
     <g id="line2d_18">
      <g>
       <use xlink:href="#m5fb5cf1a63" x="671.303806" y="354.958125" style="stroke: #000000; stroke-width: 0.8"/>
      </g>
     </g>
     <g id="text_19">
      <!-- 1000 -->
      <g transform="translate(658.578806 369.556562) scale(0.1 -0.1)">
       <use xlink:href="#DejaVuSans-31"/>
       <use xlink:href="#DejaVuSans-30" x="63.623047"/>
       <use xlink:href="#DejaVuSans-30" x="127.246094"/>
       <use xlink:href="#DejaVuSans-30" x="190.869141"/>
      </g>
     </g>
    </g>
    <g id="xtick_11">
     <g id="line2d_19">
      <g>
       <use xlink:href="#m5fb5cf1a63" x="630.074246" y="354.958125" style="stroke: #000000; stroke-width: 0.8"/>
      </g>
     </g>
     <g id="text_20">
      <!-- 1500 -->
      <g transform="translate(617.349246 369.556562) scale(0.1 -0.1)">
       <use xlink:href="#DejaVuSans-31"/>
       <use xlink:href="#DejaVuSans-35" x="63.623047"/>
       <use xlink:href="#DejaVuSans-30" x="127.246094"/>
       <use xlink:href="#DejaVuSans-30" x="190.869141"/>
      </g>
     </g>
    </g>
    <g id="xtick_12">
     <g id="line2d_20">
      <g>
       <use xlink:href="#m5fb5cf1a63" x="588.844686" y="354.958125" style="stroke: #000000; stroke-width: 0.8"/>
      </g>
     </g>
     <g id="text_21">
      <!-- 2000 -->
      <g transform="translate(576.119686 369.556562) scale(0.1 -0.1)">
       <use xlink:href="#DejaVuSans-32"/>
       <use xlink:href="#DejaVuSans-30" x="63.623047"/>
       <use xlink:href="#DejaVuSans-30" x="127.246094"/>
       <use xlink:href="#DejaVuSans-30" x="190.869141"/>
      </g>
     </g>
    </g>
    <g id="xtick_13">
     <g id="line2d_21">
      <g>
       <use xlink:href="#m5fb5cf1a63" x="547.615126" y="354.958125" style="stroke: #000000; stroke-width: 0.8"/>
      </g>
     </g>
     <g id="text_22">
      <!-- 2500 -->
      <g transform="translate(534.890126 369.556562) scale(0.1 -0.1)">
       <use xlink:href="#DejaVuSans-32"/>
       <use xlink:href="#DejaVuSans-35" x="63.623047"/>
       <use xlink:href="#DejaVuSans-30" x="127.246094"/>
       <use xlink:href="#DejaVuSans-30" x="190.869141"/>
      </g>
     </g>
    </g>
    <g id="xtick_14">
     <g id="line2d_22">
      <g>
       <use xlink:href="#m5fb5cf1a63" x="506.385567" y="354.958125" style="stroke: #000000; stroke-width: 0.8"/>
      </g>
     </g>
     <g id="text_23">
      <!-- 3000 -->
      <g transform="translate(493.660567 369.556562) scale(0.1 -0.1)">
       <use xlink:href="#DejaVuSans-33"/>
       <use xlink:href="#DejaVuSans-30" x="63.623047"/>
       <use xlink:href="#DejaVuSans-30" x="127.246094"/>
       <use xlink:href="#DejaVuSans-30" x="190.869141"/>
      </g>
     </g>
    </g>
    <g id="xtick_15">
     <g id="line2d_23">
      <g>
       <use xlink:href="#m5fb5cf1a63" x="465.156007" y="354.958125" style="stroke: #000000; stroke-width: 0.8"/>
      </g>
     </g>
     <g id="text_24">
      <!-- 3500 -->
      <g transform="translate(452.431007 369.556562) scale(0.1 -0.1)">
       <use xlink:href="#DejaVuSans-33"/>
       <use xlink:href="#DejaVuSans-35" x="63.623047"/>
       <use xlink:href="#DejaVuSans-30" x="127.246094"/>
       <use xlink:href="#DejaVuSans-30" x="190.869141"/>
      </g>
     </g>
    </g>
    <g id="xtick_16">
     <g id="line2d_24">
      <g>
       <use xlink:href="#m5fb5cf1a63" x="423.926447" y="354.958125" style="stroke: #000000; stroke-width: 0.8"/>
      </g>
     </g>
     <g id="text_25">
      <!-- 4000 -->
      <g transform="translate(411.201447 369.556562) scale(0.1 -0.1)">
       <use xlink:href="#DejaVuSans-34"/>
       <use xlink:href="#DejaVuSans-30" x="63.623047"/>
       <use xlink:href="#DejaVuSans-30" x="127.246094"/>
       <use xlink:href="#DejaVuSans-30" x="190.869141"/>
      </g>
     </g>
    </g>
    <g id="text_26">
     <!-- Wavenumbers, cm$^{-1}$ -->
     <g transform="translate(509.913494 383.756562) scale(0.1 -0.1)">
      <use xlink:href="#DejaVuSans-57" transform="translate(0 0.684375)"/>
      <use xlink:href="#DejaVuSans-61" transform="translate(98.876953 0.684375)"/>
      <use xlink:href="#DejaVuSans-76" transform="translate(160.15625 0.684375)"/>
      <use xlink:href="#DejaVuSans-65" transform="translate(219.335938 0.684375)"/>
      <use xlink:href="#DejaVuSans-6e" transform="translate(280.859375 0.684375)"/>
      <use xlink:href="#DejaVuSans-75" transform="translate(344.238281 0.684375)"/>
      <use xlink:href="#DejaVuSans-6d" transform="translate(407.617188 0.684375)"/>
      <use xlink:href="#DejaVuSans-62" transform="translate(505.029297 0.684375)"/>
      <use xlink:href="#DejaVuSans-65" transform="translate(568.505859 0.684375)"/>
      <use xlink:href="#DejaVuSans-72" transform="translate(630.029297 0.684375)"/>
      <use xlink:href="#DejaVuSans-73" transform="translate(671.142578 0.684375)"/>
      <use xlink:href="#DejaVuSans-2c" transform="translate(723.242188 0.684375)"/>
      <use xlink:href="#DejaVuSans-20" transform="translate(755.029297 0.684375)"/>
      <use xlink:href="#DejaVuSans-63" transform="translate(786.816406 0.684375)"/>
      <use xlink:href="#DejaVuSans-6d" transform="translate(841.796875 0.684375)"/>
      <use xlink:href="#DejaVuSans-2212" transform="translate(940.166016 38.965625) scale(0.7)"/>
      <use xlink:href="#DejaVuSans-31" transform="translate(998.818359 38.965625) scale(0.7)"/>
     </g>
    </g>
   </g>
   <g id="matplotlib.axis_4">
    <g id="ytick_8">
     <g id="line2d_25">
      <g>
       <use xlink:href="#mff9d82e504" x="410.081676" y="336.150987" style="stroke: #000000; stroke-width: 0.8"/>
      </g>
     </g>
     <g id="text_27">
      <!-- 30 -->
      <g transform="translate(390.356676 339.950205) scale(0.1 -0.1)">
       <use xlink:href="#DejaVuSans-33"/>
       <use xlink:href="#DejaVuSans-30" x="63.623047"/>
      </g>
     </g>
    </g>
    <g id="ytick_9">
     <g id="line2d_26">
      <g>
       <use xlink:href="#mff9d82e504" x="410.081676" y="293.250347" style="stroke: #000000; stroke-width: 0.8"/>
      </g>
     </g>
     <g id="text_28">
      <!-- 40 -->
      <g transform="translate(390.356676 297.049566) scale(0.1 -0.1)">
       <use xlink:href="#DejaVuSans-34"/>
       <use xlink:href="#DejaVuSans-30" x="63.623047"/>
      </g>
     </g>
    </g>
    <g id="ytick_10">
     <g id="line2d_27">
      <g>
       <use xlink:href="#mff9d82e504" x="410.081676" y="250.349708" style="stroke: #000000; stroke-width: 0.8"/>
      </g>
     </g>
     <g id="text_29">
      <!-- 50 -->
      <g transform="translate(390.356676 254.148927) scale(0.1 -0.1)">
       <use xlink:href="#DejaVuSans-35"/>
       <use xlink:href="#DejaVuSans-30" x="63.623047"/>
      </g>
     </g>
    </g>
    <g id="ytick_11">
     <g id="line2d_28">
      <g>
       <use xlink:href="#mff9d82e504" x="410.081676" y="207.449069" style="stroke: #000000; stroke-width: 0.8"/>
      </g>
     </g>
     <g id="text_30">
      <!-- 60 -->
      <g transform="translate(390.356676 211.248287) scale(0.1 -0.1)">
       <use xlink:href="#DejaVuSans-36"/>
       <use xlink:href="#DejaVuSans-30" x="63.623047"/>
      </g>
     </g>
    </g>
    <g id="ytick_12">
     <g id="line2d_29">
      <g>
       <use xlink:href="#mff9d82e504" x="410.081676" y="164.548429" style="stroke: #000000; stroke-width: 0.8"/>
      </g>
     </g>
     <g id="text_31">
      <!-- 70 -->
      <g transform="translate(390.356676 168.347648) scale(0.1 -0.1)">
       <defs>
        <path id="DejaVuSans-37" d="M 525 4666 
L 3525 4666 
L 3525 4397 
L 1831 0 
L 1172 0 
L 2766 4134 
L 525 4134 
L 525 4666 
z
" transform="scale(0.015625)"/>
       </defs>
       <use xlink:href="#DejaVuSans-37"/>
       <use xlink:href="#DejaVuSans-30" x="63.623047"/>
      </g>
     </g>
    </g>
    <g id="ytick_13">
     <g id="line2d_30">
      <g>
       <use xlink:href="#mff9d82e504" x="410.081676" y="121.64779" style="stroke: #000000; stroke-width: 0.8"/>
      </g>
     </g>
     <g id="text_32">
      <!-- 80 -->
      <g transform="translate(390.356676 125.447009) scale(0.1 -0.1)">
       <use xlink:href="#DejaVuSans-38"/>
       <use xlink:href="#DejaVuSans-30" x="63.623047"/>
      </g>
     </g>
    </g>
    <g id="ytick_14">
     <g id="line2d_31">
      <g>
       <use xlink:href="#mff9d82e504" x="410.081676" y="78.747151" style="stroke: #000000; stroke-width: 0.8"/>
      </g>
     </g>
     <g id="text_33">
      <!-- 90 -->
      <g transform="translate(390.356676 82.546369) scale(0.1 -0.1)">
       <defs>
        <path id="DejaVuSans-39" d="M 703 97 
L 703 672 
Q 941 559 1184 500 
Q 1428 441 1663 441 
Q 2288 441 2617 861 
Q 2947 1281 2994 2138 
Q 2813 1869 2534 1725 
Q 2256 1581 1919 1581 
Q 1219 1581 811 2004 
Q 403 2428 403 3163 
Q 403 3881 828 4315 
Q 1253 4750 1959 4750 
Q 2769 4750 3195 4129 
Q 3622 3509 3622 2328 
Q 3622 1225 3098 567 
Q 2575 -91 1691 -91 
Q 1453 -91 1209 -44 
Q 966 3 703 97 
z
M 1959 2075 
Q 2384 2075 2632 2365 
Q 2881 2656 2881 3163 
Q 2881 3666 2632 3958 
Q 2384 4250 1959 4250 
Q 1534 4250 1286 3958 
Q 1038 3666 1038 3163 
Q 1038 2656 1286 2365 
Q 1534 2075 1959 2075 
z
" transform="scale(0.015625)"/>
       </defs>
       <use xlink:href="#DejaVuSans-39"/>
       <use xlink:href="#DejaVuSans-30" x="63.623047"/>
      </g>
     </g>
    </g>
    <g id="ytick_15">
     <g id="line2d_32">
      <g>
       <use xlink:href="#mff9d82e504" x="410.081676" y="35.846511" style="stroke: #000000; stroke-width: 0.8"/>
      </g>
     </g>
     <g id="text_34">
      <!-- 100 -->
      <g transform="translate(383.994176 39.64573) scale(0.1 -0.1)">
       <use xlink:href="#DejaVuSans-31"/>
       <use xlink:href="#DejaVuSans-30" x="63.623047"/>
       <use xlink:href="#DejaVuSans-30" x="127.246094"/>
      </g>
     </g>
    </g>
    <g id="text_35">
     <!-- Transmittance, % -->
     <g transform="translate(377.914489 232.014687) rotate(-90) scale(0.1 -0.1)">
      <defs>
       <path id="DejaVuSans-54" d="M -19 4666 
L 3928 4666 
L 3928 4134 
L 2272 4134 
L 2272 0 
L 1638 0 
L 1638 4134 
L -19 4134 
L -19 4666 
z
" transform="scale(0.015625)"/>
       <path id="DejaVuSans-69" d="M 603 3500 
L 1178 3500 
L 1178 0 
L 603 0 
L 603 3500 
z
M 603 4863 
L 1178 4863 
L 1178 4134 
L 603 4134 
L 603 4863 
z
" transform="scale(0.015625)"/>
       <path id="DejaVuSans-25" d="M 4653 2053 
Q 4381 2053 4226 1822 
Q 4072 1591 4072 1178 
Q 4072 772 4226 539 
Q 4381 306 4653 306 
Q 4919 306 5073 539 
Q 5228 772 5228 1178 
Q 5228 1588 5073 1820 
Q 4919 2053 4653 2053 
z
M 4653 2450 
Q 5147 2450 5437 2106 
Q 5728 1763 5728 1178 
Q 5728 594 5436 251 
Q 5144 -91 4653 -91 
Q 4153 -91 3862 251 
Q 3572 594 3572 1178 
Q 3572 1766 3864 2108 
Q 4156 2450 4653 2450 
z
M 1428 4353 
Q 1159 4353 1004 4120 
Q 850 3888 850 3481 
Q 850 3069 1003 2837 
Q 1156 2606 1428 2606 
Q 1700 2606 1854 2837 
Q 2009 3069 2009 3481 
Q 2009 3884 1853 4118 
Q 1697 4353 1428 4353 
z
M 4250 4750 
L 4750 4750 
L 1831 -91 
L 1331 -91 
L 4250 4750 
z
M 1428 4750 
Q 1922 4750 2215 4408 
Q 2509 4066 2509 3481 
Q 2509 2891 2217 2550 
Q 1925 2209 1428 2209 
Q 931 2209 642 2551 
Q 353 2894 353 3481 
Q 353 4063 643 4406 
Q 934 4750 1428 4750 
z
" transform="scale(0.015625)"/>
      </defs>
      <use xlink:href="#DejaVuSans-54"/>
      <use xlink:href="#DejaVuSans-72" x="46.333984"/>
      <use xlink:href="#DejaVuSans-61" x="87.447266"/>
      <use xlink:href="#DejaVuSans-6e" x="148.726562"/>
      <use xlink:href="#DejaVuSans-73" x="212.105469"/>
      <use xlink:href="#DejaVuSans-6d" x="264.205078"/>
      <use xlink:href="#DejaVuSans-69" x="361.617188"/>
      <use xlink:href="#DejaVuSans-74" x="389.400391"/>
      <use xlink:href="#DejaVuSans-74" x="428.609375"/>
      <use xlink:href="#DejaVuSans-61" x="467.818359"/>
      <use xlink:href="#DejaVuSans-6e" x="529.097656"/>
      <use xlink:href="#DejaVuSans-63" x="592.476562"/>
      <use xlink:href="#DejaVuSans-65" x="647.457031"/>
      <use xlink:href="#DejaVuSans-2c" x="708.980469"/>
      <use xlink:href="#DejaVuSans-20" x="740.767578"/>
      <use xlink:href="#DejaVuSans-25" x="772.554688"/>
     </g>
    </g>
   </g>
   <g id="line2d_33">
    <path d="M 700.610602 150.70169 
L 700.531086 150.721768 
L 700.372072 151.436278 
L 700.173296 151.945766 
L 700.054027 151.859278 
L 699.934767 151.712086 
L 699.895013 151.753571 
L 699.576968 152.285196 
L 699.099909 152.501072 
L 698.980649 152.679753 
L 698.821626 153.873377 
L 698.702366 154.374199 
L 698.543343 153.1064 
L 698.304814 151.843062 
L 698.066284 151.530917 
L 697.072413 147.937817 
L 695.362953 138.541933 
L 694.766625 135.770166 
L 693.057165 126.653394 
L 691.864518 119.84991 
L 689.081671 105.313372 
L 688.405836 101.587365 
L 686.855398 93.725137 
L 684.032798 81.294119 
L 682.283584 75.706654 
L 681.13069 73.027594 
L 680.415102 72.139122 
L 679.620006 71.466097 
L 678.427359 71.098996 
L 677.910538 71.27077 
L 677.552748 71.62247 
L 676.916666 72.486489 
L 675.684265 75.743934 
L 675.167453 78.112436 
L 674.531371 81.904981 
L 673.895298 87.444826 
L 673.338724 94.519871 
L 672.861665 103.222094 
L 672.344852 117.439237 
L 671.907547 135.871197 
L 671.47025 163.907022 
L 670.993183 210.051078 
L 669.959557 315.204492 
L 669.562022 338.512967 
L 669.442786 339.838125 
L 669.363213 338.616057 
L 669.204232 330.974295 
L 668.886187 300.61317 
L 667.812817 163.91646 
L 667.295963 112.249933 
L 666.898428 92.767637 
L 666.500892 82.778695 
L 666.063611 76.974668 
L 665.665994 74.223407 
L 665.228713 72.630806 
L 664.910668 72.279193 
L 664.711942 72.290862 
L 664.473387 72.591981 
L 664.234833 73.290833 
L 663.718062 75.838745 
L 663.201208 79.227681 
L 662.167583 86.953357 
L 661.929029 87.573828 
L 661.770048 87.544527 
L 661.610984 87.18605 
L 661.372512 85.895041 
L 661.014722 82.378818 
L 659.503988 65.050907 
L 659.066708 62.809949 
L 658.510109 61.215247 
L 658.033083 60.379971 
L 657.317502 59.629425 
L 656.800649 59.359622 
L 656.283877 59.37867 
L 655.806769 59.913856 
L 655.488807 60.755523 
L 655.011698 62.492399 
L 654.534672 64.070584 
L 654.296118 64.333008 
L 654.137137 64.211728 
L 653.898582 64.043343 
L 653.779347 64.243174 
L 653.580538 65.334309 
L 653.421474 65.998239 
L 653.381729 65.928225 
L 653.222747 64.64215 
L 652.984193 63.22467 
L 652.864957 63.570578 
L 652.546913 64.563599 
L 652.387849 64.525374 
L 652.228868 64.151195 
L 651.910823 62.528349 
L 651.354224 59.952638 
L 650.916943 59.192782 
L 650.559153 59.161207 
L 650.201363 59.192911 
L 649.724337 59.253958 
L 649.127992 59.74161 
L 648.809948 59.960446 
L 648.531648 60.128102 
L 648.014877 60.600909 
L 646.623462 62.025339 
L 645.709072 63.165295 
L 644.198339 65.648899 
L 643.641822 67.370502 
L 642.767178 71.696559 
L 642.091344 75.334619 
L 641.654063 77.490977 
L 641.017973 81.610768 
L 640.699928 83.326536 
L 639.904857 87.490086 
L 639.427749 89.808008 
L 638.831487 93.558897 
L 638.235143 97.164052 
L 637.678544 99.53354 
L 637.281008 100.518281 
L 636.843728 101.231547 
L 636.764237 101.09152 
L 636.088402 99.254257 
L 635.810103 98.310958 
L 635.571548 97.795206 
L 635.332994 97.799968 
L 635.213758 97.701554 
L 635.174013 97.762087 
L 635.054777 98.352657 
L 634.816223 100.991861 
L 634.378942 106.296139 
L 634.299369 106.223466 
L 634.140388 105.181881 
L 633.583789 99.386648 
L 633.225999 95.397189 
L 632.112883 86.759918 
L 630.562404 71.050047 
L 629.648097 66.165423 
L 629.528779 65.686737 
L 629.012008 62.579701 
L 628.455409 61.334468 
L 628.296428 60.960717 
L 627.580847 58.466474 
L 627.302548 58.141888 
L 627.103739 57.683666 
L 626.944758 57.876805 
L 626.825439 57.956986 
L 626.706203 57.648831 
L 626.109859 55.644899 
L 625.911133 55.545241 
L 625.593088 55.388182 
L 625.473769 55.510448 
L 625.275043 55.889947 
L 625.235298 55.788015 
L 624.718444 53.552292 
L 624.479972 53.462114 
L 624.360654 53.305742 
L 624.042609 52.688444 
L 623.883628 52.741212 
L 623.724564 52.278228 
L 623.406519 51.485467 
L 623.008984 51.109486 
L 622.213913 50.358553 
L 621.895868 49.996944 
L 621.379097 49.811013 
L 621.061052 49.659659 
L 620.822498 49.585827 
L 620.464708 49.810283 
L 620.146663 49.521305 
L 619.908109 49.64267 
L 619.629809 49.594579 
L 619.391337 49.558028 
L 619.272019 49.58025 
L 619.113038 49.936111 
L 618.914229 50.400811 
L 618.874484 50.367906 
L 618.476948 49.63216 
L 618.437203 49.652452 
L 618.278139 49.898358 
L 617.960094 50.686872 
L 617.920349 50.653324 
L 617.761368 50.513682 
L 617.721623 50.560787 
L 617.483068 51.152344 
L 617.443323 51.084604 
L 617.006042 49.88759 
L 616.846979 49.985618 
L 616.608507 50.169919 
L 616.369953 50.126375 
L 616.091653 50.336288 
L 615.256837 49.286853 
L 615.097773 49.509807 
L 614.978538 49.740012 
L 614.938792 49.722165 
L 614.779729 49.097832 
L 614.501429 48.38684 
L 614.223212 48.110774 
L 613.785849 48.616058 
L 613.587122 49.095816 
L 613.547295 49.068917 
L 613.308823 48.752396 
L 613.269078 48.785516 
L 612.831714 49.494277 
L 612.553497 50.692406 
L 612.116134 52.727484 
L 611.758344 52.919293 
L 611.480045 53.210845 
L 611.241573 53.496435 
L 611.003019 53.938612 
L 610.486247 55.884628 
L 610.366929 55.843572 
L 610.168202 55.348756 
L 609.651349 54.242734 
L 609.452622 53.772801 
L 608.140698 48.459171 
L 607.663589 47.452636 
L 607.107072 45.850168 
L 606.550473 45.339136 
L 606.192683 45.1484 
L 605.954129 45.26273 
L 605.318039 44.443113 
L 605.079568 44.217541 
L 604.761523 43.889652 
L 604.363987 43.941519 
L 604.006115 43.549021 
L 603.449598 43.564036 
L 603.012318 43.79201 
L 602.853254 43.757346 
L 602.455718 43.468797 
L 602.097928 43.343398 
L 601.899119 43.57918 
L 601.700393 43.735124 
L 600.984813 43.148028 
L 600.428214 43.190843 
L 600.229405 43.099208 
L 600.030678 43.050859 
L 599.633143 43.376431 
L 599.593397 43.332673 
L 599.235525 43.041077 
L 598.162155 43.214653 
L 597.963428 43.256867 
L 597.605638 43.184451 
L 597.367084 43.159569 
L 596.969548 42.944079 
L 596.333459 43.129967 
L 596.015414 43.18458 
L 595.697369 43.22525 
L 595.458815 43.274757 
L 594.862553 43.247687 
L 594.623999 43.25661 
L 594.107145 43.164073 
L 593.749355 43.320704 
L 593.113265 43.156952 
L 592.437513 43.474888 
L 592.198958 43.329369 
L 591.960404 43.471027 
L 591.642359 43.376474 
L 591.36406 43.617147 
L 591.046015 44.088539 
L 590.489498 43.868416 
L 590.01239 43.957049 
L 589.773918 43.698658 
L 589.734173 43.728517 
L 589.455873 43.893642 
L 588.740293 44.071636 
L 588.501739 44.214367 
L 588.223439 44.162843 
L 587.94514 44.216683 
L 587.666923 44.169064 
L 587.22956 44.541742 
L 587.070578 44.797858 
L 586.752534 45.204342 
L 586.394743 45.445787 
L 586.23568 45.647077 
L 585.997208 45.981916 
L 585.798399 46.015207 
L 585.5201 46.476861 
L 585.480354 46.440224 
L 585.281628 46.33812 
L 584.844265 46.547218 
L 584.327493 45.637209 
L 583.890213 45.041577 
L 583.691404 44.557872 
L 583.413104 44.013892 
L 582.578288 43.387028 
L 582.021689 43.420748 
L 581.82288 43.31474 
L 581.385599 43.45524 
L 580.351974 42.98595 
L 580.033929 43.1624 
L 579.556903 43.194447 
L 579.358094 43.203242 
L 579.000304 43.037045 
L 578.523278 43.464335 
L 578.284724 43.604105 
L 577.926934 43.535293 
L 577.648634 43.551852 
L 577.41008 43.39904 
L 577.012545 43.950528 
L 576.972799 43.922171 
L 576.773991 43.878197 
L 576.257219 44.314454 
L 575.97892 44.725785 
L 575.939174 44.700989 
L 575.541639 44.176614 
L 575.501894 44.204414 
L 575.303085 44.256624 
L 575.104358 44.272583 
L 574.786313 44.534663 
L 574.110479 44.443885 
L 573.832179 44.72763 
L 573.792434 44.686059 
L 573.355153 43.88326 
L 573.27558 43.970133 
L 572.91779 44.285196 
L 572.758809 44.269666 
L 572.401018 44.11488 
L 572.162464 44.212779 
L 571.963738 44.172667 
L 571.645693 43.979314 
L 571.20833 44.56937 
L 571.049349 44.449891 
L 570.731304 44.196606 
L 570.333768 44.270309 
L 570.055469 44.132684 
L 569.657933 44.241952 
L 569.339889 44.074554 
L 568.584563 43.8667 
L 567.670174 43.505991 
L 567.312384 43.422678 
L 566.914848 43.066431 
L 566.596804 43.154935 
L 565.72216 42.674749 
L 565.44386 42.48294 
L 565.046325 42.58633 
L 564.807853 42.704736 
L 564.37049 42.627987 
L 564.171763 42.714003 
L 563.853718 42.85536 
L 563.615164 43.088869 
L 562.581539 44.998247 
L 562.064685 45.990711 
L 561.587659 46.499169 
L 561.150379 46.767126 
L 560.514289 46.977425 
L 560.355225 46.355881 
L 560.116754 45.183621 
L 560.076926 45.202497 
L 559.95769 45.742573 
L 559.480664 48.527511 
L 559.202364 48.802204 
L 558.924065 48.711812 
L 558.725338 48.424936 
L 558.287975 47.024616 
L 557.96993 45.570928 
L 557.453159 43.216627 
L 557.095369 42.528672 
L 556.856815 42.463077 
L 555.107609 43.068662 
L 553.914921 43.761722 
L 552.324779 44.480694 
L 551.966989 44.619006 
L 551.450135 44.75204 
L 551.092345 44.899619 
L 550.814046 45.019183 
L 550.33702 45.31391 
L 550.098465 45.389544 
L 549.78042 45.623224 
L 549.581694 45.788606 
L 549.184159 46.223747 
L 548.866114 46.677464 
L 548.62756 46.916163 
L 548.428751 47.025689 
L 547.593934 48.277572 
L 547.077081 48.670799 
L 546.600055 49.048797 
L 545.884474 49.23816 
L 545.606175 49.157078 
L 545.089404 49.176684 
L 544.453314 48.692679 
L 543.658161 48.154104 
L 543.340116 48.029478 
L 542.982326 47.892367 
L 542.465554 47.698371 
L 541.988446 47.578935 
L 541.789719 47.488801 
L 541.471675 47.559029 
L 541.272866 47.571342 
L 540.676604 47.822568 
L 540.318814 47.84153 
L 540.040514 47.767655 
L 539.603151 47.7837 
L 538.927399 47.45448 
L 538.132245 46.835725 
L 537.535901 46.275485 
L 537.257684 46.04927 
L 536.820321 45.73335 
L 535.945759 45.209147 
L 535.071115 44.931065 
L 534.792816 44.943892 
L 534.435026 44.961567 
L 533.878509 44.867143 
L 533.480974 44.916479 
L 532.96412 44.984948 
L 532.526839 45.135444 
L 532.089558 45.314468 
L 531.214915 45.773162 
L 530.022226 46.744303 
L 528.90911 48.212578 
L 528.074294 49.782055 
L 526.722624 53.483179 
L 525.609426 58.363598 
L 525.013164 61.49157 
L 524.019284 67.810662 
L 522.866341 76.930909 
L 522.150761 84.968987 
L 521.554499 94.609877 
L 520.9979 107.909203 
L 520.441301 119.783157 
L 520.322065 120.272481 
L 520.28232 120.159524 
L 520.163084 118.954917 
L 519.924529 113.165218 
L 518.970395 85.759818 
L 518.612605 82.038874 
L 518.215069 80.087409 
L 517.976515 79.763939 
L 517.698216 79.803407 
L 517.419916 80.118899 
L 517.022381 81.03517 
L 516.505609 82.946952 
L 515.988756 85.496193 
L 515.471984 89.013788 
L 514.796149 94.724893 
L 513.921506 104.903241 
L 513.484225 108.661938 
L 513.205925 109.680013 
L 512.649326 111.072868 
L 512.371109 112.416774 
L 512.013319 115.114065 
L 511.138675 122.830818 
L 511.059185 122.755055 
L 510.900121 121.931363 
L 510.621904 118.592192 
L 509.190661 98.159347 
L 508.832871 96.779705 
L 508.196781 93.92338 
L 507.68001 91.386022 
L 507.163156 87.029634 
L 506.05004 75.924589 
L 505.453696 72.247232 
L 504.97667 70.515762 
L 504.579135 69.458261 
L 503.744236 68.245332 
L 503.466019 67.906674 
L 502.988911 67.375049 
L 502.670866 67.195724 
L 502.392566 67.132189 
L 502.114267 67.093835 
L 500.84217 67.731425 
L 500.643361 68.06635 
L 500.245825 68.826378 
L 499.888035 69.237537 
L 499.569991 69.846083 
L 499.371182 70.082337 
L 498.059339 73.395639 
L 497.14495 76.127938 
L 495.912516 80.696341 
L 494.481356 87.149455 
L 493.527221 92.1536 
L 492.533342 97.676543 
L 491.619035 103.219563 
L 490.466091 110.703537 
L 489.551785 116.50469 
L 487.325471 130.508745 
L 484.900431 142.856579 
L 483.74757 146.720468 
L 482.912671 148.829163 
L 482.47539 149.646249 
L 481.561001 150.662908 
L 481.362275 150.616575 
L 480.805676 151.106286 
L 479.970777 151.027606 
L 479.772051 150.665396 
L 479.493751 150.212194 
L 479.096216 150.057366 
L 478.221572 148.013665 
L 477.307265 145.260645 
L 476.353131 141.26119 
L 474.325626 130.174807 
L 472.894465 121.134184 
L 471.821095 114.230141 
L 471.463305 112.240967 
L 471.14526 110.273501 
L 469.952571 103.100428 
L 469.475545 100.120893 
L 467.44804 87.753882 
L 466.970932 84.934624 
L 465.897562 78.902322 
L 461.763061 58.558024 
L 461.365526 56.922952 
L 460.530627 53.912013 
L 458.423632 47.32136 
L 458.224905 47.210633 
L 458.026097 47.099006 
L 457.82737 46.560946 
L 457.54907 46.000535 
L 457.390007 45.770587 
L 456.674427 44.068719 
L 455.998592 43.236146 
L 455.680547 42.772004 
L 455.402247 42.75759 
L 455.004712 41.849641 
L 454.925221 41.897303 
L 454.567431 42.112107 
L 454.368622 41.417374 
L 454.010832 40.555672 
L 453.812106 40.425897 
L 453.613297 40.353309 
L 453.255507 40.142624 
L 453.05678 40.49767 
L 452.857971 40.728561 
L 452.738735 40.418132 
L 452.42069 39.500058 
L 452.142391 39.355312 
L 451.625537 38.789324 
L 451.585792 38.8221 
L 451.387065 39.227725 
L 451.188256 39.512028 
L 450.949702 39.360846 
L 450.750976 39.573204 
L 450.71123 39.527 
L 450.154631 38.451953 
L 449.916077 38.338309 
L 449.637778 38.738572 
L 449.439051 38.905327 
L 449.28007 38.587648 
L 449.041516 38.274044 
L 448.64398 38.186226 
L 448.365681 38.299312 
L 448.047636 38.405835 
L 447.769336 38.523211 
L 447.212737 38.044912 
L 445.980386 39.089928 
L 445.781577 39.234503 
L 445.58285 38.926992 
L 445.304551 38.524412 
L 445.145487 38.868432 
L 445.026251 39.007087 
L 444.708207 38.51639 
L 444.668461 38.569715 
L 444.469652 38.797003 
L 444.310671 38.528573 
L 444.072117 38.173571 
L 443.754072 38.163017 
L 443.436027 37.881846 
L 442.919256 38.050532 
L 442.402402 37.568414 
L 441.726567 37.619251 
L 441.567586 37.726117 
L 441.170051 37.497113 
L 440.613452 37.800335 
L 440.454388 37.950058 
L 440.255661 38.229899 
L 440.215916 38.198839 
L 439.897871 37.916639 
L 439.778553 37.845595 
L 439.500336 37.625086 
L 439.1028 38.094934 
L 438.864246 38.344616 
L 438.705183 38.274044 
L 438.347393 37.714105 
L 438.307647 37.752544 
L 438.069093 37.886008 
L 437.910112 37.934142 
L 437.552322 38.286099 
L 436.677678 37.846796 
L 436.518697 38.012178 
L 436.041671 38.694728 
L 435.922352 38.48533 
L 435.644053 37.842893 
L 435.524817 38.003212 
L 435.246517 38.505107 
L 434.809237 38.461949 
L 434.650255 38.50249 
L 434.252638 38.207634 
L 433.97442 38.132901 
L 433.497312 38.042552 
L 433.298503 37.98365 
L 433.099777 37.820756 
L 432.861222 38.028352 
L 432.821477 37.974211 
L 432.582923 37.597029 
L 432.543178 37.623241 
L 432.344451 38.072454 
L 432.026406 38.652814 
L 431.907088 38.593096 
L 431.668616 37.935 
L 431.390317 37.447949 
L 431.191508 37.480768 
L 430.992781 37.726374 
L 430.754227 38.05272 
L 430.436182 37.933971 
L 430.157883 37.834227 
L 429.601366 37.98957 
L 429.442302 38.078245 
L 429.164003 38.278334 
L 428.845958 38.193562 
L 428.686977 38.110035 
L 428.488168 37.977386 
L 428.209951 38.233417 
L 428.170123 38.186312 
L 427.931651 37.983392 
L 427.613606 38.12312 
L 427.255816 38.114968 
L 427.057007 38.147659 
L 426.858281 38.088971 
L 426.381172 38.383998 
L 425.983637 38.281251 
L 425.784828 38.463364 
L 425.466783 38.40931 
L 425.268057 38.372673 
L 424.711458 38.102313 
L 424.313922 38.194935 
L 424.035623 38.02595 
L 423.916387 37.982191 
L 423.916387 37.982191 
" clip-path="url(#p5cc8810524)" style="fill: none; stroke: #1f77b4; stroke-width: 1.5; stroke-linecap: square"/>
   </g>
   <g id="patch_8">
    <path d="M 410.081676 354.958125 
L 410.081676 22.318125 
" style="fill: none; stroke: #000000; stroke-width: 0.8; stroke-linejoin: miter; stroke-linecap: square"/>
   </g>
   <g id="patch_9">
    <path d="M 714.445312 354.958125 
L 714.445312 22.318125 
" style="fill: none; stroke: #000000; stroke-width: 0.8; stroke-linejoin: miter; stroke-linecap: square"/>
   </g>
   <g id="patch_10">
    <path d="M 410.081676 354.958125 
L 714.445312 354.958125 
" style="fill: none; stroke: #000000; stroke-width: 0.8; stroke-linejoin: miter; stroke-linecap: square"/>
   </g>
   <g id="patch_11">
    <path d="M 410.081676 22.318125 
L 714.445312 22.318125 
" style="fill: none; stroke: #000000; stroke-width: 0.8; stroke-linejoin: miter; stroke-linecap: square"/>
   </g>
   <g id="text_36">
    <!-- Pure Methanol Spectrum -->
    <g transform="translate(488.195369 16.318125) scale(0.12 -0.12)">
     <defs>
      <path id="DejaVuSans-50" d="M 1259 4147 
L 1259 2394 
L 2053 2394 
Q 2494 2394 2734 2622 
Q 2975 2850 2975 3272 
Q 2975 3691 2734 3919 
Q 2494 4147 2053 4147 
L 1259 4147 
z
M 628 4666 
L 2053 4666 
Q 2838 4666 3239 4311 
Q 3641 3956 3641 3272 
Q 3641 2581 3239 2228 
Q 2838 1875 2053 1875 
L 1259 1875 
L 1259 0 
L 628 0 
L 628 4666 
z
" transform="scale(0.015625)"/>
     </defs>
     <use xlink:href="#DejaVuSans-50"/>
     <use xlink:href="#DejaVuSans-75" x="58.552734"/>
     <use xlink:href="#DejaVuSans-72" x="121.931641"/>
     <use xlink:href="#DejaVuSans-65" x="160.794922"/>
     <use xlink:href="#DejaVuSans-20" x="222.318359"/>
     <use xlink:href="#DejaVuSans-4d" x="254.105469"/>
     <use xlink:href="#DejaVuSans-65" x="340.384766"/>
     <use xlink:href="#DejaVuSans-74" x="401.908203"/>
     <use xlink:href="#DejaVuSans-68" x="441.117188"/>
     <use xlink:href="#DejaVuSans-61" x="504.496094"/>
     <use xlink:href="#DejaVuSans-6e" x="565.775391"/>
     <use xlink:href="#DejaVuSans-6f" x="629.154297"/>
     <use xlink:href="#DejaVuSans-6c" x="690.335938"/>
     <use xlink:href="#DejaVuSans-20" x="718.119141"/>
     <use xlink:href="#DejaVuSans-53" x="749.90625"/>
     <use xlink:href="#DejaVuSans-70" x="813.382812"/>
     <use xlink:href="#DejaVuSans-65" x="876.859375"/>
     <use xlink:href="#DejaVuSans-63" x="938.382812"/>
     <use xlink:href="#DejaVuSans-74" x="993.363281"/>
     <use xlink:href="#DejaVuSans-72" x="1032.572266"/>
     <use xlink:href="#DejaVuSans-75" x="1073.685547"/>
     <use xlink:href="#DejaVuSans-6d" x="1137.064453"/>
    </g>
   </g>
  </g>
 </g>
 <defs>
  <clipPath id="pc6cc867851">
   <rect x="44.845313" y="22.318125" width="304.363636" height="332.64"/>
  </clipPath>
  <clipPath id="p5cc8810524">
   <rect x="410.081676" y="22.318125" width="304.363636" height="332.64"/>
  </clipPath>
 </defs>
</svg>