<?xml version="1.0" encoding="utf-8" standalone="no"?>
<!DOCTYPE svg PUBLIC "-//W3C//DTD SVG 1.1//EN"
  "http://www.w3.org/Graphics/SVG/1.1/DTD/svg11.dtd">
<svg xmlns:xlink="http://www.w3.org/1999/xlink" width="391.245pt" height="297.190125pt" viewBox="0 0 391.245 297.190125" xmlns="http://www.w3.org/2000/svg" version="1.1">
 <metadata>
  <rdf:RDF xmlns:dc="http://purl.org/dc/elements/1.1/" xmlns:cc="http://creativecommons.org/ns#" xmlns:rdf="http://www.w3.org/1999/02/22-rdf-syntax-ns#">
   <cc:Work>
    <dc:type rdf:resource="http://purl.org/dc/dcmitype/StillImage"/>
    <dc:date>2023-06-10T10:56:40.455495</dc:date>
    <dc:format>image/svg+xml</dc:format>
    <dc:creator>
     <cc:Agent>
      <dc:title>Matplotlib v3.7.1, https://matplotlib.org/</dc:title>
     </cc:Agent>
    </dc:creator>
   </cc:Work>
  </rdf:RDF>
 </metadata>
 <defs>
  <style type="text/css">*{stroke-linejoin: round; stroke-linecap: butt}</style>
 </defs>
 <g id="figure_1">
  <g id="patch_1">
   <path d="M 0 297.190125 
L 391.245 297.190125 
L 391.245 0 
L 0 0 
z
" style="fill: #ffffff"/>
  </g>
  <g id="axes_1">
   <g id="patch_2">
    <path d="M 26.925 273.312 
L 384.045 273.312 
L 384.045 7.2 
L 26.925 7.2 
z
" style="fill: #ffffff"/>
   </g>
   <g id="PathCollection_1">
    <defs>
     <path id="mc23bb870b9" d="M 0 3 
C 0.795609 3 1.55874 2.683901 2.12132 2.12132 
C 2.683901 1.55874 3 0.795609 3 0 
C 3 -0.795609 2.683901 -1.55874 2.12132 -2.12132 
C 1.55874 -2.683901 0.795609 -3 0 -3 
C -0.795609 -3 -1.55874 -2.683901 -2.12132 -2.12132 
C -2.683901 -1.55874 -3 -0.795609 -3 0 
C -3 0.795609 -2.683901 1.55874 -2.12132 2.12132 
C -1.55874 2.683901 -0.795609 3 0 3 
z
" style="stroke: #1f77b4; stroke-opacity: 0.8"/>
    </defs>
    <g clip-path="url(#p808ad9b367)">
     <use xlink:href="#mc23bb870b9" x="43.157727" y="245.27268" style="fill: #1f77b4; fill-opacity: 0.8; stroke: #1f77b4; stroke-opacity: 0.8"/>
     <use xlink:href="#mc23bb870b9" x="79.230455" y="231.43499" style="fill: #1f77b4; fill-opacity: 0.8; stroke: #1f77b4; stroke-opacity: 0.8"/>
     <use xlink:href="#mc23bb870b9" x="115.303182" y="191.014162" style="fill: #1f77b4; fill-opacity: 0.8; stroke: #1f77b4; stroke-opacity: 0.8"/>
     <use xlink:href="#mc23bb870b9" x="151.375909" y="188.694054" style="fill: #1f77b4; fill-opacity: 0.8; stroke: #1f77b4; stroke-opacity: 0.8"/>
     <use xlink:href="#mc23bb870b9" x="187.448636" y="134.270338" style="fill: #1f77b4; fill-opacity: 0.8; stroke: #1f77b4; stroke-opacity: 0.8"/>
     <use xlink:href="#mc23bb870b9" x="223.521364" y="124.598553" style="fill: #1f77b4; fill-opacity: 0.8; stroke: #1f77b4; stroke-opacity: 0.8"/>
     <use xlink:href="#mc23bb870b9" x="259.594091" y="116.983666" style="fill: #1f77b4; fill-opacity: 0.8; stroke: #1f77b4; stroke-opacity: 0.8"/>
     <use xlink:href="#mc23bb870b9" x="295.666818" y="85.851717" style="fill: #1f77b4; fill-opacity: 0.8; stroke: #1f77b4; stroke-opacity: 0.8"/>
     <use xlink:href="#mc23bb870b9" x="331.739545" y="53.537146" style="fill: #1f77b4; fill-opacity: 0.8; stroke: #1f77b4; stroke-opacity: 0.8"/>
     <use xlink:href="#mc23bb870b9" x="367.812273" y="19.296" style="fill: #1f77b4; fill-opacity: 0.8; stroke: #1f77b4; stroke-opacity: 0.8"/>
    </g>
   </g>
   <g id="PolyCollection_1">
    <path d="M 43.157727 238.11532 
L 43.157727 261.216 
L 46.437066 258.889614 
L 49.716405 256.563229 
L 52.995744 254.236843 
L 56.275083 251.910458 
L 59.554421 249.584072 
L 62.83376 247.257383 
L 66.113099 244.903387 
L 69.392438 242.562528 
L 72.671777 240.227572 
L 75.951116 237.834829 
L 79.230455 235.441465 
L 82.509793 233.086514 
L 85.789132 230.743584 
L 89.068471 228.400655 
L 92.34781 226.042771 
L 95.627149 223.625467 
L 98.906488 221.277863 
L 102.185826 218.929978 
L 105.465165 216.581859 
L 108.744504 214.23374 
L 112.023843 211.885621 
L 115.303182 209.537502 
L 118.582521 207.189383 
L 121.86186 204.841723 
L 125.141198 202.52003 
L 128.420537 200.224104 
L 131.699876 197.889317 
L 134.979215 195.520884 
L 138.258554 193.217992 
L 141.537893 190.914884 
L 144.817231 188.578711 
L 148.09657 186.248342 
L 151.375909 184.008547 
L 154.655248 181.704235 
L 157.934587 179.353311 
L 161.213926 177.052487 
L 164.493264 174.800188 
L 167.772603 172.499482 
L 171.051942 170.198777 
L 174.331281 167.898071 
L 177.61062 165.596463 
L 180.889959 163.290939 
L 184.169298 160.987601 
L 187.448636 158.686585 
L 190.727975 156.39253 
L 194.007314 154.165196 
L 197.286653 151.876852 
L 200.565992 149.699804 
L 203.845331 147.380128 
L 207.124669 145.043358 
L 210.404008 142.677913 
L 213.683347 140.526524 
L 216.962686 138.157747 
L 220.242025 135.969754 
L 223.521364 133.865484 
L 226.800702 131.632004 
L 230.080041 129.372183 
L 233.35938 127.154353 
L 236.638719 125.135862 
L 239.918058 122.911558 
L 243.197397 120.718943 
L 246.476736 118.406981 
L 249.756074 116.286193 
L 253.035413 114.163655 
L 256.314752 112.113455 
L 259.594091 109.942748 
L 262.87343 107.735207 
L 266.152769 105.637949 
L 269.432107 103.563945 
L 272.711446 101.468671 
L 275.990785 99.381957 
L 279.270124 97.367372 
L 282.549463 95.33029 
L 285.828802 93.360298 
L 289.10814 91.31745 
L 292.387479 89.179954 
L 295.666818 87.02035 
L 298.946157 84.935917 
L 302.225496 82.941402 
L 305.504835 80.882191 
L 308.784174 78.775537 
L 312.063512 76.714099 
L 315.342851 74.649523 
L 318.62219 72.473803 
L 321.901529 70.348921 
L 325.180868 68.242267 
L 328.460207 66.135614 
L 331.739545 64.02896 
L 335.018884 62.0041 
L 338.298223 60.065175 
L 341.577562 57.984547 
L 344.856901 55.936932 
L 348.13624 53.889597 
L 351.415579 51.825504 
L 354.694917 49.790383 
L 357.974256 47.755262 
L 361.253595 45.720436 
L 364.532934 43.688617 
L 367.812273 41.656797 
L 367.812273 20.015246 
L 367.812273 20.015246 
L 364.532934 22.400472 
L 361.253595 24.703915 
L 357.974256 26.948892 
L 354.694917 29.284008 
L 351.415579 31.620596 
L 348.13624 33.957184 
L 344.856901 36.22586 
L 341.577562 38.509391 
L 338.298223 40.713225 
L 335.018884 43.018071 
L 331.739545 45.325335 
L 328.460207 47.653373 
L 325.180868 49.999373 
L 321.901529 52.345392 
L 318.62219 54.691759 
L 315.342851 56.97557 
L 312.063512 59.246916 
L 308.784174 61.548193 
L 305.504835 63.911225 
L 302.225496 66.224451 
L 298.946157 68.491974 
L 295.666818 70.80849 
L 292.387479 73.001228 
L 289.10814 75.303759 
L 285.828802 77.59214 
L 282.549463 79.83762 
L 279.270124 82.083101 
L 275.990785 84.32957 
L 272.711446 86.576069 
L 269.432107 88.878786 
L 266.152769 91.263685 
L 262.87343 93.516124 
L 259.594091 95.811985 
L 256.314752 98.063949 
L 253.035413 100.345447 
L 249.756074 102.686597 
L 246.476736 104.921345 
L 243.197397 107.133922 
L 239.918058 109.371434 
L 236.638719 111.630207 
L 233.35938 113.815283 
L 230.080041 116.007084 
L 226.800702 118.263443 
L 223.521364 120.500859 
L 220.242025 122.72137 
L 216.962686 124.925294 
L 213.683347 127.228135 
L 210.404008 129.369256 
L 207.124669 131.592075 
L 203.845331 133.839098 
L 200.565992 136.03443 
L 197.286653 138.257065 
L 194.007314 140.451519 
L 190.727975 142.697465 
L 187.448636 144.923085 
L 184.169298 147.071461 
L 180.889959 149.207819 
L 177.61062 151.385459 
L 174.331281 153.59802 
L 171.051942 155.763617 
L 167.772603 158.02319 
L 164.493264 160.191412 
L 161.213926 162.308417 
L 157.934587 164.425476 
L 154.655248 166.575351 
L 151.375909 168.730508 
L 148.09657 170.857108 
L 144.817231 172.984064 
L 141.537893 175.021327 
L 138.258554 177.210811 
L 134.979215 179.360758 
L 131.699876 181.457227 
L 128.420537 183.528685 
L 125.141198 185.697467 
L 121.86186 187.804498 
L 118.582521 189.958692 
L 115.303182 192.073188 
L 112.023843 194.187256 
L 108.744504 196.256625 
L 105.465165 198.339356 
L 102.185826 200.46961 
L 98.906488 202.608885 
L 95.627149 204.697966 
L 92.34781 206.787125 
L 89.068471 208.888651 
L 85.789132 210.982289 
L 82.509793 213.059359 
L 79.230455 215.174784 
L 75.951116 217.263815 
L 72.671777 219.352845 
L 69.392438 221.441876 
L 66.113099 223.530906 
L 62.83376 225.619937 
L 59.554421 227.676757 
L 56.275083 229.760348 
L 52.995744 231.850373 
L 49.716405 233.971643 
L 46.437066 236.06509 
L 43.157727 238.11532 
z
" clip-path="url(#p808ad9b367)" style="fill: #1f77b4; fill-opacity: 0.15"/>
   </g>
   <g id="matplotlib.axis_1">
    <g id="xtick_1">
     <g id="line2d_1">
      <defs>
       <path id="m6c2b376265" d="M 0 0 
L 0 3.5 
" style="stroke: #000000; stroke-width: 0.8"/>
      </defs>
      <g>
       <use xlink:href="#m6c2b376265" x="43.157727" y="273.312" style="stroke: #000000; stroke-width: 0.8"/>
      </g>
     </g>
     <g id="text_1">
      <!-- 0 -->
      <g transform="translate(39.976477 287.910437) scale(0.1 -0.1)">
       <defs>
        <path id="DejaVuSans-30" d="M 2034 4250 
Q 1547 4250 1301 3770 
Q 1056 3291 1056 2328 
Q 1056 1369 1301 889 
Q 1547 409 2034 409 
Q 2525 409 2770 889 
Q 3016 1369 3016 2328 
Q 3016 3291 2770 3770 
Q 2525 4250 2034 4250 
z
M 2034 4750 
Q 2819 4750 3233 4129 
Q 3647 3509 3647 2328 
Q 3647 1150 3233 529 
Q 2819 -91 2034 -91 
Q 1250 -91 836 529 
Q 422 1150 422 2328 
Q 422 3509 836 4129 
Q 1250 4750 2034 4750 
z
" transform="scale(0.015625)"/>
       </defs>
       <use xlink:href="#DejaVuSans-30"/>
      </g>
     </g>
    </g>
    <g id="xtick_2">
     <g id="line2d_2">
      <g>
       <use xlink:href="#m6c2b376265" x="115.303182" y="273.312" style="stroke: #000000; stroke-width: 0.8"/>
      </g>
     </g>
     <g id="text_2">
      <!-- 2 -->
      <g transform="translate(112.121932 287.910437) scale(0.1 -0.1)">
       <defs>
        <path id="DejaVuSans-32" d="M 1228 531 
L 3431 531 
L 3431 0 
L 469 0 
L 469 531 
Q 828 903 1448 1529 
Q 2069 2156 2228 2338 
Q 2531 2678 2651 2914 
Q 2772 3150 2772 3378 
Q 2772 3750 2511 3984 
Q 2250 4219 1831 4219 
Q 1534 4219 1204 4116 
Q 875 4013 500 3803 
L 500 4441 
Q 881 4594 1212 4672 
Q 1544 4750 1819 4750 
Q 2544 4750 2975 4387 
Q 3406 4025 3406 3419 
Q 3406 3131 3298 2873 
Q 3191 2616 2906 2266 
Q 2828 2175 2409 1742 
Q 1991 1309 1228 531 
z
" transform="scale(0.015625)"/>
       </defs>
       <use xlink:href="#DejaVuSans-32"/>
      </g>
     </g>
    </g>
    <g id="xtick_3">
     <g id="line2d_3">
      <g>
       <use xlink:href="#m6c2b376265" x="187.448636" y="273.312" style="stroke: #000000; stroke-width: 0.8"/>
      </g>
     </g>
     <g id="text_3">
      <!-- 4 -->
      <g transform="translate(184.267386 287.910437) scale(0.1 -0.1)">
       <defs>
        <path id="DejaVuSans-34" d="M 2419 4116 
L 825 1625 
L 2419 1625 
L 2419 4116 
z
M 2253 4666 
L 3047 4666 
L 3047 1625 
L 3713 1625 
L 3713 1100 
L 3047 1100 
L 3047 0 
L 2419 0 
L 2419 1100 
L 313 1100 
L 313 1709 
L 2253 4666 
z
" transform="scale(0.015625)"/>
       </defs>
       <use xlink:href="#DejaVuSans-34"/>
      </g>
     </g>
    </g>
    <g id="xtick_4">
     <g id="line2d_4">
      <g>
       <use xlink:href="#m6c2b376265" x="259.594091" y="273.312" style="stroke: #000000; stroke-width: 0.8"/>
      </g>
     </g>
     <g id="text_4">
      <!-- 6 -->
      <g transform="translate(256.412841 287.910437) scale(0.1 -0.1)">
       <defs>
        <path id="DejaVuSans-36" d="M 2113 2584 
Q 1688 2584 1439 2293 
Q 1191 2003 1191 1497 
Q 1191 994 1439 701 
Q 1688 409 2113 409 
Q 2538 409 2786 701 
Q 3034 994 3034 1497 
Q 3034 2003 2786 2293 
Q 2538 2584 2113 2584 
z
M 3366 4563 
L 3366 3988 
Q 3128 4100 2886 4159 
Q 2644 4219 2406 4219 
Q 1781 4219 1451 3797 
Q 1122 3375 1075 2522 
Q 1259 2794 1537 2939 
Q 1816 3084 2150 3084 
Q 2853 3084 3261 2657 
Q 3669 2231 3669 1497 
Q 3669 778 3244 343 
Q 2819 -91 2113 -91 
Q 1303 -91 875 529 
Q 447 1150 447 2328 
Q 447 3434 972 4092 
Q 1497 4750 2381 4750 
Q 2619 4750 2861 4703 
Q 3103 4656 3366 4563 
z
" transform="scale(0.015625)"/>
       </defs>
       <use xlink:href="#DejaVuSans-36"/>
      </g>
     </g>
    </g>
    <g id="xtick_5">
     <g id="line2d_5">
      <g>
       <use xlink:href="#m6c2b376265" x="331.739545" y="273.312" style="stroke: #000000; stroke-width: 0.8"/>
      </g>
     </g>
     <g id="text_5">
      <!-- 8 -->
      <g transform="translate(328.558295 287.910437) scale(0.1 -0.1)">
       <defs>
        <path id="DejaVuSans-38" d="M 2034 2216 
Q 1584 2216 1326 1975 
Q 1069 1734 1069 1313 
Q 1069 891 1326 650 
Q 1584 409 2034 409 
Q 2484 409 2743 651 
Q 3003 894 3003 1313 
Q 3003 1734 2745 1975 
Q 2488 2216 2034 2216 
z
M 1403 2484 
Q 997 2584 770 2862 
Q 544 3141 544 3541 
Q 544 4100 942 4425 
Q 1341 4750 2034 4750 
Q 2731 4750 3128 4425 
Q 3525 4100 3525 3541 
Q 3525 3141 3298 2862 
Q 3072 2584 2669 2484 
Q 3125 2378 3379 2068 
Q 3634 1759 3634 1313 
Q 3634 634 3220 271 
Q 2806 -91 2034 -91 
Q 1263 -91 848 271 
Q 434 634 434 1313 
Q 434 1759 690 2068 
Q 947 2378 1403 2484 
z
M 1172 3481 
Q 1172 3119 1398 2916 
Q 1625 2713 2034 2713 
Q 2441 2713 2670 2916 
Q 2900 3119 2900 3481 
Q 2900 3844 2670 4047 
Q 2441 4250 2034 4250 
Q 1625 4250 1398 4047 
Q 1172 3844 1172 3481 
z
" transform="scale(0.015625)"/>
       </defs>
       <use xlink:href="#DejaVuSans-38"/>
      </g>
     </g>
    </g>
   </g>
   <g id="matplotlib.axis_2">
    <g id="ytick_1">
     <g id="line2d_6">
      <defs>
       <path id="m0a3ba10abf" d="M 0 0 
L -3.5 0 
" style="stroke: #000000; stroke-width: 0.8"/>
      </defs>
      <g>
       <use xlink:href="#m0a3ba10abf" x="26.925" y="240.678618" style="stroke: #000000; stroke-width: 0.8"/>
      </g>
     </g>
     <g id="text_6">
      <!-- 0 -->
      <g transform="translate(13.5625 244.477836) scale(0.1 -0.1)">
       <use xlink:href="#DejaVuSans-30"/>
      </g>
     </g>
    </g>
    <g id="ytick_2">
     <g id="line2d_7">
      <g>
       <use xlink:href="#m0a3ba10abf" x="26.925" y="187.548412" style="stroke: #000000; stroke-width: 0.8"/>
      </g>
     </g>
     <g id="text_7">
      <!-- 5 -->
      <g transform="translate(13.5625 191.34763) scale(0.1 -0.1)">
       <defs>
        <path id="DejaVuSans-35" d="M 691 4666 
L 3169 4666 
L 3169 4134 
L 1269 4134 
L 1269 2991 
Q 1406 3038 1543 3061 
Q 1681 3084 1819 3084 
Q 2600 3084 3056 2656 
Q 3513 2228 3513 1497 
Q 3513 744 3044 326 
Q 2575 -91 1722 -91 
Q 1428 -91 1123 -41 
Q 819 9 494 109 
L 494 744 
Q 775 591 1075 516 
Q 1375 441 1709 441 
Q 2250 441 2565 725 
Q 2881 1009 2881 1497 
Q 2881 1984 2565 2268 
Q 2250 2553 1709 2553 
Q 1456 2553 1204 2497 
Q 953 2441 691 2322 
L 691 4666 
z
" transform="scale(0.015625)"/>
       </defs>
       <use xlink:href="#DejaVuSans-35"/>
      </g>
     </g>
    </g>
    <g id="ytick_3">
     <g id="line2d_8">
      <g>
       <use xlink:href="#m0a3ba10abf" x="26.925" y="134.418205" style="stroke: #000000; stroke-width: 0.8"/>
      </g>
     </g>
     <g id="text_8">
      <!-- 10 -->
      <g transform="translate(7.2 138.217424) scale(0.1 -0.1)">
       <defs>
        <path id="DejaVuSans-31" d="M 794 531 
L 1825 531 
L 1825 4091 
L 703 3866 
L 703 4441 
L 1819 4666 
L 2450 4666 
L 2450 531 
L 3481 531 
L 3481 0 
L 794 0 
L 794 531 
z
" transform="scale(0.015625)"/>
       </defs>
       <use xlink:href="#DejaVuSans-31"/>
       <use xlink:href="#DejaVuSans-30" x="63.623047"/>
      </g>
     </g>
    </g>
    <g id="ytick_4">
     <g id="line2d_9">
      <g>
       <use xlink:href="#m0a3ba10abf" x="26.925" y="81.287999" style="stroke: #000000; stroke-width: 0.8"/>
      </g>
     </g>
     <g id="text_9">
      <!-- 15 -->
      <g transform="translate(7.2 85.087218) scale(0.1 -0.1)">
       <use xlink:href="#DejaVuSans-31"/>
       <use xlink:href="#DejaVuSans-35" x="63.623047"/>
      </g>
     </g>
    </g>
    <g id="ytick_5">
     <g id="line2d_10">
      <g>
       <use xlink:href="#m0a3ba10abf" x="26.925" y="28.157793" style="stroke: #000000; stroke-width: 0.8"/>
      </g>
     </g>
     <g id="text_10">
      <!-- 20 -->
      <g transform="translate(7.2 31.957012) scale(0.1 -0.1)">
       <use xlink:href="#DejaVuSans-32"/>
       <use xlink:href="#DejaVuSans-30" x="63.623047"/>
      </g>
     </g>
    </g>
   </g>
   <g id="line2d_11">
    <path d="M 43.157727 248.995973 
L 46.437066 246.775758 
L 49.716405 244.555543 
L 52.995744 242.335328 
L 56.275083 240.115113 
L 59.554421 237.894898 
L 62.83376 235.674683 
L 66.113099 233.454468 
L 69.392438 231.234253 
L 72.671777 229.014038 
L 75.951116 226.793823 
L 79.230455 224.573608 
L 82.509793 222.353393 
L 85.789132 220.133178 
L 89.068471 217.912963 
L 92.34781 215.692748 
L 95.627149 213.472533 
L 98.906488 211.252318 
L 102.185826 209.032103 
L 105.465165 206.811888 
L 108.744504 204.591673 
L 112.023843 202.371458 
L 115.303182 200.151243 
L 118.582521 197.931028 
L 121.86186 195.710813 
L 125.141198 193.490598 
L 128.420537 191.270383 
L 131.699876 189.050168 
L 134.979215 186.829953 
L 138.258554 184.609738 
L 141.537893 182.389523 
L 144.817231 180.169308 
L 148.09657 177.949093 
L 151.375909 175.728878 
L 154.655248 173.508663 
L 157.934587 171.288448 
L 161.213926 169.068233 
L 164.493264 166.848018 
L 167.772603 164.627803 
L 171.051942 162.407588 
L 174.331281 160.187373 
L 177.61062 157.967158 
L 180.889959 155.746943 
L 184.169298 153.526728 
L 187.448636 151.306513 
L 190.727975 149.086298 
L 194.007314 146.866083 
L 197.286653 144.645868 
L 200.565992 142.425653 
L 203.845331 140.205438 
L 207.124669 137.985223 
L 210.404008 135.765008 
L 213.683347 133.544793 
L 216.962686 131.324578 
L 220.242025 129.104363 
L 223.521364 126.884148 
L 226.800702 124.663933 
L 230.080041 122.443718 
L 233.35938 120.223503 
L 236.638719 118.003288 
L 239.918058 115.783073 
L 243.197397 113.562858 
L 246.476736 111.342643 
L 249.756074 109.122428 
L 253.035413 106.902213 
L 256.314752 104.681998 
L 259.594091 102.461783 
L 262.87343 100.241568 
L 266.152769 98.021353 
L 269.432107 95.801138 
L 272.711446 93.580923 
L 275.990785 91.360708 
L 279.270124 89.140493 
L 282.549463 86.920278 
L 285.828802 84.700063 
L 289.10814 82.479848 
L 292.387479 80.259633 
L 295.666818 78.039418 
L 298.946157 75.819203 
L 302.225496 73.598988 
L 305.504835 71.378773 
L 308.784174 69.158558 
L 312.063512 66.938343 
L 315.342851 64.718128 
L 318.62219 62.497913 
L 321.901529 60.277698 
L 325.180868 58.057483 
L 328.460207 55.837268 
L 331.739545 53.617053 
L 335.018884 51.396839 
L 338.298223 49.176624 
L 341.577562 46.956409 
L 344.856901 44.736194 
L 348.13624 42.515979 
L 351.415579 40.295764 
L 354.694917 38.075549 
L 357.974256 35.855334 
L 361.253595 33.635119 
L 364.532934 31.414904 
L 367.812273 29.194689 
" clip-path="url(#p808ad9b367)" style="fill: none; stroke: #1f77b4; stroke-width: 2.25; stroke-linecap: square"/>
   </g>
   <g id="patch_3">
    <path d="M 26.925 273.312 
L 26.925 7.2 
" style="fill: none; stroke: #000000; stroke-width: 0.8; stroke-linejoin: miter; stroke-linecap: square"/>
   </g>
   <g id="patch_4">
    <path d="M 384.045 273.312 
L 384.045 7.2 
" style="fill: none; stroke: #000000; stroke-width: 0.8; stroke-linejoin: miter; stroke-linecap: square"/>
   </g>
   <g id="patch_5">
    <path d="M 26.925 273.312 
L 384.045 273.312 
" style="fill: none; stroke: #000000; stroke-width: 0.8; stroke-linejoin: miter; stroke-linecap: square"/>
   </g>
   <g id="patch_6">
    <path d="M 26.925 7.2 
L 384.045 7.2 
" style="fill: none; stroke: #000000; stroke-width: 0.8; stroke-linejoin: miter; stroke-linecap: square"/>
   </g>
  </g>
 </g>
 <defs>
  <clipPath id="p808ad9b367">
   <rect x="26.925" y="7.2" width="357.12" height="266.112"/>
  </clipPath>
 </defs>
</svg>