<?xml version="1.0" encoding="utf-8" standalone="no"?>
<!DOCTYPE svg PUBLIC "-//W3C//DTD SVG 1.1//EN"
  "http://www.w3.org/Graphics/SVG/1.1/DTD/svg11.dtd">
<svg xmlns:xlink="http://www.w3.org/1999/xlink" width="532.7175pt" height="351.99625pt" viewBox="0 0 532.7175 351.99625" xmlns="http://www.w3.org/2000/svg" version="1.1">
 <metadata>
  <rdf:RDF xmlns:dc="http://purl.org/dc/elements/1.1/" xmlns:cc="http://creativecommons.org/ns#" xmlns:rdf="http://www.w3.org/1999/02/22-rdf-syntax-ns#">
   <cc:Work>
    <dc:type rdf:resource="http://purl.org/dc/dcmitype/StillImage"/>
    <dc:date>2025-12-27T13:17:29.748606</dc:date>
    <dc:format>image/svg+xml</dc:format>
    <dc:creator>
     <cc:Agent>
      <dc:title>Matplotlib v3.10.3, https://matplotlib.org/</dc:title>
     </cc:Agent>
    </dc:creator>
   </cc:Work>
  </rdf:RDF>
 </metadata>
 <defs>
  <style type="text/css">*{stroke-linejoin: round; stroke-linecap: butt}</style>
 </defs>
 <g id="figure_1">
  <g id="patch_1">
   <path d="M 0 351.99625 
L 532.7175 351.99625 
L 532.7175 0 
L 0 0 
z
" style="fill: #ffffff"/>
  </g>
  <g id="axes_1">
   <g id="patch_2">
    <path d="M 47.1875 314.44 
L 525.5175 314.44 
L 525.5175 7.2 
L 47.1875 7.2 
z
" style="fill: #ffffff"/>
   </g>
   <g id="PathCollection_1">
    <defs>
     <path id="m388928602e" d="M 0 3 
C 0.795609 3 1.55874 2.683901 2.12132 2.12132 
C 2.683901 1.55874 3 0.795609 3 0 
C 3 -0.795609 2.683901 -1.55874 2.12132 -2.12132 
C 1.55874 -2.683901 0.795609 -3 0 -3 
C -0.795609 -3 -1.55874 -2.683901 -2.12132 -2.12132 
C -2.683901 -1.55874 -3 -0.795609 -3 0 
C -3 0.795609 -2.683901 1.55874 -2.12132 2.12132 
C -1.55874 2.683901 -0.795609 3 0 3 
z
" style="stroke: #1f77b4; stroke-opacity: 0.8"/>
    </defs>
    <g clip-path="url(#p79a425fda3)">
     <use xlink:href="#m388928602e" x="68.929773" y="253.98271" style="fill: #1f77b4; fill-opacity: 0.8; stroke: #1f77b4; stroke-opacity: 0.8"/>
     <use xlink:href="#m388928602e" x="113.043162" y="237.647741" style="fill: #1f77b4; fill-opacity: 0.8; stroke: #1f77b4; stroke-opacity: 0.8"/>
     <use xlink:href="#m388928602e" x="157.156551" y="212.51702" style="fill: #1f77b4; fill-opacity: 0.8; stroke: #1f77b4; stroke-opacity: 0.8"/>
     <use xlink:href="#m388928602e" x="201.238498" y="187.386298" style="fill: #1f77b4; fill-opacity: 0.8; stroke: #1f77b4; stroke-opacity: 0.8"/>
     <use xlink:href="#m388928602e" x="245.351887" y="160.999041" style="fill: #1f77b4; fill-opacity: 0.8; stroke: #1f77b4; stroke-opacity: 0.8"/>
     <use xlink:href="#m388928602e" x="289.465277" y="138.381391" style="fill: #1f77b4; fill-opacity: 0.8; stroke: #1f77b4; stroke-opacity: 0.8"/>
     <use xlink:href="#m388928602e" x="333.547224" y="114.507206" style="fill: #1f77b4; fill-opacity: 0.8; stroke: #1f77b4; stroke-opacity: 0.8"/>
     <use xlink:href="#m388928602e" x="377.660613" y="90.63302" style="fill: #1f77b4; fill-opacity: 0.8; stroke: #1f77b4; stroke-opacity: 0.8"/>
     <use xlink:href="#m388928602e" x="421.74256" y="69.271907" style="fill: #1f77b4; fill-opacity: 0.8; stroke: #1f77b4; stroke-opacity: 0.8"/>
     <use xlink:href="#m388928602e" x="465.855949" y="44.141185" style="fill: #1f77b4; fill-opacity: 0.8; stroke: #1f77b4; stroke-opacity: 0.8"/>
     <use xlink:href="#m388928602e" x="201.238498" y="199.951659" style="fill: #1f77b4; fill-opacity: 0.8; stroke: #1f77b4; stroke-opacity: 0.8"/>
     <use xlink:href="#m388928602e" x="201.238498" y="231.365061" style="fill: #1f77b4; fill-opacity: 0.8; stroke: #1f77b4; stroke-opacity: 0.8"/>
     <use xlink:href="#m388928602e" x="245.351887" y="171.051329" style="fill: #1f77b4; fill-opacity: 0.8; stroke: #1f77b4; stroke-opacity: 0.8"/>
     <use xlink:href="#m388928602e" x="289.465277" y="166.025185" style="fill: #1f77b4; fill-opacity: 0.8; stroke: #1f77b4; stroke-opacity: 0.8"/>
     <use xlink:href="#m388928602e" x="333.547224" y="159.742504" style="fill: #1f77b4; fill-opacity: 0.8; stroke: #1f77b4; stroke-opacity: 0.8"/>
     <use xlink:href="#m388928602e" x="264.091431" y="106.967989" style="fill: #1f77b4; fill-opacity: 0.8; stroke: #1f77b4; stroke-opacity: 0.8"/>
     <use xlink:href="#m388928602e" x="308.20482" y="81.837267" style="fill: #1f77b4; fill-opacity: 0.8; stroke: #1f77b4; stroke-opacity: 0.8"/>
     <use xlink:href="#m388928602e" x="396.400157" y="59.219618" style="fill: #1f77b4; fill-opacity: 0.8; stroke: #1f77b4; stroke-opacity: 0.8"/>
    </g>
   </g>
   <g id="FillBetweenPolyCollection_1">
    <path d="M 68.929773 249.708688 
L 68.929773 284.393484 
L 72.939128 281.910561 
L 76.948483 279.427637 
L 80.957839 276.944714 
L 84.967194 274.46179 
L 88.976549 272.030226 
L 92.985905 269.495386 
L 96.99526 267.011642 
L 101.004615 264.527158 
L 105.013971 261.917546 
L 109.023326 259.251116 
L 113.032681 256.755363 
L 117.042037 254.249386 
L 121.051392 251.760566 
L 125.060747 249.270383 
L 129.070102 246.776614 
L 133.079458 244.291007 
L 137.088813 241.865803 
L 141.098168 239.391147 
L 145.107524 236.916492 
L 149.116879 234.440148 
L 153.126234 231.960576 
L 157.13559 229.481004 
L 161.144945 226.954597 
L 165.1543 224.527875 
L 169.163656 221.85203 
L 173.173011 219.448508 
L 177.182366 217.096631 
L 181.191722 214.399827 
L 185.201077 211.955551 
L 189.210432 209.582226 
L 193.219788 207.20354 
L 197.229143 204.714541 
L 201.238498 202.269893 
L 205.247853 199.820798 
L 209.257209 197.307525 
L 213.266564 194.836057 
L 217.275919 192.343284 
L 221.285275 189.988615 
L 225.29463 187.566793 
L 229.303985 185.087633 
L 233.313341 182.647028 
L 237.322696 180.560922 
L 241.332051 178.100878 
L 245.341407 175.623054 
L 249.350762 173.159756 
L 253.360117 170.677925 
L 257.369473 168.470433 
L 261.378828 166.555124 
L 265.388183 164.462266 
L 269.397539 162.175395 
L 273.406894 159.884846 
L 277.416249 157.855892 
L 281.425604 155.752427 
L 285.43496 153.594299 
L 289.444315 151.289128 
L 293.45367 149.005072 
L 297.463026 146.944546 
L 301.472381 144.595755 
L 305.481736 142.425537 
L 309.491092 140.126642 
L 313.500447 138.013497 
L 317.509802 135.900026 
L 321.519158 133.747404 
L 325.528513 131.579281 
L 329.537868 129.565995 
L 333.547224 127.458233 
L 337.556579 125.34884 
L 341.565934 123.331442 
L 345.57529 121.135892 
L 349.584645 119.00832 
L 353.594 116.828515 
L 357.603355 114.761263 
L 361.612711 112.676654 
L 365.622066 110.586817 
L 369.631421 108.503064 
L 373.640777 106.419311 
L 377.650132 104.335557 
L 381.659487 102.259717 
L 385.668843 100.271979 
L 389.678198 98.150296 
L 393.687553 96.06865 
L 397.696909 94.043427 
L 401.706264 91.887056 
L 405.715619 89.806608 
L 409.724975 87.776087 
L 413.73433 85.745566 
L 417.743685 83.715045 
L 421.753041 81.684524 
L 425.762396 79.654003 
L 429.771751 77.623482 
L 433.781106 75.592961 
L 437.790462 73.56244 
L 441.799817 71.531919 
L 445.809172 69.501397 
L 449.818528 67.470876 
L 453.827883 65.440355 
L 457.837238 63.409834 
L 461.846594 61.377386 
L 465.855949 59.34321 
L 465.855949 21.165455 
L 465.855949 21.165455 
L 461.846594 23.689859 
L 457.837238 26.243705 
L 453.827883 28.959053 
L 449.818528 31.555972 
L 445.809172 34.104967 
L 441.799817 36.605808 
L 437.790462 39.162427 
L 433.781106 41.654696 
L 429.771751 44.076401 
L 425.762396 46.499151 
L 421.753041 48.938181 
L 417.743685 51.374994 
L 413.73433 53.773331 
L 409.724975 56.181632 
L 405.715619 58.601214 
L 401.706264 61.020796 
L 397.696909 63.458911 
L 393.687553 66.031213 
L 389.678198 68.57307 
L 385.668843 70.917994 
L 381.659487 73.337792 
L 377.650132 75.699229 
L 373.640777 77.962421 
L 369.631421 80.373864 
L 365.622066 82.787442 
L 361.612711 85.149792 
L 357.603355 87.641383 
L 353.594 90.063255 
L 349.584645 92.522355 
L 345.57529 95.015268 
L 341.565934 97.463079 
L 337.556579 99.962 
L 333.547224 102.354466 
L 329.537868 104.66115 
L 325.528513 107.1444 
L 321.519158 109.539367 
L 317.509802 111.844381 
L 313.500447 114.319004 
L 309.491092 116.672623 
L 305.481736 118.978903 
L 301.472381 121.252832 
L 297.463026 123.507884 
L 293.45367 125.807262 
L 289.444315 128.207634 
L 285.43496 130.515038 
L 281.425604 132.89835 
L 277.416249 135.294091 
L 273.406894 137.632289 
L 269.397539 140.055298 
L 265.388183 142.216285 
L 261.378828 144.585153 
L 257.369473 146.881558 
L 253.360117 149.193493 
L 249.350762 151.43621 
L 245.341407 153.708233 
L 241.332051 156.009721 
L 237.322696 158.257179 
L 233.313341 160.529223 
L 229.303985 162.806573 
L 225.29463 165.100961 
L 221.285275 167.356197 
L 217.275919 169.535126 
L 213.266564 171.768911 
L 209.257209 174.135186 
L 205.247853 176.319525 
L 201.238498 178.559627 
L 197.229143 180.845421 
L 193.219788 183.085434 
L 189.210432 185.138447 
L 185.201077 187.303787 
L 181.191722 189.542527 
L 177.182366 191.781412 
L 173.173011 194.023723 
L 169.163656 196.117507 
L 165.1543 198.205868 
L 161.144945 200.459993 
L 157.13559 202.679993 
L 153.126234 204.724418 
L 149.116879 206.771606 
L 145.107524 208.8976 
L 141.098168 211.139803 
L 137.088813 213.386961 
L 133.079458 215.634999 
L 129.070102 217.736308 
L 125.060747 219.928839 
L 121.051392 222.198901 
L 117.042037 224.358948 
L 113.032681 226.49812 
L 109.023326 228.637291 
L 105.013971 230.778445 
L 101.004615 232.91968 
L 96.99526 235.094305 
L 92.985905 237.196611 
L 88.976549 239.333146 
L 84.967194 241.472317 
L 80.957839 243.611488 
L 76.948483 245.748303 
L 72.939128 247.77592 
L 68.929773 249.708688 
z
" clip-path="url(#p79a425fda3)" style="fill: #1f77b4; fill-opacity: 0.15"/>
   </g>
   <g id="PathCollection_2">
    <defs>
     <path id="m1c83c42728" d="M 0 -3 
L -3 3 
L 3 3 
z
" style="stroke: #ff7f0e; stroke-opacity: 0.8"/>
    </defs>
    <g clip-path="url(#p79a425fda3)">
     <use xlink:href="#m1c83c42728" x="195.044387" y="290.422257" style="fill: #ff7f0e; fill-opacity: 0.8; stroke: #ff7f0e; stroke-opacity: 0.8"/>
     <use xlink:href="#m1c83c42728" x="239.157776" y="248.956566" style="fill: #ff7f0e; fill-opacity: 0.8; stroke: #ff7f0e; stroke-opacity: 0.8"/>
     <use xlink:href="#m1c83c42728" x="283.271166" y="212.51702" style="fill: #ff7f0e; fill-opacity: 0.8; stroke: #ff7f0e; stroke-opacity: 0.8"/>
     <use xlink:href="#m1c83c42728" x="327.353113" y="177.33401" style="fill: #ff7f0e; fill-opacity: 0.8; stroke: #ff7f0e; stroke-opacity: 0.8"/>
     <use xlink:href="#m1c83c42728" x="371.466502" y="145.920608" style="fill: #ff7f0e; fill-opacity: 0.8; stroke: #ff7f0e; stroke-opacity: 0.8"/>
     <use xlink:href="#m1c83c42728" x="415.579891" y="117.020278" style="fill: #ff7f0e; fill-opacity: 0.8; stroke: #ff7f0e; stroke-opacity: 0.8"/>
     <use xlink:href="#m1c83c42728" x="459.661838" y="89.376484" style="fill: #ff7f0e; fill-opacity: 0.8; stroke: #ff7f0e; stroke-opacity: 0.8"/>
     <use xlink:href="#m1c83c42728" x="503.775227" y="64.245762" style="fill: #ff7f0e; fill-opacity: 0.8; stroke: #ff7f0e; stroke-opacity: 0.8"/>
     <use xlink:href="#m1c83c42728" x="239.157776" y="256.495783" style="fill: #ff7f0e; fill-opacity: 0.8; stroke: #ff7f0e; stroke-opacity: 0.8"/>
     <use xlink:href="#m1c83c42728" x="327.353113" y="188.642834" style="fill: #ff7f0e; fill-opacity: 0.8; stroke: #ff7f0e; stroke-opacity: 0.8"/>
     <use xlink:href="#m1c83c42728" x="195.044387" y="300.474545" style="fill: #ff7f0e; fill-opacity: 0.8; stroke: #ff7f0e; stroke-opacity: 0.8"/>
     <use xlink:href="#m1c83c42728" x="283.271166" y="235.134669" style="fill: #ff7f0e; fill-opacity: 0.8; stroke: #ff7f0e; stroke-opacity: 0.8"/>
    </g>
   </g>
   <g id="FillBetweenPolyCollection_2">
    <path d="M 195.044387 280.184746 
L 195.044387 296.726045 
L 198.162881 294.186237 
L 201.281374 291.612704 
L 204.399867 289.035773 
L 207.518361 286.563515 
L 210.636854 284.046356 
L 213.755347 281.602097 
L 216.873841 279.141507 
L 219.992334 276.620411 
L 223.110827 274.083051 
L 226.229321 271.500938 
L 229.347814 269.008333 
L 232.466307 266.485303 
L 235.584801 264.047058 
L 238.703294 261.65083 
L 241.821787 259.21042 
L 244.940281 256.820192 
L 248.058774 254.293968 
L 251.177267 251.891693 
L 254.295761 249.489419 
L 257.414254 246.971423 
L 260.532747 244.559573 
L 263.651241 242.153693 
L 266.769734 239.663296 
L 269.888227 237.263548 
L 273.006721 234.843188 
L 276.125214 232.388115 
L 279.243707 229.949644 
L 282.362201 227.530353 
L 285.480694 225.11401 
L 288.599187 222.653267 
L 291.717681 220.244948 
L 294.836174 217.827709 
L 297.954667 215.339639 
L 301.073161 212.94442 
L 304.191654 210.562613 
L 307.310147 208.180805 
L 310.428641 205.777751 
L 313.547134 203.345835 
L 316.665627 200.973097 
L 319.784121 198.600427 
L 322.902614 196.147838 
L 326.021107 193.742039 
L 329.139601 191.318644 
L 332.258094 188.924059 
L 335.376587 186.566595 
L 338.495081 184.189594 
L 341.613574 181.795628 
L 344.732067 179.436549 
L 347.850561 177.028423 
L 350.969054 174.654962 
L 354.087547 172.26254 
L 357.206041 169.92226 
L 360.324534 167.555567 
L 363.443027 165.179915 
L 366.561521 162.802892 
L 369.680014 160.425869 
L 372.798507 158.046796 
L 375.917001 155.681506 
L 379.035494 153.330601 
L 382.153987 151.019314 
L 385.272481 148.636022 
L 388.390974 146.248016 
L 391.509467 143.874602 
L 394.627961 141.494727 
L 397.746454 139.173183 
L 400.864947 136.816109 
L 403.983441 134.474408 
L 407.101934 132.159338 
L 410.220427 129.861684 
L 413.338921 127.546494 
L 416.457414 125.239822 
L 419.575907 122.905889 
L 422.694401 120.571957 
L 425.812894 118.274031 
L 428.931387 115.904093 
L 432.049881 113.603356 
L 435.168374 111.30984 
L 438.286867 108.98925 
L 441.405361 106.667696 
L 444.523854 104.368443 
L 447.642347 102.080867 
L 450.760841 99.742987 
L 453.879334 97.442461 
L 456.997827 95.127955 
L 460.116321 92.81498 
L 463.234814 90.501289 
L 466.353307 88.202706 
L 469.471801 85.903284 
L 472.590294 83.604285 
L 475.708787 81.336053 
L 478.827281 79.069926 
L 481.945774 76.77349 
L 485.064267 74.475336 
L 488.182761 72.15635 
L 491.301254 69.837364 
L 494.419747 67.587275 
L 497.538241 65.29432 
L 500.656734 63.037911 
L 503.775227 60.803612 
L 503.775227 38.647803 
L 503.775227 38.647803 
L 500.656734 41.185526 
L 497.538241 43.776311 
L 494.419747 46.367749 
L 491.301254 48.96056 
L 488.182761 51.55337 
L 485.064267 54.146181 
L 481.945774 56.738992 
L 478.827281 59.331803 
L 475.708787 61.943043 
L 472.590294 64.54622 
L 469.471801 67.108319 
L 466.353307 69.699436 
L 463.234814 72.290553 
L 460.116321 74.871801 
L 456.997827 77.415866 
L 453.879334 79.959931 
L 450.760841 82.505404 
L 447.642347 85.050957 
L 444.523854 87.595662 
L 441.405361 90.13949 
L 438.286867 92.683318 
L 435.168374 95.227146 
L 432.049881 97.770974 
L 428.931387 100.311249 
L 425.812894 102.859365 
L 422.694401 105.402783 
L 419.575907 107.946286 
L 416.457414 110.491939 
L 413.338921 113.116853 
L 410.220427 115.744394 
L 407.101934 118.318862 
L 403.983441 120.893834 
L 400.864947 123.468806 
L 397.746454 126.043779 
L 394.627961 128.61939 
L 391.509467 131.195006 
L 388.390974 133.77025 
L 385.272481 136.359489 
L 382.153987 138.91864 
L 379.035494 141.49273 
L 375.917001 143.968899 
L 372.798507 146.48449 
L 369.680014 148.922082 
L 366.561521 151.498285 
L 363.443027 154.117187 
L 360.324534 156.683939 
L 357.206041 159.148277 
L 354.087547 161.753755 
L 350.969054 164.272013 
L 347.850561 166.789455 
L 344.732067 169.280467 
L 341.613574 171.826746 
L 338.495081 174.322826 
L 335.376587 176.753612 
L 332.258094 179.204904 
L 329.139601 181.61436 
L 326.021107 184.130283 
L 322.902614 186.478299 
L 319.784121 188.88531 
L 316.665627 191.249358 
L 313.547134 193.57969 
L 310.428641 196.021628 
L 307.310147 198.43059 
L 304.191654 200.761174 
L 301.073161 203.185213 
L 297.954667 205.501535 
L 294.836174 207.858596 
L 291.717681 210.336659 
L 288.599187 212.563426 
L 285.480694 214.91989 
L 282.362201 217.209345 
L 279.243707 219.447281 
L 276.125214 221.729732 
L 273.006721 224.059552 
L 269.888227 226.324295 
L 266.769734 228.54273 
L 263.651241 230.849275 
L 260.532747 233.0629 
L 257.414254 235.352811 
L 254.295761 237.595436 
L 251.177267 239.837418 
L 248.058774 242.078761 
L 244.940281 244.31204 
L 241.821787 246.565975 
L 238.703294 248.820859 
L 235.584801 251.048551 
L 232.466307 253.286344 
L 229.347814 255.527508 
L 226.229321 257.771456 
L 223.110827 260.010992 
L 219.992334 262.258101 
L 216.873841 264.511766 
L 213.755347 266.765431 
L 210.636854 269.019096 
L 207.518361 271.272761 
L 204.399867 273.505769 
L 201.281374 275.731069 
L 198.162881 277.94312 
L 195.044387 280.184746 
z
" clip-path="url(#p79a425fda3)" style="fill: #ff7f0e; fill-opacity: 0.15"/>
   </g>
   <g id="matplotlib.axis_1">
    <g id="xtick_1">
     <g id="line2d_1">
      <defs>
       <path id="m33bb3d698f" d="M 0 0 
L 0 3.5 
" style="stroke: #000000; stroke-width: 0.8"/>
      </defs>
      <g>
       <use xlink:href="#m33bb3d698f" x="93.957754" y="314.44" style="stroke: #000000; stroke-width: 0.8"/>
      </g>
     </g>
     <g id="text_1">
      <!-- 40 -->
      <g transform="translate(87.595254 329.038437) scale(0.1 -0.1)">
       <defs>
        <path id="DejaVuSans-34" d="M 2419 4116 
L 825 1625 
L 2419 1625 
L 2419 4116 
z
M 2253 4666 
L 3047 4666 
L 3047 1625 
L 3713 1625 
L 3713 1100 
L 3047 1100 
L 3047 0 
L 2419 0 
L 2419 1100 
L 313 1100 
L 313 1709 
L 2253 4666 
z
" transform="scale(0.015625)"/>
        <path id="DejaVuSans-30" d="M 2034 4250 
Q 1547 4250 1301 3770 
Q 1056 3291 1056 2328 
Q 1056 1369 1301 889 
Q 1547 409 2034 409 
Q 2525 409 2770 889 
Q 3016 1369 3016 2328 
Q 3016 3291 2770 3770 
Q 2525 4250 2034 4250 
z
M 2034 4750 
Q 2819 4750 3233 4129 
Q 3647 3509 3647 2328 
Q 3647 1150 3233 529 
Q 2819 -91 2034 -91 
Q 1250 -91 836 529 
Q 422 1150 422 2328 
Q 422 3509 836 4129 
Q 1250 4750 2034 4750 
z
" transform="scale(0.015625)"/>
       </defs>
       <use xlink:href="#DejaVuSans-34"/>
       <use xlink:href="#DejaVuSans-30" transform="translate(63.623047 0)"/>
      </g>
     </g>
    </g>
    <g id="xtick_2">
     <g id="line2d_2">
      <g>
       <use xlink:href="#m33bb3d698f" x="156.842129" y="314.44" style="stroke: #000000; stroke-width: 0.8"/>
      </g>
     </g>
     <g id="text_2">
      <!-- 60 -->
      <g transform="translate(150.479629 329.038437) scale(0.1 -0.1)">
       <defs>
        <path id="DejaVuSans-36" d="M 2113 2584 
Q 1688 2584 1439 2293 
Q 1191 2003 1191 1497 
Q 1191 994 1439 701 
Q 1688 409 2113 409 
Q 2538 409 2786 701 
Q 3034 994 3034 1497 
Q 3034 2003 2786 2293 
Q 2538 2584 2113 2584 
z
M 3366 4563 
L 3366 3988 
Q 3128 4100 2886 4159 
Q 2644 4219 2406 4219 
Q 1781 4219 1451 3797 
Q 1122 3375 1075 2522 
Q 1259 2794 1537 2939 
Q 1816 3084 2150 3084 
Q 2853 3084 3261 2657 
Q 3669 2231 3669 1497 
Q 3669 778 3244 343 
Q 2819 -91 2113 -91 
Q 1303 -91 875 529 
Q 447 1150 447 2328 
Q 447 3434 972 4092 
Q 1497 4750 2381 4750 
Q 2619 4750 2861 4703 
Q 3103 4656 3366 4563 
z
" transform="scale(0.015625)"/>
       </defs>
       <use xlink:href="#DejaVuSans-36"/>
       <use xlink:href="#DejaVuSans-30" transform="translate(63.623047 0)"/>
      </g>
     </g>
    </g>
    <g id="xtick_3">
     <g id="line2d_3">
      <g>
       <use xlink:href="#m33bb3d698f" x="219.726504" y="314.44" style="stroke: #000000; stroke-width: 0.8"/>
      </g>
     </g>
     <g id="text_3">
      <!-- 80 -->
      <g transform="translate(213.364004 329.038437) scale(0.1 -0.1)">
       <defs>
        <path id="DejaVuSans-38" d="M 2034 2216 
Q 1584 2216 1326 1975 
Q 1069 1734 1069 1313 
Q 1069 891 1326 650 
Q 1584 409 2034 409 
Q 2484 409 2743 651 
Q 3003 894 3003 1313 
Q 3003 1734 2745 1975 
Q 2488 2216 2034 2216 
z
M 1403 2484 
Q 997 2584 770 2862 
Q 544 3141 544 3541 
Q 544 4100 942 4425 
Q 1341 4750 2034 4750 
Q 2731 4750 3128 4425 
Q 3525 4100 3525 3541 
Q 3525 3141 3298 2862 
Q 3072 2584 2669 2484 
Q 3125 2378 3379 2068 
Q 3634 1759 3634 1313 
Q 3634 634 3220 271 
Q 2806 -91 2034 -91 
Q 1263 -91 848 271 
Q 434 634 434 1313 
Q 434 1759 690 2068 
Q 947 2378 1403 2484 
z
M 1172 3481 
Q 1172 3119 1398 2916 
Q 1625 2713 2034 2713 
Q 2441 2713 2670 2916 
Q 2900 3119 2900 3481 
Q 2900 3844 2670 4047 
Q 2441 4250 2034 4250 
Q 1625 4250 1398 4047 
Q 1172 3844 1172 3481 
z
" transform="scale(0.015625)"/>
       </defs>
       <use xlink:href="#DejaVuSans-38"/>
       <use xlink:href="#DejaVuSans-30" transform="translate(63.623047 0)"/>
      </g>
     </g>
    </g>
    <g id="xtick_4">
     <g id="line2d_4">
      <g>
       <use xlink:href="#m33bb3d698f" x="282.61088" y="314.44" style="stroke: #000000; stroke-width: 0.8"/>
      </g>
     </g>
     <g id="text_4">
      <!-- 100 -->
      <g transform="translate(273.06713 329.038437) scale(0.1 -0.1)">
       <defs>
        <path id="DejaVuSans-31" d="M 794 531 
L 1825 531 
L 1825 4091 
L 703 3866 
L 703 4441 
L 1819 4666 
L 2450 4666 
L 2450 531 
L 3481 531 
L 3481 0 
L 794 0 
L 794 531 
z
" transform="scale(0.015625)"/>
       </defs>
       <use xlink:href="#DejaVuSans-31"/>
       <use xlink:href="#DejaVuSans-30" transform="translate(63.623047 0)"/>
       <use xlink:href="#DejaVuSans-30" transform="translate(127.246094 0)"/>
      </g>
     </g>
    </g>
    <g id="xtick_5">
     <g id="line2d_5">
      <g>
       <use xlink:href="#m33bb3d698f" x="345.495255" y="314.44" style="stroke: #000000; stroke-width: 0.8"/>
      </g>
     </g>
     <g id="text_5">
      <!-- 120 -->
      <g transform="translate(335.951505 329.038437) scale(0.1 -0.1)">
       <defs>
        <path id="DejaVuSans-32" d="M 1228 531 
L 3431 531 
L 3431 0 
L 469 0 
L 469 531 
Q 828 903 1448 1529 
Q 2069 2156 2228 2338 
Q 2531 2678 2651 2914 
Q 2772 3150 2772 3378 
Q 2772 3750 2511 3984 
Q 2250 4219 1831 4219 
Q 1534 4219 1204 4116 
Q 875 4013 500 3803 
L 500 4441 
Q 881 4594 1212 4672 
Q 1544 4750 1819 4750 
Q 2544 4750 2975 4387 
Q 3406 4025 3406 3419 
Q 3406 3131 3298 2873 
Q 3191 2616 2906 2266 
Q 2828 2175 2409 1742 
Q 1991 1309 1228 531 
z
" transform="scale(0.015625)"/>
       </defs>
       <use xlink:href="#DejaVuSans-31"/>
       <use xlink:href="#DejaVuSans-32" transform="translate(63.623047 0)"/>
       <use xlink:href="#DejaVuSans-30" transform="translate(127.246094 0)"/>
      </g>
     </g>
    </g>
    <g id="xtick_6">
     <g id="line2d_6">
      <g>
       <use xlink:href="#m33bb3d698f" x="408.37963" y="314.44" style="stroke: #000000; stroke-width: 0.8"/>
      </g>
     </g>
     <g id="text_6">
      <!-- 140 -->
      <g transform="translate(398.83588 329.038437) scale(0.1 -0.1)">
       <use xlink:href="#DejaVuSans-31"/>
       <use xlink:href="#DejaVuSans-34" transform="translate(63.623047 0)"/>
       <use xlink:href="#DejaVuSans-30" transform="translate(127.246094 0)"/>
      </g>
     </g>
    </g>
    <g id="xtick_7">
     <g id="line2d_7">
      <g>
       <use xlink:href="#m33bb3d698f" x="471.264005" y="314.44" style="stroke: #000000; stroke-width: 0.8"/>
      </g>
     </g>
     <g id="text_7">
      <!-- 160 -->
      <g transform="translate(461.720255 329.038437) scale(0.1 -0.1)">
       <use xlink:href="#DejaVuSans-31"/>
       <use xlink:href="#DejaVuSans-36" transform="translate(63.623047 0)"/>
       <use xlink:href="#DejaVuSans-30" transform="translate(127.246094 0)"/>
      </g>
     </g>
    </g>
    <g id="text_8">
     <!-- MW, g/mol -->
     <g transform="translate(259.739219 342.716562) scale(0.1 -0.1)">
      <defs>
       <path id="DejaVuSans-4d" d="M 628 4666 
L 1569 4666 
L 2759 1491 
L 3956 4666 
L 4897 4666 
L 4897 0 
L 4281 0 
L 4281 4097 
L 3078 897 
L 2444 897 
L 1241 4097 
L 1241 0 
L 628 0 
L 628 4666 
z
" transform="scale(0.015625)"/>
       <path id="DejaVuSans-57" d="M 213 4666 
L 850 4666 
L 1831 722 
L 2809 4666 
L 3519 4666 
L 4500 722 
L 5478 4666 
L 6119 4666 
L 4947 0 
L 4153 0 
L 3169 4050 
L 2175 0 
L 1381 0 
L 213 4666 
z
" transform="scale(0.015625)"/>
       <path id="DejaVuSans-2c" d="M 750 794 
L 1409 794 
L 1409 256 
L 897 -744 
L 494 -744 
L 750 256 
L 750 794 
z
" transform="scale(0.015625)"/>
       <path id="DejaVuSans-20" transform="scale(0.015625)"/>
       <path id="DejaVuSans-67" d="M 2906 1791 
Q 2906 2416 2648 2759 
Q 2391 3103 1925 3103 
Q 1463 3103 1205 2759 
Q 947 2416 947 1791 
Q 947 1169 1205 825 
Q 1463 481 1925 481 
Q 2391 481 2648 825 
Q 2906 1169 2906 1791 
z
M 3481 434 
Q 3481 -459 3084 -895 
Q 2688 -1331 1869 -1331 
Q 1566 -1331 1297 -1286 
Q 1028 -1241 775 -1147 
L 775 -588 
Q 1028 -725 1275 -790 
Q 1522 -856 1778 -856 
Q 2344 -856 2625 -561 
Q 2906 -266 2906 331 
L 2906 616 
Q 2728 306 2450 153 
Q 2172 0 1784 0 
Q 1141 0 747 490 
Q 353 981 353 1791 
Q 353 2603 747 3093 
Q 1141 3584 1784 3584 
Q 2172 3584 2450 3431 
Q 2728 3278 2906 2969 
L 2906 3500 
L 3481 3500 
L 3481 434 
z
" transform="scale(0.015625)"/>
       <path id="DejaVuSans-2f" d="M 1625 4666 
L 2156 4666 
L 531 -594 
L 0 -594 
L 1625 4666 
z
" transform="scale(0.015625)"/>
       <path id="DejaVuSans-6d" d="M 3328 2828 
Q 3544 3216 3844 3400 
Q 4144 3584 4550 3584 
Q 5097 3584 5394 3201 
Q 5691 2819 5691 2113 
L 5691 0 
L 5113 0 
L 5113 2094 
Q 5113 2597 4934 2840 
Q 4756 3084 4391 3084 
Q 3944 3084 3684 2787 
Q 3425 2491 3425 1978 
L 3425 0 
L 2847 0 
L 2847 2094 
Q 2847 2600 2669 2842 
Q 2491 3084 2119 3084 
Q 1678 3084 1418 2786 
Q 1159 2488 1159 1978 
L 1159 0 
L 581 0 
L 581 3500 
L 1159 3500 
L 1159 2956 
Q 1356 3278 1631 3431 
Q 1906 3584 2284 3584 
Q 2666 3584 2933 3390 
Q 3200 3197 3328 2828 
z
" transform="scale(0.015625)"/>
       <path id="DejaVuSans-6f" d="M 1959 3097 
Q 1497 3097 1228 2736 
Q 959 2375 959 1747 
Q 959 1119 1226 758 
Q 1494 397 1959 397 
Q 2419 397 2687 759 
Q 2956 1122 2956 1747 
Q 2956 2369 2687 2733 
Q 2419 3097 1959 3097 
z
M 1959 3584 
Q 2709 3584 3137 3096 
Q 3566 2609 3566 1747 
Q 3566 888 3137 398 
Q 2709 -91 1959 -91 
Q 1206 -91 779 398 
Q 353 888 353 1747 
Q 353 2609 779 3096 
Q 1206 3584 1959 3584 
z
" transform="scale(0.015625)"/>
       <path id="DejaVuSans-6c" d="M 603 4863 
L 1178 4863 
L 1178 0 
L 603 0 
L 603 4863 
z
" transform="scale(0.015625)"/>
      </defs>
      <use xlink:href="#DejaVuSans-4d"/>
      <use xlink:href="#DejaVuSans-57" transform="translate(86.279297 0)"/>
      <use xlink:href="#DejaVuSans-2c" transform="translate(185.15625 0)"/>
      <use xlink:href="#DejaVuSans-20" transform="translate(216.943359 0)"/>
      <use xlink:href="#DejaVuSans-67" transform="translate(248.730469 0)"/>
      <use xlink:href="#DejaVuSans-2f" transform="translate(312.207031 0)"/>
      <use xlink:href="#DejaVuSans-6d" transform="translate(345.898438 0)"/>
      <use xlink:href="#DejaVuSans-6f" transform="translate(443.310547 0)"/>
      <use xlink:href="#DejaVuSans-6c" transform="translate(504.492188 0)"/>
     </g>
    </g>
   </g>
   <g id="matplotlib.axis_2">
    <g id="ytick_1">
     <g id="line2d_8">
      <defs>
       <path id="m6f935569db" d="M 0 0 
L -3.5 0 
" style="stroke: #000000; stroke-width: 0.8"/>
      </defs>
      <g>
       <use xlink:href="#m6f935569db" x="47.1875" y="272.830752" style="stroke: #000000; stroke-width: 0.8"/>
      </g>
     </g>
     <g id="text_9">
      <!-- 50 -->
      <g transform="translate(27.4625 276.62997) scale(0.1 -0.1)">
       <defs>
        <path id="DejaVuSans-35" d="M 691 4666 
L 3169 4666 
L 3169 4134 
L 1269 4134 
L 1269 2991 
Q 1406 3038 1543 3061 
Q 1681 3084 1819 3084 
Q 2600 3084 3056 2656 
Q 3513 2228 3513 1497 
Q 3513 744 3044 326 
Q 2575 -91 1722 -91 
Q 1428 -91 1123 -41 
Q 819 9 494 109 
L 494 744 
Q 775 591 1075 516 
Q 1375 441 1709 441 
Q 2250 441 2565 725 
Q 2881 1009 2881 1497 
Q 2881 1984 2565 2268 
Q 2250 2553 1709 2553 
Q 1456 2553 1204 2497 
Q 953 2441 691 2322 
L 691 4666 
z
" transform="scale(0.015625)"/>
       </defs>
       <use xlink:href="#DejaVuSans-35"/>
       <use xlink:href="#DejaVuSans-30" transform="translate(63.623047 0)"/>
      </g>
     </g>
    </g>
    <g id="ytick_2">
     <g id="line2d_9">
      <g>
       <use xlink:href="#m6f935569db" x="47.1875" y="210.003948" style="stroke: #000000; stroke-width: 0.8"/>
      </g>
     </g>
     <g id="text_10">
      <!-- 100 -->
      <g transform="translate(21.1 213.803166) scale(0.1 -0.1)">
       <use xlink:href="#DejaVuSans-31"/>
       <use xlink:href="#DejaVuSans-30" transform="translate(63.623047 0)"/>
       <use xlink:href="#DejaVuSans-30" transform="translate(127.246094 0)"/>
      </g>
     </g>
    </g>
    <g id="ytick_3">
     <g id="line2d_10">
      <g>
       <use xlink:href="#m6f935569db" x="47.1875" y="147.177144" style="stroke: #000000; stroke-width: 0.8"/>
      </g>
     </g>
     <g id="text_11">
      <!-- 150 -->
      <g transform="translate(21.1 150.976362) scale(0.1 -0.1)">
       <use xlink:href="#DejaVuSans-31"/>
       <use xlink:href="#DejaVuSans-35" transform="translate(63.623047 0)"/>
       <use xlink:href="#DejaVuSans-30" transform="translate(127.246094 0)"/>
      </g>
     </g>
    </g>
    <g id="ytick_4">
     <g id="line2d_11">
      <g>
       <use xlink:href="#m6f935569db" x="47.1875" y="84.35034" style="stroke: #000000; stroke-width: 0.8"/>
      </g>
     </g>
     <g id="text_12">
      <!-- 200 -->
      <g transform="translate(21.1 88.149558) scale(0.1 -0.1)">
       <use xlink:href="#DejaVuSans-32"/>
       <use xlink:href="#DejaVuSans-30" transform="translate(63.623047 0)"/>
       <use xlink:href="#DejaVuSans-30" transform="translate(127.246094 0)"/>
      </g>
     </g>
    </g>
    <g id="ytick_5">
     <g id="line2d_12">
      <g>
       <use xlink:href="#m6f935569db" x="47.1875" y="21.523536" style="stroke: #000000; stroke-width: 0.8"/>
      </g>
     </g>
     <g id="text_13">
      <!-- 250 -->
      <g transform="translate(21.1 25.322754) scale(0.1 -0.1)">
       <use xlink:href="#DejaVuSans-32"/>
       <use xlink:href="#DejaVuSans-35" transform="translate(63.623047 0)"/>
       <use xlink:href="#DejaVuSans-30" transform="translate(127.246094 0)"/>
      </g>
     </g>
    </g>
    <g id="text_14">
     <!-- bp, $^o$C -->
     <g transform="translate(15 176.17) rotate(-90) scale(0.1 -0.1)">
      <defs>
       <path id="DejaVuSans-62" d="M 3116 1747 
Q 3116 2381 2855 2742 
Q 2594 3103 2138 3103 
Q 1681 3103 1420 2742 
Q 1159 2381 1159 1747 
Q 1159 1113 1420 752 
Q 1681 391 2138 391 
Q 2594 391 2855 752 
Q 3116 1113 3116 1747 
z
M 1159 2969 
Q 1341 3281 1617 3432 
Q 1894 3584 2278 3584 
Q 2916 3584 3314 3078 
Q 3713 2572 3713 1747 
Q 3713 922 3314 415 
Q 2916 -91 2278 -91 
Q 1894 -91 1617 61 
Q 1341 213 1159 525 
L 1159 0 
L 581 0 
L 581 4863 
L 1159 4863 
L 1159 2969 
z
" transform="scale(0.015625)"/>
       <path id="DejaVuSans-70" d="M 1159 525 
L 1159 -1331 
L 581 -1331 
L 581 3500 
L 1159 3500 
L 1159 2969 
Q 1341 3281 1617 3432 
Q 1894 3584 2278 3584 
Q 2916 3584 3314 3078 
Q 3713 2572 3713 1747 
Q 3713 922 3314 415 
Q 2916 -91 2278 -91 
Q 1894 -91 1617 61 
Q 1341 213 1159 525 
z
M 3116 1747 
Q 3116 2381 2855 2742 
Q 2594 3103 2138 3103 
Q 1681 3103 1420 2742 
Q 1159 2381 1159 1747 
Q 1159 1113 1420 752 
Q 1681 391 2138 391 
Q 2594 391 2855 752 
Q 3116 1113 3116 1747 
z
" transform="scale(0.015625)"/>
       <path id="DejaVuSans-Oblique-6f" d="M 1625 -91 
Q 1009 -91 651 289 
Q 294 669 294 1325 
Q 294 1706 417 2101 
Q 541 2497 738 2766 
Q 1047 3184 1428 3384 
Q 1809 3584 2291 3584 
Q 2888 3584 3255 3212 
Q 3622 2841 3622 2241 
Q 3622 1825 3500 1412 
Q 3378 1000 3181 728 
Q 2875 309 2494 109 
Q 2113 -91 1625 -91 
z
M 891 1344 
Q 891 869 1089 633 
Q 1288 397 1691 397 
Q 2269 397 2648 901 
Q 3028 1406 3028 2181 
Q 3028 2634 2825 2865 
Q 2622 3097 2228 3097 
Q 1903 3097 1650 2945 
Q 1397 2794 1197 2484 
Q 1050 2253 970 1956 
Q 891 1659 891 1344 
z
" transform="scale(0.015625)"/>
       <path id="DejaVuSans-43" d="M 4122 4306 
L 4122 3641 
Q 3803 3938 3442 4084 
Q 3081 4231 2675 4231 
Q 1875 4231 1450 3742 
Q 1025 3253 1025 2328 
Q 1025 1406 1450 917 
Q 1875 428 2675 428 
Q 3081 428 3442 575 
Q 3803 722 4122 1019 
L 4122 359 
Q 3791 134 3420 21 
Q 3050 -91 2638 -91 
Q 1578 -91 968 557 
Q 359 1206 359 2328 
Q 359 3453 968 4101 
Q 1578 4750 2638 4750 
Q 3056 4750 3426 4639 
Q 3797 4528 4122 4306 
z
" transform="scale(0.015625)"/>
      </defs>
      <use xlink:href="#DejaVuSans-62" transform="translate(0 0.51875)"/>
      <use xlink:href="#DejaVuSans-70" transform="translate(63.476562 0.51875)"/>
      <use xlink:href="#DejaVuSans-2c" transform="translate(126.953125 0.51875)"/>
      <use xlink:href="#DejaVuSans-20" transform="translate(158.740234 0.51875)"/>
      <use xlink:href="#DejaVuSans-Oblique-6f" transform="translate(191.484375 38.8) scale(0.7)"/>
      <use xlink:href="#DejaVuSans-43" transform="translate(237.045898 0.51875)"/>
     </g>
    </g>
   </g>
   <g id="line2d_13">
    <path d="M 68.929773 264.651257 
L 72.939128 262.382734 
L 76.948483 260.11421 
L 80.957839 257.845686 
L 84.967194 255.577162 
L 88.976549 253.308638 
L 92.985905 251.040115 
L 96.99526 248.771591 
L 101.004615 246.503067 
L 105.013971 244.234543 
L 109.023326 241.966019 
L 113.032681 239.697496 
L 117.042037 237.428972 
L 121.051392 235.160448 
L 125.060747 232.891924 
L 129.070102 230.6234 
L 133.079458 228.354876 
L 137.088813 226.086353 
L 141.098168 223.817829 
L 145.107524 221.549305 
L 149.116879 219.280781 
L 153.126234 217.012257 
L 157.13559 214.743734 
L 161.144945 212.47521 
L 165.1543 210.206686 
L 169.163656 207.938162 
L 173.173011 205.669638 
L 177.182366 203.401114 
L 181.191722 201.132591 
L 185.201077 198.864067 
L 189.210432 196.595543 
L 193.219788 194.327019 
L 197.229143 192.058495 
L 201.238498 189.789972 
L 205.247853 187.521448 
L 209.257209 185.252924 
L 213.266564 182.9844 
L 217.275919 180.715876 
L 221.285275 178.447352 
L 225.29463 176.178829 
L 229.303985 173.910305 
L 233.313341 171.641781 
L 237.322696 169.373257 
L 241.332051 167.104733 
L 245.341407 164.83621 
L 249.350762 162.567686 
L 253.360117 160.299162 
L 257.369473 158.030638 
L 261.378828 155.762114 
L 265.388183 153.493591 
L 269.397539 151.225067 
L 273.406894 148.956543 
L 277.416249 146.688019 
L 281.425604 144.419495 
L 285.43496 142.150971 
L 289.444315 139.882448 
L 293.45367 137.613924 
L 297.463026 135.3454 
L 301.472381 133.076876 
L 305.481736 130.808352 
L 309.491092 128.539829 
L 313.500447 126.271305 
L 317.509802 124.002781 
L 321.519158 121.734257 
L 325.528513 119.465733 
L 329.537868 117.197209 
L 333.547224 114.928686 
L 337.556579 112.660162 
L 341.565934 110.391638 
L 345.57529 108.123114 
L 349.584645 105.85459 
L 353.594 103.586067 
L 357.603355 101.317543 
L 361.612711 99.049019 
L 365.622066 96.780495 
L 369.631421 94.511971 
L 373.640777 92.243447 
L 377.650132 89.974924 
L 381.659487 87.7064 
L 385.668843 85.437876 
L 389.678198 83.169352 
L 393.687553 80.900828 
L 397.696909 78.632305 
L 401.706264 76.363781 
L 405.715619 74.095257 
L 409.724975 71.826733 
L 413.73433 69.558209 
L 417.743685 67.289686 
L 421.753041 65.021162 
L 425.762396 62.752638 
L 429.771751 60.484114 
L 433.781106 58.21559 
L 437.790462 55.947066 
L 441.799817 53.678543 
L 445.809172 51.410019 
L 449.818528 49.141495 
L 453.827883 46.872971 
L 457.837238 44.604447 
L 461.846594 42.335924 
L 465.855949 40.0674 
" clip-path="url(#p79a425fda3)" style="fill: none; stroke: #1f77b4; stroke-width: 2.25; stroke-linecap: square"/>
   </g>
   <g id="line2d_14">
    <path d="M 195.044387 289.124168 
L 198.162881 286.747354 
L 201.281374 284.37054 
L 204.399867 281.993725 
L 207.518361 279.616911 
L 210.636854 277.240097 
L 213.755347 274.863282 
L 216.873841 272.486468 
L 219.992334 270.109654 
L 223.110827 267.73284 
L 226.229321 265.356025 
L 229.347814 262.979211 
L 232.466307 260.602397 
L 235.584801 258.225583 
L 238.703294 255.848768 
L 241.821787 253.471954 
L 244.940281 251.09514 
L 248.058774 248.718325 
L 251.177267 246.341511 
L 254.295761 243.964697 
L 257.414254 241.587883 
L 260.532747 239.211068 
L 263.651241 236.834254 
L 266.769734 234.45744 
L 269.888227 232.080626 
L 273.006721 229.703811 
L 276.125214 227.326997 
L 279.243707 224.950183 
L 282.362201 222.573368 
L 285.480694 220.196554 
L 288.599187 217.81974 
L 291.717681 215.442926 
L 294.836174 213.066111 
L 297.954667 210.689297 
L 301.073161 208.312483 
L 304.191654 205.935669 
L 307.310147 203.558854 
L 310.428641 201.18204 
L 313.547134 198.805226 
L 316.665627 196.428411 
L 319.784121 194.051597 
L 322.902614 191.674783 
L 326.021107 189.297969 
L 329.139601 186.921154 
L 332.258094 184.54434 
L 335.376587 182.167526 
L 338.495081 179.790712 
L 341.613574 177.413897 
L 344.732067 175.037083 
L 347.850561 172.660269 
L 350.969054 170.283454 
L 354.087547 167.90664 
L 357.206041 165.529826 
L 360.324534 163.153012 
L 363.443027 160.776197 
L 366.561521 158.399383 
L 369.680014 156.022569 
L 372.798507 153.645755 
L 375.917001 151.26894 
L 379.035494 148.892126 
L 382.153987 146.515312 
L 385.272481 144.138497 
L 388.390974 141.761683 
L 391.509467 139.384869 
L 394.627961 137.008055 
L 397.746454 134.63124 
L 400.864947 132.254426 
L 403.983441 129.877612 
L 407.101934 127.500798 
L 410.220427 125.123983 
L 413.338921 122.747169 
L 416.457414 120.370355 
L 419.575907 117.99354 
L 422.694401 115.616726 
L 425.812894 113.239912 
L 428.931387 110.863098 
L 432.049881 108.486283 
L 435.168374 106.109469 
L 438.286867 103.732655 
L 441.405361 101.355841 
L 444.523854 98.979026 
L 447.642347 96.602212 
L 450.760841 94.225398 
L 453.879334 91.848583 
L 456.997827 89.471769 
L 460.116321 87.094955 
L 463.234814 84.718141 
L 466.353307 82.341326 
L 469.471801 79.964512 
L 472.590294 77.587698 
L 475.708787 75.210884 
L 478.827281 72.834069 
L 481.945774 70.457255 
L 485.064267 68.080441 
L 488.182761 65.703626 
L 491.301254 63.326812 
L 494.419747 60.949998 
L 497.538241 58.573184 
L 500.656734 56.196369 
L 503.775227 53.819555 
" clip-path="url(#p79a425fda3)" style="fill: none; stroke: #ff7f0e; stroke-width: 2.25; stroke-linecap: square"/>
   </g>
   <g id="patch_3">
    <path d="M 47.1875 314.44 
L 47.1875 7.2 
" style="fill: none; stroke: #000000; stroke-width: 0.8; stroke-linejoin: miter; stroke-linecap: square"/>
   </g>
   <g id="patch_4">
    <path d="M 47.1875 314.44 
L 525.5175 314.44 
" style="fill: none; stroke: #000000; stroke-width: 0.8; stroke-linejoin: miter; stroke-linecap: square"/>
   </g>
   <g id="legend_1">
    <g id="patch_5">
     <path d="M 54.1875 59.234375 
L 121.945312 59.234375 
Q 123.945312 59.234375 123.945312 57.234375 
L 123.945312 14.2 
Q 123.945312 12.2 121.945312 12.2 
L 54.1875 12.2 
Q 52.1875 12.2 52.1875 14.2 
L 52.1875 57.234375 
Q 52.1875 59.234375 54.1875 59.234375 
z
" style="fill: #ffffff; opacity: 0.8; stroke: #cccccc; stroke-linejoin: miter"/>
    </g>
    <g id="text_15">
     <!-- type -->
     <g transform="translate(76.896094 23.798437) scale(0.1 -0.1)">
      <defs>
       <path id="DejaVuSans-74" d="M 1172 4494 
L 1172 3500 
L 2356 3500 
L 2356 3053 
L 1172 3053 
L 1172 1153 
Q 1172 725 1289 603 
Q 1406 481 1766 481 
L 2356 481 
L 2356 0 
L 1766 0 
Q 1100 0 847 248 
Q 594 497 594 1153 
L 594 3053 
L 172 3053 
L 172 3500 
L 594 3500 
L 594 4494 
L 1172 4494 
z
" transform="scale(0.015625)"/>
       <path id="DejaVuSans-79" d="M 2059 -325 
Q 1816 -950 1584 -1140 
Q 1353 -1331 966 -1331 
L 506 -1331 
L 506 -850 
L 844 -850 
Q 1081 -850 1212 -737 
Q 1344 -625 1503 -206 
L 1606 56 
L 191 3500 
L 800 3500 
L 1894 763 
L 2988 3500 
L 3597 3500 
L 2059 -325 
z
" transform="scale(0.015625)"/>
       <path id="DejaVuSans-65" d="M 3597 1894 
L 3597 1613 
L 953 1613 
Q 991 1019 1311 708 
Q 1631 397 2203 397 
Q 2534 397 2845 478 
Q 3156 559 3463 722 
L 3463 178 
Q 3153 47 2828 -22 
Q 2503 -91 2169 -91 
Q 1331 -91 842 396 
Q 353 884 353 1716 
Q 353 2575 817 3079 
Q 1281 3584 2069 3584 
Q 2775 3584 3186 3129 
Q 3597 2675 3597 1894 
z
M 3022 2063 
Q 3016 2534 2758 2815 
Q 2500 3097 2075 3097 
Q 1594 3097 1305 2825 
Q 1016 2553 972 2059 
L 3022 2063 
z
" transform="scale(0.015625)"/>
      </defs>
      <use xlink:href="#DejaVuSans-74"/>
      <use xlink:href="#DejaVuSans-79" transform="translate(39.208984 0)"/>
      <use xlink:href="#DejaVuSans-70" transform="translate(98.388672 0)"/>
      <use xlink:href="#DejaVuSans-65" transform="translate(161.865234 0)"/>
     </g>
    </g>
    <g id="PathCollection_3">
     <g>
      <use xlink:href="#m388928602e" x="66.1875" y="35.851562" style="fill: #1f77b4; fill-opacity: 0.8; stroke: #1f77b4; stroke-opacity: 0.8"/>
     </g>
    </g>
    <g id="text_16">
     <!-- alcohol -->
     <g transform="translate(84.1875 38.476562) scale(0.1 -0.1)">
      <defs>
       <path id="DejaVuSans-61" d="M 2194 1759 
Q 1497 1759 1228 1600 
Q 959 1441 959 1056 
Q 959 750 1161 570 
Q 1363 391 1709 391 
Q 2188 391 2477 730 
Q 2766 1069 2766 1631 
L 2766 1759 
L 2194 1759 
z
M 3341 1997 
L 3341 0 
L 2766 0 
L 2766 531 
Q 2569 213 2275 61 
Q 1981 -91 1556 -91 
Q 1019 -91 701 211 
Q 384 513 384 1019 
Q 384 1609 779 1909 
Q 1175 2209 1959 2209 
L 2766 2209 
L 2766 2266 
Q 2766 2663 2505 2880 
Q 2244 3097 1772 3097 
Q 1472 3097 1187 3025 
Q 903 2953 641 2809 
L 641 3341 
Q 956 3463 1253 3523 
Q 1550 3584 1831 3584 
Q 2591 3584 2966 3190 
Q 3341 2797 3341 1997 
z
" transform="scale(0.015625)"/>
       <path id="DejaVuSans-63" d="M 3122 3366 
L 3122 2828 
Q 2878 2963 2633 3030 
Q 2388 3097 2138 3097 
Q 1578 3097 1268 2742 
Q 959 2388 959 1747 
Q 959 1106 1268 751 
Q 1578 397 2138 397 
Q 2388 397 2633 464 
Q 2878 531 3122 666 
L 3122 134 
Q 2881 22 2623 -34 
Q 2366 -91 2075 -91 
Q 1284 -91 818 406 
Q 353 903 353 1747 
Q 353 2603 823 3093 
Q 1294 3584 2113 3584 
Q 2378 3584 2631 3529 
Q 2884 3475 3122 3366 
z
" transform="scale(0.015625)"/>
       <path id="DejaVuSans-68" d="M 3513 2113 
L 3513 0 
L 2938 0 
L 2938 2094 
Q 2938 2591 2744 2837 
Q 2550 3084 2163 3084 
Q 1697 3084 1428 2787 
Q 1159 2491 1159 1978 
L 1159 0 
L 581 0 
L 581 4863 
L 1159 4863 
L 1159 2956 
Q 1366 3272 1645 3428 
Q 1925 3584 2291 3584 
Q 2894 3584 3203 3211 
Q 3513 2838 3513 2113 
z
" transform="scale(0.015625)"/>
      </defs>
      <use xlink:href="#DejaVuSans-61"/>
      <use xlink:href="#DejaVuSans-6c" transform="translate(61.279297 0)"/>
      <use xlink:href="#DejaVuSans-63" transform="translate(89.0625 0)"/>
      <use xlink:href="#DejaVuSans-6f" transform="translate(144.042969 0)"/>
      <use xlink:href="#DejaVuSans-68" transform="translate(205.224609 0)"/>
      <use xlink:href="#DejaVuSans-6f" transform="translate(268.603516 0)"/>
      <use xlink:href="#DejaVuSans-6c" transform="translate(329.785156 0)"/>
     </g>
    </g>
    <g id="PathCollection_4">
     <g>
      <use xlink:href="#m1c83c42728" x="66.1875" y="50.529688" style="fill: #ff7f0e; fill-opacity: 0.8; stroke: #ff7f0e; stroke-opacity: 0.8"/>
     </g>
    </g>
    <g id="text_17">
     <!-- alkane -->
     <g transform="translate(84.1875 53.154688) scale(0.1 -0.1)">
      <defs>
       <path id="DejaVuSans-6b" d="M 581 4863 
L 1159 4863 
L 1159 1991 
L 2875 3500 
L 3609 3500 
L 1753 1863 
L 3688 0 
L 2938 0 
L 1159 1709 
L 1159 0 
L 581 0 
L 581 4863 
z
" transform="scale(0.015625)"/>
       <path id="DejaVuSans-6e" d="M 3513 2113 
L 3513 0 
L 2938 0 
L 2938 2094 
Q 2938 2591 2744 2837 
Q 2550 3084 2163 3084 
Q 1697 3084 1428 2787 
Q 1159 2491 1159 1978 
L 1159 0 
L 581 0 
L 581 3500 
L 1159 3500 
L 1159 2956 
Q 1366 3272 1645 3428 
Q 1925 3584 2291 3584 
Q 2894 3584 3203 3211 
Q 3513 2838 3513 2113 
z
" transform="scale(0.015625)"/>
      </defs>
      <use xlink:href="#DejaVuSans-61"/>
      <use xlink:href="#DejaVuSans-6c" transform="translate(61.279297 0)"/>
      <use xlink:href="#DejaVuSans-6b" transform="translate(89.0625 0)"/>
      <use xlink:href="#DejaVuSans-61" transform="translate(145.222656 0)"/>
      <use xlink:href="#DejaVuSans-6e" transform="translate(206.501953 0)"/>
      <use xlink:href="#DejaVuSans-65" transform="translate(269.880859 0)"/>
     </g>
    </g>
   </g>
  </g>
 </g>
 <defs>
  <clipPath id="p79a425fda3">
   <rect x="47.1875" y="7.2" width="478.33" height="307.24"/>
  </clipPath>
 </defs>
</svg>