<?xml version="1.0" encoding="utf-8" standalone="no"?>
<!DOCTYPE svg PUBLIC "-//W3C//DTD SVG 1.1//EN"
  "http://www.w3.org/Graphics/SVG/1.1/DTD/svg11.dtd">
<svg xmlns:xlink="http://www.w3.org/1999/xlink" width="420.188935pt" height="351.99625pt" viewBox="0 0 420.188935 351.99625" xmlns="http://www.w3.org/2000/svg" version="1.1">
 <metadata>
  <rdf:RDF xmlns:dc="http://purl.org/dc/elements/1.1/" xmlns:cc="http://creativecommons.org/ns#" xmlns:rdf="http://www.w3.org/1999/02/22-rdf-syntax-ns#">
   <cc:Work>
    <dc:type rdf:resource="http://purl.org/dc/dcmitype/StillImage"/>
    <dc:date>2023-06-10T10:56:40.816108</dc:date>
    <dc:format>image/svg+xml</dc:format>
    <dc:creator>
     <cc:Agent>
      <dc:title>Matplotlib v3.7.1, https://matplotlib.org/</dc:title>
     </cc:Agent>
    </dc:creator>
   </cc:Work>
  </rdf:RDF>
 </metadata>
 <defs>
  <style type="text/css">*{stroke-linejoin: round; stroke-linecap: butt}</style>
 </defs>
 <g id="figure_1">
  <g id="patch_1">
   <path d="M 0 351.99625 
L 420.188935 351.99625 
L 420.188935 0 
L 0 0 
z
" style="fill: #ffffff"/>
  </g>
  <g id="axes_1">
   <g id="patch_2">
    <path d="M 47.1875 314.44 
L 341.850735 314.44 
L 341.850735 7.2 
L 47.1875 7.2 
z
" style="fill: #ffffff"/>
   </g>
   <g id="PathCollection_1">
    <defs>
     <path id="m083dd1d2a3" d="M 0 3 
C 0.795609 3 1.55874 2.683901 2.12132 2.12132 
C 2.683901 1.55874 3 0.795609 3 0 
C 3 -0.795609 2.683901 -1.55874 2.12132 -2.12132 
C 1.55874 -2.683901 0.795609 -3 0 -3 
C -0.795609 -3 -1.55874 -2.683901 -2.12132 -2.12132 
C -2.683901 -1.55874 -3 -0.795609 -3 0 
C -3 0.795609 -2.683901 1.55874 -2.12132 2.12132 
C -1.55874 2.683901 -0.795609 3 0 3 
z
" style="stroke: #1f77b4; stroke-opacity: 0.8"/>
    </defs>
    <g clip-path="url(#pb9827dbed2)">
     <use xlink:href="#m083dd1d2a3" x="60.581283" y="254.196912" style="fill: #1f77b4; fill-opacity: 0.8; stroke: #1f77b4; stroke-opacity: 0.8"/>
     <use xlink:href="#m083dd1d2a3" x="87.756234" y="237.937203" style="fill: #1f77b4; fill-opacity: 0.8; stroke: #1f77b4; stroke-opacity: 0.8"/>
     <use xlink:href="#m083dd1d2a3" x="114.931184" y="212.922266" style="fill: #1f77b4; fill-opacity: 0.8; stroke: #1f77b4; stroke-opacity: 0.8"/>
     <use xlink:href="#m083dd1d2a3" x="142.086765" y="187.90733" style="fill: #1f77b4; fill-opacity: 0.8; stroke: #1f77b4; stroke-opacity: 0.8"/>
     <use xlink:href="#m083dd1d2a3" x="169.261715" y="161.641646" style="fill: #1f77b4; fill-opacity: 0.8; stroke: #1f77b4; stroke-opacity: 0.8"/>
     <use xlink:href="#m083dd1d2a3" x="196.436666" y="139.128203" style="fill: #1f77b4; fill-opacity: 0.8; stroke: #1f77b4; stroke-opacity: 0.8"/>
     <use xlink:href="#m083dd1d2a3" x="223.592247" y="115.364013" style="fill: #1f77b4; fill-opacity: 0.8; stroke: #1f77b4; stroke-opacity: 0.8"/>
     <use xlink:href="#m083dd1d2a3" x="250.767197" y="91.599823" style="fill: #1f77b4; fill-opacity: 0.8; stroke: #1f77b4; stroke-opacity: 0.8"/>
     <use xlink:href="#m083dd1d2a3" x="277.922778" y="70.337126" style="fill: #1f77b4; fill-opacity: 0.8; stroke: #1f77b4; stroke-opacity: 0.8"/>
     <use xlink:href="#m083dd1d2a3" x="305.097728" y="45.32219" style="fill: #1f77b4; fill-opacity: 0.8; stroke: #1f77b4; stroke-opacity: 0.8"/>
     <use xlink:href="#m083dd1d2a3" x="142.086765" y="200.414798" style="fill: #1f77b4; fill-opacity: 0.8; stroke: #1f77b4; stroke-opacity: 0.8"/>
     <use xlink:href="#m083dd1d2a3" x="142.086765" y="231.683469" style="fill: #1f77b4; fill-opacity: 0.8; stroke: #1f77b4; stroke-opacity: 0.8"/>
     <use xlink:href="#m083dd1d2a3" x="169.261715" y="171.647621" style="fill: #1f77b4; fill-opacity: 0.8; stroke: #1f77b4; stroke-opacity: 0.8"/>
     <use xlink:href="#m083dd1d2a3" x="196.436666" y="166.644633" style="fill: #1f77b4; fill-opacity: 0.8; stroke: #1f77b4; stroke-opacity: 0.8"/>
     <use xlink:href="#m083dd1d2a3" x="223.592247" y="160.390899" style="fill: #1f77b4; fill-opacity: 0.8; stroke: #1f77b4; stroke-opacity: 0.8"/>
     <use xlink:href="#m083dd1d2a3" x="180.805743" y="107.859532" style="fill: #1f77b4; fill-opacity: 0.8; stroke: #1f77b4; stroke-opacity: 0.8"/>
     <use xlink:href="#m083dd1d2a3" x="207.980693" y="82.844595" style="fill: #1f77b4; fill-opacity: 0.8; stroke: #1f77b4; stroke-opacity: 0.8"/>
     <use xlink:href="#m083dd1d2a3" x="262.311224" y="60.331152" style="fill: #1f77b4; fill-opacity: 0.8; stroke: #1f77b4; stroke-opacity: 0.8"/>
    </g>
   </g>
   <g id="PolyCollection_1">
    <path d="M 60.581283 250.69707 
L 60.581283 284.588508 
L 63.051146 282.081737 
L 65.52101 279.574876 
L 67.990873 277.066468 
L 70.460736 274.55806 
L 72.930599 272.049651 
L 75.400462 269.541243 
L 77.870325 267.06557 
L 80.340188 264.530594 
L 82.810051 262.022978 
L 85.279914 259.514113 
L 87.749777 257.003259 
L 90.21964 254.448691 
L 92.689503 251.968327 
L 95.159367 249.483871 
L 97.62923 246.982925 
L 100.099093 244.544028 
L 102.568956 241.981042 
L 105.038819 239.533755 
L 107.508682 237.014272 
L 109.978545 234.561617 
L 112.448408 232.110755 
L 114.918271 229.565522 
L 117.388134 227.106094 
L 119.857997 224.737075 
L 122.32786 222.323929 
L 124.797724 219.879129 
L 127.267587 217.417099 
L 129.73745 215.018085 
L 132.207313 212.677502 
L 134.677176 210.239118 
L 137.147039 207.75067 
L 139.616902 205.198555 
L 142.086765 202.75242 
L 144.556628 200.30233 
L 147.026491 197.850092 
L 149.496354 195.264998 
L 151.966217 192.744642 
L 154.436081 190.459915 
L 156.905944 188.202062 
L 159.375807 185.945998 
L 161.84567 183.625685 
L 164.315533 181.201501 
L 166.785396 178.756447 
L 169.255259 176.46353 
L 171.725122 174.405279 
L 174.194985 172.010355 
L 176.664848 169.59836 
L 179.134711 167.218644 
L 181.604574 165.026497 
L 184.074437 162.687405 
L 186.544301 160.579129 
L 189.014164 158.172848 
L 191.484027 155.887583 
L 193.95389 153.619336 
L 196.423753 151.540205 
L 198.893616 149.344664 
L 201.363479 147.154935 
L 203.833342 144.938157 
L 206.303205 142.874013 
L 208.773068 140.682583 
L 211.242931 138.552722 
L 213.712794 136.452378 
L 216.182658 134.330899 
L 218.652521 132.333402 
L 221.122384 130.336249 
L 223.592247 128.339096 
L 226.06211 126.284411 
L 228.531973 124.13448 
L 231.001836 121.984249 
L 233.471699 119.834018 
L 235.941562 117.649678 
L 238.411425 115.157359 
L 240.881288 113.029084 
L 243.351151 110.900808 
L 245.821015 108.773108 
L 248.290878 106.872946 
L 250.760741 104.650502 
L 253.230604 102.404294 
L 255.700467 100.449951 
L 258.17033 98.306547 
L 260.640193 96.159211 
L 263.110056 94.095959 
L 265.579919 92.099991 
L 268.049782 90.104023 
L 270.519645 88.108054 
L 272.989508 86.112086 
L 275.459371 84.116117 
L 277.929235 82.120149 
L 280.399098 80.123278 
L 282.868961 78.124415 
L 285.338824 76.137999 
L 287.808687 74.164766 
L 290.27855 72.191533 
L 292.748413 70.119707 
L 295.218276 68.123328 
L 297.688139 66.126949 
L 300.158002 64.13057 
L 302.627865 62.133505 
L 305.097728 60.134641 
L 305.097728 21.165455 
L 305.097728 21.165455 
L 302.627865 23.548526 
L 300.158002 26.001194 
L 297.688139 28.454434 
L 295.218276 30.898318 
L 292.748413 33.359181 
L 290.27855 35.810709 
L 287.808687 38.262303 
L 285.338824 40.737231 
L 282.868961 43.274751 
L 280.399098 45.812271 
L 277.929235 48.34979 
L 275.459371 50.88731 
L 272.989508 53.395106 
L 270.519645 55.78125 
L 268.049782 58.167979 
L 265.579919 60.554708 
L 263.110056 63.033692 
L 260.640193 65.627835 
L 258.17033 68.172805 
L 255.700467 70.598128 
L 253.230604 73.116427 
L 250.760741 75.636507 
L 248.290878 78.15707 
L 245.821015 80.677633 
L 243.351151 83.103815 
L 240.881288 85.552427 
L 238.411425 88.059483 
L 235.941562 90.503501 
L 233.471699 92.849809 
L 231.001836 95.420103 
L 228.531973 98.048908 
L 226.06211 100.429286 
L 223.592247 102.736315 
L 221.122384 104.906646 
L 218.652521 107.214167 
L 216.182658 109.690402 
L 213.712794 112.065976 
L 211.242931 114.383178 
L 208.773068 116.828124 
L 206.303205 119.180092 
L 203.833342 121.629273 
L 201.363479 124.070313 
L 198.893616 126.536003 
L 196.423753 128.974734 
L 193.95389 131.350849 
L 191.484027 133.729108 
L 189.014164 135.933559 
L 186.544301 138.046706 
L 184.074437 140.362355 
L 181.604574 142.61012 
L 179.134711 145.012469 
L 176.664848 147.427574 
L 174.194985 149.794218 
L 171.725122 152.192369 
L 169.255259 154.434605 
L 166.785396 156.717573 
L 164.315533 158.928288 
L 161.84567 161.282549 
L 159.375807 163.619266 
L 156.905944 165.944344 
L 154.436081 168.076965 
L 151.966217 170.217147 
L 149.496354 172.566733 
L 147.026491 174.950333 
L 144.556628 177.336541 
L 142.086765 179.521709 
L 139.616902 181.671205 
L 137.147039 183.762838 
L 134.677176 185.913624 
L 132.207313 188.22216 
L 129.73745 190.471161 
L 127.267587 192.842045 
L 124.797724 195.151988 
L 122.32786 197.458882 
L 119.857997 199.770925 
L 117.388134 202.025746 
L 114.918271 204.24776 
L 112.448408 206.30893 
L 109.978545 208.460287 
L 107.508682 210.620966 
L 105.038819 212.749012 
L 102.568956 214.865394 
L 100.099093 216.883614 
L 97.62923 219.006338 
L 95.159367 221.172585 
L 92.689503 223.348345 
L 90.21964 225.487797 
L 87.749777 227.609612 
L 85.279914 229.731426 
L 82.810051 231.746335 
L 80.340188 233.6727 
L 77.870325 235.86738 
L 75.400462 238.062423 
L 72.930599 240.233051 
L 70.460736 242.329503 
L 67.990873 244.425955 
L 65.52101 246.522407 
L 63.051146 248.618858 
L 60.581283 250.69707 
z
" clip-path="url(#pb9827dbed2)" style="fill: #1f77b4; fill-opacity: 0.15"/>
   </g>
   <g id="PathCollection_2">
    <defs>
     <path id="maaf4e46b76" d="M 0 3 
C 0.795609 3 1.55874 2.683901 2.12132 2.12132 
C 2.683901 1.55874 3 0.795609 3 0 
C 3 -0.795609 2.683901 -1.55874 2.12132 -2.12132 
C 1.55874 -2.683901 0.795609 -3 0 -3 
C -0.795609 -3 -1.55874 -2.683901 -2.12132 -2.12132 
C -2.683901 -1.55874 -3 -0.795609 -3 0 
C -3 0.795609 -2.683901 1.55874 -2.12132 2.12132 
C -1.55874 2.683901 -0.795609 3 0 3 
z
" style="stroke: #ff7f0e; stroke-opacity: 0.8"/>
    </defs>
    <g clip-path="url(#pb9827dbed2)">
     <use xlink:href="#maaf4e46b76" x="138.271038" y="290.468571" style="fill: #ff7f0e; fill-opacity: 0.8; stroke: #ff7f0e; stroke-opacity: 0.8"/>
     <use xlink:href="#maaf4e46b76" x="165.445988" y="249.193925" style="fill: #ff7f0e; fill-opacity: 0.8; stroke: #ff7f0e; stroke-opacity: 0.8"/>
     <use xlink:href="#maaf4e46b76" x="192.620939" y="212.922266" style="fill: #ff7f0e; fill-opacity: 0.8; stroke: #ff7f0e; stroke-opacity: 0.8"/>
     <use xlink:href="#maaf4e46b76" x="219.77652" y="177.901355" style="fill: #ff7f0e; fill-opacity: 0.8; stroke: #ff7f0e; stroke-opacity: 0.8"/>
     <use xlink:href="#maaf4e46b76" x="246.95147" y="146.632684" style="fill: #ff7f0e; fill-opacity: 0.8; stroke: #ff7f0e; stroke-opacity: 0.8"/>
     <use xlink:href="#maaf4e46b76" x="274.12642" y="117.865506" style="fill: #ff7f0e; fill-opacity: 0.8; stroke: #ff7f0e; stroke-opacity: 0.8"/>
     <use xlink:href="#maaf4e46b76" x="301.282001" y="90.349076" style="fill: #ff7f0e; fill-opacity: 0.8; stroke: #ff7f0e; stroke-opacity: 0.8"/>
     <use xlink:href="#maaf4e46b76" x="328.456952" y="65.334139" style="fill: #ff7f0e; fill-opacity: 0.8; stroke: #ff7f0e; stroke-opacity: 0.8"/>
     <use xlink:href="#maaf4e46b76" x="165.445988" y="256.698406" style="fill: #ff7f0e; fill-opacity: 0.8; stroke: #ff7f0e; stroke-opacity: 0.8"/>
     <use xlink:href="#maaf4e46b76" x="219.77652" y="189.158076" style="fill: #ff7f0e; fill-opacity: 0.8; stroke: #ff7f0e; stroke-opacity: 0.8"/>
     <use xlink:href="#maaf4e46b76" x="138.271038" y="300.474545" style="fill: #ff7f0e; fill-opacity: 0.8; stroke: #ff7f0e; stroke-opacity: 0.8"/>
     <use xlink:href="#maaf4e46b76" x="192.620939" y="235.43571" style="fill: #ff7f0e; fill-opacity: 0.8; stroke: #ff7f0e; stroke-opacity: 0.8"/>
    </g>
   </g>
   <g id="PolyCollection_2">
    <path d="M 138.271038 280.852557 
L 138.271038 296.311462 
L 140.192108 293.813427 
L 142.113178 291.333948 
L 144.034247 288.845656 
L 145.955317 286.338377 
L 147.876387 283.846465 
L 149.797457 281.383687 
L 151.718527 278.882526 
L 153.639597 276.405712 
L 155.560666 273.917794 
L 157.481736 271.431229 
L 159.402806 268.944451 
L 161.323876 266.494373 
L 163.244946 264.016838 
L 165.166016 261.561089 
L 167.087085 259.057312 
L 169.008155 256.591387 
L 170.929225 254.121067 
L 172.850295 251.629168 
L 174.771365 249.179865 
L 176.692435 246.707844 
L 178.613504 244.277975 
L 180.534574 241.817301 
L 182.455644 239.39732 
L 184.376714 236.999871 
L 186.297784 234.656234 
L 188.218854 232.30656 
L 190.139923 229.940735 
L 192.060993 227.464339 
L 193.982063 225.131001 
L 195.903133 222.765802 
L 197.824203 220.406585 
L 199.745273 218.063472 
L 201.666342 215.686775 
L 203.587412 213.286725 
L 205.508482 210.899186 
L 207.429552 208.507515 
L 209.350622 206.077485 
L 211.271692 203.693734 
L 213.192761 201.329736 
L 215.113831 199.001511 
L 217.034901 196.714939 
L 218.955971 194.40506 
L 220.877041 192.088728 
L 222.798111 189.772245 
L 224.719181 187.42709 
L 226.64025 185.13212 
L 228.56132 182.823259 
L 230.48239 180.447054 
L 232.40346 178.063075 
L 234.32453 175.737444 
L 236.2456 173.442042 
L 238.166669 171.146641 
L 240.087739 168.720846 
L 242.008809 166.259621 
L 243.929879 163.918261 
L 245.850949 161.574701 
L 247.772019 159.244338 
L 249.693088 156.908623 
L 251.614158 154.517065 
L 253.535228 152.187206 
L 255.456298 149.857347 
L 257.377368 147.540793 
L 259.298438 145.197629 
L 261.219507 142.86777 
L 263.140577 140.537911 
L 265.061647 138.208052 
L 266.982717 135.878194 
L 268.903787 133.51364 
L 270.824857 131.188196 
L 272.745926 128.879402 
L 274.666996 126.540324 
L 276.588066 124.204554 
L 278.509136 121.868695 
L 280.430206 119.570507 
L 282.351276 117.21605 
L 284.272345 114.86112 
L 286.193415 112.520719 
L 288.114485 110.189403 
L 290.035555 107.852856 
L 291.956625 105.516103 
L 293.877695 103.222729 
L 295.798764 100.93112 
L 297.719834 98.623556 
L 299.640904 96.30835 
L 301.561974 94.05888 
L 303.483044 91.768125 
L 305.404114 89.475686 
L 307.325183 87.184134 
L 309.246253 84.933496 
L 311.167323 82.713534 
L 313.088393 80.505854 
L 315.009463 78.204337 
L 316.930533 75.926889 
L 318.851602 73.622922 
L 320.772672 71.319448 
L 322.693742 69.075105 
L 324.614812 66.830139 
L 326.535882 64.58486 
L 328.456952 62.334472 
L 328.456952 38.293616 
L 328.456952 38.293616 
L 326.535882 40.8119 
L 324.614812 43.373036 
L 322.693742 45.941861 
L 320.772672 48.510686 
L 318.851602 51.079511 
L 316.930533 53.648337 
L 315.009463 56.217292 
L 313.088393 58.788071 
L 311.167323 61.35885 
L 309.246253 63.929628 
L 307.325183 66.500407 
L 305.404114 69.071186 
L 303.483044 71.640355 
L 301.561974 74.198078 
L 299.640904 76.755801 
L 297.719834 79.313524 
L 295.798764 81.871247 
L 293.877695 84.464161 
L 291.956625 87.058299 
L 290.035555 89.634574 
L 288.114485 92.204395 
L 286.193415 94.774891 
L 284.272345 97.346054 
L 282.351276 99.910074 
L 280.430206 102.487297 
L 278.509136 105.057686 
L 276.588066 107.663453 
L 274.666996 110.276998 
L 272.745926 112.890543 
L 270.824857 115.497335 
L 268.903787 118.056553 
L 266.982717 120.615771 
L 265.061647 123.174989 
L 263.140577 125.734207 
L 261.219507 128.293425 
L 259.298438 130.852953 
L 257.377368 133.413458 
L 255.456298 136.014081 
L 253.535228 138.570786 
L 251.614158 141.089515 
L 249.693088 143.649464 
L 247.772019 146.310202 
L 245.850949 148.97934 
L 243.929879 151.508469 
L 242.008809 153.956545 
L 240.087739 156.499299 
L 238.166669 159.043405 
L 236.2456 161.600954 
L 234.32453 164.136943 
L 232.40346 166.729693 
L 230.48239 169.255774 
L 228.56132 171.781864 
L 226.64025 174.304232 
L 224.719181 176.820965 
L 222.798111 179.324925 
L 220.877041 181.69328 
L 218.955971 184.09025 
L 217.034901 186.57344 
L 215.113831 188.987774 
L 213.192761 191.395008 
L 211.271692 193.840894 
L 209.350622 196.2993 
L 207.429552 198.685025 
L 205.508482 201.063826 
L 203.587412 203.5705 
L 201.666342 205.954083 
L 199.745273 208.308743 
L 197.824203 210.616961 
L 195.903133 213.013811 
L 193.982063 215.329988 
L 192.060993 217.529177 
L 190.139923 219.877085 
L 188.218854 222.164042 
L 186.297784 224.529748 
L 184.376714 226.90396 
L 182.455644 229.144423 
L 180.534574 231.35274 
L 178.613504 233.561516 
L 176.692435 235.770635 
L 174.771365 238.055185 
L 172.850295 240.345018 
L 170.929225 242.58052 
L 169.008155 244.804417 
L 167.087085 247.028314 
L 165.166016 249.261373 
L 163.244946 251.487552 
L 161.323876 253.714 
L 159.402806 255.963356 
L 157.481736 258.277322 
L 155.560666 260.559587 
L 153.639597 262.807821 
L 151.718527 265.07646 
L 149.797457 267.334821 
L 147.876387 269.59336 
L 145.955317 271.851899 
L 144.034247 274.108945 
L 142.113178 276.356815 
L 140.192108 278.604686 
L 138.271038 280.852557 
z
" clip-path="url(#pb9827dbed2)" style="fill: #ff7f0e; fill-opacity: 0.15"/>
   </g>
   <g id="matplotlib.axis_1">
    <g id="xtick_1">
     <g id="line2d_1">
      <defs>
       <path id="mf01227f851" d="M 0 0 
L 0 3.5 
" style="stroke: #000000; stroke-width: 0.8"/>
      </defs>
      <g>
       <use xlink:href="#mf01227f851" x="75.999145" y="314.44" style="stroke: #000000; stroke-width: 0.8"/>
      </g>
     </g>
     <g id="text_1">
      <!-- 40 -->
      <g transform="translate(69.636645 329.038437) scale(0.1 -0.1)">
       <defs>
        <path id="DejaVuSans-34" d="M 2419 4116 
L 825 1625 
L 2419 1625 
L 2419 4116 
z
M 2253 4666 
L 3047 4666 
L 3047 1625 
L 3713 1625 
L 3713 1100 
L 3047 1100 
L 3047 0 
L 2419 0 
L 2419 1100 
L 313 1100 
L 313 1709 
L 2253 4666 
z
" transform="scale(0.015625)"/>
        <path id="DejaVuSans-30" d="M 2034 4250 
Q 1547 4250 1301 3770 
Q 1056 3291 1056 2328 
Q 1056 1369 1301 889 
Q 1547 409 2034 409 
Q 2525 409 2770 889 
Q 3016 1369 3016 2328 
Q 3016 3291 2770 3770 
Q 2525 4250 2034 4250 
z
M 2034 4750 
Q 2819 4750 3233 4129 
Q 3647 3509 3647 2328 
Q 3647 1150 3233 529 
Q 2819 -91 2034 -91 
Q 1250 -91 836 529 
Q 422 1150 422 2328 
Q 422 3509 836 4129 
Q 1250 4750 2034 4750 
z
" transform="scale(0.015625)"/>
       </defs>
       <use xlink:href="#DejaVuSans-34"/>
       <use xlink:href="#DejaVuSans-30" x="63.623047"/>
      </g>
     </g>
    </g>
    <g id="xtick_2">
     <g id="line2d_2">
      <g>
       <use xlink:href="#mf01227f851" x="114.737492" y="314.44" style="stroke: #000000; stroke-width: 0.8"/>
      </g>
     </g>
     <g id="text_2">
      <!-- 60 -->
      <g transform="translate(108.374992 329.038437) scale(0.1 -0.1)">
       <defs>
        <path id="DejaVuSans-36" d="M 2113 2584 
Q 1688 2584 1439 2293 
Q 1191 2003 1191 1497 
Q 1191 994 1439 701 
Q 1688 409 2113 409 
Q 2538 409 2786 701 
Q 3034 994 3034 1497 
Q 3034 2003 2786 2293 
Q 2538 2584 2113 2584 
z
M 3366 4563 
L 3366 3988 
Q 3128 4100 2886 4159 
Q 2644 4219 2406 4219 
Q 1781 4219 1451 3797 
Q 1122 3375 1075 2522 
Q 1259 2794 1537 2939 
Q 1816 3084 2150 3084 
Q 2853 3084 3261 2657 
Q 3669 2231 3669 1497 
Q 3669 778 3244 343 
Q 2819 -91 2113 -91 
Q 1303 -91 875 529 
Q 447 1150 447 2328 
Q 447 3434 972 4092 
Q 1497 4750 2381 4750 
Q 2619 4750 2861 4703 
Q 3103 4656 3366 4563 
z
" transform="scale(0.015625)"/>
       </defs>
       <use xlink:href="#DejaVuSans-36"/>
       <use xlink:href="#DejaVuSans-30" x="63.623047"/>
      </g>
     </g>
    </g>
    <g id="xtick_3">
     <g id="line2d_3">
      <g>
       <use xlink:href="#mf01227f851" x="153.475839" y="314.44" style="stroke: #000000; stroke-width: 0.8"/>
      </g>
     </g>
     <g id="text_3">
      <!-- 80 -->
      <g transform="translate(147.113339 329.038437) scale(0.1 -0.1)">
       <defs>
        <path id="DejaVuSans-38" d="M 2034 2216 
Q 1584 2216 1326 1975 
Q 1069 1734 1069 1313 
Q 1069 891 1326 650 
Q 1584 409 2034 409 
Q 2484 409 2743 651 
Q 3003 894 3003 1313 
Q 3003 1734 2745 1975 
Q 2488 2216 2034 2216 
z
M 1403 2484 
Q 997 2584 770 2862 
Q 544 3141 544 3541 
Q 544 4100 942 4425 
Q 1341 4750 2034 4750 
Q 2731 4750 3128 4425 
Q 3525 4100 3525 3541 
Q 3525 3141 3298 2862 
Q 3072 2584 2669 2484 
Q 3125 2378 3379 2068 
Q 3634 1759 3634 1313 
Q 3634 634 3220 271 
Q 2806 -91 2034 -91 
Q 1263 -91 848 271 
Q 434 634 434 1313 
Q 434 1759 690 2068 
Q 947 2378 1403 2484 
z
M 1172 3481 
Q 1172 3119 1398 2916 
Q 1625 2713 2034 2713 
Q 2441 2713 2670 2916 
Q 2900 3119 2900 3481 
Q 2900 3844 2670 4047 
Q 2441 4250 2034 4250 
Q 1625 4250 1398 4047 
Q 1172 3844 1172 3481 
z
" transform="scale(0.015625)"/>
       </defs>
       <use xlink:href="#DejaVuSans-38"/>
       <use xlink:href="#DejaVuSans-30" x="63.623047"/>
      </g>
     </g>
    </g>
    <g id="xtick_4">
     <g id="line2d_4">
      <g>
       <use xlink:href="#mf01227f851" x="192.214186" y="314.44" style="stroke: #000000; stroke-width: 0.8"/>
      </g>
     </g>
     <g id="text_4">
      <!-- 100 -->
      <g transform="translate(182.670436 329.038437) scale(0.1 -0.1)">
       <defs>
        <path id="DejaVuSans-31" d="M 794 531 
L 1825 531 
L 1825 4091 
L 703 3866 
L 703 4441 
L 1819 4666 
L 2450 4666 
L 2450 531 
L 3481 531 
L 3481 0 
L 794 0 
L 794 531 
z
" transform="scale(0.015625)"/>
       </defs>
       <use xlink:href="#DejaVuSans-31"/>
       <use xlink:href="#DejaVuSans-30" x="63.623047"/>
       <use xlink:href="#DejaVuSans-30" x="127.246094"/>
      </g>
     </g>
    </g>
    <g id="xtick_5">
     <g id="line2d_5">
      <g>
       <use xlink:href="#mf01227f851" x="230.952533" y="314.44" style="stroke: #000000; stroke-width: 0.8"/>
      </g>
     </g>
     <g id="text_5">
      <!-- 120 -->
      <g transform="translate(221.408783 329.038437) scale(0.1 -0.1)">
       <defs>
        <path id="DejaVuSans-32" d="M 1228 531 
L 3431 531 
L 3431 0 
L 469 0 
L 469 531 
Q 828 903 1448 1529 
Q 2069 2156 2228 2338 
Q 2531 2678 2651 2914 
Q 2772 3150 2772 3378 
Q 2772 3750 2511 3984 
Q 2250 4219 1831 4219 
Q 1534 4219 1204 4116 
Q 875 4013 500 3803 
L 500 4441 
Q 881 4594 1212 4672 
Q 1544 4750 1819 4750 
Q 2544 4750 2975 4387 
Q 3406 4025 3406 3419 
Q 3406 3131 3298 2873 
Q 3191 2616 2906 2266 
Q 2828 2175 2409 1742 
Q 1991 1309 1228 531 
z
" transform="scale(0.015625)"/>
       </defs>
       <use xlink:href="#DejaVuSans-31"/>
       <use xlink:href="#DejaVuSans-32" x="63.623047"/>
       <use xlink:href="#DejaVuSans-30" x="127.246094"/>
      </g>
     </g>
    </g>
    <g id="xtick_6">
     <g id="line2d_6">
      <g>
       <use xlink:href="#mf01227f851" x="269.690879" y="314.44" style="stroke: #000000; stroke-width: 0.8"/>
      </g>
     </g>
     <g id="text_6">
      <!-- 140 -->
      <g transform="translate(260.147129 329.038437) scale(0.1 -0.1)">
       <use xlink:href="#DejaVuSans-31"/>
       <use xlink:href="#DejaVuSans-34" x="63.623047"/>
       <use xlink:href="#DejaVuSans-30" x="127.246094"/>
      </g>
     </g>
    </g>
    <g id="xtick_7">
     <g id="line2d_7">
      <g>
       <use xlink:href="#mf01227f851" x="308.429226" y="314.44" style="stroke: #000000; stroke-width: 0.8"/>
      </g>
     </g>
     <g id="text_7">
      <!-- 160 -->
      <g transform="translate(298.885476 329.038437) scale(0.1 -0.1)">
       <use xlink:href="#DejaVuSans-31"/>
       <use xlink:href="#DejaVuSans-36" x="63.623047"/>
       <use xlink:href="#DejaVuSans-30" x="127.246094"/>
      </g>
     </g>
    </g>
    <g id="text_8">
     <!-- MW, g/mol -->
     <g transform="translate(167.905836 342.716562) scale(0.1 -0.1)">
      <defs>
       <path id="DejaVuSans-4d" d="M 628 4666 
L 1569 4666 
L 2759 1491 
L 3956 4666 
L 4897 4666 
L 4897 0 
L 4281 0 
L 4281 4097 
L 3078 897 
L 2444 897 
L 1241 4097 
L 1241 0 
L 628 0 
L 628 4666 
z
" transform="scale(0.015625)"/>
       <path id="DejaVuSans-57" d="M 213 4666 
L 850 4666 
L 1831 722 
L 2809 4666 
L 3519 4666 
L 4500 722 
L 5478 4666 
L 6119 4666 
L 4947 0 
L 4153 0 
L 3169 4050 
L 2175 0 
L 1381 0 
L 213 4666 
z
" transform="scale(0.015625)"/>
       <path id="DejaVuSans-2c" d="M 750 794 
L 1409 794 
L 1409 256 
L 897 -744 
L 494 -744 
L 750 256 
L 750 794 
z
" transform="scale(0.015625)"/>
       <path id="DejaVuSans-20" transform="scale(0.015625)"/>
       <path id="DejaVuSans-67" d="M 2906 1791 
Q 2906 2416 2648 2759 
Q 2391 3103 1925 3103 
Q 1463 3103 1205 2759 
Q 947 2416 947 1791 
Q 947 1169 1205 825 
Q 1463 481 1925 481 
Q 2391 481 2648 825 
Q 2906 1169 2906 1791 
z
M 3481 434 
Q 3481 -459 3084 -895 
Q 2688 -1331 1869 -1331 
Q 1566 -1331 1297 -1286 
Q 1028 -1241 775 -1147 
L 775 -588 
Q 1028 -725 1275 -790 
Q 1522 -856 1778 -856 
Q 2344 -856 2625 -561 
Q 2906 -266 2906 331 
L 2906 616 
Q 2728 306 2450 153 
Q 2172 0 1784 0 
Q 1141 0 747 490 
Q 353 981 353 1791 
Q 353 2603 747 3093 
Q 1141 3584 1784 3584 
Q 2172 3584 2450 3431 
Q 2728 3278 2906 2969 
L 2906 3500 
L 3481 3500 
L 3481 434 
z
" transform="scale(0.015625)"/>
       <path id="DejaVuSans-2f" d="M 1625 4666 
L 2156 4666 
L 531 -594 
L 0 -594 
L 1625 4666 
z
" transform="scale(0.015625)"/>
       <path id="DejaVuSans-6d" d="M 3328 2828 
Q 3544 3216 3844 3400 
Q 4144 3584 4550 3584 
Q 5097 3584 5394 3201 
Q 5691 2819 5691 2113 
L 5691 0 
L 5113 0 
L 5113 2094 
Q 5113 2597 4934 2840 
Q 4756 3084 4391 3084 
Q 3944 3084 3684 2787 
Q 3425 2491 3425 1978 
L 3425 0 
L 2847 0 
L 2847 2094 
Q 2847 2600 2669 2842 
Q 2491 3084 2119 3084 
Q 1678 3084 1418 2786 
Q 1159 2488 1159 1978 
L 1159 0 
L 581 0 
L 581 3500 
L 1159 3500 
L 1159 2956 
Q 1356 3278 1631 3431 
Q 1906 3584 2284 3584 
Q 2666 3584 2933 3390 
Q 3200 3197 3328 2828 
z
" transform="scale(0.015625)"/>
       <path id="DejaVuSans-6f" d="M 1959 3097 
Q 1497 3097 1228 2736 
Q 959 2375 959 1747 
Q 959 1119 1226 758 
Q 1494 397 1959 397 
Q 2419 397 2687 759 
Q 2956 1122 2956 1747 
Q 2956 2369 2687 2733 
Q 2419 3097 1959 3097 
z
M 1959 3584 
Q 2709 3584 3137 3096 
Q 3566 2609 3566 1747 
Q 3566 888 3137 398 
Q 2709 -91 1959 -91 
Q 1206 -91 779 398 
Q 353 888 353 1747 
Q 353 2609 779 3096 
Q 1206 3584 1959 3584 
z
" transform="scale(0.015625)"/>
       <path id="DejaVuSans-6c" d="M 603 4863 
L 1178 4863 
L 1178 0 
L 603 0 
L 603 4863 
z
" transform="scale(0.015625)"/>
      </defs>
      <use xlink:href="#DejaVuSans-4d"/>
      <use xlink:href="#DejaVuSans-57" x="86.279297"/>
      <use xlink:href="#DejaVuSans-2c" x="185.15625"/>
      <use xlink:href="#DejaVuSans-20" x="216.943359"/>
      <use xlink:href="#DejaVuSans-67" x="248.730469"/>
      <use xlink:href="#DejaVuSans-2f" x="312.207031"/>
      <use xlink:href="#DejaVuSans-6d" x="345.898438"/>
      <use xlink:href="#DejaVuSans-6f" x="443.310547"/>
      <use xlink:href="#DejaVuSans-6c" x="504.492188"/>
     </g>
    </g>
   </g>
   <g id="matplotlib.axis_2">
    <g id="ytick_1">
     <g id="line2d_8">
      <defs>
       <path id="mc8b0f6d2ed" d="M 0 0 
L -3.5 0 
" style="stroke: #000000; stroke-width: 0.8"/>
      </defs>
      <g>
       <use xlink:href="#mc8b0f6d2ed" x="47.1875" y="272.958115" style="stroke: #000000; stroke-width: 0.8"/>
      </g>
     </g>
     <g id="text_9">
      <!-- 50 -->
      <g transform="translate(27.4625 276.757334) scale(0.1 -0.1)">
       <defs>
        <path id="DejaVuSans-35" d="M 691 4666 
L 3169 4666 
L 3169 4134 
L 1269 4134 
L 1269 2991 
Q 1406 3038 1543 3061 
Q 1681 3084 1819 3084 
Q 2600 3084 3056 2656 
Q 3513 2228 3513 1497 
Q 3513 744 3044 326 
Q 2575 -91 1722 -91 
Q 1428 -91 1123 -41 
Q 819 9 494 109 
L 494 744 
Q 775 591 1075 516 
Q 1375 441 1709 441 
Q 2250 441 2565 725 
Q 2881 1009 2881 1497 
Q 2881 1984 2565 2268 
Q 2250 2553 1709 2553 
Q 1456 2553 1204 2497 
Q 953 2441 691 2322 
L 691 4666 
z
" transform="scale(0.015625)"/>
       </defs>
       <use xlink:href="#DejaVuSans-35"/>
       <use xlink:href="#DejaVuSans-30" x="63.623047"/>
      </g>
     </g>
    </g>
    <g id="ytick_2">
     <g id="line2d_9">
      <g>
       <use xlink:href="#mc8b0f6d2ed" x="47.1875" y="210.420773" style="stroke: #000000; stroke-width: 0.8"/>
      </g>
     </g>
     <g id="text_10">
      <!-- 100 -->
      <g transform="translate(21.1 214.219992) scale(0.1 -0.1)">
       <use xlink:href="#DejaVuSans-31"/>
       <use xlink:href="#DejaVuSans-30" x="63.623047"/>
       <use xlink:href="#DejaVuSans-30" x="127.246094"/>
      </g>
     </g>
    </g>
    <g id="ytick_3">
     <g id="line2d_10">
      <g>
       <use xlink:href="#mc8b0f6d2ed" x="47.1875" y="147.883431" style="stroke: #000000; stroke-width: 0.8"/>
      </g>
     </g>
     <g id="text_11">
      <!-- 150 -->
      <g transform="translate(21.1 151.682649) scale(0.1 -0.1)">
       <use xlink:href="#DejaVuSans-31"/>
       <use xlink:href="#DejaVuSans-35" x="63.623047"/>
       <use xlink:href="#DejaVuSans-30" x="127.246094"/>
      </g>
     </g>
    </g>
    <g id="ytick_4">
     <g id="line2d_11">
      <g>
       <use xlink:href="#mc8b0f6d2ed" x="47.1875" y="85.346089" style="stroke: #000000; stroke-width: 0.8"/>
      </g>
     </g>
     <g id="text_12">
      <!-- 200 -->
      <g transform="translate(21.1 89.145307) scale(0.1 -0.1)">
       <use xlink:href="#DejaVuSans-32"/>
       <use xlink:href="#DejaVuSans-30" x="63.623047"/>
       <use xlink:href="#DejaVuSans-30" x="127.246094"/>
      </g>
     </g>
    </g>
    <g id="ytick_5">
     <g id="line2d_12">
      <g>
       <use xlink:href="#mc8b0f6d2ed" x="47.1875" y="22.808746" style="stroke: #000000; stroke-width: 0.8"/>
      </g>
     </g>
     <g id="text_13">
      <!-- 250 -->
      <g transform="translate(21.1 26.607965) scale(0.1 -0.1)">
       <use xlink:href="#DejaVuSans-32"/>
       <use xlink:href="#DejaVuSans-35" x="63.623047"/>
       <use xlink:href="#DejaVuSans-30" x="127.246094"/>
      </g>
     </g>
    </g>
    <g id="text_14">
     <!-- bp, $^o$C -->
     <g transform="translate(15 176.17) rotate(-90) scale(0.1 -0.1)">
      <defs>
       <path id="DejaVuSans-62" d="M 3116 1747 
Q 3116 2381 2855 2742 
Q 2594 3103 2138 3103 
Q 1681 3103 1420 2742 
Q 1159 2381 1159 1747 
Q 1159 1113 1420 752 
Q 1681 391 2138 391 
Q 2594 391 2855 752 
Q 3116 1113 3116 1747 
z
M 1159 2969 
Q 1341 3281 1617 3432 
Q 1894 3584 2278 3584 
Q 2916 3584 3314 3078 
Q 3713 2572 3713 1747 
Q 3713 922 3314 415 
Q 2916 -91 2278 -91 
Q 1894 -91 1617 61 
Q 1341 213 1159 525 
L 1159 0 
L 581 0 
L 581 4863 
L 1159 4863 
L 1159 2969 
z
" transform="scale(0.015625)"/>
       <path id="DejaVuSans-70" d="M 1159 525 
L 1159 -1331 
L 581 -1331 
L 581 3500 
L 1159 3500 
L 1159 2969 
Q 1341 3281 1617 3432 
Q 1894 3584 2278 3584 
Q 2916 3584 3314 3078 
Q 3713 2572 3713 1747 
Q 3713 922 3314 415 
Q 2916 -91 2278 -91 
Q 1894 -91 1617 61 
Q 1341 213 1159 525 
z
M 3116 1747 
Q 3116 2381 2855 2742 
Q 2594 3103 2138 3103 
Q 1681 3103 1420 2742 
Q 1159 2381 1159 1747 
Q 1159 1113 1420 752 
Q 1681 391 2138 391 
Q 2594 391 2855 752 
Q 3116 1113 3116 1747 
z
" transform="scale(0.015625)"/>
       <path id="DejaVuSans-Oblique-6f" d="M 1625 -91 
Q 1009 -91 651 289 
Q 294 669 294 1325 
Q 294 1706 417 2101 
Q 541 2497 738 2766 
Q 1047 3184 1428 3384 
Q 1809 3584 2291 3584 
Q 2888 3584 3255 3212 
Q 3622 2841 3622 2241 
Q 3622 1825 3500 1412 
Q 3378 1000 3181 728 
Q 2875 309 2494 109 
Q 2113 -91 1625 -91 
z
M 891 1344 
Q 891 869 1089 633 
Q 1288 397 1691 397 
Q 2269 397 2648 901 
Q 3028 1406 3028 2181 
Q 3028 2634 2825 2865 
Q 2622 3097 2228 3097 
Q 1903 3097 1650 2945 
Q 1397 2794 1197 2484 
Q 1050 2253 970 1956 
Q 891 1659 891 1344 
z
" transform="scale(0.015625)"/>
       <path id="DejaVuSans-43" d="M 4122 4306 
L 4122 3641 
Q 3803 3938 3442 4084 
Q 3081 4231 2675 4231 
Q 1875 4231 1450 3742 
Q 1025 3253 1025 2328 
Q 1025 1406 1450 917 
Q 1875 428 2675 428 
Q 3081 428 3442 575 
Q 3803 722 4122 1019 
L 4122 359 
Q 3791 134 3420 21 
Q 3050 -91 2638 -91 
Q 1578 -91 968 557 
Q 359 1206 359 2328 
Q 359 3453 968 4101 
Q 1578 4750 2638 4750 
Q 3056 4750 3426 4639 
Q 3797 4528 4122 4306 
z
" transform="scale(0.015625)"/>
      </defs>
      <use xlink:href="#DejaVuSans-62" transform="translate(0 0.51875)"/>
      <use xlink:href="#DejaVuSans-70" transform="translate(63.476562 0.51875)"/>
      <use xlink:href="#DejaVuSans-2c" transform="translate(126.953125 0.51875)"/>
      <use xlink:href="#DejaVuSans-20" transform="translate(158.740234 0.51875)"/>
      <use xlink:href="#DejaVuSans-Oblique-6f" transform="translate(191.484375 38.8) scale(0.7)"/>
      <use xlink:href="#DejaVuSans-43" transform="translate(237.045898 0.51875)"/>
     </g>
    </g>
   </g>
   <g id="line2d_13">
    <path d="M 60.581283 264.816306 
L 63.051146 262.558234 
L 65.52101 260.300162 
L 67.990873 258.04209 
L 70.460736 255.784018 
L 72.930599 253.525946 
L 75.400462 251.267874 
L 77.870325 249.009802 
L 80.340188 246.75173 
L 82.810051 244.493658 
L 85.279914 242.235586 
L 87.749777 239.977514 
L 90.21964 237.719442 
L 92.689503 235.46137 
L 95.159367 233.203297 
L 97.62923 230.945225 
L 100.099093 228.687153 
L 102.568956 226.429081 
L 105.038819 224.171009 
L 107.508682 221.912937 
L 109.978545 219.654865 
L 112.448408 217.396793 
L 114.918271 215.138721 
L 117.388134 212.880649 
L 119.857997 210.622577 
L 122.32786 208.364505 
L 124.797724 206.106433 
L 127.267587 203.848361 
L 129.73745 201.590289 
L 132.207313 199.332217 
L 134.677176 197.074145 
L 137.147039 194.816073 
L 139.616902 192.558001 
L 142.086765 190.299929 
L 144.556628 188.041857 
L 147.026491 185.783784 
L 149.496354 183.525712 
L 151.966217 181.26764 
L 154.436081 179.009568 
L 156.905944 176.751496 
L 159.375807 174.493424 
L 161.84567 172.235352 
L 164.315533 169.97728 
L 166.785396 167.719208 
L 169.255259 165.461136 
L 171.725122 163.203064 
L 174.194985 160.944992 
L 176.664848 158.68692 
L 179.134711 156.428848 
L 181.604574 154.170776 
L 184.074437 151.912704 
L 186.544301 149.654632 
L 189.014164 147.39656 
L 191.484027 145.138488 
L 193.95389 142.880416 
L 196.423753 140.622344 
L 198.893616 138.364271 
L 201.363479 136.106199 
L 203.833342 133.848127 
L 206.303205 131.590055 
L 208.773068 129.331983 
L 211.242931 127.073911 
L 213.712794 124.815839 
L 216.182658 122.557767 
L 218.652521 120.299695 
L 221.122384 118.041623 
L 223.592247 115.783551 
L 226.06211 113.525479 
L 228.531973 111.267407 
L 231.001836 109.009335 
L 233.471699 106.751263 
L 235.941562 104.493191 
L 238.411425 102.235119 
L 240.881288 99.977047 
L 243.351151 97.718975 
L 245.821015 95.460903 
L 248.290878 93.202831 
L 250.760741 90.944759 
L 253.230604 88.686686 
L 255.700467 86.428614 
L 258.17033 84.170542 
L 260.640193 81.91247 
L 263.110056 79.654398 
L 265.579919 77.396326 
L 268.049782 75.138254 
L 270.519645 72.880182 
L 272.989508 70.62211 
L 275.459371 68.364038 
L 277.929235 66.105966 
L 280.399098 63.847894 
L 282.868961 61.589822 
L 285.338824 59.33175 
L 287.808687 57.073678 
L 290.27855 54.815606 
L 292.748413 52.557534 
L 295.218276 50.299462 
L 297.688139 48.04139 
L 300.158002 45.783318 
L 302.627865 43.525246 
L 305.097728 41.267173 
" clip-path="url(#pb9827dbed2)" style="fill: none; stroke: #1f77b4; stroke-width: 2.25; stroke-linecap: square"/>
   </g>
   <g id="line2d_14">
    <path d="M 138.271038 289.176463 
L 140.192108 286.810599 
L 142.113178 284.444736 
L 144.034247 282.078872 
L 145.955317 279.713008 
L 147.876387 277.347145 
L 149.797457 274.981281 
L 151.718527 272.615418 
L 153.639597 270.249554 
L 155.560666 267.88369 
L 157.481736 265.517827 
L 159.402806 263.151963 
L 161.323876 260.7861 
L 163.244946 258.420236 
L 165.166016 256.054373 
L 167.087085 253.688509 
L 169.008155 251.322645 
L 170.929225 248.956782 
L 172.850295 246.590918 
L 174.771365 244.225055 
L 176.692435 241.859191 
L 178.613504 239.493328 
L 180.534574 237.127464 
L 182.455644 234.7616 
L 184.376714 232.395737 
L 186.297784 230.029873 
L 188.218854 227.66401 
L 190.139923 225.298146 
L 192.060993 222.932283 
L 193.982063 220.566419 
L 195.903133 218.200555 
L 197.824203 215.834692 
L 199.745273 213.468828 
L 201.666342 211.102965 
L 203.587412 208.737101 
L 205.508482 206.371237 
L 207.429552 204.005374 
L 209.350622 201.63951 
L 211.271692 199.273647 
L 213.192761 196.907783 
L 215.113831 194.54192 
L 217.034901 192.176056 
L 218.955971 189.810192 
L 220.877041 187.444329 
L 222.798111 185.078465 
L 224.719181 182.712602 
L 226.64025 180.346738 
L 228.56132 177.980875 
L 230.48239 175.615011 
L 232.40346 173.249147 
L 234.32453 170.883284 
L 236.2456 168.51742 
L 238.166669 166.151557 
L 240.087739 163.785693 
L 242.008809 161.41983 
L 243.929879 159.053966 
L 245.850949 156.688102 
L 247.772019 154.322239 
L 249.693088 151.956375 
L 251.614158 149.590512 
L 253.535228 147.224648 
L 255.456298 144.858784 
L 257.377368 142.492921 
L 259.298438 140.127057 
L 261.219507 137.761194 
L 263.140577 135.39533 
L 265.061647 133.029467 
L 266.982717 130.663603 
L 268.903787 128.297739 
L 270.824857 125.931876 
L 272.745926 123.566012 
L 274.666996 121.200149 
L 276.588066 118.834285 
L 278.509136 116.468422 
L 280.430206 114.102558 
L 282.351276 111.736694 
L 284.272345 109.370831 
L 286.193415 107.004967 
L 288.114485 104.639104 
L 290.035555 102.27324 
L 291.956625 99.907377 
L 293.877695 97.541513 
L 295.798764 95.175649 
L 297.719834 92.809786 
L 299.640904 90.443922 
L 301.561974 88.078059 
L 303.483044 85.712195 
L 305.404114 83.346331 
L 307.325183 80.980468 
L 309.246253 78.614604 
L 311.167323 76.248741 
L 313.088393 73.882877 
L 315.009463 71.517014 
L 316.930533 69.15115 
L 318.851602 66.785286 
L 320.772672 64.419423 
L 322.693742 62.053559 
L 324.614812 59.687696 
L 326.535882 57.321832 
L 328.456952 54.955969 
" clip-path="url(#pb9827dbed2)" style="fill: none; stroke: #ff7f0e; stroke-width: 2.25; stroke-linecap: square"/>
   </g>
   <g id="patch_3">
    <path d="M 47.1875 314.44 
L 47.1875 7.2 
" style="fill: none; stroke: #000000; stroke-width: 0.8; stroke-linejoin: miter; stroke-linecap: square"/>
   </g>
   <g id="patch_4">
    <path d="M 47.1875 314.44 
L 341.850735 314.44 
" style="fill: none; stroke: #000000; stroke-width: 0.8; stroke-linejoin: miter; stroke-linecap: square"/>
   </g>
  </g>
  <g id="legend_1">
   <g id="text_15">
    <!-- type -->
    <g transform="translate(368.139716 164.079375) scale(0.1 -0.1)">
     <defs>
      <path id="DejaVuSans-74" d="M 1172 4494 
L 1172 3500 
L 2356 3500 
L 2356 3053 
L 1172 3053 
L 1172 1153 
Q 1172 725 1289 603 
Q 1406 481 1766 481 
L 2356 481 
L 2356 0 
L 1766 0 
Q 1100 0 847 248 
Q 594 497 594 1153 
L 594 3053 
L 172 3053 
L 172 3500 
L 594 3500 
L 594 4494 
L 1172 4494 
z
" transform="scale(0.015625)"/>
      <path id="DejaVuSans-79" d="M 2059 -325 
Q 1816 -950 1584 -1140 
Q 1353 -1331 966 -1331 
L 506 -1331 
L 506 -850 
L 844 -850 
Q 1081 -850 1212 -737 
Q 1344 -625 1503 -206 
L 1606 56 
L 191 3500 
L 800 3500 
L 1894 763 
L 2988 3500 
L 3597 3500 
L 2059 -325 
z
" transform="scale(0.015625)"/>
      <path id="DejaVuSans-65" d="M 3597 1894 
L 3597 1613 
L 953 1613 
Q 991 1019 1311 708 
Q 1631 397 2203 397 
Q 2534 397 2845 478 
Q 3156 559 3463 722 
L 3463 178 
Q 3153 47 2828 -22 
Q 2503 -91 2169 -91 
Q 1331 -91 842 396 
Q 353 884 353 1716 
Q 353 2575 817 3079 
Q 1281 3584 2069 3584 
Q 2775 3584 3186 3129 
Q 3597 2675 3597 1894 
z
M 3022 2063 
Q 3016 2534 2758 2815 
Q 2500 3097 2075 3097 
Q 1594 3097 1305 2825 
Q 1016 2553 972 2059 
L 3022 2063 
z
" transform="scale(0.015625)"/>
     </defs>
     <use xlink:href="#DejaVuSans-74"/>
     <use xlink:href="#DejaVuSans-79" x="39.208984"/>
     <use xlink:href="#DejaVuSans-70" x="98.388672"/>
     <use xlink:href="#DejaVuSans-65" x="161.865234"/>
    </g>
   </g>
   <g id="PathCollection_3">
    <g>
     <use xlink:href="#m083dd1d2a3" x="357.431122" y="176.1325" style="fill: #1f77b4; fill-opacity: 0.8; stroke: #1f77b4; stroke-opacity: 0.8"/>
    </g>
   </g>
   <g id="text_16">
    <!-- alcohol -->
    <g transform="translate(375.431122 178.7575) scale(0.1 -0.1)">
     <defs>
      <path id="DejaVuSans-61" d="M 2194 1759 
Q 1497 1759 1228 1600 
Q 959 1441 959 1056 
Q 959 750 1161 570 
Q 1363 391 1709 391 
Q 2188 391 2477 730 
Q 2766 1069 2766 1631 
L 2766 1759 
L 2194 1759 
z
M 3341 1997 
L 3341 0 
L 2766 0 
L 2766 531 
Q 2569 213 2275 61 
Q 1981 -91 1556 -91 
Q 1019 -91 701 211 
Q 384 513 384 1019 
Q 384 1609 779 1909 
Q 1175 2209 1959 2209 
L 2766 2209 
L 2766 2266 
Q 2766 2663 2505 2880 
Q 2244 3097 1772 3097 
Q 1472 3097 1187 3025 
Q 903 2953 641 2809 
L 641 3341 
Q 956 3463 1253 3523 
Q 1550 3584 1831 3584 
Q 2591 3584 2966 3190 
Q 3341 2797 3341 1997 
z
" transform="scale(0.015625)"/>
      <path id="DejaVuSans-63" d="M 3122 3366 
L 3122 2828 
Q 2878 2963 2633 3030 
Q 2388 3097 2138 3097 
Q 1578 3097 1268 2742 
Q 959 2388 959 1747 
Q 959 1106 1268 751 
Q 1578 397 2138 397 
Q 2388 397 2633 464 
Q 2878 531 3122 666 
L 3122 134 
Q 2881 22 2623 -34 
Q 2366 -91 2075 -91 
Q 1284 -91 818 406 
Q 353 903 353 1747 
Q 353 2603 823 3093 
Q 1294 3584 2113 3584 
Q 2378 3584 2631 3529 
Q 2884 3475 3122 3366 
z
" transform="scale(0.015625)"/>
      <path id="DejaVuSans-68" d="M 3513 2113 
L 3513 0 
L 2938 0 
L 2938 2094 
Q 2938 2591 2744 2837 
Q 2550 3084 2163 3084 
Q 1697 3084 1428 2787 
Q 1159 2491 1159 1978 
L 1159 0 
L 581 0 
L 581 4863 
L 1159 4863 
L 1159 2956 
Q 1366 3272 1645 3428 
Q 1925 3584 2291 3584 
Q 2894 3584 3203 3211 
Q 3513 2838 3513 2113 
z
" transform="scale(0.015625)"/>
     </defs>
     <use xlink:href="#DejaVuSans-61"/>
     <use xlink:href="#DejaVuSans-6c" x="61.279297"/>
     <use xlink:href="#DejaVuSans-63" x="89.0625"/>
     <use xlink:href="#DejaVuSans-6f" x="144.042969"/>
     <use xlink:href="#DejaVuSans-68" x="205.224609"/>
     <use xlink:href="#DejaVuSans-6f" x="268.603516"/>
     <use xlink:href="#DejaVuSans-6c" x="329.785156"/>
    </g>
   </g>
   <g id="PathCollection_4">
    <g>
     <use xlink:href="#maaf4e46b76" x="357.431122" y="190.810625" style="fill: #ff7f0e; fill-opacity: 0.8; stroke: #ff7f0e; stroke-opacity: 0.8"/>
    </g>
   </g>
   <g id="text_17">
    <!-- alkane -->
    <g transform="translate(375.431122 193.435625) scale(0.1 -0.1)">
     <defs>
      <path id="DejaVuSans-6b" d="M 581 4863 
L 1159 4863 
L 1159 1991 
L 2875 3500 
L 3609 3500 
L 1753 1863 
L 3688 0 
L 2938 0 
L 1159 1709 
L 1159 0 
L 581 0 
L 581 4863 
z
" transform="scale(0.015625)"/>
      <path id="DejaVuSans-6e" d="M 3513 2113 
L 3513 0 
L 2938 0 
L 2938 2094 
Q 2938 2591 2744 2837 
Q 2550 3084 2163 3084 
Q 1697 3084 1428 2787 
Q 1159 2491 1159 1978 
L 1159 0 
L 581 0 
L 581 3500 
L 1159 3500 
L 1159 2956 
Q 1366 3272 1645 3428 
Q 1925 3584 2291 3584 
Q 2894 3584 3203 3211 
Q 3513 2838 3513 2113 
z
" transform="scale(0.015625)"/>
     </defs>
     <use xlink:href="#DejaVuSans-61"/>
     <use xlink:href="#DejaVuSans-6c" x="61.279297"/>
     <use xlink:href="#DejaVuSans-6b" x="89.0625"/>
     <use xlink:href="#DejaVuSans-61" x="145.222656"/>
     <use xlink:href="#DejaVuSans-6e" x="206.501953"/>
     <use xlink:href="#DejaVuSans-65" x="269.880859"/>
    </g>
   </g>
  </g>
 </g>
 <defs>
  <clipPath id="pb9827dbed2">
   <rect x="47.1875" y="7.2" width="294.663235" height="307.24"/>
  </clipPath>
 </defs>
</svg>