<?xml version="1.0" encoding="utf-8" standalone="no"?>
<!DOCTYPE svg PUBLIC "-//W3C//DTD SVG 1.1//EN"
  "http://www.w3.org/Graphics/SVG/1.1/DTD/svg11.dtd">
<svg xmlns:xlink="http://www.w3.org/1999/xlink" width="532.7175pt" height="351.99625pt" viewBox="0 0 532.7175 351.99625" xmlns="http://www.w3.org/2000/svg" version="1.1">
 <metadata>
  <rdf:RDF xmlns:dc="http://purl.org/dc/elements/1.1/" xmlns:cc="http://creativecommons.org/ns#" xmlns:rdf="http://www.w3.org/1999/02/22-rdf-syntax-ns#">
   <cc:Work>
    <dc:type rdf:resource="http://purl.org/dc/dcmitype/StillImage"/>
    <dc:date>2023-04-26T06:06:41.173185</dc:date>
    <dc:format>image/svg+xml</dc:format>
    <dc:creator>
     <cc:Agent>
      <dc:title>Matplotlib v3.7.1, https://matplotlib.org/</dc:title>
     </cc:Agent>
    </dc:creator>
   </cc:Work>
  </rdf:RDF>
 </metadata>
 <defs>
  <style type="text/css">*{stroke-linejoin: round; stroke-linecap: butt}</style>
 </defs>
 <g id="figure_1">
  <g id="patch_1">
   <path d="M 0 351.99625 
L 532.7175 351.99625 
L 532.7175 0 
L 0 0 
z
" style="fill: #ffffff"/>
  </g>
  <g id="axes_1">
   <g id="patch_2">
    <path d="M 47.1875 314.44 
L 525.5175 314.44 
L 525.5175 7.2 
L 47.1875 7.2 
z
" style="fill: #ffffff"/>
   </g>
   <g id="PathCollection_1">
    <defs>
     <path id="ma5be625062" d="M 0 3 
C 0.795609 3 1.55874 2.683901 2.12132 2.12132 
C 2.683901 1.55874 3 0.795609 3 0 
C 3 -0.795609 2.683901 -1.55874 2.12132 -2.12132 
C 1.55874 -2.683901 0.795609 -3 0 -3 
C -0.795609 -3 -1.55874 -2.683901 -2.12132 -2.12132 
C -2.683901 -1.55874 -3 -0.795609 -3 0 
C -3 0.795609 -2.683901 1.55874 -2.12132 2.12132 
C -1.55874 2.683901 -0.795609 3 0 3 
z
" style="stroke: #1f77b4; stroke-opacity: 0.8"/>
    </defs>
    <g clip-path="url(#pf5c4c895ee)">
     <use xlink:href="#ma5be625062" x="68.929773" y="254.149096" style="fill: #1f77b4; fill-opacity: 0.8; stroke: #1f77b4; stroke-opacity: 0.8"/>
     <use xlink:href="#ma5be625062" x="113.043162" y="237.872587" style="fill: #1f77b4; fill-opacity: 0.8; stroke: #1f77b4; stroke-opacity: 0.8"/>
     <use xlink:href="#ma5be625062" x="157.156551" y="212.831803" style="fill: #1f77b4; fill-opacity: 0.8; stroke: #1f77b4; stroke-opacity: 0.8"/>
     <use xlink:href="#ma5be625062" x="201.238498" y="187.79102" style="fill: #1f77b4; fill-opacity: 0.8; stroke: #1f77b4; stroke-opacity: 0.8"/>
     <use xlink:href="#ma5be625062" x="245.351887" y="161.498197" style="fill: #1f77b4; fill-opacity: 0.8; stroke: #1f77b4; stroke-opacity: 0.8"/>
     <use xlink:href="#ma5be625062" x="289.465277" y="138.961492" style="fill: #1f77b4; fill-opacity: 0.8; stroke: #1f77b4; stroke-opacity: 0.8"/>
     <use xlink:href="#ma5be625062" x="333.547224" y="115.172748" style="fill: #1f77b4; fill-opacity: 0.8; stroke: #1f77b4; stroke-opacity: 0.8"/>
     <use xlink:href="#ma5be625062" x="377.660613" y="91.384003" style="fill: #1f77b4; fill-opacity: 0.8; stroke: #1f77b4; stroke-opacity: 0.8"/>
     <use xlink:href="#ma5be625062" x="421.74256" y="70.099337" style="fill: #1f77b4; fill-opacity: 0.8; stroke: #1f77b4; stroke-opacity: 0.8"/>
     <use xlink:href="#ma5be625062" x="465.855949" y="45.058554" style="fill: #1f77b4; fill-opacity: 0.8; stroke: #1f77b4; stroke-opacity: 0.8"/>
     <use xlink:href="#ma5be625062" x="201.238498" y="200.311411" style="fill: #1f77b4; fill-opacity: 0.8; stroke: #1f77b4; stroke-opacity: 0.8"/>
     <use xlink:href="#ma5be625062" x="201.238498" y="231.612391" style="fill: #1f77b4; fill-opacity: 0.8; stroke: #1f77b4; stroke-opacity: 0.8"/>
     <use xlink:href="#ma5be625062" x="245.351887" y="171.51451" style="fill: #1f77b4; fill-opacity: 0.8; stroke: #1f77b4; stroke-opacity: 0.8"/>
     <use xlink:href="#ma5be625062" x="289.465277" y="166.506354" style="fill: #1f77b4; fill-opacity: 0.8; stroke: #1f77b4; stroke-opacity: 0.8"/>
     <use xlink:href="#ma5be625062" x="333.547224" y="160.246158" style="fill: #1f77b4; fill-opacity: 0.8; stroke: #1f77b4; stroke-opacity: 0.8"/>
     <use xlink:href="#ma5be625062" x="264.091431" y="107.660513" style="fill: #1f77b4; fill-opacity: 0.8; stroke: #1f77b4; stroke-opacity: 0.8"/>
     <use xlink:href="#ma5be625062" x="308.20482" y="82.619729" style="fill: #1f77b4; fill-opacity: 0.8; stroke: #1f77b4; stroke-opacity: 0.8"/>
     <use xlink:href="#ma5be625062" x="396.400157" y="60.083024" style="fill: #1f77b4; fill-opacity: 0.8; stroke: #1f77b4; stroke-opacity: 0.8"/>
    </g>
   </g>
   <g id="PolyCollection_1">
    <path d="M 68.929773 251.708085 
L 68.929773 286.053763 
L 72.939128 283.45618 
L 76.948483 280.947092 
L 80.957839 278.424452 
L 84.967194 275.927834 
L 88.976549 273.383039 
L 92.985905 270.903911 
L 96.99526 268.387282 
L 101.004615 265.781531 
L 105.013971 263.17578 
L 109.023326 260.61005 
L 113.032681 257.960667 
L 117.042037 255.354885 
L 121.051392 252.749103 
L 125.060747 250.205332 
L 129.070102 247.795408 
L 133.079458 245.37317 
L 137.088813 242.834174 
L 141.098168 240.291889 
L 145.107524 237.866523 
L 149.116879 235.280759 
L 153.126234 232.752782 
L 157.13559 230.277479 
L 161.144945 227.781467 
L 165.1543 225.29762 
L 169.163656 222.813186 
L 173.173011 220.348177 
L 177.182366 217.830542 
L 181.191722 215.430337 
L 185.201077 212.976357 
L 189.210432 210.671117 
L 193.219788 208.130322 
L 197.229143 205.599501 
L 201.238498 203.13889 
L 205.247853 200.597614 
L 209.257209 198.049923 
L 213.266564 195.57614 
L 217.275919 193.201243 
L 221.285275 190.852182 
L 225.29463 188.517343 
L 229.303985 186.101914 
L 233.313341 183.696875 
L 237.322696 181.312506 
L 241.332051 178.824539 
L 245.341407 176.511521 
L 249.350762 174.194099 
L 253.360117 171.799885 
L 257.369473 169.535397 
L 261.378828 167.14002 
L 265.388183 164.84177 
L 269.397539 162.467364 
L 273.406894 160.248973 
L 277.416249 158.123701 
L 281.425604 155.990378 
L 285.43496 153.766242 
L 289.444315 151.268815 
L 293.45367 149.125435 
L 297.463026 146.72962 
L 301.472381 144.641329 
L 305.481736 142.412686 
L 309.491092 140.385785 
L 313.500447 138.255846 
L 317.509802 136.049975 
L 321.519158 133.902581 
L 325.528513 131.92558 
L 329.537868 129.965767 
L 333.547224 127.691868 
L 337.556579 125.626995 
L 341.565934 123.542864 
L 345.57529 121.458076 
L 349.584645 119.169657 
L 353.594 116.924212 
L 357.603355 114.864226 
L 361.612711 112.63113 
L 365.622066 110.392069 
L 369.631421 108.151949 
L 373.640777 106.097315 
L 377.650132 104.058821 
L 381.659487 102.020326 
L 385.668843 99.980929 
L 389.678198 97.825403 
L 393.687553 95.799327 
L 397.696909 93.729349 
L 401.706264 91.697957 
L 405.715619 89.528028 
L 409.724975 87.538352 
L 413.73433 85.611834 
L 417.743685 83.585827 
L 421.753041 81.557122 
L 425.762396 79.528418 
L 429.771751 77.499714 
L 433.781106 75.471009 
L 437.790462 73.442305 
L 441.799817 71.370402 
L 445.809172 69.16264 
L 449.818528 66.954878 
L 453.827883 64.810006 
L 457.837238 62.768707 
L 461.846594 60.771827 
L 465.855949 58.775242 
L 465.855949 21.165455 
L 465.855949 21.165455 
L 461.846594 23.84981 
L 457.837238 26.448573 
L 453.827883 28.973473 
L 449.818528 31.497637 
L 445.809172 34.021802 
L 441.799817 36.565146 
L 437.790462 39.105848 
L 433.781106 41.589388 
L 429.771751 44.109275 
L 425.762396 46.489802 
L 421.753041 48.841048 
L 417.743685 51.432849 
L 413.73433 53.804679 
L 409.724975 56.254171 
L 405.715619 58.868143 
L 401.706264 61.448267 
L 397.696909 63.800017 
L 393.687553 66.33999 
L 389.678198 68.927063 
L 385.668843 71.482498 
L 381.659487 73.900215 
L 377.650132 76.292158 
L 373.640777 78.864933 
L 369.631421 81.348217 
L 365.622066 83.810844 
L 361.612711 86.268197 
L 357.603355 88.725705 
L 353.594 91.186104 
L 349.584645 93.641263 
L 345.57529 95.985521 
L 341.565934 98.563288 
L 337.556579 100.941263 
L 333.547224 103.321716 
L 329.537868 105.603027 
L 325.528513 108.115491 
L 321.519158 110.663722 
L 317.509802 113.074138 
L 313.500447 115.56944 
L 309.491092 118.012978 
L 305.481736 120.292371 
L 301.472381 122.62335 
L 297.463026 124.816071 
L 293.45367 127.014053 
L 289.444315 129.369434 
L 285.43496 131.886405 
L 281.425604 134.446007 
L 277.416249 136.81501 
L 273.406894 139.266141 
L 269.397539 141.537945 
L 265.388183 143.716293 
L 261.378828 145.918808 
L 257.369473 148.135338 
L 253.360117 150.441437 
L 249.350762 152.734365 
L 245.341407 154.936246 
L 241.332051 157.215869 
L 237.322696 159.481085 
L 233.313341 161.903785 
L 229.303985 164.129981 
L 225.29463 166.485338 
L 221.285275 168.749089 
L 217.275919 170.900766 
L 213.266564 173.088786 
L 209.257209 175.238833 
L 205.247853 177.458451 
L 201.238498 179.67807 
L 197.229143 181.897689 
L 193.219788 184.118754 
L 189.210432 186.343767 
L 185.201077 188.580901 
L 181.191722 190.862844 
L 177.182366 193.011252 
L 173.173011 195.230805 
L 169.163656 197.497107 
L 165.1543 199.785558 
L 161.144945 201.895505 
L 157.13559 204.022417 
L 153.126234 206.224485 
L 149.116879 208.51412 
L 145.107524 210.782307 
L 141.098168 212.938755 
L 137.088813 215.039961 
L 133.079458 217.223955 
L 129.070102 219.50782 
L 125.060747 221.708518 
L 121.051392 223.78852 
L 117.042037 225.827553 
L 113.032681 228.013965 
L 109.023326 230.268319 
L 105.013971 232.533166 
L 101.004615 234.654102 
L 96.99526 236.821215 
L 92.985905 239.032462 
L 88.976549 241.245843 
L 84.967194 243.381688 
L 80.957839 245.430801 
L 76.948483 247.479914 
L 72.939128 249.529027 
L 68.929773 251.708085 
z
" clip-path="url(#pf5c4c895ee)" style="fill: #1f77b4; fill-opacity: 0.15"/>
   </g>
   <g id="PathCollection_2">
    <defs>
     <path id="mcaed8fa675" d="M 0 -3 
L -3 3 
L 3 3 
z
" style="stroke: #ff7f0e; stroke-opacity: 0.8"/>
    </defs>
    <g clip-path="url(#pf5c4c895ee)">
     <use xlink:href="#mcaed8fa675" x="195.044387" y="290.458232" style="fill: #ff7f0e; fill-opacity: 0.8; stroke: #ff7f0e; stroke-opacity: 0.8"/>
     <use xlink:href="#mcaed8fa675" x="239.157776" y="249.140939" style="fill: #ff7f0e; fill-opacity: 0.8; stroke: #ff7f0e; stroke-opacity: 0.8"/>
     <use xlink:href="#mcaed8fa675" x="283.271166" y="212.831803" style="fill: #ff7f0e; fill-opacity: 0.8; stroke: #ff7f0e; stroke-opacity: 0.8"/>
     <use xlink:href="#mcaed8fa675" x="327.353113" y="177.774706" style="fill: #ff7f0e; fill-opacity: 0.8; stroke: #ff7f0e; stroke-opacity: 0.8"/>
     <use xlink:href="#mcaed8fa675" x="371.466502" y="146.473727" style="fill: #ff7f0e; fill-opacity: 0.8; stroke: #ff7f0e; stroke-opacity: 0.8"/>
     <use xlink:href="#mcaed8fa675" x="415.579891" y="117.676826" style="fill: #ff7f0e; fill-opacity: 0.8; stroke: #ff7f0e; stroke-opacity: 0.8"/>
     <use xlink:href="#mcaed8fa675" x="459.661838" y="90.131964" style="fill: #ff7f0e; fill-opacity: 0.8; stroke: #ff7f0e; stroke-opacity: 0.8"/>
     <use xlink:href="#mcaed8fa675" x="503.775227" y="65.091181" style="fill: #ff7f0e; fill-opacity: 0.8; stroke: #ff7f0e; stroke-opacity: 0.8"/>
     <use xlink:href="#mcaed8fa675" x="239.157776" y="256.653174" style="fill: #ff7f0e; fill-opacity: 0.8; stroke: #ff7f0e; stroke-opacity: 0.8"/>
     <use xlink:href="#mcaed8fa675" x="327.353113" y="189.043059" style="fill: #ff7f0e; fill-opacity: 0.8; stroke: #ff7f0e; stroke-opacity: 0.8"/>
     <use xlink:href="#mcaed8fa675" x="195.044387" y="300.474545" style="fill: #ff7f0e; fill-opacity: 0.8; stroke: #ff7f0e; stroke-opacity: 0.8"/>
     <use xlink:href="#mcaed8fa675" x="283.271166" y="235.368508" style="fill: #ff7f0e; fill-opacity: 0.8; stroke: #ff7f0e; stroke-opacity: 0.8"/>
    </g>
   </g>
   <g id="PolyCollection_2">
    <path d="M 195.044387 279.937127 
L 195.044387 296.84642 
L 198.162881 294.34574 
L 201.281374 291.843796 
L 204.399867 289.283061 
L 207.518361 286.73932 
L 210.636854 284.223225 
L 213.755347 281.723011 
L 216.873841 279.234414 
L 219.992334 276.74304 
L 223.110827 274.180454 
L 226.229321 271.699212 
L 229.347814 269.176238 
L 232.466307 266.652998 
L 235.584801 264.145997 
L 238.703294 261.610323 
L 241.821787 259.101063 
L 244.940281 256.686852 
L 248.058774 254.257619 
L 251.177267 251.783304 
L 254.295761 249.330477 
L 257.414254 246.830217 
L 260.532747 244.379655 
L 263.651241 241.910207 
L 266.769734 239.488569 
L 269.888227 237.075444 
L 273.006721 234.692519 
L 276.125214 232.309062 
L 279.243707 229.926259 
L 282.362201 227.487834 
L 285.480694 225.082124 
L 288.599187 222.694241 
L 291.717681 220.372503 
L 294.836174 218.012678 
L 297.954667 215.608482 
L 301.073161 213.219279 
L 304.191654 210.843678 
L 307.310147 208.448691 
L 310.428641 206.005951 
L 313.547134 203.622638 
L 316.665627 201.255555 
L 319.784121 198.871792 
L 322.902614 196.474457 
L 326.021107 194.168423 
L 329.139601 191.804016 
L 332.258094 189.389712 
L 335.376587 186.9456 
L 338.495081 184.577432 
L 341.613574 182.269328 
L 344.732067 179.892134 
L 347.850561 177.525126 
L 350.969054 175.173185 
L 354.087547 172.82362 
L 357.206041 170.415028 
L 360.324534 168.062173 
L 363.443027 165.737686 
L 366.561521 163.420331 
L 369.680014 161.079009 
L 372.798507 158.7444 
L 375.917001 156.458247 
L 379.035494 154.084028 
L 382.153987 151.723966 
L 385.272481 149.411617 
L 388.390974 147.11538 
L 391.509467 144.788882 
L 394.627961 142.50706 
L 397.746454 140.225237 
L 400.864947 137.921467 
L 403.983441 135.594254 
L 407.101934 133.266862 
L 410.220427 130.938484 
L 413.338921 128.609824 
L 416.457414 126.275904 
L 419.575907 123.921034 
L 422.694401 121.565863 
L 425.812894 119.210615 
L 428.931387 116.855367 
L 432.049881 114.516396 
L 435.168374 112.240966 
L 438.286867 109.959674 
L 441.405361 107.712293 
L 444.523854 105.445391 
L 447.642347 103.175083 
L 450.760841 100.822337 
L 453.879334 98.547667 
L 456.997827 96.198446 
L 460.116321 93.909625 
L 463.234814 91.604519 
L 466.353307 89.258818 
L 469.471801 86.940606 
L 472.590294 84.583479 
L 475.708787 82.314826 
L 478.827281 80.111866 
L 481.945774 77.830797 
L 485.064267 75.507682 
L 488.182761 73.23357 
L 491.301254 70.990762 
L 494.419747 68.763482 
L 497.538241 66.607589 
L 500.656734 64.363208 
L 503.775227 62.145848 
L 503.775227 38.864761 
L 503.775227 38.864761 
L 500.656734 41.422048 
L 497.538241 43.979779 
L 494.419747 46.538972 
L 491.301254 49.098165 
L 488.182761 51.657359 
L 485.064267 54.231661 
L 481.945774 56.863591 
L 478.827281 59.495521 
L 475.708787 62.127451 
L 472.590294 64.687262 
L 469.471801 67.213171 
L 466.353307 69.739081 
L 463.234814 72.264991 
L 460.116321 74.7909 
L 456.997827 77.31681 
L 453.879334 79.84272 
L 450.760841 82.36863 
L 447.642347 84.908939 
L 444.523854 87.459749 
L 441.405361 90.016224 
L 438.286867 92.572941 
L 435.168374 95.130719 
L 432.049881 97.688496 
L 428.931387 100.246274 
L 425.812894 102.787803 
L 422.694401 105.360474 
L 419.575907 107.942012 
L 416.457414 110.518729 
L 413.338921 113.095446 
L 410.220427 115.672163 
L 407.101934 118.248879 
L 403.983441 120.825596 
L 400.864947 123.405295 
L 397.746454 126.062304 
L 394.627961 128.572273 
L 391.509467 131.135894 
L 388.390974 133.712205 
L 385.272481 136.290526 
L 382.153987 138.859663 
L 379.035494 141.445425 
L 375.917001 144.02004 
L 372.798507 146.56448 
L 369.680014 149.106233 
L 366.561521 151.623024 
L 363.443027 154.138971 
L 360.324534 156.646925 
L 357.206041 159.169134 
L 354.087547 161.620008 
L 350.969054 164.174863 
L 347.850561 166.714503 
L 344.732067 169.232712 
L 341.613574 171.717804 
L 338.495081 174.263835 
L 335.376587 176.780874 
L 332.258094 179.228528 
L 329.139601 181.718298 
L 326.021107 184.011036 
L 322.902614 186.303526 
L 319.784121 188.823821 
L 316.665627 191.233562 
L 313.547134 193.651244 
L 310.428641 196.040525 
L 307.310147 198.4819 
L 304.191654 200.808996 
L 301.073161 203.224595 
L 297.954667 205.561119 
L 294.836174 207.925768 
L 291.717681 210.248001 
L 288.599187 212.604868 
L 285.480694 214.83736 
L 282.362201 217.070473 
L 279.243707 219.336765 
L 276.125214 221.585734 
L 273.006721 223.842987 
L 269.888227 226.119362 
L 266.769734 228.461895 
L 263.651241 230.806671 
L 260.532747 233.020906 
L 257.414254 235.244614 
L 254.295761 237.449583 
L 251.177267 239.659693 
L 248.058774 241.888439 
L 244.940281 244.156355 
L 241.821787 246.424271 
L 238.703294 248.693459 
L 235.584801 250.948217 
L 232.466307 253.179054 
L 229.347814 255.409892 
L 226.229321 257.690763 
L 223.110827 259.960704 
L 219.992334 262.202373 
L 216.873841 264.487156 
L 213.755347 266.718419 
L 210.636854 268.904506 
L 207.518361 271.112684 
L 204.399867 273.317319 
L 201.281374 275.517238 
L 198.162881 277.717538 
L 195.044387 279.937127 
z
" clip-path="url(#pf5c4c895ee)" style="fill: #ff7f0e; fill-opacity: 0.15"/>
   </g>
   <g id="matplotlib.axis_1">
    <g id="xtick_1">
     <g id="line2d_1">
      <defs>
       <path id="m02ec3aefbb" d="M 0 0 
L 0 3.5 
" style="stroke: #000000; stroke-width: 0.8"/>
      </defs>
      <g>
       <use xlink:href="#m02ec3aefbb" x="93.957754" y="314.44" style="stroke: #000000; stroke-width: 0.8"/>
      </g>
     </g>
     <g id="text_1">
      <!-- 40 -->
      <g transform="translate(87.595254 329.038437) scale(0.1 -0.1)">
       <defs>
        <path id="DejaVuSans-34" d="M 2419 4116 
L 825 1625 
L 2419 1625 
L 2419 4116 
z
M 2253 4666 
L 3047 4666 
L 3047 1625 
L 3713 1625 
L 3713 1100 
L 3047 1100 
L 3047 0 
L 2419 0 
L 2419 1100 
L 313 1100 
L 313 1709 
L 2253 4666 
z
" transform="scale(0.015625)"/>
        <path id="DejaVuSans-30" d="M 2034 4250 
Q 1547 4250 1301 3770 
Q 1056 3291 1056 2328 
Q 1056 1369 1301 889 
Q 1547 409 2034 409 
Q 2525 409 2770 889 
Q 3016 1369 3016 2328 
Q 3016 3291 2770 3770 
Q 2525 4250 2034 4250 
z
M 2034 4750 
Q 2819 4750 3233 4129 
Q 3647 3509 3647 2328 
Q 3647 1150 3233 529 
Q 2819 -91 2034 -91 
Q 1250 -91 836 529 
Q 422 1150 422 2328 
Q 422 3509 836 4129 
Q 1250 4750 2034 4750 
z
" transform="scale(0.015625)"/>
       </defs>
       <use xlink:href="#DejaVuSans-34"/>
       <use xlink:href="#DejaVuSans-30" x="63.623047"/>
      </g>
     </g>
    </g>
    <g id="xtick_2">
     <g id="line2d_2">
      <g>
       <use xlink:href="#m02ec3aefbb" x="156.842129" y="314.44" style="stroke: #000000; stroke-width: 0.8"/>
      </g>
     </g>
     <g id="text_2">
      <!-- 60 -->
      <g transform="translate(150.479629 329.038437) scale(0.1 -0.1)">
       <defs>
        <path id="DejaVuSans-36" d="M 2113 2584 
Q 1688 2584 1439 2293 
Q 1191 2003 1191 1497 
Q 1191 994 1439 701 
Q 1688 409 2113 409 
Q 2538 409 2786 701 
Q 3034 994 3034 1497 
Q 3034 2003 2786 2293 
Q 2538 2584 2113 2584 
z
M 3366 4563 
L 3366 3988 
Q 3128 4100 2886 4159 
Q 2644 4219 2406 4219 
Q 1781 4219 1451 3797 
Q 1122 3375 1075 2522 
Q 1259 2794 1537 2939 
Q 1816 3084 2150 3084 
Q 2853 3084 3261 2657 
Q 3669 2231 3669 1497 
Q 3669 778 3244 343 
Q 2819 -91 2113 -91 
Q 1303 -91 875 529 
Q 447 1150 447 2328 
Q 447 3434 972 4092 
Q 1497 4750 2381 4750 
Q 2619 4750 2861 4703 
Q 3103 4656 3366 4563 
z
" transform="scale(0.015625)"/>
       </defs>
       <use xlink:href="#DejaVuSans-36"/>
       <use xlink:href="#DejaVuSans-30" x="63.623047"/>
      </g>
     </g>
    </g>
    <g id="xtick_3">
     <g id="line2d_3">
      <g>
       <use xlink:href="#m02ec3aefbb" x="219.726504" y="314.44" style="stroke: #000000; stroke-width: 0.8"/>
      </g>
     </g>
     <g id="text_3">
      <!-- 80 -->
      <g transform="translate(213.364004 329.038437) scale(0.1 -0.1)">
       <defs>
        <path id="DejaVuSans-38" d="M 2034 2216 
Q 1584 2216 1326 1975 
Q 1069 1734 1069 1313 
Q 1069 891 1326 650 
Q 1584 409 2034 409 
Q 2484 409 2743 651 
Q 3003 894 3003 1313 
Q 3003 1734 2745 1975 
Q 2488 2216 2034 2216 
z
M 1403 2484 
Q 997 2584 770 2862 
Q 544 3141 544 3541 
Q 544 4100 942 4425 
Q 1341 4750 2034 4750 
Q 2731 4750 3128 4425 
Q 3525 4100 3525 3541 
Q 3525 3141 3298 2862 
Q 3072 2584 2669 2484 
Q 3125 2378 3379 2068 
Q 3634 1759 3634 1313 
Q 3634 634 3220 271 
Q 2806 -91 2034 -91 
Q 1263 -91 848 271 
Q 434 634 434 1313 
Q 434 1759 690 2068 
Q 947 2378 1403 2484 
z
M 1172 3481 
Q 1172 3119 1398 2916 
Q 1625 2713 2034 2713 
Q 2441 2713 2670 2916 
Q 2900 3119 2900 3481 
Q 2900 3844 2670 4047 
Q 2441 4250 2034 4250 
Q 1625 4250 1398 4047 
Q 1172 3844 1172 3481 
z
" transform="scale(0.015625)"/>
       </defs>
       <use xlink:href="#DejaVuSans-38"/>
       <use xlink:href="#DejaVuSans-30" x="63.623047"/>
      </g>
     </g>
    </g>
    <g id="xtick_4">
     <g id="line2d_4">
      <g>
       <use xlink:href="#m02ec3aefbb" x="282.61088" y="314.44" style="stroke: #000000; stroke-width: 0.8"/>
      </g>
     </g>
     <g id="text_4">
      <!-- 100 -->
      <g transform="translate(273.06713 329.038437) scale(0.1 -0.1)">
       <defs>
        <path id="DejaVuSans-31" d="M 794 531 
L 1825 531 
L 1825 4091 
L 703 3866 
L 703 4441 
L 1819 4666 
L 2450 4666 
L 2450 531 
L 3481 531 
L 3481 0 
L 794 0 
L 794 531 
z
" transform="scale(0.015625)"/>
       </defs>
       <use xlink:href="#DejaVuSans-31"/>
       <use xlink:href="#DejaVuSans-30" x="63.623047"/>
       <use xlink:href="#DejaVuSans-30" x="127.246094"/>
      </g>
     </g>
    </g>
    <g id="xtick_5">
     <g id="line2d_5">
      <g>
       <use xlink:href="#m02ec3aefbb" x="345.495255" y="314.44" style="stroke: #000000; stroke-width: 0.8"/>
      </g>
     </g>
     <g id="text_5">
      <!-- 120 -->
      <g transform="translate(335.951505 329.038437) scale(0.1 -0.1)">
       <defs>
        <path id="DejaVuSans-32" d="M 1228 531 
L 3431 531 
L 3431 0 
L 469 0 
L 469 531 
Q 828 903 1448 1529 
Q 2069 2156 2228 2338 
Q 2531 2678 2651 2914 
Q 2772 3150 2772 3378 
Q 2772 3750 2511 3984 
Q 2250 4219 1831 4219 
Q 1534 4219 1204 4116 
Q 875 4013 500 3803 
L 500 4441 
Q 881 4594 1212 4672 
Q 1544 4750 1819 4750 
Q 2544 4750 2975 4387 
Q 3406 4025 3406 3419 
Q 3406 3131 3298 2873 
Q 3191 2616 2906 2266 
Q 2828 2175 2409 1742 
Q 1991 1309 1228 531 
z
" transform="scale(0.015625)"/>
       </defs>
       <use xlink:href="#DejaVuSans-31"/>
       <use xlink:href="#DejaVuSans-32" x="63.623047"/>
       <use xlink:href="#DejaVuSans-30" x="127.246094"/>
      </g>
     </g>
    </g>
    <g id="xtick_6">
     <g id="line2d_6">
      <g>
       <use xlink:href="#m02ec3aefbb" x="408.37963" y="314.44" style="stroke: #000000; stroke-width: 0.8"/>
      </g>
     </g>
     <g id="text_6">
      <!-- 140 -->
      <g transform="translate(398.83588 329.038437) scale(0.1 -0.1)">
       <use xlink:href="#DejaVuSans-31"/>
       <use xlink:href="#DejaVuSans-34" x="63.623047"/>
       <use xlink:href="#DejaVuSans-30" x="127.246094"/>
      </g>
     </g>
    </g>
    <g id="xtick_7">
     <g id="line2d_7">
      <g>
       <use xlink:href="#m02ec3aefbb" x="471.264005" y="314.44" style="stroke: #000000; stroke-width: 0.8"/>
      </g>
     </g>
     <g id="text_7">
      <!-- 160 -->
      <g transform="translate(461.720255 329.038437) scale(0.1 -0.1)">
       <use xlink:href="#DejaVuSans-31"/>
       <use xlink:href="#DejaVuSans-36" x="63.623047"/>
       <use xlink:href="#DejaVuSans-30" x="127.246094"/>
      </g>
     </g>
    </g>
    <g id="text_8">
     <!-- MW, g/mol -->
     <g transform="translate(259.739219 342.716562) scale(0.1 -0.1)">
      <defs>
       <path id="DejaVuSans-4d" d="M 628 4666 
L 1569 4666 
L 2759 1491 
L 3956 4666 
L 4897 4666 
L 4897 0 
L 4281 0 
L 4281 4097 
L 3078 897 
L 2444 897 
L 1241 4097 
L 1241 0 
L 628 0 
L 628 4666 
z
" transform="scale(0.015625)"/>
       <path id="DejaVuSans-57" d="M 213 4666 
L 850 4666 
L 1831 722 
L 2809 4666 
L 3519 4666 
L 4500 722 
L 5478 4666 
L 6119 4666 
L 4947 0 
L 4153 0 
L 3169 4050 
L 2175 0 
L 1381 0 
L 213 4666 
z
" transform="scale(0.015625)"/>
       <path id="DejaVuSans-2c" d="M 750 794 
L 1409 794 
L 1409 256 
L 897 -744 
L 494 -744 
L 750 256 
L 750 794 
z
" transform="scale(0.015625)"/>
       <path id="DejaVuSans-20" transform="scale(0.015625)"/>
       <path id="DejaVuSans-67" d="M 2906 1791 
Q 2906 2416 2648 2759 
Q 2391 3103 1925 3103 
Q 1463 3103 1205 2759 
Q 947 2416 947 1791 
Q 947 1169 1205 825 
Q 1463 481 1925 481 
Q 2391 481 2648 825 
Q 2906 1169 2906 1791 
z
M 3481 434 
Q 3481 -459 3084 -895 
Q 2688 -1331 1869 -1331 
Q 1566 -1331 1297 -1286 
Q 1028 -1241 775 -1147 
L 775 -588 
Q 1028 -725 1275 -790 
Q 1522 -856 1778 -856 
Q 2344 -856 2625 -561 
Q 2906 -266 2906 331 
L 2906 616 
Q 2728 306 2450 153 
Q 2172 0 1784 0 
Q 1141 0 747 490 
Q 353 981 353 1791 
Q 353 2603 747 3093 
Q 1141 3584 1784 3584 
Q 2172 3584 2450 3431 
Q 2728 3278 2906 2969 
L 2906 3500 
L 3481 3500 
L 3481 434 
z
" transform="scale(0.015625)"/>
       <path id="DejaVuSans-2f" d="M 1625 4666 
L 2156 4666 
L 531 -594 
L 0 -594 
L 1625 4666 
z
" transform="scale(0.015625)"/>
       <path id="DejaVuSans-6d" d="M 3328 2828 
Q 3544 3216 3844 3400 
Q 4144 3584 4550 3584 
Q 5097 3584 5394 3201 
Q 5691 2819 5691 2113 
L 5691 0 
L 5113 0 
L 5113 2094 
Q 5113 2597 4934 2840 
Q 4756 3084 4391 3084 
Q 3944 3084 3684 2787 
Q 3425 2491 3425 1978 
L 3425 0 
L 2847 0 
L 2847 2094 
Q 2847 2600 2669 2842 
Q 2491 3084 2119 3084 
Q 1678 3084 1418 2786 
Q 1159 2488 1159 1978 
L 1159 0 
L 581 0 
L 581 3500 
L 1159 3500 
L 1159 2956 
Q 1356 3278 1631 3431 
Q 1906 3584 2284 3584 
Q 2666 3584 2933 3390 
Q 3200 3197 3328 2828 
z
" transform="scale(0.015625)"/>
       <path id="DejaVuSans-6f" d="M 1959 3097 
Q 1497 3097 1228 2736 
Q 959 2375 959 1747 
Q 959 1119 1226 758 
Q 1494 397 1959 397 
Q 2419 397 2687 759 
Q 2956 1122 2956 1747 
Q 2956 2369 2687 2733 
Q 2419 3097 1959 3097 
z
M 1959 3584 
Q 2709 3584 3137 3096 
Q 3566 2609 3566 1747 
Q 3566 888 3137 398 
Q 2709 -91 1959 -91 
Q 1206 -91 779 398 
Q 353 888 353 1747 
Q 353 2609 779 3096 
Q 1206 3584 1959 3584 
z
" transform="scale(0.015625)"/>
       <path id="DejaVuSans-6c" d="M 603 4863 
L 1178 4863 
L 1178 0 
L 603 0 
L 603 4863 
z
" transform="scale(0.015625)"/>
      </defs>
      <use xlink:href="#DejaVuSans-4d"/>
      <use xlink:href="#DejaVuSans-57" x="86.279297"/>
      <use xlink:href="#DejaVuSans-2c" x="185.15625"/>
      <use xlink:href="#DejaVuSans-20" x="216.943359"/>
      <use xlink:href="#DejaVuSans-67" x="248.730469"/>
      <use xlink:href="#DejaVuSans-2f" x="312.207031"/>
      <use xlink:href="#DejaVuSans-6d" x="345.898438"/>
      <use xlink:href="#DejaVuSans-6f" x="443.310547"/>
      <use xlink:href="#DejaVuSans-6c" x="504.492188"/>
     </g>
    </g>
   </g>
   <g id="matplotlib.axis_2">
    <g id="ytick_1">
     <g id="line2d_8">
      <defs>
       <path id="m6e54f19326" d="M 0 0 
L -3.5 0 
" style="stroke: #000000; stroke-width: 0.8"/>
      </defs>
      <g>
       <use xlink:href="#m6e54f19326" x="47.1875" y="272.929684" style="stroke: #000000; stroke-width: 0.8"/>
      </g>
     </g>
     <g id="text_9">
      <!-- 50 -->
      <g transform="translate(27.4625 276.728902) scale(0.1 -0.1)">
       <defs>
        <path id="DejaVuSans-35" d="M 691 4666 
L 3169 4666 
L 3169 4134 
L 1269 4134 
L 1269 2991 
Q 1406 3038 1543 3061 
Q 1681 3084 1819 3084 
Q 2600 3084 3056 2656 
Q 3513 2228 3513 1497 
Q 3513 744 3044 326 
Q 2575 -91 1722 -91 
Q 1428 -91 1123 -41 
Q 819 9 494 109 
L 494 744 
Q 775 591 1075 516 
Q 1375 441 1709 441 
Q 2250 441 2565 725 
Q 2881 1009 2881 1497 
Q 2881 1984 2565 2268 
Q 2250 2553 1709 2553 
Q 1456 2553 1204 2497 
Q 953 2441 691 2322 
L 691 4666 
z
" transform="scale(0.015625)"/>
       </defs>
       <use xlink:href="#DejaVuSans-35"/>
       <use xlink:href="#DejaVuSans-30" x="63.623047"/>
      </g>
     </g>
    </g>
    <g id="ytick_2">
     <g id="line2d_9">
      <g>
       <use xlink:href="#m6e54f19326" x="47.1875" y="210.327725" style="stroke: #000000; stroke-width: 0.8"/>
      </g>
     </g>
     <g id="text_10">
      <!-- 100 -->
      <g transform="translate(21.1 214.126944) scale(0.1 -0.1)">
       <use xlink:href="#DejaVuSans-31"/>
       <use xlink:href="#DejaVuSans-30" x="63.623047"/>
       <use xlink:href="#DejaVuSans-30" x="127.246094"/>
      </g>
     </g>
    </g>
    <g id="ytick_3">
     <g id="line2d_10">
      <g>
       <use xlink:href="#m6e54f19326" x="47.1875" y="147.725766" style="stroke: #000000; stroke-width: 0.8"/>
      </g>
     </g>
     <g id="text_11">
      <!-- 150 -->
      <g transform="translate(21.1 151.524985) scale(0.1 -0.1)">
       <use xlink:href="#DejaVuSans-31"/>
       <use xlink:href="#DejaVuSans-35" x="63.623047"/>
       <use xlink:href="#DejaVuSans-30" x="127.246094"/>
      </g>
     </g>
    </g>
    <g id="ytick_4">
     <g id="line2d_11">
      <g>
       <use xlink:href="#m6e54f19326" x="47.1875" y="85.123807" style="stroke: #000000; stroke-width: 0.8"/>
      </g>
     </g>
     <g id="text_12">
      <!-- 200 -->
      <g transform="translate(21.1 88.923026) scale(0.1 -0.1)">
       <use xlink:href="#DejaVuSans-32"/>
       <use xlink:href="#DejaVuSans-30" x="63.623047"/>
       <use xlink:href="#DejaVuSans-30" x="127.246094"/>
      </g>
     </g>
    </g>
    <g id="ytick_5">
     <g id="line2d_12">
      <g>
       <use xlink:href="#m6e54f19326" x="47.1875" y="22.521849" style="stroke: #000000; stroke-width: 0.8"/>
      </g>
     </g>
     <g id="text_13">
      <!-- 250 -->
      <g transform="translate(21.1 26.321067) scale(0.1 -0.1)">
       <use xlink:href="#DejaVuSans-32"/>
       <use xlink:href="#DejaVuSans-35" x="63.623047"/>
       <use xlink:href="#DejaVuSans-30" x="127.246094"/>
      </g>
     </g>
    </g>
    <g id="text_14">
     <!-- bp, $^o$C -->
     <g transform="translate(15 176.17) rotate(-90) scale(0.1 -0.1)">
      <defs>
       <path id="DejaVuSans-62" d="M 3116 1747 
Q 3116 2381 2855 2742 
Q 2594 3103 2138 3103 
Q 1681 3103 1420 2742 
Q 1159 2381 1159 1747 
Q 1159 1113 1420 752 
Q 1681 391 2138 391 
Q 2594 391 2855 752 
Q 3116 1113 3116 1747 
z
M 1159 2969 
Q 1341 3281 1617 3432 
Q 1894 3584 2278 3584 
Q 2916 3584 3314 3078 
Q 3713 2572 3713 1747 
Q 3713 922 3314 415 
Q 2916 -91 2278 -91 
Q 1894 -91 1617 61 
Q 1341 213 1159 525 
L 1159 0 
L 581 0 
L 581 4863 
L 1159 4863 
L 1159 2969 
z
" transform="scale(0.015625)"/>
       <path id="DejaVuSans-70" d="M 1159 525 
L 1159 -1331 
L 581 -1331 
L 581 3500 
L 1159 3500 
L 1159 2969 
Q 1341 3281 1617 3432 
Q 1894 3584 2278 3584 
Q 2916 3584 3314 3078 
Q 3713 2572 3713 1747 
Q 3713 922 3314 415 
Q 2916 -91 2278 -91 
Q 1894 -91 1617 61 
Q 1341 213 1159 525 
z
M 3116 1747 
Q 3116 2381 2855 2742 
Q 2594 3103 2138 3103 
Q 1681 3103 1420 2742 
Q 1159 2381 1159 1747 
Q 1159 1113 1420 752 
Q 1681 391 2138 391 
Q 2594 391 2855 752 
Q 3116 1113 3116 1747 
z
" transform="scale(0.015625)"/>
       <path id="DejaVuSans-Oblique-6f" d="M 1625 -91 
Q 1009 -91 651 289 
Q 294 669 294 1325 
Q 294 1706 417 2101 
Q 541 2497 738 2766 
Q 1047 3184 1428 3384 
Q 1809 3584 2291 3584 
Q 2888 3584 3255 3212 
Q 3622 2841 3622 2241 
Q 3622 1825 3500 1412 
Q 3378 1000 3181 728 
Q 2875 309 2494 109 
Q 2113 -91 1625 -91 
z
M 891 1344 
Q 891 869 1089 633 
Q 1288 397 1691 397 
Q 2269 397 2648 901 
Q 3028 1406 3028 2181 
Q 3028 2634 2825 2865 
Q 2622 3097 2228 3097 
Q 1903 3097 1650 2945 
Q 1397 2794 1197 2484 
Q 1050 2253 970 1956 
Q 891 1659 891 1344 
z
" transform="scale(0.015625)"/>
       <path id="DejaVuSans-43" d="M 4122 4306 
L 4122 3641 
Q 3803 3938 3442 4084 
Q 3081 4231 2675 4231 
Q 1875 4231 1450 3742 
Q 1025 3253 1025 2328 
Q 1025 1406 1450 917 
Q 1875 428 2675 428 
Q 3081 428 3442 575 
Q 3803 722 4122 1019 
L 4122 359 
Q 3791 134 3420 21 
Q 3050 -91 2638 -91 
Q 1578 -91 968 557 
Q 359 1206 359 2328 
Q 359 3453 968 4101 
Q 1578 4750 2638 4750 
Q 3056 4750 3426 4639 
Q 3797 4528 4122 4306 
z
" transform="scale(0.015625)"/>
      </defs>
      <use xlink:href="#DejaVuSans-62" transform="translate(0 0.51875)"/>
      <use xlink:href="#DejaVuSans-70" transform="translate(63.476562 0.51875)"/>
      <use xlink:href="#DejaVuSans-2c" transform="translate(126.953125 0.51875)"/>
      <use xlink:href="#DejaVuSans-20" transform="translate(158.740234 0.51875)"/>
      <use xlink:href="#DejaVuSans-Oblique-6f" transform="translate(191.484375 38.8) scale(0.7)"/>
      <use xlink:href="#DejaVuSans-43" transform="translate(237.045898 0.51875)"/>
     </g>
    </g>
   </g>
   <g id="line2d_13">
    <path d="M 68.929773 264.779462 
L 72.939128 262.519057 
L 76.948483 260.258652 
L 80.957839 257.998247 
L 84.967194 255.737842 
L 88.976549 253.477436 
L 92.985905 251.217031 
L 96.99526 248.956626 
L 101.004615 246.696221 
L 105.013971 244.435816 
L 109.023326 242.17541 
L 113.032681 239.915005 
L 117.042037 237.6546 
L 121.051392 235.394195 
L 125.060747 233.13379 
L 129.070102 230.873384 
L 133.079458 228.612979 
L 137.088813 226.352574 
L 141.098168 224.092169 
L 145.107524 221.831764 
L 149.116879 219.571358 
L 153.126234 217.310953 
L 157.13559 215.050548 
L 161.144945 212.790143 
L 165.1543 210.529738 
L 169.163656 208.269332 
L 173.173011 206.008927 
L 177.182366 203.748522 
L 181.191722 201.488117 
L 185.201077 199.227712 
L 189.210432 196.967306 
L 193.219788 194.706901 
L 197.229143 192.446496 
L 201.238498 190.186091 
L 205.247853 187.925686 
L 209.257209 185.66528 
L 213.266564 183.404875 
L 217.275919 181.14447 
L 221.285275 178.884065 
L 225.29463 176.62366 
L 229.303985 174.363254 
L 233.313341 172.102849 
L 237.322696 169.842444 
L 241.332051 167.582039 
L 245.341407 165.321634 
L 249.350762 163.061228 
L 253.360117 160.800823 
L 257.369473 158.540418 
L 261.378828 156.280013 
L 265.388183 154.019608 
L 269.397539 151.759202 
L 273.406894 149.498797 
L 277.416249 147.238392 
L 281.425604 144.977987 
L 285.43496 142.717582 
L 289.444315 140.457176 
L 293.45367 138.196771 
L 297.463026 135.936366 
L 301.472381 133.675961 
L 305.481736 131.415556 
L 309.491092 129.155151 
L 313.500447 126.894745 
L 317.509802 124.63434 
L 321.519158 122.373935 
L 325.528513 120.11353 
L 329.537868 117.853125 
L 333.547224 115.592719 
L 337.556579 113.332314 
L 341.565934 111.071909 
L 345.57529 108.811504 
L 349.584645 106.551099 
L 353.594 104.290693 
L 357.603355 102.030288 
L 361.612711 99.769883 
L 365.622066 97.509478 
L 369.631421 95.249073 
L 373.640777 92.988667 
L 377.650132 90.728262 
L 381.659487 88.467857 
L 385.668843 86.207452 
L 389.678198 83.947047 
L 393.687553 81.686641 
L 397.696909 79.426236 
L 401.706264 77.165831 
L 405.715619 74.905426 
L 409.724975 72.645021 
L 413.73433 70.384615 
L 417.743685 68.12421 
L 421.753041 65.863805 
L 425.762396 63.6034 
L 429.771751 61.342995 
L 433.781106 59.082589 
L 437.790462 56.822184 
L 441.799817 54.561779 
L 445.809172 52.301374 
L 449.818528 50.040969 
L 453.827883 47.780563 
L 457.837238 45.520158 
L 461.846594 43.259753 
L 465.855949 40.999348 
" clip-path="url(#pf5c4c895ee)" style="fill: none; stroke: #1f77b4; stroke-width: 2.25; stroke-linecap: square"/>
   </g>
   <g id="line2d_14">
    <path d="M 195.044387 289.164789 
L 198.162881 286.796481 
L 201.281374 284.428173 
L 204.399867 282.059865 
L 207.518361 279.691557 
L 210.636854 277.323248 
L 213.755347 274.95494 
L 216.873841 272.586632 
L 219.992334 270.218324 
L 223.110827 267.850016 
L 226.229321 265.481708 
L 229.347814 263.1134 
L 232.466307 260.745092 
L 235.584801 258.376784 
L 238.703294 256.008476 
L 241.821787 253.640167 
L 244.940281 251.271859 
L 248.058774 248.903551 
L 251.177267 246.535243 
L 254.295761 244.166935 
L 257.414254 241.798627 
L 260.532747 239.430319 
L 263.651241 237.062011 
L 266.769734 234.693703 
L 269.888227 232.325395 
L 273.006721 229.957086 
L 276.125214 227.588778 
L 279.243707 225.22047 
L 282.362201 222.852162 
L 285.480694 220.483854 
L 288.599187 218.115546 
L 291.717681 215.747238 
L 294.836174 213.37893 
L 297.954667 211.010622 
L 301.073161 208.642313 
L 304.191654 206.274005 
L 307.310147 203.905697 
L 310.428641 201.537389 
L 313.547134 199.169081 
L 316.665627 196.800773 
L 319.784121 194.432465 
L 322.902614 192.064157 
L 326.021107 189.695849 
L 329.139601 187.327541 
L 332.258094 184.959232 
L 335.376587 182.590924 
L 338.495081 180.222616 
L 341.613574 177.854308 
L 344.732067 175.486 
L 347.850561 173.117692 
L 350.969054 170.749384 
L 354.087547 168.381076 
L 357.206041 166.012768 
L 360.324534 163.64446 
L 363.443027 161.276151 
L 366.561521 158.907843 
L 369.680014 156.539535 
L 372.798507 154.171227 
L 375.917001 151.802919 
L 379.035494 149.434611 
L 382.153987 147.066303 
L 385.272481 144.697995 
L 388.390974 142.329687 
L 391.509467 139.961379 
L 394.627961 137.59307 
L 397.746454 135.224762 
L 400.864947 132.856454 
L 403.983441 130.488146 
L 407.101934 128.119838 
L 410.220427 125.75153 
L 413.338921 123.383222 
L 416.457414 121.014914 
L 419.575907 118.646606 
L 422.694401 116.278298 
L 425.812894 113.909989 
L 428.931387 111.541681 
L 432.049881 109.173373 
L 435.168374 106.805065 
L 438.286867 104.436757 
L 441.405361 102.068449 
L 444.523854 99.700141 
L 447.642347 97.331833 
L 450.760841 94.963525 
L 453.879334 92.595216 
L 456.997827 90.226908 
L 460.116321 87.8586 
L 463.234814 85.490292 
L 466.353307 83.121984 
L 469.471801 80.753676 
L 472.590294 78.385368 
L 475.708787 76.01706 
L 478.827281 73.648752 
L 481.945774 71.280444 
L 485.064267 68.912135 
L 488.182761 66.543827 
L 491.301254 64.175519 
L 494.419747 61.807211 
L 497.538241 59.438903 
L 500.656734 57.070595 
L 503.775227 54.702287 
" clip-path="url(#pf5c4c895ee)" style="fill: none; stroke: #ff7f0e; stroke-width: 2.25; stroke-linecap: square"/>
   </g>
   <g id="patch_3">
    <path d="M 47.1875 314.44 
L 47.1875 7.2 
" style="fill: none; stroke: #000000; stroke-width: 0.8; stroke-linejoin: miter; stroke-linecap: square"/>
   </g>
   <g id="patch_4">
    <path d="M 47.1875 314.44 
L 525.5175 314.44 
" style="fill: none; stroke: #000000; stroke-width: 0.8; stroke-linejoin: miter; stroke-linecap: square"/>
   </g>
   <g id="legend_1">
    <g id="patch_5">
     <path d="M 54.1875 59.234375 
L 121.945312 59.234375 
Q 123.945312 59.234375 123.945312 57.234375 
L 123.945312 14.2 
Q 123.945312 12.2 121.945312 12.2 
L 54.1875 12.2 
Q 52.1875 12.2 52.1875 14.2 
L 52.1875 57.234375 
Q 52.1875 59.234375 54.1875 59.234375 
z
" style="fill: #ffffff; opacity: 0.8; stroke: #cccccc; stroke-linejoin: miter"/>
    </g>
    <g id="text_15">
     <!-- type -->
     <g transform="translate(76.896094 23.798438) scale(0.1 -0.1)">
      <defs>
       <path id="DejaVuSans-74" d="M 1172 4494 
L 1172 3500 
L 2356 3500 
L 2356 3053 
L 1172 3053 
L 1172 1153 
Q 1172 725 1289 603 
Q 1406 481 1766 481 
L 2356 481 
L 2356 0 
L 1766 0 
Q 1100 0 847 248 
Q 594 497 594 1153 
L 594 3053 
L 172 3053 
L 172 3500 
L 594 3500 
L 594 4494 
L 1172 4494 
z
" transform="scale(0.015625)"/>
       <path id="DejaVuSans-79" d="M 2059 -325 
Q 1816 -950 1584 -1140 
Q 1353 -1331 966 -1331 
L 506 -1331 
L 506 -850 
L 844 -850 
Q 1081 -850 1212 -737 
Q 1344 -625 1503 -206 
L 1606 56 
L 191 3500 
L 800 3500 
L 1894 763 
L 2988 3500 
L 3597 3500 
L 2059 -325 
z
" transform="scale(0.015625)"/>
       <path id="DejaVuSans-65" d="M 3597 1894 
L 3597 1613 
L 953 1613 
Q 991 1019 1311 708 
Q 1631 397 2203 397 
Q 2534 397 2845 478 
Q 3156 559 3463 722 
L 3463 178 
Q 3153 47 2828 -22 
Q 2503 -91 2169 -91 
Q 1331 -91 842 396 
Q 353 884 353 1716 
Q 353 2575 817 3079 
Q 1281 3584 2069 3584 
Q 2775 3584 3186 3129 
Q 3597 2675 3597 1894 
z
M 3022 2063 
Q 3016 2534 2758 2815 
Q 2500 3097 2075 3097 
Q 1594 3097 1305 2825 
Q 1016 2553 972 2059 
L 3022 2063 
z
" transform="scale(0.015625)"/>
      </defs>
      <use xlink:href="#DejaVuSans-74"/>
      <use xlink:href="#DejaVuSans-79" x="39.208984"/>
      <use xlink:href="#DejaVuSans-70" x="98.388672"/>
      <use xlink:href="#DejaVuSans-65" x="161.865234"/>
     </g>
    </g>
    <g id="PathCollection_3">
     <g>
      <use xlink:href="#ma5be625062" x="66.1875" y="35.851563" style="fill: #1f77b4; fill-opacity: 0.8; stroke: #1f77b4; stroke-opacity: 0.8"/>
     </g>
    </g>
    <g id="text_16">
     <!-- alcohol -->
     <g transform="translate(84.1875 38.476563) scale(0.1 -0.1)">
      <defs>
       <path id="DejaVuSans-61" d="M 2194 1759 
Q 1497 1759 1228 1600 
Q 959 1441 959 1056 
Q 959 750 1161 570 
Q 1363 391 1709 391 
Q 2188 391 2477 730 
Q 2766 1069 2766 1631 
L 2766 1759 
L 2194 1759 
z
M 3341 1997 
L 3341 0 
L 2766 0 
L 2766 531 
Q 2569 213 2275 61 
Q 1981 -91 1556 -91 
Q 1019 -91 701 211 
Q 384 513 384 1019 
Q 384 1609 779 1909 
Q 1175 2209 1959 2209 
L 2766 2209 
L 2766 2266 
Q 2766 2663 2505 2880 
Q 2244 3097 1772 3097 
Q 1472 3097 1187 3025 
Q 903 2953 641 2809 
L 641 3341 
Q 956 3463 1253 3523 
Q 1550 3584 1831 3584 
Q 2591 3584 2966 3190 
Q 3341 2797 3341 1997 
z
" transform="scale(0.015625)"/>
       <path id="DejaVuSans-63" d="M 3122 3366 
L 3122 2828 
Q 2878 2963 2633 3030 
Q 2388 3097 2138 3097 
Q 1578 3097 1268 2742 
Q 959 2388 959 1747 
Q 959 1106 1268 751 
Q 1578 397 2138 397 
Q 2388 397 2633 464 
Q 2878 531 3122 666 
L 3122 134 
Q 2881 22 2623 -34 
Q 2366 -91 2075 -91 
Q 1284 -91 818 406 
Q 353 903 353 1747 
Q 353 2603 823 3093 
Q 1294 3584 2113 3584 
Q 2378 3584 2631 3529 
Q 2884 3475 3122 3366 
z
" transform="scale(0.015625)"/>
       <path id="DejaVuSans-68" d="M 3513 2113 
L 3513 0 
L 2938 0 
L 2938 2094 
Q 2938 2591 2744 2837 
Q 2550 3084 2163 3084 
Q 1697 3084 1428 2787 
Q 1159 2491 1159 1978 
L 1159 0 
L 581 0 
L 581 4863 
L 1159 4863 
L 1159 2956 
Q 1366 3272 1645 3428 
Q 1925 3584 2291 3584 
Q 2894 3584 3203 3211 
Q 3513 2838 3513 2113 
z
" transform="scale(0.015625)"/>
      </defs>
      <use xlink:href="#DejaVuSans-61"/>
      <use xlink:href="#DejaVuSans-6c" x="61.279297"/>
      <use xlink:href="#DejaVuSans-63" x="89.0625"/>
      <use xlink:href="#DejaVuSans-6f" x="144.042969"/>
      <use xlink:href="#DejaVuSans-68" x="205.224609"/>
      <use xlink:href="#DejaVuSans-6f" x="268.603516"/>
      <use xlink:href="#DejaVuSans-6c" x="329.785156"/>
     </g>
    </g>
    <g id="PathCollection_4">
     <g>
      <use xlink:href="#mcaed8fa675" x="66.1875" y="50.529688" style="fill: #ff7f0e; fill-opacity: 0.8; stroke: #ff7f0e; stroke-opacity: 0.8"/>
     </g>
    </g>
    <g id="text_17">
     <!-- alkane -->
     <g transform="translate(84.1875 53.154688) scale(0.1 -0.1)">
      <defs>
       <path id="DejaVuSans-6b" d="M 581 4863 
L 1159 4863 
L 1159 1991 
L 2875 3500 
L 3609 3500 
L 1753 1863 
L 3688 0 
L 2938 0 
L 1159 1709 
L 1159 0 
L 581 0 
L 581 4863 
z
" transform="scale(0.015625)"/>
       <path id="DejaVuSans-6e" d="M 3513 2113 
L 3513 0 
L 2938 0 
L 2938 2094 
Q 2938 2591 2744 2837 
Q 2550 3084 2163 3084 
Q 1697 3084 1428 2787 
Q 1159 2491 1159 1978 
L 1159 0 
L 581 0 
L 581 3500 
L 1159 3500 
L 1159 2956 
Q 1366 3272 1645 3428 
Q 1925 3584 2291 3584 
Q 2894 3584 3203 3211 
Q 3513 2838 3513 2113 
z
" transform="scale(0.015625)"/>
      </defs>
      <use xlink:href="#DejaVuSans-61"/>
      <use xlink:href="#DejaVuSans-6c" x="61.279297"/>
      <use xlink:href="#DejaVuSans-6b" x="89.0625"/>
      <use xlink:href="#DejaVuSans-61" x="145.222656"/>
      <use xlink:href="#DejaVuSans-6e" x="206.501953"/>
      <use xlink:href="#DejaVuSans-65" x="269.880859"/>
     </g>
    </g>
   </g>
  </g>
 </g>
 <defs>
  <clipPath id="pf5c4c895ee">
   <rect x="47.1875" y="7.2" width="478.33" height="307.24"/>
  </clipPath>
 </defs>
</svg>