<?xml version="1.0" encoding="utf-8" standalone="no"?>
<!DOCTYPE svg PUBLIC "-//W3C//DTD SVG 1.1//EN"
  "http://www.w3.org/Graphics/SVG/1.1/DTD/svg11.dtd">
<svg xmlns:xlink="http://www.w3.org/1999/xlink" width="411.285625pt" height="310.86825pt" viewBox="0 0 411.285625 310.86825" xmlns="http://www.w3.org/2000/svg" version="1.1">
 <metadata>
  <rdf:RDF xmlns:dc="http://purl.org/dc/elements/1.1/" xmlns:cc="http://creativecommons.org/ns#" xmlns:rdf="http://www.w3.org/1999/02/22-rdf-syntax-ns#">
   <cc:Work>
    <dc:type rdf:resource="http://purl.org/dc/dcmitype/StillImage"/>
    <dc:date>2026-01-11T13:55:49.925016</dc:date>
    <dc:format>image/svg+xml</dc:format>
    <dc:creator>
     <cc:Agent>
      <dc:title>Matplotlib v3.10.3, https://matplotlib.org/</dc:title>
     </cc:Agent>
    </dc:creator>
   </cc:Work>
  </rdf:RDF>
 </metadata>
 <defs>
  <style type="text/css">*{stroke-linejoin: round; stroke-linecap: butt}</style>
 </defs>
 <g id="figure_1">
  <g id="patch_1">
   <path d="M 0 310.86825 
L 411.285625 310.86825 
L 411.285625 0 
L 0 0 
z
" style="fill: #ffffff"/>
  </g>
  <g id="axes_1">
   <g id="patch_2">
    <path d="M 46.965625 273.312 
L 404.085625 273.312 
L 404.085625 7.2 
L 46.965625 7.2 
z
" style="fill: #ffffff"/>
   </g>
   <g id="PathCollection_1">
    <defs>
     <path id="m9a68152a95" d="M 0 3 
C 0.795609 3 1.55874 2.683901 2.12132 2.12132 
C 2.683901 1.55874 3 0.795609 3 0 
C 3 -0.795609 2.683901 -1.55874 2.12132 -2.12132 
C 1.55874 -2.683901 0.795609 -3 0 -3 
C -0.795609 -3 -1.55874 -2.683901 -2.12132 -2.12132 
C -2.683901 -1.55874 -3 -0.795609 -3 0 
C -3 0.795609 -2.683901 1.55874 -2.12132 2.12132 
C -1.55874 2.683901 -0.795609 3 0 3 
z
" style="stroke: #1f77b4; stroke-opacity: 0.8"/>
    </defs>
    <g clip-path="url(#p08a9f59d06)">
     <use xlink:href="#m9a68152a95" x="63.198352" y="199.396915" style="fill: #1f77b4; fill-opacity: 0.8; stroke: #1f77b4; stroke-opacity: 0.8"/>
     <use xlink:href="#m9a68152a95" x="96.1333" y="186.82733" style="fill: #1f77b4; fill-opacity: 0.8; stroke: #1f77b4; stroke-opacity: 0.8"/>
     <use xlink:href="#m9a68152a95" x="129.068248" y="167.489508" style="fill: #1f77b4; fill-opacity: 0.8; stroke: #1f77b4; stroke-opacity: 0.8"/>
     <use xlink:href="#m9a68152a95" x="161.979721" y="148.151685" style="fill: #1f77b4; fill-opacity: 0.8; stroke: #1f77b4; stroke-opacity: 0.8"/>
     <use xlink:href="#m9a68152a95" x="194.914669" y="127.846971" style="fill: #1f77b4; fill-opacity: 0.8; stroke: #1f77b4; stroke-opacity: 0.8"/>
     <use xlink:href="#m9a68152a95" x="227.849616" y="110.442931" style="fill: #1f77b4; fill-opacity: 0.8; stroke: #1f77b4; stroke-opacity: 0.8"/>
     <use xlink:href="#m9a68152a95" x="260.761089" y="92.071999" style="fill: #1f77b4; fill-opacity: 0.8; stroke: #1f77b4; stroke-opacity: 0.8"/>
     <use xlink:href="#m9a68152a95" x="293.696037" y="73.701067" style="fill: #1f77b4; fill-opacity: 0.8; stroke: #1f77b4; stroke-opacity: 0.8"/>
     <use xlink:href="#m9a68152a95" x="326.60751" y="57.263918" style="fill: #1f77b4; fill-opacity: 0.8; stroke: #1f77b4; stroke-opacity: 0.8"/>
     <use xlink:href="#m9a68152a95" x="359.542458" y="37.926095" style="fill: #1f77b4; fill-opacity: 0.8; stroke: #1f77b4; stroke-opacity: 0.8"/>
     <use xlink:href="#m9a68152a95" x="157.355213" y="227.436758" style="fill: #1f77b4; fill-opacity: 0.8; stroke: #1f77b4; stroke-opacity: 0.8"/>
     <use xlink:href="#m9a68152a95" x="190.290161" y="195.52935" style="fill: #1f77b4; fill-opacity: 0.8; stroke: #1f77b4; stroke-opacity: 0.8"/>
     <use xlink:href="#m9a68152a95" x="223.225108" y="167.489508" style="fill: #1f77b4; fill-opacity: 0.8; stroke: #1f77b4; stroke-opacity: 0.8"/>
     <use xlink:href="#m9a68152a95" x="256.136581" y="140.416556" style="fill: #1f77b4; fill-opacity: 0.8; stroke: #1f77b4; stroke-opacity: 0.8"/>
     <use xlink:href="#m9a68152a95" x="289.071529" y="116.244277" style="fill: #1f77b4; fill-opacity: 0.8; stroke: #1f77b4; stroke-opacity: 0.8"/>
     <use xlink:href="#m9a68152a95" x="322.006477" y="94.005781" style="fill: #1f77b4; fill-opacity: 0.8; stroke: #1f77b4; stroke-opacity: 0.8"/>
     <use xlink:href="#m9a68152a95" x="354.91795" y="72.734176" style="fill: #1f77b4; fill-opacity: 0.8; stroke: #1f77b4; stroke-opacity: 0.8"/>
     <use xlink:href="#m9a68152a95" x="387.852898" y="53.396354" style="fill: #1f77b4; fill-opacity: 0.8; stroke: #1f77b4; stroke-opacity: 0.8"/>
     <use xlink:href="#m9a68152a95" x="190.290161" y="201.330697" style="fill: #1f77b4; fill-opacity: 0.8; stroke: #1f77b4; stroke-opacity: 0.8"/>
     <use xlink:href="#m9a68152a95" x="256.136581" y="149.118576" style="fill: #1f77b4; fill-opacity: 0.8; stroke: #1f77b4; stroke-opacity: 0.8"/>
     <use xlink:href="#m9a68152a95" x="157.355213" y="235.171887" style="fill: #1f77b4; fill-opacity: 0.8; stroke: #1f77b4; stroke-opacity: 0.8"/>
     <use xlink:href="#m9a68152a95" x="223.225108" y="184.893548" style="fill: #1f77b4; fill-opacity: 0.8; stroke: #1f77b4; stroke-opacity: 0.8"/>
     <use xlink:href="#m9a68152a95" x="161.979721" y="157.820596" style="fill: #1f77b4; fill-opacity: 0.8; stroke: #1f77b4; stroke-opacity: 0.8"/>
     <use xlink:href="#m9a68152a95" x="161.979721" y="181.992875" style="fill: #1f77b4; fill-opacity: 0.8; stroke: #1f77b4; stroke-opacity: 0.8"/>
     <use xlink:href="#m9a68152a95" x="194.914669" y="135.5821" style="fill: #1f77b4; fill-opacity: 0.8; stroke: #1f77b4; stroke-opacity: 0.8"/>
     <use xlink:href="#m9a68152a95" x="227.849616" y="131.714536" style="fill: #1f77b4; fill-opacity: 0.8; stroke: #1f77b4; stroke-opacity: 0.8"/>
     <use xlink:href="#m9a68152a95" x="260.761089" y="126.88008" style="fill: #1f77b4; fill-opacity: 0.8; stroke: #1f77b4; stroke-opacity: 0.8"/>
     <use xlink:href="#m9a68152a95" x="208.905566" y="86.270652" style="fill: #1f77b4; fill-opacity: 0.8; stroke: #1f77b4; stroke-opacity: 0.8"/>
     <use xlink:href="#m9a68152a95" x="241.840514" y="66.932829" style="fill: #1f77b4; fill-opacity: 0.8; stroke: #1f77b4; stroke-opacity: 0.8"/>
     <use xlink:href="#m9a68152a95" x="307.686934" y="49.528789" style="fill: #1f77b4; fill-opacity: 0.8; stroke: #1f77b4; stroke-opacity: 0.8"/>
    </g>
   </g>
   <g id="FillBetweenPolyCollection_1">
    <path d="M 63.198352 205.151051 
L 63.198352 261.216 
L 66.477691 258.807981 
L 69.75703 256.382974 
L 73.036369 253.813817 
L 76.315708 251.449579 
L 79.595046 249.12404 
L 82.874385 246.756132 
L 86.153724 244.348459 
L 89.433063 241.940787 
L 92.712402 239.533114 
L 95.991741 237.125441 
L 99.27108 234.717769 
L 102.550418 232.42979 
L 105.829757 230.27509 
L 109.109096 228.12039 
L 112.388435 225.880356 
L 115.667774 223.397546 
L 118.947113 220.913195 
L 122.226451 218.428845 
L 125.50579 215.944494 
L 128.785129 213.460144 
L 132.064468 210.975793 
L 135.343807 208.491443 
L 138.623146 206.007092 
L 141.902485 203.522742 
L 145.181823 201.074605 
L 148.461162 198.721651 
L 151.740501 196.368696 
L 155.01984 193.969762 
L 158.299179 191.720052 
L 161.578518 189.569613 
L 164.857856 187.341797 
L 168.137195 185.025378 
L 171.416534 182.689544 
L 174.695873 180.268996 
L 177.975212 177.848449 
L 181.254551 175.42765 
L 184.533889 173.084335 
L 187.813228 170.851965 
L 191.092567 168.619083 
L 194.371906 166.393372 
L 197.651245 164.038171 
L 200.930584 161.914039 
L 204.209923 159.720697 
L 207.489261 157.392839 
L 210.7686 155.270744 
L 214.047939 153.298413 
L 217.327278 151.072847 
L 220.606617 149.127326 
L 223.885956 146.730396 
L 227.165294 144.496405 
L 230.444633 142.318494 
L 233.723972 140.198626 
L 237.003311 138.322956 
L 240.28265 136.416443 
L 243.561989 134.490462 
L 246.841327 132.824124 
L 250.120666 130.766778 
L 253.400005 128.967918 
L 256.679344 126.931294 
L 259.958683 125.038109 
L 263.238022 123.144806 
L 266.517361 121.386672 
L 269.796699 119.673225 
L 273.076038 117.98233 
L 276.355377 116.119191 
L 279.634716 114.42368 
L 282.914055 112.726693 
L 286.193394 111.046716 
L 289.472732 109.219908 
L 292.752071 107.627387 
L 296.03141 105.926251 
L 299.310749 104.215525 
L 302.590088 102.558175 
L 305.869427 100.916979 
L 309.148765 99.374669 
L 312.428104 97.690191 
L 315.707443 95.924412 
L 318.986782 94.213682 
L 322.266121 92.606457 
L 325.54546 90.987595 
L 328.824799 89.195624 
L 332.104137 87.62159 
L 335.383476 85.948969 
L 338.662815 84.176584 
L 341.942154 82.350793 
L 345.221493 80.719118 
L 348.500832 79.132331 
L 351.78017 77.468031 
L 355.059509 75.927311 
L 358.338848 74.349039 
L 361.618187 72.62529 
L 364.897526 70.901541 
L 368.176865 69.177792 
L 371.456204 67.454042 
L 374.735542 65.729349 
L 378.014881 63.999748 
L 381.29422 62.345082 
L 384.573559 60.751388 
L 387.852898 59.104059 
L 387.852898 19.296 
L 387.852898 19.296 
L 384.573559 21.75411 
L 381.29422 24.212221 
L 378.014881 26.423633 
L 374.735542 28.791204 
L 371.456204 31.161497 
L 368.176865 33.531789 
L 364.897526 35.907861 
L 361.618187 38.21631 
L 358.338848 40.409001 
L 355.059509 42.556321 
L 351.78017 44.543482 
L 348.500832 46.955118 
L 345.221493 49.087718 
L 341.942154 51.33649 
L 338.662815 53.519133 
L 335.383476 55.701776 
L 332.104137 57.884419 
L 328.824799 59.994494 
L 325.54546 62.254712 
L 322.266121 64.437679 
L 318.986782 66.787949 
L 315.707443 68.987185 
L 312.428104 71.17965 
L 309.148765 73.343096 
L 305.869427 75.377105 
L 302.590088 77.488446 
L 299.310749 79.353659 
L 296.03141 81.373391 
L 292.752071 83.414597 
L 289.472732 85.462492 
L 286.193394 87.531028 
L 282.914055 89.618649 
L 279.634716 91.741582 
L 276.355377 93.672562 
L 273.076038 95.737536 
L 269.796699 97.636458 
L 266.517361 99.418503 
L 263.238022 101.40313 
L 259.958683 103.271913 
L 256.679344 105.146752 
L 253.400005 107.089751 
L 250.120666 109.134788 
L 246.841327 110.972711 
L 243.561989 112.808146 
L 240.28265 114.628097 
L 237.003311 116.482547 
L 233.723972 118.320103 
L 230.444633 120.157889 
L 227.165294 121.826222 
L 223.885956 123.455588 
L 220.606617 125.279134 
L 217.327278 127.30171 
L 214.047939 129.337881 
L 210.7686 131.105059 
L 207.489261 132.972521 
L 204.209923 134.729734 
L 200.930584 136.336112 
L 197.651245 137.987183 
L 194.371906 139.901961 
L 191.092567 141.805649 
L 187.813228 143.453039 
L 184.533889 145.100429 
L 181.254551 146.785294 
L 177.975212 148.465651 
L 174.695873 150.119094 
L 171.416534 151.812115 
L 168.137195 153.421415 
L 164.857856 154.975985 
L 161.578518 156.600023 
L 158.299179 158.36475 
L 155.01984 160.127061 
L 151.740501 161.713996 
L 148.461162 163.342818 
L 145.181823 164.89494 
L 141.902485 166.541396 
L 138.623146 168.182762 
L 135.343807 169.779611 
L 132.064468 171.408666 
L 128.785129 173.073924 
L 125.50579 174.751548 
L 122.226451 176.431016 
L 118.947113 178.134039 
L 115.667774 179.887317 
L 112.388435 181.640596 
L 109.109096 183.362713 
L 105.829757 184.918313 
L 102.550418 186.503982 
L 99.27108 188.142054 
L 95.991741 189.749038 
L 92.712402 191.267517 
L 89.433063 192.782211 
L 86.153724 194.370199 
L 82.874385 195.987852 
L 79.595046 197.506943 
L 76.315708 199.059342 
L 73.036369 200.575302 
L 69.75703 202.091262 
L 66.477691 203.607932 
L 63.198352 205.151051 
z
" clip-path="url(#p08a9f59d06)" style="fill: #1f77b4; fill-opacity: 0.15"/>
   </g>
   <g id="matplotlib.axis_1">
    <g id="xtick_1">
     <g id="line2d_1">
      <defs>
       <path id="m401cc089f2" d="M 0 0 
L 0 3.5 
" style="stroke: #000000; stroke-width: 0.8"/>
      </defs>
      <g>
       <use xlink:href="#m401cc089f2" x="81.884181" y="273.312" style="stroke: #000000; stroke-width: 0.8"/>
      </g>
     </g>
     <g id="text_1">
      <!-- 40 -->
      <g transform="translate(75.521681 287.910437) scale(0.1 -0.1)">
       <defs>
        <path id="DejaVuSans-34" d="M 2419 4116 
L 825 1625 
L 2419 1625 
L 2419 4116 
z
M 2253 4666 
L 3047 4666 
L 3047 1625 
L 3713 1625 
L 3713 1100 
L 3047 1100 
L 3047 0 
L 2419 0 
L 2419 1100 
L 313 1100 
L 313 1709 
L 2253 4666 
z
" transform="scale(0.015625)"/>
        <path id="DejaVuSans-30" d="M 2034 4250 
Q 1547 4250 1301 3770 
Q 1056 3291 1056 2328 
Q 1056 1369 1301 889 
Q 1547 409 2034 409 
Q 2525 409 2770 889 
Q 3016 1369 3016 2328 
Q 3016 3291 2770 3770 
Q 2525 4250 2034 4250 
z
M 2034 4750 
Q 2819 4750 3233 4129 
Q 3647 3509 3647 2328 
Q 3647 1150 3233 529 
Q 2819 -91 2034 -91 
Q 1250 -91 836 529 
Q 422 1150 422 2328 
Q 422 3509 836 4129 
Q 1250 4750 2034 4750 
z
" transform="scale(0.015625)"/>
       </defs>
       <use xlink:href="#DejaVuSans-34"/>
       <use xlink:href="#DejaVuSans-30" transform="translate(63.623047 0)"/>
      </g>
     </g>
    </g>
    <g id="xtick_2">
     <g id="line2d_2">
      <g>
       <use xlink:href="#m401cc089f2" x="128.833501" y="273.312" style="stroke: #000000; stroke-width: 0.8"/>
      </g>
     </g>
     <g id="text_2">
      <!-- 60 -->
      <g transform="translate(122.471001 287.910437) scale(0.1 -0.1)">
       <defs>
        <path id="DejaVuSans-36" d="M 2113 2584 
Q 1688 2584 1439 2293 
Q 1191 2003 1191 1497 
Q 1191 994 1439 701 
Q 1688 409 2113 409 
Q 2538 409 2786 701 
Q 3034 994 3034 1497 
Q 3034 2003 2786 2293 
Q 2538 2584 2113 2584 
z
M 3366 4563 
L 3366 3988 
Q 3128 4100 2886 4159 
Q 2644 4219 2406 4219 
Q 1781 4219 1451 3797 
Q 1122 3375 1075 2522 
Q 1259 2794 1537 2939 
Q 1816 3084 2150 3084 
Q 2853 3084 3261 2657 
Q 3669 2231 3669 1497 
Q 3669 778 3244 343 
Q 2819 -91 2113 -91 
Q 1303 -91 875 529 
Q 447 1150 447 2328 
Q 447 3434 972 4092 
Q 1497 4750 2381 4750 
Q 2619 4750 2861 4703 
Q 3103 4656 3366 4563 
z
" transform="scale(0.015625)"/>
       </defs>
       <use xlink:href="#DejaVuSans-36"/>
       <use xlink:href="#DejaVuSans-30" transform="translate(63.623047 0)"/>
      </g>
     </g>
    </g>
    <g id="xtick_3">
     <g id="line2d_3">
      <g>
       <use xlink:href="#m401cc089f2" x="175.782821" y="273.312" style="stroke: #000000; stroke-width: 0.8"/>
      </g>
     </g>
     <g id="text_3">
      <!-- 80 -->
      <g transform="translate(169.420321 287.910437) scale(0.1 -0.1)">
       <defs>
        <path id="DejaVuSans-38" d="M 2034 2216 
Q 1584 2216 1326 1975 
Q 1069 1734 1069 1313 
Q 1069 891 1326 650 
Q 1584 409 2034 409 
Q 2484 409 2743 651 
Q 3003 894 3003 1313 
Q 3003 1734 2745 1975 
Q 2488 2216 2034 2216 
z
M 1403 2484 
Q 997 2584 770 2862 
Q 544 3141 544 3541 
Q 544 4100 942 4425 
Q 1341 4750 2034 4750 
Q 2731 4750 3128 4425 
Q 3525 4100 3525 3541 
Q 3525 3141 3298 2862 
Q 3072 2584 2669 2484 
Q 3125 2378 3379 2068 
Q 3634 1759 3634 1313 
Q 3634 634 3220 271 
Q 2806 -91 2034 -91 
Q 1263 -91 848 271 
Q 434 634 434 1313 
Q 434 1759 690 2068 
Q 947 2378 1403 2484 
z
M 1172 3481 
Q 1172 3119 1398 2916 
Q 1625 2713 2034 2713 
Q 2441 2713 2670 2916 
Q 2900 3119 2900 3481 
Q 2900 3844 2670 4047 
Q 2441 4250 2034 4250 
Q 1625 4250 1398 4047 
Q 1172 3844 1172 3481 
z
" transform="scale(0.015625)"/>
       </defs>
       <use xlink:href="#DejaVuSans-38"/>
       <use xlink:href="#DejaVuSans-30" transform="translate(63.623047 0)"/>
      </g>
     </g>
    </g>
    <g id="xtick_4">
     <g id="line2d_4">
      <g>
       <use xlink:href="#m401cc089f2" x="222.73214" y="273.312" style="stroke: #000000; stroke-width: 0.8"/>
      </g>
     </g>
     <g id="text_4">
      <!-- 100 -->
      <g transform="translate(213.18839 287.910437) scale(0.1 -0.1)">
       <defs>
        <path id="DejaVuSans-31" d="M 794 531 
L 1825 531 
L 1825 4091 
L 703 3866 
L 703 4441 
L 1819 4666 
L 2450 4666 
L 2450 531 
L 3481 531 
L 3481 0 
L 794 0 
L 794 531 
z
" transform="scale(0.015625)"/>
       </defs>
       <use xlink:href="#DejaVuSans-31"/>
       <use xlink:href="#DejaVuSans-30" transform="translate(63.623047 0)"/>
       <use xlink:href="#DejaVuSans-30" transform="translate(127.246094 0)"/>
      </g>
     </g>
    </g>
    <g id="xtick_5">
     <g id="line2d_5">
      <g>
       <use xlink:href="#m401cc089f2" x="269.68146" y="273.312" style="stroke: #000000; stroke-width: 0.8"/>
      </g>
     </g>
     <g id="text_5">
      <!-- 120 -->
      <g transform="translate(260.13771 287.910437) scale(0.1 -0.1)">
       <defs>
        <path id="DejaVuSans-32" d="M 1228 531 
L 3431 531 
L 3431 0 
L 469 0 
L 469 531 
Q 828 903 1448 1529 
Q 2069 2156 2228 2338 
Q 2531 2678 2651 2914 
Q 2772 3150 2772 3378 
Q 2772 3750 2511 3984 
Q 2250 4219 1831 4219 
Q 1534 4219 1204 4116 
Q 875 4013 500 3803 
L 500 4441 
Q 881 4594 1212 4672 
Q 1544 4750 1819 4750 
Q 2544 4750 2975 4387 
Q 3406 4025 3406 3419 
Q 3406 3131 3298 2873 
Q 3191 2616 2906 2266 
Q 2828 2175 2409 1742 
Q 1991 1309 1228 531 
z
" transform="scale(0.015625)"/>
       </defs>
       <use xlink:href="#DejaVuSans-31"/>
       <use xlink:href="#DejaVuSans-32" transform="translate(63.623047 0)"/>
       <use xlink:href="#DejaVuSans-30" transform="translate(127.246094 0)"/>
      </g>
     </g>
    </g>
    <g id="xtick_6">
     <g id="line2d_6">
      <g>
       <use xlink:href="#m401cc089f2" x="316.63078" y="273.312" style="stroke: #000000; stroke-width: 0.8"/>
      </g>
     </g>
     <g id="text_6">
      <!-- 140 -->
      <g transform="translate(307.08703 287.910437) scale(0.1 -0.1)">
       <use xlink:href="#DejaVuSans-31"/>
       <use xlink:href="#DejaVuSans-34" transform="translate(63.623047 0)"/>
       <use xlink:href="#DejaVuSans-30" transform="translate(127.246094 0)"/>
      </g>
     </g>
    </g>
    <g id="xtick_7">
     <g id="line2d_7">
      <g>
       <use xlink:href="#m401cc089f2" x="363.580099" y="273.312" style="stroke: #000000; stroke-width: 0.8"/>
      </g>
     </g>
     <g id="text_7">
      <!-- 160 -->
      <g transform="translate(354.036349 287.910437) scale(0.1 -0.1)">
       <use xlink:href="#DejaVuSans-31"/>
       <use xlink:href="#DejaVuSans-36" transform="translate(63.623047 0)"/>
       <use xlink:href="#DejaVuSans-30" transform="translate(127.246094 0)"/>
      </g>
     </g>
    </g>
    <g id="text_8">
     <!-- MW -->
     <g transform="translate(216.267813 301.588562) scale(0.1 -0.1)">
      <defs>
       <path id="DejaVuSans-4d" d="M 628 4666 
L 1569 4666 
L 2759 1491 
L 3956 4666 
L 4897 4666 
L 4897 0 
L 4281 0 
L 4281 4097 
L 3078 897 
L 2444 897 
L 1241 4097 
L 1241 0 
L 628 0 
L 628 4666 
z
" transform="scale(0.015625)"/>
       <path id="DejaVuSans-57" d="M 213 4666 
L 850 4666 
L 1831 722 
L 2809 4666 
L 3519 4666 
L 4500 722 
L 5478 4666 
L 6119 4666 
L 4947 0 
L 4153 0 
L 3169 4050 
L 2175 0 
L 1381 0 
L 213 4666 
z
" transform="scale(0.015625)"/>
      </defs>
      <use xlink:href="#DejaVuSans-4d"/>
      <use xlink:href="#DejaVuSans-57" transform="translate(86.279297 0)"/>
     </g>
    </g>
   </g>
   <g id="matplotlib.axis_2">
    <g id="ytick_1">
     <g id="line2d_8">
      <defs>
       <path id="m066f01c216" d="M 0 0 
L -3.5 0 
" style="stroke: #000000; stroke-width: 0.8"/>
      </defs>
      <g>
       <use xlink:href="#m066f01c216" x="46.965625" y="262.244839" style="stroke: #000000; stroke-width: 0.8"/>
      </g>
     </g>
     <g id="text_9">
      <!-- 0 -->
      <g transform="translate(33.603125 266.044057) scale(0.1 -0.1)">
       <use xlink:href="#DejaVuSans-30"/>
      </g>
     </g>
    </g>
    <g id="ytick_2">
     <g id="line2d_9">
      <g>
       <use xlink:href="#m066f01c216" x="46.965625" y="213.900282" style="stroke: #000000; stroke-width: 0.8"/>
      </g>
     </g>
     <g id="text_10">
      <!-- 50 -->
      <g transform="translate(27.240625 217.699501) scale(0.1 -0.1)">
       <defs>
        <path id="DejaVuSans-35" d="M 691 4666 
L 3169 4666 
L 3169 4134 
L 1269 4134 
L 1269 2991 
Q 1406 3038 1543 3061 
Q 1681 3084 1819 3084 
Q 2600 3084 3056 2656 
Q 3513 2228 3513 1497 
Q 3513 744 3044 326 
Q 2575 -91 1722 -91 
Q 1428 -91 1123 -41 
Q 819 9 494 109 
L 494 744 
Q 775 591 1075 516 
Q 1375 441 1709 441 
Q 2250 441 2565 725 
Q 2881 1009 2881 1497 
Q 2881 1984 2565 2268 
Q 2250 2553 1709 2553 
Q 1456 2553 1204 2497 
Q 953 2441 691 2322 
L 691 4666 
z
" transform="scale(0.015625)"/>
       </defs>
       <use xlink:href="#DejaVuSans-35"/>
       <use xlink:href="#DejaVuSans-30" transform="translate(63.623047 0)"/>
      </g>
     </g>
    </g>
    <g id="ytick_3">
     <g id="line2d_10">
      <g>
       <use xlink:href="#m066f01c216" x="46.965625" y="165.555725" style="stroke: #000000; stroke-width: 0.8"/>
      </g>
     </g>
     <g id="text_11">
      <!-- 100 -->
      <g transform="translate(20.878125 169.354944) scale(0.1 -0.1)">
       <use xlink:href="#DejaVuSans-31"/>
       <use xlink:href="#DejaVuSans-30" transform="translate(63.623047 0)"/>
       <use xlink:href="#DejaVuSans-30" transform="translate(127.246094 0)"/>
      </g>
     </g>
    </g>
    <g id="ytick_4">
     <g id="line2d_11">
      <g>
       <use xlink:href="#m066f01c216" x="46.965625" y="117.211168" style="stroke: #000000; stroke-width: 0.8"/>
      </g>
     </g>
     <g id="text_12">
      <!-- 150 -->
      <g transform="translate(20.878125 121.010387) scale(0.1 -0.1)">
       <use xlink:href="#DejaVuSans-31"/>
       <use xlink:href="#DejaVuSans-35" transform="translate(63.623047 0)"/>
       <use xlink:href="#DejaVuSans-30" transform="translate(127.246094 0)"/>
      </g>
     </g>
    </g>
    <g id="ytick_5">
     <g id="line2d_12">
      <g>
       <use xlink:href="#m066f01c216" x="46.965625" y="68.866612" style="stroke: #000000; stroke-width: 0.8"/>
      </g>
     </g>
     <g id="text_13">
      <!-- 200 -->
      <g transform="translate(20.878125 72.665831) scale(0.1 -0.1)">
       <use xlink:href="#DejaVuSans-32"/>
       <use xlink:href="#DejaVuSans-30" transform="translate(63.623047 0)"/>
       <use xlink:href="#DejaVuSans-30" transform="translate(127.246094 0)"/>
      </g>
     </g>
    </g>
    <g id="ytick_6">
     <g id="line2d_13">
      <g>
       <use xlink:href="#m066f01c216" x="46.965625" y="20.522055" style="stroke: #000000; stroke-width: 0.8"/>
      </g>
     </g>
     <g id="text_14">
      <!-- 250 -->
      <g transform="translate(20.878125 24.321274) scale(0.1 -0.1)">
       <use xlink:href="#DejaVuSans-32"/>
       <use xlink:href="#DejaVuSans-35" transform="translate(63.623047 0)"/>
       <use xlink:href="#DejaVuSans-30" transform="translate(127.246094 0)"/>
      </g>
     </g>
    </g>
    <g id="text_15">
     <!-- bp -->
     <g transform="translate(14.798438 146.604437) rotate(-90) scale(0.1 -0.1)">
      <defs>
       <path id="DejaVuSans-62" d="M 3116 1747 
Q 3116 2381 2855 2742 
Q 2594 3103 2138 3103 
Q 1681 3103 1420 2742 
Q 1159 2381 1159 1747 
Q 1159 1113 1420 752 
Q 1681 391 2138 391 
Q 2594 391 2855 752 
Q 3116 1113 3116 1747 
z
M 1159 2969 
Q 1341 3281 1617 3432 
Q 1894 3584 2278 3584 
Q 2916 3584 3314 3078 
Q 3713 2572 3713 1747 
Q 3713 922 3314 415 
Q 2916 -91 2278 -91 
Q 1894 -91 1617 61 
Q 1341 213 1159 525 
L 1159 0 
L 581 0 
L 581 4863 
L 1159 4863 
L 1159 2969 
z
" transform="scale(0.015625)"/>
       <path id="DejaVuSans-70" d="M 1159 525 
L 1159 -1331 
L 581 -1331 
L 581 3500 
L 1159 3500 
L 1159 2969 
Q 1341 3281 1617 3432 
Q 1894 3584 2278 3584 
Q 2916 3584 3314 3078 
Q 3713 2572 3713 1747 
Q 3713 922 3314 415 
Q 2916 -91 2278 -91 
Q 1894 -91 1617 61 
Q 1341 213 1159 525 
z
M 3116 1747 
Q 3116 2381 2855 2742 
Q 2594 3103 2138 3103 
Q 1681 3103 1420 2742 
Q 1159 2381 1159 1747 
Q 1159 1113 1420 752 
Q 1681 391 2138 391 
Q 2594 391 2855 752 
Q 3116 1113 3116 1747 
z
" transform="scale(0.015625)"/>
      </defs>
      <use xlink:href="#DejaVuSans-62"/>
      <use xlink:href="#DejaVuSans-70" transform="translate(63.476562 0)"/>
     </g>
    </g>
   </g>
   <g id="line2d_14">
    <path d="M 63.198352 228.415316 
L 66.477691 226.5253 
L 69.75703 224.635284 
L 73.036369 222.745268 
L 76.315708 220.855251 
L 79.595046 218.965235 
L 82.874385 217.075219 
L 86.153724 215.185203 
L 89.433063 213.295186 
L 92.712402 211.40517 
L 95.991741 209.515154 
L 99.27108 207.625138 
L 102.550418 205.735121 
L 105.829757 203.845105 
L 109.109096 201.955089 
L 112.388435 200.065072 
L 115.667774 198.175056 
L 118.947113 196.28504 
L 122.226451 194.395024 
L 125.50579 192.505007 
L 128.785129 190.614991 
L 132.064468 188.724975 
L 135.343807 186.834959 
L 138.623146 184.944942 
L 141.902485 183.054926 
L 145.181823 181.16491 
L 148.461162 179.274894 
L 151.740501 177.384877 
L 155.01984 175.494861 
L 158.299179 173.604845 
L 161.578518 171.714829 
L 164.857856 169.824812 
L 168.137195 167.934796 
L 171.416534 166.04478 
L 174.695873 164.154764 
L 177.975212 162.264747 
L 181.254551 160.374731 
L 184.533889 158.484715 
L 187.813228 156.594698 
L 191.092567 154.704682 
L 194.371906 152.814666 
L 197.651245 150.92465 
L 200.930584 149.034633 
L 204.209923 147.144617 
L 207.489261 145.254601 
L 210.7686 143.364585 
L 214.047939 141.474568 
L 217.327278 139.584552 
L 220.606617 137.694536 
L 223.885956 135.80452 
L 227.165294 133.914503 
L 230.444633 132.024487 
L 233.723972 130.134471 
L 237.003311 128.244455 
L 240.28265 126.354438 
L 243.561989 124.464422 
L 246.841327 122.574406 
L 250.120666 120.68439 
L 253.400005 118.794373 
L 256.679344 116.904357 
L 259.958683 115.014341 
L 263.238022 113.124324 
L 266.517361 111.234308 
L 269.796699 109.344292 
L 273.076038 107.454276 
L 276.355377 105.564259 
L 279.634716 103.674243 
L 282.914055 101.784227 
L 286.193394 99.894211 
L 289.472732 98.004194 
L 292.752071 96.114178 
L 296.03141 94.224162 
L 299.310749 92.334146 
L 302.590088 90.444129 
L 305.869427 88.554113 
L 309.148765 86.664097 
L 312.428104 84.774081 
L 315.707443 82.884064 
L 318.986782 80.994048 
L 322.266121 79.104032 
L 325.54546 77.214016 
L 328.824799 75.323999 
L 332.104137 73.433983 
L 335.383476 71.543967 
L 338.662815 69.65395 
L 341.942154 67.763934 
L 345.221493 65.873918 
L 348.500832 63.983902 
L 351.78017 62.093885 
L 355.059509 60.203869 
L 358.338848 58.313853 
L 361.618187 56.423837 
L 364.897526 54.53382 
L 368.176865 52.643804 
L 371.456204 50.753788 
L 374.735542 48.863772 
L 378.014881 46.973755 
L 381.29422 45.083739 
L 384.573559 43.193723 
L 387.852898 41.303707 
" clip-path="url(#p08a9f59d06)" style="fill: none; stroke: #1f77b4; stroke-width: 2.25; stroke-linecap: square"/>
   </g>
   <g id="patch_3">
    <path d="M 46.965625 273.312 
L 46.965625 7.2 
" style="fill: none; stroke: #000000; stroke-width: 0.8; stroke-linejoin: miter; stroke-linecap: square"/>
   </g>
   <g id="patch_4">
    <path d="M 404.085625 273.312 
L 404.085625 7.2 
" style="fill: none; stroke: #000000; stroke-width: 0.8; stroke-linejoin: miter; stroke-linecap: square"/>
   </g>
   <g id="patch_5">
    <path d="M 46.965625 273.312 
L 404.085625 273.312 
" style="fill: none; stroke: #000000; stroke-width: 0.8; stroke-linejoin: miter; stroke-linecap: square"/>
   </g>
   <g id="patch_6">
    <path d="M 46.965625 7.2 
L 404.085625 7.2 
" style="fill: none; stroke: #000000; stroke-width: 0.8; stroke-linejoin: miter; stroke-linecap: square"/>
   </g>
  </g>
 </g>
 <defs>
  <clipPath id="p08a9f59d06">
   <rect x="46.965625" y="7.2" width="357.12" height="266.112"/>
  </clipPath>
 </defs>
</svg>