<?xml version="1.0" encoding="utf-8" standalone="no"?>
<!DOCTYPE svg PUBLIC "-//W3C//DTD SVG 1.1//EN"
  "http://www.w3.org/Graphics/SVG/1.1/DTD/svg11.dtd">
<svg xmlns:xlink="http://www.w3.org/1999/xlink" width="532.7175pt" height="351.99625pt" viewBox="0 0 532.7175 351.99625" xmlns="http://www.w3.org/2000/svg" version="1.1">
 <metadata>
  <rdf:RDF xmlns:dc="http://purl.org/dc/elements/1.1/" xmlns:cc="http://creativecommons.org/ns#" xmlns:rdf="http://www.w3.org/1999/02/22-rdf-syntax-ns#">
   <cc:Work>
    <dc:type rdf:resource="http://purl.org/dc/dcmitype/StillImage"/>
    <dc:date>2023-05-07T08:37:29.727863</dc:date>
    <dc:format>image/svg+xml</dc:format>
    <dc:creator>
     <cc:Agent>
      <dc:title>Matplotlib v3.7.1, https://matplotlib.org/</dc:title>
     </cc:Agent>
    </dc:creator>
   </cc:Work>
  </rdf:RDF>
 </metadata>
 <defs>
  <style type="text/css">*{stroke-linejoin: round; stroke-linecap: butt}</style>
 </defs>
 <g id="figure_1">
  <g id="patch_1">
   <path d="M 0 351.99625 
L 532.7175 351.99625 
L 532.7175 0 
L 0 0 
z
" style="fill: #ffffff"/>
  </g>
  <g id="axes_1">
   <g id="patch_2">
    <path d="M 47.1875 314.44 
L 525.5175 314.44 
L 525.5175 7.2 
L 47.1875 7.2 
z
" style="fill: #ffffff"/>
   </g>
   <g id="PathCollection_1">
    <defs>
     <path id="md72ca56213" d="M 0 3 
C 0.795609 3 1.55874 2.683901 2.12132 2.12132 
C 2.683901 1.55874 3 0.795609 3 0 
C 3 -0.795609 2.683901 -1.55874 2.12132 -2.12132 
C 1.55874 -2.683901 0.795609 -3 0 -3 
C -0.795609 -3 -1.55874 -2.683901 -2.12132 -2.12132 
C -2.683901 -1.55874 -3 -0.795609 -3 0 
C -3 0.795609 -2.683901 1.55874 -2.12132 2.12132 
C -1.55874 2.683901 -0.795609 3 0 3 
z
" style="stroke: #1f77b4; stroke-opacity: 0.8"/>
    </defs>
    <g clip-path="url(#p18451acb6f)">
     <use xlink:href="#md72ca56213" x="68.929773" y="254.227434" style="fill: #1f77b4; fill-opacity: 0.8; stroke: #1f77b4; stroke-opacity: 0.8"/>
     <use xlink:href="#md72ca56213" x="113.043162" y="237.978449" style="fill: #1f77b4; fill-opacity: 0.8; stroke: #1f77b4; stroke-opacity: 0.8"/>
     <use xlink:href="#md72ca56213" x="157.156551" y="212.980011" style="fill: #1f77b4; fill-opacity: 0.8; stroke: #1f77b4; stroke-opacity: 0.8"/>
     <use xlink:href="#md72ca56213" x="201.238498" y="187.981573" style="fill: #1f77b4; fill-opacity: 0.8; stroke: #1f77b4; stroke-opacity: 0.8"/>
     <use xlink:href="#md72ca56213" x="245.351887" y="161.733212" style="fill: #1f77b4; fill-opacity: 0.8; stroke: #1f77b4; stroke-opacity: 0.8"/>
     <use xlink:href="#md72ca56213" x="289.465277" y="139.234618" style="fill: #1f77b4; fill-opacity: 0.8; stroke: #1f77b4; stroke-opacity: 0.8"/>
     <use xlink:href="#md72ca56213" x="333.547224" y="115.486101" style="fill: #1f77b4; fill-opacity: 0.8; stroke: #1f77b4; stroke-opacity: 0.8"/>
     <use xlink:href="#md72ca56213" x="377.660613" y="91.737585" style="fill: #1f77b4; fill-opacity: 0.8; stroke: #1f77b4; stroke-opacity: 0.8"/>
     <use xlink:href="#md72ca56213" x="421.74256" y="70.488912" style="fill: #1f77b4; fill-opacity: 0.8; stroke: #1f77b4; stroke-opacity: 0.8"/>
     <use xlink:href="#md72ca56213" x="465.855949" y="45.490474" style="fill: #1f77b4; fill-opacity: 0.8; stroke: #1f77b4; stroke-opacity: 0.8"/>
     <use xlink:href="#md72ca56213" x="201.238498" y="200.480792" style="fill: #1f77b4; fill-opacity: 0.8; stroke: #1f77b4; stroke-opacity: 0.8"/>
     <use xlink:href="#md72ca56213" x="201.238498" y="231.72884" style="fill: #1f77b4; fill-opacity: 0.8; stroke: #1f77b4; stroke-opacity: 0.8"/>
     <use xlink:href="#md72ca56213" x="245.351887" y="171.732588" style="fill: #1f77b4; fill-opacity: 0.8; stroke: #1f77b4; stroke-opacity: 0.8"/>
     <use xlink:href="#md72ca56213" x="289.465277" y="166.7329" style="fill: #1f77b4; fill-opacity: 0.8; stroke: #1f77b4; stroke-opacity: 0.8"/>
     <use xlink:href="#md72ca56213" x="333.547224" y="160.48329" style="fill: #1f77b4; fill-opacity: 0.8; stroke: #1f77b4; stroke-opacity: 0.8"/>
     <use xlink:href="#md72ca56213" x="264.091431" y="107.98657" style="fill: #1f77b4; fill-opacity: 0.8; stroke: #1f77b4; stroke-opacity: 0.8"/>
     <use xlink:href="#md72ca56213" x="308.20482" y="82.988132" style="fill: #1f77b4; fill-opacity: 0.8; stroke: #1f77b4; stroke-opacity: 0.8"/>
     <use xlink:href="#md72ca56213" x="396.400157" y="60.489537" style="fill: #1f77b4; fill-opacity: 0.8; stroke: #1f77b4; stroke-opacity: 0.8"/>
    </g>
   </g>
   <g id="PolyCollection_1">
    <path d="M 68.929773 250.472219 
L 68.929773 286.096588 
L 72.939128 283.554755 
L 76.948483 280.964034 
L 80.957839 278.367911 
L 84.967194 275.769415 
L 88.976549 273.17245 
L 92.985905 270.578047 
L 96.99526 267.983645 
L 101.004615 265.40867 
L 105.013971 262.875809 
L 109.023326 260.31925 
L 113.032681 257.812008 
L 117.042037 255.334804 
L 121.051392 252.790165 
L 125.060747 250.358662 
L 129.070102 247.912796 
L 133.079458 245.323879 
L 137.088813 242.969919 
L 141.098168 240.500617 
L 145.107524 238.027262 
L 149.116879 235.55348 
L 153.126234 233.079697 
L 157.13559 230.605915 
L 161.144945 228.130227 
L 165.1543 225.514541 
L 169.163656 222.9563 
L 173.173011 220.525917 
L 177.182366 218.0934 
L 181.191722 215.462397 
L 185.201077 212.715124 
L 189.210432 210.26734 
L 193.219788 207.696494 
L 197.229143 205.287225 
L 201.238498 202.878745 
L 205.247853 200.474445 
L 209.257209 198.066668 
L 213.266564 195.66344 
L 217.275919 193.365447 
L 221.285275 190.873575 
L 225.29463 188.530219 
L 229.303985 186.052972 
L 233.313341 183.671566 
L 237.322696 181.428577 
L 241.332051 179.137922 
L 245.341407 176.764437 
L 249.350762 174.563234 
L 253.360117 172.281781 
L 257.369473 170.154843 
L 261.378828 167.705448 
L 265.388183 165.420932 
L 269.397539 163.137315 
L 273.406894 160.845903 
L 277.416249 158.25172 
L 281.425604 156.019253 
L 285.43496 153.839067 
L 289.444315 151.512654 
L 293.45367 149.41389 
L 297.463026 147.237799 
L 301.472381 145.125053 
L 305.481736 142.926644 
L 309.491092 140.691695 
L 313.500447 138.494221 
L 317.509802 136.269011 
L 321.519158 134.010715 
L 325.528513 131.989228 
L 329.537868 129.773831 
L 333.547224 127.65535 
L 337.556579 125.534611 
L 341.565934 123.418506 
L 345.57529 121.300065 
L 349.584645 119.181185 
L 353.594 116.94332 
L 357.603355 114.861675 
L 361.612711 112.779692 
L 365.622066 110.651451 
L 369.631421 108.515851 
L 373.640777 106.474341 
L 377.650132 104.357671 
L 381.659487 102.241209 
L 385.668843 100.123221 
L 389.678198 98.005021 
L 393.687553 95.885747 
L 397.696909 93.789508 
L 401.706264 91.742115 
L 405.715619 89.616372 
L 409.724975 87.490628 
L 413.73433 85.364884 
L 417.743685 83.239141 
L 421.753041 81.1126 
L 425.762396 78.985611 
L 429.771751 76.858622 
L 433.781106 74.731633 
L 437.790462 72.62223 
L 441.799817 70.537265 
L 445.809172 68.4523 
L 449.818528 66.367335 
L 453.827883 64.289982 
L 457.837238 62.23188 
L 461.846594 60.273517 
L 465.855949 58.315153 
L 465.855949 21.165455 
L 465.855949 21.165455 
L 461.846594 23.778208 
L 457.837238 26.411915 
L 453.827883 28.991742 
L 449.818528 31.403666 
L 445.809172 33.965022 
L 441.799817 36.707073 
L 437.790462 39.295511 
L 433.781106 41.857484 
L 429.771751 44.242527 
L 425.762396 46.627571 
L 421.753041 49.154105 
L 417.743685 51.730865 
L 413.73433 54.313142 
L 409.724975 56.888135 
L 405.715619 59.296538 
L 401.706264 61.88197 
L 397.696909 64.426797 
L 393.687553 66.869366 
L 389.678198 69.309687 
L 385.668843 71.746361 
L 381.659487 74.183036 
L 377.650132 76.61971 
L 373.640777 79.05908 
L 369.631421 81.511355 
L 365.622066 83.940315 
L 361.612711 86.269395 
L 357.603355 88.538854 
L 353.594 90.808771 
L 349.584645 93.24917 
L 345.57529 95.754581 
L 341.565934 98.099931 
L 337.556579 100.571448 
L 333.547224 103.004522 
L 329.537868 105.395406 
L 325.528513 107.786679 
L 321.519158 110.124914 
L 317.509802 112.484937 
L 313.500447 114.810201 
L 309.491092 117.136852 
L 305.481736 119.466419 
L 301.472381 121.941826 
L 297.463026 124.176843 
L 293.45367 126.609591 
L 289.444315 129.08161 
L 285.43496 131.550176 
L 281.425604 133.902668 
L 277.416249 136.364454 
L 273.406894 138.718675 
L 269.397539 141.084197 
L 265.388183 143.437421 
L 261.378828 145.809802 
L 257.369473 148.036905 
L 253.360117 150.344401 
L 249.350762 152.615336 
L 245.341407 155.270516 
L 241.332051 157.466402 
L 237.322696 159.865736 
L 233.313341 162.327606 
L 229.303985 164.439745 
L 225.29463 166.544192 
L 221.285275 168.843193 
L 217.275919 170.99414 
L 213.266564 173.256106 
L 209.257209 175.351953 
L 205.247853 177.645756 
L 201.238498 179.949972 
L 197.229143 182.269248 
L 193.219788 184.463198 
L 189.210432 186.615147 
L 185.201077 188.767095 
L 181.191722 190.919044 
L 177.182366 193.070993 
L 173.173011 195.063127 
L 169.163656 197.318333 
L 165.1543 199.413501 
L 161.144945 201.508972 
L 157.13559 203.699162 
L 153.126234 205.831053 
L 149.116879 207.814204 
L 145.107524 210.014422 
L 141.098168 212.1864 
L 137.088813 214.372766 
L 133.079458 216.559674 
L 129.070102 218.746582 
L 125.060747 220.900732 
L 121.051392 222.98042 
L 117.042037 225.119563 
L 113.032681 227.195667 
L 109.023326 229.313324 
L 105.013971 231.579018 
L 101.004615 233.844711 
L 96.99526 236.110317 
L 92.985905 238.261914 
L 88.976549 240.375174 
L 84.967194 242.394583 
L 80.957839 244.413992 
L 76.948483 246.433401 
L 72.939128 248.45281 
L 68.929773 250.472219 
z
" clip-path="url(#p18451acb6f)" style="fill: #1f77b4; fill-opacity: 0.15"/>
   </g>
   <g id="PathCollection_2">
    <defs>
     <path id="m11c9210480" d="M 0 -3 
L -3 3 
L 3 3 
z
" style="stroke: #ff7f0e; stroke-opacity: 0.8"/>
    </defs>
    <g clip-path="url(#p18451acb6f)">
     <use xlink:href="#m11c9210480" x="195.044387" y="290.47517" style="fill: #ff7f0e; fill-opacity: 0.8; stroke: #ff7f0e; stroke-opacity: 0.8"/>
     <use xlink:href="#m11c9210480" x="239.157776" y="249.227747" style="fill: #ff7f0e; fill-opacity: 0.8; stroke: #ff7f0e; stroke-opacity: 0.8"/>
     <use xlink:href="#m11c9210480" x="283.271166" y="212.980011" style="fill: #ff7f0e; fill-opacity: 0.8; stroke: #ff7f0e; stroke-opacity: 0.8"/>
     <use xlink:href="#m11c9210480" x="327.353113" y="177.982197" style="fill: #ff7f0e; fill-opacity: 0.8; stroke: #ff7f0e; stroke-opacity: 0.8"/>
     <use xlink:href="#m11c9210480" x="371.466502" y="146.734149" style="fill: #ff7f0e; fill-opacity: 0.8; stroke: #ff7f0e; stroke-opacity: 0.8"/>
     <use xlink:href="#m11c9210480" x="415.579891" y="117.985945" style="fill: #ff7f0e; fill-opacity: 0.8; stroke: #ff7f0e; stroke-opacity: 0.8"/>
     <use xlink:href="#m11c9210480" x="459.661838" y="90.487663" style="fill: #ff7f0e; fill-opacity: 0.8; stroke: #ff7f0e; stroke-opacity: 0.8"/>
     <use xlink:href="#m11c9210480" x="503.775227" y="65.489225" style="fill: #ff7f0e; fill-opacity: 0.8; stroke: #ff7f0e; stroke-opacity: 0.8"/>
     <use xlink:href="#m11c9210480" x="239.157776" y="256.727278" style="fill: #ff7f0e; fill-opacity: 0.8; stroke: #ff7f0e; stroke-opacity: 0.8"/>
     <use xlink:href="#m11c9210480" x="327.353113" y="189.231495" style="fill: #ff7f0e; fill-opacity: 0.8; stroke: #ff7f0e; stroke-opacity: 0.8"/>
     <use xlink:href="#m11c9210480" x="195.044387" y="300.474545" style="fill: #ff7f0e; fill-opacity: 0.8; stroke: #ff7f0e; stroke-opacity: 0.8"/>
     <use xlink:href="#m11c9210480" x="283.271166" y="235.478606" style="fill: #ff7f0e; fill-opacity: 0.8; stroke: #ff7f0e; stroke-opacity: 0.8"/>
    </g>
   </g>
   <g id="PolyCollection_2">
    <path d="M 195.044387 279.60968 
L 195.044387 296.271068 
L 198.162881 293.709474 
L 201.281374 291.164631 
L 204.399867 288.685451 
L 207.518361 286.13873 
L 210.636854 283.675329 
L 213.755347 281.081817 
L 216.873841 278.590888 
L 219.992334 276.123735 
L 223.110827 273.672964 
L 226.229321 271.298679 
L 229.347814 268.849406 
L 232.466307 266.395579 
L 235.584801 263.836121 
L 238.703294 261.406449 
L 241.821787 259.036991 
L 244.940281 256.675418 
L 248.058774 254.313845 
L 251.177267 251.843559 
L 254.295761 249.413577 
L 257.414254 247.039572 
L 260.532747 244.665145 
L 263.651241 242.27246 
L 266.769734 239.827369 
L 269.888227 237.409519 
L 273.006721 235.004037 
L 276.125214 232.549985 
L 279.243707 230.158364 
L 282.362201 227.736587 
L 285.480694 225.335189 
L 288.599187 222.969987 
L 291.717681 220.566534 
L 294.836174 218.210036 
L 297.954667 215.848091 
L 301.073161 213.496392 
L 304.191654 211.131 
L 307.310147 208.742674 
L 310.428641 206.354059 
L 313.547134 203.973444 
L 316.665627 201.590784 
L 319.784121 199.209508 
L 322.902614 196.828371 
L 326.021107 194.448186 
L 329.139601 192.067689 
L 332.258094 189.708622 
L 335.376587 187.30515 
L 338.495081 184.925172 
L 341.613574 182.544668 
L 344.732067 180.161508 
L 347.850561 177.827551 
L 350.969054 175.476355 
L 354.087547 173.11923 
L 357.206041 170.780125 
L 360.324534 168.440467 
L 363.443027 166.100208 
L 366.561521 163.757282 
L 369.680014 161.385499 
L 372.798507 159.018797 
L 375.917001 156.70612 
L 379.035494 154.372345 
L 382.153987 152.062922 
L 385.272481 149.723696 
L 388.390974 147.384767 
L 391.509467 145.045739 
L 394.627961 142.715381 
L 397.746454 140.379907 
L 400.864947 138.051562 
L 403.983441 135.734775 
L 407.101934 133.448496 
L 410.220427 131.122837 
L 413.338921 128.874483 
L 416.457414 126.543147 
L 419.575907 124.215455 
L 422.694401 121.873456 
L 425.812894 119.530652 
L 428.931387 117.198653 
L 432.049881 114.882565 
L 435.168374 112.57115 
L 438.286867 110.238232 
L 441.405361 107.919996 
L 444.523854 105.612521 
L 447.642347 103.311184 
L 450.760841 100.977723 
L 453.879334 98.661722 
L 456.997827 96.403289 
L 460.116321 94.171685 
L 463.234814 91.940202 
L 466.353307 89.666235 
L 469.471801 87.366541 
L 472.590294 85.112659 
L 475.708787 82.83763 
L 478.827281 80.489991 
L 481.945774 78.272684 
L 485.064267 76.022174 
L 488.182761 73.747325 
L 491.301254 71.408481 
L 494.419747 69.141993 
L 497.538241 66.839078 
L 500.656734 64.599313 
L 503.775227 62.376766 
L 503.775227 39.624398 
L 503.775227 39.624398 
L 500.656734 42.159761 
L 497.538241 44.695123 
L 494.419747 47.230485 
L 491.301254 49.765848 
L 488.182761 52.30121 
L 485.064267 54.837234 
L 481.945774 57.425927 
L 478.827281 60.036306 
L 475.708787 62.647779 
L 472.590294 65.259252 
L 469.471801 67.870725 
L 466.353307 70.482198 
L 463.234814 73.079169 
L 460.116321 75.646858 
L 456.997827 78.214547 
L 453.879334 80.782236 
L 450.760841 83.349925 
L 447.642347 85.917614 
L 444.523854 88.485303 
L 441.405361 91.052993 
L 438.286867 93.588852 
L 435.168374 96.146652 
L 432.049881 98.734467 
L 428.931387 101.322582 
L 425.812894 103.891584 
L 422.694401 106.481846 
L 419.575907 109.025143 
L 416.457414 111.591575 
L 413.338921 114.125284 
L 410.220427 116.70408 
L 407.101934 119.29087 
L 403.983441 121.854399 
L 400.864947 124.384654 
L 397.746454 126.908507 
L 394.627961 129.396242 
L 391.509467 131.883977 
L 388.390974 134.395453 
L 385.272481 136.931777 
L 382.153987 139.4681 
L 379.035494 141.974651 
L 375.917001 144.449561 
L 372.798507 146.924471 
L 369.680014 149.402114 
L 366.561521 151.876081 
L 363.443027 154.349202 
L 360.324534 156.824112 
L 357.206041 159.299604 
L 354.087547 161.806183 
L 350.969054 164.298967 
L 347.850561 166.859975 
L 344.732067 169.450306 
L 341.613574 171.871171 
L 338.495081 174.227107 
L 335.376587 176.6827 
L 332.258094 179.153213 
L 329.139601 181.593283 
L 326.021107 184.011925 
L 322.902614 186.395272 
L 319.784121 188.808516 
L 316.665627 191.215966 
L 313.547134 193.632189 
L 310.428641 195.953751 
L 307.310147 198.392307 
L 304.191654 200.714707 
L 301.073161 203.122759 
L 297.954667 205.351174 
L 294.836174 207.564957 
L 291.717681 209.894797 
L 288.599187 212.178781 
L 285.480694 214.436592 
L 282.362201 216.843762 
L 279.243707 219.199926 
L 276.125214 221.446169 
L 273.006721 223.66244 
L 269.888227 225.878713 
L 266.769734 228.09608 
L 263.651241 230.313447 
L 260.532747 232.530814 
L 257.414254 234.74818 
L 254.295761 236.983254 
L 251.177267 239.240608 
L 248.058774 241.570173 
L 244.940281 243.804155 
L 241.821787 246.026911 
L 238.703294 248.269371 
L 235.584801 250.525721 
L 232.466307 252.732771 
L 229.347814 254.921898 
L 226.229321 257.16355 
L 223.110827 259.429474 
L 219.992334 261.696013 
L 216.873841 263.962556 
L 213.755347 266.229098 
L 210.636854 268.477646 
L 207.518361 270.687837 
L 204.399867 272.898842 
L 201.281374 275.15396 
L 198.162881 277.400195 
L 195.044387 279.60968 
z
" clip-path="url(#p18451acb6f)" style="fill: #ff7f0e; fill-opacity: 0.15"/>
   </g>
   <g id="matplotlib.axis_1">
    <g id="xtick_1">
     <g id="line2d_1">
      <defs>
       <path id="m8bc556de23" d="M 0 0 
L 0 3.5 
" style="stroke: #000000; stroke-width: 0.8"/>
      </defs>
      <g>
       <use xlink:href="#m8bc556de23" x="93.957754" y="314.44" style="stroke: #000000; stroke-width: 0.8"/>
      </g>
     </g>
     <g id="text_1">
      <!-- 40 -->
      <g transform="translate(87.595254 329.038437) scale(0.1 -0.1)">
       <defs>
        <path id="DejaVuSans-34" d="M 2419 4116 
L 825 1625 
L 2419 1625 
L 2419 4116 
z
M 2253 4666 
L 3047 4666 
L 3047 1625 
L 3713 1625 
L 3713 1100 
L 3047 1100 
L 3047 0 
L 2419 0 
L 2419 1100 
L 313 1100 
L 313 1709 
L 2253 4666 
z
" transform="scale(0.015625)"/>
        <path id="DejaVuSans-30" d="M 2034 4250 
Q 1547 4250 1301 3770 
Q 1056 3291 1056 2328 
Q 1056 1369 1301 889 
Q 1547 409 2034 409 
Q 2525 409 2770 889 
Q 3016 1369 3016 2328 
Q 3016 3291 2770 3770 
Q 2525 4250 2034 4250 
z
M 2034 4750 
Q 2819 4750 3233 4129 
Q 3647 3509 3647 2328 
Q 3647 1150 3233 529 
Q 2819 -91 2034 -91 
Q 1250 -91 836 529 
Q 422 1150 422 2328 
Q 422 3509 836 4129 
Q 1250 4750 2034 4750 
z
" transform="scale(0.015625)"/>
       </defs>
       <use xlink:href="#DejaVuSans-34"/>
       <use xlink:href="#DejaVuSans-30" x="63.623047"/>
      </g>
     </g>
    </g>
    <g id="xtick_2">
     <g id="line2d_2">
      <g>
       <use xlink:href="#m8bc556de23" x="156.842129" y="314.44" style="stroke: #000000; stroke-width: 0.8"/>
      </g>
     </g>
     <g id="text_2">
      <!-- 60 -->
      <g transform="translate(150.479629 329.038437) scale(0.1 -0.1)">
       <defs>
        <path id="DejaVuSans-36" d="M 2113 2584 
Q 1688 2584 1439 2293 
Q 1191 2003 1191 1497 
Q 1191 994 1439 701 
Q 1688 409 2113 409 
Q 2538 409 2786 701 
Q 3034 994 3034 1497 
Q 3034 2003 2786 2293 
Q 2538 2584 2113 2584 
z
M 3366 4563 
L 3366 3988 
Q 3128 4100 2886 4159 
Q 2644 4219 2406 4219 
Q 1781 4219 1451 3797 
Q 1122 3375 1075 2522 
Q 1259 2794 1537 2939 
Q 1816 3084 2150 3084 
Q 2853 3084 3261 2657 
Q 3669 2231 3669 1497 
Q 3669 778 3244 343 
Q 2819 -91 2113 -91 
Q 1303 -91 875 529 
Q 447 1150 447 2328 
Q 447 3434 972 4092 
Q 1497 4750 2381 4750 
Q 2619 4750 2861 4703 
Q 3103 4656 3366 4563 
z
" transform="scale(0.015625)"/>
       </defs>
       <use xlink:href="#DejaVuSans-36"/>
       <use xlink:href="#DejaVuSans-30" x="63.623047"/>
      </g>
     </g>
    </g>
    <g id="xtick_3">
     <g id="line2d_3">
      <g>
       <use xlink:href="#m8bc556de23" x="219.726504" y="314.44" style="stroke: #000000; stroke-width: 0.8"/>
      </g>
     </g>
     <g id="text_3">
      <!-- 80 -->
      <g transform="translate(213.364004 329.038437) scale(0.1 -0.1)">
       <defs>
        <path id="DejaVuSans-38" d="M 2034 2216 
Q 1584 2216 1326 1975 
Q 1069 1734 1069 1313 
Q 1069 891 1326 650 
Q 1584 409 2034 409 
Q 2484 409 2743 651 
Q 3003 894 3003 1313 
Q 3003 1734 2745 1975 
Q 2488 2216 2034 2216 
z
M 1403 2484 
Q 997 2584 770 2862 
Q 544 3141 544 3541 
Q 544 4100 942 4425 
Q 1341 4750 2034 4750 
Q 2731 4750 3128 4425 
Q 3525 4100 3525 3541 
Q 3525 3141 3298 2862 
Q 3072 2584 2669 2484 
Q 3125 2378 3379 2068 
Q 3634 1759 3634 1313 
Q 3634 634 3220 271 
Q 2806 -91 2034 -91 
Q 1263 -91 848 271 
Q 434 634 434 1313 
Q 434 1759 690 2068 
Q 947 2378 1403 2484 
z
M 1172 3481 
Q 1172 3119 1398 2916 
Q 1625 2713 2034 2713 
Q 2441 2713 2670 2916 
Q 2900 3119 2900 3481 
Q 2900 3844 2670 4047 
Q 2441 4250 2034 4250 
Q 1625 4250 1398 4047 
Q 1172 3844 1172 3481 
z
" transform="scale(0.015625)"/>
       </defs>
       <use xlink:href="#DejaVuSans-38"/>
       <use xlink:href="#DejaVuSans-30" x="63.623047"/>
      </g>
     </g>
    </g>
    <g id="xtick_4">
     <g id="line2d_4">
      <g>
       <use xlink:href="#m8bc556de23" x="282.61088" y="314.44" style="stroke: #000000; stroke-width: 0.8"/>
      </g>
     </g>
     <g id="text_4">
      <!-- 100 -->
      <g transform="translate(273.06713 329.038437) scale(0.1 -0.1)">
       <defs>
        <path id="DejaVuSans-31" d="M 794 531 
L 1825 531 
L 1825 4091 
L 703 3866 
L 703 4441 
L 1819 4666 
L 2450 4666 
L 2450 531 
L 3481 531 
L 3481 0 
L 794 0 
L 794 531 
z
" transform="scale(0.015625)"/>
       </defs>
       <use xlink:href="#DejaVuSans-31"/>
       <use xlink:href="#DejaVuSans-30" x="63.623047"/>
       <use xlink:href="#DejaVuSans-30" x="127.246094"/>
      </g>
     </g>
    </g>
    <g id="xtick_5">
     <g id="line2d_5">
      <g>
       <use xlink:href="#m8bc556de23" x="345.495255" y="314.44" style="stroke: #000000; stroke-width: 0.8"/>
      </g>
     </g>
     <g id="text_5">
      <!-- 120 -->
      <g transform="translate(335.951505 329.038437) scale(0.1 -0.1)">
       <defs>
        <path id="DejaVuSans-32" d="M 1228 531 
L 3431 531 
L 3431 0 
L 469 0 
L 469 531 
Q 828 903 1448 1529 
Q 2069 2156 2228 2338 
Q 2531 2678 2651 2914 
Q 2772 3150 2772 3378 
Q 2772 3750 2511 3984 
Q 2250 4219 1831 4219 
Q 1534 4219 1204 4116 
Q 875 4013 500 3803 
L 500 4441 
Q 881 4594 1212 4672 
Q 1544 4750 1819 4750 
Q 2544 4750 2975 4387 
Q 3406 4025 3406 3419 
Q 3406 3131 3298 2873 
Q 3191 2616 2906 2266 
Q 2828 2175 2409 1742 
Q 1991 1309 1228 531 
z
" transform="scale(0.015625)"/>
       </defs>
       <use xlink:href="#DejaVuSans-31"/>
       <use xlink:href="#DejaVuSans-32" x="63.623047"/>
       <use xlink:href="#DejaVuSans-30" x="127.246094"/>
      </g>
     </g>
    </g>
    <g id="xtick_6">
     <g id="line2d_6">
      <g>
       <use xlink:href="#m8bc556de23" x="408.37963" y="314.44" style="stroke: #000000; stroke-width: 0.8"/>
      </g>
     </g>
     <g id="text_6">
      <!-- 140 -->
      <g transform="translate(398.83588 329.038437) scale(0.1 -0.1)">
       <use xlink:href="#DejaVuSans-31"/>
       <use xlink:href="#DejaVuSans-34" x="63.623047"/>
       <use xlink:href="#DejaVuSans-30" x="127.246094"/>
      </g>
     </g>
    </g>
    <g id="xtick_7">
     <g id="line2d_7">
      <g>
       <use xlink:href="#m8bc556de23" x="471.264005" y="314.44" style="stroke: #000000; stroke-width: 0.8"/>
      </g>
     </g>
     <g id="text_7">
      <!-- 160 -->
      <g transform="translate(461.720255 329.038437) scale(0.1 -0.1)">
       <use xlink:href="#DejaVuSans-31"/>
       <use xlink:href="#DejaVuSans-36" x="63.623047"/>
       <use xlink:href="#DejaVuSans-30" x="127.246094"/>
      </g>
     </g>
    </g>
    <g id="text_8">
     <!-- MW, g/mol -->
     <g transform="translate(259.739219 342.716562) scale(0.1 -0.1)">
      <defs>
       <path id="DejaVuSans-4d" d="M 628 4666 
L 1569 4666 
L 2759 1491 
L 3956 4666 
L 4897 4666 
L 4897 0 
L 4281 0 
L 4281 4097 
L 3078 897 
L 2444 897 
L 1241 4097 
L 1241 0 
L 628 0 
L 628 4666 
z
" transform="scale(0.015625)"/>
       <path id="DejaVuSans-57" d="M 213 4666 
L 850 4666 
L 1831 722 
L 2809 4666 
L 3519 4666 
L 4500 722 
L 5478 4666 
L 6119 4666 
L 4947 0 
L 4153 0 
L 3169 4050 
L 2175 0 
L 1381 0 
L 213 4666 
z
" transform="scale(0.015625)"/>
       <path id="DejaVuSans-2c" d="M 750 794 
L 1409 794 
L 1409 256 
L 897 -744 
L 494 -744 
L 750 256 
L 750 794 
z
" transform="scale(0.015625)"/>
       <path id="DejaVuSans-20" transform="scale(0.015625)"/>
       <path id="DejaVuSans-67" d="M 2906 1791 
Q 2906 2416 2648 2759 
Q 2391 3103 1925 3103 
Q 1463 3103 1205 2759 
Q 947 2416 947 1791 
Q 947 1169 1205 825 
Q 1463 481 1925 481 
Q 2391 481 2648 825 
Q 2906 1169 2906 1791 
z
M 3481 434 
Q 3481 -459 3084 -895 
Q 2688 -1331 1869 -1331 
Q 1566 -1331 1297 -1286 
Q 1028 -1241 775 -1147 
L 775 -588 
Q 1028 -725 1275 -790 
Q 1522 -856 1778 -856 
Q 2344 -856 2625 -561 
Q 2906 -266 2906 331 
L 2906 616 
Q 2728 306 2450 153 
Q 2172 0 1784 0 
Q 1141 0 747 490 
Q 353 981 353 1791 
Q 353 2603 747 3093 
Q 1141 3584 1784 3584 
Q 2172 3584 2450 3431 
Q 2728 3278 2906 2969 
L 2906 3500 
L 3481 3500 
L 3481 434 
z
" transform="scale(0.015625)"/>
       <path id="DejaVuSans-2f" d="M 1625 4666 
L 2156 4666 
L 531 -594 
L 0 -594 
L 1625 4666 
z
" transform="scale(0.015625)"/>
       <path id="DejaVuSans-6d" d="M 3328 2828 
Q 3544 3216 3844 3400 
Q 4144 3584 4550 3584 
Q 5097 3584 5394 3201 
Q 5691 2819 5691 2113 
L 5691 0 
L 5113 0 
L 5113 2094 
Q 5113 2597 4934 2840 
Q 4756 3084 4391 3084 
Q 3944 3084 3684 2787 
Q 3425 2491 3425 1978 
L 3425 0 
L 2847 0 
L 2847 2094 
Q 2847 2600 2669 2842 
Q 2491 3084 2119 3084 
Q 1678 3084 1418 2786 
Q 1159 2488 1159 1978 
L 1159 0 
L 581 0 
L 581 3500 
L 1159 3500 
L 1159 2956 
Q 1356 3278 1631 3431 
Q 1906 3584 2284 3584 
Q 2666 3584 2933 3390 
Q 3200 3197 3328 2828 
z
" transform="scale(0.015625)"/>
       <path id="DejaVuSans-6f" d="M 1959 3097 
Q 1497 3097 1228 2736 
Q 959 2375 959 1747 
Q 959 1119 1226 758 
Q 1494 397 1959 397 
Q 2419 397 2687 759 
Q 2956 1122 2956 1747 
Q 2956 2369 2687 2733 
Q 2419 3097 1959 3097 
z
M 1959 3584 
Q 2709 3584 3137 3096 
Q 3566 2609 3566 1747 
Q 3566 888 3137 398 
Q 2709 -91 1959 -91 
Q 1206 -91 779 398 
Q 353 888 353 1747 
Q 353 2609 779 3096 
Q 1206 3584 1959 3584 
z
" transform="scale(0.015625)"/>
       <path id="DejaVuSans-6c" d="M 603 4863 
L 1178 4863 
L 1178 0 
L 603 0 
L 603 4863 
z
" transform="scale(0.015625)"/>
      </defs>
      <use xlink:href="#DejaVuSans-4d"/>
      <use xlink:href="#DejaVuSans-57" x="86.279297"/>
      <use xlink:href="#DejaVuSans-2c" x="185.15625"/>
      <use xlink:href="#DejaVuSans-20" x="216.943359"/>
      <use xlink:href="#DejaVuSans-67" x="248.730469"/>
      <use xlink:href="#DejaVuSans-2f" x="312.207031"/>
      <use xlink:href="#DejaVuSans-6d" x="345.898438"/>
      <use xlink:href="#DejaVuSans-6f" x="443.310547"/>
      <use xlink:href="#DejaVuSans-6c" x="504.492188"/>
     </g>
    </g>
   </g>
   <g id="matplotlib.axis_2">
    <g id="ytick_1">
     <g id="line2d_8">
      <defs>
       <path id="mb01774af26" d="M 0 0 
L -3.5 0 
" style="stroke: #000000; stroke-width: 0.8"/>
      </defs>
      <g>
       <use xlink:href="#mb01774af26" x="47.1875" y="272.976263" style="stroke: #000000; stroke-width: 0.8"/>
      </g>
     </g>
     <g id="text_9">
      <!-- 50 -->
      <g transform="translate(27.4625 276.775482) scale(0.1 -0.1)">
       <defs>
        <path id="DejaVuSans-35" d="M 691 4666 
L 3169 4666 
L 3169 4134 
L 1269 4134 
L 1269 2991 
Q 1406 3038 1543 3061 
Q 1681 3084 1819 3084 
Q 2600 3084 3056 2656 
Q 3513 2228 3513 1497 
Q 3513 744 3044 326 
Q 2575 -91 1722 -91 
Q 1428 -91 1123 -41 
Q 819 9 494 109 
L 494 744 
Q 775 591 1075 516 
Q 1375 441 1709 441 
Q 2250 441 2565 725 
Q 2881 1009 2881 1497 
Q 2881 1984 2565 2268 
Q 2250 2553 1709 2553 
Q 1456 2553 1204 2497 
Q 953 2441 691 2322 
L 691 4666 
z
" transform="scale(0.015625)"/>
       </defs>
       <use xlink:href="#DejaVuSans-35"/>
       <use xlink:href="#DejaVuSans-30" x="63.623047"/>
      </g>
     </g>
    </g>
    <g id="ytick_2">
     <g id="line2d_9">
      <g>
       <use xlink:href="#mb01774af26" x="47.1875" y="210.480167" style="stroke: #000000; stroke-width: 0.8"/>
      </g>
     </g>
     <g id="text_10">
      <!-- 100 -->
      <g transform="translate(21.1 214.279386) scale(0.1 -0.1)">
       <use xlink:href="#DejaVuSans-31"/>
       <use xlink:href="#DejaVuSans-30" x="63.623047"/>
       <use xlink:href="#DejaVuSans-30" x="127.246094"/>
      </g>
     </g>
    </g>
    <g id="ytick_3">
     <g id="line2d_10">
      <g>
       <use xlink:href="#mb01774af26" x="47.1875" y="147.984071" style="stroke: #000000; stroke-width: 0.8"/>
      </g>
     </g>
     <g id="text_11">
      <!-- 150 -->
      <g transform="translate(21.1 151.78329) scale(0.1 -0.1)">
       <use xlink:href="#DejaVuSans-31"/>
       <use xlink:href="#DejaVuSans-35" x="63.623047"/>
       <use xlink:href="#DejaVuSans-30" x="127.246094"/>
      </g>
     </g>
    </g>
    <g id="ytick_4">
     <g id="line2d_11">
      <g>
       <use xlink:href="#mb01774af26" x="47.1875" y="85.487975" style="stroke: #000000; stroke-width: 0.8"/>
      </g>
     </g>
     <g id="text_12">
      <!-- 200 -->
      <g transform="translate(21.1 89.287194) scale(0.1 -0.1)">
       <use xlink:href="#DejaVuSans-32"/>
       <use xlink:href="#DejaVuSans-30" x="63.623047"/>
       <use xlink:href="#DejaVuSans-30" x="127.246094"/>
      </g>
     </g>
    </g>
    <g id="ytick_5">
     <g id="line2d_12">
      <g>
       <use xlink:href="#mb01774af26" x="47.1875" y="22.991879" style="stroke: #000000; stroke-width: 0.8"/>
      </g>
     </g>
     <g id="text_13">
      <!-- 250 -->
      <g transform="translate(21.1 26.791098) scale(0.1 -0.1)">
       <use xlink:href="#DejaVuSans-32"/>
       <use xlink:href="#DejaVuSans-35" x="63.623047"/>
       <use xlink:href="#DejaVuSans-30" x="127.246094"/>
      </g>
     </g>
    </g>
    <g id="text_14">
     <!-- bp, $^o$C -->
     <g transform="translate(15 176.17) rotate(-90) scale(0.1 -0.1)">
      <defs>
       <path id="DejaVuSans-62" d="M 3116 1747 
Q 3116 2381 2855 2742 
Q 2594 3103 2138 3103 
Q 1681 3103 1420 2742 
Q 1159 2381 1159 1747 
Q 1159 1113 1420 752 
Q 1681 391 2138 391 
Q 2594 391 2855 752 
Q 3116 1113 3116 1747 
z
M 1159 2969 
Q 1341 3281 1617 3432 
Q 1894 3584 2278 3584 
Q 2916 3584 3314 3078 
Q 3713 2572 3713 1747 
Q 3713 922 3314 415 
Q 2916 -91 2278 -91 
Q 1894 -91 1617 61 
Q 1341 213 1159 525 
L 1159 0 
L 581 0 
L 581 4863 
L 1159 4863 
L 1159 2969 
z
" transform="scale(0.015625)"/>
       <path id="DejaVuSans-70" d="M 1159 525 
L 1159 -1331 
L 581 -1331 
L 581 3500 
L 1159 3500 
L 1159 2969 
Q 1341 3281 1617 3432 
Q 1894 3584 2278 3584 
Q 2916 3584 3314 3078 
Q 3713 2572 3713 1747 
Q 3713 922 3314 415 
Q 2916 -91 2278 -91 
Q 1894 -91 1617 61 
Q 1341 213 1159 525 
z
M 3116 1747 
Q 3116 2381 2855 2742 
Q 2594 3103 2138 3103 
Q 1681 3103 1420 2742 
Q 1159 2381 1159 1747 
Q 1159 1113 1420 752 
Q 1681 391 2138 391 
Q 2594 391 2855 752 
Q 3116 1113 3116 1747 
z
" transform="scale(0.015625)"/>
       <path id="DejaVuSans-Oblique-6f" d="M 1625 -91 
Q 1009 -91 651 289 
Q 294 669 294 1325 
Q 294 1706 417 2101 
Q 541 2497 738 2766 
Q 1047 3184 1428 3384 
Q 1809 3584 2291 3584 
Q 2888 3584 3255 3212 
Q 3622 2841 3622 2241 
Q 3622 1825 3500 1412 
Q 3378 1000 3181 728 
Q 2875 309 2494 109 
Q 2113 -91 1625 -91 
z
M 891 1344 
Q 891 869 1089 633 
Q 1288 397 1691 397 
Q 2269 397 2648 901 
Q 3028 1406 3028 2181 
Q 3028 2634 2825 2865 
Q 2622 3097 2228 3097 
Q 1903 3097 1650 2945 
Q 1397 2794 1197 2484 
Q 1050 2253 970 1956 
Q 891 1659 891 1344 
z
" transform="scale(0.015625)"/>
       <path id="DejaVuSans-43" d="M 4122 4306 
L 4122 3641 
Q 3803 3938 3442 4084 
Q 3081 4231 2675 4231 
Q 1875 4231 1450 3742 
Q 1025 3253 1025 2328 
Q 1025 1406 1450 917 
Q 1875 428 2675 428 
Q 3081 428 3442 575 
Q 3803 722 4122 1019 
L 4122 359 
Q 3791 134 3420 21 
Q 3050 -91 2638 -91 
Q 1578 -91 968 557 
Q 359 1206 359 2328 
Q 359 3453 968 4101 
Q 1578 4750 2638 4750 
Q 3056 4750 3426 4639 
Q 3797 4528 4122 4306 
z
" transform="scale(0.015625)"/>
      </defs>
      <use xlink:href="#DejaVuSans-62" transform="translate(0 0.51875)"/>
      <use xlink:href="#DejaVuSans-70" transform="translate(63.476562 0.51875)"/>
      <use xlink:href="#DejaVuSans-2c" transform="translate(126.953125 0.51875)"/>
      <use xlink:href="#DejaVuSans-20" transform="translate(158.740234 0.51875)"/>
      <use xlink:href="#DejaVuSans-Oblique-6f" transform="translate(191.484375 38.8) scale(0.7)"/>
      <use xlink:href="#DejaVuSans-43" transform="translate(237.045898 0.51875)"/>
     </g>
    </g>
   </g>
   <g id="line2d_13">
    <path d="M 68.929773 264.839824 
L 72.939128 262.583242 
L 76.948483 260.326659 
L 80.957839 258.070076 
L 84.967194 255.813493 
L 88.976549 253.556911 
L 92.985905 251.300328 
L 96.99526 249.043745 
L 101.004615 246.787162 
L 105.013971 244.53058 
L 109.023326 242.273997 
L 113.032681 240.017414 
L 117.042037 237.760831 
L 121.051392 235.504249 
L 125.060747 233.247666 
L 129.070102 230.991083 
L 133.079458 228.7345 
L 137.088813 226.477918 
L 141.098168 224.221335 
L 145.107524 221.964752 
L 149.116879 219.708169 
L 153.126234 217.451587 
L 157.13559 215.195004 
L 161.144945 212.938421 
L 165.1543 210.681838 
L 169.163656 208.425256 
L 173.173011 206.168673 
L 177.182366 203.91209 
L 181.191722 201.655507 
L 185.201077 199.398925 
L 189.210432 197.142342 
L 193.219788 194.885759 
L 197.229143 192.629176 
L 201.238498 190.372594 
L 205.247853 188.116011 
L 209.257209 185.859428 
L 213.266564 183.602845 
L 217.275919 181.346263 
L 221.285275 179.08968 
L 225.29463 176.833097 
L 229.303985 174.576514 
L 233.313341 172.319932 
L 237.322696 170.063349 
L 241.332051 167.806766 
L 245.341407 165.550183 
L 249.350762 163.293601 
L 253.360117 161.037018 
L 257.369473 158.780435 
L 261.378828 156.523852 
L 265.388183 154.26727 
L 269.397539 152.010687 
L 273.406894 149.754104 
L 277.416249 147.497521 
L 281.425604 145.240939 
L 285.43496 142.984356 
L 289.444315 140.727773 
L 293.45367 138.47119 
L 297.463026 136.214608 
L 301.472381 133.958025 
L 305.481736 131.701442 
L 309.491092 129.444859 
L 313.500447 127.188277 
L 317.509802 124.931694 
L 321.519158 122.675111 
L 325.528513 120.418528 
L 329.537868 118.161946 
L 333.547224 115.905363 
L 337.556579 113.64878 
L 341.565934 111.392197 
L 345.57529 109.135615 
L 349.584645 106.879032 
L 353.594 104.622449 
L 357.603355 102.365866 
L 361.612711 100.109284 
L 365.622066 97.852701 
L 369.631421 95.596118 
L 373.640777 93.339535 
L 377.650132 91.082953 
L 381.659487 88.82637 
L 385.668843 86.569787 
L 389.678198 84.313204 
L 393.687553 82.056622 
L 397.696909 79.800039 
L 401.706264 77.543456 
L 405.715619 75.286873 
L 409.724975 73.030291 
L 413.73433 70.773708 
L 417.743685 68.517125 
L 421.753041 66.260542 
L 425.762396 64.00396 
L 429.771751 61.747377 
L 433.781106 59.490794 
L 437.790462 57.234211 
L 441.799817 54.977629 
L 445.809172 52.721046 
L 449.818528 50.464463 
L 453.827883 48.20788 
L 457.837238 45.951298 
L 461.846594 43.694715 
L 465.855949 41.438132 
" clip-path="url(#p18451acb6f)" style="fill: none; stroke: #1f77b4; stroke-width: 2.25; stroke-linecap: square"/>
   </g>
   <g id="line2d_14">
    <path d="M 195.044387 289.183914 
L 198.162881 286.819611 
L 201.281374 284.455308 
L 204.399867 282.091005 
L 207.518361 279.726702 
L 210.636854 277.362398 
L 213.755347 274.998095 
L 216.873841 272.633792 
L 219.992334 270.269489 
L 223.110827 267.905186 
L 226.229321 265.540882 
L 229.347814 263.176579 
L 232.466307 260.812276 
L 235.584801 258.447973 
L 238.703294 256.08367 
L 241.821787 253.719367 
L 244.940281 251.355063 
L 248.058774 248.99076 
L 251.177267 246.626457 
L 254.295761 244.262154 
L 257.414254 241.897851 
L 260.532747 239.533547 
L 263.651241 237.169244 
L 266.769734 234.804941 
L 269.888227 232.440638 
L 273.006721 230.076335 
L 276.125214 227.712031 
L 279.243707 225.347728 
L 282.362201 222.983425 
L 285.480694 220.619122 
L 288.599187 218.254819 
L 291.717681 215.890516 
L 294.836174 213.526212 
L 297.954667 211.161909 
L 301.073161 208.797606 
L 304.191654 206.433303 
L 307.310147 204.069 
L 310.428641 201.704696 
L 313.547134 199.340393 
L 316.665627 196.97609 
L 319.784121 194.611787 
L 322.902614 192.247484 
L 326.021107 189.883181 
L 329.139601 187.518877 
L 332.258094 185.154574 
L 335.376587 182.790271 
L 338.495081 180.425968 
L 341.613574 178.061665 
L 344.732067 175.697361 
L 347.850561 173.333058 
L 350.969054 170.968755 
L 354.087547 168.604452 
L 357.206041 166.240149 
L 360.324534 163.875845 
L 363.443027 161.511542 
L 366.561521 159.147239 
L 369.680014 156.782936 
L 372.798507 154.418633 
L 375.917001 152.05433 
L 379.035494 149.690026 
L 382.153987 147.325723 
L 385.272481 144.96142 
L 388.390974 142.597117 
L 391.509467 140.232814 
L 394.627961 137.86851 
L 397.746454 135.504207 
L 400.864947 133.139904 
L 403.983441 130.775601 
L 407.101934 128.411298 
L 410.220427 126.046995 
L 413.338921 123.682691 
L 416.457414 121.318388 
L 419.575907 118.954085 
L 422.694401 116.589782 
L 425.812894 114.225479 
L 428.931387 111.861175 
L 432.049881 109.496872 
L 435.168374 107.132569 
L 438.286867 104.768266 
L 441.405361 102.403963 
L 444.523854 100.039659 
L 447.642347 97.675356 
L 450.760841 95.311053 
L 453.879334 92.94675 
L 456.997827 90.582447 
L 460.116321 88.218144 
L 463.234814 85.85384 
L 466.353307 83.489537 
L 469.471801 81.125234 
L 472.590294 78.760931 
L 475.708787 76.396628 
L 478.827281 74.032324 
L 481.945774 71.668021 
L 485.064267 69.303718 
L 488.182761 66.939415 
L 491.301254 64.575112 
L 494.419747 62.210809 
L 497.538241 59.846505 
L 500.656734 57.482202 
L 503.775227 55.117899 
" clip-path="url(#p18451acb6f)" style="fill: none; stroke: #ff7f0e; stroke-width: 2.25; stroke-linecap: square"/>
   </g>
   <g id="patch_3">
    <path d="M 47.1875 314.44 
L 47.1875 7.2 
" style="fill: none; stroke: #000000; stroke-width: 0.8; stroke-linejoin: miter; stroke-linecap: square"/>
   </g>
   <g id="patch_4">
    <path d="M 47.1875 314.44 
L 525.5175 314.44 
" style="fill: none; stroke: #000000; stroke-width: 0.8; stroke-linejoin: miter; stroke-linecap: square"/>
   </g>
   <g id="legend_1">
    <g id="patch_5">
     <path d="M 54.1875 59.234375 
L 121.945312 59.234375 
Q 123.945312 59.234375 123.945312 57.234375 
L 123.945312 14.2 
Q 123.945312 12.2 121.945312 12.2 
L 54.1875 12.2 
Q 52.1875 12.2 52.1875 14.2 
L 52.1875 57.234375 
Q 52.1875 59.234375 54.1875 59.234375 
z
" style="fill: #ffffff; opacity: 0.8; stroke: #cccccc; stroke-linejoin: miter"/>
    </g>
    <g id="text_15">
     <!-- type -->
     <g transform="translate(76.896094 23.798438) scale(0.1 -0.1)">
      <defs>
       <path id="DejaVuSans-74" d="M 1172 4494 
L 1172 3500 
L 2356 3500 
L 2356 3053 
L 1172 3053 
L 1172 1153 
Q 1172 725 1289 603 
Q 1406 481 1766 481 
L 2356 481 
L 2356 0 
L 1766 0 
Q 1100 0 847 248 
Q 594 497 594 1153 
L 594 3053 
L 172 3053 
L 172 3500 
L 594 3500 
L 594 4494 
L 1172 4494 
z
" transform="scale(0.015625)"/>
       <path id="DejaVuSans-79" d="M 2059 -325 
Q 1816 -950 1584 -1140 
Q 1353 -1331 966 -1331 
L 506 -1331 
L 506 -850 
L 844 -850 
Q 1081 -850 1212 -737 
Q 1344 -625 1503 -206 
L 1606 56 
L 191 3500 
L 800 3500 
L 1894 763 
L 2988 3500 
L 3597 3500 
L 2059 -325 
z
" transform="scale(0.015625)"/>
       <path id="DejaVuSans-65" d="M 3597 1894 
L 3597 1613 
L 953 1613 
Q 991 1019 1311 708 
Q 1631 397 2203 397 
Q 2534 397 2845 478 
Q 3156 559 3463 722 
L 3463 178 
Q 3153 47 2828 -22 
Q 2503 -91 2169 -91 
Q 1331 -91 842 396 
Q 353 884 353 1716 
Q 353 2575 817 3079 
Q 1281 3584 2069 3584 
Q 2775 3584 3186 3129 
Q 3597 2675 3597 1894 
z
M 3022 2063 
Q 3016 2534 2758 2815 
Q 2500 3097 2075 3097 
Q 1594 3097 1305 2825 
Q 1016 2553 972 2059 
L 3022 2063 
z
" transform="scale(0.015625)"/>
      </defs>
      <use xlink:href="#DejaVuSans-74"/>
      <use xlink:href="#DejaVuSans-79" x="39.208984"/>
      <use xlink:href="#DejaVuSans-70" x="98.388672"/>
      <use xlink:href="#DejaVuSans-65" x="161.865234"/>
     </g>
    </g>
    <g id="PathCollection_3">
     <g>
      <use xlink:href="#md72ca56213" x="66.1875" y="35.851563" style="fill: #1f77b4; fill-opacity: 0.8; stroke: #1f77b4; stroke-opacity: 0.8"/>
     </g>
    </g>
    <g id="text_16">
     <!-- alcohol -->
     <g transform="translate(84.1875 38.476563) scale(0.1 -0.1)">
      <defs>
       <path id="DejaVuSans-61" d="M 2194 1759 
Q 1497 1759 1228 1600 
Q 959 1441 959 1056 
Q 959 750 1161 570 
Q 1363 391 1709 391 
Q 2188 391 2477 730 
Q 2766 1069 2766 1631 
L 2766 1759 
L 2194 1759 
z
M 3341 1997 
L 3341 0 
L 2766 0 
L 2766 531 
Q 2569 213 2275 61 
Q 1981 -91 1556 -91 
Q 1019 -91 701 211 
Q 384 513 384 1019 
Q 384 1609 779 1909 
Q 1175 2209 1959 2209 
L 2766 2209 
L 2766 2266 
Q 2766 2663 2505 2880 
Q 2244 3097 1772 3097 
Q 1472 3097 1187 3025 
Q 903 2953 641 2809 
L 641 3341 
Q 956 3463 1253 3523 
Q 1550 3584 1831 3584 
Q 2591 3584 2966 3190 
Q 3341 2797 3341 1997 
z
" transform="scale(0.015625)"/>
       <path id="DejaVuSans-63" d="M 3122 3366 
L 3122 2828 
Q 2878 2963 2633 3030 
Q 2388 3097 2138 3097 
Q 1578 3097 1268 2742 
Q 959 2388 959 1747 
Q 959 1106 1268 751 
Q 1578 397 2138 397 
Q 2388 397 2633 464 
Q 2878 531 3122 666 
L 3122 134 
Q 2881 22 2623 -34 
Q 2366 -91 2075 -91 
Q 1284 -91 818 406 
Q 353 903 353 1747 
Q 353 2603 823 3093 
Q 1294 3584 2113 3584 
Q 2378 3584 2631 3529 
Q 2884 3475 3122 3366 
z
" transform="scale(0.015625)"/>
       <path id="DejaVuSans-68" d="M 3513 2113 
L 3513 0 
L 2938 0 
L 2938 2094 
Q 2938 2591 2744 2837 
Q 2550 3084 2163 3084 
Q 1697 3084 1428 2787 
Q 1159 2491 1159 1978 
L 1159 0 
L 581 0 
L 581 4863 
L 1159 4863 
L 1159 2956 
Q 1366 3272 1645 3428 
Q 1925 3584 2291 3584 
Q 2894 3584 3203 3211 
Q 3513 2838 3513 2113 
z
" transform="scale(0.015625)"/>
      </defs>
      <use xlink:href="#DejaVuSans-61"/>
      <use xlink:href="#DejaVuSans-6c" x="61.279297"/>
      <use xlink:href="#DejaVuSans-63" x="89.0625"/>
      <use xlink:href="#DejaVuSans-6f" x="144.042969"/>
      <use xlink:href="#DejaVuSans-68" x="205.224609"/>
      <use xlink:href="#DejaVuSans-6f" x="268.603516"/>
      <use xlink:href="#DejaVuSans-6c" x="329.785156"/>
     </g>
    </g>
    <g id="PathCollection_4">
     <g>
      <use xlink:href="#m11c9210480" x="66.1875" y="50.529688" style="fill: #ff7f0e; fill-opacity: 0.8; stroke: #ff7f0e; stroke-opacity: 0.8"/>
     </g>
    </g>
    <g id="text_17">
     <!-- alkane -->
     <g transform="translate(84.1875 53.154688) scale(0.1 -0.1)">
      <defs>
       <path id="DejaVuSans-6b" d="M 581 4863 
L 1159 4863 
L 1159 1991 
L 2875 3500 
L 3609 3500 
L 1753 1863 
L 3688 0 
L 2938 0 
L 1159 1709 
L 1159 0 
L 581 0 
L 581 4863 
z
" transform="scale(0.015625)"/>
       <path id="DejaVuSans-6e" d="M 3513 2113 
L 3513 0 
L 2938 0 
L 2938 2094 
Q 2938 2591 2744 2837 
Q 2550 3084 2163 3084 
Q 1697 3084 1428 2787 
Q 1159 2491 1159 1978 
L 1159 0 
L 581 0 
L 581 3500 
L 1159 3500 
L 1159 2956 
Q 1366 3272 1645 3428 
Q 1925 3584 2291 3584 
Q 2894 3584 3203 3211 
Q 3513 2838 3513 2113 
z
" transform="scale(0.015625)"/>
      </defs>
      <use xlink:href="#DejaVuSans-61"/>
      <use xlink:href="#DejaVuSans-6c" x="61.279297"/>
      <use xlink:href="#DejaVuSans-6b" x="89.0625"/>
      <use xlink:href="#DejaVuSans-61" x="145.222656"/>
      <use xlink:href="#DejaVuSans-6e" x="206.501953"/>
      <use xlink:href="#DejaVuSans-65" x="269.880859"/>
     </g>
    </g>
   </g>
  </g>
 </g>
 <defs>
  <clipPath id="p18451acb6f">
   <rect x="47.1875" y="7.2" width="478.33" height="307.24"/>
  </clipPath>
 </defs>
</svg>