<?xml version="1.0" encoding="utf-8" standalone="no"?>
<!DOCTYPE svg PUBLIC "-//W3C//DTD SVG 1.1//EN"
  "http://www.w3.org/Graphics/SVG/1.1/DTD/svg11.dtd">
<svg xmlns:xlink="http://www.w3.org/1999/xlink" width="411.285625pt" height="310.86825pt" viewBox="0 0 411.285625 310.86825" xmlns="http://www.w3.org/2000/svg" version="1.1">
 <metadata>
  <rdf:RDF xmlns:dc="http://purl.org/dc/elements/1.1/" xmlns:cc="http://creativecommons.org/ns#" xmlns:rdf="http://www.w3.org/1999/02/22-rdf-syntax-ns#">
   <cc:Work>
    <dc:type rdf:resource="http://purl.org/dc/dcmitype/StillImage"/>
    <dc:date>2024-07-21T12:08:52.154763</dc:date>
    <dc:format>image/svg+xml</dc:format>
    <dc:creator>
     <cc:Agent>
      <dc:title>Matplotlib v3.9.0, https://matplotlib.org/</dc:title>
     </cc:Agent>
    </dc:creator>
   </cc:Work>
  </rdf:RDF>
 </metadata>
 <defs>
  <style type="text/css">*{stroke-linejoin: round; stroke-linecap: butt}</style>
 </defs>
 <g id="figure_1">
  <g id="patch_1">
   <path d="M 0 310.86825 
L 411.285625 310.86825 
L 411.285625 0 
L 0 0 
z
" style="fill: #ffffff"/>
  </g>
  <g id="axes_1">
   <g id="patch_2">
    <path d="M 46.965625 273.312 
L 404.085625 273.312 
L 404.085625 7.2 
L 46.965625 7.2 
z
" style="fill: #ffffff"/>
   </g>
   <g id="PathCollection_1">
    <defs>
     <path id="md1611d7131" d="M 0 3 
C 0.795609 3 1.55874 2.683901 2.12132 2.12132 
C 2.683901 1.55874 3 0.795609 3 0 
C 3 -0.795609 2.683901 -1.55874 2.12132 -2.12132 
C 1.55874 -2.683901 0.795609 -3 0 -3 
C -0.795609 -3 -1.55874 -2.683901 -2.12132 -2.12132 
C -2.683901 -1.55874 -3 -0.795609 -3 0 
C -3 0.795609 -2.683901 1.55874 -2.12132 2.12132 
C -1.55874 2.683901 -0.795609 3 0 3 
z
" style="stroke: #1f77b4; stroke-opacity: 0.8"/>
    </defs>
    <g clip-path="url(#p6c9b8f5df0)">
     <use xlink:href="#md1611d7131" x="63.198352" y="199.393044" style="fill: #1f77b4; fill-opacity: 0.8; stroke: #1f77b4; stroke-opacity: 0.8"/>
     <use xlink:href="#md1611d7131" x="96.1333" y="186.899619" style="fill: #1f77b4; fill-opacity: 0.8; stroke: #1f77b4; stroke-opacity: 0.8"/>
     <use xlink:href="#md1611d7131" x="129.068248" y="167.678967" style="fill: #1f77b4; fill-opacity: 0.8; stroke: #1f77b4; stroke-opacity: 0.8"/>
     <use xlink:href="#md1611d7131" x="161.979721" y="148.458314" style="fill: #1f77b4; fill-opacity: 0.8; stroke: #1f77b4; stroke-opacity: 0.8"/>
     <use xlink:href="#md1611d7131" x="194.914669" y="128.276629" style="fill: #1f77b4; fill-opacity: 0.8; stroke: #1f77b4; stroke-opacity: 0.8"/>
     <use xlink:href="#md1611d7131" x="227.849616" y="110.978042" style="fill: #1f77b4; fill-opacity: 0.8; stroke: #1f77b4; stroke-opacity: 0.8"/>
     <use xlink:href="#md1611d7131" x="260.761089" y="92.718422" style="fill: #1f77b4; fill-opacity: 0.8; stroke: #1f77b4; stroke-opacity: 0.8"/>
     <use xlink:href="#md1611d7131" x="293.696037" y="74.458802" style="fill: #1f77b4; fill-opacity: 0.8; stroke: #1f77b4; stroke-opacity: 0.8"/>
     <use xlink:href="#md1611d7131" x="326.60751" y="58.121248" style="fill: #1f77b4; fill-opacity: 0.8; stroke: #1f77b4; stroke-opacity: 0.8"/>
     <use xlink:href="#md1611d7131" x="359.542458" y="38.900595" style="fill: #1f77b4; fill-opacity: 0.8; stroke: #1f77b4; stroke-opacity: 0.8"/>
     <use xlink:href="#md1611d7131" x="157.355213" y="227.26299" style="fill: #1f77b4; fill-opacity: 0.8; stroke: #1f77b4; stroke-opacity: 0.8"/>
     <use xlink:href="#md1611d7131" x="190.290161" y="195.548913" style="fill: #1f77b4; fill-opacity: 0.8; stroke: #1f77b4; stroke-opacity: 0.8"/>
     <use xlink:href="#md1611d7131" x="223.225108" y="167.678967" style="fill: #1f77b4; fill-opacity: 0.8; stroke: #1f77b4; stroke-opacity: 0.8"/>
     <use xlink:href="#md1611d7131" x="256.136581" y="140.770053" style="fill: #1f77b4; fill-opacity: 0.8; stroke: #1f77b4; stroke-opacity: 0.8"/>
     <use xlink:href="#md1611d7131" x="289.071529" y="116.744238" style="fill: #1f77b4; fill-opacity: 0.8; stroke: #1f77b4; stroke-opacity: 0.8"/>
     <use xlink:href="#md1611d7131" x="322.006477" y="94.640487" style="fill: #1f77b4; fill-opacity: 0.8; stroke: #1f77b4; stroke-opacity: 0.8"/>
     <use xlink:href="#md1611d7131" x="354.91795" y="73.49777" style="fill: #1f77b4; fill-opacity: 0.8; stroke: #1f77b4; stroke-opacity: 0.8"/>
     <use xlink:href="#md1611d7131" x="387.852898" y="54.277117" style="fill: #1f77b4; fill-opacity: 0.8; stroke: #1f77b4; stroke-opacity: 0.8"/>
     <use xlink:href="#md1611d7131" x="190.290161" y="201.315109" style="fill: #1f77b4; fill-opacity: 0.8; stroke: #1f77b4; stroke-opacity: 0.8"/>
     <use xlink:href="#md1611d7131" x="256.136581" y="149.419347" style="fill: #1f77b4; fill-opacity: 0.8; stroke: #1f77b4; stroke-opacity: 0.8"/>
     <use xlink:href="#md1611d7131" x="157.355213" y="234.951251" style="fill: #1f77b4; fill-opacity: 0.8; stroke: #1f77b4; stroke-opacity: 0.8"/>
     <use xlink:href="#md1611d7131" x="223.225108" y="184.977554" style="fill: #1f77b4; fill-opacity: 0.8; stroke: #1f77b4; stroke-opacity: 0.8"/>
     <use xlink:href="#md1611d7131" x="161.979721" y="158.068641" style="fill: #1f77b4; fill-opacity: 0.8; stroke: #1f77b4; stroke-opacity: 0.8"/>
     <use xlink:href="#md1611d7131" x="161.979721" y="182.094456" style="fill: #1f77b4; fill-opacity: 0.8; stroke: #1f77b4; stroke-opacity: 0.8"/>
     <use xlink:href="#md1611d7131" x="194.914669" y="135.96489" style="fill: #1f77b4; fill-opacity: 0.8; stroke: #1f77b4; stroke-opacity: 0.8"/>
     <use xlink:href="#md1611d7131" x="227.849616" y="132.12076" style="fill: #1f77b4; fill-opacity: 0.8; stroke: #1f77b4; stroke-opacity: 0.8"/>
     <use xlink:href="#md1611d7131" x="260.761089" y="127.315597" style="fill: #1f77b4; fill-opacity: 0.8; stroke: #1f77b4; stroke-opacity: 0.8"/>
     <use xlink:href="#md1611d7131" x="208.905566" y="86.952226" style="fill: #1f77b4; fill-opacity: 0.8; stroke: #1f77b4; stroke-opacity: 0.8"/>
     <use xlink:href="#md1611d7131" x="241.840514" y="67.731574" style="fill: #1f77b4; fill-opacity: 0.8; stroke: #1f77b4; stroke-opacity: 0.8"/>
     <use xlink:href="#md1611d7131" x="307.686934" y="50.432987" style="fill: #1f77b4; fill-opacity: 0.8; stroke: #1f77b4; stroke-opacity: 0.8"/>
    </g>
   </g>
   <g id="PolyCollection_1">
    <path d="M 63.198352 205.980696 
L 63.198352 261.216 
L 66.477691 258.866308 
L 69.75703 256.591684 
L 73.036369 254.316243 
L 76.315708 252.040801 
L 79.595046 249.701184 
L 82.874385 247.295624 
L 86.153724 244.980015 
L 89.433063 242.697366 
L 92.712402 240.413205 
L 95.991741 238.129043 
L 99.27108 235.81947 
L 102.550418 233.455389 
L 105.829757 231.091308 
L 109.109096 228.727226 
L 112.388435 226.363145 
L 115.667774 223.998254 
L 118.947113 221.62548 
L 122.226451 219.146143 
L 125.50579 216.522986 
L 128.785129 214.160603 
L 132.064468 211.977989 
L 135.343807 209.791222 
L 138.623146 207.430075 
L 141.902485 205.121635 
L 145.181823 202.8643 
L 148.461162 200.779133 
L 151.740501 198.625909 
L 155.01984 196.076267 
L 158.299179 193.582521 
L 161.578518 191.291754 
L 164.857856 188.816518 
L 168.137195 186.45969 
L 171.416534 184.27871 
L 174.695873 182.110809 
L 177.975212 179.989098 
L 181.254551 177.922291 
L 184.533889 175.552092 
L 187.813228 173.442865 
L 191.092567 171.22024 
L 194.371906 168.958238 
L 197.651245 166.571417 
L 200.930584 164.10612 
L 204.209923 161.775224 
L 207.489261 159.553462 
L 210.7686 157.646182 
L 214.047939 155.40318 
L 217.327278 153.067665 
L 220.606617 150.835252 
L 223.885956 148.804592 
L 227.165294 146.77044 
L 230.444633 144.649373 
L 233.723972 142.681502 
L 237.003311 140.388965 
L 240.28265 138.464115 
L 243.561989 136.419575 
L 246.841327 134.572011 
L 250.120666 132.539711 
L 253.400005 130.52052 
L 256.679344 128.545369 
L 259.958683 126.800894 
L 263.238022 125.11363 
L 266.517361 123.316808 
L 269.796699 121.114948 
L 273.076038 119.152225 
L 276.355377 117.301214 
L 279.634716 115.708389 
L 282.914055 113.844517 
L 286.193394 111.997477 
L 289.472732 110.323035 
L 292.752071 108.537215 
L 296.03141 106.80789 
L 299.310749 105.028127 
L 302.590088 103.243864 
L 305.869427 101.428841 
L 309.148765 99.67718 
L 312.428104 98.105535 
L 315.707443 96.512354 
L 318.986782 94.971937 
L 322.266121 93.23097 
L 325.54546 91.575178 
L 328.824799 89.998624 
L 332.104137 88.419378 
L 335.383476 86.837463 
L 338.662815 85.287429 
L 341.942154 83.6872 
L 345.221493 82.106043 
L 348.500832 80.524885 
L 351.78017 78.943728 
L 355.059509 77.243374 
L 358.338848 75.639845 
L 361.618187 73.987482 
L 364.897526 72.4375 
L 368.176865 70.967235 
L 371.456204 69.476628 
L 374.735542 67.795936 
L 378.014881 66.112748 
L 381.29422 64.42956 
L 384.573559 62.876818 
L 387.852898 61.204182 
L 387.852898 19.296 
L 387.852898 19.296 
L 384.573559 21.503693 
L 381.29422 23.713898 
L 378.014881 25.924942 
L 374.735542 28.138356 
L 371.456204 30.356853 
L 368.176865 32.892444 
L 364.897526 35.18153 
L 361.618187 37.31841 
L 358.338848 39.53154 
L 355.059509 41.998938 
L 351.78017 44.147231 
L 348.500832 46.295524 
L 345.221493 48.448075 
L 341.942154 50.9176 
L 338.662815 53.098338 
L 335.383476 55.235692 
L 332.104137 57.434066 
L 328.824799 59.614804 
L 325.54546 61.85285 
L 322.266121 63.899669 
L 318.986782 66.068482 
L 315.707443 68.351853 
L 312.428104 70.637432 
L 309.148765 72.94445 
L 305.869427 75.201964 
L 302.590088 77.485335 
L 299.310749 79.6461 
L 296.03141 81.969936 
L 292.752071 84.060258 
L 289.472732 86.309179 
L 286.193394 88.558754 
L 282.914055 90.563725 
L 279.634716 92.62393 
L 276.355377 94.525061 
L 273.076038 96.764616 
L 269.796699 98.925321 
L 266.517361 100.851716 
L 263.238022 102.592063 
L 259.958683 104.399518 
L 256.679344 106.276487 
L 253.400005 108.217922 
L 250.120666 110.091903 
L 246.841327 111.99206 
L 243.561989 113.682502 
L 240.28265 115.572884 
L 237.003311 117.630195 
L 233.723972 119.573775 
L 230.444633 121.195313 
L 227.165294 122.927639 
L 223.885956 124.865552 
L 220.606617 126.519564 
L 217.327278 128.095537 
L 214.047939 129.674018 
L 210.7686 131.544104 
L 207.489261 133.218741 
L 204.209923 134.970551 
L 200.930584 136.572984 
L 197.651245 138.422477 
L 194.371906 140.118056 
L 191.092567 141.938263 
L 187.813228 143.565349 
L 184.533889 145.240771 
L 181.254551 146.985707 
L 177.975212 148.555481 
L 174.695873 150.30804 
L 171.416534 152.016304 
L 168.137195 153.601557 
L 164.857856 155.18681 
L 161.578518 156.82568 
L 158.299179 158.496281 
L 155.01984 160.312995 
L 151.740501 162.019057 
L 148.461162 163.672436 
L 145.181823 165.347508 
L 141.902485 166.901363 
L 138.623146 168.441754 
L 135.343807 170.10901 
L 132.064468 171.776266 
L 128.785129 173.443522 
L 125.50579 175.110778 
L 122.226451 176.778035 
L 118.947113 178.442717 
L 115.667774 179.987101 
L 112.388435 181.650789 
L 109.109096 183.297354 
L 105.829757 184.844091 
L 102.550418 186.224929 
L 99.27108 187.721179 
L 95.991741 189.220003 
L 92.712402 190.775978 
L 89.433063 192.46901 
L 86.153724 194.162042 
L 82.874385 195.859987 
L 79.595046 197.55913 
L 76.315708 199.258272 
L 73.036369 200.957415 
L 69.75703 202.656557 
L 66.477691 204.355699 
L 63.198352 205.980696 
z
" clip-path="url(#p6c9b8f5df0)" style="fill: #1f77b4; fill-opacity: 0.15"/>
   </g>
   <g id="matplotlib.axis_1">
    <g id="xtick_1">
     <g id="line2d_1">
      <defs>
       <path id="ma79e1a0755" d="M 0 0 
L 0 3.5 
" style="stroke: #000000; stroke-width: 0.8"/>
      </defs>
      <g>
       <use xlink:href="#ma79e1a0755" x="81.884181" y="273.312" style="stroke: #000000; stroke-width: 0.8"/>
      </g>
     </g>
     <g id="text_1">
      <!-- 40 -->
      <g transform="translate(75.521681 287.910437) scale(0.1 -0.1)">
       <defs>
        <path id="DejaVuSans-34" d="M 2419 4116 
L 825 1625 
L 2419 1625 
L 2419 4116 
z
M 2253 4666 
L 3047 4666 
L 3047 1625 
L 3713 1625 
L 3713 1100 
L 3047 1100 
L 3047 0 
L 2419 0 
L 2419 1100 
L 313 1100 
L 313 1709 
L 2253 4666 
z
" transform="scale(0.015625)"/>
        <path id="DejaVuSans-30" d="M 2034 4250 
Q 1547 4250 1301 3770 
Q 1056 3291 1056 2328 
Q 1056 1369 1301 889 
Q 1547 409 2034 409 
Q 2525 409 2770 889 
Q 3016 1369 3016 2328 
Q 3016 3291 2770 3770 
Q 2525 4250 2034 4250 
z
M 2034 4750 
Q 2819 4750 3233 4129 
Q 3647 3509 3647 2328 
Q 3647 1150 3233 529 
Q 2819 -91 2034 -91 
Q 1250 -91 836 529 
Q 422 1150 422 2328 
Q 422 3509 836 4129 
Q 1250 4750 2034 4750 
z
" transform="scale(0.015625)"/>
       </defs>
       <use xlink:href="#DejaVuSans-34"/>
       <use xlink:href="#DejaVuSans-30" x="63.623047"/>
      </g>
     </g>
    </g>
    <g id="xtick_2">
     <g id="line2d_2">
      <g>
       <use xlink:href="#ma79e1a0755" x="128.833501" y="273.312" style="stroke: #000000; stroke-width: 0.8"/>
      </g>
     </g>
     <g id="text_2">
      <!-- 60 -->
      <g transform="translate(122.471001 287.910437) scale(0.1 -0.1)">
       <defs>
        <path id="DejaVuSans-36" d="M 2113 2584 
Q 1688 2584 1439 2293 
Q 1191 2003 1191 1497 
Q 1191 994 1439 701 
Q 1688 409 2113 409 
Q 2538 409 2786 701 
Q 3034 994 3034 1497 
Q 3034 2003 2786 2293 
Q 2538 2584 2113 2584 
z
M 3366 4563 
L 3366 3988 
Q 3128 4100 2886 4159 
Q 2644 4219 2406 4219 
Q 1781 4219 1451 3797 
Q 1122 3375 1075 2522 
Q 1259 2794 1537 2939 
Q 1816 3084 2150 3084 
Q 2853 3084 3261 2657 
Q 3669 2231 3669 1497 
Q 3669 778 3244 343 
Q 2819 -91 2113 -91 
Q 1303 -91 875 529 
Q 447 1150 447 2328 
Q 447 3434 972 4092 
Q 1497 4750 2381 4750 
Q 2619 4750 2861 4703 
Q 3103 4656 3366 4563 
z
" transform="scale(0.015625)"/>
       </defs>
       <use xlink:href="#DejaVuSans-36"/>
       <use xlink:href="#DejaVuSans-30" x="63.623047"/>
      </g>
     </g>
    </g>
    <g id="xtick_3">
     <g id="line2d_3">
      <g>
       <use xlink:href="#ma79e1a0755" x="175.782821" y="273.312" style="stroke: #000000; stroke-width: 0.8"/>
      </g>
     </g>
     <g id="text_3">
      <!-- 80 -->
      <g transform="translate(169.420321 287.910437) scale(0.1 -0.1)">
       <defs>
        <path id="DejaVuSans-38" d="M 2034 2216 
Q 1584 2216 1326 1975 
Q 1069 1734 1069 1313 
Q 1069 891 1326 650 
Q 1584 409 2034 409 
Q 2484 409 2743 651 
Q 3003 894 3003 1313 
Q 3003 1734 2745 1975 
Q 2488 2216 2034 2216 
z
M 1403 2484 
Q 997 2584 770 2862 
Q 544 3141 544 3541 
Q 544 4100 942 4425 
Q 1341 4750 2034 4750 
Q 2731 4750 3128 4425 
Q 3525 4100 3525 3541 
Q 3525 3141 3298 2862 
Q 3072 2584 2669 2484 
Q 3125 2378 3379 2068 
Q 3634 1759 3634 1313 
Q 3634 634 3220 271 
Q 2806 -91 2034 -91 
Q 1263 -91 848 271 
Q 434 634 434 1313 
Q 434 1759 690 2068 
Q 947 2378 1403 2484 
z
M 1172 3481 
Q 1172 3119 1398 2916 
Q 1625 2713 2034 2713 
Q 2441 2713 2670 2916 
Q 2900 3119 2900 3481 
Q 2900 3844 2670 4047 
Q 2441 4250 2034 4250 
Q 1625 4250 1398 4047 
Q 1172 3844 1172 3481 
z
" transform="scale(0.015625)"/>
       </defs>
       <use xlink:href="#DejaVuSans-38"/>
       <use xlink:href="#DejaVuSans-30" x="63.623047"/>
      </g>
     </g>
    </g>
    <g id="xtick_4">
     <g id="line2d_4">
      <g>
       <use xlink:href="#ma79e1a0755" x="222.73214" y="273.312" style="stroke: #000000; stroke-width: 0.8"/>
      </g>
     </g>
     <g id="text_4">
      <!-- 100 -->
      <g transform="translate(213.18839 287.910437) scale(0.1 -0.1)">
       <defs>
        <path id="DejaVuSans-31" d="M 794 531 
L 1825 531 
L 1825 4091 
L 703 3866 
L 703 4441 
L 1819 4666 
L 2450 4666 
L 2450 531 
L 3481 531 
L 3481 0 
L 794 0 
L 794 531 
z
" transform="scale(0.015625)"/>
       </defs>
       <use xlink:href="#DejaVuSans-31"/>
       <use xlink:href="#DejaVuSans-30" x="63.623047"/>
       <use xlink:href="#DejaVuSans-30" x="127.246094"/>
      </g>
     </g>
    </g>
    <g id="xtick_5">
     <g id="line2d_5">
      <g>
       <use xlink:href="#ma79e1a0755" x="269.68146" y="273.312" style="stroke: #000000; stroke-width: 0.8"/>
      </g>
     </g>
     <g id="text_5">
      <!-- 120 -->
      <g transform="translate(260.13771 287.910437) scale(0.1 -0.1)">
       <defs>
        <path id="DejaVuSans-32" d="M 1228 531 
L 3431 531 
L 3431 0 
L 469 0 
L 469 531 
Q 828 903 1448 1529 
Q 2069 2156 2228 2338 
Q 2531 2678 2651 2914 
Q 2772 3150 2772 3378 
Q 2772 3750 2511 3984 
Q 2250 4219 1831 4219 
Q 1534 4219 1204 4116 
Q 875 4013 500 3803 
L 500 4441 
Q 881 4594 1212 4672 
Q 1544 4750 1819 4750 
Q 2544 4750 2975 4387 
Q 3406 4025 3406 3419 
Q 3406 3131 3298 2873 
Q 3191 2616 2906 2266 
Q 2828 2175 2409 1742 
Q 1991 1309 1228 531 
z
" transform="scale(0.015625)"/>
       </defs>
       <use xlink:href="#DejaVuSans-31"/>
       <use xlink:href="#DejaVuSans-32" x="63.623047"/>
       <use xlink:href="#DejaVuSans-30" x="127.246094"/>
      </g>
     </g>
    </g>
    <g id="xtick_6">
     <g id="line2d_6">
      <g>
       <use xlink:href="#ma79e1a0755" x="316.63078" y="273.312" style="stroke: #000000; stroke-width: 0.8"/>
      </g>
     </g>
     <g id="text_6">
      <!-- 140 -->
      <g transform="translate(307.08703 287.910437) scale(0.1 -0.1)">
       <use xlink:href="#DejaVuSans-31"/>
       <use xlink:href="#DejaVuSans-34" x="63.623047"/>
       <use xlink:href="#DejaVuSans-30" x="127.246094"/>
      </g>
     </g>
    </g>
    <g id="xtick_7">
     <g id="line2d_7">
      <g>
       <use xlink:href="#ma79e1a0755" x="363.580099" y="273.312" style="stroke: #000000; stroke-width: 0.8"/>
      </g>
     </g>
     <g id="text_7">
      <!-- 160 -->
      <g transform="translate(354.036349 287.910437) scale(0.1 -0.1)">
       <use xlink:href="#DejaVuSans-31"/>
       <use xlink:href="#DejaVuSans-36" x="63.623047"/>
       <use xlink:href="#DejaVuSans-30" x="127.246094"/>
      </g>
     </g>
    </g>
    <g id="text_8">
     <!-- MW -->
     <g transform="translate(216.267813 301.588562) scale(0.1 -0.1)">
      <defs>
       <path id="DejaVuSans-4d" d="M 628 4666 
L 1569 4666 
L 2759 1491 
L 3956 4666 
L 4897 4666 
L 4897 0 
L 4281 0 
L 4281 4097 
L 3078 897 
L 2444 897 
L 1241 4097 
L 1241 0 
L 628 0 
L 628 4666 
z
" transform="scale(0.015625)"/>
       <path id="DejaVuSans-57" d="M 213 4666 
L 850 4666 
L 1831 722 
L 2809 4666 
L 3519 4666 
L 4500 722 
L 5478 4666 
L 6119 4666 
L 4947 0 
L 4153 0 
L 3169 4050 
L 2175 0 
L 1381 0 
L 213 4666 
z
" transform="scale(0.015625)"/>
      </defs>
      <use xlink:href="#DejaVuSans-4d"/>
      <use xlink:href="#DejaVuSans-57" x="86.279297"/>
     </g>
    </g>
   </g>
   <g id="matplotlib.axis_2">
    <g id="ytick_1">
     <g id="line2d_8">
      <defs>
       <path id="me1bf14fa3d" d="M 0 0 
L -3.5 0 
" style="stroke: #000000; stroke-width: 0.8"/>
      </defs>
      <g>
       <use xlink:href="#me1bf14fa3d" x="46.965625" y="261.860164" style="stroke: #000000; stroke-width: 0.8"/>
      </g>
     </g>
     <g id="text_9">
      <!-- 0 -->
      <g transform="translate(33.603125 265.659383) scale(0.1 -0.1)">
       <use xlink:href="#DejaVuSans-30"/>
      </g>
     </g>
    </g>
    <g id="ytick_2">
     <g id="line2d_9">
      <g>
       <use xlink:href="#me1bf14fa3d" x="46.965625" y="213.808533" style="stroke: #000000; stroke-width: 0.8"/>
      </g>
     </g>
     <g id="text_10">
      <!-- 50 -->
      <g transform="translate(27.240625 217.607752) scale(0.1 -0.1)">
       <defs>
        <path id="DejaVuSans-35" d="M 691 4666 
L 3169 4666 
L 3169 4134 
L 1269 4134 
L 1269 2991 
Q 1406 3038 1543 3061 
Q 1681 3084 1819 3084 
Q 2600 3084 3056 2656 
Q 3513 2228 3513 1497 
Q 3513 744 3044 326 
Q 2575 -91 1722 -91 
Q 1428 -91 1123 -41 
Q 819 9 494 109 
L 494 744 
Q 775 591 1075 516 
Q 1375 441 1709 441 
Q 2250 441 2565 725 
Q 2881 1009 2881 1497 
Q 2881 1984 2565 2268 
Q 2250 2553 1709 2553 
Q 1456 2553 1204 2497 
Q 953 2441 691 2322 
L 691 4666 
z
" transform="scale(0.015625)"/>
       </defs>
       <use xlink:href="#DejaVuSans-35"/>
       <use xlink:href="#DejaVuSans-30" x="63.623047"/>
      </g>
     </g>
    </g>
    <g id="ytick_3">
     <g id="line2d_10">
      <g>
       <use xlink:href="#me1bf14fa3d" x="46.965625" y="165.756902" style="stroke: #000000; stroke-width: 0.8"/>
      </g>
     </g>
     <g id="text_11">
      <!-- 100 -->
      <g transform="translate(20.878125 169.55612) scale(0.1 -0.1)">
       <use xlink:href="#DejaVuSans-31"/>
       <use xlink:href="#DejaVuSans-30" x="63.623047"/>
       <use xlink:href="#DejaVuSans-30" x="127.246094"/>
      </g>
     </g>
    </g>
    <g id="ytick_4">
     <g id="line2d_11">
      <g>
       <use xlink:href="#me1bf14fa3d" x="46.965625" y="117.70527" style="stroke: #000000; stroke-width: 0.8"/>
      </g>
     </g>
     <g id="text_12">
      <!-- 150 -->
      <g transform="translate(20.878125 121.504489) scale(0.1 -0.1)">
       <use xlink:href="#DejaVuSans-31"/>
       <use xlink:href="#DejaVuSans-35" x="63.623047"/>
       <use xlink:href="#DejaVuSans-30" x="127.246094"/>
      </g>
     </g>
    </g>
    <g id="ytick_5">
     <g id="line2d_12">
      <g>
       <use xlink:href="#me1bf14fa3d" x="46.965625" y="69.653639" style="stroke: #000000; stroke-width: 0.8"/>
      </g>
     </g>
     <g id="text_13">
      <!-- 200 -->
      <g transform="translate(20.878125 73.452858) scale(0.1 -0.1)">
       <use xlink:href="#DejaVuSans-32"/>
       <use xlink:href="#DejaVuSans-30" x="63.623047"/>
       <use xlink:href="#DejaVuSans-30" x="127.246094"/>
      </g>
     </g>
    </g>
    <g id="ytick_6">
     <g id="line2d_13">
      <g>
       <use xlink:href="#me1bf14fa3d" x="46.965625" y="21.602008" style="stroke: #000000; stroke-width: 0.8"/>
      </g>
     </g>
     <g id="text_14">
      <!-- 250 -->
      <g transform="translate(20.878125 25.401227) scale(0.1 -0.1)">
       <use xlink:href="#DejaVuSans-32"/>
       <use xlink:href="#DejaVuSans-35" x="63.623047"/>
       <use xlink:href="#DejaVuSans-30" x="127.246094"/>
      </g>
     </g>
    </g>
    <g id="text_15">
     <!-- bp -->
     <g transform="translate(14.798438 146.604437) rotate(-90) scale(0.1 -0.1)">
      <defs>
       <path id="DejaVuSans-62" d="M 3116 1747 
Q 3116 2381 2855 2742 
Q 2594 3103 2138 3103 
Q 1681 3103 1420 2742 
Q 1159 2381 1159 1747 
Q 1159 1113 1420 752 
Q 1681 391 2138 391 
Q 2594 391 2855 752 
Q 3116 1113 3116 1747 
z
M 1159 2969 
Q 1341 3281 1617 3432 
Q 1894 3584 2278 3584 
Q 2916 3584 3314 3078 
Q 3713 2572 3713 1747 
Q 3713 922 3314 415 
Q 2916 -91 2278 -91 
Q 1894 -91 1617 61 
Q 1341 213 1159 525 
L 1159 0 
L 581 0 
L 581 4863 
L 1159 4863 
L 1159 2969 
z
" transform="scale(0.015625)"/>
       <path id="DejaVuSans-70" d="M 1159 525 
L 1159 -1331 
L 581 -1331 
L 581 3500 
L 1159 3500 
L 1159 2969 
Q 1341 3281 1617 3432 
Q 1894 3584 2278 3584 
Q 2916 3584 3314 3078 
Q 3713 2572 3713 1747 
Q 3713 922 3314 415 
Q 2916 -91 2278 -91 
Q 1894 -91 1617 61 
Q 1341 213 1159 525 
z
M 3116 1747 
Q 3116 2381 2855 2742 
Q 2594 3103 2138 3103 
Q 1681 3103 1420 2742 
Q 1159 2381 1159 1747 
Q 1159 1113 1420 752 
Q 1681 391 2138 391 
Q 2594 391 2855 752 
Q 3116 1113 3116 1747 
z
" transform="scale(0.015625)"/>
      </defs>
      <use xlink:href="#DejaVuSans-62"/>
      <use xlink:href="#DejaVuSans-70" x="63.476562"/>
     </g>
    </g>
   </g>
   <g id="line2d_14">
    <path d="M 63.198352 228.235619 
L 66.477691 226.357055 
L 69.75703 224.47849 
L 73.036369 222.599926 
L 76.315708 220.721361 
L 79.595046 218.842797 
L 82.874385 216.964233 
L 86.153724 215.085668 
L 89.433063 213.207104 
L 92.712402 211.328539 
L 95.991741 209.449975 
L 99.27108 207.57141 
L 102.550418 205.692846 
L 105.829757 203.814282 
L 109.109096 201.935717 
L 112.388435 200.057153 
L 115.667774 198.178588 
L 118.947113 196.300024 
L 122.226451 194.421459 
L 125.50579 192.542895 
L 128.785129 190.664331 
L 132.064468 188.785766 
L 135.343807 186.907202 
L 138.623146 185.028637 
L 141.902485 183.150073 
L 145.181823 181.271508 
L 148.461162 179.392944 
L 151.740501 177.51438 
L 155.01984 175.635815 
L 158.299179 173.757251 
L 161.578518 171.878686 
L 164.857856 170.000122 
L 168.137195 168.121557 
L 171.416534 166.242993 
L 174.695873 164.364429 
L 177.975212 162.485864 
L 181.254551 160.6073 
L 184.533889 158.728735 
L 187.813228 156.850171 
L 191.092567 154.971607 
L 194.371906 153.093042 
L 197.651245 151.214478 
L 200.930584 149.335913 
L 204.209923 147.457349 
L 207.489261 145.578784 
L 210.7686 143.70022 
L 214.047939 141.821656 
L 217.327278 139.943091 
L 220.606617 138.064527 
L 223.885956 136.185962 
L 227.165294 134.307398 
L 230.444633 132.428833 
L 233.723972 130.550269 
L 237.003311 128.671705 
L 240.28265 126.79314 
L 243.561989 124.914576 
L 246.841327 123.036011 
L 250.120666 121.157447 
L 253.400005 119.278882 
L 256.679344 117.400318 
L 259.958683 115.521754 
L 263.238022 113.643189 
L 266.517361 111.764625 
L 269.796699 109.88606 
L 273.076038 108.007496 
L 276.355377 106.128931 
L 279.634716 104.250367 
L 282.914055 102.371803 
L 286.193394 100.493238 
L 289.472732 98.614674 
L 292.752071 96.736109 
L 296.03141 94.857545 
L 299.310749 92.97898 
L 302.590088 91.100416 
L 305.869427 89.221852 
L 309.148765 87.343287 
L 312.428104 85.464723 
L 315.707443 83.586158 
L 318.986782 81.707594 
L 322.266121 79.82903 
L 325.54546 77.950465 
L 328.824799 76.071901 
L 332.104137 74.193336 
L 335.383476 72.314772 
L 338.662815 70.436207 
L 341.942154 68.557643 
L 345.221493 66.679079 
L 348.500832 64.800514 
L 351.78017 62.92195 
L 355.059509 61.043385 
L 358.338848 59.164821 
L 361.618187 57.286256 
L 364.897526 55.407692 
L 368.176865 53.529128 
L 371.456204 51.650563 
L 374.735542 49.771999 
L 378.014881 47.893434 
L 381.29422 46.01487 
L 384.573559 44.136305 
L 387.852898 42.257741 
" clip-path="url(#p6c9b8f5df0)" style="fill: none; stroke: #1f77b4; stroke-width: 2.25; stroke-linecap: square"/>
   </g>
   <g id="patch_3">
    <path d="M 46.965625 273.312 
L 46.965625 7.2 
" style="fill: none; stroke: #000000; stroke-width: 0.8; stroke-linejoin: miter; stroke-linecap: square"/>
   </g>
   <g id="patch_4">
    <path d="M 404.085625 273.312 
L 404.085625 7.2 
" style="fill: none; stroke: #000000; stroke-width: 0.8; stroke-linejoin: miter; stroke-linecap: square"/>
   </g>
   <g id="patch_5">
    <path d="M 46.965625 273.312 
L 404.085625 273.312 
" style="fill: none; stroke: #000000; stroke-width: 0.8; stroke-linejoin: miter; stroke-linecap: square"/>
   </g>
   <g id="patch_6">
    <path d="M 46.965625 7.2 
L 404.085625 7.2 
" style="fill: none; stroke: #000000; stroke-width: 0.8; stroke-linejoin: miter; stroke-linecap: square"/>
   </g>
  </g>
 </g>
 <defs>
  <clipPath id="p6c9b8f5df0">
   <rect x="46.965625" y="7.2" width="357.12" height="266.112"/>
  </clipPath>
 </defs>
</svg>