<?xml version="1.0" encoding="utf-8" standalone="no"?>
<!DOCTYPE svg PUBLIC "-//W3C//DTD SVG 1.1//EN"
  "http://www.w3.org/Graphics/SVG/1.1/DTD/svg11.dtd">
<svg xmlns:xlink="http://www.w3.org/1999/xlink" width="411.285625pt" height="310.86825pt" viewBox="0 0 411.285625 310.86825" xmlns="http://www.w3.org/2000/svg" version="1.1">
 <metadata>
  <rdf:RDF xmlns:dc="http://purl.org/dc/elements/1.1/" xmlns:cc="http://creativecommons.org/ns#" xmlns:rdf="http://www.w3.org/1999/02/22-rdf-syntax-ns#">
   <cc:Work>
    <dc:type rdf:resource="http://purl.org/dc/dcmitype/StillImage"/>
    <dc:date>2025-08-30T19:32:34.009137</dc:date>
    <dc:format>image/svg+xml</dc:format>
    <dc:creator>
     <cc:Agent>
      <dc:title>Matplotlib v3.10.3, https://matplotlib.org/</dc:title>
     </cc:Agent>
    </dc:creator>
   </cc:Work>
  </rdf:RDF>
 </metadata>
 <defs>
  <style type="text/css">*{stroke-linejoin: round; stroke-linecap: butt}</style>
 </defs>
 <g id="figure_1">
  <g id="patch_1">
   <path d="M 0 310.86825 
L 411.285625 310.86825 
L 411.285625 0 
L 0 0 
z
" style="fill: #ffffff"/>
  </g>
  <g id="axes_1">
   <g id="patch_2">
    <path d="M 46.965625 273.312 
L 404.085625 273.312 
L 404.085625 7.2 
L 46.965625 7.2 
z
" style="fill: #ffffff"/>
   </g>
   <g id="PathCollection_1">
    <defs>
     <path id="m730520ac49" d="M 0 3 
C 0.795609 3 1.55874 2.683901 2.12132 2.12132 
C 2.683901 1.55874 3 0.795609 3 0 
C 3 -0.795609 2.683901 -1.55874 2.12132 -2.12132 
C 1.55874 -2.683901 0.795609 -3 0 -3 
C -0.795609 -3 -1.55874 -2.683901 -2.12132 -2.12132 
C -2.683901 -1.55874 -3 -0.795609 -3 0 
C -3 0.795609 -2.683901 1.55874 -2.12132 2.12132 
C -1.55874 2.683901 -0.795609 3 0 3 
z
" style="stroke: #1f77b4; stroke-opacity: 0.8"/>
    </defs>
    <g clip-path="url(#p6665609ef1)">
     <use xlink:href="#m730520ac49" x="63.198352" y="199.38453" style="fill: #1f77b4; fill-opacity: 0.8; stroke: #1f77b4; stroke-opacity: 0.8"/>
     <use xlink:href="#m730520ac49" x="96.1333" y="186.957532" style="fill: #1f77b4; fill-opacity: 0.8; stroke: #1f77b4; stroke-opacity: 0.8"/>
     <use xlink:href="#m730520ac49" x="129.068248" y="167.839074" style="fill: #1f77b4; fill-opacity: 0.8; stroke: #1f77b4; stroke-opacity: 0.8"/>
     <use xlink:href="#m730520ac49" x="161.979721" y="148.720615" style="fill: #1f77b4; fill-opacity: 0.8; stroke: #1f77b4; stroke-opacity: 0.8"/>
     <use xlink:href="#m730520ac49" x="194.914669" y="128.646234" style="fill: #1f77b4; fill-opacity: 0.8; stroke: #1f77b4; stroke-opacity: 0.8"/>
     <use xlink:href="#m730520ac49" x="227.849616" y="111.439621" style="fill: #1f77b4; fill-opacity: 0.8; stroke: #1f77b4; stroke-opacity: 0.8"/>
     <use xlink:href="#m730520ac49" x="260.761089" y="93.277086" style="fill: #1f77b4; fill-opacity: 0.8; stroke: #1f77b4; stroke-opacity: 0.8"/>
     <use xlink:href="#m730520ac49" x="293.696037" y="75.114551" style="fill: #1f77b4; fill-opacity: 0.8; stroke: #1f77b4; stroke-opacity: 0.8"/>
     <use xlink:href="#m730520ac49" x="326.60751" y="58.863861" style="fill: #1f77b4; fill-opacity: 0.8; stroke: #1f77b4; stroke-opacity: 0.8"/>
     <use xlink:href="#m730520ac49" x="359.542458" y="39.745403" style="fill: #1f77b4; fill-opacity: 0.8; stroke: #1f77b4; stroke-opacity: 0.8"/>
     <use xlink:href="#m730520ac49" x="157.355213" y="227.106295" style="fill: #1f77b4; fill-opacity: 0.8; stroke: #1f77b4; stroke-opacity: 0.8"/>
     <use xlink:href="#m730520ac49" x="190.290161" y="195.560838" style="fill: #1f77b4; fill-opacity: 0.8; stroke: #1f77b4; stroke-opacity: 0.8"/>
     <use xlink:href="#m730520ac49" x="223.225108" y="167.839074" style="fill: #1f77b4; fill-opacity: 0.8; stroke: #1f77b4; stroke-opacity: 0.8"/>
     <use xlink:href="#m730520ac49" x="256.136581" y="141.073232" style="fill: #1f77b4; fill-opacity: 0.8; stroke: #1f77b4; stroke-opacity: 0.8"/>
     <use xlink:href="#m730520ac49" x="289.071529" y="117.175159" style="fill: #1f77b4; fill-opacity: 0.8; stroke: #1f77b4; stroke-opacity: 0.8"/>
     <use xlink:href="#m730520ac49" x="322.006477" y="95.188932" style="fill: #1f77b4; fill-opacity: 0.8; stroke: #1f77b4; stroke-opacity: 0.8"/>
     <use xlink:href="#m730520ac49" x="354.91795" y="74.158628" style="fill: #1f77b4; fill-opacity: 0.8; stroke: #1f77b4; stroke-opacity: 0.8"/>
     <use xlink:href="#m730520ac49" x="387.852898" y="55.040169" style="fill: #1f77b4; fill-opacity: 0.8; stroke: #1f77b4; stroke-opacity: 0.8"/>
     <use xlink:href="#m730520ac49" x="190.290161" y="201.296376" style="fill: #1f77b4; fill-opacity: 0.8; stroke: #1f77b4; stroke-opacity: 0.8"/>
     <use xlink:href="#m730520ac49" x="256.136581" y="149.676538" style="fill: #1f77b4; fill-opacity: 0.8; stroke: #1f77b4; stroke-opacity: 0.8"/>
     <use xlink:href="#m730520ac49" x="157.355213" y="234.753678" style="fill: #1f77b4; fill-opacity: 0.8; stroke: #1f77b4; stroke-opacity: 0.8"/>
     <use xlink:href="#m730520ac49" x="223.225108" y="185.045686" style="fill: #1f77b4; fill-opacity: 0.8; stroke: #1f77b4; stroke-opacity: 0.8"/>
     <use xlink:href="#m730520ac49" x="161.979721" y="158.279845" style="fill: #1f77b4; fill-opacity: 0.8; stroke: #1f77b4; stroke-opacity: 0.8"/>
     <use xlink:href="#m730520ac49" x="161.979721" y="182.177917" style="fill: #1f77b4; fill-opacity: 0.8; stroke: #1f77b4; stroke-opacity: 0.8"/>
     <use xlink:href="#m730520ac49" x="194.914669" y="136.293617" style="fill: #1f77b4; fill-opacity: 0.8; stroke: #1f77b4; stroke-opacity: 0.8"/>
     <use xlink:href="#m730520ac49" x="227.849616" y="132.469926" style="fill: #1f77b4; fill-opacity: 0.8; stroke: #1f77b4; stroke-opacity: 0.8"/>
     <use xlink:href="#m730520ac49" x="260.761089" y="127.690311" style="fill: #1f77b4; fill-opacity: 0.8; stroke: #1f77b4; stroke-opacity: 0.8"/>
     <use xlink:href="#m730520ac49" x="208.905566" y="87.541549" style="fill: #1f77b4; fill-opacity: 0.8; stroke: #1f77b4; stroke-opacity: 0.8"/>
     <use xlink:href="#m730520ac49" x="241.840514" y="68.42309" style="fill: #1f77b4; fill-opacity: 0.8; stroke: #1f77b4; stroke-opacity: 0.8"/>
     <use xlink:href="#m730520ac49" x="307.686934" y="51.216478" style="fill: #1f77b4; fill-opacity: 0.8; stroke: #1f77b4; stroke-opacity: 0.8"/>
    </g>
   </g>
   <g id="FillBetweenPolyCollection_1">
    <path d="M 63.198352 205.260787 
L 63.198352 261.216 
L 66.477691 258.768228 
L 69.75703 256.320455 
L 73.036369 253.872683 
L 76.315708 251.42491 
L 79.595046 249.034444 
L 82.874385 246.676228 
L 86.153724 244.395755 
L 89.433063 242.176386 
L 92.712402 239.957016 
L 95.991741 237.737647 
L 99.27108 235.518278 
L 102.550418 233.144548 
L 105.829757 230.686192 
L 109.109096 228.26884 
L 112.388435 226.211023 
L 115.667774 224.064753 
L 118.947113 221.617636 
L 122.226451 219.169814 
L 125.50579 216.854047 
L 128.785129 214.811524 
L 132.064468 212.767934 
L 135.343807 210.719089 
L 138.623146 208.413548 
L 141.902485 205.902052 
L 145.181823 203.482081 
L 148.461162 201.022754 
L 151.740501 198.59618 
L 155.01984 196.418413 
L 158.299179 194.006286 
L 161.578518 191.485579 
L 164.857856 189.091593 
L 168.137195 186.561477 
L 171.416534 184.261931 
L 174.695873 181.767821 
L 177.975212 179.279693 
L 181.254551 176.964074 
L 184.533889 174.69443 
L 187.813228 172.551913 
L 191.092567 170.414707 
L 194.371906 168.276711 
L 197.651245 166.096878 
L 200.930584 163.99324 
L 204.209923 161.706425 
L 207.489261 159.511198 
L 210.7686 157.502823 
L 214.047939 155.117983 
L 217.327278 152.991279 
L 220.606617 151.172102 
L 223.885956 148.911299 
L 227.165294 146.575033 
L 230.444633 144.366321 
L 233.723972 142.187551 
L 237.003311 140.029284 
L 240.28265 137.977297 
L 243.561989 136.038894 
L 246.841327 134.135361 
L 250.120666 132.141115 
L 253.400005 130.272163 
L 256.679344 128.493895 
L 259.958683 126.757296 
L 263.238022 124.834079 
L 266.517361 122.881911 
L 269.796699 121.114167 
L 273.076038 119.351991 
L 276.355377 117.524528 
L 279.634716 115.801653 
L 282.914055 114.098043 
L 286.193394 112.361229 
L 289.472732 110.637738 
L 292.752071 108.943799 
L 296.03141 107.200589 
L 299.310749 105.627021 
L 302.590088 104.096949 
L 305.869427 102.489512 
L 309.148765 100.827826 
L 312.428104 99.077868 
L 315.707443 97.32749 
L 318.986782 95.645273 
L 322.266121 94.09098 
L 325.54546 92.503159 
L 328.824799 90.723986 
L 332.104137 88.922078 
L 335.383476 87.31725 
L 338.662815 85.594577 
L 341.942154 83.924064 
L 345.221493 82.266873 
L 348.500832 80.614339 
L 351.78017 78.961805 
L 355.059509 77.311647 
L 358.338848 75.742552 
L 361.618187 74.202071 
L 364.897526 72.422158 
L 368.176865 70.71692 
L 371.456204 69.068238 
L 374.735542 67.505105 
L 378.014881 66.069847 
L 381.29422 64.634588 
L 384.573559 63.149713 
L 387.852898 61.562474 
L 387.852898 19.296 
L 387.852898 19.296 
L 384.573559 21.411058 
L 381.29422 23.782078 
L 378.014881 26.229851 
L 374.735542 28.677623 
L 371.456204 31.058448 
L 368.176865 33.381516 
L 364.897526 35.723253 
L 361.618187 38.051842 
L 358.338848 40.380431 
L 355.059509 42.70902 
L 351.78017 45.046406 
L 348.500832 47.383942 
L 345.221493 49.720017 
L 341.942154 51.983113 
L 338.662815 54.153121 
L 335.383476 56.580518 
L 332.104137 58.867515 
L 328.824799 61.118393 
L 325.54546 63.304547 
L 322.266121 65.448072 
L 318.986782 67.689163 
L 315.707443 69.87869 
L 312.428104 72.06919 
L 309.148765 73.943553 
L 305.869427 76.024723 
L 302.590088 77.852393 
L 299.310749 79.859632 
L 296.03141 82.169706 
L 292.752071 84.528132 
L 289.472732 86.859012 
L 286.193394 88.91218 
L 282.914055 90.847547 
L 279.634716 93.000635 
L 276.355377 94.767788 
L 273.076038 96.998211 
L 269.796699 98.893344 
L 266.517361 100.705602 
L 263.238022 102.662016 
L 259.958683 104.658915 
L 256.679344 106.401654 
L 253.400005 108.186356 
L 250.120666 110.390058 
L 246.841327 112.557394 
L 243.561989 114.418493 
L 240.28265 116.28466 
L 237.003311 118.077001 
L 233.723972 119.828703 
L 230.444633 121.612506 
L 227.165294 123.337326 
L 223.885956 125.133955 
L 220.606617 127.21102 
L 217.327278 128.919872 
L 214.047939 130.809559 
L 210.7686 132.292426 
L 207.489261 134.36035 
L 204.209923 135.968467 
L 200.930584 137.568447 
L 197.651245 139.324833 
L 194.371906 141.028844 
L 191.092567 142.594497 
L 187.813228 144.477342 
L 184.533889 146.089205 
L 181.254551 147.607241 
L 177.975212 149.310899 
L 174.695873 151.09077 
L 171.416534 152.726334 
L 168.137195 154.42484 
L 164.857856 156.237978 
L 161.578518 157.986325 
L 158.299179 159.591958 
L 155.01984 161.214545 
L 151.740501 162.816671 
L 148.461162 164.418797 
L 145.181823 166.020923 
L 141.902485 167.62064 
L 138.623146 169.190001 
L 135.343807 170.819406 
L 132.064468 172.423982 
L 128.785129 174.031553 
L 125.50579 175.633679 
L 122.226451 177.241339 
L 118.947113 178.841127 
L 115.667774 180.445047 
L 112.388435 182.041418 
L 109.109096 183.639234 
L 105.829757 185.055305 
L 102.550418 186.44561 
L 99.27108 187.973309 
L 95.991741 189.54626 
L 92.712402 191.153711 
L 89.433063 192.761162 
L 86.153724 194.368613 
L 82.874385 195.976063 
L 79.595046 197.583514 
L 76.315708 199.181926 
L 73.036369 200.70134 
L 69.75703 202.221156 
L 66.477691 203.740972 
L 63.198352 205.260787 
z
" clip-path="url(#p6665609ef1)" style="fill: #1f77b4; fill-opacity: 0.15"/>
   </g>
   <g id="matplotlib.axis_1">
    <g id="xtick_1">
     <g id="line2d_1">
      <defs>
       <path id="m2f0ca6295c" d="M 0 0 
L 0 3.5 
" style="stroke: #000000; stroke-width: 0.8"/>
      </defs>
      <g>
       <use xlink:href="#m2f0ca6295c" x="81.884181" y="273.312" style="stroke: #000000; stroke-width: 0.8"/>
      </g>
     </g>
     <g id="text_1">
      <!-- 40 -->
      <g transform="translate(75.521681 287.910437) scale(0.1 -0.1)">
       <defs>
        <path id="DejaVuSans-34" d="M 2419 4116 
L 825 1625 
L 2419 1625 
L 2419 4116 
z
M 2253 4666 
L 3047 4666 
L 3047 1625 
L 3713 1625 
L 3713 1100 
L 3047 1100 
L 3047 0 
L 2419 0 
L 2419 1100 
L 313 1100 
L 313 1709 
L 2253 4666 
z
" transform="scale(0.015625)"/>
        <path id="DejaVuSans-30" d="M 2034 4250 
Q 1547 4250 1301 3770 
Q 1056 3291 1056 2328 
Q 1056 1369 1301 889 
Q 1547 409 2034 409 
Q 2525 409 2770 889 
Q 3016 1369 3016 2328 
Q 3016 3291 2770 3770 
Q 2525 4250 2034 4250 
z
M 2034 4750 
Q 2819 4750 3233 4129 
Q 3647 3509 3647 2328 
Q 3647 1150 3233 529 
Q 2819 -91 2034 -91 
Q 1250 -91 836 529 
Q 422 1150 422 2328 
Q 422 3509 836 4129 
Q 1250 4750 2034 4750 
z
" transform="scale(0.015625)"/>
       </defs>
       <use xlink:href="#DejaVuSans-34"/>
       <use xlink:href="#DejaVuSans-30" transform="translate(63.623047 0)"/>
      </g>
     </g>
    </g>
    <g id="xtick_2">
     <g id="line2d_2">
      <g>
       <use xlink:href="#m2f0ca6295c" x="128.833501" y="273.312" style="stroke: #000000; stroke-width: 0.8"/>
      </g>
     </g>
     <g id="text_2">
      <!-- 60 -->
      <g transform="translate(122.471001 287.910437) scale(0.1 -0.1)">
       <defs>
        <path id="DejaVuSans-36" d="M 2113 2584 
Q 1688 2584 1439 2293 
Q 1191 2003 1191 1497 
Q 1191 994 1439 701 
Q 1688 409 2113 409 
Q 2538 409 2786 701 
Q 3034 994 3034 1497 
Q 3034 2003 2786 2293 
Q 2538 2584 2113 2584 
z
M 3366 4563 
L 3366 3988 
Q 3128 4100 2886 4159 
Q 2644 4219 2406 4219 
Q 1781 4219 1451 3797 
Q 1122 3375 1075 2522 
Q 1259 2794 1537 2939 
Q 1816 3084 2150 3084 
Q 2853 3084 3261 2657 
Q 3669 2231 3669 1497 
Q 3669 778 3244 343 
Q 2819 -91 2113 -91 
Q 1303 -91 875 529 
Q 447 1150 447 2328 
Q 447 3434 972 4092 
Q 1497 4750 2381 4750 
Q 2619 4750 2861 4703 
Q 3103 4656 3366 4563 
z
" transform="scale(0.015625)"/>
       </defs>
       <use xlink:href="#DejaVuSans-36"/>
       <use xlink:href="#DejaVuSans-30" transform="translate(63.623047 0)"/>
      </g>
     </g>
    </g>
    <g id="xtick_3">
     <g id="line2d_3">
      <g>
       <use xlink:href="#m2f0ca6295c" x="175.782821" y="273.312" style="stroke: #000000; stroke-width: 0.8"/>
      </g>
     </g>
     <g id="text_3">
      <!-- 80 -->
      <g transform="translate(169.420321 287.910437) scale(0.1 -0.1)">
       <defs>
        <path id="DejaVuSans-38" d="M 2034 2216 
Q 1584 2216 1326 1975 
Q 1069 1734 1069 1313 
Q 1069 891 1326 650 
Q 1584 409 2034 409 
Q 2484 409 2743 651 
Q 3003 894 3003 1313 
Q 3003 1734 2745 1975 
Q 2488 2216 2034 2216 
z
M 1403 2484 
Q 997 2584 770 2862 
Q 544 3141 544 3541 
Q 544 4100 942 4425 
Q 1341 4750 2034 4750 
Q 2731 4750 3128 4425 
Q 3525 4100 3525 3541 
Q 3525 3141 3298 2862 
Q 3072 2584 2669 2484 
Q 3125 2378 3379 2068 
Q 3634 1759 3634 1313 
Q 3634 634 3220 271 
Q 2806 -91 2034 -91 
Q 1263 -91 848 271 
Q 434 634 434 1313 
Q 434 1759 690 2068 
Q 947 2378 1403 2484 
z
M 1172 3481 
Q 1172 3119 1398 2916 
Q 1625 2713 2034 2713 
Q 2441 2713 2670 2916 
Q 2900 3119 2900 3481 
Q 2900 3844 2670 4047 
Q 2441 4250 2034 4250 
Q 1625 4250 1398 4047 
Q 1172 3844 1172 3481 
z
" transform="scale(0.015625)"/>
       </defs>
       <use xlink:href="#DejaVuSans-38"/>
       <use xlink:href="#DejaVuSans-30" transform="translate(63.623047 0)"/>
      </g>
     </g>
    </g>
    <g id="xtick_4">
     <g id="line2d_4">
      <g>
       <use xlink:href="#m2f0ca6295c" x="222.73214" y="273.312" style="stroke: #000000; stroke-width: 0.8"/>
      </g>
     </g>
     <g id="text_4">
      <!-- 100 -->
      <g transform="translate(213.18839 287.910437) scale(0.1 -0.1)">
       <defs>
        <path id="DejaVuSans-31" d="M 794 531 
L 1825 531 
L 1825 4091 
L 703 3866 
L 703 4441 
L 1819 4666 
L 2450 4666 
L 2450 531 
L 3481 531 
L 3481 0 
L 794 0 
L 794 531 
z
" transform="scale(0.015625)"/>
       </defs>
       <use xlink:href="#DejaVuSans-31"/>
       <use xlink:href="#DejaVuSans-30" transform="translate(63.623047 0)"/>
       <use xlink:href="#DejaVuSans-30" transform="translate(127.246094 0)"/>
      </g>
     </g>
    </g>
    <g id="xtick_5">
     <g id="line2d_5">
      <g>
       <use xlink:href="#m2f0ca6295c" x="269.68146" y="273.312" style="stroke: #000000; stroke-width: 0.8"/>
      </g>
     </g>
     <g id="text_5">
      <!-- 120 -->
      <g transform="translate(260.13771 287.910437) scale(0.1 -0.1)">
       <defs>
        <path id="DejaVuSans-32" d="M 1228 531 
L 3431 531 
L 3431 0 
L 469 0 
L 469 531 
Q 828 903 1448 1529 
Q 2069 2156 2228 2338 
Q 2531 2678 2651 2914 
Q 2772 3150 2772 3378 
Q 2772 3750 2511 3984 
Q 2250 4219 1831 4219 
Q 1534 4219 1204 4116 
Q 875 4013 500 3803 
L 500 4441 
Q 881 4594 1212 4672 
Q 1544 4750 1819 4750 
Q 2544 4750 2975 4387 
Q 3406 4025 3406 3419 
Q 3406 3131 3298 2873 
Q 3191 2616 2906 2266 
Q 2828 2175 2409 1742 
Q 1991 1309 1228 531 
z
" transform="scale(0.015625)"/>
       </defs>
       <use xlink:href="#DejaVuSans-31"/>
       <use xlink:href="#DejaVuSans-32" transform="translate(63.623047 0)"/>
       <use xlink:href="#DejaVuSans-30" transform="translate(127.246094 0)"/>
      </g>
     </g>
    </g>
    <g id="xtick_6">
     <g id="line2d_6">
      <g>
       <use xlink:href="#m2f0ca6295c" x="316.63078" y="273.312" style="stroke: #000000; stroke-width: 0.8"/>
      </g>
     </g>
     <g id="text_6">
      <!-- 140 -->
      <g transform="translate(307.08703 287.910437) scale(0.1 -0.1)">
       <use xlink:href="#DejaVuSans-31"/>
       <use xlink:href="#DejaVuSans-34" transform="translate(63.623047 0)"/>
       <use xlink:href="#DejaVuSans-30" transform="translate(127.246094 0)"/>
      </g>
     </g>
    </g>
    <g id="xtick_7">
     <g id="line2d_7">
      <g>
       <use xlink:href="#m2f0ca6295c" x="363.580099" y="273.312" style="stroke: #000000; stroke-width: 0.8"/>
      </g>
     </g>
     <g id="text_7">
      <!-- 160 -->
      <g transform="translate(354.036349 287.910437) scale(0.1 -0.1)">
       <use xlink:href="#DejaVuSans-31"/>
       <use xlink:href="#DejaVuSans-36" transform="translate(63.623047 0)"/>
       <use xlink:href="#DejaVuSans-30" transform="translate(127.246094 0)"/>
      </g>
     </g>
    </g>
    <g id="text_8">
     <!-- MW -->
     <g transform="translate(216.267813 301.588562) scale(0.1 -0.1)">
      <defs>
       <path id="DejaVuSans-4d" d="M 628 4666 
L 1569 4666 
L 2759 1491 
L 3956 4666 
L 4897 4666 
L 4897 0 
L 4281 0 
L 4281 4097 
L 3078 897 
L 2444 897 
L 1241 4097 
L 1241 0 
L 628 0 
L 628 4666 
z
" transform="scale(0.015625)"/>
       <path id="DejaVuSans-57" d="M 213 4666 
L 850 4666 
L 1831 722 
L 2809 4666 
L 3519 4666 
L 4500 722 
L 5478 4666 
L 6119 4666 
L 4947 0 
L 4153 0 
L 3169 4050 
L 2175 0 
L 1381 0 
L 213 4666 
z
" transform="scale(0.015625)"/>
      </defs>
      <use xlink:href="#DejaVuSans-4d"/>
      <use xlink:href="#DejaVuSans-57" transform="translate(86.279297 0)"/>
     </g>
    </g>
   </g>
   <g id="matplotlib.axis_2">
    <g id="ytick_1">
     <g id="line2d_8">
      <defs>
       <path id="m239d5af17b" d="M 0 0 
L -3.5 0 
" style="stroke: #000000; stroke-width: 0.8"/>
      </defs>
      <g>
       <use xlink:href="#m239d5af17b" x="46.965625" y="261.51952" style="stroke: #000000; stroke-width: 0.8"/>
      </g>
     </g>
     <g id="text_9">
      <!-- 0 -->
      <g transform="translate(33.603125 265.318738) scale(0.1 -0.1)">
       <use xlink:href="#DejaVuSans-30"/>
      </g>
     </g>
    </g>
    <g id="ytick_2">
     <g id="line2d_9">
      <g>
       <use xlink:href="#m239d5af17b" x="46.965625" y="213.723374" style="stroke: #000000; stroke-width: 0.8"/>
      </g>
     </g>
     <g id="text_10">
      <!-- 50 -->
      <g transform="translate(27.240625 217.522593) scale(0.1 -0.1)">
       <defs>
        <path id="DejaVuSans-35" d="M 691 4666 
L 3169 4666 
L 3169 4134 
L 1269 4134 
L 1269 2991 
Q 1406 3038 1543 3061 
Q 1681 3084 1819 3084 
Q 2600 3084 3056 2656 
Q 3513 2228 3513 1497 
Q 3513 744 3044 326 
Q 2575 -91 1722 -91 
Q 1428 -91 1123 -41 
Q 819 9 494 109 
L 494 744 
Q 775 591 1075 516 
Q 1375 441 1709 441 
Q 2250 441 2565 725 
Q 2881 1009 2881 1497 
Q 2881 1984 2565 2268 
Q 2250 2553 1709 2553 
Q 1456 2553 1204 2497 
Q 953 2441 691 2322 
L 691 4666 
z
" transform="scale(0.015625)"/>
       </defs>
       <use xlink:href="#DejaVuSans-35"/>
       <use xlink:href="#DejaVuSans-30" transform="translate(63.623047 0)"/>
      </g>
     </g>
    </g>
    <g id="ytick_3">
     <g id="line2d_10">
      <g>
       <use xlink:href="#m239d5af17b" x="46.965625" y="165.927228" style="stroke: #000000; stroke-width: 0.8"/>
      </g>
     </g>
     <g id="text_11">
      <!-- 100 -->
      <g transform="translate(20.878125 169.726447) scale(0.1 -0.1)">
       <use xlink:href="#DejaVuSans-31"/>
       <use xlink:href="#DejaVuSans-30" transform="translate(63.623047 0)"/>
       <use xlink:href="#DejaVuSans-30" transform="translate(127.246094 0)"/>
      </g>
     </g>
    </g>
    <g id="ytick_4">
     <g id="line2d_11">
      <g>
       <use xlink:href="#m239d5af17b" x="46.965625" y="118.131082" style="stroke: #000000; stroke-width: 0.8"/>
      </g>
     </g>
     <g id="text_12">
      <!-- 150 -->
      <g transform="translate(20.878125 121.930301) scale(0.1 -0.1)">
       <use xlink:href="#DejaVuSans-31"/>
       <use xlink:href="#DejaVuSans-35" transform="translate(63.623047 0)"/>
       <use xlink:href="#DejaVuSans-30" transform="translate(127.246094 0)"/>
      </g>
     </g>
    </g>
    <g id="ytick_5">
     <g id="line2d_12">
      <g>
       <use xlink:href="#m239d5af17b" x="46.965625" y="70.334936" style="stroke: #000000; stroke-width: 0.8"/>
      </g>
     </g>
     <g id="text_13">
      <!-- 200 -->
      <g transform="translate(20.878125 74.134155) scale(0.1 -0.1)">
       <use xlink:href="#DejaVuSans-32"/>
       <use xlink:href="#DejaVuSans-30" transform="translate(63.623047 0)"/>
       <use xlink:href="#DejaVuSans-30" transform="translate(127.246094 0)"/>
      </g>
     </g>
    </g>
    <g id="ytick_6">
     <g id="line2d_13">
      <g>
       <use xlink:href="#m239d5af17b" x="46.965625" y="22.53879" style="stroke: #000000; stroke-width: 0.8"/>
      </g>
     </g>
     <g id="text_14">
      <!-- 250 -->
      <g transform="translate(20.878125 26.338009) scale(0.1 -0.1)">
       <use xlink:href="#DejaVuSans-32"/>
       <use xlink:href="#DejaVuSans-35" transform="translate(63.623047 0)"/>
       <use xlink:href="#DejaVuSans-30" transform="translate(127.246094 0)"/>
      </g>
     </g>
    </g>
    <g id="text_15">
     <!-- bp -->
     <g transform="translate(14.798438 146.604437) rotate(-90) scale(0.1 -0.1)">
      <defs>
       <path id="DejaVuSans-62" d="M 3116 1747 
Q 3116 2381 2855 2742 
Q 2594 3103 2138 3103 
Q 1681 3103 1420 2742 
Q 1159 2381 1159 1747 
Q 1159 1113 1420 752 
Q 1681 391 2138 391 
Q 2594 391 2855 752 
Q 3116 1113 3116 1747 
z
M 1159 2969 
Q 1341 3281 1617 3432 
Q 1894 3584 2278 3584 
Q 2916 3584 3314 3078 
Q 3713 2572 3713 1747 
Q 3713 922 3314 415 
Q 2916 -91 2278 -91 
Q 1894 -91 1617 61 
Q 1341 213 1159 525 
L 1159 0 
L 581 0 
L 581 4863 
L 1159 4863 
L 1159 2969 
z
" transform="scale(0.015625)"/>
       <path id="DejaVuSans-70" d="M 1159 525 
L 1159 -1331 
L 581 -1331 
L 581 3500 
L 1159 3500 
L 1159 2969 
Q 1341 3281 1617 3432 
Q 1894 3584 2278 3584 
Q 2916 3584 3314 3078 
Q 3713 2572 3713 1747 
Q 3713 922 3314 415 
Q 2916 -91 2278 -91 
Q 1894 -91 1617 61 
Q 1341 213 1159 525 
z
M 3116 1747 
Q 3116 2381 2855 2742 
Q 2594 3103 2138 3103 
Q 1681 3103 1420 2742 
Q 1159 2381 1159 1747 
Q 1159 1113 1420 752 
Q 1681 391 2138 391 
Q 2594 391 2855 752 
Q 3116 1113 3116 1747 
z
" transform="scale(0.015625)"/>
      </defs>
      <use xlink:href="#DejaVuSans-62"/>
      <use xlink:href="#DejaVuSans-70" transform="translate(63.476562 0)"/>
     </g>
    </g>
   </g>
   <g id="line2d_14">
    <path d="M 63.198352 228.073753 
L 66.477691 226.205176 
L 69.75703 224.3366 
L 73.036369 222.468024 
L 76.315708 220.599447 
L 79.595046 218.730871 
L 82.874385 216.862295 
L 86.153724 214.993719 
L 89.433063 213.125142 
L 92.712402 211.256566 
L 95.991741 209.38799 
L 99.27108 207.519413 
L 102.550418 205.650837 
L 105.829757 203.782261 
L 109.109096 201.913684 
L 112.388435 200.045108 
L 115.667774 198.176532 
L 118.947113 196.307956 
L 122.226451 194.439379 
L 125.50579 192.570803 
L 128.785129 190.702227 
L 132.064468 188.83365 
L 135.343807 186.965074 
L 138.623146 185.096498 
L 141.902485 183.227921 
L 145.181823 181.359345 
L 148.461162 179.490769 
L 151.740501 177.622193 
L 155.01984 175.753616 
L 158.299179 173.88504 
L 161.578518 172.016464 
L 164.857856 170.147887 
L 168.137195 168.279311 
L 171.416534 166.410735 
L 174.695873 164.542158 
L 177.975212 162.673582 
L 181.254551 160.805006 
L 184.533889 158.936429 
L 187.813228 157.067853 
L 191.092567 155.199277 
L 194.371906 153.330701 
L 197.651245 151.462124 
L 200.930584 149.593548 
L 204.209923 147.724972 
L 207.489261 145.856395 
L 210.7686 143.987819 
L 214.047939 142.119243 
L 217.327278 140.250666 
L 220.606617 138.38209 
L 223.885956 136.513514 
L 227.165294 134.644938 
L 230.444633 132.776361 
L 233.723972 130.907785 
L 237.003311 129.039209 
L 240.28265 127.170632 
L 243.561989 125.302056 
L 246.841327 123.43348 
L 250.120666 121.564903 
L 253.400005 119.696327 
L 256.679344 117.827751 
L 259.958683 115.959175 
L 263.238022 114.090598 
L 266.517361 112.222022 
L 269.796699 110.353446 
L 273.076038 108.484869 
L 276.355377 106.616293 
L 279.634716 104.747717 
L 282.914055 102.87914 
L 286.193394 101.010564 
L 289.472732 99.141988 
L 292.752071 97.273412 
L 296.03141 95.404835 
L 299.310749 93.536259 
L 302.590088 91.667683 
L 305.869427 89.799106 
L 309.148765 87.93053 
L 312.428104 86.061954 
L 315.707443 84.193377 
L 318.986782 82.324801 
L 322.266121 80.456225 
L 325.54546 78.587649 
L 328.824799 76.719072 
L 332.104137 74.850496 
L 335.383476 72.98192 
L 338.662815 71.113343 
L 341.942154 69.244767 
L 345.221493 67.376191 
L 348.500832 65.507614 
L 351.78017 63.639038 
L 355.059509 61.770462 
L 358.338848 59.901885 
L 361.618187 58.033309 
L 364.897526 56.164733 
L 368.176865 54.296157 
L 371.456204 52.42758 
L 374.735542 50.559004 
L 378.014881 48.690428 
L 381.29422 46.821851 
L 384.573559 44.953275 
L 387.852898 43.084699 
" clip-path="url(#p6665609ef1)" style="fill: none; stroke: #1f77b4; stroke-width: 2.25; stroke-linecap: square"/>
   </g>
   <g id="patch_3">
    <path d="M 46.965625 273.312 
L 46.965625 7.2 
" style="fill: none; stroke: #000000; stroke-width: 0.8; stroke-linejoin: miter; stroke-linecap: square"/>
   </g>
   <g id="patch_4">
    <path d="M 404.085625 273.312 
L 404.085625 7.2 
" style="fill: none; stroke: #000000; stroke-width: 0.8; stroke-linejoin: miter; stroke-linecap: square"/>
   </g>
   <g id="patch_5">
    <path d="M 46.965625 273.312 
L 404.085625 273.312 
" style="fill: none; stroke: #000000; stroke-width: 0.8; stroke-linejoin: miter; stroke-linecap: square"/>
   </g>
   <g id="patch_6">
    <path d="M 46.965625 7.2 
L 404.085625 7.2 
" style="fill: none; stroke: #000000; stroke-width: 0.8; stroke-linejoin: miter; stroke-linecap: square"/>
   </g>
  </g>
 </g>
 <defs>
  <clipPath id="p6665609ef1">
   <rect x="46.965625" y="7.2" width="357.12" height="266.112"/>
  </clipPath>
 </defs>
</svg>