<?xml version="1.0" encoding="utf-8" standalone="no"?>
<!DOCTYPE svg PUBLIC "-//W3C//DTD SVG 1.1//EN"
  "http://www.w3.org/Graphics/SVG/1.1/DTD/svg11.dtd">
<svg xmlns:xlink="http://www.w3.org/1999/xlink" width="411.285625pt" height="310.86825pt" viewBox="0 0 411.285625 310.86825" xmlns="http://www.w3.org/2000/svg" version="1.1">
 <metadata>
  <rdf:RDF xmlns:dc="http://purl.org/dc/elements/1.1/" xmlns:cc="http://creativecommons.org/ns#" xmlns:rdf="http://www.w3.org/1999/02/22-rdf-syntax-ns#">
   <cc:Work>
    <dc:type rdf:resource="http://purl.org/dc/dcmitype/StillImage"/>
    <dc:date>2023-05-07T08:37:29.304325</dc:date>
    <dc:format>image/svg+xml</dc:format>
    <dc:creator>
     <cc:Agent>
      <dc:title>Matplotlib v3.7.1, https://matplotlib.org/</dc:title>
     </cc:Agent>
    </dc:creator>
   </cc:Work>
  </rdf:RDF>
 </metadata>
 <defs>
  <style type="text/css">*{stroke-linejoin: round; stroke-linecap: butt}</style>
 </defs>
 <g id="figure_1">
  <g id="patch_1">
   <path d="M 0 310.86825 
L 411.285625 310.86825 
L 411.285625 0 
L 0 0 
z
" style="fill: #ffffff"/>
  </g>
  <g id="axes_1">
   <g id="patch_2">
    <path d="M 46.965625 273.312 
L 404.085625 273.312 
L 404.085625 7.2 
L 46.965625 7.2 
z
" style="fill: #ffffff"/>
   </g>
   <g id="PathCollection_1">
    <defs>
     <path id="me8e8875c5b" d="M 0 3 
C 0.795609 3 1.55874 2.683901 2.12132 2.12132 
C 2.683901 1.55874 3 0.795609 3 0 
C 3 -0.795609 2.683901 -1.55874 2.12132 -2.12132 
C 1.55874 -2.683901 0.795609 -3 0 -3 
C -0.795609 -3 -1.55874 -2.683901 -2.12132 -2.12132 
C -2.683901 -1.55874 -3 -0.795609 -3 0 
C -3 0.795609 -2.683901 1.55874 -2.12132 2.12132 
C -1.55874 2.683901 -0.795609 3 0 3 
z
" style="stroke: #1f77b4; stroke-opacity: 0.8"/>
    </defs>
    <g clip-path="url(#p39e359ff98)">
     <use xlink:href="#me8e8875c5b" x="63.198352" y="196.742473" style="fill: #1f77b4; fill-opacity: 0.8; stroke: #1f77b4; stroke-opacity: 0.8"/>
     <use xlink:href="#me8e8875c5b" x="96.1333" y="184.448583" style="fill: #1f77b4; fill-opacity: 0.8; stroke: #1f77b4; stroke-opacity: 0.8"/>
     <use xlink:href="#me8e8875c5b" x="129.068248" y="165.534906" style="fill: #1f77b4; fill-opacity: 0.8; stroke: #1f77b4; stroke-opacity: 0.8"/>
     <use xlink:href="#me8e8875c5b" x="161.979721" y="146.621228" style="fill: #1f77b4; fill-opacity: 0.8; stroke: #1f77b4; stroke-opacity: 0.8"/>
     <use xlink:href="#me8e8875c5b" x="194.914669" y="126.761867" style="fill: #1f77b4; fill-opacity: 0.8; stroke: #1f77b4; stroke-opacity: 0.8"/>
     <use xlink:href="#me8e8875c5b" x="227.849616" y="109.739557" style="fill: #1f77b4; fill-opacity: 0.8; stroke: #1f77b4; stroke-opacity: 0.8"/>
     <use xlink:href="#me8e8875c5b" x="260.761089" y="91.771564" style="fill: #1f77b4; fill-opacity: 0.8; stroke: #1f77b4; stroke-opacity: 0.8"/>
     <use xlink:href="#me8e8875c5b" x="293.696037" y="73.80357" style="fill: #1f77b4; fill-opacity: 0.8; stroke: #1f77b4; stroke-opacity: 0.8"/>
     <use xlink:href="#me8e8875c5b" x="326.60751" y="57.726944" style="fill: #1f77b4; fill-opacity: 0.8; stroke: #1f77b4; stroke-opacity: 0.8"/>
     <use xlink:href="#me8e8875c5b" x="359.542458" y="38.813267" style="fill: #1f77b4; fill-opacity: 0.8; stroke: #1f77b4; stroke-opacity: 0.8"/>
     <use xlink:href="#me8e8875c5b" x="157.355213" y="224.167306" style="fill: #1f77b4; fill-opacity: 0.8; stroke: #1f77b4; stroke-opacity: 0.8"/>
     <use xlink:href="#me8e8875c5b" x="190.290161" y="192.959738" style="fill: #1f77b4; fill-opacity: 0.8; stroke: #1f77b4; stroke-opacity: 0.8"/>
     <use xlink:href="#me8e8875c5b" x="223.225108" y="165.534906" style="fill: #1f77b4; fill-opacity: 0.8; stroke: #1f77b4; stroke-opacity: 0.8"/>
     <use xlink:href="#me8e8875c5b" x="256.136581" y="139.055757" style="fill: #1f77b4; fill-opacity: 0.8; stroke: #1f77b4; stroke-opacity: 0.8"/>
     <use xlink:href="#me8e8875c5b" x="289.071529" y="115.41366" style="fill: #1f77b4; fill-opacity: 0.8; stroke: #1f77b4; stroke-opacity: 0.8"/>
     <use xlink:href="#me8e8875c5b" x="322.006477" y="93.662931" style="fill: #1f77b4; fill-opacity: 0.8; stroke: #1f77b4; stroke-opacity: 0.8"/>
     <use xlink:href="#me8e8875c5b" x="354.91795" y="72.857886" style="fill: #1f77b4; fill-opacity: 0.8; stroke: #1f77b4; stroke-opacity: 0.8"/>
     <use xlink:href="#me8e8875c5b" x="387.852898" y="53.944209" style="fill: #1f77b4; fill-opacity: 0.8; stroke: #1f77b4; stroke-opacity: 0.8"/>
     <use xlink:href="#me8e8875c5b" x="190.290161" y="198.633841" style="fill: #1f77b4; fill-opacity: 0.8; stroke: #1f77b4; stroke-opacity: 0.8"/>
     <use xlink:href="#me8e8875c5b" x="256.136581" y="147.566912" style="fill: #1f77b4; fill-opacity: 0.8; stroke: #1f77b4; stroke-opacity: 0.8"/>
     <use xlink:href="#me8e8875c5b" x="157.355213" y="231.732777" style="fill: #1f77b4; fill-opacity: 0.8; stroke: #1f77b4; stroke-opacity: 0.8"/>
     <use xlink:href="#me8e8875c5b" x="223.225108" y="182.557215" style="fill: #1f77b4; fill-opacity: 0.8; stroke: #1f77b4; stroke-opacity: 0.8"/>
     <use xlink:href="#me8e8875c5b" x="161.979721" y="156.078067" style="fill: #1f77b4; fill-opacity: 0.8; stroke: #1f77b4; stroke-opacity: 0.8"/>
     <use xlink:href="#me8e8875c5b" x="161.979721" y="179.720164" style="fill: #1f77b4; fill-opacity: 0.8; stroke: #1f77b4; stroke-opacity: 0.8"/>
     <use xlink:href="#me8e8875c5b" x="194.914669" y="134.327338" style="fill: #1f77b4; fill-opacity: 0.8; stroke: #1f77b4; stroke-opacity: 0.8"/>
     <use xlink:href="#me8e8875c5b" x="227.849616" y="130.544602" style="fill: #1f77b4; fill-opacity: 0.8; stroke: #1f77b4; stroke-opacity: 0.8"/>
     <use xlink:href="#me8e8875c5b" x="260.761089" y="125.816183" style="fill: #1f77b4; fill-opacity: 0.8; stroke: #1f77b4; stroke-opacity: 0.8"/>
     <use xlink:href="#me8e8875c5b" x="208.905566" y="86.097461" style="fill: #1f77b4; fill-opacity: 0.8; stroke: #1f77b4; stroke-opacity: 0.8"/>
     <use xlink:href="#me8e8875c5b" x="241.840514" y="67.183783" style="fill: #1f77b4; fill-opacity: 0.8; stroke: #1f77b4; stroke-opacity: 0.8"/>
     <use xlink:href="#me8e8875c5b" x="307.686934" y="50.161473" style="fill: #1f77b4; fill-opacity: 0.8; stroke: #1f77b4; stroke-opacity: 0.8"/>
    </g>
   </g>
   <g id="PolyCollection_1">
    <path d="M 63.198352 204.63965 
L 63.198352 261.216 
L 66.477691 258.863343 
L 69.75703 256.510687 
L 73.036369 254.157734 
L 76.315708 251.802915 
L 79.595046 249.359868 
L 82.874385 246.992757 
L 86.153724 244.547852 
L 89.433063 242.211766 
L 92.712402 239.895491 
L 95.991741 237.53195 
L 99.27108 235.167777 
L 102.550418 232.802428 
L 105.829757 230.434653 
L 109.109096 228.066804 
L 112.388435 225.659407 
L 115.667774 223.211896 
L 118.947113 220.764384 
L 122.226451 218.316873 
L 125.50579 216.044625 
L 128.785129 213.848079 
L 132.064468 211.433748 
L 135.343807 209.00463 
L 138.623146 206.575511 
L 141.902485 204.181636 
L 145.181823 201.87976 
L 148.461162 199.577884 
L 151.740501 197.276008 
L 155.01984 194.945955 
L 158.299179 192.58184 
L 161.578518 190.217726 
L 164.857856 187.851735 
L 168.137195 185.346958 
L 171.416534 183.052596 
L 174.695873 180.751744 
L 177.975212 178.321693 
L 181.254551 175.958477 
L 184.533889 173.653589 
L 187.813228 171.291666 
L 191.092567 169.070513 
L 194.371906 166.858241 
L 197.651245 164.427146 
L 200.930584 162.251446 
L 204.209923 160.118046 
L 207.489261 157.885202 
L 210.7686 155.891766 
L 214.047939 153.577728 
L 217.327278 151.434133 
L 220.606617 149.305939 
L 223.885956 147.362301 
L 227.165294 145.331787 
L 230.444633 143.208942 
L 233.723972 141.02721 
L 237.003311 139.094779 
L 240.28265 136.917669 
L 243.561989 134.932302 
L 246.841327 132.759226 
L 250.120666 130.996583 
L 253.400005 129.163667 
L 256.679344 127.326389 
L 259.958683 125.436097 
L 263.238022 123.527679 
L 266.517361 121.765964 
L 269.796699 119.909677 
L 273.076038 117.984275 
L 276.355377 116.358757 
L 279.634716 114.58923 
L 282.914055 112.861176 
L 286.193394 111.168247 
L 289.472732 109.212258 
L 292.752071 107.368526 
L 296.03141 105.639909 
L 299.310749 103.771672 
L 302.590088 101.954332 
L 305.869427 100.25806 
L 309.148765 98.417946 
L 312.428104 96.741539 
L 315.707443 95.065132 
L 318.986782 93.305438 
L 322.266121 91.56507 
L 325.54546 90.029288 
L 328.824799 88.37172 
L 332.104137 86.697189 
L 335.383476 84.996696 
L 338.662815 83.215043 
L 341.942154 81.574564 
L 345.221493 79.999812 
L 348.500832 78.330017 
L 351.78017 76.658225 
L 355.059509 75.096936 
L 358.338848 73.487664 
L 361.618187 71.897051 
L 364.897526 70.242472 
L 368.176865 68.651497 
L 371.456204 67.060522 
L 374.735542 65.469547 
L 378.014881 63.88245 
L 381.29422 62.306135 
L 384.573559 60.72982 
L 387.852898 59.153506 
L 387.852898 19.296 
L 387.852898 19.296 
L 384.573559 21.896869 
L 381.29422 24.436846 
L 378.014881 26.686711 
L 374.735542 29.053731 
L 371.456204 31.251489 
L 368.176865 33.411336 
L 364.897526 35.647785 
L 361.618187 37.90242 
L 358.338848 40.080785 
L 355.059509 42.361177 
L 351.78017 44.601917 
L 348.500832 46.847111 
L 345.221493 49.260395 
L 341.942154 51.726659 
L 338.662815 54.003526 
L 335.383476 56.170279 
L 332.104137 58.445539 
L 328.824799 60.781286 
L 325.54546 62.891673 
L 322.266121 64.884054 
L 318.986782 67.010048 
L 315.707443 69.200275 
L 312.428104 71.304707 
L 309.148765 73.325422 
L 305.869427 75.479891 
L 302.590088 77.459699 
L 299.310749 79.443731 
L 296.03141 81.553613 
L 292.752071 83.544334 
L 289.472732 85.565461 
L 286.193394 87.492143 
L 282.914055 89.375176 
L 279.634716 91.34191 
L 276.355377 93.243321 
L 273.076038 95.16974 
L 269.796699 97.438441 
L 266.517361 99.354367 
L 263.238022 101.252714 
L 259.958683 103.141771 
L 256.679344 105.037084 
L 253.400005 106.933298 
L 250.120666 108.923349 
L 246.841327 110.766823 
L 243.561989 112.54622 
L 240.28265 114.363087 
L 237.003311 116.216304 
L 233.723972 118.003428 
L 230.444633 119.781984 
L 227.165294 121.5585 
L 223.885956 123.298808 
L 220.606617 125.109352 
L 217.327278 126.863883 
L 214.047939 128.578061 
L 210.7686 130.393917 
L 207.489261 132.078044 
L 204.209923 133.802613 
L 200.930584 135.562197 
L 197.651245 137.479545 
L 194.371906 139.262337 
L 191.092567 141.045128 
L 187.813228 142.801919 
L 184.533889 144.38792 
L 181.254551 146.030663 
L 177.975212 147.86229 
L 174.695873 149.658625 
L 171.416534 151.207768 
L 168.137195 152.768558 
L 164.857856 154.540838 
L 161.578518 156.357147 
L 158.299179 158.088525 
L 155.01984 159.698795 
L 151.740501 161.31977 
L 148.461162 163.114396 
L 145.181823 164.945044 
L 141.902485 166.520498 
L 138.623146 168.089786 
L 135.343807 169.644233 
L 132.064468 171.272472 
L 128.785129 172.985853 
L 125.50579 174.569556 
L 122.226451 176.155444 
L 118.947113 177.742206 
L 115.667774 179.30678 
L 112.388435 180.81391 
L 109.109096 182.304825 
L 105.829757 183.831991 
L 102.550418 185.402362 
L 99.27108 187.007324 
L 95.991741 188.615525 
L 92.712402 190.261563 
L 89.433063 191.962122 
L 86.153724 193.581176 
L 82.874385 195.165897 
L 79.595046 196.750618 
L 76.315708 198.335339 
L 73.036369 199.967143 
L 69.75703 201.521567 
L 66.477691 203.089502 
L 63.198352 204.63965 
z
" clip-path="url(#p39e359ff98)" style="fill: #1f77b4; fill-opacity: 0.15"/>
   </g>
   <g id="matplotlib.axis_1">
    <g id="xtick_1">
     <g id="line2d_1">
      <defs>
       <path id="md6f285b9e5" d="M 0 0 
L 0 3.5 
" style="stroke: #000000; stroke-width: 0.8"/>
      </defs>
      <g>
       <use xlink:href="#md6f285b9e5" x="81.884181" y="273.312" style="stroke: #000000; stroke-width: 0.8"/>
      </g>
     </g>
     <g id="text_1">
      <!-- 40 -->
      <g transform="translate(75.521681 287.910437) scale(0.1 -0.1)">
       <defs>
        <path id="DejaVuSans-34" d="M 2419 4116 
L 825 1625 
L 2419 1625 
L 2419 4116 
z
M 2253 4666 
L 3047 4666 
L 3047 1625 
L 3713 1625 
L 3713 1100 
L 3047 1100 
L 3047 0 
L 2419 0 
L 2419 1100 
L 313 1100 
L 313 1709 
L 2253 4666 
z
" transform="scale(0.015625)"/>
        <path id="DejaVuSans-30" d="M 2034 4250 
Q 1547 4250 1301 3770 
Q 1056 3291 1056 2328 
Q 1056 1369 1301 889 
Q 1547 409 2034 409 
Q 2525 409 2770 889 
Q 3016 1369 3016 2328 
Q 3016 3291 2770 3770 
Q 2525 4250 2034 4250 
z
M 2034 4750 
Q 2819 4750 3233 4129 
Q 3647 3509 3647 2328 
Q 3647 1150 3233 529 
Q 2819 -91 2034 -91 
Q 1250 -91 836 529 
Q 422 1150 422 2328 
Q 422 3509 836 4129 
Q 1250 4750 2034 4750 
z
" transform="scale(0.015625)"/>
       </defs>
       <use xlink:href="#DejaVuSans-34"/>
       <use xlink:href="#DejaVuSans-30" x="63.623047"/>
      </g>
     </g>
    </g>
    <g id="xtick_2">
     <g id="line2d_2">
      <g>
       <use xlink:href="#md6f285b9e5" x="128.833501" y="273.312" style="stroke: #000000; stroke-width: 0.8"/>
      </g>
     </g>
     <g id="text_2">
      <!-- 60 -->
      <g transform="translate(122.471001 287.910437) scale(0.1 -0.1)">
       <defs>
        <path id="DejaVuSans-36" d="M 2113 2584 
Q 1688 2584 1439 2293 
Q 1191 2003 1191 1497 
Q 1191 994 1439 701 
Q 1688 409 2113 409 
Q 2538 409 2786 701 
Q 3034 994 3034 1497 
Q 3034 2003 2786 2293 
Q 2538 2584 2113 2584 
z
M 3366 4563 
L 3366 3988 
Q 3128 4100 2886 4159 
Q 2644 4219 2406 4219 
Q 1781 4219 1451 3797 
Q 1122 3375 1075 2522 
Q 1259 2794 1537 2939 
Q 1816 3084 2150 3084 
Q 2853 3084 3261 2657 
Q 3669 2231 3669 1497 
Q 3669 778 3244 343 
Q 2819 -91 2113 -91 
Q 1303 -91 875 529 
Q 447 1150 447 2328 
Q 447 3434 972 4092 
Q 1497 4750 2381 4750 
Q 2619 4750 2861 4703 
Q 3103 4656 3366 4563 
z
" transform="scale(0.015625)"/>
       </defs>
       <use xlink:href="#DejaVuSans-36"/>
       <use xlink:href="#DejaVuSans-30" x="63.623047"/>
      </g>
     </g>
    </g>
    <g id="xtick_3">
     <g id="line2d_3">
      <g>
       <use xlink:href="#md6f285b9e5" x="175.782821" y="273.312" style="stroke: #000000; stroke-width: 0.8"/>
      </g>
     </g>
     <g id="text_3">
      <!-- 80 -->
      <g transform="translate(169.420321 287.910437) scale(0.1 -0.1)">
       <defs>
        <path id="DejaVuSans-38" d="M 2034 2216 
Q 1584 2216 1326 1975 
Q 1069 1734 1069 1313 
Q 1069 891 1326 650 
Q 1584 409 2034 409 
Q 2484 409 2743 651 
Q 3003 894 3003 1313 
Q 3003 1734 2745 1975 
Q 2488 2216 2034 2216 
z
M 1403 2484 
Q 997 2584 770 2862 
Q 544 3141 544 3541 
Q 544 4100 942 4425 
Q 1341 4750 2034 4750 
Q 2731 4750 3128 4425 
Q 3525 4100 3525 3541 
Q 3525 3141 3298 2862 
Q 3072 2584 2669 2484 
Q 3125 2378 3379 2068 
Q 3634 1759 3634 1313 
Q 3634 634 3220 271 
Q 2806 -91 2034 -91 
Q 1263 -91 848 271 
Q 434 634 434 1313 
Q 434 1759 690 2068 
Q 947 2378 1403 2484 
z
M 1172 3481 
Q 1172 3119 1398 2916 
Q 1625 2713 2034 2713 
Q 2441 2713 2670 2916 
Q 2900 3119 2900 3481 
Q 2900 3844 2670 4047 
Q 2441 4250 2034 4250 
Q 1625 4250 1398 4047 
Q 1172 3844 1172 3481 
z
" transform="scale(0.015625)"/>
       </defs>
       <use xlink:href="#DejaVuSans-38"/>
       <use xlink:href="#DejaVuSans-30" x="63.623047"/>
      </g>
     </g>
    </g>
    <g id="xtick_4">
     <g id="line2d_4">
      <g>
       <use xlink:href="#md6f285b9e5" x="222.73214" y="273.312" style="stroke: #000000; stroke-width: 0.8"/>
      </g>
     </g>
     <g id="text_4">
      <!-- 100 -->
      <g transform="translate(213.18839 287.910437) scale(0.1 -0.1)">
       <defs>
        <path id="DejaVuSans-31" d="M 794 531 
L 1825 531 
L 1825 4091 
L 703 3866 
L 703 4441 
L 1819 4666 
L 2450 4666 
L 2450 531 
L 3481 531 
L 3481 0 
L 794 0 
L 794 531 
z
" transform="scale(0.015625)"/>
       </defs>
       <use xlink:href="#DejaVuSans-31"/>
       <use xlink:href="#DejaVuSans-30" x="63.623047"/>
       <use xlink:href="#DejaVuSans-30" x="127.246094"/>
      </g>
     </g>
    </g>
    <g id="xtick_5">
     <g id="line2d_5">
      <g>
       <use xlink:href="#md6f285b9e5" x="269.68146" y="273.312" style="stroke: #000000; stroke-width: 0.8"/>
      </g>
     </g>
     <g id="text_5">
      <!-- 120 -->
      <g transform="translate(260.13771 287.910437) scale(0.1 -0.1)">
       <defs>
        <path id="DejaVuSans-32" d="M 1228 531 
L 3431 531 
L 3431 0 
L 469 0 
L 469 531 
Q 828 903 1448 1529 
Q 2069 2156 2228 2338 
Q 2531 2678 2651 2914 
Q 2772 3150 2772 3378 
Q 2772 3750 2511 3984 
Q 2250 4219 1831 4219 
Q 1534 4219 1204 4116 
Q 875 4013 500 3803 
L 500 4441 
Q 881 4594 1212 4672 
Q 1544 4750 1819 4750 
Q 2544 4750 2975 4387 
Q 3406 4025 3406 3419 
Q 3406 3131 3298 2873 
Q 3191 2616 2906 2266 
Q 2828 2175 2409 1742 
Q 1991 1309 1228 531 
z
" transform="scale(0.015625)"/>
       </defs>
       <use xlink:href="#DejaVuSans-31"/>
       <use xlink:href="#DejaVuSans-32" x="63.623047"/>
       <use xlink:href="#DejaVuSans-30" x="127.246094"/>
      </g>
     </g>
    </g>
    <g id="xtick_6">
     <g id="line2d_6">
      <g>
       <use xlink:href="#md6f285b9e5" x="316.63078" y="273.312" style="stroke: #000000; stroke-width: 0.8"/>
      </g>
     </g>
     <g id="text_6">
      <!-- 140 -->
      <g transform="translate(307.08703 287.910437) scale(0.1 -0.1)">
       <use xlink:href="#DejaVuSans-31"/>
       <use xlink:href="#DejaVuSans-34" x="63.623047"/>
       <use xlink:href="#DejaVuSans-30" x="127.246094"/>
      </g>
     </g>
    </g>
    <g id="xtick_7">
     <g id="line2d_7">
      <g>
       <use xlink:href="#md6f285b9e5" x="363.580099" y="273.312" style="stroke: #000000; stroke-width: 0.8"/>
      </g>
     </g>
     <g id="text_7">
      <!-- 160 -->
      <g transform="translate(354.036349 287.910437) scale(0.1 -0.1)">
       <use xlink:href="#DejaVuSans-31"/>
       <use xlink:href="#DejaVuSans-36" x="63.623047"/>
       <use xlink:href="#DejaVuSans-30" x="127.246094"/>
      </g>
     </g>
    </g>
    <g id="text_8">
     <!-- MW -->
     <g transform="translate(216.267813 301.588562) scale(0.1 -0.1)">
      <defs>
       <path id="DejaVuSans-4d" d="M 628 4666 
L 1569 4666 
L 2759 1491 
L 3956 4666 
L 4897 4666 
L 4897 0 
L 4281 0 
L 4281 4097 
L 3078 897 
L 2444 897 
L 1241 4097 
L 1241 0 
L 628 0 
L 628 4666 
z
" transform="scale(0.015625)"/>
       <path id="DejaVuSans-57" d="M 213 4666 
L 850 4666 
L 1831 722 
L 2809 4666 
L 3519 4666 
L 4500 722 
L 5478 4666 
L 6119 4666 
L 4947 0 
L 4153 0 
L 3169 4050 
L 2175 0 
L 1381 0 
L 213 4666 
z
" transform="scale(0.015625)"/>
      </defs>
      <use xlink:href="#DejaVuSans-4d"/>
      <use xlink:href="#DejaVuSans-57" x="86.279297"/>
     </g>
    </g>
   </g>
   <g id="matplotlib.axis_2">
    <g id="ytick_1">
     <g id="line2d_8">
      <defs>
       <path id="m718c9c393a" d="M 0 0 
L -3.5 0 
" style="stroke: #000000; stroke-width: 0.8"/>
      </defs>
      <g>
       <use xlink:href="#m718c9c393a" x="46.965625" y="258.211925" style="stroke: #000000; stroke-width: 0.8"/>
      </g>
     </g>
     <g id="text_9">
      <!-- 0 -->
      <g transform="translate(33.603125 262.011144) scale(0.1 -0.1)">
       <use xlink:href="#DejaVuSans-30"/>
      </g>
     </g>
    </g>
    <g id="ytick_2">
     <g id="line2d_9">
      <g>
       <use xlink:href="#m718c9c393a" x="46.965625" y="210.927731" style="stroke: #000000; stroke-width: 0.8"/>
      </g>
     </g>
     <g id="text_10">
      <!-- 50 -->
      <g transform="translate(27.240625 214.72695) scale(0.1 -0.1)">
       <defs>
        <path id="DejaVuSans-35" d="M 691 4666 
L 3169 4666 
L 3169 4134 
L 1269 4134 
L 1269 2991 
Q 1406 3038 1543 3061 
Q 1681 3084 1819 3084 
Q 2600 3084 3056 2656 
Q 3513 2228 3513 1497 
Q 3513 744 3044 326 
Q 2575 -91 1722 -91 
Q 1428 -91 1123 -41 
Q 819 9 494 109 
L 494 744 
Q 775 591 1075 516 
Q 1375 441 1709 441 
Q 2250 441 2565 725 
Q 2881 1009 2881 1497 
Q 2881 1984 2565 2268 
Q 2250 2553 1709 2553 
Q 1456 2553 1204 2497 
Q 953 2441 691 2322 
L 691 4666 
z
" transform="scale(0.015625)"/>
       </defs>
       <use xlink:href="#DejaVuSans-35"/>
       <use xlink:href="#DejaVuSans-30" x="63.623047"/>
      </g>
     </g>
    </g>
    <g id="ytick_3">
     <g id="line2d_10">
      <g>
       <use xlink:href="#m718c9c393a" x="46.965625" y="163.643538" style="stroke: #000000; stroke-width: 0.8"/>
      </g>
     </g>
     <g id="text_11">
      <!-- 100 -->
      <g transform="translate(20.878125 167.442757) scale(0.1 -0.1)">
       <use xlink:href="#DejaVuSans-31"/>
       <use xlink:href="#DejaVuSans-30" x="63.623047"/>
       <use xlink:href="#DejaVuSans-30" x="127.246094"/>
      </g>
     </g>
    </g>
    <g id="ytick_4">
     <g id="line2d_11">
      <g>
       <use xlink:href="#m718c9c393a" x="46.965625" y="116.359344" style="stroke: #000000; stroke-width: 0.8"/>
      </g>
     </g>
     <g id="text_12">
      <!-- 150 -->
      <g transform="translate(20.878125 120.158563) scale(0.1 -0.1)">
       <use xlink:href="#DejaVuSans-31"/>
       <use xlink:href="#DejaVuSans-35" x="63.623047"/>
       <use xlink:href="#DejaVuSans-30" x="127.246094"/>
      </g>
     </g>
    </g>
    <g id="ytick_5">
     <g id="line2d_12">
      <g>
       <use xlink:href="#m718c9c393a" x="46.965625" y="69.075151" style="stroke: #000000; stroke-width: 0.8"/>
      </g>
     </g>
     <g id="text_13">
      <!-- 200 -->
      <g transform="translate(20.878125 72.87437) scale(0.1 -0.1)">
       <use xlink:href="#DejaVuSans-32"/>
       <use xlink:href="#DejaVuSans-30" x="63.623047"/>
       <use xlink:href="#DejaVuSans-30" x="127.246094"/>
      </g>
     </g>
    </g>
    <g id="ytick_6">
     <g id="line2d_13">
      <g>
       <use xlink:href="#m718c9c393a" x="46.965625" y="21.790957" style="stroke: #000000; stroke-width: 0.8"/>
      </g>
     </g>
     <g id="text_14">
      <!-- 250 -->
      <g transform="translate(20.878125 25.590176) scale(0.1 -0.1)">
       <use xlink:href="#DejaVuSans-32"/>
       <use xlink:href="#DejaVuSans-35" x="63.623047"/>
       <use xlink:href="#DejaVuSans-30" x="127.246094"/>
      </g>
     </g>
    </g>
    <g id="text_15">
     <!-- bp -->
     <g transform="translate(14.798438 146.604437) rotate(-90) scale(0.1 -0.1)">
      <defs>
       <path id="DejaVuSans-62" d="M 3116 1747 
Q 3116 2381 2855 2742 
Q 2594 3103 2138 3103 
Q 1681 3103 1420 2742 
Q 1159 2381 1159 1747 
Q 1159 1113 1420 752 
Q 1681 391 2138 391 
Q 2594 391 2855 752 
Q 3116 1113 3116 1747 
z
M 1159 2969 
Q 1341 3281 1617 3432 
Q 1894 3584 2278 3584 
Q 2916 3584 3314 3078 
Q 3713 2572 3713 1747 
Q 3713 922 3314 415 
Q 2916 -91 2278 -91 
Q 1894 -91 1617 61 
Q 1341 213 1159 525 
L 1159 0 
L 581 0 
L 581 4863 
L 1159 4863 
L 1159 2969 
z
" transform="scale(0.015625)"/>
       <path id="DejaVuSans-70" d="M 1159 525 
L 1159 -1331 
L 581 -1331 
L 581 3500 
L 1159 3500 
L 1159 2969 
Q 1341 3281 1617 3432 
Q 1894 3584 2278 3584 
Q 2916 3584 3314 3078 
Q 3713 2572 3713 1747 
Q 3713 922 3314 415 
Q 2916 -91 2278 -91 
Q 1894 -91 1617 61 
Q 1341 213 1159 525 
z
M 3116 1747 
Q 3116 2381 2855 2742 
Q 2594 3103 2138 3103 
Q 1681 3103 1420 2742 
Q 1159 2381 1159 1747 
Q 1159 1113 1420 752 
Q 1681 391 2138 391 
Q 2594 391 2855 752 
Q 3116 1113 3116 1747 
z
" transform="scale(0.015625)"/>
      </defs>
      <use xlink:href="#DejaVuSans-62"/>
      <use xlink:href="#DejaVuSans-70" x="63.476562"/>
     </g>
    </g>
   </g>
   <g id="line2d_14">
    <path d="M 63.198352 225.124401 
L 66.477691 223.275839 
L 69.75703 221.427278 
L 73.036369 219.578716 
L 76.315708 217.730154 
L 79.595046 215.881593 
L 82.874385 214.033031 
L 86.153724 212.184469 
L 89.433063 210.335908 
L 92.712402 208.487346 
L 95.991741 206.638784 
L 99.27108 204.790223 
L 102.550418 202.941661 
L 105.829757 201.093099 
L 109.109096 199.244538 
L 112.388435 197.395976 
L 115.667774 195.547414 
L 118.947113 193.698853 
L 122.226451 191.850291 
L 125.50579 190.001729 
L 128.785129 188.153167 
L 132.064468 186.304606 
L 135.343807 184.456044 
L 138.623146 182.607482 
L 141.902485 180.758921 
L 145.181823 178.910359 
L 148.461162 177.061797 
L 151.740501 175.213236 
L 155.01984 173.364674 
L 158.299179 171.516112 
L 161.578518 169.667551 
L 164.857856 167.818989 
L 168.137195 165.970427 
L 171.416534 164.121866 
L 174.695873 162.273304 
L 177.975212 160.424742 
L 181.254551 158.576181 
L 184.533889 156.727619 
L 187.813228 154.879057 
L 191.092567 153.030496 
L 194.371906 151.181934 
L 197.651245 149.333372 
L 200.930584 147.484811 
L 204.209923 145.636249 
L 207.489261 143.787687 
L 210.7686 141.939126 
L 214.047939 140.090564 
L 217.327278 138.242002 
L 220.606617 136.393441 
L 223.885956 134.544879 
L 227.165294 132.696317 
L 230.444633 130.847756 
L 233.723972 128.999194 
L 237.003311 127.150632 
L 240.28265 125.302071 
L 243.561989 123.453509 
L 246.841327 121.604947 
L 250.120666 119.756386 
L 253.400005 117.907824 
L 256.679344 116.059262 
L 259.958683 114.210701 
L 263.238022 112.362139 
L 266.517361 110.513577 
L 269.796699 108.665016 
L 273.076038 106.816454 
L 276.355377 104.967892 
L 279.634716 103.119331 
L 282.914055 101.270769 
L 286.193394 99.422207 
L 289.472732 97.573646 
L 292.752071 95.725084 
L 296.03141 93.876522 
L 299.310749 92.027961 
L 302.590088 90.179399 
L 305.869427 88.330837 
L 309.148765 86.482276 
L 312.428104 84.633714 
L 315.707443 82.785152 
L 318.986782 80.936591 
L 322.266121 79.088029 
L 325.54546 77.239467 
L 328.824799 75.390906 
L 332.104137 73.542344 
L 335.383476 71.693782 
L 338.662815 69.845221 
L 341.942154 67.996659 
L 345.221493 66.148097 
L 348.500832 64.299535 
L 351.78017 62.450974 
L 355.059509 60.602412 
L 358.338848 58.75385 
L 361.618187 56.905289 
L 364.897526 55.056727 
L 368.176865 53.208165 
L 371.456204 51.359604 
L 374.735542 49.511042 
L 378.014881 47.66248 
L 381.29422 45.813919 
L 384.573559 43.965357 
L 387.852898 42.116795 
" clip-path="url(#p39e359ff98)" style="fill: none; stroke: #1f77b4; stroke-width: 2.25; stroke-linecap: square"/>
   </g>
   <g id="patch_3">
    <path d="M 46.965625 273.312 
L 46.965625 7.2 
" style="fill: none; stroke: #000000; stroke-width: 0.8; stroke-linejoin: miter; stroke-linecap: square"/>
   </g>
   <g id="patch_4">
    <path d="M 404.085625 273.312 
L 404.085625 7.2 
" style="fill: none; stroke: #000000; stroke-width: 0.8; stroke-linejoin: miter; stroke-linecap: square"/>
   </g>
   <g id="patch_5">
    <path d="M 46.965625 273.312 
L 404.085625 273.312 
" style="fill: none; stroke: #000000; stroke-width: 0.8; stroke-linejoin: miter; stroke-linecap: square"/>
   </g>
   <g id="patch_6">
    <path d="M 46.965625 7.2 
L 404.085625 7.2 
" style="fill: none; stroke: #000000; stroke-width: 0.8; stroke-linejoin: miter; stroke-linecap: square"/>
   </g>
  </g>
 </g>
 <defs>
  <clipPath id="p39e359ff98">
   <rect x="46.965625" y="7.2" width="357.12" height="266.112"/>
  </clipPath>
 </defs>
</svg>