<?xml version="1.0" encoding="utf-8" standalone="no"?>
<!DOCTYPE svg PUBLIC "-//W3C//DTD SVG 1.1//EN"
  "http://www.w3.org/Graphics/SVG/1.1/DTD/svg11.dtd">
<svg xmlns:xlink="http://www.w3.org/1999/xlink" width="532.7175pt" height="351.99625pt" viewBox="0 0 532.7175 351.99625" xmlns="http://www.w3.org/2000/svg" version="1.1">
 <metadata>
  <rdf:RDF xmlns:dc="http://purl.org/dc/elements/1.1/" xmlns:cc="http://creativecommons.org/ns#" xmlns:rdf="http://www.w3.org/1999/02/22-rdf-syntax-ns#">
   <cc:Work>
    <dc:type rdf:resource="http://purl.org/dc/dcmitype/StillImage"/>
    <dc:date>2025-10-13T05:56:13.654762</dc:date>
    <dc:format>image/svg+xml</dc:format>
    <dc:creator>
     <cc:Agent>
      <dc:title>Matplotlib v3.10.3, https://matplotlib.org/</dc:title>
     </cc:Agent>
    </dc:creator>
   </cc:Work>
  </rdf:RDF>
 </metadata>
 <defs>
  <style type="text/css">*{stroke-linejoin: round; stroke-linecap: butt}</style>
 </defs>
 <g id="figure_1">
  <g id="patch_1">
   <path d="M 0 351.99625 
L 532.7175 351.99625 
L 532.7175 0 
L 0 0 
z
" style="fill: #ffffff"/>
  </g>
  <g id="axes_1">
   <g id="patch_2">
    <path d="M 47.1875 314.44 
L 525.5175 314.44 
L 525.5175 7.2 
L 47.1875 7.2 
z
" style="fill: #ffffff"/>
   </g>
   <g id="PathCollection_1">
    <defs>
     <path id="meb3a0e680d" d="M 0 3 
C 0.795609 3 1.55874 2.683901 2.12132 2.12132 
C 2.683901 1.55874 3 0.795609 3 0 
C 3 -0.795609 2.683901 -1.55874 2.12132 -2.12132 
C 1.55874 -2.683901 0.795609 -3 0 -3 
C -0.795609 -3 -1.55874 -2.683901 -2.12132 -2.12132 
C -2.683901 -1.55874 -3 -0.795609 -3 0 
C -3 0.795609 -2.683901 1.55874 -2.12132 2.12132 
C -1.55874 2.683901 -0.795609 3 0 3 
z
" style="stroke: #1f77b4; stroke-opacity: 0.8"/>
    </defs>
    <g clip-path="url(#pad7528b3d5)">
     <use xlink:href="#meb3a0e680d" x="68.929773" y="254.507213" style="fill: #1f77b4; fill-opacity: 0.8; stroke: #1f77b4; stroke-opacity: 0.8"/>
     <use xlink:href="#meb3a0e680d" x="113.043162" y="238.356529" style="fill: #1f77b4; fill-opacity: 0.8; stroke: #1f77b4; stroke-opacity: 0.8"/>
     <use xlink:href="#meb3a0e680d" x="157.156551" y="213.509322" style="fill: #1f77b4; fill-opacity: 0.8; stroke: #1f77b4; stroke-opacity: 0.8"/>
     <use xlink:href="#meb3a0e680d" x="201.238498" y="188.662116" style="fill: #1f77b4; fill-opacity: 0.8; stroke: #1f77b4; stroke-opacity: 0.8"/>
     <use xlink:href="#meb3a0e680d" x="245.351887" y="162.572549" style="fill: #1f77b4; fill-opacity: 0.8; stroke: #1f77b4; stroke-opacity: 0.8"/>
     <use xlink:href="#meb3a0e680d" x="289.465277" y="140.210063" style="fill: #1f77b4; fill-opacity: 0.8; stroke: #1f77b4; stroke-opacity: 0.8"/>
     <use xlink:href="#meb3a0e680d" x="333.547224" y="116.605217" style="fill: #1f77b4; fill-opacity: 0.8; stroke: #1f77b4; stroke-opacity: 0.8"/>
     <use xlink:href="#meb3a0e680d" x="377.660613" y="93.000371" style="fill: #1f77b4; fill-opacity: 0.8; stroke: #1f77b4; stroke-opacity: 0.8"/>
     <use xlink:href="#meb3a0e680d" x="421.74256" y="71.880245" style="fill: #1f77b4; fill-opacity: 0.8; stroke: #1f77b4; stroke-opacity: 0.8"/>
     <use xlink:href="#meb3a0e680d" x="465.855949" y="47.033038" style="fill: #1f77b4; fill-opacity: 0.8; stroke: #1f77b4; stroke-opacity: 0.8"/>
     <use xlink:href="#meb3a0e680d" x="201.238498" y="201.085719" style="fill: #1f77b4; fill-opacity: 0.8; stroke: #1f77b4; stroke-opacity: 0.8"/>
     <use xlink:href="#meb3a0e680d" x="201.238498" y="232.144727" style="fill: #1f77b4; fill-opacity: 0.8; stroke: #1f77b4; stroke-opacity: 0.8"/>
     <use xlink:href="#meb3a0e680d" x="245.351887" y="172.511432" style="fill: #1f77b4; fill-opacity: 0.8; stroke: #1f77b4; stroke-opacity: 0.8"/>
     <use xlink:href="#meb3a0e680d" x="289.465277" y="167.54199" style="fill: #1f77b4; fill-opacity: 0.8; stroke: #1f77b4; stroke-opacity: 0.8"/>
     <use xlink:href="#meb3a0e680d" x="333.547224" y="161.330189" style="fill: #1f77b4; fill-opacity: 0.8; stroke: #1f77b4; stroke-opacity: 0.8"/>
     <use xlink:href="#meb3a0e680d" x="264.091431" y="109.151055" style="fill: #1f77b4; fill-opacity: 0.8; stroke: #1f77b4; stroke-opacity: 0.8"/>
     <use xlink:href="#meb3a0e680d" x="308.20482" y="84.303848" style="fill: #1f77b4; fill-opacity: 0.8; stroke: #1f77b4; stroke-opacity: 0.8"/>
     <use xlink:href="#meb3a0e680d" x="396.400157" y="61.941362" style="fill: #1f77b4; fill-opacity: 0.8; stroke: #1f77b4; stroke-opacity: 0.8"/>
    </g>
   </g>
   <g id="FillBetweenPolyCollection_1">
    <path d="M 68.929773 250.739496 
L 68.929773 286.793535 
L 72.939128 284.317292 
L 76.948483 281.717133 
L 80.957839 279.181904 
L 84.967194 276.648366 
L 88.976549 274.114828 
L 92.985905 271.58129 
L 96.99526 269.047752 
L 101.004615 266.514214 
L 105.013971 263.980676 
L 109.023326 261.447138 
L 113.032681 258.913601 
L 117.042037 256.378877 
L 121.051392 254.027394 
L 125.060747 251.569778 
L 129.070102 248.810668 
L 133.079458 246.371153 
L 137.088813 243.966658 
L 141.098168 241.559602 
L 145.107524 239.147681 
L 149.116879 236.73481 
L 153.126234 234.20758 
L 157.13559 231.614868 
L 161.144945 229.213717 
L 165.1543 226.816736 
L 169.163656 224.415033 
L 173.173011 221.994264 
L 177.182366 219.589509 
L 181.191722 217.09235 
L 185.201077 214.523367 
L 189.210432 211.946069 
L 193.219788 209.488249 
L 197.229143 206.976338 
L 201.238498 204.417598 
L 205.247853 202.010149 
L 209.257209 199.708199 
L 213.266564 197.408962 
L 217.275919 195.03118 
L 221.285275 192.311948 
L 225.29463 189.813364 
L 229.303985 187.663641 
L 233.313341 185.313408 
L 237.322696 182.880843 
L 241.332051 180.511865 
L 245.341407 178.271878 
L 249.350762 175.973037 
L 253.360117 173.675052 
L 257.369473 171.430678 
L 261.378828 169.076782 
L 265.388183 166.705248 
L 269.397539 164.437856 
L 273.406894 161.970439 
L 277.416249 159.642725 
L 281.425604 157.349141 
L 285.43496 155.196373 
L 289.444315 153.027563 
L 293.45367 150.688595 
L 297.463026 148.396242 
L 301.472381 146.098085 
L 305.481736 143.90195 
L 309.491092 141.794818 
L 313.500447 139.713327 
L 317.509802 137.589351 
L 321.519158 135.51602 
L 325.528513 133.43959 
L 329.537868 131.171644 
L 333.547224 129.102067 
L 337.556579 127.145761 
L 341.565934 124.99052 
L 345.57529 122.791091 
L 349.584645 120.695953 
L 353.594 118.600814 
L 357.603355 116.502952 
L 361.612711 114.370888 
L 365.622066 112.019511 
L 369.631421 109.781253 
L 373.640777 107.677138 
L 377.650132 105.610834 
L 381.659487 103.566542 
L 385.668843 101.498193 
L 389.678198 99.416728 
L 393.687553 97.360174 
L 397.696909 95.314986 
L 401.706264 93.314924 
L 405.715619 91.316368 
L 409.724975 89.249159 
L 413.73433 87.15894 
L 417.743685 85.064948 
L 421.753041 82.939228 
L 425.762396 80.84823 
L 429.771751 78.775603 
L 433.781106 76.680763 
L 437.790462 74.637199 
L 441.799817 72.595665 
L 445.809172 70.53326 
L 449.818528 68.470856 
L 453.827883 66.408452 
L 457.837238 64.344419 
L 461.846594 62.254647 
L 465.855949 60.217801 
L 465.855949 21.165455 
L 465.855949 21.165455 
L 461.846594 23.662248 
L 457.837238 26.182339 
L 453.827883 28.70243 
L 449.818528 31.224211 
L 445.809172 33.749061 
L 441.799817 36.276358 
L 437.790462 38.908967 
L 433.781106 41.544033 
L 429.771751 44.17381 
L 425.762396 46.805274 
L 421.753041 49.441529 
L 417.743685 52.077523 
L 413.73433 54.707983 
L 409.724975 57.341168 
L 405.715619 59.907954 
L 401.706264 62.461249 
L 397.696909 65.014545 
L 393.687553 67.57304 
L 389.678198 70.197876 
L 385.668843 72.644774 
L 381.659487 75.056392 
L 377.650132 77.501446 
L 373.640777 79.934449 
L 369.631421 82.368581 
L 365.622066 84.79909 
L 361.612711 87.233546 
L 357.603355 89.691793 
L 353.594 92.098973 
L 349.584645 94.529479 
L 345.57529 96.882474 
L 341.565934 99.284282 
L 337.556579 101.835177 
L 333.547224 104.338503 
L 329.537868 106.750362 
L 325.528513 109.071255 
L 321.519158 111.274923 
L 317.509802 113.505108 
L 313.500447 115.757365 
L 309.491092 118.105416 
L 305.481736 120.402454 
L 301.472381 122.756963 
L 297.463026 124.907536 
L 293.45367 127.14711 
L 289.444315 129.394873 
L 285.43496 131.829643 
L 281.425604 133.943567 
L 277.416249 136.143728 
L 273.406894 138.461582 
L 269.397539 140.768062 
L 265.388183 143.220433 
L 261.378828 145.538173 
L 257.369473 147.94728 
L 253.360117 150.320517 
L 249.350762 152.473061 
L 245.341407 154.776491 
L 241.332051 157.084816 
L 237.322696 159.414776 
L 233.313341 161.7484 
L 229.303985 164.07712 
L 225.29463 166.394806 
L 221.285275 168.736124 
L 217.275919 171.063612 
L 213.266564 173.341648 
L 209.257209 175.516168 
L 205.247853 177.690688 
L 201.238498 179.894413 
L 197.229143 182.094008 
L 193.219788 184.393696 
L 189.210432 186.645497 
L 185.201077 188.727898 
L 181.191722 190.796325 
L 177.182366 192.900682 
L 173.173011 195.08004 
L 169.163656 197.225581 
L 165.1543 199.362205 
L 161.144945 201.412479 
L 157.13559 203.603629 
L 153.126234 205.824241 
L 149.116879 208.009807 
L 145.107524 210.080848 
L 141.098168 212.118165 
L 137.088813 214.285181 
L 133.079458 216.473961 
L 129.070102 218.662742 
L 125.060747 220.849311 
L 121.051392 223.040302 
L 117.042037 225.229082 
L 113.032681 227.354262 
L 109.023326 229.522363 
L 105.013971 231.694566 
L 101.004615 233.811017 
L 96.99526 235.927468 
L 92.985905 238.043918 
L 88.976549 240.160369 
L 84.967194 242.27682 
L 80.957839 244.393615 
L 76.948483 246.513515 
L 72.939128 248.633415 
L 68.929773 250.739496 
z
" clip-path="url(#pad7528b3d5)" style="fill: #1f77b4; fill-opacity: 0.15"/>
   </g>
   <g id="PathCollection_2">
    <defs>
     <path id="md8fd40790e" d="M 0 -3 
L -3 3 
L 3 3 
z
" style="stroke: #ff7f0e; stroke-opacity: 0.8"/>
    </defs>
    <g clip-path="url(#pad7528b3d5)">
     <use xlink:href="#md8fd40790e" x="195.044387" y="290.535663" style="fill: #ff7f0e; fill-opacity: 0.8; stroke: #ff7f0e; stroke-opacity: 0.8"/>
     <use xlink:href="#md8fd40790e" x="239.157776" y="249.537772" style="fill: #ff7f0e; fill-opacity: 0.8; stroke: #ff7f0e; stroke-opacity: 0.8"/>
     <use xlink:href="#md8fd40790e" x="283.271166" y="213.509322" style="fill: #ff7f0e; fill-opacity: 0.8; stroke: #ff7f0e; stroke-opacity: 0.8"/>
     <use xlink:href="#md8fd40790e" x="327.353113" y="178.723233" style="fill: #ff7f0e; fill-opacity: 0.8; stroke: #ff7f0e; stroke-opacity: 0.8"/>
     <use xlink:href="#md8fd40790e" x="371.466502" y="147.664225" style="fill: #ff7f0e; fill-opacity: 0.8; stroke: #ff7f0e; stroke-opacity: 0.8"/>
     <use xlink:href="#md8fd40790e" x="415.579891" y="119.089937" style="fill: #ff7f0e; fill-opacity: 0.8; stroke: #ff7f0e; stroke-opacity: 0.8"/>
     <use xlink:href="#md8fd40790e" x="459.661838" y="91.75801" style="fill: #ff7f0e; fill-opacity: 0.8; stroke: #ff7f0e; stroke-opacity: 0.8"/>
     <use xlink:href="#md8fd40790e" x="503.775227" y="66.910804" style="fill: #ff7f0e; fill-opacity: 0.8; stroke: #ff7f0e; stroke-opacity: 0.8"/>
     <use xlink:href="#md8fd40790e" x="239.157776" y="256.991934" style="fill: #ff7f0e; fill-opacity: 0.8; stroke: #ff7f0e; stroke-opacity: 0.8"/>
     <use xlink:href="#md8fd40790e" x="327.353113" y="189.904476" style="fill: #ff7f0e; fill-opacity: 0.8; stroke: #ff7f0e; stroke-opacity: 0.8"/>
     <use xlink:href="#md8fd40790e" x="195.044387" y="300.474545" style="fill: #ff7f0e; fill-opacity: 0.8; stroke: #ff7f0e; stroke-opacity: 0.8"/>
     <use xlink:href="#md8fd40790e" x="283.271166" y="235.871808" style="fill: #ff7f0e; fill-opacity: 0.8; stroke: #ff7f0e; stroke-opacity: 0.8"/>
    </g>
   </g>
   <g id="FillBetweenPolyCollection_2">
    <path d="M 195.044387 281.467234 
L 195.044387 296.558125 
L 198.162881 294.01118 
L 201.281374 291.588186 
L 204.399867 289.109701 
L 207.518361 286.616135 
L 210.636854 284.168874 
L 213.755347 281.687429 
L 216.873841 279.183961 
L 219.992334 276.667922 
L 223.110827 274.254104 
L 226.229321 271.791018 
L 229.347814 269.324597 
L 232.466307 266.858897 
L 235.584801 264.392453 
L 238.703294 261.960384 
L 241.821787 259.515504 
L 244.940281 257.034865 
L 248.058774 254.644557 
L 251.177267 252.18815 
L 254.295761 249.791483 
L 257.414254 247.370064 
L 260.532747 244.932486 
L 263.651241 242.503733 
L 266.769734 240.077699 
L 269.888227 237.677039 
L 273.006721 235.268885 
L 276.125214 232.880778 
L 279.243707 230.50127 
L 282.362201 228.118305 
L 285.480694 225.744129 
L 288.599187 223.302511 
L 291.717681 220.880917 
L 294.836174 218.514263 
L 297.954667 216.14761 
L 301.073161 213.758716 
L 304.191654 211.415838 
L 307.310147 209.049521 
L 310.428641 206.698589 
L 313.547134 204.345125 
L 316.665627 201.952343 
L 319.784121 199.585531 
L 322.902614 197.248254 
L 326.021107 194.90091 
L 329.139601 192.553416 
L 332.258094 190.205922 
L 335.376587 187.858429 
L 338.495081 185.510935 
L 341.613574 183.163441 
L 344.732067 180.811806 
L 347.850561 178.458639 
L 350.969054 176.115636 
L 354.087547 173.78064 
L 357.206041 171.436285 
L 360.324534 169.13558 
L 363.443027 166.846301 
L 366.561521 164.55394 
L 369.680014 162.228972 
L 372.798507 159.898557 
L 375.917001 157.541793 
L 379.035494 155.184726 
L 382.153987 152.827193 
L 385.272481 150.467702 
L 388.390974 148.125519 
L 391.509467 145.817268 
L 394.627961 143.529181 
L 397.746454 141.20248 
L 400.864947 138.896915 
L 403.983441 136.590677 
L 407.101934 134.283201 
L 410.220427 131.975724 
L 413.338921 129.613371 
L 416.457414 127.193456 
L 419.575907 124.787489 
L 422.694401 122.561089 
L 425.812894 120.28109 
L 428.931387 118.01876 
L 432.049881 115.715329 
L 435.168374 113.462814 
L 438.286867 111.181293 
L 441.405361 108.910035 
L 444.523854 106.620911 
L 447.642347 104.35356 
L 450.760841 102.093672 
L 453.879334 99.830532 
L 456.997827 97.544234 
L 460.116321 95.229706 
L 463.234814 92.916191 
L 466.353307 90.646469 
L 469.471801 88.350253 
L 472.590294 86.098613 
L 475.708787 83.846371 
L 478.827281 81.568604 
L 481.945774 79.333618 
L 485.064267 77.091022 
L 488.182761 74.805503 
L 491.301254 72.574822 
L 494.419747 70.304867 
L 497.538241 68.035593 
L 500.656734 65.765255 
L 503.775227 63.495304 
L 503.775227 40.199451 
L 503.775227 40.199451 
L 500.656734 42.735812 
L 497.538241 45.272354 
L 494.419747 47.808895 
L 491.301254 50.345436 
L 488.182761 52.881978 
L 485.064267 55.418519 
L 481.945774 57.955061 
L 478.827281 60.491602 
L 475.708787 63.028143 
L 472.590294 65.564685 
L 469.471801 68.105315 
L 466.353307 70.650977 
L 463.234814 73.196639 
L 460.116321 75.742302 
L 456.997827 78.287964 
L 453.879334 80.830691 
L 450.760841 83.354231 
L 447.642347 85.877771 
L 444.523854 88.401312 
L 441.405361 90.927754 
L 438.286867 93.463728 
L 435.168374 96.01953 
L 432.049881 98.616007 
L 428.931387 101.201483 
L 425.812894 103.759548 
L 422.694401 106.314271 
L 419.575907 108.839713 
L 416.457414 111.38495 
L 413.338921 113.930345 
L 410.220427 116.476705 
L 407.101934 119.02282 
L 403.983441 121.569328 
L 400.864947 124.137397 
L 397.746454 126.706944 
L 394.627961 129.276491 
L 391.509467 131.840261 
L 388.390974 134.316515 
L 385.272481 136.87935 
L 382.153987 139.470886 
L 379.035494 142.062422 
L 375.917001 144.654017 
L 372.798507 147.246081 
L 369.680014 149.833981 
L 366.561521 152.404056 
L 363.443027 154.974132 
L 360.324534 157.544207 
L 357.206041 160.028536 
L 354.087547 162.484315 
L 350.969054 164.983763 
L 347.850561 167.447 
L 344.732067 169.982755 
L 341.613574 172.48459 
L 338.495081 175.030282 
L 335.376587 177.554623 
L 332.258094 180.072509 
L 329.139601 182.365096 
L 326.021107 184.768975 
L 322.902614 187.217519 
L 319.784121 189.712722 
L 316.665627 192.154438 
L 313.547134 194.687556 
L 310.428641 197.144556 
L 307.310147 199.469843 
L 304.191654 201.751382 
L 301.073161 204.071436 
L 297.954667 206.48181 
L 294.836174 208.83669 
L 291.717681 211.224471 
L 288.599187 213.612649 
L 285.480694 215.93181 
L 282.362201 218.177225 
L 279.243707 220.568877 
L 276.125214 222.8243 
L 273.006721 225.079724 
L 269.888227 227.430852 
L 266.769734 229.677537 
L 263.651241 231.931866 
L 260.532747 234.268498 
L 257.414254 236.543882 
L 254.295761 238.817287 
L 251.177267 241.08985 
L 248.058774 243.345199 
L 244.940281 245.590569 
L 241.821787 247.820835 
L 238.703294 250.084381 
L 235.584801 252.32985 
L 232.466307 254.571708 
L 229.347814 256.812974 
L 226.229321 259.067284 
L 223.110827 261.312466 
L 219.992334 263.557648 
L 216.873841 265.803294 
L 213.755347 268.049424 
L 210.636854 270.295553 
L 207.518361 272.541682 
L 204.399867 274.787812 
L 201.281374 277.033941 
L 198.162881 279.272878 
L 195.044387 281.467234 
z
" clip-path="url(#pad7528b3d5)" style="fill: #ff7f0e; fill-opacity: 0.15"/>
   </g>
   <g id="matplotlib.axis_1">
    <g id="xtick_1">
     <g id="line2d_1">
      <defs>
       <path id="m17b23a66d4" d="M 0 0 
L 0 3.5 
" style="stroke: #000000; stroke-width: 0.8"/>
      </defs>
      <g>
       <use xlink:href="#m17b23a66d4" x="93.957754" y="314.44" style="stroke: #000000; stroke-width: 0.8"/>
      </g>
     </g>
     <g id="text_1">
      <!-- 40 -->
      <g transform="translate(87.595254 329.038437) scale(0.1 -0.1)">
       <defs>
        <path id="DejaVuSans-34" d="M 2419 4116 
L 825 1625 
L 2419 1625 
L 2419 4116 
z
M 2253 4666 
L 3047 4666 
L 3047 1625 
L 3713 1625 
L 3713 1100 
L 3047 1100 
L 3047 0 
L 2419 0 
L 2419 1100 
L 313 1100 
L 313 1709 
L 2253 4666 
z
" transform="scale(0.015625)"/>
        <path id="DejaVuSans-30" d="M 2034 4250 
Q 1547 4250 1301 3770 
Q 1056 3291 1056 2328 
Q 1056 1369 1301 889 
Q 1547 409 2034 409 
Q 2525 409 2770 889 
Q 3016 1369 3016 2328 
Q 3016 3291 2770 3770 
Q 2525 4250 2034 4250 
z
M 2034 4750 
Q 2819 4750 3233 4129 
Q 3647 3509 3647 2328 
Q 3647 1150 3233 529 
Q 2819 -91 2034 -91 
Q 1250 -91 836 529 
Q 422 1150 422 2328 
Q 422 3509 836 4129 
Q 1250 4750 2034 4750 
z
" transform="scale(0.015625)"/>
       </defs>
       <use xlink:href="#DejaVuSans-34"/>
       <use xlink:href="#DejaVuSans-30" transform="translate(63.623047 0)"/>
      </g>
     </g>
    </g>
    <g id="xtick_2">
     <g id="line2d_2">
      <g>
       <use xlink:href="#m17b23a66d4" x="156.842129" y="314.44" style="stroke: #000000; stroke-width: 0.8"/>
      </g>
     </g>
     <g id="text_2">
      <!-- 60 -->
      <g transform="translate(150.479629 329.038437) scale(0.1 -0.1)">
       <defs>
        <path id="DejaVuSans-36" d="M 2113 2584 
Q 1688 2584 1439 2293 
Q 1191 2003 1191 1497 
Q 1191 994 1439 701 
Q 1688 409 2113 409 
Q 2538 409 2786 701 
Q 3034 994 3034 1497 
Q 3034 2003 2786 2293 
Q 2538 2584 2113 2584 
z
M 3366 4563 
L 3366 3988 
Q 3128 4100 2886 4159 
Q 2644 4219 2406 4219 
Q 1781 4219 1451 3797 
Q 1122 3375 1075 2522 
Q 1259 2794 1537 2939 
Q 1816 3084 2150 3084 
Q 2853 3084 3261 2657 
Q 3669 2231 3669 1497 
Q 3669 778 3244 343 
Q 2819 -91 2113 -91 
Q 1303 -91 875 529 
Q 447 1150 447 2328 
Q 447 3434 972 4092 
Q 1497 4750 2381 4750 
Q 2619 4750 2861 4703 
Q 3103 4656 3366 4563 
z
" transform="scale(0.015625)"/>
       </defs>
       <use xlink:href="#DejaVuSans-36"/>
       <use xlink:href="#DejaVuSans-30" transform="translate(63.623047 0)"/>
      </g>
     </g>
    </g>
    <g id="xtick_3">
     <g id="line2d_3">
      <g>
       <use xlink:href="#m17b23a66d4" x="219.726504" y="314.44" style="stroke: #000000; stroke-width: 0.8"/>
      </g>
     </g>
     <g id="text_3">
      <!-- 80 -->
      <g transform="translate(213.364004 329.038437) scale(0.1 -0.1)">
       <defs>
        <path id="DejaVuSans-38" d="M 2034 2216 
Q 1584 2216 1326 1975 
Q 1069 1734 1069 1313 
Q 1069 891 1326 650 
Q 1584 409 2034 409 
Q 2484 409 2743 651 
Q 3003 894 3003 1313 
Q 3003 1734 2745 1975 
Q 2488 2216 2034 2216 
z
M 1403 2484 
Q 997 2584 770 2862 
Q 544 3141 544 3541 
Q 544 4100 942 4425 
Q 1341 4750 2034 4750 
Q 2731 4750 3128 4425 
Q 3525 4100 3525 3541 
Q 3525 3141 3298 2862 
Q 3072 2584 2669 2484 
Q 3125 2378 3379 2068 
Q 3634 1759 3634 1313 
Q 3634 634 3220 271 
Q 2806 -91 2034 -91 
Q 1263 -91 848 271 
Q 434 634 434 1313 
Q 434 1759 690 2068 
Q 947 2378 1403 2484 
z
M 1172 3481 
Q 1172 3119 1398 2916 
Q 1625 2713 2034 2713 
Q 2441 2713 2670 2916 
Q 2900 3119 2900 3481 
Q 2900 3844 2670 4047 
Q 2441 4250 2034 4250 
Q 1625 4250 1398 4047 
Q 1172 3844 1172 3481 
z
" transform="scale(0.015625)"/>
       </defs>
       <use xlink:href="#DejaVuSans-38"/>
       <use xlink:href="#DejaVuSans-30" transform="translate(63.623047 0)"/>
      </g>
     </g>
    </g>
    <g id="xtick_4">
     <g id="line2d_4">
      <g>
       <use xlink:href="#m17b23a66d4" x="282.61088" y="314.44" style="stroke: #000000; stroke-width: 0.8"/>
      </g>
     </g>
     <g id="text_4">
      <!-- 100 -->
      <g transform="translate(273.06713 329.038437) scale(0.1 -0.1)">
       <defs>
        <path id="DejaVuSans-31" d="M 794 531 
L 1825 531 
L 1825 4091 
L 703 3866 
L 703 4441 
L 1819 4666 
L 2450 4666 
L 2450 531 
L 3481 531 
L 3481 0 
L 794 0 
L 794 531 
z
" transform="scale(0.015625)"/>
       </defs>
       <use xlink:href="#DejaVuSans-31"/>
       <use xlink:href="#DejaVuSans-30" transform="translate(63.623047 0)"/>
       <use xlink:href="#DejaVuSans-30" transform="translate(127.246094 0)"/>
      </g>
     </g>
    </g>
    <g id="xtick_5">
     <g id="line2d_5">
      <g>
       <use xlink:href="#m17b23a66d4" x="345.495255" y="314.44" style="stroke: #000000; stroke-width: 0.8"/>
      </g>
     </g>
     <g id="text_5">
      <!-- 120 -->
      <g transform="translate(335.951505 329.038437) scale(0.1 -0.1)">
       <defs>
        <path id="DejaVuSans-32" d="M 1228 531 
L 3431 531 
L 3431 0 
L 469 0 
L 469 531 
Q 828 903 1448 1529 
Q 2069 2156 2228 2338 
Q 2531 2678 2651 2914 
Q 2772 3150 2772 3378 
Q 2772 3750 2511 3984 
Q 2250 4219 1831 4219 
Q 1534 4219 1204 4116 
Q 875 4013 500 3803 
L 500 4441 
Q 881 4594 1212 4672 
Q 1544 4750 1819 4750 
Q 2544 4750 2975 4387 
Q 3406 4025 3406 3419 
Q 3406 3131 3298 2873 
Q 3191 2616 2906 2266 
Q 2828 2175 2409 1742 
Q 1991 1309 1228 531 
z
" transform="scale(0.015625)"/>
       </defs>
       <use xlink:href="#DejaVuSans-31"/>
       <use xlink:href="#DejaVuSans-32" transform="translate(63.623047 0)"/>
       <use xlink:href="#DejaVuSans-30" transform="translate(127.246094 0)"/>
      </g>
     </g>
    </g>
    <g id="xtick_6">
     <g id="line2d_6">
      <g>
       <use xlink:href="#m17b23a66d4" x="408.37963" y="314.44" style="stroke: #000000; stroke-width: 0.8"/>
      </g>
     </g>
     <g id="text_6">
      <!-- 140 -->
      <g transform="translate(398.83588 329.038437) scale(0.1 -0.1)">
       <use xlink:href="#DejaVuSans-31"/>
       <use xlink:href="#DejaVuSans-34" transform="translate(63.623047 0)"/>
       <use xlink:href="#DejaVuSans-30" transform="translate(127.246094 0)"/>
      </g>
     </g>
    </g>
    <g id="xtick_7">
     <g id="line2d_7">
      <g>
       <use xlink:href="#m17b23a66d4" x="471.264005" y="314.44" style="stroke: #000000; stroke-width: 0.8"/>
      </g>
     </g>
     <g id="text_7">
      <!-- 160 -->
      <g transform="translate(461.720255 329.038437) scale(0.1 -0.1)">
       <use xlink:href="#DejaVuSans-31"/>
       <use xlink:href="#DejaVuSans-36" transform="translate(63.623047 0)"/>
       <use xlink:href="#DejaVuSans-30" transform="translate(127.246094 0)"/>
      </g>
     </g>
    </g>
    <g id="text_8">
     <!-- MW, g/mol -->
     <g transform="translate(259.739219 342.716562) scale(0.1 -0.1)">
      <defs>
       <path id="DejaVuSans-4d" d="M 628 4666 
L 1569 4666 
L 2759 1491 
L 3956 4666 
L 4897 4666 
L 4897 0 
L 4281 0 
L 4281 4097 
L 3078 897 
L 2444 897 
L 1241 4097 
L 1241 0 
L 628 0 
L 628 4666 
z
" transform="scale(0.015625)"/>
       <path id="DejaVuSans-57" d="M 213 4666 
L 850 4666 
L 1831 722 
L 2809 4666 
L 3519 4666 
L 4500 722 
L 5478 4666 
L 6119 4666 
L 4947 0 
L 4153 0 
L 3169 4050 
L 2175 0 
L 1381 0 
L 213 4666 
z
" transform="scale(0.015625)"/>
       <path id="DejaVuSans-2c" d="M 750 794 
L 1409 794 
L 1409 256 
L 897 -744 
L 494 -744 
L 750 256 
L 750 794 
z
" transform="scale(0.015625)"/>
       <path id="DejaVuSans-20" transform="scale(0.015625)"/>
       <path id="DejaVuSans-67" d="M 2906 1791 
Q 2906 2416 2648 2759 
Q 2391 3103 1925 3103 
Q 1463 3103 1205 2759 
Q 947 2416 947 1791 
Q 947 1169 1205 825 
Q 1463 481 1925 481 
Q 2391 481 2648 825 
Q 2906 1169 2906 1791 
z
M 3481 434 
Q 3481 -459 3084 -895 
Q 2688 -1331 1869 -1331 
Q 1566 -1331 1297 -1286 
Q 1028 -1241 775 -1147 
L 775 -588 
Q 1028 -725 1275 -790 
Q 1522 -856 1778 -856 
Q 2344 -856 2625 -561 
Q 2906 -266 2906 331 
L 2906 616 
Q 2728 306 2450 153 
Q 2172 0 1784 0 
Q 1141 0 747 490 
Q 353 981 353 1791 
Q 353 2603 747 3093 
Q 1141 3584 1784 3584 
Q 2172 3584 2450 3431 
Q 2728 3278 2906 2969 
L 2906 3500 
L 3481 3500 
L 3481 434 
z
" transform="scale(0.015625)"/>
       <path id="DejaVuSans-2f" d="M 1625 4666 
L 2156 4666 
L 531 -594 
L 0 -594 
L 1625 4666 
z
" transform="scale(0.015625)"/>
       <path id="DejaVuSans-6d" d="M 3328 2828 
Q 3544 3216 3844 3400 
Q 4144 3584 4550 3584 
Q 5097 3584 5394 3201 
Q 5691 2819 5691 2113 
L 5691 0 
L 5113 0 
L 5113 2094 
Q 5113 2597 4934 2840 
Q 4756 3084 4391 3084 
Q 3944 3084 3684 2787 
Q 3425 2491 3425 1978 
L 3425 0 
L 2847 0 
L 2847 2094 
Q 2847 2600 2669 2842 
Q 2491 3084 2119 3084 
Q 1678 3084 1418 2786 
Q 1159 2488 1159 1978 
L 1159 0 
L 581 0 
L 581 3500 
L 1159 3500 
L 1159 2956 
Q 1356 3278 1631 3431 
Q 1906 3584 2284 3584 
Q 2666 3584 2933 3390 
Q 3200 3197 3328 2828 
z
" transform="scale(0.015625)"/>
       <path id="DejaVuSans-6f" d="M 1959 3097 
Q 1497 3097 1228 2736 
Q 959 2375 959 1747 
Q 959 1119 1226 758 
Q 1494 397 1959 397 
Q 2419 397 2687 759 
Q 2956 1122 2956 1747 
Q 2956 2369 2687 2733 
Q 2419 3097 1959 3097 
z
M 1959 3584 
Q 2709 3584 3137 3096 
Q 3566 2609 3566 1747 
Q 3566 888 3137 398 
Q 2709 -91 1959 -91 
Q 1206 -91 779 398 
Q 353 888 353 1747 
Q 353 2609 779 3096 
Q 1206 3584 1959 3584 
z
" transform="scale(0.015625)"/>
       <path id="DejaVuSans-6c" d="M 603 4863 
L 1178 4863 
L 1178 0 
L 603 0 
L 603 4863 
z
" transform="scale(0.015625)"/>
      </defs>
      <use xlink:href="#DejaVuSans-4d"/>
      <use xlink:href="#DejaVuSans-57" transform="translate(86.279297 0)"/>
      <use xlink:href="#DejaVuSans-2c" transform="translate(185.15625 0)"/>
      <use xlink:href="#DejaVuSans-20" transform="translate(216.943359 0)"/>
      <use xlink:href="#DejaVuSans-67" transform="translate(248.730469 0)"/>
      <use xlink:href="#DejaVuSans-2f" transform="translate(312.207031 0)"/>
      <use xlink:href="#DejaVuSans-6d" transform="translate(345.898438 0)"/>
      <use xlink:href="#DejaVuSans-6f" transform="translate(443.310547 0)"/>
      <use xlink:href="#DejaVuSans-6c" transform="translate(504.492188 0)"/>
     </g>
    </g>
   </g>
   <g id="matplotlib.axis_2">
    <g id="ytick_1">
     <g id="line2d_8">
      <defs>
       <path id="mbcded9ba88" d="M 0 0 
L -3.5 0 
" style="stroke: #000000; stroke-width: 0.8"/>
      </defs>
      <g>
       <use xlink:href="#mbcded9ba88" x="47.1875" y="273.142618" style="stroke: #000000; stroke-width: 0.8"/>
      </g>
     </g>
     <g id="text_9">
      <!-- 50 -->
      <g transform="translate(27.4625 276.941837) scale(0.1 -0.1)">
       <defs>
        <path id="DejaVuSans-35" d="M 691 4666 
L 3169 4666 
L 3169 4134 
L 1269 4134 
L 1269 2991 
Q 1406 3038 1543 3061 
Q 1681 3084 1819 3084 
Q 2600 3084 3056 2656 
Q 3513 2228 3513 1497 
Q 3513 744 3044 326 
Q 2575 -91 1722 -91 
Q 1428 -91 1123 -41 
Q 819 9 494 109 
L 494 744 
Q 775 591 1075 516 
Q 1375 441 1709 441 
Q 2250 441 2565 725 
Q 2881 1009 2881 1497 
Q 2881 1984 2565 2268 
Q 2250 2553 1709 2553 
Q 1456 2553 1204 2497 
Q 953 2441 691 2322 
L 691 4666 
z
" transform="scale(0.015625)"/>
       </defs>
       <use xlink:href="#DejaVuSans-35"/>
       <use xlink:href="#DejaVuSans-30" transform="translate(63.623047 0)"/>
      </g>
     </g>
    </g>
    <g id="ytick_2">
     <g id="line2d_9">
      <g>
       <use xlink:href="#mbcded9ba88" x="47.1875" y="211.024602" style="stroke: #000000; stroke-width: 0.8"/>
      </g>
     </g>
     <g id="text_10">
      <!-- 100 -->
      <g transform="translate(21.1 214.823821) scale(0.1 -0.1)">
       <use xlink:href="#DejaVuSans-31"/>
       <use xlink:href="#DejaVuSans-30" transform="translate(63.623047 0)"/>
       <use xlink:href="#DejaVuSans-30" transform="translate(127.246094 0)"/>
      </g>
     </g>
    </g>
    <g id="ytick_3">
     <g id="line2d_10">
      <g>
       <use xlink:href="#mbcded9ba88" x="47.1875" y="148.906585" style="stroke: #000000; stroke-width: 0.8"/>
      </g>
     </g>
     <g id="text_11">
      <!-- 150 -->
      <g transform="translate(21.1 152.705804) scale(0.1 -0.1)">
       <use xlink:href="#DejaVuSans-31"/>
       <use xlink:href="#DejaVuSans-35" transform="translate(63.623047 0)"/>
       <use xlink:href="#DejaVuSans-30" transform="translate(127.246094 0)"/>
      </g>
     </g>
    </g>
    <g id="ytick_4">
     <g id="line2d_11">
      <g>
       <use xlink:href="#mbcded9ba88" x="47.1875" y="86.788569" style="stroke: #000000; stroke-width: 0.8"/>
      </g>
     </g>
     <g id="text_12">
      <!-- 200 -->
      <g transform="translate(21.1 90.587788) scale(0.1 -0.1)">
       <use xlink:href="#DejaVuSans-32"/>
       <use xlink:href="#DejaVuSans-30" transform="translate(63.623047 0)"/>
       <use xlink:href="#DejaVuSans-30" transform="translate(127.246094 0)"/>
      </g>
     </g>
    </g>
    <g id="ytick_5">
     <g id="line2d_12">
      <g>
       <use xlink:href="#mbcded9ba88" x="47.1875" y="24.670553" style="stroke: #000000; stroke-width: 0.8"/>
      </g>
     </g>
     <g id="text_13">
      <!-- 250 -->
      <g transform="translate(21.1 28.469771) scale(0.1 -0.1)">
       <use xlink:href="#DejaVuSans-32"/>
       <use xlink:href="#DejaVuSans-35" transform="translate(63.623047 0)"/>
       <use xlink:href="#DejaVuSans-30" transform="translate(127.246094 0)"/>
      </g>
     </g>
    </g>
    <g id="text_14">
     <!-- bp, $^o$C -->
     <g transform="translate(15 176.17) rotate(-90) scale(0.1 -0.1)">
      <defs>
       <path id="DejaVuSans-62" d="M 3116 1747 
Q 3116 2381 2855 2742 
Q 2594 3103 2138 3103 
Q 1681 3103 1420 2742 
Q 1159 2381 1159 1747 
Q 1159 1113 1420 752 
Q 1681 391 2138 391 
Q 2594 391 2855 752 
Q 3116 1113 3116 1747 
z
M 1159 2969 
Q 1341 3281 1617 3432 
Q 1894 3584 2278 3584 
Q 2916 3584 3314 3078 
Q 3713 2572 3713 1747 
Q 3713 922 3314 415 
Q 2916 -91 2278 -91 
Q 1894 -91 1617 61 
Q 1341 213 1159 525 
L 1159 0 
L 581 0 
L 581 4863 
L 1159 4863 
L 1159 2969 
z
" transform="scale(0.015625)"/>
       <path id="DejaVuSans-70" d="M 1159 525 
L 1159 -1331 
L 581 -1331 
L 581 3500 
L 1159 3500 
L 1159 2969 
Q 1341 3281 1617 3432 
Q 1894 3584 2278 3584 
Q 2916 3584 3314 3078 
Q 3713 2572 3713 1747 
Q 3713 922 3314 415 
Q 2916 -91 2278 -91 
Q 1894 -91 1617 61 
Q 1341 213 1159 525 
z
M 3116 1747 
Q 3116 2381 2855 2742 
Q 2594 3103 2138 3103 
Q 1681 3103 1420 2742 
Q 1159 2381 1159 1747 
Q 1159 1113 1420 752 
Q 1681 391 2138 391 
Q 2594 391 2855 752 
Q 3116 1113 3116 1747 
z
" transform="scale(0.015625)"/>
       <path id="DejaVuSans-Oblique-6f" d="M 1625 -91 
Q 1009 -91 651 289 
Q 294 669 294 1325 
Q 294 1706 417 2101 
Q 541 2497 738 2766 
Q 1047 3184 1428 3384 
Q 1809 3584 2291 3584 
Q 2888 3584 3255 3212 
Q 3622 2841 3622 2241 
Q 3622 1825 3500 1412 
Q 3378 1000 3181 728 
Q 2875 309 2494 109 
Q 2113 -91 1625 -91 
z
M 891 1344 
Q 891 869 1089 633 
Q 1288 397 1691 397 
Q 2269 397 2648 901 
Q 3028 1406 3028 2181 
Q 3028 2634 2825 2865 
Q 2622 3097 2228 3097 
Q 1903 3097 1650 2945 
Q 1397 2794 1197 2484 
Q 1050 2253 970 1956 
Q 891 1659 891 1344 
z
" transform="scale(0.015625)"/>
       <path id="DejaVuSans-43" d="M 4122 4306 
L 4122 3641 
Q 3803 3938 3442 4084 
Q 3081 4231 2675 4231 
Q 1875 4231 1450 3742 
Q 1025 3253 1025 2328 
Q 1025 1406 1450 917 
Q 1875 428 2675 428 
Q 3081 428 3442 575 
Q 3803 722 4122 1019 
L 4122 359 
Q 3791 134 3420 21 
Q 3050 -91 2638 -91 
Q 1578 -91 968 557 
Q 359 1206 359 2328 
Q 359 3453 968 4101 
Q 1578 4750 2638 4750 
Q 3056 4750 3426 4639 
Q 3797 4528 4122 4306 
z
" transform="scale(0.015625)"/>
      </defs>
      <use xlink:href="#DejaVuSans-62" transform="translate(0 0.51875)"/>
      <use xlink:href="#DejaVuSans-70" transform="translate(63.476562 0.51875)"/>
      <use xlink:href="#DejaVuSans-2c" transform="translate(126.953125 0.51875)"/>
      <use xlink:href="#DejaVuSans-20" transform="translate(158.740234 0.51875)"/>
      <use xlink:href="#DejaVuSans-Oblique-6f" transform="translate(191.484375 38.8) scale(0.7)"/>
      <use xlink:href="#DejaVuSans-43" transform="translate(237.045898 0.51875)"/>
     </g>
    </g>
   </g>
   <g id="line2d_13">
    <path d="M 68.929773 265.055402 
L 72.939128 262.812471 
L 76.948483 260.569539 
L 80.957839 258.326608 
L 84.967194 256.083677 
L 88.976549 253.840746 
L 92.985905 251.597815 
L 96.99526 249.354883 
L 101.004615 247.111952 
L 105.013971 244.869021 
L 109.023326 242.62609 
L 113.032681 240.383159 
L 117.042037 238.140227 
L 121.051392 235.897296 
L 125.060747 233.654365 
L 129.070102 231.411434 
L 133.079458 229.168503 
L 137.088813 226.925571 
L 141.098168 224.68264 
L 145.107524 222.439709 
L 149.116879 220.196778 
L 153.126234 217.953846 
L 157.13559 215.710915 
L 161.144945 213.467984 
L 165.1543 211.225053 
L 169.163656 208.982122 
L 173.173011 206.73919 
L 177.182366 204.496259 
L 181.191722 202.253328 
L 185.201077 200.010397 
L 189.210432 197.767466 
L 193.219788 195.524534 
L 197.229143 193.281603 
L 201.238498 191.038672 
L 205.247853 188.795741 
L 209.257209 186.55281 
L 213.266564 184.309878 
L 217.275919 182.066947 
L 221.285275 179.824016 
L 225.29463 177.581085 
L 229.303985 175.338153 
L 233.313341 173.095222 
L 237.322696 170.852291 
L 241.332051 168.60936 
L 245.341407 166.366429 
L 249.350762 164.123497 
L 253.360117 161.880566 
L 257.369473 159.637635 
L 261.378828 157.394704 
L 265.388183 155.151773 
L 269.397539 152.908841 
L 273.406894 150.66591 
L 277.416249 148.422979 
L 281.425604 146.180048 
L 285.43496 143.937117 
L 289.444315 141.694185 
L 293.45367 139.451254 
L 297.463026 137.208323 
L 301.472381 134.965392 
L 305.481736 132.72246 
L 309.491092 130.479529 
L 313.500447 128.236598 
L 317.509802 125.993667 
L 321.519158 123.750736 
L 325.528513 121.507804 
L 329.537868 119.264873 
L 333.547224 117.021942 
L 337.556579 114.779011 
L 341.565934 112.53608 
L 345.57529 110.293148 
L 349.584645 108.050217 
L 353.594 105.807286 
L 357.603355 103.564355 
L 361.612711 101.321423 
L 365.622066 99.078492 
L 369.631421 96.835561 
L 373.640777 94.59263 
L 377.650132 92.349699 
L 381.659487 90.106767 
L 385.668843 87.863836 
L 389.678198 85.620905 
L 393.687553 83.377974 
L 397.696909 81.135043 
L 401.706264 78.892111 
L 405.715619 76.64918 
L 409.724975 74.406249 
L 413.73433 72.163318 
L 417.743685 69.920387 
L 421.753041 67.677455 
L 425.762396 65.434524 
L 429.771751 63.191593 
L 433.781106 60.948662 
L 437.790462 58.70573 
L 441.799817 56.462799 
L 445.809172 54.219868 
L 449.818528 51.976937 
L 453.827883 49.734006 
L 457.837238 47.491074 
L 461.846594 45.248143 
L 465.855949 43.005212 
" clip-path="url(#pad7528b3d5)" style="fill: none; stroke: #1f77b4; stroke-width: 2.25; stroke-linecap: square"/>
   </g>
   <g id="line2d_14">
    <path d="M 195.044387 289.252219 
L 198.162881 286.902219 
L 201.281374 284.552219 
L 204.399867 282.202219 
L 207.518361 279.852219 
L 210.636854 277.502219 
L 213.755347 275.152219 
L 216.873841 272.802219 
L 219.992334 270.452219 
L 223.110827 268.102219 
L 226.229321 265.752219 
L 229.347814 263.402219 
L 232.466307 261.052219 
L 235.584801 258.702219 
L 238.703294 256.352219 
L 241.821787 254.002219 
L 244.940281 251.652219 
L 248.058774 249.302219 
L 251.177267 246.952219 
L 254.295761 244.602219 
L 257.414254 242.252219 
L 260.532747 239.902219 
L 263.651241 237.552219 
L 266.769734 235.202219 
L 269.888227 232.852219 
L 273.006721 230.502219 
L 276.125214 228.152219 
L 279.243707 225.802219 
L 282.362201 223.452219 
L 285.480694 221.102219 
L 288.599187 218.752219 
L 291.717681 216.402219 
L 294.836174 214.052219 
L 297.954667 211.702219 
L 301.073161 209.352219 
L 304.191654 207.002219 
L 307.310147 204.652219 
L 310.428641 202.302219 
L 313.547134 199.95222 
L 316.665627 197.60222 
L 319.784121 195.25222 
L 322.902614 192.90222 
L 326.021107 190.55222 
L 329.139601 188.20222 
L 332.258094 185.85222 
L 335.376587 183.50222 
L 338.495081 181.15222 
L 341.613574 178.80222 
L 344.732067 176.45222 
L 347.850561 174.10222 
L 350.969054 171.75222 
L 354.087547 169.40222 
L 357.206041 167.05222 
L 360.324534 164.70222 
L 363.443027 162.35222 
L 366.561521 160.00222 
L 369.680014 157.65222 
L 372.798507 155.30222 
L 375.917001 152.95222 
L 379.035494 150.60222 
L 382.153987 148.25222 
L 385.272481 145.90222 
L 388.390974 143.55222 
L 391.509467 141.20222 
L 394.627961 138.85222 
L 397.746454 136.50222 
L 400.864947 134.15222 
L 403.983441 131.80222 
L 407.101934 129.45222 
L 410.220427 127.10222 
L 413.338921 124.75222 
L 416.457414 122.40222 
L 419.575907 120.05222 
L 422.694401 117.70222 
L 425.812894 115.35222 
L 428.931387 113.00222 
L 432.049881 110.65222 
L 435.168374 108.30222 
L 438.286867 105.95222 
L 441.405361 103.60222 
L 444.523854 101.25222 
L 447.642347 98.90222 
L 450.760841 96.552221 
L 453.879334 94.202221 
L 456.997827 91.852221 
L 460.116321 89.502221 
L 463.234814 87.152221 
L 466.353307 84.802221 
L 469.471801 82.452221 
L 472.590294 80.102221 
L 475.708787 77.752221 
L 478.827281 75.402221 
L 481.945774 73.052221 
L 485.064267 70.702221 
L 488.182761 68.352221 
L 491.301254 66.002221 
L 494.419747 63.652221 
L 497.538241 61.302221 
L 500.656734 58.952221 
L 503.775227 56.602221 
" clip-path="url(#pad7528b3d5)" style="fill: none; stroke: #ff7f0e; stroke-width: 2.25; stroke-linecap: square"/>
   </g>
   <g id="patch_3">
    <path d="M 47.1875 314.44 
L 47.1875 7.2 
" style="fill: none; stroke: #000000; stroke-width: 0.8; stroke-linejoin: miter; stroke-linecap: square"/>
   </g>
   <g id="patch_4">
    <path d="M 47.1875 314.44 
L 525.5175 314.44 
" style="fill: none; stroke: #000000; stroke-width: 0.8; stroke-linejoin: miter; stroke-linecap: square"/>
   </g>
   <g id="legend_1">
    <g id="patch_5">
     <path d="M 54.1875 59.234375 
L 121.945312 59.234375 
Q 123.945312 59.234375 123.945312 57.234375 
L 123.945312 14.2 
Q 123.945312 12.2 121.945312 12.2 
L 54.1875 12.2 
Q 52.1875 12.2 52.1875 14.2 
L 52.1875 57.234375 
Q 52.1875 59.234375 54.1875 59.234375 
z
" style="fill: #ffffff; opacity: 0.8; stroke: #cccccc; stroke-linejoin: miter"/>
    </g>
    <g id="text_15">
     <!-- type -->
     <g transform="translate(76.896094 23.798437) scale(0.1 -0.1)">
      <defs>
       <path id="DejaVuSans-74" d="M 1172 4494 
L 1172 3500 
L 2356 3500 
L 2356 3053 
L 1172 3053 
L 1172 1153 
Q 1172 725 1289 603 
Q 1406 481 1766 481 
L 2356 481 
L 2356 0 
L 1766 0 
Q 1100 0 847 248 
Q 594 497 594 1153 
L 594 3053 
L 172 3053 
L 172 3500 
L 594 3500 
L 594 4494 
L 1172 4494 
z
" transform="scale(0.015625)"/>
       <path id="DejaVuSans-79" d="M 2059 -325 
Q 1816 -950 1584 -1140 
Q 1353 -1331 966 -1331 
L 506 -1331 
L 506 -850 
L 844 -850 
Q 1081 -850 1212 -737 
Q 1344 -625 1503 -206 
L 1606 56 
L 191 3500 
L 800 3500 
L 1894 763 
L 2988 3500 
L 3597 3500 
L 2059 -325 
z
" transform="scale(0.015625)"/>
       <path id="DejaVuSans-65" d="M 3597 1894 
L 3597 1613 
L 953 1613 
Q 991 1019 1311 708 
Q 1631 397 2203 397 
Q 2534 397 2845 478 
Q 3156 559 3463 722 
L 3463 178 
Q 3153 47 2828 -22 
Q 2503 -91 2169 -91 
Q 1331 -91 842 396 
Q 353 884 353 1716 
Q 353 2575 817 3079 
Q 1281 3584 2069 3584 
Q 2775 3584 3186 3129 
Q 3597 2675 3597 1894 
z
M 3022 2063 
Q 3016 2534 2758 2815 
Q 2500 3097 2075 3097 
Q 1594 3097 1305 2825 
Q 1016 2553 972 2059 
L 3022 2063 
z
" transform="scale(0.015625)"/>
      </defs>
      <use xlink:href="#DejaVuSans-74"/>
      <use xlink:href="#DejaVuSans-79" transform="translate(39.208984 0)"/>
      <use xlink:href="#DejaVuSans-70" transform="translate(98.388672 0)"/>
      <use xlink:href="#DejaVuSans-65" transform="translate(161.865234 0)"/>
     </g>
    </g>
    <g id="PathCollection_3">
     <g>
      <use xlink:href="#meb3a0e680d" x="66.1875" y="35.851562" style="fill: #1f77b4; fill-opacity: 0.8; stroke: #1f77b4; stroke-opacity: 0.8"/>
     </g>
    </g>
    <g id="text_16">
     <!-- alcohol -->
     <g transform="translate(84.1875 38.476562) scale(0.1 -0.1)">
      <defs>
       <path id="DejaVuSans-61" d="M 2194 1759 
Q 1497 1759 1228 1600 
Q 959 1441 959 1056 
Q 959 750 1161 570 
Q 1363 391 1709 391 
Q 2188 391 2477 730 
Q 2766 1069 2766 1631 
L 2766 1759 
L 2194 1759 
z
M 3341 1997 
L 3341 0 
L 2766 0 
L 2766 531 
Q 2569 213 2275 61 
Q 1981 -91 1556 -91 
Q 1019 -91 701 211 
Q 384 513 384 1019 
Q 384 1609 779 1909 
Q 1175 2209 1959 2209 
L 2766 2209 
L 2766 2266 
Q 2766 2663 2505 2880 
Q 2244 3097 1772 3097 
Q 1472 3097 1187 3025 
Q 903 2953 641 2809 
L 641 3341 
Q 956 3463 1253 3523 
Q 1550 3584 1831 3584 
Q 2591 3584 2966 3190 
Q 3341 2797 3341 1997 
z
" transform="scale(0.015625)"/>
       <path id="DejaVuSans-63" d="M 3122 3366 
L 3122 2828 
Q 2878 2963 2633 3030 
Q 2388 3097 2138 3097 
Q 1578 3097 1268 2742 
Q 959 2388 959 1747 
Q 959 1106 1268 751 
Q 1578 397 2138 397 
Q 2388 397 2633 464 
Q 2878 531 3122 666 
L 3122 134 
Q 2881 22 2623 -34 
Q 2366 -91 2075 -91 
Q 1284 -91 818 406 
Q 353 903 353 1747 
Q 353 2603 823 3093 
Q 1294 3584 2113 3584 
Q 2378 3584 2631 3529 
Q 2884 3475 3122 3366 
z
" transform="scale(0.015625)"/>
       <path id="DejaVuSans-68" d="M 3513 2113 
L 3513 0 
L 2938 0 
L 2938 2094 
Q 2938 2591 2744 2837 
Q 2550 3084 2163 3084 
Q 1697 3084 1428 2787 
Q 1159 2491 1159 1978 
L 1159 0 
L 581 0 
L 581 4863 
L 1159 4863 
L 1159 2956 
Q 1366 3272 1645 3428 
Q 1925 3584 2291 3584 
Q 2894 3584 3203 3211 
Q 3513 2838 3513 2113 
z
" transform="scale(0.015625)"/>
      </defs>
      <use xlink:href="#DejaVuSans-61"/>
      <use xlink:href="#DejaVuSans-6c" transform="translate(61.279297 0)"/>
      <use xlink:href="#DejaVuSans-63" transform="translate(89.0625 0)"/>
      <use xlink:href="#DejaVuSans-6f" transform="translate(144.042969 0)"/>
      <use xlink:href="#DejaVuSans-68" transform="translate(205.224609 0)"/>
      <use xlink:href="#DejaVuSans-6f" transform="translate(268.603516 0)"/>
      <use xlink:href="#DejaVuSans-6c" transform="translate(329.785156 0)"/>
     </g>
    </g>
    <g id="PathCollection_4">
     <g>
      <use xlink:href="#md8fd40790e" x="66.1875" y="50.529688" style="fill: #ff7f0e; fill-opacity: 0.8; stroke: #ff7f0e; stroke-opacity: 0.8"/>
     </g>
    </g>
    <g id="text_17">
     <!-- alkane -->
     <g transform="translate(84.1875 53.154688) scale(0.1 -0.1)">
      <defs>
       <path id="DejaVuSans-6b" d="M 581 4863 
L 1159 4863 
L 1159 1991 
L 2875 3500 
L 3609 3500 
L 1753 1863 
L 3688 0 
L 2938 0 
L 1159 1709 
L 1159 0 
L 581 0 
L 581 4863 
z
" transform="scale(0.015625)"/>
       <path id="DejaVuSans-6e" d="M 3513 2113 
L 3513 0 
L 2938 0 
L 2938 2094 
Q 2938 2591 2744 2837 
Q 2550 3084 2163 3084 
Q 1697 3084 1428 2787 
Q 1159 2491 1159 1978 
L 1159 0 
L 581 0 
L 581 3500 
L 1159 3500 
L 1159 2956 
Q 1366 3272 1645 3428 
Q 1925 3584 2291 3584 
Q 2894 3584 3203 3211 
Q 3513 2838 3513 2113 
z
" transform="scale(0.015625)"/>
      </defs>
      <use xlink:href="#DejaVuSans-61"/>
      <use xlink:href="#DejaVuSans-6c" transform="translate(61.279297 0)"/>
      <use xlink:href="#DejaVuSans-6b" transform="translate(89.0625 0)"/>
      <use xlink:href="#DejaVuSans-61" transform="translate(145.222656 0)"/>
      <use xlink:href="#DejaVuSans-6e" transform="translate(206.501953 0)"/>
      <use xlink:href="#DejaVuSans-65" transform="translate(269.880859 0)"/>
     </g>
    </g>
   </g>
  </g>
 </g>
 <defs>
  <clipPath id="pad7528b3d5">
   <rect x="47.1875" y="7.2" width="478.33" height="307.24"/>
  </clipPath>
 </defs>
</svg>