<?xml version="1.0" encoding="utf-8" standalone="no"?>
<!DOCTYPE svg PUBLIC "-//W3C//DTD SVG 1.1//EN"
  "http://www.w3.org/Graphics/SVG/1.1/DTD/svg11.dtd">
<svg xmlns:xlink="http://www.w3.org/1999/xlink" width="411.5075pt" height="310.86825pt" viewBox="0 0 411.5075 310.86825" xmlns="http://www.w3.org/2000/svg" version="1.1">
 <metadata>
  <rdf:RDF xmlns:dc="http://purl.org/dc/elements/1.1/" xmlns:cc="http://creativecommons.org/ns#" xmlns:rdf="http://www.w3.org/1999/02/22-rdf-syntax-ns#">
   <cc:Work>
    <dc:type rdf:resource="http://purl.org/dc/dcmitype/StillImage"/>
    <dc:date>2025-07-04T13:51:06.079681</dc:date>
    <dc:format>image/svg+xml</dc:format>
    <dc:creator>
     <cc:Agent>
      <dc:title>Matplotlib v3.10.3, https://matplotlib.org/</dc:title>
     </cc:Agent>
    </dc:creator>
   </cc:Work>
  </rdf:RDF>
 </metadata>
 <defs>
  <style type="text/css">*{stroke-linejoin: round; stroke-linecap: butt}</style>
 </defs>
 <g id="figure_1">
  <g id="patch_1">
   <path d="M 0 310.86825 
L 411.5075 310.86825 
L 411.5075 0 
L 0 0 
z
" style="fill: #ffffff"/>
  </g>
  <g id="axes_1">
   <g id="patch_2">
    <path d="M 47.1875 273.312 
L 404.3075 273.312 
L 404.3075 7.2 
L 47.1875 7.2 
z
" style="fill: #ffffff"/>
   </g>
   <g id="PathCollection_1">
    <defs>
     <path id="m37ece93d7f" d="M 0 3 
C 0.795609 3 1.55874 2.683901 2.12132 2.12132 
C 2.683901 1.55874 3 0.795609 3 0 
C 3 -0.795609 2.683901 -1.55874 2.12132 -2.12132 
C 1.55874 -2.683901 0.795609 -3 0 -3 
C -0.795609 -3 -1.55874 -2.683901 -2.12132 -2.12132 
C -2.683901 -1.55874 -3 -0.795609 -3 0 
C -3 0.795609 -2.683901 1.55874 -2.12132 2.12132 
C -1.55874 2.683901 -0.795609 3 0 3 
z
" style="stroke: #1f77b4; stroke-opacity: 0.8"/>
    </defs>
    <g clip-path="url(#pea81c3c37b)">
     <use xlink:href="#m37ece93d7f" x="63.420227" y="198.793162" style="fill: #1f77b4; fill-opacity: 0.8; stroke: #1f77b4; stroke-opacity: 0.8"/>
     <use xlink:href="#m37ece93d7f" x="96.355175" y="186.209449" style="fill: #1f77b4; fill-opacity: 0.8; stroke: #1f77b4; stroke-opacity: 0.8"/>
     <use xlink:href="#m37ece93d7f" x="129.290123" y="166.849891" style="fill: #1f77b4; fill-opacity: 0.8; stroke: #1f77b4; stroke-opacity: 0.8"/>
     <use xlink:href="#m37ece93d7f" x="162.201596" y="147.490332" style="fill: #1f77b4; fill-opacity: 0.8; stroke: #1f77b4; stroke-opacity: 0.8"/>
     <use xlink:href="#m37ece93d7f" x="195.136544" y="127.162796" style="fill: #1f77b4; fill-opacity: 0.8; stroke: #1f77b4; stroke-opacity: 0.8"/>
     <use xlink:href="#m37ece93d7f" x="228.071491" y="109.739194" style="fill: #1f77b4; fill-opacity: 0.8; stroke: #1f77b4; stroke-opacity: 0.8"/>
     <use xlink:href="#m37ece93d7f" x="260.982964" y="91.347614" style="fill: #1f77b4; fill-opacity: 0.8; stroke: #1f77b4; stroke-opacity: 0.8"/>
     <use xlink:href="#m37ece93d7f" x="293.917912" y="72.956033" style="fill: #1f77b4; fill-opacity: 0.8; stroke: #1f77b4; stroke-opacity: 0.8"/>
     <use xlink:href="#m37ece93d7f" x="326.829385" y="56.500409" style="fill: #1f77b4; fill-opacity: 0.8; stroke: #1f77b4; stroke-opacity: 0.8"/>
     <use xlink:href="#m37ece93d7f" x="359.764333" y="37.140851" style="fill: #1f77b4; fill-opacity: 0.8; stroke: #1f77b4; stroke-opacity: 0.8"/>
     <use xlink:href="#m37ece93d7f" x="157.577088" y="226.864521" style="fill: #1f77b4; fill-opacity: 0.8; stroke: #1f77b4; stroke-opacity: 0.8"/>
     <use xlink:href="#m37ece93d7f" x="190.512036" y="194.92125" style="fill: #1f77b4; fill-opacity: 0.8; stroke: #1f77b4; stroke-opacity: 0.8"/>
     <use xlink:href="#m37ece93d7f" x="223.446983" y="166.849891" style="fill: #1f77b4; fill-opacity: 0.8; stroke: #1f77b4; stroke-opacity: 0.8"/>
     <use xlink:href="#m37ece93d7f" x="256.358456" y="139.746509" style="fill: #1f77b4; fill-opacity: 0.8; stroke: #1f77b4; stroke-opacity: 0.8"/>
     <use xlink:href="#m37ece93d7f" x="289.293404" y="115.547061" style="fill: #1f77b4; fill-opacity: 0.8; stroke: #1f77b4; stroke-opacity: 0.8"/>
     <use xlink:href="#m37ece93d7f" x="322.228352" y="93.28357" style="fill: #1f77b4; fill-opacity: 0.8; stroke: #1f77b4; stroke-opacity: 0.8"/>
     <use xlink:href="#m37ece93d7f" x="355.139825" y="71.988056" style="fill: #1f77b4; fill-opacity: 0.8; stroke: #1f77b4; stroke-opacity: 0.8"/>
     <use xlink:href="#m37ece93d7f" x="388.074773" y="52.628497" style="fill: #1f77b4; fill-opacity: 0.8; stroke: #1f77b4; stroke-opacity: 0.8"/>
     <use xlink:href="#m37ece93d7f" x="190.512036" y="200.729117" style="fill: #1f77b4; fill-opacity: 0.8; stroke: #1f77b4; stroke-opacity: 0.8"/>
     <use xlink:href="#m37ece93d7f" x="256.358456" y="148.45831" style="fill: #1f77b4; fill-opacity: 0.8; stroke: #1f77b4; stroke-opacity: 0.8"/>
     <use xlink:href="#m37ece93d7f" x="157.577088" y="234.608344" style="fill: #1f77b4; fill-opacity: 0.8; stroke: #1f77b4; stroke-opacity: 0.8"/>
     <use xlink:href="#m37ece93d7f" x="223.446983" y="184.273493" style="fill: #1f77b4; fill-opacity: 0.8; stroke: #1f77b4; stroke-opacity: 0.8"/>
     <use xlink:href="#m37ece93d7f" x="162.201596" y="157.170111" style="fill: #1f77b4; fill-opacity: 0.8; stroke: #1f77b4; stroke-opacity: 0.8"/>
     <use xlink:href="#m37ece93d7f" x="162.201596" y="181.369559" style="fill: #1f77b4; fill-opacity: 0.8; stroke: #1f77b4; stroke-opacity: 0.8"/>
     <use xlink:href="#m37ece93d7f" x="195.136544" y="134.90662" style="fill: #1f77b4; fill-opacity: 0.8; stroke: #1f77b4; stroke-opacity: 0.8"/>
     <use xlink:href="#m37ece93d7f" x="228.071491" y="131.034708" style="fill: #1f77b4; fill-opacity: 0.8; stroke: #1f77b4; stroke-opacity: 0.8"/>
     <use xlink:href="#m37ece93d7f" x="260.982964" y="126.194818" style="fill: #1f77b4; fill-opacity: 0.8; stroke: #1f77b4; stroke-opacity: 0.8"/>
     <use xlink:href="#m37ece93d7f" x="209.127441" y="85.539746" style="fill: #1f77b4; fill-opacity: 0.8; stroke: #1f77b4; stroke-opacity: 0.8"/>
     <use xlink:href="#m37ece93d7f" x="242.062389" y="66.180188" style="fill: #1f77b4; fill-opacity: 0.8; stroke: #1f77b4; stroke-opacity: 0.8"/>
     <use xlink:href="#m37ece93d7f" x="307.908809" y="48.756586" style="fill: #1f77b4; fill-opacity: 0.8; stroke: #1f77b4; stroke-opacity: 0.8"/>
    </g>
   </g>
   <g id="FillBetweenPolyCollection_1">
    <path d="M 63.420227 206.397022 
L 63.420227 261.216 
L 66.699566 258.776358 
L 69.978905 256.321093 
L 73.258244 253.857895 
L 76.537583 251.394696 
L 79.816921 249.0105 
L 83.09626 246.583171 
L 86.375599 244.143803 
L 89.654938 241.704435 
L 92.934277 239.265068 
L 96.213616 236.8257 
L 99.492955 234.403517 
L 102.772293 232.221473 
L 106.051632 229.982104 
L 109.330971 227.742735 
L 112.61031 225.503366 
L 115.889649 223.259137 
L 119.168988 220.813253 
L 122.448326 218.28847 
L 125.727665 215.763355 
L 129.007004 213.23824 
L 132.286343 210.713125 
L 135.565682 208.18801 
L 138.845021 205.662895 
L 142.12436 203.13778 
L 145.403698 200.790589 
L 148.683037 198.462045 
L 151.962376 196.008295 
L 155.241715 193.524005 
L 158.521054 191.196209 
L 161.800393 189.022421 
L 165.079731 186.713086 
L 168.35907 184.634659 
L 171.638409 182.362516 
L 174.917748 180.090373 
L 178.197087 177.81823 
L 181.476426 175.680845 
L 184.755764 173.66769 
L 188.035103 171.650834 
L 191.314442 169.485665 
L 194.593781 167.363645 
L 197.87312 165.202598 
L 201.152459 163.048627 
L 204.431798 161.083799 
L 207.711136 158.922287 
L 210.990475 156.806158 
L 214.269814 154.726793 
L 217.549153 152.624105 
L 220.828492 150.463912 
L 224.107831 148.347885 
L 227.387169 146.052172 
L 230.666508 144.123641 
L 233.945847 142.217655 
L 237.225186 140.048784 
L 240.504525 138.080418 
L 243.783864 135.983957 
L 247.063202 133.862744 
L 250.342541 132.10482 
L 253.62188 130.256672 
L 256.901219 128.57046 
L 260.180558 126.708607 
L 263.459897 125.089222 
L 266.739236 123.372208 
L 270.018574 121.323567 
L 273.297913 119.276811 
L 276.577252 117.827546 
L 279.856591 116.321408 
L 283.13593 114.569655 
L 286.415269 112.81417 
L 289.694607 111.058681 
L 292.973946 109.139568 
L 296.253285 107.192018 
L 299.532624 105.375589 
L 302.811963 103.712263 
L 306.091302 101.97632 
L 309.37064 100.264133 
L 312.649979 98.460364 
L 315.929318 96.659644 
L 319.208657 94.856595 
L 322.487996 93.185244 
L 325.767335 91.579073 
L 329.046674 89.972901 
L 332.326012 88.26218 
L 335.605351 86.512184 
L 338.88469 84.877797 
L 342.164029 83.332514 
L 345.443368 81.721836 
L 348.722707 79.96522 
L 352.002045 78.35774 
L 355.281384 76.512128 
L 358.560723 74.691826 
L 361.840062 72.930807 
L 365.119401 71.169431 
L 368.39874 69.534934 
L 371.678079 67.950868 
L 374.957417 66.366801 
L 378.236756 64.756234 
L 381.516095 63.002024 
L 384.795434 61.447969 
L 388.074773 59.893915 
L 388.074773 19.296 
L 388.074773 19.296 
L 384.795434 21.720592 
L 381.516095 24.145185 
L 378.236756 26.569777 
L 374.957417 28.935021 
L 371.678079 31.045598 
L 368.39874 33.266508 
L 365.119401 35.578275 
L 361.840062 37.949552 
L 358.560723 40.401876 
L 355.281384 42.699648 
L 352.002045 44.877331 
L 348.722707 47.121753 
L 345.443368 49.40603 
L 342.164029 51.815959 
L 338.88469 54.078147 
L 335.605351 56.259184 
L 332.326012 58.20148 
L 329.046674 60.523535 
L 325.767335 63.024003 
L 322.487996 65.187081 
L 319.208657 67.062954 
L 315.929318 69.272167 
L 312.649979 71.354165 
L 309.37064 73.407987 
L 306.091302 75.39724 
L 302.811963 77.513993 
L 299.532624 79.689065 
L 296.253285 81.855864 
L 292.973946 83.71885 
L 289.694607 85.545249 
L 286.415269 87.491755 
L 283.13593 89.595414 
L 279.856591 91.539218 
L 276.577252 93.451294 
L 273.297913 95.732821 
L 270.018574 97.669414 
L 266.739236 99.765205 
L 263.459897 101.565695 
L 260.180558 103.415891 
L 256.901219 105.321591 
L 253.62188 107.375894 
L 250.342541 109.168686 
L 247.063202 110.965636 
L 243.783864 112.77428 
L 240.504525 114.572705 
L 237.225186 116.318338 
L 233.945847 118.025897 
L 230.666508 119.778771 
L 227.387169 121.485469 
L 224.107831 123.181681 
L 220.828492 124.876933 
L 217.549153 126.572664 
L 214.269814 128.338618 
L 210.990475 130.251302 
L 207.711136 132.057758 
L 204.431798 133.834736 
L 201.152459 135.691991 
L 197.87312 137.676279 
L 194.593781 139.284596 
L 191.314442 141.057468 
L 188.035103 142.757032 
L 184.755764 144.433802 
L 181.476426 146.110571 
L 178.197087 147.787341 
L 174.917748 149.469731 
L 171.638409 151.155416 
L 168.35907 153.049293 
L 165.079731 154.939486 
L 161.800393 156.596048 
L 158.521054 158.079843 
L 155.241715 159.565484 
L 151.962376 161.259155 
L 148.683037 163.072922 
L 145.403698 164.797101 
L 142.12436 166.340376 
L 138.845021 167.941438 
L 135.565682 169.52312 
L 132.286343 171.29626 
L 129.007004 172.977526 
L 125.727665 174.686824 
L 122.448326 176.467729 
L 119.168988 178.19444 
L 115.889649 179.758711 
L 112.61031 181.371356 
L 109.330971 183.047961 
L 106.051632 184.623954 
L 102.772293 186.26424 
L 99.492955 187.907498 
L 96.213616 189.615008 
L 92.934277 191.322517 
L 89.654938 193.030027 
L 86.375599 194.737536 
L 83.09626 196.445046 
L 79.816921 198.105974 
L 76.537583 199.723096 
L 73.258244 201.386739 
L 69.978905 202.910155 
L 66.699566 204.693595 
L 63.420227 206.397022 
z
" clip-path="url(#pea81c3c37b)" style="fill: #1f77b4; fill-opacity: 0.15"/>
   </g>
   <g id="matplotlib.axis_1">
    <g id="xtick_1">
     <g id="line2d_1">
      <defs>
       <path id="m3da5e7dcc7" d="M 0 0 
L 0 3.5 
" style="stroke: #000000; stroke-width: 0.8"/>
      </defs>
      <g>
       <use xlink:href="#m3da5e7dcc7" x="82.106056" y="273.312" style="stroke: #000000; stroke-width: 0.8"/>
      </g>
     </g>
     <g id="text_1">
      <!-- 40 -->
      <g transform="translate(75.743556 287.910437) scale(0.1 -0.1)">
       <defs>
        <path id="DejaVuSans-34" d="M 2419 4116 
L 825 1625 
L 2419 1625 
L 2419 4116 
z
M 2253 4666 
L 3047 4666 
L 3047 1625 
L 3713 1625 
L 3713 1100 
L 3047 1100 
L 3047 0 
L 2419 0 
L 2419 1100 
L 313 1100 
L 313 1709 
L 2253 4666 
z
" transform="scale(0.015625)"/>
        <path id="DejaVuSans-30" d="M 2034 4250 
Q 1547 4250 1301 3770 
Q 1056 3291 1056 2328 
Q 1056 1369 1301 889 
Q 1547 409 2034 409 
Q 2525 409 2770 889 
Q 3016 1369 3016 2328 
Q 3016 3291 2770 3770 
Q 2525 4250 2034 4250 
z
M 2034 4750 
Q 2819 4750 3233 4129 
Q 3647 3509 3647 2328 
Q 3647 1150 3233 529 
Q 2819 -91 2034 -91 
Q 1250 -91 836 529 
Q 422 1150 422 2328 
Q 422 3509 836 4129 
Q 1250 4750 2034 4750 
z
" transform="scale(0.015625)"/>
       </defs>
       <use xlink:href="#DejaVuSans-34"/>
       <use xlink:href="#DejaVuSans-30" transform="translate(63.623047 0)"/>
      </g>
     </g>
    </g>
    <g id="xtick_2">
     <g id="line2d_2">
      <g>
       <use xlink:href="#m3da5e7dcc7" x="129.055376" y="273.312" style="stroke: #000000; stroke-width: 0.8"/>
      </g>
     </g>
     <g id="text_2">
      <!-- 60 -->
      <g transform="translate(122.692876 287.910437) scale(0.1 -0.1)">
       <defs>
        <path id="DejaVuSans-36" d="M 2113 2584 
Q 1688 2584 1439 2293 
Q 1191 2003 1191 1497 
Q 1191 994 1439 701 
Q 1688 409 2113 409 
Q 2538 409 2786 701 
Q 3034 994 3034 1497 
Q 3034 2003 2786 2293 
Q 2538 2584 2113 2584 
z
M 3366 4563 
L 3366 3988 
Q 3128 4100 2886 4159 
Q 2644 4219 2406 4219 
Q 1781 4219 1451 3797 
Q 1122 3375 1075 2522 
Q 1259 2794 1537 2939 
Q 1816 3084 2150 3084 
Q 2853 3084 3261 2657 
Q 3669 2231 3669 1497 
Q 3669 778 3244 343 
Q 2819 -91 2113 -91 
Q 1303 -91 875 529 
Q 447 1150 447 2328 
Q 447 3434 972 4092 
Q 1497 4750 2381 4750 
Q 2619 4750 2861 4703 
Q 3103 4656 3366 4563 
z
" transform="scale(0.015625)"/>
       </defs>
       <use xlink:href="#DejaVuSans-36"/>
       <use xlink:href="#DejaVuSans-30" transform="translate(63.623047 0)"/>
      </g>
     </g>
    </g>
    <g id="xtick_3">
     <g id="line2d_3">
      <g>
       <use xlink:href="#m3da5e7dcc7" x="176.004696" y="273.312" style="stroke: #000000; stroke-width: 0.8"/>
      </g>
     </g>
     <g id="text_3">
      <!-- 80 -->
      <g transform="translate(169.642196 287.910437) scale(0.1 -0.1)">
       <defs>
        <path id="DejaVuSans-38" d="M 2034 2216 
Q 1584 2216 1326 1975 
Q 1069 1734 1069 1313 
Q 1069 891 1326 650 
Q 1584 409 2034 409 
Q 2484 409 2743 651 
Q 3003 894 3003 1313 
Q 3003 1734 2745 1975 
Q 2488 2216 2034 2216 
z
M 1403 2484 
Q 997 2584 770 2862 
Q 544 3141 544 3541 
Q 544 4100 942 4425 
Q 1341 4750 2034 4750 
Q 2731 4750 3128 4425 
Q 3525 4100 3525 3541 
Q 3525 3141 3298 2862 
Q 3072 2584 2669 2484 
Q 3125 2378 3379 2068 
Q 3634 1759 3634 1313 
Q 3634 634 3220 271 
Q 2806 -91 2034 -91 
Q 1263 -91 848 271 
Q 434 634 434 1313 
Q 434 1759 690 2068 
Q 947 2378 1403 2484 
z
M 1172 3481 
Q 1172 3119 1398 2916 
Q 1625 2713 2034 2713 
Q 2441 2713 2670 2916 
Q 2900 3119 2900 3481 
Q 2900 3844 2670 4047 
Q 2441 4250 2034 4250 
Q 1625 4250 1398 4047 
Q 1172 3844 1172 3481 
z
" transform="scale(0.015625)"/>
       </defs>
       <use xlink:href="#DejaVuSans-38"/>
       <use xlink:href="#DejaVuSans-30" transform="translate(63.623047 0)"/>
      </g>
     </g>
    </g>
    <g id="xtick_4">
     <g id="line2d_4">
      <g>
       <use xlink:href="#m3da5e7dcc7" x="222.954015" y="273.312" style="stroke: #000000; stroke-width: 0.8"/>
      </g>
     </g>
     <g id="text_4">
      <!-- 100 -->
      <g transform="translate(213.410265 287.910437) scale(0.1 -0.1)">
       <defs>
        <path id="DejaVuSans-31" d="M 794 531 
L 1825 531 
L 1825 4091 
L 703 3866 
L 703 4441 
L 1819 4666 
L 2450 4666 
L 2450 531 
L 3481 531 
L 3481 0 
L 794 0 
L 794 531 
z
" transform="scale(0.015625)"/>
       </defs>
       <use xlink:href="#DejaVuSans-31"/>
       <use xlink:href="#DejaVuSans-30" transform="translate(63.623047 0)"/>
       <use xlink:href="#DejaVuSans-30" transform="translate(127.246094 0)"/>
      </g>
     </g>
    </g>
    <g id="xtick_5">
     <g id="line2d_5">
      <g>
       <use xlink:href="#m3da5e7dcc7" x="269.903335" y="273.312" style="stroke: #000000; stroke-width: 0.8"/>
      </g>
     </g>
     <g id="text_5">
      <!-- 120 -->
      <g transform="translate(260.359585 287.910437) scale(0.1 -0.1)">
       <defs>
        <path id="DejaVuSans-32" d="M 1228 531 
L 3431 531 
L 3431 0 
L 469 0 
L 469 531 
Q 828 903 1448 1529 
Q 2069 2156 2228 2338 
Q 2531 2678 2651 2914 
Q 2772 3150 2772 3378 
Q 2772 3750 2511 3984 
Q 2250 4219 1831 4219 
Q 1534 4219 1204 4116 
Q 875 4013 500 3803 
L 500 4441 
Q 881 4594 1212 4672 
Q 1544 4750 1819 4750 
Q 2544 4750 2975 4387 
Q 3406 4025 3406 3419 
Q 3406 3131 3298 2873 
Q 3191 2616 2906 2266 
Q 2828 2175 2409 1742 
Q 1991 1309 1228 531 
z
" transform="scale(0.015625)"/>
       </defs>
       <use xlink:href="#DejaVuSans-31"/>
       <use xlink:href="#DejaVuSans-32" transform="translate(63.623047 0)"/>
       <use xlink:href="#DejaVuSans-30" transform="translate(127.246094 0)"/>
      </g>
     </g>
    </g>
    <g id="xtick_6">
     <g id="line2d_6">
      <g>
       <use xlink:href="#m3da5e7dcc7" x="316.852655" y="273.312" style="stroke: #000000; stroke-width: 0.8"/>
      </g>
     </g>
     <g id="text_6">
      <!-- 140 -->
      <g transform="translate(307.308905 287.910437) scale(0.1 -0.1)">
       <use xlink:href="#DejaVuSans-31"/>
       <use xlink:href="#DejaVuSans-34" transform="translate(63.623047 0)"/>
       <use xlink:href="#DejaVuSans-30" transform="translate(127.246094 0)"/>
      </g>
     </g>
    </g>
    <g id="xtick_7">
     <g id="line2d_7">
      <g>
       <use xlink:href="#m3da5e7dcc7" x="363.801974" y="273.312" style="stroke: #000000; stroke-width: 0.8"/>
      </g>
     </g>
     <g id="text_7">
      <!-- 160 -->
      <g transform="translate(354.258224 287.910437) scale(0.1 -0.1)">
       <use xlink:href="#DejaVuSans-31"/>
       <use xlink:href="#DejaVuSans-36" transform="translate(63.623047 0)"/>
       <use xlink:href="#DejaVuSans-30" transform="translate(127.246094 0)"/>
      </g>
     </g>
    </g>
    <g id="text_8">
     <!-- MW, g/mol -->
     <g transform="translate(199.134219 301.588562) scale(0.1 -0.1)">
      <defs>
       <path id="DejaVuSans-4d" d="M 628 4666 
L 1569 4666 
L 2759 1491 
L 3956 4666 
L 4897 4666 
L 4897 0 
L 4281 0 
L 4281 4097 
L 3078 897 
L 2444 897 
L 1241 4097 
L 1241 0 
L 628 0 
L 628 4666 
z
" transform="scale(0.015625)"/>
       <path id="DejaVuSans-57" d="M 213 4666 
L 850 4666 
L 1831 722 
L 2809 4666 
L 3519 4666 
L 4500 722 
L 5478 4666 
L 6119 4666 
L 4947 0 
L 4153 0 
L 3169 4050 
L 2175 0 
L 1381 0 
L 213 4666 
z
" transform="scale(0.015625)"/>
       <path id="DejaVuSans-2c" d="M 750 794 
L 1409 794 
L 1409 256 
L 897 -744 
L 494 -744 
L 750 256 
L 750 794 
z
" transform="scale(0.015625)"/>
       <path id="DejaVuSans-20" transform="scale(0.015625)"/>
       <path id="DejaVuSans-67" d="M 2906 1791 
Q 2906 2416 2648 2759 
Q 2391 3103 1925 3103 
Q 1463 3103 1205 2759 
Q 947 2416 947 1791 
Q 947 1169 1205 825 
Q 1463 481 1925 481 
Q 2391 481 2648 825 
Q 2906 1169 2906 1791 
z
M 3481 434 
Q 3481 -459 3084 -895 
Q 2688 -1331 1869 -1331 
Q 1566 -1331 1297 -1286 
Q 1028 -1241 775 -1147 
L 775 -588 
Q 1028 -725 1275 -790 
Q 1522 -856 1778 -856 
Q 2344 -856 2625 -561 
Q 2906 -266 2906 331 
L 2906 616 
Q 2728 306 2450 153 
Q 2172 0 1784 0 
Q 1141 0 747 490 
Q 353 981 353 1791 
Q 353 2603 747 3093 
Q 1141 3584 1784 3584 
Q 2172 3584 2450 3431 
Q 2728 3278 2906 2969 
L 2906 3500 
L 3481 3500 
L 3481 434 
z
" transform="scale(0.015625)"/>
       <path id="DejaVuSans-2f" d="M 1625 4666 
L 2156 4666 
L 531 -594 
L 0 -594 
L 1625 4666 
z
" transform="scale(0.015625)"/>
       <path id="DejaVuSans-6d" d="M 3328 2828 
Q 3544 3216 3844 3400 
Q 4144 3584 4550 3584 
Q 5097 3584 5394 3201 
Q 5691 2819 5691 2113 
L 5691 0 
L 5113 0 
L 5113 2094 
Q 5113 2597 4934 2840 
Q 4756 3084 4391 3084 
Q 3944 3084 3684 2787 
Q 3425 2491 3425 1978 
L 3425 0 
L 2847 0 
L 2847 2094 
Q 2847 2600 2669 2842 
Q 2491 3084 2119 3084 
Q 1678 3084 1418 2786 
Q 1159 2488 1159 1978 
L 1159 0 
L 581 0 
L 581 3500 
L 1159 3500 
L 1159 2956 
Q 1356 3278 1631 3431 
Q 1906 3584 2284 3584 
Q 2666 3584 2933 3390 
Q 3200 3197 3328 2828 
z
" transform="scale(0.015625)"/>
       <path id="DejaVuSans-6f" d="M 1959 3097 
Q 1497 3097 1228 2736 
Q 959 2375 959 1747 
Q 959 1119 1226 758 
Q 1494 397 1959 397 
Q 2419 397 2687 759 
Q 2956 1122 2956 1747 
Q 2956 2369 2687 2733 
Q 2419 3097 1959 3097 
z
M 1959 3584 
Q 2709 3584 3137 3096 
Q 3566 2609 3566 1747 
Q 3566 888 3137 398 
Q 2709 -91 1959 -91 
Q 1206 -91 779 398 
Q 353 888 353 1747 
Q 353 2609 779 3096 
Q 1206 3584 1959 3584 
z
" transform="scale(0.015625)"/>
       <path id="DejaVuSans-6c" d="M 603 4863 
L 1178 4863 
L 1178 0 
L 603 0 
L 603 4863 
z
" transform="scale(0.015625)"/>
      </defs>
      <use xlink:href="#DejaVuSans-4d"/>
      <use xlink:href="#DejaVuSans-57" transform="translate(86.279297 0)"/>
      <use xlink:href="#DejaVuSans-2c" transform="translate(185.15625 0)"/>
      <use xlink:href="#DejaVuSans-20" transform="translate(216.943359 0)"/>
      <use xlink:href="#DejaVuSans-67" transform="translate(248.730469 0)"/>
      <use xlink:href="#DejaVuSans-2f" transform="translate(312.207031 0)"/>
      <use xlink:href="#DejaVuSans-6d" transform="translate(345.898438 0)"/>
      <use xlink:href="#DejaVuSans-6f" transform="translate(443.310547 0)"/>
      <use xlink:href="#DejaVuSans-6c" transform="translate(504.492188 0)"/>
     </g>
    </g>
   </g>
   <g id="matplotlib.axis_2">
    <g id="ytick_1">
     <g id="line2d_8">
      <defs>
       <path id="me0e2b76e13" d="M 0 0 
L -3.5 0 
" style="stroke: #000000; stroke-width: 0.8"/>
      </defs>
      <g>
       <use xlink:href="#me0e2b76e13" x="47.1875" y="261.711726" style="stroke: #000000; stroke-width: 0.8"/>
      </g>
     </g>
     <g id="text_9">
      <!-- 0 -->
      <g transform="translate(33.825 265.510944) scale(0.1 -0.1)">
       <use xlink:href="#DejaVuSans-30"/>
      </g>
     </g>
    </g>
    <g id="ytick_2">
     <g id="line2d_9">
      <g>
       <use xlink:href="#me0e2b76e13" x="47.1875" y="213.31283" style="stroke: #000000; stroke-width: 0.8"/>
      </g>
     </g>
     <g id="text_10">
      <!-- 50 -->
      <g transform="translate(27.4625 217.112049) scale(0.1 -0.1)">
       <defs>
        <path id="DejaVuSans-35" d="M 691 4666 
L 3169 4666 
L 3169 4134 
L 1269 4134 
L 1269 2991 
Q 1406 3038 1543 3061 
Q 1681 3084 1819 3084 
Q 2600 3084 3056 2656 
Q 3513 2228 3513 1497 
Q 3513 744 3044 326 
Q 2575 -91 1722 -91 
Q 1428 -91 1123 -41 
Q 819 9 494 109 
L 494 744 
Q 775 591 1075 516 
Q 1375 441 1709 441 
Q 2250 441 2565 725 
Q 2881 1009 2881 1497 
Q 2881 1984 2565 2268 
Q 2250 2553 1709 2553 
Q 1456 2553 1204 2497 
Q 953 2441 691 2322 
L 691 4666 
z
" transform="scale(0.015625)"/>
       </defs>
       <use xlink:href="#DejaVuSans-35"/>
       <use xlink:href="#DejaVuSans-30" transform="translate(63.623047 0)"/>
      </g>
     </g>
    </g>
    <g id="ytick_3">
     <g id="line2d_10">
      <g>
       <use xlink:href="#me0e2b76e13" x="47.1875" y="164.913935" style="stroke: #000000; stroke-width: 0.8"/>
      </g>
     </g>
     <g id="text_11">
      <!-- 100 -->
      <g transform="translate(21.1 168.713154) scale(0.1 -0.1)">
       <use xlink:href="#DejaVuSans-31"/>
       <use xlink:href="#DejaVuSans-30" transform="translate(63.623047 0)"/>
       <use xlink:href="#DejaVuSans-30" transform="translate(127.246094 0)"/>
      </g>
     </g>
    </g>
    <g id="ytick_4">
     <g id="line2d_11">
      <g>
       <use xlink:href="#me0e2b76e13" x="47.1875" y="116.515039" style="stroke: #000000; stroke-width: 0.8"/>
      </g>
     </g>
     <g id="text_12">
      <!-- 150 -->
      <g transform="translate(21.1 120.314258) scale(0.1 -0.1)">
       <use xlink:href="#DejaVuSans-31"/>
       <use xlink:href="#DejaVuSans-35" transform="translate(63.623047 0)"/>
       <use xlink:href="#DejaVuSans-30" transform="translate(127.246094 0)"/>
      </g>
     </g>
    </g>
    <g id="ytick_5">
     <g id="line2d_12">
      <g>
       <use xlink:href="#me0e2b76e13" x="47.1875" y="68.116144" style="stroke: #000000; stroke-width: 0.8"/>
      </g>
     </g>
     <g id="text_13">
      <!-- 200 -->
      <g transform="translate(21.1 71.915363) scale(0.1 -0.1)">
       <use xlink:href="#DejaVuSans-32"/>
       <use xlink:href="#DejaVuSans-30" transform="translate(63.623047 0)"/>
       <use xlink:href="#DejaVuSans-30" transform="translate(127.246094 0)"/>
      </g>
     </g>
    </g>
    <g id="ytick_6">
     <g id="line2d_13">
      <g>
       <use xlink:href="#me0e2b76e13" x="47.1875" y="19.717248" style="stroke: #000000; stroke-width: 0.8"/>
      </g>
     </g>
     <g id="text_14">
      <!-- 250 -->
      <g transform="translate(21.1 23.516467) scale(0.1 -0.1)">
       <use xlink:href="#DejaVuSans-32"/>
       <use xlink:href="#DejaVuSans-35" transform="translate(63.623047 0)"/>
       <use xlink:href="#DejaVuSans-30" transform="translate(127.246094 0)"/>
      </g>
     </g>
    </g>
    <g id="text_15">
     <!-- bp, $^o$C -->
     <g transform="translate(15 155.606) rotate(-90) scale(0.1 -0.1)">
      <defs>
       <path id="DejaVuSans-62" d="M 3116 1747 
Q 3116 2381 2855 2742 
Q 2594 3103 2138 3103 
Q 1681 3103 1420 2742 
Q 1159 2381 1159 1747 
Q 1159 1113 1420 752 
Q 1681 391 2138 391 
Q 2594 391 2855 752 
Q 3116 1113 3116 1747 
z
M 1159 2969 
Q 1341 3281 1617 3432 
Q 1894 3584 2278 3584 
Q 2916 3584 3314 3078 
Q 3713 2572 3713 1747 
Q 3713 922 3314 415 
Q 2916 -91 2278 -91 
Q 1894 -91 1617 61 
Q 1341 213 1159 525 
L 1159 0 
L 581 0 
L 581 4863 
L 1159 4863 
L 1159 2969 
z
" transform="scale(0.015625)"/>
       <path id="DejaVuSans-70" d="M 1159 525 
L 1159 -1331 
L 581 -1331 
L 581 3500 
L 1159 3500 
L 1159 2969 
Q 1341 3281 1617 3432 
Q 1894 3584 2278 3584 
Q 2916 3584 3314 3078 
Q 3713 2572 3713 1747 
Q 3713 922 3314 415 
Q 2916 -91 2278 -91 
Q 1894 -91 1617 61 
Q 1341 213 1159 525 
z
M 3116 1747 
Q 3116 2381 2855 2742 
Q 2594 3103 2138 3103 
Q 1681 3103 1420 2742 
Q 1159 2381 1159 1747 
Q 1159 1113 1420 752 
Q 1681 391 2138 391 
Q 2594 391 2855 752 
Q 3116 1113 3116 1747 
z
" transform="scale(0.015625)"/>
       <path id="DejaVuSans-Oblique-6f" d="M 1625 -91 
Q 1009 -91 651 289 
Q 294 669 294 1325 
Q 294 1706 417 2101 
Q 541 2497 738 2766 
Q 1047 3184 1428 3384 
Q 1809 3584 2291 3584 
Q 2888 3584 3255 3212 
Q 3622 2841 3622 2241 
Q 3622 1825 3500 1412 
Q 3378 1000 3181 728 
Q 2875 309 2494 109 
Q 2113 -91 1625 -91 
z
M 891 1344 
Q 891 869 1089 633 
Q 1288 397 1691 397 
Q 2269 397 2648 901 
Q 3028 1406 3028 2181 
Q 3028 2634 2825 2865 
Q 2622 3097 2228 3097 
Q 1903 3097 1650 2945 
Q 1397 2794 1197 2484 
Q 1050 2253 970 1956 
Q 891 1659 891 1344 
z
" transform="scale(0.015625)"/>
       <path id="DejaVuSans-43" d="M 4122 4306 
L 4122 3641 
Q 3803 3938 3442 4084 
Q 3081 4231 2675 4231 
Q 1875 4231 1450 3742 
Q 1025 3253 1025 2328 
Q 1025 1406 1450 917 
Q 1875 428 2675 428 
Q 3081 428 3442 575 
Q 3803 722 4122 1019 
L 4122 359 
Q 3791 134 3420 21 
Q 3050 -91 2638 -91 
Q 1578 -91 968 557 
Q 359 1206 359 2328 
Q 359 3453 968 4101 
Q 1578 4750 2638 4750 
Q 3056 4750 3426 4639 
Q 3797 4528 4122 4306 
z
" transform="scale(0.015625)"/>
      </defs>
      <use xlink:href="#DejaVuSans-62" transform="translate(0 0.51875)"/>
      <use xlink:href="#DejaVuSans-70" transform="translate(63.476562 0.51875)"/>
      <use xlink:href="#DejaVuSans-2c" transform="translate(126.953125 0.51875)"/>
      <use xlink:href="#DejaVuSans-20" transform="translate(158.740234 0.51875)"/>
      <use xlink:href="#DejaVuSans-Oblique-6f" transform="translate(191.484375 38.8) scale(0.7)"/>
      <use xlink:href="#DejaVuSans-43" transform="translate(237.045898 0.51875)"/>
     </g>
    </g>
   </g>
   <g id="line2d_14">
    <path d="M 63.420227 227.844179 
L 66.699566 225.952039 
L 69.978905 224.059898 
L 73.258244 222.167758 
L 76.537583 220.275617 
L 79.816921 218.383476 
L 83.09626 216.491336 
L 86.375599 214.599195 
L 89.654938 212.707054 
L 92.934277 210.814914 
L 96.213616 208.922773 
L 99.492955 207.030633 
L 102.772293 205.138492 
L 106.051632 203.246351 
L 109.330971 201.354211 
L 112.61031 199.46207 
L 115.889649 197.56993 
L 119.168988 195.677789 
L 122.448326 193.785648 
L 125.727665 191.893508 
L 129.007004 190.001367 
L 132.286343 188.109226 
L 135.565682 186.217086 
L 138.845021 184.324945 
L 142.12436 182.432805 
L 145.403698 180.540664 
L 148.683037 178.648523 
L 151.962376 176.756383 
L 155.241715 174.864242 
L 158.521054 172.972101 
L 161.800393 171.079961 
L 165.079731 169.18782 
L 168.35907 167.29568 
L 171.638409 165.403539 
L 174.917748 163.511398 
L 178.197087 161.619258 
L 181.476426 159.727117 
L 184.755764 157.834977 
L 188.035103 155.942836 
L 191.314442 154.050695 
L 194.593781 152.158555 
L 197.87312 150.266414 
L 201.152459 148.374273 
L 204.431798 146.482133 
L 207.711136 144.589992 
L 210.990475 142.697852 
L 214.269814 140.805711 
L 217.549153 138.91357 
L 220.828492 137.02143 
L 224.107831 135.129289 
L 227.387169 133.237149 
L 230.666508 131.345008 
L 233.945847 129.452867 
L 237.225186 127.560727 
L 240.504525 125.668586 
L 243.783864 123.776445 
L 247.063202 121.884305 
L 250.342541 119.992164 
L 253.62188 118.100024 
L 256.901219 116.207883 
L 260.180558 114.315742 
L 263.459897 112.423602 
L 266.739236 110.531461 
L 270.018574 108.639321 
L 273.297913 106.74718 
L 276.577252 104.855039 
L 279.856591 102.962899 
L 283.13593 101.070758 
L 286.415269 99.178617 
L 289.694607 97.286477 
L 292.973946 95.394336 
L 296.253285 93.502196 
L 299.532624 91.610055 
L 302.811963 89.717914 
L 306.091302 87.825774 
L 309.37064 85.933633 
L 312.649979 84.041492 
L 315.929318 82.149352 
L 319.208657 80.257211 
L 322.487996 78.365071 
L 325.767335 76.47293 
L 329.046674 74.580789 
L 332.326012 72.688649 
L 335.605351 70.796508 
L 338.88469 68.904368 
L 342.164029 67.012227 
L 345.443368 65.120086 
L 348.722707 63.227946 
L 352.002045 61.335805 
L 355.281384 59.443664 
L 358.560723 57.551524 
L 361.840062 55.659383 
L 365.119401 53.767243 
L 368.39874 51.875102 
L 371.678079 49.982961 
L 374.957417 48.090821 
L 378.236756 46.19868 
L 381.516095 44.30654 
L 384.795434 42.414399 
L 388.074773 40.522258 
" clip-path="url(#pea81c3c37b)" style="fill: none; stroke: #1f77b4; stroke-width: 2.25; stroke-linecap: square"/>
   </g>
   <g id="patch_3">
    <path d="M 47.1875 273.312 
L 47.1875 7.2 
" style="fill: none; stroke: #000000; stroke-width: 0.8; stroke-linejoin: miter; stroke-linecap: square"/>
   </g>
   <g id="patch_4">
    <path d="M 404.3075 273.312 
L 404.3075 7.2 
" style="fill: none; stroke: #000000; stroke-width: 0.8; stroke-linejoin: miter; stroke-linecap: square"/>
   </g>
   <g id="patch_5">
    <path d="M 47.1875 273.312 
L 404.3075 273.312 
" style="fill: none; stroke: #000000; stroke-width: 0.8; stroke-linejoin: miter; stroke-linecap: square"/>
   </g>
   <g id="patch_6">
    <path d="M 47.1875 7.2 
L 404.3075 7.2 
" style="fill: none; stroke: #000000; stroke-width: 0.8; stroke-linejoin: miter; stroke-linecap: square"/>
   </g>
  </g>
 </g>
 <defs>
  <clipPath id="pea81c3c37b">
   <rect x="47.1875" y="7.2" width="357.12" height="266.112"/>
  </clipPath>
 </defs>
</svg>