<?xml version="1.0" encoding="utf-8" standalone="no"?>
<!DOCTYPE svg PUBLIC "-//W3C//DTD SVG 1.1//EN"
  "http://www.w3.org/Graphics/SVG/1.1/DTD/svg11.dtd">
<svg xmlns:xlink="http://www.w3.org/1999/xlink" width="532.7175pt" height="351.99625pt" viewBox="0 0 532.7175 351.99625" xmlns="http://www.w3.org/2000/svg" version="1.1">
 <metadata>
  <rdf:RDF xmlns:dc="http://purl.org/dc/elements/1.1/" xmlns:cc="http://creativecommons.org/ns#" xmlns:rdf="http://www.w3.org/1999/02/22-rdf-syntax-ns#">
   <cc:Work>
    <dc:type rdf:resource="http://purl.org/dc/dcmitype/StillImage"/>
    <dc:date>2026-02-15T10:05:15.594025</dc:date>
    <dc:format>image/svg+xml</dc:format>
    <dc:creator>
     <cc:Agent>
      <dc:title>Matplotlib v3.10.3, https://matplotlib.org/</dc:title>
     </cc:Agent>
    </dc:creator>
   </cc:Work>
  </rdf:RDF>
 </metadata>
 <defs>
  <style type="text/css">*{stroke-linejoin: round; stroke-linecap: butt}</style>
 </defs>
 <g id="figure_1">
  <g id="patch_1">
   <path d="M 0 351.99625 
L 532.7175 351.99625 
L 532.7175 0 
L 0 0 
z
" style="fill: #ffffff"/>
  </g>
  <g id="axes_1">
   <g id="patch_2">
    <path d="M 47.1875 314.44 
L 525.5175 314.44 
L 525.5175 7.2 
L 47.1875 7.2 
z
" style="fill: #ffffff"/>
   </g>
   <g id="PathCollection_1">
    <defs>
     <path id="m2088768f05" d="M 0 3 
C 0.795609 3 1.55874 2.683901 2.12132 2.12132 
C 2.683901 1.55874 3 0.795609 3 0 
C 3 -0.795609 2.683901 -1.55874 2.12132 -2.12132 
C 1.55874 -2.683901 0.795609 -3 0 -3 
C -0.795609 -3 -1.55874 -2.683901 -2.12132 -2.12132 
C -2.683901 -1.55874 -3 -0.795609 -3 0 
C -3 0.795609 -2.683901 1.55874 -2.12132 2.12132 
C -1.55874 2.683901 -0.795609 3 0 3 
z
" style="stroke: #1f77b4; stroke-opacity: 0.8"/>
    </defs>
    <g clip-path="url(#pce526304c4)">
     <use xlink:href="#m2088768f05" x="68.929773" y="254.171902" style="fill: #1f77b4; fill-opacity: 0.8; stroke: #1f77b4; stroke-opacity: 0.8"/>
     <use xlink:href="#m2088768f05" x="113.043162" y="237.903406" style="fill: #1f77b4; fill-opacity: 0.8; stroke: #1f77b4; stroke-opacity: 0.8"/>
     <use xlink:href="#m2088768f05" x="157.156551" y="212.87495" style="fill: #1f77b4; fill-opacity: 0.8; stroke: #1f77b4; stroke-opacity: 0.8"/>
     <use xlink:href="#m2088768f05" x="201.238498" y="187.846494" style="fill: #1f77b4; fill-opacity: 0.8; stroke: #1f77b4; stroke-opacity: 0.8"/>
     <use xlink:href="#m2088768f05" x="245.351887" y="161.566616" style="fill: #1f77b4; fill-opacity: 0.8; stroke: #1f77b4; stroke-opacity: 0.8"/>
     <use xlink:href="#m2088768f05" x="289.465277" y="139.041006" style="fill: #1f77b4; fill-opacity: 0.8; stroke: #1f77b4; stroke-opacity: 0.8"/>
     <use xlink:href="#m2088768f05" x="333.547224" y="115.263973" style="fill: #1f77b4; fill-opacity: 0.8; stroke: #1f77b4; stroke-opacity: 0.8"/>
     <use xlink:href="#m2088768f05" x="377.660613" y="91.486939" style="fill: #1f77b4; fill-opacity: 0.8; stroke: #1f77b4; stroke-opacity: 0.8"/>
     <use xlink:href="#m2088768f05" x="421.74256" y="70.212752" style="fill: #1f77b4; fill-opacity: 0.8; stroke: #1f77b4; stroke-opacity: 0.8"/>
     <use xlink:href="#m2088768f05" x="465.855949" y="45.184296" style="fill: #1f77b4; fill-opacity: 0.8; stroke: #1f77b4; stroke-opacity: 0.8"/>
     <use xlink:href="#m2088768f05" x="201.238498" y="200.360722" style="fill: #1f77b4; fill-opacity: 0.8; stroke: #1f77b4; stroke-opacity: 0.8"/>
     <use xlink:href="#m2088768f05" x="201.238498" y="231.646292" style="fill: #1f77b4; fill-opacity: 0.8; stroke: #1f77b4; stroke-opacity: 0.8"/>
     <use xlink:href="#m2088768f05" x="245.351887" y="171.577998" style="fill: #1f77b4; fill-opacity: 0.8; stroke: #1f77b4; stroke-opacity: 0.8"/>
     <use xlink:href="#m2088768f05" x="289.465277" y="166.572307" style="fill: #1f77b4; fill-opacity: 0.8; stroke: #1f77b4; stroke-opacity: 0.8"/>
     <use xlink:href="#m2088768f05" x="333.547224" y="160.315193" style="fill: #1f77b4; fill-opacity: 0.8; stroke: #1f77b4; stroke-opacity: 0.8"/>
     <use xlink:href="#m2088768f05" x="264.091431" y="107.755436" style="fill: #1f77b4; fill-opacity: 0.8; stroke: #1f77b4; stroke-opacity: 0.8"/>
     <use xlink:href="#m2088768f05" x="308.20482" y="82.72698" style="fill: #1f77b4; fill-opacity: 0.8; stroke: #1f77b4; stroke-opacity: 0.8"/>
     <use xlink:href="#m2088768f05" x="396.400157" y="60.20137" style="fill: #1f77b4; fill-opacity: 0.8; stroke: #1f77b4; stroke-opacity: 0.8"/>
    </g>
   </g>
   <g id="FillBetweenPolyCollection_1">
    <path d="M 68.929773 250.774889 
L 68.929773 285.862488 
L 72.939128 283.251856 
L 76.948483 280.641225 
L 80.957839 278.030594 
L 84.967194 275.524611 
L 88.976549 273.072804 
L 92.985905 270.513906 
L 96.99526 267.788454 
L 101.004615 265.063001 
L 105.013971 262.35397 
L 109.023326 259.864998 
L 113.032681 257.43831 
L 117.042037 255.003788 
L 121.051392 252.569266 
L 125.060747 249.813415 
L 129.070102 247.37549 
L 133.079458 244.956273 
L 137.088813 242.550623 
L 141.098168 240.111797 
L 145.107524 237.487519 
L 149.116879 234.877694 
L 153.126234 232.446312 
L 157.13559 229.953359 
L 161.144945 227.581251 
L 165.1543 225.147966 
L 169.163656 222.773873 
L 173.173011 220.412634 
L 177.182366 218.129197 
L 181.191722 215.789276 
L 185.201077 213.447079 
L 189.210432 211.080979 
L 193.219788 208.566701 
L 197.229143 205.992231 
L 201.238498 203.460633 
L 205.247853 201.116292 
L 209.257209 198.599813 
L 213.266564 196.083238 
L 217.275919 193.691934 
L 221.285275 191.160791 
L 225.29463 188.879732 
L 229.303985 186.376945 
L 233.313341 183.826565 
L 237.322696 181.452809 
L 241.332051 179.18219 
L 245.341407 176.935487 
L 249.350762 174.538169 
L 253.360117 172.179102 
L 257.369473 169.955383 
L 261.378828 167.624634 
L 265.388183 165.168297 
L 269.397539 162.897722 
L 273.406894 160.555644 
L 277.416249 158.203397 
L 281.425604 155.98753 
L 285.43496 153.839825 
L 289.444315 151.62129 
L 293.45367 149.543405 
L 297.463026 147.167482 
L 301.472381 144.805328 
L 305.481736 142.665927 
L 309.491092 140.47024 
L 313.500447 138.423729 
L 317.509802 136.375459 
L 321.519158 134.188917 
L 325.528513 131.936263 
L 329.537868 129.842603 
L 333.547224 127.655813 
L 337.556579 125.394994 
L 341.565934 123.236335 
L 345.57529 121.151766 
L 349.584645 119.051537 
L 353.594 116.939341 
L 357.603355 114.825995 
L 361.612711 112.712648 
L 365.622066 110.599302 
L 369.631421 108.484001 
L 373.640777 106.368331 
L 377.650132 104.25444 
L 381.659487 102.140763 
L 385.668843 100.005527 
L 389.678198 97.841436 
L 393.687553 95.798573 
L 397.696909 93.708297 
L 401.706264 91.572995 
L 405.715619 89.462299 
L 409.724975 87.402424 
L 413.73433 85.308378 
L 417.743685 83.118353 
L 421.753041 81.012436 
L 425.762396 78.985014 
L 429.771751 77.074036 
L 433.781106 75.167698 
L 437.790462 73.211287 
L 441.799817 71.096523 
L 445.809172 68.857121 
L 449.818528 66.816524 
L 453.827883 64.787677 
L 457.837238 62.758829 
L 461.846594 60.721068 
L 465.855949 58.638665 
L 465.855949 21.165455 
L 465.855949 21.165455 
L 461.846594 23.643486 
L 457.837238 26.066385 
L 453.827883 28.489403 
L 449.818528 31.145371 
L 445.809172 33.808777 
L 441.799817 36.339955 
L 437.790462 38.86497 
L 433.781106 41.389985 
L 429.771751 43.915001 
L 425.762396 46.448045 
L 421.753041 48.98343 
L 417.743685 51.531346 
L 413.73433 54.040421 
L 409.724975 56.566119 
L 405.715619 59.097156 
L 401.706264 61.629399 
L 397.696909 64.212696 
L 393.687553 66.856251 
L 389.678198 69.215839 
L 385.668843 71.64152 
L 381.659487 74.243436 
L 377.650132 76.607745 
L 373.640777 79.156639 
L 369.631421 81.712654 
L 365.622066 84.021354 
L 361.612711 86.330054 
L 357.603355 88.706644 
L 353.594 91.117488 
L 349.584645 93.670377 
L 345.57529 95.991131 
L 341.565934 98.346567 
L 337.556579 100.754728 
L 333.547224 103.294818 
L 329.537868 105.744619 
L 325.528513 108.074693 
L 321.519158 110.712803 
L 317.509802 112.878457 
L 313.500447 115.211947 
L 309.491092 117.53906 
L 305.481736 120.027385 
L 301.472381 122.438159 
L 297.463026 124.84932 
L 293.45367 127.140181 
L 289.444315 129.470931 
L 285.43496 131.797347 
L 281.425604 134.111648 
L 277.416249 136.220849 
L 273.406894 138.596347 
L 269.397539 140.979213 
L 265.388183 143.200525 
L 261.378828 145.783296 
L 257.369473 148.089148 
L 253.360117 150.211497 
L 249.350762 152.409487 
L 245.341407 154.636423 
L 241.332051 157.190258 
L 237.322696 159.459518 
L 233.313341 161.785614 
L 229.303985 164.100092 
L 225.29463 166.336397 
L 221.285275 168.612629 
L 217.275919 170.877538 
L 213.266564 173.055129 
L 209.257209 175.194646 
L 205.247853 177.338476 
L 201.238498 179.658067 
L 197.229143 181.887846 
L 193.219788 184.093331 
L 189.210432 186.362154 
L 185.201077 188.566382 
L 181.191722 190.764898 
L 177.182366 192.974838 
L 173.173011 195.00096 
L 169.163656 197.11497 
L 165.1543 199.32876 
L 161.144945 201.631118 
L 157.13559 203.933477 
L 153.126234 206.073654 
L 149.116879 208.129943 
L 145.107524 210.246312 
L 141.098168 212.270656 
L 137.088813 214.364362 
L 133.079458 216.521447 
L 129.070102 218.710529 
L 125.060747 220.929305 
L 121.051392 222.99005 
L 117.042037 225.146504 
L 113.032681 227.301272 
L 109.023326 229.323521 
L 105.013971 231.271872 
L 101.004615 233.54518 
L 96.99526 235.82397 
L 92.985905 238.066557 
L 88.976549 240.224188 
L 84.967194 242.385403 
L 80.957839 244.414218 
L 76.948483 246.697186 
L 72.939128 248.847091 
L 68.929773 250.774889 
z
" clip-path="url(#pce526304c4)" style="fill: #1f77b4; fill-opacity: 0.15"/>
   </g>
   <g id="PathCollection_2">
    <defs>
     <path id="m16414b9133" d="M 0 -3 
L -3 3 
L 3 3 
z
" style="stroke: #ff7f0e; stroke-opacity: 0.8"/>
    </defs>
    <g clip-path="url(#pce526304c4)">
     <use xlink:href="#m16414b9133" x="195.044387" y="290.463163" style="fill: #ff7f0e; fill-opacity: 0.8; stroke: #ff7f0e; stroke-opacity: 0.8"/>
     <use xlink:href="#m16414b9133" x="239.157776" y="249.166211" style="fill: #ff7f0e; fill-opacity: 0.8; stroke: #ff7f0e; stroke-opacity: 0.8"/>
     <use xlink:href="#m16414b9133" x="283.271166" y="212.87495" style="fill: #ff7f0e; fill-opacity: 0.8; stroke: #ff7f0e; stroke-opacity: 0.8"/>
     <use xlink:href="#m16414b9133" x="327.353113" y="177.835112" style="fill: #ff7f0e; fill-opacity: 0.8; stroke: #ff7f0e; stroke-opacity: 0.8"/>
     <use xlink:href="#m16414b9133" x="371.466502" y="146.549542" style="fill: #ff7f0e; fill-opacity: 0.8; stroke: #ff7f0e; stroke-opacity: 0.8"/>
     <use xlink:href="#m16414b9133" x="415.579891" y="117.766818" style="fill: #ff7f0e; fill-opacity: 0.8; stroke: #ff7f0e; stroke-opacity: 0.8"/>
     <use xlink:href="#m16414b9133" x="459.661838" y="90.235517" style="fill: #ff7f0e; fill-opacity: 0.8; stroke: #ff7f0e; stroke-opacity: 0.8"/>
     <use xlink:href="#m16414b9133" x="503.775227" y="65.207061" style="fill: #ff7f0e; fill-opacity: 0.8; stroke: #ff7f0e; stroke-opacity: 0.8"/>
     <use xlink:href="#m16414b9133" x="239.157776" y="256.674748" style="fill: #ff7f0e; fill-opacity: 0.8; stroke: #ff7f0e; stroke-opacity: 0.8"/>
     <use xlink:href="#m16414b9133" x="327.353113" y="189.097917" style="fill: #ff7f0e; fill-opacity: 0.8; stroke: #ff7f0e; stroke-opacity: 0.8"/>
     <use xlink:href="#m16414b9133" x="195.044387" y="300.474545" style="fill: #ff7f0e; fill-opacity: 0.8; stroke: #ff7f0e; stroke-opacity: 0.8"/>
     <use xlink:href="#m16414b9133" x="283.271166" y="235.40056" style="fill: #ff7f0e; fill-opacity: 0.8; stroke: #ff7f0e; stroke-opacity: 0.8"/>
    </g>
   </g>
   <g id="FillBetweenPolyCollection_2">
    <path d="M 195.044387 280.444375 
L 195.044387 296.59714 
L 198.162881 294.061416 
L 201.281374 291.560852 
L 204.399867 289.086751 
L 207.518361 286.590067 
L 210.636854 284.020075 
L 213.755347 281.597103 
L 216.873841 279.0323 
L 219.992334 276.501795 
L 223.110827 273.979813 
L 226.229321 271.54404 
L 229.347814 269.125832 
L 232.466307 266.632478 
L 235.584801 264.16722 
L 238.703294 261.687158 
L 241.821787 259.303595 
L 244.940281 256.817408 
L 248.058774 254.279603 
L 251.177267 251.735609 
L 254.295761 249.254056 
L 257.414254 246.834892 
L 260.532747 244.361259 
L 263.651241 241.94911 
L 266.769734 239.54987 
L 269.888227 237.093196 
L 273.006721 234.652489 
L 276.125214 232.199049 
L 279.243707 229.787413 
L 282.362201 227.376909 
L 285.480694 224.941528 
L 288.599187 222.552707 
L 291.717681 220.133065 
L 294.836174 217.714613 
L 297.954667 215.326819 
L 301.073161 212.982501 
L 304.191654 210.57847 
L 307.310147 208.165556 
L 310.428641 205.788071 
L 313.547134 203.437579 
L 316.665627 201.106751 
L 319.784121 198.772491 
L 322.902614 196.408186 
L 326.021107 194.04401 
L 329.139601 191.673937 
L 332.258094 189.307944 
L 335.376587 186.940649 
L 338.495081 184.571701 
L 341.613574 182.202478 
L 344.732067 179.847307 
L 347.850561 177.495841 
L 350.969054 175.158379 
L 354.087547 172.813619 
L 357.206041 170.404322 
L 360.324534 168.07666 
L 363.443027 165.694269 
L 366.561521 163.308266 
L 369.680014 160.92968 
L 372.798507 158.605934 
L 375.917001 156.259063 
L 379.035494 153.880587 
L 382.153987 151.563997 
L 385.272481 149.225445 
L 388.390974 146.932389 
L 391.509467 144.638403 
L 394.627961 142.338416 
L 397.746454 140.023212 
L 400.864947 137.729903 
L 403.983441 135.411795 
L 407.101934 133.052978 
L 410.220427 130.762609 
L 413.338921 128.47224 
L 416.457414 126.181872 
L 419.575907 123.889813 
L 422.694401 121.528789 
L 425.812894 119.264381 
L 428.931387 116.91054 
L 432.049881 114.55016 
L 435.168374 112.299005 
L 438.286867 110.022687 
L 441.405361 107.778282 
L 444.523854 105.551463 
L 447.642347 103.277504 
L 450.760841 100.98773 
L 453.879334 98.696767 
L 456.997827 96.398883 
L 460.116321 94.116498 
L 463.234814 91.826341 
L 466.353307 89.535972 
L 469.471801 87.245603 
L 472.590294 84.954841 
L 475.708787 82.664623 
L 478.827281 80.374497 
L 481.945774 78.084128 
L 485.064267 75.793759 
L 488.182761 73.503391 
L 491.301254 71.19897 
L 494.419747 68.906549 
L 497.538241 66.637155 
L 500.656734 64.343697 
L 503.775227 62.051793 
L 503.775227 38.199625 
L 503.775227 38.199625 
L 500.656734 40.776517 
L 497.538241 43.353779 
L 494.419747 45.932624 
L 491.301254 48.590064 
L 488.182761 51.247726 
L 485.064267 53.87604 
L 481.945774 56.435899 
L 478.827281 58.995758 
L 475.708787 61.539211 
L 472.590294 64.041788 
L 469.471801 66.629631 
L 466.353307 69.218897 
L 463.234814 71.792304 
L 460.116321 74.352901 
L 456.997827 76.945713 
L 453.879334 79.57058 
L 450.760841 82.165784 
L 447.642347 84.754603 
L 444.523854 87.343757 
L 441.405361 89.933023 
L 438.286867 92.522288 
L 435.168374 95.111554 
L 432.049881 97.70082 
L 428.931387 100.290086 
L 425.812894 102.879351 
L 422.694401 105.468617 
L 419.575907 108.057883 
L 416.457414 110.647149 
L 413.338921 113.236415 
L 410.220427 115.82568 
L 407.101934 118.414946 
L 403.983441 120.952161 
L 400.864947 123.420528 
L 397.746454 125.889455 
L 394.627961 128.486955 
L 391.509467 131.102725 
L 388.390974 133.660944 
L 385.272481 136.228728 
L 382.153987 138.830687 
L 379.035494 141.33668 
L 375.917001 143.982096 
L 372.798507 146.503507 
L 369.680014 149.009307 
L 366.561521 151.584416 
L 363.443027 154.159526 
L 360.324534 156.606724 
L 357.206041 159.184577 
L 354.087547 161.699239 
L 350.969054 164.203016 
L 347.850561 166.706792 
L 344.732067 169.208766 
L 341.613574 171.718763 
L 338.495081 174.359249 
L 335.376587 176.726172 
L 332.258094 179.212049 
L 329.139601 181.642784 
L 326.021107 184.092817 
L 322.902614 186.541798 
L 319.784121 189.046031 
L 316.665627 191.438175 
L 313.547134 193.786158 
L 310.428641 196.241708 
L 307.310147 198.655117 
L 304.191654 200.894167 
L 301.073161 203.371571 
L 297.954667 205.734418 
L 294.836174 208.04656 
L 291.717681 210.32372 
L 288.599187 212.569349 
L 285.480694 214.851865 
L 282.362201 217.141781 
L 279.243707 219.423559 
L 276.125214 221.730251 
L 273.006721 224.085415 
L 269.888227 226.316121 
L 266.769734 228.550238 
L 263.651241 230.830895 
L 260.532747 233.116551 
L 257.414254 235.498373 
L 254.295761 237.78196 
L 251.177267 240.064282 
L 248.058774 242.310491 
L 244.940281 244.552443 
L 241.821787 246.80264 
L 238.703294 249.002307 
L 235.584801 251.252399 
L 232.466307 253.570118 
L 229.347814 255.831125 
L 226.229321 258.063652 
L 223.110827 260.29618 
L 219.992334 262.529219 
L 216.873841 264.763422 
L 213.755347 266.997698 
L 210.636854 269.231974 
L 207.518361 271.466249 
L 204.399867 273.699413 
L 201.281374 275.94764 
L 198.162881 278.207041 
L 195.044387 280.444375 
z
" clip-path="url(#pce526304c4)" style="fill: #ff7f0e; fill-opacity: 0.15"/>
   </g>
   <g id="matplotlib.axis_1">
    <g id="xtick_1">
     <g id="line2d_1">
      <defs>
       <path id="m2d30511484" d="M 0 0 
L 0 3.5 
" style="stroke: #000000; stroke-width: 0.8"/>
      </defs>
      <g>
       <use xlink:href="#m2d30511484" x="93.957754" y="314.44" style="stroke: #000000; stroke-width: 0.8"/>
      </g>
     </g>
     <g id="text_1">
      <!-- 40 -->
      <g transform="translate(87.595254 329.038437) scale(0.1 -0.1)">
       <defs>
        <path id="DejaVuSans-34" d="M 2419 4116 
L 825 1625 
L 2419 1625 
L 2419 4116 
z
M 2253 4666 
L 3047 4666 
L 3047 1625 
L 3713 1625 
L 3713 1100 
L 3047 1100 
L 3047 0 
L 2419 0 
L 2419 1100 
L 313 1100 
L 313 1709 
L 2253 4666 
z
" transform="scale(0.015625)"/>
        <path id="DejaVuSans-30" d="M 2034 4250 
Q 1547 4250 1301 3770 
Q 1056 3291 1056 2328 
Q 1056 1369 1301 889 
Q 1547 409 2034 409 
Q 2525 409 2770 889 
Q 3016 1369 3016 2328 
Q 3016 3291 2770 3770 
Q 2525 4250 2034 4250 
z
M 2034 4750 
Q 2819 4750 3233 4129 
Q 3647 3509 3647 2328 
Q 3647 1150 3233 529 
Q 2819 -91 2034 -91 
Q 1250 -91 836 529 
Q 422 1150 422 2328 
Q 422 3509 836 4129 
Q 1250 4750 2034 4750 
z
" transform="scale(0.015625)"/>
       </defs>
       <use xlink:href="#DejaVuSans-34"/>
       <use xlink:href="#DejaVuSans-30" transform="translate(63.623047 0)"/>
      </g>
     </g>
    </g>
    <g id="xtick_2">
     <g id="line2d_2">
      <g>
       <use xlink:href="#m2d30511484" x="156.842129" y="314.44" style="stroke: #000000; stroke-width: 0.8"/>
      </g>
     </g>
     <g id="text_2">
      <!-- 60 -->
      <g transform="translate(150.479629 329.038437) scale(0.1 -0.1)">
       <defs>
        <path id="DejaVuSans-36" d="M 2113 2584 
Q 1688 2584 1439 2293 
Q 1191 2003 1191 1497 
Q 1191 994 1439 701 
Q 1688 409 2113 409 
Q 2538 409 2786 701 
Q 3034 994 3034 1497 
Q 3034 2003 2786 2293 
Q 2538 2584 2113 2584 
z
M 3366 4563 
L 3366 3988 
Q 3128 4100 2886 4159 
Q 2644 4219 2406 4219 
Q 1781 4219 1451 3797 
Q 1122 3375 1075 2522 
Q 1259 2794 1537 2939 
Q 1816 3084 2150 3084 
Q 2853 3084 3261 2657 
Q 3669 2231 3669 1497 
Q 3669 778 3244 343 
Q 2819 -91 2113 -91 
Q 1303 -91 875 529 
Q 447 1150 447 2328 
Q 447 3434 972 4092 
Q 1497 4750 2381 4750 
Q 2619 4750 2861 4703 
Q 3103 4656 3366 4563 
z
" transform="scale(0.015625)"/>
       </defs>
       <use xlink:href="#DejaVuSans-36"/>
       <use xlink:href="#DejaVuSans-30" transform="translate(63.623047 0)"/>
      </g>
     </g>
    </g>
    <g id="xtick_3">
     <g id="line2d_3">
      <g>
       <use xlink:href="#m2d30511484" x="219.726504" y="314.44" style="stroke: #000000; stroke-width: 0.8"/>
      </g>
     </g>
     <g id="text_3">
      <!-- 80 -->
      <g transform="translate(213.364004 329.038437) scale(0.1 -0.1)">
       <defs>
        <path id="DejaVuSans-38" d="M 2034 2216 
Q 1584 2216 1326 1975 
Q 1069 1734 1069 1313 
Q 1069 891 1326 650 
Q 1584 409 2034 409 
Q 2484 409 2743 651 
Q 3003 894 3003 1313 
Q 3003 1734 2745 1975 
Q 2488 2216 2034 2216 
z
M 1403 2484 
Q 997 2584 770 2862 
Q 544 3141 544 3541 
Q 544 4100 942 4425 
Q 1341 4750 2034 4750 
Q 2731 4750 3128 4425 
Q 3525 4100 3525 3541 
Q 3525 3141 3298 2862 
Q 3072 2584 2669 2484 
Q 3125 2378 3379 2068 
Q 3634 1759 3634 1313 
Q 3634 634 3220 271 
Q 2806 -91 2034 -91 
Q 1263 -91 848 271 
Q 434 634 434 1313 
Q 434 1759 690 2068 
Q 947 2378 1403 2484 
z
M 1172 3481 
Q 1172 3119 1398 2916 
Q 1625 2713 2034 2713 
Q 2441 2713 2670 2916 
Q 2900 3119 2900 3481 
Q 2900 3844 2670 4047 
Q 2441 4250 2034 4250 
Q 1625 4250 1398 4047 
Q 1172 3844 1172 3481 
z
" transform="scale(0.015625)"/>
       </defs>
       <use xlink:href="#DejaVuSans-38"/>
       <use xlink:href="#DejaVuSans-30" transform="translate(63.623047 0)"/>
      </g>
     </g>
    </g>
    <g id="xtick_4">
     <g id="line2d_4">
      <g>
       <use xlink:href="#m2d30511484" x="282.61088" y="314.44" style="stroke: #000000; stroke-width: 0.8"/>
      </g>
     </g>
     <g id="text_4">
      <!-- 100 -->
      <g transform="translate(273.06713 329.038437) scale(0.1 -0.1)">
       <defs>
        <path id="DejaVuSans-31" d="M 794 531 
L 1825 531 
L 1825 4091 
L 703 3866 
L 703 4441 
L 1819 4666 
L 2450 4666 
L 2450 531 
L 3481 531 
L 3481 0 
L 794 0 
L 794 531 
z
" transform="scale(0.015625)"/>
       </defs>
       <use xlink:href="#DejaVuSans-31"/>
       <use xlink:href="#DejaVuSans-30" transform="translate(63.623047 0)"/>
       <use xlink:href="#DejaVuSans-30" transform="translate(127.246094 0)"/>
      </g>
     </g>
    </g>
    <g id="xtick_5">
     <g id="line2d_5">
      <g>
       <use xlink:href="#m2d30511484" x="345.495255" y="314.44" style="stroke: #000000; stroke-width: 0.8"/>
      </g>
     </g>
     <g id="text_5">
      <!-- 120 -->
      <g transform="translate(335.951505 329.038437) scale(0.1 -0.1)">
       <defs>
        <path id="DejaVuSans-32" d="M 1228 531 
L 3431 531 
L 3431 0 
L 469 0 
L 469 531 
Q 828 903 1448 1529 
Q 2069 2156 2228 2338 
Q 2531 2678 2651 2914 
Q 2772 3150 2772 3378 
Q 2772 3750 2511 3984 
Q 2250 4219 1831 4219 
Q 1534 4219 1204 4116 
Q 875 4013 500 3803 
L 500 4441 
Q 881 4594 1212 4672 
Q 1544 4750 1819 4750 
Q 2544 4750 2975 4387 
Q 3406 4025 3406 3419 
Q 3406 3131 3298 2873 
Q 3191 2616 2906 2266 
Q 2828 2175 2409 1742 
Q 1991 1309 1228 531 
z
" transform="scale(0.015625)"/>
       </defs>
       <use xlink:href="#DejaVuSans-31"/>
       <use xlink:href="#DejaVuSans-32" transform="translate(63.623047 0)"/>
       <use xlink:href="#DejaVuSans-30" transform="translate(127.246094 0)"/>
      </g>
     </g>
    </g>
    <g id="xtick_6">
     <g id="line2d_6">
      <g>
       <use xlink:href="#m2d30511484" x="408.37963" y="314.44" style="stroke: #000000; stroke-width: 0.8"/>
      </g>
     </g>
     <g id="text_6">
      <!-- 140 -->
      <g transform="translate(398.83588 329.038437) scale(0.1 -0.1)">
       <use xlink:href="#DejaVuSans-31"/>
       <use xlink:href="#DejaVuSans-34" transform="translate(63.623047 0)"/>
       <use xlink:href="#DejaVuSans-30" transform="translate(127.246094 0)"/>
      </g>
     </g>
    </g>
    <g id="xtick_7">
     <g id="line2d_7">
      <g>
       <use xlink:href="#m2d30511484" x="471.264005" y="314.44" style="stroke: #000000; stroke-width: 0.8"/>
      </g>
     </g>
     <g id="text_7">
      <!-- 160 -->
      <g transform="translate(461.720255 329.038437) scale(0.1 -0.1)">
       <use xlink:href="#DejaVuSans-31"/>
       <use xlink:href="#DejaVuSans-36" transform="translate(63.623047 0)"/>
       <use xlink:href="#DejaVuSans-30" transform="translate(127.246094 0)"/>
      </g>
     </g>
    </g>
    <g id="text_8">
     <!-- MW, g/mol -->
     <g transform="translate(259.739219 342.716562) scale(0.1 -0.1)">
      <defs>
       <path id="DejaVuSans-4d" d="M 628 4666 
L 1569 4666 
L 2759 1491 
L 3956 4666 
L 4897 4666 
L 4897 0 
L 4281 0 
L 4281 4097 
L 3078 897 
L 2444 897 
L 1241 4097 
L 1241 0 
L 628 0 
L 628 4666 
z
" transform="scale(0.015625)"/>
       <path id="DejaVuSans-57" d="M 213 4666 
L 850 4666 
L 1831 722 
L 2809 4666 
L 3519 4666 
L 4500 722 
L 5478 4666 
L 6119 4666 
L 4947 0 
L 4153 0 
L 3169 4050 
L 2175 0 
L 1381 0 
L 213 4666 
z
" transform="scale(0.015625)"/>
       <path id="DejaVuSans-2c" d="M 750 794 
L 1409 794 
L 1409 256 
L 897 -744 
L 494 -744 
L 750 256 
L 750 794 
z
" transform="scale(0.015625)"/>
       <path id="DejaVuSans-20" transform="scale(0.015625)"/>
       <path id="DejaVuSans-67" d="M 2906 1791 
Q 2906 2416 2648 2759 
Q 2391 3103 1925 3103 
Q 1463 3103 1205 2759 
Q 947 2416 947 1791 
Q 947 1169 1205 825 
Q 1463 481 1925 481 
Q 2391 481 2648 825 
Q 2906 1169 2906 1791 
z
M 3481 434 
Q 3481 -459 3084 -895 
Q 2688 -1331 1869 -1331 
Q 1566 -1331 1297 -1286 
Q 1028 -1241 775 -1147 
L 775 -588 
Q 1028 -725 1275 -790 
Q 1522 -856 1778 -856 
Q 2344 -856 2625 -561 
Q 2906 -266 2906 331 
L 2906 616 
Q 2728 306 2450 153 
Q 2172 0 1784 0 
Q 1141 0 747 490 
Q 353 981 353 1791 
Q 353 2603 747 3093 
Q 1141 3584 1784 3584 
Q 2172 3584 2450 3431 
Q 2728 3278 2906 2969 
L 2906 3500 
L 3481 3500 
L 3481 434 
z
" transform="scale(0.015625)"/>
       <path id="DejaVuSans-2f" d="M 1625 4666 
L 2156 4666 
L 531 -594 
L 0 -594 
L 1625 4666 
z
" transform="scale(0.015625)"/>
       <path id="DejaVuSans-6d" d="M 3328 2828 
Q 3544 3216 3844 3400 
Q 4144 3584 4550 3584 
Q 5097 3584 5394 3201 
Q 5691 2819 5691 2113 
L 5691 0 
L 5113 0 
L 5113 2094 
Q 5113 2597 4934 2840 
Q 4756 3084 4391 3084 
Q 3944 3084 3684 2787 
Q 3425 2491 3425 1978 
L 3425 0 
L 2847 0 
L 2847 2094 
Q 2847 2600 2669 2842 
Q 2491 3084 2119 3084 
Q 1678 3084 1418 2786 
Q 1159 2488 1159 1978 
L 1159 0 
L 581 0 
L 581 3500 
L 1159 3500 
L 1159 2956 
Q 1356 3278 1631 3431 
Q 1906 3584 2284 3584 
Q 2666 3584 2933 3390 
Q 3200 3197 3328 2828 
z
" transform="scale(0.015625)"/>
       <path id="DejaVuSans-6f" d="M 1959 3097 
Q 1497 3097 1228 2736 
Q 959 2375 959 1747 
Q 959 1119 1226 758 
Q 1494 397 1959 397 
Q 2419 397 2687 759 
Q 2956 1122 2956 1747 
Q 2956 2369 2687 2733 
Q 2419 3097 1959 3097 
z
M 1959 3584 
Q 2709 3584 3137 3096 
Q 3566 2609 3566 1747 
Q 3566 888 3137 398 
Q 2709 -91 1959 -91 
Q 1206 -91 779 398 
Q 353 888 353 1747 
Q 353 2609 779 3096 
Q 1206 3584 1959 3584 
z
" transform="scale(0.015625)"/>
       <path id="DejaVuSans-6c" d="M 603 4863 
L 1178 4863 
L 1178 0 
L 603 0 
L 603 4863 
z
" transform="scale(0.015625)"/>
      </defs>
      <use xlink:href="#DejaVuSans-4d"/>
      <use xlink:href="#DejaVuSans-57" transform="translate(86.279297 0)"/>
      <use xlink:href="#DejaVuSans-2c" transform="translate(185.15625 0)"/>
      <use xlink:href="#DejaVuSans-20" transform="translate(216.943359 0)"/>
      <use xlink:href="#DejaVuSans-67" transform="translate(248.730469 0)"/>
      <use xlink:href="#DejaVuSans-2f" transform="translate(312.207031 0)"/>
      <use xlink:href="#DejaVuSans-6d" transform="translate(345.898438 0)"/>
      <use xlink:href="#DejaVuSans-6f" transform="translate(443.310547 0)"/>
      <use xlink:href="#DejaVuSans-6c" transform="translate(504.492188 0)"/>
     </g>
    </g>
   </g>
   <g id="matplotlib.axis_2">
    <g id="ytick_1">
     <g id="line2d_8">
      <defs>
       <path id="m1dcd58220a" d="M 0 0 
L -3.5 0 
" style="stroke: #000000; stroke-width: 0.8"/>
      </defs>
      <g>
       <use xlink:href="#m1dcd58220a" x="47.1875" y="272.943244" style="stroke: #000000; stroke-width: 0.8"/>
      </g>
     </g>
     <g id="text_9">
      <!-- 50 -->
      <g transform="translate(27.4625 276.742463) scale(0.1 -0.1)">
       <defs>
        <path id="DejaVuSans-35" d="M 691 4666 
L 3169 4666 
L 3169 4134 
L 1269 4134 
L 1269 2991 
Q 1406 3038 1543 3061 
Q 1681 3084 1819 3084 
Q 2600 3084 3056 2656 
Q 3513 2228 3513 1497 
Q 3513 744 3044 326 
Q 2575 -91 1722 -91 
Q 1428 -91 1123 -41 
Q 819 9 494 109 
L 494 744 
Q 775 591 1075 516 
Q 1375 441 1709 441 
Q 2250 441 2565 725 
Q 2881 1009 2881 1497 
Q 2881 1984 2565 2268 
Q 2250 2553 1709 2553 
Q 1456 2553 1204 2497 
Q 953 2441 691 2322 
L 691 4666 
z
" transform="scale(0.015625)"/>
       </defs>
       <use xlink:href="#DejaVuSans-35"/>
       <use xlink:href="#DejaVuSans-30" transform="translate(63.623047 0)"/>
      </g>
     </g>
    </g>
    <g id="ytick_2">
     <g id="line2d_9">
      <g>
       <use xlink:href="#m1dcd58220a" x="47.1875" y="210.372105" style="stroke: #000000; stroke-width: 0.8"/>
      </g>
     </g>
     <g id="text_10">
      <!-- 100 -->
      <g transform="translate(21.1 214.171323) scale(0.1 -0.1)">
       <use xlink:href="#DejaVuSans-31"/>
       <use xlink:href="#DejaVuSans-30" transform="translate(63.623047 0)"/>
       <use xlink:href="#DejaVuSans-30" transform="translate(127.246094 0)"/>
      </g>
     </g>
    </g>
    <g id="ytick_3">
     <g id="line2d_10">
      <g>
       <use xlink:href="#m1dcd58220a" x="47.1875" y="147.800965" style="stroke: #000000; stroke-width: 0.8"/>
      </g>
     </g>
     <g id="text_11">
      <!-- 150 -->
      <g transform="translate(21.1 151.600184) scale(0.1 -0.1)">
       <use xlink:href="#DejaVuSans-31"/>
       <use xlink:href="#DejaVuSans-35" transform="translate(63.623047 0)"/>
       <use xlink:href="#DejaVuSans-30" transform="translate(127.246094 0)"/>
      </g>
     </g>
    </g>
    <g id="ytick_4">
     <g id="line2d_11">
      <g>
       <use xlink:href="#m1dcd58220a" x="47.1875" y="85.229826" style="stroke: #000000; stroke-width: 0.8"/>
      </g>
     </g>
     <g id="text_12">
      <!-- 200 -->
      <g transform="translate(21.1 89.029044) scale(0.1 -0.1)">
       <use xlink:href="#DejaVuSans-32"/>
       <use xlink:href="#DejaVuSans-30" transform="translate(63.623047 0)"/>
       <use xlink:href="#DejaVuSans-30" transform="translate(127.246094 0)"/>
      </g>
     </g>
    </g>
    <g id="ytick_5">
     <g id="line2d_12">
      <g>
       <use xlink:href="#m1dcd58220a" x="47.1875" y="22.658686" style="stroke: #000000; stroke-width: 0.8"/>
      </g>
     </g>
     <g id="text_13">
      <!-- 250 -->
      <g transform="translate(21.1 26.457905) scale(0.1 -0.1)">
       <use xlink:href="#DejaVuSans-32"/>
       <use xlink:href="#DejaVuSans-35" transform="translate(63.623047 0)"/>
       <use xlink:href="#DejaVuSans-30" transform="translate(127.246094 0)"/>
      </g>
     </g>
    </g>
    <g id="text_14">
     <!-- bp, $^o$C -->
     <g transform="translate(15 176.17) rotate(-90) scale(0.1 -0.1)">
      <defs>
       <path id="DejaVuSans-62" d="M 3116 1747 
Q 3116 2381 2855 2742 
Q 2594 3103 2138 3103 
Q 1681 3103 1420 2742 
Q 1159 2381 1159 1747 
Q 1159 1113 1420 752 
Q 1681 391 2138 391 
Q 2594 391 2855 752 
Q 3116 1113 3116 1747 
z
M 1159 2969 
Q 1341 3281 1617 3432 
Q 1894 3584 2278 3584 
Q 2916 3584 3314 3078 
Q 3713 2572 3713 1747 
Q 3713 922 3314 415 
Q 2916 -91 2278 -91 
Q 1894 -91 1617 61 
Q 1341 213 1159 525 
L 1159 0 
L 581 0 
L 581 4863 
L 1159 4863 
L 1159 2969 
z
" transform="scale(0.015625)"/>
       <path id="DejaVuSans-70" d="M 1159 525 
L 1159 -1331 
L 581 -1331 
L 581 3500 
L 1159 3500 
L 1159 2969 
Q 1341 3281 1617 3432 
Q 1894 3584 2278 3584 
Q 2916 3584 3314 3078 
Q 3713 2572 3713 1747 
Q 3713 922 3314 415 
Q 2916 -91 2278 -91 
Q 1894 -91 1617 61 
Q 1341 213 1159 525 
z
M 3116 1747 
Q 3116 2381 2855 2742 
Q 2594 3103 2138 3103 
Q 1681 3103 1420 2742 
Q 1159 2381 1159 1747 
Q 1159 1113 1420 752 
Q 1681 391 2138 391 
Q 2594 391 2855 752 
Q 3116 1113 3116 1747 
z
" transform="scale(0.015625)"/>
       <path id="DejaVuSans-Oblique-6f" d="M 1625 -91 
Q 1009 -91 651 289 
Q 294 669 294 1325 
Q 294 1706 417 2101 
Q 541 2497 738 2766 
Q 1047 3184 1428 3384 
Q 1809 3584 2291 3584 
Q 2888 3584 3255 3212 
Q 3622 2841 3622 2241 
Q 3622 1825 3500 1412 
Q 3378 1000 3181 728 
Q 2875 309 2494 109 
Q 2113 -91 1625 -91 
z
M 891 1344 
Q 891 869 1089 633 
Q 1288 397 1691 397 
Q 2269 397 2648 901 
Q 3028 1406 3028 2181 
Q 3028 2634 2825 2865 
Q 2622 3097 2228 3097 
Q 1903 3097 1650 2945 
Q 1397 2794 1197 2484 
Q 1050 2253 970 1956 
Q 891 1659 891 1344 
z
" transform="scale(0.015625)"/>
       <path id="DejaVuSans-43" d="M 4122 4306 
L 4122 3641 
Q 3803 3938 3442 4084 
Q 3081 4231 2675 4231 
Q 1875 4231 1450 3742 
Q 1025 3253 1025 2328 
Q 1025 1406 1450 917 
Q 1875 428 2675 428 
Q 3081 428 3442 575 
Q 3803 722 4122 1019 
L 4122 359 
Q 3791 134 3420 21 
Q 3050 -91 2638 -91 
Q 1578 -91 968 557 
Q 359 1206 359 2328 
Q 359 3453 968 4101 
Q 1578 4750 2638 4750 
Q 3056 4750 3426 4639 
Q 3797 4528 4122 4306 
z
" transform="scale(0.015625)"/>
      </defs>
      <use xlink:href="#DejaVuSans-62" transform="translate(0 0.51875)"/>
      <use xlink:href="#DejaVuSans-70" transform="translate(63.476562 0.51875)"/>
      <use xlink:href="#DejaVuSans-2c" transform="translate(126.953125 0.51875)"/>
      <use xlink:href="#DejaVuSans-20" transform="translate(158.740234 0.51875)"/>
      <use xlink:href="#DejaVuSans-Oblique-6f" transform="translate(191.484375 38.8) scale(0.7)"/>
      <use xlink:href="#DejaVuSans-43" transform="translate(237.045898 0.51875)"/>
     </g>
    </g>
   </g>
   <g id="line2d_13">
    <path d="M 68.929773 264.797035 
L 72.939128 262.537743 
L 76.948483 260.27845 
L 80.957839 258.019158 
L 84.967194 255.759866 
L 88.976549 253.500573 
L 92.985905 251.241281 
L 96.99526 248.981988 
L 101.004615 246.722696 
L 105.013971 244.463404 
L 109.023326 242.204111 
L 113.032681 239.944819 
L 117.042037 237.685526 
L 121.051392 235.426234 
L 125.060747 233.166942 
L 129.070102 230.907649 
L 133.079458 228.648357 
L 137.088813 226.389065 
L 141.098168 224.129772 
L 145.107524 221.87048 
L 149.116879 219.611187 
L 153.126234 217.351895 
L 157.13559 215.092603 
L 161.144945 212.83331 
L 165.1543 210.574018 
L 169.163656 208.314725 
L 173.173011 206.055433 
L 177.182366 203.796141 
L 181.191722 201.536848 
L 185.201077 199.277556 
L 189.210432 197.018263 
L 193.219788 194.758971 
L 197.229143 192.499679 
L 201.238498 190.240386 
L 205.247853 187.981094 
L 209.257209 185.721802 
L 213.266564 183.462509 
L 217.275919 181.203217 
L 221.285275 178.943924 
L 225.29463 176.684632 
L 229.303985 174.42534 
L 233.313341 172.166047 
L 237.322696 169.906755 
L 241.332051 167.647462 
L 245.341407 165.38817 
L 249.350762 163.128878 
L 253.360117 160.869585 
L 257.369473 158.610293 
L 261.378828 156.351 
L 265.388183 154.091708 
L 269.397539 151.832416 
L 273.406894 149.573123 
L 277.416249 147.313831 
L 281.425604 145.054539 
L 285.43496 142.795246 
L 289.444315 140.535954 
L 293.45367 138.276661 
L 297.463026 136.017369 
L 301.472381 133.758077 
L 305.481736 131.498784 
L 309.491092 129.239492 
L 313.500447 126.980199 
L 317.509802 124.720907 
L 321.519158 122.461615 
L 325.528513 120.202322 
L 329.537868 117.94303 
L 333.547224 115.683737 
L 337.556579 113.424445 
L 341.565934 111.165153 
L 345.57529 108.90586 
L 349.584645 106.646568 
L 353.594 104.387276 
L 357.603355 102.127983 
L 361.612711 99.868691 
L 365.622066 97.609398 
L 369.631421 95.350106 
L 373.640777 93.090814 
L 377.650132 90.831521 
L 381.659487 88.572229 
L 385.668843 86.312936 
L 389.678198 84.053644 
L 393.687553 81.794352 
L 397.696909 79.535059 
L 401.706264 77.275767 
L 405.715619 75.016474 
L 409.724975 72.757182 
L 413.73433 70.49789 
L 417.743685 68.238597 
L 421.753041 65.979305 
L 425.762396 63.720013 
L 429.771751 61.46072 
L 433.781106 59.201428 
L 437.790462 56.942135 
L 441.799817 54.682843 
L 445.809172 52.423551 
L 449.818528 50.164258 
L 453.827883 47.904966 
L 457.837238 45.645673 
L 461.846594 43.386381 
L 465.855949 41.127089 
" clip-path="url(#pce526304c4)" style="fill: none; stroke: #1f77b4; stroke-width: 2.25; stroke-linecap: square"/>
   </g>
   <g id="line2d_14">
    <path d="M 195.044387 289.170357 
L 198.162881 286.803215 
L 201.281374 284.436072 
L 204.399867 282.06893 
L 207.518361 279.701788 
L 210.636854 277.334646 
L 213.755347 274.967504 
L 216.873841 272.600362 
L 219.992334 270.233219 
L 223.110827 267.866077 
L 226.229321 265.498935 
L 229.347814 263.131793 
L 232.466307 260.764651 
L 235.584801 258.397509 
L 238.703294 256.030366 
L 241.821787 253.663224 
L 244.940281 251.296082 
L 248.058774 248.92894 
L 251.177267 246.561798 
L 254.295761 244.194656 
L 257.414254 241.827513 
L 260.532747 239.460371 
L 263.651241 237.093229 
L 266.769734 234.726087 
L 269.888227 232.358945 
L 273.006721 229.991802 
L 276.125214 227.62466 
L 279.243707 225.257518 
L 282.362201 222.890376 
L 285.480694 220.523234 
L 288.599187 218.156092 
L 291.717681 215.788949 
L 294.836174 213.421807 
L 297.954667 211.054665 
L 301.073161 208.687523 
L 304.191654 206.320381 
L 307.310147 203.953239 
L 310.428641 201.586096 
L 313.547134 199.218954 
L 316.665627 196.851812 
L 319.784121 194.48467 
L 322.902614 192.117528 
L 326.021107 189.750386 
L 329.139601 187.383243 
L 332.258094 185.016101 
L 335.376587 182.648959 
L 338.495081 180.281817 
L 341.613574 177.914675 
L 344.732067 175.547532 
L 347.850561 173.18039 
L 350.969054 170.813248 
L 354.087547 168.446106 
L 357.206041 166.078964 
L 360.324534 163.711822 
L 363.443027 161.344679 
L 366.561521 158.977537 
L 369.680014 156.610395 
L 372.798507 154.243253 
L 375.917001 151.876111 
L 379.035494 149.508969 
L 382.153987 147.141826 
L 385.272481 144.774684 
L 388.390974 142.407542 
L 391.509467 140.0404 
L 394.627961 137.673258 
L 397.746454 135.306116 
L 400.864947 132.938973 
L 403.983441 130.571831 
L 407.101934 128.204689 
L 410.220427 125.837547 
L 413.338921 123.470405 
L 416.457414 121.103262 
L 419.575907 118.73612 
L 422.694401 116.368978 
L 425.812894 114.001836 
L 428.931387 111.634694 
L 432.049881 109.267552 
L 435.168374 106.900409 
L 438.286867 104.533267 
L 441.405361 102.166125 
L 444.523854 99.798983 
L 447.642347 97.431841 
L 450.760841 95.064699 
L 453.879334 92.697556 
L 456.997827 90.330414 
L 460.116321 87.963272 
L 463.234814 85.59613 
L 466.353307 83.228988 
L 469.471801 80.861846 
L 472.590294 78.494703 
L 475.708787 76.127561 
L 478.827281 73.760419 
L 481.945774 71.393277 
L 485.064267 69.026135 
L 488.182761 66.658992 
L 491.301254 64.29185 
L 494.419747 61.924708 
L 497.538241 59.557566 
L 500.656734 57.190424 
L 503.775227 54.823282 
" clip-path="url(#pce526304c4)" style="fill: none; stroke: #ff7f0e; stroke-width: 2.25; stroke-linecap: square"/>
   </g>
   <g id="patch_3">
    <path d="M 47.1875 314.44 
L 47.1875 7.2 
" style="fill: none; stroke: #000000; stroke-width: 0.8; stroke-linejoin: miter; stroke-linecap: square"/>
   </g>
   <g id="patch_4">
    <path d="M 47.1875 314.44 
L 525.5175 314.44 
" style="fill: none; stroke: #000000; stroke-width: 0.8; stroke-linejoin: miter; stroke-linecap: square"/>
   </g>
   <g id="legend_1">
    <g id="patch_5">
     <path d="M 54.1875 59.234375 
L 121.945312 59.234375 
Q 123.945312 59.234375 123.945312 57.234375 
L 123.945312 14.2 
Q 123.945312 12.2 121.945312 12.2 
L 54.1875 12.2 
Q 52.1875 12.2 52.1875 14.2 
L 52.1875 57.234375 
Q 52.1875 59.234375 54.1875 59.234375 
z
" style="fill: #ffffff; opacity: 0.8; stroke: #cccccc; stroke-linejoin: miter"/>
    </g>
    <g id="text_15">
     <!-- type -->
     <g transform="translate(76.896094 23.798437) scale(0.1 -0.1)">
      <defs>
       <path id="DejaVuSans-74" d="M 1172 4494 
L 1172 3500 
L 2356 3500 
L 2356 3053 
L 1172 3053 
L 1172 1153 
Q 1172 725 1289 603 
Q 1406 481 1766 481 
L 2356 481 
L 2356 0 
L 1766 0 
Q 1100 0 847 248 
Q 594 497 594 1153 
L 594 3053 
L 172 3053 
L 172 3500 
L 594 3500 
L 594 4494 
L 1172 4494 
z
" transform="scale(0.015625)"/>
       <path id="DejaVuSans-79" d="M 2059 -325 
Q 1816 -950 1584 -1140 
Q 1353 -1331 966 -1331 
L 506 -1331 
L 506 -850 
L 844 -850 
Q 1081 -850 1212 -737 
Q 1344 -625 1503 -206 
L 1606 56 
L 191 3500 
L 800 3500 
L 1894 763 
L 2988 3500 
L 3597 3500 
L 2059 -325 
z
" transform="scale(0.015625)"/>
       <path id="DejaVuSans-65" d="M 3597 1894 
L 3597 1613 
L 953 1613 
Q 991 1019 1311 708 
Q 1631 397 2203 397 
Q 2534 397 2845 478 
Q 3156 559 3463 722 
L 3463 178 
Q 3153 47 2828 -22 
Q 2503 -91 2169 -91 
Q 1331 -91 842 396 
Q 353 884 353 1716 
Q 353 2575 817 3079 
Q 1281 3584 2069 3584 
Q 2775 3584 3186 3129 
Q 3597 2675 3597 1894 
z
M 3022 2063 
Q 3016 2534 2758 2815 
Q 2500 3097 2075 3097 
Q 1594 3097 1305 2825 
Q 1016 2553 972 2059 
L 3022 2063 
z
" transform="scale(0.015625)"/>
      </defs>
      <use xlink:href="#DejaVuSans-74"/>
      <use xlink:href="#DejaVuSans-79" transform="translate(39.208984 0)"/>
      <use xlink:href="#DejaVuSans-70" transform="translate(98.388672 0)"/>
      <use xlink:href="#DejaVuSans-65" transform="translate(161.865234 0)"/>
     </g>
    </g>
    <g id="PathCollection_3">
     <g>
      <use xlink:href="#m2088768f05" x="66.1875" y="35.851562" style="fill: #1f77b4; fill-opacity: 0.8; stroke: #1f77b4; stroke-opacity: 0.8"/>
     </g>
    </g>
    <g id="text_16">
     <!-- alcohol -->
     <g transform="translate(84.1875 38.476562) scale(0.1 -0.1)">
      <defs>
       <path id="DejaVuSans-61" d="M 2194 1759 
Q 1497 1759 1228 1600 
Q 959 1441 959 1056 
Q 959 750 1161 570 
Q 1363 391 1709 391 
Q 2188 391 2477 730 
Q 2766 1069 2766 1631 
L 2766 1759 
L 2194 1759 
z
M 3341 1997 
L 3341 0 
L 2766 0 
L 2766 531 
Q 2569 213 2275 61 
Q 1981 -91 1556 -91 
Q 1019 -91 701 211 
Q 384 513 384 1019 
Q 384 1609 779 1909 
Q 1175 2209 1959 2209 
L 2766 2209 
L 2766 2266 
Q 2766 2663 2505 2880 
Q 2244 3097 1772 3097 
Q 1472 3097 1187 3025 
Q 903 2953 641 2809 
L 641 3341 
Q 956 3463 1253 3523 
Q 1550 3584 1831 3584 
Q 2591 3584 2966 3190 
Q 3341 2797 3341 1997 
z
" transform="scale(0.015625)"/>
       <path id="DejaVuSans-63" d="M 3122 3366 
L 3122 2828 
Q 2878 2963 2633 3030 
Q 2388 3097 2138 3097 
Q 1578 3097 1268 2742 
Q 959 2388 959 1747 
Q 959 1106 1268 751 
Q 1578 397 2138 397 
Q 2388 397 2633 464 
Q 2878 531 3122 666 
L 3122 134 
Q 2881 22 2623 -34 
Q 2366 -91 2075 -91 
Q 1284 -91 818 406 
Q 353 903 353 1747 
Q 353 2603 823 3093 
Q 1294 3584 2113 3584 
Q 2378 3584 2631 3529 
Q 2884 3475 3122 3366 
z
" transform="scale(0.015625)"/>
       <path id="DejaVuSans-68" d="M 3513 2113 
L 3513 0 
L 2938 0 
L 2938 2094 
Q 2938 2591 2744 2837 
Q 2550 3084 2163 3084 
Q 1697 3084 1428 2787 
Q 1159 2491 1159 1978 
L 1159 0 
L 581 0 
L 581 4863 
L 1159 4863 
L 1159 2956 
Q 1366 3272 1645 3428 
Q 1925 3584 2291 3584 
Q 2894 3584 3203 3211 
Q 3513 2838 3513 2113 
z
" transform="scale(0.015625)"/>
      </defs>
      <use xlink:href="#DejaVuSans-61"/>
      <use xlink:href="#DejaVuSans-6c" transform="translate(61.279297 0)"/>
      <use xlink:href="#DejaVuSans-63" transform="translate(89.0625 0)"/>
      <use xlink:href="#DejaVuSans-6f" transform="translate(144.042969 0)"/>
      <use xlink:href="#DejaVuSans-68" transform="translate(205.224609 0)"/>
      <use xlink:href="#DejaVuSans-6f" transform="translate(268.603516 0)"/>
      <use xlink:href="#DejaVuSans-6c" transform="translate(329.785156 0)"/>
     </g>
    </g>
    <g id="PathCollection_4">
     <g>
      <use xlink:href="#m16414b9133" x="66.1875" y="50.529688" style="fill: #ff7f0e; fill-opacity: 0.8; stroke: #ff7f0e; stroke-opacity: 0.8"/>
     </g>
    </g>
    <g id="text_17">
     <!-- alkane -->
     <g transform="translate(84.1875 53.154688) scale(0.1 -0.1)">
      <defs>
       <path id="DejaVuSans-6b" d="M 581 4863 
L 1159 4863 
L 1159 1991 
L 2875 3500 
L 3609 3500 
L 1753 1863 
L 3688 0 
L 2938 0 
L 1159 1709 
L 1159 0 
L 581 0 
L 581 4863 
z
" transform="scale(0.015625)"/>
       <path id="DejaVuSans-6e" d="M 3513 2113 
L 3513 0 
L 2938 0 
L 2938 2094 
Q 2938 2591 2744 2837 
Q 2550 3084 2163 3084 
Q 1697 3084 1428 2787 
Q 1159 2491 1159 1978 
L 1159 0 
L 581 0 
L 581 3500 
L 1159 3500 
L 1159 2956 
Q 1366 3272 1645 3428 
Q 1925 3584 2291 3584 
Q 2894 3584 3203 3211 
Q 3513 2838 3513 2113 
z
" transform="scale(0.015625)"/>
      </defs>
      <use xlink:href="#DejaVuSans-61"/>
      <use xlink:href="#DejaVuSans-6c" transform="translate(61.279297 0)"/>
      <use xlink:href="#DejaVuSans-6b" transform="translate(89.0625 0)"/>
      <use xlink:href="#DejaVuSans-61" transform="translate(145.222656 0)"/>
      <use xlink:href="#DejaVuSans-6e" transform="translate(206.501953 0)"/>
      <use xlink:href="#DejaVuSans-65" transform="translate(269.880859 0)"/>
     </g>
    </g>
   </g>
  </g>
 </g>
 <defs>
  <clipPath id="pce526304c4">
   <rect x="47.1875" y="7.2" width="478.33" height="307.24"/>
  </clipPath>
 </defs>
</svg>