<?xml version="1.0" encoding="utf-8" standalone="no"?>
<!DOCTYPE svg PUBLIC "-//W3C//DTD SVG 1.1//EN"
  "http://www.w3.org/Graphics/SVG/1.1/DTD/svg11.dtd">
<svg xmlns:xlink="http://www.w3.org/1999/xlink" width="391.245pt" height="297.190125pt" viewBox="0 0 391.245 297.190125" xmlns="http://www.w3.org/2000/svg" version="1.1">
 <metadata>
  <rdf:RDF xmlns:dc="http://purl.org/dc/elements/1.1/" xmlns:cc="http://creativecommons.org/ns#" xmlns:rdf="http://www.w3.org/1999/02/22-rdf-syntax-ns#">
   <cc:Work>
    <dc:type rdf:resource="http://purl.org/dc/dcmitype/StillImage"/>
    <dc:date>2025-08-06T15:36:47.236683</dc:date>
    <dc:format>image/svg+xml</dc:format>
    <dc:creator>
     <cc:Agent>
      <dc:title>Matplotlib v3.10.3, https://matplotlib.org/</dc:title>
     </cc:Agent>
    </dc:creator>
   </cc:Work>
  </rdf:RDF>
 </metadata>
 <defs>
  <style type="text/css">*{stroke-linejoin: round; stroke-linecap: butt}</style>
 </defs>
 <g id="figure_1">
  <g id="patch_1">
   <path d="M 0 297.190125 
L 391.245 297.190125 
L 391.245 0 
L 0 0 
z
" style="fill: #ffffff"/>
  </g>
  <g id="axes_1">
   <g id="patch_2">
    <path d="M 26.925 273.312 
L 384.045 273.312 
L 384.045 7.2 
L 26.925 7.2 
z
" style="fill: #ffffff"/>
   </g>
   <g id="PathCollection_1">
    <defs>
     <path id="mee09eb576b" d="M 0 3 
C 0.795609 3 1.55874 2.683901 2.12132 2.12132 
C 2.683901 1.55874 3 0.795609 3 0 
C 3 -0.795609 2.683901 -1.55874 2.12132 -2.12132 
C 1.55874 -2.683901 0.795609 -3 0 -3 
C -0.795609 -3 -1.55874 -2.683901 -2.12132 -2.12132 
C -2.683901 -1.55874 -3 -0.795609 -3 0 
C -3 0.795609 -2.683901 1.55874 -2.12132 2.12132 
C -1.55874 2.683901 -0.795609 3 0 3 
z
" style="stroke: #1f77b4; stroke-opacity: 0.8"/>
    </defs>
    <g clip-path="url(#pe440bc1238)">
     <use xlink:href="#mee09eb576b" x="43.157727" y="245.023047" style="fill: #1f77b4; fill-opacity: 0.8; stroke: #1f77b4; stroke-opacity: 0.8"/>
     <use xlink:href="#mee09eb576b" x="79.230455" y="231.200643" style="fill: #1f77b4; fill-opacity: 0.8; stroke: #1f77b4; stroke-opacity: 0.8"/>
     <use xlink:href="#mee09eb576b" x="115.303182" y="190.824468" style="fill: #1f77b4; fill-opacity: 0.8; stroke: #1f77b4; stroke-opacity: 0.8"/>
     <use xlink:href="#mee09eb576b" x="151.375909" y="188.506922" style="fill: #1f77b4; fill-opacity: 0.8; stroke: #1f77b4; stroke-opacity: 0.8"/>
     <use xlink:href="#mee09eb576b" x="187.448636" y="134.143327" style="fill: #1f77b4; fill-opacity: 0.8; stroke: #1f77b4; stroke-opacity: 0.8"/>
     <use xlink:href="#mee09eb576b" x="223.521364" y="124.482227" style="fill: #1f77b4; fill-opacity: 0.8; stroke: #1f77b4; stroke-opacity: 0.8"/>
     <use xlink:href="#mee09eb576b" x="259.594091" y="116.875752" style="fill: #1f77b4; fill-opacity: 0.8; stroke: #1f77b4; stroke-opacity: 0.8"/>
     <use xlink:href="#mee09eb576b" x="295.666818" y="85.778194" style="fill: #1f77b4; fill-opacity: 0.8; stroke: #1f77b4; stroke-opacity: 0.8"/>
     <use xlink:href="#mee09eb576b" x="331.739545" y="53.49932" style="fill: #1f77b4; fill-opacity: 0.8; stroke: #1f77b4; stroke-opacity: 0.8"/>
     <use xlink:href="#mee09eb576b" x="367.812273" y="19.296" style="fill: #1f77b4; fill-opacity: 0.8; stroke: #1f77b4; stroke-opacity: 0.8"/>
    </g>
   </g>
   <g id="FillBetweenPolyCollection_1">
    <path d="M 43.157727 237.729569 
L 43.157727 261.216 
L 46.437066 258.936524 
L 49.716405 256.595317 
L 52.995744 254.254109 
L 56.275083 251.912902 
L 59.554421 249.571694 
L 62.83376 247.202945 
L 66.113099 244.770782 
L 69.392438 242.347764 
L 72.671777 239.905953 
L 75.951116 237.556915 
L 79.230455 235.204911 
L 82.509793 232.825503 
L 85.789132 230.446095 
L 89.068471 228.066687 
L 92.34781 225.718853 
L 95.627149 223.431481 
L 98.906488 221.14411 
L 102.185826 218.856739 
L 105.465165 216.569367 
L 108.744504 214.281501 
L 112.023843 211.992667 
L 115.303182 209.661864 
L 118.582521 207.374152 
L 121.86186 205.085415 
L 125.141198 202.747542 
L 128.420537 200.374821 
L 131.699876 197.981592 
L 134.979215 195.643535 
L 138.258554 193.382712 
L 141.537893 191.042477 
L 144.817231 188.704152 
L 148.09657 186.360836 
L 151.375909 184.017882 
L 154.655248 181.676674 
L 157.934587 179.335467 
L 161.213926 176.996107 
L 164.493264 174.657729 
L 167.772603 172.41549 
L 171.051942 170.147681 
L 174.331281 167.778679 
L 177.61062 165.454352 
L 180.889959 163.157812 
L 184.169298 160.929549 
L 187.448636 158.785564 
L 190.727975 156.649867 
L 194.007314 154.32309 
L 197.286653 152.014298 
L 200.565992 149.73077 
L 203.845331 147.583434 
L 207.124669 145.40058 
L 210.404008 143.233799 
L 213.683347 141.098782 
L 216.962686 138.896595 
L 220.242025 136.75316 
L 223.521364 134.514198 
L 226.800702 132.358269 
L 230.080041 130.08209 
L 233.35938 127.953156 
L 236.638719 125.783894 
L 239.918058 123.364357 
L 243.197397 121.246993 
L 246.476736 119.157441 
L 249.756074 117.084375 
L 253.035413 115.005379 
L 256.314752 112.929093 
L 259.594091 110.853318 
L 262.87343 108.785039 
L 266.152769 106.698587 
L 269.432107 104.620143 
L 272.711446 102.53811 
L 275.990785 100.456914 
L 279.270124 98.374043 
L 282.549463 96.292009 
L 285.828802 94.209976 
L 289.10814 92.171102 
L 292.387479 90.094709 
L 295.666818 87.963876 
L 298.946157 85.942764 
L 302.225496 83.868947 
L 305.504835 81.792911 
L 308.784174 79.715528 
L 312.063512 77.644631 
L 315.342851 75.563726 
L 318.62219 73.470652 
L 321.901529 71.355428 
L 325.180868 69.240203 
L 328.460207 67.143541 
L 331.739545 65.061508 
L 335.018884 63.047142 
L 338.298223 61.032086 
L 341.577562 58.968535 
L 344.856901 56.990258 
L 348.13624 54.934492 
L 351.415579 52.84396 
L 354.694917 50.835139 
L 357.974256 48.898051 
L 361.253595 46.953892 
L 364.532934 44.944315 
L 367.812273 42.934738 
L 367.812273 19.619755 
L 367.812273 19.619755 
L 364.532934 21.95017 
L 361.253595 24.305094 
L 357.974256 26.648871 
L 354.694917 28.992803 
L 351.415579 31.290011 
L 348.13624 33.579986 
L 344.856901 35.891567 
L 341.577562 38.34527 
L 338.298223 40.649968 
L 335.018884 42.939411 
L 331.739545 45.21671 
L 328.460207 47.479309 
L 325.180868 49.76047 
L 321.901529 52.044842 
L 318.62219 54.384614 
L 315.342851 56.674385 
L 312.063512 58.962972 
L 308.784174 61.260854 
L 305.504835 63.595208 
L 302.225496 65.924267 
L 298.946157 68.141275 
L 295.666818 70.393812 
L 292.387479 72.622298 
L 289.10814 74.851627 
L 285.828802 77.082619 
L 282.549463 79.362425 
L 279.270124 81.651049 
L 275.990785 83.940717 
L 272.711446 86.277694 
L 269.432107 88.606342 
L 266.152769 90.971239 
L 262.87343 93.290332 
L 259.594091 95.589078 
L 256.314752 97.915743 
L 253.035413 100.242407 
L 249.756074 102.569072 
L 246.476736 104.895737 
L 243.197397 107.222401 
L 239.918058 109.434307 
L 236.638719 111.599054 
L 233.35938 113.902642 
L 230.080041 116.176744 
L 226.800702 118.46375 
L 223.521364 120.752584 
L 220.242025 122.988479 
L 216.962686 125.142233 
L 213.683347 127.352171 
L 210.404008 129.497841 
L 207.124669 131.716939 
L 203.845331 133.824161 
L 200.565992 136.076414 
L 197.286653 138.212085 
L 194.007314 140.411839 
L 190.727975 142.468997 
L 187.448636 144.691968 
L 184.169298 146.846766 
L 180.889959 149.038635 
L 177.61062 151.212182 
L 174.331281 153.359876 
L 171.051942 155.612923 
L 167.772603 157.882081 
L 164.493264 160.081664 
L 161.213926 162.287977 
L 157.934587 164.391807 
L 154.655248 166.494471 
L 151.375909 168.627788 
L 148.09657 170.778966 
L 144.817231 173.003654 
L 141.537893 175.258211 
L 138.258554 177.383541 
L 134.979215 179.473095 
L 131.699876 181.571504 
L 128.420537 183.661686 
L 125.141198 185.75192 
L 121.86186 187.842154 
L 118.582521 189.932691 
L 115.303182 192.066031 
L 112.023843 194.112855 
L 108.744504 196.203089 
L 105.465165 198.293322 
L 102.185826 200.508109 
L 98.906488 202.648376 
L 95.627149 204.707282 
L 92.34781 206.860816 
L 89.068471 209.084687 
L 85.789132 211.232828 
L 82.509793 213.132919 
L 79.230455 215.03366 
L 75.951116 217.105451 
L 72.671777 219.19566 
L 69.392438 221.285894 
L 66.113099 223.376127 
L 62.83376 225.432438 
L 59.554421 227.479251 
L 56.275083 229.566519 
L 52.995744 231.652824 
L 49.716405 233.705232 
L 46.437066 235.669609 
L 43.157727 237.729569 
z
" clip-path="url(#pe440bc1238)" style="fill: #1f77b4; fill-opacity: 0.15"/>
   </g>
   <g id="matplotlib.axis_1">
    <g id="xtick_1">
     <g id="line2d_1">
      <defs>
       <path id="m78c7a953c2" d="M 0 0 
L 0 3.5 
" style="stroke: #000000; stroke-width: 0.8"/>
      </defs>
      <g>
       <use xlink:href="#m78c7a953c2" x="43.157727" y="273.312" style="stroke: #000000; stroke-width: 0.8"/>
      </g>
     </g>
     <g id="text_1">
      <!-- 0 -->
      <g transform="translate(39.976477 287.910437) scale(0.1 -0.1)">
       <defs>
        <path id="DejaVuSans-30" d="M 2034 4250 
Q 1547 4250 1301 3770 
Q 1056 3291 1056 2328 
Q 1056 1369 1301 889 
Q 1547 409 2034 409 
Q 2525 409 2770 889 
Q 3016 1369 3016 2328 
Q 3016 3291 2770 3770 
Q 2525 4250 2034 4250 
z
M 2034 4750 
Q 2819 4750 3233 4129 
Q 3647 3509 3647 2328 
Q 3647 1150 3233 529 
Q 2819 -91 2034 -91 
Q 1250 -91 836 529 
Q 422 1150 422 2328 
Q 422 3509 836 4129 
Q 1250 4750 2034 4750 
z
" transform="scale(0.015625)"/>
       </defs>
       <use xlink:href="#DejaVuSans-30"/>
      </g>
     </g>
    </g>
    <g id="xtick_2">
     <g id="line2d_2">
      <g>
       <use xlink:href="#m78c7a953c2" x="115.303182" y="273.312" style="stroke: #000000; stroke-width: 0.8"/>
      </g>
     </g>
     <g id="text_2">
      <!-- 2 -->
      <g transform="translate(112.121932 287.910437) scale(0.1 -0.1)">
       <defs>
        <path id="DejaVuSans-32" d="M 1228 531 
L 3431 531 
L 3431 0 
L 469 0 
L 469 531 
Q 828 903 1448 1529 
Q 2069 2156 2228 2338 
Q 2531 2678 2651 2914 
Q 2772 3150 2772 3378 
Q 2772 3750 2511 3984 
Q 2250 4219 1831 4219 
Q 1534 4219 1204 4116 
Q 875 4013 500 3803 
L 500 4441 
Q 881 4594 1212 4672 
Q 1544 4750 1819 4750 
Q 2544 4750 2975 4387 
Q 3406 4025 3406 3419 
Q 3406 3131 3298 2873 
Q 3191 2616 2906 2266 
Q 2828 2175 2409 1742 
Q 1991 1309 1228 531 
z
" transform="scale(0.015625)"/>
       </defs>
       <use xlink:href="#DejaVuSans-32"/>
      </g>
     </g>
    </g>
    <g id="xtick_3">
     <g id="line2d_3">
      <g>
       <use xlink:href="#m78c7a953c2" x="187.448636" y="273.312" style="stroke: #000000; stroke-width: 0.8"/>
      </g>
     </g>
     <g id="text_3">
      <!-- 4 -->
      <g transform="translate(184.267386 287.910437) scale(0.1 -0.1)">
       <defs>
        <path id="DejaVuSans-34" d="M 2419 4116 
L 825 1625 
L 2419 1625 
L 2419 4116 
z
M 2253 4666 
L 3047 4666 
L 3047 1625 
L 3713 1625 
L 3713 1100 
L 3047 1100 
L 3047 0 
L 2419 0 
L 2419 1100 
L 313 1100 
L 313 1709 
L 2253 4666 
z
" transform="scale(0.015625)"/>
       </defs>
       <use xlink:href="#DejaVuSans-34"/>
      </g>
     </g>
    </g>
    <g id="xtick_4">
     <g id="line2d_4">
      <g>
       <use xlink:href="#m78c7a953c2" x="259.594091" y="273.312" style="stroke: #000000; stroke-width: 0.8"/>
      </g>
     </g>
     <g id="text_4">
      <!-- 6 -->
      <g transform="translate(256.412841 287.910437) scale(0.1 -0.1)">
       <defs>
        <path id="DejaVuSans-36" d="M 2113 2584 
Q 1688 2584 1439 2293 
Q 1191 2003 1191 1497 
Q 1191 994 1439 701 
Q 1688 409 2113 409 
Q 2538 409 2786 701 
Q 3034 994 3034 1497 
Q 3034 2003 2786 2293 
Q 2538 2584 2113 2584 
z
M 3366 4563 
L 3366 3988 
Q 3128 4100 2886 4159 
Q 2644 4219 2406 4219 
Q 1781 4219 1451 3797 
Q 1122 3375 1075 2522 
Q 1259 2794 1537 2939 
Q 1816 3084 2150 3084 
Q 2853 3084 3261 2657 
Q 3669 2231 3669 1497 
Q 3669 778 3244 343 
Q 2819 -91 2113 -91 
Q 1303 -91 875 529 
Q 447 1150 447 2328 
Q 447 3434 972 4092 
Q 1497 4750 2381 4750 
Q 2619 4750 2861 4703 
Q 3103 4656 3366 4563 
z
" transform="scale(0.015625)"/>
       </defs>
       <use xlink:href="#DejaVuSans-36"/>
      </g>
     </g>
    </g>
    <g id="xtick_5">
     <g id="line2d_5">
      <g>
       <use xlink:href="#m78c7a953c2" x="331.739545" y="273.312" style="stroke: #000000; stroke-width: 0.8"/>
      </g>
     </g>
     <g id="text_5">
      <!-- 8 -->
      <g transform="translate(328.558295 287.910437) scale(0.1 -0.1)">
       <defs>
        <path id="DejaVuSans-38" d="M 2034 2216 
Q 1584 2216 1326 1975 
Q 1069 1734 1069 1313 
Q 1069 891 1326 650 
Q 1584 409 2034 409 
Q 2484 409 2743 651 
Q 3003 894 3003 1313 
Q 3003 1734 2745 1975 
Q 2488 2216 2034 2216 
z
M 1403 2484 
Q 997 2584 770 2862 
Q 544 3141 544 3541 
Q 544 4100 942 4425 
Q 1341 4750 2034 4750 
Q 2731 4750 3128 4425 
Q 3525 4100 3525 3541 
Q 3525 3141 3298 2862 
Q 3072 2584 2669 2484 
Q 3125 2378 3379 2068 
Q 3634 1759 3634 1313 
Q 3634 634 3220 271 
Q 2806 -91 2034 -91 
Q 1263 -91 848 271 
Q 434 634 434 1313 
Q 434 1759 690 2068 
Q 947 2378 1403 2484 
z
M 1172 3481 
Q 1172 3119 1398 2916 
Q 1625 2713 2034 2713 
Q 2441 2713 2670 2916 
Q 2900 3119 2900 3481 
Q 2900 3844 2670 4047 
Q 2441 4250 2034 4250 
Q 1625 4250 1398 4047 
Q 1172 3844 1172 3481 
z
" transform="scale(0.015625)"/>
       </defs>
       <use xlink:href="#DejaVuSans-38"/>
      </g>
     </g>
    </g>
   </g>
   <g id="matplotlib.axis_2">
    <g id="ytick_1">
     <g id="line2d_6">
      <defs>
       <path id="m50a136a4d5" d="M 0 0 
L -3.5 0 
" style="stroke: #000000; stroke-width: 0.8"/>
      </defs>
      <g>
       <use xlink:href="#m50a136a4d5" x="26.925" y="240.434059" style="stroke: #000000; stroke-width: 0.8"/>
      </g>
     </g>
     <g id="text_6">
      <!-- 0 -->
      <g transform="translate(13.5625 244.233278) scale(0.1 -0.1)">
       <use xlink:href="#DejaVuSans-30"/>
      </g>
     </g>
    </g>
    <g id="ytick_2">
     <g id="line2d_7">
      <g>
       <use xlink:href="#m50a136a4d5" x="26.925" y="187.362545" style="stroke: #000000; stroke-width: 0.8"/>
      </g>
     </g>
     <g id="text_7">
      <!-- 5 -->
      <g transform="translate(13.5625 191.161764) scale(0.1 -0.1)">
       <defs>
        <path id="DejaVuSans-35" d="M 691 4666 
L 3169 4666 
L 3169 4134 
L 1269 4134 
L 1269 2991 
Q 1406 3038 1543 3061 
Q 1681 3084 1819 3084 
Q 2600 3084 3056 2656 
Q 3513 2228 3513 1497 
Q 3513 744 3044 326 
Q 2575 -91 1722 -91 
Q 1428 -91 1123 -41 
Q 819 9 494 109 
L 494 744 
Q 775 591 1075 516 
Q 1375 441 1709 441 
Q 2250 441 2565 725 
Q 2881 1009 2881 1497 
Q 2881 1984 2565 2268 
Q 2250 2553 1709 2553 
Q 1456 2553 1204 2497 
Q 953 2441 691 2322 
L 691 4666 
z
" transform="scale(0.015625)"/>
       </defs>
       <use xlink:href="#DejaVuSans-35"/>
      </g>
     </g>
    </g>
    <g id="ytick_3">
     <g id="line2d_8">
      <g>
       <use xlink:href="#m50a136a4d5" x="26.925" y="134.291032" style="stroke: #000000; stroke-width: 0.8"/>
      </g>
     </g>
     <g id="text_8">
      <!-- 10 -->
      <g transform="translate(7.2 138.09025) scale(0.1 -0.1)">
       <defs>
        <path id="DejaVuSans-31" d="M 794 531 
L 1825 531 
L 1825 4091 
L 703 3866 
L 703 4441 
L 1819 4666 
L 2450 4666 
L 2450 531 
L 3481 531 
L 3481 0 
L 794 0 
L 794 531 
z
" transform="scale(0.015625)"/>
       </defs>
       <use xlink:href="#DejaVuSans-31"/>
       <use xlink:href="#DejaVuSans-30" transform="translate(63.623047 0)"/>
      </g>
     </g>
    </g>
    <g id="ytick_4">
     <g id="line2d_9">
      <g>
       <use xlink:href="#m50a136a4d5" x="26.925" y="81.219518" style="stroke: #000000; stroke-width: 0.8"/>
      </g>
     </g>
     <g id="text_9">
      <!-- 15 -->
      <g transform="translate(7.2 85.018736) scale(0.1 -0.1)">
       <use xlink:href="#DejaVuSans-31"/>
       <use xlink:href="#DejaVuSans-35" transform="translate(63.623047 0)"/>
      </g>
     </g>
    </g>
    <g id="ytick_5">
     <g id="line2d_10">
      <g>
       <use xlink:href="#m50a136a4d5" x="26.925" y="28.148004" style="stroke: #000000; stroke-width: 0.8"/>
      </g>
     </g>
     <g id="text_10">
      <!-- 20 -->
      <g transform="translate(7.2 31.947223) scale(0.1 -0.1)">
       <use xlink:href="#DejaVuSans-32"/>
       <use xlink:href="#DejaVuSans-30" transform="translate(63.623047 0)"/>
      </g>
     </g>
    </g>
   </g>
   <g id="line2d_11">
    <path d="M 43.157727 248.742226 
L 46.437066 246.524464 
L 49.716405 244.306702 
L 52.995744 242.088939 
L 56.275083 239.871177 
L 59.554421 237.653414 
L 62.83376 235.435652 
L 66.113099 233.21789 
L 69.392438 231.000127 
L 72.671777 228.782365 
L 75.951116 226.564603 
L 79.230455 224.34684 
L 82.509793 222.129078 
L 85.789132 219.911316 
L 89.068471 217.693553 
L 92.34781 215.475791 
L 95.627149 213.258029 
L 98.906488 211.040266 
L 102.185826 208.822504 
L 105.465165 206.604742 
L 108.744504 204.386979 
L 112.023843 202.169217 
L 115.303182 199.951455 
L 118.582521 197.733692 
L 121.86186 195.51593 
L 125.141198 193.298167 
L 128.420537 191.080405 
L 131.699876 188.862643 
L 134.979215 186.64488 
L 138.258554 184.427118 
L 141.537893 182.209356 
L 144.817231 179.991593 
L 148.09657 177.773831 
L 151.375909 175.556069 
L 154.655248 173.338306 
L 157.934587 171.120544 
L 161.213926 168.902782 
L 164.493264 166.685019 
L 167.772603 164.467257 
L 171.051942 162.249495 
L 174.331281 160.031732 
L 177.61062 157.81397 
L 180.889959 155.596208 
L 184.169298 153.378445 
L 187.448636 151.160683 
L 190.727975 148.942921 
L 194.007314 146.725158 
L 197.286653 144.507396 
L 200.565992 142.289633 
L 203.845331 140.071871 
L 207.124669 137.854109 
L 210.404008 135.636346 
L 213.683347 133.418584 
L 216.962686 131.200822 
L 220.242025 128.983059 
L 223.521364 126.765297 
L 226.800702 124.547535 
L 230.080041 122.329772 
L 233.35938 120.11201 
L 236.638719 117.894248 
L 239.918058 115.676485 
L 243.197397 113.458723 
L 246.476736 111.240961 
L 249.756074 109.023198 
L 253.035413 106.805436 
L 256.314752 104.587674 
L 259.594091 102.369911 
L 262.87343 100.152149 
L 266.152769 97.934386 
L 269.432107 95.716624 
L 272.711446 93.498862 
L 275.990785 91.281099 
L 279.270124 89.063337 
L 282.549463 86.845575 
L 285.828802 84.627812 
L 289.10814 82.41005 
L 292.387479 80.192288 
L 295.666818 77.974525 
L 298.946157 75.756763 
L 302.225496 73.539001 
L 305.504835 71.321238 
L 308.784174 69.103476 
L 312.063512 66.885714 
L 315.342851 64.667951 
L 318.62219 62.450189 
L 321.901529 60.232427 
L 325.180868 58.014664 
L 328.460207 55.796902 
L 331.739545 53.579139 
L 335.018884 51.361377 
L 338.298223 49.143615 
L 341.577562 46.925852 
L 344.856901 44.70809 
L 348.13624 42.490328 
L 351.415579 40.272565 
L 354.694917 38.054803 
L 357.974256 35.837041 
L 361.253595 33.619278 
L 364.532934 31.401516 
L 367.812273 29.183754 
" clip-path="url(#pe440bc1238)" style="fill: none; stroke: #1f77b4; stroke-width: 2.25; stroke-linecap: square"/>
   </g>
   <g id="patch_3">
    <path d="M 26.925 273.312 
L 26.925 7.2 
" style="fill: none; stroke: #000000; stroke-width: 0.8; stroke-linejoin: miter; stroke-linecap: square"/>
   </g>
   <g id="patch_4">
    <path d="M 384.045 273.312 
L 384.045 7.2 
" style="fill: none; stroke: #000000; stroke-width: 0.8; stroke-linejoin: miter; stroke-linecap: square"/>
   </g>
   <g id="patch_5">
    <path d="M 26.925 273.312 
L 384.045 273.312 
" style="fill: none; stroke: #000000; stroke-width: 0.8; stroke-linejoin: miter; stroke-linecap: square"/>
   </g>
   <g id="patch_6">
    <path d="M 26.925 7.2 
L 384.045 7.2 
" style="fill: none; stroke: #000000; stroke-width: 0.8; stroke-linejoin: miter; stroke-linecap: square"/>
   </g>
  </g>
 </g>
 <defs>
  <clipPath id="pe440bc1238">
   <rect x="26.925" y="7.2" width="357.12" height="266.112"/>
  </clipPath>
 </defs>
</svg>