<?xml version="1.0" encoding="utf-8" standalone="no"?>
<!DOCTYPE svg PUBLIC "-//W3C//DTD SVG 1.1//EN"
  "http://www.w3.org/Graphics/SVG/1.1/DTD/svg11.dtd">
<svg xmlns:xlink="http://www.w3.org/1999/xlink" width="713.373991pt" height="393.03625pt" viewBox="0 0 713.373991 393.03625" xmlns="http://www.w3.org/2000/svg" version="1.1">
 <metadata>
  <rdf:RDF xmlns:dc="http://purl.org/dc/elements/1.1/" xmlns:cc="http://creativecommons.org/ns#" xmlns:rdf="http://www.w3.org/1999/02/22-rdf-syntax-ns#">
   <cc:Work>
    <dc:type rdf:resource="http://purl.org/dc/dcmitype/StillImage"/>
    <dc:date>2025-10-13T05:56:28.257660</dc:date>
    <dc:format>image/svg+xml</dc:format>
    <dc:creator>
     <cc:Agent>
      <dc:title>Matplotlib v3.10.3, https://matplotlib.org/</dc:title>
     </cc:Agent>
    </dc:creator>
   </cc:Work>
  </rdf:RDF>
 </metadata>
 <defs>
  <style type="text/css">*{stroke-linejoin: round; stroke-linecap: butt}</style>
 </defs>
 <g id="figure_1">
  <g id="patch_1">
   <path d="M 0 393.03625 
L 713.373991 393.03625 
L 713.373991 0 
L 0 0 
z
" style="fill: #ffffff"/>
  </g>
  <g id="axes_1">
   <g id="patch_2">
    <path d="M 28.942188 354.958125 
L 333.305824 354.958125 
L 333.305824 22.318125 
L 28.942188 22.318125 
z
" style="fill: #ffffff"/>
   </g>
   <g id="matplotlib.axis_1">
    <g id="xtick_1">
     <g id="line2d_1">
      <defs>
       <path id="m0b50d1e112" d="M 0 0 
L 0 3.5 
" style="stroke: #000000; stroke-width: 0.8"/>
      </defs>
      <g>
       <use xlink:href="#m0b50d1e112" x="331.393877" y="354.958125" style="stroke: #000000; stroke-width: 0.8"/>
      </g>
     </g>
     <g id="text_1">
      <!-- 500 -->
      <g transform="translate(321.850127 369.556562) scale(0.1 -0.1)">
       <defs>
        <path id="DejaVuSans-35" d="M 691 4666 
L 3169 4666 
L 3169 4134 
L 1269 4134 
L 1269 2991 
Q 1406 3038 1543 3061 
Q 1681 3084 1819 3084 
Q 2600 3084 3056 2656 
Q 3513 2228 3513 1497 
Q 3513 744 3044 326 
Q 2575 -91 1722 -91 
Q 1428 -91 1123 -41 
Q 819 9 494 109 
L 494 744 
Q 775 591 1075 516 
Q 1375 441 1709 441 
Q 2250 441 2565 725 
Q 2881 1009 2881 1497 
Q 2881 1984 2565 2268 
Q 2250 2553 1709 2553 
Q 1456 2553 1204 2497 
Q 953 2441 691 2322 
L 691 4666 
z
" transform="scale(0.015625)"/>
        <path id="DejaVuSans-30" d="M 2034 4250 
Q 1547 4250 1301 3770 
Q 1056 3291 1056 2328 
Q 1056 1369 1301 889 
Q 1547 409 2034 409 
Q 2525 409 2770 889 
Q 3016 1369 3016 2328 
Q 3016 3291 2770 3770 
Q 2525 4250 2034 4250 
z
M 2034 4750 
Q 2819 4750 3233 4129 
Q 3647 3509 3647 2328 
Q 3647 1150 3233 529 
Q 2819 -91 2034 -91 
Q 1250 -91 836 529 
Q 422 1150 422 2328 
Q 422 3509 836 4129 
Q 1250 4750 2034 4750 
z
" transform="scale(0.015625)"/>
       </defs>
       <use xlink:href="#DejaVuSans-35"/>
       <use xlink:href="#DejaVuSans-30" transform="translate(63.623047 0)"/>
       <use xlink:href="#DejaVuSans-30" transform="translate(127.246094 0)"/>
      </g>
     </g>
    </g>
    <g id="xtick_2">
     <g id="line2d_2">
      <g>
       <use xlink:href="#m0b50d1e112" x="290.164317" y="354.958125" style="stroke: #000000; stroke-width: 0.8"/>
      </g>
     </g>
     <g id="text_2">
      <!-- 1000 -->
      <g transform="translate(277.439317 369.556562) scale(0.1 -0.1)">
       <defs>
        <path id="DejaVuSans-31" d="M 794 531 
L 1825 531 
L 1825 4091 
L 703 3866 
L 703 4441 
L 1819 4666 
L 2450 4666 
L 2450 531 
L 3481 531 
L 3481 0 
L 794 0 
L 794 531 
z
" transform="scale(0.015625)"/>
       </defs>
       <use xlink:href="#DejaVuSans-31"/>
       <use xlink:href="#DejaVuSans-30" transform="translate(63.623047 0)"/>
       <use xlink:href="#DejaVuSans-30" transform="translate(127.246094 0)"/>
       <use xlink:href="#DejaVuSans-30" transform="translate(190.869141 0)"/>
      </g>
     </g>
    </g>
    <g id="xtick_3">
     <g id="line2d_3">
      <g>
       <use xlink:href="#m0b50d1e112" x="248.934758" y="354.958125" style="stroke: #000000; stroke-width: 0.8"/>
      </g>
     </g>
     <g id="text_3">
      <!-- 1500 -->
      <g transform="translate(236.209758 369.556562) scale(0.1 -0.1)">
       <use xlink:href="#DejaVuSans-31"/>
       <use xlink:href="#DejaVuSans-35" transform="translate(63.623047 0)"/>
       <use xlink:href="#DejaVuSans-30" transform="translate(127.246094 0)"/>
       <use xlink:href="#DejaVuSans-30" transform="translate(190.869141 0)"/>
      </g>
     </g>
    </g>
    <g id="xtick_4">
     <g id="line2d_4">
      <g>
       <use xlink:href="#m0b50d1e112" x="207.705198" y="354.958125" style="stroke: #000000; stroke-width: 0.8"/>
      </g>
     </g>
     <g id="text_4">
      <!-- 2000 -->
      <g transform="translate(194.980198 369.556562) scale(0.1 -0.1)">
       <defs>
        <path id="DejaVuSans-32" d="M 1228 531 
L 3431 531 
L 3431 0 
L 469 0 
L 469 531 
Q 828 903 1448 1529 
Q 2069 2156 2228 2338 
Q 2531 2678 2651 2914 
Q 2772 3150 2772 3378 
Q 2772 3750 2511 3984 
Q 2250 4219 1831 4219 
Q 1534 4219 1204 4116 
Q 875 4013 500 3803 
L 500 4441 
Q 881 4594 1212 4672 
Q 1544 4750 1819 4750 
Q 2544 4750 2975 4387 
Q 3406 4025 3406 3419 
Q 3406 3131 3298 2873 
Q 3191 2616 2906 2266 
Q 2828 2175 2409 1742 
Q 1991 1309 1228 531 
z
" transform="scale(0.015625)"/>
       </defs>
       <use xlink:href="#DejaVuSans-32"/>
       <use xlink:href="#DejaVuSans-30" transform="translate(63.623047 0)"/>
       <use xlink:href="#DejaVuSans-30" transform="translate(127.246094 0)"/>
       <use xlink:href="#DejaVuSans-30" transform="translate(190.869141 0)"/>
      </g>
     </g>
    </g>
    <g id="xtick_5">
     <g id="line2d_5">
      <g>
       <use xlink:href="#m0b50d1e112" x="166.475638" y="354.958125" style="stroke: #000000; stroke-width: 0.8"/>
      </g>
     </g>
     <g id="text_5">
      <!-- 2500 -->
      <g transform="translate(153.750638 369.556562) scale(0.1 -0.1)">
       <use xlink:href="#DejaVuSans-32"/>
       <use xlink:href="#DejaVuSans-35" transform="translate(63.623047 0)"/>
       <use xlink:href="#DejaVuSans-30" transform="translate(127.246094 0)"/>
       <use xlink:href="#DejaVuSans-30" transform="translate(190.869141 0)"/>
      </g>
     </g>
    </g>
    <g id="xtick_6">
     <g id="line2d_6">
      <g>
       <use xlink:href="#m0b50d1e112" x="125.246078" y="354.958125" style="stroke: #000000; stroke-width: 0.8"/>
      </g>
     </g>
     <g id="text_6">
      <!-- 3000 -->
      <g transform="translate(112.521078 369.556562) scale(0.1 -0.1)">
       <defs>
        <path id="DejaVuSans-33" d="M 2597 2516 
Q 3050 2419 3304 2112 
Q 3559 1806 3559 1356 
Q 3559 666 3084 287 
Q 2609 -91 1734 -91 
Q 1441 -91 1130 -33 
Q 819 25 488 141 
L 488 750 
Q 750 597 1062 519 
Q 1375 441 1716 441 
Q 2309 441 2620 675 
Q 2931 909 2931 1356 
Q 2931 1769 2642 2001 
Q 2353 2234 1838 2234 
L 1294 2234 
L 1294 2753 
L 1863 2753 
Q 2328 2753 2575 2939 
Q 2822 3125 2822 3475 
Q 2822 3834 2567 4026 
Q 2313 4219 1838 4219 
Q 1578 4219 1281 4162 
Q 984 4106 628 3988 
L 628 4550 
Q 988 4650 1302 4700 
Q 1616 4750 1894 4750 
Q 2613 4750 3031 4423 
Q 3450 4097 3450 3541 
Q 3450 3153 3228 2886 
Q 3006 2619 2597 2516 
z
" transform="scale(0.015625)"/>
       </defs>
       <use xlink:href="#DejaVuSans-33"/>
       <use xlink:href="#DejaVuSans-30" transform="translate(63.623047 0)"/>
       <use xlink:href="#DejaVuSans-30" transform="translate(127.246094 0)"/>
       <use xlink:href="#DejaVuSans-30" transform="translate(190.869141 0)"/>
      </g>
     </g>
    </g>
    <g id="xtick_7">
     <g id="line2d_7">
      <g>
       <use xlink:href="#m0b50d1e112" x="84.016518" y="354.958125" style="stroke: #000000; stroke-width: 0.8"/>
      </g>
     </g>
     <g id="text_7">
      <!-- 3500 -->
      <g transform="translate(71.291518 369.556562) scale(0.1 -0.1)">
       <use xlink:href="#DejaVuSans-33"/>
       <use xlink:href="#DejaVuSans-35" transform="translate(63.623047 0)"/>
       <use xlink:href="#DejaVuSans-30" transform="translate(127.246094 0)"/>
       <use xlink:href="#DejaVuSans-30" transform="translate(190.869141 0)"/>
      </g>
     </g>
    </g>
    <g id="xtick_8">
     <g id="line2d_8">
      <g>
       <use xlink:href="#m0b50d1e112" x="42.786958" y="354.958125" style="stroke: #000000; stroke-width: 0.8"/>
      </g>
     </g>
     <g id="text_8">
      <!-- 4000 -->
      <g transform="translate(30.061958 369.556562) scale(0.1 -0.1)">
       <defs>
        <path id="DejaVuSans-34" d="M 2419 4116 
L 825 1625 
L 2419 1625 
L 2419 4116 
z
M 2253 4666 
L 3047 4666 
L 3047 1625 
L 3713 1625 
L 3713 1100 
L 3047 1100 
L 3047 0 
L 2419 0 
L 2419 1100 
L 313 1100 
L 313 1709 
L 2253 4666 
z
" transform="scale(0.015625)"/>
       </defs>
       <use xlink:href="#DejaVuSans-34"/>
       <use xlink:href="#DejaVuSans-30" transform="translate(63.623047 0)"/>
       <use xlink:href="#DejaVuSans-30" transform="translate(127.246094 0)"/>
       <use xlink:href="#DejaVuSans-30" transform="translate(190.869141 0)"/>
      </g>
     </g>
    </g>
    <g id="text_9">
     <!-- Wavenumbers, cm$^{-1}$ -->
     <g transform="translate(128.774006 383.756562) scale(0.1 -0.1)">
      <defs>
       <path id="DejaVuSans-57" d="M 213 4666 
L 850 4666 
L 1831 722 
L 2809 4666 
L 3519 4666 
L 4500 722 
L 5478 4666 
L 6119 4666 
L 4947 0 
L 4153 0 
L 3169 4050 
L 2175 0 
L 1381 0 
L 213 4666 
z
" transform="scale(0.015625)"/>
       <path id="DejaVuSans-61" d="M 2194 1759 
Q 1497 1759 1228 1600 
Q 959 1441 959 1056 
Q 959 750 1161 570 
Q 1363 391 1709 391 
Q 2188 391 2477 730 
Q 2766 1069 2766 1631 
L 2766 1759 
L 2194 1759 
z
M 3341 1997 
L 3341 0 
L 2766 0 
L 2766 531 
Q 2569 213 2275 61 
Q 1981 -91 1556 -91 
Q 1019 -91 701 211 
Q 384 513 384 1019 
Q 384 1609 779 1909 
Q 1175 2209 1959 2209 
L 2766 2209 
L 2766 2266 
Q 2766 2663 2505 2880 
Q 2244 3097 1772 3097 
Q 1472 3097 1187 3025 
Q 903 2953 641 2809 
L 641 3341 
Q 956 3463 1253 3523 
Q 1550 3584 1831 3584 
Q 2591 3584 2966 3190 
Q 3341 2797 3341 1997 
z
" transform="scale(0.015625)"/>
       <path id="DejaVuSans-76" d="M 191 3500 
L 800 3500 
L 1894 563 
L 2988 3500 
L 3597 3500 
L 2284 0 
L 1503 0 
L 191 3500 
z
" transform="scale(0.015625)"/>
       <path id="DejaVuSans-65" d="M 3597 1894 
L 3597 1613 
L 953 1613 
Q 991 1019 1311 708 
Q 1631 397 2203 397 
Q 2534 397 2845 478 
Q 3156 559 3463 722 
L 3463 178 
Q 3153 47 2828 -22 
Q 2503 -91 2169 -91 
Q 1331 -91 842 396 
Q 353 884 353 1716 
Q 353 2575 817 3079 
Q 1281 3584 2069 3584 
Q 2775 3584 3186 3129 
Q 3597 2675 3597 1894 
z
M 3022 2063 
Q 3016 2534 2758 2815 
Q 2500 3097 2075 3097 
Q 1594 3097 1305 2825 
Q 1016 2553 972 2059 
L 3022 2063 
z
" transform="scale(0.015625)"/>
       <path id="DejaVuSans-6e" d="M 3513 2113 
L 3513 0 
L 2938 0 
L 2938 2094 
Q 2938 2591 2744 2837 
Q 2550 3084 2163 3084 
Q 1697 3084 1428 2787 
Q 1159 2491 1159 1978 
L 1159 0 
L 581 0 
L 581 3500 
L 1159 3500 
L 1159 2956 
Q 1366 3272 1645 3428 
Q 1925 3584 2291 3584 
Q 2894 3584 3203 3211 
Q 3513 2838 3513 2113 
z
" transform="scale(0.015625)"/>
       <path id="DejaVuSans-75" d="M 544 1381 
L 544 3500 
L 1119 3500 
L 1119 1403 
Q 1119 906 1312 657 
Q 1506 409 1894 409 
Q 2359 409 2629 706 
Q 2900 1003 2900 1516 
L 2900 3500 
L 3475 3500 
L 3475 0 
L 2900 0 
L 2900 538 
Q 2691 219 2414 64 
Q 2138 -91 1772 -91 
Q 1169 -91 856 284 
Q 544 659 544 1381 
z
M 1991 3584 
L 1991 3584 
z
" transform="scale(0.015625)"/>
       <path id="DejaVuSans-6d" d="M 3328 2828 
Q 3544 3216 3844 3400 
Q 4144 3584 4550 3584 
Q 5097 3584 5394 3201 
Q 5691 2819 5691 2113 
L 5691 0 
L 5113 0 
L 5113 2094 
Q 5113 2597 4934 2840 
Q 4756 3084 4391 3084 
Q 3944 3084 3684 2787 
Q 3425 2491 3425 1978 
L 3425 0 
L 2847 0 
L 2847 2094 
Q 2847 2600 2669 2842 
Q 2491 3084 2119 3084 
Q 1678 3084 1418 2786 
Q 1159 2488 1159 1978 
L 1159 0 
L 581 0 
L 581 3500 
L 1159 3500 
L 1159 2956 
Q 1356 3278 1631 3431 
Q 1906 3584 2284 3584 
Q 2666 3584 2933 3390 
Q 3200 3197 3328 2828 
z
" transform="scale(0.015625)"/>
       <path id="DejaVuSans-62" d="M 3116 1747 
Q 3116 2381 2855 2742 
Q 2594 3103 2138 3103 
Q 1681 3103 1420 2742 
Q 1159 2381 1159 1747 
Q 1159 1113 1420 752 
Q 1681 391 2138 391 
Q 2594 391 2855 752 
Q 3116 1113 3116 1747 
z
M 1159 2969 
Q 1341 3281 1617 3432 
Q 1894 3584 2278 3584 
Q 2916 3584 3314 3078 
Q 3713 2572 3713 1747 
Q 3713 922 3314 415 
Q 2916 -91 2278 -91 
Q 1894 -91 1617 61 
Q 1341 213 1159 525 
L 1159 0 
L 581 0 
L 581 4863 
L 1159 4863 
L 1159 2969 
z
" transform="scale(0.015625)"/>
       <path id="DejaVuSans-72" d="M 2631 2963 
Q 2534 3019 2420 3045 
Q 2306 3072 2169 3072 
Q 1681 3072 1420 2755 
Q 1159 2438 1159 1844 
L 1159 0 
L 581 0 
L 581 3500 
L 1159 3500 
L 1159 2956 
Q 1341 3275 1631 3429 
Q 1922 3584 2338 3584 
Q 2397 3584 2469 3576 
Q 2541 3569 2628 3553 
L 2631 2963 
z
" transform="scale(0.015625)"/>
       <path id="DejaVuSans-73" d="M 2834 3397 
L 2834 2853 
Q 2591 2978 2328 3040 
Q 2066 3103 1784 3103 
Q 1356 3103 1142 2972 
Q 928 2841 928 2578 
Q 928 2378 1081 2264 
Q 1234 2150 1697 2047 
L 1894 2003 
Q 2506 1872 2764 1633 
Q 3022 1394 3022 966 
Q 3022 478 2636 193 
Q 2250 -91 1575 -91 
Q 1294 -91 989 -36 
Q 684 19 347 128 
L 347 722 
Q 666 556 975 473 
Q 1284 391 1588 391 
Q 1994 391 2212 530 
Q 2431 669 2431 922 
Q 2431 1156 2273 1281 
Q 2116 1406 1581 1522 
L 1381 1569 
Q 847 1681 609 1914 
Q 372 2147 372 2553 
Q 372 3047 722 3315 
Q 1072 3584 1716 3584 
Q 2034 3584 2315 3537 
Q 2597 3491 2834 3397 
z
" transform="scale(0.015625)"/>
       <path id="DejaVuSans-2c" d="M 750 794 
L 1409 794 
L 1409 256 
L 897 -744 
L 494 -744 
L 750 256 
L 750 794 
z
" transform="scale(0.015625)"/>
       <path id="DejaVuSans-20" transform="scale(0.015625)"/>
       <path id="DejaVuSans-63" d="M 3122 3366 
L 3122 2828 
Q 2878 2963 2633 3030 
Q 2388 3097 2138 3097 
Q 1578 3097 1268 2742 
Q 959 2388 959 1747 
Q 959 1106 1268 751 
Q 1578 397 2138 397 
Q 2388 397 2633 464 
Q 2878 531 3122 666 
L 3122 134 
Q 2881 22 2623 -34 
Q 2366 -91 2075 -91 
Q 1284 -91 818 406 
Q 353 903 353 1747 
Q 353 2603 823 3093 
Q 1294 3584 2113 3584 
Q 2378 3584 2631 3529 
Q 2884 3475 3122 3366 
z
" transform="scale(0.015625)"/>
       <path id="DejaVuSans-2212" d="M 678 2272 
L 4684 2272 
L 4684 1741 
L 678 1741 
L 678 2272 
z
" transform="scale(0.015625)"/>
      </defs>
      <use xlink:href="#DejaVuSans-57" transform="translate(0 0.684375)"/>
      <use xlink:href="#DejaVuSans-61" transform="translate(98.876953 0.684375)"/>
      <use xlink:href="#DejaVuSans-76" transform="translate(160.15625 0.684375)"/>
      <use xlink:href="#DejaVuSans-65" transform="translate(219.335938 0.684375)"/>
      <use xlink:href="#DejaVuSans-6e" transform="translate(280.859375 0.684375)"/>
      <use xlink:href="#DejaVuSans-75" transform="translate(344.238281 0.684375)"/>
      <use xlink:href="#DejaVuSans-6d" transform="translate(407.617188 0.684375)"/>
      <use xlink:href="#DejaVuSans-62" transform="translate(505.029297 0.684375)"/>
      <use xlink:href="#DejaVuSans-65" transform="translate(568.505859 0.684375)"/>
      <use xlink:href="#DejaVuSans-72" transform="translate(630.029297 0.684375)"/>
      <use xlink:href="#DejaVuSans-73" transform="translate(671.142578 0.684375)"/>
      <use xlink:href="#DejaVuSans-2c" transform="translate(723.242188 0.684375)"/>
      <use xlink:href="#DejaVuSans-20" transform="translate(755.029297 0.684375)"/>
      <use xlink:href="#DejaVuSans-63" transform="translate(786.816406 0.684375)"/>
      <use xlink:href="#DejaVuSans-6d" transform="translate(841.796875 0.684375)"/>
      <use xlink:href="#DejaVuSans-2212" transform="translate(940.166016 38.965625) scale(0.7)"/>
      <use xlink:href="#DejaVuSans-31" transform="translate(998.818359 38.965625) scale(0.7)"/>
     </g>
    </g>
   </g>
   <g id="matplotlib.axis_2">
    <g id="ytick_1">
     <g id="line2d_9">
      <defs>
       <path id="m267071738a" d="M 0 0 
L -3.5 0 
" style="stroke: #000000; stroke-width: 0.8"/>
      </defs>
      <g>
       <use xlink:href="#m267071738a" x="28.942188" y="352.895837" style="stroke: #000000; stroke-width: 0.8"/>
      </g>
     </g>
     <g id="text_10">
      <!-- −8 -->
      <g transform="translate(7.2 356.695056) scale(0.1 -0.1)">
       <defs>
        <path id="DejaVuSans-38" d="M 2034 2216 
Q 1584 2216 1326 1975 
Q 1069 1734 1069 1313 
Q 1069 891 1326 650 
Q 1584 409 2034 409 
Q 2484 409 2743 651 
Q 3003 894 3003 1313 
Q 3003 1734 2745 1975 
Q 2488 2216 2034 2216 
z
M 1403 2484 
Q 997 2584 770 2862 
Q 544 3141 544 3541 
Q 544 4100 942 4425 
Q 1341 4750 2034 4750 
Q 2731 4750 3128 4425 
Q 3525 4100 3525 3541 
Q 3525 3141 3298 2862 
Q 3072 2584 2669 2484 
Q 3125 2378 3379 2068 
Q 3634 1759 3634 1313 
Q 3634 634 3220 271 
Q 2806 -91 2034 -91 
Q 1263 -91 848 271 
Q 434 634 434 1313 
Q 434 1759 690 2068 
Q 947 2378 1403 2484 
z
M 1172 3481 
Q 1172 3119 1398 2916 
Q 1625 2713 2034 2713 
Q 2441 2713 2670 2916 
Q 2900 3119 2900 3481 
Q 2900 3844 2670 4047 
Q 2441 4250 2034 4250 
Q 1625 4250 1398 4047 
Q 1172 3844 1172 3481 
z
" transform="scale(0.015625)"/>
       </defs>
       <use xlink:href="#DejaVuSans-2212"/>
       <use xlink:href="#DejaVuSans-38" transform="translate(83.789062 0)"/>
      </g>
     </g>
    </g>
    <g id="ytick_2">
     <g id="line2d_10">
      <g>
       <use xlink:href="#m267071738a" x="28.942188" y="289.252814" style="stroke: #000000; stroke-width: 0.8"/>
      </g>
     </g>
     <g id="text_11">
      <!-- −6 -->
      <g transform="translate(7.2 293.052033) scale(0.1 -0.1)">
       <defs>
        <path id="DejaVuSans-36" d="M 2113 2584 
Q 1688 2584 1439 2293 
Q 1191 2003 1191 1497 
Q 1191 994 1439 701 
Q 1688 409 2113 409 
Q 2538 409 2786 701 
Q 3034 994 3034 1497 
Q 3034 2003 2786 2293 
Q 2538 2584 2113 2584 
z
M 3366 4563 
L 3366 3988 
Q 3128 4100 2886 4159 
Q 2644 4219 2406 4219 
Q 1781 4219 1451 3797 
Q 1122 3375 1075 2522 
Q 1259 2794 1537 2939 
Q 1816 3084 2150 3084 
Q 2853 3084 3261 2657 
Q 3669 2231 3669 1497 
Q 3669 778 3244 343 
Q 2819 -91 2113 -91 
Q 1303 -91 875 529 
Q 447 1150 447 2328 
Q 447 3434 972 4092 
Q 1497 4750 2381 4750 
Q 2619 4750 2861 4703 
Q 3103 4656 3366 4563 
z
" transform="scale(0.015625)"/>
       </defs>
       <use xlink:href="#DejaVuSans-2212"/>
       <use xlink:href="#DejaVuSans-36" transform="translate(83.789062 0)"/>
      </g>
     </g>
    </g>
    <g id="ytick_3">
     <g id="line2d_11">
      <g>
       <use xlink:href="#m267071738a" x="28.942188" y="225.609792" style="stroke: #000000; stroke-width: 0.8"/>
      </g>
     </g>
     <g id="text_12">
      <!-- −4 -->
      <g transform="translate(7.2 229.409011) scale(0.1 -0.1)">
       <use xlink:href="#DejaVuSans-2212"/>
       <use xlink:href="#DejaVuSans-34" transform="translate(83.789062 0)"/>
      </g>
     </g>
    </g>
    <g id="ytick_4">
     <g id="line2d_12">
      <g>
       <use xlink:href="#m267071738a" x="28.942188" y="161.96677" style="stroke: #000000; stroke-width: 0.8"/>
      </g>
     </g>
     <g id="text_13">
      <!-- −2 -->
      <g transform="translate(7.2 165.765988) scale(0.1 -0.1)">
       <use xlink:href="#DejaVuSans-2212"/>
       <use xlink:href="#DejaVuSans-32" transform="translate(83.789062 0)"/>
      </g>
     </g>
    </g>
    <g id="ytick_5">
     <g id="line2d_13">
      <g>
       <use xlink:href="#m267071738a" x="28.942188" y="98.323747" style="stroke: #000000; stroke-width: 0.8"/>
      </g>
     </g>
     <g id="text_14">
      <!-- 0 -->
      <g transform="translate(15.579688 102.122966) scale(0.1 -0.1)">
       <use xlink:href="#DejaVuSans-30"/>
      </g>
     </g>
    </g>
    <g id="ytick_6">
     <g id="line2d_14">
      <g>
       <use xlink:href="#m267071738a" x="28.942188" y="34.680725" style="stroke: #000000; stroke-width: 0.8"/>
      </g>
     </g>
     <g id="text_15">
      <!-- 2 -->
      <g transform="translate(15.579688 38.479944) scale(0.1 -0.1)">
       <use xlink:href="#DejaVuSans-32"/>
      </g>
     </g>
    </g>
   </g>
   <g id="line2d_15">
    <path d="M 319.471113 156.6533 
L 319.391598 156.881872 
L 318.914539 159.774664 
L 318.556749 160.946631 
L 318.318219 160.963087 
L 318.19895 160.697858 
L 317.880914 159.67602 
L 317.84116 159.694424 
L 317.721891 160.538754 
L 317.562877 161.78892 
L 317.523124 161.581352 
L 316.807535 155.181896 
L 316.250961 152.100503 
L 316.012431 146.849409 
L 315.813655 137.146682 
L 315.575126 111.527545 
L 315.376358 96.544075 
L 315.296843 101.665705 
L 314.859537 141.346593 
L 314.581254 145.084148 
L 314.42224 145.581384 
L 314.302971 145.456668 
L 314.183711 145.02298 
L 313.945181 142.655507 
L 313.627136 137.400933 
L 313.388607 130.229571 
L 313.189831 118.228674 
L 312.951301 85.876033 
L 312.633265 37.438125 
L 312.553758 41.42994 
L 312.315228 85.100365 
L 311.997183 124.814719 
L 311.758654 132.09363 
L 311.520124 133.922337 
L 311.281595 134.34625 
L 311.122581 134.295874 
L 310.963558 133.911523 
L 310.645522 133.046507 
L 310.406992 132.467625 
L 309.969687 130.691084 
L 309.095076 127.262886 
L 308.777039 125.991384 
L 308.419241 124.150649 
L 308.180711 123.25828 
L 307.465123 119.983636 
L 306.033946 113.698917 
L 305.159343 110.170297 
L 304.960567 109.400141 
L 304.563016 107.56662 
L 304.324486 106.817326 
L 303.410122 102.913295 
L 303.052331 101.802009 
L 302.177721 96.874408 
L 301.859684 92.379029 
L 301.621154 90.088273 
L 301.541639 90.333296 
L 301.30311 93.003176 
L 300.985073 95.33653 
L 300.865812 95.469416 
L 300.826051 95.443786 
L 300.587521 95.328975 
L 300.309238 95.378023 
L 300.110462 95.149648 
L 299.434635 93.79595 
L 299.196106 92.848228 
L 298.838308 91.458673 
L 298.639532 91.288892 
L 298.520271 90.65106 
L 298.162473 87.051805 
L 298.122719 87.285888 
L 297.923943 90.755765 
L 297.685414 93.576154 
L 297.446884 94.269537 
L 297.128848 94.485469 
L 296.373506 94.811141 
L 295.180858 96.438207 
L 293.868942 100.352277 
L 292.994339 105.39002 
L 292.358258 110.771721 
L 291.722176 118.851107 
L 291.245117 128.331319 
L 290.768058 142.864415 
L 290.330761 164.186685 
L 289.893439 197.822641 
L 288.303298 339.838125 
L 288.26347 339.745539 
L 288.144234 336.246586 
L 287.945425 320.004329 
L 286.116729 129.650773 
L 285.719194 113.778734 
L 285.281913 104.886664 
L 284.804804 99.586141 
L 284.168715 95.328144 
L 283.731434 92.192002 
L 283.49288 90.845174 
L 283.413389 91.228362 
L 283.174835 94.475541 
L 282.7773 98.584674 
L 282.260528 102.611628 
L 281.226903 108.196375 
L 280.78954 110.369179 
L 280.630559 110.44269 
L 280.471495 110.12352 
L 280.233023 108.883736 
L 279.795743 105.05251 
L 278.483818 91.789702 
L 277.927219 89.144536 
L 277.450193 87.728241 
L 277.092403 87.228138 
L 276.575549 86.87174 
L 276.336995 86.79084 
L 275.820224 86.131549 
L 275.502179 85.240181 
L 275.462434 85.258717 
L 275.30337 85.715852 
L 274.985325 86.51556 
L 274.66728 86.838353 
L 274.468554 87.055342 
L 273.474674 88.646807 
L 273.31561 88.648824 
L 273.116884 88.248403 
L 272.60003 87.161072 
L 272.480794 86.986444 
L 272.441049 87.007093 
L 272.321813 87.498938 
L 272.123004 90.069637 
L 271.765214 94.745948 
L 271.606233 94.851801 
L 271.52666 94.979581 
L 271.367679 95.921435 
L 271.129124 97.252333 
L 271.049634 97.05953 
L 270.89057 95.565303 
L 270.254563 88.438307 
L 269.856945 86.538624 
L 268.982384 83.476781 
L 268.942638 83.543469 
L 268.743829 84.426403 
L 268.425785 85.471145 
L 267.590968 86.8462 
L 267.312669 87.092207 
L 266.557343 88.053519 
L 266.199553 88.330222 
L 265.4044 88.976462 
L 264.728565 89.801722 
L 264.529839 89.983389 
L 263.734685 91.181381 
L 263.575704 91.329532 
L 262.62157 93.344506 
L 262.34327 94.765117 
L 262.104798 95.502419 
L 261.945735 95.477758 
L 261.786753 96.009187 
L 261.031345 100.091015 
L 260.474829 105.024042 
L 260.077293 108.841982 
L 259.719503 110.239942 
L 259.480949 110.399813 
L 259.401459 110.435971 
L 259.361713 110.371883 
L 259.20265 109.413391 
L 258.92435 108.023749 
L 258.844859 108.104891 
L 258.685878 108.921034 
L 257.254635 118.803997 
L 257.055909 118.945601 
L 256.737864 120.246484 
L 256.658373 120.175644 
L 256.539055 120.151749 
L 255.982538 121.301996 
L 255.823475 122.372256 
L 255.664494 123.456491 
L 255.624748 123.403034 
L 255.465685 122.003694 
L 255.187385 120.411891 
L 254.43206 116.096267 
L 254.352569 116.067018 
L 254.273078 116.159257 
L 254.233251 116.092184 
L 254.114015 114.85033 
L 253.636989 108.53645 
L 253.318944 101.702446 
L 253.120135 98.447829 
L 253.040644 99.235956 
L 252.841836 106.245384 
L 252.523873 115.589465 
L 252.484045 115.636168 
L 252.36481 114.195131 
L 252.08651 111.07214 
L 251.80821 110.369911 
L 251.529993 108.699765 
L 251.45042 108.982361 
L 251.251694 110.35816 
L 251.211949 110.329797 
L 251.09263 109.427701 
L 250.01926 99.198768 
L 249.860279 97.511076 
L 249.701215 93.001176 
L 249.30368 78.218399 
L 249.263934 78.71412 
L 248.66759 91.810162 
L 248.38929 96.092282 
L 248.349545 95.866945 
L 247.832774 90.49153 
L 247.753283 90.613967 
L 247.554474 91.364098 
L 247.514729 91.336316 
L 247.395493 91.163431 
L 247.355665 91.206688 
L 247.236429 91.444049 
L 247.196684 91.340642 
L 246.520849 87.365162 
L 246.441359 87.292568 
L 246.32204 87.855503 
L 246.202804 88.282578 
L 246.083569 87.444821 
L 245.96425 86.761974 
L 245.924505 86.882046 
L 245.765524 89.03813 
L 245.646205 90.391432 
L 245.60646 90.376242 
L 245.447479 88.95481 
L 244.97037 85.415561 
L 244.851135 85.421639 
L 244.692153 85.092714 
L 244.652326 85.114291 
L 244.493344 85.742331 
L 244.334281 86.775059 
L 244.095809 89.813666 
L 244.056064 89.366491 
L 243.658528 83.102931 
L 243.459719 82.792254 
L 243.340483 83.208463 
L 243.221165 83.501919 
L 243.101929 82.791791 
L 242.942866 82.046271 
L 242.82363 82.649702 
L 242.704394 83.381217 
L 242.664649 83.371499 
L 242.54533 82.494083 
L 242.306858 80.951049 
L 241.869495 80.276063 
L 241.670769 80.211625 
L 241.511705 80.177989 
L 241.19366 79.571184 
L 240.915361 78.61168 
L 240.676889 77.112811 
L 240.319099 73.556776 
L 240.279354 73.668663 
L 240.12029 75.748669 
L 239.84199 78.789156 
L 239.523946 79.943071 
L 239.325219 80.943674 
L 239.205901 80.275866 
L 239.04692 79.604636 
L 238.967429 79.818398 
L 238.76862 80.595466 
L 238.728875 80.556072 
L 238.530066 80.192651 
L 238.490321 80.22098 
L 238.371085 80.2783 
L 238.331339 80.230567 
L 238.172276 79.996276 
L 238.13253 80.049537 
L 238.013295 80.742392 
L 237.734995 83.372915 
L 237.69525 83.1607 
L 237.33746 80.774608 
L 237.257969 80.732953 
L 237.218224 80.801979 
L 237.098905 81.488741 
L 236.820606 83.85673 
L 236.78086 83.703664 
L 236.621879 82.735579 
L 236.582134 82.798326 
L 236.462816 84.300506 
L 236.303834 86.302095 
L 236.144771 83.642273 
L 235.906299 81.394864 
L 235.826726 81.480243 
L 235.548509 82.567292 
L 235.469018 82.387965 
L 235.309955 81.944906 
L 235.190719 82.584204 
L 234.99191 84.029338 
L 234.952165 84.021845 
L 234.71361 82.932672 
L 234.63412 83.131925 
L 234.514884 83.534074 
L 234.475139 83.458687 
L 234.236584 82.352795 
L 234.196839 82.406549 
L 234.077521 82.978112 
L 233.878794 85.501963 
L 233.759476 86.423971 
L 233.719731 86.187731 
L 233.481259 84.247212 
L 233.441431 84.313835 
L 233.123469 85.683726 
L 232.964405 88.044551 
L 232.28857 100.819735 
L 232.169334 101.244753 
L 232.050016 101.694826 
L 232.010271 101.529418 
L 231.891035 99.646173 
L 231.175454 84.845834 
L 230.9369 81.575871 
L 230.698428 78.829051 
L 230.618855 78.959455 
L 230.380384 79.411227 
L 230.261065 79.571195 
L 229.982766 80.801818 
L 229.784039 82.304794 
L 229.664721 83.196149 
L 229.624976 83.103698 
L 229.386504 81.044174 
L 229.306931 81.150479 
L 229.187695 81.453833 
L 229.14795 81.426637 
L 228.750414 80.622576 
L 228.631096 80.927778 
L 228.313133 82.202996 
L 228.273306 82.107495 
L 228.074579 80.487624 
L 227.915516 79.974127 
L 227.79628 79.974909 
L 227.557725 79.362982 
L 227.51798 79.417577 
L 227.398744 79.606127 
L 227.358999 79.544316 
L 227.080699 78.160623 
L 227.001209 78.295967 
L 226.563846 79.495198 
L 226.5241 79.500919 
L 226.404865 78.856359 
L 226.08682 76.842256 
L 225.967584 76.718864 
L 225.927839 76.741998 
L 225.80852 76.742124 
L 225.569966 76.517233 
L 225.45073 76.570206 
L 225.410985 76.523616 
L 225.212176 76.202074 
L 225.172431 76.275551 
L 224.894131 77.586272 
L 224.81464 77.358311 
L 224.45685 75.688147 
L 224.337614 75.772871 
L 224.138805 76.145167 
L 224.09906 76.105891 
L 223.900251 75.367208 
L 223.701525 75.039758 
L 223.542461 75.349321 
L 223.303989 75.699513 
L 223.10518 75.458219 
L 222.866626 75.303383 
L 222.469091 75.29026 
L 222.349855 75.487985 
L 222.111301 76.15855 
L 222.071555 76.135214 
L 221.952319 76.073975 
L 221.753511 76.429149 
L 221.713765 76.350056 
L 221.31623 75.055882 
L 221.077676 74.996071 
L 220.918694 74.987094 
L 220.799376 75.453655 
L 220.60065 76.593344 
L 220.560904 76.579005 
L 220.401841 75.73985 
L 220.004305 74.129027 
L 219.765751 73.943311 
L 219.60677 73.990829 
L 219.209234 74.385358 
L 218.97068 74.341541 
L 218.811699 74.705559 
L 218.533399 75.686829 
L 218.493654 75.616358 
L 218.096036 74.010748 
L 218.016546 74.099947 
L 217.658756 74.607491 
L 217.141984 74.508096 
L 216.823939 75.38693 
L 216.744366 75.312021 
L 216.54564 75.126411 
L 216.26734 75.225745 
L 215.949296 74.842623 
L 215.710741 74.504638 
L 215.313206 74.911202 
L 215.114479 75.052433 
L 214.796435 74.96424 
L 214.47839 75.401481 
L 214.398899 75.321739 
L 214.239836 75.308923 
L 214.1206 75.395556 
L 214.080854 75.355658 
L 213.882045 74.696962 
L 213.603746 74.100174 
L 213.444765 74.123964 
L 213.166465 74.214232 
L 212.84842 73.749508 
L 212.76893 73.871943 
L 212.450885 74.8806 
L 212.371394 74.797018 
L 212.05335 74.383121 
L 211.894286 74.529381 
L 211.735305 74.628669 
L 211.019724 74.051804 
L 210.979979 74.108501 
L 210.741425 75.040919 
L 210.463125 75.759612 
L 210.34389 75.565793 
L 210.025845 74.417643 
L 209.946354 74.506469 
L 209.668055 75.185182 
L 209.628309 75.146759 
L 209.270519 74.763428 
L 208.71392 74.66774 
L 208.594684 74.935019 
L 208.435621 75.307162 
L 208.395875 75.277092 
L 208.157321 74.907353 
L 208.117576 74.95503 
L 207.879104 75.147452 
L 207.481486 75.046065 
L 207.00446 75.3796 
L 206.845396 75.460703 
L 206.527434 75.823011 
L 206.209389 75.897183 
L 205.851599 75.898653 
L 205.613045 75.713063 
L 205.414236 75.875838 
L 204.93721 76.598473 
L 204.778146 76.620275 
L 204.340866 77.286575 
L 204.022821 77.437867 
L 203.784267 77.401426 
L 203.545795 77.338837 
L 203.148259 76.910474 
L 202.631406 75.835276 
L 202.59166 75.858959 
L 202.392851 75.94787 
L 201.995316 75.619411 
L 201.756844 75.707456 
L 201.319481 75.318232 
L 201.081009 75.625448 
L 200.921946 75.778007 
L 200.8822 75.744383 
L 200.484665 75.309536 
L 200.126875 75.422903 
L 200.007556 75.42076 
L 199.649766 75.098016 
L 199.17274 75.352815 
L 199.013677 75.250688 
L 198.536651 74.838107 
L 198.417415 75.013969 
L 198.019797 75.773234 
L 197.860816 75.722923 
L 197.622261 75.606531 
L 197.304217 75.828485 
L 197.264471 75.768207 
L 196.866936 75.125792 
L 196.310337 75.452083 
L 195.992374 75.303841 
L 195.833311 75.572604 
L 195.475521 76.563215 
L 195.435775 76.542261 
L 195.31654 76.298866 
L 195.03824 75.39815 
L 194.998495 75.430341 
L 194.561132 76.163463 
L 194.521386 76.126728 
L 194.32266 75.805457 
L 194.282914 75.844281 
L 194.004615 76.263872 
L 193.96487 76.239531 
L 193.567252 75.942883 
L 193.289035 76.467795 
L 193.209544 76.303001 
L 193.010735 75.851352 
L 192.97099 75.884925 
L 192.732436 76.182374 
L 192.414391 75.672241 
L 192.3349 75.73539 
L 191.97711 76.103702 
L 191.778301 76.518175 
L 191.738556 76.50287 
L 191.579575 76.029681 
L 191.460256 75.831456 
L 191.420511 75.879304 
L 191.181957 76.28996 
L 191.142212 76.263395 
L 190.824249 75.914137 
L 190.784421 75.961032 
L 190.506204 76.226569 
L 190.386886 76.27831 
L 190.108586 76.523064 
L 189.790542 76.308834 
L 189.234025 76.695877 
L 189.035216 76.712185 
L 188.83649 76.722381 
L 188.55819 76.55798 
L 188.279891 76.759851 
L 187.723291 76.108089 
L 187.12703 76.472204 
L 186.928221 76.301337 
L 186.649921 75.912845 
L 186.053659 76.031845 
L 185.85485 75.950659 
L 185.536805 76.290687 
L 185.49706 76.233724 
L 185.218761 75.868033 
L 185.059779 75.859505 
L 184.78148 75.643982 
L 184.622416 75.603496 
L 184.383862 75.439231 
L 184.026072 75.60694 
L 183.708027 75.875853 
L 183.350319 75.762623 
L 183.111765 76.009222 
L 182.873211 76.220824 
L 182.634657 76.226866 
L 182.43593 76.622941 
L 182.038395 77.385157 
L 180.72647 79.76946 
L 180.448171 79.965553 
L 180.090381 79.750427 
L 179.891572 80.117432 
L 179.613272 80.456945 
L 179.414546 80.330696 
L 179.255482 79.959435 
L 178.977265 78.822736 
L 178.937437 78.860739 
L 178.778456 79.682024 
L 178.380921 81.768495 
L 178.221857 81.858282 
L 177.983385 81.814598 
L 177.784576 81.705258 
L 177.347296 81.299335 
L 176.910015 79.624614 
L 176.194435 76.48351 
L 175.95588 76.067237 
L 175.5186 75.962019 
L 175.280045 75.914947 
L 175.041491 75.923997 
L 174.60421 76.150125 
L 174.365656 76.130669 
L 173.332031 76.855183 
L 173.093477 77.040432 
L 172.735687 76.978897 
L 172.417642 76.83362 
L 172.17917 77.124122 
L 171.861125 77.46412 
L 171.622571 77.378486 
L 171.225036 77.705175 
L 171.026227 77.724774 
L 170.787755 77.784375 
L 170.588946 77.802985 
L 170.270901 78.069543 
L 170.032347 78.003378 
L 169.714302 78.289684 
L 169.356512 78.197515 
L 169.11804 78.353712 
L 168.640932 78.978913 
L 168.561441 78.907974 
L 168.362715 78.82558 
L 168.163906 79.071888 
L 167.76637 79.638374 
L 167.607307 79.705213 
L 166.613427 80.810484 
L 165.97742 81.341416 
L 165.659375 81.362311 
L 164.903967 81.90456 
L 164.705241 81.88617 
L 164.188387 81.60345 
L 163.830597 81.611193 
L 163.512552 81.161669 
L 163.472807 81.193024 
L 163.194507 81.407535 
L 162.995781 81.183715 
L 162.796972 81.026488 
L 162.478927 81.014721 
L 161.962155 80.819341 
L 161.683856 80.929 
L 160.968276 80.466001 
L 160.689976 80.318301 
L 160.49125 80.509572 
L 160.21295 80.690222 
L 159.934651 80.651944 
L 159.457542 80.615267 
L 159.139497 80.635259 
L 158.344426 80.008505 
L 157.589101 80.004922 
L 157.072247 79.501326 
L 156.833775 79.525954 
L 156.634966 79.438718 
L 156.277176 79.250973 
L 155.959132 79.246341 
L 155.641087 79.087293 
L 155.402615 78.931881 
L 154.846016 78.412419 
L 154.44848 78.355163 
L 154.249672 78.026806 
L 153.494346 76.375084 
L 153.295537 76.254246 
L 153.176301 76.521811 
L 152.659447 78.154573 
L 152.142676 78.392667 
L 151.745141 78.418589 
L 151.466841 78.399598 
L 151.228287 78.420647 
L 151.069306 78.36485 
L 150.870497 78.259842 
L 150.115171 78.913843 
L 149.518827 79.696131 
L 149.200782 79.784502 
L 148.96231 79.893603 
L 148.286475 80.557898 
L 146.89506 82.228022 
L 144.907301 87.752976 
L 144.350702 89.601166 
L 143.237586 94.208866 
L 142.323197 98.557462 
L 141.051017 110.104888 
L 140.534246 117.025876 
L 140.017392 127.061565 
L 139.42113 137.990917 
L 139.301812 138.417476 
L 139.262067 138.332723 
L 139.142831 137.332544 
L 138.944022 132.944643 
L 138.586232 118.271612 
L 137.592352 70.092912 
L 137.512862 70.805367 
L 137.353798 76.161486 
L 136.837027 94.818759 
L 136.518982 98.255621 
L 136.161192 99.642931 
L 135.684166 100.96127 
L 134.968503 103.713015 
L 134.610713 104.011471 
L 134.491477 103.92091 
L 134.292668 103.383506 
L 133.93496 101.647235 
L 133.656661 98.96075 
L 133.219298 94.681529 
L 132.901253 93.646532 
L 132.821762 93.683027 
L 132.702526 94.163183 
L 132.463972 95.454842 
L 132.424227 95.363628 
L 132.304991 94.040572 
L 132.066437 87.194785 
L 131.668901 76.857811 
L 131.629156 76.863473 
L 131.509838 78.286459 
L 131.271366 85.964143 
L 130.158168 128.822531 
L 129.879951 132.153616 
L 129.720887 132.543481 
L 129.601651 132.322744 
L 129.402842 131.093462 
L 128.011427 119.582124 
L 127.653637 118.934798 
L 126.739248 117.032259 
L 126.381458 115.004119 
L 125.626132 108.385603 
L 124.950297 102.998156 
L 124.234717 98.64122 
L 122.962538 91.60128 
L 122.843302 91.680022 
L 122.565002 92.246813 
L 121.769931 95.056757 
L 121.571122 95.181019 
L 120.656733 94.746561 
L 120.219452 94.390747 
L 119.861662 94.565072 
L 119.742426 94.736245 
L 118.828037 97.017861 
L 118.549738 97.065087 
L 118.311266 97.187665 
L 118.112457 97.192992 
L 117.953476 97.600186 
L 117.516113 99.641274 
L 117.158323 100.9248 
L 116.641551 101.991377 
L 115.965716 104.088043 
L 113.381612 112.651613 
L 112.904586 114.586048 
L 112.228751 117.676029 
L 109.247112 132.934506 
L 108.611023 136.983799 
L 107.736379 142.075412 
L 106.504027 149.538163 
L 105.907683 152.089909 
L 105.470402 154.587469 
L 104.754822 158.265341 
L 103.204343 164.708426 
L 103.045362 164.99669 
L 102.449017 166.715805 
L 102.210463 167.407462 
L 101.773182 168.758446 
L 101.534628 169.241838 
L 101.256411 169.757509 
L 101.097348 170.088308 
L 100.858793 170.449928 
L 100.699812 170.657257 
L 100.302277 171.284133 
L 99.944487 171.344377 
L 99.109588 172.081632 
L 98.910862 172.024099 
L 98.433753 171.794165 
L 98.274772 171.853343 
L 97.837491 171.380388 
L 97.638682 171.056465 
L 97.280892 170.518974 
L 97.121828 170.400561 
L 96.525567 168.658225 
L 96.207522 167.807979 
L 95.968968 167.369407 
L 95.491942 166.101384 
L 95.332878 165.640432 
L 92.271748 150.647182 
L 91.039314 143.922076 
L 90.761097 142.571598 
L 90.045517 138.184504 
L 89.727472 136.680015 
L 88.495038 130.174525 
L 88.057757 128.307519 
L 87.660222 125.930151 
L 85.553144 115.457094 
L 82.213797 100.34072 
L 81.776434 99.214033 
L 81.537962 97.974879 
L 81.140426 96.077751 
L 80.862127 95.087657 
L 80.385018 93.571309 
L 79.828502 91.953231 
L 79.232158 89.436542 
L 79.033349 89.109205 
L 78.755132 89.149331 
L 78.556323 89.524744 
L 78.516577 89.449634 
L 78.357514 88.281665 
L 78.079297 86.532635 
L 77.721424 85.43255 
L 77.443207 84.855257 
L 77.125162 84.747884 
L 77.005844 84.932593 
L 76.846863 85.312155 
L 76.807117 85.275835 
L 76.687881 84.617013 
L 76.409582 83.220733 
L 76.250518 83.171225 
L 75.455447 81.567082 
L 75.375957 81.676247 
L 75.137403 82.247772 
L 75.097657 82.198138 
L 74.779612 81.725313 
L 74.660377 81.532725 
L 74.421822 80.930628 
L 74.183268 81.387101 
L 74.143523 81.32369 
L 73.745987 79.985486 
L 73.666497 80.109908 
L 73.427943 81.434896 
L 73.348452 81.225431 
L 72.990662 79.399153 
L 72.632872 78.263779 
L 72.553299 78.312099 
L 72.116018 79.028427 
L 71.797973 81.303171 
L 71.758228 81.169147 
L 71.360692 78.649211 
L 71.281202 78.714327 
L 71.201629 78.797858 
L 71.161883 78.768039 
L 71.042648 78.283734 
L 70.804093 77.380887 
L 70.684857 77.451168 
L 70.327067 78.099406 
L 70.048768 79.422213 
L 69.969277 79.345898 
L 69.849959 79.187536 
L 69.810214 79.251802 
L 69.611487 79.975584 
L 69.571742 79.898444 
L 69.372933 78.219248 
L 69.134379 77.063599 
L 68.975397 76.875696 
L 68.856079 77.098863 
L 68.617607 78.134086 
L 68.458544 78.693754 
L 68.418798 78.666509 
L 68.259817 78.051531 
L 67.862282 76.519303 
L 67.742963 76.515565 
L 67.623728 76.828199 
L 67.385173 77.791926 
L 67.345428 77.76806 
L 67.106874 77.127219 
L 67.027383 77.303819 
L 66.669593 79.207337 
L 66.590103 79.021798 
L 66.232312 77.217533 
L 66.192567 77.23575 
L 65.993758 77.624839 
L 65.635968 78.551163 
L 65.596223 78.494085 
L 65.198687 77.524704 
L 65.158942 77.595268 
L 64.999878 78.509105 
L 64.681834 80.683352 
L 64.602343 80.495181 
L 64.284298 78.414507 
L 64.244553 78.46951 
L 64.085489 79.369006 
L 63.926508 80.489196 
L 63.886763 80.4804 
L 63.608463 78.919192 
L 63.528973 79.19048 
L 63.369991 79.604408 
L 63.250673 79.275416 
L 62.892883 78.083104 
L 62.694074 77.950059 
L 62.336284 77.282461 
L 62.296539 77.32406 
L 62.018239 77.637687 
L 61.779767 77.615822 
L 61.382232 76.723705 
L 61.024359 76.899049 
L 60.865378 76.970407 
L 60.587079 76.839534 
L 60.467843 76.743345 
L 60.110053 76.266277 
L 59.950989 76.376267 
L 59.792008 76.797662 
L 59.195663 79.0292 
L 59.155918 79.053062 
L 59.116173 78.968581 
L 58.798128 77.99994 
L 58.718637 77.87569 
L 58.400593 76.639217 
L 58.360847 76.688699 
L 58.201784 77.260661 
L 57.923484 78.553513 
L 57.883739 78.542902 
L 57.764503 78.597276 
L 57.605522 79.023399 
L 57.565694 78.988772 
L 57.009177 77.423508 
L 56.889859 77.447752 
L 56.691133 77.915416 
L 56.253769 79.54076 
L 56.174279 79.437307 
L 55.935725 78.423803 
L 55.617762 77.427607 
L 55.498444 77.353442 
L 55.458699 77.391585 
L 55.339463 77.773617 
L 55.100908 79.58013 
L 54.902182 80.740965 
L 54.782864 79.922491 
L 54.464819 77.578401 
L 54.385328 77.441941 
L 54.345583 77.474303 
L 53.709493 79.254115 
L 53.55043 79.854516 
L 53.510767 79.762551 
L 53.033658 77.873011 
L 52.954168 77.79455 
L 52.914422 77.86074 
L 52.636123 78.897725 
L 52.556632 78.80951 
L 52.437314 78.715815 
L 52.238587 79.060708 
L 52.198842 79.009081 
L 51.960288 78.385432 
L 51.920543 78.449323 
L 51.721734 78.802953 
L 51.562753 78.311839 
L 51.403689 77.970252 
L 51.363944 77.988502 
L 51.244708 78.284936 
L 50.886918 79.463836 
L 50.767599 79.307476 
L 50.568873 78.486793 
L 50.290573 77.496352 
L 49.932783 77.439916 
L 49.654484 78.283229 
L 49.574993 78.2003 
L 49.336439 77.941512 
L 48.938903 78.019098 
L 48.740177 77.756223 
L 48.700349 77.784448 
L 48.461877 78.185879 
L 48.382304 78.080788 
L 48.024514 77.343326 
L 47.865533 77.286687 
L 47.666724 77.634627 
L 47.507743 77.751918 
L 47.189698 77.717863 
L 47.030634 77.674108 
L 46.633099 77.214776 
L 46.394545 77.446224 
L 45.957264 77.94095 
L 45.917519 77.897488 
L 45.639219 77.182485 
L 45.559729 77.245327 
L 44.764658 77.90214 
L 44.565849 77.523616 
L 44.208059 77.105736 
L 44.088823 77.142322 
L 43.611714 78.141695 
L 42.856389 77.630292 
L 42.776898 77.646737 
L 42.776898 77.646737 
" clip-path="url(#p644235b55c)" style="fill: none; stroke: #1f77b4; stroke-width: 1.5; stroke-linecap: square"/>
   </g>
   <g id="patch_3">
    <path d="M 28.942188 354.958125 
L 28.942188 22.318125 
" style="fill: none; stroke: #000000; stroke-width: 0.8; stroke-linejoin: miter; stroke-linecap: square"/>
   </g>
   <g id="patch_4">
    <path d="M 333.305824 354.958125 
L 333.305824 22.318125 
" style="fill: none; stroke: #000000; stroke-width: 0.8; stroke-linejoin: miter; stroke-linecap: square"/>
   </g>
   <g id="patch_5">
    <path d="M 28.942187 354.958125 
L 333.305824 354.958125 
" style="fill: none; stroke: #000000; stroke-width: 0.8; stroke-linejoin: miter; stroke-linecap: square"/>
   </g>
   <g id="patch_6">
    <path d="M 28.942187 22.318125 
L 333.305824 22.318125 
" style="fill: none; stroke: #000000; stroke-width: 0.8; stroke-linejoin: miter; stroke-linecap: square"/>
   </g>
   <g id="text_16">
    <!-- Extracted Methanol Spectrum -->
    <g transform="translate(91.404318 16.318125) scale(0.12 -0.12)">
     <defs>
      <path id="DejaVuSans-45" d="M 628 4666 
L 3578 4666 
L 3578 4134 
L 1259 4134 
L 1259 2753 
L 3481 2753 
L 3481 2222 
L 1259 2222 
L 1259 531 
L 3634 531 
L 3634 0 
L 628 0 
L 628 4666 
z
" transform="scale(0.015625)"/>
      <path id="DejaVuSans-78" d="M 3513 3500 
L 2247 1797 
L 3578 0 
L 2900 0 
L 1881 1375 
L 863 0 
L 184 0 
L 1544 1831 
L 300 3500 
L 978 3500 
L 1906 2253 
L 2834 3500 
L 3513 3500 
z
" transform="scale(0.015625)"/>
      <path id="DejaVuSans-74" d="M 1172 4494 
L 1172 3500 
L 2356 3500 
L 2356 3053 
L 1172 3053 
L 1172 1153 
Q 1172 725 1289 603 
Q 1406 481 1766 481 
L 2356 481 
L 2356 0 
L 1766 0 
Q 1100 0 847 248 
Q 594 497 594 1153 
L 594 3053 
L 172 3053 
L 172 3500 
L 594 3500 
L 594 4494 
L 1172 4494 
z
" transform="scale(0.015625)"/>
      <path id="DejaVuSans-64" d="M 2906 2969 
L 2906 4863 
L 3481 4863 
L 3481 0 
L 2906 0 
L 2906 525 
Q 2725 213 2448 61 
Q 2172 -91 1784 -91 
Q 1150 -91 751 415 
Q 353 922 353 1747 
Q 353 2572 751 3078 
Q 1150 3584 1784 3584 
Q 2172 3584 2448 3432 
Q 2725 3281 2906 2969 
z
M 947 1747 
Q 947 1113 1208 752 
Q 1469 391 1925 391 
Q 2381 391 2643 752 
Q 2906 1113 2906 1747 
Q 2906 2381 2643 2742 
Q 2381 3103 1925 3103 
Q 1469 3103 1208 2742 
Q 947 2381 947 1747 
z
" transform="scale(0.015625)"/>
      <path id="DejaVuSans-4d" d="M 628 4666 
L 1569 4666 
L 2759 1491 
L 3956 4666 
L 4897 4666 
L 4897 0 
L 4281 0 
L 4281 4097 
L 3078 897 
L 2444 897 
L 1241 4097 
L 1241 0 
L 628 0 
L 628 4666 
z
" transform="scale(0.015625)"/>
      <path id="DejaVuSans-68" d="M 3513 2113 
L 3513 0 
L 2938 0 
L 2938 2094 
Q 2938 2591 2744 2837 
Q 2550 3084 2163 3084 
Q 1697 3084 1428 2787 
Q 1159 2491 1159 1978 
L 1159 0 
L 581 0 
L 581 4863 
L 1159 4863 
L 1159 2956 
Q 1366 3272 1645 3428 
Q 1925 3584 2291 3584 
Q 2894 3584 3203 3211 
Q 3513 2838 3513 2113 
z
" transform="scale(0.015625)"/>
      <path id="DejaVuSans-6f" d="M 1959 3097 
Q 1497 3097 1228 2736 
Q 959 2375 959 1747 
Q 959 1119 1226 758 
Q 1494 397 1959 397 
Q 2419 397 2687 759 
Q 2956 1122 2956 1747 
Q 2956 2369 2687 2733 
Q 2419 3097 1959 3097 
z
M 1959 3584 
Q 2709 3584 3137 3096 
Q 3566 2609 3566 1747 
Q 3566 888 3137 398 
Q 2709 -91 1959 -91 
Q 1206 -91 779 398 
Q 353 888 353 1747 
Q 353 2609 779 3096 
Q 1206 3584 1959 3584 
z
" transform="scale(0.015625)"/>
      <path id="DejaVuSans-6c" d="M 603 4863 
L 1178 4863 
L 1178 0 
L 603 0 
L 603 4863 
z
" transform="scale(0.015625)"/>
      <path id="DejaVuSans-53" d="M 3425 4513 
L 3425 3897 
Q 3066 4069 2747 4153 
Q 2428 4238 2131 4238 
Q 1616 4238 1336 4038 
Q 1056 3838 1056 3469 
Q 1056 3159 1242 3001 
Q 1428 2844 1947 2747 
L 2328 2669 
Q 3034 2534 3370 2195 
Q 3706 1856 3706 1288 
Q 3706 609 3251 259 
Q 2797 -91 1919 -91 
Q 1588 -91 1214 -16 
Q 841 59 441 206 
L 441 856 
Q 825 641 1194 531 
Q 1563 422 1919 422 
Q 2459 422 2753 634 
Q 3047 847 3047 1241 
Q 3047 1584 2836 1778 
Q 2625 1972 2144 2069 
L 1759 2144 
Q 1053 2284 737 2584 
Q 422 2884 422 3419 
Q 422 4038 858 4394 
Q 1294 4750 2059 4750 
Q 2388 4750 2728 4690 
Q 3069 4631 3425 4513 
z
" transform="scale(0.015625)"/>
      <path id="DejaVuSans-70" d="M 1159 525 
L 1159 -1331 
L 581 -1331 
L 581 3500 
L 1159 3500 
L 1159 2969 
Q 1341 3281 1617 3432 
Q 1894 3584 2278 3584 
Q 2916 3584 3314 3078 
Q 3713 2572 3713 1747 
Q 3713 922 3314 415 
Q 2916 -91 2278 -91 
Q 1894 -91 1617 61 
Q 1341 213 1159 525 
z
M 3116 1747 
Q 3116 2381 2855 2742 
Q 2594 3103 2138 3103 
Q 1681 3103 1420 2742 
Q 1159 2381 1159 1747 
Q 1159 1113 1420 752 
Q 1681 391 2138 391 
Q 2594 391 2855 752 
Q 3116 1113 3116 1747 
z
" transform="scale(0.015625)"/>
     </defs>
     <use xlink:href="#DejaVuSans-45"/>
     <use xlink:href="#DejaVuSans-78" transform="translate(63.183594 0)"/>
     <use xlink:href="#DejaVuSans-74" transform="translate(122.363281 0)"/>
     <use xlink:href="#DejaVuSans-72" transform="translate(161.572266 0)"/>
     <use xlink:href="#DejaVuSans-61" transform="translate(202.685547 0)"/>
     <use xlink:href="#DejaVuSans-63" transform="translate(263.964844 0)"/>
     <use xlink:href="#DejaVuSans-74" transform="translate(318.945312 0)"/>
     <use xlink:href="#DejaVuSans-65" transform="translate(358.154297 0)"/>
     <use xlink:href="#DejaVuSans-64" transform="translate(419.677734 0)"/>
     <use xlink:href="#DejaVuSans-20" transform="translate(483.154297 0)"/>
     <use xlink:href="#DejaVuSans-4d" transform="translate(514.941406 0)"/>
     <use xlink:href="#DejaVuSans-65" transform="translate(601.220703 0)"/>
     <use xlink:href="#DejaVuSans-74" transform="translate(662.744141 0)"/>
     <use xlink:href="#DejaVuSans-68" transform="translate(701.953125 0)"/>
     <use xlink:href="#DejaVuSans-61" transform="translate(765.332031 0)"/>
     <use xlink:href="#DejaVuSans-6e" transform="translate(826.611328 0)"/>
     <use xlink:href="#DejaVuSans-6f" transform="translate(889.990234 0)"/>
     <use xlink:href="#DejaVuSans-6c" transform="translate(951.171875 0)"/>
     <use xlink:href="#DejaVuSans-20" transform="translate(978.955078 0)"/>
     <use xlink:href="#DejaVuSans-53" transform="translate(1010.742188 0)"/>
     <use xlink:href="#DejaVuSans-70" transform="translate(1074.21875 0)"/>
     <use xlink:href="#DejaVuSans-65" transform="translate(1137.695312 0)"/>
     <use xlink:href="#DejaVuSans-63" transform="translate(1199.21875 0)"/>
     <use xlink:href="#DejaVuSans-74" transform="translate(1254.199219 0)"/>
     <use xlink:href="#DejaVuSans-72" transform="translate(1293.408203 0)"/>
     <use xlink:href="#DejaVuSans-75" transform="translate(1334.521484 0)"/>
     <use xlink:href="#DejaVuSans-6d" transform="translate(1397.900391 0)"/>
    </g>
   </g>
  </g>
  <g id="axes_2">
   <g id="patch_7">
    <path d="M 394.178551 354.958125 
L 698.542187 354.958125 
L 698.542187 22.318125 
L 394.178551 22.318125 
z
" style="fill: #ffffff"/>
   </g>
   <g id="matplotlib.axis_3">
    <g id="xtick_9">
     <g id="line2d_16">
      <g>
       <use xlink:href="#m0b50d1e112" x="696.630241" y="354.958125" style="stroke: #000000; stroke-width: 0.8"/>
      </g>
     </g>
     <g id="text_17">
      <!-- 500 -->
      <g transform="translate(687.086491 369.556562) scale(0.1 -0.1)">
       <use xlink:href="#DejaVuSans-35"/>
       <use xlink:href="#DejaVuSans-30" transform="translate(63.623047 0)"/>
       <use xlink:href="#DejaVuSans-30" transform="translate(127.246094 0)"/>
      </g>
     </g>
    </g>
    <g id="xtick_10">
     <g id="line2d_17">
      <g>
       <use xlink:href="#m0b50d1e112" x="655.400681" y="354.958125" style="stroke: #000000; stroke-width: 0.8"/>
      </g>
     </g>
     <g id="text_18">
      <!-- 1000 -->
      <g transform="translate(642.675681 369.556562) scale(0.1 -0.1)">
       <use xlink:href="#DejaVuSans-31"/>
       <use xlink:href="#DejaVuSans-30" transform="translate(63.623047 0)"/>
       <use xlink:href="#DejaVuSans-30" transform="translate(127.246094 0)"/>
       <use xlink:href="#DejaVuSans-30" transform="translate(190.869141 0)"/>
      </g>
     </g>
    </g>
    <g id="xtick_11">
     <g id="line2d_18">
      <g>
       <use xlink:href="#m0b50d1e112" x="614.171121" y="354.958125" style="stroke: #000000; stroke-width: 0.8"/>
      </g>
     </g>
     <g id="text_19">
      <!-- 1500 -->
      <g transform="translate(601.446121 369.556562) scale(0.1 -0.1)">
       <use xlink:href="#DejaVuSans-31"/>
       <use xlink:href="#DejaVuSans-35" transform="translate(63.623047 0)"/>
       <use xlink:href="#DejaVuSans-30" transform="translate(127.246094 0)"/>
       <use xlink:href="#DejaVuSans-30" transform="translate(190.869141 0)"/>
      </g>
     </g>
    </g>
    <g id="xtick_12">
     <g id="line2d_19">
      <g>
       <use xlink:href="#m0b50d1e112" x="572.941561" y="354.958125" style="stroke: #000000; stroke-width: 0.8"/>
      </g>
     </g>
     <g id="text_20">
      <!-- 2000 -->
      <g transform="translate(560.216561 369.556562) scale(0.1 -0.1)">
       <use xlink:href="#DejaVuSans-32"/>
       <use xlink:href="#DejaVuSans-30" transform="translate(63.623047 0)"/>
       <use xlink:href="#DejaVuSans-30" transform="translate(127.246094 0)"/>
       <use xlink:href="#DejaVuSans-30" transform="translate(190.869141 0)"/>
      </g>
     </g>
    </g>
    <g id="xtick_13">
     <g id="line2d_20">
      <g>
       <use xlink:href="#m0b50d1e112" x="531.712001" y="354.958125" style="stroke: #000000; stroke-width: 0.8"/>
      </g>
     </g>
     <g id="text_21">
      <!-- 2500 -->
      <g transform="translate(518.987001 369.556562) scale(0.1 -0.1)">
       <use xlink:href="#DejaVuSans-32"/>
       <use xlink:href="#DejaVuSans-35" transform="translate(63.623047 0)"/>
       <use xlink:href="#DejaVuSans-30" transform="translate(127.246094 0)"/>
       <use xlink:href="#DejaVuSans-30" transform="translate(190.869141 0)"/>
      </g>
     </g>
    </g>
    <g id="xtick_14">
     <g id="line2d_21">
      <g>
       <use xlink:href="#m0b50d1e112" x="490.482442" y="354.958125" style="stroke: #000000; stroke-width: 0.8"/>
      </g>
     </g>
     <g id="text_22">
      <!-- 3000 -->
      <g transform="translate(477.757442 369.556562) scale(0.1 -0.1)">
       <use xlink:href="#DejaVuSans-33"/>
       <use xlink:href="#DejaVuSans-30" transform="translate(63.623047 0)"/>
       <use xlink:href="#DejaVuSans-30" transform="translate(127.246094 0)"/>
       <use xlink:href="#DejaVuSans-30" transform="translate(190.869141 0)"/>
      </g>
     </g>
    </g>
    <g id="xtick_15">
     <g id="line2d_22">
      <g>
       <use xlink:href="#m0b50d1e112" x="449.252882" y="354.958125" style="stroke: #000000; stroke-width: 0.8"/>
      </g>
     </g>
     <g id="text_23">
      <!-- 3500 -->
      <g transform="translate(436.527882 369.556562) scale(0.1 -0.1)">
       <use xlink:href="#DejaVuSans-33"/>
       <use xlink:href="#DejaVuSans-35" transform="translate(63.623047 0)"/>
       <use xlink:href="#DejaVuSans-30" transform="translate(127.246094 0)"/>
       <use xlink:href="#DejaVuSans-30" transform="translate(190.869141 0)"/>
      </g>
     </g>
    </g>
    <g id="xtick_16">
     <g id="line2d_23">
      <g>
       <use xlink:href="#m0b50d1e112" x="408.023322" y="354.958125" style="stroke: #000000; stroke-width: 0.8"/>
      </g>
     </g>
     <g id="text_24">
      <!-- 4000 -->
      <g transform="translate(395.298322 369.556562) scale(0.1 -0.1)">
       <use xlink:href="#DejaVuSans-34"/>
       <use xlink:href="#DejaVuSans-30" transform="translate(63.623047 0)"/>
       <use xlink:href="#DejaVuSans-30" transform="translate(127.246094 0)"/>
       <use xlink:href="#DejaVuSans-30" transform="translate(190.869141 0)"/>
      </g>
     </g>
    </g>
    <g id="text_25">
     <!-- Wavenumbers, cm$^{-1}$ -->
     <g transform="translate(494.010369 383.756562) scale(0.1 -0.1)">
      <use xlink:href="#DejaVuSans-57" transform="translate(0 0.684375)"/>
      <use xlink:href="#DejaVuSans-61" transform="translate(98.876953 0.684375)"/>
      <use xlink:href="#DejaVuSans-76" transform="translate(160.15625 0.684375)"/>
      <use xlink:href="#DejaVuSans-65" transform="translate(219.335938 0.684375)"/>
      <use xlink:href="#DejaVuSans-6e" transform="translate(280.859375 0.684375)"/>
      <use xlink:href="#DejaVuSans-75" transform="translate(344.238281 0.684375)"/>
      <use xlink:href="#DejaVuSans-6d" transform="translate(407.617188 0.684375)"/>
      <use xlink:href="#DejaVuSans-62" transform="translate(505.029297 0.684375)"/>
      <use xlink:href="#DejaVuSans-65" transform="translate(568.505859 0.684375)"/>
      <use xlink:href="#DejaVuSans-72" transform="translate(630.029297 0.684375)"/>
      <use xlink:href="#DejaVuSans-73" transform="translate(671.142578 0.684375)"/>
      <use xlink:href="#DejaVuSans-2c" transform="translate(723.242188 0.684375)"/>
      <use xlink:href="#DejaVuSans-20" transform="translate(755.029297 0.684375)"/>
      <use xlink:href="#DejaVuSans-63" transform="translate(786.816406 0.684375)"/>
      <use xlink:href="#DejaVuSans-6d" transform="translate(841.796875 0.684375)"/>
      <use xlink:href="#DejaVuSans-2212" transform="translate(940.166016 38.965625) scale(0.7)"/>
      <use xlink:href="#DejaVuSans-31" transform="translate(998.818359 38.965625) scale(0.7)"/>
     </g>
    </g>
   </g>
   <g id="matplotlib.axis_4">
    <g id="ytick_7">
     <g id="line2d_24">
      <g>
       <use xlink:href="#m267071738a" x="394.178551" y="336.150987" style="stroke: #000000; stroke-width: 0.8"/>
      </g>
     </g>
     <g id="text_26">
      <!-- 30 -->
      <g transform="translate(374.453551 339.950205) scale(0.1 -0.1)">
       <use xlink:href="#DejaVuSans-33"/>
       <use xlink:href="#DejaVuSans-30" transform="translate(63.623047 0)"/>
      </g>
     </g>
    </g>
    <g id="ytick_8">
     <g id="line2d_25">
      <g>
       <use xlink:href="#m267071738a" x="394.178551" y="293.250347" style="stroke: #000000; stroke-width: 0.8"/>
      </g>
     </g>
     <g id="text_27">
      <!-- 40 -->
      <g transform="translate(374.453551 297.049566) scale(0.1 -0.1)">
       <use xlink:href="#DejaVuSans-34"/>
       <use xlink:href="#DejaVuSans-30" transform="translate(63.623047 0)"/>
      </g>
     </g>
    </g>
    <g id="ytick_9">
     <g id="line2d_26">
      <g>
       <use xlink:href="#m267071738a" x="394.178551" y="250.349708" style="stroke: #000000; stroke-width: 0.8"/>
      </g>
     </g>
     <g id="text_28">
      <!-- 50 -->
      <g transform="translate(374.453551 254.148927) scale(0.1 -0.1)">
       <use xlink:href="#DejaVuSans-35"/>
       <use xlink:href="#DejaVuSans-30" transform="translate(63.623047 0)"/>
      </g>
     </g>
    </g>
    <g id="ytick_10">
     <g id="line2d_27">
      <g>
       <use xlink:href="#m267071738a" x="394.178551" y="207.449069" style="stroke: #000000; stroke-width: 0.8"/>
      </g>
     </g>
     <g id="text_29">
      <!-- 60 -->
      <g transform="translate(374.453551 211.248287) scale(0.1 -0.1)">
       <use xlink:href="#DejaVuSans-36"/>
       <use xlink:href="#DejaVuSans-30" transform="translate(63.623047 0)"/>
      </g>
     </g>
    </g>
    <g id="ytick_11">
     <g id="line2d_28">
      <g>
       <use xlink:href="#m267071738a" x="394.178551" y="164.548429" style="stroke: #000000; stroke-width: 0.8"/>
      </g>
     </g>
     <g id="text_30">
      <!-- 70 -->
      <g transform="translate(374.453551 168.347648) scale(0.1 -0.1)">
       <defs>
        <path id="DejaVuSans-37" d="M 525 4666 
L 3525 4666 
L 3525 4397 
L 1831 0 
L 1172 0 
L 2766 4134 
L 525 4134 
L 525 4666 
z
" transform="scale(0.015625)"/>
       </defs>
       <use xlink:href="#DejaVuSans-37"/>
       <use xlink:href="#DejaVuSans-30" transform="translate(63.623047 0)"/>
      </g>
     </g>
    </g>
    <g id="ytick_12">
     <g id="line2d_29">
      <g>
       <use xlink:href="#m267071738a" x="394.178551" y="121.64779" style="stroke: #000000; stroke-width: 0.8"/>
      </g>
     </g>
     <g id="text_31">
      <!-- 80 -->
      <g transform="translate(374.453551 125.447009) scale(0.1 -0.1)">
       <use xlink:href="#DejaVuSans-38"/>
       <use xlink:href="#DejaVuSans-30" transform="translate(63.623047 0)"/>
      </g>
     </g>
    </g>
    <g id="ytick_13">
     <g id="line2d_30">
      <g>
       <use xlink:href="#m267071738a" x="394.178551" y="78.747151" style="stroke: #000000; stroke-width: 0.8"/>
      </g>
     </g>
     <g id="text_32">
      <!-- 90 -->
      <g transform="translate(374.453551 82.546369) scale(0.1 -0.1)">
       <defs>
        <path id="DejaVuSans-39" d="M 703 97 
L 703 672 
Q 941 559 1184 500 
Q 1428 441 1663 441 
Q 2288 441 2617 861 
Q 2947 1281 2994 2138 
Q 2813 1869 2534 1725 
Q 2256 1581 1919 1581 
Q 1219 1581 811 2004 
Q 403 2428 403 3163 
Q 403 3881 828 4315 
Q 1253 4750 1959 4750 
Q 2769 4750 3195 4129 
Q 3622 3509 3622 2328 
Q 3622 1225 3098 567 
Q 2575 -91 1691 -91 
Q 1453 -91 1209 -44 
Q 966 3 703 97 
z
M 1959 2075 
Q 2384 2075 2632 2365 
Q 2881 2656 2881 3163 
Q 2881 3666 2632 3958 
Q 2384 4250 1959 4250 
Q 1534 4250 1286 3958 
Q 1038 3666 1038 3163 
Q 1038 2656 1286 2365 
Q 1534 2075 1959 2075 
z
" transform="scale(0.015625)"/>
       </defs>
       <use xlink:href="#DejaVuSans-39"/>
       <use xlink:href="#DejaVuSans-30" transform="translate(63.623047 0)"/>
      </g>
     </g>
    </g>
    <g id="ytick_14">
     <g id="line2d_31">
      <g>
       <use xlink:href="#m267071738a" x="394.178551" y="35.846511" style="stroke: #000000; stroke-width: 0.8"/>
      </g>
     </g>
     <g id="text_33">
      <!-- 100 -->
      <g transform="translate(368.091051 39.64573) scale(0.1 -0.1)">
       <use xlink:href="#DejaVuSans-31"/>
       <use xlink:href="#DejaVuSans-30" transform="translate(63.623047 0)"/>
       <use xlink:href="#DejaVuSans-30" transform="translate(127.246094 0)"/>
      </g>
     </g>
    </g>
    <g id="text_34">
     <!-- Transmittance, % -->
     <g transform="translate(362.011364 232.014687) rotate(-90) scale(0.1 -0.1)">
      <defs>
       <path id="DejaVuSans-54" d="M -19 4666 
L 3928 4666 
L 3928 4134 
L 2272 4134 
L 2272 0 
L 1638 0 
L 1638 4134 
L -19 4134 
L -19 4666 
z
" transform="scale(0.015625)"/>
       <path id="DejaVuSans-69" d="M 603 3500 
L 1178 3500 
L 1178 0 
L 603 0 
L 603 3500 
z
M 603 4863 
L 1178 4863 
L 1178 4134 
L 603 4134 
L 603 4863 
z
" transform="scale(0.015625)"/>
       <path id="DejaVuSans-25" d="M 4653 2053 
Q 4381 2053 4226 1822 
Q 4072 1591 4072 1178 
Q 4072 772 4226 539 
Q 4381 306 4653 306 
Q 4919 306 5073 539 
Q 5228 772 5228 1178 
Q 5228 1588 5073 1820 
Q 4919 2053 4653 2053 
z
M 4653 2450 
Q 5147 2450 5437 2106 
Q 5728 1763 5728 1178 
Q 5728 594 5436 251 
Q 5144 -91 4653 -91 
Q 4153 -91 3862 251 
Q 3572 594 3572 1178 
Q 3572 1766 3864 2108 
Q 4156 2450 4653 2450 
z
M 1428 4353 
Q 1159 4353 1004 4120 
Q 850 3888 850 3481 
Q 850 3069 1003 2837 
Q 1156 2606 1428 2606 
Q 1700 2606 1854 2837 
Q 2009 3069 2009 3481 
Q 2009 3884 1853 4118 
Q 1697 4353 1428 4353 
z
M 4250 4750 
L 4750 4750 
L 1831 -91 
L 1331 -91 
L 4250 4750 
z
M 1428 4750 
Q 1922 4750 2215 4408 
Q 2509 4066 2509 3481 
Q 2509 2891 2217 2550 
Q 1925 2209 1428 2209 
Q 931 2209 642 2551 
Q 353 2894 353 3481 
Q 353 4063 643 4406 
Q 934 4750 1428 4750 
z
" transform="scale(0.015625)"/>
      </defs>
      <use xlink:href="#DejaVuSans-54"/>
      <use xlink:href="#DejaVuSans-72" transform="translate(46.333984 0)"/>
      <use xlink:href="#DejaVuSans-61" transform="translate(87.447266 0)"/>
      <use xlink:href="#DejaVuSans-6e" transform="translate(148.726562 0)"/>
      <use xlink:href="#DejaVuSans-73" transform="translate(212.105469 0)"/>
      <use xlink:href="#DejaVuSans-6d" transform="translate(264.205078 0)"/>
      <use xlink:href="#DejaVuSans-69" transform="translate(361.617188 0)"/>
      <use xlink:href="#DejaVuSans-74" transform="translate(389.400391 0)"/>
      <use xlink:href="#DejaVuSans-74" transform="translate(428.609375 0)"/>
      <use xlink:href="#DejaVuSans-61" transform="translate(467.818359 0)"/>
      <use xlink:href="#DejaVuSans-6e" transform="translate(529.097656 0)"/>
      <use xlink:href="#DejaVuSans-63" transform="translate(592.476562 0)"/>
      <use xlink:href="#DejaVuSans-65" transform="translate(647.457031 0)"/>
      <use xlink:href="#DejaVuSans-2c" transform="translate(708.980469 0)"/>
      <use xlink:href="#DejaVuSans-20" transform="translate(740.767578 0)"/>
      <use xlink:href="#DejaVuSans-25" transform="translate(772.554688 0)"/>
     </g>
    </g>
   </g>
   <g id="line2d_32">
    <path d="M 684.707477 150.70169 
L 684.627961 150.721768 
L 684.468947 151.436278 
L 684.270171 151.945766 
L 684.150902 151.859278 
L 684.031642 151.712086 
L 683.991888 151.753571 
L 683.673843 152.285196 
L 683.196784 152.501072 
L 683.077524 152.679753 
L 682.918501 153.873377 
L 682.799241 154.374199 
L 682.640218 153.1064 
L 682.401689 151.843062 
L 682.163159 151.530917 
L 681.169288 147.937817 
L 679.459828 138.541933 
L 678.8635 135.770166 
L 677.15404 126.653394 
L 675.961393 119.84991 
L 673.178546 105.313372 
L 672.502711 101.587365 
L 670.952273 93.725137 
L 668.129673 81.294119 
L 666.380459 75.706654 
L 665.227565 73.027594 
L 664.511977 72.139122 
L 663.716881 71.466097 
L 662.524234 71.098996 
L 662.007413 71.27077 
L 661.649623 71.62247 
L 661.013541 72.486489 
L 659.78114 75.743934 
L 659.264328 78.112436 
L 658.628246 81.904981 
L 657.992173 87.444826 
L 657.435599 94.519871 
L 656.95854 103.222094 
L 656.441727 117.439237 
L 656.004422 135.871197 
L 655.567125 163.907022 
L 655.090058 210.051078 
L 654.056432 315.204492 
L 653.658897 338.512967 
L 653.539661 339.838125 
L 653.460088 338.616057 
L 653.301107 330.974295 
L 652.983062 300.61317 
L 651.909692 163.91646 
L 651.392838 112.249933 
L 650.995303 92.767637 
L 650.597767 82.778695 
L 650.160486 76.974668 
L 649.762869 74.223407 
L 649.325588 72.630806 
L 649.007543 72.279193 
L 648.808817 72.290862 
L 648.570262 72.591981 
L 648.331708 73.290833 
L 647.814937 75.838745 
L 647.298083 79.227681 
L 646.264458 86.953357 
L 646.025904 87.573828 
L 645.866923 87.544527 
L 645.707859 87.18605 
L 645.469387 85.895041 
L 645.111597 82.378818 
L 643.600863 65.050907 
L 643.163583 62.809949 
L 642.606984 61.215247 
L 642.129958 60.379971 
L 641.414377 59.629425 
L 640.897524 59.359622 
L 640.380752 59.37867 
L 639.903644 59.913856 
L 639.585682 60.755523 
L 639.108573 62.492399 
L 638.631547 64.070584 
L 638.392993 64.333008 
L 638.234012 64.211728 
L 637.995457 64.043343 
L 637.876222 64.243174 
L 637.677413 65.334309 
L 637.518349 65.998239 
L 637.478604 65.928225 
L 637.319622 64.64215 
L 637.081068 63.22467 
L 636.961832 63.570578 
L 636.643788 64.563599 
L 636.484724 64.525374 
L 636.325743 64.151195 
L 636.007698 62.528349 
L 635.451099 59.952638 
L 635.013818 59.192782 
L 634.656028 59.161207 
L 634.298238 59.192911 
L 633.821212 59.253958 
L 633.224867 59.74161 
L 632.906823 59.960446 
L 632.628523 60.128102 
L 632.111752 60.600909 
L 630.720337 62.025339 
L 629.805947 63.165295 
L 628.295214 65.648899 
L 627.738697 67.370502 
L 626.864053 71.696559 
L 626.188219 75.334619 
L 625.750938 77.490977 
L 625.114848 81.610768 
L 624.796803 83.326536 
L 624.001732 87.490086 
L 623.524624 89.808008 
L 622.928362 93.558897 
L 622.332018 97.164052 
L 621.775419 99.53354 
L 621.377883 100.518281 
L 620.940603 101.231547 
L 620.861112 101.09152 
L 620.185277 99.254257 
L 619.906978 98.310958 
L 619.668423 97.795206 
L 619.429869 97.799968 
L 619.310633 97.701554 
L 619.270888 97.762087 
L 619.151652 98.352657 
L 618.913098 100.991861 
L 618.475817 106.296139 
L 618.396244 106.223466 
L 618.237263 105.181881 
L 617.680664 99.386648 
L 617.322874 95.397189 
L 616.209758 86.759918 
L 614.659279 71.050047 
L 613.744972 66.165423 
L 613.625654 65.686737 
L 613.108883 62.579701 
L 612.552284 61.334468 
L 612.393303 60.960717 
L 611.677722 58.466474 
L 611.399423 58.141888 
L 611.200614 57.683666 
L 611.041633 57.876805 
L 610.922314 57.956986 
L 610.803078 57.648831 
L 610.206734 55.644899 
L 610.008008 55.545241 
L 609.689963 55.388182 
L 609.570644 55.510448 
L 609.371918 55.889947 
L 609.332173 55.788015 
L 608.815319 53.552292 
L 608.576847 53.462114 
L 608.457529 53.305742 
L 608.139484 52.688444 
L 607.980503 52.741212 
L 607.821439 52.278228 
L 607.503394 51.485467 
L 607.105859 51.109486 
L 606.310788 50.358553 
L 605.992743 49.996944 
L 605.475972 49.811013 
L 605.157927 49.659659 
L 604.919373 49.585827 
L 604.561583 49.810283 
L 604.243538 49.521305 
L 604.004984 49.64267 
L 603.726684 49.594579 
L 603.488212 49.558028 
L 603.368894 49.58025 
L 603.209913 49.936111 
L 603.011104 50.400811 
L 602.971359 50.367906 
L 602.573823 49.63216 
L 602.534078 49.652452 
L 602.375014 49.898358 
L 602.056969 50.686872 
L 602.017224 50.653324 
L 601.858243 50.513682 
L 601.818498 50.560787 
L 601.579943 51.152344 
L 601.540198 51.084604 
L 601.102917 49.88759 
L 600.943854 49.985618 
L 600.705382 50.169919 
L 600.466828 50.126375 
L 600.188528 50.336288 
L 599.353712 49.286853 
L 599.194648 49.509807 
L 599.075413 49.740012 
L 599.035667 49.722165 
L 598.876604 49.097832 
L 598.598304 48.38684 
L 598.320087 48.110774 
L 597.882724 48.616058 
L 597.683997 49.095816 
L 597.64417 49.068917 
L 597.405698 48.752396 
L 597.365953 48.785516 
L 596.928589 49.494277 
L 596.650372 50.692406 
L 596.213009 52.727484 
L 595.855219 52.919293 
L 595.57692 53.210845 
L 595.338448 53.496435 
L 595.099894 53.938612 
L 594.583122 55.884628 
L 594.463804 55.843572 
L 594.265077 55.348756 
L 593.748224 54.242734 
L 593.549497 53.772801 
L 592.237573 48.459171 
L 591.760464 47.452636 
L 591.203947 45.850168 
L 590.647348 45.339136 
L 590.289558 45.1484 
L 590.051004 45.26273 
L 589.414914 44.443113 
L 589.176443 44.217541 
L 588.858398 43.889652 
L 588.460862 43.941519 
L 588.10299 43.549021 
L 587.546473 43.564036 
L 587.109193 43.79201 
L 586.950129 43.757346 
L 586.552593 43.468797 
L 586.194803 43.343398 
L 585.995994 43.57918 
L 585.797268 43.735124 
L 585.081688 43.148028 
L 584.525089 43.190843 
L 584.32628 43.099208 
L 584.127553 43.050859 
L 583.730018 43.376431 
L 583.690272 43.332673 
L 583.3324 43.041077 
L 582.25903 43.214653 
L 582.060303 43.256867 
L 581.702513 43.184451 
L 581.463959 43.159569 
L 581.066423 42.944079 
L 580.430334 43.129967 
L 580.112289 43.18458 
L 579.794244 43.22525 
L 579.55569 43.274757 
L 578.959428 43.247687 
L 578.720874 43.25661 
L 578.20402 43.164073 
L 577.84623 43.320704 
L 577.21014 43.156952 
L 576.534388 43.474888 
L 576.295833 43.329369 
L 576.057279 43.471027 
L 575.739234 43.376474 
L 575.460935 43.617147 
L 575.14289 44.088539 
L 574.586373 43.868416 
L 574.109265 43.957049 
L 573.870793 43.698658 
L 573.831048 43.728517 
L 573.552748 43.893642 
L 572.837168 44.071636 
L 572.598614 44.214367 
L 572.320314 44.162843 
L 572.042015 44.216683 
L 571.763798 44.169064 
L 571.326435 44.541742 
L 571.167453 44.797858 
L 570.849409 45.204342 
L 570.491618 45.445787 
L 570.332555 45.647077 
L 570.094083 45.981916 
L 569.895274 46.015207 
L 569.616975 46.476861 
L 569.577229 46.440224 
L 569.378503 46.33812 
L 568.94114 46.547218 
L 568.424368 45.637209 
L 567.987088 45.041577 
L 567.788279 44.557872 
L 567.509979 44.013892 
L 566.675163 43.387028 
L 566.118564 43.420748 
L 565.919755 43.31474 
L 565.482474 43.45524 
L 564.448849 42.98595 
L 564.130804 43.1624 
L 563.653778 43.194447 
L 563.454969 43.203242 
L 563.097179 43.037045 
L 562.620153 43.464335 
L 562.381599 43.604105 
L 562.023809 43.535293 
L 561.745509 43.551852 
L 561.506955 43.39904 
L 561.10942 43.950528 
L 561.069674 43.922171 
L 560.870866 43.878197 
L 560.354094 44.314454 
L 560.075795 44.725785 
L 560.036049 44.700989 
L 559.638514 44.176614 
L 559.598769 44.204414 
L 559.39996 44.256624 
L 559.201233 44.272583 
L 558.883188 44.534663 
L 558.207354 44.443885 
L 557.929054 44.72763 
L 557.889309 44.686059 
L 557.452028 43.88326 
L 557.372455 43.970133 
L 557.014665 44.285196 
L 556.855684 44.269666 
L 556.497893 44.11488 
L 556.259339 44.212779 
L 556.060613 44.172667 
L 555.742568 43.979314 
L 555.305205 44.56937 
L 555.146224 44.449891 
L 554.828179 44.196606 
L 554.430643 44.270309 
L 554.152344 44.132684 
L 553.754808 44.241952 
L 553.436764 44.074554 
L 552.681438 43.8667 
L 551.767049 43.505991 
L 551.409259 43.422678 
L 551.011723 43.066431 
L 550.693679 43.154935 
L 549.819035 42.674749 
L 549.540735 42.48294 
L 549.1432 42.58633 
L 548.904728 42.704736 
L 548.467365 42.627987 
L 548.268638 42.714003 
L 547.950593 42.85536 
L 547.712039 43.088869 
L 546.678414 44.998247 
L 546.16156 45.990711 
L 545.684534 46.499169 
L 545.247254 46.767126 
L 544.611164 46.977425 
L 544.4521 46.355881 
L 544.213629 45.183621 
L 544.173801 45.202497 
L 544.054565 45.742573 
L 543.577539 48.527511 
L 543.299239 48.802204 
L 543.02094 48.711812 
L 542.822213 48.424936 
L 542.38485 47.024616 
L 542.066805 45.570928 
L 541.550034 43.216627 
L 541.192244 42.528672 
L 540.95369 42.463077 
L 539.204484 43.068662 
L 538.011796 43.761722 
L 536.421654 44.480694 
L 536.063864 44.619006 
L 535.54701 44.75204 
L 535.18922 44.899619 
L 534.910921 45.019183 
L 534.433895 45.31391 
L 534.19534 45.389544 
L 533.877295 45.623224 
L 533.678569 45.788606 
L 533.281034 46.223747 
L 532.962989 46.677464 
L 532.724435 46.916163 
L 532.525626 47.025689 
L 531.690809 48.277572 
L 531.173956 48.670799 
L 530.69693 49.048797 
L 529.981349 49.23816 
L 529.70305 49.157078 
L 529.186279 49.176684 
L 528.550189 48.692679 
L 527.755036 48.154104 
L 527.436991 48.029478 
L 527.079201 47.892367 
L 526.562429 47.698371 
L 526.085321 47.578935 
L 525.886594 47.488801 
L 525.56855 47.559029 
L 525.369741 47.571342 
L 524.773479 47.822568 
L 524.415689 47.84153 
L 524.137389 47.767655 
L 523.700026 47.7837 
L 523.024274 47.45448 
L 522.22912 46.835725 
L 521.632776 46.275485 
L 521.354559 46.04927 
L 520.917196 45.73335 
L 520.042634 45.209147 
L 519.16799 44.931065 
L 518.889691 44.943892 
L 518.531901 44.961567 
L 517.975384 44.867143 
L 517.577849 44.916479 
L 517.060995 44.984948 
L 516.623714 45.135444 
L 516.186433 45.314468 
L 515.31179 45.773162 
L 514.119101 46.744303 
L 513.005985 48.212578 
L 512.171169 49.782055 
L 510.819499 53.483179 
L 509.706301 58.363598 
L 509.110039 61.49157 
L 508.116159 67.810662 
L 506.963216 76.930909 
L 506.247636 84.968987 
L 505.651374 94.609877 
L 505.094775 107.909203 
L 504.538176 119.783157 
L 504.41894 120.272481 
L 504.379195 120.159524 
L 504.259959 118.954917 
L 504.021404 113.165218 
L 503.06727 85.759818 
L 502.70948 82.038874 
L 502.311944 80.087409 
L 502.07339 79.763939 
L 501.795091 79.803407 
L 501.516791 80.118899 
L 501.119256 81.03517 
L 500.602484 82.946952 
L 500.085631 85.496193 
L 499.568859 89.013788 
L 498.893024 94.724893 
L 498.018381 104.903241 
L 497.5811 108.661938 
L 497.3028 109.680013 
L 496.746201 111.072868 
L 496.467984 112.416774 
L 496.110194 115.114065 
L 495.23555 122.830818 
L 495.15606 122.755055 
L 494.996996 121.931363 
L 494.718779 118.592192 
L 493.287536 98.159347 
L 492.929746 96.779705 
L 492.293656 93.92338 
L 491.776885 91.386022 
L 491.260031 87.029634 
L 490.146915 75.924589 
L 489.550571 72.247232 
L 489.073545 70.515762 
L 488.67601 69.458261 
L 487.841111 68.245332 
L 487.562894 67.906674 
L 487.085786 67.375049 
L 486.767741 67.195724 
L 486.489441 67.132189 
L 486.211142 67.093835 
L 484.939045 67.731425 
L 484.740236 68.06635 
L 484.3427 68.826378 
L 483.98491 69.237537 
L 483.666866 69.846083 
L 483.468057 70.082337 
L 482.156214 73.395639 
L 481.241825 76.127938 
L 480.009391 80.696341 
L 478.578231 87.149455 
L 477.624096 92.1536 
L 476.630217 97.676543 
L 475.71591 103.219563 
L 474.562966 110.703537 
L 473.64866 116.50469 
L 471.422346 130.508745 
L 468.997306 142.856579 
L 467.844445 146.720468 
L 467.009546 148.829163 
L 466.572265 149.646249 
L 465.657876 150.662908 
L 465.45915 150.616575 
L 464.902551 151.106286 
L 464.067652 151.027606 
L 463.868926 150.665396 
L 463.590626 150.212194 
L 463.193091 150.057366 
L 462.318447 148.013665 
L 461.40414 145.260645 
L 460.450006 141.26119 
L 458.422501 130.174807 
L 456.99134 121.134184 
L 455.91797 114.230141 
L 455.56018 112.240967 
L 455.242135 110.273501 
L 454.049446 103.100428 
L 453.57242 100.120893 
L 451.544915 87.753882 
L 451.067807 84.934624 
L 449.994437 78.902322 
L 445.859936 58.558024 
L 445.462401 56.922952 
L 444.627502 53.912013 
L 442.520507 47.32136 
L 442.32178 47.210633 
L 442.122972 47.099006 
L 441.924245 46.560946 
L 441.645945 46.000535 
L 441.486882 45.770587 
L 440.771302 44.068719 
L 440.095467 43.236146 
L 439.777422 42.772004 
L 439.499122 42.75759 
L 439.101587 41.849641 
L 439.022096 41.897303 
L 438.664306 42.112107 
L 438.465497 41.417374 
L 438.107707 40.555672 
L 437.908981 40.425897 
L 437.710172 40.353309 
L 437.352382 40.142624 
L 437.153655 40.49767 
L 436.954846 40.728561 
L 436.83561 40.418132 
L 436.517565 39.500058 
L 436.239266 39.355312 
L 435.722412 38.789324 
L 435.682667 38.8221 
L 435.48394 39.227725 
L 435.285131 39.512028 
L 435.046577 39.360846 
L 434.847851 39.573204 
L 434.808105 39.527 
L 434.251506 38.451953 
L 434.012952 38.338309 
L 433.734653 38.738572 
L 433.535926 38.905327 
L 433.376945 38.587648 
L 433.138391 38.274044 
L 432.740855 38.186226 
L 432.462556 38.299312 
L 432.144511 38.405835 
L 431.866211 38.523211 
L 431.309612 38.044912 
L 430.077261 39.089928 
L 429.878452 39.234503 
L 429.679725 38.926992 
L 429.401426 38.524412 
L 429.242362 38.868432 
L 429.123126 39.007087 
L 428.805082 38.51639 
L 428.765336 38.569715 
L 428.566527 38.797003 
L 428.407546 38.528573 
L 428.168992 38.173571 
L 427.850947 38.163017 
L 427.532902 37.881846 
L 427.016131 38.050532 
L 426.499277 37.568414 
L 425.823442 37.619251 
L 425.664461 37.726117 
L 425.266926 37.497113 
L 424.710327 37.800335 
L 424.551263 37.950058 
L 424.352536 38.229899 
L 424.312791 38.198839 
L 423.994746 37.916639 
L 423.875428 37.845595 
L 423.597211 37.625086 
L 423.199675 38.094934 
L 422.961121 38.344616 
L 422.802058 38.274044 
L 422.444268 37.714105 
L 422.404522 37.752544 
L 422.165968 37.886008 
L 422.006987 37.934142 
L 421.649197 38.286099 
L 420.774553 37.846796 
L 420.615572 38.012178 
L 420.138546 38.694728 
L 420.019227 38.48533 
L 419.740928 37.842893 
L 419.621692 38.003212 
L 419.343392 38.505107 
L 418.906112 38.461949 
L 418.74713 38.50249 
L 418.349513 38.207634 
L 418.071295 38.132901 
L 417.594187 38.042552 
L 417.395378 37.98365 
L 417.196652 37.820756 
L 416.958097 38.028352 
L 416.918352 37.974211 
L 416.679798 37.597029 
L 416.640053 37.623241 
L 416.441326 38.072454 
L 416.123281 38.652814 
L 416.003963 38.593096 
L 415.765491 37.935 
L 415.487192 37.447949 
L 415.288383 37.480768 
L 415.089656 37.726374 
L 414.851102 38.05272 
L 414.533057 37.933971 
L 414.254758 37.834227 
L 413.698241 37.98957 
L 413.539177 38.078245 
L 413.260878 38.278334 
L 412.942833 38.193562 
L 412.783852 38.110035 
L 412.585043 37.977386 
L 412.306826 38.233417 
L 412.266998 38.186312 
L 412.028526 37.983392 
L 411.710481 38.12312 
L 411.352691 38.114968 
L 411.153882 38.147659 
L 410.955156 38.088971 
L 410.478047 38.383998 
L 410.080512 38.281251 
L 409.881703 38.463364 
L 409.563658 38.40931 
L 409.364932 38.372673 
L 408.808333 38.102313 
L 408.410797 38.194935 
L 408.132498 38.02595 
L 408.013262 37.982191 
L 408.013262 37.982191 
" clip-path="url(#p38e4d398fa)" style="fill: none; stroke: #1f77b4; stroke-width: 1.5; stroke-linecap: square"/>
   </g>
   <g id="patch_8">
    <path d="M 394.178551 354.958125 
L 394.178551 22.318125 
" style="fill: none; stroke: #000000; stroke-width: 0.8; stroke-linejoin: miter; stroke-linecap: square"/>
   </g>
   <g id="patch_9">
    <path d="M 698.542187 354.958125 
L 698.542187 22.318125 
" style="fill: none; stroke: #000000; stroke-width: 0.8; stroke-linejoin: miter; stroke-linecap: square"/>
   </g>
   <g id="patch_10">
    <path d="M 394.178551 354.958125 
L 698.542187 354.958125 
" style="fill: none; stroke: #000000; stroke-width: 0.8; stroke-linejoin: miter; stroke-linecap: square"/>
   </g>
   <g id="patch_11">
    <path d="M 394.178551 22.318125 
L 698.542187 22.318125 
" style="fill: none; stroke: #000000; stroke-width: 0.8; stroke-linejoin: miter; stroke-linecap: square"/>
   </g>
   <g id="text_35">
    <!-- Pure Methanol Spectrum -->
    <g transform="translate(472.292244 16.318125) scale(0.12 -0.12)">
     <defs>
      <path id="DejaVuSans-50" d="M 1259 4147 
L 1259 2394 
L 2053 2394 
Q 2494 2394 2734 2622 
Q 2975 2850 2975 3272 
Q 2975 3691 2734 3919 
Q 2494 4147 2053 4147 
L 1259 4147 
z
M 628 4666 
L 2053 4666 
Q 2838 4666 3239 4311 
Q 3641 3956 3641 3272 
Q 3641 2581 3239 2228 
Q 2838 1875 2053 1875 
L 1259 1875 
L 1259 0 
L 628 0 
L 628 4666 
z
" transform="scale(0.015625)"/>
     </defs>
     <use xlink:href="#DejaVuSans-50"/>
     <use xlink:href="#DejaVuSans-75" transform="translate(58.552734 0)"/>
     <use xlink:href="#DejaVuSans-72" transform="translate(121.931641 0)"/>
     <use xlink:href="#DejaVuSans-65" transform="translate(160.794922 0)"/>
     <use xlink:href="#DejaVuSans-20" transform="translate(222.318359 0)"/>
     <use xlink:href="#DejaVuSans-4d" transform="translate(254.105469 0)"/>
     <use xlink:href="#DejaVuSans-65" transform="translate(340.384766 0)"/>
     <use xlink:href="#DejaVuSans-74" transform="translate(401.908203 0)"/>
     <use xlink:href="#DejaVuSans-68" transform="translate(441.117188 0)"/>
     <use xlink:href="#DejaVuSans-61" transform="translate(504.496094 0)"/>
     <use xlink:href="#DejaVuSans-6e" transform="translate(565.775391 0)"/>
     <use xlink:href="#DejaVuSans-6f" transform="translate(629.154297 0)"/>
     <use xlink:href="#DejaVuSans-6c" transform="translate(690.335938 0)"/>
     <use xlink:href="#DejaVuSans-20" transform="translate(718.119141 0)"/>
     <use xlink:href="#DejaVuSans-53" transform="translate(749.90625 0)"/>
     <use xlink:href="#DejaVuSans-70" transform="translate(813.382812 0)"/>
     <use xlink:href="#DejaVuSans-65" transform="translate(876.859375 0)"/>
     <use xlink:href="#DejaVuSans-63" transform="translate(938.382812 0)"/>
     <use xlink:href="#DejaVuSans-74" transform="translate(993.363281 0)"/>
     <use xlink:href="#DejaVuSans-72" transform="translate(1032.572266 0)"/>
     <use xlink:href="#DejaVuSans-75" transform="translate(1073.685547 0)"/>
     <use xlink:href="#DejaVuSans-6d" transform="translate(1137.064453 0)"/>
    </g>
   </g>
  </g>
 </g>
 <defs>
  <clipPath id="p644235b55c">
   <rect x="28.942188" y="22.318125" width="304.363636" height="332.64"/>
  </clipPath>
  <clipPath id="p38e4d398fa">
   <rect x="394.178551" y="22.318125" width="304.363636" height="332.64"/>
  </clipPath>
 </defs>
</svg>