<?xml version="1.0" encoding="utf-8" standalone="no"?>
<!DOCTYPE svg PUBLIC "-//W3C//DTD SVG 1.1//EN"
  "http://www.w3.org/Graphics/SVG/1.1/DTD/svg11.dtd">
<svg xmlns:xlink="http://www.w3.org/1999/xlink" width="358.649986pt" height="348.252526pt" viewBox="0 0 358.649986 348.252526" xmlns="http://www.w3.org/2000/svg" version="1.1">
 <metadata>
  <rdf:RDF xmlns:dc="http://purl.org/dc/elements/1.1/" xmlns:cc="http://creativecommons.org/ns#" xmlns:rdf="http://www.w3.org/1999/02/22-rdf-syntax-ns#">
   <cc:Work>
    <dc:type rdf:resource="http://purl.org/dc/dcmitype/StillImage"/>
    <dc:date>2023-09-03T08:33:12.326953</dc:date>
    <dc:format>image/svg+xml</dc:format>
    <dc:creator>
     <cc:Agent>
      <dc:title>Matplotlib v3.7.2, https://matplotlib.org/</dc:title>
     </cc:Agent>
    </dc:creator>
   </cc:Work>
  </rdf:RDF>
 </metadata>
 <defs>
  <style type="text/css">*{stroke-linejoin: round; stroke-linecap: butt}</style>
 </defs>
 <g id="figure_1">
  <g id="patch_1">
   <path d="M -0 348.252526 
L 358.649986 348.252526 
L 358.649986 0 
L -0 0 
z
" style="fill: #ffffff"/>
  </g>
  <g id="patch_2">
   <path d="M 7.2 339.84 
L 339.84 339.84 
L 339.84 7.2 
L 7.2 7.2 
z
" style="fill: #ffffff"/>
  </g>
  <g id="pane3d_1">
   <g id="patch_3">
    <path d="M 32.316614 257.821636 
L 142.165206 165.744369 
L 140.638205 32.952489 
L 25.532792 116.951176 
" style="fill: #f2f2f2; opacity: 0.5; stroke: #f2f2f2; stroke-linejoin: miter"/>
   </g>
  </g>
  <g id="pane3d_2">
   <g id="patch_4">
    <path d="M 142.165206 165.744369 
L 318.433001 216.978458 
L 324.723377 79.612714 
L 140.638205 32.952489 
" style="fill: #e6e6e6; opacity: 0.5; stroke: #e6e6e6; stroke-linejoin: miter"/>
   </g>
  </g>
  <g id="pane3d_3">
   <g id="patch_5">
    <path d="M 32.316614 257.821636 
L 219.169086 318.847653 
L 318.433001 216.978458 
L 142.165206 165.744369 
" style="fill: #ececec; opacity: 0.5; stroke: #ececec; stroke-linejoin: miter"/>
   </g>
  </g>
  <g id="axis3d_1">
   <g id="line2d_1">
    <path d="M 32.316614 257.821636 
L 219.169086 318.847653 
" style="fill: none; stroke: #000000; stroke-width: 0.8; stroke-linecap: square"/>
   </g>
   <g id="Line3DCollection_1">
    <path d="M 43.63338 261.517692 
L 152.885273 168.860269 
L 151.811525 35.7846 
" style="fill: none; stroke: #b0b0b0; stroke-width: 0.8"/>
    <path d="M 75.058161 271.781025 
L 182.623022 177.503859 
L 182.821618 43.644754 
" style="fill: none; stroke: #b0b0b0; stroke-width: 0.8"/>
    <path d="M 107.058703 282.232402 
L 212.86022 186.292618 
L 214.375172 51.64266 
" style="fill: none; stroke: #b0b0b0; stroke-width: 0.8"/>
    <path d="M 139.650976 292.877039 
L 243.609555 195.230236 
L 246.4866 59.781971 
" style="fill: none; stroke: #b0b0b0; stroke-width: 0.8"/>
    <path d="M 172.851545 303.720344 
L 274.88415 204.320526 
L 279.170829 68.066471 
" style="fill: none; stroke: #b0b0b0; stroke-width: 0.8"/>
    <path d="M 206.677601 314.767934 
L 306.697579 213.567434 
L 312.443324 76.500078 
" style="fill: none; stroke: #b0b0b0; stroke-width: 0.8"/>
   </g>
   <g id="xtick_1">
    <g id="line2d_2">
     <path d="M 44.584739 260.710836 
L 41.726579 263.134866 
" style="fill: none; stroke: #000000; stroke-width: 0.8; stroke-linecap: square"/>
    </g>
    <g id="text_1">
     <!-- 0.0 -->
     <g transform="translate(28.158361 284.81517) scale(0.1 -0.1)">
      <defs>
       <path id="DejaVuSans-30" d="M 2034 4250 
Q 1547 4250 1301 3770 
Q 1056 3291 1056 2328 
Q 1056 1369 1301 889 
Q 1547 409 2034 409 
Q 2525 409 2770 889 
Q 3016 1369 3016 2328 
Q 3016 3291 2770 3770 
Q 2525 4250 2034 4250 
z
M 2034 4750 
Q 2819 4750 3233 4129 
Q 3647 3509 3647 2328 
Q 3647 1150 3233 529 
Q 2819 -91 2034 -91 
Q 1250 -91 836 529 
Q 422 1150 422 2328 
Q 422 3509 836 4129 
Q 1250 4750 2034 4750 
z
" transform="scale(0.015625)"/>
       <path id="DejaVuSans-2e" d="M 684 794 
L 1344 794 
L 1344 0 
L 684 0 
L 684 794 
z
" transform="scale(0.015625)"/>
      </defs>
      <use xlink:href="#DejaVuSans-30"/>
      <use xlink:href="#DejaVuSans-2e" x="63.623047"/>
      <use xlink:href="#DejaVuSans-30" x="95.410156"/>
     </g>
    </g>
   </g>
   <g id="xtick_2">
    <g id="line2d_3">
     <path d="M 75.995521 270.95946 
L 73.179383 273.427714 
" style="fill: none; stroke: #000000; stroke-width: 0.8; stroke-linecap: square"/>
    </g>
    <g id="text_2">
     <!-- 0.2 -->
     <g transform="translate(59.608873 295.252219) scale(0.1 -0.1)">
      <defs>
       <path id="DejaVuSans-32" d="M 1228 531 
L 3431 531 
L 3431 0 
L 469 0 
L 469 531 
Q 828 903 1448 1529 
Q 2069 2156 2228 2338 
Q 2531 2678 2651 2914 
Q 2772 3150 2772 3378 
Q 2772 3750 2511 3984 
Q 2250 4219 1831 4219 
Q 1534 4219 1204 4116 
Q 875 4013 500 3803 
L 500 4441 
Q 881 4594 1212 4672 
Q 1544 4750 1819 4750 
Q 2544 4750 2975 4387 
Q 3406 4025 3406 3419 
Q 3406 3131 3298 2873 
Q 3191 2616 2906 2266 
Q 2828 2175 2409 1742 
Q 1991 1309 1228 531 
z
" transform="scale(0.015625)"/>
      </defs>
      <use xlink:href="#DejaVuSans-30"/>
      <use xlink:href="#DejaVuSans-2e" x="63.623047"/>
      <use xlink:href="#DejaVuSans-32" x="95.410156"/>
     </g>
    </g>
   </g>
   <g id="xtick_3">
    <g id="line2d_4">
     <path d="M 107.981388 281.395721 
L 105.209301 283.909422 
" style="fill: none; stroke: #000000; stroke-width: 0.8; stroke-linecap: square"/>
    </g>
    <g id="text_3">
     <!-- 0.4 -->
     <g transform="translate(91.637362 305.881073) scale(0.1 -0.1)">
      <defs>
       <path id="DejaVuSans-34" d="M 2419 4116 
L 825 1625 
L 2419 1625 
L 2419 4116 
z
M 2253 4666 
L 3047 4666 
L 3047 1625 
L 3713 1625 
L 3713 1100 
L 3047 1100 
L 3047 0 
L 2419 0 
L 2419 1100 
L 313 1100 
L 313 1709 
L 2253 4666 
z
" transform="scale(0.015625)"/>
      </defs>
      <use xlink:href="#DejaVuSans-30"/>
      <use xlink:href="#DejaVuSans-2e" x="63.623047"/>
      <use xlink:href="#DejaVuSans-34" x="95.410156"/>
     </g>
    </g>
   </g>
   <g id="xtick_4">
    <g id="line2d_5">
     <path d="M 140.558281 292.02482 
L 137.832363 294.585235 
" style="fill: none; stroke: #000000; stroke-width: 0.8; stroke-linecap: square"/>
    </g>
    <g id="text_4">
     <!-- 0.6 -->
     <g transform="translate(124.259906 316.707069) scale(0.1 -0.1)">
      <defs>
       <path id="DejaVuSans-36" d="M 2113 2584 
Q 1688 2584 1439 2293 
Q 1191 2003 1191 1497 
Q 1191 994 1439 701 
Q 1688 409 2113 409 
Q 2538 409 2786 701 
Q 3034 994 3034 1497 
Q 3034 2003 2786 2293 
Q 2538 2584 2113 2584 
z
M 3366 4563 
L 3366 3988 
Q 3128 4100 2886 4159 
Q 2644 4219 2406 4219 
Q 1781 4219 1451 3797 
Q 1122 3375 1075 2522 
Q 1259 2794 1537 2939 
Q 1816 3084 2150 3084 
Q 2853 3084 3261 2657 
Q 3669 2231 3669 1497 
Q 3669 778 3244 343 
Q 2819 -91 2113 -91 
Q 1303 -91 875 529 
Q 447 1150 447 2328 
Q 447 3434 972 4092 
Q 1497 4750 2381 4750 
Q 2619 4750 2861 4703 
Q 3103 4656 3366 4563 
z
" transform="scale(0.015625)"/>
      </defs>
      <use xlink:href="#DejaVuSans-30"/>
      <use xlink:href="#DejaVuSans-2e" x="63.623047"/>
      <use xlink:href="#DejaVuSans-36" x="95.410156"/>
     </g>
    </g>
   </g>
   <g id="xtick_5">
    <g id="line2d_6">
     <path d="M 173.742733 302.852152 
L 171.065201 305.460595 
" style="fill: none; stroke: #000000; stroke-width: 0.8; stroke-linecap: square"/>
    </g>
    <g id="text_5">
     <!-- 0.8 -->
     <g transform="translate(157.493189 327.735742) scale(0.1 -0.1)">
      <defs>
       <path id="DejaVuSans-38" d="M 2034 2216 
Q 1584 2216 1326 1975 
Q 1069 1734 1069 1313 
Q 1069 891 1326 650 
Q 1584 409 2034 409 
Q 2484 409 2743 651 
Q 3003 894 3003 1313 
Q 3003 1734 2745 1975 
Q 2488 2216 2034 2216 
z
M 1403 2484 
Q 997 2584 770 2862 
Q 544 3141 544 3541 
Q 544 4100 942 4425 
Q 1341 4750 2034 4750 
Q 2731 4750 3128 4425 
Q 3525 4100 3525 3541 
Q 3525 3141 3298 2862 
Q 3072 2584 2669 2484 
Q 3125 2378 3379 2068 
Q 3634 1759 3634 1313 
Q 3634 634 3220 271 
Q 2806 -91 2034 -91 
Q 1263 -91 848 271 
Q 434 634 434 1313 
Q 434 1759 690 2068 
Q 947 2378 1403 2484 
z
M 1172 3481 
Q 1172 3119 1398 2916 
Q 1625 2713 2034 2713 
Q 2441 2713 2670 2916 
Q 2900 3119 2900 3481 
Q 2900 3844 2670 4047 
Q 2441 4250 2034 4250 
Q 1625 4250 1398 4047 
Q 1172 3844 1172 3481 
z
" transform="scale(0.015625)"/>
      </defs>
      <use xlink:href="#DejaVuSans-30"/>
      <use xlink:href="#DejaVuSans-2e" x="63.623047"/>
      <use xlink:href="#DejaVuSans-38" x="95.410156"/>
     </g>
    </g>
   </g>
   <g id="xtick_6">
    <g id="line2d_7">
     <path d="M 207.551902 313.883314 
L 204.925071 316.54115 
" style="fill: none; stroke: #000000; stroke-width: 0.8; stroke-linecap: square"/>
    </g>
    <g id="text_6">
     <!-- 1.0 -->
     <g transform="translate(191.354524 338.972838) scale(0.1 -0.1)">
      <defs>
       <path id="DejaVuSans-31" d="M 794 531 
L 1825 531 
L 1825 4091 
L 703 3866 
L 703 4441 
L 1819 4666 
L 2450 4666 
L 2450 531 
L 3481 531 
L 3481 0 
L 794 0 
L 794 531 
z
" transform="scale(0.015625)"/>
      </defs>
      <use xlink:href="#DejaVuSans-31"/>
      <use xlink:href="#DejaVuSans-2e" x="63.623047"/>
      <use xlink:href="#DejaVuSans-30" x="95.410156"/>
     </g>
    </g>
   </g>
  </g>
  <g id="axis3d_2">
   <g id="line2d_8">
    <path d="M 318.433001 216.978458 
L 219.169086 318.847653 
" style="fill: none; stroke: #000000; stroke-width: 0.8; stroke-linecap: square"/>
   </g>
   <g id="Line3DCollection_2">
    <path d="M 33.492616 111.142459 
L 39.88611 251.476734 
L 226.037381 311.799093 
" style="fill: none; stroke: #b0b0b0; stroke-width: 0.8"/>
    <path d="M 54.851541 95.555689 
L 60.217278 234.434747 
L 244.464457 292.88838 
" style="fill: none; stroke: #b0b0b0; stroke-width: 0.8"/>
    <path d="M 75.541831 80.456857 
L 79.939298 217.903358 
L 262.310651 274.573795 
" style="fill: none; stroke: #b0b0b0; stroke-width: 0.8"/>
    <path d="M 95.594401 65.823405 
L 99.079142 201.859962 
L 279.603003 256.827587 
" style="fill: none; stroke: #b0b0b0; stroke-width: 0.8"/>
    <path d="M 115.038286 51.634143 
L 117.662214 186.283262 
L 296.366902 239.623704 
" style="fill: none; stroke: #b0b0b0; stroke-width: 0.8"/>
    <path d="M 133.900787 37.869149 
L 135.712459 171.153189 
L 312.626206 222.937658 
" style="fill: none; stroke: #b0b0b0; stroke-width: 0.8"/>
   </g>
   <g id="xtick_7">
    <g id="line2d_9">
     <path d="M 224.468678 311.290755 
L 229.178842 312.817085 
" style="fill: none; stroke: #000000; stroke-width: 0.8; stroke-linecap: square"/>
    </g>
    <g id="text_7">
     <!-- 0.0 -->
     <g transform="translate(230.96491 332.819216) scale(0.1 -0.1)">
      <use xlink:href="#DejaVuSans-30"/>
      <use xlink:href="#DejaVuSans-2e" x="63.623047"/>
      <use xlink:href="#DejaVuSans-30" x="95.410156"/>
     </g>
    </g>
   </g>
   <g id="xtick_8">
    <g id="line2d_10">
     <path d="M 242.91306 292.396189 
L 247.571199 293.874014 
" style="fill: none; stroke: #000000; stroke-width: 0.8; stroke-linecap: square"/>
    </g>
    <g id="text_8">
     <!-- 0.2 -->
     <g transform="translate(249.194327 313.684553) scale(0.1 -0.1)">
      <use xlink:href="#DejaVuSans-30"/>
      <use xlink:href="#DejaVuSans-2e" x="63.623047"/>
      <use xlink:href="#DejaVuSans-32" x="95.410156"/>
     </g>
    </g>
   </g>
   <g id="xtick_9">
    <g id="line2d_11">
     <path d="M 260.776256 274.096994 
L 265.383284 275.528591 
" style="fill: none; stroke: #000000; stroke-width: 0.8; stroke-linecap: square"/>
    </g>
    <g id="text_9">
     <!-- 0.4 -->
     <g transform="translate(266.848826 295.153358) scale(0.1 -0.1)">
      <use xlink:href="#DejaVuSans-30"/>
      <use xlink:href="#DejaVuSans-2e" x="63.623047"/>
      <use xlink:href="#DejaVuSans-34" x="95.410156"/>
     </g>
    </g>
   </g>
   <g id="xtick_10">
    <g id="line2d_12">
     <path d="M 278.08531 256.365466 
L 282.642131 257.75297 
" style="fill: none; stroke: #000000; stroke-width: 0.8; stroke-linecap: square"/>
    </g>
    <g id="text_10">
     <!-- 0.6 -->
     <g transform="translate(283.955182 277.197526) scale(0.1 -0.1)">
      <use xlink:href="#DejaVuSans-30"/>
      <use xlink:href="#DejaVuSans-2e" x="63.623047"/>
      <use xlink:href="#DejaVuSans-36" x="95.410156"/>
     </g>
    </g>
   </g>
   <g id="xtick_11">
    <g id="line2d_13">
     <path d="M 294.865614 239.175594 
L 299.373122 240.521012 
" style="fill: none; stroke: #000000; stroke-width: 0.8; stroke-linecap: square"/>
    </g>
    <g id="text_11">
     <!-- 0.8 -->
     <g transform="translate(300.538533 259.79067) scale(0.1 -0.1)">
      <use xlink:href="#DejaVuSans-30"/>
      <use xlink:href="#DejaVuSans-2e" x="63.623047"/>
      <use xlink:href="#DejaVuSans-38" x="95.410156"/>
     </g>
    </g>
   </g>
   <g id="xtick_12">
    <g id="line2d_14">
     <path d="M 311.141031 222.502932 
L 315.600107 223.808149 
" style="fill: none; stroke: #000000; stroke-width: 0.8; stroke-linecap: square"/>
    </g>
    <g id="text_12">
     <!-- 1.0 -->
     <g transform="translate(316.622503 242.907993) scale(0.1 -0.1)">
      <use xlink:href="#DejaVuSans-31"/>
      <use xlink:href="#DejaVuSans-2e" x="63.623047"/>
      <use xlink:href="#DejaVuSans-30" x="95.410156"/>
     </g>
    </g>
   </g>
  </g>
  <g id="axis3d_3">
   <g id="line2d_15">
    <path d="M 318.433001 216.978458 
L 324.723377 79.612714 
" style="fill: none; stroke: #000000; stroke-width: 0.8; stroke-linecap: square"/>
   </g>
   <g id="Line3DCollection_3">
    <path d="M 319.265923 198.789555 
L 141.962641 148.128872 
L 31.419666 239.195936 
" style="fill: none; stroke: #b0b0b0; stroke-width: 0.8"/>
    <path d="M 320.005876 182.630891 
L 141.782782 132.487875 
L 30.6225 222.642256 
" style="fill: none; stroke: #b0b0b0; stroke-width: 0.8"/>
    <path d="M 320.753621 166.302038 
L 141.60112 116.690036 
L 29.816616 205.907558 
" style="fill: none; stroke: #b0b0b0; stroke-width: 0.8"/>
    <path d="M 321.509284 149.800294 
L 141.417627 100.732984 
L 29.001871 188.988857 
" style="fill: none; stroke: #b0b0b0; stroke-width: 0.8"/>
    <path d="M 322.27299 133.122899 
L 141.232274 84.614299 
L 28.178119 171.883101 
" style="fill: none; stroke: #b0b0b0; stroke-width: 0.8"/>
    <path d="M 323.044869 116.267033 
L 141.045035 68.331514 
L 27.345208 154.587171 
" style="fill: none; stroke: #b0b0b0; stroke-width: 0.8"/>
    <path d="M 323.825053 99.229815 
L 140.85588 51.882109 
L 26.502986 137.097877 
" style="fill: none; stroke: #b0b0b0; stroke-width: 0.8"/>
   </g>
   <g id="xtick_13">
    <g id="line2d_16">
     <path d="M 317.777448 198.364254 
L 322.246436 199.641174 
" style="fill: none; stroke: #000000; stroke-width: 0.8; stroke-linecap: square"/>
    </g>
    <g id="text_13">
     <!-- −1.5 -->
     <g transform="translate(325.490144 203.80992) scale(0.1 -0.1)">
      <defs>
       <path id="DejaVuSans-2212" d="M 678 2272 
L 4684 2272 
L 4684 1741 
L 678 1741 
L 678 2272 
z
" transform="scale(0.015625)"/>
       <path id="DejaVuSans-35" d="M 691 4666 
L 3169 4666 
L 3169 4134 
L 1269 4134 
L 1269 2991 
Q 1406 3038 1543 3061 
Q 1681 3084 1819 3084 
Q 2600 3084 3056 2656 
Q 3513 2228 3513 1497 
Q 3513 744 3044 326 
Q 2575 -91 1722 -91 
Q 1428 -91 1123 -41 
Q 819 9 494 109 
L 494 744 
Q 775 591 1075 516 
Q 1375 441 1709 441 
Q 2250 441 2565 725 
Q 2881 1009 2881 1497 
Q 2881 1984 2565 2268 
Q 2250 2553 1709 2553 
Q 1456 2553 1204 2497 
Q 953 2441 691 2322 
L 691 4666 
z
" transform="scale(0.015625)"/>
      </defs>
      <use xlink:href="#DejaVuSans-2212"/>
      <use xlink:href="#DejaVuSans-31" x="83.789062"/>
      <use xlink:href="#DejaVuSans-2e" x="147.412109"/>
      <use xlink:href="#DejaVuSans-35" x="179.199219"/>
     </g>
    </g>
   </g>
   <g id="xtick_14">
    <g id="line2d_17">
     <path d="M 318.509309 182.209832 
L 323.002608 183.47402 
" style="fill: none; stroke: #000000; stroke-width: 0.8; stroke-linecap: square"/>
    </g>
    <g id="text_14">
     <!-- −1.0 -->
     <g transform="translate(326.324277 187.676997) scale(0.1 -0.1)">
      <use xlink:href="#DejaVuSans-2212"/>
      <use xlink:href="#DejaVuSans-31" x="83.789062"/>
      <use xlink:href="#DejaVuSans-2e" x="147.412109"/>
      <use xlink:href="#DejaVuSans-30" x="179.199219"/>
     </g>
    </g>
   </g>
   <g id="xtick_15">
    <g id="line2d_18">
     <path d="M 319.248876 165.885335 
L 323.76675 167.136452 
" style="fill: none; stroke: #000000; stroke-width: 0.8; stroke-linecap: square"/>
    </g>
    <g id="text_15">
     <!-- −0.5 -->
     <g transform="translate(327.167174 171.374572) scale(0.1 -0.1)">
      <use xlink:href="#DejaVuSans-2212"/>
      <use xlink:href="#DejaVuSans-30" x="83.789062"/>
      <use xlink:href="#DejaVuSans-2e" x="147.412109"/>
      <use xlink:href="#DejaVuSans-35" x="179.199219"/>
     </g>
    </g>
   </g>
   <g id="xtick_16">
    <g id="line2d_19">
     <path d="M 319.99627 149.388062 
L 324.538989 150.62576 
" style="fill: none; stroke: #000000; stroke-width: 0.8; stroke-linecap: square"/>
    </g>
    <g id="text_16">
     <!-- 0.0 -->
     <g transform="translate(332.208817 154.899959) scale(0.1 -0.1)">
      <use xlink:href="#DejaVuSans-30"/>
      <use xlink:href="#DejaVuSans-2e" x="63.623047"/>
      <use xlink:href="#DejaVuSans-30" x="95.410156"/>
     </g>
    </g>
   </g>
   <g id="xtick_17">
    <g id="line2d_20">
     <path d="M 320.751616 132.715257 
L 325.319456 133.939178 
" style="fill: none; stroke: #000000; stroke-width: 0.8; stroke-linecap: square"/>
    </g>
    <g id="text_17">
     <!-- 0.5 -->
     <g transform="translate(333.06966 138.250415) scale(0.1 -0.1)">
      <use xlink:href="#DejaVuSans-30"/>
      <use xlink:href="#DejaVuSans-2e" x="63.623047"/>
      <use xlink:href="#DejaVuSans-35" x="95.410156"/>
     </g>
    </g>
   </g>
   <g id="xtick_18">
    <g id="line2d_21">
     <path d="M 321.515043 115.864103 
L 326.108281 117.073881 
" style="fill: none; stroke: #000000; stroke-width: 0.8; stroke-linecap: square"/>
    </g>
    <g id="text_18">
     <!-- 1.0 -->
     <g transform="translate(333.939694 121.42314) scale(0.1 -0.1)">
      <use xlink:href="#DejaVuSans-31"/>
      <use xlink:href="#DejaVuSans-2e" x="63.623047"/>
      <use xlink:href="#DejaVuSans-30" x="95.410156"/>
     </g>
    </g>
   </g>
   <g id="xtick_19">
    <g id="line2d_22">
     <path d="M 322.286679 98.831723 
L 326.9056 100.026981 
" style="fill: none; stroke: #000000; stroke-width: 0.8; stroke-linecap: square"/>
    </g>
    <g id="text_19">
     <!-- 1.5 -->
     <g transform="translate(334.819064 104.415272) scale(0.1 -0.1)">
      <use xlink:href="#DejaVuSans-31"/>
      <use xlink:href="#DejaVuSans-2e" x="63.623047"/>
      <use xlink:href="#DejaVuSans-35" x="95.410156"/>
     </g>
    </g>
   </g>
  </g>
  <g id="axes_1">
   <g id="Poly3DCollection_1">
    <path d="M 141.031472 112.714839 
L 148.987831 111.451539 
L 153.773641 111.107981 
L 145.805814 108.921454 
z
" clip-path="url(#pb7bdc72198)" style="fill: #20928c"/>
    <path d="M 148.987831 111.451539 
L 157.000033 110.557233 
L 161.777174 113.304308 
L 153.773641 111.107981 
z
" clip-path="url(#pb7bdc72198)" style="fill: #1f958b"/>
    <path d="M 136.21995 116.537766 
L 144.155075 111.89367 
L 148.987831 111.451539 
L 141.031472 112.714839 
z
" clip-path="url(#pb7bdc72198)" style="fill: #1f958b"/>
    <path d="M 157.000033 110.557233 
L 165.067131 110.373422 
L 169.816656 115.510499 
L 161.777174 113.304308 
z
" clip-path="url(#pb7bdc72198)" style="fill: #1f978b"/>
    <path d="M 165.067131 110.373422 
L 173.184542 111.167294 
L 177.892327 117.726621 
L 169.816656 115.510499 
z
" clip-path="url(#pb7bdc72198)" style="fill: #1f998a"/>
    <path d="M 144.155075 111.89367 
L 152.166879 107.958041 
L 157.000033 110.557233 
L 148.987831 111.451539 
z
" clip-path="url(#pb7bdc72198)" style="fill: #1f9f88"/>
    <path d="M 131.370811 120.39058 
L 139.276241 112.52879 
L 144.155075 111.89367 
L 136.21995 116.537766 
z
" clip-path="url(#pb7bdc72198)" style="fill: #1f988b"/>
    <path d="M 173.184542 111.167294 
L 181.344986 113.100934 
L 186.004435 119.952742 
L 177.892327 117.726621 
z
" clip-path="url(#pb7bdc72198)" style="fill: #1f9a8a"/>
    <path d="M 152.166879 107.958041 
L 160.25439 105.414229 
L 165.067131 110.373422 
L 157.000033 110.557233 
z
" clip-path="url(#pb7bdc72198)" style="fill: #21a685"/>
    <path d="M 181.344986 113.100934 
L 189.539869 116.212226 
L 194.153225 122.18893 
L 186.004435 119.952742 
z
" clip-path="url(#pb7bdc72198)" style="fill: #1f9a8a"/>
    <path d="M 126.483612 124.273634 
L 134.352733 113.447898 
L 139.276241 112.52879 
L 131.370811 120.39058 
z
" clip-path="url(#pb7bdc72198)" style="fill: #1e9b8a"/>
    <path d="M 139.276241 112.52879 
L 147.27925 105.687004 
L 152.166879 107.958041 
L 144.155075 111.89367 
z
" clip-path="url(#pb7bdc72198)" style="fill: #22a785"/>
    <path d="M 189.539869 116.212226 
L 197.760909 120.410059 
L 202.338947 124.435252 
L 194.153225 122.18893 
z
" clip-path="url(#pb7bdc72198)" style="fill: #1f988b"/>
    <path d="M 160.25439 105.414229 
L 168.409126 104.800383 
L 173.184542 111.167294 
L 165.067131 110.373422 
z
" clip-path="url(#pb7bdc72198)" style="fill: #25ab82"/>
    <path d="M 197.760909 120.410059 
L 206.001723 125.484546 
L 210.561853 126.691778 
L 202.338947 124.435252 
z
" clip-path="url(#pb7bdc72198)" style="fill: #1f968b"/>
    <path d="M 168.409126 104.800383 
L 176.616832 106.444412 
L 181.344986 113.100934 
L 173.184542 111.167294 
z
" clip-path="url(#pb7bdc72198)" style="fill: #27ad81"/>
    <path d="M 121.557903 128.187285 
L 129.386434 114.735946 
L 134.352733 113.447898 
L 126.483612 124.273634 
z
" clip-path="url(#pb7bdc72198)" style="fill: #1f9e89"/>
    <path d="M 147.27925 105.687004 
L 155.380011 100.880632 
L 160.25439 105.414229 
L 152.166879 107.958041 
z
" clip-path="url(#pb7bdc72198)" style="fill: #2eb37c"/>
    <path d="M 206.001723 125.484546 
L 214.259133 131.130888 
L 218.822196 128.958578 
L 210.561853 126.691778 
z
" clip-path="url(#pb7bdc72198)" style="fill: #20938c"/>
    <path d="M 134.352733 113.447898 
L 142.339736 103.919141 
L 147.27925 105.687004 
L 139.276241 112.52879 
z
" clip-path="url(#pb7bdc72198)" style="fill: #29af7f"/>
    <path d="M 176.616832 106.444412 
L 184.860217 110.422994 
L 189.539869 116.212226 
L 181.344986 113.100934 
z
" clip-path="url(#pb7bdc72198)" style="fill: #26ad81"/>
    <path d="M 214.259133 131.130888 
L 222.533972 136.983716 
L 227.120233 131.235722 
L 218.822196 128.958578 
z
" clip-path="url(#pb7bdc72198)" style="fill: #21918c"/>
    <path d="M 184.860217 110.422994 
L 193.122229 116.551275 
L 197.760909 120.410059 
L 189.539869 116.212226 
z
" clip-path="url(#pb7bdc72198)" style="fill: #23a983"/>
    <path d="M 222.533972 136.983716 
L 230.831253 142.657558 
L 235.456222 133.523281 
L 227.120233 131.235722 
z
" clip-path="url(#pb7bdc72198)" style="fill: #228d8d"/>
    <path d="M 155.380011 100.880632 
L 163.567198 98.914312 
L 168.409126 104.800383 
L 160.25439 105.414229 
z
" clip-path="url(#pb7bdc72198)" style="fill: #3dbc74"/>
    <path d="M 116.593229 132.131897 
L 124.379639 116.469312 
L 129.386434 114.735946 
L 121.557903 128.187285 
z
" clip-path="url(#pb7bdc72198)" style="fill: #1fa088"/>
    <path d="M 193.122229 116.551275 
L 201.389314 124.405022 
L 206.001723 125.484546 
L 197.760909 120.410059 
z
" clip-path="url(#pb7bdc72198)" style="fill: #1fa287"/>
    <path d="M 201.389314 124.405022 
L 209.654096 133.371671 
L 214.259133 131.130888 
L 206.001723 125.484546 
z
" clip-path="url(#pb7bdc72198)" style="fill: #1f9a8a"/>
    <path d="M 230.831253 142.657558 
L 239.159689 147.78864 
L 243.830425 135.821326 
L 235.456222 133.523281 
z
" clip-path="url(#pb7bdc72198)" style="fill: #238a8d"/>
    <path d="M 209.654096 133.371671 
L 217.917033 142.72235 
L 222.533972 136.983716 
L 214.259133 131.130888 
z
" clip-path="url(#pb7bdc72198)" style="fill: #21918c"/>
    <path d="M 142.339736 103.919141 
L 150.447042 97.014499 
L 155.380011 100.880632 
L 147.27925 105.687004 
z
" clip-path="url(#pb7bdc72198)" style="fill: #44bf70"/>
    <path d="M 129.386434 114.735946 
L 137.351902 102.818941 
L 142.339736 103.919141 
L 134.352733 113.447898 
z
" clip-path="url(#pb7bdc72198)" style="fill: #34b679"/>
    <path d="M 217.917033 142.72235 
L 226.186799 151.694476 
L 230.831253 142.657558 
L 222.533972 136.983716 
z
" clip-path="url(#pb7bdc72198)" style="fill: #24868e"/>
    <path d="M 163.567198 98.914312 
L 171.820359 100.280407 
L 176.616832 106.444412 
L 168.409126 104.800383 
z
" clip-path="url(#pb7bdc72198)" style="fill: #44bf70"/>
    <path d="M 239.159689 147.78864 
L 247.530602 152.073473 
L 252.243105 138.12993 
L 243.830425 135.821326 
z
" clip-path="url(#pb7bdc72198)" style="fill: #23888e"/>
    <path d="M 226.186799 151.694476 
L 234.479361 159.57441 
L 239.159689 147.78864 
L 230.831253 142.657558 
z
" clip-path="url(#pb7bdc72198)" style="fill: #277e8e"/>
    <path d="M 111.589123 136.107837 
L 119.33495 118.713474 
L 124.379639 116.469312 
L 116.593229 132.131897 
z
" clip-path="url(#pb7bdc72198)" style="fill: #1fa187"/>
    <path d="M 234.479361 159.57441 
L 242.815908 165.771256 
L 247.530602 152.073473 
L 239.159689 147.78864 
z
" clip-path="url(#pb7bdc72198)" style="fill: #2a778e"/>
    <path d="M 171.820359 100.280407 
L 180.113897 105.094164 
L 184.860217 110.422994 
L 176.616832 106.444412 
z
" clip-path="url(#pb7bdc72198)" style="fill: #42be71"/>
    <path d="M 221.523994 160.498321 
L 229.791915 170.970448 
L 234.479361 159.57441 
L 226.186799 151.694476 
z
" clip-path="url(#pb7bdc72198)" style="fill: #2c728e"/>
    <path d="M 247.530602 152.073473 
L 255.956378 155.300457 
L 260.694527 140.449165 
L 252.243105 138.12993 
z
" clip-path="url(#pb7bdc72198)" style="fill: #24868e"/>
    <path d="M 213.269419 148.404463 
L 221.523994 160.498321 
L 226.186799 151.694476 
L 217.917033 142.72235 
z
" clip-path="url(#pb7bdc72198)" style="fill: #26818e"/>
    <path d="M 229.791915 170.970448 
L 238.102842 178.965535 
L 242.815908 165.771256 
L 234.479361 159.57441 
z
" clip-path="url(#pb7bdc72198)" style="fill: #31678e"/>
    <path d="M 205.006318 135.729332 
L 213.269419 148.404463 
L 217.917033 142.72235 
L 209.654096 133.371671 
z
" clip-path="url(#pb7bdc72198)" style="fill: #21918c"/>
    <path d="M 180.113897 105.094164 
L 188.421991 113.077369 
L 193.122229 116.551275 
L 184.860217 110.422994 
z
" clip-path="url(#pb7bdc72198)" style="fill: #37b878"/>
    <path d="M 242.815908 165.771256 
L 251.219923 169.875387 
L 255.956378 155.300457 
L 247.530602 152.073473 
z
" clip-path="url(#pb7bdc72198)" style="fill: #2c738e"/>
    <path d="M 196.72355 123.593709 
L 205.006318 135.729332 
L 209.654096 133.371671 
L 201.389314 124.405022 
z
" clip-path="url(#pb7bdc72198)" style="fill: #1fa088"/>
    <path d="M 188.421991 113.077369 
L 196.72355 123.593709 
L 201.389314 124.405022 
L 193.122229 116.551275 
z
" clip-path="url(#pb7bdc72198)" style="fill: #27ad81"/>
    <path d="M 150.447042 97.014499 
L 158.661607 93.791657 
L 163.567198 98.914312 
L 155.380011 100.880632 
z
" clip-path="url(#pb7bdc72198)" style="fill: #5ec962"/>
    <path d="M 238.102842 178.965535 
L 246.490095 183.89395 
L 251.219923 169.875387 
L 242.815908 165.771256 
z
" clip-path="url(#pb7bdc72198)" style="fill: #34608d"/>
    <path d="M 124.379639 116.469312 
L 132.320156 102.53517 
L 137.351902 102.818941 
L 129.386434 114.735946 
z
" clip-path="url(#pb7bdc72198)" style="fill: #3fbc73"/>
    <path d="M 225.098393 181.781613 
L 233.393396 191.415881 
L 238.102842 178.965535 
L 229.791915 170.970448 
z
" clip-path="url(#pb7bdc72198)" style="fill: #38588c"/>
    <path d="M 216.843066 168.941018 
L 225.098393 181.781613 
L 229.791915 170.970448 
L 221.523994 160.498321 
z
" clip-path="url(#pb7bdc72198)" style="fill: #31678e"/>
    <path d="M 255.956378 155.300457 
L 264.448661 157.371663 
L 269.18496 142.779106 
L 260.694527 140.449165 
z
" clip-path="url(#pb7bdc72198)" style="fill: #24868e"/>
    <path d="M 137.351902 102.818941 
L 145.459921 94.044345 
L 150.447042 97.014499 
L 142.339736 103.919141 
z
" clip-path="url(#pb7bdc72198)" style="fill: #5ec962"/>
    <path d="M 233.393396 191.415881 
L 241.76979 197.095526 
L 246.490095 183.89395 
L 238.102842 178.965535 
z
" clip-path="url(#pb7bdc72198)" style="fill: #3d4d8a"/>
    <path d="M 106.545116 140.115482 
L 114.255163 121.520954 
L 119.33495 118.713474 
L 111.589123 136.107837 
z
" clip-path="url(#pb7bdc72198)" style="fill: #1fa287"/>
    <path d="M 251.219923 169.875387 
L 259.71376 171.697803 
L 264.448661 157.371663 
L 255.956378 155.300457 
z
" clip-path="url(#pb7bdc72198)" style="fill: #2c728e"/>
    <path d="M 208.590816 153.985193 
L 216.843066 168.941018 
L 221.523994 160.498321 
L 213.269419 148.404463 
z
" clip-path="url(#pb7bdc72198)" style="fill: #297b8e"/>
    <path d="M 220.398407 191.830468 
L 228.687733 202.904661 
L 233.393396 191.415881 
L 225.098393 181.781613 
z
" clip-path="url(#pb7bdc72198)" style="fill: #3f4889"/>
    <path d="M 246.490095 183.89395 
L 254.985827 185.484457 
L 259.71376 171.697803 
L 251.219923 169.875387 
z
" clip-path="url(#pb7bdc72198)" style="fill: #355f8d"/>
    <path d="M 228.687733 202.904661 
L 237.059857 209.244689 
L 241.76979 197.095526 
L 233.393396 191.415881 
z
" clip-path="url(#pb7bdc72198)" style="fill: #443a83"/>
    <path d="M 158.661607 93.791657 
L 166.957738 94.900349 
L 171.820359 100.280407 
L 163.567198 98.914312 
z
" clip-path="url(#pb7bdc72198)" style="fill: #6ccd5a"/>
    <path d="M 200.315326 138.250352 
L 208.590816 153.985193 
L 213.269419 148.404463 
L 205.006318 135.729332 
z
" clip-path="url(#pb7bdc72198)" style="fill: #21918c"/>
    <path d="M 212.143332 176.905362 
L 220.398407 191.830468 
L 225.098393 181.781613 
L 216.843066 168.941018 
z
" clip-path="url(#pb7bdc72198)" style="fill: #365d8d"/>
    <path d="M 241.76979 197.095526 
L 250.268407 198.477292 
L 254.985827 185.484457 
L 246.490095 183.89395 
z
" clip-path="url(#pb7bdc72198)" style="fill: #3e4a89"/>
    <path d="M 264.448661 157.371663 
L 273.016517 158.313041 
L 277.714675 145.119827 
L 269.18496 142.779106 
z
" clip-path="url(#pb7bdc72198)" style="fill: #24878e"/>
    <path d="M 259.71376 171.697803 
L 268.315149 171.288296 
L 273.016517 158.313041 
L 264.448661 157.371663 
z
" clip-path="url(#pb7bdc72198)" style="fill: #2b758e"/>
    <path d="M 215.690184 200.96128 
L 223.984246 213.241633 
L 228.687733 202.904661 
L 220.398407 191.830468 
z
" clip-path="url(#pb7bdc72198)" style="fill: #443a83"/>
    <path d="M 192.004212 123.186575 
L 200.315326 138.250352 
L 205.006318 135.729332 
L 196.72355 123.593709 
z
" clip-path="url(#pb7bdc72198)" style="fill: #21a585"/>
    <path d="M 223.984246 213.241633 
L 232.35915 220.136032 
L 237.059857 209.244689 
L 228.687733 202.904661 
z
" clip-path="url(#pb7bdc72198)" style="fill: #482979"/>
    <path d="M 237.059857 209.244689 
L 245.562995 210.446415 
L 250.268407 198.477292 
L 241.76979 197.095526 
z
" clip-path="url(#pb7bdc72198)" style="fill: #453882"/>
    <path d="M 166.957738 94.900349 
L 175.302181 100.492806 
L 180.113897 105.094164 
L 171.820359 100.280407 
z
" clip-path="url(#pb7bdc72198)" style="fill: #67cc5c"/>
    <path d="M 203.880602 159.423197 
L 212.143332 176.905362 
L 216.843066 168.941018 
L 208.590816 153.985193 
z
" clip-path="url(#pb7bdc72198)" style="fill: #2b758e"/>
    <path d="M 119.33495 118.713474 
L 127.249578 103.195978 
L 132.320156 102.53517 
L 124.379639 116.469312 
z
" clip-path="url(#pb7bdc72198)" style="fill: #48c16e"/>
    <path d="M 254.985827 185.484457 
L 263.616059 183.808192 
L 268.315149 171.288296 
L 259.71376 171.697803 
z
" clip-path="url(#pb7bdc72198)" style="fill: #33638d"/>
    <path d="M 183.6606 110.201149 
L 192.004212 123.186575 
L 196.72355 123.593709 
L 188.421991 113.077369 
z
" clip-path="url(#pb7bdc72198)" style="fill: #37b878"/>
    <path d="M 175.302181 100.492806 
L 183.6606 110.201149 
L 188.421991 113.077369 
L 180.113897 105.094164 
z
" clip-path="url(#pb7bdc72198)" style="fill: #52c569"/>
    <path d="M 207.423237 184.287902 
L 215.690184 200.96128 
L 220.398407 191.830468 
L 212.143332 176.905362 
z
" clip-path="url(#pb7bdc72198)" style="fill: #3a538b"/>
    <path d="M 101.460727 144.15521 
L 109.143135 124.929637 
L 114.255163 121.520954 
L 106.545116 140.115482 
z
" clip-path="url(#pb7bdc72198)" style="fill: #20a386"/>
    <path d="M 273.016517 158.313041 
L 281.664809 158.272216 
L 286.283944 147.471402 
L 277.714675 145.119827 
z
" clip-path="url(#pb7bdc72198)" style="fill: #23898e"/>
    <path d="M 145.459921 94.044345 
L 153.696858 89.700244 
L 158.661607 93.791657 
L 150.447042 97.014499 
z
" clip-path="url(#pb7bdc72198)" style="fill: #81d34d"/>
    <path d="M 232.35915 220.136032 
L 240.869065 221.191133 
L 245.562995 210.446415 
L 237.059857 209.244689 
z
" clip-path="url(#pb7bdc72198)" style="fill: #482576"/>
    <path d="M 250.268407 198.477292 
L 258.922963 195.650841 
L 263.616059 183.808192 
L 254.985827 185.484457 
z
" clip-path="url(#pb7bdc72198)" style="fill: #3b518b"/>
    <path d="M 219.279674 222.267689 
L 227.664648 229.598036 
L 232.35915 220.136032 
L 223.984246 213.241633 
z
" clip-path="url(#pb7bdc72198)" style="fill: #481b6d"/>
    <path d="M 210.970669 209.043348 
L 219.279674 222.267689 
L 223.984246 213.241633 
L 215.690184 200.96128 
z
" clip-path="url(#pb7bdc72198)" style="fill: #472e7c"/>
    <path d="M 132.320156 102.53517 
L 140.42432 92.177815 
L 145.459921 94.044345 
L 137.351902 102.818941 
z
" clip-path="url(#pb7bdc72198)" style="fill: #75d054"/>
    <path d="M 195.580941 140.977985 
L 203.880602 159.423197 
L 208.590816 153.985193 
L 200.315326 138.250352 
z
" clip-path="url(#pb7bdc72198)" style="fill: #21918c"/>
    <path d="M 268.315149 171.288296 
L 277.03403 168.931656 
L 281.664809 158.272216 
L 273.016517 158.313041 
z
" clip-path="url(#pb7bdc72198)" style="fill: #297a8e"/>
    <path d="M 199.137852 164.681759 
L 207.423237 184.287902 
L 212.143332 176.905362 
L 203.880602 159.423197 
z
" clip-path="url(#pb7bdc72198)" style="fill: #2c718e"/>
    <path d="M 245.562995 210.446415 
L 254.237749 206.615025 
L 258.922963 195.650841 
L 250.268407 198.477292 
z
" clip-path="url(#pb7bdc72198)" style="fill: #424086"/>
    <path d="M 227.664648 229.598036 
L 236.184184 230.54378 
L 240.869065 221.191133 
L 232.35915 220.136032 
z
" clip-path="url(#pb7bdc72198)" style="fill: #481769"/>
    <path d="M 202.680416 191.001399 
L 210.970669 209.043348 
L 215.690184 200.96128 
L 207.423237 184.287902 
z
" clip-path="url(#pb7bdc72198)" style="fill: #3e4c8a"/>
    <path d="M 281.664809 158.272216 
L 290.393025 157.504008 
L 294.893044 149.833908 
L 286.283944 147.471402 
z
" clip-path="url(#pb7bdc72198)" style="fill: #228b8d"/>
    <path d="M 263.616059 183.808192 
L 272.396106 179.273824 
L 277.03403 168.931656 
L 268.315149 171.288296 
z
" clip-path="url(#pb7bdc72198)" style="fill: #2e6d8e"/>
    <path d="M 187.231933 123.311028 
L 195.580941 140.977985 
L 200.315326 138.250352 
L 192.004212 123.186575 
z
" clip-path="url(#pb7bdc72198)" style="fill: #25ab82"/>
    <path d="M 214.569273 229.857794 
L 222.971632 237.496079 
L 227.664648 229.598036 
L 219.279674 222.267689 
z
" clip-path="url(#pb7bdc72198)" style="fill: #471063"/>
    <path d="M 153.696858 89.700244 
L 162.032881 90.580646 
L 166.957738 94.900349 
L 158.661607 93.791657 
z
" clip-path="url(#pb7bdc72198)" style="fill: #93d741"/>
    <path d="M 206.235659 215.973696 
L 214.569273 229.857794 
L 219.279674 222.267689 
L 210.970669 209.043348 
z
" clip-path="url(#pb7bdc72198)" style="fill: #482576"/>
    <path d="M 96.335469 148.22741 
L 104.001646 128.96151 
L 109.143135 124.929637 
L 101.460727 144.15521 
z
" clip-path="url(#pb7bdc72198)" style="fill: #20a486"/>
    <path d="M 114.255163 121.520954 
L 122.145696 104.904514 
L 127.249578 103.195978 
L 119.33495 118.713474 
z
" clip-path="url(#pb7bdc72198)" style="fill: #50c46a"/>
    <path d="M 240.869065 221.191133 
L 249.56049 216.524561 
L 254.237749 206.615025 
L 245.562995 210.446415 
z
" clip-path="url(#pb7bdc72198)" style="fill: #46307e"/>
    <path d="M 258.922963 195.650841 
L 267.754223 189.133341 
L 272.396106 179.273824 
L 263.616059 183.808192 
z
" clip-path="url(#pb7bdc72198)" style="fill: #355f8d"/>
    <path d="M 178.839774 108.123242 
L 187.231933 123.311028 
L 192.004212 123.186575 
L 183.6606 110.201149 
z
" clip-path="url(#pb7bdc72198)" style="fill: #48c16e"/>
    <path d="M 190.803266 143.95102 
L 199.137852 164.681759 
L 203.880602 159.423197 
L 195.580941 140.977985 
z
" clip-path="url(#pb7bdc72198)" style="fill: #21918c"/>
    <path d="M 222.971632 237.496079 
L 231.504158 238.372709 
L 236.184184 230.54378 
L 227.664648 229.598036 
z
" clip-path="url(#pb7bdc72198)" style="fill: #460a5d"/>
    <path d="M 277.03403 168.931656 
L 285.870161 165.121929 
L 290.393025 157.504008 
L 281.664809 158.272216 
z
" clip-path="url(#pb7bdc72198)" style="fill: #26828e"/>
    <path d="M 162.032881 90.580646 
L 170.427961 96.87176 
L 175.302181 100.492806 
L 166.957738 94.900349 
z
" clip-path="url(#pb7bdc72198)" style="fill: #8ed645"/>
    <path d="M 194.361361 169.729777 
L 202.680416 191.001399 
L 207.423237 184.287902 
L 199.137852 164.681759 
z
" clip-path="url(#pb7bdc72198)" style="fill: #2e6e8e"/>
    <path d="M 290.393025 157.504008 
L 299.194746 156.344733 
L 303.542253 152.20742 
L 294.893044 149.833908 
z
" clip-path="url(#pb7bdc72198)" style="fill: #218f8d"/>
    <path d="M 197.911784 196.976875 
L 206.235659 215.973696 
L 210.970669 209.043348 
L 202.680416 191.001399 
z
" clip-path="url(#pb7bdc72198)" style="fill: #404688"/>
    <path d="M 170.427961 96.87176 
L 178.839774 108.123242 
L 183.6606 110.201149 
L 175.302181 100.492806 
z
" clip-path="url(#pb7bdc72198)" style="fill: #70cf57"/>
    <path d="M 140.42432 92.177815 
L 148.678967 86.884127 
L 153.696858 89.700244 
L 145.459921 94.044345 
z
" clip-path="url(#pb7bdc72198)" style="fill: #a2da37"/>
    <path d="M 236.184184 230.54378 
L 244.889518 225.231891 
L 249.56049 216.524561 
L 240.869065 221.191133 
z
" clip-path="url(#pb7bdc72198)" style="fill: #482374"/>
    <path d="M 127.249578 103.195978 
L 135.346925 91.594482 
L 140.42432 92.177815 
L 132.320156 102.53517 
z
" clip-path="url(#pb7bdc72198)" style="fill: #8bd646"/>
    <path d="M 209.847014 235.923204 
L 218.273897 243.734678 
L 222.971632 237.496079 
L 214.569273 229.857794 
z
" clip-path="url(#pb7bdc72198)" style="fill: #46085c"/>
    <path d="M 201.479978 221.679123 
L 209.847014 235.923204 
L 214.569273 229.857794 
L 206.235659 215.973696 
z
" clip-path="url(#pb7bdc72198)" style="fill: #481f70"/>
    <path d="M 254.237749 206.615025 
L 263.110193 198.359407 
L 267.754223 189.133341 
L 258.922963 195.650841 
z
" clip-path="url(#pb7bdc72198)" style="fill: #3b518b"/>
    <path d="M 272.396106 179.273824 
L 281.326957 172.593679 
L 285.870161 165.121929 
L 277.03403 168.931656 
z
" clip-path="url(#pb7bdc72198)" style="fill: #29798e"/>
    <path d="M 91.168849 152.332475 
L 98.833252 133.6219 
L 104.001646 128.96151 
L 96.335469 148.22741 
z
" clip-path="url(#pb7bdc72198)" style="fill: #20a386"/>
    <path d="M 182.408165 124.081997 
L 190.803266 143.95102 
L 195.580941 140.977985 
L 187.231933 123.311028 
z
" clip-path="url(#pb7bdc72198)" style="fill: #28ae80"/>
    <path d="M 218.273897 243.734678 
L 226.823248 244.584524 
L 231.504158 238.372709 
L 222.971632 237.496079 
z
" clip-path="url(#pb7bdc72198)" style="fill: #440256"/>
    <path d="M 109.143135 124.929637 
L 117.014245 107.735277 
L 122.145696 104.904514 
L 114.255163 121.520954 
z
" clip-path="url(#pb7bdc72198)" style="fill: #56c667"/>
    <path d="M 231.504158 238.372709 
L 240.221537 232.620931 
L 244.889518 225.231891 
L 236.184184 230.54378 
z
" clip-path="url(#pb7bdc72198)" style="fill: #48186a"/>
    <path d="M 285.870161 165.121929 
L 294.811872 160.515703 
L 299.194746 156.344733 
L 290.393025 157.504008 
z
" clip-path="url(#pb7bdc72198)" style="fill: #228b8d"/>
    <path d="M 189.549681 174.542599 
L 197.911784 196.976875 
L 202.680416 191.001399 
L 194.361361 169.729777 
z
" clip-path="url(#pb7bdc72198)" style="fill: #2f6b8e"/>
    <path d="M 185.982664 147.202651 
L 194.361361 169.729777 
L 199.137852 164.681759 
L 190.803266 143.95102 
z
" clip-path="url(#pb7bdc72198)" style="fill: #21918c"/>
    <path d="M 193.113656 202.165214 
L 201.479978 221.679123 
L 206.235659 215.973696 
L 197.911784 196.976875 
z
" clip-path="url(#pb7bdc72198)" style="fill: #414287"/>
    <path d="M 249.56049 216.524561 
L 258.464437 206.819325 
L 263.110193 198.359407 
L 254.237749 206.615025 
z
" clip-path="url(#pb7bdc72198)" style="fill: #404688"/>
    <path d="M 148.678967 86.884127 
L 157.051313 87.573334 
L 162.032881 90.580646 
L 153.696858 89.700244 
z
" clip-path="url(#pb7bdc72198)" style="fill: #bade28"/>
    <path d="M 267.754223 189.133341 
L 276.765225 179.830218 
L 281.326957 172.593679 
L 272.396106 179.273824 
z
" clip-path="url(#pb7bdc72198)" style="fill: #2d718e"/>
    <path d="M 205.105832 240.413016 
L 213.564015 248.259055 
L 218.273897 243.734678 
L 209.847014 235.923204 
z
" clip-path="url(#pb7bdc72198)" style="fill: #450559"/>
    <path d="M 173.962476 107.025604 
L 182.408165 124.081997 
L 187.231933 123.311028 
L 178.839774 108.123242 
z
" clip-path="url(#pb7bdc72198)" style="fill: #5ac864"/>
    <path d="M 196.697675 226.117671 
L 205.105832 240.413016 
L 209.847014 235.923204 
L 201.479978 221.679123 
z
" clip-path="url(#pb7bdc72198)" style="fill: #481d6f"/>
    <path d="M 122.145696 104.904514 
L 130.235146 92.439326 
L 135.346925 91.594482 
L 127.249578 103.195978 
z
" clip-path="url(#pb7bdc72198)" style="fill: #9bd93c"/>
    <path d="M 85.960363 156.470803 
L 93.640146 138.899223 
L 98.833252 133.6219 
L 91.168849 152.332475 
z
" clip-path="url(#pb7bdc72198)" style="fill: #1fa287"/>
    <path d="M 157.051313 87.573334 
L 165.495652 94.461195 
L 170.427961 96.87176 
L 162.032881 90.580646 
z
" clip-path="url(#pb7bdc72198)" style="fill: #b2dd2d"/>
    <path d="M 165.495652 94.461195 
L 173.962476 107.025604 
L 178.839774 108.123242 
L 170.427961 96.87176 
z
" clip-path="url(#pb7bdc72198)" style="fill: #8ed645"/>
    <path d="M 244.889518 225.231891 
L 253.816018 214.401493 
L 258.464437 206.819325 
L 249.56049 216.524561 
z
" clip-path="url(#pb7bdc72198)" style="fill: #443b84"/>
    <path d="M 135.346925 91.594482 
L 143.615222 85.554873 
L 148.678967 86.884127 
L 140.42432 92.177815 
z
" clip-path="url(#pb7bdc72198)" style="fill: #c0df25"/>
    <path d="M 213.564015 248.259055 
L 222.134401 249.125647 
L 226.823248 244.584524 
L 218.273897 243.734678 
z
" clip-path="url(#pb7bdc72198)" style="fill: #440154"/>
    <path d="M 226.823248 244.584524 
L 235.551801 238.609233 
L 240.221537 232.620931 
L 231.504158 238.372709 
z
" clip-path="url(#pb7bdc72198)" style="fill: #471164"/>
    <path d="M 104.001646 128.96151 
L 111.860886 111.731368 
L 117.014245 107.735277 
L 109.143135 124.929637 
z
" clip-path="url(#pb7bdc72198)" style="fill: #58c765"/>
    <path d="M 281.326957 172.593679 
L 290.393197 164.720744 
L 294.811872 160.515703 
L 285.870161 165.121929 
z
" clip-path="url(#pb7bdc72198)" style="fill: #23888e"/>
    <path d="M 177.535098 125.598275 
L 185.982664 147.202651 
L 190.803266 143.95102 
L 182.408165 124.081997 
z
" clip-path="url(#pb7bdc72198)" style="fill: #2db27d"/>
    <path d="M 184.70116 179.1027 
L 193.113656 202.165214 
L 197.911784 196.976875 
L 189.549681 174.542599 
z
" clip-path="url(#pb7bdc72198)" style="fill: #30698e"/>
    <path d="M 263.110193 198.359407 
L 272.186028 186.749779 
L 276.765225 179.830218 
L 267.754223 189.133341 
z
" clip-path="url(#pb7bdc72198)" style="fill: #30698e"/>
    <path d="M 188.281882 206.538318 
L 196.697675 226.117671 
L 201.479978 221.679123 
L 193.113656 202.165214 
z
" clip-path="url(#pb7bdc72198)" style="fill: #424186"/>
    <path d="M 181.119715 150.759498 
L 189.549681 174.542599 
L 194.361361 169.729777 
L 185.982664 147.202651 
z
" clip-path="url(#pb7bdc72198)" style="fill: #21918c"/>
    <path d="M 200.337892 243.315138 
L 208.833609 251.056104 
L 213.564015 248.259055 
L 205.105832 240.413016 
z
" clip-path="url(#pb7bdc72198)" style="fill: #46085c"/>
    <path d="M 240.221537 232.620931 
L 249.162715 221.017833 
L 253.816018 214.401493 
L 244.889518 225.231891 
z
" clip-path="url(#pb7bdc72198)" style="fill: #463480"/>
    <path d="M 191.882255 229.279533 
L 200.337892 243.315138 
L 205.105832 240.413016 
L 196.697675 226.117671 
z
" clip-path="url(#pb7bdc72198)" style="fill: #481f70"/>
    <path d="M 80.7095 160.642802 
L 88.424018 144.765275 
L 93.640146 138.899223 
L 85.960363 156.470803 
z
" clip-path="url(#pb7bdc72198)" style="fill: #1fa187"/>
    <path d="M 169.032787 107.065346 
L 177.535098 125.598275 
L 182.408165 124.081997 
L 173.962476 107.025604 
z
" clip-path="url(#pb7bdc72198)" style="fill: #69cd5b"/>
    <path d="M 143.615222 85.554873 
L 152.019953 86.097018 
L 157.051313 87.573334 
L 148.678967 86.884127 
z
" clip-path="url(#pb7bdc72198)" style="fill: #d8e219"/>
    <path d="M 258.464437 206.819325 
L 267.589666 193.279964 
L 272.186028 186.749779 
L 263.110193 198.359407 
z
" clip-path="url(#pb7bdc72198)" style="fill: #33628d"/>
    <path d="M 117.014245 107.735277 
L 125.096783 94.817232 
L 130.235146 92.439326 
L 122.145696 104.904514 
z
" clip-path="url(#pb7bdc72198)" style="fill: #a5db36"/>
    <path d="M 222.134401 249.125647 
L 230.874311 243.149515 
L 235.551801 238.609233 
L 226.823248 244.584524 
z
" clip-path="url(#pb7bdc72198)" style="fill: #471063"/>
    <path d="M 276.765225 179.830218 
L 285.938281 168.960273 
L 290.393197 164.720744 
L 281.326957 172.593679 
z
" clip-path="url(#pb7bdc72198)" style="fill: #25858e"/>
    <path d="M 208.833609 251.056104 
L 217.429531 251.983281 
L 222.134401 249.125647 
L 213.564015 248.259055 
z
" clip-path="url(#pb7bdc72198)" style="fill: #440256"/>
    <path d="M 98.833252 133.6219 
L 106.690926 116.90282 
L 111.860886 111.731368 
L 104.001646 128.96151 
z
" clip-path="url(#pb7bdc72198)" style="fill: #56c667"/>
    <path d="M 179.813995 183.400166 
L 188.281882 206.538318 
L 193.113656 202.165214 
L 184.70116 179.1027 
z
" clip-path="url(#pb7bdc72198)" style="fill: #30698e"/>
    <path d="M 176.215179 154.640803 
L 184.70116 179.1027 
L 189.549681 174.542599 
L 181.119715 150.759498 
z
" clip-path="url(#pb7bdc72198)" style="fill: #21918c"/>
    <path d="M 172.615555 127.939269 
L 181.119715 150.759498 
L 185.982664 147.202651 
L 177.535098 125.598275 
z
" clip-path="url(#pb7bdc72198)" style="fill: #31b57b"/>
    <path d="M 130.235146 92.439326 
L 138.513869 85.883605 
L 143.615222 85.554873 
L 135.346925 91.594482 
z
" clip-path="url(#pb7bdc72198)" style="fill: #d5e21a"/>
    <path d="M 183.412003 210.089822 
L 191.882255 229.279533 
L 196.697675 226.117671 
L 188.281882 206.538318 
z
" clip-path="url(#pb7bdc72198)" style="fill: #414287"/>
    <path d="M 160.511012 93.460473 
L 169.032787 107.065346 
L 173.962476 107.025604 
L 165.495652 94.461195 
z
" clip-path="url(#pb7bdc72198)" style="fill: #a8db34"/>
    <path d="M 152.019953 86.097018 
L 160.511012 93.460473 
L 165.495652 94.461195 
L 157.051313 87.573334 
z
" clip-path="url(#pb7bdc72198)" style="fill: #d0e11c"/>
    <path d="M 235.551801 238.609233 
L 244.501139 226.605681 
L 249.162715 221.017833 
L 240.221537 232.620931 
z
" clip-path="url(#pb7bdc72198)" style="fill: #472f7d"/>
    <path d="M 253.816018 214.401493 
L 262.975669 199.359573 
L 267.589666 193.279964 
L 258.464437 206.819325 
z
" clip-path="url(#pb7bdc72198)" style="fill: #365d8d"/>
    <path d="M 75.415741 164.848882 
L 83.185941 151.176045 
L 88.424018 144.765275 
L 80.7095 160.642802 
z
" clip-path="url(#pb7bdc72198)" style="fill: #1fa088"/>
    <path d="M 195.534878 244.656685 
L 204.07367 252.154816 
L 208.833609 251.056104 
L 200.337892 243.315138 
z
" clip-path="url(#pb7bdc72198)" style="fill: #471063"/>
    <path d="M 272.186028 186.749779 
L 281.446676 173.234717 
L 285.938281 168.960273 
L 276.765225 179.830218 
z
" clip-path="url(#pb7bdc72198)" style="fill: #26828e"/>
    <path d="M 187.026915 231.187405 
L 195.534878 244.656685 
L 200.337892 243.315138 
L 191.882255 229.279533 
z
" clip-path="url(#pb7bdc72198)" style="fill: #482576"/>
    <path d="M 93.640146 138.899223 
L 101.509034 123.226072 
L 106.690926 116.90282 
L 98.833252 133.6219 
z
" clip-path="url(#pb7bdc72198)" style="fill: #50c46a"/>
    <path d="M 111.860886 111.731368 
L 119.939647 98.78885 
L 125.096783 94.817232 
L 117.014245 107.735277 
z
" clip-path="url(#pb7bdc72198)" style="fill: #a8db34"/>
    <path d="M 217.429531 251.983281 
L 226.182053 246.230604 
L 230.874311 243.149515 
L 222.134401 249.125647 
z
" clip-path="url(#pb7bdc72198)" style="fill: #471164"/>
    <path d="M 164.055721 108.369165 
L 172.615555 127.939269 
L 177.535098 125.598275 
L 169.032787 107.065346 
z
" clip-path="url(#pb7bdc72198)" style="fill: #75d054"/>
    <path d="M 174.886288 187.433005 
L 183.412003 210.089822 
L 188.281882 206.538318 
L 179.813995 183.400166 
z
" clip-path="url(#pb7bdc72198)" style="fill: #30698e"/>
    <path d="M 138.513869 85.883605 
L 146.946813 86.328591 
L 152.019953 86.097018 
L 143.615222 85.554873 
z
" clip-path="url(#pb7bdc72198)" style="fill: #efe51c"/>
    <path d="M 171.269935 158.857836 
L 179.813995 183.400166 
L 184.70116 179.1027 
L 176.215179 154.640803 
z
" clip-path="url(#pb7bdc72198)" style="fill: #21918c"/>
    <path d="M 204.07367 252.154816 
L 212.699815 253.18583 
L 217.429531 251.983281 
L 208.833609 251.056104 
z
" clip-path="url(#pb7bdc72198)" style="fill: #460a5d"/>
    <path d="M 167.652844 131.162305 
L 176.215179 154.640803 
L 181.119715 150.759498 
L 172.615555 127.939269 
z
" clip-path="url(#pb7bdc72198)" style="fill: #34b679"/>
    <path d="M 178.499416 212.835353 
L 187.026915 231.187405 
L 191.882255 229.279533 
L 183.412003 210.089822 
z
" clip-path="url(#pb7bdc72198)" style="fill: #404688"/>
    <path d="M 125.096783 94.817232 
L 133.38373 87.994268 
L 138.513869 85.883605 
L 130.235146 92.439326 
z
" clip-path="url(#pb7bdc72198)" style="fill: #e2e418"/>
    <path d="M 230.874311 243.149515 
L 239.826874 231.12914 
L 244.501139 226.605681 
L 235.551801 238.609233 
z
" clip-path="url(#pb7bdc72198)" style="fill: #472e7c"/>
    <path d="M 249.162715 221.017833 
L 258.342834 204.940135 
L 262.975669 199.359573 
L 253.816018 214.401493 
z
" clip-path="url(#pb7bdc72198)" style="fill: #38598c"/>
    <path d="M 155.480887 94.030748 
L 164.055721 108.369165 
L 169.032787 107.065346 
L 160.511012 93.460473 
z
" clip-path="url(#pb7bdc72198)" style="fill: #bade28"/>
    <path d="M 70.078558 169.089465 
L 77.926268 158.073021 
L 83.185941 151.176045 
L 75.415741 164.848882 
z
" clip-path="url(#pb7bdc72198)" style="fill: #1f9e89"/>
    <path d="M 146.946813 86.328591 
L 155.480887 94.030748 
L 160.511012 93.460473 
L 152.019953 86.097018 
z
" clip-path="url(#pb7bdc72198)" style="fill: #e5e419"/>
    <path d="M 267.589666 193.279964 
L 276.917927 177.54451 
L 281.446676 173.234717 
L 272.186028 186.749779 
z
" clip-path="url(#pb7bdc72198)" style="fill: #26818e"/>
    <path d="M 88.424018 144.765275 
L 96.318983 130.644643 
L 101.509034 123.226072 
L 93.640146 138.899223 
z
" clip-path="url(#pb7bdc72198)" style="fill: #48c16e"/>
    <path d="M 106.690926 116.90282 
L 114.771165 104.368051 
L 119.939647 98.78885 
L 111.860886 111.731368 
z
" clip-path="url(#pb7bdc72198)" style="fill: #a5db36"/>
    <path d="M 190.688301 244.503837 
L 199.274878 251.62615 
L 204.07367 252.154816 
L 195.534878 244.656685 
z
" clip-path="url(#pb7bdc72198)" style="fill: #481b6d"/>
    <path d="M 182.124805 231.896298 
L 190.688301 244.503837 
L 195.534878 244.656685 
L 187.026915 231.187405 
z
" clip-path="url(#pb7bdc72198)" style="fill: #472e7c"/>
    <path d="M 159.036979 111.028674 
L 167.652844 131.162305 
L 172.615555 127.939269 
L 164.055721 108.369165 
z
" clip-path="url(#pb7bdc72198)" style="fill: #7cd250"/>
    <path d="M 212.699815 253.18583 
L 221.467259 247.877822 
L 226.182053 246.230604 
L 217.429531 251.983281 
z
" clip-path="url(#pb7bdc72198)" style="fill: #48186a"/>
    <path d="M 169.916107 191.207242 
L 178.499416 212.835353 
L 183.412003 210.089822 
L 174.886288 187.433005 
z
" clip-path="url(#pb7bdc72198)" style="fill: #2f6b8e"/>
    <path d="M 166.284923 163.41353 
L 174.886288 187.433005 
L 179.813995 183.400166 
L 171.269935 158.857836 
z
" clip-path="url(#pb7bdc72198)" style="fill: #21918c"/>
    <path d="M 162.650589 135.300608 
L 171.269935 158.857836 
L 176.215179 154.640803 
L 167.652844 131.162305 
z
" clip-path="url(#pb7bdc72198)" style="fill: #34b679"/>
    <path d="M 244.501139 226.605681 
L 253.689272 209.987125 
L 258.342834 204.940135 
L 249.162715 221.017833 
z
" clip-path="url(#pb7bdc72198)" style="fill: #39558c"/>
    <path d="M 133.38373 87.994268 
L 141.840622 88.396214 
L 146.946813 86.328591 
L 138.513869 85.883605 
z
" clip-path="url(#pb7bdc72198)" style="fill: #fbe723"/>
    <path d="M 64.697415 173.364975 
L 72.644557 165.384933 
L 77.926268 158.073021 
L 70.078558 169.089465 
z
" clip-path="url(#pb7bdc72198)" style="fill: #1e9b8a"/>
    <path d="M 119.939647 98.78885 
L 128.233777 91.958528 
L 133.38373 87.994268 
L 125.096783 94.817232 
z
" clip-path="url(#pb7bdc72198)" style="fill: #e5e419"/>
    <path d="M 226.182053 246.230604 
L 235.134654 234.57991 
L 239.826874 231.12914 
L 230.874311 243.149515 
z
" clip-path="url(#pb7bdc72198)" style="fill: #472f7d"/>
    <path d="M 83.185941 151.176045 
L 91.12341 139.070963 
L 96.318983 130.644643 
L 88.424018 144.765275 
z
" clip-path="url(#pb7bdc72198)" style="fill: #3fbc73"/>
    <path d="M 199.274878 251.62615 
L 207.936008 252.802764 
L 212.699815 253.18583 
L 204.07367 252.154816 
z
" clip-path="url(#pb7bdc72198)" style="fill: #481769"/>
    <path d="M 173.539548 214.812342 
L 182.124805 231.896298 
L 187.026915 231.187405 
L 178.499416 212.835353 
z
" clip-path="url(#pb7bdc72198)" style="fill: #3e4c8a"/>
    <path d="M 262.975669 199.359573 
L 272.351571 181.89009 
L 276.917927 177.54451 
L 267.589666 193.279964 
z
" clip-path="url(#pb7bdc72198)" style="fill: #277f8e"/>
    <path d="M 150.412892 96.28871 
L 159.036979 111.028674 
L 164.055721 108.369165 
L 155.480887 94.030748 
z
" clip-path="url(#pb7bdc72198)" style="fill: #c8e020"/>
    <path d="M 101.509034 123.226072 
L 109.597986 111.521164 
L 114.771165 104.368051 
L 106.690926 116.90282 
z
" clip-path="url(#pb7bdc72198)" style="fill: #9bd93c"/>
    <path d="M 141.840622 88.396214 
L 150.412892 96.28871 
L 155.480887 94.030748 
L 146.946813 86.328591 
z
" clip-path="url(#pb7bdc72198)" style="fill: #f1e51d"/>
    <path d="M 161.261076 168.302366 
L 169.916107 191.207242 
L 174.886288 187.433005 
L 166.284923 163.41353 
z
" clip-path="url(#pb7bdc72198)" style="fill: #21918c"/>
    <path d="M 153.982671 115.096884 
L 162.650589 135.300608 
L 167.652844 131.162305 
L 159.036979 111.028674 
z
" clip-path="url(#pb7bdc72198)" style="fill: #7fd34e"/>
    <path d="M 77.926268 158.073021 
L 85.923627 148.389265 
L 91.12341 139.070963 
L 83.185941 151.176045 
z
" clip-path="url(#pb7bdc72198)" style="fill: #34b679"/>
    <path d="M 157.612541 140.362073 
L 166.284923 163.41353 
L 171.269935 158.857836 
L 162.650589 135.300608 
z
" clip-path="url(#pb7bdc72198)" style="fill: #34b679"/>
    <path d="M 164.901549 194.736833 
L 173.539548 214.812342 
L 178.499416 212.835353 
L 169.916107 191.207242 
z
" clip-path="url(#pb7bdc72198)" style="fill: #2e6e8e"/>
    <path d="M 59.271766 177.675847 
L 67.339517 173.029869 
L 72.644557 165.384933 
L 64.697415 173.364975 
z
" clip-path="url(#pb7bdc72198)" style="fill: #1f988b"/>
    <path d="M 239.826874 231.12914 
L 249.012485 214.480846 
L 253.689272 209.987125 
L 244.501139 226.605681 
z
" clip-path="url(#pb7bdc72198)" style="fill: #3a548c"/>
    <path d="M 114.771165 104.368051 
L 123.072665 97.792645 
L 128.233777 91.958528 
L 119.939647 98.78885 
z
" clip-path="url(#pb7bdc72198)" style="fill: #e2e418"/>
    <path d="M 128.233777 91.958528 
L 136.710401 92.373999 
L 141.840622 88.396214 
L 133.38373 87.994268 
z
" clip-path="url(#pb7bdc72198)" style="fill: #fde725"/>
    <path d="M 207.936008 252.802764 
L 216.721687 248.15282 
L 221.467259 247.877822 
L 212.699815 253.18583 
z
" clip-path="url(#pb7bdc72198)" style="fill: #482374"/>
    <path d="M 96.318983 130.644643 
L 104.425613 120.168025 
L 109.597986 111.521164 
L 101.509034 123.226072 
z
" clip-path="url(#pb7bdc72198)" style="fill: #8bd646"/>
    <path d="M 177.169288 231.492793 
L 185.789813 242.961105 
L 190.688301 244.503837 
L 182.124805 231.896298 
z
" clip-path="url(#pb7bdc72198)" style="fill: #443a83"/>
    <path d="M 185.789813 242.961105 
L 194.427946 249.582347 
L 199.274878 251.62615 
L 190.688301 244.503837 
z
" clip-path="url(#pb7bdc72198)" style="fill: #482979"/>
    <path d="M 258.342834 204.940135 
L 267.747139 186.271907 
L 272.351571 181.89009 
L 262.975669 199.359573 
z
" clip-path="url(#pb7bdc72198)" style="fill: #277e8e"/>
    <path d="M 221.467259 247.877822 
L 230.418558 236.977611 
L 235.134654 234.57991 
L 226.182053 246.230604 
z
" clip-path="url(#pb7bdc72198)" style="fill: #463480"/>
    <path d="M 145.315029 100.301846 
L 153.982671 115.096884 
L 159.036979 111.028674 
L 150.412892 96.28871 
z
" clip-path="url(#pb7bdc72198)" style="fill: #cae11f"/>
    <path d="M 168.528031 216.079377 
L 177.169288 231.492793 
L 182.124805 231.896298 
L 173.539548 214.812342 
z
" clip-path="url(#pb7bdc72198)" style="fill: #3a538b"/>
    <path d="M 136.710401 92.373999 
L 145.315029 100.301846 
L 150.412892 96.28871 
L 141.840622 88.396214 
z
" clip-path="url(#pb7bdc72198)" style="fill: #f6e620"/>
    <path d="M 72.644557 165.384933 
L 80.719474 158.459396 
L 85.923627 148.389265 
L 77.926268 158.073021 
z
" clip-path="url(#pb7bdc72198)" style="fill: #29af7f"/>
    <path d="M 194.427946 249.582347 
L 203.128779 250.943919 
L 207.936008 252.802764 
L 199.274878 251.62615 
z
" clip-path="url(#pb7bdc72198)" style="fill: #482576"/>
    <path d="M 91.12341 139.070963 
L 99.258067 130.184806 
L 104.425613 120.168025 
L 96.318983 130.644643 
z
" clip-path="url(#pb7bdc72198)" style="fill: #75d054"/>
    <path d="M 148.898998 120.586054 
L 157.612541 140.362073 
L 162.650589 135.300608 
L 153.982671 115.096884 
z
" clip-path="url(#pb7bdc72198)" style="fill: #7cd250"/>
    <path d="M 156.199254 173.510494 
L 164.901549 194.736833 
L 169.916107 191.207242 
L 161.261076 168.302366 
z
" clip-path="url(#pb7bdc72198)" style="fill: #21918c"/>
    <path d="M 152.542372 146.328872 
L 161.261076 168.302366 
L 166.284923 163.41353 
L 157.612541 140.362073 
z
" clip-path="url(#pb7bdc72198)" style="fill: #31b57b"/>
    <path d="M 53.801057 182.022521 
L 62.008998 180.917686 
L 67.339517 173.029869 
L 59.271766 177.675847 
z
" clip-path="url(#pb7bdc72198)" style="fill: #1f958b"/>
    <path d="M 109.597986 111.521164 
L 117.908276 105.456544 
L 123.072665 97.792645 
L 114.771165 104.368051 
z
" clip-path="url(#pb7bdc72198)" style="fill: #d5e21a"/>
    <path d="M 235.134654 234.57991 
L 244.309456 218.416974 
L 249.012485 214.480846 
L 239.826874 231.12914 
z
" clip-path="url(#pb7bdc72198)" style="fill: #39558c"/>
    <path d="M 123.072665 97.792645 
L 131.564993 98.278746 
L 136.710401 92.373999 
L 128.233777 91.958528 
z
" clip-path="url(#pb7bdc72198)" style="fill: #fbe723"/>
    <path d="M 159.840804 198.043362 
L 168.528031 216.079377 
L 173.539548 214.812342 
L 164.901549 194.736833 
z
" clip-path="url(#pb7bdc72198)" style="fill: #2c718e"/>
    <path d="M 253.689272 209.987125 
L 263.104151 190.690415 
L 267.747139 186.271907 
L 258.342834 204.940135 
z
" clip-path="url(#pb7bdc72198)" style="fill: #287d8e"/>
    <path d="M 67.339517 173.029869 
L 75.509236 169.121356 
L 80.719474 158.459396 
L 72.644557 165.384933 
z
" clip-path="url(#pb7bdc72198)" style="fill: #22a785"/>
    <path d="M 85.923627 148.389265 
L 94.097624 141.408431 
L 99.258067 130.184806 
L 91.12341 139.070963 
z
" clip-path="url(#pb7bdc72198)" style="fill: #5cc863"/>
    <path d="M 140.195281 106.085546 
L 148.898998 120.586054 
L 153.982671 115.096884 
L 145.315029 100.301846 
z
" clip-path="url(#pb7bdc72198)" style="fill: #c8e020"/>
    <path d="M 131.564993 98.278746 
L 140.195281 106.085546 
L 145.315029 100.301846 
L 136.710401 92.373999 
z
" clip-path="url(#pb7bdc72198)" style="fill: #f1e51d"/>
    <path d="M 216.721687 248.15282 
L 225.672228 238.369585 
L 230.418558 236.977611 
L 221.467259 247.877822 
z
" clip-path="url(#pb7bdc72198)" style="fill: #443b84"/>
    <path d="M 104.425613 120.168025 
L 112.747278 114.855133 
L 117.908276 105.456544 
L 109.597986 111.521164 
z
" clip-path="url(#pb7bdc72198)" style="fill: #c0df25"/>
    <path d="M 203.128779 250.943919 
L 211.936916 247.152835 
L 216.721687 248.15282 
L 207.936008 252.802764 
z
" clip-path="url(#pb7bdc72198)" style="fill: #46307e"/>
    <path d="M 172.154201 230.093694 
L 180.831532 240.16998 
L 185.789813 242.961105 
L 177.169288 231.492793 
z
" clip-path="url(#pb7bdc72198)" style="fill: #3f4889"/>
    <path d="M 143.791928 127.467023 
L 152.542372 146.328872 
L 157.612541 140.362073 
L 148.898998 120.586054 
z
" clip-path="url(#pb7bdc72198)" style="fill: #75d054"/>
    <path d="M 48.284724 186.405444 
L 56.649995 188.95261 
L 62.008998 180.917686 
L 53.801057 182.022521 
z
" clip-path="url(#pb7bdc72198)" style="fill: #20928c"/>
    <path d="M 147.443478 153.157933 
L 156.199254 173.510494 
L 161.261076 168.302366 
L 152.542372 146.328872 
z
" clip-path="url(#pb7bdc72198)" style="fill: #2db27d"/>
    <path d="M 180.831532 240.16998 
L 189.523964 246.175599 
L 194.427946 249.582347 
L 185.789813 242.961105 
z
" clip-path="url(#pb7bdc72198)" style="fill: #443a83"/>
    <path d="M 62.008998 180.917686 
L 70.28961 180.200344 
L 75.509236 169.121356 
L 67.339517 173.029869 
z
" clip-path="url(#pb7bdc72198)" style="fill: #1f9f88"/>
    <path d="M 117.908276 105.456544 
L 126.412598 106.068974 
L 131.564993 98.278746 
L 123.072665 97.792645 
z
" clip-path="url(#pb7bdc72198)" style="fill: #efe51c"/>
    <path d="M 151.100179 179.016119 
L 159.840804 198.043362 
L 164.901549 194.736833 
L 156.199254 173.510494 
z
" clip-path="url(#pb7bdc72198)" style="fill: #21918c"/>
    <path d="M 163.460877 216.715095 
L 172.154201 230.093694 
L 177.169288 231.492793 
L 168.528031 216.079377 
z
" clip-path="url(#pb7bdc72198)" style="fill: #365d8d"/>
    <path d="M 80.719474 158.459396 
L 88.94461 153.642336 
L 94.097624 141.408431 
L 85.923627 148.389265 
z
" clip-path="url(#pb7bdc72198)" style="fill: #44bf70"/>
    <path d="M 99.258067 130.184806 
L 107.594732 125.84182 
L 112.747278 114.855133 
L 104.425613 120.168025 
z
" clip-path="url(#pb7bdc72198)" style="fill: #a2da37"/>
    <path d="M 230.418558 236.977611 
L 239.576759 221.806753 
L 244.309456 218.416974 
L 235.134654 234.57991 
z
" clip-path="url(#pb7bdc72198)" style="fill: #38598c"/>
    <path d="M 249.012485 214.480846 
L 258.422121 195.146077 
L 263.104151 190.690415 
L 253.689272 209.987125 
z
" clip-path="url(#pb7bdc72198)" style="fill: #287c8e"/>
    <path d="M 135.061186 113.602229 
L 143.791928 127.467023 
L 148.898998 120.586054 
L 140.195281 106.085546 
z
" clip-path="url(#pb7bdc72198)" style="fill: #bade28"/>
    <path d="M 189.523964 246.175599 
L 198.26905 247.758158 
L 203.128779 250.943919 
L 194.427946 249.582347 
z
" clip-path="url(#pb7bdc72198)" style="fill: #453882"/>
    <path d="M 126.412598 106.068974 
L 135.061186 113.602229 
L 140.195281 106.085546 
L 131.564993 98.278746 
z
" clip-path="url(#pb7bdc72198)" style="fill: #e5e419"/>
    <path d="M 154.732215 201.155556 
L 163.460877 216.715095 
L 168.528031 216.079377 
L 159.840804 198.043362 
z
" clip-path="url(#pb7bdc72198)" style="fill: #2b758e"/>
    <path d="M 75.509236 169.121356 
L 83.797283 166.66323 
L 88.94461 153.642336 
L 80.719474 158.459396 
z
" clip-path="url(#pb7bdc72198)" style="fill: #2eb37c"/>
    <path d="M 56.649995 188.95261 
L 65.055738 191.5121 
L 70.28961 180.200344 
L 62.008998 180.917686 
z
" clip-path="url(#pb7bdc72198)" style="fill: #1f958b"/>
    <path d="M 138.666868 135.670095 
L 147.443478 153.157933 
L 152.542372 146.328872 
L 143.791928 127.467023 
z
" clip-path="url(#pb7bdc72198)" style="fill: #69cd5b"/>
    <path d="M 112.747278 114.855133 
L 121.260309 115.646302 
L 126.412598 106.068974 
L 117.908276 105.456544 
z
" clip-path="url(#pb7bdc72198)" style="fill: #d8e219"/>
    <path d="M 94.097624 141.408431 
L 102.453769 138.223968 
L 107.594732 125.84182 
L 99.258067 130.184806 
z
" clip-path="url(#pb7bdc72198)" style="fill: #81d34d"/>
    <path d="M 142.318777 160.782265 
L 151.100179 179.016119 
L 156.199254 173.510494 
L 147.443478 153.157933 
z
" clip-path="url(#pb7bdc72198)" style="fill: #28ae80"/>
    <path d="M 70.28961 180.200344 
L 78.651799 180.228518 
L 83.797283 166.66323 
L 75.509236 169.121356 
z
" clip-path="url(#pb7bdc72198)" style="fill: #21a685"/>
    <path d="M 145.964369 184.790107 
L 154.732215 201.155556 
L 159.840804 198.043362 
L 151.100179 179.016119 
z
" clip-path="url(#pb7bdc72198)" style="fill: #21918c"/>
    <path d="M 211.936916 247.152835 
L 220.889089 238.830178 
L 225.672228 238.369585 
L 216.721687 248.15282 
z
" clip-path="url(#pb7bdc72198)" style="fill: #404688"/>
    <path d="M 129.91942 122.762559 
L 138.666868 135.670095 
L 143.791928 127.467023 
L 135.061186 113.602229 
z
" clip-path="url(#pb7bdc72198)" style="fill: #a8db34"/>
    <path d="M 121.260309 115.646302 
L 129.91942 122.762559 
L 135.061186 113.602229 
L 126.412598 106.068974 
z
" clip-path="url(#pb7bdc72198)" style="fill: #d0e11c"/>
    <path d="M 88.94461 153.642336 
L 97.325345 151.769972 
L 102.453769 138.223968 
L 94.097624 141.408431 
z
" clip-path="url(#pb7bdc72198)" style="fill: #5ec962"/>
    <path d="M 107.594732 125.84182 
L 116.113708 126.859123 
L 121.260309 115.646302 
L 112.747278 114.855133 
z
" clip-path="url(#pb7bdc72198)" style="fill: #bade28"/>
    <path d="M 198.26905 247.758158 
L 207.104652 245.009328 
L 211.936916 247.152835 
L 203.128779 250.943919 
z
" clip-path="url(#pb7bdc72198)" style="fill: #424086"/>
    <path d="M 65.055738 191.5121 
L 73.502248 194.084003 
L 78.651799 180.228518 
L 70.28961 180.200344 
z
" clip-path="url(#pb7bdc72198)" style="fill: #1f978b"/>
    <path d="M 133.528356 145.087405 
L 142.318777 160.782265 
L 147.443478 153.157933 
L 138.666868 135.670095 
z
" clip-path="url(#pb7bdc72198)" style="fill: #5ac864"/>
    <path d="M 244.309456 218.416974 
L 253.700556 199.639364 
L 258.422121 195.146077 
L 249.012485 214.480846 
z
" clip-path="url(#pb7bdc72198)" style="fill: #287d8e"/>
    <path d="M 167.074113 227.844052 
L 175.806355 236.306855 
L 180.831532 240.16998 
L 172.154201 230.093694 
z
" clip-path="url(#pb7bdc72198)" style="fill: #38588c"/>
    <path d="M 158.334644 216.816593 
L 167.074113 227.844052 
L 172.154201 230.093694 
L 163.460877 216.715095 
z
" clip-path="url(#pb7bdc72198)" style="fill: #31678e"/>
    <path d="M 83.797283 166.66323 
L 92.208094 166.217512 
L 97.325345 151.769972 
L 88.94461 153.642336 
z
" clip-path="url(#pb7bdc72198)" style="fill: #3dbc74"/>
    <path d="M 225.672228 238.369585 
L 234.810676 224.676836 
L 239.576759 221.806753 
L 230.418558 236.977611 
z
" clip-path="url(#pb7bdc72198)" style="fill: #365d8d"/>
    <path d="M 137.170536 169.113067 
L 145.964369 184.790107 
L 151.100179 179.016119 
L 142.318777 160.782265 
z
" clip-path="url(#pb7bdc72198)" style="fill: #25ab82"/>
    <path d="M 175.806355 236.306855 
L 184.554744 241.595987 
L 189.523964 246.175599 
L 180.831532 240.16998 
z
" clip-path="url(#pb7bdc72198)" style="fill: #3d4d8a"/>
    <path d="M 102.453769 138.223968 
L 110.976513 139.5083 
L 116.113708 126.859123 
L 107.594732 125.84182 
z
" clip-path="url(#pb7bdc72198)" style="fill: #93d741"/>
    <path d="M 116.113708 126.859123 
L 124.775418 133.428687 
L 129.91942 122.762559 
L 121.260309 115.646302 
z
" clip-path="url(#pb7bdc72198)" style="fill: #b2dd2d"/>
    <path d="M 149.574337 204.108601 
L 158.334644 216.816593 
L 163.460877 216.715095 
L 154.732215 201.155556 
z
" clip-path="url(#pb7bdc72198)" style="fill: #297b8e"/>
    <path d="M 124.775418 133.428687 
L 133.528356 145.087405 
L 138.666868 135.670095 
L 129.91942 122.762559 
z
" clip-path="url(#pb7bdc72198)" style="fill: #8ed645"/>
    <path d="M 78.651799 180.228518 
L 87.098278 181.282521 
L 92.208094 166.217512 
L 83.797283 166.66323 
z
" clip-path="url(#pb7bdc72198)" style="fill: #25ab82"/>
    <path d="M 73.502248 194.084003 
L 81.989824 196.66841 
L 87.098278 181.282521 
L 78.651799 180.228518 
z
" clip-path="url(#pb7bdc72198)" style="fill: #1f998a"/>
    <path d="M 97.325345 151.769972 
L 105.850316 153.35454 
L 110.976513 139.5083 
L 102.453769 138.223968 
z
" clip-path="url(#pb7bdc72198)" style="fill: #6ccd5a"/>
    <path d="M 128.379789 155.576653 
L 137.170536 169.113067 
L 142.318777 160.782265 
L 133.528356 145.087405 
z
" clip-path="url(#pb7bdc72198)" style="fill: #48c16e"/>
    <path d="M 140.792088 190.796806 
L 149.574337 204.108601 
L 154.732215 201.155556 
L 145.964369 184.790107 
z
" clip-path="url(#pb7bdc72198)" style="fill: #21918c"/>
    <path d="M 184.554744 241.595987 
L 193.348341 243.431304 
L 198.26905 247.758158 
L 189.523964 246.175599 
z
" clip-path="url(#pb7bdc72198)" style="fill: #3e4a89"/>
    <path d="M 110.976513 139.5083 
L 119.633037 145.419311 
L 124.775418 133.428687 
L 116.113708 126.859123 
z
" clip-path="url(#pb7bdc72198)" style="fill: #8ed645"/>
    <path d="M 92.208094 166.217512 
L 100.734406 168.126987 
L 105.850316 153.35454 
L 97.325345 151.769972 
z
" clip-path="url(#pb7bdc72198)" style="fill: #44bf70"/>
    <path d="M 119.633037 145.419311 
L 128.379789 155.576653 
L 133.528356 145.087405 
L 124.775418 133.428687 
z
" clip-path="url(#pb7bdc72198)" style="fill: #70cf57"/>
    <path d="M 132.00021 178.042529 
L 140.792088 190.796806 
L 145.964369 184.790107 
L 137.170536 169.113067 
z
" clip-path="url(#pb7bdc72198)" style="fill: #21a585"/>
    <path d="M 87.098278 181.282521 
L 95.625701 183.53254 
L 100.734406 168.126987 
L 92.208094 166.217512 
z
" clip-path="url(#pb7bdc72198)" style="fill: #27ad81"/>
    <path d="M 239.576759 221.806753 
L 248.938952 204.170754 
L 253.700556 199.639364 
L 244.309456 218.416974 
z
" clip-path="url(#pb7bdc72198)" style="fill: #277e8e"/>
    <path d="M 105.850316 153.35454 
L 114.494298 158.516232 
L 119.633037 145.419311 
L 110.976513 139.5083 
z
" clip-path="url(#pb7bdc72198)" style="fill: #67cc5c"/>
    <path d="M 207.104652 245.009328 
L 216.062593 238.459471 
L 220.889089 238.830178 
L 211.936916 247.152835 
z
" clip-path="url(#pb7bdc72198)" style="fill: #3b518b"/>
    <path d="M 81.989824 196.66841 
L 90.518764 199.265412 
L 95.625701 183.53254 
L 87.098278 181.282521 
z
" clip-path="url(#pb7bdc72198)" style="fill: #1f9a8a"/>
    <path d="M 123.223195 166.965983 
L 132.00021 178.042529 
L 137.170536 169.113067 
L 128.379789 155.576653 
z
" clip-path="url(#pb7bdc72198)" style="fill: #37b878"/>
    <path d="M 114.494298 158.516232 
L 123.223195 166.965983 
L 128.379789 155.576653 
L 119.633037 145.419311 
z
" clip-path="url(#pb7bdc72198)" style="fill: #52c569"/>
    <path d="M 220.889089 238.830178 
L 230.00733 227.068777 
L 234.810676 224.676836 
L 225.672228 238.369585 
z
" clip-path="url(#pb7bdc72198)" style="fill: #33628d"/>
    <path d="M 100.734406 168.126987 
L 109.359205 172.472039 
L 114.494298 158.516232 
L 105.850316 153.35454 
z
" clip-path="url(#pb7bdc72198)" style="fill: #42be71"/>
    <path d="M 193.348341 243.431304 
L 202.217029 241.88594 
L 207.104652 245.009328 
L 198.26905 247.758158 
z
" clip-path="url(#pb7bdc72198)" style="fill: #3b518b"/>
    <path d="M 153.146584 216.497372 
L 161.924565 224.9145 
L 167.074113 227.844052 
L 158.334644 216.816593 
z
" clip-path="url(#pb7bdc72198)" style="fill: #2c728e"/>
    <path d="M 144.365984 206.943294 
L 153.146584 216.497372 
L 158.334644 216.816593 
L 149.574337 204.108601 
z
" clip-path="url(#pb7bdc72198)" style="fill: #26818e"/>
    <path d="M 95.625701 183.53254 
L 104.225643 187.01848 
L 109.359205 172.472039 
L 100.734406 168.126987 
z
" clip-path="url(#pb7bdc72198)" style="fill: #26ad81"/>
    <path d="M 161.924565 224.9145 
L 170.708268 231.580152 
L 175.806355 236.306855 
L 167.074113 227.844052 
z
" clip-path="url(#pb7bdc72198)" style="fill: #31678e"/>
    <path d="M 135.583294 196.995066 
L 144.365984 206.943294 
L 149.574337 204.108601 
L 140.792088 190.796806 
z
" clip-path="url(#pb7bdc72198)" style="fill: #21918c"/>
    <path d="M 109.359205 172.472039 
L 118.059069 179.059751 
L 123.223195 166.965983 
L 114.494298 158.516232 
z
" clip-path="url(#pb7bdc72198)" style="fill: #37b878"/>
    <path d="M 126.808322 187.447188 
L 135.583294 196.995066 
L 140.792088 190.796806 
L 132.00021 178.042529 
z
" clip-path="url(#pb7bdc72198)" style="fill: #1fa088"/>
    <path d="M 90.518764 199.265412 
L 99.089371 201.875101 
L 104.225643 187.01848 
L 95.625701 183.53254 
z
" clip-path="url(#pb7bdc72198)" style="fill: #1f9a8a"/>
    <path d="M 118.059069 179.059751 
L 126.808322 187.447188 
L 132.00021 178.042529 
L 123.223195 166.965983 
z
" clip-path="url(#pb7bdc72198)" style="fill: #27ad81"/>
    <path d="M 170.708268 231.580152 
L 179.513165 236.068556 
L 184.554744 241.595987 
L 175.806355 236.306855 
z
" clip-path="url(#pb7bdc72198)" style="fill: #34608d"/>
    <path d="M 104.225643 187.01848 
L 112.886264 191.64489 
L 118.059069 179.059751 
L 109.359205 172.472039 
z
" clip-path="url(#pb7bdc72198)" style="fill: #23a983"/>
    <path d="M 234.810676 224.676836 
L 244.136797 208.740733 
L 248.938952 204.170754 
L 239.576759 221.806753 
z
" clip-path="url(#pb7bdc72198)" style="fill: #277f8e"/>
    <path d="M 112.886264 191.64489 
L 121.594378 197.191709 
L 126.808322 187.447188 
L 118.059069 179.059751 
z
" clip-path="url(#pb7bdc72198)" style="fill: #1fa287"/>
    <path d="M 99.089371 201.875101 
L 107.701953 204.497572 
L 112.886264 191.64489 
L 104.225643 187.01848 
z
" clip-path="url(#pb7bdc72198)" style="fill: #1f988b"/>
    <path d="M 179.513165 236.068556 
L 188.359102 238.183232 
L 193.348341 243.431304 
L 184.554744 241.595987 
z
" clip-path="url(#pb7bdc72198)" style="fill: #355f8d"/>
    <path d="M 121.594378 197.191709 
L 130.337606 203.339392 
L 135.583294 196.995066 
L 126.808322 187.447188 
z
" clip-path="url(#pb7bdc72198)" style="fill: #1f9a8a"/>
    <path d="M 216.062593 238.459471 
L 225.162811 229.038164 
L 230.00733 227.068777 
L 220.889089 238.830178 
z
" clip-path="url(#pb7bdc72198)" style="fill: #30698e"/>
    <path d="M 202.217029 241.88594 
L 211.186448 237.381445 
L 216.062593 238.459471 
L 207.104652 245.009328 
z
" clip-path="url(#pb7bdc72198)" style="fill: #355f8d"/>
    <path d="M 130.337606 203.339392 
L 139.106272 209.705023 
L 144.365984 206.943294 
L 135.583294 196.995066 
z
" clip-path="url(#pb7bdc72198)" style="fill: #21918c"/>
    <path d="M 107.701953 204.497572 
L 116.356818 207.132917 
L 121.594378 197.191709 
L 112.886264 191.64489 
z
" clip-path="url(#pb7bdc72198)" style="fill: #1f968b"/>
    <path d="M 139.106272 209.705023 
L 147.89478 215.884806 
L 153.146584 216.497372 
L 144.365984 206.943294 
z
" clip-path="url(#pb7bdc72198)" style="fill: #24868e"/>
    <path d="M 147.89478 215.884806 
L 156.702291 221.497854 
L 161.924565 224.9145 
L 153.146584 216.497372 
z
" clip-path="url(#pb7bdc72198)" style="fill: #277e8e"/>
    <path d="M 230.00733 227.068777 
L 239.293571 213.349798 
L 244.136797 208.740733 
L 234.810676 224.676836 
z
" clip-path="url(#pb7bdc72198)" style="fill: #26818e"/>
    <path d="M 116.356818 207.132917 
L 125.054278 209.781232 
L 130.337606 203.339392 
L 121.594378 197.191709 
z
" clip-path="url(#pb7bdc72198)" style="fill: #20938c"/>
    <path d="M 188.359102 238.183232 
L 197.266915 237.975685 
L 202.217029 241.88594 
L 193.348341 243.431304 
z
" clip-path="url(#pb7bdc72198)" style="fill: #33638d"/>
    <path d="M 156.702291 221.497854 
L 165.532631 226.226532 
L 170.708268 231.580152 
L 161.924565 224.9145 
z
" clip-path="url(#pb7bdc72198)" style="fill: #2a778e"/>
    <path d="M 125.054278 209.781232 
L 133.794648 212.442613 
L 139.106272 209.705023 
L 130.337606 203.339392 
z
" clip-path="url(#pb7bdc72198)" style="fill: #21918c"/>
    <path d="M 165.532631 226.226532 
L 174.393489 229.849418 
L 179.513165 236.068556 
L 170.708268 231.580152 
z
" clip-path="url(#pb7bdc72198)" style="fill: #2c738e"/>
    <path d="M 211.186448 237.381445 
L 220.27332 230.653408 
L 225.162811 229.038164 
L 216.062593 238.459471 
z
" clip-path="url(#pb7bdc72198)" style="fill: #2d718e"/>
    <path d="M 133.794648 212.442613 
L 142.578248 215.117158 
L 147.89478 215.884806 
L 139.106272 209.705023 
z
" clip-path="url(#pb7bdc72198)" style="fill: #228d8d"/>
    <path d="M 197.266915 237.975685 
L 206.254855 235.741551 
L 211.186448 237.381445 
L 202.217029 241.88594 
z
" clip-path="url(#pb7bdc72198)" style="fill: #2e6d8e"/>
    <path d="M 225.162811 229.038164 
L 234.408746 217.998451 
L 239.293571 213.349798 
L 230.00733 227.068777 
z
" clip-path="url(#pb7bdc72198)" style="fill: #26828e"/>
    <path d="M 174.393489 229.849418 
L 183.295041 232.264003 
L 188.359102 238.183232 
L 179.513165 236.068556 
z
" clip-path="url(#pb7bdc72198)" style="fill: #2c728e"/>
    <path d="M 142.578248 215.117158 
L 151.405397 217.804962 
L 156.702291 221.497854 
L 147.89478 215.884806 
z
" clip-path="url(#pb7bdc72198)" style="fill: #238a8d"/>
    <path d="M 183.295041 232.264003 
L 192.248196 233.497315 
L 197.266915 237.975685 
L 188.359102 238.183232 
z
" clip-path="url(#pb7bdc72198)" style="fill: #2b758e"/>
    <path d="M 151.405397 217.804962 
L 160.276422 220.506127 
L 165.532631 226.226532 
L 156.702291 221.497854 
z
" clip-path="url(#pb7bdc72198)" style="fill: #23888e"/>
    <path d="M 206.254855 235.741551 
L 215.33529 231.994189 
L 220.27332 230.653408 
L 211.186448 237.381445 
z
" clip-path="url(#pb7bdc72198)" style="fill: #29798e"/>
    <path d="M 220.27332 230.653408 
L 229.481783 222.687205 
L 234.408746 217.998451 
L 225.162811 229.038164 
z
" clip-path="url(#pb7bdc72198)" style="fill: #25858e"/>
    <path d="M 160.276422 220.506127 
L 169.191649 223.220751 
L 174.393489 229.849418 
L 165.532631 226.226532 
z
" clip-path="url(#pb7bdc72198)" style="fill: #24868e"/>
    <path d="M 192.248196 233.497315 
L 201.262724 233.703659 
L 206.254855 235.741551 
L 197.266915 237.975685 
z
" clip-path="url(#pb7bdc72198)" style="fill: #297a8e"/>
    <path d="M 169.191649 223.220751 
L 178.151411 225.948935 
L 183.295041 232.264003 
L 174.393489 229.849418 
z
" clip-path="url(#pb7bdc72198)" style="fill: #24868e"/>
    <path d="M 215.33529 231.994189 
L 224.512134 227.416581 
L 229.481783 222.687205 
L 220.27332 230.653408 
z
" clip-path="url(#pb7bdc72198)" style="fill: #23888e"/>
    <path d="M 201.262724 233.703659 
L 210.345517 233.14958 
L 215.33529 231.994189 
L 206.254855 235.741551 
z
" clip-path="url(#pb7bdc72198)" style="fill: #26828e"/>
    <path d="M 178.151411 225.948935 
L 187.156041 228.690781 
L 192.248196 233.497315 
L 183.295041 232.264003 
z
" clip-path="url(#pb7bdc72198)" style="fill: #24878e"/>
    <path d="M 187.156041 228.690781 
L 196.205878 231.446393 
L 201.262724 233.703659 
L 192.248196 233.497315 
z
" clip-path="url(#pb7bdc72198)" style="fill: #23898e"/>
    <path d="M 210.345517 233.14958 
L 219.499242 232.187108 
L 224.512134 227.416581 
L 215.33529 231.994189 
z
" clip-path="url(#pb7bdc72198)" style="fill: #228b8d"/>
    <path d="M 196.205878 231.446393 
L 205.301263 234.215873 
L 210.345517 233.14958 
L 201.262724 233.703659 
z
" clip-path="url(#pb7bdc72198)" style="fill: #228b8d"/>
    <path d="M 205.301263 234.215873 
L 214.44254 236.999328 
L 219.499242 232.187108 
L 210.345517 233.14958 
z
" clip-path="url(#pb7bdc72198)" style="fill: #218f8d"/>
   </g>
  </g>
 </g>
 <defs>
  <clipPath id="pb7bdc72198">
   <rect x="7.2" y="7.2" width="332.64" height="332.64"/>
  </clipPath>
 </defs>
</svg>