<?xml version="1.0" encoding="utf-8" standalone="no"?>
<!DOCTYPE svg PUBLIC "-//W3C//DTD SVG 1.1//EN"
  "http://www.w3.org/Graphics/SVG/1.1/DTD/svg11.dtd">
<svg xmlns:xlink="http://www.w3.org/1999/xlink" width="713.373991pt" height="393.03625pt" viewBox="0 0 713.373991 393.03625" xmlns="http://www.w3.org/2000/svg" version="1.1">
 <metadata>
  <rdf:RDF xmlns:dc="http://purl.org/dc/elements/1.1/" xmlns:cc="http://creativecommons.org/ns#" xmlns:rdf="http://www.w3.org/1999/02/22-rdf-syntax-ns#">
   <cc:Work>
    <dc:type rdf:resource="http://purl.org/dc/dcmitype/StillImage"/>
    <dc:date>2024-07-21T12:09:01.201517</dc:date>
    <dc:format>image/svg+xml</dc:format>
    <dc:creator>
     <cc:Agent>
      <dc:title>Matplotlib v3.9.0, https://matplotlib.org/</dc:title>
     </cc:Agent>
    </dc:creator>
   </cc:Work>
  </rdf:RDF>
 </metadata>
 <defs>
  <style type="text/css">*{stroke-linejoin: round; stroke-linecap: butt}</style>
 </defs>
 <g id="figure_1">
  <g id="patch_1">
   <path d="M 0 393.03625 
L 713.373991 393.03625 
L 713.373991 0 
L 0 0 
z
" style="fill: #ffffff"/>
  </g>
  <g id="axes_1">
   <g id="patch_2">
    <path d="M 28.942188 354.958125 
L 333.305824 354.958125 
L 333.305824 22.318125 
L 28.942188 22.318125 
z
" style="fill: #ffffff"/>
   </g>
   <g id="matplotlib.axis_1">
    <g id="xtick_1">
     <g id="line2d_1">
      <defs>
       <path id="mfc0cc1929c" d="M 0 0 
L 0 3.5 
" style="stroke: #000000; stroke-width: 0.8"/>
      </defs>
      <g>
       <use xlink:href="#mfc0cc1929c" x="331.393877" y="354.958125" style="stroke: #000000; stroke-width: 0.8"/>
      </g>
     </g>
     <g id="text_1">
      <!-- 500 -->
      <g transform="translate(321.850127 369.556562) scale(0.1 -0.1)">
       <defs>
        <path id="DejaVuSans-35" d="M 691 4666 
L 3169 4666 
L 3169 4134 
L 1269 4134 
L 1269 2991 
Q 1406 3038 1543 3061 
Q 1681 3084 1819 3084 
Q 2600 3084 3056 2656 
Q 3513 2228 3513 1497 
Q 3513 744 3044 326 
Q 2575 -91 1722 -91 
Q 1428 -91 1123 -41 
Q 819 9 494 109 
L 494 744 
Q 775 591 1075 516 
Q 1375 441 1709 441 
Q 2250 441 2565 725 
Q 2881 1009 2881 1497 
Q 2881 1984 2565 2268 
Q 2250 2553 1709 2553 
Q 1456 2553 1204 2497 
Q 953 2441 691 2322 
L 691 4666 
z
" transform="scale(0.015625)"/>
        <path id="DejaVuSans-30" d="M 2034 4250 
Q 1547 4250 1301 3770 
Q 1056 3291 1056 2328 
Q 1056 1369 1301 889 
Q 1547 409 2034 409 
Q 2525 409 2770 889 
Q 3016 1369 3016 2328 
Q 3016 3291 2770 3770 
Q 2525 4250 2034 4250 
z
M 2034 4750 
Q 2819 4750 3233 4129 
Q 3647 3509 3647 2328 
Q 3647 1150 3233 529 
Q 2819 -91 2034 -91 
Q 1250 -91 836 529 
Q 422 1150 422 2328 
Q 422 3509 836 4129 
Q 1250 4750 2034 4750 
z
" transform="scale(0.015625)"/>
       </defs>
       <use xlink:href="#DejaVuSans-35"/>
       <use xlink:href="#DejaVuSans-30" x="63.623047"/>
       <use xlink:href="#DejaVuSans-30" x="127.246094"/>
      </g>
     </g>
    </g>
    <g id="xtick_2">
     <g id="line2d_2">
      <g>
       <use xlink:href="#mfc0cc1929c" x="290.164317" y="354.958125" style="stroke: #000000; stroke-width: 0.8"/>
      </g>
     </g>
     <g id="text_2">
      <!-- 1000 -->
      <g transform="translate(277.439317 369.556562) scale(0.1 -0.1)">
       <defs>
        <path id="DejaVuSans-31" d="M 794 531 
L 1825 531 
L 1825 4091 
L 703 3866 
L 703 4441 
L 1819 4666 
L 2450 4666 
L 2450 531 
L 3481 531 
L 3481 0 
L 794 0 
L 794 531 
z
" transform="scale(0.015625)"/>
       </defs>
       <use xlink:href="#DejaVuSans-31"/>
       <use xlink:href="#DejaVuSans-30" x="63.623047"/>
       <use xlink:href="#DejaVuSans-30" x="127.246094"/>
       <use xlink:href="#DejaVuSans-30" x="190.869141"/>
      </g>
     </g>
    </g>
    <g id="xtick_3">
     <g id="line2d_3">
      <g>
       <use xlink:href="#mfc0cc1929c" x="248.934758" y="354.958125" style="stroke: #000000; stroke-width: 0.8"/>
      </g>
     </g>
     <g id="text_3">
      <!-- 1500 -->
      <g transform="translate(236.209758 369.556562) scale(0.1 -0.1)">
       <use xlink:href="#DejaVuSans-31"/>
       <use xlink:href="#DejaVuSans-35" x="63.623047"/>
       <use xlink:href="#DejaVuSans-30" x="127.246094"/>
       <use xlink:href="#DejaVuSans-30" x="190.869141"/>
      </g>
     </g>
    </g>
    <g id="xtick_4">
     <g id="line2d_4">
      <g>
       <use xlink:href="#mfc0cc1929c" x="207.705198" y="354.958125" style="stroke: #000000; stroke-width: 0.8"/>
      </g>
     </g>
     <g id="text_4">
      <!-- 2000 -->
      <g transform="translate(194.980198 369.556562) scale(0.1 -0.1)">
       <defs>
        <path id="DejaVuSans-32" d="M 1228 531 
L 3431 531 
L 3431 0 
L 469 0 
L 469 531 
Q 828 903 1448 1529 
Q 2069 2156 2228 2338 
Q 2531 2678 2651 2914 
Q 2772 3150 2772 3378 
Q 2772 3750 2511 3984 
Q 2250 4219 1831 4219 
Q 1534 4219 1204 4116 
Q 875 4013 500 3803 
L 500 4441 
Q 881 4594 1212 4672 
Q 1544 4750 1819 4750 
Q 2544 4750 2975 4387 
Q 3406 4025 3406 3419 
Q 3406 3131 3298 2873 
Q 3191 2616 2906 2266 
Q 2828 2175 2409 1742 
Q 1991 1309 1228 531 
z
" transform="scale(0.015625)"/>
       </defs>
       <use xlink:href="#DejaVuSans-32"/>
       <use xlink:href="#DejaVuSans-30" x="63.623047"/>
       <use xlink:href="#DejaVuSans-30" x="127.246094"/>
       <use xlink:href="#DejaVuSans-30" x="190.869141"/>
      </g>
     </g>
    </g>
    <g id="xtick_5">
     <g id="line2d_5">
      <g>
       <use xlink:href="#mfc0cc1929c" x="166.475638" y="354.958125" style="stroke: #000000; stroke-width: 0.8"/>
      </g>
     </g>
     <g id="text_5">
      <!-- 2500 -->
      <g transform="translate(153.750638 369.556562) scale(0.1 -0.1)">
       <use xlink:href="#DejaVuSans-32"/>
       <use xlink:href="#DejaVuSans-35" x="63.623047"/>
       <use xlink:href="#DejaVuSans-30" x="127.246094"/>
       <use xlink:href="#DejaVuSans-30" x="190.869141"/>
      </g>
     </g>
    </g>
    <g id="xtick_6">
     <g id="line2d_6">
      <g>
       <use xlink:href="#mfc0cc1929c" x="125.246078" y="354.958125" style="stroke: #000000; stroke-width: 0.8"/>
      </g>
     </g>
     <g id="text_6">
      <!-- 3000 -->
      <g transform="translate(112.521078 369.556562) scale(0.1 -0.1)">
       <defs>
        <path id="DejaVuSans-33" d="M 2597 2516 
Q 3050 2419 3304 2112 
Q 3559 1806 3559 1356 
Q 3559 666 3084 287 
Q 2609 -91 1734 -91 
Q 1441 -91 1130 -33 
Q 819 25 488 141 
L 488 750 
Q 750 597 1062 519 
Q 1375 441 1716 441 
Q 2309 441 2620 675 
Q 2931 909 2931 1356 
Q 2931 1769 2642 2001 
Q 2353 2234 1838 2234 
L 1294 2234 
L 1294 2753 
L 1863 2753 
Q 2328 2753 2575 2939 
Q 2822 3125 2822 3475 
Q 2822 3834 2567 4026 
Q 2313 4219 1838 4219 
Q 1578 4219 1281 4162 
Q 984 4106 628 3988 
L 628 4550 
Q 988 4650 1302 4700 
Q 1616 4750 1894 4750 
Q 2613 4750 3031 4423 
Q 3450 4097 3450 3541 
Q 3450 3153 3228 2886 
Q 3006 2619 2597 2516 
z
" transform="scale(0.015625)"/>
       </defs>
       <use xlink:href="#DejaVuSans-33"/>
       <use xlink:href="#DejaVuSans-30" x="63.623047"/>
       <use xlink:href="#DejaVuSans-30" x="127.246094"/>
       <use xlink:href="#DejaVuSans-30" x="190.869141"/>
      </g>
     </g>
    </g>
    <g id="xtick_7">
     <g id="line2d_7">
      <g>
       <use xlink:href="#mfc0cc1929c" x="84.016518" y="354.958125" style="stroke: #000000; stroke-width: 0.8"/>
      </g>
     </g>
     <g id="text_7">
      <!-- 3500 -->
      <g transform="translate(71.291518 369.556562) scale(0.1 -0.1)">
       <use xlink:href="#DejaVuSans-33"/>
       <use xlink:href="#DejaVuSans-35" x="63.623047"/>
       <use xlink:href="#DejaVuSans-30" x="127.246094"/>
       <use xlink:href="#DejaVuSans-30" x="190.869141"/>
      </g>
     </g>
    </g>
    <g id="xtick_8">
     <g id="line2d_8">
      <g>
       <use xlink:href="#mfc0cc1929c" x="42.786958" y="354.958125" style="stroke: #000000; stroke-width: 0.8"/>
      </g>
     </g>
     <g id="text_8">
      <!-- 4000 -->
      <g transform="translate(30.061958 369.556562) scale(0.1 -0.1)">
       <defs>
        <path id="DejaVuSans-34" d="M 2419 4116 
L 825 1625 
L 2419 1625 
L 2419 4116 
z
M 2253 4666 
L 3047 4666 
L 3047 1625 
L 3713 1625 
L 3713 1100 
L 3047 1100 
L 3047 0 
L 2419 0 
L 2419 1100 
L 313 1100 
L 313 1709 
L 2253 4666 
z
" transform="scale(0.015625)"/>
       </defs>
       <use xlink:href="#DejaVuSans-34"/>
       <use xlink:href="#DejaVuSans-30" x="63.623047"/>
       <use xlink:href="#DejaVuSans-30" x="127.246094"/>
       <use xlink:href="#DejaVuSans-30" x="190.869141"/>
      </g>
     </g>
    </g>
    <g id="text_9">
     <!-- Wavenumbers, cm$^{-1}$ -->
     <g transform="translate(128.774006 383.756562) scale(0.1 -0.1)">
      <defs>
       <path id="DejaVuSans-57" d="M 213 4666 
L 850 4666 
L 1831 722 
L 2809 4666 
L 3519 4666 
L 4500 722 
L 5478 4666 
L 6119 4666 
L 4947 0 
L 4153 0 
L 3169 4050 
L 2175 0 
L 1381 0 
L 213 4666 
z
" transform="scale(0.015625)"/>
       <path id="DejaVuSans-61" d="M 2194 1759 
Q 1497 1759 1228 1600 
Q 959 1441 959 1056 
Q 959 750 1161 570 
Q 1363 391 1709 391 
Q 2188 391 2477 730 
Q 2766 1069 2766 1631 
L 2766 1759 
L 2194 1759 
z
M 3341 1997 
L 3341 0 
L 2766 0 
L 2766 531 
Q 2569 213 2275 61 
Q 1981 -91 1556 -91 
Q 1019 -91 701 211 
Q 384 513 384 1019 
Q 384 1609 779 1909 
Q 1175 2209 1959 2209 
L 2766 2209 
L 2766 2266 
Q 2766 2663 2505 2880 
Q 2244 3097 1772 3097 
Q 1472 3097 1187 3025 
Q 903 2953 641 2809 
L 641 3341 
Q 956 3463 1253 3523 
Q 1550 3584 1831 3584 
Q 2591 3584 2966 3190 
Q 3341 2797 3341 1997 
z
" transform="scale(0.015625)"/>
       <path id="DejaVuSans-76" d="M 191 3500 
L 800 3500 
L 1894 563 
L 2988 3500 
L 3597 3500 
L 2284 0 
L 1503 0 
L 191 3500 
z
" transform="scale(0.015625)"/>
       <path id="DejaVuSans-65" d="M 3597 1894 
L 3597 1613 
L 953 1613 
Q 991 1019 1311 708 
Q 1631 397 2203 397 
Q 2534 397 2845 478 
Q 3156 559 3463 722 
L 3463 178 
Q 3153 47 2828 -22 
Q 2503 -91 2169 -91 
Q 1331 -91 842 396 
Q 353 884 353 1716 
Q 353 2575 817 3079 
Q 1281 3584 2069 3584 
Q 2775 3584 3186 3129 
Q 3597 2675 3597 1894 
z
M 3022 2063 
Q 3016 2534 2758 2815 
Q 2500 3097 2075 3097 
Q 1594 3097 1305 2825 
Q 1016 2553 972 2059 
L 3022 2063 
z
" transform="scale(0.015625)"/>
       <path id="DejaVuSans-6e" d="M 3513 2113 
L 3513 0 
L 2938 0 
L 2938 2094 
Q 2938 2591 2744 2837 
Q 2550 3084 2163 3084 
Q 1697 3084 1428 2787 
Q 1159 2491 1159 1978 
L 1159 0 
L 581 0 
L 581 3500 
L 1159 3500 
L 1159 2956 
Q 1366 3272 1645 3428 
Q 1925 3584 2291 3584 
Q 2894 3584 3203 3211 
Q 3513 2838 3513 2113 
z
" transform="scale(0.015625)"/>
       <path id="DejaVuSans-75" d="M 544 1381 
L 544 3500 
L 1119 3500 
L 1119 1403 
Q 1119 906 1312 657 
Q 1506 409 1894 409 
Q 2359 409 2629 706 
Q 2900 1003 2900 1516 
L 2900 3500 
L 3475 3500 
L 3475 0 
L 2900 0 
L 2900 538 
Q 2691 219 2414 64 
Q 2138 -91 1772 -91 
Q 1169 -91 856 284 
Q 544 659 544 1381 
z
M 1991 3584 
L 1991 3584 
z
" transform="scale(0.015625)"/>
       <path id="DejaVuSans-6d" d="M 3328 2828 
Q 3544 3216 3844 3400 
Q 4144 3584 4550 3584 
Q 5097 3584 5394 3201 
Q 5691 2819 5691 2113 
L 5691 0 
L 5113 0 
L 5113 2094 
Q 5113 2597 4934 2840 
Q 4756 3084 4391 3084 
Q 3944 3084 3684 2787 
Q 3425 2491 3425 1978 
L 3425 0 
L 2847 0 
L 2847 2094 
Q 2847 2600 2669 2842 
Q 2491 3084 2119 3084 
Q 1678 3084 1418 2786 
Q 1159 2488 1159 1978 
L 1159 0 
L 581 0 
L 581 3500 
L 1159 3500 
L 1159 2956 
Q 1356 3278 1631 3431 
Q 1906 3584 2284 3584 
Q 2666 3584 2933 3390 
Q 3200 3197 3328 2828 
z
" transform="scale(0.015625)"/>
       <path id="DejaVuSans-62" d="M 3116 1747 
Q 3116 2381 2855 2742 
Q 2594 3103 2138 3103 
Q 1681 3103 1420 2742 
Q 1159 2381 1159 1747 
Q 1159 1113 1420 752 
Q 1681 391 2138 391 
Q 2594 391 2855 752 
Q 3116 1113 3116 1747 
z
M 1159 2969 
Q 1341 3281 1617 3432 
Q 1894 3584 2278 3584 
Q 2916 3584 3314 3078 
Q 3713 2572 3713 1747 
Q 3713 922 3314 415 
Q 2916 -91 2278 -91 
Q 1894 -91 1617 61 
Q 1341 213 1159 525 
L 1159 0 
L 581 0 
L 581 4863 
L 1159 4863 
L 1159 2969 
z
" transform="scale(0.015625)"/>
       <path id="DejaVuSans-72" d="M 2631 2963 
Q 2534 3019 2420 3045 
Q 2306 3072 2169 3072 
Q 1681 3072 1420 2755 
Q 1159 2438 1159 1844 
L 1159 0 
L 581 0 
L 581 3500 
L 1159 3500 
L 1159 2956 
Q 1341 3275 1631 3429 
Q 1922 3584 2338 3584 
Q 2397 3584 2469 3576 
Q 2541 3569 2628 3553 
L 2631 2963 
z
" transform="scale(0.015625)"/>
       <path id="DejaVuSans-73" d="M 2834 3397 
L 2834 2853 
Q 2591 2978 2328 3040 
Q 2066 3103 1784 3103 
Q 1356 3103 1142 2972 
Q 928 2841 928 2578 
Q 928 2378 1081 2264 
Q 1234 2150 1697 2047 
L 1894 2003 
Q 2506 1872 2764 1633 
Q 3022 1394 3022 966 
Q 3022 478 2636 193 
Q 2250 -91 1575 -91 
Q 1294 -91 989 -36 
Q 684 19 347 128 
L 347 722 
Q 666 556 975 473 
Q 1284 391 1588 391 
Q 1994 391 2212 530 
Q 2431 669 2431 922 
Q 2431 1156 2273 1281 
Q 2116 1406 1581 1522 
L 1381 1569 
Q 847 1681 609 1914 
Q 372 2147 372 2553 
Q 372 3047 722 3315 
Q 1072 3584 1716 3584 
Q 2034 3584 2315 3537 
Q 2597 3491 2834 3397 
z
" transform="scale(0.015625)"/>
       <path id="DejaVuSans-2c" d="M 750 794 
L 1409 794 
L 1409 256 
L 897 -744 
L 494 -744 
L 750 256 
L 750 794 
z
" transform="scale(0.015625)"/>
       <path id="DejaVuSans-20" transform="scale(0.015625)"/>
       <path id="DejaVuSans-63" d="M 3122 3366 
L 3122 2828 
Q 2878 2963 2633 3030 
Q 2388 3097 2138 3097 
Q 1578 3097 1268 2742 
Q 959 2388 959 1747 
Q 959 1106 1268 751 
Q 1578 397 2138 397 
Q 2388 397 2633 464 
Q 2878 531 3122 666 
L 3122 134 
Q 2881 22 2623 -34 
Q 2366 -91 2075 -91 
Q 1284 -91 818 406 
Q 353 903 353 1747 
Q 353 2603 823 3093 
Q 1294 3584 2113 3584 
Q 2378 3584 2631 3529 
Q 2884 3475 3122 3366 
z
" transform="scale(0.015625)"/>
       <path id="DejaVuSans-2212" d="M 678 2272 
L 4684 2272 
L 4684 1741 
L 678 1741 
L 678 2272 
z
" transform="scale(0.015625)"/>
      </defs>
      <use xlink:href="#DejaVuSans-57" transform="translate(0 0.684375)"/>
      <use xlink:href="#DejaVuSans-61" transform="translate(98.876953 0.684375)"/>
      <use xlink:href="#DejaVuSans-76" transform="translate(160.15625 0.684375)"/>
      <use xlink:href="#DejaVuSans-65" transform="translate(219.335938 0.684375)"/>
      <use xlink:href="#DejaVuSans-6e" transform="translate(280.859375 0.684375)"/>
      <use xlink:href="#DejaVuSans-75" transform="translate(344.238281 0.684375)"/>
      <use xlink:href="#DejaVuSans-6d" transform="translate(407.617188 0.684375)"/>
      <use xlink:href="#DejaVuSans-62" transform="translate(505.029297 0.684375)"/>
      <use xlink:href="#DejaVuSans-65" transform="translate(568.505859 0.684375)"/>
      <use xlink:href="#DejaVuSans-72" transform="translate(630.029297 0.684375)"/>
      <use xlink:href="#DejaVuSans-73" transform="translate(671.142578 0.684375)"/>
      <use xlink:href="#DejaVuSans-2c" transform="translate(723.242188 0.684375)"/>
      <use xlink:href="#DejaVuSans-20" transform="translate(755.029297 0.684375)"/>
      <use xlink:href="#DejaVuSans-63" transform="translate(786.816406 0.684375)"/>
      <use xlink:href="#DejaVuSans-6d" transform="translate(841.796875 0.684375)"/>
      <use xlink:href="#DejaVuSans-2212" transform="translate(940.166016 38.965625) scale(0.7)"/>
      <use xlink:href="#DejaVuSans-31" transform="translate(998.818359 38.965625) scale(0.7)"/>
     </g>
    </g>
   </g>
   <g id="matplotlib.axis_2">
    <g id="ytick_1">
     <g id="line2d_9">
      <defs>
       <path id="m2767800d6a" d="M 0 0 
L -3.5 0 
" style="stroke: #000000; stroke-width: 0.8"/>
      </defs>
      <g>
       <use xlink:href="#m2767800d6a" x="28.942188" y="308.066963" style="stroke: #000000; stroke-width: 0.8"/>
      </g>
     </g>
     <g id="text_10">
      <!-- −8 -->
      <g transform="translate(7.2 311.866181) scale(0.1 -0.1)">
       <defs>
        <path id="DejaVuSans-38" d="M 2034 2216 
Q 1584 2216 1326 1975 
Q 1069 1734 1069 1313 
Q 1069 891 1326 650 
Q 1584 409 2034 409 
Q 2484 409 2743 651 
Q 3003 894 3003 1313 
Q 3003 1734 2745 1975 
Q 2488 2216 2034 2216 
z
M 1403 2484 
Q 997 2584 770 2862 
Q 544 3141 544 3541 
Q 544 4100 942 4425 
Q 1341 4750 2034 4750 
Q 2731 4750 3128 4425 
Q 3525 4100 3525 3541 
Q 3525 3141 3298 2862 
Q 3072 2584 2669 2484 
Q 3125 2378 3379 2068 
Q 3634 1759 3634 1313 
Q 3634 634 3220 271 
Q 2806 -91 2034 -91 
Q 1263 -91 848 271 
Q 434 634 434 1313 
Q 434 1759 690 2068 
Q 947 2378 1403 2484 
z
M 1172 3481 
Q 1172 3119 1398 2916 
Q 1625 2713 2034 2713 
Q 2441 2713 2670 2916 
Q 2900 3119 2900 3481 
Q 2900 3844 2670 4047 
Q 2441 4250 2034 4250 
Q 1625 4250 1398 4047 
Q 1172 3844 1172 3481 
z
" transform="scale(0.015625)"/>
       </defs>
       <use xlink:href="#DejaVuSans-2212"/>
       <use xlink:href="#DejaVuSans-38" x="83.789062"/>
      </g>
     </g>
    </g>
    <g id="ytick_2">
     <g id="line2d_10">
      <g>
       <use xlink:href="#m2767800d6a" x="28.942188" y="249.802648" style="stroke: #000000; stroke-width: 0.8"/>
      </g>
     </g>
     <g id="text_11">
      <!-- −6 -->
      <g transform="translate(7.2 253.601867) scale(0.1 -0.1)">
       <defs>
        <path id="DejaVuSans-36" d="M 2113 2584 
Q 1688 2584 1439 2293 
Q 1191 2003 1191 1497 
Q 1191 994 1439 701 
Q 1688 409 2113 409 
Q 2538 409 2786 701 
Q 3034 994 3034 1497 
Q 3034 2003 2786 2293 
Q 2538 2584 2113 2584 
z
M 3366 4563 
L 3366 3988 
Q 3128 4100 2886 4159 
Q 2644 4219 2406 4219 
Q 1781 4219 1451 3797 
Q 1122 3375 1075 2522 
Q 1259 2794 1537 2939 
Q 1816 3084 2150 3084 
Q 2853 3084 3261 2657 
Q 3669 2231 3669 1497 
Q 3669 778 3244 343 
Q 2819 -91 2113 -91 
Q 1303 -91 875 529 
Q 447 1150 447 2328 
Q 447 3434 972 4092 
Q 1497 4750 2381 4750 
Q 2619 4750 2861 4703 
Q 3103 4656 3366 4563 
z
" transform="scale(0.015625)"/>
       </defs>
       <use xlink:href="#DejaVuSans-2212"/>
       <use xlink:href="#DejaVuSans-36" x="83.789062"/>
      </g>
     </g>
    </g>
    <g id="ytick_3">
     <g id="line2d_11">
      <g>
       <use xlink:href="#m2767800d6a" x="28.942188" y="191.538334" style="stroke: #000000; stroke-width: 0.8"/>
      </g>
     </g>
     <g id="text_12">
      <!-- −4 -->
      <g transform="translate(7.2 195.337553) scale(0.1 -0.1)">
       <use xlink:href="#DejaVuSans-2212"/>
       <use xlink:href="#DejaVuSans-34" x="83.789062"/>
      </g>
     </g>
    </g>
    <g id="ytick_4">
     <g id="line2d_12">
      <g>
       <use xlink:href="#m2767800d6a" x="28.942188" y="133.274019" style="stroke: #000000; stroke-width: 0.8"/>
      </g>
     </g>
     <g id="text_13">
      <!-- −2 -->
      <g transform="translate(7.2 137.073238) scale(0.1 -0.1)">
       <use xlink:href="#DejaVuSans-2212"/>
       <use xlink:href="#DejaVuSans-32" x="83.789062"/>
      </g>
     </g>
    </g>
    <g id="ytick_5">
     <g id="line2d_13">
      <g>
       <use xlink:href="#m2767800d6a" x="28.942188" y="75.009705" style="stroke: #000000; stroke-width: 0.8"/>
      </g>
     </g>
     <g id="text_14">
      <!-- 0 -->
      <g transform="translate(15.579688 78.808924) scale(0.1 -0.1)">
       <use xlink:href="#DejaVuSans-30"/>
      </g>
     </g>
    </g>
   </g>
   <g id="line2d_14">
    <path d="M 319.471113 78.055286 
L 319.312091 78.477505 
L 319.19283 78.202049 
L 319.033808 77.002285 
L 318.636256 73.62456 
L 318.318219 72.757996 
L 318.119443 73.262336 
L 318.07969 73.187167 
L 317.84116 71.627044 
L 317.761653 71.959268 
L 317.562877 74.055521 
L 317.523124 73.965694 
L 317.046065 70.521356 
L 316.887042 70.079766 
L 316.48949 67.988388 
L 316.250961 66.914187 
L 316.052185 66.221754 
L 315.893171 64.952256 
L 315.654641 60.579439 
L 315.455865 57.344 
L 315.376358 59.045182 
L 315.058313 74.390987 
L 314.978806 73.582027 
L 314.621008 67.32951 
L 314.104195 65.151295 
L 313.507876 62.768383 
L 313.269346 60.41703 
L 313.030817 54.628241 
L 312.673018 41.558309 
L 312.593511 42.473934 
L 312.474242 50.15888 
L 311.997183 92.517266 
L 311.95743 92.411995 
L 311.838169 89.469598 
L 311.241841 70.827664 
L 310.963558 68.293053 
L 310.486499 66.320174 
L 309.810664 65.388238 
L 309.651642 65.44939 
L 309.254098 65.78874 
L 308.8963 65.886424 
L 308.697524 66.812887 
L 308.458995 67.621525 
L 308.260227 68.107317 
L 308.021697 68.570178 
L 307.862675 68.518812 
L 307.584392 68.15068 
L 307.345862 67.381252 
L 306.988064 66.031935 
L 306.670027 65.726094 
L 306.471251 65.653127 
L 306.272476 65.718159 
L 305.83517 65.480267 
L 305.437626 65.984932 
L 305.278604 66.015821 
L 305.040075 65.945709 
L 304.881052 66.297627 
L 304.682284 66.593507 
L 304.443755 66.619613 
L 304.244979 66.856932 
L 303.966696 67.212612 
L 303.648651 67.467657 
L 303.449875 67.566081 
L 303.251107 67.564377 
L 303.012578 68.027182 
L 302.41625 69.536387 
L 301.780169 71.174791 
L 301.382625 72.273131 
L 301.263356 72.207409 
L 301.06458 71.988541 
L 301.024827 72.021258 
L 300.388753 73.220718 
L 299.474389 77.056405 
L 298.878061 81.947438 
L 298.321495 86.890604 
L 298.003459 87.807955 
L 297.923943 87.729774 
L 297.764929 86.852283 
L 296.930072 80.820664 
L 295.816931 76.909317 
L 294.942329 75.227241 
L 294.624284 74.859074 
L 294.147225 74.571957 
L 293.391883 73.727373 
L 293.073846 73.541052 
L 292.199235 72.288456 
L 291.722176 71.344267 
L 290.966834 67.547232 
L 290.569291 63.982052 
L 290.052503 56.945101 
L 289.535649 50.216554 
L 289.456158 50.05154 
L 289.416413 50.165407 
L 289.297095 51.506758 
L 289.098368 57.502214 
L 288.820069 74.881511 
L 287.786444 152.78169 
L 287.62738 154.057454 
L 287.54789 153.629764 
L 287.388908 150.552528 
L 287.150354 140.638605 
L 286.275793 98.262815 
L 285.878175 90.89146 
L 285.480639 87.170484 
L 285.003613 85.123721 
L 284.765059 84.933066 
L 284.48676 84.926084 
L 284.089224 85.13559 
L 283.85067 85.841455 
L 283.612198 87.017506 
L 283.413389 89.350681 
L 283.055599 97.119544 
L 282.578573 107.609857 
L 282.499083 107.191245 
L 282.340019 103.901523 
L 281.664184 87.19401 
L 281.187158 81.644268 
L 280.392005 75.774174 
L 280.034215 74.500571 
L 279.676424 74.152819 
L 279.517443 74.215946 
L 279.239144 74.692386 
L 278.483818 76.241639 
L 278.285009 76.669165 
L 278.046455 77.026202 
L 277.72841 77.188918 
L 276.29725 79.283015 
L 275.263625 82.064157 
L 274.627535 85.953477 
L 274.23 90.369483 
L 273.59391 99.909129 
L 273.23612 108.98186 
L 272.918075 123.531706 
L 272.639858 148.32767 
L 272.281985 205.460722 
L 271.964023 241.921046 
L 271.924195 241.984123 
L 271.804959 236.34527 
L 270.89057 153.936097 
L 270.453289 106.227126 
L 270.095499 90.004747 
L 269.737709 82.812972 
L 269.419664 80.150657 
L 268.902893 77.744957 
L 268.46553 76.625245 
L 268.227058 76.33659 
L 267.948759 76.274683 
L 267.670459 76.043938 
L 267.11386 76.208861 
L 266.597089 76.426693 
L 266.080235 77.201657 
L 265.483973 78.391752 
L 265.006865 79.731802 
L 264.490093 81.918034 
L 264.05273 84.334247 
L 263.535959 88.380202 
L 263.05885 93.301083 
L 262.542079 101.251957 
L 262.144544 111.909203 
L 261.747008 130.519286 
L 261.389136 159.28752 
L 260.474829 246.133553 
L 260.395338 246.880045 
L 260.355511 246.780115 
L 260.236275 244.454453 
L 260.037548 233.201355 
L 259.719503 198.52066 
L 259.123159 136.272445 
L 258.725624 116.669605 
L 258.328088 106.818955 
L 257.970216 102.113533 
L 257.612425 100.051049 
L 257.453444 99.87461 
L 257.294463 99.96768 
L 257.135399 100.474994 
L 256.8571 102.083401 
L 256.539055 105.87668 
L 256.062029 114.061161 
L 255.704239 118.360857 
L 255.465685 118.867792 
L 255.386194 118.643766 
L 255.22713 117.101363 
L 254.471805 108.368697 
L 254.273078 107.156246 
L 253.716479 100.181421 
L 253.08039 90.34285 
L 252.643109 86.503298 
L 252.205828 80.301608 
L 251.37093 76.220396 
L 250.854158 74.468483 
L 249.581979 70.951246 
L 249.343425 70.061021 
L 249.30368 70.147377 
L 249.104871 71.601832 
L 248.866399 72.562113 
L 248.588099 72.722656 
L 248.349545 72.411014 
L 248.270055 72.523483 
L 247.793029 73.168458 
L 247.633965 72.899709 
L 247.435238 72.685241 
L 247.117194 72.867521 
L 246.878639 73.314517 
L 246.759403 73.394905 
L 246.560595 73.674791 
L 246.520849 73.652749 
L 246.163059 73.254028 
L 246.123314 73.339072 
L 245.924505 73.808468 
L 245.88476 73.78766 
L 245.725778 73.299263 
L 245.566715 72.948803 
L 245.526969 72.979806 
L 244.771644 73.863302 
L 244.61258 73.858547 
L 244.1753 73.282056 
L 244.056064 72.938744 
L 244.016318 72.960893 
L 243.53921 73.877019 
L 243.419974 73.837295 
L 243.221165 73.573516 
L 243.18142 73.603338 
L 243.022439 74.030876 
L 242.863375 74.404091 
L 242.82363 74.387727 
L 242.624903 74.10767 
L 242.585075 74.155656 
L 242.306858 74.498671 
L 242.108049 74.374085 
L 241.670769 73.79302 
L 241.47196 73.705868 
L 241.233406 73.685174 
L 240.438335 72.527148 
L 240.160035 72.6053 
L 239.881736 73.060294 
L 239.444455 73.734599 
L 239.285474 73.731689 
L 238.887938 74.295251 
L 238.728875 74.407016 
L 238.530066 74.869445 
L 237.894059 76.473187 
L 237.655504 76.6541 
L 237.33746 77.682404 
L 237.019415 78.693551 
L 236.661625 79.491158 
L 236.502643 80.014469 
L 236.462816 79.959913 
L 236.34358 79.680469 
L 236.303834 79.781454 
L 235.588254 84.580708 
L 233.99803 99.853849 
L 233.759476 104.402596 
L 233.322195 124.066963 
L 232.964405 153.332479 
L 232.686106 196.271851 
L 232.407806 258.827205 
L 232.050016 329.210874 
L 231.851289 339.838125 
L 231.771799 338.427053 
L 231.533245 324.727388 
L 231.2152 299.288384 
L 231.016391 263.517414 
L 230.49962 161.912111 
L 230.141829 127.056585 
L 229.784039 111.448834 
L 229.465994 105.021227 
L 228.86965 100.206016 
L 228.51186 100.144959 
L 228.392624 99.490081 
L 228.114325 95.542413 
L 227.319254 83.670295 
L 226.484355 76.759576 
L 226.206056 75.570938 
L 225.768775 74.277087 
L 225.530221 73.806006 
L 225.331494 73.485909 
L 225.212176 73.362849 
L 224.854386 72.744047 
L 224.655659 72.670049 
L 223.979824 71.321601 
L 223.820761 71.223304 
L 223.423225 70.94363 
L 223.303989 70.818039 
L 222.826881 69.789497 
L 222.588409 69.745406 
L 222.3896 69.50709 
L 222.071555 68.942819 
L 221.833001 69.038659 
L 221.594529 68.715284 
L 221.554784 68.746609 
L 221.39572 68.797363 
L 221.117421 68.675745 
L 220.799376 68.603254 
L 220.60065 68.129119 
L 220.560904 68.147263 
L 220.163369 68.57412 
L 219.924815 68.469739 
L 219.32847 67.65377 
L 219.288725 67.700144 
L 219.010425 67.944107 
L 218.453909 67.805581 
L 218.096036 68.188087 
L 217.778074 68.078247 
L 217.53952 68.393804 
L 217.300965 68.393267 
L 217.022666 68.377753 
L 216.664876 67.926791 
L 216.18785 67.987318 
L 215.90955 68.048529 
L 215.631251 68.542019 
L 214.995161 68.458972 
L 214.438644 67.752418 
L 214.279581 67.709624 
L 214.080854 67.816021 
L 213.882045 67.744063 
L 213.524255 68.103384 
L 213.166465 67.883412 
L 213.047229 68.193032 
L 212.84842 68.684957 
L 212.689439 68.252374 
L 212.450885 67.641895 
L 212.41114 67.654175 
L 212.252076 68.114493 
L 212.013604 68.542997 
L 211.77505 68.502514 
L 211.576241 68.649294 
L 211.178706 68.508458 
L 211.019724 68.895872 
L 210.860661 69.010087 
L 210.70168 69.032178 
L 210.264399 69.50971 
L 210.025845 70.682713 
L 209.986099 70.631598 
L 209.827036 69.571284 
L 209.628309 68.798867 
L 209.508991 69.181706 
L 209.35001 69.631602 
L 209.310264 69.605624 
L 208.99222 69.281451 
L 208.634429 69.412357 
L 208.475366 69.332328 
L 208.35613 69.605101 
L 208.157321 70.214097 
L 208.117576 70.18948 
L 207.72004 69.614602 
L 207.600804 69.63675 
L 207.28276 70.190861 
L 207.243014 70.134323 
L 207.00446 69.67823 
L 206.964715 69.725085 
L 206.686415 70.007105 
L 206.408116 70.206298 
L 206.01058 69.756775 
L 205.970835 69.809452 
L 205.772026 70.095712 
L 205.732281 70.064939 
L 205.5733 69.930668 
L 205.533554 69.962952 
L 205.414236 70.086623 
L 205.374491 70.05259 
L 205.215509 69.377343 
L 205.056446 68.953701 
L 204.93721 69.143977 
L 204.698656 69.53695 
L 204.539675 69.524099 
L 204.380611 69.947545 
L 204.340866 69.931642 
L 204.181884 69.193787 
L 204.062566 68.878065 
L 204.022821 68.889262 
L 203.824094 68.989115 
L 203.665031 68.531846 
L 203.545795 68.266648 
L 203.506049 68.289124 
L 203.028941 69.019931 
L 202.710896 68.719977 
L 202.472424 68.055245 
L 202.432679 68.068261 
L 201.995316 68.475368 
L 201.637526 68.5346 
L 200.842455 67.815522 
L 200.723137 68.007245 
L 200.405092 68.786315 
L 200.365429 68.766634 
L 200.087129 68.670475 
L 199.928066 68.859709 
L 199.649766 69.194436 
L 198.894441 69.144443 
L 198.576396 69.314197 
L 198.377669 69.23218 
L 198.139115 69.297702 
L 197.900561 69.200795 
L 197.622261 69.740318 
L 197.582516 69.684954 
L 197.423535 69.512673 
L 196.986254 69.999942 
L 196.866936 70.144618 
L 196.588636 70.61647 
L 196.429655 70.736069 
L 196.191101 71.242396 
L 195.912801 71.928555 
L 195.833311 71.800063 
L 195.515266 70.271128 
L 195.435775 70.366468 
L 195.117731 71.575858 
L 195.03824 71.418549 
L 194.879176 71.153567 
L 194.839431 71.170736 
L 194.68045 71.16925 
L 194.243087 70.662893 
L 194.04436 70.426196 
L 193.845551 70.508036 
L 192.931245 68.964852 
L 192.851672 69.047507 
L 192.414391 69.470593 
L 192.25541 69.437165 
L 191.97711 69.24707 
L 191.818046 69.437927 
L 191.698811 69.57513 
L 191.659065 69.544909 
L 191.26153 69.005284 
L 191.022976 68.817398 
L 190.824249 68.739176 
L 190.62544 68.758073 
L 190.426631 68.754758 
L 189.074961 69.097191 
L 188.796662 69.446499 
L 188.478617 69.06732 
L 188.120909 68.585166 
L 188.001591 68.701708 
L 187.802865 69.025058 
L 187.763037 68.984114 
L 187.405247 68.489117 
L 187.007711 68.882609 
L 186.769157 68.975657 
L 186.371622 68.805228 
L 186.053659 68.916907 
L 185.85485 68.661334 
L 185.49706 68.234844 
L 185.377742 68.370679 
L 185.13927 68.683164 
L 184.463435 68.17974 
L 184.304371 68.107658 
L 184.14539 68.126422 
L 183.867091 67.914303 
L 183.588791 68.021166 
L 183.42981 68.105434 
L 183.151511 68.278829 
L 182.71423 68.377781 
L 181.839586 69.131648 
L 181.442051 70.073878 
L 181.163751 70.752618 
L 180.487916 71.337099 
L 180.209617 71.626694 
L 179.971145 71.762083 
L 179.613272 71.532951 
L 179.215737 71.015114 
L 178.977265 70.078409 
L 178.937437 70.10289 
L 178.818201 70.59911 
L 178.500156 72.012701 
L 178.062876 73.23874 
L 177.983385 73.14879 
L 177.506277 72.370062 
L 177.188232 71.188979 
L 176.23418 67.585237 
L 175.916135 67.282173 
L 175.717326 67.227825 
L 175.081236 67.531114 
L 174.643956 67.628642 
L 174.445147 67.643488 
L 173.689821 67.151671 
L 172.89475 67.384665 
L 172.576706 67.217415 
L 172.218916 67.258519 
L 171.622571 66.711932 
L 171.423845 66.796112 
L 170.74801 67.272522 
L 170.549201 67.002976 
L 170.350392 66.882504 
L 169.992602 67.269149 
L 169.913111 67.168349 
L 169.555321 66.719434 
L 169.356512 66.820538 
L 168.958977 67.104759 
L 168.640932 66.858285 
L 167.806116 67.089882 
L 167.05079 66.715112 
L 166.653255 66.958598 
L 166.533936 66.860498 
L 166.017165 66.015603 
L 165.540057 65.989035 
L 165.26184 65.615539 
L 164.903967 65.487228 
L 164.705241 65.301481 
L 164.307705 65.574437 
L 164.108896 65.543688 
L 163.949915 65.52435 
L 163.751106 65.438174 
L 163.393316 65.648362 
L 163.115016 65.46617 
L 162.836717 65.361237 
L 162.63799 65.37102 
L 162.240455 65.555291 
L 161.92241 65.536425 
L 161.683856 65.540305 
L 161.047766 66.036237 
L 160.848957 66.16143 
L 160.57074 66.210809 
L 160.292441 66.222937 
L 160.014141 66.057242 
L 159.775587 66.174553 
L 159.417797 65.943461 
L 159.179325 65.730879 
L 158.741962 65.739855 
L 158.463662 65.574175 
L 158.066127 65.819657 
L 157.78791 65.573498 
L 157.50961 65.497013 
L 156.833775 65.569645 
L 156.197686 65.749239 
L 155.680832 65.729974 
L 155.402615 65.473881 
L 154.686952 65.773749 
L 154.488226 65.872204 
L 154.209926 65.778171 
L 153.931627 65.806395 
L 153.573837 65.663922 
L 153.335365 65.599213 
L 152.858256 65.891857 
L 152.500466 65.702677 
L 152.182421 65.647234 
L 151.904122 65.675817 
L 151.66565 65.587529 
L 151.347605 65.788354 
L 150.910242 65.415973 
L 150.632025 65.488902 
L 150.115171 65.609315 
L 149.717636 65.371599 
L 149.479082 65.418995 
L 148.365966 65.089723 
L 148.167157 65.081341 
L 147.809367 64.840753 
L 147.570895 64.891082 
L 147.054041 64.707476 
L 146.815487 64.815192 
L 146.417952 65.032227 
L 146.219143 64.940228 
L 145.90118 64.734632 
L 145.702371 64.77159 
L 145.424072 64.907252 
L 145.1856 64.628828 
L 144.947046 64.521361 
L 144.19172 64.258531 
L 143.237586 63.181374 
L 142.522006 62.050871 
L 142.084643 61.726841 
L 141.329317 61.124061 
L 141.090845 61.080172 
L 140.7728 61.085089 
L 140.096965 60.497405 
L 139.858411 59.407328 
L 139.301812 56.546742 
L 139.182576 56.553905 
L 139.063258 56.828105 
L 138.864531 58.079364 
L 138.228442 62.52061 
L 137.870652 63.783179 
L 137.632097 64.4615 
L 136.996008 67.43739 
L 136.916517 67.292422 
L 136.677963 66.098036 
L 136.240682 64.16641 
L 135.922637 63.415008 
L 135.64442 63.357655 
L 135.167312 63.292279 
L 134.889012 63.332945 
L 134.610713 63.700693 
L 134.213177 64.214513 
L 134.014451 64.559689 
L 133.259125 66.655894 
L 132.901253 68.912432 
L 132.543463 70.991368 
L 132.344736 71.291302 
L 132.225418 71.102108 
L 131.86771 70.001843 
L 131.827882 70.018327 
L 131.708647 70.354429 
L 131.470092 72.11427 
L 131.032812 75.294073 
L 130.87383 75.607958 
L 130.834003 75.587813 
L 130.714767 75.289066 
L 130.277486 73.022884 
L 129.681142 70.1225 
L 129.283606 69.467695 
L 128.925816 69.074503 
L 128.210236 69.180318 
L 128.051172 69.203329 
L 127.772873 69.336331 
L 127.613892 68.816239 
L 127.09712 66.850399 
L 126.858566 66.381959 
L 126.699502 66.432536 
L 126.301967 66.766395 
L 125.467151 70.155101 
L 125.029788 71.800228 
L 124.831061 71.941775 
L 124.711825 71.741384 
L 124.433526 70.434947 
L 122.962538 63.143752 
L 122.604747 62.493025 
L 122.366193 62.514922 
L 121.968658 62.07033 
L 121.809677 61.974259 
L 121.451886 61.499014 
L 121.292823 61.420066 
L 120.298943 59.936227 
L 120.139962 59.763151 
L 119.742426 59.126386 
L 119.503872 59.038564 
L 119.185827 59.234424 
L 118.867783 58.540148 
L 118.509992 57.88306 
L 118.351011 57.480542 
L 118.072712 56.886629 
L 117.794412 56.833586 
L 117.396877 56.294185 
L 117.158323 56.091657 
L 116.999341 55.878032 
L 116.204188 54.351643 
L 115.369372 53.078808 
L 115.051327 52.500825 
L 114.256256 51.408614 
L 113.858721 50.396772 
L 111.672152 46.346251 
L 110.996317 44.860083 
L 110.201247 43.487541 
L 109.207367 41.710776 
L 108.968813 41.095711 
L 108.650768 40.478527 
L 108.292978 40.367651 
L 107.617143 39.295224 
L 107.179862 38.932209 
L 106.901563 38.600733 
L 106.464282 38.085979 
L 106.185982 38.05923 
L 105.907683 37.822597 
L 105.549893 37.44476 
L 105.152357 37.492813 
L 104.754822 37.703923 
L 104.357286 37.977749 
L 104.118732 38.012697 
L 103.363407 38.667442 
L 103.045362 39.050803 
L 102.846553 38.899813 
L 102.806808 38.945734 
L 102.369527 39.644055 
L 102.250291 39.734814 
L 101.017857 41.934372 
L 100.898539 42.045594 
L 100.381767 43.419437 
L 99.586696 45.406448 
L 99.427633 45.687583 
L 96.525567 55.715124 
L 94.975088 62.579496 
L 94.696788 63.571971 
L 94.259508 65.293389 
L 92.868092 72.256311 
L 92.430812 74.297648 
L 91.953703 76.236489 
L 91.436932 78.202762 
L 91.079142 79.431247 
L 90.800842 80.163337 
L 90.164753 82.102209 
L 89.131127 84.939855 
L 88.932319 85.366561 
L 88.336057 87.006856 
L 88.137248 87.122966 
L 87.699967 88.36526 
L 87.461413 88.749872 
L 87.143368 88.778769 
L 86.745833 89.373386 
L 86.547024 89.706856 
L 86.308552 89.642218 
L 85.950762 90.081984 
L 85.672462 89.942527 
L 85.473653 89.750733 
L 85.195354 89.987156 
L 85.155608 89.935362 
L 84.917137 89.742705 
L 84.638837 89.935557 
L 84.121983 89.59613 
L 83.963002 89.481932 
L 83.684703 89.253206 
L 83.485894 89.211602 
L 83.048613 88.447056 
L 82.690823 87.718233 
L 81.736688 86.406608 
L 81.458471 85.724118 
L 81.299408 85.441868 
L 80.981363 84.879952 
L 80.782554 84.401586 
L 80.464592 83.796996 
L 80.226037 83.150167 
L 79.828502 82.247213 
L 79.470712 81.824569 
L 79.033349 80.903904 
L 78.794877 80.287598 
L 78.079297 78.087263 
L 77.602188 76.844976 
L 77.045672 74.931963 
L 76.926353 74.765797 
L 76.608308 74.050574 
L 76.449327 73.719099 
L 76.091537 72.911398 
L 75.932473 72.706541 
L 75.534938 71.790573 
L 75.415702 71.611223 
L 75.057912 70.894256 
L 74.859103 70.660111 
L 74.024287 69.16042 
L 73.825478 69.145069 
L 73.626669 69.272963 
L 73.507433 68.826733 
L 73.268879 67.91165 
L 72.990662 67.97107 
L 72.672617 68.240416 
L 72.473808 68.108172 
L 72.235254 67.908554 
L 72.036527 67.928023 
L 71.678737 67.516641 
L 71.638992 67.545393 
L 71.440183 67.636983 
L 71.320947 67.336539 
L 71.082393 66.635264 
L 70.804093 67.086395 
L 70.724603 66.962304 
L 70.525876 66.760293 
L 70.327067 67.076868 
L 70.207831 67.176544 
L 70.168004 67.139698 
L 69.889787 66.762341 
L 69.849959 66.795412 
L 69.492169 66.986802 
L 68.975397 66.885066 
L 68.617607 66.720583 
L 68.458544 66.732493 
L 68.259817 66.788855 
L 68.021263 66.68287 
L 67.663473 66.773677 
L 67.385173 66.532727 
L 67.106874 67.021284 
L 67.067129 66.979931 
L 66.788829 66.14386 
L 66.709338 66.287181 
L 66.510612 66.714175 
L 66.470784 66.696687 
L 66.192567 66.544866 
L 65.993758 66.527036 
L 65.755286 66.25879 
L 65.556477 66.640293 
L 65.238433 67.334359 
L 65.198687 67.282879 
L 64.880642 66.837991 
L 64.761407 66.782478 
L 64.522852 66.4091 
L 64.483107 66.480153 
L 64.165062 67.17198 
L 64.045744 66.820933 
L 63.807272 65.818422 
L 63.767527 65.889819 
L 63.489227 66.538826 
L 63.449482 66.521804 
L 63.290418 66.108087 
L 63.091692 65.785556 
L 62.813392 65.837669 
L 62.614583 65.900356 
L 62.415857 65.906572 
L 62.217048 65.937923 
L 61.859258 66.37514 
L 61.660449 66.730076 
L 61.501468 66.461713 
L 61.342404 66.321851 
L 60.984614 66.526173 
L 60.785888 66.439861 
L 60.626824 66.613626 
L 60.388352 66.892234 
L 59.752262 66.447058 
L 59.513708 66.565798 
L 59.155918 66.414616 
L 58.917364 66.538113 
L 58.519828 66.417858 
L 58.32102 66.676577 
L 57.923484 67.070652 
L 57.804248 67.055621 
L 57.168159 65.891095 
L 57.088668 66.054974 
L 56.691133 66.9496 
L 56.611642 66.933828 
L 56.452578 66.440541 
L 56.214024 65.906215 
L 56.055043 65.838012 
L 55.896062 66.129474 
L 55.697253 66.396289 
L 55.220227 66.16574 
L 55.021418 65.656697 
L 54.981673 65.674829 
L 54.782864 66.032307 
L 54.703373 65.96368 
L 54.584137 65.893054 
L 54.544309 65.937056 
L 54.345583 66.567951 
L 54.146774 66.952753 
L 54.027538 66.625821 
L 53.868474 66.199124 
L 53.828729 66.232282 
L 53.669748 66.452309 
L 53.630003 66.403529 
L 53.431194 66.062146 
L 53.391448 66.089171 
L 52.914422 66.461809 
L 52.596378 66.105795 
L 52.397569 66.080861 
L 52.000033 65.874631 
L 51.523007 66.215205 
L 51.244708 66.369526 
L 50.926663 66.791424 
L 50.886918 66.734963 
L 50.608618 66.350911 
L 50.211083 66.230468 
L 50.012274 66.065081 
L 49.972528 66.106563 
L 49.654484 66.488473 
L 49.455757 66.451825 
L 48.978649 65.558537 
L 48.899158 65.652327 
L 48.620859 66.357303 
L 48.581113 66.308946 
L 48.382304 65.908406 
L 48.342559 65.946168 
L 48.064342 66.425518 
L 48.024514 66.393419 
L 47.786042 65.952087 
L 47.626979 65.825756 
L 47.388425 66.178022 
L 47.189698 66.568437 
L 47.149953 66.549496 
L 46.792163 65.851247 
L 46.71259 65.946954 
L 46.474118 66.157851 
L 46.156073 65.92139 
L 45.599474 66.491171 
L 45.400747 66.414711 
L 45.201938 66.614489 
L 45.00313 66.421222 
L 44.764658 66.876214 
L 44.685167 66.764127 
L 44.406868 66.341807 
L 44.088823 66.613959 
L 43.890014 66.782663 
L 43.731033 66.523705 
L 43.412988 65.981918 
L 43.214179 66.047576 
L 42.776898 66.400241 
L 42.776898 66.400241 
" clip-path="url(#p896c8e4bc7)" style="fill: none; stroke: #1f77b4; stroke-width: 1.5; stroke-linecap: square"/>
   </g>
   <g id="patch_3">
    <path d="M 28.942188 354.958125 
L 28.942188 22.318125 
" style="fill: none; stroke: #000000; stroke-width: 0.8; stroke-linejoin: miter; stroke-linecap: square"/>
   </g>
   <g id="patch_4">
    <path d="M 333.305824 354.958125 
L 333.305824 22.318125 
" style="fill: none; stroke: #000000; stroke-width: 0.8; stroke-linejoin: miter; stroke-linecap: square"/>
   </g>
   <g id="patch_5">
    <path d="M 28.942187 354.958125 
L 333.305824 354.958125 
" style="fill: none; stroke: #000000; stroke-width: 0.8; stroke-linejoin: miter; stroke-linecap: square"/>
   </g>
   <g id="patch_6">
    <path d="M 28.942187 22.318125 
L 333.305824 22.318125 
" style="fill: none; stroke: #000000; stroke-width: 0.8; stroke-linejoin: miter; stroke-linecap: square"/>
   </g>
   <g id="text_15">
    <!-- Extracted Acetone Spectrum -->
    <g transform="translate(94.737131 16.318125) scale(0.12 -0.12)">
     <defs>
      <path id="DejaVuSans-45" d="M 628 4666 
L 3578 4666 
L 3578 4134 
L 1259 4134 
L 1259 2753 
L 3481 2753 
L 3481 2222 
L 1259 2222 
L 1259 531 
L 3634 531 
L 3634 0 
L 628 0 
L 628 4666 
z
" transform="scale(0.015625)"/>
      <path id="DejaVuSans-78" d="M 3513 3500 
L 2247 1797 
L 3578 0 
L 2900 0 
L 1881 1375 
L 863 0 
L 184 0 
L 1544 1831 
L 300 3500 
L 978 3500 
L 1906 2253 
L 2834 3500 
L 3513 3500 
z
" transform="scale(0.015625)"/>
      <path id="DejaVuSans-74" d="M 1172 4494 
L 1172 3500 
L 2356 3500 
L 2356 3053 
L 1172 3053 
L 1172 1153 
Q 1172 725 1289 603 
Q 1406 481 1766 481 
L 2356 481 
L 2356 0 
L 1766 0 
Q 1100 0 847 248 
Q 594 497 594 1153 
L 594 3053 
L 172 3053 
L 172 3500 
L 594 3500 
L 594 4494 
L 1172 4494 
z
" transform="scale(0.015625)"/>
      <path id="DejaVuSans-64" d="M 2906 2969 
L 2906 4863 
L 3481 4863 
L 3481 0 
L 2906 0 
L 2906 525 
Q 2725 213 2448 61 
Q 2172 -91 1784 -91 
Q 1150 -91 751 415 
Q 353 922 353 1747 
Q 353 2572 751 3078 
Q 1150 3584 1784 3584 
Q 2172 3584 2448 3432 
Q 2725 3281 2906 2969 
z
M 947 1747 
Q 947 1113 1208 752 
Q 1469 391 1925 391 
Q 2381 391 2643 752 
Q 2906 1113 2906 1747 
Q 2906 2381 2643 2742 
Q 2381 3103 1925 3103 
Q 1469 3103 1208 2742 
Q 947 2381 947 1747 
z
" transform="scale(0.015625)"/>
      <path id="DejaVuSans-41" d="M 2188 4044 
L 1331 1722 
L 3047 1722 
L 2188 4044 
z
M 1831 4666 
L 2547 4666 
L 4325 0 
L 3669 0 
L 3244 1197 
L 1141 1197 
L 716 0 
L 50 0 
L 1831 4666 
z
" transform="scale(0.015625)"/>
      <path id="DejaVuSans-6f" d="M 1959 3097 
Q 1497 3097 1228 2736 
Q 959 2375 959 1747 
Q 959 1119 1226 758 
Q 1494 397 1959 397 
Q 2419 397 2687 759 
Q 2956 1122 2956 1747 
Q 2956 2369 2687 2733 
Q 2419 3097 1959 3097 
z
M 1959 3584 
Q 2709 3584 3137 3096 
Q 3566 2609 3566 1747 
Q 3566 888 3137 398 
Q 2709 -91 1959 -91 
Q 1206 -91 779 398 
Q 353 888 353 1747 
Q 353 2609 779 3096 
Q 1206 3584 1959 3584 
z
" transform="scale(0.015625)"/>
      <path id="DejaVuSans-53" d="M 3425 4513 
L 3425 3897 
Q 3066 4069 2747 4153 
Q 2428 4238 2131 4238 
Q 1616 4238 1336 4038 
Q 1056 3838 1056 3469 
Q 1056 3159 1242 3001 
Q 1428 2844 1947 2747 
L 2328 2669 
Q 3034 2534 3370 2195 
Q 3706 1856 3706 1288 
Q 3706 609 3251 259 
Q 2797 -91 1919 -91 
Q 1588 -91 1214 -16 
Q 841 59 441 206 
L 441 856 
Q 825 641 1194 531 
Q 1563 422 1919 422 
Q 2459 422 2753 634 
Q 3047 847 3047 1241 
Q 3047 1584 2836 1778 
Q 2625 1972 2144 2069 
L 1759 2144 
Q 1053 2284 737 2584 
Q 422 2884 422 3419 
Q 422 4038 858 4394 
Q 1294 4750 2059 4750 
Q 2388 4750 2728 4690 
Q 3069 4631 3425 4513 
z
" transform="scale(0.015625)"/>
      <path id="DejaVuSans-70" d="M 1159 525 
L 1159 -1331 
L 581 -1331 
L 581 3500 
L 1159 3500 
L 1159 2969 
Q 1341 3281 1617 3432 
Q 1894 3584 2278 3584 
Q 2916 3584 3314 3078 
Q 3713 2572 3713 1747 
Q 3713 922 3314 415 
Q 2916 -91 2278 -91 
Q 1894 -91 1617 61 
Q 1341 213 1159 525 
z
M 3116 1747 
Q 3116 2381 2855 2742 
Q 2594 3103 2138 3103 
Q 1681 3103 1420 2742 
Q 1159 2381 1159 1747 
Q 1159 1113 1420 752 
Q 1681 391 2138 391 
Q 2594 391 2855 752 
Q 3116 1113 3116 1747 
z
" transform="scale(0.015625)"/>
     </defs>
     <use xlink:href="#DejaVuSans-45"/>
     <use xlink:href="#DejaVuSans-78" x="63.183594"/>
     <use xlink:href="#DejaVuSans-74" x="122.363281"/>
     <use xlink:href="#DejaVuSans-72" x="161.572266"/>
     <use xlink:href="#DejaVuSans-61" x="202.685547"/>
     <use xlink:href="#DejaVuSans-63" x="263.964844"/>
     <use xlink:href="#DejaVuSans-74" x="318.945312"/>
     <use xlink:href="#DejaVuSans-65" x="358.154297"/>
     <use xlink:href="#DejaVuSans-64" x="419.677734"/>
     <use xlink:href="#DejaVuSans-20" x="483.154297"/>
     <use xlink:href="#DejaVuSans-41" x="514.941406"/>
     <use xlink:href="#DejaVuSans-63" x="581.599609"/>
     <use xlink:href="#DejaVuSans-65" x="636.580078"/>
     <use xlink:href="#DejaVuSans-74" x="698.103516"/>
     <use xlink:href="#DejaVuSans-6f" x="737.3125"/>
     <use xlink:href="#DejaVuSans-6e" x="798.494141"/>
     <use xlink:href="#DejaVuSans-65" x="861.873047"/>
     <use xlink:href="#DejaVuSans-20" x="923.396484"/>
     <use xlink:href="#DejaVuSans-53" x="955.183594"/>
     <use xlink:href="#DejaVuSans-70" x="1018.660156"/>
     <use xlink:href="#DejaVuSans-65" x="1082.136719"/>
     <use xlink:href="#DejaVuSans-63" x="1143.660156"/>
     <use xlink:href="#DejaVuSans-74" x="1198.640625"/>
     <use xlink:href="#DejaVuSans-72" x="1237.849609"/>
     <use xlink:href="#DejaVuSans-75" x="1278.962891"/>
     <use xlink:href="#DejaVuSans-6d" x="1342.341797"/>
    </g>
   </g>
  </g>
  <g id="axes_2">
   <g id="patch_7">
    <path d="M 394.178551 354.958125 
L 698.542187 354.958125 
L 698.542187 22.318125 
L 394.178551 22.318125 
z
" style="fill: #ffffff"/>
   </g>
   <g id="matplotlib.axis_3">
    <g id="xtick_9">
     <g id="line2d_15">
      <g>
       <use xlink:href="#mfc0cc1929c" x="696.630241" y="354.958125" style="stroke: #000000; stroke-width: 0.8"/>
      </g>
     </g>
     <g id="text_16">
      <!-- 500 -->
      <g transform="translate(687.086491 369.556562) scale(0.1 -0.1)">
       <use xlink:href="#DejaVuSans-35"/>
       <use xlink:href="#DejaVuSans-30" x="63.623047"/>
       <use xlink:href="#DejaVuSans-30" x="127.246094"/>
      </g>
     </g>
    </g>
    <g id="xtick_10">
     <g id="line2d_16">
      <g>
       <use xlink:href="#mfc0cc1929c" x="655.400681" y="354.958125" style="stroke: #000000; stroke-width: 0.8"/>
      </g>
     </g>
     <g id="text_17">
      <!-- 1000 -->
      <g transform="translate(642.675681 369.556562) scale(0.1 -0.1)">
       <use xlink:href="#DejaVuSans-31"/>
       <use xlink:href="#DejaVuSans-30" x="63.623047"/>
       <use xlink:href="#DejaVuSans-30" x="127.246094"/>
       <use xlink:href="#DejaVuSans-30" x="190.869141"/>
      </g>
     </g>
    </g>
    <g id="xtick_11">
     <g id="line2d_17">
      <g>
       <use xlink:href="#mfc0cc1929c" x="614.171121" y="354.958125" style="stroke: #000000; stroke-width: 0.8"/>
      </g>
     </g>
     <g id="text_18">
      <!-- 1500 -->
      <g transform="translate(601.446121 369.556562) scale(0.1 -0.1)">
       <use xlink:href="#DejaVuSans-31"/>
       <use xlink:href="#DejaVuSans-35" x="63.623047"/>
       <use xlink:href="#DejaVuSans-30" x="127.246094"/>
       <use xlink:href="#DejaVuSans-30" x="190.869141"/>
      </g>
     </g>
    </g>
    <g id="xtick_12">
     <g id="line2d_18">
      <g>
       <use xlink:href="#mfc0cc1929c" x="572.941561" y="354.958125" style="stroke: #000000; stroke-width: 0.8"/>
      </g>
     </g>
     <g id="text_19">
      <!-- 2000 -->
      <g transform="translate(560.216561 369.556562) scale(0.1 -0.1)">
       <use xlink:href="#DejaVuSans-32"/>
       <use xlink:href="#DejaVuSans-30" x="63.623047"/>
       <use xlink:href="#DejaVuSans-30" x="127.246094"/>
       <use xlink:href="#DejaVuSans-30" x="190.869141"/>
      </g>
     </g>
    </g>
    <g id="xtick_13">
     <g id="line2d_19">
      <g>
       <use xlink:href="#mfc0cc1929c" x="531.712001" y="354.958125" style="stroke: #000000; stroke-width: 0.8"/>
      </g>
     </g>
     <g id="text_20">
      <!-- 2500 -->
      <g transform="translate(518.987001 369.556562) scale(0.1 -0.1)">
       <use xlink:href="#DejaVuSans-32"/>
       <use xlink:href="#DejaVuSans-35" x="63.623047"/>
       <use xlink:href="#DejaVuSans-30" x="127.246094"/>
       <use xlink:href="#DejaVuSans-30" x="190.869141"/>
      </g>
     </g>
    </g>
    <g id="xtick_14">
     <g id="line2d_20">
      <g>
       <use xlink:href="#mfc0cc1929c" x="490.482442" y="354.958125" style="stroke: #000000; stroke-width: 0.8"/>
      </g>
     </g>
     <g id="text_21">
      <!-- 3000 -->
      <g transform="translate(477.757442 369.556562) scale(0.1 -0.1)">
       <use xlink:href="#DejaVuSans-33"/>
       <use xlink:href="#DejaVuSans-30" x="63.623047"/>
       <use xlink:href="#DejaVuSans-30" x="127.246094"/>
       <use xlink:href="#DejaVuSans-30" x="190.869141"/>
      </g>
     </g>
    </g>
    <g id="xtick_15">
     <g id="line2d_21">
      <g>
       <use xlink:href="#mfc0cc1929c" x="449.252882" y="354.958125" style="stroke: #000000; stroke-width: 0.8"/>
      </g>
     </g>
     <g id="text_22">
      <!-- 3500 -->
      <g transform="translate(436.527882 369.556562) scale(0.1 -0.1)">
       <use xlink:href="#DejaVuSans-33"/>
       <use xlink:href="#DejaVuSans-35" x="63.623047"/>
       <use xlink:href="#DejaVuSans-30" x="127.246094"/>
       <use xlink:href="#DejaVuSans-30" x="190.869141"/>
      </g>
     </g>
    </g>
    <g id="xtick_16">
     <g id="line2d_22">
      <g>
       <use xlink:href="#mfc0cc1929c" x="408.023322" y="354.958125" style="stroke: #000000; stroke-width: 0.8"/>
      </g>
     </g>
     <g id="text_23">
      <!-- 4000 -->
      <g transform="translate(395.298322 369.556562) scale(0.1 -0.1)">
       <use xlink:href="#DejaVuSans-34"/>
       <use xlink:href="#DejaVuSans-30" x="63.623047"/>
       <use xlink:href="#DejaVuSans-30" x="127.246094"/>
       <use xlink:href="#DejaVuSans-30" x="190.869141"/>
      </g>
     </g>
    </g>
    <g id="text_24">
     <!-- Wavenumbers, cm$^{-1}$ -->
     <g transform="translate(494.010369 383.756562) scale(0.1 -0.1)">
      <use xlink:href="#DejaVuSans-57" transform="translate(0 0.684375)"/>
      <use xlink:href="#DejaVuSans-61" transform="translate(98.876953 0.684375)"/>
      <use xlink:href="#DejaVuSans-76" transform="translate(160.15625 0.684375)"/>
      <use xlink:href="#DejaVuSans-65" transform="translate(219.335938 0.684375)"/>
      <use xlink:href="#DejaVuSans-6e" transform="translate(280.859375 0.684375)"/>
      <use xlink:href="#DejaVuSans-75" transform="translate(344.238281 0.684375)"/>
      <use xlink:href="#DejaVuSans-6d" transform="translate(407.617188 0.684375)"/>
      <use xlink:href="#DejaVuSans-62" transform="translate(505.029297 0.684375)"/>
      <use xlink:href="#DejaVuSans-65" transform="translate(568.505859 0.684375)"/>
      <use xlink:href="#DejaVuSans-72" transform="translate(630.029297 0.684375)"/>
      <use xlink:href="#DejaVuSans-73" transform="translate(671.142578 0.684375)"/>
      <use xlink:href="#DejaVuSans-2c" transform="translate(723.242188 0.684375)"/>
      <use xlink:href="#DejaVuSans-20" transform="translate(755.029297 0.684375)"/>
      <use xlink:href="#DejaVuSans-63" transform="translate(786.816406 0.684375)"/>
      <use xlink:href="#DejaVuSans-6d" transform="translate(841.796875 0.684375)"/>
      <use xlink:href="#DejaVuSans-2212" transform="translate(940.166016 38.965625) scale(0.7)"/>
      <use xlink:href="#DejaVuSans-31" transform="translate(998.818359 38.965625) scale(0.7)"/>
     </g>
    </g>
   </g>
   <g id="matplotlib.axis_4">
    <g id="ytick_6">
     <g id="line2d_23">
      <g>
       <use xlink:href="#m2767800d6a" x="394.178551" y="310.348662" style="stroke: #000000; stroke-width: 0.8"/>
      </g>
     </g>
     <g id="text_25">
      <!-- 70 -->
      <g transform="translate(374.453551 314.147881) scale(0.1 -0.1)">
       <defs>
        <path id="DejaVuSans-37" d="M 525 4666 
L 3525 4666 
L 3525 4397 
L 1831 0 
L 1172 0 
L 2766 4134 
L 525 4134 
L 525 4666 
z
" transform="scale(0.015625)"/>
       </defs>
       <use xlink:href="#DejaVuSans-37"/>
       <use xlink:href="#DejaVuSans-30" x="63.623047"/>
      </g>
     </g>
    </g>
    <g id="ytick_7">
     <g id="line2d_24">
      <g>
       <use xlink:href="#m2767800d6a" x="394.178551" y="264.268929" style="stroke: #000000; stroke-width: 0.8"/>
      </g>
     </g>
     <g id="text_26">
      <!-- 75 -->
      <g transform="translate(374.453551 268.068148) scale(0.1 -0.1)">
       <use xlink:href="#DejaVuSans-37"/>
       <use xlink:href="#DejaVuSans-35" x="63.623047"/>
      </g>
     </g>
    </g>
    <g id="ytick_8">
     <g id="line2d_25">
      <g>
       <use xlink:href="#m2767800d6a" x="394.178551" y="218.189196" style="stroke: #000000; stroke-width: 0.8"/>
      </g>
     </g>
     <g id="text_27">
      <!-- 80 -->
      <g transform="translate(374.453551 221.988415) scale(0.1 -0.1)">
       <use xlink:href="#DejaVuSans-38"/>
       <use xlink:href="#DejaVuSans-30" x="63.623047"/>
      </g>
     </g>
    </g>
    <g id="ytick_9">
     <g id="line2d_26">
      <g>
       <use xlink:href="#m2767800d6a" x="394.178551" y="172.109463" style="stroke: #000000; stroke-width: 0.8"/>
      </g>
     </g>
     <g id="text_28">
      <!-- 85 -->
      <g transform="translate(374.453551 175.908682) scale(0.1 -0.1)">
       <use xlink:href="#DejaVuSans-38"/>
       <use xlink:href="#DejaVuSans-35" x="63.623047"/>
      </g>
     </g>
    </g>
    <g id="ytick_10">
     <g id="line2d_27">
      <g>
       <use xlink:href="#m2767800d6a" x="394.178551" y="126.02973" style="stroke: #000000; stroke-width: 0.8"/>
      </g>
     </g>
     <g id="text_29">
      <!-- 90 -->
      <g transform="translate(374.453551 129.828949) scale(0.1 -0.1)">
       <defs>
        <path id="DejaVuSans-39" d="M 703 97 
L 703 672 
Q 941 559 1184 500 
Q 1428 441 1663 441 
Q 2288 441 2617 861 
Q 2947 1281 2994 2138 
Q 2813 1869 2534 1725 
Q 2256 1581 1919 1581 
Q 1219 1581 811 2004 
Q 403 2428 403 3163 
Q 403 3881 828 4315 
Q 1253 4750 1959 4750 
Q 2769 4750 3195 4129 
Q 3622 3509 3622 2328 
Q 3622 1225 3098 567 
Q 2575 -91 1691 -91 
Q 1453 -91 1209 -44 
Q 966 3 703 97 
z
M 1959 2075 
Q 2384 2075 2632 2365 
Q 2881 2656 2881 3163 
Q 2881 3666 2632 3958 
Q 2384 4250 1959 4250 
Q 1534 4250 1286 3958 
Q 1038 3666 1038 3163 
Q 1038 2656 1286 2365 
Q 1534 2075 1959 2075 
z
" transform="scale(0.015625)"/>
       </defs>
       <use xlink:href="#DejaVuSans-39"/>
       <use xlink:href="#DejaVuSans-30" x="63.623047"/>
      </g>
     </g>
    </g>
    <g id="ytick_11">
     <g id="line2d_28">
      <g>
       <use xlink:href="#m2767800d6a" x="394.178551" y="79.949997" style="stroke: #000000; stroke-width: 0.8"/>
      </g>
     </g>
     <g id="text_30">
      <!-- 95 -->
      <g transform="translate(374.453551 83.749215) scale(0.1 -0.1)">
       <use xlink:href="#DejaVuSans-39"/>
       <use xlink:href="#DejaVuSans-35" x="63.623047"/>
      </g>
     </g>
    </g>
    <g id="ytick_12">
     <g id="line2d_29">
      <g>
       <use xlink:href="#m2767800d6a" x="394.178551" y="33.870263" style="stroke: #000000; stroke-width: 0.8"/>
      </g>
     </g>
     <g id="text_31">
      <!-- 100 -->
      <g transform="translate(368.091051 37.669482) scale(0.1 -0.1)">
       <use xlink:href="#DejaVuSans-31"/>
       <use xlink:href="#DejaVuSans-30" x="63.623047"/>
       <use xlink:href="#DejaVuSans-30" x="127.246094"/>
      </g>
     </g>
    </g>
    <g id="text_32">
     <!-- Transmittance, % -->
     <g transform="translate(362.011364 232.014687) rotate(-90) scale(0.1 -0.1)">
      <defs>
       <path id="DejaVuSans-54" d="M -19 4666 
L 3928 4666 
L 3928 4134 
L 2272 4134 
L 2272 0 
L 1638 0 
L 1638 4134 
L -19 4134 
L -19 4666 
z
" transform="scale(0.015625)"/>
       <path id="DejaVuSans-69" d="M 603 3500 
L 1178 3500 
L 1178 0 
L 603 0 
L 603 3500 
z
M 603 4863 
L 1178 4863 
L 1178 4134 
L 603 4134 
L 603 4863 
z
" transform="scale(0.015625)"/>
       <path id="DejaVuSans-25" d="M 4653 2053 
Q 4381 2053 4226 1822 
Q 4072 1591 4072 1178 
Q 4072 772 4226 539 
Q 4381 306 4653 306 
Q 4919 306 5073 539 
Q 5228 772 5228 1178 
Q 5228 1588 5073 1820 
Q 4919 2053 4653 2053 
z
M 4653 2450 
Q 5147 2450 5437 2106 
Q 5728 1763 5728 1178 
Q 5728 594 5436 251 
Q 5144 -91 4653 -91 
Q 4153 -91 3862 251 
Q 3572 594 3572 1178 
Q 3572 1766 3864 2108 
Q 4156 2450 4653 2450 
z
M 1428 4353 
Q 1159 4353 1004 4120 
Q 850 3888 850 3481 
Q 850 3069 1003 2837 
Q 1156 2606 1428 2606 
Q 1700 2606 1854 2837 
Q 2009 3069 2009 3481 
Q 2009 3884 1853 4118 
Q 1697 4353 1428 4353 
z
M 4250 4750 
L 4750 4750 
L 1831 -91 
L 1331 -91 
L 4250 4750 
z
M 1428 4750 
Q 1922 4750 2215 4408 
Q 2509 4066 2509 3481 
Q 2509 2891 2217 2550 
Q 1925 2209 1428 2209 
Q 931 2209 642 2551 
Q 353 2894 353 3481 
Q 353 4063 643 4406 
Q 934 4750 1428 4750 
z
" transform="scale(0.015625)"/>
      </defs>
      <use xlink:href="#DejaVuSans-54"/>
      <use xlink:href="#DejaVuSans-72" x="46.333984"/>
      <use xlink:href="#DejaVuSans-61" x="87.447266"/>
      <use xlink:href="#DejaVuSans-6e" x="148.726562"/>
      <use xlink:href="#DejaVuSans-73" x="212.105469"/>
      <use xlink:href="#DejaVuSans-6d" x="264.205078"/>
      <use xlink:href="#DejaVuSans-69" x="361.617188"/>
      <use xlink:href="#DejaVuSans-74" x="389.400391"/>
      <use xlink:href="#DejaVuSans-74" x="428.609375"/>
      <use xlink:href="#DejaVuSans-61" x="467.818359"/>
      <use xlink:href="#DejaVuSans-6e" x="529.097656"/>
      <use xlink:href="#DejaVuSans-63" x="592.476562"/>
      <use xlink:href="#DejaVuSans-65" x="647.457031"/>
      <use xlink:href="#DejaVuSans-2c" x="708.980469"/>
      <use xlink:href="#DejaVuSans-20" x="740.767578"/>
      <use xlink:href="#DejaVuSans-25" x="772.554688"/>
     </g>
    </g>
   </g>
   <g id="line2d_30">
    <path d="M 684.707477 59.293742 
L 684.309925 62.178795 
L 684.230418 61.890335 
L 683.912373 60.333301 
L 683.753359 60.564621 
L 683.713605 60.533287 
L 683.514829 60.047607 
L 683.475076 60.123823 
L 683.196784 61.199416 
L 683.157031 61.156285 
L 683.03777 61.061085 
L 682.998017 61.120527 
L 682.799241 61.779836 
L 682.719725 61.596531 
L 682.401689 60.336895 
L 682.282428 60.40067 
L 682.083652 60.917224 
L 681.964383 61.169648 
L 681.92463 61.14753 
L 681.805369 60.623972 
L 681.606593 59.613904 
L 681.56684 59.643764 
L 681.368064 60.059864 
L 681.32831 60.035626 
L 681.010265 59.744034 
L 680.891005 59.660537 
L 680.652475 59.296784 
L 680.453699 59.636484 
L 680.413946 59.556673 
L 680.095901 58.144053 
L 680.016394 58.233448 
L 679.777864 58.475274 
L 679.380313 58.480159 
L 678.982769 59.196146 
L 678.943015 59.135044 
L 678.704486 58.620241 
L 678.664724 58.69701 
L 678.465956 59.082052 
L 677.790121 58.604482 
L 677.472077 58.499144 
L 677.352816 58.533888 
L 677.233547 58.576465 
L 676.955264 57.965356 
L 676.875757 58.081569 
L 676.756488 58.182484 
L 676.716735 58.145528 
L 676.517959 57.987935 
L 676.120415 58.313627 
L 675.722863 57.991161 
L 675.404826 57.697725 
L 675.245804 58.037793 
L 675.007275 58.487439 
L 674.728991 58.737007 
L 674.490462 59.266555 
L 674.212179 60.261785 
L 673.615851 63.954892 
L 673.218299 66.412693 
L 673.138792 66.363111 
L 672.97977 65.608693 
L 672.661733 62.827874 
L 672.224428 58.891098 
L 671.866638 57.736432 
L 671.469086 57.195824 
L 671.230556 56.993258 
L 671.03178 56.740741 
L 670.67399 56.941556 
L 670.475214 56.854742 
L 670.196931 56.947455 
L 669.878886 56.70231 
L 669.521096 56.831518 
L 669.242813 56.711711 
L 668.96453 56.842761 
L 668.845261 56.877598 
L 668.566978 57.264575 
L 668.248942 57.028371 
L 667.453838 57.723714 
L 667.294824 57.867575 
L 667.056294 58.024983 
L 666.937025 58.166356 
L 665.346826 62.188287 
L 664.949282 65.0832 
L 664.591484 68.630418 
L 664.074671 76.142428 
L 663.637366 81.079687 
L 663.518105 81.296631 
L 663.398836 80.90182 
L 663.160307 78.793211 
L 661.967659 65.734583 
L 661.450847 62.70226 
L 661.093057 61.323463 
L 659.900409 58.613698 
L 658.986045 57.535801 
L 658.747515 57.51783 
L 658.349963 57.488154 
L 657.912658 57.434517 
L 657.674128 57.779009 
L 656.998293 58.506608 
L 656.799526 58.492139 
L 655.686385 57.911811 
L 654.891331 58.037793 
L 654.493713 58.202574 
L 654.215496 58.590474 
L 654.016687 58.741615 
L 653.658897 58.761061 
L 653.301107 59.0333 
L 653.022807 59.481195 
L 652.784253 59.698138 
L 652.585527 59.83564 
L 651.989182 60.373944 
L 651.790373 60.60296 
L 651.194111 61.439031 
L 650.876067 61.906187 
L 650.319468 63.347745 
L 650.041168 63.726705 
L 649.405078 65.109281 
L 649.126861 66.985095 
L 648.808817 70.704282 
L 648.490772 77.884242 
L 648.093154 93.985975 
L 647.854682 100.615282 
L 647.814937 100.644128 
L 647.735446 99.571023 
L 647.536637 91.912572 
L 647.019783 72.380295 
L 646.661993 66.512133 
L 646.343949 63.781079 
L 645.707859 61.36346 
L 645.151342 60.085024 
L 644.793552 59.505801 
L 644.396017 59.13274 
L 644.157463 59.077997 
L 643.879163 59.019937 
L 643.600863 59.078919 
L 643.203328 59.420093 
L 642.368512 60.555774 
L 642.129958 61.062928 
L 641.255314 63.72182 
L 640.897524 65.371106 
L 640.420498 68.94929 
L 640.062708 73.427779 
L 639.665172 81.081991 
L 638.750783 107.402274 
L 638.432738 125.653166 
L 638.114693 156.902045 
L 637.756903 217.603338 
L 637.319622 288.054827 
L 637.279877 288.897533 
L 637.240132 288.349368 
L 637.120814 278.188787 
L 636.882342 228.456314 
L 636.365488 125.6563 
L 635.967953 88.626442 
L 635.610162 73.033982 
L 635.212627 65.043295 
L 634.854837 61.48124 
L 634.377728 58.906949 
L 633.940448 57.720304 
L 633.542912 57.39581 
L 633.065804 56.98865 
L 632.787587 56.827924 
L 632.270733 57.316185 
L 631.078127 60.166861 
L 630.481782 62.54135 
L 629.964929 65.705092 
L 629.249348 72.11976 
L 628.692832 78.630089 
L 628.255469 86.015011 
L 627.857933 96.48147 
L 627.460398 113.535026 
L 627.062862 142.091927 
L 626.665327 188.792538 
L 626.108728 255.590365 
L 625.909919 261.150345 
L 625.830428 261.42581 
L 625.790683 261.234579 
L 625.671447 258.889305 
L 625.512384 250.413767 
L 625.234084 220.034505 
L 624.478759 129.520177 
L 624.081223 107.376193 
L 623.683688 95.440989 
L 623.246407 88.671508 
L 623.007853 87.713971 
L 622.848789 87.730283 
L 622.729553 88.047865 
L 622.451254 89.865157 
L 622.212782 92.576489 
L 621.775419 101.518906 
L 620.861112 121.732057 
L 620.781539 121.634276 
L 620.622558 120.706323 
L 620.344258 117.282598 
L 619.986468 113.978497 
L 619.787659 113.32223 
L 619.668423 113.427568 
L 619.549187 113.558066 
L 619.509442 113.490236 
L 619.390124 112.550394 
L 618.952843 105.480841 
L 617.442192 73.709695 
L 616.726529 65.874666 
L 616.448312 64.432186 
L 616.010949 61.256923 
L 615.613414 59.769101 
L 615.017152 58.267362 
L 614.699107 56.918885 
L 614.341234 56.72406 
L 613.983444 55.815552 
L 613.943699 55.866793 
L 613.665482 56.732447 
L 613.585909 56.554487 
L 613.267864 55.655655 
L 613.029392 55.629943 
L 612.472793 56.254508 
L 612.035512 55.601005 
L 611.757213 55.356967 
L 611.717468 55.409313 
L 611.478913 55.952593 
L 611.399423 55.854167 
L 611.200614 55.494745 
L 611.081378 55.850849 
L 610.922314 56.404912 
L 610.882569 56.392009 
L 610.246562 55.354386 
L 609.928517 55.22739 
L 609.610472 55.598148 
L 609.451409 56.448227 
L 609.332173 56.890961 
L 609.292427 56.75779 
L 608.934637 55.254024 
L 608.775574 55.236514 
L 608.576847 55.599254 
L 608.457529 55.695929 
L 607.980503 54.998743 
L 607.423904 54.525043 
L 607.225177 54.301741 
L 607.026368 54.181749 
L 606.748069 53.756802 
L 606.469769 53.30181 
L 605.873507 53.110395 
L 605.356654 53.491843 
L 605.157927 53.52373 
L 605.038609 53.577552 
L 604.839882 54.011623 
L 604.561583 54.861333 
L 604.521837 54.810553 
L 604.362774 54.658582 
L 604.243538 54.967224 
L 603.885748 56.154515 
L 603.766429 56.315517 
L 603.527958 56.645264 
L 603.408639 56.810874 
L 603.209913 57.690813 
L 602.971359 58.721709 
L 602.812377 58.702539 
L 602.494333 59.378437 
L 602.017224 61.23886 
L 601.977479 61.228815 
L 601.897988 61.313878 
L 601.739007 62.13207 
L 601.540198 62.896901 
L 601.341389 62.63609 
L 601.301644 62.681801 
L 601.142663 63.274386 
L 600.904108 64.888191 
L 600.427082 69.924613 
L 599.949974 79.730473 
L 599.631929 84.524608 
L 599.353712 86.014366 
L 599.115158 90.391111 
L 598.677795 102.066702 
L 598.320087 121.202509 
L 598.041788 147.915852 
L 597.64417 214.806483 
L 597.087653 324.971329 
L 596.849099 339.838125 
L 596.809354 339.711867 
L 596.690118 335.450505 
L 596.491309 313.501346 
L 596.213009 255.132701 
L 595.775728 170.504782 
L 595.378193 126.882205 
L 595.020403 108.342485 
L 594.622867 99.514714 
L 594.22525 96.046938 
L 594.145759 95.972749 
L 594.106014 96.029427 
L 593.708478 96.883008 
L 593.668733 96.8114 
L 593.549497 95.785481 
L 593.350688 90.788042 
L 592.555617 67.837294 
L 592.157999 61.673761 
L 591.52191 55.662659 
L 591.203947 53.982039 
L 590.408794 52.67743 
L 590.210068 52.779635 
L 590.170322 52.69706 
L 588.421035 46.902534 
L 587.546473 45.435723 
L 587.347664 45.41038 
L 586.592339 44.331008 
L 586.353785 44.481504 
L 586.314039 44.417822 
L 586.115313 44.155076 
L 585.956249 44.483901 
L 585.797268 44.724805 
L 585.320159 43.798695 
L 585.041942 43.321677 
L 584.922624 43.279192 
L 584.644324 43.436324 
L 584.366025 43.232006 
L 584.246789 43.192009 
L 584.087808 43.546823 
L 583.888999 43.982737 
L 583.849254 43.95767 
L 583.570954 43.258548 
L 583.292655 42.714992 
L 583.093928 42.944745 
L 582.815629 43.210902 
L 582.696393 43.393009 
L 582.537329 43.61198 
L 582.338603 43.474754 
L 582.020558 43.830029 
L 581.026678 43.090173 
L 580.788124 42.855627 
L 580.668888 43.019302 
L 580.390588 43.746256 
L 580.311098 43.674556 
L 580.112289 43.532723 
L 579.675008 43.773996 
L 579.476199 43.6188 
L 579.158154 43.823025 
L 578.84011 43.504891 
L 578.681128 43.446738 
L 578.402829 43.312922 
L 577.369204 43.967255 
L 577.170395 43.946427 
L 577.011414 44.228342 
L 576.772859 44.632369 
L 576.534388 44.599008 
L 576.335579 44.191755 
L 576.295833 44.224195 
L 576.097024 44.831987 
L 575.898298 45.461528 
L 575.858553 45.421807 
L 575.580253 44.593755 
L 575.500763 44.684992 
L 575.182718 45.3549 
L 575.063399 45.389091 
L 574.904418 45.489268 
L 574.665864 45.251865 
L 574.626119 45.296563 
L 574.42731 45.458763 
L 574.268329 45.178599 
L 573.950284 44.55431 
L 573.910538 44.576429 
L 573.751475 45.213527 
L 573.632239 45.478762 
L 573.592494 45.44199 
L 573.393685 45.285872 
L 573.115468 45.32034 
L 572.956404 45.447704 
L 572.71785 45.963336 
L 572.678104 45.946195 
L 572.201078 45.629996 
L 571.962524 45.834405 
L 571.644479 45.3067 
L 571.36618 44.954375 
L 571.326435 44.992897 
L 571.087963 45.445492 
L 571.048135 45.414066 
L 570.809663 45.252971 
L 570.412128 45.34126 
L 570.253064 45.636631 
L 570.213319 45.616264 
L 569.895274 44.997782 
L 569.815783 45.063307 
L 569.65672 45.133625 
L 569.497739 44.735957 
L 569.338675 44.534035 
L 569.179694 44.511548 
L 569.02063 44.524266 
L 568.742413 44.848668 
L 568.384623 44.668772 
L 567.470234 43.704508 
L 566.834144 43.997575 
L 566.675163 43.923663 
L 566.516099 43.878966 
L 566.277545 43.953062 
L 566.039073 43.879242 
L 565.721028 44.087615 
L 565.601793 44.122082 
L 565.402984 44.278385 
L 565.124684 44.009003 
L 564.925875 44.473671 
L 564.766894 44.657252 
L 564.369359 44.565185 
L 564.17055 44.652737 
L 564.011568 44.616057 
L 563.375479 45.216845 
L 562.977943 44.938523 
L 562.341854 45.436369 
L 562.1033 45.074458 
L 562.063554 45.142841 
L 561.626274 46.037433 
L 561.46721 46.14913 
L 561.268483 46.307091 
L 560.990184 46.097428 
L 560.831203 45.986192 
L 560.552903 46.223226 
L 560.314349 46.200647 
L 560.155285 46.522744 
L 560.075795 46.666697 
L 560.036049 46.64034 
L 559.797495 45.730265 
L 559.678259 45.935228 
L 559.559023 46.109225 
L 559.519278 46.058906 
L 559.360214 45.330293 
L 559.161406 44.629236 
L 559.04217 44.84194 
L 558.883188 45.133901 
L 558.843443 45.112336 
L 558.644634 44.572097 
L 558.40608 44.244931 
L 558.286844 44.414504 
L 558.088035 44.847009 
L 558.04829 44.815398 
L 557.809818 44.656331 
L 557.6905 44.527953 
L 557.491773 44.246682 
L 557.452028 44.273316 
L 557.014665 44.680937 
L 556.537639 44.286218 
L 556.219594 44.054253 
L 556.100276 44.00633 
L 555.742568 44.333312 
L 555.464268 44.338934 
L 555.265459 44.677067 
L 555.225714 44.625089 
L 554.947415 43.992967 
L 554.907669 44.045221 
L 554.62937 44.51717 
L 554.589625 44.478924 
L 554.231834 44.087062 
L 553.91379 44.332575 
L 553.595745 44.167241 
L 553.397018 44.371927 
L 553.237955 44.378562 
L 552.91991 44.095356 
L 552.721183 44.057479 
L 552.522374 44.043747 
L 552.005521 44.50353 
L 551.846539 44.56666 
L 551.449004 44.323635 
L 551.290023 44.324465 
L 550.733424 43.953338 
L 550.534615 43.998865 
L 550.296143 43.947993 
L 549.898525 43.410058 
L 549.660053 42.950367 
L 549.620226 42.971932 
L 549.262436 43.394207 
L 549.22269 43.365177 
L 548.825155 42.941059 
L 548.666174 42.914333 
L 548.308384 43.064737 
L 547.950593 43.051927 
L 547.751785 43.112476 
L 547.195185 43.631241 
L 546.916968 43.96578 
L 546.757905 43.983751 
L 546.43986 44.215532 
L 546.280879 44.276357 
L 545.644789 45.004233 
L 545.44598 45.062385 
L 544.80989 45.289006 
L 544.571419 45.021098 
L 544.37261 44.210832 
L 544.173801 43.696951 
L 544.054565 44.023195 
L 543.65703 45.332966 
L 543.37873 45.757268 
L 542.74264 45.896613 
L 542.623404 45.692019 
L 541.987315 43.376973 
L 541.66927 42.3846 
L 541.072926 41.713034 
L 540.715136 41.746672 
L 540.23811 41.492404 
L 539.95981 41.665019 
L 539.443039 41.588895 
L 538.926185 41.747041 
L 538.60814 41.559036 
L 538.290095 41.883068 
L 538.25035 41.835237 
L 537.932305 41.315919 
L 537.89256 41.343475 
L 537.455279 41.695339 
L 537.25647 41.627694 
L 537.017916 41.681239 
L 536.739699 41.436463 
L 536.063864 41.599494 
L 535.82531 41.610368 
L 534.751939 41.843624 
L 534.513385 41.952741 
L 534.314576 41.795609 
L 534.11585 41.733033 
L 533.956869 41.652393 
L 533.718314 41.415359 
L 533.400269 41.759667 
L 533.360524 41.716628 
L 533.201461 41.64373 
L 532.84367 41.971726 
L 532.803925 41.922144 
L 532.565453 41.567791 
L 532.525626 41.596176 
L 532.287154 41.834132 
L 532.008854 41.554151 
L 531.969109 41.608433 
L 531.730555 41.909426 
L 530.975229 41.585577 
L 530.06084 41.985918 
L 529.822286 41.694602 
L 529.782541 41.721144 
L 529.504323 41.856065 
L 529.265769 41.909057 
L 529.146451 41.860581 
L 528.868234 41.378403 
L 528.788661 41.464849 
L 528.589934 41.6817 
L 528.271889 41.619031 
L 527.99359 41.680041 
L 527.079201 41.595162 
L 526.721411 41.901131 
L 526.482939 42.017068 
L 526.204639 42.180098 
L 525.92634 42.317692 
L 525.56855 42.640896 
L 525.131269 42.655641 
L 524.892715 42.788259 
L 524.65416 42.48192 
L 524.137389 41.824823 
L 523.381981 41.684649 
L 523.183255 41.761879 
L 522.626656 41.125517 
L 522.388184 41.291036 
L 522.070139 41.375915 
L 521.394304 41.292971 
L 521.076259 41.396927 
L 519.963144 41.021562 
L 519.44629 41.126347 
L 519.128245 41.078055 
L 518.372919 40.857702 
L 518.134365 40.849408 
L 517.895811 40.836413 
L 517.697085 40.792637 
L 517.418785 40.930508 
L 517.02125 40.757432 
L 516.74295 40.73854 
L 516.345415 40.669789 
L 516.10686 40.646288 
L 515.788816 40.653108 
L 515.39128 40.622788 
L 515.073235 40.305206 
L 514.596209 40.455057 
L 514.3974 40.372206 
L 513.880629 40.379763 
L 513.443266 40.368888 
L 513.165049 40.432755 
L 512.886749 40.520398 
L 512.648195 40.552101 
L 512.409641 40.550995 
L 511.89287 40.891801 
L 511.574825 40.775864 
L 511.25678 41.093538 
L 510.819499 40.969399 
L 510.5412 41.106717 
L 510.302645 41.156944 
L 509.865365 41.569542 
L 509.626811 41.567883 
L 508.83174 42.105173 
L 508.394459 42.213183 
L 508.155905 42.285805 
L 507.996841 42.24931 
L 507.639051 42.047942 
L 507.400579 42.035869 
L 507.002961 41.86436 
L 506.684916 41.953478 
L 506.20789 41.831182 
L 505.969336 42.036145 
L 505.810355 42.043241 
L 505.571801 41.924356 
L 505.293501 42.019741 
L 505.015284 42.066558 
L 504.697239 42.150607 
L 504.41894 42.15798 
L 503.70336 43.144823 
L 503.027525 43.143718 
L 501.914327 43.33117 
L 501.675855 43.216155 
L 501.35781 43.249517 
L 501.159001 43.238642 
L 500.840956 43.485537 
L 500.602484 43.596497 
L 500.28444 43.722755 
L 500.00614 43.683127 
L 498.415916 45.783349 
L 497.700336 47.947898 
L 497.143737 49.329184 
L 496.786029 49.793392 
L 496.507729 49.743349 
L 496.348666 49.659023 
L 495.792149 48.777057 
L 495.752321 48.813552 
L 495.553595 48.947276 
L 495.036741 48.530991 
L 494.599461 49.116388 
L 493.88388 50.366531 
L 493.367027 51.331902 
L 493.1683 51.965406 
L 493.009236 52.548499 
L 492.969491 52.536703 
L 492.850255 52.076919 
L 492.412975 50.209215 
L 492.214166 50.101942 
L 492.055184 50.280823 
L 491.617821 51.289232 
L 491.180541 53.833663 
L 490.82275 56.587019 
L 490.266151 60.746636 
L 490.186661 60.769861 
L 490.146915 60.722306 
L 489.987852 60.175156 
L 489.709635 57.868588 
L 488.834991 50.357868 
L 488.238646 48.129453 
L 487.801366 47.040681 
L 486.60876 44.794017 
L 485.932925 44.448972 
L 485.773861 44.478094 
L 485.33658 43.993796 
L 484.819726 43.579908 
L 484.461936 43.90901 
L 484.422191 43.838508 
L 484.064401 43.15579 
L 483.865674 43.359555 
L 483.666866 43.453189 
L 483.070521 42.804386 
L 482.55375 42.643107 
L 482.394686 42.611404 
L 481.639361 41.919656 
L 481.241825 41.769712 
L 481.003271 41.756072 
L 480.685226 41.529729 
L 480.446672 41.276198 
L 480.088964 41.274816 
L 479.49262 41.153718 
L 479.254066 41.016124 
L 479.055257 40.902768 
L 478.697467 40.980182 
L 478.299931 40.602236 
L 477.822905 40.928204 
L 477.584351 40.834017 
L 477.465115 40.762593 
L 477.186816 40.32244 
L 477.14707 40.376353 
L 476.908516 40.671079 
L 476.43149 40.311749 
L 476.113445 40.466116 
L 475.914636 40.246408 
L 475.596591 39.996195 
L 475.477356 40.092041 
L 475.199056 40.469895 
L 474.881011 40.371284 
L 474.682285 40.570349 
L 474.00645 39.587376 
L 473.926877 39.708566 
L 473.688405 40.235533 
L 473.64866 40.220235 
L 473.290787 39.930301 
L 473.052315 40.075729 
L 472.694525 39.629585 
L 472.615035 39.729117 
L 472.37648 40.005135 
L 472.098181 39.96781 
L 471.501837 39.879337 
L 471.30311 39.68912 
L 471.144046 40.004398 
L 470.905492 40.376537 
L 470.547784 40.350088 
L 470.070676 39.84275 
L 469.673141 39.936199 
L 469.394841 40.085314 
L 468.917815 39.789389 
L 468.202152 39.792062 
L 468.043171 39.817406 
L 467.804617 39.744508 
L 467.5264 40.015272 
L 467.16861 39.533739 
L 467.128782 39.558622 
L 466.969801 39.540835 
L 466.770992 39.497428 
L 466.53252 39.540743 
L 465.936176 39.388496 
L 465.737367 39.482498 
L 465.419322 39.340296 
L 465.141105 39.656956 
L 464.942296 39.712805 
L 464.783315 39.45015 
L 464.624251 39.194224 
L 464.584506 39.22436 
L 464.226716 39.692806 
L 463.948416 39.505538 
L 463.789435 39.304354 
L 463.749607 39.32638 
L 463.3919 39.642303 
L 463.272581 39.697046 
L 463.073855 39.845975 
L 462.47751 39.464896 
L 462.358192 39.439644 
L 462.11972 39.180031 
L 462.079975 39.215881 
L 461.841421 39.345642 
L 461.563121 39.329606 
L 461.324567 39.337992 
L 461.006605 39.2474 
L 460.648732 39.351908 
L 460.489751 39.317717 
L 460.05247 39.878784 
L 459.893407 39.638709 
L 459.654852 39.354212 
L 459.297062 39.646266 
L 459.098336 39.704234 
L 458.7008 39.57346 
L 457.746666 40.897146 
L 457.428621 41.507518 
L 457.150321 41.936152 
L 456.872022 42.581821 
L 456.63355 42.960044 
L 456.434741 42.877561 
L 455.997461 42.118904 
L 455.63967 40.855398 
L 454.685536 40.361331 
L 454.486727 40.358198 
L 454.288001 40.399762 
L 454.089192 40.72573 
L 453.85072 41.05778 
L 453.691656 40.860282 
L 453.453102 40.609056 
L 452.578541 41.12948 
L 452.300241 41.068931 
L 452.14126 41.088193 
L 451.942451 41.258135 
L 451.624406 40.838072 
L 451.584661 40.898805 
L 451.187125 41.504293 
L 450.988316 41.227261 
L 450.630526 40.938802 
L 450.471545 41.00359 
L 450.193246 41.113352 
L 449.994437 41.175836 
L 449.676392 41.6241 
L 449.636646 41.56051 
L 449.358347 41.080175 
L 449.318602 41.110403 
L 448.960812 41.736811 
L 448.881321 41.652393 
L 448.563276 41.328453 
L 448.404212 41.516181 
L 448.08625 42.04103 
L 447.609142 41.842979 
L 447.132116 41.850812 
L 446.933307 42.021307 
L 446.37679 41.659674 
L 446.098491 42.008221 
L 446.058745 41.954492 
L 445.700955 41.496459 
L 445.184101 41.478304 
L 444.945547 41.631012 
L 443.991495 41.904081 
L 443.633623 42.027298 
L 443.355406 42.058079 
L 443.196342 42.069507 
L 442.639825 41.668337 
L 442.480762 41.949792 
L 442.162717 42.494178 
L 441.924245 42.268387 
L 441.725436 42.070705 
L 441.407391 42.593157 
L 441.327901 42.49086 
L 441.089346 42.291703 
L 440.890537 42.242029 
L 440.652066 42.121485 
L 440.373766 42.187563 
L 440.214785 42.278156 
L 439.936485 42.738216 
L 439.89674 42.701629 
L 439.618441 42.36285 
L 439.419632 42.439619 
L 439.181077 42.077617 
L 439.101587 42.158902 
L 438.743797 42.574725 
L 438.624561 42.501182 
L 437.948726 41.131784 
L 437.749917 41.119527 
L 437.431872 41.627879 
L 437.1934 42.014488 
L 437.153655 41.972739 
L 436.398247 40.380869 
L 436.080202 39.920993 
L 435.801903 39.64304 
L 435.76224 39.678245 
L 435.404367 40.248528 
L 435.205641 40.545742 
L 435.046577 40.631266 
L 434.927341 40.738816 
L 434.887596 40.69716 
L 434.688787 39.89823 
L 434.211761 38.62689 
L 434.132271 38.619056 
L 433.973207 39.133306 
L 433.77448 39.733633 
L 433.734653 39.718242 
L 433.376945 38.988432 
L 432.979327 38.351517 
L 432.860091 38.458607 
L 432.621537 38.738219 
L 432.263747 38.398334 
L 432.224002 38.437134 
L 432.025193 38.963733 
L 431.905957 39.124459 
L 431.866211 39.071467 
L 431.627657 38.533256 
L 431.587912 38.553162 
L 431.389185 38.595371 
L 431.230122 38.469758 
L 431.071141 38.821254 
L 430.832586 39.151369 
L 430.673605 39.059394 
L 430.395306 38.898484 
L 430.196497 39.084093 
L 429.838707 39.404716 
L 429.600152 39.042253 
L 429.560407 39.118837 
L 429.202617 39.939425 
L 429.123126 39.813443 
L 428.924317 39.221964 
L 428.884572 39.265279 
L 428.685846 39.821092 
L 428.646018 39.758516 
L 428.328056 38.590303 
L 428.28831 38.633802 
L 428.089501 38.913045 
L 428.049756 38.87784 
L 427.731711 38.492337 
L 427.572648 38.421098 
L 427.334176 38.233553 
L 427.016131 38.298341 
L 426.777577 38.175216 
L 426.539022 37.945279 
L 426.141487 38.195584 
L 425.783697 37.838742 
L 425.505397 37.954587 
L 425.266926 37.909336 
L 424.909136 38.052736 
L 424.750072 38.097157 
L 424.591091 38.507175 
L 424.432027 38.914059 
L 424.392282 38.886135 
L 424.233301 38.270141 
L 424.074237 37.90777 
L 423.676702 38.603021 
L 423.51772 38.900419 
L 423.477893 38.857657 
L 423.239421 38.404878 
L 423.199675 38.447455 
L 422.841885 38.836645 
L 422.682822 38.812407 
L 422.364777 38.474827 
L 422.325032 38.521552 
L 422.126223 38.64652 
L 421.887751 38.444691 
L 421.609451 38.643018 
L 421.331152 38.246087 
L 421.291407 38.292996 
L 421.092598 38.531413 
L 421.052852 38.501184 
L 420.854126 37.981866 
L 420.734807 37.761973 
L 420.695062 37.778378 
L 420.575826 38.136602 
L 420.218036 39.363152 
L 420.138546 39.331449 
L 419.979482 38.495194 
L 419.780673 37.891642 
L 419.621692 38.278343 
L 419.462711 38.478421 
L 419.224156 38.12545 
L 419.184411 38.186829 
L 418.826621 39.00843 
L 418.786793 38.984837 
L 418.548321 38.568553 
L 418.468831 38.683292 
L 418.270022 38.994145 
L 417.554442 38.541642 
L 417.435206 38.458515 
L 417.156906 38.133468 
L 416.838861 38.206643 
L 416.560562 38.195123 
L 416.361835 38.524685 
L 416.083536 38.848441 
L 415.964218 38.789275 
L 415.765491 38.236318 
L 415.487192 37.718843 
L 415.288383 37.721976 
L 415.129401 38.027946 
L 414.890847 38.579796 
L 414.731866 38.397689 
L 414.334248 37.874869 
L 414.294503 37.908691 
L 413.936713 38.155402 
L 413.817477 38.040295 
L 413.618668 37.835977 
L 413.181387 38.177152 
L 412.982661 38.08149 
L 412.664616 38.369857 
L 412.624788 38.311059 
L 412.108017 37.438125 
L 412.068272 37.471671 
L 411.789972 37.974585 
L 411.750227 37.940947 
L 411.551418 37.847221 
L 410.796092 37.962697 
L 410.637111 38.033383 
L 410.398557 38.204892 
L 410.080512 37.832383 
L 410.040767 37.870169 
L 409.841958 37.930441 
L 409.643231 37.902977 
L 409.484168 37.898277 
L 409.364932 37.872749 
L 409.205951 38.309861 
L 409.007142 38.602744 
L 408.649352 38.218163 
L 408.251816 37.859847 
L 408.013262 38.122778 
L 408.013262 38.122778 
" clip-path="url(#pc4b91b8b6c)" style="fill: none; stroke: #1f77b4; stroke-width: 1.5; stroke-linecap: square"/>
   </g>
   <g id="patch_8">
    <path d="M 394.178551 354.958125 
L 394.178551 22.318125 
" style="fill: none; stroke: #000000; stroke-width: 0.8; stroke-linejoin: miter; stroke-linecap: square"/>
   </g>
   <g id="patch_9">
    <path d="M 698.542187 354.958125 
L 698.542187 22.318125 
" style="fill: none; stroke: #000000; stroke-width: 0.8; stroke-linejoin: miter; stroke-linecap: square"/>
   </g>
   <g id="patch_10">
    <path d="M 394.178551 354.958125 
L 698.542187 354.958125 
" style="fill: none; stroke: #000000; stroke-width: 0.8; stroke-linejoin: miter; stroke-linecap: square"/>
   </g>
   <g id="patch_11">
    <path d="M 394.178551 22.318125 
L 698.542187 22.318125 
" style="fill: none; stroke: #000000; stroke-width: 0.8; stroke-linejoin: miter; stroke-linecap: square"/>
   </g>
   <g id="text_33">
    <!-- Pure Acetone Spectrum -->
    <g transform="translate(475.625057 16.318125) scale(0.12 -0.12)">
     <defs>
      <path id="DejaVuSans-50" d="M 1259 4147 
L 1259 2394 
L 2053 2394 
Q 2494 2394 2734 2622 
Q 2975 2850 2975 3272 
Q 2975 3691 2734 3919 
Q 2494 4147 2053 4147 
L 1259 4147 
z
M 628 4666 
L 2053 4666 
Q 2838 4666 3239 4311 
Q 3641 3956 3641 3272 
Q 3641 2581 3239 2228 
Q 2838 1875 2053 1875 
L 1259 1875 
L 1259 0 
L 628 0 
L 628 4666 
z
" transform="scale(0.015625)"/>
     </defs>
     <use xlink:href="#DejaVuSans-50"/>
     <use xlink:href="#DejaVuSans-75" x="58.552734"/>
     <use xlink:href="#DejaVuSans-72" x="121.931641"/>
     <use xlink:href="#DejaVuSans-65" x="160.794922"/>
     <use xlink:href="#DejaVuSans-20" x="222.318359"/>
     <use xlink:href="#DejaVuSans-41" x="254.105469"/>
     <use xlink:href="#DejaVuSans-63" x="320.763672"/>
     <use xlink:href="#DejaVuSans-65" x="375.744141"/>
     <use xlink:href="#DejaVuSans-74" x="437.267578"/>
     <use xlink:href="#DejaVuSans-6f" x="476.476562"/>
     <use xlink:href="#DejaVuSans-6e" x="537.658203"/>
     <use xlink:href="#DejaVuSans-65" x="601.037109"/>
     <use xlink:href="#DejaVuSans-20" x="662.560547"/>
     <use xlink:href="#DejaVuSans-53" x="694.347656"/>
     <use xlink:href="#DejaVuSans-70" x="757.824219"/>
     <use xlink:href="#DejaVuSans-65" x="821.300781"/>
     <use xlink:href="#DejaVuSans-63" x="882.824219"/>
     <use xlink:href="#DejaVuSans-74" x="937.804688"/>
     <use xlink:href="#DejaVuSans-72" x="977.013672"/>
     <use xlink:href="#DejaVuSans-75" x="1018.126953"/>
     <use xlink:href="#DejaVuSans-6d" x="1081.505859"/>
    </g>
   </g>
  </g>
 </g>
 <defs>
  <clipPath id="p896c8e4bc7">
   <rect x="28.942188" y="22.318125" width="304.363636" height="332.64"/>
  </clipPath>
  <clipPath id="pc4b91b8b6c">
   <rect x="394.178551" y="22.318125" width="304.363636" height="332.64"/>
  </clipPath>
 </defs>
</svg>