<?xml version="1.0" encoding="utf-8" standalone="no"?>
<!DOCTYPE svg PUBLIC "-//W3C//DTD SVG 1.1//EN"
  "http://www.w3.org/Graphics/SVG/1.1/DTD/svg11.dtd">
<svg xmlns:xlink="http://www.w3.org/1999/xlink" width="532.7175pt" height="351.99625pt" viewBox="0 0 532.7175 351.99625" xmlns="http://www.w3.org/2000/svg" version="1.1">
 <metadata>
  <rdf:RDF xmlns:dc="http://purl.org/dc/elements/1.1/" xmlns:cc="http://creativecommons.org/ns#" xmlns:rdf="http://www.w3.org/1999/02/22-rdf-syntax-ns#">
   <cc:Work>
    <dc:type rdf:resource="http://purl.org/dc/dcmitype/StillImage"/>
    <dc:date>2024-06-29T12:29:57.637072</dc:date>
    <dc:format>image/svg+xml</dc:format>
    <dc:creator>
     <cc:Agent>
      <dc:title>Matplotlib v3.9.0, https://matplotlib.org/</dc:title>
     </cc:Agent>
    </dc:creator>
   </cc:Work>
  </rdf:RDF>
 </metadata>
 <defs>
  <style type="text/css">*{stroke-linejoin: round; stroke-linecap: butt}</style>
 </defs>
 <g id="figure_1">
  <g id="patch_1">
   <path d="M 0 351.99625 
L 532.7175 351.99625 
L 532.7175 0 
L 0 0 
z
" style="fill: #ffffff"/>
  </g>
  <g id="axes_1">
   <g id="patch_2">
    <path d="M 47.1875 314.44 
L 525.5175 314.44 
L 525.5175 7.2 
L 47.1875 7.2 
z
" style="fill: #ffffff"/>
   </g>
   <g id="PathCollection_1">
    <defs>
     <path id="m5d15d08b6c" d="M 0 3 
C 0.795609 3 1.55874 2.683901 2.12132 2.12132 
C 2.683901 1.55874 3 0.795609 3 0 
C 3 -0.795609 2.683901 -1.55874 2.12132 -2.12132 
C 1.55874 -2.683901 0.795609 -3 0 -3 
C -0.795609 -3 -1.55874 -2.683901 -2.12132 -2.12132 
C -2.683901 -1.55874 -3 -0.795609 -3 0 
C -3 0.795609 -2.683901 1.55874 -2.12132 2.12132 
C -1.55874 2.683901 -0.795609 3 0 3 
z
" style="stroke: #1f77b4; stroke-opacity: 0.8"/>
    </defs>
    <g clip-path="url(#p1e8f6f4616)">
     <use xlink:href="#m5d15d08b6c" x="68.929773" y="254.429636" style="fill: #1f77b4; fill-opacity: 0.8; stroke: #1f77b4; stroke-opacity: 0.8"/>
     <use xlink:href="#m5d15d08b6c" x="113.043162" y="238.251695" style="fill: #1f77b4; fill-opacity: 0.8; stroke: #1f77b4; stroke-opacity: 0.8"/>
     <use xlink:href="#m5d15d08b6c" x="157.156551" y="213.362554" style="fill: #1f77b4; fill-opacity: 0.8; stroke: #1f77b4; stroke-opacity: 0.8"/>
     <use xlink:href="#m5d15d08b6c" x="201.238498" y="188.473414" style="fill: #1f77b4; fill-opacity: 0.8; stroke: #1f77b4; stroke-opacity: 0.8"/>
     <use xlink:href="#m5d15d08b6c" x="245.351887" y="162.339817" style="fill: #1f77b4; fill-opacity: 0.8; stroke: #1f77b4; stroke-opacity: 0.8"/>
     <use xlink:href="#m5d15d08b6c" x="289.465277" y="139.939591" style="fill: #1f77b4; fill-opacity: 0.8; stroke: #1f77b4; stroke-opacity: 0.8"/>
     <use xlink:href="#m5d15d08b6c" x="333.547224" y="116.294907" style="fill: #1f77b4; fill-opacity: 0.8; stroke: #1f77b4; stroke-opacity: 0.8"/>
     <use xlink:href="#m5d15d08b6c" x="377.660613" y="92.650224" style="fill: #1f77b4; fill-opacity: 0.8; stroke: #1f77b4; stroke-opacity: 0.8"/>
     <use xlink:href="#m5d15d08b6c" x="421.74256" y="71.494455" style="fill: #1f77b4; fill-opacity: 0.8; stroke: #1f77b4; stroke-opacity: 0.8"/>
     <use xlink:href="#m5d15d08b6c" x="465.855949" y="46.605315" style="fill: #1f77b4; fill-opacity: 0.8; stroke: #1f77b4; stroke-opacity: 0.8"/>
     <use xlink:href="#m5d15d08b6c" x="201.238498" y="200.917984" style="fill: #1f77b4; fill-opacity: 0.8; stroke: #1f77b4; stroke-opacity: 0.8"/>
     <use xlink:href="#m5d15d08b6c" x="201.238498" y="232.02941" style="fill: #1f77b4; fill-opacity: 0.8; stroke: #1f77b4; stroke-opacity: 0.8"/>
     <use xlink:href="#m5d15d08b6c" x="245.351887" y="172.295473" style="fill: #1f77b4; fill-opacity: 0.8; stroke: #1f77b4; stroke-opacity: 0.8"/>
     <use xlink:href="#m5d15d08b6c" x="289.465277" y="167.317645" style="fill: #1f77b4; fill-opacity: 0.8; stroke: #1f77b4; stroke-opacity: 0.8"/>
     <use xlink:href="#m5d15d08b6c" x="333.547224" y="161.09536" style="fill: #1f77b4; fill-opacity: 0.8; stroke: #1f77b4; stroke-opacity: 0.8"/>
     <use xlink:href="#m5d15d08b6c" x="264.091431" y="108.828165" style="fill: #1f77b4; fill-opacity: 0.8; stroke: #1f77b4; stroke-opacity: 0.8"/>
     <use xlink:href="#m5d15d08b6c" x="308.20482" y="83.939025" style="fill: #1f77b4; fill-opacity: 0.8; stroke: #1f77b4; stroke-opacity: 0.8"/>
     <use xlink:href="#m5d15d08b6c" x="396.400157" y="61.538799" style="fill: #1f77b4; fill-opacity: 0.8; stroke: #1f77b4; stroke-opacity: 0.8"/>
    </g>
   </g>
   <g id="PolyCollection_1">
    <path d="M 68.929773 250.849265 
L 68.929773 285.642479 
L 72.939128 283.094877 
L 76.948483 280.580472 
L 80.957839 278.066068 
L 84.967194 275.542354 
L 88.976549 272.957021 
L 92.985905 270.371266 
L 96.99526 267.924905 
L 101.004615 265.44983 
L 105.013971 262.872834 
L 109.023326 260.372392 
L 113.032681 257.873342 
L 117.042037 255.373493 
L 121.051392 252.873644 
L 125.060747 250.371037 
L 129.070102 247.854579 
L 133.079458 245.338122 
L 137.088813 242.821665 
L 141.098168 240.305208 
L 145.107524 237.788751 
L 149.116879 235.272294 
L 153.126234 232.755837 
L 157.13559 230.237483 
L 161.144945 227.665116 
L 165.1543 224.933428 
L 169.163656 222.239774 
L 173.173011 219.724564 
L 177.182366 217.373361 
L 181.191722 215.022158 
L 185.201077 212.618921 
L 189.210432 210.264123 
L 193.219788 207.784055 
L 197.229143 205.40133 
L 201.238498 202.906838 
L 205.247853 200.504802 
L 209.257209 198.146611 
L 213.266564 195.695274 
L 217.275919 193.321331 
L 221.285275 190.99446 
L 225.29463 188.668573 
L 229.303985 186.342194 
L 233.313341 183.985799 
L 237.322696 181.550555 
L 241.332051 179.363056 
L 245.341407 176.989893 
L 249.350762 174.710298 
L 253.360117 172.383919 
L 257.369473 170.060171 
L 261.378828 167.733002 
L 265.388183 165.536843 
L 269.397539 163.350141 
L 273.406894 161.042416 
L 277.416249 158.91442 
L 281.425604 156.601458 
L 285.43496 154.386487 
L 289.444315 152.267842 
L 293.45367 150.217721 
L 297.463026 148.047597 
L 301.472381 145.825939 
L 305.481736 143.554632 
L 309.491092 141.299045 
L 313.500447 139.043056 
L 317.509802 136.94514 
L 321.519158 134.824268 
L 325.528513 132.655407 
L 329.537868 130.558033 
L 333.547224 128.45375 
L 337.556579 126.472056 
L 341.565934 124.392103 
L 345.57529 122.290101 
L 349.584645 120.167693 
L 353.594 118.045284 
L 357.603355 115.922876 
L 361.612711 113.800468 
L 365.622066 111.678059 
L 369.631421 109.622293 
L 373.640777 107.625702 
L 377.650132 105.617859 
L 381.659487 103.534151 
L 385.668843 101.449237 
L 389.678198 99.432742 
L 393.687553 97.291886 
L 397.696909 95.255113 
L 401.706264 93.103877 
L 405.715619 90.995048 
L 409.724975 88.892056 
L 413.73433 86.840604 
L 417.743685 84.80318 
L 421.753041 82.740174 
L 425.762396 80.690064 
L 429.771751 78.639954 
L 433.781106 76.589844 
L 437.790462 74.539734 
L 441.799817 72.489624 
L 445.809172 70.439514 
L 449.818528 68.387865 
L 453.827883 66.32951 
L 457.837238 64.28613 
L 461.846594 62.237527 
L 465.855949 60.188923 
L 465.855949 21.165455 
L 465.855949 21.165455 
L 461.846594 23.677804 
L 457.837238 26.315532 
L 453.827883 28.955493 
L 449.818528 31.595529 
L 445.809172 34.235564 
L 441.799817 36.8756 
L 437.790462 39.503901 
L 433.781106 41.946706 
L 429.771751 44.389511 
L 425.762396 47.039033 
L 421.753041 49.685331 
L 417.743685 52.146646 
L 413.73433 54.465179 
L 409.724975 57.076806 
L 405.715619 59.75631 
L 401.706264 62.304548 
L 397.696909 64.752462 
L 393.687553 67.304585 
L 389.678198 69.849123 
L 385.668843 72.35875 
L 381.659487 74.883657 
L 377.650132 77.414043 
L 373.640777 79.771813 
L 369.631421 82.157702 
L 365.622066 84.622142 
L 361.612711 87.086582 
L 357.603355 89.532264 
L 353.594 91.727311 
L 349.584645 93.922358 
L 345.57529 96.382564 
L 341.565934 98.872484 
L 337.556579 101.172186 
L 333.547224 103.50861 
L 329.537868 106.197123 
L 325.528513 108.631494 
L 321.519158 110.961404 
L 317.509802 113.18592 
L 313.500447 115.546192 
L 309.491092 117.872327 
L 305.481736 120.43305 
L 301.472381 122.823643 
L 297.463026 125.105026 
L 293.45367 127.56884 
L 289.444315 129.731101 
L 285.43496 131.995681 
L 281.425604 134.36127 
L 277.416249 136.71712 
L 273.406894 139.140087 
L 269.397539 141.497068 
L 265.388183 143.862924 
L 261.378828 146.210929 
L 257.369473 148.566847 
L 253.360117 150.840065 
L 249.350762 153.113284 
L 245.341407 155.349131 
L 241.332051 157.610653 
L 237.322696 159.842565 
L 233.313341 161.959956 
L 229.303985 164.352981 
L 225.29463 166.688679 
L 221.285275 168.947645 
L 217.275919 171.124086 
L 213.266564 173.29681 
L 209.257209 175.409836 
L 205.247853 177.663246 
L 201.238498 179.914891 
L 197.229143 182.116616 
L 193.219788 184.386081 
L 189.210432 186.654843 
L 185.201077 188.925175 
L 181.191722 191.180641 
L 177.182366 193.43094 
L 173.173011 195.687301 
L 169.163656 197.950709 
L 165.1543 200.191966 
L 161.144945 202.378961 
L 157.13559 204.471629 
L 153.126234 206.650593 
L 149.116879 208.925474 
L 145.107524 210.993479 
L 141.098168 213.155535 
L 137.088813 215.329295 
L 133.079458 217.503055 
L 129.070102 219.582903 
L 125.060747 221.788214 
L 121.051392 223.849535 
L 117.042037 225.784687 
L 113.032681 227.875499 
L 109.023326 229.869806 
L 105.013971 232.002227 
L 101.004615 234.172338 
L 96.99526 236.343305 
L 92.985905 238.456219 
L 88.976549 240.523297 
L 84.967194 242.557058 
L 80.957839 244.617675 
L 76.948483 246.718155 
L 72.939128 248.783066 
L 68.929773 250.849265 
z
" clip-path="url(#p1e8f6f4616)" style="fill: #1f77b4; fill-opacity: 0.15"/>
   </g>
   <g id="PathCollection_2">
    <defs>
     <path id="m7e7a83df7a" d="M 0 -3 
L -3 3 
L 3 3 
z
" style="stroke: #ff7f0e; stroke-opacity: 0.8"/>
    </defs>
    <g clip-path="url(#p1e8f6f4616)">
     <use xlink:href="#m7e7a83df7a" x="195.044387" y="290.518889" style="fill: #ff7f0e; fill-opacity: 0.8; stroke: #ff7f0e; stroke-opacity: 0.8"/>
     <use xlink:href="#m7e7a83df7a" x="239.157776" y="249.451808" style="fill: #ff7f0e; fill-opacity: 0.8; stroke: #ff7f0e; stroke-opacity: 0.8"/>
     <use xlink:href="#m7e7a83df7a" x="283.271166" y="213.362554" style="fill: #ff7f0e; fill-opacity: 0.8; stroke: #ff7f0e; stroke-opacity: 0.8"/>
     <use xlink:href="#m7e7a83df7a" x="327.353113" y="178.517758" style="fill: #ff7f0e; fill-opacity: 0.8; stroke: #ff7f0e; stroke-opacity: 0.8"/>
     <use xlink:href="#m7e7a83df7a" x="371.466502" y="147.406333" style="fill: #ff7f0e; fill-opacity: 0.8; stroke: #ff7f0e; stroke-opacity: 0.8"/>
     <use xlink:href="#m7e7a83df7a" x="415.579891" y="118.783821" style="fill: #ff7f0e; fill-opacity: 0.8; stroke: #ff7f0e; stroke-opacity: 0.8"/>
     <use xlink:href="#m7e7a83df7a" x="459.661838" y="91.405767" style="fill: #ff7f0e; fill-opacity: 0.8; stroke: #ff7f0e; stroke-opacity: 0.8"/>
     <use xlink:href="#m7e7a83df7a" x="503.775227" y="66.516627" style="fill: #ff7f0e; fill-opacity: 0.8; stroke: #ff7f0e; stroke-opacity: 0.8"/>
     <use xlink:href="#m7e7a83df7a" x="239.157776" y="256.91855" style="fill: #ff7f0e; fill-opacity: 0.8; stroke: #ff7f0e; stroke-opacity: 0.8"/>
     <use xlink:href="#m7e7a83df7a" x="327.353113" y="189.717871" style="fill: #ff7f0e; fill-opacity: 0.8; stroke: #ff7f0e; stroke-opacity: 0.8"/>
     <use xlink:href="#m7e7a83df7a" x="195.044387" y="300.474545" style="fill: #ff7f0e; fill-opacity: 0.8; stroke: #ff7f0e; stroke-opacity: 0.8"/>
     <use xlink:href="#m7e7a83df7a" x="283.271166" y="235.762781" style="fill: #ff7f0e; fill-opacity: 0.8; stroke: #ff7f0e; stroke-opacity: 0.8"/>
    </g>
   </g>
   <g id="PolyCollection_2">
    <path d="M 195.044387 280.45017 
L 195.044387 297.253584 
L 198.162881 294.590167 
L 201.281374 292.084693 
L 204.399867 289.500928 
L 207.518361 287.039849 
L 210.636854 284.567702 
L 213.755347 282.050738 
L 216.873841 279.59055 
L 219.992334 277.045797 
L 223.110827 274.589529 
L 226.229321 272.129247 
L 229.347814 269.529609 
L 232.466307 267.050541 
L 235.584801 264.593528 
L 238.703294 262.105752 
L 241.821787 259.627808 
L 244.940281 257.152135 
L 248.058774 254.7581 
L 251.177267 252.179801 
L 254.295761 249.785901 
L 257.414254 247.382613 
L 260.532747 244.84941 
L 263.651241 242.411784 
L 266.769734 239.976841 
L 269.888227 237.585921 
L 273.006721 235.185248 
L 276.125214 232.751257 
L 279.243707 230.365277 
L 282.362201 227.95543 
L 285.480694 225.552921 
L 288.599187 223.145278 
L 291.717681 220.737634 
L 294.836174 218.326877 
L 297.954667 215.920466 
L 301.073161 213.530719 
L 304.191654 211.116088 
L 307.310147 208.800452 
L 310.428641 206.433664 
L 313.547134 203.99531 
L 316.665627 201.616386 
L 319.784121 199.356153 
L 322.902614 196.898865 
L 326.021107 194.54222 
L 329.139601 192.185575 
L 332.258094 189.82893 
L 335.376587 187.485233 
L 338.495081 185.11564 
L 341.613574 182.746028 
L 344.732067 180.365526 
L 347.850561 178.047573 
L 350.969054 175.660938 
L 354.087547 173.314846 
L 357.206041 170.950089 
L 360.324534 168.622662 
L 363.443027 166.267265 
L 366.561521 163.919709 
L 369.680014 161.585458 
L 372.798507 159.276683 
L 375.917001 156.894433 
L 379.035494 154.550938 
L 382.153987 152.235099 
L 385.272481 149.927576 
L 388.390974 147.592181 
L 391.509467 145.290689 
L 394.627961 142.989076 
L 397.746454 140.644004 
L 400.864947 138.311866 
L 403.983441 136.063263 
L 407.101934 133.759258 
L 410.220427 131.48307 
L 413.338921 129.182174 
L 416.457414 126.880696 
L 419.575907 124.57971 
L 422.694401 122.258031 
L 425.812894 119.942013 
L 428.931387 117.624875 
L 432.049881 115.274773 
L 435.168374 112.992171 
L 438.286867 110.702503 
L 441.405361 108.40371 
L 444.523854 106.103462 
L 447.642347 103.802075 
L 450.760841 101.479197 
L 453.879334 99.202231 
L 456.997827 96.93808 
L 460.116321 94.671161 
L 463.234814 92.412158 
L 466.353307 90.153702 
L 469.471801 87.895451 
L 472.590294 85.623719 
L 475.708787 83.279454 
L 478.827281 81.033327 
L 481.945774 78.715367 
L 485.064267 76.393855 
L 488.182761 74.165558 
L 491.301254 71.999291 
L 494.419747 69.753672 
L 497.538241 67.565759 
L 500.656734 65.301046 
L 503.775227 62.995649 
L 503.775227 40.989156 
L 503.775227 40.989156 
L 500.656734 43.544409 
L 497.538241 46.079135 
L 494.419747 48.61386 
L 491.301254 51.148586 
L 488.182761 53.683311 
L 485.064267 56.218037 
L 481.945774 58.752763 
L 478.827281 61.287488 
L 475.708787 63.822214 
L 472.590294 66.356939 
L 469.471801 68.9061 
L 466.353307 71.514935 
L 463.234814 74.124313 
L 460.116321 76.735352 
L 456.997827 79.346391 
L 453.879334 81.953174 
L 450.760841 84.491892 
L 447.642347 87.064808 
L 444.523854 89.579847 
L 441.405361 92.102288 
L 438.286867 94.638346 
L 435.168374 97.174403 
L 432.049881 99.71046 
L 428.931387 102.246517 
L 425.812894 104.782574 
L 422.694401 107.320369 
L 419.575907 109.858388 
L 416.457414 112.435967 
L 413.338921 114.940353 
L 410.220427 117.467045 
L 407.101934 120.011069 
L 403.983441 122.541617 
L 400.864947 125.077888 
L 397.746454 127.639499 
L 394.627961 130.256905 
L 391.509467 132.801304 
L 388.390974 135.258316 
L 385.272481 137.760334 
L 382.153987 140.295512 
L 379.035494 142.831782 
L 375.917001 145.323831 
L 372.798507 147.806381 
L 369.680014 150.380815 
L 366.561521 152.956714 
L 363.443027 155.448165 
L 360.324534 157.862854 
L 357.206041 160.440971 
L 354.087547 163.019088 
L 350.969054 165.421758 
L 347.850561 167.944913 
L 344.732067 170.376818 
L 341.613574 172.835883 
L 338.495081 175.267372 
L 335.376587 177.708791 
L 332.258094 180.132787 
L 329.139601 182.599917 
L 326.021107 185.011202 
L 322.902614 187.403982 
L 319.784121 189.825942 
L 316.665627 192.081611 
L 313.547134 194.473903 
L 310.428641 196.939288 
L 307.310147 199.33873 
L 304.191654 201.532505 
L 301.073161 203.814825 
L 297.954667 206.103024 
L 294.836174 208.543154 
L 291.717681 210.885015 
L 288.599187 213.182642 
L 285.480694 215.485392 
L 282.362201 217.75404 
L 279.243707 220.041369 
L 276.125214 222.295544 
L 273.006721 224.555245 
L 269.888227 226.833405 
L 266.769734 229.112345 
L 263.651241 231.389716 
L 260.532747 233.667086 
L 257.414254 235.944457 
L 254.295761 238.19759 
L 251.177267 240.42171 
L 248.058774 242.622515 
L 244.940281 244.81534 
L 241.821787 247.008164 
L 238.703294 249.212695 
L 235.584801 251.447497 
L 232.466307 253.682299 
L 229.347814 255.917101 
L 226.229321 258.151903 
L 223.110827 260.386887 
L 219.992334 262.622588 
L 216.873841 264.8585 
L 213.755347 267.094431 
L 210.636854 269.329456 
L 207.518361 271.553598 
L 204.399867 273.777741 
L 201.281374 276.001884 
L 198.162881 278.226027 
L 195.044387 280.45017 
z
" clip-path="url(#p1e8f6f4616)" style="fill: #ff7f0e; fill-opacity: 0.15"/>
   </g>
   <g id="matplotlib.axis_1">
    <g id="xtick_1">
     <g id="line2d_1">
      <defs>
       <path id="md71826cd7a" d="M 0 0 
L 0 3.5 
" style="stroke: #000000; stroke-width: 0.8"/>
      </defs>
      <g>
       <use xlink:href="#md71826cd7a" x="93.957754" y="314.44" style="stroke: #000000; stroke-width: 0.8"/>
      </g>
     </g>
     <g id="text_1">
      <!-- 40 -->
      <g transform="translate(87.595254 329.038437) scale(0.1 -0.1)">
       <defs>
        <path id="DejaVuSans-34" d="M 2419 4116 
L 825 1625 
L 2419 1625 
L 2419 4116 
z
M 2253 4666 
L 3047 4666 
L 3047 1625 
L 3713 1625 
L 3713 1100 
L 3047 1100 
L 3047 0 
L 2419 0 
L 2419 1100 
L 313 1100 
L 313 1709 
L 2253 4666 
z
" transform="scale(0.015625)"/>
        <path id="DejaVuSans-30" d="M 2034 4250 
Q 1547 4250 1301 3770 
Q 1056 3291 1056 2328 
Q 1056 1369 1301 889 
Q 1547 409 2034 409 
Q 2525 409 2770 889 
Q 3016 1369 3016 2328 
Q 3016 3291 2770 3770 
Q 2525 4250 2034 4250 
z
M 2034 4750 
Q 2819 4750 3233 4129 
Q 3647 3509 3647 2328 
Q 3647 1150 3233 529 
Q 2819 -91 2034 -91 
Q 1250 -91 836 529 
Q 422 1150 422 2328 
Q 422 3509 836 4129 
Q 1250 4750 2034 4750 
z
" transform="scale(0.015625)"/>
       </defs>
       <use xlink:href="#DejaVuSans-34"/>
       <use xlink:href="#DejaVuSans-30" x="63.623047"/>
      </g>
     </g>
    </g>
    <g id="xtick_2">
     <g id="line2d_2">
      <g>
       <use xlink:href="#md71826cd7a" x="156.842129" y="314.44" style="stroke: #000000; stroke-width: 0.8"/>
      </g>
     </g>
     <g id="text_2">
      <!-- 60 -->
      <g transform="translate(150.479629 329.038437) scale(0.1 -0.1)">
       <defs>
        <path id="DejaVuSans-36" d="M 2113 2584 
Q 1688 2584 1439 2293 
Q 1191 2003 1191 1497 
Q 1191 994 1439 701 
Q 1688 409 2113 409 
Q 2538 409 2786 701 
Q 3034 994 3034 1497 
Q 3034 2003 2786 2293 
Q 2538 2584 2113 2584 
z
M 3366 4563 
L 3366 3988 
Q 3128 4100 2886 4159 
Q 2644 4219 2406 4219 
Q 1781 4219 1451 3797 
Q 1122 3375 1075 2522 
Q 1259 2794 1537 2939 
Q 1816 3084 2150 3084 
Q 2853 3084 3261 2657 
Q 3669 2231 3669 1497 
Q 3669 778 3244 343 
Q 2819 -91 2113 -91 
Q 1303 -91 875 529 
Q 447 1150 447 2328 
Q 447 3434 972 4092 
Q 1497 4750 2381 4750 
Q 2619 4750 2861 4703 
Q 3103 4656 3366 4563 
z
" transform="scale(0.015625)"/>
       </defs>
       <use xlink:href="#DejaVuSans-36"/>
       <use xlink:href="#DejaVuSans-30" x="63.623047"/>
      </g>
     </g>
    </g>
    <g id="xtick_3">
     <g id="line2d_3">
      <g>
       <use xlink:href="#md71826cd7a" x="219.726504" y="314.44" style="stroke: #000000; stroke-width: 0.8"/>
      </g>
     </g>
     <g id="text_3">
      <!-- 80 -->
      <g transform="translate(213.364004 329.038437) scale(0.1 -0.1)">
       <defs>
        <path id="DejaVuSans-38" d="M 2034 2216 
Q 1584 2216 1326 1975 
Q 1069 1734 1069 1313 
Q 1069 891 1326 650 
Q 1584 409 2034 409 
Q 2484 409 2743 651 
Q 3003 894 3003 1313 
Q 3003 1734 2745 1975 
Q 2488 2216 2034 2216 
z
M 1403 2484 
Q 997 2584 770 2862 
Q 544 3141 544 3541 
Q 544 4100 942 4425 
Q 1341 4750 2034 4750 
Q 2731 4750 3128 4425 
Q 3525 4100 3525 3541 
Q 3525 3141 3298 2862 
Q 3072 2584 2669 2484 
Q 3125 2378 3379 2068 
Q 3634 1759 3634 1313 
Q 3634 634 3220 271 
Q 2806 -91 2034 -91 
Q 1263 -91 848 271 
Q 434 634 434 1313 
Q 434 1759 690 2068 
Q 947 2378 1403 2484 
z
M 1172 3481 
Q 1172 3119 1398 2916 
Q 1625 2713 2034 2713 
Q 2441 2713 2670 2916 
Q 2900 3119 2900 3481 
Q 2900 3844 2670 4047 
Q 2441 4250 2034 4250 
Q 1625 4250 1398 4047 
Q 1172 3844 1172 3481 
z
" transform="scale(0.015625)"/>
       </defs>
       <use xlink:href="#DejaVuSans-38"/>
       <use xlink:href="#DejaVuSans-30" x="63.623047"/>
      </g>
     </g>
    </g>
    <g id="xtick_4">
     <g id="line2d_4">
      <g>
       <use xlink:href="#md71826cd7a" x="282.61088" y="314.44" style="stroke: #000000; stroke-width: 0.8"/>
      </g>
     </g>
     <g id="text_4">
      <!-- 100 -->
      <g transform="translate(273.06713 329.038437) scale(0.1 -0.1)">
       <defs>
        <path id="DejaVuSans-31" d="M 794 531 
L 1825 531 
L 1825 4091 
L 703 3866 
L 703 4441 
L 1819 4666 
L 2450 4666 
L 2450 531 
L 3481 531 
L 3481 0 
L 794 0 
L 794 531 
z
" transform="scale(0.015625)"/>
       </defs>
       <use xlink:href="#DejaVuSans-31"/>
       <use xlink:href="#DejaVuSans-30" x="63.623047"/>
       <use xlink:href="#DejaVuSans-30" x="127.246094"/>
      </g>
     </g>
    </g>
    <g id="xtick_5">
     <g id="line2d_5">
      <g>
       <use xlink:href="#md71826cd7a" x="345.495255" y="314.44" style="stroke: #000000; stroke-width: 0.8"/>
      </g>
     </g>
     <g id="text_5">
      <!-- 120 -->
      <g transform="translate(335.951505 329.038437) scale(0.1 -0.1)">
       <defs>
        <path id="DejaVuSans-32" d="M 1228 531 
L 3431 531 
L 3431 0 
L 469 0 
L 469 531 
Q 828 903 1448 1529 
Q 2069 2156 2228 2338 
Q 2531 2678 2651 2914 
Q 2772 3150 2772 3378 
Q 2772 3750 2511 3984 
Q 2250 4219 1831 4219 
Q 1534 4219 1204 4116 
Q 875 4013 500 3803 
L 500 4441 
Q 881 4594 1212 4672 
Q 1544 4750 1819 4750 
Q 2544 4750 2975 4387 
Q 3406 4025 3406 3419 
Q 3406 3131 3298 2873 
Q 3191 2616 2906 2266 
Q 2828 2175 2409 1742 
Q 1991 1309 1228 531 
z
" transform="scale(0.015625)"/>
       </defs>
       <use xlink:href="#DejaVuSans-31"/>
       <use xlink:href="#DejaVuSans-32" x="63.623047"/>
       <use xlink:href="#DejaVuSans-30" x="127.246094"/>
      </g>
     </g>
    </g>
    <g id="xtick_6">
     <g id="line2d_6">
      <g>
       <use xlink:href="#md71826cd7a" x="408.37963" y="314.44" style="stroke: #000000; stroke-width: 0.8"/>
      </g>
     </g>
     <g id="text_6">
      <!-- 140 -->
      <g transform="translate(398.83588 329.038437) scale(0.1 -0.1)">
       <use xlink:href="#DejaVuSans-31"/>
       <use xlink:href="#DejaVuSans-34" x="63.623047"/>
       <use xlink:href="#DejaVuSans-30" x="127.246094"/>
      </g>
     </g>
    </g>
    <g id="xtick_7">
     <g id="line2d_7">
      <g>
       <use xlink:href="#md71826cd7a" x="471.264005" y="314.44" style="stroke: #000000; stroke-width: 0.8"/>
      </g>
     </g>
     <g id="text_7">
      <!-- 160 -->
      <g transform="translate(461.720255 329.038437) scale(0.1 -0.1)">
       <use xlink:href="#DejaVuSans-31"/>
       <use xlink:href="#DejaVuSans-36" x="63.623047"/>
       <use xlink:href="#DejaVuSans-30" x="127.246094"/>
      </g>
     </g>
    </g>
    <g id="text_8">
     <!-- MW, g/mol -->
     <g transform="translate(259.739219 342.716562) scale(0.1 -0.1)">
      <defs>
       <path id="DejaVuSans-4d" d="M 628 4666 
L 1569 4666 
L 2759 1491 
L 3956 4666 
L 4897 4666 
L 4897 0 
L 4281 0 
L 4281 4097 
L 3078 897 
L 2444 897 
L 1241 4097 
L 1241 0 
L 628 0 
L 628 4666 
z
" transform="scale(0.015625)"/>
       <path id="DejaVuSans-57" d="M 213 4666 
L 850 4666 
L 1831 722 
L 2809 4666 
L 3519 4666 
L 4500 722 
L 5478 4666 
L 6119 4666 
L 4947 0 
L 4153 0 
L 3169 4050 
L 2175 0 
L 1381 0 
L 213 4666 
z
" transform="scale(0.015625)"/>
       <path id="DejaVuSans-2c" d="M 750 794 
L 1409 794 
L 1409 256 
L 897 -744 
L 494 -744 
L 750 256 
L 750 794 
z
" transform="scale(0.015625)"/>
       <path id="DejaVuSans-20" transform="scale(0.015625)"/>
       <path id="DejaVuSans-67" d="M 2906 1791 
Q 2906 2416 2648 2759 
Q 2391 3103 1925 3103 
Q 1463 3103 1205 2759 
Q 947 2416 947 1791 
Q 947 1169 1205 825 
Q 1463 481 1925 481 
Q 2391 481 2648 825 
Q 2906 1169 2906 1791 
z
M 3481 434 
Q 3481 -459 3084 -895 
Q 2688 -1331 1869 -1331 
Q 1566 -1331 1297 -1286 
Q 1028 -1241 775 -1147 
L 775 -588 
Q 1028 -725 1275 -790 
Q 1522 -856 1778 -856 
Q 2344 -856 2625 -561 
Q 2906 -266 2906 331 
L 2906 616 
Q 2728 306 2450 153 
Q 2172 0 1784 0 
Q 1141 0 747 490 
Q 353 981 353 1791 
Q 353 2603 747 3093 
Q 1141 3584 1784 3584 
Q 2172 3584 2450 3431 
Q 2728 3278 2906 2969 
L 2906 3500 
L 3481 3500 
L 3481 434 
z
" transform="scale(0.015625)"/>
       <path id="DejaVuSans-2f" d="M 1625 4666 
L 2156 4666 
L 531 -594 
L 0 -594 
L 1625 4666 
z
" transform="scale(0.015625)"/>
       <path id="DejaVuSans-6d" d="M 3328 2828 
Q 3544 3216 3844 3400 
Q 4144 3584 4550 3584 
Q 5097 3584 5394 3201 
Q 5691 2819 5691 2113 
L 5691 0 
L 5113 0 
L 5113 2094 
Q 5113 2597 4934 2840 
Q 4756 3084 4391 3084 
Q 3944 3084 3684 2787 
Q 3425 2491 3425 1978 
L 3425 0 
L 2847 0 
L 2847 2094 
Q 2847 2600 2669 2842 
Q 2491 3084 2119 3084 
Q 1678 3084 1418 2786 
Q 1159 2488 1159 1978 
L 1159 0 
L 581 0 
L 581 3500 
L 1159 3500 
L 1159 2956 
Q 1356 3278 1631 3431 
Q 1906 3584 2284 3584 
Q 2666 3584 2933 3390 
Q 3200 3197 3328 2828 
z
" transform="scale(0.015625)"/>
       <path id="DejaVuSans-6f" d="M 1959 3097 
Q 1497 3097 1228 2736 
Q 959 2375 959 1747 
Q 959 1119 1226 758 
Q 1494 397 1959 397 
Q 2419 397 2687 759 
Q 2956 1122 2956 1747 
Q 2956 2369 2687 2733 
Q 2419 3097 1959 3097 
z
M 1959 3584 
Q 2709 3584 3137 3096 
Q 3566 2609 3566 1747 
Q 3566 888 3137 398 
Q 2709 -91 1959 -91 
Q 1206 -91 779 398 
Q 353 888 353 1747 
Q 353 2609 779 3096 
Q 1206 3584 1959 3584 
z
" transform="scale(0.015625)"/>
       <path id="DejaVuSans-6c" d="M 603 4863 
L 1178 4863 
L 1178 0 
L 603 0 
L 603 4863 
z
" transform="scale(0.015625)"/>
      </defs>
      <use xlink:href="#DejaVuSans-4d"/>
      <use xlink:href="#DejaVuSans-57" x="86.279297"/>
      <use xlink:href="#DejaVuSans-2c" x="185.15625"/>
      <use xlink:href="#DejaVuSans-20" x="216.943359"/>
      <use xlink:href="#DejaVuSans-67" x="248.730469"/>
      <use xlink:href="#DejaVuSans-2f" x="312.207031"/>
      <use xlink:href="#DejaVuSans-6d" x="345.898438"/>
      <use xlink:href="#DejaVuSans-6f" x="443.310547"/>
      <use xlink:href="#DejaVuSans-6c" x="504.492188"/>
     </g>
    </g>
   </g>
   <g id="matplotlib.axis_2">
    <g id="ytick_1">
     <g id="line2d_8">
      <defs>
       <path id="mf8293ffc8e" d="M 0 0 
L -3.5 0 
" style="stroke: #000000; stroke-width: 0.8"/>
      </defs>
      <g>
       <use xlink:href="#mf8293ffc8e" x="47.1875" y="273.096491" style="stroke: #000000; stroke-width: 0.8"/>
      </g>
     </g>
     <g id="text_9">
      <!-- 50 -->
      <g transform="translate(27.4625 276.89571) scale(0.1 -0.1)">
       <defs>
        <path id="DejaVuSans-35" d="M 691 4666 
L 3169 4666 
L 3169 4134 
L 1269 4134 
L 1269 2991 
Q 1406 3038 1543 3061 
Q 1681 3084 1819 3084 
Q 2600 3084 3056 2656 
Q 3513 2228 3513 1497 
Q 3513 744 3044 326 
Q 2575 -91 1722 -91 
Q 1428 -91 1123 -41 
Q 819 9 494 109 
L 494 744 
Q 775 591 1075 516 
Q 1375 441 1709 441 
Q 2250 441 2565 725 
Q 2881 1009 2881 1497 
Q 2881 1984 2565 2268 
Q 2250 2553 1709 2553 
Q 1456 2553 1204 2497 
Q 953 2441 691 2322 
L 691 4666 
z
" transform="scale(0.015625)"/>
       </defs>
       <use xlink:href="#DejaVuSans-35"/>
       <use xlink:href="#DejaVuSans-30" x="63.623047"/>
      </g>
     </g>
    </g>
    <g id="ytick_2">
     <g id="line2d_9">
      <g>
       <use xlink:href="#mf8293ffc8e" x="47.1875" y="210.87364" style="stroke: #000000; stroke-width: 0.8"/>
      </g>
     </g>
     <g id="text_10">
      <!-- 100 -->
      <g transform="translate(21.1 214.672859) scale(0.1 -0.1)">
       <use xlink:href="#DejaVuSans-31"/>
       <use xlink:href="#DejaVuSans-30" x="63.623047"/>
       <use xlink:href="#DejaVuSans-30" x="127.246094"/>
      </g>
     </g>
    </g>
    <g id="ytick_3">
     <g id="line2d_10">
      <g>
       <use xlink:href="#mf8293ffc8e" x="47.1875" y="148.65079" style="stroke: #000000; stroke-width: 0.8"/>
      </g>
     </g>
     <g id="text_11">
      <!-- 150 -->
      <g transform="translate(21.1 152.450009) scale(0.1 -0.1)">
       <use xlink:href="#DejaVuSans-31"/>
       <use xlink:href="#DejaVuSans-35" x="63.623047"/>
       <use xlink:href="#DejaVuSans-30" x="127.246094"/>
      </g>
     </g>
    </g>
    <g id="ytick_4">
     <g id="line2d_11">
      <g>
       <use xlink:href="#mf8293ffc8e" x="47.1875" y="86.427939" style="stroke: #000000; stroke-width: 0.8"/>
      </g>
     </g>
     <g id="text_12">
      <!-- 200 -->
      <g transform="translate(21.1 90.227158) scale(0.1 -0.1)">
       <use xlink:href="#DejaVuSans-32"/>
       <use xlink:href="#DejaVuSans-30" x="63.623047"/>
       <use xlink:href="#DejaVuSans-30" x="127.246094"/>
      </g>
     </g>
    </g>
    <g id="ytick_5">
     <g id="line2d_12">
      <g>
       <use xlink:href="#mf8293ffc8e" x="47.1875" y="24.205088" style="stroke: #000000; stroke-width: 0.8"/>
      </g>
     </g>
     <g id="text_13">
      <!-- 250 -->
      <g transform="translate(21.1 28.004307) scale(0.1 -0.1)">
       <use xlink:href="#DejaVuSans-32"/>
       <use xlink:href="#DejaVuSans-35" x="63.623047"/>
       <use xlink:href="#DejaVuSans-30" x="127.246094"/>
      </g>
     </g>
    </g>
    <g id="text_14">
     <!-- bp, $^o$C -->
     <g transform="translate(15 176.17) rotate(-90) scale(0.1 -0.1)">
      <defs>
       <path id="DejaVuSans-62" d="M 3116 1747 
Q 3116 2381 2855 2742 
Q 2594 3103 2138 3103 
Q 1681 3103 1420 2742 
Q 1159 2381 1159 1747 
Q 1159 1113 1420 752 
Q 1681 391 2138 391 
Q 2594 391 2855 752 
Q 3116 1113 3116 1747 
z
M 1159 2969 
Q 1341 3281 1617 3432 
Q 1894 3584 2278 3584 
Q 2916 3584 3314 3078 
Q 3713 2572 3713 1747 
Q 3713 922 3314 415 
Q 2916 -91 2278 -91 
Q 1894 -91 1617 61 
Q 1341 213 1159 525 
L 1159 0 
L 581 0 
L 581 4863 
L 1159 4863 
L 1159 2969 
z
" transform="scale(0.015625)"/>
       <path id="DejaVuSans-70" d="M 1159 525 
L 1159 -1331 
L 581 -1331 
L 581 3500 
L 1159 3500 
L 1159 2969 
Q 1341 3281 1617 3432 
Q 1894 3584 2278 3584 
Q 2916 3584 3314 3078 
Q 3713 2572 3713 1747 
Q 3713 922 3314 415 
Q 2916 -91 2278 -91 
Q 1894 -91 1617 61 
Q 1341 213 1159 525 
z
M 3116 1747 
Q 3116 2381 2855 2742 
Q 2594 3103 2138 3103 
Q 1681 3103 1420 2742 
Q 1159 2381 1159 1747 
Q 1159 1113 1420 752 
Q 1681 391 2138 391 
Q 2594 391 2855 752 
Q 3116 1113 3116 1747 
z
" transform="scale(0.015625)"/>
       <path id="DejaVuSans-Oblique-6f" d="M 1625 -91 
Q 1009 -91 651 289 
Q 294 669 294 1325 
Q 294 1706 417 2101 
Q 541 2497 738 2766 
Q 1047 3184 1428 3384 
Q 1809 3584 2291 3584 
Q 2888 3584 3255 3212 
Q 3622 2841 3622 2241 
Q 3622 1825 3500 1412 
Q 3378 1000 3181 728 
Q 2875 309 2494 109 
Q 2113 -91 1625 -91 
z
M 891 1344 
Q 891 869 1089 633 
Q 1288 397 1691 397 
Q 2269 397 2648 901 
Q 3028 1406 3028 2181 
Q 3028 2634 2825 2865 
Q 2622 3097 2228 3097 
Q 1903 3097 1650 2945 
Q 1397 2794 1197 2484 
Q 1050 2253 970 1956 
Q 891 1659 891 1344 
z
" transform="scale(0.015625)"/>
       <path id="DejaVuSans-43" d="M 4122 4306 
L 4122 3641 
Q 3803 3938 3442 4084 
Q 3081 4231 2675 4231 
Q 1875 4231 1450 3742 
Q 1025 3253 1025 2328 
Q 1025 1406 1450 917 
Q 1875 428 2675 428 
Q 3081 428 3442 575 
Q 3803 722 4122 1019 
L 4122 359 
Q 3791 134 3420 21 
Q 3050 -91 2638 -91 
Q 1578 -91 968 557 
Q 359 1206 359 2328 
Q 359 3453 968 4101 
Q 1578 4750 2638 4750 
Q 3056 4750 3426 4639 
Q 3797 4528 4122 4306 
z
" transform="scale(0.015625)"/>
      </defs>
      <use xlink:href="#DejaVuSans-62" transform="translate(0 0.51875)"/>
      <use xlink:href="#DejaVuSans-70" transform="translate(63.476562 0.51875)"/>
      <use xlink:href="#DejaVuSans-2c" transform="translate(126.953125 0.51875)"/>
      <use xlink:href="#DejaVuSans-20" transform="translate(158.740234 0.51875)"/>
      <use xlink:href="#DejaVuSans-Oblique-6f" transform="translate(191.484375 38.8) scale(0.7)"/>
      <use xlink:href="#DejaVuSans-43" transform="translate(237.045898 0.51875)"/>
     </g>
    </g>
   </g>
   <g id="line2d_13">
    <path d="M 68.929773 264.995626 
L 72.939128 262.74891 
L 76.948483 260.502193 
L 80.957839 258.255477 
L 84.967194 256.00876 
L 88.976549 253.762044 
L 92.985905 251.515327 
L 96.99526 249.268611 
L 101.004615 247.021894 
L 105.013971 244.775178 
L 109.023326 242.528461 
L 113.032681 240.281745 
L 117.042037 238.035028 
L 121.051392 235.788312 
L 125.060747 233.541595 
L 129.070102 231.294879 
L 133.079458 229.048162 
L 137.088813 226.801445 
L 141.098168 224.554729 
L 145.107524 222.308012 
L 149.116879 220.061296 
L 153.126234 217.814579 
L 157.13559 215.567863 
L 161.144945 213.321146 
L 165.1543 211.07443 
L 169.163656 208.827713 
L 173.173011 206.580997 
L 177.182366 204.33428 
L 181.191722 202.087564 
L 185.201077 199.840847 
L 189.210432 197.594131 
L 193.219788 195.347414 
L 197.229143 193.100698 
L 201.238498 190.853981 
L 205.247853 188.607265 
L 209.257209 186.360548 
L 213.266564 184.113832 
L 217.275919 181.867115 
L 221.285275 179.620398 
L 225.29463 177.373682 
L 229.303985 175.126965 
L 233.313341 172.880249 
L 237.322696 170.633532 
L 241.332051 168.386816 
L 245.341407 166.140099 
L 249.350762 163.893383 
L 253.360117 161.646666 
L 257.369473 159.39995 
L 261.378828 157.153233 
L 265.388183 154.906517 
L 269.397539 152.6598 
L 273.406894 150.413084 
L 277.416249 148.166367 
L 281.425604 145.919651 
L 285.43496 143.672934 
L 289.444315 141.426218 
L 293.45367 139.179501 
L 297.463026 136.932785 
L 301.472381 134.686068 
L 305.481736 132.439352 
L 309.491092 130.192635 
L 313.500447 127.945918 
L 317.509802 125.699202 
L 321.519158 123.452485 
L 325.528513 121.205769 
L 329.537868 118.959052 
L 333.547224 116.712336 
L 337.556579 114.465619 
L 341.565934 112.218903 
L 345.57529 109.972186 
L 349.584645 107.72547 
L 353.594 105.478753 
L 357.603355 103.232037 
L 361.612711 100.98532 
L 365.622066 98.738604 
L 369.631421 96.491887 
L 373.640777 94.245171 
L 377.650132 91.998454 
L 381.659487 89.751738 
L 385.668843 87.505021 
L 389.678198 85.258305 
L 393.687553 83.011588 
L 397.696909 80.764871 
L 401.706264 78.518155 
L 405.715619 76.271438 
L 409.724975 74.024722 
L 413.73433 71.778005 
L 417.743685 69.531289 
L 421.753041 67.284572 
L 425.762396 65.037856 
L 429.771751 62.791139 
L 433.781106 60.544423 
L 437.790462 58.297706 
L 441.799817 56.05099 
L 445.809172 53.804273 
L 449.818528 51.557557 
L 453.827883 49.31084 
L 457.837238 47.064124 
L 461.846594 44.817407 
L 465.855949 42.570691 
" clip-path="url(#p1e8f6f4616)" style="fill: none; stroke: #1f77b4; stroke-width: 2.25; stroke-linecap: square"/>
   </g>
   <g id="line2d_14">
    <path d="M 195.044387 289.233279 
L 198.162881 286.879313 
L 201.281374 284.525347 
L 204.399867 282.171381 
L 207.518361 279.817415 
L 210.636854 277.463449 
L 213.755347 275.109483 
L 216.873841 272.755517 
L 219.992334 270.401551 
L 223.110827 268.047585 
L 226.229321 265.693619 
L 229.347814 263.339653 
L 232.466307 260.985687 
L 235.584801 258.631721 
L 238.703294 256.277755 
L 241.821787 253.923789 
L 244.940281 251.569823 
L 248.058774 249.215857 
L 251.177267 246.861891 
L 254.295761 244.507925 
L 257.414254 242.153959 
L 260.532747 239.799993 
L 263.651241 237.446027 
L 266.769734 235.092062 
L 269.888227 232.738096 
L 273.006721 230.38413 
L 276.125214 228.030164 
L 279.243707 225.676198 
L 282.362201 223.322232 
L 285.480694 220.968266 
L 288.599187 218.6143 
L 291.717681 216.260334 
L 294.836174 213.906368 
L 297.954667 211.552402 
L 301.073161 209.198436 
L 304.191654 206.84447 
L 307.310147 204.490504 
L 310.428641 202.136538 
L 313.547134 199.782572 
L 316.665627 197.428606 
L 319.784121 195.07464 
L 322.902614 192.720674 
L 326.021107 190.366708 
L 329.139601 188.012742 
L 332.258094 185.658776 
L 335.376587 183.30481 
L 338.495081 180.950844 
L 341.613574 178.596878 
L 344.732067 176.242912 
L 347.850561 173.888946 
L 350.969054 171.53498 
L 354.087547 169.181014 
L 357.206041 166.827048 
L 360.324534 164.473082 
L 363.443027 162.119116 
L 366.561521 159.76515 
L 369.680014 157.411184 
L 372.798507 155.057218 
L 375.917001 152.703252 
L 379.035494 150.349286 
L 382.153987 147.99532 
L 385.272481 145.641354 
L 388.390974 143.287388 
L 391.509467 140.933422 
L 394.627961 138.579456 
L 397.746454 136.22549 
L 400.864947 133.871524 
L 403.983441 131.517558 
L 407.101934 129.163592 
L 410.220427 126.809626 
L 413.338921 124.45566 
L 416.457414 122.101694 
L 419.575907 119.747728 
L 422.694401 117.393762 
L 425.812894 115.039796 
L 428.931387 112.68583 
L 432.049881 110.331864 
L 435.168374 107.977898 
L 438.286867 105.623932 
L 441.405361 103.269966 
L 444.523854 100.916 
L 447.642347 98.562034 
L 450.760841 96.208068 
L 453.879334 93.854102 
L 456.997827 91.500136 
L 460.116321 89.14617 
L 463.234814 86.792204 
L 466.353307 84.438238 
L 469.471801 82.084273 
L 472.590294 79.730307 
L 475.708787 77.376341 
L 478.827281 75.022375 
L 481.945774 72.668409 
L 485.064267 70.314443 
L 488.182761 67.960477 
L 491.301254 65.606511 
L 494.419747 63.252545 
L 497.538241 60.898579 
L 500.656734 58.544613 
L 503.775227 56.190647 
" clip-path="url(#p1e8f6f4616)" style="fill: none; stroke: #ff7f0e; stroke-width: 2.25; stroke-linecap: square"/>
   </g>
   <g id="patch_3">
    <path d="M 47.1875 314.44 
L 47.1875 7.2 
" style="fill: none; stroke: #000000; stroke-width: 0.8; stroke-linejoin: miter; stroke-linecap: square"/>
   </g>
   <g id="patch_4">
    <path d="M 47.1875 314.44 
L 525.5175 314.44 
" style="fill: none; stroke: #000000; stroke-width: 0.8; stroke-linejoin: miter; stroke-linecap: square"/>
   </g>
   <g id="legend_1">
    <g id="patch_5">
     <path d="M 54.1875 59.234375 
L 121.945312 59.234375 
Q 123.945312 59.234375 123.945312 57.234375 
L 123.945312 14.2 
Q 123.945312 12.2 121.945312 12.2 
L 54.1875 12.2 
Q 52.1875 12.2 52.1875 14.2 
L 52.1875 57.234375 
Q 52.1875 59.234375 54.1875 59.234375 
z
" style="fill: #ffffff; opacity: 0.8; stroke: #cccccc; stroke-linejoin: miter"/>
    </g>
    <g id="text_15">
     <!-- type -->
     <g transform="translate(76.896094 23.798437) scale(0.1 -0.1)">
      <defs>
       <path id="DejaVuSans-74" d="M 1172 4494 
L 1172 3500 
L 2356 3500 
L 2356 3053 
L 1172 3053 
L 1172 1153 
Q 1172 725 1289 603 
Q 1406 481 1766 481 
L 2356 481 
L 2356 0 
L 1766 0 
Q 1100 0 847 248 
Q 594 497 594 1153 
L 594 3053 
L 172 3053 
L 172 3500 
L 594 3500 
L 594 4494 
L 1172 4494 
z
" transform="scale(0.015625)"/>
       <path id="DejaVuSans-79" d="M 2059 -325 
Q 1816 -950 1584 -1140 
Q 1353 -1331 966 -1331 
L 506 -1331 
L 506 -850 
L 844 -850 
Q 1081 -850 1212 -737 
Q 1344 -625 1503 -206 
L 1606 56 
L 191 3500 
L 800 3500 
L 1894 763 
L 2988 3500 
L 3597 3500 
L 2059 -325 
z
" transform="scale(0.015625)"/>
       <path id="DejaVuSans-65" d="M 3597 1894 
L 3597 1613 
L 953 1613 
Q 991 1019 1311 708 
Q 1631 397 2203 397 
Q 2534 397 2845 478 
Q 3156 559 3463 722 
L 3463 178 
Q 3153 47 2828 -22 
Q 2503 -91 2169 -91 
Q 1331 -91 842 396 
Q 353 884 353 1716 
Q 353 2575 817 3079 
Q 1281 3584 2069 3584 
Q 2775 3584 3186 3129 
Q 3597 2675 3597 1894 
z
M 3022 2063 
Q 3016 2534 2758 2815 
Q 2500 3097 2075 3097 
Q 1594 3097 1305 2825 
Q 1016 2553 972 2059 
L 3022 2063 
z
" transform="scale(0.015625)"/>
      </defs>
      <use xlink:href="#DejaVuSans-74"/>
      <use xlink:href="#DejaVuSans-79" x="39.208984"/>
      <use xlink:href="#DejaVuSans-70" x="98.388672"/>
      <use xlink:href="#DejaVuSans-65" x="161.865234"/>
     </g>
    </g>
    <g id="PathCollection_3">
     <g>
      <use xlink:href="#m5d15d08b6c" x="66.1875" y="35.851562" style="fill: #1f77b4; fill-opacity: 0.8; stroke: #1f77b4; stroke-opacity: 0.8"/>
     </g>
    </g>
    <g id="text_16">
     <!-- alcohol -->
     <g transform="translate(84.1875 38.476562) scale(0.1 -0.1)">
      <defs>
       <path id="DejaVuSans-61" d="M 2194 1759 
Q 1497 1759 1228 1600 
Q 959 1441 959 1056 
Q 959 750 1161 570 
Q 1363 391 1709 391 
Q 2188 391 2477 730 
Q 2766 1069 2766 1631 
L 2766 1759 
L 2194 1759 
z
M 3341 1997 
L 3341 0 
L 2766 0 
L 2766 531 
Q 2569 213 2275 61 
Q 1981 -91 1556 -91 
Q 1019 -91 701 211 
Q 384 513 384 1019 
Q 384 1609 779 1909 
Q 1175 2209 1959 2209 
L 2766 2209 
L 2766 2266 
Q 2766 2663 2505 2880 
Q 2244 3097 1772 3097 
Q 1472 3097 1187 3025 
Q 903 2953 641 2809 
L 641 3341 
Q 956 3463 1253 3523 
Q 1550 3584 1831 3584 
Q 2591 3584 2966 3190 
Q 3341 2797 3341 1997 
z
" transform="scale(0.015625)"/>
       <path id="DejaVuSans-63" d="M 3122 3366 
L 3122 2828 
Q 2878 2963 2633 3030 
Q 2388 3097 2138 3097 
Q 1578 3097 1268 2742 
Q 959 2388 959 1747 
Q 959 1106 1268 751 
Q 1578 397 2138 397 
Q 2388 397 2633 464 
Q 2878 531 3122 666 
L 3122 134 
Q 2881 22 2623 -34 
Q 2366 -91 2075 -91 
Q 1284 -91 818 406 
Q 353 903 353 1747 
Q 353 2603 823 3093 
Q 1294 3584 2113 3584 
Q 2378 3584 2631 3529 
Q 2884 3475 3122 3366 
z
" transform="scale(0.015625)"/>
       <path id="DejaVuSans-68" d="M 3513 2113 
L 3513 0 
L 2938 0 
L 2938 2094 
Q 2938 2591 2744 2837 
Q 2550 3084 2163 3084 
Q 1697 3084 1428 2787 
Q 1159 2491 1159 1978 
L 1159 0 
L 581 0 
L 581 4863 
L 1159 4863 
L 1159 2956 
Q 1366 3272 1645 3428 
Q 1925 3584 2291 3584 
Q 2894 3584 3203 3211 
Q 3513 2838 3513 2113 
z
" transform="scale(0.015625)"/>
      </defs>
      <use xlink:href="#DejaVuSans-61"/>
      <use xlink:href="#DejaVuSans-6c" x="61.279297"/>
      <use xlink:href="#DejaVuSans-63" x="89.0625"/>
      <use xlink:href="#DejaVuSans-6f" x="144.042969"/>
      <use xlink:href="#DejaVuSans-68" x="205.224609"/>
      <use xlink:href="#DejaVuSans-6f" x="268.603516"/>
      <use xlink:href="#DejaVuSans-6c" x="329.785156"/>
     </g>
    </g>
    <g id="PathCollection_4">
     <g>
      <use xlink:href="#m7e7a83df7a" x="66.1875" y="50.529688" style="fill: #ff7f0e; fill-opacity: 0.8; stroke: #ff7f0e; stroke-opacity: 0.8"/>
     </g>
    </g>
    <g id="text_17">
     <!-- alkane -->
     <g transform="translate(84.1875 53.154688) scale(0.1 -0.1)">
      <defs>
       <path id="DejaVuSans-6b" d="M 581 4863 
L 1159 4863 
L 1159 1991 
L 2875 3500 
L 3609 3500 
L 1753 1863 
L 3688 0 
L 2938 0 
L 1159 1709 
L 1159 0 
L 581 0 
L 581 4863 
z
" transform="scale(0.015625)"/>
       <path id="DejaVuSans-6e" d="M 3513 2113 
L 3513 0 
L 2938 0 
L 2938 2094 
Q 2938 2591 2744 2837 
Q 2550 3084 2163 3084 
Q 1697 3084 1428 2787 
Q 1159 2491 1159 1978 
L 1159 0 
L 581 0 
L 581 3500 
L 1159 3500 
L 1159 2956 
Q 1366 3272 1645 3428 
Q 1925 3584 2291 3584 
Q 2894 3584 3203 3211 
Q 3513 2838 3513 2113 
z
" transform="scale(0.015625)"/>
      </defs>
      <use xlink:href="#DejaVuSans-61"/>
      <use xlink:href="#DejaVuSans-6c" x="61.279297"/>
      <use xlink:href="#DejaVuSans-6b" x="89.0625"/>
      <use xlink:href="#DejaVuSans-61" x="145.222656"/>
      <use xlink:href="#DejaVuSans-6e" x="206.501953"/>
      <use xlink:href="#DejaVuSans-65" x="269.880859"/>
     </g>
    </g>
   </g>
  </g>
 </g>
 <defs>
  <clipPath id="p1e8f6f4616">
   <rect x="47.1875" y="7.2" width="478.33" height="307.24"/>
  </clipPath>
 </defs>
</svg>