<?xml version="1.0" encoding="utf-8" standalone="no"?>
<!DOCTYPE svg PUBLIC "-//W3C//DTD SVG 1.1//EN"
  "http://www.w3.org/Graphics/SVG/1.1/DTD/svg11.dtd">
<svg xmlns:xlink="http://www.w3.org/1999/xlink" width="411.285625pt" height="310.86825pt" viewBox="0 0 411.285625 310.86825" xmlns="http://www.w3.org/2000/svg" version="1.1">
 <metadata>
  <rdf:RDF xmlns:dc="http://purl.org/dc/elements/1.1/" xmlns:cc="http://creativecommons.org/ns#" xmlns:rdf="http://www.w3.org/1999/02/22-rdf-syntax-ns#">
   <cc:Work>
    <dc:type rdf:resource="http://purl.org/dc/dcmitype/StillImage"/>
    <dc:date>2024-06-29T12:29:57.278064</dc:date>
    <dc:format>image/svg+xml</dc:format>
    <dc:creator>
     <cc:Agent>
      <dc:title>Matplotlib v3.9.0, https://matplotlib.org/</dc:title>
     </cc:Agent>
    </dc:creator>
   </cc:Work>
  </rdf:RDF>
 </metadata>
 <defs>
  <style type="text/css">*{stroke-linejoin: round; stroke-linecap: butt}</style>
 </defs>
 <g id="figure_1">
  <g id="patch_1">
   <path d="M 0 310.86825 
L 411.285625 310.86825 
L 411.285625 0 
L 0 0 
z
" style="fill: #ffffff"/>
  </g>
  <g id="axes_1">
   <g id="patch_2">
    <path d="M 46.965625 273.312 
L 404.085625 273.312 
L 404.085625 7.2 
L 46.965625 7.2 
z
" style="fill: #ffffff"/>
   </g>
   <g id="PathCollection_1">
    <defs>
     <path id="mac04e626e8" d="M 0 3 
C 0.795609 3 1.55874 2.683901 2.12132 2.12132 
C 2.683901 1.55874 3 0.795609 3 0 
C 3 -0.795609 2.683901 -1.55874 2.12132 -2.12132 
C 1.55874 -2.683901 0.795609 -3 0 -3 
C -0.795609 -3 -1.55874 -2.683901 -2.12132 -2.12132 
C -2.683901 -1.55874 -3 -0.795609 -3 0 
C -3 0.795609 -2.683901 1.55874 -2.12132 2.12132 
C -1.55874 2.683901 -0.795609 3 0 3 
z
" style="stroke: #1f77b4; stroke-opacity: 0.8"/>
    </defs>
    <g clip-path="url(#pe4b683c8f3)">
     <use xlink:href="#mac04e626e8" x="63.198352" y="200.086806" style="fill: #1f77b4; fill-opacity: 0.8; stroke: #1f77b4; stroke-opacity: 0.8"/>
     <use xlink:href="#mac04e626e8" x="96.1333" y="187.454503" style="fill: #1f77b4; fill-opacity: 0.8; stroke: #1f77b4; stroke-opacity: 0.8"/>
     <use xlink:href="#mac04e626e8" x="129.068248" y="168.02019" style="fill: #1f77b4; fill-opacity: 0.8; stroke: #1f77b4; stroke-opacity: 0.8"/>
     <use xlink:href="#mac04e626e8" x="161.979721" y="148.585878" style="fill: #1f77b4; fill-opacity: 0.8; stroke: #1f77b4; stroke-opacity: 0.8"/>
     <use xlink:href="#mac04e626e8" x="194.914669" y="128.17985" style="fill: #1f77b4; fill-opacity: 0.8; stroke: #1f77b4; stroke-opacity: 0.8"/>
     <use xlink:href="#mac04e626e8" x="227.849616" y="110.688968" style="fill: #1f77b4; fill-opacity: 0.8; stroke: #1f77b4; stroke-opacity: 0.8"/>
     <use xlink:href="#mac04e626e8" x="260.761089" y="92.226371" style="fill: #1f77b4; fill-opacity: 0.8; stroke: #1f77b4; stroke-opacity: 0.8"/>
     <use xlink:href="#mac04e626e8" x="293.696037" y="73.763774" style="fill: #1f77b4; fill-opacity: 0.8; stroke: #1f77b4; stroke-opacity: 0.8"/>
     <use xlink:href="#mac04e626e8" x="326.60751" y="57.244609" style="fill: #1f77b4; fill-opacity: 0.8; stroke: #1f77b4; stroke-opacity: 0.8"/>
     <use xlink:href="#mac04e626e8" x="359.542458" y="37.810296" style="fill: #1f77b4; fill-opacity: 0.8; stroke: #1f77b4; stroke-opacity: 0.8"/>
     <use xlink:href="#mac04e626e8" x="157.355213" y="228.266559" style="fill: #1f77b4; fill-opacity: 0.8; stroke: #1f77b4; stroke-opacity: 0.8"/>
     <use xlink:href="#mac04e626e8" x="190.290161" y="196.199944" style="fill: #1f77b4; fill-opacity: 0.8; stroke: #1f77b4; stroke-opacity: 0.8"/>
     <use xlink:href="#mac04e626e8" x="223.225108" y="168.02019" style="fill: #1f77b4; fill-opacity: 0.8; stroke: #1f77b4; stroke-opacity: 0.8"/>
     <use xlink:href="#mac04e626e8" x="256.136581" y="140.812153" style="fill: #1f77b4; fill-opacity: 0.8; stroke: #1f77b4; stroke-opacity: 0.8"/>
     <use xlink:href="#mac04e626e8" x="289.071529" y="116.519262" style="fill: #1f77b4; fill-opacity: 0.8; stroke: #1f77b4; stroke-opacity: 0.8"/>
     <use xlink:href="#mac04e626e8" x="322.006477" y="94.169803" style="fill: #1f77b4; fill-opacity: 0.8; stroke: #1f77b4; stroke-opacity: 0.8"/>
     <use xlink:href="#mac04e626e8" x="354.91795" y="72.792059" style="fill: #1f77b4; fill-opacity: 0.8; stroke: #1f77b4; stroke-opacity: 0.8"/>
     <use xlink:href="#mac04e626e8" x="387.852898" y="53.357746" style="fill: #1f77b4; fill-opacity: 0.8; stroke: #1f77b4; stroke-opacity: 0.8"/>
     <use xlink:href="#mac04e626e8" x="190.290161" y="202.030237" style="fill: #1f77b4; fill-opacity: 0.8; stroke: #1f77b4; stroke-opacity: 0.8"/>
     <use xlink:href="#mac04e626e8" x="256.136581" y="149.557594" style="fill: #1f77b4; fill-opacity: 0.8; stroke: #1f77b4; stroke-opacity: 0.8"/>
     <use xlink:href="#mac04e626e8" x="157.355213" y="236.040284" style="fill: #1f77b4; fill-opacity: 0.8; stroke: #1f77b4; stroke-opacity: 0.8"/>
     <use xlink:href="#mac04e626e8" x="223.225108" y="185.511072" style="fill: #1f77b4; fill-opacity: 0.8; stroke: #1f77b4; stroke-opacity: 0.8"/>
     <use xlink:href="#mac04e626e8" x="161.979721" y="158.303034" style="fill: #1f77b4; fill-opacity: 0.8; stroke: #1f77b4; stroke-opacity: 0.8"/>
     <use xlink:href="#mac04e626e8" x="161.979721" y="182.595925" style="fill: #1f77b4; fill-opacity: 0.8; stroke: #1f77b4; stroke-opacity: 0.8"/>
     <use xlink:href="#mac04e626e8" x="194.914669" y="135.953575" style="fill: #1f77b4; fill-opacity: 0.8; stroke: #1f77b4; stroke-opacity: 0.8"/>
     <use xlink:href="#mac04e626e8" x="227.849616" y="132.066712" style="fill: #1f77b4; fill-opacity: 0.8; stroke: #1f77b4; stroke-opacity: 0.8"/>
     <use xlink:href="#mac04e626e8" x="260.761089" y="127.208134" style="fill: #1f77b4; fill-opacity: 0.8; stroke: #1f77b4; stroke-opacity: 0.8"/>
     <use xlink:href="#mac04e626e8" x="208.905566" y="86.396078" style="fill: #1f77b4; fill-opacity: 0.8; stroke: #1f77b4; stroke-opacity: 0.8"/>
     <use xlink:href="#mac04e626e8" x="241.840514" y="66.961765" style="fill: #1f77b4; fill-opacity: 0.8; stroke: #1f77b4; stroke-opacity: 0.8"/>
     <use xlink:href="#mac04e626e8" x="307.686934" y="49.470884" style="fill: #1f77b4; fill-opacity: 0.8; stroke: #1f77b4; stroke-opacity: 0.8"/>
    </g>
   </g>
   <g id="PolyCollection_1">
    <path d="M 63.198352 207.443217 
L 63.198352 261.216 
L 66.477691 258.766357 
L 69.75703 256.393168 
L 73.036369 254.090727 
L 76.315708 251.715096 
L 79.595046 249.253957 
L 82.874385 246.792817 
L 86.153724 244.331678 
L 89.433063 241.870538 
L 92.712402 239.444898 
L 95.991741 237.209595 
L 99.27108 234.974291 
L 102.550418 232.738988 
L 105.829757 230.501037 
L 109.109096 228.235499 
L 112.388435 225.483854 
L 115.667774 222.988623 
L 118.947113 220.656753 
L 122.226451 218.324883 
L 125.50579 215.993013 
L 128.785129 213.539009 
L 132.064468 211.044519 
L 135.343807 208.55003 
L 138.623146 206.154975 
L 141.902485 203.892027 
L 145.181823 201.678753 
L 148.461162 199.360265 
L 151.740501 196.965763 
L 155.01984 194.476673 
L 158.299179 192.388172 
L 161.578518 190.302531 
L 164.857856 188.051391 
L 168.137195 185.786499 
L 171.416534 183.408751 
L 174.695873 181.112496 
L 177.975212 178.9991 
L 181.254551 176.748311 
L 184.533889 174.489351 
L 187.813228 172.291827 
L 191.092567 169.965019 
L 194.371906 167.706203 
L 197.651245 165.479093 
L 200.930584 163.286023 
L 204.209923 161.111034 
L 207.489261 159.051359 
L 210.7686 156.990428 
L 214.047939 154.894725 
L 217.327278 152.832386 
L 220.606617 150.668711 
L 223.885956 148.507849 
L 227.165294 146.382991 
L 230.444633 144.133626 
L 233.723972 142.02049 
L 237.003311 139.878942 
L 240.28265 137.679885 
L 243.561989 135.601948 
L 246.841327 133.941625 
L 250.120666 131.855118 
L 253.400005 129.977275 
L 256.679344 128.171521 
L 259.958683 126.275053 
L 263.238022 124.15039 
L 266.517361 122.326552 
L 269.796699 120.200636 
L 273.076038 118.438261 
L 276.355377 116.711325 
L 279.634716 114.997646 
L 282.914055 113.300711 
L 286.193394 111.53052 
L 289.472732 109.803854 
L 292.752071 108.077077 
L 296.03141 106.352119 
L 299.310749 104.626615 
L 302.590088 102.975266 
L 305.869427 101.180325 
L 309.148765 99.454485 
L 312.428104 97.760689 
L 315.707443 95.999479 
L 318.986782 94.276041 
L 322.266121 92.575874 
L 325.54546 91.011929 
L 328.824799 89.27272 
L 332.104137 87.47757 
L 335.383476 85.814591 
L 338.662815 84.126578 
L 341.942154 82.490853 
L 345.221493 80.759635 
L 348.500832 78.975504 
L 351.78017 77.294585 
L 355.059509 75.565677 
L 358.338848 73.993925 
L 361.618187 72.337323 
L 364.897526 70.733736 
L 368.176865 69.151902 
L 371.456204 67.567885 
L 374.735542 65.892129 
L 378.014881 64.200997 
L 381.29422 62.509865 
L 384.573559 60.818734 
L 387.852898 59.144828 
L 387.852898 19.296 
L 387.852898 19.296 
L 384.573559 21.729765 
L 381.29422 24.163529 
L 378.014881 26.597294 
L 374.735542 28.963925 
L 371.456204 31.294564 
L 368.176865 33.625202 
L 364.897526 35.95584 
L 361.618187 38.286478 
L 358.338848 40.561384 
L 355.059509 42.808233 
L 351.78017 45.062184 
L 348.500832 47.187962 
L 345.221493 49.244078 
L 341.942154 51.567938 
L 338.662815 53.855569 
L 335.383476 56.179591 
L 332.104137 58.580549 
L 328.824799 60.834969 
L 325.54546 63.112101 
L 322.266121 65.340992 
L 318.986782 67.476012 
L 315.707443 69.733018 
L 312.428104 71.883427 
L 309.148765 73.916317 
L 305.869427 75.718928 
L 302.590088 77.725396 
L 299.310749 79.900723 
L 296.03141 81.783889 
L 292.752071 83.675884 
L 289.472732 85.61957 
L 286.193394 87.796149 
L 282.914055 89.902828 
L 279.634716 91.933792 
L 276.355377 93.888726 
L 273.076038 95.728328 
L 269.796699 97.712158 
L 266.517361 99.748697 
L 263.238022 101.653591 
L 259.958683 103.402115 
L 256.679344 105.307059 
L 253.400005 107.192534 
L 250.120666 109.185929 
L 246.841327 111.027565 
L 243.561989 112.82447 
L 240.28265 114.627157 
L 237.003311 116.617155 
L 233.723972 118.297213 
L 230.444633 120.053781 
L 227.165294 121.973138 
L 223.885956 123.740971 
L 220.606617 125.616483 
L 217.327278 127.487867 
L 214.047939 129.087448 
L 210.7686 130.82976 
L 207.489261 132.659937 
L 204.209923 134.542102 
L 200.930584 136.375508 
L 197.651245 138.110529 
L 194.371906 139.879216 
L 191.092567 141.690519 
L 187.813228 143.432315 
L 184.533889 145.128273 
L 181.254551 146.809062 
L 177.975212 148.515732 
L 174.695873 150.245358 
L 171.416534 151.978021 
L 168.137195 153.620943 
L 164.857856 155.224221 
L 161.578518 156.844581 
L 158.299179 158.616589 
L 155.01984 160.343864 
L 151.740501 162.138869 
L 148.461162 163.843563 
L 145.181823 165.628291 
L 141.902485 167.416182 
L 138.623146 169.076804 
L 135.343807 170.726677 
L 132.064468 172.399027 
L 128.785129 174.103574 
L 125.50579 175.750177 
L 122.226451 177.372505 
L 118.947113 178.994833 
L 115.667774 180.618102 
L 112.388435 182.265866 
L 109.109096 183.913631 
L 105.829757 185.562968 
L 102.550418 187.210804 
L 99.27108 188.857735 
L 95.991741 190.506394 
L 92.712402 192.156544 
L 89.433063 193.848356 
L 86.153724 195.5637 
L 82.874385 197.279044 
L 79.595046 198.995842 
L 76.315708 200.598069 
L 73.036369 202.259721 
L 69.75703 203.986198 
L 66.477691 205.714175 
L 63.198352 207.443217 
z
" clip-path="url(#pe4b683c8f3)" style="fill: #1f77b4; fill-opacity: 0.15"/>
   </g>
   <g id="matplotlib.axis_1">
    <g id="xtick_1">
     <g id="line2d_1">
      <defs>
       <path id="mf7f15b7b29" d="M 0 0 
L 0 3.5 
" style="stroke: #000000; stroke-width: 0.8"/>
      </defs>
      <g>
       <use xlink:href="#mf7f15b7b29" x="81.884181" y="273.312" style="stroke: #000000; stroke-width: 0.8"/>
      </g>
     </g>
     <g id="text_1">
      <!-- 40 -->
      <g transform="translate(75.521681 287.910437) scale(0.1 -0.1)">
       <defs>
        <path id="DejaVuSans-34" d="M 2419 4116 
L 825 1625 
L 2419 1625 
L 2419 4116 
z
M 2253 4666 
L 3047 4666 
L 3047 1625 
L 3713 1625 
L 3713 1100 
L 3047 1100 
L 3047 0 
L 2419 0 
L 2419 1100 
L 313 1100 
L 313 1709 
L 2253 4666 
z
" transform="scale(0.015625)"/>
        <path id="DejaVuSans-30" d="M 2034 4250 
Q 1547 4250 1301 3770 
Q 1056 3291 1056 2328 
Q 1056 1369 1301 889 
Q 1547 409 2034 409 
Q 2525 409 2770 889 
Q 3016 1369 3016 2328 
Q 3016 3291 2770 3770 
Q 2525 4250 2034 4250 
z
M 2034 4750 
Q 2819 4750 3233 4129 
Q 3647 3509 3647 2328 
Q 3647 1150 3233 529 
Q 2819 -91 2034 -91 
Q 1250 -91 836 529 
Q 422 1150 422 2328 
Q 422 3509 836 4129 
Q 1250 4750 2034 4750 
z
" transform="scale(0.015625)"/>
       </defs>
       <use xlink:href="#DejaVuSans-34"/>
       <use xlink:href="#DejaVuSans-30" x="63.623047"/>
      </g>
     </g>
    </g>
    <g id="xtick_2">
     <g id="line2d_2">
      <g>
       <use xlink:href="#mf7f15b7b29" x="128.833501" y="273.312" style="stroke: #000000; stroke-width: 0.8"/>
      </g>
     </g>
     <g id="text_2">
      <!-- 60 -->
      <g transform="translate(122.471001 287.910437) scale(0.1 -0.1)">
       <defs>
        <path id="DejaVuSans-36" d="M 2113 2584 
Q 1688 2584 1439 2293 
Q 1191 2003 1191 1497 
Q 1191 994 1439 701 
Q 1688 409 2113 409 
Q 2538 409 2786 701 
Q 3034 994 3034 1497 
Q 3034 2003 2786 2293 
Q 2538 2584 2113 2584 
z
M 3366 4563 
L 3366 3988 
Q 3128 4100 2886 4159 
Q 2644 4219 2406 4219 
Q 1781 4219 1451 3797 
Q 1122 3375 1075 2522 
Q 1259 2794 1537 2939 
Q 1816 3084 2150 3084 
Q 2853 3084 3261 2657 
Q 3669 2231 3669 1497 
Q 3669 778 3244 343 
Q 2819 -91 2113 -91 
Q 1303 -91 875 529 
Q 447 1150 447 2328 
Q 447 3434 972 4092 
Q 1497 4750 2381 4750 
Q 2619 4750 2861 4703 
Q 3103 4656 3366 4563 
z
" transform="scale(0.015625)"/>
       </defs>
       <use xlink:href="#DejaVuSans-36"/>
       <use xlink:href="#DejaVuSans-30" x="63.623047"/>
      </g>
     </g>
    </g>
    <g id="xtick_3">
     <g id="line2d_3">
      <g>
       <use xlink:href="#mf7f15b7b29" x="175.782821" y="273.312" style="stroke: #000000; stroke-width: 0.8"/>
      </g>
     </g>
     <g id="text_3">
      <!-- 80 -->
      <g transform="translate(169.420321 287.910437) scale(0.1 -0.1)">
       <defs>
        <path id="DejaVuSans-38" d="M 2034 2216 
Q 1584 2216 1326 1975 
Q 1069 1734 1069 1313 
Q 1069 891 1326 650 
Q 1584 409 2034 409 
Q 2484 409 2743 651 
Q 3003 894 3003 1313 
Q 3003 1734 2745 1975 
Q 2488 2216 2034 2216 
z
M 1403 2484 
Q 997 2584 770 2862 
Q 544 3141 544 3541 
Q 544 4100 942 4425 
Q 1341 4750 2034 4750 
Q 2731 4750 3128 4425 
Q 3525 4100 3525 3541 
Q 3525 3141 3298 2862 
Q 3072 2584 2669 2484 
Q 3125 2378 3379 2068 
Q 3634 1759 3634 1313 
Q 3634 634 3220 271 
Q 2806 -91 2034 -91 
Q 1263 -91 848 271 
Q 434 634 434 1313 
Q 434 1759 690 2068 
Q 947 2378 1403 2484 
z
M 1172 3481 
Q 1172 3119 1398 2916 
Q 1625 2713 2034 2713 
Q 2441 2713 2670 2916 
Q 2900 3119 2900 3481 
Q 2900 3844 2670 4047 
Q 2441 4250 2034 4250 
Q 1625 4250 1398 4047 
Q 1172 3844 1172 3481 
z
" transform="scale(0.015625)"/>
       </defs>
       <use xlink:href="#DejaVuSans-38"/>
       <use xlink:href="#DejaVuSans-30" x="63.623047"/>
      </g>
     </g>
    </g>
    <g id="xtick_4">
     <g id="line2d_4">
      <g>
       <use xlink:href="#mf7f15b7b29" x="222.73214" y="273.312" style="stroke: #000000; stroke-width: 0.8"/>
      </g>
     </g>
     <g id="text_4">
      <!-- 100 -->
      <g transform="translate(213.18839 287.910437) scale(0.1 -0.1)">
       <defs>
        <path id="DejaVuSans-31" d="M 794 531 
L 1825 531 
L 1825 4091 
L 703 3866 
L 703 4441 
L 1819 4666 
L 2450 4666 
L 2450 531 
L 3481 531 
L 3481 0 
L 794 0 
L 794 531 
z
" transform="scale(0.015625)"/>
       </defs>
       <use xlink:href="#DejaVuSans-31"/>
       <use xlink:href="#DejaVuSans-30" x="63.623047"/>
       <use xlink:href="#DejaVuSans-30" x="127.246094"/>
      </g>
     </g>
    </g>
    <g id="xtick_5">
     <g id="line2d_5">
      <g>
       <use xlink:href="#mf7f15b7b29" x="269.68146" y="273.312" style="stroke: #000000; stroke-width: 0.8"/>
      </g>
     </g>
     <g id="text_5">
      <!-- 120 -->
      <g transform="translate(260.13771 287.910437) scale(0.1 -0.1)">
       <defs>
        <path id="DejaVuSans-32" d="M 1228 531 
L 3431 531 
L 3431 0 
L 469 0 
L 469 531 
Q 828 903 1448 1529 
Q 2069 2156 2228 2338 
Q 2531 2678 2651 2914 
Q 2772 3150 2772 3378 
Q 2772 3750 2511 3984 
Q 2250 4219 1831 4219 
Q 1534 4219 1204 4116 
Q 875 4013 500 3803 
L 500 4441 
Q 881 4594 1212 4672 
Q 1544 4750 1819 4750 
Q 2544 4750 2975 4387 
Q 3406 4025 3406 3419 
Q 3406 3131 3298 2873 
Q 3191 2616 2906 2266 
Q 2828 2175 2409 1742 
Q 1991 1309 1228 531 
z
" transform="scale(0.015625)"/>
       </defs>
       <use xlink:href="#DejaVuSans-31"/>
       <use xlink:href="#DejaVuSans-32" x="63.623047"/>
       <use xlink:href="#DejaVuSans-30" x="127.246094"/>
      </g>
     </g>
    </g>
    <g id="xtick_6">
     <g id="line2d_6">
      <g>
       <use xlink:href="#mf7f15b7b29" x="316.63078" y="273.312" style="stroke: #000000; stroke-width: 0.8"/>
      </g>
     </g>
     <g id="text_6">
      <!-- 140 -->
      <g transform="translate(307.08703 287.910437) scale(0.1 -0.1)">
       <use xlink:href="#DejaVuSans-31"/>
       <use xlink:href="#DejaVuSans-34" x="63.623047"/>
       <use xlink:href="#DejaVuSans-30" x="127.246094"/>
      </g>
     </g>
    </g>
    <g id="xtick_7">
     <g id="line2d_7">
      <g>
       <use xlink:href="#mf7f15b7b29" x="363.580099" y="273.312" style="stroke: #000000; stroke-width: 0.8"/>
      </g>
     </g>
     <g id="text_7">
      <!-- 160 -->
      <g transform="translate(354.036349 287.910437) scale(0.1 -0.1)">
       <use xlink:href="#DejaVuSans-31"/>
       <use xlink:href="#DejaVuSans-36" x="63.623047"/>
       <use xlink:href="#DejaVuSans-30" x="127.246094"/>
      </g>
     </g>
    </g>
    <g id="text_8">
     <!-- MW -->
     <g transform="translate(216.267813 301.588562) scale(0.1 -0.1)">
      <defs>
       <path id="DejaVuSans-4d" d="M 628 4666 
L 1569 4666 
L 2759 1491 
L 3956 4666 
L 4897 4666 
L 4897 0 
L 4281 0 
L 4281 4097 
L 3078 897 
L 2444 897 
L 1241 4097 
L 1241 0 
L 628 0 
L 628 4666 
z
" transform="scale(0.015625)"/>
       <path id="DejaVuSans-57" d="M 213 4666 
L 850 4666 
L 1831 722 
L 2809 4666 
L 3519 4666 
L 4500 722 
L 5478 4666 
L 6119 4666 
L 4947 0 
L 4153 0 
L 3169 4050 
L 2175 0 
L 1381 0 
L 213 4666 
z
" transform="scale(0.015625)"/>
      </defs>
      <use xlink:href="#DejaVuSans-4d"/>
      <use xlink:href="#DejaVuSans-57" x="86.279297"/>
     </g>
    </g>
   </g>
   <g id="matplotlib.axis_2">
    <g id="ytick_1">
     <g id="line2d_8">
      <defs>
       <path id="m6040280e5b" d="M 0 0 
L -3.5 0 
" style="stroke: #000000; stroke-width: 0.8"/>
      </defs>
      <g>
       <use xlink:href="#m6040280e5b" x="46.965625" y="263.248322" style="stroke: #000000; stroke-width: 0.8"/>
      </g>
     </g>
     <g id="text_9">
      <!-- 0 -->
      <g transform="translate(33.603125 267.047541) scale(0.1 -0.1)">
       <use xlink:href="#DejaVuSans-30"/>
      </g>
     </g>
    </g>
    <g id="ytick_2">
     <g id="line2d_9">
      <g>
       <use xlink:href="#m6040280e5b" x="46.965625" y="214.662541" style="stroke: #000000; stroke-width: 0.8"/>
      </g>
     </g>
     <g id="text_10">
      <!-- 50 -->
      <g transform="translate(27.240625 218.461759) scale(0.1 -0.1)">
       <defs>
        <path id="DejaVuSans-35" d="M 691 4666 
L 3169 4666 
L 3169 4134 
L 1269 4134 
L 1269 2991 
Q 1406 3038 1543 3061 
Q 1681 3084 1819 3084 
Q 2600 3084 3056 2656 
Q 3513 2228 3513 1497 
Q 3513 744 3044 326 
Q 2575 -91 1722 -91 
Q 1428 -91 1123 -41 
Q 819 9 494 109 
L 494 744 
Q 775 591 1075 516 
Q 1375 441 1709 441 
Q 2250 441 2565 725 
Q 2881 1009 2881 1497 
Q 2881 1984 2565 2268 
Q 2250 2553 1709 2553 
Q 1456 2553 1204 2497 
Q 953 2441 691 2322 
L 691 4666 
z
" transform="scale(0.015625)"/>
       </defs>
       <use xlink:href="#DejaVuSans-35"/>
       <use xlink:href="#DejaVuSans-30" x="63.623047"/>
      </g>
     </g>
    </g>
    <g id="ytick_3">
     <g id="line2d_10">
      <g>
       <use xlink:href="#m6040280e5b" x="46.965625" y="166.076759" style="stroke: #000000; stroke-width: 0.8"/>
      </g>
     </g>
     <g id="text_11">
      <!-- 100 -->
      <g transform="translate(20.878125 169.875978) scale(0.1 -0.1)">
       <use xlink:href="#DejaVuSans-31"/>
       <use xlink:href="#DejaVuSans-30" x="63.623047"/>
       <use xlink:href="#DejaVuSans-30" x="127.246094"/>
      </g>
     </g>
    </g>
    <g id="ytick_4">
     <g id="line2d_11">
      <g>
       <use xlink:href="#m6040280e5b" x="46.965625" y="117.490978" style="stroke: #000000; stroke-width: 0.8"/>
      </g>
     </g>
     <g id="text_12">
      <!-- 150 -->
      <g transform="translate(20.878125 121.290196) scale(0.1 -0.1)">
       <use xlink:href="#DejaVuSans-31"/>
       <use xlink:href="#DejaVuSans-35" x="63.623047"/>
       <use xlink:href="#DejaVuSans-30" x="127.246094"/>
      </g>
     </g>
    </g>
    <g id="ytick_5">
     <g id="line2d_12">
      <g>
       <use xlink:href="#m6040280e5b" x="46.965625" y="68.905196" style="stroke: #000000; stroke-width: 0.8"/>
      </g>
     </g>
     <g id="text_13">
      <!-- 200 -->
      <g transform="translate(20.878125 72.704415) scale(0.1 -0.1)">
       <use xlink:href="#DejaVuSans-32"/>
       <use xlink:href="#DejaVuSans-30" x="63.623047"/>
       <use xlink:href="#DejaVuSans-30" x="127.246094"/>
      </g>
     </g>
    </g>
    <g id="ytick_6">
     <g id="line2d_13">
      <g>
       <use xlink:href="#m6040280e5b" x="46.965625" y="20.319415" style="stroke: #000000; stroke-width: 0.8"/>
      </g>
     </g>
     <g id="text_14">
      <!-- 250 -->
      <g transform="translate(20.878125 24.118634) scale(0.1 -0.1)">
       <use xlink:href="#DejaVuSans-32"/>
       <use xlink:href="#DejaVuSans-35" x="63.623047"/>
       <use xlink:href="#DejaVuSans-30" x="127.246094"/>
      </g>
     </g>
    </g>
    <g id="text_15">
     <!-- bp -->
     <g transform="translate(14.798438 146.604437) rotate(-90) scale(0.1 -0.1)">
      <defs>
       <path id="DejaVuSans-62" d="M 3116 1747 
Q 3116 2381 2855 2742 
Q 2594 3103 2138 3103 
Q 1681 3103 1420 2742 
Q 1159 2381 1159 1747 
Q 1159 1113 1420 752 
Q 1681 391 2138 391 
Q 2594 391 2855 752 
Q 3116 1113 3116 1747 
z
M 1159 2969 
Q 1341 3281 1617 3432 
Q 1894 3584 2278 3584 
Q 2916 3584 3314 3078 
Q 3713 2572 3713 1747 
Q 3713 922 3314 415 
Q 2916 -91 2278 -91 
Q 1894 -91 1617 61 
Q 1341 213 1159 525 
L 1159 0 
L 581 0 
L 581 4863 
L 1159 4863 
L 1159 2969 
z
" transform="scale(0.015625)"/>
       <path id="DejaVuSans-70" d="M 1159 525 
L 1159 -1331 
L 581 -1331 
L 581 3500 
L 1159 3500 
L 1159 2969 
Q 1341 3281 1617 3432 
Q 1894 3584 2278 3584 
Q 2916 3584 3314 3078 
Q 3713 2572 3713 1747 
Q 3713 922 3314 415 
Q 2916 -91 2278 -91 
Q 1894 -91 1617 61 
Q 1341 213 1159 525 
z
M 3116 1747 
Q 3116 2381 2855 2742 
Q 2594 3103 2138 3103 
Q 1681 3103 1420 2742 
Q 1159 2381 1159 1747 
Q 1159 1113 1420 752 
Q 1681 391 2138 391 
Q 2594 391 2855 752 
Q 3116 1113 3116 1747 
z
" transform="scale(0.015625)"/>
      </defs>
      <use xlink:href="#DejaVuSans-62"/>
      <use xlink:href="#DejaVuSans-70" x="63.476562"/>
     </g>
    </g>
   </g>
   <g id="line2d_14">
    <path d="M 63.198352 229.250001 
L 66.477691 227.350554 
L 69.75703 225.451107 
L 73.036369 223.55166 
L 76.315708 221.652213 
L 79.595046 219.752766 
L 82.874385 217.85332 
L 86.153724 215.953873 
L 89.433063 214.054426 
L 92.712402 212.154979 
L 95.991741 210.255532 
L 99.27108 208.356085 
L 102.550418 206.456638 
L 105.829757 204.557191 
L 109.109096 202.657745 
L 112.388435 200.758298 
L 115.667774 198.858851 
L 118.947113 196.959404 
L 122.226451 195.059957 
L 125.50579 193.16051 
L 128.785129 191.261063 
L 132.064468 189.361616 
L 135.343807 187.46217 
L 138.623146 185.562723 
L 141.902485 183.663276 
L 145.181823 181.763829 
L 148.461162 179.864382 
L 151.740501 177.964935 
L 155.01984 176.065488 
L 158.299179 174.166041 
L 161.578518 172.266595 
L 164.857856 170.367148 
L 168.137195 168.467701 
L 171.416534 166.568254 
L 174.695873 164.668807 
L 177.975212 162.76936 
L 181.254551 160.869913 
L 184.533889 158.970467 
L 187.813228 157.07102 
L 191.092567 155.171573 
L 194.371906 153.272126 
L 197.651245 151.372679 
L 200.930584 149.473232 
L 204.209923 147.573785 
L 207.489261 145.674338 
L 210.7686 143.774892 
L 214.047939 141.875445 
L 217.327278 139.975998 
L 220.606617 138.076551 
L 223.885956 136.177104 
L 227.165294 134.277657 
L 230.444633 132.37821 
L 233.723972 130.478763 
L 237.003311 128.579317 
L 240.28265 126.67987 
L 243.561989 124.780423 
L 246.841327 122.880976 
L 250.120666 120.981529 
L 253.400005 119.082082 
L 256.679344 117.182635 
L 259.958683 115.283188 
L 263.238022 113.383742 
L 266.517361 111.484295 
L 269.796699 109.584848 
L 273.076038 107.685401 
L 276.355377 105.785954 
L 279.634716 103.886507 
L 282.914055 101.98706 
L 286.193394 100.087614 
L 289.472732 98.188167 
L 292.752071 96.28872 
L 296.03141 94.389273 
L 299.310749 92.489826 
L 302.590088 90.590379 
L 305.869427 88.690932 
L 309.148765 86.791485 
L 312.428104 84.892039 
L 315.707443 82.992592 
L 318.986782 81.093145 
L 322.266121 79.193698 
L 325.54546 77.294251 
L 328.824799 75.394804 
L 332.104137 73.495357 
L 335.383476 71.59591 
L 338.662815 69.696464 
L 341.942154 67.797017 
L 345.221493 65.89757 
L 348.500832 63.998123 
L 351.78017 62.098676 
L 355.059509 60.199229 
L 358.338848 58.299782 
L 361.618187 56.400335 
L 364.897526 54.500889 
L 368.176865 52.601442 
L 371.456204 50.701995 
L 374.735542 48.802548 
L 378.014881 46.903101 
L 381.29422 45.003654 
L 384.573559 43.104207 
L 387.852898 41.204761 
" clip-path="url(#pe4b683c8f3)" style="fill: none; stroke: #1f77b4; stroke-width: 2.25; stroke-linecap: square"/>
   </g>
   <g id="patch_3">
    <path d="M 46.965625 273.312 
L 46.965625 7.2 
" style="fill: none; stroke: #000000; stroke-width: 0.8; stroke-linejoin: miter; stroke-linecap: square"/>
   </g>
   <g id="patch_4">
    <path d="M 404.085625 273.312 
L 404.085625 7.2 
" style="fill: none; stroke: #000000; stroke-width: 0.8; stroke-linejoin: miter; stroke-linecap: square"/>
   </g>
   <g id="patch_5">
    <path d="M 46.965625 273.312 
L 404.085625 273.312 
" style="fill: none; stroke: #000000; stroke-width: 0.8; stroke-linejoin: miter; stroke-linecap: square"/>
   </g>
   <g id="patch_6">
    <path d="M 46.965625 7.2 
L 404.085625 7.2 
" style="fill: none; stroke: #000000; stroke-width: 0.8; stroke-linejoin: miter; stroke-linecap: square"/>
   </g>
  </g>
 </g>
 <defs>
  <clipPath id="pe4b683c8f3">
   <rect x="46.965625" y="7.2" width="357.12" height="266.112"/>
  </clipPath>
 </defs>
</svg>