<?xml version="1.0" encoding="utf-8" standalone="no"?>
<!DOCTYPE svg PUBLIC "-//W3C//DTD SVG 1.1//EN"
  "http://www.w3.org/Graphics/SVG/1.1/DTD/svg11.dtd">
<svg xmlns:xlink="http://www.w3.org/1999/xlink" width="420.188935pt" height="351.99625pt" viewBox="0 0 420.188935 351.99625" xmlns="http://www.w3.org/2000/svg" version="1.1">
 <metadata>
  <rdf:RDF xmlns:dc="http://purl.org/dc/elements/1.1/" xmlns:cc="http://creativecommons.org/ns#" xmlns:rdf="http://www.w3.org/1999/02/22-rdf-syntax-ns#">
   <cc:Work>
    <dc:type rdf:resource="http://purl.org/dc/dcmitype/StillImage"/>
    <dc:date>2025-07-03T14:18:58.215680</dc:date>
    <dc:format>image/svg+xml</dc:format>
    <dc:creator>
     <cc:Agent>
      <dc:title>Matplotlib v3.10.3, https://matplotlib.org/</dc:title>
     </cc:Agent>
    </dc:creator>
   </cc:Work>
  </rdf:RDF>
 </metadata>
 <defs>
  <style type="text/css">*{stroke-linejoin: round; stroke-linecap: butt}</style>
 </defs>
 <g id="figure_1">
  <g id="patch_1">
   <path d="M 0 351.99625 
L 420.188935 351.99625 
L 420.188935 0 
L 0 0 
z
" style="fill: #ffffff"/>
  </g>
  <g id="axes_1">
   <g id="patch_2">
    <path d="M 47.1875 314.44 
L 341.850735 314.44 
L 341.850735 7.2 
L 47.1875 7.2 
z
" style="fill: #ffffff"/>
   </g>
   <g id="PathCollection_1">
    <defs>
     <path id="m70cf1730ee" d="M 0 3 
C 0.795609 3 1.55874 2.683901 2.12132 2.12132 
C 2.683901 1.55874 3 0.795609 3 0 
C 3 -0.795609 2.683901 -1.55874 2.12132 -2.12132 
C 1.55874 -2.683901 0.795609 -3 0 -3 
C -0.795609 -3 -1.55874 -2.683901 -2.12132 -2.12132 
C -2.683901 -1.55874 -3 -0.795609 -3 0 
C -3 0.795609 -2.683901 1.55874 -2.12132 2.12132 
C -1.55874 2.683901 -0.795609 3 0 3 
z
" style="stroke: #1f77b4; stroke-opacity: 0.8"/>
    </defs>
    <g clip-path="url(#pef67f948da)">
     <use xlink:href="#m70cf1730ee" x="60.581283" y="254.121076" style="fill: #1f77b4; fill-opacity: 0.8; stroke: #1f77b4; stroke-opacity: 0.8"/>
     <use xlink:href="#m70cf1730ee" x="87.756234" y="237.834722" style="fill: #1f77b4; fill-opacity: 0.8; stroke: #1f77b4; stroke-opacity: 0.8"/>
     <use xlink:href="#m70cf1730ee" x="114.931184" y="212.778793" style="fill: #1f77b4; fill-opacity: 0.8; stroke: #1f77b4; stroke-opacity: 0.8"/>
     <use xlink:href="#m70cf1730ee" x="142.086765" y="187.722864" style="fill: #1f77b4; fill-opacity: 0.8; stroke: #1f77b4; stroke-opacity: 0.8"/>
     <use xlink:href="#m70cf1730ee" x="169.261715" y="161.414138" style="fill: #1f77b4; fill-opacity: 0.8; stroke: #1f77b4; stroke-opacity: 0.8"/>
     <use xlink:href="#m70cf1730ee" x="196.436666" y="138.863802" style="fill: #1f77b4; fill-opacity: 0.8; stroke: #1f77b4; stroke-opacity: 0.8"/>
     <use xlink:href="#m70cf1730ee" x="223.592247" y="115.060669" style="fill: #1f77b4; fill-opacity: 0.8; stroke: #1f77b4; stroke-opacity: 0.8"/>
     <use xlink:href="#m70cf1730ee" x="250.767197" y="91.257536" style="fill: #1f77b4; fill-opacity: 0.8; stroke: #1f77b4; stroke-opacity: 0.8"/>
     <use xlink:href="#m70cf1730ee" x="277.922778" y="69.959997" style="fill: #1f77b4; fill-opacity: 0.8; stroke: #1f77b4; stroke-opacity: 0.8"/>
     <use xlink:href="#m70cf1730ee" x="305.097728" y="44.904067" style="fill: #1f77b4; fill-opacity: 0.8; stroke: #1f77b4; stroke-opacity: 0.8"/>
     <use xlink:href="#m70cf1730ee" x="142.086765" y="200.250829" style="fill: #1f77b4; fill-opacity: 0.8; stroke: #1f77b4; stroke-opacity: 0.8"/>
     <use xlink:href="#m70cf1730ee" x="142.086765" y="231.57074" style="fill: #1f77b4; fill-opacity: 0.8; stroke: #1f77b4; stroke-opacity: 0.8"/>
     <use xlink:href="#m70cf1730ee" x="169.261715" y="171.43651" style="fill: #1f77b4; fill-opacity: 0.8; stroke: #1f77b4; stroke-opacity: 0.8"/>
     <use xlink:href="#m70cf1730ee" x="196.436666" y="166.425324" style="fill: #1f77b4; fill-opacity: 0.8; stroke: #1f77b4; stroke-opacity: 0.8"/>
     <use xlink:href="#m70cf1730ee" x="223.592247" y="160.161342" style="fill: #1f77b4; fill-opacity: 0.8; stroke: #1f77b4; stroke-opacity: 0.8"/>
     <use xlink:href="#m70cf1730ee" x="180.805743" y="107.54389" style="fill: #1f77b4; fill-opacity: 0.8; stroke: #1f77b4; stroke-opacity: 0.8"/>
     <use xlink:href="#m70cf1730ee" x="207.980693" y="82.487961" style="fill: #1f77b4; fill-opacity: 0.8; stroke: #1f77b4; stroke-opacity: 0.8"/>
     <use xlink:href="#m70cf1730ee" x="262.311224" y="59.937625" style="fill: #1f77b4; fill-opacity: 0.8; stroke: #1f77b4; stroke-opacity: 0.8"/>
    </g>
   </g>
   <g id="FillBetweenPolyCollection_1">
    <path d="M 60.581283 249.965195 
L 60.581283 283.974269 
L 63.051146 281.497577 
L 65.52101 279.019589 
L 67.990873 276.54606 
L 70.460736 274.074144 
L 72.930599 271.630549 
L 75.400462 269.186955 
L 77.870325 266.743361 
L 80.340188 264.299767 
L 82.810051 261.698883 
L 85.279914 259.224788 
L 87.749777 256.775477 
L 90.21964 254.462969 
L 92.689503 251.802504 
L 95.159367 249.420139 
L 97.62923 247.121885 
L 100.099093 244.743166 
L 102.568956 242.302695 
L 105.038819 239.857296 
L 107.508682 237.387592 
L 109.978545 234.715843 
L 112.448408 232.041146 
L 114.918271 229.529745 
L 117.388134 227.060723 
L 119.857997 224.740969 
L 122.32786 222.426805 
L 124.797724 220.086098 
L 127.267587 217.592178 
L 129.73745 215.076395 
L 132.207313 212.543392 
L 134.677176 210.061758 
L 137.147039 207.696989 
L 139.616902 205.330218 
L 142.086765 202.9295 
L 144.556628 200.538813 
L 147.026491 198.125056 
L 149.496354 195.653977 
L 151.966217 193.277997 
L 154.436081 190.771442 
L 156.905944 188.394357 
L 159.375807 186.107024 
L 161.84567 183.704731 
L 164.315533 181.356531 
L 166.785396 179.033677 
L 169.255259 176.813303 
L 171.725122 174.405222 
L 174.194985 172.08876 
L 176.664848 169.843069 
L 179.134711 167.566386 
L 181.604574 165.230968 
L 184.074437 162.812212 
L 186.544301 160.547616 
L 189.014164 158.448686 
L 191.484027 156.358289 
L 193.95389 154.2753 
L 196.423753 152.151329 
L 198.893616 149.925947 
L 201.363479 147.946069 
L 203.833342 145.776468 
L 206.303205 143.720074 
L 208.773068 141.459729 
L 211.242931 139.37954 
L 213.712794 137.305324 
L 216.182658 135.250259 
L 218.652521 133.15252 
L 221.122384 131.046511 
L 223.592247 128.820265 
L 226.06211 126.714107 
L 228.531973 124.607259 
L 231.001836 122.500411 
L 233.471699 120.393563 
L 235.941562 118.286345 
L 238.411425 116.136817 
L 240.881288 114.035754 
L 243.351151 111.900565 
L 245.821015 109.827583 
L 248.290878 107.754227 
L 250.760741 105.650867 
L 253.230604 103.545735 
L 255.700467 101.532942 
L 258.17033 99.399994 
L 260.640193 97.264258 
L 263.110056 95.128523 
L 265.579919 93.020074 
L 268.049782 90.914942 
L 270.519645 88.895573 
L 272.989508 86.967357 
L 275.459371 84.957041 
L 277.929235 82.88067 
L 280.399098 80.782228 
L 282.868961 78.683787 
L 285.338824 76.585345 
L 287.808687 74.486903 
L 290.27855 72.388461 
L 292.748413 70.347767 
L 295.218276 68.196161 
L 297.688139 66.16755 
L 300.158002 64.137841 
L 302.627865 62.108021 
L 305.097728 60.078201 
L 305.097728 21.165455 
L 305.097728 21.165455 
L 302.627865 23.779764 
L 300.158002 26.249467 
L 297.688139 28.736652 
L 295.218276 31.141356 
L 292.748413 33.58959 
L 290.27855 35.966089 
L 287.808687 38.342589 
L 285.338824 40.766289 
L 282.868961 43.190116 
L 280.399098 45.607331 
L 277.929235 48.041019 
L 275.459371 50.464559 
L 272.989508 52.890312 
L 270.519645 55.385224 
L 268.049782 58.020378 
L 265.579919 60.66037 
L 263.110056 63.2659 
L 260.640193 65.765763 
L 258.17033 68.156261 
L 255.700467 70.522813 
L 253.230604 72.956245 
L 250.760741 75.271989 
L 248.290878 77.793451 
L 245.821015 80.266582 
L 243.351151 82.593499 
L 240.881288 84.920416 
L 238.411425 87.247332 
L 235.941562 89.707646 
L 233.471699 92.191735 
L 231.001836 94.771716 
L 228.531973 97.165796 
L 226.06211 99.650375 
L 223.592247 102.090855 
L 221.122384 104.453543 
L 218.652521 106.950382 
L 216.182658 109.344524 
L 213.712794 111.733408 
L 211.242931 114.113026 
L 208.773068 116.502384 
L 206.303205 119.074239 
L 203.833342 121.663527 
L 201.363479 123.937537 
L 198.893616 126.423136 
L 196.423753 128.639191 
L 193.95389 130.806152 
L 191.484027 133.187185 
L 189.014164 135.46503 
L 186.544301 137.769161 
L 184.074437 140.339258 
L 181.604574 142.717951 
L 179.134711 145.045465 
L 176.664848 147.370177 
L 174.194985 149.533483 
L 171.725122 151.917933 
L 169.255259 154.33886 
L 166.785396 156.705115 
L 164.315533 159.018017 
L 161.84567 161.258038 
L 159.375807 163.500516 
L 156.905944 165.784317 
L 154.436081 168.12134 
L 151.966217 170.230541 
L 149.496354 172.451584 
L 147.026491 174.706787 
L 144.556628 176.985401 
L 142.086765 179.311728 
L 139.616902 181.407008 
L 137.147039 183.513301 
L 134.677176 185.609399 
L 132.207313 187.789664 
L 129.73745 189.995502 
L 127.267587 192.242518 
L 124.797724 194.490151 
L 122.32786 196.739811 
L 119.857997 198.986098 
L 117.388134 201.216544 
L 114.918271 203.483596 
L 112.448408 205.71369 
L 109.978545 207.77249 
L 107.508682 209.843584 
L 105.038819 212.006995 
L 102.568956 214.181979 
L 100.099093 216.312148 
L 97.62923 218.426261 
L 95.159367 220.567064 
L 92.689503 222.726333 
L 90.21964 224.652081 
L 87.749777 226.689635 
L 85.279914 228.884015 
L 82.810051 231.173449 
L 80.340188 233.243634 
L 77.870325 235.269215 
L 75.400462 237.294476 
L 72.930599 239.468176 
L 70.460736 241.652077 
L 67.990873 243.736851 
L 65.52101 245.812966 
L 63.051146 247.889081 
L 60.581283 249.965195 
z
" clip-path="url(#pef67f948da)" style="fill: #1f77b4; fill-opacity: 0.15"/>
   </g>
   <g id="PathCollection_2">
    <defs>
     <path id="mb3e5fbe75a" d="M 0 3 
C 0.795609 3 1.55874 2.683901 2.12132 2.12132 
C 2.683901 1.55874 3 0.795609 3 0 
C 3 -0.795609 2.683901 -1.55874 2.12132 -2.12132 
C 1.55874 -2.683901 0.795609 -3 0 -3 
C -0.795609 -3 -1.55874 -2.683901 -2.12132 -2.12132 
C -2.683901 -1.55874 -3 -0.795609 -3 0 
C -3 0.795609 -2.683901 1.55874 -2.12132 2.12132 
C -1.55874 2.683901 -0.795609 3 0 3 
z
" style="stroke: #ff7f0e; stroke-opacity: 0.8"/>
    </defs>
    <g clip-path="url(#pef67f948da)">
     <use xlink:href="#mb3e5fbe75a" x="138.271038" y="290.452174" style="fill: #ff7f0e; fill-opacity: 0.8; stroke: #ff7f0e; stroke-opacity: 0.8"/>
     <use xlink:href="#mb3e5fbe75a" x="165.445988" y="249.109891" style="fill: #ff7f0e; fill-opacity: 0.8; stroke: #ff7f0e; stroke-opacity: 0.8"/>
     <use xlink:href="#mb3e5fbe75a" x="192.620939" y="212.778793" style="fill: #ff7f0e; fill-opacity: 0.8; stroke: #ff7f0e; stroke-opacity: 0.8"/>
     <use xlink:href="#mb3e5fbe75a" x="219.77652" y="177.700492" style="fill: #ff7f0e; fill-opacity: 0.8; stroke: #ff7f0e; stroke-opacity: 0.8"/>
     <use xlink:href="#mb3e5fbe75a" x="246.95147" y="146.380581" style="fill: #ff7f0e; fill-opacity: 0.8; stroke: #ff7f0e; stroke-opacity: 0.8"/>
     <use xlink:href="#mb3e5fbe75a" x="274.12642" y="117.566262" style="fill: #ff7f0e; fill-opacity: 0.8; stroke: #ff7f0e; stroke-opacity: 0.8"/>
     <use xlink:href="#mb3e5fbe75a" x="301.282001" y="90.00474" style="fill: #ff7f0e; fill-opacity: 0.8; stroke: #ff7f0e; stroke-opacity: 0.8"/>
     <use xlink:href="#mb3e5fbe75a" x="328.456952" y="64.948811" style="fill: #ff7f0e; fill-opacity: 0.8; stroke: #ff7f0e; stroke-opacity: 0.8"/>
     <use xlink:href="#mb3e5fbe75a" x="165.445988" y="256.626669" style="fill: #ff7f0e; fill-opacity: 0.8; stroke: #ff7f0e; stroke-opacity: 0.8"/>
     <use xlink:href="#mb3e5fbe75a" x="219.77652" y="188.97566" style="fill: #ff7f0e; fill-opacity: 0.8; stroke: #ff7f0e; stroke-opacity: 0.8"/>
     <use xlink:href="#mb3e5fbe75a" x="138.271038" y="300.474545" style="fill: #ff7f0e; fill-opacity: 0.8; stroke: #ff7f0e; stroke-opacity: 0.8"/>
     <use xlink:href="#mb3e5fbe75a" x="192.620939" y="235.329129" style="fill: #ff7f0e; fill-opacity: 0.8; stroke: #ff7f0e; stroke-opacity: 0.8"/>
    </g>
   </g>
   <g id="FillBetweenPolyCollection_2">
    <path d="M 138.271038 280.726466 
L 138.271038 297.472815 
L 140.192108 294.844537 
L 142.113178 292.24756 
L 144.034247 289.763963 
L 145.955317 287.162235 
L 147.876387 284.666646 
L 149.797457 282.07749 
L 151.718527 279.574853 
L 153.639597 277.043062 
L 155.560666 274.454436 
L 157.481736 272.026766 
L 159.402806 269.532438 
L 161.323876 267.07224 
L 163.244946 264.624563 
L 165.166016 262.179543 
L 167.087085 259.717097 
L 169.008155 257.285403 
L 170.929225 254.683908 
L 172.850295 252.209826 
L 174.771365 249.693249 
L 176.692435 247.271096 
L 178.613504 244.858025 
L 180.534574 242.346831 
L 182.455644 240.017839 
L 184.376714 237.453799 
L 186.297784 235.094106 
L 188.218854 232.671673 
L 190.139923 230.188326 
L 192.060993 227.711875 
L 193.982063 225.312874 
L 195.903133 222.90579 
L 197.824203 220.482547 
L 199.745273 218.079307 
L 201.666342 215.681743 
L 203.587412 213.28418 
L 205.508482 210.85972 
L 207.429552 208.485634 
L 209.350622 206.08405 
L 211.271692 203.645559 
L 213.192761 201.211681 
L 215.113831 198.860738 
L 217.034901 196.359964 
L 218.955971 194.04548 
L 220.877041 191.654773 
L 222.798111 189.259413 
L 224.719181 186.859835 
L 226.64025 184.495425 
L 228.56132 182.065139 
L 230.48239 179.692239 
L 232.40346 177.324227 
L 234.32453 174.948916 
L 236.2456 172.655806 
L 238.166669 170.32361 
L 240.087739 167.966284 
L 242.008809 165.601009 
L 243.929879 163.262304 
L 245.850949 160.925869 
L 247.772019 158.589434 
L 249.693088 156.252898 
L 251.614158 153.955993 
L 253.535228 151.643408 
L 255.456298 149.267732 
L 257.377368 146.904302 
L 259.298438 144.567152 
L 261.219507 142.240872 
L 263.140577 139.932691 
L 265.061647 137.609082 
L 266.982717 135.265132 
L 268.903787 132.920427 
L 270.824857 130.577453 
L 272.745926 128.258834 
L 274.666996 126.013025 
L 276.588066 123.673911 
L 278.509136 121.340225 
L 280.430206 119.000497 
L 282.351276 116.630558 
L 284.272345 114.318696 
L 286.193415 112.058428 
L 288.114485 109.74477 
L 290.035555 107.44638 
L 291.956625 105.143404 
L 293.877695 102.862016 
L 295.798764 100.538911 
L 297.719834 98.255183 
L 299.640904 95.982843 
L 301.561974 93.678134 
L 303.483044 91.371581 
L 305.404114 89.041182 
L 307.325183 86.762219 
L 309.246253 84.456611 
L 311.167323 82.151002 
L 313.088393 79.865034 
L 315.009463 77.587976 
L 316.930533 75.359366 
L 318.851602 73.061999 
L 320.772672 70.808421 
L 322.693742 68.510805 
L 324.614812 66.208511 
L 326.535882 63.853048 
L 328.456952 61.598874 
L 328.456952 37.656754 
L 328.456952 37.656754 
L 326.535882 40.25296 
L 324.614812 42.918667 
L 322.693742 45.591957 
L 320.772672 48.227596 
L 318.851602 50.780964 
L 316.930533 53.334706 
L 315.009463 55.922684 
L 313.088393 58.554897 
L 311.167323 61.188857 
L 309.246253 63.822928 
L 307.325183 66.4534 
L 305.404114 69.040838 
L 303.483044 71.628276 
L 301.561974 74.215714 
L 299.640904 76.816476 
L 297.719834 79.4415 
L 295.798764 82.066525 
L 293.877695 84.663227 
L 291.956625 87.209334 
L 290.035555 89.80358 
L 288.114485 92.374443 
L 286.193415 94.920202 
L 284.272345 97.493664 
L 282.351276 100.07907 
L 280.430206 102.664476 
L 278.509136 105.236222 
L 276.588066 107.778845 
L 274.666996 110.321467 
L 272.745926 112.933298 
L 270.824857 115.481729 
L 268.903787 118.024405 
L 266.982717 120.567081 
L 265.061647 123.110022 
L 263.140577 125.700352 
L 261.219507 128.335923 
L 259.298438 130.971985 
L 257.377368 133.517628 
L 255.456298 136.059472 
L 253.535228 138.705735 
L 251.614158 141.161304 
L 249.693088 143.60461 
L 247.772019 146.261133 
L 245.850949 148.812973 
L 243.929879 151.319408 
L 242.008809 153.949865 
L 240.087739 156.583987 
L 238.166669 159.185693 
L 236.2456 161.698792 
L 234.32453 164.200126 
L 232.40346 166.795174 
L 230.48239 169.363384 
L 228.56132 171.834595 
L 226.64025 174.314024 
L 224.719181 176.734092 
L 222.798111 179.183096 
L 220.877041 181.627798 
L 218.955971 184.047417 
L 217.034901 186.529353 
L 215.113831 188.995644 
L 213.192761 191.368613 
L 211.271692 193.869405 
L 209.350622 196.337152 
L 207.429552 198.703689 
L 205.508482 200.983307 
L 203.587412 203.402822 
L 201.666342 205.822338 
L 199.745273 208.198137 
L 197.824203 210.621133 
L 195.903133 213.029994 
L 193.982063 215.364207 
L 192.060993 217.750117 
L 190.139923 220.054181 
L 188.218854 222.359757 
L 186.297784 224.663669 
L 184.376714 226.908179 
L 182.455644 229.103573 
L 180.534574 231.331026 
L 178.613504 233.566584 
L 176.692435 235.820569 
L 174.771365 238.083745 
L 172.850295 240.293617 
L 170.929225 242.508032 
L 169.008155 244.750514 
L 167.087085 246.978521 
L 165.166016 249.258446 
L 163.244946 251.563059 
L 161.323876 253.867726 
L 159.402806 256.113367 
L 157.481736 258.347134 
L 155.560666 260.580901 
L 153.639597 262.814669 
L 151.718527 265.060243 
L 149.797457 267.341142 
L 147.876387 269.61539 
L 145.955317 271.859468 
L 144.034247 274.10149 
L 142.113178 276.342437 
L 140.192108 278.535478 
L 138.271038 280.726466 
z
" clip-path="url(#pef67f948da)" style="fill: #ff7f0e; fill-opacity: 0.15"/>
   </g>
   <g id="matplotlib.axis_1">
    <g id="xtick_1">
     <g id="line2d_1">
      <defs>
       <path id="m4066f6c657" d="M 0 0 
L 0 3.5 
" style="stroke: #000000; stroke-width: 0.8"/>
      </defs>
      <g>
       <use xlink:href="#m4066f6c657" x="75.999145" y="314.44" style="stroke: #000000; stroke-width: 0.8"/>
      </g>
     </g>
     <g id="text_1">
      <!-- 40 -->
      <g transform="translate(69.636645 329.038437) scale(0.1 -0.1)">
       <defs>
        <path id="DejaVuSans-34" d="M 2419 4116 
L 825 1625 
L 2419 1625 
L 2419 4116 
z
M 2253 4666 
L 3047 4666 
L 3047 1625 
L 3713 1625 
L 3713 1100 
L 3047 1100 
L 3047 0 
L 2419 0 
L 2419 1100 
L 313 1100 
L 313 1709 
L 2253 4666 
z
" transform="scale(0.015625)"/>
        <path id="DejaVuSans-30" d="M 2034 4250 
Q 1547 4250 1301 3770 
Q 1056 3291 1056 2328 
Q 1056 1369 1301 889 
Q 1547 409 2034 409 
Q 2525 409 2770 889 
Q 3016 1369 3016 2328 
Q 3016 3291 2770 3770 
Q 2525 4250 2034 4250 
z
M 2034 4750 
Q 2819 4750 3233 4129 
Q 3647 3509 3647 2328 
Q 3647 1150 3233 529 
Q 2819 -91 2034 -91 
Q 1250 -91 836 529 
Q 422 1150 422 2328 
Q 422 3509 836 4129 
Q 1250 4750 2034 4750 
z
" transform="scale(0.015625)"/>
       </defs>
       <use xlink:href="#DejaVuSans-34"/>
       <use xlink:href="#DejaVuSans-30" transform="translate(63.623047 0)"/>
      </g>
     </g>
    </g>
    <g id="xtick_2">
     <g id="line2d_2">
      <g>
       <use xlink:href="#m4066f6c657" x="114.737492" y="314.44" style="stroke: #000000; stroke-width: 0.8"/>
      </g>
     </g>
     <g id="text_2">
      <!-- 60 -->
      <g transform="translate(108.374992 329.038437) scale(0.1 -0.1)">
       <defs>
        <path id="DejaVuSans-36" d="M 2113 2584 
Q 1688 2584 1439 2293 
Q 1191 2003 1191 1497 
Q 1191 994 1439 701 
Q 1688 409 2113 409 
Q 2538 409 2786 701 
Q 3034 994 3034 1497 
Q 3034 2003 2786 2293 
Q 2538 2584 2113 2584 
z
M 3366 4563 
L 3366 3988 
Q 3128 4100 2886 4159 
Q 2644 4219 2406 4219 
Q 1781 4219 1451 3797 
Q 1122 3375 1075 2522 
Q 1259 2794 1537 2939 
Q 1816 3084 2150 3084 
Q 2853 3084 3261 2657 
Q 3669 2231 3669 1497 
Q 3669 778 3244 343 
Q 2819 -91 2113 -91 
Q 1303 -91 875 529 
Q 447 1150 447 2328 
Q 447 3434 972 4092 
Q 1497 4750 2381 4750 
Q 2619 4750 2861 4703 
Q 3103 4656 3366 4563 
z
" transform="scale(0.015625)"/>
       </defs>
       <use xlink:href="#DejaVuSans-36"/>
       <use xlink:href="#DejaVuSans-30" transform="translate(63.623047 0)"/>
      </g>
     </g>
    </g>
    <g id="xtick_3">
     <g id="line2d_3">
      <g>
       <use xlink:href="#m4066f6c657" x="153.475839" y="314.44" style="stroke: #000000; stroke-width: 0.8"/>
      </g>
     </g>
     <g id="text_3">
      <!-- 80 -->
      <g transform="translate(147.113339 329.038437) scale(0.1 -0.1)">
       <defs>
        <path id="DejaVuSans-38" d="M 2034 2216 
Q 1584 2216 1326 1975 
Q 1069 1734 1069 1313 
Q 1069 891 1326 650 
Q 1584 409 2034 409 
Q 2484 409 2743 651 
Q 3003 894 3003 1313 
Q 3003 1734 2745 1975 
Q 2488 2216 2034 2216 
z
M 1403 2484 
Q 997 2584 770 2862 
Q 544 3141 544 3541 
Q 544 4100 942 4425 
Q 1341 4750 2034 4750 
Q 2731 4750 3128 4425 
Q 3525 4100 3525 3541 
Q 3525 3141 3298 2862 
Q 3072 2584 2669 2484 
Q 3125 2378 3379 2068 
Q 3634 1759 3634 1313 
Q 3634 634 3220 271 
Q 2806 -91 2034 -91 
Q 1263 -91 848 271 
Q 434 634 434 1313 
Q 434 1759 690 2068 
Q 947 2378 1403 2484 
z
M 1172 3481 
Q 1172 3119 1398 2916 
Q 1625 2713 2034 2713 
Q 2441 2713 2670 2916 
Q 2900 3119 2900 3481 
Q 2900 3844 2670 4047 
Q 2441 4250 2034 4250 
Q 1625 4250 1398 4047 
Q 1172 3844 1172 3481 
z
" transform="scale(0.015625)"/>
       </defs>
       <use xlink:href="#DejaVuSans-38"/>
       <use xlink:href="#DejaVuSans-30" transform="translate(63.623047 0)"/>
      </g>
     </g>
    </g>
    <g id="xtick_4">
     <g id="line2d_4">
      <g>
       <use xlink:href="#m4066f6c657" x="192.214186" y="314.44" style="stroke: #000000; stroke-width: 0.8"/>
      </g>
     </g>
     <g id="text_4">
      <!-- 100 -->
      <g transform="translate(182.670436 329.038437) scale(0.1 -0.1)">
       <defs>
        <path id="DejaVuSans-31" d="M 794 531 
L 1825 531 
L 1825 4091 
L 703 3866 
L 703 4441 
L 1819 4666 
L 2450 4666 
L 2450 531 
L 3481 531 
L 3481 0 
L 794 0 
L 794 531 
z
" transform="scale(0.015625)"/>
       </defs>
       <use xlink:href="#DejaVuSans-31"/>
       <use xlink:href="#DejaVuSans-30" transform="translate(63.623047 0)"/>
       <use xlink:href="#DejaVuSans-30" transform="translate(127.246094 0)"/>
      </g>
     </g>
    </g>
    <g id="xtick_5">
     <g id="line2d_5">
      <g>
       <use xlink:href="#m4066f6c657" x="230.952533" y="314.44" style="stroke: #000000; stroke-width: 0.8"/>
      </g>
     </g>
     <g id="text_5">
      <!-- 120 -->
      <g transform="translate(221.408783 329.038437) scale(0.1 -0.1)">
       <defs>
        <path id="DejaVuSans-32" d="M 1228 531 
L 3431 531 
L 3431 0 
L 469 0 
L 469 531 
Q 828 903 1448 1529 
Q 2069 2156 2228 2338 
Q 2531 2678 2651 2914 
Q 2772 3150 2772 3378 
Q 2772 3750 2511 3984 
Q 2250 4219 1831 4219 
Q 1534 4219 1204 4116 
Q 875 4013 500 3803 
L 500 4441 
Q 881 4594 1212 4672 
Q 1544 4750 1819 4750 
Q 2544 4750 2975 4387 
Q 3406 4025 3406 3419 
Q 3406 3131 3298 2873 
Q 3191 2616 2906 2266 
Q 2828 2175 2409 1742 
Q 1991 1309 1228 531 
z
" transform="scale(0.015625)"/>
       </defs>
       <use xlink:href="#DejaVuSans-31"/>
       <use xlink:href="#DejaVuSans-32" transform="translate(63.623047 0)"/>
       <use xlink:href="#DejaVuSans-30" transform="translate(127.246094 0)"/>
      </g>
     </g>
    </g>
    <g id="xtick_6">
     <g id="line2d_6">
      <g>
       <use xlink:href="#m4066f6c657" x="269.690879" y="314.44" style="stroke: #000000; stroke-width: 0.8"/>
      </g>
     </g>
     <g id="text_6">
      <!-- 140 -->
      <g transform="translate(260.147129 329.038437) scale(0.1 -0.1)">
       <use xlink:href="#DejaVuSans-31"/>
       <use xlink:href="#DejaVuSans-34" transform="translate(63.623047 0)"/>
       <use xlink:href="#DejaVuSans-30" transform="translate(127.246094 0)"/>
      </g>
     </g>
    </g>
    <g id="xtick_7">
     <g id="line2d_7">
      <g>
       <use xlink:href="#m4066f6c657" x="308.429226" y="314.44" style="stroke: #000000; stroke-width: 0.8"/>
      </g>
     </g>
     <g id="text_7">
      <!-- 160 -->
      <g transform="translate(298.885476 329.038437) scale(0.1 -0.1)">
       <use xlink:href="#DejaVuSans-31"/>
       <use xlink:href="#DejaVuSans-36" transform="translate(63.623047 0)"/>
       <use xlink:href="#DejaVuSans-30" transform="translate(127.246094 0)"/>
      </g>
     </g>
    </g>
    <g id="text_8">
     <!-- MW, g/mol -->
     <g transform="translate(167.905836 342.716562) scale(0.1 -0.1)">
      <defs>
       <path id="DejaVuSans-4d" d="M 628 4666 
L 1569 4666 
L 2759 1491 
L 3956 4666 
L 4897 4666 
L 4897 0 
L 4281 0 
L 4281 4097 
L 3078 897 
L 2444 897 
L 1241 4097 
L 1241 0 
L 628 0 
L 628 4666 
z
" transform="scale(0.015625)"/>
       <path id="DejaVuSans-57" d="M 213 4666 
L 850 4666 
L 1831 722 
L 2809 4666 
L 3519 4666 
L 4500 722 
L 5478 4666 
L 6119 4666 
L 4947 0 
L 4153 0 
L 3169 4050 
L 2175 0 
L 1381 0 
L 213 4666 
z
" transform="scale(0.015625)"/>
       <path id="DejaVuSans-2c" d="M 750 794 
L 1409 794 
L 1409 256 
L 897 -744 
L 494 -744 
L 750 256 
L 750 794 
z
" transform="scale(0.015625)"/>
       <path id="DejaVuSans-20" transform="scale(0.015625)"/>
       <path id="DejaVuSans-67" d="M 2906 1791 
Q 2906 2416 2648 2759 
Q 2391 3103 1925 3103 
Q 1463 3103 1205 2759 
Q 947 2416 947 1791 
Q 947 1169 1205 825 
Q 1463 481 1925 481 
Q 2391 481 2648 825 
Q 2906 1169 2906 1791 
z
M 3481 434 
Q 3481 -459 3084 -895 
Q 2688 -1331 1869 -1331 
Q 1566 -1331 1297 -1286 
Q 1028 -1241 775 -1147 
L 775 -588 
Q 1028 -725 1275 -790 
Q 1522 -856 1778 -856 
Q 2344 -856 2625 -561 
Q 2906 -266 2906 331 
L 2906 616 
Q 2728 306 2450 153 
Q 2172 0 1784 0 
Q 1141 0 747 490 
Q 353 981 353 1791 
Q 353 2603 747 3093 
Q 1141 3584 1784 3584 
Q 2172 3584 2450 3431 
Q 2728 3278 2906 2969 
L 2906 3500 
L 3481 3500 
L 3481 434 
z
" transform="scale(0.015625)"/>
       <path id="DejaVuSans-2f" d="M 1625 4666 
L 2156 4666 
L 531 -594 
L 0 -594 
L 1625 4666 
z
" transform="scale(0.015625)"/>
       <path id="DejaVuSans-6d" d="M 3328 2828 
Q 3544 3216 3844 3400 
Q 4144 3584 4550 3584 
Q 5097 3584 5394 3201 
Q 5691 2819 5691 2113 
L 5691 0 
L 5113 0 
L 5113 2094 
Q 5113 2597 4934 2840 
Q 4756 3084 4391 3084 
Q 3944 3084 3684 2787 
Q 3425 2491 3425 1978 
L 3425 0 
L 2847 0 
L 2847 2094 
Q 2847 2600 2669 2842 
Q 2491 3084 2119 3084 
Q 1678 3084 1418 2786 
Q 1159 2488 1159 1978 
L 1159 0 
L 581 0 
L 581 3500 
L 1159 3500 
L 1159 2956 
Q 1356 3278 1631 3431 
Q 1906 3584 2284 3584 
Q 2666 3584 2933 3390 
Q 3200 3197 3328 2828 
z
" transform="scale(0.015625)"/>
       <path id="DejaVuSans-6f" d="M 1959 3097 
Q 1497 3097 1228 2736 
Q 959 2375 959 1747 
Q 959 1119 1226 758 
Q 1494 397 1959 397 
Q 2419 397 2687 759 
Q 2956 1122 2956 1747 
Q 2956 2369 2687 2733 
Q 2419 3097 1959 3097 
z
M 1959 3584 
Q 2709 3584 3137 3096 
Q 3566 2609 3566 1747 
Q 3566 888 3137 398 
Q 2709 -91 1959 -91 
Q 1206 -91 779 398 
Q 353 888 353 1747 
Q 353 2609 779 3096 
Q 1206 3584 1959 3584 
z
" transform="scale(0.015625)"/>
       <path id="DejaVuSans-6c" d="M 603 4863 
L 1178 4863 
L 1178 0 
L 603 0 
L 603 4863 
z
" transform="scale(0.015625)"/>
      </defs>
      <use xlink:href="#DejaVuSans-4d"/>
      <use xlink:href="#DejaVuSans-57" transform="translate(86.279297 0)"/>
      <use xlink:href="#DejaVuSans-2c" transform="translate(185.15625 0)"/>
      <use xlink:href="#DejaVuSans-20" transform="translate(216.943359 0)"/>
      <use xlink:href="#DejaVuSans-67" transform="translate(248.730469 0)"/>
      <use xlink:href="#DejaVuSans-2f" transform="translate(312.207031 0)"/>
      <use xlink:href="#DejaVuSans-6d" transform="translate(345.898438 0)"/>
      <use xlink:href="#DejaVuSans-6f" transform="translate(443.310547 0)"/>
      <use xlink:href="#DejaVuSans-6c" transform="translate(504.492188 0)"/>
     </g>
    </g>
   </g>
   <g id="matplotlib.axis_2">
    <g id="ytick_1">
     <g id="line2d_8">
      <defs>
       <path id="m09a48dd95c" d="M 0 0 
L -3.5 0 
" style="stroke: #000000; stroke-width: 0.8"/>
      </defs>
      <g>
       <use xlink:href="#m09a48dd95c" x="47.1875" y="272.913023" style="stroke: #000000; stroke-width: 0.8"/>
      </g>
     </g>
     <g id="text_9">
      <!-- 50 -->
      <g transform="translate(27.4625 276.712242) scale(0.1 -0.1)">
       <defs>
        <path id="DejaVuSans-35" d="M 691 4666 
L 3169 4666 
L 3169 4134 
L 1269 4134 
L 1269 2991 
Q 1406 3038 1543 3061 
Q 1681 3084 1819 3084 
Q 2600 3084 3056 2656 
Q 3513 2228 3513 1497 
Q 3513 744 3044 326 
Q 2575 -91 1722 -91 
Q 1428 -91 1123 -41 
Q 819 9 494 109 
L 494 744 
Q 775 591 1075 516 
Q 1375 441 1709 441 
Q 2250 441 2565 725 
Q 2881 1009 2881 1497 
Q 2881 1984 2565 2268 
Q 2250 2553 1709 2553 
Q 1456 2553 1204 2497 
Q 953 2441 691 2322 
L 691 4666 
z
" transform="scale(0.015625)"/>
       </defs>
       <use xlink:href="#DejaVuSans-35"/>
       <use xlink:href="#DejaVuSans-30" transform="translate(63.623047 0)"/>
      </g>
     </g>
    </g>
    <g id="ytick_2">
     <g id="line2d_9">
      <g>
       <use xlink:href="#m09a48dd95c" x="47.1875" y="210.2732" style="stroke: #000000; stroke-width: 0.8"/>
      </g>
     </g>
     <g id="text_10">
      <!-- 100 -->
      <g transform="translate(21.1 214.072419) scale(0.1 -0.1)">
       <use xlink:href="#DejaVuSans-31"/>
       <use xlink:href="#DejaVuSans-30" transform="translate(63.623047 0)"/>
       <use xlink:href="#DejaVuSans-30" transform="translate(127.246094 0)"/>
      </g>
     </g>
    </g>
    <g id="ytick_3">
     <g id="line2d_10">
      <g>
       <use xlink:href="#m09a48dd95c" x="47.1875" y="147.633377" style="stroke: #000000; stroke-width: 0.8"/>
      </g>
     </g>
     <g id="text_11">
      <!-- 150 -->
      <g transform="translate(21.1 151.432596) scale(0.1 -0.1)">
       <use xlink:href="#DejaVuSans-31"/>
       <use xlink:href="#DejaVuSans-35" transform="translate(63.623047 0)"/>
       <use xlink:href="#DejaVuSans-30" transform="translate(127.246094 0)"/>
      </g>
     </g>
    </g>
    <g id="ytick_4">
     <g id="line2d_11">
      <g>
       <use xlink:href="#m09a48dd95c" x="47.1875" y="84.993554" style="stroke: #000000; stroke-width: 0.8"/>
      </g>
     </g>
     <g id="text_12">
      <!-- 200 -->
      <g transform="translate(21.1 88.792773) scale(0.1 -0.1)">
       <use xlink:href="#DejaVuSans-32"/>
       <use xlink:href="#DejaVuSans-30" transform="translate(63.623047 0)"/>
       <use xlink:href="#DejaVuSans-30" transform="translate(127.246094 0)"/>
      </g>
     </g>
    </g>
    <g id="ytick_5">
     <g id="line2d_12">
      <g>
       <use xlink:href="#m09a48dd95c" x="47.1875" y="22.353731" style="stroke: #000000; stroke-width: 0.8"/>
      </g>
     </g>
     <g id="text_13">
      <!-- 250 -->
      <g transform="translate(21.1 26.15295) scale(0.1 -0.1)">
       <use xlink:href="#DejaVuSans-32"/>
       <use xlink:href="#DejaVuSans-35" transform="translate(63.623047 0)"/>
       <use xlink:href="#DejaVuSans-30" transform="translate(127.246094 0)"/>
      </g>
     </g>
    </g>
    <g id="text_14">
     <!-- bp, $^o$C -->
     <g transform="translate(15 176.17) rotate(-90) scale(0.1 -0.1)">
      <defs>
       <path id="DejaVuSans-62" d="M 3116 1747 
Q 3116 2381 2855 2742 
Q 2594 3103 2138 3103 
Q 1681 3103 1420 2742 
Q 1159 2381 1159 1747 
Q 1159 1113 1420 752 
Q 1681 391 2138 391 
Q 2594 391 2855 752 
Q 3116 1113 3116 1747 
z
M 1159 2969 
Q 1341 3281 1617 3432 
Q 1894 3584 2278 3584 
Q 2916 3584 3314 3078 
Q 3713 2572 3713 1747 
Q 3713 922 3314 415 
Q 2916 -91 2278 -91 
Q 1894 -91 1617 61 
Q 1341 213 1159 525 
L 1159 0 
L 581 0 
L 581 4863 
L 1159 4863 
L 1159 2969 
z
" transform="scale(0.015625)"/>
       <path id="DejaVuSans-70" d="M 1159 525 
L 1159 -1331 
L 581 -1331 
L 581 3500 
L 1159 3500 
L 1159 2969 
Q 1341 3281 1617 3432 
Q 1894 3584 2278 3584 
Q 2916 3584 3314 3078 
Q 3713 2572 3713 1747 
Q 3713 922 3314 415 
Q 2916 -91 2278 -91 
Q 1894 -91 1617 61 
Q 1341 213 1159 525 
z
M 3116 1747 
Q 3116 2381 2855 2742 
Q 2594 3103 2138 3103 
Q 1681 3103 1420 2742 
Q 1159 2381 1159 1747 
Q 1159 1113 1420 752 
Q 1681 391 2138 391 
Q 2594 391 2855 752 
Q 3116 1113 3116 1747 
z
" transform="scale(0.015625)"/>
       <path id="DejaVuSans-Oblique-6f" d="M 1625 -91 
Q 1009 -91 651 289 
Q 294 669 294 1325 
Q 294 1706 417 2101 
Q 541 2497 738 2766 
Q 1047 3184 1428 3384 
Q 1809 3584 2291 3584 
Q 2888 3584 3255 3212 
Q 3622 2841 3622 2241 
Q 3622 1825 3500 1412 
Q 3378 1000 3181 728 
Q 2875 309 2494 109 
Q 2113 -91 1625 -91 
z
M 891 1344 
Q 891 869 1089 633 
Q 1288 397 1691 397 
Q 2269 397 2648 901 
Q 3028 1406 3028 2181 
Q 3028 2634 2825 2865 
Q 2622 3097 2228 3097 
Q 1903 3097 1650 2945 
Q 1397 2794 1197 2484 
Q 1050 2253 970 1956 
Q 891 1659 891 1344 
z
" transform="scale(0.015625)"/>
       <path id="DejaVuSans-43" d="M 4122 4306 
L 4122 3641 
Q 3803 3938 3442 4084 
Q 3081 4231 2675 4231 
Q 1875 4231 1450 3742 
Q 1025 3253 1025 2328 
Q 1025 1406 1450 917 
Q 1875 428 2675 428 
Q 3081 428 3442 575 
Q 3803 722 4122 1019 
L 4122 359 
Q 3791 134 3420 21 
Q 3050 -91 2638 -91 
Q 1578 -91 968 557 
Q 359 1206 359 2328 
Q 359 3453 968 4101 
Q 1578 4750 2638 4750 
Q 3056 4750 3426 4639 
Q 3797 4528 4122 4306 
z
" transform="scale(0.015625)"/>
      </defs>
      <use xlink:href="#DejaVuSans-62" transform="translate(0 0.51875)"/>
      <use xlink:href="#DejaVuSans-70" transform="translate(63.476562 0.51875)"/>
      <use xlink:href="#DejaVuSans-2c" transform="translate(126.953125 0.51875)"/>
      <use xlink:href="#DejaVuSans-20" transform="translate(158.740234 0.51875)"/>
      <use xlink:href="#DejaVuSans-Oblique-6f" transform="translate(191.484375 38.8) scale(0.7)"/>
      <use xlink:href="#DejaVuSans-43" transform="translate(237.045898 0.51875)"/>
     </g>
    </g>
   </g>
   <g id="line2d_13">
    <path d="M 60.581283 264.757872 
L 63.051146 262.4961 
L 65.52101 260.234328 
L 67.990873 257.972555 
L 70.460736 255.710783 
L 72.930599 253.44901 
L 75.400462 251.187238 
L 77.870325 248.925466 
L 80.340188 246.663693 
L 82.810051 244.401921 
L 85.279914 242.140149 
L 87.749777 239.878376 
L 90.21964 237.616604 
L 92.689503 235.354831 
L 95.159367 233.093059 
L 97.62923 230.831287 
L 100.099093 228.569514 
L 102.568956 226.307742 
L 105.038819 224.045969 
L 107.508682 221.784197 
L 109.978545 219.522425 
L 112.448408 217.260652 
L 114.918271 214.99888 
L 117.388134 212.737107 
L 119.857997 210.475335 
L 122.32786 208.213563 
L 124.797724 205.95179 
L 127.267587 203.690018 
L 129.73745 201.428246 
L 132.207313 199.166473 
L 134.677176 196.904701 
L 137.147039 194.642928 
L 139.616902 192.381156 
L 142.086765 190.119384 
L 144.556628 187.857611 
L 147.026491 185.595839 
L 149.496354 183.334066 
L 151.966217 181.072294 
L 154.436081 178.810522 
L 156.905944 176.548749 
L 159.375807 174.286977 
L 161.84567 172.025205 
L 164.315533 169.763432 
L 166.785396 167.50166 
L 169.255259 165.239887 
L 171.725122 162.978115 
L 174.194985 160.716343 
L 176.664848 158.45457 
L 179.134711 156.192798 
L 181.604574 153.931025 
L 184.074437 151.669253 
L 186.544301 149.407481 
L 189.014164 147.145708 
L 191.484027 144.883936 
L 193.95389 142.622164 
L 196.423753 140.360391 
L 198.893616 138.098619 
L 201.363479 135.836846 
L 203.833342 133.575074 
L 206.303205 131.313302 
L 208.773068 129.051529 
L 211.242931 126.789757 
L 213.712794 124.527984 
L 216.182658 122.266212 
L 218.652521 120.00444 
L 221.122384 117.742667 
L 223.592247 115.480895 
L 226.06211 113.219122 
L 228.531973 110.95735 
L 231.001836 108.695578 
L 233.471699 106.433805 
L 235.941562 104.172033 
L 238.411425 101.910261 
L 240.881288 99.648488 
L 243.351151 97.386716 
L 245.821015 95.124943 
L 248.290878 92.863171 
L 250.760741 90.601399 
L 253.230604 88.339626 
L 255.700467 86.077854 
L 258.17033 83.816081 
L 260.640193 81.554309 
L 263.110056 79.292537 
L 265.579919 77.030764 
L 268.049782 74.768992 
L 270.519645 72.50722 
L 272.989508 70.245447 
L 275.459371 67.983675 
L 277.929235 65.721902 
L 280.399098 63.46013 
L 282.868961 61.198358 
L 285.338824 58.936585 
L 287.808687 56.674813 
L 290.27855 54.41304 
L 292.748413 52.151268 
L 295.218276 49.889496 
L 297.688139 47.627723 
L 300.158002 45.365951 
L 302.627865 43.104178 
L 305.097728 40.842406 
" clip-path="url(#pef67f948da)" style="fill: none; stroke: #1f77b4; stroke-width: 2.25; stroke-linecap: square"/>
   </g>
   <g id="line2d_14">
    <path d="M 138.271038 289.157948 
L 140.192108 286.788208 
L 142.113178 284.418467 
L 144.034247 282.048727 
L 145.955317 279.678986 
L 147.876387 277.309246 
L 149.797457 274.939505 
L 151.718527 272.569764 
L 153.639597 270.200024 
L 155.560666 267.830283 
L 157.481736 265.460543 
L 159.402806 263.090802 
L 161.323876 260.721062 
L 163.244946 258.351321 
L 165.166016 255.981581 
L 167.087085 253.61184 
L 169.008155 251.242099 
L 170.929225 248.872359 
L 172.850295 246.502618 
L 174.771365 244.132878 
L 176.692435 241.763137 
L 178.613504 239.393397 
L 180.534574 237.023656 
L 182.455644 234.653916 
L 184.376714 232.284175 
L 186.297784 229.914434 
L 188.218854 227.544694 
L 190.139923 225.174953 
L 192.060993 222.805213 
L 193.982063 220.435472 
L 195.903133 218.065732 
L 197.824203 215.695991 
L 199.745273 213.326251 
L 201.666342 210.95651 
L 203.587412 208.586769 
L 205.508482 206.217029 
L 207.429552 203.847288 
L 209.350622 201.477548 
L 211.271692 199.107807 
L 213.192761 196.738067 
L 215.113831 194.368326 
L 217.034901 191.998586 
L 218.955971 189.628845 
L 220.877041 187.259104 
L 222.798111 184.889364 
L 224.719181 182.519623 
L 226.64025 180.149883 
L 228.56132 177.780142 
L 230.48239 175.410402 
L 232.40346 173.040661 
L 234.32453 170.670921 
L 236.2456 168.30118 
L 238.166669 165.931439 
L 240.087739 163.561699 
L 242.008809 161.191958 
L 243.929879 158.822218 
L 245.850949 156.452477 
L 247.772019 154.082737 
L 249.693088 151.712996 
L 251.614158 149.343256 
L 253.535228 146.973515 
L 255.456298 144.603774 
L 257.377368 142.234034 
L 259.298438 139.864293 
L 261.219507 137.494553 
L 263.140577 135.124812 
L 265.061647 132.755072 
L 266.982717 130.385331 
L 268.903787 128.01559 
L 270.824857 125.64585 
L 272.745926 123.276109 
L 274.666996 120.906369 
L 276.588066 118.536628 
L 278.509136 116.166888 
L 280.430206 113.797147 
L 282.351276 111.427407 
L 284.272345 109.057666 
L 286.193415 106.687925 
L 288.114485 104.318185 
L 290.035555 101.948444 
L 291.956625 99.578704 
L 293.877695 97.208963 
L 295.798764 94.839223 
L 297.719834 92.469482 
L 299.640904 90.099742 
L 301.561974 87.730001 
L 303.483044 85.36026 
L 305.404114 82.99052 
L 307.325183 80.620779 
L 309.246253 78.251039 
L 311.167323 75.881298 
L 313.088393 73.511558 
L 315.009463 71.141817 
L 316.930533 68.772077 
L 318.851602 66.402336 
L 320.772672 64.032595 
L 322.693742 61.662855 
L 324.614812 59.293114 
L 326.535882 56.923374 
L 328.456952 54.553633 
" clip-path="url(#pef67f948da)" style="fill: none; stroke: #ff7f0e; stroke-width: 2.25; stroke-linecap: square"/>
   </g>
   <g id="patch_3">
    <path d="M 47.1875 314.44 
L 47.1875 7.2 
" style="fill: none; stroke: #000000; stroke-width: 0.8; stroke-linejoin: miter; stroke-linecap: square"/>
   </g>
   <g id="patch_4">
    <path d="M 47.1875 314.44 
L 341.850735 314.44 
" style="fill: none; stroke: #000000; stroke-width: 0.8; stroke-linejoin: miter; stroke-linecap: square"/>
   </g>
  </g>
  <g id="legend_1">
   <g id="text_15">
    <!-- type -->
    <g transform="translate(368.139716 164.079375) scale(0.1 -0.1)">
     <defs>
      <path id="DejaVuSans-74" d="M 1172 4494 
L 1172 3500 
L 2356 3500 
L 2356 3053 
L 1172 3053 
L 1172 1153 
Q 1172 725 1289 603 
Q 1406 481 1766 481 
L 2356 481 
L 2356 0 
L 1766 0 
Q 1100 0 847 248 
Q 594 497 594 1153 
L 594 3053 
L 172 3053 
L 172 3500 
L 594 3500 
L 594 4494 
L 1172 4494 
z
" transform="scale(0.015625)"/>
      <path id="DejaVuSans-79" d="M 2059 -325 
Q 1816 -950 1584 -1140 
Q 1353 -1331 966 -1331 
L 506 -1331 
L 506 -850 
L 844 -850 
Q 1081 -850 1212 -737 
Q 1344 -625 1503 -206 
L 1606 56 
L 191 3500 
L 800 3500 
L 1894 763 
L 2988 3500 
L 3597 3500 
L 2059 -325 
z
" transform="scale(0.015625)"/>
      <path id="DejaVuSans-65" d="M 3597 1894 
L 3597 1613 
L 953 1613 
Q 991 1019 1311 708 
Q 1631 397 2203 397 
Q 2534 397 2845 478 
Q 3156 559 3463 722 
L 3463 178 
Q 3153 47 2828 -22 
Q 2503 -91 2169 -91 
Q 1331 -91 842 396 
Q 353 884 353 1716 
Q 353 2575 817 3079 
Q 1281 3584 2069 3584 
Q 2775 3584 3186 3129 
Q 3597 2675 3597 1894 
z
M 3022 2063 
Q 3016 2534 2758 2815 
Q 2500 3097 2075 3097 
Q 1594 3097 1305 2825 
Q 1016 2553 972 2059 
L 3022 2063 
z
" transform="scale(0.015625)"/>
     </defs>
     <use xlink:href="#DejaVuSans-74"/>
     <use xlink:href="#DejaVuSans-79" transform="translate(39.208984 0)"/>
     <use xlink:href="#DejaVuSans-70" transform="translate(98.388672 0)"/>
     <use xlink:href="#DejaVuSans-65" transform="translate(161.865234 0)"/>
    </g>
   </g>
   <g id="PathCollection_3">
    <g>
     <use xlink:href="#m70cf1730ee" x="357.431122" y="176.1325" style="fill: #1f77b4; fill-opacity: 0.8; stroke: #1f77b4; stroke-opacity: 0.8"/>
    </g>
   </g>
   <g id="text_16">
    <!-- alcohol -->
    <g transform="translate(375.431122 178.7575) scale(0.1 -0.1)">
     <defs>
      <path id="DejaVuSans-61" d="M 2194 1759 
Q 1497 1759 1228 1600 
Q 959 1441 959 1056 
Q 959 750 1161 570 
Q 1363 391 1709 391 
Q 2188 391 2477 730 
Q 2766 1069 2766 1631 
L 2766 1759 
L 2194 1759 
z
M 3341 1997 
L 3341 0 
L 2766 0 
L 2766 531 
Q 2569 213 2275 61 
Q 1981 -91 1556 -91 
Q 1019 -91 701 211 
Q 384 513 384 1019 
Q 384 1609 779 1909 
Q 1175 2209 1959 2209 
L 2766 2209 
L 2766 2266 
Q 2766 2663 2505 2880 
Q 2244 3097 1772 3097 
Q 1472 3097 1187 3025 
Q 903 2953 641 2809 
L 641 3341 
Q 956 3463 1253 3523 
Q 1550 3584 1831 3584 
Q 2591 3584 2966 3190 
Q 3341 2797 3341 1997 
z
" transform="scale(0.015625)"/>
      <path id="DejaVuSans-63" d="M 3122 3366 
L 3122 2828 
Q 2878 2963 2633 3030 
Q 2388 3097 2138 3097 
Q 1578 3097 1268 2742 
Q 959 2388 959 1747 
Q 959 1106 1268 751 
Q 1578 397 2138 397 
Q 2388 397 2633 464 
Q 2878 531 3122 666 
L 3122 134 
Q 2881 22 2623 -34 
Q 2366 -91 2075 -91 
Q 1284 -91 818 406 
Q 353 903 353 1747 
Q 353 2603 823 3093 
Q 1294 3584 2113 3584 
Q 2378 3584 2631 3529 
Q 2884 3475 3122 3366 
z
" transform="scale(0.015625)"/>
      <path id="DejaVuSans-68" d="M 3513 2113 
L 3513 0 
L 2938 0 
L 2938 2094 
Q 2938 2591 2744 2837 
Q 2550 3084 2163 3084 
Q 1697 3084 1428 2787 
Q 1159 2491 1159 1978 
L 1159 0 
L 581 0 
L 581 4863 
L 1159 4863 
L 1159 2956 
Q 1366 3272 1645 3428 
Q 1925 3584 2291 3584 
Q 2894 3584 3203 3211 
Q 3513 2838 3513 2113 
z
" transform="scale(0.015625)"/>
     </defs>
     <use xlink:href="#DejaVuSans-61"/>
     <use xlink:href="#DejaVuSans-6c" transform="translate(61.279297 0)"/>
     <use xlink:href="#DejaVuSans-63" transform="translate(89.0625 0)"/>
     <use xlink:href="#DejaVuSans-6f" transform="translate(144.042969 0)"/>
     <use xlink:href="#DejaVuSans-68" transform="translate(205.224609 0)"/>
     <use xlink:href="#DejaVuSans-6f" transform="translate(268.603516 0)"/>
     <use xlink:href="#DejaVuSans-6c" transform="translate(329.785156 0)"/>
    </g>
   </g>
   <g id="PathCollection_4">
    <g>
     <use xlink:href="#mb3e5fbe75a" x="357.431122" y="190.810625" style="fill: #ff7f0e; fill-opacity: 0.8; stroke: #ff7f0e; stroke-opacity: 0.8"/>
    </g>
   </g>
   <g id="text_17">
    <!-- alkane -->
    <g transform="translate(375.431122 193.435625) scale(0.1 -0.1)">
     <defs>
      <path id="DejaVuSans-6b" d="M 581 4863 
L 1159 4863 
L 1159 1991 
L 2875 3500 
L 3609 3500 
L 1753 1863 
L 3688 0 
L 2938 0 
L 1159 1709 
L 1159 0 
L 581 0 
L 581 4863 
z
" transform="scale(0.015625)"/>
      <path id="DejaVuSans-6e" d="M 3513 2113 
L 3513 0 
L 2938 0 
L 2938 2094 
Q 2938 2591 2744 2837 
Q 2550 3084 2163 3084 
Q 1697 3084 1428 2787 
Q 1159 2491 1159 1978 
L 1159 0 
L 581 0 
L 581 3500 
L 1159 3500 
L 1159 2956 
Q 1366 3272 1645 3428 
Q 1925 3584 2291 3584 
Q 2894 3584 3203 3211 
Q 3513 2838 3513 2113 
z
" transform="scale(0.015625)"/>
     </defs>
     <use xlink:href="#DejaVuSans-61"/>
     <use xlink:href="#DejaVuSans-6c" transform="translate(61.279297 0)"/>
     <use xlink:href="#DejaVuSans-6b" transform="translate(89.0625 0)"/>
     <use xlink:href="#DejaVuSans-61" transform="translate(145.222656 0)"/>
     <use xlink:href="#DejaVuSans-6e" transform="translate(206.501953 0)"/>
     <use xlink:href="#DejaVuSans-65" transform="translate(269.880859 0)"/>
    </g>
   </g>
  </g>
 </g>
 <defs>
  <clipPath id="pef67f948da">
   <rect x="47.1875" y="7.2" width="294.663235" height="307.24"/>
  </clipPath>
 </defs>
</svg>