<?xml version="1.0" encoding="utf-8" standalone="no"?>
<!DOCTYPE svg PUBLIC "-//W3C//DTD SVG 1.1//EN"
  "http://www.w3.org/Graphics/SVG/1.1/DTD/svg11.dtd">
<svg xmlns:xlink="http://www.w3.org/1999/xlink" width="420.188935pt" height="351.99625pt" viewBox="0 0 420.188935 351.99625" xmlns="http://www.w3.org/2000/svg" version="1.1">
 <metadata>
  <rdf:RDF xmlns:dc="http://purl.org/dc/elements/1.1/" xmlns:cc="http://creativecommons.org/ns#" xmlns:rdf="http://www.w3.org/1999/02/22-rdf-syntax-ns#">
   <cc:Work>
    <dc:type rdf:resource="http://purl.org/dc/dcmitype/StillImage"/>
    <dc:date>2025-07-20T07:30:49.937131</dc:date>
    <dc:format>image/svg+xml</dc:format>
    <dc:creator>
     <cc:Agent>
      <dc:title>Matplotlib v3.10.3, https://matplotlib.org/</dc:title>
     </cc:Agent>
    </dc:creator>
   </cc:Work>
  </rdf:RDF>
 </metadata>
 <defs>
  <style type="text/css">*{stroke-linejoin: round; stroke-linecap: butt}</style>
 </defs>
 <g id="figure_1">
  <g id="patch_1">
   <path d="M 0 351.99625 
L 420.188935 351.99625 
L 420.188935 0 
L 0 0 
z
" style="fill: #ffffff"/>
  </g>
  <g id="axes_1">
   <g id="patch_2">
    <path d="M 47.1875 314.44 
L 341.850735 314.44 
L 341.850735 7.2 
L 47.1875 7.2 
z
" style="fill: #ffffff"/>
   </g>
   <g id="PathCollection_1">
    <defs>
     <path id="m6e4317032c" d="M 0 3 
C 0.795609 3 1.55874 2.683901 2.12132 2.12132 
C 2.683901 1.55874 3 0.795609 3 0 
C 3 -0.795609 2.683901 -1.55874 2.12132 -2.12132 
C 1.55874 -2.683901 0.795609 -3 0 -3 
C -0.795609 -3 -1.55874 -2.683901 -2.12132 -2.12132 
C -2.683901 -1.55874 -3 -0.795609 -3 0 
C -3 0.795609 -2.683901 1.55874 -2.12132 2.12132 
C -1.55874 2.683901 -0.795609 3 0 3 
z
" style="stroke: #1f77b4; stroke-opacity: 0.8"/>
    </defs>
    <g clip-path="url(#p8108438479)">
     <use xlink:href="#m6e4317032c" x="60.581283" y="254.628906" style="fill: #1f77b4; fill-opacity: 0.8; stroke: #1f77b4; stroke-opacity: 0.8"/>
     <use xlink:href="#m6e4317032c" x="87.756234" y="238.520979" style="fill: #1f77b4; fill-opacity: 0.8; stroke: #1f77b4; stroke-opacity: 0.8"/>
     <use xlink:href="#m6e4317032c" x="114.931184" y="213.739552" style="fill: #1f77b4; fill-opacity: 0.8; stroke: #1f77b4; stroke-opacity: 0.8"/>
     <use xlink:href="#m6e4317032c" x="142.086765" y="188.958125" style="fill: #1f77b4; fill-opacity: 0.8; stroke: #1f77b4; stroke-opacity: 0.8"/>
     <use xlink:href="#m6e4317032c" x="169.261715" y="162.937627" style="fill: #1f77b4; fill-opacity: 0.8; stroke: #1f77b4; stroke-opacity: 0.8"/>
     <use xlink:href="#m6e4317032c" x="196.436666" y="140.634343" style="fill: #1f77b4; fill-opacity: 0.8; stroke: #1f77b4; stroke-opacity: 0.8"/>
     <use xlink:href="#m6e4317032c" x="223.592247" y="117.091987" style="fill: #1f77b4; fill-opacity: 0.8; stroke: #1f77b4; stroke-opacity: 0.8"/>
     <use xlink:href="#m6e4317032c" x="250.767197" y="93.549632" style="fill: #1f77b4; fill-opacity: 0.8; stroke: #1f77b4; stroke-opacity: 0.8"/>
     <use xlink:href="#m6e4317032c" x="277.922778" y="72.485419" style="fill: #1f77b4; fill-opacity: 0.8; stroke: #1f77b4; stroke-opacity: 0.8"/>
     <use xlink:href="#m6e4317032c" x="305.097728" y="47.703992" style="fill: #1f77b4; fill-opacity: 0.8; stroke: #1f77b4; stroke-opacity: 0.8"/>
     <use xlink:href="#m6e4317032c" x="142.086765" y="201.348838" style="fill: #1f77b4; fill-opacity: 0.8; stroke: #1f77b4; stroke-opacity: 0.8"/>
     <use xlink:href="#m6e4317032c" x="142.086765" y="232.325622" style="fill: #1f77b4; fill-opacity: 0.8; stroke: #1f77b4; stroke-opacity: 0.8"/>
     <use xlink:href="#m6e4317032c" x="169.261715" y="172.850198" style="fill: #1f77b4; fill-opacity: 0.8; stroke: #1f77b4; stroke-opacity: 0.8"/>
     <use xlink:href="#m6e4317032c" x="196.436666" y="167.893912" style="fill: #1f77b4; fill-opacity: 0.8; stroke: #1f77b4; stroke-opacity: 0.8"/>
     <use xlink:href="#m6e4317032c" x="223.592247" y="161.698556" style="fill: #1f77b4; fill-opacity: 0.8; stroke: #1f77b4; stroke-opacity: 0.8"/>
     <use xlink:href="#m6e4317032c" x="180.805743" y="109.657559" style="fill: #1f77b4; fill-opacity: 0.8; stroke: #1f77b4; stroke-opacity: 0.8"/>
     <use xlink:href="#m6e4317032c" x="207.980693" y="84.876133" style="fill: #1f77b4; fill-opacity: 0.8; stroke: #1f77b4; stroke-opacity: 0.8"/>
     <use xlink:href="#m6e4317032c" x="262.311224" y="62.572849" style="fill: #1f77b4; fill-opacity: 0.8; stroke: #1f77b4; stroke-opacity: 0.8"/>
    </g>
   </g>
   <g id="FillBetweenPolyCollection_1">
    <path d="M 60.581283 250.222371 
L 60.581283 284.921759 
L 63.051146 282.378668 
L 65.52101 279.858358 
L 67.990873 277.347432 
L 70.460736 274.828228 
L 72.930599 272.293413 
L 75.400462 269.795393 
L 77.870325 267.297932 
L 80.340188 264.801759 
L 82.810051 262.310198 
L 85.279914 259.841756 
L 87.749777 257.373249 
L 90.21964 254.900647 
L 92.689503 252.314979 
L 95.159367 249.818069 
L 97.62923 247.321158 
L 100.099093 244.828983 
L 102.568956 242.554492 
L 105.038819 240.091358 
L 107.508682 237.618875 
L 109.978545 235.104977 
L 112.448408 232.508977 
L 114.918271 230.097288 
L 117.388134 227.723865 
L 119.857997 225.280845 
L 122.32786 223.041186 
L 124.797724 220.709826 
L 127.267587 218.332483 
L 129.73745 215.784772 
L 132.207313 213.438205 
L 134.677176 211.120322 
L 137.147039 208.804302 
L 139.616902 206.49015 
L 142.086765 204.174548 
L 144.556628 201.751324 
L 147.026491 199.481739 
L 149.496354 197.212154 
L 151.966217 194.915904 
L 154.436081 192.601539 
L 156.905944 190.286184 
L 159.375807 187.976599 
L 161.84567 185.87029 
L 164.315533 183.601863 
L 166.785396 181.157056 
L 169.255259 178.965932 
L 171.725122 176.72545 
L 174.194985 174.418431 
L 176.664848 172.123795 
L 179.134711 169.894053 
L 181.604574 167.608472 
L 184.074437 165.39422 
L 186.544301 163.187604 
L 189.014164 161.000266 
L 191.484027 158.711539 
L 193.95389 156.419005 
L 196.423753 154.181828 
L 198.893616 152.074319 
L 201.363479 149.672853 
L 203.833342 147.592677 
L 206.303205 145.350508 
L 208.773068 143.328838 
L 211.242931 141.240994 
L 213.712794 139.143629 
L 216.182658 137.046265 
L 218.652521 134.970933 
L 221.122384 133.000217 
L 223.592247 131.029328 
L 226.06211 129.055255 
L 228.531973 127.07434 
L 231.001836 124.946719 
L 233.471699 122.819097 
L 235.941562 120.690865 
L 238.411425 118.555586 
L 240.881288 116.597813 
L 243.351151 114.521326 
L 245.821015 112.55 
L 248.290878 110.405887 
L 250.760741 108.433552 
L 253.230604 106.489538 
L 255.700467 104.544769 
L 258.17033 102.437241 
L 260.640193 100.379742 
L 263.110056 98.453674 
L 265.579919 96.52637 
L 268.049782 94.595837 
L 270.519645 92.479252 
L 272.989508 90.360587 
L 275.459371 88.240235 
L 277.929235 86.125993 
L 280.399098 84.116835 
L 282.868961 82.107678 
L 285.338824 80.098521 
L 287.808687 78.089363 
L 290.27855 76.086379 
L 292.748413 74.201534 
L 295.218276 72.208945 
L 297.688139 70.155507 
L 300.158002 68.099997 
L 302.627865 66.047896 
L 305.097728 64.030715 
L 305.097728 21.165455 
L 305.097728 21.165455 
L 302.627865 23.646511 
L 300.158002 26.130062 
L 297.688139 28.613614 
L 295.218276 31.102466 
L 292.748413 33.689448 
L 290.27855 36.27643 
L 287.808687 38.800968 
L 285.338824 41.20877 
L 282.868961 43.616573 
L 280.399098 46.024376 
L 277.929235 48.507923 
L 275.459371 50.942658 
L 272.989508 53.422344 
L 270.519645 56.159601 
L 268.049782 58.621306 
L 265.579919 61.065166 
L 263.110056 63.607756 
L 260.640193 66.176534 
L 258.17033 68.745311 
L 255.700467 71.337987 
L 253.230604 73.941845 
L 250.760741 76.539323 
L 248.290878 79.146884 
L 245.821015 81.753421 
L 243.351151 84.357944 
L 240.881288 86.702254 
L 238.411425 89.05589 
L 235.941562 91.571486 
L 233.471699 94.098922 
L 231.001836 96.526711 
L 228.531973 99.046964 
L 226.06211 101.448596 
L 223.592247 103.857905 
L 221.122384 106.268425 
L 218.652521 108.650898 
L 216.182658 111.046959 
L 213.712794 113.436101 
L 211.242931 115.842426 
L 208.773068 118.241192 
L 206.303205 120.672323 
L 203.833342 123.048941 
L 201.363479 125.368319 
L 198.893616 127.849368 
L 196.423753 130.330902 
L 193.95389 132.582033 
L 191.484027 134.833041 
L 189.014164 137.086291 
L 186.544301 139.3458 
L 184.074437 141.608144 
L 181.604574 144.044179 
L 179.134711 146.452699 
L 176.664848 148.762123 
L 174.194985 151.056572 
L 171.725122 153.282031 
L 169.255259 155.551393 
L 166.785396 157.803552 
L 164.315533 159.978557 
L 161.84567 162.208416 
L 159.375807 164.440537 
L 156.905944 166.743097 
L 154.436081 169.139512 
L 151.966217 171.420708 
L 149.496354 173.597766 
L 147.026491 175.861154 
L 144.556628 177.906875 
L 142.086765 180.117557 
L 139.616902 182.232176 
L 137.147039 184.409754 
L 134.677176 186.694509 
L 132.207313 188.950983 
L 129.73745 191.0995 
L 127.267587 193.414406 
L 124.797724 195.644473 
L 122.32786 197.729629 
L 119.857997 199.953252 
L 117.388134 202.111577 
L 114.918271 204.202641 
L 112.448408 206.288701 
L 109.978545 208.392048 
L 107.508682 210.3534 
L 105.038819 212.389902 
L 102.568956 214.60285 
L 100.099093 216.753459 
L 97.62923 218.847678 
L 95.159367 220.971812 
L 92.689503 223.295579 
L 90.21964 225.619346 
L 87.749777 227.662856 
L 85.279914 229.68563 
L 82.810051 231.708405 
L 80.340188 233.73118 
L 77.870325 235.753954 
L 75.400462 237.776729 
L 72.930599 239.799504 
L 70.460736 241.862102 
L 67.990873 243.952169 
L 65.52101 246.042237 
L 63.051146 248.132304 
L 60.581283 250.222371 
z
" clip-path="url(#p8108438479)" style="fill: #1f77b4; fill-opacity: 0.15"/>
   </g>
   <g id="PathCollection_2">
    <defs>
     <path id="m21619c8869" d="M 0 3 
C 0.795609 3 1.55874 2.683901 2.12132 2.12132 
C 2.683901 1.55874 3 0.795609 3 0 
C 3 -0.795609 2.683901 -1.55874 2.12132 -2.12132 
C 1.55874 -2.683901 0.795609 -3 0 -3 
C -0.795609 -3 -1.55874 -2.683901 -2.12132 -2.12132 
C -2.683901 -1.55874 -3 -0.795609 -3 0 
C -3 0.795609 -2.683901 1.55874 -2.12132 2.12132 
C -1.55874 2.683901 -0.795609 3 0 3 
z
" style="stroke: #ff7f0e; stroke-opacity: 0.8"/>
    </defs>
    <g clip-path="url(#p8108438479)">
     <use xlink:href="#m21619c8869" x="138.271038" y="290.561975" style="fill: #ff7f0e; fill-opacity: 0.8; stroke: #ff7f0e; stroke-opacity: 0.8"/>
     <use xlink:href="#m21619c8869" x="165.445988" y="249.672621" style="fill: #ff7f0e; fill-opacity: 0.8; stroke: #ff7f0e; stroke-opacity: 0.8"/>
     <use xlink:href="#m21619c8869" x="192.620939" y="213.739552" style="fill: #ff7f0e; fill-opacity: 0.8; stroke: #ff7f0e; stroke-opacity: 0.8"/>
     <use xlink:href="#m21619c8869" x="219.77652" y="179.045554" style="fill: #ff7f0e; fill-opacity: 0.8; stroke: #ff7f0e; stroke-opacity: 0.8"/>
     <use xlink:href="#m21619c8869" x="246.95147" y="148.068771" style="fill: #ff7f0e; fill-opacity: 0.8; stroke: #ff7f0e; stroke-opacity: 0.8"/>
     <use xlink:href="#m21619c8869" x="274.12642" y="119.57013" style="fill: #ff7f0e; fill-opacity: 0.8; stroke: #ff7f0e; stroke-opacity: 0.8"/>
     <use xlink:href="#m21619c8869" x="301.282001" y="92.310561" style="fill: #ff7f0e; fill-opacity: 0.8; stroke: #ff7f0e; stroke-opacity: 0.8"/>
     <use xlink:href="#m21619c8869" x="328.456952" y="67.529134" style="fill: #ff7f0e; fill-opacity: 0.8; stroke: #ff7f0e; stroke-opacity: 0.8"/>
     <use xlink:href="#m21619c8869" x="165.445988" y="257.107049" style="fill: #ff7f0e; fill-opacity: 0.8; stroke: #ff7f0e; stroke-opacity: 0.8"/>
     <use xlink:href="#m21619c8869" x="219.77652" y="190.197196" style="fill: #ff7f0e; fill-opacity: 0.8; stroke: #ff7f0e; stroke-opacity: 0.8"/>
     <use xlink:href="#m21619c8869" x="138.271038" y="300.474545" style="fill: #ff7f0e; fill-opacity: 0.8; stroke: #ff7f0e; stroke-opacity: 0.8"/>
     <use xlink:href="#m21619c8869" x="192.620939" y="236.042836" style="fill: #ff7f0e; fill-opacity: 0.8; stroke: #ff7f0e; stroke-opacity: 0.8"/>
    </g>
   </g>
   <g id="FillBetweenPolyCollection_2">
    <path d="M 138.271038 280.587298 
L 138.271038 296.512395 
L 140.192108 293.989724 
L 142.113178 291.443993 
L 144.034247 288.951873 
L 145.955317 286.492974 
L 147.876387 284.126107 
L 149.797457 281.656839 
L 151.718527 279.284665 
L 153.639597 276.849508 
L 155.560666 274.43202 
L 157.481736 271.942765 
L 159.402806 269.456387 
L 161.323876 267.04499 
L 163.244946 264.617533 
L 165.166016 262.07332 
L 167.087085 259.646995 
L 169.008155 257.268806 
L 170.929225 254.890618 
L 172.850295 252.512429 
L 174.771365 250.134241 
L 176.692435 247.754242 
L 178.613504 245.343861 
L 180.534574 242.989215 
L 182.455644 240.61245 
L 184.376714 238.228072 
L 186.297784 235.831921 
L 188.218854 233.291225 
L 190.139923 230.932861 
L 192.060993 228.545705 
L 193.982063 226.202008 
L 195.903133 223.856314 
L 197.824203 221.473569 
L 199.745273 219.037503 
L 201.666342 216.638577 
L 203.587412 214.287463 
L 205.508482 211.890223 
L 207.429552 209.515147 
L 209.350622 207.172 
L 211.271692 204.808316 
L 213.192761 202.447695 
L 215.113831 200.07717 
L 217.034901 197.705802 
L 218.955971 195.346124 
L 220.877041 192.981121 
L 222.798111 190.616118 
L 224.719181 188.305354 
L 226.64025 185.969378 
L 228.56132 183.623059 
L 230.48239 181.287647 
L 232.40346 178.971607 
L 234.32453 176.59844 
L 236.2456 174.271304 
L 238.166669 171.961346 
L 240.087739 169.60505 
L 242.008809 167.217314 
L 243.929879 164.881535 
L 245.850949 162.592216 
L 247.772019 160.253151 
L 249.693088 157.907953 
L 251.614158 155.544284 
L 253.535228 153.184619 
L 255.456298 150.933351 
L 257.377368 148.600828 
L 259.298438 146.265654 
L 261.219507 143.929726 
L 263.140577 141.682468 
L 265.061647 139.436254 
L 266.982717 137.107801 
L 268.903787 134.766131 
L 270.824857 132.421831 
L 272.745926 130.077531 
L 274.666996 127.797602 
L 276.588066 125.568967 
L 278.509136 123.338693 
L 280.430206 120.977866 
L 282.351276 118.634805 
L 284.272345 116.424684 
L 286.193415 114.127819 
L 288.114485 111.853241 
L 290.035555 109.578543 
L 291.956625 107.318202 
L 293.877695 105.0577 
L 295.798764 102.79712 
L 297.719834 100.478804 
L 299.640904 98.213263 
L 301.561974 95.962813 
L 303.483044 93.748173 
L 305.404114 91.495421 
L 307.325183 89.247753 
L 309.246253 87.007941 
L 311.167323 84.7407 
L 313.088393 82.477866 
L 315.009463 80.210361 
L 316.930533 77.929508 
L 318.851602 75.709824 
L 320.772672 73.486982 
L 322.693742 71.209766 
L 324.614812 68.938389 
L 326.535882 66.679378 
L 328.456952 64.420721 
L 328.456952 41.617782 
L 328.456952 41.617782 
L 326.535882 44.205738 
L 324.614812 46.793694 
L 322.693742 49.38165 
L 320.772672 51.969606 
L 318.851602 54.557562 
L 316.930533 57.106193 
L 315.009463 59.62778 
L 313.088393 62.175851 
L 311.167323 64.757558 
L 309.246253 67.339264 
L 307.325183 69.920971 
L 305.404114 72.502678 
L 303.483044 75.084385 
L 301.561974 77.626827 
L 299.640904 80.155692 
L 297.719834 82.684556 
L 295.798764 85.21342 
L 293.877695 87.743904 
L 291.956625 90.343338 
L 290.035555 92.942772 
L 288.114485 95.542206 
L 286.193415 98.057276 
L 284.272345 100.541934 
L 282.351276 103.026592 
L 280.430206 105.51125 
L 278.509136 107.995909 
L 276.588066 110.485187 
L 274.666996 113.060762 
L 272.745926 115.672783 
L 270.824857 118.284803 
L 268.903787 120.896824 
L 266.982717 123.508844 
L 265.061647 126.120865 
L 263.140577 128.624693 
L 261.219507 131.101563 
L 259.298438 133.579147 
L 257.377368 136.056731 
L 255.456298 138.534315 
L 253.535228 141.011898 
L 251.614158 143.507989 
L 249.693088 146.066308 
L 247.772019 148.617602 
L 245.850949 151.034403 
L 243.929879 153.452442 
L 242.008809 155.968853 
L 240.087739 158.494531 
L 238.166669 160.905818 
L 236.2456 163.41742 
L 234.32453 165.849257 
L 232.40346 168.243244 
L 230.48239 170.716098 
L 228.56132 173.190848 
L 226.64025 175.615979 
L 224.719181 178.066517 
L 222.798111 180.556529 
L 220.877041 182.874947 
L 218.955971 185.141318 
L 217.034901 187.470576 
L 215.113831 189.953585 
L 213.192761 192.436402 
L 211.271692 194.8335 
L 209.350622 197.219192 
L 207.429552 199.631271 
L 205.508482 201.973542 
L 203.587412 204.172563 
L 201.666342 206.529968 
L 199.745273 208.835435 
L 197.824203 211.156664 
L 195.903133 213.614699 
L 193.982063 215.81216 
L 192.060993 218.043604 
L 190.139923 220.337719 
L 188.218854 222.501108 
L 186.297784 224.767207 
L 184.376714 227.051702 
L 182.455644 229.243843 
L 180.534574 231.435984 
L 178.613504 233.668976 
L 176.692435 235.928842 
L 174.771365 238.188708 
L 172.850295 240.451732 
L 170.929225 242.695724 
L 169.008155 244.976341 
L 167.087085 247.23654 
L 165.166016 249.497178 
L 163.244946 251.759591 
L 161.323876 254.022004 
L 159.402806 256.276606 
L 157.481736 258.513768 
L 155.560666 260.760697 
L 153.639597 263.001133 
L 151.718527 265.24157 
L 149.797457 267.472372 
L 147.876387 269.686189 
L 145.955317 271.866644 
L 144.034247 274.046808 
L 142.113178 276.226971 
L 140.192108 278.407135 
L 138.271038 280.587298 
z
" clip-path="url(#p8108438479)" style="fill: #ff7f0e; fill-opacity: 0.15"/>
   </g>
   <g id="matplotlib.axis_1">
    <g id="xtick_1">
     <g id="line2d_1">
      <defs>
       <path id="m3fd8aa3aa2" d="M 0 0 
L 0 3.5 
" style="stroke: #000000; stroke-width: 0.8"/>
      </defs>
      <g>
       <use xlink:href="#m3fd8aa3aa2" x="75.999145" y="314.44" style="stroke: #000000; stroke-width: 0.8"/>
      </g>
     </g>
     <g id="text_1">
      <!-- 40 -->
      <g transform="translate(69.636645 329.038437) scale(0.1 -0.1)">
       <defs>
        <path id="DejaVuSans-34" d="M 2419 4116 
L 825 1625 
L 2419 1625 
L 2419 4116 
z
M 2253 4666 
L 3047 4666 
L 3047 1625 
L 3713 1625 
L 3713 1100 
L 3047 1100 
L 3047 0 
L 2419 0 
L 2419 1100 
L 313 1100 
L 313 1709 
L 2253 4666 
z
" transform="scale(0.015625)"/>
        <path id="DejaVuSans-30" d="M 2034 4250 
Q 1547 4250 1301 3770 
Q 1056 3291 1056 2328 
Q 1056 1369 1301 889 
Q 1547 409 2034 409 
Q 2525 409 2770 889 
Q 3016 1369 3016 2328 
Q 3016 3291 2770 3770 
Q 2525 4250 2034 4250 
z
M 2034 4750 
Q 2819 4750 3233 4129 
Q 3647 3509 3647 2328 
Q 3647 1150 3233 529 
Q 2819 -91 2034 -91 
Q 1250 -91 836 529 
Q 422 1150 422 2328 
Q 422 3509 836 4129 
Q 1250 4750 2034 4750 
z
" transform="scale(0.015625)"/>
       </defs>
       <use xlink:href="#DejaVuSans-34"/>
       <use xlink:href="#DejaVuSans-30" transform="translate(63.623047 0)"/>
      </g>
     </g>
    </g>
    <g id="xtick_2">
     <g id="line2d_2">
      <g>
       <use xlink:href="#m3fd8aa3aa2" x="114.737492" y="314.44" style="stroke: #000000; stroke-width: 0.8"/>
      </g>
     </g>
     <g id="text_2">
      <!-- 60 -->
      <g transform="translate(108.374992 329.038437) scale(0.1 -0.1)">
       <defs>
        <path id="DejaVuSans-36" d="M 2113 2584 
Q 1688 2584 1439 2293 
Q 1191 2003 1191 1497 
Q 1191 994 1439 701 
Q 1688 409 2113 409 
Q 2538 409 2786 701 
Q 3034 994 3034 1497 
Q 3034 2003 2786 2293 
Q 2538 2584 2113 2584 
z
M 3366 4563 
L 3366 3988 
Q 3128 4100 2886 4159 
Q 2644 4219 2406 4219 
Q 1781 4219 1451 3797 
Q 1122 3375 1075 2522 
Q 1259 2794 1537 2939 
Q 1816 3084 2150 3084 
Q 2853 3084 3261 2657 
Q 3669 2231 3669 1497 
Q 3669 778 3244 343 
Q 2819 -91 2113 -91 
Q 1303 -91 875 529 
Q 447 1150 447 2328 
Q 447 3434 972 4092 
Q 1497 4750 2381 4750 
Q 2619 4750 2861 4703 
Q 3103 4656 3366 4563 
z
" transform="scale(0.015625)"/>
       </defs>
       <use xlink:href="#DejaVuSans-36"/>
       <use xlink:href="#DejaVuSans-30" transform="translate(63.623047 0)"/>
      </g>
     </g>
    </g>
    <g id="xtick_3">
     <g id="line2d_3">
      <g>
       <use xlink:href="#m3fd8aa3aa2" x="153.475839" y="314.44" style="stroke: #000000; stroke-width: 0.8"/>
      </g>
     </g>
     <g id="text_3">
      <!-- 80 -->
      <g transform="translate(147.113339 329.038437) scale(0.1 -0.1)">
       <defs>
        <path id="DejaVuSans-38" d="M 2034 2216 
Q 1584 2216 1326 1975 
Q 1069 1734 1069 1313 
Q 1069 891 1326 650 
Q 1584 409 2034 409 
Q 2484 409 2743 651 
Q 3003 894 3003 1313 
Q 3003 1734 2745 1975 
Q 2488 2216 2034 2216 
z
M 1403 2484 
Q 997 2584 770 2862 
Q 544 3141 544 3541 
Q 544 4100 942 4425 
Q 1341 4750 2034 4750 
Q 2731 4750 3128 4425 
Q 3525 4100 3525 3541 
Q 3525 3141 3298 2862 
Q 3072 2584 2669 2484 
Q 3125 2378 3379 2068 
Q 3634 1759 3634 1313 
Q 3634 634 3220 271 
Q 2806 -91 2034 -91 
Q 1263 -91 848 271 
Q 434 634 434 1313 
Q 434 1759 690 2068 
Q 947 2378 1403 2484 
z
M 1172 3481 
Q 1172 3119 1398 2916 
Q 1625 2713 2034 2713 
Q 2441 2713 2670 2916 
Q 2900 3119 2900 3481 
Q 2900 3844 2670 4047 
Q 2441 4250 2034 4250 
Q 1625 4250 1398 4047 
Q 1172 3844 1172 3481 
z
" transform="scale(0.015625)"/>
       </defs>
       <use xlink:href="#DejaVuSans-38"/>
       <use xlink:href="#DejaVuSans-30" transform="translate(63.623047 0)"/>
      </g>
     </g>
    </g>
    <g id="xtick_4">
     <g id="line2d_4">
      <g>
       <use xlink:href="#m3fd8aa3aa2" x="192.214186" y="314.44" style="stroke: #000000; stroke-width: 0.8"/>
      </g>
     </g>
     <g id="text_4">
      <!-- 100 -->
      <g transform="translate(182.670436 329.038437) scale(0.1 -0.1)">
       <defs>
        <path id="DejaVuSans-31" d="M 794 531 
L 1825 531 
L 1825 4091 
L 703 3866 
L 703 4441 
L 1819 4666 
L 2450 4666 
L 2450 531 
L 3481 531 
L 3481 0 
L 794 0 
L 794 531 
z
" transform="scale(0.015625)"/>
       </defs>
       <use xlink:href="#DejaVuSans-31"/>
       <use xlink:href="#DejaVuSans-30" transform="translate(63.623047 0)"/>
       <use xlink:href="#DejaVuSans-30" transform="translate(127.246094 0)"/>
      </g>
     </g>
    </g>
    <g id="xtick_5">
     <g id="line2d_5">
      <g>
       <use xlink:href="#m3fd8aa3aa2" x="230.952533" y="314.44" style="stroke: #000000; stroke-width: 0.8"/>
      </g>
     </g>
     <g id="text_5">
      <!-- 120 -->
      <g transform="translate(221.408783 329.038437) scale(0.1 -0.1)">
       <defs>
        <path id="DejaVuSans-32" d="M 1228 531 
L 3431 531 
L 3431 0 
L 469 0 
L 469 531 
Q 828 903 1448 1529 
Q 2069 2156 2228 2338 
Q 2531 2678 2651 2914 
Q 2772 3150 2772 3378 
Q 2772 3750 2511 3984 
Q 2250 4219 1831 4219 
Q 1534 4219 1204 4116 
Q 875 4013 500 3803 
L 500 4441 
Q 881 4594 1212 4672 
Q 1544 4750 1819 4750 
Q 2544 4750 2975 4387 
Q 3406 4025 3406 3419 
Q 3406 3131 3298 2873 
Q 3191 2616 2906 2266 
Q 2828 2175 2409 1742 
Q 1991 1309 1228 531 
z
" transform="scale(0.015625)"/>
       </defs>
       <use xlink:href="#DejaVuSans-31"/>
       <use xlink:href="#DejaVuSans-32" transform="translate(63.623047 0)"/>
       <use xlink:href="#DejaVuSans-30" transform="translate(127.246094 0)"/>
      </g>
     </g>
    </g>
    <g id="xtick_6">
     <g id="line2d_6">
      <g>
       <use xlink:href="#m3fd8aa3aa2" x="269.690879" y="314.44" style="stroke: #000000; stroke-width: 0.8"/>
      </g>
     </g>
     <g id="text_6">
      <!-- 140 -->
      <g transform="translate(260.147129 329.038437) scale(0.1 -0.1)">
       <use xlink:href="#DejaVuSans-31"/>
       <use xlink:href="#DejaVuSans-34" transform="translate(63.623047 0)"/>
       <use xlink:href="#DejaVuSans-30" transform="translate(127.246094 0)"/>
      </g>
     </g>
    </g>
    <g id="xtick_7">
     <g id="line2d_7">
      <g>
       <use xlink:href="#m3fd8aa3aa2" x="308.429226" y="314.44" style="stroke: #000000; stroke-width: 0.8"/>
      </g>
     </g>
     <g id="text_7">
      <!-- 160 -->
      <g transform="translate(298.885476 329.038437) scale(0.1 -0.1)">
       <use xlink:href="#DejaVuSans-31"/>
       <use xlink:href="#DejaVuSans-36" transform="translate(63.623047 0)"/>
       <use xlink:href="#DejaVuSans-30" transform="translate(127.246094 0)"/>
      </g>
     </g>
    </g>
    <g id="text_8">
     <!-- MW, g/mol -->
     <g transform="translate(167.905836 342.716562) scale(0.1 -0.1)">
      <defs>
       <path id="DejaVuSans-4d" d="M 628 4666 
L 1569 4666 
L 2759 1491 
L 3956 4666 
L 4897 4666 
L 4897 0 
L 4281 0 
L 4281 4097 
L 3078 897 
L 2444 897 
L 1241 4097 
L 1241 0 
L 628 0 
L 628 4666 
z
" transform="scale(0.015625)"/>
       <path id="DejaVuSans-57" d="M 213 4666 
L 850 4666 
L 1831 722 
L 2809 4666 
L 3519 4666 
L 4500 722 
L 5478 4666 
L 6119 4666 
L 4947 0 
L 4153 0 
L 3169 4050 
L 2175 0 
L 1381 0 
L 213 4666 
z
" transform="scale(0.015625)"/>
       <path id="DejaVuSans-2c" d="M 750 794 
L 1409 794 
L 1409 256 
L 897 -744 
L 494 -744 
L 750 256 
L 750 794 
z
" transform="scale(0.015625)"/>
       <path id="DejaVuSans-20" transform="scale(0.015625)"/>
       <path id="DejaVuSans-67" d="M 2906 1791 
Q 2906 2416 2648 2759 
Q 2391 3103 1925 3103 
Q 1463 3103 1205 2759 
Q 947 2416 947 1791 
Q 947 1169 1205 825 
Q 1463 481 1925 481 
Q 2391 481 2648 825 
Q 2906 1169 2906 1791 
z
M 3481 434 
Q 3481 -459 3084 -895 
Q 2688 -1331 1869 -1331 
Q 1566 -1331 1297 -1286 
Q 1028 -1241 775 -1147 
L 775 -588 
Q 1028 -725 1275 -790 
Q 1522 -856 1778 -856 
Q 2344 -856 2625 -561 
Q 2906 -266 2906 331 
L 2906 616 
Q 2728 306 2450 153 
Q 2172 0 1784 0 
Q 1141 0 747 490 
Q 353 981 353 1791 
Q 353 2603 747 3093 
Q 1141 3584 1784 3584 
Q 2172 3584 2450 3431 
Q 2728 3278 2906 2969 
L 2906 3500 
L 3481 3500 
L 3481 434 
z
" transform="scale(0.015625)"/>
       <path id="DejaVuSans-2f" d="M 1625 4666 
L 2156 4666 
L 531 -594 
L 0 -594 
L 1625 4666 
z
" transform="scale(0.015625)"/>
       <path id="DejaVuSans-6d" d="M 3328 2828 
Q 3544 3216 3844 3400 
Q 4144 3584 4550 3584 
Q 5097 3584 5394 3201 
Q 5691 2819 5691 2113 
L 5691 0 
L 5113 0 
L 5113 2094 
Q 5113 2597 4934 2840 
Q 4756 3084 4391 3084 
Q 3944 3084 3684 2787 
Q 3425 2491 3425 1978 
L 3425 0 
L 2847 0 
L 2847 2094 
Q 2847 2600 2669 2842 
Q 2491 3084 2119 3084 
Q 1678 3084 1418 2786 
Q 1159 2488 1159 1978 
L 1159 0 
L 581 0 
L 581 3500 
L 1159 3500 
L 1159 2956 
Q 1356 3278 1631 3431 
Q 1906 3584 2284 3584 
Q 2666 3584 2933 3390 
Q 3200 3197 3328 2828 
z
" transform="scale(0.015625)"/>
       <path id="DejaVuSans-6f" d="M 1959 3097 
Q 1497 3097 1228 2736 
Q 959 2375 959 1747 
Q 959 1119 1226 758 
Q 1494 397 1959 397 
Q 2419 397 2687 759 
Q 2956 1122 2956 1747 
Q 2956 2369 2687 2733 
Q 2419 3097 1959 3097 
z
M 1959 3584 
Q 2709 3584 3137 3096 
Q 3566 2609 3566 1747 
Q 3566 888 3137 398 
Q 2709 -91 1959 -91 
Q 1206 -91 779 398 
Q 353 888 353 1747 
Q 353 2609 779 3096 
Q 1206 3584 1959 3584 
z
" transform="scale(0.015625)"/>
       <path id="DejaVuSans-6c" d="M 603 4863 
L 1178 4863 
L 1178 0 
L 603 0 
L 603 4863 
z
" transform="scale(0.015625)"/>
      </defs>
      <use xlink:href="#DejaVuSans-4d"/>
      <use xlink:href="#DejaVuSans-57" transform="translate(86.279297 0)"/>
      <use xlink:href="#DejaVuSans-2c" transform="translate(185.15625 0)"/>
      <use xlink:href="#DejaVuSans-20" transform="translate(216.943359 0)"/>
      <use xlink:href="#DejaVuSans-67" transform="translate(248.730469 0)"/>
      <use xlink:href="#DejaVuSans-2f" transform="translate(312.207031 0)"/>
      <use xlink:href="#DejaVuSans-6d" transform="translate(345.898438 0)"/>
      <use xlink:href="#DejaVuSans-6f" transform="translate(443.310547 0)"/>
      <use xlink:href="#DejaVuSans-6c" transform="translate(504.492188 0)"/>
     </g>
    </g>
   </g>
   <g id="matplotlib.axis_2">
    <g id="ytick_1">
     <g id="line2d_8">
      <defs>
       <path id="m051159ee73" d="M 0 0 
L -3.5 0 
" style="stroke: #000000; stroke-width: 0.8"/>
      </defs>
      <g>
       <use xlink:href="#m051159ee73" x="47.1875" y="273.214976" style="stroke: #000000; stroke-width: 0.8"/>
      </g>
     </g>
     <g id="text_9">
      <!-- 50 -->
      <g transform="translate(27.4625 277.014195) scale(0.1 -0.1)">
       <defs>
        <path id="DejaVuSans-35" d="M 691 4666 
L 3169 4666 
L 3169 4134 
L 1269 4134 
L 1269 2991 
Q 1406 3038 1543 3061 
Q 1681 3084 1819 3084 
Q 2600 3084 3056 2656 
Q 3513 2228 3513 1497 
Q 3513 744 3044 326 
Q 2575 -91 1722 -91 
Q 1428 -91 1123 -41 
Q 819 9 494 109 
L 494 744 
Q 775 591 1075 516 
Q 1375 441 1709 441 
Q 2250 441 2565 725 
Q 2881 1009 2881 1497 
Q 2881 1984 2565 2268 
Q 2250 2553 1709 2553 
Q 1456 2553 1204 2497 
Q 953 2441 691 2322 
L 691 4666 
z
" transform="scale(0.015625)"/>
       </defs>
       <use xlink:href="#DejaVuSans-35"/>
       <use xlink:href="#DejaVuSans-30" transform="translate(63.623047 0)"/>
      </g>
     </g>
    </g>
    <g id="ytick_2">
     <g id="line2d_9">
      <g>
       <use xlink:href="#m051159ee73" x="47.1875" y="211.261409" style="stroke: #000000; stroke-width: 0.8"/>
      </g>
     </g>
     <g id="text_10">
      <!-- 100 -->
      <g transform="translate(21.1 215.060628) scale(0.1 -0.1)">
       <use xlink:href="#DejaVuSans-31"/>
       <use xlink:href="#DejaVuSans-30" transform="translate(63.623047 0)"/>
       <use xlink:href="#DejaVuSans-30" transform="translate(127.246094 0)"/>
      </g>
     </g>
    </g>
    <g id="ytick_3">
     <g id="line2d_10">
      <g>
       <use xlink:href="#m051159ee73" x="47.1875" y="149.307842" style="stroke: #000000; stroke-width: 0.8"/>
      </g>
     </g>
     <g id="text_11">
      <!-- 150 -->
      <g transform="translate(21.1 153.107061) scale(0.1 -0.1)">
       <use xlink:href="#DejaVuSans-31"/>
       <use xlink:href="#DejaVuSans-35" transform="translate(63.623047 0)"/>
       <use xlink:href="#DejaVuSans-30" transform="translate(127.246094 0)"/>
      </g>
     </g>
    </g>
    <g id="ytick_4">
     <g id="line2d_11">
      <g>
       <use xlink:href="#m051159ee73" x="47.1875" y="87.354275" style="stroke: #000000; stroke-width: 0.8"/>
      </g>
     </g>
     <g id="text_12">
      <!-- 200 -->
      <g transform="translate(21.1 91.153494) scale(0.1 -0.1)">
       <use xlink:href="#DejaVuSans-32"/>
       <use xlink:href="#DejaVuSans-30" transform="translate(63.623047 0)"/>
       <use xlink:href="#DejaVuSans-30" transform="translate(127.246094 0)"/>
      </g>
     </g>
    </g>
    <g id="ytick_5">
     <g id="line2d_12">
      <g>
       <use xlink:href="#m051159ee73" x="47.1875" y="25.400708" style="stroke: #000000; stroke-width: 0.8"/>
      </g>
     </g>
     <g id="text_13">
      <!-- 250 -->
      <g transform="translate(21.1 29.199927) scale(0.1 -0.1)">
       <use xlink:href="#DejaVuSans-32"/>
       <use xlink:href="#DejaVuSans-35" transform="translate(63.623047 0)"/>
       <use xlink:href="#DejaVuSans-30" transform="translate(127.246094 0)"/>
      </g>
     </g>
    </g>
    <g id="text_14">
     <!-- bp, $^o$C -->
     <g transform="translate(15 176.17) rotate(-90) scale(0.1 -0.1)">
      <defs>
       <path id="DejaVuSans-62" d="M 3116 1747 
Q 3116 2381 2855 2742 
Q 2594 3103 2138 3103 
Q 1681 3103 1420 2742 
Q 1159 2381 1159 1747 
Q 1159 1113 1420 752 
Q 1681 391 2138 391 
Q 2594 391 2855 752 
Q 3116 1113 3116 1747 
z
M 1159 2969 
Q 1341 3281 1617 3432 
Q 1894 3584 2278 3584 
Q 2916 3584 3314 3078 
Q 3713 2572 3713 1747 
Q 3713 922 3314 415 
Q 2916 -91 2278 -91 
Q 1894 -91 1617 61 
Q 1341 213 1159 525 
L 1159 0 
L 581 0 
L 581 4863 
L 1159 4863 
L 1159 2969 
z
" transform="scale(0.015625)"/>
       <path id="DejaVuSans-70" d="M 1159 525 
L 1159 -1331 
L 581 -1331 
L 581 3500 
L 1159 3500 
L 1159 2969 
Q 1341 3281 1617 3432 
Q 1894 3584 2278 3584 
Q 2916 3584 3314 3078 
Q 3713 2572 3713 1747 
Q 3713 922 3314 415 
Q 2916 -91 2278 -91 
Q 1894 -91 1617 61 
Q 1341 213 1159 525 
z
M 3116 1747 
Q 3116 2381 2855 2742 
Q 2594 3103 2138 3103 
Q 1681 3103 1420 2742 
Q 1159 2381 1159 1747 
Q 1159 1113 1420 752 
Q 1681 391 2138 391 
Q 2594 391 2855 752 
Q 3116 1113 3116 1747 
z
" transform="scale(0.015625)"/>
       <path id="DejaVuSans-Oblique-6f" d="M 1625 -91 
Q 1009 -91 651 289 
Q 294 669 294 1325 
Q 294 1706 417 2101 
Q 541 2497 738 2766 
Q 1047 3184 1428 3384 
Q 1809 3584 2291 3584 
Q 2888 3584 3255 3212 
Q 3622 2841 3622 2241 
Q 3622 1825 3500 1412 
Q 3378 1000 3181 728 
Q 2875 309 2494 109 
Q 2113 -91 1625 -91 
z
M 891 1344 
Q 891 869 1089 633 
Q 1288 397 1691 397 
Q 2269 397 2648 901 
Q 3028 1406 3028 2181 
Q 3028 2634 2825 2865 
Q 2622 3097 2228 3097 
Q 1903 3097 1650 2945 
Q 1397 2794 1197 2484 
Q 1050 2253 970 1956 
Q 891 1659 891 1344 
z
" transform="scale(0.015625)"/>
       <path id="DejaVuSans-43" d="M 4122 4306 
L 4122 3641 
Q 3803 3938 3442 4084 
Q 3081 4231 2675 4231 
Q 1875 4231 1450 3742 
Q 1025 3253 1025 2328 
Q 1025 1406 1450 917 
Q 1875 428 2675 428 
Q 3081 428 3442 575 
Q 3803 722 4122 1019 
L 4122 359 
Q 3791 134 3420 21 
Q 3050 -91 2638 -91 
Q 1578 -91 968 557 
Q 359 1206 359 2328 
Q 359 3453 968 4101 
Q 1578 4750 2638 4750 
Q 3056 4750 3426 4639 
Q 3797 4528 4122 4306 
z
" transform="scale(0.015625)"/>
      </defs>
      <use xlink:href="#DejaVuSans-62" transform="translate(0 0.51875)"/>
      <use xlink:href="#DejaVuSans-70" transform="translate(63.476562 0.51875)"/>
      <use xlink:href="#DejaVuSans-2c" transform="translate(126.953125 0.51875)"/>
      <use xlink:href="#DejaVuSans-20" transform="translate(158.740234 0.51875)"/>
      <use xlink:href="#DejaVuSans-Oblique-6f" transform="translate(191.484375 38.8) scale(0.7)"/>
      <use xlink:href="#DejaVuSans-43" transform="translate(237.045898 0.51875)"/>
     </g>
    </g>
   </g>
   <g id="line2d_13">
    <path d="M 60.581283 265.14917 
L 63.051146 262.912176 
L 65.52101 260.675183 
L 67.990873 258.43819 
L 70.460736 256.201196 
L 72.930599 253.964203 
L 75.400462 251.72721 
L 77.870325 249.490216 
L 80.340188 247.253223 
L 82.810051 245.01623 
L 85.279914 242.779236 
L 87.749777 240.542243 
L 90.21964 238.30525 
L 92.689503 236.068256 
L 95.159367 233.831263 
L 97.62923 231.59427 
L 100.099093 229.357276 
L 102.568956 227.120283 
L 105.038819 224.88329 
L 107.508682 222.646296 
L 109.978545 220.409303 
L 112.448408 218.172309 
L 114.918271 215.935316 
L 117.388134 213.698323 
L 119.857997 211.461329 
L 122.32786 209.224336 
L 124.797724 206.987343 
L 127.267587 204.750349 
L 129.73745 202.513356 
L 132.207313 200.276363 
L 134.677176 198.039369 
L 137.147039 195.802376 
L 139.616902 193.565383 
L 142.086765 191.328389 
L 144.556628 189.091396 
L 147.026491 186.854403 
L 149.496354 184.617409 
L 151.966217 182.380416 
L 154.436081 180.143423 
L 156.905944 177.906429 
L 159.375807 175.669436 
L 161.84567 173.432443 
L 164.315533 171.195449 
L 166.785396 168.958456 
L 169.255259 166.721463 
L 171.725122 164.484469 
L 174.194985 162.247476 
L 176.664848 160.010483 
L 179.134711 157.773489 
L 181.604574 155.536496 
L 184.074437 153.299503 
L 186.544301 151.062509 
L 189.014164 148.825516 
L 191.484027 146.588523 
L 193.95389 144.351529 
L 196.423753 142.114536 
L 198.893616 139.877543 
L 201.363479 137.640549 
L 203.833342 135.403556 
L 206.303205 133.166563 
L 208.773068 130.929569 
L 211.242931 128.692576 
L 213.712794 126.455583 
L 216.182658 124.218589 
L 218.652521 121.981596 
L 221.122384 119.744603 
L 223.592247 117.507609 
L 226.06211 115.270616 
L 228.531973 113.033623 
L 231.001836 110.796629 
L 233.471699 108.559636 
L 235.941562 106.322643 
L 238.411425 104.085649 
L 240.881288 101.848656 
L 243.351151 99.611663 
L 245.821015 97.374669 
L 248.290878 95.137676 
L 250.760741 92.900683 
L 253.230604 90.663689 
L 255.700467 88.426696 
L 258.17033 86.189703 
L 260.640193 83.952709 
L 263.110056 81.715716 
L 265.579919 79.478723 
L 268.049782 77.241729 
L 270.519645 75.004736 
L 272.989508 72.767743 
L 275.459371 70.530749 
L 277.929235 68.293756 
L 280.399098 66.056763 
L 282.868961 63.819769 
L 285.338824 61.582776 
L 287.808687 59.345783 
L 290.27855 57.108789 
L 292.748413 54.871796 
L 295.218276 52.634803 
L 297.688139 50.397809 
L 300.158002 48.160816 
L 302.627865 45.923823 
L 305.097728 43.686829 
" clip-path="url(#p8108438479)" style="fill: none; stroke: #1f77b4; stroke-width: 2.25; stroke-linecap: square"/>
   </g>
   <g id="line2d_14">
    <path d="M 138.271038 289.281928 
L 140.192108 286.93815 
L 142.113178 284.594371 
L 144.034247 282.250592 
L 145.955317 279.906814 
L 147.876387 277.563035 
L 149.797457 275.219256 
L 151.718527 272.875478 
L 153.639597 270.531699 
L 155.560666 268.18792 
L 157.481736 265.844142 
L 159.402806 263.500363 
L 161.323876 261.156585 
L 163.244946 258.812806 
L 165.166016 256.469027 
L 167.087085 254.125249 
L 169.008155 251.78147 
L 170.929225 249.437691 
L 172.850295 247.093913 
L 174.771365 244.750134 
L 176.692435 242.406355 
L 178.613504 240.062577 
L 180.534574 237.718798 
L 182.455644 235.375019 
L 184.376714 233.031241 
L 186.297784 230.687462 
L 188.218854 228.343683 
L 190.139923 225.999905 
L 192.060993 223.656126 
L 193.982063 221.312347 
L 195.903133 218.968569 
L 197.824203 216.62479 
L 199.745273 214.281011 
L 201.666342 211.937233 
L 203.587412 209.593454 
L 205.508482 207.249676 
L 207.429552 204.905897 
L 209.350622 202.562118 
L 211.271692 200.21834 
L 213.192761 197.874561 
L 215.113831 195.530782 
L 217.034901 193.187004 
L 218.955971 190.843225 
L 220.877041 188.499446 
L 222.798111 186.155668 
L 224.719181 183.811889 
L 226.64025 181.46811 
L 228.56132 179.124332 
L 230.48239 176.780553 
L 232.40346 174.436774 
L 234.32453 172.092996 
L 236.2456 169.749217 
L 238.166669 167.405438 
L 240.087739 165.06166 
L 242.008809 162.717881 
L 243.929879 160.374102 
L 245.850949 158.030324 
L 247.772019 155.686545 
L 249.693088 153.342767 
L 251.614158 150.998988 
L 253.535228 148.655209 
L 255.456298 146.311431 
L 257.377368 143.967652 
L 259.298438 141.623873 
L 261.219507 139.280095 
L 263.140577 136.936316 
L 265.061647 134.592537 
L 266.982717 132.248759 
L 268.903787 129.90498 
L 270.824857 127.561201 
L 272.745926 125.217423 
L 274.666996 122.873644 
L 276.588066 120.529865 
L 278.509136 118.186087 
L 280.430206 115.842308 
L 282.351276 113.498529 
L 284.272345 111.154751 
L 286.193415 108.810972 
L 288.114485 106.467193 
L 290.035555 104.123415 
L 291.956625 101.779636 
L 293.877695 99.435858 
L 295.798764 97.092079 
L 297.719834 94.7483 
L 299.640904 92.404522 
L 301.561974 90.060743 
L 303.483044 87.716964 
L 305.404114 85.373186 
L 307.325183 83.029407 
L 309.246253 80.685628 
L 311.167323 78.34185 
L 313.088393 75.998071 
L 315.009463 73.654292 
L 316.930533 71.310514 
L 318.851602 68.966735 
L 320.772672 66.622956 
L 322.693742 64.279178 
L 324.614812 61.935399 
L 326.535882 59.59162 
L 328.456952 57.247842 
" clip-path="url(#p8108438479)" style="fill: none; stroke: #ff7f0e; stroke-width: 2.25; stroke-linecap: square"/>
   </g>
   <g id="patch_3">
    <path d="M 47.1875 314.44 
L 47.1875 7.2 
" style="fill: none; stroke: #000000; stroke-width: 0.8; stroke-linejoin: miter; stroke-linecap: square"/>
   </g>
   <g id="patch_4">
    <path d="M 47.1875 314.44 
L 341.850735 314.44 
" style="fill: none; stroke: #000000; stroke-width: 0.8; stroke-linejoin: miter; stroke-linecap: square"/>
   </g>
  </g>
  <g id="legend_1">
   <g id="text_15">
    <!-- type -->
    <g transform="translate(368.139716 164.079375) scale(0.1 -0.1)">
     <defs>
      <path id="DejaVuSans-74" d="M 1172 4494 
L 1172 3500 
L 2356 3500 
L 2356 3053 
L 1172 3053 
L 1172 1153 
Q 1172 725 1289 603 
Q 1406 481 1766 481 
L 2356 481 
L 2356 0 
L 1766 0 
Q 1100 0 847 248 
Q 594 497 594 1153 
L 594 3053 
L 172 3053 
L 172 3500 
L 594 3500 
L 594 4494 
L 1172 4494 
z
" transform="scale(0.015625)"/>
      <path id="DejaVuSans-79" d="M 2059 -325 
Q 1816 -950 1584 -1140 
Q 1353 -1331 966 -1331 
L 506 -1331 
L 506 -850 
L 844 -850 
Q 1081 -850 1212 -737 
Q 1344 -625 1503 -206 
L 1606 56 
L 191 3500 
L 800 3500 
L 1894 763 
L 2988 3500 
L 3597 3500 
L 2059 -325 
z
" transform="scale(0.015625)"/>
      <path id="DejaVuSans-65" d="M 3597 1894 
L 3597 1613 
L 953 1613 
Q 991 1019 1311 708 
Q 1631 397 2203 397 
Q 2534 397 2845 478 
Q 3156 559 3463 722 
L 3463 178 
Q 3153 47 2828 -22 
Q 2503 -91 2169 -91 
Q 1331 -91 842 396 
Q 353 884 353 1716 
Q 353 2575 817 3079 
Q 1281 3584 2069 3584 
Q 2775 3584 3186 3129 
Q 3597 2675 3597 1894 
z
M 3022 2063 
Q 3016 2534 2758 2815 
Q 2500 3097 2075 3097 
Q 1594 3097 1305 2825 
Q 1016 2553 972 2059 
L 3022 2063 
z
" transform="scale(0.015625)"/>
     </defs>
     <use xlink:href="#DejaVuSans-74"/>
     <use xlink:href="#DejaVuSans-79" transform="translate(39.208984 0)"/>
     <use xlink:href="#DejaVuSans-70" transform="translate(98.388672 0)"/>
     <use xlink:href="#DejaVuSans-65" transform="translate(161.865234 0)"/>
    </g>
   </g>
   <g id="PathCollection_3">
    <g>
     <use xlink:href="#m6e4317032c" x="357.431122" y="176.1325" style="fill: #1f77b4; fill-opacity: 0.8; stroke: #1f77b4; stroke-opacity: 0.8"/>
    </g>
   </g>
   <g id="text_16">
    <!-- alcohol -->
    <g transform="translate(375.431122 178.7575) scale(0.1 -0.1)">
     <defs>
      <path id="DejaVuSans-61" d="M 2194 1759 
Q 1497 1759 1228 1600 
Q 959 1441 959 1056 
Q 959 750 1161 570 
Q 1363 391 1709 391 
Q 2188 391 2477 730 
Q 2766 1069 2766 1631 
L 2766 1759 
L 2194 1759 
z
M 3341 1997 
L 3341 0 
L 2766 0 
L 2766 531 
Q 2569 213 2275 61 
Q 1981 -91 1556 -91 
Q 1019 -91 701 211 
Q 384 513 384 1019 
Q 384 1609 779 1909 
Q 1175 2209 1959 2209 
L 2766 2209 
L 2766 2266 
Q 2766 2663 2505 2880 
Q 2244 3097 1772 3097 
Q 1472 3097 1187 3025 
Q 903 2953 641 2809 
L 641 3341 
Q 956 3463 1253 3523 
Q 1550 3584 1831 3584 
Q 2591 3584 2966 3190 
Q 3341 2797 3341 1997 
z
" transform="scale(0.015625)"/>
      <path id="DejaVuSans-63" d="M 3122 3366 
L 3122 2828 
Q 2878 2963 2633 3030 
Q 2388 3097 2138 3097 
Q 1578 3097 1268 2742 
Q 959 2388 959 1747 
Q 959 1106 1268 751 
Q 1578 397 2138 397 
Q 2388 397 2633 464 
Q 2878 531 3122 666 
L 3122 134 
Q 2881 22 2623 -34 
Q 2366 -91 2075 -91 
Q 1284 -91 818 406 
Q 353 903 353 1747 
Q 353 2603 823 3093 
Q 1294 3584 2113 3584 
Q 2378 3584 2631 3529 
Q 2884 3475 3122 3366 
z
" transform="scale(0.015625)"/>
      <path id="DejaVuSans-68" d="M 3513 2113 
L 3513 0 
L 2938 0 
L 2938 2094 
Q 2938 2591 2744 2837 
Q 2550 3084 2163 3084 
Q 1697 3084 1428 2787 
Q 1159 2491 1159 1978 
L 1159 0 
L 581 0 
L 581 4863 
L 1159 4863 
L 1159 2956 
Q 1366 3272 1645 3428 
Q 1925 3584 2291 3584 
Q 2894 3584 3203 3211 
Q 3513 2838 3513 2113 
z
" transform="scale(0.015625)"/>
     </defs>
     <use xlink:href="#DejaVuSans-61"/>
     <use xlink:href="#DejaVuSans-6c" transform="translate(61.279297 0)"/>
     <use xlink:href="#DejaVuSans-63" transform="translate(89.0625 0)"/>
     <use xlink:href="#DejaVuSans-6f" transform="translate(144.042969 0)"/>
     <use xlink:href="#DejaVuSans-68" transform="translate(205.224609 0)"/>
     <use xlink:href="#DejaVuSans-6f" transform="translate(268.603516 0)"/>
     <use xlink:href="#DejaVuSans-6c" transform="translate(329.785156 0)"/>
    </g>
   </g>
   <g id="PathCollection_4">
    <g>
     <use xlink:href="#m21619c8869" x="357.431122" y="190.810625" style="fill: #ff7f0e; fill-opacity: 0.8; stroke: #ff7f0e; stroke-opacity: 0.8"/>
    </g>
   </g>
   <g id="text_17">
    <!-- alkane -->
    <g transform="translate(375.431122 193.435625) scale(0.1 -0.1)">
     <defs>
      <path id="DejaVuSans-6b" d="M 581 4863 
L 1159 4863 
L 1159 1991 
L 2875 3500 
L 3609 3500 
L 1753 1863 
L 3688 0 
L 2938 0 
L 1159 1709 
L 1159 0 
L 581 0 
L 581 4863 
z
" transform="scale(0.015625)"/>
      <path id="DejaVuSans-6e" d="M 3513 2113 
L 3513 0 
L 2938 0 
L 2938 2094 
Q 2938 2591 2744 2837 
Q 2550 3084 2163 3084 
Q 1697 3084 1428 2787 
Q 1159 2491 1159 1978 
L 1159 0 
L 581 0 
L 581 3500 
L 1159 3500 
L 1159 2956 
Q 1366 3272 1645 3428 
Q 1925 3584 2291 3584 
Q 2894 3584 3203 3211 
Q 3513 2838 3513 2113 
z
" transform="scale(0.015625)"/>
     </defs>
     <use xlink:href="#DejaVuSans-61"/>
     <use xlink:href="#DejaVuSans-6c" transform="translate(61.279297 0)"/>
     <use xlink:href="#DejaVuSans-6b" transform="translate(89.0625 0)"/>
     <use xlink:href="#DejaVuSans-61" transform="translate(145.222656 0)"/>
     <use xlink:href="#DejaVuSans-6e" transform="translate(206.501953 0)"/>
     <use xlink:href="#DejaVuSans-65" transform="translate(269.880859 0)"/>
    </g>
   </g>
  </g>
 </g>
 <defs>
  <clipPath id="p8108438479">
   <rect x="47.1875" y="7.2" width="294.663235" height="307.24"/>
  </clipPath>
 </defs>
</svg>