<?xml version="1.0" encoding="utf-8" standalone="no"?>
<!DOCTYPE svg PUBLIC "-//W3C//DTD SVG 1.1//EN"
  "http://www.w3.org/Graphics/SVG/1.1/DTD/svg11.dtd">
<svg xmlns:xlink="http://www.w3.org/1999/xlink" width="391.245pt" height="297.190125pt" viewBox="0 0 391.245 297.190125" xmlns="http://www.w3.org/2000/svg" version="1.1">
 <metadata>
  <rdf:RDF xmlns:dc="http://purl.org/dc/elements/1.1/" xmlns:cc="http://creativecommons.org/ns#" xmlns:rdf="http://www.w3.org/1999/02/22-rdf-syntax-ns#">
   <cc:Work>
    <dc:type rdf:resource="http://purl.org/dc/dcmitype/StillImage"/>
    <dc:date>2025-12-27T13:14:03.232510</dc:date>
    <dc:format>image/svg+xml</dc:format>
    <dc:creator>
     <cc:Agent>
      <dc:title>Matplotlib v3.10.3, https://matplotlib.org/</dc:title>
     </cc:Agent>
    </dc:creator>
   </cc:Work>
  </rdf:RDF>
 </metadata>
 <defs>
  <style type="text/css">*{stroke-linejoin: round; stroke-linecap: butt}</style>
 </defs>
 <g id="figure_1">
  <g id="patch_1">
   <path d="M 0 297.190125 
L 391.245 297.190125 
L 391.245 0 
L 0 0 
z
" style="fill: #ffffff"/>
  </g>
  <g id="axes_1">
   <g id="patch_2">
    <path d="M 26.925 273.312 
L 384.045 273.312 
L 384.045 7.2 
L 26.925 7.2 
z
" style="fill: #ffffff"/>
   </g>
   <g id="PathCollection_1">
    <defs>
     <path id="mee1cf64e17" d="M 0 3 
C 0.795609 3 1.55874 2.683901 2.12132 2.12132 
C 2.683901 1.55874 3 0.795609 3 0 
C 3 -0.795609 2.683901 -1.55874 2.12132 -2.12132 
C 1.55874 -2.683901 0.795609 -3 0 -3 
C -0.795609 -3 -1.55874 -2.683901 -2.12132 -2.12132 
C -2.683901 -1.55874 -3 -0.795609 -3 0 
C -3 0.795609 -2.683901 1.55874 -2.12132 2.12132 
C -1.55874 2.683901 -0.795609 3 0 3 
z
" style="stroke: #1f77b4; stroke-opacity: 0.8"/>
    </defs>
    <g clip-path="url(#padc5483ad8)">
     <use xlink:href="#mee1cf64e17" x="43.157727" y="245.571532" style="fill: #1f77b4; fill-opacity: 0.8; stroke: #1f77b4; stroke-opacity: 0.8"/>
     <use xlink:href="#mee1cf64e17" x="79.230455" y="231.715542" style="fill: #1f77b4; fill-opacity: 0.8; stroke: #1f77b4; stroke-opacity: 0.8"/>
     <use xlink:href="#mee1cf64e17" x="115.303182" y="191.241258" style="fill: #1f77b4; fill-opacity: 0.8; stroke: #1f77b4; stroke-opacity: 0.8"/>
     <use xlink:href="#mee1cf64e17" x="151.375909" y="188.918081" style="fill: #1f77b4; fill-opacity: 0.8; stroke: #1f77b4; stroke-opacity: 0.8"/>
     <use xlink:href="#mee1cf64e17" x="187.448636" y="134.42239" style="fill: #1f77b4; fill-opacity: 0.8; stroke: #1f77b4; stroke-opacity: 0.8"/>
     <use xlink:href="#mee1cf64e17" x="223.521364" y="124.737814" style="fill: #1f77b4; fill-opacity: 0.8; stroke: #1f77b4; stroke-opacity: 0.8"/>
     <use xlink:href="#mee1cf64e17" x="259.594091" y="117.112857" style="fill: #1f77b4; fill-opacity: 0.8; stroke: #1f77b4; stroke-opacity: 0.8"/>
     <use xlink:href="#mee1cf64e17" x="295.666818" y="85.939736" style="fill: #1f77b4; fill-opacity: 0.8; stroke: #1f77b4; stroke-opacity: 0.8"/>
     <use xlink:href="#mee1cf64e17" x="331.739545" y="53.58243" style="fill: #1f77b4; fill-opacity: 0.8; stroke: #1f77b4; stroke-opacity: 0.8"/>
     <use xlink:href="#mee1cf64e17" x="367.812273" y="19.296" style="fill: #1f77b4; fill-opacity: 0.8; stroke: #1f77b4; stroke-opacity: 0.8"/>
    </g>
   </g>
   <g id="FillBetweenPolyCollection_1">
    <path d="M 43.157727 236.291043 
L 43.157727 261.216 
L 46.437066 258.858163 
L 49.716405 256.494673 
L 52.995744 254.131183 
L 56.275083 251.767693 
L 59.554421 249.404203 
L 62.83376 247.079682 
L 66.113099 244.739988 
L 69.392438 242.387107 
L 72.671777 240.031846 
L 75.951116 237.648075 
L 79.230455 235.23923 
L 82.509793 232.859772 
L 85.789132 230.496282 
L 89.068471 228.132792 
L 92.34781 225.767979 
L 95.627149 223.402479 
L 98.906488 220.989841 
L 102.185826 218.627767 
L 105.465165 216.265692 
L 108.744504 213.947219 
L 112.023843 211.585664 
L 115.303182 209.220381 
L 118.582521 206.824352 
L 121.86186 204.439806 
L 125.141198 202.093244 
L 128.420537 199.731169 
L 131.699876 197.400401 
L 134.979215 195.084837 
L 138.258554 192.788094 
L 141.537893 190.483923 
L 144.817231 188.177543 
L 148.09657 185.870198 
L 151.375909 183.556214 
L 154.655248 181.207219 
L 157.934587 178.834044 
L 161.213926 176.481385 
L 164.493264 174.128323 
L 167.772603 171.897097 
L 171.051942 169.618289 
L 174.331281 167.37366 
L 177.61062 165.114601 
L 180.889959 162.884296 
L 184.169298 160.505729 
L 187.448636 158.254509 
L 190.727975 155.878446 
L 194.007314 153.637307 
L 197.286653 151.525461 
L 200.565992 149.217478 
L 203.845331 146.939485 
L 207.124669 144.734107 
L 210.404008 142.647634 
L 213.683347 140.44326 
L 216.962686 138.272073 
L 220.242025 136.160837 
L 223.521364 134.054646 
L 226.800702 131.715651 
L 230.080041 129.520267 
L 233.35938 127.447701 
L 236.638719 125.268078 
L 239.918058 123.143144 
L 243.197397 120.930121 
L 246.476736 118.840523 
L 249.756074 116.725915 
L 253.035413 114.523843 
L 256.314752 112.409847 
L 259.594091 110.327399 
L 262.87343 108.168401 
L 266.152769 106.09745 
L 269.432107 104.054807 
L 272.711446 102.012496 
L 275.990785 99.92061 
L 279.270124 97.863382 
L 282.549463 95.759004 
L 285.828802 93.677167 
L 289.10814 91.595099 
L 292.387479 89.513032 
L 295.666818 87.415552 
L 298.946157 85.351227 
L 302.225496 83.266175 
L 305.504835 81.190301 
L 308.784174 79.109912 
L 312.063512 77.028404 
L 315.342851 74.946896 
L 318.62219 72.865388 
L 321.901529 70.78388 
L 325.180868 68.702372 
L 328.460207 66.620864 
L 331.739545 64.539356 
L 335.018884 62.457848 
L 338.298223 60.37634 
L 341.577562 58.338374 
L 344.856901 56.25333 
L 348.13624 54.159709 
L 351.415579 52.185293 
L 354.694917 50.230236 
L 357.974256 48.275179 
L 361.253595 46.320122 
L 364.532934 44.365065 
L 367.812273 42.409653 
L 367.812273 20.506521 
L 367.812273 20.506521 
L 364.532934 22.861864 
L 361.253595 25.21284 
L 357.974256 27.455373 
L 354.694917 29.69001 
L 351.415579 32.00963 
L 348.13624 34.329983 
L 344.856901 36.64711 
L 341.577562 38.854858 
L 338.298223 41.095225 
L 335.018884 43.443466 
L 331.739545 45.793625 
L 328.460207 48.134827 
L 325.180868 50.475678 
L 321.901529 52.844102 
L 318.62219 55.194261 
L 315.342851 57.462566 
L 312.063512 59.72904 
L 308.784174 61.995515 
L 305.504835 64.262624 
L 302.225496 66.530458 
L 298.946157 68.798291 
L 295.666818 71.066128 
L 292.387479 73.371318 
L 289.10814 75.654871 
L 285.828802 77.909662 
L 282.549463 80.151759 
L 279.270124 82.466303 
L 275.990785 84.747416 
L 272.711446 87.017987 
L 269.432107 89.205139 
L 266.152769 91.471483 
L 262.87343 93.732848 
L 259.594091 96.005364 
L 256.314752 98.260688 
L 253.035413 100.444937 
L 249.756074 102.582276 
L 246.476736 104.714732 
L 243.197397 106.855299 
L 239.918058 109.133196 
L 236.638719 111.444227 
L 233.35938 113.755259 
L 230.080041 115.941203 
L 226.800702 118.032094 
L 223.521364 120.154379 
L 220.242025 122.389145 
L 216.962686 124.713712 
L 213.683347 126.940427 
L 210.404008 128.989547 
L 207.124669 131.258302 
L 203.845331 133.407732 
L 200.565992 135.663887 
L 197.286653 137.900608 
L 194.007314 140.167914 
L 190.727975 142.424081 
L 187.448636 144.605541 
L 184.169298 146.816917 
L 180.889959 149.011938 
L 177.61062 151.159359 
L 174.331281 153.278181 
L 171.051942 155.311683 
L 167.772603 157.501976 
L 164.493264 159.649363 
L 161.213926 161.77416 
L 157.934587 163.90729 
L 154.655248 166.018653 
L 151.375909 168.101255 
L 148.09657 170.226344 
L 144.817231 172.388471 
L 141.537893 174.509853 
L 138.258554 176.580689 
L 134.979215 178.528337 
L 131.699876 180.511644 
L 128.420537 182.618495 
L 125.141198 184.830709 
L 121.86186 186.993724 
L 118.582521 189.117402 
L 115.303182 191.224752 
L 112.023843 193.331657 
L 108.744504 195.484466 
L 105.465165 197.605456 
L 102.185826 199.685404 
L 98.906488 201.804979 
L 95.627149 203.968113 
L 92.34781 205.999361 
L 89.068471 207.991871 
L 85.789132 209.984381 
L 82.509793 211.976891 
L 79.230455 213.969401 
L 75.951116 215.961912 
L 72.671777 217.986602 
L 69.392438 220.044848 
L 66.113099 222.126279 
L 62.83376 224.171342 
L 59.554421 226.220599 
L 56.275083 228.278992 
L 52.995744 230.28687 
L 49.716405 232.205165 
L 46.437066 234.212855 
L 43.157727 236.291043 
z
" clip-path="url(#padc5483ad8)" style="fill: #1f77b4; fill-opacity: 0.15"/>
   </g>
   <g id="matplotlib.axis_1">
    <g id="xtick_1">
     <g id="line2d_1">
      <defs>
       <path id="m97ed81d38e" d="M 0 0 
L 0 3.5 
" style="stroke: #000000; stroke-width: 0.8"/>
      </defs>
      <g>
       <use xlink:href="#m97ed81d38e" x="43.157727" y="273.312" style="stroke: #000000; stroke-width: 0.8"/>
      </g>
     </g>
     <g id="text_1">
      <!-- 0 -->
      <g transform="translate(39.976477 287.910437) scale(0.1 -0.1)">
       <defs>
        <path id="DejaVuSans-30" d="M 2034 4250 
Q 1547 4250 1301 3770 
Q 1056 3291 1056 2328 
Q 1056 1369 1301 889 
Q 1547 409 2034 409 
Q 2525 409 2770 889 
Q 3016 1369 3016 2328 
Q 3016 3291 2770 3770 
Q 2525 4250 2034 4250 
z
M 2034 4750 
Q 2819 4750 3233 4129 
Q 3647 3509 3647 2328 
Q 3647 1150 3233 529 
Q 2819 -91 2034 -91 
Q 1250 -91 836 529 
Q 422 1150 422 2328 
Q 422 3509 836 4129 
Q 1250 4750 2034 4750 
z
" transform="scale(0.015625)"/>
       </defs>
       <use xlink:href="#DejaVuSans-30"/>
      </g>
     </g>
    </g>
    <g id="xtick_2">
     <g id="line2d_2">
      <g>
       <use xlink:href="#m97ed81d38e" x="115.303182" y="273.312" style="stroke: #000000; stroke-width: 0.8"/>
      </g>
     </g>
     <g id="text_2">
      <!-- 2 -->
      <g transform="translate(112.121932 287.910437) scale(0.1 -0.1)">
       <defs>
        <path id="DejaVuSans-32" d="M 1228 531 
L 3431 531 
L 3431 0 
L 469 0 
L 469 531 
Q 828 903 1448 1529 
Q 2069 2156 2228 2338 
Q 2531 2678 2651 2914 
Q 2772 3150 2772 3378 
Q 2772 3750 2511 3984 
Q 2250 4219 1831 4219 
Q 1534 4219 1204 4116 
Q 875 4013 500 3803 
L 500 4441 
Q 881 4594 1212 4672 
Q 1544 4750 1819 4750 
Q 2544 4750 2975 4387 
Q 3406 4025 3406 3419 
Q 3406 3131 3298 2873 
Q 3191 2616 2906 2266 
Q 2828 2175 2409 1742 
Q 1991 1309 1228 531 
z
" transform="scale(0.015625)"/>
       </defs>
       <use xlink:href="#DejaVuSans-32"/>
      </g>
     </g>
    </g>
    <g id="xtick_3">
     <g id="line2d_3">
      <g>
       <use xlink:href="#m97ed81d38e" x="187.448636" y="273.312" style="stroke: #000000; stroke-width: 0.8"/>
      </g>
     </g>
     <g id="text_3">
      <!-- 4 -->
      <g transform="translate(184.267386 287.910437) scale(0.1 -0.1)">
       <defs>
        <path id="DejaVuSans-34" d="M 2419 4116 
L 825 1625 
L 2419 1625 
L 2419 4116 
z
M 2253 4666 
L 3047 4666 
L 3047 1625 
L 3713 1625 
L 3713 1100 
L 3047 1100 
L 3047 0 
L 2419 0 
L 2419 1100 
L 313 1100 
L 313 1709 
L 2253 4666 
z
" transform="scale(0.015625)"/>
       </defs>
       <use xlink:href="#DejaVuSans-34"/>
      </g>
     </g>
    </g>
    <g id="xtick_4">
     <g id="line2d_4">
      <g>
       <use xlink:href="#m97ed81d38e" x="259.594091" y="273.312" style="stroke: #000000; stroke-width: 0.8"/>
      </g>
     </g>
     <g id="text_4">
      <!-- 6 -->
      <g transform="translate(256.412841 287.910437) scale(0.1 -0.1)">
       <defs>
        <path id="DejaVuSans-36" d="M 2113 2584 
Q 1688 2584 1439 2293 
Q 1191 2003 1191 1497 
Q 1191 994 1439 701 
Q 1688 409 2113 409 
Q 2538 409 2786 701 
Q 3034 994 3034 1497 
Q 3034 2003 2786 2293 
Q 2538 2584 2113 2584 
z
M 3366 4563 
L 3366 3988 
Q 3128 4100 2886 4159 
Q 2644 4219 2406 4219 
Q 1781 4219 1451 3797 
Q 1122 3375 1075 2522 
Q 1259 2794 1537 2939 
Q 1816 3084 2150 3084 
Q 2853 3084 3261 2657 
Q 3669 2231 3669 1497 
Q 3669 778 3244 343 
Q 2819 -91 2113 -91 
Q 1303 -91 875 529 
Q 447 1150 447 2328 
Q 447 3434 972 4092 
Q 1497 4750 2381 4750 
Q 2619 4750 2861 4703 
Q 3103 4656 3366 4563 
z
" transform="scale(0.015625)"/>
       </defs>
       <use xlink:href="#DejaVuSans-36"/>
      </g>
     </g>
    </g>
    <g id="xtick_5">
     <g id="line2d_5">
      <g>
       <use xlink:href="#m97ed81d38e" x="331.739545" y="273.312" style="stroke: #000000; stroke-width: 0.8"/>
      </g>
     </g>
     <g id="text_5">
      <!-- 8 -->
      <g transform="translate(328.558295 287.910437) scale(0.1 -0.1)">
       <defs>
        <path id="DejaVuSans-38" d="M 2034 2216 
Q 1584 2216 1326 1975 
Q 1069 1734 1069 1313 
Q 1069 891 1326 650 
Q 1584 409 2034 409 
Q 2484 409 2743 651 
Q 3003 894 3003 1313 
Q 3003 1734 2745 1975 
Q 2488 2216 2034 2216 
z
M 1403 2484 
Q 997 2584 770 2862 
Q 544 3141 544 3541 
Q 544 4100 942 4425 
Q 1341 4750 2034 4750 
Q 2731 4750 3128 4425 
Q 3525 4100 3525 3541 
Q 3525 3141 3298 2862 
Q 3072 2584 2669 2484 
Q 3125 2378 3379 2068 
Q 3634 1759 3634 1313 
Q 3634 634 3220 271 
Q 2806 -91 2034 -91 
Q 1263 -91 848 271 
Q 434 634 434 1313 
Q 434 1759 690 2068 
Q 947 2378 1403 2484 
z
M 1172 3481 
Q 1172 3119 1398 2916 
Q 1625 2713 2034 2713 
Q 2441 2713 2670 2916 
Q 2900 3119 2900 3481 
Q 2900 3844 2670 4047 
Q 2441 4250 2034 4250 
Q 1625 4250 1398 4047 
Q 1172 3844 1172 3481 
z
" transform="scale(0.015625)"/>
       </defs>
       <use xlink:href="#DejaVuSans-38"/>
      </g>
     </g>
    </g>
   </g>
   <g id="matplotlib.axis_2">
    <g id="ytick_1">
     <g id="line2d_6">
      <defs>
       <path id="mfe0554d597" d="M 0 0 
L -3.5 0 
" style="stroke: #000000; stroke-width: 0.8"/>
      </defs>
      <g>
       <use xlink:href="#mfe0554d597" x="26.925" y="240.971394" style="stroke: #000000; stroke-width: 0.8"/>
      </g>
     </g>
     <g id="text_6">
      <!-- 0 -->
      <g transform="translate(13.5625 244.770613) scale(0.1 -0.1)">
       <use xlink:href="#DejaVuSans-30"/>
      </g>
     </g>
    </g>
    <g id="ytick_2">
     <g id="line2d_7">
      <g>
       <use xlink:href="#mfe0554d597" x="26.925" y="187.770924" style="stroke: #000000; stroke-width: 0.8"/>
      </g>
     </g>
     <g id="text_7">
      <!-- 5 -->
      <g transform="translate(13.5625 191.570143) scale(0.1 -0.1)">
       <defs>
        <path id="DejaVuSans-35" d="M 691 4666 
L 3169 4666 
L 3169 4134 
L 1269 4134 
L 1269 2991 
Q 1406 3038 1543 3061 
Q 1681 3084 1819 3084 
Q 2600 3084 3056 2656 
Q 3513 2228 3513 1497 
Q 3513 744 3044 326 
Q 2575 -91 1722 -91 
Q 1428 -91 1123 -41 
Q 819 9 494 109 
L 494 744 
Q 775 591 1075 516 
Q 1375 441 1709 441 
Q 2250 441 2565 725 
Q 2881 1009 2881 1497 
Q 2881 1984 2565 2268 
Q 2250 2553 1709 2553 
Q 1456 2553 1204 2497 
Q 953 2441 691 2322 
L 691 4666 
z
" transform="scale(0.015625)"/>
       </defs>
       <use xlink:href="#DejaVuSans-35"/>
      </g>
     </g>
    </g>
    <g id="ytick_3">
     <g id="line2d_8">
      <g>
       <use xlink:href="#mfe0554d597" x="26.925" y="134.570453" style="stroke: #000000; stroke-width: 0.8"/>
      </g>
     </g>
     <g id="text_8">
      <!-- 10 -->
      <g transform="translate(7.2 138.369672) scale(0.1 -0.1)">
       <defs>
        <path id="DejaVuSans-31" d="M 794 531 
L 1825 531 
L 1825 4091 
L 703 3866 
L 703 4441 
L 1819 4666 
L 2450 4666 
L 2450 531 
L 3481 531 
L 3481 0 
L 794 0 
L 794 531 
z
" transform="scale(0.015625)"/>
       </defs>
       <use xlink:href="#DejaVuSans-31"/>
       <use xlink:href="#DejaVuSans-30" transform="translate(63.623047 0)"/>
      </g>
     </g>
    </g>
    <g id="ytick_4">
     <g id="line2d_9">
      <g>
       <use xlink:href="#mfe0554d597" x="26.925" y="81.369983" style="stroke: #000000; stroke-width: 0.8"/>
      </g>
     </g>
     <g id="text_9">
      <!-- 15 -->
      <g transform="translate(7.2 85.169202) scale(0.1 -0.1)">
       <use xlink:href="#DejaVuSans-31"/>
       <use xlink:href="#DejaVuSans-35" transform="translate(63.623047 0)"/>
      </g>
     </g>
    </g>
    <g id="ytick_5">
     <g id="line2d_10">
      <g>
       <use xlink:href="#mfe0554d597" x="26.925" y="28.169513" style="stroke: #000000; stroke-width: 0.8"/>
      </g>
     </g>
     <g id="text_10">
      <!-- 20 -->
      <g transform="translate(7.2 31.968732) scale(0.1 -0.1)">
       <use xlink:href="#DejaVuSans-32"/>
       <use xlink:href="#DejaVuSans-30" transform="translate(63.623047 0)"/>
      </g>
     </g>
    </g>
   </g>
   <g id="line2d_11">
    <path d="M 43.157727 249.299749 
L 46.437066 247.076597 
L 49.716405 244.853446 
L 52.995744 242.630295 
L 56.275083 240.407144 
L 59.554421 238.183993 
L 62.83376 235.960841 
L 66.113099 233.73769 
L 69.392438 231.514539 
L 72.671777 229.291388 
L 75.951116 227.068237 
L 79.230455 224.845085 
L 82.509793 222.621934 
L 85.789132 220.398783 
L 89.068471 218.175632 
L 92.34781 215.952481 
L 95.627149 213.729329 
L 98.906488 211.506178 
L 102.185826 209.283027 
L 105.465165 207.059876 
L 108.744504 204.836725 
L 112.023843 202.613573 
L 115.303182 200.390422 
L 118.582521 198.167271 
L 121.86186 195.94412 
L 125.141198 193.720969 
L 128.420537 191.497817 
L 131.699876 189.274666 
L 134.979215 187.051515 
L 138.258554 184.828364 
L 141.537893 182.605213 
L 144.817231 180.382061 
L 148.09657 178.15891 
L 151.375909 175.935759 
L 154.655248 173.712608 
L 157.934587 171.489457 
L 161.213926 169.266305 
L 164.493264 167.043154 
L 167.772603 164.820003 
L 171.051942 162.596852 
L 174.331281 160.373701 
L 177.61062 158.150549 
L 180.889959 155.927398 
L 184.169298 153.704247 
L 187.448636 151.481096 
L 190.727975 149.257945 
L 194.007314 147.034793 
L 197.286653 144.811642 
L 200.565992 142.588491 
L 203.845331 140.36534 
L 207.124669 138.142188 
L 210.404008 135.919037 
L 213.683347 133.695886 
L 216.962686 131.472735 
L 220.242025 129.249584 
L 223.521364 127.026432 
L 226.800702 124.803281 
L 230.080041 122.58013 
L 233.35938 120.356979 
L 236.638719 118.133828 
L 239.918058 115.910676 
L 243.197397 113.687525 
L 246.476736 111.464374 
L 249.756074 109.241223 
L 253.035413 107.018072 
L 256.314752 104.79492 
L 259.594091 102.571769 
L 262.87343 100.348618 
L 266.152769 98.125467 
L 269.432107 95.902316 
L 272.711446 93.679164 
L 275.990785 91.456013 
L 279.270124 89.232862 
L 282.549463 87.009711 
L 285.828802 84.78656 
L 289.10814 82.563408 
L 292.387479 80.340257 
L 295.666818 78.117106 
L 298.946157 75.893955 
L 302.225496 73.670804 
L 305.504835 71.447652 
L 308.784174 69.224501 
L 312.063512 67.00135 
L 315.342851 64.778199 
L 318.62219 62.555048 
L 321.901529 60.331896 
L 325.180868 58.108745 
L 328.460207 55.885594 
L 331.739545 53.662443 
L 335.018884 51.439292 
L 338.298223 49.21614 
L 341.577562 46.992989 
L 344.856901 44.769838 
L 348.13624 42.546687 
L 351.415579 40.323536 
L 354.694917 38.100384 
L 357.974256 35.877233 
L 361.253595 33.654082 
L 364.532934 31.430931 
L 367.812273 29.20778 
" clip-path="url(#padc5483ad8)" style="fill: none; stroke: #1f77b4; stroke-width: 2.25; stroke-linecap: square"/>
   </g>
   <g id="patch_3">
    <path d="M 26.925 273.312 
L 26.925 7.2 
" style="fill: none; stroke: #000000; stroke-width: 0.8; stroke-linejoin: miter; stroke-linecap: square"/>
   </g>
   <g id="patch_4">
    <path d="M 384.045 273.312 
L 384.045 7.2 
" style="fill: none; stroke: #000000; stroke-width: 0.8; stroke-linejoin: miter; stroke-linecap: square"/>
   </g>
   <g id="patch_5">
    <path d="M 26.925 273.312 
L 384.045 273.312 
" style="fill: none; stroke: #000000; stroke-width: 0.8; stroke-linejoin: miter; stroke-linecap: square"/>
   </g>
   <g id="patch_6">
    <path d="M 26.925 7.2 
L 384.045 7.2 
" style="fill: none; stroke: #000000; stroke-width: 0.8; stroke-linejoin: miter; stroke-linecap: square"/>
   </g>
  </g>
 </g>
 <defs>
  <clipPath id="padc5483ad8">
   <rect x="26.925" y="7.2" width="357.12" height="266.112"/>
  </clipPath>
 </defs>
</svg>