<?xml version="1.0" encoding="utf-8" standalone="no"?>
<!DOCTYPE svg PUBLIC "-//W3C//DTD SVG 1.1//EN"
  "http://www.w3.org/Graphics/SVG/1.1/DTD/svg11.dtd">
<svg xmlns:xlink="http://www.w3.org/1999/xlink" width="393.262187pt" height="307.788562pt" viewBox="0 0 393.262187 307.788562" xmlns="http://www.w3.org/2000/svg" version="1.1">
 <metadata>
  <rdf:RDF xmlns:dc="http://purl.org/dc/elements/1.1/" xmlns:cc="http://creativecommons.org/ns#" xmlns:rdf="http://www.w3.org/1999/02/22-rdf-syntax-ns#">
   <cc:Work>
    <dc:type rdf:resource="http://purl.org/dc/dcmitype/StillImage"/>
    <dc:date>2023-04-26T06:06:23.985355</dc:date>
    <dc:format>image/svg+xml</dc:format>
    <dc:creator>
     <cc:Agent>
      <dc:title>Matplotlib v3.7.1, https://matplotlib.org/</dc:title>
     </cc:Agent>
    </dc:creator>
   </cc:Work>
  </rdf:RDF>
 </metadata>
 <defs>
  <style type="text/css">*{stroke-linejoin: round; stroke-linecap: butt}</style>
 </defs>
 <g id="figure_1">
  <g id="patch_1">
   <path d="M 0 307.788562 
L 393.262187 307.788562 
L 393.262187 0 
L 0 0 
z
" style="fill: #ffffff"/>
  </g>
  <g id="axes_1">
   <g id="patch_2">
    <path d="M 28.942188 283.910437 
L 386.062188 283.910437 
L 386.062188 17.798437 
L 28.942188 17.798437 
z
" style="fill: #ffffff"/>
   </g>
   <g id="matplotlib.axis_1">
    <g id="xtick_1">
     <g id="line2d_1">
      <defs>
       <path id="m7159d82ec7" d="M 0 0 
L 0 3.5 
" style="stroke: #000000; stroke-width: 0.8"/>
      </defs>
      <g>
       <use xlink:href="#m7159d82ec7" x="65.5865" y="283.910437" style="stroke: #000000; stroke-width: 0.8"/>
      </g>
     </g>
     <g id="text_1">
      <!-- −2.0 -->
      <g transform="translate(53.445094 298.508875) scale(0.1 -0.1)">
       <defs>
        <path id="DejaVuSans-2212" d="M 678 2272 
L 4684 2272 
L 4684 1741 
L 678 1741 
L 678 2272 
z
" transform="scale(0.015625)"/>
        <path id="DejaVuSans-32" d="M 1228 531 
L 3431 531 
L 3431 0 
L 469 0 
L 469 531 
Q 828 903 1448 1529 
Q 2069 2156 2228 2338 
Q 2531 2678 2651 2914 
Q 2772 3150 2772 3378 
Q 2772 3750 2511 3984 
Q 2250 4219 1831 4219 
Q 1534 4219 1204 4116 
Q 875 4013 500 3803 
L 500 4441 
Q 881 4594 1212 4672 
Q 1544 4750 1819 4750 
Q 2544 4750 2975 4387 
Q 3406 4025 3406 3419 
Q 3406 3131 3298 2873 
Q 3191 2616 2906 2266 
Q 2828 2175 2409 1742 
Q 1991 1309 1228 531 
z
" transform="scale(0.015625)"/>
        <path id="DejaVuSans-2e" d="M 684 794 
L 1344 794 
L 1344 0 
L 684 0 
L 684 794 
z
" transform="scale(0.015625)"/>
        <path id="DejaVuSans-30" d="M 2034 4250 
Q 1547 4250 1301 3770 
Q 1056 3291 1056 2328 
Q 1056 1369 1301 889 
Q 1547 409 2034 409 
Q 2525 409 2770 889 
Q 3016 1369 3016 2328 
Q 3016 3291 2770 3770 
Q 2525 4250 2034 4250 
z
M 2034 4750 
Q 2819 4750 3233 4129 
Q 3647 3509 3647 2328 
Q 3647 1150 3233 529 
Q 2819 -91 2034 -91 
Q 1250 -91 836 529 
Q 422 1150 422 2328 
Q 422 3509 836 4129 
Q 1250 4750 2034 4750 
z
" transform="scale(0.015625)"/>
       </defs>
       <use xlink:href="#DejaVuSans-2212"/>
       <use xlink:href="#DejaVuSans-32" x="83.789062"/>
       <use xlink:href="#DejaVuSans-2e" x="147.412109"/>
       <use xlink:href="#DejaVuSans-30" x="179.199219"/>
      </g>
     </g>
    </g>
    <g id="xtick_2">
     <g id="line2d_2">
      <g>
       <use xlink:href="#m7159d82ec7" x="134.54456" y="283.910437" style="stroke: #000000; stroke-width: 0.8"/>
      </g>
     </g>
     <g id="text_2">
      <!-- −1.5 -->
      <g transform="translate(122.403154 298.508875) scale(0.1 -0.1)">
       <defs>
        <path id="DejaVuSans-31" d="M 794 531 
L 1825 531 
L 1825 4091 
L 703 3866 
L 703 4441 
L 1819 4666 
L 2450 4666 
L 2450 531 
L 3481 531 
L 3481 0 
L 794 0 
L 794 531 
z
" transform="scale(0.015625)"/>
        <path id="DejaVuSans-35" d="M 691 4666 
L 3169 4666 
L 3169 4134 
L 1269 4134 
L 1269 2991 
Q 1406 3038 1543 3061 
Q 1681 3084 1819 3084 
Q 2600 3084 3056 2656 
Q 3513 2228 3513 1497 
Q 3513 744 3044 326 
Q 2575 -91 1722 -91 
Q 1428 -91 1123 -41 
Q 819 9 494 109 
L 494 744 
Q 775 591 1075 516 
Q 1375 441 1709 441 
Q 2250 441 2565 725 
Q 2881 1009 2881 1497 
Q 2881 1984 2565 2268 
Q 2250 2553 1709 2553 
Q 1456 2553 1204 2497 
Q 953 2441 691 2322 
L 691 4666 
z
" transform="scale(0.015625)"/>
       </defs>
       <use xlink:href="#DejaVuSans-2212"/>
       <use xlink:href="#DejaVuSans-31" x="83.789062"/>
       <use xlink:href="#DejaVuSans-2e" x="147.412109"/>
       <use xlink:href="#DejaVuSans-35" x="179.199219"/>
      </g>
     </g>
    </g>
    <g id="xtick_3">
     <g id="line2d_3">
      <g>
       <use xlink:href="#m7159d82ec7" x="203.50262" y="283.910437" style="stroke: #000000; stroke-width: 0.8"/>
      </g>
     </g>
     <g id="text_3">
      <!-- −1.0 -->
      <g transform="translate(191.361214 298.508875) scale(0.1 -0.1)">
       <use xlink:href="#DejaVuSans-2212"/>
       <use xlink:href="#DejaVuSans-31" x="83.789062"/>
       <use xlink:href="#DejaVuSans-2e" x="147.412109"/>
       <use xlink:href="#DejaVuSans-30" x="179.199219"/>
      </g>
     </g>
    </g>
    <g id="xtick_4">
     <g id="line2d_4">
      <g>
       <use xlink:href="#m7159d82ec7" x="272.46068" y="283.910437" style="stroke: #000000; stroke-width: 0.8"/>
      </g>
     </g>
     <g id="text_4">
      <!-- −0.5 -->
      <g transform="translate(260.319274 298.508875) scale(0.1 -0.1)">
       <use xlink:href="#DejaVuSans-2212"/>
       <use xlink:href="#DejaVuSans-30" x="83.789062"/>
       <use xlink:href="#DejaVuSans-2e" x="147.412109"/>
       <use xlink:href="#DejaVuSans-35" x="179.199219"/>
      </g>
     </g>
    </g>
    <g id="xtick_5">
     <g id="line2d_5">
      <g>
       <use xlink:href="#m7159d82ec7" x="341.41874" y="283.910437" style="stroke: #000000; stroke-width: 0.8"/>
      </g>
     </g>
     <g id="text_5">
      <!-- 0.0 -->
      <g transform="translate(333.467177 298.508875) scale(0.1 -0.1)">
       <use xlink:href="#DejaVuSans-30"/>
       <use xlink:href="#DejaVuSans-2e" x="63.623047"/>
       <use xlink:href="#DejaVuSans-30" x="95.410156"/>
      </g>
     </g>
    </g>
   </g>
   <g id="matplotlib.axis_2">
    <g id="ytick_1">
     <g id="line2d_6">
      <defs>
       <path id="mdb77109f83" d="M 0 0 
L -3.5 0 
" style="stroke: #000000; stroke-width: 0.8"/>
      </defs>
      <g>
       <use xlink:href="#mdb77109f83" x="28.942188" y="276.863898" style="stroke: #000000; stroke-width: 0.8"/>
      </g>
     </g>
     <g id="text_6">
      <!-- −8 -->
      <g transform="translate(7.2 280.663117) scale(0.1 -0.1)">
       <defs>
        <path id="DejaVuSans-38" d="M 2034 2216 
Q 1584 2216 1326 1975 
Q 1069 1734 1069 1313 
Q 1069 891 1326 650 
Q 1584 409 2034 409 
Q 2484 409 2743 651 
Q 3003 894 3003 1313 
Q 3003 1734 2745 1975 
Q 2488 2216 2034 2216 
z
M 1403 2484 
Q 997 2584 770 2862 
Q 544 3141 544 3541 
Q 544 4100 942 4425 
Q 1341 4750 2034 4750 
Q 2731 4750 3128 4425 
Q 3525 4100 3525 3541 
Q 3525 3141 3298 2862 
Q 3072 2584 2669 2484 
Q 3125 2378 3379 2068 
Q 3634 1759 3634 1313 
Q 3634 634 3220 271 
Q 2806 -91 2034 -91 
Q 1263 -91 848 271 
Q 434 634 434 1313 
Q 434 1759 690 2068 
Q 947 2378 1403 2484 
z
M 1172 3481 
Q 1172 3119 1398 2916 
Q 1625 2713 2034 2713 
Q 2441 2713 2670 2916 
Q 2900 3119 2900 3481 
Q 2900 3844 2670 4047 
Q 2441 4250 2034 4250 
Q 1625 4250 1398 4047 
Q 1172 3844 1172 3481 
z
" transform="scale(0.015625)"/>
       </defs>
       <use xlink:href="#DejaVuSans-2212"/>
       <use xlink:href="#DejaVuSans-38" x="83.789062"/>
      </g>
     </g>
    </g>
    <g id="ytick_2">
     <g id="line2d_7">
      <g>
       <use xlink:href="#mdb77109f83" x="28.942188" y="241.582297" style="stroke: #000000; stroke-width: 0.8"/>
      </g>
     </g>
     <g id="text_7">
      <!-- −6 -->
      <g transform="translate(7.2 245.381516) scale(0.1 -0.1)">
       <defs>
        <path id="DejaVuSans-36" d="M 2113 2584 
Q 1688 2584 1439 2293 
Q 1191 2003 1191 1497 
Q 1191 994 1439 701 
Q 1688 409 2113 409 
Q 2538 409 2786 701 
Q 3034 994 3034 1497 
Q 3034 2003 2786 2293 
Q 2538 2584 2113 2584 
z
M 3366 4563 
L 3366 3988 
Q 3128 4100 2886 4159 
Q 2644 4219 2406 4219 
Q 1781 4219 1451 3797 
Q 1122 3375 1075 2522 
Q 1259 2794 1537 2939 
Q 1816 3084 2150 3084 
Q 2853 3084 3261 2657 
Q 3669 2231 3669 1497 
Q 3669 778 3244 343 
Q 2819 -91 2113 -91 
Q 1303 -91 875 529 
Q 447 1150 447 2328 
Q 447 3434 972 4092 
Q 1497 4750 2381 4750 
Q 2619 4750 2861 4703 
Q 3103 4656 3366 4563 
z
" transform="scale(0.015625)"/>
       </defs>
       <use xlink:href="#DejaVuSans-2212"/>
       <use xlink:href="#DejaVuSans-36" x="83.789062"/>
      </g>
     </g>
    </g>
    <g id="ytick_3">
     <g id="line2d_8">
      <g>
       <use xlink:href="#mdb77109f83" x="28.942188" y="206.300696" style="stroke: #000000; stroke-width: 0.8"/>
      </g>
     </g>
     <g id="text_8">
      <!-- −4 -->
      <g transform="translate(7.2 210.099915) scale(0.1 -0.1)">
       <defs>
        <path id="DejaVuSans-34" d="M 2419 4116 
L 825 1625 
L 2419 1625 
L 2419 4116 
z
M 2253 4666 
L 3047 4666 
L 3047 1625 
L 3713 1625 
L 3713 1100 
L 3047 1100 
L 3047 0 
L 2419 0 
L 2419 1100 
L 313 1100 
L 313 1709 
L 2253 4666 
z
" transform="scale(0.015625)"/>
       </defs>
       <use xlink:href="#DejaVuSans-2212"/>
       <use xlink:href="#DejaVuSans-34" x="83.789062"/>
      </g>
     </g>
    </g>
    <g id="ytick_4">
     <g id="line2d_9">
      <g>
       <use xlink:href="#mdb77109f83" x="28.942188" y="171.019095" style="stroke: #000000; stroke-width: 0.8"/>
      </g>
     </g>
     <g id="text_9">
      <!-- −2 -->
      <g transform="translate(7.2 174.818314) scale(0.1 -0.1)">
       <use xlink:href="#DejaVuSans-2212"/>
       <use xlink:href="#DejaVuSans-32" x="83.789062"/>
      </g>
     </g>
    </g>
    <g id="ytick_5">
     <g id="line2d_10">
      <g>
       <use xlink:href="#mdb77109f83" x="28.942188" y="135.737494" style="stroke: #000000; stroke-width: 0.8"/>
      </g>
     </g>
     <g id="text_10">
      <!-- 0 -->
      <g transform="translate(15.579688 139.536713) scale(0.1 -0.1)">
       <use xlink:href="#DejaVuSans-30"/>
      </g>
     </g>
    </g>
    <g id="ytick_6">
     <g id="line2d_11">
      <g>
       <use xlink:href="#mdb77109f83" x="28.942188" y="100.455893" style="stroke: #000000; stroke-width: 0.8"/>
      </g>
     </g>
     <g id="text_11">
      <!-- 2 -->
      <g transform="translate(15.579688 104.255112) scale(0.1 -0.1)">
       <use xlink:href="#DejaVuSans-32"/>
      </g>
     </g>
    </g>
    <g id="ytick_7">
     <g id="line2d_12">
      <g>
       <use xlink:href="#mdb77109f83" x="28.942188" y="65.174292" style="stroke: #000000; stroke-width: 0.8"/>
      </g>
     </g>
     <g id="text_12">
      <!-- 4 -->
      <g transform="translate(15.579688 68.973511) scale(0.1 -0.1)">
       <use xlink:href="#DejaVuSans-34"/>
      </g>
     </g>
    </g>
    <g id="ytick_8">
     <g id="line2d_13">
      <g>
       <use xlink:href="#mdb77109f83" x="28.942188" y="29.892691" style="stroke: #000000; stroke-width: 0.8"/>
      </g>
     </g>
     <g id="text_13">
      <!-- 6 -->
      <g transform="translate(15.579688 33.69191) scale(0.1 -0.1)">
       <use xlink:href="#DejaVuSans-36"/>
      </g>
     </g>
    </g>
    <g id="text_14">
     <!-- 1e−6 -->
     <g transform="translate(28.942188 14.798437) scale(0.1 -0.1)">
      <defs>
       <path id="DejaVuSans-65" d="M 3597 1894 
L 3597 1613 
L 953 1613 
Q 991 1019 1311 708 
Q 1631 397 2203 397 
Q 2534 397 2845 478 
Q 3156 559 3463 722 
L 3463 178 
Q 3153 47 2828 -22 
Q 2503 -91 2169 -91 
Q 1331 -91 842 396 
Q 353 884 353 1716 
Q 353 2575 817 3079 
Q 1281 3584 2069 3584 
Q 2775 3584 3186 3129 
Q 3597 2675 3597 1894 
z
M 3022 2063 
Q 3016 2534 2758 2815 
Q 2500 3097 2075 3097 
Q 1594 3097 1305 2825 
Q 1016 2553 972 2059 
L 3022 2063 
z
" transform="scale(0.015625)"/>
      </defs>
      <use xlink:href="#DejaVuSans-31"/>
      <use xlink:href="#DejaVuSans-65" x="63.623047"/>
      <use xlink:href="#DejaVuSans-2212" x="125.146484"/>
      <use xlink:href="#DejaVuSans-36" x="208.935547"/>
     </g>
    </g>
   </g>
   <g id="line2d_14">
    <path d="M 261.565306 121.384746 
L 254.117836 125.408019 
L 253.842004 124.812424 
L 253.704088 124.807184 
L 253.290339 125.301476 
L 252.876591 125.151267 
L 252.600759 124.880542 
L 251.635346 125.287503 
L 251.359514 125.090136 
L 250.532017 125.525043 
L 250.394101 125.453431 
L 249.842436 125.766075 
L 249.152856 125.114588 
L 248.601191 125.704944 
L 248.325359 125.659532 
L 248.049527 125.364354 
L 247.773694 125.339901 
L 247.497862 125.439458 
L 247.084114 125.483124 
L 246.532449 125.724157 
L 246.256617 125.215892 
L 245.842869 125.04123 
L 245.567036 124.82465 
L 245.291204 124.891022 
L 245.291204 124.756532 
L 245.153288 124.780985 
L 245.015372 124.60283 
L 244.73954 124.733826 
L 244.601624 124.71112 
L 244.325791 124.513753 
L 244.049959 124.653482 
L 243.222462 123.965316 
L 242.94663 124.099806 
L 242.25705 124.478821 
L 242.119134 124.38101 
L 241.567469 124.632523 
L 241.429553 124.513753 
L 240.739972 125.032497 
L 240.46414 125.105855 
L 240.050392 125.479631 
L 239.774559 125.229865 
L 239.636643 125.252571 
L 239.222895 125.572201 
L 238.671231 125.421992 
L 238.119566 124.884035 
L 238.119566 124.885782 
L 237.705818 125.411513 
L 236.602489 124.669202 
L 236.18874 124.421183 
L 235.912908 124.681428 
L 235.223328 124.712867 
L 234.809579 124.302413 
L 234.671663 124.40197 
L 234.533747 124.354811 
L 234.257915 124.06662 
L 233.01667 124.178403 
L 232.878753 124.017715 
L 232.465005 124.171417 
L 232.189173 124.089326 
L 231.913341 124.012475 
L 231.775425 123.8448 
L 231.499592 124.017715 
L 231.361676 123.795895 
L 231.22376 123.811614 
L 230.810012 123.532156 
L 230.534179 123.523423 
L 230.120431 123.547876 
L 229.844599 123.713804 
L 229.706683 123.790655 
L 229.568767 123.699831 
L 229.155018 123.098996 
L 228.603354 122.987213 
L 228.327522 123.001185 
L 227.913773 122.814298 
L 227.637941 122.72522 
L 227.500025 122.658849 
L 226.94836 121.949724 
L 226.534612 121.486871 
L 225.982948 121.422246 
L 225.845031 121.292997 
L 225.431283 121.509577 
L 225.017535 121.998629 
L 224.741702 122.028321 
L 224.46587 122.363671 
L 224.327954 122.384631 
L 224.190038 122.066747 
L 223.914206 122.017842 
L 223.914206 122.145345 
L 223.500457 122.75142 
L 223.224625 122.845737 
L 222.672961 122.933067 
L 222.397128 123.058824 
L 221.845464 122.765393 
L 221.569632 122.517373 
L 220.328387 123.306843 
L 220.052554 123.247458 
L 219.638806 123.476264 
L 219.362974 123.360988 
L 219.087142 123.561848 
L 218.673393 123.624727 
L 218.535477 123.539142 
L 217.983813 123.692845 
L 217.845896 123.638699 
L 217.570064 123.684111 
L 217.294232 123.490237 
L 217.156316 123.462291 
L 216.742568 123.025638 
L 216.742568 123.093756 
L 216.466735 123.027385 
L 216.052987 122.800325 
L 215.22549 122.283327 
L 214.397993 121.043231 
L 214.122161 121.20916 
L 213.846329 121.031005 
L 213.432581 120.272974 
L 212.467168 119.535903 
L 211.639671 118.21721 
L 211.363839 117.646067 
L 211.088007 117.354383 
L 210.812174 116.535221 
L 210.536342 116.199871 
L 210.26051 115.455813 
L 210.122594 115.382456 
L 209.846762 114.66809 
L 209.433013 113.000074 
L 209.157181 112.280469 
L 208.605516 110.443031 
L 206.950523 104.066144 
L 204.743865 92.790005 
L 204.054285 88.447922 
L 202.537207 79.538445 
L 202.537207 78.665138 
L 201.70971 73.489921 
L 200.054717 63.735082 
L 199.22722 59.267244 
L 198.53764 55.305923 
L 197.434311 48.764854 
L 196.882646 46.185105 
L 195.779317 41.738226 
L 195.503485 41.015128 
L 195.503485 40.492891 
L 194.813905 38.770729 
L 194.400156 37.921875 
L 193.848492 36.868667 
L 193.434743 36.363895 
L 193.158911 36.220673 
L 192.745163 35.913269 
L 192.331414 35.467882 
L 192.055582 35.307194 
L 191.77975 35.406751 
L 191.366002 35.209384 
L 191.090169 35.331647 
L 190.262673 36.426774 
L 190.124756 36.344683 
L 189.98684 36.416294 
L 189.711008 36.800549 
L 189.435176 36.910586 
L 188.331847 38.199587 
L 187.918099 39.210876 
L 187.780182 39.361085 
L 187.50435 39.933974 
L 187.228518 40.435252 
L 185.435608 44.677778 
L 185.159776 45.014874 
L 184.883944 45.760678 
L 184.470196 47.274993 
L 183.366867 49.865221 
L 182.263538 51.795229 
L 181.849789 52.348906 
L 181.298125 53.335743 
L 180.884376 54.614264 
L 180.608544 55.143488 
L 180.332712 55.314656 
L 179.918964 56.226389 
L 179.643131 56.240362 
L 178.815635 57.220212 
L 178.401886 57.883925 
L 178.26397 57.939817 
L 175.367732 62.105491 
L 175.229816 62.126451 
L 174.126487 64.189202 
L 174.126487 64.482633 
L 173.850654 64.657294 
L 173.574822 65.097441 
L 173.29899 65.261623 
L 173.161074 65.259876 
L 172.747325 65.885164 
L 172.333577 65.982974 
L 171.919829 66.103491 
L 171.643996 66.472026 
L 171.368164 66.741005 
L 170.8165 67.078101 
L 170.540667 67.436157 
L 170.402751 67.33136 
L 169.299422 68.244839 
L 169.161506 68.211654 
L 168.33401 69.560039 
L 167.920261 70.234232 
L 167.644429 70.092757 
L 167.506513 69.87443 
L 166.954848 70.139915 
L 166.954848 70.419374 
L 166.679016 70.932878 
L 166.403184 71.238535 
L 166.265268 71.203603 
L 165.299855 72.307463 
L 165.161939 72.321436 
L 165.024023 72.20616 
L 164.74819 72.330169 
L 164.472358 72.487364 
L 164.196526 72.522297 
L 163.920694 73.068987 
L 163.644861 73.084706 
L 163.369029 73.771126 
L 163.093197 73.73794 
L 162.955281 73.795578 
L 162.679449 73.690781 
L 161.300287 75.587604 
L 160.748623 75.294173 
L 160.472791 75.453115 
L 160.196958 75.634763 
L 160.059042 75.828637 
L 159.78321 75.680175 
L 159.78321 75.667948 
L 159.369462 75.947407 
L 159.231546 75.854836 
L 158.955713 76.087136 
L 158.679881 76.123815 
L 158.541965 76.083642 
L 158.128217 76.660025 
L 157.852384 76.860886 
L 157.714468 76.759582 
L 157.30072 76.904551 
L 157.162804 76.883592 
L 156.749056 77.119385 
L 156.611139 77.082706 
L 155.50781 78.001425 
L 155.231978 77.954266 
L 154.956146 78.198792 
L 154.266565 78.183072 
L 153.990733 78.47825 
L 153.714901 78.595273 
L 153.439069 78.679111 
L 153.163236 78.427598 
L 152.749488 78.015397 
L 152.473656 78.361227 
L 151.094495 78.68959 
L 150.818662 78.902677 
L 150.680746 78.80312 
L 149.991166 78.960316 
L 149.715333 78.590033 
L 149.577417 78.635445 
L 149.301585 78.464277 
L 148.06034 78.47825 
L 147.922424 78.616233 
L 147.784508 78.579554 
L 147.646592 78.418865 
L 147.232843 78.81884 
L 146.819095 78.520169 
L 146.543263 78.418865 
L 146.129514 78.810107 
L 145.991598 78.93761 
L 145.715766 78.981275 
L 145.57785 79.14895 
L 145.439934 78.969049 
L 144.612437 79.79345 
L 144.198689 79.631015 
L 143.922856 79.959379 
L 143.233276 80.26329 
L 142.957444 80.771554 
L 142.543695 80.722649 
L 142.405779 80.722649 
L 142.129947 80.471137 
L 141.440366 81.056252 
L 141.164534 81.02656 
L 141.026618 80.960189 
L 140.750786 80.638812 
L 140.474953 80.630078 
L 140.199121 80.92351 
L 139.785373 81.316498 
L 138.957876 81.581983 
L 138.81996 81.471946 
L 138.406212 81.646608 
L 138.406212 81.571503 
L 138.130379 81.705993 
L 137.716631 82.317308 
L 137.302883 82.479743 
L 137.02705 82.5793 
L 136.751218 82.673617 
L 136.475386 82.427344 
L 136.199554 82.68759 
L 135.647889 82.598512 
L 135.372057 82.755708 
L 134.54456 83.398462 
L 134.130812 83.11027 
L 133.717064 83.160922 
L 133.579147 83.042152 
L 133.027483 83.636001 
L 132.337902 83.843848 
L 132.199986 83.974844 
L 131.648322 83.753024 
L 131.510406 83.829875 
L 131.234573 83.728572 
L 131.096657 83.821142 
L 130.958741 83.705866 
L 130.682909 83.805423 
L 130.544993 83.985324 
L 129.303748 83.180135 
L 128.752083 83.431647 
L 128.476251 83.393222 
L 128.200419 83.13123 
L 127.924587 83.075338 
L 127.648754 82.88845 
L 127.510838 82.788893 
L 126.821258 83.387982 
L 126.131677 82.584539 
L 125.580012 82.912903 
L 125.442096 82.858758 
L 125.30418 82.979274 
L 124.476684 82.673617 
L 124.338767 82.525155 
L 124.062935 81.728699 
L 123.787103 81.510372 
L 123.511271 81.14009 
L 123.235438 81.384616 
L 122.545858 80.689463 
L 122.270026 80.708676 
L 121.994193 80.45367 
L 121.580445 80.712169 
L 121.442529 80.617852 
L 121.166697 80.125307 
L 120.3392 79.493033 
L 119.925452 79.311385 
L 119.511703 78.810107 
L 119.373787 78.769935 
L 118.960039 78.184819 
L 118.270458 76.983149 
L 117.718794 76.413752 
L 117.167129 76.036484 
L 117.167129 75.762265 
L 116.891297 75.433902 
L 116.339632 74.752723 
L 115.925884 74.361481 
L 115.650052 73.912601 
L 115.236304 72.957204 
L 114.960471 72.606134 
L 114.684639 72.588668 
L 113.719226 71.404464 
L 113.58131 71.259495 
L 112.891729 69.748674 
L 112.477981 68.980164 
L 111.926317 67.540954 
L 111.512568 66.734018 
L 111.09882 65.948042 
L 110.409239 65.23193 
L 109.30591 62.723793 
L 108.61633 61.102935 
L 108.478414 61.134374 
L 108.340498 60.849676 
L 107.650917 58.371231 
L 106.409672 55.360068 
L 105.720091 53.983737 
L 104.754678 52.013556 
L 104.478846 51.718378 
L 104.203014 50.87651 
L 103.789266 49.622442 
L 102.272188 46.050616 
L 101.996356 45.59999 
L 101.85844 45.516152 
L 101.306775 44.317975 
L 100.893027 43.282233 
L 100.203446 41.94782 
L 99.238034 40.044011 
L 98.962201 39.76106 
L 98.410537 38.788196 
L 98.134705 38.480792 
L 97.720956 37.614471 
L 96.755543 35.480109 
L 96.203879 35.069655 
L 95.790131 34.119497 
L 95.790131 33.845278 
L 95.514298 33.357973 
L 94.962634 32.814776 
L 94.686802 32.329217 
L 94.273053 32.355417 
L 94.135137 32.416548 
L 91.790563 30.542431 
L 91.514731 30.257733 
L 91.238899 30.100538 
L 90.963066 30.170402 
L 90.549318 30.023687 
L 90.273486 30.166909 
L 89.583905 30.170402 
L 89.308073 29.894437 
L 88.894325 30.236774 
L 88.618492 30.070846 
L 88.618492 30.137217 
L 88.34266 30.112764 
L 88.204744 30.063859 
L 87.928912 30.255987 
L 87.239331 30.329344 
L 87.101415 30.530205 
L 86.963499 30.530205 
L 86.687667 30.280439 
L 86.411835 30.336331 
L 86.136002 30.839356 
L 85.86017 30.975592 
L 85.584338 31.389539 
L 85.032673 31.756328 
L 84.756841 32.123117 
L 84.343093 32.182502 
L 84.06726 32.486413 
L 83.515596 33.088994 
L 82.826015 34.400701 
L 82.550183 34.503752 
L 81.998519 35.445177 
L 81.722686 36.21194 
L 81.446854 36.507118 
L 81.446854 36.812775 
L 81.171022 37.270388 
L 80.481441 37.74896 
L 80.067693 38.554149 
L 78.688532 40.290284 
L 78.274783 40.51909 
L 77.998951 41.037834 
L 77.723119 41.355718 
L 76.895622 42.955616 
L 76.206042 43.332885 
L 74.964797 45.37293 
L 74.688964 45.748452 
L 74.413132 46.209558 
L 74.413132 46.092535 
L 73.861468 46.611279 
L 73.309803 46.59556 
L 72.896055 47.283726 
L 72.620223 47.400749 
L 72.206474 47.945692 
L 72.068558 47.811203 
L 71.930642 47.938706 
L 71.65481 47.940452 
L 71.241061 48.071449 
L 70.827313 48.073195 
L 70.413565 48.909823 
L 70.275649 48.9989 
L 69.8619 48.880131 
L 69.586068 49.091471 
L 69.310236 49.185788 
L 68.620655 49.936832 
L 68.068991 50.067828 
L 67.655242 50.668663 
L 67.241494 51.154222 
L 67.241494 51.190901 
L 66.827746 51.653754 
L 66.689829 51.580396 
L 66.413997 51.791736 
L 66.138165 51.910506 
L 65.5865 52.231883 
L 65.310668 51.961158 
L 65.172752 52.036262 
L 64.345255 53.141869 
L 64.207339 53.182041 
L 64.069423 53.353209 
L 63.241926 53.320023 
L 62.41443 53.943564 
L 62.138597 53.877193 
L 61.862765 53.767156 
L 61.724849 53.702532 
L 61.311101 53.056285 
L 60.897352 52.717442 
L 60.759436 52.539287 
L 60.483604 52.616138 
L 60.207772 52.617885 
L 60.207772 52.748881 
L 59.794023 53.222213 
L 59.518191 53.360195 
L 59.104443 53.629174 
L 58.276946 53.077244 
L 57.863198 53.229199 
L 57.587366 53.41434 
L 57.449449 53.458006 
L 57.173617 53.817808 
L 56.759869 53.632667 
L 56.208204 54.247475 
L 55.932372 54.196823 
L 55.65654 54.020415 
L 55.518624 53.927845 
L 55.242792 54.034388 
L 54.966959 54.259702 
L 54.553211 54.429123 
L 54.415295 54.514707 
L 53.587798 53.885926 
L 53.311966 54.093773 
L 53.036134 54.121719 
L 53.036134 54.235249 
L 52.760301 54.10076 
L 52.070721 53.669346 
L 51.243224 54.278914 
L 50.69156 53.983737 
L 50.553643 54.043121 
L 50.277811 53.915619 
L 49.726147 53.849247 
L 49.450314 54.174118 
L 49.174482 54.18809 
L 48.346986 54.633477 
L 48.209069 54.650943 
L 48.071153 54.809885 
L 47.657405 55.580142 
L 46.967824 56.62287 
L 46.140328 56.575712 
L 45.174915 57.29357 
L 45.864495 58.38171 
L 45.864495 58.544146 
L 46.140328 58.781685 
L 46.967824 59.555435 
L 47.381573 59.649752 
L 48.209069 59.808694 
L 49.036566 60.287266 
L 49.450314 60.327438 
L 49.726147 60.778065 
L 50.967392 62.584064 
L 51.243224 62.865268 
L 51.794889 64.089645 
L 51.932805 64.140297 
L 52.070721 64.037246 
L 52.484469 64.456434 
L 53.036134 65.221451 
L 53.036134 65.399605 
L 53.17405 65.338474 
L 53.311966 65.420565 
L 53.86363 66.283392 
L 54.139463 66.288632 
L 54.277379 66.171608 
L 54.553211 66.367229 
L 54.966959 66.948852 
L 55.380708 67.387252 
L 55.518624 67.334853 
L 55.65654 67.464103 
L 55.932372 67.437904 
L 56.070288 67.554927 
L 56.208204 67.516501 
L 56.897785 68.281518 
L 57.311533 68.698959 
L 57.725282 69.205477 
L 58.001114 69.476202 
L 59.104443 69.85871 
L 59.380275 69.792339 
L 59.794023 70.443826 
L 60.483604 71.266481 
L 60.62152 71.243775 
L 60.897352 71.413197 
L 61.035269 71.486555 
L 61.724849 72.558976 
L 62.41443 72.541509 
L 62.552346 72.705691 
L 62.828178 73.482934 
L 63.10401 73.617424 
L 63.241926 73.472455 
L 63.655675 73.587731 
L 64.483172 72.780796 
L 64.89692 73.266354 
L 65.172752 72.972923 
L 65.448584 73.121385 
L 65.862333 73.858456 
L 66.276081 74.027878 
L 66.551913 73.989452 
L 66.689829 73.930067 
L 66.827746 74.017398 
L 67.103578 74.433092 
L 67.37941 74.656659 
L 67.793158 75.332598 
L 67.931075 75.465341 
L 68.206907 75.397223 
L 68.482739 75.135231 
L 68.620655 75.091566 
L 69.448152 75.987579 
L 69.8619 76.322929 
L 70.551481 76.008538 
L 71.103145 76.815474 
L 71.378977 76.771808 
L 72.620223 77.891388 
L 72.896055 78.207525 
L 73.033971 78.382186 
L 73.447719 78.434585 
L 73.723552 78.640685 
L 73.999384 78.970795 
L 74.275216 78.766441 
L 74.413132 78.80836 
L 74.413132 78.970795 
L 74.82688 79.512246 
L 75.102713 79.515739 
L 75.240629 79.493033 
L 75.654377 80.01527 
L 75.930209 80.142773 
L 76.206042 80.45891 
L 76.757706 80.68073 
L 77.171455 81.080705 
L 77.309371 81.038786 
L 77.585203 81.409068 
L 77.998951 82.259669 
L 78.274783 82.360973 
L 78.4127 82.278882 
L 79.10228 82.848278 
L 79.378112 82.820332 
L 80.481441 83.669187 
L 80.757274 83.508498 
L 81.171022 83.496272 
L 81.308938 83.401955 
L 82.826015 84.832432 
L 83.239764 84.923255 
L 83.37768 84.851644 
L 84.06726 85.586969 
L 84.481009 85.98869 
L 85.308506 86.43233 
L 85.722254 86.961554 
L 85.998086 87.167654 
L 86.273918 87.43838 
L 86.411835 87.54143 
L 86.963499 88.404257 
L 87.239331 88.64529 
L 87.515163 88.479361 
L 88.480576 89.677539 
L 88.618492 89.735177 
L 88.618492 89.956997 
L 89.859738 91.223292 
L 90.13557 91.265211 
L 90.687234 91.756009 
L 90.82515 91.773475 
L 91.514731 92.693941 
L 91.928479 92.962919 
L 92.066395 93.203952 
L 92.480144 93.286043 
L 92.893892 93.734923 
L 93.031808 94.019621 
L 93.307641 94.126164 
L 93.859305 94.924367 
L 93.997221 95.181119 
L 94.410969 96.277993 
L 95.376382 97.720696 
L 95.514298 97.738162 
L 96.065963 98.789623 
L 96.203879 98.731985 
L 96.479711 98.964285 
L 96.617627 99.027163 
L 97.169292 99.813139 
L 97.445124 100.379042 
L 97.996789 100.972891 
L 98.134705 100.99909 
L 98.410537 101.364132 
L 98.686369 101.957981 
L 99.238034 102.448779 
L 100.203446 104.066144 
L 100.893027 104.328136 
L 101.444692 105.339426 
L 101.720524 105.886116 
L 102.272188 106.034578 
L 102.548021 106.348968 
L 102.823853 106.949804 
L 102.823853 107.199569 
L 103.237601 107.901708 
L 103.375517 108.135754 
L 103.513433 108.100822 
L 104.754678 109.704214 
L 104.892595 109.82473 
L 105.030511 109.686748 
L 105.306343 109.779318 
L 105.582175 109.987165 
L 106.685504 111.216781 
L 106.961336 111.866522 
L 107.237169 111.870015 
L 107.650917 112.292696 
L 107.926749 112.208858 
L 108.340498 112.455131 
L 108.478414 112.324135 
L 108.892162 112.759041 
L 109.995491 114.248903 
L 109.995491 114.386886 
L 110.822988 115.385949 
L 110.960904 115.256699 
L 111.236736 115.616502 
L 111.512568 115.698593 
L 111.788401 115.855788 
L 112.753813 117.132563 
L 113.029646 116.99458 
L 113.443394 117.261812 
L 113.719226 117.391062 
L 113.995058 117.099377 
L 114.546723 117.747371 
L 115.098387 118.180531 
L 115.236304 118.264368 
L 115.37422 118.182278 
L 115.650052 118.318514 
L 116.339632 118.168305 
L 116.753381 117.799769 
L 116.891297 117.825968 
L 117.029213 118.065254 
L 117.305045 118.154332 
L 117.580878 118.232929 
L 117.85671 118.304541 
L 117.994626 118.349953 
L 118.132542 118.575266 
L 118.408374 118.604958 
L 118.54629 118.653863 
L 119.235871 119.593542 
L 119.787535 119.637207 
L 119.925452 119.563849 
L 120.201284 119.740257 
L 120.615032 119.368228 
L 121.028781 119.66166 
L 121.304613 119.565596 
L 121.580445 119.593542 
L 121.718361 119.541143 
L 121.856277 119.644193 
L 121.994193 119.605768 
L 122.132109 119.742004 
L 122.82169 119.404907 
L 123.097522 119.231993 
L 123.649187 118.926335 
L 124.476684 119.013666 
L 124.752516 119.242472 
L 125.028348 119.198807 
L 125.580012 119.747244 
L 126.407509 118.97 
L 126.683341 118.971747 
L 126.959174 118.674823 
L 127.235006 118.484442 
L 127.372922 118.409337 
L 127.510838 118.568279 
L 127.648754 118.53684 
L 128.200419 117.722918 
L 129.717496 116.949168 
L 129.993328 116.99982 
L 130.269161 117.0103 
L 130.407077 117.022526 
L 130.820825 116.385012 
L 131.096657 116.264496 
L 131.924154 115.864521 
L 132.199986 115.639208 
L 132.475818 115.190328 
L 132.751651 114.758914 
L 133.303315 114.68905 
L 133.579147 114.860218 
L 133.717064 114.806073 
L 134.130812 115.089024 
L 134.406644 114.978988 
L 135.372057 114.241917 
L 135.647889 114.144106 
L 135.923721 113.896087 
L 136.199554 113.951979 
L 136.889134 114.322261 
L 137.302883 114.254143 
L 137.578715 114.039309 
L 137.992463 113.800023 
L 138.130379 113.777317 
L 138.682044 113.277786 
L 138.957876 113.26032 
L 139.233708 112.938943 
L 139.509541 113.160763 
L 139.785373 112.897024 
L 140.61287 113.269053 
L 140.750786 113.25508 
L 141.164534 112.862092 
L 141.578282 113.045486 
L 141.716198 113.047233 
L 141.992031 113.379089 
L 142.405779 113.316211 
L 142.543695 113.309225 
L 142.819527 113.496112 
L 143.233276 113.686493 
L 143.647024 113.305732 
L 143.922856 113.380836 
L 144.198689 113.338917 
L 144.474521 113.386076 
L 144.750353 113.513579 
L 144.888269 113.740638 
L 145.026185 113.742385 
L 145.164101 113.890847 
L 145.57785 113.627109 
L 145.57785 113.562484 
L 145.715766 113.550258 
L 146.681179 114.189518 
L 147.370759 113.972938 
L 148.06034 113.305732 
L 148.336172 113.307478 
L 148.474088 113.108364 
L 148.887837 113.35813 
L 149.025753 113.36861 
L 149.163669 113.227134 
L 149.577417 113.794783 
L 149.85325 113.662041 
L 150.266998 113.179975 
L 150.680746 113.213161 
L 151.094495 113.291759 
L 151.232411 113.284772 
L 151.508243 113.090898 
L 151.646159 113.167749 
L 151.784075 113.001821 
L 152.197824 113.055966 
L 152.611572 112.856852 
L 152.749488 112.655991 
L 152.887404 112.722363 
L 153.163236 112.566914 
L 153.439069 112.685684 
L 154.128649 112.383519 
L 154.81823 112.477837 
L 155.231978 112.374786 
L 155.369894 112.439411 
L 155.921559 111.943373 
L 156.335307 112.104061 
L 156.611139 111.744259 
L 157.162804 111.966079 
L 157.714468 112.36256 
L 157.990301 112.437664 
L 158.128217 112.556434 
L 158.404049 112.278723 
L 158.541965 112.093582 
L 158.817797 112.090088 
L 159.09363 111.840323 
L 159.645294 112.318895 
L 159.78321 112.345094 
L 159.78321 112.292696 
L 160.196958 112.121527 
L 160.334875 112.147727 
L 160.610707 112.350334 
L 160.748623 112.374786 
L 160.886539 112.5739 
L 161.300287 112.636778 
L 161.57612 112.933703 
L 161.851952 112.757295 
L 161.989868 112.783494 
L 162.2657 113.253333 
L 162.403616 113.227134 
L 162.817365 113.602656 
L 163.093197 113.527552 
L 163.231113 113.462927 
L 163.920694 114.072495 
L 164.05861 114.02359 
L 164.196526 114.12664 
L 164.334442 114.372913 
L 164.472358 114.390379 
L 165.024023 114.966761 
L 165.437771 115.102997 
L 165.713603 115.277659 
L 165.989436 115.157142 
L 166.265268 115.22002 
L 166.954848 115.064572 
L 167.230681 115.261939 
L 167.368597 115.32831 
L 167.644429 115.277659 
L 167.920261 115.394682 
L 168.471926 115.871507 
L 168.609842 115.737018 
L 168.885674 116.021716 
L 169.299422 116.304668 
L 169.437339 116.3396 
L 169.575255 116.522994 
L 169.851087 116.337853 
L 169.989003 116.219084 
L 170.264835 116.486316 
L 170.678584 116.87581 
L 170.8165 116.863584 
L 171.368164 116.332613 
L 171.643996 116.461863 
L 171.781913 116.465356 
L 172.057745 116.760534 
L 172.471493 116.645257 
L 172.747325 116.9841 
L 173.023158 117.045232 
L 173.161074 116.975367 
L 173.712738 117.23212 
L 173.850654 117.431234 
L 174.126487 117.305477 
L 174.126487 117.202427 
L 174.540235 117.55699 
L 175.091899 117.829462 
L 175.229816 117.831208 
L 175.505648 118.154332 
L 175.643564 118.220703 
L 175.919396 118.138612 
L 176.471061 118.295808 
L 176.746893 118.592732 
L 177.022725 118.620678 
L 177.436473 118.856471 
L 178.677719 118.676569 
L 178.953551 118.88791 
L 179.091467 118.973494 
L 179.229383 118.908869 
L 180.608544 120.161191 
L 180.884376 120.484315 
L 181.160209 120.617057 
L 181.160209 120.676442 
L 181.436041 120.898262 
L 181.987705 121.001312 
L 182.401454 121.427486 
L 182.677286 121.476391 
L 182.953118 121.520057 
L 183.091034 121.731397 
L 183.366867 121.823968 
L 183.504783 121.953217 
L 184.056447 122.974986 
L 184.470196 123.263178 
L 185.297692 125.004552 
L 185.435608 125.069176 
L 187.50435 129.727396 
L 188.056015 131.928129 
L 188.193931 132.188375 
L 188.331847 132.722838 
L 188.331847 133.22237 
L 189.98684 139.057807 
L 190.814337 142.103902 
L 191.228085 144.381486 
L 191.641834 146.341187 
L 192.46933 150.602925 
L 193.020995 153.828921 
L 193.296827 155.222719 
L 193.986408 159.412846 
L 194.813905 163.431804 
L 195.503485 167.489188 
L 195.503485 168.399174 
L 197.020562 177.692907 
L 197.434311 180.019397 
L 197.848059 182.317941 
L 198.813472 187.323736 
L 200.054717 193.125987 
L 201.02013 195.971222 
L 201.433878 196.884701 
L 201.70971 197.55016 
L 202.399291 198.980637 
L 202.537207 199.184991 
L 202.537207 199.429517 
L 202.813039 199.719455 
L 203.088872 200.203267 
L 203.226788 200.218987 
L 204.054285 201.710595 
L 204.330117 201.565626 
L 204.605949 201.53768 
L 204.881781 201.08356 
L 205.157613 201.008456 
L 205.29553 201.050375 
L 205.571362 200.924619 
L 205.847194 200.879207 
L 206.536775 199.523834 
L 206.674691 199.403318 
L 206.950523 199.403318 
L 207.77802 197.585093 
L 208.329684 196.968538 
L 209.708845 192.951326 
L 209.708845 192.649162 
L 210.674258 190.0764 
L 211.088007 188.808358 
L 214.122161 180.754721 
L 214.397993 179.937306 
L 214.811742 179.030813 
L 215.22549 177.794211 
L 215.639239 176.892958 
L 216.466735 174.774315 
L 217.70798 172.011172 
L 217.845896 171.984973 
L 218.121729 171.576265 
L 218.673393 170.675012 
L 220.052554 168.96857 
L 220.19047 168.898706 
L 220.742135 167.604465 
L 221.707548 167.059521 
L 221.98338 166.809756 
L 222.672961 166.413274 
L 222.948793 166.006313 
L 223.500457 165.882304 
L 223.77629 165.508528 
L 225.845031 163.213478 
L 226.25878 162.403049 
L 226.810444 162.245853 
L 228.051689 161.934956 
L 228.327522 161.403986 
L 228.465438 161.452891 
L 228.74127 161.728856 
L 229.017102 161.573407 
L 229.292934 161.344601 
L 229.430851 161.459877 
L 230.120431 161.171686 
L 230.396263 161.309668 
L 231.085844 160.991785 
L 231.085844 160.801404 
L 231.361676 160.761232 
L 232.602921 159.468737 
L 232.878753 159.000645 
L 233.01667 159.112428 
L 234.119999 158.453955 
L 234.533747 158.647829 
L 234.809579 158.230388 
L 234.947495 158.305492 
L 235.912908 157.804214 
L 236.18874 157.578901 
L 236.326656 157.680205 
L 236.464573 157.633046 
L 237.016237 156.962346 
L 237.154153 156.976319 
L 237.292069 157.103822 
L 238.119566 156.682888 
L 238.119566 156.550145 
L 238.257482 156.63573 
L 238.671231 156.134451 
L 238.809147 156.188596 
L 239.222895 156.094279 
L 240.050392 155.900405 
L 241.153721 154.770346 
L 241.429553 154.883876 
L 242.25705 154.616644 
L 243.084546 153.537236 
L 243.360379 153.556449 
L 243.636211 153.345109 
L 243.774127 153.336376 
L 244.325791 152.812392 
L 244.601624 152.906709 
L 244.73954 152.77222 
L 244.877456 152.796672 
L 245.153288 152.504988 
L 245.291204 152.440363 
L 245.704953 152.765233 
L 246.256617 152.787939 
L 246.808282 153.079624 
L 246.946198 153.034212 
L 247.22203 152.721568 
L 247.359946 152.704102 
L 247.497862 152.569612 
L 247.635778 152.601051 
L 247.911611 152.353032 
L 248.739107 151.31205 
L 248.877023 151.409861 
L 249.014939 151.188041 
L 249.290772 151.250919 
L 249.70452 151.186294 
L 249.842436 151.233453 
L 250.118268 150.98718 
L 250.532017 150.938275 
L 250.807849 150.515594 
L 251.083681 150.106887 
L 251.359514 150.024796 
L 251.49743 150.168018 
L 251.773262 150.030036 
L 252.462842 149.965411 
L 252.462842 149.673726 
L 252.738675 149.532251 
L 252.876591 149.469373 
L 253.014507 149.530504 
L 253.290339 149.329644 
L 253.428255 149.406495 
L 253.704088 149.380295 
L 254.255752 149.420467 
L 254.531584 149.319164 
L 255.083249 149.399508 
L 255.359081 148.926176 
L 255.634913 149.037959 
L 256.048662 148.688636 
L 256.738242 148.650211 
L 257.014074 148.367259 
L 257.151991 148.494762 
L 257.565739 148.244996 
L 257.979487 147.644161 
L 258.255319 147.57779 
L 258.393236 147.666867 
L 258.531152 147.610975 
L 258.669068 147.682587 
L 258.9449 147.544604 
L 259.082816 147.534124 
L 259.634481 146.500129 
L 259.910313 146.568247 
L 260.048229 146.531568 
L 260.186145 146.23115 
L 260.599894 146.213684 
L 260.875726 146.362147 
L 261.289474 146.491396 
L 261.565306 146.290535 
L 262.254887 146.950755 
L 262.668635 146.667804 
L 262.944468 146.330707 
L 263.2203 146.229404 
L 263.634048 146.044263 
L 263.90988 146.309748 
L 264.461545 146.437251 
L 264.737377 146.615406 
L 265.289042 145.621582 
L 265.426958 145.59713 
L 265.564874 145.69494 
L 265.840706 145.481853 
L 266.116538 145.602369 
L 266.392371 146.007584 
L 266.668203 145.934226 
L 266.668203 145.693193 
L 266.944035 145.787511 
L 267.633616 145.644288 
L 268.461112 145.338631 
L 268.736945 144.992801 
L 269.012777 145.205888 
L 269.288609 145.146503 
L 269.426525 145.062666 
L 269.702357 145.405002 
L 271.219435 145.102838 
L 271.495267 145.12729 
L 272.184848 144.933416 
L 272.322764 144.641732 
L 272.46068 144.676664 
L 272.736512 144.512482 
L 273.012344 144.868792 
L 273.564009 144.70461 
L 273.977757 144.68889 
L 274.253589 144.888004 
L 274.529422 144.673171 
L 274.805254 144.608546 
L 274.94317 144.377993 
L 275.081086 144.46707 
L 275.219002 144.416419 
L 275.770667 143.691574 
L 276.598163 143.654895 
L 276.73608 143.7038 
L 277.149828 143.090739 
L 277.287744 143.160603 
L 277.977325 142.977209 
L 278.528989 142.923064 
L 278.942737 143.143137 
L 279.21857 142.921317 
L 279.356486 143.015634 
L 280.183983 142.685524 
L 280.459815 143.003408 
L 281.011479 142.482917 
L 281.149395 142.428772 
L 281.287311 142.254111 
L 281.563144 142.336201 
L 281.976892 142.233151 
L 282.114808 142.414799 
L 282.252724 142.348428 
L 282.528557 142.404319 
L 282.804389 142.413052 
L 282.942305 142.318735 
L 283.080221 142.440998 
L 283.356053 142.081196 
L 283.769802 141.965919 
L 284.18355 142.025304 
L 284.459382 141.808724 
L 284.735214 141.829683 
L 285.011047 141.635809 
L 285.424795 142.126608 
L 285.838543 142.121368 
L 285.97646 142.273323 
L 286.803956 141.427962 
L 287.079788 141.492587 
L 287.355621 141.426216 
L 287.631453 141.396523 
L 288.183117 140.785208 
L 288.321034 140.680411 
L 288.596866 140.890005 
L 289.14853 140.329342 
L 289.562279 140.383487 
L 289.700195 140.242011 
L 289.838111 140.27869 
L 290.389775 139.993992 
L 290.665608 139.962553 
L 291.217272 140.310129 
L 291.63102 140.367768 
L 291.906853 140.121495 
L 292.320601 140.434139 
L 293.42393 140.374754 
L 294.113511 140.297903 
L 294.803091 140.753769 
L 294.941007 140.713597 
L 295.078923 140.821887 
L 295.078923 140.711851 
L 295.354756 140.519723 
L 296.044336 140.416673 
L 296.458085 140.193106 
L 296.596001 140.327595 
L 296.733917 140.221052 
L 297.147665 140.374754 
L 297.285581 140.217559 
L 297.69933 140.215812 
L 297.837246 140.126735 
L 298.113078 140.158174 
L 298.250994 140.203586 
L 298.940575 140.928431 
L 299.492239 140.282183 
L 299.630155 140.266464 
L 299.768071 140.364274 
L 300.18182 140.93367 
L 300.319736 140.94415 
L 300.595568 141.248061 
L 301.009317 141.148504 
L 301.147233 141.036721 
L 301.285149 141.139771 
L 301.423065 141.075146 
L 301.560981 141.178196 
L 302.250562 140.71709 
L 302.250562 140.648972 
L 302.802226 140.977336 
L 302.940142 141.034974 
L 303.078058 140.8411 
L 303.215974 140.874286 
L 303.629723 141.288233 
L 304.043471 141.211382 
L 304.319303 141.60437 
L 304.45722 141.553718 
L 305.008884 140.778222 
L 305.284716 140.594827 
L 305.560549 140.85158 
L 306.388045 140.61404 
L 306.801794 140.628013 
L 307.215542 140.764249 
L 307.767206 140.18088 
L 308.180955 140.334582 
L 308.318871 140.271704 
L 308.870535 140.790448 
L 309.008451 140.662945 
L 309.4222 140.95987 
L 309.4222 140.781715 
L 309.560116 140.731063 
L 310.11178 141.003535 
L 310.387613 140.837607 
L 310.663445 141.045454 
L 310.801361 140.910964 
L 311.077193 141.118812 
L 311.353026 141.323165 
L 311.766774 141.230595 
L 312.732187 140.572121 
L 313.421767 141.366831 
L 313.559683 141.218369 
L 313.6976 141.241075 
L 314.111348 140.921444 
L 314.38718 140.905725 
L 314.663012 140.697878 
L 315.214677 141.319672 
L 315.352593 141.225355 
L 316.455922 142.271577 
L 316.731754 142.578981 
L 317.145503 142.479424 
L 317.283419 142.585967 
L 317.559251 143.061046 
L 318.110915 142.877652 
L 318.386748 143.247934 
L 318.66258 143.438315 
L 319.214244 143.810344 
L 319.765909 143.883701 
L 320.179657 144.498509 
L 320.731322 144.93691 
L 321.282986 145.976145 
L 321.972567 146.363893 
L 322.386315 146.646845 
L 322.93798 147.888687 
L 323.351728 148.145439 
L 324.179225 149.989864 
L 324.317141 150.061475 
L 325.696302 153.242059 
L 326.11005 154.284787 
L 326.523799 155.636666 
L 326.661715 155.889925 
L 326.799631 155.895165 
L 327.075463 156.50648 
L 327.627128 158.661802 
L 328.040876 160.254714 
L 328.454624 161.631045 
L 328.730457 162.392569 
L 330.799198 170.615627 
L 330.799198 171.066254 
L 331.764611 175.998691 
L 335.764179 203.156791 
L 337.83292 220.96876 
L 339.212082 232.202981 
L 342.246236 252.685522 
L 342.659985 255.165714 
L 343.073733 257.761182 
L 343.349565 258.924427 
L 344.177062 263.158219 
L 345.556223 269.136878 
L 345.832055 269.484455 
L 346.107888 269.685315 
L 346.659552 270.867773 
L 347.624965 271.814437 
L 348.038713 271.638029 
L 348.314546 271.679948 
L 349.142042 270.993529 
L 350.107455 268.930778 
L 350.521203 268.153535 
L 350.934952 267.592872 
L 351.210784 267.033955 
L 352.176197 263.690936 
L 352.727861 262.314604 
L 353.14161 260.850942 
L 353.83119 258.320098 
L 354.244939 257.387407 
L 354.658687 256.402316 
L 354.796603 256.182243 
L 355.210352 255.043451 
L 356.037848 252.687269 
L 356.589513 250.902229 
L 357.003261 250.10228 
L 357.417009 249.085751 
L 358.244506 247.513798 
L 358.658255 246.216064 
L 359.485751 244.399586 
L 359.623667 244.238897 
L 359.761583 244.279069 
L 360.037416 243.833683 
L 360.451164 243.295726 
L 360.726996 242.986575 
L 361.278661 242.383993 
L 361.692409 242.317622 
L 362.244074 241.419862 
L 362.795738 240.93081 
L 363.07157 240.722963 
L 363.623235 239.902055 
L 363.761151 239.963186 
L 364.036983 239.680235 
L 364.312815 238.927444 
L 364.588648 238.443632 
L 364.86448 237.910915 
L 365.002396 237.886462 
L 365.416144 237.372958 
L 366.105725 235.965187 
L 366.519473 235.212396 
L 366.795306 235.049961 
L 367.484886 233.598525 
L 367.898635 232.416067 
L 368.174467 231.827459 
L 368.726131 230.383009 
L 369.277796 228.873934 
L 369.553628 228.114157 
L 369.82946 227.529042 
L 368.174467 221.903198 
L 367.898635 221.197566 
L 364.86448 210.427945 
L 362.519906 202.547223 
L 361.278661 198.636554 
L 360.58908 196.528391 
L 359.8995 194.621089 
L 359.347835 192.724266 
L 359.209919 192.228228 
L 359.209919 191.625646 
L 358.796171 190.7209 
L 358.658255 190.600384 
L 358.10659 189.045897 
L 357.554926 187.454732 
L 356.451597 184.775426 
L 355.762016 182.780793 
L 355.348268 181.933685 
L 354.934519 180.763454 
L 354.107023 177.516499 
L 352.589945 171.309033 
L 352.176197 169.270735 
L 352.038281 168.594795 
L 352.038281 167.945055 
L 351.624532 165.835145 
L 350.65912 160.780444 
L 349.417875 152.071827 
L 349.004126 149.10433 
L 347.0733 133.924509 
L 346.521636 129.226117 
L 345.280391 118.30978 
L 345.004559 115.91168 
L 345.004559 114.554561 
L 342.659985 94.517406 
L 340.315411 78.343761 
L 339.212082 72.646306 
L 337.970837 67.394238 
L 337.83292 67.030943 
L 337.83292 66.592542 
L 337.419172 64.692227 
L 337.005424 63.384013 
L 336.729592 63.125514 
L 335.902095 61.857472 
L 335.626263 61.48719 
L 335.212514 61.080229 
L 334.798766 60.825223 
L 334.385017 61.267117 
L 333.971269 61.509896 
L 333.695437 61.529109 
L 333.557521 61.485443 
L 333.005856 62.262687 
L 332.592108 63.494049 
L 331.626695 65.969001 
L 331.488779 66.115717 
L 329.557953 72.824461 
L 328.730457 75.641749 
L 328.454624 76.453925 
L 328.040876 78.066049 
L 327.765044 78.631952 
L 327.351295 79.777731 
L 326.937547 80.965428 
L 325.558386 84.621091 
L 325.282554 85.153809 
L 324.868805 86.255922 
L 324.179225 87.640987 
L 323.351728 90.108952 
L 323.213812 90.239948 
L 322.800063 90.926367 
L 322.524231 91.265211 
L 321.007154 94.395143 
L 320.869238 94.527885 
L 320.179657 96.012507 
L 319.765909 96.56793 
L 319.490077 97.102394 
L 319.35216 97.14082 
L 319.214244 97.002837 
L 319.076328 97.074448 
L 318.66258 97.649084 
L 318.524664 97.729429 
L 317.972999 98.679587 
L 317.697167 98.925859 
L 317.559251 98.943325 
L 317.283419 99.355526 
L 317.007586 99.336313 
L 316.318006 99.89523 
L 316.18009 99.921429 
L 315.766341 100.574663 
L 315.628425 100.581649 
L 315.352593 100.420961 
L 314.938845 100.799976 
L 314.663012 100.672473 
L 314.111348 101.234883 
L 313.973432 101.152792 
L 313.6976 101.439237 
L 313.421767 101.928289 
L 313.145935 102.125656 
L 312.870103 102.459259 
L 312.594271 102.87146 
L 312.456354 102.805089 
L 311.490942 103.377978 
L 311.353026 103.402431 
L 311.077193 103.65045 
L 310.663445 104.085357 
L 310.525529 104.275738 
L 310.249697 104.169194 
L 309.835948 104.53249 
L 309.698032 104.485331 
L 309.284284 104.979623 
L 308.594703 105.784812 
L 308.456787 105.655563 
L 308.318871 105.838957 
L 308.180955 105.833717 
L 307.905123 106.155094 
L 307.767206 106.043311 
L 307.353458 106.417086 
L 306.388045 106.605721 
L 306.112213 106.934084 
L 305.836381 106.989976 
L 305.698465 107.033641 
L 305.422632 107.313099 
L 305.284716 107.250221 
L 305.1468 107.316592 
L 304.870968 107.702594 
L 304.733052 107.713074 
L 304.319303 108.296443 
L 302.66431 108.671965 
L 302.250562 109.305986 
L 302.250562 109.258827 
L 301.147233 110.402859 
L 301.009317 110.430805 
L 300.733484 110.1496 
L 300.319736 110.682317 
L 299.905988 110.937323 
L 299.492239 111.48576 
L 299.078491 111.16089 
L 298.940575 111.216781 
L 298.664743 111.543398 
L 298.113078 111.370483 
L 297.837246 111.564358 
L 297.69933 111.634222 
L 297.561414 111.503226 
L 297.285581 111.966079 
L 297.147665 111.9294 
L 296.871833 111.616756 
L 296.320168 111.625489 
L 296.044336 111.695354 
L 295.630588 111.812377 
L 295.21684 112.088342 
L 295.078923 112.04817 
L 295.078923 112.095328 
L 294.803091 112.402732 
L 294.389343 112.338107 
L 293.837678 112.678697 
L 293.148098 112.717123 
L 293.010182 112.877811 
L 292.182685 112.839386 
L 291.768937 113.12583 
L 291.63102 113.366863 
L 291.355188 113.174736 
L 291.217272 113.113604 
L 291.079356 113.188708 
L 290.803524 112.879558 
L 290.665608 113.001821 
L 290.527691 113.319704 
L 290.251859 113.447207 
L 289.14853 114.069002 
L 288.872698 113.906567 
L 288.596866 113.836702 
L 288.183117 113.700466 
L 288.045201 113.836702 
L 288.045201 113.779064 
L 287.907285 113.803517 
L 287.631453 113.600909 
L 287.493537 113.578203 
L 287.079788 114.165066 
L 286.941872 114.194758 
L 286.66604 114.355447 
L 286.252292 114.22969 
L 285.838543 113.724919 
L 285.700627 113.686493 
L 285.424795 113.81225 
L 285.148963 113.707453 
L 284.873131 113.999137 
L 284.597298 114.215717 
L 284.045634 114.100441 
L 283.907718 114.173799 
L 283.769802 114.048042 
L 283.493969 114.082975 
L 283.218137 114.760661 
L 283.080221 114.818299 
L 282.942305 114.734462 
L 282.666473 114.882924 
L 282.39064 115.075051 
L 282.114808 114.837512 
L 280.873563 115.242726 
L 280.873563 115.494239 
L 280.183983 115.703832 
L 279.770234 116.037436 
L 279.494402 116.206857 
L 279.356486 116.192884 
L 278.804821 116.701149 
L 278.666905 116.910743 
L 278.528989 116.903756 
L 278.391073 117.081911 
L 278.253157 117.020779 
L 278.115241 117.101124 
L 277.977325 117.050472 
L 277.701492 117.485379 
L 277.563576 117.502845 
L 277.42566 117.377089 
L 277.149828 117.656547 
L 277.011912 117.714185 
L 276.873996 117.506338 
L 276.73608 117.584936 
L 276.322331 117.307224 
L 275.908583 117.983164 
L 275.770667 118.023336 
L 275.632751 117.929019 
L 275.494834 117.998883 
L 275.219002 118.384885 
L 274.391505 117.805009 
L 274.253589 117.825968 
L 273.839841 118.171798 
L 273.839841 118.138612 
L 273.564009 117.89234 
L 273.288177 117.976177 
L 273.012344 117.829462 
L 272.874428 117.901073 
L 272.598596 117.614628 
L 272.046931 118.386631 
L 271.633183 118.466976 
L 271.357351 118.177038 
L 271.219435 117.946485 
L 269.840274 118.638144 
L 269.702357 118.538587 
L 269.426525 118.234676 
L 269.012777 118.64513 
L 268.323196 118.8527 
L 261.703222 116.870673 
L 261.703222 116.870673 
" clip-path="url(#p956d28479b)" style="fill: none; stroke: #1f77b4; stroke-width: 1.5; stroke-linecap: square"/>
   </g>
   <g id="patch_3">
    <path d="M 28.942188 283.910437 
L 28.942188 17.798437 
" style="fill: none; stroke: #000000; stroke-width: 0.8; stroke-linejoin: miter; stroke-linecap: square"/>
   </g>
   <g id="patch_4">
    <path d="M 386.062188 283.910437 
L 386.062188 17.798437 
" style="fill: none; stroke: #000000; stroke-width: 0.8; stroke-linejoin: miter; stroke-linecap: square"/>
   </g>
   <g id="patch_5">
    <path d="M 28.942187 283.910437 
L 386.062188 283.910437 
" style="fill: none; stroke: #000000; stroke-width: 0.8; stroke-linejoin: miter; stroke-linecap: square"/>
   </g>
   <g id="patch_6">
    <path d="M 28.942187 17.798437 
L 386.062188 17.798437 
" style="fill: none; stroke: #000000; stroke-width: 0.8; stroke-linejoin: miter; stroke-linecap: square"/>
   </g>
  </g>
 </g>
 <defs>
  <clipPath id="p956d28479b">
   <rect x="28.942188" y="17.798437" width="357.12" height="266.112"/>
  </clipPath>
 </defs>
</svg>