<?xml version="1.0" encoding="utf-8" standalone="no"?>
<!DOCTYPE svg PUBLIC "-//W3C//DTD SVG 1.1//EN"
  "http://www.w3.org/Graphics/SVG/1.1/DTD/svg11.dtd">
<svg xmlns:xlink="http://www.w3.org/1999/xlink" width="532.7175pt" height="351.99625pt" viewBox="0 0 532.7175 351.99625" xmlns="http://www.w3.org/2000/svg" version="1.1">
 <metadata>
  <rdf:RDF xmlns:dc="http://purl.org/dc/elements/1.1/" xmlns:cc="http://creativecommons.org/ns#" xmlns:rdf="http://www.w3.org/1999/02/22-rdf-syntax-ns#">
   <cc:Work>
    <dc:type rdf:resource="http://purl.org/dc/dcmitype/StillImage"/>
    <dc:date>2025-08-30T19:32:34.389486</dc:date>
    <dc:format>image/svg+xml</dc:format>
    <dc:creator>
     <cc:Agent>
      <dc:title>Matplotlib v3.10.3, https://matplotlib.org/</dc:title>
     </cc:Agent>
    </dc:creator>
   </cc:Work>
  </rdf:RDF>
 </metadata>
 <defs>
  <style type="text/css">*{stroke-linejoin: round; stroke-linecap: butt}</style>
 </defs>
 <g id="figure_1">
  <g id="patch_1">
   <path d="M 0 351.99625 
L 532.7175 351.99625 
L 532.7175 0 
L 0 0 
z
" style="fill: #ffffff"/>
  </g>
  <g id="axes_1">
   <g id="patch_2">
    <path d="M 47.1875 314.44 
L 525.5175 314.44 
L 525.5175 7.2 
L 47.1875 7.2 
z
" style="fill: #ffffff"/>
   </g>
   <g id="PathCollection_1">
    <defs>
     <path id="m27eb1ec98c" d="M 0 3 
C 0.795609 3 1.55874 2.683901 2.12132 2.12132 
C 2.683901 1.55874 3 0.795609 3 0 
C 3 -0.795609 2.683901 -1.55874 2.12132 -2.12132 
C 1.55874 -2.683901 0.795609 -3 0 -3 
C -0.795609 -3 -1.55874 -2.683901 -2.12132 -2.12132 
C -2.683901 -1.55874 -3 -0.795609 -3 0 
C -3 0.795609 -2.683901 1.55874 -2.12132 2.12132 
C -1.55874 2.683901 -0.795609 3 0 3 
z
" style="stroke: #1f77b4; stroke-opacity: 0.8"/>
    </defs>
    <g clip-path="url(#pddeb5a56b3)">
     <use xlink:href="#m27eb1ec98c" x="68.929773" y="254.45192" style="fill: #1f77b4; fill-opacity: 0.8; stroke: #1f77b4; stroke-opacity: 0.8"/>
     <use xlink:href="#m27eb1ec98c" x="113.043162" y="238.281808" style="fill: #1f77b4; fill-opacity: 0.8; stroke: #1f77b4; stroke-opacity: 0.8"/>
     <use xlink:href="#m27eb1ec98c" x="157.156551" y="213.404714" style="fill: #1f77b4; fill-opacity: 0.8; stroke: #1f77b4; stroke-opacity: 0.8"/>
     <use xlink:href="#m27eb1ec98c" x="201.238498" y="188.527619" style="fill: #1f77b4; fill-opacity: 0.8; stroke: #1f77b4; stroke-opacity: 0.8"/>
     <use xlink:href="#m27eb1ec98c" x="245.351887" y="162.406669" style="fill: #1f77b4; fill-opacity: 0.8; stroke: #1f77b4; stroke-opacity: 0.8"/>
     <use xlink:href="#m27eb1ec98c" x="289.465277" y="140.017284" style="fill: #1f77b4; fill-opacity: 0.8; stroke: #1f77b4; stroke-opacity: 0.8"/>
     <use xlink:href="#m27eb1ec98c" x="333.547224" y="116.384044" style="fill: #1f77b4; fill-opacity: 0.8; stroke: #1f77b4; stroke-opacity: 0.8"/>
     <use xlink:href="#m27eb1ec98c" x="377.660613" y="92.750804" style="fill: #1f77b4; fill-opacity: 0.8; stroke: #1f77b4; stroke-opacity: 0.8"/>
     <use xlink:href="#m27eb1ec98c" x="421.74256" y="71.605273" style="fill: #1f77b4; fill-opacity: 0.8; stroke: #1f77b4; stroke-opacity: 0.8"/>
     <use xlink:href="#m27eb1ec98c" x="465.855949" y="46.728178" style="fill: #1f77b4; fill-opacity: 0.8; stroke: #1f77b4; stroke-opacity: 0.8"/>
     <use xlink:href="#m27eb1ec98c" x="201.238498" y="200.966166" style="fill: #1f77b4; fill-opacity: 0.8; stroke: #1f77b4; stroke-opacity: 0.8"/>
     <use xlink:href="#m27eb1ec98c" x="201.238498" y="232.062535" style="fill: #1f77b4; fill-opacity: 0.8; stroke: #1f77b4; stroke-opacity: 0.8"/>
     <use xlink:href="#m27eb1ec98c" x="245.351887" y="172.357507" style="fill: #1f77b4; fill-opacity: 0.8; stroke: #1f77b4; stroke-opacity: 0.8"/>
     <use xlink:href="#m27eb1ec98c" x="289.465277" y="167.382088" style="fill: #1f77b4; fill-opacity: 0.8; stroke: #1f77b4; stroke-opacity: 0.8"/>
     <use xlink:href="#m27eb1ec98c" x="333.547224" y="161.162814" style="fill: #1f77b4; fill-opacity: 0.8; stroke: #1f77b4; stroke-opacity: 0.8"/>
     <use xlink:href="#m27eb1ec98c" x="264.091431" y="108.920915" style="fill: #1f77b4; fill-opacity: 0.8; stroke: #1f77b4; stroke-opacity: 0.8"/>
     <use xlink:href="#m27eb1ec98c" x="308.20482" y="84.04382" style="fill: #1f77b4; fill-opacity: 0.8; stroke: #1f77b4; stroke-opacity: 0.8"/>
     <use xlink:href="#m27eb1ec98c" x="396.400157" y="61.654435" style="fill: #1f77b4; fill-opacity: 0.8; stroke: #1f77b4; stroke-opacity: 0.8"/>
    </g>
   </g>
   <g id="FillBetweenPolyCollection_1">
    <path d="M 68.929773 251.687492 
L 68.929773 285.847424 
L 72.939128 283.301234 
L 76.948483 280.755109 
L 80.957839 278.238281 
L 84.967194 275.741532 
L 88.976549 273.220146 
L 92.985905 270.565282 
L 96.99526 268.018457 
L 101.004615 265.471632 
L 105.013971 262.924807 
L 109.023326 260.372013 
L 113.032681 257.741228 
L 117.042037 255.18421 
L 121.051392 252.640002 
L 125.060747 250.070174 
L 129.070102 247.530698 
L 133.079458 245.086965 
L 137.088813 242.632838 
L 141.098168 240.13264 
L 145.107524 237.557387 
L 149.116879 235.02585 
L 153.126234 232.606757 
L 157.13559 230.258215 
L 161.144945 227.800528 
L 165.1543 225.334405 
L 169.163656 222.994953 
L 173.173011 220.592295 
L 177.182366 218.150342 
L 181.191722 215.703263 
L 185.201077 213.256184 
L 189.210432 210.809106 
L 193.219788 208.556261 
L 197.229143 206.180971 
L 201.238498 203.570543 
L 205.247853 201.294334 
L 209.257209 198.917086 
L 213.266564 196.618803 
L 217.275919 194.289484 
L 221.285275 191.877359 
L 225.29463 189.47739 
L 229.303985 187.22149 
L 233.313341 184.810183 
L 237.322696 182.396984 
L 241.332051 180.18629 
L 245.341407 178.091592 
L 249.350762 175.886027 
L 253.360117 173.431969 
L 257.369473 171.305541 
L 261.378828 168.992359 
L 265.388183 166.548144 
L 269.397539 164.398674 
L 273.406894 162.044787 
L 277.416249 159.66089 
L 281.425604 157.484756 
L 285.43496 155.254349 
L 289.444315 153.004979 
L 293.45367 150.86457 
L 297.463026 148.682426 
L 301.472381 146.46438 
L 305.481736 144.152476 
L 309.491092 142.07128 
L 313.500447 139.971463 
L 317.509802 137.898238 
L 321.519158 135.811779 
L 325.528513 133.720477 
L 329.537868 131.698329 
L 333.547224 129.600188 
L 337.556579 127.399963 
L 341.565934 125.196491 
L 345.57529 123.119096 
L 349.584645 121.117155 
L 353.594 119.118188 
L 357.603355 117.087332 
L 361.612711 114.964332 
L 365.622066 112.840781 
L 369.631421 110.714685 
L 373.640777 108.720433 
L 377.650132 106.720461 
L 381.659487 104.60077 
L 385.668843 102.550328 
L 389.678198 100.585912 
L 393.687553 98.619511 
L 397.696909 96.652088 
L 401.706264 94.492881 
L 405.715619 92.20295 
L 409.724975 90.038659 
L 413.73433 88.177179 
L 417.743685 86.339767 
L 421.753041 84.307301 
L 425.762396 82.187 
L 429.771751 80.121521 
L 433.781106 78.17578 
L 437.790462 76.230039 
L 441.799817 74.240276 
L 445.809172 72.189581 
L 449.818528 70.136159 
L 453.827883 68.08239 
L 457.837238 66.070181 
L 461.846594 64.072218 
L 465.855949 62.028009 
L 465.855949 21.165455 
L 465.855949 21.165455 
L 461.846594 23.602319 
L 457.837238 26.12176 
L 453.827883 28.651416 
L 449.818528 31.320933 
L 445.809172 34.014416 
L 441.799817 36.650106 
L 437.790462 39.27475 
L 433.781106 41.914931 
L 429.771751 44.542467 
L 425.762396 47.170003 
L 421.753041 49.607847 
L 417.743685 52.019905 
L 413.73433 54.431964 
L 409.724975 56.892616 
L 405.715619 59.266783 
L 401.706264 61.653995 
L 397.696909 64.057832 
L 393.687553 66.461668 
L 389.678198 68.865505 
L 385.668843 71.272182 
L 381.659487 73.68132 
L 377.650132 76.09114 
L 373.640777 78.50096 
L 369.631421 80.91078 
L 365.622066 83.362576 
L 361.612711 85.865666 
L 357.603355 88.207509 
L 353.594 90.549352 
L 349.584645 92.885204 
L 345.57529 95.322597 
L 341.565934 97.765886 
L 337.556579 100.396106 
L 333.547224 103.043288 
L 329.537868 105.460875 
L 325.528513 107.841153 
L 321.519158 110.196832 
L 317.509802 112.462221 
L 313.500447 115.029644 
L 309.491092 117.427814 
L 305.481736 119.778557 
L 301.472381 122.033132 
L 297.463026 124.415802 
L 293.45367 126.988176 
L 289.444315 129.436017 
L 285.43496 131.717381 
L 281.425604 134.111257 
L 277.416249 136.586769 
L 273.406894 138.907089 
L 269.397539 141.287505 
L 265.388183 143.775857 
L 261.378828 146.08771 
L 257.369473 148.4142 
L 253.360117 150.950943 
L 249.350762 153.200124 
L 245.341407 155.55029 
L 241.332051 157.933566 
L 237.322696 160.165185 
L 233.313341 162.53886 
L 229.303985 164.975021 
L 225.29463 167.171577 
L 221.285275 169.50171 
L 217.275919 171.745965 
L 213.266564 174.001228 
L 209.257209 176.176628 
L 205.247853 178.340065 
L 201.238498 180.479887 
L 197.229143 182.585999 
L 193.219788 184.66339 
L 189.210432 186.724156 
L 185.201077 188.960457 
L 181.191722 191.178742 
L 177.182366 193.514914 
L 173.173011 195.72814 
L 169.163656 198.027001 
L 165.1543 200.327431 
L 161.144945 202.509839 
L 157.13559 204.614425 
L 153.126234 206.68401 
L 149.116879 208.666071 
L 145.107524 210.781806 
L 141.098168 212.617204 
L 137.088813 214.761255 
L 133.079458 216.990296 
L 129.070102 219.221488 
L 125.060747 221.432647 
L 121.051392 223.585268 
L 117.042037 225.824168 
L 113.032681 228.065197 
L 109.023326 230.306226 
L 105.013971 232.547255 
L 101.004615 234.788284 
L 96.99526 236.970332 
L 92.985905 239.210239 
L 88.976549 241.293692 
L 84.967194 243.379908 
L 80.957839 245.466125 
L 76.948483 247.565681 
L 72.939128 249.631392 
L 68.929773 251.687492 
z
" clip-path="url(#pddeb5a56b3)" style="fill: #1f77b4; fill-opacity: 0.15"/>
   </g>
   <g id="PathCollection_2">
    <defs>
     <path id="m4a839fa5a3" d="M 0 -3 
L -3 3 
L 3 3 
z
" style="stroke: #ff7f0e; stroke-opacity: 0.8"/>
    </defs>
    <g clip-path="url(#pddeb5a56b3)">
     <use xlink:href="#m4a839fa5a3" x="195.044387" y="290.523708" style="fill: #ff7f0e; fill-opacity: 0.8; stroke: #ff7f0e; stroke-opacity: 0.8"/>
     <use xlink:href="#m4a839fa5a3" x="239.157776" y="249.476501" style="fill: #ff7f0e; fill-opacity: 0.8; stroke: #ff7f0e; stroke-opacity: 0.8"/>
     <use xlink:href="#m4a839fa5a3" x="283.271166" y="213.404714" style="fill: #ff7f0e; fill-opacity: 0.8; stroke: #ff7f0e; stroke-opacity: 0.8"/>
     <use xlink:href="#m4a839fa5a3" x="327.353113" y="178.576781" style="fill: #ff7f0e; fill-opacity: 0.8; stroke: #ff7f0e; stroke-opacity: 0.8"/>
     <use xlink:href="#m4a839fa5a3" x="371.466502" y="147.480412" style="fill: #ff7f0e; fill-opacity: 0.8; stroke: #ff7f0e; stroke-opacity: 0.8"/>
     <use xlink:href="#m4a839fa5a3" x="415.579891" y="118.871753" style="fill: #ff7f0e; fill-opacity: 0.8; stroke: #ff7f0e; stroke-opacity: 0.8"/>
     <use xlink:href="#m4a839fa5a3" x="459.661838" y="91.506949" style="fill: #ff7f0e; fill-opacity: 0.8; stroke: #ff7f0e; stroke-opacity: 0.8"/>
     <use xlink:href="#m4a839fa5a3" x="503.775227" y="66.629854" style="fill: #ff7f0e; fill-opacity: 0.8; stroke: #ff7f0e; stroke-opacity: 0.8"/>
     <use xlink:href="#m4a839fa5a3" x="239.157776" y="256.93963" style="fill: #ff7f0e; fill-opacity: 0.8; stroke: #ff7f0e; stroke-opacity: 0.8"/>
     <use xlink:href="#m4a839fa5a3" x="327.353113" y="189.771473" style="fill: #ff7f0e; fill-opacity: 0.8; stroke: #ff7f0e; stroke-opacity: 0.8"/>
     <use xlink:href="#m4a839fa5a3" x="195.044387" y="300.474545" style="fill: #ff7f0e; fill-opacity: 0.8; stroke: #ff7f0e; stroke-opacity: 0.8"/>
     <use xlink:href="#m4a839fa5a3" x="283.271166" y="235.794099" style="fill: #ff7f0e; fill-opacity: 0.8; stroke: #ff7f0e; stroke-opacity: 0.8"/>
    </g>
   </g>
   <g id="FillBetweenPolyCollection_2">
    <path d="M 195.044387 280.162835 
L 195.044387 296.385995 
L 198.162881 293.978301 
L 201.281374 291.49623 
L 204.399867 288.895386 
L 207.518361 286.395099 
L 210.636854 284.005223 
L 213.755347 281.566563 
L 216.873841 279.158235 
L 219.992334 276.769156 
L 223.110827 274.204123 
L 226.229321 271.795407 
L 229.347814 269.386119 
L 232.466307 266.976832 
L 235.584801 264.534439 
L 238.703294 261.975485 
L 241.821787 259.603583 
L 244.940281 257.230487 
L 248.058774 254.841653 
L 251.177267 252.326163 
L 254.295761 249.916758 
L 257.414254 247.564863 
L 260.532747 245.13417 
L 263.651241 242.748734 
L 266.769734 240.346094 
L 269.888227 237.905834 
L 273.006721 235.449513 
L 276.125214 233.00128 
L 279.243707 230.621992 
L 282.362201 228.219065 
L 285.480694 225.773133 
L 288.599187 223.327201 
L 291.717681 220.88127 
L 294.836174 218.447834 
L 297.954667 216.115359 
L 301.073161 213.675002 
L 304.191654 211.374739 
L 307.310147 208.962105 
L 310.428641 206.649074 
L 313.547134 204.359645 
L 316.665627 201.954968 
L 319.784121 199.548066 
L 322.902614 197.181028 
L 326.021107 194.863099 
L 329.139601 192.54517 
L 332.258094 190.20472 
L 335.376587 187.909088 
L 338.495081 185.59304 
L 341.613574 183.258749 
L 344.732067 180.935194 
L 347.850561 178.63385 
L 350.969054 176.320634 
L 354.087547 174.003975 
L 357.206041 171.610993 
L 360.324534 169.253467 
L 363.443027 166.94884 
L 366.561521 164.583545 
L 369.680014 162.2416 
L 372.798507 159.86054 
L 375.917001 157.547614 
L 379.035494 155.233758 
L 382.153987 152.939409 
L 385.272481 150.608408 
L 388.390974 148.293721 
L 391.509467 145.960804 
L 394.627961 143.656615 
L 397.746454 141.35379 
L 400.864947 139.041075 
L 403.983441 136.728207 
L 407.101934 134.414073 
L 410.220427 132.101024 
L 413.338921 129.789301 
L 416.457414 127.493232 
L 419.575907 125.19789 
L 422.694401 122.849682 
L 425.812894 120.534323 
L 428.931387 118.211498 
L 432.049881 115.876139 
L 435.168374 113.594301 
L 438.286867 111.280373 
L 441.405361 108.939497 
L 444.523854 106.596967 
L 447.642347 104.267006 
L 450.760841 102.027116 
L 453.879334 99.714787 
L 456.997827 97.460415 
L 460.116321 95.133756 
L 463.234814 92.86975 
L 466.353307 90.577005 
L 469.471801 88.344011 
L 472.590294 86.076537 
L 475.708787 83.810137 
L 478.827281 81.555242 
L 481.945774 79.259686 
L 485.064267 77.027455 
L 488.182761 74.762127 
L 491.301254 72.510144 
L 494.419747 70.241422 
L 497.538241 67.978925 
L 500.656734 65.716428 
L 503.775227 63.453931 
L 503.775227 39.699313 
L 503.775227 39.699313 
L 500.656734 42.355078 
L 497.538241 44.922485 
L 494.419747 47.487723 
L 491.301254 50.052962 
L 488.182761 52.6227 
L 485.064267 55.180305 
L 481.945774 57.743501 
L 478.827281 60.306696 
L 475.708787 62.869892 
L 472.590294 65.433087 
L 469.471801 67.996283 
L 466.353307 70.542164 
L 463.234814 73.079441 
L 460.116321 75.616719 
L 456.997827 78.153996 
L 453.879334 80.691273 
L 450.760841 83.22855 
L 447.642347 85.766896 
L 444.523854 88.305525 
L 441.405361 90.844154 
L 438.286867 93.382783 
L 435.168374 95.956445 
L 432.049881 98.544238 
L 428.931387 101.088084 
L 425.812894 103.720132 
L 422.694401 106.30892 
L 419.575907 108.927681 
L 416.457414 111.501559 
L 413.338921 114.071971 
L 410.220427 116.65879 
L 407.101934 119.194485 
L 403.983441 121.749307 
L 400.864947 124.260606 
L 397.746454 126.824651 
L 394.627961 129.275878 
L 391.509467 131.814199 
L 388.390974 134.289174 
L 385.272481 136.784404 
L 382.153987 139.299761 
L 379.035494 141.814484 
L 375.917001 144.411313 
L 372.798507 146.96808 
L 369.680014 149.432393 
L 366.561521 151.992375 
L 363.443027 154.580652 
L 360.324534 157.183865 
L 357.206041 159.69142 
L 354.087547 162.213815 
L 350.969054 164.662723 
L 347.850561 167.131794 
L 344.732067 169.587988 
L 341.613574 172.070281 
L 338.495081 174.551962 
L 335.376587 176.961065 
L 332.258094 179.407061 
L 329.139601 181.848537 
L 326.021107 184.327679 
L 322.902614 186.906301 
L 319.784121 189.38131 
L 316.665627 191.842324 
L 313.547134 194.283359 
L 310.428641 196.526765 
L 307.310147 198.80788 
L 304.191654 201.158339 
L 301.073161 203.493173 
L 297.954667 205.737809 
L 294.836174 208.149562 
L 291.717681 210.515578 
L 288.599187 212.881757 
L 285.480694 215.164213 
L 282.362201 217.555149 
L 279.243707 219.872188 
L 276.125214 222.123427 
L 273.006721 224.447346 
L 269.888227 226.734497 
L 266.769734 228.981564 
L 263.651241 231.180942 
L 260.532747 233.39399 
L 257.414254 235.555928 
L 254.295761 237.82187 
L 251.177267 240.088905 
L 248.058774 242.356805 
L 244.940281 244.608136 
L 241.821787 246.844945 
L 238.703294 249.110801 
L 235.584801 251.376656 
L 232.466307 253.642512 
L 229.347814 255.908368 
L 226.229321 258.174223 
L 223.110827 260.440079 
L 219.992334 262.632569 
L 216.873841 264.823087 
L 213.755347 267.013605 
L 210.636854 269.204497 
L 207.518361 271.396165 
L 204.399867 273.587832 
L 201.281374 275.7795 
L 198.162881 277.971167 
L 195.044387 280.162835 
z
" clip-path="url(#pddeb5a56b3)" style="fill: #ff7f0e; fill-opacity: 0.15"/>
   </g>
   <g id="matplotlib.axis_1">
    <g id="xtick_1">
     <g id="line2d_1">
      <defs>
       <path id="m43736952ae" d="M 0 0 
L 0 3.5 
" style="stroke: #000000; stroke-width: 0.8"/>
      </defs>
      <g>
       <use xlink:href="#m43736952ae" x="93.957754" y="314.44" style="stroke: #000000; stroke-width: 0.8"/>
      </g>
     </g>
     <g id="text_1">
      <!-- 40 -->
      <g transform="translate(87.595254 329.038437) scale(0.1 -0.1)">
       <defs>
        <path id="DejaVuSans-34" d="M 2419 4116 
L 825 1625 
L 2419 1625 
L 2419 4116 
z
M 2253 4666 
L 3047 4666 
L 3047 1625 
L 3713 1625 
L 3713 1100 
L 3047 1100 
L 3047 0 
L 2419 0 
L 2419 1100 
L 313 1100 
L 313 1709 
L 2253 4666 
z
" transform="scale(0.015625)"/>
        <path id="DejaVuSans-30" d="M 2034 4250 
Q 1547 4250 1301 3770 
Q 1056 3291 1056 2328 
Q 1056 1369 1301 889 
Q 1547 409 2034 409 
Q 2525 409 2770 889 
Q 3016 1369 3016 2328 
Q 3016 3291 2770 3770 
Q 2525 4250 2034 4250 
z
M 2034 4750 
Q 2819 4750 3233 4129 
Q 3647 3509 3647 2328 
Q 3647 1150 3233 529 
Q 2819 -91 2034 -91 
Q 1250 -91 836 529 
Q 422 1150 422 2328 
Q 422 3509 836 4129 
Q 1250 4750 2034 4750 
z
" transform="scale(0.015625)"/>
       </defs>
       <use xlink:href="#DejaVuSans-34"/>
       <use xlink:href="#DejaVuSans-30" transform="translate(63.623047 0)"/>
      </g>
     </g>
    </g>
    <g id="xtick_2">
     <g id="line2d_2">
      <g>
       <use xlink:href="#m43736952ae" x="156.842129" y="314.44" style="stroke: #000000; stroke-width: 0.8"/>
      </g>
     </g>
     <g id="text_2">
      <!-- 60 -->
      <g transform="translate(150.479629 329.038437) scale(0.1 -0.1)">
       <defs>
        <path id="DejaVuSans-36" d="M 2113 2584 
Q 1688 2584 1439 2293 
Q 1191 2003 1191 1497 
Q 1191 994 1439 701 
Q 1688 409 2113 409 
Q 2538 409 2786 701 
Q 3034 994 3034 1497 
Q 3034 2003 2786 2293 
Q 2538 2584 2113 2584 
z
M 3366 4563 
L 3366 3988 
Q 3128 4100 2886 4159 
Q 2644 4219 2406 4219 
Q 1781 4219 1451 3797 
Q 1122 3375 1075 2522 
Q 1259 2794 1537 2939 
Q 1816 3084 2150 3084 
Q 2853 3084 3261 2657 
Q 3669 2231 3669 1497 
Q 3669 778 3244 343 
Q 2819 -91 2113 -91 
Q 1303 -91 875 529 
Q 447 1150 447 2328 
Q 447 3434 972 4092 
Q 1497 4750 2381 4750 
Q 2619 4750 2861 4703 
Q 3103 4656 3366 4563 
z
" transform="scale(0.015625)"/>
       </defs>
       <use xlink:href="#DejaVuSans-36"/>
       <use xlink:href="#DejaVuSans-30" transform="translate(63.623047 0)"/>
      </g>
     </g>
    </g>
    <g id="xtick_3">
     <g id="line2d_3">
      <g>
       <use xlink:href="#m43736952ae" x="219.726504" y="314.44" style="stroke: #000000; stroke-width: 0.8"/>
      </g>
     </g>
     <g id="text_3">
      <!-- 80 -->
      <g transform="translate(213.364004 329.038437) scale(0.1 -0.1)">
       <defs>
        <path id="DejaVuSans-38" d="M 2034 2216 
Q 1584 2216 1326 1975 
Q 1069 1734 1069 1313 
Q 1069 891 1326 650 
Q 1584 409 2034 409 
Q 2484 409 2743 651 
Q 3003 894 3003 1313 
Q 3003 1734 2745 1975 
Q 2488 2216 2034 2216 
z
M 1403 2484 
Q 997 2584 770 2862 
Q 544 3141 544 3541 
Q 544 4100 942 4425 
Q 1341 4750 2034 4750 
Q 2731 4750 3128 4425 
Q 3525 4100 3525 3541 
Q 3525 3141 3298 2862 
Q 3072 2584 2669 2484 
Q 3125 2378 3379 2068 
Q 3634 1759 3634 1313 
Q 3634 634 3220 271 
Q 2806 -91 2034 -91 
Q 1263 -91 848 271 
Q 434 634 434 1313 
Q 434 1759 690 2068 
Q 947 2378 1403 2484 
z
M 1172 3481 
Q 1172 3119 1398 2916 
Q 1625 2713 2034 2713 
Q 2441 2713 2670 2916 
Q 2900 3119 2900 3481 
Q 2900 3844 2670 4047 
Q 2441 4250 2034 4250 
Q 1625 4250 1398 4047 
Q 1172 3844 1172 3481 
z
" transform="scale(0.015625)"/>
       </defs>
       <use xlink:href="#DejaVuSans-38"/>
       <use xlink:href="#DejaVuSans-30" transform="translate(63.623047 0)"/>
      </g>
     </g>
    </g>
    <g id="xtick_4">
     <g id="line2d_4">
      <g>
       <use xlink:href="#m43736952ae" x="282.61088" y="314.44" style="stroke: #000000; stroke-width: 0.8"/>
      </g>
     </g>
     <g id="text_4">
      <!-- 100 -->
      <g transform="translate(273.06713 329.038437) scale(0.1 -0.1)">
       <defs>
        <path id="DejaVuSans-31" d="M 794 531 
L 1825 531 
L 1825 4091 
L 703 3866 
L 703 4441 
L 1819 4666 
L 2450 4666 
L 2450 531 
L 3481 531 
L 3481 0 
L 794 0 
L 794 531 
z
" transform="scale(0.015625)"/>
       </defs>
       <use xlink:href="#DejaVuSans-31"/>
       <use xlink:href="#DejaVuSans-30" transform="translate(63.623047 0)"/>
       <use xlink:href="#DejaVuSans-30" transform="translate(127.246094 0)"/>
      </g>
     </g>
    </g>
    <g id="xtick_5">
     <g id="line2d_5">
      <g>
       <use xlink:href="#m43736952ae" x="345.495255" y="314.44" style="stroke: #000000; stroke-width: 0.8"/>
      </g>
     </g>
     <g id="text_5">
      <!-- 120 -->
      <g transform="translate(335.951505 329.038437) scale(0.1 -0.1)">
       <defs>
        <path id="DejaVuSans-32" d="M 1228 531 
L 3431 531 
L 3431 0 
L 469 0 
L 469 531 
Q 828 903 1448 1529 
Q 2069 2156 2228 2338 
Q 2531 2678 2651 2914 
Q 2772 3150 2772 3378 
Q 2772 3750 2511 3984 
Q 2250 4219 1831 4219 
Q 1534 4219 1204 4116 
Q 875 4013 500 3803 
L 500 4441 
Q 881 4594 1212 4672 
Q 1544 4750 1819 4750 
Q 2544 4750 2975 4387 
Q 3406 4025 3406 3419 
Q 3406 3131 3298 2873 
Q 3191 2616 2906 2266 
Q 2828 2175 2409 1742 
Q 1991 1309 1228 531 
z
" transform="scale(0.015625)"/>
       </defs>
       <use xlink:href="#DejaVuSans-31"/>
       <use xlink:href="#DejaVuSans-32" transform="translate(63.623047 0)"/>
       <use xlink:href="#DejaVuSans-30" transform="translate(127.246094 0)"/>
      </g>
     </g>
    </g>
    <g id="xtick_6">
     <g id="line2d_6">
      <g>
       <use xlink:href="#m43736952ae" x="408.37963" y="314.44" style="stroke: #000000; stroke-width: 0.8"/>
      </g>
     </g>
     <g id="text_6">
      <!-- 140 -->
      <g transform="translate(398.83588 329.038437) scale(0.1 -0.1)">
       <use xlink:href="#DejaVuSans-31"/>
       <use xlink:href="#DejaVuSans-34" transform="translate(63.623047 0)"/>
       <use xlink:href="#DejaVuSans-30" transform="translate(127.246094 0)"/>
      </g>
     </g>
    </g>
    <g id="xtick_7">
     <g id="line2d_7">
      <g>
       <use xlink:href="#m43736952ae" x="471.264005" y="314.44" style="stroke: #000000; stroke-width: 0.8"/>
      </g>
     </g>
     <g id="text_7">
      <!-- 160 -->
      <g transform="translate(461.720255 329.038437) scale(0.1 -0.1)">
       <use xlink:href="#DejaVuSans-31"/>
       <use xlink:href="#DejaVuSans-36" transform="translate(63.623047 0)"/>
       <use xlink:href="#DejaVuSans-30" transform="translate(127.246094 0)"/>
      </g>
     </g>
    </g>
    <g id="text_8">
     <!-- MW, g/mol -->
     <g transform="translate(259.739219 342.716562) scale(0.1 -0.1)">
      <defs>
       <path id="DejaVuSans-4d" d="M 628 4666 
L 1569 4666 
L 2759 1491 
L 3956 4666 
L 4897 4666 
L 4897 0 
L 4281 0 
L 4281 4097 
L 3078 897 
L 2444 897 
L 1241 4097 
L 1241 0 
L 628 0 
L 628 4666 
z
" transform="scale(0.015625)"/>
       <path id="DejaVuSans-57" d="M 213 4666 
L 850 4666 
L 1831 722 
L 2809 4666 
L 3519 4666 
L 4500 722 
L 5478 4666 
L 6119 4666 
L 4947 0 
L 4153 0 
L 3169 4050 
L 2175 0 
L 1381 0 
L 213 4666 
z
" transform="scale(0.015625)"/>
       <path id="DejaVuSans-2c" d="M 750 794 
L 1409 794 
L 1409 256 
L 897 -744 
L 494 -744 
L 750 256 
L 750 794 
z
" transform="scale(0.015625)"/>
       <path id="DejaVuSans-20" transform="scale(0.015625)"/>
       <path id="DejaVuSans-67" d="M 2906 1791 
Q 2906 2416 2648 2759 
Q 2391 3103 1925 3103 
Q 1463 3103 1205 2759 
Q 947 2416 947 1791 
Q 947 1169 1205 825 
Q 1463 481 1925 481 
Q 2391 481 2648 825 
Q 2906 1169 2906 1791 
z
M 3481 434 
Q 3481 -459 3084 -895 
Q 2688 -1331 1869 -1331 
Q 1566 -1331 1297 -1286 
Q 1028 -1241 775 -1147 
L 775 -588 
Q 1028 -725 1275 -790 
Q 1522 -856 1778 -856 
Q 2344 -856 2625 -561 
Q 2906 -266 2906 331 
L 2906 616 
Q 2728 306 2450 153 
Q 2172 0 1784 0 
Q 1141 0 747 490 
Q 353 981 353 1791 
Q 353 2603 747 3093 
Q 1141 3584 1784 3584 
Q 2172 3584 2450 3431 
Q 2728 3278 2906 2969 
L 2906 3500 
L 3481 3500 
L 3481 434 
z
" transform="scale(0.015625)"/>
       <path id="DejaVuSans-2f" d="M 1625 4666 
L 2156 4666 
L 531 -594 
L 0 -594 
L 1625 4666 
z
" transform="scale(0.015625)"/>
       <path id="DejaVuSans-6d" d="M 3328 2828 
Q 3544 3216 3844 3400 
Q 4144 3584 4550 3584 
Q 5097 3584 5394 3201 
Q 5691 2819 5691 2113 
L 5691 0 
L 5113 0 
L 5113 2094 
Q 5113 2597 4934 2840 
Q 4756 3084 4391 3084 
Q 3944 3084 3684 2787 
Q 3425 2491 3425 1978 
L 3425 0 
L 2847 0 
L 2847 2094 
Q 2847 2600 2669 2842 
Q 2491 3084 2119 3084 
Q 1678 3084 1418 2786 
Q 1159 2488 1159 1978 
L 1159 0 
L 581 0 
L 581 3500 
L 1159 3500 
L 1159 2956 
Q 1356 3278 1631 3431 
Q 1906 3584 2284 3584 
Q 2666 3584 2933 3390 
Q 3200 3197 3328 2828 
z
" transform="scale(0.015625)"/>
       <path id="DejaVuSans-6f" d="M 1959 3097 
Q 1497 3097 1228 2736 
Q 959 2375 959 1747 
Q 959 1119 1226 758 
Q 1494 397 1959 397 
Q 2419 397 2687 759 
Q 2956 1122 2956 1747 
Q 2956 2369 2687 2733 
Q 2419 3097 1959 3097 
z
M 1959 3584 
Q 2709 3584 3137 3096 
Q 3566 2609 3566 1747 
Q 3566 888 3137 398 
Q 2709 -91 1959 -91 
Q 1206 -91 779 398 
Q 353 888 353 1747 
Q 353 2609 779 3096 
Q 1206 3584 1959 3584 
z
" transform="scale(0.015625)"/>
       <path id="DejaVuSans-6c" d="M 603 4863 
L 1178 4863 
L 1178 0 
L 603 0 
L 603 4863 
z
" transform="scale(0.015625)"/>
      </defs>
      <use xlink:href="#DejaVuSans-4d"/>
      <use xlink:href="#DejaVuSans-57" transform="translate(86.279297 0)"/>
      <use xlink:href="#DejaVuSans-2c" transform="translate(185.15625 0)"/>
      <use xlink:href="#DejaVuSans-20" transform="translate(216.943359 0)"/>
      <use xlink:href="#DejaVuSans-67" transform="translate(248.730469 0)"/>
      <use xlink:href="#DejaVuSans-2f" transform="translate(312.207031 0)"/>
      <use xlink:href="#DejaVuSans-6d" transform="translate(345.898438 0)"/>
      <use xlink:href="#DejaVuSans-6f" transform="translate(443.310547 0)"/>
      <use xlink:href="#DejaVuSans-6c" transform="translate(504.492188 0)"/>
     </g>
    </g>
   </g>
   <g id="matplotlib.axis_2">
    <g id="ytick_1">
     <g id="line2d_8">
      <defs>
       <path id="ma00ed4c81e" d="M 0 0 
L -3.5 0 
" style="stroke: #000000; stroke-width: 0.8"/>
      </defs>
      <g>
       <use xlink:href="#ma00ed4c81e" x="47.1875" y="273.109741" style="stroke: #000000; stroke-width: 0.8"/>
      </g>
     </g>
     <g id="text_9">
      <!-- 50 -->
      <g transform="translate(27.4625 276.90896) scale(0.1 -0.1)">
       <defs>
        <path id="DejaVuSans-35" d="M 691 4666 
L 3169 4666 
L 3169 4134 
L 1269 4134 
L 1269 2991 
Q 1406 3038 1543 3061 
Q 1681 3084 1819 3084 
Q 2600 3084 3056 2656 
Q 3513 2228 3513 1497 
Q 3513 744 3044 326 
Q 2575 -91 1722 -91 
Q 1428 -91 1123 -41 
Q 819 9 494 109 
L 494 744 
Q 775 591 1075 516 
Q 1375 441 1709 441 
Q 2250 441 2565 725 
Q 2881 1009 2881 1497 
Q 2881 1984 2565 2268 
Q 2250 2553 1709 2553 
Q 1456 2553 1204 2497 
Q 953 2441 691 2322 
L 691 4666 
z
" transform="scale(0.015625)"/>
       </defs>
       <use xlink:href="#DejaVuSans-35"/>
       <use xlink:href="#DejaVuSans-30" transform="translate(63.623047 0)"/>
      </g>
     </g>
    </g>
    <g id="ytick_2">
     <g id="line2d_9">
      <g>
       <use xlink:href="#ma00ed4c81e" x="47.1875" y="210.917004" style="stroke: #000000; stroke-width: 0.8"/>
      </g>
     </g>
     <g id="text_10">
      <!-- 100 -->
      <g transform="translate(21.1 214.716223) scale(0.1 -0.1)">
       <use xlink:href="#DejaVuSans-31"/>
       <use xlink:href="#DejaVuSans-30" transform="translate(63.623047 0)"/>
       <use xlink:href="#DejaVuSans-30" transform="translate(127.246094 0)"/>
      </g>
     </g>
    </g>
    <g id="ytick_3">
     <g id="line2d_10">
      <g>
       <use xlink:href="#ma00ed4c81e" x="47.1875" y="148.724267" style="stroke: #000000; stroke-width: 0.8"/>
      </g>
     </g>
     <g id="text_11">
      <!-- 150 -->
      <g transform="translate(21.1 152.523486) scale(0.1 -0.1)">
       <use xlink:href="#DejaVuSans-31"/>
       <use xlink:href="#DejaVuSans-35" transform="translate(63.623047 0)"/>
       <use xlink:href="#DejaVuSans-30" transform="translate(127.246094 0)"/>
      </g>
     </g>
    </g>
    <g id="ytick_4">
     <g id="line2d_11">
      <g>
       <use xlink:href="#ma00ed4c81e" x="47.1875" y="86.53153" style="stroke: #000000; stroke-width: 0.8"/>
      </g>
     </g>
     <g id="text_12">
      <!-- 200 -->
      <g transform="translate(21.1 90.330749) scale(0.1 -0.1)">
       <use xlink:href="#DejaVuSans-32"/>
       <use xlink:href="#DejaVuSans-30" transform="translate(63.623047 0)"/>
       <use xlink:href="#DejaVuSans-30" transform="translate(127.246094 0)"/>
      </g>
     </g>
    </g>
    <g id="ytick_5">
     <g id="line2d_12">
      <g>
       <use xlink:href="#ma00ed4c81e" x="47.1875" y="24.338793" style="stroke: #000000; stroke-width: 0.8"/>
      </g>
     </g>
     <g id="text_13">
      <!-- 250 -->
      <g transform="translate(21.1 28.138012) scale(0.1 -0.1)">
       <use xlink:href="#DejaVuSans-32"/>
       <use xlink:href="#DejaVuSans-35" transform="translate(63.623047 0)"/>
       <use xlink:href="#DejaVuSans-30" transform="translate(127.246094 0)"/>
      </g>
     </g>
    </g>
    <g id="text_14">
     <!-- bp, $^o$C -->
     <g transform="translate(15 176.17) rotate(-90) scale(0.1 -0.1)">
      <defs>
       <path id="DejaVuSans-62" d="M 3116 1747 
Q 3116 2381 2855 2742 
Q 2594 3103 2138 3103 
Q 1681 3103 1420 2742 
Q 1159 2381 1159 1747 
Q 1159 1113 1420 752 
Q 1681 391 2138 391 
Q 2594 391 2855 752 
Q 3116 1113 3116 1747 
z
M 1159 2969 
Q 1341 3281 1617 3432 
Q 1894 3584 2278 3584 
Q 2916 3584 3314 3078 
Q 3713 2572 3713 1747 
Q 3713 922 3314 415 
Q 2916 -91 2278 -91 
Q 1894 -91 1617 61 
Q 1341 213 1159 525 
L 1159 0 
L 581 0 
L 581 4863 
L 1159 4863 
L 1159 2969 
z
" transform="scale(0.015625)"/>
       <path id="DejaVuSans-70" d="M 1159 525 
L 1159 -1331 
L 581 -1331 
L 581 3500 
L 1159 3500 
L 1159 2969 
Q 1341 3281 1617 3432 
Q 1894 3584 2278 3584 
Q 2916 3584 3314 3078 
Q 3713 2572 3713 1747 
Q 3713 922 3314 415 
Q 2916 -91 2278 -91 
Q 1894 -91 1617 61 
Q 1341 213 1159 525 
z
M 3116 1747 
Q 3116 2381 2855 2742 
Q 2594 3103 2138 3103 
Q 1681 3103 1420 2742 
Q 1159 2381 1159 1747 
Q 1159 1113 1420 752 
Q 1681 391 2138 391 
Q 2594 391 2855 752 
Q 3116 1113 3116 1747 
z
" transform="scale(0.015625)"/>
       <path id="DejaVuSans-Oblique-6f" d="M 1625 -91 
Q 1009 -91 651 289 
Q 294 669 294 1325 
Q 294 1706 417 2101 
Q 541 2497 738 2766 
Q 1047 3184 1428 3384 
Q 1809 3584 2291 3584 
Q 2888 3584 3255 3212 
Q 3622 2841 3622 2241 
Q 3622 1825 3500 1412 
Q 3378 1000 3181 728 
Q 2875 309 2494 109 
Q 2113 -91 1625 -91 
z
M 891 1344 
Q 891 869 1089 633 
Q 1288 397 1691 397 
Q 2269 397 2648 901 
Q 3028 1406 3028 2181 
Q 3028 2634 2825 2865 
Q 2622 3097 2228 3097 
Q 1903 3097 1650 2945 
Q 1397 2794 1197 2484 
Q 1050 2253 970 1956 
Q 891 1659 891 1344 
z
" transform="scale(0.015625)"/>
       <path id="DejaVuSans-43" d="M 4122 4306 
L 4122 3641 
Q 3803 3938 3442 4084 
Q 3081 4231 2675 4231 
Q 1875 4231 1450 3742 
Q 1025 3253 1025 2328 
Q 1025 1406 1450 917 
Q 1875 428 2675 428 
Q 3081 428 3442 575 
Q 3803 722 4122 1019 
L 4122 359 
Q 3791 134 3420 21 
Q 3050 -91 2638 -91 
Q 1578 -91 968 557 
Q 359 1206 359 2328 
Q 359 3453 968 4101 
Q 1578 4750 2638 4750 
Q 3056 4750 3426 4639 
Q 3797 4528 4122 4306 
z
" transform="scale(0.015625)"/>
      </defs>
      <use xlink:href="#DejaVuSans-62" transform="translate(0 0.51875)"/>
      <use xlink:href="#DejaVuSans-70" transform="translate(63.476562 0.51875)"/>
      <use xlink:href="#DejaVuSans-2c" transform="translate(126.953125 0.51875)"/>
      <use xlink:href="#DejaVuSans-20" transform="translate(158.740234 0.51875)"/>
      <use xlink:href="#DejaVuSans-Oblique-6f" transform="translate(191.484375 38.8) scale(0.7)"/>
      <use xlink:href="#DejaVuSans-43" transform="translate(237.045898 0.51875)"/>
     </g>
    </g>
   </g>
   <g id="line2d_13">
    <path d="M 68.929773 265.012797 
L 72.939128 262.767168 
L 76.948483 260.521538 
L 80.957839 258.275909 
L 84.967194 256.03028 
L 88.976549 253.784651 
L 92.985905 251.539022 
L 96.99526 249.293393 
L 101.004615 247.047763 
L 105.013971 244.802134 
L 109.023326 242.556505 
L 113.032681 240.310876 
L 117.042037 238.065247 
L 121.051392 235.819617 
L 125.060747 233.573988 
L 129.070102 231.328359 
L 133.079458 229.08273 
L 137.088813 226.837101 
L 141.098168 224.591471 
L 145.107524 222.345842 
L 149.116879 220.100213 
L 153.126234 217.854584 
L 157.13559 215.608955 
L 161.144945 213.363325 
L 165.1543 211.117696 
L 169.163656 208.872067 
L 173.173011 206.626438 
L 177.182366 204.380809 
L 181.191722 202.135179 
L 185.201077 199.88955 
L 189.210432 197.643921 
L 193.219788 195.398292 
L 197.229143 193.152663 
L 201.238498 190.907034 
L 205.247853 188.661404 
L 209.257209 186.415775 
L 213.266564 184.170146 
L 217.275919 181.924517 
L 221.285275 179.678888 
L 225.29463 177.433258 
L 229.303985 175.187629 
L 233.313341 172.942 
L 237.322696 170.696371 
L 241.332051 168.450742 
L 245.341407 166.205112 
L 249.350762 163.959483 
L 253.360117 161.713854 
L 257.369473 159.468225 
L 261.378828 157.222596 
L 265.388183 154.976966 
L 269.397539 152.731337 
L 273.406894 150.485708 
L 277.416249 148.240079 
L 281.425604 145.99445 
L 285.43496 143.74882 
L 289.444315 141.503191 
L 293.45367 139.257562 
L 297.463026 137.011933 
L 301.472381 134.766304 
L 305.481736 132.520675 
L 309.491092 130.275045 
L 313.500447 128.029416 
L 317.509802 125.783787 
L 321.519158 123.538158 
L 325.528513 121.292529 
L 329.537868 119.046899 
L 333.547224 116.80127 
L 337.556579 114.555641 
L 341.565934 112.310012 
L 345.57529 110.064383 
L 349.584645 107.818753 
L 353.594 105.573124 
L 357.603355 103.327495 
L 361.612711 101.081866 
L 365.622066 98.836237 
L 369.631421 96.590607 
L 373.640777 94.344978 
L 377.650132 92.099349 
L 381.659487 89.85372 
L 385.668843 87.608091 
L 389.678198 85.362461 
L 393.687553 83.116832 
L 397.696909 80.871203 
L 401.706264 78.625574 
L 405.715619 76.379945 
L 409.724975 74.134315 
L 413.73433 71.888686 
L 417.743685 69.643057 
L 421.753041 67.397428 
L 425.762396 65.151799 
L 429.771751 62.90617 
L 433.781106 60.66054 
L 437.790462 58.414911 
L 441.799817 56.169282 
L 445.809172 53.923653 
L 449.818528 51.678024 
L 453.827883 49.432394 
L 457.837238 47.186765 
L 461.846594 44.941136 
L 465.855949 42.695507 
" clip-path="url(#pddeb5a56b3)" style="fill: none; stroke: #1f77b4; stroke-width: 2.25; stroke-linecap: square"/>
   </g>
   <g id="line2d_14">
    <path d="M 195.044387 289.23872 
L 198.162881 286.885893 
L 201.281374 284.533066 
L 204.399867 282.180239 
L 207.518361 279.827413 
L 210.636854 277.474586 
L 213.755347 275.121759 
L 216.873841 272.768932 
L 219.992334 270.416106 
L 223.110827 268.063279 
L 226.229321 265.710452 
L 229.347814 263.357625 
L 232.466307 261.004799 
L 235.584801 258.651972 
L 238.703294 256.299145 
L 241.821787 253.946318 
L 244.940281 251.593492 
L 248.058774 249.240665 
L 251.177267 246.887838 
L 254.295761 244.535011 
L 257.414254 242.182185 
L 260.532747 239.829358 
L 263.651241 237.476531 
L 266.769734 235.123704 
L 269.888227 232.770878 
L 273.006721 230.418051 
L 276.125214 228.065224 
L 279.243707 225.712397 
L 282.362201 223.359571 
L 285.480694 221.006744 
L 288.599187 218.653917 
L 291.717681 216.30109 
L 294.836174 213.948264 
L 297.954667 211.595437 
L 301.073161 209.24261 
L 304.191654 206.889783 
L 307.310147 204.536957 
L 310.428641 202.18413 
L 313.547134 199.831303 
L 316.665627 197.478476 
L 319.784121 195.12565 
L 322.902614 192.772823 
L 326.021107 190.419996 
L 329.139601 188.067169 
L 332.258094 185.714343 
L 335.376587 183.361516 
L 338.495081 181.008689 
L 341.613574 178.655862 
L 344.732067 176.303036 
L 347.850561 173.950209 
L 350.969054 171.597382 
L 354.087547 169.244555 
L 357.206041 166.891729 
L 360.324534 164.538902 
L 363.443027 162.186075 
L 366.561521 159.833248 
L 369.680014 157.480422 
L 372.798507 155.127595 
L 375.917001 152.774768 
L 379.035494 150.421941 
L 382.153987 148.069115 
L 385.272481 145.716288 
L 388.390974 143.363461 
L 391.509467 141.010634 
L 394.627961 138.657808 
L 397.746454 136.304981 
L 400.864947 133.952154 
L 403.983441 131.599327 
L 407.101934 129.246501 
L 410.220427 126.893674 
L 413.338921 124.540847 
L 416.457414 122.18802 
L 419.575907 119.835194 
L 422.694401 117.482367 
L 425.812894 115.12954 
L 428.931387 112.776713 
L 432.049881 110.423887 
L 435.168374 108.07106 
L 438.286867 105.718233 
L 441.405361 103.365406 
L 444.523854 101.01258 
L 447.642347 98.659753 
L 450.760841 96.306926 
L 453.879334 93.954099 
L 456.997827 91.601273 
L 460.116321 89.248446 
L 463.234814 86.895619 
L 466.353307 84.542792 
L 469.471801 82.189966 
L 472.590294 79.837139 
L 475.708787 77.484312 
L 478.827281 75.131485 
L 481.945774 72.778659 
L 485.064267 70.425832 
L 488.182761 68.073005 
L 491.301254 65.720178 
L 494.419747 63.367352 
L 497.538241 61.014525 
L 500.656734 58.661698 
L 503.775227 56.308871 
" clip-path="url(#pddeb5a56b3)" style="fill: none; stroke: #ff7f0e; stroke-width: 2.25; stroke-linecap: square"/>
   </g>
   <g id="patch_3">
    <path d="M 47.1875 314.44 
L 47.1875 7.2 
" style="fill: none; stroke: #000000; stroke-width: 0.8; stroke-linejoin: miter; stroke-linecap: square"/>
   </g>
   <g id="patch_4">
    <path d="M 47.1875 314.44 
L 525.5175 314.44 
" style="fill: none; stroke: #000000; stroke-width: 0.8; stroke-linejoin: miter; stroke-linecap: square"/>
   </g>
   <g id="legend_1">
    <g id="patch_5">
     <path d="M 54.1875 59.234375 
L 121.945312 59.234375 
Q 123.945312 59.234375 123.945312 57.234375 
L 123.945312 14.2 
Q 123.945312 12.2 121.945312 12.2 
L 54.1875 12.2 
Q 52.1875 12.2 52.1875 14.2 
L 52.1875 57.234375 
Q 52.1875 59.234375 54.1875 59.234375 
z
" style="fill: #ffffff; opacity: 0.8; stroke: #cccccc; stroke-linejoin: miter"/>
    </g>
    <g id="text_15">
     <!-- type -->
     <g transform="translate(76.896094 23.798437) scale(0.1 -0.1)">
      <defs>
       <path id="DejaVuSans-74" d="M 1172 4494 
L 1172 3500 
L 2356 3500 
L 2356 3053 
L 1172 3053 
L 1172 1153 
Q 1172 725 1289 603 
Q 1406 481 1766 481 
L 2356 481 
L 2356 0 
L 1766 0 
Q 1100 0 847 248 
Q 594 497 594 1153 
L 594 3053 
L 172 3053 
L 172 3500 
L 594 3500 
L 594 4494 
L 1172 4494 
z
" transform="scale(0.015625)"/>
       <path id="DejaVuSans-79" d="M 2059 -325 
Q 1816 -950 1584 -1140 
Q 1353 -1331 966 -1331 
L 506 -1331 
L 506 -850 
L 844 -850 
Q 1081 -850 1212 -737 
Q 1344 -625 1503 -206 
L 1606 56 
L 191 3500 
L 800 3500 
L 1894 763 
L 2988 3500 
L 3597 3500 
L 2059 -325 
z
" transform="scale(0.015625)"/>
       <path id="DejaVuSans-65" d="M 3597 1894 
L 3597 1613 
L 953 1613 
Q 991 1019 1311 708 
Q 1631 397 2203 397 
Q 2534 397 2845 478 
Q 3156 559 3463 722 
L 3463 178 
Q 3153 47 2828 -22 
Q 2503 -91 2169 -91 
Q 1331 -91 842 396 
Q 353 884 353 1716 
Q 353 2575 817 3079 
Q 1281 3584 2069 3584 
Q 2775 3584 3186 3129 
Q 3597 2675 3597 1894 
z
M 3022 2063 
Q 3016 2534 2758 2815 
Q 2500 3097 2075 3097 
Q 1594 3097 1305 2825 
Q 1016 2553 972 2059 
L 3022 2063 
z
" transform="scale(0.015625)"/>
      </defs>
      <use xlink:href="#DejaVuSans-74"/>
      <use xlink:href="#DejaVuSans-79" transform="translate(39.208984 0)"/>
      <use xlink:href="#DejaVuSans-70" transform="translate(98.388672 0)"/>
      <use xlink:href="#DejaVuSans-65" transform="translate(161.865234 0)"/>
     </g>
    </g>
    <g id="PathCollection_3">
     <g>
      <use xlink:href="#m27eb1ec98c" x="66.1875" y="35.851562" style="fill: #1f77b4; fill-opacity: 0.8; stroke: #1f77b4; stroke-opacity: 0.8"/>
     </g>
    </g>
    <g id="text_16">
     <!-- alcohol -->
     <g transform="translate(84.1875 38.476562) scale(0.1 -0.1)">
      <defs>
       <path id="DejaVuSans-61" d="M 2194 1759 
Q 1497 1759 1228 1600 
Q 959 1441 959 1056 
Q 959 750 1161 570 
Q 1363 391 1709 391 
Q 2188 391 2477 730 
Q 2766 1069 2766 1631 
L 2766 1759 
L 2194 1759 
z
M 3341 1997 
L 3341 0 
L 2766 0 
L 2766 531 
Q 2569 213 2275 61 
Q 1981 -91 1556 -91 
Q 1019 -91 701 211 
Q 384 513 384 1019 
Q 384 1609 779 1909 
Q 1175 2209 1959 2209 
L 2766 2209 
L 2766 2266 
Q 2766 2663 2505 2880 
Q 2244 3097 1772 3097 
Q 1472 3097 1187 3025 
Q 903 2953 641 2809 
L 641 3341 
Q 956 3463 1253 3523 
Q 1550 3584 1831 3584 
Q 2591 3584 2966 3190 
Q 3341 2797 3341 1997 
z
" transform="scale(0.015625)"/>
       <path id="DejaVuSans-63" d="M 3122 3366 
L 3122 2828 
Q 2878 2963 2633 3030 
Q 2388 3097 2138 3097 
Q 1578 3097 1268 2742 
Q 959 2388 959 1747 
Q 959 1106 1268 751 
Q 1578 397 2138 397 
Q 2388 397 2633 464 
Q 2878 531 3122 666 
L 3122 134 
Q 2881 22 2623 -34 
Q 2366 -91 2075 -91 
Q 1284 -91 818 406 
Q 353 903 353 1747 
Q 353 2603 823 3093 
Q 1294 3584 2113 3584 
Q 2378 3584 2631 3529 
Q 2884 3475 3122 3366 
z
" transform="scale(0.015625)"/>
       <path id="DejaVuSans-68" d="M 3513 2113 
L 3513 0 
L 2938 0 
L 2938 2094 
Q 2938 2591 2744 2837 
Q 2550 3084 2163 3084 
Q 1697 3084 1428 2787 
Q 1159 2491 1159 1978 
L 1159 0 
L 581 0 
L 581 4863 
L 1159 4863 
L 1159 2956 
Q 1366 3272 1645 3428 
Q 1925 3584 2291 3584 
Q 2894 3584 3203 3211 
Q 3513 2838 3513 2113 
z
" transform="scale(0.015625)"/>
      </defs>
      <use xlink:href="#DejaVuSans-61"/>
      <use xlink:href="#DejaVuSans-6c" transform="translate(61.279297 0)"/>
      <use xlink:href="#DejaVuSans-63" transform="translate(89.0625 0)"/>
      <use xlink:href="#DejaVuSans-6f" transform="translate(144.042969 0)"/>
      <use xlink:href="#DejaVuSans-68" transform="translate(205.224609 0)"/>
      <use xlink:href="#DejaVuSans-6f" transform="translate(268.603516 0)"/>
      <use xlink:href="#DejaVuSans-6c" transform="translate(329.785156 0)"/>
     </g>
    </g>
    <g id="PathCollection_4">
     <g>
      <use xlink:href="#m4a839fa5a3" x="66.1875" y="50.529688" style="fill: #ff7f0e; fill-opacity: 0.8; stroke: #ff7f0e; stroke-opacity: 0.8"/>
     </g>
    </g>
    <g id="text_17">
     <!-- alkane -->
     <g transform="translate(84.1875 53.154688) scale(0.1 -0.1)">
      <defs>
       <path id="DejaVuSans-6b" d="M 581 4863 
L 1159 4863 
L 1159 1991 
L 2875 3500 
L 3609 3500 
L 1753 1863 
L 3688 0 
L 2938 0 
L 1159 1709 
L 1159 0 
L 581 0 
L 581 4863 
z
" transform="scale(0.015625)"/>
       <path id="DejaVuSans-6e" d="M 3513 2113 
L 3513 0 
L 2938 0 
L 2938 2094 
Q 2938 2591 2744 2837 
Q 2550 3084 2163 3084 
Q 1697 3084 1428 2787 
Q 1159 2491 1159 1978 
L 1159 0 
L 581 0 
L 581 3500 
L 1159 3500 
L 1159 2956 
Q 1366 3272 1645 3428 
Q 1925 3584 2291 3584 
Q 2894 3584 3203 3211 
Q 3513 2838 3513 2113 
z
" transform="scale(0.015625)"/>
      </defs>
      <use xlink:href="#DejaVuSans-61"/>
      <use xlink:href="#DejaVuSans-6c" transform="translate(61.279297 0)"/>
      <use xlink:href="#DejaVuSans-6b" transform="translate(89.0625 0)"/>
      <use xlink:href="#DejaVuSans-61" transform="translate(145.222656 0)"/>
      <use xlink:href="#DejaVuSans-6e" transform="translate(206.501953 0)"/>
      <use xlink:href="#DejaVuSans-65" transform="translate(269.880859 0)"/>
     </g>
    </g>
   </g>
  </g>
 </g>
 <defs>
  <clipPath id="pddeb5a56b3">
   <rect x="47.1875" y="7.2" width="478.33" height="307.24"/>
  </clipPath>
 </defs>
</svg>