<?xml version="1.0" encoding="utf-8" standalone="no"?>
<!DOCTYPE svg PUBLIC "-//W3C//DTD SVG 1.1//EN"
  "http://www.w3.org/Graphics/SVG/1.1/DTD/svg11.dtd">
<svg xmlns:xlink="http://www.w3.org/1999/xlink" width="391.245pt" height="297.190125pt" viewBox="0 0 391.245 297.190125" xmlns="http://www.w3.org/2000/svg" version="1.1">
 <metadata>
  <rdf:RDF xmlns:dc="http://purl.org/dc/elements/1.1/" xmlns:cc="http://creativecommons.org/ns#" xmlns:rdf="http://www.w3.org/1999/02/22-rdf-syntax-ns#">
   <cc:Work>
    <dc:type rdf:resource="http://purl.org/dc/dcmitype/StillImage"/>
    <dc:date>2026-01-11T13:55:49.857987</dc:date>
    <dc:format>image/svg+xml</dc:format>
    <dc:creator>
     <cc:Agent>
      <dc:title>Matplotlib v3.10.3, https://matplotlib.org/</dc:title>
     </cc:Agent>
    </dc:creator>
   </cc:Work>
  </rdf:RDF>
 </metadata>
 <defs>
  <style type="text/css">*{stroke-linejoin: round; stroke-linecap: butt}</style>
 </defs>
 <g id="figure_1">
  <g id="patch_1">
   <path d="M 0 297.190125 
L 391.245 297.190125 
L 391.245 0 
L 0 0 
z
" style="fill: #ffffff"/>
  </g>
  <g id="axes_1">
   <g id="patch_2">
    <path d="M 26.925 273.312 
L 384.045 273.312 
L 384.045 7.2 
L 26.925 7.2 
z
" style="fill: #ffffff"/>
   </g>
   <g id="PathCollection_1">
    <defs>
     <path id="m80d5565870" d="M 0 3 
C 0.795609 3 1.55874 2.683901 2.12132 2.12132 
C 2.683901 1.55874 3 0.795609 3 0 
C 3 -0.795609 2.683901 -1.55874 2.12132 -2.12132 
C 1.55874 -2.683901 0.795609 -3 0 -3 
C -0.795609 -3 -1.55874 -2.683901 -2.12132 -2.12132 
C -2.683901 -1.55874 -3 -0.795609 -3 0 
C -3 0.795609 -2.683901 1.55874 -2.12132 2.12132 
C -1.55874 2.683901 -0.795609 3 0 3 
z
" style="stroke: #1f77b4; stroke-opacity: 0.8"/>
    </defs>
    <g clip-path="url(#p376657292e)">
     <use xlink:href="#m80d5565870" x="43.157727" y="244.9333" style="fill: #1f77b4; fill-opacity: 0.8; stroke: #1f77b4; stroke-opacity: 0.8"/>
     <use xlink:href="#m80d5565870" x="79.230455" y="231.116391" style="fill: #1f77b4; fill-opacity: 0.8; stroke: #1f77b4; stroke-opacity: 0.8"/>
     <use xlink:href="#m80d5565870" x="115.303182" y="190.756269" style="fill: #1f77b4; fill-opacity: 0.8; stroke: #1f77b4; stroke-opacity: 0.8"/>
     <use xlink:href="#m80d5565870" x="151.375909" y="188.439645" style="fill: #1f77b4; fill-opacity: 0.8; stroke: #1f77b4; stroke-opacity: 0.8"/>
     <use xlink:href="#m80d5565870" x="187.448636" y="134.097665" style="fill: #1f77b4; fill-opacity: 0.8; stroke: #1f77b4; stroke-opacity: 0.8"/>
     <use xlink:href="#m80d5565870" x="223.521364" y="124.440405" style="fill: #1f77b4; fill-opacity: 0.8; stroke: #1f77b4; stroke-opacity: 0.8"/>
     <use xlink:href="#m80d5565870" x="259.594091" y="116.836955" style="fill: #1f77b4; fill-opacity: 0.8; stroke: #1f77b4; stroke-opacity: 0.8"/>
     <use xlink:href="#m80d5565870" x="295.666818" y="85.751761" style="fill: #1f77b4; fill-opacity: 0.8; stroke: #1f77b4; stroke-opacity: 0.8"/>
     <use xlink:href="#m80d5565870" x="331.739545" y="53.485721" style="fill: #1f77b4; fill-opacity: 0.8; stroke: #1f77b4; stroke-opacity: 0.8"/>
     <use xlink:href="#m80d5565870" x="367.812273" y="19.296" style="fill: #1f77b4; fill-opacity: 0.8; stroke: #1f77b4; stroke-opacity: 0.8"/>
    </g>
   </g>
   <g id="FillBetweenPolyCollection_1">
    <path d="M 43.157727 236.292583 
L 43.157727 261.216 
L 46.437066 258.790945 
L 49.716405 256.36589 
L 52.995744 253.939136 
L 56.275083 251.580407 
L 59.554421 249.305287 
L 62.83376 246.925351 
L 66.113099 244.507462 
L 69.392438 242.12751 
L 72.671777 239.786782 
L 75.951116 237.445797 
L 79.230455 235.104813 
L 82.509793 232.763829 
L 85.789132 230.389131 
L 89.068471 227.96878 
L 92.34781 225.611594 
L 95.627149 223.277773 
L 98.906488 220.942671 
L 102.185826 218.607457 
L 105.465165 216.218379 
L 108.744504 213.763941 
L 112.023843 211.308436 
L 115.303182 208.928878 
L 118.582521 206.596547 
L 121.86186 204.191783 
L 125.141198 201.786423 
L 128.420537 199.452975 
L 131.699876 197.073082 
L 134.979215 194.709873 
L 138.258554 192.329803 
L 141.537893 190.015209 
L 144.817231 187.701582 
L 148.09657 185.394055 
L 151.375909 183.077689 
L 154.655248 180.847548 
L 157.934587 178.522637 
L 161.213926 176.158461 
L 164.493264 174.041703 
L 167.772603 171.801088 
L 171.051942 169.490015 
L 174.331281 167.172397 
L 177.61062 164.908997 
L 180.889959 162.598664 
L 184.169298 160.2797 
L 187.448636 158.1575 
L 190.727975 155.892245 
L 194.007314 153.693268 
L 197.286653 151.481756 
L 200.565992 149.324409 
L 203.845331 146.997518 
L 207.124669 144.871533 
L 210.404008 142.791502 
L 213.683347 140.637239 
L 216.962686 138.447674 
L 220.242025 136.256299 
L 223.521364 134.065714 
L 226.800702 131.909037 
L 230.080041 129.812746 
L 233.35938 127.500455 
L 236.638719 125.373598 
L 239.918058 123.283611 
L 243.197397 121.165716 
L 246.476736 119.025312 
L 249.756074 116.860463 
L 253.035413 114.652168 
L 256.314752 112.462457 
L 259.594091 110.352255 
L 262.87343 108.188318 
L 266.152769 106.099845 
L 269.432107 104.029635 
L 272.711446 102.000517 
L 275.990785 99.969116 
L 279.270124 97.875147 
L 282.549463 95.794128 
L 285.828802 93.725611 
L 289.10814 91.565446 
L 292.387479 89.524807 
L 295.666818 87.384655 
L 298.946157 85.268325 
L 302.225496 83.135764 
L 305.504835 81.100784 
L 308.784174 79.191869 
L 312.063512 77.242613 
L 315.342851 75.182464 
L 318.62219 73.121163 
L 321.901529 71.059049 
L 325.180868 69.007199 
L 328.460207 66.939014 
L 331.739545 64.878473 
L 335.018884 62.82072 
L 338.298223 60.809219 
L 341.577562 58.720563 
L 344.856901 56.639212 
L 348.13624 54.576839 
L 351.415579 52.514465 
L 354.694917 50.452092 
L 357.974256 48.389718 
L 361.253595 46.327345 
L 364.532934 44.264149 
L 367.812273 42.152204 
L 367.812273 20.695071 
L 367.812273 20.695071 
L 364.532934 22.92983 
L 361.253595 25.22004 
L 357.974256 27.490888 
L 354.694917 29.827308 
L 351.415579 32.110785 
L 348.13624 34.386325 
L 344.856901 36.658016 
L 341.577562 38.929707 
L 338.298223 41.201113 
L 335.018884 43.47309 
L 331.739545 45.744781 
L 328.460207 48.016473 
L 325.180868 50.288164 
L 321.901529 52.559855 
L 318.62219 54.831547 
L 315.342851 57.103238 
L 312.063512 59.374929 
L 308.784174 61.589513 
L 305.504835 63.814334 
L 302.225496 66.091585 
L 298.946157 68.368835 
L 295.666818 70.647218 
L 292.387479 72.936059 
L 289.10814 75.263293 
L 285.828802 77.546782 
L 282.549463 79.818624 
L 279.270124 82.090466 
L 275.990785 84.363067 
L 272.711446 86.635225 
L 269.432107 88.90659 
L 266.152769 91.178608 
L 262.87343 93.424982 
L 259.594091 95.701149 
L 256.314752 97.972033 
L 253.035413 100.127688 
L 249.756074 102.391764 
L 246.476736 104.618676 
L 243.197397 106.81919 
L 239.918058 108.972751 
L 236.638719 111.229983 
L 233.35938 113.356574 
L 230.080041 115.571933 
L 226.800702 117.824649 
L 223.521364 120.219602 
L 220.242025 122.388427 
L 216.962686 124.548645 
L 213.683347 126.771439 
L 210.404008 129.101885 
L 207.124669 131.255912 
L 203.845331 133.336334 
L 200.565992 135.523563 
L 197.286653 137.736678 
L 194.007314 139.966949 
L 190.727975 142.188642 
L 187.448636 144.400189 
L 184.169298 146.58511 
L 180.889959 148.743726 
L 177.61062 150.936814 
L 174.331281 153.139564 
L 171.051942 155.163858 
L 167.772603 157.257989 
L 164.493264 159.316739 
L 161.213926 161.480738 
L 157.934587 163.646461 
L 154.655248 165.800682 
L 151.375909 167.976664 
L 148.09657 170.121242 
L 144.817231 172.290646 
L 141.537893 174.34074 
L 138.258554 176.344843 
L 134.979215 178.345581 
L 131.699876 180.267501 
L 128.420537 182.34995 
L 125.141198 184.558495 
L 121.86186 186.924329 
L 118.582521 189.022273 
L 115.303182 191.078246 
L 112.023843 193.135414 
L 108.744504 195.114406 
L 105.465165 197.068548 
L 102.185826 199.237577 
L 98.906488 201.36253 
L 95.627149 203.45665 
L 92.34781 205.601791 
L 89.068471 207.716051 
L 85.789132 209.744782 
L 82.509793 211.773514 
L 79.230455 213.802261 
L 75.951116 215.802367 
L 72.671777 217.800492 
L 69.392438 219.855669 
L 66.113099 221.917171 
L 62.83376 223.964879 
L 59.554421 226.018896 
L 56.275083 228.072913 
L 52.995744 230.12693 
L 49.716405 232.181113 
L 46.437066 234.236848 
L 43.157727 236.292583 
z
" clip-path="url(#p376657292e)" style="fill: #1f77b4; fill-opacity: 0.15"/>
   </g>
   <g id="matplotlib.axis_1">
    <g id="xtick_1">
     <g id="line2d_1">
      <defs>
       <path id="mbfc598dca8" d="M 0 0 
L 0 3.5 
" style="stroke: #000000; stroke-width: 0.8"/>
      </defs>
      <g>
       <use xlink:href="#mbfc598dca8" x="43.157727" y="273.312" style="stroke: #000000; stroke-width: 0.8"/>
      </g>
     </g>
     <g id="text_1">
      <!-- 0 -->
      <g transform="translate(39.976477 287.910437) scale(0.1 -0.1)">
       <defs>
        <path id="DejaVuSans-30" d="M 2034 4250 
Q 1547 4250 1301 3770 
Q 1056 3291 1056 2328 
Q 1056 1369 1301 889 
Q 1547 409 2034 409 
Q 2525 409 2770 889 
Q 3016 1369 3016 2328 
Q 3016 3291 2770 3770 
Q 2525 4250 2034 4250 
z
M 2034 4750 
Q 2819 4750 3233 4129 
Q 3647 3509 3647 2328 
Q 3647 1150 3233 529 
Q 2819 -91 2034 -91 
Q 1250 -91 836 529 
Q 422 1150 422 2328 
Q 422 3509 836 4129 
Q 1250 4750 2034 4750 
z
" transform="scale(0.015625)"/>
       </defs>
       <use xlink:href="#DejaVuSans-30"/>
      </g>
     </g>
    </g>
    <g id="xtick_2">
     <g id="line2d_2">
      <g>
       <use xlink:href="#mbfc598dca8" x="115.303182" y="273.312" style="stroke: #000000; stroke-width: 0.8"/>
      </g>
     </g>
     <g id="text_2">
      <!-- 2 -->
      <g transform="translate(112.121932 287.910437) scale(0.1 -0.1)">
       <defs>
        <path id="DejaVuSans-32" d="M 1228 531 
L 3431 531 
L 3431 0 
L 469 0 
L 469 531 
Q 828 903 1448 1529 
Q 2069 2156 2228 2338 
Q 2531 2678 2651 2914 
Q 2772 3150 2772 3378 
Q 2772 3750 2511 3984 
Q 2250 4219 1831 4219 
Q 1534 4219 1204 4116 
Q 875 4013 500 3803 
L 500 4441 
Q 881 4594 1212 4672 
Q 1544 4750 1819 4750 
Q 2544 4750 2975 4387 
Q 3406 4025 3406 3419 
Q 3406 3131 3298 2873 
Q 3191 2616 2906 2266 
Q 2828 2175 2409 1742 
Q 1991 1309 1228 531 
z
" transform="scale(0.015625)"/>
       </defs>
       <use xlink:href="#DejaVuSans-32"/>
      </g>
     </g>
    </g>
    <g id="xtick_3">
     <g id="line2d_3">
      <g>
       <use xlink:href="#mbfc598dca8" x="187.448636" y="273.312" style="stroke: #000000; stroke-width: 0.8"/>
      </g>
     </g>
     <g id="text_3">
      <!-- 4 -->
      <g transform="translate(184.267386 287.910437) scale(0.1 -0.1)">
       <defs>
        <path id="DejaVuSans-34" d="M 2419 4116 
L 825 1625 
L 2419 1625 
L 2419 4116 
z
M 2253 4666 
L 3047 4666 
L 3047 1625 
L 3713 1625 
L 3713 1100 
L 3047 1100 
L 3047 0 
L 2419 0 
L 2419 1100 
L 313 1100 
L 313 1709 
L 2253 4666 
z
" transform="scale(0.015625)"/>
       </defs>
       <use xlink:href="#DejaVuSans-34"/>
      </g>
     </g>
    </g>
    <g id="xtick_4">
     <g id="line2d_4">
      <g>
       <use xlink:href="#mbfc598dca8" x="259.594091" y="273.312" style="stroke: #000000; stroke-width: 0.8"/>
      </g>
     </g>
     <g id="text_4">
      <!-- 6 -->
      <g transform="translate(256.412841 287.910437) scale(0.1 -0.1)">
       <defs>
        <path id="DejaVuSans-36" d="M 2113 2584 
Q 1688 2584 1439 2293 
Q 1191 2003 1191 1497 
Q 1191 994 1439 701 
Q 1688 409 2113 409 
Q 2538 409 2786 701 
Q 3034 994 3034 1497 
Q 3034 2003 2786 2293 
Q 2538 2584 2113 2584 
z
M 3366 4563 
L 3366 3988 
Q 3128 4100 2886 4159 
Q 2644 4219 2406 4219 
Q 1781 4219 1451 3797 
Q 1122 3375 1075 2522 
Q 1259 2794 1537 2939 
Q 1816 3084 2150 3084 
Q 2853 3084 3261 2657 
Q 3669 2231 3669 1497 
Q 3669 778 3244 343 
Q 2819 -91 2113 -91 
Q 1303 -91 875 529 
Q 447 1150 447 2328 
Q 447 3434 972 4092 
Q 1497 4750 2381 4750 
Q 2619 4750 2861 4703 
Q 3103 4656 3366 4563 
z
" transform="scale(0.015625)"/>
       </defs>
       <use xlink:href="#DejaVuSans-36"/>
      </g>
     </g>
    </g>
    <g id="xtick_5">
     <g id="line2d_5">
      <g>
       <use xlink:href="#mbfc598dca8" x="331.739545" y="273.312" style="stroke: #000000; stroke-width: 0.8"/>
      </g>
     </g>
     <g id="text_5">
      <!-- 8 -->
      <g transform="translate(328.558295 287.910437) scale(0.1 -0.1)">
       <defs>
        <path id="DejaVuSans-38" d="M 2034 2216 
Q 1584 2216 1326 1975 
Q 1069 1734 1069 1313 
Q 1069 891 1326 650 
Q 1584 409 2034 409 
Q 2484 409 2743 651 
Q 3003 894 3003 1313 
Q 3003 1734 2745 1975 
Q 2488 2216 2034 2216 
z
M 1403 2484 
Q 997 2584 770 2862 
Q 544 3141 544 3541 
Q 544 4100 942 4425 
Q 1341 4750 2034 4750 
Q 2731 4750 3128 4425 
Q 3525 4100 3525 3541 
Q 3525 3141 3298 2862 
Q 3072 2584 2669 2484 
Q 3125 2378 3379 2068 
Q 3634 1759 3634 1313 
Q 3634 634 3220 271 
Q 2806 -91 2034 -91 
Q 1263 -91 848 271 
Q 434 634 434 1313 
Q 434 1759 690 2068 
Q 947 2378 1403 2484 
z
M 1172 3481 
Q 1172 3119 1398 2916 
Q 1625 2713 2034 2713 
Q 2441 2713 2670 2916 
Q 2900 3119 2900 3481 
Q 2900 3844 2670 4047 
Q 2441 4250 2034 4250 
Q 1625 4250 1398 4047 
Q 1172 3844 1172 3481 
z
" transform="scale(0.015625)"/>
       </defs>
       <use xlink:href="#DejaVuSans-38"/>
      </g>
     </g>
    </g>
   </g>
   <g id="matplotlib.axis_2">
    <g id="ytick_1">
     <g id="line2d_6">
      <defs>
       <path id="m7fe12bab60" d="M 0 0 
L -3.5 0 
" style="stroke: #000000; stroke-width: 0.8"/>
      </defs>
      <g>
       <use xlink:href="#m7fe12bab60" x="26.925" y="240.346137" style="stroke: #000000; stroke-width: 0.8"/>
      </g>
     </g>
     <g id="text_6">
      <!-- 0 -->
      <g transform="translate(13.5625 244.145355) scale(0.1 -0.1)">
       <use xlink:href="#DejaVuSans-30"/>
      </g>
     </g>
    </g>
    <g id="ytick_2">
     <g id="line2d_7">
      <g>
       <use xlink:href="#m7fe12bab60" x="26.925" y="187.295723" style="stroke: #000000; stroke-width: 0.8"/>
      </g>
     </g>
     <g id="text_7">
      <!-- 5 -->
      <g transform="translate(13.5625 191.094942) scale(0.1 -0.1)">
       <defs>
        <path id="DejaVuSans-35" d="M 691 4666 
L 3169 4666 
L 3169 4134 
L 1269 4134 
L 1269 2991 
Q 1406 3038 1543 3061 
Q 1681 3084 1819 3084 
Q 2600 3084 3056 2656 
Q 3513 2228 3513 1497 
Q 3513 744 3044 326 
Q 2575 -91 1722 -91 
Q 1428 -91 1123 -41 
Q 819 9 494 109 
L 494 744 
Q 775 591 1075 516 
Q 1375 441 1709 441 
Q 2250 441 2565 725 
Q 2881 1009 2881 1497 
Q 2881 1984 2565 2268 
Q 2250 2553 1709 2553 
Q 1456 2553 1204 2497 
Q 953 2441 691 2322 
L 691 4666 
z
" transform="scale(0.015625)"/>
       </defs>
       <use xlink:href="#DejaVuSans-35"/>
      </g>
     </g>
    </g>
    <g id="ytick_3">
     <g id="line2d_8">
      <g>
       <use xlink:href="#m7fe12bab60" x="26.925" y="134.24531" style="stroke: #000000; stroke-width: 0.8"/>
      </g>
     </g>
     <g id="text_8">
      <!-- 10 -->
      <g transform="translate(7.2 138.044529) scale(0.1 -0.1)">
       <defs>
        <path id="DejaVuSans-31" d="M 794 531 
L 1825 531 
L 1825 4091 
L 703 3866 
L 703 4441 
L 1819 4666 
L 2450 4666 
L 2450 531 
L 3481 531 
L 3481 0 
L 794 0 
L 794 531 
z
" transform="scale(0.015625)"/>
       </defs>
       <use xlink:href="#DejaVuSans-31"/>
       <use xlink:href="#DejaVuSans-30" transform="translate(63.623047 0)"/>
      </g>
     </g>
    </g>
    <g id="ytick_4">
     <g id="line2d_9">
      <g>
       <use xlink:href="#m7fe12bab60" x="26.925" y="81.194897" style="stroke: #000000; stroke-width: 0.8"/>
      </g>
     </g>
     <g id="text_9">
      <!-- 15 -->
      <g transform="translate(7.2 84.994116) scale(0.1 -0.1)">
       <use xlink:href="#DejaVuSans-31"/>
       <use xlink:href="#DejaVuSans-35" transform="translate(63.623047 0)"/>
      </g>
     </g>
    </g>
    <g id="ytick_5">
     <g id="line2d_10">
      <g>
       <use xlink:href="#m7fe12bab60" x="26.925" y="28.144484" style="stroke: #000000; stroke-width: 0.8"/>
      </g>
     </g>
     <g id="text_10">
      <!-- 20 -->
      <g transform="translate(7.2 31.943703) scale(0.1 -0.1)">
       <use xlink:href="#DejaVuSans-32"/>
       <use xlink:href="#DejaVuSans-30" transform="translate(63.623047 0)"/>
      </g>
     </g>
    </g>
   </g>
   <g id="line2d_11">
    <path d="M 43.157727 248.651 
L 46.437066 246.43412 
L 49.716405 244.217239 
L 52.995744 242.000358 
L 56.275083 239.783478 
L 59.554421 237.566597 
L 62.83376 235.349717 
L 66.113099 233.132836 
L 69.392438 230.915956 
L 72.671777 228.699075 
L 75.951116 226.482194 
L 79.230455 224.265314 
L 82.509793 222.048433 
L 85.789132 219.831553 
L 89.068471 217.614672 
L 92.34781 215.397791 
L 95.627149 213.180911 
L 98.906488 210.96403 
L 102.185826 208.74715 
L 105.465165 206.530269 
L 108.744504 204.313388 
L 112.023843 202.096508 
L 115.303182 199.879627 
L 118.582521 197.662747 
L 121.86186 195.445866 
L 125.141198 193.228986 
L 128.420537 191.012105 
L 131.699876 188.795224 
L 134.979215 186.578344 
L 138.258554 184.361463 
L 141.537893 182.144583 
L 144.817231 179.927702 
L 148.09657 177.710821 
L 151.375909 175.493941 
L 154.655248 173.27706 
L 157.934587 171.06018 
L 161.213926 168.843299 
L 164.493264 166.626419 
L 167.772603 164.409538 
L 171.051942 162.192657 
L 174.331281 159.975777 
L 177.61062 157.758896 
L 180.889959 155.542016 
L 184.169298 153.325135 
L 187.448636 151.108254 
L 190.727975 148.891374 
L 194.007314 146.674493 
L 197.286653 144.457613 
L 200.565992 142.240732 
L 203.845331 140.023852 
L 207.124669 137.806971 
L 210.404008 135.59009 
L 213.683347 133.37321 
L 216.962686 131.156329 
L 220.242025 128.939449 
L 223.521364 126.722568 
L 226.800702 124.505687 
L 230.080041 122.288807 
L 233.35938 120.071926 
L 236.638719 117.855046 
L 239.918058 115.638165 
L 243.197397 113.421285 
L 246.476736 111.204404 
L 249.756074 108.987523 
L 253.035413 106.770643 
L 256.314752 104.553762 
L 259.594091 102.336882 
L 262.87343 100.120001 
L 266.152769 97.90312 
L 269.432107 95.68624 
L 272.711446 93.469359 
L 275.990785 91.252479 
L 279.270124 89.035598 
L 282.549463 86.818718 
L 285.828802 84.601837 
L 289.10814 82.384956 
L 292.387479 80.168076 
L 295.666818 77.951195 
L 298.946157 75.734315 
L 302.225496 73.517434 
L 305.504835 71.300553 
L 308.784174 69.083673 
L 312.063512 66.866792 
L 315.342851 64.649912 
L 318.62219 62.433031 
L 321.901529 60.216151 
L 325.180868 57.99927 
L 328.460207 55.782389 
L 331.739545 53.565509 
L 335.018884 51.348628 
L 338.298223 49.131748 
L 341.577562 46.914867 
L 344.856901 44.697986 
L 348.13624 42.481106 
L 351.415579 40.264225 
L 354.694917 38.047345 
L 357.974256 35.830464 
L 361.253595 33.613584 
L 364.532934 31.396703 
L 367.812273 29.179822 
" clip-path="url(#p376657292e)" style="fill: none; stroke: #1f77b4; stroke-width: 2.25; stroke-linecap: square"/>
   </g>
   <g id="patch_3">
    <path d="M 26.925 273.312 
L 26.925 7.2 
" style="fill: none; stroke: #000000; stroke-width: 0.8; stroke-linejoin: miter; stroke-linecap: square"/>
   </g>
   <g id="patch_4">
    <path d="M 384.045 273.312 
L 384.045 7.2 
" style="fill: none; stroke: #000000; stroke-width: 0.8; stroke-linejoin: miter; stroke-linecap: square"/>
   </g>
   <g id="patch_5">
    <path d="M 26.925 273.312 
L 384.045 273.312 
" style="fill: none; stroke: #000000; stroke-width: 0.8; stroke-linejoin: miter; stroke-linecap: square"/>
   </g>
   <g id="patch_6">
    <path d="M 26.925 7.2 
L 384.045 7.2 
" style="fill: none; stroke: #000000; stroke-width: 0.8; stroke-linejoin: miter; stroke-linecap: square"/>
   </g>
  </g>
 </g>
 <defs>
  <clipPath id="p376657292e">
   <rect x="26.925" y="7.2" width="357.12" height="266.112"/>
  </clipPath>
 </defs>
</svg>