<?xml version="1.0" encoding="utf-8" standalone="no"?>
<!DOCTYPE svg PUBLIC "-//W3C//DTD SVG 1.1//EN"
  "http://www.w3.org/Graphics/SVG/1.1/DTD/svg11.dtd">
<svg xmlns:xlink="http://www.w3.org/1999/xlink" width="400.785625pt" height="297.190125pt" viewBox="0 0 400.785625 297.190125" xmlns="http://www.w3.org/2000/svg" version="1.1">
 <metadata>
  <rdf:RDF xmlns:dc="http://purl.org/dc/elements/1.1/" xmlns:cc="http://creativecommons.org/ns#" xmlns:rdf="http://www.w3.org/1999/02/22-rdf-syntax-ns#">
   <cc:Work>
    <dc:type rdf:resource="http://purl.org/dc/dcmitype/StillImage"/>
    <dc:date>2023-05-06T16:40:18.151535</dc:date>
    <dc:format>image/svg+xml</dc:format>
    <dc:creator>
     <cc:Agent>
      <dc:title>Matplotlib v3.7.1, https://matplotlib.org/</dc:title>
     </cc:Agent>
    </dc:creator>
   </cc:Work>
  </rdf:RDF>
 </metadata>
 <defs>
  <style type="text/css">*{stroke-linejoin: round; stroke-linecap: butt}</style>
 </defs>
 <g id="figure_1">
  <g id="patch_1">
   <path d="M 0 297.190125 
L 400.785625 297.190125 
L 400.785625 0 
L 0 0 
z
" style="fill: #ffffff"/>
  </g>
  <g id="axes_1">
   <g id="patch_2">
    <path d="M 36.465625 273.312 
L 393.585625 273.312 
L 393.585625 7.2 
L 36.465625 7.2 
z
" style="fill: #ffffff"/>
   </g>
   <g id="PathCollection_1">
    <defs>
     <path id="m80e4f13f4b" d="M 0 3 
C 0.795609 3 1.55874 2.683901 2.12132 2.12132 
C 2.683901 1.55874 3 0.795609 3 0 
C 3 -0.795609 2.683901 -1.55874 2.12132 -2.12132 
C 1.55874 -2.683901 0.795609 -3 0 -3 
C -0.795609 -3 -1.55874 -2.683901 -2.12132 -2.12132 
C -2.683901 -1.55874 -3 -0.795609 -3 0 
C -3 0.795609 -2.683901 1.55874 -2.12132 2.12132 
C -1.55874 2.683901 -0.795609 3 0 3 
z
" style="stroke: #1f77b4; stroke-opacity: 0.8"/>
    </defs>
    <g clip-path="url(#p9aee3cf74e)">
     <use xlink:href="#m80e4f13f4b" x="52.698352" y="260.567093" style="fill: #1f77b4; fill-opacity: 0.8; stroke: #1f77b4; stroke-opacity: 0.8"/>
     <use xlink:href="#m80e4f13f4b" x="88.77108" y="207.565674" style="fill: #1f77b4; fill-opacity: 0.8; stroke: #1f77b4; stroke-opacity: 0.8"/>
     <use xlink:href="#m80e4f13f4b" x="124.843807" y="211.757214" style="fill: #1f77b4; fill-opacity: 0.8; stroke: #1f77b4; stroke-opacity: 0.8"/>
     <use xlink:href="#m80e4f13f4b" x="160.916534" y="182.161815" style="fill: #1f77b4; fill-opacity: 0.8; stroke: #1f77b4; stroke-opacity: 0.8"/>
     <use xlink:href="#m80e4f13f4b" x="196.989261" y="152.736998" style="fill: #1f77b4; fill-opacity: 0.8; stroke: #1f77b4; stroke-opacity: 0.8"/>
     <use xlink:href="#m80e4f13f4b" x="233.061989" y="124.620673" style="fill: #1f77b4; fill-opacity: 0.8; stroke: #1f77b4; stroke-opacity: 0.8"/>
     <use xlink:href="#m80e4f13f4b" x="269.134716" y="93.863564" style="fill: #1f77b4; fill-opacity: 0.8; stroke: #1f77b4; stroke-opacity: 0.8"/>
     <use xlink:href="#m80e4f13f4b" x="305.207443" y="76.001899" style="fill: #1f77b4; fill-opacity: 0.8; stroke: #1f77b4; stroke-opacity: 0.8"/>
     <use xlink:href="#m80e4f13f4b" x="341.28017" y="59.635609" style="fill: #1f77b4; fill-opacity: 0.8; stroke: #1f77b4; stroke-opacity: 0.8"/>
     <use xlink:href="#m80e4f13f4b" x="377.352898" y="37.839749" style="fill: #1f77b4; fill-opacity: 0.8; stroke: #1f77b4; stroke-opacity: 0.8"/>
    </g>
   </g>
   <g id="PolyCollection_1">
    <path d="M 52.698352 233.925844 
L 52.698352 261.216 
L 55.977691 258.828732 
L 59.25703 256.392045 
L 62.536369 253.989462 
L 65.815708 251.612038 
L 69.095046 249.235873 
L 72.374385 246.804924 
L 75.653724 244.407437 
L 78.933063 242.050432 
L 82.212402 239.718706 
L 85.491741 237.334099 
L 88.77108 234.912165 
L 92.050418 232.552381 
L 95.329757 230.093558 
L 98.609096 227.768464 
L 101.888435 225.415429 
L 105.167774 222.995456 
L 108.447113 220.609093 
L 111.726451 218.286622 
L 115.00579 215.882052 
L 118.285129 213.540939 
L 121.564468 211.202614 
L 124.843807 208.87184 
L 128.123146 206.518274 
L 131.402485 204.165298 
L 134.681823 201.789268 
L 137.961162 199.480684 
L 141.240501 197.112938 
L 144.51984 194.799486 
L 147.799179 192.467867 
L 151.078518 190.144737 
L 154.357856 187.848745 
L 157.637195 185.575194 
L 160.916534 183.245347 
L 164.195873 180.954999 
L 167.475212 178.642747 
L 170.754551 176.317748 
L 174.033889 174.036977 
L 177.313228 171.781669 
L 180.592567 169.537791 
L 183.871906 167.247763 
L 187.151245 164.936067 
L 190.430584 162.609587 
L 193.709923 160.309128 
L 196.989261 157.994666 
L 200.2686 155.689759 
L 203.547939 153.420306 
L 206.827278 151.129313 
L 210.106617 148.819699 
L 213.385956 146.58778 
L 216.665294 144.312978 
L 219.944633 142.074842 
L 223.223972 139.771509 
L 226.503311 137.507474 
L 229.78265 135.26554 
L 233.061989 133.015279 
L 236.341327 130.74835 
L 239.620666 128.538287 
L 242.900005 126.329608 
L 246.179344 124.053554 
L 249.458683 121.772821 
L 252.738022 119.485411 
L 256.017361 117.215105 
L 259.296699 114.9599 
L 262.576038 112.705295 
L 265.855377 110.450718 
L 269.134716 108.19876 
L 272.414055 105.996731 
L 275.693394 103.790663 
L 278.972732 101.526859 
L 282.252071 99.294268 
L 285.53141 97.095099 
L 288.810749 94.87439 
L 292.090088 92.701185 
L 295.369427 90.487881 
L 298.648765 88.306492 
L 301.928104 86.108979 
L 305.207443 83.90331 
L 308.486782 81.69392 
L 311.766121 79.517821 
L 315.04546 77.385256 
L 318.324799 75.268194 
L 321.604137 73.142739 
L 324.883476 70.995001 
L 328.162815 68.855615 
L 331.442154 66.718529 
L 334.721493 64.580077 
L 338.000832 62.444192 
L 341.28017 60.416383 
L 344.559509 58.324021 
L 347.838848 56.185113 
L 351.118187 54.069087 
L 354.397526 51.959984 
L 357.676865 49.838612 
L 360.956204 47.828482 
L 364.235542 45.704752 
L 367.514881 43.5947 
L 370.79422 41.588522 
L 374.073559 39.491531 
L 377.352898 37.478307 
L 377.352898 19.296 
L 377.352898 19.296 
L 374.073559 21.673558 
L 370.79422 24.051116 
L 367.514881 26.428674 
L 364.235542 28.813304 
L 360.956204 31.268825 
L 357.676865 33.726152 
L 354.397526 36.183679 
L 351.118187 38.641205 
L 347.838848 41.076893 
L 344.559509 43.466091 
L 341.28017 45.921957 
L 338.000832 48.219267 
L 334.721493 50.652326 
L 331.442154 53.113292 
L 328.162815 55.574702 
L 324.883476 58.003104 
L 321.604137 60.346738 
L 318.324799 62.734203 
L 315.04546 65.106974 
L 311.766121 67.440692 
L 308.486782 69.811876 
L 305.207443 72.286167 
L 301.928104 74.682823 
L 298.648765 77.061298 
L 295.369427 79.438026 
L 292.090088 81.814754 
L 288.810749 84.194538 
L 285.53141 86.572103 
L 282.252071 88.932221 
L 278.972732 91.328092 
L 275.693394 93.588154 
L 272.414055 95.896768 
L 269.134716 98.203541 
L 265.855377 100.41069 
L 262.576038 102.721164 
L 259.296699 105.21114 
L 256.017361 107.4734 
L 252.738022 109.826633 
L 249.458683 112.065758 
L 246.179344 114.263993 
L 242.900005 116.514984 
L 239.620666 118.837491 
L 236.341327 121.147788 
L 233.061989 123.319368 
L 229.78265 125.416947 
L 226.503311 127.423098 
L 223.223972 129.468663 
L 219.944633 131.48257 
L 216.665294 133.543905 
L 213.385956 135.510774 
L 210.106617 137.520262 
L 206.827278 139.528426 
L 203.547939 141.587751 
L 200.2686 143.754845 
L 196.989261 145.781539 
L 193.709923 147.792392 
L 190.430584 149.794203 
L 187.151245 151.795717 
L 183.871906 153.795384 
L 180.592567 155.784815 
L 177.313228 157.769621 
L 174.033889 159.754428 
L 170.754551 161.739234 
L 167.475212 163.724041 
L 164.195873 165.708847 
L 160.916534 167.693654 
L 157.637195 169.703968 
L 154.357856 171.725364 
L 151.078518 173.726489 
L 147.799179 175.736659 
L 144.51984 177.747174 
L 141.240501 179.758472 
L 137.961162 181.770496 
L 134.681823 183.78252 
L 131.402485 185.787443 
L 128.123146 187.78749 
L 124.843807 189.787536 
L 121.564468 191.783376 
L 118.285129 193.786681 
L 115.00579 195.785514 
L 111.726451 197.784347 
L 108.447113 199.789183 
L 105.167774 201.859883 
L 101.888435 203.878309 
L 98.609096 205.881226 
L 95.329757 207.884143 
L 92.050418 209.88706 
L 88.77108 211.889977 
L 85.491741 213.892894 
L 82.212402 215.895811 
L 78.933063 217.898728 
L 75.653724 219.901646 
L 72.374385 221.904622 
L 69.095046 223.908273 
L 65.815708 225.911924 
L 62.536369 227.915576 
L 59.25703 229.919227 
L 55.977691 231.924333 
L 52.698352 233.925844 
z
" clip-path="url(#p9aee3cf74e)" style="fill: #1f77b4; fill-opacity: 0.15"/>
   </g>
   <g id="matplotlib.axis_1">
    <g id="xtick_1">
     <g id="line2d_1">
      <defs>
       <path id="ma1e38b031b" d="M 0 0 
L 0 3.5 
" style="stroke: #000000; stroke-width: 0.8"/>
      </defs>
      <g>
       <use xlink:href="#ma1e38b031b" x="52.698352" y="273.312" style="stroke: #000000; stroke-width: 0.8"/>
      </g>
     </g>
     <g id="text_1">
      <!-- 0 -->
      <g transform="translate(49.517102 287.910437) scale(0.1 -0.1)">
       <defs>
        <path id="DejaVuSans-30" d="M 2034 4250 
Q 1547 4250 1301 3770 
Q 1056 3291 1056 2328 
Q 1056 1369 1301 889 
Q 1547 409 2034 409 
Q 2525 409 2770 889 
Q 3016 1369 3016 2328 
Q 3016 3291 2770 3770 
Q 2525 4250 2034 4250 
z
M 2034 4750 
Q 2819 4750 3233 4129 
Q 3647 3509 3647 2328 
Q 3647 1150 3233 529 
Q 2819 -91 2034 -91 
Q 1250 -91 836 529 
Q 422 1150 422 2328 
Q 422 3509 836 4129 
Q 1250 4750 2034 4750 
z
" transform="scale(0.015625)"/>
       </defs>
       <use xlink:href="#DejaVuSans-30"/>
      </g>
     </g>
    </g>
    <g id="xtick_2">
     <g id="line2d_2">
      <g>
       <use xlink:href="#ma1e38b031b" x="124.843807" y="273.312" style="stroke: #000000; stroke-width: 0.8"/>
      </g>
     </g>
     <g id="text_2">
      <!-- 2 -->
      <g transform="translate(121.662557 287.910437) scale(0.1 -0.1)">
       <defs>
        <path id="DejaVuSans-32" d="M 1228 531 
L 3431 531 
L 3431 0 
L 469 0 
L 469 531 
Q 828 903 1448 1529 
Q 2069 2156 2228 2338 
Q 2531 2678 2651 2914 
Q 2772 3150 2772 3378 
Q 2772 3750 2511 3984 
Q 2250 4219 1831 4219 
Q 1534 4219 1204 4116 
Q 875 4013 500 3803 
L 500 4441 
Q 881 4594 1212 4672 
Q 1544 4750 1819 4750 
Q 2544 4750 2975 4387 
Q 3406 4025 3406 3419 
Q 3406 3131 3298 2873 
Q 3191 2616 2906 2266 
Q 2828 2175 2409 1742 
Q 1991 1309 1228 531 
z
" transform="scale(0.015625)"/>
       </defs>
       <use xlink:href="#DejaVuSans-32"/>
      </g>
     </g>
    </g>
    <g id="xtick_3">
     <g id="line2d_3">
      <g>
       <use xlink:href="#ma1e38b031b" x="196.989261" y="273.312" style="stroke: #000000; stroke-width: 0.8"/>
      </g>
     </g>
     <g id="text_3">
      <!-- 4 -->
      <g transform="translate(193.808011 287.910437) scale(0.1 -0.1)">
       <defs>
        <path id="DejaVuSans-34" d="M 2419 4116 
L 825 1625 
L 2419 1625 
L 2419 4116 
z
M 2253 4666 
L 3047 4666 
L 3047 1625 
L 3713 1625 
L 3713 1100 
L 3047 1100 
L 3047 0 
L 2419 0 
L 2419 1100 
L 313 1100 
L 313 1709 
L 2253 4666 
z
" transform="scale(0.015625)"/>
       </defs>
       <use xlink:href="#DejaVuSans-34"/>
      </g>
     </g>
    </g>
    <g id="xtick_4">
     <g id="line2d_4">
      <g>
       <use xlink:href="#ma1e38b031b" x="269.134716" y="273.312" style="stroke: #000000; stroke-width: 0.8"/>
      </g>
     </g>
     <g id="text_4">
      <!-- 6 -->
      <g transform="translate(265.953466 287.910437) scale(0.1 -0.1)">
       <defs>
        <path id="DejaVuSans-36" d="M 2113 2584 
Q 1688 2584 1439 2293 
Q 1191 2003 1191 1497 
Q 1191 994 1439 701 
Q 1688 409 2113 409 
Q 2538 409 2786 701 
Q 3034 994 3034 1497 
Q 3034 2003 2786 2293 
Q 2538 2584 2113 2584 
z
M 3366 4563 
L 3366 3988 
Q 3128 4100 2886 4159 
Q 2644 4219 2406 4219 
Q 1781 4219 1451 3797 
Q 1122 3375 1075 2522 
Q 1259 2794 1537 2939 
Q 1816 3084 2150 3084 
Q 2853 3084 3261 2657 
Q 3669 2231 3669 1497 
Q 3669 778 3244 343 
Q 2819 -91 2113 -91 
Q 1303 -91 875 529 
Q 447 1150 447 2328 
Q 447 3434 972 4092 
Q 1497 4750 2381 4750 
Q 2619 4750 2861 4703 
Q 3103 4656 3366 4563 
z
" transform="scale(0.015625)"/>
       </defs>
       <use xlink:href="#DejaVuSans-36"/>
      </g>
     </g>
    </g>
    <g id="xtick_5">
     <g id="line2d_5">
      <g>
       <use xlink:href="#ma1e38b031b" x="341.28017" y="273.312" style="stroke: #000000; stroke-width: 0.8"/>
      </g>
     </g>
     <g id="text_5">
      <!-- 8 -->
      <g transform="translate(338.09892 287.910437) scale(0.1 -0.1)">
       <defs>
        <path id="DejaVuSans-38" d="M 2034 2216 
Q 1584 2216 1326 1975 
Q 1069 1734 1069 1313 
Q 1069 891 1326 650 
Q 1584 409 2034 409 
Q 2484 409 2743 651 
Q 3003 894 3003 1313 
Q 3003 1734 2745 1975 
Q 2488 2216 2034 2216 
z
M 1403 2484 
Q 997 2584 770 2862 
Q 544 3141 544 3541 
Q 544 4100 942 4425 
Q 1341 4750 2034 4750 
Q 2731 4750 3128 4425 
Q 3525 4100 3525 3541 
Q 3525 3141 3298 2862 
Q 3072 2584 2669 2484 
Q 3125 2378 3379 2068 
Q 3634 1759 3634 1313 
Q 3634 634 3220 271 
Q 2806 -91 2034 -91 
Q 1263 -91 848 271 
Q 434 634 434 1313 
Q 434 1759 690 2068 
Q 947 2378 1403 2484 
z
M 1172 3481 
Q 1172 3119 1398 2916 
Q 1625 2713 2034 2713 
Q 2441 2713 2670 2916 
Q 2900 3119 2900 3481 
Q 2900 3844 2670 4047 
Q 2441 4250 2034 4250 
Q 1625 4250 1398 4047 
Q 1172 3844 1172 3481 
z
" transform="scale(0.015625)"/>
       </defs>
       <use xlink:href="#DejaVuSans-38"/>
      </g>
     </g>
    </g>
   </g>
   <g id="matplotlib.axis_2">
    <g id="ytick_1">
     <g id="line2d_6">
      <defs>
       <path id="mb0fcd69d2b" d="M 0 0 
L -3.5 0 
" style="stroke: #000000; stroke-width: 0.8"/>
      </defs>
      <g>
       <use xlink:href="#mb0fcd69d2b" x="36.465625" y="261.591187" style="stroke: #000000; stroke-width: 0.8"/>
      </g>
     </g>
     <g id="text_6">
      <!-- 0.0 -->
      <g transform="translate(13.5625 265.390406) scale(0.1 -0.1)">
       <defs>
        <path id="DejaVuSans-2e" d="M 684 794 
L 1344 794 
L 1344 0 
L 684 0 
L 684 794 
z
" transform="scale(0.015625)"/>
       </defs>
       <use xlink:href="#DejaVuSans-30"/>
       <use xlink:href="#DejaVuSans-2e" x="63.623047"/>
       <use xlink:href="#DejaVuSans-30" x="95.410156"/>
      </g>
     </g>
    </g>
    <g id="ytick_2">
     <g id="line2d_7">
      <g>
       <use xlink:href="#mb0fcd69d2b" x="36.465625" y="229.357951" style="stroke: #000000; stroke-width: 0.8"/>
      </g>
     </g>
     <g id="text_7">
      <!-- 2.5 -->
      <g transform="translate(13.5625 233.15717) scale(0.1 -0.1)">
       <defs>
        <path id="DejaVuSans-35" d="M 691 4666 
L 3169 4666 
L 3169 4134 
L 1269 4134 
L 1269 2991 
Q 1406 3038 1543 3061 
Q 1681 3084 1819 3084 
Q 2600 3084 3056 2656 
Q 3513 2228 3513 1497 
Q 3513 744 3044 326 
Q 2575 -91 1722 -91 
Q 1428 -91 1123 -41 
Q 819 9 494 109 
L 494 744 
Q 775 591 1075 516 
Q 1375 441 1709 441 
Q 2250 441 2565 725 
Q 2881 1009 2881 1497 
Q 2881 1984 2565 2268 
Q 2250 2553 1709 2553 
Q 1456 2553 1204 2497 
Q 953 2441 691 2322 
L 691 4666 
z
" transform="scale(0.015625)"/>
       </defs>
       <use xlink:href="#DejaVuSans-32"/>
       <use xlink:href="#DejaVuSans-2e" x="63.623047"/>
       <use xlink:href="#DejaVuSans-35" x="95.410156"/>
      </g>
     </g>
    </g>
    <g id="ytick_3">
     <g id="line2d_8">
      <g>
       <use xlink:href="#mb0fcd69d2b" x="36.465625" y="197.124715" style="stroke: #000000; stroke-width: 0.8"/>
      </g>
     </g>
     <g id="text_8">
      <!-- 5.0 -->
      <g transform="translate(13.5625 200.923934) scale(0.1 -0.1)">
       <use xlink:href="#DejaVuSans-35"/>
       <use xlink:href="#DejaVuSans-2e" x="63.623047"/>
       <use xlink:href="#DejaVuSans-30" x="95.410156"/>
      </g>
     </g>
    </g>
    <g id="ytick_4">
     <g id="line2d_9">
      <g>
       <use xlink:href="#mb0fcd69d2b" x="36.465625" y="164.891479" style="stroke: #000000; stroke-width: 0.8"/>
      </g>
     </g>
     <g id="text_9">
      <!-- 7.5 -->
      <g transform="translate(13.5625 168.690698) scale(0.1 -0.1)">
       <defs>
        <path id="DejaVuSans-37" d="M 525 4666 
L 3525 4666 
L 3525 4397 
L 1831 0 
L 1172 0 
L 2766 4134 
L 525 4134 
L 525 4666 
z
" transform="scale(0.015625)"/>
       </defs>
       <use xlink:href="#DejaVuSans-37"/>
       <use xlink:href="#DejaVuSans-2e" x="63.623047"/>
       <use xlink:href="#DejaVuSans-35" x="95.410156"/>
      </g>
     </g>
    </g>
    <g id="ytick_5">
     <g id="line2d_10">
      <g>
       <use xlink:href="#mb0fcd69d2b" x="36.465625" y="132.658243" style="stroke: #000000; stroke-width: 0.8"/>
      </g>
     </g>
     <g id="text_10">
      <!-- 10.0 -->
      <g transform="translate(7.2 136.457462) scale(0.1 -0.1)">
       <defs>
        <path id="DejaVuSans-31" d="M 794 531 
L 1825 531 
L 1825 4091 
L 703 3866 
L 703 4441 
L 1819 4666 
L 2450 4666 
L 2450 531 
L 3481 531 
L 3481 0 
L 794 0 
L 794 531 
z
" transform="scale(0.015625)"/>
       </defs>
       <use xlink:href="#DejaVuSans-31"/>
       <use xlink:href="#DejaVuSans-30" x="63.623047"/>
       <use xlink:href="#DejaVuSans-2e" x="127.246094"/>
       <use xlink:href="#DejaVuSans-30" x="159.033203"/>
      </g>
     </g>
    </g>
    <g id="ytick_6">
     <g id="line2d_11">
      <g>
       <use xlink:href="#mb0fcd69d2b" x="36.465625" y="100.425007" style="stroke: #000000; stroke-width: 0.8"/>
      </g>
     </g>
     <g id="text_11">
      <!-- 12.5 -->
      <g transform="translate(7.2 104.224225) scale(0.1 -0.1)">
       <use xlink:href="#DejaVuSans-31"/>
       <use xlink:href="#DejaVuSans-32" x="63.623047"/>
       <use xlink:href="#DejaVuSans-2e" x="127.246094"/>
       <use xlink:href="#DejaVuSans-35" x="159.033203"/>
      </g>
     </g>
    </g>
    <g id="ytick_7">
     <g id="line2d_12">
      <g>
       <use xlink:href="#mb0fcd69d2b" x="36.465625" y="68.191771" style="stroke: #000000; stroke-width: 0.8"/>
      </g>
     </g>
     <g id="text_12">
      <!-- 15.0 -->
      <g transform="translate(7.2 71.990989) scale(0.1 -0.1)">
       <use xlink:href="#DejaVuSans-31"/>
       <use xlink:href="#DejaVuSans-35" x="63.623047"/>
       <use xlink:href="#DejaVuSans-2e" x="127.246094"/>
       <use xlink:href="#DejaVuSans-30" x="159.033203"/>
      </g>
     </g>
    </g>
    <g id="ytick_8">
     <g id="line2d_13">
      <g>
       <use xlink:href="#mb0fcd69d2b" x="36.465625" y="35.958534" style="stroke: #000000; stroke-width: 0.8"/>
      </g>
     </g>
     <g id="text_13">
      <!-- 17.5 -->
      <g transform="translate(7.2 39.757753) scale(0.1 -0.1)">
       <use xlink:href="#DejaVuSans-31"/>
       <use xlink:href="#DejaVuSans-37" x="63.623047"/>
       <use xlink:href="#DejaVuSans-2e" x="127.246094"/>
       <use xlink:href="#DejaVuSans-35" x="159.033203"/>
      </g>
     </g>
    </g>
   </g>
   <g id="line2d_14">
    <path d="M 52.698352 250.088962 
L 55.977691 247.878579 
L 59.25703 245.668197 
L 62.536369 243.457814 
L 65.815708 241.247432 
L 69.095046 239.037049 
L 72.374385 236.826667 
L 75.653724 234.616284 
L 78.933063 232.405902 
L 82.212402 230.195519 
L 85.491741 227.985137 
L 88.77108 225.774754 
L 92.050418 223.564372 
L 95.329757 221.353989 
L 98.609096 219.143607 
L 101.888435 216.933224 
L 105.167774 214.722842 
L 108.447113 212.512459 
L 111.726451 210.302077 
L 115.00579 208.091694 
L 118.285129 205.881312 
L 121.564468 203.67093 
L 124.843807 201.460547 
L 128.123146 199.250165 
L 131.402485 197.039782 
L 134.681823 194.8294 
L 137.961162 192.619017 
L 141.240501 190.408635 
L 144.51984 188.198252 
L 147.799179 185.98787 
L 151.078518 183.777487 
L 154.357856 181.567105 
L 157.637195 179.356722 
L 160.916534 177.14634 
L 164.195873 174.935957 
L 167.475212 172.725575 
L 170.754551 170.515192 
L 174.033889 168.30481 
L 177.313228 166.094427 
L 180.592567 163.884045 
L 183.871906 161.673662 
L 187.151245 159.46328 
L 190.430584 157.252897 
L 193.709923 155.042515 
L 196.989261 152.832133 
L 200.2686 150.62175 
L 203.547939 148.411368 
L 206.827278 146.200985 
L 210.106617 143.990603 
L 213.385956 141.78022 
L 216.665294 139.569838 
L 219.944633 137.359455 
L 223.223972 135.149073 
L 226.503311 132.93869 
L 229.78265 130.728308 
L 233.061989 128.517925 
L 236.341327 126.307543 
L 239.620666 124.09716 
L 242.900005 121.886778 
L 246.179344 119.676395 
L 249.458683 117.466013 
L 252.738022 115.25563 
L 256.017361 113.045248 
L 259.296699 110.834865 
L 262.576038 108.624483 
L 265.855377 106.4141 
L 269.134716 104.203718 
L 272.414055 101.993336 
L 275.693394 99.782953 
L 278.972732 97.572571 
L 282.252071 95.362188 
L 285.53141 93.151806 
L 288.810749 90.941423 
L 292.090088 88.731041 
L 295.369427 86.520658 
L 298.648765 84.310276 
L 301.928104 82.099893 
L 305.207443 79.889511 
L 308.486782 77.679128 
L 311.766121 75.468746 
L 315.04546 73.258363 
L 318.324799 71.047981 
L 321.604137 68.837598 
L 324.883476 66.627216 
L 328.162815 64.416833 
L 331.442154 62.206451 
L 334.721493 59.996068 
L 338.000832 57.785686 
L 341.28017 55.575303 
L 344.559509 53.364921 
L 347.838848 51.154539 
L 351.118187 48.944156 
L 354.397526 46.733774 
L 357.676865 44.523391 
L 360.956204 42.313009 
L 364.235542 40.102626 
L 367.514881 37.892244 
L 370.79422 35.681861 
L 374.073559 33.471479 
L 377.352898 31.261096 
" clip-path="url(#p9aee3cf74e)" style="fill: none; stroke: #1f77b4; stroke-width: 2.25; stroke-linecap: square"/>
   </g>
   <g id="patch_3">
    <path d="M 36.465625 273.312 
L 36.465625 7.2 
" style="fill: none; stroke: #000000; stroke-width: 0.8; stroke-linejoin: miter; stroke-linecap: square"/>
   </g>
   <g id="patch_4">
    <path d="M 393.585625 273.312 
L 393.585625 7.2 
" style="fill: none; stroke: #000000; stroke-width: 0.8; stroke-linejoin: miter; stroke-linecap: square"/>
   </g>
   <g id="patch_5">
    <path d="M 36.465625 273.312 
L 393.585625 273.312 
" style="fill: none; stroke: #000000; stroke-width: 0.8; stroke-linejoin: miter; stroke-linecap: square"/>
   </g>
   <g id="patch_6">
    <path d="M 36.465625 7.2 
L 393.585625 7.2 
" style="fill: none; stroke: #000000; stroke-width: 0.8; stroke-linejoin: miter; stroke-linecap: square"/>
   </g>
  </g>
 </g>
 <defs>
  <clipPath id="p9aee3cf74e">
   <rect x="36.465625" y="7.2" width="357.12" height="266.112"/>
  </clipPath>
 </defs>
</svg>