<?xml version="1.0" encoding="utf-8" standalone="no"?>
<!DOCTYPE svg PUBLIC "-//W3C//DTD SVG 1.1//EN"
  "http://www.w3.org/Graphics/SVG/1.1/DTD/svg11.dtd">
<svg xmlns:xlink="http://www.w3.org/1999/xlink" width="393.262187pt" height="307.788562pt" viewBox="0 0 393.262187 307.788562" xmlns="http://www.w3.org/2000/svg" version="1.1">
 <metadata>
  <rdf:RDF xmlns:dc="http://purl.org/dc/elements/1.1/" xmlns:cc="http://creativecommons.org/ns#" xmlns:rdf="http://www.w3.org/1999/02/22-rdf-syntax-ns#">
   <cc:Work>
    <dc:type rdf:resource="http://purl.org/dc/dcmitype/StillImage"/>
    <dc:date>2025-07-04T13:50:50.600995</dc:date>
    <dc:format>image/svg+xml</dc:format>
    <dc:creator>
     <cc:Agent>
      <dc:title>Matplotlib v3.10.3, https://matplotlib.org/</dc:title>
     </cc:Agent>
    </dc:creator>
   </cc:Work>
  </rdf:RDF>
 </metadata>
 <defs>
  <style type="text/css">*{stroke-linejoin: round; stroke-linecap: butt}</style>
 </defs>
 <g id="figure_1">
  <g id="patch_1">
   <path d="M 0 307.788562 
L 393.262187 307.788562 
L 393.262187 0 
L 0 0 
z
" style="fill: #ffffff"/>
  </g>
  <g id="axes_1">
   <g id="patch_2">
    <path d="M 28.942188 283.910437 
L 386.062188 283.910437 
L 386.062188 17.798437 
L 28.942188 17.798437 
z
" style="fill: #ffffff"/>
   </g>
   <g id="matplotlib.axis_1">
    <g id="xtick_1">
     <g id="line2d_1">
      <defs>
       <path id="m2a86958f4f" d="M 0 0 
L 0 3.5 
" style="stroke: #000000; stroke-width: 0.8"/>
      </defs>
      <g>
       <use xlink:href="#m2a86958f4f" x="65.5865" y="283.910437" style="stroke: #000000; stroke-width: 0.8"/>
      </g>
     </g>
     <g id="text_1">
      <!-- −2.0 -->
      <g transform="translate(53.445094 298.508875) scale(0.1 -0.1)">
       <defs>
        <path id="DejaVuSans-2212" d="M 678 2272 
L 4684 2272 
L 4684 1741 
L 678 1741 
L 678 2272 
z
" transform="scale(0.015625)"/>
        <path id="DejaVuSans-32" d="M 1228 531 
L 3431 531 
L 3431 0 
L 469 0 
L 469 531 
Q 828 903 1448 1529 
Q 2069 2156 2228 2338 
Q 2531 2678 2651 2914 
Q 2772 3150 2772 3378 
Q 2772 3750 2511 3984 
Q 2250 4219 1831 4219 
Q 1534 4219 1204 4116 
Q 875 4013 500 3803 
L 500 4441 
Q 881 4594 1212 4672 
Q 1544 4750 1819 4750 
Q 2544 4750 2975 4387 
Q 3406 4025 3406 3419 
Q 3406 3131 3298 2873 
Q 3191 2616 2906 2266 
Q 2828 2175 2409 1742 
Q 1991 1309 1228 531 
z
" transform="scale(0.015625)"/>
        <path id="DejaVuSans-2e" d="M 684 794 
L 1344 794 
L 1344 0 
L 684 0 
L 684 794 
z
" transform="scale(0.015625)"/>
        <path id="DejaVuSans-30" d="M 2034 4250 
Q 1547 4250 1301 3770 
Q 1056 3291 1056 2328 
Q 1056 1369 1301 889 
Q 1547 409 2034 409 
Q 2525 409 2770 889 
Q 3016 1369 3016 2328 
Q 3016 3291 2770 3770 
Q 2525 4250 2034 4250 
z
M 2034 4750 
Q 2819 4750 3233 4129 
Q 3647 3509 3647 2328 
Q 3647 1150 3233 529 
Q 2819 -91 2034 -91 
Q 1250 -91 836 529 
Q 422 1150 422 2328 
Q 422 3509 836 4129 
Q 1250 4750 2034 4750 
z
" transform="scale(0.015625)"/>
       </defs>
       <use xlink:href="#DejaVuSans-2212"/>
       <use xlink:href="#DejaVuSans-32" transform="translate(83.789062 0)"/>
       <use xlink:href="#DejaVuSans-2e" transform="translate(147.412109 0)"/>
       <use xlink:href="#DejaVuSans-30" transform="translate(179.199219 0)"/>
      </g>
     </g>
    </g>
    <g id="xtick_2">
     <g id="line2d_2">
      <g>
       <use xlink:href="#m2a86958f4f" x="134.54456" y="283.910437" style="stroke: #000000; stroke-width: 0.8"/>
      </g>
     </g>
     <g id="text_2">
      <!-- −1.5 -->
      <g transform="translate(122.403154 298.508875) scale(0.1 -0.1)">
       <defs>
        <path id="DejaVuSans-31" d="M 794 531 
L 1825 531 
L 1825 4091 
L 703 3866 
L 703 4441 
L 1819 4666 
L 2450 4666 
L 2450 531 
L 3481 531 
L 3481 0 
L 794 0 
L 794 531 
z
" transform="scale(0.015625)"/>
        <path id="DejaVuSans-35" d="M 691 4666 
L 3169 4666 
L 3169 4134 
L 1269 4134 
L 1269 2991 
Q 1406 3038 1543 3061 
Q 1681 3084 1819 3084 
Q 2600 3084 3056 2656 
Q 3513 2228 3513 1497 
Q 3513 744 3044 326 
Q 2575 -91 1722 -91 
Q 1428 -91 1123 -41 
Q 819 9 494 109 
L 494 744 
Q 775 591 1075 516 
Q 1375 441 1709 441 
Q 2250 441 2565 725 
Q 2881 1009 2881 1497 
Q 2881 1984 2565 2268 
Q 2250 2553 1709 2553 
Q 1456 2553 1204 2497 
Q 953 2441 691 2322 
L 691 4666 
z
" transform="scale(0.015625)"/>
       </defs>
       <use xlink:href="#DejaVuSans-2212"/>
       <use xlink:href="#DejaVuSans-31" transform="translate(83.789062 0)"/>
       <use xlink:href="#DejaVuSans-2e" transform="translate(147.412109 0)"/>
       <use xlink:href="#DejaVuSans-35" transform="translate(179.199219 0)"/>
      </g>
     </g>
    </g>
    <g id="xtick_3">
     <g id="line2d_3">
      <g>
       <use xlink:href="#m2a86958f4f" x="203.50262" y="283.910437" style="stroke: #000000; stroke-width: 0.8"/>
      </g>
     </g>
     <g id="text_3">
      <!-- −1.0 -->
      <g transform="translate(191.361214 298.508875) scale(0.1 -0.1)">
       <use xlink:href="#DejaVuSans-2212"/>
       <use xlink:href="#DejaVuSans-31" transform="translate(83.789062 0)"/>
       <use xlink:href="#DejaVuSans-2e" transform="translate(147.412109 0)"/>
       <use xlink:href="#DejaVuSans-30" transform="translate(179.199219 0)"/>
      </g>
     </g>
    </g>
    <g id="xtick_4">
     <g id="line2d_4">
      <g>
       <use xlink:href="#m2a86958f4f" x="272.46068" y="283.910437" style="stroke: #000000; stroke-width: 0.8"/>
      </g>
     </g>
     <g id="text_4">
      <!-- −0.5 -->
      <g transform="translate(260.319274 298.508875) scale(0.1 -0.1)">
       <use xlink:href="#DejaVuSans-2212"/>
       <use xlink:href="#DejaVuSans-30" transform="translate(83.789062 0)"/>
       <use xlink:href="#DejaVuSans-2e" transform="translate(147.412109 0)"/>
       <use xlink:href="#DejaVuSans-35" transform="translate(179.199219 0)"/>
      </g>
     </g>
    </g>
    <g id="xtick_5">
     <g id="line2d_5">
      <g>
       <use xlink:href="#m2a86958f4f" x="341.41874" y="283.910437" style="stroke: #000000; stroke-width: 0.8"/>
      </g>
     </g>
     <g id="text_5">
      <!-- 0.0 -->
      <g transform="translate(333.467177 298.508875) scale(0.1 -0.1)">
       <use xlink:href="#DejaVuSans-30"/>
       <use xlink:href="#DejaVuSans-2e" transform="translate(63.623047 0)"/>
       <use xlink:href="#DejaVuSans-30" transform="translate(95.410156 0)"/>
      </g>
     </g>
    </g>
   </g>
   <g id="matplotlib.axis_2">
    <g id="ytick_1">
     <g id="line2d_6">
      <defs>
       <path id="m0ec67c6e49" d="M 0 0 
L -3.5 0 
" style="stroke: #000000; stroke-width: 0.8"/>
      </defs>
      <g>
       <use xlink:href="#m0ec67c6e49" x="28.942188" y="259.315582" style="stroke: #000000; stroke-width: 0.8"/>
      </g>
     </g>
     <g id="text_6">
      <!-- −8 -->
      <g transform="translate(7.2 263.114801) scale(0.1 -0.1)">
       <defs>
        <path id="DejaVuSans-38" d="M 2034 2216 
Q 1584 2216 1326 1975 
Q 1069 1734 1069 1313 
Q 1069 891 1326 650 
Q 1584 409 2034 409 
Q 2484 409 2743 651 
Q 3003 894 3003 1313 
Q 3003 1734 2745 1975 
Q 2488 2216 2034 2216 
z
M 1403 2484 
Q 997 2584 770 2862 
Q 544 3141 544 3541 
Q 544 4100 942 4425 
Q 1341 4750 2034 4750 
Q 2731 4750 3128 4425 
Q 3525 4100 3525 3541 
Q 3525 3141 3298 2862 
Q 3072 2584 2669 2484 
Q 3125 2378 3379 2068 
Q 3634 1759 3634 1313 
Q 3634 634 3220 271 
Q 2806 -91 2034 -91 
Q 1263 -91 848 271 
Q 434 634 434 1313 
Q 434 1759 690 2068 
Q 947 2378 1403 2484 
z
M 1172 3481 
Q 1172 3119 1398 2916 
Q 1625 2713 2034 2713 
Q 2441 2713 2670 2916 
Q 2900 3119 2900 3481 
Q 2900 3844 2670 4047 
Q 2441 4250 2034 4250 
Q 1625 4250 1398 4047 
Q 1172 3844 1172 3481 
z
" transform="scale(0.015625)"/>
       </defs>
       <use xlink:href="#DejaVuSans-2212"/>
       <use xlink:href="#DejaVuSans-38" transform="translate(83.789062 0)"/>
      </g>
     </g>
    </g>
    <g id="ytick_2">
     <g id="line2d_7">
      <g>
       <use xlink:href="#m0ec67c6e49" x="28.942188" y="228.326683" style="stroke: #000000; stroke-width: 0.8"/>
      </g>
     </g>
     <g id="text_7">
      <!-- −6 -->
      <g transform="translate(7.2 232.125902) scale(0.1 -0.1)">
       <defs>
        <path id="DejaVuSans-36" d="M 2113 2584 
Q 1688 2584 1439 2293 
Q 1191 2003 1191 1497 
Q 1191 994 1439 701 
Q 1688 409 2113 409 
Q 2538 409 2786 701 
Q 3034 994 3034 1497 
Q 3034 2003 2786 2293 
Q 2538 2584 2113 2584 
z
M 3366 4563 
L 3366 3988 
Q 3128 4100 2886 4159 
Q 2644 4219 2406 4219 
Q 1781 4219 1451 3797 
Q 1122 3375 1075 2522 
Q 1259 2794 1537 2939 
Q 1816 3084 2150 3084 
Q 2853 3084 3261 2657 
Q 3669 2231 3669 1497 
Q 3669 778 3244 343 
Q 2819 -91 2113 -91 
Q 1303 -91 875 529 
Q 447 1150 447 2328 
Q 447 3434 972 4092 
Q 1497 4750 2381 4750 
Q 2619 4750 2861 4703 
Q 3103 4656 3366 4563 
z
" transform="scale(0.015625)"/>
       </defs>
       <use xlink:href="#DejaVuSans-2212"/>
       <use xlink:href="#DejaVuSans-36" transform="translate(83.789062 0)"/>
      </g>
     </g>
    </g>
    <g id="ytick_3">
     <g id="line2d_8">
      <g>
       <use xlink:href="#m0ec67c6e49" x="28.942188" y="197.337785" style="stroke: #000000; stroke-width: 0.8"/>
      </g>
     </g>
     <g id="text_8">
      <!-- −4 -->
      <g transform="translate(7.2 201.137004) scale(0.1 -0.1)">
       <defs>
        <path id="DejaVuSans-34" d="M 2419 4116 
L 825 1625 
L 2419 1625 
L 2419 4116 
z
M 2253 4666 
L 3047 4666 
L 3047 1625 
L 3713 1625 
L 3713 1100 
L 3047 1100 
L 3047 0 
L 2419 0 
L 2419 1100 
L 313 1100 
L 313 1709 
L 2253 4666 
z
" transform="scale(0.015625)"/>
       </defs>
       <use xlink:href="#DejaVuSans-2212"/>
       <use xlink:href="#DejaVuSans-34" transform="translate(83.789062 0)"/>
      </g>
     </g>
    </g>
    <g id="ytick_4">
     <g id="line2d_9">
      <g>
       <use xlink:href="#m0ec67c6e49" x="28.942188" y="166.348887" style="stroke: #000000; stroke-width: 0.8"/>
      </g>
     </g>
     <g id="text_9">
      <!-- −2 -->
      <g transform="translate(7.2 170.148105) scale(0.1 -0.1)">
       <use xlink:href="#DejaVuSans-2212"/>
       <use xlink:href="#DejaVuSans-32" transform="translate(83.789062 0)"/>
      </g>
     </g>
    </g>
    <g id="ytick_5">
     <g id="line2d_10">
      <g>
       <use xlink:href="#m0ec67c6e49" x="28.942188" y="135.359988" style="stroke: #000000; stroke-width: 0.8"/>
      </g>
     </g>
     <g id="text_10">
      <!-- 0 -->
      <g transform="translate(15.579688 139.159207) scale(0.1 -0.1)">
       <use xlink:href="#DejaVuSans-30"/>
      </g>
     </g>
    </g>
    <g id="ytick_6">
     <g id="line2d_11">
      <g>
       <use xlink:href="#m0ec67c6e49" x="28.942188" y="104.37109" style="stroke: #000000; stroke-width: 0.8"/>
      </g>
     </g>
     <g id="text_11">
      <!-- 2 -->
      <g transform="translate(15.579688 108.170309) scale(0.1 -0.1)">
       <use xlink:href="#DejaVuSans-32"/>
      </g>
     </g>
    </g>
    <g id="ytick_7">
     <g id="line2d_12">
      <g>
       <use xlink:href="#m0ec67c6e49" x="28.942188" y="73.382192" style="stroke: #000000; stroke-width: 0.8"/>
      </g>
     </g>
     <g id="text_12">
      <!-- 4 -->
      <g transform="translate(15.579688 77.18141) scale(0.1 -0.1)">
       <use xlink:href="#DejaVuSans-34"/>
      </g>
     </g>
    </g>
    <g id="ytick_8">
     <g id="line2d_13">
      <g>
       <use xlink:href="#m0ec67c6e49" x="28.942188" y="42.393293" style="stroke: #000000; stroke-width: 0.8"/>
      </g>
     </g>
     <g id="text_13">
      <!-- 6 -->
      <g transform="translate(15.579688 46.192512) scale(0.1 -0.1)">
       <use xlink:href="#DejaVuSans-36"/>
      </g>
     </g>
    </g>
    <g id="text_14">
     <!-- 1e−6 -->
     <g transform="translate(28.942188 14.798437) scale(0.1 -0.1)">
      <defs>
       <path id="DejaVuSans-65" d="M 3597 1894 
L 3597 1613 
L 953 1613 
Q 991 1019 1311 708 
Q 1631 397 2203 397 
Q 2534 397 2845 478 
Q 3156 559 3463 722 
L 3463 178 
Q 3153 47 2828 -22 
Q 2503 -91 2169 -91 
Q 1331 -91 842 396 
Q 353 884 353 1716 
Q 353 2575 817 3079 
Q 1281 3584 2069 3584 
Q 2775 3584 3186 3129 
Q 3597 2675 3597 1894 
z
M 3022 2063 
Q 3016 2534 2758 2815 
Q 2500 3097 2075 3097 
Q 1594 3097 1305 2825 
Q 1016 2553 972 2059 
L 3022 2063 
z
" transform="scale(0.015625)"/>
      </defs>
      <use xlink:href="#DejaVuSans-31"/>
      <use xlink:href="#DejaVuSans-65" transform="translate(63.623047 0)"/>
      <use xlink:href="#DejaVuSans-2212" transform="translate(125.146484 0)"/>
      <use xlink:href="#DejaVuSans-36" transform="translate(208.935547 0)"/>
     </g>
    </g>
   </g>
   <g id="line2d_14">
    <path d="M 261.42739 123.171022 
L 261.289474 123.894096 
L 261.151558 126.32156 
L 260.875726 135.928118 
L 260.73781 134.895155 
L 260.324061 115.165556 
L 260.186145 117.386427 
L 259.772397 130.81495 
L 259.634481 129.11056 
L 259.496565 124.823763 
L 259.496565 119.194113 
L 259.082816 129.420449 
L 258.669068 118.935872 
L 258.393236 124.100689 
L 258.117403 116.611705 
L 257.979487 115.940279 
L 257.703655 119.917187 
L 257.565739 119.090817 
L 257.427823 124.720467 
L 257.289907 124.823763 
L 257.151991 126.528152 
L 256.876158 120.898502 
L 256.738242 120.278724 
L 256.600326 121.311688 
L 256.324494 128.749023 
L 256.186578 129.833635 
L 255.772829 118.057853 
L 255.359081 126.734745 
L 255.221165 126.683097 
L 255.083249 127.354523 
L 254.945333 129.368801 
L 254.531584 120.898502 
L 254.393668 122.08641 
L 254.255752 125.495189 
L 254.117836 124.203985 
L 253.97992 121.673225 
L 253.842004 115.578742 
L 253.704088 114.49413 
L 253.566171 120.69191 
L 253.290339 137.167674 
L 252.876591 129.11056 
L 252.600759 135.721525 
L 252.462842 135.979766 
L 252.462842 129.67869 
L 252.18701 124.307281 
L 251.911178 132.157802 
L 251.773262 133.449006 
L 251.635346 133.035821 
L 251.49743 136.031414 
L 251.359514 134.48197 
L 251.083681 122.912781 
L 250.669933 134.223729 
L 250.394101 125.082004 
L 250.118268 136.961081 
L 249.980352 136.754489 
L 249.70452 127.044634 
L 249.428688 128.439134 
L 249.290772 126.941338 
L 249.014939 129.317153 
L 248.877023 130.81495 
L 248.601191 125.1853 
L 248.463275 124.720467 
L 248.049527 118.471039 
L 247.635778 133.862192 
L 247.497862 130.505061 
L 247.22203 118.522687 
L 247.084114 117.128186 
L 246.808282 126.992986 
L 246.670365 129.781987 
L 246.532449 126.166615 
L 246.394533 125.701782 
L 245.980785 118.109502 
L 245.842869 118.72928 
L 245.704953 121.105095 
L 245.42912 131.538024 
L 245.291204 132.622636 
L 245.291204 130.453413 
L 245.153288 125.030356 
L 245.015372 124.358929 
L 244.73954 118.522687 
L 244.601624 116.715001 
L 244.187875 124.875411 
L 244.049959 123.945744 
L 243.636211 128.594079 
L 243.498295 127.561116 
L 243.360379 129.988579 
L 243.222462 127.974301 
L 242.808714 112.634796 
L 242.670798 114.49413 
L 242.119134 133.139117 
L 241.981217 133.758895 
L 241.843301 135.773174 
L 241.429553 116.301816 
L 240.877888 124.823763 
L 240.739972 124.927059 
L 240.602056 125.650133 
L 240.326224 125.340245 
L 240.050392 123.739151 
L 239.912476 125.546837 
L 239.498727 118.574335 
L 239.222895 123.945744 
L 239.084979 123.687503 
L 238.947063 126.32156 
L 238.809147 131.847913 
L 238.671231 131.228135 
L 238.395398 120.743558 
L 238.257482 121.053447 
L 237.98165 136.238007 
L 237.705818 127.974301 
L 237.567902 127.819356 
L 237.429985 125.908374 
L 237.292069 127.612764 
L 237.154153 123.22267 
L 237.016237 122.809484 
L 236.740405 120.795206 
L 236.464573 128.28419 
L 236.326656 135.30834 
L 236.18874 135.721525 
L 235.912908 133.190765 
L 235.637076 134.791859 
L 235.49916 131.692969 
L 235.085411 132.77758 
L 234.947495 130.143524 
L 234.809579 124.410578 
L 234.671663 124.410578 
L 234.533747 122.706188 
L 234.119999 141.247879 
L 233.70625 129.67869 
L 233.430418 128.180894 
L 233.154586 122.602892 
L 233.01667 123.067725 
L 232.740837 132.622636 
L 232.602921 132.20945 
L 232.189173 116.095223 
L 232.051257 117.334779 
L 231.913341 120.898502 
L 231.775425 120.227076 
L 231.637508 120.640262 
L 231.499592 118.212798 
L 231.361676 118.677631 
L 231.085844 134.068784 
L 230.810012 114.597426 
L 230.672096 111.498537 
L 230.258347 120.020484 
L 230.120431 121.621577 
L 229.982515 120.278724 
L 229.844599 120.175428 
L 229.706683 119.349057 
L 229.430851 122.293003 
L 229.292934 120.588613 
L 228.879186 121.879818 
L 228.74127 125.133652 
L 228.603354 125.133652 
L 228.465438 127.406171 
L 228.327522 123.584207 
L 228.189605 123.635855 
L 228.051689 122.861133 
L 227.637941 109.019425 
L 227.086276 126.011671 
L 226.94836 126.32156 
L 226.810444 125.340245 
L 226.672528 125.701782 
L 226.534612 124.307281 
L 226.396696 126.941338 
L 226.25878 122.344651 
L 226.120864 122.344651 
L 225.982948 118.780928 
L 225.845031 123.119373 
L 225.707115 121.828169 
L 225.569199 122.551244 
L 225.431283 120.640262 
L 225.155451 124.61717 
L 225.017535 127.406171 
L 224.879619 124.61717 
L 224.603786 117.283131 
L 224.327954 127.509467 
L 224.190038 126.683097 
L 224.052122 126.786393 
L 223.914206 125.701782 
L 223.914206 128.85232 
L 223.77629 124.875411 
L 223.638373 124.720467 
L 223.500457 123.945744 
L 223.362541 128.903968 
L 223.224625 129.213857 
L 223.086709 127.974301 
L 222.672961 118.780928 
L 222.535045 117.954557 
L 221.98338 132.932525 
L 221.845464 134.172081 
L 221.707548 134.017136 
L 221.569632 129.420449 
L 221.431716 129.368801 
L 221.017967 118.780928 
L 220.880051 118.109502 
L 220.742135 118.522687 
L 220.466303 124.875411 
L 220.328387 122.912781 
L 220.052554 113.874352 
L 219.914638 115.423797 
L 219.50089 126.218263 
L 219.362974 120.846854 
L 219.225058 119.865539 
L 218.949225 130.350116 
L 218.811309 131.38308 
L 218.673393 130.040227 
L 218.535477 132.984173 
L 218.259645 129.936931 
L 218.121729 123.119373 
L 217.983813 128.490783 
L 217.845896 127.819356 
L 217.70798 129.213857 
L 217.570064 120.795206 
L 217.432148 122.912781 
L 217.294232 123.22267 
L 217.156316 125.288596 
L 217.0184 125.288596 
L 216.742568 132.674284 
L 216.742568 132.20945 
L 216.466735 124.720467 
L 216.190903 120.12378 
L 215.915071 123.22267 
L 215.777155 128.645727 
L 215.501322 118.677631 
L 215.363406 115.268853 
L 215.22549 115.06226 
L 215.087574 114.080945 
L 214.949658 114.907315 
L 214.673826 128.490783 
L 214.53591 132.106154 
L 214.122161 125.236948 
L 213.984245 122.551244 
L 213.846329 123.997392 
L 213.570497 121.983114 
L 213.432581 122.809484 
L 213.156748 129.472098 
L 213.018832 132.467691 
L 212.880916 127.354523 
L 212.743 126.941338 
L 212.605084 123.377614 
L 212.329252 126.269911 
L 212.191336 126.011671 
L 211.915503 120.330373 
L 211.777587 120.536965 
L 211.501755 131.38308 
L 211.363839 129.988579 
L 211.088007 117.644668 
L 210.95009 117.02489 
L 210.812174 117.438075 
L 210.674258 120.950151 
L 210.398426 119.349057 
L 210.26051 114.855667 
L 210.122594 115.940279 
L 209.846762 123.894096 
L 209.708845 123.997392 
L 209.708845 123.429262 
L 209.570929 123.171022 
L 209.295097 118.264446 
L 209.157181 114.442482 
L 209.019265 115.372149 
L 208.881349 113.874352 
L 208.743433 113.771056 
L 208.605516 112.893037 
L 208.4676 114.442482 
L 208.329684 118.884224 
L 208.191768 118.471039 
L 208.053852 114.752371 
L 207.915936 107.108443 
L 207.77802 108.399647 
L 207.502188 123.119373 
L 207.364271 121.983114 
L 206.950523 101.323848 
L 206.812607 102.460108 
L 206.674691 106.643609 
L 206.398859 103.648016 
L 206.260942 106.643609 
L 205.98511 119.142465 
L 205.847194 115.940279 
L 205.571362 104.629331 
L 205.433446 105.920535 
L 205.29553 111.911722 
L 205.157613 111.756777 
L 205.019697 110.56887 
L 204.881781 105.868887 
L 204.743865 106.075479 
L 204.468033 109.742499 
L 204.192201 98.896385 
L 204.054285 100.962311 
L 203.916368 101.2722 
L 203.778452 101.168904 
L 203.640536 95.332661 
L 203.364704 104.990868 
L 203.226788 106.230424 
L 202.950956 95.952439 
L 202.537207 80.303046 
L 202.537207 84.641491 
L 202.261375 92.595309 
L 201.847627 75.344822 
L 201.70971 73.278895 
L 201.295962 82.110731 
L 201.158046 82.059083 
L 200.882214 77.152508 
L 200.744298 70.90308 
L 200.606382 72.29758 
L 200.468465 72.400876 
L 200.330549 72.762414 
L 200.054717 65.480022 
L 199.916801 64.240467 
L 199.778885 65.27343 
L 199.503053 72.039339 
L 199.365136 72.814062 
L 199.089304 65.686615 
L 198.813472 57.887742 
L 198.53764 62.845966 
L 197.985975 48.074591 
L 197.848059 51.121833 
L 197.710143 48.746017 
L 197.572227 49.107554 
L 197.434311 44.614164 
L 197.296395 46.266905 
L 197.020562 53.342704 
L 196.882646 51.121833 
L 196.606814 43.994386 
L 196.468898 46.473498 
L 196.330982 46.111961 
L 196.05515 48.022943 
L 195.917233 51.018537 
L 195.779317 49.107554 
L 195.503485 38.364736 
L 195.503485 39.087811 
L 195.365569 44.769109 
L 194.951821 34.387828 
L 194.813905 39.191107 
L 194.675988 39.3977 
L 194.400156 40.172422 
L 194.26224 44.562516 
L 194.124324 43.994386 
L 193.986408 41.205385 
L 193.848492 41.36033 
L 193.710576 42.186701 
L 193.572659 41.515274 
L 193.434743 39.707589 
L 193.296827 40.637256 
L 193.158911 39.862533 
L 193.020995 37.744958 
L 192.883079 38.26144 
L 192.745163 42.75483 
L 192.607247 43.426256 
L 192.331414 40.172422 
L 192.193498 39.810885 
L 192.055582 41.411978 
L 191.917666 40.585607 
L 191.641834 36.763643 
L 191.503918 33.148272 
L 191.366002 33.561457 
L 190.952253 40.327367 
L 190.814337 38.726274 
L 190.676421 40.947145 
L 190.538505 45.130646 
L 190.400589 44.149331 
L 190.124756 38.777922 
L 189.848924 45.543831 
L 189.711008 48.074591 
L 189.573092 48.332832 
L 189.29726 52.206444 
L 188.883511 46.215257 
L 188.745595 47.81635 
L 188.607679 52.361389 
L 188.469763 51.638315 
L 188.331847 52.309741 
L 188.331847 48.694369 
L 188.193931 49.933925 
L 188.056015 49.624036 
L 187.780182 54.065778 
L 187.642266 54.01413 
L 187.50435 53.497648 
L 187.366434 56.183353 
L 187.228518 55.925112 
L 186.952686 52.309741 
L 186.676853 63.155855 
L 186.538937 61.709707 
L 186.263105 56.131705 
L 186.125189 56.183353 
L 185.987273 56.54489 
L 185.573524 59.798724 
L 185.435608 57.629502 
L 185.297692 58.094335 
L 185.02186 60.056965 
L 184.746028 53.549297 
L 184.608112 53.032815 
L 184.332279 57.68115 
L 184.194363 61.503114 
L 184.056447 61.813003 
L 183.780615 65.531671 
L 183.642699 65.583319 
L 183.504783 57.629502 
L 183.366867 56.235001 
L 183.22895 57.267964 
L 183.091034 59.798724 
L 182.815202 54.633908 
L 182.677286 53.807537 
L 182.263538 62.74267 
L 181.711873 51.793259 
L 181.436041 59.592132 
L 181.298125 64.860245 
L 181.160209 64.292115 
L 181.160209 62.019595 
L 181.022293 62.845966 
L 180.884376 61.244873 
L 180.74646 62.226188 
L 180.194796 74.208562 
L 180.05688 72.194284 
L 179.781047 64.963541 
L 179.643131 65.996504 
L 179.505215 71.987691 
L 179.367299 70.231654 
L 179.229383 74.82834 
L 179.091467 74.725044 
L 178.953551 71.264617 
L 178.539802 56.803131 
L 178.26397 68.733857 
L 178.126054 79.734916 
L 177.988138 80.664583 
L 177.850222 77.92723 
L 177.57439 66.409689 
L 177.160641 72.194284 
L 176.884809 69.973413 
L 176.746893 69.508579 
L 176.608977 66.771227 
L 176.471061 67.907486 
L 176.333144 70.025061 
L 176.057312 76.222841 
L 175.643564 64.085522 
L 175.367732 59.902021 
L 174.678151 75.39647 
L 174.540235 83.55688 
L 174.264403 83.195343 
L 174.126487 74.673396 
L 174.126487 78.082174 
L 173.712738 66.719578 
L 173.29899 79.270082 
L 172.885241 66.203097 
L 172.747325 66.616282 
L 172.609409 65.84156 
L 172.471493 66.874523 
L 172.057745 81.336009 
L 171.919829 80.096453 
L 171.781913 77.255804 
L 171.643996 71.884395 
L 171.50608 74.82834 
L 171.368164 75.138229 
L 171.230248 78.960193 
L 170.954416 67.907486 
L 170.8165 69.76682 
L 170.678584 78.908545 
L 170.540667 77.255804 
L 170.402751 73.330543 
L 170.264835 75.654711 
L 169.989003 87.327196 
L 169.437339 76.119544 
L 169.299422 71.058024 
L 168.885674 73.330543 
L 168.747758 72.245932 
L 168.609842 69.301987 
L 168.471926 71.419561 
L 168.33401 68.837153 
L 168.058177 77.3591 
L 167.782345 88.515104 
L 167.368597 84.12501 
L 167.092764 75.086581 
L 166.954848 76.171192 
L 166.954848 80.819527 
L 166.816932 84.95138 
L 166.679016 83.092046 
L 166.5411 79.011841 
L 166.127352 83.453584 
L 165.713603 73.123951 
L 165.575687 75.9646 
L 165.437771 74.466803 
L 165.299855 74.82834 
L 165.161939 71.677802 
L 165.024023 74.363507 
L 164.886107 74.725044 
L 164.196526 86.242584 
L 164.05861 82.833806 
L 163.920694 83.660176 
L 163.782778 76.222841 
L 163.506945 74.673396 
L 163.369029 80.871175 
L 163.231113 80.819527 
L 163.093197 79.734916 
L 162.955281 77.049211 
L 162.679449 81.232712 
L 162.541533 79.579971 
L 162.2657 82.730509 
L 162.127784 83.298639 
L 161.989868 79.06349 
L 161.714036 84.434899 
L 161.57612 88.928289 
L 161.438204 88.205215 
L 161.300287 89.393122 
L 160.886539 72.917358 
L 160.472791 83.143695 
L 160.334875 83.350287 
L 159.921126 90.167845 
L 159.78321 91.304104 
L 159.78321 90.994215 
L 159.369462 79.011841 
L 159.231546 80.45799 
L 159.09363 80.303046 
L 158.955713 81.955787 
L 158.817797 82.162379 
L 158.679881 84.589843 
L 158.541965 83.608528 
L 158.128217 77.514045 
L 157.852384 81.59425 
L 157.714468 80.199749 
L 157.576552 80.096453 
L 157.30072 84.693139 
L 157.162804 85.622806 
L 157.024888 83.505232 
L 156.749056 94.402994 
L 156.611139 94.351346 
L 156.059475 80.354694 
L 155.921559 80.819527 
L 155.369894 88.566752 
L 155.231978 88.360159 
L 154.956146 86.08764 
L 154.680314 90.271141 
L 154.266565 75.9646 
L 153.852817 91.097512 
L 153.714901 90.787623 
L 153.576985 89.341474 
L 153.163236 82.162379 
L 153.02532 80.199749 
L 152.749488 85.312917 
L 152.749488 88.773344 
L 152.611572 84.12501 
L 152.473656 87.998622 
L 152.33574 83.711824 
L 152.197824 83.711824 
L 152.059907 75.39647 
L 151.921991 75.861303 
L 151.508243 88.721696 
L 151.370327 87.585437 
L 151.232411 88.824993 
L 151.094495 79.993157 
L 150.956578 80.45799 
L 150.818662 81.387657 
L 150.680746 88.256863 
L 150.54283 87.48214 
L 150.404914 88.773344 
L 150.266998 87.998622 
L 149.991166 77.720637 
L 149.85325 79.218434 
L 149.577417 92.388716 
L 149.301585 89.909604 
L 149.025753 91.200808 
L 148.749921 84.073361 
L 148.612004 83.918417 
L 148.336172 87.068955 
L 147.922424 91.355753 
L 147.370759 83.918417 
L 147.232843 85.003028 
L 147.094927 82.782157 
L 146.957011 85.777751 
L 146.819095 85.726103 
L 146.681179 83.918417 
L 146.405347 78.340415 
L 146.26743 79.166786 
L 146.129514 82.368972 
L 145.991598 82.730509 
L 145.853682 87.430492 
L 145.715766 88.308511 
L 145.57785 90.219493 
L 145.57785 83.815121 
L 145.439934 84.331602 
L 145.302018 83.246991 
L 145.164101 86.604122 
L 145.026185 85.881047 
L 144.888269 86.759066 
L 144.612437 81.02612 
L 144.474521 81.800842 
L 144.336605 88.6184 
L 144.198689 89.909604 
L 143.922856 79.631619 
L 143.78494 80.664583 
L 143.509108 90.994215 
L 143.09536 81.439305 
L 142.957444 84.744788 
L 142.819527 84.12501 
L 142.681611 84.331602 
L 142.543695 78.908545 
L 142.405779 78.701952 
L 142.267863 77.152508 
L 141.992031 82.162379 
L 141.716198 88.360159 
L 141.440366 90.735975 
L 141.30245 94.712883 
L 141.164534 93.163438 
L 140.888702 84.434899 
L 140.750786 84.641491 
L 140.61287 87.792029 
L 140.199121 82.265676 
L 139.923289 83.918417 
L 139.647457 93.67992 
L 139.509541 93.731568 
L 139.233708 88.256863 
L 138.957876 93.731568 
L 138.682044 87.637085 
L 138.544128 84.434899 
L 138.406212 93.731568 
L 138.268295 93.576624 
L 138.130379 87.792029 
L 137.992463 88.566752 
L 137.854547 88.670048 
L 137.716631 89.961252 
L 137.578715 84.021713 
L 137.302883 88.05027 
L 137.164967 93.524976 
L 137.02705 93.473327 
L 136.751218 92.54366 
L 136.613302 92.956846 
L 136.475386 96.107384 
L 136.33747 95.539254 
L 136.199554 92.646957 
L 136.061638 86.242584 
L 135.923721 90.942567 
L 135.785805 90.890919 
L 135.647889 91.252456 
L 135.509973 83.453584 
L 135.096225 97.191995 
L 134.820392 92.956846 
L 134.54456 90.426086 
L 134.130812 77.823934 
L 133.992896 78.237119 
L 133.85498 81.800842 
L 133.717064 91.14916 
L 133.579147 92.182123 
L 133.441231 96.985402 
L 133.303315 94.712883 
L 133.165399 97.34694 
L 132.751651 83.711824 
L 132.613735 83.505232 
L 132.06207 87.637085 
L 131.924154 89.444771 
L 131.786238 88.979937 
L 131.510406 84.176658 
L 131.37249 88.360159 
L 131.37249 96.727162 
L 131.234573 101.323848 
L 131.096657 101.375496 
L 130.820825 92.492012 
L 130.682909 93.421679 
L 130.544993 92.130475 
L 130.269161 84.434899 
L 129.993328 86.965659 
L 129.855412 84.641491 
L 129.717496 85.364566 
L 129.57958 89.548067 
L 129.441664 88.360159 
L 129.165832 80.45799 
L 128.889999 85.364566 
L 128.752083 84.38325 
L 128.614167 85.054677 
L 128.200419 98.896385 
L 128.062503 97.863421 
L 127.372922 84.538195 
L 127.235006 83.711824 
L 127.09709 86.139288 
L 126.959174 84.12501 
L 126.545425 95.229365 
L 126.407509 95.022772 
L 125.993761 92.646957 
L 125.855845 96.985402 
L 125.717929 95.952439 
L 125.580012 99.30957 
L 125.166264 81.955787 
L 125.028348 83.608528 
L 124.752516 92.233771 
L 124.6146 93.215087 
L 124.476684 90.58103 
L 124.338767 90.219493 
L 124.200851 87.688733 
L 124.200851 88.979937 
L 124.062935 89.496419 
L 123.925019 92.28542 
L 123.373355 85.881047 
L 123.097522 87.688733 
L 122.82169 82.368972 
L 122.683774 83.918417 
L 122.270026 97.398588 
L 122.132109 95.797495 
L 121.994193 91.872234 
L 121.718361 81.232712 
L 121.580445 83.711824 
L 121.304613 90.787623 
L 121.028781 84.434899 
L 120.890864 81.955787 
L 120.752948 87.275548 
L 120.615032 85.209621 
L 120.3392 90.0129 
L 120.063368 94.971124 
L 119.787535 81.439305 
L 119.649619 78.133823 
L 119.097955 93.318383 
L 118.822123 86.759066 
L 118.684207 87.275548 
L 118.408374 86.190936 
L 118.270458 87.275548 
L 118.132542 86.190936 
L 117.994626 83.815121 
L 117.85671 77.307452 
L 117.718794 78.908545 
L 117.442961 76.945915 
L 117.305045 77.823934 
L 117.167129 82.472268 
L 116.891297 77.049211 
L 116.477549 89.444771 
L 116.201716 73.847025 
L 115.925884 76.429433 
L 115.787968 80.561286 
L 115.37422 73.537136 
L 114.960471 92.698605 
L 114.822555 90.839271 
L 114.408807 79.476675 
L 114.270891 80.044805 
L 114.132975 77.668989 
L 113.995058 78.133823 
L 113.857142 75.809655 
L 113.719226 79.476675 
L 113.58131 78.185471 
L 113.443394 81.336009 
L 113.029646 75.448118 
L 112.753813 84.95138 
L 112.615897 84.899732 
L 112.340065 75.344822 
L 112.202149 76.171192 
L 112.064233 75.912952 
L 111.512568 67.081116 
L 111.374652 67.339356 
L 110.960904 84.589843 
L 110.822988 84.486547 
L 110.547155 79.631619 
L 110.409239 74.82834 
L 110.271323 74.415155 
L 110.133407 74.466803 
L 109.995491 74.26021 
L 109.995491 67.339356 
L 109.857575 66.254745 
L 109.581743 80.303046 
L 109.443826 79.528323 
L 109.030078 67.029467 
L 108.892162 64.13717 
L 108.754246 65.84156 
L 108.478414 73.537136 
L 108.340498 72.969006 
L 107.926749 77.462397 
L 107.650917 69.818468 
L 107.513001 70.954728 
L 107.375085 70.799783 
L 107.237169 74.105266 
L 107.099252 72.814062 
L 106.961336 73.175599 
L 106.685504 62.845966 
L 106.547588 62.381133 
L 106.409672 65.634967 
L 106.13384 61.554762 
L 105.995924 59.540484 
L 105.858007 59.747076 
L 105.720091 59.127298 
L 105.582175 57.629502 
L 105.444259 57.784446 
L 105.306343 59.333891 
L 105.168427 63.104207 
L 105.030511 62.639373 
L 104.892595 62.691022 
L 104.754678 59.127298 
L 104.616762 63.207503 
L 104.478846 62.949262 
L 104.34093 65.428374 
L 104.203014 64.343763 
L 103.927182 65.015189 
L 103.375517 57.319613 
L 103.099685 52.309741 
L 102.961769 54.943797 
L 102.823853 62.536077 
L 102.685937 59.488835 
L 102.410104 47.55811 
L 102.272188 45.595479 
L 102.134272 46.473498 
L 101.720524 61.554762 
L 101.168859 45.440535 
L 101.030943 41.980108 
L 100.893027 41.721867 
L 100.203446 53.962482 
L 99.789698 48.074591 
L 99.651782 48.436128 
L 99.37595 60.005317 
L 99.238034 60.78004 
L 98.824285 48.022943 
L 98.548453 53.755889 
L 98.410537 54.01413 
L 98.134705 45.28559 
L 97.858872 48.797666 
L 97.720956 49.004258 
L 97.445124 39.139459 
L 97.307208 40.7922 
L 97.031376 51.535018 
L 96.617627 39.346052 
L 96.341795 49.778981 
L 96.203879 48.436128 
L 95.928047 43.684497 
L 95.790131 54.324019 
L 95.652215 53.910834 
L 95.376382 45.233942 
L 95.10055 50.398759 
L 94.962634 49.675684 
L 94.548886 42.031756 
L 94.410969 43.477905 
L 94.135137 47.609758 
L 93.997221 46.266905 
L 93.859305 47.093276 
L 93.583473 50.605351 
L 93.445557 48.694369 
L 93.031808 34.077939 
L 92.480144 47.867999 
L 92.342228 47.919647 
L 91.928479 36.970236 
L 91.790563 36.970236 
L 91.376815 46.525146 
L 91.100983 33.509809 
L 90.963066 34.955958 
L 90.82515 42.186701 
L 90.687234 42.393293 
L 90.549318 43.787794 
L 90.13557 30.410919 
L 89.721821 49.107554 
L 89.583905 45.543831 
L 89.308073 31.082345 
L 89.032241 34.387828 
L 88.894325 33.922994 
L 88.756409 30.410919 
L 88.618492 29.894437 
L 88.618492 32.838383 
L 88.34266 39.346052 
L 88.204744 39.810885 
L 87.928912 41.773515 
L 87.790996 48.436128 
L 87.65308 49.417443 
L 87.515163 48.591073 
L 87.239331 33.458161 
L 87.101415 34.129587 
L 86.825583 46.111961 
L 86.687667 45.750424 
L 86.273918 38.003199 
L 85.86017 44.975701 
L 85.722254 46.886683 
L 85.584338 46.938332 
L 85.308506 43.684497 
L 85.032673 37.383421 
L 84.618925 43.013071 
L 84.481009 42.393293 
L 84.343093 49.055906 
L 84.205177 48.694369 
L 84.06726 45.078998 
L 83.929344 38.106496 
L 83.653512 44.924053 
L 83.515596 51.638315 
L 83.37768 51.689963 
L 83.101848 42.651534 
L 82.963932 39.242755 
L 82.826015 38.82957 
L 82.550183 43.787794 
L 82.274351 53.807537 
L 81.998519 53.239408 
L 81.58477 46.473498 
L 81.446854 46.163609 
L 81.446854 51.689963 
L 81.308938 53.910834 
L 81.171022 53.239408 
L 80.89519 45.492183 
L 80.481441 52.258092 
L 80.205609 47.506461 
L 80.067693 42.186701 
L 79.929777 42.703182 
L 79.653945 55.460279 
L 79.516029 54.633908 
L 79.240196 45.905368 
L 78.964364 59.178946 
L 78.826448 61.967947 
L 78.550616 50.91524 
L 78.4127 50.08887 
L 78.274783 52.722926 
L 78.136867 51.173481 
L 77.861035 50.91524 
L 77.447287 43.32296 
L 76.895622 57.836094 
L 76.757706 54.943797 
L 76.61979 56.699835 
L 76.343958 64.240467 
L 76.206042 64.085522 
L 75.792293 47.55811 
L 75.654377 49.417443 
L 75.378545 55.925112 
L 75.102713 59.488835 
L 74.82688 51.741611 
L 74.688964 54.272371 
L 74.551048 61.658058 
L 74.413132 62.381133 
L 74.413132 57.68115 
L 74.275216 55.40863 
L 74.1373 57.422909 
L 73.861468 53.962482 
L 73.447719 57.939391 
L 73.309803 57.11302 
L 73.033971 61.244873 
L 72.896055 59.695428 
L 72.758139 61.03828 
L 72.620223 59.07565 
L 72.482306 61.348169 
L 72.34439 58.920706 
L 72.206474 60.78004 
L 71.930642 50.91524 
L 71.792726 50.398759 
L 71.65481 50.450407 
L 71.516894 54.995445 
L 71.378977 53.446 
L 71.241061 57.319613 
L 71.103145 55.460279 
L 70.689397 70.851432 
L 70.413565 65.944856 
L 69.8619 58.24928 
L 69.723984 58.24928 
L 69.586068 53.962482 
L 69.310236 54.788853 
L 69.034403 66.306393 
L 68.758571 69.508579 
L 68.620655 69.353635 
L 68.482739 72.142636 
L 68.344823 71.419561 
L 68.068991 65.118485 
L 67.931075 65.531671 
L 67.793158 66.512986 
L 67.517326 60.625095 
L 67.37941 60.728391 
L 67.241494 62.277836 
L 67.241494 56.338297 
L 66.965662 49.985573 
L 66.827746 49.262499 
L 66.689829 50.553703 
L 66.276081 63.052559 
L 66.138165 62.122892 
L 66.000249 63.104207 
L 65.862333 65.118485 
L 65.5865 62.019595 
L 65.448584 59.488835 
L 65.310668 63.827281 
L 64.89692 53.239408 
L 64.759004 53.807537 
L 64.621088 56.596538 
L 64.483172 53.497648 
L 64.345255 53.084463 
L 64.207339 50.966888 
L 63.793591 68.062431 
L 63.655675 66.0998 
L 63.379843 57.939391 
L 63.241926 54.324019 
L 62.552346 72.400876 
L 62.276514 68.682209 
L 62.138597 61.658058 
L 62.000681 61.503114 
L 61.862765 59.747076 
L 61.724849 63.052559 
L 61.449017 62.071244 
L 61.173185 67.80419 
L 60.897352 74.725044 
L 60.62152 72.039339 
L 60.483604 67.287708 
L 60.345688 68.940449 
L 60.207772 68.63056 
L 60.207772 67.649245 
L 59.93194 59.333891 
L 59.794023 62.019595 
L 59.518191 68.475616 
L 59.380275 66.771227 
L 59.242359 63.052559 
L 59.104443 66.358041 
L 58.966527 66.564634 
L 58.552778 54.995445 
L 58.13903 67.597597 
L 57.863198 69.715172 
L 57.725282 68.940449 
L 57.587366 66.254745 
L 57.449449 67.545949 
L 57.311533 66.512986 
L 57.173617 69.353635 
L 57.035701 67.700894 
L 56.897785 68.114079 
L 56.759869 67.649245 
L 56.621953 65.789911 
L 56.484037 65.738263 
L 56.34612 67.700894 
L 56.208204 71.316265 
L 55.932372 64.188818 
L 55.794456 59.747076 
L 55.65654 59.488835 
L 55.518624 59.695428 
L 55.104875 64.343763 
L 54.829043 53.187759 
L 54.691127 52.309741 
L 54.415295 58.352576 
L 54.139463 53.600945 
L 54.001546 53.600945 
L 53.725714 62.17454 
L 53.587798 62.277836 
L 53.449882 60.263558 
L 53.17405 64.447059 
L 53.036134 63.259151 
L 53.036134 59.333891 
L 52.898217 62.019595 
L 52.622385 72.607469 
L 52.346553 65.634967 
L 52.070721 54.324019 
L 51.932805 53.497648 
L 51.656972 57.009724 
L 51.519056 56.286649 
L 51.243224 57.732798 
L 51.105308 61.709707 
L 50.967392 62.432781 
L 50.829476 60.263558 
L 50.553643 62.897614 
L 50.415727 65.325078 
L 50.277811 61.864651 
L 50.139895 62.587725 
L 49.864063 70.489894 
L 49.726147 70.748135 
L 49.312398 64.653652 
L 49.174482 63.930578 
L 48.89865 64.447059 
L 48.760734 65.480022 
L 48.484902 70.180005 
L 48.346986 70.025061 
L 48.071153 64.550356 
L 47.795321 68.578912 
L 47.657405 68.423968 
L 47.381573 61.761355 
L 47.243657 62.587725 
L 47.10574 61.03828 
L 46.967824 63.723985 
L 46.691992 73.537136 
L 46.554076 73.847025 
L 46.002411 61.399818 
L 45.588663 58.662465 
L 45.450747 58.145983 
L 45.312831 64.756948 
L 45.174915 65.066837 
L 45.312831 67.959134 
L 45.450747 66.66793 
L 45.726579 70.438246 
L 45.864495 67.700894 
L 45.864495 62.536077 
L 46.002411 58.920706 
L 46.41616 67.855838 
L 46.554076 64.498707 
L 46.691992 65.170133 
L 46.829908 64.653652 
L 46.967824 67.132764 
L 47.10574 66.0998 
L 47.381573 74.363507 
L 47.519489 76.945915 
L 47.657405 76.016248 
L 48.071153 65.428374 
L 48.209069 66.616282 
L 48.346986 64.860245 
L 48.484902 68.682209 
L 48.622818 67.649245 
L 48.89865 74.363507 
L 49.174482 75.086581 
L 49.312398 73.898673 
L 49.450314 78.547008 
L 49.864063 70.128357 
L 50.139895 65.325078 
L 50.277811 61.193225 
L 50.415727 60.470151 
L 50.553643 64.395411 
L 50.69156 64.13717 
L 50.967392 65.944856 
L 51.105308 68.527264 
L 51.38114 78.133823 
L 51.519056 75.189877 
L 51.794889 67.391005 
L 52.346553 80.354694 
L 52.760301 71.109672 
L 52.898217 73.537136 
L 53.036134 73.537136 
L 53.036134 71.936043 
L 53.17405 70.438246 
L 53.311966 71.316265 
L 53.449882 70.541543 
L 53.587798 75.551414 
L 53.725714 72.917358 
L 53.86363 75.912952 
L 54.001546 73.278895 
L 54.139463 73.898673 
L 54.415295 64.550356 
L 54.553211 64.343763 
L 54.966959 72.039339 
L 55.242792 81.490953 
L 55.380708 80.716231 
L 55.518624 77.875582 
L 55.794456 65.996504 
L 55.932372 66.874523 
L 56.070288 69.76682 
L 56.208204 78.805249 
L 56.34612 79.32173 
L 56.484037 81.645898 
L 56.621953 78.960193 
L 56.897785 87.48214 
L 57.035701 86.914011 
L 57.173617 83.608528 
L 57.311533 84.486547 
L 57.449449 87.792029 
L 57.587366 86.552473 
L 57.863198 74.105266 
L 58.276946 89.134882 
L 58.414862 84.538195 
L 58.690694 69.715172 
L 58.828611 69.560227 
L 59.104443 79.06349 
L 59.242359 80.716231 
L 59.380275 80.044805 
L 59.518191 82.368972 
L 59.794023 78.598656 
L 60.069856 72.710765 
L 60.207772 75.39647 
L 60.207772 81.387657 
L 60.345688 85.726103 
L 60.483604 83.246991 
L 60.897352 68.63056 
L 61.035269 72.194284 
L 61.449017 89.18653 
L 61.586933 87.120603 
L 61.862765 77.152508 
L 62.000681 77.823934 
L 62.138597 75.551414 
L 62.276514 76.119544 
L 62.41443 73.382192 
L 62.552346 77.410748 
L 62.690262 77.462397 
L 62.828178 78.133823 
L 63.241926 88.101918 
L 63.379843 86.345881 
L 63.517759 86.604122 
L 63.931507 73.537136 
L 64.069423 73.898673 
L 64.207339 78.288767 
L 64.345255 79.115138 
L 64.483172 82.162379 
L 64.621088 78.856897 
L 64.89692 77.152508 
L 65.034836 81.336009 
L 65.172752 81.284361 
L 65.448584 77.565693 
L 65.862333 72.762414 
L 66.000249 75.912952 
L 66.276081 86.500825 
L 66.413997 90.374437 
L 66.689829 87.895326 
L 66.965662 80.199749 
L 67.241494 84.641491 
L 67.517326 80.251397 
L 67.655242 80.45799 
L 68.068991 88.05027 
L 68.206907 86.810714 
L 68.758571 73.692081 
L 69.448152 93.834864 
L 69.586068 91.14916 
L 69.8619 78.49536 
L 69.999816 78.960193 
L 70.275649 82.368972 
L 70.413565 82.730509 
L 70.689397 75.706359 
L 70.965229 71.884395 
L 71.241061 80.664583 
L 71.378977 89.083233 
L 71.516894 88.463455 
L 71.792726 81.749194 
L 71.930642 82.98875 
L 72.482306 91.355753 
L 72.620223 90.684326 
L 72.758139 86.08764 
L 72.896055 85.726103 
L 73.309803 77.3591 
L 73.447719 77.823934 
L 73.861468 91.097512 
L 73.999384 89.75466 
L 74.275216 94.971124 
L 74.413132 93.67992 
L 74.413132 91.200808 
L 74.551048 84.021713 
L 74.82688 81.181064 
L 74.964797 81.904139 
L 75.240629 78.082174 
L 75.516461 81.336009 
L 75.930209 93.318383 
L 76.206042 90.219493 
L 76.343958 90.167845 
L 76.61979 85.829399 
L 76.895622 80.148101 
L 77.033538 79.32173 
L 77.171455 80.044805 
L 77.447287 88.515104 
L 77.585203 90.477734 
L 77.723119 90.064549 
L 77.998951 84.744788 
L 78.136867 84.38325 
L 78.4127 89.909604 
L 78.550616 85.932695 
L 78.688532 86.604122 
L 78.826448 88.6184 
L 78.964364 92.492012 
L 79.10228 89.393122 
L 79.240196 90.219493 
L 79.516029 88.515104 
L 79.653945 90.426086 
L 79.791861 89.341474 
L 79.929777 91.975531 
L 80.067693 91.923882 
L 80.343525 95.229365 
L 80.481441 95.64255 
L 80.619358 93.215087 
L 81.033106 79.838212 
L 81.171022 84.331602 
L 81.446854 99.051329 
L 81.860603 86.242584 
L 82.136435 91.252456 
L 82.274351 90.684326 
L 82.412267 83.350287 
L 82.550183 82.472268 
L 82.963932 99.929348 
L 83.37768 90.477734 
L 83.515596 90.632678 
L 83.653512 87.688733 
L 83.791428 92.595309 
L 83.929344 88.463455 
L 84.06726 91.510697 
L 84.205177 87.327196 
L 84.343093 96.417273 
L 84.481009 94.454642 
L 84.618925 97.037051 
L 84.756841 93.886513 
L 84.894757 94.093105 
L 85.032673 89.651363 
L 85.170589 89.083233 
L 85.446422 95.694198 
L 85.86017 90.787623 
L 86.273918 94.867828 
L 86.411835 94.454642 
L 86.549751 94.454642 
L 86.687667 96.055736 
L 86.963499 91.975531 
L 87.239331 83.660176 
L 87.377247 81.387657 
L 87.65308 90.994215 
L 87.790996 91.975531 
L 87.928912 91.71729 
L 88.204744 93.11179 
L 88.34266 92.595309 
L 88.480576 92.801901 
L 88.618492 92.233771 
L 88.618492 91.252456 
L 88.756409 88.308511 
L 89.032241 95.07442 
L 89.170157 99.102977 
L 89.308073 97.140347 
L 89.445989 98.896385 
L 89.859738 92.905198 
L 89.997654 89.444771 
L 90.13557 90.116197 
L 90.273486 88.205215 
L 90.549318 92.54366 
L 90.82515 99.516163 
L 91.100983 100.394181 
L 91.238899 98.689792 
L 91.514731 92.646957 
L 91.652647 91.872234 
L 91.790563 96.727162 
L 91.928479 96.520569 
L 92.066395 100.290885 
L 92.204312 99.257922 
L 92.342228 102.253515 
L 92.480144 100.70407 
L 92.61806 100.755718 
L 92.755976 102.615052 
L 93.031808 100.342533 
L 93.169724 100.549126 
L 93.445557 112.221611 
L 93.997221 100.70407 
L 94.135137 93.989809 
L 94.273053 93.834864 
L 94.410969 94.402994 
L 94.686802 94.041457 
L 95.10055 113.202926 
L 95.238466 111.756777 
L 95.790131 99.722755 
L 95.790131 100.807367 
L 96.065963 103.648016 
L 96.341795 99.412866 
L 96.479711 103.389775 
L 96.617627 104.112849 
L 96.89346 101.323848 
L 97.031376 101.478793 
L 97.169292 100.807367 
L 97.307208 97.656829 
L 97.720956 100.084292 
L 97.858872 101.478793 
L 98.134705 113.616111 
L 98.272621 112.738092 
L 98.548453 102.046923 
L 98.824285 102.098571 
L 98.962201 101.323848 
L 99.100118 98.121662 
L 99.238034 99.980996 
L 99.37595 98.431551 
L 99.651782 110.052388 
L 99.789698 109.845795 
L 100.06553 102.718349 
L 100.755111 117.954557 
L 101.168859 110.672166 
L 101.306775 110.413925 
L 101.444692 113.667759 
L 101.582608 114.287537 
L 101.720524 117.438075 
L 102.134272 100.394181 
L 102.548021 112.893037 
L 102.685937 109.897443 
L 102.823853 109.484258 
L 102.823853 103.906256 
L 102.961769 105.610646 
L 103.099685 104.061201 
L 103.237601 105.817239 
L 103.375517 103.699664 
L 103.513433 103.596367 
L 103.789266 107.779869 
L 103.927182 113.564463 
L 104.065098 113.616111 
L 104.203014 114.390834 
L 104.34093 110.517221 
L 104.478846 110.82711 
L 104.616762 112.5315 
L 104.754678 110.56887 
L 104.892595 110.982055 
L 105.030511 106.953498 
L 105.168427 114.597426 
L 105.306343 114.958964 
L 105.444259 117.283131 
L 105.582175 107.108443 
L 105.720091 106.953498 
L 105.858007 110.775462 
L 106.13384 122.189707 
L 106.547588 118.471039 
L 106.685504 120.278724 
L 106.961336 126.734745 
L 107.099252 122.964429 
L 107.375085 110.465573 
L 107.513001 108.657888 
L 107.650917 109.535906 
L 108.064665 117.59302 
L 108.202581 118.057853 
L 108.340498 116.818297 
L 108.478414 116.715001 
L 108.61633 116.353464 
L 108.754246 114.700723 
L 108.892162 115.423797 
L 109.030078 114.804019 
L 109.30591 119.607298 
L 109.581743 125.960022 
L 109.719659 125.856726 
L 109.857575 125.546837 
L 110.409239 111.291944 
L 110.822988 118.316094 
L 110.960904 118.780928 
L 111.374652 113.926 
L 111.512568 115.578742 
L 111.650484 112.944685 
L 111.788401 114.132593 
L 111.926317 111.39524 
L 112.064233 113.306222 
L 112.202149 109.897443 
L 112.477981 114.958964 
L 112.615897 116.146871 
L 112.753813 115.785334 
L 112.891729 115.010612 
L 113.029646 115.475445 
L 113.167562 113.874352 
L 113.58131 129.885283 
L 113.857142 113.564463 
L 113.995058 113.926 
L 114.270891 126.734745 
L 114.408807 122.757836 
L 114.546723 115.268853 
L 114.684639 114.442482 
L 114.960471 117.696316 
L 115.098387 113.977648 
L 115.236304 115.527093 
L 115.512136 123.7908 
L 115.787968 120.485317 
L 115.925884 123.945744 
L 116.0638 124.410578 
L 116.201716 125.960022 
L 116.339632 122.65454 
L 116.477549 125.391893 
L 116.615465 121.311688 
L 116.753381 122.034762 
L 116.891297 120.795206 
L 117.029213 123.532559 
L 117.167129 120.898502 
L 117.167129 123.325966 
L 117.580878 113.874352 
L 117.994626 123.842448 
L 118.270458 115.63039 
L 118.408374 114.958964 
L 118.822123 128.697375 
L 118.960039 131.124839 
L 119.649619 119.658946 
L 120.063368 127.612764 
L 120.201284 125.908374 
L 120.3392 126.786393 
L 120.615032 118.316094 
L 120.752948 120.588613 
L 120.890864 125.75343 
L 121.028781 125.650133 
L 121.304613 120.227076 
L 121.718361 126.218263 
L 121.856277 127.406171 
L 122.132109 119.400706 
L 122.270026 117.954557 
L 122.407942 117.902909 
L 122.683774 112.324907 
L 122.82169 116.250168 
L 122.959606 116.611705 
L 123.097522 117.438075 
L 123.235438 113.461167 
L 123.373355 114.958964 
L 123.787103 129.627042 
L 124.062935 118.419391 
L 124.200851 116.198519 
L 124.200851 117.902909 
L 124.338767 116.45676 
L 124.752516 126.992986 
L 125.028348 121.466632 
L 125.166264 117.902909 
L 125.580012 132.157802 
L 125.717929 131.279783 
L 125.993761 120.485317 
L 126.131677 119.039168 
L 126.269593 118.832576 
L 126.545425 113.09963 
L 126.959174 120.278724 
L 127.09709 118.367742 
L 127.235006 118.884224 
L 127.372922 118.057853 
L 127.648754 122.602892 
L 127.78667 123.842448 
L 127.924587 123.067725 
L 128.062503 121.621577 
L 128.338335 113.719408 
L 128.614167 118.057853 
L 128.752083 119.917187 
L 128.889999 116.560057 
L 129.027915 118.677631 
L 129.441664 115.785334 
L 129.57958 115.217204 
L 129.717496 115.682038 
L 129.855412 117.747964 
L 130.131244 116.921594 
L 130.269161 115.372149 
L 130.407077 118.625983 
L 130.544993 119.245761 
L 130.682909 121.983114 
L 130.820825 121.621577 
L 130.958741 122.551244 
L 131.096657 122.396299 
L 131.234573 121.879818 
L 131.37249 124.152337 
L 131.37249 126.683097 
L 131.510406 127.457819 
L 131.786238 121.001799 
L 131.924154 123.739151 
L 132.199986 132.054506 
L 132.613735 116.973242 
L 132.751651 118.471039 
L 132.889567 117.954557 
L 133.027483 114.235889 
L 133.165399 113.771056 
L 133.303315 116.250168 
L 133.717064 114.442482 
L 134.130812 122.499595 
L 134.406644 117.283131 
L 134.682476 108.606239 
L 134.820392 104.577683 
L 135.096225 112.686444 
L 135.372057 120.743558 
L 135.647889 112.479852 
L 135.785805 112.583148 
L 135.923721 113.409519 
L 136.061638 111.653481 
L 136.199554 106.591961 
L 136.33747 107.160091 
L 136.613302 118.72928 
L 136.751218 117.489724 
L 136.889134 114.029297 
L 137.02705 115.63039 
L 137.164967 115.010612 
L 137.440799 110.775462 
L 137.578715 110.930407 
L 137.716631 111.291944 
L 137.854547 110.052388 
L 137.992463 112.789741 
L 138.130379 110.82711 
L 138.268295 115.475445 
L 138.406212 114.855667 
L 138.406212 117.128186 
L 138.544128 118.264446 
L 138.682044 117.231483 
L 139.233708 109.690851 
L 139.371624 109.845795 
L 139.509541 111.860074 
L 139.785373 116.715001 
L 139.923289 117.59302 
L 140.061205 120.278724 
L 140.199121 118.419391 
L 140.474953 119.349057 
L 140.750786 126.734745 
L 141.164534 114.545778 
L 141.30245 114.907315 
L 141.440366 116.766649 
L 141.854115 104.216145 
L 141.992031 106.437016 
L 142.129947 112.169963 
L 142.267863 113.047981 
L 142.405779 111.498537 
L 142.543695 107.934813 
L 142.819527 117.231483 
L 143.09536 122.964429 
L 143.371192 125.443541 
L 143.509108 123.22267 
L 143.922856 113.35787 
L 144.060773 111.446888 
L 144.198689 112.841389 
L 144.336605 112.376555 
L 144.474521 115.372149 
L 144.612437 115.475445 
L 144.750353 117.902909 
L 144.888269 114.958964 
L 145.026185 115.423797 
L 145.164101 113.926 
L 145.302018 117.283131 
L 145.439934 116.663353 
L 145.57785 119.504002 
L 145.57785 122.964429 
L 145.715766 123.997392 
L 145.991598 119.968835 
L 146.129514 121.673225 
L 146.26743 120.227076 
L 146.543263 112.324907 
L 146.957011 123.739151 
L 147.646592 110.620518 
L 147.784508 110.878759 
L 148.06034 116.818297 
L 148.198256 115.836982 
L 148.336172 111.033703 
L 148.612004 118.006205 
L 148.749921 122.964429 
L 149.163669 114.649075 
L 149.439501 117.902909 
L 149.577417 121.776521 
L 149.85325 112.221611 
L 150.129082 104.422738 
L 150.404914 112.686444 
L 150.54283 116.353464 
L 150.680746 115.88863 
L 150.956578 112.015018 
L 151.232411 114.080945 
L 151.646159 121.569929 
L 151.784075 121.983114 
L 152.197824 109.329314 
L 152.473656 111.39524 
L 152.749488 121.621577 
L 152.887404 120.227076 
L 153.02532 120.640262 
L 153.163236 118.419391 
L 153.301153 121.053447 
L 153.576985 115.991927 
L 153.714901 115.785334 
L 153.852817 114.49413 
L 153.990733 114.855667 
L 154.266565 112.169963 
L 154.404481 110.465573 
L 154.542398 106.643609 
L 154.81823 110.878759 
L 154.956146 116.611705 
L 155.231978 109.639203 
L 155.369894 109.329314 
L 155.50781 111.601833 
L 155.645727 110.982055 
L 155.783643 108.761184 
L 156.197391 124.720467 
L 156.473223 118.264446 
L 156.611139 110.517221 
L 156.886972 110.052388 
L 157.162804 119.710595 
L 157.30072 119.917187 
L 157.714468 113.771056 
L 157.852384 113.202926 
L 158.128217 109.43261 
L 158.404049 113.202926 
L 158.541965 113.616111 
L 158.679881 109.845795 
L 158.817797 115.527093 
L 158.955713 116.198519 
L 159.09363 117.851261 
L 159.369462 112.686444 
L 159.507378 113.254574 
L 159.78321 119.039168 
L 159.921126 118.574335 
L 160.196958 113.719408 
L 160.334875 108.812832 
L 160.610707 116.198519 
L 160.748623 119.813891 
L 161.024455 117.386427 
L 161.162371 116.198519 
L 161.300287 112.738092 
L 161.438204 112.376555 
L 161.57612 113.771056 
L 161.714036 112.583148 
L 161.851952 112.789741 
L 161.989868 111.085351 
L 162.127784 113.047981 
L 162.2657 112.841389 
L 162.541533 109.535906 
L 162.955281 121.156743 
L 163.231113 110.620518 
L 163.369029 109.071073 
L 163.506945 109.019425 
L 163.644861 110.930407 
L 163.782778 109.639203 
L 164.196526 125.701782 
L 164.334442 123.635855 
L 164.610274 116.611705 
L 164.74819 118.625983 
L 164.886107 116.818297 
L 165.161939 106.850202 
L 165.437771 116.405112 
L 165.575687 112.944685 
L 165.713603 105.817239 
L 165.851519 106.385368 
L 166.265268 125.340245 
L 166.403184 127.71606 
L 166.954848 113.35787 
L 166.954848 119.194113 
L 167.092764 123.171022 
L 167.506513 122.138058 
L 167.644429 121.053447 
L 167.920261 114.029297 
L 168.196093 119.039168 
L 168.471926 110.82711 
L 168.609842 112.169963 
L 168.885674 124.307281 
L 169.02359 122.447947 
L 169.299422 116.766649 
L 169.437339 119.865539 
L 169.575255 119.194113 
L 169.713171 121.466632 
L 169.851087 120.588613 
L 169.989003 124.61717 
L 170.126919 121.105095 
L 170.264835 121.724873 
L 170.402751 121.776521 
L 170.540667 123.325966 
L 170.678584 122.189707 
L 170.8165 123.325966 
L 170.954416 128.800671 
L 171.092332 127.974301 
L 171.230248 126.32156 
L 171.368164 123.22267 
L 171.50608 123.274318 
L 171.643996 122.861133 
L 171.781913 118.212798 
L 171.919829 118.16115 
L 172.057745 117.231483 
L 172.195661 121.156743 
L 172.471493 118.006205 
L 172.609409 113.616111 
L 172.747325 116.250168 
L 173.161074 111.240296 
L 173.29899 112.944685 
L 173.436906 116.301816 
L 173.574822 116.560057 
L 173.712738 118.574335 
L 173.850654 117.128186 
L 173.98857 119.349057 
L 174.126487 116.611705 
L 174.126487 117.954557 
L 174.264403 116.663353 
L 174.678151 125.236948 
L 174.816067 129.420449 
L 175.091899 122.08641 
L 175.229816 113.35787 
L 175.505648 117.231483 
L 175.643564 123.119373 
L 175.78148 122.499595 
L 175.919396 121.208391 
L 176.057312 117.334779 
L 176.195228 116.869946 
L 176.333144 118.677631 
L 176.471061 116.611705 
L 176.746893 109.43261 
L 177.160641 124.823763 
L 177.298557 122.447947 
L 177.57439 112.169963 
L 177.712306 108.967777 
L 177.850222 112.324907 
L 177.988138 112.893037 
L 178.126054 118.264446 
L 178.26397 118.109502 
L 178.401886 122.551244 
L 178.539802 122.08641 
L 178.677719 120.743558 
L 178.953551 110.930407 
L 179.091467 112.996333 
L 179.229383 118.522687 
L 179.367299 117.696316 
L 179.643131 117.799613 
L 179.918964 125.546837 
L 180.05688 126.889689 
L 180.194796 126.683097 
L 180.332712 122.757836 
L 180.470628 125.805078 
L 180.884376 116.405112 
L 181.160209 129.420449 
L 181.160209 132.622636 
L 181.298125 129.523746 
L 181.436041 122.08641 
L 181.711873 121.466632 
L 181.849789 122.344651 
L 182.125622 120.433669 
L 182.263538 123.687503 
L 182.401454 123.584207 
L 182.53937 123.842448 
L 182.815202 117.02489 
L 183.091034 123.635855 
L 183.366867 131.692969 
L 183.504783 129.420449 
L 183.642699 129.058912 
L 183.780615 125.391893 
L 183.918531 129.472098 
L 184.056447 128.749023 
L 184.194363 126.424856 
L 184.332279 121.466632 
L 184.470196 120.950151 
L 184.746028 129.472098 
L 184.883944 129.213857 
L 185.297692 117.02489 
L 185.435608 118.16115 
L 185.573524 120.795206 
L 185.711441 126.011671 
L 185.849357 123.016077 
L 185.987273 123.842448 
L 186.263105 126.528152 
L 186.401021 124.61717 
L 186.676853 120.072132 
L 186.81477 120.12378 
L 186.952686 120.743558 
L 187.366434 137.580859 
L 187.918099 123.635855 
L 188.331847 129.007264 
L 188.331847 127.664412 
L 188.469763 127.819356 
L 188.745595 131.279783 
L 189.435176 124.772115 
L 189.573092 121.363336 
L 189.711008 124.875411 
L 189.848924 123.635855 
L 189.98684 127.664412 
L 190.124756 123.171022 
L 190.400589 134.430321 
L 190.538505 144.191824 
L 190.676421 143.262157 
L 191.090169 124.100689 
L 191.917666 147.342362 
L 192.055582 140.834694 
L 192.331414 141.557768 
L 192.46933 145.121491 
L 192.745163 139.440193 
L 192.883079 137.477563 
L 193.158911 141.092935 
L 193.572659 151.267623 
L 193.848492 155.55442 
L 193.986408 158.291773 
L 194.124324 158.08518 
L 194.538072 172.236777 
L 194.813905 163.818127 
L 195.227653 168.104924 
L 195.365569 162.991756 
L 195.503485 163.71483 
L 195.503485 167.123609 
L 195.641401 170.015906 
L 195.779317 169.396128 
L 196.05515 163.611534 
L 196.193066 164.799442 
L 196.330982 168.982943 
L 196.74473 159.892866 
L 196.882646 162.940108 
L 197.296395 177.453242 
L 197.434311 178.382909 
L 197.572227 181.068613 
L 197.848059 193.774062 
L 197.985975 196.201525 
L 198.399724 181.275206 
L 198.675556 177.091705 
L 198.813472 176.575223 
L 199.22722 200.126786 
L 199.778885 189.745505 
L 199.916801 191.088357 
L 200.192633 198.577341 
L 200.468465 190.571876 
L 200.606382 190.881765 
L 200.744298 193.619117 
L 200.882214 192.947691 
L 201.02013 188.402653 
L 201.158046 187.886171 
L 201.295962 187.989467 
L 201.70971 200.539971 
L 201.847627 198.370748 
L 201.985543 201.521286 
L 202.123459 197.957563 
L 202.261375 203.742157 
L 202.399291 202.967435 
L 202.537207 203.94875 
L 202.537207 201.831175 
L 202.675123 202.244361 
L 202.950956 197.802619 
L 203.088872 194.445488 
L 203.226788 196.9246 
L 203.364704 197.389433 
L 203.778452 211.076197 
L 204.054285 203.225676 
L 204.192201 201.108101 
L 204.330117 204.930065 
L 204.468033 203.742157 
L 204.743865 198.215804 
L 204.881781 192.637802 
L 205.157613 198.577341 
L 205.29553 206.117973 
L 205.571362 203.432268 
L 205.709278 197.182841 
L 205.847194 198.370748 
L 205.98511 198.525693 
L 206.123026 201.108101 
L 206.398859 192.069672 
L 206.536775 192.68945 
L 206.674691 198.783934 
L 206.812607 196.459766 
L 207.088439 186.956504 
L 207.226355 190.520227 
L 207.364271 189.952098 
L 207.502188 192.018024 
L 207.640104 189.59056 
L 207.915936 194.083951 
L 208.191768 194.96197 
L 208.4676 193.567469 
L 208.743433 190.675172 
L 208.881349 192.121321 
L 209.019265 191.088357 
L 209.295097 188.609245 
L 209.708845 182.773003 
L 209.846762 179.570817 
L 210.26051 186.336726 
L 210.398426 186.078485 
L 210.536342 187.782875 
L 210.674258 186.904856 
L 210.95009 173.786222 
L 211.088007 175.025778 
L 211.225923 178.744446 
L 211.363839 178.07302 
L 211.501755 178.589502 
L 211.777587 183.444429 
L 211.915503 183.392781 
L 212.191336 176.265334 
L 212.329252 173.889519 
L 212.467168 174.457648 
L 212.743 174.096111 
L 212.880916 170.997221 
L 213.018832 172.030185 
L 213.156748 171.87524 
L 213.570497 187.524634 
L 213.708413 184.425744 
L 213.984245 166.658776 
L 214.122161 165.884053 
L 214.260077 169.447777 
L 214.397993 168.363165 
L 214.673826 169.964258 
L 214.811742 176.265334 
L 215.087574 172.133481 
L 215.22549 165.729109 
L 215.363406 165.729109 
L 215.501322 166.142294 
L 215.777155 169.034591 
L 215.915071 170.015906 
L 216.190903 163.353293 
L 216.328819 159.944514 
L 216.742568 172.701611 
L 216.742568 170.067554 
L 216.880484 171.30711 
L 217.0184 171.30711 
L 217.432148 161.648904 
L 217.570064 166.710424 
L 217.70798 165.729109 
L 217.845896 168.621406 
L 217.983813 167.94998 
L 218.121729 172.133481 
L 218.259645 169.706017 
L 218.397561 169.292832 
L 218.535477 165.729109 
L 218.673393 165.832405 
L 218.811309 163.921423 
L 219.087142 168.931295 
L 219.225058 170.067554 
L 219.362974 166.24559 
L 219.50089 169.189536 
L 219.638806 166.142294 
L 219.776722 165.729109 
L 220.052554 160.512644 
L 220.19047 159.428033 
L 220.328387 159.841218 
L 220.466303 159.531329 
L 220.742135 157.207162 
L 220.880051 155.709365 
L 221.017967 156.897273 
L 221.155883 159.634625 
L 221.293799 165.160979 
L 221.431716 165.625812 
L 221.707548 154.418161 
L 221.845464 158.395069 
L 222.121296 168.466461 
L 222.259212 165.729109 
L 222.397128 159.737922 
L 222.535045 159.479681 
L 222.810877 156.432439 
L 222.948793 157.517051 
L 223.086709 157.362106 
L 223.224625 157.465402 
L 223.362541 157.775291 
L 223.638373 161.855496 
L 223.77629 160.3577 
L 223.914206 154.779698 
L 223.914206 155.864309 
L 224.052122 156.897273 
L 224.327954 163.301645 
L 224.46587 165.006034 
L 224.603786 164.437905 
L 224.879619 158.188477 
L 225.293367 162.940108 
L 225.431283 162.785163 
L 225.569199 162.32033 
L 225.707115 165.470868 
L 225.982948 160.822533 
L 226.120864 152.093993 
L 226.396696 157.413754 
L 226.534612 161.855496 
L 226.672528 160.099459 
L 226.810444 161.907145 
L 226.94836 159.066496 
L 227.086276 158.756607 
L 227.224193 156.484087 
L 227.362109 156.329143 
L 227.500025 155.192883 
L 227.775857 163.043404 
L 227.913773 163.508238 
L 228.051689 159.944514 
L 228.189605 159.737922 
L 228.465438 163.71483 
L 228.74127 162.681867 
L 228.879186 162.113737 
L 229.155018 162.371978 
L 229.430851 153.02366 
L 229.568767 152.093993 
L 229.706683 155.399476 
L 229.844599 161.390663 
L 229.982515 162.113737 
L 230.120431 161.803848 
L 230.396263 155.812661 
L 230.534179 154.624753 
L 230.672096 155.502772 
L 230.810012 158.704958 
L 230.947928 158.343421 
L 231.085844 159.944514 
L 231.085844 156.639032 
L 231.361676 153.075309 
L 231.499592 153.333549 
L 231.637508 160.719237 
L 231.913341 156.845625 
L 232.189173 146.722584 
L 232.465005 151.525864 
L 232.602921 151.009382 
L 232.878753 146.102806 
L 233.154586 155.089587 
L 233.430418 163.095052 
L 233.568334 162.578571 
L 233.70625 161.493959 
L 233.844166 157.568699 
L 233.982082 157.82694 
L 234.119999 156.225847 
L 234.395831 149.718178 
L 234.533747 151.009382 
L 234.671663 154.211568 
L 234.809579 152.920364 
L 234.947495 149.356641 
L 235.085411 151.370919 
L 235.361244 164.024719 
L 235.49916 165.677461 
L 235.774992 160.770885 
L 235.912908 155.244531 
L 236.326656 158.963199 
L 236.602489 152.972012 
L 236.740405 151.370919 
L 236.878321 154.314864 
L 237.154153 162.681867 
L 237.292069 159.376385 
L 237.567902 148.065437 
L 237.705818 150.079715 
L 237.843734 149.511585 
L 237.98165 155.761013 
L 238.119566 156.484087 
L 238.119566 159.634625 
L 238.533314 148.117085 
L 238.671231 144.03688 
L 239.084979 153.901679 
L 239.498727 143.572046 
L 239.636643 150.286308 
L 239.774559 150.131363 
L 240.050392 151.164326 
L 240.188308 156.587384 
L 240.326224 154.831346 
L 240.602056 147.858844 
L 241.015805 161.339015 
L 241.153721 160.925829 
L 241.429553 151.164326 
L 241.705385 156.69068 
L 241.843301 155.502772 
L 241.981217 156.639032 
L 242.119134 155.709365 
L 242.25705 158.395069 
L 242.394966 156.277495 
L 242.532882 157.000569 
L 242.670798 155.399476 
L 242.808714 152.300586 
L 242.94663 153.901679 
L 243.222462 147.600603 
L 243.360379 141.712712 
L 243.498295 141.764361 
L 243.912043 161.390663 
L 244.049959 158.136829 
L 244.187875 158.188477 
L 244.463708 150.079715 
L 244.601624 149.718178 
L 244.73954 151.370919 
L 244.877456 150.751141 
L 245.153288 146.774233 
L 245.291204 147.290714 
L 245.291204 145.896214 
L 245.42912 150.596197 
L 245.567036 150.183011 
L 245.842869 143.933584 
L 246.256617 151.990697 
L 246.394533 146.412695 
L 246.532449 145.637973 
L 246.670365 142.694028 
L 246.808282 146.412695 
L 246.946198 145.069843 
L 247.084114 145.018195 
L 247.22203 146.515992 
L 247.359946 150.183011 
L 247.497862 149.150048 
L 247.773694 144.914899 
L 248.049527 152.042345 
L 248.187443 153.59179 
L 248.601191 147.497307 
L 248.877023 154.882994 
L 249.014939 152.920364 
L 249.290772 144.03688 
L 249.566604 142.848972 
L 249.70452 143.881935 
L 249.980352 154.521457 
L 250.256185 145.99951 
L 250.394101 144.86325 
L 250.669933 150.028067 
L 250.807849 146.56764 
L 250.945765 148.478622 
L 251.083681 147.445659 
L 251.221597 151.474215 
L 251.49743 148.220381 
L 251.635346 146.619288 
L 251.911178 149.924771 
L 252.049094 149.924771 
L 252.462842 153.643438 
L 252.462842 153.436846 
L 252.738675 152.455531 
L 253.014507 146.929177 
L 253.290339 155.29618 
L 253.428255 156.432439 
L 253.704088 145.896214 
L 253.842004 145.99951 
L 254.117836 144.398417 
L 254.255752 144.295121 
L 254.393668 146.154455 
L 254.531584 151.215975 
L 254.807417 146.102806 
L 255.083249 137.632508 
L 255.221165 136.031414 
L 255.359081 139.285249 
L 255.634913 149.614882 
L 255.772829 154.469809 
L 255.910745 153.695087 
L 256.048662 156.484087 
L 256.186578 155.709365 
L 256.324494 153.488494 
L 256.46241 153.436846 
L 256.876158 139.80173 
L 257.014074 139.078656 
L 257.289907 142.435787 
L 257.703655 138.562174 
L 258.117403 151.887401 
L 258.255319 149.718178 
L 258.393236 151.525864 
L 258.531152 146.56764 
L 258.806984 147.032473 
L 258.9449 148.736863 
L 259.220732 139.80173 
L 259.358648 134.327025 
L 259.496565 134.585266 
L 259.496565 137.890748 
L 259.634481 146.877529 
L 259.772397 147.13577 
L 259.910313 147.858844 
L 260.048229 142.745676 
L 260.186145 142.694028 
L 260.461977 146.515992 
L 260.599894 149.511585 
L 260.875726 146.825881 
L 261.013642 146.257751 
L 261.42739 143.520398 
L 261.703222 152.972012 
L 261.841139 148.840159 
L 262.116971 136.599544 
L 262.392803 150.647845 
L 262.530719 148.220381 
L 262.806551 139.440193 
L 262.944468 140.93799 
L 263.2203 145.99951 
L 263.634048 141.661064 
L 263.771964 145.224788 
L 264.047797 143.881935 
L 264.599461 130.711654 
L 264.737377 134.068784 
L 265.013209 149.563233 
L 265.151125 149.821474 
L 265.289042 149.718178 
L 265.426958 146.206103 
L 265.564874 147.96214 
L 265.70279 145.534677 
L 266.116538 133.397358 
L 266.392371 138.40723 
L 266.668203 148.323677 
L 266.668203 147.858844 
L 266.806119 142.745676 
L 267.4957 151.887401 
L 267.633616 150.854437 
L 267.771532 147.703899 
L 267.909448 148.117085 
L 268.047364 145.483028 
L 268.18528 145.792917 
L 268.323196 147.548955 
L 268.599028 154.418161 
L 269.150693 140.628101 
L 269.288609 141.247879 
L 269.426525 141.247879 
L 269.702357 142.952268 
L 269.840274 150.131363 
L 269.97819 149.511585 
L 270.116106 151.680808 
L 270.254022 143.417102 
L 270.391938 146.102806 
L 270.529854 144.501713 
L 270.66777 147.084122 
L 270.805686 143.210509 
L 270.943602 143.262157 
L 271.219435 147.13577 
L 271.357351 146.774233 
L 271.771099 127.819356 
L 271.909015 129.213857 
L 272.184848 143.417102 
L 272.322764 143.262157 
L 272.46068 143.623695 
L 272.598596 142.797324 
L 272.736512 148.168733 
L 273.012344 149.511585 
L 273.426093 137.580859 
L 273.701925 145.276436 
L 273.839841 143.46875 
L 273.977757 143.726991 
L 274.115673 144.656658 
L 274.253589 144.243473 
L 274.391505 142.33249 
L 274.529422 143.313806 
L 274.667338 142.125898 
L 274.805254 142.952268 
L 275.081086 138.613823 
L 275.356918 139.646786 
L 275.494834 142.280842 
L 275.632751 140.834694 
L 276.046499 146.412695 
L 276.184415 150.183011 
L 276.322331 150.23466 
L 276.460247 148.633566 
L 276.73608 141.816009 
L 276.873996 141.351175 
L 277.149828 137.219322 
L 277.42566 144.759954 
L 277.563576 143.417102 
L 277.701492 139.491841 
L 277.839408 138.768767 
L 277.977325 139.130304 
L 278.253157 130.556709 
L 278.391073 130.401765 
L 278.666905 144.656658 
L 278.804821 147.290714 
L 278.942737 139.027008 
L 279.080654 138.665471 
L 279.21857 135.928118 
L 279.356486 141.712712 
L 279.494402 141.454472 
L 279.632318 146.929177 
L 280.046066 133.862192 
L 280.321899 147.600603 
L 280.459815 146.619288 
L 280.597731 142.590731 
L 280.735647 144.759954 
L 280.873563 155.606069 
L 281.287311 143.933584 
L 281.425228 143.778639 
L 281.563144 139.388545 
L 281.838976 140.111619 
L 281.976892 142.435787 
L 282.114808 140.163268 
L 282.252724 135.359988 
L 282.39064 135.824822 
L 282.528557 135.205044 
L 282.666473 141.50612 
L 282.804389 139.027008 
L 282.942305 140.524805 
L 283.080221 138.613823 
L 283.356053 144.553361 
L 283.493969 144.759954 
L 283.769802 133.552303 
L 283.907718 133.655599 
L 284.045634 141.144583 
L 284.18355 141.351175 
L 284.321466 143.262157 
L 284.459382 140.93799 
L 284.597298 143.055565 
L 284.735214 142.745676 
L 284.873131 145.792917 
L 285.148963 139.853379 
L 285.286879 135.566581 
L 285.424795 134.998451 
L 285.562711 135.721525 
L 285.700627 133.965488 
L 285.97646 139.491841 
L 286.114376 142.229194 
L 286.252292 141.144583 
L 286.390208 143.158861 
L 286.528124 142.694028 
L 286.803956 141.041286 
L 287.079788 149.563233 
L 287.355621 140.989638 
L 287.493537 134.017136 
L 287.907285 138.923712 
L 288.045201 134.998451 
L 288.045201 138.355582 
L 288.321034 142.797324 
L 288.596866 136.961081 
L 288.872698 144.346769 
L 289.010614 145.379732 
L 289.14853 141.970953 
L 289.286446 143.365454 
L 289.424363 142.33249 
L 289.562279 142.590731 
L 289.700195 146.619288 
L 289.976027 143.210509 
L 290.113943 136.031414 
L 290.527691 140.421508 
L 290.665608 137.322619 
L 290.803524 138.97536 
L 290.94144 137.116026 
L 291.079356 140.059971 
L 291.217272 138.820415 
L 291.355188 139.750082 
L 291.63102 132.20945 
L 291.768937 134.172081 
L 292.182685 146.980825 
L 292.320601 147.600603 
L 292.458517 147.13577 
L 292.734349 140.36986 
L 293.148098 125.75343 
L 293.42393 130.298468 
L 293.699762 135.050099 
L 293.975594 145.637973 
L 294.113511 144.914899 
L 294.527259 135.205044 
L 294.803091 143.210509 
L 294.941007 143.003917 
L 295.078923 138.923712 
L 295.21684 142.487435 
L 295.354756 140.886342 
L 295.630588 129.11056 
L 295.768504 128.85232 
L 295.90642 129.265505 
L 296.182252 136.806137 
L 296.320168 138.200637 
L 296.458085 134.533618 
L 296.596001 134.430321 
L 296.871833 137.167674 
L 297.009749 139.130304 
L 297.147665 138.923712 
L 297.285581 134.636914 
L 297.423497 135.721525 
L 297.69933 149.0984 
L 297.837246 148.53027 
L 297.975162 148.323677 
L 298.526826 137.8391 
L 298.940575 144.811602 
L 299.078491 140.473157 
L 299.216407 140.36986 
L 299.354323 137.529211 
L 299.492239 139.750082 
L 299.630155 139.027008 
L 299.768071 139.750082 
L 299.905988 137.529211 
L 300.043904 140.473157 
L 300.18182 139.285249 
L 300.319736 143.210509 
L 300.457652 141.247879 
L 300.8714 146.619288 
L 301.009317 145.534677 
L 301.147233 143.365454 
L 301.285149 145.276436 
L 301.423065 145.069843 
L 301.836813 137.116026 
L 301.974729 136.083063 
L 302.250562 132.054506 
L 302.250562 133.810543 
L 302.526394 145.586325 
L 302.66431 144.243473 
L 302.940142 131.744617 
L 303.215974 142.745676 
L 303.353891 148.426974 
L 303.491807 146.722584 
L 303.629723 141.402823 
L 303.767639 140.576453 
L 303.905555 136.599544 
L 304.043471 137.477563 
L 304.181387 135.773174 
L 304.319303 137.27097 
L 304.45722 135.773174 
L 304.733052 138.355582 
L 305.008884 144.656658 
L 305.284716 150.699493 
L 305.422632 152.352234 
L 305.974297 135.256692 
L 306.112213 133.397358 
L 306.250129 133.91384 
L 306.388045 136.031414 
L 306.525961 144.03688 
L 306.801794 142.590731 
L 306.93971 138.613823 
L 307.077626 143.055565 
L 307.215542 142.022601 
L 307.353458 143.520398 
L 307.491374 140.731397 
L 307.62929 142.694028 
L 307.767206 139.181952 
L 307.905123 140.886342 
L 308.043039 135.979766 
L 308.180955 139.388545 
L 308.318871 137.322619 
L 308.456787 138.562174 
L 308.732619 130.401765 
L 309.284284 141.557768 
L 309.4222 138.200637 
L 309.4222 135.411636 
L 309.560116 131.692969 
L 309.698032 132.157802 
L 309.835948 133.758895 
L 310.249697 146.670936 
L 310.525529 135.773174 
L 310.663445 136.857785 
L 310.939277 147.394011 
L 311.077193 145.844566 
L 311.353026 131.589672 
L 311.490942 129.420449 
L 311.766774 133.500654 
L 312.042606 138.820415 
L 312.180522 145.224788 
L 312.318438 146.206103 
L 312.732187 135.773174 
L 312.870103 135.721525 
L 313.283851 141.50612 
L 313.421767 140.163268 
L 313.559683 140.421508 
L 313.835516 143.313806 
L 313.973432 140.163268 
L 314.249264 128.439134 
L 314.525096 140.731397 
L 314.663012 147.290714 
L 314.800929 147.910492 
L 314.938845 146.361047 
L 315.214677 149.718178 
L 315.352593 153.02366 
L 315.490509 147.96214 
L 315.766341 134.48197 
L 315.904257 135.411636 
L 316.042174 142.590731 
L 316.18009 139.853379 
L 316.318006 140.473157 
L 316.455922 140.059971 
L 316.455922 142.952268 
L 316.593838 140.783046 
L 316.731754 141.196231 
L 316.86967 139.595138 
L 317.283419 147.548955 
L 317.559251 138.148989 
L 317.697167 139.646786 
L 317.972999 147.703899 
L 318.248832 137.787452 
L 318.386748 135.618229 
L 318.524664 135.205044 
L 318.800496 137.01273 
L 318.938412 141.402823 
L 319.076328 140.628101 
L 319.35216 135.566581 
L 319.765909 152.507179 
L 320.041741 150.544549 
L 320.455489 135.463285 
L 320.593406 136.651192 
L 320.731322 133.603951 
L 320.869238 136.341303 
L 321.007154 136.238007 
L 321.14507 137.684156 
L 321.282986 135.721525 
L 321.420902 139.027008 
L 321.696734 153.385198 
L 321.834651 151.784104 
L 322.110483 140.163268 
L 322.248399 140.008323 
L 322.524231 147.084122 
L 322.662147 146.774233 
L 322.800063 147.807196 
L 322.93798 143.933584 
L 323.075896 145.947862 
L 323.213812 145.637973 
L 323.351728 147.445659 
L 323.62756 140.008323 
L 323.765476 142.797324 
L 324.041309 153.695087 
L 324.179225 152.972012 
L 324.592973 141.609416 
L 324.730889 142.539083 
L 324.868805 140.989638 
L 325.144637 145.844566 
L 325.282554 145.534677 
L 325.42047 142.745676 
L 325.558386 143.003917 
L 325.834218 152.610475 
L 325.972134 150.544549 
L 326.247966 139.130304 
L 326.385883 137.27097 
L 326.799631 157.000569 
L 326.937547 154.986291 
L 327.075463 149.046752 
L 327.213379 150.286308 
L 327.351295 152.920364 
L 327.489212 160.770885 
L 327.627128 161.029126 
L 328.040876 147.548955 
L 328.316708 152.042345 
L 328.454624 151.990697 
L 328.730457 157.310458 
L 328.868373 162.785163 
L 329.006289 161.390663 
L 329.282121 165.574164 
L 329.420037 165.625812 
L 329.557953 162.165385 
L 329.833786 150.957734 
L 329.971702 148.065437 
L 330.38545 165.935701 
L 330.523366 164.489553 
L 330.661282 165.367572 
L 330.799198 168.466461 
L 330.799198 166.142294 
L 331.075031 158.601662 
L 331.488779 170.48074 
L 331.626695 169.292832 
L 331.764611 165.470868 
L 331.902527 167.433498 
L 332.040443 167.536794 
L 332.17836 165.160979 
L 332.316276 165.057683 
L 332.454192 164.437905 
L 332.592108 170.325795 
L 332.730024 171.462055 
L 333.005856 179.312576 
L 333.143772 181.791688 
L 333.281689 177.349946 
L 333.557521 166.503831 
L 333.695437 168.77635 
L 333.971269 180.448835 
L 334.385017 188.19606 
L 334.522934 188.557597 
L 334.798766 180.448835 
L 334.936682 179.777409 
L 335.074598 179.725761 
L 335.212514 180.552132 
L 335.35043 183.444429 
L 335.626263 193.154284 
L 335.902095 185.200467 
L 336.040011 185.252115 
L 336.315843 197.027896 
L 336.453759 194.858673 
L 336.729592 186.130133 
L 336.867508 185.975189 
L 337.14334 198.783934 
L 337.281256 198.680637 
L 337.419172 197.596026 
L 337.557088 193.412525 
L 337.83292 204.568528 
L 337.83292 212.470697 
L 337.970837 212.367401 
L 338.246669 206.841047 
L 338.384585 205.963028 
L 339.074166 228.378332 
L 339.349998 217.480569 
L 339.487914 214.898161 
L 339.763746 223.93659 
L 339.901662 231.632166 
L 340.177495 226.260757 
L 340.315411 222.025607 
L 340.591243 229.25635 
L 341.142907 241.135428 
L 341.280823 242.22004 
L 341.556656 246.300245 
L 341.832488 239.637631 
L 342.246236 251.103524 
L 342.384152 249.295838 
L 342.797901 263.963917 
L 342.935817 262.930953 
L 343.211649 257.507896 
L 343.349565 258.7991 
L 343.625398 259.005693 
L 343.763314 254.202414 
L 343.90123 254.87384 
L 344.314978 261.949638 
L 344.452894 260.193601 
L 344.59081 264.99688 
L 344.728726 263.602379 
L 344.866643 268.870492 
L 345.004559 266.443028 
L 345.004559 264.170509 
L 345.142475 259.108989 
L 345.280391 261.794694 
L 345.418307 261.743046 
L 345.694139 265.306769 
L 345.832055 271.246308 
L 345.969972 268.044122 
L 346.107888 260.141952 
L 346.245804 259.005693 
L 346.521636 270.833122 
L 346.659552 269.025437 
L 346.935384 259.418878 
L 347.0733 259.315582 
L 347.349133 264.42875 
L 347.487049 262.724361 
L 347.762881 253.221098 
L 347.900797 252.239783 
L 348.038713 255.028784 
L 348.176629 255.028784 
L 348.314546 258.489211 
L 348.452462 258.540859 
L 348.590378 262.569416 
L 348.728294 260.451841 
L 348.86621 264.170509 
L 349.004126 261.433157 
L 349.142042 265.926547 
L 349.279958 266.494677 
L 349.417875 271.814437 
L 349.555791 269.49027 
L 349.969539 249.81232 
L 350.383287 260.451841 
L 350.65912 251.620005 
L 350.797036 249.657375 
L 350.934952 249.81232 
L 351.072868 247.023319 
L 351.210784 248.056282 
L 351.486616 264.222157 
L 351.624532 262.46612 
L 351.762449 262.362823 
L 352.452029 240.257409 
L 352.589945 239.792576 
L 352.727861 236.125556 
L 352.865778 237.778297 
L 353.003694 237.675001 
L 353.14161 243.821133 
L 353.279526 243.666188 
L 353.417442 246.042004 
L 353.555358 242.116743 
L 353.693274 242.633225 
L 353.83119 241.393669 
L 353.969106 242.891466 
L 354.382855 232.613481 
L 354.520771 233.181611 
L 354.658687 234.886 
L 354.934519 244.544207 
L 355.072435 243.821133 
L 355.486184 231.890407 
L 355.6241 232.510185 
L 355.762016 231.890407 
L 355.899932 233.749741 
L 356.037848 232.613481 
L 356.313681 236.383797 
L 356.451597 239.224446 
L 356.589513 235.660723 
L 356.865345 222.851978 
L 357.003261 224.556367 
L 357.279093 238.346427 
L 357.417009 240.412354 
L 357.554926 238.294779 
L 357.692842 240.877187 
L 357.830758 238.191483 
L 358.10659 223.110219 
L 358.244506 220.011329 
L 358.520338 226.054164 
L 358.658255 228.326683 
L 358.796171 225.279442 
L 359.209919 242.529929 
L 359.209919 239.585983 
L 359.485751 225.692627 
L 359.761583 216.860791 
L 360.313248 224.76296 
L 360.451164 223.626701 
L 360.58908 223.93659 
L 360.864912 234.266222 
L 361.002829 231.735462 
L 361.140745 227.138776 
L 361.416577 230.547554 
L 361.830325 221.354181 
L 361.968241 228.584924 
L 362.106158 225.89922 
L 362.244074 225.692627 
L 362.38199 226.054164 
L 362.519906 230.031073 
L 362.657822 228.636572 
L 362.795738 225.33109 
L 363.07157 230.134369 
L 363.209486 232.665129 
L 363.347403 229.82448 
L 363.485319 230.031073 
L 363.761151 223.316812 
L 363.899067 224.504719 
L 364.036983 230.39261 
L 364.174899 230.702499 
L 364.312815 230.289314 
L 364.450732 223.575052 
L 364.588648 223.884941 
L 364.726564 223.161867 
L 364.86448 227.655257 
L 365.140312 223.420108 
L 365.278228 224.091534 
L 365.554061 232.200296 
L 365.691977 229.049758 
L 365.829893 221.354181 
L 365.967809 221.044292 
L 366.105725 223.161867 
L 366.243641 227.758554 
L 366.381557 226.673942 
L 366.381557 228.016794 
L 366.519473 229.669536 
L 366.795306 223.316812 
L 366.933222 223.988238 
L 367.071138 230.134369 
L 367.209054 230.702499 
L 367.760718 223.471756 
L 368.312383 232.92337 
L 368.450299 231.425573 
L 368.726131 221.044292 
L 368.864047 221.199237 
L 369.001964 221.250885 
L 369.13988 222.490441 
L 369.277796 219.959681 
L 369.691544 224.556367 
L 369.82946 220.321218 
L 369.691544 216.344309 
L 369.553628 217.015736 
L 369.277796 221.457478 
L 368.726131 211.334437 
L 368.312383 215.827828 
L 368.174467 213.400364 
L 367.898635 213.090475 
L 367.760718 212.573993 
L 367.622802 208.700381 
L 367.484886 208.080603 
L 367.209054 203.94875 
L 367.071138 204.930065 
L 366.657389 216.860791 
L 366.519473 216.912439 
L 366.105725 205.91138 
L 365.691977 195.271859 
L 365.554061 196.253174 
L 365.416144 193.877358 
L 365.002396 204.052046 
L 364.726564 198.732285 
L 364.588648 198.267452 
L 364.450732 196.666359 
L 364.312815 192.276265 
L 364.036983 190.985061 
L 363.899067 192.586154 
L 363.761151 190.210338 
L 363.623235 191.86308 
L 363.347403 200.230082 
L 363.209486 199.713601 
L 363.07157 197.441081 
L 362.795738 190.055394 
L 362.519906 182.514762 
L 362.38199 180.862021 
L 362.244074 180.707076 
L 361.830325 192.482858 
L 361.554493 187.782875 
L 361.416577 188.712542 
L 361.278661 191.29495 
L 361.140745 191.759783 
L 360.864912 186.285078 
L 360.451164 177.763131 
L 360.313248 179.105983 
L 360.175332 186.23343 
L 359.8995 182.824651 
L 359.761583 181.688391 
L 359.485751 195.581747 
L 359.347835 191.29495 
L 359.209919 178.744446 
L 358.934087 185.6653 
L 358.796171 186.078485 
L 358.520338 182.359818 
L 358.244506 187.163097 
L 358.10659 190.003746 
L 357.830758 180.03565 
L 357.692842 179.260928 
L 357.417009 188.19606 
L 357.279093 187.62793 
L 357.141177 184.890578 
L 357.003261 179.829057 
L 356.727429 181.533447 
L 356.589513 183.754318 
L 356.313681 177.401594 
L 356.175764 176.523575 
L 355.762016 186.594967 
L 355.348268 175.129075 
L 355.072435 178.692798 
L 354.796603 178.331261 
L 354.520771 172.804907 
L 354.382855 173.682926 
L 354.244939 179.622465 
L 354.107023 177.608186 
L 353.83119 168.982943 
L 353.417442 176.885112 
L 353.003694 163.869775 
L 352.727861 173.424685 
L 352.589945 173.321389 
L 352.314113 161.648904 
L 352.038281 169.396128 
L 352.038281 176.730168 
L 351.762449 173.373037 
L 351.486616 163.508238 
L 351.210784 160.409348 
L 350.797036 165.625812 
L 350.521203 162.32033 
L 350.383287 161.235718 
L 350.245371 164.179664 
L 350.107455 163.973071 
L 349.969539 165.006034 
L 349.693707 162.991756 
L 349.279958 155.347828 
L 348.86621 160.306052 
L 348.590378 152.868716 
L 348.452462 150.544549 
L 348.314546 153.126957 
L 347.900797 143.003917 
L 347.762881 145.224788 
L 347.0733 134.017136 
L 346.935384 135.514933 
L 346.659552 134.688562 
L 346.521636 131.951209 
L 346.38372 132.054506 
L 346.107888 137.27097 
L 345.969972 134.068784 
L 345.694139 121.776521 
L 345.556223 122.964429 
L 345.142475 129.67869 
L 345.004559 126.734745 
L 345.004559 120.795206 
L 344.866643 116.45676 
L 344.728726 121.311688 
L 344.59081 121.208391 
L 344.452894 121.51828 
L 344.314978 118.16115 
L 344.177062 120.433669 
L 344.039146 118.574335 
L 343.625398 96.004087 
L 343.487481 95.64255 
L 343.211649 102.666701 
L 343.073733 101.737034 
L 342.797901 91.820586 
L 342.659985 95.229365 
L 342.384152 92.54366 
L 342.246236 88.256863 
L 341.970404 92.646957 
L 341.832488 89.031585 
L 341.556656 73.382192 
L 341.280823 72.142636 
L 341.004991 78.49536 
L 340.729159 85.829399 
L 340.591243 84.95138 
L 339.763746 64.498707 
L 339.487914 61.864651 
L 339.349998 65.893208 
L 339.212082 62.794318 
L 339.074166 62.845966 
L 338.798333 56.235001 
L 338.660417 55.305334 
L 338.246669 65.686615 
L 338.108753 60.521799 
L 337.970837 60.263558 
L 337.83292 60.883336 
L 337.83292 61.503114 
L 337.695004 60.470151 
L 337.557088 61.03828 
L 337.281256 68.578912 
L 336.867508 52.981167 
L 336.729592 58.559168 
L 336.315843 53.446 
L 336.177927 60.521799 
L 336.040011 59.592132 
L 335.764179 62.432781 
L 335.626263 68.733857 
L 335.488346 69.870116 
L 335.212514 58.559168 
L 335.074598 59.385539 
L 334.798766 69.353635 
L 334.66085 65.015189 
L 334.522934 64.7053 
L 334.247101 68.217375 
L 333.971269 57.061372 
L 333.833353 59.437187 
L 333.695437 67.752542 
L 333.557521 68.37232 
L 333.419605 67.23606 
L 333.281689 67.081116 
L 333.143772 65.583319 
L 332.454192 81.181064 
L 332.316276 81.129416 
L 332.040443 75.086581 
L 331.764611 77.100859 
L 331.350863 70.128357 
L 331.075031 75.9646 
L 330.937115 74.156914 
L 330.799198 65.325078 
L 330.38545 79.88986 
L 330.109618 84.279954 
L 329.833786 79.373379 
L 329.695869 83.401935 
L 329.557953 83.763473 
L 329.420037 82.730509 
L 329.282121 77.100859 
L 329.144205 76.53273 
L 328.868373 76.894267 
L 328.730457 78.082174 
L 328.59254 76.222841 
L 328.454624 81.232712 
L 328.316708 78.908545 
L 327.90296 88.153566 
L 327.489212 79.683268 
L 327.351295 85.674455 
L 327.213379 85.157973 
L 327.075463 88.05027 
L 326.937547 84.228306 
L 326.799631 88.205215 
L 326.661715 85.51951 
L 326.385883 88.411807 
L 326.11005 102.563404 
L 325.696302 91.872234 
L 325.558386 94.351346 
L 325.42047 93.834864 
L 325.282554 96.882106 
L 324.868805 81.904139 
L 324.455057 99.722755 
L 324.179225 93.370031 
L 323.765476 103.751312 
L 323.62756 101.995274 
L 323.62756 99.412866 
L 323.213812 101.943626 
L 323.075896 97.60518 
L 322.93798 97.450236 
L 322.800063 98.276607 
L 322.386315 108.451295 
L 322.110483 101.995274 
L 321.972567 96.623865 
L 321.696734 106.953498 
L 321.558818 109.484258 
L 321.420902 107.056794 
L 321.14507 97.553532 
L 321.007154 96.77881 
L 320.731322 101.375496 
L 320.455489 92.801901 
L 320.317573 92.182123 
L 320.041741 100.70407 
L 319.903825 101.995274 
L 319.765909 98.070014 
L 319.627993 98.018366 
L 319.35216 104.216145 
L 319.214244 101.84033 
L 319.076328 102.924941 
L 318.800496 111.188648 
L 318.524664 105.817239 
L 318.386748 106.591961 
L 318.248832 108.606239 
L 317.835083 96.623865 
L 317.697167 97.450236 
L 317.145503 110.672166 
L 316.86967 100.445829 
L 316.731754 101.323848 
L 316.593838 99.722755 
L 316.455922 100.910663 
L 316.318006 104.216145 
L 316.042174 98.74144 
L 315.904257 95.022772 
L 315.766341 101.84033 
L 315.628425 102.356812 
L 315.490509 109.43261 
L 315.352593 108.657888 
L 315.214677 109.690851 
L 315.076761 100.187589 
L 314.938845 100.70407 
L 314.800929 102.511756 
L 314.663012 107.160091 
L 314.525096 106.230424 
L 314.38718 101.685385 
L 314.249264 101.375496 
L 314.111348 101.84033 
L 313.6976 114.752371 
L 313.283851 100.13594 
L 313.008019 107.934813 
L 312.870103 107.779869 
L 312.732187 105.352405 
L 312.594271 99.8777 
L 312.318438 104.474386 
L 312.180522 111.033703 
L 311.90469 106.798554 
L 311.766774 106.746905 
L 311.490942 110.362277 
L 311.215109 104.887572 
L 311.077193 104.216145 
L 310.939277 105.404053 
L 310.663445 109.949092 
L 310.387613 102.666701 
L 310.249697 104.164497 
L 309.973864 114.49413 
L 309.698032 110.258981 
L 309.4222 102.356812 
L 309.4222 106.075479 
L 309.146368 117.59302 
L 308.870535 103.648016 
L 308.732619 103.906256 
L 308.594703 105.558998 
L 308.456787 108.916128 
L 308.318871 107.831517 
L 308.180955 108.29635 
L 308.043039 106.90185 
L 307.767206 114.287537 
L 307.62929 113.667759 
L 307.491374 109.380962 
L 307.353458 101.168904 
L 307.077626 107.418332 
L 306.93971 115.113908 
L 306.525961 106.850202 
L 306.112213 117.696316 
L 305.974297 115.682038 
L 305.698465 107.46998 
L 305.560549 109.277666 
L 305.284716 118.419391 
L 305.1468 116.715001 
L 304.870968 109.794147 
L 304.733052 109.329314 
L 304.595136 115.010612 
L 304.181387 105.713942 
L 303.905555 116.198519 
L 303.767639 113.564463 
L 303.491807 112.479852 
L 303.353891 113.151278 
L 303.215974 111.188648 
L 303.078058 105.713942 
L 302.802226 112.324907 
L 302.66431 117.128186 
L 302.388478 106.953498 
L 302.250562 107.573276 
L 302.250562 114.442482 
L 302.112646 117.954557 
L 301.974729 115.733686 
L 301.836813 110.00074 
L 301.698897 112.221611 
L 301.560981 111.136999 
L 301.423065 113.512815 
L 301.147233 108.709536 
L 301.009317 109.380962 
L 300.8714 108.916128 
L 300.733484 112.738092 
L 300.595568 108.967777 
L 300.457652 109.484258 
L 300.319736 108.916128 
L 300.18182 114.958964 
L 299.768071 106.488665 
L 299.492239 115.991927 
L 299.354323 117.076538 
L 299.078491 108.29635 
L 298.940575 108.141406 
L 298.802659 111.291944 
L 298.664743 110.878759 
L 298.250994 120.175428 
L 298.113078 118.471039 
L 297.837246 123.945744 
L 297.69933 123.274318 
L 297.285581 108.86448 
L 297.147665 111.136999 
L 296.871833 107.573276 
L 296.733917 104.474386 
L 296.458085 109.277666 
L 296.320168 114.804019 
L 296.182252 114.545778 
L 295.630588 124.823763 
L 295.354756 122.706188 
L 295.21684 123.894096 
L 295.078923 121.569929 
L 294.941007 115.475445 
L 294.803091 117.438075 
L 294.665175 115.940279 
L 294.527259 119.194113 
L 294.113511 106.798554 
L 293.975594 111.446888 
L 293.837678 111.653481 
L 293.699762 116.921594 
L 293.561846 116.353464 
L 293.42393 123.016077 
L 293.286014 122.65454 
L 293.010182 126.476504 
L 292.872266 123.067725 
L 292.596433 107.624924 
L 292.458517 108.089758 
L 292.044769 118.780928 
L 291.906853 117.696316 
L 291.63102 112.789741 
L 291.493104 112.841389 
L 291.355188 116.560057 
L 291.217272 116.043575 
L 291.079356 117.128186 
L 290.94144 113.512815 
L 290.803524 118.884224 
L 290.665608 118.264446 
L 290.527691 118.316094 
L 290.251859 105.868887 
L 290.113943 104.990868 
L 289.976027 111.653481 
L 289.838111 111.601833 
L 289.700195 112.738092 
L 289.562279 109.174369 
L 289.424363 108.916128 
L 289.286446 111.446888 
L 289.010614 120.588613 
L 288.872698 118.780928 
L 288.734782 113.306222 
L 288.321034 119.968835 
L 288.183117 120.12378 
L 288.045201 120.485317 
L 288.045201 119.607298 
L 287.769369 111.601833 
L 287.631453 112.893037 
L 287.355621 117.747964 
L 287.217705 115.940279 
L 287.079788 116.146871 
L 286.803956 112.324907 
L 286.66604 110.723814 
L 286.390208 115.578742 
L 286.252292 114.545778 
L 285.97646 110.620518 
L 285.838543 113.512815 
L 285.700627 111.136999 
L 285.562711 112.738092 
L 285.424795 112.634796 
L 285.286879 118.780928 
L 285.148963 119.762243 
L 285.011047 124.04904 
L 284.735214 117.128186 
L 284.597298 112.686444 
L 284.459382 117.541372 
L 284.321466 117.02489 
L 284.18355 117.02489 
L 284.045634 117.747964 
L 283.907718 124.513874 
L 283.769802 123.997392 
L 283.631885 122.034762 
L 283.493969 117.386427 
L 283.356053 120.898502 
L 282.942305 111.550185 
L 282.528557 119.968835 
L 282.39064 115.88863 
L 282.252724 115.682038 
L 281.976892 121.828169 
L 281.838976 120.020484 
L 281.70106 120.12378 
L 281.563144 119.865539 
L 281.425228 123.171022 
L 281.149395 118.522687 
L 281.011479 111.860074 
L 280.873563 110.672166 
L 280.873563 112.5315 
L 280.597731 123.687503 
L 280.459815 124.152337 
L 280.183983 121.26004 
L 280.046066 122.551244 
L 279.90815 120.382021 
L 279.770234 120.898502 
L 279.494402 116.043575 
L 279.21857 108.141406 
L 279.080654 106.953498 
L 278.942737 110.104036 
L 278.804821 110.672166 
L 278.391073 118.212798 
L 278.115241 127.871005 
L 277.977325 125.288596 
L 277.701492 115.682038 
L 277.563576 115.010612 
L 277.287744 115.165556 
L 277.149828 114.958964 
L 277.011912 117.541372 
L 276.873996 115.63039 
L 276.460247 126.734745 
L 276.184415 112.376555 
L 275.908583 117.954557 
L 275.770667 117.438075 
L 275.632751 112.893037 
L 275.494834 112.583148 
L 275.081086 119.762243 
L 274.94317 119.400706 
L 274.805254 125.495189 
L 274.529422 124.61717 
L 274.391505 120.795206 
L 274.253589 120.227076 
L 274.115673 123.480911 
L 273.839841 118.72928 
L 273.839841 115.010612 
L 273.426093 125.546837 
L 273.288177 122.499595 
L 273.15026 122.189707 
L 272.874428 123.274318 
L 272.598596 117.59302 
L 272.46068 119.762243 
L 272.184848 125.391893 
L 272.046931 124.823763 
L 271.909015 120.278724 
L 271.771099 123.894096 
L 271.633183 122.034762 
L 271.495267 125.598485 
L 271.357351 123.119373 
L 271.081519 128.490783 
L 270.943602 126.063319 
L 270.805686 119.194113 
L 270.66777 119.349057 
L 270.529854 121.569929 
L 270.391938 127.71606 
L 270.254022 122.809484 
L 270.116106 121.879818 
L 269.97819 115.940279 
L 269.840274 115.165556 
L 269.702357 112.686444 
L 269.288609 131.538024 
L 268.874861 120.433669 
L 268.736945 122.08641 
L 268.599028 129.162209 
L 268.461112 127.199578 
L 268.047364 109.226017 
L 267.909448 109.535906 
L 267.4957 122.396299 
L 267.219867 120.898502 
L 267.081951 117.283131 
L 266.944035 117.02489 
L 266.806119 115.423797 
L 266.668203 118.316094 
L 266.668203 120.743558 
L 266.530287 121.51828 
L 265.978622 112.583148 
L 265.840706 114.958964 
L 265.564874 125.856726 
L 265.151125 115.991927 
L 265.013209 115.423797 
L 264.875293 111.756777 
L 264.737377 111.808426 
L 264.599461 109.690851 
L 264.323629 124.61717 
L 264.185713 125.495189 
L 263.90988 115.991927 
L 263.771964 121.363336 
L 263.634048 121.983114 
L 263.496132 124.875411 
L 263.2203 121.156743 
L 263.082384 121.105095 
L 262.806551 114.804019 
L 262.668635 115.63039 
L 262.392803 126.786393 
L 262.254887 126.683097 
L 262.116971 126.063319 
L 261.841139 118.057853 
L 261.841139 118.057853 
" clip-path="url(#pde30ca8b00)" style="fill: none; stroke: #1f77b4; stroke-width: 1.5; stroke-linecap: square"/>
   </g>
   <g id="patch_3">
    <path d="M 28.942188 283.910437 
L 28.942188 17.798437 
" style="fill: none; stroke: #000000; stroke-width: 0.8; stroke-linejoin: miter; stroke-linecap: square"/>
   </g>
   <g id="patch_4">
    <path d="M 386.062188 283.910437 
L 386.062188 17.798437 
" style="fill: none; stroke: #000000; stroke-width: 0.8; stroke-linejoin: miter; stroke-linecap: square"/>
   </g>
   <g id="patch_5">
    <path d="M 28.942187 283.910437 
L 386.062188 283.910437 
" style="fill: none; stroke: #000000; stroke-width: 0.8; stroke-linejoin: miter; stroke-linecap: square"/>
   </g>
   <g id="patch_6">
    <path d="M 28.942187 17.798437 
L 386.062188 17.798437 
" style="fill: none; stroke: #000000; stroke-width: 0.8; stroke-linejoin: miter; stroke-linecap: square"/>
   </g>
  </g>
 </g>
 <defs>
  <clipPath id="pde30ca8b00">
   <rect x="28.942188" y="17.798437" width="357.12" height="266.112"/>
  </clipPath>
 </defs>
</svg>