<?xml version="1.0" encoding="utf-8" standalone="no"?>
<!DOCTYPE svg PUBLIC "-//W3C//DTD SVG 1.1//EN"
  "http://www.w3.org/Graphics/SVG/1.1/DTD/svg11.dtd">
<svg xmlns:xlink="http://www.w3.org/1999/xlink" width="420.188935pt" height="351.99625pt" viewBox="0 0 420.188935 351.99625" xmlns="http://www.w3.org/2000/svg" version="1.1">
 <metadata>
  <rdf:RDF xmlns:dc="http://purl.org/dc/elements/1.1/" xmlns:cc="http://creativecommons.org/ns#" xmlns:rdf="http://www.w3.org/1999/02/22-rdf-syntax-ns#">
   <cc:Work>
    <dc:type rdf:resource="http://purl.org/dc/dcmitype/StillImage"/>
    <dc:date>2024-08-02T16:59:39.010568</dc:date>
    <dc:format>image/svg+xml</dc:format>
    <dc:creator>
     <cc:Agent>
      <dc:title>Matplotlib v3.9.0, https://matplotlib.org/</dc:title>
     </cc:Agent>
    </dc:creator>
   </cc:Work>
  </rdf:RDF>
 </metadata>
 <defs>
  <style type="text/css">*{stroke-linejoin: round; stroke-linecap: butt}</style>
 </defs>
 <g id="figure_1">
  <g id="patch_1">
   <path d="M 0 351.99625 
L 420.188935 351.99625 
L 420.188935 0 
L 0 0 
z
" style="fill: #ffffff"/>
  </g>
  <g id="axes_1">
   <g id="patch_2">
    <path d="M 47.1875 314.44 
L 341.850735 314.44 
L 341.850735 7.2 
L 47.1875 7.2 
z
" style="fill: #ffffff"/>
   </g>
   <g id="PathCollection_1">
    <defs>
     <path id="mdc570d4f06" d="M 0 3 
C 0.795609 3 1.55874 2.683901 2.12132 2.12132 
C 2.683901 1.55874 3 0.795609 3 0 
C 3 -0.795609 2.683901 -1.55874 2.12132 -2.12132 
C 1.55874 -2.683901 0.795609 -3 0 -3 
C -0.795609 -3 -1.55874 -2.683901 -2.12132 -2.12132 
C -2.683901 -1.55874 -3 -0.795609 -3 0 
C -3 0.795609 -2.683901 1.55874 -2.12132 2.12132 
C -1.55874 2.683901 -0.795609 3 0 3 
z
" style="stroke: #1f77b4; stroke-opacity: 0.8"/>
    </defs>
    <g clip-path="url(#p03d2e1d135)">
     <use xlink:href="#mdc570d4f06" x="60.581283" y="254.086741" style="fill: #1f77b4; fill-opacity: 0.8; stroke: #1f77b4; stroke-opacity: 0.8"/>
     <use xlink:href="#mdc570d4f06" x="87.756234" y="237.788323" style="fill: #1f77b4; fill-opacity: 0.8; stroke: #1f77b4; stroke-opacity: 0.8"/>
     <use xlink:href="#mdc570d4f06" x="114.931184" y="212.713834" style="fill: #1f77b4; fill-opacity: 0.8; stroke: #1f77b4; stroke-opacity: 0.8"/>
     <use xlink:href="#mdc570d4f06" x="142.086765" y="187.639346" style="fill: #1f77b4; fill-opacity: 0.8; stroke: #1f77b4; stroke-opacity: 0.8"/>
     <use xlink:href="#mdc570d4f06" x="169.261715" y="161.311132" style="fill: #1f77b4; fill-opacity: 0.8; stroke: #1f77b4; stroke-opacity: 0.8"/>
     <use xlink:href="#mdc570d4f06" x="196.436666" y="138.744092" style="fill: #1f77b4; fill-opacity: 0.8; stroke: #1f77b4; stroke-opacity: 0.8"/>
     <use xlink:href="#mdc570d4f06" x="223.592247" y="114.923328" style="fill: #1f77b4; fill-opacity: 0.8; stroke: #1f77b4; stroke-opacity: 0.8"/>
     <use xlink:href="#mdc570d4f06" x="250.767197" y="91.102563" style="fill: #1f77b4; fill-opacity: 0.8; stroke: #1f77b4; stroke-opacity: 0.8"/>
     <use xlink:href="#mdc570d4f06" x="277.922778" y="69.789248" style="fill: #1f77b4; fill-opacity: 0.8; stroke: #1f77b4; stroke-opacity: 0.8"/>
     <use xlink:href="#mdc570d4f06" x="305.097728" y="44.714759" style="fill: #1f77b4; fill-opacity: 0.8; stroke: #1f77b4; stroke-opacity: 0.8"/>
     <use xlink:href="#mdc570d4f06" x="142.086765" y="200.17659" style="fill: #1f77b4; fill-opacity: 0.8; stroke: #1f77b4; stroke-opacity: 0.8"/>
     <use xlink:href="#mdc570d4f06" x="142.086765" y="231.519701" style="fill: #1f77b4; fill-opacity: 0.8; stroke: #1f77b4; stroke-opacity: 0.8"/>
     <use xlink:href="#mdc570d4f06" x="169.261715" y="171.340928" style="fill: #1f77b4; fill-opacity: 0.8; stroke: #1f77b4; stroke-opacity: 0.8"/>
     <use xlink:href="#mdc570d4f06" x="196.436666" y="166.32603" style="fill: #1f77b4; fill-opacity: 0.8; stroke: #1f77b4; stroke-opacity: 0.8"/>
     <use xlink:href="#mdc570d4f06" x="223.592247" y="160.057408" style="fill: #1f77b4; fill-opacity: 0.8; stroke: #1f77b4; stroke-opacity: 0.8"/>
     <use xlink:href="#mdc570d4f06" x="180.805743" y="107.400981" style="fill: #1f77b4; fill-opacity: 0.8; stroke: #1f77b4; stroke-opacity: 0.8"/>
     <use xlink:href="#mdc570d4f06" x="207.980693" y="82.326492" style="fill: #1f77b4; fill-opacity: 0.8; stroke: #1f77b4; stroke-opacity: 0.8"/>
     <use xlink:href="#mdc570d4f06" x="262.311224" y="59.759452" style="fill: #1f77b4; fill-opacity: 0.8; stroke: #1f77b4; stroke-opacity: 0.8"/>
    </g>
   </g>
   <g id="PolyCollection_1">
    <path d="M 60.581283 250.913827 
L 60.581283 285.25715 
L 63.051146 282.58803 
L 65.52101 279.91891 
L 67.990873 277.24979 
L 70.460736 274.682318 
L 72.930599 272.226868 
L 75.400462 269.771419 
L 77.870325 267.315969 
L 80.340188 264.860519 
L 82.810051 262.324229 
L 85.279914 259.722615 
L 87.749777 257.121001 
L 90.21964 254.518135 
L 92.689503 251.914157 
L 95.159367 249.400468 
L 97.62923 247.091549 
L 100.099093 244.437789 
L 102.568956 241.708129 
L 105.038819 239.257477 
L 107.508682 236.95207 
L 109.978545 234.633393 
L 112.448408 232.093409 
L 114.918271 229.544082 
L 117.388134 226.908334 
L 119.857997 224.382483 
L 122.32786 221.992092 
L 124.797724 219.604419 
L 127.267587 216.819237 
L 129.73745 214.270555 
L 132.207313 211.720325 
L 134.677176 209.194045 
L 137.147039 206.63044 
L 139.616902 204.284729 
L 142.086765 202.051842 
L 144.556628 199.743542 
L 147.026491 197.379792 
L 149.496354 194.988064 
L 151.966217 192.583699 
L 154.436081 190.179335 
L 156.905944 187.774971 
L 159.375807 185.368549 
L 161.84567 183.204444 
L 164.315533 180.716708 
L 166.785396 178.395733 
L 169.255259 175.768545 
L 171.725122 173.54953 
L 174.194985 171.390386 
L 176.664848 169.032762 
L 179.134711 166.667858 
L 181.604574 164.344988 
L 184.074437 161.939558 
L 186.544301 159.782264 
L 189.014164 157.513065 
L 191.484027 155.36591 
L 193.95389 153.218754 
L 196.423753 151.071598 
L 198.893616 148.966717 
L 201.363479 146.910573 
L 203.833342 144.734162 
L 206.303205 142.482976 
L 208.773068 140.33582 
L 211.242931 138.188664 
L 213.712794 135.98799 
L 216.182658 133.921102 
L 218.652521 131.774243 
L 221.122384 129.622466 
L 223.592247 127.452886 
L 226.06211 125.30573 
L 228.531973 123.174703 
L 231.001836 121.052218 
L 233.471699 118.940499 
L 235.941562 116.82878 
L 238.411425 114.757081 
L 240.881288 112.741356 
L 243.351151 110.49195 
L 245.821015 108.193604 
L 248.290878 105.986143 
L 250.760741 103.943317 
L 253.230604 101.719861 
L 255.700467 99.59072 
L 258.17033 97.624846 
L 260.640193 95.521719 
L 263.110056 93.51721 
L 265.579919 91.415544 
L 268.049782 89.205301 
L 270.519645 87.231704 
L 272.989508 85.12325 
L 275.459371 83.014797 
L 277.929235 80.905958 
L 280.399098 78.795112 
L 282.868961 76.684267 
L 285.338824 74.647043 
L 287.808687 72.924981 
L 290.27855 71.218875 
L 292.748413 69.488266 
L 295.218276 67.402293 
L 297.688139 65.305138 
L 300.158002 63.207906 
L 302.627865 61.108675 
L 305.097728 59.009443 
L 305.097728 21.165455 
L 305.097728 21.165455 
L 302.627865 23.540658 
L 300.158002 26.038136 
L 297.688139 28.706772 
L 295.218276 31.195296 
L 292.748413 33.678717 
L 290.27855 36.163008 
L 287.808687 38.746977 
L 285.338824 41.210254 
L 282.868961 43.688883 
L 280.399098 46.21456 
L 277.929235 48.740237 
L 275.459371 51.403955 
L 272.989508 54.104671 
L 270.519645 56.5702 
L 268.049782 58.933237 
L 265.579919 61.37631 
L 263.110056 63.916387 
L 260.640193 66.479302 
L 258.17033 68.958695 
L 255.700467 71.484124 
L 253.230604 73.898113 
L 250.760741 76.292328 
L 248.290878 78.674706 
L 245.821015 81.057934 
L 243.351151 83.390312 
L 240.881288 85.842308 
L 238.411425 88.290371 
L 235.941562 90.742004 
L 233.471699 93.047082 
L 231.001836 95.612981 
L 228.531973 98.200846 
L 226.06211 100.659193 
L 223.592247 102.96048 
L 221.122384 105.155906 
L 218.652521 107.390178 
L 216.182658 109.850933 
L 213.712794 112.249355 
L 211.242931 114.498148 
L 208.773068 116.850575 
L 206.303205 119.14273 
L 203.833342 121.438365 
L 201.363479 123.711927 
L 198.893616 126.01257 
L 196.423753 128.391126 
L 193.95389 130.856774 
L 191.484027 133.301594 
L 189.014164 135.625909 
L 186.544301 137.950224 
L 184.074437 140.278229 
L 181.604574 142.654301 
L 179.134711 145.026727 
L 176.664848 147.243233 
L 174.194985 149.581187 
L 171.725122 151.902884 
L 169.255259 154.21146 
L 166.785396 156.47576 
L 164.315533 158.821393 
L 161.84567 161.152636 
L 159.375807 163.484967 
L 156.905944 165.698054 
L 154.436081 167.985741 
L 151.966217 170.151298 
L 149.496354 172.432292 
L 147.026491 174.711176 
L 144.556628 176.984345 
L 142.086765 179.199593 
L 139.616902 181.321151 
L 137.147039 183.651766 
L 134.677176 185.852242 
L 132.207313 187.94895 
L 129.73745 190.048141 
L 127.267587 192.467038 
L 124.797724 194.974274 
L 122.32786 197.224907 
L 119.857997 199.421064 
L 117.388134 201.608733 
L 114.918271 203.775397 
L 112.448408 205.903969 
L 109.978545 208.001996 
L 107.508682 210.106252 
L 105.038819 212.210508 
L 102.568956 214.314764 
L 100.099093 216.419594 
L 97.62923 218.526945 
L 95.159367 220.671852 
L 92.689503 222.999799 
L 90.21964 225.328537 
L 87.749777 227.480858 
L 85.279914 229.64438 
L 82.810051 231.894967 
L 80.340188 234.042751 
L 77.870325 236.014168 
L 75.400462 238.206985 
L 72.930599 240.399335 
L 70.460736 242.59403 
L 67.990873 244.786888 
L 65.52101 246.818819 
L 63.051146 248.849255 
L 60.581283 250.913827 
z
" clip-path="url(#p03d2e1d135)" style="fill: #1f77b4; fill-opacity: 0.15"/>
   </g>
   <g id="PathCollection_2">
    <defs>
     <path id="m2eb36dcf8a" d="M 0 3 
C 0.795609 3 1.55874 2.683901 2.12132 2.12132 
C 2.683901 1.55874 3 0.795609 3 0 
C 3 -0.795609 2.683901 -1.55874 2.12132 -2.12132 
C 1.55874 -2.683901 0.795609 -3 0 -3 
C -0.795609 -3 -1.55874 -2.683901 -2.12132 -2.12132 
C -2.683901 -1.55874 -3 -0.795609 -3 0 
C -3 0.795609 -2.683901 1.55874 -2.12132 2.12132 
C -1.55874 2.683901 -0.795609 3 0 3 
z
" style="stroke: #ff7f0e; stroke-opacity: 0.8"/>
    </defs>
    <g clip-path="url(#p03d2e1d135)">
     <use xlink:href="#m2eb36dcf8a" x="138.271038" y="290.44475" style="fill: #ff7f0e; fill-opacity: 0.8; stroke: #ff7f0e; stroke-opacity: 0.8"/>
     <use xlink:href="#m2eb36dcf8a" x="165.445988" y="249.071843" style="fill: #ff7f0e; fill-opacity: 0.8; stroke: #ff7f0e; stroke-opacity: 0.8"/>
     <use xlink:href="#m2eb36dcf8a" x="192.620939" y="212.713834" style="fill: #ff7f0e; fill-opacity: 0.8; stroke: #ff7f0e; stroke-opacity: 0.8"/>
     <use xlink:href="#m2eb36dcf8a" x="219.77652" y="177.60955" style="fill: #ff7f0e; fill-opacity: 0.8; stroke: #ff7f0e; stroke-opacity: 0.8"/>
     <use xlink:href="#m2eb36dcf8a" x="246.95147" y="146.266439" style="fill: #ff7f0e; fill-opacity: 0.8; stroke: #ff7f0e; stroke-opacity: 0.8"/>
     <use xlink:href="#m2eb36dcf8a" x="274.12642" y="117.430777" style="fill: #ff7f0e; fill-opacity: 0.8; stroke: #ff7f0e; stroke-opacity: 0.8"/>
     <use xlink:href="#m2eb36dcf8a" x="301.282001" y="89.848839" style="fill: #ff7f0e; fill-opacity: 0.8; stroke: #ff7f0e; stroke-opacity: 0.8"/>
     <use xlink:href="#m2eb36dcf8a" x="328.456952" y="64.77435" style="fill: #ff7f0e; fill-opacity: 0.8; stroke: #ff7f0e; stroke-opacity: 0.8"/>
     <use xlink:href="#m2eb36dcf8a" x="165.445988" y="256.59419" style="fill: #ff7f0e; fill-opacity: 0.8; stroke: #ff7f0e; stroke-opacity: 0.8"/>
     <use xlink:href="#m2eb36dcf8a" x="219.77652" y="188.89307" style="fill: #ff7f0e; fill-opacity: 0.8; stroke: #ff7f0e; stroke-opacity: 0.8"/>
     <use xlink:href="#m2eb36dcf8a" x="138.271038" y="300.474545" style="fill: #ff7f0e; fill-opacity: 0.8; stroke: #ff7f0e; stroke-opacity: 0.8"/>
     <use xlink:href="#m2eb36dcf8a" x="192.620939" y="235.280874" style="fill: #ff7f0e; fill-opacity: 0.8; stroke: #ff7f0e; stroke-opacity: 0.8"/>
    </g>
   </g>
   <g id="PolyCollection_2">
    <path d="M 138.271038 280.277149 
L 138.271038 296.530767 
L 140.192108 293.998802 
L 142.113178 291.538492 
L 144.034247 289.064851 
L 145.955317 286.566544 
L 147.876387 284.051 
L 149.797457 281.53553 
L 151.718527 279.001036 
L 153.639597 276.508258 
L 155.560666 274.005563 
L 157.481736 271.478842 
L 159.402806 268.986587 
L 161.323876 266.507421 
L 163.244946 264.047953 
L 165.166016 261.55664 
L 167.087085 259.00819 
L 169.008155 256.528619 
L 170.929225 254.00517 
L 172.850295 251.459949 
L 174.771365 249.052277 
L 176.692435 246.618815 
L 178.613504 244.253272 
L 180.534574 241.914515 
L 182.455644 239.460785 
L 184.376714 237.024044 
L 186.297784 234.586458 
L 188.218854 232.130675 
L 190.139923 229.780542 
L 192.060993 227.234943 
L 193.982063 224.884677 
L 195.903133 222.533001 
L 197.824203 220.151328 
L 199.745273 217.737823 
L 201.666342 215.309993 
L 203.587412 212.85436 
L 205.508482 210.548304 
L 207.429552 208.278884 
L 209.350622 205.96221 
L 211.271692 203.519434 
L 213.192761 201.076657 
L 215.113831 198.63388 
L 217.034901 196.255218 
L 218.955971 193.78095 
L 220.877041 191.422346 
L 222.798111 189.043731 
L 224.719181 186.638718 
L 226.64025 184.205392 
L 228.56132 181.816121 
L 230.48239 179.447004 
L 232.40346 177.084024 
L 234.32453 174.721043 
L 236.2456 172.358011 
L 238.166669 169.993624 
L 240.087739 167.646113 
L 242.008809 165.302328 
L 243.929879 162.939335 
L 245.850949 160.605304 
L 247.772019 158.270555 
L 249.693088 155.938078 
L 251.614158 153.596711 
L 253.535228 151.296636 
L 255.456298 148.994707 
L 257.377368 146.606809 
L 259.298438 144.280635 
L 261.219507 141.942047 
L 263.140577 139.609027 
L 265.061647 137.276122 
L 266.982717 134.942162 
L 268.903787 132.582879 
L 270.824857 130.249871 
L 272.745926 127.953033 
L 274.666996 125.657317 
L 276.588066 123.360895 
L 278.509136 121.063191 
L 280.430206 118.746931 
L 282.351276 116.330482 
L 284.272345 113.960079 
L 286.193415 111.616771 
L 288.114485 109.31416 
L 290.035555 107.045779 
L 291.956625 104.761484 
L 293.877695 102.488646 
L 295.798764 100.215808 
L 297.719834 97.942833 
L 299.640904 95.667594 
L 301.561974 93.36692 
L 303.483044 91.12062 
L 305.404114 88.847383 
L 307.325183 86.504638 
L 309.246253 84.185644 
L 311.167323 81.908983 
L 313.088393 79.632322 
L 315.009463 77.309133 
L 316.930533 74.982653 
L 318.851602 72.671856 
L 320.772672 70.473028 
L 322.693742 68.251884 
L 324.614812 65.981884 
L 326.535882 63.708178 
L 328.456952 61.495983 
L 328.456952 37.792313 
L 328.456952 37.792313 
L 326.535882 40.382057 
L 324.614812 42.976848 
L 322.693742 45.571638 
L 320.772672 48.166429 
L 318.851602 50.76122 
L 316.930533 53.35601 
L 315.009463 55.950801 
L 313.088393 58.545592 
L 311.167323 61.140383 
L 309.246253 63.735173 
L 307.325183 66.329964 
L 305.404114 68.924755 
L 303.483044 71.519545 
L 301.561974 74.114336 
L 299.640904 76.709127 
L 297.719834 79.303918 
L 295.798764 81.898708 
L 293.877695 84.493499 
L 291.956625 87.088408 
L 290.035555 89.684911 
L 288.114485 92.281414 
L 286.193415 94.877918 
L 284.272345 97.474421 
L 282.351276 100.070924 
L 280.430206 102.658426 
L 278.509136 105.243198 
L 276.588066 107.82928 
L 274.666996 110.415362 
L 272.745926 113.056691 
L 270.824857 115.651932 
L 268.903787 118.247173 
L 266.982717 120.842951 
L 265.061647 123.439454 
L 263.140577 126.034533 
L 261.219507 128.628136 
L 259.298438 131.131303 
L 257.377368 133.661838 
L 255.456298 136.153273 
L 253.535228 138.771935 
L 251.614158 141.393118 
L 249.693088 143.992273 
L 247.772019 146.575963 
L 245.850949 149.112733 
L 243.929879 151.743343 
L 242.008809 154.327033 
L 240.087739 156.896707 
L 238.166669 159.494003 
L 236.2456 162.033874 
L 234.32453 164.517636 
L 232.40346 167.014159 
L 230.48239 169.551395 
L 228.56132 172.130775 
L 226.64025 174.601286 
L 224.719181 177.026334 
L 222.798111 179.477991 
L 220.877041 181.925165 
L 218.955971 184.337854 
L 217.034901 186.74386 
L 215.113831 189.14599 
L 213.192761 191.579425 
L 211.271692 193.979602 
L 209.350622 196.304023 
L 207.429552 198.681118 
L 205.508482 201.04584 
L 203.587412 203.390639 
L 201.666342 205.734751 
L 199.745273 208.162813 
L 197.824203 210.539025 
L 195.903133 212.894023 
L 193.982063 215.242678 
L 192.060993 217.487864 
L 190.139923 219.817352 
L 188.218854 222.080678 
L 186.297784 224.350597 
L 184.376714 226.612284 
L 182.455644 228.916294 
L 180.534574 231.177425 
L 178.613504 233.467724 
L 176.692435 235.737871 
L 174.771365 237.975367 
L 172.850295 240.197533 
L 170.929225 242.419699 
L 169.008155 244.641864 
L 167.087085 246.86403 
L 165.166016 249.093095 
L 163.244946 251.360697 
L 161.323876 253.591356 
L 159.402806 255.834961 
L 157.481736 258.047522 
L 155.560666 260.260083 
L 153.639597 262.472645 
L 151.718527 264.685206 
L 149.797457 266.897767 
L 147.876387 269.110329 
L 145.955317 271.323118 
L 144.034247 273.549424 
L 142.113178 275.782867 
L 140.192108 278.017541 
L 138.271038 280.277149 
z
" clip-path="url(#p03d2e1d135)" style="fill: #ff7f0e; fill-opacity: 0.15"/>
   </g>
   <g id="matplotlib.axis_1">
    <g id="xtick_1">
     <g id="line2d_1">
      <defs>
       <path id="m4db7932fea" d="M 0 0 
L 0 3.5 
" style="stroke: #000000; stroke-width: 0.8"/>
      </defs>
      <g>
       <use xlink:href="#m4db7932fea" x="75.999145" y="314.44" style="stroke: #000000; stroke-width: 0.8"/>
      </g>
     </g>
     <g id="text_1">
      <!-- 40 -->
      <g transform="translate(69.636645 329.038437) scale(0.1 -0.1)">
       <defs>
        <path id="DejaVuSans-34" d="M 2419 4116 
L 825 1625 
L 2419 1625 
L 2419 4116 
z
M 2253 4666 
L 3047 4666 
L 3047 1625 
L 3713 1625 
L 3713 1100 
L 3047 1100 
L 3047 0 
L 2419 0 
L 2419 1100 
L 313 1100 
L 313 1709 
L 2253 4666 
z
" transform="scale(0.015625)"/>
        <path id="DejaVuSans-30" d="M 2034 4250 
Q 1547 4250 1301 3770 
Q 1056 3291 1056 2328 
Q 1056 1369 1301 889 
Q 1547 409 2034 409 
Q 2525 409 2770 889 
Q 3016 1369 3016 2328 
Q 3016 3291 2770 3770 
Q 2525 4250 2034 4250 
z
M 2034 4750 
Q 2819 4750 3233 4129 
Q 3647 3509 3647 2328 
Q 3647 1150 3233 529 
Q 2819 -91 2034 -91 
Q 1250 -91 836 529 
Q 422 1150 422 2328 
Q 422 3509 836 4129 
Q 1250 4750 2034 4750 
z
" transform="scale(0.015625)"/>
       </defs>
       <use xlink:href="#DejaVuSans-34"/>
       <use xlink:href="#DejaVuSans-30" x="63.623047"/>
      </g>
     </g>
    </g>
    <g id="xtick_2">
     <g id="line2d_2">
      <g>
       <use xlink:href="#m4db7932fea" x="114.737492" y="314.44" style="stroke: #000000; stroke-width: 0.8"/>
      </g>
     </g>
     <g id="text_2">
      <!-- 60 -->
      <g transform="translate(108.374992 329.038437) scale(0.1 -0.1)">
       <defs>
        <path id="DejaVuSans-36" d="M 2113 2584 
Q 1688 2584 1439 2293 
Q 1191 2003 1191 1497 
Q 1191 994 1439 701 
Q 1688 409 2113 409 
Q 2538 409 2786 701 
Q 3034 994 3034 1497 
Q 3034 2003 2786 2293 
Q 2538 2584 2113 2584 
z
M 3366 4563 
L 3366 3988 
Q 3128 4100 2886 4159 
Q 2644 4219 2406 4219 
Q 1781 4219 1451 3797 
Q 1122 3375 1075 2522 
Q 1259 2794 1537 2939 
Q 1816 3084 2150 3084 
Q 2853 3084 3261 2657 
Q 3669 2231 3669 1497 
Q 3669 778 3244 343 
Q 2819 -91 2113 -91 
Q 1303 -91 875 529 
Q 447 1150 447 2328 
Q 447 3434 972 4092 
Q 1497 4750 2381 4750 
Q 2619 4750 2861 4703 
Q 3103 4656 3366 4563 
z
" transform="scale(0.015625)"/>
       </defs>
       <use xlink:href="#DejaVuSans-36"/>
       <use xlink:href="#DejaVuSans-30" x="63.623047"/>
      </g>
     </g>
    </g>
    <g id="xtick_3">
     <g id="line2d_3">
      <g>
       <use xlink:href="#m4db7932fea" x="153.475839" y="314.44" style="stroke: #000000; stroke-width: 0.8"/>
      </g>
     </g>
     <g id="text_3">
      <!-- 80 -->
      <g transform="translate(147.113339 329.038437) scale(0.1 -0.1)">
       <defs>
        <path id="DejaVuSans-38" d="M 2034 2216 
Q 1584 2216 1326 1975 
Q 1069 1734 1069 1313 
Q 1069 891 1326 650 
Q 1584 409 2034 409 
Q 2484 409 2743 651 
Q 3003 894 3003 1313 
Q 3003 1734 2745 1975 
Q 2488 2216 2034 2216 
z
M 1403 2484 
Q 997 2584 770 2862 
Q 544 3141 544 3541 
Q 544 4100 942 4425 
Q 1341 4750 2034 4750 
Q 2731 4750 3128 4425 
Q 3525 4100 3525 3541 
Q 3525 3141 3298 2862 
Q 3072 2584 2669 2484 
Q 3125 2378 3379 2068 
Q 3634 1759 3634 1313 
Q 3634 634 3220 271 
Q 2806 -91 2034 -91 
Q 1263 -91 848 271 
Q 434 634 434 1313 
Q 434 1759 690 2068 
Q 947 2378 1403 2484 
z
M 1172 3481 
Q 1172 3119 1398 2916 
Q 1625 2713 2034 2713 
Q 2441 2713 2670 2916 
Q 2900 3119 2900 3481 
Q 2900 3844 2670 4047 
Q 2441 4250 2034 4250 
Q 1625 4250 1398 4047 
Q 1172 3844 1172 3481 
z
" transform="scale(0.015625)"/>
       </defs>
       <use xlink:href="#DejaVuSans-38"/>
       <use xlink:href="#DejaVuSans-30" x="63.623047"/>
      </g>
     </g>
    </g>
    <g id="xtick_4">
     <g id="line2d_4">
      <g>
       <use xlink:href="#m4db7932fea" x="192.214186" y="314.44" style="stroke: #000000; stroke-width: 0.8"/>
      </g>
     </g>
     <g id="text_4">
      <!-- 100 -->
      <g transform="translate(182.670436 329.038437) scale(0.1 -0.1)">
       <defs>
        <path id="DejaVuSans-31" d="M 794 531 
L 1825 531 
L 1825 4091 
L 703 3866 
L 703 4441 
L 1819 4666 
L 2450 4666 
L 2450 531 
L 3481 531 
L 3481 0 
L 794 0 
L 794 531 
z
" transform="scale(0.015625)"/>
       </defs>
       <use xlink:href="#DejaVuSans-31"/>
       <use xlink:href="#DejaVuSans-30" x="63.623047"/>
       <use xlink:href="#DejaVuSans-30" x="127.246094"/>
      </g>
     </g>
    </g>
    <g id="xtick_5">
     <g id="line2d_5">
      <g>
       <use xlink:href="#m4db7932fea" x="230.952533" y="314.44" style="stroke: #000000; stroke-width: 0.8"/>
      </g>
     </g>
     <g id="text_5">
      <!-- 120 -->
      <g transform="translate(221.408783 329.038437) scale(0.1 -0.1)">
       <defs>
        <path id="DejaVuSans-32" d="M 1228 531 
L 3431 531 
L 3431 0 
L 469 0 
L 469 531 
Q 828 903 1448 1529 
Q 2069 2156 2228 2338 
Q 2531 2678 2651 2914 
Q 2772 3150 2772 3378 
Q 2772 3750 2511 3984 
Q 2250 4219 1831 4219 
Q 1534 4219 1204 4116 
Q 875 4013 500 3803 
L 500 4441 
Q 881 4594 1212 4672 
Q 1544 4750 1819 4750 
Q 2544 4750 2975 4387 
Q 3406 4025 3406 3419 
Q 3406 3131 3298 2873 
Q 3191 2616 2906 2266 
Q 2828 2175 2409 1742 
Q 1991 1309 1228 531 
z
" transform="scale(0.015625)"/>
       </defs>
       <use xlink:href="#DejaVuSans-31"/>
       <use xlink:href="#DejaVuSans-32" x="63.623047"/>
       <use xlink:href="#DejaVuSans-30" x="127.246094"/>
      </g>
     </g>
    </g>
    <g id="xtick_6">
     <g id="line2d_6">
      <g>
       <use xlink:href="#m4db7932fea" x="269.690879" y="314.44" style="stroke: #000000; stroke-width: 0.8"/>
      </g>
     </g>
     <g id="text_6">
      <!-- 140 -->
      <g transform="translate(260.147129 329.038437) scale(0.1 -0.1)">
       <use xlink:href="#DejaVuSans-31"/>
       <use xlink:href="#DejaVuSans-34" x="63.623047"/>
       <use xlink:href="#DejaVuSans-30" x="127.246094"/>
      </g>
     </g>
    </g>
    <g id="xtick_7">
     <g id="line2d_7">
      <g>
       <use xlink:href="#m4db7932fea" x="308.429226" y="314.44" style="stroke: #000000; stroke-width: 0.8"/>
      </g>
     </g>
     <g id="text_7">
      <!-- 160 -->
      <g transform="translate(298.885476 329.038437) scale(0.1 -0.1)">
       <use xlink:href="#DejaVuSans-31"/>
       <use xlink:href="#DejaVuSans-36" x="63.623047"/>
       <use xlink:href="#DejaVuSans-30" x="127.246094"/>
      </g>
     </g>
    </g>
    <g id="text_8">
     <!-- MW, g/mol -->
     <g transform="translate(167.905836 342.716562) scale(0.1 -0.1)">
      <defs>
       <path id="DejaVuSans-4d" d="M 628 4666 
L 1569 4666 
L 2759 1491 
L 3956 4666 
L 4897 4666 
L 4897 0 
L 4281 0 
L 4281 4097 
L 3078 897 
L 2444 897 
L 1241 4097 
L 1241 0 
L 628 0 
L 628 4666 
z
" transform="scale(0.015625)"/>
       <path id="DejaVuSans-57" d="M 213 4666 
L 850 4666 
L 1831 722 
L 2809 4666 
L 3519 4666 
L 4500 722 
L 5478 4666 
L 6119 4666 
L 4947 0 
L 4153 0 
L 3169 4050 
L 2175 0 
L 1381 0 
L 213 4666 
z
" transform="scale(0.015625)"/>
       <path id="DejaVuSans-2c" d="M 750 794 
L 1409 794 
L 1409 256 
L 897 -744 
L 494 -744 
L 750 256 
L 750 794 
z
" transform="scale(0.015625)"/>
       <path id="DejaVuSans-20" transform="scale(0.015625)"/>
       <path id="DejaVuSans-67" d="M 2906 1791 
Q 2906 2416 2648 2759 
Q 2391 3103 1925 3103 
Q 1463 3103 1205 2759 
Q 947 2416 947 1791 
Q 947 1169 1205 825 
Q 1463 481 1925 481 
Q 2391 481 2648 825 
Q 2906 1169 2906 1791 
z
M 3481 434 
Q 3481 -459 3084 -895 
Q 2688 -1331 1869 -1331 
Q 1566 -1331 1297 -1286 
Q 1028 -1241 775 -1147 
L 775 -588 
Q 1028 -725 1275 -790 
Q 1522 -856 1778 -856 
Q 2344 -856 2625 -561 
Q 2906 -266 2906 331 
L 2906 616 
Q 2728 306 2450 153 
Q 2172 0 1784 0 
Q 1141 0 747 490 
Q 353 981 353 1791 
Q 353 2603 747 3093 
Q 1141 3584 1784 3584 
Q 2172 3584 2450 3431 
Q 2728 3278 2906 2969 
L 2906 3500 
L 3481 3500 
L 3481 434 
z
" transform="scale(0.015625)"/>
       <path id="DejaVuSans-2f" d="M 1625 4666 
L 2156 4666 
L 531 -594 
L 0 -594 
L 1625 4666 
z
" transform="scale(0.015625)"/>
       <path id="DejaVuSans-6d" d="M 3328 2828 
Q 3544 3216 3844 3400 
Q 4144 3584 4550 3584 
Q 5097 3584 5394 3201 
Q 5691 2819 5691 2113 
L 5691 0 
L 5113 0 
L 5113 2094 
Q 5113 2597 4934 2840 
Q 4756 3084 4391 3084 
Q 3944 3084 3684 2787 
Q 3425 2491 3425 1978 
L 3425 0 
L 2847 0 
L 2847 2094 
Q 2847 2600 2669 2842 
Q 2491 3084 2119 3084 
Q 1678 3084 1418 2786 
Q 1159 2488 1159 1978 
L 1159 0 
L 581 0 
L 581 3500 
L 1159 3500 
L 1159 2956 
Q 1356 3278 1631 3431 
Q 1906 3584 2284 3584 
Q 2666 3584 2933 3390 
Q 3200 3197 3328 2828 
z
" transform="scale(0.015625)"/>
       <path id="DejaVuSans-6f" d="M 1959 3097 
Q 1497 3097 1228 2736 
Q 959 2375 959 1747 
Q 959 1119 1226 758 
Q 1494 397 1959 397 
Q 2419 397 2687 759 
Q 2956 1122 2956 1747 
Q 2956 2369 2687 2733 
Q 2419 3097 1959 3097 
z
M 1959 3584 
Q 2709 3584 3137 3096 
Q 3566 2609 3566 1747 
Q 3566 888 3137 398 
Q 2709 -91 1959 -91 
Q 1206 -91 779 398 
Q 353 888 353 1747 
Q 353 2609 779 3096 
Q 1206 3584 1959 3584 
z
" transform="scale(0.015625)"/>
       <path id="DejaVuSans-6c" d="M 603 4863 
L 1178 4863 
L 1178 0 
L 603 0 
L 603 4863 
z
" transform="scale(0.015625)"/>
      </defs>
      <use xlink:href="#DejaVuSans-4d"/>
      <use xlink:href="#DejaVuSans-57" x="86.279297"/>
      <use xlink:href="#DejaVuSans-2c" x="185.15625"/>
      <use xlink:href="#DejaVuSans-20" x="216.943359"/>
      <use xlink:href="#DejaVuSans-67" x="248.730469"/>
      <use xlink:href="#DejaVuSans-2f" x="312.207031"/>
      <use xlink:href="#DejaVuSans-6d" x="345.898438"/>
      <use xlink:href="#DejaVuSans-6f" x="443.310547"/>
      <use xlink:href="#DejaVuSans-6c" x="504.492188"/>
     </g>
    </g>
   </g>
   <g id="matplotlib.axis_2">
    <g id="ytick_1">
     <g id="line2d_8">
      <defs>
       <path id="mb2de0e3b0a" d="M 0 0 
L -3.5 0 
" style="stroke: #000000; stroke-width: 0.8"/>
      </defs>
      <g>
       <use xlink:href="#mb2de0e3b0a" x="47.1875" y="272.892608" style="stroke: #000000; stroke-width: 0.8"/>
      </g>
     </g>
     <g id="text_9">
      <!-- 50 -->
      <g transform="translate(27.4625 276.691826) scale(0.1 -0.1)">
       <defs>
        <path id="DejaVuSans-35" d="M 691 4666 
L 3169 4666 
L 3169 4134 
L 1269 4134 
L 1269 2991 
Q 1406 3038 1543 3061 
Q 1681 3084 1819 3084 
Q 2600 3084 3056 2656 
Q 3513 2228 3513 1497 
Q 3513 744 3044 326 
Q 2575 -91 1722 -91 
Q 1428 -91 1123 -41 
Q 819 9 494 109 
L 494 744 
Q 775 591 1075 516 
Q 1375 441 1709 441 
Q 2250 441 2565 725 
Q 2881 1009 2881 1497 
Q 2881 1984 2565 2268 
Q 2250 2553 1709 2553 
Q 1456 2553 1204 2497 
Q 953 2441 691 2322 
L 691 4666 
z
" transform="scale(0.015625)"/>
       </defs>
       <use xlink:href="#DejaVuSans-35"/>
       <use xlink:href="#DejaVuSans-30" x="63.623047"/>
      </g>
     </g>
    </g>
    <g id="ytick_2">
     <g id="line2d_9">
      <g>
       <use xlink:href="#mb2de0e3b0a" x="47.1875" y="210.206386" style="stroke: #000000; stroke-width: 0.8"/>
      </g>
     </g>
     <g id="text_10">
      <!-- 100 -->
      <g transform="translate(21.1 214.005604) scale(0.1 -0.1)">
       <use xlink:href="#DejaVuSans-31"/>
       <use xlink:href="#DejaVuSans-30" x="63.623047"/>
       <use xlink:href="#DejaVuSans-30" x="127.246094"/>
      </g>
     </g>
    </g>
    <g id="ytick_3">
     <g id="line2d_10">
      <g>
       <use xlink:href="#mb2de0e3b0a" x="47.1875" y="147.520163" style="stroke: #000000; stroke-width: 0.8"/>
      </g>
     </g>
     <g id="text_11">
      <!-- 150 -->
      <g transform="translate(21.1 151.319382) scale(0.1 -0.1)">
       <use xlink:href="#DejaVuSans-31"/>
       <use xlink:href="#DejaVuSans-35" x="63.623047"/>
       <use xlink:href="#DejaVuSans-30" x="127.246094"/>
      </g>
     </g>
    </g>
    <g id="ytick_4">
     <g id="line2d_11">
      <g>
       <use xlink:href="#mb2de0e3b0a" x="47.1875" y="84.833941" style="stroke: #000000; stroke-width: 0.8"/>
      </g>
     </g>
     <g id="text_12">
      <!-- 200 -->
      <g transform="translate(21.1 88.63316) scale(0.1 -0.1)">
       <use xlink:href="#DejaVuSans-32"/>
       <use xlink:href="#DejaVuSans-30" x="63.623047"/>
       <use xlink:href="#DejaVuSans-30" x="127.246094"/>
      </g>
     </g>
    </g>
    <g id="ytick_5">
     <g id="line2d_12">
      <g>
       <use xlink:href="#mb2de0e3b0a" x="47.1875" y="22.147719" style="stroke: #000000; stroke-width: 0.8"/>
      </g>
     </g>
     <g id="text_13">
      <!-- 250 -->
      <g transform="translate(21.1 25.946938) scale(0.1 -0.1)">
       <use xlink:href="#DejaVuSans-32"/>
       <use xlink:href="#DejaVuSans-35" x="63.623047"/>
       <use xlink:href="#DejaVuSans-30" x="127.246094"/>
      </g>
     </g>
    </g>
    <g id="text_14">
     <!-- bp, $^o$C -->
     <g transform="translate(15 176.17) rotate(-90) scale(0.1 -0.1)">
      <defs>
       <path id="DejaVuSans-62" d="M 3116 1747 
Q 3116 2381 2855 2742 
Q 2594 3103 2138 3103 
Q 1681 3103 1420 2742 
Q 1159 2381 1159 1747 
Q 1159 1113 1420 752 
Q 1681 391 2138 391 
Q 2594 391 2855 752 
Q 3116 1113 3116 1747 
z
M 1159 2969 
Q 1341 3281 1617 3432 
Q 1894 3584 2278 3584 
Q 2916 3584 3314 3078 
Q 3713 2572 3713 1747 
Q 3713 922 3314 415 
Q 2916 -91 2278 -91 
Q 1894 -91 1617 61 
Q 1341 213 1159 525 
L 1159 0 
L 581 0 
L 581 4863 
L 1159 4863 
L 1159 2969 
z
" transform="scale(0.015625)"/>
       <path id="DejaVuSans-70" d="M 1159 525 
L 1159 -1331 
L 581 -1331 
L 581 3500 
L 1159 3500 
L 1159 2969 
Q 1341 3281 1617 3432 
Q 1894 3584 2278 3584 
Q 2916 3584 3314 3078 
Q 3713 2572 3713 1747 
Q 3713 922 3314 415 
Q 2916 -91 2278 -91 
Q 1894 -91 1617 61 
Q 1341 213 1159 525 
z
M 3116 1747 
Q 3116 2381 2855 2742 
Q 2594 3103 2138 3103 
Q 1681 3103 1420 2742 
Q 1159 2381 1159 1747 
Q 1159 1113 1420 752 
Q 1681 391 2138 391 
Q 2594 391 2855 752 
Q 3116 1113 3116 1747 
z
" transform="scale(0.015625)"/>
       <path id="DejaVuSans-Oblique-6f" d="M 1625 -91 
Q 1009 -91 651 289 
Q 294 669 294 1325 
Q 294 1706 417 2101 
Q 541 2497 738 2766 
Q 1047 3184 1428 3384 
Q 1809 3584 2291 3584 
Q 2888 3584 3255 3212 
Q 3622 2841 3622 2241 
Q 3622 1825 3500 1412 
Q 3378 1000 3181 728 
Q 2875 309 2494 109 
Q 2113 -91 1625 -91 
z
M 891 1344 
Q 891 869 1089 633 
Q 1288 397 1691 397 
Q 2269 397 2648 901 
Q 3028 1406 3028 2181 
Q 3028 2634 2825 2865 
Q 2622 3097 2228 3097 
Q 1903 3097 1650 2945 
Q 1397 2794 1197 2484 
Q 1050 2253 970 1956 
Q 891 1659 891 1344 
z
" transform="scale(0.015625)"/>
       <path id="DejaVuSans-43" d="M 4122 4306 
L 4122 3641 
Q 3803 3938 3442 4084 
Q 3081 4231 2675 4231 
Q 1875 4231 1450 3742 
Q 1025 3253 1025 2328 
Q 1025 1406 1450 917 
Q 1875 428 2675 428 
Q 3081 428 3442 575 
Q 3803 722 4122 1019 
L 4122 359 
Q 3791 134 3420 21 
Q 3050 -91 2638 -91 
Q 1578 -91 968 557 
Q 359 1206 359 2328 
Q 359 3453 968 4101 
Q 1578 4750 2638 4750 
Q 3056 4750 3426 4639 
Q 3797 4528 4122 4306 
z
" transform="scale(0.015625)"/>
      </defs>
      <use xlink:href="#DejaVuSans-62" transform="translate(0 0.51875)"/>
      <use xlink:href="#DejaVuSans-70" transform="translate(63.476562 0.51875)"/>
      <use xlink:href="#DejaVuSans-2c" transform="translate(126.953125 0.51875)"/>
      <use xlink:href="#DejaVuSans-20" transform="translate(158.740234 0.51875)"/>
      <use xlink:href="#DejaVuSans-Oblique-6f" transform="translate(191.484375 38.8) scale(0.7)"/>
      <use xlink:href="#DejaVuSans-43" transform="translate(237.045898 0.51875)"/>
     </g>
    </g>
   </g>
   <g id="line2d_13">
    <path d="M 60.581283 264.731416 
L 63.051146 262.467968 
L 65.52101 260.204521 
L 67.990873 257.941073 
L 70.460736 255.677625 
L 72.930599 253.414177 
L 75.400462 251.15073 
L 77.870325 248.887282 
L 80.340188 246.623834 
L 82.810051 244.360386 
L 85.279914 242.096939 
L 87.749777 239.833491 
L 90.21964 237.570043 
L 92.689503 235.306595 
L 95.159367 233.043148 
L 97.62923 230.7797 
L 100.099093 228.516252 
L 102.568956 226.252804 
L 105.038819 223.989357 
L 107.508682 221.725909 
L 109.978545 219.462461 
L 112.448408 217.199013 
L 114.918271 214.935566 
L 117.388134 212.672118 
L 119.857997 210.40867 
L 122.32786 208.145222 
L 124.797724 205.881775 
L 127.267587 203.618327 
L 129.73745 201.354879 
L 132.207313 199.091431 
L 134.677176 196.827984 
L 137.147039 194.564536 
L 139.616902 192.301088 
L 142.086765 190.03764 
L 144.556628 187.774193 
L 147.026491 185.510745 
L 149.496354 183.247297 
L 151.966217 180.983849 
L 154.436081 178.720402 
L 156.905944 176.456954 
L 159.375807 174.193506 
L 161.84567 171.930058 
L 164.315533 169.666611 
L 166.785396 167.403163 
L 169.255259 165.139715 
L 171.725122 162.876267 
L 174.194985 160.61282 
L 176.664848 158.349372 
L 179.134711 156.085924 
L 181.604574 153.822476 
L 184.074437 151.559029 
L 186.544301 149.295581 
L 189.014164 147.032133 
L 191.484027 144.768685 
L 193.95389 142.505238 
L 196.423753 140.24179 
L 198.893616 137.978342 
L 201.363479 135.714894 
L 203.833342 133.451447 
L 206.303205 131.187999 
L 208.773068 128.924551 
L 211.242931 126.661104 
L 213.712794 124.397656 
L 216.182658 122.134208 
L 218.652521 119.87076 
L 221.122384 117.607313 
L 223.592247 115.343865 
L 226.06211 113.080417 
L 228.531973 110.816969 
L 231.001836 108.553522 
L 233.471699 106.290074 
L 235.941562 104.026626 
L 238.411425 101.763178 
L 240.881288 99.499731 
L 243.351151 97.236283 
L 245.821015 94.972835 
L 248.290878 92.709387 
L 250.760741 90.44594 
L 253.230604 88.182492 
L 255.700467 85.919044 
L 258.17033 83.655596 
L 260.640193 81.392149 
L 263.110056 79.128701 
L 265.579919 76.865253 
L 268.049782 74.601805 
L 270.519645 72.338358 
L 272.989508 70.07491 
L 275.459371 67.811462 
L 277.929235 65.548014 
L 280.399098 63.284567 
L 282.868961 61.021119 
L 285.338824 58.757671 
L 287.808687 56.494223 
L 290.27855 54.230776 
L 292.748413 51.967328 
L 295.218276 49.70388 
L 297.688139 47.440432 
L 300.158002 45.176985 
L 302.627865 42.913537 
L 305.097728 40.650089 
" clip-path="url(#p03d2e1d135)" style="fill: none; stroke: #1f77b4; stroke-width: 2.25; stroke-linecap: square"/>
   </g>
   <g id="line2d_14">
    <path d="M 138.271038 289.149566 
L 140.192108 286.77807 
L 142.113178 284.406574 
L 144.034247 282.035078 
L 145.955317 279.663582 
L 147.876387 277.292086 
L 149.797457 274.92059 
L 151.718527 272.549095 
L 153.639597 270.177599 
L 155.560666 267.806103 
L 157.481736 265.434607 
L 159.402806 263.063111 
L 161.323876 260.691615 
L 163.244946 258.320119 
L 165.166016 255.948623 
L 167.087085 253.577127 
L 169.008155 251.205632 
L 170.929225 248.834136 
L 172.850295 246.46264 
L 174.771365 244.091144 
L 176.692435 241.719648 
L 178.613504 239.348152 
L 180.534574 236.976656 
L 182.455644 234.60516 
L 184.376714 232.233664 
L 186.297784 229.862169 
L 188.218854 227.490673 
L 190.139923 225.119177 
L 192.060993 222.747681 
L 193.982063 220.376185 
L 195.903133 218.004689 
L 197.824203 215.633193 
L 199.745273 213.261697 
L 201.666342 210.890201 
L 203.587412 208.518706 
L 205.508482 206.14721 
L 207.429552 203.775714 
L 209.350622 201.404218 
L 211.271692 199.032722 
L 213.192761 196.661226 
L 215.113831 194.28973 
L 217.034901 191.918234 
L 218.955971 189.546738 
L 220.877041 187.175242 
L 222.798111 184.803747 
L 224.719181 182.432251 
L 226.64025 180.060755 
L 228.56132 177.689259 
L 230.48239 175.317763 
L 232.40346 172.946267 
L 234.32453 170.574771 
L 236.2456 168.203275 
L 238.166669 165.831779 
L 240.087739 163.460284 
L 242.008809 161.088788 
L 243.929879 158.717292 
L 245.850949 156.345796 
L 247.772019 153.9743 
L 249.693088 151.602804 
L 251.614158 149.231308 
L 253.535228 146.859812 
L 255.456298 144.488316 
L 257.377368 142.116821 
L 259.298438 139.745325 
L 261.219507 137.373829 
L 263.140577 135.002333 
L 265.061647 132.630837 
L 266.982717 130.259341 
L 268.903787 127.887845 
L 270.824857 125.516349 
L 272.745926 123.144853 
L 274.666996 120.773358 
L 276.588066 118.401862 
L 278.509136 116.030366 
L 280.430206 113.65887 
L 282.351276 111.287374 
L 284.272345 108.915878 
L 286.193415 106.544382 
L 288.114485 104.172886 
L 290.035555 101.80139 
L 291.956625 99.429895 
L 293.877695 97.058399 
L 295.798764 94.686903 
L 297.719834 92.315407 
L 299.640904 89.943911 
L 301.561974 87.572415 
L 303.483044 85.200919 
L 305.404114 82.829423 
L 307.325183 80.457927 
L 309.246253 78.086432 
L 311.167323 75.714936 
L 313.088393 73.34344 
L 315.009463 70.971944 
L 316.930533 68.600448 
L 318.851602 66.228952 
L 320.772672 63.857456 
L 322.693742 61.48596 
L 324.614812 59.114464 
L 326.535882 56.742968 
L 328.456952 54.371473 
" clip-path="url(#p03d2e1d135)" style="fill: none; stroke: #ff7f0e; stroke-width: 2.25; stroke-linecap: square"/>
   </g>
   <g id="patch_3">
    <path d="M 47.1875 314.44 
L 47.1875 7.2 
" style="fill: none; stroke: #000000; stroke-width: 0.8; stroke-linejoin: miter; stroke-linecap: square"/>
   </g>
   <g id="patch_4">
    <path d="M 47.1875 314.44 
L 341.850735 314.44 
" style="fill: none; stroke: #000000; stroke-width: 0.8; stroke-linejoin: miter; stroke-linecap: square"/>
   </g>
  </g>
  <g id="legend_1">
   <g id="text_15">
    <!-- type -->
    <g transform="translate(368.139716 164.079375) scale(0.1 -0.1)">
     <defs>
      <path id="DejaVuSans-74" d="M 1172 4494 
L 1172 3500 
L 2356 3500 
L 2356 3053 
L 1172 3053 
L 1172 1153 
Q 1172 725 1289 603 
Q 1406 481 1766 481 
L 2356 481 
L 2356 0 
L 1766 0 
Q 1100 0 847 248 
Q 594 497 594 1153 
L 594 3053 
L 172 3053 
L 172 3500 
L 594 3500 
L 594 4494 
L 1172 4494 
z
" transform="scale(0.015625)"/>
      <path id="DejaVuSans-79" d="M 2059 -325 
Q 1816 -950 1584 -1140 
Q 1353 -1331 966 -1331 
L 506 -1331 
L 506 -850 
L 844 -850 
Q 1081 -850 1212 -737 
Q 1344 -625 1503 -206 
L 1606 56 
L 191 3500 
L 800 3500 
L 1894 763 
L 2988 3500 
L 3597 3500 
L 2059 -325 
z
" transform="scale(0.015625)"/>
      <path id="DejaVuSans-65" d="M 3597 1894 
L 3597 1613 
L 953 1613 
Q 991 1019 1311 708 
Q 1631 397 2203 397 
Q 2534 397 2845 478 
Q 3156 559 3463 722 
L 3463 178 
Q 3153 47 2828 -22 
Q 2503 -91 2169 -91 
Q 1331 -91 842 396 
Q 353 884 353 1716 
Q 353 2575 817 3079 
Q 1281 3584 2069 3584 
Q 2775 3584 3186 3129 
Q 3597 2675 3597 1894 
z
M 3022 2063 
Q 3016 2534 2758 2815 
Q 2500 3097 2075 3097 
Q 1594 3097 1305 2825 
Q 1016 2553 972 2059 
L 3022 2063 
z
" transform="scale(0.015625)"/>
     </defs>
     <use xlink:href="#DejaVuSans-74"/>
     <use xlink:href="#DejaVuSans-79" x="39.208984"/>
     <use xlink:href="#DejaVuSans-70" x="98.388672"/>
     <use xlink:href="#DejaVuSans-65" x="161.865234"/>
    </g>
   </g>
   <g id="PathCollection_3">
    <g>
     <use xlink:href="#mdc570d4f06" x="357.431122" y="176.1325" style="fill: #1f77b4; fill-opacity: 0.8; stroke: #1f77b4; stroke-opacity: 0.8"/>
    </g>
   </g>
   <g id="text_16">
    <!-- alcohol -->
    <g transform="translate(375.431122 178.7575) scale(0.1 -0.1)">
     <defs>
      <path id="DejaVuSans-61" d="M 2194 1759 
Q 1497 1759 1228 1600 
Q 959 1441 959 1056 
Q 959 750 1161 570 
Q 1363 391 1709 391 
Q 2188 391 2477 730 
Q 2766 1069 2766 1631 
L 2766 1759 
L 2194 1759 
z
M 3341 1997 
L 3341 0 
L 2766 0 
L 2766 531 
Q 2569 213 2275 61 
Q 1981 -91 1556 -91 
Q 1019 -91 701 211 
Q 384 513 384 1019 
Q 384 1609 779 1909 
Q 1175 2209 1959 2209 
L 2766 2209 
L 2766 2266 
Q 2766 2663 2505 2880 
Q 2244 3097 1772 3097 
Q 1472 3097 1187 3025 
Q 903 2953 641 2809 
L 641 3341 
Q 956 3463 1253 3523 
Q 1550 3584 1831 3584 
Q 2591 3584 2966 3190 
Q 3341 2797 3341 1997 
z
" transform="scale(0.015625)"/>
      <path id="DejaVuSans-63" d="M 3122 3366 
L 3122 2828 
Q 2878 2963 2633 3030 
Q 2388 3097 2138 3097 
Q 1578 3097 1268 2742 
Q 959 2388 959 1747 
Q 959 1106 1268 751 
Q 1578 397 2138 397 
Q 2388 397 2633 464 
Q 2878 531 3122 666 
L 3122 134 
Q 2881 22 2623 -34 
Q 2366 -91 2075 -91 
Q 1284 -91 818 406 
Q 353 903 353 1747 
Q 353 2603 823 3093 
Q 1294 3584 2113 3584 
Q 2378 3584 2631 3529 
Q 2884 3475 3122 3366 
z
" transform="scale(0.015625)"/>
      <path id="DejaVuSans-68" d="M 3513 2113 
L 3513 0 
L 2938 0 
L 2938 2094 
Q 2938 2591 2744 2837 
Q 2550 3084 2163 3084 
Q 1697 3084 1428 2787 
Q 1159 2491 1159 1978 
L 1159 0 
L 581 0 
L 581 4863 
L 1159 4863 
L 1159 2956 
Q 1366 3272 1645 3428 
Q 1925 3584 2291 3584 
Q 2894 3584 3203 3211 
Q 3513 2838 3513 2113 
z
" transform="scale(0.015625)"/>
     </defs>
     <use xlink:href="#DejaVuSans-61"/>
     <use xlink:href="#DejaVuSans-6c" x="61.279297"/>
     <use xlink:href="#DejaVuSans-63" x="89.0625"/>
     <use xlink:href="#DejaVuSans-6f" x="144.042969"/>
     <use xlink:href="#DejaVuSans-68" x="205.224609"/>
     <use xlink:href="#DejaVuSans-6f" x="268.603516"/>
     <use xlink:href="#DejaVuSans-6c" x="329.785156"/>
    </g>
   </g>
   <g id="PathCollection_4">
    <g>
     <use xlink:href="#m2eb36dcf8a" x="357.431122" y="190.810625" style="fill: #ff7f0e; fill-opacity: 0.8; stroke: #ff7f0e; stroke-opacity: 0.8"/>
    </g>
   </g>
   <g id="text_17">
    <!-- alkane -->
    <g transform="translate(375.431122 193.435625) scale(0.1 -0.1)">
     <defs>
      <path id="DejaVuSans-6b" d="M 581 4863 
L 1159 4863 
L 1159 1991 
L 2875 3500 
L 3609 3500 
L 1753 1863 
L 3688 0 
L 2938 0 
L 1159 1709 
L 1159 0 
L 581 0 
L 581 4863 
z
" transform="scale(0.015625)"/>
      <path id="DejaVuSans-6e" d="M 3513 2113 
L 3513 0 
L 2938 0 
L 2938 2094 
Q 2938 2591 2744 2837 
Q 2550 3084 2163 3084 
Q 1697 3084 1428 2787 
Q 1159 2491 1159 1978 
L 1159 0 
L 581 0 
L 581 3500 
L 1159 3500 
L 1159 2956 
Q 1366 3272 1645 3428 
Q 1925 3584 2291 3584 
Q 2894 3584 3203 3211 
Q 3513 2838 3513 2113 
z
" transform="scale(0.015625)"/>
     </defs>
     <use xlink:href="#DejaVuSans-61"/>
     <use xlink:href="#DejaVuSans-6c" x="61.279297"/>
     <use xlink:href="#DejaVuSans-6b" x="89.0625"/>
     <use xlink:href="#DejaVuSans-61" x="145.222656"/>
     <use xlink:href="#DejaVuSans-6e" x="206.501953"/>
     <use xlink:href="#DejaVuSans-65" x="269.880859"/>
    </g>
   </g>
  </g>
 </g>
 <defs>
  <clipPath id="p03d2e1d135">
   <rect x="47.1875" y="7.2" width="294.663235" height="307.24"/>
  </clipPath>
 </defs>
</svg>