<?xml version="1.0" encoding="utf-8" standalone="no"?>
<!DOCTYPE svg PUBLIC "-//W3C//DTD SVG 1.1//EN"
  "http://www.w3.org/Graphics/SVG/1.1/DTD/svg11.dtd">
<svg xmlns:xlink="http://www.w3.org/1999/xlink" width="391.245pt" height="297.190125pt" viewBox="0 0 391.245 297.190125" xmlns="http://www.w3.org/2000/svg" version="1.1">
 <metadata>
  <rdf:RDF xmlns:dc="http://purl.org/dc/elements/1.1/" xmlns:cc="http://creativecommons.org/ns#" xmlns:rdf="http://www.w3.org/1999/02/22-rdf-syntax-ns#">
   <cc:Work>
    <dc:type rdf:resource="http://purl.org/dc/dcmitype/StillImage"/>
    <dc:date>2025-08-30T20:43:26.754602</dc:date>
    <dc:format>image/svg+xml</dc:format>
    <dc:creator>
     <cc:Agent>
      <dc:title>Matplotlib v3.10.3, https://matplotlib.org/</dc:title>
     </cc:Agent>
    </dc:creator>
   </cc:Work>
  </rdf:RDF>
 </metadata>
 <defs>
  <style type="text/css">*{stroke-linejoin: round; stroke-linecap: butt}</style>
 </defs>
 <g id="figure_1">
  <g id="patch_1">
   <path d="M 0 297.190125 
L 391.245 297.190125 
L 391.245 0 
L 0 0 
z
" style="fill: #ffffff"/>
  </g>
  <g id="axes_1">
   <g id="patch_2">
    <path d="M 26.925 273.312 
L 384.045 273.312 
L 384.045 7.2 
L 26.925 7.2 
z
" style="fill: #ffffff"/>
   </g>
   <g id="PathCollection_1">
    <defs>
     <path id="m1840e6bf46" d="M 0 3 
C 0.795609 3 1.55874 2.683901 2.12132 2.12132 
C 2.683901 1.55874 3 0.795609 3 0 
C 3 -0.795609 2.683901 -1.55874 2.12132 -2.12132 
C 1.55874 -2.683901 0.795609 -3 0 -3 
C -0.795609 -3 -1.55874 -2.683901 -2.12132 -2.12132 
C -2.683901 -1.55874 -3 -0.795609 -3 0 
C -3 0.795609 -2.683901 1.55874 -2.12132 2.12132 
C -1.55874 2.683901 -0.795609 3 0 3 
z
" style="stroke: #1f77b4; stroke-opacity: 0.8"/>
    </defs>
    <g clip-path="url(#pfe07116f4d)">
     <use xlink:href="#m1840e6bf46" x="43.157727" y="245.499046" style="fill: #1f77b4; fill-opacity: 0.8; stroke: #1f77b4; stroke-opacity: 0.8"/>
     <use xlink:href="#m1840e6bf46" x="79.230455" y="231.647494" style="fill: #1f77b4; fill-opacity: 0.8; stroke: #1f77b4; stroke-opacity: 0.8"/>
     <use xlink:href="#m1840e6bf46" x="115.303182" y="191.186176" style="fill: #1f77b4; fill-opacity: 0.8; stroke: #1f77b4; stroke-opacity: 0.8"/>
     <use xlink:href="#m1840e6bf46" x="151.375909" y="188.863744" style="fill: #1f77b4; fill-opacity: 0.8; stroke: #1f77b4; stroke-opacity: 0.8"/>
     <use xlink:href="#m1840e6bf46" x="187.448636" y="134.38551" style="fill: #1f77b4; fill-opacity: 0.8; stroke: #1f77b4; stroke-opacity: 0.8"/>
     <use xlink:href="#m1840e6bf46" x="223.521364" y="124.704037" style="fill: #1f77b4; fill-opacity: 0.8; stroke: #1f77b4; stroke-opacity: 0.8"/>
     <use xlink:href="#m1840e6bf46" x="259.594091" y="117.081522" style="fill: #1f77b4; fill-opacity: 0.8; stroke: #1f77b4; stroke-opacity: 0.8"/>
     <use xlink:href="#m1840e6bf46" x="295.666818" y="85.918387" style="fill: #1f77b4; fill-opacity: 0.8; stroke: #1f77b4; stroke-opacity: 0.8"/>
     <use xlink:href="#m1840e6bf46" x="331.739545" y="53.571446" style="fill: #1f77b4; fill-opacity: 0.8; stroke: #1f77b4; stroke-opacity: 0.8"/>
     <use xlink:href="#m1840e6bf46" x="367.812273" y="19.296" style="fill: #1f77b4; fill-opacity: 0.8; stroke: #1f77b4; stroke-opacity: 0.8"/>
    </g>
   </g>
   <g id="FillBetweenPolyCollection_1">
    <path d="M 43.157727 237.292838 
L 43.157727 261.216 
L 46.437066 258.897679 
L 49.716405 256.581016 
L 52.995744 254.234291 
L 56.275083 251.877814 
L 59.554421 249.521336 
L 62.83376 247.164858 
L 66.113099 244.807334 
L 69.392438 242.449483 
L 72.671777 240.091633 
L 75.951116 237.733782 
L 79.230455 235.375931 
L 82.509793 233.01808 
L 85.789132 230.660229 
L 89.068471 228.302379 
L 92.34781 225.944528 
L 95.627149 223.586677 
L 98.906488 221.228826 
L 102.185826 218.870975 
L 105.465165 216.513125 
L 108.744504 214.144126 
L 112.023843 211.773544 
L 115.303182 209.401568 
L 118.582521 207.002152 
L 121.86186 204.56203 
L 125.141198 202.246464 
L 128.420537 199.875172 
L 131.699876 197.433675 
L 134.979215 195.049648 
L 138.258554 192.759733 
L 141.537893 190.439825 
L 144.817231 188.082643 
L 148.09657 185.865394 
L 151.375909 183.661884 
L 154.655248 181.453657 
L 157.934587 179.217978 
L 161.213926 176.899869 
L 164.493264 174.673542 
L 167.772603 172.355338 
L 171.051942 170.123446 
L 174.331281 167.782178 
L 177.61062 165.509598 
L 180.889959 163.344426 
L 184.169298 160.964893 
L 187.448636 158.770579 
L 190.727975 156.560429 
L 194.007314 154.233746 
L 197.286653 152.050778 
L 200.565992 149.828893 
L 203.845331 147.747633 
L 207.124669 145.432176 
L 210.404008 143.116325 
L 213.683347 140.846713 
L 216.962686 138.762282 
L 220.242025 136.596524 
L 223.521364 134.412693 
L 226.800702 132.102565 
L 230.080041 129.99205 
L 233.35938 127.641998 
L 236.638719 125.547396 
L 239.918058 123.318525 
L 243.197397 121.108893 
L 246.476736 118.929531 
L 249.756074 116.78862 
L 253.035413 114.610784 
L 256.314752 112.377948 
L 259.594091 110.287561 
L 262.87343 108.175145 
L 266.152769 106.018001 
L 269.432107 103.860898 
L 272.711446 101.717494 
L 275.990785 99.647683 
L 279.270124 97.525727 
L 282.549463 95.463824 
L 285.828802 93.347552 
L 289.10814 91.223256 
L 292.387479 89.291545 
L 295.666818 87.260152 
L 298.946157 85.22086 
L 302.225496 83.132506 
L 305.504835 81.007875 
L 308.784174 78.916223 
L 312.063512 76.831745 
L 315.342851 74.777454 
L 318.62219 72.690735 
L 321.901529 70.66778 
L 325.180868 68.660499 
L 328.460207 66.683011 
L 331.739545 64.595774 
L 335.018884 62.508537 
L 338.298223 60.4213 
L 341.577562 58.330331 
L 344.856901 56.241404 
L 348.13624 54.23517 
L 351.415579 52.1552 
L 354.694917 50.058898 
L 357.974256 48.021843 
L 361.253595 46.051786 
L 364.532934 44.000426 
L 367.812273 41.995577 
L 367.812273 19.750073 
L 367.812273 19.750073 
L 364.532934 22.074181 
L 361.253595 24.422645 
L 357.974256 26.719855 
L 354.694917 29.043974 
L 351.415579 31.368124 
L 348.13624 33.700991 
L 344.856901 36.05766 
L 341.577562 38.414329 
L 338.298223 40.771694 
L 335.018884 43.125885 
L 331.739545 45.41137 
L 328.460207 47.67787 
L 325.180868 49.954662 
L 321.901529 52.277431 
L 318.62219 54.602389 
L 315.342851 56.964137 
L 312.063512 59.319619 
L 308.784174 61.622686 
L 305.504835 63.925752 
L 302.225496 66.228818 
L 298.946157 68.541214 
L 295.666818 70.836699 
L 292.387479 73.135647 
L 289.10814 75.422461 
L 285.828802 77.672662 
L 282.549463 79.922863 
L 279.270124 82.173064 
L 275.990785 84.430421 
L 272.711446 86.689207 
L 269.432107 89.021344 
L 266.152769 91.342537 
L 262.87343 93.613722 
L 259.594091 95.923224 
L 256.314752 98.232726 
L 253.035413 100.542229 
L 249.756074 102.825278 
L 246.476736 104.937263 
L 243.197397 107.192415 
L 239.918058 109.347815 
L 236.638719 111.585822 
L 233.35938 113.734972 
L 230.080041 115.969375 
L 226.800702 118.319362 
L 223.521364 120.525109 
L 220.242025 122.735437 
L 216.962686 124.990584 
L 213.683347 127.174951 
L 210.404008 129.402214 
L 207.124669 131.674751 
L 203.845331 133.925287 
L 200.565992 136.173987 
L 197.286653 138.423746 
L 194.007314 140.673505 
L 190.727975 142.923264 
L 187.448636 145.173023 
L 184.169298 147.3098 
L 180.889959 149.344504 
L 177.61062 151.560101 
L 174.331281 153.890698 
L 171.051942 156.204692 
L 167.772603 158.267945 
L 164.493264 160.469386 
L 161.213926 162.740231 
L 157.934587 164.905696 
L 154.655248 166.950332 
L 151.375909 169.05224 
L 148.09657 171.15387 
L 144.817231 173.211113 
L 141.537893 175.300388 
L 138.258554 177.465914 
L 134.979215 179.549013 
L 131.699876 181.676179 
L 128.420537 183.789184 
L 125.141198 186.098504 
L 121.86186 188.180112 
L 118.582521 190.197023 
L 115.303182 192.23316 
L 112.023843 194.297211 
L 108.744504 196.282656 
L 105.465165 198.305807 
L 102.185826 200.328959 
L 98.906488 202.353955 
L 95.627149 204.391095 
L 92.34781 206.529774 
L 89.068471 208.668453 
L 85.789132 210.679491 
L 82.509793 212.59699 
L 79.230455 214.634018 
L 75.951116 216.758878 
L 72.671777 218.70691 
L 69.392438 220.811511 
L 66.113099 223.011696 
L 62.83376 225.142905 
L 59.554421 227.156772 
L 56.275083 229.170639 
L 52.995744 231.184506 
L 49.716405 233.198373 
L 46.437066 235.288068 
L 43.157727 237.292838 
z
" clip-path="url(#pfe07116f4d)" style="fill: #1f77b4; fill-opacity: 0.15"/>
   </g>
   <g id="matplotlib.axis_1">
    <g id="xtick_1">
     <g id="line2d_1">
      <defs>
       <path id="mc66af1b2b9" d="M 0 0 
L 0 3.5 
" style="stroke: #000000; stroke-width: 0.8"/>
      </defs>
      <g>
       <use xlink:href="#mc66af1b2b9" x="43.157727" y="273.312" style="stroke: #000000; stroke-width: 0.8"/>
      </g>
     </g>
     <g id="text_1">
      <!-- 0 -->
      <g transform="translate(39.976477 287.910437) scale(0.1 -0.1)">
       <defs>
        <path id="DejaVuSans-30" d="M 2034 4250 
Q 1547 4250 1301 3770 
Q 1056 3291 1056 2328 
Q 1056 1369 1301 889 
Q 1547 409 2034 409 
Q 2525 409 2770 889 
Q 3016 1369 3016 2328 
Q 3016 3291 2770 3770 
Q 2525 4250 2034 4250 
z
M 2034 4750 
Q 2819 4750 3233 4129 
Q 3647 3509 3647 2328 
Q 3647 1150 3233 529 
Q 2819 -91 2034 -91 
Q 1250 -91 836 529 
Q 422 1150 422 2328 
Q 422 3509 836 4129 
Q 1250 4750 2034 4750 
z
" transform="scale(0.015625)"/>
       </defs>
       <use xlink:href="#DejaVuSans-30"/>
      </g>
     </g>
    </g>
    <g id="xtick_2">
     <g id="line2d_2">
      <g>
       <use xlink:href="#mc66af1b2b9" x="115.303182" y="273.312" style="stroke: #000000; stroke-width: 0.8"/>
      </g>
     </g>
     <g id="text_2">
      <!-- 2 -->
      <g transform="translate(112.121932 287.910437) scale(0.1 -0.1)">
       <defs>
        <path id="DejaVuSans-32" d="M 1228 531 
L 3431 531 
L 3431 0 
L 469 0 
L 469 531 
Q 828 903 1448 1529 
Q 2069 2156 2228 2338 
Q 2531 2678 2651 2914 
Q 2772 3150 2772 3378 
Q 2772 3750 2511 3984 
Q 2250 4219 1831 4219 
Q 1534 4219 1204 4116 
Q 875 4013 500 3803 
L 500 4441 
Q 881 4594 1212 4672 
Q 1544 4750 1819 4750 
Q 2544 4750 2975 4387 
Q 3406 4025 3406 3419 
Q 3406 3131 3298 2873 
Q 3191 2616 2906 2266 
Q 2828 2175 2409 1742 
Q 1991 1309 1228 531 
z
" transform="scale(0.015625)"/>
       </defs>
       <use xlink:href="#DejaVuSans-32"/>
      </g>
     </g>
    </g>
    <g id="xtick_3">
     <g id="line2d_3">
      <g>
       <use xlink:href="#mc66af1b2b9" x="187.448636" y="273.312" style="stroke: #000000; stroke-width: 0.8"/>
      </g>
     </g>
     <g id="text_3">
      <!-- 4 -->
      <g transform="translate(184.267386 287.910437) scale(0.1 -0.1)">
       <defs>
        <path id="DejaVuSans-34" d="M 2419 4116 
L 825 1625 
L 2419 1625 
L 2419 4116 
z
M 2253 4666 
L 3047 4666 
L 3047 1625 
L 3713 1625 
L 3713 1100 
L 3047 1100 
L 3047 0 
L 2419 0 
L 2419 1100 
L 313 1100 
L 313 1709 
L 2253 4666 
z
" transform="scale(0.015625)"/>
       </defs>
       <use xlink:href="#DejaVuSans-34"/>
      </g>
     </g>
    </g>
    <g id="xtick_4">
     <g id="line2d_4">
      <g>
       <use xlink:href="#mc66af1b2b9" x="259.594091" y="273.312" style="stroke: #000000; stroke-width: 0.8"/>
      </g>
     </g>
     <g id="text_4">
      <!-- 6 -->
      <g transform="translate(256.412841 287.910437) scale(0.1 -0.1)">
       <defs>
        <path id="DejaVuSans-36" d="M 2113 2584 
Q 1688 2584 1439 2293 
Q 1191 2003 1191 1497 
Q 1191 994 1439 701 
Q 1688 409 2113 409 
Q 2538 409 2786 701 
Q 3034 994 3034 1497 
Q 3034 2003 2786 2293 
Q 2538 2584 2113 2584 
z
M 3366 4563 
L 3366 3988 
Q 3128 4100 2886 4159 
Q 2644 4219 2406 4219 
Q 1781 4219 1451 3797 
Q 1122 3375 1075 2522 
Q 1259 2794 1537 2939 
Q 1816 3084 2150 3084 
Q 2853 3084 3261 2657 
Q 3669 2231 3669 1497 
Q 3669 778 3244 343 
Q 2819 -91 2113 -91 
Q 1303 -91 875 529 
Q 447 1150 447 2328 
Q 447 3434 972 4092 
Q 1497 4750 2381 4750 
Q 2619 4750 2861 4703 
Q 3103 4656 3366 4563 
z
" transform="scale(0.015625)"/>
       </defs>
       <use xlink:href="#DejaVuSans-36"/>
      </g>
     </g>
    </g>
    <g id="xtick_5">
     <g id="line2d_5">
      <g>
       <use xlink:href="#mc66af1b2b9" x="331.739545" y="273.312" style="stroke: #000000; stroke-width: 0.8"/>
      </g>
     </g>
     <g id="text_5">
      <!-- 8 -->
      <g transform="translate(328.558295 287.910437) scale(0.1 -0.1)">
       <defs>
        <path id="DejaVuSans-38" d="M 2034 2216 
Q 1584 2216 1326 1975 
Q 1069 1734 1069 1313 
Q 1069 891 1326 650 
Q 1584 409 2034 409 
Q 2484 409 2743 651 
Q 3003 894 3003 1313 
Q 3003 1734 2745 1975 
Q 2488 2216 2034 2216 
z
M 1403 2484 
Q 997 2584 770 2862 
Q 544 3141 544 3541 
Q 544 4100 942 4425 
Q 1341 4750 2034 4750 
Q 2731 4750 3128 4425 
Q 3525 4100 3525 3541 
Q 3525 3141 3298 2862 
Q 3072 2584 2669 2484 
Q 3125 2378 3379 2068 
Q 3634 1759 3634 1313 
Q 3634 634 3220 271 
Q 2806 -91 2034 -91 
Q 1263 -91 848 271 
Q 434 634 434 1313 
Q 434 1759 690 2068 
Q 947 2378 1403 2484 
z
M 1172 3481 
Q 1172 3119 1398 2916 
Q 1625 2713 2034 2713 
Q 2441 2713 2670 2916 
Q 2900 3119 2900 3481 
Q 2900 3844 2670 4047 
Q 2441 4250 2034 4250 
Q 1625 4250 1398 4047 
Q 1172 3844 1172 3481 
z
" transform="scale(0.015625)"/>
       </defs>
       <use xlink:href="#DejaVuSans-38"/>
      </g>
     </g>
    </g>
   </g>
   <g id="matplotlib.axis_2">
    <g id="ytick_1">
     <g id="line2d_6">
      <defs>
       <path id="mcb3a12229f" d="M 0 0 
L -3.5 0 
" style="stroke: #000000; stroke-width: 0.8"/>
      </defs>
      <g>
       <use xlink:href="#mcb3a12229f" x="26.925" y="240.900381" style="stroke: #000000; stroke-width: 0.8"/>
      </g>
     </g>
     <g id="text_6">
      <!-- 0 -->
      <g transform="translate(13.5625 244.6996) scale(0.1 -0.1)">
       <use xlink:href="#DejaVuSans-30"/>
      </g>
     </g>
    </g>
    <g id="ytick_2">
     <g id="line2d_7">
      <g>
       <use xlink:href="#mcb3a12229f" x="26.925" y="187.716954" style="stroke: #000000; stroke-width: 0.8"/>
      </g>
     </g>
     <g id="text_7">
      <!-- 5 -->
      <g transform="translate(13.5625 191.516172) scale(0.1 -0.1)">
       <defs>
        <path id="DejaVuSans-35" d="M 691 4666 
L 3169 4666 
L 3169 4134 
L 1269 4134 
L 1269 2991 
Q 1406 3038 1543 3061 
Q 1681 3084 1819 3084 
Q 2600 3084 3056 2656 
Q 3513 2228 3513 1497 
Q 3513 744 3044 326 
Q 2575 -91 1722 -91 
Q 1428 -91 1123 -41 
Q 819 9 494 109 
L 494 744 
Q 775 591 1075 516 
Q 1375 441 1709 441 
Q 2250 441 2565 725 
Q 2881 1009 2881 1497 
Q 2881 1984 2565 2268 
Q 2250 2553 1709 2553 
Q 1456 2553 1204 2497 
Q 953 2441 691 2322 
L 691 4666 
z
" transform="scale(0.015625)"/>
       </defs>
       <use xlink:href="#DejaVuSans-35"/>
      </g>
     </g>
    </g>
    <g id="ytick_3">
     <g id="line2d_8">
      <g>
       <use xlink:href="#mcb3a12229f" x="26.925" y="134.533526" style="stroke: #000000; stroke-width: 0.8"/>
      </g>
     </g>
     <g id="text_8">
      <!-- 10 -->
      <g transform="translate(7.2 138.332745) scale(0.1 -0.1)">
       <defs>
        <path id="DejaVuSans-31" d="M 794 531 
L 1825 531 
L 1825 4091 
L 703 3866 
L 703 4441 
L 1819 4666 
L 2450 4666 
L 2450 531 
L 3481 531 
L 3481 0 
L 794 0 
L 794 531 
z
" transform="scale(0.015625)"/>
       </defs>
       <use xlink:href="#DejaVuSans-31"/>
       <use xlink:href="#DejaVuSans-30" transform="translate(63.623047 0)"/>
      </g>
     </g>
    </g>
    <g id="ytick_4">
     <g id="line2d_9">
      <g>
       <use xlink:href="#mcb3a12229f" x="26.925" y="81.350098" style="stroke: #000000; stroke-width: 0.8"/>
      </g>
     </g>
     <g id="text_9">
      <!-- 15 -->
      <g transform="translate(7.2 85.149317) scale(0.1 -0.1)">
       <use xlink:href="#DejaVuSans-31"/>
       <use xlink:href="#DejaVuSans-35" transform="translate(63.623047 0)"/>
      </g>
     </g>
    </g>
    <g id="ytick_5">
     <g id="line2d_10">
      <g>
       <use xlink:href="#mcb3a12229f" x="26.925" y="28.16667" style="stroke: #000000; stroke-width: 0.8"/>
      </g>
     </g>
     <g id="text_10">
      <!-- 20 -->
      <g transform="translate(7.2 31.965889) scale(0.1 -0.1)">
       <use xlink:href="#DejaVuSans-32"/>
       <use xlink:href="#DejaVuSans-30" transform="translate(63.623047 0)"/>
      </g>
     </g>
    </g>
   </g>
   <g id="line2d_11">
    <path d="M 43.157727 249.226068 
L 46.437066 247.003629 
L 49.716405 244.78119 
L 52.995744 242.558751 
L 56.275083 240.336312 
L 59.554421 238.113873 
L 62.83376 235.891434 
L 66.113099 233.668995 
L 69.392438 231.446556 
L 72.671777 229.224117 
L 75.951116 227.001678 
L 79.230455 224.779239 
L 82.509793 222.5568 
L 85.789132 220.334361 
L 89.068471 218.111922 
L 92.34781 215.889483 
L 95.627149 213.667044 
L 98.906488 211.444605 
L 102.185826 209.222165 
L 105.465165 206.999726 
L 108.744504 204.777287 
L 112.023843 202.554848 
L 115.303182 200.332409 
L 118.582521 198.10997 
L 121.86186 195.887531 
L 125.141198 193.665092 
L 128.420537 191.442653 
L 131.699876 189.220214 
L 134.979215 186.997775 
L 138.258554 184.775336 
L 141.537893 182.552897 
L 144.817231 180.330458 
L 148.09657 178.108019 
L 151.375909 175.88558 
L 154.655248 173.663141 
L 157.934587 171.440702 
L 161.213926 169.218263 
L 164.493264 166.995824 
L 167.772603 164.773385 
L 171.051942 162.550946 
L 174.331281 160.328507 
L 177.61062 158.106068 
L 180.889959 155.883629 
L 184.169298 153.66119 
L 187.448636 151.438751 
L 190.727975 149.216312 
L 194.007314 146.993873 
L 197.286653 144.771434 
L 200.565992 142.548995 
L 203.845331 140.326556 
L 207.124669 138.104117 
L 210.404008 135.881678 
L 213.683347 133.659239 
L 216.962686 131.4368 
L 220.242025 129.214361 
L 223.521364 126.991921 
L 226.800702 124.769482 
L 230.080041 122.547043 
L 233.35938 120.324604 
L 236.638719 118.102165 
L 239.918058 115.879726 
L 243.197397 113.657287 
L 246.476736 111.434848 
L 249.756074 109.212409 
L 253.035413 106.98997 
L 256.314752 104.767531 
L 259.594091 102.545092 
L 262.87343 100.322653 
L 266.152769 98.100214 
L 269.432107 95.877775 
L 272.711446 93.655336 
L 275.990785 91.432897 
L 279.270124 89.210458 
L 282.549463 86.988019 
L 285.828802 84.76558 
L 289.10814 82.543141 
L 292.387479 80.320702 
L 295.666818 78.098263 
L 298.946157 75.875824 
L 302.225496 73.653385 
L 305.504835 71.430946 
L 308.784174 69.208507 
L 312.063512 66.986068 
L 315.342851 64.763629 
L 318.62219 62.54119 
L 321.901529 60.318751 
L 325.180868 58.096312 
L 328.460207 55.873873 
L 331.739545 53.651434 
L 335.018884 51.428995 
L 338.298223 49.206556 
L 341.577562 46.984117 
L 344.856901 44.761678 
L 348.13624 42.539238 
L 351.415579 40.316799 
L 354.694917 38.09436 
L 357.974256 35.871921 
L 361.253595 33.649482 
L 364.532934 31.427043 
L 367.812273 29.204604 
" clip-path="url(#pfe07116f4d)" style="fill: none; stroke: #1f77b4; stroke-width: 2.25; stroke-linecap: square"/>
   </g>
   <g id="patch_3">
    <path d="M 26.925 273.312 
L 26.925 7.2 
" style="fill: none; stroke: #000000; stroke-width: 0.8; stroke-linejoin: miter; stroke-linecap: square"/>
   </g>
   <g id="patch_4">
    <path d="M 384.045 273.312 
L 384.045 7.2 
" style="fill: none; stroke: #000000; stroke-width: 0.8; stroke-linejoin: miter; stroke-linecap: square"/>
   </g>
   <g id="patch_5">
    <path d="M 26.925 273.312 
L 384.045 273.312 
" style="fill: none; stroke: #000000; stroke-width: 0.8; stroke-linejoin: miter; stroke-linecap: square"/>
   </g>
   <g id="patch_6">
    <path d="M 26.925 7.2 
L 384.045 7.2 
" style="fill: none; stroke: #000000; stroke-width: 0.8; stroke-linejoin: miter; stroke-linecap: square"/>
   </g>
  </g>
 </g>
 <defs>
  <clipPath id="pfe07116f4d">
   <rect x="26.925" y="7.2" width="357.12" height="266.112"/>
  </clipPath>
 </defs>
</svg>