<?xml version="1.0" encoding="utf-8" standalone="no"?>
<!DOCTYPE svg PUBLIC "-//W3C//DTD SVG 1.1//EN"
  "http://www.w3.org/Graphics/SVG/1.1/DTD/svg11.dtd">
<svg xmlns:xlink="http://www.w3.org/1999/xlink" width="411.5075pt" height="310.86825pt" viewBox="0 0 411.5075 310.86825" xmlns="http://www.w3.org/2000/svg" version="1.1">
 <metadata>
  <rdf:RDF xmlns:dc="http://purl.org/dc/elements/1.1/" xmlns:cc="http://creativecommons.org/ns#" xmlns:rdf="http://www.w3.org/1999/02/22-rdf-syntax-ns#">
   <cc:Work>
    <dc:type rdf:resource="http://purl.org/dc/dcmitype/StillImage"/>
    <dc:date>2025-08-30T20:43:26.924792</dc:date>
    <dc:format>image/svg+xml</dc:format>
    <dc:creator>
     <cc:Agent>
      <dc:title>Matplotlib v3.10.3, https://matplotlib.org/</dc:title>
     </cc:Agent>
    </dc:creator>
   </cc:Work>
  </rdf:RDF>
 </metadata>
 <defs>
  <style type="text/css">*{stroke-linejoin: round; stroke-linecap: butt}</style>
 </defs>
 <g id="figure_1">
  <g id="patch_1">
   <path d="M 0 310.86825 
L 411.5075 310.86825 
L 411.5075 0 
L 0 0 
z
" style="fill: #ffffff"/>
  </g>
  <g id="axes_1">
   <g id="patch_2">
    <path d="M 47.1875 273.312 
L 404.3075 273.312 
L 404.3075 7.2 
L 47.1875 7.2 
z
" style="fill: #ffffff"/>
   </g>
   <g id="PathCollection_1">
    <defs>
     <path id="m483565a74a" d="M 0 3 
C 0.795609 3 1.55874 2.683901 2.12132 2.12132 
C 2.683901 1.55874 3 0.795609 3 0 
C 3 -0.795609 2.683901 -1.55874 2.12132 -2.12132 
C 1.55874 -2.683901 0.795609 -3 0 -3 
C -0.795609 -3 -1.55874 -2.683901 -2.12132 -2.12132 
C -2.683901 -1.55874 -3 -0.795609 -3 0 
C -3 0.795609 -2.683901 1.55874 -2.12132 2.12132 
C -1.55874 2.683901 -0.795609 3 0 3 
z
" style="stroke: #1f77b4; stroke-opacity: 0.8"/>
    </defs>
    <g clip-path="url(#pd35344d9b8)">
     <use xlink:href="#m483565a74a" x="63.420227" y="200.804165" style="fill: #1f77b4; fill-opacity: 0.8; stroke: #1f77b4; stroke-opacity: 0.8"/>
     <use xlink:href="#m483565a74a" x="96.355175" y="188.139273" style="fill: #1f77b4; fill-opacity: 0.8; stroke: #1f77b4; stroke-opacity: 0.8"/>
     <use xlink:href="#m483565a74a" x="129.290123" y="168.654824" style="fill: #1f77b4; fill-opacity: 0.8; stroke: #1f77b4; stroke-opacity: 0.8"/>
     <use xlink:href="#m483565a74a" x="162.201596" y="149.170374" style="fill: #1f77b4; fill-opacity: 0.8; stroke: #1f77b4; stroke-opacity: 0.8"/>
     <use xlink:href="#m483565a74a" x="195.136544" y="128.711702" style="fill: #1f77b4; fill-opacity: 0.8; stroke: #1f77b4; stroke-opacity: 0.8"/>
     <use xlink:href="#m483565a74a" x="228.071491" y="111.175697" style="fill: #1f77b4; fill-opacity: 0.8; stroke: #1f77b4; stroke-opacity: 0.8"/>
     <use xlink:href="#m483565a74a" x="260.982964" y="92.66547" style="fill: #1f77b4; fill-opacity: 0.8; stroke: #1f77b4; stroke-opacity: 0.8"/>
     <use xlink:href="#m483565a74a" x="293.917912" y="74.155243" style="fill: #1f77b4; fill-opacity: 0.8; stroke: #1f77b4; stroke-opacity: 0.8"/>
     <use xlink:href="#m483565a74a" x="326.829385" y="57.593461" style="fill: #1f77b4; fill-opacity: 0.8; stroke: #1f77b4; stroke-opacity: 0.8"/>
     <use xlink:href="#m483565a74a" x="359.764333" y="38.109011" style="fill: #1f77b4; fill-opacity: 0.8; stroke: #1f77b4; stroke-opacity: 0.8"/>
     <use xlink:href="#m483565a74a" x="157.577088" y="229.056617" style="fill: #1f77b4; fill-opacity: 0.8; stroke: #1f77b4; stroke-opacity: 0.8"/>
     <use xlink:href="#m483565a74a" x="190.512036" y="196.907275" style="fill: #1f77b4; fill-opacity: 0.8; stroke: #1f77b4; stroke-opacity: 0.8"/>
     <use xlink:href="#m483565a74a" x="223.446983" y="168.654824" style="fill: #1f77b4; fill-opacity: 0.8; stroke: #1f77b4; stroke-opacity: 0.8"/>
     <use xlink:href="#m483565a74a" x="256.358456" y="141.376594" style="fill: #1f77b4; fill-opacity: 0.8; stroke: #1f77b4; stroke-opacity: 0.8"/>
     <use xlink:href="#m483565a74a" x="289.293404" y="117.021032" style="fill: #1f77b4; fill-opacity: 0.8; stroke: #1f77b4; stroke-opacity: 0.8"/>
     <use xlink:href="#m483565a74a" x="322.228352" y="94.613915" style="fill: #1f77b4; fill-opacity: 0.8; stroke: #1f77b4; stroke-opacity: 0.8"/>
     <use xlink:href="#m483565a74a" x="355.139825" y="73.181021" style="fill: #1f77b4; fill-opacity: 0.8; stroke: #1f77b4; stroke-opacity: 0.8"/>
     <use xlink:href="#m483565a74a" x="388.074773" y="53.696571" style="fill: #1f77b4; fill-opacity: 0.8; stroke: #1f77b4; stroke-opacity: 0.8"/>
     <use xlink:href="#m483565a74a" x="190.512036" y="202.75261" style="fill: #1f77b4; fill-opacity: 0.8; stroke: #1f77b4; stroke-opacity: 0.8"/>
     <use xlink:href="#m483565a74a" x="256.358456" y="150.144596" style="fill: #1f77b4; fill-opacity: 0.8; stroke: #1f77b4; stroke-opacity: 0.8"/>
     <use xlink:href="#m483565a74a" x="157.577088" y="236.850397" style="fill: #1f77b4; fill-opacity: 0.8; stroke: #1f77b4; stroke-opacity: 0.8"/>
     <use xlink:href="#m483565a74a" x="223.446983" y="186.190828" style="fill: #1f77b4; fill-opacity: 0.8; stroke: #1f77b4; stroke-opacity: 0.8"/>
     <use xlink:href="#m483565a74a" x="162.201596" y="158.912599" style="fill: #1f77b4; fill-opacity: 0.8; stroke: #1f77b4; stroke-opacity: 0.8"/>
     <use xlink:href="#m483565a74a" x="162.201596" y="183.268161" style="fill: #1f77b4; fill-opacity: 0.8; stroke: #1f77b4; stroke-opacity: 0.8"/>
     <use xlink:href="#m483565a74a" x="195.136544" y="136.505482" style="fill: #1f77b4; fill-opacity: 0.8; stroke: #1f77b4; stroke-opacity: 0.8"/>
     <use xlink:href="#m483565a74a" x="228.071491" y="132.608592" style="fill: #1f77b4; fill-opacity: 0.8; stroke: #1f77b4; stroke-opacity: 0.8"/>
     <use xlink:href="#m483565a74a" x="260.982964" y="127.737479" style="fill: #1f77b4; fill-opacity: 0.8; stroke: #1f77b4; stroke-opacity: 0.8"/>
     <use xlink:href="#m483565a74a" x="209.127441" y="86.820135" style="fill: #1f77b4; fill-opacity: 0.8; stroke: #1f77b4; stroke-opacity: 0.8"/>
     <use xlink:href="#m483565a74a" x="242.062389" y="67.335686" style="fill: #1f77b4; fill-opacity: 0.8; stroke: #1f77b4; stroke-opacity: 0.8"/>
     <use xlink:href="#m483565a74a" x="307.908809" y="49.799681" style="fill: #1f77b4; fill-opacity: 0.8; stroke: #1f77b4; stroke-opacity: 0.8"/>
    </g>
   </g>
   <g id="FillBetweenPolyCollection_1">
    <path d="M 63.420227 208.298366 
L 63.420227 261.216 
L 66.699566 258.841993 
L 69.978905 256.46371 
L 73.258244 254.070001 
L 76.537583 251.466234 
L 79.816921 249.087273 
L 83.09626 246.822835 
L 86.375599 244.558396 
L 89.654938 242.225878 
L 92.934277 239.856295 
L 96.213616 237.486713 
L 99.492955 235.11713 
L 102.772293 232.747397 
L 106.051632 230.372595 
L 109.330971 227.997793 
L 112.61031 225.622991 
L 115.889649 223.248189 
L 119.168988 220.873387 
L 122.448326 218.421231 
L 125.727665 215.924502 
L 129.007004 213.486298 
L 132.286343 211.24909 
L 135.565682 208.937932 
L 138.845021 206.642644 
L 142.12436 204.275972 
L 145.403698 201.909681 
L 148.683037 199.629265 
L 151.962376 197.341233 
L 155.241715 195.100853 
L 158.521054 192.859645 
L 161.800393 190.554776 
L 165.079731 188.374432 
L 168.35907 186.169636 
L 171.638409 183.977025 
L 174.917748 181.62861 
L 178.197087 179.191772 
L 181.476426 176.958281 
L 184.755764 174.892971 
L 188.035103 172.689987 
L 191.314442 170.495968 
L 194.593781 168.261847 
L 197.87312 166.258325 
L 201.152459 164.270384 
L 204.431798 162.080138 
L 207.711136 159.882211 
L 210.990475 157.703022 
L 214.269814 155.459687 
L 217.549153 153.266358 
L 220.828492 151.184603 
L 224.107831 149.015151 
L 227.387169 147.009282 
L 230.666508 144.80172 
L 233.945847 142.500771 
L 237.225186 140.441357 
L 240.504525 138.407709 
L 243.783864 136.319678 
L 247.063202 134.406988 
L 250.342541 132.492935 
L 253.62188 130.697207 
L 256.901219 128.9168 
L 260.180558 127.295033 
L 263.459897 125.463278 
L 266.739236 123.528715 
L 270.018574 121.836337 
L 273.297913 120.025632 
L 276.577252 118.166814 
L 279.856591 116.306421 
L 283.13593 114.54578 
L 286.415269 112.792384 
L 289.694607 111.035203 
L 292.973946 109.073845 
L 296.253285 107.324678 
L 299.532624 105.352205 
L 302.811963 103.594963 
L 306.091302 101.913793 
L 309.37064 100.231149 
L 312.649979 98.545965 
L 315.929318 96.86078 
L 319.208657 95.175596 
L 322.487996 93.489561 
L 325.767335 91.736998 
L 329.046674 90.123707 
L 332.326012 88.444453 
L 335.605351 86.765027 
L 338.88469 85.079965 
L 342.164029 83.394903 
L 345.443368 81.709841 
L 348.722707 80.024778 
L 352.002045 78.340142 
L 355.281384 76.659006 
L 358.560723 75.120637 
L 361.840062 73.579882 
L 365.119401 71.898023 
L 368.39874 70.173518 
L 371.678079 68.449012 
L 374.957417 66.899402 
L 378.236756 65.375755 
L 381.516095 63.847957 
L 384.795434 62.067279 
L 388.074773 60.319783 
L 388.074773 19.296 
L 388.074773 19.296 
L 384.795434 21.511636 
L 381.516095 23.807425 
L 378.236756 26.182452 
L 374.957417 28.521213 
L 371.678079 30.664676 
L 368.39874 33.123981 
L 365.119401 35.524995 
L 361.840062 37.859493 
L 358.560723 40.164798 
L 355.281384 42.429099 
L 352.002045 44.6934 
L 348.722707 46.9577 
L 345.443368 49.198048 
L 342.164029 51.100118 
L 338.88469 53.002189 
L 335.605351 55.35208 
L 332.326012 57.82736 
L 329.046674 60.285421 
L 325.767335 62.360178 
L 322.487996 64.484912 
L 319.208657 66.574023 
L 315.929318 69.002603 
L 312.649979 71.221119 
L 309.37064 73.636271 
L 306.091302 75.938953 
L 302.811963 77.953655 
L 299.532624 79.969863 
L 296.253285 82.195206 
L 292.973946 84.249839 
L 289.694607 86.486835 
L 286.415269 88.51218 
L 283.13593 90.745636 
L 279.856591 92.738802 
L 276.577252 94.796774 
L 273.297913 96.757537 
L 270.018574 98.600305 
L 266.739236 100.554682 
L 263.459897 102.673426 
L 260.180558 104.682578 
L 256.901219 106.609133 
L 253.62188 108.542758 
L 250.342541 110.418412 
L 247.063202 112.141063 
L 243.783864 113.981019 
L 240.504525 115.884062 
L 237.225186 117.608394 
L 233.945847 119.365123 
L 230.666508 121.28723 
L 227.387169 123.017233 
L 224.107831 124.911315 
L 220.828492 126.560475 
L 217.549153 128.265648 
L 214.269814 130.20944 
L 210.990475 131.955951 
L 207.711136 133.74136 
L 204.431798 135.575594 
L 201.152459 137.404944 
L 197.87312 139.185943 
L 194.593781 140.963747 
L 191.314442 142.677574 
L 188.035103 144.486684 
L 184.755764 146.172183 
L 181.476426 148.039294 
L 178.197087 149.76617 
L 174.917748 151.560626 
L 171.638409 153.300076 
L 168.35907 154.975014 
L 165.079731 156.645828 
L 161.800393 158.447433 
L 158.521054 160.329688 
L 155.241715 162.053091 
L 151.962376 163.76029 
L 148.683037 165.472916 
L 145.403698 167.048525 
L 142.12436 168.576775 
L 138.845021 170.255939 
L 135.565682 171.788217 
L 132.286343 173.395995 
L 129.007004 175.069337 
L 125.727665 176.71231 
L 122.448326 178.417306 
L 119.168988 180.092656 
L 115.889649 181.768005 
L 112.61031 183.443355 
L 109.330971 185.134675 
L 106.051632 186.849663 
L 102.772293 188.463899 
L 99.492955 190.139206 
L 96.213616 191.814944 
L 92.934277 193.490294 
L 89.654938 195.163218 
L 86.375599 196.836141 
L 83.09626 198.509065 
L 79.816921 200.181988 
L 76.537583 201.854912 
L 73.258244 203.527835 
L 69.978905 205.157619 
L 66.699566 206.727992 
L 63.420227 208.298366 
z
" clip-path="url(#pd35344d9b8)" style="fill: #1f77b4; fill-opacity: 0.15"/>
   </g>
   <g id="matplotlib.axis_1">
    <g id="xtick_1">
     <g id="line2d_1">
      <defs>
       <path id="m9387d6f8ea" d="M 0 0 
L 0 3.5 
" style="stroke: #000000; stroke-width: 0.8"/>
      </defs>
      <g>
       <use xlink:href="#m9387d6f8ea" x="82.106056" y="273.312" style="stroke: #000000; stroke-width: 0.8"/>
      </g>
     </g>
     <g id="text_1">
      <!-- 40 -->
      <g transform="translate(75.743556 287.910437) scale(0.1 -0.1)">
       <defs>
        <path id="DejaVuSans-34" d="M 2419 4116 
L 825 1625 
L 2419 1625 
L 2419 4116 
z
M 2253 4666 
L 3047 4666 
L 3047 1625 
L 3713 1625 
L 3713 1100 
L 3047 1100 
L 3047 0 
L 2419 0 
L 2419 1100 
L 313 1100 
L 313 1709 
L 2253 4666 
z
" transform="scale(0.015625)"/>
        <path id="DejaVuSans-30" d="M 2034 4250 
Q 1547 4250 1301 3770 
Q 1056 3291 1056 2328 
Q 1056 1369 1301 889 
Q 1547 409 2034 409 
Q 2525 409 2770 889 
Q 3016 1369 3016 2328 
Q 3016 3291 2770 3770 
Q 2525 4250 2034 4250 
z
M 2034 4750 
Q 2819 4750 3233 4129 
Q 3647 3509 3647 2328 
Q 3647 1150 3233 529 
Q 2819 -91 2034 -91 
Q 1250 -91 836 529 
Q 422 1150 422 2328 
Q 422 3509 836 4129 
Q 1250 4750 2034 4750 
z
" transform="scale(0.015625)"/>
       </defs>
       <use xlink:href="#DejaVuSans-34"/>
       <use xlink:href="#DejaVuSans-30" transform="translate(63.623047 0)"/>
      </g>
     </g>
    </g>
    <g id="xtick_2">
     <g id="line2d_2">
      <g>
       <use xlink:href="#m9387d6f8ea" x="129.055376" y="273.312" style="stroke: #000000; stroke-width: 0.8"/>
      </g>
     </g>
     <g id="text_2">
      <!-- 60 -->
      <g transform="translate(122.692876 287.910437) scale(0.1 -0.1)">
       <defs>
        <path id="DejaVuSans-36" d="M 2113 2584 
Q 1688 2584 1439 2293 
Q 1191 2003 1191 1497 
Q 1191 994 1439 701 
Q 1688 409 2113 409 
Q 2538 409 2786 701 
Q 3034 994 3034 1497 
Q 3034 2003 2786 2293 
Q 2538 2584 2113 2584 
z
M 3366 4563 
L 3366 3988 
Q 3128 4100 2886 4159 
Q 2644 4219 2406 4219 
Q 1781 4219 1451 3797 
Q 1122 3375 1075 2522 
Q 1259 2794 1537 2939 
Q 1816 3084 2150 3084 
Q 2853 3084 3261 2657 
Q 3669 2231 3669 1497 
Q 3669 778 3244 343 
Q 2819 -91 2113 -91 
Q 1303 -91 875 529 
Q 447 1150 447 2328 
Q 447 3434 972 4092 
Q 1497 4750 2381 4750 
Q 2619 4750 2861 4703 
Q 3103 4656 3366 4563 
z
" transform="scale(0.015625)"/>
       </defs>
       <use xlink:href="#DejaVuSans-36"/>
       <use xlink:href="#DejaVuSans-30" transform="translate(63.623047 0)"/>
      </g>
     </g>
    </g>
    <g id="xtick_3">
     <g id="line2d_3">
      <g>
       <use xlink:href="#m9387d6f8ea" x="176.004696" y="273.312" style="stroke: #000000; stroke-width: 0.8"/>
      </g>
     </g>
     <g id="text_3">
      <!-- 80 -->
      <g transform="translate(169.642196 287.910437) scale(0.1 -0.1)">
       <defs>
        <path id="DejaVuSans-38" d="M 2034 2216 
Q 1584 2216 1326 1975 
Q 1069 1734 1069 1313 
Q 1069 891 1326 650 
Q 1584 409 2034 409 
Q 2484 409 2743 651 
Q 3003 894 3003 1313 
Q 3003 1734 2745 1975 
Q 2488 2216 2034 2216 
z
M 1403 2484 
Q 997 2584 770 2862 
Q 544 3141 544 3541 
Q 544 4100 942 4425 
Q 1341 4750 2034 4750 
Q 2731 4750 3128 4425 
Q 3525 4100 3525 3541 
Q 3525 3141 3298 2862 
Q 3072 2584 2669 2484 
Q 3125 2378 3379 2068 
Q 3634 1759 3634 1313 
Q 3634 634 3220 271 
Q 2806 -91 2034 -91 
Q 1263 -91 848 271 
Q 434 634 434 1313 
Q 434 1759 690 2068 
Q 947 2378 1403 2484 
z
M 1172 3481 
Q 1172 3119 1398 2916 
Q 1625 2713 2034 2713 
Q 2441 2713 2670 2916 
Q 2900 3119 2900 3481 
Q 2900 3844 2670 4047 
Q 2441 4250 2034 4250 
Q 1625 4250 1398 4047 
Q 1172 3844 1172 3481 
z
" transform="scale(0.015625)"/>
       </defs>
       <use xlink:href="#DejaVuSans-38"/>
       <use xlink:href="#DejaVuSans-30" transform="translate(63.623047 0)"/>
      </g>
     </g>
    </g>
    <g id="xtick_4">
     <g id="line2d_4">
      <g>
       <use xlink:href="#m9387d6f8ea" x="222.954015" y="273.312" style="stroke: #000000; stroke-width: 0.8"/>
      </g>
     </g>
     <g id="text_4">
      <!-- 100 -->
      <g transform="translate(213.410265 287.910437) scale(0.1 -0.1)">
       <defs>
        <path id="DejaVuSans-31" d="M 794 531 
L 1825 531 
L 1825 4091 
L 703 3866 
L 703 4441 
L 1819 4666 
L 2450 4666 
L 2450 531 
L 3481 531 
L 3481 0 
L 794 0 
L 794 531 
z
" transform="scale(0.015625)"/>
       </defs>
       <use xlink:href="#DejaVuSans-31"/>
       <use xlink:href="#DejaVuSans-30" transform="translate(63.623047 0)"/>
       <use xlink:href="#DejaVuSans-30" transform="translate(127.246094 0)"/>
      </g>
     </g>
    </g>
    <g id="xtick_5">
     <g id="line2d_5">
      <g>
       <use xlink:href="#m9387d6f8ea" x="269.903335" y="273.312" style="stroke: #000000; stroke-width: 0.8"/>
      </g>
     </g>
     <g id="text_5">
      <!-- 120 -->
      <g transform="translate(260.359585 287.910437) scale(0.1 -0.1)">
       <defs>
        <path id="DejaVuSans-32" d="M 1228 531 
L 3431 531 
L 3431 0 
L 469 0 
L 469 531 
Q 828 903 1448 1529 
Q 2069 2156 2228 2338 
Q 2531 2678 2651 2914 
Q 2772 3150 2772 3378 
Q 2772 3750 2511 3984 
Q 2250 4219 1831 4219 
Q 1534 4219 1204 4116 
Q 875 4013 500 3803 
L 500 4441 
Q 881 4594 1212 4672 
Q 1544 4750 1819 4750 
Q 2544 4750 2975 4387 
Q 3406 4025 3406 3419 
Q 3406 3131 3298 2873 
Q 3191 2616 2906 2266 
Q 2828 2175 2409 1742 
Q 1991 1309 1228 531 
z
" transform="scale(0.015625)"/>
       </defs>
       <use xlink:href="#DejaVuSans-31"/>
       <use xlink:href="#DejaVuSans-32" transform="translate(63.623047 0)"/>
       <use xlink:href="#DejaVuSans-30" transform="translate(127.246094 0)"/>
      </g>
     </g>
    </g>
    <g id="xtick_6">
     <g id="line2d_6">
      <g>
       <use xlink:href="#m9387d6f8ea" x="316.852655" y="273.312" style="stroke: #000000; stroke-width: 0.8"/>
      </g>
     </g>
     <g id="text_6">
      <!-- 140 -->
      <g transform="translate(307.308905 287.910437) scale(0.1 -0.1)">
       <use xlink:href="#DejaVuSans-31"/>
       <use xlink:href="#DejaVuSans-34" transform="translate(63.623047 0)"/>
       <use xlink:href="#DejaVuSans-30" transform="translate(127.246094 0)"/>
      </g>
     </g>
    </g>
    <g id="xtick_7">
     <g id="line2d_7">
      <g>
       <use xlink:href="#m9387d6f8ea" x="363.801974" y="273.312" style="stroke: #000000; stroke-width: 0.8"/>
      </g>
     </g>
     <g id="text_7">
      <!-- 160 -->
      <g transform="translate(354.258224 287.910437) scale(0.1 -0.1)">
       <use xlink:href="#DejaVuSans-31"/>
       <use xlink:href="#DejaVuSans-36" transform="translate(63.623047 0)"/>
       <use xlink:href="#DejaVuSans-30" transform="translate(127.246094 0)"/>
      </g>
     </g>
    </g>
    <g id="text_8">
     <!-- MW, g/mol -->
     <g transform="translate(199.134219 301.588562) scale(0.1 -0.1)">
      <defs>
       <path id="DejaVuSans-4d" d="M 628 4666 
L 1569 4666 
L 2759 1491 
L 3956 4666 
L 4897 4666 
L 4897 0 
L 4281 0 
L 4281 4097 
L 3078 897 
L 2444 897 
L 1241 4097 
L 1241 0 
L 628 0 
L 628 4666 
z
" transform="scale(0.015625)"/>
       <path id="DejaVuSans-57" d="M 213 4666 
L 850 4666 
L 1831 722 
L 2809 4666 
L 3519 4666 
L 4500 722 
L 5478 4666 
L 6119 4666 
L 4947 0 
L 4153 0 
L 3169 4050 
L 2175 0 
L 1381 0 
L 213 4666 
z
" transform="scale(0.015625)"/>
       <path id="DejaVuSans-2c" d="M 750 794 
L 1409 794 
L 1409 256 
L 897 -744 
L 494 -744 
L 750 256 
L 750 794 
z
" transform="scale(0.015625)"/>
       <path id="DejaVuSans-20" transform="scale(0.015625)"/>
       <path id="DejaVuSans-67" d="M 2906 1791 
Q 2906 2416 2648 2759 
Q 2391 3103 1925 3103 
Q 1463 3103 1205 2759 
Q 947 2416 947 1791 
Q 947 1169 1205 825 
Q 1463 481 1925 481 
Q 2391 481 2648 825 
Q 2906 1169 2906 1791 
z
M 3481 434 
Q 3481 -459 3084 -895 
Q 2688 -1331 1869 -1331 
Q 1566 -1331 1297 -1286 
Q 1028 -1241 775 -1147 
L 775 -588 
Q 1028 -725 1275 -790 
Q 1522 -856 1778 -856 
Q 2344 -856 2625 -561 
Q 2906 -266 2906 331 
L 2906 616 
Q 2728 306 2450 153 
Q 2172 0 1784 0 
Q 1141 0 747 490 
Q 353 981 353 1791 
Q 353 2603 747 3093 
Q 1141 3584 1784 3584 
Q 2172 3584 2450 3431 
Q 2728 3278 2906 2969 
L 2906 3500 
L 3481 3500 
L 3481 434 
z
" transform="scale(0.015625)"/>
       <path id="DejaVuSans-2f" d="M 1625 4666 
L 2156 4666 
L 531 -594 
L 0 -594 
L 1625 4666 
z
" transform="scale(0.015625)"/>
       <path id="DejaVuSans-6d" d="M 3328 2828 
Q 3544 3216 3844 3400 
Q 4144 3584 4550 3584 
Q 5097 3584 5394 3201 
Q 5691 2819 5691 2113 
L 5691 0 
L 5113 0 
L 5113 2094 
Q 5113 2597 4934 2840 
Q 4756 3084 4391 3084 
Q 3944 3084 3684 2787 
Q 3425 2491 3425 1978 
L 3425 0 
L 2847 0 
L 2847 2094 
Q 2847 2600 2669 2842 
Q 2491 3084 2119 3084 
Q 1678 3084 1418 2786 
Q 1159 2488 1159 1978 
L 1159 0 
L 581 0 
L 581 3500 
L 1159 3500 
L 1159 2956 
Q 1356 3278 1631 3431 
Q 1906 3584 2284 3584 
Q 2666 3584 2933 3390 
Q 3200 3197 3328 2828 
z
" transform="scale(0.015625)"/>
       <path id="DejaVuSans-6f" d="M 1959 3097 
Q 1497 3097 1228 2736 
Q 959 2375 959 1747 
Q 959 1119 1226 758 
Q 1494 397 1959 397 
Q 2419 397 2687 759 
Q 2956 1122 2956 1747 
Q 2956 2369 2687 2733 
Q 2419 3097 1959 3097 
z
M 1959 3584 
Q 2709 3584 3137 3096 
Q 3566 2609 3566 1747 
Q 3566 888 3137 398 
Q 2709 -91 1959 -91 
Q 1206 -91 779 398 
Q 353 888 353 1747 
Q 353 2609 779 3096 
Q 1206 3584 1959 3584 
z
" transform="scale(0.015625)"/>
       <path id="DejaVuSans-6c" d="M 603 4863 
L 1178 4863 
L 1178 0 
L 603 0 
L 603 4863 
z
" transform="scale(0.015625)"/>
      </defs>
      <use xlink:href="#DejaVuSans-4d"/>
      <use xlink:href="#DejaVuSans-57" transform="translate(86.279297 0)"/>
      <use xlink:href="#DejaVuSans-2c" transform="translate(185.15625 0)"/>
      <use xlink:href="#DejaVuSans-20" transform="translate(216.943359 0)"/>
      <use xlink:href="#DejaVuSans-67" transform="translate(248.730469 0)"/>
      <use xlink:href="#DejaVuSans-2f" transform="translate(312.207031 0)"/>
      <use xlink:href="#DejaVuSans-6d" transform="translate(345.898438 0)"/>
      <use xlink:href="#DejaVuSans-6f" transform="translate(443.310547 0)"/>
      <use xlink:href="#DejaVuSans-6c" transform="translate(504.492188 0)"/>
     </g>
    </g>
   </g>
   <g id="matplotlib.axis_2">
    <g id="ytick_1">
     <g id="line2d_8">
      <defs>
       <path id="mc8a60eb6e6" d="M 0 0 
L -3.5 0 
" style="stroke: #000000; stroke-width: 0.8"/>
      </defs>
      <g>
       <use xlink:href="#mc8a60eb6e6" x="47.1875" y="264.128627" style="stroke: #000000; stroke-width: 0.8"/>
      </g>
     </g>
     <g id="text_9">
      <!-- 0 -->
      <g transform="translate(33.825 267.927845) scale(0.1 -0.1)">
       <use xlink:href="#DejaVuSans-30"/>
      </g>
     </g>
    </g>
    <g id="ytick_2">
     <g id="line2d_9">
      <g>
       <use xlink:href="#mc8a60eb6e6" x="47.1875" y="215.417503" style="stroke: #000000; stroke-width: 0.8"/>
      </g>
     </g>
     <g id="text_10">
      <!-- 50 -->
      <g transform="translate(27.4625 219.216721) scale(0.1 -0.1)">
       <defs>
        <path id="DejaVuSans-35" d="M 691 4666 
L 3169 4666 
L 3169 4134 
L 1269 4134 
L 1269 2991 
Q 1406 3038 1543 3061 
Q 1681 3084 1819 3084 
Q 2600 3084 3056 2656 
Q 3513 2228 3513 1497 
Q 3513 744 3044 326 
Q 2575 -91 1722 -91 
Q 1428 -91 1123 -41 
Q 819 9 494 109 
L 494 744 
Q 775 591 1075 516 
Q 1375 441 1709 441 
Q 2250 441 2565 725 
Q 2881 1009 2881 1497 
Q 2881 1984 2565 2268 
Q 2250 2553 1709 2553 
Q 1456 2553 1204 2497 
Q 953 2441 691 2322 
L 691 4666 
z
" transform="scale(0.015625)"/>
       </defs>
       <use xlink:href="#DejaVuSans-35"/>
       <use xlink:href="#DejaVuSans-30" transform="translate(63.623047 0)"/>
      </g>
     </g>
    </g>
    <g id="ytick_3">
     <g id="line2d_10">
      <g>
       <use xlink:href="#mc8a60eb6e6" x="47.1875" y="166.706379" style="stroke: #000000; stroke-width: 0.8"/>
      </g>
     </g>
     <g id="text_11">
      <!-- 100 -->
      <g transform="translate(21.1 170.505597) scale(0.1 -0.1)">
       <use xlink:href="#DejaVuSans-31"/>
       <use xlink:href="#DejaVuSans-30" transform="translate(63.623047 0)"/>
       <use xlink:href="#DejaVuSans-30" transform="translate(127.246094 0)"/>
      </g>
     </g>
    </g>
    <g id="ytick_4">
     <g id="line2d_11">
      <g>
       <use xlink:href="#mc8a60eb6e6" x="47.1875" y="117.995255" style="stroke: #000000; stroke-width: 0.8"/>
      </g>
     </g>
     <g id="text_12">
      <!-- 150 -->
      <g transform="translate(21.1 121.794473) scale(0.1 -0.1)">
       <use xlink:href="#DejaVuSans-31"/>
       <use xlink:href="#DejaVuSans-35" transform="translate(63.623047 0)"/>
       <use xlink:href="#DejaVuSans-30" transform="translate(127.246094 0)"/>
      </g>
     </g>
    </g>
    <g id="ytick_5">
     <g id="line2d_12">
      <g>
       <use xlink:href="#mc8a60eb6e6" x="47.1875" y="69.284131" style="stroke: #000000; stroke-width: 0.8"/>
      </g>
     </g>
     <g id="text_13">
      <!-- 200 -->
      <g transform="translate(21.1 73.083349) scale(0.1 -0.1)">
       <use xlink:href="#DejaVuSans-32"/>
       <use xlink:href="#DejaVuSans-30" transform="translate(63.623047 0)"/>
       <use xlink:href="#DejaVuSans-30" transform="translate(127.246094 0)"/>
      </g>
     </g>
    </g>
    <g id="ytick_6">
     <g id="line2d_13">
      <g>
       <use xlink:href="#mc8a60eb6e6" x="47.1875" y="20.573007" style="stroke: #000000; stroke-width: 0.8"/>
      </g>
     </g>
     <g id="text_14">
      <!-- 250 -->
      <g transform="translate(21.1 24.372225) scale(0.1 -0.1)">
       <use xlink:href="#DejaVuSans-32"/>
       <use xlink:href="#DejaVuSans-35" transform="translate(63.623047 0)"/>
       <use xlink:href="#DejaVuSans-30" transform="translate(127.246094 0)"/>
      </g>
     </g>
    </g>
    <g id="text_15">
     <!-- bp, $^o$C -->
     <g transform="translate(15 155.606) rotate(-90) scale(0.1 -0.1)">
      <defs>
       <path id="DejaVuSans-62" d="M 3116 1747 
Q 3116 2381 2855 2742 
Q 2594 3103 2138 3103 
Q 1681 3103 1420 2742 
Q 1159 2381 1159 1747 
Q 1159 1113 1420 752 
Q 1681 391 2138 391 
Q 2594 391 2855 752 
Q 3116 1113 3116 1747 
z
M 1159 2969 
Q 1341 3281 1617 3432 
Q 1894 3584 2278 3584 
Q 2916 3584 3314 3078 
Q 3713 2572 3713 1747 
Q 3713 922 3314 415 
Q 2916 -91 2278 -91 
Q 1894 -91 1617 61 
Q 1341 213 1159 525 
L 1159 0 
L 581 0 
L 581 4863 
L 1159 4863 
L 1159 2969 
z
" transform="scale(0.015625)"/>
       <path id="DejaVuSans-70" d="M 1159 525 
L 1159 -1331 
L 581 -1331 
L 581 3500 
L 1159 3500 
L 1159 2969 
Q 1341 3281 1617 3432 
Q 1894 3584 2278 3584 
Q 2916 3584 3314 3078 
Q 3713 2572 3713 1747 
Q 3713 922 3314 415 
Q 2916 -91 2278 -91 
Q 1894 -91 1617 61 
Q 1341 213 1159 525 
z
M 3116 1747 
Q 3116 2381 2855 2742 
Q 2594 3103 2138 3103 
Q 1681 3103 1420 2742 
Q 1159 2381 1159 1747 
Q 1159 1113 1420 752 
Q 1681 391 2138 391 
Q 2594 391 2855 752 
Q 3116 1113 3116 1747 
z
" transform="scale(0.015625)"/>
       <path id="DejaVuSans-Oblique-6f" d="M 1625 -91 
Q 1009 -91 651 289 
Q 294 669 294 1325 
Q 294 1706 417 2101 
Q 541 2497 738 2766 
Q 1047 3184 1428 3384 
Q 1809 3584 2291 3584 
Q 2888 3584 3255 3212 
Q 3622 2841 3622 2241 
Q 3622 1825 3500 1412 
Q 3378 1000 3181 728 
Q 2875 309 2494 109 
Q 2113 -91 1625 -91 
z
M 891 1344 
Q 891 869 1089 633 
Q 1288 397 1691 397 
Q 2269 397 2648 901 
Q 3028 1406 3028 2181 
Q 3028 2634 2825 2865 
Q 2622 3097 2228 3097 
Q 1903 3097 1650 2945 
Q 1397 2794 1197 2484 
Q 1050 2253 970 1956 
Q 891 1659 891 1344 
z
" transform="scale(0.015625)"/>
       <path id="DejaVuSans-43" d="M 4122 4306 
L 4122 3641 
Q 3803 3938 3442 4084 
Q 3081 4231 2675 4231 
Q 1875 4231 1450 3742 
Q 1025 3253 1025 2328 
Q 1025 1406 1450 917 
Q 1875 428 2675 428 
Q 3081 428 3442 575 
Q 3803 722 4122 1019 
L 4122 359 
Q 3791 134 3420 21 
Q 3050 -91 2638 -91 
Q 1578 -91 968 557 
Q 359 1206 359 2328 
Q 359 3453 968 4101 
Q 1578 4750 2638 4750 
Q 3056 4750 3426 4639 
Q 3797 4528 4122 4306 
z
" transform="scale(0.015625)"/>
      </defs>
      <use xlink:href="#DejaVuSans-62" transform="translate(0 0.51875)"/>
      <use xlink:href="#DejaVuSans-70" transform="translate(63.476562 0.51875)"/>
      <use xlink:href="#DejaVuSans-2c" transform="translate(126.953125 0.51875)"/>
      <use xlink:href="#DejaVuSans-20" transform="translate(158.740234 0.51875)"/>
      <use xlink:href="#DejaVuSans-Oblique-6f" transform="translate(191.484375 38.8) scale(0.7)"/>
      <use xlink:href="#DejaVuSans-43" transform="translate(237.045898 0.51875)"/>
     </g>
    </g>
   </g>
   <g id="line2d_14">
    <path d="M 63.420227 230.042596 
L 66.699566 228.138249 
L 69.978905 226.233901 
L 73.258244 224.329554 
L 76.537583 222.425207 
L 79.816921 220.52086 
L 83.09626 218.616513 
L 86.375599 216.712166 
L 89.654938 214.807819 
L 92.934277 212.903472 
L 96.213616 210.999125 
L 99.492955 209.094778 
L 102.772293 207.19043 
L 106.051632 205.286083 
L 109.330971 203.381736 
L 112.61031 201.477389 
L 115.889649 199.573042 
L 119.168988 197.668695 
L 122.448326 195.764348 
L 125.727665 193.860001 
L 129.007004 191.955654 
L 132.286343 190.051307 
L 135.565682 188.146959 
L 138.845021 186.242612 
L 142.12436 184.338265 
L 145.403698 182.433918 
L 148.683037 180.529571 
L 151.962376 178.625224 
L 155.241715 176.720877 
L 158.521054 174.81653 
L 161.800393 172.912183 
L 165.079731 171.007836 
L 168.35907 169.103489 
L 171.638409 167.199141 
L 174.917748 165.294794 
L 178.197087 163.390447 
L 181.476426 161.4861 
L 184.755764 159.581753 
L 188.035103 157.677406 
L 191.314442 155.773059 
L 194.593781 153.868712 
L 197.87312 151.964365 
L 201.152459 150.060018 
L 204.431798 148.15567 
L 207.711136 146.251323 
L 210.990475 144.346976 
L 214.269814 142.442629 
L 217.549153 140.538282 
L 220.828492 138.633935 
L 224.107831 136.729588 
L 227.387169 134.825241 
L 230.666508 132.920894 
L 233.945847 131.016547 
L 237.225186 129.112199 
L 240.504525 127.207852 
L 243.783864 125.303505 
L 247.063202 123.399158 
L 250.342541 121.494811 
L 253.62188 119.590464 
L 256.901219 117.686117 
L 260.180558 115.78177 
L 263.459897 113.877423 
L 266.739236 111.973076 
L 270.018574 110.068728 
L 273.297913 108.164381 
L 276.577252 106.260034 
L 279.856591 104.355687 
L 283.13593 102.45134 
L 286.415269 100.546993 
L 289.694607 98.642646 
L 292.973946 96.738299 
L 296.253285 94.833952 
L 299.532624 92.929605 
L 302.811963 91.025257 
L 306.091302 89.12091 
L 309.37064 87.216563 
L 312.649979 85.312216 
L 315.929318 83.407869 
L 319.208657 81.503522 
L 322.487996 79.599175 
L 325.767335 77.694828 
L 329.046674 75.790481 
L 332.326012 73.886134 
L 335.605351 71.981786 
L 338.88469 70.077439 
L 342.164029 68.173092 
L 345.443368 66.268745 
L 348.722707 64.364398 
L 352.002045 62.460051 
L 355.281384 60.555704 
L 358.560723 58.651357 
L 361.840062 56.74701 
L 365.119401 54.842663 
L 368.39874 52.938315 
L 371.678079 51.033968 
L 374.957417 49.129621 
L 378.236756 47.225274 
L 381.516095 45.320927 
L 384.795434 43.41658 
L 388.074773 41.512233 
" clip-path="url(#pd35344d9b8)" style="fill: none; stroke: #1f77b4; stroke-width: 2.25; stroke-linecap: square"/>
   </g>
   <g id="patch_3">
    <path d="M 47.1875 273.312 
L 47.1875 7.2 
" style="fill: none; stroke: #000000; stroke-width: 0.8; stroke-linejoin: miter; stroke-linecap: square"/>
   </g>
   <g id="patch_4">
    <path d="M 404.3075 273.312 
L 404.3075 7.2 
" style="fill: none; stroke: #000000; stroke-width: 0.8; stroke-linejoin: miter; stroke-linecap: square"/>
   </g>
   <g id="patch_5">
    <path d="M 47.1875 273.312 
L 404.3075 273.312 
" style="fill: none; stroke: #000000; stroke-width: 0.8; stroke-linejoin: miter; stroke-linecap: square"/>
   </g>
   <g id="patch_6">
    <path d="M 47.1875 7.2 
L 404.3075 7.2 
" style="fill: none; stroke: #000000; stroke-width: 0.8; stroke-linejoin: miter; stroke-linecap: square"/>
   </g>
  </g>
 </g>
 <defs>
  <clipPath id="pd35344d9b8">
   <rect x="47.1875" y="7.2" width="357.12" height="266.112"/>
  </clipPath>
 </defs>
</svg>