<?xml version="1.0" encoding="utf-8" standalone="no"?>
<!DOCTYPE svg PUBLIC "-//W3C//DTD SVG 1.1//EN"
  "http://www.w3.org/Graphics/SVG/1.1/DTD/svg11.dtd">
<svg xmlns:xlink="http://www.w3.org/1999/xlink" width="532.7175pt" height="351.99625pt" viewBox="0 0 532.7175 351.99625" xmlns="http://www.w3.org/2000/svg" version="1.1">
 <metadata>
  <rdf:RDF xmlns:dc="http://purl.org/dc/elements/1.1/" xmlns:cc="http://creativecommons.org/ns#" xmlns:rdf="http://www.w3.org/1999/02/22-rdf-syntax-ns#">
   <cc:Work>
    <dc:type rdf:resource="http://purl.org/dc/dcmitype/StillImage"/>
    <dc:date>2024-08-03T07:05:34.399443</dc:date>
    <dc:format>image/svg+xml</dc:format>
    <dc:creator>
     <cc:Agent>
      <dc:title>Matplotlib v3.9.1, https://matplotlib.org/</dc:title>
     </cc:Agent>
    </dc:creator>
   </cc:Work>
  </rdf:RDF>
 </metadata>
 <defs>
  <style type="text/css">*{stroke-linejoin: round; stroke-linecap: butt}</style>
 </defs>
 <g id="figure_1">
  <g id="patch_1">
   <path d="M 0 351.99625 
L 532.7175 351.99625 
L 532.7175 0 
L 0 0 
z
" style="fill: #ffffff"/>
  </g>
  <g id="axes_1">
   <g id="patch_2">
    <path d="M 47.1875 314.44 
L 525.5175 314.44 
L 525.5175 7.2 
L 47.1875 7.2 
z
" style="fill: #ffffff"/>
   </g>
   <g id="PathCollection_1">
    <defs>
     <path id="m56576dcbc6" d="M 0 3 
C 0.795609 3 1.55874 2.683901 2.12132 2.12132 
C 2.683901 1.55874 3 0.795609 3 0 
C 3 -0.795609 2.683901 -1.55874 2.12132 -2.12132 
C 1.55874 -2.683901 0.795609 -3 0 -3 
C -0.795609 -3 -1.55874 -2.683901 -2.12132 -2.12132 
C -2.683901 -1.55874 -3 -0.795609 -3 0 
C -3 0.795609 -2.683901 1.55874 -2.12132 2.12132 
C -1.55874 2.683901 -0.795609 3 0 3 
z
" style="stroke: #1f77b4; stroke-opacity: 0.8"/>
    </defs>
    <g clip-path="url(#pe7d41c06c8)">
     <use xlink:href="#m56576dcbc6" x="68.929773" y="254.272728" style="fill: #1f77b4; fill-opacity: 0.8; stroke: #1f77b4; stroke-opacity: 0.8"/>
     <use xlink:href="#m56576dcbc6" x="113.043162" y="238.039656" style="fill: #1f77b4; fill-opacity: 0.8; stroke: #1f77b4; stroke-opacity: 0.8"/>
     <use xlink:href="#m56576dcbc6" x="157.156551" y="213.065701" style="fill: #1f77b4; fill-opacity: 0.8; stroke: #1f77b4; stroke-opacity: 0.8"/>
     <use xlink:href="#m56576dcbc6" x="201.238498" y="188.091745" style="fill: #1f77b4; fill-opacity: 0.8; stroke: #1f77b4; stroke-opacity: 0.8"/>
     <use xlink:href="#m56576dcbc6" x="245.351887" y="161.869092" style="fill: #1f77b4; fill-opacity: 0.8; stroke: #1f77b4; stroke-opacity: 0.8"/>
     <use xlink:href="#m56576dcbc6" x="289.465277" y="139.392532" style="fill: #1f77b4; fill-opacity: 0.8; stroke: #1f77b4; stroke-opacity: 0.8"/>
     <use xlink:href="#m56576dcbc6" x="333.547224" y="115.667274" style="fill: #1f77b4; fill-opacity: 0.8; stroke: #1f77b4; stroke-opacity: 0.8"/>
     <use xlink:href="#m56576dcbc6" x="377.660613" y="91.942016" style="fill: #1f77b4; fill-opacity: 0.8; stroke: #1f77b4; stroke-opacity: 0.8"/>
     <use xlink:href="#m56576dcbc6" x="421.74256" y="70.714154" style="fill: #1f77b4; fill-opacity: 0.8; stroke: #1f77b4; stroke-opacity: 0.8"/>
     <use xlink:href="#m56576dcbc6" x="465.855949" y="45.740198" style="fill: #1f77b4; fill-opacity: 0.8; stroke: #1f77b4; stroke-opacity: 0.8"/>
     <use xlink:href="#m56576dcbc6" x="201.238498" y="200.578723" style="fill: #1f77b4; fill-opacity: 0.8; stroke: #1f77b4; stroke-opacity: 0.8"/>
     <use xlink:href="#m56576dcbc6" x="201.238498" y="231.796167" style="fill: #1f77b4; fill-opacity: 0.8; stroke: #1f77b4; stroke-opacity: 0.8"/>
     <use xlink:href="#m56576dcbc6" x="245.351887" y="171.858674" style="fill: #1f77b4; fill-opacity: 0.8; stroke: #1f77b4; stroke-opacity: 0.8"/>
     <use xlink:href="#m56576dcbc6" x="289.465277" y="166.863883" style="fill: #1f77b4; fill-opacity: 0.8; stroke: #1f77b4; stroke-opacity: 0.8"/>
     <use xlink:href="#m56576dcbc6" x="333.547224" y="160.620394" style="fill: #1f77b4; fill-opacity: 0.8; stroke: #1f77b4; stroke-opacity: 0.8"/>
     <use xlink:href="#m56576dcbc6" x="264.091431" y="108.175087" style="fill: #1f77b4; fill-opacity: 0.8; stroke: #1f77b4; stroke-opacity: 0.8"/>
     <use xlink:href="#m56576dcbc6" x="308.20482" y="83.201131" style="fill: #1f77b4; fill-opacity: 0.8; stroke: #1f77b4; stroke-opacity: 0.8"/>
     <use xlink:href="#m56576dcbc6" x="396.400157" y="60.724571" style="fill: #1f77b4; fill-opacity: 0.8; stroke: #1f77b4; stroke-opacity: 0.8"/>
    </g>
   </g>
   <g id="PolyCollection_1">
    <path d="M 68.929773 250.671414 
L 68.929773 286.31608 
L 72.939128 283.788434 
L 76.948483 281.22 
L 80.957839 278.651565 
L 84.967194 276.081427 
L 88.976549 273.583864 
L 92.985905 271.163591 
L 96.99526 268.58076 
L 101.004615 266.113986 
L 105.013971 263.649537 
L 109.023326 261.185087 
L 113.032681 258.720637 
L 117.042037 256.254814 
L 121.051392 253.859994 
L 125.060747 251.472348 
L 129.070102 248.919921 
L 133.079458 246.383901 
L 137.088813 243.890308 
L 141.098168 241.256166 
L 145.107524 238.485532 
L 149.116879 235.713432 
L 153.126234 233.035677 
L 157.13559 230.501516 
L 161.144945 228.00107 
L 165.1543 225.486955 
L 169.163656 222.956005 
L 173.173011 220.342304 
L 177.182366 217.858211 
L 181.191722 215.374119 
L 185.201077 212.870643 
L 189.210432 210.44076 
L 193.219788 208.066914 
L 197.229143 205.687333 
L 201.238498 203.159523 
L 205.247853 200.613925 
L 209.257209 198.257255 
L 213.266564 196.017843 
L 217.275919 193.717506 
L 221.285275 191.312795 
L 225.29463 189.028607 
L 229.303985 186.505232 
L 233.313341 184.023733 
L 237.322696 181.478212 
L 241.332051 179.030838 
L 245.341407 176.822829 
L 249.350762 174.795304 
L 253.360117 172.441029 
L 257.369473 170.173391 
L 261.378828 168.097307 
L 265.388183 165.772459 
L 269.397539 163.393694 
L 273.406894 160.874365 
L 277.416249 158.53577 
L 281.425604 156.369758 
L 285.43496 154.26013 
L 289.444315 151.769669 
L 293.45367 149.547095 
L 297.463026 147.237738 
L 301.472381 145.000942 
L 305.481736 142.850583 
L 309.491092 140.68995 
L 313.500447 138.430142 
L 317.509802 136.273454 
L 321.519158 134.22601 
L 325.528513 132.013292 
L 329.537868 129.908197 
L 333.547224 127.70215 
L 337.556579 125.697313 
L 341.565934 123.650896 
L 345.57529 121.563248 
L 349.584645 119.541624 
L 353.594 117.621342 
L 357.603355 115.524213 
L 361.612711 113.483164 
L 365.622066 111.538204 
L 369.631421 109.59253 
L 373.640777 107.599495 
L 377.650132 105.55206 
L 381.659487 103.480325 
L 385.668843 101.333341 
L 389.678198 99.200065 
L 393.687553 97.226719 
L 397.696909 95.260479 
L 401.706264 93.23078 
L 405.715619 91.215319 
L 409.724975 89.19272 
L 413.73433 87.190199 
L 417.743685 85.187678 
L 421.753041 83.172957 
L 425.762396 81.117927 
L 429.771751 79.062623 
L 433.781106 77.006823 
L 437.790462 74.950991 
L 441.799817 72.896713 
L 445.809172 70.841409 
L 449.818528 68.786106 
L 453.827883 66.730802 
L 457.837238 64.675499 
L 461.846594 62.620195 
L 465.855949 60.63725 
L 465.855949 21.165455 
L 465.855949 21.165455 
L 461.846594 23.679704 
L 457.837238 26.177003 
L 453.827883 28.674302 
L 449.818528 31.171601 
L 445.809172 33.721863 
L 441.799817 36.385143 
L 437.790462 38.883574 
L 433.781106 41.27666 
L 429.771751 43.669745 
L 425.762396 46.131248 
L 421.753041 48.771719 
L 417.743685 51.281378 
L 413.73433 53.948344 
L 409.724975 56.434672 
L 405.715619 58.746058 
L 401.706264 61.088545 
L 397.696909 63.808293 
L 393.687553 66.385926 
L 389.678198 68.775249 
L 385.668843 71.323792 
L 381.659487 73.62879 
L 377.650132 76.045933 
L 373.640777 78.56013 
L 369.631421 80.921457 
L 365.622066 83.231644 
L 361.612711 85.673427 
L 357.603355 88.254628 
L 353.594 90.835829 
L 349.584645 92.910807 
L 345.57529 94.949083 
L 341.565934 97.113658 
L 337.556579 99.473857 
L 333.547224 101.834055 
L 329.537868 104.196866 
L 325.528513 106.674264 
L 321.519158 108.921095 
L 317.509802 111.308286 
L 313.500447 113.708314 
L 309.491092 116.166474 
L 305.481736 118.699946 
L 301.472381 121.233417 
L 297.463026 123.697158 
L 293.45367 126.011919 
L 289.444315 128.32668 
L 285.43496 130.64144 
L 281.425604 132.956201 
L 277.416249 135.269129 
L 273.406894 137.628553 
L 269.397539 139.891404 
L 265.388183 142.201741 
L 261.378828 144.515747 
L 257.369473 146.831136 
L 253.360117 149.205157 
L 249.350762 151.504887 
L 245.341407 153.827003 
L 241.332051 156.160791 
L 237.322696 158.510179 
L 233.313341 160.805754 
L 229.303985 163.132201 
L 225.29463 165.419169 
L 221.285275 167.644466 
L 217.275919 169.869379 
L 213.266564 172.109064 
L 209.257209 174.527604 
L 205.247853 176.794163 
L 201.238498 178.993169 
L 197.229143 181.271709 
L 193.219788 183.388825 
L 189.210432 185.585059 
L 185.201077 187.780605 
L 181.191722 189.977893 
L 177.182366 192.205813 
L 173.173011 194.453602 
L 169.163656 196.670002 
L 165.1543 198.778839 
L 161.144945 201.066255 
L 157.13559 203.374531 
L 153.126234 205.619916 
L 149.116879 207.910535 
L 145.107524 210.072501 
L 141.098168 212.232361 
L 137.088813 214.394139 
L 133.079458 216.569196 
L 129.070102 218.745728 
L 125.060747 220.945375 
L 121.051392 223.069583 
L 117.042037 225.201126 
L 113.032681 227.316809 
L 109.023326 229.509507 
L 105.013971 231.681845 
L 101.004615 233.842084 
L 96.99526 236.002324 
L 92.985905 238.162563 
L 88.976549 240.322803 
L 84.967194 242.483043 
L 80.957839 244.643282 
L 76.948483 246.683743 
L 72.939128 248.653058 
L 68.929773 250.671414 
z
" clip-path="url(#pe7d41c06c8)" style="fill: #1f77b4; fill-opacity: 0.15"/>
   </g>
   <g id="PathCollection_2">
    <defs>
     <path id="mdcfdb12d9a" d="M 0 -3 
L -3 3 
L 3 3 
z
" style="stroke: #ff7f0e; stroke-opacity: 0.8"/>
    </defs>
    <g clip-path="url(#pe7d41c06c8)">
     <use xlink:href="#mdcfdb12d9a" x="195.044387" y="290.484963" style="fill: #ff7f0e; fill-opacity: 0.8; stroke: #ff7f0e; stroke-opacity: 0.8"/>
     <use xlink:href="#mdcfdb12d9a" x="239.157776" y="249.277936" style="fill: #ff7f0e; fill-opacity: 0.8; stroke: #ff7f0e; stroke-opacity: 0.8"/>
     <use xlink:href="#mdcfdb12d9a" x="283.271166" y="213.065701" style="fill: #ff7f0e; fill-opacity: 0.8; stroke: #ff7f0e; stroke-opacity: 0.8"/>
     <use xlink:href="#mdcfdb12d9a" x="327.353113" y="178.102163" style="fill: #ff7f0e; fill-opacity: 0.8; stroke: #ff7f0e; stroke-opacity: 0.8"/>
     <use xlink:href="#mdcfdb12d9a" x="371.466502" y="146.884718" style="fill: #ff7f0e; fill-opacity: 0.8; stroke: #ff7f0e; stroke-opacity: 0.8"/>
     <use xlink:href="#mdcfdb12d9a" x="415.579891" y="118.164669" style="fill: #ff7f0e; fill-opacity: 0.8; stroke: #ff7f0e; stroke-opacity: 0.8"/>
     <use xlink:href="#mdcfdb12d9a" x="459.661838" y="90.693318" style="fill: #ff7f0e; fill-opacity: 0.8; stroke: #ff7f0e; stroke-opacity: 0.8"/>
     <use xlink:href="#mdcfdb12d9a" x="503.775227" y="65.719362" style="fill: #ff7f0e; fill-opacity: 0.8; stroke: #ff7f0e; stroke-opacity: 0.8"/>
     <use xlink:href="#mdcfdb12d9a" x="239.157776" y="256.770123" style="fill: #ff7f0e; fill-opacity: 0.8; stroke: #ff7f0e; stroke-opacity: 0.8"/>
     <use xlink:href="#mdcfdb12d9a" x="327.353113" y="189.340443" style="fill: #ff7f0e; fill-opacity: 0.8; stroke: #ff7f0e; stroke-opacity: 0.8"/>
     <use xlink:href="#mdcfdb12d9a" x="195.044387" y="300.474545" style="fill: #ff7f0e; fill-opacity: 0.8; stroke: #ff7f0e; stroke-opacity: 0.8"/>
     <use xlink:href="#mdcfdb12d9a" x="283.271166" y="235.542261" style="fill: #ff7f0e; fill-opacity: 0.8; stroke: #ff7f0e; stroke-opacity: 0.8"/>
    </g>
   </g>
   <g id="PolyCollection_2">
    <path d="M 195.044387 280.318029 
L 195.044387 296.415089 
L 198.162881 293.907454 
L 201.281374 291.378805 
L 204.399867 288.898916 
L 207.518361 286.323521 
L 210.636854 283.802954 
L 213.755347 281.380902 
L 216.873841 278.958561 
L 219.992334 276.538005 
L 223.110827 274.093139 
L 226.229321 271.650713 
L 229.347814 269.235817 
L 232.466307 266.848866 
L 235.584801 264.431377 
L 238.703294 261.926476 
L 241.821787 259.433858 
L 244.940281 256.907434 
L 248.058774 254.41603 
L 251.177267 251.969441 
L 254.295761 249.51228 
L 257.414254 247.096666 
L 260.532747 244.683666 
L 263.651241 242.253437 
L 266.769734 239.815174 
L 269.888227 237.393885 
L 273.006721 235.010991 
L 276.125214 232.608797 
L 279.243707 230.221846 
L 282.362201 227.827838 
L 285.480694 225.45753 
L 288.599187 223.075034 
L 291.717681 220.659321 
L 294.836174 218.195777 
L 297.954667 215.793154 
L 301.073161 213.39053 
L 304.191654 210.987907 
L 307.310147 208.585542 
L 310.428641 206.22047 
L 313.547134 203.819395 
L 316.665627 201.43558 
L 319.784121 198.995056 
L 322.902614 196.554884 
L 326.021107 194.163133 
L 329.139601 191.783677 
L 332.258094 189.389166 
L 335.376587 187.030175 
L 338.495081 184.670505 
L 341.613574 182.309113 
L 344.732067 179.952339 
L 347.850561 177.572529 
L 350.969054 175.249321 
L 354.087547 172.915075 
L 357.206041 170.596249 
L 360.324534 168.300568 
L 363.443027 165.943498 
L 366.561521 163.662605 
L 369.680014 161.292175 
L 372.798507 158.969858 
L 375.917001 156.648288 
L 379.035494 154.32891 
L 382.153987 152.009459 
L 385.272481 149.688141 
L 388.390974 147.36459 
L 391.509467 145.014966 
L 394.627961 142.717772 
L 397.746454 140.401202 
L 400.864947 138.081457 
L 403.983441 135.757688 
L 407.101934 133.436801 
L 410.220427 131.125113 
L 413.338921 128.802546 
L 416.457414 126.483041 
L 419.575907 124.152907 
L 422.694401 121.832082 
L 425.812894 119.570719 
L 428.931387 117.271035 
L 432.049881 114.962022 
L 435.168374 112.65552 
L 438.286867 110.356948 
L 441.405361 108.037965 
L 444.523854 105.727588 
L 447.642347 103.45384 
L 450.760841 101.203828 
L 453.879334 98.937906 
L 456.997827 96.641759 
L 460.116321 94.378218 
L 463.234814 92.116536 
L 466.353307 89.790028 
L 469.471801 87.500588 
L 472.590294 85.164072 
L 475.708787 82.899603 
L 478.827281 80.604897 
L 481.945774 78.300306 
L 485.064267 75.987318 
L 488.182761 73.679511 
L 491.301254 71.421567 
L 494.419747 69.166002 
L 497.538241 66.872613 
L 500.656734 64.615355 
L 503.775227 62.390064 
L 503.775227 38.288045 
L 503.775227 38.288045 
L 500.656734 40.871331 
L 497.538241 43.454617 
L 494.419747 46.037902 
L 491.301254 48.625831 
L 488.182761 51.21771 
L 485.064267 53.829353 
L 481.945774 56.440996 
L 478.827281 59.008503 
L 475.708787 61.568909 
L 472.590294 64.156753 
L 469.471801 66.74524 
L 466.353307 69.333727 
L 463.234814 71.922214 
L 460.116321 74.510701 
L 456.997827 77.099188 
L 453.879334 79.687675 
L 450.760841 82.276162 
L 447.642347 84.864649 
L 444.523854 87.4304 
L 441.405361 89.983475 
L 438.286867 92.575199 
L 435.168374 95.158598 
L 432.049881 97.703568 
L 428.931387 100.283134 
L 425.812894 102.80356 
L 422.694401 105.369005 
L 419.575907 107.97772 
L 416.457414 110.586434 
L 413.338921 113.193984 
L 410.220427 115.778062 
L 407.101934 118.362246 
L 403.983441 120.905783 
L 400.864947 123.460886 
L 397.746454 126.083003 
L 394.627961 128.693435 
L 391.509467 131.275183 
L 388.390974 133.85693 
L 385.272481 136.414385 
L 382.153987 138.898018 
L 379.035494 141.383498 
L 375.917001 143.882266 
L 372.798507 146.411068 
L 369.680014 148.876006 
L 366.561521 151.38773 
L 363.443027 153.994736 
L 360.324534 156.513098 
L 357.206041 158.937087 
L 354.087547 161.519848 
L 350.969054 164.118324 
L 347.850561 166.674749 
L 344.732067 169.186018 
L 341.613574 171.665246 
L 338.495081 174.192934 
L 335.376587 176.644471 
L 332.258094 179.096618 
L 329.139601 181.575096 
L 326.021107 184.083975 
L 322.902614 186.592302 
L 319.784121 189.049145 
L 316.665627 191.484288 
L 313.547134 193.994025 
L 310.428641 196.402311 
L 307.310147 198.712137 
L 304.191654 201.147721 
L 301.073161 203.571369 
L 297.954667 205.908638 
L 294.836174 208.262586 
L 291.717681 210.784189 
L 288.599187 213.084586 
L 285.480694 215.46583 
L 282.362201 217.704559 
L 279.243707 219.936576 
L 276.125214 222.168592 
L 273.006721 224.399328 
L 269.888227 226.636733 
L 266.769734 228.870363 
L 263.651241 231.103427 
L 260.532747 233.33649 
L 257.414254 235.569553 
L 254.295761 237.802617 
L 251.177267 240.03568 
L 248.058774 242.268743 
L 244.940281 244.501806 
L 241.821787 246.741713 
L 238.703294 248.973442 
L 235.584801 251.242593 
L 232.466307 253.511744 
L 229.347814 255.745054 
L 226.229321 257.952006 
L 223.110827 260.158957 
L 219.992334 262.366882 
L 216.873841 264.599376 
L 213.755347 266.832439 
L 210.636854 269.065503 
L 207.518361 271.298566 
L 204.399867 273.532222 
L 201.281374 275.796252 
L 198.162881 278.067556 
L 195.044387 280.318029 
z
" clip-path="url(#pe7d41c06c8)" style="fill: #ff7f0e; fill-opacity: 0.15"/>
   </g>
   <g id="matplotlib.axis_1">
    <g id="xtick_1">
     <g id="line2d_1">
      <defs>
       <path id="mba56303da6" d="M 0 0 
L 0 3.5 
" style="stroke: #000000; stroke-width: 0.8"/>
      </defs>
      <g>
       <use xlink:href="#mba56303da6" x="93.957754" y="314.44" style="stroke: #000000; stroke-width: 0.8"/>
      </g>
     </g>
     <g id="text_1">
      <!-- 40 -->
      <g transform="translate(87.595254 329.038437) scale(0.1 -0.1)">
       <defs>
        <path id="DejaVuSans-34" d="M 2419 4116 
L 825 1625 
L 2419 1625 
L 2419 4116 
z
M 2253 4666 
L 3047 4666 
L 3047 1625 
L 3713 1625 
L 3713 1100 
L 3047 1100 
L 3047 0 
L 2419 0 
L 2419 1100 
L 313 1100 
L 313 1709 
L 2253 4666 
z
" transform="scale(0.015625)"/>
        <path id="DejaVuSans-30" d="M 2034 4250 
Q 1547 4250 1301 3770 
Q 1056 3291 1056 2328 
Q 1056 1369 1301 889 
Q 1547 409 2034 409 
Q 2525 409 2770 889 
Q 3016 1369 3016 2328 
Q 3016 3291 2770 3770 
Q 2525 4250 2034 4250 
z
M 2034 4750 
Q 2819 4750 3233 4129 
Q 3647 3509 3647 2328 
Q 3647 1150 3233 529 
Q 2819 -91 2034 -91 
Q 1250 -91 836 529 
Q 422 1150 422 2328 
Q 422 3509 836 4129 
Q 1250 4750 2034 4750 
z
" transform="scale(0.015625)"/>
       </defs>
       <use xlink:href="#DejaVuSans-34"/>
       <use xlink:href="#DejaVuSans-30" x="63.623047"/>
      </g>
     </g>
    </g>
    <g id="xtick_2">
     <g id="line2d_2">
      <g>
       <use xlink:href="#mba56303da6" x="156.842129" y="314.44" style="stroke: #000000; stroke-width: 0.8"/>
      </g>
     </g>
     <g id="text_2">
      <!-- 60 -->
      <g transform="translate(150.479629 329.038437) scale(0.1 -0.1)">
       <defs>
        <path id="DejaVuSans-36" d="M 2113 2584 
Q 1688 2584 1439 2293 
Q 1191 2003 1191 1497 
Q 1191 994 1439 701 
Q 1688 409 2113 409 
Q 2538 409 2786 701 
Q 3034 994 3034 1497 
Q 3034 2003 2786 2293 
Q 2538 2584 2113 2584 
z
M 3366 4563 
L 3366 3988 
Q 3128 4100 2886 4159 
Q 2644 4219 2406 4219 
Q 1781 4219 1451 3797 
Q 1122 3375 1075 2522 
Q 1259 2794 1537 2939 
Q 1816 3084 2150 3084 
Q 2853 3084 3261 2657 
Q 3669 2231 3669 1497 
Q 3669 778 3244 343 
Q 2819 -91 2113 -91 
Q 1303 -91 875 529 
Q 447 1150 447 2328 
Q 447 3434 972 4092 
Q 1497 4750 2381 4750 
Q 2619 4750 2861 4703 
Q 3103 4656 3366 4563 
z
" transform="scale(0.015625)"/>
       </defs>
       <use xlink:href="#DejaVuSans-36"/>
       <use xlink:href="#DejaVuSans-30" x="63.623047"/>
      </g>
     </g>
    </g>
    <g id="xtick_3">
     <g id="line2d_3">
      <g>
       <use xlink:href="#mba56303da6" x="219.726504" y="314.44" style="stroke: #000000; stroke-width: 0.8"/>
      </g>
     </g>
     <g id="text_3">
      <!-- 80 -->
      <g transform="translate(213.364004 329.038437) scale(0.1 -0.1)">
       <defs>
        <path id="DejaVuSans-38" d="M 2034 2216 
Q 1584 2216 1326 1975 
Q 1069 1734 1069 1313 
Q 1069 891 1326 650 
Q 1584 409 2034 409 
Q 2484 409 2743 651 
Q 3003 894 3003 1313 
Q 3003 1734 2745 1975 
Q 2488 2216 2034 2216 
z
M 1403 2484 
Q 997 2584 770 2862 
Q 544 3141 544 3541 
Q 544 4100 942 4425 
Q 1341 4750 2034 4750 
Q 2731 4750 3128 4425 
Q 3525 4100 3525 3541 
Q 3525 3141 3298 2862 
Q 3072 2584 2669 2484 
Q 3125 2378 3379 2068 
Q 3634 1759 3634 1313 
Q 3634 634 3220 271 
Q 2806 -91 2034 -91 
Q 1263 -91 848 271 
Q 434 634 434 1313 
Q 434 1759 690 2068 
Q 947 2378 1403 2484 
z
M 1172 3481 
Q 1172 3119 1398 2916 
Q 1625 2713 2034 2713 
Q 2441 2713 2670 2916 
Q 2900 3119 2900 3481 
Q 2900 3844 2670 4047 
Q 2441 4250 2034 4250 
Q 1625 4250 1398 4047 
Q 1172 3844 1172 3481 
z
" transform="scale(0.015625)"/>
       </defs>
       <use xlink:href="#DejaVuSans-38"/>
       <use xlink:href="#DejaVuSans-30" x="63.623047"/>
      </g>
     </g>
    </g>
    <g id="xtick_4">
     <g id="line2d_4">
      <g>
       <use xlink:href="#mba56303da6" x="282.61088" y="314.44" style="stroke: #000000; stroke-width: 0.8"/>
      </g>
     </g>
     <g id="text_4">
      <!-- 100 -->
      <g transform="translate(273.06713 329.038437) scale(0.1 -0.1)">
       <defs>
        <path id="DejaVuSans-31" d="M 794 531 
L 1825 531 
L 1825 4091 
L 703 3866 
L 703 4441 
L 1819 4666 
L 2450 4666 
L 2450 531 
L 3481 531 
L 3481 0 
L 794 0 
L 794 531 
z
" transform="scale(0.015625)"/>
       </defs>
       <use xlink:href="#DejaVuSans-31"/>
       <use xlink:href="#DejaVuSans-30" x="63.623047"/>
       <use xlink:href="#DejaVuSans-30" x="127.246094"/>
      </g>
     </g>
    </g>
    <g id="xtick_5">
     <g id="line2d_5">
      <g>
       <use xlink:href="#mba56303da6" x="345.495255" y="314.44" style="stroke: #000000; stroke-width: 0.8"/>
      </g>
     </g>
     <g id="text_5">
      <!-- 120 -->
      <g transform="translate(335.951505 329.038437) scale(0.1 -0.1)">
       <defs>
        <path id="DejaVuSans-32" d="M 1228 531 
L 3431 531 
L 3431 0 
L 469 0 
L 469 531 
Q 828 903 1448 1529 
Q 2069 2156 2228 2338 
Q 2531 2678 2651 2914 
Q 2772 3150 2772 3378 
Q 2772 3750 2511 3984 
Q 2250 4219 1831 4219 
Q 1534 4219 1204 4116 
Q 875 4013 500 3803 
L 500 4441 
Q 881 4594 1212 4672 
Q 1544 4750 1819 4750 
Q 2544 4750 2975 4387 
Q 3406 4025 3406 3419 
Q 3406 3131 3298 2873 
Q 3191 2616 2906 2266 
Q 2828 2175 2409 1742 
Q 1991 1309 1228 531 
z
" transform="scale(0.015625)"/>
       </defs>
       <use xlink:href="#DejaVuSans-31"/>
       <use xlink:href="#DejaVuSans-32" x="63.623047"/>
       <use xlink:href="#DejaVuSans-30" x="127.246094"/>
      </g>
     </g>
    </g>
    <g id="xtick_6">
     <g id="line2d_6">
      <g>
       <use xlink:href="#mba56303da6" x="408.37963" y="314.44" style="stroke: #000000; stroke-width: 0.8"/>
      </g>
     </g>
     <g id="text_6">
      <!-- 140 -->
      <g transform="translate(398.83588 329.038437) scale(0.1 -0.1)">
       <use xlink:href="#DejaVuSans-31"/>
       <use xlink:href="#DejaVuSans-34" x="63.623047"/>
       <use xlink:href="#DejaVuSans-30" x="127.246094"/>
      </g>
     </g>
    </g>
    <g id="xtick_7">
     <g id="line2d_7">
      <g>
       <use xlink:href="#mba56303da6" x="471.264005" y="314.44" style="stroke: #000000; stroke-width: 0.8"/>
      </g>
     </g>
     <g id="text_7">
      <!-- 160 -->
      <g transform="translate(461.720255 329.038437) scale(0.1 -0.1)">
       <use xlink:href="#DejaVuSans-31"/>
       <use xlink:href="#DejaVuSans-36" x="63.623047"/>
       <use xlink:href="#DejaVuSans-30" x="127.246094"/>
      </g>
     </g>
    </g>
    <g id="text_8">
     <!-- MW, g/mol -->
     <g transform="translate(259.739219 342.716562) scale(0.1 -0.1)">
      <defs>
       <path id="DejaVuSans-4d" d="M 628 4666 
L 1569 4666 
L 2759 1491 
L 3956 4666 
L 4897 4666 
L 4897 0 
L 4281 0 
L 4281 4097 
L 3078 897 
L 2444 897 
L 1241 4097 
L 1241 0 
L 628 0 
L 628 4666 
z
" transform="scale(0.015625)"/>
       <path id="DejaVuSans-57" d="M 213 4666 
L 850 4666 
L 1831 722 
L 2809 4666 
L 3519 4666 
L 4500 722 
L 5478 4666 
L 6119 4666 
L 4947 0 
L 4153 0 
L 3169 4050 
L 2175 0 
L 1381 0 
L 213 4666 
z
" transform="scale(0.015625)"/>
       <path id="DejaVuSans-2c" d="M 750 794 
L 1409 794 
L 1409 256 
L 897 -744 
L 494 -744 
L 750 256 
L 750 794 
z
" transform="scale(0.015625)"/>
       <path id="DejaVuSans-20" transform="scale(0.015625)"/>
       <path id="DejaVuSans-67" d="M 2906 1791 
Q 2906 2416 2648 2759 
Q 2391 3103 1925 3103 
Q 1463 3103 1205 2759 
Q 947 2416 947 1791 
Q 947 1169 1205 825 
Q 1463 481 1925 481 
Q 2391 481 2648 825 
Q 2906 1169 2906 1791 
z
M 3481 434 
Q 3481 -459 3084 -895 
Q 2688 -1331 1869 -1331 
Q 1566 -1331 1297 -1286 
Q 1028 -1241 775 -1147 
L 775 -588 
Q 1028 -725 1275 -790 
Q 1522 -856 1778 -856 
Q 2344 -856 2625 -561 
Q 2906 -266 2906 331 
L 2906 616 
Q 2728 306 2450 153 
Q 2172 0 1784 0 
Q 1141 0 747 490 
Q 353 981 353 1791 
Q 353 2603 747 3093 
Q 1141 3584 1784 3584 
Q 2172 3584 2450 3431 
Q 2728 3278 2906 2969 
L 2906 3500 
L 3481 3500 
L 3481 434 
z
" transform="scale(0.015625)"/>
       <path id="DejaVuSans-2f" d="M 1625 4666 
L 2156 4666 
L 531 -594 
L 0 -594 
L 1625 4666 
z
" transform="scale(0.015625)"/>
       <path id="DejaVuSans-6d" d="M 3328 2828 
Q 3544 3216 3844 3400 
Q 4144 3584 4550 3584 
Q 5097 3584 5394 3201 
Q 5691 2819 5691 2113 
L 5691 0 
L 5113 0 
L 5113 2094 
Q 5113 2597 4934 2840 
Q 4756 3084 4391 3084 
Q 3944 3084 3684 2787 
Q 3425 2491 3425 1978 
L 3425 0 
L 2847 0 
L 2847 2094 
Q 2847 2600 2669 2842 
Q 2491 3084 2119 3084 
Q 1678 3084 1418 2786 
Q 1159 2488 1159 1978 
L 1159 0 
L 581 0 
L 581 3500 
L 1159 3500 
L 1159 2956 
Q 1356 3278 1631 3431 
Q 1906 3584 2284 3584 
Q 2666 3584 2933 3390 
Q 3200 3197 3328 2828 
z
" transform="scale(0.015625)"/>
       <path id="DejaVuSans-6f" d="M 1959 3097 
Q 1497 3097 1228 2736 
Q 959 2375 959 1747 
Q 959 1119 1226 758 
Q 1494 397 1959 397 
Q 2419 397 2687 759 
Q 2956 1122 2956 1747 
Q 2956 2369 2687 2733 
Q 2419 3097 1959 3097 
z
M 1959 3584 
Q 2709 3584 3137 3096 
Q 3566 2609 3566 1747 
Q 3566 888 3137 398 
Q 2709 -91 1959 -91 
Q 1206 -91 779 398 
Q 353 888 353 1747 
Q 353 2609 779 3096 
Q 1206 3584 1959 3584 
z
" transform="scale(0.015625)"/>
       <path id="DejaVuSans-6c" d="M 603 4863 
L 1178 4863 
L 1178 0 
L 603 0 
L 603 4863 
z
" transform="scale(0.015625)"/>
      </defs>
      <use xlink:href="#DejaVuSans-4d"/>
      <use xlink:href="#DejaVuSans-57" x="86.279297"/>
      <use xlink:href="#DejaVuSans-2c" x="185.15625"/>
      <use xlink:href="#DejaVuSans-20" x="216.943359"/>
      <use xlink:href="#DejaVuSans-67" x="248.730469"/>
      <use xlink:href="#DejaVuSans-2f" x="312.207031"/>
      <use xlink:href="#DejaVuSans-6d" x="345.898438"/>
      <use xlink:href="#DejaVuSans-6f" x="443.310547"/>
      <use xlink:href="#DejaVuSans-6c" x="504.492188"/>
     </g>
    </g>
   </g>
   <g id="matplotlib.axis_2">
    <g id="ytick_1">
     <g id="line2d_8">
      <defs>
       <path id="m144e4a636e" d="M 0 0 
L -3.5 0 
" style="stroke: #000000; stroke-width: 0.8"/>
      </defs>
      <g>
       <use xlink:href="#m144e4a636e" x="47.1875" y="273.003194" style="stroke: #000000; stroke-width: 0.8"/>
      </g>
     </g>
     <g id="text_9">
      <!-- 50 -->
      <g transform="translate(27.4625 276.802413) scale(0.1 -0.1)">
       <defs>
        <path id="DejaVuSans-35" d="M 691 4666 
L 3169 4666 
L 3169 4134 
L 1269 4134 
L 1269 2991 
Q 1406 3038 1543 3061 
Q 1681 3084 1819 3084 
Q 2600 3084 3056 2656 
Q 3513 2228 3513 1497 
Q 3513 744 3044 326 
Q 2575 -91 1722 -91 
Q 1428 -91 1123 -41 
Q 819 9 494 109 
L 494 744 
Q 775 591 1075 516 
Q 1375 441 1709 441 
Q 2250 441 2565 725 
Q 2881 1009 2881 1497 
Q 2881 1984 2565 2268 
Q 2250 2553 1709 2553 
Q 1456 2553 1204 2497 
Q 953 2441 691 2322 
L 691 4666 
z
" transform="scale(0.015625)"/>
       </defs>
       <use xlink:href="#DejaVuSans-35"/>
       <use xlink:href="#DejaVuSans-30" x="63.623047"/>
      </g>
     </g>
    </g>
    <g id="ytick_2">
     <g id="line2d_9">
      <g>
       <use xlink:href="#m144e4a636e" x="47.1875" y="210.568305" style="stroke: #000000; stroke-width: 0.8"/>
      </g>
     </g>
     <g id="text_10">
      <!-- 100 -->
      <g transform="translate(21.1 214.367524) scale(0.1 -0.1)">
       <use xlink:href="#DejaVuSans-31"/>
       <use xlink:href="#DejaVuSans-30" x="63.623047"/>
       <use xlink:href="#DejaVuSans-30" x="127.246094"/>
      </g>
     </g>
    </g>
    <g id="ytick_3">
     <g id="line2d_10">
      <g>
       <use xlink:href="#m144e4a636e" x="47.1875" y="148.133416" style="stroke: #000000; stroke-width: 0.8"/>
      </g>
     </g>
     <g id="text_11">
      <!-- 150 -->
      <g transform="translate(21.1 151.932635) scale(0.1 -0.1)">
       <use xlink:href="#DejaVuSans-31"/>
       <use xlink:href="#DejaVuSans-35" x="63.623047"/>
       <use xlink:href="#DejaVuSans-30" x="127.246094"/>
      </g>
     </g>
    </g>
    <g id="ytick_4">
     <g id="line2d_11">
      <g>
       <use xlink:href="#m144e4a636e" x="47.1875" y="85.698527" style="stroke: #000000; stroke-width: 0.8"/>
      </g>
     </g>
     <g id="text_12">
      <!-- 200 -->
      <g transform="translate(21.1 89.497746) scale(0.1 -0.1)">
       <use xlink:href="#DejaVuSans-32"/>
       <use xlink:href="#DejaVuSans-30" x="63.623047"/>
       <use xlink:href="#DejaVuSans-30" x="127.246094"/>
      </g>
     </g>
    </g>
    <g id="ytick_5">
     <g id="line2d_12">
      <g>
       <use xlink:href="#m144e4a636e" x="47.1875" y="23.263638" style="stroke: #000000; stroke-width: 0.8"/>
      </g>
     </g>
     <g id="text_13">
      <!-- 250 -->
      <g transform="translate(21.1 27.062857) scale(0.1 -0.1)">
       <use xlink:href="#DejaVuSans-32"/>
       <use xlink:href="#DejaVuSans-35" x="63.623047"/>
       <use xlink:href="#DejaVuSans-30" x="127.246094"/>
      </g>
     </g>
    </g>
    <g id="text_14">
     <!-- bp, $^o$C -->
     <g transform="translate(15 176.17) rotate(-90) scale(0.1 -0.1)">
      <defs>
       <path id="DejaVuSans-62" d="M 3116 1747 
Q 3116 2381 2855 2742 
Q 2594 3103 2138 3103 
Q 1681 3103 1420 2742 
Q 1159 2381 1159 1747 
Q 1159 1113 1420 752 
Q 1681 391 2138 391 
Q 2594 391 2855 752 
Q 3116 1113 3116 1747 
z
M 1159 2969 
Q 1341 3281 1617 3432 
Q 1894 3584 2278 3584 
Q 2916 3584 3314 3078 
Q 3713 2572 3713 1747 
Q 3713 922 3314 415 
Q 2916 -91 2278 -91 
Q 1894 -91 1617 61 
Q 1341 213 1159 525 
L 1159 0 
L 581 0 
L 581 4863 
L 1159 4863 
L 1159 2969 
z
" transform="scale(0.015625)"/>
       <path id="DejaVuSans-70" d="M 1159 525 
L 1159 -1331 
L 581 -1331 
L 581 3500 
L 1159 3500 
L 1159 2969 
Q 1341 3281 1617 3432 
Q 1894 3584 2278 3584 
Q 2916 3584 3314 3078 
Q 3713 2572 3713 1747 
Q 3713 922 3314 415 
Q 2916 -91 2278 -91 
Q 1894 -91 1617 61 
Q 1341 213 1159 525 
z
M 3116 1747 
Q 3116 2381 2855 2742 
Q 2594 3103 2138 3103 
Q 1681 3103 1420 2742 
Q 1159 2381 1159 1747 
Q 1159 1113 1420 752 
Q 1681 391 2138 391 
Q 2594 391 2855 752 
Q 3116 1113 3116 1747 
z
" transform="scale(0.015625)"/>
       <path id="DejaVuSans-Oblique-6f" d="M 1625 -91 
Q 1009 -91 651 289 
Q 294 669 294 1325 
Q 294 1706 417 2101 
Q 541 2497 738 2766 
Q 1047 3184 1428 3384 
Q 1809 3584 2291 3584 
Q 2888 3584 3255 3212 
Q 3622 2841 3622 2241 
Q 3622 1825 3500 1412 
Q 3378 1000 3181 728 
Q 2875 309 2494 109 
Q 2113 -91 1625 -91 
z
M 891 1344 
Q 891 869 1089 633 
Q 1288 397 1691 397 
Q 2269 397 2648 901 
Q 3028 1406 3028 2181 
Q 3028 2634 2825 2865 
Q 2622 3097 2228 3097 
Q 1903 3097 1650 2945 
Q 1397 2794 1197 2484 
Q 1050 2253 970 1956 
Q 891 1659 891 1344 
z
" transform="scale(0.015625)"/>
       <path id="DejaVuSans-43" d="M 4122 4306 
L 4122 3641 
Q 3803 3938 3442 4084 
Q 3081 4231 2675 4231 
Q 1875 4231 1450 3742 
Q 1025 3253 1025 2328 
Q 1025 1406 1450 917 
Q 1875 428 2675 428 
Q 3081 428 3442 575 
Q 3803 722 4122 1019 
L 4122 359 
Q 3791 134 3420 21 
Q 3050 -91 2638 -91 
Q 1578 -91 968 557 
Q 359 1206 359 2328 
Q 359 3453 968 4101 
Q 1578 4750 2638 4750 
Q 3056 4750 3426 4639 
Q 3797 4528 4122 4306 
z
" transform="scale(0.015625)"/>
      </defs>
      <use xlink:href="#DejaVuSans-62" transform="translate(0 0.51875)"/>
      <use xlink:href="#DejaVuSans-70" transform="translate(63.476562 0.51875)"/>
      <use xlink:href="#DejaVuSans-2c" transform="translate(126.953125 0.51875)"/>
      <use xlink:href="#DejaVuSans-20" transform="translate(158.740234 0.51875)"/>
      <use xlink:href="#DejaVuSans-Oblique-6f" transform="translate(191.484375 38.8) scale(0.7)"/>
      <use xlink:href="#DejaVuSans-43" transform="translate(237.045898 0.51875)"/>
     </g>
    </g>
   </g>
   <g id="line2d_13">
    <path d="M 68.929773 264.874724 
L 72.939128 262.620351 
L 76.948483 260.365978 
L 80.957839 258.111606 
L 84.967194 255.857233 
L 88.976549 253.60286 
L 92.985905 251.348488 
L 96.99526 249.094115 
L 101.004615 246.839742 
L 105.013971 244.585369 
L 109.023326 242.330997 
L 113.032681 240.076624 
L 117.042037 237.822251 
L 121.051392 235.567879 
L 125.060747 233.313506 
L 129.070102 231.059133 
L 133.079458 228.80476 
L 137.088813 226.550388 
L 141.098168 224.296015 
L 145.107524 222.041642 
L 149.116879 219.78727 
L 153.126234 217.532897 
L 157.13559 215.278524 
L 161.144945 213.024151 
L 165.1543 210.769779 
L 169.163656 208.515406 
L 173.173011 206.261033 
L 177.182366 204.006661 
L 181.191722 201.752288 
L 185.201077 199.497915 
L 189.210432 197.243542 
L 193.219788 194.98917 
L 197.229143 192.734797 
L 201.238498 190.480424 
L 205.247853 188.226052 
L 209.257209 185.971679 
L 213.266564 183.717306 
L 217.275919 181.462933 
L 221.285275 179.208561 
L 225.29463 176.954188 
L 229.303985 174.699815 
L 233.313341 172.445443 
L 237.322696 170.19107 
L 241.332051 167.936697 
L 245.341407 165.682324 
L 249.350762 163.427952 
L 253.360117 161.173579 
L 257.369473 158.919206 
L 261.378828 156.664834 
L 265.388183 154.410461 
L 269.397539 152.156088 
L 273.406894 149.901715 
L 277.416249 147.647343 
L 281.425604 145.39297 
L 285.43496 143.138597 
L 289.444315 140.884225 
L 293.45367 138.629852 
L 297.463026 136.375479 
L 301.472381 134.121106 
L 305.481736 131.866734 
L 309.491092 129.612361 
L 313.500447 127.357988 
L 317.509802 125.103615 
L 321.519158 122.849243 
L 325.528513 120.59487 
L 329.537868 118.340497 
L 333.547224 116.086125 
L 337.556579 113.831752 
L 341.565934 111.577379 
L 345.57529 109.323006 
L 349.584645 107.068634 
L 353.594 104.814261 
L 357.603355 102.559888 
L 361.612711 100.305516 
L 365.622066 98.051143 
L 369.631421 95.79677 
L 373.640777 93.542397 
L 377.650132 91.288025 
L 381.659487 89.033652 
L 385.668843 86.779279 
L 389.678198 84.524907 
L 393.687553 82.270534 
L 397.696909 80.016161 
L 401.706264 77.761788 
L 405.715619 75.507416 
L 409.724975 73.253043 
L 413.73433 70.99867 
L 417.743685 68.744298 
L 421.753041 66.489925 
L 425.762396 64.235552 
L 429.771751 61.981179 
L 433.781106 59.726807 
L 437.790462 57.472434 
L 441.799817 55.218061 
L 445.809172 52.963689 
L 449.818528 50.709316 
L 453.827883 48.454943 
L 457.837238 46.20057 
L 461.846594 43.946198 
L 465.855949 41.691825 
" clip-path="url(#pe7d41c06c8)" style="fill: none; stroke: #1f77b4; stroke-width: 2.25; stroke-linecap: square"/>
   </g>
   <g id="line2d_14">
    <path d="M 195.044387 289.194972 
L 198.162881 286.832984 
L 201.281374 284.470997 
L 204.399867 282.109009 
L 207.518361 279.747021 
L 210.636854 277.385034 
L 213.755347 275.023046 
L 216.873841 272.661058 
L 219.992334 270.299071 
L 223.110827 267.937083 
L 226.229321 265.575095 
L 229.347814 263.213108 
L 232.466307 260.85112 
L 235.584801 258.489132 
L 238.703294 256.127145 
L 241.821787 253.765157 
L 244.940281 251.40317 
L 248.058774 249.041182 
L 251.177267 246.679194 
L 254.295761 244.317207 
L 257.414254 241.955219 
L 260.532747 239.593231 
L 263.651241 237.231244 
L 266.769734 234.869256 
L 269.888227 232.507268 
L 273.006721 230.145281 
L 276.125214 227.783293 
L 279.243707 225.421305 
L 282.362201 223.059318 
L 285.480694 220.69733 
L 288.599187 218.335342 
L 291.717681 215.973355 
L 294.836174 213.611367 
L 297.954667 211.249379 
L 301.073161 208.887392 
L 304.191654 206.525404 
L 307.310147 204.163416 
L 310.428641 201.801429 
L 313.547134 199.439441 
L 316.665627 197.077453 
L 319.784121 194.715466 
L 322.902614 192.353478 
L 326.021107 189.99149 
L 329.139601 187.629503 
L 332.258094 185.267515 
L 335.376587 182.905528 
L 338.495081 180.54354 
L 341.613574 178.181552 
L 344.732067 175.819565 
L 347.850561 173.457577 
L 350.969054 171.095589 
L 354.087547 168.733602 
L 357.206041 166.371614 
L 360.324534 164.009626 
L 363.443027 161.647639 
L 366.561521 159.285651 
L 369.680014 156.923663 
L 372.798507 154.561676 
L 375.917001 152.199688 
L 379.035494 149.8377 
L 382.153987 147.475713 
L 385.272481 145.113725 
L 388.390974 142.751737 
L 391.509467 140.38975 
L 394.627961 138.027762 
L 397.746454 135.665774 
L 400.864947 133.303787 
L 403.983441 130.941799 
L 407.101934 128.579811 
L 410.220427 126.217824 
L 413.338921 123.855836 
L 416.457414 121.493848 
L 419.575907 119.131861 
L 422.694401 116.769873 
L 425.812894 114.407886 
L 428.931387 112.045898 
L 432.049881 109.68391 
L 435.168374 107.321923 
L 438.286867 104.959935 
L 441.405361 102.597947 
L 444.523854 100.23596 
L 447.642347 97.873972 
L 450.760841 95.511984 
L 453.879334 93.149997 
L 456.997827 90.788009 
L 460.116321 88.426021 
L 463.234814 86.064034 
L 466.353307 83.702046 
L 469.471801 81.340058 
L 472.590294 78.978071 
L 475.708787 76.616083 
L 478.827281 74.254095 
L 481.945774 71.892108 
L 485.064267 69.53012 
L 488.182761 67.168132 
L 491.301254 64.806145 
L 494.419747 62.444157 
L 497.538241 60.082169 
L 500.656734 57.720182 
L 503.775227 55.358194 
" clip-path="url(#pe7d41c06c8)" style="fill: none; stroke: #ff7f0e; stroke-width: 2.25; stroke-linecap: square"/>
   </g>
   <g id="patch_3">
    <path d="M 47.1875 314.44 
L 47.1875 7.2 
" style="fill: none; stroke: #000000; stroke-width: 0.8; stroke-linejoin: miter; stroke-linecap: square"/>
   </g>
   <g id="patch_4">
    <path d="M 47.1875 314.44 
L 525.5175 314.44 
" style="fill: none; stroke: #000000; stroke-width: 0.8; stroke-linejoin: miter; stroke-linecap: square"/>
   </g>
   <g id="legend_1">
    <g id="patch_5">
     <path d="M 54.1875 59.234375 
L 121.945312 59.234375 
Q 123.945312 59.234375 123.945312 57.234375 
L 123.945312 14.2 
Q 123.945312 12.2 121.945312 12.2 
L 54.1875 12.2 
Q 52.1875 12.2 52.1875 14.2 
L 52.1875 57.234375 
Q 52.1875 59.234375 54.1875 59.234375 
z
" style="fill: #ffffff; opacity: 0.8; stroke: #cccccc; stroke-linejoin: miter"/>
    </g>
    <g id="text_15">
     <!-- type -->
     <g transform="translate(76.896094 23.798437) scale(0.1 -0.1)">
      <defs>
       <path id="DejaVuSans-74" d="M 1172 4494 
L 1172 3500 
L 2356 3500 
L 2356 3053 
L 1172 3053 
L 1172 1153 
Q 1172 725 1289 603 
Q 1406 481 1766 481 
L 2356 481 
L 2356 0 
L 1766 0 
Q 1100 0 847 248 
Q 594 497 594 1153 
L 594 3053 
L 172 3053 
L 172 3500 
L 594 3500 
L 594 4494 
L 1172 4494 
z
" transform="scale(0.015625)"/>
       <path id="DejaVuSans-79" d="M 2059 -325 
Q 1816 -950 1584 -1140 
Q 1353 -1331 966 -1331 
L 506 -1331 
L 506 -850 
L 844 -850 
Q 1081 -850 1212 -737 
Q 1344 -625 1503 -206 
L 1606 56 
L 191 3500 
L 800 3500 
L 1894 763 
L 2988 3500 
L 3597 3500 
L 2059 -325 
z
" transform="scale(0.015625)"/>
       <path id="DejaVuSans-65" d="M 3597 1894 
L 3597 1613 
L 953 1613 
Q 991 1019 1311 708 
Q 1631 397 2203 397 
Q 2534 397 2845 478 
Q 3156 559 3463 722 
L 3463 178 
Q 3153 47 2828 -22 
Q 2503 -91 2169 -91 
Q 1331 -91 842 396 
Q 353 884 353 1716 
Q 353 2575 817 3079 
Q 1281 3584 2069 3584 
Q 2775 3584 3186 3129 
Q 3597 2675 3597 1894 
z
M 3022 2063 
Q 3016 2534 2758 2815 
Q 2500 3097 2075 3097 
Q 1594 3097 1305 2825 
Q 1016 2553 972 2059 
L 3022 2063 
z
" transform="scale(0.015625)"/>
      </defs>
      <use xlink:href="#DejaVuSans-74"/>
      <use xlink:href="#DejaVuSans-79" x="39.208984"/>
      <use xlink:href="#DejaVuSans-70" x="98.388672"/>
      <use xlink:href="#DejaVuSans-65" x="161.865234"/>
     </g>
    </g>
    <g id="PathCollection_3">
     <g>
      <use xlink:href="#m56576dcbc6" x="66.1875" y="35.851562" style="fill: #1f77b4; fill-opacity: 0.8; stroke: #1f77b4; stroke-opacity: 0.8"/>
     </g>
    </g>
    <g id="text_16">
     <!-- alcohol -->
     <g transform="translate(84.1875 38.476562) scale(0.1 -0.1)">
      <defs>
       <path id="DejaVuSans-61" d="M 2194 1759 
Q 1497 1759 1228 1600 
Q 959 1441 959 1056 
Q 959 750 1161 570 
Q 1363 391 1709 391 
Q 2188 391 2477 730 
Q 2766 1069 2766 1631 
L 2766 1759 
L 2194 1759 
z
M 3341 1997 
L 3341 0 
L 2766 0 
L 2766 531 
Q 2569 213 2275 61 
Q 1981 -91 1556 -91 
Q 1019 -91 701 211 
Q 384 513 384 1019 
Q 384 1609 779 1909 
Q 1175 2209 1959 2209 
L 2766 2209 
L 2766 2266 
Q 2766 2663 2505 2880 
Q 2244 3097 1772 3097 
Q 1472 3097 1187 3025 
Q 903 2953 641 2809 
L 641 3341 
Q 956 3463 1253 3523 
Q 1550 3584 1831 3584 
Q 2591 3584 2966 3190 
Q 3341 2797 3341 1997 
z
" transform="scale(0.015625)"/>
       <path id="DejaVuSans-63" d="M 3122 3366 
L 3122 2828 
Q 2878 2963 2633 3030 
Q 2388 3097 2138 3097 
Q 1578 3097 1268 2742 
Q 959 2388 959 1747 
Q 959 1106 1268 751 
Q 1578 397 2138 397 
Q 2388 397 2633 464 
Q 2878 531 3122 666 
L 3122 134 
Q 2881 22 2623 -34 
Q 2366 -91 2075 -91 
Q 1284 -91 818 406 
Q 353 903 353 1747 
Q 353 2603 823 3093 
Q 1294 3584 2113 3584 
Q 2378 3584 2631 3529 
Q 2884 3475 3122 3366 
z
" transform="scale(0.015625)"/>
       <path id="DejaVuSans-68" d="M 3513 2113 
L 3513 0 
L 2938 0 
L 2938 2094 
Q 2938 2591 2744 2837 
Q 2550 3084 2163 3084 
Q 1697 3084 1428 2787 
Q 1159 2491 1159 1978 
L 1159 0 
L 581 0 
L 581 4863 
L 1159 4863 
L 1159 2956 
Q 1366 3272 1645 3428 
Q 1925 3584 2291 3584 
Q 2894 3584 3203 3211 
Q 3513 2838 3513 2113 
z
" transform="scale(0.015625)"/>
      </defs>
      <use xlink:href="#DejaVuSans-61"/>
      <use xlink:href="#DejaVuSans-6c" x="61.279297"/>
      <use xlink:href="#DejaVuSans-63" x="89.0625"/>
      <use xlink:href="#DejaVuSans-6f" x="144.042969"/>
      <use xlink:href="#DejaVuSans-68" x="205.224609"/>
      <use xlink:href="#DejaVuSans-6f" x="268.603516"/>
      <use xlink:href="#DejaVuSans-6c" x="329.785156"/>
     </g>
    </g>
    <g id="PathCollection_4">
     <g>
      <use xlink:href="#mdcfdb12d9a" x="66.1875" y="50.529688" style="fill: #ff7f0e; fill-opacity: 0.8; stroke: #ff7f0e; stroke-opacity: 0.8"/>
     </g>
    </g>
    <g id="text_17">
     <!-- alkane -->
     <g transform="translate(84.1875 53.154688) scale(0.1 -0.1)">
      <defs>
       <path id="DejaVuSans-6b" d="M 581 4863 
L 1159 4863 
L 1159 1991 
L 2875 3500 
L 3609 3500 
L 1753 1863 
L 3688 0 
L 2938 0 
L 1159 1709 
L 1159 0 
L 581 0 
L 581 4863 
z
" transform="scale(0.015625)"/>
       <path id="DejaVuSans-6e" d="M 3513 2113 
L 3513 0 
L 2938 0 
L 2938 2094 
Q 2938 2591 2744 2837 
Q 2550 3084 2163 3084 
Q 1697 3084 1428 2787 
Q 1159 2491 1159 1978 
L 1159 0 
L 581 0 
L 581 3500 
L 1159 3500 
L 1159 2956 
Q 1366 3272 1645 3428 
Q 1925 3584 2291 3584 
Q 2894 3584 3203 3211 
Q 3513 2838 3513 2113 
z
" transform="scale(0.015625)"/>
      </defs>
      <use xlink:href="#DejaVuSans-61"/>
      <use xlink:href="#DejaVuSans-6c" x="61.279297"/>
      <use xlink:href="#DejaVuSans-6b" x="89.0625"/>
      <use xlink:href="#DejaVuSans-61" x="145.222656"/>
      <use xlink:href="#DejaVuSans-6e" x="206.501953"/>
      <use xlink:href="#DejaVuSans-65" x="269.880859"/>
     </g>
    </g>
   </g>
  </g>
 </g>
 <defs>
  <clipPath id="pe7d41c06c8">
   <rect x="47.1875" y="7.2" width="478.33" height="307.24"/>
  </clipPath>
 </defs>
</svg>