<?xml version="1.0" encoding="utf-8" standalone="no"?>
<!DOCTYPE svg PUBLIC "-//W3C//DTD SVG 1.1//EN"
  "http://www.w3.org/Graphics/SVG/1.1/DTD/svg11.dtd">
<svg xmlns:xlink="http://www.w3.org/1999/xlink" width="394.423125pt" height="297.190125pt" viewBox="0 0 394.423125 297.190125" xmlns="http://www.w3.org/2000/svg" version="1.1">
 <metadata>
  <rdf:RDF xmlns:dc="http://purl.org/dc/elements/1.1/" xmlns:cc="http://creativecommons.org/ns#" xmlns:rdf="http://www.w3.org/1999/02/22-rdf-syntax-ns#">
   <cc:Work>
    <dc:type rdf:resource="http://purl.org/dc/dcmitype/StillImage"/>
    <dc:date>2024-09-14T11:52:24.131561</dc:date>
    <dc:format>image/svg+xml</dc:format>
    <dc:creator>
     <cc:Agent>
      <dc:title>Matplotlib v3.9.1, https://matplotlib.org/</dc:title>
     </cc:Agent>
    </dc:creator>
   </cc:Work>
  </rdf:RDF>
 </metadata>
 <defs>
  <style type="text/css">*{stroke-linejoin: round; stroke-linecap: butt}</style>
 </defs>
 <g id="figure_1">
  <g id="patch_1">
   <path d="M 0 297.190125 
L 394.423125 297.190125 
L 394.423125 0 
L 0 0 
z
" style="fill: #ffffff"/>
  </g>
  <g id="axes_1">
   <g id="patch_2">
    <path d="M 30.103125 273.312 
L 387.223125 273.312 
L 387.223125 7.2 
L 30.103125 7.2 
z
" style="fill: #ffffff"/>
   </g>
   <g id="matplotlib.axis_1">
    <g id="xtick_1">
     <g id="line2d_1">
      <defs>
       <path id="mdb1ff2dba4" d="M 0 0 
L 0 3.5 
" style="stroke: #000000; stroke-width: 0.8"/>
      </defs>
      <g>
       <use xlink:href="#mdb1ff2dba4" x="366.227506" y="273.312" style="stroke: #000000; stroke-width: 0.8"/>
      </g>
     </g>
     <g id="text_1">
      <!-- 500 -->
      <g transform="translate(356.683756 287.910437) scale(0.1 -0.1)">
       <defs>
        <path id="DejaVuSans-35" d="M 691 4666 
L 3169 4666 
L 3169 4134 
L 1269 4134 
L 1269 2991 
Q 1406 3038 1543 3061 
Q 1681 3084 1819 3084 
Q 2600 3084 3056 2656 
Q 3513 2228 3513 1497 
Q 3513 744 3044 326 
Q 2575 -91 1722 -91 
Q 1428 -91 1123 -41 
Q 819 9 494 109 
L 494 744 
Q 775 591 1075 516 
Q 1375 441 1709 441 
Q 2250 441 2565 725 
Q 2881 1009 2881 1497 
Q 2881 1984 2565 2268 
Q 2250 2553 1709 2553 
Q 1456 2553 1204 2497 
Q 953 2441 691 2322 
L 691 4666 
z
" transform="scale(0.015625)"/>
        <path id="DejaVuSans-30" d="M 2034 4250 
Q 1547 4250 1301 3770 
Q 1056 3291 1056 2328 
Q 1056 1369 1301 889 
Q 1547 409 2034 409 
Q 2525 409 2770 889 
Q 3016 1369 3016 2328 
Q 3016 3291 2770 3770 
Q 2525 4250 2034 4250 
z
M 2034 4750 
Q 2819 4750 3233 4129 
Q 3647 3509 3647 2328 
Q 3647 1150 3233 529 
Q 2819 -91 2034 -91 
Q 1250 -91 836 529 
Q 422 1150 422 2328 
Q 422 3509 836 4129 
Q 1250 4750 2034 4750 
z
" transform="scale(0.015625)"/>
       </defs>
       <use xlink:href="#DejaVuSans-35"/>
       <use xlink:href="#DejaVuSans-30" x="63.623047"/>
       <use xlink:href="#DejaVuSans-30" x="127.246094"/>
      </g>
     </g>
    </g>
    <g id="xtick_2">
     <g id="line2d_2">
      <g>
       <use xlink:href="#mdb1ff2dba4" x="320.530305" y="273.312" style="stroke: #000000; stroke-width: 0.8"/>
      </g>
     </g>
     <g id="text_2">
      <!-- 1000 -->
      <g transform="translate(307.805305 287.910437) scale(0.1 -0.1)">
       <defs>
        <path id="DejaVuSans-31" d="M 794 531 
L 1825 531 
L 1825 4091 
L 703 3866 
L 703 4441 
L 1819 4666 
L 2450 4666 
L 2450 531 
L 3481 531 
L 3481 0 
L 794 0 
L 794 531 
z
" transform="scale(0.015625)"/>
       </defs>
       <use xlink:href="#DejaVuSans-31"/>
       <use xlink:href="#DejaVuSans-30" x="63.623047"/>
       <use xlink:href="#DejaVuSans-30" x="127.246094"/>
       <use xlink:href="#DejaVuSans-30" x="190.869141"/>
      </g>
     </g>
    </g>
    <g id="xtick_3">
     <g id="line2d_3">
      <g>
       <use xlink:href="#mdb1ff2dba4" x="274.833103" y="273.312" style="stroke: #000000; stroke-width: 0.8"/>
      </g>
     </g>
     <g id="text_3">
      <!-- 1500 -->
      <g transform="translate(262.108103 287.910437) scale(0.1 -0.1)">
       <use xlink:href="#DejaVuSans-31"/>
       <use xlink:href="#DejaVuSans-35" x="63.623047"/>
       <use xlink:href="#DejaVuSans-30" x="127.246094"/>
       <use xlink:href="#DejaVuSans-30" x="190.869141"/>
      </g>
     </g>
    </g>
    <g id="xtick_4">
     <g id="line2d_4">
      <g>
       <use xlink:href="#mdb1ff2dba4" x="229.135901" y="273.312" style="stroke: #000000; stroke-width: 0.8"/>
      </g>
     </g>
     <g id="text_4">
      <!-- 2000 -->
      <g transform="translate(216.410901 287.910437) scale(0.1 -0.1)">
       <defs>
        <path id="DejaVuSans-32" d="M 1228 531 
L 3431 531 
L 3431 0 
L 469 0 
L 469 531 
Q 828 903 1448 1529 
Q 2069 2156 2228 2338 
Q 2531 2678 2651 2914 
Q 2772 3150 2772 3378 
Q 2772 3750 2511 3984 
Q 2250 4219 1831 4219 
Q 1534 4219 1204 4116 
Q 875 4013 500 3803 
L 500 4441 
Q 881 4594 1212 4672 
Q 1544 4750 1819 4750 
Q 2544 4750 2975 4387 
Q 3406 4025 3406 3419 
Q 3406 3131 3298 2873 
Q 3191 2616 2906 2266 
Q 2828 2175 2409 1742 
Q 1991 1309 1228 531 
z
" transform="scale(0.015625)"/>
       </defs>
       <use xlink:href="#DejaVuSans-32"/>
       <use xlink:href="#DejaVuSans-30" x="63.623047"/>
       <use xlink:href="#DejaVuSans-30" x="127.246094"/>
       <use xlink:href="#DejaVuSans-30" x="190.869141"/>
      </g>
     </g>
    </g>
    <g id="xtick_5">
     <g id="line2d_5">
      <g>
       <use xlink:href="#mdb1ff2dba4" x="183.438699" y="273.312" style="stroke: #000000; stroke-width: 0.8"/>
      </g>
     </g>
     <g id="text_5">
      <!-- 2500 -->
      <g transform="translate(170.713699 287.910437) scale(0.1 -0.1)">
       <use xlink:href="#DejaVuSans-32"/>
       <use xlink:href="#DejaVuSans-35" x="63.623047"/>
       <use xlink:href="#DejaVuSans-30" x="127.246094"/>
       <use xlink:href="#DejaVuSans-30" x="190.869141"/>
      </g>
     </g>
    </g>
    <g id="xtick_6">
     <g id="line2d_6">
      <g>
       <use xlink:href="#mdb1ff2dba4" x="137.741497" y="273.312" style="stroke: #000000; stroke-width: 0.8"/>
      </g>
     </g>
     <g id="text_6">
      <!-- 3000 -->
      <g transform="translate(125.016497 287.910437) scale(0.1 -0.1)">
       <defs>
        <path id="DejaVuSans-33" d="M 2597 2516 
Q 3050 2419 3304 2112 
Q 3559 1806 3559 1356 
Q 3559 666 3084 287 
Q 2609 -91 1734 -91 
Q 1441 -91 1130 -33 
Q 819 25 488 141 
L 488 750 
Q 750 597 1062 519 
Q 1375 441 1716 441 
Q 2309 441 2620 675 
Q 2931 909 2931 1356 
Q 2931 1769 2642 2001 
Q 2353 2234 1838 2234 
L 1294 2234 
L 1294 2753 
L 1863 2753 
Q 2328 2753 2575 2939 
Q 2822 3125 2822 3475 
Q 2822 3834 2567 4026 
Q 2313 4219 1838 4219 
Q 1578 4219 1281 4162 
Q 984 4106 628 3988 
L 628 4550 
Q 988 4650 1302 4700 
Q 1616 4750 1894 4750 
Q 2613 4750 3031 4423 
Q 3450 4097 3450 3541 
Q 3450 3153 3228 2886 
Q 3006 2619 2597 2516 
z
" transform="scale(0.015625)"/>
       </defs>
       <use xlink:href="#DejaVuSans-33"/>
       <use xlink:href="#DejaVuSans-30" x="63.623047"/>
       <use xlink:href="#DejaVuSans-30" x="127.246094"/>
       <use xlink:href="#DejaVuSans-30" x="190.869141"/>
      </g>
     </g>
    </g>
    <g id="xtick_7">
     <g id="line2d_7">
      <g>
       <use xlink:href="#mdb1ff2dba4" x="92.044296" y="273.312" style="stroke: #000000; stroke-width: 0.8"/>
      </g>
     </g>
     <g id="text_7">
      <!-- 3500 -->
      <g transform="translate(79.319296 287.910437) scale(0.1 -0.1)">
       <use xlink:href="#DejaVuSans-33"/>
       <use xlink:href="#DejaVuSans-35" x="63.623047"/>
       <use xlink:href="#DejaVuSans-30" x="127.246094"/>
       <use xlink:href="#DejaVuSans-30" x="190.869141"/>
      </g>
     </g>
    </g>
    <g id="xtick_8">
     <g id="line2d_8">
      <g>
       <use xlink:href="#mdb1ff2dba4" x="46.347094" y="273.312" style="stroke: #000000; stroke-width: 0.8"/>
      </g>
     </g>
     <g id="text_8">
      <!-- 4000 -->
      <g transform="translate(33.622094 287.910437) scale(0.1 -0.1)">
       <defs>
        <path id="DejaVuSans-34" d="M 2419 4116 
L 825 1625 
L 2419 1625 
L 2419 4116 
z
M 2253 4666 
L 3047 4666 
L 3047 1625 
L 3713 1625 
L 3713 1100 
L 3047 1100 
L 3047 0 
L 2419 0 
L 2419 1100 
L 313 1100 
L 313 1709 
L 2253 4666 
z
" transform="scale(0.015625)"/>
       </defs>
       <use xlink:href="#DejaVuSans-34"/>
       <use xlink:href="#DejaVuSans-30" x="63.623047"/>
       <use xlink:href="#DejaVuSans-30" x="127.246094"/>
       <use xlink:href="#DejaVuSans-30" x="190.869141"/>
      </g>
     </g>
    </g>
   </g>
   <g id="matplotlib.axis_2">
    <g id="ytick_1">
     <g id="line2d_9">
      <defs>
       <path id="m3911caa45b" d="M 0 0 
L -3.5 0 
" style="stroke: #000000; stroke-width: 0.8"/>
      </defs>
      <g>
       <use xlink:href="#m3911caa45b" x="30.103125" y="260.978916" style="stroke: #000000; stroke-width: 0.8"/>
      </g>
     </g>
     <g id="text_9">
      <!-- 0.0 -->
      <g transform="translate(7.2 264.778135) scale(0.1 -0.1)">
       <defs>
        <path id="DejaVuSans-2e" d="M 684 794 
L 1344 794 
L 1344 0 
L 684 0 
L 684 794 
z
" transform="scale(0.015625)"/>
       </defs>
       <use xlink:href="#DejaVuSans-30"/>
       <use xlink:href="#DejaVuSans-2e" x="63.623047"/>
       <use xlink:href="#DejaVuSans-30" x="95.410156"/>
      </g>
     </g>
    </g>
    <g id="ytick_2">
     <g id="line2d_10">
      <g>
       <use xlink:href="#m3911caa45b" x="30.103125" y="208.929732" style="stroke: #000000; stroke-width: 0.8"/>
      </g>
     </g>
     <g id="text_10">
      <!-- 0.1 -->
      <g transform="translate(7.2 212.728951) scale(0.1 -0.1)">
       <use xlink:href="#DejaVuSans-30"/>
       <use xlink:href="#DejaVuSans-2e" x="63.623047"/>
       <use xlink:href="#DejaVuSans-31" x="95.410156"/>
      </g>
     </g>
    </g>
    <g id="ytick_3">
     <g id="line2d_11">
      <g>
       <use xlink:href="#m3911caa45b" x="30.103125" y="156.880549" style="stroke: #000000; stroke-width: 0.8"/>
      </g>
     </g>
     <g id="text_11">
      <!-- 0.2 -->
      <g transform="translate(7.2 160.679767) scale(0.1 -0.1)">
       <use xlink:href="#DejaVuSans-30"/>
       <use xlink:href="#DejaVuSans-2e" x="63.623047"/>
       <use xlink:href="#DejaVuSans-32" x="95.410156"/>
      </g>
     </g>
    </g>
    <g id="ytick_4">
     <g id="line2d_12">
      <g>
       <use xlink:href="#m3911caa45b" x="30.103125" y="104.831365" style="stroke: #000000; stroke-width: 0.8"/>
      </g>
     </g>
     <g id="text_12">
      <!-- 0.3 -->
      <g transform="translate(7.2 108.630584) scale(0.1 -0.1)">
       <use xlink:href="#DejaVuSans-30"/>
       <use xlink:href="#DejaVuSans-2e" x="63.623047"/>
       <use xlink:href="#DejaVuSans-33" x="95.410156"/>
      </g>
     </g>
    </g>
    <g id="ytick_5">
     <g id="line2d_13">
      <g>
       <use xlink:href="#m3911caa45b" x="30.103125" y="52.782181" style="stroke: #000000; stroke-width: 0.8"/>
      </g>
     </g>
     <g id="text_13">
      <!-- 0.4 -->
      <g transform="translate(7.2 56.5814) scale(0.1 -0.1)">
       <use xlink:href="#DejaVuSans-30"/>
       <use xlink:href="#DejaVuSans-2e" x="63.623047"/>
       <use xlink:href="#DejaVuSans-34" x="95.410156"/>
      </g>
     </g>
    </g>
   </g>
   <g id="line2d_14">
    <path d="M 370.990398 256.858424 
L 370.902275 256.991366 
L 370.770082 256.042131 
L 369.624454 243.985557 
L 369.580392 244.159378 
L 369.360077 246.397939 
L 368.919446 253.320504 
L 368.875385 253.182766 
L 368.611008 251.157749 
L 368.522886 251.549448 
L 368.302571 255.953286 
L 368.082255 258.77985 
L 368.038194 258.888898 
L 367.994133 258.855026 
L 367.729756 257.778529 
L 367.641625 257.975893 
L 367.377248 258.535927 
L 367.289125 258.361976 
L 367.024749 257.2375 
L 366.936626 257.336476 
L 366.540057 258.261987 
L 366.363803 258.234799 
L 366.055365 259.070444 
L 365.967242 258.893761 
L 365.83505 258.713431 
L 365.790988 258.744753 
L 365.570673 259.019548 
L 365.438489 258.438992 
L 365.130051 256.803375 
L 364.953797 256.929461 
L 364.733482 256.952472 
L 364.513167 256.694242 
L 363.808169 254.94349 
L 363.499722 254.848965 
L 363.235345 254.40137 
L 362.750662 252.697517 
L 362.442215 249.61315 
L 362.177839 244.92718 
L 361.913462 234.68307 
L 361.605024 211.06897 
L 361.384709 197.699342 
L 361.340648 197.802531 
L 361.208455 204.506778 
L 360.635649 246.514363 
L 360.283141 254.115298 
L 359.974703 257.157938 
L 359.666266 258.250874 
L 359.04939 258.78829 
L 358.25626 259.211511 
L 358.035936 259.298375 
L 357.859682 259.2839 
L 357.330928 258.823788 
L 356.890307 259.008372 
L 356.714053 258.956692 
L 356.493737 258.901085 
L 355.348108 260.15873 
L 354.819355 260.207162 
L 354.334663 259.777277 
L 354.290602 259.822723 
L 353.982164 260.065633 
L 353.541534 259.859681 
L 353.321218 259.707586 
L 353.144973 259.632384 
L 352.792465 259.312556 
L 352.263712 258.740415 
L 351.690897 257.471224 
L 351.470582 256.233448 
L 351.206205 253.292147 
L 350.98589 248.500418 
L 350.501207 232.586086 
L 350.413076 233.764311 
L 350.19276 243.227873 
L 349.840261 255.069501 
L 349.575885 257.802548 
L 349.223386 259.287474 
L 348.694632 260.409924 
L 348.430256 260.450453 
L 347.725249 260.662406 
L 347.416811 260.888048 
L 347.108373 260.935845 
L 345.433982 260.95515 
L 344.861167 260.947873 
L 344.420546 260.972806 
L 344.068038 260.930749 
L 343.847722 260.95671 
L 343.539284 261.030611 
L 343.230847 260.844257 
L 343.010531 260.75074 
L 342.437717 260.878634 
L 342.129279 261.01323 
L 341.77678 261.015085 
L 340.410826 260.793822 
L 340.058327 260.920208 
L 339.617697 260.966548 
L 339.177075 260.893748 
L 338.207691 260.637055 
L 338.031437 260.539591 
L 337.017992 259.278112 
L 336.753615 258.173663 
L 336.489239 255.953424 
L 336.224862 251.206832 
L 335.828302 240.340097 
L 335.740179 240.912354 
L 335.563925 246.721788 
L 335.211426 256.870781 
L 334.94705 259.010641 
L 334.638603 259.960317 
L 334.197972 260.524016 
L 333.801412 260.760342 
L 333.140466 260.932332 
L 332.876089 260.989962 
L 332.56766 261.074363 
L 331.818583 260.822231 
L 331.554206 260.772777 
L 331.025453 260.880547 
L 330.761076 260.834645 
L 330.452648 260.863377 
L 329.879824 260.610473 
L 329.571386 260.549744 
L 328.205433 259.64094 
L 327.896995 259.257045 
L 327.588557 258.504168 
L 327.059804 256.397174 
L 326.531051 252.189483 
L 326.09042 249.914181 
L 325.826044 248.557759 
L 325.605737 245.880385 
L 325.341361 239.512875 
L 324.768537 224.154407 
L 324.680415 224.725304 
L 324.504161 228.812706 
L 323.799162 248.276632 
L 323.446654 251.782977 
L 323.182278 252.642333 
L 323.006033 252.663252 
L 322.609463 252.194286 
L 322.565402 252.250191 
L 322.389148 252.937519 
L 321.375712 258.596276 
L 320.802888 259.75333 
L 320.230074 260.242695 
L 319.789462 260.359152 
L 318.511585 260.260044 
L 317.850712 259.954105 
L 316.837239 258.794467 
L 316.528783 257.583443 
L 316.264379 256.920261 
L 316.132223 257.149024 
L 315.206946 259.811187 
L 314.634086 259.987717 
L 314.413825 259.902597 
L 314.105369 259.763689 
L 313.796913 259.685966 
L 313.444405 259.607045 
L 313.180001 259.504734 
L 312.56318 259.032238 
L 311.946268 258.133538 
L 311.505656 257.152358 
L 311.020991 255.321499 
L 310.536235 252.588794 
L 310.139675 248.734997 
L 309.787167 242.817767 
L 309.390606 231.840286 
L 309.082242 215.776874 
L 308.817838 189.40872 
L 308.200925 108.926129 
L 308.156873 110.153448 
L 308.024717 123.39606 
L 307.231596 231.287056 
L 306.879088 244.797692 
L 306.52658 250.875213 
L 306.13002 254.357141 
L 305.601212 257.075515 
L 305.116547 258.451121 
L 304.455583 259.529045 
L 303.970918 259.965379 
L 303.574358 260.003013 
L 303.22185 259.705019 
L 302.913393 259.214477 
L 302.648989 258.410465 
L 302.252429 256.304312 
L 301.944064 254.999081 
L 301.855869 255.01417 
L 301.67966 255.540297 
L 301.239048 257.026142 
L 301.062748 257.124696 
L 300.88654 256.883199 
L 300.622136 256.017402 
L 300.093419 254.182947 
L 300.005224 254.246041 
L 299.829015 254.907448 
L 298.815543 260.376504 
L 298.463034 260.765313 
L 298.15467 260.859883 
L 297.713966 260.717841 
L 297.449653 260.39569 
L 297.053093 259.518078 
L 296.612389 258.114487 
L 296.348077 256.453935 
L 296.03962 252.647949 
L 295.422708 241.859912 
L 295.378656 242.028282 
L 295.2465 243.93259 
L 294.541483 258.193378 
L 294.233027 259.741602 
L 293.880519 260.441707 
L 293.219555 260.924257 
L 292.690838 261.096566 
L 292.294278 260.854093 
L 291.589261 260.077576 
L 291.148649 259.11314 
L 290.708036 257.722258 
L 290.355528 255.943348 
L 289.958968 252.642358 
L 289.60646 247.763479 
L 289.209899 238.523793 
L 288.857391 224.980397 
L 288.504883 200.030777 
L 288.196427 180.688861 
L 288.152375 180.162508 
L 288.108323 180.366606 
L 287.976166 184.778396 
L 287.535463 202.701405 
L 287.447358 201.800401 
L 287.182954 196.4287 
L 287.138902 196.748444 
L 287.006746 201.537407 
L 286.257677 243.309058 
L 285.993273 246.419936 
L 285.773013 247.30413 
L 285.684817 247.309649 
L 285.552661 246.974254 
L 284.891697 243.545093 
L 284.495136 241.219241 
L 284.451084 241.329344 
L 284.318928 242.521604 
L 283.79012 248.377617 
L 283.613911 248.537144 
L 283.437612 248.300066 
L 283.129247 247.309819 
L 282.512335 244.676078 
L 281.410758 240.263922 
L 281.23455 240.266781 
L 280.970146 240.723136 
L 280.617637 241.646915 
L 280.265129 242.593025 
L 279.912621 243.119342 
L 279.692269 243.134813 
L 279.516061 243.012812 
L 279.339852 242.481186 
L 279.1195 240.720142 
L 278.855096 236.622158 
L 278.32638 225.5933 
L 278.061976 223.632763 
L 277.973871 223.668966 
L 277.841715 224.352515 
L 277.533259 226.493252 
L 277.489207 226.401689 
L 277.401011 225.4258 
L 277.180751 218.432681 
L 276.916347 211.098145 
L 276.872295 211.327834 
L 276.740138 215.451804 
L 276.035122 247.75711 
L 275.682614 252.456731 
L 275.41821 254.078777 
L 274.404737 257.664354 
L 273.2592 259.976706 
L 272.906692 260.66869 
L 272.68634 260.745267 
L 272.113479 260.630739 
L 271.805115 260.956998 
L 271.628815 261.074207 
L 271.408554 261.065696 
L 271.276307 261.021227 
L 270.967851 260.688907 
L 270.791642 260.749553 
L 270.527238 260.87889 
L 269.910417 261.000168 
L 269.513857 260.634633 
L 269.381609 260.713772 
L 269.161349 260.892064 
L 268.720736 261.004922 
L 268.500385 261.063675 
L 267.927524 260.372766 
L 267.663212 260.436464 
L 267.398808 260.609141 
L 266.914143 260.37386 
L 266.253179 259.610659 
L 265.988775 259.812431 
L 265.636267 260.021619 
L 265.371954 259.964932 
L 264.799094 259.268663 
L 264.314429 259.355464 
L 264.094078 259.106419 
L 263.565361 258.041054 
L 263.345009 257.616911 
L 262.77224 257.441433 
L 262.551888 257.511449 
L 262.155328 256.884481 
L 261.758768 256.146165 
L 261.494364 255.904084 
L 259.996227 250.325887 
L 259.775966 249.816557 
L 259.46751 248.9816 
L 258.674389 247.231645 
L 258.321881 244.559483 
L 258.057477 240.107017 
L 257.396604 215.943931 
L 257.044096 192.599953 
L 256.647536 131.184724 
L 256.118728 19.296 
L 256.074676 19.805356 
L 255.942519 34.955752 
L 255.590011 120.073588 
L 255.149399 203.732243 
L 254.796799 233.586141 
L 254.444382 243.218031 
L 254.135926 247.738775 
L 253.783418 250.142175 
L 252.990297 254.016781 
L 252.285281 257.003321 
L 251.580264 258.398442 
L 251.271808 259.036413 
L 250.9193 259.464014 
L 250.038075 259.813395 
L 249.553411 260.338859 
L 249.377111 260.404794 
L 248.892446 260.331674 
L 248.143378 260.694052 
L 247.834922 260.818227 
L 247.614661 260.792039 
L 246.865501 260.776465 
L 246.513084 260.968479 
L 245.896172 260.899412 
L 245.323312 260.776257 
L 244.926752 260.791685 
L 244.309931 260.979321 
L 244.089579 260.99809 
L 242.72369 260.707167 
L 242.371182 260.812057 
L 241.798321 260.430759 
L 241.534009 260.388819 
L 241.313657 260.378942 
L 241.049253 260.426044 
L 240.828992 260.57338 
L 240.696745 260.571493 
L 240.256132 260.211833 
L 240.079924 260.315369 
L 239.81552 260.389785 
L 239.595168 260.299587 
L 238.757995 259.997726 
L 238.625839 260.005726 
L 238.273331 259.717413 
L 237.87677 259.944441 
L 237.700471 259.876381 
L 237.347962 260.085743 
L 236.863298 260.24984 
L 236.642946 260.240888 
L 236.466737 260.27319 
L 236.158281 260.210593 
L 235.938021 260.236498 
L 235.409213 260.511865 
L 234.704196 260.311157 
L 234.57204 260.285136 
L 234.17548 260.534205 
L 234.043323 260.320869 
L 233.822972 260.018376 
L 233.602711 260.337456 
L 233.382359 260.634872 
L 233.117955 260.569624 
L 232.985799 260.565809 
L 232.677343 260.134972 
L 232.501134 259.913095 
L 232.324834 260.324899 
L 231.972326 261.216 
L 231.928274 261.182446 
L 231.619818 260.86424 
L 231.44361 260.903289 
L 231.26731 261.003888 
L 231.047049 260.570616 
L 230.782645 259.815677 
L 230.738593 259.872514 
L 230.386085 260.603192 
L 230.253929 260.546467 
L 229.989525 260.345319 
L 229.857368 260.282403 
L 229.637016 260.149683 
L 229.50486 260.073786 
L 229.240456 259.705281 
L 228.887948 259.991937 
L 228.667596 259.636098 
L 228.623544 259.67022 
L 228.182932 260.311358 
L 228.138879 260.261189 
L 227.918528 259.918268 
L 227.654215 260.393197 
L 227.477915 260.650373 
L 227.433863 260.604418 
L 227.169459 260.119781 
L 226.861094 260.533362 
L 226.816951 260.461821 
L 226.42039 259.589397 
L 226.02383 259.278203 
L 225.759518 258.583616 
L 225.62727 258.729698 
L 225.230709 259.416915 
L 225.010449 259.269035 
L 224.834149 259.010025 
L 224.790097 259.044292 
L 224.613797 259.241869 
L 224.569837 259.201482 
L 224.129133 258.647004 
L 223.952924 258.430726 
L 223.556364 257.800975 
L 223.247908 257.44675 
L 223.027556 257.399354 
L 222.410735 257.753441 
L 222.234435 257.720817 
L 221.970031 257.587166 
L 221.309158 258.176998 
L 221.088807 258.386855 
L 220.824494 258.430307 
L 220.604142 258.407923 
L 220.295686 258.253661 
L 220.075425 258.318601 
L 219.899126 258.280515 
L 219.502565 258.518881 
L 219.061953 258.580675 
L 217.695972 259.138866 
L 217.211308 259.239364 
L 216.594395 259.712404 
L 216.197835 259.28577 
L 215.889379 259.673284 
L 215.845327 259.631538 
L 215.404714 259.102002 
L 215.228506 258.941275 
L 215.052206 258.739828 
L 214.787894 258.850822 
L 214.611594 258.794133 
L 214.435385 258.79045 
L 214.259086 258.543168 
L 213.994773 257.778658 
L 213.950629 257.837741 
L 213.774421 258.201363 
L 213.730369 258.169241 
L 213.421913 257.714796 
L 213.245613 257.771016 
L 213.069405 257.39898 
L 212.937248 257.281302 
L 212.672844 257.611518 
L 212.628792 257.571238 
L 212.40844 257.480195 
L 212.144128 257.705227 
L 211.571268 256.847648 
L 211.394968 256.773566 
L 211.086603 256.891427 
L 210.645991 257.8362 
L 210.469691 257.806691 
L 210.029078 258.264672 
L 209.985026 258.2137 
L 209.544414 257.638991 
L 208.442837 258.654967 
L 207.737821 258.362616 
L 207.561521 258.321343 
L 207.253156 258.122601 
L 206.900648 257.957332 
L 206.504088 257.766073 
L 206.239684 257.563127 
L 205.534667 258.095464 
L 205.270263 258.10532 
L 204.741547 258.386163 
L 203.816178 258.333668 
L 203.243409 258.314982 
L 202.890901 258.105633 
L 202.229937 257.970167 
L 201.833377 257.837704 
L 201.613116 257.899301 
L 201.216556 258.1187 
L 200.819904 258.018635 
L 200.599644 257.932508 
L 199.321858 258.103122 
L 198.660894 257.953436 
L 197.911826 257.990962 
L 197.691474 257.953882 
L 197.515265 258.168673 
L 197.250861 258.474527 
L 197.074653 258.285556 
L 196.457741 257.314312 
L 196.193337 257.11339 
L 195.973076 257.242029 
L 194.959603 258.506862 
L 193.902079 259.784943 
L 193.681818 259.656485 
L 193.15301 259.252495 
L 191.654873 259.499109 
L 190.861753 259.960086 
L 189.055159 259.922255 
L 184.296436 259.805548 
L 182.666051 260.216767 
L 179.669777 260.181331 
L 179.008904 259.996448 
L 177.422663 260.083141 
L 177.026011 260.034304 
L 176.144786 259.905925 
L 175.792278 259.966146 
L 175.483822 260.080163 
L 175.219509 260.071617 
L 174.734753 260.028199 
L 174.382245 260.129975 
L 172.840056 259.779095 
L 171.16571 259.99643 
L 170.813202 260.037585 
L 170.37259 260.135486 
L 169.711625 260.229263 
L 168.301592 260.377373 
L 164.95281 260.846605 
L 164.335989 260.720155 
L 163.410621 260.421039 
L 161.912484 260.791505 
L 160.282191 260.827953 
L 159.09251 260.998055 
L 158.255337 261.002347 
L 157.726529 260.934769 
L 156.713148 260.873799 
L 155.831831 260.562701 
L 155.303115 260.268917 
L 154.862502 260.344819 
L 154.465942 260.411034 
L 153.893082 260.231437 
L 152.218736 259.301572 
L 151.601824 258.577828 
L 151.293368 257.737203 
L 150.94086 256.059541 
L 150.500248 252.952251 
L 150.015583 247.81745 
L 149.486775 242.880136 
L 149.310567 242.567316 
L 149.17841 242.8633 
L 148.914006 244.314692 
L 147.988638 250.0948 
L 147.680273 250.667259 
L 147.503973 250.614036 
L 147.283621 250.112027 
L 146.975257 248.661237 
L 146.578696 245.292829 
L 146.182136 242.413577 
L 146.049888 242.251367 
L 145.917732 242.549271 
L 145.565224 244.401751 
L 145.212716 245.792955 
L 145.036507 245.911555 
L 144.90426 245.671644 
L 144.683999 244.681616 
L 144.331491 241.989998 
L 143.758631 237.47083 
L 143.494318 236.772025 
L 143.318018 236.812808 
L 143.053614 236.945082 
L 142.921458 236.739053 
L 142.701106 235.70422 
L 142.436793 233.016443 
L 141.775829 222.205687 
L 140.674252 206.20771 
L 140.586148 206.064602 
L 140.542096 206.147537 
L 140.409848 207.064731 
L 140.189588 210.62742 
L 139.748975 222.550438 
L 138.955855 243.640256 
L 138.471099 250.304539 
L 138.074539 253.124187 
L 137.677978 254.543457 
L 137.061066 256.195922 
L 136.356141 257.982836 
L 135.783281 259.12521 
L 134.769808 260.313262 
L 134.285144 260.410665 
L 133.888583 260.562478 
L 133.359867 260.817289 
L 132.390446 260.843434 
L 126.397898 260.897714 
L 126.177638 260.935873 
L 125.957286 260.949328 
L 125.340374 260.785718 
L 124.591305 260.95265 
L 124.018536 260.804772 
L 123.621976 260.719771 
L 123.269468 260.866618 
L 122.828855 260.911972 
L 122.476347 260.83756 
L 121.859435 260.793955 
L 121.462875 260.837172 
L 120.625702 260.662344 
L 118.775057 260.479408 
L 118.378496 260.52818 
L 116.968463 260.556371 
L 116.571903 260.361578 
L 116.30759 260.49802 
L 115.955082 260.659018 
L 114.545049 260.55027 
L 114.236593 260.513402 
L 114.016241 260.648418 
L 113.795981 260.766993 
L 113.487525 260.70387 
L 113.179069 260.813485 
L 112.914665 260.765583 
L 112.253792 260.856954 
L 111.636879 260.84254 
L 111.284371 260.822082 
L 110.755655 260.607063 
L 110.006586 260.603508 
L 109.742182 260.663914 
L 109.433726 260.673044 
L 109.037166 260.603586 
L 107.891537 260.642134 
L 107.627133 260.643762 
L 107.406872 260.605644 
L 107.010312 260.453903 
L 106.217191 260.480371 
L 105.291823 260.520841 
L 105.071562 260.613138 
L 104.763106 260.555712 
L 104.45465 260.65816 
L 103.88179 260.392448 
L 103.441178 260.40938 
L 102.295549 259.734181 
L 102.075288 259.526483 
L 101.854936 259.442568 
L 101.502428 259.176993 
L 101.193972 259.299617 
L 101.017764 259.308587 
L 100.75336 259.734503 
L 100.312747 260.258183 
L 100.092487 260.364503 
L 99.695835 260.396487 
L 98.902714 260.544601 
L 98.638402 260.475772 
L 98.285894 260.506553 
L 97.580877 260.183933 
L 96.787757 260.418704 
L 96.567405 260.4637 
L 96.258948 260.556553 
L 95.818336 260.396786 
L 95.245567 260.463483 
L 95.025215 260.473934 
L 93.394922 259.977824 
L 93.130518 260.065939 
L 92.689906 259.891011 
L 92.293345 260.026807 
L 91.764537 259.98545 
L 91.367977 259.90454 
L 91.059612 260.030302 
L 90.354596 259.599413 
L 90.090192 259.565922 
L 89.781736 259.415263 
L 89.208967 259.788073 
L 88.988615 259.684148 
L 88.636107 259.44302 
L 88.239547 259.316931 
L 87.975143 259.367346 
L 87.13797 259.609608 
L 86.477005 259.323073 
L 86.168641 259.287541 
L 85.904237 259.271253 
L 85.639833 259.501649 
L 85.155168 259.994643 
L 84.890764 259.983102 
L 84.670504 259.618594 
L 84.4061 259.379471 
L 84.009539 259.258688 
L 83.83324 259.52794 
L 83.480823 260.164762 
L 83.304523 260.088073 
L 82.952015 259.491147 
L 82.643559 259.073127 
L 82.46735 259.150395 
L 81.89449 259.820175 
L 81.67423 260.019012 
L 81.321721 259.647355 
L 80.881109 259.145749 
L 80.484549 259.205833 
L 79.823584 259.738633 
L 79.471076 259.961925 
L 79.16262 259.701438 
L 78.76606 259.151185 
L 78.413551 259.191388 
L 78.149147 259.696915 
L 77.840783 260.266858 
L 77.664483 260.038585 
L 77.444131 259.880759 
L 77.179818 259.763269 
L 76.915414 259.66008 
L 76.298594 259.948374 
L 76.03419 260.302156 
L 75.549525 259.844428 
L 75.197017 259.738269 
L 74.844509 260.0581 
L 74.668209 260.0181 
L 74.315701 260.52465 
L 74.051297 260.727121 
L 73.831036 260.594589 
L 73.346372 260.173163 
L 72.94972 260.4943 
L 72.641355 260.979043 
L 72.244795 260.986403 
L 72.112547 260.984971 
L 71.980391 260.718913 
L 71.671935 260.083057 
L 71.407531 259.940156 
L 71.143218 260.291202 
L 70.922866 260.448693 
L 69.909485 259.655938 
L 69.601029 259.869455 
L 69.072221 260.283143 
L 68.719713 260.200215 
L 68.367204 260.044487 
L 68.146944 260.328866 
L 67.926592 260.535595 
L 67.001315 260.081015 
L 66.428455 260.229882 
L 66.164142 260.352215 
L 65.723438 260.158308 
L 65.37093 259.956808 
L 65.106618 260.204318 
L 64.57781 260.926286 
L 64.357549 260.562174 
L 64.181249 260.504892 
L 63.960989 260.505646 
L 63.696585 260.381163 
L 63.123725 260.953992 
L 62.903464 260.894338 
L 62.771308 260.788062 
L 62.462852 260.309139 
L 62.2425 260.380336 
L 61.801887 260.80867 
L 61.625679 260.539393 
L 61.361275 260.256521 
L 61.184975 260.081785 
L 60.87661 259.725996 
L 60.700311 260.050108 
L 60.30375 260.746555 
L 60.127542 260.736754 
L 59.90719 260.291784 
L 59.598734 259.685639 
L 59.422526 259.723746 
L 59.158122 260.164713 
L 58.629405 260.949586 
L 58.409053 260.617226 
L 57.924388 259.726668 
L 57.748089 259.751709 
L 57.57188 260.165955 
L 57.263424 260.819241 
L 57.087124 260.619323 
L 56.426251 259.704389 
L 56.205899 259.798791 
L 55.721235 260.640584 
L 55.633131 260.553714 
L 54.972166 259.683132 
L 54.487502 260.150919 
L 54.179046 260.346189 
L 53.738433 260.095047 
L 53.429977 259.854173 
L 53.209625 259.993382 
L 52.769013 260.445101 
L 52.460557 260.342098 
L 52.108049 260.213083 
L 51.799593 260.26764 
L 51.270876 260.584542 
L 50.742159 260.561074 
L 50.345599 260.227494 
L 49.904895 260.455744 
L 49.59653 260.515987 
L 49.376179 260.479051 
L 49.02367 260.320121 
L 47.966146 260.467687 
L 47.437429 260.529235 
L 46.335852 260.460763 
L 46.335852 260.460763 
" clip-path="url(#pd8232006fc)" style="fill: none; stroke: #1f77b4; stroke-width: 1.5; stroke-linecap: square"/>
   </g>
   <g id="patch_3">
    <path d="M 30.103125 273.312 
L 30.103125 7.2 
" style="fill: none; stroke: #000000; stroke-width: 0.8; stroke-linejoin: miter; stroke-linecap: square"/>
   </g>
   <g id="patch_4">
    <path d="M 387.223125 273.312 
L 387.223125 7.2 
" style="fill: none; stroke: #000000; stroke-width: 0.8; stroke-linejoin: miter; stroke-linecap: square"/>
   </g>
   <g id="patch_5">
    <path d="M 30.103125 273.312 
L 387.223125 273.312 
" style="fill: none; stroke: #000000; stroke-width: 0.8; stroke-linejoin: miter; stroke-linecap: square"/>
   </g>
   <g id="patch_6">
    <path d="M 30.103125 7.2 
L 387.223125 7.2 
" style="fill: none; stroke: #000000; stroke-width: 0.8; stroke-linejoin: miter; stroke-linecap: square"/>
   </g>
  </g>
 </g>
 <defs>
  <clipPath id="pd8232006fc">
   <rect x="30.103125" y="7.2" width="357.12" height="266.112"/>
  </clipPath>
 </defs>
</svg>