<?xml version="1.0" encoding="utf-8" standalone="no"?>
<!DOCTYPE svg PUBLIC "-//W3C//DTD SVG 1.1//EN"
  "http://www.w3.org/Graphics/SVG/1.1/DTD/svg11.dtd">
<svg xmlns:xlink="http://www.w3.org/1999/xlink" width="409.165312pt" height="297.190125pt" viewBox="0 0 409.165312 297.190125" xmlns="http://www.w3.org/2000/svg" version="1.1">
 <metadata>
  <rdf:RDF xmlns:dc="http://purl.org/dc/elements/1.1/" xmlns:cc="http://creativecommons.org/ns#" xmlns:rdf="http://www.w3.org/1999/02/22-rdf-syntax-ns#">
   <cc:Work>
    <dc:type rdf:resource="http://purl.org/dc/dcmitype/StillImage"/>
    <dc:date>2024-09-02T15:20:15.624694</dc:date>
    <dc:format>image/svg+xml</dc:format>
    <dc:creator>
     <cc:Agent>
      <dc:title>Matplotlib v3.9.1, https://matplotlib.org/</dc:title>
     </cc:Agent>
    </dc:creator>
   </cc:Work>
  </rdf:RDF>
 </metadata>
 <defs>
  <style type="text/css">*{stroke-linejoin: round; stroke-linecap: butt}</style>
 </defs>
 <g id="figure_1">
  <g id="patch_1">
   <path d="M 0 297.190125 
L 409.165312 297.190125 
L 409.165312 0 
L 0 0 
z
" style="fill: #ffffff"/>
  </g>
  <g id="axes_1">
   <g id="patch_2">
    <path d="M 44.845313 273.312 
L 401.965312 273.312 
L 401.965312 7.2 
L 44.845313 7.2 
z
" style="fill: #ffffff"/>
   </g>
   <g id="matplotlib.axis_1">
    <g id="xtick_1">
     <g id="line2d_1">
      <defs>
       <path id="mfeed36d3ca" d="M 0 0 
L 0 3.5 
" style="stroke: #000000; stroke-width: 0.8"/>
      </defs>
      <g>
       <use xlink:href="#mfeed36d3ca" x="58.869505" y="273.312" style="stroke: #000000; stroke-width: 0.8"/>
      </g>
     </g>
     <g id="text_1">
      <!-- 0 -->
      <g transform="translate(55.688255 287.910437) scale(0.1 -0.1)">
       <defs>
        <path id="DejaVuSans-30" d="M 2034 4250 
Q 1547 4250 1301 3770 
Q 1056 3291 1056 2328 
Q 1056 1369 1301 889 
Q 1547 409 2034 409 
Q 2525 409 2770 889 
Q 3016 1369 3016 2328 
Q 3016 3291 2770 3770 
Q 2525 4250 2034 4250 
z
M 2034 4750 
Q 2819 4750 3233 4129 
Q 3647 3509 3647 2328 
Q 3647 1150 3233 529 
Q 2819 -91 2034 -91 
Q 1250 -91 836 529 
Q 422 1150 422 2328 
Q 422 3509 836 4129 
Q 1250 4750 2034 4750 
z
" transform="scale(0.015625)"/>
       </defs>
       <use xlink:href="#DejaVuSans-30"/>
      </g>
     </g>
    </g>
    <g id="xtick_2">
     <g id="line2d_2">
      <g>
       <use xlink:href="#mfeed36d3ca" x="103.040192" y="273.312" style="stroke: #000000; stroke-width: 0.8"/>
      </g>
     </g>
     <g id="text_2">
      <!-- 5 -->
      <g transform="translate(99.858942 287.910437) scale(0.1 -0.1)">
       <defs>
        <path id="DejaVuSans-35" d="M 691 4666 
L 3169 4666 
L 3169 4134 
L 1269 4134 
L 1269 2991 
Q 1406 3038 1543 3061 
Q 1681 3084 1819 3084 
Q 2600 3084 3056 2656 
Q 3513 2228 3513 1497 
Q 3513 744 3044 326 
Q 2575 -91 1722 -91 
Q 1428 -91 1123 -41 
Q 819 9 494 109 
L 494 744 
Q 775 591 1075 516 
Q 1375 441 1709 441 
Q 2250 441 2565 725 
Q 2881 1009 2881 1497 
Q 2881 1984 2565 2268 
Q 2250 2553 1709 2553 
Q 1456 2553 1204 2497 
Q 953 2441 691 2322 
L 691 4666 
z
" transform="scale(0.015625)"/>
       </defs>
       <use xlink:href="#DejaVuSans-35"/>
      </g>
     </g>
    </g>
    <g id="xtick_3">
     <g id="line2d_3">
      <g>
       <use xlink:href="#mfeed36d3ca" x="147.210878" y="273.312" style="stroke: #000000; stroke-width: 0.8"/>
      </g>
     </g>
     <g id="text_3">
      <!-- 10 -->
      <g transform="translate(140.848378 287.910437) scale(0.1 -0.1)">
       <defs>
        <path id="DejaVuSans-31" d="M 794 531 
L 1825 531 
L 1825 4091 
L 703 3866 
L 703 4441 
L 1819 4666 
L 2450 4666 
L 2450 531 
L 3481 531 
L 3481 0 
L 794 0 
L 794 531 
z
" transform="scale(0.015625)"/>
       </defs>
       <use xlink:href="#DejaVuSans-31"/>
       <use xlink:href="#DejaVuSans-30" x="63.623047"/>
      </g>
     </g>
    </g>
    <g id="xtick_4">
     <g id="line2d_4">
      <g>
       <use xlink:href="#mfeed36d3ca" x="191.381565" y="273.312" style="stroke: #000000; stroke-width: 0.8"/>
      </g>
     </g>
     <g id="text_4">
      <!-- 15 -->
      <g transform="translate(185.019065 287.910437) scale(0.1 -0.1)">
       <use xlink:href="#DejaVuSans-31"/>
       <use xlink:href="#DejaVuSans-35" x="63.623047"/>
      </g>
     </g>
    </g>
    <g id="xtick_5">
     <g id="line2d_5">
      <g>
       <use xlink:href="#mfeed36d3ca" x="235.552251" y="273.312" style="stroke: #000000; stroke-width: 0.8"/>
      </g>
     </g>
     <g id="text_5">
      <!-- 20 -->
      <g transform="translate(229.189751 287.910437) scale(0.1 -0.1)">
       <defs>
        <path id="DejaVuSans-32" d="M 1228 531 
L 3431 531 
L 3431 0 
L 469 0 
L 469 531 
Q 828 903 1448 1529 
Q 2069 2156 2228 2338 
Q 2531 2678 2651 2914 
Q 2772 3150 2772 3378 
Q 2772 3750 2511 3984 
Q 2250 4219 1831 4219 
Q 1534 4219 1204 4116 
Q 875 4013 500 3803 
L 500 4441 
Q 881 4594 1212 4672 
Q 1544 4750 1819 4750 
Q 2544 4750 2975 4387 
Q 3406 4025 3406 3419 
Q 3406 3131 3298 2873 
Q 3191 2616 2906 2266 
Q 2828 2175 2409 1742 
Q 1991 1309 1228 531 
z
" transform="scale(0.015625)"/>
       </defs>
       <use xlink:href="#DejaVuSans-32"/>
       <use xlink:href="#DejaVuSans-30" x="63.623047"/>
      </g>
     </g>
    </g>
    <g id="xtick_6">
     <g id="line2d_6">
      <g>
       <use xlink:href="#mfeed36d3ca" x="279.722938" y="273.312" style="stroke: #000000; stroke-width: 0.8"/>
      </g>
     </g>
     <g id="text_6">
      <!-- 25 -->
      <g transform="translate(273.360438 287.910437) scale(0.1 -0.1)">
       <use xlink:href="#DejaVuSans-32"/>
       <use xlink:href="#DejaVuSans-35" x="63.623047"/>
      </g>
     </g>
    </g>
    <g id="xtick_7">
     <g id="line2d_7">
      <g>
       <use xlink:href="#mfeed36d3ca" x="323.893624" y="273.312" style="stroke: #000000; stroke-width: 0.8"/>
      </g>
     </g>
     <g id="text_7">
      <!-- 30 -->
      <g transform="translate(317.531124 287.910437) scale(0.1 -0.1)">
       <defs>
        <path id="DejaVuSans-33" d="M 2597 2516 
Q 3050 2419 3304 2112 
Q 3559 1806 3559 1356 
Q 3559 666 3084 287 
Q 2609 -91 1734 -91 
Q 1441 -91 1130 -33 
Q 819 25 488 141 
L 488 750 
Q 750 597 1062 519 
Q 1375 441 1716 441 
Q 2309 441 2620 675 
Q 2931 909 2931 1356 
Q 2931 1769 2642 2001 
Q 2353 2234 1838 2234 
L 1294 2234 
L 1294 2753 
L 1863 2753 
Q 2328 2753 2575 2939 
Q 2822 3125 2822 3475 
Q 2822 3834 2567 4026 
Q 2313 4219 1838 4219 
Q 1578 4219 1281 4162 
Q 984 4106 628 3988 
L 628 4550 
Q 988 4650 1302 4700 
Q 1616 4750 1894 4750 
Q 2613 4750 3031 4423 
Q 3450 4097 3450 3541 
Q 3450 3153 3228 2886 
Q 3006 2619 2597 2516 
z
" transform="scale(0.015625)"/>
       </defs>
       <use xlink:href="#DejaVuSans-33"/>
       <use xlink:href="#DejaVuSans-30" x="63.623047"/>
      </g>
     </g>
    </g>
    <g id="xtick_8">
     <g id="line2d_8">
      <g>
       <use xlink:href="#mfeed36d3ca" x="368.064311" y="273.312" style="stroke: #000000; stroke-width: 0.8"/>
      </g>
     </g>
     <g id="text_8">
      <!-- 35 -->
      <g transform="translate(361.701811 287.910437) scale(0.1 -0.1)">
       <use xlink:href="#DejaVuSans-33"/>
       <use xlink:href="#DejaVuSans-35" x="63.623047"/>
      </g>
     </g>
    </g>
   </g>
   <g id="matplotlib.axis_2">
    <g id="ytick_1">
     <g id="line2d_9">
      <defs>
       <path id="m107ec5cef7" d="M 0 0 
L -3.5 0 
" style="stroke: #000000; stroke-width: 0.8"/>
      </defs>
      <g>
       <use xlink:href="#m107ec5cef7" x="44.845313" y="261.174474" style="stroke: #000000; stroke-width: 0.8"/>
      </g>
     </g>
     <g id="text_9">
      <!-- −0.05 -->
      <g transform="translate(7.2 264.973692) scale(0.1 -0.1)">
       <defs>
        <path id="DejaVuSans-2212" d="M 678 2272 
L 4684 2272 
L 4684 1741 
L 678 1741 
L 678 2272 
z
" transform="scale(0.015625)"/>
        <path id="DejaVuSans-2e" d="M 684 794 
L 1344 794 
L 1344 0 
L 684 0 
L 684 794 
z
" transform="scale(0.015625)"/>
       </defs>
       <use xlink:href="#DejaVuSans-2212"/>
       <use xlink:href="#DejaVuSans-30" x="83.789062"/>
       <use xlink:href="#DejaVuSans-2e" x="147.412109"/>
       <use xlink:href="#DejaVuSans-30" x="179.199219"/>
       <use xlink:href="#DejaVuSans-35" x="242.822266"/>
      </g>
     </g>
    </g>
    <g id="ytick_2">
     <g id="line2d_10">
      <g>
       <use xlink:href="#m107ec5cef7" x="44.845313" y="226.295921" style="stroke: #000000; stroke-width: 0.8"/>
      </g>
     </g>
     <g id="text_10">
      <!-- 0.00 -->
      <g transform="translate(15.579688 230.09514) scale(0.1 -0.1)">
       <use xlink:href="#DejaVuSans-30"/>
       <use xlink:href="#DejaVuSans-2e" x="63.623047"/>
       <use xlink:href="#DejaVuSans-30" x="95.410156"/>
       <use xlink:href="#DejaVuSans-30" x="159.033203"/>
      </g>
     </g>
    </g>
    <g id="ytick_3">
     <g id="line2d_11">
      <g>
       <use xlink:href="#m107ec5cef7" x="44.845313" y="191.417369" style="stroke: #000000; stroke-width: 0.8"/>
      </g>
     </g>
     <g id="text_11">
      <!-- 0.05 -->
      <g transform="translate(15.579688 195.216587) scale(0.1 -0.1)">
       <use xlink:href="#DejaVuSans-30"/>
       <use xlink:href="#DejaVuSans-2e" x="63.623047"/>
       <use xlink:href="#DejaVuSans-30" x="95.410156"/>
       <use xlink:href="#DejaVuSans-35" x="159.033203"/>
      </g>
     </g>
    </g>
    <g id="ytick_4">
     <g id="line2d_12">
      <g>
       <use xlink:href="#m107ec5cef7" x="44.845313" y="156.538816" style="stroke: #000000; stroke-width: 0.8"/>
      </g>
     </g>
     <g id="text_12">
      <!-- 0.10 -->
      <g transform="translate(15.579688 160.338035) scale(0.1 -0.1)">
       <use xlink:href="#DejaVuSans-30"/>
       <use xlink:href="#DejaVuSans-2e" x="63.623047"/>
       <use xlink:href="#DejaVuSans-31" x="95.410156"/>
       <use xlink:href="#DejaVuSans-30" x="159.033203"/>
      </g>
     </g>
    </g>
    <g id="ytick_5">
     <g id="line2d_13">
      <g>
       <use xlink:href="#m107ec5cef7" x="44.845313" y="121.660263" style="stroke: #000000; stroke-width: 0.8"/>
      </g>
     </g>
     <g id="text_13">
      <!-- 0.15 -->
      <g transform="translate(15.579688 125.459482) scale(0.1 -0.1)">
       <use xlink:href="#DejaVuSans-30"/>
       <use xlink:href="#DejaVuSans-2e" x="63.623047"/>
       <use xlink:href="#DejaVuSans-31" x="95.410156"/>
       <use xlink:href="#DejaVuSans-35" x="159.033203"/>
      </g>
     </g>
    </g>
    <g id="ytick_6">
     <g id="line2d_14">
      <g>
       <use xlink:href="#m107ec5cef7" x="44.845313" y="86.781711" style="stroke: #000000; stroke-width: 0.8"/>
      </g>
     </g>
     <g id="text_14">
      <!-- 0.20 -->
      <g transform="translate(15.579688 90.58093) scale(0.1 -0.1)">
       <use xlink:href="#DejaVuSans-30"/>
       <use xlink:href="#DejaVuSans-2e" x="63.623047"/>
       <use xlink:href="#DejaVuSans-32" x="95.410156"/>
       <use xlink:href="#DejaVuSans-30" x="159.033203"/>
      </g>
     </g>
    </g>
    <g id="ytick_7">
     <g id="line2d_15">
      <g>
       <use xlink:href="#m107ec5cef7" x="44.845313" y="51.903158" style="stroke: #000000; stroke-width: 0.8"/>
      </g>
     </g>
     <g id="text_15">
      <!-- 0.25 -->
      <g transform="translate(15.579688 55.702377) scale(0.1 -0.1)">
       <use xlink:href="#DejaVuSans-30"/>
       <use xlink:href="#DejaVuSans-2e" x="63.623047"/>
       <use xlink:href="#DejaVuSans-32" x="95.410156"/>
       <use xlink:href="#DejaVuSans-35" x="159.033203"/>
      </g>
     </g>
    </g>
    <g id="ytick_8">
     <g id="line2d_16">
      <g>
       <use xlink:href="#m107ec5cef7" x="44.845313" y="17.024606" style="stroke: #000000; stroke-width: 0.8"/>
      </g>
     </g>
     <g id="text_16">
      <!-- 0.30 -->
      <g transform="translate(15.579688 20.823824) scale(0.1 -0.1)">
       <use xlink:href="#DejaVuSans-30"/>
       <use xlink:href="#DejaVuSans-2e" x="63.623047"/>
       <use xlink:href="#DejaVuSans-33" x="95.410156"/>
       <use xlink:href="#DejaVuSans-30" x="159.033203"/>
      </g>
     </g>
    </g>
   </g>
   <g id="line2d_17">
    <defs>
     <path id="m780facb3c0" d="M 0 3 
C 0.795609 3 1.55874 2.683901 2.12132 2.12132 
C 2.683901 1.55874 3 0.795609 3 0 
C 3 -0.795609 2.683901 -1.55874 2.12132 -2.12132 
C 1.55874 -2.683901 0.795609 -3 0 -3 
C -0.795609 -3 -1.55874 -2.683901 -2.12132 -2.12132 
C -2.683901 -1.55874 -3 -0.795609 -3 0 
C -3 0.795609 -2.683901 1.55874 -2.12132 2.12132 
C -1.55874 2.683901 -0.795609 3 0 3 
z
" style="stroke: #1f77b4"/>
    </defs>
    <g clip-path="url(#p0ed434c319)">
     <use xlink:href="#m780facb3c0" x="61.07804" y="19.296" style="fill: #1f77b4; stroke: #1f77b4"/>
     <use xlink:href="#m780facb3c0" x="67.703643" y="147.916752" style="fill: #1f77b4; stroke: #1f77b4"/>
     <use xlink:href="#m780facb3c0" x="74.329246" y="217.278389" style="fill: #1f77b4; stroke: #1f77b4"/>
     <use xlink:href="#m780facb3c0" x="80.954849" y="250.065606" style="fill: #1f77b4; stroke: #1f77b4"/>
     <use xlink:href="#m780facb3c0" x="87.580452" y="261.216" style="fill: #1f77b4; stroke: #1f77b4"/>
     <use xlink:href="#m780facb3c0" x="94.206055" y="260.372567" style="fill: #1f77b4; stroke: #1f77b4"/>
     <use xlink:href="#m780facb3c0" x="100.831658" y="253.600385" style="fill: #1f77b4; stroke: #1f77b4"/>
     <use xlink:href="#m780facb3c0" x="107.457261" y="244.579621" style="fill: #1f77b4; stroke: #1f77b4"/>
     <use xlink:href="#m780facb3c0" x="114.082864" y="235.427685" style="fill: #1f77b4; stroke: #1f77b4"/>
     <use xlink:href="#m780facb3c0" x="120.708466" y="227.260236" style="fill: #1f77b4; stroke: #1f77b4"/>
     <use xlink:href="#m780facb3c0" x="127.334069" y="220.569474" style="fill: #1f77b4; stroke: #1f77b4"/>
     <use xlink:href="#m780facb3c0" x="133.959672" y="215.475517" style="fill: #1f77b4; stroke: #1f77b4"/>
     <use xlink:href="#m780facb3c0" x="140.585275" y="211.89041" style="fill: #1f77b4; stroke: #1f77b4"/>
     <use xlink:href="#m780facb3c0" x="147.210878" y="209.62259" style="fill: #1f77b4; stroke: #1f77b4"/>
     <use xlink:href="#m780facb3c0" x="153.836481" y="208.441266" style="fill: #1f77b4; stroke: #1f77b4"/>
     <use xlink:href="#m780facb3c0" x="160.462084" y="208.114242" style="fill: #1f77b4; stroke: #1f77b4"/>
     <use xlink:href="#m780facb3c0" x="167.087687" y="208.428466" style="fill: #1f77b4; stroke: #1f77b4"/>
     <use xlink:href="#m780facb3c0" x="173.71329" y="209.199652" style="fill: #1f77b4; stroke: #1f77b4"/>
     <use xlink:href="#m780facb3c0" x="180.338893" y="210.27522" style="fill: #1f77b4; stroke: #1f77b4"/>
     <use xlink:href="#m780facb3c0" x="186.964496" y="211.533362" style="fill: #1f77b4; stroke: #1f77b4"/>
     <use xlink:href="#m780facb3c0" x="193.590099" y="212.880078" style="fill: #1f77b4; stroke: #1f77b4"/>
     <use xlink:href="#m780facb3c0" x="200.215702" y="214.245304" style="fill: #1f77b4; stroke: #1f77b4"/>
     <use xlink:href="#m780facb3c0" x="206.841305" y="215.578853" style="fill: #1f77b4; stroke: #1f77b4"/>
     <use xlink:href="#m780facb3c0" x="213.466908" y="216.846548" style="fill: #1f77b4; stroke: #1f77b4"/>
     <use xlink:href="#m780facb3c0" x="220.092511" y="218.026766" style="fill: #1f77b4; stroke: #1f77b4"/>
     <use xlink:href="#m780facb3c0" x="226.718114" y="219.107467" style="fill: #1f77b4; stroke: #1f77b4"/>
     <use xlink:href="#m780facb3c0" x="233.343717" y="220.083721" style="fill: #1f77b4; stroke: #1f77b4"/>
     <use xlink:href="#m780facb3c0" x="239.96932" y="220.955703" style="fill: #1f77b4; stroke: #1f77b4"/>
     <use xlink:href="#m780facb3c0" x="246.594923" y="221.727107" style="fill: #1f77b4; stroke: #1f77b4"/>
     <use xlink:href="#m780facb3c0" x="253.220526" y="222.403916" style="fill: #1f77b4; stroke: #1f77b4"/>
     <use xlink:href="#m780facb3c0" x="259.846129" y="222.993468" style="fill: #1f77b4; stroke: #1f77b4"/>
     <use xlink:href="#m780facb3c0" x="266.471732" y="223.503768" style="fill: #1f77b4; stroke: #1f77b4"/>
     <use xlink:href="#m780facb3c0" x="273.097335" y="223.942993" style="fill: #1f77b4; stroke: #1f77b4"/>
     <use xlink:href="#m780facb3c0" x="279.722938" y="224.319144" style="fill: #1f77b4; stroke: #1f77b4"/>
     <use xlink:href="#m780facb3c0" x="286.348541" y="224.639825" style="fill: #1f77b4; stroke: #1f77b4"/>
     <use xlink:href="#m780facb3c0" x="292.974144" y="224.912097" style="fill: #1f77b4; stroke: #1f77b4"/>
     <use xlink:href="#m780facb3c0" x="299.599747" y="225.142407" style="fill: #1f77b4; stroke: #1f77b4"/>
     <use xlink:href="#m780facb3c0" x="306.22535" y="225.336559" style="fill: #1f77b4; stroke: #1f77b4"/>
     <use xlink:href="#m780facb3c0" x="312.850953" y="225.499718" style="fill: #1f77b4; stroke: #1f77b4"/>
     <use xlink:href="#m780facb3c0" x="319.476556" y="225.636437" style="fill: #1f77b4; stroke: #1f77b4"/>
     <use xlink:href="#m780facb3c0" x="326.102159" y="225.750694" style="fill: #1f77b4; stroke: #1f77b4"/>
     <use xlink:href="#m780facb3c0" x="332.727761" y="225.845944" style="fill: #1f77b4; stroke: #1f77b4"/>
     <use xlink:href="#m780facb3c0" x="339.353364" y="225.925166" style="fill: #1f77b4; stroke: #1f77b4"/>
     <use xlink:href="#m780facb3c0" x="345.978967" y="225.990916" style="fill: #1f77b4; stroke: #1f77b4"/>
     <use xlink:href="#m780facb3c0" x="352.60457" y="226.045376" style="fill: #1f77b4; stroke: #1f77b4"/>
     <use xlink:href="#m780facb3c0" x="359.230173" y="226.090398" style="fill: #1f77b4; stroke: #1f77b4"/>
     <use xlink:href="#m780facb3c0" x="365.855776" y="226.127553" style="fill: #1f77b4; stroke: #1f77b4"/>
     <use xlink:href="#m780facb3c0" x="372.481379" y="226.158164" style="fill: #1f77b4; stroke: #1f77b4"/>
     <use xlink:href="#m780facb3c0" x="379.106982" y="226.183345" style="fill: #1f77b4; stroke: #1f77b4"/>
     <use xlink:href="#m780facb3c0" x="385.732585" y="226.204027" style="fill: #1f77b4; stroke: #1f77b4"/>
    </g>
   </g>
   <g id="patch_3">
    <path d="M 44.845313 273.312 
L 44.845313 7.2 
" style="fill: none; stroke: #000000; stroke-width: 0.8; stroke-linejoin: miter; stroke-linecap: square"/>
   </g>
   <g id="patch_4">
    <path d="M 401.965312 273.312 
L 401.965312 7.2 
" style="fill: none; stroke: #000000; stroke-width: 0.8; stroke-linejoin: miter; stroke-linecap: square"/>
   </g>
   <g id="patch_5">
    <path d="M 44.845313 273.312 
L 401.965312 273.312 
" style="fill: none; stroke: #000000; stroke-width: 0.8; stroke-linejoin: miter; stroke-linecap: square"/>
   </g>
   <g id="patch_6">
    <path d="M 44.845313 7.2 
L 401.965312 7.2 
" style="fill: none; stroke: #000000; stroke-width: 0.8; stroke-linejoin: miter; stroke-linecap: square"/>
   </g>
  </g>
 </g>
 <defs>
  <clipPath id="p0ed434c319">
   <rect x="44.845313" y="7.2" width="357.12" height="266.112"/>
  </clipPath>
 </defs>
</svg>