<?xml version="1.0" encoding="utf-8" standalone="no"?>
<!DOCTYPE svg PUBLIC "-//W3C//DTD SVG 1.1//EN"
  "http://www.w3.org/Graphics/SVG/1.1/DTD/svg11.dtd">
<svg xmlns:xlink="http://www.w3.org/1999/xlink" width="413.302812pt" height="310.86825pt" viewBox="0 0 413.302812 310.86825" xmlns="http://www.w3.org/2000/svg" version="1.1">
 <metadata>
  <rdf:RDF xmlns:dc="http://purl.org/dc/elements/1.1/" xmlns:cc="http://creativecommons.org/ns#" xmlns:rdf="http://www.w3.org/1999/02/22-rdf-syntax-ns#">
   <cc:Work>
    <dc:type rdf:resource="http://purl.org/dc/dcmitype/StillImage"/>
    <dc:date>2023-09-03T08:33:32.656543</dc:date>
    <dc:format>image/svg+xml</dc:format>
    <dc:creator>
     <cc:Agent>
      <dc:title>Matplotlib v3.7.2, https://matplotlib.org/</dc:title>
     </cc:Agent>
    </dc:creator>
   </cc:Work>
  </rdf:RDF>
 </metadata>
 <defs>
  <style type="text/css">*{stroke-linejoin: round; stroke-linecap: butt}</style>
 </defs>
 <g id="figure_1">
  <g id="patch_1">
   <path d="M 0 310.86825 
L 413.302812 310.86825 
L 413.302812 0 
L 0 0 
z
" style="fill: #ffffff"/>
  </g>
  <g id="axes_1">
   <g id="patch_2">
    <path d="M 48.982813 273.312 
L 406.102813 273.312 
L 406.102813 7.2 
L 48.982813 7.2 
z
" style="fill: #ffffff"/>
   </g>
   <g id="matplotlib.axis_1">
    <g id="xtick_1">
     <g id="line2d_1">
      <defs>
       <path id="m9b5e9b41fb" d="M 0 0 
L 0 3.5 
" style="stroke: #000000; stroke-width: 0.8"/>
      </defs>
      <g>
       <use xlink:href="#m9b5e9b41fb" x="66.273777" y="273.312" style="stroke: #000000; stroke-width: 0.8"/>
      </g>
     </g>
     <g id="text_1">
      <!-- −50 -->
      <g transform="translate(55.721434 287.910437) scale(0.1 -0.1)">
       <defs>
        <path id="DejaVuSans-2212" d="M 678 2272 
L 4684 2272 
L 4684 1741 
L 678 1741 
L 678 2272 
z
" transform="scale(0.015625)"/>
        <path id="DejaVuSans-35" d="M 691 4666 
L 3169 4666 
L 3169 4134 
L 1269 4134 
L 1269 2991 
Q 1406 3038 1543 3061 
Q 1681 3084 1819 3084 
Q 2600 3084 3056 2656 
Q 3513 2228 3513 1497 
Q 3513 744 3044 326 
Q 2575 -91 1722 -91 
Q 1428 -91 1123 -41 
Q 819 9 494 109 
L 494 744 
Q 775 591 1075 516 
Q 1375 441 1709 441 
Q 2250 441 2565 725 
Q 2881 1009 2881 1497 
Q 2881 1984 2565 2268 
Q 2250 2553 1709 2553 
Q 1456 2553 1204 2497 
Q 953 2441 691 2322 
L 691 4666 
z
" transform="scale(0.015625)"/>
        <path id="DejaVuSans-30" d="M 2034 4250 
Q 1547 4250 1301 3770 
Q 1056 3291 1056 2328 
Q 1056 1369 1301 889 
Q 1547 409 2034 409 
Q 2525 409 2770 889 
Q 3016 1369 3016 2328 
Q 3016 3291 2770 3770 
Q 2525 4250 2034 4250 
z
M 2034 4750 
Q 2819 4750 3233 4129 
Q 3647 3509 3647 2328 
Q 3647 1150 3233 529 
Q 2819 -91 2034 -91 
Q 1250 -91 836 529 
Q 422 1150 422 2328 
Q 422 3509 836 4129 
Q 1250 4750 2034 4750 
z
" transform="scale(0.015625)"/>
       </defs>
       <use xlink:href="#DejaVuSans-2212"/>
       <use xlink:href="#DejaVuSans-35" x="83.789062"/>
       <use xlink:href="#DejaVuSans-30" x="147.412109"/>
      </g>
     </g>
    </g>
    <g id="xtick_2">
     <g id="line2d_2">
      <g>
       <use xlink:href="#m9b5e9b41fb" x="124.447773" y="273.312" style="stroke: #000000; stroke-width: 0.8"/>
      </g>
     </g>
     <g id="text_2">
      <!-- −40 -->
      <g transform="translate(113.895429 287.910437) scale(0.1 -0.1)">
       <defs>
        <path id="DejaVuSans-34" d="M 2419 4116 
L 825 1625 
L 2419 1625 
L 2419 4116 
z
M 2253 4666 
L 3047 4666 
L 3047 1625 
L 3713 1625 
L 3713 1100 
L 3047 1100 
L 3047 0 
L 2419 0 
L 2419 1100 
L 313 1100 
L 313 1709 
L 2253 4666 
z
" transform="scale(0.015625)"/>
       </defs>
       <use xlink:href="#DejaVuSans-2212"/>
       <use xlink:href="#DejaVuSans-34" x="83.789062"/>
       <use xlink:href="#DejaVuSans-30" x="147.412109"/>
      </g>
     </g>
    </g>
    <g id="xtick_3">
     <g id="line2d_3">
      <g>
       <use xlink:href="#m9b5e9b41fb" x="182.621769" y="273.312" style="stroke: #000000; stroke-width: 0.8"/>
      </g>
     </g>
     <g id="text_3">
      <!-- −30 -->
      <g transform="translate(172.069425 287.910437) scale(0.1 -0.1)">
       <defs>
        <path id="DejaVuSans-33" d="M 2597 2516 
Q 3050 2419 3304 2112 
Q 3559 1806 3559 1356 
Q 3559 666 3084 287 
Q 2609 -91 1734 -91 
Q 1441 -91 1130 -33 
Q 819 25 488 141 
L 488 750 
Q 750 597 1062 519 
Q 1375 441 1716 441 
Q 2309 441 2620 675 
Q 2931 909 2931 1356 
Q 2931 1769 2642 2001 
Q 2353 2234 1838 2234 
L 1294 2234 
L 1294 2753 
L 1863 2753 
Q 2328 2753 2575 2939 
Q 2822 3125 2822 3475 
Q 2822 3834 2567 4026 
Q 2313 4219 1838 4219 
Q 1578 4219 1281 4162 
Q 984 4106 628 3988 
L 628 4550 
Q 988 4650 1302 4700 
Q 1616 4750 1894 4750 
Q 2613 4750 3031 4423 
Q 3450 4097 3450 3541 
Q 3450 3153 3228 2886 
Q 3006 2619 2597 2516 
z
" transform="scale(0.015625)"/>
       </defs>
       <use xlink:href="#DejaVuSans-2212"/>
       <use xlink:href="#DejaVuSans-33" x="83.789062"/>
       <use xlink:href="#DejaVuSans-30" x="147.412109"/>
      </g>
     </g>
    </g>
    <g id="xtick_4">
     <g id="line2d_4">
      <g>
       <use xlink:href="#m9b5e9b41fb" x="240.795765" y="273.312" style="stroke: #000000; stroke-width: 0.8"/>
      </g>
     </g>
     <g id="text_4">
      <!-- −20 -->
      <g transform="translate(230.243421 287.910437) scale(0.1 -0.1)">
       <defs>
        <path id="DejaVuSans-32" d="M 1228 531 
L 3431 531 
L 3431 0 
L 469 0 
L 469 531 
Q 828 903 1448 1529 
Q 2069 2156 2228 2338 
Q 2531 2678 2651 2914 
Q 2772 3150 2772 3378 
Q 2772 3750 2511 3984 
Q 2250 4219 1831 4219 
Q 1534 4219 1204 4116 
Q 875 4013 500 3803 
L 500 4441 
Q 881 4594 1212 4672 
Q 1544 4750 1819 4750 
Q 2544 4750 2975 4387 
Q 3406 4025 3406 3419 
Q 3406 3131 3298 2873 
Q 3191 2616 2906 2266 
Q 2828 2175 2409 1742 
Q 1991 1309 1228 531 
z
" transform="scale(0.015625)"/>
       </defs>
       <use xlink:href="#DejaVuSans-2212"/>
       <use xlink:href="#DejaVuSans-32" x="83.789062"/>
       <use xlink:href="#DejaVuSans-30" x="147.412109"/>
      </g>
     </g>
    </g>
    <g id="xtick_5">
     <g id="line2d_5">
      <g>
       <use xlink:href="#m9b5e9b41fb" x="298.96976" y="273.312" style="stroke: #000000; stroke-width: 0.8"/>
      </g>
     </g>
     <g id="text_5">
      <!-- −10 -->
      <g transform="translate(288.417417 287.910437) scale(0.1 -0.1)">
       <defs>
        <path id="DejaVuSans-31" d="M 794 531 
L 1825 531 
L 1825 4091 
L 703 3866 
L 703 4441 
L 1819 4666 
L 2450 4666 
L 2450 531 
L 3481 531 
L 3481 0 
L 794 0 
L 794 531 
z
" transform="scale(0.015625)"/>
       </defs>
       <use xlink:href="#DejaVuSans-2212"/>
       <use xlink:href="#DejaVuSans-31" x="83.789062"/>
       <use xlink:href="#DejaVuSans-30" x="147.412109"/>
      </g>
     </g>
    </g>
    <g id="xtick_6">
     <g id="line2d_6">
      <g>
       <use xlink:href="#m9b5e9b41fb" x="357.143756" y="273.312" style="stroke: #000000; stroke-width: 0.8"/>
      </g>
     </g>
     <g id="text_6">
      <!-- 0 -->
      <g transform="translate(353.962506 287.910437) scale(0.1 -0.1)">
       <use xlink:href="#DejaVuSans-30"/>
      </g>
     </g>
    </g>
    <g id="text_7">
     <!-- Position(x), au -->
     <g transform="translate(191.806875 301.588562) scale(0.1 -0.1)">
      <defs>
       <path id="DejaVuSans-50" d="M 1259 4147 
L 1259 2394 
L 2053 2394 
Q 2494 2394 2734 2622 
Q 2975 2850 2975 3272 
Q 2975 3691 2734 3919 
Q 2494 4147 2053 4147 
L 1259 4147 
z
M 628 4666 
L 2053 4666 
Q 2838 4666 3239 4311 
Q 3641 3956 3641 3272 
Q 3641 2581 3239 2228 
Q 2838 1875 2053 1875 
L 1259 1875 
L 1259 0 
L 628 0 
L 628 4666 
z
" transform="scale(0.015625)"/>
       <path id="DejaVuSans-6f" d="M 1959 3097 
Q 1497 3097 1228 2736 
Q 959 2375 959 1747 
Q 959 1119 1226 758 
Q 1494 397 1959 397 
Q 2419 397 2687 759 
Q 2956 1122 2956 1747 
Q 2956 2369 2687 2733 
Q 2419 3097 1959 3097 
z
M 1959 3584 
Q 2709 3584 3137 3096 
Q 3566 2609 3566 1747 
Q 3566 888 3137 398 
Q 2709 -91 1959 -91 
Q 1206 -91 779 398 
Q 353 888 353 1747 
Q 353 2609 779 3096 
Q 1206 3584 1959 3584 
z
" transform="scale(0.015625)"/>
       <path id="DejaVuSans-73" d="M 2834 3397 
L 2834 2853 
Q 2591 2978 2328 3040 
Q 2066 3103 1784 3103 
Q 1356 3103 1142 2972 
Q 928 2841 928 2578 
Q 928 2378 1081 2264 
Q 1234 2150 1697 2047 
L 1894 2003 
Q 2506 1872 2764 1633 
Q 3022 1394 3022 966 
Q 3022 478 2636 193 
Q 2250 -91 1575 -91 
Q 1294 -91 989 -36 
Q 684 19 347 128 
L 347 722 
Q 666 556 975 473 
Q 1284 391 1588 391 
Q 1994 391 2212 530 
Q 2431 669 2431 922 
Q 2431 1156 2273 1281 
Q 2116 1406 1581 1522 
L 1381 1569 
Q 847 1681 609 1914 
Q 372 2147 372 2553 
Q 372 3047 722 3315 
Q 1072 3584 1716 3584 
Q 2034 3584 2315 3537 
Q 2597 3491 2834 3397 
z
" transform="scale(0.015625)"/>
       <path id="DejaVuSans-69" d="M 603 3500 
L 1178 3500 
L 1178 0 
L 603 0 
L 603 3500 
z
M 603 4863 
L 1178 4863 
L 1178 4134 
L 603 4134 
L 603 4863 
z
" transform="scale(0.015625)"/>
       <path id="DejaVuSans-74" d="M 1172 4494 
L 1172 3500 
L 2356 3500 
L 2356 3053 
L 1172 3053 
L 1172 1153 
Q 1172 725 1289 603 
Q 1406 481 1766 481 
L 2356 481 
L 2356 0 
L 1766 0 
Q 1100 0 847 248 
Q 594 497 594 1153 
L 594 3053 
L 172 3053 
L 172 3500 
L 594 3500 
L 594 4494 
L 1172 4494 
z
" transform="scale(0.015625)"/>
       <path id="DejaVuSans-6e" d="M 3513 2113 
L 3513 0 
L 2938 0 
L 2938 2094 
Q 2938 2591 2744 2837 
Q 2550 3084 2163 3084 
Q 1697 3084 1428 2787 
Q 1159 2491 1159 1978 
L 1159 0 
L 581 0 
L 581 3500 
L 1159 3500 
L 1159 2956 
Q 1366 3272 1645 3428 
Q 1925 3584 2291 3584 
Q 2894 3584 3203 3211 
Q 3513 2838 3513 2113 
z
" transform="scale(0.015625)"/>
       <path id="DejaVuSans-28" d="M 1984 4856 
Q 1566 4138 1362 3434 
Q 1159 2731 1159 2009 
Q 1159 1288 1364 580 
Q 1569 -128 1984 -844 
L 1484 -844 
Q 1016 -109 783 600 
Q 550 1309 550 2009 
Q 550 2706 781 3412 
Q 1013 4119 1484 4856 
L 1984 4856 
z
" transform="scale(0.015625)"/>
       <path id="DejaVuSans-78" d="M 3513 3500 
L 2247 1797 
L 3578 0 
L 2900 0 
L 1881 1375 
L 863 0 
L 184 0 
L 1544 1831 
L 300 3500 
L 978 3500 
L 1906 2253 
L 2834 3500 
L 3513 3500 
z
" transform="scale(0.015625)"/>
       <path id="DejaVuSans-29" d="M 513 4856 
L 1013 4856 
Q 1481 4119 1714 3412 
Q 1947 2706 1947 2009 
Q 1947 1309 1714 600 
Q 1481 -109 1013 -844 
L 513 -844 
Q 928 -128 1133 580 
Q 1338 1288 1338 2009 
Q 1338 2731 1133 3434 
Q 928 4138 513 4856 
z
" transform="scale(0.015625)"/>
       <path id="DejaVuSans-2c" d="M 750 794 
L 1409 794 
L 1409 256 
L 897 -744 
L 494 -744 
L 750 256 
L 750 794 
z
" transform="scale(0.015625)"/>
       <path id="DejaVuSans-20" transform="scale(0.015625)"/>
       <path id="DejaVuSans-61" d="M 2194 1759 
Q 1497 1759 1228 1600 
Q 959 1441 959 1056 
Q 959 750 1161 570 
Q 1363 391 1709 391 
Q 2188 391 2477 730 
Q 2766 1069 2766 1631 
L 2766 1759 
L 2194 1759 
z
M 3341 1997 
L 3341 0 
L 2766 0 
L 2766 531 
Q 2569 213 2275 61 
Q 1981 -91 1556 -91 
Q 1019 -91 701 211 
Q 384 513 384 1019 
Q 384 1609 779 1909 
Q 1175 2209 1959 2209 
L 2766 2209 
L 2766 2266 
Q 2766 2663 2505 2880 
Q 2244 3097 1772 3097 
Q 1472 3097 1187 3025 
Q 903 2953 641 2809 
L 641 3341 
Q 956 3463 1253 3523 
Q 1550 3584 1831 3584 
Q 2591 3584 2966 3190 
Q 3341 2797 3341 1997 
z
" transform="scale(0.015625)"/>
       <path id="DejaVuSans-75" d="M 544 1381 
L 544 3500 
L 1119 3500 
L 1119 1403 
Q 1119 906 1312 657 
Q 1506 409 1894 409 
Q 2359 409 2629 706 
Q 2900 1003 2900 1516 
L 2900 3500 
L 3475 3500 
L 3475 0 
L 2900 0 
L 2900 538 
Q 2691 219 2414 64 
Q 2138 -91 1772 -91 
Q 1169 -91 856 284 
Q 544 659 544 1381 
z
M 1991 3584 
L 1991 3584 
z
" transform="scale(0.015625)"/>
      </defs>
      <use xlink:href="#DejaVuSans-50"/>
      <use xlink:href="#DejaVuSans-6f" x="56.677734"/>
      <use xlink:href="#DejaVuSans-73" x="117.859375"/>
      <use xlink:href="#DejaVuSans-69" x="169.958984"/>
      <use xlink:href="#DejaVuSans-74" x="197.742188"/>
      <use xlink:href="#DejaVuSans-69" x="236.951172"/>
      <use xlink:href="#DejaVuSans-6f" x="264.734375"/>
      <use xlink:href="#DejaVuSans-6e" x="325.916016"/>
      <use xlink:href="#DejaVuSans-28" x="389.294922"/>
      <use xlink:href="#DejaVuSans-78" x="428.308594"/>
      <use xlink:href="#DejaVuSans-29" x="487.488281"/>
      <use xlink:href="#DejaVuSans-2c" x="526.501953"/>
      <use xlink:href="#DejaVuSans-20" x="558.289062"/>
      <use xlink:href="#DejaVuSans-61" x="590.076172"/>
      <use xlink:href="#DejaVuSans-75" x="651.355469"/>
     </g>
    </g>
   </g>
   <g id="matplotlib.axis_2">
    <g id="ytick_1">
     <g id="line2d_7">
      <defs>
       <path id="m3f62b3ad9c" d="M 0 0 
L -3.5 0 
" style="stroke: #000000; stroke-width: 0.8"/>
      </defs>
      <g>
       <use xlink:href="#m3f62b3ad9c" x="48.982813" y="252.64805" style="stroke: #000000; stroke-width: 0.8"/>
      </g>
     </g>
     <g id="text_8">
      <!-- −40 -->
      <g transform="translate(20.878125 256.447269) scale(0.1 -0.1)">
       <use xlink:href="#DejaVuSans-2212"/>
       <use xlink:href="#DejaVuSans-34" x="83.789062"/>
       <use xlink:href="#DejaVuSans-30" x="147.412109"/>
      </g>
     </g>
    </g>
    <g id="ytick_2">
     <g id="line2d_8">
      <g>
       <use xlink:href="#m3f62b3ad9c" x="48.982813" y="198.424464" style="stroke: #000000; stroke-width: 0.8"/>
      </g>
     </g>
     <g id="text_9">
      <!-- −30 -->
      <g transform="translate(20.878125 202.223683) scale(0.1 -0.1)">
       <use xlink:href="#DejaVuSans-2212"/>
       <use xlink:href="#DejaVuSans-33" x="83.789062"/>
       <use xlink:href="#DejaVuSans-30" x="147.412109"/>
      </g>
     </g>
    </g>
    <g id="ytick_3">
     <g id="line2d_9">
      <g>
       <use xlink:href="#m3f62b3ad9c" x="48.982813" y="144.200878" style="stroke: #000000; stroke-width: 0.8"/>
      </g>
     </g>
     <g id="text_10">
      <!-- −20 -->
      <g transform="translate(20.878125 148.000096) scale(0.1 -0.1)">
       <use xlink:href="#DejaVuSans-2212"/>
       <use xlink:href="#DejaVuSans-32" x="83.789062"/>
       <use xlink:href="#DejaVuSans-30" x="147.412109"/>
      </g>
     </g>
    </g>
    <g id="ytick_4">
     <g id="line2d_10">
      <g>
       <use xlink:href="#m3f62b3ad9c" x="48.982813" y="89.977291" style="stroke: #000000; stroke-width: 0.8"/>
      </g>
     </g>
     <g id="text_11">
      <!-- −10 -->
      <g transform="translate(20.878125 93.77651) scale(0.1 -0.1)">
       <use xlink:href="#DejaVuSans-2212"/>
       <use xlink:href="#DejaVuSans-31" x="83.789062"/>
       <use xlink:href="#DejaVuSans-30" x="147.412109"/>
      </g>
     </g>
    </g>
    <g id="ytick_5">
     <g id="line2d_11">
      <g>
       <use xlink:href="#m3f62b3ad9c" x="48.982813" y="35.753705" style="stroke: #000000; stroke-width: 0.8"/>
      </g>
     </g>
     <g id="text_12">
      <!-- 0 -->
      <g transform="translate(35.620313 39.552924) scale(0.1 -0.1)">
       <use xlink:href="#DejaVuSans-30"/>
      </g>
     </g>
    </g>
    <g id="text_13">
     <!-- Position(y), au -->
     <g transform="translate(14.798438 175.991937) rotate(-90) scale(0.1 -0.1)">
      <defs>
       <path id="DejaVuSans-79" d="M 2059 -325 
Q 1816 -950 1584 -1140 
Q 1353 -1331 966 -1331 
L 506 -1331 
L 506 -850 
L 844 -850 
Q 1081 -850 1212 -737 
Q 1344 -625 1503 -206 
L 1606 56 
L 191 3500 
L 800 3500 
L 1894 763 
L 2988 3500 
L 3597 3500 
L 2059 -325 
z
" transform="scale(0.015625)"/>
      </defs>
      <use xlink:href="#DejaVuSans-50"/>
      <use xlink:href="#DejaVuSans-6f" x="56.677734"/>
      <use xlink:href="#DejaVuSans-73" x="117.859375"/>
      <use xlink:href="#DejaVuSans-69" x="169.958984"/>
      <use xlink:href="#DejaVuSans-74" x="197.742188"/>
      <use xlink:href="#DejaVuSans-69" x="236.951172"/>
      <use xlink:href="#DejaVuSans-6f" x="264.734375"/>
      <use xlink:href="#DejaVuSans-6e" x="325.916016"/>
      <use xlink:href="#DejaVuSans-28" x="389.294922"/>
      <use xlink:href="#DejaVuSans-79" x="428.308594"/>
      <use xlink:href="#DejaVuSans-29" x="487.488281"/>
      <use xlink:href="#DejaVuSans-2c" x="526.501953"/>
      <use xlink:href="#DejaVuSans-20" x="558.289062"/>
      <use xlink:href="#DejaVuSans-61" x="590.076172"/>
      <use xlink:href="#DejaVuSans-75" x="651.355469"/>
     </g>
    </g>
   </g>
   <g id="line2d_12">
    <path d="M 357.143756 35.753705 
L 354.584984 36.175058 
L 350.183769 35.929877 
L 349.126961 40.575325 
L 344.461019 35.301665 
L 346.71896 35.858124 
L 348.349889 38.347107 
L 346.044732 42.974092 
L 340.839155 39.639611 
L 344.4844 45.008054 
L 342.507128 49.464291 
L 342.134197 48.187982 
L 342.728131 52.156478 
L 345.083513 50.931356 
L 344.704513 53.131455 
L 349.572442 57.648934 
L 345.439334 58.9658 
L 342.637952 57.705539 
L 344.901553 55.494363 
L 348.088162 59.016334 
L 350.953976 61.770362 
L 351.372857 64.794253 
L 355.004946 69.046527 
L 354.200258 67.596387 
L 356.497237 71.984495 
L 362.129872 74.262733 
L 361.506111 76.389294 
L 356.152928 79.159759 
L 354.140123 78.344553 
L 349.132095 73.672724 
L 345.627963 73.353825 
L 343.955432 74.878765 
L 348.738996 70.657613 
L 350.02351 73.046148 
L 346.007151 73.421953 
L 342.164285 73.453986 
L 337.168558 78.694336 
L 337.535163 79.86074 
L 343.31046 81.221464 
L 343.68986 82.418072 
L 346.874027 83.74609 
L 344.047785 84.211795 
L 347.577416 83.972912 
L 349.657429 82.86502 
L 346.578065 83.06378 
L 345.286676 79.843535 
L 342.599197 76.447675 
L 340.943309 78.275952 
L 345.825678 74.262611 
L 346.295539 70.733999 
L 350.565078 67.811988 
L 351.563966 65.231334 
L 346.388058 67.105014 
L 346.637865 71.187253 
L 343.235617 74.652776 
L 340.210259 76.048385 
L 337.762939 71.431102 
L 332.23344 70.72088 
L 333.774283 68.658847 
L 331.649519 63.379373 
L 332.830731 61.173733 
L 327.759172 62.447647 
L 324.755623 58.329192 
L 323.115079 61.199633 
L 327.129736 64.63152 
L 325.900814 60.150983 
L 320.369436 63.897305 
L 320.350506 64.399413 
L 325.856822 60.127794 
L 327.574266 65.212842 
L 323.916821 64.603553 
L 323.101513 59.561162 
L 322.656418 54.670665 
L 319.013305 50.855922 
L 320.686644 46.935305 
L 323.088088 45.597076 
L 319.394946 50.036561 
L 314.302481 53.861285 
L 311.151059 56.685276 
L 307.840752 57.251063 
L 309.583543 53.26387 
L 314.274639 56.75303 
L 319.663413 55.15948 
L 317.419379 52.255894 
L 314.607115 50.36627 
L 312.223307 49.816047 
L 307.426912 45.382333 
L 302.574345 42.616164 
L 299.763642 45.578227 
L 305.276479 49.238523 
L 308.555919 48.802086 
L 306.216885 52.702017 
L 311.408807 51.755767 
L 315.834649 52.191203 
L 313.458954 49.998034 
L 315.956897 51.047227 
L 315.673 51.219323 
L 320.868552 55.502387 
L 322.43289 55.780085 
L 326.183461 58.855534 
L 331.317507 55.780262 
L 334.476803 51.754719 
L 331.024841 54.547067 
L 326.306083 53.150829 
L 331.693761 56.567752 
L 328.261275 56.601641 
L 333.742295 55.214033 
L 336.528277 54.711778 
L 339.513393 53.49496 
L 342.760771 55.819575 
L 347.123882 53.11842 
L 344.794901 55.625955 
L 348.71209 56.415403 
L 348.701722 52.302555 
L 347.66209 51.712726 
L 349.989394 53.097024 
L 347.568851 50.679137 
L 349.790437 50.720336 
L 352.009807 48.814225 
L 352.88575 45.341526 
L 355.9102 42.923279 
L 360.488875 48.34093 
L 364.107658 51.953875 
L 359.151372 56.018932 
L 353.393366 60.412904 
L 357.454267 59.268567 
L 360.644676 60.135282 
L 362.573938 58.005907 
L 359.109396 63.023135 
L 354.470172 64.532119 
L 351.601114 61.285637 
L 355.933574 65.123318 
L 361.083874 60.304625 
L 366.094822 61.027734 
L 365.237143 62.438877 
L 369.897906 67.332374 
L 368.984815 62.605475 
L 371.754243 59.230285 
L 375.686731 61.652061 
L 376.629335 64.211914 
L 376.059663 65.491262 
L 370.519188 60.895988 
L 364.827935 63.078408 
L 369.886543 57.688947 
L 371.882149 58.569574 
L 370.505003 59.829684 
L 370.953623 57.974056 
L 367.304648 57.768078 
L 367.769939 61.479224 
L 363.804177 61.272524 
L 358.620404 63.020446 
L 362.239911 65.898512 
L 361.401337 63.381337 
L 366.867144 58.854138 
L 363.659665 62.075026 
L 363.226816 62.053321 
L 357.726353 60.710634 
L 362.166548 65.455162 
L 359.742197 62.766195 
L 362.970734 59.519358 
L 367.345846 58.639089 
L 365.185728 62.614217 
L 363.231743 61.947219 
L 358.735745 63.871685 
L 358.919294 67.122727 
L 354.121068 71.304062 
L 355.635057 74.813386 
L 353.935728 74.493524 
L 351.774579 77.97852 
L 353.515085 76.420005 
L 352.138394 71.580496 
L 346.461978 74.150888 
L 347.738972 71.462534 
L 352.990192 74.415492 
L 349.698652 75.247691 
L 344.389705 78.156451 
L 342.012329 75.027663 
L 336.784612 72.097224 
L 335.277309 77.042822 
L 332.913675 78.776125 
L 334.233787 77.423892 
L 329.725628 82.059873 
L 333.512934 83.558825 
L 335.805215 86.790252 
L 332.630623 89.014392 
L 332.759344 91.722356 
L 336.146987 86.404379 
L 338.881739 85.097009 
L 343.898787 80.881239 
L 339.498418 82.930073 
L 336.272648 80.792543 
L 341.998229 85.312112 
L 344.965176 87.400006 
L 343.80084 90.888127 
L 340.532132 86.937671 
L 345.664063 91.098518 
L 347.822058 94.655694 
L 353.536024 97.216657 
L 349.088339 100.782166 
L 347.413515 103.90592 
L 348.279981 98.891306 
L 351.877302 96.671079 
L 347.42396 97.968206 
L 352.973699 98.477083 
L 353.995722 101.342169 
L 348.991558 101.75436 
L 343.609446 101.409587 
L 347.591798 98.190081 
L 346.411711 95.50915 
L 341.837946 96.770355 
L 343.217425 101.097805 
L 341.852752 96.139403 
L 344.273996 95.203378 
L 346.292399 89.972411 
L 349.766815 88.539214 
L 350.209708 92.461211 
L 355.293866 88.375274 
L 358.615494 85.908123 
L 357.375064 85.517823 
L 352.037863 85.700853 
L 356.841849 87.814384 
L 354.351999 91.870431 
L 351.848685 90.510738 
L 349.813132 95.831756 
L 350.318792 98.397135 
L 353.570573 95.832751 
L 352.693081 95.340041 
L 352.897205 94.489432 
L 354.653457 90.043515 
L 354.279942 91.903649 
L 358.84661 95.14751 
L 357.974537 99.922521 
L 355.462905 97.316112 
L 357.533583 96.730177 
L 363.047498 95.693156 
L 359.756881 97.29328 
L 363.96836 96.954665 
L 368.894874 92.879319 
L 373.370824 94.466095 
L 377.04062 91.350448 
L 379.209594 89.813079 
L 376.996922 89.205004 
L 382.028257 84.023272 
L 382.37356 81.464608 
L 387.8391 83.748482 
L 387.733777 79.828318 
L 382.063075 83.474645 
L 386.291614 85.707228 
L 384.651411 82.068012 
L 389.870085 86.894309 
L 385.019232 85.137322 
L 380.070588 90.236133 
L 382.521347 92.930644 
L 379.806054 90.506736 
L 379.065661 94.013145 
L 377.978197 97.86402 
L 377.34424 95.542662 
L 382.270469 98.310161 
L 379.534395 97.68368 
L 377.88686 102.678429 
L 372.640053 99.994022 
L 373.141264 102.700957 
L 375.221322 106.264379 
L 370.695377 108.480617 
L 369.882707 107.821184 
L 369.057158 109.545276 
L 365.582529 104.54266 
L 360.686799 107.123569 
L 364.07666 108.213096 
L 369.405801 108.521624 
L 364.002717 112.527828 
L 362.196274 115.194026 
L 361.96934 120.206587 
L 356.245995 115.725195 
L 351.688121 111.247607 
L 357.495879 116.198184 
L 359.560915 111.453837 
L 359.712437 116.799052 
L 356.637194 119.025072 
L 351.27742 114.048102 
L 353.474975 114.887704 
L 349.152057 109.711493 
L 351.772535 113.157168 
L 346.612495 108.715531 
L 347.044338 106.910666 
L 352.076981 105.834331 
L 347.106683 111.017112 
L 341.806618 106.937607 
L 343.552341 104.922696 
L 339.113303 109.513932 
L 337.410437 112.068486 
L 339.761504 107.17758 
L 334.162884 104.449307 
L 329.704372 100.39971 
L 326.664957 96.206389 
L 329.136436 96.717085 
L 330.109056 101.819885 
L 332.878343 98.620018 
L 327.136314 102.963225 
L 332.648939 103.82855 
L 332.714357 104.17192 
L 328.772998 101.100905 
L 326.469081 99.489708 
L 331.869405 95.944119 
L 332.685246 97.07522 
L 326.999333 93.471591 
L 330.168046 95.977156 
L 331.94314 90.830339 
L 331.320283 87.089728 
L 334.853051 91.759375 
L 329.305538 93.457716 
L 324.232033 90.385512 
L 321.242874 94.663597 
L 320.123317 97.835158 
L 314.786032 96.429197 
L 311.94262 101.75167 
L 306.398818 107.033481 
L 311.592891 110.069069 
L 310.291332 105.07634 
L 308.208247 106.490705 
L 304.459811 102.167115 
L 301.492512 106.103059 
L 298.138896 103.427366 
L 292.83281 99.019522 
L 290.92757 94.592594 
L 293.094281 91.236506 
L 291.181752 87.985285 
L 288.796601 83.554575 
L 293.297317 83.946136 
L 289.650564 83.569584 
L 288.521378 88.474214 
L 293.900365 89.498558 
L 297.412659 86.788442 
L 301.617545 91.270427 
L 302.704414 87.123126 
L 297.961578 90.128483 
L 294.079857 87.294282 
L 297.271851 90.566064 
L 292.100496 86.521178 
L 282.179485 76.735138 
L 283.088667 76.004845 
L 284.876603 79.199054 
L 282.029634 73.931848 
L 284.657717 69.240923 
L 289.997089 65.384261 
L 293.927461 61.921465 
L 295.88846 57.36946 
L 298.602262 53.971374 
L 295.350998 55.012304 
L 295.586097 54.428621 
L 293.184421 57.547185 
L 293.757966 59.748559 
L 288.886836 63.913169 
L 284.610689 63.735013 
L 280.067756 60.989896 
L 284.682937 60.970154 
L 287.164824 65.2786 
L 284.816544 67.392175 
L 287.795322 71.606818 
L 290.022469 76.657016 
L 286.798903 75.036082 
L 292.713554 81.014543 
L 292.204849 81.593514 
L 290.848529 79.542174 
L 291.36386 75.61305 
L 287.985827 78.276123 
L 289.42859 80.375544 
L 294.661494 78.549565 
L 292.564187 78.401285 
L 291.790323 79.841582 
L 294.058013 81.422237 
L 289.936342 81.758077 
L 294.139128 81.405743 
L 290.407232 81.62758 
L 290.725463 77.394845 
L 294.432686 75.506115 
L 291.133412 77.764953 
L 288.745216 79.189169 
L 284.208097 81.083517 
L 281.270678 84.530745 
L 286.49302 89.609558 
L 281.832085 84.410146 
L 285.34519 80.50565 
L 289.550159 77.707769 
L 288.03311 80.513131 
L 285.405977 79.832785 
L 279.802881 77.095448 
L 274.300114 77.779417 
L 276.115144 73.113891 
L 271.876247 75.292686 
L 272.939711 70.062837 
L 275.79009 74.840885 
L 270.767888 72.045031 
L 273.107125 76.568033 
L 277.038036 74.509829 
L 274.531571 71.90093 
L 270.666738 71.143226 
L 270.954792 68.237601 
L 263.898706 71.961094 
L 263.594601 66.622202 
L 260.084084 68.269839 
L 258.223837 71.263908 
L 255.069179 67.36955 
L 251.43943 70.657234 
L 253.800979 73.216413 
L 250.778008 69.983224 
L 256.294457 74.806714 
L 255.827567 79.842495 
L 254.254189 81.49499 
L 250.150125 77.033119 
L 255.803416 75.840502 
L 260.038404 78.300545 
L 265.402974 76.647209 
L 270.375407 82.297893 
L 274.205451 78.387308 
L 275.696071 79.938253 
L 272.237828 79.436216 
L 269.990206 80.023639 
L 269.615982 78.178587 
L 264.265775 82.136821 
L 262.188907 85.748781 
L 260.314257 81.577998 
L 262.135759 78.407732 
L 256.783635 81.491122 
L 256.924983 82.198893 
L 260.522455 79.570856 
L 262.621744 77.267895 
L 261.930656 75.944411 
L 267.519013 74.377077 
L 264.200726 72.954616 
L 258.754953 73.475859 
L 262.931693 75.806274 
L 262.157562 77.70749 
L 260.682275 75.067553 
L 255.056397 78.315496 
L 258.0584 82.577574 
L 253.242566 85.445654 
L 257.983051 82.936143 
L 256.661579 90.029848 
L 262.021308 85.752442 
L 260.121691 88.410339 
L 260.276273 92.583794 
L 254.532524 90.677825 
L 258.579405 92.820399 
L 256.136393 87.641312 
L 261.762354 87.091628 
L 258.809082 84.14226 
L 261.003499 87.20139 
L 260.567711 84.954815 
L 256.567969 85.462978 
L 267.089931 85.610523 
L 269.296956 84.618262 
L 264.359031 81.745269 
L 265.951074 84.942371 
L 268.456276 80.53833 
L 270.464784 80.70286 
L 266.999237 77.360626 
L 268.523671 74.449275 
L 266.92611 77.136434 
L 264.015656 79.461445 
L 262.703326 79.153579 
L 267.679629 80.596539 
L 271.94412 76.964728 
L 275.070966 73.553761 
L 276.680371 78.318958 
L 271.64325 82.792172 
L 266.488878 80.658765 
L 262.510723 76.585637 
L 261.317171 81.933579 
L 266.079844 78.073569 
L 270.718378 75.698506 
L 275.403942 72.502317 
L 280.887977 70.980698 
L 278.090658 66.950352 
L 276.36564 61.553047 
L 281.044352 61.25013 
L 282.75628 62.986886 
L 288.23893 64.463856 
L 282.726185 63.327184 
L 284.731053 64.321173 
L 289.514565 65.147629 
L 294.364762 69.945356 
L 291.437276 67.594983 
L 286.263913 63.902409 
L 280.567687 65.47635 
L 281.34204 64.279144 
L 285.344926 67.007272 
L 288.460534 64.136978 
L 289.192006 64.212466 
L 292.945868 61.183957 
L 296.188275 58.33 
L 293.247253 58.805244 
L 291.360875 63.947414 
L 287.960011 67.80651 
L 283.049214 64.48891 
L 286.710177 61.663051 
L 288.402246 57.128728 
L 287.81076 57.394014 
L 289.701318 56.644416 
L 289.197137 58.839017 
L 287.522372 63.832405 
L 292.905628 58.511993 
L 295.592697 63.304052 
L 290.128428 65.731066 
L 285.293261 69.284101 
L 283.987164 66.221113 
L 288.658233 61.085046 
L 287.52402 61.118381 
L 293.212696 56.627488 
L 291.789564 52.301379 
L 293.560447 55.430471 
L 299.088001 51.636434 
L 303.011809 56.60578 
L 302.029554 54.05148 
L 297.975427 50.418201 
L 301.314745 52.487697 
L 297.776169 50.411545 
L 295.716628 52.332366 
L 298.537047 53.99872 
L 297.085056 48.834774 
L 300.768279 52.182717 
L 300.307073 55.580253 
L 299.529288 52.357657 
L 297.460928 49.692803 
L 302.740012 48.03958 
L 307.714449 48.171802 
L 308.018727 45.900524 
L 313.282398 48.005909 
L 318.577771 46.184797 
L 313.798128 42.343091 
L 308.756717 38.493648 
L 311.217602 42.678507 
L 312.392261 38.593826 
L 316.382121 42.313407 
L 320.521068 41.131997 
L 319.443968 40.971826 
L 322.016832 42.223622 
L 319.158236 43.870254 
L 323.420057 48.437629 
L 327.866402 45.584814 
L 322.28749 49.221307 
L 325.653523 44.159223 
L 321.632523 45.953389 
L 317.904796 41.575666 
L 312.915721 44.114419 
L 307.202537 48.952751 
L 303.920416 49.355987 
L 298.364101 50.824829 
L 296.396666 49.661962 
L 297.540986 48.901758 
L 297.061163 53.759115 
L 293.75055 58.665174 
L 294.707613 63.615771 
L 296.380605 61.625852 
L 298.222002 63.422347 
L 300.176463 62.003565 
L 296.922613 65.405027 
L 301.238047 62.859862 
L 306.732333 66.993142 
L 304.207831 63.892708 
L 302.997477 68.15729 
L 308.699617 68.85086 
L 311.244741 68.501143 
L 306.027345 69.182 
L 303.079384 70.631154 
L 304.317858 70.199736 
L 306.676321 73.428506 
L 308.065873 78.138206 
L 313.738998 81.569709 
L 310.186579 85.38505 
L 306.495445 80.12032 
L 307.253731 81.23538 
L 311.615476 83.158408 
L 308.500035 87.577232 
L 311.341399 91.828034 
L 313.102656 95.61302 
L 307.859197 100.106008 
L 309.935931 94.897071 
L 315.432202 98.285415 
L 313.847433 94.845606 
L 311.175471 92.864892 
L 316.949886 93.480509 
L 321.887819 93.705254 
L 321.648396 97.821158 
L 324.938989 93.813075 
L 326.175495 96.971135 
L 330.730371 99.713462 
L 334.185569 103.410143 
L 329.868739 99.028564 
L 331.106655 99.701004 
L 336.139075 96.416603 
L 341.821378 92.188546 
L 344.343927 92.32272 
L 347.6179 97.292628 
L 343.228721 93.53202 
L 348.52447 95.025263 
L 350.19982 94.01487 
L 346.87923 96.888604 
L 348.732991 101.881952 
L 353.035071 107.045445 
L 354.068888 110.253637 
L 358.059187 111.940933 
L 358.030937 107.965036 
L 358.520414 108.972314 
L 353.634783 110.806285 
L 354.590149 107.910635 
L 351.753286 104.454846 
L 346.092853 99.667606 
L 344.550614 103.152873 
L 349.223274 102.75694 
L 355.036099 104.104135 
L 351.166403 108.83089 
L 346.81863 113.826008 
L 350.368011 115.401825 
L 351.090786 116.120008 
L 349.069407 109.88204 
L 348.177208 114.552036 
L 346.732122 114.295277 
L 352.23777 117.702934 
L 351.252208 119.786679 
L 348.083916 124.878778 
L 344.094322 122.642702 
L 341.36213 118.825667 
L 339.975044 118.948979 
L 340.439507 122.761709 
L 342.628247 120.51836 
L 339.638092 117.821993 
L 333.848425 115.264052 
L 328.859573 109.987302 
L 329.362541 114.564799 
L 327.293171 113.662995 
L 321.730555 115.973664 
L 317.403968 118.733985 
L 322.118639 124.031792 
L 319.110736 124.223448 
L 323.129768 125.204712 
L 318.795324 124.589928 
L 319.401853 124.391683 
L 315.271034 121.266187 
L 315.784586 120.766887 
L 315.459771 121.315129 
L 318.909236 121.122653 
L 313.39646 123.026589 
L 310.507534 122.884505 
L 313.939647 125.472315 
L 317.301911 128.152941 
L 322.812466 127.410823 
L 327.788752 125.828745 
L 325.433237 120.78887 
L 324.364511 120.748195 
L 324.696043 121.010458 
L 329.532473 124.337177 
L 327.620368 126.342208 
L 332.456194 129.459695 
L 330.073578 129.514753 
L 324.974808 134.533173 
L 328.626449 138.693206 
L 331.813982 142.921254 
L 336.438548 141.867645 
L 340.776324 141.555536 
L 344.047859 136.384984 
L 338.635554 139.172284 
L 335.118551 138.025115 
L 330.600198 136.005457 
L 333.617586 131.223946 
L 328.826505 126.123851 
L 334.466202 130.168242 
L 332.032325 133.140112 
L 336.832069 138.370242 
L 341.881434 138.179842 
L 336.264863 135.397255 
L 330.745602 133.143707 
L 329.919434 130.373129 
L 326.513283 125.570369 
L 324.817703 125.008837 
L 319.415217 122.135028 
L 315.504088 120.557192 
L 312.373782 117.073472 
L 313.237716 118.416424 
L 316.503049 122.338202 
L 311.208348 117.20609 
L 308.887547 116.845373 
L 310.20751 115.339046 
L 315.069492 113.257992 
L 315.469325 116.911093 
L 311.694152 121.286227 
L 310.929587 125.519518 
L 314.879991 120.106282 
L 320.31089 125.295727 
L 323.328875 128.830616 
L 322.881685 129.248574 
L 324.446488 131.701833 
L 329.981398 130.014314 
L 324.676393 124.594047 
L 322.505717 129.218955 
L 322.454799 134.098675 
L 326.04394 138.832042 
L 323.565023 133.754318 
L 324.672709 129.51548 
L 329.924886 132.776159 
L 326.804302 134.155743 
L 321.333275 131.773194 
L 320.470042 133.670367 
L 324.36718 137.860678 
L 320.187582 138.752605 
L 317.812592 143.263056 
L 316.188924 138.636269 
L 321.04926 142.113841 
L 316.219336 147.808413 
L 317.016556 145.439758 
L 311.290693 150.203786 
L 307.890603 148.28799 
L 306.906227 143.807169 
L 307.686022 142.242822 
L 304.730342 142.375898 
L 299.44381 139.869347 
L 297.323781 135.873889 
L 298.666945 133.292874 
L 303.365025 132.175073 
L 308.548192 133.57697 
L 311.040134 137.931163 
L 316.696211 139.60649 
L 314.738588 144.239117 
L 318.169331 138.879247 
L 314.744048 144.11935 
L 316.894898 143.046002 
L 318.315797 140.130533 
L 320.126821 134.729068 
L 319.954448 130.469109 
L 316.112204 131.125508 
L 319.408455 131.940358 
L 317.539656 132.302707 
L 319.863759 127.008601 
L 323.37835 128.24512 
L 324.855541 123.713881 
L 328.099174 121.269825 
L 328.017542 118.266286 
L 325.405668 119.366084 
L 324.983088 118.096731 
L 322.165276 120.406698 
L 321.24346 116.050332 
L 317.792053 117.224386 
L 320.351233 114.834991 
L 323.561537 111.58303 
L 318.488155 107.503815 
L 320.02834 108.390516 
L 316.038764 103.480389 
L 313.104597 99.644394 
L 318.797802 101.080623 
L 323.151364 105.315937 
L 317.678804 104.064345 
L 312.927432 101.387518 
L 311.446071 102.7873 
L 311.776272 105.334397 
L 306.196112 108.934339 
L 310.319525 107.765265 
L 312.525621 106.802676 
L 314.031457 102.436544 
L 310.456424 104.09809 
L 307.646223 108.476801 
L 306.236093 110.458192 
L 301.616535 113.421426 
L 299.639763 117.247486 
L 302.259128 115.323296 
L 302.762872 113.842885 
L 297.879056 118.308641 
L 296.927001 116.563868 
L 291.474793 121.23447 
L 292.995367 120.919723 
L 297.083435 124.856306 
L 300.624386 122.071011 
L 300.74459 116.798708 
L 303.5543 118.425819 
L 302.072244 117.294953 
L 303.21997 115.891645 
L 306.590487 120.463618 
L 307.540918 122.938868 
L 307.48331 121.748249 
L 306.879624 119.239785 
L 303.341249 117.542481 
L 301.503106 113.93908 
L 300.899441 111.91536 
L 300.612345 106.811253 
L 303.604413 102.221748 
L 299.795864 100.486341 
L 296.298019 101.85922 
L 296.756429 102.75845 
L 291.392545 102.044415 
L 295.97589 97.049723 
L 297.633377 98.678384 
L 298.517171 97.818867 
L 302.859217 97.882732 
L 301.552942 98.924595 
L 301.250535 96.537667 
L 295.716424 96.418548 
L 292.586738 91.004124 
L 295.89886 90.075662 
L 291.291343 87.280709 
L 291.53853 89.370338 
L 295.459491 93.10532 
L 294.860376 92.924231 
L 289.938273 89.656977 
L 284.265568 89.18286 
L 280.555469 92.049131 
L 276.502465 96.938685 
L 275.577177 93.376944 
L 270.106398 95.252875 
L 272.925107 94.108896 
L 278.704516 92.29951 
L 280.320317 97.148821 
L 277.933581 91.880525 
L 279.342823 89.002303 
L 281.359456 93.978273 
L 281.460935 90.941761 
L 281.867753 93.900852 
L 281.533737 89.112502 
L 285.144332 84.368829 
L 285.275527 85.505678 
L 288.842313 85.307236 
L 285.55871 89.979086 
L 290.121569 92.864583 
L 288.847032 90.618158 
L 291.432228 95.35543 
L 287.451051 95.076829 
L 283.65145 92.689745 
L 284.463257 92.72166 
L 279.9843 88.310725 
L 274.422895 84.573583 
L 275.853723 81.144285 
L 271.952617 80.621979 
L 269.178969 85.355625 
L 269.865 79.934293 
L 267.366605 85.311093 
L 272.323454 82.585595 
L 272.651779 83.982516 
L 276.771063 79.118033 
L 272.503112 78.542185 
L 271.347037 77.523529 
L 268.224073 77.788502 
L 263.026306 75.773034 
L 263.830383 71.616431 
L 259.700576 71.723261 
L 257.856332 74.143267 
L 262.325914 74.700448 
L 267.309412 72.924323 
L 265.803714 76.231385 
L 270.664135 71.920082 
L 267.255336 72.926394 
L 270.061479 72.232071 
L 268.676202 75.805619 
L 265.497093 70.960751 
L 271.000836 76.029065 
L 271.125858 71.370937 
L 269.399362 67.556191 
L 267.53308 68.067048 
L 263.292455 71.210231 
L 268.122561 76.137414 
L 271.462206 77.37208 
L 270.378224 75.395634 
L 266.922268 77.109278 
L 261.943666 72.031206 
L 262.636399 75.428687 
L 260.344861 73.975053 
L 259.887427 70.315927 
L 257.782078 66.308474 
L 259.332892 61.033583 
L 255.01937 56.780508 
L 256.19473 53.397603 
L 251.400634 48.661334 
L 253.51888 45.479896 
L 253.238258 46.849435 
L 249.23298 50.483072 
L 249.254036 48.127406 
L 246.370307 43.447829 
L 243.419501 38.240415 
L 243.414172 34.219388 
L 238.974765 36.014182 
L 234.869823 40.557866 
L 238.017036 45.312177 
L 234.034203 44.740953 
L 234.293112 47.106258 
L 235.3627 47.535124 
L 234.616535 51.49624 
L 235.037856 47.069457 
L 230.575987 43.344558 
L 231.116191 40.519732 
L 235.477402 43.184428 
L 232.663134 39.499975 
L 233.394077 36.687686 
L 232.84321 38.142851 
L 227.623729 39.487403 
L 227.496889 40.632355 
L 227.646155 36.420211 
L 228.693552 35.841254 
L 227.888577 33.070175 
L 230.173683 29.993778 
L 234.880698 35.083431 
L 237.246373 32.661685 
L 233.102956 36.986207 
L 229.816374 35.05201 
L 225.20569 40.269869 
L 229.154268 38.305814 
L 231.298945 33.778697 
L 235.855874 30.717916 
L 236.474718 26.575824 
L 241.668851 25.812209 
L 243.467537 24.578239 
L 245.088191 24.193161 
L 250.303166 19.694874 
L 249.416433 23.624585 
L 249.574452 28.230501 
L 244.675094 24.499147 
L 250.291441 23.023618 
L 251.511128 26.75882 
L 251.167996 24.430247 
L 253.555998 28.66687 
L 256.162343 24.20014 
L 251.621581 26.879723 
L 252.90457 29.33468 
L 255.714872 30.008255 
L 258.562291 28.488752 
L 257.68786 29.490437 
L 262.298549 24.871362 
L 264.716136 23.69573 
L 260.549137 19.296 
L 260.306001 24.170684 
L 254.691043 23.291783 
L 249.299364 23.149532 
L 252.752429 25.200367 
L 257.860186 29.305148 
L 258.002991 29.076212 
L 263.652368 32.16721 
L 258.956315 28.996768 
L 255.753824 32.001783 
L 257.237233 34.912121 
L 260.817508 35.14402 
L 263.954267 37.634366 
L 265.447234 40.295454 
L 259.72922 41.896875 
L 263.167619 45.371104 
L 265.721749 44.264018 
L 260.024105 44.272521 
L 258.50668 47.228244 
L 252.933613 43.689113 
L 256.460499 47.511293 
L 252.116827 47.180703 
L 256.413991 49.591519 
L 261.630759 46.089322 
L 261.075727 44.252727 
L 260.289387 45.159664 
L 256.411664 50.213429 
L 254.345262 48.022862 
L 258.424897 51.72558 
L 259.767133 46.437327 
L 258.795149 44.459047 
L 250.603067 40.343737 
L 251.835293 39.220979 
L 256.759921 41.000807 
L 261.01831 37.054164 
L 265.449783 36.916835 
L 263.876328 33.285224 
L 269.035737 33.485582 
L 273.597731 37.436025 
L 270.577457 32.458898 
L 267.494288 28.276815 
L 273.253016 31.593519 
L 277.17037 31.614358 
L 271.770811 34.36209 
L 267.855944 33.787534 
L 267.672015 30.700638 
L 264.563891 29.934188 
L 267.271748 31.392638 
L 270.212628 31.384983 
L 272.369445 29.605593 
L 276.768959 24.92226 
L 272.862393 26.257183 
L 278.07656 29.997377 
L 275.746463 33.720599 
L 279.978484 30.629355 
L 285.718501 29.677079 
L 290.11067 33.850669 
L 291.541649 31.926046 
L 291.874761 36.905819 
L 295.102128 33.824693 
L 293.885794 35.704961 
L 299.199591 37.863992 
L 294.846694 38.823492 
L 292.014604 38.097017 
L 286.747203 40.746218 
L 286.701603 43.0123 
L 283.234826 39.568349 
L 288.629116 37.635005 
L 283.673576 40.700234 
L 285.994022 36.668659 
L 291.63781 41.661847 
L 296.223279 42.339812 
L 299.277354 40.418785 
L 301.696427 37.432109 
L 305.905213 42.367955 
L 302.754469 47.731835 
L 307.448253 44.708103 
L 307.512441 41.465861 
L 309.387966 36.41326 
L 309.352194 34.740873 
L 308.620146 37.86379 
L 306.922189 42.00104 
L 306.930099 46.48358 
L 302.703564 44.979494 
L 300.173725 43.664078 
L 297.394646 43.444119 
L 295.488628 47.488605 
L 293.516899 51.231849 
L 290.166102 47.36588 
L 284.732989 49.636636 
L 285.249655 52.236714 
L 283.020553 49.969293 
L 285.666288 52.341675 
L 285.827923 50.740975 
L 285.637438 46.048151 
L 282.264267 50.974683 
L 286.125808 53.314416 
L 284.427804 58.544286 
L 290.169756 59.919675 
L 294.080858 62.867669 
L 298.083722 61.262921 
L 300.64048 65.113188 
L 296.549131 68.00581 
L 302.033906 66.755574 
L 305.494866 68.325431 
L 307.540438 68.950484 
L 302.347425 65.032709 
L 296.74555 68.660497 
L 299.047854 65.211651 
L 294.700229 61.526024 
L 292.319057 63.571333 
L 291.339345 62.417045 
L 290.862393 65.247473 
L 290.314514 63.814282 
L 293.90807 60.437911 
L 295.720274 57.049754 
L 296.652809 56.637723 
L 296.452222 59.363386 
L 292.235629 61.191144 
L 297.572675 57.260832 
L 295.556302 58.398182 
L 292.687822 53.149495 
L 298.401594 52.29591 
L 294.454583 56.73329 
L 297.187771 57.632712 
L 298.384451 62.265647 
L 301.076774 62.977906 
L 296.912147 65.244329 
L 301.905811 65.372564 
L 305.954728 64.483745 
L 306.83891 69.757335 
L 306.62628 72.442487 
L 306.204791 69.103884 
L 301.893959 67.670144 
L 305.692014 70.194316 
L 305.580803 75.126543 
L 311.1187 75.487462 
L 313.191886 70.089259 
L 308.618346 73.415156 
L 312.369544 70.868009 
L 308.125483 67.143721 
L 306.346899 69.619208 
L 307.757438 71.68594 
L 304.910231 70.291584 
L 306.552189 69.567883 
L 307.227929 67.720051 
L 301.699991 67.510837 
L 300.961915 63.750826 
L 301.69673 62.116512 
L 300.750525 58.063291 
L 306.471975 55.732528 
L 304.792563 60.0943 
L 300.829554 58.632475 
L 295.929554 58.974547 
L 295.967405 64.310447 
L 296.589703 67.339713 
L 292.808253 72.731749 
L 291.613958 71.47607 
L 288.392914 67.30724 
L 285.516771 62.748069 
L 285.580446 64.04923 
L 289.787022 67.512084 
L 289.558589 71.551652 
L 287.812865 73.816272 
L 292.299465 68.962312 
L 288.687049 64.316459 
L 294.012688 64.185557 
L 293.824111 69.582561 
L 296.110313 74.086621 
L 301.874501 68.951641 
L 302.408434 67.950421 
L 305.310727 67.395288 
L 304.459137 71.230676 
L 304.807008 76.161575 
L 304.336873 76.708765 
L 303.056731 80.091196 
L 302.915951 79.675615 
L 305.54769 83.977226 
L 309.837954 80.57781 
L 313.617044 80.66046 
L 308.50034 78.445032 
L 313.055082 77.782903 
L 308.911706 82.261025 
L 309.058875 86.285421 
L 303.903998 85.152768 
L 298.267489 79.950082 
L 302.695976 84.009759 
L 303.739634 82.594328 
L 299.242466 80.177345 
L 305.058063 77.091005 
L 305.63805 79.609531 
L 310.146365 81.811344 
L 311.77752 87.090615 
L 310.729096 89.605807 
L 314.835657 94.306721 
L 318.268931 96.932035 
L 317.377635 99.591809 
L 318.484045 100.028157 
L 319.029248 95.869371 
L 320.516686 90.504603 
L 322.42779 88.365736 
L 318.840563 91.438977 
L 314.048499 92.690712 
L 317.010355 89.615275 
L 320.218275 84.947004 
L 324.203396 81.663855 
L 327.146366 84.735468 
L 325.754852 84.010078 
L 321.380881 89.179435 
L 326.269107 92.385946 
L 330.599107 88.220254 
L 326.632639 88.954148 
L 322.054443 93.523141 
L 321.583796 93.059067 
L 317.171951 96.402628 
L 321.552656 97.493737 
L 324.082404 97.858787 
L 325.760502 93.212011 
L 330.907751 96.59385 
L 329.549627 99.380338 
L 325.343645 97.379537 
L 324.562491 97.773786 
L 329.631045 94.992674 
L 332.854692 90.54691 
L 330.538482 95.557991 
L 328.393493 98.210521 
L 324.89594 95.97253 
L 327.736596 92.263696 
L 326.484789 87.498842 
L 330.377502 87.355719 
L 334.325226 90.012553 
L 339.40979 92.465667 
L 339.410291 89.244801 
L 340.163941 86.154505 
L 342.362503 87.861439 
L 348.041609 90.472001 
L 343.784755 89.586416 
L 344.101332 87.749669 
L 352.081055 82.531137 
L 347.519789 85.381558 
L 342.731852 83.166012 
L 339.598505 81.508936 
L 335.071365 79.728648 
L 333.349082 78.760018 
L 336.375481 75.385365 
L 330.79106 74.692525 
L 334.945092 78.357217 
L 333.741648 81.635581 
L 330.399519 78.436252 
L 334.617831 73.581145 
L 340.220849 73.26271 
L 335.163717 70.484028 
L 336.282573 73.297114 
L 333.726938 76.553143 
L 328.257758 77.877855 
L 330.085501 73.597346 
L 329.645527 75.149381 
L 327.253176 79.118314 
L 329.154916 80.39196 
L 324.344061 83.222854 
L 324.616957 86.692919 
L 330.385248 91.266996 
L 326.386866 92.368644 
L 327.856485 96.897621 
L 330.704555 101.153339 
L 336.231626 106.185246 
L 333.388979 102.718076 
L 337.129765 106.848259 
L 335.413299 111.336296 
L 333.512154 107.076488 
L 337.161994 112.261007 
L 333.320633 112.684752 
L 338.029702 109.885975 
L 341.288577 105.591827 
L 343.619635 109.189555 
L 335.845031 102.50215 
L 337.688029 100.394892 
L 338.571329 97.466737 
L 339.748234 94.829983 
L 337.162069 94.780498 
L 341.878779 91.761272 
L 336.737412 97.131938 
L 335.5776 96.791883 
L 330.218573 100.777694 
L 325.747519 98.112754 
L 321.180069 94.645739 
L 322.356118 89.600793 
L 318.846047 94.318092 
L 319.436616 89.436988 
L 316.55333 85.660976 
L 316.125297 85.826643 
L 312.776442 81.867566 
L 315.647476 84.524518 
L 315.763284 85.096829 
L 313.44207 89.562093 
L 317.908991 86.783853 
L 314.607627 83.209692 
L 316.155848 83.558653 
L 313.869706 87.645504 
L 312.381916 92.177568 
L 311.335146 95.857824 
L 315.972111 98.188603 
L 311.757804 94.079012 
L 314.786892 96.43067 
L 317.145282 92.79388 
L 320.819635 87.672885 
L 319.010655 85.356522 
L 320.925277 85.730519 
L 323.975883 89.688668 
L 322.97652 94.633352 
L 323.085372 96.814159 
L 320.011941 97.384708 
L 323.888696 95.759469 
L 324.526957 100.055609 
L 321.74669 98.450207 
L 321.886704 98.154173 
L 324.435622 102.699146 
L 322.397345 97.653749 
L 327.881378 94.261408 
L 325.844731 88.932932 
L 322.321962 86.311735 
L 326.222697 89.169567 
L 327.436092 84.490654 
L 324.659364 83.011067 
L 320.69562 86.80052 
L 319.153282 86.354322 
L 313.741282 89.243433 
L 317.724298 84.220002 
L 318.323487 86.162813 
L 316.737004 81.010966 
L 314.858356 77.052674 
L 315.14398 81.230955 
L 316.422854 79.964533 
L 315.363007 80.548396 
L 319.510677 83.41128 
L 320.36767 80.060694 
L 325.484609 75.597796 
L 323.050213 75.045114 
L 328.779525 74.701466 
L 334.155218 77.528651 
L 334.470185 80.249173 
L 335.182667 77.781754 
L 332.437182 73.532433 
L 336.045271 72.54345 
L 340.175859 74.828033 
L 342.492308 72.70566 
L 337.667787 75.594922 
L 339.192625 70.759302 
L 338.35243 69.269252 
L 339.47074 68.35678 
L 334.23099 65.540959 
L 333.965961 65.893255 
L 333.201445 63.990036 
L 330.744047 67.306761 
L 331.964935 66.021405 
L 328.652784 70.102412 
L 323.751459 69.859427 
L 318.371637 70.576653 
L 315.152285 73.236395 
L 310.06456 78.599872 
L 308.298198 83.886188 
L 305.384912 85.937865 
L 303.359336 88.86855 
L 300.785189 94.01003 
L 296.235681 90.376267 
L 295.912069 95.120143 
L 290.928717 95.823256 
L 289.61548 90.695137 
L 288.565861 93.460803 
L 292.961654 88.155389 
L 294.744868 93.284663 
L 289.173388 98.446175 
L 283.638902 97.419533 
L 286.309444 102.57808 
L 287.69274 107.307299 
L 291.173159 108.795785 
L 286.33812 105.030348 
L 290.358801 105.18336 
L 290.372724 101.490641 
L 284.69732 104.411837 
L 284.858696 108.795524 
L 280.497241 104.336919 
L 279.790145 101.954935 
L 280.024519 96.734659 
L 275.665223 97.835512 
L 272.484615 98.388214 
L 275.149587 93.346248 
L 270.502321 98.130376 
L 276.011025 102.066178 
L 270.57447 98.02065 
L 272.172052 102.521795 
L 266.891756 101.042452 
L 267.063567 103.394127 
L 264.751269 98.742869 
L 264.362158 96.500511 
L 259.545908 94.21037 
L 258.787429 89.32872 
L 254.236977 92.787707 
L 254.687076 88.659842 
L 251.403805 86.930707 
L 252.124478 88.965755 
L 251.929063 85.905448 
L 249.749817 90.434597 
L 251.512652 92.501656 
L 253.736634 97.319958 
L 253.363501 92.295964 
L 254.910108 94.744693 
L 254.557353 96.801074 
L 256.494175 93.944302 
L 255.17134 88.974751 
L 254.4775 85.379126 
L 257.804356 83.945979 
L 259.123686 79.920037 
L 263.54809 76.747525 
L 268.165465 80.918117 
L 264.94106 81.391172 
L 264.886273 82.006603 
L 270.692475 84.391391 
L 272.237229 79.573135 
L 268.485413 81.800687 
L 273.556274 86.698018 
L 269.515011 81.283828 
L 275.749523 84.059128 
L 277.415071 79.899483 
L 277.991201 81.650072 
L 277.155821 80.385628 
L 272.532737 83.500593 
L 271.592956 80.141881 
L 273.884462 82.305851 
L 271.021289 80.219957 
L 270.998899 78.993458 
L 265.431919 78.912366 
L 265.009435 83.534931 
L 264.772653 78.144262 
L 260.368089 73.130949 
L 256.461091 77.189023 
L 255.107635 74.321317 
L 258.696825 79.633192 
L 263.198711 84.049739 
L 262.612756 81.583467 
L 258.66013 81.691013 
L 261.148275 79.492918 
L 255.638805 74.251823 
L 253.592258 77.695001 
L 248.698341 78.355558 
L 254.37118 76.950957 
L 249.632787 76.733345 
L 260.345236 67.361577 
L 258.51862 63.988753 
L 255.944494 58.963154 
L 255.546273 55.739951 
L 257.561846 55.466415 
L 252.404372 57.673858 
L 250.438862 61.812374 
L 251.360466 57.688184 
L 246.31258 59.955807 
L 244.369828 57.350651 
L 240.488373 54.933992 
L 237.808027 54.014668 
L 235.651979 48.979594 
L 234.92213 51.322503 
L 229.470508 51.036563 
L 226.435498 55.72347 
L 227.783962 57.464384 
L 229.74072 62.348098 
L 225.782261 67.641048 
L 228.604795 62.468354 
L 224.009928 62.393959 
L 229.53031 61.650973 
L 233.866404 60.263135 
L 228.386793 61.931049 
L 232.066274 61.108781 
L 232.96821 65.557883 
L 230.573425 67.012546 
L 234.489907 66.832523 
L 232.446066 69.531692 
L 229.708933 71.186398 
L 226.489846 69.313698 
L 222.232621 69.244081 
L 217.408126 66.202667 
L 218.664267 67.450935 
L 223.920886 64.188591 
L 220.227216 60.990123 
L 215.134817 63.608839 
L 211.343945 64.685722 
L 213.724053 63.824081 
L 209.983976 60.69347 
L 207.330426 61.440767 
L 210.385397 62.224677 
L 214.124024 57.818831 
L 219.268346 56.668994 
L 217.549718 53.45454 
L 215.770061 52.257202 
L 210.323939 48.906101 
L 205.935948 48.406795 
L 209.974315 43.646467 
L 215.640153 41.060631 
L 213.233455 39.380638 
L 215.027449 42.088865 
L 214.587545 41.614411 
L 212.965571 41.098284 
L 210.40857 43.232322 
L 204.912834 46.356465 
L 200.887945 45.61014 
L 200.567581 49.151051 
L 203.654905 52.835244 
L 206.723603 49.340944 
L 208.937074 50.906654 
L 204.756436 45.605688 
L 203.210431 43.169494 
L 197.640264 37.907464 
L 199.696268 42.988825 
L 195.337175 45.719512 
L 197.836135 50.230202 
L 203.514573 44.826021 
L 204.261166 39.859256 
L 199.572276 38.0257 
L 199.908383 41.474452 
L 202.751153 40.703564 
L 199.628833 35.309957 
L 194.738767 30.390361 
L 190.903998 28.243057 
L 190.825857 32.947105 
L 196.183216 35.242304 
L 194.666441 39.241357 
L 190.727137 44.063572 
L 192.501622 45.875064 
L 189.782644 50.632238 
L 185.255274 50.548964 
L 187.594707 47.789551 
L 188.702077 49.065175 
L 192.4807 45.293271 
L 196.701864 41.905207 
L 193.814222 44.99511 
L 198.869055 44.32604 
L 200.482383 45.052973 
L 195.623324 47.113359 
L 193.652774 44.978979 
L 189.015365 44.000789 
L 184.669387 45.867609 
L 183.599293 51.154061 
L 188.508209 50.54708 
L 184.553353 50.87431 
L 188.245754 50.425961 
L 188.762173 51.868328 
L 190.405003 49.369882 
L 196.181806 52.610456 
L 191.934938 54.952773 
L 195.305893 50.887592 
L 195.565628 51.969316 
L 195.988913 49.696892 
L 196.001202 51.566449 
L 194.96167 55.843724 
L 196.584748 57.607935 
L 195.578565 58.169669 
L 190.597441 58.80976 
L 185.834532 58.041016 
L 187.650865 60.11832 
L 189.876078 63.268185 
L 184.509461 63.475623 
L 188.474551 68.555973 
L 189.79998 68.33611 
L 192.136484 65.851624 
L 188.395288 62.822324 
L 189.605857 67.194512 
L 190.031986 71.544329 
L 193.395066 72.637782 
L 195.471016 76.34994 
L 193.56009 72.417599 
L 190.607966 68.766506 
L 195.266501 67.042119 
L 198.019188 66.153728 
L 193.923448 67.738845 
L 194.508467 71.344934 
L 194.460263 74.400254 
L 190.000676 78.327599 
L 186.495937 82.335223 
L 188.693494 81.407985 
L 189.864537 78.371642 
L 187.633408 78.572821 
L 187.394738 77.756404 
L 188.861499 74.421534 
L 190.679937 71.060847 
L 189.852836 66.836129 
L 193.734788 70.522384 
L 197.027222 71.01608 
L 198.922796 68.499164 
L 193.837044 69.339689 
L 195.368914 71.633455 
L 197.217056 70.745746 
L 193.074649 69.897225 
L 187.777629 74.074499 
L 183.008707 75.19408 
L 178.443794 75.584557 
L 180.08072 74.613488 
L 177.617834 76.853816 
L 181.253868 80.261907 
L 173.964629 90.220792 
L 170.377062 91.746044 
L 173.150341 90.655515 
L 173.451366 93.112269 
L 174.17249 93.621033 
L 169.970241 90.065266 
L 166.883585 85.755303 
L 169.702889 81.444267 
L 169.899317 84.024077 
L 170.745756 88.344772 
L 163.84071 82.030916 
L 166.085057 86.955849 
L 165.743803 90.854419 
L 161.275436 94.176665 
L 156.960267 94.28254 
L 159.404703 96.978215 
L 162.247289 101.677686 
L 159.561869 104.233768 
L 153.958782 103.147216 
L 149.914426 98.819243 
L 144.770201 102.618825 
L 140.596414 100.079498 
L 137.58559 104.025192 
L 139.670667 105.941868 
L 134.754407 100.988539 
L 139.069107 103.2208 
L 144.006075 106.491818 
L 141.135552 111.1038 
L 136.392125 107.092919 
L 139.947502 102.344622 
L 139.081991 99.376883 
L 143.897961 96.262824 
L 140.078178 94.545537 
L 141.140235 99.231286 
L 144.347229 103.696382 
L 139.249317 108.008254 
L 135.485344 105.025642 
L 135.382308 105.872311 
L 131.759163 106.334879 
L 135.861849 106.788922 
L 137.892089 104.655484 
L 135.521154 105.05144 
L 138.866767 109.362181 
L 141.808016 112.004702 
L 139.104833 110.972492 
L 133.892656 115.1555 
L 131.275068 112.510898 
L 129.157484 113.794497 
L 128.342462 109.468043 
L 130.788359 108.590609 
L 135.577907 113.11719 
L 136.286218 116.332286 
L 141.014247 118.628925 
L 145.709436 119.49157 
L 144.155077 121.213752 
L 140.274482 124.165736 
L 142.128451 126.886059 
L 147.021215 123.300126 
L 147.945275 122.760864 
L 152.221787 117.701153 
L 157.613353 116.492214 
L 162.799898 120.447667 
L 162.452559 118.713095 
L 167.259892 117.680818 
L 163.838433 116.107601 
L 168.737692 121.156693 
L 169.219643 123.519297 
L 169.811498 125.762955 
L 173.561378 126.565876 
L 172.217708 124.041072 
L 171.212704 121.747261 
L 170.755203 118.157873 
L 167.477748 117.648041 
L 165.594033 113.102396 
L 166.104367 113.354307 
L 168.592991 113.542549 
L 170.781179 108.898863 
L 170.010713 108.237931 
L 174.784357 105.293901 
L 175.010361 110.681022 
L 180.675736 110.760145 
L 182.46823 110.428355 
L 178.465435 105.42282 
L 178.725829 105.953337 
L 178.311321 106.115156 
L 176.501447 103.44616 
L 177.023263 99.889545 
L 174.187981 98.93669 
L 179.020875 94.309601 
L 182.639298 89.746814 
L 186.129974 84.603965 
L 182.421853 85.558524 
L 184.514605 80.648812 
L 184.613726 77.916886 
L 189.69914 76.162052 
L 186.698073 71.515211 
L 182.982326 66.797527 
L 183.486795 68.030344 
L 182.382916 72.265382 
L 182.099801 71.967566 
L 180.176351 71.695497 
L 174.702033 67.431061 
L 171.664073 63.399758 
L 167.784501 61.03321 
L 164.889792 58.819431 
L 168.317544 54.6492 
L 163.340027 51.933881 
L 157.21146 53.785341 
L 158.698853 55.322733 
L 157.852591 59.293384 
L 153.378951 63.649434 
L 153.154828 67.969703 
L 157.370597 65.692026 
L 162.635478 67.475388 
L 164.989239 65.805978 
L 168.410291 62.939709 
L 170.232419 60.877388 
L 170.643176 63.471386 
L 168.572768 67.291397 
L 167.45379 68.292816 
L 168.567798 67.34125 
L 167.749614 71.365346 
L 168.726797 76.501976 
L 172.460936 81.830151 
L 169.701538 77.582733 
L 166.67394 77.957509 
L 164.387455 75.272115 
L 168.590195 77.965443 
L 172.298917 83.092961 
L 177.177893 83.928697 
L 172.781827 78.525839 
L 172.870144 76.572323 
L 169.274882 71.360062 
L 163.867958 72.66453 
L 158.831444 76.938916 
L 163.398031 81.473923 
L 163.467852 84.24692 
L 162.216953 86.488224 
L 159.718201 86.7121 
L 154.526937 83.562307 
L 152.900768 84.051962 
L 158.293795 81.645891 
L 155.807811 82.802631 
L 150.658407 85.862047 
L 154.38061 87.864532 
L 156.181498 87.987867 
L 160.189379 91.465979 
L 158.57199 91.541676 
L 160.258957 94.597387 
L 162.587689 94.773445 
L 160.710462 99.642173 
L 163.0713 99.563421 
L 157.916326 100.737832 
L 152.103211 102.610906 
L 150.178176 104.709817 
L 147.454966 108.332368 
L 147.36179 112.28498 
L 146.595599 112.042805 
L 148.710072 111.544387 
L 146.004629 113.145828 
L 151.087179 113.909254 
L 147.32326 114.223474 
L 146.767043 118.897088 
L 145.143627 120.898593 
L 139.93743 121.584607 
L 138.826226 122.904092 
L 135.562234 128.071455 
L 137.916846 125.506107 
L 134.533707 129.109655 
L 132.350727 128.29811 
L 134.342292 124.773051 
L 133.138062 121.625727 
L 135.428778 126.015043 
L 131.758962 129.668582 
L 133.158802 124.990389 
L 130.51101 130.013096 
L 125.291273 127.111371 
L 127.291461 122.533619 
L 126.386805 119.693696 
L 130.141481 119.353582 
L 128.126552 120.808757 
L 129.008628 119.134562 
L 126.397855 115.849112 
L 128.387685 120.11657 
L 134.183268 116.053844 
L 139.22467 120.704832 
L 143.572572 122.594081 
L 143.732891 117.643301 
L 138.812876 115.399868 
L 135.393073 120.119778 
L 137.118585 124.96375 
L 142.680362 120.084215 
L 138.600241 120.196179 
L 140.343332 119.707378 
L 140.539778 119.291774 
L 144.93752 113.873826 
L 148.066025 117.104156 
L 149.166971 116.670895 
L 145.559342 113.489834 
L 144.19214 117.730124 
L 143.528938 112.75178 
L 142.923436 110.602694 
L 148.347548 113.037518 
L 143.437226 110.008533 
L 147.928893 109.91955 
L 150.786543 107.96366 
L 146.428542 106.784663 
L 150.827138 111.748751 
L 156.207065 114.864448 
L 157.913381 114.602859 
L 156.847623 115.888492 
L 156.459838 114.313461 
L 155.148039 114.801494 
L 155.131405 118.287809 
L 158.67315 118.254133 
L 163.740235 117.146475 
L 168.691797 121.938601 
L 163.584392 126.835413 
L 165.998534 125.146827 
L 167.020165 121.32004 
L 168.223555 119.806422 
L 166.210024 119.930935 
L 161.25191 121.347826 
L 158.448896 120.613033 
L 160.559993 120.348649 
L 161.838155 121.192598 
L 162.352283 123.200144 
L 161.240585 127.488913 
L 166.436536 123.504359 
L 171.91761 127.885916 
L 173.491383 127.079258 
L 176.110097 126.104467 
L 173.21697 122.943423 
L 171.060023 127.80213 
L 176.75 123.753581 
L 179.635243 126.310951 
L 177.467432 127.573274 
L 180.426053 122.245348 
L 175.88316 122.177607 
L 171.557614 118.006317 
L 174.268259 114.579198 
L 178.70622 116.307337 
L 174.732877 114.858174 
L 175.58148 112.136136 
L 178.111183 110.991841 
L 179.343034 114.05674 
L 175.094489 109.768812 
L 171.223963 109.208465 
L 170.27266 109.389617 
L 171.029734 109.64694 
L 167.390125 104.67495 
L 162.457791 103.912672 
L 165.972816 107.661828 
L 167.224433 104.481783 
L 169.343705 106.004835 
L 167.89721 110.586189 
L 163.426231 106.642552 
L 161.980716 102.276074 
L 165.891959 103.639374 
L 163.617069 98.621294 
L 163.893309 97.324787 
L 161.135258 101.430292 
L 155.753806 105.304572 
L 151.098987 102.828684 
L 151.482894 106.61647 
L 149.957305 101.901678 
L 148.172869 102.386316 
L 153.787847 103.406501 
L 156.207777 102.370944 
L 160.046592 97.807308 
L 156.82746 97.654504 
L 158.766753 101.305791 
L 162.685427 105.965189 
L 167.764633 105.229532 
L 166.874708 105.919326 
L 165.147461 107.581547 
L 159.993395 109.015056 
L 159.887521 108.234105 
L 163.528174 106.869819 
L 159.030604 104.847067 
L 157.844476 107.091715 
L 158.527763 111.025278 
L 157.268047 111.298507 
L 154.217183 114.527236 
L 152.293183 116.216353 
L 155.05608 116.642317 
L 159.258914 114.774869 
L 160.133652 114.717039 
L 156.613827 110.449861 
L 156.908151 108.053405 
L 154.623018 111.557246 
L 155.260238 109.933657 
L 155.039658 105.862821 
L 156.001404 109.887736 
L 156.151589 114.205134 
L 153.225708 111.67515 
L 149.36392 115.436396 
L 147.671112 112.264198 
L 146.646972 109.264229 
L 147.529446 108.702934 
L 141.837434 108.171909 
L 141.924249 110.091313 
L 140.661042 114.160497 
L 136.605371 116.972206 
L 132.87939 121.222956 
L 130.133805 119.990995 
L 128.459624 120.087042 
L 129.653897 118.346407 
L 135.265375 120.842601 
L 139.684976 125.321435 
L 140.106276 129.777293 
L 137.69193 135.117289 
L 138.08487 131.623295 
L 132.313289 126.276001 
L 130.892495 123.362406 
L 133.365575 125.180315 
L 135.696015 125.11405 
L 138.64734 124.831532 
L 139.074975 120.417464 
L 143.171296 119.165065 
L 142.958047 123.731387 
L 143.154658 121.917353 
L 142.589735 120.968644 
L 146.166395 122.800328 
L 145.477547 118.353152 
L 146.31294 121.861292 
L 150.774612 120.218882 
L 155.691462 120.822841 
L 157.04197 117.395753 
L 159.935525 116.678772 
L 155.997829 117.221571 
L 153.741473 112.942739 
L 152.583777 112.481087 
L 153.975468 117.737859 
L 150.136013 113.871261 
L 150.087278 111.411176 
L 145.399026 115.946719 
L 151.048172 116.665192 
L 152.406683 121.360881 
L 155.10846 119.962168 
L 157.365911 120.424882 
L 162.842023 116.884512 
L 158.970813 120.610519 
L 157.82337 116.982663 
L 154.578493 116.223935 
L 153.029064 120.42651 
L 150.682963 124.648216 
L 156.046253 120.66129 
L 152.596793 120.960432 
L 146.926016 122.949308 
L 146.788472 120.438093 
L 144.834712 126.62132 
L 149.889395 123.313579 
L 145.630616 120.474333 
L 145.666068 125.312578 
L 141.806697 119.894187 
L 142.151198 119.072099 
L 146.01177 117.52073 
L 148.295117 116.37966 
L 147.518364 116.670867 
L 152.104836 114.321982 
L 154.267324 121.926177 
L 160.019601 117.906969 
L 158.225545 118.339755 
L 158.282756 113.130758 
L 153.950381 109.049976 
L 155.316896 109.208521 
L 160.354845 110.589686 
L 161.009986 112.272542 
L 157.387273 111.819517 
L 155.852916 111.107874 
L 154.375697 111.520263 
L 160.049052 106.49262 
L 162.505382 103.515413 
L 163.695971 99.289839 
L 169.231935 103.552365 
L 165.288742 108.546718 
L 162.038088 110.669112 
L 157.78749 110.342302 
L 154.922953 109.861636 
L 156.404062 113.41695 
L 154.431174 111.133854 
L 151.186842 115.644067 
L 151.903562 115.870204 
L 150.973148 114.955984 
L 148.331619 115.908846 
L 151.185977 112.982687 
L 147.7483 108.307648 
L 148.325269 108.307267 
L 148.716501 110.405002 
L 150.640994 105.199508 
L 148.191795 107.148714 
L 146.705569 102.191502 
L 143.775762 100.93092 
L 144.66988 99.076005 
L 139.424174 96.282099 
L 138.553676 96.292724 
L 135.086034 94.190922 
L 131.158008 96.997804 
L 126.493087 98.487561 
L 125.504565 103.683519 
L 126.370441 103.280511 
L 126.890332 107.620517 
L 130.95369 103.319147 
L 128.726279 102.972163 
L 127.109166 99.722854 
L 132.367789 104.725823 
L 136.361083 102.258593 
L 138.625081 97.620418 
L 139.243008 97.476373 
L 133.837349 101.542449 
L 134.206067 99.71439 
L 136.206919 104.849631 
L 131.858122 101.672949 
L 132.57421 100.55202 
L 136.013038 99.503608 
L 134.066775 104.867971 
L 136.894364 105.455525 
L 133.378827 104.448073 
L 138.967763 104.571758 
L 142.991123 101.163421 
L 146.68393 97.802442 
L 149.769854 97.904636 
L 150.700364 93.67601 
L 153.774666 89.498555 
L 156.708969 86.111516 
L 157.477295 88.47218 
L 160.865658 85.790695 
L 164.18211 83.762207 
L 158.624215 82.18715 
L 157.487904 82.474964 
L 157.496047 79.868336 
L 162.752436 81.069564 
L 159.725932 83.639526 
L 163.679992 88.665461 
L 165.851638 87.915576 
L 165.901258 84.036294 
L 160.882237 88.877505 
L 164.088218 85.045974 
L 166.920848 82.264067 
L 167.192959 86.278194 
L 165.413325 80.974554 
L 165.288112 85.502409 
L 162.148172 82.439938 
L 159.860894 83.845676 
L 156.655733 86.172978 
L 155.725457 84.609179 
L 155.904596 79.576209 
L 153.501898 75.568376 
L 151.827188 79.147572 
L 157.358307 79.417296 
L 160.44131 81.606451 
L 165.53174 84.864228 
L 169.113717 88.006479 
L 174.557053 86.833793 
L 179.601963 89.443549 
L 179.21352 92.553363 
L 181.127241 93.49718 
L 182.258387 94.617946 
L 175.056114 100.030746 
L 176.238985 103.778945 
L 181.150286 103.051052 
L 181.78198 103.871481 
L 179.266948 99.729448 
L 176.771885 102.455231 
L 174.967703 104.936279 
L 174.989047 107.558487 
L 177.943021 105.347026 
L 180.716652 103.536468 
L 178.487176 100.479246 
L 173.449144 100.100597 
L 170.071248 95.763934 
L 164.883268 99.049601 
L 167.691018 98.062264 
L 163.730647 98.95929 
L 160.734452 96.281085 
L 160.017098 98.489473 
L 160.928359 102.882288 
L 160.694281 107.828307 
L 159.929617 111.204487 
L 164.221824 110.074043 
L 161.332413 105.026804 
L 160.162194 109.381009 
L 159.975866 104.064746 
L 158.749773 106.064278 
L 157.493247 106.04787 
L 160.311186 105.122613 
L 163.701092 109.983904 
L 166.72976 111.683098 
L 163.990729 106.747392 
L 160.671513 111.13442 
L 156.989479 109.496412 
L 155.564508 112.124697 
L 152.696302 108.588612 
L 157.684854 105.146678 
L 153.134115 106.434687 
L 152.873318 106.762418 
L 157.11159 107.69864 
L 153.558369 112.770349 
L 151.446787 112.067025 
L 155.493004 117.478572 
L 150.883418 117.130174 
L 148.674068 114.220993 
L 143.418386 108.828264 
L 144.162633 113.409874 
L 142.391096 116.847562 
L 142.021129 119.07843 
L 144.27 114.610875 
L 138.763931 111.062591 
L 137.911146 112.924115 
L 141.31528 108.522443 
L 140.873069 104.749542 
L 141.348152 104.625566 
L 140.718889 104.061792 
L 135.95478 98.849674 
L 135.903219 103.678102 
L 139.310495 107.378387 
L 134.836374 106.825394 
L 132.576345 107.657482 
L 132.041908 104.669123 
L 128.416062 107.831539 
L 125.346374 106.766885 
L 129.645337 111.487618 
L 127.368907 114.029782 
L 132.063686 113.596033 
L 128.888719 116.870283 
L 127.000429 116.613256 
L 127.950867 113.606273 
L 127.588462 112.944636 
L 127.465527 109.518244 
L 123.911935 106.088319 
L 118.97237 106.243398 
L 122.634932 109.179451 
L 123.937033 113.610974 
L 125.523569 118.028592 
L 120.556274 116.645066 
L 123.160277 112.751113 
L 117.406405 117.625578 
L 121.899418 113.664445 
L 124.562161 108.675491 
L 122.014217 109.520026 
L 125.866181 111.630409 
L 127.986187 112.437315 
L 123.922966 107.913985 
L 124.229384 105.889297 
L 129.668685 107.337989 
L 126.961801 109.291925 
L 132.226852 110.248453 
L 130.894574 114.628709 
L 125.226673 114.788563 
L 119.903554 114.55415 
L 118.349187 114.807679 
L 113.001612 113.799703 
L 109.980568 116.82417 
L 107.996433 115.973591 
L 110.276568 119.509188 
L 108.484555 120.757899 
L 113.126555 120.653776 
L 111.498808 117.92783 
L 111.276606 113.290138 
L 113.369119 112.989567 
L 107.553299 113.708862 
L 108.967252 117.379787 
L 114.463378 122.558942 
L 116.869331 121.775415 
L 115.38065 122.927706 
L 111.424893 118.89938 
L 115.693456 119.304135 
L 115.581363 123.902865 
L 112.319478 125.169994 
L 112.248241 129.163208 
L 110.057257 129.572238 
L 113.070631 124.477777 
L 108.541414 127.707485 
L 108.553534 131.032193 
L 104.823818 134.134079 
L 103.411591 134.088154 
L 97.784433 135.851375 
L 92.880696 133.874822 
L 97.469269 136.76785 
L 96.037417 138.379372 
L 99.387122 141.17905 
L 97.54037 139.360325 
L 92.137973 137.031318 
L 94.621845 138.121828 
L 96.717389 137.675026 
L 96.419646 135.570917 
L 101.980485 136.295745 
L 97.487386 140.97085 
L 93.542824 138.385353 
L 89.318329 141.263704 
L 92.108361 137.329294 
L 97.814456 141.300786 
L 95.030228 146.28498 
L 92.002117 149.92283 
L 94.936922 153.153982 
L 89.361567 156.291185 
L 91.527778 153.238255 
L 90.475441 150.301353 
L 86.438273 146.967331 
L 88.056442 150.355186 
L 83.53575 152.141266 
L 83.088519 153.50084 
L 78.131452 155.40947 
L 78.826468 152.910955 
L 74.040567 147.54256 
L 78.235808 144.934025 
L 81.03742 149.127647 
L 84.661579 149.716474 
L 90.002079 151.453881 
L 85.756133 148.586367 
L 82.061352 145.456838 
L 85.803393 142.756719 
L 82.680403 147.858261 
L 79.253211 147.359769 
L 80.207307 147.840848 
L 76.771185 143.74278 
L 80.598251 143.241504 
L 75.502801 142.327015 
L 80.640907 142.201076 
L 75.196447 139.675437 
L 72.256154 144.01713 
L 75.004118 139.710156 
L 78.120581 135.129698 
L 80.243205 136.93542 
L 84.184332 131.698038 
L 85.166897 132.476061 
L 82.814175 130.959986 
L 85.84332 133.279658 
L 86.640837 133.734557 
L 83.530592 138.466638 
L 86.881585 139.910485 
L 86.977525 136.604213 
L 91.844666 140.547313 
L 87.857099 142.634798 
L 84.548665 147.663946 
L 80.850119 144.870668 
L 78.741676 143.654168 
L 75.514473 146.694134 
L 69.850469 150.738847 
L 65.21554 149.378531 
L 70.409175 144.365732 
L 66.646209 147.186575 
L 70.964794 151.863796 
L 70.311291 150.92243 
L 72.801206 146.249538 
L 75.989695 149.475619 
L 80.762767 144.798178 
L 86.321335 139.564552 
L 91.359134 141.665221 
L 90.97669 147.003705 
L 92.905847 145.589258 
L 90.98713 144.752551 
L 90.072447 142.120944 
L 94.730726 142.090084 
L 97.398993 146.039342 
L 96.602295 151.449717 
L 91.690277 155.952771 
L 94.311129 151.067302 
L 96.783874 146.010639 
L 94.031365 148.863438 
L 93.942354 153.777884 
L 98.983248 157.470661 
L 94.373124 158.853106 
L 96.996886 154.976062 
L 98.693384 149.561173 
L 103.807899 152.332133 
L 108.503557 157.753322 
L 106.52884 162.818602 
L 109.968422 159.478791 
L 112.386734 161.911515 
L 117.323943 157.265203 
L 112.189428 159.142408 
L 110.147354 156.834903 
L 107.169218 156.30943 
L 105.15217 160.167219 
L 102.736066 164.327532 
L 108.016875 166.693075 
L 106.624078 163.809929 
L 110.605749 159.424218 
L 108.145888 161.53961 
L 108.269255 163.32226 
L 113.646237 164.843614 
L 116.680185 160.930083 
L 113.898861 161.942388 
L 118.743689 161.553979 
L 116.301093 158.266755 
L 119.204205 160.824918 
L 124.631041 158.88485 
L 125.652549 157.279446 
L 122.003689 156.371691 
L 122.451355 160.595333 
L 119.215336 159.964979 
L 115.020708 163.055256 
L 112.033839 166.603499 
L 114.326025 171.747208 
L 112.047249 174.222466 
L 114.741761 179.309475 
L 117.134123 182.302666 
L 113.666928 179.252979 
L 117.59045 182.721057 
L 114.775156 181.61419 
L 111.385205 182.749157 
L 107.506429 184.730428 
L 107.591599 183.426483 
L 115.152865 189.366081 
L 118.248793 186.415705 
L 115.02156 181.904252 
L 114.028397 187.269557 
L 114.194138 190.711772 
L 118.597744 192.975106 
L 113.513119 196.288198 
L 118.135552 200.015063 
L 119.855096 204.354931 
L 123.242312 205.012724 
L 122.348363 209.534961 
L 120.593087 206.724575 
L 116.462938 208.500888 
L 120.571324 210.740208 
L 120.600095 215.390312 
L 125.105582 211.825273 
L 126.316796 211.020135 
L 131.258972 207.219377 
L 132.706613 212.532234 
L 136.790033 214.025653 
L 141.989259 212.380806 
L 146.319861 215.846734 
L 145.452283 210.492168 
L 140.881995 208.421904 
L 143.964357 213.438027 
L 144.744045 208.96158 
L 139.09177 214.03601 
L 135.969276 214.39894 
L 139.59915 209.022908 
L 133.839012 206.134928 
L 136.912761 208.36804 
L 140.911603 207.281569 
L 143.504843 209.933238 
L 139.643634 214.802831 
L 136.066137 214.96136 
L 132.089059 218.972934 
L 128.585467 219.370507 
L 126.152296 223.301307 
L 129.001356 225.643226 
L 134.24454 220.930349 
L 137.069927 224.17639 
L 141.498035 226.354414 
L 146.858184 230.364316 
L 150.169571 227.778962 
L 146.447342 222.712949 
L 148.398569 220.148009 
L 149.177538 224.288979 
L 153.009138 224.550205 
L 155.613866 224.262502 
L 157.342569 216.979742 
L 158.129577 215.883002 
L 157.595684 214.291926 
L 161.299022 212.922016 
L 161.582544 211.099575 
L 157.581027 212.290089 
L 156.6232 214.981554 
L 155.291672 213.206712 
L 153.420086 218.148115 
L 149.591244 216.129377 
L 151.327152 211.566445 
L 154.002321 206.525283 
L 159.010509 204.131365 
L 162.81454 203.075316 
L 165.024083 199.05574 
L 161.97942 195.651628 
L 156.435068 197.677577 
L 156.855553 199.743922 
L 151.971453 202.080344 
L 155.956021 204.044685 
L 159.54055 199.672146 
L 160.907639 197.614352 
L 158.484557 196.247715 
L 162.024515 199.050667 
L 158.643845 202.193518 
L 156.238459 203.080928 
L 162.02951 208.126968 
L 161.517086 206.490037 
L 161.778492 211.506911 
L 157.57786 215.84908 
L 162.452231 217.338083 
L 160.384738 220.018341 
L 160.483761 221.453444 
L 161.283171 223.267082 
L 165.335086 227.98692 
L 167.78001 226.309076 
L 162.704419 229.247095 
L 164.49448 230.338235 
L 168.015011 229.027412 
L 173.181254 229.3846 
L 176.242951 231.644238 
L 176.819506 229.069279 
L 171.0785 231.513953 
L 171.335905 232.411655 
L 169.941562 236.663517 
L 167.712346 232.791998 
L 172.1752 230.404001 
L 174.234849 231.978006 
L 173.868722 231.445211 
L 170.432866 233.894903 
L 166.16576 228.942861 
L 170.19949 227.920672 
L 171.728934 222.851364 
L 173.23271 228.170149 
L 176.574062 226.319727 
L 171.996017 221.871805 
L 168.871387 216.770391 
L 173.521551 217.667162 
L 178.133266 217.338869 
L 180.420736 220.571572 
L 174.679839 222.792076 
L 178.928222 218.080984 
L 173.404372 215.96608 
L 172.017012 212.279687 
L 172.838864 210.482106 
L 171.184731 207.465169 
L 171.261167 212.732532 
L 174.32452 213.952203 
L 169.746321 215.955748 
L 172.208429 212.677342 
L 176.634842 213.874196 
L 178.12643 212.916018 
L 173.996024 214.356133 
L 178.654541 209.012691 
L 179.450181 210.61328 
L 182.587161 214.745757 
L 178.815934 219.047679 
L 181.980436 215.928037 
L 186.258545 219.550875 
L 186.774513 215.476312 
L 191.932945 219.874239 
L 195.985497 214.727293 
L 191.7146 211.001311 
L 196.464156 211.988303 
L 191.025601 211.5722 
L 193.945777 212.394625 
L 193.512058 207.987866 
L 193.571168 205.37432 
L 194.337063 207.549762 
L 195.237986 202.438101 
L 200.017341 201.320603 
L 201.820859 205.030957 
L 200.68946 201.942612 
L 205.48624 199.155963 
L 202.330121 203.125181 
L 203.608934 207.514106 
L 207.118984 210.37755 
L 202.589153 212.166402 
L 203.708791 215.426745 
L 204.08497 214.35815 
L 209.1057 209.513439 
L 212.249181 204.795381 
L 211.770346 206.281987 
L 209.061065 205.97434 
L 213.514471 208.948486 
L 214.61911 205.393398 
L 211.119564 207.653223 
L 216.464652 203.705683 
L 221.77084 204.74482 
L 216.899073 202.356349 
L 217.662314 198.067213 
L 212.71439 196.992455 
L 208.641598 198.632173 
L 214.231736 203.391834 
L 212.494349 206.116007 
L 211.461501 209.843786 
L 207.401049 209.152404 
L 208.262565 206.888494 
L 206.774995 210.580194 
L 207.902982 214.718446 
L 207.023969 219.617809 
L 203.786757 224.222351 
L 197.986316 219.656736 
L 199.301787 223.58419 
L 204.351866 218.304896 
L 210.131171 215.89149 
L 213.237241 218.450572 
L 218.219937 223.23496 
L 222.382131 221.207518 
L 224.619204 223.221034 
L 223.20132 219.828596 
L 221.708931 217.17529 
L 222.16338 218.813037 
L 217.14569 214.43537 
L 218.175954 215.583413 
L 214.266223 212.850998 
L 215.601787 208.661814 
L 215.516766 206.882841 
L 218.993016 207.950039 
L 218.552511 210.108846 
L 217.447735 210.825284 
L 215.622197 209.190229 
L 210.170536 210.539449 
L 211.229603 213.005403 
L 209.169371 214.875658 
L 210.992356 218.354558 
L 215.126664 213.588549 
L 219.627192 210.906583 
L 218.887137 210.107602 
L 223.787991 207.776948 
L 227.778364 206.138244 
L 227.351313 210.637594 
L 232.118689 213.287242 
L 227.647329 212.093423 
L 229.543406 208.58118 
L 226.095647 212.717143 
L 221.246938 211.083391 
L 225.039837 214.728532 
L 219.643453 219.89651 
L 216.907021 223.169402 
L 218.179504 226.241154 
L 218.219057 225.122756 
L 214.92845 220.456623 
L 209.351795 223.760216 
L 206.80768 224.538742 
L 207.39009 222.727136 
L 202.486925 218.035875 
L 197.216892 216.991591 
L 197.637731 214.958927 
L 197.402224 212.448209 
L 193.007624 217.494796 
L 195.992383 219.942611 
L 192.805607 215.649687 
L 191.416621 216.384359 
L 196.509133 218.910509 
L 201.133139 222.106753 
L 205.197164 219.609601 
L 209.731978 216.376476 
L 212.325506 215.795101 
L 218.074194 217.334152 
L 222.341663 217.806659 
L 220.423071 218.273007 
L 223.2162 222.244496 
L 227.159667 217.30995 
L 229.174546 212.840209 
L 225.9077 211.232097 
L 225.439494 214.585114 
L 229.845434 214.281265 
L 231.413707 213.311572 
L 229.046606 212.103217 
L 224.576639 214.372197 
L 222.425094 215.797063 
L 219.060882 220.839936 
L 220.522128 225.129177 
L 218.139112 225.757031 
L 219.243425 226.194357 
L 223.961937 231.204164 
L 226.577385 228.526636 
L 222.289488 227.192236 
L 222.696566 223.203218 
L 223.63817 221.915681 
L 223.735357 222.974403 
L 228.022268 226.719328 
L 225.822353 227.673003 
L 230.554764 226.208863 
L 226.702905 225.400596 
L 231.318111 228.762191 
L 233.424983 228.639807 
L 238.228939 231.212774 
L 238.604787 229.826309 
L 244.299399 225.166756 
L 249.952582 224.991314 
L 250.401387 229.992692 
L 251.611126 226.06668 
L 254.023401 227.694276 
L 251.737824 223.452758 
L 254.27485 223.824363 
L 254.741742 226.339574 
L 258.056274 228.138349 
L 260.604677 228.389355 
L 261.118438 229.993213 
L 257.444305 227.893652 
L 256.602443 231.190727 
L 260.583498 235.400886 
L 256.89233 237.734419 
L 251.431969 236.079803 
L 251.249826 240.495117 
L 248.353757 237.304592 
L 242.606506 241.23368 
L 240.590585 244.248041 
L 244.060556 239.547459 
L 243.696314 235.692945 
L 240.83483 236.027796 
L 240.897404 239.569435 
L 235.199552 238.87297 
L 239.395027 243.160362 
L 241.462366 239.563824 
L 247.109596 234.721811 
L 241.518899 231.546622 
L 236.232106 227.900231 
L 240.304 233.183844 
L 235.125042 235.397209 
L 238.345337 235.895988 
L 240.600334 233.254373 
L 241.027513 229.959632 
L 246.360751 224.751933 
L 250.86121 226.425304 
L 247.423225 228.471203 
L 244.57096 225.426484 
L 248.089074 228.751577 
L 253.105644 226.835412 
L 256.637292 223.065255 
L 256.685458 221.040679 
L 252.69028 226.266603 
L 248.394373 225.633665 
L 246.786112 230.173033 
L 248.769974 226.063772 
L 253.102731 222.870165 
L 247.606003 218.623328 
L 249.112785 222.678841 
L 248.705413 221.022756 
L 248.637833 224.63704 
L 243.295414 223.354157 
L 243.683508 225.003448 
L 239.41886 221.851406 
L 238.093023 222.59802 
L 238.379414 222.447328 
L 240.853433 227.501279 
L 245.423406 230.769723 
L 244.673622 235.457342 
L 246.752418 234.691002 
L 252.329181 237.713831 
L 248.972004 241.174918 
L 243.960283 241.866958 
L 241.153967 243.027628 
L 237.990409 242.031634 
L 238.565629 238.116752 
L 240.606227 242.954681 
L 240.527519 242.510855 
L 242.014499 245.27914 
L 237.389745 240.289976 
L 237.521713 239.233257 
L 239.764634 233.965771 
L 239.383994 236.16272 
L 242.134138 239.004336 
L 236.589208 239.317402 
L 240.672037 240.39421 
L 244.141996 240.659309 
L 248.271175 243.428592 
L 252.681291 248.010493 
L 254.084177 248.728953 
L 257.737882 252.539254 
L 262.669362 248.776025 
L 258.46354 252.775037 
L 259.66784 247.645019 
L 257.346033 250.913794 
L 261.793448 247.15746 
L 257.063081 244.524318 
L 262.13993 247.486376 
L 256.479344 248.84133 
L 251.492854 246.170717 
L 250.492576 246.026142 
L 254.368225 248.5249 
L 259.933608 247.006738 
L 258.556216 252.264913 
L 262.38474 257.179841 
L 260.108146 254.744529 
L 258.384956 256.757037 
L 262.22877 254.397522 
L 264.044075 253.985218 
L 265.516776 258.806619 
L 264.203977 255.693906 
L 264.088502 256.180579 
L 259.092396 261.216 
L 256.346872 257.014317 
L 256.043408 254.480552 
L 258.987411 250.059054 
L 255.429469 252.312182 
L 249.966499 256.40572 
L 255.396663 253.435031 
L 261.032939 255.432928 
L 258.894106 251.621077 
L 262.711131 252.284073 
L 261.743581 248.12077 
L 259.441121 246.696891 
L 258.12867 251.81013 
L 260.214171 246.509831 
L 265.816143 246.196724 
L 260.879129 243.546425 
L 258.000735 240.632435 
L 256.22498 235.575685 
L 250.461148 238.165285 
L 254.288057 243.547845 
L 249.994509 248.588996 
L 246.302725 245.622318 
L 245.195445 246.149902 
L 245.003716 248.578799 
L 246.714711 251.829383 
L 242.852762 254.030047 
L 239.106691 255.27954 
L 233.373533 251.550045 
L 239.188668 246.795748 
L 244.188362 249.398225 
L 245.650923 245.971041 
L 241.843595 244.62966 
L 246.38134 245.486603 
L 250.146114 244.977895 
L 251.907071 244.482887 
L 255.751505 241.038023 
L 259.918544 236.59927 
L 254.933328 235.688421 
L 258.719375 232.536034 
L 257.941228 229.115294 
L 262.784672 232.097592 
L 258.052595 233.574806 
L 253.768744 237.808885 
L 251.440189 241.460387 
L 254.141157 241.066761 
L 249.771134 242.03378 
L 249.406411 247.420636 
L 243.610336 245.56495 
L 241.462545 241.600039 
L 238.95834 236.263168 
L 236.186444 231.726102 
L 234.089957 226.863178 
L 239.906764 231.841049 
L 240.181289 229.113354 
L 244.190861 229.356614 
L 244.318252 224.710448 
L 246.080428 224.953078 
L 248.476207 225.463194 
L 253.703607 229.98883 
L 256.602736 227.44659 
L 260.590883 229.049501 
L 255.631025 230.158707 
L 256.243048 226.386369 
L 255.472906 225.722752 
L 259.157919 226.639637 
L 254.647422 225.631401 
L 251.885175 223.891205 
L 250.754568 222.629198 
L 249.427101 226.540113 
L 247.888703 226.626986 
L 244.311609 223.374375 
L 246.207544 226.476702 
L 244.794381 231.855519 
L 233.71167 230.733548 
L 231.151587 234.306309 
L 235.876046 231.679991 
L 240.099309 235.491242 
L 236.312 238.030051 
L 232.233496 236.400385 
L 237.365463 236.783992 
L 239.572155 240.129766 
L 235.253781 237.063532 
L 230.283222 242.281401 
L 228.435756 238.912115 
L 231.868114 236.734025 
L 230.026394 231.459075 
L 230.818502 229.599904 
L 230.385494 231.05722 
L 228.815514 233.205556 
L 232.449473 231.219602 
L 231.726417 229.987393 
L 235.436691 225.03711 
L 230.308095 227.008414 
L 229.829106 225.29813 
L 227.311378 227.816417 
L 223.17525 229.247075 
L 226.094301 228.173036 
L 227.339973 223.086569 
L 232.881204 221.256336 
L 229.263602 218.347372 
L 232.634707 220.232962 
L 235.890698 219.049371 
L 236.14834 218.124619 
L 231.490093 222.332307 
L 230.365007 220.812756 
L 226.26546 218.693379 
L 223.642602 222.517695 
L 222.039794 223.381703 
L 223.350807 226.385014 
L 219.937948 222.373736 
L 217.122389 225.45346 
L 217.560235 226.540889 
L 214.265895 226.174342 
L 214.014439 221.45538 
L 211.533404 225.858026 
L 212.884378 230.962964 
L 215.877333 229.661416 
L 215.817083 229.094556 
L 213.751517 230.499128 
L 210.321123 226.354329 
L 205.678141 221.73857 
L 201.035164 223.224846 
L 196.93424 220.174157 
L 196.447234 215.507645 
L 199.627341 212.488933 
L 199.710267 214.21203 
L 205.15659 217.539776 
L 212.491044 221.048505 
L 211.002299 221.57023 
L 213.334081 223.759305 
L 213.388559 225.904771 
L 216.307336 231.262227 
L 220.057102 232.112538 
L 218.231737 226.751675 
L 218.796703 229.062588 
L 216.691654 224.180041 
L 213.621307 227.379963 
L 213.79053 232.688812 
L 214.2325 234.174454 
L 211.765286 234.735686 
L 215.790846 233.230351 
L 218.283734 237.910622 
L 216.877556 239.690313 
L 221.785191 239.607875 
L 223.363542 243.057216 
L 217.616593 242.928741 
L 218.802564 240.05988 
L 218.482911 242.191374 
L 222.023738 245.346242 
L 226.577689 248.609613 
L 230.590934 247.215424 
L 228.948849 249.246558 
L 230.8244 247.313524 
L 231.535829 249.639868 
L 226.649468 246.266184 
L 227.971213 244.866294 
L 231.912467 240.093827 
L 229.021181 238.268817 
L 231.542852 240.472473 
L 233.696205 243.785837 
L 239.031496 243.433083 
L 244.036623 243.583868 
L 249.183067 243.129494 
L 251.127427 239.277892 
L 248.108859 238.794385 
L 248.965077 238.859599 
L 246.168164 240.354856 
L 250.759543 240.970583 
L 255.609068 236.31504 
L 251.952832 233.931067 
L 255.865275 228.97069 
L 258.029273 225.398479 
L 254.556785 230.759099 
L 258.5328 226.817007 
L 263.852892 229.328284 
L 262.452189 226.954075 
L 264.935788 227.108178 
L 261.276836 226.690679 
L 263.778588 223.475214 
L 262.735934 221.907684 
L 260.715792 221.772453 
L 254.974902 216.46157 
L 257.584286 221.428823 
L 255.507182 220.352347 
L 253.630142 221.739086 
L 253.0678 217.048452 
L 249.692021 218.727543 
L 244.571067 223.045578 
L 247.815417 217.6392 
L 248.593184 218.863689 
L 249.78246 218.067538 
L 245.694473 222.984721 
L 243.582887 222.656194 
L 244.724114 227.503315 
L 250.155881 231.807987 
L 244.781941 228.61321 
L 248.562527 231.576614 
L 244.104797 228.475973 
L 243.499795 228.57797 
L 247.163801 233.706672 
L 249.653606 231.571193 
L 245.502151 236.627439 
L 242.051039 237.860246 
L 241.829892 235.270494 
L 236.768735 230.355611 
L 235.525108 226.846751 
L 239.101987 225.462877 
L 242.226218 221.092792 
L 236.468673 224.368931 
L 239.341854 221.855613 
L 235.973784 217.042689 
L 235.34437 222.348194 
L 236.002858 218.050772 
L 232.428324 213.157941 
L 235.250141 216.852131 
L 230.363497 216.780647 
L 229.500598 212.837971 
L 227.320999 208.570702 
L 224.407436 204.641491 
L 220.782923 204.806791 
L 218.837649 207.73391 
L 220.824456 210.663979 
L 218.399046 213.61589 
L 222.600319 216.904427 
L 224.00767 212.696836 
L 218.324801 212.735412 
L 217.733137 214.98978 
L 219.609517 214.917613 
L 225.287749 211.497736 
L 221.358238 215.387973 
L 225.198783 219.498746 
L 228.444794 220.382579 
L 231.988453 222.256126 
L 226.352722 217.628885 
L 221.183611 213.642609 
L 223.829783 208.520132 
L 225.92736 203.501726 
L 230.516449 202.228709 
L 233.545364 202.618528 
L 231.625418 197.437543 
L 232.519487 193.591119 
L 236.96639 194.362405 
L 234.062277 193.630923 
L 228.278213 196.260898 
L 229.273547 196.268857 
L 229.922269 201.462535 
L 230.530774 200.161684 
L 234.574926 199.833009 
L 236.970893 199.90126 
L 240.317523 204.794436 
L 242.110828 204.742516 
L 239.706732 209.02617 
L 234.149288 203.632206 
L 229.581299 205.431066 
L 230.074439 209.638894 
L 232.786194 213.364901 
L 235.480924 212.894785 
L 240.263866 209.116293 
L 242.139562 206.814484 
L 243.709125 202.387894 
L 246.474258 205.217063 
L 244.771558 202.890004 
L 238.987693 206.208142 
L 238.275353 201.113561 
L 241.595624 205.391532 
L 247.155153 205.39151 
L 242.302826 209.026172 
L 245.769548 205.217257 
L 241.554561 201.099102 
L 242.912603 203.128344 
L 243.511737 203.340182 
L 248.513445 200.412051 
L 251.67628 195.529937 
L 247.331754 194.75687 
L 247.678241 190.067869 
L 249.289031 185.105575 
L 248.147166 182.087021 
L 250.156069 184.370936 
L 250.627516 179.365803 
L 254.855737 183.231121 
L 251.221229 180.369591 
L 252.250261 176.733715 
L 251.546521 179.408834 
L 253.224721 176.801236 
L 249.459256 174.664546 
L 248.473831 173.381678 
L 244.472044 177.477803 
L 248.708346 180.740891 
L 252.871568 185.145895 
L 250.176848 181.654996 
L 254.805421 177.869903 
L 259.982967 174.571443 
L 259.064656 173.934263 
L 264.779438 179.146718 
L 260.319258 175.182733 
L 258.909079 179.503249 
L 258.737704 181.446615 
L 261.531493 180.4945 
L 262.508357 182.364099 
L 267.915676 179.066493 
L 265.770175 177.327918 
L 265.693882 176.378409 
L 262.453924 181.52545 
L 260.197979 179.948244 
L 262.786174 180.685952 
L 258.730509 182.777642 
L 253.50354 188.153481 
L 247.957137 184.112295 
L 245.853096 183.572914 
L 240.511762 186.625202 
L 244.612248 186.080646 
L 240.97538 190.917166 
L 240.919178 187.249246 
L 238.069783 185.638917 
L 240.107077 187.82565 
L 244.878294 191.716925 
L 247.812728 193.222258 
L 251.770172 188.726843 
L 247.857455 183.812607 
L 249.667272 183.439343 
L 254.473217 182.324779 
L 255.681586 177.112557 
L 259.106205 177.861699 
L 262.680881 172.570194 
L 258.285104 177.447208 
L 255.479676 172.41284 
L 260.998955 174.93955 
L 261.007467 173.958944 
L 259.832945 175.665886 
L 257.211904 180.633632 
L 252.322727 185.715253 
L 248.113087 181.389213 
L 253.427213 181.964621 
L 248.254042 178.919573 
L 250.471143 183.329904 
L 246.286684 180.981393 
L 246.527299 182.348662 
L 242.253152 183.143887 
L 237.60708 180.802894 
L 239.077725 182.503858 
L 235.431206 179.177231 
L 240.869208 180.020546 
L 245.714198 182.622382 
L 250.898344 178.882145 
L 248.100199 181.965501 
L 251.162422 181.022877 
L 250.091255 184.136456 
L 245.181496 183.923737 
L 250.769427 178.569368 
L 253.348733 175.121701 
L 247.542135 171.290783 
L 252.739755 166.371488 
L 252.095726 170.729647 
L 256.672902 171.830722 
L 259.039337 166.514249 
L 254.03485 166.847762 
L 248.934434 162.165248 
L 250.204905 162.478669 
L 246.599265 167.014969 
L 241.550624 170.113488 
L 235.877016 172.942772 
L 236.882473 177.883944 
L 232.945259 179.447666 
L 235.941591 182.415442 
L 240.064132 187.033871 
L 239.743258 190.857629 
L 236.765191 186.671953 
L 242.450373 181.804265 
L 239.689299 181.048698 
L 242.573543 182.133669 
L 244.360505 180.626022 
L 245.645675 181.818017 
L 243.406794 180.861783 
L 238.208434 178.516635 
L 239.799412 176.160166 
L 241.500127 178.724104 
L 242.727754 175.945285 
L 240.254371 180.752352 
L 245.684036 179.792111 
L 241.818874 181.743989 
L 240.906703 177.336065 
L 240.906703 177.336065 
" clip-path="url(#p147a35a179)" style="fill: none; stroke: #1f77b4; stroke-width: 1.5; stroke-linecap: square"/>
   </g>
   <g id="patch_3">
    <path d="M 48.982813 273.312 
L 48.982813 7.2 
" style="fill: none; stroke: #000000; stroke-width: 0.8; stroke-linejoin: miter; stroke-linecap: square"/>
   </g>
   <g id="patch_4">
    <path d="M 406.102813 273.312 
L 406.102813 7.2 
" style="fill: none; stroke: #000000; stroke-width: 0.8; stroke-linejoin: miter; stroke-linecap: square"/>
   </g>
   <g id="patch_5">
    <path d="M 48.982813 273.312 
L 406.102813 273.312 
" style="fill: none; stroke: #000000; stroke-width: 0.8; stroke-linejoin: miter; stroke-linecap: square"/>
   </g>
   <g id="patch_6">
    <path d="M 48.982813 7.2 
L 406.102813 7.2 
" style="fill: none; stroke: #000000; stroke-width: 0.8; stroke-linejoin: miter; stroke-linecap: square"/>
   </g>
  </g>
 </g>
 <defs>
  <clipPath id="p147a35a179">
   <rect x="48.982813" y="7.2" width="357.12" height="266.112"/>
  </clipPath>
 </defs>
</svg>