<?xml version="1.0" encoding="utf-8" standalone="no"?>
<!DOCTYPE svg PUBLIC "-//W3C//DTD SVG 1.1//EN"
  "http://www.w3.org/Graphics/SVG/1.1/DTD/svg11.dtd">
<svg xmlns:xlink="http://www.w3.org/1999/xlink" width="532.7175pt" height="351.99625pt" viewBox="0 0 532.7175 351.99625" xmlns="http://www.w3.org/2000/svg" version="1.1">
 <metadata>
  <rdf:RDF xmlns:dc="http://purl.org/dc/elements/1.1/" xmlns:cc="http://creativecommons.org/ns#" xmlns:rdf="http://www.w3.org/1999/02/22-rdf-syntax-ns#">
   <cc:Work>
    <dc:type rdf:resource="http://purl.org/dc/dcmitype/StillImage"/>
    <dc:date>2025-07-01T12:14:23.328250</dc:date>
    <dc:format>image/svg+xml</dc:format>
    <dc:creator>
     <cc:Agent>
      <dc:title>Matplotlib v3.10.3, https://matplotlib.org/</dc:title>
     </cc:Agent>
    </dc:creator>
   </cc:Work>
  </rdf:RDF>
 </metadata>
 <defs>
  <style type="text/css">*{stroke-linejoin: round; stroke-linecap: butt}</style>
 </defs>
 <g id="figure_1">
  <g id="patch_1">
   <path d="M 0 351.99625 
L 532.7175 351.99625 
L 532.7175 0 
L 0 0 
z
" style="fill: #ffffff"/>
  </g>
  <g id="axes_1">
   <g id="patch_2">
    <path d="M 47.1875 314.44 
L 525.5175 314.44 
L 525.5175 7.2 
L 47.1875 7.2 
z
" style="fill: #ffffff"/>
   </g>
   <g id="PathCollection_1">
    <defs>
     <path id="m10b466c017" d="M 0 3 
C 0.795609 3 1.55874 2.683901 2.12132 2.12132 
C 2.683901 1.55874 3 0.795609 3 0 
C 3 -0.795609 2.683901 -1.55874 2.12132 -2.12132 
C 1.55874 -2.683901 0.795609 -3 0 -3 
C -0.795609 -3 -1.55874 -2.683901 -2.12132 -2.12132 
C -2.683901 -1.55874 -3 -0.795609 -3 0 
C -3 0.795609 -2.683901 1.55874 -2.12132 2.12132 
C -1.55874 2.683901 -0.795609 3 0 3 
z
" style="stroke: #1f77b4; stroke-opacity: 0.8"/>
    </defs>
    <g clip-path="url(#p45ebae8e3e)">
     <use xlink:href="#m10b466c017" x="68.929773" y="254.519452" style="fill: #1f77b4; fill-opacity: 0.8; stroke: #1f77b4; stroke-opacity: 0.8"/>
     <use xlink:href="#m10b466c017" x="113.043162" y="238.373067" style="fill: #1f77b4; fill-opacity: 0.8; stroke: #1f77b4; stroke-opacity: 0.8"/>
     <use xlink:href="#m10b466c017" x="157.156551" y="213.532476" style="fill: #1f77b4; fill-opacity: 0.8; stroke: #1f77b4; stroke-opacity: 0.8"/>
     <use xlink:href="#m10b466c017" x="201.238498" y="188.691885" style="fill: #1f77b4; fill-opacity: 0.8; stroke: #1f77b4; stroke-opacity: 0.8"/>
     <use xlink:href="#m10b466c017" x="245.351887" y="162.609264" style="fill: #1f77b4; fill-opacity: 0.8; stroke: #1f77b4; stroke-opacity: 0.8"/>
     <use xlink:href="#m10b466c017" x="289.465277" y="140.252732" style="fill: #1f77b4; fill-opacity: 0.8; stroke: #1f77b4; stroke-opacity: 0.8"/>
     <use xlink:href="#m10b466c017" x="333.547224" y="116.65417" style="fill: #1f77b4; fill-opacity: 0.8; stroke: #1f77b4; stroke-opacity: 0.8"/>
     <use xlink:href="#m10b466c017" x="377.660613" y="93.055608" style="fill: #1f77b4; fill-opacity: 0.8; stroke: #1f77b4; stroke-opacity: 0.8"/>
     <use xlink:href="#m10b466c017" x="421.74256" y="71.941106" style="fill: #1f77b4; fill-opacity: 0.8; stroke: #1f77b4; stroke-opacity: 0.8"/>
     <use xlink:href="#m10b466c017" x="465.855949" y="47.100514" style="fill: #1f77b4; fill-opacity: 0.8; stroke: #1f77b4; stroke-opacity: 0.8"/>
     <use xlink:href="#m10b466c017" x="201.238498" y="201.11218" style="fill: #1f77b4; fill-opacity: 0.8; stroke: #1f77b4; stroke-opacity: 0.8"/>
     <use xlink:href="#m10b466c017" x="201.238498" y="232.162919" style="fill: #1f77b4; fill-opacity: 0.8; stroke: #1f77b4; stroke-opacity: 0.8"/>
     <use xlink:href="#m10b466c017" x="245.351887" y="172.5455" style="fill: #1f77b4; fill-opacity: 0.8; stroke: #1f77b4; stroke-opacity: 0.8"/>
     <use xlink:href="#m10b466c017" x="289.465277" y="167.577382" style="fill: #1f77b4; fill-opacity: 0.8; stroke: #1f77b4; stroke-opacity: 0.8"/>
     <use xlink:href="#m10b466c017" x="333.547224" y="161.367234" style="fill: #1f77b4; fill-opacity: 0.8; stroke: #1f77b4; stroke-opacity: 0.8"/>
     <use xlink:href="#m10b466c017" x="264.091431" y="109.201993" style="fill: #1f77b4; fill-opacity: 0.8; stroke: #1f77b4; stroke-opacity: 0.8"/>
     <use xlink:href="#m10b466c017" x="308.20482" y="84.361401" style="fill: #1f77b4; fill-opacity: 0.8; stroke: #1f77b4; stroke-opacity: 0.8"/>
     <use xlink:href="#m10b466c017" x="396.400157" y="62.004869" style="fill: #1f77b4; fill-opacity: 0.8; stroke: #1f77b4; stroke-opacity: 0.8"/>
    </g>
   </g>
   <g id="FillBetweenPolyCollection_1">
    <path d="M 68.929773 251.393911 
L 68.929773 286.985782 
L 72.939128 284.411813 
L 76.948483 281.74145 
L 80.957839 279.071087 
L 84.967194 276.437686 
L 88.976549 274.011093 
L 92.985905 271.583355 
L 96.99526 268.961018 
L 101.004615 266.500501 
L 105.013971 264.073926 
L 109.023326 261.646084 
L 113.032681 259.215914 
L 117.042037 256.786158 
L 121.051392 254.229886 
L 125.060747 251.891246 
L 129.070102 249.500829 
L 133.079458 247.073433 
L 137.088813 244.643865 
L 141.098168 242.17298 
L 145.107524 239.684875 
L 149.116879 237.19677 
L 153.126234 234.70324 
L 157.13559 231.880944 
L 161.144945 229.361549 
L 165.1543 226.997477 
L 169.163656 224.632308 
L 173.173011 222.066474 
L 177.182366 219.431342 
L 181.191722 216.919914 
L 185.201077 214.520053 
L 189.210432 212.120191 
L 193.219788 209.72033 
L 197.229143 207.316948 
L 201.238498 204.775421 
L 205.247853 202.083763 
L 209.257209 199.76963 
L 213.266564 197.360678 
L 217.275919 194.87835 
L 221.285275 192.387203 
L 225.29463 189.897766 
L 229.303985 187.607965 
L 233.313341 185.269487 
L 237.322696 182.79567 
L 241.332051 180.61997 
L 245.341407 178.146808 
L 249.350762 175.860253 
L 253.360117 173.591631 
L 257.369473 171.360632 
L 261.378828 169.065631 
L 265.388183 166.731442 
L 269.397539 164.44716 
L 273.406894 162.092265 
L 277.416249 159.917988 
L 281.425604 157.813264 
L 285.43496 155.434522 
L 289.444315 153.195632 
L 293.45367 150.883511 
L 297.463026 148.782806 
L 301.472381 146.681341 
L 305.481736 144.364065 
L 309.491092 142.160949 
L 313.500447 139.936544 
L 317.509802 137.749307 
L 321.519158 135.607522 
L 325.528513 133.605016 
L 329.537868 131.19254 
L 333.547224 129.000701 
L 337.556579 127.106806 
L 341.565934 125.089006 
L 345.57529 122.848999 
L 349.584645 120.840806 
L 353.594 118.828986 
L 357.603355 116.776443 
L 361.612711 114.623089 
L 365.622066 112.562571 
L 369.631421 110.554067 
L 373.640777 108.545563 
L 377.650132 106.537059 
L 381.659487 104.527496 
L 385.668843 102.429944 
L 389.678198 100.425482 
L 393.687553 98.488561 
L 397.696909 96.489731 
L 401.706264 94.449834 
L 405.715619 92.260338 
L 409.724975 90.188934 
L 413.73433 88.171542 
L 417.743685 86.157882 
L 421.753041 84.149219 
L 425.762396 82.139175 
L 429.771751 80.094792 
L 433.781106 78.07758 
L 437.790462 76.075829 
L 441.799817 74.074078 
L 445.809172 72.071588 
L 449.818528 70.070285 
L 453.827883 68.068826 
L 457.837238 66.067075 
L 461.846594 63.955673 
L 465.855949 61.938454 
L 465.855949 21.165455 
L 465.855949 21.165455 
L 461.846594 23.872927 
L 457.837238 26.5804 
L 453.827883 29.287873 
L 449.818528 31.805609 
L 445.809172 34.302491 
L 441.799817 36.799374 
L 437.790462 39.300535 
L 433.781106 41.78905 
L 429.771751 44.418647 
L 425.762396 47.11859 
L 421.753041 49.673618 
L 417.743685 52.066788 
L 413.73433 54.459959 
L 409.724975 56.853129 
L 405.715619 59.246299 
L 401.706264 61.734033 
L 397.696909 64.226418 
L 393.687553 66.721291 
L 389.678198 69.216164 
L 385.668843 71.749577 
L 381.659487 74.202845 
L 377.650132 76.694107 
L 373.640777 79.13743 
L 369.631421 81.44808 
L 365.622066 84.088726 
L 361.612711 86.665721 
L 357.603355 89.162774 
L 353.594 91.65356 
L 349.584645 94.143209 
L 345.57529 96.633186 
L 341.565934 98.969009 
L 337.556579 101.271068 
L 333.547224 103.511874 
L 329.537868 105.997978 
L 325.528513 108.345317 
L 321.519158 110.902718 
L 317.509802 113.482814 
L 313.500447 116.064917 
L 309.491092 118.491439 
L 305.481736 120.892875 
L 301.472381 123.240751 
L 297.463026 125.770819 
L 293.45367 128.04967 
L 289.444315 130.340979 
L 285.43496 132.810676 
L 281.425604 135.219508 
L 277.416249 137.602496 
L 273.406894 139.881699 
L 269.397539 142.011072 
L 265.388183 144.238077 
L 261.378828 146.459454 
L 257.369473 148.851189 
L 253.360117 151.121639 
L 249.350762 153.336022 
L 245.341407 155.553463 
L 241.332051 157.771187 
L 237.322696 159.989576 
L 233.313341 162.407537 
L 229.303985 164.62394 
L 225.29463 166.878555 
L 221.285275 169.085162 
L 217.275919 171.243348 
L 213.266564 173.477467 
L 209.257209 175.690079 
L 205.247853 177.904206 
L 201.238498 180.118334 
L 197.229143 182.332461 
L 193.219788 184.54701 
L 189.210432 186.807886 
L 185.201077 189.088313 
L 181.191722 191.372002 
L 177.182366 193.830906 
L 173.173011 195.934043 
L 169.163656 198.168086 
L 165.1543 200.339004 
L 161.144945 202.509921 
L 157.13559 204.661194 
L 153.126234 206.817977 
L 149.116879 208.89571 
L 145.107524 211.106086 
L 141.098168 213.236638 
L 137.088813 215.410909 
L 133.079458 217.625909 
L 129.070102 219.840652 
L 125.060747 222.028841 
L 121.051392 224.199779 
L 117.042037 226.279951 
L 113.032681 228.429139 
L 109.023326 230.619312 
L 105.013971 232.644578 
L 101.004615 234.520216 
L 96.99526 236.546981 
L 92.985905 238.579324 
L 88.976549 240.611667 
L 84.967194 242.644033 
L 80.957839 244.777324 
L 76.948483 247.105719 
L 72.939128 249.409411 
L 68.929773 251.393911 
z
" clip-path="url(#p45ebae8e3e)" style="fill: #1f77b4; fill-opacity: 0.15"/>
   </g>
   <g id="PathCollection_2">
    <defs>
     <path id="ma574f2cc57" d="M 0 -3 
L -3 3 
L 3 3 
z
" style="stroke: #ff7f0e; stroke-opacity: 0.8"/>
    </defs>
    <g clip-path="url(#p45ebae8e3e)">
     <use xlink:href="#ma574f2cc57" x="195.044387" y="290.538309" style="fill: #ff7f0e; fill-opacity: 0.8; stroke: #ff7f0e; stroke-opacity: 0.8"/>
     <use xlink:href="#ma574f2cc57" x="239.157776" y="249.551333" style="fill: #ff7f0e; fill-opacity: 0.8; stroke: #ff7f0e; stroke-opacity: 0.8"/>
     <use xlink:href="#ma574f2cc57" x="283.271166" y="213.532476" style="fill: #ff7f0e; fill-opacity: 0.8; stroke: #ff7f0e; stroke-opacity: 0.8"/>
     <use xlink:href="#ma574f2cc57" x="327.353113" y="178.755648" style="fill: #ff7f0e; fill-opacity: 0.8; stroke: #ff7f0e; stroke-opacity: 0.8"/>
     <use xlink:href="#ma574f2cc57" x="371.466502" y="147.704909" style="fill: #ff7f0e; fill-opacity: 0.8; stroke: #ff7f0e; stroke-opacity: 0.8"/>
     <use xlink:href="#ma574f2cc57" x="415.579891" y="119.138229" style="fill: #ff7f0e; fill-opacity: 0.8; stroke: #ff7f0e; stroke-opacity: 0.8"/>
     <use xlink:href="#ma574f2cc57" x="459.661838" y="91.813579" style="fill: #ff7f0e; fill-opacity: 0.8; stroke: #ff7f0e; stroke-opacity: 0.8"/>
     <use xlink:href="#ma574f2cc57" x="503.775227" y="66.972987" style="fill: #ff7f0e; fill-opacity: 0.8; stroke: #ff7f0e; stroke-opacity: 0.8"/>
     <use xlink:href="#ma574f2cc57" x="239.157776" y="257.003511" style="fill: #ff7f0e; fill-opacity: 0.8; stroke: #ff7f0e; stroke-opacity: 0.8"/>
     <use xlink:href="#ma574f2cc57" x="327.353113" y="189.933914" style="fill: #ff7f0e; fill-opacity: 0.8; stroke: #ff7f0e; stroke-opacity: 0.8"/>
     <use xlink:href="#ma574f2cc57" x="195.044387" y="300.474545" style="fill: #ff7f0e; fill-opacity: 0.8; stroke: #ff7f0e; stroke-opacity: 0.8"/>
     <use xlink:href="#ma574f2cc57" x="283.271166" y="235.889008" style="fill: #ff7f0e; fill-opacity: 0.8; stroke: #ff7f0e; stroke-opacity: 0.8"/>
    </g>
   </g>
   <g id="FillBetweenPolyCollection_2">
    <path d="M 195.044387 280.527428 
L 195.044387 296.840228 
L 198.162881 294.378597 
L 201.281374 291.813706 
L 204.399867 289.267075 
L 207.518361 286.832719 
L 210.636854 284.343799 
L 213.755347 281.883931 
L 216.873841 279.422539 
L 219.992334 276.957631 
L 223.110827 274.496186 
L 226.229321 271.840913 
L 229.347814 269.43698 
L 232.466307 266.889799 
L 235.584801 264.406405 
L 238.703294 262.030234 
L 241.821787 259.500115 
L 244.940281 257.085656 
L 248.058774 254.595192 
L 251.177267 252.130819 
L 254.295761 249.637837 
L 257.414254 247.239306 
L 260.532747 244.787508 
L 263.651241 242.37248 
L 266.769734 239.927142 
L 269.888227 237.520275 
L 273.006721 235.106785 
L 276.125214 232.652524 
L 279.243707 230.308818 
L 282.362201 227.894301 
L 285.480694 225.454043 
L 288.599187 223.060327 
L 291.717681 220.734537 
L 294.836174 218.349756 
L 297.954667 215.970175 
L 301.073161 213.576005 
L 304.191654 211.233897 
L 307.310147 208.901131 
L 310.428641 206.54678 
L 313.547134 204.158407 
L 316.665627 201.800245 
L 319.784121 199.486743 
L 322.902614 197.131286 
L 326.021107 194.787733 
L 329.139601 192.464671 
L 332.258094 190.141609 
L 335.376587 187.818547 
L 338.495081 185.495485 
L 341.613574 183.172424 
L 344.732067 180.849247 
L 347.850561 178.525073 
L 350.969054 176.195209 
L 354.087547 173.865346 
L 357.206041 171.535483 
L 360.324534 169.20562 
L 363.443027 166.882992 
L 366.561521 164.54597 
L 369.680014 162.231945 
L 372.798507 159.926045 
L 375.917001 157.603896 
L 379.035494 155.296255 
L 382.153987 152.974647 
L 385.272481 150.651987 
L 388.390974 148.329327 
L 391.509467 146.013196 
L 394.627961 143.700151 
L 397.746454 141.40189 
L 400.864947 139.085512 
L 403.983441 136.768938 
L 407.101934 134.464479 
L 410.220427 132.190388 
L 413.338921 129.838662 
L 416.457414 127.525836 
L 419.575907 125.211051 
L 422.694401 122.947668 
L 425.812894 120.634838 
L 428.931387 118.443699 
L 432.049881 116.102623 
L 435.168374 113.796628 
L 438.286867 111.504823 
L 441.405361 109.181948 
L 444.523854 106.859074 
L 447.642347 104.534749 
L 450.760841 102.278623 
L 453.879334 99.986244 
L 456.997827 97.761648 
L 460.116321 95.573704 
L 463.234814 93.233147 
L 466.353307 90.980867 
L 469.471801 88.696914 
L 472.590294 86.423138 
L 475.708787 84.106112 
L 478.827281 81.808013 
L 481.945774 79.575216 
L 485.064267 77.282308 
L 488.182761 75.016928 
L 491.301254 72.752908 
L 494.419747 70.488887 
L 497.538241 68.225503 
L 500.656734 65.977241 
L 503.775227 63.729177 
L 503.775227 41.188374 
L 503.775227 41.188374 
L 500.656734 43.758439 
L 497.538241 46.320017 
L 494.419747 48.830897 
L 491.301254 51.341777 
L 488.182761 53.852657 
L 485.064267 56.363537 
L 481.945774 58.874417 
L 478.827281 61.442388 
L 475.708787 64.028976 
L 472.590294 66.590172 
L 469.471801 69.069853 
L 466.353307 71.551618 
L 463.234814 74.110793 
L 460.116321 76.720521 
L 456.997827 79.330248 
L 453.879334 81.939975 
L 450.760841 84.549703 
L 447.642347 87.082331 
L 444.523854 89.603998 
L 441.405361 92.125664 
L 438.286867 94.648018 
L 435.168374 97.173945 
L 432.049881 99.635973 
L 428.931387 102.183952 
L 425.812894 104.746204 
L 422.694401 107.2721 
L 419.575907 109.797995 
L 416.457414 112.368035 
L 413.338921 114.966759 
L 410.220427 117.565482 
L 407.101934 120.164858 
L 403.983441 122.722442 
L 400.864947 125.257573 
L 397.746454 127.792704 
L 394.627961 130.327835 
L 391.509467 132.90675 
L 388.390974 135.502584 
L 385.272481 138.013422 
L 382.153987 140.46231 
L 379.035494 142.993633 
L 375.917001 145.524832 
L 372.798507 148.058671 
L 369.680014 150.593963 
L 366.561521 153.14246 
L 363.443027 155.66205 
L 360.324534 158.102398 
L 357.206041 160.652685 
L 354.087547 163.203284 
L 350.969054 165.727754 
L 347.850561 168.023412 
L 344.732067 170.517213 
L 341.613574 173.01295 
L 338.495081 175.392333 
L 335.376587 177.837174 
L 332.258094 180.28296 
L 329.139601 182.639025 
L 326.021107 185.033874 
L 322.902614 187.377705 
L 319.784121 189.712261 
L 316.665627 192.142479 
L 313.547134 194.555109 
L 310.428641 196.863563 
L 307.310147 199.250613 
L 304.191654 201.564233 
L 301.073161 203.961693 
L 297.954667 206.369941 
L 294.836174 208.752606 
L 291.717681 211.131072 
L 288.599187 213.51453 
L 285.480694 215.8267 
L 282.362201 218.115461 
L 279.243707 220.435596 
L 276.125214 222.659503 
L 273.006721 224.862342 
L 269.888227 227.202689 
L 266.769734 229.434649 
L 263.651241 231.663106 
L 260.532747 233.881002 
L 257.414254 236.087436 
L 254.295761 238.29387 
L 251.177267 240.510696 
L 248.058774 242.749387 
L 244.940281 244.989917 
L 241.821787 247.228963 
L 238.703294 249.46801 
L 235.584801 251.708345 
L 232.466307 253.989235 
L 229.347814 256.22147 
L 226.229321 258.441461 
L 223.110827 260.666602 
L 219.992334 262.905553 
L 216.873841 265.13521 
L 213.755347 267.334374 
L 210.636854 269.533538 
L 207.518361 271.737628 
L 204.399867 273.944888 
L 201.281374 276.138036 
L 198.162881 278.331289 
L 195.044387 280.527428 
z
" clip-path="url(#p45ebae8e3e)" style="fill: #ff7f0e; fill-opacity: 0.15"/>
   </g>
   <g id="matplotlib.axis_1">
    <g id="xtick_1">
     <g id="line2d_1">
      <defs>
       <path id="m681727aade" d="M 0 0 
L 0 3.5 
" style="stroke: #000000; stroke-width: 0.8"/>
      </defs>
      <g>
       <use xlink:href="#m681727aade" x="93.957754" y="314.44" style="stroke: #000000; stroke-width: 0.8"/>
      </g>
     </g>
     <g id="text_1">
      <!-- 40 -->
      <g transform="translate(87.595254 329.038437) scale(0.1 -0.1)">
       <defs>
        <path id="DejaVuSans-34" d="M 2419 4116 
L 825 1625 
L 2419 1625 
L 2419 4116 
z
M 2253 4666 
L 3047 4666 
L 3047 1625 
L 3713 1625 
L 3713 1100 
L 3047 1100 
L 3047 0 
L 2419 0 
L 2419 1100 
L 313 1100 
L 313 1709 
L 2253 4666 
z
" transform="scale(0.015625)"/>
        <path id="DejaVuSans-30" d="M 2034 4250 
Q 1547 4250 1301 3770 
Q 1056 3291 1056 2328 
Q 1056 1369 1301 889 
Q 1547 409 2034 409 
Q 2525 409 2770 889 
Q 3016 1369 3016 2328 
Q 3016 3291 2770 3770 
Q 2525 4250 2034 4250 
z
M 2034 4750 
Q 2819 4750 3233 4129 
Q 3647 3509 3647 2328 
Q 3647 1150 3233 529 
Q 2819 -91 2034 -91 
Q 1250 -91 836 529 
Q 422 1150 422 2328 
Q 422 3509 836 4129 
Q 1250 4750 2034 4750 
z
" transform="scale(0.015625)"/>
       </defs>
       <use xlink:href="#DejaVuSans-34"/>
       <use xlink:href="#DejaVuSans-30" transform="translate(63.623047 0)"/>
      </g>
     </g>
    </g>
    <g id="xtick_2">
     <g id="line2d_2">
      <g>
       <use xlink:href="#m681727aade" x="156.842129" y="314.44" style="stroke: #000000; stroke-width: 0.8"/>
      </g>
     </g>
     <g id="text_2">
      <!-- 60 -->
      <g transform="translate(150.479629 329.038437) scale(0.1 -0.1)">
       <defs>
        <path id="DejaVuSans-36" d="M 2113 2584 
Q 1688 2584 1439 2293 
Q 1191 2003 1191 1497 
Q 1191 994 1439 701 
Q 1688 409 2113 409 
Q 2538 409 2786 701 
Q 3034 994 3034 1497 
Q 3034 2003 2786 2293 
Q 2538 2584 2113 2584 
z
M 3366 4563 
L 3366 3988 
Q 3128 4100 2886 4159 
Q 2644 4219 2406 4219 
Q 1781 4219 1451 3797 
Q 1122 3375 1075 2522 
Q 1259 2794 1537 2939 
Q 1816 3084 2150 3084 
Q 2853 3084 3261 2657 
Q 3669 2231 3669 1497 
Q 3669 778 3244 343 
Q 2819 -91 2113 -91 
Q 1303 -91 875 529 
Q 447 1150 447 2328 
Q 447 3434 972 4092 
Q 1497 4750 2381 4750 
Q 2619 4750 2861 4703 
Q 3103 4656 3366 4563 
z
" transform="scale(0.015625)"/>
       </defs>
       <use xlink:href="#DejaVuSans-36"/>
       <use xlink:href="#DejaVuSans-30" transform="translate(63.623047 0)"/>
      </g>
     </g>
    </g>
    <g id="xtick_3">
     <g id="line2d_3">
      <g>
       <use xlink:href="#m681727aade" x="219.726504" y="314.44" style="stroke: #000000; stroke-width: 0.8"/>
      </g>
     </g>
     <g id="text_3">
      <!-- 80 -->
      <g transform="translate(213.364004 329.038437) scale(0.1 -0.1)">
       <defs>
        <path id="DejaVuSans-38" d="M 2034 2216 
Q 1584 2216 1326 1975 
Q 1069 1734 1069 1313 
Q 1069 891 1326 650 
Q 1584 409 2034 409 
Q 2484 409 2743 651 
Q 3003 894 3003 1313 
Q 3003 1734 2745 1975 
Q 2488 2216 2034 2216 
z
M 1403 2484 
Q 997 2584 770 2862 
Q 544 3141 544 3541 
Q 544 4100 942 4425 
Q 1341 4750 2034 4750 
Q 2731 4750 3128 4425 
Q 3525 4100 3525 3541 
Q 3525 3141 3298 2862 
Q 3072 2584 2669 2484 
Q 3125 2378 3379 2068 
Q 3634 1759 3634 1313 
Q 3634 634 3220 271 
Q 2806 -91 2034 -91 
Q 1263 -91 848 271 
Q 434 634 434 1313 
Q 434 1759 690 2068 
Q 947 2378 1403 2484 
z
M 1172 3481 
Q 1172 3119 1398 2916 
Q 1625 2713 2034 2713 
Q 2441 2713 2670 2916 
Q 2900 3119 2900 3481 
Q 2900 3844 2670 4047 
Q 2441 4250 2034 4250 
Q 1625 4250 1398 4047 
Q 1172 3844 1172 3481 
z
" transform="scale(0.015625)"/>
       </defs>
       <use xlink:href="#DejaVuSans-38"/>
       <use xlink:href="#DejaVuSans-30" transform="translate(63.623047 0)"/>
      </g>
     </g>
    </g>
    <g id="xtick_4">
     <g id="line2d_4">
      <g>
       <use xlink:href="#m681727aade" x="282.61088" y="314.44" style="stroke: #000000; stroke-width: 0.8"/>
      </g>
     </g>
     <g id="text_4">
      <!-- 100 -->
      <g transform="translate(273.06713 329.038437) scale(0.1 -0.1)">
       <defs>
        <path id="DejaVuSans-31" d="M 794 531 
L 1825 531 
L 1825 4091 
L 703 3866 
L 703 4441 
L 1819 4666 
L 2450 4666 
L 2450 531 
L 3481 531 
L 3481 0 
L 794 0 
L 794 531 
z
" transform="scale(0.015625)"/>
       </defs>
       <use xlink:href="#DejaVuSans-31"/>
       <use xlink:href="#DejaVuSans-30" transform="translate(63.623047 0)"/>
       <use xlink:href="#DejaVuSans-30" transform="translate(127.246094 0)"/>
      </g>
     </g>
    </g>
    <g id="xtick_5">
     <g id="line2d_5">
      <g>
       <use xlink:href="#m681727aade" x="345.495255" y="314.44" style="stroke: #000000; stroke-width: 0.8"/>
      </g>
     </g>
     <g id="text_5">
      <!-- 120 -->
      <g transform="translate(335.951505 329.038437) scale(0.1 -0.1)">
       <defs>
        <path id="DejaVuSans-32" d="M 1228 531 
L 3431 531 
L 3431 0 
L 469 0 
L 469 531 
Q 828 903 1448 1529 
Q 2069 2156 2228 2338 
Q 2531 2678 2651 2914 
Q 2772 3150 2772 3378 
Q 2772 3750 2511 3984 
Q 2250 4219 1831 4219 
Q 1534 4219 1204 4116 
Q 875 4013 500 3803 
L 500 4441 
Q 881 4594 1212 4672 
Q 1544 4750 1819 4750 
Q 2544 4750 2975 4387 
Q 3406 4025 3406 3419 
Q 3406 3131 3298 2873 
Q 3191 2616 2906 2266 
Q 2828 2175 2409 1742 
Q 1991 1309 1228 531 
z
" transform="scale(0.015625)"/>
       </defs>
       <use xlink:href="#DejaVuSans-31"/>
       <use xlink:href="#DejaVuSans-32" transform="translate(63.623047 0)"/>
       <use xlink:href="#DejaVuSans-30" transform="translate(127.246094 0)"/>
      </g>
     </g>
    </g>
    <g id="xtick_6">
     <g id="line2d_6">
      <g>
       <use xlink:href="#m681727aade" x="408.37963" y="314.44" style="stroke: #000000; stroke-width: 0.8"/>
      </g>
     </g>
     <g id="text_6">
      <!-- 140 -->
      <g transform="translate(398.83588 329.038437) scale(0.1 -0.1)">
       <use xlink:href="#DejaVuSans-31"/>
       <use xlink:href="#DejaVuSans-34" transform="translate(63.623047 0)"/>
       <use xlink:href="#DejaVuSans-30" transform="translate(127.246094 0)"/>
      </g>
     </g>
    </g>
    <g id="xtick_7">
     <g id="line2d_7">
      <g>
       <use xlink:href="#m681727aade" x="471.264005" y="314.44" style="stroke: #000000; stroke-width: 0.8"/>
      </g>
     </g>
     <g id="text_7">
      <!-- 160 -->
      <g transform="translate(461.720255 329.038437) scale(0.1 -0.1)">
       <use xlink:href="#DejaVuSans-31"/>
       <use xlink:href="#DejaVuSans-36" transform="translate(63.623047 0)"/>
       <use xlink:href="#DejaVuSans-30" transform="translate(127.246094 0)"/>
      </g>
     </g>
    </g>
    <g id="text_8">
     <!-- MW, g/mol -->
     <g transform="translate(259.739219 342.716562) scale(0.1 -0.1)">
      <defs>
       <path id="DejaVuSans-4d" d="M 628 4666 
L 1569 4666 
L 2759 1491 
L 3956 4666 
L 4897 4666 
L 4897 0 
L 4281 0 
L 4281 4097 
L 3078 897 
L 2444 897 
L 1241 4097 
L 1241 0 
L 628 0 
L 628 4666 
z
" transform="scale(0.015625)"/>
       <path id="DejaVuSans-57" d="M 213 4666 
L 850 4666 
L 1831 722 
L 2809 4666 
L 3519 4666 
L 4500 722 
L 5478 4666 
L 6119 4666 
L 4947 0 
L 4153 0 
L 3169 4050 
L 2175 0 
L 1381 0 
L 213 4666 
z
" transform="scale(0.015625)"/>
       <path id="DejaVuSans-2c" d="M 750 794 
L 1409 794 
L 1409 256 
L 897 -744 
L 494 -744 
L 750 256 
L 750 794 
z
" transform="scale(0.015625)"/>
       <path id="DejaVuSans-20" transform="scale(0.015625)"/>
       <path id="DejaVuSans-67" d="M 2906 1791 
Q 2906 2416 2648 2759 
Q 2391 3103 1925 3103 
Q 1463 3103 1205 2759 
Q 947 2416 947 1791 
Q 947 1169 1205 825 
Q 1463 481 1925 481 
Q 2391 481 2648 825 
Q 2906 1169 2906 1791 
z
M 3481 434 
Q 3481 -459 3084 -895 
Q 2688 -1331 1869 -1331 
Q 1566 -1331 1297 -1286 
Q 1028 -1241 775 -1147 
L 775 -588 
Q 1028 -725 1275 -790 
Q 1522 -856 1778 -856 
Q 2344 -856 2625 -561 
Q 2906 -266 2906 331 
L 2906 616 
Q 2728 306 2450 153 
Q 2172 0 1784 0 
Q 1141 0 747 490 
Q 353 981 353 1791 
Q 353 2603 747 3093 
Q 1141 3584 1784 3584 
Q 2172 3584 2450 3431 
Q 2728 3278 2906 2969 
L 2906 3500 
L 3481 3500 
L 3481 434 
z
" transform="scale(0.015625)"/>
       <path id="DejaVuSans-2f" d="M 1625 4666 
L 2156 4666 
L 531 -594 
L 0 -594 
L 1625 4666 
z
" transform="scale(0.015625)"/>
       <path id="DejaVuSans-6d" d="M 3328 2828 
Q 3544 3216 3844 3400 
Q 4144 3584 4550 3584 
Q 5097 3584 5394 3201 
Q 5691 2819 5691 2113 
L 5691 0 
L 5113 0 
L 5113 2094 
Q 5113 2597 4934 2840 
Q 4756 3084 4391 3084 
Q 3944 3084 3684 2787 
Q 3425 2491 3425 1978 
L 3425 0 
L 2847 0 
L 2847 2094 
Q 2847 2600 2669 2842 
Q 2491 3084 2119 3084 
Q 1678 3084 1418 2786 
Q 1159 2488 1159 1978 
L 1159 0 
L 581 0 
L 581 3500 
L 1159 3500 
L 1159 2956 
Q 1356 3278 1631 3431 
Q 1906 3584 2284 3584 
Q 2666 3584 2933 3390 
Q 3200 3197 3328 2828 
z
" transform="scale(0.015625)"/>
       <path id="DejaVuSans-6f" d="M 1959 3097 
Q 1497 3097 1228 2736 
Q 959 2375 959 1747 
Q 959 1119 1226 758 
Q 1494 397 1959 397 
Q 2419 397 2687 759 
Q 2956 1122 2956 1747 
Q 2956 2369 2687 2733 
Q 2419 3097 1959 3097 
z
M 1959 3584 
Q 2709 3584 3137 3096 
Q 3566 2609 3566 1747 
Q 3566 888 3137 398 
Q 2709 -91 1959 -91 
Q 1206 -91 779 398 
Q 353 888 353 1747 
Q 353 2609 779 3096 
Q 1206 3584 1959 3584 
z
" transform="scale(0.015625)"/>
       <path id="DejaVuSans-6c" d="M 603 4863 
L 1178 4863 
L 1178 0 
L 603 0 
L 603 4863 
z
" transform="scale(0.015625)"/>
      </defs>
      <use xlink:href="#DejaVuSans-4d"/>
      <use xlink:href="#DejaVuSans-57" transform="translate(86.279297 0)"/>
      <use xlink:href="#DejaVuSans-2c" transform="translate(185.15625 0)"/>
      <use xlink:href="#DejaVuSans-20" transform="translate(216.943359 0)"/>
      <use xlink:href="#DejaVuSans-67" transform="translate(248.730469 0)"/>
      <use xlink:href="#DejaVuSans-2f" transform="translate(312.207031 0)"/>
      <use xlink:href="#DejaVuSans-6d" transform="translate(345.898438 0)"/>
      <use xlink:href="#DejaVuSans-6f" transform="translate(443.310547 0)"/>
      <use xlink:href="#DejaVuSans-6c" transform="translate(504.492188 0)"/>
     </g>
    </g>
   </g>
   <g id="matplotlib.axis_2">
    <g id="ytick_1">
     <g id="line2d_8">
      <defs>
       <path id="m893a333cd0" d="M 0 0 
L -3.5 0 
" style="stroke: #000000; stroke-width: 0.8"/>
      </defs>
      <g>
       <use xlink:href="#m893a333cd0" x="47.1875" y="273.149895" style="stroke: #000000; stroke-width: 0.8"/>
      </g>
     </g>
     <g id="text_9">
      <!-- 50 -->
      <g transform="translate(27.4625 276.949114) scale(0.1 -0.1)">
       <defs>
        <path id="DejaVuSans-35" d="M 691 4666 
L 3169 4666 
L 3169 4134 
L 1269 4134 
L 1269 2991 
Q 1406 3038 1543 3061 
Q 1681 3084 1819 3084 
Q 2600 3084 3056 2656 
Q 3513 2228 3513 1497 
Q 3513 744 3044 326 
Q 2575 -91 1722 -91 
Q 1428 -91 1123 -41 
Q 819 9 494 109 
L 494 744 
Q 775 591 1075 516 
Q 1375 441 1709 441 
Q 2250 441 2565 725 
Q 2881 1009 2881 1497 
Q 2881 1984 2565 2268 
Q 2250 2553 1709 2553 
Q 1456 2553 1204 2497 
Q 953 2441 691 2322 
L 691 4666 
z
" transform="scale(0.015625)"/>
       </defs>
       <use xlink:href="#DejaVuSans-35"/>
       <use xlink:href="#DejaVuSans-30" transform="translate(63.623047 0)"/>
      </g>
     </g>
    </g>
    <g id="ytick_2">
     <g id="line2d_9">
      <g>
       <use xlink:href="#m893a333cd0" x="47.1875" y="211.048417" style="stroke: #000000; stroke-width: 0.8"/>
      </g>
     </g>
     <g id="text_10">
      <!-- 100 -->
      <g transform="translate(21.1 214.847636) scale(0.1 -0.1)">
       <use xlink:href="#DejaVuSans-31"/>
       <use xlink:href="#DejaVuSans-30" transform="translate(63.623047 0)"/>
       <use xlink:href="#DejaVuSans-30" transform="translate(127.246094 0)"/>
      </g>
     </g>
    </g>
    <g id="ytick_3">
     <g id="line2d_10">
      <g>
       <use xlink:href="#m893a333cd0" x="47.1875" y="148.946939" style="stroke: #000000; stroke-width: 0.8"/>
      </g>
     </g>
     <g id="text_11">
      <!-- 150 -->
      <g transform="translate(21.1 152.746157) scale(0.1 -0.1)">
       <use xlink:href="#DejaVuSans-31"/>
       <use xlink:href="#DejaVuSans-35" transform="translate(63.623047 0)"/>
       <use xlink:href="#DejaVuSans-30" transform="translate(127.246094 0)"/>
      </g>
     </g>
    </g>
    <g id="ytick_4">
     <g id="line2d_11">
      <g>
       <use xlink:href="#m893a333cd0" x="47.1875" y="86.84546" style="stroke: #000000; stroke-width: 0.8"/>
      </g>
     </g>
     <g id="text_12">
      <!-- 200 -->
      <g transform="translate(21.1 90.644679) scale(0.1 -0.1)">
       <use xlink:href="#DejaVuSans-32"/>
       <use xlink:href="#DejaVuSans-30" transform="translate(63.623047 0)"/>
       <use xlink:href="#DejaVuSans-30" transform="translate(127.246094 0)"/>
      </g>
     </g>
    </g>
    <g id="ytick_5">
     <g id="line2d_12">
      <g>
       <use xlink:href="#m893a333cd0" x="47.1875" y="24.743982" style="stroke: #000000; stroke-width: 0.8"/>
      </g>
     </g>
     <g id="text_13">
      <!-- 250 -->
      <g transform="translate(21.1 28.543201) scale(0.1 -0.1)">
       <use xlink:href="#DejaVuSans-32"/>
       <use xlink:href="#DejaVuSans-35" transform="translate(63.623047 0)"/>
       <use xlink:href="#DejaVuSans-30" transform="translate(127.246094 0)"/>
      </g>
     </g>
    </g>
    <g id="text_14">
     <!-- bp, $^o$C -->
     <g transform="translate(15 176.17) rotate(-90) scale(0.1 -0.1)">
      <defs>
       <path id="DejaVuSans-62" d="M 3116 1747 
Q 3116 2381 2855 2742 
Q 2594 3103 2138 3103 
Q 1681 3103 1420 2742 
Q 1159 2381 1159 1747 
Q 1159 1113 1420 752 
Q 1681 391 2138 391 
Q 2594 391 2855 752 
Q 3116 1113 3116 1747 
z
M 1159 2969 
Q 1341 3281 1617 3432 
Q 1894 3584 2278 3584 
Q 2916 3584 3314 3078 
Q 3713 2572 3713 1747 
Q 3713 922 3314 415 
Q 2916 -91 2278 -91 
Q 1894 -91 1617 61 
Q 1341 213 1159 525 
L 1159 0 
L 581 0 
L 581 4863 
L 1159 4863 
L 1159 2969 
z
" transform="scale(0.015625)"/>
       <path id="DejaVuSans-70" d="M 1159 525 
L 1159 -1331 
L 581 -1331 
L 581 3500 
L 1159 3500 
L 1159 2969 
Q 1341 3281 1617 3432 
Q 1894 3584 2278 3584 
Q 2916 3584 3314 3078 
Q 3713 2572 3713 1747 
Q 3713 922 3314 415 
Q 2916 -91 2278 -91 
Q 1894 -91 1617 61 
Q 1341 213 1159 525 
z
M 3116 1747 
Q 3116 2381 2855 2742 
Q 2594 3103 2138 3103 
Q 1681 3103 1420 2742 
Q 1159 2381 1159 1747 
Q 1159 1113 1420 752 
Q 1681 391 2138 391 
Q 2594 391 2855 752 
Q 3116 1113 3116 1747 
z
" transform="scale(0.015625)"/>
       <path id="DejaVuSans-Oblique-6f" d="M 1625 -91 
Q 1009 -91 651 289 
Q 294 669 294 1325 
Q 294 1706 417 2101 
Q 541 2497 738 2766 
Q 1047 3184 1428 3384 
Q 1809 3584 2291 3584 
Q 2888 3584 3255 3212 
Q 3622 2841 3622 2241 
Q 3622 1825 3500 1412 
Q 3378 1000 3181 728 
Q 2875 309 2494 109 
Q 2113 -91 1625 -91 
z
M 891 1344 
Q 891 869 1089 633 
Q 1288 397 1691 397 
Q 2269 397 2648 901 
Q 3028 1406 3028 2181 
Q 3028 2634 2825 2865 
Q 2622 3097 2228 3097 
Q 1903 3097 1650 2945 
Q 1397 2794 1197 2484 
Q 1050 2253 970 1956 
Q 891 1659 891 1344 
z
" transform="scale(0.015625)"/>
       <path id="DejaVuSans-43" d="M 4122 4306 
L 4122 3641 
Q 3803 3938 3442 4084 
Q 3081 4231 2675 4231 
Q 1875 4231 1450 3742 
Q 1025 3253 1025 2328 
Q 1025 1406 1450 917 
Q 1875 428 2675 428 
Q 3081 428 3442 575 
Q 3803 722 4122 1019 
L 4122 359 
Q 3791 134 3420 21 
Q 3050 -91 2638 -91 
Q 1578 -91 968 557 
Q 359 1206 359 2328 
Q 359 3453 968 4101 
Q 1578 4750 2638 4750 
Q 3056 4750 3426 4639 
Q 3797 4528 4122 4306 
z
" transform="scale(0.015625)"/>
      </defs>
      <use xlink:href="#DejaVuSans-62" transform="translate(0 0.51875)"/>
      <use xlink:href="#DejaVuSans-70" transform="translate(63.476562 0.51875)"/>
      <use xlink:href="#DejaVuSans-2c" transform="translate(126.953125 0.51875)"/>
      <use xlink:href="#DejaVuSans-20" transform="translate(158.740234 0.51875)"/>
      <use xlink:href="#DejaVuSans-Oblique-6f" transform="translate(191.484375 38.8) scale(0.7)"/>
      <use xlink:href="#DejaVuSans-43" transform="translate(237.045898 0.51875)"/>
     </g>
    </g>
   </g>
   <g id="line2d_13">
    <path d="M 68.929773 265.064832 
L 72.939128 262.822498 
L 76.948483 260.580164 
L 80.957839 258.33783 
L 84.967194 256.095496 
L 88.976549 253.853162 
L 92.985905 251.610828 
L 96.99526 249.368493 
L 101.004615 247.126159 
L 105.013971 244.883825 
L 109.023326 242.641491 
L 113.032681 240.399157 
L 117.042037 238.156823 
L 121.051392 235.914489 
L 125.060747 233.672155 
L 129.070102 231.429821 
L 133.079458 229.187487 
L 137.088813 226.945153 
L 141.098168 224.702819 
L 145.107524 222.460485 
L 149.116879 220.218151 
L 153.126234 217.975817 
L 157.13559 215.733483 
L 161.144945 213.491149 
L 165.1543 211.248815 
L 169.163656 209.00648 
L 173.173011 206.764146 
L 177.182366 204.521812 
L 181.191722 202.279478 
L 185.201077 200.037144 
L 189.210432 197.79481 
L 193.219788 195.552476 
L 197.229143 193.310142 
L 201.238498 191.067808 
L 205.247853 188.825474 
L 209.257209 186.58314 
L 213.266564 184.340806 
L 217.275919 182.098472 
L 221.285275 179.856138 
L 225.29463 177.613804 
L 229.303985 175.37147 
L 233.313341 173.129136 
L 237.322696 170.886802 
L 241.332051 168.644467 
L 245.341407 166.402133 
L 249.350762 164.159799 
L 253.360117 161.917465 
L 257.369473 159.675131 
L 261.378828 157.432797 
L 265.388183 155.190463 
L 269.397539 152.948129 
L 273.406894 150.705795 
L 277.416249 148.463461 
L 281.425604 146.221127 
L 285.43496 143.978793 
L 289.444315 141.736459 
L 293.45367 139.494125 
L 297.463026 137.251791 
L 301.472381 135.009457 
L 305.481736 132.767123 
L 309.491092 130.524789 
L 313.500447 128.282454 
L 317.509802 126.04012 
L 321.519158 123.797786 
L 325.528513 121.555452 
L 329.537868 119.313118 
L 333.547224 117.070784 
L 337.556579 114.82845 
L 341.565934 112.586116 
L 345.57529 110.343782 
L 349.584645 108.101448 
L 353.594 105.859114 
L 357.603355 103.61678 
L 361.612711 101.374446 
L 365.622066 99.132112 
L 369.631421 96.889778 
L 373.640777 94.647444 
L 377.650132 92.40511 
L 381.659487 90.162776 
L 385.668843 87.920441 
L 389.678198 85.678107 
L 393.687553 83.435773 
L 397.696909 81.193439 
L 401.706264 78.951105 
L 405.715619 76.708771 
L 409.724975 74.466437 
L 413.73433 72.224103 
L 417.743685 69.981769 
L 421.753041 67.739435 
L 425.762396 65.497101 
L 429.771751 63.254767 
L 433.781106 61.012433 
L 437.790462 58.770099 
L 441.799817 56.527765 
L 445.809172 54.285431 
L 449.818528 52.043097 
L 453.827883 49.800763 
L 457.837238 47.558428 
L 461.846594 45.316094 
L 465.855949 43.07376 
" clip-path="url(#p45ebae8e3e)" style="fill: none; stroke: #1f77b4; stroke-width: 2.25; stroke-linecap: square"/>
   </g>
   <g id="line2d_14">
    <path d="M 195.044387 289.255206 
L 198.162881 286.905832 
L 201.281374 284.556458 
L 204.399867 282.207084 
L 207.518361 279.857709 
L 210.636854 277.508335 
L 213.755347 275.158961 
L 216.873841 272.809586 
L 219.992334 270.460212 
L 223.110827 268.110838 
L 226.229321 265.761463 
L 229.347814 263.412089 
L 232.466307 261.062715 
L 235.584801 258.71334 
L 238.703294 256.363966 
L 241.821787 254.014592 
L 244.940281 251.665217 
L 248.058774 249.315843 
L 251.177267 246.966469 
L 254.295761 244.617094 
L 257.414254 242.26772 
L 260.532747 239.918346 
L 263.651241 237.568972 
L 266.769734 235.219597 
L 269.888227 232.870223 
L 273.006721 230.520849 
L 276.125214 228.171474 
L 279.243707 225.8221 
L 282.362201 223.472726 
L 285.480694 221.123351 
L 288.599187 218.773977 
L 291.717681 216.424603 
L 294.836174 214.075228 
L 297.954667 211.725854 
L 301.073161 209.37648 
L 304.191654 207.027105 
L 307.310147 204.677731 
L 310.428641 202.328357 
L 313.547134 199.978982 
L 316.665627 197.629608 
L 319.784121 195.280234 
L 322.902614 192.93086 
L 326.021107 190.581485 
L 329.139601 188.232111 
L 332.258094 185.882737 
L 335.376587 183.533362 
L 338.495081 181.183988 
L 341.613574 178.834614 
L 344.732067 176.485239 
L 347.850561 174.135865 
L 350.969054 171.786491 
L 354.087547 169.437116 
L 357.206041 167.087742 
L 360.324534 164.738368 
L 363.443027 162.388993 
L 366.561521 160.039619 
L 369.680014 157.690245 
L 372.798507 155.34087 
L 375.917001 152.991496 
L 379.035494 150.642122 
L 382.153987 148.292748 
L 385.272481 145.943373 
L 388.390974 143.593999 
L 391.509467 141.244625 
L 394.627961 138.89525 
L 397.746454 136.545876 
L 400.864947 134.196502 
L 403.983441 131.847127 
L 407.101934 129.497753 
L 410.220427 127.148379 
L 413.338921 124.799004 
L 416.457414 122.44963 
L 419.575907 120.100256 
L 422.694401 117.750881 
L 425.812894 115.401507 
L 428.931387 113.052133 
L 432.049881 110.702758 
L 435.168374 108.353384 
L 438.286867 106.00401 
L 441.405361 103.654636 
L 444.523854 101.305261 
L 447.642347 98.955887 
L 450.760841 96.606513 
L 453.879334 94.257138 
L 456.997827 91.907764 
L 460.116321 89.55839 
L 463.234814 87.209015 
L 466.353307 84.859641 
L 469.471801 82.510267 
L 472.590294 80.160892 
L 475.708787 77.811518 
L 478.827281 75.462144 
L 481.945774 73.112769 
L 485.064267 70.763395 
L 488.182761 68.414021 
L 491.301254 66.064646 
L 494.419747 63.715272 
L 497.538241 61.365898 
L 500.656734 59.016524 
L 503.775227 56.667149 
" clip-path="url(#p45ebae8e3e)" style="fill: none; stroke: #ff7f0e; stroke-width: 2.25; stroke-linecap: square"/>
   </g>
   <g id="patch_3">
    <path d="M 47.1875 314.44 
L 47.1875 7.2 
" style="fill: none; stroke: #000000; stroke-width: 0.8; stroke-linejoin: miter; stroke-linecap: square"/>
   </g>
   <g id="patch_4">
    <path d="M 47.1875 314.44 
L 525.5175 314.44 
" style="fill: none; stroke: #000000; stroke-width: 0.8; stroke-linejoin: miter; stroke-linecap: square"/>
   </g>
   <g id="legend_1">
    <g id="patch_5">
     <path d="M 54.1875 59.234375 
L 121.945312 59.234375 
Q 123.945312 59.234375 123.945312 57.234375 
L 123.945312 14.2 
Q 123.945312 12.2 121.945312 12.2 
L 54.1875 12.2 
Q 52.1875 12.2 52.1875 14.2 
L 52.1875 57.234375 
Q 52.1875 59.234375 54.1875 59.234375 
z
" style="fill: #ffffff; opacity: 0.8; stroke: #cccccc; stroke-linejoin: miter"/>
    </g>
    <g id="text_15">
     <!-- type -->
     <g transform="translate(76.896094 23.798437) scale(0.1 -0.1)">
      <defs>
       <path id="DejaVuSans-74" d="M 1172 4494 
L 1172 3500 
L 2356 3500 
L 2356 3053 
L 1172 3053 
L 1172 1153 
Q 1172 725 1289 603 
Q 1406 481 1766 481 
L 2356 481 
L 2356 0 
L 1766 0 
Q 1100 0 847 248 
Q 594 497 594 1153 
L 594 3053 
L 172 3053 
L 172 3500 
L 594 3500 
L 594 4494 
L 1172 4494 
z
" transform="scale(0.015625)"/>
       <path id="DejaVuSans-79" d="M 2059 -325 
Q 1816 -950 1584 -1140 
Q 1353 -1331 966 -1331 
L 506 -1331 
L 506 -850 
L 844 -850 
Q 1081 -850 1212 -737 
Q 1344 -625 1503 -206 
L 1606 56 
L 191 3500 
L 800 3500 
L 1894 763 
L 2988 3500 
L 3597 3500 
L 2059 -325 
z
" transform="scale(0.015625)"/>
       <path id="DejaVuSans-65" d="M 3597 1894 
L 3597 1613 
L 953 1613 
Q 991 1019 1311 708 
Q 1631 397 2203 397 
Q 2534 397 2845 478 
Q 3156 559 3463 722 
L 3463 178 
Q 3153 47 2828 -22 
Q 2503 -91 2169 -91 
Q 1331 -91 842 396 
Q 353 884 353 1716 
Q 353 2575 817 3079 
Q 1281 3584 2069 3584 
Q 2775 3584 3186 3129 
Q 3597 2675 3597 1894 
z
M 3022 2063 
Q 3016 2534 2758 2815 
Q 2500 3097 2075 3097 
Q 1594 3097 1305 2825 
Q 1016 2553 972 2059 
L 3022 2063 
z
" transform="scale(0.015625)"/>
      </defs>
      <use xlink:href="#DejaVuSans-74"/>
      <use xlink:href="#DejaVuSans-79" transform="translate(39.208984 0)"/>
      <use xlink:href="#DejaVuSans-70" transform="translate(98.388672 0)"/>
      <use xlink:href="#DejaVuSans-65" transform="translate(161.865234 0)"/>
     </g>
    </g>
    <g id="PathCollection_3">
     <g>
      <use xlink:href="#m10b466c017" x="66.1875" y="35.851562" style="fill: #1f77b4; fill-opacity: 0.8; stroke: #1f77b4; stroke-opacity: 0.8"/>
     </g>
    </g>
    <g id="text_16">
     <!-- alcohol -->
     <g transform="translate(84.1875 38.476562) scale(0.1 -0.1)">
      <defs>
       <path id="DejaVuSans-61" d="M 2194 1759 
Q 1497 1759 1228 1600 
Q 959 1441 959 1056 
Q 959 750 1161 570 
Q 1363 391 1709 391 
Q 2188 391 2477 730 
Q 2766 1069 2766 1631 
L 2766 1759 
L 2194 1759 
z
M 3341 1997 
L 3341 0 
L 2766 0 
L 2766 531 
Q 2569 213 2275 61 
Q 1981 -91 1556 -91 
Q 1019 -91 701 211 
Q 384 513 384 1019 
Q 384 1609 779 1909 
Q 1175 2209 1959 2209 
L 2766 2209 
L 2766 2266 
Q 2766 2663 2505 2880 
Q 2244 3097 1772 3097 
Q 1472 3097 1187 3025 
Q 903 2953 641 2809 
L 641 3341 
Q 956 3463 1253 3523 
Q 1550 3584 1831 3584 
Q 2591 3584 2966 3190 
Q 3341 2797 3341 1997 
z
" transform="scale(0.015625)"/>
       <path id="DejaVuSans-63" d="M 3122 3366 
L 3122 2828 
Q 2878 2963 2633 3030 
Q 2388 3097 2138 3097 
Q 1578 3097 1268 2742 
Q 959 2388 959 1747 
Q 959 1106 1268 751 
Q 1578 397 2138 397 
Q 2388 397 2633 464 
Q 2878 531 3122 666 
L 3122 134 
Q 2881 22 2623 -34 
Q 2366 -91 2075 -91 
Q 1284 -91 818 406 
Q 353 903 353 1747 
Q 353 2603 823 3093 
Q 1294 3584 2113 3584 
Q 2378 3584 2631 3529 
Q 2884 3475 3122 3366 
z
" transform="scale(0.015625)"/>
       <path id="DejaVuSans-68" d="M 3513 2113 
L 3513 0 
L 2938 0 
L 2938 2094 
Q 2938 2591 2744 2837 
Q 2550 3084 2163 3084 
Q 1697 3084 1428 2787 
Q 1159 2491 1159 1978 
L 1159 0 
L 581 0 
L 581 4863 
L 1159 4863 
L 1159 2956 
Q 1366 3272 1645 3428 
Q 1925 3584 2291 3584 
Q 2894 3584 3203 3211 
Q 3513 2838 3513 2113 
z
" transform="scale(0.015625)"/>
      </defs>
      <use xlink:href="#DejaVuSans-61"/>
      <use xlink:href="#DejaVuSans-6c" transform="translate(61.279297 0)"/>
      <use xlink:href="#DejaVuSans-63" transform="translate(89.0625 0)"/>
      <use xlink:href="#DejaVuSans-6f" transform="translate(144.042969 0)"/>
      <use xlink:href="#DejaVuSans-68" transform="translate(205.224609 0)"/>
      <use xlink:href="#DejaVuSans-6f" transform="translate(268.603516 0)"/>
      <use xlink:href="#DejaVuSans-6c" transform="translate(329.785156 0)"/>
     </g>
    </g>
    <g id="PathCollection_4">
     <g>
      <use xlink:href="#ma574f2cc57" x="66.1875" y="50.529688" style="fill: #ff7f0e; fill-opacity: 0.8; stroke: #ff7f0e; stroke-opacity: 0.8"/>
     </g>
    </g>
    <g id="text_17">
     <!-- alkane -->
     <g transform="translate(84.1875 53.154688) scale(0.1 -0.1)">
      <defs>
       <path id="DejaVuSans-6b" d="M 581 4863 
L 1159 4863 
L 1159 1991 
L 2875 3500 
L 3609 3500 
L 1753 1863 
L 3688 0 
L 2938 0 
L 1159 1709 
L 1159 0 
L 581 0 
L 581 4863 
z
" transform="scale(0.015625)"/>
       <path id="DejaVuSans-6e" d="M 3513 2113 
L 3513 0 
L 2938 0 
L 2938 2094 
Q 2938 2591 2744 2837 
Q 2550 3084 2163 3084 
Q 1697 3084 1428 2787 
Q 1159 2491 1159 1978 
L 1159 0 
L 581 0 
L 581 3500 
L 1159 3500 
L 1159 2956 
Q 1366 3272 1645 3428 
Q 1925 3584 2291 3584 
Q 2894 3584 3203 3211 
Q 3513 2838 3513 2113 
z
" transform="scale(0.015625)"/>
      </defs>
      <use xlink:href="#DejaVuSans-61"/>
      <use xlink:href="#DejaVuSans-6c" transform="translate(61.279297 0)"/>
      <use xlink:href="#DejaVuSans-6b" transform="translate(89.0625 0)"/>
      <use xlink:href="#DejaVuSans-61" transform="translate(145.222656 0)"/>
      <use xlink:href="#DejaVuSans-6e" transform="translate(206.501953 0)"/>
      <use xlink:href="#DejaVuSans-65" transform="translate(269.880859 0)"/>
     </g>
    </g>
   </g>
  </g>
 </g>
 <defs>
  <clipPath id="p45ebae8e3e">
   <rect x="47.1875" y="7.2" width="478.33" height="307.24"/>
  </clipPath>
 </defs>
</svg>