<?xml version="1.0" encoding="utf-8" standalone="no"?>
<!DOCTYPE svg PUBLIC "-//W3C//DTD SVG 1.1//EN"
  "http://www.w3.org/Graphics/SVG/1.1/DTD/svg11.dtd">
<svg xmlns:xlink="http://www.w3.org/1999/xlink" width="411.285625pt" height="310.86825pt" viewBox="0 0 411.285625 310.86825" xmlns="http://www.w3.org/2000/svg" version="1.1">
 <metadata>
  <rdf:RDF xmlns:dc="http://purl.org/dc/elements/1.1/" xmlns:cc="http://creativecommons.org/ns#" xmlns:rdf="http://www.w3.org/1999/02/22-rdf-syntax-ns#">
   <cc:Work>
    <dc:type rdf:resource="http://purl.org/dc/dcmitype/StillImage"/>
    <dc:date>2025-12-28T13:56:07.495328</dc:date>
    <dc:format>image/svg+xml</dc:format>
    <dc:creator>
     <cc:Agent>
      <dc:title>Matplotlib v3.10.3, https://matplotlib.org/</dc:title>
     </cc:Agent>
    </dc:creator>
   </cc:Work>
  </rdf:RDF>
 </metadata>
 <defs>
  <style type="text/css">*{stroke-linejoin: round; stroke-linecap: butt}</style>
 </defs>
 <g id="figure_1">
  <g id="patch_1">
   <path d="M 0 310.86825 
L 411.285625 310.86825 
L 411.285625 0 
L 0 0 
z
" style="fill: #ffffff"/>
  </g>
  <g id="axes_1">
   <g id="patch_2">
    <path d="M 46.965625 273.312 
L 404.085625 273.312 
L 404.085625 7.2 
L 46.965625 7.2 
z
" style="fill: #ffffff"/>
   </g>
   <g id="PathCollection_1">
    <defs>
     <path id="m7fef6192a9" d="M 0 3 
C 0.795609 3 1.55874 2.683901 2.12132 2.12132 
C 2.683901 1.55874 3 0.795609 3 0 
C 3 -0.795609 2.683901 -1.55874 2.12132 -2.12132 
C 1.55874 -2.683901 0.795609 -3 0 -3 
C -0.795609 -3 -1.55874 -2.683901 -2.12132 -2.12132 
C -2.683901 -1.55874 -3 -0.795609 -3 0 
C -3 0.795609 -2.683901 1.55874 -2.12132 2.12132 
C -1.55874 2.683901 -0.795609 3 0 3 
z
" style="stroke: #1f77b4; stroke-opacity: 0.8"/>
    </defs>
    <g clip-path="url(#pc7adc4a26b)">
     <use xlink:href="#m7fef6192a9" x="63.198352" y="200.86475" style="fill: #1f77b4; fill-opacity: 0.8; stroke: #1f77b4; stroke-opacity: 0.8"/>
     <use xlink:href="#m7fef6192a9" x="96.1333" y="188.189787" style="fill: #1f77b4; fill-opacity: 0.8; stroke: #1f77b4; stroke-opacity: 0.8"/>
     <use xlink:href="#m7fef6192a9" x="129.068248" y="168.689844" style="fill: #1f77b4; fill-opacity: 0.8; stroke: #1f77b4; stroke-opacity: 0.8"/>
     <use xlink:href="#m7fef6192a9" x="161.979721" y="149.1899" style="fill: #1f77b4; fill-opacity: 0.8; stroke: #1f77b4; stroke-opacity: 0.8"/>
     <use xlink:href="#m7fef6192a9" x="194.914669" y="128.71496" style="fill: #1f77b4; fill-opacity: 0.8; stroke: #1f77b4; stroke-opacity: 0.8"/>
     <use xlink:href="#m7fef6192a9" x="227.849616" y="111.165011" style="fill: #1f77b4; fill-opacity: 0.8; stroke: #1f77b4; stroke-opacity: 0.8"/>
     <use xlink:href="#m7fef6192a9" x="260.761089" y="92.640064" style="fill: #1f77b4; fill-opacity: 0.8; stroke: #1f77b4; stroke-opacity: 0.8"/>
     <use xlink:href="#m7fef6192a9" x="293.696037" y="74.115118" style="fill: #1f77b4; fill-opacity: 0.8; stroke: #1f77b4; stroke-opacity: 0.8"/>
     <use xlink:href="#m7fef6192a9" x="326.60751" y="57.540166" style="fill: #1f77b4; fill-opacity: 0.8; stroke: #1f77b4; stroke-opacity: 0.8"/>
     <use xlink:href="#m7fef6192a9" x="359.542458" y="38.040223" style="fill: #1f77b4; fill-opacity: 0.8; stroke: #1f77b4; stroke-opacity: 0.8"/>
     <use xlink:href="#m7fef6192a9" x="157.355213" y="229.139668" style="fill: #1f77b4; fill-opacity: 0.8; stroke: #1f77b4; stroke-opacity: 0.8"/>
     <use xlink:href="#m7fef6192a9" x="190.290161" y="196.964762" style="fill: #1f77b4; fill-opacity: 0.8; stroke: #1f77b4; stroke-opacity: 0.8"/>
     <use xlink:href="#m7fef6192a9" x="223.225108" y="168.689844" style="fill: #1f77b4; fill-opacity: 0.8; stroke: #1f77b4; stroke-opacity: 0.8"/>
     <use xlink:href="#m7fef6192a9" x="256.136581" y="141.389923" style="fill: #1f77b4; fill-opacity: 0.8; stroke: #1f77b4; stroke-opacity: 0.8"/>
     <use xlink:href="#m7fef6192a9" x="289.071529" y="117.014994" style="fill: #1f77b4; fill-opacity: 0.8; stroke: #1f77b4; stroke-opacity: 0.8"/>
     <use xlink:href="#m7fef6192a9" x="322.006477" y="94.590059" style="fill: #1f77b4; fill-opacity: 0.8; stroke: #1f77b4; stroke-opacity: 0.8"/>
     <use xlink:href="#m7fef6192a9" x="354.91795" y="73.140121" style="fill: #1f77b4; fill-opacity: 0.8; stroke: #1f77b4; stroke-opacity: 0.8"/>
     <use xlink:href="#m7fef6192a9" x="387.852898" y="53.640177" style="fill: #1f77b4; fill-opacity: 0.8; stroke: #1f77b4; stroke-opacity: 0.8"/>
     <use xlink:href="#m7fef6192a9" x="190.290161" y="202.814745" style="fill: #1f77b4; fill-opacity: 0.8; stroke: #1f77b4; stroke-opacity: 0.8"/>
     <use xlink:href="#m7fef6192a9" x="256.136581" y="150.164897" style="fill: #1f77b4; fill-opacity: 0.8; stroke: #1f77b4; stroke-opacity: 0.8"/>
     <use xlink:href="#m7fef6192a9" x="157.355213" y="236.939646" style="fill: #1f77b4; fill-opacity: 0.8; stroke: #1f77b4; stroke-opacity: 0.8"/>
     <use xlink:href="#m7fef6192a9" x="223.225108" y="186.239793" style="fill: #1f77b4; fill-opacity: 0.8; stroke: #1f77b4; stroke-opacity: 0.8"/>
     <use xlink:href="#m7fef6192a9" x="161.979721" y="158.939872" style="fill: #1f77b4; fill-opacity: 0.8; stroke: #1f77b4; stroke-opacity: 0.8"/>
     <use xlink:href="#m7fef6192a9" x="161.979721" y="183.314801" style="fill: #1f77b4; fill-opacity: 0.8; stroke: #1f77b4; stroke-opacity: 0.8"/>
     <use xlink:href="#m7fef6192a9" x="194.914669" y="136.514937" style="fill: #1f77b4; fill-opacity: 0.8; stroke: #1f77b4; stroke-opacity: 0.8"/>
     <use xlink:href="#m7fef6192a9" x="227.849616" y="132.614948" style="fill: #1f77b4; fill-opacity: 0.8; stroke: #1f77b4; stroke-opacity: 0.8"/>
     <use xlink:href="#m7fef6192a9" x="260.761089" y="127.739962" style="fill: #1f77b4; fill-opacity: 0.8; stroke: #1f77b4; stroke-opacity: 0.8"/>
     <use xlink:href="#m7fef6192a9" x="208.905566" y="86.790081" style="fill: #1f77b4; fill-opacity: 0.8; stroke: #1f77b4; stroke-opacity: 0.8"/>
     <use xlink:href="#m7fef6192a9" x="241.840514" y="67.290138" style="fill: #1f77b4; fill-opacity: 0.8; stroke: #1f77b4; stroke-opacity: 0.8"/>
     <use xlink:href="#m7fef6192a9" x="307.686934" y="49.740189" style="fill: #1f77b4; fill-opacity: 0.8; stroke: #1f77b4; stroke-opacity: 0.8"/>
    </g>
   </g>
   <g id="FillBetweenPolyCollection_1">
    <path d="M 63.198352 206.467837 
L 63.198352 261.216 
L 66.477691 258.770407 
L 69.75703 256.324814 
L 73.036369 253.879221 
L 76.315708 251.68038 
L 79.595046 249.394995 
L 82.874385 247.008919 
L 86.153724 244.622662 
L 89.433063 242.118012 
L 92.712402 239.57165 
L 95.991741 237.328738 
L 99.27108 235.038377 
L 102.550418 232.628243 
L 105.829757 230.218109 
L 109.109096 227.833124 
L 112.388435 225.532354 
L 115.667774 223.206446 
L 118.947113 220.936587 
L 122.226451 218.633197 
L 125.50579 216.373982 
L 128.785129 214.052721 
L 132.064468 211.74089 
L 135.343807 209.389938 
L 138.623146 207.028899 
L 141.902485 204.66778 
L 145.181823 202.30666 
L 148.461162 200.129431 
L 151.740501 197.949924 
L 155.01984 195.661553 
L 158.299179 193.405941 
L 161.578518 191.117463 
L 164.857856 188.828986 
L 168.137195 186.53797 
L 171.416534 184.246035 
L 174.695873 181.999038 
L 177.975212 179.700403 
L 181.254551 177.366709 
L 184.533889 175.147284 
L 187.813228 172.811787 
L 191.092567 170.550478 
L 194.371906 168.339322 
L 197.651245 166.106139 
L 200.930584 163.843243 
L 204.209923 161.853628 
L 207.489261 159.719958 
L 210.7686 157.54626 
L 214.047939 155.421466 
L 217.327278 153.476945 
L 220.606617 151.409439 
L 223.885956 149.333534 
L 227.165294 147.241458 
L 230.444633 145.196568 
L 233.723972 143.229131 
L 237.003311 141.18224 
L 240.28265 139.184582 
L 243.561989 137.100905 
L 246.841327 135.196877 
L 250.120666 133.181163 
L 253.400005 131.272889 
L 256.679344 129.36555 
L 259.958683 127.317706 
L 263.238022 125.427637 
L 266.517361 123.424371 
L 269.796699 121.529988 
L 273.076038 119.772149 
L 276.355377 117.886657 
L 279.634716 115.955746 
L 282.914055 114.107718 
L 286.193394 112.341085 
L 289.472732 110.51794 
L 292.752071 108.775306 
L 296.03141 106.847174 
L 299.310749 105.041938 
L 302.590088 103.245676 
L 305.869427 101.321335 
L 309.148765 99.679262 
L 312.428104 97.969769 
L 315.707443 96.259544 
L 318.986782 94.662429 
L 322.266121 92.922556 
L 325.54546 91.083792 
L 328.824799 89.24328 
L 332.104137 87.479901 
L 335.383476 85.718977 
L 338.662815 83.922507 
L 341.942154 82.353252 
L 345.221493 80.865552 
L 348.500832 79.377853 
L 351.78017 77.769085 
L 355.059509 76.086262 
L 358.338848 74.348447 
L 361.618187 72.69711 
L 364.897526 71.146942 
L 368.176865 69.591161 
L 371.456204 68.041337 
L 374.735542 66.494661 
L 378.014881 64.945366 
L 381.29422 63.243469 
L 384.573559 61.764725 
L 387.852898 60.254051 
L 387.852898 19.296 
L 387.852898 19.296 
L 384.573559 21.816379 
L 381.29422 24.281012 
L 378.014881 26.586316 
L 374.735542 28.893912 
L 371.456204 31.201972 
L 368.176865 33.626698 
L 364.897526 36.070267 
L 361.618187 38.349332 
L 358.338848 40.534771 
L 355.059509 42.724814 
L 351.78017 44.999736 
L 348.500832 47.122584 
L 345.221493 49.265327 
L 341.942154 51.44607 
L 338.662815 53.733708 
L 335.383476 55.812864 
L 332.104137 57.991099 
L 328.824799 60.169334 
L 325.54546 62.355706 
L 322.266121 64.543276 
L 318.986782 66.851554 
L 315.707443 69.065168 
L 312.428104 71.326191 
L 309.148765 73.52695 
L 305.869427 75.68329 
L 302.590088 77.756558 
L 299.310749 79.949929 
L 296.03141 82.099819 
L 292.752071 84.180225 
L 289.472732 86.322444 
L 286.193394 88.543563 
L 282.914055 90.626266 
L 279.634716 92.304085 
L 276.355377 94.165568 
L 273.076038 95.862313 
L 269.796699 98.084925 
L 266.517361 100.353054 
L 263.238022 102.143121 
L 259.958683 103.930324 
L 256.679344 105.746389 
L 253.400005 107.804233 
L 250.120666 109.899504 
L 246.841327 111.699783 
L 243.561989 113.681375 
L 240.28265 115.576639 
L 237.003311 117.451994 
L 233.723972 119.3186 
L 230.444633 121.125037 
L 227.165294 122.900727 
L 223.885956 124.613098 
L 220.606617 126.45239 
L 217.327278 128.340205 
L 214.047939 130.154962 
L 210.7686 131.885916 
L 207.489261 133.66088 
L 204.209923 135.311242 
L 200.930584 137.064966 
L 197.651245 138.718676 
L 194.371906 140.48724 
L 191.092567 142.130798 
L 187.813228 143.875108 
L 184.533889 145.644107 
L 181.254551 147.598212 
L 177.975212 149.354276 
L 174.695873 151.050461 
L 171.416534 152.608288 
L 168.137195 154.283081 
L 164.857856 156.001034 
L 161.578518 157.770401 
L 158.299179 159.539768 
L 155.01984 161.199858 
L 151.740501 162.832404 
L 148.461162 164.464951 
L 145.181823 166.097498 
L 141.902485 167.80279 
L 138.623146 169.356741 
L 135.343807 170.987112 
L 132.064468 172.744699 
L 128.785129 174.279602 
L 125.50579 175.991638 
L 122.226451 177.788123 
L 118.947113 179.417613 
L 115.667774 181.115925 
L 112.388435 182.83777 
L 109.109096 184.544983 
L 105.829757 186.253531 
L 102.550418 187.895068 
L 99.27108 189.360998 
L 95.991741 190.826927 
L 92.712402 192.292857 
L 89.433063 193.807817 
L 86.153724 195.435595 
L 82.874385 196.968032 
L 79.595046 198.635582 
L 76.315708 200.304337 
L 73.036369 201.948043 
L 69.75703 203.578003 
L 66.477691 205.069499 
L 63.198352 206.467837 
z
" clip-path="url(#pc7adc4a26b)" style="fill: #1f77b4; fill-opacity: 0.15"/>
   </g>
   <g id="matplotlib.axis_1">
    <g id="xtick_1">
     <g id="line2d_1">
      <defs>
       <path id="m6655938f9c" d="M 0 0 
L 0 3.5 
" style="stroke: #000000; stroke-width: 0.8"/>
      </defs>
      <g>
       <use xlink:href="#m6655938f9c" x="81.884181" y="273.312" style="stroke: #000000; stroke-width: 0.8"/>
      </g>
     </g>
     <g id="text_1">
      <!-- 40 -->
      <g transform="translate(75.521681 287.910437) scale(0.1 -0.1)">
       <defs>
        <path id="DejaVuSans-34" d="M 2419 4116 
L 825 1625 
L 2419 1625 
L 2419 4116 
z
M 2253 4666 
L 3047 4666 
L 3047 1625 
L 3713 1625 
L 3713 1100 
L 3047 1100 
L 3047 0 
L 2419 0 
L 2419 1100 
L 313 1100 
L 313 1709 
L 2253 4666 
z
" transform="scale(0.015625)"/>
        <path id="DejaVuSans-30" d="M 2034 4250 
Q 1547 4250 1301 3770 
Q 1056 3291 1056 2328 
Q 1056 1369 1301 889 
Q 1547 409 2034 409 
Q 2525 409 2770 889 
Q 3016 1369 3016 2328 
Q 3016 3291 2770 3770 
Q 2525 4250 2034 4250 
z
M 2034 4750 
Q 2819 4750 3233 4129 
Q 3647 3509 3647 2328 
Q 3647 1150 3233 529 
Q 2819 -91 2034 -91 
Q 1250 -91 836 529 
Q 422 1150 422 2328 
Q 422 3509 836 4129 
Q 1250 4750 2034 4750 
z
" transform="scale(0.015625)"/>
       </defs>
       <use xlink:href="#DejaVuSans-34"/>
       <use xlink:href="#DejaVuSans-30" transform="translate(63.623047 0)"/>
      </g>
     </g>
    </g>
    <g id="xtick_2">
     <g id="line2d_2">
      <g>
       <use xlink:href="#m6655938f9c" x="128.833501" y="273.312" style="stroke: #000000; stroke-width: 0.8"/>
      </g>
     </g>
     <g id="text_2">
      <!-- 60 -->
      <g transform="translate(122.471001 287.910437) scale(0.1 -0.1)">
       <defs>
        <path id="DejaVuSans-36" d="M 2113 2584 
Q 1688 2584 1439 2293 
Q 1191 2003 1191 1497 
Q 1191 994 1439 701 
Q 1688 409 2113 409 
Q 2538 409 2786 701 
Q 3034 994 3034 1497 
Q 3034 2003 2786 2293 
Q 2538 2584 2113 2584 
z
M 3366 4563 
L 3366 3988 
Q 3128 4100 2886 4159 
Q 2644 4219 2406 4219 
Q 1781 4219 1451 3797 
Q 1122 3375 1075 2522 
Q 1259 2794 1537 2939 
Q 1816 3084 2150 3084 
Q 2853 3084 3261 2657 
Q 3669 2231 3669 1497 
Q 3669 778 3244 343 
Q 2819 -91 2113 -91 
Q 1303 -91 875 529 
Q 447 1150 447 2328 
Q 447 3434 972 4092 
Q 1497 4750 2381 4750 
Q 2619 4750 2861 4703 
Q 3103 4656 3366 4563 
z
" transform="scale(0.015625)"/>
       </defs>
       <use xlink:href="#DejaVuSans-36"/>
       <use xlink:href="#DejaVuSans-30" transform="translate(63.623047 0)"/>
      </g>
     </g>
    </g>
    <g id="xtick_3">
     <g id="line2d_3">
      <g>
       <use xlink:href="#m6655938f9c" x="175.782821" y="273.312" style="stroke: #000000; stroke-width: 0.8"/>
      </g>
     </g>
     <g id="text_3">
      <!-- 80 -->
      <g transform="translate(169.420321 287.910437) scale(0.1 -0.1)">
       <defs>
        <path id="DejaVuSans-38" d="M 2034 2216 
Q 1584 2216 1326 1975 
Q 1069 1734 1069 1313 
Q 1069 891 1326 650 
Q 1584 409 2034 409 
Q 2484 409 2743 651 
Q 3003 894 3003 1313 
Q 3003 1734 2745 1975 
Q 2488 2216 2034 2216 
z
M 1403 2484 
Q 997 2584 770 2862 
Q 544 3141 544 3541 
Q 544 4100 942 4425 
Q 1341 4750 2034 4750 
Q 2731 4750 3128 4425 
Q 3525 4100 3525 3541 
Q 3525 3141 3298 2862 
Q 3072 2584 2669 2484 
Q 3125 2378 3379 2068 
Q 3634 1759 3634 1313 
Q 3634 634 3220 271 
Q 2806 -91 2034 -91 
Q 1263 -91 848 271 
Q 434 634 434 1313 
Q 434 1759 690 2068 
Q 947 2378 1403 2484 
z
M 1172 3481 
Q 1172 3119 1398 2916 
Q 1625 2713 2034 2713 
Q 2441 2713 2670 2916 
Q 2900 3119 2900 3481 
Q 2900 3844 2670 4047 
Q 2441 4250 2034 4250 
Q 1625 4250 1398 4047 
Q 1172 3844 1172 3481 
z
" transform="scale(0.015625)"/>
       </defs>
       <use xlink:href="#DejaVuSans-38"/>
       <use xlink:href="#DejaVuSans-30" transform="translate(63.623047 0)"/>
      </g>
     </g>
    </g>
    <g id="xtick_4">
     <g id="line2d_4">
      <g>
       <use xlink:href="#m6655938f9c" x="222.73214" y="273.312" style="stroke: #000000; stroke-width: 0.8"/>
      </g>
     </g>
     <g id="text_4">
      <!-- 100 -->
      <g transform="translate(213.18839 287.910437) scale(0.1 -0.1)">
       <defs>
        <path id="DejaVuSans-31" d="M 794 531 
L 1825 531 
L 1825 4091 
L 703 3866 
L 703 4441 
L 1819 4666 
L 2450 4666 
L 2450 531 
L 3481 531 
L 3481 0 
L 794 0 
L 794 531 
z
" transform="scale(0.015625)"/>
       </defs>
       <use xlink:href="#DejaVuSans-31"/>
       <use xlink:href="#DejaVuSans-30" transform="translate(63.623047 0)"/>
       <use xlink:href="#DejaVuSans-30" transform="translate(127.246094 0)"/>
      </g>
     </g>
    </g>
    <g id="xtick_5">
     <g id="line2d_5">
      <g>
       <use xlink:href="#m6655938f9c" x="269.68146" y="273.312" style="stroke: #000000; stroke-width: 0.8"/>
      </g>
     </g>
     <g id="text_5">
      <!-- 120 -->
      <g transform="translate(260.13771 287.910437) scale(0.1 -0.1)">
       <defs>
        <path id="DejaVuSans-32" d="M 1228 531 
L 3431 531 
L 3431 0 
L 469 0 
L 469 531 
Q 828 903 1448 1529 
Q 2069 2156 2228 2338 
Q 2531 2678 2651 2914 
Q 2772 3150 2772 3378 
Q 2772 3750 2511 3984 
Q 2250 4219 1831 4219 
Q 1534 4219 1204 4116 
Q 875 4013 500 3803 
L 500 4441 
Q 881 4594 1212 4672 
Q 1544 4750 1819 4750 
Q 2544 4750 2975 4387 
Q 3406 4025 3406 3419 
Q 3406 3131 3298 2873 
Q 3191 2616 2906 2266 
Q 2828 2175 2409 1742 
Q 1991 1309 1228 531 
z
" transform="scale(0.015625)"/>
       </defs>
       <use xlink:href="#DejaVuSans-31"/>
       <use xlink:href="#DejaVuSans-32" transform="translate(63.623047 0)"/>
       <use xlink:href="#DejaVuSans-30" transform="translate(127.246094 0)"/>
      </g>
     </g>
    </g>
    <g id="xtick_6">
     <g id="line2d_6">
      <g>
       <use xlink:href="#m6655938f9c" x="316.63078" y="273.312" style="stroke: #000000; stroke-width: 0.8"/>
      </g>
     </g>
     <g id="text_6">
      <!-- 140 -->
      <g transform="translate(307.08703 287.910437) scale(0.1 -0.1)">
       <use xlink:href="#DejaVuSans-31"/>
       <use xlink:href="#DejaVuSans-34" transform="translate(63.623047 0)"/>
       <use xlink:href="#DejaVuSans-30" transform="translate(127.246094 0)"/>
      </g>
     </g>
    </g>
    <g id="xtick_7">
     <g id="line2d_7">
      <g>
       <use xlink:href="#m6655938f9c" x="363.580099" y="273.312" style="stroke: #000000; stroke-width: 0.8"/>
      </g>
     </g>
     <g id="text_7">
      <!-- 160 -->
      <g transform="translate(354.036349 287.910437) scale(0.1 -0.1)">
       <use xlink:href="#DejaVuSans-31"/>
       <use xlink:href="#DejaVuSans-36" transform="translate(63.623047 0)"/>
       <use xlink:href="#DejaVuSans-30" transform="translate(127.246094 0)"/>
      </g>
     </g>
    </g>
    <g id="text_8">
     <!-- MW -->
     <g transform="translate(216.267813 301.588562) scale(0.1 -0.1)">
      <defs>
       <path id="DejaVuSans-4d" d="M 628 4666 
L 1569 4666 
L 2759 1491 
L 3956 4666 
L 4897 4666 
L 4897 0 
L 4281 0 
L 4281 4097 
L 3078 897 
L 2444 897 
L 1241 4097 
L 1241 0 
L 628 0 
L 628 4666 
z
" transform="scale(0.015625)"/>
       <path id="DejaVuSans-57" d="M 213 4666 
L 850 4666 
L 1831 722 
L 2809 4666 
L 3519 4666 
L 4500 722 
L 5478 4666 
L 6119 4666 
L 4947 0 
L 4153 0 
L 3169 4050 
L 2175 0 
L 1381 0 
L 213 4666 
z
" transform="scale(0.015625)"/>
      </defs>
      <use xlink:href="#DejaVuSans-4d"/>
      <use xlink:href="#DejaVuSans-57" transform="translate(86.279297 0)"/>
     </g>
    </g>
   </g>
   <g id="matplotlib.axis_2">
    <g id="ytick_1">
     <g id="line2d_8">
      <defs>
       <path id="m4b477c0da1" d="M 0 0 
L -3.5 0 
" style="stroke: #000000; stroke-width: 0.8"/>
      </defs>
      <g>
       <use xlink:href="#m4b477c0da1" x="46.965625" y="264.239566" style="stroke: #000000; stroke-width: 0.8"/>
      </g>
     </g>
     <g id="text_9">
      <!-- 0 -->
      <g transform="translate(33.603125 268.038785) scale(0.1 -0.1)">
       <use xlink:href="#DejaVuSans-30"/>
      </g>
     </g>
    </g>
    <g id="ytick_2">
     <g id="line2d_9">
      <g>
       <use xlink:href="#m4b477c0da1" x="46.965625" y="215.489708" style="stroke: #000000; stroke-width: 0.8"/>
      </g>
     </g>
     <g id="text_10">
      <!-- 50 -->
      <g transform="translate(27.240625 219.288927) scale(0.1 -0.1)">
       <defs>
        <path id="DejaVuSans-35" d="M 691 4666 
L 3169 4666 
L 3169 4134 
L 1269 4134 
L 1269 2991 
Q 1406 3038 1543 3061 
Q 1681 3084 1819 3084 
Q 2600 3084 3056 2656 
Q 3513 2228 3513 1497 
Q 3513 744 3044 326 
Q 2575 -91 1722 -91 
Q 1428 -91 1123 -41 
Q 819 9 494 109 
L 494 744 
Q 775 591 1075 516 
Q 1375 441 1709 441 
Q 2250 441 2565 725 
Q 2881 1009 2881 1497 
Q 2881 1984 2565 2268 
Q 2250 2553 1709 2553 
Q 1456 2553 1204 2497 
Q 953 2441 691 2322 
L 691 4666 
z
" transform="scale(0.015625)"/>
       </defs>
       <use xlink:href="#DejaVuSans-35"/>
       <use xlink:href="#DejaVuSans-30" transform="translate(63.623047 0)"/>
      </g>
     </g>
    </g>
    <g id="ytick_3">
     <g id="line2d_10">
      <g>
       <use xlink:href="#m4b477c0da1" x="46.965625" y="166.739849" style="stroke: #000000; stroke-width: 0.8"/>
      </g>
     </g>
     <g id="text_11">
      <!-- 100 -->
      <g transform="translate(20.878125 170.539068) scale(0.1 -0.1)">
       <use xlink:href="#DejaVuSans-31"/>
       <use xlink:href="#DejaVuSans-30" transform="translate(63.623047 0)"/>
       <use xlink:href="#DejaVuSans-30" transform="translate(127.246094 0)"/>
      </g>
     </g>
    </g>
    <g id="ytick_4">
     <g id="line2d_11">
      <g>
       <use xlink:href="#m4b477c0da1" x="46.965625" y="117.989991" style="stroke: #000000; stroke-width: 0.8"/>
      </g>
     </g>
     <g id="text_12">
      <!-- 150 -->
      <g transform="translate(20.878125 121.789209) scale(0.1 -0.1)">
       <use xlink:href="#DejaVuSans-31"/>
       <use xlink:href="#DejaVuSans-35" transform="translate(63.623047 0)"/>
       <use xlink:href="#DejaVuSans-30" transform="translate(127.246094 0)"/>
      </g>
     </g>
    </g>
    <g id="ytick_5">
     <g id="line2d_12">
      <g>
       <use xlink:href="#m4b477c0da1" x="46.965625" y="69.240132" style="stroke: #000000; stroke-width: 0.8"/>
      </g>
     </g>
     <g id="text_13">
      <!-- 200 -->
      <g transform="translate(20.878125 73.039351) scale(0.1 -0.1)">
       <use xlink:href="#DejaVuSans-32"/>
       <use xlink:href="#DejaVuSans-30" transform="translate(63.623047 0)"/>
       <use xlink:href="#DejaVuSans-30" transform="translate(127.246094 0)"/>
      </g>
     </g>
    </g>
    <g id="ytick_6">
     <g id="line2d_13">
      <g>
       <use xlink:href="#m4b477c0da1" x="46.965625" y="20.490274" style="stroke: #000000; stroke-width: 0.8"/>
      </g>
     </g>
     <g id="text_14">
      <!-- 250 -->
      <g transform="translate(20.878125 24.289492) scale(0.1 -0.1)">
       <use xlink:href="#DejaVuSans-32"/>
       <use xlink:href="#DejaVuSans-35" transform="translate(63.623047 0)"/>
       <use xlink:href="#DejaVuSans-30" transform="translate(127.246094 0)"/>
      </g>
     </g>
    </g>
    <g id="text_15">
     <!-- bp -->
     <g transform="translate(14.798438 146.604437) rotate(-90) scale(0.1 -0.1)">
      <defs>
       <path id="DejaVuSans-62" d="M 3116 1747 
Q 3116 2381 2855 2742 
Q 2594 3103 2138 3103 
Q 1681 3103 1420 2742 
Q 1159 2381 1159 1747 
Q 1159 1113 1420 752 
Q 1681 391 2138 391 
Q 2594 391 2855 752 
Q 3116 1113 3116 1747 
z
M 1159 2969 
Q 1341 3281 1617 3432 
Q 1894 3584 2278 3584 
Q 2916 3584 3314 3078 
Q 3713 2572 3713 1747 
Q 3713 922 3314 415 
Q 2916 -91 2278 -91 
Q 1894 -91 1617 61 
Q 1341 213 1159 525 
L 1159 0 
L 581 0 
L 581 4863 
L 1159 4863 
L 1159 2969 
z
" transform="scale(0.015625)"/>
       <path id="DejaVuSans-70" d="M 1159 525 
L 1159 -1331 
L 581 -1331 
L 581 3500 
L 1159 3500 
L 1159 2969 
Q 1341 3281 1617 3432 
Q 1894 3584 2278 3584 
Q 2916 3584 3314 3078 
Q 3713 2572 3713 1747 
Q 3713 922 3314 415 
Q 2916 -91 2278 -91 
Q 1894 -91 1617 61 
Q 1341 213 1159 525 
z
M 3116 1747 
Q 3116 2381 2855 2742 
Q 2594 3103 2138 3103 
Q 1681 3103 1420 2742 
Q 1159 2381 1159 1747 
Q 1159 1113 1420 752 
Q 1681 391 2138 391 
Q 2594 391 2855 752 
Q 3116 1113 3116 1747 
z
" transform="scale(0.015625)"/>
      </defs>
      <use xlink:href="#DejaVuSans-62"/>
      <use xlink:href="#DejaVuSans-70" transform="translate(63.476562 0)"/>
     </g>
    </g>
   </g>
   <g id="line2d_14">
    <path d="M 63.198352 230.126431 
L 66.477691 228.220569 
L 69.75703 226.314708 
L 73.036369 224.408846 
L 76.315708 222.502985 
L 79.595046 220.597124 
L 82.874385 218.691262 
L 86.153724 216.785401 
L 89.433063 214.879539 
L 92.712402 212.973678 
L 95.991741 211.067817 
L 99.27108 209.161955 
L 102.550418 207.256094 
L 105.829757 205.350232 
L 109.109096 203.444371 
L 112.388435 201.538509 
L 115.667774 199.632648 
L 118.947113 197.726787 
L 122.226451 195.820925 
L 125.50579 193.915064 
L 128.785129 192.009202 
L 132.064468 190.103341 
L 135.343807 188.19748 
L 138.623146 186.291618 
L 141.902485 184.385757 
L 145.181823 182.479895 
L 148.461162 180.574034 
L 151.740501 178.668172 
L 155.01984 176.762311 
L 158.299179 174.85645 
L 161.578518 172.950588 
L 164.857856 171.044727 
L 168.137195 169.138865 
L 171.416534 167.233004 
L 174.695873 165.327142 
L 177.975212 163.421281 
L 181.254551 161.51542 
L 184.533889 159.609558 
L 187.813228 157.703697 
L 191.092567 155.797835 
L 194.371906 153.891974 
L 197.651245 151.986113 
L 200.930584 150.080251 
L 204.209923 148.17439 
L 207.489261 146.268528 
L 210.7686 144.362667 
L 214.047939 142.456805 
L 217.327278 140.550944 
L 220.606617 138.645083 
L 223.885956 136.739221 
L 227.165294 134.83336 
L 230.444633 132.927498 
L 233.723972 131.021637 
L 237.003311 129.115776 
L 240.28265 127.209914 
L 243.561989 125.304053 
L 246.841327 123.398191 
L 250.120666 121.49233 
L 253.400005 119.586468 
L 256.679344 117.680607 
L 259.958683 115.774746 
L 263.238022 113.868884 
L 266.517361 111.963023 
L 269.796699 110.057161 
L 273.076038 108.1513 
L 276.355377 106.245439 
L 279.634716 104.339577 
L 282.914055 102.433716 
L 286.193394 100.527854 
L 289.472732 98.621993 
L 292.752071 96.716131 
L 296.03141 94.81027 
L 299.310749 92.904409 
L 302.590088 90.998547 
L 305.869427 89.092686 
L 309.148765 87.186824 
L 312.428104 85.280963 
L 315.707443 83.375102 
L 318.986782 81.46924 
L 322.266121 79.563379 
L 325.54546 77.657517 
L 328.824799 75.751656 
L 332.104137 73.845794 
L 335.383476 71.939933 
L 338.662815 70.034072 
L 341.942154 68.12821 
L 345.221493 66.222349 
L 348.500832 64.316487 
L 351.78017 62.410626 
L 355.059509 60.504764 
L 358.338848 58.598903 
L 361.618187 56.693042 
L 364.897526 54.78718 
L 368.176865 52.881319 
L 371.456204 50.975457 
L 374.735542 49.069596 
L 378.014881 47.163735 
L 381.29422 45.257873 
L 384.573559 43.352012 
L 387.852898 41.44615 
" clip-path="url(#pc7adc4a26b)" style="fill: none; stroke: #1f77b4; stroke-width: 2.25; stroke-linecap: square"/>
   </g>
   <g id="patch_3">
    <path d="M 46.965625 273.312 
L 46.965625 7.2 
" style="fill: none; stroke: #000000; stroke-width: 0.8; stroke-linejoin: miter; stroke-linecap: square"/>
   </g>
   <g id="patch_4">
    <path d="M 404.085625 273.312 
L 404.085625 7.2 
" style="fill: none; stroke: #000000; stroke-width: 0.8; stroke-linejoin: miter; stroke-linecap: square"/>
   </g>
   <g id="patch_5">
    <path d="M 46.965625 273.312 
L 404.085625 273.312 
" style="fill: none; stroke: #000000; stroke-width: 0.8; stroke-linejoin: miter; stroke-linecap: square"/>
   </g>
   <g id="patch_6">
    <path d="M 46.965625 7.2 
L 404.085625 7.2 
" style="fill: none; stroke: #000000; stroke-width: 0.8; stroke-linejoin: miter; stroke-linecap: square"/>
   </g>
  </g>
 </g>
 <defs>
  <clipPath id="pc7adc4a26b">
   <rect x="46.965625" y="7.2" width="357.12" height="266.112"/>
  </clipPath>
 </defs>
</svg>