<?xml version="1.0" encoding="utf-8" standalone="no"?>
<!DOCTYPE svg PUBLIC "-//W3C//DTD SVG 1.1//EN"
  "http://www.w3.org/Graphics/SVG/1.1/DTD/svg11.dtd">
<svg xmlns:xlink="http://www.w3.org/1999/xlink" width="391.245pt" height="297.190125pt" viewBox="0 0 391.245 297.190125" xmlns="http://www.w3.org/2000/svg" version="1.1">
 <metadata>
  <rdf:RDF xmlns:dc="http://purl.org/dc/elements/1.1/" xmlns:cc="http://creativecommons.org/ns#" xmlns:rdf="http://www.w3.org/1999/02/22-rdf-syntax-ns#">
   <cc:Work>
    <dc:type rdf:resource="http://purl.org/dc/dcmitype/StillImage"/>
    <dc:date>2025-07-03T14:13:04.067275</dc:date>
    <dc:format>image/svg+xml</dc:format>
    <dc:creator>
     <cc:Agent>
      <dc:title>Matplotlib v3.10.3, https://matplotlib.org/</dc:title>
     </cc:Agent>
    </dc:creator>
   </cc:Work>
  </rdf:RDF>
 </metadata>
 <defs>
  <style type="text/css">*{stroke-linejoin: round; stroke-linecap: butt}</style>
 </defs>
 <g id="figure_1">
  <g id="patch_1">
   <path d="M 0 297.190125 
L 391.245 297.190125 
L 391.245 0 
L 0 0 
z
" style="fill: #ffffff"/>
  </g>
  <g id="axes_1">
   <g id="patch_2">
    <path d="M 26.925 273.312 
L 384.045 273.312 
L 384.045 7.2 
L 26.925 7.2 
z
" style="fill: #ffffff"/>
   </g>
   <g id="PathCollection_1">
    <defs>
     <path id="m69c706c35c" d="M 0 3 
C 0.795609 3 1.55874 2.683901 2.12132 2.12132 
C 2.683901 1.55874 3 0.795609 3 0 
C 3 -0.795609 2.683901 -1.55874 2.12132 -2.12132 
C 1.55874 -2.683901 0.795609 -3 0 -3 
C -0.795609 -3 -1.55874 -2.683901 -2.12132 -2.12132 
C -2.683901 -1.55874 -3 -0.795609 -3 0 
C -3 0.795609 -2.683901 1.55874 -2.12132 2.12132 
C -1.55874 2.683901 -0.795609 3 0 3 
z
" style="stroke: #1f77b4; stroke-opacity: 0.8"/>
    </defs>
    <g clip-path="url(#pec417acae8)">
     <use xlink:href="#m69c706c35c" x="43.157727" y="245.132634" style="fill: #1f77b4; fill-opacity: 0.8; stroke: #1f77b4; stroke-opacity: 0.8"/>
     <use xlink:href="#m69c706c35c" x="79.230455" y="231.303519" style="fill: #1f77b4; fill-opacity: 0.8; stroke: #1f77b4; stroke-opacity: 0.8"/>
     <use xlink:href="#m69c706c35c" x="115.303182" y="190.907742" style="fill: #1f77b4; fill-opacity: 0.8; stroke: #1f77b4; stroke-opacity: 0.8"/>
     <use xlink:href="#m69c706c35c" x="151.375909" y="188.589071" style="fill: #1f77b4; fill-opacity: 0.8; stroke: #1f77b4; stroke-opacity: 0.8"/>
     <use xlink:href="#m69c706c35c" x="187.448636" y="134.199084" style="fill: #1f77b4; fill-opacity: 0.8; stroke: #1f77b4; stroke-opacity: 0.8"/>
     <use xlink:href="#m69c706c35c" x="223.521364" y="124.533293" style="fill: #1f77b4; fill-opacity: 0.8; stroke: #1f77b4; stroke-opacity: 0.8"/>
     <use xlink:href="#m69c706c35c" x="259.594091" y="116.923125" style="fill: #1f77b4; fill-opacity: 0.8; stroke: #1f77b4; stroke-opacity: 0.8"/>
     <use xlink:href="#m69c706c35c" x="295.666818" y="85.81047" style="fill: #1f77b4; fill-opacity: 0.8; stroke: #1f77b4; stroke-opacity: 0.8"/>
     <use xlink:href="#m69c706c35c" x="331.739545" y="53.515926" style="fill: #1f77b4; fill-opacity: 0.8; stroke: #1f77b4; stroke-opacity: 0.8"/>
     <use xlink:href="#m69c706c35c" x="367.812273" y="19.296" style="fill: #1f77b4; fill-opacity: 0.8; stroke: #1f77b4; stroke-opacity: 0.8"/>
    </g>
   </g>
   <g id="FillBetweenPolyCollection_1">
    <path d="M 43.157727 236.50297 
L 43.157727 261.216 
L 46.437066 258.828817 
L 49.716405 256.455089 
L 52.995744 254.081362 
L 56.275083 251.707634 
L 59.554421 249.333906 
L 62.83376 246.960179 
L 66.113099 244.598282 
L 69.392438 242.283888 
L 72.671777 239.969495 
L 75.951116 237.655101 
L 79.230455 235.340708 
L 82.509793 233.026314 
L 85.789132 230.662848 
L 89.068471 228.273688 
L 92.34781 225.884528 
L 95.627149 223.495368 
L 98.906488 221.105437 
L 102.185826 218.71384 
L 105.465165 216.322244 
L 108.744504 213.930647 
L 112.023843 211.544254 
L 115.303182 209.293124 
L 118.582521 206.975073 
L 121.86186 204.59866 
L 125.141198 202.387168 
L 128.420537 200.115129 
L 131.699876 197.742172 
L 134.979215 195.37153 
L 138.258554 192.998888 
L 141.537893 190.66708 
L 144.817231 188.367996 
L 148.09657 186.06605 
L 151.375909 183.761881 
L 154.655248 181.456591 
L 157.934587 179.151302 
L 161.213926 176.775252 
L 164.493264 174.471759 
L 167.772603 172.091849 
L 171.051942 169.704971 
L 174.331281 167.3434 
L 177.61062 165.004011 
L 180.889959 162.774316 
L 184.169298 160.619106 
L 187.448636 158.338249 
L 190.727975 156.116263 
L 194.007314 153.919161 
L 197.286653 151.617976 
L 200.565992 149.427323 
L 203.845331 147.192241 
L 207.124669 144.899064 
L 210.404008 142.766655 
L 213.683347 140.530926 
L 216.962686 138.338737 
L 220.242025 136.023489 
L 223.521364 133.7753 
L 226.800702 131.615253 
L 230.080041 129.382764 
L 233.35938 127.171225 
L 236.638719 124.881946 
L 239.918058 122.837637 
L 243.197397 120.79288 
L 246.476736 118.57047 
L 249.756074 116.466153 
L 253.035413 114.365026 
L 256.314752 112.263898 
L 259.594091 110.162771 
L 262.87343 108.060863 
L 266.152769 105.956296 
L 269.432107 103.854717 
L 272.711446 101.753139 
L 275.990785 99.65156 
L 279.270124 97.555605 
L 282.549463 95.494838 
L 285.828802 93.434071 
L 289.10814 91.370309 
L 292.387479 89.285116 
L 295.666818 87.18083 
L 298.946157 85.114569 
L 302.225496 83.004607 
L 305.504835 80.882161 
L 308.784174 78.780189 
L 312.063512 76.635496 
L 315.342851 74.553186 
L 318.62219 72.5838 
L 321.901529 70.517244 
L 325.180868 68.468903 
L 328.460207 66.438521 
L 331.739545 64.375944 
L 335.018884 62.313366 
L 338.298223 60.250729 
L 341.577562 58.186612 
L 344.856901 56.122496 
L 348.13624 54.058379 
L 351.415579 51.994263 
L 354.694917 49.930146 
L 357.974256 47.86603 
L 361.253595 45.801913 
L 364.532934 43.737797 
L 367.812273 41.67368 
L 367.812273 20.607909 
L 367.812273 20.607909 
L 364.532934 22.929109 
L 361.253595 25.250309 
L 357.974256 27.571509 
L 354.694917 29.892709 
L 351.415579 32.213373 
L 348.13624 34.533828 
L 344.856901 36.80048 
L 341.577562 39.100612 
L 338.298223 41.401962 
L 335.018884 43.70963 
L 331.739545 46.053151 
L 328.460207 48.32919 
L 325.180868 50.606337 
L 321.901529 52.905637 
L 318.62219 55.20754 
L 315.342851 57.509969 
L 312.063512 59.813588 
L 308.784174 62.11184 
L 305.504835 64.375862 
L 302.225496 66.583577 
L 298.946157 68.724654 
L 295.666818 70.950773 
L 292.387479 73.265138 
L 289.10814 75.597625 
L 285.828802 77.85629 
L 282.549463 80.056594 
L 279.270124 82.315791 
L 275.990785 84.601246 
L 272.711446 86.850319 
L 269.432107 89.097395 
L 266.152769 91.248155 
L 262.87343 93.415719 
L 259.594091 95.544255 
L 256.314752 97.795512 
L 253.035413 100.130188 
L 249.756074 102.46782 
L 246.476736 104.783282 
L 243.197397 106.995119 
L 239.918058 109.305751 
L 236.638719 111.531689 
L 233.35938 113.75334 
L 230.080041 115.974991 
L 226.800702 118.128244 
L 223.521364 120.385037 
L 220.242025 122.578816 
L 216.962686 124.80659 
L 213.683347 126.945615 
L 210.404008 129.194468 
L 207.124669 131.303711 
L 203.845331 133.363151 
L 200.565992 135.517126 
L 197.286653 137.718983 
L 194.007314 139.904319 
L 190.727975 142.06919 
L 187.448636 144.192371 
L 184.169298 146.39749 
L 180.889959 148.601296 
L 177.61062 150.735821 
L 174.331281 152.916653 
L 171.051942 155.018877 
L 167.772603 157.139145 
L 164.493264 159.278564 
L 161.213926 161.408097 
L 157.934587 163.539976 
L 154.655248 165.673605 
L 151.375909 167.808273 
L 148.09657 169.962196 
L 144.817231 172.131591 
L 141.537893 174.213505 
L 138.258554 176.264438 
L 134.979215 178.320705 
L 131.699876 180.406696 
L 128.420537 182.463564 
L 125.141198 184.506921 
L 121.86186 186.562932 
L 118.582521 188.758907 
L 115.303182 190.847239 
L 112.023843 192.935517 
L 108.744504 195.023795 
L 105.465165 197.112073 
L 102.185826 199.200351 
L 98.906488 201.288628 
L 95.627149 203.376906 
L 92.34781 205.465184 
L 89.068471 207.559355 
L 85.789132 209.660624 
L 82.509793 211.728724 
L 79.230455 213.813618 
L 75.951116 215.898511 
L 72.671777 217.898499 
L 69.392438 219.892723 
L 66.113099 221.888036 
L 62.83376 223.885249 
L 59.554421 225.88328 
L 56.275083 227.931912 
L 52.995744 230.074298 
L 49.716405 232.217189 
L 46.437066 234.36008 
L 43.157727 236.50297 
z
" clip-path="url(#pec417acae8)" style="fill: #1f77b4; fill-opacity: 0.15"/>
   </g>
   <g id="matplotlib.axis_1">
    <g id="xtick_1">
     <g id="line2d_1">
      <defs>
       <path id="mc37e63fe9a" d="M 0 0 
L 0 3.5 
" style="stroke: #000000; stroke-width: 0.8"/>
      </defs>
      <g>
       <use xlink:href="#mc37e63fe9a" x="43.157727" y="273.312" style="stroke: #000000; stroke-width: 0.8"/>
      </g>
     </g>
     <g id="text_1">
      <!-- 0 -->
      <g transform="translate(39.976477 287.910437) scale(0.1 -0.1)">
       <defs>
        <path id="DejaVuSans-30" d="M 2034 4250 
Q 1547 4250 1301 3770 
Q 1056 3291 1056 2328 
Q 1056 1369 1301 889 
Q 1547 409 2034 409 
Q 2525 409 2770 889 
Q 3016 1369 3016 2328 
Q 3016 3291 2770 3770 
Q 2525 4250 2034 4250 
z
M 2034 4750 
Q 2819 4750 3233 4129 
Q 3647 3509 3647 2328 
Q 3647 1150 3233 529 
Q 2819 -91 2034 -91 
Q 1250 -91 836 529 
Q 422 1150 422 2328 
Q 422 3509 836 4129 
Q 1250 4750 2034 4750 
z
" transform="scale(0.015625)"/>
       </defs>
       <use xlink:href="#DejaVuSans-30"/>
      </g>
     </g>
    </g>
    <g id="xtick_2">
     <g id="line2d_2">
      <g>
       <use xlink:href="#mc37e63fe9a" x="115.303182" y="273.312" style="stroke: #000000; stroke-width: 0.8"/>
      </g>
     </g>
     <g id="text_2">
      <!-- 2 -->
      <g transform="translate(112.121932 287.910437) scale(0.1 -0.1)">
       <defs>
        <path id="DejaVuSans-32" d="M 1228 531 
L 3431 531 
L 3431 0 
L 469 0 
L 469 531 
Q 828 903 1448 1529 
Q 2069 2156 2228 2338 
Q 2531 2678 2651 2914 
Q 2772 3150 2772 3378 
Q 2772 3750 2511 3984 
Q 2250 4219 1831 4219 
Q 1534 4219 1204 4116 
Q 875 4013 500 3803 
L 500 4441 
Q 881 4594 1212 4672 
Q 1544 4750 1819 4750 
Q 2544 4750 2975 4387 
Q 3406 4025 3406 3419 
Q 3406 3131 3298 2873 
Q 3191 2616 2906 2266 
Q 2828 2175 2409 1742 
Q 1991 1309 1228 531 
z
" transform="scale(0.015625)"/>
       </defs>
       <use xlink:href="#DejaVuSans-32"/>
      </g>
     </g>
    </g>
    <g id="xtick_3">
     <g id="line2d_3">
      <g>
       <use xlink:href="#mc37e63fe9a" x="187.448636" y="273.312" style="stroke: #000000; stroke-width: 0.8"/>
      </g>
     </g>
     <g id="text_3">
      <!-- 4 -->
      <g transform="translate(184.267386 287.910437) scale(0.1 -0.1)">
       <defs>
        <path id="DejaVuSans-34" d="M 2419 4116 
L 825 1625 
L 2419 1625 
L 2419 4116 
z
M 2253 4666 
L 3047 4666 
L 3047 1625 
L 3713 1625 
L 3713 1100 
L 3047 1100 
L 3047 0 
L 2419 0 
L 2419 1100 
L 313 1100 
L 313 1709 
L 2253 4666 
z
" transform="scale(0.015625)"/>
       </defs>
       <use xlink:href="#DejaVuSans-34"/>
      </g>
     </g>
    </g>
    <g id="xtick_4">
     <g id="line2d_4">
      <g>
       <use xlink:href="#mc37e63fe9a" x="259.594091" y="273.312" style="stroke: #000000; stroke-width: 0.8"/>
      </g>
     </g>
     <g id="text_4">
      <!-- 6 -->
      <g transform="translate(256.412841 287.910437) scale(0.1 -0.1)">
       <defs>
        <path id="DejaVuSans-36" d="M 2113 2584 
Q 1688 2584 1439 2293 
Q 1191 2003 1191 1497 
Q 1191 994 1439 701 
Q 1688 409 2113 409 
Q 2538 409 2786 701 
Q 3034 994 3034 1497 
Q 3034 2003 2786 2293 
Q 2538 2584 2113 2584 
z
M 3366 4563 
L 3366 3988 
Q 3128 4100 2886 4159 
Q 2644 4219 2406 4219 
Q 1781 4219 1451 3797 
Q 1122 3375 1075 2522 
Q 1259 2794 1537 2939 
Q 1816 3084 2150 3084 
Q 2853 3084 3261 2657 
Q 3669 2231 3669 1497 
Q 3669 778 3244 343 
Q 2819 -91 2113 -91 
Q 1303 -91 875 529 
Q 447 1150 447 2328 
Q 447 3434 972 4092 
Q 1497 4750 2381 4750 
Q 2619 4750 2861 4703 
Q 3103 4656 3366 4563 
z
" transform="scale(0.015625)"/>
       </defs>
       <use xlink:href="#DejaVuSans-36"/>
      </g>
     </g>
    </g>
    <g id="xtick_5">
     <g id="line2d_5">
      <g>
       <use xlink:href="#mc37e63fe9a" x="331.739545" y="273.312" style="stroke: #000000; stroke-width: 0.8"/>
      </g>
     </g>
     <g id="text_5">
      <!-- 8 -->
      <g transform="translate(328.558295 287.910437) scale(0.1 -0.1)">
       <defs>
        <path id="DejaVuSans-38" d="M 2034 2216 
Q 1584 2216 1326 1975 
Q 1069 1734 1069 1313 
Q 1069 891 1326 650 
Q 1584 409 2034 409 
Q 2484 409 2743 651 
Q 3003 894 3003 1313 
Q 3003 1734 2745 1975 
Q 2488 2216 2034 2216 
z
M 1403 2484 
Q 997 2584 770 2862 
Q 544 3141 544 3541 
Q 544 4100 942 4425 
Q 1341 4750 2034 4750 
Q 2731 4750 3128 4425 
Q 3525 4100 3525 3541 
Q 3525 3141 3298 2862 
Q 3072 2584 2669 2484 
Q 3125 2378 3379 2068 
Q 3634 1759 3634 1313 
Q 3634 634 3220 271 
Q 2806 -91 2034 -91 
Q 1263 -91 848 271 
Q 434 634 434 1313 
Q 434 1759 690 2068 
Q 947 2378 1403 2484 
z
M 1172 3481 
Q 1172 3119 1398 2916 
Q 1625 2713 2034 2713 
Q 2441 2713 2670 2916 
Q 2900 3119 2900 3481 
Q 2900 3844 2670 4047 
Q 2441 4250 2034 4250 
Q 1625 4250 1398 4047 
Q 1172 3844 1172 3481 
z
" transform="scale(0.015625)"/>
       </defs>
       <use xlink:href="#DejaVuSans-38"/>
      </g>
     </g>
    </g>
   </g>
   <g id="matplotlib.axis_2">
    <g id="ytick_1">
     <g id="line2d_6">
      <defs>
       <path id="mfdff09e296" d="M 0 0 
L -3.5 0 
" style="stroke: #000000; stroke-width: 0.8"/>
      </defs>
      <g>
       <use xlink:href="#mfdff09e296" x="26.925" y="240.541418" style="stroke: #000000; stroke-width: 0.8"/>
      </g>
     </g>
     <g id="text_6">
      <!-- 0 -->
      <g transform="translate(13.5625 244.340637) scale(0.1 -0.1)">
       <use xlink:href="#DejaVuSans-30"/>
      </g>
     </g>
    </g>
    <g id="ytick_2">
     <g id="line2d_7">
      <g>
       <use xlink:href="#mfdff09e296" x="26.925" y="187.444139" style="stroke: #000000; stroke-width: 0.8"/>
      </g>
     </g>
     <g id="text_7">
      <!-- 5 -->
      <g transform="translate(13.5625 191.243358) scale(0.1 -0.1)">
       <defs>
        <path id="DejaVuSans-35" d="M 691 4666 
L 3169 4666 
L 3169 4134 
L 1269 4134 
L 1269 2991 
Q 1406 3038 1543 3061 
Q 1681 3084 1819 3084 
Q 2600 3084 3056 2656 
Q 3513 2228 3513 1497 
Q 3513 744 3044 326 
Q 2575 -91 1722 -91 
Q 1428 -91 1123 -41 
Q 819 9 494 109 
L 494 744 
Q 775 591 1075 516 
Q 1375 441 1709 441 
Q 2250 441 2565 725 
Q 2881 1009 2881 1497 
Q 2881 1984 2565 2268 
Q 2250 2553 1709 2553 
Q 1456 2553 1204 2497 
Q 953 2441 691 2322 
L 691 4666 
z
" transform="scale(0.015625)"/>
       </defs>
       <use xlink:href="#DejaVuSans-35"/>
      </g>
     </g>
    </g>
    <g id="ytick_3">
     <g id="line2d_8">
      <g>
       <use xlink:href="#mfdff09e296" x="26.925" y="134.34686" style="stroke: #000000; stroke-width: 0.8"/>
      </g>
     </g>
     <g id="text_8">
      <!-- 10 -->
      <g transform="translate(7.2 138.146079) scale(0.1 -0.1)">
       <defs>
        <path id="DejaVuSans-31" d="M 794 531 
L 1825 531 
L 1825 4091 
L 703 3866 
L 703 4441 
L 1819 4666 
L 2450 4666 
L 2450 531 
L 3481 531 
L 3481 0 
L 794 0 
L 794 531 
z
" transform="scale(0.015625)"/>
       </defs>
       <use xlink:href="#DejaVuSans-31"/>
       <use xlink:href="#DejaVuSans-30" transform="translate(63.623047 0)"/>
      </g>
     </g>
    </g>
    <g id="ytick_4">
     <g id="line2d_9">
      <g>
       <use xlink:href="#mfdff09e296" x="26.925" y="81.249581" style="stroke: #000000; stroke-width: 0.8"/>
      </g>
     </g>
     <g id="text_9">
      <!-- 15 -->
      <g transform="translate(7.2 85.048799) scale(0.1 -0.1)">
       <use xlink:href="#DejaVuSans-31"/>
       <use xlink:href="#DejaVuSans-35" transform="translate(63.623047 0)"/>
      </g>
     </g>
    </g>
    <g id="ytick_5">
     <g id="line2d_10">
      <g>
       <use xlink:href="#mfdff09e296" x="26.925" y="28.152301" style="stroke: #000000; stroke-width: 0.8"/>
      </g>
     </g>
     <g id="text_10">
      <!-- 20 -->
      <g transform="translate(7.2 31.95152) scale(0.1 -0.1)">
       <use xlink:href="#DejaVuSans-32"/>
       <use xlink:href="#DejaVuSans-30" transform="translate(63.623047 0)"/>
      </g>
     </g>
    </g>
   </g>
   <g id="line2d_11">
    <path d="M 43.157727 248.853619 
L 46.437066 246.63478 
L 49.716405 244.415941 
L 52.995744 242.197102 
L 56.275083 239.978263 
L 59.554421 237.759424 
L 62.83376 235.540584 
L 66.113099 233.321745 
L 69.392438 231.102906 
L 72.671777 228.884067 
L 75.951116 226.665228 
L 79.230455 224.446389 
L 82.509793 222.22755 
L 85.789132 220.008711 
L 89.068471 217.789872 
L 92.34781 215.571033 
L 95.627149 213.352194 
L 98.906488 211.133355 
L 102.185826 208.914516 
L 105.465165 206.695677 
L 108.744504 204.476838 
L 112.023843 202.257999 
L 115.303182 200.03916 
L 118.582521 197.820321 
L 121.86186 195.601482 
L 125.141198 193.382643 
L 128.420537 191.163804 
L 131.699876 188.944965 
L 134.979215 186.726126 
L 138.258554 184.507287 
L 141.537893 182.288448 
L 144.817231 180.069609 
L 148.09657 177.85077 
L 151.375909 175.63193 
L 154.655248 173.413091 
L 157.934587 171.194252 
L 161.213926 168.975413 
L 164.493264 166.756574 
L 167.772603 164.537735 
L 171.051942 162.318896 
L 174.331281 160.100057 
L 177.61062 157.881218 
L 180.889959 155.662379 
L 184.169298 153.44354 
L 187.448636 151.224701 
L 190.727975 149.005862 
L 194.007314 146.787023 
L 197.286653 144.568184 
L 200.565992 142.349345 
L 203.845331 140.130506 
L 207.124669 137.911667 
L 210.404008 135.692828 
L 213.683347 133.473989 
L 216.962686 131.25515 
L 220.242025 129.036311 
L 223.521364 126.817472 
L 226.800702 124.598633 
L 230.080041 122.379794 
L 233.35938 120.160955 
L 236.638719 117.942115 
L 239.918058 115.723276 
L 243.197397 113.504437 
L 246.476736 111.285598 
L 249.756074 109.066759 
L 253.035413 106.84792 
L 256.314752 104.629081 
L 259.594091 102.410242 
L 262.87343 100.191403 
L 266.152769 97.972564 
L 269.432107 95.753725 
L 272.711446 93.534886 
L 275.990785 91.316047 
L 279.270124 89.097208 
L 282.549463 86.878369 
L 285.828802 84.65953 
L 289.10814 82.440691 
L 292.387479 80.221852 
L 295.666818 78.003013 
L 298.946157 75.784174 
L 302.225496 73.565335 
L 305.504835 71.346496 
L 308.784174 69.127657 
L 312.063512 66.908818 
L 315.342851 64.689979 
L 318.62219 62.47114 
L 321.901529 60.252301 
L 325.180868 58.033461 
L 328.460207 55.814622 
L 331.739545 53.595783 
L 335.018884 51.376944 
L 338.298223 49.158105 
L 341.577562 46.939266 
L 344.856901 44.720427 
L 348.13624 42.501588 
L 351.415579 40.282749 
L 354.694917 38.06391 
L 357.974256 35.845071 
L 361.253595 33.626232 
L 364.532934 31.407393 
L 367.812273 29.188554 
" clip-path="url(#pec417acae8)" style="fill: none; stroke: #1f77b4; stroke-width: 2.25; stroke-linecap: square"/>
   </g>
   <g id="patch_3">
    <path d="M 26.925 273.312 
L 26.925 7.2 
" style="fill: none; stroke: #000000; stroke-width: 0.8; stroke-linejoin: miter; stroke-linecap: square"/>
   </g>
   <g id="patch_4">
    <path d="M 384.045 273.312 
L 384.045 7.2 
" style="fill: none; stroke: #000000; stroke-width: 0.8; stroke-linejoin: miter; stroke-linecap: square"/>
   </g>
   <g id="patch_5">
    <path d="M 26.925 273.312 
L 384.045 273.312 
" style="fill: none; stroke: #000000; stroke-width: 0.8; stroke-linejoin: miter; stroke-linecap: square"/>
   </g>
   <g id="patch_6">
    <path d="M 26.925 7.2 
L 384.045 7.2 
" style="fill: none; stroke: #000000; stroke-width: 0.8; stroke-linejoin: miter; stroke-linecap: square"/>
   </g>
  </g>
 </g>
 <defs>
  <clipPath id="pec417acae8">
   <rect x="26.925" y="7.2" width="357.12" height="266.112"/>
  </clipPath>
 </defs>
</svg>