<?xml version="1.0" encoding="utf-8" standalone="no"?>
<!DOCTYPE svg PUBLIC "-//W3C//DTD SVG 1.1//EN"
  "http://www.w3.org/Graphics/SVG/1.1/DTD/svg11.dtd">
<svg xmlns:xlink="http://www.w3.org/1999/xlink" width="402.802812pt" height="310.86825pt" viewBox="0 0 402.802812 310.86825" xmlns="http://www.w3.org/2000/svg" version="1.1">
 <metadata>
  <rdf:RDF xmlns:dc="http://purl.org/dc/elements/1.1/" xmlns:cc="http://creativecommons.org/ns#" xmlns:rdf="http://www.w3.org/1999/02/22-rdf-syntax-ns#">
   <cc:Work>
    <dc:type rdf:resource="http://purl.org/dc/dcmitype/StillImage"/>
    <dc:date>2023-05-07T09:14:25.839152</dc:date>
    <dc:format>image/svg+xml</dc:format>
    <dc:creator>
     <cc:Agent>
      <dc:title>Matplotlib v3.7.1, https://matplotlib.org/</dc:title>
     </cc:Agent>
    </dc:creator>
   </cc:Work>
  </rdf:RDF>
 </metadata>
 <defs>
  <style type="text/css">*{stroke-linejoin: round; stroke-linecap: butt}</style>
 </defs>
 <g id="figure_1">
  <g id="patch_1">
   <path d="M 0 310.86825 
L 402.802812 310.86825 
L 402.802812 0 
L 0 0 
z
" style="fill: #ffffff"/>
  </g>
  <g id="axes_1">
   <g id="patch_2">
    <path d="M 38.482813 273.312 
L 395.602813 273.312 
L 395.602813 7.2 
L 38.482813 7.2 
z
" style="fill: #ffffff"/>
   </g>
   <g id="matplotlib.axis_1">
    <g id="xtick_1">
     <g id="line2d_1">
      <defs>
       <path id="meb24350aff" d="M 0 0 
L 0 3.5 
" style="stroke: #000000; stroke-width: 0.8"/>
      </defs>
      <g>
       <use xlink:href="#meb24350aff" x="54.71554" y="273.312" style="stroke: #000000; stroke-width: 0.8"/>
      </g>
     </g>
     <g id="text_1">
      <!-- 0.0 -->
      <g transform="translate(46.763977 287.910437) scale(0.1 -0.1)">
       <defs>
        <path id="DejaVuSans-30" d="M 2034 4250 
Q 1547 4250 1301 3770 
Q 1056 3291 1056 2328 
Q 1056 1369 1301 889 
Q 1547 409 2034 409 
Q 2525 409 2770 889 
Q 3016 1369 3016 2328 
Q 3016 3291 2770 3770 
Q 2525 4250 2034 4250 
z
M 2034 4750 
Q 2819 4750 3233 4129 
Q 3647 3509 3647 2328 
Q 3647 1150 3233 529 
Q 2819 -91 2034 -91 
Q 1250 -91 836 529 
Q 422 1150 422 2328 
Q 422 3509 836 4129 
Q 1250 4750 2034 4750 
z
" transform="scale(0.015625)"/>
        <path id="DejaVuSans-2e" d="M 684 794 
L 1344 794 
L 1344 0 
L 684 0 
L 684 794 
z
" transform="scale(0.015625)"/>
       </defs>
       <use xlink:href="#DejaVuSans-30"/>
       <use xlink:href="#DejaVuSans-2e" x="63.623047"/>
       <use xlink:href="#DejaVuSans-30" x="95.410156"/>
      </g>
     </g>
    </g>
    <g id="xtick_2">
     <g id="line2d_2">
      <g>
       <use xlink:href="#meb24350aff" x="119.646449" y="273.312" style="stroke: #000000; stroke-width: 0.8"/>
      </g>
     </g>
     <g id="text_2">
      <!-- 0.2 -->
      <g transform="translate(111.694886 287.910437) scale(0.1 -0.1)">
       <defs>
        <path id="DejaVuSans-32" d="M 1228 531 
L 3431 531 
L 3431 0 
L 469 0 
L 469 531 
Q 828 903 1448 1529 
Q 2069 2156 2228 2338 
Q 2531 2678 2651 2914 
Q 2772 3150 2772 3378 
Q 2772 3750 2511 3984 
Q 2250 4219 1831 4219 
Q 1534 4219 1204 4116 
Q 875 4013 500 3803 
L 500 4441 
Q 881 4594 1212 4672 
Q 1544 4750 1819 4750 
Q 2544 4750 2975 4387 
Q 3406 4025 3406 3419 
Q 3406 3131 3298 2873 
Q 3191 2616 2906 2266 
Q 2828 2175 2409 1742 
Q 1991 1309 1228 531 
z
" transform="scale(0.015625)"/>
       </defs>
       <use xlink:href="#DejaVuSans-30"/>
       <use xlink:href="#DejaVuSans-2e" x="63.623047"/>
       <use xlink:href="#DejaVuSans-32" x="95.410156"/>
      </g>
     </g>
    </g>
    <g id="xtick_3">
     <g id="line2d_3">
      <g>
       <use xlink:href="#meb24350aff" x="184.577358" y="273.312" style="stroke: #000000; stroke-width: 0.8"/>
      </g>
     </g>
     <g id="text_3">
      <!-- 0.4 -->
      <g transform="translate(176.625795 287.910437) scale(0.1 -0.1)">
       <defs>
        <path id="DejaVuSans-34" d="M 2419 4116 
L 825 1625 
L 2419 1625 
L 2419 4116 
z
M 2253 4666 
L 3047 4666 
L 3047 1625 
L 3713 1625 
L 3713 1100 
L 3047 1100 
L 3047 0 
L 2419 0 
L 2419 1100 
L 313 1100 
L 313 1709 
L 2253 4666 
z
" transform="scale(0.015625)"/>
       </defs>
       <use xlink:href="#DejaVuSans-30"/>
       <use xlink:href="#DejaVuSans-2e" x="63.623047"/>
       <use xlink:href="#DejaVuSans-34" x="95.410156"/>
      </g>
     </g>
    </g>
    <g id="xtick_4">
     <g id="line2d_4">
      <g>
       <use xlink:href="#meb24350aff" x="249.508267" y="273.312" style="stroke: #000000; stroke-width: 0.8"/>
      </g>
     </g>
     <g id="text_4">
      <!-- 0.6 -->
      <g transform="translate(241.556705 287.910437) scale(0.1 -0.1)">
       <defs>
        <path id="DejaVuSans-36" d="M 2113 2584 
Q 1688 2584 1439 2293 
Q 1191 2003 1191 1497 
Q 1191 994 1439 701 
Q 1688 409 2113 409 
Q 2538 409 2786 701 
Q 3034 994 3034 1497 
Q 3034 2003 2786 2293 
Q 2538 2584 2113 2584 
z
M 3366 4563 
L 3366 3988 
Q 3128 4100 2886 4159 
Q 2644 4219 2406 4219 
Q 1781 4219 1451 3797 
Q 1122 3375 1075 2522 
Q 1259 2794 1537 2939 
Q 1816 3084 2150 3084 
Q 2853 3084 3261 2657 
Q 3669 2231 3669 1497 
Q 3669 778 3244 343 
Q 2819 -91 2113 -91 
Q 1303 -91 875 529 
Q 447 1150 447 2328 
Q 447 3434 972 4092 
Q 1497 4750 2381 4750 
Q 2619 4750 2861 4703 
Q 3103 4656 3366 4563 
z
" transform="scale(0.015625)"/>
       </defs>
       <use xlink:href="#DejaVuSans-30"/>
       <use xlink:href="#DejaVuSans-2e" x="63.623047"/>
       <use xlink:href="#DejaVuSans-36" x="95.410156"/>
      </g>
     </g>
    </g>
    <g id="xtick_5">
     <g id="line2d_5">
      <g>
       <use xlink:href="#meb24350aff" x="314.439176" y="273.312" style="stroke: #000000; stroke-width: 0.8"/>
      </g>
     </g>
     <g id="text_5">
      <!-- 0.8 -->
      <g transform="translate(306.487614 287.910437) scale(0.1 -0.1)">
       <defs>
        <path id="DejaVuSans-38" d="M 2034 2216 
Q 1584 2216 1326 1975 
Q 1069 1734 1069 1313 
Q 1069 891 1326 650 
Q 1584 409 2034 409 
Q 2484 409 2743 651 
Q 3003 894 3003 1313 
Q 3003 1734 2745 1975 
Q 2488 2216 2034 2216 
z
M 1403 2484 
Q 997 2584 770 2862 
Q 544 3141 544 3541 
Q 544 4100 942 4425 
Q 1341 4750 2034 4750 
Q 2731 4750 3128 4425 
Q 3525 4100 3525 3541 
Q 3525 3141 3298 2862 
Q 3072 2584 2669 2484 
Q 3125 2378 3379 2068 
Q 3634 1759 3634 1313 
Q 3634 634 3220 271 
Q 2806 -91 2034 -91 
Q 1263 -91 848 271 
Q 434 634 434 1313 
Q 434 1759 690 2068 
Q 947 2378 1403 2484 
z
M 1172 3481 
Q 1172 3119 1398 2916 
Q 1625 2713 2034 2713 
Q 2441 2713 2670 2916 
Q 2900 3119 2900 3481 
Q 2900 3844 2670 4047 
Q 2441 4250 2034 4250 
Q 1625 4250 1398 4047 
Q 1172 3844 1172 3481 
z
" transform="scale(0.015625)"/>
       </defs>
       <use xlink:href="#DejaVuSans-30"/>
       <use xlink:href="#DejaVuSans-2e" x="63.623047"/>
       <use xlink:href="#DejaVuSans-38" x="95.410156"/>
      </g>
     </g>
    </g>
    <g id="xtick_6">
     <g id="line2d_6">
      <g>
       <use xlink:href="#meb24350aff" x="379.370085" y="273.312" style="stroke: #000000; stroke-width: 0.8"/>
      </g>
     </g>
     <g id="text_6">
      <!-- 1.0 -->
      <g transform="translate(371.418523 287.910437) scale(0.1 -0.1)">
       <defs>
        <path id="DejaVuSans-31" d="M 794 531 
L 1825 531 
L 1825 4091 
L 703 3866 
L 703 4441 
L 1819 4666 
L 2450 4666 
L 2450 531 
L 3481 531 
L 3481 0 
L 794 0 
L 794 531 
z
" transform="scale(0.015625)"/>
       </defs>
       <use xlink:href="#DejaVuSans-31"/>
       <use xlink:href="#DejaVuSans-2e" x="63.623047"/>
       <use xlink:href="#DejaVuSans-30" x="95.410156"/>
      </g>
     </g>
    </g>
    <g id="text_7">
     <!-- Time, s -->
     <g transform="translate(199.026406 301.588562) scale(0.1 -0.1)">
      <defs>
       <path id="DejaVuSans-54" d="M -19 4666 
L 3928 4666 
L 3928 4134 
L 2272 4134 
L 2272 0 
L 1638 0 
L 1638 4134 
L -19 4134 
L -19 4666 
z
" transform="scale(0.015625)"/>
       <path id="DejaVuSans-69" d="M 603 3500 
L 1178 3500 
L 1178 0 
L 603 0 
L 603 3500 
z
M 603 4863 
L 1178 4863 
L 1178 4134 
L 603 4134 
L 603 4863 
z
" transform="scale(0.015625)"/>
       <path id="DejaVuSans-6d" d="M 3328 2828 
Q 3544 3216 3844 3400 
Q 4144 3584 4550 3584 
Q 5097 3584 5394 3201 
Q 5691 2819 5691 2113 
L 5691 0 
L 5113 0 
L 5113 2094 
Q 5113 2597 4934 2840 
Q 4756 3084 4391 3084 
Q 3944 3084 3684 2787 
Q 3425 2491 3425 1978 
L 3425 0 
L 2847 0 
L 2847 2094 
Q 2847 2600 2669 2842 
Q 2491 3084 2119 3084 
Q 1678 3084 1418 2786 
Q 1159 2488 1159 1978 
L 1159 0 
L 581 0 
L 581 3500 
L 1159 3500 
L 1159 2956 
Q 1356 3278 1631 3431 
Q 1906 3584 2284 3584 
Q 2666 3584 2933 3390 
Q 3200 3197 3328 2828 
z
" transform="scale(0.015625)"/>
       <path id="DejaVuSans-65" d="M 3597 1894 
L 3597 1613 
L 953 1613 
Q 991 1019 1311 708 
Q 1631 397 2203 397 
Q 2534 397 2845 478 
Q 3156 559 3463 722 
L 3463 178 
Q 3153 47 2828 -22 
Q 2503 -91 2169 -91 
Q 1331 -91 842 396 
Q 353 884 353 1716 
Q 353 2575 817 3079 
Q 1281 3584 2069 3584 
Q 2775 3584 3186 3129 
Q 3597 2675 3597 1894 
z
M 3022 2063 
Q 3016 2534 2758 2815 
Q 2500 3097 2075 3097 
Q 1594 3097 1305 2825 
Q 1016 2553 972 2059 
L 3022 2063 
z
" transform="scale(0.015625)"/>
       <path id="DejaVuSans-2c" d="M 750 794 
L 1409 794 
L 1409 256 
L 897 -744 
L 494 -744 
L 750 256 
L 750 794 
z
" transform="scale(0.015625)"/>
       <path id="DejaVuSans-20" transform="scale(0.015625)"/>
       <path id="DejaVuSans-73" d="M 2834 3397 
L 2834 2853 
Q 2591 2978 2328 3040 
Q 2066 3103 1784 3103 
Q 1356 3103 1142 2972 
Q 928 2841 928 2578 
Q 928 2378 1081 2264 
Q 1234 2150 1697 2047 
L 1894 2003 
Q 2506 1872 2764 1633 
Q 3022 1394 3022 966 
Q 3022 478 2636 193 
Q 2250 -91 1575 -91 
Q 1294 -91 989 -36 
Q 684 19 347 128 
L 347 722 
Q 666 556 975 473 
Q 1284 391 1588 391 
Q 1994 391 2212 530 
Q 2431 669 2431 922 
Q 2431 1156 2273 1281 
Q 2116 1406 1581 1522 
L 1381 1569 
Q 847 1681 609 1914 
Q 372 2147 372 2553 
Q 372 3047 722 3315 
Q 1072 3584 1716 3584 
Q 2034 3584 2315 3537 
Q 2597 3491 2834 3397 
z
" transform="scale(0.015625)"/>
      </defs>
      <use xlink:href="#DejaVuSans-54"/>
      <use xlink:href="#DejaVuSans-69" x="57.958984"/>
      <use xlink:href="#DejaVuSans-6d" x="85.742188"/>
      <use xlink:href="#DejaVuSans-65" x="183.154297"/>
      <use xlink:href="#DejaVuSans-2c" x="244.677734"/>
      <use xlink:href="#DejaVuSans-20" x="276.464844"/>
      <use xlink:href="#DejaVuSans-73" x="308.251953"/>
     </g>
    </g>
   </g>
   <g id="matplotlib.axis_2">
    <g id="ytick_1">
     <g id="line2d_7">
      <defs>
       <path id="m3a352fb16a" d="M 0 0 
L -3.5 0 
" style="stroke: #000000; stroke-width: 0.8"/>
      </defs>
      <g>
       <use xlink:href="#m3a352fb16a" x="38.482813" y="261.971813" style="stroke: #000000; stroke-width: 0.8"/>
      </g>
     </g>
     <g id="text_8">
      <!-- −1.0 -->
      <g transform="translate(7.2 265.771032) scale(0.1 -0.1)">
       <defs>
        <path id="DejaVuSans-2212" d="M 678 2272 
L 4684 2272 
L 4684 1741 
L 678 1741 
L 678 2272 
z
" transform="scale(0.015625)"/>
       </defs>
       <use xlink:href="#DejaVuSans-2212"/>
       <use xlink:href="#DejaVuSans-31" x="83.789062"/>
       <use xlink:href="#DejaVuSans-2e" x="147.412109"/>
       <use xlink:href="#DejaVuSans-30" x="179.199219"/>
      </g>
     </g>
    </g>
    <g id="ytick_2">
     <g id="line2d_8">
      <g>
       <use xlink:href="#m3a352fb16a" x="38.482813" y="213.165641" style="stroke: #000000; stroke-width: 0.8"/>
      </g>
     </g>
     <g id="text_9">
      <!-- −0.5 -->
      <g transform="translate(7.2 216.964859) scale(0.1 -0.1)">
       <defs>
        <path id="DejaVuSans-35" d="M 691 4666 
L 3169 4666 
L 3169 4134 
L 1269 4134 
L 1269 2991 
Q 1406 3038 1543 3061 
Q 1681 3084 1819 3084 
Q 2600 3084 3056 2656 
Q 3513 2228 3513 1497 
Q 3513 744 3044 326 
Q 2575 -91 1722 -91 
Q 1428 -91 1123 -41 
Q 819 9 494 109 
L 494 744 
Q 775 591 1075 516 
Q 1375 441 1709 441 
Q 2250 441 2565 725 
Q 2881 1009 2881 1497 
Q 2881 1984 2565 2268 
Q 2250 2553 1709 2553 
Q 1456 2553 1204 2497 
Q 953 2441 691 2322 
L 691 4666 
z
" transform="scale(0.015625)"/>
       </defs>
       <use xlink:href="#DejaVuSans-2212"/>
       <use xlink:href="#DejaVuSans-30" x="83.789062"/>
       <use xlink:href="#DejaVuSans-2e" x="147.412109"/>
       <use xlink:href="#DejaVuSans-35" x="179.199219"/>
      </g>
     </g>
    </g>
    <g id="ytick_3">
     <g id="line2d_9">
      <g>
       <use xlink:href="#m3a352fb16a" x="38.482813" y="164.359468" style="stroke: #000000; stroke-width: 0.8"/>
      </g>
     </g>
     <g id="text_10">
      <!-- 0.0 -->
      <g transform="translate(15.579688 168.158687) scale(0.1 -0.1)">
       <use xlink:href="#DejaVuSans-30"/>
       <use xlink:href="#DejaVuSans-2e" x="63.623047"/>
       <use xlink:href="#DejaVuSans-30" x="95.410156"/>
      </g>
     </g>
    </g>
    <g id="ytick_4">
     <g id="line2d_10">
      <g>
       <use xlink:href="#m3a352fb16a" x="38.482813" y="115.553295" style="stroke: #000000; stroke-width: 0.8"/>
      </g>
     </g>
     <g id="text_11">
      <!-- 0.5 -->
      <g transform="translate(15.579688 119.352514) scale(0.1 -0.1)">
       <use xlink:href="#DejaVuSans-30"/>
       <use xlink:href="#DejaVuSans-2e" x="63.623047"/>
       <use xlink:href="#DejaVuSans-35" x="95.410156"/>
      </g>
     </g>
    </g>
    <g id="ytick_5">
     <g id="line2d_11">
      <g>
       <use xlink:href="#m3a352fb16a" x="38.482813" y="66.747122" style="stroke: #000000; stroke-width: 0.8"/>
      </g>
     </g>
     <g id="text_12">
      <!-- 1.0 -->
      <g transform="translate(15.579688 70.546341) scale(0.1 -0.1)">
       <use xlink:href="#DejaVuSans-31"/>
       <use xlink:href="#DejaVuSans-2e" x="63.623047"/>
       <use xlink:href="#DejaVuSans-30" x="95.410156"/>
      </g>
     </g>
    </g>
    <g id="ytick_6">
     <g id="line2d_12">
      <g>
       <use xlink:href="#m3a352fb16a" x="38.482813" y="17.94095" style="stroke: #000000; stroke-width: 0.8"/>
      </g>
     </g>
     <g id="text_13">
      <!-- 1.5 -->
      <g transform="translate(15.579688 21.740168) scale(0.1 -0.1)">
       <use xlink:href="#DejaVuSans-31"/>
       <use xlink:href="#DejaVuSans-2e" x="63.623047"/>
       <use xlink:href="#DejaVuSans-35" x="95.410156"/>
      </g>
     </g>
    </g>
   </g>
   <g id="line2d_13">
    <path d="M 54.71554 158.975549 
L 55.040519 104.488601 
L 55.365499 92.317801 
L 55.690478 54.488845 
L 56.015458 32.043956 
L 56.340437 26.288549 
L 56.665417 88.041019 
L 56.990396 82.049011 
L 57.315376 142.236463 
L 57.640355 163.490763 
L 58.615294 255.437078 
L 58.940274 254.18565 
L 59.265253 227.568424 
L 59.590233 187.449267 
L 59.915212 121.195113 
L 60.240192 104.422086 
L 60.565171 56.863764 
L 60.890151 32.658777 
L 61.21513 22.610952 
L 61.54011 39.209759 
L 61.865089 45.258943 
L 62.515048 136.452033 
L 63.489987 236.034733 
L 63.814966 227.050704 
L 64.464926 194.097416 
L 64.789905 177.741232 
L 65.114885 169.318048 
L 65.439864 108.422458 
L 66.089823 36.052691 
L 66.414803 61.043145 
L 66.739782 61.578644 
L 67.064762 67.241779 
L 67.389741 76.986492 
L 67.714721 150.626159 
L 68.0397 149.04563 
L 68.36468 179.173097 
L 68.689659 230.82519 
L 69.014639 249.846759 
L 69.339618 216.826784 
L 69.664598 201.575994 
L 69.989577 194.43025 
L 70.314557 173.005989 
L 70.964516 60.210389 
L 71.289496 74.774944 
L 71.614475 42.879967 
L 71.939455 62.245638 
L 72.264434 40.158806 
L 72.914393 145.24696 
L 73.239373 157.33409 
L 73.889332 240.748598 
L 74.214311 249.993209 
L 74.539291 214.198206 
L 74.86427 196.310969 
L 75.18925 214.481758 
L 75.514229 140.837914 
L 75.839209 118.629441 
L 76.164188 86.729892 
L 76.489168 77.825568 
L 76.814147 48.069066 
L 77.139127 43.186345 
L 77.464107 64.136779 
L 77.789086 64.305995 
L 78.114066 139.898104 
L 78.439045 150.371025 
L 78.764025 198.829277 
L 79.089004 206.23546 
L 79.413984 241.181619 
L 79.738963 252.652589 
L 80.388922 177.132306 
L 80.713902 159.568457 
L 81.038881 123.677115 
L 81.363861 65.880861 
L 81.68884 40.112093 
L 82.01382 66.53889 
L 82.338799 54.925017 
L 82.663779 56.625385 
L 82.988758 85.116971 
L 83.638717 157.981237 
L 83.963697 166.282119 
L 84.938636 258.212793 
L 85.263615 241.521309 
L 85.913574 157.15365 
L 87.213492 28.334195 
L 87.538472 25.394789 
L 87.863451 48.386601 
L 88.188431 87.866706 
L 88.51341 102.862483 
L 88.83839 162.975933 
L 89.163369 162.907801 
L 89.488349 228.514692 
L 89.813328 225.375779 
L 90.138308 244.419253 
L 90.788267 195.31194 
L 91.438226 112.597145 
L 91.763206 97.284338 
L 92.088185 44.02942 
L 92.413165 61.401525 
L 92.738144 35.227817 
L 93.063124 31.505523 
L 93.388103 79.733335 
L 93.713083 88.357614 
L 94.038062 160.434892 
L 94.363042 170.59628 
L 95.33798 241.151618 
L 95.987939 218.591858 
L 96.312919 152.600698 
L 96.637898 153.468783 
L 97.287858 62.441928 
L 97.612837 69.659183 
L 97.937817 23.614188 
L 98.262796 74.537768 
L 98.587776 53.006243 
L 99.887694 228.057545 
L 100.212673 214.827373 
L 100.537653 231.939883 
L 100.862632 218.419937 
L 101.187612 217.344854 
L 101.512591 157.664438 
L 101.837571 125.183165 
L 102.16255 127.002543 
L 102.48753 65.989702 
L 102.812509 39.898612 
L 103.137489 40.122035 
L 103.462469 66.941148 
L 103.787448 73.785608 
L 104.112428 101.703247 
L 104.437407 160.698871 
L 104.762387 159.905093 
L 105.412346 245.347468 
L 105.737325 228.305843 
L 106.062305 246.860285 
L 106.387284 229.542758 
L 106.712264 169.575835 
L 107.037243 141.489112 
L 107.362223 129.048627 
L 108.012182 39.942423 
L 108.337161 41.235676 
L 108.662141 54.245995 
L 108.98712 53.455885 
L 109.3121 75.484912 
L 109.637079 126.39203 
L 110.287039 182.708842 
L 110.612018 231.102779 
L 110.936998 245.718275 
L 111.261977 231.848639 
L 111.586957 193.529947 
L 111.911936 187.842827 
L 112.236916 166.054509 
L 112.561895 132.016154 
L 112.886875 82.530829 
L 113.211854 66.820865 
L 113.536834 30.072645 
L 113.861813 31.52283 
L 114.186793 84.726188 
L 114.511772 73.072552 
L 114.836752 151.483817 
L 115.161731 157.630817 
L 115.486711 209.31414 
L 115.81169 235.132951 
L 116.13667 233.670583 
L 116.46165 241.738849 
L 116.786629 195.296709 
L 117.111609 178.911636 
L 117.436588 130.694634 
L 117.761568 100.662808 
L 118.086547 58.005329 
L 118.411527 74.169319 
L 118.736506 20.345684 
L 119.061486 26.763955 
L 119.711445 109.34916 
L 120.036424 119.859422 
L 120.361404 179.87911 
L 121.011363 220.233212 
L 121.336342 252.240135 
L 121.661322 234.516821 
L 121.986301 239.671206 
L 122.311281 187.132153 
L 122.63626 178.56373 
L 122.96124 106.85406 
L 123.28622 79.938448 
L 123.611199 77.489639 
L 123.936179 40.666618 
L 124.261158 41.47301 
L 124.586138 35.188899 
L 125.236097 137.959345 
L 125.561076 152.577685 
L 126.211035 196.755261 
L 126.536015 244.783028 
L 126.860994 248.351217 
L 127.185974 212.935223 
L 127.510953 207.902718 
L 127.835933 154.866001 
L 128.160912 141.939347 
L 128.485892 109.631161 
L 128.810871 40.112683 
L 129.135851 61.469191 
L 129.460831 33.002412 
L 129.78581 72.435572 
L 130.11079 89.293948 
L 130.760749 154.06892 
L 131.085728 177.210745 
L 131.410708 234.950992 
L 131.735687 230.960458 
L 132.060667 253.278176 
L 133.035605 148.394937 
L 133.360585 132.277253 
L 134.010544 65.443482 
L 134.335523 70.297575 
L 134.660503 19.941381 
L 134.985482 68.827197 
L 135.310462 99.040724 
L 135.635441 103.575708 
L 135.960421 172.763633 
L 136.285401 166.677506 
L 136.61038 234.828684 
L 136.93536 244.652951 
L 137.585319 208.561578 
L 137.910298 209.553047 
L 138.235278 187.487693 
L 138.560257 116.721204 
L 138.885237 97.584869 
L 139.210216 55.9222 
L 139.535196 59.050525 
L 139.860175 32.928805 
L 140.185155 41.260265 
L 140.835114 116.321251 
L 141.160093 148.000222 
L 141.485073 161.960976 
L 141.810052 213.21599 
L 142.460012 245.023977 
L 143.43495 181.306918 
L 143.75993 113.054701 
L 144.409889 88.491505 
L 144.734868 51.837598 
L 145.059848 48.731816 
L 145.384827 28.673057 
L 145.709807 62.742785 
L 146.034786 84.676823 
L 147.009725 231.349646 
L 147.334704 242.673297 
L 147.659684 261.133783 
L 147.984663 242.951045 
L 148.309643 211.684383 
L 148.634622 168.84696 
L 148.959602 152.404051 
L 149.284582 96.699682 
L 149.609561 95.027668 
L 150.25952 43.72177 
L 150.909479 88.887375 
L 151.234459 112.480185 
L 151.559438 152.14638 
L 152.209397 184.993863 
L 152.859356 249.713986 
L 153.834295 194.594811 
L 154.159274 122.56517 
L 154.484254 84.677756 
L 154.809233 70.610316 
L 155.134213 65.813382 
L 155.459193 28.239445 
L 155.784172 65.63699 
L 156.109152 80.213829 
L 156.434131 80.928832 
L 156.759111 127.113582 
L 157.08409 189.664585 
L 157.40907 198.830513 
L 157.734049 241.307287 
L 158.059029 238.343595 
L 158.384008 226.918098 
L 158.708988 238.296979 
L 159.683926 115.697147 
L 160.008906 87.855762 
L 160.983844 37.222265 
L 161.633803 75.769572 
L 162.283763 182.541264 
L 162.608742 175.450999 
L 162.933722 221.126019 
L 163.258701 223.709587 
L 163.583681 240.394222 
L 163.90866 205.047683 
L 164.23364 185.836782 
L 164.558619 152.051079 
L 164.883599 139.78331 
L 165.208578 80.898134 
L 165.533558 50.178284 
L 165.858537 43.912052 
L 166.183517 27.072876 
L 166.508496 64.627335 
L 167.158455 114.655665 
L 167.483435 161.43618 
L 167.808414 176.051575 
L 168.133394 219.78682 
L 168.458374 212.362153 
L 168.783353 241.238785 
L 169.108333 232.201242 
L 169.433312 169.945646 
L 169.758292 151.255866 
L 170.083271 100.278436 
L 170.408251 77.090038 
L 170.73323 44.821687 
L 171.05821 49.420099 
L 171.383189 21.992955 
L 171.708169 79.814509 
L 172.033148 82.601812 
L 173.008087 212.670279 
L 173.333066 208.399661 
L 173.658046 218.426467 
L 173.983025 234.032472 
L 174.308005 217.599144 
L 174.632984 172.552182 
L 174.957964 181.269054 
L 175.607923 103.896667 
L 175.932903 49.326446 
L 176.257882 35.182805 
L 176.582862 30.67775 
L 176.907841 50.44504 
L 177.5578 131.814391 
L 177.88278 131.11378 
L 178.207759 174.582685 
L 178.532739 234.650593 
L 178.857718 221.83031 
L 179.182698 240.000315 
L 179.507677 233.905452 
L 180.157636 163.499704 
L 180.807595 77.933854 
L 181.132575 56.650163 
L 181.457555 66.674964 
L 181.782534 53.125539 
L 182.107514 48.649649 
L 182.432493 79.555352 
L 182.757473 128.137854 
L 183.082452 133.243234 
L 183.407432 165.943183 
L 183.732411 223.110457 
L 184.057391 249.948515 
L 184.38237 251.921194 
L 184.70735 232.861001 
L 185.032329 191.61089 
L 185.357309 191.838274 
L 185.682288 116.379259 
L 186.007268 109.588712 
L 186.332247 50.360473 
L 186.657227 49.268033 
L 186.982206 39.101672 
L 187.307186 35.114087 
L 187.632165 87.2083 
L 187.957145 107.804814 
L 188.282125 154.359198 
L 188.607104 168.713243 
L 189.257063 251.933153 
L 189.582043 260.385741 
L 189.907022 251.84655 
L 190.232002 194.021885 
L 190.556981 181.954409 
L 191.20694 90.662557 
L 191.53192 90.517167 
L 191.856899 32.175811 
L 192.506858 68.403577 
L 192.831838 61.928584 
L 193.156817 118.885572 
L 193.481797 133.982689 
L 193.806776 155.444571 
L 194.131756 217.521607 
L 194.456736 214.232236 
L 194.781715 217.000914 
L 195.106695 212.582682 
L 195.431674 231.039496 
L 196.081633 129.252338 
L 196.406613 106.07922 
L 196.731592 48.435086 
L 197.056572 41.511945 
L 197.381551 50.690809 
L 197.706531 39.336682 
L 198.03151 85.84241 
L 198.35649 111.103981 
L 198.681469 159.105478 
L 199.006449 167.950045 
L 199.331428 223.72045 
L 199.656408 239.553321 
L 199.981387 246.767306 
L 200.306367 238.317389 
L 200.631346 201.971465 
L 200.956326 195.081259 
L 201.606285 106.877706 
L 202.256244 52.05351 
L 202.581224 33.023894 
L 203.231183 84.402871 
L 203.556162 77.640169 
L 203.881142 138.541622 
L 204.531101 204.56809 
L 204.85608 203.025218 
L 205.506039 257.018211 
L 205.831019 215.80958 
L 206.155998 189.867891 
L 206.480978 129.730245 
L 206.805957 123.837117 
L 207.130937 102.764496 
L 207.455917 34.192797 
L 207.780896 62.199749 
L 208.105876 33.027639 
L 208.755835 73.683192 
L 209.080814 136.920085 
L 209.405794 142.980036 
L 209.730773 222.981611 
L 210.055753 223.284129 
L 210.380732 249.577642 
L 210.705712 227.123957 
L 211.030691 195.835669 
L 211.355671 197.207297 
L 211.68065 171.695511 
L 212.00563 136.957171 
L 212.330609 68.832162 
L 212.655589 37.461447 
L 212.980568 51.539933 
L 213.630527 59.390166 
L 213.955507 87.664037 
L 214.930446 216.690029 
L 215.255425 218.991891 
L 215.580405 237.40707 
L 215.905384 248.226237 
L 216.230364 233.776227 
L 216.555343 214.189268 
L 216.880323 175.153617 
L 217.205302 109.02777 
L 217.530282 65.59968 
L 217.855261 59.00876 
L 218.180241 62.303344 
L 218.50522 54.009204 
L 219.155179 86.043328 
L 219.480159 105.166556 
L 219.805138 176.474037 
L 220.130118 170.095621 
L 220.455098 231.113919 
L 220.780077 232.764783 
L 221.105057 254.896904 
L 221.430036 220.689795 
L 221.755016 206.52921 
L 222.404975 131.436341 
L 222.729954 99.008331 
L 223.054934 85.791809 
L 223.379913 44.356358 
L 223.704893 26.002196 
L 224.354852 56.596596 
L 225.32979 201.956867 
L 225.65477 228.089925 
L 225.979749 225.116566 
L 226.304729 213.27473 
L 226.629708 224.005767 
L 226.954688 204.123019 
L 227.279668 191.573629 
L 227.604647 120.559817 
L 227.929627 86.660448 
L 228.254606 81.293739 
L 228.904565 40.206634 
L 229.229545 57.889215 
L 229.554524 93.065192 
L 229.879504 106.978446 
L 230.204483 163.38194 
L 230.529463 183.702521 
L 230.854442 226.714556 
L 231.504401 255.657351 
L 231.829381 220.435568 
L 232.15436 208.85103 
L 232.47934 169.890726 
L 232.804319 151.184559 
L 233.779258 31.514444 
L 234.104238 32.16388 
L 234.429217 51.626443 
L 234.754197 53.674233 
L 235.079176 102.572469 
L 235.404156 129.315535 
L 235.729135 190.500974 
L 236.054115 206.644651 
L 236.704074 256.934232 
L 237.029053 233.443374 
L 237.354033 193.627472 
L 238.653951 90.032718 
L 238.97893 52.533468 
L 239.30391 31.83125 
L 239.628889 71.201016 
L 239.953869 64.561456 
L 240.278849 108.044798 
L 240.603828 127.32625 
L 240.928808 199.684189 
L 241.253787 210.382093 
L 241.578767 229.408941 
L 241.903746 219.20968 
L 242.228726 224.372572 
L 242.553705 217.46288 
L 242.878685 176.712462 
L 243.203664 166.158846 
L 243.528644 86.853948 
L 243.853623 70.714919 
L 244.178603 47.967157 
L 244.503582 48.261829 
L 244.828562 65.330267 
L 245.153541 50.041962 
L 245.478521 79.970999 
L 245.8035 127.851452 
L 246.12848 153.831272 
L 246.45346 209.282869 
L 246.778439 211.800055 
L 247.103419 235.195006 
L 247.428398 235.036738 
L 248.078357 170.067143 
L 248.728316 89.055807 
L 249.053296 95.929586 
L 249.378275 56.076302 
L 249.703255 43.360856 
L 250.028234 22.848956 
L 250.353214 59.610806 
L 250.678193 71.181542 
L 251.328152 188.482966 
L 251.978111 229.7204 
L 252.303091 245.420923 
L 252.62807 242.085956 
L 252.95305 198.373059 
L 253.27803 170.843452 
L 253.927989 91.312967 
L 254.252968 91.160686 
L 254.902927 56.656084 
L 255.227907 39.179396 
L 255.552886 38.479462 
L 256.202845 135.215638 
L 257.177784 231.431432 
L 257.502763 223.82702 
L 257.827743 238.374827 
L 258.477702 193.251868 
L 259.127661 111.812712 
L 259.452641 98.907984 
L 260.427579 38.253686 
L 260.752559 69.322486 
L 261.077538 82.315704 
L 261.402518 119.748044 
L 261.727497 175.620557 
L 262.377456 229.939678 
L 262.702436 241.625933 
L 263.027415 226.999241 
L 263.352395 240.25648 
L 263.677374 172.289888 
L 264.002354 168.510306 
L 264.652313 64.76614 
L 264.977292 61.988071 
L 265.302272 41.714273 
L 265.627251 34.119551 
L 265.952231 49.941195 
L 266.277211 81.013178 
L 266.60219 136.880902 
L 266.92717 134.452235 
L 267.577129 208.502598 
L 267.902108 239.908398 
L 268.227088 239.529949 
L 268.552067 216.839499 
L 268.877047 179.023843 
L 269.202026 182.752461 
L 269.527006 105.174217 
L 270.176965 60.648463 
L 270.501944 65.202281 
L 270.826924 19.296 
L 271.476883 79.405748 
L 272.126842 142.427122 
L 272.451822 208.903072 
L 273.42676 247.397179 
L 273.75174 239.986845 
L 274.076719 188.600207 
L 274.401699 174.530718 
L 274.726678 151.620564 
L 275.051658 112.828493 
L 275.701617 24.991497 
L 276.026596 65.743778 
L 276.351576 59.765218 
L 277.651494 191.185509 
L 277.976473 190.828344 
L 278.301453 231.806351 
L 278.626432 250.099118 
L 278.951412 203.945281 
L 279.276392 216.345747 
L 279.926351 129.601489 
L 280.25133 78.109689 
L 280.57631 49.863329 
L 280.901289 50.279339 
L 281.226269 59.550298 
L 281.551248 49.262827 
L 282.526187 136.185624 
L 282.851166 197.205356 
L 283.501125 226.563098 
L 283.826105 232.421238 
L 284.151084 213.172441 
L 284.476064 227.036268 
L 284.801043 177.296293 
L 285.126023 150.925128 
L 285.451003 87.997924 
L 285.775982 75.871302 
L 286.100962 30.349832 
L 286.425941 34.117498 
L 286.750921 34.915858 
L 287.0759 94.893992 
L 287.40088 87.106003 
L 287.725859 138.39446 
L 288.050839 155.755304 
L 288.375818 221.626274 
L 288.700798 226.186863 
L 289.025777 240.707951 
L 289.350757 244.618723 
L 291.300634 28.842731 
L 291.625613 64.43168 
L 291.950593 67.902953 
L 292.600552 79.228028 
L 292.925532 144.485481 
L 293.575491 202.37231 
L 294.22545 237.319804 
L 294.550429 224.262172 
L 295.200388 173.179743 
L 295.525368 168.689823 
L 296.500306 44.953929 
L 296.825286 50.811588 
L 297.150265 65.004546 
L 297.475245 71.608718 
L 297.800224 71.87946 
L 298.125204 143.511218 
L 298.450184 164.542034 
L 299.100143 227.387906 
L 299.425122 215.594641 
L 299.750102 232.634481 
L 300.075081 220.434929 
L 300.400061 172.805219 
L 301.05002 110.084138 
L 301.374999 103.410912 
L 301.699979 49.486933 
L 302.024958 34.789485 
L 302.349938 41.160626 
L 302.674917 78.323172 
L 302.999897 82.745863 
L 303.324876 142.482256 
L 303.974835 211.17265 
L 304.299815 200.980194 
L 304.624794 239.861697 
L 304.949774 252.957468 
L 305.274754 233.519961 
L 305.924713 153.927146 
L 306.249692 94.961473 
L 306.574672 103.885962 
L 306.899651 41.899549 
L 307.224631 53.540038 
L 307.54961 59.703506 
L 307.87459 55.228715 
L 309.174508 194.710086 
L 309.499487 207.295134 
L 309.824467 236.677586 
L 310.149446 234.950529 
L 310.474426 236.061086 
L 310.799405 216.312291 
L 311.124385 158.014312 
L 312.424303 34.430789 
L 312.749283 30.91703 
L 313.074262 71.937132 
L 313.399242 76.877456 
L 313.724221 130.043866 
L 314.37418 171.426081 
L 314.69916 215.850302 
L 315.024139 225.792395 
L 315.349119 239.25525 
L 315.674098 230.080762 
L 316.649037 123.077683 
L 316.974016 93.750849 
L 317.298996 78.768083 
L 317.623975 52.816972 
L 317.948955 51.374431 
L 318.273935 59.677089 
L 318.598914 103.424513 
L 318.923894 102.507161 
L 319.248873 165.400775 
L 319.573853 189.119144 
L 319.898832 199.141416 
L 320.223812 242.173155 
L 320.548791 226.992954 
L 320.873771 240.500181 
L 321.52373 175.14884 
L 322.173689 79.278677 
L 322.498668 82.431716 
L 322.823648 24.278655 
L 323.148627 42.559011 
L 323.473607 76.032523 
L 323.798586 90.261748 
L 324.123566 87.754117 
L 324.448546 166.572508 
L 324.773525 181.172889 
L 325.098505 217.005335 
L 325.423484 224.549918 
L 325.748464 243.60385 
L 326.073443 220.398731 
L 326.398423 208.836978 
L 326.723402 191.860603 
L 327.048382 112.054005 
L 327.373361 116.060935 
L 327.698341 50.699907 
L 328.02332 68.310519 
L 328.3483 21.555867 
L 328.673279 30.916055 
L 328.998259 59.877383 
L 330.298177 225.4535 
L 330.623156 217.089625 
L 330.948136 261.216 
L 331.273116 247.945552 
L 331.598095 198.736675 
L 331.923075 168.391131 
L 332.248054 124.713462 
L 332.573034 108.736524 
L 332.898013 82.798981 
L 333.222993 47.223068 
L 333.547972 58.91053 
L 333.872952 39.45148 
L 334.197931 50.210574 
L 334.522911 80.338382 
L 335.17287 198.35419 
L 335.497849 183.502969 
L 335.822829 244.982572 
L 336.472788 217.318213 
L 336.797767 230.347106 
L 337.122747 167.721688 
L 337.447727 147.75625 
L 337.772706 88.759592 
L 338.422665 70.154825 
L 338.747645 20.252419 
L 339.072624 44.159515 
L 339.722583 77.774451 
L 340.047563 148.722997 
L 340.372542 149.358825 
L 341.022501 225.442482 
L 341.347481 251.464992 
L 341.67246 248.44175 
L 342.322419 185.518384 
L 342.647399 133.033141 
L 342.972378 110.668972 
L 343.297358 76.316402 
L 343.622337 63.614165 
L 343.947317 22.896635 
L 344.272297 25.835745 
L 344.597276 57.763007 
L 345.247235 148.36358 
L 345.572215 185.139206 
L 345.897194 198.878302 
L 346.547153 242.060576 
L 346.872133 239.17044 
L 347.197112 231.859709 
L 347.847071 150.944058 
L 348.172051 124.592569 
L 348.82201 31.228297 
L 349.146989 55.879915 
L 349.471969 67.915645 
L 349.796948 56.682855 
L 350.121928 79.293536 
L 350.446908 147.425974 
L 350.771887 177.214671 
L 351.096867 187.366349 
L 351.421846 229.350454 
L 351.746826 247.611796 
L 352.071805 258.075404 
L 353.046744 132.900611 
L 353.371723 140.620104 
L 353.696703 60.223061 
L 354.021682 49.471705 
L 354.346662 21.457694 
L 354.671641 30.330538 
L 354.996621 69.083282 
L 355.3216 66.860035 
L 355.64658 124.050788 
L 355.971559 142.972975 
L 356.621518 231.241087 
L 356.946498 220.40653 
L 357.271478 241.545969 
L 357.596457 242.714341 
L 357.921437 178.391103 
L 358.246416 162.640342 
L 358.896375 77.762855 
L 359.546334 50.818686 
L 359.871314 49.821187 
L 360.196293 37.085587 
L 361.496211 206.345418 
L 361.821191 241.79483 
L 362.14617 244.305671 
L 362.47115 232.391573 
L 362.796129 241.10745 
L 363.121109 193.249336 
L 363.446089 186.775142 
L 363.771068 104.94483 
L 364.096048 67.599164 
L 364.421027 65.778956 
L 364.746007 27.409237 
L 365.070986 38.718327 
L 365.395966 74.462954 
L 365.720945 87.411279 
L 366.045925 94.72136 
L 367.345843 249.751105 
L 367.670822 218.922666 
L 367.995802 227.417734 
L 368.320781 211.700551 
L 368.645761 187.109009 
L 369.29572 80.012134 
L 369.620699 45.013085 
L 369.945679 31.59531 
L 370.270659 30.24238 
L 370.595638 39.78767 
L 370.920618 97.657554 
L 371.245597 116.203259 
L 371.570577 169.866523 
L 371.895556 164.319733 
L 372.220536 193.299214 
L 372.545515 234.284208 
L 372.870495 245.284661 
L 373.195474 250.428731 
L 373.520454 223.809735 
L 373.845433 179.130781 
L 374.170413 149.82253 
L 374.495392 92.497684 
L 374.820372 82.272127 
L 375.145351 40.179392 
L 375.470331 31.421415 
L 375.79531 70.574031 
L 376.12029 76.743437 
L 376.770249 165.814648 
L 377.095229 159.488896 
L 377.420208 207.834053 
L 377.745188 211.37548 
L 378.070167 232.308052 
L 378.395147 206.783369 
L 378.720126 210.915313 
L 379.045106 159.521491 
L 379.370085 144.785568 
L 379.370085 144.785568 
" clip-path="url(#pe9f9413239)" style="fill: none; stroke: #1f77b4; stroke-width: 1.5; stroke-linecap: square"/>
   </g>
   <g id="patch_3">
    <path d="M 38.482813 273.312 
L 38.482813 7.2 
" style="fill: none; stroke: #000000; stroke-width: 0.8; stroke-linejoin: miter; stroke-linecap: square"/>
   </g>
   <g id="patch_4">
    <path d="M 395.602813 273.312 
L 395.602813 7.2 
" style="fill: none; stroke: #000000; stroke-width: 0.8; stroke-linejoin: miter; stroke-linecap: square"/>
   </g>
   <g id="patch_5">
    <path d="M 38.482813 273.312 
L 395.602813 273.312 
" style="fill: none; stroke: #000000; stroke-width: 0.8; stroke-linejoin: miter; stroke-linecap: square"/>
   </g>
   <g id="patch_6">
    <path d="M 38.482813 7.2 
L 395.602813 7.2 
" style="fill: none; stroke: #000000; stroke-width: 0.8; stroke-linejoin: miter; stroke-linecap: square"/>
   </g>
  </g>
 </g>
 <defs>
  <clipPath id="pe9f9413239">
   <rect x="38.482813" y="7.2" width="357.12" height="266.112"/>
  </clipPath>
 </defs>
</svg>