<svg xmlns="http://www.w3.org/2000/svg" xmlns:rdkit="http://www.rdkit.org/xml" xmlns:xlink="http://www.w3.org/1999/xlink" version="1.1" baseProfile="full" xml:space="preserve" width="600px" height="200px" viewBox="0 0 600 200">
<!-- END OF HEADER -->
<rect style="opacity:1.0;fill:#FFFFFF;stroke:none" width="600.0" height="200.0" x="0.0" y="0.0"> </rect>
<path class="bond-0 atom-1 atom-0" d="M 132.4,109.8 L 190.9,137.9 L 186.1,146.3 Z" style="fill:#000000;fill-rule:evenodd;fill-opacity:1;stroke:#000000;stroke-width:0.5px;stroke-linecap:butt;stroke-linejoin:miter;stroke-opacity:1;"/>
<path class="bond-1 atom-1 atom-2" d="M 132.4,109.8 L 100.0,53.7" style="fill:none;fill-rule:evenodd;stroke:#000000;stroke-width:2.0px;stroke-linecap:butt;stroke-linejoin:miter;stroke-opacity:1"/>
<path class="bond-2 atom-2 atom-3" d="M 100.0,53.7 L 67.6,109.8" style="fill:none;fill-rule:evenodd;stroke:#000000;stroke-width:2.0px;stroke-linecap:butt;stroke-linejoin:miter;stroke-opacity:1"/>
<path class="bond-3 atom-3 atom-4" d="M 67.6,109.8 L 13.9,146.3 L 9.1,137.9 Z" style="fill:#000000;fill-rule:evenodd;fill-opacity:1;stroke:#000000;stroke-width:0.5px;stroke-linecap:butt;stroke-linejoin:miter;stroke-opacity:1;"/>
<path class="bond-4 atom-3 atom-1" d="M 67.6,109.8 L 132.4,109.8" style="fill:none;fill-rule:evenodd;stroke:#000000;stroke-width:2.0px;stroke-linecap:butt;stroke-linejoin:miter;stroke-opacity:1"/>
<path d="M 130.8,106.9 L 132.4,109.8 L 129.1,109.8" style="fill:none;stroke:#000000;stroke-width:2.0px;stroke-linecap:butt;stroke-linejoin:miter;stroke-opacity:1;"/>
<path d="M 101.6,56.5 L 100.0,53.7 L 98.4,56.5" style="fill:none;stroke:#000000;stroke-width:2.0px;stroke-linecap:butt;stroke-linejoin:miter;stroke-opacity:1;"/>
<path d="M 69.2,106.9 L 67.6,109.8 L 70.9,109.8" style="fill:none;stroke:#000000;stroke-width:2.0px;stroke-linecap:butt;stroke-linejoin:miter;stroke-opacity:1;"/>
<path class="note" d="M 118.0 118.8 Q 118.0 117.0, 118.6 115.4 Q 119.1 113.9, 120.2 112.3 L 120.9 112.7 Q 120.0 114.3, 119.6 115.7 Q 119.2 117.0, 119.2 118.8 Q 119.2 120.6, 119.6 122.0 Q 120.0 123.3, 120.9 124.9 L 120.2 125.4 Q 119.1 123.7, 118.6 122.2 Q 118.0 120.7, 118.0 118.8 " fill="#000000"/>
<path class="note" d="M 126.6 122.5 L 124.3 118.7 L 124.3 118.7 L 122.8 118.7 L 122.8 122.5 L 121.6 122.5 L 121.6 113.3 L 124.3 113.3 Q 125.9 113.3, 126.7 114.1 Q 127.5 114.8, 127.5 116.0 Q 127.5 117.0, 127.0 117.7 Q 126.5 118.3, 125.6 118.6 L 127.9 122.5 L 126.6 122.5 M 122.8 117.7 L 124.3 117.7 Q 125.2 117.7, 125.7 117.3 Q 126.2 116.9, 126.2 116.0 Q 126.2 115.2, 125.7 114.8 Q 125.2 114.4, 124.3 114.4 L 122.8 114.4 L 122.8 117.7 " fill="#000000"/>
<path class="note" d="M 131.5 118.8 Q 131.5 120.7, 130.9 122.2 Q 130.4 123.7, 129.4 125.4 L 128.6 124.9 Q 129.5 123.3, 129.9 122.0 Q 130.3 120.6, 130.3 118.8 Q 130.3 117.0, 129.9 115.7 Q 129.5 114.3, 128.6 112.7 L 129.4 112.3 Q 130.4 113.9, 130.9 115.4 Q 131.5 117.0, 131.5 118.8 " fill="#000000"/>
<path class="note" d="M 68.6 118.8 Q 68.6 117.0, 69.1 115.4 Q 69.7 113.9, 70.7 112.3 L 71.5 112.7 Q 70.6 114.3, 70.2 115.7 Q 69.8 117.0, 69.8 118.8 Q 69.8 120.6, 70.2 122.0 Q 70.6 123.3, 71.5 124.9 L 70.7 125.4 Q 69.7 123.7, 69.1 122.2 Q 68.6 120.7, 68.6 118.8 " fill="#000000"/>
<path class="note" d="M 72.5 121.1 Q 72.6 121.1, 73.0 121.3 Q 73.5 121.5, 73.9 121.6 Q 74.4 121.7, 74.9 121.7 Q 75.8 121.7, 76.3 121.3 Q 76.8 120.9, 76.8 120.1 Q 76.8 119.6, 76.5 119.3 Q 76.3 119.0, 75.9 118.8 Q 75.5 118.7, 74.8 118.5 Q 74.0 118.2, 73.5 118.0 Q 73.0 117.8, 72.7 117.3 Q 72.4 116.8, 72.4 115.9 Q 72.4 114.8, 73.1 114.1 Q 73.9 113.4, 75.5 113.4 Q 76.5 113.4, 77.7 113.9 L 77.4 114.9 Q 76.3 114.4, 75.5 114.4 Q 74.6 114.4, 74.1 114.8 Q 73.6 115.2, 73.7 115.8 Q 73.7 116.3, 73.9 116.6 Q 74.2 116.9, 74.5 117.0 Q 74.9 117.2, 75.5 117.4 Q 76.3 117.7, 76.8 117.9 Q 77.3 118.2, 77.7 118.7 Q 78.0 119.2, 78.0 120.1 Q 78.0 121.4, 77.2 122.1 Q 76.3 122.8, 74.9 122.8 Q 74.1 122.8, 73.5 122.6 Q 72.9 122.4, 72.2 122.1 L 72.5 121.1 " fill="#000000"/>
<path class="note" d="M 81.9 118.8 Q 81.9 120.7, 81.3 122.2 Q 80.8 123.7, 79.8 125.4 L 79.0 124.9 Q 79.9 123.3, 80.3 122.0 Q 80.7 120.6, 80.7 118.8 Q 80.7 117.0, 80.3 115.7 Q 79.9 114.3, 79.0 112.7 L 79.8 112.3 Q 80.8 113.9, 81.3 115.4 Q 81.9 117.0, 81.9 118.8 " fill="#000000"/>
<path class="bond-0 atom-1 atom-0" d="M 335.5,111.2 L 335.2,111.7" style="fill:none;fill-rule:evenodd;stroke:#000000;stroke-width:1.0px;stroke-linecap:butt;stroke-linejoin:miter;stroke-opacity:1"/>
<path class="bond-0 atom-1 atom-0" d="M 338.5,112.7 L 338.0,113.6" style="fill:none;fill-rule:evenodd;stroke:#000000;stroke-width:1.0px;stroke-linecap:butt;stroke-linejoin:miter;stroke-opacity:1"/>
<path class="bond-0 atom-1 atom-0" d="M 341.6,114.2 L 340.9,115.5" style="fill:none;fill-rule:evenodd;stroke:#000000;stroke-width:1.0px;stroke-linecap:butt;stroke-linejoin:miter;stroke-opacity:1"/>
<path class="bond-0 atom-1 atom-0" d="M 344.7,115.7 L 343.7,117.5" style="fill:none;fill-rule:evenodd;stroke:#000000;stroke-width:1.0px;stroke-linecap:butt;stroke-linejoin:miter;stroke-opacity:1"/>
<path class="bond-0 atom-1 atom-0" d="M 347.8,117.2 L 346.5,119.4" style="fill:none;fill-rule:evenodd;stroke:#000000;stroke-width:1.0px;stroke-linecap:butt;stroke-linejoin:miter;stroke-opacity:1"/>
<path class="bond-0 atom-1 atom-0" d="M 350.9,118.6 L 349.3,121.3" style="fill:none;fill-rule:evenodd;stroke:#000000;stroke-width:1.0px;stroke-linecap:butt;stroke-linejoin:miter;stroke-opacity:1"/>
<path class="bond-0 atom-1 atom-0" d="M 353.9,120.1 L 352.2,123.2" style="fill:none;fill-rule:evenodd;stroke:#000000;stroke-width:1.0px;stroke-linecap:butt;stroke-linejoin:miter;stroke-opacity:1"/>
<path class="bond-0 atom-1 atom-0" d="M 357.0,121.6 L 355.0,125.2" style="fill:none;fill-rule:evenodd;stroke:#000000;stroke-width:1.0px;stroke-linecap:butt;stroke-linejoin:miter;stroke-opacity:1"/>
<path class="bond-0 atom-1 atom-0" d="M 360.1,123.1 L 357.8,127.1" style="fill:none;fill-rule:evenodd;stroke:#000000;stroke-width:1.0px;stroke-linecap:butt;stroke-linejoin:miter;stroke-opacity:1"/>
<path class="bond-0 atom-1 atom-0" d="M 363.2,124.6 L 360.6,129.0" style="fill:none;fill-rule:evenodd;stroke:#000000;stroke-width:1.0px;stroke-linecap:butt;stroke-linejoin:miter;stroke-opacity:1"/>
<path class="bond-0 atom-1 atom-0" d="M 366.3,126.1 L 363.5,130.9" style="fill:none;fill-rule:evenodd;stroke:#000000;stroke-width:1.0px;stroke-linecap:butt;stroke-linejoin:miter;stroke-opacity:1"/>
<path class="bond-0 atom-1 atom-0" d="M 369.3,127.5 L 366.3,132.9" style="fill:none;fill-rule:evenodd;stroke:#000000;stroke-width:1.0px;stroke-linecap:butt;stroke-linejoin:miter;stroke-opacity:1"/>
<path class="bond-0 atom-1 atom-0" d="M 372.4,129.0 L 369.1,134.8" style="fill:none;fill-rule:evenodd;stroke:#000000;stroke-width:1.0px;stroke-linecap:butt;stroke-linejoin:miter;stroke-opacity:1"/>
<path class="bond-0 atom-1 atom-0" d="M 375.5,130.5 L 371.9,136.7" style="fill:none;fill-rule:evenodd;stroke:#000000;stroke-width:1.0px;stroke-linecap:butt;stroke-linejoin:miter;stroke-opacity:1"/>
<path class="bond-0 atom-1 atom-0" d="M 378.6,132.0 L 374.8,138.6" style="fill:none;fill-rule:evenodd;stroke:#000000;stroke-width:1.0px;stroke-linecap:butt;stroke-linejoin:miter;stroke-opacity:1"/>
<path class="bond-0 atom-1 atom-0" d="M 381.7,133.5 L 377.6,140.6" style="fill:none;fill-rule:evenodd;stroke:#000000;stroke-width:1.0px;stroke-linecap:butt;stroke-linejoin:miter;stroke-opacity:1"/>
<path class="bond-0 atom-1 atom-0" d="M 384.7,135.0 L 380.4,142.5" style="fill:none;fill-rule:evenodd;stroke:#000000;stroke-width:1.0px;stroke-linecap:butt;stroke-linejoin:miter;stroke-opacity:1"/>
<path class="bond-0 atom-1 atom-0" d="M 387.8,136.4 L 383.2,144.4" style="fill:none;fill-rule:evenodd;stroke:#000000;stroke-width:1.0px;stroke-linecap:butt;stroke-linejoin:miter;stroke-opacity:1"/>
<path class="bond-0 atom-1 atom-0" d="M 390.9,137.9 L 386.1,146.3" style="fill:none;fill-rule:evenodd;stroke:#000000;stroke-width:1.0px;stroke-linecap:butt;stroke-linejoin:miter;stroke-opacity:1"/>
<path class="bond-1 atom-1 atom-2" d="M 332.4,109.8 L 300.0,53.7" style="fill:none;fill-rule:evenodd;stroke:#000000;stroke-width:2.0px;stroke-linecap:butt;stroke-linejoin:miter;stroke-opacity:1"/>
<path class="bond-2 atom-2 atom-3" d="M 300.0,53.7 L 267.6,109.8" style="fill:none;fill-rule:evenodd;stroke:#000000;stroke-width:2.0px;stroke-linecap:butt;stroke-linejoin:miter;stroke-opacity:1"/>
<path class="bond-3 atom-3 atom-4" d="M 267.6,109.8 L 213.9,146.3 L 209.1,137.9 Z" style="fill:#000000;fill-rule:evenodd;fill-opacity:1;stroke:#000000;stroke-width:0.5px;stroke-linecap:butt;stroke-linejoin:miter;stroke-opacity:1;"/>
<path class="bond-4 atom-3 atom-1" d="M 267.6,109.8 L 332.4,109.8" style="fill:none;fill-rule:evenodd;stroke:#000000;stroke-width:2.0px;stroke-linecap:butt;stroke-linejoin:miter;stroke-opacity:1"/>
<path d="M 330.8,106.9 L 332.4,109.8 L 329.1,109.8" style="fill:none;stroke:#000000;stroke-width:2.0px;stroke-linecap:butt;stroke-linejoin:miter;stroke-opacity:1;"/>
<path d="M 301.6,56.5 L 300.0,53.7 L 298.4,56.5" style="fill:none;stroke:#000000;stroke-width:2.0px;stroke-linecap:butt;stroke-linejoin:miter;stroke-opacity:1;"/>
<path d="M 269.2,106.9 L 267.6,109.8 L 270.9,109.8" style="fill:none;stroke:#000000;stroke-width:2.0px;stroke-linecap:butt;stroke-linejoin:miter;stroke-opacity:1;"/>
<path class="note" d="M 318.1 118.8 Q 318.1 117.0, 318.6 115.4 Q 319.2 113.9, 320.2 112.3 L 321.0 112.7 Q 320.1 114.3, 319.7 115.7 Q 319.3 117.0, 319.3 118.8 Q 319.3 120.6, 319.7 122.0 Q 320.1 123.3, 321.0 124.9 L 320.2 125.4 Q 319.2 123.7, 318.6 122.2 Q 318.1 120.7, 318.1 118.8 " fill="#000000"/>
<path class="note" d="M 322.0 121.1 Q 322.1 121.1, 322.6 121.3 Q 323.0 121.5, 323.4 121.6 Q 323.9 121.7, 324.4 121.7 Q 325.3 121.7, 325.8 121.3 Q 326.3 120.9, 326.3 120.1 Q 326.3 119.6, 326.0 119.3 Q 325.8 119.0, 325.4 118.8 Q 325.0 118.7, 324.3 118.5 Q 323.5 118.2, 323.0 118.0 Q 322.6 117.8, 322.2 117.3 Q 321.9 116.8, 321.9 115.9 Q 321.9 114.8, 322.6 114.1 Q 323.4 113.4, 325.0 113.4 Q 326.0 113.4, 327.3 113.9 L 327.0 114.9 Q 325.9 114.4, 325.0 114.4 Q 324.1 114.4, 323.6 114.8 Q 323.1 115.2, 323.2 115.8 Q 323.2 116.3, 323.4 116.6 Q 323.7 116.9, 324.0 117.0 Q 324.4 117.2, 325.0 117.4 Q 325.9 117.7, 326.3 117.9 Q 326.8 118.2, 327.2 118.7 Q 327.6 119.2, 327.6 120.1 Q 327.6 121.4, 326.7 122.1 Q 325.9 122.8, 324.4 122.8 Q 323.6 122.8, 323.0 122.6 Q 322.4 122.4, 321.7 122.1 L 322.0 121.1 " fill="#000000"/>
<path class="note" d="M 331.4 118.8 Q 331.4 120.7, 330.9 122.2 Q 330.3 123.7, 329.3 125.4 L 328.5 124.9 Q 329.4 123.3, 329.8 122.0 Q 330.2 120.6, 330.2 118.8 Q 330.2 117.0, 329.8 115.7 Q 329.4 114.3, 328.5 112.7 L 329.3 112.3 Q 330.3 113.9, 330.9 115.4 Q 331.4 117.0, 331.4 118.8 " fill="#000000"/>
<path class="note" d="M 268.6 118.8 Q 268.6 117.0, 269.1 115.4 Q 269.7 113.9, 270.7 112.3 L 271.5 112.7 Q 270.6 114.3, 270.2 115.7 Q 269.8 117.0, 269.8 118.8 Q 269.8 120.6, 270.2 122.0 Q 270.6 123.3, 271.5 124.9 L 270.7 125.4 Q 269.7 123.7, 269.1 122.2 Q 268.6 120.7, 268.6 118.8 " fill="#000000"/>
<path class="note" d="M 272.5 121.1 Q 272.6 121.1, 273.0 121.3 Q 273.5 121.5, 273.9 121.6 Q 274.4 121.7, 274.9 121.7 Q 275.8 121.7, 276.3 121.3 Q 276.8 120.9, 276.8 120.1 Q 276.8 119.6, 276.5 119.3 Q 276.3 119.0, 275.9 118.8 Q 275.5 118.7, 274.8 118.5 Q 274.0 118.2, 273.5 118.0 Q 273.0 117.8, 272.7 117.3 Q 272.4 116.8, 272.4 115.9 Q 272.4 114.8, 273.1 114.1 Q 273.9 113.4, 275.5 113.4 Q 276.5 113.4, 277.7 113.9 L 277.4 114.9 Q 276.3 114.4, 275.5 114.4 Q 274.6 114.4, 274.1 114.8 Q 273.6 115.2, 273.7 115.8 Q 273.7 116.3, 273.9 116.6 Q 274.2 116.9, 274.5 117.0 Q 274.9 117.2, 275.5 117.4 Q 276.3 117.7, 276.8 117.9 Q 277.3 118.2, 277.7 118.7 Q 278.0 119.2, 278.0 120.1 Q 278.0 121.4, 277.2 122.1 Q 276.3 122.8, 274.9 122.8 Q 274.1 122.8, 273.5 122.6 Q 272.9 122.4, 272.2 122.1 L 272.5 121.1 " fill="#000000"/>
<path class="note" d="M 281.9 118.8 Q 281.9 120.7, 281.3 122.2 Q 280.8 123.7, 279.8 125.4 L 279.0 124.9 Q 279.9 123.3, 280.3 122.0 Q 280.7 120.6, 280.7 118.8 Q 280.7 117.0, 280.3 115.7 Q 279.9 114.3, 279.0 112.7 L 279.8 112.3 Q 280.8 113.9, 281.3 115.4 Q 281.9 117.0, 281.9 118.8 " fill="#000000"/>
<path class="bond-0 atom-1 atom-0" d="M 532.4,109.8 L 590.9,137.9 L 586.1,146.3 Z" style="fill:#000000;fill-rule:evenodd;fill-opacity:1;stroke:#000000;stroke-width:0.5px;stroke-linecap:butt;stroke-linejoin:miter;stroke-opacity:1;"/>
<path class="bond-1 atom-1 atom-2" d="M 532.4,109.8 L 500.0,53.7" style="fill:none;fill-rule:evenodd;stroke:#000000;stroke-width:2.0px;stroke-linecap:butt;stroke-linejoin:miter;stroke-opacity:1"/>
<path class="bond-2 atom-2 atom-3" d="M 500.0,53.7 L 467.6,109.8" style="fill:none;fill-rule:evenodd;stroke:#000000;stroke-width:2.0px;stroke-linecap:butt;stroke-linejoin:miter;stroke-opacity:1"/>
<path class="bond-3 atom-3 atom-4" d="M 464.8,111.7 L 464.5,111.2" style="fill:none;fill-rule:evenodd;stroke:#000000;stroke-width:1.0px;stroke-linecap:butt;stroke-linejoin:miter;stroke-opacity:1"/>
<path class="bond-3 atom-3 atom-4" d="M 462.0,113.6 L 461.5,112.7" style="fill:none;fill-rule:evenodd;stroke:#000000;stroke-width:1.0px;stroke-linecap:butt;stroke-linejoin:miter;stroke-opacity:1"/>
<path class="bond-3 atom-3 atom-4" d="M 459.1,115.5 L 458.4,114.2" style="fill:none;fill-rule:evenodd;stroke:#000000;stroke-width:1.0px;stroke-linecap:butt;stroke-linejoin:miter;stroke-opacity:1"/>
<path class="bond-3 atom-3 atom-4" d="M 456.3,117.5 L 455.3,115.7" style="fill:none;fill-rule:evenodd;stroke:#000000;stroke-width:1.0px;stroke-linecap:butt;stroke-linejoin:miter;stroke-opacity:1"/>
<path class="bond-3 atom-3 atom-4" d="M 453.5,119.4 L 452.2,117.2" style="fill:none;fill-rule:evenodd;stroke:#000000;stroke-width:1.0px;stroke-linecap:butt;stroke-linejoin:miter;stroke-opacity:1"/>
<path class="bond-3 atom-3 atom-4" d="M 450.7,121.3 L 449.1,118.6" style="fill:none;fill-rule:evenodd;stroke:#000000;stroke-width:1.0px;stroke-linecap:butt;stroke-linejoin:miter;stroke-opacity:1"/>
<path class="bond-3 atom-3 atom-4" d="M 447.8,123.2 L 446.1,120.1" style="fill:none;fill-rule:evenodd;stroke:#000000;stroke-width:1.0px;stroke-linecap:butt;stroke-linejoin:miter;stroke-opacity:1"/>
<path class="bond-3 atom-3 atom-4" d="M 445.0,125.2 L 443.0,121.6" style="fill:none;fill-rule:evenodd;stroke:#000000;stroke-width:1.0px;stroke-linecap:butt;stroke-linejoin:miter;stroke-opacity:1"/>
<path class="bond-3 atom-3 atom-4" d="M 442.2,127.1 L 439.9,123.1" style="fill:none;fill-rule:evenodd;stroke:#000000;stroke-width:1.0px;stroke-linecap:butt;stroke-linejoin:miter;stroke-opacity:1"/>
<path class="bond-3 atom-3 atom-4" d="M 439.4,129.0 L 436.8,124.6" style="fill:none;fill-rule:evenodd;stroke:#000000;stroke-width:1.0px;stroke-linecap:butt;stroke-linejoin:miter;stroke-opacity:1"/>
<path class="bond-3 atom-3 atom-4" d="M 436.5,130.9 L 433.7,126.1" style="fill:none;fill-rule:evenodd;stroke:#000000;stroke-width:1.0px;stroke-linecap:butt;stroke-linejoin:miter;stroke-opacity:1"/>
<path class="bond-3 atom-3 atom-4" d="M 433.7,132.9 L 430.7,127.5" style="fill:none;fill-rule:evenodd;stroke:#000000;stroke-width:1.0px;stroke-linecap:butt;stroke-linejoin:miter;stroke-opacity:1"/>
<path class="bond-3 atom-3 atom-4" d="M 430.9,134.8 L 427.6,129.0" style="fill:none;fill-rule:evenodd;stroke:#000000;stroke-width:1.0px;stroke-linecap:butt;stroke-linejoin:miter;stroke-opacity:1"/>
<path class="bond-3 atom-3 atom-4" d="M 428.1,136.7 L 424.5,130.5" style="fill:none;fill-rule:evenodd;stroke:#000000;stroke-width:1.0px;stroke-linecap:butt;stroke-linejoin:miter;stroke-opacity:1"/>
<path class="bond-3 atom-3 atom-4" d="M 425.2,138.6 L 421.4,132.0" style="fill:none;fill-rule:evenodd;stroke:#000000;stroke-width:1.0px;stroke-linecap:butt;stroke-linejoin:miter;stroke-opacity:1"/>
<path class="bond-3 atom-3 atom-4" d="M 422.4,140.6 L 418.3,133.5" style="fill:none;fill-rule:evenodd;stroke:#000000;stroke-width:1.0px;stroke-linecap:butt;stroke-linejoin:miter;stroke-opacity:1"/>
<path class="bond-3 atom-3 atom-4" d="M 419.6,142.5 L 415.3,135.0" style="fill:none;fill-rule:evenodd;stroke:#000000;stroke-width:1.0px;stroke-linecap:butt;stroke-linejoin:miter;stroke-opacity:1"/>
<path class="bond-3 atom-3 atom-4" d="M 416.8,144.4 L 412.2,136.4" style="fill:none;fill-rule:evenodd;stroke:#000000;stroke-width:1.0px;stroke-linecap:butt;stroke-linejoin:miter;stroke-opacity:1"/>
<path class="bond-3 atom-3 atom-4" d="M 413.9,146.3 L 409.1,137.9" style="fill:none;fill-rule:evenodd;stroke:#000000;stroke-width:1.0px;stroke-linecap:butt;stroke-linejoin:miter;stroke-opacity:1"/>
<path class="bond-4 atom-3 atom-1" d="M 467.6,109.8 L 532.4,109.8" style="fill:none;fill-rule:evenodd;stroke:#000000;stroke-width:2.0px;stroke-linecap:butt;stroke-linejoin:miter;stroke-opacity:1"/>
<path d="M 530.8,106.9 L 532.4,109.8 L 529.1,109.8" style="fill:none;stroke:#000000;stroke-width:2.0px;stroke-linecap:butt;stroke-linejoin:miter;stroke-opacity:1;"/>
<path d="M 501.6,56.5 L 500.0,53.7 L 498.4,56.5" style="fill:none;stroke:#000000;stroke-width:2.0px;stroke-linecap:butt;stroke-linejoin:miter;stroke-opacity:1;"/>
<path d="M 469.2,106.9 L 467.6,109.8 L 470.9,109.8" style="fill:none;stroke:#000000;stroke-width:2.0px;stroke-linecap:butt;stroke-linejoin:miter;stroke-opacity:1;"/>
<path class="note" d="M 518.0 118.8 Q 518.0 117.0, 518.6 115.4 Q 519.1 113.9, 520.2 112.3 L 520.9 112.7 Q 520.0 114.3, 519.6 115.7 Q 519.2 117.0, 519.2 118.8 Q 519.2 120.6, 519.6 122.0 Q 520.0 123.3, 520.9 124.9 L 520.2 125.4 Q 519.1 123.7, 518.6 122.2 Q 518.0 120.7, 518.0 118.8 " fill="#000000"/>
<path class="note" d="M 526.6 122.5 L 524.3 118.7 L 524.3 118.7 L 522.8 118.7 L 522.8 122.5 L 521.6 122.5 L 521.6 113.3 L 524.3 113.3 Q 525.9 113.3, 526.7 114.1 Q 527.5 114.8, 527.5 116.0 Q 527.5 117.0, 527.0 117.7 Q 526.5 118.3, 525.6 118.6 L 527.9 122.5 L 526.6 122.5 M 522.8 117.7 L 524.3 117.7 Q 525.2 117.7, 525.7 117.3 Q 526.2 116.9, 526.2 116.0 Q 526.2 115.2, 525.7 114.8 Q 525.2 114.4, 524.3 114.4 L 522.8 114.4 L 522.8 117.7 " fill="#000000"/>
<path class="note" d="M 531.5 118.8 Q 531.5 120.7, 530.9 122.2 Q 530.4 123.7, 529.4 125.4 L 528.6 124.9 Q 529.5 123.3, 529.9 122.0 Q 530.3 120.6, 530.3 118.8 Q 530.3 117.0, 529.9 115.7 Q 529.5 114.3, 528.6 112.7 L 529.4 112.3 Q 530.4 113.9, 530.9 115.4 Q 531.5 117.0, 531.5 118.8 " fill="#000000"/>
<path class="note" d="M 468.5 118.8 Q 468.5 117.0, 469.1 115.4 Q 469.6 113.9, 470.6 112.3 L 471.4 112.7 Q 470.5 114.3, 470.1 115.7 Q 469.7 117.0, 469.7 118.8 Q 469.7 120.6, 470.1 122.0 Q 470.5 123.3, 471.4 124.9 L 470.6 125.4 Q 469.6 123.7, 469.1 122.2 Q 468.5 120.7, 468.5 118.8 " fill="#000000"/>
<path class="note" d="M 477.0 122.5 L 474.8 118.7 L 474.8 118.7 L 473.3 118.7 L 473.3 122.5 L 472.1 122.5 L 472.1 113.3 L 474.8 113.3 Q 476.4 113.3, 477.2 114.1 Q 478.0 114.8, 478.0 116.0 Q 478.0 117.0, 477.5 117.7 Q 477.0 118.3, 476.1 118.6 L 478.4 122.5 L 477.0 122.5 M 473.3 117.7 L 474.8 117.7 Q 475.7 117.7, 476.2 117.3 Q 476.7 116.9, 476.7 116.0 Q 476.7 115.2, 476.2 114.8 Q 475.7 114.4, 474.8 114.4 L 473.3 114.4 L 473.3 117.7 " fill="#000000"/>
<path class="note" d="M 482.0 118.8 Q 482.0 120.7, 481.4 122.2 Q 480.9 123.7, 479.8 125.4 L 479.1 124.9 Q 480.0 123.3, 480.4 122.0 Q 480.8 120.6, 480.8 118.8 Q 480.8 117.0, 480.4 115.7 Q 480.0 114.3, 479.1 112.7 L 479.8 112.3 Q 480.9 113.9, 481.4 115.4 Q 482.0 117.0, 482.0 118.8 " fill="#000000"/>
</svg>