<?xml version="1.0" encoding="utf-8" standalone="no"?>
<!DOCTYPE svg PUBLIC "-//W3C//DTD SVG 1.1//EN"
  "http://www.w3.org/Graphics/SVG/1.1/DTD/svg11.dtd">
<svg xmlns:xlink="http://www.w3.org/1999/xlink" width="411.285625pt" height="310.86825pt" viewBox="0 0 411.285625 310.86825" xmlns="http://www.w3.org/2000/svg" version="1.1">
 <metadata>
  <rdf:RDF xmlns:dc="http://purl.org/dc/elements/1.1/" xmlns:cc="http://creativecommons.org/ns#" xmlns:rdf="http://www.w3.org/1999/02/22-rdf-syntax-ns#">
   <cc:Work>
    <dc:type rdf:resource="http://purl.org/dc/dcmitype/StillImage"/>
    <dc:date>2025-07-03T14:18:57.980066</dc:date>
    <dc:format>image/svg+xml</dc:format>
    <dc:creator>
     <cc:Agent>
      <dc:title>Matplotlib v3.10.3, https://matplotlib.org/</dc:title>
     </cc:Agent>
    </dc:creator>
   </cc:Work>
  </rdf:RDF>
 </metadata>
 <defs>
  <style type="text/css">*{stroke-linejoin: round; stroke-linecap: butt}</style>
 </defs>
 <g id="figure_1">
  <g id="patch_1">
   <path d="M 0 310.86825 
L 411.285625 310.86825 
L 411.285625 0 
L 0 0 
z
" style="fill: #ffffff"/>
  </g>
  <g id="axes_1">
   <g id="patch_2">
    <path d="M 46.965625 273.312 
L 404.085625 273.312 
L 404.085625 7.2 
L 46.965625 7.2 
z
" style="fill: #ffffff"/>
   </g>
   <g id="PathCollection_1">
    <defs>
     <path id="m17506048fa" d="M 0 3 
C 0.795609 3 1.55874 2.683901 2.12132 2.12132 
C 2.683901 1.55874 3 0.795609 3 0 
C 3 -0.795609 2.683901 -1.55874 2.12132 -2.12132 
C 1.55874 -2.683901 0.795609 -3 0 -3 
C -0.795609 -3 -1.55874 -2.683901 -2.12132 -2.12132 
C -2.683901 -1.55874 -3 -0.795609 -3 0 
C -3 0.795609 -2.683901 1.55874 -2.12132 2.12132 
C -1.55874 2.683901 -0.795609 3 0 3 
z
" style="stroke: #1f77b4; stroke-opacity: 0.8"/>
    </defs>
    <g clip-path="url(#pda5e0f1ff8)">
     <use xlink:href="#m17506048fa" x="63.198352" y="196.796537" style="fill: #1f77b4; fill-opacity: 0.8; stroke: #1f77b4; stroke-opacity: 0.8"/>
     <use xlink:href="#m17506048fa" x="96.1333" y="184.416027" style="fill: #1f77b4; fill-opacity: 0.8; stroke: #1f77b4; stroke-opacity: 0.8"/>
     <use xlink:href="#m17506048fa" x="129.068248" y="165.369087" style="fill: #1f77b4; fill-opacity: 0.8; stroke: #1f77b4; stroke-opacity: 0.8"/>
     <use xlink:href="#m17506048fa" x="161.979721" y="146.322148" style="fill: #1f77b4; fill-opacity: 0.8; stroke: #1f77b4; stroke-opacity: 0.8"/>
     <use xlink:href="#m17506048fa" x="194.914669" y="126.322861" style="fill: #1f77b4; fill-opacity: 0.8; stroke: #1f77b4; stroke-opacity: 0.8"/>
     <use xlink:href="#m17506048fa" x="227.849616" y="109.180615" style="fill: #1f77b4; fill-opacity: 0.8; stroke: #1f77b4; stroke-opacity: 0.8"/>
     <use xlink:href="#m17506048fa" x="260.761089" y="91.086023" style="fill: #1f77b4; fill-opacity: 0.8; stroke: #1f77b4; stroke-opacity: 0.8"/>
     <use xlink:href="#m17506048fa" x="293.696037" y="72.99143" style="fill: #1f77b4; fill-opacity: 0.8; stroke: #1f77b4; stroke-opacity: 0.8"/>
     <use xlink:href="#m17506048fa" x="326.60751" y="56.801532" style="fill: #1f77b4; fill-opacity: 0.8; stroke: #1f77b4; stroke-opacity: 0.8"/>
     <use xlink:href="#m17506048fa" x="359.542458" y="37.754592" style="fill: #1f77b4; fill-opacity: 0.8; stroke: #1f77b4; stroke-opacity: 0.8"/>
     <use xlink:href="#m17506048fa" x="157.355213" y="224.4146" style="fill: #1f77b4; fill-opacity: 0.8; stroke: #1f77b4; stroke-opacity: 0.8"/>
     <use xlink:href="#m17506048fa" x="190.290161" y="192.98715" style="fill: #1f77b4; fill-opacity: 0.8; stroke: #1f77b4; stroke-opacity: 0.8"/>
     <use xlink:href="#m17506048fa" x="223.225108" y="165.369087" style="fill: #1f77b4; fill-opacity: 0.8; stroke: #1f77b4; stroke-opacity: 0.8"/>
     <use xlink:href="#m17506048fa" x="256.136581" y="138.703372" style="fill: #1f77b4; fill-opacity: 0.8; stroke: #1f77b4; stroke-opacity: 0.8"/>
     <use xlink:href="#m17506048fa" x="289.071529" y="114.894697" style="fill: #1f77b4; fill-opacity: 0.8; stroke: #1f77b4; stroke-opacity: 0.8"/>
     <use xlink:href="#m17506048fa" x="322.006477" y="92.990717" style="fill: #1f77b4; fill-opacity: 0.8; stroke: #1f77b4; stroke-opacity: 0.8"/>
     <use xlink:href="#m17506048fa" x="354.91795" y="72.039083" style="fill: #1f77b4; fill-opacity: 0.8; stroke: #1f77b4; stroke-opacity: 0.8"/>
     <use xlink:href="#m17506048fa" x="387.852898" y="52.992144" style="fill: #1f77b4; fill-opacity: 0.8; stroke: #1f77b4; stroke-opacity: 0.8"/>
     <use xlink:href="#m17506048fa" x="190.290161" y="198.701231" style="fill: #1f77b4; fill-opacity: 0.8; stroke: #1f77b4; stroke-opacity: 0.8"/>
     <use xlink:href="#m17506048fa" x="256.136581" y="147.274495" style="fill: #1f77b4; fill-opacity: 0.8; stroke: #1f77b4; stroke-opacity: 0.8"/>
     <use xlink:href="#m17506048fa" x="157.355213" y="232.033376" style="fill: #1f77b4; fill-opacity: 0.8; stroke: #1f77b4; stroke-opacity: 0.8"/>
     <use xlink:href="#m17506048fa" x="223.225108" y="182.511333" style="fill: #1f77b4; fill-opacity: 0.8; stroke: #1f77b4; stroke-opacity: 0.8"/>
     <use xlink:href="#m17506048fa" x="161.979721" y="155.845617" style="fill: #1f77b4; fill-opacity: 0.8; stroke: #1f77b4; stroke-opacity: 0.8"/>
     <use xlink:href="#m17506048fa" x="161.979721" y="179.654292" style="fill: #1f77b4; fill-opacity: 0.8; stroke: #1f77b4; stroke-opacity: 0.8"/>
     <use xlink:href="#m17506048fa" x="194.914669" y="133.941637" style="fill: #1f77b4; fill-opacity: 0.8; stroke: #1f77b4; stroke-opacity: 0.8"/>
     <use xlink:href="#m17506048fa" x="227.849616" y="130.132249" style="fill: #1f77b4; fill-opacity: 0.8; stroke: #1f77b4; stroke-opacity: 0.8"/>
     <use xlink:href="#m17506048fa" x="260.761089" y="125.370514" style="fill: #1f77b4; fill-opacity: 0.8; stroke: #1f77b4; stroke-opacity: 0.8"/>
     <use xlink:href="#m17506048fa" x="208.905566" y="85.371941" style="fill: #1f77b4; fill-opacity: 0.8; stroke: #1f77b4; stroke-opacity: 0.8"/>
     <use xlink:href="#m17506048fa" x="241.840514" y="66.325001" style="fill: #1f77b4; fill-opacity: 0.8; stroke: #1f77b4; stroke-opacity: 0.8"/>
     <use xlink:href="#m17506048fa" x="307.686934" y="49.182756" style="fill: #1f77b4; fill-opacity: 0.8; stroke: #1f77b4; stroke-opacity: 0.8"/>
    </g>
   </g>
   <g id="FillBetweenPolyCollection_1">
    <path d="M 63.198352 202.892603 
L 63.198352 261.216 
L 66.477691 258.799955 
L 69.75703 256.38391 
L 73.036369 253.967864 
L 76.315708 251.551819 
L 79.595046 249.172383 
L 82.874385 246.922771 
L 86.153724 244.67316 
L 89.433063 242.423548 
L 92.712402 240.173937 
L 95.991741 237.924325 
L 99.27108 235.674713 
L 102.550418 233.425102 
L 105.829757 231.17549 
L 109.109096 228.925879 
L 112.388435 226.569048 
L 115.667774 224.191013 
L 118.947113 221.810402 
L 122.226451 219.429792 
L 125.50579 217.049182 
L 128.785129 214.668572 
L 132.064468 212.287961 
L 135.343807 209.882197 
L 138.623146 207.365173 
L 141.902485 204.847604 
L 145.181823 202.369755 
L 148.461162 200.069629 
L 151.740501 197.679754 
L 155.01984 195.340725 
L 158.299179 193.014022 
L 161.578518 190.667921 
L 164.857856 188.260584 
L 168.137195 185.815547 
L 171.416534 183.339594 
L 174.695873 180.861796 
L 177.975212 178.448641 
L 181.254551 176.223727 
L 184.533889 173.822872 
L 187.813228 171.416808 
L 191.092567 169.009857 
L 194.371906 166.838164 
L 197.651245 164.688725 
L 200.930584 162.169769 
L 204.209923 159.907473 
L 207.489261 157.574258 
L 210.7686 155.206511 
L 214.047939 153.126498 
L 217.327278 150.762925 
L 220.606617 148.534837 
L 223.885956 146.374544 
L 227.165294 144.380433 
L 230.444633 142.398854 
L 233.723972 140.150928 
L 237.003311 138.232478 
L 240.28265 136.421385 
L 243.561989 133.998885 
L 246.841327 132.078127 
L 250.120666 130.047162 
L 253.400005 128.137976 
L 256.679344 126.234676 
L 259.958683 124.361139 
L 263.238022 122.649544 
L 266.517361 120.77366 
L 269.796699 118.818056 
L 273.076038 117.06693 
L 276.355377 115.184325 
L 279.634716 113.449114 
L 282.914055 111.578779 
L 286.193394 109.825936 
L 289.472732 108.125433 
L 292.752071 106.498354 
L 296.03141 104.872431 
L 299.310749 103.142207 
L 302.590088 101.302288 
L 305.869427 99.609576 
L 309.148765 97.908335 
L 312.428104 96.210247 
L 315.707443 94.413233 
L 318.986782 92.775237 
L 322.266121 91.104791 
L 325.54546 89.463997 
L 328.824799 87.747473 
L 332.104137 86.120421 
L 335.383476 84.493682 
L 338.662815 82.82934 
L 341.942154 81.283583 
L 345.221493 79.774494 
L 348.500832 78.087688 
L 351.78017 76.377389 
L 355.059509 74.670039 
L 358.338848 73.038179 
L 361.618187 71.406318 
L 364.897526 69.927179 
L 368.176865 68.493744 
L 371.456204 67.060112 
L 374.735542 65.563232 
L 378.014881 63.963089 
L 381.29422 62.362946 
L 384.573559 60.762803 
L 387.852898 59.159379 
L 387.852898 19.296 
L 387.852898 19.296 
L 384.573559 21.4954 
L 381.29422 23.855569 
L 378.014881 26.266624 
L 374.735542 28.53069 
L 371.456204 30.747761 
L 368.176865 32.972229 
L 364.897526 35.197419 
L 361.618187 37.422609 
L 358.338848 39.840216 
L 355.059509 41.952861 
L 351.78017 44.552191 
L 348.500832 46.91337 
L 345.221493 49.397631 
L 341.942154 51.453023 
L 338.662815 53.688755 
L 335.383476 55.970821 
L 332.104137 58.254224 
L 328.824799 60.538913 
L 325.54546 62.689412 
L 322.266121 64.726296 
L 318.986782 66.731045 
L 315.707443 68.775605 
L 312.428104 70.650964 
L 309.148765 72.848838 
L 305.869427 75.142924 
L 302.590088 77.309946 
L 299.310749 79.500722 
L 296.03141 81.257011 
L 292.752071 83.158104 
L 289.472732 85.324407 
L 286.193394 87.324572 
L 282.914055 89.395646 
L 279.634716 91.345912 
L 276.355377 93.251218 
L 273.076038 95.206606 
L 269.796699 96.942225 
L 266.517361 98.672328 
L 263.238022 100.669675 
L 259.958683 102.809211 
L 256.679344 104.741318 
L 253.400005 106.598578 
L 250.120666 108.385461 
L 246.841327 110.17418 
L 243.561989 111.959552 
L 240.28265 113.775527 
L 237.003311 115.535166 
L 233.723972 117.320691 
L 230.444633 119.106852 
L 227.165294 120.894795 
L 223.885956 122.760708 
L 220.606617 124.702099 
L 217.327278 126.284917 
L 214.047939 128.041344 
L 210.7686 129.828243 
L 207.489261 131.549931 
L 204.209923 133.215275 
L 200.930584 134.834228 
L 197.651245 136.407805 
L 194.371906 137.941937 
L 191.092567 139.702035 
L 187.813228 141.500386 
L 184.533889 143.365643 
L 181.254551 145.124998 
L 177.975212 146.933002 
L 174.695873 148.617355 
L 171.416534 150.241222 
L 168.137195 151.76832 
L 164.857856 153.47746 
L 161.578518 155.113194 
L 158.299179 156.736839 
L 155.01984 158.32754 
L 151.740501 159.909133 
L 148.461162 161.490726 
L 145.181823 163.07232 
L 141.902485 164.663994 
L 138.623146 166.290554 
L 135.343807 167.895979 
L 132.064468 169.625948 
L 128.785129 171.358238 
L 125.50579 172.999826 
L 122.226451 174.622269 
L 118.947113 176.244712 
L 115.667774 177.579852 
L 112.388435 179.297148 
L 109.109096 181.046872 
L 105.829757 182.636621 
L 102.550418 184.157279 
L 99.27108 185.691095 
L 95.991741 187.158025 
L 92.712402 188.816748 
L 89.433063 190.416792 
L 86.153724 191.885976 
L 82.874385 193.358277 
L 79.595046 194.830872 
L 76.315708 196.452263 
L 73.036369 198.089691 
L 69.75703 199.727118 
L 66.477691 201.359921 
L 63.198352 202.892603 
z
" clip-path="url(#pda5e0f1ff8)" style="fill: #1f77b4; fill-opacity: 0.15"/>
   </g>
   <g id="matplotlib.axis_1">
    <g id="xtick_1">
     <g id="line2d_1">
      <defs>
       <path id="m7b1a1f5fb7" d="M 0 0 
L 0 3.5 
" style="stroke: #000000; stroke-width: 0.8"/>
      </defs>
      <g>
       <use xlink:href="#m7b1a1f5fb7" x="81.884181" y="273.312" style="stroke: #000000; stroke-width: 0.8"/>
      </g>
     </g>
     <g id="text_1">
      <!-- 40 -->
      <g transform="translate(75.521681 287.910437) scale(0.1 -0.1)">
       <defs>
        <path id="DejaVuSans-34" d="M 2419 4116 
L 825 1625 
L 2419 1625 
L 2419 4116 
z
M 2253 4666 
L 3047 4666 
L 3047 1625 
L 3713 1625 
L 3713 1100 
L 3047 1100 
L 3047 0 
L 2419 0 
L 2419 1100 
L 313 1100 
L 313 1709 
L 2253 4666 
z
" transform="scale(0.015625)"/>
        <path id="DejaVuSans-30" d="M 2034 4250 
Q 1547 4250 1301 3770 
Q 1056 3291 1056 2328 
Q 1056 1369 1301 889 
Q 1547 409 2034 409 
Q 2525 409 2770 889 
Q 3016 1369 3016 2328 
Q 3016 3291 2770 3770 
Q 2525 4250 2034 4250 
z
M 2034 4750 
Q 2819 4750 3233 4129 
Q 3647 3509 3647 2328 
Q 3647 1150 3233 529 
Q 2819 -91 2034 -91 
Q 1250 -91 836 529 
Q 422 1150 422 2328 
Q 422 3509 836 4129 
Q 1250 4750 2034 4750 
z
" transform="scale(0.015625)"/>
       </defs>
       <use xlink:href="#DejaVuSans-34"/>
       <use xlink:href="#DejaVuSans-30" transform="translate(63.623047 0)"/>
      </g>
     </g>
    </g>
    <g id="xtick_2">
     <g id="line2d_2">
      <g>
       <use xlink:href="#m7b1a1f5fb7" x="128.833501" y="273.312" style="stroke: #000000; stroke-width: 0.8"/>
      </g>
     </g>
     <g id="text_2">
      <!-- 60 -->
      <g transform="translate(122.471001 287.910437) scale(0.1 -0.1)">
       <defs>
        <path id="DejaVuSans-36" d="M 2113 2584 
Q 1688 2584 1439 2293 
Q 1191 2003 1191 1497 
Q 1191 994 1439 701 
Q 1688 409 2113 409 
Q 2538 409 2786 701 
Q 3034 994 3034 1497 
Q 3034 2003 2786 2293 
Q 2538 2584 2113 2584 
z
M 3366 4563 
L 3366 3988 
Q 3128 4100 2886 4159 
Q 2644 4219 2406 4219 
Q 1781 4219 1451 3797 
Q 1122 3375 1075 2522 
Q 1259 2794 1537 2939 
Q 1816 3084 2150 3084 
Q 2853 3084 3261 2657 
Q 3669 2231 3669 1497 
Q 3669 778 3244 343 
Q 2819 -91 2113 -91 
Q 1303 -91 875 529 
Q 447 1150 447 2328 
Q 447 3434 972 4092 
Q 1497 4750 2381 4750 
Q 2619 4750 2861 4703 
Q 3103 4656 3366 4563 
z
" transform="scale(0.015625)"/>
       </defs>
       <use xlink:href="#DejaVuSans-36"/>
       <use xlink:href="#DejaVuSans-30" transform="translate(63.623047 0)"/>
      </g>
     </g>
    </g>
    <g id="xtick_3">
     <g id="line2d_3">
      <g>
       <use xlink:href="#m7b1a1f5fb7" x="175.782821" y="273.312" style="stroke: #000000; stroke-width: 0.8"/>
      </g>
     </g>
     <g id="text_3">
      <!-- 80 -->
      <g transform="translate(169.420321 287.910437) scale(0.1 -0.1)">
       <defs>
        <path id="DejaVuSans-38" d="M 2034 2216 
Q 1584 2216 1326 1975 
Q 1069 1734 1069 1313 
Q 1069 891 1326 650 
Q 1584 409 2034 409 
Q 2484 409 2743 651 
Q 3003 894 3003 1313 
Q 3003 1734 2745 1975 
Q 2488 2216 2034 2216 
z
M 1403 2484 
Q 997 2584 770 2862 
Q 544 3141 544 3541 
Q 544 4100 942 4425 
Q 1341 4750 2034 4750 
Q 2731 4750 3128 4425 
Q 3525 4100 3525 3541 
Q 3525 3141 3298 2862 
Q 3072 2584 2669 2484 
Q 3125 2378 3379 2068 
Q 3634 1759 3634 1313 
Q 3634 634 3220 271 
Q 2806 -91 2034 -91 
Q 1263 -91 848 271 
Q 434 634 434 1313 
Q 434 1759 690 2068 
Q 947 2378 1403 2484 
z
M 1172 3481 
Q 1172 3119 1398 2916 
Q 1625 2713 2034 2713 
Q 2441 2713 2670 2916 
Q 2900 3119 2900 3481 
Q 2900 3844 2670 4047 
Q 2441 4250 2034 4250 
Q 1625 4250 1398 4047 
Q 1172 3844 1172 3481 
z
" transform="scale(0.015625)"/>
       </defs>
       <use xlink:href="#DejaVuSans-38"/>
       <use xlink:href="#DejaVuSans-30" transform="translate(63.623047 0)"/>
      </g>
     </g>
    </g>
    <g id="xtick_4">
     <g id="line2d_4">
      <g>
       <use xlink:href="#m7b1a1f5fb7" x="222.73214" y="273.312" style="stroke: #000000; stroke-width: 0.8"/>
      </g>
     </g>
     <g id="text_4">
      <!-- 100 -->
      <g transform="translate(213.18839 287.910437) scale(0.1 -0.1)">
       <defs>
        <path id="DejaVuSans-31" d="M 794 531 
L 1825 531 
L 1825 4091 
L 703 3866 
L 703 4441 
L 1819 4666 
L 2450 4666 
L 2450 531 
L 3481 531 
L 3481 0 
L 794 0 
L 794 531 
z
" transform="scale(0.015625)"/>
       </defs>
       <use xlink:href="#DejaVuSans-31"/>
       <use xlink:href="#DejaVuSans-30" transform="translate(63.623047 0)"/>
       <use xlink:href="#DejaVuSans-30" transform="translate(127.246094 0)"/>
      </g>
     </g>
    </g>
    <g id="xtick_5">
     <g id="line2d_5">
      <g>
       <use xlink:href="#m7b1a1f5fb7" x="269.68146" y="273.312" style="stroke: #000000; stroke-width: 0.8"/>
      </g>
     </g>
     <g id="text_5">
      <!-- 120 -->
      <g transform="translate(260.13771 287.910437) scale(0.1 -0.1)">
       <defs>
        <path id="DejaVuSans-32" d="M 1228 531 
L 3431 531 
L 3431 0 
L 469 0 
L 469 531 
Q 828 903 1448 1529 
Q 2069 2156 2228 2338 
Q 2531 2678 2651 2914 
Q 2772 3150 2772 3378 
Q 2772 3750 2511 3984 
Q 2250 4219 1831 4219 
Q 1534 4219 1204 4116 
Q 875 4013 500 3803 
L 500 4441 
Q 881 4594 1212 4672 
Q 1544 4750 1819 4750 
Q 2544 4750 2975 4387 
Q 3406 4025 3406 3419 
Q 3406 3131 3298 2873 
Q 3191 2616 2906 2266 
Q 2828 2175 2409 1742 
Q 1991 1309 1228 531 
z
" transform="scale(0.015625)"/>
       </defs>
       <use xlink:href="#DejaVuSans-31"/>
       <use xlink:href="#DejaVuSans-32" transform="translate(63.623047 0)"/>
       <use xlink:href="#DejaVuSans-30" transform="translate(127.246094 0)"/>
      </g>
     </g>
    </g>
    <g id="xtick_6">
     <g id="line2d_6">
      <g>
       <use xlink:href="#m7b1a1f5fb7" x="316.63078" y="273.312" style="stroke: #000000; stroke-width: 0.8"/>
      </g>
     </g>
     <g id="text_6">
      <!-- 140 -->
      <g transform="translate(307.08703 287.910437) scale(0.1 -0.1)">
       <use xlink:href="#DejaVuSans-31"/>
       <use xlink:href="#DejaVuSans-34" transform="translate(63.623047 0)"/>
       <use xlink:href="#DejaVuSans-30" transform="translate(127.246094 0)"/>
      </g>
     </g>
    </g>
    <g id="xtick_7">
     <g id="line2d_7">
      <g>
       <use xlink:href="#m7b1a1f5fb7" x="363.580099" y="273.312" style="stroke: #000000; stroke-width: 0.8"/>
      </g>
     </g>
     <g id="text_7">
      <!-- 160 -->
      <g transform="translate(354.036349 287.910437) scale(0.1 -0.1)">
       <use xlink:href="#DejaVuSans-31"/>
       <use xlink:href="#DejaVuSans-36" transform="translate(63.623047 0)"/>
       <use xlink:href="#DejaVuSans-30" transform="translate(127.246094 0)"/>
      </g>
     </g>
    </g>
    <g id="text_8">
     <!-- MW -->
     <g transform="translate(216.267813 301.588562) scale(0.1 -0.1)">
      <defs>
       <path id="DejaVuSans-4d" d="M 628 4666 
L 1569 4666 
L 2759 1491 
L 3956 4666 
L 4897 4666 
L 4897 0 
L 4281 0 
L 4281 4097 
L 3078 897 
L 2444 897 
L 1241 4097 
L 1241 0 
L 628 0 
L 628 4666 
z
" transform="scale(0.015625)"/>
       <path id="DejaVuSans-57" d="M 213 4666 
L 850 4666 
L 1831 722 
L 2809 4666 
L 3519 4666 
L 4500 722 
L 5478 4666 
L 6119 4666 
L 4947 0 
L 4153 0 
L 3169 4050 
L 2175 0 
L 1381 0 
L 213 4666 
z
" transform="scale(0.015625)"/>
      </defs>
      <use xlink:href="#DejaVuSans-4d"/>
      <use xlink:href="#DejaVuSans-57" transform="translate(86.279297 0)"/>
     </g>
    </g>
   </g>
   <g id="matplotlib.axis_2">
    <g id="ytick_1">
     <g id="line2d_8">
      <defs>
       <path id="m4a04a2aaee" d="M 0 0 
L -3.5 0 
" style="stroke: #000000; stroke-width: 0.8"/>
      </defs>
      <g>
       <use xlink:href="#m4a04a2aaee" x="46.965625" y="258.699091" style="stroke: #000000; stroke-width: 0.8"/>
      </g>
     </g>
     <g id="text_9">
      <!-- 0 -->
      <g transform="translate(33.603125 262.49831) scale(0.1 -0.1)">
       <use xlink:href="#DejaVuSans-30"/>
      </g>
     </g>
    </g>
    <g id="ytick_2">
     <g id="line2d_9">
      <g>
       <use xlink:href="#m4a04a2aaee" x="46.965625" y="211.081742" style="stroke: #000000; stroke-width: 0.8"/>
      </g>
     </g>
     <g id="text_10">
      <!-- 50 -->
      <g transform="translate(27.240625 214.880961) scale(0.1 -0.1)">
       <defs>
        <path id="DejaVuSans-35" d="M 691 4666 
L 3169 4666 
L 3169 4134 
L 1269 4134 
L 1269 2991 
Q 1406 3038 1543 3061 
Q 1681 3084 1819 3084 
Q 2600 3084 3056 2656 
Q 3513 2228 3513 1497 
Q 3513 744 3044 326 
Q 2575 -91 1722 -91 
Q 1428 -91 1123 -41 
Q 819 9 494 109 
L 494 744 
Q 775 591 1075 516 
Q 1375 441 1709 441 
Q 2250 441 2565 725 
Q 2881 1009 2881 1497 
Q 2881 1984 2565 2268 
Q 2250 2553 1709 2553 
Q 1456 2553 1204 2497 
Q 953 2441 691 2322 
L 691 4666 
z
" transform="scale(0.015625)"/>
       </defs>
       <use xlink:href="#DejaVuSans-35"/>
       <use xlink:href="#DejaVuSans-30" transform="translate(63.623047 0)"/>
      </g>
     </g>
    </g>
    <g id="ytick_3">
     <g id="line2d_10">
      <g>
       <use xlink:href="#m4a04a2aaee" x="46.965625" y="163.464393" style="stroke: #000000; stroke-width: 0.8"/>
      </g>
     </g>
     <g id="text_11">
      <!-- 100 -->
      <g transform="translate(20.878125 167.263612) scale(0.1 -0.1)">
       <use xlink:href="#DejaVuSans-31"/>
       <use xlink:href="#DejaVuSans-30" transform="translate(63.623047 0)"/>
       <use xlink:href="#DejaVuSans-30" transform="translate(127.246094 0)"/>
      </g>
     </g>
    </g>
    <g id="ytick_4">
     <g id="line2d_11">
      <g>
       <use xlink:href="#m4a04a2aaee" x="46.965625" y="115.847044" style="stroke: #000000; stroke-width: 0.8"/>
      </g>
     </g>
     <g id="text_12">
      <!-- 150 -->
      <g transform="translate(20.878125 119.646263) scale(0.1 -0.1)">
       <use xlink:href="#DejaVuSans-31"/>
       <use xlink:href="#DejaVuSans-35" transform="translate(63.623047 0)"/>
       <use xlink:href="#DejaVuSans-30" transform="translate(127.246094 0)"/>
      </g>
     </g>
    </g>
    <g id="ytick_5">
     <g id="line2d_12">
      <g>
       <use xlink:href="#m4a04a2aaee" x="46.965625" y="68.229695" style="stroke: #000000; stroke-width: 0.8"/>
      </g>
     </g>
     <g id="text_13">
      <!-- 200 -->
      <g transform="translate(20.878125 72.028914) scale(0.1 -0.1)">
       <use xlink:href="#DejaVuSans-32"/>
       <use xlink:href="#DejaVuSans-30" transform="translate(63.623047 0)"/>
       <use xlink:href="#DejaVuSans-30" transform="translate(127.246094 0)"/>
      </g>
     </g>
    </g>
    <g id="ytick_6">
     <g id="line2d_13">
      <g>
       <use xlink:href="#m4a04a2aaee" x="46.965625" y="20.612346" style="stroke: #000000; stroke-width: 0.8"/>
      </g>
     </g>
     <g id="text_14">
      <!-- 250 -->
      <g transform="translate(20.878125 24.411565) scale(0.1 -0.1)">
       <use xlink:href="#DejaVuSans-32"/>
       <use xlink:href="#DejaVuSans-35" transform="translate(63.623047 0)"/>
       <use xlink:href="#DejaVuSans-30" transform="translate(127.246094 0)"/>
      </g>
     </g>
    </g>
    <g id="text_15">
     <!-- bp -->
     <g transform="translate(14.798438 146.604437) rotate(-90) scale(0.1 -0.1)">
      <defs>
       <path id="DejaVuSans-62" d="M 3116 1747 
Q 3116 2381 2855 2742 
Q 2594 3103 2138 3103 
Q 1681 3103 1420 2742 
Q 1159 2381 1159 1747 
Q 1159 1113 1420 752 
Q 1681 391 2138 391 
Q 2594 391 2855 752 
Q 3116 1113 3116 1747 
z
M 1159 2969 
Q 1341 3281 1617 3432 
Q 1894 3584 2278 3584 
Q 2916 3584 3314 3078 
Q 3713 2572 3713 1747 
Q 3713 922 3314 415 
Q 2916 -91 2278 -91 
Q 1894 -91 1617 61 
Q 1341 213 1159 525 
L 1159 0 
L 581 0 
L 581 4863 
L 1159 4863 
L 1159 2969 
z
" transform="scale(0.015625)"/>
       <path id="DejaVuSans-70" d="M 1159 525 
L 1159 -1331 
L 581 -1331 
L 581 3500 
L 1159 3500 
L 1159 2969 
Q 1341 3281 1617 3432 
Q 1894 3584 2278 3584 
Q 2916 3584 3314 3078 
Q 3713 2572 3713 1747 
Q 3713 922 3314 415 
Q 2916 -91 2278 -91 
Q 1894 -91 1617 61 
Q 1341 213 1159 525 
z
M 3116 1747 
Q 3116 2381 2855 2742 
Q 2594 3103 2138 3103 
Q 1681 3103 1420 2742 
Q 1159 2381 1159 1747 
Q 1159 1113 1420 752 
Q 1681 391 2138 391 
Q 2594 391 2855 752 
Q 3116 1113 3116 1747 
z
" transform="scale(0.015625)"/>
      </defs>
      <use xlink:href="#DejaVuSans-62"/>
      <use xlink:href="#DejaVuSans-70" transform="translate(63.476562 0)"/>
     </g>
    </g>
   </g>
   <g id="line2d_14">
    <path d="M 63.198352 225.378439 
L 66.477691 223.516852 
L 69.75703 221.655266 
L 73.036369 219.79368 
L 76.315708 217.932094 
L 79.595046 216.070507 
L 82.874385 214.208921 
L 86.153724 212.347335 
L 89.433063 210.485748 
L 92.712402 208.624162 
L 95.991741 206.762576 
L 99.27108 204.90099 
L 102.550418 203.039403 
L 105.829757 201.177817 
L 109.109096 199.316231 
L 112.388435 197.454644 
L 115.667774 195.593058 
L 118.947113 193.731472 
L 122.226451 191.869886 
L 125.50579 190.008299 
L 128.785129 188.146713 
L 132.064468 186.285127 
L 135.343807 184.42354 
L 138.623146 182.561954 
L 141.902485 180.700368 
L 145.181823 178.838782 
L 148.461162 176.977195 
L 151.740501 175.115609 
L 155.01984 173.254023 
L 158.299179 171.392436 
L 161.578518 169.53085 
L 164.857856 167.669264 
L 168.137195 165.807678 
L 171.416534 163.946091 
L 174.695873 162.084505 
L 177.975212 160.222919 
L 181.254551 158.361332 
L 184.533889 156.499746 
L 187.813228 154.63816 
L 191.092567 152.776574 
L 194.371906 150.914987 
L 197.651245 149.053401 
L 200.930584 147.191815 
L 204.209923 145.330228 
L 207.489261 143.468642 
L 210.7686 141.607056 
L 214.047939 139.74547 
L 217.327278 137.883883 
L 220.606617 136.022297 
L 223.885956 134.160711 
L 227.165294 132.299124 
L 230.444633 130.437538 
L 233.723972 128.575952 
L 237.003311 126.714366 
L 240.28265 124.852779 
L 243.561989 122.991193 
L 246.841327 121.129607 
L 250.120666 119.26802 
L 253.400005 117.406434 
L 256.679344 115.544848 
L 259.958683 113.683262 
L 263.238022 111.821675 
L 266.517361 109.960089 
L 269.796699 108.098503 
L 273.076038 106.236916 
L 276.355377 104.37533 
L 279.634716 102.513744 
L 282.914055 100.652158 
L 286.193394 98.790571 
L 289.472732 96.928985 
L 292.752071 95.067399 
L 296.03141 93.205812 
L 299.310749 91.344226 
L 302.590088 89.48264 
L 305.869427 87.621054 
L 309.148765 85.759467 
L 312.428104 83.897881 
L 315.707443 82.036295 
L 318.986782 80.174708 
L 322.266121 78.313122 
L 325.54546 76.451536 
L 328.824799 74.58995 
L 332.104137 72.728363 
L 335.383476 70.866777 
L 338.662815 69.005191 
L 341.942154 67.143604 
L 345.221493 65.282018 
L 348.500832 63.420432 
L 351.78017 61.558846 
L 355.059509 59.697259 
L 358.338848 57.835673 
L 361.618187 55.974087 
L 364.897526 54.1125 
L 368.176865 52.250914 
L 371.456204 50.389328 
L 374.735542 48.527742 
L 378.014881 46.666155 
L 381.29422 44.804569 
L 384.573559 42.942983 
L 387.852898 41.081396 
" clip-path="url(#pda5e0f1ff8)" style="fill: none; stroke: #1f77b4; stroke-width: 2.25; stroke-linecap: square"/>
   </g>
   <g id="patch_3">
    <path d="M 46.965625 273.312 
L 46.965625 7.2 
" style="fill: none; stroke: #000000; stroke-width: 0.8; stroke-linejoin: miter; stroke-linecap: square"/>
   </g>
   <g id="patch_4">
    <path d="M 404.085625 273.312 
L 404.085625 7.2 
" style="fill: none; stroke: #000000; stroke-width: 0.8; stroke-linejoin: miter; stroke-linecap: square"/>
   </g>
   <g id="patch_5">
    <path d="M 46.965625 273.312 
L 404.085625 273.312 
" style="fill: none; stroke: #000000; stroke-width: 0.8; stroke-linejoin: miter; stroke-linecap: square"/>
   </g>
   <g id="patch_6">
    <path d="M 46.965625 7.2 
L 404.085625 7.2 
" style="fill: none; stroke: #000000; stroke-width: 0.8; stroke-linejoin: miter; stroke-linecap: square"/>
   </g>
  </g>
 </g>
 <defs>
  <clipPath id="pda5e0f1ff8">
   <rect x="46.965625" y="7.2" width="357.12" height="266.112"/>
  </clipPath>
 </defs>
</svg>