<?xml version="1.0" encoding="utf-8" standalone="no"?>
<!DOCTYPE svg PUBLIC "-//W3C//DTD SVG 1.1//EN"
  "http://www.w3.org/Graphics/SVG/1.1/DTD/svg11.dtd">
<svg xmlns:xlink="http://www.w3.org/1999/xlink" width="411.285625pt" height="310.86825pt" viewBox="0 0 411.285625 310.86825" xmlns="http://www.w3.org/2000/svg" version="1.1">
 <metadata>
  <rdf:RDF xmlns:dc="http://purl.org/dc/elements/1.1/" xmlns:cc="http://creativecommons.org/ns#" xmlns:rdf="http://www.w3.org/1999/02/22-rdf-syntax-ns#">
   <cc:Work>
    <dc:type rdf:resource="http://purl.org/dc/dcmitype/StillImage"/>
    <dc:date>2025-12-27T13:15:37.599614</dc:date>
    <dc:format>image/svg+xml</dc:format>
    <dc:creator>
     <cc:Agent>
      <dc:title>Matplotlib v3.10.3, https://matplotlib.org/</dc:title>
     </cc:Agent>
    </dc:creator>
   </cc:Work>
  </rdf:RDF>
 </metadata>
 <defs>
  <style type="text/css">*{stroke-linejoin: round; stroke-linecap: butt}</style>
 </defs>
 <g id="figure_1">
  <g id="patch_1">
   <path d="M 0 310.86825 
L 411.285625 310.86825 
L 411.285625 0 
L 0 0 
z
" style="fill: #ffffff"/>
  </g>
  <g id="axes_1">
   <g id="patch_2">
    <path d="M 46.965625 273.312 
L 404.085625 273.312 
L 404.085625 7.2 
L 46.965625 7.2 
z
" style="fill: #ffffff"/>
   </g>
   <g id="PathCollection_1">
    <defs>
     <path id="m3e03c3d350" d="M 0 3 
C 0.795609 3 1.55874 2.683901 2.12132 2.12132 
C 2.683901 1.55874 3 0.795609 3 0 
C 3 -0.795609 2.683901 -1.55874 2.12132 -2.12132 
C 1.55874 -2.683901 0.795609 -3 0 -3 
C -0.795609 -3 -1.55874 -2.683901 -2.12132 -2.12132 
C -2.683901 -1.55874 -3 -0.795609 -3 0 
C -3 0.795609 -2.683901 1.55874 -2.12132 2.12132 
C -1.55874 2.683901 -0.795609 3 0 3 
z
" style="stroke: #1f77b4; stroke-opacity: 0.8"/>
    </defs>
    <g clip-path="url(#p157c5a8b6b)">
     <use xlink:href="#m3e03c3d350" x="63.198352" y="200.038961" style="fill: #1f77b4; fill-opacity: 0.8; stroke: #1f77b4; stroke-opacity: 0.8"/>
     <use xlink:href="#m3e03c3d350" x="96.1333" y="187.432674" style="fill: #1f77b4; fill-opacity: 0.8; stroke: #1f77b4; stroke-opacity: 0.8"/>
     <use xlink:href="#m3e03c3d350" x="129.068248" y="168.038386" style="fill: #1f77b4; fill-opacity: 0.8; stroke: #1f77b4; stroke-opacity: 0.8"/>
     <use xlink:href="#m3e03c3d350" x="161.979721" y="148.644099" style="fill: #1f77b4; fill-opacity: 0.8; stroke: #1f77b4; stroke-opacity: 0.8"/>
     <use xlink:href="#m3e03c3d350" x="194.914669" y="128.280097" style="fill: #1f77b4; fill-opacity: 0.8; stroke: #1f77b4; stroke-opacity: 0.8"/>
     <use xlink:href="#m3e03c3d350" x="227.849616" y="110.825238" style="fill: #1f77b4; fill-opacity: 0.8; stroke: #1f77b4; stroke-opacity: 0.8"/>
     <use xlink:href="#m3e03c3d350" x="260.761089" y="92.400665" style="fill: #1f77b4; fill-opacity: 0.8; stroke: #1f77b4; stroke-opacity: 0.8"/>
     <use xlink:href="#m3e03c3d350" x="293.696037" y="73.976092" style="fill: #1f77b4; fill-opacity: 0.8; stroke: #1f77b4; stroke-opacity: 0.8"/>
     <use xlink:href="#m3e03c3d350" x="326.60751" y="57.490947" style="fill: #1f77b4; fill-opacity: 0.8; stroke: #1f77b4; stroke-opacity: 0.8"/>
     <use xlink:href="#m3e03c3d350" x="359.542458" y="38.09666" style="fill: #1f77b4; fill-opacity: 0.8; stroke: #1f77b4; stroke-opacity: 0.8"/>
     <use xlink:href="#m3e03c3d350" x="157.355213" y="228.160678" style="fill: #1f77b4; fill-opacity: 0.8; stroke: #1f77b4; stroke-opacity: 0.8"/>
     <use xlink:href="#m3e03c3d350" x="190.290161" y="196.160103" style="fill: #1f77b4; fill-opacity: 0.8; stroke: #1f77b4; stroke-opacity: 0.8"/>
     <use xlink:href="#m3e03c3d350" x="223.225108" y="168.038386" style="fill: #1f77b4; fill-opacity: 0.8; stroke: #1f77b4; stroke-opacity: 0.8"/>
     <use xlink:href="#m3e03c3d350" x="256.136581" y="140.886384" style="fill: #1f77b4; fill-opacity: 0.8; stroke: #1f77b4; stroke-opacity: 0.8"/>
     <use xlink:href="#m3e03c3d350" x="289.071529" y="116.643524" style="fill: #1f77b4; fill-opacity: 0.8; stroke: #1f77b4; stroke-opacity: 0.8"/>
     <use xlink:href="#m3e03c3d350" x="322.006477" y="94.340094" style="fill: #1f77b4; fill-opacity: 0.8; stroke: #1f77b4; stroke-opacity: 0.8"/>
     <use xlink:href="#m3e03c3d350" x="354.91795" y="73.006377" style="fill: #1f77b4; fill-opacity: 0.8; stroke: #1f77b4; stroke-opacity: 0.8"/>
     <use xlink:href="#m3e03c3d350" x="387.852898" y="53.61209" style="fill: #1f77b4; fill-opacity: 0.8; stroke: #1f77b4; stroke-opacity: 0.8"/>
     <use xlink:href="#m3e03c3d350" x="190.290161" y="201.978389" style="fill: #1f77b4; fill-opacity: 0.8; stroke: #1f77b4; stroke-opacity: 0.8"/>
     <use xlink:href="#m3e03c3d350" x="256.136581" y="149.613813" style="fill: #1f77b4; fill-opacity: 0.8; stroke: #1f77b4; stroke-opacity: 0.8"/>
     <use xlink:href="#m3e03c3d350" x="157.355213" y="235.918393" style="fill: #1f77b4; fill-opacity: 0.8; stroke: #1f77b4; stroke-opacity: 0.8"/>
     <use xlink:href="#m3e03c3d350" x="223.225108" y="185.493245" style="fill: #1f77b4; fill-opacity: 0.8; stroke: #1f77b4; stroke-opacity: 0.8"/>
     <use xlink:href="#m3e03c3d350" x="161.979721" y="158.341242" style="fill: #1f77b4; fill-opacity: 0.8; stroke: #1f77b4; stroke-opacity: 0.8"/>
     <use xlink:href="#m3e03c3d350" x="161.979721" y="182.584102" style="fill: #1f77b4; fill-opacity: 0.8; stroke: #1f77b4; stroke-opacity: 0.8"/>
     <use xlink:href="#m3e03c3d350" x="194.914669" y="136.037812" style="fill: #1f77b4; fill-opacity: 0.8; stroke: #1f77b4; stroke-opacity: 0.8"/>
     <use xlink:href="#m3e03c3d350" x="227.849616" y="132.158954" style="fill: #1f77b4; fill-opacity: 0.8; stroke: #1f77b4; stroke-opacity: 0.8"/>
     <use xlink:href="#m3e03c3d350" x="260.761089" y="127.310382" style="fill: #1f77b4; fill-opacity: 0.8; stroke: #1f77b4; stroke-opacity: 0.8"/>
     <use xlink:href="#m3e03c3d350" x="208.905566" y="86.582379" style="fill: #1f77b4; fill-opacity: 0.8; stroke: #1f77b4; stroke-opacity: 0.8"/>
     <use xlink:href="#m3e03c3d350" x="241.840514" y="67.188091" style="fill: #1f77b4; fill-opacity: 0.8; stroke: #1f77b4; stroke-opacity: 0.8"/>
     <use xlink:href="#m3e03c3d350" x="307.686934" y="49.733232" style="fill: #1f77b4; fill-opacity: 0.8; stroke: #1f77b4; stroke-opacity: 0.8"/>
    </g>
   </g>
   <g id="FillBetweenPolyCollection_1">
    <path d="M 63.198352 206.038525 
L 63.198352 261.216 
L 66.477691 258.813915 
L 69.75703 256.439213 
L 73.036369 254.062724 
L 76.315708 251.683836 
L 79.595046 249.304948 
L 82.874385 246.946639 
L 86.153724 244.591992 
L 89.433063 242.237345 
L 92.712402 239.886336 
L 95.991741 237.619918 
L 99.27108 235.3535 
L 102.550418 233.087081 
L 105.829757 230.820663 
L 109.109096 228.500596 
L 112.388435 226.084233 
L 115.667774 223.659969 
L 118.947113 221.241297 
L 122.226451 218.942803 
L 125.50579 216.716114 
L 128.785129 214.460052 
L 132.064468 212.099516 
L 135.343807 209.79034 
L 138.623146 207.333276 
L 141.902485 205.157211 
L 145.181823 202.859286 
L 148.461162 200.498998 
L 151.740501 198.099133 
L 155.01984 195.974293 
L 158.299179 193.747887 
L 161.578518 191.375061 
L 164.857856 189.001953 
L 168.137195 186.70001 
L 171.416534 184.259273 
L 174.695873 181.881022 
L 177.975212 179.686835 
L 181.254551 177.578462 
L 184.533889 175.357683 
L 187.813228 172.793866 
L 191.092567 170.591694 
L 194.371906 168.352434 
L 197.651245 166.163717 
L 200.930584 164.154345 
L 204.209923 161.985816 
L 207.489261 159.573109 
L 210.7686 157.488389 
L 214.047939 155.655421 
L 217.327278 153.492412 
L 220.606617 151.464387 
L 223.885956 149.265362 
L 227.165294 147.176018 
L 230.444633 145.123094 
L 233.723972 142.942348 
L 237.003311 140.643598 
L 240.28265 138.788732 
L 243.561989 136.794828 
L 246.841327 134.78394 
L 250.120666 132.929754 
L 253.400005 130.942631 
L 256.679344 129.138571 
L 259.958683 127.33537 
L 263.238022 125.553572 
L 266.517361 123.773408 
L 269.796699 122.159942 
L 273.076038 120.351552 
L 276.355377 118.350504 
L 279.634716 116.281798 
L 282.914055 114.643954 
L 286.193394 112.875885 
L 289.472732 111.098172 
L 292.752071 109.426519 
L 296.03141 107.473478 
L 299.310749 105.791973 
L 302.590088 104.053093 
L 305.869427 102.221191 
L 309.148765 100.348656 
L 312.428104 98.649299 
L 315.707443 96.784752 
L 318.986782 95.093412 
L 322.266121 93.488056 
L 325.54546 91.821824 
L 328.824799 90.209347 
L 332.104137 88.346298 
L 335.383476 86.669591 
L 338.662815 85.014295 
L 341.942154 83.358844 
L 345.221493 81.699927 
L 348.500832 80.039377 
L 351.78017 78.377174 
L 355.059509 76.720405 
L 358.338848 75.053114 
L 361.618187 73.293234 
L 364.897526 71.603081 
L 368.176865 70.092852 
L 371.456204 68.501022 
L 374.735542 66.906613 
L 378.014881 65.306653 
L 381.29422 63.708425 
L 384.573559 62.107778 
L 387.852898 60.512489 
L 387.852898 19.296 
L 387.852898 19.296 
L 384.573559 21.42643 
L 381.29422 23.663832 
L 378.014881 25.950922 
L 374.735542 28.233964 
L 371.456204 30.66316 
L 368.176865 33.013473 
L 364.897526 35.367297 
L 361.618187 37.563408 
L 358.338848 39.971957 
L 355.059509 42.219781 
L 351.78017 44.417824 
L 348.500832 46.677535 
L 345.221493 48.952976 
L 341.942154 51.260695 
L 338.662815 53.568414 
L 335.383476 55.798464 
L 332.104137 58.021583 
L 328.824799 60.244702 
L 325.54546 62.46782 
L 322.266121 64.690939 
L 318.986782 66.915058 
L 315.707443 69.139359 
L 312.428104 71.562331 
L 309.148765 73.775471 
L 305.869427 76.19118 
L 302.590088 78.177251 
L 299.310749 80.27172 
L 296.03141 82.348552 
L 292.752071 84.604423 
L 289.472732 86.758251 
L 286.193394 88.980549 
L 282.914055 90.777461 
L 279.634716 92.934418 
L 276.355377 94.765893 
L 273.076038 96.688746 
L 269.796699 98.705193 
L 266.517361 100.498055 
L 263.238022 102.592487 
L 259.958683 104.50382 
L 256.679344 106.434568 
L 253.400005 108.299687 
L 250.120666 110.140558 
L 246.841327 111.99189 
L 243.561989 113.870403 
L 240.28265 115.698474 
L 237.003311 117.535764 
L 233.723972 119.352344 
L 230.444633 121.252911 
L 227.165294 123.032541 
L 223.885956 124.747574 
L 220.606617 126.733256 
L 217.327278 128.492175 
L 214.047939 130.285857 
L 210.7686 132.142127 
L 207.489261 134.100533 
L 204.209923 135.971534 
L 200.930584 137.710657 
L 197.651245 139.39707 
L 194.371906 141.003686 
L 191.092567 142.582375 
L 187.813228 144.370218 
L 184.533889 146.073303 
L 181.254551 147.866972 
L 177.975212 149.417639 
L 174.695873 151.030511 
L 171.416534 152.509893 
L 168.137195 154.331608 
L 164.857856 156.068637 
L 161.578518 157.751545 
L 158.299179 159.343699 
L 155.01984 161.029925 
L 151.740501 162.594748 
L 148.461162 164.198958 
L 145.181823 165.82452 
L 141.902485 167.403708 
L 138.623146 169.114376 
L 135.343807 170.744636 
L 132.064468 172.376183 
L 128.785129 174.06041 
L 125.50579 175.643418 
L 122.226451 177.274553 
L 118.947113 178.907555 
L 115.667774 180.537945 
L 112.388435 182.168335 
L 109.109096 183.801244 
L 105.829757 185.531948 
L 102.550418 187.17133 
L 99.27108 188.703288 
L 95.991741 190.326444 
L 92.712402 191.937709 
L 89.433063 193.516627 
L 86.153724 194.977186 
L 82.874385 196.621462 
L 79.595046 198.173522 
L 76.315708 199.654897 
L 73.036369 201.251844 
L 69.75703 202.898227 
L 66.477691 204.444458 
L 63.198352 206.038525 
z
" clip-path="url(#p157c5a8b6b)" style="fill: #1f77b4; fill-opacity: 0.15"/>
   </g>
   <g id="matplotlib.axis_1">
    <g id="xtick_1">
     <g id="line2d_1">
      <defs>
       <path id="m031fa35e9b" d="M 0 0 
L 0 3.5 
" style="stroke: #000000; stroke-width: 0.8"/>
      </defs>
      <g>
       <use xlink:href="#m031fa35e9b" x="81.884181" y="273.312" style="stroke: #000000; stroke-width: 0.8"/>
      </g>
     </g>
     <g id="text_1">
      <!-- 40 -->
      <g transform="translate(75.521681 287.910437) scale(0.1 -0.1)">
       <defs>
        <path id="DejaVuSans-34" d="M 2419 4116 
L 825 1625 
L 2419 1625 
L 2419 4116 
z
M 2253 4666 
L 3047 4666 
L 3047 1625 
L 3713 1625 
L 3713 1100 
L 3047 1100 
L 3047 0 
L 2419 0 
L 2419 1100 
L 313 1100 
L 313 1709 
L 2253 4666 
z
" transform="scale(0.015625)"/>
        <path id="DejaVuSans-30" d="M 2034 4250 
Q 1547 4250 1301 3770 
Q 1056 3291 1056 2328 
Q 1056 1369 1301 889 
Q 1547 409 2034 409 
Q 2525 409 2770 889 
Q 3016 1369 3016 2328 
Q 3016 3291 2770 3770 
Q 2525 4250 2034 4250 
z
M 2034 4750 
Q 2819 4750 3233 4129 
Q 3647 3509 3647 2328 
Q 3647 1150 3233 529 
Q 2819 -91 2034 -91 
Q 1250 -91 836 529 
Q 422 1150 422 2328 
Q 422 3509 836 4129 
Q 1250 4750 2034 4750 
z
" transform="scale(0.015625)"/>
       </defs>
       <use xlink:href="#DejaVuSans-34"/>
       <use xlink:href="#DejaVuSans-30" transform="translate(63.623047 0)"/>
      </g>
     </g>
    </g>
    <g id="xtick_2">
     <g id="line2d_2">
      <g>
       <use xlink:href="#m031fa35e9b" x="128.833501" y="273.312" style="stroke: #000000; stroke-width: 0.8"/>
      </g>
     </g>
     <g id="text_2">
      <!-- 60 -->
      <g transform="translate(122.471001 287.910437) scale(0.1 -0.1)">
       <defs>
        <path id="DejaVuSans-36" d="M 2113 2584 
Q 1688 2584 1439 2293 
Q 1191 2003 1191 1497 
Q 1191 994 1439 701 
Q 1688 409 2113 409 
Q 2538 409 2786 701 
Q 3034 994 3034 1497 
Q 3034 2003 2786 2293 
Q 2538 2584 2113 2584 
z
M 3366 4563 
L 3366 3988 
Q 3128 4100 2886 4159 
Q 2644 4219 2406 4219 
Q 1781 4219 1451 3797 
Q 1122 3375 1075 2522 
Q 1259 2794 1537 2939 
Q 1816 3084 2150 3084 
Q 2853 3084 3261 2657 
Q 3669 2231 3669 1497 
Q 3669 778 3244 343 
Q 2819 -91 2113 -91 
Q 1303 -91 875 529 
Q 447 1150 447 2328 
Q 447 3434 972 4092 
Q 1497 4750 2381 4750 
Q 2619 4750 2861 4703 
Q 3103 4656 3366 4563 
z
" transform="scale(0.015625)"/>
       </defs>
       <use xlink:href="#DejaVuSans-36"/>
       <use xlink:href="#DejaVuSans-30" transform="translate(63.623047 0)"/>
      </g>
     </g>
    </g>
    <g id="xtick_3">
     <g id="line2d_3">
      <g>
       <use xlink:href="#m031fa35e9b" x="175.782821" y="273.312" style="stroke: #000000; stroke-width: 0.8"/>
      </g>
     </g>
     <g id="text_3">
      <!-- 80 -->
      <g transform="translate(169.420321 287.910437) scale(0.1 -0.1)">
       <defs>
        <path id="DejaVuSans-38" d="M 2034 2216 
Q 1584 2216 1326 1975 
Q 1069 1734 1069 1313 
Q 1069 891 1326 650 
Q 1584 409 2034 409 
Q 2484 409 2743 651 
Q 3003 894 3003 1313 
Q 3003 1734 2745 1975 
Q 2488 2216 2034 2216 
z
M 1403 2484 
Q 997 2584 770 2862 
Q 544 3141 544 3541 
Q 544 4100 942 4425 
Q 1341 4750 2034 4750 
Q 2731 4750 3128 4425 
Q 3525 4100 3525 3541 
Q 3525 3141 3298 2862 
Q 3072 2584 2669 2484 
Q 3125 2378 3379 2068 
Q 3634 1759 3634 1313 
Q 3634 634 3220 271 
Q 2806 -91 2034 -91 
Q 1263 -91 848 271 
Q 434 634 434 1313 
Q 434 1759 690 2068 
Q 947 2378 1403 2484 
z
M 1172 3481 
Q 1172 3119 1398 2916 
Q 1625 2713 2034 2713 
Q 2441 2713 2670 2916 
Q 2900 3119 2900 3481 
Q 2900 3844 2670 4047 
Q 2441 4250 2034 4250 
Q 1625 4250 1398 4047 
Q 1172 3844 1172 3481 
z
" transform="scale(0.015625)"/>
       </defs>
       <use xlink:href="#DejaVuSans-38"/>
       <use xlink:href="#DejaVuSans-30" transform="translate(63.623047 0)"/>
      </g>
     </g>
    </g>
    <g id="xtick_4">
     <g id="line2d_4">
      <g>
       <use xlink:href="#m031fa35e9b" x="222.73214" y="273.312" style="stroke: #000000; stroke-width: 0.8"/>
      </g>
     </g>
     <g id="text_4">
      <!-- 100 -->
      <g transform="translate(213.18839 287.910437) scale(0.1 -0.1)">
       <defs>
        <path id="DejaVuSans-31" d="M 794 531 
L 1825 531 
L 1825 4091 
L 703 3866 
L 703 4441 
L 1819 4666 
L 2450 4666 
L 2450 531 
L 3481 531 
L 3481 0 
L 794 0 
L 794 531 
z
" transform="scale(0.015625)"/>
       </defs>
       <use xlink:href="#DejaVuSans-31"/>
       <use xlink:href="#DejaVuSans-30" transform="translate(63.623047 0)"/>
       <use xlink:href="#DejaVuSans-30" transform="translate(127.246094 0)"/>
      </g>
     </g>
    </g>
    <g id="xtick_5">
     <g id="line2d_5">
      <g>
       <use xlink:href="#m031fa35e9b" x="269.68146" y="273.312" style="stroke: #000000; stroke-width: 0.8"/>
      </g>
     </g>
     <g id="text_5">
      <!-- 120 -->
      <g transform="translate(260.13771 287.910437) scale(0.1 -0.1)">
       <defs>
        <path id="DejaVuSans-32" d="M 1228 531 
L 3431 531 
L 3431 0 
L 469 0 
L 469 531 
Q 828 903 1448 1529 
Q 2069 2156 2228 2338 
Q 2531 2678 2651 2914 
Q 2772 3150 2772 3378 
Q 2772 3750 2511 3984 
Q 2250 4219 1831 4219 
Q 1534 4219 1204 4116 
Q 875 4013 500 3803 
L 500 4441 
Q 881 4594 1212 4672 
Q 1544 4750 1819 4750 
Q 2544 4750 2975 4387 
Q 3406 4025 3406 3419 
Q 3406 3131 3298 2873 
Q 3191 2616 2906 2266 
Q 2828 2175 2409 1742 
Q 1991 1309 1228 531 
z
" transform="scale(0.015625)"/>
       </defs>
       <use xlink:href="#DejaVuSans-31"/>
       <use xlink:href="#DejaVuSans-32" transform="translate(63.623047 0)"/>
       <use xlink:href="#DejaVuSans-30" transform="translate(127.246094 0)"/>
      </g>
     </g>
    </g>
    <g id="xtick_6">
     <g id="line2d_6">
      <g>
       <use xlink:href="#m031fa35e9b" x="316.63078" y="273.312" style="stroke: #000000; stroke-width: 0.8"/>
      </g>
     </g>
     <g id="text_6">
      <!-- 140 -->
      <g transform="translate(307.08703 287.910437) scale(0.1 -0.1)">
       <use xlink:href="#DejaVuSans-31"/>
       <use xlink:href="#DejaVuSans-34" transform="translate(63.623047 0)"/>
       <use xlink:href="#DejaVuSans-30" transform="translate(127.246094 0)"/>
      </g>
     </g>
    </g>
    <g id="xtick_7">
     <g id="line2d_7">
      <g>
       <use xlink:href="#m031fa35e9b" x="363.580099" y="273.312" style="stroke: #000000; stroke-width: 0.8"/>
      </g>
     </g>
     <g id="text_7">
      <!-- 160 -->
      <g transform="translate(354.036349 287.910437) scale(0.1 -0.1)">
       <use xlink:href="#DejaVuSans-31"/>
       <use xlink:href="#DejaVuSans-36" transform="translate(63.623047 0)"/>
       <use xlink:href="#DejaVuSans-30" transform="translate(127.246094 0)"/>
      </g>
     </g>
    </g>
    <g id="text_8">
     <!-- MW -->
     <g transform="translate(216.267813 301.588562) scale(0.1 -0.1)">
      <defs>
       <path id="DejaVuSans-4d" d="M 628 4666 
L 1569 4666 
L 2759 1491 
L 3956 4666 
L 4897 4666 
L 4897 0 
L 4281 0 
L 4281 4097 
L 3078 897 
L 2444 897 
L 1241 4097 
L 1241 0 
L 628 0 
L 628 4666 
z
" transform="scale(0.015625)"/>
       <path id="DejaVuSans-57" d="M 213 4666 
L 850 4666 
L 1831 722 
L 2809 4666 
L 3519 4666 
L 4500 722 
L 5478 4666 
L 6119 4666 
L 4947 0 
L 4153 0 
L 3169 4050 
L 2175 0 
L 1381 0 
L 213 4666 
z
" transform="scale(0.015625)"/>
      </defs>
      <use xlink:href="#DejaVuSans-4d"/>
      <use xlink:href="#DejaVuSans-57" transform="translate(86.279297 0)"/>
     </g>
    </g>
   </g>
   <g id="matplotlib.axis_2">
    <g id="ytick_1">
     <g id="line2d_8">
      <defs>
       <path id="mea89f6a67b" d="M 0 0 
L -3.5 0 
" style="stroke: #000000; stroke-width: 0.8"/>
      </defs>
      <g>
       <use xlink:href="#mea89f6a67b" x="46.965625" y="263.070395" style="stroke: #000000; stroke-width: 0.8"/>
      </g>
     </g>
     <g id="text_9">
      <!-- 0 -->
      <g transform="translate(33.603125 266.869614) scale(0.1 -0.1)">
       <use xlink:href="#DejaVuSans-30"/>
      </g>
     </g>
    </g>
    <g id="ytick_2">
     <g id="line2d_9">
      <g>
       <use xlink:href="#mea89f6a67b" x="46.965625" y="214.584676" style="stroke: #000000; stroke-width: 0.8"/>
      </g>
     </g>
     <g id="text_10">
      <!-- 50 -->
      <g transform="translate(27.240625 218.383895) scale(0.1 -0.1)">
       <defs>
        <path id="DejaVuSans-35" d="M 691 4666 
L 3169 4666 
L 3169 4134 
L 1269 4134 
L 1269 2991 
Q 1406 3038 1543 3061 
Q 1681 3084 1819 3084 
Q 2600 3084 3056 2656 
Q 3513 2228 3513 1497 
Q 3513 744 3044 326 
Q 2575 -91 1722 -91 
Q 1428 -91 1123 -41 
Q 819 9 494 109 
L 494 744 
Q 775 591 1075 516 
Q 1375 441 1709 441 
Q 2250 441 2565 725 
Q 2881 1009 2881 1497 
Q 2881 1984 2565 2268 
Q 2250 2553 1709 2553 
Q 1456 2553 1204 2497 
Q 953 2441 691 2322 
L 691 4666 
z
" transform="scale(0.015625)"/>
       </defs>
       <use xlink:href="#DejaVuSans-35"/>
       <use xlink:href="#DejaVuSans-30" transform="translate(63.623047 0)"/>
      </g>
     </g>
    </g>
    <g id="ytick_3">
     <g id="line2d_10">
      <g>
       <use xlink:href="#mea89f6a67b" x="46.965625" y="166.098958" style="stroke: #000000; stroke-width: 0.8"/>
      </g>
     </g>
     <g id="text_11">
      <!-- 100 -->
      <g transform="translate(20.878125 169.898176) scale(0.1 -0.1)">
       <use xlink:href="#DejaVuSans-31"/>
       <use xlink:href="#DejaVuSans-30" transform="translate(63.623047 0)"/>
       <use xlink:href="#DejaVuSans-30" transform="translate(127.246094 0)"/>
      </g>
     </g>
    </g>
    <g id="ytick_4">
     <g id="line2d_11">
      <g>
       <use xlink:href="#mea89f6a67b" x="46.965625" y="117.613239" style="stroke: #000000; stroke-width: 0.8"/>
      </g>
     </g>
     <g id="text_12">
      <!-- 150 -->
      <g transform="translate(20.878125 121.412457) scale(0.1 -0.1)">
       <use xlink:href="#DejaVuSans-31"/>
       <use xlink:href="#DejaVuSans-35" transform="translate(63.623047 0)"/>
       <use xlink:href="#DejaVuSans-30" transform="translate(127.246094 0)"/>
      </g>
     </g>
    </g>
    <g id="ytick_5">
     <g id="line2d_12">
      <g>
       <use xlink:href="#mea89f6a67b" x="46.965625" y="69.12752" style="stroke: #000000; stroke-width: 0.8"/>
      </g>
     </g>
     <g id="text_13">
      <!-- 200 -->
      <g transform="translate(20.878125 72.926739) scale(0.1 -0.1)">
       <use xlink:href="#DejaVuSans-32"/>
       <use xlink:href="#DejaVuSans-30" transform="translate(63.623047 0)"/>
       <use xlink:href="#DejaVuSans-30" transform="translate(127.246094 0)"/>
      </g>
     </g>
    </g>
    <g id="ytick_6">
     <g id="line2d_13">
      <g>
       <use xlink:href="#mea89f6a67b" x="46.965625" y="20.641801" style="stroke: #000000; stroke-width: 0.8"/>
      </g>
     </g>
     <g id="text_14">
      <!-- 250 -->
      <g transform="translate(20.878125 24.44102) scale(0.1 -0.1)">
       <use xlink:href="#DejaVuSans-32"/>
       <use xlink:href="#DejaVuSans-35" transform="translate(63.623047 0)"/>
       <use xlink:href="#DejaVuSans-30" transform="translate(127.246094 0)"/>
      </g>
     </g>
    </g>
    <g id="text_15">
     <!-- bp -->
     <g transform="translate(14.798438 146.604437) rotate(-90) scale(0.1 -0.1)">
      <defs>
       <path id="DejaVuSans-62" d="M 3116 1747 
Q 3116 2381 2855 2742 
Q 2594 3103 2138 3103 
Q 1681 3103 1420 2742 
Q 1159 2381 1159 1747 
Q 1159 1113 1420 752 
Q 1681 391 2138 391 
Q 2594 391 2855 752 
Q 3116 1113 3116 1747 
z
M 1159 2969 
Q 1341 3281 1617 3432 
Q 1894 3584 2278 3584 
Q 2916 3584 3314 3078 
Q 3713 2572 3713 1747 
Q 3713 922 3314 415 
Q 2916 -91 2278 -91 
Q 1894 -91 1617 61 
Q 1341 213 1159 525 
L 1159 0 
L 581 0 
L 581 4863 
L 1159 4863 
L 1159 2969 
z
" transform="scale(0.015625)"/>
       <path id="DejaVuSans-70" d="M 1159 525 
L 1159 -1331 
L 581 -1331 
L 581 3500 
L 1159 3500 
L 1159 2969 
Q 1341 3281 1617 3432 
Q 1894 3584 2278 3584 
Q 2916 3584 3314 3078 
Q 3713 2572 3713 1747 
Q 3713 922 3314 415 
Q 2916 -91 2278 -91 
Q 1894 -91 1617 61 
Q 1341 213 1159 525 
z
M 3116 1747 
Q 3116 2381 2855 2742 
Q 2594 3103 2138 3103 
Q 1681 3103 1420 2742 
Q 1159 2381 1159 1747 
Q 1159 1113 1420 752 
Q 1681 391 2138 391 
Q 2594 391 2855 752 
Q 3116 1113 3116 1747 
z
" transform="scale(0.015625)"/>
      </defs>
      <use xlink:href="#DejaVuSans-62"/>
      <use xlink:href="#DejaVuSans-70" transform="translate(63.476562 0)"/>
     </g>
    </g>
   </g>
   <g id="line2d_14">
    <path d="M 63.198352 229.142094 
L 66.477691 227.246559 
L 69.75703 225.351024 
L 73.036369 223.455489 
L 76.315708 221.559954 
L 79.595046 219.664419 
L 82.874385 217.768884 
L 86.153724 215.873349 
L 89.433063 213.977814 
L 92.712402 212.082279 
L 95.991741 210.186744 
L 99.27108 208.291209 
L 102.550418 206.395674 
L 105.829757 204.500139 
L 109.109096 202.604604 
L 112.388435 200.709069 
L 115.667774 198.813534 
L 118.947113 196.917999 
L 122.226451 195.022464 
L 125.50579 193.126929 
L 128.785129 191.231394 
L 132.064468 189.33586 
L 135.343807 187.440325 
L 138.623146 185.54479 
L 141.902485 183.649255 
L 145.181823 181.75372 
L 148.461162 179.858185 
L 151.740501 177.96265 
L 155.01984 176.067115 
L 158.299179 174.17158 
L 161.578518 172.276045 
L 164.857856 170.38051 
L 168.137195 168.484975 
L 171.416534 166.58944 
L 174.695873 164.693905 
L 177.975212 162.79837 
L 181.254551 160.902835 
L 184.533889 159.0073 
L 187.813228 157.111765 
L 191.092567 155.21623 
L 194.371906 153.320695 
L 197.651245 151.42516 
L 200.930584 149.529625 
L 204.209923 147.634091 
L 207.489261 145.738556 
L 210.7686 143.843021 
L 214.047939 141.947486 
L 217.327278 140.051951 
L 220.606617 138.156416 
L 223.885956 136.260881 
L 227.165294 134.365346 
L 230.444633 132.469811 
L 233.723972 130.574276 
L 237.003311 128.678741 
L 240.28265 126.783206 
L 243.561989 124.887671 
L 246.841327 122.992136 
L 250.120666 121.096601 
L 253.400005 119.201066 
L 256.679344 117.305531 
L 259.958683 115.409996 
L 263.238022 113.514461 
L 266.517361 111.618926 
L 269.796699 109.723391 
L 273.076038 107.827857 
L 276.355377 105.932322 
L 279.634716 104.036787 
L 282.914055 102.141252 
L 286.193394 100.245717 
L 289.472732 98.350182 
L 292.752071 96.454647 
L 296.03141 94.559112 
L 299.310749 92.663577 
L 302.590088 90.768042 
L 305.869427 88.872507 
L 309.148765 86.976972 
L 312.428104 85.081437 
L 315.707443 83.185902 
L 318.986782 81.290367 
L 322.266121 79.394832 
L 325.54546 77.499297 
L 328.824799 75.603762 
L 332.104137 73.708227 
L 335.383476 71.812692 
L 338.662815 69.917157 
L 341.942154 68.021622 
L 345.221493 66.126088 
L 348.500832 64.230553 
L 351.78017 62.335018 
L 355.059509 60.439483 
L 358.338848 58.543948 
L 361.618187 56.648413 
L 364.897526 54.752878 
L 368.176865 52.857343 
L 371.456204 50.961808 
L 374.735542 49.066273 
L 378.014881 47.170738 
L 381.29422 45.275203 
L 384.573559 43.379668 
L 387.852898 41.484133 
" clip-path="url(#p157c5a8b6b)" style="fill: none; stroke: #1f77b4; stroke-width: 2.25; stroke-linecap: square"/>
   </g>
   <g id="patch_3">
    <path d="M 46.965625 273.312 
L 46.965625 7.2 
" style="fill: none; stroke: #000000; stroke-width: 0.8; stroke-linejoin: miter; stroke-linecap: square"/>
   </g>
   <g id="patch_4">
    <path d="M 404.085625 273.312 
L 404.085625 7.2 
" style="fill: none; stroke: #000000; stroke-width: 0.8; stroke-linejoin: miter; stroke-linecap: square"/>
   </g>
   <g id="patch_5">
    <path d="M 46.965625 273.312 
L 404.085625 273.312 
" style="fill: none; stroke: #000000; stroke-width: 0.8; stroke-linejoin: miter; stroke-linecap: square"/>
   </g>
   <g id="patch_6">
    <path d="M 46.965625 7.2 
L 404.085625 7.2 
" style="fill: none; stroke: #000000; stroke-width: 0.8; stroke-linejoin: miter; stroke-linecap: square"/>
   </g>
  </g>
 </g>
 <defs>
  <clipPath id="p157c5a8b6b">
   <rect x="46.965625" y="7.2" width="357.12" height="266.112"/>
  </clipPath>
 </defs>
</svg>