<?xml version="1.0" encoding="utf-8" standalone="no"?>
<!DOCTYPE svg PUBLIC "-//W3C//DTD SVG 1.1//EN"
  "http://www.w3.org/Graphics/SVG/1.1/DTD/svg11.dtd">
<svg xmlns:xlink="http://www.w3.org/1999/xlink" width="394.423125pt" height="297.282379pt" viewBox="0 0 394.423125 297.282379" xmlns="http://www.w3.org/2000/svg" version="1.1">
 <metadata>
  <rdf:RDF xmlns:dc="http://purl.org/dc/elements/1.1/" xmlns:cc="http://creativecommons.org/ns#" xmlns:rdf="http://www.w3.org/1999/02/22-rdf-syntax-ns#">
   <cc:Work>
    <dc:type rdf:resource="http://purl.org/dc/dcmitype/StillImage"/>
    <dc:date>2025-07-12T15:01:36.613755</dc:date>
    <dc:format>image/svg+xml</dc:format>
    <dc:creator>
     <cc:Agent>
      <dc:title>Matplotlib v3.10.3, https://matplotlib.org/</dc:title>
     </cc:Agent>
    </dc:creator>
   </cc:Work>
  </rdf:RDF>
 </metadata>
 <defs>
  <style type="text/css">*{stroke-linejoin: round; stroke-linecap: butt}</style>
 </defs>
 <g id="figure_1">
  <g id="patch_1">
   <path d="M 0 297.282379 
L 394.423125 297.282379 
L 394.423125 0 
L 0 0 
z
" style="fill: #ffffff"/>
  </g>
  <g id="axes_1">
   <g id="patch_2">
    <path d="M 30.103125 273.404254 
L 387.223125 273.404254 
L 387.223125 7.292254 
L 30.103125 7.292254 
z
" style="fill: #ffffff"/>
   </g>
   <g id="matplotlib.axis_1">
    <g id="xtick_1">
     <g id="line2d_1">
      <defs>
       <path id="ma8e57ce315" d="M 0 0 
L 0 3.5 
" style="stroke: #000000; stroke-width: 0.8"/>
      </defs>
      <g>
       <use xlink:href="#ma8e57ce315" x="46.335852" y="273.404254" style="stroke: #000000; stroke-width: 0.8"/>
      </g>
     </g>
     <g id="text_1">
      <!-- 0 -->
      <g transform="translate(43.154602 288.002691) scale(0.1 -0.1)">
       <defs>
        <path id="DejaVuSans-30" d="M 2034 4250 
Q 1547 4250 1301 3770 
Q 1056 3291 1056 2328 
Q 1056 1369 1301 889 
Q 1547 409 2034 409 
Q 2525 409 2770 889 
Q 3016 1369 3016 2328 
Q 3016 3291 2770 3770 
Q 2525 4250 2034 4250 
z
M 2034 4750 
Q 2819 4750 3233 4129 
Q 3647 3509 3647 2328 
Q 3647 1150 3233 529 
Q 2819 -91 2034 -91 
Q 1250 -91 836 529 
Q 422 1150 422 2328 
Q 422 3509 836 4129 
Q 1250 4750 2034 4750 
z
" transform="scale(0.015625)"/>
       </defs>
       <use xlink:href="#DejaVuSans-30"/>
      </g>
     </g>
    </g>
    <g id="xtick_2">
     <g id="line2d_2">
      <g>
       <use xlink:href="#ma8e57ce315" x="90.506539" y="273.404254" style="stroke: #000000; stroke-width: 0.8"/>
      </g>
     </g>
     <g id="text_2">
      <!-- 5 -->
      <g transform="translate(87.325289 288.002691) scale(0.1 -0.1)">
       <defs>
        <path id="DejaVuSans-35" d="M 691 4666 
L 3169 4666 
L 3169 4134 
L 1269 4134 
L 1269 2991 
Q 1406 3038 1543 3061 
Q 1681 3084 1819 3084 
Q 2600 3084 3056 2656 
Q 3513 2228 3513 1497 
Q 3513 744 3044 326 
Q 2575 -91 1722 -91 
Q 1428 -91 1123 -41 
Q 819 9 494 109 
L 494 744 
Q 775 591 1075 516 
Q 1375 441 1709 441 
Q 2250 441 2565 725 
Q 2881 1009 2881 1497 
Q 2881 1984 2565 2268 
Q 2250 2553 1709 2553 
Q 1456 2553 1204 2497 
Q 953 2441 691 2322 
L 691 4666 
z
" transform="scale(0.015625)"/>
       </defs>
       <use xlink:href="#DejaVuSans-35"/>
      </g>
     </g>
    </g>
    <g id="xtick_3">
     <g id="line2d_3">
      <g>
       <use xlink:href="#ma8e57ce315" x="134.677225" y="273.404254" style="stroke: #000000; stroke-width: 0.8"/>
      </g>
     </g>
     <g id="text_3">
      <!-- 10 -->
      <g transform="translate(128.314725 288.002691) scale(0.1 -0.1)">
       <defs>
        <path id="DejaVuSans-31" d="M 794 531 
L 1825 531 
L 1825 4091 
L 703 3866 
L 703 4441 
L 1819 4666 
L 2450 4666 
L 2450 531 
L 3481 531 
L 3481 0 
L 794 0 
L 794 531 
z
" transform="scale(0.015625)"/>
       </defs>
       <use xlink:href="#DejaVuSans-31"/>
       <use xlink:href="#DejaVuSans-30" transform="translate(63.623047 0)"/>
      </g>
     </g>
    </g>
    <g id="xtick_4">
     <g id="line2d_4">
      <g>
       <use xlink:href="#ma8e57ce315" x="178.847912" y="273.404254" style="stroke: #000000; stroke-width: 0.8"/>
      </g>
     </g>
     <g id="text_4">
      <!-- 15 -->
      <g transform="translate(172.485412 288.002691) scale(0.1 -0.1)">
       <use xlink:href="#DejaVuSans-31"/>
       <use xlink:href="#DejaVuSans-35" transform="translate(63.623047 0)"/>
      </g>
     </g>
    </g>
    <g id="xtick_5">
     <g id="line2d_5">
      <g>
       <use xlink:href="#ma8e57ce315" x="223.018598" y="273.404254" style="stroke: #000000; stroke-width: 0.8"/>
      </g>
     </g>
     <g id="text_5">
      <!-- 20 -->
      <g transform="translate(216.656098 288.002691) scale(0.1 -0.1)">
       <defs>
        <path id="DejaVuSans-32" d="M 1228 531 
L 3431 531 
L 3431 0 
L 469 0 
L 469 531 
Q 828 903 1448 1529 
Q 2069 2156 2228 2338 
Q 2531 2678 2651 2914 
Q 2772 3150 2772 3378 
Q 2772 3750 2511 3984 
Q 2250 4219 1831 4219 
Q 1534 4219 1204 4116 
Q 875 4013 500 3803 
L 500 4441 
Q 881 4594 1212 4672 
Q 1544 4750 1819 4750 
Q 2544 4750 2975 4387 
Q 3406 4025 3406 3419 
Q 3406 3131 3298 2873 
Q 3191 2616 2906 2266 
Q 2828 2175 2409 1742 
Q 1991 1309 1228 531 
z
" transform="scale(0.015625)"/>
       </defs>
       <use xlink:href="#DejaVuSans-32"/>
       <use xlink:href="#DejaVuSans-30" transform="translate(63.623047 0)"/>
      </g>
     </g>
    </g>
    <g id="xtick_6">
     <g id="line2d_6">
      <g>
       <use xlink:href="#ma8e57ce315" x="267.189285" y="273.404254" style="stroke: #000000; stroke-width: 0.8"/>
      </g>
     </g>
     <g id="text_6">
      <!-- 25 -->
      <g transform="translate(260.826785 288.002691) scale(0.1 -0.1)">
       <use xlink:href="#DejaVuSans-32"/>
       <use xlink:href="#DejaVuSans-35" transform="translate(63.623047 0)"/>
      </g>
     </g>
    </g>
    <g id="xtick_7">
     <g id="line2d_7">
      <g>
       <use xlink:href="#ma8e57ce315" x="311.359971" y="273.404254" style="stroke: #000000; stroke-width: 0.8"/>
      </g>
     </g>
     <g id="text_7">
      <!-- 30 -->
      <g transform="translate(304.997471 288.002691) scale(0.1 -0.1)">
       <defs>
        <path id="DejaVuSans-33" d="M 2597 2516 
Q 3050 2419 3304 2112 
Q 3559 1806 3559 1356 
Q 3559 666 3084 287 
Q 2609 -91 1734 -91 
Q 1441 -91 1130 -33 
Q 819 25 488 141 
L 488 750 
Q 750 597 1062 519 
Q 1375 441 1716 441 
Q 2309 441 2620 675 
Q 2931 909 2931 1356 
Q 2931 1769 2642 2001 
Q 2353 2234 1838 2234 
L 1294 2234 
L 1294 2753 
L 1863 2753 
Q 2328 2753 2575 2939 
Q 2822 3125 2822 3475 
Q 2822 3834 2567 4026 
Q 2313 4219 1838 4219 
Q 1578 4219 1281 4162 
Q 984 4106 628 3988 
L 628 4550 
Q 988 4650 1302 4700 
Q 1616 4750 1894 4750 
Q 2613 4750 3031 4423 
Q 3450 4097 3450 3541 
Q 3450 3153 3228 2886 
Q 3006 2619 2597 2516 
z
" transform="scale(0.015625)"/>
       </defs>
       <use xlink:href="#DejaVuSans-33"/>
       <use xlink:href="#DejaVuSans-30" transform="translate(63.623047 0)"/>
      </g>
     </g>
    </g>
    <g id="xtick_8">
     <g id="line2d_8">
      <g>
       <use xlink:href="#ma8e57ce315" x="355.530657" y="273.404254" style="stroke: #000000; stroke-width: 0.8"/>
      </g>
     </g>
     <g id="text_8">
      <!-- 35 -->
      <g transform="translate(349.168157 288.002691) scale(0.1 -0.1)">
       <use xlink:href="#DejaVuSans-33"/>
       <use xlink:href="#DejaVuSans-35" transform="translate(63.623047 0)"/>
      </g>
     </g>
    </g>
   </g>
   <g id="matplotlib.axis_2">
    <g id="ytick_1">
     <g id="line2d_9">
      <defs>
       <path id="mb4e993525f" d="M 0 0 
L -3.5 0 
" style="stroke: #000000; stroke-width: 0.8"/>
      </defs>
      <g>
       <use xlink:href="#mb4e993525f" x="30.103125" y="233.227958" style="stroke: #000000; stroke-width: 0.8"/>
      </g>
     </g>
     <g id="text_9">
      <!-- 0.0 -->
      <g transform="translate(7.2 237.027176) scale(0.1 -0.1)">
       <defs>
        <path id="DejaVuSans-2e" d="M 684 794 
L 1344 794 
L 1344 0 
L 684 0 
L 684 794 
z
" transform="scale(0.015625)"/>
       </defs>
       <use xlink:href="#DejaVuSans-30"/>
       <use xlink:href="#DejaVuSans-2e" transform="translate(63.623047 0)"/>
       <use xlink:href="#DejaVuSans-30" transform="translate(95.410156 0)"/>
      </g>
     </g>
    </g>
    <g id="ytick_2">
     <g id="line2d_10">
      <g>
       <use xlink:href="#mb4e993525f" x="30.103125" y="177.670773" style="stroke: #000000; stroke-width: 0.8"/>
      </g>
     </g>
     <g id="text_10">
      <!-- 0.1 -->
      <g transform="translate(7.2 181.469992) scale(0.1 -0.1)">
       <use xlink:href="#DejaVuSans-30"/>
       <use xlink:href="#DejaVuSans-2e" transform="translate(63.623047 0)"/>
       <use xlink:href="#DejaVuSans-31" transform="translate(95.410156 0)"/>
      </g>
     </g>
    </g>
    <g id="ytick_3">
     <g id="line2d_11">
      <g>
       <use xlink:href="#mb4e993525f" x="30.103125" y="122.113588" style="stroke: #000000; stroke-width: 0.8"/>
      </g>
     </g>
     <g id="text_11">
      <!-- 0.2 -->
      <g transform="translate(7.2 125.912807) scale(0.1 -0.1)">
       <use xlink:href="#DejaVuSans-30"/>
       <use xlink:href="#DejaVuSans-2e" transform="translate(63.623047 0)"/>
       <use xlink:href="#DejaVuSans-32" transform="translate(95.410156 0)"/>
      </g>
     </g>
    </g>
    <g id="ytick_4">
     <g id="line2d_12">
      <g>
       <use xlink:href="#mb4e993525f" x="30.103125" y="66.556403" style="stroke: #000000; stroke-width: 0.8"/>
      </g>
     </g>
     <g id="text_12">
      <!-- 0.3 -->
      <g transform="translate(7.2 70.355622) scale(0.1 -0.1)">
       <use xlink:href="#DejaVuSans-30"/>
       <use xlink:href="#DejaVuSans-2e" transform="translate(63.623047 0)"/>
       <use xlink:href="#DejaVuSans-33" transform="translate(95.410156 0)"/>
      </g>
     </g>
    </g>
    <g id="ytick_5">
     <g id="line2d_13">
      <g>
       <use xlink:href="#mb4e993525f" x="30.103125" y="10.999219" style="stroke: #000000; stroke-width: 0.8"/>
      </g>
     </g>
     <g id="text_13">
      <!-- 0.4 -->
      <g transform="translate(7.2 14.798437) scale(0.1 -0.1)">
       <defs>
        <path id="DejaVuSans-34" d="M 2419 4116 
L 825 1625 
L 2419 1625 
L 2419 4116 
z
M 2253 4666 
L 3047 4666 
L 3047 1625 
L 3713 1625 
L 3713 1100 
L 3047 1100 
L 3047 0 
L 2419 0 
L 2419 1100 
L 313 1100 
L 313 1709 
L 2253 4666 
z
" transform="scale(0.015625)"/>
       </defs>
       <use xlink:href="#DejaVuSans-30"/>
       <use xlink:href="#DejaVuSans-2e" transform="translate(63.623047 0)"/>
       <use xlink:href="#DejaVuSans-34" transform="translate(95.410156 0)"/>
      </g>
     </g>
    </g>
   </g>
   <g id="line2d_14">
    <path d="M 46.335852 19.388254 
L 52.961455 143.019588 
L 59.587058 211.611235 
L 66.212661 245.854298 
L 72.838264 259.450368 
L 79.463867 261.308254 
L 86.08947 257.085001 
L 92.715073 250.259518 
L 99.340676 242.874643 
L 105.966279 236.045275 
L 112.591882 230.302452 
L 119.217485 225.823204 
L 125.843088 222.581506 
L 132.468691 220.445282 
L 139.094294 219.236925 
L 145.719897 218.769503 
L 152.3455 218.867051 
L 158.971103 219.374696 
L 165.596706 220.162463 
L 172.222309 221.125378 
L 178.847912 222.181513 
L 185.473515 223.269074 
L 192.099118 224.343165 
L 198.724721 225.372643 
L 205.350324 226.337234 
L 211.975926 227.225045 
L 218.601529 228.030455 
L 225.227132 228.752405 
L 231.852735 229.393025 
L 238.478338 229.956565 
L 245.103941 230.44858 
L 251.729544 230.875318 
L 258.355147 231.243283 
L 264.98075 231.558918 
L 271.606353 231.828398 
L 278.231956 232.057502 
L 284.857559 232.251531 
L 291.483162 232.415278 
L 298.108765 232.553026 
L 304.734368 232.668559 
L 311.359971 232.765195 
L 317.985574 232.84582 
L 324.611177 232.912929 
L 331.23678 232.968664 
L 337.862383 233.014859 
L 344.487986 233.053072 
L 351.113589 233.084626 
L 357.739192 233.110637 
L 364.364795 233.132045 
L 370.990398 233.149637 
" clip-path="url(#p432082c5d4)" style="fill: none; stroke: #008000; stroke-width: 1.5; stroke-linecap: square"/>
    <defs>
     <path id="me46a87e460" d="M 0 1.5 
C 0.397805 1.5 0.77937 1.341951 1.06066 1.06066 
C 1.341951 0.77937 1.5 0.397805 1.5 0 
C 1.5 -0.397805 1.341951 -0.77937 1.06066 -1.06066 
C 0.77937 -1.341951 0.397805 -1.5 0 -1.5 
C -0.397805 -1.5 -0.77937 -1.341951 -1.06066 -1.06066 
C -1.341951 -0.77937 -1.5 -0.397805 -1.5 0 
C -1.5 0.397805 -1.341951 0.77937 -1.06066 1.06066 
C -0.77937 1.341951 -0.397805 1.5 0 1.5 
z
" style="stroke: #008000"/>
    </defs>
    <g clip-path="url(#p432082c5d4)">
     <use xlink:href="#me46a87e460" x="46.335852" y="19.388254" style="fill: #008000; stroke: #008000"/>
     <use xlink:href="#me46a87e460" x="52.961455" y="143.019588" style="fill: #008000; stroke: #008000"/>
     <use xlink:href="#me46a87e460" x="59.587058" y="211.611235" style="fill: #008000; stroke: #008000"/>
     <use xlink:href="#me46a87e460" x="66.212661" y="245.854298" style="fill: #008000; stroke: #008000"/>
     <use xlink:href="#me46a87e460" x="72.838264" y="259.450368" style="fill: #008000; stroke: #008000"/>
     <use xlink:href="#me46a87e460" x="79.463867" y="261.308254" style="fill: #008000; stroke: #008000"/>
     <use xlink:href="#me46a87e460" x="86.08947" y="257.085001" style="fill: #008000; stroke: #008000"/>
     <use xlink:href="#me46a87e460" x="92.715073" y="250.259518" style="fill: #008000; stroke: #008000"/>
     <use xlink:href="#me46a87e460" x="99.340676" y="242.874643" style="fill: #008000; stroke: #008000"/>
     <use xlink:href="#me46a87e460" x="105.966279" y="236.045275" style="fill: #008000; stroke: #008000"/>
     <use xlink:href="#me46a87e460" x="112.591882" y="230.302452" style="fill: #008000; stroke: #008000"/>
     <use xlink:href="#me46a87e460" x="119.217485" y="225.823204" style="fill: #008000; stroke: #008000"/>
     <use xlink:href="#me46a87e460" x="125.843088" y="222.581506" style="fill: #008000; stroke: #008000"/>
     <use xlink:href="#me46a87e460" x="132.468691" y="220.445282" style="fill: #008000; stroke: #008000"/>
     <use xlink:href="#me46a87e460" x="139.094294" y="219.236925" style="fill: #008000; stroke: #008000"/>
     <use xlink:href="#me46a87e460" x="145.719897" y="218.769503" style="fill: #008000; stroke: #008000"/>
     <use xlink:href="#me46a87e460" x="152.3455" y="218.867051" style="fill: #008000; stroke: #008000"/>
     <use xlink:href="#me46a87e460" x="158.971103" y="219.374696" style="fill: #008000; stroke: #008000"/>
     <use xlink:href="#me46a87e460" x="165.596706" y="220.162463" style="fill: #008000; stroke: #008000"/>
     <use xlink:href="#me46a87e460" x="172.222309" y="221.125378" style="fill: #008000; stroke: #008000"/>
     <use xlink:href="#me46a87e460" x="178.847912" y="222.181513" style="fill: #008000; stroke: #008000"/>
     <use xlink:href="#me46a87e460" x="185.473515" y="223.269074" style="fill: #008000; stroke: #008000"/>
     <use xlink:href="#me46a87e460" x="192.099118" y="224.343165" style="fill: #008000; stroke: #008000"/>
     <use xlink:href="#me46a87e460" x="198.724721" y="225.372643" style="fill: #008000; stroke: #008000"/>
     <use xlink:href="#me46a87e460" x="205.350324" y="226.337234" style="fill: #008000; stroke: #008000"/>
     <use xlink:href="#me46a87e460" x="211.975926" y="227.225045" style="fill: #008000; stroke: #008000"/>
     <use xlink:href="#me46a87e460" x="218.601529" y="228.030455" style="fill: #008000; stroke: #008000"/>
     <use xlink:href="#me46a87e460" x="225.227132" y="228.752405" style="fill: #008000; stroke: #008000"/>
     <use xlink:href="#me46a87e460" x="231.852735" y="229.393025" style="fill: #008000; stroke: #008000"/>
     <use xlink:href="#me46a87e460" x="238.478338" y="229.956565" style="fill: #008000; stroke: #008000"/>
     <use xlink:href="#me46a87e460" x="245.103941" y="230.44858" style="fill: #008000; stroke: #008000"/>
     <use xlink:href="#me46a87e460" x="251.729544" y="230.875318" style="fill: #008000; stroke: #008000"/>
     <use xlink:href="#me46a87e460" x="258.355147" y="231.243283" style="fill: #008000; stroke: #008000"/>
     <use xlink:href="#me46a87e460" x="264.98075" y="231.558918" style="fill: #008000; stroke: #008000"/>
     <use xlink:href="#me46a87e460" x="271.606353" y="231.828398" style="fill: #008000; stroke: #008000"/>
     <use xlink:href="#me46a87e460" x="278.231956" y="232.057502" style="fill: #008000; stroke: #008000"/>
     <use xlink:href="#me46a87e460" x="284.857559" y="232.251531" style="fill: #008000; stroke: #008000"/>
     <use xlink:href="#me46a87e460" x="291.483162" y="232.415278" style="fill: #008000; stroke: #008000"/>
     <use xlink:href="#me46a87e460" x="298.108765" y="232.553026" style="fill: #008000; stroke: #008000"/>
     <use xlink:href="#me46a87e460" x="304.734368" y="232.668559" style="fill: #008000; stroke: #008000"/>
     <use xlink:href="#me46a87e460" x="311.359971" y="232.765195" style="fill: #008000; stroke: #008000"/>
     <use xlink:href="#me46a87e460" x="317.985574" y="232.84582" style="fill: #008000; stroke: #008000"/>
     <use xlink:href="#me46a87e460" x="324.611177" y="232.912929" style="fill: #008000; stroke: #008000"/>
     <use xlink:href="#me46a87e460" x="331.23678" y="232.968664" style="fill: #008000; stroke: #008000"/>
     <use xlink:href="#me46a87e460" x="337.862383" y="233.014859" style="fill: #008000; stroke: #008000"/>
     <use xlink:href="#me46a87e460" x="344.487986" y="233.053072" style="fill: #008000; stroke: #008000"/>
     <use xlink:href="#me46a87e460" x="351.113589" y="233.084626" style="fill: #008000; stroke: #008000"/>
     <use xlink:href="#me46a87e460" x="357.739192" y="233.110637" style="fill: #008000; stroke: #008000"/>
     <use xlink:href="#me46a87e460" x="364.364795" y="233.132045" style="fill: #008000; stroke: #008000"/>
     <use xlink:href="#me46a87e460" x="370.990398" y="233.149637" style="fill: #008000; stroke: #008000"/>
    </g>
   </g>
   <g id="patch_3">
    <path d="M 30.103125 273.404254 
L 30.103125 7.292254 
" style="fill: none; stroke: #000000; stroke-width: 0.8; stroke-linejoin: miter; stroke-linecap: square"/>
   </g>
   <g id="patch_4">
    <path d="M 387.223125 273.404254 
L 387.223125 7.292254 
" style="fill: none; stroke: #000000; stroke-width: 0.8; stroke-linejoin: miter; stroke-linecap: square"/>
   </g>
   <g id="patch_5">
    <path d="M 30.103125 273.404254 
L 387.223125 273.404254 
" style="fill: none; stroke: #000000; stroke-width: 0.8; stroke-linejoin: miter; stroke-linecap: square"/>
   </g>
   <g id="patch_6">
    <path d="M 30.103125 7.292254 
L 387.223125 7.292254 
" style="fill: none; stroke: #000000; stroke-width: 0.8; stroke-linejoin: miter; stroke-linecap: square"/>
   </g>
  </g>
 </g>
 <defs>
  <clipPath id="p432082c5d4">
   <rect x="30.103125" y="7.292254" width="357.12" height="266.112"/>
  </clipPath>
 </defs>
</svg>