<?xml version="1.0" encoding="utf-8" standalone="no"?>
<!DOCTYPE svg PUBLIC "-//W3C//DTD SVG 1.1//EN"
  "http://www.w3.org/Graphics/SVG/1.1/DTD/svg11.dtd">
<svg xmlns:xlink="http://www.w3.org/1999/xlink" width="420.188935pt" height="351.99625pt" viewBox="0 0 420.188935 351.99625" xmlns="http://www.w3.org/2000/svg" version="1.1">
 <metadata>
  <rdf:RDF xmlns:dc="http://purl.org/dc/elements/1.1/" xmlns:cc="http://creativecommons.org/ns#" xmlns:rdf="http://www.w3.org/1999/02/22-rdf-syntax-ns#">
   <cc:Work>
    <dc:type rdf:resource="http://purl.org/dc/dcmitype/StillImage"/>
    <dc:date>2023-09-03T08:33:34.699280</dc:date>
    <dc:format>image/svg+xml</dc:format>
    <dc:creator>
     <cc:Agent>
      <dc:title>Matplotlib v3.7.2, https://matplotlib.org/</dc:title>
     </cc:Agent>
    </dc:creator>
   </cc:Work>
  </rdf:RDF>
 </metadata>
 <defs>
  <style type="text/css">*{stroke-linejoin: round; stroke-linecap: butt}</style>
 </defs>
 <g id="figure_1">
  <g id="patch_1">
   <path d="M 0 351.99625 
L 420.188935 351.99625 
L 420.188935 0 
L 0 0 
z
" style="fill: #ffffff"/>
  </g>
  <g id="axes_1">
   <g id="patch_2">
    <path d="M 47.1875 314.44 
L 341.850735 314.44 
L 341.850735 7.2 
L 47.1875 7.2 
z
" style="fill: #ffffff"/>
   </g>
   <g id="PathCollection_1">
    <defs>
     <path id="m5a62bb2400" d="M 0 3 
C 0.795609 3 1.55874 2.683901 2.12132 2.12132 
C 2.683901 1.55874 3 0.795609 3 0 
C 3 -0.795609 2.683901 -1.55874 2.12132 -2.12132 
C 1.55874 -2.683901 0.795609 -3 0 -3 
C -0.795609 -3 -1.55874 -2.683901 -2.12132 -2.12132 
C -2.683901 -1.55874 -3 -0.795609 -3 0 
C -3 0.795609 -2.683901 1.55874 -2.12132 2.12132 
C -1.55874 2.683901 -0.795609 3 0 3 
z
" style="stroke: #1f77b4; stroke-opacity: 0.8"/>
    </defs>
    <g clip-path="url(#p3315725542)">
     <use xlink:href="#m5a62bb2400" x="60.581283" y="254.450919" style="fill: #1f77b4; fill-opacity: 0.8; stroke: #1f77b4; stroke-opacity: 0.8"/>
     <use xlink:href="#m5a62bb2400" x="87.756234" y="238.280456" style="fill: #1f77b4; fill-opacity: 0.8; stroke: #1f77b4; stroke-opacity: 0.8"/>
     <use xlink:href="#m5a62bb2400" x="114.931184" y="213.402821" style="fill: #1f77b4; fill-opacity: 0.8; stroke: #1f77b4; stroke-opacity: 0.8"/>
     <use xlink:href="#m5a62bb2400" x="142.086765" y="188.525185" style="fill: #1f77b4; fill-opacity: 0.8; stroke: #1f77b4; stroke-opacity: 0.8"/>
     <use xlink:href="#m5a62bb2400" x="169.261715" y="162.403668" style="fill: #1f77b4; fill-opacity: 0.8; stroke: #1f77b4; stroke-opacity: 0.8"/>
     <use xlink:href="#m5a62bb2400" x="196.436666" y="140.013796" style="fill: #1f77b4; fill-opacity: 0.8; stroke: #1f77b4; stroke-opacity: 0.8"/>
     <use xlink:href="#m5a62bb2400" x="223.592247" y="116.380042" style="fill: #1f77b4; fill-opacity: 0.8; stroke: #1f77b4; stroke-opacity: 0.8"/>
     <use xlink:href="#m5a62bb2400" x="250.767197" y="92.746288" style="fill: #1f77b4; fill-opacity: 0.8; stroke: #1f77b4; stroke-opacity: 0.8"/>
     <use xlink:href="#m5a62bb2400" x="277.922778" y="71.600297" style="fill: #1f77b4; fill-opacity: 0.8; stroke: #1f77b4; stroke-opacity: 0.8"/>
     <use xlink:href="#m5a62bb2400" x="305.097728" y="46.722662" style="fill: #1f77b4; fill-opacity: 0.8; stroke: #1f77b4; stroke-opacity: 0.8"/>
     <use xlink:href="#m5a62bb2400" x="142.086765" y="200.964003" style="fill: #1f77b4; fill-opacity: 0.8; stroke: #1f77b4; stroke-opacity: 0.8"/>
     <use xlink:href="#m5a62bb2400" x="142.086765" y="232.061047" style="fill: #1f77b4; fill-opacity: 0.8; stroke: #1f77b4; stroke-opacity: 0.8"/>
     <use xlink:href="#m5a62bb2400" x="169.261715" y="172.354722" style="fill: #1f77b4; fill-opacity: 0.8; stroke: #1f77b4; stroke-opacity: 0.8"/>
     <use xlink:href="#m5a62bb2400" x="196.436666" y="167.379195" style="fill: #1f77b4; fill-opacity: 0.8; stroke: #1f77b4; stroke-opacity: 0.8"/>
     <use xlink:href="#m5a62bb2400" x="223.592247" y="161.159786" style="fill: #1f77b4; fill-opacity: 0.8; stroke: #1f77b4; stroke-opacity: 0.8"/>
     <use xlink:href="#m5a62bb2400" x="180.805743" y="108.916751" style="fill: #1f77b4; fill-opacity: 0.8; stroke: #1f77b4; stroke-opacity: 0.8"/>
     <use xlink:href="#m5a62bb2400" x="207.980693" y="84.039115" style="fill: #1f77b4; fill-opacity: 0.8; stroke: #1f77b4; stroke-opacity: 0.8"/>
     <use xlink:href="#m5a62bb2400" x="262.311224" y="61.649243" style="fill: #1f77b4; fill-opacity: 0.8; stroke: #1f77b4; stroke-opacity: 0.8"/>
    </g>
   </g>
   <g id="PolyCollection_1">
    <path d="M 60.581283 251.419643 
L 60.581283 284.180331 
L 63.051146 281.433391 
L 65.52101 279.009156 
L 67.990873 276.647933 
L 70.460736 274.149039 
L 72.930599 271.626129 
L 75.400462 269.104744 
L 77.870325 266.734979 
L 80.340188 264.227189 
L 82.810051 261.636187 
L 85.279914 259.069332 
L 87.749777 256.652562 
L 90.21964 254.118749 
L 92.689503 251.579874 
L 95.159367 249.040999 
L 97.62923 246.502124 
L 100.099093 243.954014 
L 102.568956 241.428873 
L 105.038819 238.869808 
L 107.508682 236.397016 
L 109.978545 234.007361 
L 112.448408 231.499557 
L 114.918271 228.910365 
L 117.388134 226.356225 
L 119.857997 224.075376 
L 122.32786 221.738657 
L 124.797724 219.353043 
L 127.267587 217.020282 
L 129.73745 214.48282 
L 132.207313 211.938232 
L 134.677176 209.391692 
L 137.147039 206.839508 
L 139.616902 204.555224 
L 142.086765 202.283698 
L 144.556628 200.130753 
L 147.026491 197.719681 
L 149.496354 195.247768 
L 151.966217 192.871406 
L 154.436081 190.413164 
L 156.905944 188.044348 
L 159.375807 185.703729 
L 161.84567 183.401572 
L 164.315533 181.098918 
L 166.785396 178.927763 
L 169.255259 176.752414 
L 171.725122 174.522786 
L 174.194985 172.183941 
L 176.664848 170.005174 
L 179.134711 167.873381 
L 181.604574 165.811994 
L 184.074437 163.586084 
L 186.544301 161.527031 
L 189.014164 159.51638 
L 191.484027 157.419893 
L 193.95389 155.322056 
L 196.423753 153.224182 
L 198.893616 151.127729 
L 201.363479 148.923165 
L 203.833342 146.933309 
L 206.303205 144.653967 
L 208.773068 142.360315 
L 211.242931 140.020135 
L 213.712794 137.964203 
L 216.182658 135.834686 
L 218.652521 133.74381 
L 221.122384 131.651305 
L 223.592247 129.55242 
L 226.06211 127.471094 
L 228.531973 125.384653 
L 231.001836 123.337459 
L 233.471699 121.293603 
L 235.941562 119.220541 
L 238.411425 117.017224 
L 240.881288 114.979677 
L 243.351151 112.954236 
L 245.821015 110.820791 
L 248.290878 108.686663 
L 250.760741 106.568001 
L 253.230604 104.476206 
L 255.700467 102.38441 
L 258.17033 100.292614 
L 260.640193 98.200818 
L 263.110056 96.109022 
L 265.579919 94.089139 
L 268.049782 92.074468 
L 270.519645 90.059796 
L 272.989508 88.004098 
L 275.459371 85.985831 
L 277.929235 83.967124 
L 280.399098 81.927274 
L 282.868961 79.813958 
L 285.338824 77.718563 
L 287.808687 75.623034 
L 290.27855 73.527505 
L 292.748413 71.468136 
L 295.218276 69.43306 
L 297.688139 67.397985 
L 300.158002 65.362909 
L 302.627865 63.327833 
L 305.097728 61.292757 
L 305.097728 21.165455 
L 305.097728 21.165455 
L 302.627865 23.652457 
L 300.158002 26.24066 
L 297.688139 28.844437 
L 295.218276 31.18842 
L 292.748413 33.584827 
L 290.27855 36.068558 
L 287.808687 38.56782 
L 285.338824 41.133188 
L 282.868961 43.715969 
L 280.399098 46.300101 
L 277.929235 48.885487 
L 275.459371 51.481794 
L 272.989508 54.054099 
L 270.519645 56.492301 
L 268.049782 58.897682 
L 265.579919 61.340515 
L 263.110056 63.805078 
L 260.640193 66.372177 
L 258.17033 68.924176 
L 255.700467 71.452063 
L 253.230604 73.97995 
L 250.760741 76.507837 
L 248.290878 79.035724 
L 245.821015 81.56498 
L 243.351151 84.097197 
L 240.881288 86.629414 
L 238.411425 89.161631 
L 235.941562 91.488783 
L 233.471699 94.063672 
L 231.001836 96.516884 
L 228.531973 99.091877 
L 226.06211 101.394518 
L 223.592247 103.697159 
L 221.122384 105.9998 
L 218.652521 108.232821 
L 216.182658 110.612873 
L 213.712794 113.029305 
L 211.242931 115.222606 
L 208.773068 117.696129 
L 206.303205 120.204169 
L 203.833342 122.468001 
L 201.363479 124.730631 
L 198.893616 127.074238 
L 196.423753 129.514712 
L 193.95389 131.924073 
L 191.484027 134.184617 
L 189.014164 136.699892 
L 186.544301 139.043768 
L 184.074437 141.287875 
L 181.604574 143.513531 
L 179.134711 145.663209 
L 176.664848 148.117756 
L 174.194985 150.462905 
L 171.725122 152.754535 
L 169.255259 154.910813 
L 166.785396 156.997853 
L 164.315533 159.310299 
L 161.84567 161.63135 
L 159.375807 163.847223 
L 156.905944 166.064175 
L 154.436081 168.281128 
L 151.966217 170.500522 
L 149.496354 172.709625 
L 147.026491 174.923794 
L 144.556628 177.123585 
L 142.086765 179.354308 
L 139.616902 181.569796 
L 137.147039 183.785589 
L 134.677176 186.01877 
L 132.207313 188.19584 
L 129.73745 190.428503 
L 127.267587 192.644439 
L 124.797724 194.85743 
L 122.32786 197.067916 
L 119.857997 199.285788 
L 117.388134 201.596424 
L 114.918271 203.71797 
L 112.448408 205.931946 
L 109.978545 208.14586 
L 107.508682 210.458732 
L 105.038819 212.776855 
L 102.568956 214.908602 
L 100.099093 217.040349 
L 97.62923 219.214517 
L 95.159367 221.348307 
L 92.689503 223.644913 
L 90.21964 225.773653 
L 87.749777 227.831739 
L 85.279914 230.033918 
L 82.810051 232.129779 
L 80.340188 234.349794 
L 77.870325 236.482122 
L 75.400462 238.545457 
L 72.930599 240.732845 
L 70.460736 242.9343 
L 67.990873 245.135789 
L 65.52101 247.280806 
L 63.051146 249.349929 
L 60.581283 251.419643 
z
" clip-path="url(#p3315725542)" style="fill: #1f77b4; fill-opacity: 0.15"/>
   </g>
   <g id="PathCollection_2">
    <defs>
     <path id="m198d2261d5" d="M 0 3 
C 0.795609 3 1.55874 2.683901 2.12132 2.12132 
C 2.683901 1.55874 3 0.795609 3 0 
C 3 -0.795609 2.683901 -1.55874 2.12132 -2.12132 
C 1.55874 -2.683901 0.795609 -3 0 -3 
C -0.795609 -3 -1.55874 -2.683901 -2.12132 -2.12132 
C -2.683901 -1.55874 -3 -0.795609 -3 0 
C -3 0.795609 -2.683901 1.55874 -2.12132 2.12132 
C -1.55874 2.683901 -0.795609 3 0 3 
z
" style="stroke: #ff7f0e; stroke-opacity: 0.8"/>
    </defs>
    <g clip-path="url(#p3315725542)">
     <use xlink:href="#m198d2261d5" x="138.271038" y="290.523491" style="fill: #ff7f0e; fill-opacity: 0.8; stroke: #ff7f0e; stroke-opacity: 0.8"/>
     <use xlink:href="#m198d2261d5" x="165.445988" y="249.475392" style="fill: #ff7f0e; fill-opacity: 0.8; stroke: #ff7f0e; stroke-opacity: 0.8"/>
     <use xlink:href="#m198d2261d5" x="192.620939" y="213.402821" style="fill: #ff7f0e; fill-opacity: 0.8; stroke: #ff7f0e; stroke-opacity: 0.8"/>
     <use xlink:href="#m198d2261d5" x="219.77652" y="178.574131" style="fill: #ff7f0e; fill-opacity: 0.8; stroke: #ff7f0e; stroke-opacity: 0.8"/>
     <use xlink:href="#m198d2261d5" x="246.95147" y="147.477086" style="fill: #ff7f0e; fill-opacity: 0.8; stroke: #ff7f0e; stroke-opacity: 0.8"/>
     <use xlink:href="#m198d2261d5" x="274.12642" y="118.867805" style="fill: #ff7f0e; fill-opacity: 0.8; stroke: #ff7f0e; stroke-opacity: 0.8"/>
     <use xlink:href="#m198d2261d5" x="301.282001" y="91.502406" style="fill: #ff7f0e; fill-opacity: 0.8; stroke: #ff7f0e; stroke-opacity: 0.8"/>
     <use xlink:href="#m198d2261d5" x="328.456952" y="66.62477" style="fill: #ff7f0e; fill-opacity: 0.8; stroke: #ff7f0e; stroke-opacity: 0.8"/>
     <use xlink:href="#m198d2261d5" x="165.445988" y="256.938683" style="fill: #ff7f0e; fill-opacity: 0.8; stroke: #ff7f0e; stroke-opacity: 0.8"/>
     <use xlink:href="#m198d2261d5" x="219.77652" y="189.769067" style="fill: #ff7f0e; fill-opacity: 0.8; stroke: #ff7f0e; stroke-opacity: 0.8"/>
     <use xlink:href="#m198d2261d5" x="138.271038" y="300.474545" style="fill: #ff7f0e; fill-opacity: 0.8; stroke: #ff7f0e; stroke-opacity: 0.8"/>
     <use xlink:href="#m198d2261d5" x="192.620939" y="235.792693" style="fill: #ff7f0e; fill-opacity: 0.8; stroke: #ff7f0e; stroke-opacity: 0.8"/>
    </g>
   </g>
   <g id="PolyCollection_2">
    <path d="M 138.271038 280.407212 
L 138.271038 296.690027 
L 140.192108 294.233942 
L 142.113178 291.633378 
L 144.034247 289.249901 
L 145.955317 286.682564 
L 147.876387 284.299193 
L 149.797457 281.873496 
L 151.718527 279.400933 
L 153.639597 276.870423 
L 155.560666 274.337175 
L 157.481736 271.817574 
L 159.402806 269.38221 
L 161.323876 266.904758 
L 163.244946 264.510408 
L 165.166016 262.12939 
L 167.087085 259.673717 
L 169.008155 257.263227 
L 170.929225 254.808845 
L 172.850295 252.364518 
L 174.771365 249.907152 
L 176.692435 247.462195 
L 178.613504 245.025939 
L 180.534574 242.6176 
L 182.455644 240.225489 
L 184.376714 237.870416 
L 186.297784 235.43719 
L 188.218854 233.020065 
L 190.139923 230.639176 
L 192.060993 228.258287 
L 193.982063 225.883392 
L 195.903133 223.503732 
L 197.824203 221.108617 
L 199.745273 218.699075 
L 201.666342 216.314888 
L 203.587412 213.948456 
L 205.508482 211.591969 
L 207.429552 209.211178 
L 209.350622 206.830289 
L 211.271692 204.449401 
L 213.192761 202.082435 
L 215.113831 199.701853 
L 217.034901 197.343915 
L 218.955971 194.966841 
L 220.877041 192.574436 
L 222.798111 190.219841 
L 224.719181 187.846485 
L 226.64025 185.527536 
L 228.56132 183.196101 
L 230.48239 180.849482 
L 232.40346 178.486587 
L 234.32453 176.169059 
L 236.2456 173.829977 
L 238.166669 171.488176 
L 240.087739 169.183849 
L 242.008809 166.90206 
L 243.929879 164.58458 
L 245.850949 162.250433 
L 247.772019 159.935168 
L 249.693088 157.630993 
L 251.614158 155.317045 
L 253.535228 152.967977 
L 255.456298 150.588918 
L 257.377368 148.24914 
L 259.298438 145.995111 
L 261.219507 143.672917 
L 263.140577 141.30991 
L 265.061647 138.993071 
L 266.982717 136.700751 
L 268.903787 134.435798 
L 270.824857 132.100314 
L 272.745926 129.788344 
L 274.666996 127.514779 
L 276.588066 125.19711 
L 278.509136 122.880345 
L 280.430206 120.521537 
L 282.351276 118.171313 
L 284.272345 115.919864 
L 286.193415 113.613776 
L 288.114485 111.298541 
L 290.035555 108.983305 
L 291.956625 106.666726 
L 293.877695 104.38236 
L 295.798764 102.152214 
L 297.719834 99.881837 
L 299.640904 97.607322 
L 301.561974 95.349213 
L 303.483044 93.090275 
L 305.404114 90.832748 
L 307.325183 88.576398 
L 309.246253 86.375703 
L 311.167323 84.219962 
L 313.088393 81.889296 
L 315.009463 79.558631 
L 316.930533 77.288386 
L 318.851602 75.103331 
L 320.772672 72.839177 
L 322.693742 70.526197 
L 324.614812 68.285712 
L 326.535882 66.02468 
L 328.456952 63.75351 
L 328.456952 38.905499 
L 328.456952 38.905499 
L 326.535882 41.482805 
L 324.614812 44.055431 
L 322.693742 46.614193 
L 320.772672 49.211004 
L 318.851602 51.789476 
L 316.930533 54.365597 
L 315.009463 56.941874 
L 313.088393 59.518662 
L 311.167323 62.09545 
L 309.246253 64.672239 
L 307.325183 67.245702 
L 305.404114 69.808075 
L 303.483044 72.370448 
L 301.561974 74.93282 
L 299.640904 77.495193 
L 297.719834 80.058687 
L 295.798764 82.693699 
L 293.877695 85.286977 
L 291.956625 87.863383 
L 290.035555 90.44012 
L 288.114485 93.016908 
L 286.193415 95.593743 
L 284.272345 98.170903 
L 282.351276 100.748062 
L 280.430206 103.325221 
L 278.509136 105.902381 
L 276.588066 108.47954 
L 274.666996 111.056699 
L 272.745926 113.633858 
L 270.824857 116.213151 
L 268.903787 118.804874 
L 266.982717 121.388451 
L 265.061647 123.940518 
L 263.140577 126.515909 
L 261.219507 129.091942 
L 259.298438 131.599639 
L 257.377368 134.131595 
L 255.456298 136.705939 
L 253.535228 139.282004 
L 251.614158 141.860732 
L 249.693088 144.439459 
L 247.772019 147.018186 
L 245.850949 149.594328 
L 243.929879 152.113635 
L 242.008809 154.654059 
L 240.087739 157.238581 
L 238.166669 159.818586 
L 236.2456 162.414767 
L 234.32453 164.908495 
L 232.40346 167.412905 
L 230.48239 169.912031 
L 228.56132 172.410763 
L 226.64025 174.963448 
L 224.719181 177.414245 
L 222.798111 179.879489 
L 220.877041 182.308409 
L 218.955971 184.663649 
L 217.034901 187.071771 
L 215.113831 189.465385 
L 213.192761 191.914978 
L 211.271692 194.255418 
L 209.350622 196.549112 
L 207.429552 198.983689 
L 205.508482 201.302148 
L 203.587412 203.71482 
L 201.666342 205.973977 
L 199.745273 208.218434 
L 197.824203 210.733074 
L 195.903133 213.047404 
L 193.982063 215.539401 
L 192.060993 217.906109 
L 190.139923 220.180876 
L 188.218854 222.531824 
L 186.297784 224.873412 
L 184.376714 227.119214 
L 182.455644 229.339137 
L 180.534574 231.569128 
L 178.613504 233.799119 
L 176.692435 236.029111 
L 174.771365 238.262211 
L 172.850295 240.495666 
L 170.929225 242.764311 
L 169.008155 244.959542 
L 167.087085 247.190009 
L 165.166016 249.43845 
L 163.244946 251.654041 
L 161.323876 253.885359 
L 159.402806 256.116196 
L 157.481736 258.347033 
L 155.560666 260.57787 
L 153.639597 262.782362 
L 151.718527 264.985363 
L 149.797457 267.188364 
L 147.876387 269.391364 
L 145.955317 271.594365 
L 144.034247 273.797366 
L 142.113178 276.000366 
L 140.192108 278.203608 
L 138.271038 280.407212 
z
" clip-path="url(#p3315725542)" style="fill: #ff7f0e; fill-opacity: 0.15"/>
   </g>
   <g id="matplotlib.axis_1">
    <g id="xtick_1">
     <g id="line2d_1">
      <defs>
       <path id="mbfdb8b78be" d="M 0 0 
L 0 3.5 
" style="stroke: #000000; stroke-width: 0.8"/>
      </defs>
      <g>
       <use xlink:href="#mbfdb8b78be" x="75.999145" y="314.44" style="stroke: #000000; stroke-width: 0.8"/>
      </g>
     </g>
     <g id="text_1">
      <!-- 40 -->
      <g transform="translate(69.636645 329.038437) scale(0.1 -0.1)">
       <defs>
        <path id="DejaVuSans-34" d="M 2419 4116 
L 825 1625 
L 2419 1625 
L 2419 4116 
z
M 2253 4666 
L 3047 4666 
L 3047 1625 
L 3713 1625 
L 3713 1100 
L 3047 1100 
L 3047 0 
L 2419 0 
L 2419 1100 
L 313 1100 
L 313 1709 
L 2253 4666 
z
" transform="scale(0.015625)"/>
        <path id="DejaVuSans-30" d="M 2034 4250 
Q 1547 4250 1301 3770 
Q 1056 3291 1056 2328 
Q 1056 1369 1301 889 
Q 1547 409 2034 409 
Q 2525 409 2770 889 
Q 3016 1369 3016 2328 
Q 3016 3291 2770 3770 
Q 2525 4250 2034 4250 
z
M 2034 4750 
Q 2819 4750 3233 4129 
Q 3647 3509 3647 2328 
Q 3647 1150 3233 529 
Q 2819 -91 2034 -91 
Q 1250 -91 836 529 
Q 422 1150 422 2328 
Q 422 3509 836 4129 
Q 1250 4750 2034 4750 
z
" transform="scale(0.015625)"/>
       </defs>
       <use xlink:href="#DejaVuSans-34"/>
       <use xlink:href="#DejaVuSans-30" x="63.623047"/>
      </g>
     </g>
    </g>
    <g id="xtick_2">
     <g id="line2d_2">
      <g>
       <use xlink:href="#mbfdb8b78be" x="114.737492" y="314.44" style="stroke: #000000; stroke-width: 0.8"/>
      </g>
     </g>
     <g id="text_2">
      <!-- 60 -->
      <g transform="translate(108.374992 329.038437) scale(0.1 -0.1)">
       <defs>
        <path id="DejaVuSans-36" d="M 2113 2584 
Q 1688 2584 1439 2293 
Q 1191 2003 1191 1497 
Q 1191 994 1439 701 
Q 1688 409 2113 409 
Q 2538 409 2786 701 
Q 3034 994 3034 1497 
Q 3034 2003 2786 2293 
Q 2538 2584 2113 2584 
z
M 3366 4563 
L 3366 3988 
Q 3128 4100 2886 4159 
Q 2644 4219 2406 4219 
Q 1781 4219 1451 3797 
Q 1122 3375 1075 2522 
Q 1259 2794 1537 2939 
Q 1816 3084 2150 3084 
Q 2853 3084 3261 2657 
Q 3669 2231 3669 1497 
Q 3669 778 3244 343 
Q 2819 -91 2113 -91 
Q 1303 -91 875 529 
Q 447 1150 447 2328 
Q 447 3434 972 4092 
Q 1497 4750 2381 4750 
Q 2619 4750 2861 4703 
Q 3103 4656 3366 4563 
z
" transform="scale(0.015625)"/>
       </defs>
       <use xlink:href="#DejaVuSans-36"/>
       <use xlink:href="#DejaVuSans-30" x="63.623047"/>
      </g>
     </g>
    </g>
    <g id="xtick_3">
     <g id="line2d_3">
      <g>
       <use xlink:href="#mbfdb8b78be" x="153.475839" y="314.44" style="stroke: #000000; stroke-width: 0.8"/>
      </g>
     </g>
     <g id="text_3">
      <!-- 80 -->
      <g transform="translate(147.113339 329.038437) scale(0.1 -0.1)">
       <defs>
        <path id="DejaVuSans-38" d="M 2034 2216 
Q 1584 2216 1326 1975 
Q 1069 1734 1069 1313 
Q 1069 891 1326 650 
Q 1584 409 2034 409 
Q 2484 409 2743 651 
Q 3003 894 3003 1313 
Q 3003 1734 2745 1975 
Q 2488 2216 2034 2216 
z
M 1403 2484 
Q 997 2584 770 2862 
Q 544 3141 544 3541 
Q 544 4100 942 4425 
Q 1341 4750 2034 4750 
Q 2731 4750 3128 4425 
Q 3525 4100 3525 3541 
Q 3525 3141 3298 2862 
Q 3072 2584 2669 2484 
Q 3125 2378 3379 2068 
Q 3634 1759 3634 1313 
Q 3634 634 3220 271 
Q 2806 -91 2034 -91 
Q 1263 -91 848 271 
Q 434 634 434 1313 
Q 434 1759 690 2068 
Q 947 2378 1403 2484 
z
M 1172 3481 
Q 1172 3119 1398 2916 
Q 1625 2713 2034 2713 
Q 2441 2713 2670 2916 
Q 2900 3119 2900 3481 
Q 2900 3844 2670 4047 
Q 2441 4250 2034 4250 
Q 1625 4250 1398 4047 
Q 1172 3844 1172 3481 
z
" transform="scale(0.015625)"/>
       </defs>
       <use xlink:href="#DejaVuSans-38"/>
       <use xlink:href="#DejaVuSans-30" x="63.623047"/>
      </g>
     </g>
    </g>
    <g id="xtick_4">
     <g id="line2d_4">
      <g>
       <use xlink:href="#mbfdb8b78be" x="192.214186" y="314.44" style="stroke: #000000; stroke-width: 0.8"/>
      </g>
     </g>
     <g id="text_4">
      <!-- 100 -->
      <g transform="translate(182.670436 329.038437) scale(0.1 -0.1)">
       <defs>
        <path id="DejaVuSans-31" d="M 794 531 
L 1825 531 
L 1825 4091 
L 703 3866 
L 703 4441 
L 1819 4666 
L 2450 4666 
L 2450 531 
L 3481 531 
L 3481 0 
L 794 0 
L 794 531 
z
" transform="scale(0.015625)"/>
       </defs>
       <use xlink:href="#DejaVuSans-31"/>
       <use xlink:href="#DejaVuSans-30" x="63.623047"/>
       <use xlink:href="#DejaVuSans-30" x="127.246094"/>
      </g>
     </g>
    </g>
    <g id="xtick_5">
     <g id="line2d_5">
      <g>
       <use xlink:href="#mbfdb8b78be" x="230.952533" y="314.44" style="stroke: #000000; stroke-width: 0.8"/>
      </g>
     </g>
     <g id="text_5">
      <!-- 120 -->
      <g transform="translate(221.408783 329.038437) scale(0.1 -0.1)">
       <defs>
        <path id="DejaVuSans-32" d="M 1228 531 
L 3431 531 
L 3431 0 
L 469 0 
L 469 531 
Q 828 903 1448 1529 
Q 2069 2156 2228 2338 
Q 2531 2678 2651 2914 
Q 2772 3150 2772 3378 
Q 2772 3750 2511 3984 
Q 2250 4219 1831 4219 
Q 1534 4219 1204 4116 
Q 875 4013 500 3803 
L 500 4441 
Q 881 4594 1212 4672 
Q 1544 4750 1819 4750 
Q 2544 4750 2975 4387 
Q 3406 4025 3406 3419 
Q 3406 3131 3298 2873 
Q 3191 2616 2906 2266 
Q 2828 2175 2409 1742 
Q 1991 1309 1228 531 
z
" transform="scale(0.015625)"/>
       </defs>
       <use xlink:href="#DejaVuSans-31"/>
       <use xlink:href="#DejaVuSans-32" x="63.623047"/>
       <use xlink:href="#DejaVuSans-30" x="127.246094"/>
      </g>
     </g>
    </g>
    <g id="xtick_6">
     <g id="line2d_6">
      <g>
       <use xlink:href="#mbfdb8b78be" x="269.690879" y="314.44" style="stroke: #000000; stroke-width: 0.8"/>
      </g>
     </g>
     <g id="text_6">
      <!-- 140 -->
      <g transform="translate(260.147129 329.038437) scale(0.1 -0.1)">
       <use xlink:href="#DejaVuSans-31"/>
       <use xlink:href="#DejaVuSans-34" x="63.623047"/>
       <use xlink:href="#DejaVuSans-30" x="127.246094"/>
      </g>
     </g>
    </g>
    <g id="xtick_7">
     <g id="line2d_7">
      <g>
       <use xlink:href="#mbfdb8b78be" x="308.429226" y="314.44" style="stroke: #000000; stroke-width: 0.8"/>
      </g>
     </g>
     <g id="text_7">
      <!-- 160 -->
      <g transform="translate(298.885476 329.038437) scale(0.1 -0.1)">
       <use xlink:href="#DejaVuSans-31"/>
       <use xlink:href="#DejaVuSans-36" x="63.623047"/>
       <use xlink:href="#DejaVuSans-30" x="127.246094"/>
      </g>
     </g>
    </g>
    <g id="text_8">
     <!-- MW, g/mol -->
     <g transform="translate(167.905836 342.716562) scale(0.1 -0.1)">
      <defs>
       <path id="DejaVuSans-4d" d="M 628 4666 
L 1569 4666 
L 2759 1491 
L 3956 4666 
L 4897 4666 
L 4897 0 
L 4281 0 
L 4281 4097 
L 3078 897 
L 2444 897 
L 1241 4097 
L 1241 0 
L 628 0 
L 628 4666 
z
" transform="scale(0.015625)"/>
       <path id="DejaVuSans-57" d="M 213 4666 
L 850 4666 
L 1831 722 
L 2809 4666 
L 3519 4666 
L 4500 722 
L 5478 4666 
L 6119 4666 
L 4947 0 
L 4153 0 
L 3169 4050 
L 2175 0 
L 1381 0 
L 213 4666 
z
" transform="scale(0.015625)"/>
       <path id="DejaVuSans-2c" d="M 750 794 
L 1409 794 
L 1409 256 
L 897 -744 
L 494 -744 
L 750 256 
L 750 794 
z
" transform="scale(0.015625)"/>
       <path id="DejaVuSans-20" transform="scale(0.015625)"/>
       <path id="DejaVuSans-67" d="M 2906 1791 
Q 2906 2416 2648 2759 
Q 2391 3103 1925 3103 
Q 1463 3103 1205 2759 
Q 947 2416 947 1791 
Q 947 1169 1205 825 
Q 1463 481 1925 481 
Q 2391 481 2648 825 
Q 2906 1169 2906 1791 
z
M 3481 434 
Q 3481 -459 3084 -895 
Q 2688 -1331 1869 -1331 
Q 1566 -1331 1297 -1286 
Q 1028 -1241 775 -1147 
L 775 -588 
Q 1028 -725 1275 -790 
Q 1522 -856 1778 -856 
Q 2344 -856 2625 -561 
Q 2906 -266 2906 331 
L 2906 616 
Q 2728 306 2450 153 
Q 2172 0 1784 0 
Q 1141 0 747 490 
Q 353 981 353 1791 
Q 353 2603 747 3093 
Q 1141 3584 1784 3584 
Q 2172 3584 2450 3431 
Q 2728 3278 2906 2969 
L 2906 3500 
L 3481 3500 
L 3481 434 
z
" transform="scale(0.015625)"/>
       <path id="DejaVuSans-2f" d="M 1625 4666 
L 2156 4666 
L 531 -594 
L 0 -594 
L 1625 4666 
z
" transform="scale(0.015625)"/>
       <path id="DejaVuSans-6d" d="M 3328 2828 
Q 3544 3216 3844 3400 
Q 4144 3584 4550 3584 
Q 5097 3584 5394 3201 
Q 5691 2819 5691 2113 
L 5691 0 
L 5113 0 
L 5113 2094 
Q 5113 2597 4934 2840 
Q 4756 3084 4391 3084 
Q 3944 3084 3684 2787 
Q 3425 2491 3425 1978 
L 3425 0 
L 2847 0 
L 2847 2094 
Q 2847 2600 2669 2842 
Q 2491 3084 2119 3084 
Q 1678 3084 1418 2786 
Q 1159 2488 1159 1978 
L 1159 0 
L 581 0 
L 581 3500 
L 1159 3500 
L 1159 2956 
Q 1356 3278 1631 3431 
Q 1906 3584 2284 3584 
Q 2666 3584 2933 3390 
Q 3200 3197 3328 2828 
z
" transform="scale(0.015625)"/>
       <path id="DejaVuSans-6f" d="M 1959 3097 
Q 1497 3097 1228 2736 
Q 959 2375 959 1747 
Q 959 1119 1226 758 
Q 1494 397 1959 397 
Q 2419 397 2687 759 
Q 2956 1122 2956 1747 
Q 2956 2369 2687 2733 
Q 2419 3097 1959 3097 
z
M 1959 3584 
Q 2709 3584 3137 3096 
Q 3566 2609 3566 1747 
Q 3566 888 3137 398 
Q 2709 -91 1959 -91 
Q 1206 -91 779 398 
Q 353 888 353 1747 
Q 353 2609 779 3096 
Q 1206 3584 1959 3584 
z
" transform="scale(0.015625)"/>
       <path id="DejaVuSans-6c" d="M 603 4863 
L 1178 4863 
L 1178 0 
L 603 0 
L 603 4863 
z
" transform="scale(0.015625)"/>
      </defs>
      <use xlink:href="#DejaVuSans-4d"/>
      <use xlink:href="#DejaVuSans-57" x="86.279297"/>
      <use xlink:href="#DejaVuSans-2c" x="185.15625"/>
      <use xlink:href="#DejaVuSans-20" x="216.943359"/>
      <use xlink:href="#DejaVuSans-67" x="248.730469"/>
      <use xlink:href="#DejaVuSans-2f" x="312.207031"/>
      <use xlink:href="#DejaVuSans-6d" x="345.898438"/>
      <use xlink:href="#DejaVuSans-6f" x="443.310547"/>
      <use xlink:href="#DejaVuSans-6c" x="504.492188"/>
     </g>
    </g>
   </g>
   <g id="matplotlib.axis_2">
    <g id="ytick_1">
     <g id="line2d_8">
      <defs>
       <path id="mb0402318d7" d="M 0 0 
L -3.5 0 
" style="stroke: #000000; stroke-width: 0.8"/>
      </defs>
      <g>
       <use xlink:href="#mb0402318d7" x="47.1875" y="273.109146" style="stroke: #000000; stroke-width: 0.8"/>
      </g>
     </g>
     <g id="text_9">
      <!-- 50 -->
      <g transform="translate(27.4625 276.908365) scale(0.1 -0.1)">
       <defs>
        <path id="DejaVuSans-35" d="M 691 4666 
L 3169 4666 
L 3169 4134 
L 1269 4134 
L 1269 2991 
Q 1406 3038 1543 3061 
Q 1681 3084 1819 3084 
Q 2600 3084 3056 2656 
Q 3513 2228 3513 1497 
Q 3513 744 3044 326 
Q 2575 -91 1722 -91 
Q 1428 -91 1123 -41 
Q 819 9 494 109 
L 494 744 
Q 775 591 1075 516 
Q 1375 441 1709 441 
Q 2250 441 2565 725 
Q 2881 1009 2881 1497 
Q 2881 1984 2565 2268 
Q 2250 2553 1709 2553 
Q 1456 2553 1204 2497 
Q 953 2441 691 2322 
L 691 4666 
z
" transform="scale(0.015625)"/>
       </defs>
       <use xlink:href="#DejaVuSans-35"/>
       <use xlink:href="#DejaVuSans-30" x="63.623047"/>
      </g>
     </g>
    </g>
    <g id="ytick_2">
     <g id="line2d_9">
      <g>
       <use xlink:href="#mb0402318d7" x="47.1875" y="210.915057" style="stroke: #000000; stroke-width: 0.8"/>
      </g>
     </g>
     <g id="text_10">
      <!-- 100 -->
      <g transform="translate(21.1 214.714276) scale(0.1 -0.1)">
       <use xlink:href="#DejaVuSans-31"/>
       <use xlink:href="#DejaVuSans-30" x="63.623047"/>
       <use xlink:href="#DejaVuSans-30" x="127.246094"/>
      </g>
     </g>
    </g>
    <g id="ytick_3">
     <g id="line2d_10">
      <g>
       <use xlink:href="#mb0402318d7" x="47.1875" y="148.720968" style="stroke: #000000; stroke-width: 0.8"/>
      </g>
     </g>
     <g id="text_11">
      <!-- 150 -->
      <g transform="translate(21.1 152.520187) scale(0.1 -0.1)">
       <use xlink:href="#DejaVuSans-31"/>
       <use xlink:href="#DejaVuSans-35" x="63.623047"/>
       <use xlink:href="#DejaVuSans-30" x="127.246094"/>
      </g>
     </g>
    </g>
    <g id="ytick_4">
     <g id="line2d_11">
      <g>
       <use xlink:href="#mb0402318d7" x="47.1875" y="86.526879" style="stroke: #000000; stroke-width: 0.8"/>
      </g>
     </g>
     <g id="text_12">
      <!-- 200 -->
      <g transform="translate(21.1 90.326098) scale(0.1 -0.1)">
       <use xlink:href="#DejaVuSans-32"/>
       <use xlink:href="#DejaVuSans-30" x="63.623047"/>
       <use xlink:href="#DejaVuSans-30" x="127.246094"/>
      </g>
     </g>
    </g>
    <g id="ytick_5">
     <g id="line2d_12">
      <g>
       <use xlink:href="#mb0402318d7" x="47.1875" y="24.33279" style="stroke: #000000; stroke-width: 0.8"/>
      </g>
     </g>
     <g id="text_13">
      <!-- 250 -->
      <g transform="translate(21.1 28.132008) scale(0.1 -0.1)">
       <use xlink:href="#DejaVuSans-32"/>
       <use xlink:href="#DejaVuSans-35" x="63.623047"/>
       <use xlink:href="#DejaVuSans-30" x="127.246094"/>
      </g>
     </g>
    </g>
    <g id="text_14">
     <!-- bp, $^o$C -->
     <g transform="translate(15 176.17) rotate(-90) scale(0.1 -0.1)">
      <defs>
       <path id="DejaVuSans-62" d="M 3116 1747 
Q 3116 2381 2855 2742 
Q 2594 3103 2138 3103 
Q 1681 3103 1420 2742 
Q 1159 2381 1159 1747 
Q 1159 1113 1420 752 
Q 1681 391 2138 391 
Q 2594 391 2855 752 
Q 3116 1113 3116 1747 
z
M 1159 2969 
Q 1341 3281 1617 3432 
Q 1894 3584 2278 3584 
Q 2916 3584 3314 3078 
Q 3713 2572 3713 1747 
Q 3713 922 3314 415 
Q 2916 -91 2278 -91 
Q 1894 -91 1617 61 
Q 1341 213 1159 525 
L 1159 0 
L 581 0 
L 581 4863 
L 1159 4863 
L 1159 2969 
z
" transform="scale(0.015625)"/>
       <path id="DejaVuSans-70" d="M 1159 525 
L 1159 -1331 
L 581 -1331 
L 581 3500 
L 1159 3500 
L 1159 2969 
Q 1341 3281 1617 3432 
Q 1894 3584 2278 3584 
Q 2916 3584 3314 3078 
Q 3713 2572 3713 1747 
Q 3713 922 3314 415 
Q 2916 -91 2278 -91 
Q 1894 -91 1617 61 
Q 1341 213 1159 525 
z
M 3116 1747 
Q 3116 2381 2855 2742 
Q 2594 3103 2138 3103 
Q 1681 3103 1420 2742 
Q 1159 2381 1159 1747 
Q 1159 1113 1420 752 
Q 1681 391 2138 391 
Q 2594 391 2855 752 
Q 3116 1113 3116 1747 
z
" transform="scale(0.015625)"/>
       <path id="DejaVuSans-Oblique-6f" d="M 1625 -91 
Q 1009 -91 651 289 
Q 294 669 294 1325 
Q 294 1706 417 2101 
Q 541 2497 738 2766 
Q 1047 3184 1428 3384 
Q 1809 3584 2291 3584 
Q 2888 3584 3255 3212 
Q 3622 2841 3622 2241 
Q 3622 1825 3500 1412 
Q 3378 1000 3181 728 
Q 2875 309 2494 109 
Q 2113 -91 1625 -91 
z
M 891 1344 
Q 891 869 1089 633 
Q 1288 397 1691 397 
Q 2269 397 2648 901 
Q 3028 1406 3028 2181 
Q 3028 2634 2825 2865 
Q 2622 3097 2228 3097 
Q 1903 3097 1650 2945 
Q 1397 2794 1197 2484 
Q 1050 2253 970 1956 
Q 891 1659 891 1344 
z
" transform="scale(0.015625)"/>
       <path id="DejaVuSans-43" d="M 4122 4306 
L 4122 3641 
Q 3803 3938 3442 4084 
Q 3081 4231 2675 4231 
Q 1875 4231 1450 3742 
Q 1025 3253 1025 2328 
Q 1025 1406 1450 917 
Q 1875 428 2675 428 
Q 3081 428 3442 575 
Q 3803 722 4122 1019 
L 4122 359 
Q 3791 134 3420 21 
Q 3050 -91 2638 -91 
Q 1578 -91 968 557 
Q 359 1206 359 2328 
Q 359 3453 968 4101 
Q 1578 4750 2638 4750 
Q 3056 4750 3426 4639 
Q 3797 4528 4122 4306 
z
" transform="scale(0.015625)"/>
      </defs>
      <use xlink:href="#DejaVuSans-62" transform="translate(0 0.51875)"/>
      <use xlink:href="#DejaVuSans-70" transform="translate(63.476562 0.51875)"/>
      <use xlink:href="#DejaVuSans-2c" transform="translate(126.953125 0.51875)"/>
      <use xlink:href="#DejaVuSans-20" transform="translate(158.740234 0.51875)"/>
      <use xlink:href="#DejaVuSans-Oblique-6f" transform="translate(191.484375 38.8) scale(0.7)"/>
      <use xlink:href="#DejaVuSans-43" transform="translate(237.045898 0.51875)"/>
     </g>
    </g>
   </g>
   <g id="line2d_13">
    <path d="M 60.581283 265.012026 
L 63.051146 262.766348 
L 65.52101 260.52067 
L 67.990873 258.274992 
L 70.460736 256.029314 
L 72.930599 253.783636 
L 75.400462 251.537958 
L 77.870325 249.29228 
L 80.340188 247.046602 
L 82.810051 244.800924 
L 85.279914 242.555246 
L 87.749777 240.309568 
L 90.21964 238.06389 
L 92.689503 235.818212 
L 95.159367 233.572534 
L 97.62923 231.326856 
L 100.099093 229.081178 
L 102.568956 226.8355 
L 105.038819 224.589822 
L 107.508682 222.344144 
L 109.978545 220.098466 
L 112.448408 217.852788 
L 114.918271 215.60711 
L 117.388134 213.361432 
L 119.857997 211.115754 
L 122.32786 208.870076 
L 124.797724 206.624398 
L 127.267587 204.37872 
L 129.73745 202.133042 
L 132.207313 199.887364 
L 134.677176 197.641686 
L 137.147039 195.396008 
L 139.616902 193.15033 
L 142.086765 190.904652 
L 144.556628 188.658974 
L 147.026491 186.413296 
L 149.496354 184.167617 
L 151.966217 181.921939 
L 154.436081 179.676261 
L 156.905944 177.430583 
L 159.375807 175.184905 
L 161.84567 172.939227 
L 164.315533 170.693549 
L 166.785396 168.447871 
L 169.255259 166.202193 
L 171.725122 163.956515 
L 174.194985 161.710837 
L 176.664848 159.465159 
L 179.134711 157.219481 
L 181.604574 154.973803 
L 184.074437 152.728125 
L 186.544301 150.482447 
L 189.014164 148.236769 
L 191.484027 145.991091 
L 193.95389 143.745413 
L 196.423753 141.499735 
L 198.893616 139.254057 
L 201.363479 137.008379 
L 203.833342 134.762701 
L 206.303205 132.517023 
L 208.773068 130.271345 
L 211.242931 128.025667 
L 213.712794 125.779989 
L 216.182658 123.534311 
L 218.652521 121.288633 
L 221.122384 119.042955 
L 223.592247 116.797277 
L 226.06211 114.551599 
L 228.531973 112.305921 
L 231.001836 110.060243 
L 233.471699 107.814565 
L 235.941562 105.568887 
L 238.411425 103.323209 
L 240.881288 101.077531 
L 243.351151 98.831853 
L 245.821015 96.586175 
L 248.290878 94.340497 
L 250.760741 92.094819 
L 253.230604 89.849141 
L 255.700467 87.603463 
L 258.17033 85.357785 
L 260.640193 83.112107 
L 263.110056 80.866429 
L 265.579919 78.620751 
L 268.049782 76.375073 
L 270.519645 74.129395 
L 272.989508 71.883717 
L 275.459371 69.638039 
L 277.929235 67.392361 
L 280.399098 65.146683 
L 282.868961 62.901005 
L 285.338824 60.655327 
L 287.808687 58.409649 
L 290.27855 56.163971 
L 292.748413 53.918293 
L 295.218276 51.672615 
L 297.688139 49.426937 
L 300.158002 47.181259 
L 302.627865 44.935581 
L 305.097728 42.689903 
" clip-path="url(#p3315725542)" style="fill: none; stroke: #1f77b4; stroke-width: 2.25; stroke-linecap: square"/>
   </g>
   <g id="line2d_14">
    <path d="M 138.271038 289.238475 
L 140.192108 286.885597 
L 142.113178 284.532719 
L 144.034247 282.179842 
L 145.955317 279.826964 
L 147.876387 277.474086 
L 149.797457 275.121208 
L 151.718527 272.76833 
L 153.639597 270.415452 
L 155.560666 268.062574 
L 157.481736 265.709696 
L 159.402806 263.356818 
L 161.323876 261.00394 
L 163.244946 258.651063 
L 165.166016 256.298185 
L 167.087085 253.945307 
L 169.008155 251.592429 
L 170.929225 249.239551 
L 172.850295 246.886673 
L 174.771365 244.533795 
L 176.692435 242.180917 
L 178.613504 239.828039 
L 180.534574 237.475161 
L 182.455644 235.122284 
L 184.376714 232.769406 
L 186.297784 230.416528 
L 188.218854 228.06365 
L 190.139923 225.710772 
L 192.060993 223.357894 
L 193.982063 221.005016 
L 195.903133 218.652138 
L 197.824203 216.29926 
L 199.745273 213.946382 
L 201.666342 211.593505 
L 203.587412 209.240627 
L 205.508482 206.887749 
L 207.429552 204.534871 
L 209.350622 202.181993 
L 211.271692 199.829115 
L 213.192761 197.476237 
L 215.113831 195.123359 
L 217.034901 192.770481 
L 218.955971 190.417603 
L 220.877041 188.064726 
L 222.798111 185.711848 
L 224.719181 183.35897 
L 226.64025 181.006092 
L 228.56132 178.653214 
L 230.48239 176.300336 
L 232.40346 173.947458 
L 234.32453 171.59458 
L 236.2456 169.241702 
L 238.166669 166.888824 
L 240.087739 164.535947 
L 242.008809 162.183069 
L 243.929879 159.830191 
L 245.850949 157.477313 
L 247.772019 155.124435 
L 249.693088 152.771557 
L 251.614158 150.418679 
L 253.535228 148.065801 
L 255.456298 145.712923 
L 257.377368 143.360045 
L 259.298438 141.007168 
L 261.219507 138.65429 
L 263.140577 136.301412 
L 265.061647 133.948534 
L 266.982717 131.595656 
L 268.903787 129.242778 
L 270.824857 126.8899 
L 272.745926 124.537022 
L 274.666996 122.184144 
L 276.588066 119.831266 
L 278.509136 117.478389 
L 280.430206 115.125511 
L 282.351276 112.772633 
L 284.272345 110.419755 
L 286.193415 108.066877 
L 288.114485 105.713999 
L 290.035555 103.361121 
L 291.956625 101.008243 
L 293.877695 98.655365 
L 295.798764 96.302487 
L 297.719834 93.94961 
L 299.640904 91.596732 
L 301.561974 89.243854 
L 303.483044 86.890976 
L 305.404114 84.538098 
L 307.325183 82.18522 
L 309.246253 79.832342 
L 311.167323 77.479464 
L 313.088393 75.126586 
L 315.009463 72.773708 
L 316.930533 70.420831 
L 318.851602 68.067953 
L 320.772672 65.715075 
L 322.693742 63.362197 
L 324.614812 61.009319 
L 326.535882 58.656441 
L 328.456952 56.303563 
" clip-path="url(#p3315725542)" style="fill: none; stroke: #ff7f0e; stroke-width: 2.25; stroke-linecap: square"/>
   </g>
   <g id="patch_3">
    <path d="M 47.1875 314.44 
L 47.1875 7.2 
" style="fill: none; stroke: #000000; stroke-width: 0.8; stroke-linejoin: miter; stroke-linecap: square"/>
   </g>
   <g id="patch_4">
    <path d="M 47.1875 314.44 
L 341.850735 314.44 
" style="fill: none; stroke: #000000; stroke-width: 0.8; stroke-linejoin: miter; stroke-linecap: square"/>
   </g>
  </g>
  <g id="legend_1">
   <g id="text_15">
    <!-- type -->
    <g transform="translate(368.139716 164.079375) scale(0.1 -0.1)">
     <defs>
      <path id="DejaVuSans-74" d="M 1172 4494 
L 1172 3500 
L 2356 3500 
L 2356 3053 
L 1172 3053 
L 1172 1153 
Q 1172 725 1289 603 
Q 1406 481 1766 481 
L 2356 481 
L 2356 0 
L 1766 0 
Q 1100 0 847 248 
Q 594 497 594 1153 
L 594 3053 
L 172 3053 
L 172 3500 
L 594 3500 
L 594 4494 
L 1172 4494 
z
" transform="scale(0.015625)"/>
      <path id="DejaVuSans-79" d="M 2059 -325 
Q 1816 -950 1584 -1140 
Q 1353 -1331 966 -1331 
L 506 -1331 
L 506 -850 
L 844 -850 
Q 1081 -850 1212 -737 
Q 1344 -625 1503 -206 
L 1606 56 
L 191 3500 
L 800 3500 
L 1894 763 
L 2988 3500 
L 3597 3500 
L 2059 -325 
z
" transform="scale(0.015625)"/>
      <path id="DejaVuSans-65" d="M 3597 1894 
L 3597 1613 
L 953 1613 
Q 991 1019 1311 708 
Q 1631 397 2203 397 
Q 2534 397 2845 478 
Q 3156 559 3463 722 
L 3463 178 
Q 3153 47 2828 -22 
Q 2503 -91 2169 -91 
Q 1331 -91 842 396 
Q 353 884 353 1716 
Q 353 2575 817 3079 
Q 1281 3584 2069 3584 
Q 2775 3584 3186 3129 
Q 3597 2675 3597 1894 
z
M 3022 2063 
Q 3016 2534 2758 2815 
Q 2500 3097 2075 3097 
Q 1594 3097 1305 2825 
Q 1016 2553 972 2059 
L 3022 2063 
z
" transform="scale(0.015625)"/>
     </defs>
     <use xlink:href="#DejaVuSans-74"/>
     <use xlink:href="#DejaVuSans-79" x="39.208984"/>
     <use xlink:href="#DejaVuSans-70" x="98.388672"/>
     <use xlink:href="#DejaVuSans-65" x="161.865234"/>
    </g>
   </g>
   <g id="PathCollection_3">
    <g>
     <use xlink:href="#m5a62bb2400" x="357.431122" y="176.1325" style="fill: #1f77b4; fill-opacity: 0.8; stroke: #1f77b4; stroke-opacity: 0.8"/>
    </g>
   </g>
   <g id="text_16">
    <!-- alcohol -->
    <g transform="translate(375.431122 178.7575) scale(0.1 -0.1)">
     <defs>
      <path id="DejaVuSans-61" d="M 2194 1759 
Q 1497 1759 1228 1600 
Q 959 1441 959 1056 
Q 959 750 1161 570 
Q 1363 391 1709 391 
Q 2188 391 2477 730 
Q 2766 1069 2766 1631 
L 2766 1759 
L 2194 1759 
z
M 3341 1997 
L 3341 0 
L 2766 0 
L 2766 531 
Q 2569 213 2275 61 
Q 1981 -91 1556 -91 
Q 1019 -91 701 211 
Q 384 513 384 1019 
Q 384 1609 779 1909 
Q 1175 2209 1959 2209 
L 2766 2209 
L 2766 2266 
Q 2766 2663 2505 2880 
Q 2244 3097 1772 3097 
Q 1472 3097 1187 3025 
Q 903 2953 641 2809 
L 641 3341 
Q 956 3463 1253 3523 
Q 1550 3584 1831 3584 
Q 2591 3584 2966 3190 
Q 3341 2797 3341 1997 
z
" transform="scale(0.015625)"/>
      <path id="DejaVuSans-63" d="M 3122 3366 
L 3122 2828 
Q 2878 2963 2633 3030 
Q 2388 3097 2138 3097 
Q 1578 3097 1268 2742 
Q 959 2388 959 1747 
Q 959 1106 1268 751 
Q 1578 397 2138 397 
Q 2388 397 2633 464 
Q 2878 531 3122 666 
L 3122 134 
Q 2881 22 2623 -34 
Q 2366 -91 2075 -91 
Q 1284 -91 818 406 
Q 353 903 353 1747 
Q 353 2603 823 3093 
Q 1294 3584 2113 3584 
Q 2378 3584 2631 3529 
Q 2884 3475 3122 3366 
z
" transform="scale(0.015625)"/>
      <path id="DejaVuSans-68" d="M 3513 2113 
L 3513 0 
L 2938 0 
L 2938 2094 
Q 2938 2591 2744 2837 
Q 2550 3084 2163 3084 
Q 1697 3084 1428 2787 
Q 1159 2491 1159 1978 
L 1159 0 
L 581 0 
L 581 4863 
L 1159 4863 
L 1159 2956 
Q 1366 3272 1645 3428 
Q 1925 3584 2291 3584 
Q 2894 3584 3203 3211 
Q 3513 2838 3513 2113 
z
" transform="scale(0.015625)"/>
     </defs>
     <use xlink:href="#DejaVuSans-61"/>
     <use xlink:href="#DejaVuSans-6c" x="61.279297"/>
     <use xlink:href="#DejaVuSans-63" x="89.0625"/>
     <use xlink:href="#DejaVuSans-6f" x="144.042969"/>
     <use xlink:href="#DejaVuSans-68" x="205.224609"/>
     <use xlink:href="#DejaVuSans-6f" x="268.603516"/>
     <use xlink:href="#DejaVuSans-6c" x="329.785156"/>
    </g>
   </g>
   <g id="PathCollection_4">
    <g>
     <use xlink:href="#m198d2261d5" x="357.431122" y="190.810625" style="fill: #ff7f0e; fill-opacity: 0.8; stroke: #ff7f0e; stroke-opacity: 0.8"/>
    </g>
   </g>
   <g id="text_17">
    <!-- alkane -->
    <g transform="translate(375.431122 193.435625) scale(0.1 -0.1)">
     <defs>
      <path id="DejaVuSans-6b" d="M 581 4863 
L 1159 4863 
L 1159 1991 
L 2875 3500 
L 3609 3500 
L 1753 1863 
L 3688 0 
L 2938 0 
L 1159 1709 
L 1159 0 
L 581 0 
L 581 4863 
z
" transform="scale(0.015625)"/>
      <path id="DejaVuSans-6e" d="M 3513 2113 
L 3513 0 
L 2938 0 
L 2938 2094 
Q 2938 2591 2744 2837 
Q 2550 3084 2163 3084 
Q 1697 3084 1428 2787 
Q 1159 2491 1159 1978 
L 1159 0 
L 581 0 
L 581 3500 
L 1159 3500 
L 1159 2956 
Q 1366 3272 1645 3428 
Q 1925 3584 2291 3584 
Q 2894 3584 3203 3211 
Q 3513 2838 3513 2113 
z
" transform="scale(0.015625)"/>
     </defs>
     <use xlink:href="#DejaVuSans-61"/>
     <use xlink:href="#DejaVuSans-6c" x="61.279297"/>
     <use xlink:href="#DejaVuSans-6b" x="89.0625"/>
     <use xlink:href="#DejaVuSans-61" x="145.222656"/>
     <use xlink:href="#DejaVuSans-6e" x="206.501953"/>
     <use xlink:href="#DejaVuSans-65" x="269.880859"/>
    </g>
   </g>
  </g>
 </g>
 <defs>
  <clipPath id="p3315725542">
   <rect x="47.1875" y="7.2" width="294.663235" height="307.24"/>
  </clipPath>
 </defs>
</svg>