<?xml version="1.0" encoding="utf-8" standalone="no"?>
<!DOCTYPE svg PUBLIC "-//W3C//DTD SVG 1.1//EN"
  "http://www.w3.org/Graphics/SVG/1.1/DTD/svg11.dtd">
<svg xmlns:xlink="http://www.w3.org/1999/xlink" width="532.7175pt" height="351.99625pt" viewBox="0 0 532.7175 351.99625" xmlns="http://www.w3.org/2000/svg" version="1.1">
 <metadata>
  <rdf:RDF xmlns:dc="http://purl.org/dc/elements/1.1/" xmlns:cc="http://creativecommons.org/ns#" xmlns:rdf="http://www.w3.org/1999/02/22-rdf-syntax-ns#">
   <cc:Work>
    <dc:type rdf:resource="http://purl.org/dc/dcmitype/StillImage"/>
    <dc:date>2025-08-11T07:13:10.606869</dc:date>
    <dc:format>image/svg+xml</dc:format>
    <dc:creator>
     <cc:Agent>
      <dc:title>Matplotlib v3.10.3, https://matplotlib.org/</dc:title>
     </cc:Agent>
    </dc:creator>
   </cc:Work>
  </rdf:RDF>
 </metadata>
 <defs>
  <style type="text/css">*{stroke-linejoin: round; stroke-linecap: butt}</style>
 </defs>
 <g id="figure_1">
  <g id="patch_1">
   <path d="M 0 351.99625 
L 532.7175 351.99625 
L 532.7175 0 
L 0 0 
z
" style="fill: #ffffff"/>
  </g>
  <g id="axes_1">
   <g id="patch_2">
    <path d="M 47.1875 314.44 
L 525.5175 314.44 
L 525.5175 7.2 
L 47.1875 7.2 
z
" style="fill: #ffffff"/>
   </g>
   <g id="PathCollection_1">
    <defs>
     <path id="m45dad43b21" d="M 0 3 
C 0.795609 3 1.55874 2.683901 2.12132 2.12132 
C 2.683901 1.55874 3 0.795609 3 0 
C 3 -0.795609 2.683901 -1.55874 2.12132 -2.12132 
C 1.55874 -2.683901 0.795609 -3 0 -3 
C -0.795609 -3 -1.55874 -2.683901 -2.12132 -2.12132 
C -2.683901 -1.55874 -3 -0.795609 -3 0 
C -3 0.795609 -2.683901 1.55874 -2.12132 2.12132 
C -1.55874 2.683901 -0.795609 3 0 3 
z
" style="stroke: #1f77b4; stroke-opacity: 0.8"/>
    </defs>
    <g clip-path="url(#pf25b048437)">
     <use xlink:href="#m45dad43b21" x="68.929773" y="254.040385" style="fill: #1f77b4; fill-opacity: 0.8; stroke: #1f77b4; stroke-opacity: 0.8"/>
     <use xlink:href="#m45dad43b21" x="113.043162" y="237.72568" style="fill: #1f77b4; fill-opacity: 0.8; stroke: #1f77b4; stroke-opacity: 0.8"/>
     <use xlink:href="#m45dad43b21" x="157.156551" y="212.626134" style="fill: #1f77b4; fill-opacity: 0.8; stroke: #1f77b4; stroke-opacity: 0.8"/>
     <use xlink:href="#m45dad43b21" x="201.238498" y="187.526588" style="fill: #1f77b4; fill-opacity: 0.8; stroke: #1f77b4; stroke-opacity: 0.8"/>
     <use xlink:href="#m45dad43b21" x="245.351887" y="161.172064" style="fill: #1f77b4; fill-opacity: 0.8; stroke: #1f77b4; stroke-opacity: 0.8"/>
     <use xlink:href="#m45dad43b21" x="289.465277" y="138.582473" style="fill: #1f77b4; fill-opacity: 0.8; stroke: #1f77b4; stroke-opacity: 0.8"/>
     <use xlink:href="#m45dad43b21" x="333.547224" y="114.737904" style="fill: #1f77b4; fill-opacity: 0.8; stroke: #1f77b4; stroke-opacity: 0.8"/>
     <use xlink:href="#m45dad43b21" x="377.660613" y="90.893335" style="fill: #1f77b4; fill-opacity: 0.8; stroke: #1f77b4; stroke-opacity: 0.8"/>
     <use xlink:href="#m45dad43b21" x="421.74256" y="69.558721" style="fill: #1f77b4; fill-opacity: 0.8; stroke: #1f77b4; stroke-opacity: 0.8"/>
     <use xlink:href="#m45dad43b21" x="465.855949" y="44.459175" style="fill: #1f77b4; fill-opacity: 0.8; stroke: #1f77b4; stroke-opacity: 0.8"/>
     <use xlink:href="#m45dad43b21" x="201.238498" y="200.076361" style="fill: #1f77b4; fill-opacity: 0.8; stroke: #1f77b4; stroke-opacity: 0.8"/>
     <use xlink:href="#m45dad43b21" x="201.238498" y="231.450794" style="fill: #1f77b4; fill-opacity: 0.8; stroke: #1f77b4; stroke-opacity: 0.8"/>
     <use xlink:href="#m45dad43b21" x="245.351887" y="171.211883" style="fill: #1f77b4; fill-opacity: 0.8; stroke: #1f77b4; stroke-opacity: 0.8"/>
     <use xlink:href="#m45dad43b21" x="289.465277" y="166.191974" style="fill: #1f77b4; fill-opacity: 0.8; stroke: #1f77b4; stroke-opacity: 0.8"/>
     <use xlink:href="#m45dad43b21" x="333.547224" y="159.917087" style="fill: #1f77b4; fill-opacity: 0.8; stroke: #1f77b4; stroke-opacity: 0.8"/>
     <use xlink:href="#m45dad43b21" x="264.091431" y="107.20804" style="fill: #1f77b4; fill-opacity: 0.8; stroke: #1f77b4; stroke-opacity: 0.8"/>
     <use xlink:href="#m45dad43b21" x="308.20482" y="82.108494" style="fill: #1f77b4; fill-opacity: 0.8; stroke: #1f77b4; stroke-opacity: 0.8"/>
     <use xlink:href="#m45dad43b21" x="396.400157" y="59.518903" style="fill: #1f77b4; fill-opacity: 0.8; stroke: #1f77b4; stroke-opacity: 0.8"/>
    </g>
   </g>
   <g id="FillBetweenPolyCollection_1">
    <path d="M 68.929773 249.735595 
L 68.929773 284.262484 
L 72.939128 281.722796 
L 76.948483 279.198255 
L 80.957839 276.592728 
L 84.967194 274.053086 
L 88.976549 271.594291 
L 92.985905 269.131114 
L 96.99526 266.622243 
L 101.004615 264.192583 
L 105.013971 261.762923 
L 109.023326 259.263354 
L 113.032681 256.713893 
L 117.042037 254.093571 
L 121.051392 251.631829 
L 125.060747 249.228 
L 129.070102 246.722141 
L 133.079458 244.218623 
L 137.088813 241.802007 
L 141.098168 239.47604 
L 145.107524 237.149151 
L 149.116879 234.654222 
L 153.126234 232.276982 
L 157.13559 229.821799 
L 161.144945 227.350026 
L 165.1543 224.777529 
L 169.163656 222.205032 
L 173.173011 219.632535 
L 177.182366 217.186939 
L 181.191722 214.836178 
L 185.201077 212.482737 
L 189.210432 210.134656 
L 193.219788 207.705696 
L 197.229143 205.251149 
L 201.238498 203.096786 
L 205.247853 200.745229 
L 209.257209 198.387514 
L 213.266564 195.901928 
L 217.275919 193.484805 
L 221.285275 191.232076 
L 225.29463 188.872307 
L 229.303985 186.468219 
L 233.313341 184.036519 
L 237.322696 181.702722 
L 241.332051 179.327899 
L 245.341407 176.859124 
L 249.350762 174.62665 
L 253.360117 172.395232 
L 257.369473 170.022774 
L 261.378828 167.6422 
L 265.388183 165.416472 
L 269.397539 163.175956 
L 273.406894 160.763267 
L 277.416249 158.442918 
L 281.425604 156.137336 
L 285.43496 153.790926 
L 289.444315 151.593926 
L 293.45367 149.553868 
L 297.463026 147.400994 
L 301.472381 145.313767 
L 305.481736 143.342029 
L 309.491092 141.163981 
L 313.500447 138.900105 
L 317.509802 136.713523 
L 321.519158 134.406972 
L 325.528513 132.114759 
L 329.537868 129.89005 
L 333.547224 127.79522 
L 337.556579 125.703294 
L 341.565934 123.615676 
L 345.57529 121.52635 
L 349.584645 119.247172 
L 353.594 117.180927 
L 357.603355 115.153013 
L 361.612711 113.1251 
L 365.622066 111.046287 
L 369.631421 108.993519 
L 373.640777 106.903796 
L 377.650132 104.816015 
L 381.659487 102.72726 
L 385.668843 100.716208 
L 389.678198 98.607634 
L 393.687553 96.512963 
L 397.696909 94.380013 
L 401.706264 92.28235 
L 405.715619 90.193962 
L 409.724975 88.105575 
L 413.73433 86.017187 
L 417.743685 83.928799 
L 421.753041 81.840411 
L 425.762396 79.782442 
L 429.771751 77.816451 
L 433.781106 75.846737 
L 437.790462 73.782936 
L 441.799817 71.719135 
L 445.809172 69.655334 
L 449.818528 67.591533 
L 453.827883 65.669152 
L 457.837238 63.751948 
L 461.846594 61.749166 
L 465.855949 59.664543 
L 465.855949 21.165455 
L 465.855949 21.165455 
L 461.846594 23.59935 
L 457.837238 26.108446 
L 453.827883 28.620314 
L 449.818528 31.13278 
L 445.809172 33.645246 
L 441.799817 36.147153 
L 437.790462 38.614717 
L 433.781106 41.170806 
L 429.771751 43.633791 
L 425.762396 46.099347 
L 421.753041 48.639311 
L 417.743685 51.231534 
L 413.73433 53.684556 
L 409.724975 56.222382 
L 405.715619 58.762695 
L 401.706264 61.02571 
L 397.696909 63.41194 
L 393.687553 65.913302 
L 389.678198 68.418259 
L 385.668843 71.040033 
L 381.659487 73.421052 
L 377.650132 75.924683 
L 373.640777 78.42186 
L 369.631421 80.861859 
L 365.622066 83.24724 
L 361.612711 85.632621 
L 357.603355 88.018003 
L 353.594 90.588111 
L 349.584645 93.069214 
L 345.57529 95.369137 
L 341.565934 98.007101 
L 337.556579 100.28618 
L 333.547224 102.746373 
L 329.537868 105.080657 
L 325.528513 107.677108 
L 321.519158 110.195834 
L 317.509802 112.603586 
L 313.500447 114.857291 
L 309.491092 117.134585 
L 305.481736 119.68031 
L 301.472381 121.990847 
L 297.463026 124.198643 
L 293.45367 126.406438 
L 289.444315 128.815674 
L 285.43496 131.223932 
L 281.425604 133.534446 
L 277.416249 135.777359 
L 273.406894 138.230692 
L 269.397539 140.687233 
L 265.388183 142.927971 
L 261.378828 145.193739 
L 257.369473 147.332887 
L 253.360117 149.527111 
L 249.350762 151.775546 
L 245.341407 154.194999 
L 241.332051 156.399122 
L 237.322696 158.515222 
L 233.313341 160.67506 
L 229.303985 162.835386 
L 225.29463 164.995712 
L 221.285275 167.166826 
L 217.275919 169.525948 
L 213.266564 171.79563 
L 209.257209 173.99599 
L 205.247853 176.196351 
L 201.238498 178.396711 
L 197.229143 180.603757 
L 193.219788 182.978311 
L 189.210432 185.168341 
L 185.201077 187.35837 
L 181.191722 189.548399 
L 177.182366 191.672936 
L 173.173011 193.928458 
L 169.163656 196.118488 
L 165.1543 198.240638 
L 161.144945 200.407536 
L 157.13559 202.610299 
L 153.126234 204.878606 
L 149.116879 207.068635 
L 145.107524 209.210043 
L 141.098168 211.339908 
L 137.088813 213.606803 
L 133.079458 215.765595 
L 129.070102 217.821027 
L 125.060747 219.877682 
L 121.051392 221.974677 
L 117.042037 224.166469 
L 113.032681 226.358261 
L 109.023326 228.522777 
L 105.013971 230.618778 
L 101.004615 232.716754 
L 96.99526 234.814729 
L 92.985905 236.912705 
L 88.976549 239.118369 
L 84.967194 241.336719 
L 80.957839 243.543947 
L 76.948483 245.461772 
L 72.939128 247.523443 
L 68.929773 249.735595 
z
" clip-path="url(#pf25b048437)" style="fill: #1f77b4; fill-opacity: 0.15"/>
   </g>
   <g id="PathCollection_2">
    <defs>
     <path id="m583ce23a5d" d="M 0 -3 
L -3 3 
L 3 3 
z
" style="stroke: #ff7f0e; stroke-opacity: 0.8"/>
    </defs>
    <g clip-path="url(#pf25b048437)">
     <use xlink:href="#m583ce23a5d" x="195.044387" y="290.434727" style="fill: #ff7f0e; fill-opacity: 0.8; stroke: #ff7f0e; stroke-opacity: 0.8"/>
     <use xlink:href="#m583ce23a5d" x="239.157776" y="249.020476" style="fill: #ff7f0e; fill-opacity: 0.8; stroke: #ff7f0e; stroke-opacity: 0.8"/>
     <use xlink:href="#m583ce23a5d" x="283.271166" y="212.626134" style="fill: #ff7f0e; fill-opacity: 0.8; stroke: #ff7f0e; stroke-opacity: 0.8"/>
     <use xlink:href="#m583ce23a5d" x="327.353113" y="177.486769" style="fill: #ff7f0e; fill-opacity: 0.8; stroke: #ff7f0e; stroke-opacity: 0.8"/>
     <use xlink:href="#m583ce23a5d" x="371.466502" y="146.112337" style="fill: #ff7f0e; fill-opacity: 0.8; stroke: #ff7f0e; stroke-opacity: 0.8"/>
     <use xlink:href="#m583ce23a5d" x="415.579891" y="117.247859" style="fill: #ff7f0e; fill-opacity: 0.8; stroke: #ff7f0e; stroke-opacity: 0.8"/>
     <use xlink:href="#m583ce23a5d" x="459.661838" y="89.638358" style="fill: #ff7f0e; fill-opacity: 0.8; stroke: #ff7f0e; stroke-opacity: 0.8"/>
     <use xlink:href="#m583ce23a5d" x="503.775227" y="64.538812" style="fill: #ff7f0e; fill-opacity: 0.8; stroke: #ff7f0e; stroke-opacity: 0.8"/>
     <use xlink:href="#m583ce23a5d" x="239.157776" y="256.55034" style="fill: #ff7f0e; fill-opacity: 0.8; stroke: #ff7f0e; stroke-opacity: 0.8"/>
     <use xlink:href="#m583ce23a5d" x="327.353113" y="188.781565" style="fill: #ff7f0e; fill-opacity: 0.8; stroke: #ff7f0e; stroke-opacity: 0.8"/>
     <use xlink:href="#m583ce23a5d" x="195.044387" y="300.474545" style="fill: #ff7f0e; fill-opacity: 0.8; stroke: #ff7f0e; stroke-opacity: 0.8"/>
     <use xlink:href="#m583ce23a5d" x="283.271166" y="235.215725" style="fill: #ff7f0e; fill-opacity: 0.8; stroke: #ff7f0e; stroke-opacity: 0.8"/>
    </g>
   </g>
   <g id="FillBetweenPolyCollection_2">
    <path d="M 195.044387 280.108603 
L 195.044387 296.881856 
L 198.162881 294.35247 
L 201.281374 291.881688 
L 204.399867 289.356498 
L 207.518361 286.882357 
L 210.636854 284.304993 
L 213.755347 281.870387 
L 216.873841 279.384725 
L 219.992334 276.89206 
L 223.110827 274.299347 
L 226.229321 271.79983 
L 229.347814 269.240917 
L 232.466307 266.793926 
L 235.584801 264.258535 
L 238.703294 261.759443 
L 241.821787 259.294672 
L 244.940281 256.807764 
L 248.058774 254.348832 
L 251.177267 251.849005 
L 254.295761 249.369773 
L 257.414254 246.911375 
L 260.532747 244.490239 
L 263.651241 242.04959 
L 266.769734 239.588105 
L 269.888227 237.191762 
L 273.006721 234.735941 
L 276.125214 232.280119 
L 279.243707 229.873767 
L 282.362201 227.398924 
L 285.480694 224.974574 
L 288.599187 222.605367 
L 291.717681 220.256491 
L 294.836174 217.877435 
L 297.954667 215.457888 
L 301.073161 213.043918 
L 304.191654 210.62663 
L 307.310147 208.209342 
L 310.428641 205.754876 
L 313.547134 203.265186 
L 316.665627 200.783393 
L 319.784121 198.357602 
L 322.902614 195.954628 
L 326.021107 193.575622 
L 329.139601 191.214833 
L 332.258094 188.847887 
L 335.376587 186.454695 
L 338.495081 184.059598 
L 341.613574 181.681105 
L 344.732067 179.323952 
L 347.850561 176.979309 
L 350.969054 174.626933 
L 354.087547 172.279502 
L 357.206041 169.931872 
L 360.324534 167.583637 
L 363.443027 165.235403 
L 366.561521 162.889836 
L 369.680014 160.553639 
L 372.798507 158.190438 
L 375.917001 155.8805 
L 379.035494 153.526935 
L 382.153987 151.151467 
L 385.272481 148.818585 
L 388.390974 146.467186 
L 391.509467 144.117895 
L 394.627961 141.85175 
L 397.746454 139.565882 
L 400.864947 137.23519 
L 403.983441 134.908956 
L 407.101934 132.545403 
L 410.220427 130.151911 
L 413.338921 127.856303 
L 416.457414 125.571719 
L 419.575907 123.231906 
L 422.694401 120.913338 
L 425.812894 118.604873 
L 428.931387 116.329148 
L 432.049881 114.044017 
L 435.168374 111.739604 
L 438.286867 109.48745 
L 441.405361 107.235296 
L 444.523854 104.933579 
L 447.642347 102.572778 
L 450.760841 100.257349 
L 453.879334 97.974863 
L 456.997827 95.711165 
L 460.116321 93.399006 
L 463.234814 91.070649 
L 466.353307 88.746051 
L 469.471801 86.439005 
L 472.590294 84.116937 
L 475.708787 81.78081 
L 478.827281 79.473001 
L 481.945774 77.181269 
L 485.064267 74.878521 
L 488.182761 72.545546 
L 491.301254 70.294628 
L 494.419747 68.075224 
L 497.538241 65.880713 
L 500.656734 63.685617 
L 503.775227 61.470302 
L 503.775227 37.203022 
L 503.775227 37.203022 
L 500.656734 39.828953 
L 497.538241 42.454885 
L 494.419747 45.080817 
L 491.301254 47.708993 
L 488.182761 50.350234 
L 485.064267 52.991476 
L 481.945774 55.632717 
L 478.827281 58.273958 
L 475.708787 60.915199 
L 472.590294 63.556441 
L 469.471801 66.197682 
L 466.353307 68.838923 
L 463.234814 71.480164 
L 460.116321 74.121406 
L 456.997827 76.762647 
L 453.879334 79.403888 
L 450.760841 82.0456 
L 447.642347 84.687411 
L 444.523854 87.329222 
L 441.405361 89.971033 
L 438.286867 92.612843 
L 435.168374 95.254654 
L 432.049881 97.852434 
L 428.931387 100.395472 
L 425.812894 103.004146 
L 422.694401 105.528536 
L 419.575907 108.092853 
L 416.457414 110.704033 
L 413.338921 113.182572 
L 410.220427 115.66111 
L 407.101934 118.149549 
L 403.983441 120.675962 
L 400.864947 123.211324 
L 397.746454 125.832603 
L 394.627961 128.482795 
L 391.509467 131.132987 
L 388.390974 133.698694 
L 385.272481 136.225069 
L 382.153987 138.819668 
L 379.035494 141.380031 
L 375.917001 143.906598 
L 372.798507 146.465707 
L 369.680014 148.959087 
L 366.561521 151.421782 
L 363.443027 153.918163 
L 360.324534 156.535624 
L 357.206041 159.10812 
L 354.087547 161.702468 
L 350.969054 164.295303 
L 347.850561 166.693704 
L 344.732067 169.160909 
L 341.613574 171.686444 
L 338.495081 174.141673 
L 335.376587 176.459603 
L 332.258094 178.994001 
L 329.139601 181.487709 
L 326.021107 183.767751 
L 322.902614 186.15152 
L 319.784121 188.588073 
L 316.665627 191.065227 
L 313.547134 193.655817 
L 310.428641 196.082967 
L 307.310147 198.495592 
L 304.191654 200.8022 
L 301.073161 203.147196 
L 297.954667 205.365597 
L 294.836174 207.645088 
L 291.717681 209.980595 
L 288.599187 212.30288 
L 285.480694 214.678014 
L 282.362201 217.061287 
L 279.243707 219.384581 
L 276.125214 221.623875 
L 273.006721 223.883179 
L 269.888227 226.132541 
L 266.769734 228.382488 
L 263.651241 230.626875 
L 260.532747 232.838172 
L 257.414254 235.09009 
L 254.295761 237.345615 
L 251.177267 239.597055 
L 248.058774 241.869621 
L 244.940281 244.126463 
L 241.821787 246.356214 
L 238.703294 248.607948 
L 235.584801 250.859683 
L 232.466307 253.111914 
L 229.347814 255.365079 
L 226.229321 257.617118 
L 223.110827 259.866266 
L 219.992334 262.115415 
L 216.873841 264.364563 
L 213.755347 266.613712 
L 210.636854 268.86286 
L 207.518361 271.112009 
L 204.399867 273.361157 
L 201.281374 275.610306 
L 198.162881 277.859454 
L 195.044387 280.108603 
z
" clip-path="url(#pf25b048437)" style="fill: #ff7f0e; fill-opacity: 0.15"/>
   </g>
   <g id="matplotlib.axis_1">
    <g id="xtick_1">
     <g id="line2d_1">
      <defs>
       <path id="m6cd66236d7" d="M 0 0 
L 0 3.5 
" style="stroke: #000000; stroke-width: 0.8"/>
      </defs>
      <g>
       <use xlink:href="#m6cd66236d7" x="93.957754" y="314.44" style="stroke: #000000; stroke-width: 0.8"/>
      </g>
     </g>
     <g id="text_1">
      <!-- 40 -->
      <g transform="translate(87.595254 329.038437) scale(0.1 -0.1)">
       <defs>
        <path id="DejaVuSans-34" d="M 2419 4116 
L 825 1625 
L 2419 1625 
L 2419 4116 
z
M 2253 4666 
L 3047 4666 
L 3047 1625 
L 3713 1625 
L 3713 1100 
L 3047 1100 
L 3047 0 
L 2419 0 
L 2419 1100 
L 313 1100 
L 313 1709 
L 2253 4666 
z
" transform="scale(0.015625)"/>
        <path id="DejaVuSans-30" d="M 2034 4250 
Q 1547 4250 1301 3770 
Q 1056 3291 1056 2328 
Q 1056 1369 1301 889 
Q 1547 409 2034 409 
Q 2525 409 2770 889 
Q 3016 1369 3016 2328 
Q 3016 3291 2770 3770 
Q 2525 4250 2034 4250 
z
M 2034 4750 
Q 2819 4750 3233 4129 
Q 3647 3509 3647 2328 
Q 3647 1150 3233 529 
Q 2819 -91 2034 -91 
Q 1250 -91 836 529 
Q 422 1150 422 2328 
Q 422 3509 836 4129 
Q 1250 4750 2034 4750 
z
" transform="scale(0.015625)"/>
       </defs>
       <use xlink:href="#DejaVuSans-34"/>
       <use xlink:href="#DejaVuSans-30" transform="translate(63.623047 0)"/>
      </g>
     </g>
    </g>
    <g id="xtick_2">
     <g id="line2d_2">
      <g>
       <use xlink:href="#m6cd66236d7" x="156.842129" y="314.44" style="stroke: #000000; stroke-width: 0.8"/>
      </g>
     </g>
     <g id="text_2">
      <!-- 60 -->
      <g transform="translate(150.479629 329.038437) scale(0.1 -0.1)">
       <defs>
        <path id="DejaVuSans-36" d="M 2113 2584 
Q 1688 2584 1439 2293 
Q 1191 2003 1191 1497 
Q 1191 994 1439 701 
Q 1688 409 2113 409 
Q 2538 409 2786 701 
Q 3034 994 3034 1497 
Q 3034 2003 2786 2293 
Q 2538 2584 2113 2584 
z
M 3366 4563 
L 3366 3988 
Q 3128 4100 2886 4159 
Q 2644 4219 2406 4219 
Q 1781 4219 1451 3797 
Q 1122 3375 1075 2522 
Q 1259 2794 1537 2939 
Q 1816 3084 2150 3084 
Q 2853 3084 3261 2657 
Q 3669 2231 3669 1497 
Q 3669 778 3244 343 
Q 2819 -91 2113 -91 
Q 1303 -91 875 529 
Q 447 1150 447 2328 
Q 447 3434 972 4092 
Q 1497 4750 2381 4750 
Q 2619 4750 2861 4703 
Q 3103 4656 3366 4563 
z
" transform="scale(0.015625)"/>
       </defs>
       <use xlink:href="#DejaVuSans-36"/>
       <use xlink:href="#DejaVuSans-30" transform="translate(63.623047 0)"/>
      </g>
     </g>
    </g>
    <g id="xtick_3">
     <g id="line2d_3">
      <g>
       <use xlink:href="#m6cd66236d7" x="219.726504" y="314.44" style="stroke: #000000; stroke-width: 0.8"/>
      </g>
     </g>
     <g id="text_3">
      <!-- 80 -->
      <g transform="translate(213.364004 329.038437) scale(0.1 -0.1)">
       <defs>
        <path id="DejaVuSans-38" d="M 2034 2216 
Q 1584 2216 1326 1975 
Q 1069 1734 1069 1313 
Q 1069 891 1326 650 
Q 1584 409 2034 409 
Q 2484 409 2743 651 
Q 3003 894 3003 1313 
Q 3003 1734 2745 1975 
Q 2488 2216 2034 2216 
z
M 1403 2484 
Q 997 2584 770 2862 
Q 544 3141 544 3541 
Q 544 4100 942 4425 
Q 1341 4750 2034 4750 
Q 2731 4750 3128 4425 
Q 3525 4100 3525 3541 
Q 3525 3141 3298 2862 
Q 3072 2584 2669 2484 
Q 3125 2378 3379 2068 
Q 3634 1759 3634 1313 
Q 3634 634 3220 271 
Q 2806 -91 2034 -91 
Q 1263 -91 848 271 
Q 434 634 434 1313 
Q 434 1759 690 2068 
Q 947 2378 1403 2484 
z
M 1172 3481 
Q 1172 3119 1398 2916 
Q 1625 2713 2034 2713 
Q 2441 2713 2670 2916 
Q 2900 3119 2900 3481 
Q 2900 3844 2670 4047 
Q 2441 4250 2034 4250 
Q 1625 4250 1398 4047 
Q 1172 3844 1172 3481 
z
" transform="scale(0.015625)"/>
       </defs>
       <use xlink:href="#DejaVuSans-38"/>
       <use xlink:href="#DejaVuSans-30" transform="translate(63.623047 0)"/>
      </g>
     </g>
    </g>
    <g id="xtick_4">
     <g id="line2d_4">
      <g>
       <use xlink:href="#m6cd66236d7" x="282.61088" y="314.44" style="stroke: #000000; stroke-width: 0.8"/>
      </g>
     </g>
     <g id="text_4">
      <!-- 100 -->
      <g transform="translate(273.06713 329.038437) scale(0.1 -0.1)">
       <defs>
        <path id="DejaVuSans-31" d="M 794 531 
L 1825 531 
L 1825 4091 
L 703 3866 
L 703 4441 
L 1819 4666 
L 2450 4666 
L 2450 531 
L 3481 531 
L 3481 0 
L 794 0 
L 794 531 
z
" transform="scale(0.015625)"/>
       </defs>
       <use xlink:href="#DejaVuSans-31"/>
       <use xlink:href="#DejaVuSans-30" transform="translate(63.623047 0)"/>
       <use xlink:href="#DejaVuSans-30" transform="translate(127.246094 0)"/>
      </g>
     </g>
    </g>
    <g id="xtick_5">
     <g id="line2d_5">
      <g>
       <use xlink:href="#m6cd66236d7" x="345.495255" y="314.44" style="stroke: #000000; stroke-width: 0.8"/>
      </g>
     </g>
     <g id="text_5">
      <!-- 120 -->
      <g transform="translate(335.951505 329.038437) scale(0.1 -0.1)">
       <defs>
        <path id="DejaVuSans-32" d="M 1228 531 
L 3431 531 
L 3431 0 
L 469 0 
L 469 531 
Q 828 903 1448 1529 
Q 2069 2156 2228 2338 
Q 2531 2678 2651 2914 
Q 2772 3150 2772 3378 
Q 2772 3750 2511 3984 
Q 2250 4219 1831 4219 
Q 1534 4219 1204 4116 
Q 875 4013 500 3803 
L 500 4441 
Q 881 4594 1212 4672 
Q 1544 4750 1819 4750 
Q 2544 4750 2975 4387 
Q 3406 4025 3406 3419 
Q 3406 3131 3298 2873 
Q 3191 2616 2906 2266 
Q 2828 2175 2409 1742 
Q 1991 1309 1228 531 
z
" transform="scale(0.015625)"/>
       </defs>
       <use xlink:href="#DejaVuSans-31"/>
       <use xlink:href="#DejaVuSans-32" transform="translate(63.623047 0)"/>
       <use xlink:href="#DejaVuSans-30" transform="translate(127.246094 0)"/>
      </g>
     </g>
    </g>
    <g id="xtick_6">
     <g id="line2d_6">
      <g>
       <use xlink:href="#m6cd66236d7" x="408.37963" y="314.44" style="stroke: #000000; stroke-width: 0.8"/>
      </g>
     </g>
     <g id="text_6">
      <!-- 140 -->
      <g transform="translate(398.83588 329.038437) scale(0.1 -0.1)">
       <use xlink:href="#DejaVuSans-31"/>
       <use xlink:href="#DejaVuSans-34" transform="translate(63.623047 0)"/>
       <use xlink:href="#DejaVuSans-30" transform="translate(127.246094 0)"/>
      </g>
     </g>
    </g>
    <g id="xtick_7">
     <g id="line2d_7">
      <g>
       <use xlink:href="#m6cd66236d7" x="471.264005" y="314.44" style="stroke: #000000; stroke-width: 0.8"/>
      </g>
     </g>
     <g id="text_7">
      <!-- 160 -->
      <g transform="translate(461.720255 329.038437) scale(0.1 -0.1)">
       <use xlink:href="#DejaVuSans-31"/>
       <use xlink:href="#DejaVuSans-36" transform="translate(63.623047 0)"/>
       <use xlink:href="#DejaVuSans-30" transform="translate(127.246094 0)"/>
      </g>
     </g>
    </g>
    <g id="text_8">
     <!-- MW, g/mol -->
     <g transform="translate(259.739219 342.716562) scale(0.1 -0.1)">
      <defs>
       <path id="DejaVuSans-4d" d="M 628 4666 
L 1569 4666 
L 2759 1491 
L 3956 4666 
L 4897 4666 
L 4897 0 
L 4281 0 
L 4281 4097 
L 3078 897 
L 2444 897 
L 1241 4097 
L 1241 0 
L 628 0 
L 628 4666 
z
" transform="scale(0.015625)"/>
       <path id="DejaVuSans-57" d="M 213 4666 
L 850 4666 
L 1831 722 
L 2809 4666 
L 3519 4666 
L 4500 722 
L 5478 4666 
L 6119 4666 
L 4947 0 
L 4153 0 
L 3169 4050 
L 2175 0 
L 1381 0 
L 213 4666 
z
" transform="scale(0.015625)"/>
       <path id="DejaVuSans-2c" d="M 750 794 
L 1409 794 
L 1409 256 
L 897 -744 
L 494 -744 
L 750 256 
L 750 794 
z
" transform="scale(0.015625)"/>
       <path id="DejaVuSans-20" transform="scale(0.015625)"/>
       <path id="DejaVuSans-67" d="M 2906 1791 
Q 2906 2416 2648 2759 
Q 2391 3103 1925 3103 
Q 1463 3103 1205 2759 
Q 947 2416 947 1791 
Q 947 1169 1205 825 
Q 1463 481 1925 481 
Q 2391 481 2648 825 
Q 2906 1169 2906 1791 
z
M 3481 434 
Q 3481 -459 3084 -895 
Q 2688 -1331 1869 -1331 
Q 1566 -1331 1297 -1286 
Q 1028 -1241 775 -1147 
L 775 -588 
Q 1028 -725 1275 -790 
Q 1522 -856 1778 -856 
Q 2344 -856 2625 -561 
Q 2906 -266 2906 331 
L 2906 616 
Q 2728 306 2450 153 
Q 2172 0 1784 0 
Q 1141 0 747 490 
Q 353 981 353 1791 
Q 353 2603 747 3093 
Q 1141 3584 1784 3584 
Q 2172 3584 2450 3431 
Q 2728 3278 2906 2969 
L 2906 3500 
L 3481 3500 
L 3481 434 
z
" transform="scale(0.015625)"/>
       <path id="DejaVuSans-2f" d="M 1625 4666 
L 2156 4666 
L 531 -594 
L 0 -594 
L 1625 4666 
z
" transform="scale(0.015625)"/>
       <path id="DejaVuSans-6d" d="M 3328 2828 
Q 3544 3216 3844 3400 
Q 4144 3584 4550 3584 
Q 5097 3584 5394 3201 
Q 5691 2819 5691 2113 
L 5691 0 
L 5113 0 
L 5113 2094 
Q 5113 2597 4934 2840 
Q 4756 3084 4391 3084 
Q 3944 3084 3684 2787 
Q 3425 2491 3425 1978 
L 3425 0 
L 2847 0 
L 2847 2094 
Q 2847 2600 2669 2842 
Q 2491 3084 2119 3084 
Q 1678 3084 1418 2786 
Q 1159 2488 1159 1978 
L 1159 0 
L 581 0 
L 581 3500 
L 1159 3500 
L 1159 2956 
Q 1356 3278 1631 3431 
Q 1906 3584 2284 3584 
Q 2666 3584 2933 3390 
Q 3200 3197 3328 2828 
z
" transform="scale(0.015625)"/>
       <path id="DejaVuSans-6f" d="M 1959 3097 
Q 1497 3097 1228 2736 
Q 959 2375 959 1747 
Q 959 1119 1226 758 
Q 1494 397 1959 397 
Q 2419 397 2687 759 
Q 2956 1122 2956 1747 
Q 2956 2369 2687 2733 
Q 2419 3097 1959 3097 
z
M 1959 3584 
Q 2709 3584 3137 3096 
Q 3566 2609 3566 1747 
Q 3566 888 3137 398 
Q 2709 -91 1959 -91 
Q 1206 -91 779 398 
Q 353 888 353 1747 
Q 353 2609 779 3096 
Q 1206 3584 1959 3584 
z
" transform="scale(0.015625)"/>
       <path id="DejaVuSans-6c" d="M 603 4863 
L 1178 4863 
L 1178 0 
L 603 0 
L 603 4863 
z
" transform="scale(0.015625)"/>
      </defs>
      <use xlink:href="#DejaVuSans-4d"/>
      <use xlink:href="#DejaVuSans-57" transform="translate(86.279297 0)"/>
      <use xlink:href="#DejaVuSans-2c" transform="translate(185.15625 0)"/>
      <use xlink:href="#DejaVuSans-20" transform="translate(216.943359 0)"/>
      <use xlink:href="#DejaVuSans-67" transform="translate(248.730469 0)"/>
      <use xlink:href="#DejaVuSans-2f" transform="translate(312.207031 0)"/>
      <use xlink:href="#DejaVuSans-6d" transform="translate(345.898438 0)"/>
      <use xlink:href="#DejaVuSans-6f" transform="translate(443.310547 0)"/>
      <use xlink:href="#DejaVuSans-6c" transform="translate(504.492188 0)"/>
     </g>
    </g>
   </g>
   <g id="matplotlib.axis_2">
    <g id="ytick_1">
     <g id="line2d_8">
      <defs>
       <path id="mad7c0716e9" d="M 0 0 
L -3.5 0 
" style="stroke: #000000; stroke-width: 0.8"/>
      </defs>
      <g>
       <use xlink:href="#mad7c0716e9" x="47.1875" y="272.865045" style="stroke: #000000; stroke-width: 0.8"/>
      </g>
     </g>
     <g id="text_9">
      <!-- 50 -->
      <g transform="translate(27.4625 276.664263) scale(0.1 -0.1)">
       <defs>
        <path id="DejaVuSans-35" d="M 691 4666 
L 3169 4666 
L 3169 4134 
L 1269 4134 
L 1269 2991 
Q 1406 3038 1543 3061 
Q 1681 3084 1819 3084 
Q 2600 3084 3056 2656 
Q 3513 2228 3513 1497 
Q 3513 744 3044 326 
Q 2575 -91 1722 -91 
Q 1428 -91 1123 -41 
Q 819 9 494 109 
L 494 744 
Q 775 591 1075 516 
Q 1375 441 1709 441 
Q 2250 441 2565 725 
Q 2881 1009 2881 1497 
Q 2881 1984 2565 2268 
Q 2250 2553 1709 2553 
Q 1456 2553 1204 2497 
Q 953 2441 691 2322 
L 691 4666 
z
" transform="scale(0.015625)"/>
       </defs>
       <use xlink:href="#DejaVuSans-35"/>
       <use xlink:href="#DejaVuSans-30" transform="translate(63.623047 0)"/>
      </g>
     </g>
    </g>
    <g id="ytick_2">
     <g id="line2d_9">
      <g>
       <use xlink:href="#mad7c0716e9" x="47.1875" y="210.116179" style="stroke: #000000; stroke-width: 0.8"/>
      </g>
     </g>
     <g id="text_10">
      <!-- 100 -->
      <g transform="translate(21.1 213.915398) scale(0.1 -0.1)">
       <use xlink:href="#DejaVuSans-31"/>
       <use xlink:href="#DejaVuSans-30" transform="translate(63.623047 0)"/>
       <use xlink:href="#DejaVuSans-30" transform="translate(127.246094 0)"/>
      </g>
     </g>
    </g>
    <g id="ytick_3">
     <g id="line2d_10">
      <g>
       <use xlink:href="#mad7c0716e9" x="47.1875" y="147.367314" style="stroke: #000000; stroke-width: 0.8"/>
      </g>
     </g>
     <g id="text_11">
      <!-- 150 -->
      <g transform="translate(21.1 151.166533) scale(0.1 -0.1)">
       <use xlink:href="#DejaVuSans-31"/>
       <use xlink:href="#DejaVuSans-35" transform="translate(63.623047 0)"/>
       <use xlink:href="#DejaVuSans-30" transform="translate(127.246094 0)"/>
      </g>
     </g>
    </g>
    <g id="ytick_4">
     <g id="line2d_11">
      <g>
       <use xlink:href="#mad7c0716e9" x="47.1875" y="84.618449" style="stroke: #000000; stroke-width: 0.8"/>
      </g>
     </g>
     <g id="text_12">
      <!-- 200 -->
      <g transform="translate(21.1 88.417667) scale(0.1 -0.1)">
       <use xlink:href="#DejaVuSans-32"/>
       <use xlink:href="#DejaVuSans-30" transform="translate(63.623047 0)"/>
       <use xlink:href="#DejaVuSans-30" transform="translate(127.246094 0)"/>
      </g>
     </g>
    </g>
    <g id="ytick_5">
     <g id="line2d_12">
      <g>
       <use xlink:href="#mad7c0716e9" x="47.1875" y="21.869583" style="stroke: #000000; stroke-width: 0.8"/>
      </g>
     </g>
     <g id="text_13">
      <!-- 250 -->
      <g transform="translate(21.1 25.668802) scale(0.1 -0.1)">
       <use xlink:href="#DejaVuSans-32"/>
       <use xlink:href="#DejaVuSans-35" transform="translate(63.623047 0)"/>
       <use xlink:href="#DejaVuSans-30" transform="translate(127.246094 0)"/>
      </g>
     </g>
    </g>
    <g id="text_14">
     <!-- bp, $^o$C -->
     <g transform="translate(15 176.17) rotate(-90) scale(0.1 -0.1)">
      <defs>
       <path id="DejaVuSans-62" d="M 3116 1747 
Q 3116 2381 2855 2742 
Q 2594 3103 2138 3103 
Q 1681 3103 1420 2742 
Q 1159 2381 1159 1747 
Q 1159 1113 1420 752 
Q 1681 391 2138 391 
Q 2594 391 2855 752 
Q 3116 1113 3116 1747 
z
M 1159 2969 
Q 1341 3281 1617 3432 
Q 1894 3584 2278 3584 
Q 2916 3584 3314 3078 
Q 3713 2572 3713 1747 
Q 3713 922 3314 415 
Q 2916 -91 2278 -91 
Q 1894 -91 1617 61 
Q 1341 213 1159 525 
L 1159 0 
L 581 0 
L 581 4863 
L 1159 4863 
L 1159 2969 
z
" transform="scale(0.015625)"/>
       <path id="DejaVuSans-70" d="M 1159 525 
L 1159 -1331 
L 581 -1331 
L 581 3500 
L 1159 3500 
L 1159 2969 
Q 1341 3281 1617 3432 
Q 1894 3584 2278 3584 
Q 2916 3584 3314 3078 
Q 3713 2572 3713 1747 
Q 3713 922 3314 415 
Q 2916 -91 2278 -91 
Q 1894 -91 1617 61 
Q 1341 213 1159 525 
z
M 3116 1747 
Q 3116 2381 2855 2742 
Q 2594 3103 2138 3103 
Q 1681 3103 1420 2742 
Q 1159 2381 1159 1747 
Q 1159 1113 1420 752 
Q 1681 391 2138 391 
Q 2594 391 2855 752 
Q 3116 1113 3116 1747 
z
" transform="scale(0.015625)"/>
       <path id="DejaVuSans-Oblique-6f" d="M 1625 -91 
Q 1009 -91 651 289 
Q 294 669 294 1325 
Q 294 1706 417 2101 
Q 541 2497 738 2766 
Q 1047 3184 1428 3384 
Q 1809 3584 2291 3584 
Q 2888 3584 3255 3212 
Q 3622 2841 3622 2241 
Q 3622 1825 3500 1412 
Q 3378 1000 3181 728 
Q 2875 309 2494 109 
Q 2113 -91 1625 -91 
z
M 891 1344 
Q 891 869 1089 633 
Q 1288 397 1691 397 
Q 2269 397 2648 901 
Q 3028 1406 3028 2181 
Q 3028 2634 2825 2865 
Q 2622 3097 2228 3097 
Q 1903 3097 1650 2945 
Q 1397 2794 1197 2484 
Q 1050 2253 970 1956 
Q 891 1659 891 1344 
z
" transform="scale(0.015625)"/>
       <path id="DejaVuSans-43" d="M 4122 4306 
L 4122 3641 
Q 3803 3938 3442 4084 
Q 3081 4231 2675 4231 
Q 1875 4231 1450 3742 
Q 1025 3253 1025 2328 
Q 1025 1406 1450 917 
Q 1875 428 2675 428 
Q 3081 428 3442 575 
Q 3803 722 4122 1019 
L 4122 359 
Q 3791 134 3420 21 
Q 3050 -91 2638 -91 
Q 1578 -91 968 557 
Q 359 1206 359 2328 
Q 359 3453 968 4101 
Q 1578 4750 2638 4750 
Q 3056 4750 3426 4639 
Q 3797 4528 4122 4306 
z
" transform="scale(0.015625)"/>
      </defs>
      <use xlink:href="#DejaVuSans-62" transform="translate(0 0.51875)"/>
      <use xlink:href="#DejaVuSans-70" transform="translate(63.476562 0.51875)"/>
      <use xlink:href="#DejaVuSans-2c" transform="translate(126.953125 0.51875)"/>
      <use xlink:href="#DejaVuSans-20" transform="translate(158.740234 0.51875)"/>
      <use xlink:href="#DejaVuSans-Oblique-6f" transform="translate(191.484375 38.8) scale(0.7)"/>
      <use xlink:href="#DejaVuSans-43" transform="translate(237.045898 0.51875)"/>
     </g>
    </g>
   </g>
   <g id="line2d_13">
    <path d="M 68.929773 264.695697 
L 72.939128 262.429988 
L 76.948483 260.164278 
L 80.957839 257.898569 
L 84.967194 255.632859 
L 88.976549 253.367149 
L 92.985905 251.10144 
L 96.99526 248.83573 
L 101.004615 246.57002 
L 105.013971 244.304311 
L 109.023326 242.038601 
L 113.032681 239.772891 
L 117.042037 237.507182 
L 121.051392 235.241472 
L 125.060747 232.975763 
L 129.070102 230.710053 
L 133.079458 228.444343 
L 137.088813 226.178634 
L 141.098168 223.912924 
L 145.107524 221.647214 
L 149.116879 219.381505 
L 153.126234 217.115795 
L 157.13559 214.850085 
L 161.144945 212.584376 
L 165.1543 210.318666 
L 169.163656 208.052956 
L 173.173011 205.787247 
L 177.182366 203.521537 
L 181.191722 201.255828 
L 185.201077 198.990118 
L 189.210432 196.724408 
L 193.219788 194.458699 
L 197.229143 192.192989 
L 201.238498 189.927279 
L 205.247853 187.66157 
L 209.257209 185.39586 
L 213.266564 183.13015 
L 217.275919 180.864441 
L 221.285275 178.598731 
L 225.29463 176.333022 
L 229.303985 174.067312 
L 233.313341 171.801602 
L 237.322696 169.535893 
L 241.332051 167.270183 
L 245.341407 165.004473 
L 249.350762 162.738764 
L 253.360117 160.473054 
L 257.369473 158.207344 
L 261.378828 155.941635 
L 265.388183 153.675925 
L 269.397539 151.410216 
L 273.406894 149.144506 
L 277.416249 146.878796 
L 281.425604 144.613087 
L 285.43496 142.347377 
L 289.444315 140.081667 
L 293.45367 137.815958 
L 297.463026 135.550248 
L 301.472381 133.284538 
L 305.481736 131.018829 
L 309.491092 128.753119 
L 313.500447 126.487409 
L 317.509802 124.2217 
L 321.519158 121.95599 
L 325.528513 119.690281 
L 329.537868 117.424571 
L 333.547224 115.158861 
L 337.556579 112.893152 
L 341.565934 110.627442 
L 345.57529 108.361732 
L 349.584645 106.096023 
L 353.594 103.830313 
L 357.603355 101.564603 
L 361.612711 99.298894 
L 365.622066 97.033184 
L 369.631421 94.767475 
L 373.640777 92.501765 
L 377.650132 90.236055 
L 381.659487 87.970346 
L 385.668843 85.704636 
L 389.678198 83.438926 
L 393.687553 81.173217 
L 397.696909 78.907507 
L 401.706264 76.641797 
L 405.715619 74.376088 
L 409.724975 72.110378 
L 413.73433 69.844669 
L 417.743685 67.578959 
L 421.753041 65.313249 
L 425.762396 63.04754 
L 429.771751 60.78183 
L 433.781106 58.51612 
L 437.790462 56.250411 
L 441.799817 53.984701 
L 445.809172 51.718991 
L 449.818528 49.453282 
L 453.827883 47.187572 
L 457.837238 44.921863 
L 461.846594 42.656153 
L 465.855949 40.390443 
" clip-path="url(#pf25b048437)" style="fill: none; stroke: #1f77b4; stroke-width: 2.25; stroke-linecap: square"/>
   </g>
   <g id="line2d_14">
    <path d="M 195.044387 289.138249 
L 198.162881 286.764383 
L 201.281374 284.390517 
L 204.399867 282.016651 
L 207.518361 279.642786 
L 210.636854 277.26892 
L 213.755347 274.895054 
L 216.873841 272.521188 
L 219.992334 270.147323 
L 223.110827 267.773457 
L 226.229321 265.399591 
L 229.347814 263.025725 
L 232.466307 260.65186 
L 235.584801 258.277994 
L 238.703294 255.904128 
L 241.821787 253.530262 
L 244.940281 251.156396 
L 248.058774 248.782531 
L 251.177267 246.408665 
L 254.295761 244.034799 
L 257.414254 241.660933 
L 260.532747 239.287068 
L 263.651241 236.913202 
L 266.769734 234.539336 
L 269.888227 232.16547 
L 273.006721 229.791605 
L 276.125214 227.417739 
L 279.243707 225.043873 
L 282.362201 222.670007 
L 285.480694 220.296142 
L 288.599187 217.922276 
L 291.717681 215.54841 
L 294.836174 213.174544 
L 297.954667 210.800679 
L 301.073161 208.426813 
L 304.191654 206.052947 
L 307.310147 203.679081 
L 310.428641 201.305216 
L 313.547134 198.93135 
L 316.665627 196.557484 
L 319.784121 194.183618 
L 322.902614 191.809753 
L 326.021107 189.435887 
L 329.139601 187.062021 
L 332.258094 184.688155 
L 335.376587 182.31429 
L 338.495081 179.940424 
L 341.613574 177.566558 
L 344.732067 175.192692 
L 347.850561 172.818826 
L 350.969054 170.444961 
L 354.087547 168.071095 
L 357.206041 165.697229 
L 360.324534 163.323363 
L 363.443027 160.949498 
L 366.561521 158.575632 
L 369.680014 156.201766 
L 372.798507 153.8279 
L 375.917001 151.454035 
L 379.035494 149.080169 
L 382.153987 146.706303 
L 385.272481 144.332437 
L 388.390974 141.958572 
L 391.509467 139.584706 
L 394.627961 137.21084 
L 397.746454 134.836974 
L 400.864947 132.463109 
L 403.983441 130.089243 
L 407.101934 127.715377 
L 410.220427 125.341511 
L 413.338921 122.967646 
L 416.457414 120.59378 
L 419.575907 118.219914 
L 422.694401 115.846048 
L 425.812894 113.472183 
L 428.931387 111.098317 
L 432.049881 108.724451 
L 435.168374 106.350585 
L 438.286867 103.97672 
L 441.405361 101.602854 
L 444.523854 99.228988 
L 447.642347 96.855122 
L 450.760841 94.481256 
L 453.879334 92.107391 
L 456.997827 89.733525 
L 460.116321 87.359659 
L 463.234814 84.985793 
L 466.353307 82.611928 
L 469.471801 80.238062 
L 472.590294 77.864196 
L 475.708787 75.49033 
L 478.827281 73.116465 
L 481.945774 70.742599 
L 485.064267 68.368733 
L 488.182761 65.994867 
L 491.301254 63.621002 
L 494.419747 61.247136 
L 497.538241 58.87327 
L 500.656734 56.499404 
L 503.775227 54.125539 
" clip-path="url(#pf25b048437)" style="fill: none; stroke: #ff7f0e; stroke-width: 2.25; stroke-linecap: square"/>
   </g>
   <g id="patch_3">
    <path d="M 47.1875 314.44 
L 47.1875 7.2 
" style="fill: none; stroke: #000000; stroke-width: 0.8; stroke-linejoin: miter; stroke-linecap: square"/>
   </g>
   <g id="patch_4">
    <path d="M 47.1875 314.44 
L 525.5175 314.44 
" style="fill: none; stroke: #000000; stroke-width: 0.8; stroke-linejoin: miter; stroke-linecap: square"/>
   </g>
   <g id="legend_1">
    <g id="patch_5">
     <path d="M 54.1875 59.234375 
L 121.945312 59.234375 
Q 123.945312 59.234375 123.945312 57.234375 
L 123.945312 14.2 
Q 123.945312 12.2 121.945312 12.2 
L 54.1875 12.2 
Q 52.1875 12.2 52.1875 14.2 
L 52.1875 57.234375 
Q 52.1875 59.234375 54.1875 59.234375 
z
" style="fill: #ffffff; opacity: 0.8; stroke: #cccccc; stroke-linejoin: miter"/>
    </g>
    <g id="text_15">
     <!-- type -->
     <g transform="translate(76.896094 23.798438) scale(0.1 -0.1)">
      <defs>
       <path id="DejaVuSans-74" d="M 1172 4494 
L 1172 3500 
L 2356 3500 
L 2356 3053 
L 1172 3053 
L 1172 1153 
Q 1172 725 1289 603 
Q 1406 481 1766 481 
L 2356 481 
L 2356 0 
L 1766 0 
Q 1100 0 847 248 
Q 594 497 594 1153 
L 594 3053 
L 172 3053 
L 172 3500 
L 594 3500 
L 594 4494 
L 1172 4494 
z
" transform="scale(0.015625)"/>
       <path id="DejaVuSans-79" d="M 2059 -325 
Q 1816 -950 1584 -1140 
Q 1353 -1331 966 -1331 
L 506 -1331 
L 506 -850 
L 844 -850 
Q 1081 -850 1212 -737 
Q 1344 -625 1503 -206 
L 1606 56 
L 191 3500 
L 800 3500 
L 1894 763 
L 2988 3500 
L 3597 3500 
L 2059 -325 
z
" transform="scale(0.015625)"/>
       <path id="DejaVuSans-65" d="M 3597 1894 
L 3597 1613 
L 953 1613 
Q 991 1019 1311 708 
Q 1631 397 2203 397 
Q 2534 397 2845 478 
Q 3156 559 3463 722 
L 3463 178 
Q 3153 47 2828 -22 
Q 2503 -91 2169 -91 
Q 1331 -91 842 396 
Q 353 884 353 1716 
Q 353 2575 817 3079 
Q 1281 3584 2069 3584 
Q 2775 3584 3186 3129 
Q 3597 2675 3597 1894 
z
M 3022 2063 
Q 3016 2534 2758 2815 
Q 2500 3097 2075 3097 
Q 1594 3097 1305 2825 
Q 1016 2553 972 2059 
L 3022 2063 
z
" transform="scale(0.015625)"/>
      </defs>
      <use xlink:href="#DejaVuSans-74"/>
      <use xlink:href="#DejaVuSans-79" transform="translate(39.208984 0)"/>
      <use xlink:href="#DejaVuSans-70" transform="translate(98.388672 0)"/>
      <use xlink:href="#DejaVuSans-65" transform="translate(161.865234 0)"/>
     </g>
    </g>
    <g id="PathCollection_3">
     <g>
      <use xlink:href="#m45dad43b21" x="66.1875" y="35.851563" style="fill: #1f77b4; fill-opacity: 0.8; stroke: #1f77b4; stroke-opacity: 0.8"/>
     </g>
    </g>
    <g id="text_16">
     <!-- alcohol -->
     <g transform="translate(84.1875 38.476563) scale(0.1 -0.1)">
      <defs>
       <path id="DejaVuSans-61" d="M 2194 1759 
Q 1497 1759 1228 1600 
Q 959 1441 959 1056 
Q 959 750 1161 570 
Q 1363 391 1709 391 
Q 2188 391 2477 730 
Q 2766 1069 2766 1631 
L 2766 1759 
L 2194 1759 
z
M 3341 1997 
L 3341 0 
L 2766 0 
L 2766 531 
Q 2569 213 2275 61 
Q 1981 -91 1556 -91 
Q 1019 -91 701 211 
Q 384 513 384 1019 
Q 384 1609 779 1909 
Q 1175 2209 1959 2209 
L 2766 2209 
L 2766 2266 
Q 2766 2663 2505 2880 
Q 2244 3097 1772 3097 
Q 1472 3097 1187 3025 
Q 903 2953 641 2809 
L 641 3341 
Q 956 3463 1253 3523 
Q 1550 3584 1831 3584 
Q 2591 3584 2966 3190 
Q 3341 2797 3341 1997 
z
" transform="scale(0.015625)"/>
       <path id="DejaVuSans-63" d="M 3122 3366 
L 3122 2828 
Q 2878 2963 2633 3030 
Q 2388 3097 2138 3097 
Q 1578 3097 1268 2742 
Q 959 2388 959 1747 
Q 959 1106 1268 751 
Q 1578 397 2138 397 
Q 2388 397 2633 464 
Q 2878 531 3122 666 
L 3122 134 
Q 2881 22 2623 -34 
Q 2366 -91 2075 -91 
Q 1284 -91 818 406 
Q 353 903 353 1747 
Q 353 2603 823 3093 
Q 1294 3584 2113 3584 
Q 2378 3584 2631 3529 
Q 2884 3475 3122 3366 
z
" transform="scale(0.015625)"/>
       <path id="DejaVuSans-68" d="M 3513 2113 
L 3513 0 
L 2938 0 
L 2938 2094 
Q 2938 2591 2744 2837 
Q 2550 3084 2163 3084 
Q 1697 3084 1428 2787 
Q 1159 2491 1159 1978 
L 1159 0 
L 581 0 
L 581 4863 
L 1159 4863 
L 1159 2956 
Q 1366 3272 1645 3428 
Q 1925 3584 2291 3584 
Q 2894 3584 3203 3211 
Q 3513 2838 3513 2113 
z
" transform="scale(0.015625)"/>
      </defs>
      <use xlink:href="#DejaVuSans-61"/>
      <use xlink:href="#DejaVuSans-6c" transform="translate(61.279297 0)"/>
      <use xlink:href="#DejaVuSans-63" transform="translate(89.0625 0)"/>
      <use xlink:href="#DejaVuSans-6f" transform="translate(144.042969 0)"/>
      <use xlink:href="#DejaVuSans-68" transform="translate(205.224609 0)"/>
      <use xlink:href="#DejaVuSans-6f" transform="translate(268.603516 0)"/>
      <use xlink:href="#DejaVuSans-6c" transform="translate(329.785156 0)"/>
     </g>
    </g>
    <g id="PathCollection_4">
     <g>
      <use xlink:href="#m583ce23a5d" x="66.1875" y="50.529688" style="fill: #ff7f0e; fill-opacity: 0.8; stroke: #ff7f0e; stroke-opacity: 0.8"/>
     </g>
    </g>
    <g id="text_17">
     <!-- alkane -->
     <g transform="translate(84.1875 53.154688) scale(0.1 -0.1)">
      <defs>
       <path id="DejaVuSans-6b" d="M 581 4863 
L 1159 4863 
L 1159 1991 
L 2875 3500 
L 3609 3500 
L 1753 1863 
L 3688 0 
L 2938 0 
L 1159 1709 
L 1159 0 
L 581 0 
L 581 4863 
z
" transform="scale(0.015625)"/>
       <path id="DejaVuSans-6e" d="M 3513 2113 
L 3513 0 
L 2938 0 
L 2938 2094 
Q 2938 2591 2744 2837 
Q 2550 3084 2163 3084 
Q 1697 3084 1428 2787 
Q 1159 2491 1159 1978 
L 1159 0 
L 581 0 
L 581 3500 
L 1159 3500 
L 1159 2956 
Q 1366 3272 1645 3428 
Q 1925 3584 2291 3584 
Q 2894 3584 3203 3211 
Q 3513 2838 3513 2113 
z
" transform="scale(0.015625)"/>
      </defs>
      <use xlink:href="#DejaVuSans-61"/>
      <use xlink:href="#DejaVuSans-6c" transform="translate(61.279297 0)"/>
      <use xlink:href="#DejaVuSans-6b" transform="translate(89.0625 0)"/>
      <use xlink:href="#DejaVuSans-61" transform="translate(145.222656 0)"/>
      <use xlink:href="#DejaVuSans-6e" transform="translate(206.501953 0)"/>
      <use xlink:href="#DejaVuSans-65" transform="translate(269.880859 0)"/>
     </g>
    </g>
   </g>
  </g>
 </g>
 <defs>
  <clipPath id="pf25b048437">
   <rect x="47.1875" y="7.2" width="478.33" height="307.24"/>
  </clipPath>
 </defs>
</svg>