<?xml version="1.0" encoding="utf-8" standalone="no"?>
<!DOCTYPE svg PUBLIC "-//W3C//DTD SVG 1.1//EN"
  "http://www.w3.org/Graphics/SVG/1.1/DTD/svg11.dtd">
<svg xmlns:xlink="http://www.w3.org/1999/xlink" width="406.940312pt" height="321.466687pt" viewBox="0 0 406.940312 321.466687" xmlns="http://www.w3.org/2000/svg" version="1.1">
 <metadata>
  <rdf:RDF xmlns:dc="http://purl.org/dc/elements/1.1/" xmlns:cc="http://creativecommons.org/ns#" xmlns:rdf="http://www.w3.org/1999/02/22-rdf-syntax-ns#">
   <cc:Work>
    <dc:type rdf:resource="http://purl.org/dc/dcmitype/StillImage"/>
    <dc:date>2025-08-24T16:33:11.186947</dc:date>
    <dc:format>image/svg+xml</dc:format>
    <dc:creator>
     <cc:Agent>
      <dc:title>Matplotlib v3.10.3, https://matplotlib.org/</dc:title>
     </cc:Agent>
    </dc:creator>
   </cc:Work>
  </rdf:RDF>
 </metadata>
 <defs>
  <style type="text/css">*{stroke-linejoin: round; stroke-linecap: butt}</style>
 </defs>
 <g id="figure_1">
  <g id="patch_1">
   <path d="M 0 321.466687 
L 406.940312 321.466687 
L 406.940312 0 
L 0 0 
z
" style="fill: #ffffff"/>
  </g>
  <g id="axes_1">
   <g id="patch_2">
    <path d="M 42.620313 283.910437 
L 399.740313 283.910437 
L 399.740313 17.798437 
L 42.620313 17.798437 
z
" style="fill: #ffffff"/>
   </g>
   <g id="matplotlib.axis_1">
    <g id="xtick_1">
     <g id="line2d_1">
      <defs>
       <path id="mbf21c3fb3e" d="M 0 0 
L 0 3.5 
" style="stroke: #000000; stroke-width: 0.8"/>
      </defs>
      <g>
       <use xlink:href="#mbf21c3fb3e" x="79.264625" y="283.910437" style="stroke: #000000; stroke-width: 0.8"/>
      </g>
     </g>
     <g id="text_1">
      <!-- −2.0 -->
      <g transform="translate(67.123219 298.508875) scale(0.1 -0.1)">
       <defs>
        <path id="DejaVuSans-2212" d="M 678 2272 
L 4684 2272 
L 4684 1741 
L 678 1741 
L 678 2272 
z
" transform="scale(0.015625)"/>
        <path id="DejaVuSans-32" d="M 1228 531 
L 3431 531 
L 3431 0 
L 469 0 
L 469 531 
Q 828 903 1448 1529 
Q 2069 2156 2228 2338 
Q 2531 2678 2651 2914 
Q 2772 3150 2772 3378 
Q 2772 3750 2511 3984 
Q 2250 4219 1831 4219 
Q 1534 4219 1204 4116 
Q 875 4013 500 3803 
L 500 4441 
Q 881 4594 1212 4672 
Q 1544 4750 1819 4750 
Q 2544 4750 2975 4387 
Q 3406 4025 3406 3419 
Q 3406 3131 3298 2873 
Q 3191 2616 2906 2266 
Q 2828 2175 2409 1742 
Q 1991 1309 1228 531 
z
" transform="scale(0.015625)"/>
        <path id="DejaVuSans-2e" d="M 684 794 
L 1344 794 
L 1344 0 
L 684 0 
L 684 794 
z
" transform="scale(0.015625)"/>
        <path id="DejaVuSans-30" d="M 2034 4250 
Q 1547 4250 1301 3770 
Q 1056 3291 1056 2328 
Q 1056 1369 1301 889 
Q 1547 409 2034 409 
Q 2525 409 2770 889 
Q 3016 1369 3016 2328 
Q 3016 3291 2770 3770 
Q 2525 4250 2034 4250 
z
M 2034 4750 
Q 2819 4750 3233 4129 
Q 3647 3509 3647 2328 
Q 3647 1150 3233 529 
Q 2819 -91 2034 -91 
Q 1250 -91 836 529 
Q 422 1150 422 2328 
Q 422 3509 836 4129 
Q 1250 4750 2034 4750 
z
" transform="scale(0.015625)"/>
       </defs>
       <use xlink:href="#DejaVuSans-2212"/>
       <use xlink:href="#DejaVuSans-32" transform="translate(83.789062 0)"/>
       <use xlink:href="#DejaVuSans-2e" transform="translate(147.412109 0)"/>
       <use xlink:href="#DejaVuSans-30" transform="translate(179.199219 0)"/>
      </g>
     </g>
    </g>
    <g id="xtick_2">
     <g id="line2d_2">
      <g>
       <use xlink:href="#mbf21c3fb3e" x="148.222685" y="283.910437" style="stroke: #000000; stroke-width: 0.8"/>
      </g>
     </g>
     <g id="text_2">
      <!-- −1.5 -->
      <g transform="translate(136.081279 298.508875) scale(0.1 -0.1)">
       <defs>
        <path id="DejaVuSans-31" d="M 794 531 
L 1825 531 
L 1825 4091 
L 703 3866 
L 703 4441 
L 1819 4666 
L 2450 4666 
L 2450 531 
L 3481 531 
L 3481 0 
L 794 0 
L 794 531 
z
" transform="scale(0.015625)"/>
        <path id="DejaVuSans-35" d="M 691 4666 
L 3169 4666 
L 3169 4134 
L 1269 4134 
L 1269 2991 
Q 1406 3038 1543 3061 
Q 1681 3084 1819 3084 
Q 2600 3084 3056 2656 
Q 3513 2228 3513 1497 
Q 3513 744 3044 326 
Q 2575 -91 1722 -91 
Q 1428 -91 1123 -41 
Q 819 9 494 109 
L 494 744 
Q 775 591 1075 516 
Q 1375 441 1709 441 
Q 2250 441 2565 725 
Q 2881 1009 2881 1497 
Q 2881 1984 2565 2268 
Q 2250 2553 1709 2553 
Q 1456 2553 1204 2497 
Q 953 2441 691 2322 
L 691 4666 
z
" transform="scale(0.015625)"/>
       </defs>
       <use xlink:href="#DejaVuSans-2212"/>
       <use xlink:href="#DejaVuSans-31" transform="translate(83.789062 0)"/>
       <use xlink:href="#DejaVuSans-2e" transform="translate(147.412109 0)"/>
       <use xlink:href="#DejaVuSans-35" transform="translate(179.199219 0)"/>
      </g>
     </g>
    </g>
    <g id="xtick_3">
     <g id="line2d_3">
      <g>
       <use xlink:href="#mbf21c3fb3e" x="217.180745" y="283.910437" style="stroke: #000000; stroke-width: 0.8"/>
      </g>
     </g>
     <g id="text_3">
      <!-- −1.0 -->
      <g transform="translate(205.039339 298.508875) scale(0.1 -0.1)">
       <use xlink:href="#DejaVuSans-2212"/>
       <use xlink:href="#DejaVuSans-31" transform="translate(83.789062 0)"/>
       <use xlink:href="#DejaVuSans-2e" transform="translate(147.412109 0)"/>
       <use xlink:href="#DejaVuSans-30" transform="translate(179.199219 0)"/>
      </g>
     </g>
    </g>
    <g id="xtick_4">
     <g id="line2d_4">
      <g>
       <use xlink:href="#mbf21c3fb3e" x="286.138805" y="283.910437" style="stroke: #000000; stroke-width: 0.8"/>
      </g>
     </g>
     <g id="text_4">
      <!-- −0.5 -->
      <g transform="translate(273.997399 298.508875) scale(0.1 -0.1)">
       <use xlink:href="#DejaVuSans-2212"/>
       <use xlink:href="#DejaVuSans-30" transform="translate(83.789062 0)"/>
       <use xlink:href="#DejaVuSans-2e" transform="translate(147.412109 0)"/>
       <use xlink:href="#DejaVuSans-35" transform="translate(179.199219 0)"/>
      </g>
     </g>
    </g>
    <g id="xtick_5">
     <g id="line2d_5">
      <g>
       <use xlink:href="#mbf21c3fb3e" x="355.096865" y="283.910437" style="stroke: #000000; stroke-width: 0.8"/>
      </g>
     </g>
     <g id="text_5">
      <!-- 0.0 -->
      <g transform="translate(347.145302 298.508875) scale(0.1 -0.1)">
       <use xlink:href="#DejaVuSans-30"/>
       <use xlink:href="#DejaVuSans-2e" transform="translate(63.623047 0)"/>
       <use xlink:href="#DejaVuSans-30" transform="translate(95.410156 0)"/>
      </g>
     </g>
    </g>
    <g id="text_6">
     <!-- Potential, V -->
     <g transform="translate(192.681094 312.187) scale(0.1 -0.1)">
      <defs>
       <path id="DejaVuSans-50" d="M 1259 4147 
L 1259 2394 
L 2053 2394 
Q 2494 2394 2734 2622 
Q 2975 2850 2975 3272 
Q 2975 3691 2734 3919 
Q 2494 4147 2053 4147 
L 1259 4147 
z
M 628 4666 
L 2053 4666 
Q 2838 4666 3239 4311 
Q 3641 3956 3641 3272 
Q 3641 2581 3239 2228 
Q 2838 1875 2053 1875 
L 1259 1875 
L 1259 0 
L 628 0 
L 628 4666 
z
" transform="scale(0.015625)"/>
       <path id="DejaVuSans-6f" d="M 1959 3097 
Q 1497 3097 1228 2736 
Q 959 2375 959 1747 
Q 959 1119 1226 758 
Q 1494 397 1959 397 
Q 2419 397 2687 759 
Q 2956 1122 2956 1747 
Q 2956 2369 2687 2733 
Q 2419 3097 1959 3097 
z
M 1959 3584 
Q 2709 3584 3137 3096 
Q 3566 2609 3566 1747 
Q 3566 888 3137 398 
Q 2709 -91 1959 -91 
Q 1206 -91 779 398 
Q 353 888 353 1747 
Q 353 2609 779 3096 
Q 1206 3584 1959 3584 
z
" transform="scale(0.015625)"/>
       <path id="DejaVuSans-74" d="M 1172 4494 
L 1172 3500 
L 2356 3500 
L 2356 3053 
L 1172 3053 
L 1172 1153 
Q 1172 725 1289 603 
Q 1406 481 1766 481 
L 2356 481 
L 2356 0 
L 1766 0 
Q 1100 0 847 248 
Q 594 497 594 1153 
L 594 3053 
L 172 3053 
L 172 3500 
L 594 3500 
L 594 4494 
L 1172 4494 
z
" transform="scale(0.015625)"/>
       <path id="DejaVuSans-65" d="M 3597 1894 
L 3597 1613 
L 953 1613 
Q 991 1019 1311 708 
Q 1631 397 2203 397 
Q 2534 397 2845 478 
Q 3156 559 3463 722 
L 3463 178 
Q 3153 47 2828 -22 
Q 2503 -91 2169 -91 
Q 1331 -91 842 396 
Q 353 884 353 1716 
Q 353 2575 817 3079 
Q 1281 3584 2069 3584 
Q 2775 3584 3186 3129 
Q 3597 2675 3597 1894 
z
M 3022 2063 
Q 3016 2534 2758 2815 
Q 2500 3097 2075 3097 
Q 1594 3097 1305 2825 
Q 1016 2553 972 2059 
L 3022 2063 
z
" transform="scale(0.015625)"/>
       <path id="DejaVuSans-6e" d="M 3513 2113 
L 3513 0 
L 2938 0 
L 2938 2094 
Q 2938 2591 2744 2837 
Q 2550 3084 2163 3084 
Q 1697 3084 1428 2787 
Q 1159 2491 1159 1978 
L 1159 0 
L 581 0 
L 581 3500 
L 1159 3500 
L 1159 2956 
Q 1366 3272 1645 3428 
Q 1925 3584 2291 3584 
Q 2894 3584 3203 3211 
Q 3513 2838 3513 2113 
z
" transform="scale(0.015625)"/>
       <path id="DejaVuSans-69" d="M 603 3500 
L 1178 3500 
L 1178 0 
L 603 0 
L 603 3500 
z
M 603 4863 
L 1178 4863 
L 1178 4134 
L 603 4134 
L 603 4863 
z
" transform="scale(0.015625)"/>
       <path id="DejaVuSans-61" d="M 2194 1759 
Q 1497 1759 1228 1600 
Q 959 1441 959 1056 
Q 959 750 1161 570 
Q 1363 391 1709 391 
Q 2188 391 2477 730 
Q 2766 1069 2766 1631 
L 2766 1759 
L 2194 1759 
z
M 3341 1997 
L 3341 0 
L 2766 0 
L 2766 531 
Q 2569 213 2275 61 
Q 1981 -91 1556 -91 
Q 1019 -91 701 211 
Q 384 513 384 1019 
Q 384 1609 779 1909 
Q 1175 2209 1959 2209 
L 2766 2209 
L 2766 2266 
Q 2766 2663 2505 2880 
Q 2244 3097 1772 3097 
Q 1472 3097 1187 3025 
Q 903 2953 641 2809 
L 641 3341 
Q 956 3463 1253 3523 
Q 1550 3584 1831 3584 
Q 2591 3584 2966 3190 
Q 3341 2797 3341 1997 
z
" transform="scale(0.015625)"/>
       <path id="DejaVuSans-6c" d="M 603 4863 
L 1178 4863 
L 1178 0 
L 603 0 
L 603 4863 
z
" transform="scale(0.015625)"/>
       <path id="DejaVuSans-2c" d="M 750 794 
L 1409 794 
L 1409 256 
L 897 -744 
L 494 -744 
L 750 256 
L 750 794 
z
" transform="scale(0.015625)"/>
       <path id="DejaVuSans-20" transform="scale(0.015625)"/>
       <path id="DejaVuSans-56" d="M 1831 0 
L 50 4666 
L 709 4666 
L 2188 738 
L 3669 4666 
L 4325 4666 
L 2547 0 
L 1831 0 
z
" transform="scale(0.015625)"/>
      </defs>
      <use xlink:href="#DejaVuSans-50"/>
      <use xlink:href="#DejaVuSans-6f" transform="translate(56.677734 0)"/>
      <use xlink:href="#DejaVuSans-74" transform="translate(117.859375 0)"/>
      <use xlink:href="#DejaVuSans-65" transform="translate(157.068359 0)"/>
      <use xlink:href="#DejaVuSans-6e" transform="translate(218.591797 0)"/>
      <use xlink:href="#DejaVuSans-74" transform="translate(281.970703 0)"/>
      <use xlink:href="#DejaVuSans-69" transform="translate(321.179688 0)"/>
      <use xlink:href="#DejaVuSans-61" transform="translate(348.962891 0)"/>
      <use xlink:href="#DejaVuSans-6c" transform="translate(410.242188 0)"/>
      <use xlink:href="#DejaVuSans-2c" transform="translate(438.025391 0)"/>
      <use xlink:href="#DejaVuSans-20" transform="translate(469.8125 0)"/>
      <use xlink:href="#DejaVuSans-56" transform="translate(501.599609 0)"/>
     </g>
    </g>
   </g>
   <g id="matplotlib.axis_2">
    <g id="ytick_1">
     <g id="line2d_6">
      <defs>
       <path id="m0da91821e0" d="M 0 0 
L -3.5 0 
" style="stroke: #000000; stroke-width: 0.8"/>
      </defs>
      <g>
       <use xlink:href="#m0da91821e0" x="42.620313" y="259.315582" style="stroke: #000000; stroke-width: 0.8"/>
      </g>
     </g>
     <g id="text_7">
      <!-- −8 -->
      <g transform="translate(20.878125 263.114801) scale(0.1 -0.1)">
       <defs>
        <path id="DejaVuSans-38" d="M 2034 2216 
Q 1584 2216 1326 1975 
Q 1069 1734 1069 1313 
Q 1069 891 1326 650 
Q 1584 409 2034 409 
Q 2484 409 2743 651 
Q 3003 894 3003 1313 
Q 3003 1734 2745 1975 
Q 2488 2216 2034 2216 
z
M 1403 2484 
Q 997 2584 770 2862 
Q 544 3141 544 3541 
Q 544 4100 942 4425 
Q 1341 4750 2034 4750 
Q 2731 4750 3128 4425 
Q 3525 4100 3525 3541 
Q 3525 3141 3298 2862 
Q 3072 2584 2669 2484 
Q 3125 2378 3379 2068 
Q 3634 1759 3634 1313 
Q 3634 634 3220 271 
Q 2806 -91 2034 -91 
Q 1263 -91 848 271 
Q 434 634 434 1313 
Q 434 1759 690 2068 
Q 947 2378 1403 2484 
z
M 1172 3481 
Q 1172 3119 1398 2916 
Q 1625 2713 2034 2713 
Q 2441 2713 2670 2916 
Q 2900 3119 2900 3481 
Q 2900 3844 2670 4047 
Q 2441 4250 2034 4250 
Q 1625 4250 1398 4047 
Q 1172 3844 1172 3481 
z
" transform="scale(0.015625)"/>
       </defs>
       <use xlink:href="#DejaVuSans-2212"/>
       <use xlink:href="#DejaVuSans-38" transform="translate(83.789062 0)"/>
      </g>
     </g>
    </g>
    <g id="ytick_2">
     <g id="line2d_7">
      <g>
       <use xlink:href="#m0da91821e0" x="42.620313" y="228.326683" style="stroke: #000000; stroke-width: 0.8"/>
      </g>
     </g>
     <g id="text_8">
      <!-- −6 -->
      <g transform="translate(20.878125 232.125902) scale(0.1 -0.1)">
       <defs>
        <path id="DejaVuSans-36" d="M 2113 2584 
Q 1688 2584 1439 2293 
Q 1191 2003 1191 1497 
Q 1191 994 1439 701 
Q 1688 409 2113 409 
Q 2538 409 2786 701 
Q 3034 994 3034 1497 
Q 3034 2003 2786 2293 
Q 2538 2584 2113 2584 
z
M 3366 4563 
L 3366 3988 
Q 3128 4100 2886 4159 
Q 2644 4219 2406 4219 
Q 1781 4219 1451 3797 
Q 1122 3375 1075 2522 
Q 1259 2794 1537 2939 
Q 1816 3084 2150 3084 
Q 2853 3084 3261 2657 
Q 3669 2231 3669 1497 
Q 3669 778 3244 343 
Q 2819 -91 2113 -91 
Q 1303 -91 875 529 
Q 447 1150 447 2328 
Q 447 3434 972 4092 
Q 1497 4750 2381 4750 
Q 2619 4750 2861 4703 
Q 3103 4656 3366 4563 
z
" transform="scale(0.015625)"/>
       </defs>
       <use xlink:href="#DejaVuSans-2212"/>
       <use xlink:href="#DejaVuSans-36" transform="translate(83.789062 0)"/>
      </g>
     </g>
    </g>
    <g id="ytick_3">
     <g id="line2d_8">
      <g>
       <use xlink:href="#m0da91821e0" x="42.620313" y="197.337785" style="stroke: #000000; stroke-width: 0.8"/>
      </g>
     </g>
     <g id="text_9">
      <!-- −4 -->
      <g transform="translate(20.878125 201.137004) scale(0.1 -0.1)">
       <defs>
        <path id="DejaVuSans-34" d="M 2419 4116 
L 825 1625 
L 2419 1625 
L 2419 4116 
z
M 2253 4666 
L 3047 4666 
L 3047 1625 
L 3713 1625 
L 3713 1100 
L 3047 1100 
L 3047 0 
L 2419 0 
L 2419 1100 
L 313 1100 
L 313 1709 
L 2253 4666 
z
" transform="scale(0.015625)"/>
       </defs>
       <use xlink:href="#DejaVuSans-2212"/>
       <use xlink:href="#DejaVuSans-34" transform="translate(83.789062 0)"/>
      </g>
     </g>
    </g>
    <g id="ytick_4">
     <g id="line2d_9">
      <g>
       <use xlink:href="#m0da91821e0" x="42.620313" y="166.348887" style="stroke: #000000; stroke-width: 0.8"/>
      </g>
     </g>
     <g id="text_10">
      <!-- −2 -->
      <g transform="translate(20.878125 170.148105) scale(0.1 -0.1)">
       <use xlink:href="#DejaVuSans-2212"/>
       <use xlink:href="#DejaVuSans-32" transform="translate(83.789062 0)"/>
      </g>
     </g>
    </g>
    <g id="ytick_5">
     <g id="line2d_10">
      <g>
       <use xlink:href="#m0da91821e0" x="42.620313" y="135.359988" style="stroke: #000000; stroke-width: 0.8"/>
      </g>
     </g>
     <g id="text_11">
      <!-- 0 -->
      <g transform="translate(29.257813 139.159207) scale(0.1 -0.1)">
       <use xlink:href="#DejaVuSans-30"/>
      </g>
     </g>
    </g>
    <g id="ytick_6">
     <g id="line2d_11">
      <g>
       <use xlink:href="#m0da91821e0" x="42.620313" y="104.37109" style="stroke: #000000; stroke-width: 0.8"/>
      </g>
     </g>
     <g id="text_12">
      <!-- 2 -->
      <g transform="translate(29.257813 108.170309) scale(0.1 -0.1)">
       <use xlink:href="#DejaVuSans-32"/>
      </g>
     </g>
    </g>
    <g id="ytick_7">
     <g id="line2d_12">
      <g>
       <use xlink:href="#m0da91821e0" x="42.620313" y="73.382192" style="stroke: #000000; stroke-width: 0.8"/>
      </g>
     </g>
     <g id="text_13">
      <!-- 4 -->
      <g transform="translate(29.257813 77.18141) scale(0.1 -0.1)">
       <use xlink:href="#DejaVuSans-34"/>
      </g>
     </g>
    </g>
    <g id="ytick_8">
     <g id="line2d_13">
      <g>
       <use xlink:href="#m0da91821e0" x="42.620313" y="42.393293" style="stroke: #000000; stroke-width: 0.8"/>
      </g>
     </g>
     <g id="text_14">
      <!-- 6 -->
      <g transform="translate(29.257813 46.192512) scale(0.1 -0.1)">
       <use xlink:href="#DejaVuSans-36"/>
      </g>
     </g>
    </g>
    <g id="text_15">
     <!-- Current, A -->
     <g transform="translate(14.798438 176.229437) rotate(-90) scale(0.1 -0.1)">
      <defs>
       <path id="DejaVuSans-43" d="M 4122 4306 
L 4122 3641 
Q 3803 3938 3442 4084 
Q 3081 4231 2675 4231 
Q 1875 4231 1450 3742 
Q 1025 3253 1025 2328 
Q 1025 1406 1450 917 
Q 1875 428 2675 428 
Q 3081 428 3442 575 
Q 3803 722 4122 1019 
L 4122 359 
Q 3791 134 3420 21 
Q 3050 -91 2638 -91 
Q 1578 -91 968 557 
Q 359 1206 359 2328 
Q 359 3453 968 4101 
Q 1578 4750 2638 4750 
Q 3056 4750 3426 4639 
Q 3797 4528 4122 4306 
z
" transform="scale(0.015625)"/>
       <path id="DejaVuSans-75" d="M 544 1381 
L 544 3500 
L 1119 3500 
L 1119 1403 
Q 1119 906 1312 657 
Q 1506 409 1894 409 
Q 2359 409 2629 706 
Q 2900 1003 2900 1516 
L 2900 3500 
L 3475 3500 
L 3475 0 
L 2900 0 
L 2900 538 
Q 2691 219 2414 64 
Q 2138 -91 1772 -91 
Q 1169 -91 856 284 
Q 544 659 544 1381 
z
M 1991 3584 
L 1991 3584 
z
" transform="scale(0.015625)"/>
       <path id="DejaVuSans-72" d="M 2631 2963 
Q 2534 3019 2420 3045 
Q 2306 3072 2169 3072 
Q 1681 3072 1420 2755 
Q 1159 2438 1159 1844 
L 1159 0 
L 581 0 
L 581 3500 
L 1159 3500 
L 1159 2956 
Q 1341 3275 1631 3429 
Q 1922 3584 2338 3584 
Q 2397 3584 2469 3576 
Q 2541 3569 2628 3553 
L 2631 2963 
z
" transform="scale(0.015625)"/>
       <path id="DejaVuSans-41" d="M 2188 4044 
L 1331 1722 
L 3047 1722 
L 2188 4044 
z
M 1831 4666 
L 2547 4666 
L 4325 0 
L 3669 0 
L 3244 1197 
L 1141 1197 
L 716 0 
L 50 0 
L 1831 4666 
z
" transform="scale(0.015625)"/>
      </defs>
      <use xlink:href="#DejaVuSans-43"/>
      <use xlink:href="#DejaVuSans-75" transform="translate(69.824219 0)"/>
      <use xlink:href="#DejaVuSans-72" transform="translate(133.203125 0)"/>
      <use xlink:href="#DejaVuSans-72" transform="translate(172.566406 0)"/>
      <use xlink:href="#DejaVuSans-65" transform="translate(211.429688 0)"/>
      <use xlink:href="#DejaVuSans-6e" transform="translate(272.953125 0)"/>
      <use xlink:href="#DejaVuSans-74" transform="translate(336.332031 0)"/>
      <use xlink:href="#DejaVuSans-2c" transform="translate(375.541016 0)"/>
      <use xlink:href="#DejaVuSans-20" transform="translate(407.328125 0)"/>
      <use xlink:href="#DejaVuSans-41" transform="translate(439.115234 0)"/>
     </g>
    </g>
    <g id="text_16">
     <!-- 1e−6 -->
     <g transform="translate(42.620313 14.798437) scale(0.1 -0.1)">
      <use xlink:href="#DejaVuSans-31"/>
      <use xlink:href="#DejaVuSans-65" transform="translate(63.623047 0)"/>
      <use xlink:href="#DejaVuSans-2212" transform="translate(125.146484 0)"/>
      <use xlink:href="#DejaVuSans-36" transform="translate(208.935547 0)"/>
     </g>
    </g>
   </g>
   <g id="line2d_14">
    <path d="M 275.105515 123.171022 
L 274.967599 123.894096 
L 274.829683 126.32156 
L 274.553851 135.928118 
L 274.415935 134.895155 
L 274.002186 115.165556 
L 273.86427 117.386427 
L 273.450522 130.81495 
L 273.312606 129.11056 
L 273.17469 124.823763 
L 273.17469 119.194113 
L 272.760941 129.420449 
L 272.347193 118.935872 
L 272.071361 124.100689 
L 271.795528 116.611705 
L 271.657612 115.940279 
L 271.38178 119.917187 
L 271.243864 119.090817 
L 271.105948 124.720467 
L 270.968032 124.823763 
L 270.830116 126.528152 
L 270.554283 120.898502 
L 270.416367 120.278724 
L 270.278451 121.311688 
L 270.002619 128.749023 
L 269.864703 129.833635 
L 269.450954 118.057853 
L 269.037206 126.734745 
L 268.89929 126.683097 
L 268.761374 127.354523 
L 268.623458 129.368801 
L 268.209709 120.898502 
L 268.071793 122.08641 
L 267.933877 125.495189 
L 267.795961 124.203985 
L 267.658045 121.673225 
L 267.520129 115.578742 
L 267.382213 114.49413 
L 267.244296 120.69191 
L 266.968464 137.167674 
L 266.554716 129.11056 
L 266.278884 135.721525 
L 266.140967 135.979766 
L 266.140967 129.67869 
L 265.865135 124.307281 
L 265.589303 132.157802 
L 265.451387 133.449006 
L 265.313471 133.035821 
L 265.175555 136.031414 
L 265.037639 134.48197 
L 264.761806 122.912781 
L 264.348058 134.223729 
L 264.072226 125.082004 
L 263.796393 136.961081 
L 263.658477 136.754489 
L 263.382645 127.044634 
L 263.106813 128.439134 
L 262.968897 126.941338 
L 262.693064 129.317153 
L 262.555148 130.81495 
L 262.279316 125.1853 
L 262.1414 124.720467 
L 261.727652 118.471039 
L 261.313903 133.862192 
L 261.175987 130.505061 
L 260.900155 118.522687 
L 260.762239 117.128186 
L 260.486407 126.992986 
L 260.34849 129.781987 
L 260.210574 126.166615 
L 260.072658 125.701782 
L 259.65891 118.109502 
L 259.520994 118.72928 
L 259.383078 121.105095 
L 259.107245 131.538024 
L 258.969329 132.622636 
L 258.969329 130.453413 
L 258.831413 125.030356 
L 258.693497 124.358929 
L 258.417665 118.522687 
L 258.279749 116.715001 
L 257.866 124.875411 
L 257.728084 123.945744 
L 257.314336 128.594079 
L 257.17642 127.561116 
L 257.038504 129.988579 
L 256.900587 127.974301 
L 256.486839 112.634796 
L 256.348923 114.49413 
L 255.797259 133.139117 
L 255.659342 133.758895 
L 255.521426 135.773174 
L 255.107678 116.301816 
L 254.556013 124.823763 
L 254.418097 124.927059 
L 254.280181 125.650133 
L 254.004349 125.340245 
L 253.728517 123.739151 
L 253.590601 125.546837 
L 253.176852 118.574335 
L 252.90102 123.945744 
L 252.763104 123.687503 
L 252.625188 126.32156 
L 252.487272 131.847913 
L 252.349356 131.228135 
L 252.073523 120.743558 
L 251.935607 121.053447 
L 251.659775 136.238007 
L 251.383943 127.974301 
L 251.246027 127.819356 
L 251.10811 125.908374 
L 250.970194 127.612764 
L 250.832278 123.22267 
L 250.694362 122.809484 
L 250.41853 120.795206 
L 250.142698 128.28419 
L 250.004781 135.30834 
L 249.866865 135.721525 
L 249.591033 133.190765 
L 249.315201 134.791859 
L 249.177285 131.692969 
L 248.763536 132.77758 
L 248.62562 130.143524 
L 248.487704 124.410578 
L 248.349788 124.410578 
L 248.211872 122.706188 
L 247.798124 141.247879 
L 247.384375 129.67869 
L 247.108543 128.180894 
L 246.832711 122.602892 
L 246.694795 123.067725 
L 246.418962 132.622636 
L 246.281046 132.20945 
L 245.867298 116.095223 
L 245.729382 117.334779 
L 245.591466 120.898502 
L 245.45355 120.227076 
L 245.315633 120.640262 
L 245.177717 118.212798 
L 245.039801 118.677631 
L 244.763969 134.068784 
L 244.488137 114.597426 
L 244.350221 111.498537 
L 243.936472 120.020484 
L 243.798556 121.621577 
L 243.66064 120.278724 
L 243.522724 120.175428 
L 243.384808 119.349057 
L 243.108976 122.293003 
L 242.971059 120.588613 
L 242.557311 121.879818 
L 242.419395 125.133652 
L 242.281479 125.133652 
L 242.143563 127.406171 
L 242.005647 123.584207 
L 241.86773 123.635855 
L 241.729814 122.861133 
L 241.316066 109.019425 
L 240.764401 126.011671 
L 240.626485 126.32156 
L 240.488569 125.340245 
L 240.350653 125.701782 
L 240.212737 124.307281 
L 240.074821 126.941338 
L 239.936905 122.344651 
L 239.798989 122.344651 
L 239.661073 118.780928 
L 239.523156 123.119373 
L 239.38524 121.828169 
L 239.247324 122.551244 
L 239.109408 120.640262 
L 238.833576 124.61717 
L 238.69566 127.406171 
L 238.557744 124.61717 
L 238.281911 117.283131 
L 238.006079 127.509467 
L 237.868163 126.683097 
L 237.730247 126.786393 
L 237.592331 125.701782 
L 237.592331 128.85232 
L 237.454415 124.875411 
L 237.316498 124.720467 
L 237.178582 123.945744 
L 237.040666 128.903968 
L 236.90275 129.213857 
L 236.764834 127.974301 
L 236.351086 118.780928 
L 236.21317 117.954557 
L 235.661505 132.932525 
L 235.523589 134.172081 
L 235.385673 134.017136 
L 235.247757 129.420449 
L 235.109841 129.368801 
L 234.696092 118.780928 
L 234.558176 118.109502 
L 234.42026 118.522687 
L 234.144428 124.875411 
L 234.006512 122.912781 
L 233.730679 113.874352 
L 233.592763 115.423797 
L 233.179015 126.218263 
L 233.041099 120.846854 
L 232.903183 119.865539 
L 232.62735 130.350116 
L 232.489434 131.38308 
L 232.351518 130.040227 
L 232.213602 132.984173 
L 231.93777 129.936931 
L 231.799854 123.119373 
L 231.661938 128.490783 
L 231.524021 127.819356 
L 231.386105 129.213857 
L 231.248189 120.795206 
L 231.110273 122.912781 
L 230.972357 123.22267 
L 230.834441 125.288596 
L 230.696525 125.288596 
L 230.420693 132.674284 
L 230.420693 132.20945 
L 230.14486 124.720467 
L 229.869028 120.12378 
L 229.593196 123.22267 
L 229.45528 128.645727 
L 229.179447 118.677631 
L 229.041531 115.268853 
L 228.903615 115.06226 
L 228.765699 114.080945 
L 228.627783 114.907315 
L 228.351951 128.490783 
L 228.214035 132.106154 
L 227.800286 125.236948 
L 227.66237 122.551244 
L 227.524454 123.997392 
L 227.248622 121.983114 
L 227.110706 122.809484 
L 226.834873 129.472098 
L 226.696957 132.467691 
L 226.559041 127.354523 
L 226.421125 126.941338 
L 226.283209 123.377614 
L 226.007377 126.269911 
L 225.869461 126.011671 
L 225.593628 120.330373 
L 225.455712 120.536965 
L 225.17988 131.38308 
L 225.041964 129.988579 
L 224.766132 117.644668 
L 224.628215 117.02489 
L 224.490299 117.438075 
L 224.352383 120.950151 
L 224.076551 119.349057 
L 223.938635 114.855667 
L 223.800719 115.940279 
L 223.524887 123.894096 
L 223.38697 123.997392 
L 223.38697 123.429262 
L 223.249054 123.171022 
L 222.973222 118.264446 
L 222.835306 114.442482 
L 222.69739 115.372149 
L 222.559474 113.874352 
L 222.421558 113.771056 
L 222.283641 112.893037 
L 222.145725 114.442482 
L 222.007809 118.884224 
L 221.869893 118.471039 
L 221.731977 114.752371 
L 221.594061 107.108443 
L 221.456145 108.399647 
L 221.180313 123.119373 
L 221.042396 121.983114 
L 220.628648 101.323848 
L 220.490732 102.460108 
L 220.352816 106.643609 
L 220.076984 103.648016 
L 219.939067 106.643609 
L 219.663235 119.142465 
L 219.525319 115.940279 
L 219.249487 104.629331 
L 219.111571 105.920535 
L 218.973655 111.911722 
L 218.835738 111.756777 
L 218.697822 110.56887 
L 218.559906 105.868887 
L 218.42199 106.075479 
L 218.146158 109.742499 
L 217.870326 98.896385 
L 217.73241 100.962311 
L 217.594493 101.2722 
L 217.456577 101.168904 
L 217.318661 95.332661 
L 217.042829 104.990868 
L 216.904913 106.230424 
L 216.629081 95.952439 
L 216.215332 80.303046 
L 216.215332 84.641491 
L 215.9395 92.595309 
L 215.525752 75.344822 
L 215.387835 73.278895 
L 214.974087 82.110731 
L 214.836171 82.059083 
L 214.560339 77.152508 
L 214.422423 70.90308 
L 214.284507 72.29758 
L 214.14659 72.400876 
L 214.008674 72.762414 
L 213.732842 65.480022 
L 213.594926 64.240467 
L 213.45701 65.27343 
L 213.181178 72.039339 
L 213.043261 72.814062 
L 212.767429 65.686615 
L 212.491597 57.887742 
L 212.215765 62.845966 
L 211.6641 48.074591 
L 211.526184 51.121833 
L 211.388268 48.746017 
L 211.250352 49.107554 
L 211.112436 44.614164 
L 210.97452 46.266905 
L 210.698687 53.342704 
L 210.560771 51.121833 
L 210.284939 43.994386 
L 210.147023 46.473498 
L 210.009107 46.111961 
L 209.733275 48.022943 
L 209.595358 51.018537 
L 209.457442 49.107554 
L 209.18161 38.364736 
L 209.18161 39.087811 
L 209.043694 44.769109 
L 208.629946 34.387828 
L 208.49203 39.191107 
L 208.354113 39.3977 
L 208.078281 40.172422 
L 207.940365 44.562516 
L 207.802449 43.994386 
L 207.664533 41.205385 
L 207.526617 41.36033 
L 207.388701 42.186701 
L 207.250784 41.515274 
L 207.112868 39.707589 
L 206.974952 40.637256 
L 206.837036 39.862533 
L 206.69912 37.744958 
L 206.561204 38.26144 
L 206.423288 42.75483 
L 206.285372 43.426256 
L 206.009539 40.172422 
L 205.871623 39.810885 
L 205.733707 41.411978 
L 205.595791 40.585607 
L 205.319959 36.763643 
L 205.182043 33.148272 
L 205.044127 33.561457 
L 204.630378 40.327367 
L 204.492462 38.726274 
L 204.354546 40.947145 
L 204.21663 45.130646 
L 204.078714 44.149331 
L 203.802881 38.777922 
L 203.527049 45.543831 
L 203.389133 48.074591 
L 203.251217 48.332832 
L 202.975385 52.206444 
L 202.561636 46.215257 
L 202.42372 47.81635 
L 202.285804 52.361389 
L 202.147888 51.638315 
L 202.009972 52.309741 
L 202.009972 48.694369 
L 201.872056 49.933925 
L 201.73414 49.624036 
L 201.458307 54.065778 
L 201.320391 54.01413 
L 201.182475 53.497648 
L 201.044559 56.183353 
L 200.906643 55.925112 
L 200.630811 52.309741 
L 200.354978 63.155855 
L 200.217062 61.709707 
L 199.94123 56.131705 
L 199.803314 56.183353 
L 199.665398 56.54489 
L 199.251649 59.798724 
L 199.113733 57.629502 
L 198.975817 58.094335 
L 198.699985 60.056965 
L 198.424153 53.549297 
L 198.286237 53.032815 
L 198.010404 57.68115 
L 197.872488 61.503114 
L 197.734572 61.813003 
L 197.45874 65.531671 
L 197.320824 65.583319 
L 197.182908 57.629502 
L 197.044992 56.235001 
L 196.907075 57.267964 
L 196.769159 59.798724 
L 196.493327 54.633908 
L 196.355411 53.807537 
L 195.941663 62.74267 
L 195.389998 51.793259 
L 195.114166 59.592132 
L 194.97625 64.860245 
L 194.838334 64.292115 
L 194.838334 62.019595 
L 194.700418 62.845966 
L 194.562501 61.244873 
L 194.424585 62.226188 
L 193.872921 74.208562 
L 193.735005 72.194284 
L 193.459172 64.963541 
L 193.321256 65.996504 
L 193.18334 71.987691 
L 193.045424 70.231654 
L 192.907508 74.82834 
L 192.769592 74.725044 
L 192.631676 71.264617 
L 192.217927 56.803131 
L 191.942095 68.733857 
L 191.804179 79.734916 
L 191.666263 80.664583 
L 191.528347 77.92723 
L 191.252515 66.409689 
L 190.838766 72.194284 
L 190.562934 69.973413 
L 190.425018 69.508579 
L 190.287102 66.771227 
L 190.149186 67.907486 
L 190.011269 70.025061 
L 189.735437 76.222841 
L 189.321689 64.085522 
L 189.045857 59.902021 
L 188.356276 75.39647 
L 188.21836 83.55688 
L 187.942528 83.195343 
L 187.804612 74.673396 
L 187.804612 78.082174 
L 187.390863 66.719578 
L 186.977115 79.270082 
L 186.563366 66.203097 
L 186.42545 66.616282 
L 186.287534 65.84156 
L 186.149618 66.874523 
L 185.73587 81.336009 
L 185.597954 80.096453 
L 185.460038 77.255804 
L 185.322121 71.884395 
L 185.184205 74.82834 
L 185.046289 75.138229 
L 184.908373 78.960193 
L 184.632541 67.907486 
L 184.494625 69.76682 
L 184.356709 78.908545 
L 184.218792 77.255804 
L 184.080876 73.330543 
L 183.94296 75.654711 
L 183.667128 87.327196 
L 183.115464 76.119544 
L 182.977547 71.058024 
L 182.563799 73.330543 
L 182.425883 72.245932 
L 182.287967 69.301987 
L 182.150051 71.419561 
L 182.012135 68.837153 
L 181.736302 77.3591 
L 181.46047 88.515104 
L 181.046722 84.12501 
L 180.770889 75.086581 
L 180.632973 76.171192 
L 180.632973 80.819527 
L 180.495057 84.95138 
L 180.357141 83.092046 
L 180.219225 79.011841 
L 179.805477 83.453584 
L 179.391728 73.123951 
L 179.253812 75.9646 
L 179.115896 74.466803 
L 178.97798 74.82834 
L 178.840064 71.677802 
L 178.702148 74.363507 
L 178.564232 74.725044 
L 177.874651 86.242584 
L 177.736735 82.833806 
L 177.598819 83.660176 
L 177.460903 76.222841 
L 177.18507 74.673396 
L 177.047154 80.871175 
L 176.909238 80.819527 
L 176.771322 79.734916 
L 176.633406 77.049211 
L 176.357574 81.232712 
L 176.219658 79.579971 
L 175.943825 82.730509 
L 175.805909 83.298639 
L 175.667993 79.06349 
L 175.392161 84.434899 
L 175.254245 88.928289 
L 175.116329 88.205215 
L 174.978412 89.393122 
L 174.564664 72.917358 
L 174.150916 83.143695 
L 174.013 83.350287 
L 173.599251 90.167845 
L 173.461335 91.304104 
L 173.461335 90.994215 
L 173.047587 79.011841 
L 172.909671 80.45799 
L 172.771755 80.303046 
L 172.633838 81.955787 
L 172.495922 82.162379 
L 172.358006 84.589843 
L 172.22009 83.608528 
L 171.806342 77.514045 
L 171.530509 81.59425 
L 171.392593 80.199749 
L 171.254677 80.096453 
L 170.978845 84.693139 
L 170.840929 85.622806 
L 170.703013 83.505232 
L 170.427181 94.402994 
L 170.289264 94.351346 
L 169.7376 80.354694 
L 169.599684 80.819527 
L 169.048019 88.566752 
L 168.910103 88.360159 
L 168.634271 86.08764 
L 168.358439 90.271141 
L 167.94469 75.9646 
L 167.530942 91.097512 
L 167.393026 90.787623 
L 167.25511 89.341474 
L 166.841361 82.162379 
L 166.703445 80.199749 
L 166.427613 85.312917 
L 166.427613 88.773344 
L 166.289697 84.12501 
L 166.151781 87.998622 
L 166.013865 83.711824 
L 165.875949 83.711824 
L 165.738032 75.39647 
L 165.600116 75.861303 
L 165.186368 88.721696 
L 165.048452 87.585437 
L 164.910536 88.824993 
L 164.77262 79.993157 
L 164.634703 80.45799 
L 164.496787 81.387657 
L 164.358871 88.256863 
L 164.220955 87.48214 
L 164.083039 88.773344 
L 163.945123 87.998622 
L 163.669291 77.720637 
L 163.531375 79.218434 
L 163.255542 92.388716 
L 162.97971 89.909604 
L 162.703878 91.200808 
L 162.428046 84.073361 
L 162.290129 83.918417 
L 162.014297 87.068955 
L 161.600549 91.355753 
L 161.048884 83.918417 
L 160.910968 85.003028 
L 160.773052 82.782157 
L 160.635136 85.777751 
L 160.49722 85.726103 
L 160.359304 83.918417 
L 160.083472 78.340415 
L 159.945555 79.166786 
L 159.807639 82.368972 
L 159.669723 82.730509 
L 159.531807 87.430492 
L 159.393891 88.308511 
L 159.255975 90.219493 
L 159.255975 83.815121 
L 159.118059 84.331602 
L 158.980143 83.246991 
L 158.842226 86.604122 
L 158.70431 85.881047 
L 158.566394 86.759066 
L 158.290562 81.02612 
L 158.152646 81.800842 
L 158.01473 88.6184 
L 157.876814 89.909604 
L 157.600981 79.631619 
L 157.463065 80.664583 
L 157.187233 90.994215 
L 156.773485 81.439305 
L 156.635569 84.744788 
L 156.497652 84.12501 
L 156.359736 84.331602 
L 156.22182 78.908545 
L 156.083904 78.701952 
L 155.945988 77.152508 
L 155.670156 82.162379 
L 155.394323 88.360159 
L 155.118491 90.735975 
L 154.980575 94.712883 
L 154.842659 93.163438 
L 154.566827 84.434899 
L 154.428911 84.641491 
L 154.290995 87.792029 
L 153.877246 82.265676 
L 153.601414 83.918417 
L 153.325582 93.67992 
L 153.187666 93.731568 
L 152.911833 88.256863 
L 152.636001 93.731568 
L 152.360169 87.637085 
L 152.222253 84.434899 
L 152.084337 93.731568 
L 151.94642 93.576624 
L 151.808504 87.792029 
L 151.670588 88.566752 
L 151.532672 88.670048 
L 151.394756 89.961252 
L 151.25684 84.021713 
L 150.981008 88.05027 
L 150.843092 93.524976 
L 150.705175 93.473327 
L 150.429343 92.54366 
L 150.291427 92.956846 
L 150.153511 96.107384 
L 150.015595 95.539254 
L 149.877679 92.646957 
L 149.739763 86.242584 
L 149.601846 90.942567 
L 149.46393 90.890919 
L 149.326014 91.252456 
L 149.188098 83.453584 
L 148.77435 97.191995 
L 148.498517 92.956846 
L 148.222685 90.426086 
L 147.808937 77.823934 
L 147.671021 78.237119 
L 147.533105 81.800842 
L 147.395189 91.14916 
L 147.257272 92.182123 
L 147.119356 96.985402 
L 146.98144 94.712883 
L 146.843524 97.34694 
L 146.429776 83.711824 
L 146.29186 83.505232 
L 145.740195 87.637085 
L 145.602279 89.444771 
L 145.464363 88.979937 
L 145.188531 84.176658 
L 145.050615 88.360159 
L 145.050615 96.727162 
L 144.912698 101.323848 
L 144.774782 101.375496 
L 144.49895 92.492012 
L 144.361034 93.421679 
L 144.223118 92.130475 
L 143.947286 84.434899 
L 143.671453 86.965659 
L 143.533537 84.641491 
L 143.395621 85.364566 
L 143.257705 89.548067 
L 143.119789 88.360159 
L 142.843957 80.45799 
L 142.568124 85.364566 
L 142.430208 84.38325 
L 142.292292 85.054677 
L 141.878544 98.896385 
L 141.740628 97.863421 
L 141.051047 84.538195 
L 140.913131 83.711824 
L 140.775215 86.139288 
L 140.637299 84.12501 
L 140.22355 95.229365 
L 140.085634 95.022772 
L 139.671886 92.646957 
L 139.53397 96.985402 
L 139.396054 95.952439 
L 139.258137 99.30957 
L 138.844389 81.955787 
L 138.706473 83.608528 
L 138.430641 92.233771 
L 138.292725 93.215087 
L 138.154809 90.58103 
L 138.016892 90.219493 
L 137.878976 87.688733 
L 137.878976 88.979937 
L 137.74106 89.496419 
L 137.603144 92.28542 
L 137.05148 85.881047 
L 136.775647 87.688733 
L 136.499815 82.368972 
L 136.361899 83.918417 
L 135.948151 97.398588 
L 135.810234 95.797495 
L 135.672318 91.872234 
L 135.396486 81.232712 
L 135.25857 83.711824 
L 134.982738 90.787623 
L 134.706906 84.434899 
L 134.568989 81.955787 
L 134.431073 87.275548 
L 134.293157 85.209621 
L 134.017325 90.0129 
L 133.741493 94.971124 
L 133.46566 81.439305 
L 133.327744 78.133823 
L 132.77608 93.318383 
L 132.500248 86.759066 
L 132.362332 87.275548 
L 132.086499 86.190936 
L 131.948583 87.275548 
L 131.810667 86.190936 
L 131.672751 83.815121 
L 131.534835 77.307452 
L 131.396919 78.908545 
L 131.121086 76.945915 
L 130.98317 77.823934 
L 130.845254 82.472268 
L 130.569422 77.049211 
L 130.155674 89.444771 
L 129.879841 73.847025 
L 129.604009 76.429433 
L 129.466093 80.561286 
L 129.052345 73.537136 
L 128.638596 92.698605 
L 128.50068 90.839271 
L 128.086932 79.476675 
L 127.949016 80.044805 
L 127.8111 77.668989 
L 127.673183 78.133823 
L 127.535267 75.809655 
L 127.397351 79.476675 
L 127.259435 78.185471 
L 127.121519 81.336009 
L 126.707771 75.448118 
L 126.431938 84.95138 
L 126.294022 84.899732 
L 126.01819 75.344822 
L 125.880274 76.171192 
L 125.742358 75.912952 
L 125.190693 67.081116 
L 125.052777 67.339356 
L 124.639029 84.589843 
L 124.501113 84.486547 
L 124.22528 79.631619 
L 124.087364 74.82834 
L 123.949448 74.415155 
L 123.811532 74.466803 
L 123.673616 74.26021 
L 123.673616 67.339356 
L 123.5357 66.254745 
L 123.259868 80.303046 
L 123.121951 79.528323 
L 122.708203 67.029467 
L 122.570287 64.13717 
L 122.432371 65.84156 
L 122.156539 73.537136 
L 122.018623 72.969006 
L 121.604874 77.462397 
L 121.329042 69.818468 
L 121.191126 70.954728 
L 121.05321 70.799783 
L 120.915294 74.105266 
L 120.777377 72.814062 
L 120.639461 73.175599 
L 120.363629 62.845966 
L 120.225713 62.381133 
L 120.087797 65.634967 
L 119.811965 61.554762 
L 119.674049 59.540484 
L 119.536132 59.747076 
L 119.398216 59.127298 
L 119.2603 57.629502 
L 119.122384 57.784446 
L 118.984468 59.333891 
L 118.846552 63.104207 
L 118.708636 62.639373 
L 118.57072 62.691022 
L 118.432803 59.127298 
L 118.294887 63.207503 
L 118.156971 62.949262 
L 118.019055 65.428374 
L 117.881139 64.343763 
L 117.605307 65.015189 
L 117.053642 57.319613 
L 116.77781 52.309741 
L 116.639894 54.943797 
L 116.501978 62.536077 
L 116.364062 59.488835 
L 116.088229 47.55811 
L 115.950313 45.595479 
L 115.812397 46.473498 
L 115.398649 61.554762 
L 114.846984 45.440535 
L 114.709068 41.980108 
L 114.571152 41.721867 
L 113.881571 53.962482 
L 113.467823 48.074591 
L 113.329907 48.436128 
L 113.054075 60.005317 
L 112.916159 60.78004 
L 112.50241 48.022943 
L 112.226578 53.755889 
L 112.088662 54.01413 
L 111.81283 45.28559 
L 111.536997 48.797666 
L 111.399081 49.004258 
L 111.123249 39.139459 
L 110.985333 40.7922 
L 110.709501 51.535018 
L 110.295752 39.346052 
L 110.01992 49.778981 
L 109.882004 48.436128 
L 109.606172 43.684497 
L 109.468256 54.324019 
L 109.33034 53.910834 
L 109.054507 45.233942 
L 108.778675 50.398759 
L 108.640759 49.675684 
L 108.227011 42.031756 
L 108.089094 43.477905 
L 107.813262 47.609758 
L 107.675346 46.266905 
L 107.53743 47.093276 
L 107.261598 50.605351 
L 107.123682 48.694369 
L 106.709933 34.077939 
L 106.158269 47.867999 
L 106.020353 47.919647 
L 105.606604 36.970236 
L 105.468688 36.970236 
L 105.05494 46.525146 
L 104.779108 33.509809 
L 104.641191 34.955958 
L 104.503275 42.186701 
L 104.365359 42.393293 
L 104.227443 43.787794 
L 103.813695 30.410919 
L 103.399946 49.107554 
L 103.26203 45.543831 
L 102.986198 31.082345 
L 102.710366 34.387828 
L 102.57245 33.922994 
L 102.434534 30.410919 
L 102.296617 29.894437 
L 102.296617 32.838383 
L 102.020785 39.346052 
L 101.882869 39.810885 
L 101.607037 41.773515 
L 101.469121 48.436128 
L 101.331205 49.417443 
L 101.193288 48.591073 
L 100.917456 33.458161 
L 100.77954 34.129587 
L 100.503708 46.111961 
L 100.365792 45.750424 
L 99.952043 38.003199 
L 99.538295 44.975701 
L 99.400379 46.886683 
L 99.262463 46.938332 
L 98.986631 43.684497 
L 98.710798 37.383421 
L 98.29705 43.013071 
L 98.159134 42.393293 
L 98.021218 49.055906 
L 97.883302 48.694369 
L 97.745385 45.078998 
L 97.607469 38.106496 
L 97.331637 44.924053 
L 97.193721 51.638315 
L 97.055805 51.689963 
L 96.779973 42.651534 
L 96.642057 39.242755 
L 96.50414 38.82957 
L 96.228308 43.787794 
L 95.952476 53.807537 
L 95.676644 53.239408 
L 95.262895 46.473498 
L 95.124979 46.163609 
L 95.124979 51.689963 
L 94.987063 53.910834 
L 94.849147 53.239408 
L 94.573315 45.492183 
L 94.159566 52.258092 
L 93.883734 47.506461 
L 93.745818 42.186701 
L 93.607902 42.703182 
L 93.33207 55.460279 
L 93.194154 54.633908 
L 92.918321 45.905368 
L 92.642489 59.178946 
L 92.504573 61.967947 
L 92.228741 50.91524 
L 92.090825 50.08887 
L 91.952908 52.722926 
L 91.814992 51.173481 
L 91.53916 50.91524 
L 91.125412 43.32296 
L 90.573747 57.836094 
L 90.435831 54.943797 
L 90.297915 56.699835 
L 90.022083 64.240467 
L 89.884167 64.085522 
L 89.470418 47.55811 
L 89.332502 49.417443 
L 89.05667 55.925112 
L 88.780838 59.488835 
L 88.505005 51.741611 
L 88.367089 54.272371 
L 88.229173 61.658058 
L 88.091257 62.381133 
L 88.091257 57.68115 
L 87.953341 55.40863 
L 87.815425 57.422909 
L 87.539593 53.962482 
L 87.125844 57.939391 
L 86.987928 57.11302 
L 86.712096 61.244873 
L 86.57418 59.695428 
L 86.436264 61.03828 
L 86.298348 59.07565 
L 86.160431 61.348169 
L 86.022515 58.920706 
L 85.884599 60.78004 
L 85.608767 50.91524 
L 85.470851 50.398759 
L 85.332935 50.450407 
L 85.195019 54.995445 
L 85.057102 53.446 
L 84.919186 57.319613 
L 84.78127 55.460279 
L 84.367522 70.851432 
L 84.09169 65.944856 
L 83.540025 58.24928 
L 83.402109 58.24928 
L 83.264193 53.962482 
L 82.988361 54.788853 
L 82.712528 66.306393 
L 82.436696 69.508579 
L 82.29878 69.353635 
L 82.160864 72.142636 
L 82.022948 71.419561 
L 81.747116 65.118485 
L 81.6092 65.531671 
L 81.471283 66.512986 
L 81.195451 60.625095 
L 81.057535 60.728391 
L 80.919619 62.277836 
L 80.919619 56.338297 
L 80.643787 49.985573 
L 80.505871 49.262499 
L 80.367954 50.553703 
L 79.954206 63.052559 
L 79.81629 62.122892 
L 79.678374 63.104207 
L 79.540458 65.118485 
L 79.264625 62.019595 
L 79.126709 59.488835 
L 78.988793 63.827281 
L 78.575045 53.239408 
L 78.437129 53.807537 
L 78.299213 56.596538 
L 78.161297 53.497648 
L 78.02338 53.084463 
L 77.885464 50.966888 
L 77.471716 68.062431 
L 77.3338 66.0998 
L 77.057968 57.939391 
L 76.920051 54.324019 
L 76.230471 72.400876 
L 75.954639 68.682209 
L 75.816722 61.658058 
L 75.678806 61.503114 
L 75.54089 59.747076 
L 75.402974 63.052559 
L 75.127142 62.071244 
L 74.85131 67.80419 
L 74.575477 74.725044 
L 74.299645 72.039339 
L 74.161729 67.287708 
L 74.023813 68.940449 
L 73.885897 68.63056 
L 73.885897 67.649245 
L 73.610065 59.333891 
L 73.472148 62.019595 
L 73.196316 68.475616 
L 73.0584 66.771227 
L 72.920484 63.052559 
L 72.782568 66.358041 
L 72.644652 66.564634 
L 72.230903 54.995445 
L 71.817155 67.597597 
L 71.541323 69.715172 
L 71.403407 68.940449 
L 71.265491 66.254745 
L 71.127574 67.545949 
L 70.989658 66.512986 
L 70.851742 69.353635 
L 70.713826 67.700894 
L 70.57591 68.114079 
L 70.437994 67.649245 
L 70.300078 65.789911 
L 70.162162 65.738263 
L 70.024245 67.700894 
L 69.886329 71.316265 
L 69.610497 64.188818 
L 69.472581 59.747076 
L 69.334665 59.488835 
L 69.196749 59.695428 
L 68.783 64.343763 
L 68.507168 53.187759 
L 68.369252 52.309741 
L 68.09342 58.352576 
L 67.817588 53.600945 
L 67.679671 53.600945 
L 67.403839 62.17454 
L 67.265923 62.277836 
L 67.128007 60.263558 
L 66.852175 64.447059 
L 66.714259 63.259151 
L 66.714259 59.333891 
L 66.576342 62.019595 
L 66.30051 72.607469 
L 66.024678 65.634967 
L 65.748846 54.324019 
L 65.61093 53.497648 
L 65.335097 57.009724 
L 65.197181 56.286649 
L 64.921349 57.732798 
L 64.783433 61.709707 
L 64.645517 62.432781 
L 64.507601 60.263558 
L 64.231768 62.897614 
L 64.093852 65.325078 
L 63.955936 61.864651 
L 63.81802 62.587725 
L 63.542188 70.489894 
L 63.404272 70.748135 
L 62.990523 64.653652 
L 62.852607 63.930578 
L 62.576775 64.447059 
L 62.438859 65.480022 
L 62.163027 70.180005 
L 62.025111 70.025061 
L 61.749278 64.550356 
L 61.473446 68.578912 
L 61.33553 68.423968 
L 61.059698 61.761355 
L 60.921782 62.587725 
L 60.783865 61.03828 
L 60.645949 63.723985 
L 60.370117 73.537136 
L 60.232201 73.847025 
L 59.680536 61.399818 
L 59.266788 58.662465 
L 59.128872 58.145983 
L 58.990956 64.756948 
L 58.85304 65.066837 
L 58.990956 67.959134 
L 59.128872 66.66793 
L 59.404704 70.438246 
L 59.54262 67.700894 
L 59.54262 62.536077 
L 59.680536 58.920706 
L 60.094285 67.855838 
L 60.232201 64.498707 
L 60.370117 65.170133 
L 60.508033 64.653652 
L 60.645949 67.132764 
L 60.783865 66.0998 
L 61.059698 74.363507 
L 61.197614 76.945915 
L 61.33553 76.016248 
L 61.749278 65.428374 
L 61.887194 66.616282 
L 62.025111 64.860245 
L 62.163027 68.682209 
L 62.300943 67.649245 
L 62.576775 74.363507 
L 62.852607 75.086581 
L 62.990523 73.898673 
L 63.128439 78.547008 
L 63.542188 70.128357 
L 63.81802 65.325078 
L 63.955936 61.193225 
L 64.093852 60.470151 
L 64.231768 64.395411 
L 64.369685 64.13717 
L 64.645517 65.944856 
L 64.783433 68.527264 
L 65.059265 78.133823 
L 65.197181 75.189877 
L 65.473014 67.391005 
L 66.024678 80.354694 
L 66.438426 71.109672 
L 66.576342 73.537136 
L 66.714259 73.537136 
L 66.714259 71.936043 
L 66.852175 70.438246 
L 66.990091 71.316265 
L 67.128007 70.541543 
L 67.265923 75.551414 
L 67.403839 72.917358 
L 67.541755 75.912952 
L 67.679671 73.278895 
L 67.817588 73.898673 
L 68.09342 64.550356 
L 68.231336 64.343763 
L 68.645084 72.039339 
L 68.920917 81.490953 
L 69.058833 80.716231 
L 69.196749 77.875582 
L 69.472581 65.996504 
L 69.610497 66.874523 
L 69.748413 69.76682 
L 69.886329 78.805249 
L 70.024245 79.32173 
L 70.162162 81.645898 
L 70.300078 78.960193 
L 70.57591 87.48214 
L 70.713826 86.914011 
L 70.851742 83.608528 
L 70.989658 84.486547 
L 71.127574 87.792029 
L 71.265491 86.552473 
L 71.541323 74.105266 
L 71.955071 89.134882 
L 72.092987 84.538195 
L 72.368819 69.715172 
L 72.506736 69.560227 
L 72.782568 79.06349 
L 72.920484 80.716231 
L 73.0584 80.044805 
L 73.196316 82.368972 
L 73.472148 78.598656 
L 73.747981 72.710765 
L 73.885897 75.39647 
L 73.885897 81.387657 
L 74.023813 85.726103 
L 74.161729 83.246991 
L 74.575477 68.63056 
L 74.713394 72.194284 
L 75.127142 89.18653 
L 75.265058 87.120603 
L 75.54089 77.152508 
L 75.678806 77.823934 
L 75.816722 75.551414 
L 75.954639 76.119544 
L 76.092555 73.382192 
L 76.230471 77.410748 
L 76.368387 77.462397 
L 76.506303 78.133823 
L 76.920051 88.101918 
L 77.057968 86.345881 
L 77.195884 86.604122 
L 77.609632 73.537136 
L 77.747548 73.898673 
L 77.885464 78.288767 
L 78.02338 79.115138 
L 78.161297 82.162379 
L 78.299213 78.856897 
L 78.575045 77.152508 
L 78.712961 81.336009 
L 78.850877 81.284361 
L 79.126709 77.565693 
L 79.540458 72.762414 
L 79.678374 75.912952 
L 79.954206 86.500825 
L 80.092122 90.374437 
L 80.367954 87.895326 
L 80.643787 80.199749 
L 80.919619 84.641491 
L 81.195451 80.251397 
L 81.333367 80.45799 
L 81.747116 88.05027 
L 81.885032 86.810714 
L 82.436696 73.692081 
L 83.126277 93.834864 
L 83.264193 91.14916 
L 83.540025 78.49536 
L 83.677941 78.960193 
L 83.953774 82.368972 
L 84.09169 82.730509 
L 84.367522 75.706359 
L 84.643354 71.884395 
L 84.919186 80.664583 
L 85.057102 89.083233 
L 85.195019 88.463455 
L 85.470851 81.749194 
L 85.608767 82.98875 
L 86.160431 91.355753 
L 86.298348 90.684326 
L 86.436264 86.08764 
L 86.57418 85.726103 
L 86.987928 77.3591 
L 87.125844 77.823934 
L 87.539593 91.097512 
L 87.677509 89.75466 
L 87.953341 94.971124 
L 88.091257 93.67992 
L 88.091257 91.200808 
L 88.229173 84.021713 
L 88.505005 81.181064 
L 88.642922 81.904139 
L 88.918754 78.082174 
L 89.194586 81.336009 
L 89.608334 93.318383 
L 89.884167 90.219493 
L 90.022083 90.167845 
L 90.297915 85.829399 
L 90.573747 80.148101 
L 90.711663 79.32173 
L 90.84958 80.044805 
L 91.125412 88.515104 
L 91.263328 90.477734 
L 91.401244 90.064549 
L 91.677076 84.744788 
L 91.814992 84.38325 
L 92.090825 89.909604 
L 92.228741 85.932695 
L 92.366657 86.604122 
L 92.504573 88.6184 
L 92.642489 92.492012 
L 92.780405 89.393122 
L 92.918321 90.219493 
L 93.194154 88.515104 
L 93.33207 90.426086 
L 93.469986 89.341474 
L 93.607902 91.975531 
L 93.745818 91.923882 
L 94.02165 95.229365 
L 94.159566 95.64255 
L 94.297483 93.215087 
L 94.711231 79.838212 
L 94.849147 84.331602 
L 95.124979 99.051329 
L 95.538728 86.242584 
L 95.81456 91.252456 
L 95.952476 90.684326 
L 96.090392 83.350287 
L 96.228308 82.472268 
L 96.642057 99.929348 
L 97.055805 90.477734 
L 97.193721 90.632678 
L 97.331637 87.688733 
L 97.469553 92.595309 
L 97.607469 88.463455 
L 97.745385 91.510697 
L 97.883302 87.327196 
L 98.021218 96.417273 
L 98.159134 94.454642 
L 98.29705 97.037051 
L 98.434966 93.886513 
L 98.572882 94.093105 
L 98.710798 89.651363 
L 98.848714 89.083233 
L 99.124547 95.694198 
L 99.538295 90.787623 
L 99.952043 94.867828 
L 100.08996 94.454642 
L 100.227876 94.454642 
L 100.365792 96.055736 
L 100.641624 91.975531 
L 100.917456 83.660176 
L 101.055372 81.387657 
L 101.331205 90.994215 
L 101.469121 91.975531 
L 101.607037 91.71729 
L 101.882869 93.11179 
L 102.020785 92.595309 
L 102.158701 92.801901 
L 102.296617 92.233771 
L 102.296617 91.252456 
L 102.434534 88.308511 
L 102.710366 95.07442 
L 102.848282 99.102977 
L 102.986198 97.140347 
L 103.124114 98.896385 
L 103.537863 92.905198 
L 103.675779 89.444771 
L 103.813695 90.116197 
L 103.951611 88.205215 
L 104.227443 92.54366 
L 104.503275 99.516163 
L 104.779108 100.394181 
L 104.917024 98.689792 
L 105.192856 92.646957 
L 105.330772 91.872234 
L 105.468688 96.727162 
L 105.606604 96.520569 
L 105.74452 100.290885 
L 105.882437 99.257922 
L 106.020353 102.253515 
L 106.158269 100.70407 
L 106.296185 100.755718 
L 106.434101 102.615052 
L 106.709933 100.342533 
L 106.847849 100.549126 
L 107.123682 112.221611 
L 107.675346 100.70407 
L 107.813262 93.989809 
L 107.951178 93.834864 
L 108.089094 94.402994 
L 108.364927 94.041457 
L 108.778675 113.202926 
L 108.916591 111.756777 
L 109.468256 99.722755 
L 109.468256 100.807367 
L 109.744088 103.648016 
L 110.01992 99.412866 
L 110.157836 103.389775 
L 110.295752 104.112849 
L 110.571585 101.323848 
L 110.709501 101.478793 
L 110.847417 100.807367 
L 110.985333 97.656829 
L 111.399081 100.084292 
L 111.536997 101.478793 
L 111.81283 113.616111 
L 111.950746 112.738092 
L 112.226578 102.046923 
L 112.50241 102.098571 
L 112.640326 101.323848 
L 112.778243 98.121662 
L 112.916159 99.980996 
L 113.054075 98.431551 
L 113.329907 110.052388 
L 113.467823 109.845795 
L 113.743655 102.718349 
L 114.433236 117.954557 
L 114.846984 110.672166 
L 114.9849 110.413925 
L 115.122817 113.667759 
L 115.260733 114.287537 
L 115.398649 117.438075 
L 115.812397 100.394181 
L 116.226146 112.893037 
L 116.364062 109.897443 
L 116.501978 109.484258 
L 116.501978 103.906256 
L 116.639894 105.610646 
L 116.77781 104.061201 
L 116.915726 105.817239 
L 117.053642 103.699664 
L 117.191558 103.596367 
L 117.467391 107.779869 
L 117.605307 113.564463 
L 117.743223 113.616111 
L 117.881139 114.390834 
L 118.019055 110.517221 
L 118.156971 110.82711 
L 118.294887 112.5315 
L 118.432803 110.56887 
L 118.57072 110.982055 
L 118.708636 106.953498 
L 118.846552 114.597426 
L 118.984468 114.958964 
L 119.122384 117.283131 
L 119.2603 107.108443 
L 119.398216 106.953498 
L 119.536132 110.775462 
L 119.811965 122.189707 
L 120.225713 118.471039 
L 120.363629 120.278724 
L 120.639461 126.734745 
L 120.777377 122.964429 
L 121.05321 110.465573 
L 121.191126 108.657888 
L 121.329042 109.535906 
L 121.74279 117.59302 
L 121.880706 118.057853 
L 122.018623 116.818297 
L 122.156539 116.715001 
L 122.294455 116.353464 
L 122.432371 114.700723 
L 122.570287 115.423797 
L 122.708203 114.804019 
L 122.984035 119.607298 
L 123.259868 125.960022 
L 123.397784 125.856726 
L 123.5357 125.546837 
L 124.087364 111.291944 
L 124.501113 118.316094 
L 124.639029 118.780928 
L 125.052777 113.926 
L 125.190693 115.578742 
L 125.328609 112.944685 
L 125.466526 114.132593 
L 125.604442 111.39524 
L 125.742358 113.306222 
L 125.880274 109.897443 
L 126.156106 114.958964 
L 126.294022 116.146871 
L 126.431938 115.785334 
L 126.569854 115.010612 
L 126.707771 115.475445 
L 126.845687 113.874352 
L 127.259435 129.885283 
L 127.535267 113.564463 
L 127.673183 113.926 
L 127.949016 126.734745 
L 128.086932 122.757836 
L 128.224848 115.268853 
L 128.362764 114.442482 
L 128.638596 117.696316 
L 128.776512 113.977648 
L 128.914429 115.527093 
L 129.190261 123.7908 
L 129.466093 120.485317 
L 129.604009 123.945744 
L 129.741925 124.410578 
L 129.879841 125.960022 
L 130.017757 122.65454 
L 130.155674 125.391893 
L 130.29359 121.311688 
L 130.431506 122.034762 
L 130.569422 120.795206 
L 130.707338 123.532559 
L 130.845254 120.898502 
L 130.845254 123.325966 
L 131.259003 113.874352 
L 131.672751 123.842448 
L 131.948583 115.63039 
L 132.086499 114.958964 
L 132.500248 128.697375 
L 132.638164 131.124839 
L 133.327744 119.658946 
L 133.741493 127.612764 
L 133.879409 125.908374 
L 134.017325 126.786393 
L 134.293157 118.316094 
L 134.431073 120.588613 
L 134.568989 125.75343 
L 134.706906 125.650133 
L 134.982738 120.227076 
L 135.396486 126.218263 
L 135.534402 127.406171 
L 135.810234 119.400706 
L 135.948151 117.954557 
L 136.086067 117.902909 
L 136.361899 112.324907 
L 136.499815 116.250168 
L 136.637731 116.611705 
L 136.775647 117.438075 
L 136.913563 113.461167 
L 137.05148 114.958964 
L 137.465228 129.627042 
L 137.74106 118.419391 
L 137.878976 116.198519 
L 137.878976 117.902909 
L 138.016892 116.45676 
L 138.430641 126.992986 
L 138.706473 121.466632 
L 138.844389 117.902909 
L 139.258137 132.157802 
L 139.396054 131.279783 
L 139.671886 120.485317 
L 139.809802 119.039168 
L 139.947718 118.832576 
L 140.22355 113.09963 
L 140.637299 120.278724 
L 140.775215 118.367742 
L 140.913131 118.884224 
L 141.051047 118.057853 
L 141.326879 122.602892 
L 141.464795 123.842448 
L 141.602712 123.067725 
L 141.740628 121.621577 
L 142.01646 113.719408 
L 142.292292 118.057853 
L 142.430208 119.917187 
L 142.568124 116.560057 
L 142.70604 118.677631 
L 143.119789 115.785334 
L 143.257705 115.217204 
L 143.395621 115.682038 
L 143.533537 117.747964 
L 143.809369 116.921594 
L 143.947286 115.372149 
L 144.085202 118.625983 
L 144.223118 119.245761 
L 144.361034 121.983114 
L 144.49895 121.621577 
L 144.636866 122.551244 
L 144.774782 122.396299 
L 144.912698 121.879818 
L 145.050615 124.152337 
L 145.050615 126.683097 
L 145.188531 127.457819 
L 145.464363 121.001799 
L 145.602279 123.739151 
L 145.878111 132.054506 
L 146.29186 116.973242 
L 146.429776 118.471039 
L 146.567692 117.954557 
L 146.705608 114.235889 
L 146.843524 113.771056 
L 146.98144 116.250168 
L 147.395189 114.442482 
L 147.808937 122.499595 
L 148.084769 117.283131 
L 148.360601 108.606239 
L 148.498517 104.577683 
L 148.77435 112.686444 
L 149.050182 120.743558 
L 149.326014 112.479852 
L 149.46393 112.583148 
L 149.601846 113.409519 
L 149.739763 111.653481 
L 149.877679 106.591961 
L 150.015595 107.160091 
L 150.291427 118.72928 
L 150.429343 117.489724 
L 150.567259 114.029297 
L 150.705175 115.63039 
L 150.843092 115.010612 
L 151.118924 110.775462 
L 151.25684 110.930407 
L 151.394756 111.291944 
L 151.532672 110.052388 
L 151.670588 112.789741 
L 151.808504 110.82711 
L 151.94642 115.475445 
L 152.084337 114.855667 
L 152.084337 117.128186 
L 152.222253 118.264446 
L 152.360169 117.231483 
L 152.911833 109.690851 
L 153.049749 109.845795 
L 153.187666 111.860074 
L 153.463498 116.715001 
L 153.601414 117.59302 
L 153.73933 120.278724 
L 153.877246 118.419391 
L 154.153078 119.349057 
L 154.428911 126.734745 
L 154.842659 114.545778 
L 154.980575 114.907315 
L 155.118491 116.766649 
L 155.53224 104.216145 
L 155.670156 106.437016 
L 155.808072 112.169963 
L 155.945988 113.047981 
L 156.083904 111.498537 
L 156.22182 107.934813 
L 156.497652 117.231483 
L 156.773485 122.964429 
L 157.049317 125.443541 
L 157.187233 123.22267 
L 157.600981 113.35787 
L 157.738898 111.446888 
L 157.876814 112.841389 
L 158.01473 112.376555 
L 158.152646 115.372149 
L 158.290562 115.475445 
L 158.428478 117.902909 
L 158.566394 114.958964 
L 158.70431 115.423797 
L 158.842226 113.926 
L 158.980143 117.283131 
L 159.118059 116.663353 
L 159.255975 119.504002 
L 159.255975 122.964429 
L 159.393891 123.997392 
L 159.669723 119.968835 
L 159.807639 121.673225 
L 159.945555 120.227076 
L 160.221388 112.324907 
L 160.635136 123.739151 
L 161.324717 110.620518 
L 161.462633 110.878759 
L 161.738465 116.818297 
L 161.876381 115.836982 
L 162.014297 111.033703 
L 162.290129 118.006205 
L 162.428046 122.964429 
L 162.841794 114.649075 
L 163.117626 117.902909 
L 163.255542 121.776521 
L 163.531375 112.221611 
L 163.807207 104.422738 
L 164.083039 112.686444 
L 164.220955 116.353464 
L 164.358871 115.88863 
L 164.634703 112.015018 
L 164.910536 114.080945 
L 165.324284 121.569929 
L 165.4622 121.983114 
L 165.875949 109.329314 
L 166.151781 111.39524 
L 166.427613 121.621577 
L 166.565529 120.227076 
L 166.703445 120.640262 
L 166.841361 118.419391 
L 166.979278 121.053447 
L 167.25511 115.991927 
L 167.393026 115.785334 
L 167.530942 114.49413 
L 167.668858 114.855667 
L 167.94469 112.169963 
L 168.082606 110.465573 
L 168.220523 106.643609 
L 168.496355 110.878759 
L 168.634271 116.611705 
L 168.910103 109.639203 
L 169.048019 109.329314 
L 169.185935 111.601833 
L 169.323852 110.982055 
L 169.461768 108.761184 
L 169.875516 124.720467 
L 170.151348 118.264446 
L 170.289264 110.517221 
L 170.565097 110.052388 
L 170.840929 119.710595 
L 170.978845 119.917187 
L 171.392593 113.771056 
L 171.530509 113.202926 
L 171.806342 109.43261 
L 172.082174 113.202926 
L 172.22009 113.616111 
L 172.358006 109.845795 
L 172.495922 115.527093 
L 172.633838 116.198519 
L 172.771755 117.851261 
L 173.047587 112.686444 
L 173.185503 113.254574 
L 173.461335 119.039168 
L 173.599251 118.574335 
L 173.875083 113.719408 
L 174.013 108.812832 
L 174.288832 116.198519 
L 174.426748 119.813891 
L 174.70258 117.386427 
L 174.840496 116.198519 
L 174.978412 112.738092 
L 175.116329 112.376555 
L 175.254245 113.771056 
L 175.392161 112.583148 
L 175.530077 112.789741 
L 175.667993 111.085351 
L 175.805909 113.047981 
L 175.943825 112.841389 
L 176.219658 109.535906 
L 176.633406 121.156743 
L 176.909238 110.620518 
L 177.047154 109.071073 
L 177.18507 109.019425 
L 177.322986 110.930407 
L 177.460903 109.639203 
L 177.874651 125.701782 
L 178.012567 123.635855 
L 178.288399 116.611705 
L 178.426315 118.625983 
L 178.564232 116.818297 
L 178.840064 106.850202 
L 179.115896 116.405112 
L 179.253812 112.944685 
L 179.391728 105.817239 
L 179.529644 106.385368 
L 179.943393 125.340245 
L 180.081309 127.71606 
L 180.632973 113.35787 
L 180.632973 119.194113 
L 180.770889 123.171022 
L 181.184638 122.138058 
L 181.322554 121.053447 
L 181.598386 114.029297 
L 181.874218 119.039168 
L 182.150051 110.82711 
L 182.287967 112.169963 
L 182.563799 124.307281 
L 182.701715 122.447947 
L 182.977547 116.766649 
L 183.115464 119.865539 
L 183.25338 119.194113 
L 183.391296 121.466632 
L 183.529212 120.588613 
L 183.667128 124.61717 
L 183.805044 121.105095 
L 183.94296 121.724873 
L 184.080876 121.776521 
L 184.218792 123.325966 
L 184.356709 122.189707 
L 184.494625 123.325966 
L 184.632541 128.800671 
L 184.770457 127.974301 
L 184.908373 126.32156 
L 185.046289 123.22267 
L 185.184205 123.274318 
L 185.322121 122.861133 
L 185.460038 118.212798 
L 185.597954 118.16115 
L 185.73587 117.231483 
L 185.873786 121.156743 
L 186.149618 118.006205 
L 186.287534 113.616111 
L 186.42545 116.250168 
L 186.839199 111.240296 
L 186.977115 112.944685 
L 187.115031 116.301816 
L 187.252947 116.560057 
L 187.390863 118.574335 
L 187.528779 117.128186 
L 187.666695 119.349057 
L 187.804612 116.611705 
L 187.804612 117.954557 
L 187.942528 116.663353 
L 188.356276 125.236948 
L 188.494192 129.420449 
L 188.770024 122.08641 
L 188.907941 113.35787 
L 189.183773 117.231483 
L 189.321689 123.119373 
L 189.459605 122.499595 
L 189.597521 121.208391 
L 189.735437 117.334779 
L 189.873353 116.869946 
L 190.011269 118.677631 
L 190.149186 116.611705 
L 190.425018 109.43261 
L 190.838766 124.823763 
L 190.976682 122.447947 
L 191.252515 112.169963 
L 191.390431 108.967777 
L 191.528347 112.324907 
L 191.666263 112.893037 
L 191.804179 118.264446 
L 191.942095 118.109502 
L 192.080011 122.551244 
L 192.217927 122.08641 
L 192.355844 120.743558 
L 192.631676 110.930407 
L 192.769592 112.996333 
L 192.907508 118.522687 
L 193.045424 117.696316 
L 193.321256 117.799613 
L 193.597089 125.546837 
L 193.735005 126.889689 
L 193.872921 126.683097 
L 194.010837 122.757836 
L 194.148753 125.805078 
L 194.562501 116.405112 
L 194.838334 129.420449 
L 194.838334 132.622636 
L 194.97625 129.523746 
L 195.114166 122.08641 
L 195.389998 121.466632 
L 195.527914 122.344651 
L 195.803747 120.433669 
L 195.941663 123.687503 
L 196.079579 123.584207 
L 196.217495 123.842448 
L 196.493327 117.02489 
L 196.769159 123.635855 
L 197.044992 131.692969 
L 197.182908 129.420449 
L 197.320824 129.058912 
L 197.45874 125.391893 
L 197.596656 129.472098 
L 197.734572 128.749023 
L 197.872488 126.424856 
L 198.010404 121.466632 
L 198.148321 120.950151 
L 198.424153 129.472098 
L 198.562069 129.213857 
L 198.975817 117.02489 
L 199.113733 118.16115 
L 199.251649 120.795206 
L 199.389566 126.011671 
L 199.527482 123.016077 
L 199.665398 123.842448 
L 199.94123 126.528152 
L 200.079146 124.61717 
L 200.354978 120.072132 
L 200.492895 120.12378 
L 200.630811 120.743558 
L 201.044559 137.580859 
L 201.596224 123.635855 
L 202.009972 129.007264 
L 202.009972 127.664412 
L 202.147888 127.819356 
L 202.42372 131.279783 
L 203.113301 124.772115 
L 203.251217 121.363336 
L 203.389133 124.875411 
L 203.527049 123.635855 
L 203.664965 127.664412 
L 203.802881 123.171022 
L 204.078714 134.430321 
L 204.21663 144.191824 
L 204.354546 143.262157 
L 204.768294 124.100689 
L 205.595791 147.342362 
L 205.733707 140.834694 
L 206.009539 141.557768 
L 206.147455 145.121491 
L 206.423288 139.440193 
L 206.561204 137.477563 
L 206.837036 141.092935 
L 207.250784 151.267623 
L 207.526617 155.55442 
L 207.664533 158.291773 
L 207.802449 158.08518 
L 208.216197 172.236777 
L 208.49203 163.818127 
L 208.905778 168.104924 
L 209.043694 162.991756 
L 209.18161 163.71483 
L 209.18161 167.123609 
L 209.319526 170.015906 
L 209.457442 169.396128 
L 209.733275 163.611534 
L 209.871191 164.799442 
L 210.009107 168.982943 
L 210.422855 159.892866 
L 210.560771 162.940108 
L 210.97452 177.453242 
L 211.112436 178.382909 
L 211.250352 181.068613 
L 211.526184 193.774062 
L 211.6641 196.201525 
L 212.077849 181.275206 
L 212.353681 177.091705 
L 212.491597 176.575223 
L 212.905345 200.126786 
L 213.45701 189.745505 
L 213.594926 191.088357 
L 213.870758 198.577341 
L 214.14659 190.571876 
L 214.284507 190.881765 
L 214.422423 193.619117 
L 214.560339 192.947691 
L 214.698255 188.402653 
L 214.836171 187.886171 
L 214.974087 187.989467 
L 215.387835 200.539971 
L 215.525752 198.370748 
L 215.663668 201.521286 
L 215.801584 197.957563 
L 215.9395 203.742157 
L 216.077416 202.967435 
L 216.215332 203.94875 
L 216.215332 201.831175 
L 216.353248 202.244361 
L 216.629081 197.802619 
L 216.766997 194.445488 
L 216.904913 196.9246 
L 217.042829 197.389433 
L 217.456577 211.076197 
L 217.73241 203.225676 
L 217.870326 201.108101 
L 218.008242 204.930065 
L 218.146158 203.742157 
L 218.42199 198.215804 
L 218.559906 192.637802 
L 218.835738 198.577341 
L 218.973655 206.117973 
L 219.249487 203.432268 
L 219.387403 197.182841 
L 219.525319 198.370748 
L 219.663235 198.525693 
L 219.801151 201.108101 
L 220.076984 192.069672 
L 220.2149 192.68945 
L 220.352816 198.783934 
L 220.490732 196.459766 
L 220.766564 186.956504 
L 220.90448 190.520227 
L 221.042396 189.952098 
L 221.180313 192.018024 
L 221.318229 189.59056 
L 221.594061 194.083951 
L 221.869893 194.96197 
L 222.145725 193.567469 
L 222.421558 190.675172 
L 222.559474 192.121321 
L 222.69739 191.088357 
L 222.973222 188.609245 
L 223.38697 182.773003 
L 223.524887 179.570817 
L 223.938635 186.336726 
L 224.076551 186.078485 
L 224.214467 187.782875 
L 224.352383 186.904856 
L 224.628215 173.786222 
L 224.766132 175.025778 
L 224.904048 178.744446 
L 225.041964 178.07302 
L 225.17988 178.589502 
L 225.455712 183.444429 
L 225.593628 183.392781 
L 225.869461 176.265334 
L 226.007377 173.889519 
L 226.145293 174.457648 
L 226.421125 174.096111 
L 226.559041 170.997221 
L 226.696957 172.030185 
L 226.834873 171.87524 
L 227.248622 187.524634 
L 227.386538 184.425744 
L 227.66237 166.658776 
L 227.800286 165.884053 
L 227.938202 169.447777 
L 228.076118 168.363165 
L 228.351951 169.964258 
L 228.489867 176.265334 
L 228.765699 172.133481 
L 228.903615 165.729109 
L 229.041531 165.729109 
L 229.179447 166.142294 
L 229.45528 169.034591 
L 229.593196 170.015906 
L 229.869028 163.353293 
L 230.006944 159.944514 
L 230.420693 172.701611 
L 230.420693 170.067554 
L 230.558609 171.30711 
L 230.696525 171.30711 
L 231.110273 161.648904 
L 231.248189 166.710424 
L 231.386105 165.729109 
L 231.524021 168.621406 
L 231.661938 167.94998 
L 231.799854 172.133481 
L 231.93777 169.706017 
L 232.075686 169.292832 
L 232.213602 165.729109 
L 232.351518 165.832405 
L 232.489434 163.921423 
L 232.765267 168.931295 
L 232.903183 170.067554 
L 233.041099 166.24559 
L 233.179015 169.189536 
L 233.316931 166.142294 
L 233.454847 165.729109 
L 233.730679 160.512644 
L 233.868595 159.428033 
L 234.006512 159.841218 
L 234.144428 159.531329 
L 234.42026 157.207162 
L 234.558176 155.709365 
L 234.696092 156.897273 
L 234.834008 159.634625 
L 234.971924 165.160979 
L 235.109841 165.625812 
L 235.385673 154.418161 
L 235.523589 158.395069 
L 235.799421 168.466461 
L 235.937337 165.729109 
L 236.075253 159.737922 
L 236.21317 159.479681 
L 236.489002 156.432439 
L 236.626918 157.517051 
L 236.764834 157.362106 
L 236.90275 157.465402 
L 237.040666 157.775291 
L 237.316498 161.855496 
L 237.454415 160.3577 
L 237.592331 154.779698 
L 237.592331 155.864309 
L 237.730247 156.897273 
L 238.006079 163.301645 
L 238.143995 165.006034 
L 238.281911 164.437905 
L 238.557744 158.188477 
L 238.971492 162.940108 
L 239.109408 162.785163 
L 239.247324 162.32033 
L 239.38524 165.470868 
L 239.661073 160.822533 
L 239.798989 152.093993 
L 240.074821 157.413754 
L 240.212737 161.855496 
L 240.350653 160.099459 
L 240.488569 161.907145 
L 240.626485 159.066496 
L 240.764401 158.756607 
L 240.902318 156.484087 
L 241.040234 156.329143 
L 241.17815 155.192883 
L 241.453982 163.043404 
L 241.591898 163.508238 
L 241.729814 159.944514 
L 241.86773 159.737922 
L 242.143563 163.71483 
L 242.419395 162.681867 
L 242.557311 162.113737 
L 242.833143 162.371978 
L 243.108976 153.02366 
L 243.246892 152.093993 
L 243.384808 155.399476 
L 243.522724 161.390663 
L 243.66064 162.113737 
L 243.798556 161.803848 
L 244.074388 155.812661 
L 244.212304 154.624753 
L 244.350221 155.502772 
L 244.488137 158.704958 
L 244.626053 158.343421 
L 244.763969 159.944514 
L 244.763969 156.639032 
L 245.039801 153.075309 
L 245.177717 153.333549 
L 245.315633 160.719237 
L 245.591466 156.845625 
L 245.867298 146.722584 
L 246.14313 151.525864 
L 246.281046 151.009382 
L 246.556878 146.102806 
L 246.832711 155.089587 
L 247.108543 163.095052 
L 247.246459 162.578571 
L 247.384375 161.493959 
L 247.522291 157.568699 
L 247.660207 157.82694 
L 247.798124 156.225847 
L 248.073956 149.718178 
L 248.211872 151.009382 
L 248.349788 154.211568 
L 248.487704 152.920364 
L 248.62562 149.356641 
L 248.763536 151.370919 
L 249.039369 164.024719 
L 249.177285 165.677461 
L 249.453117 160.770885 
L 249.591033 155.244531 
L 250.004781 158.963199 
L 250.280614 152.972012 
L 250.41853 151.370919 
L 250.556446 154.314864 
L 250.832278 162.681867 
L 250.970194 159.376385 
L 251.246027 148.065437 
L 251.383943 150.079715 
L 251.521859 149.511585 
L 251.659775 155.761013 
L 251.797691 156.484087 
L 251.797691 159.634625 
L 252.211439 148.117085 
L 252.349356 144.03688 
L 252.763104 153.901679 
L 253.176852 143.572046 
L 253.314768 150.286308 
L 253.452684 150.131363 
L 253.728517 151.164326 
L 253.866433 156.587384 
L 254.004349 154.831346 
L 254.280181 147.858844 
L 254.69393 161.339015 
L 254.831846 160.925829 
L 255.107678 151.164326 
L 255.38351 156.69068 
L 255.521426 155.502772 
L 255.659342 156.639032 
L 255.797259 155.709365 
L 255.935175 158.395069 
L 256.073091 156.277495 
L 256.211007 157.000569 
L 256.348923 155.399476 
L 256.486839 152.300586 
L 256.624755 153.901679 
L 256.900587 147.600603 
L 257.038504 141.712712 
L 257.17642 141.764361 
L 257.590168 161.390663 
L 257.728084 158.136829 
L 257.866 158.188477 
L 258.141833 150.079715 
L 258.279749 149.718178 
L 258.417665 151.370919 
L 258.555581 150.751141 
L 258.831413 146.774233 
L 258.969329 147.290714 
L 258.969329 145.896214 
L 259.107245 150.596197 
L 259.245161 150.183011 
L 259.520994 143.933584 
L 259.934742 151.990697 
L 260.072658 146.412695 
L 260.210574 145.637973 
L 260.34849 142.694028 
L 260.486407 146.412695 
L 260.624323 145.069843 
L 260.762239 145.018195 
L 260.900155 146.515992 
L 261.038071 150.183011 
L 261.175987 149.150048 
L 261.451819 144.914899 
L 261.727652 152.042345 
L 261.865568 153.59179 
L 262.279316 147.497307 
L 262.555148 154.882994 
L 262.693064 152.920364 
L 262.968897 144.03688 
L 263.244729 142.848972 
L 263.382645 143.881935 
L 263.658477 154.521457 
L 263.93431 145.99951 
L 264.072226 144.86325 
L 264.348058 150.028067 
L 264.485974 146.56764 
L 264.62389 148.478622 
L 264.761806 147.445659 
L 264.899722 151.474215 
L 265.175555 148.220381 
L 265.313471 146.619288 
L 265.589303 149.924771 
L 265.727219 149.924771 
L 266.140967 153.643438 
L 266.140967 153.436846 
L 266.4168 152.455531 
L 266.692632 146.929177 
L 266.968464 155.29618 
L 267.10638 156.432439 
L 267.382213 145.896214 
L 267.520129 145.99951 
L 267.795961 144.398417 
L 267.933877 144.295121 
L 268.071793 146.154455 
L 268.209709 151.215975 
L 268.485542 146.102806 
L 268.761374 137.632508 
L 268.89929 136.031414 
L 269.037206 139.285249 
L 269.313038 149.614882 
L 269.450954 154.469809 
L 269.58887 153.695087 
L 269.726787 156.484087 
L 269.864703 155.709365 
L 270.002619 153.488494 
L 270.140535 153.436846 
L 270.554283 139.80173 
L 270.692199 139.078656 
L 270.968032 142.435787 
L 271.38178 138.562174 
L 271.795528 151.887401 
L 271.933444 149.718178 
L 272.071361 151.525864 
L 272.209277 146.56764 
L 272.485109 147.032473 
L 272.623025 148.736863 
L 272.898857 139.80173 
L 273.036773 134.327025 
L 273.17469 134.585266 
L 273.17469 137.890748 
L 273.312606 146.877529 
L 273.450522 147.13577 
L 273.588438 147.858844 
L 273.726354 142.745676 
L 273.86427 142.694028 
L 274.140102 146.515992 
L 274.278019 149.511585 
L 274.553851 146.825881 
L 274.691767 146.257751 
L 275.105515 143.520398 
L 275.381347 152.972012 
L 275.519264 148.840159 
L 275.795096 136.599544 
L 276.070928 150.647845 
L 276.208844 148.220381 
L 276.484676 139.440193 
L 276.622593 140.93799 
L 276.898425 145.99951 
L 277.312173 141.661064 
L 277.450089 145.224788 
L 277.725922 143.881935 
L 278.277586 130.711654 
L 278.415502 134.068784 
L 278.691334 149.563233 
L 278.82925 149.821474 
L 278.967167 149.718178 
L 279.105083 146.206103 
L 279.242999 147.96214 
L 279.380915 145.534677 
L 279.794663 133.397358 
L 280.070496 138.40723 
L 280.346328 148.323677 
L 280.346328 147.858844 
L 280.484244 142.745676 
L 281.173825 151.887401 
L 281.311741 150.854437 
L 281.449657 147.703899 
L 281.587573 148.117085 
L 281.725489 145.483028 
L 281.863405 145.792917 
L 282.001321 147.548955 
L 282.277153 154.418161 
L 282.828818 140.628101 
L 282.966734 141.247879 
L 283.10465 141.247879 
L 283.380482 142.952268 
L 283.518399 150.131363 
L 283.656315 149.511585 
L 283.794231 151.680808 
L 283.932147 143.417102 
L 284.070063 146.102806 
L 284.207979 144.501713 
L 284.345895 147.084122 
L 284.483811 143.210509 
L 284.621727 143.262157 
L 284.89756 147.13577 
L 285.035476 146.774233 
L 285.449224 127.819356 
L 285.58714 129.213857 
L 285.862973 143.417102 
L 286.000889 143.262157 
L 286.138805 143.623695 
L 286.276721 142.797324 
L 286.414637 148.168733 
L 286.690469 149.511585 
L 287.104218 137.580859 
L 287.38005 145.276436 
L 287.517966 143.46875 
L 287.655882 143.726991 
L 287.793798 144.656658 
L 287.931714 144.243473 
L 288.06963 142.33249 
L 288.207547 143.313806 
L 288.345463 142.125898 
L 288.483379 142.952268 
L 288.759211 138.613823 
L 289.035043 139.646786 
L 289.172959 142.280842 
L 289.310876 140.834694 
L 289.724624 146.412695 
L 289.86254 150.183011 
L 290.000456 150.23466 
L 290.138372 148.633566 
L 290.414205 141.816009 
L 290.552121 141.351175 
L 290.827953 137.219322 
L 291.103785 144.759954 
L 291.241701 143.417102 
L 291.379617 139.491841 
L 291.517533 138.768767 
L 291.65545 139.130304 
L 291.931282 130.556709 
L 292.069198 130.401765 
L 292.34503 144.656658 
L 292.482946 147.290714 
L 292.620862 139.027008 
L 292.758779 138.665471 
L 292.896695 135.928118 
L 293.034611 141.712712 
L 293.172527 141.454472 
L 293.310443 146.929177 
L 293.724191 133.862192 
L 294.000024 147.600603 
L 294.13794 146.619288 
L 294.275856 142.590731 
L 294.413772 144.759954 
L 294.551688 155.606069 
L 294.965436 143.933584 
L 295.103353 143.778639 
L 295.241269 139.388545 
L 295.517101 140.111619 
L 295.655017 142.435787 
L 295.792933 140.163268 
L 295.930849 135.359988 
L 296.068765 135.824822 
L 296.206682 135.205044 
L 296.344598 141.50612 
L 296.482514 139.027008 
L 296.62043 140.524805 
L 296.758346 138.613823 
L 297.034178 144.553361 
L 297.172094 144.759954 
L 297.447927 133.552303 
L 297.585843 133.655599 
L 297.723759 141.144583 
L 297.861675 141.351175 
L 297.999591 143.262157 
L 298.137507 140.93799 
L 298.275423 143.055565 
L 298.413339 142.745676 
L 298.551256 145.792917 
L 298.827088 139.853379 
L 298.965004 135.566581 
L 299.10292 134.998451 
L 299.240836 135.721525 
L 299.378752 133.965488 
L 299.654585 139.491841 
L 299.792501 142.229194 
L 299.930417 141.144583 
L 300.068333 143.158861 
L 300.206249 142.694028 
L 300.482081 141.041286 
L 300.757913 149.563233 
L 301.033746 140.989638 
L 301.171662 134.017136 
L 301.58541 138.923712 
L 301.723326 134.998451 
L 301.723326 138.355582 
L 301.999159 142.797324 
L 302.274991 136.961081 
L 302.550823 144.346769 
L 302.688739 145.379732 
L 302.826655 141.970953 
L 302.964571 143.365454 
L 303.102488 142.33249 
L 303.240404 142.590731 
L 303.37832 146.619288 
L 303.654152 143.210509 
L 303.792068 136.031414 
L 304.205816 140.421508 
L 304.343733 137.322619 
L 304.481649 138.97536 
L 304.619565 137.116026 
L 304.757481 140.059971 
L 304.895397 138.820415 
L 305.033313 139.750082 
L 305.309145 132.20945 
L 305.447062 134.172081 
L 305.86081 146.980825 
L 305.998726 147.600603 
L 306.136642 147.13577 
L 306.412474 140.36986 
L 306.826223 125.75343 
L 307.102055 130.298468 
L 307.377887 135.050099 
L 307.653719 145.637973 
L 307.791636 144.914899 
L 308.205384 135.205044 
L 308.481216 143.210509 
L 308.619132 143.003917 
L 308.757048 138.923712 
L 308.894965 142.487435 
L 309.032881 140.886342 
L 309.308713 129.11056 
L 309.446629 128.85232 
L 309.584545 129.265505 
L 309.860377 136.806137 
L 309.998293 138.200637 
L 310.13621 134.533618 
L 310.274126 134.430321 
L 310.549958 137.167674 
L 310.687874 139.130304 
L 310.82579 138.923712 
L 310.963706 134.636914 
L 311.101622 135.721525 
L 311.377455 149.0984 
L 311.515371 148.53027 
L 311.653287 148.323677 
L 312.204951 137.8391 
L 312.6187 144.811602 
L 312.756616 140.473157 
L 312.894532 140.36986 
L 313.032448 137.529211 
L 313.170364 139.750082 
L 313.30828 139.027008 
L 313.446196 139.750082 
L 313.584113 137.529211 
L 313.722029 140.473157 
L 313.859945 139.285249 
L 313.997861 143.210509 
L 314.135777 141.247879 
L 314.549525 146.619288 
L 314.687442 145.534677 
L 314.825358 143.365454 
L 314.963274 145.276436 
L 315.10119 145.069843 
L 315.514938 137.116026 
L 315.652854 136.083063 
L 315.928687 132.054506 
L 315.928687 133.810543 
L 316.204519 145.586325 
L 316.342435 144.243473 
L 316.618267 131.744617 
L 316.894099 142.745676 
L 317.032016 148.426974 
L 317.169932 146.722584 
L 317.307848 141.402823 
L 317.445764 140.576453 
L 317.58368 136.599544 
L 317.721596 137.477563 
L 317.859512 135.773174 
L 317.997428 137.27097 
L 318.135345 135.773174 
L 318.411177 138.355582 
L 318.687009 144.656658 
L 318.962841 150.699493 
L 319.100757 152.352234 
L 319.652422 135.256692 
L 319.790338 133.397358 
L 319.928254 133.91384 
L 320.06617 136.031414 
L 320.204086 144.03688 
L 320.479919 142.590731 
L 320.617835 138.613823 
L 320.755751 143.055565 
L 320.893667 142.022601 
L 321.031583 143.520398 
L 321.169499 140.731397 
L 321.307415 142.694028 
L 321.445331 139.181952 
L 321.583248 140.886342 
L 321.721164 135.979766 
L 321.85908 139.388545 
L 321.996996 137.322619 
L 322.134912 138.562174 
L 322.410744 130.401765 
L 322.962409 141.557768 
L 323.100325 138.200637 
L 323.100325 135.411636 
L 323.238241 131.692969 
L 323.376157 132.157802 
L 323.514073 133.758895 
L 323.927822 146.670936 
L 324.203654 135.773174 
L 324.34157 136.857785 
L 324.617402 147.394011 
L 324.755318 145.844566 
L 325.031151 131.589672 
L 325.169067 129.420449 
L 325.444899 133.500654 
L 325.720731 138.820415 
L 325.858647 145.224788 
L 325.996563 146.206103 
L 326.410312 135.773174 
L 326.548228 135.721525 
L 326.961976 141.50612 
L 327.099892 140.163268 
L 327.237808 140.421508 
L 327.513641 143.313806 
L 327.651557 140.163268 
L 327.927389 128.439134 
L 328.203221 140.731397 
L 328.341137 147.290714 
L 328.479054 147.910492 
L 328.61697 146.361047 
L 328.892802 149.718178 
L 329.030718 153.02366 
L 329.168634 147.96214 
L 329.444466 134.48197 
L 329.582382 135.411636 
L 329.720299 142.590731 
L 329.858215 139.853379 
L 329.996131 140.473157 
L 330.134047 140.059971 
L 330.134047 142.952268 
L 330.271963 140.783046 
L 330.409879 141.196231 
L 330.547795 139.595138 
L 330.961544 147.548955 
L 331.237376 138.148989 
L 331.375292 139.646786 
L 331.651124 147.703899 
L 331.926957 137.787452 
L 332.064873 135.618229 
L 332.202789 135.205044 
L 332.478621 137.01273 
L 332.616537 141.402823 
L 332.754453 140.628101 
L 333.030285 135.566581 
L 333.444034 152.507179 
L 333.719866 150.544549 
L 334.133614 135.463285 
L 334.271531 136.651192 
L 334.409447 133.603951 
L 334.547363 136.341303 
L 334.685279 136.238007 
L 334.823195 137.684156 
L 334.961111 135.721525 
L 335.099027 139.027008 
L 335.374859 153.385198 
L 335.512776 151.784104 
L 335.788608 140.163268 
L 335.926524 140.008323 
L 336.202356 147.084122 
L 336.340272 146.774233 
L 336.478188 147.807196 
L 336.616105 143.933584 
L 336.754021 145.947862 
L 336.891937 145.637973 
L 337.029853 147.445659 
L 337.305685 140.008323 
L 337.443601 142.797324 
L 337.719434 153.695087 
L 337.85735 152.972012 
L 338.271098 141.609416 
L 338.409014 142.539083 
L 338.54693 140.989638 
L 338.822762 145.844566 
L 338.960679 145.534677 
L 339.098595 142.745676 
L 339.236511 143.003917 
L 339.512343 152.610475 
L 339.650259 150.544549 
L 339.926091 139.130304 
L 340.064008 137.27097 
L 340.477756 157.000569 
L 340.615672 154.986291 
L 340.753588 149.046752 
L 340.891504 150.286308 
L 341.02942 152.920364 
L 341.167337 160.770885 
L 341.305253 161.029126 
L 341.719001 147.548955 
L 341.994833 152.042345 
L 342.132749 151.990697 
L 342.408582 157.310458 
L 342.546498 162.785163 
L 342.684414 161.390663 
L 342.960246 165.574164 
L 343.098162 165.625812 
L 343.236078 162.165385 
L 343.511911 150.957734 
L 343.649827 148.065437 
L 344.063575 165.935701 
L 344.201491 164.489553 
L 344.339407 165.367572 
L 344.477323 168.466461 
L 344.477323 166.142294 
L 344.753156 158.601662 
L 345.166904 170.48074 
L 345.30482 169.292832 
L 345.442736 165.470868 
L 345.580652 167.433498 
L 345.718568 167.536794 
L 345.856485 165.160979 
L 345.994401 165.057683 
L 346.132317 164.437905 
L 346.270233 170.325795 
L 346.408149 171.462055 
L 346.683981 179.312576 
L 346.821897 181.791688 
L 346.959814 177.349946 
L 347.235646 166.503831 
L 347.373562 168.77635 
L 347.649394 180.448835 
L 348.063142 188.19606 
L 348.201059 188.557597 
L 348.476891 180.448835 
L 348.614807 179.777409 
L 348.752723 179.725761 
L 348.890639 180.552132 
L 349.028555 183.444429 
L 349.304388 193.154284 
L 349.58022 185.200467 
L 349.718136 185.252115 
L 349.993968 197.027896 
L 350.131884 194.858673 
L 350.407717 186.130133 
L 350.545633 185.975189 
L 350.821465 198.783934 
L 350.959381 198.680637 
L 351.097297 197.596026 
L 351.235213 193.412525 
L 351.511045 204.568528 
L 351.511045 212.470697 
L 351.648962 212.367401 
L 351.924794 206.841047 
L 352.06271 205.963028 
L 352.752291 228.378332 
L 353.028123 217.480569 
L 353.166039 214.898161 
L 353.441871 223.93659 
L 353.579787 231.632166 
L 353.85562 226.260757 
L 353.993536 222.025607 
L 354.269368 229.25635 
L 354.821032 241.135428 
L 354.958948 242.22004 
L 355.234781 246.300245 
L 355.510613 239.637631 
L 355.924361 251.103524 
L 356.062277 249.295838 
L 356.476026 263.963917 
L 356.613942 262.930953 
L 356.889774 257.507896 
L 357.02769 258.7991 
L 357.303523 259.005693 
L 357.441439 254.202414 
L 357.579355 254.87384 
L 357.993103 261.949638 
L 358.131019 260.193601 
L 358.268935 264.99688 
L 358.406851 263.602379 
L 358.544768 268.870492 
L 358.682684 266.443028 
L 358.682684 264.170509 
L 358.8206 259.108989 
L 358.958516 261.794694 
L 359.096432 261.743046 
L 359.372264 265.306769 
L 359.51018 271.246308 
L 359.648097 268.044122 
L 359.786013 260.141952 
L 359.923929 259.005693 
L 360.199761 270.833122 
L 360.337677 269.025437 
L 360.613509 259.418878 
L 360.751425 259.315582 
L 361.027258 264.42875 
L 361.165174 262.724361 
L 361.441006 253.221098 
L 361.578922 252.239783 
L 361.716838 255.028784 
L 361.854754 255.028784 
L 361.992671 258.489211 
L 362.130587 258.540859 
L 362.268503 262.569416 
L 362.406419 260.451841 
L 362.544335 264.170509 
L 362.682251 261.433157 
L 362.820167 265.926547 
L 362.958083 266.494677 
L 363.096 271.814437 
L 363.233916 269.49027 
L 363.647664 249.81232 
L 364.061412 260.451841 
L 364.337245 251.620005 
L 364.475161 249.657375 
L 364.613077 249.81232 
L 364.750993 247.023319 
L 364.888909 248.056282 
L 365.164741 264.222157 
L 365.302657 262.46612 
L 365.440574 262.362823 
L 366.130154 240.257409 
L 366.26807 239.792576 
L 366.405986 236.125556 
L 366.543903 237.778297 
L 366.681819 237.675001 
L 366.819735 243.821133 
L 366.957651 243.666188 
L 367.095567 246.042004 
L 367.233483 242.116743 
L 367.371399 242.633225 
L 367.509315 241.393669 
L 367.647231 242.891466 
L 368.06098 232.613481 
L 368.198896 233.181611 
L 368.336812 234.886 
L 368.612644 244.544207 
L 368.75056 243.821133 
L 369.164309 231.890407 
L 369.302225 232.510185 
L 369.440141 231.890407 
L 369.578057 233.749741 
L 369.715973 232.613481 
L 369.991806 236.383797 
L 370.129722 239.224446 
L 370.267638 235.660723 
L 370.54347 222.851978 
L 370.681386 224.556367 
L 370.957218 238.346427 
L 371.095134 240.412354 
L 371.233051 238.294779 
L 371.370967 240.877187 
L 371.508883 238.191483 
L 371.784715 223.110219 
L 371.922631 220.011329 
L 372.198463 226.054164 
L 372.33638 228.326683 
L 372.474296 225.279442 
L 372.888044 242.529929 
L 372.888044 239.585983 
L 373.163876 225.692627 
L 373.439708 216.860791 
L 373.991373 224.76296 
L 374.129289 223.626701 
L 374.267205 223.93659 
L 374.543037 234.266222 
L 374.680954 231.735462 
L 374.81887 227.138776 
L 375.094702 230.547554 
L 375.50845 221.354181 
L 375.646366 228.584924 
L 375.784283 225.89922 
L 375.922199 225.692627 
L 376.060115 226.054164 
L 376.198031 230.031073 
L 376.335947 228.636572 
L 376.473863 225.33109 
L 376.749695 230.134369 
L 376.887611 232.665129 
L 377.025528 229.82448 
L 377.163444 230.031073 
L 377.439276 223.316812 
L 377.577192 224.504719 
L 377.715108 230.39261 
L 377.853024 230.702499 
L 377.99094 230.289314 
L 378.128857 223.575052 
L 378.266773 223.884941 
L 378.404689 223.161867 
L 378.542605 227.655257 
L 378.818437 223.420108 
L 378.956353 224.091534 
L 379.232186 232.200296 
L 379.370102 229.049758 
L 379.508018 221.354181 
L 379.645934 221.044292 
L 379.78385 223.161867 
L 379.921766 227.758554 
L 380.059682 226.673942 
L 380.059682 228.016794 
L 380.197598 229.669536 
L 380.473431 223.316812 
L 380.611347 223.988238 
L 380.749263 230.134369 
L 380.887179 230.702499 
L 381.438843 223.471756 
L 381.990508 232.92337 
L 382.128424 231.425573 
L 382.404256 221.044292 
L 382.542172 221.199237 
L 382.680089 221.250885 
L 382.818005 222.490441 
L 382.955921 219.959681 
L 383.369669 224.556367 
L 383.507585 220.321218 
L 383.369669 216.344309 
L 383.231753 217.015736 
L 382.955921 221.457478 
L 382.404256 211.334437 
L 381.990508 215.827828 
L 381.852592 213.400364 
L 381.57676 213.090475 
L 381.438843 212.573993 
L 381.300927 208.700381 
L 381.163011 208.080603 
L 380.887179 203.94875 
L 380.749263 204.930065 
L 380.335514 216.860791 
L 380.197598 216.912439 
L 379.78385 205.91138 
L 379.370102 195.271859 
L 379.232186 196.253174 
L 379.094269 193.877358 
L 378.680521 204.052046 
L 378.404689 198.732285 
L 378.266773 198.267452 
L 378.128857 196.666359 
L 377.99094 192.276265 
L 377.715108 190.985061 
L 377.577192 192.586154 
L 377.439276 190.210338 
L 377.30136 191.86308 
L 377.025528 200.230082 
L 376.887611 199.713601 
L 376.749695 197.441081 
L 376.473863 190.055394 
L 376.198031 182.514762 
L 376.060115 180.862021 
L 375.922199 180.707076 
L 375.50845 192.482858 
L 375.232618 187.782875 
L 375.094702 188.712542 
L 374.956786 191.29495 
L 374.81887 191.759783 
L 374.543037 186.285078 
L 374.129289 177.763131 
L 373.991373 179.105983 
L 373.853457 186.23343 
L 373.577625 182.824651 
L 373.439708 181.688391 
L 373.163876 195.581747 
L 373.02596 191.29495 
L 372.888044 178.744446 
L 372.612212 185.6653 
L 372.474296 186.078485 
L 372.198463 182.359818 
L 371.922631 187.163097 
L 371.784715 190.003746 
L 371.508883 180.03565 
L 371.370967 179.260928 
L 371.095134 188.19606 
L 370.957218 187.62793 
L 370.819302 184.890578 
L 370.681386 179.829057 
L 370.405554 181.533447 
L 370.267638 183.754318 
L 369.991806 177.401594 
L 369.853889 176.523575 
L 369.440141 186.594967 
L 369.026393 175.129075 
L 368.75056 178.692798 
L 368.474728 178.331261 
L 368.198896 172.804907 
L 368.06098 173.682926 
L 367.923064 179.622465 
L 367.785148 177.608186 
L 367.509315 168.982943 
L 367.095567 176.885112 
L 366.681819 163.869775 
L 366.405986 173.424685 
L 366.26807 173.321389 
L 365.992238 161.648904 
L 365.716406 169.396128 
L 365.716406 176.730168 
L 365.440574 173.373037 
L 365.164741 163.508238 
L 364.888909 160.409348 
L 364.475161 165.625812 
L 364.199328 162.32033 
L 364.061412 161.235718 
L 363.923496 164.179664 
L 363.78558 163.973071 
L 363.647664 165.006034 
L 363.371832 162.991756 
L 362.958083 155.347828 
L 362.544335 160.306052 
L 362.268503 152.868716 
L 362.130587 150.544549 
L 361.992671 153.126957 
L 361.578922 143.003917 
L 361.441006 145.224788 
L 360.751425 134.017136 
L 360.613509 135.514933 
L 360.337677 134.688562 
L 360.199761 131.951209 
L 360.061845 132.054506 
L 359.786013 137.27097 
L 359.648097 134.068784 
L 359.372264 121.776521 
L 359.234348 122.964429 
L 358.8206 129.67869 
L 358.682684 126.734745 
L 358.682684 120.795206 
L 358.544768 116.45676 
L 358.406851 121.311688 
L 358.268935 121.208391 
L 358.131019 121.51828 
L 357.993103 118.16115 
L 357.855187 120.433669 
L 357.717271 118.574335 
L 357.303523 96.004087 
L 357.165606 95.64255 
L 356.889774 102.666701 
L 356.751858 101.737034 
L 356.476026 91.820586 
L 356.33811 95.229365 
L 356.062277 92.54366 
L 355.924361 88.256863 
L 355.648529 92.646957 
L 355.510613 89.031585 
L 355.234781 73.382192 
L 354.958948 72.142636 
L 354.683116 78.49536 
L 354.407284 85.829399 
L 354.269368 84.95138 
L 353.441871 64.498707 
L 353.166039 61.864651 
L 353.028123 65.893208 
L 352.890207 62.794318 
L 352.752291 62.845966 
L 352.476458 56.235001 
L 352.338542 55.305334 
L 351.924794 65.686615 
L 351.786878 60.521799 
L 351.648962 60.263558 
L 351.511045 60.883336 
L 351.511045 61.503114 
L 351.373129 60.470151 
L 351.235213 61.03828 
L 350.959381 68.578912 
L 350.545633 52.981167 
L 350.407717 58.559168 
L 349.993968 53.446 
L 349.856052 60.521799 
L 349.718136 59.592132 
L 349.442304 62.432781 
L 349.304388 68.733857 
L 349.166471 69.870116 
L 348.890639 58.559168 
L 348.752723 59.385539 
L 348.476891 69.353635 
L 348.338975 65.015189 
L 348.201059 64.7053 
L 347.925226 68.217375 
L 347.649394 57.061372 
L 347.511478 59.437187 
L 347.373562 67.752542 
L 347.235646 68.37232 
L 347.09773 67.23606 
L 346.959814 67.081116 
L 346.821897 65.583319 
L 346.132317 81.181064 
L 345.994401 81.129416 
L 345.718568 75.086581 
L 345.442736 77.100859 
L 345.028988 70.128357 
L 344.753156 75.9646 
L 344.61524 74.156914 
L 344.477323 65.325078 
L 344.063575 79.88986 
L 343.787743 84.279954 
L 343.511911 79.373379 
L 343.373994 83.401935 
L 343.236078 83.763473 
L 343.098162 82.730509 
L 342.960246 77.100859 
L 342.82233 76.53273 
L 342.546498 76.894267 
L 342.408582 78.082174 
L 342.270665 76.222841 
L 342.132749 81.232712 
L 341.994833 78.908545 
L 341.581085 88.153566 
L 341.167337 79.683268 
L 341.02942 85.674455 
L 340.891504 85.157973 
L 340.753588 88.05027 
L 340.615672 84.228306 
L 340.477756 88.205215 
L 340.33984 85.51951 
L 340.064008 88.411807 
L 339.788175 102.563404 
L 339.374427 91.872234 
L 339.236511 94.351346 
L 339.098595 93.834864 
L 338.960679 96.882106 
L 338.54693 81.904139 
L 338.133182 99.722755 
L 337.85735 93.370031 
L 337.443601 103.751312 
L 337.305685 101.995274 
L 337.305685 99.412866 
L 336.891937 101.943626 
L 336.754021 97.60518 
L 336.616105 97.450236 
L 336.478188 98.276607 
L 336.06444 108.451295 
L 335.788608 101.995274 
L 335.650692 96.623865 
L 335.374859 106.953498 
L 335.236943 109.484258 
L 335.099027 107.056794 
L 334.823195 97.553532 
L 334.685279 96.77881 
L 334.409447 101.375496 
L 334.133614 92.801901 
L 333.995698 92.182123 
L 333.719866 100.70407 
L 333.58195 101.995274 
L 333.444034 98.070014 
L 333.306118 98.018366 
L 333.030285 104.216145 
L 332.892369 101.84033 
L 332.754453 102.924941 
L 332.478621 111.188648 
L 332.202789 105.817239 
L 332.064873 106.591961 
L 331.926957 108.606239 
L 331.513208 96.623865 
L 331.375292 97.450236 
L 330.823628 110.672166 
L 330.547795 100.445829 
L 330.409879 101.323848 
L 330.271963 99.722755 
L 330.134047 100.910663 
L 329.996131 104.216145 
L 329.720299 98.74144 
L 329.582382 95.022772 
L 329.444466 101.84033 
L 329.30655 102.356812 
L 329.168634 109.43261 
L 329.030718 108.657888 
L 328.892802 109.690851 
L 328.754886 100.187589 
L 328.61697 100.70407 
L 328.479054 102.511756 
L 328.341137 107.160091 
L 328.203221 106.230424 
L 328.065305 101.685385 
L 327.927389 101.375496 
L 327.789473 101.84033 
L 327.375725 114.752371 
L 326.961976 100.13594 
L 326.686144 107.934813 
L 326.548228 107.779869 
L 326.410312 105.352405 
L 326.272396 99.8777 
L 325.996563 104.474386 
L 325.858647 111.033703 
L 325.582815 106.798554 
L 325.444899 106.746905 
L 325.169067 110.362277 
L 324.893234 104.887572 
L 324.755318 104.216145 
L 324.617402 105.404053 
L 324.34157 109.949092 
L 324.065738 102.666701 
L 323.927822 104.164497 
L 323.651989 114.49413 
L 323.376157 110.258981 
L 323.100325 102.356812 
L 323.100325 106.075479 
L 322.824493 117.59302 
L 322.54866 103.648016 
L 322.410744 103.906256 
L 322.272828 105.558998 
L 322.134912 108.916128 
L 321.996996 107.831517 
L 321.85908 108.29635 
L 321.721164 106.90185 
L 321.445331 114.287537 
L 321.307415 113.667759 
L 321.169499 109.380962 
L 321.031583 101.168904 
L 320.755751 107.418332 
L 320.617835 115.113908 
L 320.204086 106.850202 
L 319.790338 117.696316 
L 319.652422 115.682038 
L 319.37659 107.46998 
L 319.238674 109.277666 
L 318.962841 118.419391 
L 318.824925 116.715001 
L 318.549093 109.794147 
L 318.411177 109.329314 
L 318.273261 115.010612 
L 317.859512 105.713942 
L 317.58368 116.198519 
L 317.445764 113.564463 
L 317.169932 112.479852 
L 317.032016 113.151278 
L 316.894099 111.188648 
L 316.756183 105.713942 
L 316.480351 112.324907 
L 316.342435 117.128186 
L 316.066603 106.953498 
L 315.928687 107.573276 
L 315.928687 114.442482 
L 315.790771 117.954557 
L 315.652854 115.733686 
L 315.514938 110.00074 
L 315.377022 112.221611 
L 315.239106 111.136999 
L 315.10119 113.512815 
L 314.825358 108.709536 
L 314.687442 109.380962 
L 314.549525 108.916128 
L 314.411609 112.738092 
L 314.273693 108.967777 
L 314.135777 109.484258 
L 313.997861 108.916128 
L 313.859945 114.958964 
L 313.446196 106.488665 
L 313.170364 115.991927 
L 313.032448 117.076538 
L 312.756616 108.29635 
L 312.6187 108.141406 
L 312.480784 111.291944 
L 312.342868 110.878759 
L 311.929119 120.175428 
L 311.791203 118.471039 
L 311.515371 123.945744 
L 311.377455 123.274318 
L 310.963706 108.86448 
L 310.82579 111.136999 
L 310.549958 107.573276 
L 310.412042 104.474386 
L 310.13621 109.277666 
L 309.998293 114.804019 
L 309.860377 114.545778 
L 309.308713 124.823763 
L 309.032881 122.706188 
L 308.894965 123.894096 
L 308.757048 121.569929 
L 308.619132 115.475445 
L 308.481216 117.438075 
L 308.3433 115.940279 
L 308.205384 119.194113 
L 307.791636 106.798554 
L 307.653719 111.446888 
L 307.515803 111.653481 
L 307.377887 116.921594 
L 307.239971 116.353464 
L 307.102055 123.016077 
L 306.964139 122.65454 
L 306.688307 126.476504 
L 306.550391 123.067725 
L 306.274558 107.624924 
L 306.136642 108.089758 
L 305.722894 118.780928 
L 305.584978 117.696316 
L 305.309145 112.789741 
L 305.171229 112.841389 
L 305.033313 116.560057 
L 304.895397 116.043575 
L 304.757481 117.128186 
L 304.619565 113.512815 
L 304.481649 118.884224 
L 304.343733 118.264446 
L 304.205816 118.316094 
L 303.929984 105.868887 
L 303.792068 104.990868 
L 303.654152 111.653481 
L 303.516236 111.601833 
L 303.37832 112.738092 
L 303.240404 109.174369 
L 303.102488 108.916128 
L 302.964571 111.446888 
L 302.688739 120.588613 
L 302.550823 118.780928 
L 302.412907 113.306222 
L 301.999159 119.968835 
L 301.861242 120.12378 
L 301.723326 120.485317 
L 301.723326 119.607298 
L 301.447494 111.601833 
L 301.309578 112.893037 
L 301.033746 117.747964 
L 300.89583 115.940279 
L 300.757913 116.146871 
L 300.482081 112.324907 
L 300.344165 110.723814 
L 300.068333 115.578742 
L 299.930417 114.545778 
L 299.654585 110.620518 
L 299.516668 113.512815 
L 299.378752 111.136999 
L 299.240836 112.738092 
L 299.10292 112.634796 
L 298.965004 118.780928 
L 298.827088 119.762243 
L 298.689172 124.04904 
L 298.413339 117.128186 
L 298.275423 112.686444 
L 298.137507 117.541372 
L 297.999591 117.02489 
L 297.861675 117.02489 
L 297.723759 117.747964 
L 297.585843 124.513874 
L 297.447927 123.997392 
L 297.31001 122.034762 
L 297.172094 117.386427 
L 297.034178 120.898502 
L 296.62043 111.550185 
L 296.206682 119.968835 
L 296.068765 115.88863 
L 295.930849 115.682038 
L 295.655017 121.828169 
L 295.517101 120.020484 
L 295.379185 120.12378 
L 295.241269 119.865539 
L 295.103353 123.171022 
L 294.82752 118.522687 
L 294.689604 111.860074 
L 294.551688 110.672166 
L 294.551688 112.5315 
L 294.275856 123.687503 
L 294.13794 124.152337 
L 293.862108 121.26004 
L 293.724191 122.551244 
L 293.586275 120.382021 
L 293.448359 120.898502 
L 293.172527 116.043575 
L 292.896695 108.141406 
L 292.758779 106.953498 
L 292.620862 110.104036 
L 292.482946 110.672166 
L 292.069198 118.212798 
L 291.793366 127.871005 
L 291.65545 125.288596 
L 291.379617 115.682038 
L 291.241701 115.010612 
L 290.965869 115.165556 
L 290.827953 114.958964 
L 290.690037 117.541372 
L 290.552121 115.63039 
L 290.138372 126.734745 
L 289.86254 112.376555 
L 289.586708 117.954557 
L 289.448792 117.438075 
L 289.310876 112.893037 
L 289.172959 112.583148 
L 288.759211 119.762243 
L 288.621295 119.400706 
L 288.483379 125.495189 
L 288.207547 124.61717 
L 288.06963 120.795206 
L 287.931714 120.227076 
L 287.793798 123.480911 
L 287.517966 118.72928 
L 287.517966 115.010612 
L 287.104218 125.546837 
L 286.966302 122.499595 
L 286.828385 122.189707 
L 286.552553 123.274318 
L 286.276721 117.59302 
L 286.138805 119.762243 
L 285.862973 125.391893 
L 285.725056 124.823763 
L 285.58714 120.278724 
L 285.449224 123.894096 
L 285.311308 122.034762 
L 285.173392 125.598485 
L 285.035476 123.119373 
L 284.759644 128.490783 
L 284.621727 126.063319 
L 284.483811 119.194113 
L 284.345895 119.349057 
L 284.207979 121.569929 
L 284.070063 127.71606 
L 283.932147 122.809484 
L 283.794231 121.879818 
L 283.656315 115.940279 
L 283.518399 115.165556 
L 283.380482 112.686444 
L 282.966734 131.538024 
L 282.552986 120.433669 
L 282.41507 122.08641 
L 282.277153 129.162209 
L 282.139237 127.199578 
L 281.725489 109.226017 
L 281.587573 109.535906 
L 281.173825 122.396299 
L 280.897992 120.898502 
L 280.760076 117.283131 
L 280.62216 117.02489 
L 280.484244 115.423797 
L 280.346328 118.316094 
L 280.346328 120.743558 
L 280.208412 121.51828 
L 279.656747 112.583148 
L 279.518831 114.958964 
L 279.242999 125.856726 
L 278.82925 115.991927 
L 278.691334 115.423797 
L 278.553418 111.756777 
L 278.415502 111.808426 
L 278.277586 109.690851 
L 278.001754 124.61717 
L 277.863838 125.495189 
L 277.588005 115.991927 
L 277.450089 121.363336 
L 277.312173 121.983114 
L 277.174257 124.875411 
L 276.898425 121.156743 
L 276.760509 121.105095 
L 276.484676 114.804019 
L 276.34676 115.63039 
L 276.070928 126.786393 
L 275.933012 126.683097 
L 275.795096 126.063319 
L 275.519264 118.057853 
L 275.519264 118.057853 
" clip-path="url(#p14e0d064da)" style="fill: none; stroke: #1f77b4; stroke-width: 1.5; stroke-linecap: square"/>
   </g>
   <g id="patch_3">
    <path d="M 42.620313 283.910437 
L 42.620313 17.798437 
" style="fill: none; stroke: #000000; stroke-width: 0.8; stroke-linejoin: miter; stroke-linecap: square"/>
   </g>
   <g id="patch_4">
    <path d="M 399.740313 283.910437 
L 399.740313 17.798437 
" style="fill: none; stroke: #000000; stroke-width: 0.8; stroke-linejoin: miter; stroke-linecap: square"/>
   </g>
   <g id="patch_5">
    <path d="M 42.620313 283.910437 
L 399.740313 283.910437 
" style="fill: none; stroke: #000000; stroke-width: 0.8; stroke-linejoin: miter; stroke-linecap: square"/>
   </g>
   <g id="patch_6">
    <path d="M 42.620313 17.798437 
L 399.740313 17.798437 
" style="fill: none; stroke: #000000; stroke-width: 0.8; stroke-linejoin: miter; stroke-linecap: square"/>
   </g>
  </g>
 </g>
 <defs>
  <clipPath id="p14e0d064da">
   <rect x="42.620313" y="17.798438" width="357.12" height="266.112"/>
  </clipPath>
 </defs>
</svg>