<?xml version="1.0" encoding="utf-8" standalone="no"?>
<!DOCTYPE svg PUBLIC "-//W3C//DTD SVG 1.1//EN"
  "http://www.w3.org/Graphics/SVG/1.1/DTD/svg11.dtd">
<svg xmlns:xlink="http://www.w3.org/1999/xlink" width="400.523437pt" height="248.518125pt" viewBox="0 0 400.523437 248.518125" xmlns="http://www.w3.org/2000/svg" version="1.1">
 <metadata>
  <rdf:RDF xmlns:dc="http://purl.org/dc/elements/1.1/" xmlns:cc="http://creativecommons.org/ns#" xmlns:rdf="http://www.w3.org/1999/02/22-rdf-syntax-ns#">
   <cc:Work>
    <dc:type rdf:resource="http://purl.org/dc/dcmitype/StillImage"/>
    <dc:date>2022-06-01T12:58:45.907223</dc:date>
    <dc:format>image/svg+xml</dc:format>
    <dc:creator>
     <cc:Agent>
      <dc:title>Matplotlib v3.5.2, https://matplotlib.org/</dc:title>
     </cc:Agent>
    </dc:creator>
   </cc:Work>
  </rdf:RDF>
 </metadata>
 <defs>
  <style type="text/css">*{stroke-linejoin: round; stroke-linecap: butt}</style>
 </defs>
 <g id="figure_1">
  <g id="patch_1">
   <path d="M 0 248.518125 
L 400.523437 248.518125 
L 400.523437 0 
L 0 0 
L 0 248.518125 
z
" style="fill: none"/>
  </g>
  <g id="axes_1">
   <g id="patch_2">
    <path d="M 58.523438 224.64 
L 393.323438 224.64 
L 393.323438 7.2 
L 58.523438 7.2 
z
" style="fill: #ffffff"/>
   </g>
   <g id="matplotlib.axis_1">
    <g id="xtick_1">
     <g id="line2d_1">
      <defs>
       <path id="m7617f2dd2c" d="M 0 0 
L 0 3.5 
" style="stroke: #000000; stroke-width: 0.8"/>
      </defs>
      <g>
       <use xlink:href="#m7617f2dd2c" x="73.589133" y="224.64" style="stroke: #000000; stroke-width: 0.8"/>
      </g>
     </g>
     <g id="text_1">
      <!-- 0 -->
      <g transform="translate(70.407883 239.238437)scale(0.1 -0.1)">
       <defs>
        <path id="DejaVuSans-30" d="M 2034 4250 
Q 1547 4250 1301 3770 
Q 1056 3291 1056 2328 
Q 1056 1369 1301 889 
Q 1547 409 2034 409 
Q 2525 409 2770 889 
Q 3016 1369 3016 2328 
Q 3016 3291 2770 3770 
Q 2525 4250 2034 4250 
z
M 2034 4750 
Q 2819 4750 3233 4129 
Q 3647 3509 3647 2328 
Q 3647 1150 3233 529 
Q 2819 -91 2034 -91 
Q 1250 -91 836 529 
Q 422 1150 422 2328 
Q 422 3509 836 4129 
Q 1250 4750 2034 4750 
z
" transform="scale(0.015625)"/>
       </defs>
       <use xlink:href="#DejaVuSans-30"/>
      </g>
     </g>
    </g>
    <g id="xtick_2">
     <g id="line2d_2">
      <g>
       <use xlink:href="#m7617f2dd2c" x="122.078648" y="224.64" style="stroke: #000000; stroke-width: 0.8"/>
      </g>
     </g>
     <g id="text_2">
      <!-- 1 -->
      <g transform="translate(118.897398 239.238437)scale(0.1 -0.1)">
       <defs>
        <path id="DejaVuSans-31" d="M 794 531 
L 1825 531 
L 1825 4091 
L 703 3866 
L 703 4441 
L 1819 4666 
L 2450 4666 
L 2450 531 
L 3481 531 
L 3481 0 
L 794 0 
L 794 531 
z
" transform="scale(0.015625)"/>
       </defs>
       <use xlink:href="#DejaVuSans-31"/>
      </g>
     </g>
    </g>
    <g id="xtick_3">
     <g id="line2d_3">
      <g>
       <use xlink:href="#m7617f2dd2c" x="170.568163" y="224.64" style="stroke: #000000; stroke-width: 0.8"/>
      </g>
     </g>
     <g id="text_3">
      <!-- 2 -->
      <g transform="translate(167.386913 239.238437)scale(0.1 -0.1)">
       <defs>
        <path id="DejaVuSans-32" d="M 1228 531 
L 3431 531 
L 3431 0 
L 469 0 
L 469 531 
Q 828 903 1448 1529 
Q 2069 2156 2228 2338 
Q 2531 2678 2651 2914 
Q 2772 3150 2772 3378 
Q 2772 3750 2511 3984 
Q 2250 4219 1831 4219 
Q 1534 4219 1204 4116 
Q 875 4013 500 3803 
L 500 4441 
Q 881 4594 1212 4672 
Q 1544 4750 1819 4750 
Q 2544 4750 2975 4387 
Q 3406 4025 3406 3419 
Q 3406 3131 3298 2873 
Q 3191 2616 2906 2266 
Q 2828 2175 2409 1742 
Q 1991 1309 1228 531 
z
" transform="scale(0.015625)"/>
       </defs>
       <use xlink:href="#DejaVuSans-32"/>
      </g>
     </g>
    </g>
    <g id="xtick_4">
     <g id="line2d_4">
      <g>
       <use xlink:href="#m7617f2dd2c" x="219.057678" y="224.64" style="stroke: #000000; stroke-width: 0.8"/>
      </g>
     </g>
     <g id="text_4">
      <!-- 3 -->
      <g transform="translate(215.876428 239.238437)scale(0.1 -0.1)">
       <defs>
        <path id="DejaVuSans-33" d="M 2597 2516 
Q 3050 2419 3304 2112 
Q 3559 1806 3559 1356 
Q 3559 666 3084 287 
Q 2609 -91 1734 -91 
Q 1441 -91 1130 -33 
Q 819 25 488 141 
L 488 750 
Q 750 597 1062 519 
Q 1375 441 1716 441 
Q 2309 441 2620 675 
Q 2931 909 2931 1356 
Q 2931 1769 2642 2001 
Q 2353 2234 1838 2234 
L 1294 2234 
L 1294 2753 
L 1863 2753 
Q 2328 2753 2575 2939 
Q 2822 3125 2822 3475 
Q 2822 3834 2567 4026 
Q 2313 4219 1838 4219 
Q 1578 4219 1281 4162 
Q 984 4106 628 3988 
L 628 4550 
Q 988 4650 1302 4700 
Q 1616 4750 1894 4750 
Q 2613 4750 3031 4423 
Q 3450 4097 3450 3541 
Q 3450 3153 3228 2886 
Q 3006 2619 2597 2516 
z
" transform="scale(0.015625)"/>
       </defs>
       <use xlink:href="#DejaVuSans-33"/>
      </g>
     </g>
    </g>
    <g id="xtick_5">
     <g id="line2d_5">
      <g>
       <use xlink:href="#m7617f2dd2c" x="267.547194" y="224.64" style="stroke: #000000; stroke-width: 0.8"/>
      </g>
     </g>
     <g id="text_5">
      <!-- 4 -->
      <g transform="translate(264.365944 239.238437)scale(0.1 -0.1)">
       <defs>
        <path id="DejaVuSans-34" d="M 2419 4116 
L 825 1625 
L 2419 1625 
L 2419 4116 
z
M 2253 4666 
L 3047 4666 
L 3047 1625 
L 3713 1625 
L 3713 1100 
L 3047 1100 
L 3047 0 
L 2419 0 
L 2419 1100 
L 313 1100 
L 313 1709 
L 2253 4666 
z
" transform="scale(0.015625)"/>
       </defs>
       <use xlink:href="#DejaVuSans-34"/>
      </g>
     </g>
    </g>
    <g id="xtick_6">
     <g id="line2d_6">
      <g>
       <use xlink:href="#m7617f2dd2c" x="316.036709" y="224.64" style="stroke: #000000; stroke-width: 0.8"/>
      </g>
     </g>
     <g id="text_6">
      <!-- 5 -->
      <g transform="translate(312.855459 239.238437)scale(0.1 -0.1)">
       <defs>
        <path id="DejaVuSans-35" d="M 691 4666 
L 3169 4666 
L 3169 4134 
L 1269 4134 
L 1269 2991 
Q 1406 3038 1543 3061 
Q 1681 3084 1819 3084 
Q 2600 3084 3056 2656 
Q 3513 2228 3513 1497 
Q 3513 744 3044 326 
Q 2575 -91 1722 -91 
Q 1428 -91 1123 -41 
Q 819 9 494 109 
L 494 744 
Q 775 591 1075 516 
Q 1375 441 1709 441 
Q 2250 441 2565 725 
Q 2881 1009 2881 1497 
Q 2881 1984 2565 2268 
Q 2250 2553 1709 2553 
Q 1456 2553 1204 2497 
Q 953 2441 691 2322 
L 691 4666 
z
" transform="scale(0.015625)"/>
       </defs>
       <use xlink:href="#DejaVuSans-35"/>
      </g>
     </g>
    </g>
    <g id="xtick_7">
     <g id="line2d_7">
      <g>
       <use xlink:href="#m7617f2dd2c" x="364.526224" y="224.64" style="stroke: #000000; stroke-width: 0.8"/>
      </g>
     </g>
     <g id="text_7">
      <!-- 6 -->
      <g transform="translate(361.344974 239.238437)scale(0.1 -0.1)">
       <defs>
        <path id="DejaVuSans-36" d="M 2113 2584 
Q 1688 2584 1439 2293 
Q 1191 2003 1191 1497 
Q 1191 994 1439 701 
Q 1688 409 2113 409 
Q 2538 409 2786 701 
Q 3034 994 3034 1497 
Q 3034 2003 2786 2293 
Q 2538 2584 2113 2584 
z
M 3366 4563 
L 3366 3988 
Q 3128 4100 2886 4159 
Q 2644 4219 2406 4219 
Q 1781 4219 1451 3797 
Q 1122 3375 1075 2522 
Q 1259 2794 1537 2939 
Q 1816 3084 2150 3084 
Q 2853 3084 3261 2657 
Q 3669 2231 3669 1497 
Q 3669 778 3244 343 
Q 2819 -91 2113 -91 
Q 1303 -91 875 529 
Q 447 1150 447 2328 
Q 447 3434 972 4092 
Q 1497 4750 2381 4750 
Q 2619 4750 2861 4703 
Q 3103 4656 3366 4563 
z
" transform="scale(0.015625)"/>
       </defs>
       <use xlink:href="#DejaVuSans-36"/>
      </g>
     </g>
    </g>
   </g>
   <g id="matplotlib.axis_2">
    <g id="ytick_1">
     <g id="line2d_8">
      <defs>
       <path id="mcc53c17614" d="M 0 0 
L -3.5 0 
" style="stroke: #000000; stroke-width: 0.8"/>
      </defs>
      <g>
       <use xlink:href="#mcc53c17614" x="58.523438" y="198.437399" style="stroke: #000000; stroke-width: 0.8"/>
      </g>
     </g>
     <g id="text_8">
      <!-- −0.06 -->
      <g transform="translate(20.878125 202.236618)scale(0.1 -0.1)">
       <defs>
        <path id="DejaVuSans-2212" d="M 678 2272 
L 4684 2272 
L 4684 1741 
L 678 1741 
L 678 2272 
z
" transform="scale(0.015625)"/>
        <path id="DejaVuSans-2e" d="M 684 794 
L 1344 794 
L 1344 0 
L 684 0 
L 684 794 
z
" transform="scale(0.015625)"/>
       </defs>
       <use xlink:href="#DejaVuSans-2212"/>
       <use xlink:href="#DejaVuSans-30" x="83.789062"/>
       <use xlink:href="#DejaVuSans-2e" x="147.412109"/>
       <use xlink:href="#DejaVuSans-30" x="179.199219"/>
       <use xlink:href="#DejaVuSans-36" x="242.822266"/>
      </g>
     </g>
    </g>
    <g id="ytick_2">
     <g id="line2d_9">
      <g>
       <use xlink:href="#mcc53c17614" x="58.523438" y="170.827081" style="stroke: #000000; stroke-width: 0.8"/>
      </g>
     </g>
     <g id="text_9">
      <!-- −0.04 -->
      <g transform="translate(20.878125 174.6263)scale(0.1 -0.1)">
       <use xlink:href="#DejaVuSans-2212"/>
       <use xlink:href="#DejaVuSans-30" x="83.789062"/>
       <use xlink:href="#DejaVuSans-2e" x="147.412109"/>
       <use xlink:href="#DejaVuSans-30" x="179.199219"/>
       <use xlink:href="#DejaVuSans-34" x="242.822266"/>
      </g>
     </g>
    </g>
    <g id="ytick_3">
     <g id="line2d_10">
      <g>
       <use xlink:href="#mcc53c17614" x="58.523438" y="143.216764" style="stroke: #000000; stroke-width: 0.8"/>
      </g>
     </g>
     <g id="text_10">
      <!-- −0.02 -->
      <g transform="translate(20.878125 147.015983)scale(0.1 -0.1)">
       <use xlink:href="#DejaVuSans-2212"/>
       <use xlink:href="#DejaVuSans-30" x="83.789062"/>
       <use xlink:href="#DejaVuSans-2e" x="147.412109"/>
       <use xlink:href="#DejaVuSans-30" x="179.199219"/>
       <use xlink:href="#DejaVuSans-32" x="242.822266"/>
      </g>
     </g>
    </g>
    <g id="ytick_4">
     <g id="line2d_11">
      <g>
       <use xlink:href="#mcc53c17614" x="58.523438" y="115.606446" style="stroke: #000000; stroke-width: 0.8"/>
      </g>
     </g>
     <g id="text_11">
      <!-- 0.00 -->
      <g transform="translate(29.257813 119.405665)scale(0.1 -0.1)">
       <use xlink:href="#DejaVuSans-30"/>
       <use xlink:href="#DejaVuSans-2e" x="63.623047"/>
       <use xlink:href="#DejaVuSans-30" x="95.410156"/>
       <use xlink:href="#DejaVuSans-30" x="159.033203"/>
      </g>
     </g>
    </g>
    <g id="ytick_5">
     <g id="line2d_12">
      <g>
       <use xlink:href="#mcc53c17614" x="58.523438" y="87.996129" style="stroke: #000000; stroke-width: 0.8"/>
      </g>
     </g>
     <g id="text_12">
      <!-- 0.02 -->
      <g transform="translate(29.257813 91.795348)scale(0.1 -0.1)">
       <use xlink:href="#DejaVuSans-30"/>
       <use xlink:href="#DejaVuSans-2e" x="63.623047"/>
       <use xlink:href="#DejaVuSans-30" x="95.410156"/>
       <use xlink:href="#DejaVuSans-32" x="159.033203"/>
      </g>
     </g>
    </g>
    <g id="ytick_6">
     <g id="line2d_13">
      <g>
       <use xlink:href="#mcc53c17614" x="58.523438" y="60.385811" style="stroke: #000000; stroke-width: 0.8"/>
      </g>
     </g>
     <g id="text_13">
      <!-- 0.04 -->
      <g transform="translate(29.257813 64.18503)scale(0.1 -0.1)">
       <use xlink:href="#DejaVuSans-30"/>
       <use xlink:href="#DejaVuSans-2e" x="63.623047"/>
       <use xlink:href="#DejaVuSans-30" x="95.410156"/>
       <use xlink:href="#DejaVuSans-34" x="159.033203"/>
      </g>
     </g>
    </g>
    <g id="ytick_7">
     <g id="line2d_14">
      <g>
       <use xlink:href="#mcc53c17614" x="58.523438" y="32.775494" style="stroke: #000000; stroke-width: 0.8"/>
      </g>
     </g>
     <g id="text_14">
      <!-- 0.06 -->
      <g transform="translate(29.257813 36.574713)scale(0.1 -0.1)">
       <use xlink:href="#DejaVuSans-30"/>
       <use xlink:href="#DejaVuSans-2e" x="63.623047"/>
       <use xlink:href="#DejaVuSans-30" x="95.410156"/>
       <use xlink:href="#DejaVuSans-36" x="159.033203"/>
      </g>
     </g>
    </g>
    <g id="text_15">
     <!-- Slope, dx/dy -->
     <g transform="translate(14.798438 146.923125)rotate(-90)scale(0.1 -0.1)">
      <defs>
       <path id="DejaVuSans-53" d="M 3425 4513 
L 3425 3897 
Q 3066 4069 2747 4153 
Q 2428 4238 2131 4238 
Q 1616 4238 1336 4038 
Q 1056 3838 1056 3469 
Q 1056 3159 1242 3001 
Q 1428 2844 1947 2747 
L 2328 2669 
Q 3034 2534 3370 2195 
Q 3706 1856 3706 1288 
Q 3706 609 3251 259 
Q 2797 -91 1919 -91 
Q 1588 -91 1214 -16 
Q 841 59 441 206 
L 441 856 
Q 825 641 1194 531 
Q 1563 422 1919 422 
Q 2459 422 2753 634 
Q 3047 847 3047 1241 
Q 3047 1584 2836 1778 
Q 2625 1972 2144 2069 
L 1759 2144 
Q 1053 2284 737 2584 
Q 422 2884 422 3419 
Q 422 4038 858 4394 
Q 1294 4750 2059 4750 
Q 2388 4750 2728 4690 
Q 3069 4631 3425 4513 
z
" transform="scale(0.015625)"/>
       <path id="DejaVuSans-6c" d="M 603 4863 
L 1178 4863 
L 1178 0 
L 603 0 
L 603 4863 
z
" transform="scale(0.015625)"/>
       <path id="DejaVuSans-6f" d="M 1959 3097 
Q 1497 3097 1228 2736 
Q 959 2375 959 1747 
Q 959 1119 1226 758 
Q 1494 397 1959 397 
Q 2419 397 2687 759 
Q 2956 1122 2956 1747 
Q 2956 2369 2687 2733 
Q 2419 3097 1959 3097 
z
M 1959 3584 
Q 2709 3584 3137 3096 
Q 3566 2609 3566 1747 
Q 3566 888 3137 398 
Q 2709 -91 1959 -91 
Q 1206 -91 779 398 
Q 353 888 353 1747 
Q 353 2609 779 3096 
Q 1206 3584 1959 3584 
z
" transform="scale(0.015625)"/>
       <path id="DejaVuSans-70" d="M 1159 525 
L 1159 -1331 
L 581 -1331 
L 581 3500 
L 1159 3500 
L 1159 2969 
Q 1341 3281 1617 3432 
Q 1894 3584 2278 3584 
Q 2916 3584 3314 3078 
Q 3713 2572 3713 1747 
Q 3713 922 3314 415 
Q 2916 -91 2278 -91 
Q 1894 -91 1617 61 
Q 1341 213 1159 525 
z
M 3116 1747 
Q 3116 2381 2855 2742 
Q 2594 3103 2138 3103 
Q 1681 3103 1420 2742 
Q 1159 2381 1159 1747 
Q 1159 1113 1420 752 
Q 1681 391 2138 391 
Q 2594 391 2855 752 
Q 3116 1113 3116 1747 
z
" transform="scale(0.015625)"/>
       <path id="DejaVuSans-65" d="M 3597 1894 
L 3597 1613 
L 953 1613 
Q 991 1019 1311 708 
Q 1631 397 2203 397 
Q 2534 397 2845 478 
Q 3156 559 3463 722 
L 3463 178 
Q 3153 47 2828 -22 
Q 2503 -91 2169 -91 
Q 1331 -91 842 396 
Q 353 884 353 1716 
Q 353 2575 817 3079 
Q 1281 3584 2069 3584 
Q 2775 3584 3186 3129 
Q 3597 2675 3597 1894 
z
M 3022 2063 
Q 3016 2534 2758 2815 
Q 2500 3097 2075 3097 
Q 1594 3097 1305 2825 
Q 1016 2553 972 2059 
L 3022 2063 
z
" transform="scale(0.015625)"/>
       <path id="DejaVuSans-2c" d="M 750 794 
L 1409 794 
L 1409 256 
L 897 -744 
L 494 -744 
L 750 256 
L 750 794 
z
" transform="scale(0.015625)"/>
       <path id="DejaVuSans-20" transform="scale(0.015625)"/>
       <path id="DejaVuSans-64" d="M 2906 2969 
L 2906 4863 
L 3481 4863 
L 3481 0 
L 2906 0 
L 2906 525 
Q 2725 213 2448 61 
Q 2172 -91 1784 -91 
Q 1150 -91 751 415 
Q 353 922 353 1747 
Q 353 2572 751 3078 
Q 1150 3584 1784 3584 
Q 2172 3584 2448 3432 
Q 2725 3281 2906 2969 
z
M 947 1747 
Q 947 1113 1208 752 
Q 1469 391 1925 391 
Q 2381 391 2643 752 
Q 2906 1113 2906 1747 
Q 2906 2381 2643 2742 
Q 2381 3103 1925 3103 
Q 1469 3103 1208 2742 
Q 947 2381 947 1747 
z
" transform="scale(0.015625)"/>
       <path id="DejaVuSans-78" d="M 3513 3500 
L 2247 1797 
L 3578 0 
L 2900 0 
L 1881 1375 
L 863 0 
L 184 0 
L 1544 1831 
L 300 3500 
L 978 3500 
L 1906 2253 
L 2834 3500 
L 3513 3500 
z
" transform="scale(0.015625)"/>
       <path id="DejaVuSans-2f" d="M 1625 4666 
L 2156 4666 
L 531 -594 
L 0 -594 
L 1625 4666 
z
" transform="scale(0.015625)"/>
       <path id="DejaVuSans-79" d="M 2059 -325 
Q 1816 -950 1584 -1140 
Q 1353 -1331 966 -1331 
L 506 -1331 
L 506 -850 
L 844 -850 
Q 1081 -850 1212 -737 
Q 1344 -625 1503 -206 
L 1606 56 
L 191 3500 
L 800 3500 
L 1894 763 
L 2988 3500 
L 3597 3500 
L 2059 -325 
z
" transform="scale(0.015625)"/>
      </defs>
      <use xlink:href="#DejaVuSans-53"/>
      <use xlink:href="#DejaVuSans-6c" x="63.476562"/>
      <use xlink:href="#DejaVuSans-6f" x="91.259766"/>
      <use xlink:href="#DejaVuSans-70" x="152.441406"/>
      <use xlink:href="#DejaVuSans-65" x="215.917969"/>
      <use xlink:href="#DejaVuSans-2c" x="277.441406"/>
      <use xlink:href="#DejaVuSans-20" x="309.228516"/>
      <use xlink:href="#DejaVuSans-64" x="341.015625"/>
      <use xlink:href="#DejaVuSans-78" x="404.492188"/>
      <use xlink:href="#DejaVuSans-2f" x="463.671875"/>
      <use xlink:href="#DejaVuSans-64" x="497.363281"/>
      <use xlink:href="#DejaVuSans-79" x="560.839844"/>
     </g>
    </g>
   </g>
   <g id="line2d_15">
    <path d="M 73.741619 46.823668 
L 74.046593 145.655958 
L 74.351566 132.494754 
L 74.65654 75.924672 
L 74.961514 62.422938 
L 75.266487 128.004489 
L 75.571461 77.790923 
L 76.181408 164.965612 
L 76.486382 92.235132 
L 76.791355 86.371818 
L 77.096329 117.656902 
L 77.401302 92.182812 
L 77.706276 128.411562 
L 78.011249 123.325481 
L 78.316223 41.845755 
L 78.621197 111.474034 
L 78.92617 131.219864 
L 79.231144 62.848413 
L 79.536117 175.41717 
L 79.841091 128.141085 
L 80.146065 29.191562 
L 80.451038 171.074987 
L 80.756012 92.818744 
L 81.060985 134.337724 
L 81.365959 52.6566 
L 81.670932 88.22535 
L 81.975906 149.762913 
L 82.28088 114.185209 
L 82.585853 96.903734 
L 82.890827 140.499096 
L 83.1958 47.064392 
L 83.500774 105.259649 
L 83.805748 104.509809 
L 84.110721 148.750162 
L 84.415695 54.74365 
L 84.720668 131.127111 
L 85.025642 148.683645 
L 85.635589 35.724679 
L 85.940563 188.663688 
L 86.245536 33.358614 
L 86.55051 137.58714 
L 87.160457 74.100043 
L 87.465431 144.966703 
L 87.770404 65.047924 
L 88.075378 192.249466 
L 88.380351 27.923079 
L 88.685325 187.114764 
L 88.990298 41.961775 
L 89.295272 152.120778 
L 89.600246 116.875478 
L 89.905219 101.357649 
L 90.210193 130.178599 
L 90.515166 104.222094 
L 90.82014 109.006729 
L 91.125114 20.946855 
L 91.430087 121.250701 
L 91.735061 131.527136 
L 92.040034 130.39678 
L 92.345008 41.329709 
L 92.649981 135.576354 
L 92.954955 157.527217 
L 93.564902 44.094424 
L 93.869876 178.710556 
L 94.479823 52.036255 
L 94.784797 138.418654 
L 95.08977 108.454883 
L 95.394744 98.612165 
L 95.699717 158.514192 
L 96.004691 75.490246 
L 96.309664 112.926755 
L 96.614638 123.23674 
L 96.919612 92.980511 
L 97.224585 128.798236 
L 97.529559 58.233364 
L 97.834532 89.495508 
L 98.139506 174.253364 
L 98.44448 93.231991 
L 98.749453 61.848688 
L 99.054427 140.04489 
L 99.3594 128.115424 
L 99.664374 58.718724 
L 99.969348 174.022193 
L 100.579295 59.927385 
L 100.884268 118.19379 
L 101.189242 135.807885 
L 101.494215 74.445801 
L 101.799189 111.341636 
L 102.104163 82.374833 
L 102.409136 155.07661 
L 102.71411 58.408347 
L 103.019083 181.010409 
L 103.324057 64.847341 
L 103.629031 147.015988 
L 103.934004 78.582764 
L 104.238978 71.972121 
L 104.543951 163.986759 
L 104.848925 72.553075 
L 105.153898 81.560137 
L 105.458872 145.247392 
L 105.763846 65.52934 
L 106.068819 180.701226 
L 106.373793 60.693942 
L 106.678766 97.597378 
L 106.98374 113.565822 
L 107.288714 150.819969 
L 107.593687 48.201478 
L 107.898661 196.730873 
L 108.203634 32.273506 
L 108.508608 103.560625 
L 108.813581 139.349081 
L 109.118555 124.082235 
L 109.423529 114.648864 
L 109.728502 84.29985 
L 110.033476 117.667845 
L 110.338449 95.097417 
L 110.643423 136.170555 
L 110.948397 112.12383 
L 111.25337 130.076814 
L 111.863317 62.268298 
L 112.168291 176.329541 
L 112.473264 57.61293 
L 112.778238 132.560225 
L 113.083212 67.119197 
L 113.388185 196.235754 
L 113.693159 32.641471 
L 114.303106 165.024007 
L 114.60808 122.767792 
L 114.913053 52.552302 
L 115.218027 164.857986 
L 115.523 87.833469 
L 115.827974 98.373746 
L 116.132947 135.797222 
L 116.437921 129.788534 
L 116.742895 109.031548 
L 117.047868 46.915976 
L 117.352842 181.325962 
L 117.657815 33.954718 
L 117.962789 124.74693 
L 118.267763 106.434315 
L 118.572736 119.505921 
L 118.87771 101.271551 
L 119.182683 174.485647 
L 119.487657 74.920679 
L 119.79263 143.793385 
L 120.402578 45.725225 
L 120.707551 126.320065 
L 121.012525 131.287484 
L 121.317498 73.268555 
L 121.622472 140.421295 
L 121.927446 102.24469 
L 122.232419 92.545708 
L 122.537393 194.614929 
L 122.842366 83.810152 
L 123.14734 126.446108 
L 123.452313 128.040975 
L 123.757287 37.344064 
L 124.062261 179.17306 
L 124.367234 113.522129 
L 124.672208 85.131646 
L 124.977181 76.642053 
L 125.282155 87.182782 
L 125.587129 152.902325 
L 125.892102 69.062136 
L 126.197076 152.188158 
L 126.502049 105.24182 
L 126.807023 76.34234 
L 127.111996 149.594531 
L 127.41697 92.503665 
L 127.721944 145.595277 
L 128.026917 79.405196 
L 128.331891 140.872406 
L 128.636864 60.48342 
L 128.941838 154.242322 
L 129.551785 110.514579 
L 129.856759 83.535912 
L 130.161732 156.296208 
L 130.466706 93.773333 
L 130.771679 100.205593 
L 131.076653 138.52462 
L 131.381627 85.059558 
L 131.6866 148.493368 
L 131.991574 29.928956 
L 132.296547 127.448346 
L 132.601521 139.386701 
L 132.906495 107.704741 
L 133.211468 102.164035 
L 133.516442 151.060457 
L 133.821415 95.217343 
L 134.126389 130.852573 
L 134.431362 102.672866 
L 134.736336 107.885023 
L 135.04131 153.448138 
L 135.346283 103.434601 
L 135.651257 111.583935 
L 135.95623 50.624888 
L 136.261204 140.223644 
L 136.566178 77.300694 
L 136.871151 161.8647 
L 137.176125 134.955412 
L 137.481098 53.39435 
L 137.786072 153.117779 
L 138.091045 141.253805 
L 138.700993 48.512165 
L 139.005966 159.295419 
L 139.31094 83.749259 
L 139.615913 110.656417 
L 139.920887 124.91401 
L 140.225861 112.326648 
L 140.530834 156.258485 
L 140.835808 74.139729 
L 141.140781 133.164579 
L 141.445755 83.696476 
L 141.750728 174.649323 
L 142.055702 45.025903 
L 142.360676 162.152378 
L 142.665649 130.750865 
L 142.970623 84.463699 
L 143.275596 145.527145 
L 143.58057 48.844812 
L 143.885544 193.754036 
L 144.190517 45.700244 
L 144.495491 155.923357 
L 145.105438 61.640843 
L 145.410411 187.903614 
L 145.715385 49.93165 
L 146.020359 171.897909 
L 146.325332 86.677934 
L 146.630306 114.568503 
L 146.935279 97.48467 
L 147.240253 170.597978 
L 147.545227 53.882267 
L 147.8502 182.475441 
L 148.155174 66.580402 
L 148.460147 173.729482 
L 148.765121 58.26698 
L 149.070094 139.009159 
L 149.375068 59.046974 
L 149.680042 196.906985 
L 149.985015 63.367143 
L 150.289989 121.679742 
L 150.594962 85.809603 
L 150.899936 200.933166 
L 151.20491 87.745027 
L 151.509883 87.721126 
L 151.814857 175.793895 
L 152.11983 92.225504 
L 152.424804 134.359108 
L 152.729777 84.967637 
L 153.034751 65.000245 
L 153.339725 160.229978 
L 153.644698 98.21043 
L 153.949672 140.567457 
L 154.254645 98.491362 
L 154.559619 87.916963 
L 154.864593 159.354539 
L 155.169566 150.935928 
L 155.47454 116.96722 
L 155.779513 117.559697 
L 156.084487 116.634929 
L 156.38946 68.954407 
L 156.694434 153.043542 
L 157.304381 77.034162 
L 157.609355 91.49792 
L 157.914328 192.413938 
L 158.219302 108.291321 
L 158.524276 60.262477 
L 158.829249 163.325666 
L 159.134223 136.59984 
L 159.439196 40.764481 
L 159.74417 179.304824 
L 160.354117 96.530106 
L 160.659091 80.693724 
L 160.964064 118.078444 
L 161.269038 106.748708 
L 161.574011 111.421593 
L 161.878985 166.269749 
L 162.183959 134.647177 
L 162.488932 79.606301 
L 162.793906 107.225089 
L 163.098879 168.227243 
L 163.708826 93.928295 
L 164.0138 127.799632 
L 164.318774 98.531861 
L 164.623747 158.042039 
L 164.928721 48.732529 
L 165.233694 116.49719 
L 165.538668 106.714599 
L 165.843642 146.965648 
L 166.148615 94.059972 
L 166.453589 181.460427 
L 166.758562 102.980316 
L 167.063536 95.539166 
L 167.368509 99.257394 
L 167.673483 184.473542 
L 167.978457 39.827094 
L 168.28343 171.914343 
L 168.588404 63.055515 
L 168.893377 160.876356 
L 169.503325 91.745956 
L 169.808298 192.744837 
L 170.113272 34.853923 
L 170.418245 168.680894 
L 170.723219 89.755026 
L 171.028192 101.60963 
L 171.333166 126.823146 
L 171.63814 180.583219 
L 171.943113 93.321392 
L 172.248087 84.302283 
L 172.55306 194.185383 
L 172.858034 75.971273 
L 173.163008 89.298531 
L 173.467981 114.381028 
L 173.772955 107.893564 
L 174.077928 203.136168 
L 174.382902 107.611579 
L 174.687875 111.319262 
L 174.992849 118.054648 
L 175.297823 139.87381 
L 175.602796 129.093834 
L 175.90777 74.6811 
L 176.212743 129.581454 
L 176.517717 81.269984 
L 176.822691 185.366978 
L 177.127664 115.306441 
L 177.432638 109.484749 
L 177.737611 65.731916 
L 178.042585 157.587401 
L 178.347558 94.416253 
L 178.652532 101.578264 
L 178.957506 188.227433 
L 179.262479 85.580381 
L 179.567453 92.796198 
L 179.872426 178.401928 
L 180.1774 97.88547 
L 180.482374 84.514258 
L 180.787347 168.981518 
L 181.092321 112.362386 
L 181.397294 155.004801 
L 181.702268 53.766936 
L 182.007241 200.018371 
L 182.312215 43.005225 
L 182.617189 138.605243 
L 182.922162 160.242624 
L 183.227136 66.266744 
L 183.532109 170.387707 
L 183.837083 116.987748 
L 184.142057 106.85484 
L 184.44703 139.073355 
L 184.752004 69.152077 
L 185.056977 167.950123 
L 185.361951 105.644105 
L 185.666924 108.416089 
L 185.971898 133.709877 
L 186.276872 143.899637 
L 186.581845 96.388137 
L 186.886819 128.023797 
L 187.191792 145.288733 
L 187.496766 54.786215 
L 187.80174 144.738683 
L 188.106713 106.232543 
L 188.411687 133.947933 
L 188.71666 117.919761 
L 189.021634 130.286323 
L 189.326607 154.929825 
L 189.631581 81.179193 
L 189.936555 160.469966 
L 190.546502 97.827742 
L 190.851475 106.098093 
L 191.461423 164.09365 
L 191.766396 43.893822 
L 192.07137 172.26594 
L 192.376343 128.583163 
L 192.681317 137.960678 
L 192.98629 61.849515 
L 193.291264 113.84368 
L 193.901211 173.637548 
L 194.206185 115.697527 
L 194.511158 80.205722 
L 194.816132 157.666762 
L 195.121106 79.604553 
L 195.426079 133.073455 
L 195.731053 160.142368 
L 196.036026 91.213062 
L 196.341 177.97642 
L 196.645973 57.970106 
L 196.950947 189.272977 
L 197.255921 125.822782 
L 197.560894 117.245825 
L 197.865868 125.5943 
L 198.170841 88.291692 
L 198.475815 70.706726 
L 199.085762 195.402526 
L 199.390736 89.506055 
L 199.695709 152.609972 
L 200.000683 36.848616 
L 200.305656 181.089704 
L 200.61063 132.422398 
L 200.915604 105.869981 
L 201.220577 132.00287 
L 201.525551 130.348899 
L 201.830524 82.408969 
L 202.135498 99.171941 
L 202.440472 182.697362 
L 202.745445 110.137604 
L 203.050419 129.551655 
L 203.355392 137.09968 
L 203.660366 106.959459 
L 203.965339 121.213997 
L 204.270313 158.289016 
L 204.575287 47.979811 
L 204.88026 191.710038 
L 205.185234 100.38374 
L 205.490207 91.813579 
L 205.795181 146.945274 
L 206.100155 108.99903 
L 206.710102 123.472971 
L 207.015075 140.828042 
L 207.320049 113.612454 
L 207.625022 131.884216 
L 207.929996 119.874132 
L 208.23497 127.535072 
L 208.539943 109.070279 
L 208.844917 163.385632 
L 209.14989 75.651118 
L 209.454864 152.464564 
L 209.759838 144.066 
L 210.064811 143.477919 
L 210.369785 48.604573 
L 210.674758 154.734861 
L 210.979732 179.647431 
L 211.284705 30.981203 
L 211.589679 214.756364 
L 211.894653 35.831952 
L 212.199626 137.258094 
L 212.5046 200.211653 
L 212.809573 111.754149 
L 213.114547 92.275031 
L 213.419521 143.25309 
L 213.724494 146.457478 
L 214.029468 108.668501 
L 214.334441 129.904659 
L 214.639415 46.466939 
L 214.944388 203.293508 
L 215.249362 83.639472 
L 215.554336 162.941081 
L 216.164283 61.566667 
L 216.469256 203.078718 
L 216.77423 76.383383 
L 217.079204 87.916451 
L 217.689151 175.501595 
L 217.994124 96.448297 
L 218.299098 177.084655 
L 218.604071 40.710221 
L 218.909045 198.260228 
L 219.214019 47.267818 
L 219.518992 191.729759 
L 219.823966 63.167863 
L 220.128939 190.546003 
L 220.433913 100.236219 
L 220.738887 105.939133 
L 221.04386 114.199579 
L 221.348834 145.69358 
L 221.653807 123.629869 
L 221.958781 88.655932 
L 222.263754 190.38516 
L 222.568728 85.763853 
L 222.873702 168.284793 
L 223.178675 95.746604 
L 223.483649 121.034789 
L 223.788622 136.479111 
L 224.093596 77.886735 
L 224.39857 204.488693 
L 224.703543 58.086484 
L 225.31349 167.964243 
L 225.618464 114.568629 
L 225.923438 81.628381 
L 226.228411 167.09659 
L 226.533385 157.129254 
L 226.838358 73.798778 
L 227.448305 148.22673 
L 227.753279 88.6436 
L 228.058253 183.962117 
L 228.363226 57.182232 
L 228.973173 196.983876 
L 229.278147 104.121365 
L 229.583121 64.999384 
L 229.888094 184.506914 
L 230.193068 114.283521 
L 230.498041 75.482429 
L 230.803015 134.678358 
L 231.107988 135.493872 
L 231.412962 173.683515 
L 231.717936 55.001633 
L 232.022909 179.052042 
L 232.327883 102.573077 
L 232.632856 124.374456 
L 232.93783 132.206555 
L 233.242804 127.210912 
L 233.547777 143.492662 
L 233.852751 99.563957 
L 234.157724 149.316999 
L 234.462698 69.586167 
L 234.767671 165.565516 
L 235.072645 143.274369 
L 235.377619 42.935957 
L 235.682592 210.250231 
L 235.987566 124.392376 
L 236.292539 119.940686 
L 236.597513 102.349861 
L 236.902487 130.870567 
L 237.20746 129.455093 
L 237.512434 119.203501 
L 237.817407 96.584444 
L 238.122381 159.708275 
L 238.427354 42.134499 
L 238.732328 157.017064 
L 239.037302 167.09474 
L 239.342275 70.860108 
L 239.647249 160.848045 
L 239.952222 134.958263 
L 240.257196 82.288329 
L 240.56217 167.237492 
L 240.867143 140.327253 
L 241.172117 67.278501 
L 241.47709 103.897916 
L 241.782064 186.910708 
L 242.087037 69.864738 
L 242.392011 149.02689 
L 242.696985 117.923662 
L 243.001958 126.098177 
L 243.306932 160.618678 
L 243.611905 101.787229 
L 243.916879 92.816643 
L 244.221853 101.720701 
L 244.526826 199.129227 
L 244.8318 68.281702 
L 245.136773 183.137862 
L 245.441747 58.378048 
L 245.74672 167.814121 
L 246.051694 139.537127 
L 246.356668 130.254865 
L 246.661641 55.957479 
L 246.966615 110.521247 
L 247.271588 207.397223 
L 247.576562 76.551373 
L 248.186509 121.852306 
L 248.491483 152.961155 
L 248.796456 102.418181 
L 249.10143 151.257211 
L 249.406403 105.059065 
L 249.711377 175.720453 
L 250.016351 60.794841 
L 250.626298 149.986871 
L 250.931271 154.632275 
L 251.236245 103.182552 
L 251.541219 143.474007 
L 251.846192 147.156465 
L 252.456139 86.771485 
L 252.761113 167.451749 
L 253.066086 53.402932 
L 253.676034 179.366751 
L 253.981007 52.193116 
L 254.285981 208.228506 
L 254.590954 101.554767 
L 254.895928 86.203162 
L 255.200902 139.456693 
L 255.505875 103.418181 
L 255.810849 184.525901 
L 256.115822 80.355965 
L 256.420796 124.253179 
L 256.725769 80.344755 
L 257.030743 116.659279 
L 257.335717 204.906087 
L 257.64069 77.974885 
L 258.250637 111.699263 
L 258.555611 198.1249 
L 258.860585 98.799365 
L 259.165558 117.022111 
L 259.470532 87.665018 
L 259.775505 197.711357 
L 260.080479 60.024057 
L 260.385452 171.55706 
L 260.690426 52.48842 
L 260.9954 133.521108 
L 261.300373 180.984224 
L 261.605347 120.459298 
L 261.91032 128.846308 
L 262.215294 92.630288 
L 262.520268 99.158465 
L 262.825241 136.79219 
L 263.130215 99.709691 
L 263.435188 106.031511 
L 263.740162 199.697603 
L 264.045135 57.47114 
L 264.350109 141.445968 
L 264.655083 169.113873 
L 264.960056 34.263616 
L 265.26503 174.04075 
L 265.570003 102.861967 
L 265.874977 141.366435 
L 266.179951 80.601084 
L 266.484924 166.047616 
L 266.789898 96.44802 
L 267.094871 146.891813 
L 267.399845 104.171555 
L 267.704818 158.022188 
L 268.009792 106.285322 
L 268.314766 88.998816 
L 268.619739 169.729919 
L 268.924713 105.445792 
L 269.229686 78.636897 
L 269.53466 169.890782 
L 269.839634 69.223751 
L 270.144607 129.604824 
L 270.449581 148.86229 
L 270.754554 92.0375 
L 271.059528 99.969884 
L 271.364501 141.088938 
L 271.669475 109.08995 
L 271.974449 161.341305 
L 272.279422 116.111264 
L 272.584396 137.644452 
L 272.889369 50.877991 
L 273.194343 188.390356 
L 273.499317 116.297326 
L 273.80429 150.776872 
L 274.109264 89.927138 
L 274.414237 59.722394 
L 274.719211 176.053447 
L 275.024184 70.617637 
L 275.329158 120.10557 
L 275.634132 190.182 
L 275.939105 84.301114 
L 276.244079 89.340024 
L 276.549052 199.581329 
L 276.854026 56.981474 
L 277.463973 175.955232 
L 277.768947 98.16768 
L 278.07392 129.788497 
L 278.378894 99.159733 
L 278.683867 122.560059 
L 278.988841 133.634521 
L 279.293815 121.414598 
L 279.598788 83.369936 
L 279.903762 165.661658 
L 280.208735 124.397829 
L 280.513709 43.316732 
L 280.818683 122.720532 
L 281.123656 151.915677 
L 281.42863 137.687858 
L 281.733603 83.6201 
L 282.038577 174.981563 
L 282.34355 64.789517 
L 282.648524 100.239099 
L 282.953498 200.167389 
L 283.258471 108.406439 
L 283.563445 120.365406 
L 283.868418 116.233709 
L 284.173392 129.069678 
L 284.478366 63.59746 
L 284.783339 159.001954 
L 285.088313 110.189075 
L 285.393286 79.777946 
L 285.69826 102.238847 
L 286.003233 200.260814 
L 286.308207 121.71303 
L 286.613181 117.828076 
L 286.918154 119.155287 
L 287.223128 51.696676 
L 287.528101 110.411689 
L 287.833075 115.609128 
L 288.138049 115.242519 
L 288.443022 108.884482 
L 288.747996 155.587847 
L 289.052969 148.125887 
L 289.357943 134.812385 
L 289.662916 127.173768 
L 289.96789 63.442856 
L 290.272864 159.580772 
L 290.577837 100.395239 
L 290.882811 77.358841 
L 291.187784 174.621464 
L 291.492758 55.087127 
L 291.797732 191.370304 
L 292.102705 116.541466 
L 292.407679 109.970285 
L 292.712652 46.459163 
L 293.017626 139.940538 
L 293.322599 162.577199 
L 293.627573 107.18755 
L 294.23752 128.894534 
L 294.542494 49.993066 
L 294.847467 190.559839 
L 295.152441 67.933588 
L 295.457415 129.754563 
L 295.762388 133.442417 
L 296.067362 97.464294 
L 296.372335 83.199973 
L 296.677309 99.209161 
L 296.982282 128.340148 
L 297.287256 178.663351 
L 297.897203 79.637696 
L 298.202177 145.061206 
L 298.50715 53.607291 
L 298.812124 142.810913 
L 299.117098 95.116835 
L 299.422071 134.038932 
L 299.727045 145.244845 
L 300.032018 68.03113 
L 300.336992 97.486867 
L 300.641965 178.693641 
L 300.946939 122.578925 
L 301.251913 43.209614 
L 301.556886 185.914517 
L 301.86186 64.233687 
L 302.166833 116.959571 
L 302.471807 112.482857 
L 302.776781 113.510606 
L 303.081754 126.028204 
L 303.386728 175.766606 
L 303.691701 65.716712 
L 303.996675 143.866934 
L 304.301648 89.26479 
L 304.606622 139.352322 
L 304.911596 103.47025 
L 305.216569 118.128517 
L 305.521543 110.019656 
L 305.826516 109.883453 
L 306.13149 160.838373 
L 306.436464 88.818491 
L 306.741437 119.038207 
L 307.046411 81.86573 
L 307.351384 102.315308 
L 307.656358 154.833583 
L 307.961331 62.61721 
L 308.266305 112.270848 
L 308.571279 139.260811 
L 308.876252 147.194772 
L 309.181226 127.960467 
L 309.486199 64.344506 
L 309.791173 82.924427 
L 310.40112 153.386031 
L 310.706094 154.24429 
L 311.011067 107.91191 
L 311.316041 38.108674 
L 311.621014 133.32954 
L 311.925988 166.768678 
L 312.230962 96.61333 
L 312.535935 67.352422 
L 312.840909 130.806045 
L 313.145882 139.114519 
L 313.450856 84.047956 
L 313.75583 115.291492 
L 314.060803 88.63254 
L 314.365777 200.268935 
L 314.67075 108.130829 
L 314.975724 75.835553 
L 315.280697 64.611152 
L 315.585671 207.009694 
L 315.890645 52.484803 
L 316.195618 114.408402 
L 316.500592 118.312546 
L 316.805565 154.7183 
L 317.110539 125.042178 
L 317.415513 39.18829 
L 317.720486 181.432865 
L 318.02546 88.314074 
L 318.330433 81.888046 
L 318.635407 162.879948 
L 318.94038 78.224838 
L 319.245354 122.359297 
L 319.550328 96.597931 
L 319.855301 124.077117 
L 320.160275 62.310075 
L 320.465248 107.978453 
L 320.770222 190.70452 
L 321.075196 78.948357 
L 321.380169 146.167011 
L 321.685143 51.52967 
L 321.990116 176.689362 
L 322.29509 100.052909 
L 322.600063 116.222221 
L 322.905037 120.383098 
L 323.210011 42.584789 
L 323.514984 177.124671 
L 323.819958 94.955955 
L 324.124931 76.359049 
L 324.734879 143.406134 
L 325.039852 135.468108 
L 325.344826 62.436458 
L 325.649799 85.970963 
L 326.259746 151.472876 
L 326.56472 67.033075 
L 326.869694 120.904301 
L 327.174667 113.278192 
L 327.479641 139.112187 
L 327.784614 137.021996 
L 328.089588 122.760708 
L 328.394562 42.040746 
L 328.699535 106.799072 
L 329.004509 142.700833 
L 329.309482 104.277557 
L 329.614456 105.384712 
L 329.919429 72.309497 
L 330.224403 202.933745 
L 330.529377 67.206769 
L 330.83435 157.558371 
L 331.139324 24.60508 
L 331.444297 109.721519 
L 331.749271 152.151329 
L 332.054245 148.231935 
L 332.359218 103.413812 
L 332.664192 79.01701 
L 332.969165 81.23691 
L 333.884086 156.626922 
L 334.494033 70.510491 
L 334.799007 129.999451 
L 335.10398 91.885977 
L 335.408954 124.234544 
L 335.713928 124.68883 
L 336.018901 64.40612 
L 336.323875 154.113012 
L 336.933822 64.770326 
L 337.238795 114.546271 
L 337.543769 123.557396 
L 337.848743 59.244115 
L 338.153716 105.908292 
L 338.45869 205.567572 
L 339.068637 33.193631 
L 339.373611 106.756952 
L 339.678584 138.622261 
L 339.983558 158.118012 
L 340.288531 68.448201 
L 340.593505 69.246606 
L 341.203452 176.489229 
L 341.508426 103.357236 
L 341.813399 121.224654 
L 342.118373 59.376715 
L 342.423346 70.849652 
L 343.033294 175.123741 
L 343.338267 61.984274 
L 343.643241 135.001094 
L 344.253188 85.914536 
L 344.558161 165.070584 
L 345.168109 53.850505 
L 345.473082 111.154818 
L 345.778056 142.633273 
L 346.083029 101.280393 
L 346.388003 142.692468 
L 346.99795 76.820516 
L 347.302924 79.705971 
L 347.607897 152.321575 
L 347.912871 111.877924 
L 348.522818 63.433785 
L 348.827792 129.694759 
L 349.132765 88.524416 
L 349.437739 101.79801 
L 349.742712 137.30259 
L 350.047686 159.829029 
L 350.35266 39.485596 
L 350.657633 115.670043 
L 350.962607 151.686485 
L 351.26758 65.884029 
L 351.572554 104.715641 
L 351.877527 93.832941 
L 352.182501 130.077378 
L 352.487475 132.799237 
L 352.792448 139.960391 
L 353.097422 66.703683 
L 353.402395 97.41158 
L 353.707369 142.939272 
L 354.012343 74.143604 
L 354.317316 153.93169 
L 354.62229 35.845457 
L 354.927263 187.43664 
L 355.232237 86.799301 
L 355.537211 72.107283 
L 355.842184 130.457318 
L 356.147158 119.377698 
L 356.452131 90.888762 
L 356.757105 111.503734 
L 357.062078 63.078189 
L 357.367052 130.340614 
L 357.672026 117.934883 
L 357.976999 142.240174 
L 358.281973 41.951856 
L 358.89192 179.22217 
L 359.196894 47.459707 
L 359.501867 146.880401 
L 359.806841 86.859392 
L 360.111814 160.933876 
L 360.416788 62.693312 
L 360.721761 117.505119 
L 361.026735 129.039223 
L 361.331709 114.943698 
L 361.636682 109.698985 
L 361.941656 84.542336 
L 362.246629 108.438893 
L 362.551603 122.882157 
L 362.856577 75.651164 
L 363.16155 81.259851 
L 363.466524 126.526859 
L 363.771497 152.430171 
L 364.076471 17.083636 
L 364.381444 157.478266 
L 364.686418 64.922452 
L 364.991392 149.723244 
L 365.296365 148.474625 
L 365.601339 98.859649 
L 365.906312 118.984461 
L 366.211286 68.871485 
L 366.51626 128.910371 
L 366.821233 44.496959 
L 367.126207 117.278081 
L 367.43118 91.571269 
L 367.736154 177.863466 
L 368.041127 85.245059 
L 368.346101 88.792278 
L 368.651075 141.982339 
L 368.956048 43.527009 
L 369.565995 167.73609 
L 370.175943 39.764698 
L 370.480916 163.356161 
L 370.78589 58.723962 
L 371.090863 182.846651 
L 371.395837 49.288097 
L 371.70081 172.051217 
L 372.005784 50.294406 
L 372.310758 94.056696 
L 372.615731 105.44 
L 372.920705 92.5416 
L 373.225678 138.278152 
L 373.530652 125.528865 
L 373.835626 132.272394 
L 374.140599 108.049362 
L 374.445573 26.99463 
L 374.750546 149.900552 
L 375.05552 147.706405 
L 375.360493 90.216831 
L 375.665467 77.936832 
L 375.970441 136.765272 
L 376.275414 116.036086 
L 376.580388 54.846639 
L 376.885361 172.591016 
L 377.190335 80.060192 
L 377.495309 40.424544 
L 377.800282 141.04696 
L 378.105256 138.919227 
L 378.105256 138.919227 
" clip-path="url(#p03b55fff4a)" style="fill: none; stroke: #1f77b4; stroke-width: 1.5; stroke-linecap: square"/>
   </g>
   <g id="line2d_16">
    <path d="M 73.741619 106.923784 
L 81.365959 107.035171 
L 89.295272 107.375251 
L 97.224585 107.934951 
L 105.763846 108.766062 
L 114.913053 109.890528 
L 124.977181 111.360021 
L 137.176125 113.378984 
L 179.567453 120.614562 
L 189.326607 121.931379 
L 198.170841 122.90543 
L 206.405128 123.59518 
L 214.334441 124.042348 
L 222.263754 124.264434 
L 229.888094 124.260145 
L 237.817407 124.029253 
L 245.74672 123.573629 
L 253.981007 122.875709 
L 262.825241 121.893841 
L 272.279422 120.614562 
L 283.258471 118.894457 
L 297.897203 116.356394 
L 323.514984 111.893726 
L 334.494033 110.226481 
L 343.948214 109.008057 
L 352.792448 108.093838 
L 361.026735 107.466211 
L 368.956048 107.083006 
L 376.885361 106.927218 
L 378.105256 106.923784 
L 378.105256 106.923784 
" clip-path="url(#p03b55fff4a)" style="fill: none; stroke: #ff7f0e; stroke-width: 1.5; stroke-linecap: square"/>
   </g>
   <g id="patch_3">
    <path d="M 58.523438 224.64 
L 58.523438 7.2 
" style="fill: none; stroke: #000000; stroke-width: 0.8; stroke-linejoin: miter; stroke-linecap: square"/>
   </g>
   <g id="patch_4">
    <path d="M 393.323438 224.64 
L 393.323438 7.2 
" style="fill: none; stroke: #000000; stroke-width: 0.8; stroke-linejoin: miter; stroke-linecap: square"/>
   </g>
   <g id="patch_5">
    <path d="M 58.523438 224.64 
L 393.323438 224.64 
" style="fill: none; stroke: #000000; stroke-width: 0.8; stroke-linejoin: miter; stroke-linecap: square"/>
   </g>
   <g id="patch_6">
    <path d="M 58.523438 7.2 
L 393.323438 7.2 
" style="fill: none; stroke: #000000; stroke-width: 0.8; stroke-linejoin: miter; stroke-linecap: square"/>
   </g>
   <g id="legend_1">
    <g id="patch_7">
     <path d="M 288.684375 219.64 
L 386.323438 219.64 
Q 388.323438 219.64 388.323438 217.64 
L 388.323438 189.28375 
Q 388.323438 187.28375 386.323438 187.28375 
L 288.684375 187.28375 
Q 286.684375 187.28375 286.684375 189.28375 
L 286.684375 217.64 
Q 286.684375 219.64 288.684375 219.64 
z
" style="fill: #ffffff; opacity: 0.8; stroke: #cccccc; stroke-linejoin: miter"/>
    </g>
    <g id="line2d_17">
     <path d="M 290.684375 195.382187 
L 300.684375 195.382187 
L 310.684375 195.382187 
" style="fill: none; stroke: #1f77b4; stroke-width: 1.5; stroke-linecap: square"/>
    </g>
    <g id="text_16">
     <!-- Noisy Data -->
     <g transform="translate(318.684375 198.882187)scale(0.1 -0.1)">
      <defs>
       <path id="DejaVuSans-4e" d="M 628 4666 
L 1478 4666 
L 3547 763 
L 3547 4666 
L 4159 4666 
L 4159 0 
L 3309 0 
L 1241 3903 
L 1241 0 
L 628 0 
L 628 4666 
z
" transform="scale(0.015625)"/>
       <path id="DejaVuSans-69" d="M 603 3500 
L 1178 3500 
L 1178 0 
L 603 0 
L 603 3500 
z
M 603 4863 
L 1178 4863 
L 1178 4134 
L 603 4134 
L 603 4863 
z
" transform="scale(0.015625)"/>
       <path id="DejaVuSans-73" d="M 2834 3397 
L 2834 2853 
Q 2591 2978 2328 3040 
Q 2066 3103 1784 3103 
Q 1356 3103 1142 2972 
Q 928 2841 928 2578 
Q 928 2378 1081 2264 
Q 1234 2150 1697 2047 
L 1894 2003 
Q 2506 1872 2764 1633 
Q 3022 1394 3022 966 
Q 3022 478 2636 193 
Q 2250 -91 1575 -91 
Q 1294 -91 989 -36 
Q 684 19 347 128 
L 347 722 
Q 666 556 975 473 
Q 1284 391 1588 391 
Q 1994 391 2212 530 
Q 2431 669 2431 922 
Q 2431 1156 2273 1281 
Q 2116 1406 1581 1522 
L 1381 1569 
Q 847 1681 609 1914 
Q 372 2147 372 2553 
Q 372 3047 722 3315 
Q 1072 3584 1716 3584 
Q 2034 3584 2315 3537 
Q 2597 3491 2834 3397 
z
" transform="scale(0.015625)"/>
       <path id="DejaVuSans-44" d="M 1259 4147 
L 1259 519 
L 2022 519 
Q 2988 519 3436 956 
Q 3884 1394 3884 2338 
Q 3884 3275 3436 3711 
Q 2988 4147 2022 4147 
L 1259 4147 
z
M 628 4666 
L 1925 4666 
Q 3281 4666 3915 4102 
Q 4550 3538 4550 2338 
Q 4550 1131 3912 565 
Q 3275 0 1925 0 
L 628 0 
L 628 4666 
z
" transform="scale(0.015625)"/>
       <path id="DejaVuSans-61" d="M 2194 1759 
Q 1497 1759 1228 1600 
Q 959 1441 959 1056 
Q 959 750 1161 570 
Q 1363 391 1709 391 
Q 2188 391 2477 730 
Q 2766 1069 2766 1631 
L 2766 1759 
L 2194 1759 
z
M 3341 1997 
L 3341 0 
L 2766 0 
L 2766 531 
Q 2569 213 2275 61 
Q 1981 -91 1556 -91 
Q 1019 -91 701 211 
Q 384 513 384 1019 
Q 384 1609 779 1909 
Q 1175 2209 1959 2209 
L 2766 2209 
L 2766 2266 
Q 2766 2663 2505 2880 
Q 2244 3097 1772 3097 
Q 1472 3097 1187 3025 
Q 903 2953 641 2809 
L 641 3341 
Q 956 3463 1253 3523 
Q 1550 3584 1831 3584 
Q 2591 3584 2966 3190 
Q 3341 2797 3341 1997 
z
" transform="scale(0.015625)"/>
       <path id="DejaVuSans-74" d="M 1172 4494 
L 1172 3500 
L 2356 3500 
L 2356 3053 
L 1172 3053 
L 1172 1153 
Q 1172 725 1289 603 
Q 1406 481 1766 481 
L 2356 481 
L 2356 0 
L 1766 0 
Q 1100 0 847 248 
Q 594 497 594 1153 
L 594 3053 
L 172 3053 
L 172 3500 
L 594 3500 
L 594 4494 
L 1172 4494 
z
" transform="scale(0.015625)"/>
      </defs>
      <use xlink:href="#DejaVuSans-4e"/>
      <use xlink:href="#DejaVuSans-6f" x="74.804688"/>
      <use xlink:href="#DejaVuSans-69" x="135.986328"/>
      <use xlink:href="#DejaVuSans-73" x="163.769531"/>
      <use xlink:href="#DejaVuSans-79" x="215.869141"/>
      <use xlink:href="#DejaVuSans-20" x="275.048828"/>
      <use xlink:href="#DejaVuSans-44" x="306.835938"/>
      <use xlink:href="#DejaVuSans-61" x="383.837891"/>
      <use xlink:href="#DejaVuSans-74" x="445.117188"/>
      <use xlink:href="#DejaVuSans-61" x="484.326172"/>
     </g>
    </g>
    <g id="line2d_18">
     <path d="M 290.684375 210.060312 
L 300.684375 210.060312 
L 310.684375 210.060312 
" style="fill: none; stroke: #ff7f0e; stroke-width: 1.5; stroke-linecap: square"/>
    </g>
    <g id="text_17">
     <!-- Smooth Data -->
     <g transform="translate(318.684375 213.560312)scale(0.1 -0.1)">
      <defs>
       <path id="DejaVuSans-6d" d="M 3328 2828 
Q 3544 3216 3844 3400 
Q 4144 3584 4550 3584 
Q 5097 3584 5394 3201 
Q 5691 2819 5691 2113 
L 5691 0 
L 5113 0 
L 5113 2094 
Q 5113 2597 4934 2840 
Q 4756 3084 4391 3084 
Q 3944 3084 3684 2787 
Q 3425 2491 3425 1978 
L 3425 0 
L 2847 0 
L 2847 2094 
Q 2847 2600 2669 2842 
Q 2491 3084 2119 3084 
Q 1678 3084 1418 2786 
Q 1159 2488 1159 1978 
L 1159 0 
L 581 0 
L 581 3500 
L 1159 3500 
L 1159 2956 
Q 1356 3278 1631 3431 
Q 1906 3584 2284 3584 
Q 2666 3584 2933 3390 
Q 3200 3197 3328 2828 
z
" transform="scale(0.015625)"/>
       <path id="DejaVuSans-68" d="M 3513 2113 
L 3513 0 
L 2938 0 
L 2938 2094 
Q 2938 2591 2744 2837 
Q 2550 3084 2163 3084 
Q 1697 3084 1428 2787 
Q 1159 2491 1159 1978 
L 1159 0 
L 581 0 
L 581 4863 
L 1159 4863 
L 1159 2956 
Q 1366 3272 1645 3428 
Q 1925 3584 2291 3584 
Q 2894 3584 3203 3211 
Q 3513 2838 3513 2113 
z
" transform="scale(0.015625)"/>
      </defs>
      <use xlink:href="#DejaVuSans-53"/>
      <use xlink:href="#DejaVuSans-6d" x="63.476562"/>
      <use xlink:href="#DejaVuSans-6f" x="160.888672"/>
      <use xlink:href="#DejaVuSans-6f" x="222.070312"/>
      <use xlink:href="#DejaVuSans-74" x="283.251953"/>
      <use xlink:href="#DejaVuSans-68" x="322.460938"/>
      <use xlink:href="#DejaVuSans-20" x="385.839844"/>
      <use xlink:href="#DejaVuSans-44" x="417.626953"/>
      <use xlink:href="#DejaVuSans-61" x="494.628906"/>
      <use xlink:href="#DejaVuSans-74" x="555.908203"/>
      <use xlink:href="#DejaVuSans-61" x="595.117188"/>
     </g>
    </g>
   </g>
  </g>
 </g>
 <defs>
  <clipPath id="p03b55fff4a">
   <rect x="58.523438" y="7.2" width="334.8" height="217.44"/>
  </clipPath>
 </defs>
</svg>
