<?xml version="1.0" encoding="utf-8" standalone="no"?>
<!DOCTYPE svg PUBLIC "-//W3C//DTD SVG 1.1//EN"
  "http://www.w3.org/Graphics/SVG/1.1/DTD/svg11.dtd">
<svg xmlns:xlink="http://www.w3.org/1999/xlink" width="380.482813pt" height="248.518125pt" viewBox="0 0 380.482813 248.518125" xmlns="http://www.w3.org/2000/svg" version="1.1">
 <metadata>
  <rdf:RDF xmlns:dc="http://purl.org/dc/elements/1.1/" xmlns:cc="http://creativecommons.org/ns#" xmlns:rdf="http://www.w3.org/1999/02/22-rdf-syntax-ns#">
   <cc:Work>
    <dc:type rdf:resource="http://purl.org/dc/dcmitype/StillImage"/>
    <dc:date>2022-07-20T10:47:42.361866</dc:date>
    <dc:format>image/svg+xml</dc:format>
    <dc:creator>
     <cc:Agent>
      <dc:title>Matplotlib v3.5.2, https://matplotlib.org/</dc:title>
     </cc:Agent>
    </dc:creator>
   </cc:Work>
  </rdf:RDF>
 </metadata>
 <defs>
  <style type="text/css">*{stroke-linejoin: round; stroke-linecap: butt}</style>
 </defs>
 <g id="figure_1">
  <g id="patch_1">
   <path d="M -0 248.518125 
L 380.482813 248.518125 
L 380.482813 0 
L -0 0 
L -0 248.518125 
z
" style="fill: none"/>
  </g>
  <g id="axes_1">
   <g id="patch_2">
    <path d="M 38.482813 224.64 
L 373.282813 224.64 
L 373.282813 7.2 
L 38.482813 7.2 
z
" style="fill: #ffffff"/>
   </g>
   <g id="matplotlib.axis_1">
    <g id="xtick_1">
     <g id="line2d_1">
      <defs>
       <path id="m3e8865aa9e" d="M 0 0 
L 0 3.5 
" style="stroke: #000000; stroke-width: 0.8"/>
      </defs>
      <g>
       <use xlink:href="#m3e8865aa9e" x="53.700994" y="224.64" style="stroke: #000000; stroke-width: 0.8"/>
      </g>
     </g>
     <g id="text_1">
      <!-- 0 -->
      <g transform="translate(50.519744 239.238437)scale(0.1 -0.1)">
       <defs>
        <path id="DejaVuSans-30" d="M 2034 4250 
Q 1547 4250 1301 3770 
Q 1056 3291 1056 2328 
Q 1056 1369 1301 889 
Q 1547 409 2034 409 
Q 2525 409 2770 889 
Q 3016 1369 3016 2328 
Q 3016 3291 2770 3770 
Q 2525 4250 2034 4250 
z
M 2034 4750 
Q 2819 4750 3233 4129 
Q 3647 3509 3647 2328 
Q 3647 1150 3233 529 
Q 2819 -91 2034 -91 
Q 1250 -91 836 529 
Q 422 1150 422 2328 
Q 422 3509 836 4129 
Q 1250 4750 2034 4750 
z
" transform="scale(0.015625)"/>
       </defs>
       <use xlink:href="#DejaVuSans-30"/>
      </g>
     </g>
    </g>
    <g id="xtick_2">
     <g id="line2d_2">
      <g>
       <use xlink:href="#m3e8865aa9e" x="102.141972" y="224.64" style="stroke: #000000; stroke-width: 0.8"/>
      </g>
     </g>
     <g id="text_2">
      <!-- 5 -->
      <g transform="translate(98.960722 239.238437)scale(0.1 -0.1)">
       <defs>
        <path id="DejaVuSans-35" d="M 691 4666 
L 3169 4666 
L 3169 4134 
L 1269 4134 
L 1269 2991 
Q 1406 3038 1543 3061 
Q 1681 3084 1819 3084 
Q 2600 3084 3056 2656 
Q 3513 2228 3513 1497 
Q 3513 744 3044 326 
Q 2575 -91 1722 -91 
Q 1428 -91 1123 -41 
Q 819 9 494 109 
L 494 744 
Q 775 591 1075 516 
Q 1375 441 1709 441 
Q 2250 441 2565 725 
Q 2881 1009 2881 1497 
Q 2881 1984 2565 2268 
Q 2250 2553 1709 2553 
Q 1456 2553 1204 2497 
Q 953 2441 691 2322 
L 691 4666 
z
" transform="scale(0.015625)"/>
       </defs>
       <use xlink:href="#DejaVuSans-35"/>
      </g>
     </g>
    </g>
    <g id="xtick_3">
     <g id="line2d_3">
      <g>
       <use xlink:href="#m3e8865aa9e" x="150.582949" y="224.64" style="stroke: #000000; stroke-width: 0.8"/>
      </g>
     </g>
     <g id="text_3">
      <!-- 10 -->
      <g transform="translate(144.220449 239.238437)scale(0.1 -0.1)">
       <defs>
        <path id="DejaVuSans-31" d="M 794 531 
L 1825 531 
L 1825 4091 
L 703 3866 
L 703 4441 
L 1819 4666 
L 2450 4666 
L 2450 531 
L 3481 531 
L 3481 0 
L 794 0 
L 794 531 
z
" transform="scale(0.015625)"/>
       </defs>
       <use xlink:href="#DejaVuSans-31"/>
       <use xlink:href="#DejaVuSans-30" x="63.623047"/>
      </g>
     </g>
    </g>
    <g id="xtick_4">
     <g id="line2d_4">
      <g>
       <use xlink:href="#m3e8865aa9e" x="199.023926" y="224.64" style="stroke: #000000; stroke-width: 0.8"/>
      </g>
     </g>
     <g id="text_4">
      <!-- 15 -->
      <g transform="translate(192.661426 239.238437)scale(0.1 -0.1)">
       <use xlink:href="#DejaVuSans-31"/>
       <use xlink:href="#DejaVuSans-35" x="63.623047"/>
      </g>
     </g>
    </g>
    <g id="xtick_5">
     <g id="line2d_5">
      <g>
       <use xlink:href="#m3e8865aa9e" x="247.464903" y="224.64" style="stroke: #000000; stroke-width: 0.8"/>
      </g>
     </g>
     <g id="text_5">
      <!-- 20 -->
      <g transform="translate(241.102403 239.238437)scale(0.1 -0.1)">
       <defs>
        <path id="DejaVuSans-32" d="M 1228 531 
L 3431 531 
L 3431 0 
L 469 0 
L 469 531 
Q 828 903 1448 1529 
Q 2069 2156 2228 2338 
Q 2531 2678 2651 2914 
Q 2772 3150 2772 3378 
Q 2772 3750 2511 3984 
Q 2250 4219 1831 4219 
Q 1534 4219 1204 4116 
Q 875 4013 500 3803 
L 500 4441 
Q 881 4594 1212 4672 
Q 1544 4750 1819 4750 
Q 2544 4750 2975 4387 
Q 3406 4025 3406 3419 
Q 3406 3131 3298 2873 
Q 3191 2616 2906 2266 
Q 2828 2175 2409 1742 
Q 1991 1309 1228 531 
z
" transform="scale(0.015625)"/>
       </defs>
       <use xlink:href="#DejaVuSans-32"/>
       <use xlink:href="#DejaVuSans-30" x="63.623047"/>
      </g>
     </g>
    </g>
    <g id="xtick_6">
     <g id="line2d_6">
      <g>
       <use xlink:href="#m3e8865aa9e" x="295.90588" y="224.64" style="stroke: #000000; stroke-width: 0.8"/>
      </g>
     </g>
     <g id="text_6">
      <!-- 25 -->
      <g transform="translate(289.54338 239.238437)scale(0.1 -0.1)">
       <use xlink:href="#DejaVuSans-32"/>
       <use xlink:href="#DejaVuSans-35" x="63.623047"/>
      </g>
     </g>
    </g>
    <g id="xtick_7">
     <g id="line2d_7">
      <g>
       <use xlink:href="#m3e8865aa9e" x="344.346858" y="224.64" style="stroke: #000000; stroke-width: 0.8"/>
      </g>
     </g>
     <g id="text_7">
      <!-- 30 -->
      <g transform="translate(337.984358 239.238437)scale(0.1 -0.1)">
       <defs>
        <path id="DejaVuSans-33" d="M 2597 2516 
Q 3050 2419 3304 2112 
Q 3559 1806 3559 1356 
Q 3559 666 3084 287 
Q 2609 -91 1734 -91 
Q 1441 -91 1130 -33 
Q 819 25 488 141 
L 488 750 
Q 750 597 1062 519 
Q 1375 441 1716 441 
Q 2309 441 2620 675 
Q 2931 909 2931 1356 
Q 2931 1769 2642 2001 
Q 2353 2234 1838 2234 
L 1294 2234 
L 1294 2753 
L 1863 2753 
Q 2328 2753 2575 2939 
Q 2822 3125 2822 3475 
Q 2822 3834 2567 4026 
Q 2313 4219 1838 4219 
Q 1578 4219 1281 4162 
Q 984 4106 628 3988 
L 628 4550 
Q 988 4650 1302 4700 
Q 1616 4750 1894 4750 
Q 2613 4750 3031 4423 
Q 3450 4097 3450 3541 
Q 3450 3153 3228 2886 
Q 3006 2619 2597 2516 
z
" transform="scale(0.015625)"/>
       </defs>
       <use xlink:href="#DejaVuSans-33"/>
       <use xlink:href="#DejaVuSans-30" x="63.623047"/>
      </g>
     </g>
    </g>
   </g>
   <g id="matplotlib.axis_2">
    <g id="ytick_1">
     <g id="line2d_8">
      <defs>
       <path id="m17ce2323ee" d="M 0 0 
L -3.5 0 
" style="stroke: #000000; stroke-width: 0.8"/>
      </defs>
      <g>
       <use xlink:href="#m17ce2323ee" x="38.482813" y="189.577402" style="stroke: #000000; stroke-width: 0.8"/>
      </g>
     </g>
     <g id="text_8">
      <!-- −1.0 -->
      <g transform="translate(7.2 193.37662)scale(0.1 -0.1)">
       <defs>
        <path id="DejaVuSans-2212" d="M 678 2272 
L 4684 2272 
L 4684 1741 
L 678 1741 
L 678 2272 
z
" transform="scale(0.015625)"/>
        <path id="DejaVuSans-2e" d="M 684 794 
L 1344 794 
L 1344 0 
L 684 0 
L 684 794 
z
" transform="scale(0.015625)"/>
       </defs>
       <use xlink:href="#DejaVuSans-2212"/>
       <use xlink:href="#DejaVuSans-31" x="83.789062"/>
       <use xlink:href="#DejaVuSans-2e" x="147.412109"/>
       <use xlink:href="#DejaVuSans-30" x="179.199219"/>
      </g>
     </g>
    </g>
    <g id="ytick_2">
     <g id="line2d_9">
      <g>
       <use xlink:href="#m17ce2323ee" x="38.482813" y="152.809319" style="stroke: #000000; stroke-width: 0.8"/>
      </g>
     </g>
     <g id="text_9">
      <!-- −0.5 -->
      <g transform="translate(7.2 156.608538)scale(0.1 -0.1)">
       <use xlink:href="#DejaVuSans-2212"/>
       <use xlink:href="#DejaVuSans-30" x="83.789062"/>
       <use xlink:href="#DejaVuSans-2e" x="147.412109"/>
       <use xlink:href="#DejaVuSans-35" x="179.199219"/>
      </g>
     </g>
    </g>
    <g id="ytick_3">
     <g id="line2d_10">
      <g>
       <use xlink:href="#m17ce2323ee" x="38.482813" y="116.041237" style="stroke: #000000; stroke-width: 0.8"/>
      </g>
     </g>
     <g id="text_10">
      <!-- 0.0 -->
      <g transform="translate(15.579688 119.840456)scale(0.1 -0.1)">
       <use xlink:href="#DejaVuSans-30"/>
       <use xlink:href="#DejaVuSans-2e" x="63.623047"/>
       <use xlink:href="#DejaVuSans-30" x="95.410156"/>
      </g>
     </g>
    </g>
    <g id="ytick_4">
     <g id="line2d_11">
      <g>
       <use xlink:href="#m17ce2323ee" x="38.482813" y="79.273155" style="stroke: #000000; stroke-width: 0.8"/>
      </g>
     </g>
     <g id="text_11">
      <!-- 0.5 -->
      <g transform="translate(15.579688 83.072373)scale(0.1 -0.1)">
       <use xlink:href="#DejaVuSans-30"/>
       <use xlink:href="#DejaVuSans-2e" x="63.623047"/>
       <use xlink:href="#DejaVuSans-35" x="95.410156"/>
      </g>
     </g>
    </g>
    <g id="ytick_5">
     <g id="line2d_12">
      <g>
       <use xlink:href="#m17ce2323ee" x="38.482813" y="42.505072" style="stroke: #000000; stroke-width: 0.8"/>
      </g>
     </g>
     <g id="text_12">
      <!-- 1.0 -->
      <g transform="translate(15.579688 46.304291)scale(0.1 -0.1)">
       <use xlink:href="#DejaVuSans-31"/>
       <use xlink:href="#DejaVuSans-2e" x="63.623047"/>
       <use xlink:href="#DejaVuSans-30" x="95.410156"/>
      </g>
     </g>
    </g>
   </g>
   <g id="line2d_13">
    <path d="M 53.700994 137.178246 
L 54.005663 101.251024 
L 54.310331 106.961355 
L 54.614999 97.547609 
L 54.919668 84.008166 
L 55.224336 109.10385 
L 55.529004 85.130615 
L 55.833672 91.878157 
L 56.138341 82.792788 
L 56.747677 73.119007 
L 57.052346 104.885295 
L 57.357014 95.655081 
L 57.966351 94.040724 
L 58.271019 69.47661 
L 58.575687 61.632881 
L 59.185024 58.033433 
L 59.489692 91.537313 
L 59.79436 48.52111 
L 60.099029 70.343302 
L 60.403697 82.288998 
L 60.708365 54.087852 
L 61.013034 69.456292 
L 61.317702 75.587443 
L 61.62237 79.416337 
L 61.927039 70.77363 
L 62.231707 55.112157 
L 62.536375 46.858523 
L 62.841043 47.193359 
L 63.145712 73.340845 
L 63.45038 69.575302 
L 63.755048 33.783464 
L 64.059717 58.640527 
L 64.364385 35.467308 
L 64.669053 35.764975 
L 64.973722 69.658489 
L 65.27839 23.998781 
L 65.583058 59.642062 
L 65.887727 41.630637 
L 66.192395 54.42943 
L 66.497063 54.531698 
L 67.715736 24.435514 
L 68.020405 26.752049 
L 68.325073 53.581089 
L 68.629741 46.936871 
L 68.93441 66.955811 
L 69.239078 48.578309 
L 69.543746 17.779509 
L 69.848414 52.235435 
L 70.153083 68.621274 
L 70.457751 20.822214 
L 70.762419 49.454156 
L 71.067088 53.000656 
L 71.371756 69.102138 
L 71.676424 29.562444 
L 72.285761 49.529922 
L 72.590429 71.580244 
L 72.895098 62.864302 
L 73.199766 49.831082 
L 73.504434 68.458297 
L 73.809102 67.853669 
L 74.113771 70.521333 
L 74.418439 59.267494 
L 74.723107 36.408827 
L 75.332444 79.484727 
L 75.637112 38.847706 
L 75.941781 46.402627 
L 76.246449 78.56913 
L 76.551117 87.366453 
L 76.855785 86.951111 
L 77.160454 52.815954 
L 77.465122 59.348142 
L 77.76979 83.700116 
L 78.074459 65.38468 
L 78.379127 57.292372 
L 78.683795 98.232696 
L 78.988464 69.068188 
L 79.5978 101.868368 
L 79.902469 91.959262 
L 80.207137 109.759905 
L 80.511805 86.918426 
L 80.816473 77.314334 
L 81.121142 113.978075 
L 81.42581 103.769276 
L 81.730478 115.83623 
L 82.035147 95.721707 
L 82.339815 94.411242 
L 82.644483 100.896885 
L 82.949152 97.030402 
L 83.25382 116.758161 
L 83.558488 124.883506 
L 83.863156 129.645728 
L 84.167825 138.08834 
L 84.472493 121.546565 
L 84.777161 113.489065 
L 85.08183 137.616524 
L 86.300503 109.460214 
L 86.605171 144.404262 
L 86.90984 127.491916 
L 87.214508 136.717111 
L 87.519176 153.497505 
L 88.128513 126.753958 
L 88.433181 173.271466 
L 89.042518 126.469202 
L 89.347186 129.591162 
L 89.651854 145.692144 
L 89.956523 142.513695 
L 90.261191 168.182647 
L 90.565859 181.856963 
L 90.870527 140.743559 
L 91.175196 167.561807 
L 91.479864 161.016227 
L 91.784532 186.685874 
L 92.089201 174.916129 
L 92.393869 153.310032 
L 92.698537 147.438688 
L 93.003206 197.591319 
L 93.307874 180.71197 
L 93.612542 179.73353 
L 93.917211 165.239954 
L 94.221879 204.863077 
L 94.831215 184.268994 
L 95.135884 157.712702 
L 95.440552 198.221883 
L 95.74522 185.925345 
L 96.049889 198.612586 
L 96.354557 171.434041 
L 96.659225 178.009275 
L 97.268562 178.538695 
L 97.57323 185.845164 
L 97.877898 187.30526 
L 98.182567 205.335637 
L 98.487235 211.698356 
L 98.791903 205.431594 
L 99.096572 164.927988 
L 99.40124 211.546014 
L 99.705908 183.599594 
L 100.010577 180.460466 
L 100.315245 205.76204 
L 100.619913 168.028653 
L 100.924582 209.094824 
L 101.22925 208.48133 
L 101.533918 183.699188 
L 102.143255 165.916075 
L 102.447923 168.197978 
L 102.752591 199.743194 
L 103.05726 198.16806 
L 103.361928 182.429403 
L 103.666596 202.305528 
L 103.971265 205.701786 
L 104.275933 172.148148 
L 104.580601 189.423927 
L 104.88527 184.903958 
L 105.189938 193.444966 
L 105.494606 154.352464 
L 105.799274 181.088934 
L 106.103943 173.120991 
L 106.408611 183.54173 
L 106.713279 174.354972 
L 107.017948 161.64685 
L 107.322616 187.998036 
L 107.627284 160.547468 
L 107.931953 164.855501 
L 108.541289 177.470016 
L 108.845957 148.730857 
L 109.150626 173.130519 
L 109.455294 169.329716 
L 109.759962 151.823904 
L 110.064631 163.070327 
L 110.369299 166.40473 
L 110.673967 128.078799 
L 110.978636 124.988364 
L 111.283304 153.184342 
L 111.587972 144.466481 
L 111.892641 119.83253 
L 112.197309 125.825123 
L 112.501977 143.888636 
L 112.806645 121.393104 
L 113.111314 115.450025 
L 113.415982 123.441499 
L 113.72065 144.959659 
L 114.025319 120.005241 
L 114.329987 133.742549 
L 114.634655 130.209471 
L 114.939324 120.26823 
L 115.243992 126.588732 
L 115.54866 108.54226 
L 115.853328 118.614502 
L 116.157997 81.032111 
L 116.462665 86.129168 
L 116.767333 77.731263 
L 117.072002 77.416471 
L 117.37667 74.992152 
L 117.681338 99.680637 
L 117.986007 102.143553 
L 118.595343 78.316519 
L 118.900012 82.96283 
L 119.20468 105.911535 
L 119.509348 63.646731 
L 119.814016 67.03822 
L 120.118685 55.187279 
L 120.423353 56.633927 
L 120.728021 90.339616 
L 121.03269 64.987491 
L 121.337358 57.602565 
L 121.642026 77.384488 
L 121.946695 50.806546 
L 122.251363 71.056406 
L 122.860699 85.989122 
L 123.165368 34.98701 
L 123.470036 73.422931 
L 123.774704 79.128489 
L 124.079373 30.460044 
L 124.384041 48.633991 
L 124.688709 75.828652 
L 124.993378 62.962413 
L 125.298046 25.417307 
L 125.602714 69.276832 
L 126.212051 31.403097 
L 126.516719 52.948141 
L 126.821387 61.081828 
L 127.126056 39.889211 
L 127.430724 30.307502 
L 127.735392 37.491047 
L 128.040061 20.274675 
L 128.344729 50.249591 
L 128.954066 66.580857 
L 129.258734 25.630044 
L 129.563402 17.083636 
L 129.86807 17.748378 
L 130.172739 55.095688 
L 130.477407 56.342146 
L 130.782075 47.285089 
L 131.086744 42.806661 
L 131.391412 31.36557 
L 131.69608 42.30563 
L 132.000749 69.505528 
L 132.305417 21.925292 
L 132.610085 52.690079 
L 132.914754 30.271031 
L 133.219422 42.005368 
L 133.52409 22.582142 
L 133.828758 41.04999 
L 134.133427 73.477546 
L 134.438095 64.565026 
L 134.742763 35.091202 
L 135.047432 55.699605 
L 135.3521 38.297358 
L 135.656768 56.897406 
L 135.961437 62.550505 
L 136.266105 80.038484 
L 136.570773 36.486063 
L 136.875441 70.250229 
L 137.18011 54.92662 
L 137.484778 61.891193 
L 137.789446 47.509982 
L 138.094115 76.011794 
L 138.398783 85.626927 
L 138.703451 61.051477 
L 139.00812 48.578154 
L 139.312788 63.016493 
L 139.617456 52.197243 
L 139.922125 91.724621 
L 140.226793 69.959978 
L 140.531461 77.112418 
L 140.836129 92.740061 
L 141.140798 75.734394 
L 141.445466 73.215799 
L 141.750134 87.733005 
L 142.054803 68.532089 
L 142.664139 119.501517 
L 142.968808 113.37115 
L 143.273476 115.466927 
L 143.578144 104.201595 
L 143.882812 88.060878 
L 144.187481 110.758743 
L 144.492149 87.892464 
L 144.796817 137.154263 
L 145.101486 130.133932 
L 145.406154 107.672077 
L 145.710822 110.897408 
L 146.015491 145.407404 
L 146.320159 118.337818 
L 146.624827 121.837456 
L 146.929496 128.188533 
L 147.234164 126.672957 
L 147.538832 154.957033 
L 147.8435 143.906542 
L 148.148169 157.550257 
L 148.452837 145.705147 
L 148.757505 169.367855 
L 149.062174 123.722904 
L 149.366842 124.589402 
L 149.67151 174.644902 
L 149.976179 126.515226 
L 150.280847 147.353623 
L 150.585515 136.163236 
L 150.890184 179.920434 
L 151.194852 174.339913 
L 151.49952 162.453113 
L 151.804188 174.155746 
L 152.108857 170.968585 
L 152.413525 174.015648 
L 152.718193 144.902305 
L 153.022862 189.929558 
L 153.32753 145.998793 
L 153.632198 175.073372 
L 153.936867 148.981671 
L 154.546203 168.147224 
L 154.850871 156.524171 
L 155.15554 168.677665 
L 155.764876 178.009652 
L 156.069545 199.610364 
L 156.374213 163.429146 
L 156.678881 198.90831 
L 156.98355 186.594655 
L 157.288218 201.348649 
L 157.592886 165.114058 
L 157.897555 181.187869 
L 158.202223 173.4793 
L 158.506891 170.621285 
L 158.811559 163.518596 
L 159.116228 198.43672 
L 159.420896 206.040551 
L 159.725564 197.289539 
L 160.030233 170.186763 
L 160.334901 199.919061 
L 160.639569 202.650595 
L 160.944238 165.830475 
L 161.248906 191.572973 
L 161.553574 178.750028 
L 161.858242 189.180197 
L 162.162911 205.650336 
L 162.467579 209.985908 
L 162.772247 194.407432 
L 163.076916 167.614579 
L 163.381584 196.972681 
L 163.686252 193.482875 
L 163.990921 191.545368 
L 164.295589 159.150032 
L 164.600257 161.926892 
L 164.904926 202.735112 
L 165.209594 203.183104 
L 165.514262 170.291848 
L 165.81893 173.665332 
L 166.123599 200.787851 
L 166.428267 200.53252 
L 167.037604 166.423317 
L 167.64694 159.2218 
L 167.951609 157.226545 
L 168.256277 188.25835 
L 168.560945 181.375583 
L 168.865613 153.3708 
L 169.170282 175.936543 
L 169.47495 170.357908 
L 169.779618 133.494438 
L 170.084287 174.720203 
L 170.998292 147.644563 
L 171.30296 161.996141 
L 171.607628 154.630869 
L 171.912297 122.903309 
L 172.216965 122.775443 
L 172.521633 118.145147 
L 172.826301 157.239804 
L 173.13097 157.522132 
L 173.435638 117.077252 
L 173.740306 114.234096 
L 174.044975 106.130832 
L 174.349643 106.364032 
L 174.654311 129.260843 
L 174.95898 139.539492 
L 175.263648 129.310114 
L 175.872984 126.927364 
L 176.177653 94.597 
L 176.482321 106.070962 
L 176.786989 80.303762 
L 177.091658 99.534638 
L 177.396326 126.95934 
L 177.700994 118.124778 
L 178.005663 97.396541 
L 178.310331 95.0688 
L 178.614999 75.277054 
L 178.919668 105.522791 
L 179.224336 86.408338 
L 179.529004 86.094333 
L 179.833672 64.956402 
L 180.138341 99.386122 
L 180.443009 84.618109 
L 180.747677 102.35362 
L 181.052346 91.281745 
L 181.357014 76.003005 
L 181.661682 50.679516 
L 181.966351 88.68365 
L 182.271019 43.71681 
L 182.575687 51.893996 
L 182.880355 44.982543 
L 183.185024 57.292198 
L 183.489692 61.240136 
L 183.79436 76.992071 
L 184.099029 38.49749 
L 184.708365 81.400971 
L 185.013034 57.874164 
L 185.317702 71.16637 
L 185.62237 62.380284 
L 185.927039 76.372581 
L 186.231707 38.965588 
L 186.536375 44.781262 
L 186.841043 70.129858 
L 187.755048 29.143669 
L 188.059717 49.393674 
L 188.364385 47.492918 
L 188.669053 39.152587 
L 188.973722 61.948056 
L 189.27839 37.109002 
L 189.583058 34.500365 
L 189.887727 38.791969 
L 190.192395 19.127676 
L 190.497063 48.700364 
L 190.801731 31.974958 
L 191.1064 46.492803 
L 191.411068 31.249436 
L 191.715736 49.065641 
L 192.020405 55.321268 
L 192.325073 30.265433 
L 192.629741 44.779506 
L 192.93441 19.462074 
L 193.239078 48.057436 
L 193.543746 60.801676 
L 194.153083 37.684165 
L 194.457751 62.596075 
L 194.762419 62.349825 
L 195.067088 56.20297 
L 195.371756 61.066857 
L 195.676424 35.021298 
L 195.981093 66.864254 
L 196.285761 46.769365 
L 196.590429 46.013923 
L 196.895098 82.078858 
L 197.504434 70.659077 
L 197.809102 85.104258 
L 198.113771 81.132165 
L 198.418439 58.180134 
L 198.723107 84.845749 
L 199.332444 50.712791 
L 199.637112 50.569652 
L 200.246449 78.156756 
L 200.551117 54.420539 
L 200.855785 88.395378 
L 201.160454 78.715663 
L 201.465122 105.896617 
L 201.76979 75.310785 
L 202.074459 100.959172 
L 202.379127 95.493355 
L 202.683795 107.831275 
L 202.988464 93.047267 
L 203.293132 87.844893 
L 203.5978 112.26822 
L 203.902469 76.375354 
L 204.207137 124.533277 
L 204.511805 94.573143 
L 204.816473 125.882303 
L 205.121142 127.424799 
L 205.42581 102.717831 
L 205.730478 98.398865 
L 206.035147 103.251151 
L 206.339815 115.880373 
L 206.644483 136.70012 
L 206.949152 105.027642 
L 207.25382 102.82248 
L 207.558488 106.421913 
L 207.863156 144.917695 
L 208.167825 141.647197 
L 208.472493 156.787865 
L 208.777161 145.645077 
L 209.386498 139.50554 
L 209.691166 167.685429 
L 209.995835 125.47626 
L 210.300503 131.476236 
L 210.605171 142.066504 
L 210.90984 132.416234 
L 211.214508 178.389162 
L 211.519176 179.364079 
L 211.823844 167.40487 
L 212.128513 179.708819 
L 212.433181 173.187846 
L 212.737849 142.282729 
L 213.042518 186.969964 
L 213.347186 190.231152 
L 213.651854 148.486915 
L 214.261191 182.881303 
L 214.565859 153.584279 
L 214.870527 192.915792 
L 215.175196 193.01035 
L 215.479864 194.061798 
L 215.784532 153.76431 
L 216.089201 156.43285 
L 216.393869 191.901873 
L 216.698537 179.081753 
L 217.003206 200.1164 
L 217.307874 167.62959 
L 217.612542 204.099638 
L 217.917211 185.166844 
L 218.221879 206.878075 
L 218.526547 194.294594 
L 218.831215 174.519535 
L 219.135884 199.629031 
L 219.440552 200.98932 
L 219.74522 169.860282 
L 220.049889 214.756364 
L 220.354557 164.446748 
L 220.659225 192.747457 
L 220.963894 190.302219 
L 221.268562 199.313696 
L 221.57323 195.003862 
L 221.877898 205.825803 
L 222.182567 208.591906 
L 222.487235 207.139164 
L 222.791903 192.269824 
L 223.096572 207.868147 
L 223.40124 197.308543 
L 223.705908 205.036021 
L 224.010577 209.816554 
L 224.619913 172.26797 
L 224.924582 198.24908 
L 225.22925 208.367999 
L 225.533918 162.731066 
L 225.838586 172.723572 
L 226.143255 164.601133 
L 226.447923 166.175697 
L 226.752591 158.567945 
L 227.05726 184.691328 
L 227.361928 173.003909 
L 227.666596 174.499743 
L 227.971265 151.289585 
L 228.275933 159.840605 
L 228.580601 147.006099 
L 228.88527 181.273081 
L 229.189938 179.559448 
L 229.494606 160.409559 
L 229.799274 155.933027 
L 230.103943 168.414298 
L 230.408611 143.410447 
L 230.713279 152.60652 
L 231.017948 140.45405 
L 231.322616 156.574937 
L 231.627284 153.741127 
L 231.931953 153.320114 
L 232.236621 138.526434 
L 232.541289 138.636292 
L 232.845957 123.672354 
L 233.150626 123.34619 
L 233.455294 148.134741 
L 233.759962 135.792651 
L 234.064631 109.669207 
L 234.369299 119.999897 
L 234.673967 121.628812 
L 234.978636 117.458022 
L 235.283304 132.091561 
L 235.587972 122.690361 
L 235.892641 118.910282 
L 236.197309 138.901984 
L 236.501977 136.212084 
L 236.806645 108.313362 
L 237.111314 109.903408 
L 237.415982 114.025135 
L 237.72065 80.098401 
L 238.025319 128.674253 
L 238.634655 92.650085 
L 238.939324 81.267806 
L 239.243992 110.682599 
L 239.54866 73.078018 
L 239.853328 77.275982 
L 240.157997 78.087915 
L 241.072002 106.015601 
L 241.37667 85.010548 
L 241.681338 97.30718 
L 241.986007 64.351325 
L 242.290675 63.614024 
L 242.595343 68.122155 
L 242.900012 64.141255 
L 243.20468 74.321875 
L 243.509348 68.271333 
L 243.814016 70.174661 
L 244.118685 44.623399 
L 244.423353 74.973164 
L 244.728021 41.358991 
L 245.03269 59.956992 
L 245.337358 40.914399 
L 245.642026 43.218409 
L 245.946695 68.558369 
L 246.251363 39.876385 
L 246.556031 46.260207 
L 246.860699 74.705594 
L 247.165368 38.058022 
L 247.470036 39.308633 
L 247.774704 36.188572 
L 248.079373 29.499081 
L 248.384041 62.296918 
L 248.688709 43.651147 
L 248.993378 46.633286 
L 249.298046 32.835843 
L 249.602714 53.372855 
L 249.907383 62.467547 
L 250.212051 55.384585 
L 250.516719 21.487612 
L 250.821387 47.074954 
L 251.126056 57.613625 
L 251.430724 50.605257 
L 251.735392 37.409277 
L 252.040061 38.622463 
L 252.344729 33.051101 
L 252.649397 22.316599 
L 252.954066 57.913 
L 253.258734 31.023191 
L 253.563402 27.498877 
L 253.86807 36.064107 
L 254.172739 26.340279 
L 254.477407 40.788513 
L 254.782075 38.938608 
L 255.086744 57.435429 
L 255.69608 24.696018 
L 256.000749 66.114772 
L 256.305417 45.468953 
L 256.610085 54.41664 
L 256.914754 51.388766 
L 257.219422 74.72862 
L 257.52409 72.991799 
L 257.828758 66.609192 
L 258.133427 80.468448 
L 258.438095 56.945599 
L 258.742763 63.60309 
L 259.047432 46.124249 
L 259.3521 90.392776 
L 259.961437 78.015939 
L 260.266105 56.260372 
L 260.570773 68.869819 
L 260.875441 51.492512 
L 261.18011 61.338306 
L 261.484778 94.812882 
L 262.094115 72.877112 
L 262.398783 107.927763 
L 262.703451 66.296616 
L 263.312788 109.354265 
L 263.617456 76.725807 
L 263.922125 100.064262 
L 264.226793 74.871847 
L 264.531461 86.963369 
L 264.836129 78.184092 
L 265.140798 97.137878 
L 265.445466 94.946569 
L 265.750134 131.512638 
L 266.054803 120.913324 
L 266.359471 138.161713 
L 266.664139 118.631652 
L 266.968808 119.852169 
L 267.273476 131.996939 
L 267.578144 119.844018 
L 267.882812 141.450805 
L 268.187481 112.252943 
L 268.492149 112.150001 
L 268.796817 146.529451 
L 269.101486 145.263294 
L 269.406154 124.501149 
L 269.710822 159.945901 
L 270.015491 121.878057 
L 270.320159 166.528924 
L 270.624827 134.325226 
L 270.929496 152.400203 
L 271.234164 153.05878 
L 271.538832 164.807809 
L 271.8435 151.277453 
L 272.148169 130.194831 
L 272.452837 179.264737 
L 272.757505 178.454395 
L 273.062174 144.61218 
L 273.366842 141.623492 
L 273.67151 148.473899 
L 273.976179 167.422911 
L 274.280847 151.557578 
L 274.585515 146.674188 
L 275.49952 175.348515 
L 275.804188 192.368369 
L 276.108857 163.19835 
L 276.413525 180.868828 
L 276.718193 179.15081 
L 277.022862 204.844374 
L 277.32753 180.958341 
L 277.632198 171.083248 
L 277.936867 197.675634 
L 278.241535 184.354793 
L 278.546203 187.56946 
L 278.850871 163.544484 
L 279.15554 161.209156 
L 279.764876 180.703184 
L 280.069545 203.691126 
L 280.374213 193.535176 
L 280.678881 209.814105 
L 280.98355 206.400301 
L 281.288218 193.833552 
L 281.592886 208.906086 
L 281.897555 194.458977 
L 282.202223 165.486687 
L 282.506891 199.50952 
L 282.811559 202.215416 
L 283.116228 165.292813 
L 283.420896 205.273186 
L 284.030233 212.662258 
L 284.334901 182.326742 
L 284.639569 187.20591 
L 284.944238 174.822315 
L 285.248906 201.217702 
L 285.553574 159.871872 
L 285.858242 200.931602 
L 286.162911 198.467209 
L 286.467579 162.020515 
L 286.772247 157.112613 
L 287.381584 184.523431 
L 287.686252 153.325757 
L 287.990921 167.960631 
L 288.295589 149.143846 
L 288.600257 147.33749 
L 289.209594 179.645261 
L 289.514262 154.718513 
L 289.81893 152.456965 
L 290.123599 180.874401 
L 290.428267 180.132521 
L 290.732935 180.95895 
L 291.342272 138.959495 
L 291.64694 172.911665 
L 291.951609 173.294029 
L 292.256277 163.577098 
L 292.560945 173.601997 
L 292.865613 159.198647 
L 293.170282 121.250609 
L 293.47495 151.362262 
L 293.779618 146.111084 
L 294.084287 128.612266 
L 294.388955 149.956516 
L 294.693623 143.851738 
L 294.998292 131.600113 
L 295.607628 146.85928 
L 295.912297 114.234313 
L 296.216965 112.45493 
L 296.521633 140.81124 
L 296.826301 93.620088 
L 297.13097 137.772161 
L 297.435638 93.278918 
L 297.740306 96.574618 
L 298.044975 119.0971 
L 298.349643 129.048013 
L 298.654311 103.601026 
L 298.95898 124.798509 
L 299.263648 122.158856 
L 299.568316 79.514438 
L 299.872984 106.896137 
L 300.177653 110.864715 
L 300.482321 73.234789 
L 300.786989 71.653 
L 301.091658 66.558723 
L 301.396326 97.262644 
L 301.700994 100.16875 
L 302.005663 98.791952 
L 302.310331 94.829712 
L 302.614999 77.759442 
L 302.919668 81.383166 
L 303.224336 49.420004 
L 303.529004 74.231757 
L 303.833672 46.181021 
L 304.138341 92.55102 
L 304.443009 46.016688 
L 304.747677 77.103553 
L 305.052346 43.971784 
L 305.357014 45.974395 
L 305.661682 49.478303 
L 305.966351 35.218154 
L 306.271019 67.851372 
L 306.575687 77.882213 
L 306.880355 75.239827 
L 307.79436 28.617577 
L 308.099029 45.90389 
L 308.403697 37.837673 
L 308.708365 22.319687 
L 309.013034 58.254477 
L 309.317702 68.002767 
L 309.62237 46.145733 
L 309.927039 48.423534 
L 310.231707 45.264955 
L 310.536375 33.99798 
L 310.841043 52.82392 
L 311.145712 22.775574 
L 311.45038 64.134062 
L 312.059717 24.36209 
L 312.364385 51.515236 
L 312.669053 26.853104 
L 312.973722 56.93857 
L 313.27839 18.997381 
L 313.887727 66.928858 
L 314.192395 28.677429 
L 314.497063 41.216383 
L 314.801731 34.599748 
L 315.1064 40.031317 
L 315.411068 37.846519 
L 315.715736 21.155506 
L 316.325073 71.140925 
L 316.629741 43.070015 
L 316.93441 73.701211 
L 317.239078 75.025368 
L 317.543746 74.239331 
L 317.848414 36.481394 
L 318.153083 30.792445 
L 318.457751 66.61885 
L 318.762419 59.394606 
L 319.067088 78.382702 
L 319.371756 79.42821 
L 319.676424 65.760861 
L 319.981093 38.323249 
L 320.285761 39.919103 
L 320.590429 83.385577 
L 320.895098 86.774514 
L 321.199766 68.126621 
L 321.504434 66.815548 
L 321.809102 50.918671 
L 322.113771 63.220425 
L 322.418439 98.721841 
L 322.723107 73.002855 
L 323.027776 98.345872 
L 323.332444 80.574879 
L 323.637112 105.508331 
L 323.941781 101.217938 
L 324.551117 77.538288 
L 325.160454 95.119112 
L 325.465122 116.475038 
L 325.76979 86.933522 
L 326.074459 124.58542 
L 326.379127 107.253384 
L 326.683795 134.122283 
L 326.988464 106.342824 
L 327.293132 106.69241 
L 327.5978 139.224158 
L 327.902469 102.219163 
L 328.207137 125.934262 
L 328.511805 105.676567 
L 328.816473 123.109473 
L 329.121142 107.886048 
L 329.42581 137.312609 
L 329.730478 151.587412 
L 330.035147 142.108897 
L 330.644483 150.287133 
L 330.949152 138.197956 
L 331.25382 151.373747 
L 331.558488 148.203759 
L 331.863156 158.521696 
L 332.167825 137.075 
L 332.777161 154.606815 
L 333.386498 169.857277 
L 333.691166 164.46155 
L 333.995835 174.461844 
L 334.300503 156.55408 
L 334.605171 182.392345 
L 334.90984 157.264883 
L 335.214508 190.363605 
L 335.519176 144.313722 
L 335.823844 161.09231 
L 336.128513 187.123112 
L 336.433181 161.129098 
L 336.737849 193.352754 
L 337.042518 190.578566 
L 337.347186 153.040127 
L 337.651854 196.680143 
L 337.956523 199.998248 
L 338.261191 168.632516 
L 338.565859 168.331256 
L 338.870527 178.621956 
L 339.175196 203.962127 
L 339.479864 168.687652 
L 339.784532 176.883877 
L 340.089201 179.26598 
L 340.393869 197.773414 
L 340.698537 197.976057 
L 341.003206 205.53099 
L 341.307874 179.125406 
L 341.612542 203.049982 
L 341.917211 205.999276 
L 342.221879 191.415826 
L 342.526547 171.329145 
L 343.135884 179.450043 
L 343.440552 212.457827 
L 343.74522 166.258148 
L 344.049889 193.260086 
L 344.354557 163.118277 
L 344.659225 200.067072 
L 344.963894 178.057827 
L 345.268562 180.654721 
L 345.57323 189.275896 
L 345.877898 205.13442 
L 346.182567 164.232584 
L 346.487235 195.919837 
L 346.791903 187.164048 
L 347.096572 185.196805 
L 347.40124 182.034574 
L 347.705908 168.072108 
L 348.010577 163.038523 
L 348.315245 185.867135 
L 348.619913 177.891806 
L 348.924582 158.425606 
L 349.22925 148.549126 
L 349.533918 183.77153 
L 349.838586 185.514942 
L 350.143255 186.574554 
L 350.447923 155.645753 
L 350.752591 140.706123 
L 351.05726 160.486609 
L 351.361928 168.809087 
L 351.666596 183.586949 
L 351.971265 157.019566 
L 352.275933 164.389259 
L 352.580601 177.54446 
L 352.88527 154.90141 
L 353.189938 156.933894 
L 353.494606 169.534296 
L 354.103943 124.699455 
L 354.713279 157.099666 
L 355.017948 138.833789 
L 355.322616 131.164042 
L 355.627284 142.580058 
L 355.931953 146.99382 
L 356.236621 112.378323 
L 356.541289 117.944958 
L 356.845957 126.550136 
L 357.150626 144.248107 
L 357.455294 108.343328 
L 357.759962 118.791861 
L 358.064631 98.40224 
L 358.064631 98.40224 
" clip-path="url(#p4a47957ba8)" style="fill: none; stroke: #1f77b4; stroke-width: 1.5; stroke-linecap: square"/>
   </g>
   <g id="patch_3">
    <path d="M 38.482813 224.64 
L 38.482813 7.2 
" style="fill: none; stroke: #000000; stroke-width: 0.8; stroke-linejoin: miter; stroke-linecap: square"/>
   </g>
   <g id="patch_4">
    <path d="M 373.282813 224.64 
L 373.282813 7.2 
" style="fill: none; stroke: #000000; stroke-width: 0.8; stroke-linejoin: miter; stroke-linecap: square"/>
   </g>
   <g id="patch_5">
    <path d="M 38.482813 224.64 
L 373.282813 224.64 
" style="fill: none; stroke: #000000; stroke-width: 0.8; stroke-linejoin: miter; stroke-linecap: square"/>
   </g>
   <g id="patch_6">
    <path d="M 38.482813 7.2 
L 373.282813 7.2 
" style="fill: none; stroke: #000000; stroke-width: 0.8; stroke-linejoin: miter; stroke-linecap: square"/>
   </g>
  </g>
 </g>
 <defs>
  <clipPath id="p4a47957ba8">
   <rect x="38.482813" y="7.2" width="334.8" height="217.44"/>
  </clipPath>
 </defs>
</svg>
