<?xml version="1.0" encoding="utf-8" standalone="no"?>
<!DOCTYPE svg PUBLIC "-//W3C//DTD SVG 1.1//EN"
  "http://www.w3.org/Graphics/SVG/1.1/DTD/svg11.dtd">
<svg height="248.518125pt" version="1.1" viewBox="0 0 380.482813 248.518125" width="380.482813pt" xmlns="http://www.w3.org/2000/svg" xmlns:xlink="http://www.w3.org/1999/xlink">
 <metadata>
  <rdf:RDF xmlns:cc="http://creativecommons.org/ns#" xmlns:dc="http://purl.org/dc/elements/1.1/" xmlns:rdf="http://www.w3.org/1999/02/22-rdf-syntax-ns#">
   <cc:Work>
    <dc:type rdf:resource="http://purl.org/dc/dcmitype/StillImage"/>
    <dc:date>2022-05-19T18:59:58.058335</dc:date>
    <dc:format>image/svg+xml</dc:format>
    <dc:creator>
     <cc:Agent>
      <dc:title>Matplotlib v3.4.3, https://matplotlib.org/</dc:title>
     </cc:Agent>
    </dc:creator>
   </cc:Work>
  </rdf:RDF>
 </metadata>
 <defs>
  <style type="text/css">*{stroke-linecap:butt;stroke-linejoin:round;}</style>
 </defs>
 <g id="figure_1">
  <g id="patch_1">
   <path d="M -0 248.518125 
L 380.482813 248.518125 
L 380.482813 0 
L -0 0 
z
" style="fill:none;"/>
  </g>
  <g id="axes_1">
   <g id="patch_2">
    <path d="M 38.482813 224.64 
L 373.282813 224.64 
L 373.282813 7.2 
L 38.482813 7.2 
z
" style="fill:#ffffff;"/>
   </g>
   <g id="matplotlib.axis_1">
    <g id="xtick_1">
     <g id="line2d_1">
      <defs>
       <path d="M 0 0 
L 0 3.5 
" id="m17f7e27349" style="stroke:#000000;stroke-width:0.8;"/>
      </defs>
      <g>
       <use style="stroke:#000000;stroke-width:0.8;" x="53.395715" xlink:href="#m17f7e27349" y="224.64"/>
      </g>
     </g>
     <g id="text_1">
      <!-- 0 -->
      <g transform="translate(50.214465 239.238437)scale(0.1 -0.1)">
       <defs>
        <path d="M 2034 4250 
Q 1547 4250 1301 3770 
Q 1056 3291 1056 2328 
Q 1056 1369 1301 889 
Q 1547 409 2034 409 
Q 2525 409 2770 889 
Q 3016 1369 3016 2328 
Q 3016 3291 2770 3770 
Q 2525 4250 2034 4250 
z
M 2034 4750 
Q 2819 4750 3233 4129 
Q 3647 3509 3647 2328 
Q 3647 1150 3233 529 
Q 2819 -91 2034 -91 
Q 1250 -91 836 529 
Q 422 1150 422 2328 
Q 422 3509 836 4129 
Q 1250 4750 2034 4750 
z
" id="DejaVuSans-30" transform="scale(0.015625)"/>
       </defs>
       <use xlink:href="#DejaVuSans-30"/>
      </g>
     </g>
    </g>
    <g id="xtick_2">
     <g id="line2d_2">
      <g>
       <use style="stroke:#000000;stroke-width:0.8;" x="101.933866" xlink:href="#m17f7e27349" y="224.64"/>
      </g>
     </g>
     <g id="text_2">
      <!-- 5 -->
      <g transform="translate(98.752616 239.238437)scale(0.1 -0.1)">
       <defs>
        <path d="M 691 4666 
L 3169 4666 
L 3169 4134 
L 1269 4134 
L 1269 2991 
Q 1406 3038 1543 3061 
Q 1681 3084 1819 3084 
Q 2600 3084 3056 2656 
Q 3513 2228 3513 1497 
Q 3513 744 3044 326 
Q 2575 -91 1722 -91 
Q 1428 -91 1123 -41 
Q 819 9 494 109 
L 494 744 
Q 775 591 1075 516 
Q 1375 441 1709 441 
Q 2250 441 2565 725 
Q 2881 1009 2881 1497 
Q 2881 1984 2565 2268 
Q 2250 2553 1709 2553 
Q 1456 2553 1204 2497 
Q 953 2441 691 2322 
L 691 4666 
z
" id="DejaVuSans-35" transform="scale(0.015625)"/>
       </defs>
       <use xlink:href="#DejaVuSans-35"/>
      </g>
     </g>
    </g>
    <g id="xtick_3">
     <g id="line2d_3">
      <g>
       <use style="stroke:#000000;stroke-width:0.8;" x="150.472016" xlink:href="#m17f7e27349" y="224.64"/>
      </g>
     </g>
     <g id="text_3">
      <!-- 10 -->
      <g transform="translate(144.109516 239.238437)scale(0.1 -0.1)">
       <defs>
        <path d="M 794 531 
L 1825 531 
L 1825 4091 
L 703 3866 
L 703 4441 
L 1819 4666 
L 2450 4666 
L 2450 531 
L 3481 531 
L 3481 0 
L 794 0 
L 794 531 
z
" id="DejaVuSans-31" transform="scale(0.015625)"/>
       </defs>
       <use xlink:href="#DejaVuSans-31"/>
       <use x="63.623047" xlink:href="#DejaVuSans-30"/>
      </g>
     </g>
    </g>
    <g id="xtick_4">
     <g id="line2d_4">
      <g>
       <use style="stroke:#000000;stroke-width:0.8;" x="199.010167" xlink:href="#m17f7e27349" y="224.64"/>
      </g>
     </g>
     <g id="text_4">
      <!-- 15 -->
      <g transform="translate(192.647667 239.238437)scale(0.1 -0.1)">
       <use xlink:href="#DejaVuSans-31"/>
       <use x="63.623047" xlink:href="#DejaVuSans-35"/>
      </g>
     </g>
    </g>
    <g id="xtick_5">
     <g id="line2d_5">
      <g>
       <use style="stroke:#000000;stroke-width:0.8;" x="247.548318" xlink:href="#m17f7e27349" y="224.64"/>
      </g>
     </g>
     <g id="text_5">
      <!-- 20 -->
      <g transform="translate(241.185818 239.238437)scale(0.1 -0.1)">
       <defs>
        <path d="M 1228 531 
L 3431 531 
L 3431 0 
L 469 0 
L 469 531 
Q 828 903 1448 1529 
Q 2069 2156 2228 2338 
Q 2531 2678 2651 2914 
Q 2772 3150 2772 3378 
Q 2772 3750 2511 3984 
Q 2250 4219 1831 4219 
Q 1534 4219 1204 4116 
Q 875 4013 500 3803 
L 500 4441 
Q 881 4594 1212 4672 
Q 1544 4750 1819 4750 
Q 2544 4750 2975 4387 
Q 3406 4025 3406 3419 
Q 3406 3131 3298 2873 
Q 3191 2616 2906 2266 
Q 2828 2175 2409 1742 
Q 1991 1309 1228 531 
z
" id="DejaVuSans-32" transform="scale(0.015625)"/>
       </defs>
       <use xlink:href="#DejaVuSans-32"/>
       <use x="63.623047" xlink:href="#DejaVuSans-30"/>
      </g>
     </g>
    </g>
    <g id="xtick_6">
     <g id="line2d_6">
      <g>
       <use style="stroke:#000000;stroke-width:0.8;" x="296.086468" xlink:href="#m17f7e27349" y="224.64"/>
      </g>
     </g>
     <g id="text_6">
      <!-- 25 -->
      <g transform="translate(289.723968 239.238437)scale(0.1 -0.1)">
       <use xlink:href="#DejaVuSans-32"/>
       <use x="63.623047" xlink:href="#DejaVuSans-35"/>
      </g>
     </g>
    </g>
    <g id="xtick_7">
     <g id="line2d_7">
      <g>
       <use style="stroke:#000000;stroke-width:0.8;" x="344.624619" xlink:href="#m17f7e27349" y="224.64"/>
      </g>
     </g>
     <g id="text_7">
      <!-- 30 -->
      <g transform="translate(338.262119 239.238437)scale(0.1 -0.1)">
       <defs>
        <path d="M 2597 2516 
Q 3050 2419 3304 2112 
Q 3559 1806 3559 1356 
Q 3559 666 3084 287 
Q 2609 -91 1734 -91 
Q 1441 -91 1130 -33 
Q 819 25 488 141 
L 488 750 
Q 750 597 1062 519 
Q 1375 441 1716 441 
Q 2309 441 2620 675 
Q 2931 909 2931 1356 
Q 2931 1769 2642 2001 
Q 2353 2234 1838 2234 
L 1294 2234 
L 1294 2753 
L 1863 2753 
Q 2328 2753 2575 2939 
Q 2822 3125 2822 3475 
Q 2822 3834 2567 4026 
Q 2313 4219 1838 4219 
Q 1578 4219 1281 4162 
Q 984 4106 628 3988 
L 628 4550 
Q 988 4650 1302 4700 
Q 1616 4750 1894 4750 
Q 2613 4750 3031 4423 
Q 3450 4097 3450 3541 
Q 3450 3153 3228 2886 
Q 3006 2619 2597 2516 
z
" id="DejaVuSans-33" transform="scale(0.015625)"/>
       </defs>
       <use xlink:href="#DejaVuSans-33"/>
       <use x="63.623047" xlink:href="#DejaVuSans-30"/>
      </g>
     </g>
    </g>
   </g>
   <g id="matplotlib.axis_2">
    <g id="ytick_1">
     <g id="line2d_8">
      <defs>
       <path d="M 0 0 
L -3.5 0 
" id="mf1d650a796" style="stroke:#000000;stroke-width:0.8;"/>
      </defs>
      <g>
       <use style="stroke:#000000;stroke-width:0.8;" x="38.482813" xlink:href="#mf1d650a796" y="193.047213"/>
      </g>
     </g>
     <g id="text_8">
      <!-- −1.0 -->
      <g transform="translate(7.2 196.846432)scale(0.1 -0.1)">
       <defs>
        <path d="M 678 2272 
L 4684 2272 
L 4684 1741 
L 678 1741 
L 678 2272 
z
" id="DejaVuSans-2212" transform="scale(0.015625)"/>
        <path d="M 684 794 
L 1344 794 
L 1344 0 
L 684 0 
L 684 794 
z
" id="DejaVuSans-2e" transform="scale(0.015625)"/>
       </defs>
       <use xlink:href="#DejaVuSans-2212"/>
       <use x="83.789062" xlink:href="#DejaVuSans-31"/>
       <use x="147.412109" xlink:href="#DejaVuSans-2e"/>
       <use x="179.199219" xlink:href="#DejaVuSans-30"/>
      </g>
     </g>
    </g>
    <g id="ytick_2">
     <g id="line2d_9">
      <g>
       <use style="stroke:#000000;stroke-width:0.8;" x="38.482813" xlink:href="#mf1d650a796" y="153.998751"/>
      </g>
     </g>
     <g id="text_9">
      <!-- −0.5 -->
      <g transform="translate(7.2 157.797969)scale(0.1 -0.1)">
       <use xlink:href="#DejaVuSans-2212"/>
       <use x="83.789062" xlink:href="#DejaVuSans-30"/>
       <use x="147.412109" xlink:href="#DejaVuSans-2e"/>
       <use x="179.199219" xlink:href="#DejaVuSans-35"/>
      </g>
     </g>
    </g>
    <g id="ytick_3">
     <g id="line2d_10">
      <g>
       <use style="stroke:#000000;stroke-width:0.8;" x="38.482813" xlink:href="#mf1d650a796" y="114.950288"/>
      </g>
     </g>
     <g id="text_10">
      <!-- 0.0 -->
      <g transform="translate(15.579688 118.749507)scale(0.1 -0.1)">
       <use xlink:href="#DejaVuSans-30"/>
       <use x="63.623047" xlink:href="#DejaVuSans-2e"/>
       <use x="95.410156" xlink:href="#DejaVuSans-30"/>
      </g>
     </g>
    </g>
    <g id="ytick_4">
     <g id="line2d_11">
      <g>
       <use style="stroke:#000000;stroke-width:0.8;" x="38.482813" xlink:href="#mf1d650a796" y="75.901825"/>
      </g>
     </g>
     <g id="text_11">
      <!-- 0.5 -->
      <g transform="translate(15.579688 79.701044)scale(0.1 -0.1)">
       <use xlink:href="#DejaVuSans-30"/>
       <use x="63.623047" xlink:href="#DejaVuSans-2e"/>
       <use x="95.410156" xlink:href="#DejaVuSans-35"/>
      </g>
     </g>
    </g>
    <g id="ytick_5">
     <g id="line2d_12">
      <g>
       <use style="stroke:#000000;stroke-width:0.8;" x="38.482813" xlink:href="#mf1d650a796" y="36.853363"/>
      </g>
     </g>
     <g id="text_12">
      <!-- 1.0 -->
      <g transform="translate(15.579688 40.652581)scale(0.1 -0.1)">
       <use xlink:href="#DejaVuSans-31"/>
       <use x="63.623047" xlink:href="#DejaVuSans-2e"/>
       <use x="95.410156" xlink:href="#DejaVuSans-30"/>
      </g>
     </g>
    </g>
   </g>
   <g id="line2d_13">
    <path clip-path="url(#p1b86e1cc46)" d="M 53.700994 117.858968 
L 54.006274 117.931754 
L 54.311553 118.605111 
L 54.616833 117.931754 
L 54.922112 115.354914 
L 55.227392 101.571719 
L 55.532671 101.571719 
L 55.837951 95.887389 
L 56.14323 82.622304 
L 56.44851 82.326681 
L 56.753789 82.326681 
L 57.059069 94.156956 
L 57.364348 97.441203 
L 57.669627 94.156956 
L 57.974907 80.300946 
L 58.280186 80.057355 
L 58.585466 80.057355 
L 58.890745 71.853854 
L 59.196025 71.853854 
L 59.501304 72.865916 
L 59.806584 72.865916 
L 60.111863 69.571141 
L 60.417143 69.332951 
L 60.722422 69.332951 
L 61.027702 68.376101 
L 61.332981 68.376101 
L 61.638261 63.401584 
L 61.94354 52.817978 
L 62.554099 52.817978 
L 62.859379 36.532472 
L 63.164658 36.532472 
L 63.469938 58.537279 
L 63.775217 61.790996 
L 64.385776 56.323453 
L 64.691055 43.63745 
L 64.996335 39.233852 
L 65.301614 38.41804 
L 65.606894 39.233852 
L 65.912173 38.41804 
L 66.217453 41.183609 
L 66.828012 41.183609 
L 67.133291 17.266942 
L 67.438571 17.266942 
L 67.74385 34.304079 
L 68.04913 40.653266 
L 68.354409 42.615376 
L 68.659689 52.719916 
L 69.270248 52.719916 
L 69.575527 17.489221 
L 69.880806 48.233659 
L 70.186086 45.927486 
L 70.491365 45.927486 
L 70.796645 40.610957 
L 71.101924 32.202283 
L 71.407204 32.202283 
L 71.712483 50.912532 
L 72.017763 50.912532 
L 72.323042 50.238715 
L 72.933601 50.238715 
L 73.238881 67.611692 
L 73.84944 67.611692 
L 74.154719 37.113405 
L 74.459999 37.113405 
L 75.070558 67.132451 
L 75.375837 67.132451 
L 75.681117 80.563557 
L 75.986396 68.979308 
L 76.291675 84.931964 
L 76.596955 85.715168 
L 77.207514 85.715168 
L 77.512793 66.219586 
L 78.123352 66.219586 
L 78.428632 64.342678 
L 78.733911 96.892795 
L 79.039191 81.973916 
L 79.34447 89.41144 
L 79.64975 81.973916 
L 79.955029 67.827755 
L 80.260309 67.827755 
L 80.565588 72.250949 
L 80.870868 72.252868 
L 81.176147 74.639719 
L 81.481427 74.639719 
L 81.786706 106.061139 
L 82.397265 106.061139 
L 82.702544 102.380336 
L 83.007824 104.077607 
L 83.313103 102.380336 
L 83.618383 104.077607 
L 83.923662 128.746935 
L 84.228942 131.515026 
L 84.839501 131.515026 
L 85.14478 113.125878 
L 85.45006 135.573262 
L 85.755339 135.573262 
L 86.060619 144.841102 
L 86.365898 144.841102 
L 86.671178 151.509048 
L 86.976457 135.438501 
L 87.281737 126.875951 
L 87.587016 126.875951 
L 87.892295 131.95952 
L 88.197575 166.373642 
L 88.502854 139.506866 
L 88.808134 143.612841 
L 89.113413 141.315987 
L 89.723972 141.315987 
L 90.334531 174.992587 
L 90.639811 174.992587 
L 90.94509 171.046205 
L 91.25037 168.927833 
L 91.555649 147.307295 
L 91.860929 147.307295 
L 92.166208 149.140178 
L 92.776767 159.558892 
L 93.082047 154.496995 
L 93.387326 164.336312 
L 93.692606 164.336312 
L 94.303164 187.155225 
L 94.913723 187.155225 
L 95.219003 178.316114 
L 95.524282 197.331304 
L 95.829562 196.428209 
L 96.440121 196.428209 
L 96.7454 178.607219 
L 97.05068 199.876055 
L 97.355959 196.57403 
L 97.661239 207.397435 
L 97.966518 196.57403 
L 98.271798 211.055403 
L 98.577077 178.296169 
L 98.882357 179.793958 
L 99.187636 179.793958 
L 99.492916 189.12715 
L 99.798195 211.285959 
L 100.103474 189.12715 
L 100.408754 184.011776 
L 100.714033 184.011776 
L 101.019313 193.222494 
L 101.324592 193.222494 
L 101.629872 186.297922 
L 101.935151 186.297922 
L 102.240431 205.246237 
L 102.54571 205.246237 
L 103.156269 179.78075 
L 103.461549 178.517998 
L 103.766828 179.78075 
L 104.072108 196.516696 
L 104.682667 196.516696 
L 104.987946 167.001777 
L 105.293226 191.083972 
L 105.598505 180.150557 
L 106.209064 180.150557 
L 106.514343 162.041723 
L 106.819623 190.454099 
L 107.124902 162.041723 
L 107.430182 160.388022 
L 107.735461 156.128434 
L 108.040741 156.128434 
L 108.34602 139.766416 
L 108.6513 159.302253 
L 108.956579 157.784996 
L 109.567138 157.784996 
L 109.872418 141.924386 
L 110.177697 163.799468 
L 110.482977 147.752582 
L 110.788256 156.406186 
L 111.398815 156.406186 
L 111.704095 157.667025 
L 112.009374 150.758156 
L 112.314653 150.758156 
L 112.619933 139.562517 
L 112.925212 109.513243 
L 113.230492 102.819593 
L 113.535771 109.513243 
L 113.841051 99.261662 
L 114.14633 102.890636 
L 114.45161 102.890636 
L 114.756889 129.473188 
L 115.062169 129.473188 
L 115.367448 96.862801 
L 115.672728 96.862801 
L 115.978007 93.074621 
L 116.283287 108.526754 
L 116.588566 98.047408 
L 117.199125 98.047408 
L 117.504405 87.619763 
L 117.809684 87.154319 
L 118.114963 72.499476 
L 118.420243 66.856436 
L 118.725522 72.499476 
L 119.030802 66.856436 
L 119.336081 75.597722 
L 119.641361 75.597722 
L 119.94664 86.970028 
L 120.25192 86.970028 
L 120.862479 81.177538 
L 121.167758 79.31458 
L 121.473038 53.00518 
L 122.083597 53.00518 
L 122.388876 83.289397 
L 122.694156 51.741212 
L 122.999435 72.02237 
L 123.304715 69.664316 
L 123.609994 69.664316 
L 124.831112 46.640591 
L 125.136391 43.259306 
L 125.74695 33.221545 
L 126.357509 33.221545 
L 126.662789 26.832245 
L 126.968068 23.601707 
L 127.273348 23.601707 
L 127.578627 34.114686 
L 127.883907 36.654381 
L 128.189186 34.114686 
L 128.494466 25.302862 
L 128.799745 25.302862 
L 129.105025 55.997668 
L 129.410304 55.997668 
L 129.715584 50.952996 
L 130.020863 50.216676 
L 130.326142 39.757763 
L 130.631422 39.757763 
L 130.936701 43.649977 
L 131.241981 43.649977 
L 131.54726 33.352227 
L 131.85254 32.220137 
L 132.157819 17.083636 
L 132.463099 32.220137 
L 132.768378 53.62382 
L 133.073658 54.375995 
L 133.684217 54.375995 
L 133.989496 53.148783 
L 134.600055 37.349091 
L 134.905335 43.717889 
L 135.210614 62.250387 
L 135.515894 62.250387 
L 135.821173 47.807835 
L 136.126453 47.807835 
L 136.431732 67.71581 
L 136.737011 69.58083 
L 137.042291 67.71581 
L 137.34757 63.377158 
L 137.65285 63.377158 
L 137.958129 69.757344 
L 138.263409 85.535391 
L 138.568688 89.371427 
L 138.873968 85.535391 
L 139.179247 90.666112 
L 139.484527 80.184412 
L 140.095086 80.184412 
L 140.400365 63.191376 
L 140.705645 73.501074 
L 141.010924 73.501074 
L 141.316204 75.259618 
L 141.621483 78.347244 
L 141.926763 78.347244 
L 142.232042 90.409868 
L 142.842601 97.609232 
L 143.45316 97.609232 
L 143.758439 112.51215 
L 144.063719 113.726957 
L 144.368998 113.726957 
L 144.674278 121.048613 
L 145.284837 121.048613 
L 145.590116 115.718192 
L 145.895396 115.718192 
L 146.200675 137.280842 
L 146.505955 137.280842 
L 146.811234 114.939722 
L 147.116514 112.129414 
L 147.421793 112.971746 
L 147.727073 112.971746 
L 148.032352 115.228959 
L 148.337632 140.471156 
L 148.642911 149.31214 
L 148.94819 149.31214 
L 149.25347 153.057705 
L 149.864029 153.057705 
L 150.474588 161.13071 
L 150.779867 165.630606 
L 151.085147 165.780988 
L 151.390426 187.771899 
L 151.695706 187.771899 
L 152.000985 185.183075 
L 152.306265 167.552883 
L 152.611544 167.552883 
L 152.916824 194.114586 
L 153.527383 196.858504 
L 153.832662 197.14567 
L 154.137942 197.14567 
L 154.443221 192.490358 
L 154.7485 174.364103 
L 155.05378 192.490358 
L 155.359059 186.878684 
L 155.664339 186.878684 
L 155.969618 174.22791 
L 156.274898 174.22791 
L 156.580177 183.795592 
L 156.885457 183.795592 
L 157.190736 195.92886 
L 157.496016 179.342551 
L 157.801295 187.051276 
L 158.106575 187.051276 
L 158.411854 187.248768 
L 158.717134 200.977327 
L 159.022413 200.977327 
L 159.327693 197.442591 
L 159.632972 195.879138 
L 159.938252 197.442591 
L 160.243531 195.879138 
L 160.54881 176.602053 
L 160.85409 170.046893 
L 161.159369 175.720683 
L 161.769928 175.720683 
L 162.075208 195.311664 
L 162.380487 194.679548 
L 162.685767 195.311664 
L 162.991046 200.762016 
L 163.296326 200.762016 
L 163.601605 200.029776 
L 163.906885 185.538933 
L 164.212164 177.191522 
L 164.517444 177.191522 
L 164.822723 168.968153 
L 165.128003 181.31401 
L 165.433282 169.168103 
L 166.043841 169.227721 
L 166.349121 170.782018 
L 166.6544 197.418842 
L 166.959679 197.418842 
L 167.264959 182.458815 
L 167.875518 182.458815 
L 168.180797 192.447789 
L 168.486077 168.718907 
L 168.791356 182.347856 
L 169.096636 151.44394 
L 169.401915 140.176058 
L 169.707195 140.176058 
L 170.012474 133.815204 
L 170.317754 149.14075 
L 170.928313 149.14075 
L 171.233592 137.373267 
L 171.538872 131.862565 
L 171.844151 129.41008 
L 172.149431 129.41008 
L 172.45471 153.193942 
L 172.759989 153.193942 
L 173.370548 116.700181 
L 173.675828 111.748782 
L 173.981107 110.783096 
L 174.286387 111.748782 
L 174.591666 110.783096 
L 174.896946 105.262684 
L 175.202225 105.262684 
L 175.507505 114.508434 
L 175.812784 134.728464 
L 176.118064 123.712566 
L 176.423343 123.712566 
L 176.728623 118.635898 
L 177.033902 118.328511 
L 177.339182 118.635898 
L 177.644461 118.328511 
L 177.949741 116.045496 
L 178.25502 94.199221 
L 178.5603 89.791481 
L 178.865579 89.791481 
L 179.170858 100.042468 
L 179.476138 100.042468 
L 179.781417 74.887082 
L 180.086697 69.978473 
L 180.391976 73.912674 
L 180.697256 69.978473 
L 181.002535 73.912674 
L 181.307815 64.777379 
L 181.918374 64.777379 
L 182.223653 67.91337 
L 182.528933 67.91337 
L 182.834212 66.413644 
L 183.139492 52.505986 
L 183.444771 66.413644 
L 183.750051 51.488561 
L 184.36061 51.488561 
L 184.665889 52.428682 
L 184.971168 52.428682 
L 185.276448 51.302292 
L 185.581727 48.217713 
L 185.887007 48.20928 
L 186.192286 43.559919 
L 186.497566 31.759748 
L 186.802845 31.759748 
L 187.108125 28.641081 
L 187.413404 28.641081 
L 187.718684 28.481555 
L 188.023963 28.481555 
L 188.329243 52.582634 
L 188.634522 60.940168 
L 188.939802 52.582634 
L 189.245081 27.604901 
L 189.550361 26.156268 
L 189.85564 26.156268 
L 190.16092 45.267019 
L 190.466199 45.42888 
L 190.771478 45.267019 
L 191.076758 57.245507 
L 191.382037 24.683121 
L 191.687317 30.852745 
L 191.992596 30.852745 
L 192.297876 38.015618 
L 192.603155 38.015618 
L 192.908435 32.386007 
L 193.518994 32.386007 
L 193.824273 31.720537 
L 194.129553 31.720537 
L 194.434832 32.715213 
L 194.740112 32.715213 
L 195.045391 26.153115 
L 195.350671 26.153115 
L 195.65595 40.286831 
L 195.96123 47.982388 
L 196.266509 47.982388 
L 196.571789 52.953623 
L 197.182347 52.953623 
L 197.487627 43.765554 
L 197.792906 46.148129 
L 198.098186 43.765554 
L 198.403465 46.148129 
L 198.708745 52.974137 
L 199.014024 52.974137 
L 199.624583 75.926551 
L 199.929863 75.926551 
L 200.235142 73.049144 
L 200.540422 64.728597 
L 200.845701 64.728597 
L 201.150981 94.148299 
L 201.45626 94.148299 
L 201.76154 80.562043 
L 202.066819 75.185396 
L 202.372099 75.185396 
L 202.677378 74.71404 
L 202.982657 91.982426 
L 203.287937 76.987533 
L 203.593216 91.982426 
L 203.898496 95.084913 
L 204.203775 95.084913 
L 204.509055 90.452098 
L 205.119614 90.452098 
L 205.424893 98.291759 
L 205.730173 92.775288 
L 206.035452 110.697532 
L 206.340732 145.415845 
L 206.646011 145.415845 
L 206.951291 129.554841 
L 207.25657 129.554841 
L 207.56185 121.147115 
L 207.867129 148.482211 
L 208.172409 121.147115 
L 208.477688 126.30295 
L 208.782968 126.30295 
L 209.088247 136.715003 
L 209.698806 136.715003 
L 210.004085 144.533668 
L 210.309365 148.040464 
L 210.614644 144.533668 
L 210.919924 165.620109 
L 211.225203 168.658109 
L 211.835762 181.460254 
L 212.141042 181.460254 
L 212.446321 169.726917 
L 213.05688 169.726917 
L 213.667439 178.957151 
L 213.972719 178.957151 
L 214.277998 188.599343 
L 214.583278 176.158317 
L 214.888557 188.599343 
L 215.193836 192.876173 
L 215.499116 202.67401 
L 215.804395 202.67401 
L 216.109675 166.384746 
L 216.414954 166.007901 
L 216.720234 166.007901 
L 217.025513 179.172997 
L 217.330793 181.959579 
L 217.636072 187.661446 
L 217.941352 181.959579 
L 218.246631 198.973262 
L 218.85719 198.973262 
L 219.16247 181.912255 
L 219.467749 181.912255 
L 219.773029 178.603501 
L 220.078308 208.942564 
L 220.688867 208.942564 
L 220.994147 191.531299 
L 221.299426 191.531299 
L 221.604705 188.49832 
L 221.909985 197.410097 
L 222.215264 196.234779 
L 222.520544 197.410097 
L 222.825823 196.234779 
L 223.131103 183.187727 
L 223.741662 183.187727 
L 224.046941 187.151026 
L 224.352221 173.550317 
L 224.6575 187.151026 
L 224.96278 193.30533 
L 225.268059 193.30533 
L 225.573339 195.846374 
L 225.878618 168.814089 
L 226.183898 186.971633 
L 226.794457 186.971633 
L 227.099736 181.863039 
L 227.405015 155.212475 
L 227.710295 155.212475 
L 228.015574 160.628562 
L 228.320854 160.628562 
L 228.626133 160.159883 
L 228.931413 160.159883 
L 229.236692 151.342502 
L 229.541972 161.096632 
L 229.847251 151.342502 
L 230.152531 163.49734 
L 230.45781 146.137238 
L 230.76309 168.060872 
L 231.068369 162.899015 
L 231.373649 162.899015 
L 231.678928 149.58983 
L 231.984208 149.58983 
L 232.289487 162.292066 
L 232.594767 163.07884 
L 232.900046 162.292066 
L 233.205325 163.07884 
L 233.510605 136.247455 
L 233.815884 142.627926 
L 234.426443 142.627926 
L 234.731723 148.207159 
L 235.037002 127.726713 
L 235.342282 127.677047 
L 235.647561 120.424458 
L 235.952841 103.755503 
L 236.25812 103.755503 
L 236.5634 115.629023 
L 237.173959 115.629023 
L 237.479238 102.027767 
L 238.089797 89.358998 
L 238.700356 89.358998 
L 239.005636 101.303067 
L 239.310915 101.303067 
L 239.921474 75.693713 
L 240.226753 75.693713 
L 240.837312 57.459144 
L 241.142592 65.854122 
L 241.447871 69.603314 
L 241.753151 81.397561 
L 242.05843 81.397561 
L 242.36371 79.029952 
L 242.668989 59.004511 
L 242.974269 49.234881 
L 243.279548 49.234881 
L 243.584828 62.756505 
L 243.890107 62.756505 
L 244.195387 51.927127 
L 244.500666 51.927127 
L 244.805946 63.075 
L 245.111225 63.075 
L 245.416504 64.678243 
L 245.721784 28.079897 
L 246.027063 56.45739 
L 246.332343 53.085345 
L 246.942902 53.085345 
L 247.248181 57.197836 
L 247.553461 57.197836 
L 248.16402 53.468098 
L 248.469299 29.839898 
L 248.774579 29.839898 
L 249.079858 19.705459 
L 249.385138 21.603925 
L 249.690417 21.603925 
L 249.995697 44.20823 
L 250.300976 51.627398 
L 250.606256 53.228587 
L 250.911535 53.228587 
L 251.216815 27.421025 
L 251.522094 27.421025 
L 252.132653 44.008936 
L 252.437932 44.008936 
L 252.743212 53.241185 
L 253.048491 53.241185 
L 253.353771 39.470572 
L 253.65905 39.470572 
L 253.96433 38.325118 
L 254.574889 38.325118 
L 254.880168 41.964938 
L 255.185448 41.964938 
L 255.490727 28.150359 
L 255.796007 21.350372 
L 256.101286 28.150359 
L 256.406566 27.92165 
L 256.711845 60.74616 
L 257.017125 60.74616 
L 257.322404 60.986159 
L 257.627683 60.986159 
L 257.932963 48.060165 
L 258.238242 48.060165 
L 258.543522 59.742372 
L 258.848801 59.742372 
L 259.154081 70.338392 
L 259.45936 51.134944 
L 259.76464 60.638513 
L 260.375199 60.638513 
L 260.680478 77.15399 
L 261.596317 98.332737 
L 261.901596 98.165168 
L 262.206876 101.252898 
L 262.512155 98.165168 
L 262.817435 86.240781 
L 263.427993 86.240781 
L 263.733273 83.334378 
L 264.038552 83.334378 
L 264.649111 117.813236 
L 264.954391 121.821909 
L 265.25967 117.813236 
L 265.56495 107.763533 
L 265.870229 105.095619 
L 266.175509 105.095619 
L 266.480788 108.678002 
L 266.786068 139.751009 
L 267.091347 139.751009 
L 267.701906 135.22171 
L 268.312465 135.22171 
L 268.617745 137.674334 
L 268.923024 113.230122 
L 269.228304 130.63537 
L 269.533583 115.386555 
L 269.838862 130.63537 
L 270.144142 123.694133 
L 270.449421 147.022109 
L 270.754701 130.213828 
L 271.05998 135.00672 
L 271.36526 135.00672 
L 271.670539 163.717765 
L 271.975819 166.549388 
L 272.281098 163.717765 
L 272.586378 152.650103 
L 272.891657 152.650103 
L 273.196937 165.743374 
L 273.502216 165.743374 
L 274.112775 154.724885 
L 274.418055 154.724885 
L 274.723334 174.109231 
L 275.028614 176.940406 
L 275.333893 178.123101 
L 275.639172 187.631096 
L 276.249731 187.631096 
L 276.555011 181.811448 
L 277.16557 181.811448 
L 277.470849 169.418269 
L 277.776129 200.605772 
L 278.386688 200.605772 
L 278.691967 196.266311 
L 278.997247 196.191786 
L 279.302526 196.266311 
L 279.913085 201.413384 
L 280.218365 198.995442 
L 280.523644 201.413384 
L 280.828924 205.074292 
L 281.134203 205.074292 
L 281.439483 191.438739 
L 282.050041 191.438739 
L 282.355321 206.180935 
L 282.6606 194.872049 
L 283.271159 194.872049 
L 283.576439 186.730327 
L 284.186998 186.730327 
L 284.492277 197.244995 
L 284.797557 203.85937 
L 285.102836 197.244995 
L 285.408116 193.349416 
L 285.713395 173.148212 
L 286.018675 173.148212 
L 286.323954 169.838318 
L 286.629234 194.019729 
L 286.934513 175.684697 
L 287.239793 188.334736 
L 287.545072 175.684697 
L 287.850351 172.71205 
L 288.155631 172.71205 
L 288.46091 170.328819 
L 288.76619 190.085548 
L 289.071469 189.833757 
L 289.376749 195.35722 
L 289.682028 189.833757 
L 289.987308 180.436529 
L 290.292587 177.729399 
L 290.597867 177.729399 
L 290.903146 142.410947 
L 291.208426 164.858926 
L 291.818985 164.858926 
L 292.124264 156.43799 
L 292.429544 156.43799 
L 292.734823 157.998775 
L 293.040103 157.998775 
L 293.650662 129.15526 
L 294.26122 129.095613 
L 294.5665 118.646215 
L 294.871779 118.646215 
L 295.177059 119.797014 
L 295.482338 149.113393 
L 295.787618 149.113393 
L 296.398177 119.17778 
L 297.008736 96.566452 
L 297.314015 93.251782 
L 297.619295 96.566452 
L 297.924574 94.275165 
L 298.229854 116.885143 
L 298.535133 101.290951 
L 298.840413 101.290951 
L 299.145692 101.121871 
L 299.450972 82.361424 
L 299.756251 101.121871 
L 300.06153 89.563518 
L 300.672089 89.563518 
L 300.977369 76.905406 
L 301.282648 92.110282 
L 301.587928 85.082537 
L 301.893207 88.856545 
L 302.198487 85.082537 
L 302.503766 72.833085 
L 303.114325 72.833085 
L 303.419605 65.588011 
L 303.724884 65.588011 
L 304.030164 47.135435 
L 304.335443 72.079281 
L 304.640723 72.678251 
L 304.946002 72.678251 
L 305.556561 53.212225 
L 305.86184 54.657616 
L 306.472399 54.657616 
L 306.777679 27.118929 
L 307.082958 25.502293 
L 307.388238 27.118929 
L 307.693517 49.965613 
L 307.998797 57.695174 
L 308.304076 49.965613 
L 308.609356 57.695174 
L 308.914635 22.217642 
L 309.219915 30.250266 
L 309.525194 30.250266 
L 309.830474 36.700169 
L 310.135753 40.369936 
L 310.441033 48.233649 
L 310.746312 52.405719 
L 311.051592 52.405719 
L 311.96743 22.798897 
L 312.272709 29.999914 
L 312.577989 34.305051 
L 312.883268 40.737535 
L 313.188548 37.384158 
L 313.493827 37.384158 
L 313.799107 27.325006 
L 314.104386 27.325006 
L 314.409666 31.632864 
L 315.020225 31.632864 
L 315.325504 27.489552 
L 315.630784 36.989738 
L 315.936063 36.886477 
L 316.241343 37.371905 
L 316.851902 37.371905 
L 317.157181 38.582628 
L 317.462461 38.582628 
L 317.76774 50.325221 
L 318.073019 50.645425 
L 318.378299 50.645425 
L 318.988858 43.535751 
L 319.294137 46.857623 
L 319.599417 56.132194 
L 319.904696 56.132194 
L 320.209976 69.460544 
L 320.820535 69.460544 
L 321.125814 69.619657 
L 321.431094 60.675031 
L 322.041653 76.872717 
L 322.346932 76.872717 
L 322.652212 70.093755 
L 322.957491 70.093755 
L 323.56805 79.686051 
L 323.87333 79.686051 
L 324.178609 81.580142 
L 324.483888 92.149366 
L 325.094447 92.149366 
L 325.399727 107.494764 
L 325.705006 112.200994 
L 326.010286 112.200994 
L 326.315565 115.58598 
L 326.926124 115.58598 
L 327.231404 116.47917 
L 327.536683 95.96832 
L 327.841963 116.47917 
L 328.147242 121.160455 
L 328.452522 121.160455 
L 328.757801 109.302904 
L 329.063081 103.536368 
L 329.36836 103.536368 
L 329.67364 152.916452 
L 329.978919 152.916452 
L 330.284198 124.495501 
L 330.589478 124.495501 
L 330.894757 157.207525 
L 331.200037 157.207525 
L 331.505316 145.616769 
L 332.115875 145.616769 
L 332.421155 133.637616 
L 332.726434 133.637616 
L 333.031714 147.370522 
L 333.336993 178.516334 
L 333.642273 178.516334 
L 333.947552 175.927403 
L 334.252832 175.927403 
L 334.558111 159.59126 
L 334.863391 177.202098 
L 335.16867 185.625838 
L 335.47395 187.772726 
L 335.779229 185.625838 
L 336.084508 190.641317 
L 336.695067 163.50949 
L 337.305626 163.50949 
L 338.221465 176.551444 
L 338.526744 176.551444 
L 338.832024 193.112768 
L 339.137303 174.667993 
L 339.442583 172.91935 
L 339.747862 172.91935 
L 340.053142 214.756364 
L 340.358421 214.756364 
L 340.663701 198.690652 
L 340.96898 194.680376 
L 341.27426 174.513824 
L 341.579539 190.480888 
L 342.190098 190.480888 
L 342.495377 172.282987 
L 342.800657 172.282987 
L 343.105936 172.817226 
L 343.411216 175.509716 
L 343.716495 187.212892 
L 344.021775 193.105178 
L 344.327054 195.150407 
L 344.632334 193.105178 
L 344.937613 192.735462 
L 345.242893 192.735462 
L 345.548172 198.418744 
L 345.853452 198.418744 
L 346.158731 186.325242 
L 346.464011 181.053697 
L 346.76929 179.901056 
L 347.07457 181.053697 
L 347.379849 199.172023 
L 347.685129 205.00009 
L 347.990408 205.00009 
L 348.295687 181.134227 
L 348.600967 181.134227 
L 348.906246 178.023268 
L 349.211526 167.693553 
L 349.516805 167.693553 
L 349.822085 190.894107 
L 350.127364 190.894107 
L 350.432644 189.523729 
L 350.737923 169.352262 
L 351.043203 168.476003 
L 351.348482 144.636388 
L 351.653762 144.636388 
L 351.959041 164.357061 
L 352.264321 172.625452 
L 352.5696 164.357061 
L 352.87488 172.625452 
L 353.180159 133.960774 
L 353.485439 133.640097 
L 353.790718 133.640097 
L 354.095998 141.147271 
L 354.401277 141.147271 
L 354.706556 152.723385 
L 355.011836 141.132847 
L 355.317115 155.12261 
L 355.622395 153.616563 
L 355.927674 153.616563 
L 357.148792 106.06423 
L 357.454072 106.06423 
L 357.759351 124.731523 
L 358.064631 124.731523 
L 358.064631 124.731523 
" style="fill:none;stroke:#1f77b4;stroke-linecap:square;stroke-width:1.5;"/>
   </g>
   <g id="patch_3">
    <path d="M 38.482813 224.64 
L 38.482813 7.2 
" style="fill:none;stroke:#000000;stroke-linecap:square;stroke-linejoin:miter;stroke-width:0.8;"/>
   </g>
   <g id="patch_4">
    <path d="M 373.282813 224.64 
L 373.282813 7.2 
" style="fill:none;stroke:#000000;stroke-linecap:square;stroke-linejoin:miter;stroke-width:0.8;"/>
   </g>
   <g id="patch_5">
    <path d="M 38.482813 224.64 
L 373.282813 224.64 
" style="fill:none;stroke:#000000;stroke-linecap:square;stroke-linejoin:miter;stroke-width:0.8;"/>
   </g>
   <g id="patch_6">
    <path d="M 38.482813 7.2 
L 373.282813 7.2 
" style="fill:none;stroke:#000000;stroke-linecap:square;stroke-linejoin:miter;stroke-width:0.8;"/>
   </g>
  </g>
 </g>
 <defs>
  <clipPath id="p1b86e1cc46">
   <rect height="217.44" width="334.8" x="38.482813" y="7.2"/>
  </clipPath>
 </defs>
</svg>
