<?xml version="1.0" encoding="utf-8" standalone="no"?>
<!DOCTYPE svg PUBLIC "-//W3C//DTD SVG 1.1//EN"
  "http://www.w3.org/Graphics/SVG/1.1/DTD/svg11.dtd">
<svg height="262.19625pt" version="1.1" viewBox="0 0 389.1875 262.19625" width="389.1875pt" xmlns="http://www.w3.org/2000/svg" xmlns:xlink="http://www.w3.org/1999/xlink">
 <metadata>
  <rdf:RDF xmlns:cc="http://creativecommons.org/ns#" xmlns:dc="http://purl.org/dc/elements/1.1/" xmlns:rdf="http://www.w3.org/1999/02/22-rdf-syntax-ns#">
   <cc:Work>
    <dc:type rdf:resource="http://purl.org/dc/dcmitype/StillImage"/>
    <dc:date>2022-05-20T12:49:09.719174</dc:date>
    <dc:format>image/svg+xml</dc:format>
    <dc:creator>
     <cc:Agent>
      <dc:title>Matplotlib v3.4.3, https://matplotlib.org/</dc:title>
     </cc:Agent>
    </dc:creator>
   </cc:Work>
  </rdf:RDF>
 </metadata>
 <defs>
  <style type="text/css">*{stroke-linecap:butt;stroke-linejoin:round;}</style>
 </defs>
 <g id="figure_1">
  <g id="patch_1">
   <path d="M 0 262.19625 
L 389.1875 262.19625 
L 389.1875 0 
L 0 0 
z
" style="fill:none;"/>
  </g>
  <g id="axes_1">
   <g id="patch_2">
    <path d="M 47.1875 224.64 
L 381.9875 224.64 
L 381.9875 7.2 
L 47.1875 7.2 
z
" style="fill:#ffffff;"/>
   </g>
   <g id="PathCollection_1">
    <defs>
     <path d="M 0 3 
C 0.795609 3 1.55874 2.683901 2.12132 2.12132 
C 2.683901 1.55874 3 0.795609 3 0 
C 3 -0.795609 2.683901 -1.55874 2.12132 -2.12132 
C 1.55874 -2.683901 0.795609 -3 0 -3 
C -0.795609 -3 -1.55874 -2.683901 -2.12132 -2.12132 
C -2.683901 -1.55874 -3 -0.795609 -3 0 
C -3 0.795609 -2.683901 1.55874 -2.12132 2.12132 
C -1.55874 2.683901 -0.795609 3 0 3 
z
" id="m6b5a20fef5" style="stroke:#1f77b4;stroke-opacity:0.8;"/>
    </defs>
    <g clip-path="url(#p3d9c9d8c6f)">
     <use style="fill:#1f77b4;fill-opacity:0.8;stroke:#1f77b4;stroke-opacity:0.8;" x="62.405682" xlink:href="#m6b5a20fef5" y="164.253073"/>
     <use style="fill:#1f77b4;fill-opacity:0.8;stroke:#1f77b4;stroke-opacity:0.8;" x="93.282195" xlink:href="#m6b5a20fef5" y="154.068573"/>
     <use style="fill:#1f77b4;fill-opacity:0.8;stroke:#1f77b4;stroke-opacity:0.8;" x="124.158709" xlink:href="#m6b5a20fef5" y="138.400112"/>
     <use style="fill:#1f77b4;fill-opacity:0.8;stroke:#1f77b4;stroke-opacity:0.8;" x="155.013215" xlink:href="#m6b5a20fef5" y="122.731651"/>
     <use style="fill:#1f77b4;fill-opacity:0.8;stroke:#1f77b4;stroke-opacity:0.8;" x="185.889728" xlink:href="#m6b5a20fef5" y="106.279766"/>
     <use style="fill:#1f77b4;fill-opacity:0.8;stroke:#1f77b4;stroke-opacity:0.8;" x="216.766242" xlink:href="#m6b5a20fef5" y="92.178151"/>
     <use style="fill:#1f77b4;fill-opacity:0.8;stroke:#1f77b4;stroke-opacity:0.8;" x="247.620748" xlink:href="#m6b5a20fef5" y="77.293113"/>
     <use style="fill:#1f77b4;fill-opacity:0.8;stroke:#1f77b4;stroke-opacity:0.8;" x="278.497261" xlink:href="#m6b5a20fef5" y="62.408075"/>
     <use style="fill:#1f77b4;fill-opacity:0.8;stroke:#1f77b4;stroke-opacity:0.8;" x="309.351767" xlink:href="#m6b5a20fef5" y="49.089883"/>
     <use style="fill:#1f77b4;fill-opacity:0.8;stroke:#1f77b4;stroke-opacity:0.8;" x="340.228281" xlink:href="#m6b5a20fef5" y="33.421422"/>
     <use style="fill:#1f77b4;fill-opacity:0.8;stroke:#1f77b4;stroke-opacity:0.8;" x="150.677739" xlink:href="#m6b5a20fef5" y="186.972342"/>
     <use style="fill:#1f77b4;fill-opacity:0.8;stroke:#1f77b4;stroke-opacity:0.8;" x="181.554252" xlink:href="#m6b5a20fef5" y="161.119381"/>
     <use style="fill:#1f77b4;fill-opacity:0.8;stroke:#1f77b4;stroke-opacity:0.8;" x="212.430766" xlink:href="#m6b5a20fef5" y="138.400112"/>
     <use style="fill:#1f77b4;fill-opacity:0.8;stroke:#1f77b4;stroke-opacity:0.8;" x="243.285272" xlink:href="#m6b5a20fef5" y="116.464266"/>
     <use style="fill:#1f77b4;fill-opacity:0.8;stroke:#1f77b4;stroke-opacity:0.8;" x="274.161785" xlink:href="#m6b5a20fef5" y="96.87869"/>
     <use style="fill:#1f77b4;fill-opacity:0.8;stroke:#1f77b4;stroke-opacity:0.8;" x="305.038299" xlink:href="#m6b5a20fef5" y="78.859959"/>
     <use style="fill:#1f77b4;fill-opacity:0.8;stroke:#1f77b4;stroke-opacity:0.8;" x="335.892805" xlink:href="#m6b5a20fef5" y="61.624652"/>
     <use style="fill:#1f77b4;fill-opacity:0.8;stroke:#1f77b4;stroke-opacity:0.8;" x="366.769318" xlink:href="#m6b5a20fef5" y="45.956191"/>
     <use style="fill:#1f77b4;fill-opacity:0.8;stroke:#1f77b4;stroke-opacity:0.8;" x="181.554252" xlink:href="#m6b5a20fef5" y="165.819919"/>
     <use style="fill:#1f77b4;fill-opacity:0.8;stroke:#1f77b4;stroke-opacity:0.8;" x="243.285272" xlink:href="#m6b5a20fef5" y="123.515074"/>
     <use style="fill:#1f77b4;fill-opacity:0.8;stroke:#1f77b4;stroke-opacity:0.8;" x="150.677739" xlink:href="#m6b5a20fef5" y="193.239726"/>
     <use style="fill:#1f77b4;fill-opacity:0.8;stroke:#1f77b4;stroke-opacity:0.8;" x="212.430766" xlink:href="#m6b5a20fef5" y="152.501727"/>
     <use style="fill:#1f77b4;fill-opacity:0.8;stroke:#1f77b4;stroke-opacity:0.8;" x="155.013215" xlink:href="#m6b5a20fef5" y="130.565881"/>
     <use style="fill:#1f77b4;fill-opacity:0.8;stroke:#1f77b4;stroke-opacity:0.8;" x="155.013215" xlink:href="#m6b5a20fef5" y="150.151458"/>
     <use style="fill:#1f77b4;fill-opacity:0.8;stroke:#1f77b4;stroke-opacity:0.8;" x="185.889728" xlink:href="#m6b5a20fef5" y="112.547151"/>
     <use style="fill:#1f77b4;fill-opacity:0.8;stroke:#1f77b4;stroke-opacity:0.8;" x="216.766242" xlink:href="#m6b5a20fef5" y="109.413459"/>
     <use style="fill:#1f77b4;fill-opacity:0.8;stroke:#1f77b4;stroke-opacity:0.8;" x="247.620748" xlink:href="#m6b5a20fef5" y="105.496343"/>
     <use style="fill:#1f77b4;fill-opacity:0.8;stroke:#1f77b4;stroke-opacity:0.8;" x="199.006195" xlink:href="#m6b5a20fef5" y="72.592575"/>
     <use style="fill:#1f77b4;fill-opacity:0.8;stroke:#1f77b4;stroke-opacity:0.8;" x="229.882708" xlink:href="#m6b5a20fef5" y="56.924114"/>
     <use style="fill:#1f77b4;fill-opacity:0.8;stroke:#1f77b4;stroke-opacity:0.8;" x="291.613728" xlink:href="#m6b5a20fef5" y="42.822499"/>
    </g>
   </g>
   <g id="PolyCollection_1">
    <path clip-path="url(#p3d9c9d8c6f)" d="M 62.405682 169.318694 
L 62.405682 214.756364 
L 65.480062 212.929012 
L 68.554442 211.098646 
L 71.628822 209.268279 
L 74.703202 207.437913 
L 77.777583 205.607547 
L 80.851963 203.777181 
L 83.926343 201.946815 
L 87.000723 200.116449 
L 90.075103 198.286083 
L 93.149483 196.454897 
L 96.223864 194.622201 
L 99.298244 192.789504 
L 102.372624 190.956807 
L 105.447004 189.124111 
L 108.521384 187.291414 
L 111.595764 185.457805 
L 114.670145 183.534461 
L 117.744525 181.435608 
L 120.818905 179.282014 
L 123.893285 177.090738 
L 126.967665 174.903326 
L 130.042045 173.034831 
L 133.116426 171.131588 
L 136.190806 169.266043 
L 139.265186 167.266316 
L 142.339566 165.490346 
L 145.413946 163.707915 
L 148.488326 161.686715 
L 151.562707 159.725123 
L 154.637087 157.87606 
L 157.711467 155.912387 
L 160.785847 153.933485 
L 163.860227 151.952137 
L 166.934607 149.967123 
L 170.008988 148.126769 
L 173.083368 146.27166 
L 176.157748 144.441248 
L 179.232128 142.423326 
L 182.306508 140.415755 
L 185.380888 138.675636 
L 188.455269 136.876065 
L 191.529649 135.118736 
L 194.604029 133.403019 
L 197.678409 131.552906 
L 200.752789 129.880002 
L 203.827169 128.332008 
L 206.90155 126.510177 
L 209.97593 124.811257 
L 213.05031 122.82134 
L 216.12469 121.532267 
L 219.19907 119.840563 
L 222.27345 117.94016 
L 225.347831 116.137787 
L 228.422211 114.440905 
L 231.496591 112.750004 
L 234.570971 111.328922 
L 237.645351 109.824839 
L 240.719731 108.161866 
L 243.794112 106.766326 
L 246.868492 105.212373 
L 249.942872 103.623662 
L 253.017252 102.01837 
L 256.091632 100.584585 
L 259.166012 99.109751 
L 262.240393 97.66395 
L 265.314773 96.034303 
L 268.389153 94.531197 
L 271.463533 93.161973 
L 274.537913 91.645665 
L 277.612293 90.22562 
L 280.686674 88.808097 
L 283.761054 87.387081 
L 286.835434 85.962343 
L 289.909814 84.539408 
L 292.984194 83.115518 
L 296.058574 81.620478 
L 299.132955 80.186446 
L 302.207335 78.85013 
L 305.281715 77.431131 
L 308.356095 76.001487 
L 311.430475 74.588195 
L 314.504855 73.216311 
L 317.579236 71.896811 
L 320.653616 70.444612 
L 323.727996 68.97265 
L 326.802376 67.545433 
L 329.876756 66.097337 
L 332.951136 64.721979 
L 336.025517 63.422701 
L 339.099897 62.15329 
L 342.174277 60.766058 
L 345.248657 59.447369 
L 348.323037 58.099392 
L 351.397417 56.737517 
L 354.471798 55.3348 
L 357.546178 54.015184 
L 360.620558 52.725509 
L 363.694938 51.433585 
L 366.769318 50.079076 
L 366.769318 17.083636 
L 366.769318 17.083636 
L 363.694938 19.071687 
L 360.620558 21.022479 
L 357.546178 22.928601 
L 354.471798 24.961591 
L 351.397417 26.678115 
L 348.323037 28.403426 
L 345.248657 30.538341 
L 342.174277 32.366552 
L 339.099897 34.082498 
L 336.025517 35.854179 
L 332.951136 37.74269 
L 329.876756 39.767788 
L 326.802376 41.519267 
L 323.727996 43.256663 
L 320.653616 45.217355 
L 317.579236 47.150677 
L 314.504855 49.070664 
L 311.430475 50.94406 
L 308.356095 52.716497 
L 305.281715 54.521899 
L 302.207335 56.382094 
L 299.132955 58.287451 
L 296.058574 60.217021 
L 292.984194 62.106283 
L 289.909814 63.807818 
L 286.835434 65.550773 
L 283.761054 67.372693 
L 280.686674 69.126291 
L 277.612293 70.797189 
L 274.537913 72.431336 
L 271.463533 73.913953 
L 268.389153 75.514911 
L 265.314773 77.017441 
L 262.240393 78.609893 
L 259.166012 80.26448 
L 256.091632 81.768032 
L 253.017252 83.200829 
L 249.942872 84.70992 
L 246.868492 86.066758 
L 243.794112 87.50044 
L 240.719731 89.076808 
L 237.645351 90.637267 
L 234.570971 92.117385 
L 231.496591 93.592647 
L 228.422211 95.07399 
L 225.347831 96.545763 
L 222.27345 98.132431 
L 219.19907 99.639519 
L 216.12469 101.252627 
L 213.05031 102.770504 
L 209.97593 104.197156 
L 206.90155 105.621504 
L 203.827169 107.054024 
L 200.752789 108.470004 
L 197.678409 109.88629 
L 194.604029 111.301964 
L 191.529649 112.720697 
L 188.455269 114.134196 
L 185.380888 115.552348 
L 182.306508 117.017273 
L 179.232128 118.441525 
L 176.157748 119.837652 
L 173.083368 121.221338 
L 170.008988 122.633898 
L 166.934607 124.041522 
L 163.860227 125.426284 
L 160.785847 126.724495 
L 157.711467 128.022706 
L 154.637087 129.393075 
L 151.562707 130.706632 
L 148.488326 131.969282 
L 145.413946 133.366957 
L 142.339566 134.809877 
L 139.265186 136.232702 
L 136.190806 137.664868 
L 133.116426 138.977225 
L 130.042045 140.359312 
L 126.967665 141.744712 
L 123.893285 143.130112 
L 120.818905 144.515512 
L 117.744525 145.900912 
L 114.670145 147.286519 
L 111.595764 148.662506 
L 108.521384 149.951998 
L 105.447004 151.197744 
L 102.372624 152.443491 
L 99.298244 153.800495 
L 96.223864 155.111082 
L 93.149483 156.355587 
L 90.075103 157.659741 
L 87.000723 158.997885 
L 83.926343 160.2874 
L 80.851963 161.576915 
L 77.777583 162.86643 
L 74.703202 164.155945 
L 71.628822 165.44546 
L 68.554442 166.735713 
L 65.480062 168.027203 
L 62.405682 169.318694 
z
" style="fill:#1f77b4;fill-opacity:0.15;"/>
   </g>
   <g id="matplotlib.axis_1">
    <g id="xtick_1">
     <g id="line2d_1">
      <defs>
       <path d="M 0 0 
L 0 3.5 
" id="maec143fb37" style="stroke:#000000;stroke-width:0.8;"/>
      </defs>
      <g>
       <use style="stroke:#000000;stroke-width:0.8;" x="79.923647" xlink:href="#maec143fb37" y="224.64"/>
      </g>
     </g>
     <g id="text_1">
      <!-- 40 -->
      <g transform="translate(73.561147 239.238438)scale(0.1 -0.1)">
       <defs>
        <path d="M 2419 4116 
L 825 1625 
L 2419 1625 
L 2419 4116 
z
M 2253 4666 
L 3047 4666 
L 3047 1625 
L 3713 1625 
L 3713 1100 
L 3047 1100 
L 3047 0 
L 2419 0 
L 2419 1100 
L 313 1100 
L 313 1709 
L 2253 4666 
z
" id="DejaVuSans-34" transform="scale(0.015625)"/>
        <path d="M 2034 4250 
Q 1547 4250 1301 3770 
Q 1056 3291 1056 2328 
Q 1056 1369 1301 889 
Q 1547 409 2034 409 
Q 2525 409 2770 889 
Q 3016 1369 3016 2328 
Q 3016 3291 2770 3770 
Q 2525 4250 2034 4250 
z
M 2034 4750 
Q 2819 4750 3233 4129 
Q 3647 3509 3647 2328 
Q 3647 1150 3233 529 
Q 2819 -91 2034 -91 
Q 1250 -91 836 529 
Q 422 1150 422 2328 
Q 422 3509 836 4129 
Q 1250 4750 2034 4750 
z
" id="DejaVuSans-30" transform="scale(0.015625)"/>
       </defs>
       <use xlink:href="#DejaVuSans-34"/>
       <use x="63.623047" xlink:href="#DejaVuSans-30"/>
      </g>
     </g>
    </g>
    <g id="xtick_2">
     <g id="line2d_2">
      <g>
       <use style="stroke:#000000;stroke-width:0.8;" x="123.938634" xlink:href="#maec143fb37" y="224.64"/>
      </g>
     </g>
     <g id="text_2">
      <!-- 60 -->
      <g transform="translate(117.576134 239.238438)scale(0.1 -0.1)">
       <defs>
        <path d="M 2113 2584 
Q 1688 2584 1439 2293 
Q 1191 2003 1191 1497 
Q 1191 994 1439 701 
Q 1688 409 2113 409 
Q 2538 409 2786 701 
Q 3034 994 3034 1497 
Q 3034 2003 2786 2293 
Q 2538 2584 2113 2584 
z
M 3366 4563 
L 3366 3988 
Q 3128 4100 2886 4159 
Q 2644 4219 2406 4219 
Q 1781 4219 1451 3797 
Q 1122 3375 1075 2522 
Q 1259 2794 1537 2939 
Q 1816 3084 2150 3084 
Q 2853 3084 3261 2657 
Q 3669 2231 3669 1497 
Q 3669 778 3244 343 
Q 2819 -91 2113 -91 
Q 1303 -91 875 529 
Q 447 1150 447 2328 
Q 447 3434 972 4092 
Q 1497 4750 2381 4750 
Q 2619 4750 2861 4703 
Q 3103 4656 3366 4563 
z
" id="DejaVuSans-36" transform="scale(0.015625)"/>
       </defs>
       <use xlink:href="#DejaVuSans-36"/>
       <use x="63.623047" xlink:href="#DejaVuSans-30"/>
      </g>
     </g>
    </g>
    <g id="xtick_3">
     <g id="line2d_3">
      <g>
       <use style="stroke:#000000;stroke-width:0.8;" x="167.953621" xlink:href="#maec143fb37" y="224.64"/>
      </g>
     </g>
     <g id="text_3">
      <!-- 80 -->
      <g transform="translate(161.591121 239.238438)scale(0.1 -0.1)">
       <defs>
        <path d="M 2034 2216 
Q 1584 2216 1326 1975 
Q 1069 1734 1069 1313 
Q 1069 891 1326 650 
Q 1584 409 2034 409 
Q 2484 409 2743 651 
Q 3003 894 3003 1313 
Q 3003 1734 2745 1975 
Q 2488 2216 2034 2216 
z
M 1403 2484 
Q 997 2584 770 2862 
Q 544 3141 544 3541 
Q 544 4100 942 4425 
Q 1341 4750 2034 4750 
Q 2731 4750 3128 4425 
Q 3525 4100 3525 3541 
Q 3525 3141 3298 2862 
Q 3072 2584 2669 2484 
Q 3125 2378 3379 2068 
Q 3634 1759 3634 1313 
Q 3634 634 3220 271 
Q 2806 -91 2034 -91 
Q 1263 -91 848 271 
Q 434 634 434 1313 
Q 434 1759 690 2068 
Q 947 2378 1403 2484 
z
M 1172 3481 
Q 1172 3119 1398 2916 
Q 1625 2713 2034 2713 
Q 2441 2713 2670 2916 
Q 2900 3119 2900 3481 
Q 2900 3844 2670 4047 
Q 2441 4250 2034 4250 
Q 1625 4250 1398 4047 
Q 1172 3844 1172 3481 
z
" id="DejaVuSans-38" transform="scale(0.015625)"/>
       </defs>
       <use xlink:href="#DejaVuSans-38"/>
       <use x="63.623047" xlink:href="#DejaVuSans-30"/>
      </g>
     </g>
    </g>
    <g id="xtick_4">
     <g id="line2d_4">
      <g>
       <use style="stroke:#000000;stroke-width:0.8;" x="211.968608" xlink:href="#maec143fb37" y="224.64"/>
      </g>
     </g>
     <g id="text_4">
      <!-- 100 -->
      <g transform="translate(202.424858 239.238438)scale(0.1 -0.1)">
       <defs>
        <path d="M 794 531 
L 1825 531 
L 1825 4091 
L 703 3866 
L 703 4441 
L 1819 4666 
L 2450 4666 
L 2450 531 
L 3481 531 
L 3481 0 
L 794 0 
L 794 531 
z
" id="DejaVuSans-31" transform="scale(0.015625)"/>
       </defs>
       <use xlink:href="#DejaVuSans-31"/>
       <use x="63.623047" xlink:href="#DejaVuSans-30"/>
       <use x="127.246094" xlink:href="#DejaVuSans-30"/>
      </g>
     </g>
    </g>
    <g id="xtick_5">
     <g id="line2d_5">
      <g>
       <use style="stroke:#000000;stroke-width:0.8;" x="255.983595" xlink:href="#maec143fb37" y="224.64"/>
      </g>
     </g>
     <g id="text_5">
      <!-- 120 -->
      <g transform="translate(246.439845 239.238438)scale(0.1 -0.1)">
       <defs>
        <path d="M 1228 531 
L 3431 531 
L 3431 0 
L 469 0 
L 469 531 
Q 828 903 1448 1529 
Q 2069 2156 2228 2338 
Q 2531 2678 2651 2914 
Q 2772 3150 2772 3378 
Q 2772 3750 2511 3984 
Q 2250 4219 1831 4219 
Q 1534 4219 1204 4116 
Q 875 4013 500 3803 
L 500 4441 
Q 881 4594 1212 4672 
Q 1544 4750 1819 4750 
Q 2544 4750 2975 4387 
Q 3406 4025 3406 3419 
Q 3406 3131 3298 2873 
Q 3191 2616 2906 2266 
Q 2828 2175 2409 1742 
Q 1991 1309 1228 531 
z
" id="DejaVuSans-32" transform="scale(0.015625)"/>
       </defs>
       <use xlink:href="#DejaVuSans-31"/>
       <use x="63.623047" xlink:href="#DejaVuSans-32"/>
       <use x="127.246094" xlink:href="#DejaVuSans-30"/>
      </g>
     </g>
    </g>
    <g id="xtick_6">
     <g id="line2d_6">
      <g>
       <use style="stroke:#000000;stroke-width:0.8;" x="299.998583" xlink:href="#maec143fb37" y="224.64"/>
      </g>
     </g>
     <g id="text_6">
      <!-- 140 -->
      <g transform="translate(290.454833 239.238438)scale(0.1 -0.1)">
       <use xlink:href="#DejaVuSans-31"/>
       <use x="63.623047" xlink:href="#DejaVuSans-34"/>
       <use x="127.246094" xlink:href="#DejaVuSans-30"/>
      </g>
     </g>
    </g>
    <g id="xtick_7">
     <g id="line2d_7">
      <g>
       <use style="stroke:#000000;stroke-width:0.8;" x="344.01357" xlink:href="#maec143fb37" y="224.64"/>
      </g>
     </g>
     <g id="text_7">
      <!-- 160 -->
      <g transform="translate(334.46982 239.238438)scale(0.1 -0.1)">
       <use xlink:href="#DejaVuSans-31"/>
       <use x="63.623047" xlink:href="#DejaVuSans-36"/>
       <use x="127.246094" xlink:href="#DejaVuSans-30"/>
      </g>
     </g>
    </g>
    <g id="text_8">
     <!-- MW, g/mol -->
     <g transform="translate(187.974219 252.916563)scale(0.1 -0.1)">
      <defs>
       <path d="M 628 4666 
L 1569 4666 
L 2759 1491 
L 3956 4666 
L 4897 4666 
L 4897 0 
L 4281 0 
L 4281 4097 
L 3078 897 
L 2444 897 
L 1241 4097 
L 1241 0 
L 628 0 
L 628 4666 
z
" id="DejaVuSans-4d" transform="scale(0.015625)"/>
       <path d="M 213 4666 
L 850 4666 
L 1831 722 
L 2809 4666 
L 3519 4666 
L 4500 722 
L 5478 4666 
L 6119 4666 
L 4947 0 
L 4153 0 
L 3169 4050 
L 2175 0 
L 1381 0 
L 213 4666 
z
" id="DejaVuSans-57" transform="scale(0.015625)"/>
       <path d="M 750 794 
L 1409 794 
L 1409 256 
L 897 -744 
L 494 -744 
L 750 256 
L 750 794 
z
" id="DejaVuSans-2c" transform="scale(0.015625)"/>
       <path id="DejaVuSans-20" transform="scale(0.015625)"/>
       <path d="M 2906 1791 
Q 2906 2416 2648 2759 
Q 2391 3103 1925 3103 
Q 1463 3103 1205 2759 
Q 947 2416 947 1791 
Q 947 1169 1205 825 
Q 1463 481 1925 481 
Q 2391 481 2648 825 
Q 2906 1169 2906 1791 
z
M 3481 434 
Q 3481 -459 3084 -895 
Q 2688 -1331 1869 -1331 
Q 1566 -1331 1297 -1286 
Q 1028 -1241 775 -1147 
L 775 -588 
Q 1028 -725 1275 -790 
Q 1522 -856 1778 -856 
Q 2344 -856 2625 -561 
Q 2906 -266 2906 331 
L 2906 616 
Q 2728 306 2450 153 
Q 2172 0 1784 0 
Q 1141 0 747 490 
Q 353 981 353 1791 
Q 353 2603 747 3093 
Q 1141 3584 1784 3584 
Q 2172 3584 2450 3431 
Q 2728 3278 2906 2969 
L 2906 3500 
L 3481 3500 
L 3481 434 
z
" id="DejaVuSans-67" transform="scale(0.015625)"/>
       <path d="M 1625 4666 
L 2156 4666 
L 531 -594 
L 0 -594 
L 1625 4666 
z
" id="DejaVuSans-2f" transform="scale(0.015625)"/>
       <path d="M 3328 2828 
Q 3544 3216 3844 3400 
Q 4144 3584 4550 3584 
Q 5097 3584 5394 3201 
Q 5691 2819 5691 2113 
L 5691 0 
L 5113 0 
L 5113 2094 
Q 5113 2597 4934 2840 
Q 4756 3084 4391 3084 
Q 3944 3084 3684 2787 
Q 3425 2491 3425 1978 
L 3425 0 
L 2847 0 
L 2847 2094 
Q 2847 2600 2669 2842 
Q 2491 3084 2119 3084 
Q 1678 3084 1418 2786 
Q 1159 2488 1159 1978 
L 1159 0 
L 581 0 
L 581 3500 
L 1159 3500 
L 1159 2956 
Q 1356 3278 1631 3431 
Q 1906 3584 2284 3584 
Q 2666 3584 2933 3390 
Q 3200 3197 3328 2828 
z
" id="DejaVuSans-6d" transform="scale(0.015625)"/>
       <path d="M 1959 3097 
Q 1497 3097 1228 2736 
Q 959 2375 959 1747 
Q 959 1119 1226 758 
Q 1494 397 1959 397 
Q 2419 397 2687 759 
Q 2956 1122 2956 1747 
Q 2956 2369 2687 2733 
Q 2419 3097 1959 3097 
z
M 1959 3584 
Q 2709 3584 3137 3096 
Q 3566 2609 3566 1747 
Q 3566 888 3137 398 
Q 2709 -91 1959 -91 
Q 1206 -91 779 398 
Q 353 888 353 1747 
Q 353 2609 779 3096 
Q 1206 3584 1959 3584 
z
" id="DejaVuSans-6f" transform="scale(0.015625)"/>
       <path d="M 603 4863 
L 1178 4863 
L 1178 0 
L 603 0 
L 603 4863 
z
" id="DejaVuSans-6c" transform="scale(0.015625)"/>
      </defs>
      <use xlink:href="#DejaVuSans-4d"/>
      <use x="86.279297" xlink:href="#DejaVuSans-57"/>
      <use x="185.15625" xlink:href="#DejaVuSans-2c"/>
      <use x="216.943359" xlink:href="#DejaVuSans-20"/>
      <use x="248.730469" xlink:href="#DejaVuSans-67"/>
      <use x="312.207031" xlink:href="#DejaVuSans-2f"/>
      <use x="345.898438" xlink:href="#DejaVuSans-6d"/>
      <use x="443.310547" xlink:href="#DejaVuSans-6f"/>
      <use x="504.492188" xlink:href="#DejaVuSans-6c"/>
     </g>
    </g>
   </g>
   <g id="matplotlib.axis_2">
    <g id="ytick_1">
     <g id="line2d_8">
      <defs>
       <path d="M 0 0 
L -3.5 0 
" id="mf78c476ad8" style="stroke:#000000;stroke-width:0.8;"/>
      </defs>
      <g>
       <use style="stroke:#000000;stroke-width:0.8;" x="47.1875" xlink:href="#mf78c476ad8" y="215.175572"/>
      </g>
     </g>
     <g id="text_9">
      <!-- 0 -->
      <g transform="translate(33.825 218.97479)scale(0.1 -0.1)">
       <use xlink:href="#DejaVuSans-30"/>
      </g>
     </g>
    </g>
    <g id="ytick_2">
     <g id="line2d_9">
      <g>
       <use style="stroke:#000000;stroke-width:0.8;" x="47.1875" xlink:href="#mf78c476ad8" y="176.004419"/>
      </g>
     </g>
     <g id="text_10">
      <!-- 50 -->
      <g transform="translate(27.4625 179.803637)scale(0.1 -0.1)">
       <defs>
        <path d="M 691 4666 
L 3169 4666 
L 3169 4134 
L 1269 4134 
L 1269 2991 
Q 1406 3038 1543 3061 
Q 1681 3084 1819 3084 
Q 2600 3084 3056 2656 
Q 3513 2228 3513 1497 
Q 3513 744 3044 326 
Q 2575 -91 1722 -91 
Q 1428 -91 1123 -41 
Q 819 9 494 109 
L 494 744 
Q 775 591 1075 516 
Q 1375 441 1709 441 
Q 2250 441 2565 725 
Q 2881 1009 2881 1497 
Q 2881 1984 2565 2268 
Q 2250 2553 1709 2553 
Q 1456 2553 1204 2497 
Q 953 2441 691 2322 
L 691 4666 
z
" id="DejaVuSans-35" transform="scale(0.015625)"/>
       </defs>
       <use xlink:href="#DejaVuSans-35"/>
       <use x="63.623047" xlink:href="#DejaVuSans-30"/>
      </g>
     </g>
    </g>
    <g id="ytick_3">
     <g id="line2d_10">
      <g>
       <use style="stroke:#000000;stroke-width:0.8;" x="47.1875" xlink:href="#mf78c476ad8" y="136.833266"/>
      </g>
     </g>
     <g id="text_11">
      <!-- 100 -->
      <g transform="translate(21.1 140.632485)scale(0.1 -0.1)">
       <use xlink:href="#DejaVuSans-31"/>
       <use x="63.623047" xlink:href="#DejaVuSans-30"/>
       <use x="127.246094" xlink:href="#DejaVuSans-30"/>
      </g>
     </g>
    </g>
    <g id="ytick_4">
     <g id="line2d_11">
      <g>
       <use style="stroke:#000000;stroke-width:0.8;" x="47.1875" xlink:href="#mf78c476ad8" y="97.662113"/>
      </g>
     </g>
     <g id="text_12">
      <!-- 150 -->
      <g transform="translate(21.1 101.461332)scale(0.1 -0.1)">
       <use xlink:href="#DejaVuSans-31"/>
       <use x="63.623047" xlink:href="#DejaVuSans-35"/>
       <use x="127.246094" xlink:href="#DejaVuSans-30"/>
      </g>
     </g>
    </g>
    <g id="ytick_5">
     <g id="line2d_12">
      <g>
       <use style="stroke:#000000;stroke-width:0.8;" x="47.1875" xlink:href="#mf78c476ad8" y="58.49096"/>
      </g>
     </g>
     <g id="text_13">
      <!-- 200 -->
      <g transform="translate(21.1 62.290179)scale(0.1 -0.1)">
       <use xlink:href="#DejaVuSans-32"/>
       <use x="63.623047" xlink:href="#DejaVuSans-30"/>
       <use x="127.246094" xlink:href="#DejaVuSans-30"/>
      </g>
     </g>
    </g>
    <g id="ytick_6">
     <g id="line2d_13">
      <g>
       <use style="stroke:#000000;stroke-width:0.8;" x="47.1875" xlink:href="#mf78c476ad8" y="19.319807"/>
      </g>
     </g>
     <g id="text_14">
      <!-- 250 -->
      <g transform="translate(21.1 23.119026)scale(0.1 -0.1)">
       <use xlink:href="#DejaVuSans-32"/>
       <use x="63.623047" xlink:href="#DejaVuSans-35"/>
       <use x="127.246094" xlink:href="#DejaVuSans-30"/>
      </g>
     </g>
    </g>
    <g id="text_15">
     <!-- bp, $^o$C -->
     <g transform="translate(15 131.27)rotate(-90)scale(0.1 -0.1)">
      <defs>
       <path d="M 3116 1747 
Q 3116 2381 2855 2742 
Q 2594 3103 2138 3103 
Q 1681 3103 1420 2742 
Q 1159 2381 1159 1747 
Q 1159 1113 1420 752 
Q 1681 391 2138 391 
Q 2594 391 2855 752 
Q 3116 1113 3116 1747 
z
M 1159 2969 
Q 1341 3281 1617 3432 
Q 1894 3584 2278 3584 
Q 2916 3584 3314 3078 
Q 3713 2572 3713 1747 
Q 3713 922 3314 415 
Q 2916 -91 2278 -91 
Q 1894 -91 1617 61 
Q 1341 213 1159 525 
L 1159 0 
L 581 0 
L 581 4863 
L 1159 4863 
L 1159 2969 
z
" id="DejaVuSans-62" transform="scale(0.015625)"/>
       <path d="M 1159 525 
L 1159 -1331 
L 581 -1331 
L 581 3500 
L 1159 3500 
L 1159 2969 
Q 1341 3281 1617 3432 
Q 1894 3584 2278 3584 
Q 2916 3584 3314 3078 
Q 3713 2572 3713 1747 
Q 3713 922 3314 415 
Q 2916 -91 2278 -91 
Q 1894 -91 1617 61 
Q 1341 213 1159 525 
z
M 3116 1747 
Q 3116 2381 2855 2742 
Q 2594 3103 2138 3103 
Q 1681 3103 1420 2742 
Q 1159 2381 1159 1747 
Q 1159 1113 1420 752 
Q 1681 391 2138 391 
Q 2594 391 2855 752 
Q 3116 1113 3116 1747 
z
" id="DejaVuSans-70" transform="scale(0.015625)"/>
       <path d="M 1625 -91 
Q 1009 -91 651 289 
Q 294 669 294 1325 
Q 294 1706 417 2101 
Q 541 2497 738 2766 
Q 1047 3184 1428 3384 
Q 1809 3584 2291 3584 
Q 2888 3584 3255 3212 
Q 3622 2841 3622 2241 
Q 3622 1825 3500 1412 
Q 3378 1000 3181 728 
Q 2875 309 2494 109 
Q 2113 -91 1625 -91 
z
M 891 1344 
Q 891 869 1089 633 
Q 1288 397 1691 397 
Q 2269 397 2648 901 
Q 3028 1406 3028 2181 
Q 3028 2634 2825 2865 
Q 2622 3097 2228 3097 
Q 1903 3097 1650 2945 
Q 1397 2794 1197 2484 
Q 1050 2253 970 1956 
Q 891 1659 891 1344 
z
" id="DejaVuSans-Oblique-6f" transform="scale(0.015625)"/>
       <path d="M 4122 4306 
L 4122 3641 
Q 3803 3938 3442 4084 
Q 3081 4231 2675 4231 
Q 1875 4231 1450 3742 
Q 1025 3253 1025 2328 
Q 1025 1406 1450 917 
Q 1875 428 2675 428 
Q 3081 428 3442 575 
Q 3803 722 4122 1019 
L 4122 359 
Q 3791 134 3420 21 
Q 3050 -91 2638 -91 
Q 1578 -91 968 557 
Q 359 1206 359 2328 
Q 359 3453 968 4101 
Q 1578 4750 2638 4750 
Q 3056 4750 3426 4639 
Q 3797 4528 4122 4306 
z
" id="DejaVuSans-43" transform="scale(0.015625)"/>
      </defs>
      <use transform="translate(0 0.51875)" xlink:href="#DejaVuSans-62"/>
      <use transform="translate(63.476562 0.51875)" xlink:href="#DejaVuSans-70"/>
      <use transform="translate(126.953125 0.51875)" xlink:href="#DejaVuSans-2c"/>
      <use transform="translate(158.740234 0.51875)" xlink:href="#DejaVuSans-20"/>
      <use transform="translate(191.484375 38.8)scale(0.7)" xlink:href="#DejaVuSans-Oblique-6f"/>
      <use transform="translate(237.045898 0.51875)" xlink:href="#DejaVuSans-43"/>
     </g>
    </g>
   </g>
   <g id="line2d_14">
    <path clip-path="url(#p3d9c9d8c6f)" d="M 62.405682 187.765218 
L 65.480062 186.233833 
L 68.554442 184.702449 
L 71.628822 183.171064 
L 74.703202 181.639679 
L 77.777583 180.108294 
L 80.851963 178.57691 
L 83.926343 177.045525 
L 87.000723 175.51414 
L 90.075103 173.982756 
L 93.149483 172.451371 
L 96.223864 170.919986 
L 99.298244 169.388601 
L 102.372624 167.857217 
L 105.447004 166.325832 
L 108.521384 164.794447 
L 111.595764 163.263062 
L 114.670145 161.731678 
L 117.744525 160.200293 
L 120.818905 158.668908 
L 123.893285 157.137523 
L 126.967665 155.606139 
L 130.042045 154.074754 
L 133.116426 152.543369 
L 136.190806 151.011985 
L 139.265186 149.4806 
L 142.339566 147.949215 
L 145.413946 146.41783 
L 148.488326 144.886446 
L 151.562707 143.355061 
L 154.637087 141.823676 
L 157.711467 140.292291 
L 160.785847 138.760907 
L 163.860227 137.229522 
L 166.934607 135.698137 
L 170.008988 134.166753 
L 173.083368 132.635368 
L 176.157748 131.103983 
L 179.232128 129.572598 
L 182.306508 128.041214 
L 185.380888 126.509829 
L 188.455269 124.978444 
L 191.529649 123.447059 
L 194.604029 121.915675 
L 197.678409 120.38429 
L 200.752789 118.852905 
L 203.827169 117.32152 
L 206.90155 115.790136 
L 209.97593 114.258751 
L 213.05031 112.727366 
L 216.12469 111.195982 
L 219.19907 109.664597 
L 222.27345 108.133212 
L 225.347831 106.601827 
L 228.422211 105.070443 
L 231.496591 103.539058 
L 234.570971 102.007673 
L 237.645351 100.476288 
L 240.719731 98.944904 
L 243.794112 97.413519 
L 246.868492 95.882134 
L 249.942872 94.350749 
L 253.017252 92.819365 
L 256.091632 91.28798 
L 259.166012 89.756595 
L 262.240393 88.225211 
L 265.314773 86.693826 
L 268.389153 85.162441 
L 271.463533 83.631056 
L 274.537913 82.099672 
L 277.612293 80.568287 
L 280.686674 79.036902 
L 283.761054 77.505517 
L 286.835434 75.974133 
L 289.909814 74.442748 
L 292.984194 72.911363 
L 296.058574 71.379979 
L 299.132955 69.848594 
L 302.207335 68.317209 
L 305.281715 66.785824 
L 308.356095 65.25444 
L 311.430475 63.723055 
L 314.504855 62.19167 
L 317.579236 60.660285 
L 320.653616 59.128901 
L 323.727996 57.597516 
L 326.802376 56.066131 
L 329.876756 54.534746 
L 332.951136 53.003362 
L 336.025517 51.471977 
L 339.099897 49.940592 
L 342.174277 48.409208 
L 345.248657 46.877823 
L 348.323037 45.346438 
L 351.397417 43.815053 
L 354.471798 42.283669 
L 357.546178 40.752284 
L 360.620558 39.220899 
L 363.694938 37.689514 
L 366.769318 36.15813 
" style="fill:none;stroke:#1f77b4;stroke-linecap:square;stroke-width:2.25;"/>
   </g>
   <g id="patch_3">
    <path d="M 47.1875 224.64 
L 47.1875 7.2 
" style="fill:none;stroke:#000000;stroke-linecap:square;stroke-linejoin:miter;stroke-width:0.8;"/>
   </g>
   <g id="patch_4">
    <path d="M 381.9875 224.64 
L 381.9875 7.2 
" style="fill:none;stroke:#000000;stroke-linecap:square;stroke-linejoin:miter;stroke-width:0.8;"/>
   </g>
   <g id="patch_5">
    <path d="M 47.1875 224.64 
L 381.9875 224.64 
" style="fill:none;stroke:#000000;stroke-linecap:square;stroke-linejoin:miter;stroke-width:0.8;"/>
   </g>
   <g id="patch_6">
    <path d="M 47.1875 7.2 
L 381.9875 7.2 
" style="fill:none;stroke:#000000;stroke-linecap:square;stroke-linejoin:miter;stroke-width:0.8;"/>
   </g>
  </g>
 </g>
 <defs>
  <clipPath id="p3d9c9d8c6f">
   <rect height="217.44" width="334.8" x="47.1875" y="7.2"/>
  </clipPath>
 </defs>
</svg>
