<?xml version="1.0" encoding="utf-8" standalone="no"?>
<!DOCTYPE svg PUBLIC "-//W3C//DTD SVG 1.1//EN"
  "http://www.w3.org/Graphics/SVG/1.1/DTD/svg11.dtd">
<svg xmlns:xlink="http://www.w3.org/1999/xlink" width="368.53317pt" height="340.56pt" viewBox="0 0 368.53317 340.56" xmlns="http://www.w3.org/2000/svg" version="1.1">
 <metadata>
  <rdf:RDF xmlns:dc="http://purl.org/dc/elements/1.1/" xmlns:cc="http://creativecommons.org/ns#" xmlns:rdf="http://www.w3.org/1999/02/22-rdf-syntax-ns#">
   <cc:Work>
    <dc:type rdf:resource="http://purl.org/dc/dcmitype/StillImage"/>
    <dc:date>2022-09-03T11:38:22.097183</dc:date>
    <dc:format>image/svg+xml</dc:format>
    <dc:creator>
     <cc:Agent>
      <dc:title>Matplotlib v3.5.2, https://matplotlib.org/</dc:title>
     </cc:Agent>
    </dc:creator>
   </cc:Work>
  </rdf:RDF>
 </metadata>
 <defs>
  <style type="text/css">*{stroke-linejoin: round; stroke-linecap: butt}</style>
 </defs>
 <g id="figure_1">
  <g id="patch_1">
   <path d="M 0 340.56 
L 368.53317 340.56 
L 368.53317 0 
L 0 0 
L 0 340.56 
z
" style="fill: none"/>
  </g>
  <g id="patch_2">
   <path d="M 7.2 333.36 
L 333.36 333.36 
L 333.36 7.2 
L 7.2 7.2 
z
" style="fill: #ffffff"/>
  </g>
  <g id="pane3d_1">
   <g id="patch_3">
    <path d="M 31.827329 252.939397 
L 139.536013 162.655842 
L 138.038759 32.450817 
L 25.17566 114.813166 
" style="fill: #f2f2f2; opacity: 0.5; stroke: #f2f2f2; stroke-linejoin: miter"/>
   </g>
  </g>
  <g id="pane3d_2">
   <g id="patch_4">
    <path d="M 139.536013 162.655842 
L 312.37002 212.891864 
L 318.537857 78.202076 
L 138.038759 32.450817 
" style="fill: #e6e6e6; opacity: 0.5; stroke: #e6e6e6; stroke-linejoin: miter"/>
   </g>
  </g>
  <g id="pane3d_3">
   <g id="patch_5">
    <path d="M 31.827329 252.939397 
L 215.039818 312.776595 
L 312.37002 212.891864 
L 139.536013 162.655842 
" style="fill: #ececec; opacity: 0.5; stroke: #ececec; stroke-linejoin: miter"/>
   </g>
  </g>
  <g id="axis3d_1">
   <g id="line2d_1">
    <path d="M 31.827329 252.939397 
L 215.039818 312.776595 
" style="fill: none; stroke: #000000; stroke-width: 0.8; stroke-linecap: square"/>
   </g>
   <g id="text_1">
    <!-- X axis -->
    <g transform="translate(89.606798 315.243836)rotate(-341.912962)scale(0.1 -0.1)">
     <defs>
      <path id="DejaVuSans-58" d="M 403 4666 
L 1081 4666 
L 2241 2931 
L 3406 4666 
L 4084 4666 
L 2584 2425 
L 4184 0 
L 3506 0 
L 2194 1984 
L 872 0 
L 191 0 
L 1856 2491 
L 403 4666 
z
" transform="scale(0.015625)"/>
      <path id="DejaVuSans-20" transform="scale(0.015625)"/>
      <path id="DejaVuSans-61" d="M 2194 1759 
Q 1497 1759 1228 1600 
Q 959 1441 959 1056 
Q 959 750 1161 570 
Q 1363 391 1709 391 
Q 2188 391 2477 730 
Q 2766 1069 2766 1631 
L 2766 1759 
L 2194 1759 
z
M 3341 1997 
L 3341 0 
L 2766 0 
L 2766 531 
Q 2569 213 2275 61 
Q 1981 -91 1556 -91 
Q 1019 -91 701 211 
Q 384 513 384 1019 
Q 384 1609 779 1909 
Q 1175 2209 1959 2209 
L 2766 2209 
L 2766 2266 
Q 2766 2663 2505 2880 
Q 2244 3097 1772 3097 
Q 1472 3097 1187 3025 
Q 903 2953 641 2809 
L 641 3341 
Q 956 3463 1253 3523 
Q 1550 3584 1831 3584 
Q 2591 3584 2966 3190 
Q 3341 2797 3341 1997 
z
" transform="scale(0.015625)"/>
      <path id="DejaVuSans-78" d="M 3513 3500 
L 2247 1797 
L 3578 0 
L 2900 0 
L 1881 1375 
L 863 0 
L 184 0 
L 1544 1831 
L 300 3500 
L 978 3500 
L 1906 2253 
L 2834 3500 
L 3513 3500 
z
" transform="scale(0.015625)"/>
      <path id="DejaVuSans-69" d="M 603 3500 
L 1178 3500 
L 1178 0 
L 603 0 
L 603 3500 
z
M 603 4863 
L 1178 4863 
L 1178 4134 
L 603 4134 
L 603 4863 
z
" transform="scale(0.015625)"/>
      <path id="DejaVuSans-73" d="M 2834 3397 
L 2834 2853 
Q 2591 2978 2328 3040 
Q 2066 3103 1784 3103 
Q 1356 3103 1142 2972 
Q 928 2841 928 2578 
Q 928 2378 1081 2264 
Q 1234 2150 1697 2047 
L 1894 2003 
Q 2506 1872 2764 1633 
Q 3022 1394 3022 966 
Q 3022 478 2636 193 
Q 2250 -91 1575 -91 
Q 1294 -91 989 -36 
Q 684 19 347 128 
L 347 722 
Q 666 556 975 473 
Q 1284 391 1588 391 
Q 1994 391 2212 530 
Q 2431 669 2431 922 
Q 2431 1156 2273 1281 
Q 2116 1406 1581 1522 
L 1381 1569 
Q 847 1681 609 1914 
Q 372 2147 372 2553 
Q 372 3047 722 3315 
Q 1072 3584 1716 3584 
Q 2034 3584 2315 3537 
Q 2597 3491 2834 3397 
z
" transform="scale(0.015625)"/>
     </defs>
     <use xlink:href="#DejaVuSans-58"/>
     <use xlink:href="#DejaVuSans-20" x="68.505859"/>
     <use xlink:href="#DejaVuSans-61" x="100.292969"/>
     <use xlink:href="#DejaVuSans-78" x="161.572266"/>
     <use xlink:href="#DejaVuSans-69" x="220.751953"/>
     <use xlink:href="#DejaVuSans-73" x="248.535156"/>
    </g>
   </g>
   <g id="Line3DCollection_1">
    <path d="M 54.875768 260.467017 
L 161.362879 169.00005 
L 160.791623 38.218004 
" style="fill: none; stroke: #b0b0b0; stroke-width: 0.8"/>
    <path d="M 77.401014 267.823762 
L 182.670829 175.19343 
L 183.015253 43.851047 
" style="fill: none; stroke: #b0b0b0; stroke-width: 0.8"/>
    <path d="M 100.226159 275.278454 
L 204.238861 181.462405 
L 205.521919 49.555831 
" style="fill: none; stroke: #b0b0b0; stroke-width: 0.8"/>
    <path d="M 123.357233 282.833063 
L 226.071767 187.808369 
L 228.317064 55.333735 
" style="fill: none; stroke: #b0b0b0; stroke-width: 0.8"/>
    <path d="M 146.800427 290.48961 
L 248.174456 194.232748 
L 251.406269 61.186176 
" style="fill: none; stroke: #b0b0b0; stroke-width: 0.8"/>
    <path d="M 170.562102 298.250173 
L 270.55196 200.737005 
L 274.795262 67.114604 
" style="fill: none; stroke: #b0b0b0; stroke-width: 0.8"/>
    <path d="M 194.648792 306.116886 
L 293.209435 207.322639 
L 298.48992 73.120509 
" style="fill: none; stroke: #b0b0b0; stroke-width: 0.8"/>
   </g>
   <g id="xtick_1">
    <g id="line2d_2">
     <path d="M 55.803317 259.6703 
L 53.016675 262.063881 
" style="fill: none; stroke: #000000; stroke-width: 0.8; stroke-linecap: square"/>
    </g>
    <g id="text_2">
     <!-- 5 -->
     <g transform="translate(44.180396 283.832745)scale(0.1 -0.1)">
      <defs>
       <path id="DejaVuSans-35" d="M 691 4666 
L 3169 4666 
L 3169 4134 
L 1269 4134 
L 1269 2991 
Q 1406 3038 1543 3061 
Q 1681 3084 1819 3084 
Q 2600 3084 3056 2656 
Q 3513 2228 3513 1497 
Q 3513 744 3044 326 
Q 2575 -91 1722 -91 
Q 1428 -91 1123 -41 
Q 819 9 494 109 
L 494 744 
Q 775 591 1075 516 
Q 1375 441 1709 441 
Q 2250 441 2565 725 
Q 2881 1009 2881 1497 
Q 2881 1984 2565 2268 
Q 2250 2553 1709 2553 
Q 1456 2553 1204 2497 
Q 953 2441 691 2322 
L 691 4666 
z
" transform="scale(0.015625)"/>
      </defs>
      <use xlink:href="#DejaVuSans-35"/>
     </g>
    </g>
   </g>
   <g id="xtick_2">
    <g id="line2d_3">
     <path d="M 78.318454 267.016477 
L 75.562157 269.441832 
" style="fill: none; stroke: #000000; stroke-width: 0.8; stroke-linecap: square"/>
    </g>
    <g id="text_3">
     <!-- 6 -->
     <g transform="translate(66.724765 291.316602)scale(0.1 -0.1)">
      <defs>
       <path id="DejaVuSans-36" d="M 2113 2584 
Q 1688 2584 1439 2293 
Q 1191 2003 1191 1497 
Q 1191 994 1439 701 
Q 1688 409 2113 409 
Q 2538 409 2786 701 
Q 3034 994 3034 1497 
Q 3034 2003 2786 2293 
Q 2538 2584 2113 2584 
z
M 3366 4563 
L 3366 3988 
Q 3128 4100 2886 4159 
Q 2644 4219 2406 4219 
Q 1781 4219 1451 3797 
Q 1122 3375 1075 2522 
Q 1259 2794 1537 2939 
Q 1816 3084 2150 3084 
Q 2853 3084 3261 2657 
Q 3669 2231 3669 1497 
Q 3669 778 3244 343 
Q 2819 -91 2113 -91 
Q 1303 -91 875 529 
Q 447 1150 447 2328 
Q 447 3434 972 4092 
Q 1497 4750 2381 4750 
Q 2619 4750 2861 4703 
Q 3103 4656 3366 4563 
z
" transform="scale(0.015625)"/>
      </defs>
      <use xlink:href="#DejaVuSans-36"/>
     </g>
    </g>
   </g>
   <g id="xtick_3">
    <g id="line2d_4">
     <path d="M 101.133138 274.460389 
L 98.408243 276.918155 
" style="fill: none; stroke: #000000; stroke-width: 0.8; stroke-linecap: square"/>
    </g>
    <g id="text_4">
     <!-- 7 -->
     <g transform="translate(89.570213 298.900405)scale(0.1 -0.1)">
      <defs>
       <path id="DejaVuSans-37" d="M 525 4666 
L 3525 4666 
L 3525 4397 
L 1831 0 
L 1172 0 
L 2766 4134 
L 525 4134 
L 525 4666 
z
" transform="scale(0.015625)"/>
      </defs>
      <use xlink:href="#DejaVuSans-37"/>
     </g>
    </g>
   </g>
   <g id="xtick_4">
    <g id="line2d_5">
     <path d="M 124.253387 282.004 
L 121.560987 284.49483 
" style="fill: none; stroke: #000000; stroke-width: 0.8; stroke-linecap: square"/>
    </g>
    <g id="text_5">
     <!-- 8 -->
     <g transform="translate(112.722811 306.586171)scale(0.1 -0.1)">
      <defs>
       <path id="DejaVuSans-38" d="M 2034 2216 
Q 1584 2216 1326 1975 
Q 1069 1734 1069 1313 
Q 1069 891 1326 650 
Q 1584 409 2034 409 
Q 2484 409 2743 651 
Q 3003 894 3003 1313 
Q 3003 1734 2745 1975 
Q 2488 2216 2034 2216 
z
M 1403 2484 
Q 997 2584 770 2862 
Q 544 3141 544 3541 
Q 544 4100 942 4425 
Q 1341 4750 2034 4750 
Q 2731 4750 3128 4425 
Q 3525 4100 3525 3541 
Q 3525 3141 3298 2862 
Q 3072 2584 2669 2484 
Q 3125 2378 3379 2068 
Q 3634 1759 3634 1313 
Q 3634 634 3220 271 
Q 2806 -91 2034 -91 
Q 1263 -91 848 271 
Q 434 634 434 1313 
Q 434 1759 690 2068 
Q 947 2378 1403 2484 
z
M 1172 3481 
Q 1172 3119 1398 2916 
Q 1625 2713 2034 2713 
Q 2441 2713 2670 2916 
Q 2900 3119 2900 3481 
Q 2900 3844 2670 4047 
Q 2441 4250 2034 4250 
Q 1625 4250 1398 4047 
Q 1172 3844 1172 3481 
z
" transform="scale(0.015625)"/>
      </defs>
      <use xlink:href="#DejaVuSans-38"/>
     </g>
    </g>
   </g>
   <g id="xtick_5">
    <g id="line2d_6">
     <path d="M 147.685381 289.649327 
L 145.026605 292.173893 
" style="fill: none; stroke: #000000; stroke-width: 0.8; stroke-linecap: square"/>
    </g>
    <g id="text_6">
     <!-- 9 -->
     <g transform="translate(136.188797 314.375968)scale(0.1 -0.1)">
      <defs>
       <path id="DejaVuSans-39" d="M 703 97 
L 703 672 
Q 941 559 1184 500 
Q 1428 441 1663 441 
Q 2288 441 2617 861 
Q 2947 1281 2994 2138 
Q 2813 1869 2534 1725 
Q 2256 1581 1919 1581 
Q 1219 1581 811 2004 
Q 403 2428 403 3163 
Q 403 3881 828 4315 
Q 1253 4750 1959 4750 
Q 2769 4750 3195 4129 
Q 3622 3509 3622 2328 
Q 3622 1225 3098 567 
Q 2575 -91 1691 -91 
Q 1453 -91 1209 -44 
Q 966 3 703 97 
z
M 1959 2075 
Q 2384 2075 2632 2365 
Q 2881 2656 2881 3163 
Q 2881 3666 2632 3958 
Q 2384 4250 1959 4250 
Q 1534 4250 1286 3958 
Q 1038 3666 1038 3163 
Q 1038 2656 1286 2365 
Q 1534 2075 1959 2075 
z
" transform="scale(0.015625)"/>
      </defs>
      <use xlink:href="#DejaVuSans-39"/>
     </g>
    </g>
   </g>
   <g id="xtick_6">
    <g id="line2d_7">
     <path d="M 171.435468 297.39844 
L 168.811481 299.957432 
" style="fill: none; stroke: #000000; stroke-width: 0.8; stroke-linecap: square"/>
    </g>
    <g id="text_7">
     <!-- 10 -->
     <g transform="translate(156.793325 322.271925)scale(0.1 -0.1)">
      <defs>
       <path id="DejaVuSans-31" d="M 794 531 
L 1825 531 
L 1825 4091 
L 703 3866 
L 703 4441 
L 1819 4666 
L 2450 4666 
L 2450 531 
L 3481 531 
L 3481 0 
L 794 0 
L 794 531 
z
" transform="scale(0.015625)"/>
       <path id="DejaVuSans-30" d="M 2034 4250 
Q 1547 4250 1301 3770 
Q 1056 3291 1056 2328 
Q 1056 1369 1301 889 
Q 1547 409 2034 409 
Q 2525 409 2770 889 
Q 3016 1369 3016 2328 
Q 3016 3291 2770 3770 
Q 2525 4250 2034 4250 
z
M 2034 4750 
Q 2819 4750 3233 4129 
Q 3647 3509 3647 2328 
Q 3647 1150 3233 529 
Q 2819 -91 2034 -91 
Q 1250 -91 836 529 
Q 422 1150 422 2328 
Q 422 3509 836 4129 
Q 1250 4750 2034 4750 
z
" transform="scale(0.015625)"/>
      </defs>
      <use xlink:href="#DejaVuSans-31"/>
      <use xlink:href="#DejaVuSans-30" x="63.623047"/>
     </g>
    </g>
   </g>
   <g id="xtick_7">
    <g id="line2d_8">
     <path d="M 195.510169 305.253467 
L 192.922176 307.847594 
" style="fill: none; stroke: #000000; stroke-width: 0.8; stroke-linecap: square"/>
    </g>
    <g id="text_8">
     <!-- 11 -->
     <g transform="translate(180.905479 330.276225)scale(0.1 -0.1)">
      <use xlink:href="#DejaVuSans-31"/>
      <use xlink:href="#DejaVuSans-31" x="63.623047"/>
     </g>
    </g>
   </g>
  </g>
  <g id="axis3d_2">
   <g id="line2d_9">
    <path d="M 312.37002 212.891864 
L 215.039818 312.776595 
" style="fill: none; stroke: #000000; stroke-width: 0.8; stroke-linecap: square"/>
   </g>
   <g id="text_9">
    <!-- Y axis -->
    <g transform="translate(284.593136 301.028182)rotate(-45.742112)scale(0.1 -0.1)">
     <defs>
      <path id="DejaVuSans-59" d="M -13 4666 
L 666 4666 
L 1959 2747 
L 3244 4666 
L 3922 4666 
L 2272 2222 
L 2272 0 
L 1638 0 
L 1638 2222 
L -13 4666 
z
" transform="scale(0.015625)"/>
     </defs>
     <use xlink:href="#DejaVuSans-59"/>
     <use xlink:href="#DejaVuSans-20" x="61.083984"/>
     <use xlink:href="#DejaVuSans-61" x="92.871094"/>
     <use xlink:href="#DejaVuSans-78" x="154.150391"/>
     <use xlink:href="#DejaVuSans-69" x="213.330078"/>
     <use xlink:href="#DejaVuSans-73" x="241.113281"/>
    </g>
   </g>
   <g id="Line3DCollection_2">
    <path d="M 40.945563 103.305009 
L 46.827932 240.365594 
L 228.646603 298.812687 
" style="fill: none; stroke: #b0b0b0; stroke-width: 0.8"/>
    <path d="M 55.659815 92.567218 
L 60.838725 228.621469 
L 241.340419 285.785709 
" style="fill: none; stroke: #b0b0b0; stroke-width: 0.8"/>
    <path d="M 70.046967 82.06813 
L 74.551463 217.127181 
L 253.750071 273.050353 
" style="fill: none; stroke: #b0b0b0; stroke-width: 0.8"/>
    <path d="M 84.117806 71.799873 
L 87.975556 205.874839 
L 265.884996 260.596934 
" style="fill: none; stroke: #b0b0b0; stroke-width: 0.8"/>
    <path d="M 97.882649 61.754917 
L 101.120024 194.856886 
L 277.754218 248.416193 
" style="fill: none; stroke: #b0b0b0; stroke-width: 0.8"/>
    <path d="M 111.351371 51.926057 
L 113.993513 184.066072 
L 289.366367 236.499272 
" style="fill: none; stroke: #b0b0b0; stroke-width: 0.8"/>
    <path d="M 124.533427 42.306393 
L 126.604318 173.495445 
L 300.729706 224.83769 
" style="fill: none; stroke: #b0b0b0; stroke-width: 0.8"/>
   </g>
   <g id="xtick_8">
    <g id="line2d_10">
     <path d="M 227.114884 298.320304 
L 231.713977 299.79872 
" style="fill: none; stroke: #000000; stroke-width: 0.8; stroke-linecap: square"/>
    </g>
    <g id="text_10">
     <!-- −3 -->
     <g transform="translate(234.079574 319.747721)scale(0.1 -0.1)">
      <defs>
       <path id="DejaVuSans-2212" d="M 678 2272 
L 4684 2272 
L 4684 1741 
L 678 1741 
L 678 2272 
z
" transform="scale(0.015625)"/>
       <path id="DejaVuSans-33" d="M 2597 2516 
Q 3050 2419 3304 2112 
Q 3559 1806 3559 1356 
Q 3559 666 3084 287 
Q 2609 -91 1734 -91 
Q 1441 -91 1130 -33 
Q 819 25 488 141 
L 488 750 
Q 750 597 1062 519 
Q 1375 441 1716 441 
Q 2309 441 2620 675 
Q 2931 909 2931 1356 
Q 2931 1769 2642 2001 
Q 2353 2234 1838 2234 
L 1294 2234 
L 1294 2753 
L 1863 2753 
Q 2328 2753 2575 2939 
Q 2822 3125 2822 3475 
Q 2822 3834 2567 4026 
Q 2313 4219 1838 4219 
Q 1578 4219 1281 4162 
Q 984 4106 628 3988 
L 628 4550 
Q 988 4650 1302 4700 
Q 1616 4750 1894 4750 
Q 2613 4750 3031 4423 
Q 3450 4097 3450 3541 
Q 3450 3153 3228 2886 
Q 3006 2619 2597 2516 
z
" transform="scale(0.015625)"/>
      </defs>
      <use xlink:href="#DejaVuSans-2212"/>
      <use xlink:href="#DejaVuSans-33" x="83.789062"/>
     </g>
    </g>
   </g>
   <g id="xtick_9">
    <g id="line2d_11">
     <path d="M 239.820662 285.304407 
L 244.383795 286.749535 
" style="fill: none; stroke: #000000; stroke-width: 0.8; stroke-linecap: square"/>
    </g>
    <g id="text_11">
     <!-- −2 -->
     <g transform="translate(246.634476 306.563451)scale(0.1 -0.1)">
      <defs>
       <path id="DejaVuSans-32" d="M 1228 531 
L 3431 531 
L 3431 0 
L 469 0 
L 469 531 
Q 828 903 1448 1529 
Q 2069 2156 2228 2338 
Q 2531 2678 2651 2914 
Q 2772 3150 2772 3378 
Q 2772 3750 2511 3984 
Q 2250 4219 1831 4219 
Q 1534 4219 1204 4116 
Q 875 4013 500 3803 
L 500 4441 
Q 881 4594 1212 4672 
Q 1544 4750 1819 4750 
Q 2544 4750 2975 4387 
Q 3406 4025 3406 3419 
Q 3406 3131 3298 2873 
Q 3191 2616 2906 2266 
Q 2828 2175 2409 1742 
Q 1991 1309 1228 531 
z
" transform="scale(0.015625)"/>
      </defs>
      <use xlink:href="#DejaVuSans-2212"/>
      <use xlink:href="#DejaVuSans-32" x="83.789062"/>
     </g>
    </g>
   </g>
   <g id="xtick_10">
    <g id="line2d_12">
     <path d="M 252.242127 272.579763 
L 256.769749 273.992715 
" style="fill: none; stroke: #000000; stroke-width: 0.8; stroke-linecap: square"/>
    </g>
    <g id="text_12">
     <!-- −1 -->
     <g transform="translate(258.90819 293.674465)scale(0.1 -0.1)">
      <use xlink:href="#DejaVuSans-2212"/>
      <use xlink:href="#DejaVuSans-31" x="83.789062"/>
     </g>
    </g>
   </g>
   <g id="xtick_11">
    <g id="line2d_13">
     <path d="M 264.388717 260.136703 
L 268.881273 261.518541 
" style="fill: none; stroke: #000000; stroke-width: 0.8; stroke-linecap: square"/>
    </g>
    <g id="text_13">
     <!-- 0 -->
     <g transform="translate(275.099902 281.070951)scale(0.1 -0.1)">
      <use xlink:href="#DejaVuSans-30"/>
     </g>
    </g>
   </g>
   <g id="xtick_12">
    <g id="line2d_14">
     <path d="M 276.269457 247.965982 
L 280.727388 249.317723 
" style="fill: none; stroke: #000000; stroke-width: 0.8; stroke-linecap: square"/>
    </g>
    <g id="text_14">
     <!-- 1 -->
     <g transform="translate(286.838859 268.743529)scale(0.1 -0.1)">
      <use xlink:href="#DejaVuSans-31"/>
     </g>
    </g>
   </g>
   <g id="xtick_13">
    <g id="line2d_15">
     <path d="M 287.892979 236.058757 
L 292.316724 237.381373 
" style="fill: none; stroke: #000000; stroke-width: 0.8; stroke-linecap: square"/>
    </g>
    <g id="text_15">
     <!-- 2 -->
     <g transform="translate(298.323447 256.683226)scale(0.1 -0.1)">
      <use xlink:href="#DejaVuSans-32"/>
     </g>
    </g>
   </g>
   <g id="xtick_14">
    <g id="line2d_16">
     <path d="M 299.267548 224.406561 
L 303.65754 225.700985 
" style="fill: none; stroke: #000000; stroke-width: 0.8; stroke-linecap: square"/>
    </g>
    <g id="text_16">
     <!-- 3 -->
     <g transform="translate(309.561848 244.881453)scale(0.1 -0.1)">
      <use xlink:href="#DejaVuSans-33"/>
     </g>
    </g>
   </g>
  </g>
  <g id="axis3d_3">
   <g id="line2d_17">
    <path d="M 312.37002 212.891864 
L 318.537857 78.202076 
" style="fill: none; stroke: #000000; stroke-width: 0.8; stroke-linecap: square"/>
   </g>
   <g id="text_17">
    <!-- Z axis -->
    <g transform="translate(357.880452 156.748159)rotate(-87.378092)scale(0.1 -0.1)">
     <defs>
      <path id="DejaVuSans-5a" d="M 359 4666 
L 4025 4666 
L 4025 4184 
L 1075 531 
L 4097 531 
L 4097 0 
L 288 0 
L 288 481 
L 3238 4134 
L 359 4134 
L 359 4666 
z
" transform="scale(0.015625)"/>
     </defs>
     <use xlink:href="#DejaVuSans-5a"/>
     <use xlink:href="#DejaVuSans-20" x="68.505859"/>
     <use xlink:href="#DejaVuSans-61" x="100.292969"/>
     <use xlink:href="#DejaVuSans-78" x="161.572266"/>
     <use xlink:href="#DejaVuSans-69" x="220.751953"/>
     <use xlink:href="#DejaVuSans-73" x="248.535156"/>
    </g>
   </g>
   <g id="Line3DCollection_3">
    <path d="M 312.886465 201.614033 
L 139.410403 151.732421 
L 31.271232 241.39168 
" style="fill: none; stroke: #b0b0b0; stroke-width: 0.8"/>
    <path d="M 313.709839 183.633645 
L 139.210232 134.325066 
L 30.384315 222.974272 
" style="fill: none; stroke: #b0b0b0; stroke-width: 0.8"/>
    <path d="M 314.543083 165.437722 
L 139.007777 116.719037 
L 29.48636 204.327653 
" style="fill: none; stroke: #b0b0b0; stroke-width: 0.8"/>
    <path d="M 315.386376 147.022366 
L 138.802997 98.910913 
L 28.577159 185.447515 
" style="fill: none; stroke: #b0b0b0; stroke-width: 0.8"/>
    <path d="M 316.2399 128.383584 
L 138.595854 80.897195 
L 27.656501 166.329446 
" style="fill: none; stroke: #b0b0b0; stroke-width: 0.8"/>
    <path d="M 317.103842 109.517283 
L 138.386305 62.674301 
L 26.724167 146.968919 
" style="fill: none; stroke: #b0b0b0; stroke-width: 0.8"/>
    <path d="M 317.978396 90.419273 
L 138.174309 44.238567 
L 25.779933 127.361292 
" style="fill: none; stroke: #b0b0b0; stroke-width: 0.8"/>
   </g>
   <g id="xtick_15">
    <g id="line2d_18">
     <path d="M 311.430267 201.195315 
L 315.802336 202.452467 
" style="fill: none; stroke: #000000; stroke-width: 0.8; stroke-linecap: square"/>
    </g>
    <g id="text_18">
     <!-- −3 -->
     <g transform="translate(323.84114 206.623988)scale(0.1 -0.1)">
      <use xlink:href="#DejaVuSans-2212"/>
      <use xlink:href="#DejaVuSans-33" x="83.789062"/>
     </g>
    </g>
   </g>
   <g id="xtick_16">
    <g id="line2d_19">
     <path d="M 312.24464 183.219622 
L 316.643756 184.462685 
" style="fill: none; stroke: #000000; stroke-width: 0.8; stroke-linecap: square"/>
    </g>
    <g id="text_19">
     <!-- −2 -->
     <g transform="translate(324.771393 188.672652)scale(0.1 -0.1)">
      <use xlink:href="#DejaVuSans-2212"/>
      <use xlink:href="#DejaVuSans-32" x="83.789062"/>
     </g>
    </g>
   </g>
   <g id="xtick_17">
    <g id="line2d_20">
     <path d="M 313.068771 165.028536 
L 317.49527 166.257083 
" style="fill: none; stroke: #000000; stroke-width: 0.8; stroke-linecap: square"/>
    </g>
    <g id="text_20">
     <!-- −1 -->
     <g transform="translate(325.712768 170.506665)scale(0.1 -0.1)">
      <use xlink:href="#DejaVuSans-2212"/>
      <use xlink:href="#DejaVuSans-31" x="83.789062"/>
     </g>
    </g>
   </g>
   <g id="xtick_18">
    <g id="line2d_21">
     <path d="M 313.902836 146.618165 
L 318.357061 147.831752 
" style="fill: none; stroke: #000000; stroke-width: 0.8; stroke-linecap: square"/>
    </g>
    <g id="text_21">
     <!-- 0 -->
     <g transform="translate(330.855312 152.122153)scale(0.1 -0.1)">
      <use xlink:href="#DejaVuSans-30"/>
     </g>
    </g>
   </g>
   <g id="xtick_19">
    <g id="line2d_22">
     <path d="M 314.747017 127.984518 
L 319.229316 129.182691 
" style="fill: none; stroke: #000000; stroke-width: 0.8; stroke-linecap: square"/>
    </g>
    <g id="text_22">
     <!-- 1 -->
     <g transform="translate(331.819542 133.515149)scale(0.1 -0.1)">
      <use xlink:href="#DejaVuSans-31"/>
     </g>
    </g>
   </g>
   <g id="xtick_20">
    <g id="line2d_23">
     <path d="M 315.601498 109.123509 
L 320.112228 110.3058 
" style="fill: none; stroke: #000000; stroke-width: 0.8; stroke-linecap: square"/>
    </g>
    <g id="text_23">
     <!-- 2 -->
     <g transform="translate(332.795512 114.681591)scale(0.1 -0.1)">
      <use xlink:href="#DejaVuSans-32"/>
     </g>
    </g>
   </g>
   <g id="xtick_21">
    <g id="line2d_24">
     <path d="M 316.466469 90.030951 
L 321.005992 91.196878 
" style="fill: none; stroke: #000000; stroke-width: 0.8; stroke-linecap: square"/>
    </g>
    <g id="text_24">
     <!-- 3 -->
     <g transform="translate(333.783438 95.617315)scale(0.1 -0.1)">
      <use xlink:href="#DejaVuSans-33"/>
     </g>
    </g>
   </g>
  </g>
  <g id="axes_1">
   <g id="line2d_25">
    <defs>
     <path id="m0fb66b85cc" d="M 0 3 
C 0.795609 3 1.55874 2.683901 2.12132 2.12132 
C 2.683901 1.55874 3 0.795609 3 0 
C 3 -0.795609 2.683901 -1.55874 2.12132 -2.12132 
C 1.55874 -2.683901 0.795609 -3 0 -3 
C -0.795609 -3 -1.55874 -2.683901 -2.12132 -2.12132 
C -2.683901 -1.55874 -3 -0.795609 -3 0 
C -3 0.795609 -2.683901 1.55874 -2.12132 2.12132 
C -1.55874 2.683901 -0.795609 3 0 3 
z
" style="stroke: #1f77b4"/>
    </defs>
    <g clip-path="url(#p8e931881bb)">
     <use xlink:href="#m0fb66b85cc" x="212.399337" y="241.284146" style="fill: #1f77b4; stroke: #1f77b4"/>
     <use xlink:href="#m0fb66b85cc" x="228.341893" y="216.888272" style="fill: #1f77b4; stroke: #1f77b4"/>
     <use xlink:href="#m0fb66b85cc" x="238.272161" y="225.288416" style="fill: #1f77b4; stroke: #1f77b4"/>
     <use xlink:href="#m0fb66b85cc" x="178.540242" y="247.252338" style="fill: #1f77b4; stroke: #1f77b4"/>
     <use xlink:href="#m0fb66b85cc" x="238.636941" y="187.498919" style="fill: #1f77b4; stroke: #1f77b4"/>
     <use xlink:href="#m0fb66b85cc" x="216.861506" y="230.703526" style="fill: #1f77b4; stroke: #1f77b4"/>
     <use xlink:href="#m0fb66b85cc" x="149.798926" y="232.047621" style="fill: #1f77b4; stroke: #1f77b4"/>
     <use xlink:href="#m0fb66b85cc" x="146.451082" y="242.586247" style="fill: #1f77b4; stroke: #1f77b4"/>
     <use xlink:href="#m0fb66b85cc" x="194.558849" y="222.791066" style="fill: #1f77b4; stroke: #1f77b4"/>
     <use xlink:href="#m0fb66b85cc" x="185.928252" y="225.979063" style="fill: #1f77b4; stroke: #1f77b4"/>
     <use xlink:href="#m0fb66b85cc" x="170.107233" y="237.629851" style="fill: #1f77b4; stroke: #1f77b4"/>
     <use xlink:href="#m0fb66b85cc" x="258.058961" y="204.924749" style="fill: #1f77b4; stroke: #1f77b4"/>
     <use xlink:href="#m0fb66b85cc" x="211.083726" y="176.794137" style="fill: #1f77b4; stroke: #1f77b4"/>
     <use xlink:href="#m0fb66b85cc" x="245.917274" y="207.278458" style="fill: #1f77b4; stroke: #1f77b4"/>
     <use xlink:href="#m0fb66b85cc" x="183.831923" y="198.06461" style="fill: #1f77b4; stroke: #1f77b4"/>
     <use xlink:href="#m0fb66b85cc" x="124.331159" y="207.978779" style="fill: #1f77b4; stroke: #1f77b4"/>
     <use xlink:href="#m0fb66b85cc" x="118.46734" y="230.333272" style="fill: #1f77b4; stroke: #1f77b4"/>
     <use xlink:href="#m0fb66b85cc" x="182.660962" y="197.399974" style="fill: #1f77b4; stroke: #1f77b4"/>
     <use xlink:href="#m0fb66b85cc" x="133.669821" y="227.406706" style="fill: #1f77b4; stroke: #1f77b4"/>
     <use xlink:href="#m0fb66b85cc" x="202.6476" y="147.293008" style="fill: #1f77b4; stroke: #1f77b4"/>
     <use xlink:href="#m0fb66b85cc" x="242.797451" y="180.827589" style="fill: #1f77b4; stroke: #1f77b4"/>
     <use xlink:href="#m0fb66b85cc" x="96.943673" y="196.346391" style="fill: #1f77b4; stroke: #1f77b4"/>
     <use xlink:href="#m0fb66b85cc" x="149.942048" y="188.213352" style="fill: #1f77b4; stroke: #1f77b4"/>
     <use xlink:href="#m0fb66b85cc" x="94.545607" y="207.989264" style="fill: #1f77b4; stroke: #1f77b4"/>
     <use xlink:href="#m0fb66b85cc" x="210.897217" y="174.948069" style="fill: #1f77b4; stroke: #1f77b4"/>
     <use xlink:href="#m0fb66b85cc" x="124.360541" y="203.222256" style="fill: #1f77b4; stroke: #1f77b4"/>
     <use xlink:href="#m0fb66b85cc" x="85.46731" y="182.619941" style="fill: #1f77b4; stroke: #1f77b4"/>
     <use xlink:href="#m0fb66b85cc" x="252.937675" y="150.051605" style="fill: #1f77b4; stroke: #1f77b4"/>
     <use xlink:href="#m0fb66b85cc" x="257.180367" y="168.579102" style="fill: #1f77b4; stroke: #1f77b4"/>
     <use xlink:href="#m0fb66b85cc" x="267.855282" y="176.445043" style="fill: #1f77b4; stroke: #1f77b4"/>
     <use xlink:href="#m0fb66b85cc" x="137.924596" y="92.358018" style="fill: #1f77b4; stroke: #1f77b4"/>
     <use xlink:href="#m0fb66b85cc" x="118.882964" y="112.812056" style="fill: #1f77b4; stroke: #1f77b4"/>
     <use xlink:href="#m0fb66b85cc" x="111.033114" y="106.391169" style="fill: #1f77b4; stroke: #1f77b4"/>
     <use xlink:href="#m0fb66b85cc" x="170.879941" y="85.444062" style="fill: #1f77b4; stroke: #1f77b4"/>
     <use xlink:href="#m0fb66b85cc" x="106.777097" y="142.906377" style="fill: #1f77b4; stroke: #1f77b4"/>
     <use xlink:href="#m0fb66b85cc" x="134.987415" y="104.84412" style="fill: #1f77b4; stroke: #1f77b4"/>
     <use xlink:href="#m0fb66b85cc" x="197.969474" y="103.969313" style="fill: #1f77b4; stroke: #1f77b4"/>
     <use xlink:href="#m0fb66b85cc" x="202.013809" y="91.631599" style="fill: #1f77b4; stroke: #1f77b4"/>
     <use xlink:href="#m0fb66b85cc" x="153.721931" y="105.819166" style="fill: #1f77b4; stroke: #1f77b4"/>
     <use xlink:href="#m0fb66b85cc" x="164.31932" y="110.430927" style="fill: #1f77b4; stroke: #1f77b4"/>
     <use xlink:href="#m0fb66b85cc" x="179.400003" y="92.04546" style="fill: #1f77b4; stroke: #1f77b4"/>
     <use xlink:href="#m0fb66b85cc" x="92.853677" y="127.540303" style="fill: #1f77b4; stroke: #1f77b4"/>
     <use xlink:href="#m0fb66b85cc" x="134.976653" y="153.956041" style="fill: #1f77b4; stroke: #1f77b4"/>
     <use xlink:href="#m0fb66b85cc" x="107.374936" y="126.743414" style="fill: #1f77b4; stroke: #1f77b4"/>
     <use xlink:href="#m0fb66b85cc" x="164.748606" y="130.882889" style="fill: #1f77b4; stroke: #1f77b4"/>
     <use xlink:href="#m0fb66b85cc" x="221.387822" y="126.82324" style="fill: #1f77b4; stroke: #1f77b4"/>
     <use xlink:href="#m0fb66b85cc" x="230.576062" y="101.791951" style="fill: #1f77b4; stroke: #1f77b4"/>
     <use xlink:href="#m0fb66b85cc" x="167.461029" y="137.298031" style="fill: #1f77b4; stroke: #1f77b4"/>
     <use xlink:href="#m0fb66b85cc" x="217.05593" y="102.311983" style="fill: #1f77b4; stroke: #1f77b4"/>
     <use xlink:href="#m0fb66b85cc" x="143.949478" y="186.297874" style="fill: #1f77b4; stroke: #1f77b4"/>
     <use xlink:href="#m0fb66b85cc" x="111.395352" y="151.97511" style="fill: #1f77b4; stroke: #1f77b4"/>
     <use xlink:href="#m0fb66b85cc" x="248.704403" y="136.859402" style="fill: #1f77b4; stroke: #1f77b4"/>
     <use xlink:href="#m0fb66b85cc" x="201.684941" y="141.498478" style="fill: #1f77b4; stroke: #1f77b4"/>
     <use xlink:href="#m0fb66b85cc" x="253.714885" y="124.341377" style="fill: #1f77b4; stroke: #1f77b4"/>
     <use xlink:href="#m0fb66b85cc" x="141.742007" y="157.614911" style="fill: #1f77b4; stroke: #1f77b4"/>
     <use xlink:href="#m0fb66b85cc" x="228.171291" y="126.17989" style="fill: #1f77b4; stroke: #1f77b4"/>
     <use xlink:href="#m0fb66b85cc" x="265.336162" y="148.856811" style="fill: #1f77b4; stroke: #1f77b4"/>
     <use xlink:href="#m0fb66b85cc" x="100.429056" y="180.886228" style="fill: #1f77b4; stroke: #1f77b4"/>
     <use xlink:href="#m0fb66b85cc" x="88.681232" y="163.05048" style="fill: #1f77b4; stroke: #1f77b4"/>
     <use xlink:href="#m0fb66b85cc" x="81.459448" y="155.292967" style="fill: #1f77b4; stroke: #1f77b4"/>
    </g>
   </g>
  </g>
 </g>
 <defs>
  <clipPath id="p8e931881bb">
   <rect x="7.2" y="7.2" width="326.16" height="326.16"/>
  </clipPath>
 </defs>
</svg>
