<?xml version="1.0" encoding="utf-8" standalone="no"?>
<!DOCTYPE svg PUBLIC "-//W3C//DTD SVG 1.1//EN"
  "http://www.w3.org/Graphics/SVG/1.1/DTD/svg11.dtd">
<svg xmlns:xlink="http://www.w3.org/1999/xlink" width="400.523437pt" height="248.518125pt" viewBox="0 0 400.523437 248.518125" xmlns="http://www.w3.org/2000/svg" version="1.1">
 <metadata>
  <rdf:RDF xmlns:dc="http://purl.org/dc/elements/1.1/" xmlns:cc="http://creativecommons.org/ns#" xmlns:rdf="http://www.w3.org/1999/02/22-rdf-syntax-ns#">
   <cc:Work>
    <dc:type rdf:resource="http://purl.org/dc/dcmitype/StillImage"/>
    <dc:date>2022-08-20T16:36:22.651230</dc:date>
    <dc:format>image/svg+xml</dc:format>
    <dc:creator>
     <cc:Agent>
      <dc:title>Matplotlib v3.5.2, https://matplotlib.org/</dc:title>
     </cc:Agent>
    </dc:creator>
   </cc:Work>
  </rdf:RDF>
 </metadata>
 <defs>
  <style type="text/css">*{stroke-linejoin: round; stroke-linecap: butt}</style>
 </defs>
 <g id="figure_1">
  <g id="patch_1">
   <path d="M 0 248.518125 
L 400.523437 248.518125 
L 400.523437 0 
L 0 0 
L 0 248.518125 
z
" style="fill: none"/>
  </g>
  <g id="axes_1">
   <g id="patch_2">
    <path d="M 58.523438 224.64 
L 393.323438 224.64 
L 393.323438 7.2 
L 58.523438 7.2 
z
" style="fill: #ffffff"/>
   </g>
   <g id="matplotlib.axis_1">
    <g id="xtick_1">
     <g id="line2d_1">
      <defs>
       <path id="m7f698a94a4" d="M 0 0 
L 0 3.5 
" style="stroke: #000000; stroke-width: 0.8"/>
      </defs>
      <g>
       <use xlink:href="#m7f698a94a4" x="73.589133" y="224.64" style="stroke: #000000; stroke-width: 0.8"/>
      </g>
     </g>
     <g id="text_1">
      <!-- 0 -->
      <g transform="translate(70.407883 239.238437)scale(0.1 -0.1)">
       <defs>
        <path id="DejaVuSans-30" d="M 2034 4250 
Q 1547 4250 1301 3770 
Q 1056 3291 1056 2328 
Q 1056 1369 1301 889 
Q 1547 409 2034 409 
Q 2525 409 2770 889 
Q 3016 1369 3016 2328 
Q 3016 3291 2770 3770 
Q 2525 4250 2034 4250 
z
M 2034 4750 
Q 2819 4750 3233 4129 
Q 3647 3509 3647 2328 
Q 3647 1150 3233 529 
Q 2819 -91 2034 -91 
Q 1250 -91 836 529 
Q 422 1150 422 2328 
Q 422 3509 836 4129 
Q 1250 4750 2034 4750 
z
" transform="scale(0.015625)"/>
       </defs>
       <use xlink:href="#DejaVuSans-30"/>
      </g>
     </g>
    </g>
    <g id="xtick_2">
     <g id="line2d_2">
      <g>
       <use xlink:href="#m7f698a94a4" x="122.078648" y="224.64" style="stroke: #000000; stroke-width: 0.8"/>
      </g>
     </g>
     <g id="text_2">
      <!-- 1 -->
      <g transform="translate(118.897398 239.238437)scale(0.1 -0.1)">
       <defs>
        <path id="DejaVuSans-31" d="M 794 531 
L 1825 531 
L 1825 4091 
L 703 3866 
L 703 4441 
L 1819 4666 
L 2450 4666 
L 2450 531 
L 3481 531 
L 3481 0 
L 794 0 
L 794 531 
z
" transform="scale(0.015625)"/>
       </defs>
       <use xlink:href="#DejaVuSans-31"/>
      </g>
     </g>
    </g>
    <g id="xtick_3">
     <g id="line2d_3">
      <g>
       <use xlink:href="#m7f698a94a4" x="170.568163" y="224.64" style="stroke: #000000; stroke-width: 0.8"/>
      </g>
     </g>
     <g id="text_3">
      <!-- 2 -->
      <g transform="translate(167.386913 239.238437)scale(0.1 -0.1)">
       <defs>
        <path id="DejaVuSans-32" d="M 1228 531 
L 3431 531 
L 3431 0 
L 469 0 
L 469 531 
Q 828 903 1448 1529 
Q 2069 2156 2228 2338 
Q 2531 2678 2651 2914 
Q 2772 3150 2772 3378 
Q 2772 3750 2511 3984 
Q 2250 4219 1831 4219 
Q 1534 4219 1204 4116 
Q 875 4013 500 3803 
L 500 4441 
Q 881 4594 1212 4672 
Q 1544 4750 1819 4750 
Q 2544 4750 2975 4387 
Q 3406 4025 3406 3419 
Q 3406 3131 3298 2873 
Q 3191 2616 2906 2266 
Q 2828 2175 2409 1742 
Q 1991 1309 1228 531 
z
" transform="scale(0.015625)"/>
       </defs>
       <use xlink:href="#DejaVuSans-32"/>
      </g>
     </g>
    </g>
    <g id="xtick_4">
     <g id="line2d_4">
      <g>
       <use xlink:href="#m7f698a94a4" x="219.057678" y="224.64" style="stroke: #000000; stroke-width: 0.8"/>
      </g>
     </g>
     <g id="text_4">
      <!-- 3 -->
      <g transform="translate(215.876428 239.238437)scale(0.1 -0.1)">
       <defs>
        <path id="DejaVuSans-33" d="M 2597 2516 
Q 3050 2419 3304 2112 
Q 3559 1806 3559 1356 
Q 3559 666 3084 287 
Q 2609 -91 1734 -91 
Q 1441 -91 1130 -33 
Q 819 25 488 141 
L 488 750 
Q 750 597 1062 519 
Q 1375 441 1716 441 
Q 2309 441 2620 675 
Q 2931 909 2931 1356 
Q 2931 1769 2642 2001 
Q 2353 2234 1838 2234 
L 1294 2234 
L 1294 2753 
L 1863 2753 
Q 2328 2753 2575 2939 
Q 2822 3125 2822 3475 
Q 2822 3834 2567 4026 
Q 2313 4219 1838 4219 
Q 1578 4219 1281 4162 
Q 984 4106 628 3988 
L 628 4550 
Q 988 4650 1302 4700 
Q 1616 4750 1894 4750 
Q 2613 4750 3031 4423 
Q 3450 4097 3450 3541 
Q 3450 3153 3228 2886 
Q 3006 2619 2597 2516 
z
" transform="scale(0.015625)"/>
       </defs>
       <use xlink:href="#DejaVuSans-33"/>
      </g>
     </g>
    </g>
    <g id="xtick_5">
     <g id="line2d_5">
      <g>
       <use xlink:href="#m7f698a94a4" x="267.547194" y="224.64" style="stroke: #000000; stroke-width: 0.8"/>
      </g>
     </g>
     <g id="text_5">
      <!-- 4 -->
      <g transform="translate(264.365944 239.238437)scale(0.1 -0.1)">
       <defs>
        <path id="DejaVuSans-34" d="M 2419 4116 
L 825 1625 
L 2419 1625 
L 2419 4116 
z
M 2253 4666 
L 3047 4666 
L 3047 1625 
L 3713 1625 
L 3713 1100 
L 3047 1100 
L 3047 0 
L 2419 0 
L 2419 1100 
L 313 1100 
L 313 1709 
L 2253 4666 
z
" transform="scale(0.015625)"/>
       </defs>
       <use xlink:href="#DejaVuSans-34"/>
      </g>
     </g>
    </g>
    <g id="xtick_6">
     <g id="line2d_6">
      <g>
       <use xlink:href="#m7f698a94a4" x="316.036709" y="224.64" style="stroke: #000000; stroke-width: 0.8"/>
      </g>
     </g>
     <g id="text_6">
      <!-- 5 -->
      <g transform="translate(312.855459 239.238437)scale(0.1 -0.1)">
       <defs>
        <path id="DejaVuSans-35" d="M 691 4666 
L 3169 4666 
L 3169 4134 
L 1269 4134 
L 1269 2991 
Q 1406 3038 1543 3061 
Q 1681 3084 1819 3084 
Q 2600 3084 3056 2656 
Q 3513 2228 3513 1497 
Q 3513 744 3044 326 
Q 2575 -91 1722 -91 
Q 1428 -91 1123 -41 
Q 819 9 494 109 
L 494 744 
Q 775 591 1075 516 
Q 1375 441 1709 441 
Q 2250 441 2565 725 
Q 2881 1009 2881 1497 
Q 2881 1984 2565 2268 
Q 2250 2553 1709 2553 
Q 1456 2553 1204 2497 
Q 953 2441 691 2322 
L 691 4666 
z
" transform="scale(0.015625)"/>
       </defs>
       <use xlink:href="#DejaVuSans-35"/>
      </g>
     </g>
    </g>
    <g id="xtick_7">
     <g id="line2d_7">
      <g>
       <use xlink:href="#m7f698a94a4" x="364.526224" y="224.64" style="stroke: #000000; stroke-width: 0.8"/>
      </g>
     </g>
     <g id="text_7">
      <!-- 6 -->
      <g transform="translate(361.344974 239.238437)scale(0.1 -0.1)">
       <defs>
        <path id="DejaVuSans-36" d="M 2113 2584 
Q 1688 2584 1439 2293 
Q 1191 2003 1191 1497 
Q 1191 994 1439 701 
Q 1688 409 2113 409 
Q 2538 409 2786 701 
Q 3034 994 3034 1497 
Q 3034 2003 2786 2293 
Q 2538 2584 2113 2584 
z
M 3366 4563 
L 3366 3988 
Q 3128 4100 2886 4159 
Q 2644 4219 2406 4219 
Q 1781 4219 1451 3797 
Q 1122 3375 1075 2522 
Q 1259 2794 1537 2939 
Q 1816 3084 2150 3084 
Q 2853 3084 3261 2657 
Q 3669 2231 3669 1497 
Q 3669 778 3244 343 
Q 2819 -91 2113 -91 
Q 1303 -91 875 529 
Q 447 1150 447 2328 
Q 447 3434 972 4092 
Q 1497 4750 2381 4750 
Q 2619 4750 2861 4703 
Q 3103 4656 3366 4563 
z
" transform="scale(0.015625)"/>
       </defs>
       <use xlink:href="#DejaVuSans-36"/>
      </g>
     </g>
    </g>
   </g>
   <g id="matplotlib.axis_2">
    <g id="ytick_1">
     <g id="line2d_8">
      <defs>
       <path id="mc964ad34f9" d="M 0 0 
L -3.5 0 
" style="stroke: #000000; stroke-width: 0.8"/>
      </defs>
      <g>
       <use xlink:href="#mc964ad34f9" x="58.523438" y="200.267531" style="stroke: #000000; stroke-width: 0.8"/>
      </g>
     </g>
     <g id="text_8">
      <!-- −0.06 -->
      <g transform="translate(20.878125 204.06675)scale(0.1 -0.1)">
       <defs>
        <path id="DejaVuSans-2212" d="M 678 2272 
L 4684 2272 
L 4684 1741 
L 678 1741 
L 678 2272 
z
" transform="scale(0.015625)"/>
        <path id="DejaVuSans-2e" d="M 684 794 
L 1344 794 
L 1344 0 
L 684 0 
L 684 794 
z
" transform="scale(0.015625)"/>
       </defs>
       <use xlink:href="#DejaVuSans-2212"/>
       <use xlink:href="#DejaVuSans-30" x="83.789062"/>
       <use xlink:href="#DejaVuSans-2e" x="147.412109"/>
       <use xlink:href="#DejaVuSans-30" x="179.199219"/>
       <use xlink:href="#DejaVuSans-36" x="242.822266"/>
      </g>
     </g>
    </g>
    <g id="ytick_2">
     <g id="line2d_9">
      <g>
       <use xlink:href="#mc964ad34f9" x="58.523438" y="172.618931" style="stroke: #000000; stroke-width: 0.8"/>
      </g>
     </g>
     <g id="text_9">
      <!-- −0.04 -->
      <g transform="translate(20.878125 176.41815)scale(0.1 -0.1)">
       <use xlink:href="#DejaVuSans-2212"/>
       <use xlink:href="#DejaVuSans-30" x="83.789062"/>
       <use xlink:href="#DejaVuSans-2e" x="147.412109"/>
       <use xlink:href="#DejaVuSans-30" x="179.199219"/>
       <use xlink:href="#DejaVuSans-34" x="242.822266"/>
      </g>
     </g>
    </g>
    <g id="ytick_3">
     <g id="line2d_10">
      <g>
       <use xlink:href="#mc964ad34f9" x="58.523438" y="144.970331" style="stroke: #000000; stroke-width: 0.8"/>
      </g>
     </g>
     <g id="text_10">
      <!-- −0.02 -->
      <g transform="translate(20.878125 148.76955)scale(0.1 -0.1)">
       <use xlink:href="#DejaVuSans-2212"/>
       <use xlink:href="#DejaVuSans-30" x="83.789062"/>
       <use xlink:href="#DejaVuSans-2e" x="147.412109"/>
       <use xlink:href="#DejaVuSans-30" x="179.199219"/>
       <use xlink:href="#DejaVuSans-32" x="242.822266"/>
      </g>
     </g>
    </g>
    <g id="ytick_4">
     <g id="line2d_11">
      <g>
       <use xlink:href="#mc964ad34f9" x="58.523438" y="117.321731" style="stroke: #000000; stroke-width: 0.8"/>
      </g>
     </g>
     <g id="text_11">
      <!-- 0.00 -->
      <g transform="translate(29.257813 121.12095)scale(0.1 -0.1)">
       <use xlink:href="#DejaVuSans-30"/>
       <use xlink:href="#DejaVuSans-2e" x="63.623047"/>
       <use xlink:href="#DejaVuSans-30" x="95.410156"/>
       <use xlink:href="#DejaVuSans-30" x="159.033203"/>
      </g>
     </g>
    </g>
    <g id="ytick_5">
     <g id="line2d_12">
      <g>
       <use xlink:href="#mc964ad34f9" x="58.523438" y="89.673131" style="stroke: #000000; stroke-width: 0.8"/>
      </g>
     </g>
     <g id="text_12">
      <!-- 0.02 -->
      <g transform="translate(29.257813 93.47235)scale(0.1 -0.1)">
       <use xlink:href="#DejaVuSans-30"/>
       <use xlink:href="#DejaVuSans-2e" x="63.623047"/>
       <use xlink:href="#DejaVuSans-30" x="95.410156"/>
       <use xlink:href="#DejaVuSans-32" x="159.033203"/>
      </g>
     </g>
    </g>
    <g id="ytick_6">
     <g id="line2d_13">
      <g>
       <use xlink:href="#mc964ad34f9" x="58.523438" y="62.024531" style="stroke: #000000; stroke-width: 0.8"/>
      </g>
     </g>
     <g id="text_13">
      <!-- 0.04 -->
      <g transform="translate(29.257813 65.82375)scale(0.1 -0.1)">
       <use xlink:href="#DejaVuSans-30"/>
       <use xlink:href="#DejaVuSans-2e" x="63.623047"/>
       <use xlink:href="#DejaVuSans-30" x="95.410156"/>
       <use xlink:href="#DejaVuSans-34" x="159.033203"/>
      </g>
     </g>
    </g>
    <g id="ytick_7">
     <g id="line2d_14">
      <g>
       <use xlink:href="#mc964ad34f9" x="58.523438" y="34.375932" style="stroke: #000000; stroke-width: 0.8"/>
      </g>
     </g>
     <g id="text_14">
      <!-- 0.06 -->
      <g transform="translate(29.257813 38.17515)scale(0.1 -0.1)">
       <use xlink:href="#DejaVuSans-30"/>
       <use xlink:href="#DejaVuSans-2e" x="63.623047"/>
       <use xlink:href="#DejaVuSans-30" x="95.410156"/>
       <use xlink:href="#DejaVuSans-36" x="159.033203"/>
      </g>
     </g>
    </g>
    <g id="text_15">
     <!-- Slope, dx/dy -->
     <g transform="translate(14.798438 146.923125)rotate(-90)scale(0.1 -0.1)">
      <defs>
       <path id="DejaVuSans-53" d="M 3425 4513 
L 3425 3897 
Q 3066 4069 2747 4153 
Q 2428 4238 2131 4238 
Q 1616 4238 1336 4038 
Q 1056 3838 1056 3469 
Q 1056 3159 1242 3001 
Q 1428 2844 1947 2747 
L 2328 2669 
Q 3034 2534 3370 2195 
Q 3706 1856 3706 1288 
Q 3706 609 3251 259 
Q 2797 -91 1919 -91 
Q 1588 -91 1214 -16 
Q 841 59 441 206 
L 441 856 
Q 825 641 1194 531 
Q 1563 422 1919 422 
Q 2459 422 2753 634 
Q 3047 847 3047 1241 
Q 3047 1584 2836 1778 
Q 2625 1972 2144 2069 
L 1759 2144 
Q 1053 2284 737 2584 
Q 422 2884 422 3419 
Q 422 4038 858 4394 
Q 1294 4750 2059 4750 
Q 2388 4750 2728 4690 
Q 3069 4631 3425 4513 
z
" transform="scale(0.015625)"/>
       <path id="DejaVuSans-6c" d="M 603 4863 
L 1178 4863 
L 1178 0 
L 603 0 
L 603 4863 
z
" transform="scale(0.015625)"/>
       <path id="DejaVuSans-6f" d="M 1959 3097 
Q 1497 3097 1228 2736 
Q 959 2375 959 1747 
Q 959 1119 1226 758 
Q 1494 397 1959 397 
Q 2419 397 2687 759 
Q 2956 1122 2956 1747 
Q 2956 2369 2687 2733 
Q 2419 3097 1959 3097 
z
M 1959 3584 
Q 2709 3584 3137 3096 
Q 3566 2609 3566 1747 
Q 3566 888 3137 398 
Q 2709 -91 1959 -91 
Q 1206 -91 779 398 
Q 353 888 353 1747 
Q 353 2609 779 3096 
Q 1206 3584 1959 3584 
z
" transform="scale(0.015625)"/>
       <path id="DejaVuSans-70" d="M 1159 525 
L 1159 -1331 
L 581 -1331 
L 581 3500 
L 1159 3500 
L 1159 2969 
Q 1341 3281 1617 3432 
Q 1894 3584 2278 3584 
Q 2916 3584 3314 3078 
Q 3713 2572 3713 1747 
Q 3713 922 3314 415 
Q 2916 -91 2278 -91 
Q 1894 -91 1617 61 
Q 1341 213 1159 525 
z
M 3116 1747 
Q 3116 2381 2855 2742 
Q 2594 3103 2138 3103 
Q 1681 3103 1420 2742 
Q 1159 2381 1159 1747 
Q 1159 1113 1420 752 
Q 1681 391 2138 391 
Q 2594 391 2855 752 
Q 3116 1113 3116 1747 
z
" transform="scale(0.015625)"/>
       <path id="DejaVuSans-65" d="M 3597 1894 
L 3597 1613 
L 953 1613 
Q 991 1019 1311 708 
Q 1631 397 2203 397 
Q 2534 397 2845 478 
Q 3156 559 3463 722 
L 3463 178 
Q 3153 47 2828 -22 
Q 2503 -91 2169 -91 
Q 1331 -91 842 396 
Q 353 884 353 1716 
Q 353 2575 817 3079 
Q 1281 3584 2069 3584 
Q 2775 3584 3186 3129 
Q 3597 2675 3597 1894 
z
M 3022 2063 
Q 3016 2534 2758 2815 
Q 2500 3097 2075 3097 
Q 1594 3097 1305 2825 
Q 1016 2553 972 2059 
L 3022 2063 
z
" transform="scale(0.015625)"/>
       <path id="DejaVuSans-2c" d="M 750 794 
L 1409 794 
L 1409 256 
L 897 -744 
L 494 -744 
L 750 256 
L 750 794 
z
" transform="scale(0.015625)"/>
       <path id="DejaVuSans-20" transform="scale(0.015625)"/>
       <path id="DejaVuSans-64" d="M 2906 2969 
L 2906 4863 
L 3481 4863 
L 3481 0 
L 2906 0 
L 2906 525 
Q 2725 213 2448 61 
Q 2172 -91 1784 -91 
Q 1150 -91 751 415 
Q 353 922 353 1747 
Q 353 2572 751 3078 
Q 1150 3584 1784 3584 
Q 2172 3584 2448 3432 
Q 2725 3281 2906 2969 
z
M 947 1747 
Q 947 1113 1208 752 
Q 1469 391 1925 391 
Q 2381 391 2643 752 
Q 2906 1113 2906 1747 
Q 2906 2381 2643 2742 
Q 2381 3103 1925 3103 
Q 1469 3103 1208 2742 
Q 947 2381 947 1747 
z
" transform="scale(0.015625)"/>
       <path id="DejaVuSans-78" d="M 3513 3500 
L 2247 1797 
L 3578 0 
L 2900 0 
L 1881 1375 
L 863 0 
L 184 0 
L 1544 1831 
L 300 3500 
L 978 3500 
L 1906 2253 
L 2834 3500 
L 3513 3500 
z
" transform="scale(0.015625)"/>
       <path id="DejaVuSans-2f" d="M 1625 4666 
L 2156 4666 
L 531 -594 
L 0 -594 
L 1625 4666 
z
" transform="scale(0.015625)"/>
       <path id="DejaVuSans-79" d="M 2059 -325 
Q 1816 -950 1584 -1140 
Q 1353 -1331 966 -1331 
L 506 -1331 
L 506 -850 
L 844 -850 
Q 1081 -850 1212 -737 
Q 1344 -625 1503 -206 
L 1606 56 
L 191 3500 
L 800 3500 
L 1894 763 
L 2988 3500 
L 3597 3500 
L 2059 -325 
z
" transform="scale(0.015625)"/>
      </defs>
      <use xlink:href="#DejaVuSans-53"/>
      <use xlink:href="#DejaVuSans-6c" x="63.476562"/>
      <use xlink:href="#DejaVuSans-6f" x="91.259766"/>
      <use xlink:href="#DejaVuSans-70" x="152.441406"/>
      <use xlink:href="#DejaVuSans-65" x="215.917969"/>
      <use xlink:href="#DejaVuSans-2c" x="277.441406"/>
      <use xlink:href="#DejaVuSans-20" x="309.228516"/>
      <use xlink:href="#DejaVuSans-64" x="341.015625"/>
      <use xlink:href="#DejaVuSans-78" x="404.492188"/>
      <use xlink:href="#DejaVuSans-2f" x="463.671875"/>
      <use xlink:href="#DejaVuSans-64" x="497.363281"/>
      <use xlink:href="#DejaVuSans-79" x="560.839844"/>
     </g>
    </g>
   </g>
   <g id="line2d_15">
    <path d="M 73.741619 100.672197 
L 74.046593 153.461618 
L 74.351566 53.194084 
L 74.65654 180.891231 
L 74.961514 91.540582 
L 75.266487 107.690363 
L 75.571461 112.207286 
L 75.876434 47.502844 
L 76.181408 132.729315 
L 76.486382 166.612281 
L 76.791355 68.321981 
L 77.096329 151.484502 
L 77.401302 76.768527 
L 77.706276 133.412856 
L 78.011249 49.049094 
L 78.316223 149.489695 
L 78.621197 59.253901 
L 78.92617 149.141348 
L 79.231144 58.566905 
L 79.536117 135.37266 
L 79.841091 143.292017 
L 80.146065 59.814356 
L 80.451038 168.313834 
L 80.756012 61.360052 
L 81.060985 136.413483 
L 81.365959 116.808509 
L 81.670932 55.624997 
L 81.975906 181.398133 
L 82.28088 83.358415 
L 82.585853 59.357776 
L 83.1958 154.196093 
L 83.500774 90.166962 
L 83.805748 156.016795 
L 84.110721 33.923039 
L 84.415695 184.730045 
L 84.720668 69.823608 
L 85.025642 92.93532 
L 85.330615 104.72681 
L 85.635589 103.539987 
L 85.940563 150.107479 
L 86.245536 62.727328 
L 86.55051 108.336186 
L 86.855483 100.453837 
L 87.160457 164.074543 
L 87.465431 116.079737 
L 87.770404 39.451202 
L 88.075378 192.32046 
L 88.380351 115.905887 
L 88.685325 73.597143 
L 88.990298 89.710652 
L 89.295272 118.26856 
L 89.600246 131.532926 
L 89.905219 83.229103 
L 90.210193 82.843393 
L 90.515166 152.039774 
L 90.82014 85.727208 
L 91.125114 141.817215 
L 91.430087 109.681497 
L 91.735061 130.363189 
L 92.040034 57.817487 
L 92.345008 113.613702 
L 92.649981 141.735299 
L 92.954955 71.956563 
L 93.259929 76.03331 
L 93.564902 144.79821 
L 93.869876 100.553278 
L 94.174849 152.875494 
L 94.784797 78.24093 
L 95.08977 139.494118 
L 95.394744 61.513977 
L 95.699717 145.553768 
L 96.004691 45.020725 
L 96.309664 103.881355 
L 96.614638 188.503166 
L 96.919612 44.589261 
L 97.224585 147.440894 
L 97.529559 86.445412 
L 97.834532 128.012364 
L 98.139506 90.181485 
L 98.44448 119.302075 
L 98.749453 132.994624 
L 99.054427 128.626175 
L 99.3594 43.958166 
L 99.664374 132.560802 
L 99.969348 104.07583 
L 100.274321 119.487983 
L 100.579295 160.334527 
L 100.884268 87.503674 
L 101.189242 55.109015 
L 101.494215 103.377242 
L 101.799189 197.478167 
L 102.104163 46.711124 
L 102.409136 152.787368 
L 102.71411 44.309704 
L 103.019083 118.110157 
L 103.324057 149.381131 
L 103.629031 120.36798 
L 103.934004 50.037729 
L 104.238978 195.539421 
L 104.543951 39.699374 
L 104.848925 173.134395 
L 105.153898 111.875484 
L 105.458872 100.887771 
L 105.763846 43.325941 
L 106.068819 108.032694 
L 106.373793 130.487999 
L 106.678766 117.60451 
L 106.98374 98.733613 
L 107.288714 141.983882 
L 107.593687 135.15446 
L 107.898661 118.899403 
L 108.508608 52.471914 
L 108.813581 183.212813 
L 109.118555 85.932043 
L 109.423529 104.93746 
L 109.728502 141.00736 
L 110.033476 88.800969 
L 110.338449 141.330572 
L 110.643423 91.954925 
L 110.948397 104.044146 
L 111.25337 95.349249 
L 111.558344 142.83186 
L 111.863317 98.529161 
L 112.168291 133.212031 
L 112.473264 92.31936 
L 112.778238 88.461909 
L 113.083212 111.28933 
L 113.388185 123.630897 
L 113.693159 90.138663 
L 113.998132 161.04457 
L 114.303106 36.97294 
L 114.60808 140.969666 
L 114.913053 124.81998 
L 115.218027 148.865248 
L 115.523 60.142283 
L 115.827974 153.725264 
L 116.132947 124.23778 
L 116.437921 74.195477 
L 116.742895 63.125331 
L 117.047868 180.582417 
L 117.657815 58.574595 
L 117.962789 127.164015 
L 118.267763 156.698251 
L 118.572736 60.482328 
L 118.87771 126.597204 
L 119.182683 139.462649 
L 119.487657 125.417099 
L 119.79263 72.370572 
L 120.097604 158.818929 
L 120.402578 40.349256 
L 120.707551 134.346728 
L 121.012525 107.597236 
L 121.317498 97.22934 
L 121.622472 140.516597 
L 121.927446 95.622097 
L 122.232419 135.855774 
L 122.537393 83.035894 
L 122.842366 178.771068 
L 123.14734 87.335215 
L 123.452313 124.481235 
L 124.062261 56.070331 
L 124.367234 175.04244 
L 124.672208 77.146992 
L 124.977181 105.352449 
L 125.282155 106.337186 
L 125.892102 152.394231 
L 126.197076 129.824627 
L 126.502049 94.486938 
L 126.807023 72.147211 
L 127.111996 88.829373 
L 127.41697 124.976987 
L 127.721944 98.871599 
L 128.026917 183.232673 
L 128.331891 71.245961 
L 128.636864 148.400218 
L 128.941838 75.528451 
L 129.246812 119.472439 
L 129.551785 89.326391 
L 129.856759 177.532094 
L 130.161732 46.422809 
L 130.466706 192.125235 
L 130.771679 90.020193 
L 131.076653 147.745182 
L 131.6866 59.590851 
L 132.296547 161.945031 
L 132.601521 81.701637 
L 132.906495 152.449247 
L 133.211468 83.453358 
L 133.516442 72.520204 
L 133.821415 163.941667 
L 134.126389 85.231077 
L 134.431362 145.912621 
L 134.736336 122.662877 
L 135.04131 117.759612 
L 135.346283 107.989354 
L 135.651257 146.599171 
L 135.95623 99.965879 
L 136.261204 109.023201 
L 136.566178 136.732039 
L 136.871151 96.286276 
L 137.176125 71.64942 
L 137.481098 107.078422 
L 137.786072 183.676304 
L 138.091045 60.270609 
L 138.396019 82.89851 
L 138.700993 126.492775 
L 139.005966 152.670801 
L 139.31094 133.906754 
L 139.615913 132.818466 
L 139.920887 124.380484 
L 140.225861 55.322941 
L 140.530834 84.745915 
L 140.835808 201.369563 
L 141.140781 35.595077 
L 141.445755 194.86288 
L 142.055702 69.635912 
L 142.360676 124.634478 
L 142.665649 64.829955 
L 142.970623 193.447493 
L 143.275596 66.415207 
L 143.58057 131.811747 
L 143.885544 117.578654 
L 144.190517 140.827186 
L 144.495491 92.244532 
L 144.800464 138.777619 
L 145.105438 92.11901 
L 145.410411 83.776639 
L 145.715385 105.551864 
L 146.020359 179.318636 
L 146.325332 62.118764 
L 146.630306 196.871196 
L 146.935279 81.111559 
L 147.240253 136.370004 
L 147.545227 119.292328 
L 147.8502 71.569258 
L 148.155174 165.869365 
L 148.460147 64.628057 
L 148.765121 161.555568 
L 149.070094 55.077669 
L 149.375068 128.794318 
L 149.680042 94.767206 
L 149.985015 184.601226 
L 150.594962 102.535125 
L 150.899936 81.477427 
L 151.20491 91.262462 
L 151.509883 194.40562 
L 151.814857 84.089066 
L 152.11983 97.10606 
L 152.424804 96.340269 
L 152.729777 189.369559 
L 153.034751 70.442467 
L 153.339725 122.377708 
L 153.644698 94.071327 
L 153.949672 140.868748 
L 154.254645 148.325591 
L 154.559619 58.577836 
L 154.864593 129.48161 
L 155.169566 133.610364 
L 155.47454 90.776943 
L 155.779513 185.642711 
L 156.084487 92.766547 
L 156.38946 88.672534 
L 156.694434 159.0036 
L 156.999408 148.484893 
L 157.304381 96.432246 
L 157.609355 136.269485 
L 157.914328 51.035657 
L 158.524276 163.824436 
L 158.829249 101.498661 
L 159.134223 117.194747 
L 159.439196 168.324938 
L 159.74417 114.391637 
L 160.049143 128.641622 
L 160.354117 62.861201 
L 160.659091 157.412539 
L 160.964064 93.746107 
L 161.269038 152.622326 
L 161.574011 62.266261 
L 161.878985 115.239877 
L 162.183959 124.211433 
L 162.488932 136.937918 
L 162.793906 143.712075 
L 163.098879 65.797681 
L 163.403853 158.967296 
L 163.708826 135.893843 
L 164.0138 151.508179 
L 164.318774 74.942747 
L 164.623747 76.082353 
L 164.928721 143.893147 
L 165.233694 133.661222 
L 165.843642 90.876867 
L 166.148615 183.166253 
L 166.453589 84.294615 
L 166.758562 113.483814 
L 167.063536 120.443322 
L 167.368509 154.933751 
L 167.673483 103.967156 
L 167.978457 92.711002 
L 168.28343 164.258908 
L 168.588404 73.261209 
L 168.893377 176.555085 
L 169.198351 77.235742 
L 169.503325 172.445474 
L 169.808298 70.231927 
L 170.113272 180.577905 
L 170.418245 113.368145 
L 170.723219 104.168914 
L 171.028192 107.745821 
L 171.333166 122.909135 
L 171.63814 98.545842 
L 171.943113 126.350347 
L 172.248087 136.570447 
L 172.55306 173.220035 
L 172.858034 39.646287 
L 173.163008 177.780802 
L 173.467981 109.481165 
L 173.772955 110.496516 
L 174.077928 148.096446 
L 174.382902 141.876036 
L 174.687875 70.3531 
L 174.992849 138.278259 
L 175.297823 95.22433 
L 175.602796 179.824041 
L 175.90777 66.671424 
L 176.212743 109.521268 
L 176.517717 136.32428 
L 176.822691 133.157119 
L 177.127664 81.267087 
L 177.432638 128.735289 
L 177.737611 108.336662 
L 178.042585 205.364838 
L 178.347558 92.810277 
L 178.652532 109.084721 
L 178.957506 166.874238 
L 179.262479 64.045556 
L 179.567453 130.601283 
L 179.872426 110.076214 
L 180.1774 152.508344 
L 180.482374 91.488694 
L 180.787347 135.022268 
L 181.092321 113.787554 
L 181.397294 149.355943 
L 181.702268 150.353815 
L 182.007241 78.523581 
L 182.312215 144.183034 
L 182.617189 106.862349 
L 182.922162 120.812796 
L 183.227136 164.979448 
L 183.532109 47.360241 
L 183.837083 145.869535 
L 184.142057 178.609937 
L 184.752004 90.803735 
L 185.056977 152.879138 
L 185.361951 77.064041 
L 185.971898 159.400906 
L 186.276872 50.606985 
L 186.581845 153.889241 
L 186.886819 109.787588 
L 187.191792 102.398686 
L 187.496766 136.838051 
L 187.80174 104.554222 
L 188.106713 200.193686 
L 188.411687 87.332204 
L 188.71666 122.912524 
L 189.021634 174.249663 
L 189.326607 96.437736 
L 189.631581 86.482168 
L 189.936555 101.489672 
L 190.241528 131.562571 
L 190.546502 187.659675 
L 190.851475 70.366393 
L 191.156449 149.953158 
L 191.461423 75.870387 
L 191.766396 130.747877 
L 192.376343 155.377796 
L 192.681317 144.578941 
L 192.98629 72.32458 
L 193.291264 172.821328 
L 193.596238 100.800878 
L 193.901211 144.568042 
L 194.511158 81.871506 
L 194.816132 189.707124 
L 195.121106 108.974872 
L 195.426079 147.095636 
L 195.731053 126.340602 
L 196.036026 121.892507 
L 196.645973 102.233728 
L 196.950947 140.563 
L 197.255921 120.29391 
L 197.560894 73.805115 
L 197.865868 113.291433 
L 198.170841 213.123827 
L 198.475815 45.464424 
L 198.780789 186.204428 
L 199.085762 145.553606 
L 199.390736 78.764234 
L 200.000683 115.309325 
L 200.305656 171.990472 
L 200.61063 154.127591 
L 200.915604 78.436164 
L 201.220577 158.963739 
L 201.525551 105.406786 
L 201.830524 88.198011 
L 202.440472 169.676327 
L 202.745445 124.059629 
L 203.050419 114.008046 
L 203.355392 152.858073 
L 203.660366 41.061428 
L 203.965339 191.319239 
L 204.270313 133.235554 
L 204.575287 121.912219 
L 204.88026 75.868971 
L 205.185234 122.609322 
L 205.490207 131.888489 
L 205.795181 182.830337 
L 206.405128 42.578153 
L 206.710102 184.667498 
L 207.015075 145.751856 
L 207.320049 73.627428 
L 207.929996 190.144169 
L 208.23497 90.075542 
L 208.539943 120.881331 
L 208.844917 137.473153 
L 209.14989 127.405069 
L 209.454864 127.788411 
L 210.064811 96.649927 
L 210.369785 156.694152 
L 210.674758 148.347518 
L 211.284705 107.535854 
L 211.589679 98.086473 
L 211.894653 133.544708 
L 212.199626 101.557438 
L 212.5046 180.280784 
L 212.809573 90.473018 
L 213.114547 146.647111 
L 213.419521 146.186636 
L 213.724494 44.629512 
L 214.029468 177.226453 
L 214.334441 164.984624 
L 214.639415 73.364744 
L 214.944388 158.010941 
L 215.249362 144.052596 
L 215.554336 86.10065 
L 215.859309 147.689272 
L 216.164283 57.438951 
L 216.469256 177.073373 
L 216.77423 100.923142 
L 217.079204 183.183182 
L 217.384177 47.309384 
L 217.689151 164.055473 
L 217.994124 118.645356 
L 218.604071 144.571282 
L 218.909045 151.754946 
L 219.214019 85.779082 
L 219.518992 167.006488 
L 219.823966 55.747737 
L 220.128939 116.529643 
L 220.433913 203.926951 
L 220.738887 98.129174 
L 221.04386 71.292804 
L 221.348834 177.206836 
L 221.653807 151.232817 
L 221.958781 75.913306 
L 222.263754 113.420026 
L 222.568728 173.776779 
L 223.178675 105.34625 
L 223.483649 58.404805 
L 224.093596 172.202894 
L 224.39857 84.400479 
L 224.703543 172.184774 
L 225.008517 128.73444 
L 225.31349 102.541378 
L 225.618464 159.329433 
L 225.923438 83.445738 
L 226.228411 123.473204 
L 226.533385 106.705982 
L 226.838358 147.52432 
L 227.143332 139.499677 
L 227.448305 174.818255 
L 227.753279 73.401653 
L 228.058253 133.717296 
L 228.363226 102.541597 
L 228.6682 196.364272 
L 228.973173 108.939803 
L 229.278147 97.256806 
L 229.583121 103.833858 
L 229.888094 129.619405 
L 230.193068 141.598001 
L 230.498041 108.127333 
L 231.107988 164.462023 
L 231.412962 79.09397 
L 231.717936 164.239908 
L 232.022909 88.588499 
L 232.327883 168.061582 
L 232.632856 109.250912 
L 232.93783 86.49573 
L 233.242804 138.877125 
L 233.547777 169.656601 
L 233.852751 104.816948 
L 234.157724 104.779686 
L 234.462698 181.851495 
L 235.072645 73.193563 
L 235.377619 91.066637 
L 235.682592 132.017985 
L 235.987566 156.611672 
L 236.292539 148.475083 
L 236.597513 117.187005 
L 236.902487 118.194879 
L 237.20746 171.456555 
L 237.512434 70.311289 
L 237.817407 159.707095 
L 238.122381 146.652729 
L 238.427354 120.671464 
L 238.732328 48.189052 
L 239.342275 172.988147 
L 239.647249 132.227452 
L 239.952222 136.462739 
L 240.257196 95.478672 
L 240.56217 136.947207 
L 240.867143 111.534123 
L 241.172117 156.903627 
L 241.47709 107.519155 
L 241.782064 76.130429 
L 242.087037 173.749722 
L 242.392011 82.266576 
L 242.696985 153.268784 
L 243.001958 169.537788 
L 243.306932 87.763148 
L 243.611905 87.103316 
L 243.916879 155.835973 
L 244.221853 184.192209 
L 244.526826 46.44792 
L 244.8318 198.998976 
L 245.136773 42.79974 
L 245.441747 194.914642 
L 245.74672 101.15509 
L 246.051694 123.440115 
L 246.356668 131.439451 
L 246.661641 87.584662 
L 246.966615 198.703868 
L 247.271588 65.237604 
L 247.576562 163.809197 
L 247.881536 102.726889 
L 248.186509 85.536277 
L 248.491483 150.050716 
L 248.796456 124.21115 
L 249.10143 151.535346 
L 249.406403 103.878847 
L 249.711377 122.320715 
L 250.016351 176.416268 
L 250.321324 39.792566 
L 250.626298 214.756364 
L 250.931271 126.190389 
L 251.236245 88.189017 
L 251.541219 158.728895 
L 251.846192 63.428778 
L 252.151166 135.353843 
L 252.456139 107.012332 
L 252.761113 145.287182 
L 253.066086 115.023987 
L 253.37106 184.41964 
L 253.676034 51.007752 
L 254.285981 175.893479 
L 254.590954 110.883392 
L 254.895928 113.199939 
L 255.200902 119.648855 
L 255.505875 158.830657 
L 255.810849 119.019279 
L 256.115822 135.236263 
L 256.420796 73.214017 
L 256.725769 185.446144 
L 257.030743 60.052423 
L 257.335717 188.637521 
L 257.64069 124.579553 
L 257.945664 109.615486 
L 258.250637 72.29205 
L 258.555611 166.770117 
L 258.860585 109.613469 
L 259.165558 142.001311 
L 259.470532 84.666565 
L 259.775505 191.429597 
L 260.080479 124.670649 
L 260.385452 114.217118 
L 260.690426 64.655307 
L 261.300373 171.491384 
L 261.91032 78.261669 
L 262.215294 187.45555 
L 262.520268 72.616828 
L 262.825241 183.75937 
L 263.130215 70.725203 
L 263.435188 155.934869 
L 263.740162 66.434763 
L 264.045135 155.238023 
L 264.350109 101.511452 
L 264.655083 176.094366 
L 264.960056 109.436795 
L 265.26503 113.517194 
L 265.570003 163.488883 
L 265.874977 89.157386 
L 266.179951 124.958373 
L 266.484924 76.802134 
L 266.789898 144.902699 
L 267.094871 135.444967 
L 267.399845 89.584795 
L 267.704818 171.574132 
L 268.009792 126.773927 
L 268.314766 113.486035 
L 268.619739 147.761522 
L 268.924713 77.698185 
L 269.229686 112.226501 
L 269.53466 188.821004 
L 269.839634 32.140776 
L 270.144607 161.83327 
L 270.449581 130.020513 
L 270.754554 135.242097 
L 271.059528 62.739669 
L 271.364501 135.917186 
L 271.669475 164.947964 
L 271.974449 152.388869 
L 272.279422 126.063917 
L 272.584396 73.629892 
L 272.889369 128.505203 
L 273.194343 123.020875 
L 273.499317 105.63856 
L 273.80429 107.752625 
L 274.109264 181.31704 
L 274.414237 86.067467 
L 274.719211 97.644354 
L 275.024184 151.967731 
L 275.329158 162.800566 
L 275.634132 119.866999 
L 275.939105 55.016714 
L 276.244079 183.568481 
L 276.549052 83.10662 
L 276.854026 99.725325 
L 277.159 186.032378 
L 277.463973 62.124928 
L 277.768947 120.410143 
L 278.07392 105.330703 
L 278.378894 155.382463 
L 278.683867 95.919701 
L 278.988841 118.060474 
L 279.293815 149.798716 
L 279.598788 160.683598 
L 279.903762 104.832746 
L 280.208735 125.833362 
L 280.513709 66.046357 
L 280.818683 155.990702 
L 281.123656 145.092699 
L 281.42863 54.390218 
L 281.733603 170.566791 
L 282.038577 80.106063 
L 282.34355 187.352208 
L 282.648524 60.797274 
L 282.953498 173.391565 
L 283.258471 123.256477 
L 283.563445 100.828782 
L 283.868418 110.079671 
L 284.173392 132.426154 
L 284.478366 73.847089 
L 284.783339 178.767778 
L 285.088313 83.772754 
L 285.69826 142.403062 
L 286.003233 130.465748 
L 286.308207 99.503642 
L 286.613181 81.920897 
L 286.918154 188.524193 
L 287.223128 80.124133 
L 287.528101 120.552634 
L 287.833075 116.506447 
L 288.138049 120.322007 
L 288.443022 162.80211 
L 288.747996 80.855364 
L 289.052969 132.299357 
L 289.357943 159.742051 
L 289.662916 78.302666 
L 289.96789 133.017581 
L 290.272864 107.061102 
L 290.577837 123.09628 
L 290.882811 119.561752 
L 291.187784 157.558486 
L 291.492758 112.744811 
L 292.102705 92.407604 
L 292.407679 106.793068 
L 292.712652 155.075888 
L 293.017626 79.336952 
L 293.322599 150.9971 
L 293.627573 77.603085 
L 293.932547 199.084694 
L 294.23752 52.873563 
L 294.542494 137.126443 
L 294.847467 148.865221 
L 295.152441 76.648388 
L 295.457415 154.414126 
L 296.067362 120.441014 
L 296.372335 74.957875 
L 296.677309 84.812425 
L 296.982282 145.425513 
L 297.287256 97.909845 
L 297.59223 179.056774 
L 297.897203 46.041499 
L 298.202177 152.712701 
L 298.50715 125.800252 
L 298.812124 110.048999 
L 299.117098 73.612359 
L 299.422071 181.203053 
L 299.727045 72.486539 
L 300.032018 103.977725 
L 300.336992 200.639223 
L 300.641965 100.306841 
L 301.251913 130.877794 
L 301.556886 98.356419 
L 301.86186 77.79925 
L 302.166833 129.717235 
L 302.471807 89.60422 
L 302.776781 191.995973 
L 303.081754 110.557419 
L 303.386728 131.846924 
L 303.691701 55.971521 
L 303.996675 179.850473 
L 304.301648 113.988931 
L 304.606622 75.752536 
L 304.911596 136.562564 
L 305.216569 82.945974 
L 305.521543 127.000177 
L 305.826516 128.694164 
L 306.13149 85.278965 
L 306.436464 127.938612 
L 306.741437 139.124561 
L 307.046411 92.967432 
L 307.656358 145.201363 
L 307.961331 68.194523 
L 308.266305 179.050814 
L 308.571279 116.773837 
L 308.876252 116.948248 
L 309.181226 64.639036 
L 309.486199 120.136717 
L 309.791173 99.402344 
L 310.096147 99.958827 
L 310.40112 187.333393 
L 310.706094 55.88048 
L 311.011067 135.901076 
L 311.316041 91.388603 
L 311.621014 140.406406 
L 311.925988 163.303818 
L 312.230962 111.330974 
L 312.535935 118.816478 
L 312.840909 34.378924 
L 313.145882 162.857719 
L 313.450856 161.641132 
L 313.75583 26.246503 
L 314.060803 197.263086 
L 314.365777 52.883986 
L 314.67075 161.607498 
L 314.975724 87.964724 
L 315.280697 74.789181 
L 315.585671 111.15709 
L 315.890645 130.045713 
L 316.195618 120.117507 
L 316.500592 158.039023 
L 316.805565 74.378899 
L 317.110539 151.252626 
L 317.415513 69.197322 
L 317.720486 107.332874 
L 318.02546 196.619447 
L 318.330433 111.102995 
L 318.635407 77.171311 
L 318.94038 141.051722 
L 319.245354 119.294476 
L 319.550328 79.15709 
L 319.855301 89.93881 
L 320.160275 178.27428 
L 320.465248 86.917134 
L 320.770222 93.634688 
L 321.075196 126.687415 
L 321.380169 142.202975 
L 321.685143 63.71681 
L 321.990116 152.96389 
L 322.29509 92.556441 
L 322.600063 97.041624 
L 322.905037 129.956175 
L 323.210011 124.110647 
L 323.514984 81.551438 
L 324.124931 169.077603 
L 324.429905 79.615952 
L 324.734879 70.735443 
L 325.039852 145.468653 
L 325.649799 88.497849 
L 325.954773 129.643324 
L 326.259746 131.656336 
L 326.56472 150.476631 
L 326.869694 55.987617 
L 327.174667 128.584729 
L 327.479641 131.588352 
L 327.784614 87.554469 
L 328.089588 107.319334 
L 328.394562 143.930424 
L 328.699535 107.172253 
L 329.004509 114.190703 
L 329.309482 56.930447 
L 329.614456 143.289921 
L 329.919429 153.620689 
L 330.224403 71.619638 
L 330.529377 130.176575 
L 330.83435 84.965009 
L 331.139324 151.858005 
L 331.749271 59.562623 
L 332.054245 139.256472 
L 332.664192 80.270586 
L 332.969165 174.849943 
L 333.274139 105.824791 
L 333.579112 87.403239 
L 333.884086 136.58407 
L 334.18906 101.504878 
L 334.494033 132.273309 
L 334.799007 81.445773 
L 335.10398 122.588818 
L 335.408954 73.733082 
L 335.713928 125.914695 
L 336.018901 118.646078 
L 336.323875 81.419711 
L 336.628848 156.459429 
L 337.238795 79.515688 
L 337.543769 89.281112 
L 337.848743 120.413232 
L 338.153716 118.93729 
L 338.45869 98.471024 
L 338.763663 118.0233 
L 339.068637 115.745423 
L 339.373611 156.65252 
L 339.678584 121.210831 
L 339.983558 53.448887 
L 340.288531 132.474932 
L 340.593505 159.447628 
L 340.898478 36.137433 
L 341.203452 114.1018 
L 341.508426 154.826565 
L 341.813399 144.918462 
L 342.118373 26.163171 
L 342.423346 115.677868 
L 342.72832 127.511309 
L 343.033294 166.065029 
L 343.338267 67.512778 
L 343.643241 120.956237 
L 343.948214 132.091229 
L 344.253188 47.469214 
L 344.558161 152.226786 
L 345.473082 65.928202 
L 345.778056 203.115205 
L 346.083029 80.933065 
L 346.388003 96.642997 
L 346.692977 138.732654 
L 346.99795 101.825138 
L 347.302924 96.497537 
L 347.607897 133.748907 
L 347.912871 70.210746 
L 348.217844 98.794847 
L 348.522818 83.328956 
L 348.827792 162.357283 
L 349.132765 73.156908 
L 349.437739 126.5437 
L 349.742712 147.807508 
L 350.047686 130.47263 
L 350.657633 48.723234 
L 350.962607 111.784966 
L 351.572554 161.376935 
L 351.877527 100.036756 
L 352.182501 106.384499 
L 352.487475 125.151766 
L 352.792448 67.268403 
L 353.097422 93.587112 
L 353.402395 82.656054 
L 353.707369 120.625457 
L 354.012343 175.068293 
L 354.317316 66.05017 
L 354.62229 118.89501 
L 354.927263 87.265557 
L 355.232237 122.847133 
L 355.537211 125.156129 
L 355.842184 124.352552 
L 356.147158 53.910604 
L 356.452131 137.368759 
L 356.757105 113.951323 
L 357.062078 72.439065 
L 357.367052 112.758431 
L 357.672026 113.206051 
L 357.976999 167.034254 
L 358.281973 55.551682 
L 358.586946 172.638996 
L 358.89192 41.011583 
L 359.196894 158.482432 
L 359.501867 122.846226 
L 359.806841 37.535573 
L 360.111814 185.098804 
L 360.416788 127.549139 
L 360.721761 20.234246 
L 361.026735 134.465671 
L 361.331709 135.107605 
L 361.636682 91.574109 
L 361.941656 109.325969 
L 362.246629 153.76231 
L 362.856577 79.081868 
L 363.16155 75.364503 
L 363.466524 118.882225 
L 363.771497 92.016204 
L 364.076471 176.432886 
L 364.381444 52.984162 
L 364.686418 169.539971 
L 364.991392 47.019645 
L 365.296365 142.046466 
L 365.601339 72.839467 
L 365.906312 162.523553 
L 366.211286 63.305363 
L 366.51626 92.459758 
L 366.821233 151.49215 
L 367.126207 85.737748 
L 367.43118 123.443474 
L 367.736154 88.189018 
L 368.041127 89.961099 
L 368.346101 176.142429 
L 368.651075 106.954375 
L 368.956048 106.365789 
L 369.261022 57.909283 
L 369.565995 152.314329 
L 369.870969 45.995064 
L 370.175943 200.605002 
L 370.480916 17.083636 
L 371.090863 194.920506 
L 371.395837 40.1149 
L 371.70081 105.376811 
L 372.310758 150.383016 
L 372.920705 75.907146 
L 373.225678 132.348489 
L 373.530652 84.882267 
L 373.835626 117.779304 
L 374.140599 124.60683 
L 374.445573 90.576533 
L 375.05552 113.262539 
L 375.360493 79.772316 
L 375.665467 85.043782 
L 375.970441 179.216606 
L 376.275414 120.970297 
L 376.580388 117.356498 
L 376.885361 105.914208 
L 377.190335 69.309118 
L 377.495309 129.733994 
L 377.800282 62.181873 
L 378.105256 110.725013 
L 378.105256 110.725013 
" clip-path="url(#p0f84f53f50)" style="fill: none; stroke: #1f77b4; stroke-width: 1.5; stroke-linecap: square"/>
   </g>
   <g id="line2d_16">
    <path d="M 73.741619 108.62703 
L 81.365959 108.738572 
L 89.295272 109.079124 
L 97.224585 109.639599 
L 105.763846 110.471863 
L 114.913053 111.597887 
L 124.977181 113.069419 
L 137.176125 115.09118 
L 179.567453 122.33679 
L 189.326607 123.655433 
L 198.170841 124.630835 
L 206.405128 125.321542 
L 214.334441 125.769329 
L 222.263754 125.991724 
L 229.888094 125.987429 
L 237.817407 125.756216 
L 245.74672 125.299961 
L 253.981007 124.601073 
L 262.520268 123.655433 
L 271.974449 122.381363 
L 282.953498 120.664848 
L 297.59223 118.127184 
L 323.819958 113.554503 
L 334.799007 111.89149 
L 344.253188 110.678779 
L 352.792448 109.798707 
L 361.026735 109.170209 
L 368.956048 108.786473 
L 376.885361 108.630469 
L 378.105256 108.62703 
L 378.105256 108.62703 
" clip-path="url(#p0f84f53f50)" style="fill: none; stroke: #ff7f0e; stroke-width: 1.5; stroke-linecap: square"/>
   </g>
   <g id="patch_3">
    <path d="M 58.523438 224.64 
L 58.523438 7.2 
" style="fill: none; stroke: #000000; stroke-width: 0.8; stroke-linejoin: miter; stroke-linecap: square"/>
   </g>
   <g id="patch_4">
    <path d="M 393.323438 224.64 
L 393.323438 7.2 
" style="fill: none; stroke: #000000; stroke-width: 0.8; stroke-linejoin: miter; stroke-linecap: square"/>
   </g>
   <g id="patch_5">
    <path d="M 58.523438 224.64 
L 393.323438 224.64 
" style="fill: none; stroke: #000000; stroke-width: 0.8; stroke-linejoin: miter; stroke-linecap: square"/>
   </g>
   <g id="patch_6">
    <path d="M 58.523438 7.2 
L 393.323438 7.2 
" style="fill: none; stroke: #000000; stroke-width: 0.8; stroke-linejoin: miter; stroke-linecap: square"/>
   </g>
   <g id="legend_1">
    <g id="patch_7">
     <path d="M 177.103906 44.55625 
L 274.742969 44.55625 
Q 276.742969 44.55625 276.742969 42.55625 
L 276.742969 14.2 
Q 276.742969 12.2 274.742969 12.2 
L 177.103906 12.2 
Q 175.103906 12.2 175.103906 14.2 
L 175.103906 42.55625 
Q 175.103906 44.55625 177.103906 44.55625 
z
" style="fill: #ffffff; opacity: 0.8; stroke: #cccccc; stroke-linejoin: miter"/>
    </g>
    <g id="line2d_17">
     <path d="M 179.103906 20.298437 
L 189.103906 20.298437 
L 199.103906 20.298437 
" style="fill: none; stroke: #1f77b4; stroke-width: 1.5; stroke-linecap: square"/>
    </g>
    <g id="text_16">
     <!-- Noisy Data -->
     <g transform="translate(207.103906 23.798437)scale(0.1 -0.1)">
      <defs>
       <path id="DejaVuSans-4e" d="M 628 4666 
L 1478 4666 
L 3547 763 
L 3547 4666 
L 4159 4666 
L 4159 0 
L 3309 0 
L 1241 3903 
L 1241 0 
L 628 0 
L 628 4666 
z
" transform="scale(0.015625)"/>
       <path id="DejaVuSans-69" d="M 603 3500 
L 1178 3500 
L 1178 0 
L 603 0 
L 603 3500 
z
M 603 4863 
L 1178 4863 
L 1178 4134 
L 603 4134 
L 603 4863 
z
" transform="scale(0.015625)"/>
       <path id="DejaVuSans-73" d="M 2834 3397 
L 2834 2853 
Q 2591 2978 2328 3040 
Q 2066 3103 1784 3103 
Q 1356 3103 1142 2972 
Q 928 2841 928 2578 
Q 928 2378 1081 2264 
Q 1234 2150 1697 2047 
L 1894 2003 
Q 2506 1872 2764 1633 
Q 3022 1394 3022 966 
Q 3022 478 2636 193 
Q 2250 -91 1575 -91 
Q 1294 -91 989 -36 
Q 684 19 347 128 
L 347 722 
Q 666 556 975 473 
Q 1284 391 1588 391 
Q 1994 391 2212 530 
Q 2431 669 2431 922 
Q 2431 1156 2273 1281 
Q 2116 1406 1581 1522 
L 1381 1569 
Q 847 1681 609 1914 
Q 372 2147 372 2553 
Q 372 3047 722 3315 
Q 1072 3584 1716 3584 
Q 2034 3584 2315 3537 
Q 2597 3491 2834 3397 
z
" transform="scale(0.015625)"/>
       <path id="DejaVuSans-44" d="M 1259 4147 
L 1259 519 
L 2022 519 
Q 2988 519 3436 956 
Q 3884 1394 3884 2338 
Q 3884 3275 3436 3711 
Q 2988 4147 2022 4147 
L 1259 4147 
z
M 628 4666 
L 1925 4666 
Q 3281 4666 3915 4102 
Q 4550 3538 4550 2338 
Q 4550 1131 3912 565 
Q 3275 0 1925 0 
L 628 0 
L 628 4666 
z
" transform="scale(0.015625)"/>
       <path id="DejaVuSans-61" d="M 2194 1759 
Q 1497 1759 1228 1600 
Q 959 1441 959 1056 
Q 959 750 1161 570 
Q 1363 391 1709 391 
Q 2188 391 2477 730 
Q 2766 1069 2766 1631 
L 2766 1759 
L 2194 1759 
z
M 3341 1997 
L 3341 0 
L 2766 0 
L 2766 531 
Q 2569 213 2275 61 
Q 1981 -91 1556 -91 
Q 1019 -91 701 211 
Q 384 513 384 1019 
Q 384 1609 779 1909 
Q 1175 2209 1959 2209 
L 2766 2209 
L 2766 2266 
Q 2766 2663 2505 2880 
Q 2244 3097 1772 3097 
Q 1472 3097 1187 3025 
Q 903 2953 641 2809 
L 641 3341 
Q 956 3463 1253 3523 
Q 1550 3584 1831 3584 
Q 2591 3584 2966 3190 
Q 3341 2797 3341 1997 
z
" transform="scale(0.015625)"/>
       <path id="DejaVuSans-74" d="M 1172 4494 
L 1172 3500 
L 2356 3500 
L 2356 3053 
L 1172 3053 
L 1172 1153 
Q 1172 725 1289 603 
Q 1406 481 1766 481 
L 2356 481 
L 2356 0 
L 1766 0 
Q 1100 0 847 248 
Q 594 497 594 1153 
L 594 3053 
L 172 3053 
L 172 3500 
L 594 3500 
L 594 4494 
L 1172 4494 
z
" transform="scale(0.015625)"/>
      </defs>
      <use xlink:href="#DejaVuSans-4e"/>
      <use xlink:href="#DejaVuSans-6f" x="74.804688"/>
      <use xlink:href="#DejaVuSans-69" x="135.986328"/>
      <use xlink:href="#DejaVuSans-73" x="163.769531"/>
      <use xlink:href="#DejaVuSans-79" x="215.869141"/>
      <use xlink:href="#DejaVuSans-20" x="275.048828"/>
      <use xlink:href="#DejaVuSans-44" x="306.835938"/>
      <use xlink:href="#DejaVuSans-61" x="383.837891"/>
      <use xlink:href="#DejaVuSans-74" x="445.117188"/>
      <use xlink:href="#DejaVuSans-61" x="484.326172"/>
     </g>
    </g>
    <g id="line2d_18">
     <path d="M 179.103906 34.976562 
L 189.103906 34.976562 
L 199.103906 34.976562 
" style="fill: none; stroke: #ff7f0e; stroke-width: 1.5; stroke-linecap: square"/>
    </g>
    <g id="text_17">
     <!-- Smooth Data -->
     <g transform="translate(207.103906 38.476562)scale(0.1 -0.1)">
      <defs>
       <path id="DejaVuSans-6d" d="M 3328 2828 
Q 3544 3216 3844 3400 
Q 4144 3584 4550 3584 
Q 5097 3584 5394 3201 
Q 5691 2819 5691 2113 
L 5691 0 
L 5113 0 
L 5113 2094 
Q 5113 2597 4934 2840 
Q 4756 3084 4391 3084 
Q 3944 3084 3684 2787 
Q 3425 2491 3425 1978 
L 3425 0 
L 2847 0 
L 2847 2094 
Q 2847 2600 2669 2842 
Q 2491 3084 2119 3084 
Q 1678 3084 1418 2786 
Q 1159 2488 1159 1978 
L 1159 0 
L 581 0 
L 581 3500 
L 1159 3500 
L 1159 2956 
Q 1356 3278 1631 3431 
Q 1906 3584 2284 3584 
Q 2666 3584 2933 3390 
Q 3200 3197 3328 2828 
z
" transform="scale(0.015625)"/>
       <path id="DejaVuSans-68" d="M 3513 2113 
L 3513 0 
L 2938 0 
L 2938 2094 
Q 2938 2591 2744 2837 
Q 2550 3084 2163 3084 
Q 1697 3084 1428 2787 
Q 1159 2491 1159 1978 
L 1159 0 
L 581 0 
L 581 4863 
L 1159 4863 
L 1159 2956 
Q 1366 3272 1645 3428 
Q 1925 3584 2291 3584 
Q 2894 3584 3203 3211 
Q 3513 2838 3513 2113 
z
" transform="scale(0.015625)"/>
      </defs>
      <use xlink:href="#DejaVuSans-53"/>
      <use xlink:href="#DejaVuSans-6d" x="63.476562"/>
      <use xlink:href="#DejaVuSans-6f" x="160.888672"/>
      <use xlink:href="#DejaVuSans-6f" x="222.070312"/>
      <use xlink:href="#DejaVuSans-74" x="283.251953"/>
      <use xlink:href="#DejaVuSans-68" x="322.460938"/>
      <use xlink:href="#DejaVuSans-20" x="385.839844"/>
      <use xlink:href="#DejaVuSans-44" x="417.626953"/>
      <use xlink:href="#DejaVuSans-61" x="494.628906"/>
      <use xlink:href="#DejaVuSans-74" x="555.908203"/>
      <use xlink:href="#DejaVuSans-61" x="595.117188"/>
     </g>
    </g>
   </g>
  </g>
 </g>
 <defs>
  <clipPath id="p0f84f53f50">
   <rect x="58.523438" y="7.2" width="334.8" height="217.44"/>
  </clipPath>
 </defs>
</svg>
