<?xml version="1.0" encoding="utf-8" standalone="no"?>
<!DOCTYPE svg PUBLIC "-//W3C//DTD SVG 1.1//EN"
  "http://www.w3.org/Graphics/SVG/1.1/DTD/svg11.dtd">
<svg xmlns:xlink="http://www.w3.org/1999/xlink" width="380.482813pt" height="248.518125pt" viewBox="0 0 380.482813 248.518125" xmlns="http://www.w3.org/2000/svg" version="1.1">
 <metadata>
  <rdf:RDF xmlns:dc="http://purl.org/dc/elements/1.1/" xmlns:cc="http://creativecommons.org/ns#" xmlns:rdf="http://www.w3.org/1999/02/22-rdf-syntax-ns#">
   <cc:Work>
    <dc:type rdf:resource="http://purl.org/dc/dcmitype/StillImage"/>
    <dc:date>2022-07-20T10:47:42.684858</dc:date>
    <dc:format>image/svg+xml</dc:format>
    <dc:creator>
     <cc:Agent>
      <dc:title>Matplotlib v3.5.2, https://matplotlib.org/</dc:title>
     </cc:Agent>
    </dc:creator>
   </cc:Work>
  </rdf:RDF>
 </metadata>
 <defs>
  <style type="text/css">*{stroke-linejoin: round; stroke-linecap: butt}</style>
 </defs>
 <g id="figure_1">
  <g id="patch_1">
   <path d="M -0 248.518125 
L 380.482813 248.518125 
L 380.482813 0 
L -0 0 
L -0 248.518125 
z
" style="fill: none"/>
  </g>
  <g id="axes_1">
   <g id="patch_2">
    <path d="M 38.482813 224.64 
L 373.282813 224.64 
L 373.282813 7.2 
L 38.482813 7.2 
z
" style="fill: #ffffff"/>
   </g>
   <g id="matplotlib.axis_1">
    <g id="xtick_1">
     <g id="line2d_1">
      <defs>
       <path id="m25e2a353c0" d="M 0 0 
L 0 3.5 
" style="stroke: #000000; stroke-width: 0.8"/>
      </defs>
      <g>
       <use xlink:href="#m25e2a353c0" x="53.395715" y="224.64" style="stroke: #000000; stroke-width: 0.8"/>
      </g>
     </g>
     <g id="text_1">
      <!-- 0 -->
      <g transform="translate(50.214465 239.238437)scale(0.1 -0.1)">
       <defs>
        <path id="DejaVuSans-30" d="M 2034 4250 
Q 1547 4250 1301 3770 
Q 1056 3291 1056 2328 
Q 1056 1369 1301 889 
Q 1547 409 2034 409 
Q 2525 409 2770 889 
Q 3016 1369 3016 2328 
Q 3016 3291 2770 3770 
Q 2525 4250 2034 4250 
z
M 2034 4750 
Q 2819 4750 3233 4129 
Q 3647 3509 3647 2328 
Q 3647 1150 3233 529 
Q 2819 -91 2034 -91 
Q 1250 -91 836 529 
Q 422 1150 422 2328 
Q 422 3509 836 4129 
Q 1250 4750 2034 4750 
z
" transform="scale(0.015625)"/>
       </defs>
       <use xlink:href="#DejaVuSans-30"/>
      </g>
     </g>
    </g>
    <g id="xtick_2">
     <g id="line2d_2">
      <g>
       <use xlink:href="#m25e2a353c0" x="101.933866" y="224.64" style="stroke: #000000; stroke-width: 0.8"/>
      </g>
     </g>
     <g id="text_2">
      <!-- 5 -->
      <g transform="translate(98.752616 239.238437)scale(0.1 -0.1)">
       <defs>
        <path id="DejaVuSans-35" d="M 691 4666 
L 3169 4666 
L 3169 4134 
L 1269 4134 
L 1269 2991 
Q 1406 3038 1543 3061 
Q 1681 3084 1819 3084 
Q 2600 3084 3056 2656 
Q 3513 2228 3513 1497 
Q 3513 744 3044 326 
Q 2575 -91 1722 -91 
Q 1428 -91 1123 -41 
Q 819 9 494 109 
L 494 744 
Q 775 591 1075 516 
Q 1375 441 1709 441 
Q 2250 441 2565 725 
Q 2881 1009 2881 1497 
Q 2881 1984 2565 2268 
Q 2250 2553 1709 2553 
Q 1456 2553 1204 2497 
Q 953 2441 691 2322 
L 691 4666 
z
" transform="scale(0.015625)"/>
       </defs>
       <use xlink:href="#DejaVuSans-35"/>
      </g>
     </g>
    </g>
    <g id="xtick_3">
     <g id="line2d_3">
      <g>
       <use xlink:href="#m25e2a353c0" x="150.472016" y="224.64" style="stroke: #000000; stroke-width: 0.8"/>
      </g>
     </g>
     <g id="text_3">
      <!-- 10 -->
      <g transform="translate(144.109516 239.238437)scale(0.1 -0.1)">
       <defs>
        <path id="DejaVuSans-31" d="M 794 531 
L 1825 531 
L 1825 4091 
L 703 3866 
L 703 4441 
L 1819 4666 
L 2450 4666 
L 2450 531 
L 3481 531 
L 3481 0 
L 794 0 
L 794 531 
z
" transform="scale(0.015625)"/>
       </defs>
       <use xlink:href="#DejaVuSans-31"/>
       <use xlink:href="#DejaVuSans-30" x="63.623047"/>
      </g>
     </g>
    </g>
    <g id="xtick_4">
     <g id="line2d_4">
      <g>
       <use xlink:href="#m25e2a353c0" x="199.010167" y="224.64" style="stroke: #000000; stroke-width: 0.8"/>
      </g>
     </g>
     <g id="text_4">
      <!-- 15 -->
      <g transform="translate(192.647667 239.238437)scale(0.1 -0.1)">
       <use xlink:href="#DejaVuSans-31"/>
       <use xlink:href="#DejaVuSans-35" x="63.623047"/>
      </g>
     </g>
    </g>
    <g id="xtick_5">
     <g id="line2d_5">
      <g>
       <use xlink:href="#m25e2a353c0" x="247.548318" y="224.64" style="stroke: #000000; stroke-width: 0.8"/>
      </g>
     </g>
     <g id="text_5">
      <!-- 20 -->
      <g transform="translate(241.185818 239.238437)scale(0.1 -0.1)">
       <defs>
        <path id="DejaVuSans-32" d="M 1228 531 
L 3431 531 
L 3431 0 
L 469 0 
L 469 531 
Q 828 903 1448 1529 
Q 2069 2156 2228 2338 
Q 2531 2678 2651 2914 
Q 2772 3150 2772 3378 
Q 2772 3750 2511 3984 
Q 2250 4219 1831 4219 
Q 1534 4219 1204 4116 
Q 875 4013 500 3803 
L 500 4441 
Q 881 4594 1212 4672 
Q 1544 4750 1819 4750 
Q 2544 4750 2975 4387 
Q 3406 4025 3406 3419 
Q 3406 3131 3298 2873 
Q 3191 2616 2906 2266 
Q 2828 2175 2409 1742 
Q 1991 1309 1228 531 
z
" transform="scale(0.015625)"/>
       </defs>
       <use xlink:href="#DejaVuSans-32"/>
       <use xlink:href="#DejaVuSans-30" x="63.623047"/>
      </g>
     </g>
    </g>
    <g id="xtick_6">
     <g id="line2d_6">
      <g>
       <use xlink:href="#m25e2a353c0" x="296.086468" y="224.64" style="stroke: #000000; stroke-width: 0.8"/>
      </g>
     </g>
     <g id="text_6">
      <!-- 25 -->
      <g transform="translate(289.723968 239.238437)scale(0.1 -0.1)">
       <use xlink:href="#DejaVuSans-32"/>
       <use xlink:href="#DejaVuSans-35" x="63.623047"/>
      </g>
     </g>
    </g>
    <g id="xtick_7">
     <g id="line2d_7">
      <g>
       <use xlink:href="#m25e2a353c0" x="344.624619" y="224.64" style="stroke: #000000; stroke-width: 0.8"/>
      </g>
     </g>
     <g id="text_7">
      <!-- 30 -->
      <g transform="translate(338.262119 239.238437)scale(0.1 -0.1)">
       <defs>
        <path id="DejaVuSans-33" d="M 2597 2516 
Q 3050 2419 3304 2112 
Q 3559 1806 3559 1356 
Q 3559 666 3084 287 
Q 2609 -91 1734 -91 
Q 1441 -91 1130 -33 
Q 819 25 488 141 
L 488 750 
Q 750 597 1062 519 
Q 1375 441 1716 441 
Q 2309 441 2620 675 
Q 2931 909 2931 1356 
Q 2931 1769 2642 2001 
Q 2353 2234 1838 2234 
L 1294 2234 
L 1294 2753 
L 1863 2753 
Q 2328 2753 2575 2939 
Q 2822 3125 2822 3475 
Q 2822 3834 2567 4026 
Q 2313 4219 1838 4219 
Q 1578 4219 1281 4162 
Q 984 4106 628 3988 
L 628 4550 
Q 988 4650 1302 4700 
Q 1616 4750 1894 4750 
Q 2613 4750 3031 4423 
Q 3450 4097 3450 3541 
Q 3450 3153 3228 2886 
Q 3006 2619 2597 2516 
z
" transform="scale(0.015625)"/>
       </defs>
       <use xlink:href="#DejaVuSans-33"/>
       <use xlink:href="#DejaVuSans-30" x="63.623047"/>
      </g>
     </g>
    </g>
   </g>
   <g id="matplotlib.axis_2">
    <g id="ytick_1">
     <g id="line2d_8">
      <defs>
       <path id="m67e3008ded" d="M 0 0 
L -3.5 0 
" style="stroke: #000000; stroke-width: 0.8"/>
      </defs>
      <g>
       <use xlink:href="#m67e3008ded" x="38.482813" y="195.079289" style="stroke: #000000; stroke-width: 0.8"/>
      </g>
     </g>
     <g id="text_8">
      <!-- −1.0 -->
      <g transform="translate(7.2 198.878508)scale(0.1 -0.1)">
       <defs>
        <path id="DejaVuSans-2212" d="M 678 2272 
L 4684 2272 
L 4684 1741 
L 678 1741 
L 678 2272 
z
" transform="scale(0.015625)"/>
        <path id="DejaVuSans-2e" d="M 684 794 
L 1344 794 
L 1344 0 
L 684 0 
L 684 794 
z
" transform="scale(0.015625)"/>
       </defs>
       <use xlink:href="#DejaVuSans-2212"/>
       <use xlink:href="#DejaVuSans-31" x="83.789062"/>
       <use xlink:href="#DejaVuSans-2e" x="147.412109"/>
       <use xlink:href="#DejaVuSans-30" x="179.199219"/>
      </g>
     </g>
    </g>
    <g id="ytick_2">
     <g id="line2d_9">
      <g>
       <use xlink:href="#m67e3008ded" x="38.482813" y="156.991668" style="stroke: #000000; stroke-width: 0.8"/>
      </g>
     </g>
     <g id="text_9">
      <!-- −0.5 -->
      <g transform="translate(7.2 160.790886)scale(0.1 -0.1)">
       <use xlink:href="#DejaVuSans-2212"/>
       <use xlink:href="#DejaVuSans-30" x="83.789062"/>
       <use xlink:href="#DejaVuSans-2e" x="147.412109"/>
       <use xlink:href="#DejaVuSans-35" x="179.199219"/>
      </g>
     </g>
    </g>
    <g id="ytick_3">
     <g id="line2d_10">
      <g>
       <use xlink:href="#m67e3008ded" x="38.482813" y="118.904046" style="stroke: #000000; stroke-width: 0.8"/>
      </g>
     </g>
     <g id="text_10">
      <!-- 0.0 -->
      <g transform="translate(15.579688 122.703265)scale(0.1 -0.1)">
       <use xlink:href="#DejaVuSans-30"/>
       <use xlink:href="#DejaVuSans-2e" x="63.623047"/>
       <use xlink:href="#DejaVuSans-30" x="95.410156"/>
      </g>
     </g>
    </g>
    <g id="ytick_4">
     <g id="line2d_11">
      <g>
       <use xlink:href="#m67e3008ded" x="38.482813" y="80.816424" style="stroke: #000000; stroke-width: 0.8"/>
      </g>
     </g>
     <g id="text_11">
      <!-- 0.5 -->
      <g transform="translate(15.579688 84.615643)scale(0.1 -0.1)">
       <use xlink:href="#DejaVuSans-30"/>
       <use xlink:href="#DejaVuSans-2e" x="63.623047"/>
       <use xlink:href="#DejaVuSans-35" x="95.410156"/>
      </g>
     </g>
    </g>
    <g id="ytick_5">
     <g id="line2d_12">
      <g>
       <use xlink:href="#m67e3008ded" x="38.482813" y="42.728803" style="stroke: #000000; stroke-width: 0.8"/>
      </g>
     </g>
     <g id="text_12">
      <!-- 1.0 -->
      <g transform="translate(15.579688 46.528021)scale(0.1 -0.1)">
       <use xlink:href="#DejaVuSans-31"/>
       <use xlink:href="#DejaVuSans-2e" x="63.623047"/>
       <use xlink:href="#DejaVuSans-30" x="95.410156"/>
      </g>
     </g>
    </g>
   </g>
   <g id="line2d_13">
    <path d="M 53.700994 109.498304 
L 54.311553 99.746716 
L 54.616833 99.746716 
L 54.922112 86.884098 
L 55.227392 93.873798 
L 55.532671 86.884098 
L 55.837951 84.462371 
L 56.14323 79.815663 
L 56.44851 79.815663 
L 56.753789 97.786268 
L 57.059069 97.786268 
L 57.669627 96.113974 
L 57.974907 70.6683 
L 58.280186 62.543073 
L 58.585466 60.710836 
L 58.890745 60.710836 
L 59.196025 58.814448 
L 59.501304 71.566095 
L 60.111863 71.566095 
L 60.417143 70.647252 
L 60.722422 70.647252 
L 61.027702 76.998439 
L 61.332981 76.998439 
L 61.638261 72.011867 
L 61.94354 55.788333 
L 62.24882 47.585344 
L 62.554099 47.585344 
L 62.859379 70.770534 
L 63.164658 70.770534 
L 63.469938 59.443329 
L 63.775217 35.438466 
L 64.080496 35.746816 
L 64.691055 35.746816 
L 64.996335 60.480808 
L 65.301614 41.822985 
L 65.606894 55.081103 
L 66.217453 55.081103 
L 67.133291 31.778613 
L 67.438571 26.410432 
L 67.74385 26.410432 
L 68.04913 47.319651 
L 68.354409 54.202318 
L 68.659689 49.019996 
L 69.270248 49.019996 
L 69.575527 52.80837 
L 69.880806 52.80837 
L 70.186086 49.927276 
L 70.491365 49.927276 
L 70.796645 53.601053 
L 71.101924 53.601053 
L 71.407204 40.579311 
L 71.712483 40.579311 
L 72.017763 50.005762 
L 72.323042 63.818688 
L 72.933601 63.818688 
L 73.238881 68.987114 
L 73.54416 69.613441 
L 73.84944 68.987114 
L 74.154719 60.092797 
L 74.459999 57.528057 
L 75.070558 57.528057 
L 75.375837 46.766234 
L 75.681117 46.766234 
L 75.986396 80.087133 
L 76.291675 88.769928 
L 76.596955 88.769928 
L 76.902234 60.176339 
L 77.207514 60.176339 
L 77.512793 66.429518 
L 78.123352 66.429518 
L 78.428632 70.24522 
L 78.733911 89.272037 
L 79.039191 89.272037 
L 79.34447 93.957813 
L 79.64975 104.222538 
L 79.955029 93.957813 
L 80.260309 88.736071 
L 80.565588 88.736071 
L 80.870868 106.191667 
L 81.176147 116.766841 
L 81.786706 97.855285 
L 82.091985 97.855285 
L 82.397265 99.210947 
L 82.702544 103.216191 
L 83.007824 119.646699 
L 83.313103 128.063647 
L 83.618383 132.996777 
L 83.923662 132.996777 
L 84.228942 124.60695 
L 84.534221 124.60695 
L 84.839501 134.382962 
L 85.14478 134.382962 
L 85.45006 129.139541 
L 85.755339 120.48876 
L 86.060619 120.48876 
L 86.671178 140.321939 
L 86.976457 140.321939 
L 87.281737 141.470766 
L 87.892295 141.470766 
L 88.197575 155.97921 
L 88.502854 155.97921 
L 88.808134 132.940253 
L 89.113413 132.940253 
L 89.418693 146.326552 
L 89.723972 149.61907 
L 90.029252 172.916716 
L 90.334531 172.916716 
L 90.639811 172.273595 
L 90.94509 165.493106 
L 91.555649 179.89185 
L 91.860929 179.89185 
L 92.166208 157.51035 
L 92.471488 157.51035 
L 92.776767 185.895693 
L 93.082047 185.895693 
L 93.387326 184.882139 
L 93.692606 184.882139 
L 93.997885 200.890954 
L 94.303164 200.890954 
L 94.608444 189.580372 
L 94.913723 189.580372 
L 95.219003 191.296167 
L 95.524282 204.034005 
L 96.134841 183.096004 
L 96.440121 183.096004 
L 97.05068 183.644423 
L 97.355959 191.213109 
L 97.661239 192.725605 
L 97.966518 211.403058 
L 98.577077 211.50246 
L 98.882357 211.50246 
L 99.187636 188.886949 
L 99.798195 188.886949 
L 100.103474 185.635164 
L 100.408754 211.844764 
L 100.714033 214.661645 
L 101.019313 214.661645 
L 101.324592 188.990117 
L 101.629872 179.16875 
L 101.935151 172.932597 
L 102.240431 172.932597 
L 102.54571 203.978251 
L 103.156269 203.978251 
L 103.461549 208.264204 
L 103.766828 208.264204 
L 104.072108 194.920307 
L 104.377387 190.238125 
L 104.682667 194.920307 
L 105.293226 186.286186 
L 105.598505 178.032288 
L 105.903785 186.286186 
L 106.209064 179.310554 
L 106.819623 179.310554 
L 107.124902 166.146361 
L 107.430182 169.470165 
L 107.735461 169.470165 
L 108.040741 177.452366 
L 108.34602 177.452366 
L 108.6513 178.042158 
L 108.956579 174.104951 
L 109.261859 174.104951 
L 109.567138 167.620924 
L 110.177697 167.620924 
L 110.482977 131.373614 
L 110.788256 131.373614 
L 111.093536 148.34942 
L 111.398815 148.34942 
L 111.704095 129.039057 
L 112.314653 129.039057 
L 112.619933 124.447981 
L 112.925212 124.447981 
L 113.230492 126.56989 
L 113.535771 126.56989 
L 113.841051 137.240625 
L 114.14633 133.580752 
L 114.45161 133.580752 
L 114.756889 129.830072 
L 115.062169 123.282738 
L 115.367448 121.569661 
L 115.672728 111.135945 
L 115.978007 87.918488 
L 116.588566 79.219197 
L 116.893846 78.893107 
L 117.199125 78.893107 
L 117.504405 101.956293 
L 117.809684 101.956293 
L 118.114963 91.287348 
L 118.420243 84.638515 
L 119.030802 84.638515 
L 119.336081 68.1424 
L 119.641361 64.629197 
L 119.94664 57.364716 
L 120.25192 57.364716 
L 120.557199 66.018074 
L 121.167758 66.018074 
L 121.473038 58.368117 
L 121.778317 72.304791 
L 122.083597 72.304791 
L 122.388876 79.43409 
L 122.694156 79.43409 
L 122.999435 74.756246 
L 123.609994 74.756246 
L 123.915274 49.077677 
L 124.220553 49.077677 
L 124.525832 63.92032 
L 125.136391 63.92032 
L 125.441671 50.940264 
L 126.05223 50.940264 
L 126.357509 53.546654 
L 126.662789 53.546654 
L 126.968068 40.019063 
L 127.273348 37.534833 
L 127.578627 30.093483 
L 127.883907 37.534833 
L 128.189186 50.751258 
L 128.494466 59.021636 
L 128.799745 59.021636 
L 129.105025 25.24816 
L 129.410304 17.083636 
L 129.715584 17.083636 
L 130.020863 55.771272 
L 130.326142 55.771272 
L 130.631422 47.680366 
L 130.936701 43.041215 
L 131.241981 42.522202 
L 131.85254 42.522202 
L 132.157819 53.279331 
L 132.463099 30.055704 
L 132.768378 42.211165 
L 133.073658 30.055704 
L 133.378937 41.2215 
L 133.684217 41.2215 
L 133.989496 65.580448 
L 134.294776 65.580448 
L 134.600055 56.396863 
L 134.905335 38.370082 
L 135.210614 56.396863 
L 135.515894 57.637651 
L 135.821173 63.493629 
L 136.126453 63.493629 
L 136.431732 71.469682 
L 136.737011 55.596137 
L 137.042291 62.810656 
L 137.34757 55.596137 
L 137.65285 62.810656 
L 137.958129 77.43802 
L 138.263409 77.43802 
L 138.568688 61.940804 
L 138.873968 61.940804 
L 139.179247 52.768807 
L 139.789806 71.169015 
L 140.095086 78.578143 
L 140.705645 78.578143 
L 141.010924 77.150664 
L 141.316204 77.150664 
L 141.621483 74.541682 
L 142.537321 116.138135 
L 142.842601 118.309125 
L 143.14788 116.138135 
L 143.45316 106.639501 
L 143.758439 106.639501 
L 144.063719 89.919523 
L 144.674278 133.502502 
L 144.979557 133.502502 
L 145.284837 113.575615 
L 145.590116 113.575615 
L 145.895396 121.283047 
L 146.200675 124.908281 
L 146.505955 124.908281 
L 146.811234 129.917319 
L 147.116514 131.487286 
L 147.727073 159.216459 
L 148.032352 149.63254 
L 148.337632 161.902749 
L 148.642911 149.63254 
L 148.94819 127.758989 
L 149.25347 127.758989 
L 149.558749 129.753927 
L 149.864029 151.340176 
L 150.169308 139.748187 
L 150.474588 151.340176 
L 150.779867 179.294955 
L 151.085147 179.294955 
L 151.390426 179.104178 
L 151.695706 175.802636 
L 152.000985 178.959052 
L 152.306265 175.802636 
L 152.611544 178.959052 
L 152.916824 149.936724 
L 153.222103 180.054737 
L 153.527383 153.026651 
L 153.832662 162.79543 
L 154.443221 162.79543 
L 154.7485 172.880022 
L 155.05378 173.429499 
L 155.664339 183.096394 
L 155.969618 183.096394 
L 156.274898 204.745066 
L 156.580177 191.989497 
L 156.885457 204.745066 
L 157.190736 191.989497 
L 157.496016 186.388672 
L 157.801295 178.403456 
L 158.106575 178.403456 
L 158.411854 175.442872 
L 158.717134 175.442872 
L 159.022413 204.256552 
L 159.327693 204.256552 
L 159.632972 203.068201 
L 159.938252 203.068201 
L 160.243531 205.792092 
L 160.54881 205.792092 
L 160.85409 197.146478 
L 161.159369 183.863341 
L 161.464649 194.667829 
L 161.769928 194.667829 
L 162.075208 211.729052 
L 162.380487 211.729052 
L 162.685767 200.082661 
L 162.991046 200.082661 
L 163.296326 199.124923 
L 163.601605 199.124923 
L 163.906885 197.117883 
L 164.212164 166.436453 
L 164.517444 166.436453 
L 164.822723 208.709206 
L 165.128003 208.709206 
L 165.433282 178.596165 
L 165.738562 178.596165 
L 166.043841 206.427567 
L 166.349121 206.427567 
L 166.959679 171.094247 
L 167.570238 163.634281 
L 167.875518 163.634281 
L 168.180797 186.583122 
L 168.486077 186.583122 
L 169.096636 175.170043 
L 169.707195 175.170043 
L 170.012474 170.749102 
L 170.317754 170.749102 
L 170.623033 159.908856 
L 170.928313 159.908856 
L 171.233592 158.878589 
L 171.538872 158.878589 
L 171.844151 126.012385 
L 172.149431 125.87993 
L 172.45471 125.87993 
L 172.759989 161.581154 
L 173.065269 161.581154 
L 173.370548 119.977242 
L 173.675828 117.032049 
L 173.981107 108.879544 
L 174.286387 108.879544 
L 174.591666 132.598079 
L 175.202225 132.649119 
L 175.812784 130.180856 
L 176.118064 108.575956 
L 176.423343 96.690215 
L 176.728623 101.805055 
L 177.033902 101.805055 
L 177.339182 121.062361 
L 177.644461 121.062361 
L 177.949741 99.590226 
L 178.25502 97.178946 
L 178.5603 97.178946 
L 178.865579 88.207676 
L 179.170858 88.207676 
L 179.476138 87.882402 
L 179.781417 87.882402 
L 180.086697 86.3532 
L 180.391976 101.651209 
L 180.697256 93.255981 
L 181.002535 93.255981 
L 181.307815 77.428915 
L 181.613094 77.428915 
L 181.918374 51.196612 
L 182.223653 52.454677 
L 182.528933 45.295185 
L 183.139492 58.046611 
L 183.444771 62.136233 
L 183.750051 62.136233 
L 184.05533 59.723775 
L 184.665889 59.723775 
L 184.971168 72.418702 
L 185.276448 63.317299 
L 185.581727 72.418702 
L 185.887007 63.317299 
L 186.192286 45.08668 
L 186.497566 45.08668 
L 186.802845 56.944767 
L 187.108125 56.944767 
L 187.413404 39.264234 
L 187.718684 39.264234 
L 188.023963 47.895653 
L 188.634522 47.895653 
L 188.939802 39.256003 
L 189.245081 37.139077 
L 189.550361 37.139077 
L 189.85564 34.436821 
L 190.16092 38.882443 
L 190.466199 31.820782 
L 190.771478 46.859646 
L 191.076758 31.820782 
L 191.382037 46.859646 
L 191.687317 49.524818 
L 191.992596 49.524818 
L 192.297876 45.084861 
L 192.603155 30.049905 
L 192.908435 45.084861 
L 193.213714 48.48043 
L 193.518994 50.237587 
L 194.129553 50.237587 
L 194.434832 63.285747 
L 194.740112 63.285747 
L 195.045391 61.956736 
L 195.350671 56.918293 
L 195.65595 61.956736 
L 195.96123 47.146133 
L 196.571789 47.146133 
L 196.877068 77.665475 
L 197.487627 77.665475 
L 197.792906 82.742152 
L 198.403465 82.742152 
L 198.708745 65.663044 
L 199.014024 65.663044 
L 199.319304 51.231082 
L 199.624583 51.231082 
L 199.929863 64.129787 
L 200.235142 64.129787 
L 200.540422 79.65996 
L 200.845701 80.238926 
L 201.150981 90.266028 
L 201.45626 80.238926 
L 201.76154 103.280713 
L 202.066819 97.618738 
L 202.372099 103.280713 
L 202.677378 97.618738 
L 202.982657 95.084864 
L 203.287937 95.084864 
L 203.593216 89.695787 
L 203.898496 114.995623 
L 204.203775 96.665502 
L 204.509055 127.700849 
L 204.814334 129.098289 
L 205.119614 129.098289 
L 205.424893 105.102488 
L 205.730173 105.102488 
L 206.035452 105.654947 
L 206.340732 118.737409 
L 206.646011 118.737409 
L 206.951291 107.495194 
L 207.25657 107.495194 
L 207.56185 108.939502 
L 207.867129 145.428957 
L 208.172409 148.816827 
L 208.477688 149.570314 
L 208.782968 149.570314 
L 209.088247 146.364706 
L 209.393526 146.364706 
L 209.698806 143.21044 
L 210.004085 134.892979 
L 210.309365 134.892979 
L 210.614644 135.866712 
L 210.919924 145.863312 
L 211.225203 183.489524 
L 211.530483 183.489524 
L 211.835762 184.499429 
L 212.141042 178.101543 
L 212.751601 178.101543 
L 213.05688 192.378275 
L 213.36216 192.378275 
L 213.667439 170.676148 
L 214.277998 170.676148 
L 214.583278 188.14288 
L 214.888557 198.537489 
L 215.499116 198.63544 
L 215.804395 160.74524 
L 216.109675 160.74524 
L 216.414954 184.206971 
L 216.720234 197.487182 
L 217.025513 184.206971 
L 217.330793 205.996513 
L 217.636072 190.510445 
L 217.941352 210.122702 
L 218.246631 199.965773 
L 218.85719 199.965773 
L 219.16247 205.491653 
L 219.467749 205.491653 
L 219.773029 206.900761 
L 220.078308 174.654558 
L 220.383588 198.363112 
L 220.688867 195.830119 
L 221.299426 200.700495 
L 221.604705 205.165001 
L 221.909985 211.910816 
L 222.215264 213.271311 
L 222.825823 213.271311 
L 223.131103 203.087887 
L 223.436382 211.09269 
L 224.046941 211.09269 
L 224.352221 195.277133 
L 224.6575 195.277133 
L 224.96278 204.062178 
L 225.268059 204.062178 
L 225.573339 177.620606 
L 225.878618 169.206668 
L 226.183898 170.837741 
L 226.489177 169.206668 
L 226.794457 170.837741 
L 227.099736 177.911004 
L 227.405015 179.46052 
L 227.710295 177.911004 
L 228.320854 155.417393 
L 228.626133 164.275293 
L 228.931413 184.70181 
L 229.236692 184.70181 
L 229.541972 164.864665 
L 229.847251 164.864665 
L 230.45781 156.78159 
L 230.76309 147.255487 
L 231.068369 156.78159 
L 231.373649 157.956917 
L 231.678928 157.956917 
L 231.984208 157.520794 
L 232.289487 142.309996 
L 232.594767 142.196196 
L 232.900046 126.80903 
L 233.205325 126.80903 
L 233.510605 139.364302 
L 233.815884 139.364302 
L 234.121164 123.004775 
L 234.731723 123.004775 
L 235.342282 125.791795 
L 235.952841 125.791795 
L 236.25812 139.798787 
L 236.5634 139.798787 
L 236.868679 112.545941 
L 237.479238 112.545941 
L 237.784518 116.81559 
L 238.089797 111.24892 
L 238.395077 111.24892 
L 238.700356 94.673428 
L 239.005636 94.673428 
L 239.310915 82.88266 
L 239.616194 78.747577 
L 239.921474 78.747577 
L 240.226753 79.588649 
L 240.837312 98.869053 
L 241.142592 98.869053 
L 241.447871 99.497657 
L 241.753151 86.759722 
L 242.05843 65.359078 
L 242.36371 65.359078 
L 242.668989 65.141468 
L 242.974269 69.265235 
L 243.279548 69.419767 
L 243.584828 71.391402 
L 243.890107 69.419767 
L 244.195387 71.391402 
L 244.500666 44.923153 
L 244.805946 60.80704 
L 245.111225 41.541591 
L 245.416504 43.467739 
L 246.027063 43.467739 
L 246.332343 46.618703 
L 246.942902 46.618703 
L 247.248181 39.417649 
L 247.553461 38.122156 
L 247.85874 36.185614 
L 248.16402 36.185614 
L 248.469299 43.916008 
L 248.774579 47.005171 
L 249.079858 43.916008 
L 249.385138 47.005171 
L 249.690417 53.98661 
L 249.995697 56.070537 
L 250.300976 56.070537 
L 250.606256 47.462689 
L 250.911535 47.462689 
L 251.216815 51.119689 
L 251.522094 51.119689 
L 251.827373 38.706854 
L 252.132653 37.450129 
L 252.437932 32.935545 
L 252.743212 32.935545 
L 253.048491 30.834858 
L 253.65905 30.834858 
L 253.96433 27.184063 
L 254.269609 36.056683 
L 254.880168 40.950639 
L 255.185448 41.135583 
L 255.796007 41.135583 
L 256.101286 45.799052 
L 256.406566 55.067855 
L 256.711845 51.931316 
L 257.017125 55.067855 
L 257.322404 74.309643 
L 257.932963 74.309643 
L 258.238242 67.697976 
L 258.543522 64.58399 
L 258.848801 57.687574 
L 259.154081 64.58399 
L 259.45936 85.304189 
L 259.76464 85.304189 
L 260.069919 79.514089 
L 260.375199 70.039732 
L 260.680478 56.977755 
L 260.985758 62.237927 
L 261.291037 62.237927 
L 261.596317 87.227214 
L 262.206876 87.227214 
L 262.512155 74.190839 
L 262.817435 86.381932 
L 263.427993 86.381932 
L 263.733273 102.353687 
L 264.038552 78.177657 
L 264.343832 88.782626 
L 264.649111 79.688278 
L 265.25967 97.052329 
L 265.56495 99.32228 
L 265.870229 123.950983 
L 266.175509 134.930688 
L 266.480788 123.950983 
L 266.786068 122.851746 
L 267.396627 122.851746 
L 267.701906 135.432369 
L 268.007186 122.843302 
L 268.312465 114.979797 
L 268.617745 114.979797 
L 268.923024 149.17483 
L 269.533583 149.17483 
L 269.838862 127.667569 
L 270.144142 164.384368 
L 270.449421 137.844214 
L 270.754701 156.567869 
L 271.05998 156.567869 
L 271.36526 157.250081 
L 271.670539 157.250081 
L 271.975819 155.404825 
L 272.281098 155.404825 
L 272.586378 183.557098 
L 272.891657 183.557098 
L 273.196937 148.500348 
L 273.502216 148.500348 
L 274.112775 155.695004 
L 274.723334 155.695004 
L 275.028614 159.727727 
L 275.333893 166.634986 
L 275.639172 180.339754 
L 275.944452 180.339754 
L 276.249731 186.058181 
L 276.555011 184.278506 
L 276.86029 186.058181 
L 277.470849 186.150906 
L 277.776129 186.150906 
L 278.386688 192.999286 
L 278.691967 189.669251 
L 278.997247 168.112097 
L 279.302526 168.112097 
L 279.607806 174.937979 
L 280.523644 209.699529 
L 280.828924 212.505932 
L 281.439483 212.505932 
L 281.744762 200.136055 
L 282.355321 200.136055 
L 282.6606 205.367853 
L 282.96588 205.367853 
L 283.881718 214.756364 
L 284.186998 214.756364 
L 284.492277 192.622689 
L 284.797557 187.568416 
L 285.102836 192.622689 
L 285.408116 179.794669 
L 285.713395 206.840971 
L 286.018675 204.288136 
L 286.323954 204.288136 
L 286.629234 166.533436 
L 286.934513 166.533436 
L 287.239793 178.377477 
L 287.545072 178.377477 
L 287.850351 172.686732 
L 288.155631 157.52664 
L 288.46091 153.194648 
L 288.76619 153.194648 
L 289.071469 167.679498 
L 289.376749 167.679498 
L 289.682028 158.969379 
L 289.987308 158.969379 
L 290.292587 185.295449 
L 290.597867 186.063954 
L 290.903146 185.295449 
L 291.208426 162.579312 
L 291.513705 162.579312 
L 291.818985 177.815449 
L 292.124264 177.815449 
L 292.429544 178.211536 
L 292.734823 168.145882 
L 293.040103 163.610297 
L 293.650662 150.053045 
L 294.26122 150.053045 
L 294.5665 147.712615 
L 294.871779 147.712615 
L 295.177059 142.64368 
L 295.787618 142.64368 
L 296.092897 117.032274 
L 296.398177 117.032274 
L 296.703456 115.189033 
L 297.008736 141.414853 
L 297.314015 95.678243 
L 297.619295 98.738806 
L 297.924574 98.738806 
L 298.229854 122.069579 
L 298.535133 122.069579 
L 298.840413 127.9756 
L 299.145692 125.241215 
L 299.450972 125.241215 
L 299.756251 109.430745 
L 300.36681 109.430745 
L 300.672089 74.561353 
L 300.977369 72.922796 
L 301.282648 72.922796 
L 301.587928 99.451524 
L 301.893207 101.035715 
L 302.198487 101.035715 
L 302.503766 96.931278 
L 302.809046 83.00216 
L 303.419605 75.594101 
L 303.724884 49.891899 
L 304.030164 75.594101 
L 304.335443 46.536674 
L 304.640723 78.56896 
L 304.946002 46.366444 
L 305.86184 46.322633 
L 306.16712 49.95229 
L 306.472399 68.984735 
L 306.777679 76.638348 
L 307.082958 76.638348 
L 307.693517 36.817032 
L 307.998797 36.817032 
L 308.304076 37.893899 
L 308.914635 37.893899 
L 309.219915 59.043425 
L 309.525194 59.043425 
L 309.830474 48.859667 
L 310.135753 46.500121 
L 310.441033 45.587732 
L 310.746312 45.587732 
L 311.051592 33.916406 
L 311.356871 53.417975 
L 311.662151 46.291052 
L 312.272709 46.291052 
L 312.577989 26.515114 
L 312.883268 52.062324 
L 313.188548 26.515114 
L 313.493827 43.157791 
L 314.104386 43.157791 
L 314.409666 41.393865 
L 314.714945 34.539771 
L 315.020225 40.166269 
L 315.325504 37.903062 
L 315.936063 37.903062 
L 316.241343 45.968399 
L 316.546622 45.968399 
L 316.851902 72.392344 
L 317.157181 75.044514 
L 317.462461 75.601946 
L 317.76774 75.601946 
L 318.073019 36.488945 
L 318.378299 36.488945 
L 318.683578 60.224471 
L 318.988858 67.70798 
L 319.294137 79.894015 
L 319.599417 79.894015 
L 319.904696 66.8192 
L 320.209976 40.050027 
L 320.515255 40.050027 
L 320.820535 85.076434 
L 321.125814 85.076434 
L 321.431094 69.269862 
L 321.736373 67.911737 
L 322.041653 64.187592 
L 322.346932 64.187592 
L 322.652212 74.321095 
L 322.957491 100.573627 
L 323.262771 82.164865 
L 323.56805 100.573627 
L 323.87333 103.548765 
L 324.178609 103.548765 
L 324.483888 89.998788 
L 324.789168 89.499138 
L 325.094447 89.499138 
L 325.399727 97.231064 
L 325.705006 97.231064 
L 326.010286 119.353416 
L 326.315565 109.800813 
L 326.620845 127.754864 
L 326.926124 109.800813 
L 327.231404 109.219707 
L 327.841963 109.219707 
L 328.147242 129.152114 
L 328.452522 108.167407 
L 328.757801 126.225948 
L 329.063081 110.456182 
L 329.67364 140.938808 
L 330.284198 150.091333 
L 330.894757 150.091333 
L 331.200037 154.378964 
L 331.505316 152.220822 
L 331.810596 155.504576 
L 332.115875 152.220822 
L 332.421155 151.481577 
L 332.726434 151.481577 
L 333.336993 166.878927 
L 333.642273 169.062076 
L 333.947552 174.651445 
L 334.252832 169.062076 
L 334.558111 179.421262 
L 334.863391 161.607134 
L 335.16867 187.636374 
L 335.47395 161.607134 
L 335.779229 165.57192 
L 336.389788 165.610027 
L 336.695067 192.53692 
L 337.000347 196.116384 
L 337.610906 196.116384 
L 337.916185 202.436935 
L 338.221465 202.436935 
L 338.526744 173.38273 
L 338.832024 173.38273 
L 339.137303 183.730673 
L 339.442583 183.730673 
L 339.747862 181.930217 
L 340.053142 181.930217 
L 340.358421 184.397809 
L 340.663701 203.569441 
L 340.96898 203.779357 
L 341.27426 203.779357 
L 341.579539 209.035376 
L 342.190098 209.035376 
L 342.800657 180.893577 
L 343.105936 180.893577 
L 343.411216 184.588478 
L 343.716495 184.588478 
L 344.021775 198.894138 
L 344.327054 170.92315 
L 344.632334 198.894138 
L 344.937613 183.146298 
L 345.242893 185.83639 
L 345.548172 185.83639 
L 345.853452 194.766963 
L 346.158731 194.766963 
L 346.464011 201.649343 
L 346.76929 192.579324 
L 347.07457 192.579324 
L 347.379849 190.541481 
L 347.685129 187.265764 
L 347.990408 172.80221 
L 348.295687 172.80221 
L 348.600967 182.974318 
L 348.906246 182.974318 
L 349.211526 162.809513 
L 349.516805 162.809513 
L 349.822085 189.065055 
L 350.127364 190.871035 
L 350.432644 190.871035 
L 350.737923 159.929896 
L 351.043203 159.929896 
L 351.348482 164.944481 
L 351.653762 173.565638 
L 351.959041 173.565638 
L 352.264321 168.98719 
L 352.87488 168.98719 
L 353.180159 161.264266 
L 353.790718 161.264266 
L 354.095998 150.822893 
L 354.401277 146.99648 
L 355.011836 146.99648 
L 355.317115 142.514581 
L 355.622395 142.514581 
L 355.927674 146.395297 
L 356.232954 146.395297 
L 356.538233 120.876088 
L 356.843513 120.876088 
L 357.148792 129.79009 
L 357.454072 129.79009 
L 358.064631 110.929873 
L 358.064631 110.929873 
" clip-path="url(#pf48d6c4086)" style="fill: none; stroke: #1f77b4; stroke-width: 1.5; stroke-linecap: square"/>
   </g>
   <g id="patch_3">
    <path d="M 38.482813 224.64 
L 38.482813 7.2 
" style="fill: none; stroke: #000000; stroke-width: 0.8; stroke-linejoin: miter; stroke-linecap: square"/>
   </g>
   <g id="patch_4">
    <path d="M 373.282813 224.64 
L 373.282813 7.2 
" style="fill: none; stroke: #000000; stroke-width: 0.8; stroke-linejoin: miter; stroke-linecap: square"/>
   </g>
   <g id="patch_5">
    <path d="M 38.482813 224.64 
L 373.282813 224.64 
" style="fill: none; stroke: #000000; stroke-width: 0.8; stroke-linejoin: miter; stroke-linecap: square"/>
   </g>
   <g id="patch_6">
    <path d="M 38.482813 7.2 
L 373.282813 7.2 
" style="fill: none; stroke: #000000; stroke-width: 0.8; stroke-linejoin: miter; stroke-linecap: square"/>
   </g>
  </g>
 </g>
 <defs>
  <clipPath id="pf48d6c4086">
   <rect x="38.482813" y="7.2" width="334.8" height="217.44"/>
  </clipPath>
 </defs>
</svg>
