<?xml version="1.0" encoding="utf-8" standalone="no"?>
<!DOCTYPE svg PUBLIC "-//W3C//DTD SVG 1.1//EN"
  "http://www.w3.org/Graphics/SVG/1.1/DTD/svg11.dtd">
<svg xmlns:xlink="http://www.w3.org/1999/xlink" width="380.482813pt" height="248.518125pt" viewBox="0 0 380.482813 248.518125" xmlns="http://www.w3.org/2000/svg" version="1.1">
 <metadata>
  <rdf:RDF xmlns:dc="http://purl.org/dc/elements/1.1/" xmlns:cc="http://creativecommons.org/ns#" xmlns:rdf="http://www.w3.org/1999/02/22-rdf-syntax-ns#">
   <cc:Work>
    <dc:type rdf:resource="http://purl.org/dc/dcmitype/StillImage"/>
    <dc:date>2022-07-29T15:05:04.721163</dc:date>
    <dc:format>image/svg+xml</dc:format>
    <dc:creator>
     <cc:Agent>
      <dc:title>Matplotlib v3.5.2, https://matplotlib.org/</dc:title>
     </cc:Agent>
    </dc:creator>
   </cc:Work>
  </rdf:RDF>
 </metadata>
 <defs>
  <style type="text/css">*{stroke-linejoin: round; stroke-linecap: butt}</style>
 </defs>
 <g id="figure_1">
  <g id="patch_1">
   <path d="M -0 248.518125 
L 380.482813 248.518125 
L 380.482813 0 
L -0 0 
L -0 248.518125 
z
" style="fill: none"/>
  </g>
  <g id="axes_1">
   <g id="patch_2">
    <path d="M 38.482813 224.64 
L 373.282813 224.64 
L 373.282813 7.2 
L 38.482813 7.2 
z
" style="fill: #ffffff"/>
   </g>
   <g id="matplotlib.axis_1">
    <g id="xtick_1">
     <g id="line2d_1">
      <defs>
       <path id="mf05cad8048" d="M 0 0 
L 0 3.5 
" style="stroke: #000000; stroke-width: 0.8"/>
      </defs>
      <g>
       <use xlink:href="#mf05cad8048" x="53.700994" y="224.64" style="stroke: #000000; stroke-width: 0.8"/>
      </g>
     </g>
     <g id="text_1">
      <!-- 0 -->
      <g transform="translate(50.519744 239.238437)scale(0.1 -0.1)">
       <defs>
        <path id="DejaVuSans-30" d="M 2034 4250 
Q 1547 4250 1301 3770 
Q 1056 3291 1056 2328 
Q 1056 1369 1301 889 
Q 1547 409 2034 409 
Q 2525 409 2770 889 
Q 3016 1369 3016 2328 
Q 3016 3291 2770 3770 
Q 2525 4250 2034 4250 
z
M 2034 4750 
Q 2819 4750 3233 4129 
Q 3647 3509 3647 2328 
Q 3647 1150 3233 529 
Q 2819 -91 2034 -91 
Q 1250 -91 836 529 
Q 422 1150 422 2328 
Q 422 3509 836 4129 
Q 1250 4750 2034 4750 
z
" transform="scale(0.015625)"/>
       </defs>
       <use xlink:href="#DejaVuSans-30"/>
      </g>
     </g>
    </g>
    <g id="xtick_2">
     <g id="line2d_2">
      <g>
       <use xlink:href="#mf05cad8048" x="102.141972" y="224.64" style="stroke: #000000; stroke-width: 0.8"/>
      </g>
     </g>
     <g id="text_2">
      <!-- 5 -->
      <g transform="translate(98.960722 239.238437)scale(0.1 -0.1)">
       <defs>
        <path id="DejaVuSans-35" d="M 691 4666 
L 3169 4666 
L 3169 4134 
L 1269 4134 
L 1269 2991 
Q 1406 3038 1543 3061 
Q 1681 3084 1819 3084 
Q 2600 3084 3056 2656 
Q 3513 2228 3513 1497 
Q 3513 744 3044 326 
Q 2575 -91 1722 -91 
Q 1428 -91 1123 -41 
Q 819 9 494 109 
L 494 744 
Q 775 591 1075 516 
Q 1375 441 1709 441 
Q 2250 441 2565 725 
Q 2881 1009 2881 1497 
Q 2881 1984 2565 2268 
Q 2250 2553 1709 2553 
Q 1456 2553 1204 2497 
Q 953 2441 691 2322 
L 691 4666 
z
" transform="scale(0.015625)"/>
       </defs>
       <use xlink:href="#DejaVuSans-35"/>
      </g>
     </g>
    </g>
    <g id="xtick_3">
     <g id="line2d_3">
      <g>
       <use xlink:href="#mf05cad8048" x="150.582949" y="224.64" style="stroke: #000000; stroke-width: 0.8"/>
      </g>
     </g>
     <g id="text_3">
      <!-- 10 -->
      <g transform="translate(144.220449 239.238437)scale(0.1 -0.1)">
       <defs>
        <path id="DejaVuSans-31" d="M 794 531 
L 1825 531 
L 1825 4091 
L 703 3866 
L 703 4441 
L 1819 4666 
L 2450 4666 
L 2450 531 
L 3481 531 
L 3481 0 
L 794 0 
L 794 531 
z
" transform="scale(0.015625)"/>
       </defs>
       <use xlink:href="#DejaVuSans-31"/>
       <use xlink:href="#DejaVuSans-30" x="63.623047"/>
      </g>
     </g>
    </g>
    <g id="xtick_4">
     <g id="line2d_4">
      <g>
       <use xlink:href="#mf05cad8048" x="199.023926" y="224.64" style="stroke: #000000; stroke-width: 0.8"/>
      </g>
     </g>
     <g id="text_4">
      <!-- 15 -->
      <g transform="translate(192.661426 239.238437)scale(0.1 -0.1)">
       <use xlink:href="#DejaVuSans-31"/>
       <use xlink:href="#DejaVuSans-35" x="63.623047"/>
      </g>
     </g>
    </g>
    <g id="xtick_5">
     <g id="line2d_5">
      <g>
       <use xlink:href="#mf05cad8048" x="247.464903" y="224.64" style="stroke: #000000; stroke-width: 0.8"/>
      </g>
     </g>
     <g id="text_5">
      <!-- 20 -->
      <g transform="translate(241.102403 239.238437)scale(0.1 -0.1)">
       <defs>
        <path id="DejaVuSans-32" d="M 1228 531 
L 3431 531 
L 3431 0 
L 469 0 
L 469 531 
Q 828 903 1448 1529 
Q 2069 2156 2228 2338 
Q 2531 2678 2651 2914 
Q 2772 3150 2772 3378 
Q 2772 3750 2511 3984 
Q 2250 4219 1831 4219 
Q 1534 4219 1204 4116 
Q 875 4013 500 3803 
L 500 4441 
Q 881 4594 1212 4672 
Q 1544 4750 1819 4750 
Q 2544 4750 2975 4387 
Q 3406 4025 3406 3419 
Q 3406 3131 3298 2873 
Q 3191 2616 2906 2266 
Q 2828 2175 2409 1742 
Q 1991 1309 1228 531 
z
" transform="scale(0.015625)"/>
       </defs>
       <use xlink:href="#DejaVuSans-32"/>
       <use xlink:href="#DejaVuSans-30" x="63.623047"/>
      </g>
     </g>
    </g>
    <g id="xtick_6">
     <g id="line2d_6">
      <g>
       <use xlink:href="#mf05cad8048" x="295.90588" y="224.64" style="stroke: #000000; stroke-width: 0.8"/>
      </g>
     </g>
     <g id="text_6">
      <!-- 25 -->
      <g transform="translate(289.54338 239.238437)scale(0.1 -0.1)">
       <use xlink:href="#DejaVuSans-32"/>
       <use xlink:href="#DejaVuSans-35" x="63.623047"/>
      </g>
     </g>
    </g>
    <g id="xtick_7">
     <g id="line2d_7">
      <g>
       <use xlink:href="#mf05cad8048" x="344.346858" y="224.64" style="stroke: #000000; stroke-width: 0.8"/>
      </g>
     </g>
     <g id="text_7">
      <!-- 30 -->
      <g transform="translate(337.984358 239.238437)scale(0.1 -0.1)">
       <defs>
        <path id="DejaVuSans-33" d="M 2597 2516 
Q 3050 2419 3304 2112 
Q 3559 1806 3559 1356 
Q 3559 666 3084 287 
Q 2609 -91 1734 -91 
Q 1441 -91 1130 -33 
Q 819 25 488 141 
L 488 750 
Q 750 597 1062 519 
Q 1375 441 1716 441 
Q 2309 441 2620 675 
Q 2931 909 2931 1356 
Q 2931 1769 2642 2001 
Q 2353 2234 1838 2234 
L 1294 2234 
L 1294 2753 
L 1863 2753 
Q 2328 2753 2575 2939 
Q 2822 3125 2822 3475 
Q 2822 3834 2567 4026 
Q 2313 4219 1838 4219 
Q 1578 4219 1281 4162 
Q 984 4106 628 3988 
L 628 4550 
Q 988 4650 1302 4700 
Q 1616 4750 1894 4750 
Q 2613 4750 3031 4423 
Q 3450 4097 3450 3541 
Q 3450 3153 3228 2886 
Q 3006 2619 2597 2516 
z
" transform="scale(0.015625)"/>
       </defs>
       <use xlink:href="#DejaVuSans-33"/>
       <use xlink:href="#DejaVuSans-30" x="63.623047"/>
      </g>
     </g>
    </g>
   </g>
   <g id="matplotlib.axis_2">
    <g id="ytick_1">
     <g id="line2d_8">
      <defs>
       <path id="m48d0585e02" d="M 0 0 
L -3.5 0 
" style="stroke: #000000; stroke-width: 0.8"/>
      </defs>
      <g>
       <use xlink:href="#m48d0585e02" x="38.482813" y="189.670011" style="stroke: #000000; stroke-width: 0.8"/>
      </g>
     </g>
     <g id="text_8">
      <!-- −1.0 -->
      <g transform="translate(7.2 193.46923)scale(0.1 -0.1)">
       <defs>
        <path id="DejaVuSans-2212" d="M 678 2272 
L 4684 2272 
L 4684 1741 
L 678 1741 
L 678 2272 
z
" transform="scale(0.015625)"/>
        <path id="DejaVuSans-2e" d="M 684 794 
L 1344 794 
L 1344 0 
L 684 0 
L 684 794 
z
" transform="scale(0.015625)"/>
       </defs>
       <use xlink:href="#DejaVuSans-2212"/>
       <use xlink:href="#DejaVuSans-31" x="83.789062"/>
       <use xlink:href="#DejaVuSans-2e" x="147.412109"/>
       <use xlink:href="#DejaVuSans-30" x="179.199219"/>
      </g>
     </g>
    </g>
    <g id="ytick_2">
     <g id="line2d_9">
      <g>
       <use xlink:href="#m48d0585e02" x="38.482813" y="152.890683" style="stroke: #000000; stroke-width: 0.8"/>
      </g>
     </g>
     <g id="text_9">
      <!-- −0.5 -->
      <g transform="translate(7.2 156.689902)scale(0.1 -0.1)">
       <use xlink:href="#DejaVuSans-2212"/>
       <use xlink:href="#DejaVuSans-30" x="83.789062"/>
       <use xlink:href="#DejaVuSans-2e" x="147.412109"/>
       <use xlink:href="#DejaVuSans-35" x="179.199219"/>
      </g>
     </g>
    </g>
    <g id="ytick_3">
     <g id="line2d_10">
      <g>
       <use xlink:href="#m48d0585e02" x="38.482813" y="116.111356" style="stroke: #000000; stroke-width: 0.8"/>
      </g>
     </g>
     <g id="text_10">
      <!-- 0.0 -->
      <g transform="translate(15.579688 119.910575)scale(0.1 -0.1)">
       <use xlink:href="#DejaVuSans-30"/>
       <use xlink:href="#DejaVuSans-2e" x="63.623047"/>
       <use xlink:href="#DejaVuSans-30" x="95.410156"/>
      </g>
     </g>
    </g>
    <g id="ytick_4">
     <g id="line2d_11">
      <g>
       <use xlink:href="#m48d0585e02" x="38.482813" y="79.332028" style="stroke: #000000; stroke-width: 0.8"/>
      </g>
     </g>
     <g id="text_11">
      <!-- 0.5 -->
      <g transform="translate(15.579688 83.131247)scale(0.1 -0.1)">
       <use xlink:href="#DejaVuSans-30"/>
       <use xlink:href="#DejaVuSans-2e" x="63.623047"/>
       <use xlink:href="#DejaVuSans-35" x="95.410156"/>
      </g>
     </g>
    </g>
    <g id="ytick_5">
     <g id="line2d_12">
      <g>
       <use xlink:href="#m48d0585e02" x="38.482813" y="42.552701" style="stroke: #000000; stroke-width: 0.8"/>
      </g>
     </g>
     <g id="text_12">
      <!-- 1.0 -->
      <g transform="translate(15.579688 46.35192)scale(0.1 -0.1)">
       <use xlink:href="#DejaVuSans-31"/>
       <use xlink:href="#DejaVuSans-2e" x="63.623047"/>
       <use xlink:href="#DejaVuSans-30" x="95.410156"/>
      </g>
     </g>
    </g>
   </g>
   <g id="line2d_13">
    <path d="M 53.700994 125.141277 
L 54.005663 119.524692 
L 54.310331 120.326125 
L 54.614999 129.931403 
L 54.919668 129.185191 
L 55.224336 126.351059 
L 55.529004 80.405285 
L 55.833672 114.24866 
L 56.138341 103.337621 
L 56.443009 73.664664 
L 56.747677 75.113092 
L 57.052346 71.441293 
L 57.357014 102.517744 
L 57.661682 99.325114 
L 57.966351 77.875861 
L 58.271019 86.711693 
L 58.575687 101.301181 
L 58.880355 84.39233 
L 59.185024 86.756578 
L 59.489692 74.367172 
L 59.79436 98.185112 
L 60.099029 83.937058 
L 60.403697 49.906267 
L 60.708365 52.209551 
L 61.013034 79.445824 
L 61.927039 41.021373 
L 62.231707 35.042273 
L 62.841043 59.276485 
L 63.145712 58.686945 
L 63.45038 44.608371 
L 63.755048 61.905692 
L 64.059717 65.089237 
L 64.364385 36.870683 
L 64.669053 53.059909 
L 64.973722 28.688194 
L 65.27839 28.412078 
L 65.583058 27.002334 
L 65.887727 56.870934 
L 66.192395 67.461093 
L 66.497063 33.970594 
L 67.1064 47.856144 
L 67.411068 33.107673 
L 67.715736 48.215296 
L 68.020405 43.250396 
L 68.325073 55.985743 
L 68.629741 48.483394 
L 68.93441 58.116408 
L 69.239078 33.89995 
L 69.543746 56.087023 
L 69.848414 62.845861 
L 70.153083 48.756463 
L 70.457751 19.439926 
L 70.762419 61.420196 
L 71.067088 25.986242 
L 71.676424 69.827673 
L 72.285761 26.75325 
L 72.590429 31.136516 
L 72.895098 50.182519 
L 73.199766 27.043035 
L 73.504434 25.026395 
L 74.113771 70.561109 
L 74.418439 48.724214 
L 74.723107 63.152653 
L 75.027776 38.338257 
L 75.332444 54.116517 
L 75.637112 56.315531 
L 75.941781 83.836125 
L 76.246449 57.681881 
L 76.551117 82.374161 
L 76.855785 78.059138 
L 77.160454 42.693559 
L 77.465122 94.489664 
L 77.76979 55.865096 
L 78.074459 69.750841 
L 78.379127 78.203782 
L 78.683795 52.429682 
L 78.988464 59.948185 
L 79.293132 63.454528 
L 79.5978 72.837575 
L 79.902469 65.597625 
L 80.207137 100.722622 
L 80.511805 112.411694 
L 80.816473 111.50563 
L 81.121142 105.989906 
L 81.42581 79.540361 
L 81.730478 86.213263 
L 82.035147 107.128969 
L 82.339815 105.409597 
L 82.644483 100.292479 
L 82.949152 108.425924 
L 83.25382 112.544461 
L 83.558488 108.387414 
L 83.863156 127.281062 
L 84.167825 102.126238 
L 84.472493 99.739853 
L 84.777161 124.967175 
L 85.386498 144.025308 
L 85.691166 146.370295 
L 85.995835 107.046804 
L 86.300503 124.55126 
L 86.605171 110.141494 
L 86.90984 145.181412 
L 87.214508 140.537044 
L 87.519176 121.239701 
L 87.823844 134.945689 
L 88.128513 139.466481 
L 88.433181 160.482812 
L 88.737849 168.236788 
L 89.042518 167.22048 
L 89.347186 164.678129 
L 89.651854 172.473805 
L 89.956523 156.454813 
L 90.565859 181.809981 
L 90.870527 154.117116 
L 91.175196 170.013573 
L 91.479864 170.443783 
L 91.784532 187.515554 
L 92.089201 167.785258 
L 92.393869 158.013126 
L 92.698537 191.560092 
L 93.003206 191.672717 
L 93.307874 186.363293 
L 93.612542 169.182451 
L 94.221879 201.736579 
L 94.526547 174.63142 
L 94.831215 166.665808 
L 95.135884 182.224187 
L 95.440552 169.899483 
L 96.049889 206.276899 
L 96.354557 193.283966 
L 96.659225 195.530716 
L 96.963894 162.656782 
L 97.268562 165.106411 
L 97.57323 171.565586 
L 97.877898 207.164415 
L 98.182567 203.685631 
L 98.487235 188.755776 
L 98.791903 214.74735 
L 99.096572 214.34845 
L 99.40124 206.525715 
L 100.010577 178.91503 
L 100.315245 191.346667 
L 100.924582 173.621698 
L 101.22925 212.888255 
L 101.533918 182.366075 
L 101.838586 199.074884 
L 102.143255 193.477634 
L 102.447923 184.82797 
L 102.752591 180.742037 
L 103.05726 174.28662 
L 103.361928 203.553225 
L 103.666596 194.757128 
L 103.971265 164.455684 
L 104.275933 186.144027 
L 104.580601 166.690202 
L 104.88527 162.323355 
L 105.189938 170.13205 
L 105.494606 180.965831 
L 105.799274 152.952859 
L 106.103943 161.304022 
L 106.408611 178.863785 
L 106.713279 188.824287 
L 107.017948 188.127796 
L 107.322616 148.913394 
L 107.627284 185.464639 
L 107.931953 159.067039 
L 108.236621 167.778176 
L 108.541289 136.927817 
L 108.845957 143.050173 
L 109.150626 170.177108 
L 109.455294 167.386806 
L 109.759962 137.650908 
L 110.064631 174.488714 
L 110.369299 135.396704 
L 110.673967 128.192782 
L 110.978636 130.688539 
L 111.283304 147.585663 
L 111.587972 134.093826 
L 111.892641 139.832085 
L 112.197309 124.029446 
L 112.501977 156.833411 
L 112.806645 148.576165 
L 113.111314 117.322396 
L 113.415982 147.400536 
L 113.72065 143.432783 
L 114.025319 130.445999 
L 114.329987 95.274556 
L 114.634655 140.627472 
L 114.939324 137.814963 
L 115.54866 117.950626 
L 115.853328 94.366591 
L 116.157997 114.189814 
L 116.462665 77.479969 
L 116.767333 79.327914 
L 117.072002 72.28663 
L 117.37667 71.413036 
L 117.681338 113.957928 
L 117.986007 96.940715 
L 118.290675 65.33022 
L 118.900012 87.993309 
L 119.20468 71.082912 
L 119.509348 85.392609 
L 119.814016 88.53437 
L 120.118685 67.130096 
L 120.423353 56.052088 
L 120.728021 61.15184 
L 121.03269 51.356684 
L 121.337358 76.547746 
L 121.642026 80.197929 
L 121.946695 66.554469 
L 122.251363 45.328476 
L 122.556031 61.26895 
L 122.860699 47.722137 
L 123.165368 65.809324 
L 123.470036 45.12107 
L 123.774704 40.34222 
L 124.079373 50.385002 
L 124.384041 38.389374 
L 124.688709 64.864958 
L 124.993378 75.053437 
L 125.298046 48.756913 
L 125.602714 73.227926 
L 125.907383 42.833509 
L 126.212051 53.309868 
L 126.516719 51.16655 
L 126.821387 53.877912 
L 127.126056 53.984222 
L 127.430724 42.691096 
L 127.735392 39.489633 
L 128.040061 32.077366 
L 128.649397 64.537228 
L 128.954066 17.592354 
L 129.258734 59.445056 
L 129.86807 20.961181 
L 130.172739 44.080419 
L 130.477407 24.791881 
L 130.782075 37.028265 
L 131.086744 60.911288 
L 131.391412 30.787132 
L 131.69608 56.566786 
L 132.000749 31.258475 
L 132.305417 24.430168 
L 132.610085 31.130842 
L 132.914754 32.052804 
L 133.219422 59.965108 
L 133.52409 65.145595 
L 133.828758 64.18969 
L 134.133427 49.230729 
L 134.438095 71.447662 
L 134.742763 28.633962 
L 135.047432 59.788968 
L 135.3521 31.866376 
L 135.656768 45.515039 
L 135.961437 68.197857 
L 136.570773 40.218039 
L 136.875441 55.25437 
L 137.18011 48.532444 
L 137.484778 55.886087 
L 137.789446 59.421373 
L 138.094115 55.778721 
L 138.703451 92.049218 
L 139.00812 55.453865 
L 139.312788 68.702414 
L 139.617456 90.687283 
L 139.922125 85.858541 
L 140.226793 67.17473 
L 140.531461 93.652541 
L 140.836129 86.272779 
L 141.140798 90.156866 
L 141.445466 106.294015 
L 141.750134 83.331769 
L 142.054803 98.981401 
L 142.359471 73.108102 
L 142.664139 84.885856 
L 142.968808 76.115821 
L 143.273476 84.532689 
L 143.578144 130.388286 
L 143.882812 92.039075 
L 144.187481 93.829946 
L 144.492149 90.558511 
L 144.796817 133.072558 
L 145.101486 135.973688 
L 145.710822 101.830562 
L 146.015491 148.518634 
L 146.320159 115.79992 
L 146.624827 135.612597 
L 147.234164 110.574358 
L 147.538832 118.522859 
L 148.148169 157.389764 
L 148.452837 139.551629 
L 148.757505 139.318754 
L 149.062174 163.718197 
L 149.366842 153.995884 
L 149.67151 161.896772 
L 149.976179 161.312915 
L 150.280847 176.882949 
L 150.585515 142.220056 
L 150.890184 151.564337 
L 151.194852 179.685707 
L 151.49952 186.54603 
L 151.804188 142.727917 
L 152.413525 168.270486 
L 152.718193 154.998076 
L 153.022862 166.790733 
L 153.32753 187.877999 
L 153.632198 165.401632 
L 153.936867 182.280483 
L 154.241535 166.077213 
L 154.546203 199.795307 
L 154.850871 167.427572 
L 155.15554 197.57122 
L 155.460208 159.219798 
L 155.764876 197.260276 
L 156.374213 175.40607 
L 156.678881 204.582394 
L 156.98355 204.704242 
L 157.288218 177.117389 
L 157.592886 184.284697 
L 157.897555 201.569045 
L 158.202223 184.34924 
L 158.506891 207.048194 
L 159.116228 164.949837 
L 159.420896 198.211489 
L 159.725564 188.075591 
L 160.334901 193.628031 
L 160.639569 165.740663 
L 160.944238 208.124185 
L 161.553574 186.862205 
L 161.858242 171.643927 
L 162.162911 168.121209 
L 162.467579 169.830369 
L 162.772247 204.569054 
L 163.076916 166.568872 
L 163.381584 196.05103 
L 163.686252 169.101725 
L 163.990921 207.567595 
L 164.295589 189.262823 
L 164.600257 186.105521 
L 164.904926 198.3237 
L 165.209594 163.997981 
L 165.514262 184.662319 
L 165.81893 162.417574 
L 166.123599 160.461711 
L 166.428267 196.662173 
L 166.732935 154.481652 
L 167.037604 190.804451 
L 167.342272 186.545964 
L 167.64694 186.929789 
L 167.951609 144.784771 
L 168.256277 171.936075 
L 168.560945 140.694132 
L 168.865613 184.053977 
L 169.170282 141.449982 
L 169.47495 180.056144 
L 169.779618 177.057256 
L 170.388955 151.118309 
L 170.693623 164.989066 
L 170.998292 139.010426 
L 171.30296 163.206573 
L 171.607628 148.142221 
L 171.912297 159.133632 
L 172.216965 124.418183 
L 172.521633 140.025627 
L 172.826301 112.70266 
L 173.13097 143.486228 
L 173.435638 152.105169 
L 173.740306 115.096543 
L 174.044975 136.445726 
L 174.349643 103.434962 
L 174.654311 102.560894 
L 174.95898 134.456873 
L 175.872984 113.51469 
L 176.177653 118.688729 
L 176.482321 87.56224 
L 176.786989 122.352347 
L 177.091658 81.244361 
L 177.396326 80.364844 
L 177.700994 87.825968 
L 178.005663 102.270311 
L 178.310331 94.655139 
L 178.614999 116.609105 
L 179.224336 78.599278 
L 179.529004 88.136564 
L 179.833672 61.527514 
L 180.443009 69.845379 
L 180.747677 69.670988 
L 181.357014 48.963036 
L 181.661682 66.826689 
L 181.966351 68.734655 
L 182.271019 69.05279 
L 182.575687 85.465982 
L 182.880355 84.918779 
L 183.185024 79.859525 
L 183.489692 49.029854 
L 183.79436 81.686858 
L 184.099029 45.433936 
L 184.403697 45.409493 
L 184.708365 72.701368 
L 185.013034 45.107244 
L 185.317702 54.167827 
L 185.927039 63.616397 
L 186.231707 24.641211 
L 186.536375 51.869019 
L 186.841043 40.632465 
L 187.145712 35.796116 
L 187.45038 25.101207 
L 187.755048 64.153837 
L 188.059717 56.463782 
L 188.364385 29.381052 
L 188.973722 66.562934 
L 189.27839 23.122721 
L 189.583058 45.019127 
L 189.887727 25.102535 
L 190.192395 49.206785 
L 190.497063 37.136321 
L 190.801731 46.404497 
L 191.1064 35.725734 
L 191.715736 64.559738 
L 192.020405 59.75008 
L 192.325073 48.03061 
L 192.629741 53.463923 
L 192.93441 40.230156 
L 193.239078 47.310204 
L 193.543746 20.826088 
L 193.848414 52.859814 
L 194.153083 52.71444 
L 194.457751 69.970325 
L 194.762419 71.148788 
L 195.067088 62.631061 
L 195.371756 38.995189 
L 195.676424 69.589554 
L 195.981093 52.995297 
L 196.285761 65.075001 
L 196.590429 56.430504 
L 196.895098 69.553698 
L 197.199766 48.099272 
L 197.504434 40.855799 
L 197.809102 58.202983 
L 198.113771 61.772258 
L 198.418439 40.187388 
L 199.027776 80.867217 
L 199.332444 65.584189 
L 199.637112 59.251677 
L 199.941781 97.210984 
L 200.246449 70.395807 
L 200.551117 98.747956 
L 200.855785 72.280362 
L 201.160454 63.893538 
L 201.465122 65.126338 
L 201.76979 92.100382 
L 202.074459 107.761191 
L 202.379127 91.896453 
L 202.683795 84.283595 
L 202.988464 79.913227 
L 203.293132 117.345192 
L 203.5978 92.217878 
L 203.902469 114.82123 
L 204.207137 124.913528 
L 204.511805 109.15552 
L 204.816473 125.718949 
L 205.121142 98.563518 
L 205.42581 138.308075 
L 205.730478 135.535731 
L 206.035147 96.447751 
L 206.339815 139.050988 
L 206.644483 108.15571 
L 206.949152 146.957444 
L 207.25382 105.934275 
L 207.558488 151.029454 
L 207.863156 105.872314 
L 208.167825 111.709844 
L 208.472493 148.732793 
L 208.777161 115.976014 
L 209.08183 132.534412 
L 209.386498 141.919016 
L 209.691166 147.649824 
L 209.995835 130.811887 
L 210.300503 135.526976 
L 210.605171 164.687562 
L 210.90984 145.976863 
L 211.214508 160.756251 
L 211.519176 158.727157 
L 211.823844 152.086354 
L 212.128513 161.580714 
L 212.433181 178.561969 
L 212.737849 152.793393 
L 213.042518 146.938531 
L 213.347186 184.317006 
L 213.651854 193.526123 
L 214.261191 159.114394 
L 214.565859 192.446164 
L 214.870527 156.152603 
L 215.175196 180.740258 
L 215.479864 160.617602 
L 215.784532 170.333187 
L 216.089201 161.544946 
L 216.393869 182.412057 
L 216.698537 159.899554 
L 217.307874 171.528044 
L 217.612542 191.694566 
L 217.917211 181.624823 
L 218.221879 208.918172 
L 218.526547 208.403651 
L 218.831215 200.773806 
L 219.135884 175.987387 
L 219.440552 204.700681 
L 219.74522 171.699596 
L 220.049889 203.907769 
L 220.354557 199.465552 
L 220.659225 210.852479 
L 220.963894 180.072301 
L 221.268562 175.530625 
L 221.57323 182.327036 
L 221.877898 181.232076 
L 222.182567 167.815584 
L 222.487235 213.530693 
L 223.096572 198.57256 
L 223.40124 208.758642 
L 223.705908 168.086944 
L 224.010577 186.478195 
L 224.315245 162.65647 
L 224.619913 186.821825 
L 224.924582 191.846002 
L 225.22925 189.488702 
L 225.533918 165.543078 
L 225.838586 167.985067 
L 226.143255 166.11913 
L 226.447923 167.266154 
L 226.752591 198.745464 
L 227.05726 172.624198 
L 227.361928 189.903547 
L 227.971265 154.061878 
L 228.275933 154.568729 
L 228.580601 189.202129 
L 228.88527 185.322642 
L 229.494606 138.143715 
L 229.799274 156.703375 
L 230.408611 133.263203 
L 230.713279 176.621365 
L 231.017948 144.083999 
L 231.322616 168.052066 
L 231.627284 132.841566 
L 231.931953 143.024417 
L 232.236621 167.691315 
L 232.541289 163.583582 
L 232.845957 123.921064 
L 233.150626 117.133393 
L 233.455294 142.345331 
L 233.759962 151.292635 
L 234.064631 149.624994 
L 234.673967 122.433156 
L 235.283304 106.787273 
L 235.587972 114.097724 
L 235.892641 114.678139 
L 236.197309 103.702826 
L 236.501977 107.792111 
L 236.806645 129.098363 
L 237.111314 91.455442 
L 237.415982 128.45015 
L 237.72065 80.654127 
L 238.025319 90.064702 
L 238.329987 93.343443 
L 238.634655 85.969681 
L 238.939324 107.903582 
L 239.243992 94.173165 
L 239.54866 88.980862 
L 239.853328 89.703086 
L 240.157997 65.411197 
L 240.462665 108.072319 
L 240.767333 89.574173 
L 241.072002 58.703888 
L 241.37667 86.857959 
L 241.681338 59.763202 
L 241.986007 71.443545 
L 242.290675 88.878153 
L 242.595343 93.354229 
L 242.900012 49.923707 
L 243.20468 78.73688 
L 243.509348 41.009997 
L 243.814016 51.534281 
L 244.118685 72.928331 
L 244.423353 40.293314 
L 244.728021 64.763623 
L 245.03269 43.338294 
L 245.337358 33.747277 
L 245.642026 35.955231 
L 245.946695 79.068125 
L 246.556031 58.49664 
L 246.860699 30.585973 
L 247.165368 38.743226 
L 247.470036 29.53061 
L 247.774704 35.132969 
L 248.079373 37.76641 
L 248.384041 27.215552 
L 248.688709 21.86744 
L 248.993378 59.903044 
L 249.298046 66.777854 
L 249.602714 55.478821 
L 249.907383 20.974194 
L 250.516719 51.153306 
L 250.821387 33.528173 
L 251.126056 22.443889 
L 251.430724 57.870504 
L 251.735392 25.226874 
L 252.040061 43.100577 
L 252.649397 34.483118 
L 252.954066 36.085875 
L 253.563402 68.232249 
L 253.86807 36.625508 
L 254.172739 40.712607 
L 254.477407 24.417895 
L 254.782075 71.249192 
L 255.086744 65.758265 
L 255.391412 30.917979 
L 256.000749 42.131295 
L 256.305417 38.011081 
L 256.914754 59.34746 
L 257.219422 55.750572 
L 257.52409 77.703414 
L 257.828758 78.317009 
L 258.133427 79.29569 
L 258.742763 63.39935 
L 259.3521 89.858745 
L 259.656768 72.462367 
L 259.961437 86.843886 
L 260.266105 70.36439 
L 260.570773 77.081792 
L 260.875441 98.857546 
L 261.18011 61.04145 
L 261.484778 81.393251 
L 261.789446 69.268569 
L 262.094115 100.459521 
L 262.398783 103.032865 
L 262.703451 70.697313 
L 263.312788 110.854239 
L 263.617456 92.903747 
L 263.922125 82.70931 
L 264.226793 106.600815 
L 264.531461 88.145997 
L 264.836129 121.896112 
L 265.140798 81.101104 
L 265.445466 121.351131 
L 265.750134 110.408181 
L 266.054803 95.047619 
L 266.359471 112.305557 
L 266.664139 119.095224 
L 266.968808 134.026282 
L 267.273476 115.324917 
L 267.578144 138.419856 
L 267.882812 146.971782 
L 268.187481 148.776096 
L 268.796817 111.187662 
L 269.101486 115.480915 
L 269.406154 144.187259 
L 269.710822 119.334042 
L 270.015491 137.13499 
L 270.624827 119.959188 
L 270.929496 160.756041 
L 271.234164 131.831183 
L 271.538832 135.69389 
L 271.8435 153.127932 
L 272.148169 130.47474 
L 272.452837 147.89024 
L 272.757505 135.361265 
L 273.062174 173.220876 
L 273.366842 171.498942 
L 273.67151 152.258272 
L 273.976179 167.249847 
L 274.280847 188.724875 
L 274.585515 156.949979 
L 274.890184 187.28213 
L 275.194852 155.948421 
L 275.49952 184.321543 
L 275.804188 159.097188 
L 276.108857 180.417637 
L 276.413525 186.488096 
L 276.718193 167.712762 
L 277.022862 200.872739 
L 277.32753 200.952301 
L 277.632198 178.048273 
L 277.936867 181.970384 
L 278.241535 203.667778 
L 278.546203 160.109746 
L 278.850871 165.561078 
L 279.15554 191.910394 
L 279.460208 202.403336 
L 279.764876 208.895193 
L 280.069545 182.935072 
L 280.374213 183.064892 
L 280.678881 174.879212 
L 280.98355 213.111457 
L 281.288218 174.946728 
L 281.592886 204.824567 
L 281.897555 172.274811 
L 282.202223 200.145995 
L 282.506891 172.18946 
L 282.811559 190.360479 
L 283.116228 163.703686 
L 283.420896 199.263651 
L 283.725564 179.82919 
L 284.030233 198.202062 
L 284.334901 180.65512 
L 284.639569 208.534637 
L 284.944238 184.127494 
L 285.248906 205.074222 
L 285.553574 182.920438 
L 285.858242 188.799264 
L 286.162911 181.93368 
L 286.467579 189.227755 
L 286.772247 192.810245 
L 287.076916 171.592896 
L 287.381584 162.328447 
L 288.295589 198.211879 
L 288.600257 190.589081 
L 288.904926 165.378664 
L 289.209594 153.139003 
L 289.514262 167.775007 
L 289.81893 164.453499 
L 290.123599 159.847722 
L 290.428267 139.808626 
L 290.732935 146.984356 
L 291.037604 167.768044 
L 291.342272 165.191314 
L 291.64694 130.539539 
L 291.951609 132.590297 
L 292.256277 128.865695 
L 292.560945 130.802988 
L 292.865613 127.683291 
L 293.170282 159.210784 
L 293.47495 149.130303 
L 293.779618 128.326459 
L 294.084287 140.298505 
L 294.388955 135.587124 
L 294.693623 155.815389 
L 294.998292 138.122479 
L 295.30296 112.451956 
L 295.912297 136.881491 
L 296.216965 108.477859 
L 296.521633 130.150001 
L 296.826301 115.014518 
L 297.13097 135.325062 
L 297.435638 115.884198 
L 297.740306 108.718891 
L 298.044975 132.801234 
L 298.349643 88.454168 
L 298.654311 124.98139 
L 298.95898 123.598608 
L 299.263648 123.432383 
L 299.872984 74.841008 
L 300.177653 106.042327 
L 300.482321 71.183661 
L 300.786989 70.909005 
L 301.091658 107.586612 
L 301.396326 68.704246 
L 301.700994 106.364791 
L 302.005663 82.918521 
L 302.310331 77.866384 
L 302.614999 59.817506 
L 302.919668 79.498488 
L 303.224336 59.524137 
L 303.529004 90.465943 
L 303.833672 64.149585 
L 304.138341 76.730635 
L 304.443009 72.463024 
L 304.747677 83.170738 
L 305.052346 77.98972 
L 305.357014 62.357302 
L 305.661682 63.9385 
L 306.271019 44.059521 
L 306.575687 49.850572 
L 306.880355 48.166948 
L 307.185024 35.4499 
L 307.489692 62.646932 
L 307.79436 49.528936 
L 308.403697 73.744288 
L 308.708365 51.652688 
L 309.013034 71.760238 
L 309.317702 40.486741 
L 309.62237 30.094401 
L 309.927039 38.679993 
L 310.231707 66.063761 
L 310.536375 46.020982 
L 310.841043 43.106569 
L 311.145712 33.447063 
L 311.45038 58.07261 
L 311.755048 17.083636 
L 312.059717 30.574706 
L 312.364385 58.407751 
L 312.669053 60.288836 
L 313.27839 17.673782 
L 313.583058 19.551942 
L 313.887727 59.01325 
L 314.497063 27.455824 
L 314.801731 22.080532 
L 315.1064 25.792276 
L 315.411068 60.58534 
L 315.715736 44.389209 
L 316.020405 54.486999 
L 316.325073 48.003048 
L 316.629741 73.240321 
L 316.93441 68.981087 
L 317.239078 33.005887 
L 317.543746 72.759635 
L 317.848414 66.858714 
L 318.153083 36.662098 
L 318.457751 47.157698 
L 318.762419 66.158897 
L 319.067088 51.802312 
L 319.371756 63.922427 
L 319.676424 59.16341 
L 319.981093 75.101787 
L 320.285761 79.784697 
L 320.590429 63.92083 
L 320.895098 84.15761 
L 321.199766 58.361732 
L 321.504434 49.225387 
L 321.809102 63.857888 
L 322.113771 53.690768 
L 322.418439 85.80921 
L 322.723107 64.049614 
L 323.027776 87.247655 
L 323.637112 61.532563 
L 323.941781 96.088561 
L 324.246449 74.524296 
L 324.551117 102.816128 
L 324.855785 83.434386 
L 325.160454 83.824631 
L 325.465122 112.509355 
L 325.76979 109.535016 
L 326.074459 85.922364 
L 326.379127 103.65117 
L 326.683795 91.964288 
L 327.293132 112.291619 
L 327.5978 92.407386 
L 327.902469 104.916525 
L 328.207137 141.561233 
L 328.511805 123.060879 
L 328.816473 132.435021 
L 329.121142 110.115451 
L 329.730478 156.93748 
L 330.035147 143.286515 
L 330.339815 156.033271 
L 330.644483 130.017263 
L 330.949152 163.475552 
L 331.25382 147.559993 
L 331.558488 125.432201 
L 331.863156 128.262277 
L 332.472493 166.317513 
L 332.777161 164.735829 
L 333.08183 145.861611 
L 333.386498 153.127543 
L 333.691166 175.78857 
L 333.995835 138.358349 
L 334.300503 170.729302 
L 334.605171 164.898242 
L 334.90984 174.874815 
L 335.214508 189.644165 
L 335.519176 180.354972 
L 335.823844 155.775054 
L 336.128513 160.452841 
L 336.433181 190.371047 
L 336.737849 164.137556 
L 337.042518 163.009286 
L 337.347186 153.835471 
L 337.651854 177.621612 
L 337.956523 165.867746 
L 338.261191 165.028383 
L 338.565859 165.319368 
L 338.870527 190.902601 
L 339.175196 192.696821 
L 339.479864 183.148409 
L 339.784532 161.092518 
L 340.089201 187.151805 
L 340.393869 193.294187 
L 340.698537 206.430277 
L 341.003206 189.907043 
L 341.307874 184.270144 
L 341.917211 214.756364 
L 342.221879 184.99927 
L 342.526547 199.770231 
L 342.831215 205.123018 
L 343.135884 176.002014 
L 343.440552 170.348808 
L 343.74522 180.830477 
L 344.049889 205.305388 
L 344.354557 204.965056 
L 344.659225 180.841949 
L 344.963894 190.626047 
L 345.268562 168.07147 
L 345.57323 209.40689 
L 345.877898 192.532887 
L 346.182567 202.120142 
L 346.487235 160.789131 
L 346.791903 164.079349 
L 347.096572 180.848087 
L 347.40124 166.28528 
L 347.705908 157.864935 
L 348.010577 162.563633 
L 348.315245 152.726054 
L 348.619913 157.259105 
L 348.924582 155.386324 
L 349.22925 197.885213 
L 349.533918 161.196258 
L 349.838586 167.438666 
L 350.143255 193.113662 
L 350.447923 192.425872 
L 350.752591 164.455578 
L 351.05726 178.209853 
L 351.361928 183.465037 
L 351.666596 142.244019 
L 351.971265 148.177202 
L 352.275933 160.931994 
L 352.580601 132.129379 
L 352.88527 174.320952 
L 353.189938 128.670999 
L 353.494606 152.218117 
L 353.799274 136.253435 
L 354.103943 157.629235 
L 354.713279 160.142436 
L 355.017948 151.345755 
L 355.322616 156.531794 
L 355.627284 157.879944 
L 355.931953 142.756708 
L 356.236621 110.40151 
L 356.541289 153.073122 
L 357.150626 128.421252 
L 357.759962 97.308467 
L 358.064631 129.600943 
L 358.064631 129.600943 
" clip-path="url(#p236dad7c5a)" style="fill: none; stroke: #1f77b4; stroke-width: 1.5; stroke-linecap: square"/>
   </g>
   <g id="patch_3">
    <path d="M 38.482813 224.64 
L 38.482813 7.2 
" style="fill: none; stroke: #000000; stroke-width: 0.8; stroke-linejoin: miter; stroke-linecap: square"/>
   </g>
   <g id="patch_4">
    <path d="M 373.282813 224.64 
L 373.282813 7.2 
" style="fill: none; stroke: #000000; stroke-width: 0.8; stroke-linejoin: miter; stroke-linecap: square"/>
   </g>
   <g id="patch_5">
    <path d="M 38.482813 224.64 
L 373.282813 224.64 
" style="fill: none; stroke: #000000; stroke-width: 0.8; stroke-linejoin: miter; stroke-linecap: square"/>
   </g>
   <g id="patch_6">
    <path d="M 38.482813 7.2 
L 373.282813 7.2 
" style="fill: none; stroke: #000000; stroke-width: 0.8; stroke-linejoin: miter; stroke-linecap: square"/>
   </g>
  </g>
 </g>
 <defs>
  <clipPath id="p236dad7c5a">
   <rect x="38.482813" y="7.2" width="334.8" height="217.44"/>
  </clipPath>
 </defs>
</svg>
