<?xml version="1.0" encoding="utf-8" standalone="no"?>
<!DOCTYPE svg PUBLIC "-//W3C//DTD SVG 1.1//EN"
  "http://www.w3.org/Graphics/SVG/1.1/DTD/svg11.dtd">
<svg xmlns:xlink="http://www.w3.org/1999/xlink" width="384.83125pt" height="262.19625pt" viewBox="0 0 384.83125 262.19625" xmlns="http://www.w3.org/2000/svg" version="1.1">
 <metadata>
  <rdf:RDF xmlns:dc="http://purl.org/dc/elements/1.1/" xmlns:cc="http://creativecommons.org/ns#" xmlns:rdf="http://www.w3.org/1999/02/22-rdf-syntax-ns#">
   <cc:Work>
    <dc:type rdf:resource="http://purl.org/dc/dcmitype/StillImage"/>
    <dc:date>2022-06-02T14:36:52.114873</dc:date>
    <dc:format>image/svg+xml</dc:format>
    <dc:creator>
     <cc:Agent>
      <dc:title>Matplotlib v3.5.2, https://matplotlib.org/</dc:title>
     </cc:Agent>
    </dc:creator>
   </cc:Work>
  </rdf:RDF>
 </metadata>
 <defs>
  <style type="text/css">*{stroke-linejoin: round; stroke-linecap: butt}</style>
 </defs>
 <g id="figure_1">
  <g id="patch_1">
   <path d="M 0 262.19625 
L 384.83125 262.19625 
L 384.83125 0 
L 0 0 
L 0 262.19625 
z
" style="fill: none"/>
  </g>
  <g id="axes_1">
   <g id="patch_2">
    <path d="M 33.2875 224.64 
L 368.0875 224.64 
L 368.0875 7.2 
L 33.2875 7.2 
z
" style="fill: #ffffff"/>
   </g>
   <g id="matplotlib.axis_1">
    <g id="xtick_1">
     <g id="line2d_1">
      <defs>
       <path id="m7b917d0a04" d="M 0 0 
L 0 3.5 
" style="stroke: #000000; stroke-width: 0.8"/>
      </defs>
      <g>
       <use xlink:href="#m7b917d0a04" x="33.2875" y="224.64" style="stroke: #000000; stroke-width: 0.8"/>
      </g>
     </g>
     <g id="text_1">
      <!-- 0 -->
      <g transform="translate(30.10625 239.238438)scale(0.1 -0.1)">
       <defs>
        <path id="DejaVuSans-30" d="M 2034 4250 
Q 1547 4250 1301 3770 
Q 1056 3291 1056 2328 
Q 1056 1369 1301 889 
Q 1547 409 2034 409 
Q 2525 409 2770 889 
Q 3016 1369 3016 2328 
Q 3016 3291 2770 3770 
Q 2525 4250 2034 4250 
z
M 2034 4750 
Q 2819 4750 3233 4129 
Q 3647 3509 3647 2328 
Q 3647 1150 3233 529 
Q 2819 -91 2034 -91 
Q 1250 -91 836 529 
Q 422 1150 422 2328 
Q 422 3509 836 4129 
Q 1250 4750 2034 4750 
z
" transform="scale(0.015625)"/>
       </defs>
       <use xlink:href="#DejaVuSans-30"/>
      </g>
     </g>
    </g>
    <g id="xtick_2">
     <g id="line2d_2">
      <g>
       <use xlink:href="#m7b917d0a04" x="100.2475" y="224.64" style="stroke: #000000; stroke-width: 0.8"/>
      </g>
     </g>
     <g id="text_2">
      <!-- 50 -->
      <g transform="translate(93.885 239.238438)scale(0.1 -0.1)">
       <defs>
        <path id="DejaVuSans-35" d="M 691 4666 
L 3169 4666 
L 3169 4134 
L 1269 4134 
L 1269 2991 
Q 1406 3038 1543 3061 
Q 1681 3084 1819 3084 
Q 2600 3084 3056 2656 
Q 3513 2228 3513 1497 
Q 3513 744 3044 326 
Q 2575 -91 1722 -91 
Q 1428 -91 1123 -41 
Q 819 9 494 109 
L 494 744 
Q 775 591 1075 516 
Q 1375 441 1709 441 
Q 2250 441 2565 725 
Q 2881 1009 2881 1497 
Q 2881 1984 2565 2268 
Q 2250 2553 1709 2553 
Q 1456 2553 1204 2497 
Q 953 2441 691 2322 
L 691 4666 
z
" transform="scale(0.015625)"/>
       </defs>
       <use xlink:href="#DejaVuSans-35"/>
       <use xlink:href="#DejaVuSans-30" x="63.623047"/>
      </g>
     </g>
    </g>
    <g id="xtick_3">
     <g id="line2d_3">
      <g>
       <use xlink:href="#m7b917d0a04" x="167.2075" y="224.64" style="stroke: #000000; stroke-width: 0.8"/>
      </g>
     </g>
     <g id="text_3">
      <!-- 100 -->
      <g transform="translate(157.66375 239.238438)scale(0.1 -0.1)">
       <defs>
        <path id="DejaVuSans-31" d="M 794 531 
L 1825 531 
L 1825 4091 
L 703 3866 
L 703 4441 
L 1819 4666 
L 2450 4666 
L 2450 531 
L 3481 531 
L 3481 0 
L 794 0 
L 794 531 
z
" transform="scale(0.015625)"/>
       </defs>
       <use xlink:href="#DejaVuSans-31"/>
       <use xlink:href="#DejaVuSans-30" x="63.623047"/>
       <use xlink:href="#DejaVuSans-30" x="127.246094"/>
      </g>
     </g>
    </g>
    <g id="xtick_4">
     <g id="line2d_4">
      <g>
       <use xlink:href="#m7b917d0a04" x="234.1675" y="224.64" style="stroke: #000000; stroke-width: 0.8"/>
      </g>
     </g>
     <g id="text_4">
      <!-- 150 -->
      <g transform="translate(224.62375 239.238438)scale(0.1 -0.1)">
       <use xlink:href="#DejaVuSans-31"/>
       <use xlink:href="#DejaVuSans-35" x="63.623047"/>
       <use xlink:href="#DejaVuSans-30" x="127.246094"/>
      </g>
     </g>
    </g>
    <g id="xtick_5">
     <g id="line2d_5">
      <g>
       <use xlink:href="#m7b917d0a04" x="301.1275" y="224.64" style="stroke: #000000; stroke-width: 0.8"/>
      </g>
     </g>
     <g id="text_5">
      <!-- 200 -->
      <g transform="translate(291.58375 239.238438)scale(0.1 -0.1)">
       <defs>
        <path id="DejaVuSans-32" d="M 1228 531 
L 3431 531 
L 3431 0 
L 469 0 
L 469 531 
Q 828 903 1448 1529 
Q 2069 2156 2228 2338 
Q 2531 2678 2651 2914 
Q 2772 3150 2772 3378 
Q 2772 3750 2511 3984 
Q 2250 4219 1831 4219 
Q 1534 4219 1204 4116 
Q 875 4013 500 3803 
L 500 4441 
Q 881 4594 1212 4672 
Q 1544 4750 1819 4750 
Q 2544 4750 2975 4387 
Q 3406 4025 3406 3419 
Q 3406 3131 3298 2873 
Q 3191 2616 2906 2266 
Q 2828 2175 2409 1742 
Q 1991 1309 1228 531 
z
" transform="scale(0.015625)"/>
       </defs>
       <use xlink:href="#DejaVuSans-32"/>
       <use xlink:href="#DejaVuSans-30" x="63.623047"/>
       <use xlink:href="#DejaVuSans-30" x="127.246094"/>
      </g>
     </g>
    </g>
    <g id="xtick_6">
     <g id="line2d_6">
      <g>
       <use xlink:href="#m7b917d0a04" x="368.0875" y="224.64" style="stroke: #000000; stroke-width: 0.8"/>
      </g>
     </g>
     <g id="text_6">
      <!-- 250 -->
      <g transform="translate(358.54375 239.238438)scale(0.1 -0.1)">
       <use xlink:href="#DejaVuSans-32"/>
       <use xlink:href="#DejaVuSans-35" x="63.623047"/>
       <use xlink:href="#DejaVuSans-30" x="127.246094"/>
      </g>
     </g>
    </g>
    <g id="text_7">
     <!-- Frequency, Hz -->
     <g transform="translate(165.295312 252.916563)scale(0.1 -0.1)">
      <defs>
       <path id="DejaVuSans-46" d="M 628 4666 
L 3309 4666 
L 3309 4134 
L 1259 4134 
L 1259 2759 
L 3109 2759 
L 3109 2228 
L 1259 2228 
L 1259 0 
L 628 0 
L 628 4666 
z
" transform="scale(0.015625)"/>
       <path id="DejaVuSans-72" d="M 2631 2963 
Q 2534 3019 2420 3045 
Q 2306 3072 2169 3072 
Q 1681 3072 1420 2755 
Q 1159 2438 1159 1844 
L 1159 0 
L 581 0 
L 581 3500 
L 1159 3500 
L 1159 2956 
Q 1341 3275 1631 3429 
Q 1922 3584 2338 3584 
Q 2397 3584 2469 3576 
Q 2541 3569 2628 3553 
L 2631 2963 
z
" transform="scale(0.015625)"/>
       <path id="DejaVuSans-65" d="M 3597 1894 
L 3597 1613 
L 953 1613 
Q 991 1019 1311 708 
Q 1631 397 2203 397 
Q 2534 397 2845 478 
Q 3156 559 3463 722 
L 3463 178 
Q 3153 47 2828 -22 
Q 2503 -91 2169 -91 
Q 1331 -91 842 396 
Q 353 884 353 1716 
Q 353 2575 817 3079 
Q 1281 3584 2069 3584 
Q 2775 3584 3186 3129 
Q 3597 2675 3597 1894 
z
M 3022 2063 
Q 3016 2534 2758 2815 
Q 2500 3097 2075 3097 
Q 1594 3097 1305 2825 
Q 1016 2553 972 2059 
L 3022 2063 
z
" transform="scale(0.015625)"/>
       <path id="DejaVuSans-71" d="M 947 1747 
Q 947 1113 1208 752 
Q 1469 391 1925 391 
Q 2381 391 2643 752 
Q 2906 1113 2906 1747 
Q 2906 2381 2643 2742 
Q 2381 3103 1925 3103 
Q 1469 3103 1208 2742 
Q 947 2381 947 1747 
z
M 2906 525 
Q 2725 213 2448 61 
Q 2172 -91 1784 -91 
Q 1150 -91 751 415 
Q 353 922 353 1747 
Q 353 2572 751 3078 
Q 1150 3584 1784 3584 
Q 2172 3584 2448 3432 
Q 2725 3281 2906 2969 
L 2906 3500 
L 3481 3500 
L 3481 -1331 
L 2906 -1331 
L 2906 525 
z
" transform="scale(0.015625)"/>
       <path id="DejaVuSans-75" d="M 544 1381 
L 544 3500 
L 1119 3500 
L 1119 1403 
Q 1119 906 1312 657 
Q 1506 409 1894 409 
Q 2359 409 2629 706 
Q 2900 1003 2900 1516 
L 2900 3500 
L 3475 3500 
L 3475 0 
L 2900 0 
L 2900 538 
Q 2691 219 2414 64 
Q 2138 -91 1772 -91 
Q 1169 -91 856 284 
Q 544 659 544 1381 
z
M 1991 3584 
L 1991 3584 
z
" transform="scale(0.015625)"/>
       <path id="DejaVuSans-6e" d="M 3513 2113 
L 3513 0 
L 2938 0 
L 2938 2094 
Q 2938 2591 2744 2837 
Q 2550 3084 2163 3084 
Q 1697 3084 1428 2787 
Q 1159 2491 1159 1978 
L 1159 0 
L 581 0 
L 581 3500 
L 1159 3500 
L 1159 2956 
Q 1366 3272 1645 3428 
Q 1925 3584 2291 3584 
Q 2894 3584 3203 3211 
Q 3513 2838 3513 2113 
z
" transform="scale(0.015625)"/>
       <path id="DejaVuSans-63" d="M 3122 3366 
L 3122 2828 
Q 2878 2963 2633 3030 
Q 2388 3097 2138 3097 
Q 1578 3097 1268 2742 
Q 959 2388 959 1747 
Q 959 1106 1268 751 
Q 1578 397 2138 397 
Q 2388 397 2633 464 
Q 2878 531 3122 666 
L 3122 134 
Q 2881 22 2623 -34 
Q 2366 -91 2075 -91 
Q 1284 -91 818 406 
Q 353 903 353 1747 
Q 353 2603 823 3093 
Q 1294 3584 2113 3584 
Q 2378 3584 2631 3529 
Q 2884 3475 3122 3366 
z
" transform="scale(0.015625)"/>
       <path id="DejaVuSans-79" d="M 2059 -325 
Q 1816 -950 1584 -1140 
Q 1353 -1331 966 -1331 
L 506 -1331 
L 506 -850 
L 844 -850 
Q 1081 -850 1212 -737 
Q 1344 -625 1503 -206 
L 1606 56 
L 191 3500 
L 800 3500 
L 1894 763 
L 2988 3500 
L 3597 3500 
L 2059 -325 
z
" transform="scale(0.015625)"/>
       <path id="DejaVuSans-2c" d="M 750 794 
L 1409 794 
L 1409 256 
L 897 -744 
L 494 -744 
L 750 256 
L 750 794 
z
" transform="scale(0.015625)"/>
       <path id="DejaVuSans-20" transform="scale(0.015625)"/>
       <path id="DejaVuSans-48" d="M 628 4666 
L 1259 4666 
L 1259 2753 
L 3553 2753 
L 3553 4666 
L 4184 4666 
L 4184 0 
L 3553 0 
L 3553 2222 
L 1259 2222 
L 1259 0 
L 628 0 
L 628 4666 
z
" transform="scale(0.015625)"/>
       <path id="DejaVuSans-7a" d="M 353 3500 
L 3084 3500 
L 3084 2975 
L 922 459 
L 3084 459 
L 3084 0 
L 275 0 
L 275 525 
L 2438 3041 
L 353 3041 
L 353 3500 
z
" transform="scale(0.015625)"/>
      </defs>
      <use xlink:href="#DejaVuSans-46"/>
      <use xlink:href="#DejaVuSans-72" x="50.269531"/>
      <use xlink:href="#DejaVuSans-65" x="89.132812"/>
      <use xlink:href="#DejaVuSans-71" x="150.65625"/>
      <use xlink:href="#DejaVuSans-75" x="214.132812"/>
      <use xlink:href="#DejaVuSans-65" x="277.511719"/>
      <use xlink:href="#DejaVuSans-6e" x="339.035156"/>
      <use xlink:href="#DejaVuSans-63" x="402.414062"/>
      <use xlink:href="#DejaVuSans-79" x="457.394531"/>
      <use xlink:href="#DejaVuSans-2c" x="516.574219"/>
      <use xlink:href="#DejaVuSans-20" x="548.361328"/>
      <use xlink:href="#DejaVuSans-48" x="580.148438"/>
      <use xlink:href="#DejaVuSans-7a" x="655.34375"/>
     </g>
    </g>
   </g>
   <g id="matplotlib.axis_2">
    <g id="ytick_1">
     <g id="line2d_7">
      <defs>
       <path id="m533574a2fb" d="M 0 0 
L -3.5 0 
" style="stroke: #000000; stroke-width: 0.8"/>
      </defs>
      <g>
       <use xlink:href="#m533574a2fb" x="33.2875" y="206.861755" style="stroke: #000000; stroke-width: 0.8"/>
      </g>
     </g>
     <g id="text_8">
      <!-- 0 -->
      <g transform="translate(19.925 210.660973)scale(0.1 -0.1)">
       <use xlink:href="#DejaVuSans-30"/>
      </g>
     </g>
    </g>
    <g id="ytick_2">
     <g id="line2d_8">
      <g>
       <use xlink:href="#m533574a2fb" x="33.2875" y="168.895091" style="stroke: #000000; stroke-width: 0.8"/>
      </g>
     </g>
     <g id="text_9">
      <!-- 50 -->
      <g transform="translate(13.5625 172.69431)scale(0.1 -0.1)">
       <use xlink:href="#DejaVuSans-35"/>
       <use xlink:href="#DejaVuSans-30" x="63.623047"/>
      </g>
     </g>
    </g>
    <g id="ytick_3">
     <g id="line2d_9">
      <g>
       <use xlink:href="#m533574a2fb" x="33.2875" y="130.928428" style="stroke: #000000; stroke-width: 0.8"/>
      </g>
     </g>
     <g id="text_10">
      <!-- 100 -->
      <g transform="translate(7.2 134.727647)scale(0.1 -0.1)">
       <use xlink:href="#DejaVuSans-31"/>
       <use xlink:href="#DejaVuSans-30" x="63.623047"/>
       <use xlink:href="#DejaVuSans-30" x="127.246094"/>
      </g>
     </g>
    </g>
    <g id="ytick_4">
     <g id="line2d_10">
      <g>
       <use xlink:href="#m533574a2fb" x="33.2875" y="92.961765" style="stroke: #000000; stroke-width: 0.8"/>
      </g>
     </g>
     <g id="text_11">
      <!-- 150 -->
      <g transform="translate(7.2 96.760984)scale(0.1 -0.1)">
       <use xlink:href="#DejaVuSans-31"/>
       <use xlink:href="#DejaVuSans-35" x="63.623047"/>
       <use xlink:href="#DejaVuSans-30" x="127.246094"/>
      </g>
     </g>
    </g>
    <g id="ytick_5">
     <g id="line2d_11">
      <g>
       <use xlink:href="#m533574a2fb" x="33.2875" y="54.995102" style="stroke: #000000; stroke-width: 0.8"/>
      </g>
     </g>
     <g id="text_12">
      <!-- 200 -->
      <g transform="translate(7.2 58.79432)scale(0.1 -0.1)">
       <use xlink:href="#DejaVuSans-32"/>
       <use xlink:href="#DejaVuSans-30" x="63.623047"/>
       <use xlink:href="#DejaVuSans-30" x="127.246094"/>
      </g>
     </g>
    </g>
    <g id="ytick_6">
     <g id="line2d_12">
      <g>
       <use xlink:href="#m533574a2fb" x="33.2875" y="17.028438" style="stroke: #000000; stroke-width: 0.8"/>
      </g>
     </g>
     <g id="text_13">
      <!-- 250 -->
      <g transform="translate(7.2 20.827657)scale(0.1 -0.1)">
       <use xlink:href="#DejaVuSans-32"/>
       <use xlink:href="#DejaVuSans-35" x="63.623047"/>
       <use xlink:href="#DejaVuSans-30" x="127.246094"/>
      </g>
     </g>
    </g>
   </g>
   <g id="line2d_13">
    <path d="M 33.2875 17.083636 
L 34.6267 209.202013 
L 35.9659 206.545597 
L 37.3051 201.703568 
L 38.6443 203.462844 
L 39.9835 206.494342 
L 41.3227 205.989779 
L 42.6619 207.080587 
L 44.0011 203.13643 
L 45.3403 207.855731 
L 46.6795 204.181144 
L 48.0187 206.21624 
L 49.3579 204.136457 
L 50.6971 208.554858 
L 52.0363 201.924122 
L 53.3755 209.860474 
L 54.7147 205.133063 
L 56.0539 205.283159 
L 57.3931 209.890631 
L 58.7323 203.801047 
L 60.0715 201.809011 
L 61.4107 207.475428 
L 62.7499 210.125286 
L 64.0891 209.012065 
L 65.4283 209.94872 
L 66.7675 211.102168 
L 68.1067 208.993539 
L 69.4459 201.642563 
L 70.7851 208.524489 
L 72.1243 207.574986 
L 73.4635 204.135263 
L 74.8027 210.168512 
L 76.1419 209.146899 
L 77.4811 206.475001 
L 78.8203 204.306138 
L 80.1595 204.700199 
L 81.4987 208.14345 
L 82.8379 208.703537 
L 84.1771 205.218855 
L 85.5163 208.0971 
L 86.8555 206.250942 
L 88.1947 205.392386 
L 89.5339 208.05874 
L 92.2123 204.064546 
L 93.5515 206.735465 
L 94.8907 210.368046 
L 96.2299 207.9559 
L 97.5691 206.286255 
L 98.9083 207.658505 
L 100.2475 204.603721 
L 101.5867 205.412158 
L 102.9259 204.170726 
L 104.2651 208.031598 
L 105.6043 206.128972 
L 106.9435 211.009764 
L 108.2827 208.95864 
L 109.6219 203.561027 
L 110.9611 204.498316 
L 112.3003 207.571484 
L 113.6395 205.510662 
L 114.9787 200.856427 
L 116.3179 135.555787 
L 117.6571 212.664582 
L 118.9963 212.361694 
L 120.3355 209.314076 
L 121.6747 205.198713 
L 123.0139 212.081131 
L 124.3531 208.025297 
L 125.6923 203.427156 
L 127.0315 206.091345 
L 128.3707 211.002162 
L 129.7099 208.605644 
L 131.0491 211.873236 
L 132.3883 209.075725 
L 133.7275 204.962476 
L 135.0667 202.535247 
L 136.4059 208.759467 
L 137.7451 206.23777 
L 139.0843 214.756364 
L 140.4235 208.423785 
L 141.7627 209.011281 
L 143.1019 207.445772 
L 144.4411 202.758596 
L 145.7803 201.284294 
L 147.1195 206.409499 
L 148.4587 209.065971 
L 149.7979 209.763398 
L 151.1371 206.105109 
L 152.4763 208.096754 
L 153.8155 207.774284 
L 155.1547 209.723668 
L 156.4939 204.19306 
L 157.8331 207.895102 
L 159.1723 207.57258 
L 160.5115 204.261436 
L 161.8507 211.948226 
L 163.1899 203.857721 
L 164.5291 202.740877 
L 165.8683 209.622787 
L 168.5467 206.648636 
L 169.8859 210.171379 
L 171.2251 205.537229 
L 172.5643 206.398665 
L 173.9035 208.241951 
L 175.2427 206.847071 
L 176.5819 209.021975 
L 177.9211 206.939776 
L 179.2603 200.918775 
L 180.5995 206.956358 
L 181.9387 206.103543 
L 183.2779 208.697286 
L 184.6171 205.751376 
L 185.9563 209.91201 
L 187.2955 204.047709 
L 188.6347 206.501295 
L 189.9739 205.818299 
L 191.3131 209.063582 
L 192.6523 206.668858 
L 193.9915 201.559866 
L 195.3307 204.96251 
L 196.6699 206.958994 
L 198.0091 206.957805 
L 199.3483 212.596914 
L 200.6875 206.2427 
L 202.0267 206.323189 
L 203.3659 205.497196 
L 204.7051 204.308824 
L 206.0443 207.281123 
L 207.3835 204.245154 
L 208.7227 209.035832 
L 210.0619 201.403577 
L 211.4011 202.573974 
L 212.7403 207.477386 
L 214.0795 205.733672 
L 215.4187 204.358686 
L 216.7579 201.951442 
L 218.0971 208.624117 
L 219.4363 204.671485 
L 220.7755 208.343508 
L 222.1147 206.830292 
L 223.4539 209.049575 
L 224.7931 204.259895 
L 226.1323 210.280241 
L 227.4715 207.309034 
L 228.8107 205.084244 
L 230.1499 211.110517 
L 231.4891 209.225539 
L 232.8283 204.661366 
L 234.1675 209.186535 
L 235.5067 207.121956 
L 236.8459 207.355782 
L 238.1851 205.653552 
L 239.5243 208.101321 
L 240.8635 208.953475 
L 242.2027 206.266944 
L 243.5419 209.255967 
L 246.2203 207.030902 
L 247.5595 199.386273 
L 248.8987 207.756643 
L 250.2379 211.369125 
L 251.5771 206.716452 
L 252.9163 209.121663 
L 254.2555 205.09862 
L 255.5947 206.712289 
L 256.9339 204.984583 
L 258.2731 208.583541 
L 259.6123 206.551223 
L 260.9515 207.589228 
L 262.2907 208.961027 
L 263.6299 205.815565 
L 264.9691 205.116099 
L 266.3083 204.947724 
L 267.6475 205.075298 
L 268.9867 204.086891 
L 270.3259 205.205639 
L 271.6651 204.141736 
L 273.0043 207.682487 
L 274.3435 208.464111 
L 275.6827 203.820415 
L 277.0219 207.689386 
L 278.3611 206.096985 
L 279.7003 211.328466 
L 281.0395 203.558674 
L 282.3787 207.824227 
L 283.7179 209.455651 
L 285.0571 210.683732 
L 286.3963 208.042093 
L 287.7355 206.302544 
L 289.0747 202.617068 
L 290.4139 206.873169 
L 291.7531 205.966238 
L 293.0923 208.392973 
L 294.4315 206.879953 
L 295.7707 206.319283 
L 297.1099 209.349773 
L 298.4491 203.701635 
L 299.7883 208.782369 
L 301.1275 206.030284 
L 302.4667 204.797184 
L 303.8059 212.802813 
L 305.1451 210.686238 
L 306.4843 206.851988 
L 307.8235 203.783638 
L 309.1627 211.382196 
L 310.5019 209.517014 
L 311.8411 208.181114 
L 313.1803 202.079902 
L 314.5195 204.971476 
L 315.8587 205.671111 
L 317.1979 207.512947 
L 318.5371 206.160897 
L 319.8763 205.152845 
L 321.2155 205.006584 
L 322.5547 205.568779 
L 325.2331 208.914419 
L 326.5723 206.570733 
L 327.9115 205.47663 
L 329.2507 209.113306 
L 330.5899 206.26371 
L 331.9291 204.595403 
L 333.2683 205.847645 
L 334.6075 206.586529 
L 335.9467 208.844513 
L 337.2859 208.232722 
L 338.6251 208.520652 
L 339.9643 208.295898 
L 341.3035 206.16669 
L 342.6427 208.379483 
L 343.9819 208.641304 
L 345.3211 209.543507 
L 346.6603 207.491679 
L 347.9995 208.945359 
L 349.3387 204.515912 
L 350.6779 206.105329 
L 352.0171 204.973666 
L 353.3563 205.94473 
L 354.6955 205.459893 
L 356.0347 207.707618 
L 357.3739 204.41316 
L 358.7131 204.766057 
L 360.0523 207.106352 
L 361.3915 204.428477 
L 362.7307 197.776808 
L 364.0699 207.686988 
L 365.4091 208.156145 
L 366.7483 210.645098 
L 368.0875 202.542505 
L 369.4267 208.995048 
L 370.7659 207.080569 
L 372.1051 206.827705 
L 373.4443 208.333876 
L 374.7835 210.343893 
L 376.1227 207.443261 
L 377.4619 209.445714 
L 378.8011 205.470192 
L 381.4795 211.994477 
L 382.8187 205.743618 
L 384.1579 207.423159 
L 385.4971 206.287755 
L 385.83125 206.782843 
L 385.83125 206.782843 
" clip-path="url(#pb05e9dd553)" style="fill: none; stroke: #1f77b4; stroke-width: 1.5; stroke-linecap: square"/>
   </g>
   <g id="patch_3">
    <path d="M 33.2875 224.64 
L 33.2875 7.2 
" style="fill: none; stroke: #000000; stroke-width: 0.8; stroke-linejoin: miter; stroke-linecap: square"/>
   </g>
   <g id="patch_4">
    <path d="M 368.0875 224.64 
L 368.0875 7.2 
" style="fill: none; stroke: #000000; stroke-width: 0.8; stroke-linejoin: miter; stroke-linecap: square"/>
   </g>
   <g id="patch_5">
    <path d="M 33.2875 224.64 
L 368.0875 224.64 
" style="fill: none; stroke: #000000; stroke-width: 0.8; stroke-linejoin: miter; stroke-linecap: square"/>
   </g>
   <g id="patch_6">
    <path d="M 33.2875 7.2 
L 368.0875 7.2 
" style="fill: none; stroke: #000000; stroke-width: 0.8; stroke-linejoin: miter; stroke-linecap: square"/>
   </g>
  </g>
 </g>
 <defs>
  <clipPath id="pb05e9dd553">
   <rect x="33.2875" y="7.2" width="334.8" height="217.44"/>
  </clipPath>
 </defs>
</svg>
