<?xml version="1.0" encoding="utf-8" standalone="no"?>
<!DOCTYPE svg PUBLIC "-//W3C//DTD SVG 1.1//EN"
  "http://www.w3.org/Graphics/SVG/1.1/DTD/svg11.dtd">
<svg xmlns:xlink="http://www.w3.org/1999/xlink" width="380.482813pt" height="262.19625pt" viewBox="0 0 380.482813 262.19625" xmlns="http://www.w3.org/2000/svg" version="1.1">
 <metadata>
  <rdf:RDF xmlns:dc="http://purl.org/dc/elements/1.1/" xmlns:cc="http://creativecommons.org/ns#" xmlns:rdf="http://www.w3.org/1999/02/22-rdf-syntax-ns#">
   <cc:Work>
    <dc:type rdf:resource="http://purl.org/dc/dcmitype/StillImage"/>
    <dc:date>2022-06-02T14:36:51.797323</dc:date>
    <dc:format>image/svg+xml</dc:format>
    <dc:creator>
     <cc:Agent>
      <dc:title>Matplotlib v3.5.2, https://matplotlib.org/</dc:title>
     </cc:Agent>
    </dc:creator>
   </cc:Work>
  </rdf:RDF>
 </metadata>
 <defs>
  <style type="text/css">*{stroke-linejoin: round; stroke-linecap: butt}</style>
 </defs>
 <g id="figure_1">
  <g id="patch_1">
   <path d="M -0 262.19625 
L 380.482813 262.19625 
L 380.482813 0 
L -0 0 
L -0 262.19625 
z
" style="fill: none"/>
  </g>
  <g id="axes_1">
   <g id="patch_2">
    <path d="M 38.482813 224.64 
L 373.282813 224.64 
L 373.282813 7.2 
L 38.482813 7.2 
z
" style="fill: #ffffff"/>
   </g>
   <g id="matplotlib.axis_1">
    <g id="xtick_1">
     <g id="line2d_1">
      <defs>
       <path id="md9133f2427" d="M 0 0 
L 0 3.5 
" style="stroke: #000000; stroke-width: 0.8"/>
      </defs>
      <g>
       <use xlink:href="#md9133f2427" x="53.700994" y="224.64" style="stroke: #000000; stroke-width: 0.8"/>
      </g>
     </g>
     <g id="text_1">
      <!-- 0.0 -->
      <g transform="translate(45.749432 239.238438)scale(0.1 -0.1)">
       <defs>
        <path id="DejaVuSans-30" d="M 2034 4250 
Q 1547 4250 1301 3770 
Q 1056 3291 1056 2328 
Q 1056 1369 1301 889 
Q 1547 409 2034 409 
Q 2525 409 2770 889 
Q 3016 1369 3016 2328 
Q 3016 3291 2770 3770 
Q 2525 4250 2034 4250 
z
M 2034 4750 
Q 2819 4750 3233 4129 
Q 3647 3509 3647 2328 
Q 3647 1150 3233 529 
Q 2819 -91 2034 -91 
Q 1250 -91 836 529 
Q 422 1150 422 2328 
Q 422 3509 836 4129 
Q 1250 4750 2034 4750 
z
" transform="scale(0.015625)"/>
        <path id="DejaVuSans-2e" d="M 684 794 
L 1344 794 
L 1344 0 
L 684 0 
L 684 794 
z
" transform="scale(0.015625)"/>
       </defs>
       <use xlink:href="#DejaVuSans-30"/>
       <use xlink:href="#DejaVuSans-2e" x="63.623047"/>
       <use xlink:href="#DejaVuSans-30" x="95.410156"/>
      </g>
     </g>
    </g>
    <g id="xtick_2">
     <g id="line2d_2">
      <g>
       <use xlink:href="#md9133f2427" x="114.573722" y="224.64" style="stroke: #000000; stroke-width: 0.8"/>
      </g>
     </g>
     <g id="text_2">
      <!-- 0.2 -->
      <g transform="translate(106.622159 239.238438)scale(0.1 -0.1)">
       <defs>
        <path id="DejaVuSans-32" d="M 1228 531 
L 3431 531 
L 3431 0 
L 469 0 
L 469 531 
Q 828 903 1448 1529 
Q 2069 2156 2228 2338 
Q 2531 2678 2651 2914 
Q 2772 3150 2772 3378 
Q 2772 3750 2511 3984 
Q 2250 4219 1831 4219 
Q 1534 4219 1204 4116 
Q 875 4013 500 3803 
L 500 4441 
Q 881 4594 1212 4672 
Q 1544 4750 1819 4750 
Q 2544 4750 2975 4387 
Q 3406 4025 3406 3419 
Q 3406 3131 3298 2873 
Q 3191 2616 2906 2266 
Q 2828 2175 2409 1742 
Q 1991 1309 1228 531 
z
" transform="scale(0.015625)"/>
       </defs>
       <use xlink:href="#DejaVuSans-30"/>
       <use xlink:href="#DejaVuSans-2e" x="63.623047"/>
       <use xlink:href="#DejaVuSans-32" x="95.410156"/>
      </g>
     </g>
    </g>
    <g id="xtick_3">
     <g id="line2d_3">
      <g>
       <use xlink:href="#md9133f2427" x="175.446449" y="224.64" style="stroke: #000000; stroke-width: 0.8"/>
      </g>
     </g>
     <g id="text_3">
      <!-- 0.4 -->
      <g transform="translate(167.494886 239.238438)scale(0.1 -0.1)">
       <defs>
        <path id="DejaVuSans-34" d="M 2419 4116 
L 825 1625 
L 2419 1625 
L 2419 4116 
z
M 2253 4666 
L 3047 4666 
L 3047 1625 
L 3713 1625 
L 3713 1100 
L 3047 1100 
L 3047 0 
L 2419 0 
L 2419 1100 
L 313 1100 
L 313 1709 
L 2253 4666 
z
" transform="scale(0.015625)"/>
       </defs>
       <use xlink:href="#DejaVuSans-30"/>
       <use xlink:href="#DejaVuSans-2e" x="63.623047"/>
       <use xlink:href="#DejaVuSans-34" x="95.410156"/>
      </g>
     </g>
    </g>
    <g id="xtick_4">
     <g id="line2d_4">
      <g>
       <use xlink:href="#md9133f2427" x="236.319176" y="224.64" style="stroke: #000000; stroke-width: 0.8"/>
      </g>
     </g>
     <g id="text_4">
      <!-- 0.6 -->
      <g transform="translate(228.367614 239.238438)scale(0.1 -0.1)">
       <defs>
        <path id="DejaVuSans-36" d="M 2113 2584 
Q 1688 2584 1439 2293 
Q 1191 2003 1191 1497 
Q 1191 994 1439 701 
Q 1688 409 2113 409 
Q 2538 409 2786 701 
Q 3034 994 3034 1497 
Q 3034 2003 2786 2293 
Q 2538 2584 2113 2584 
z
M 3366 4563 
L 3366 3988 
Q 3128 4100 2886 4159 
Q 2644 4219 2406 4219 
Q 1781 4219 1451 3797 
Q 1122 3375 1075 2522 
Q 1259 2794 1537 2939 
Q 1816 3084 2150 3084 
Q 2853 3084 3261 2657 
Q 3669 2231 3669 1497 
Q 3669 778 3244 343 
Q 2819 -91 2113 -91 
Q 1303 -91 875 529 
Q 447 1150 447 2328 
Q 447 3434 972 4092 
Q 1497 4750 2381 4750 
Q 2619 4750 2861 4703 
Q 3103 4656 3366 4563 
z
" transform="scale(0.015625)"/>
       </defs>
       <use xlink:href="#DejaVuSans-30"/>
       <use xlink:href="#DejaVuSans-2e" x="63.623047"/>
       <use xlink:href="#DejaVuSans-36" x="95.410156"/>
      </g>
     </g>
    </g>
    <g id="xtick_5">
     <g id="line2d_5">
      <g>
       <use xlink:href="#md9133f2427" x="297.191903" y="224.64" style="stroke: #000000; stroke-width: 0.8"/>
      </g>
     </g>
     <g id="text_5">
      <!-- 0.8 -->
      <g transform="translate(289.240341 239.238438)scale(0.1 -0.1)">
       <defs>
        <path id="DejaVuSans-38" d="M 2034 2216 
Q 1584 2216 1326 1975 
Q 1069 1734 1069 1313 
Q 1069 891 1326 650 
Q 1584 409 2034 409 
Q 2484 409 2743 651 
Q 3003 894 3003 1313 
Q 3003 1734 2745 1975 
Q 2488 2216 2034 2216 
z
M 1403 2484 
Q 997 2584 770 2862 
Q 544 3141 544 3541 
Q 544 4100 942 4425 
Q 1341 4750 2034 4750 
Q 2731 4750 3128 4425 
Q 3525 4100 3525 3541 
Q 3525 3141 3298 2862 
Q 3072 2584 2669 2484 
Q 3125 2378 3379 2068 
Q 3634 1759 3634 1313 
Q 3634 634 3220 271 
Q 2806 -91 2034 -91 
Q 1263 -91 848 271 
Q 434 634 434 1313 
Q 434 1759 690 2068 
Q 947 2378 1403 2484 
z
M 1172 3481 
Q 1172 3119 1398 2916 
Q 1625 2713 2034 2713 
Q 2441 2713 2670 2916 
Q 2900 3119 2900 3481 
Q 2900 3844 2670 4047 
Q 2441 4250 2034 4250 
Q 1625 4250 1398 4047 
Q 1172 3844 1172 3481 
z
" transform="scale(0.015625)"/>
       </defs>
       <use xlink:href="#DejaVuSans-30"/>
       <use xlink:href="#DejaVuSans-2e" x="63.623047"/>
       <use xlink:href="#DejaVuSans-38" x="95.410156"/>
      </g>
     </g>
    </g>
    <g id="xtick_6">
     <g id="line2d_6">
      <g>
       <use xlink:href="#md9133f2427" x="358.064631" y="224.64" style="stroke: #000000; stroke-width: 0.8"/>
      </g>
     </g>
     <g id="text_6">
      <!-- 1.0 -->
      <g transform="translate(350.113068 239.238438)scale(0.1 -0.1)">
       <defs>
        <path id="DejaVuSans-31" d="M 794 531 
L 1825 531 
L 1825 4091 
L 703 3866 
L 703 4441 
L 1819 4666 
L 2450 4666 
L 2450 531 
L 3481 531 
L 3481 0 
L 794 0 
L 794 531 
z
" transform="scale(0.015625)"/>
       </defs>
       <use xlink:href="#DejaVuSans-31"/>
       <use xlink:href="#DejaVuSans-2e" x="63.623047"/>
       <use xlink:href="#DejaVuSans-30" x="95.410156"/>
      </g>
     </g>
    </g>
    <g id="text_7">
     <!-- Time, s -->
     <g transform="translate(187.866406 252.916563)scale(0.1 -0.1)">
      <defs>
       <path id="DejaVuSans-54" d="M -19 4666 
L 3928 4666 
L 3928 4134 
L 2272 4134 
L 2272 0 
L 1638 0 
L 1638 4134 
L -19 4134 
L -19 4666 
z
" transform="scale(0.015625)"/>
       <path id="DejaVuSans-69" d="M 603 3500 
L 1178 3500 
L 1178 0 
L 603 0 
L 603 3500 
z
M 603 4863 
L 1178 4863 
L 1178 4134 
L 603 4134 
L 603 4863 
z
" transform="scale(0.015625)"/>
       <path id="DejaVuSans-6d" d="M 3328 2828 
Q 3544 3216 3844 3400 
Q 4144 3584 4550 3584 
Q 5097 3584 5394 3201 
Q 5691 2819 5691 2113 
L 5691 0 
L 5113 0 
L 5113 2094 
Q 5113 2597 4934 2840 
Q 4756 3084 4391 3084 
Q 3944 3084 3684 2787 
Q 3425 2491 3425 1978 
L 3425 0 
L 2847 0 
L 2847 2094 
Q 2847 2600 2669 2842 
Q 2491 3084 2119 3084 
Q 1678 3084 1418 2786 
Q 1159 2488 1159 1978 
L 1159 0 
L 581 0 
L 581 3500 
L 1159 3500 
L 1159 2956 
Q 1356 3278 1631 3431 
Q 1906 3584 2284 3584 
Q 2666 3584 2933 3390 
Q 3200 3197 3328 2828 
z
" transform="scale(0.015625)"/>
       <path id="DejaVuSans-65" d="M 3597 1894 
L 3597 1613 
L 953 1613 
Q 991 1019 1311 708 
Q 1631 397 2203 397 
Q 2534 397 2845 478 
Q 3156 559 3463 722 
L 3463 178 
Q 3153 47 2828 -22 
Q 2503 -91 2169 -91 
Q 1331 -91 842 396 
Q 353 884 353 1716 
Q 353 2575 817 3079 
Q 1281 3584 2069 3584 
Q 2775 3584 3186 3129 
Q 3597 2675 3597 1894 
z
M 3022 2063 
Q 3016 2534 2758 2815 
Q 2500 3097 2075 3097 
Q 1594 3097 1305 2825 
Q 1016 2553 972 2059 
L 3022 2063 
z
" transform="scale(0.015625)"/>
       <path id="DejaVuSans-2c" d="M 750 794 
L 1409 794 
L 1409 256 
L 897 -744 
L 494 -744 
L 750 256 
L 750 794 
z
" transform="scale(0.015625)"/>
       <path id="DejaVuSans-20" transform="scale(0.015625)"/>
       <path id="DejaVuSans-73" d="M 2834 3397 
L 2834 2853 
Q 2591 2978 2328 3040 
Q 2066 3103 1784 3103 
Q 1356 3103 1142 2972 
Q 928 2841 928 2578 
Q 928 2378 1081 2264 
Q 1234 2150 1697 2047 
L 1894 2003 
Q 2506 1872 2764 1633 
Q 3022 1394 3022 966 
Q 3022 478 2636 193 
Q 2250 -91 1575 -91 
Q 1294 -91 989 -36 
Q 684 19 347 128 
L 347 722 
Q 666 556 975 473 
Q 1284 391 1588 391 
Q 1994 391 2212 530 
Q 2431 669 2431 922 
Q 2431 1156 2273 1281 
Q 2116 1406 1581 1522 
L 1381 1569 
Q 847 1681 609 1914 
Q 372 2147 372 2553 
Q 372 3047 722 3315 
Q 1072 3584 1716 3584 
Q 2034 3584 2315 3537 
Q 2597 3491 2834 3397 
z
" transform="scale(0.015625)"/>
      </defs>
      <use xlink:href="#DejaVuSans-54"/>
      <use xlink:href="#DejaVuSans-69" x="57.958984"/>
      <use xlink:href="#DejaVuSans-6d" x="85.742188"/>
      <use xlink:href="#DejaVuSans-65" x="183.154297"/>
      <use xlink:href="#DejaVuSans-2c" x="244.677734"/>
      <use xlink:href="#DejaVuSans-20" x="276.464844"/>
      <use xlink:href="#DejaVuSans-73" x="308.251953"/>
     </g>
    </g>
   </g>
   <g id="matplotlib.axis_2">
    <g id="ytick_1">
     <g id="line2d_7">
      <defs>
       <path id="m8bc20b2b3c" d="M 0 0 
L -3.5 0 
" style="stroke: #000000; stroke-width: 0.8"/>
      </defs>
      <g>
       <use xlink:href="#m8bc20b2b3c" x="38.482813" y="215.35515" style="stroke: #000000; stroke-width: 0.8"/>
      </g>
     </g>
     <g id="text_8">
      <!-- −1.0 -->
      <g transform="translate(7.2 219.154369)scale(0.1 -0.1)">
       <defs>
        <path id="DejaVuSans-2212" d="M 678 2272 
L 4684 2272 
L 4684 1741 
L 678 1741 
L 678 2272 
z
" transform="scale(0.015625)"/>
       </defs>
       <use xlink:href="#DejaVuSans-2212"/>
       <use xlink:href="#DejaVuSans-31" x="83.789062"/>
       <use xlink:href="#DejaVuSans-2e" x="147.412109"/>
       <use xlink:href="#DejaVuSans-30" x="179.199219"/>
      </g>
     </g>
    </g>
    <g id="ytick_2">
     <g id="line2d_8">
      <g>
       <use xlink:href="#m8bc20b2b3c" x="38.482813" y="175.179949" style="stroke: #000000; stroke-width: 0.8"/>
      </g>
     </g>
     <g id="text_9">
      <!-- −0.5 -->
      <g transform="translate(7.2 178.979168)scale(0.1 -0.1)">
       <defs>
        <path id="DejaVuSans-35" d="M 691 4666 
L 3169 4666 
L 3169 4134 
L 1269 4134 
L 1269 2991 
Q 1406 3038 1543 3061 
Q 1681 3084 1819 3084 
Q 2600 3084 3056 2656 
Q 3513 2228 3513 1497 
Q 3513 744 3044 326 
Q 2575 -91 1722 -91 
Q 1428 -91 1123 -41 
Q 819 9 494 109 
L 494 744 
Q 775 591 1075 516 
Q 1375 441 1709 441 
Q 2250 441 2565 725 
Q 2881 1009 2881 1497 
Q 2881 1984 2565 2268 
Q 2250 2553 1709 2553 
Q 1456 2553 1204 2497 
Q 953 2441 691 2322 
L 691 4666 
z
" transform="scale(0.015625)"/>
       </defs>
       <use xlink:href="#DejaVuSans-2212"/>
       <use xlink:href="#DejaVuSans-30" x="83.789062"/>
       <use xlink:href="#DejaVuSans-2e" x="147.412109"/>
       <use xlink:href="#DejaVuSans-35" x="179.199219"/>
      </g>
     </g>
    </g>
    <g id="ytick_3">
     <g id="line2d_9">
      <g>
       <use xlink:href="#m8bc20b2b3c" x="38.482813" y="135.004748" style="stroke: #000000; stroke-width: 0.8"/>
      </g>
     </g>
     <g id="text_10">
      <!-- 0.0 -->
      <g transform="translate(15.579688 138.803966)scale(0.1 -0.1)">
       <use xlink:href="#DejaVuSans-30"/>
       <use xlink:href="#DejaVuSans-2e" x="63.623047"/>
       <use xlink:href="#DejaVuSans-30" x="95.410156"/>
      </g>
     </g>
    </g>
    <g id="ytick_4">
     <g id="line2d_10">
      <g>
       <use xlink:href="#m8bc20b2b3c" x="38.482813" y="94.829546" style="stroke: #000000; stroke-width: 0.8"/>
      </g>
     </g>
     <g id="text_11">
      <!-- 0.5 -->
      <g transform="translate(15.579688 98.628765)scale(0.1 -0.1)">
       <use xlink:href="#DejaVuSans-30"/>
       <use xlink:href="#DejaVuSans-2e" x="63.623047"/>
       <use xlink:href="#DejaVuSans-35" x="95.410156"/>
      </g>
     </g>
    </g>
    <g id="ytick_5">
     <g id="line2d_11">
      <g>
       <use xlink:href="#m8bc20b2b3c" x="38.482813" y="54.654345" style="stroke: #000000; stroke-width: 0.8"/>
      </g>
     </g>
     <g id="text_12">
      <!-- 1.0 -->
      <g transform="translate(15.579688 58.453564)scale(0.1 -0.1)">
       <use xlink:href="#DejaVuSans-31"/>
       <use xlink:href="#DejaVuSans-2e" x="63.623047"/>
       <use xlink:href="#DejaVuSans-30" x="95.410156"/>
      </g>
     </g>
    </g>
    <g id="ytick_6">
     <g id="line2d_12">
      <g>
       <use xlink:href="#m8bc20b2b3c" x="38.482813" y="14.479144" style="stroke: #000000; stroke-width: 0.8"/>
      </g>
     </g>
     <g id="text_13">
      <!-- 1.5 -->
      <g transform="translate(15.579688 18.278363)scale(0.1 -0.1)">
       <use xlink:href="#DejaVuSans-31"/>
       <use xlink:href="#DejaVuSans-2e" x="63.623047"/>
       <use xlink:href="#DejaVuSans-35" x="95.410156"/>
      </g>
     </g>
    </g>
   </g>
   <g id="line2d_13">
    <path d="M 53.700994 103.655881 
L 54.005663 100.185013 
L 54.310331 44.906979 
L 54.614999 45.205504 
L 54.919668 31.227403 
L 55.224336 41.087094 
L 55.529004 38.555155 
L 56.138341 104.323004 
L 56.747677 170.029017 
L 57.052346 169.286351 
L 57.357014 204.469779 
L 57.966351 156.84616 
L 58.271019 164.429287 
L 58.575687 105.340538 
L 58.880355 93.411215 
L 59.185024 50.824702 
L 59.489692 30.485039 
L 59.79436 48.229356 
L 60.099029 23.078479 
L 60.403697 65.970792 
L 60.708365 72.982227 
L 61.013034 101.61992 
L 61.317702 150.913776 
L 61.62237 158.404393 
L 61.927039 204.305402 
L 62.231707 182.045533 
L 62.536375 205.335474 
L 62.841043 176.691602 
L 63.145712 169.316263 
L 63.45038 118.110068 
L 64.059717 58.751298 
L 64.364385 63.485716 
L 64.669053 47.368067 
L 64.973722 20.237463 
L 65.583058 93.904535 
L 65.887727 106.725316 
L 66.497063 182.830296 
L 66.801731 190.668801 
L 67.1064 204.259214 
L 67.411068 200.598978 
L 67.715736 175.124986 
L 68.020405 137.100949 
L 68.325073 141.41472 
L 68.629741 108.337008 
L 68.93441 52.327298 
L 69.239078 44.375856 
L 69.543746 27.99827 
L 69.848414 45.457881 
L 70.153083 48.25381 
L 70.762419 99.918988 
L 71.067088 116.431792 
L 71.371756 173.946992 
L 71.676424 175.092575 
L 71.981093 186.103487 
L 72.285761 177.407609 
L 72.590429 165.400461 
L 72.895098 173.779222 
L 74.113771 35.686768 
L 74.418439 33.154975 
L 74.723107 32.39939 
L 75.027776 59.226835 
L 75.332444 74.775592 
L 75.941781 115.194704 
L 76.246449 159.925511 
L 76.551117 185.993654 
L 76.855785 196.256988 
L 77.160454 201.994807 
L 77.465122 201.709813 
L 78.379127 100.518871 
L 78.683795 63.83471 
L 78.988464 55.391368 
L 79.293132 25.341076 
L 79.5978 21.916925 
L 79.902469 63.503573 
L 80.207137 72.000116 
L 80.511805 110.262526 
L 80.816473 127.27075 
L 81.121142 172.497881 
L 81.42581 163.946201 
L 81.730478 187.313654 
L 82.035147 196.090695 
L 82.339815 185.37798 
L 82.644483 146.901526 
L 82.949152 153.000049 
L 83.558488 60.667973 
L 83.863156 44.75934 
L 84.167825 55.468137 
L 84.472493 18.921632 
L 84.777161 42.22351 
L 85.08183 80.81032 
L 85.386498 79.128943 
L 85.691166 131.929683 
L 85.995835 133.027539 
L 86.300503 176.271859 
L 86.605171 189.085661 
L 86.90984 207.996663 
L 87.214508 193.287941 
L 87.519176 165.801421 
L 87.823844 155.458564 
L 88.128513 126.054948 
L 88.433181 64.997114 
L 88.737849 48.064603 
L 89.042518 48.17168 
L 89.347186 19.066891 
L 89.956523 67.616172 
L 90.261191 74.624377 
L 90.870527 162.892494 
L 91.479864 209.300867 
L 92.089201 176.423772 
L 92.393869 186.351841 
L 93.003206 131.540813 
L 93.612542 50.772231 
L 93.917211 33.805389 
L 94.526547 49.575171 
L 94.831215 49.71034 
L 95.440552 131.677119 
L 95.74522 133.550579 
L 96.049889 187.796159 
L 96.354557 188.017028 
L 96.659225 175.559449 
L 96.963894 181.942912 
L 97.268562 164.198311 
L 98.487235 44.138787 
L 98.791903 41.935976 
L 99.096572 40.985816 
L 99.40124 49.360125 
L 100.010577 76.722654 
L 100.619913 158.673219 
L 100.924582 162.119006 
L 101.22925 172.350353 
L 101.533918 189.264483 
L 101.838586 182.708681 
L 102.143255 192.710472 
L 102.752591 131.475799 
L 103.05726 97.502103 
L 103.361928 76.566188 
L 103.666596 44.044274 
L 103.971265 44.310095 
L 104.275933 27.433679 
L 105.189938 121.944153 
L 105.494606 132.767547 
L 105.799274 155.130793 
L 106.103943 189.022696 
L 106.408611 175.23307 
L 106.713279 172.499222 
L 107.017948 164.83342 
L 107.322616 143.492331 
L 107.627284 141.08823 
L 108.236621 67.135828 
L 108.541289 61.294202 
L 108.845957 26.442121 
L 109.150626 23.662834 
L 110.978636 198.777641 
L 111.283304 210.572702 
L 111.587972 186.018223 
L 111.892641 177.701119 
L 112.197309 165.337607 
L 112.501977 145.010574 
L 112.806645 82.672779 
L 113.111314 86.04332 
L 113.72065 27.693866 
L 114.025319 46.933511 
L 114.329987 38.501677 
L 114.939324 111.791285 
L 115.243992 123.487178 
L 115.54866 180.651668 
L 115.853328 181.957478 
L 116.157997 176.541141 
L 116.462665 190.315067 
L 116.767333 194.565496 
L 117.072002 174.610159 
L 117.37667 116.799957 
L 118.290675 34.172526 
L 118.595343 49.549608 
L 118.900012 38.215682 
L 119.20468 35.327731 
L 119.509348 84.0376 
L 119.814016 106.628523 
L 120.118685 149.671428 
L 120.423353 166.550868 
L 120.728021 197.060234 
L 121.03269 208.571231 
L 121.337358 210.816549 
L 121.642026 195.287205 
L 122.251363 127.733902 
L 123.165368 40.149207 
L 123.470036 38.501324 
L 123.774704 22.366373 
L 124.079373 60.593612 
L 124.384041 76.38222 
L 124.688709 75.347043 
L 125.298046 172.299317 
L 125.602714 176.433581 
L 125.907383 196.103873 
L 126.212051 201.545052 
L 126.516719 195.324999 
L 127.735392 90.037199 
L 128.040061 34.605325 
L 128.344729 46.430395 
L 128.649397 35.100847 
L 128.954066 46.883978 
L 129.258734 46.073454 
L 129.563402 80.436708 
L 129.86807 137.240803 
L 130.172739 149.546763 
L 130.477407 190.398107 
L 130.782075 185.309735 
L 131.086744 213.826798 
L 132.610085 67.179915 
L 133.219422 42.410466 
L 133.52409 39.923439 
L 133.828758 34.379509 
L 134.133427 45.608025 
L 134.438095 70.414253 
L 135.047432 161.372875 
L 135.3521 179.823466 
L 135.656768 174.306564 
L 135.961437 200.10759 
L 136.266105 207.550734 
L 136.570773 156.087557 
L 137.18011 111.73854 
L 137.484778 76.014321 
L 137.789446 59.369993 
L 138.094115 22.484632 
L 138.398783 46.791698 
L 138.703451 48.742364 
L 139.00812 45.478106 
L 139.312788 102.604815 
L 139.617456 133.500905 
L 139.922125 144.671603 
L 140.226793 178.158557 
L 140.836129 201.183574 
L 141.140798 178.394735 
L 141.445466 187.30895 
L 141.750134 131.279176 
L 142.054803 131.605556 
L 142.664139 40.007298 
L 142.968808 23.478089 
L 143.273476 18.692213 
L 143.578144 20.467731 
L 143.882812 43.282716 
L 144.187481 85.343933 
L 144.492149 93.369515 
L 144.796817 151.969574 
L 145.101486 152.659554 
L 145.406154 171.152816 
L 145.710822 179.509045 
L 146.015491 204.178338 
L 146.624827 161.584694 
L 146.929496 107.393068 
L 147.234164 91.446588 
L 147.538832 48.326227 
L 147.8435 23.522826 
L 148.148169 43.788983 
L 148.452837 46.044887 
L 148.757505 61.505541 
L 149.366842 111.511818 
L 149.67151 155.196747 
L 149.976179 158.438542 
L 150.280847 167.198696 
L 150.585515 196.965867 
L 150.890184 188.983666 
L 151.49952 166.499859 
L 151.804188 104.617786 
L 152.108857 105.161807 
L 152.413525 83.804336 
L 152.718193 31.832801 
L 153.022862 46.867381 
L 153.32753 45.35828 
L 153.632198 65.264677 
L 153.936867 66.632191 
L 154.850871 156.684129 
L 155.15554 178.080169 
L 155.460208 212.919271 
L 155.764876 177.042633 
L 156.98355 110.071098 
L 157.288218 74.615904 
L 157.592886 65.754438 
L 157.897555 29.882897 
L 158.202223 18.533443 
L 158.506891 37.868138 
L 158.811559 78.061426 
L 159.116228 84.793258 
L 159.420896 136.940885 
L 160.030233 172.167018 
L 160.334901 191.035824 
L 160.639569 188.74724 
L 160.944238 200.463215 
L 162.467579 43.597938 
L 162.772247 27.164786 
L 163.076916 55.54158 
L 163.381584 32.835591 
L 163.990921 97.561529 
L 164.295589 111.174373 
L 164.904926 171.54211 
L 165.209594 179.768363 
L 165.514262 177.333662 
L 166.428267 137.000099 
L 167.342272 33.121102 
L 167.64694 42.149832 
L 167.951609 55.184629 
L 168.256277 27.846489 
L 168.560945 49.921829 
L 168.865613 109.679298 
L 169.170282 127.883114 
L 169.47495 165.840713 
L 169.779618 180.263135 
L 170.084287 211.859092 
L 170.388955 179.691243 
L 170.693623 180.457352 
L 170.998292 171.144842 
L 171.30296 152.795714 
L 171.607628 96.200593 
L 172.216965 66.919213 
L 172.521633 31.537292 
L 172.826301 46.956295 
L 173.13097 27.176797 
L 173.435638 62.927871 
L 173.740306 82.386529 
L 174.044975 138.41105 
L 174.349643 149.264886 
L 174.654311 194.774015 
L 174.95898 179.723705 
L 175.263648 176.47514 
L 175.568316 166.691357 
L 175.872984 185.488137 
L 176.177653 127.829902 
L 176.482321 117.110296 
L 176.786989 99.147014 
L 177.396326 24.16456 
L 177.700994 41.66471 
L 178.005663 33.151137 
L 178.919668 116.843387 
L 179.833672 208.454362 
L 180.138341 200.636387 
L 180.443009 181.767699 
L 180.747677 170.223605 
L 181.052346 145.772107 
L 181.661682 71.523443 
L 181.966351 73.247102 
L 182.271019 33.373236 
L 182.575687 33.60414 
L 182.880355 23.026201 
L 183.489692 76.679519 
L 183.79436 130.451076 
L 184.099029 148.259897 
L 184.403697 185.008581 
L 184.708365 194.008193 
L 185.013034 178.185108 
L 185.317702 174.104985 
L 185.62237 183.201956 
L 185.927039 132.925246 
L 186.231707 128.667849 
L 186.841043 54.969595 
L 187.145712 30.518225 
L 187.45038 20.776588 
L 188.364385 81.789249 
L 188.669053 115.02159 
L 188.973722 123.82511 
L 189.27839 153.631289 
L 189.583058 201.982596 
L 189.887727 198.91093 
L 190.801731 157.350783 
L 191.1064 136.077591 
L 191.715736 44.657725 
L 192.020405 60.456424 
L 192.325073 21.821302 
L 193.543746 118.516236 
L 193.848414 120.995481 
L 194.153083 180.764826 
L 194.457751 185.165941 
L 194.762419 176.583418 
L 195.067088 209.047552 
L 195.371756 193.426447 
L 195.676424 150.80824 
L 195.981093 135.938302 
L 196.285761 83.891309 
L 196.590429 56.480627 
L 196.895098 58.817298 
L 197.199766 45.065321 
L 197.504434 24.397471 
L 197.809102 69.064746 
L 198.113771 71.223575 
L 198.418439 92.974655 
L 198.723107 123.707875 
L 199.027776 169.36066 
L 199.637112 206.387741 
L 199.941781 190.954482 
L 200.246449 185.555775 
L 200.551117 161.349983 
L 201.160454 76.351702 
L 201.465122 83.979091 
L 202.074459 17.083636 
L 202.379127 29.578866 
L 202.683795 30.815984 
L 202.988464 91.309509 
L 203.5978 129.07093 
L 204.207137 189.443047 
L 204.511805 180.572883 
L 204.816473 180.884159 
L 205.42581 156.845195 
L 205.730478 139.424742 
L 206.035147 83.57066 
L 206.339815 74.270299 
L 206.644483 34.549815 
L 206.949152 20.16631 
L 207.25382 23.060111 
L 207.558488 62.783733 
L 207.863156 77.20373 
L 208.167825 109.038968 
L 208.472493 113.615133 
L 208.777161 163.310143 
L 209.08183 168.017229 
L 209.386498 203.299094 
L 209.691166 187.518488 
L 209.995835 165.329754 
L 210.300503 151.896433 
L 210.605171 120.615162 
L 210.90984 109.743186 
L 211.519176 48.677315 
L 211.823844 45.748298 
L 212.128513 31.538102 
L 212.433181 36.369779 
L 212.737849 54.999096 
L 213.042518 96.539983 
L 213.347186 106.727008 
L 213.956523 188.280917 
L 214.261191 185.970552 
L 214.565859 204.638241 
L 214.870527 192.805576 
L 215.175196 165.552113 
L 215.479864 121.532149 
L 215.784532 121.238542 
L 216.089201 94.526193 
L 216.393869 42.986366 
L 216.698537 42.972456 
L 217.003206 42.107314 
L 217.307874 40.371375 
L 217.612542 80.475812 
L 217.917211 76.143824 
L 218.221879 120.418235 
L 218.526547 143.335712 
L 219.135884 210.423418 
L 219.440552 208.499592 
L 219.74522 176.849038 
L 220.354557 158.389155 
L 220.963894 93.880521 
L 221.57323 33.114683 
L 221.877898 41.865251 
L 222.182567 36.519047 
L 222.487235 74.331368 
L 223.096572 108.114206 
L 223.705908 180.160985 
L 224.010577 184.98793 
L 224.315245 199.657272 
L 224.619913 198.460304 
L 224.924582 182.139987 
L 225.533918 110.438267 
L 226.447923 43.221369 
L 226.752591 28.654606 
L 227.05726 49.691586 
L 227.361928 53.101956 
L 227.666596 80.378878 
L 227.971265 130.183984 
L 228.275933 155.499914 
L 228.580601 165.96953 
L 228.88527 181.378721 
L 229.189938 181.79005 
L 229.494606 176.696107 
L 229.799274 162.551949 
L 230.103943 162.682432 
L 230.408611 110.999437 
L 230.713279 105.27443 
L 231.017948 42.889588 
L 231.322616 60.516853 
L 231.627284 33.519061 
L 231.931953 34.275638 
L 232.236621 36.109962 
L 233.150626 138.686838 
L 233.455294 150.093378 
L 234.064631 197.224895 
L 234.369299 188.568314 
L 234.673967 185.929547 
L 234.978636 135.298176 
L 235.283304 124.141782 
L 235.587972 74.450402 
L 235.892641 75.914226 
L 236.501977 30.811606 
L 236.806645 23.179519 
L 237.415982 83.593748 
L 237.72065 95.645193 
L 238.025319 157.106469 
L 238.329987 161.362981 
L 238.634655 197.817675 
L 238.939324 204.788518 
L 239.243992 197.996842 
L 239.54866 172.263724 
L 239.853328 161.04775 
L 240.462665 89.811884 
L 240.767333 70.610944 
L 241.072002 58.526878 
L 241.37667 38.847288 
L 241.681338 35.78444 
L 241.986007 43.750764 
L 242.290675 90.508023 
L 242.595343 107.785777 
L 242.900012 118.719464 
L 243.20468 144.783221 
L 243.509348 203.537941 
L 243.814016 177.804205 
L 244.118685 198.809334 
L 244.423353 166.125333 
L 244.728021 176.598438 
L 245.03269 145.817332 
L 245.642026 54.485832 
L 245.946695 45.797094 
L 246.251363 24.80314 
L 246.860699 57.054374 
L 248.079373 166.914432 
L 248.384041 177.750389 
L 248.688709 176.878803 
L 248.993378 177.531834 
L 249.298046 169.602203 
L 249.602714 154.353476 
L 249.907383 118.756047 
L 250.212051 116.601278 
L 250.516719 73.532767 
L 250.821387 55.025576 
L 251.126056 50.989815 
L 251.430724 18.185438 
L 251.735392 44.490616 
L 252.040061 48.921434 
L 252.344729 78.368632 
L 252.649397 131.062701 
L 252.954066 141.189879 
L 253.258734 198.843652 
L 253.563402 207.342052 
L 253.86807 197.931964 
L 254.172739 201.790865 
L 254.477407 156.51927 
L 254.782075 136.043916 
L 255.086744 84.822765 
L 255.69608 47.340729 
L 256.000749 44.828562 
L 256.305417 37.875012 
L 256.610085 44.439134 
L 256.914754 63.756021 
L 257.52409 126.717507 
L 257.828758 162.474451 
L 258.133427 171.032218 
L 258.742763 208.247322 
L 259.047432 203.459331 
L 259.656768 142.841667 
L 260.570773 60.374095 
L 260.875441 44.205651 
L 261.18011 21.105084 
L 261.789446 56.071359 
L 262.094115 107.455927 
L 262.398783 116.752129 
L 262.703451 133.781817 
L 263.00812 180.399977 
L 263.312788 185.783789 
L 263.617456 214.756364 
L 264.531461 144.0969 
L 264.836129 102.271614 
L 265.140798 98.246086 
L 265.445466 47.72563 
L 265.750134 37.057366 
L 266.054803 18.779518 
L 266.359471 38.220447 
L 266.664139 66.358787 
L 266.968808 67.61347 
L 267.273476 126.203071 
L 267.578144 159.79911 
L 267.882812 155.847527 
L 268.187481 195.375821 
L 268.492149 175.728361 
L 268.796817 191.289381 
L 269.101486 152.446481 
L 269.406154 152.238066 
L 270.015491 93.709447 
L 270.320159 48.539627 
L 270.624827 22.511896 
L 270.929496 30.075102 
L 271.234164 33.358709 
L 271.538832 71.259584 
L 271.8435 90.002847 
L 272.148169 130.911504 
L 272.452837 125.090971 
L 272.757505 187.569263 
L 273.062174 202.963389 
L 273.67151 192.632017 
L 273.976179 189.595324 
L 274.280847 132.555274 
L 275.194852 66.085923 
L 275.49952 46.722528 
L 275.804188 49.200718 
L 276.108857 35.384507 
L 276.413525 65.792427 
L 276.718193 68.2756 
L 277.022862 99.780249 
L 277.32753 160.927518 
L 277.632198 165.184804 
L 277.936867 179.383005 
L 278.241535 186.644375 
L 278.850871 173.362055 
L 279.460208 107.114343 
L 279.764876 108.077389 
L 280.069545 67.770684 
L 280.678881 24.24959 
L 280.98355 38.639306 
L 281.288218 67.864141 
L 281.592886 72.523934 
L 281.897555 115.166456 
L 282.202223 120.971287 
L 282.506891 160.058672 
L 282.811559 167.608818 
L 283.420896 207.454602 
L 283.725564 180.77443 
L 284.334901 115.532963 
L 284.639569 96.338642 
L 284.944238 58.968621 
L 285.248906 42.441122 
L 285.858242 31.248744 
L 286.162911 57.937607 
L 286.467579 59.055938 
L 286.772247 109.259986 
L 287.686252 190.425325 
L 287.990921 174.919889 
L 288.295589 184.118713 
L 288.600257 197.500104 
L 288.904926 148.50451 
L 289.209594 128.76655 
L 289.514262 78.292691 
L 289.81893 68.633976 
L 290.123599 33.459521 
L 290.428267 46.286978 
L 290.732935 52.515172 
L 291.037604 47.391314 
L 291.342272 53.052753 
L 291.64694 99.519519 
L 291.951609 127.190236 
L 292.256277 173.796473 
L 292.560945 187.661689 
L 292.865613 173.633019 
L 293.170282 180.900183 
L 293.47495 185.327827 
L 294.388955 114.65644 
L 294.693623 75.068327 
L 294.998292 54.867489 
L 295.30296 26.369487 
L 295.912297 40.44846 
L 296.216965 57.503928 
L 296.521633 89.434137 
L 296.826301 143.590197 
L 297.13097 137.437597 
L 297.435638 175.278565 
L 297.740306 183.907776 
L 298.044975 206.967066 
L 298.349643 197.930199 
L 298.95898 120.010439 
L 299.263648 94.683871 
L 299.568316 82.997418 
L 300.177653 22.183931 
L 300.482321 42.194416 
L 300.786989 51.514987 
L 301.091658 53.043524 
L 302.005663 172.426765 
L 302.310331 173.600759 
L 302.614999 184.756618 
L 302.919668 176.070312 
L 303.224336 185.975704 
L 303.529004 170.849653 
L 303.833672 133.668668 
L 304.138341 120.477337 
L 304.443009 96.673673 
L 304.747677 37.272475 
L 305.052346 49.181874 
L 305.357014 53.531796 
L 305.661682 32.760649 
L 305.966351 80.398018 
L 306.271019 92.769019 
L 306.575687 140.312752 
L 306.880355 167.337474 
L 307.185024 172.39436 
L 307.489692 184.55255 
L 307.79436 211.914878 
L 308.099029 205.670261 
L 308.403697 171.165011 
L 308.708365 149.716452 
L 309.013034 105.104971 
L 309.62237 61.672055 
L 309.927039 27.668541 
L 310.231707 23.6631 
L 310.536375 30.493315 
L 311.145712 76.499768 
L 311.45038 130.425393 
L 311.755048 140.572035 
L 312.059717 176.741239 
L 312.364385 196.200864 
L 312.669053 186.112065 
L 312.973722 200.926544 
L 313.27839 181.108053 
L 313.583058 133.367206 
L 313.887727 127.209481 
L 314.497063 51.223605 
L 314.801731 22.495391 
L 315.715736 72.533569 
L 316.020405 66.641771 
L 316.325073 127.648375 
L 316.629741 159.602631 
L 316.93441 157.820476 
L 317.239078 208.001603 
L 317.543746 186.627232 
L 317.848414 185.829245 
L 318.153083 174.854356 
L 318.457751 137.854004 
L 319.676424 58.810433 
L 319.981093 50.23072 
L 320.590429 68.526281 
L 321.504434 144.078507 
L 321.809102 150.082348 
L 322.418439 182.763794 
L 322.723107 172.98662 
L 323.027776 187.171744 
L 323.941781 97.578421 
L 324.246449 82.194213 
L 324.551117 24.096977 
L 324.855785 45.23181 
L 325.160454 23.730728 
L 325.465122 33.300475 
L 325.76979 93.22463 
L 326.074459 107.557694 
L 326.379127 140.841124 
L 326.683795 155.59952 
L 326.988464 187.540705 
L 327.293132 181.339822 
L 327.5978 199.026908 
L 327.902469 163.993933 
L 328.207137 159.42995 
L 329.42581 42.422466 
L 329.730478 28.632482 
L 330.339815 52.791183 
L 330.949152 113.520422 
L 331.25382 130.598172 
L 331.558488 173.436195 
L 331.863156 198.290381 
L 332.167825 187.507403 
L 332.472493 198.094041 
L 332.777161 182.826518 
L 333.386498 138.103967 
L 333.691166 82.973675 
L 333.995835 75.371345 
L 334.300503 35.802526 
L 334.605171 50.513485 
L 334.90984 21.611901 
L 335.214508 59.303514 
L 335.519176 60.305218 
L 335.823844 92.879159 
L 336.128513 140.516137 
L 336.433181 163.960183 
L 337.042518 184.138241 
L 337.347186 204.442496 
L 337.651854 195.194123 
L 337.956523 146.980683 
L 338.565859 115.356092 
L 338.870527 64.194365 
L 339.175196 37.722603 
L 339.479864 30.3665 
L 339.784532 50.210777 
L 340.089201 39.063589 
L 340.393869 78.994038 
L 341.003206 108.545023 
L 341.307874 165.252251 
L 341.612542 198.435856 
L 341.917211 192.171309 
L 342.221879 194.232834 
L 342.526547 168.116511 
L 342.831215 173.393629 
L 343.440552 101.219184 
L 343.74522 90.042235 
L 344.049889 69.763996 
L 344.354557 23.232524 
L 344.659225 26.343983 
L 344.963894 33.220603 
L 345.57323 107.659625 
L 345.877898 103.858136 
L 346.182567 161.173332 
L 346.487235 190.037559 
L 346.791903 194.94322 
L 347.096572 177.13793 
L 347.705908 180.771391 
L 348.010577 135.070961 
L 348.924582 60.307185 
L 349.22925 23.528493 
L 349.533918 20.686425 
L 349.838586 33.124887 
L 350.447923 104.801509 
L 350.752591 108.377277 
L 351.361928 157.414123 
L 351.971265 191.53806 
L 352.275933 188.996089 
L 352.580601 182.357033 
L 353.494606 62.556121 
L 353.799274 56.551052 
L 354.103943 46.023297 
L 354.713279 36.544538 
L 355.017948 73.384978 
L 355.322616 76.730753 
L 355.931953 132.624966 
L 356.541289 205.092567 
L 356.845957 182.776584 
L 357.150626 196.659561 
L 357.455294 182.57601 
L 357.759962 152.828046 
L 358.064631 97.890026 
L 358.064631 97.890026 
" clip-path="url(#p6c401b4cc9)" style="fill: none; stroke: #1f77b4; stroke-width: 1.5; stroke-linecap: square"/>
   </g>
   <g id="patch_3">
    <path d="M 38.482813 224.64 
L 38.482813 7.2 
" style="fill: none; stroke: #000000; stroke-width: 0.8; stroke-linejoin: miter; stroke-linecap: square"/>
   </g>
   <g id="patch_4">
    <path d="M 373.282813 224.64 
L 373.282813 7.2 
" style="fill: none; stroke: #000000; stroke-width: 0.8; stroke-linejoin: miter; stroke-linecap: square"/>
   </g>
   <g id="patch_5">
    <path d="M 38.482813 224.64 
L 373.282813 224.64 
" style="fill: none; stroke: #000000; stroke-width: 0.8; stroke-linejoin: miter; stroke-linecap: square"/>
   </g>
   <g id="patch_6">
    <path d="M 38.482813 7.2 
L 373.282813 7.2 
" style="fill: none; stroke: #000000; stroke-width: 0.8; stroke-linejoin: miter; stroke-linecap: square"/>
   </g>
  </g>
 </g>
 <defs>
  <clipPath id="p6c401b4cc9">
   <rect x="38.482813" y="7.2" width="334.8" height="217.44"/>
  </clipPath>
 </defs>
</svg>
