<?xml version="1.0" encoding="utf-8" standalone="no"?>
<!DOCTYPE svg PUBLIC "-//W3C//DTD SVG 1.1//EN"
  "http://www.w3.org/Graphics/SVG/1.1/DTD/svg11.dtd">
<svg height="248.518125pt" version="1.1" viewBox="0 0 386.845312 248.518125" width="386.845312pt" xmlns="http://www.w3.org/2000/svg" xmlns:xlink="http://www.w3.org/1999/xlink">
 <metadata>
  <rdf:RDF xmlns:cc="http://creativecommons.org/ns#" xmlns:dc="http://purl.org/dc/elements/1.1/" xmlns:rdf="http://www.w3.org/1999/02/22-rdf-syntax-ns#">
   <cc:Work>
    <dc:type rdf:resource="http://purl.org/dc/dcmitype/StillImage"/>
    <dc:date>2022-05-21T20:11:09.250997</dc:date>
    <dc:format>image/svg+xml</dc:format>
    <dc:creator>
     <cc:Agent>
      <dc:title>Matplotlib v3.4.3, https://matplotlib.org/</dc:title>
     </cc:Agent>
    </dc:creator>
   </cc:Work>
  </rdf:RDF>
 </metadata>
 <defs>
  <style type="text/css">*{stroke-linecap:butt;stroke-linejoin:round;}</style>
 </defs>
 <g id="figure_1">
  <g id="patch_1">
   <path d="M 0 248.518125 
L 386.845312 248.518125 
L 386.845312 0 
L 0 0 
z
" style="fill:none;"/>
  </g>
  <g id="axes_1">
   <g id="patch_2">
    <path d="M 44.845313 224.64 
L 379.645313 224.64 
L 379.645313 7.2 
L 44.845313 7.2 
z
" style="fill:#ffffff;"/>
   </g>
   <g id="matplotlib.axis_1">
    <g id="xtick_1">
     <g id="line2d_1">
      <defs>
       <path d="M 0 0 
L 0 3.5 
" id="m114f9517c4" style="stroke:#000000;stroke-width:0.8;"/>
      </defs>
      <g>
       <use style="stroke:#000000;stroke-width:0.8;" x="57.992993" xlink:href="#m114f9517c4" y="224.64"/>
      </g>
     </g>
     <g id="text_1">
      <!-- 0 -->
      <g transform="translate(54.811743 239.238437)scale(0.1 -0.1)">
       <defs>
        <path d="M 2034 4250 
Q 1547 4250 1301 3770 
Q 1056 3291 1056 2328 
Q 1056 1369 1301 889 
Q 1547 409 2034 409 
Q 2525 409 2770 889 
Q 3016 1369 3016 2328 
Q 3016 3291 2770 3770 
Q 2525 4250 2034 4250 
z
M 2034 4750 
Q 2819 4750 3233 4129 
Q 3647 3509 3647 2328 
Q 3647 1150 3233 529 
Q 2819 -91 2034 -91 
Q 1250 -91 836 529 
Q 422 1150 422 2328 
Q 422 3509 836 4129 
Q 1250 4750 2034 4750 
z
" id="DejaVuSans-30" transform="scale(0.015625)"/>
       </defs>
       <use xlink:href="#DejaVuSans-30"/>
      </g>
     </g>
    </g>
    <g id="xtick_2">
     <g id="line2d_2">
      <g>
       <use style="stroke:#000000;stroke-width:0.8;" x="99.403012" xlink:href="#m114f9517c4" y="224.64"/>
      </g>
     </g>
     <g id="text_2">
      <!-- 5 -->
      <g transform="translate(96.221762 239.238437)scale(0.1 -0.1)">
       <defs>
        <path d="M 691 4666 
L 3169 4666 
L 3169 4134 
L 1269 4134 
L 1269 2991 
Q 1406 3038 1543 3061 
Q 1681 3084 1819 3084 
Q 2600 3084 3056 2656 
Q 3513 2228 3513 1497 
Q 3513 744 3044 326 
Q 2575 -91 1722 -91 
Q 1428 -91 1123 -41 
Q 819 9 494 109 
L 494 744 
Q 775 591 1075 516 
Q 1375 441 1709 441 
Q 2250 441 2565 725 
Q 2881 1009 2881 1497 
Q 2881 1984 2565 2268 
Q 2250 2553 1709 2553 
Q 1456 2553 1204 2497 
Q 953 2441 691 2322 
L 691 4666 
z
" id="DejaVuSans-35" transform="scale(0.015625)"/>
       </defs>
       <use xlink:href="#DejaVuSans-35"/>
      </g>
     </g>
    </g>
    <g id="xtick_3">
     <g id="line2d_3">
      <g>
       <use style="stroke:#000000;stroke-width:0.8;" x="140.81303" xlink:href="#m114f9517c4" y="224.64"/>
      </g>
     </g>
     <g id="text_3">
      <!-- 10 -->
      <g transform="translate(134.45053 239.238437)scale(0.1 -0.1)">
       <defs>
        <path d="M 794 531 
L 1825 531 
L 1825 4091 
L 703 3866 
L 703 4441 
L 1819 4666 
L 2450 4666 
L 2450 531 
L 3481 531 
L 3481 0 
L 794 0 
L 794 531 
z
" id="DejaVuSans-31" transform="scale(0.015625)"/>
       </defs>
       <use xlink:href="#DejaVuSans-31"/>
       <use x="63.623047" xlink:href="#DejaVuSans-30"/>
      </g>
     </g>
    </g>
    <g id="xtick_4">
     <g id="line2d_4">
      <g>
       <use style="stroke:#000000;stroke-width:0.8;" x="182.223049" xlink:href="#m114f9517c4" y="224.64"/>
      </g>
     </g>
     <g id="text_4">
      <!-- 15 -->
      <g transform="translate(175.860549 239.238437)scale(0.1 -0.1)">
       <use xlink:href="#DejaVuSans-31"/>
       <use x="63.623047" xlink:href="#DejaVuSans-35"/>
      </g>
     </g>
    </g>
    <g id="xtick_5">
     <g id="line2d_5">
      <g>
       <use style="stroke:#000000;stroke-width:0.8;" x="223.633068" xlink:href="#m114f9517c4" y="224.64"/>
      </g>
     </g>
     <g id="text_5">
      <!-- 20 -->
      <g transform="translate(217.270568 239.238437)scale(0.1 -0.1)">
       <defs>
        <path d="M 1228 531 
L 3431 531 
L 3431 0 
L 469 0 
L 469 531 
Q 828 903 1448 1529 
Q 2069 2156 2228 2338 
Q 2531 2678 2651 2914 
Q 2772 3150 2772 3378 
Q 2772 3750 2511 3984 
Q 2250 4219 1831 4219 
Q 1534 4219 1204 4116 
Q 875 4013 500 3803 
L 500 4441 
Q 881 4594 1212 4672 
Q 1544 4750 1819 4750 
Q 2544 4750 2975 4387 
Q 3406 4025 3406 3419 
Q 3406 3131 3298 2873 
Q 3191 2616 2906 2266 
Q 2828 2175 2409 1742 
Q 1991 1309 1228 531 
z
" id="DejaVuSans-32" transform="scale(0.015625)"/>
       </defs>
       <use xlink:href="#DejaVuSans-32"/>
       <use x="63.623047" xlink:href="#DejaVuSans-30"/>
      </g>
     </g>
    </g>
    <g id="xtick_6">
     <g id="line2d_6">
      <g>
       <use style="stroke:#000000;stroke-width:0.8;" x="265.043086" xlink:href="#m114f9517c4" y="224.64"/>
      </g>
     </g>
     <g id="text_6">
      <!-- 25 -->
      <g transform="translate(258.680586 239.238437)scale(0.1 -0.1)">
       <use xlink:href="#DejaVuSans-32"/>
       <use x="63.623047" xlink:href="#DejaVuSans-35"/>
      </g>
     </g>
    </g>
    <g id="xtick_7">
     <g id="line2d_7">
      <g>
       <use style="stroke:#000000;stroke-width:0.8;" x="306.453105" xlink:href="#m114f9517c4" y="224.64"/>
      </g>
     </g>
     <g id="text_7">
      <!-- 30 -->
      <g transform="translate(300.090605 239.238437)scale(0.1 -0.1)">
       <defs>
        <path d="M 2597 2516 
Q 3050 2419 3304 2112 
Q 3559 1806 3559 1356 
Q 3559 666 3084 287 
Q 2609 -91 1734 -91 
Q 1441 -91 1130 -33 
Q 819 25 488 141 
L 488 750 
Q 750 597 1062 519 
Q 1375 441 1716 441 
Q 2309 441 2620 675 
Q 2931 909 2931 1356 
Q 2931 1769 2642 2001 
Q 2353 2234 1838 2234 
L 1294 2234 
L 1294 2753 
L 1863 2753 
Q 2328 2753 2575 2939 
Q 2822 3125 2822 3475 
Q 2822 3834 2567 4026 
Q 2313 4219 1838 4219 
Q 1578 4219 1281 4162 
Q 984 4106 628 3988 
L 628 4550 
Q 988 4650 1302 4700 
Q 1616 4750 1894 4750 
Q 2613 4750 3031 4423 
Q 3450 4097 3450 3541 
Q 3450 3153 3228 2886 
Q 3006 2619 2597 2516 
z
" id="DejaVuSans-33" transform="scale(0.015625)"/>
       </defs>
       <use xlink:href="#DejaVuSans-33"/>
       <use x="63.623047" xlink:href="#DejaVuSans-30"/>
      </g>
     </g>
    </g>
    <g id="xtick_8">
     <g id="line2d_8">
      <g>
       <use style="stroke:#000000;stroke-width:0.8;" x="347.863123" xlink:href="#m114f9517c4" y="224.64"/>
      </g>
     </g>
     <g id="text_8">
      <!-- 35 -->
      <g transform="translate(341.500623 239.238437)scale(0.1 -0.1)">
       <use xlink:href="#DejaVuSans-33"/>
       <use x="63.623047" xlink:href="#DejaVuSans-35"/>
      </g>
     </g>
    </g>
   </g>
   <g id="matplotlib.axis_2">
    <g id="ytick_1">
     <g id="line2d_9">
      <defs>
       <path d="M 0 0 
L -3.5 0 
" id="m89f8407d27" style="stroke:#000000;stroke-width:0.8;"/>
      </defs>
      <g>
       <use style="stroke:#000000;stroke-width:0.8;" x="44.845313" xlink:href="#m89f8407d27" y="214.722433"/>
      </g>
     </g>
     <g id="text_9">
      <!-- −0.05 -->
      <g transform="translate(7.2 218.521651)scale(0.1 -0.1)">
       <defs>
        <path d="M 678 2272 
L 4684 2272 
L 4684 1741 
L 678 1741 
L 678 2272 
z
" id="DejaVuSans-2212" transform="scale(0.015625)"/>
        <path d="M 684 794 
L 1344 794 
L 1344 0 
L 684 0 
L 684 794 
z
" id="DejaVuSans-2e" transform="scale(0.015625)"/>
       </defs>
       <use xlink:href="#DejaVuSans-2212"/>
       <use x="83.789062" xlink:href="#DejaVuSans-30"/>
       <use x="147.412109" xlink:href="#DejaVuSans-2e"/>
       <use x="179.199219" xlink:href="#DejaVuSans-30"/>
       <use x="242.822266" xlink:href="#DejaVuSans-35"/>
      </g>
     </g>
    </g>
    <g id="ytick_2">
     <g id="line2d_10">
      <g>
       <use style="stroke:#000000;stroke-width:0.8;" x="44.845313" xlink:href="#m89f8407d27" y="186.223182"/>
      </g>
     </g>
     <g id="text_10">
      <!-- 0.00 -->
      <g transform="translate(15.579688 190.022401)scale(0.1 -0.1)">
       <use xlink:href="#DejaVuSans-30"/>
       <use x="63.623047" xlink:href="#DejaVuSans-2e"/>
       <use x="95.410156" xlink:href="#DejaVuSans-30"/>
       <use x="159.033203" xlink:href="#DejaVuSans-30"/>
      </g>
     </g>
    </g>
    <g id="ytick_3">
     <g id="line2d_11">
      <g>
       <use style="stroke:#000000;stroke-width:0.8;" x="44.845313" xlink:href="#m89f8407d27" y="157.723932"/>
      </g>
     </g>
     <g id="text_11">
      <!-- 0.05 -->
      <g transform="translate(15.579688 161.523151)scale(0.1 -0.1)">
       <use xlink:href="#DejaVuSans-30"/>
       <use x="63.623047" xlink:href="#DejaVuSans-2e"/>
       <use x="95.410156" xlink:href="#DejaVuSans-30"/>
       <use x="159.033203" xlink:href="#DejaVuSans-35"/>
      </g>
     </g>
    </g>
    <g id="ytick_4">
     <g id="line2d_12">
      <g>
       <use style="stroke:#000000;stroke-width:0.8;" x="44.845313" xlink:href="#m89f8407d27" y="129.224682"/>
      </g>
     </g>
     <g id="text_12">
      <!-- 0.10 -->
      <g transform="translate(15.579688 133.023901)scale(0.1 -0.1)">
       <use xlink:href="#DejaVuSans-30"/>
       <use x="63.623047" xlink:href="#DejaVuSans-2e"/>
       <use x="95.410156" xlink:href="#DejaVuSans-31"/>
       <use x="159.033203" xlink:href="#DejaVuSans-30"/>
      </g>
     </g>
    </g>
    <g id="ytick_5">
     <g id="line2d_13">
      <g>
       <use style="stroke:#000000;stroke-width:0.8;" x="44.845313" xlink:href="#m89f8407d27" y="100.725432"/>
      </g>
     </g>
     <g id="text_13">
      <!-- 0.15 -->
      <g transform="translate(15.579688 104.52465)scale(0.1 -0.1)">
       <use xlink:href="#DejaVuSans-30"/>
       <use x="63.623047" xlink:href="#DejaVuSans-2e"/>
       <use x="95.410156" xlink:href="#DejaVuSans-31"/>
       <use x="159.033203" xlink:href="#DejaVuSans-35"/>
      </g>
     </g>
    </g>
    <g id="ytick_6">
     <g id="line2d_14">
      <g>
       <use style="stroke:#000000;stroke-width:0.8;" x="44.845313" xlink:href="#m89f8407d27" y="72.226181"/>
      </g>
     </g>
     <g id="text_14">
      <!-- 0.20 -->
      <g transform="translate(15.579688 76.0254)scale(0.1 -0.1)">
       <use xlink:href="#DejaVuSans-30"/>
       <use x="63.623047" xlink:href="#DejaVuSans-2e"/>
       <use x="95.410156" xlink:href="#DejaVuSans-32"/>
       <use x="159.033203" xlink:href="#DejaVuSans-30"/>
      </g>
     </g>
    </g>
    <g id="ytick_7">
     <g id="line2d_15">
      <g>
       <use style="stroke:#000000;stroke-width:0.8;" x="44.845313" xlink:href="#m89f8407d27" y="43.726931"/>
      </g>
     </g>
     <g id="text_15">
      <!-- 0.25 -->
      <g transform="translate(15.579688 47.52615)scale(0.1 -0.1)">
       <use xlink:href="#DejaVuSans-30"/>
       <use x="63.623047" xlink:href="#DejaVuSans-2e"/>
       <use x="95.410156" xlink:href="#DejaVuSans-32"/>
       <use x="159.033203" xlink:href="#DejaVuSans-35"/>
      </g>
     </g>
    </g>
    <g id="ytick_8">
     <g id="line2d_16">
      <g>
       <use style="stroke:#000000;stroke-width:0.8;" x="44.845313" xlink:href="#m89f8407d27" y="15.227681"/>
      </g>
     </g>
     <g id="text_16">
      <!-- 0.30 -->
      <g transform="translate(15.579688 19.0269)scale(0.1 -0.1)">
       <use xlink:href="#DejaVuSans-30"/>
       <use x="63.623047" xlink:href="#DejaVuSans-2e"/>
       <use x="95.410156" xlink:href="#DejaVuSans-33"/>
       <use x="159.033203" xlink:href="#DejaVuSans-30"/>
      </g>
     </g>
    </g>
   </g>
   <g id="line2d_17">
    <defs>
     <path d="M 0 3 
C 0.795609 3 1.55874 2.683901 2.12132 2.12132 
C 2.683901 1.55874 3 0.795609 3 0 
C 3 -0.795609 2.683901 -1.55874 2.12132 -2.12132 
C 1.55874 -2.683901 0.795609 -3 0 -3 
C -0.795609 -3 -1.55874 -2.683901 -2.12132 -2.12132 
C -2.683901 -1.55874 -3 -0.795609 -3 0 
C -3 0.795609 -2.683901 1.55874 -2.12132 2.12132 
C -1.55874 2.683901 -0.795609 3 0 3 
z
" id="ma423b3773d" style="stroke:#1f77b4;"/>
    </defs>
    <g clip-path="url(#p7a82058c1f)">
     <use style="fill:#1f77b4;stroke:#1f77b4;" x="60.063494" xlink:href="#ma423b3773d" y="17.083636"/>
     <use style="fill:#1f77b4;stroke:#1f77b4;" x="66.274997" xlink:href="#ma423b3773d" y="122.179597"/>
     <use style="fill:#1f77b4;stroke:#1f77b4;" x="72.4865" xlink:href="#ma423b3773d" y="178.85496"/>
     <use style="fill:#1f77b4;stroke:#1f77b4;" x="78.698003" xlink:href="#ma423b3773d" y="205.645381"/>
     <use style="fill:#1f77b4;stroke:#1f77b4;" x="84.909505" xlink:href="#ma423b3773d" y="214.756364"/>
     <use style="fill:#1f77b4;stroke:#1f77b4;" x="91.121008" xlink:href="#ma423b3773d" y="214.067195"/>
     <use style="fill:#1f77b4;stroke:#1f77b4;" x="97.332511" xlink:href="#ma423b3773d" y="208.533648"/>
     <use style="fill:#1f77b4;stroke:#1f77b4;" x="103.544014" xlink:href="#ma423b3773d" y="201.162786"/>
     <use style="fill:#1f77b4;stroke:#1f77b4;" x="109.755517" xlink:href="#ma423b3773d" y="193.684742"/>
     <use style="fill:#1f77b4;stroke:#1f77b4;" x="115.967019" xlink:href="#ma423b3773d" y="187.011124"/>
     <use style="fill:#1f77b4;stroke:#1f77b4;" x="122.178522" xlink:href="#ma423b3773d" y="181.544105"/>
     <use style="fill:#1f77b4;stroke:#1f77b4;" x="128.390025" xlink:href="#ma423b3773d" y="177.381835"/>
     <use style="fill:#1f77b4;stroke:#1f77b4;" x="134.601528" xlink:href="#ma423b3773d" y="174.452445"/>
     <use style="fill:#1f77b4;stroke:#1f77b4;" x="140.81303" xlink:href="#ma423b3773d" y="172.59941"/>
     <use style="fill:#1f77b4;stroke:#1f77b4;" x="147.024533" xlink:href="#ma423b3773d" y="171.634151"/>
     <use style="fill:#1f77b4;stroke:#1f77b4;" x="153.236036" xlink:href="#ma423b3773d" y="171.36694"/>
     <use style="fill:#1f77b4;stroke:#1f77b4;" x="159.447539" xlink:href="#ma423b3773d" y="171.623692"/>
     <use style="fill:#1f77b4;stroke:#1f77b4;" x="165.659042" xlink:href="#ma423b3773d" y="172.253828"/>
     <use style="fill:#1f77b4;stroke:#1f77b4;" x="171.870544" xlink:href="#ma423b3773d" y="173.132674"/>
     <use style="fill:#1f77b4;stroke:#1f77b4;" x="178.082047" xlink:href="#ma423b3773d" y="174.160702"/>
     <use style="fill:#1f77b4;stroke:#1f77b4;" x="184.29355" xlink:href="#ma423b3773d" y="175.261103"/>
     <use style="fill:#1f77b4;stroke:#1f77b4;" x="190.505053" xlink:href="#ma423b3773d" y="176.376628"/>
     <use style="fill:#1f77b4;stroke:#1f77b4;" x="196.716556" xlink:href="#ma423b3773d" y="177.46627"/>
     <use style="fill:#1f77b4;stroke:#1f77b4;" x="202.928058" xlink:href="#ma423b3773d" y="178.502103"/>
     <use style="fill:#1f77b4;stroke:#1f77b4;" x="209.139561" xlink:href="#ma423b3773d" y="179.466459"/>
     <use style="fill:#1f77b4;stroke:#1f77b4;" x="215.351064" xlink:href="#ma423b3773d" y="180.3495"/>
     <use style="fill:#1f77b4;stroke:#1f77b4;" x="221.562567" xlink:href="#ma423b3773d" y="181.147196"/>
     <use style="fill:#1f77b4;stroke:#1f77b4;" x="227.774069" xlink:href="#ma423b3773d" y="181.859692"/>
     <use style="fill:#1f77b4;stroke:#1f77b4;" x="233.985572" xlink:href="#ma423b3773d" y="182.490006"/>
     <use style="fill:#1f77b4;stroke:#1f77b4;" x="240.197075" xlink:href="#ma423b3773d" y="183.043026"/>
     <use style="fill:#1f77b4;stroke:#1f77b4;" x="246.408578" xlink:href="#ma423b3773d" y="183.524749"/>
     <use style="fill:#1f77b4;stroke:#1f77b4;" x="252.620081" xlink:href="#ma423b3773d" y="183.941715"/>
     <use style="fill:#1f77b4;stroke:#1f77b4;" x="258.831583" xlink:href="#ma423b3773d" y="184.300606"/>
     <use style="fill:#1f77b4;stroke:#1f77b4;" x="265.043086" xlink:href="#ma423b3773d" y="184.607959"/>
     <use style="fill:#1f77b4;stroke:#1f77b4;" x="271.254589" xlink:href="#ma423b3773d" y="184.869987"/>
     <use style="fill:#1f77b4;stroke:#1f77b4;" x="277.466092" xlink:href="#ma423b3773d" y="185.09246"/>
     <use style="fill:#1f77b4;stroke:#1f77b4;" x="283.677595" xlink:href="#ma423b3773d" y="185.280647"/>
     <use style="fill:#1f77b4;stroke:#1f77b4;" x="289.889097" xlink:href="#ma423b3773d" y="185.439288"/>
     <use style="fill:#1f77b4;stroke:#1f77b4;" x="296.1006" xlink:href="#ma423b3773d" y="185.572605"/>
     <use style="fill:#1f77b4;stroke:#1f77b4;" x="302.312103" xlink:href="#ma423b3773d" y="185.684318"/>
     <use style="fill:#1f77b4;stroke:#1f77b4;" x="308.523606" xlink:href="#ma423b3773d" y="185.777677"/>
     <use style="fill:#1f77b4;stroke:#1f77b4;" x="314.735108" xlink:href="#ma423b3773d" y="185.855506"/>
     <use style="fill:#1f77b4;stroke:#1f77b4;" x="320.946611" xlink:href="#ma423b3773d" y="185.920239"/>
     <use style="fill:#1f77b4;stroke:#1f77b4;" x="327.158114" xlink:href="#ma423b3773d" y="185.973963"/>
     <use style="fill:#1f77b4;stroke:#1f77b4;" x="333.369617" xlink:href="#ma423b3773d" y="186.018462"/>
     <use style="fill:#1f77b4;stroke:#1f77b4;" x="339.58112" xlink:href="#ma423b3773d" y="186.055249"/>
     <use style="fill:#1f77b4;stroke:#1f77b4;" x="345.792622" xlink:href="#ma423b3773d" y="186.085609"/>
     <use style="fill:#1f77b4;stroke:#1f77b4;" x="352.004125" xlink:href="#ma423b3773d" y="186.110621"/>
     <use style="fill:#1f77b4;stroke:#1f77b4;" x="358.215628" xlink:href="#ma423b3773d" y="186.131196"/>
     <use style="fill:#1f77b4;stroke:#1f77b4;" x="364.427131" xlink:href="#ma423b3773d" y="186.148096"/>
    </g>
   </g>
   <g id="patch_3">
    <path d="M 44.845313 224.64 
L 44.845313 7.2 
" style="fill:none;stroke:#000000;stroke-linecap:square;stroke-linejoin:miter;stroke-width:0.8;"/>
   </g>
   <g id="patch_4">
    <path d="M 379.645313 224.64 
L 379.645313 7.2 
" style="fill:none;stroke:#000000;stroke-linecap:square;stroke-linejoin:miter;stroke-width:0.8;"/>
   </g>
   <g id="patch_5">
    <path d="M 44.845313 224.64 
L 379.645313 224.64 
" style="fill:none;stroke:#000000;stroke-linecap:square;stroke-linejoin:miter;stroke-width:0.8;"/>
   </g>
   <g id="patch_6">
    <path d="M 44.845313 7.2 
L 379.645313 7.2 
" style="fill:none;stroke:#000000;stroke-linecap:square;stroke-linejoin:miter;stroke-width:0.8;"/>
   </g>
  </g>
 </g>
 <defs>
  <clipPath id="p7a82058c1f">
   <rect height="217.44" width="334.8" x="44.845313" y="7.2"/>
  </clipPath>
 </defs>
</svg>
