<?xml version="1.0" encoding="utf-8" standalone="no"?>
<!DOCTYPE svg PUBLIC "-//W3C//DTD SVG 1.1//EN"
  "http://www.w3.org/Graphics/SVG/1.1/DTD/svg11.dtd">
<svg height="262.19625pt" version="1.1" viewBox="0 0 389.1875 262.19625" width="389.1875pt" xmlns="http://www.w3.org/2000/svg" xmlns:xlink="http://www.w3.org/1999/xlink">
 <metadata>
  <rdf:RDF xmlns:cc="http://creativecommons.org/ns#" xmlns:dc="http://purl.org/dc/elements/1.1/" xmlns:rdf="http://www.w3.org/1999/02/22-rdf-syntax-ns#">
   <cc:Work>
    <dc:type rdf:resource="http://purl.org/dc/dcmitype/StillImage"/>
    <dc:date>2022-05-22T18:03:55.583153</dc:date>
    <dc:format>image/svg+xml</dc:format>
    <dc:creator>
     <cc:Agent>
      <dc:title>Matplotlib v3.4.3, https://matplotlib.org/</dc:title>
     </cc:Agent>
    </dc:creator>
   </cc:Work>
  </rdf:RDF>
 </metadata>
 <defs>
  <style type="text/css">*{stroke-linecap:butt;stroke-linejoin:round;}</style>
 </defs>
 <g id="figure_1">
  <g id="patch_1">
   <path d="M 0 262.19625 
L 389.1875 262.19625 
L 389.1875 0 
L 0 0 
z
" style="fill:none;"/>
  </g>
  <g id="axes_1">
   <g id="patch_2">
    <path d="M 47.1875 224.64 
L 381.9875 224.64 
L 381.9875 7.2 
L 47.1875 7.2 
z
" style="fill:#ffffff;"/>
   </g>
   <g id="PathCollection_1">
    <defs>
     <path d="M 0 3 
C 0.795609 3 1.55874 2.683901 2.12132 2.12132 
C 2.683901 1.55874 3 0.795609 3 0 
C 3 -0.795609 2.683901 -1.55874 2.12132 -2.12132 
C 1.55874 -2.683901 0.795609 -3 0 -3 
C -0.795609 -3 -1.55874 -2.683901 -2.12132 -2.12132 
C -2.683901 -1.55874 -3 -0.795609 -3 0 
C -3 0.795609 -2.683901 1.55874 -2.12132 2.12132 
C -1.55874 2.683901 -0.795609 3 0 3 
z
" id="m66639e9124" style="stroke:#1f77b4;stroke-opacity:0.8;"/>
    </defs>
    <g clip-path="url(#p89bd92fb8f)">
     <use style="fill:#1f77b4;fill-opacity:0.8;stroke:#1f77b4;stroke-opacity:0.8;" x="62.405682" xlink:href="#m66639e9124" y="165.842034"/>
     <use style="fill:#1f77b4;fill-opacity:0.8;stroke:#1f77b4;stroke-opacity:0.8;" x="93.282195" xlink:href="#m66639e9124" y="155.512309"/>
     <use style="fill:#1f77b4;fill-opacity:0.8;stroke:#1f77b4;stroke-opacity:0.8;" x="124.158709" xlink:href="#m66639e9124" y="139.620426"/>
     <use style="fill:#1f77b4;fill-opacity:0.8;stroke:#1f77b4;stroke-opacity:0.8;" x="155.013215" xlink:href="#m66639e9124" y="123.728542"/>
     <use style="fill:#1f77b4;fill-opacity:0.8;stroke:#1f77b4;stroke-opacity:0.8;" x="185.889728" xlink:href="#m66639e9124" y="107.042064"/>
     <use style="fill:#1f77b4;fill-opacity:0.8;stroke:#1f77b4;stroke-opacity:0.8;" x="216.766242" xlink:href="#m66639e9124" y="92.739369"/>
     <use style="fill:#1f77b4;fill-opacity:0.8;stroke:#1f77b4;stroke-opacity:0.8;" x="247.620748" xlink:href="#m66639e9124" y="77.642079"/>
     <use style="fill:#1f77b4;fill-opacity:0.8;stroke:#1f77b4;stroke-opacity:0.8;" x="278.497261" xlink:href="#m66639e9124" y="62.544789"/>
     <use style="fill:#1f77b4;fill-opacity:0.8;stroke:#1f77b4;stroke-opacity:0.8;" x="309.351767" xlink:href="#m66639e9124" y="49.036688"/>
     <use style="fill:#1f77b4;fill-opacity:0.8;stroke:#1f77b4;stroke-opacity:0.8;" x="340.228281" xlink:href="#m66639e9124" y="33.144804"/>
     <use style="fill:#1f77b4;fill-opacity:0.8;stroke:#1f77b4;stroke-opacity:0.8;" x="150.677739" xlink:href="#m66639e9124" y="188.885265"/>
     <use style="fill:#1f77b4;fill-opacity:0.8;stroke:#1f77b4;stroke-opacity:0.8;" x="181.554252" xlink:href="#m66639e9124" y="162.663657"/>
     <use style="fill:#1f77b4;fill-opacity:0.8;stroke:#1f77b4;stroke-opacity:0.8;" x="212.430766" xlink:href="#m66639e9124" y="139.620426"/>
     <use style="fill:#1f77b4;fill-opacity:0.8;stroke:#1f77b4;stroke-opacity:0.8;" x="243.285272" xlink:href="#m66639e9124" y="117.371788"/>
     <use style="fill:#1f77b4;fill-opacity:0.8;stroke:#1f77b4;stroke-opacity:0.8;" x="274.161785" xlink:href="#m66639e9124" y="97.506934"/>
     <use style="fill:#1f77b4;fill-opacity:0.8;stroke:#1f77b4;stroke-opacity:0.8;" x="305.038299" xlink:href="#m66639e9124" y="79.231267"/>
     <use style="fill:#1f77b4;fill-opacity:0.8;stroke:#1f77b4;stroke-opacity:0.8;" x="335.892805" xlink:href="#m66639e9124" y="61.750195"/>
     <use style="fill:#1f77b4;fill-opacity:0.8;stroke:#1f77b4;stroke-opacity:0.8;" x="366.769318" xlink:href="#m66639e9124" y="45.858311"/>
     <use style="fill:#1f77b4;fill-opacity:0.8;stroke:#1f77b4;stroke-opacity:0.8;" x="181.554252" xlink:href="#m66639e9124" y="167.431222"/>
     <use style="fill:#1f77b4;fill-opacity:0.8;stroke:#1f77b4;stroke-opacity:0.8;" x="243.285272" xlink:href="#m66639e9124" y="124.523136"/>
     <use style="fill:#1f77b4;fill-opacity:0.8;stroke:#1f77b4;stroke-opacity:0.8;" x="150.677739" xlink:href="#m66639e9124" y="195.242019"/>
     <use style="fill:#1f77b4;fill-opacity:0.8;stroke:#1f77b4;stroke-opacity:0.8;" x="212.430766" xlink:href="#m66639e9124" y="153.923121"/>
     <use style="fill:#1f77b4;fill-opacity:0.8;stroke:#1f77b4;stroke-opacity:0.8;" x="155.013215" xlink:href="#m66639e9124" y="131.674484"/>
     <use style="fill:#1f77b4;fill-opacity:0.8;stroke:#1f77b4;stroke-opacity:0.8;" x="155.013215" xlink:href="#m66639e9124" y="151.539338"/>
     <use style="fill:#1f77b4;fill-opacity:0.8;stroke:#1f77b4;stroke-opacity:0.8;" x="185.889728" xlink:href="#m66639e9124" y="113.398817"/>
     <use style="fill:#1f77b4;fill-opacity:0.8;stroke:#1f77b4;stroke-opacity:0.8;" x="216.766242" xlink:href="#m66639e9124" y="110.220441"/>
     <use style="fill:#1f77b4;fill-opacity:0.8;stroke:#1f77b4;stroke-opacity:0.8;" x="247.620748" xlink:href="#m66639e9124" y="106.24747"/>
     <use style="fill:#1f77b4;fill-opacity:0.8;stroke:#1f77b4;stroke-opacity:0.8;" x="199.006195" xlink:href="#m66639e9124" y="72.874514"/>
     <use style="fill:#1f77b4;fill-opacity:0.8;stroke:#1f77b4;stroke-opacity:0.8;" x="229.882708" xlink:href="#m66639e9124" y="56.98263"/>
     <use style="fill:#1f77b4;fill-opacity:0.8;stroke:#1f77b4;stroke-opacity:0.8;" x="291.613728" xlink:href="#m66639e9124" y="42.679935"/>
    </g>
   </g>
   <g id="PolyCollection_1">
    <path clip-path="url(#p89bd92fb8f)" d="M 62.405682 171.794578 
L 62.405682 214.756364 
L 65.480062 212.908449 
L 68.554442 211.060535 
L 71.628822 209.212621 
L 74.703202 207.363664 
L 77.777583 205.512369 
L 80.851963 203.610225 
L 83.926343 201.741529 
L 87.000723 199.892271 
L 90.075103 198.043012 
L 93.149483 196.193754 
L 96.223864 194.344495 
L 99.298244 192.494834 
L 102.372624 190.580438 
L 105.447004 188.574755 
L 108.521384 186.568789 
L 111.595764 184.562823 
L 114.670145 182.554489 
L 117.744525 180.545048 
L 120.818905 178.535607 
L 123.893285 176.706563 
L 126.967665 174.828976 
L 130.042045 172.798385 
L 133.116426 170.763546 
L 136.190806 168.728708 
L 139.265186 166.709768 
L 142.339566 164.76615 
L 145.413946 162.822533 
L 148.488326 160.996432 
L 151.562707 159.173056 
L 154.637087 157.144668 
L 157.711467 155.298056 
L 160.785847 153.538034 
L 163.860227 151.778013 
L 166.934607 150.071957 
L 170.008988 148.251948 
L 173.083368 146.4906 
L 176.157748 144.513252 
L 179.232128 142.949097 
L 182.306508 141.121182 
L 185.380888 139.382707 
L 188.455269 137.533993 
L 191.529649 135.803551 
L 194.604029 134.065333 
L 197.678409 132.290794 
L 200.752789 130.585061 
L 203.827169 128.848096 
L 206.90155 127.175409 
L 209.97593 125.471675 
L 213.05031 123.757664 
L 216.12469 122.007932 
L 219.19907 120.198527 
L 222.27345 118.396898 
L 225.347831 116.677432 
L 228.422211 115.002879 
L 231.496591 113.410554 
L 234.570971 111.873925 
L 237.645351 110.272406 
L 240.719731 108.718141 
L 243.794112 107.067316 
L 246.868492 105.576274 
L 249.942872 104.088377 
L 253.017252 102.537462 
L 256.091632 101.032152 
L 259.166012 99.439129 
L 262.240393 97.846928 
L 265.314773 96.241963 
L 268.389153 94.668652 
L 271.463533 93.228785 
L 274.537913 91.783222 
L 277.612293 90.342157 
L 280.686674 88.913517 
L 283.761054 87.49593 
L 286.835434 86.077149 
L 289.909814 84.658367 
L 292.984194 83.27163 
L 296.058574 81.786851 
L 299.132955 80.347324 
L 302.207335 78.918426 
L 305.281715 77.470434 
L 308.356095 76.046183 
L 311.430475 74.611724 
L 314.504855 73.307423 
L 317.579236 71.919746 
L 320.653616 70.575564 
L 323.727996 69.185325 
L 326.802376 67.803825 
L 329.876756 66.544002 
L 332.951136 65.197109 
L 336.025517 63.85436 
L 339.099897 62.509204 
L 342.174277 61.191202 
L 345.248657 59.934483 
L 348.323037 58.665063 
L 351.397417 57.392914 
L 354.471798 56.120765 
L 357.546178 54.848616 
L 360.620558 53.555275 
L 363.694938 52.244254 
L 366.769318 50.932423 
L 366.769318 17.083636 
L 366.769318 17.083636 
L 363.694938 19.111822 
L 360.620558 20.992248 
L 357.546178 22.837211 
L 354.471798 24.765433 
L 351.397417 26.691333 
L 348.323037 28.599353 
L 345.248657 30.522694 
L 342.174277 32.314731 
L 339.099897 34.321747 
L 336.025517 36.152081 
L 332.951136 37.979709 
L 329.876756 39.807336 
L 326.802376 41.638231 
L 323.727996 43.506886 
L 320.653616 45.487022 
L 317.579236 47.435846 
L 314.504855 49.288605 
L 311.430475 51.12458 
L 308.356095 52.913279 
L 305.281715 54.553519 
L 302.207335 56.425153 
L 299.132955 58.422536 
L 296.058574 60.228034 
L 292.984194 61.75894 
L 289.909814 63.836165 
L 286.835434 65.413047 
L 283.761054 67.127514 
L 280.686674 68.965693 
L 277.612293 70.777326 
L 274.537913 72.268968 
L 271.463533 73.956149 
L 268.389153 75.628258 
L 265.314773 77.424191 
L 262.240393 78.865003 
L 259.166012 80.642053 
L 256.091632 82.427459 
L 253.017252 84.10796 
L 249.942872 85.530991 
L 246.868492 86.96722 
L 243.794112 88.553273 
L 240.719731 90.293213 
L 237.645351 92.036508 
L 234.570971 93.752781 
L 231.496591 95.279066 
L 228.422211 96.770551 
L 225.347831 98.274142 
L 222.27345 99.738533 
L 219.19907 101.231453 
L 216.12469 102.710007 
L 213.05031 104.191712 
L 209.97593 105.503797 
L 206.90155 106.889644 
L 203.827169 108.45793 
L 200.752789 109.82481 
L 197.678409 111.186854 
L 194.604029 112.625999 
L 191.529649 114.026593 
L 188.455269 115.427187 
L 185.380888 116.827782 
L 182.306508 118.093952 
L 179.232128 119.559737 
L 176.157748 121.034053 
L 173.083368 122.511664 
L 170.008988 123.98483 
L 166.934607 125.404803 
L 163.860227 126.836172 
L 160.785847 128.167356 
L 157.711467 129.523749 
L 154.637087 130.847146 
L 151.562707 132.246873 
L 148.488326 133.648627 
L 145.413946 135.06139 
L 142.339566 136.44575 
L 139.265186 137.854618 
L 136.190806 139.255707 
L 133.116426 140.598675 
L 130.042045 141.981497 
L 126.967665 143.304445 
L 123.893285 144.583969 
L 120.818905 145.891819 
L 117.744525 147.215723 
L 114.670145 148.540844 
L 111.595764 149.880861 
L 108.521384 151.255706 
L 105.447004 152.516035 
L 102.372624 153.858613 
L 99.298244 155.279397 
L 96.223864 156.702926 
L 93.149483 158.126571 
L 90.075103 159.550216 
L 87.000723 160.973861 
L 83.926343 162.358856 
L 80.851963 163.650469 
L 77.777583 164.913268 
L 74.703202 166.244687 
L 71.628822 167.598307 
L 68.554442 169.019082 
L 65.480062 170.448773 
L 62.405682 171.794578 
z
" style="fill:#1f77b4;fill-opacity:0.15;"/>
   </g>
   <g id="matplotlib.axis_1">
    <g id="xtick_1">
     <g id="line2d_1">
      <defs>
       <path d="M 0 0 
L 0 3.5 
" id="m26178803ec" style="stroke:#000000;stroke-width:0.8;"/>
      </defs>
      <g>
       <use style="stroke:#000000;stroke-width:0.8;" x="79.923647" xlink:href="#m26178803ec" y="224.64"/>
      </g>
     </g>
     <g id="text_1">
      <!-- 40 -->
      <g transform="translate(73.561147 239.238438)scale(0.1 -0.1)">
       <defs>
        <path d="M 2419 4116 
L 825 1625 
L 2419 1625 
L 2419 4116 
z
M 2253 4666 
L 3047 4666 
L 3047 1625 
L 3713 1625 
L 3713 1100 
L 3047 1100 
L 3047 0 
L 2419 0 
L 2419 1100 
L 313 1100 
L 313 1709 
L 2253 4666 
z
" id="DejaVuSans-34" transform="scale(0.015625)"/>
        <path d="M 2034 4250 
Q 1547 4250 1301 3770 
Q 1056 3291 1056 2328 
Q 1056 1369 1301 889 
Q 1547 409 2034 409 
Q 2525 409 2770 889 
Q 3016 1369 3016 2328 
Q 3016 3291 2770 3770 
Q 2525 4250 2034 4250 
z
M 2034 4750 
Q 2819 4750 3233 4129 
Q 3647 3509 3647 2328 
Q 3647 1150 3233 529 
Q 2819 -91 2034 -91 
Q 1250 -91 836 529 
Q 422 1150 422 2328 
Q 422 3509 836 4129 
Q 1250 4750 2034 4750 
z
" id="DejaVuSans-30" transform="scale(0.015625)"/>
       </defs>
       <use xlink:href="#DejaVuSans-34"/>
       <use x="63.623047" xlink:href="#DejaVuSans-30"/>
      </g>
     </g>
    </g>
    <g id="xtick_2">
     <g id="line2d_2">
      <g>
       <use style="stroke:#000000;stroke-width:0.8;" x="123.938634" xlink:href="#m26178803ec" y="224.64"/>
      </g>
     </g>
     <g id="text_2">
      <!-- 60 -->
      <g transform="translate(117.576134 239.238438)scale(0.1 -0.1)">
       <defs>
        <path d="M 2113 2584 
Q 1688 2584 1439 2293 
Q 1191 2003 1191 1497 
Q 1191 994 1439 701 
Q 1688 409 2113 409 
Q 2538 409 2786 701 
Q 3034 994 3034 1497 
Q 3034 2003 2786 2293 
Q 2538 2584 2113 2584 
z
M 3366 4563 
L 3366 3988 
Q 3128 4100 2886 4159 
Q 2644 4219 2406 4219 
Q 1781 4219 1451 3797 
Q 1122 3375 1075 2522 
Q 1259 2794 1537 2939 
Q 1816 3084 2150 3084 
Q 2853 3084 3261 2657 
Q 3669 2231 3669 1497 
Q 3669 778 3244 343 
Q 2819 -91 2113 -91 
Q 1303 -91 875 529 
Q 447 1150 447 2328 
Q 447 3434 972 4092 
Q 1497 4750 2381 4750 
Q 2619 4750 2861 4703 
Q 3103 4656 3366 4563 
z
" id="DejaVuSans-36" transform="scale(0.015625)"/>
       </defs>
       <use xlink:href="#DejaVuSans-36"/>
       <use x="63.623047" xlink:href="#DejaVuSans-30"/>
      </g>
     </g>
    </g>
    <g id="xtick_3">
     <g id="line2d_3">
      <g>
       <use style="stroke:#000000;stroke-width:0.8;" x="167.953621" xlink:href="#m26178803ec" y="224.64"/>
      </g>
     </g>
     <g id="text_3">
      <!-- 80 -->
      <g transform="translate(161.591121 239.238438)scale(0.1 -0.1)">
       <defs>
        <path d="M 2034 2216 
Q 1584 2216 1326 1975 
Q 1069 1734 1069 1313 
Q 1069 891 1326 650 
Q 1584 409 2034 409 
Q 2484 409 2743 651 
Q 3003 894 3003 1313 
Q 3003 1734 2745 1975 
Q 2488 2216 2034 2216 
z
M 1403 2484 
Q 997 2584 770 2862 
Q 544 3141 544 3541 
Q 544 4100 942 4425 
Q 1341 4750 2034 4750 
Q 2731 4750 3128 4425 
Q 3525 4100 3525 3541 
Q 3525 3141 3298 2862 
Q 3072 2584 2669 2484 
Q 3125 2378 3379 2068 
Q 3634 1759 3634 1313 
Q 3634 634 3220 271 
Q 2806 -91 2034 -91 
Q 1263 -91 848 271 
Q 434 634 434 1313 
Q 434 1759 690 2068 
Q 947 2378 1403 2484 
z
M 1172 3481 
Q 1172 3119 1398 2916 
Q 1625 2713 2034 2713 
Q 2441 2713 2670 2916 
Q 2900 3119 2900 3481 
Q 2900 3844 2670 4047 
Q 2441 4250 2034 4250 
Q 1625 4250 1398 4047 
Q 1172 3844 1172 3481 
z
" id="DejaVuSans-38" transform="scale(0.015625)"/>
       </defs>
       <use xlink:href="#DejaVuSans-38"/>
       <use x="63.623047" xlink:href="#DejaVuSans-30"/>
      </g>
     </g>
    </g>
    <g id="xtick_4">
     <g id="line2d_4">
      <g>
       <use style="stroke:#000000;stroke-width:0.8;" x="211.968608" xlink:href="#m26178803ec" y="224.64"/>
      </g>
     </g>
     <g id="text_4">
      <!-- 100 -->
      <g transform="translate(202.424858 239.238438)scale(0.1 -0.1)">
       <defs>
        <path d="M 794 531 
L 1825 531 
L 1825 4091 
L 703 3866 
L 703 4441 
L 1819 4666 
L 2450 4666 
L 2450 531 
L 3481 531 
L 3481 0 
L 794 0 
L 794 531 
z
" id="DejaVuSans-31" transform="scale(0.015625)"/>
       </defs>
       <use xlink:href="#DejaVuSans-31"/>
       <use x="63.623047" xlink:href="#DejaVuSans-30"/>
       <use x="127.246094" xlink:href="#DejaVuSans-30"/>
      </g>
     </g>
    </g>
    <g id="xtick_5">
     <g id="line2d_5">
      <g>
       <use style="stroke:#000000;stroke-width:0.8;" x="255.983595" xlink:href="#m26178803ec" y="224.64"/>
      </g>
     </g>
     <g id="text_5">
      <!-- 120 -->
      <g transform="translate(246.439845 239.238438)scale(0.1 -0.1)">
       <defs>
        <path d="M 1228 531 
L 3431 531 
L 3431 0 
L 469 0 
L 469 531 
Q 828 903 1448 1529 
Q 2069 2156 2228 2338 
Q 2531 2678 2651 2914 
Q 2772 3150 2772 3378 
Q 2772 3750 2511 3984 
Q 2250 4219 1831 4219 
Q 1534 4219 1204 4116 
Q 875 4013 500 3803 
L 500 4441 
Q 881 4594 1212 4672 
Q 1544 4750 1819 4750 
Q 2544 4750 2975 4387 
Q 3406 4025 3406 3419 
Q 3406 3131 3298 2873 
Q 3191 2616 2906 2266 
Q 2828 2175 2409 1742 
Q 1991 1309 1228 531 
z
" id="DejaVuSans-32" transform="scale(0.015625)"/>
       </defs>
       <use xlink:href="#DejaVuSans-31"/>
       <use x="63.623047" xlink:href="#DejaVuSans-32"/>
       <use x="127.246094" xlink:href="#DejaVuSans-30"/>
      </g>
     </g>
    </g>
    <g id="xtick_6">
     <g id="line2d_6">
      <g>
       <use style="stroke:#000000;stroke-width:0.8;" x="299.998583" xlink:href="#m26178803ec" y="224.64"/>
      </g>
     </g>
     <g id="text_6">
      <!-- 140 -->
      <g transform="translate(290.454833 239.238438)scale(0.1 -0.1)">
       <use xlink:href="#DejaVuSans-31"/>
       <use x="63.623047" xlink:href="#DejaVuSans-34"/>
       <use x="127.246094" xlink:href="#DejaVuSans-30"/>
      </g>
     </g>
    </g>
    <g id="xtick_7">
     <g id="line2d_7">
      <g>
       <use style="stroke:#000000;stroke-width:0.8;" x="344.01357" xlink:href="#m26178803ec" y="224.64"/>
      </g>
     </g>
     <g id="text_7">
      <!-- 160 -->
      <g transform="translate(334.46982 239.238438)scale(0.1 -0.1)">
       <use xlink:href="#DejaVuSans-31"/>
       <use x="63.623047" xlink:href="#DejaVuSans-36"/>
       <use x="127.246094" xlink:href="#DejaVuSans-30"/>
      </g>
     </g>
    </g>
    <g id="text_8">
     <!-- MW, g/mol -->
     <g transform="translate(187.974219 252.916563)scale(0.1 -0.1)">
      <defs>
       <path d="M 628 4666 
L 1569 4666 
L 2759 1491 
L 3956 4666 
L 4897 4666 
L 4897 0 
L 4281 0 
L 4281 4097 
L 3078 897 
L 2444 897 
L 1241 4097 
L 1241 0 
L 628 0 
L 628 4666 
z
" id="DejaVuSans-4d" transform="scale(0.015625)"/>
       <path d="M 213 4666 
L 850 4666 
L 1831 722 
L 2809 4666 
L 3519 4666 
L 4500 722 
L 5478 4666 
L 6119 4666 
L 4947 0 
L 4153 0 
L 3169 4050 
L 2175 0 
L 1381 0 
L 213 4666 
z
" id="DejaVuSans-57" transform="scale(0.015625)"/>
       <path d="M 750 794 
L 1409 794 
L 1409 256 
L 897 -744 
L 494 -744 
L 750 256 
L 750 794 
z
" id="DejaVuSans-2c" transform="scale(0.015625)"/>
       <path id="DejaVuSans-20" transform="scale(0.015625)"/>
       <path d="M 2906 1791 
Q 2906 2416 2648 2759 
Q 2391 3103 1925 3103 
Q 1463 3103 1205 2759 
Q 947 2416 947 1791 
Q 947 1169 1205 825 
Q 1463 481 1925 481 
Q 2391 481 2648 825 
Q 2906 1169 2906 1791 
z
M 3481 434 
Q 3481 -459 3084 -895 
Q 2688 -1331 1869 -1331 
Q 1566 -1331 1297 -1286 
Q 1028 -1241 775 -1147 
L 775 -588 
Q 1028 -725 1275 -790 
Q 1522 -856 1778 -856 
Q 2344 -856 2625 -561 
Q 2906 -266 2906 331 
L 2906 616 
Q 2728 306 2450 153 
Q 2172 0 1784 0 
Q 1141 0 747 490 
Q 353 981 353 1791 
Q 353 2603 747 3093 
Q 1141 3584 1784 3584 
Q 2172 3584 2450 3431 
Q 2728 3278 2906 2969 
L 2906 3500 
L 3481 3500 
L 3481 434 
z
" id="DejaVuSans-67" transform="scale(0.015625)"/>
       <path d="M 1625 4666 
L 2156 4666 
L 531 -594 
L 0 -594 
L 1625 4666 
z
" id="DejaVuSans-2f" transform="scale(0.015625)"/>
       <path d="M 3328 2828 
Q 3544 3216 3844 3400 
Q 4144 3584 4550 3584 
Q 5097 3584 5394 3201 
Q 5691 2819 5691 2113 
L 5691 0 
L 5113 0 
L 5113 2094 
Q 5113 2597 4934 2840 
Q 4756 3084 4391 3084 
Q 3944 3084 3684 2787 
Q 3425 2491 3425 1978 
L 3425 0 
L 2847 0 
L 2847 2094 
Q 2847 2600 2669 2842 
Q 2491 3084 2119 3084 
Q 1678 3084 1418 2786 
Q 1159 2488 1159 1978 
L 1159 0 
L 581 0 
L 581 3500 
L 1159 3500 
L 1159 2956 
Q 1356 3278 1631 3431 
Q 1906 3584 2284 3584 
Q 2666 3584 2933 3390 
Q 3200 3197 3328 2828 
z
" id="DejaVuSans-6d" transform="scale(0.015625)"/>
       <path d="M 1959 3097 
Q 1497 3097 1228 2736 
Q 959 2375 959 1747 
Q 959 1119 1226 758 
Q 1494 397 1959 397 
Q 2419 397 2687 759 
Q 2956 1122 2956 1747 
Q 2956 2369 2687 2733 
Q 2419 3097 1959 3097 
z
M 1959 3584 
Q 2709 3584 3137 3096 
Q 3566 2609 3566 1747 
Q 3566 888 3137 398 
Q 2709 -91 1959 -91 
Q 1206 -91 779 398 
Q 353 888 353 1747 
Q 353 2609 779 3096 
Q 1206 3584 1959 3584 
z
" id="DejaVuSans-6f" transform="scale(0.015625)"/>
       <path d="M 603 4863 
L 1178 4863 
L 1178 0 
L 603 0 
L 603 4863 
z
" id="DejaVuSans-6c" transform="scale(0.015625)"/>
      </defs>
      <use xlink:href="#DejaVuSans-4d"/>
      <use x="86.279297" xlink:href="#DejaVuSans-57"/>
      <use x="185.15625" xlink:href="#DejaVuSans-2c"/>
      <use x="216.943359" xlink:href="#DejaVuSans-20"/>
      <use x="248.730469" xlink:href="#DejaVuSans-67"/>
      <use x="312.207031" xlink:href="#DejaVuSans-2f"/>
      <use x="345.898438" xlink:href="#DejaVuSans-6d"/>
      <use x="443.310547" xlink:href="#DejaVuSans-6f"/>
      <use x="504.492188" xlink:href="#DejaVuSans-6c"/>
     </g>
    </g>
   </g>
   <g id="matplotlib.axis_2">
    <g id="ytick_1">
     <g id="line2d_8">
      <defs>
       <path d="M 0 0 
L -3.5 0 
" id="mb26d2520f2" style="stroke:#000000;stroke-width:0.8;"/>
      </defs>
      <g>
       <use style="stroke:#000000;stroke-width:0.8;" x="47.1875" xlink:href="#mb26d2520f2" y="217.490656"/>
      </g>
     </g>
     <g id="text_9">
      <!-- 0 -->
      <g transform="translate(33.825 221.289875)scale(0.1 -0.1)">
       <use xlink:href="#DejaVuSans-30"/>
      </g>
     </g>
    </g>
    <g id="ytick_2">
     <g id="line2d_9">
      <g>
       <use style="stroke:#000000;stroke-width:0.8;" x="47.1875" xlink:href="#mb26d2520f2" y="177.760947"/>
      </g>
     </g>
     <g id="text_10">
      <!-- 50 -->
      <g transform="translate(27.4625 181.560165)scale(0.1 -0.1)">
       <defs>
        <path d="M 691 4666 
L 3169 4666 
L 3169 4134 
L 1269 4134 
L 1269 2991 
Q 1406 3038 1543 3061 
Q 1681 3084 1819 3084 
Q 2600 3084 3056 2656 
Q 3513 2228 3513 1497 
Q 3513 744 3044 326 
Q 2575 -91 1722 -91 
Q 1428 -91 1123 -41 
Q 819 9 494 109 
L 494 744 
Q 775 591 1075 516 
Q 1375 441 1709 441 
Q 2250 441 2565 725 
Q 2881 1009 2881 1497 
Q 2881 1984 2565 2268 
Q 2250 2553 1709 2553 
Q 1456 2553 1204 2497 
Q 953 2441 691 2322 
L 691 4666 
z
" id="DejaVuSans-35" transform="scale(0.015625)"/>
       </defs>
       <use xlink:href="#DejaVuSans-35"/>
       <use x="63.623047" xlink:href="#DejaVuSans-30"/>
      </g>
     </g>
    </g>
    <g id="ytick_3">
     <g id="line2d_10">
      <g>
       <use style="stroke:#000000;stroke-width:0.8;" x="47.1875" xlink:href="#mb26d2520f2" y="138.031237"/>
      </g>
     </g>
     <g id="text_11">
      <!-- 100 -->
      <g transform="translate(21.1 141.830456)scale(0.1 -0.1)">
       <use xlink:href="#DejaVuSans-31"/>
       <use x="63.623047" xlink:href="#DejaVuSans-30"/>
       <use x="127.246094" xlink:href="#DejaVuSans-30"/>
      </g>
     </g>
    </g>
    <g id="ytick_4">
     <g id="line2d_11">
      <g>
       <use style="stroke:#000000;stroke-width:0.8;" x="47.1875" xlink:href="#mb26d2520f2" y="98.301528"/>
      </g>
     </g>
     <g id="text_12">
      <!-- 150 -->
      <g transform="translate(21.1 102.100747)scale(0.1 -0.1)">
       <use xlink:href="#DejaVuSans-31"/>
       <use x="63.623047" xlink:href="#DejaVuSans-35"/>
       <use x="127.246094" xlink:href="#DejaVuSans-30"/>
      </g>
     </g>
    </g>
    <g id="ytick_5">
     <g id="line2d_12">
      <g>
       <use style="stroke:#000000;stroke-width:0.8;" x="47.1875" xlink:href="#mb26d2520f2" y="58.571818"/>
      </g>
     </g>
     <g id="text_13">
      <!-- 200 -->
      <g transform="translate(21.1 62.371037)scale(0.1 -0.1)">
       <use xlink:href="#DejaVuSans-32"/>
       <use x="63.623047" xlink:href="#DejaVuSans-30"/>
       <use x="127.246094" xlink:href="#DejaVuSans-30"/>
      </g>
     </g>
    </g>
    <g id="ytick_6">
     <g id="line2d_13">
      <g>
       <use style="stroke:#000000;stroke-width:0.8;" x="47.1875" xlink:href="#mb26d2520f2" y="18.842109"/>
      </g>
     </g>
     <g id="text_14">
      <!-- 250 -->
      <g transform="translate(21.1 22.641328)scale(0.1 -0.1)">
       <use xlink:href="#DejaVuSans-32"/>
       <use x="63.623047" xlink:href="#DejaVuSans-35"/>
       <use x="127.246094" xlink:href="#DejaVuSans-30"/>
      </g>
     </g>
    </g>
    <g id="text_15">
     <!-- bp, $^o$C -->
     <g transform="translate(15 131.27)rotate(-90)scale(0.1 -0.1)">
      <defs>
       <path d="M 3116 1747 
Q 3116 2381 2855 2742 
Q 2594 3103 2138 3103 
Q 1681 3103 1420 2742 
Q 1159 2381 1159 1747 
Q 1159 1113 1420 752 
Q 1681 391 2138 391 
Q 2594 391 2855 752 
Q 3116 1113 3116 1747 
z
M 1159 2969 
Q 1341 3281 1617 3432 
Q 1894 3584 2278 3584 
Q 2916 3584 3314 3078 
Q 3713 2572 3713 1747 
Q 3713 922 3314 415 
Q 2916 -91 2278 -91 
Q 1894 -91 1617 61 
Q 1341 213 1159 525 
L 1159 0 
L 581 0 
L 581 4863 
L 1159 4863 
L 1159 2969 
z
" id="DejaVuSans-62" transform="scale(0.015625)"/>
       <path d="M 1159 525 
L 1159 -1331 
L 581 -1331 
L 581 3500 
L 1159 3500 
L 1159 2969 
Q 1341 3281 1617 3432 
Q 1894 3584 2278 3584 
Q 2916 3584 3314 3078 
Q 3713 2572 3713 1747 
Q 3713 922 3314 415 
Q 2916 -91 2278 -91 
Q 1894 -91 1617 61 
Q 1341 213 1159 525 
z
M 3116 1747 
Q 3116 2381 2855 2742 
Q 2594 3103 2138 3103 
Q 1681 3103 1420 2742 
Q 1159 2381 1159 1747 
Q 1159 1113 1420 752 
Q 1681 391 2138 391 
Q 2594 391 2855 752 
Q 3116 1113 3116 1747 
z
" id="DejaVuSans-70" transform="scale(0.015625)"/>
       <path d="M 1625 -91 
Q 1009 -91 651 289 
Q 294 669 294 1325 
Q 294 1706 417 2101 
Q 541 2497 738 2766 
Q 1047 3184 1428 3384 
Q 1809 3584 2291 3584 
Q 2888 3584 3255 3212 
Q 3622 2841 3622 2241 
Q 3622 1825 3500 1412 
Q 3378 1000 3181 728 
Q 2875 309 2494 109 
Q 2113 -91 1625 -91 
z
M 891 1344 
Q 891 869 1089 633 
Q 1288 397 1691 397 
Q 2269 397 2648 901 
Q 3028 1406 3028 2181 
Q 3028 2634 2825 2865 
Q 2622 3097 2228 3097 
Q 1903 3097 1650 2945 
Q 1397 2794 1197 2484 
Q 1050 2253 970 1956 
Q 891 1659 891 1344 
z
" id="DejaVuSans-Oblique-6f" transform="scale(0.015625)"/>
       <path d="M 4122 4306 
L 4122 3641 
Q 3803 3938 3442 4084 
Q 3081 4231 2675 4231 
Q 1875 4231 1450 3742 
Q 1025 3253 1025 2328 
Q 1025 1406 1450 917 
Q 1875 428 2675 428 
Q 3081 428 3442 575 
Q 3803 722 4122 1019 
L 4122 359 
Q 3791 134 3420 21 
Q 3050 -91 2638 -91 
Q 1578 -91 968 557 
Q 359 1206 359 2328 
Q 359 3453 968 4101 
Q 1578 4750 2638 4750 
Q 3056 4750 3426 4639 
Q 3797 4528 4122 4306 
z
" id="DejaVuSans-43" transform="scale(0.015625)"/>
      </defs>
      <use transform="translate(0 0.51875)" xlink:href="#DejaVuSans-62"/>
      <use transform="translate(63.476562 0.51875)" xlink:href="#DejaVuSans-70"/>
      <use transform="translate(126.953125 0.51875)" xlink:href="#DejaVuSans-2c"/>
      <use transform="translate(158.740234 0.51875)" xlink:href="#DejaVuSans-20"/>
      <use transform="translate(191.484375 38.8)scale(0.7)" xlink:href="#DejaVuSans-Oblique-6f"/>
      <use transform="translate(237.045898 0.51875)" xlink:href="#DejaVuSans-43"/>
     </g>
    </g>
   </g>
   <g id="line2d_14">
    <path clip-path="url(#p89bd92fb8f)" d="M 62.405682 189.689448 
L 65.480062 188.136227 
L 68.554442 186.583005 
L 71.628822 185.029784 
L 74.703202 183.476563 
L 77.777583 181.923341 
L 80.851963 180.37012 
L 83.926343 178.816899 
L 87.000723 177.263677 
L 90.075103 175.710456 
L 93.149483 174.157235 
L 96.223864 172.604013 
L 99.298244 171.050792 
L 102.372624 169.497571 
L 105.447004 167.944349 
L 108.521384 166.391128 
L 111.595764 164.837907 
L 114.670145 163.284685 
L 117.744525 161.731464 
L 120.818905 160.178243 
L 123.893285 158.625021 
L 126.967665 157.0718 
L 130.042045 155.518579 
L 133.116426 153.965357 
L 136.190806 152.412136 
L 139.265186 150.858915 
L 142.339566 149.305693 
L 145.413946 147.752472 
L 148.488326 146.199251 
L 151.562707 144.646029 
L 154.637087 143.092808 
L 157.711467 141.539587 
L 160.785847 139.986365 
L 163.860227 138.433144 
L 166.934607 136.879923 
L 170.008988 135.326701 
L 173.083368 133.77348 
L 176.157748 132.220259 
L 179.232128 130.667037 
L 182.306508 129.113816 
L 185.380888 127.560595 
L 188.455269 126.007373 
L 191.529649 124.454152 
L 194.604029 122.900931 
L 197.678409 121.347709 
L 200.752789 119.794488 
L 203.827169 118.241267 
L 206.90155 116.688045 
L 209.97593 115.134824 
L 213.05031 113.581603 
L 216.12469 112.028381 
L 219.19907 110.47516 
L 222.27345 108.921939 
L 225.347831 107.368717 
L 228.422211 105.815496 
L 231.496591 104.262275 
L 234.570971 102.709053 
L 237.645351 101.155832 
L 240.719731 99.602611 
L 243.794112 98.049389 
L 246.868492 96.496168 
L 249.942872 94.942947 
L 253.017252 93.389725 
L 256.091632 91.836504 
L 259.166012 90.283283 
L 262.240393 88.730061 
L 265.314773 87.17684 
L 268.389153 85.623619 
L 271.463533 84.070397 
L 274.537913 82.517176 
L 277.612293 80.963955 
L 280.686674 79.410733 
L 283.761054 77.857512 
L 286.835434 76.304291 
L 289.909814 74.751069 
L 292.984194 73.197848 
L 296.058574 71.644627 
L 299.132955 70.091405 
L 302.207335 68.538184 
L 305.281715 66.984963 
L 308.356095 65.431741 
L 311.430475 63.87852 
L 314.504855 62.325299 
L 317.579236 60.772077 
L 320.653616 59.218856 
L 323.727996 57.665635 
L 326.802376 56.112413 
L 329.876756 54.559192 
L 332.951136 53.005971 
L 336.025517 51.452749 
L 339.099897 49.899528 
L 342.174277 48.346307 
L 345.248657 46.793085 
L 348.323037 45.239864 
L 351.397417 43.686643 
L 354.471798 42.133421 
L 357.546178 40.5802 
L 360.620558 39.026979 
L 363.694938 37.473757 
L 366.769318 35.920536 
" style="fill:none;stroke:#1f77b4;stroke-linecap:square;stroke-width:2.25;"/>
   </g>
   <g id="patch_3">
    <path d="M 47.1875 224.64 
L 47.1875 7.2 
" style="fill:none;stroke:#000000;stroke-linecap:square;stroke-linejoin:miter;stroke-width:0.8;"/>
   </g>
   <g id="patch_4">
    <path d="M 381.9875 224.64 
L 381.9875 7.2 
" style="fill:none;stroke:#000000;stroke-linecap:square;stroke-linejoin:miter;stroke-width:0.8;"/>
   </g>
   <g id="patch_5">
    <path d="M 47.1875 224.64 
L 381.9875 224.64 
" style="fill:none;stroke:#000000;stroke-linecap:square;stroke-linejoin:miter;stroke-width:0.8;"/>
   </g>
   <g id="patch_6">
    <path d="M 47.1875 7.2 
L 381.9875 7.2 
" style="fill:none;stroke:#000000;stroke-linecap:square;stroke-linejoin:miter;stroke-width:0.8;"/>
   </g>
  </g>
 </g>
 <defs>
  <clipPath id="p89bd92fb8f">
   <rect height="217.44" width="334.8" x="47.1875" y="7.2"/>
  </clipPath>
 </defs>
</svg>
