<?xml version="1.0" encoding="utf-8" standalone="no"?>
<!DOCTYPE svg PUBLIC "-//W3C//DTD SVG 1.1//EN"
  "http://www.w3.org/Graphics/SVG/1.1/DTD/svg11.dtd">
<svg xmlns:xlink="http://www.w3.org/1999/xlink" width="388.965625pt" height="262.19625pt" viewBox="0 0 388.965625 262.19625" xmlns="http://www.w3.org/2000/svg" version="1.1">
 <metadata>
  <rdf:RDF xmlns:dc="http://purl.org/dc/elements/1.1/" xmlns:cc="http://creativecommons.org/ns#" xmlns:rdf="http://www.w3.org/1999/02/22-rdf-syntax-ns#">
   <cc:Work>
    <dc:type rdf:resource="http://purl.org/dc/dcmitype/StillImage"/>
    <dc:date>2022-08-14T12:10:56.328067</dc:date>
    <dc:format>image/svg+xml</dc:format>
    <dc:creator>
     <cc:Agent>
      <dc:title>Matplotlib v3.5.2, https://matplotlib.org/</dc:title>
     </cc:Agent>
    </dc:creator>
   </cc:Work>
  </rdf:RDF>
 </metadata>
 <defs>
  <style type="text/css">*{stroke-linejoin: round; stroke-linecap: butt}</style>
 </defs>
 <g id="figure_1">
  <g id="patch_1">
   <path d="M -0 262.19625 
L 388.965625 262.19625 
L 388.965625 0 
L -0 0 
L -0 262.19625 
z
" style="fill: none"/>
  </g>
  <g id="axes_1">
   <g id="patch_2">
    <path d="M 46.965625 224.64 
L 381.765625 224.64 
L 381.765625 7.2 
L 46.965625 7.2 
z
" style="fill: #ffffff"/>
   </g>
   <g id="PathCollection_1">
    <defs>
     <path id="md4fa1d8d7e" d="M 0 3 
C 0.795609 3 1.55874 2.683901 2.12132 2.12132 
C 2.683901 1.55874 3 0.795609 3 0 
C 3 -0.795609 2.683901 -1.55874 2.12132 -2.12132 
C 1.55874 -2.683901 0.795609 -3 0 -3 
C -0.795609 -3 -1.55874 -2.683901 -2.12132 -2.12132 
C -2.683901 -1.55874 -3 -0.795609 -3 0 
C -3 0.795609 -2.683901 1.55874 -2.12132 2.12132 
C -1.55874 2.683901 -0.795609 3 0 3 
z
" style="stroke: #1f77b4; stroke-opacity: 0.8"/>
    </defs>
    <g clip-path="url(#p8dbae2bff9)">
     <use xlink:href="#md4fa1d8d7e" x="62.183807" y="163.549936" style="fill: #1f77b4; fill-opacity: 0.8; stroke: #1f77b4; stroke-opacity: 0.8"/>
     <use xlink:href="#md4fa1d8d7e" x="93.06032" y="153.358391" style="fill: #1f77b4; fill-opacity: 0.8; stroke: #1f77b4; stroke-opacity: 0.8"/>
     <use xlink:href="#md4fa1d8d7e" x="123.936834" y="137.679092" style="fill: #1f77b4; fill-opacity: 0.8; stroke: #1f77b4; stroke-opacity: 0.8"/>
     <use xlink:href="#md4fa1d8d7e" x="154.79134" y="121.999792" style="fill: #1f77b4; fill-opacity: 0.8; stroke: #1f77b4; stroke-opacity: 0.8"/>
     <use xlink:href="#md4fa1d8d7e" x="185.667853" y="105.536528" style="fill: #1f77b4; fill-opacity: 0.8; stroke: #1f77b4; stroke-opacity: 0.8"/>
     <use xlink:href="#md4fa1d8d7e" x="216.544367" y="91.425158" style="fill: #1f77b4; fill-opacity: 0.8; stroke: #1f77b4; stroke-opacity: 0.8"/>
     <use xlink:href="#md4fa1d8d7e" x="247.398873" y="76.529824" style="fill: #1f77b4; fill-opacity: 0.8; stroke: #1f77b4; stroke-opacity: 0.8"/>
     <use xlink:href="#md4fa1d8d7e" x="278.275386" y="61.63449" style="fill: #1f77b4; fill-opacity: 0.8; stroke: #1f77b4; stroke-opacity: 0.8"/>
     <use xlink:href="#md4fa1d8d7e" x="309.129892" y="48.307085" style="fill: #1f77b4; fill-opacity: 0.8; stroke: #1f77b4; stroke-opacity: 0.8"/>
     <use xlink:href="#md4fa1d8d7e" x="340.006406" y="32.627786" style="fill: #1f77b4; fill-opacity: 0.8; stroke: #1f77b4; stroke-opacity: 0.8"/>
     <use xlink:href="#md4fa1d8d7e" x="150.455864" y="186.28492" style="fill: #1f77b4; fill-opacity: 0.8; stroke: #1f77b4; stroke-opacity: 0.8"/>
     <use xlink:href="#md4fa1d8d7e" x="181.332377" y="160.414076" style="fill: #1f77b4; fill-opacity: 0.8; stroke: #1f77b4; stroke-opacity: 0.8"/>
     <use xlink:href="#md4fa1d8d7e" x="212.208891" y="137.679092" style="fill: #1f77b4; fill-opacity: 0.8; stroke: #1f77b4; stroke-opacity: 0.8"/>
     <use xlink:href="#md4fa1d8d7e" x="243.063397" y="115.728073" style="fill: #1f77b4; fill-opacity: 0.8; stroke: #1f77b4; stroke-opacity: 0.8"/>
     <use xlink:href="#md4fa1d8d7e" x="273.93991" y="96.128948" style="fill: #1f77b4; fill-opacity: 0.8; stroke: #1f77b4; stroke-opacity: 0.8"/>
     <use xlink:href="#md4fa1d8d7e" x="304.816424" y="78.097754" style="fill: #1f77b4; fill-opacity: 0.8; stroke: #1f77b4; stroke-opacity: 0.8"/>
     <use xlink:href="#md4fa1d8d7e" x="335.67093" y="60.850525" style="fill: #1f77b4; fill-opacity: 0.8; stroke: #1f77b4; stroke-opacity: 0.8"/>
     <use xlink:href="#md4fa1d8d7e" x="366.547443" y="45.171225" style="fill: #1f77b4; fill-opacity: 0.8; stroke: #1f77b4; stroke-opacity: 0.8"/>
     <use xlink:href="#md4fa1d8d7e" x="181.332377" y="165.117866" style="fill: #1f77b4; fill-opacity: 0.8; stroke: #1f77b4; stroke-opacity: 0.8"/>
     <use xlink:href="#md4fa1d8d7e" x="243.063397" y="122.783757" style="fill: #1f77b4; fill-opacity: 0.8; stroke: #1f77b4; stroke-opacity: 0.8"/>
     <use xlink:href="#md4fa1d8d7e" x="150.455864" y="192.55664" style="fill: #1f77b4; fill-opacity: 0.8; stroke: #1f77b4; stroke-opacity: 0.8"/>
     <use xlink:href="#md4fa1d8d7e" x="212.208891" y="151.790461" style="fill: #1f77b4; fill-opacity: 0.8; stroke: #1f77b4; stroke-opacity: 0.8"/>
     <use xlink:href="#md4fa1d8d7e" x="154.79134" y="129.839442" style="fill: #1f77b4; fill-opacity: 0.8; stroke: #1f77b4; stroke-opacity: 0.8"/>
     <use xlink:href="#md4fa1d8d7e" x="154.79134" y="149.438566" style="fill: #1f77b4; fill-opacity: 0.8; stroke: #1f77b4; stroke-opacity: 0.8"/>
     <use xlink:href="#md4fa1d8d7e" x="185.667853" y="111.808248" style="fill: #1f77b4; fill-opacity: 0.8; stroke: #1f77b4; stroke-opacity: 0.8"/>
     <use xlink:href="#md4fa1d8d7e" x="216.544367" y="108.672388" style="fill: #1f77b4; fill-opacity: 0.8; stroke: #1f77b4; stroke-opacity: 0.8"/>
     <use xlink:href="#md4fa1d8d7e" x="247.398873" y="104.752563" style="fill: #1f77b4; fill-opacity: 0.8; stroke: #1f77b4; stroke-opacity: 0.8"/>
     <use xlink:href="#md4fa1d8d7e" x="198.78432" y="71.826034" style="fill: #1f77b4; fill-opacity: 0.8; stroke: #1f77b4; stroke-opacity: 0.8"/>
     <use xlink:href="#md4fa1d8d7e" x="229.660833" y="56.146735" style="fill: #1f77b4; fill-opacity: 0.8; stroke: #1f77b4; stroke-opacity: 0.8"/>
     <use xlink:href="#md4fa1d8d7e" x="291.391853" y="42.035365" style="fill: #1f77b4; fill-opacity: 0.8; stroke: #1f77b4; stroke-opacity: 0.8"/>
    </g>
   </g>
   <g id="PolyCollection_1">
    <path d="M 62.183807 168.841465 
L 62.183807 214.756364 
L 65.258187 212.822151 
L 68.332567 210.885711 
L 71.406947 208.949271 
L 74.481327 207.012831 
L 77.555708 205.076391 
L 80.630088 203.075052 
L 83.704468 201.058487 
L 86.778848 199.041921 
L 89.853228 197.025356 
L 92.927608 195.171776 
L 96.001989 193.348813 
L 99.076369 191.52585 
L 102.150749 189.603942 
L 105.225129 187.672466 
L 108.299509 185.944467 
L 111.373889 184.203056 
L 114.44827 182.172082 
L 117.52265 180.138619 
L 120.59703 178.105157 
L 123.67141 176.072288 
L 126.74579 174.189124 
L 129.82017 172.313076 
L 132.894551 170.266054 
L 135.968931 168.332462 
L 139.043311 166.397403 
L 142.117691 164.523764 
L 145.192071 162.525963 
L 148.266451 160.592226 
L 151.340832 158.697264 
L 154.415212 156.812823 
L 157.489592 154.928383 
L 160.563972 153.102722 
L 163.638352 151.2872 
L 166.712732 149.471679 
L 169.787113 147.656158 
L 172.861493 145.83593 
L 175.935873 144.021106 
L 179.010253 142.200108 
L 182.084633 140.279015 
L 185.159013 138.450303 
L 188.233394 136.492168 
L 191.307774 134.554276 
L 194.382154 132.599259 
L 197.456534 130.689646 
L 200.530914 128.891365 
L 203.605294 126.897272 
L 206.679675 125.382959 
L 209.754055 123.580095 
L 212.828435 121.847977 
L 215.902815 120.077421 
L 218.977195 118.33448 
L 222.051575 116.761179 
L 225.125956 115.145975 
L 228.200336 113.402816 
L 231.274716 111.733626 
L 234.349096 110.260781 
L 237.423476 108.522278 
L 240.497856 106.885882 
L 243.572237 105.140108 
L 246.646617 103.582855 
L 249.720997 102.103755 
L 252.795377 100.520732 
L 255.869757 98.745934 
L 258.944137 97.00006 
L 262.018518 95.697833 
L 265.092898 94.209381 
L 268.167278 92.70053 
L 271.241658 91.372954 
L 274.316038 90.045578 
L 277.390418 88.742379 
L 280.464799 87.321235 
L 283.539179 86.065094 
L 286.613559 84.573094 
L 289.687939 83.070775 
L 292.762319 81.579372 
L 295.836699 80.285379 
L 298.91108 79.047995 
L 301.98546 77.744873 
L 305.05984 76.431204 
L 308.13422 75.122338 
L 311.2086 73.665333 
L 314.28298 72.284929 
L 317.357361 71.059918 
L 320.431741 69.671798 
L 323.506121 68.297784 
L 326.580501 66.825513 
L 329.654881 65.392847 
L 332.729261 64.185254 
L 335.803642 62.775797 
L 338.878022 61.433609 
L 341.952402 60.112971 
L 345.026782 58.792333 
L 348.101162 57.514562 
L 351.175542 56.260926 
L 354.249923 55.007289 
L 357.324303 53.753653 
L 360.398683 52.499725 
L 363.473063 51.242539 
L 366.547443 49.985354 
L 366.547443 17.083636 
L 366.547443 17.083636 
L 363.473063 18.929106 
L 360.398683 20.693174 
L 357.324303 22.460383 
L 354.249923 24.356415 
L 351.175542 26.30146 
L 348.101162 28.246506 
L 345.026782 30.193348 
L 341.952402 32.144281 
L 338.878022 34.065112 
L 335.803642 35.960069 
L 332.729261 38.00693 
L 329.654881 40.121733 
L 326.580501 41.937952 
L 323.506121 43.805982 
L 320.431741 45.61423 
L 317.357361 47.303977 
L 314.28298 49.184201 
L 311.2086 50.880559 
L 308.13422 52.664021 
L 305.05984 54.264074 
L 301.98546 56.023885 
L 298.91108 57.904026 
L 295.836699 59.626635 
L 292.762319 61.529491 
L 289.687939 63.357165 
L 286.613559 65.013677 
L 283.539179 66.583663 
L 280.464799 68.378781 
L 277.390418 69.977245 
L 274.316038 71.66158 
L 271.241658 73.534535 
L 268.167278 75.312674 
L 265.092898 76.879418 
L 262.018518 78.395223 
L 258.944137 80.016599 
L 255.869757 81.647211 
L 252.795377 83.259611 
L 249.720997 84.880186 
L 246.646617 86.4993 
L 243.572237 88.116702 
L 240.497856 89.597422 
L 237.423476 91.202285 
L 234.349096 92.556949 
L 231.274716 94.071921 
L 228.200336 95.575924 
L 225.125956 97.124793 
L 222.051575 98.553945 
L 218.977195 99.958751 
L 215.902815 101.312212 
L 212.828435 102.676417 
L 209.754055 104.216158 
L 206.679675 105.627569 
L 203.605294 107.004309 
L 200.530914 108.545487 
L 197.456534 110.088667 
L 194.382154 111.529704 
L 191.307774 112.91273 
L 188.233394 114.356453 
L 185.159013 115.756806 
L 182.084633 117.109937 
L 179.010253 118.604616 
L 175.935873 119.877495 
L 172.861493 121.219606 
L 169.787113 122.628724 
L 166.712732 124.029711 
L 163.638352 125.456441 
L 160.563972 126.883413 
L 157.489592 128.231487 
L 154.415212 129.492183 
L 151.340832 130.889303 
L 148.266451 132.245664 
L 145.192071 133.673837 
L 142.117691 134.979284 
L 139.043311 136.375565 
L 135.968931 137.811534 
L 132.894551 139.151526 
L 129.82017 140.327209 
L 126.74579 141.49243 
L 123.67141 142.736486 
L 120.59703 144.084158 
L 117.52265 145.433765 
L 114.44827 146.779795 
L 111.373889 148.130877 
L 108.299509 149.478596 
L 105.225129 150.828444 
L 102.150749 152.178291 
L 99.076369 153.528138 
L 96.001989 154.877986 
L 92.927608 156.265179 
L 89.853228 157.574604 
L 86.778848 158.825937 
L 83.704468 160.04483 
L 80.630088 161.299838 
L 77.555708 162.554846 
L 74.481327 163.809854 
L 71.406947 165.066169 
L 68.332567 166.324149 
L 65.258187 167.582796 
L 62.183807 168.841465 
z
" clip-path="url(#p8dbae2bff9)" style="fill: #1f77b4; fill-opacity: 0.15"/>
   </g>
   <g id="matplotlib.axis_1">
    <g id="xtick_1">
     <g id="line2d_1">
      <defs>
       <path id="m3db67c7763" d="M 0 0 
L 0 3.5 
" style="stroke: #000000; stroke-width: 0.8"/>
      </defs>
      <g>
       <use xlink:href="#m3db67c7763" x="79.701772" y="224.64" style="stroke: #000000; stroke-width: 0.8"/>
      </g>
     </g>
     <g id="text_1">
      <!-- 40 -->
      <g transform="translate(73.339272 239.238437)scale(0.1 -0.1)">
       <defs>
        <path id="DejaVuSans-34" d="M 2419 4116 
L 825 1625 
L 2419 1625 
L 2419 4116 
z
M 2253 4666 
L 3047 4666 
L 3047 1625 
L 3713 1625 
L 3713 1100 
L 3047 1100 
L 3047 0 
L 2419 0 
L 2419 1100 
L 313 1100 
L 313 1709 
L 2253 4666 
z
" transform="scale(0.015625)"/>
        <path id="DejaVuSans-30" d="M 2034 4250 
Q 1547 4250 1301 3770 
Q 1056 3291 1056 2328 
Q 1056 1369 1301 889 
Q 1547 409 2034 409 
Q 2525 409 2770 889 
Q 3016 1369 3016 2328 
Q 3016 3291 2770 3770 
Q 2525 4250 2034 4250 
z
M 2034 4750 
Q 2819 4750 3233 4129 
Q 3647 3509 3647 2328 
Q 3647 1150 3233 529 
Q 2819 -91 2034 -91 
Q 1250 -91 836 529 
Q 422 1150 422 2328 
Q 422 3509 836 4129 
Q 1250 4750 2034 4750 
z
" transform="scale(0.015625)"/>
       </defs>
       <use xlink:href="#DejaVuSans-34"/>
       <use xlink:href="#DejaVuSans-30" x="63.623047"/>
      </g>
     </g>
    </g>
    <g id="xtick_2">
     <g id="line2d_2">
      <g>
       <use xlink:href="#m3db67c7763" x="123.716759" y="224.64" style="stroke: #000000; stroke-width: 0.8"/>
      </g>
     </g>
     <g id="text_2">
      <!-- 60 -->
      <g transform="translate(117.354259 239.238437)scale(0.1 -0.1)">
       <defs>
        <path id="DejaVuSans-36" d="M 2113 2584 
Q 1688 2584 1439 2293 
Q 1191 2003 1191 1497 
Q 1191 994 1439 701 
Q 1688 409 2113 409 
Q 2538 409 2786 701 
Q 3034 994 3034 1497 
Q 3034 2003 2786 2293 
Q 2538 2584 2113 2584 
z
M 3366 4563 
L 3366 3988 
Q 3128 4100 2886 4159 
Q 2644 4219 2406 4219 
Q 1781 4219 1451 3797 
Q 1122 3375 1075 2522 
Q 1259 2794 1537 2939 
Q 1816 3084 2150 3084 
Q 2853 3084 3261 2657 
Q 3669 2231 3669 1497 
Q 3669 778 3244 343 
Q 2819 -91 2113 -91 
Q 1303 -91 875 529 
Q 447 1150 447 2328 
Q 447 3434 972 4092 
Q 1497 4750 2381 4750 
Q 2619 4750 2861 4703 
Q 3103 4656 3366 4563 
z
" transform="scale(0.015625)"/>
       </defs>
       <use xlink:href="#DejaVuSans-36"/>
       <use xlink:href="#DejaVuSans-30" x="63.623047"/>
      </g>
     </g>
    </g>
    <g id="xtick_3">
     <g id="line2d_3">
      <g>
       <use xlink:href="#m3db67c7763" x="167.731746" y="224.64" style="stroke: #000000; stroke-width: 0.8"/>
      </g>
     </g>
     <g id="text_3">
      <!-- 80 -->
      <g transform="translate(161.369246 239.238437)scale(0.1 -0.1)">
       <defs>
        <path id="DejaVuSans-38" d="M 2034 2216 
Q 1584 2216 1326 1975 
Q 1069 1734 1069 1313 
Q 1069 891 1326 650 
Q 1584 409 2034 409 
Q 2484 409 2743 651 
Q 3003 894 3003 1313 
Q 3003 1734 2745 1975 
Q 2488 2216 2034 2216 
z
M 1403 2484 
Q 997 2584 770 2862 
Q 544 3141 544 3541 
Q 544 4100 942 4425 
Q 1341 4750 2034 4750 
Q 2731 4750 3128 4425 
Q 3525 4100 3525 3541 
Q 3525 3141 3298 2862 
Q 3072 2584 2669 2484 
Q 3125 2378 3379 2068 
Q 3634 1759 3634 1313 
Q 3634 634 3220 271 
Q 2806 -91 2034 -91 
Q 1263 -91 848 271 
Q 434 634 434 1313 
Q 434 1759 690 2068 
Q 947 2378 1403 2484 
z
M 1172 3481 
Q 1172 3119 1398 2916 
Q 1625 2713 2034 2713 
Q 2441 2713 2670 2916 
Q 2900 3119 2900 3481 
Q 2900 3844 2670 4047 
Q 2441 4250 2034 4250 
Q 1625 4250 1398 4047 
Q 1172 3844 1172 3481 
z
" transform="scale(0.015625)"/>
       </defs>
       <use xlink:href="#DejaVuSans-38"/>
       <use xlink:href="#DejaVuSans-30" x="63.623047"/>
      </g>
     </g>
    </g>
    <g id="xtick_4">
     <g id="line2d_4">
      <g>
       <use xlink:href="#m3db67c7763" x="211.746733" y="224.64" style="stroke: #000000; stroke-width: 0.8"/>
      </g>
     </g>
     <g id="text_4">
      <!-- 100 -->
      <g transform="translate(202.202983 239.238437)scale(0.1 -0.1)">
       <defs>
        <path id="DejaVuSans-31" d="M 794 531 
L 1825 531 
L 1825 4091 
L 703 3866 
L 703 4441 
L 1819 4666 
L 2450 4666 
L 2450 531 
L 3481 531 
L 3481 0 
L 794 0 
L 794 531 
z
" transform="scale(0.015625)"/>
       </defs>
       <use xlink:href="#DejaVuSans-31"/>
       <use xlink:href="#DejaVuSans-30" x="63.623047"/>
       <use xlink:href="#DejaVuSans-30" x="127.246094"/>
      </g>
     </g>
    </g>
    <g id="xtick_5">
     <g id="line2d_5">
      <g>
       <use xlink:href="#m3db67c7763" x="255.76172" y="224.64" style="stroke: #000000; stroke-width: 0.8"/>
      </g>
     </g>
     <g id="text_5">
      <!-- 120 -->
      <g transform="translate(246.21797 239.238437)scale(0.1 -0.1)">
       <defs>
        <path id="DejaVuSans-32" d="M 1228 531 
L 3431 531 
L 3431 0 
L 469 0 
L 469 531 
Q 828 903 1448 1529 
Q 2069 2156 2228 2338 
Q 2531 2678 2651 2914 
Q 2772 3150 2772 3378 
Q 2772 3750 2511 3984 
Q 2250 4219 1831 4219 
Q 1534 4219 1204 4116 
Q 875 4013 500 3803 
L 500 4441 
Q 881 4594 1212 4672 
Q 1544 4750 1819 4750 
Q 2544 4750 2975 4387 
Q 3406 4025 3406 3419 
Q 3406 3131 3298 2873 
Q 3191 2616 2906 2266 
Q 2828 2175 2409 1742 
Q 1991 1309 1228 531 
z
" transform="scale(0.015625)"/>
       </defs>
       <use xlink:href="#DejaVuSans-31"/>
       <use xlink:href="#DejaVuSans-32" x="63.623047"/>
       <use xlink:href="#DejaVuSans-30" x="127.246094"/>
      </g>
     </g>
    </g>
    <g id="xtick_6">
     <g id="line2d_6">
      <g>
       <use xlink:href="#m3db67c7763" x="299.776708" y="224.64" style="stroke: #000000; stroke-width: 0.8"/>
      </g>
     </g>
     <g id="text_6">
      <!-- 140 -->
      <g transform="translate(290.232958 239.238437)scale(0.1 -0.1)">
       <use xlink:href="#DejaVuSans-31"/>
       <use xlink:href="#DejaVuSans-34" x="63.623047"/>
       <use xlink:href="#DejaVuSans-30" x="127.246094"/>
      </g>
     </g>
    </g>
    <g id="xtick_7">
     <g id="line2d_7">
      <g>
       <use xlink:href="#m3db67c7763" x="343.791695" y="224.64" style="stroke: #000000; stroke-width: 0.8"/>
      </g>
     </g>
     <g id="text_7">
      <!-- 160 -->
      <g transform="translate(334.247945 239.238437)scale(0.1 -0.1)">
       <use xlink:href="#DejaVuSans-31"/>
       <use xlink:href="#DejaVuSans-36" x="63.623047"/>
       <use xlink:href="#DejaVuSans-30" x="127.246094"/>
      </g>
     </g>
    </g>
    <g id="text_8">
     <!-- MW -->
     <g transform="translate(205.107813 252.916562)scale(0.1 -0.1)">
      <defs>
       <path id="DejaVuSans-4d" d="M 628 4666 
L 1569 4666 
L 2759 1491 
L 3956 4666 
L 4897 4666 
L 4897 0 
L 4281 0 
L 4281 4097 
L 3078 897 
L 2444 897 
L 1241 4097 
L 1241 0 
L 628 0 
L 628 4666 
z
" transform="scale(0.015625)"/>
       <path id="DejaVuSans-57" d="M 213 4666 
L 850 4666 
L 1831 722 
L 2809 4666 
L 3519 4666 
L 4500 722 
L 5478 4666 
L 6119 4666 
L 4947 0 
L 4153 0 
L 3169 4050 
L 2175 0 
L 1381 0 
L 213 4666 
z
" transform="scale(0.015625)"/>
      </defs>
      <use xlink:href="#DejaVuSans-4d"/>
      <use xlink:href="#DejaVuSans-57" x="86.279297"/>
     </g>
    </g>
   </g>
   <g id="matplotlib.axis_2">
    <g id="ytick_1">
     <g id="line2d_8">
      <defs>
       <path id="m0d49c233bc" d="M 0 0 
L -3.5 0 
" style="stroke: #000000; stroke-width: 0.8"/>
      </defs>
      <g>
       <use xlink:href="#m0d49c233bc" x="46.965625" y="214.507659" style="stroke: #000000; stroke-width: 0.8"/>
      </g>
     </g>
     <g id="text_9">
      <!-- 0 -->
      <g transform="translate(33.603125 218.306878)scale(0.1 -0.1)">
       <use xlink:href="#DejaVuSans-30"/>
      </g>
     </g>
    </g>
    <g id="ytick_2">
     <g id="line2d_9">
      <g>
       <use xlink:href="#m0d49c233bc" x="46.965625" y="175.30941" style="stroke: #000000; stroke-width: 0.8"/>
      </g>
     </g>
     <g id="text_10">
      <!-- 50 -->
      <g transform="translate(27.240625 179.108629)scale(0.1 -0.1)">
       <defs>
        <path id="DejaVuSans-35" d="M 691 4666 
L 3169 4666 
L 3169 4134 
L 1269 4134 
L 1269 2991 
Q 1406 3038 1543 3061 
Q 1681 3084 1819 3084 
Q 2600 3084 3056 2656 
Q 3513 2228 3513 1497 
Q 3513 744 3044 326 
Q 2575 -91 1722 -91 
Q 1428 -91 1123 -41 
Q 819 9 494 109 
L 494 744 
Q 775 591 1075 516 
Q 1375 441 1709 441 
Q 2250 441 2565 725 
Q 2881 1009 2881 1497 
Q 2881 1984 2565 2268 
Q 2250 2553 1709 2553 
Q 1456 2553 1204 2497 
Q 953 2441 691 2322 
L 691 4666 
z
" transform="scale(0.015625)"/>
       </defs>
       <use xlink:href="#DejaVuSans-35"/>
       <use xlink:href="#DejaVuSans-30" x="63.623047"/>
      </g>
     </g>
    </g>
    <g id="ytick_3">
     <g id="line2d_10">
      <g>
       <use xlink:href="#m0d49c233bc" x="46.965625" y="136.111162" style="stroke: #000000; stroke-width: 0.8"/>
      </g>
     </g>
     <g id="text_11">
      <!-- 100 -->
      <g transform="translate(20.878125 139.910381)scale(0.1 -0.1)">
       <use xlink:href="#DejaVuSans-31"/>
       <use xlink:href="#DejaVuSans-30" x="63.623047"/>
       <use xlink:href="#DejaVuSans-30" x="127.246094"/>
      </g>
     </g>
    </g>
    <g id="ytick_4">
     <g id="line2d_11">
      <g>
       <use xlink:href="#m0d49c233bc" x="46.965625" y="96.912913" style="stroke: #000000; stroke-width: 0.8"/>
      </g>
     </g>
     <g id="text_12">
      <!-- 150 -->
      <g transform="translate(20.878125 100.712132)scale(0.1 -0.1)">
       <use xlink:href="#DejaVuSans-31"/>
       <use xlink:href="#DejaVuSans-35" x="63.623047"/>
       <use xlink:href="#DejaVuSans-30" x="127.246094"/>
      </g>
     </g>
    </g>
    <g id="ytick_5">
     <g id="line2d_12">
      <g>
       <use xlink:href="#m0d49c233bc" x="46.965625" y="57.714665" style="stroke: #000000; stroke-width: 0.8"/>
      </g>
     </g>
     <g id="text_13">
      <!-- 200 -->
      <g transform="translate(20.878125 61.513883)scale(0.1 -0.1)">
       <use xlink:href="#DejaVuSans-32"/>
       <use xlink:href="#DejaVuSans-30" x="63.623047"/>
       <use xlink:href="#DejaVuSans-30" x="127.246094"/>
      </g>
     </g>
    </g>
    <g id="ytick_6">
     <g id="line2d_13">
      <g>
       <use xlink:href="#m0d49c233bc" x="46.965625" y="18.516416" style="stroke: #000000; stroke-width: 0.8"/>
      </g>
     </g>
     <g id="text_14">
      <!-- 250 -->
      <g transform="translate(20.878125 22.315635)scale(0.1 -0.1)">
       <use xlink:href="#DejaVuSans-32"/>
       <use xlink:href="#DejaVuSans-35" x="63.623047"/>
       <use xlink:href="#DejaVuSans-30" x="127.246094"/>
      </g>
     </g>
    </g>
    <g id="text_15">
     <!-- bp -->
     <g transform="translate(14.798438 122.268437)rotate(-90)scale(0.1 -0.1)">
      <defs>
       <path id="DejaVuSans-62" d="M 3116 1747 
Q 3116 2381 2855 2742 
Q 2594 3103 2138 3103 
Q 1681 3103 1420 2742 
Q 1159 2381 1159 1747 
Q 1159 1113 1420 752 
Q 1681 391 2138 391 
Q 2594 391 2855 752 
Q 3116 1113 3116 1747 
z
M 1159 2969 
Q 1341 3281 1617 3432 
Q 1894 3584 2278 3584 
Q 2916 3584 3314 3078 
Q 3713 2572 3713 1747 
Q 3713 922 3314 415 
Q 2916 -91 2278 -91 
Q 1894 -91 1617 61 
Q 1341 213 1159 525 
L 1159 0 
L 581 0 
L 581 4863 
L 1159 4863 
L 1159 2969 
z
" transform="scale(0.015625)"/>
       <path id="DejaVuSans-70" d="M 1159 525 
L 1159 -1331 
L 581 -1331 
L 581 3500 
L 1159 3500 
L 1159 2969 
Q 1341 3281 1617 3432 
Q 1894 3584 2278 3584 
Q 2916 3584 3314 3078 
Q 3713 2572 3713 1747 
Q 3713 922 3314 415 
Q 2916 -91 2278 -91 
Q 1894 -91 1617 61 
Q 1341 213 1159 525 
z
M 3116 1747 
Q 3116 2381 2855 2742 
Q 2594 3103 2138 3103 
Q 1681 3103 1420 2742 
Q 1159 2381 1159 1747 
Q 1159 1113 1420 752 
Q 1681 391 2138 391 
Q 2594 391 2855 752 
Q 3116 1113 3116 1747 
z
" transform="scale(0.015625)"/>
      </defs>
      <use xlink:href="#DejaVuSans-62"/>
      <use xlink:href="#DejaVuSans-70" x="63.476562"/>
     </g>
    </g>
   </g>
   <g id="line2d_14">
    <path d="M 62.183807 187.078345 
L 65.258187 185.545901 
L 68.332567 184.013457 
L 71.406947 182.481013 
L 74.481327 180.948569 
L 77.555708 179.416125 
L 80.630088 177.883681 
L 83.704468 176.351237 
L 86.778848 174.818793 
L 89.853228 173.286349 
L 92.927608 171.753905 
L 96.001989 170.221461 
L 99.076369 168.689017 
L 102.150749 167.156573 
L 105.225129 165.624129 
L 108.299509 164.091685 
L 111.373889 162.559241 
L 114.44827 161.026797 
L 117.52265 159.494353 
L 120.59703 157.961909 
L 123.67141 156.429465 
L 126.74579 154.897021 
L 129.82017 153.364576 
L 132.894551 151.832132 
L 135.968931 150.299688 
L 139.043311 148.767244 
L 142.117691 147.2348 
L 145.192071 145.702356 
L 148.266451 144.169912 
L 151.340832 142.637468 
L 154.415212 141.105024 
L 157.489592 139.57258 
L 160.563972 138.040136 
L 163.638352 136.507692 
L 166.712732 134.975248 
L 169.787113 133.442804 
L 172.861493 131.91036 
L 175.935873 130.377916 
L 179.010253 128.845472 
L 182.084633 127.313028 
L 185.159013 125.780584 
L 188.233394 124.24814 
L 191.307774 122.715696 
L 194.382154 121.183252 
L 197.456534 119.650808 
L 200.530914 118.118364 
L 203.605294 116.58592 
L 206.679675 115.053476 
L 209.754055 113.521032 
L 212.828435 111.988588 
L 215.902815 110.456144 
L 218.977195 108.9237 
L 222.051575 107.391256 
L 225.125956 105.858812 
L 228.200336 104.326368 
L 231.274716 102.793924 
L 234.349096 101.26148 
L 237.423476 99.729036 
L 240.497856 98.196592 
L 243.572237 96.664147 
L 246.646617 95.131703 
L 249.720997 93.599259 
L 252.795377 92.066815 
L 255.869757 90.534371 
L 258.944137 89.001927 
L 262.018518 87.469483 
L 265.092898 85.937039 
L 268.167278 84.404595 
L 271.241658 82.872151 
L 274.316038 81.339707 
L 277.390418 79.807263 
L 280.464799 78.274819 
L 283.539179 76.742375 
L 286.613559 75.209931 
L 289.687939 73.677487 
L 292.762319 72.145043 
L 295.836699 70.612599 
L 298.91108 69.080155 
L 301.98546 67.547711 
L 305.05984 66.015267 
L 308.13422 64.482823 
L 311.2086 62.950379 
L 314.28298 61.417935 
L 317.357361 59.885491 
L 320.431741 58.353047 
L 323.506121 56.820603 
L 326.580501 55.288159 
L 329.654881 53.755715 
L 332.729261 52.223271 
L 335.803642 50.690827 
L 338.878022 49.158383 
L 341.952402 47.625939 
L 345.026782 46.093495 
L 348.101162 44.561051 
L 351.175542 43.028607 
L 354.249923 41.496162 
L 357.324303 39.963718 
L 360.398683 38.431274 
L 363.473063 36.89883 
L 366.547443 35.366386 
" clip-path="url(#p8dbae2bff9)" style="fill: none; stroke: #1f77b4; stroke-width: 2.25; stroke-linecap: square"/>
   </g>
   <g id="patch_3">
    <path d="M 46.965625 224.64 
L 46.965625 7.2 
" style="fill: none; stroke: #000000; stroke-width: 0.8; stroke-linejoin: miter; stroke-linecap: square"/>
   </g>
   <g id="patch_4">
    <path d="M 381.765625 224.64 
L 381.765625 7.2 
" style="fill: none; stroke: #000000; stroke-width: 0.8; stroke-linejoin: miter; stroke-linecap: square"/>
   </g>
   <g id="patch_5">
    <path d="M 46.965625 224.64 
L 381.765625 224.64 
" style="fill: none; stroke: #000000; stroke-width: 0.8; stroke-linejoin: miter; stroke-linecap: square"/>
   </g>
   <g id="patch_6">
    <path d="M 46.965625 7.2 
L 381.765625 7.2 
" style="fill: none; stroke: #000000; stroke-width: 0.8; stroke-linejoin: miter; stroke-linecap: square"/>
   </g>
  </g>
 </g>
 <defs>
  <clipPath id="p8dbae2bff9">
   <rect x="46.965625" y="7.2" width="334.8" height="217.44"/>
  </clipPath>
 </defs>
</svg>
