<?xml version="1.0" encoding="utf-8" standalone="no"?>
<!DOCTYPE svg PUBLIC "-//W3C//DTD SVG 1.1//EN"
  "http://www.w3.org/Graphics/SVG/1.1/DTD/svg11.dtd">
<svg xmlns:xlink="http://www.w3.org/1999/xlink" width="384.83125pt" height="262.19625pt" viewBox="0 0 384.83125 262.19625" xmlns="http://www.w3.org/2000/svg" version="1.1">
 <metadata>
  <rdf:RDF xmlns:dc="http://purl.org/dc/elements/1.1/" xmlns:cc="http://creativecommons.org/ns#" xmlns:rdf="http://www.w3.org/1999/02/22-rdf-syntax-ns#">
   <cc:Work>
    <dc:type rdf:resource="http://purl.org/dc/dcmitype/StillImage"/>
    <dc:date>2022-06-03T15:12:33.292217</dc:date>
    <dc:format>image/svg+xml</dc:format>
    <dc:creator>
     <cc:Agent>
      <dc:title>Matplotlib v3.5.2, https://matplotlib.org/</dc:title>
     </cc:Agent>
    </dc:creator>
   </cc:Work>
  </rdf:RDF>
 </metadata>
 <defs>
  <style type="text/css">*{stroke-linejoin: round; stroke-linecap: butt}</style>
 </defs>
 <g id="figure_1">
  <g id="patch_1">
   <path d="M 0 262.19625 
L 384.83125 262.19625 
L 384.83125 0 
L 0 0 
L 0 262.19625 
z
" style="fill: none"/>
  </g>
  <g id="axes_1">
   <g id="patch_2">
    <path d="M 33.2875 224.64 
L 368.0875 224.64 
L 368.0875 7.2 
L 33.2875 7.2 
z
" style="fill: #ffffff"/>
   </g>
   <g id="matplotlib.axis_1">
    <g id="xtick_1">
     <g id="line2d_1">
      <defs>
       <path id="mc0ce025d12" d="M 0 0 
L 0 3.5 
" style="stroke: #000000; stroke-width: 0.8"/>
      </defs>
      <g>
       <use xlink:href="#mc0ce025d12" x="33.2875" y="224.64" style="stroke: #000000; stroke-width: 0.8"/>
      </g>
     </g>
     <g id="text_1">
      <!-- 0 -->
      <g transform="translate(30.10625 239.238437)scale(0.1 -0.1)">
       <defs>
        <path id="DejaVuSans-30" d="M 2034 4250 
Q 1547 4250 1301 3770 
Q 1056 3291 1056 2328 
Q 1056 1369 1301 889 
Q 1547 409 2034 409 
Q 2525 409 2770 889 
Q 3016 1369 3016 2328 
Q 3016 3291 2770 3770 
Q 2525 4250 2034 4250 
z
M 2034 4750 
Q 2819 4750 3233 4129 
Q 3647 3509 3647 2328 
Q 3647 1150 3233 529 
Q 2819 -91 2034 -91 
Q 1250 -91 836 529 
Q 422 1150 422 2328 
Q 422 3509 836 4129 
Q 1250 4750 2034 4750 
z
" transform="scale(0.015625)"/>
       </defs>
       <use xlink:href="#DejaVuSans-30"/>
      </g>
     </g>
    </g>
    <g id="xtick_2">
     <g id="line2d_2">
      <g>
       <use xlink:href="#mc0ce025d12" x="100.2475" y="224.64" style="stroke: #000000; stroke-width: 0.8"/>
      </g>
     </g>
     <g id="text_2">
      <!-- 50 -->
      <g transform="translate(93.885 239.238437)scale(0.1 -0.1)">
       <defs>
        <path id="DejaVuSans-35" d="M 691 4666 
L 3169 4666 
L 3169 4134 
L 1269 4134 
L 1269 2991 
Q 1406 3038 1543 3061 
Q 1681 3084 1819 3084 
Q 2600 3084 3056 2656 
Q 3513 2228 3513 1497 
Q 3513 744 3044 326 
Q 2575 -91 1722 -91 
Q 1428 -91 1123 -41 
Q 819 9 494 109 
L 494 744 
Q 775 591 1075 516 
Q 1375 441 1709 441 
Q 2250 441 2565 725 
Q 2881 1009 2881 1497 
Q 2881 1984 2565 2268 
Q 2250 2553 1709 2553 
Q 1456 2553 1204 2497 
Q 953 2441 691 2322 
L 691 4666 
z
" transform="scale(0.015625)"/>
       </defs>
       <use xlink:href="#DejaVuSans-35"/>
       <use xlink:href="#DejaVuSans-30" x="63.623047"/>
      </g>
     </g>
    </g>
    <g id="xtick_3">
     <g id="line2d_3">
      <g>
       <use xlink:href="#mc0ce025d12" x="167.2075" y="224.64" style="stroke: #000000; stroke-width: 0.8"/>
      </g>
     </g>
     <g id="text_3">
      <!-- 100 -->
      <g transform="translate(157.66375 239.238437)scale(0.1 -0.1)">
       <defs>
        <path id="DejaVuSans-31" d="M 794 531 
L 1825 531 
L 1825 4091 
L 703 3866 
L 703 4441 
L 1819 4666 
L 2450 4666 
L 2450 531 
L 3481 531 
L 3481 0 
L 794 0 
L 794 531 
z
" transform="scale(0.015625)"/>
       </defs>
       <use xlink:href="#DejaVuSans-31"/>
       <use xlink:href="#DejaVuSans-30" x="63.623047"/>
       <use xlink:href="#DejaVuSans-30" x="127.246094"/>
      </g>
     </g>
    </g>
    <g id="xtick_4">
     <g id="line2d_4">
      <g>
       <use xlink:href="#mc0ce025d12" x="234.1675" y="224.64" style="stroke: #000000; stroke-width: 0.8"/>
      </g>
     </g>
     <g id="text_4">
      <!-- 150 -->
      <g transform="translate(224.62375 239.238437)scale(0.1 -0.1)">
       <use xlink:href="#DejaVuSans-31"/>
       <use xlink:href="#DejaVuSans-35" x="63.623047"/>
       <use xlink:href="#DejaVuSans-30" x="127.246094"/>
      </g>
     </g>
    </g>
    <g id="xtick_5">
     <g id="line2d_5">
      <g>
       <use xlink:href="#mc0ce025d12" x="301.1275" y="224.64" style="stroke: #000000; stroke-width: 0.8"/>
      </g>
     </g>
     <g id="text_5">
      <!-- 200 -->
      <g transform="translate(291.58375 239.238437)scale(0.1 -0.1)">
       <defs>
        <path id="DejaVuSans-32" d="M 1228 531 
L 3431 531 
L 3431 0 
L 469 0 
L 469 531 
Q 828 903 1448 1529 
Q 2069 2156 2228 2338 
Q 2531 2678 2651 2914 
Q 2772 3150 2772 3378 
Q 2772 3750 2511 3984 
Q 2250 4219 1831 4219 
Q 1534 4219 1204 4116 
Q 875 4013 500 3803 
L 500 4441 
Q 881 4594 1212 4672 
Q 1544 4750 1819 4750 
Q 2544 4750 2975 4387 
Q 3406 4025 3406 3419 
Q 3406 3131 3298 2873 
Q 3191 2616 2906 2266 
Q 2828 2175 2409 1742 
Q 1991 1309 1228 531 
z
" transform="scale(0.015625)"/>
       </defs>
       <use xlink:href="#DejaVuSans-32"/>
       <use xlink:href="#DejaVuSans-30" x="63.623047"/>
       <use xlink:href="#DejaVuSans-30" x="127.246094"/>
      </g>
     </g>
    </g>
    <g id="xtick_6">
     <g id="line2d_6">
      <g>
       <use xlink:href="#mc0ce025d12" x="368.0875" y="224.64" style="stroke: #000000; stroke-width: 0.8"/>
      </g>
     </g>
     <g id="text_6">
      <!-- 250 -->
      <g transform="translate(358.54375 239.238437)scale(0.1 -0.1)">
       <use xlink:href="#DejaVuSans-32"/>
       <use xlink:href="#DejaVuSans-35" x="63.623047"/>
       <use xlink:href="#DejaVuSans-30" x="127.246094"/>
      </g>
     </g>
    </g>
    <g id="text_7">
     <!-- Frequency, Hz -->
     <g transform="translate(165.295312 252.916562)scale(0.1 -0.1)">
      <defs>
       <path id="DejaVuSans-46" d="M 628 4666 
L 3309 4666 
L 3309 4134 
L 1259 4134 
L 1259 2759 
L 3109 2759 
L 3109 2228 
L 1259 2228 
L 1259 0 
L 628 0 
L 628 4666 
z
" transform="scale(0.015625)"/>
       <path id="DejaVuSans-72" d="M 2631 2963 
Q 2534 3019 2420 3045 
Q 2306 3072 2169 3072 
Q 1681 3072 1420 2755 
Q 1159 2438 1159 1844 
L 1159 0 
L 581 0 
L 581 3500 
L 1159 3500 
L 1159 2956 
Q 1341 3275 1631 3429 
Q 1922 3584 2338 3584 
Q 2397 3584 2469 3576 
Q 2541 3569 2628 3553 
L 2631 2963 
z
" transform="scale(0.015625)"/>
       <path id="DejaVuSans-65" d="M 3597 1894 
L 3597 1613 
L 953 1613 
Q 991 1019 1311 708 
Q 1631 397 2203 397 
Q 2534 397 2845 478 
Q 3156 559 3463 722 
L 3463 178 
Q 3153 47 2828 -22 
Q 2503 -91 2169 -91 
Q 1331 -91 842 396 
Q 353 884 353 1716 
Q 353 2575 817 3079 
Q 1281 3584 2069 3584 
Q 2775 3584 3186 3129 
Q 3597 2675 3597 1894 
z
M 3022 2063 
Q 3016 2534 2758 2815 
Q 2500 3097 2075 3097 
Q 1594 3097 1305 2825 
Q 1016 2553 972 2059 
L 3022 2063 
z
" transform="scale(0.015625)"/>
       <path id="DejaVuSans-71" d="M 947 1747 
Q 947 1113 1208 752 
Q 1469 391 1925 391 
Q 2381 391 2643 752 
Q 2906 1113 2906 1747 
Q 2906 2381 2643 2742 
Q 2381 3103 1925 3103 
Q 1469 3103 1208 2742 
Q 947 2381 947 1747 
z
M 2906 525 
Q 2725 213 2448 61 
Q 2172 -91 1784 -91 
Q 1150 -91 751 415 
Q 353 922 353 1747 
Q 353 2572 751 3078 
Q 1150 3584 1784 3584 
Q 2172 3584 2448 3432 
Q 2725 3281 2906 2969 
L 2906 3500 
L 3481 3500 
L 3481 -1331 
L 2906 -1331 
L 2906 525 
z
" transform="scale(0.015625)"/>
       <path id="DejaVuSans-75" d="M 544 1381 
L 544 3500 
L 1119 3500 
L 1119 1403 
Q 1119 906 1312 657 
Q 1506 409 1894 409 
Q 2359 409 2629 706 
Q 2900 1003 2900 1516 
L 2900 3500 
L 3475 3500 
L 3475 0 
L 2900 0 
L 2900 538 
Q 2691 219 2414 64 
Q 2138 -91 1772 -91 
Q 1169 -91 856 284 
Q 544 659 544 1381 
z
M 1991 3584 
L 1991 3584 
z
" transform="scale(0.015625)"/>
       <path id="DejaVuSans-6e" d="M 3513 2113 
L 3513 0 
L 2938 0 
L 2938 2094 
Q 2938 2591 2744 2837 
Q 2550 3084 2163 3084 
Q 1697 3084 1428 2787 
Q 1159 2491 1159 1978 
L 1159 0 
L 581 0 
L 581 3500 
L 1159 3500 
L 1159 2956 
Q 1366 3272 1645 3428 
Q 1925 3584 2291 3584 
Q 2894 3584 3203 3211 
Q 3513 2838 3513 2113 
z
" transform="scale(0.015625)"/>
       <path id="DejaVuSans-63" d="M 3122 3366 
L 3122 2828 
Q 2878 2963 2633 3030 
Q 2388 3097 2138 3097 
Q 1578 3097 1268 2742 
Q 959 2388 959 1747 
Q 959 1106 1268 751 
Q 1578 397 2138 397 
Q 2388 397 2633 464 
Q 2878 531 3122 666 
L 3122 134 
Q 2881 22 2623 -34 
Q 2366 -91 2075 -91 
Q 1284 -91 818 406 
Q 353 903 353 1747 
Q 353 2603 823 3093 
Q 1294 3584 2113 3584 
Q 2378 3584 2631 3529 
Q 2884 3475 3122 3366 
z
" transform="scale(0.015625)"/>
       <path id="DejaVuSans-79" d="M 2059 -325 
Q 1816 -950 1584 -1140 
Q 1353 -1331 966 -1331 
L 506 -1331 
L 506 -850 
L 844 -850 
Q 1081 -850 1212 -737 
Q 1344 -625 1503 -206 
L 1606 56 
L 191 3500 
L 800 3500 
L 1894 763 
L 2988 3500 
L 3597 3500 
L 2059 -325 
z
" transform="scale(0.015625)"/>
       <path id="DejaVuSans-2c" d="M 750 794 
L 1409 794 
L 1409 256 
L 897 -744 
L 494 -744 
L 750 256 
L 750 794 
z
" transform="scale(0.015625)"/>
       <path id="DejaVuSans-20" transform="scale(0.015625)"/>
       <path id="DejaVuSans-48" d="M 628 4666 
L 1259 4666 
L 1259 2753 
L 3553 2753 
L 3553 4666 
L 4184 4666 
L 4184 0 
L 3553 0 
L 3553 2222 
L 1259 2222 
L 1259 0 
L 628 0 
L 628 4666 
z
" transform="scale(0.015625)"/>
       <path id="DejaVuSans-7a" d="M 353 3500 
L 3084 3500 
L 3084 2975 
L 922 459 
L 3084 459 
L 3084 0 
L 275 0 
L 275 525 
L 2438 3041 
L 353 3041 
L 353 3500 
z
" transform="scale(0.015625)"/>
      </defs>
      <use xlink:href="#DejaVuSans-46"/>
      <use xlink:href="#DejaVuSans-72" x="50.269531"/>
      <use xlink:href="#DejaVuSans-65" x="89.132812"/>
      <use xlink:href="#DejaVuSans-71" x="150.65625"/>
      <use xlink:href="#DejaVuSans-75" x="214.132812"/>
      <use xlink:href="#DejaVuSans-65" x="277.511719"/>
      <use xlink:href="#DejaVuSans-6e" x="339.035156"/>
      <use xlink:href="#DejaVuSans-63" x="402.414062"/>
      <use xlink:href="#DejaVuSans-79" x="457.394531"/>
      <use xlink:href="#DejaVuSans-2c" x="516.574219"/>
      <use xlink:href="#DejaVuSans-20" x="548.361328"/>
      <use xlink:href="#DejaVuSans-48" x="580.148438"/>
      <use xlink:href="#DejaVuSans-7a" x="655.34375"/>
     </g>
    </g>
   </g>
   <g id="matplotlib.axis_2">
    <g id="ytick_1">
     <g id="line2d_7">
      <defs>
       <path id="mf3cc8e1079" d="M 0 0 
L -3.5 0 
" style="stroke: #000000; stroke-width: 0.8"/>
      </defs>
      <g>
       <use xlink:href="#mf3cc8e1079" x="33.2875" y="206.202035" style="stroke: #000000; stroke-width: 0.8"/>
      </g>
     </g>
     <g id="text_8">
      <!-- 0 -->
      <g transform="translate(19.925 210.001253)scale(0.1 -0.1)">
       <use xlink:href="#DejaVuSans-30"/>
      </g>
     </g>
    </g>
    <g id="ytick_2">
     <g id="line2d_8">
      <g>
       <use xlink:href="#mf3cc8e1079" x="33.2875" y="168.539524" style="stroke: #000000; stroke-width: 0.8"/>
      </g>
     </g>
     <g id="text_9">
      <!-- 50 -->
      <g transform="translate(13.5625 172.338743)scale(0.1 -0.1)">
       <use xlink:href="#DejaVuSans-35"/>
       <use xlink:href="#DejaVuSans-30" x="63.623047"/>
      </g>
     </g>
    </g>
    <g id="ytick_3">
     <g id="line2d_9">
      <g>
       <use xlink:href="#mf3cc8e1079" x="33.2875" y="130.877014" style="stroke: #000000; stroke-width: 0.8"/>
      </g>
     </g>
     <g id="text_10">
      <!-- 100 -->
      <g transform="translate(7.2 134.676233)scale(0.1 -0.1)">
       <use xlink:href="#DejaVuSans-31"/>
       <use xlink:href="#DejaVuSans-30" x="63.623047"/>
       <use xlink:href="#DejaVuSans-30" x="127.246094"/>
      </g>
     </g>
    </g>
    <g id="ytick_4">
     <g id="line2d_10">
      <g>
       <use xlink:href="#mf3cc8e1079" x="33.2875" y="93.214503" style="stroke: #000000; stroke-width: 0.8"/>
      </g>
     </g>
     <g id="text_11">
      <!-- 150 -->
      <g transform="translate(7.2 97.013722)scale(0.1 -0.1)">
       <use xlink:href="#DejaVuSans-31"/>
       <use xlink:href="#DejaVuSans-35" x="63.623047"/>
       <use xlink:href="#DejaVuSans-30" x="127.246094"/>
      </g>
     </g>
    </g>
    <g id="ytick_5">
     <g id="line2d_11">
      <g>
       <use xlink:href="#mf3cc8e1079" x="33.2875" y="55.551993" style="stroke: #000000; stroke-width: 0.8"/>
      </g>
     </g>
     <g id="text_12">
      <!-- 200 -->
      <g transform="translate(7.2 59.351212)scale(0.1 -0.1)">
       <use xlink:href="#DejaVuSans-32"/>
       <use xlink:href="#DejaVuSans-30" x="63.623047"/>
       <use xlink:href="#DejaVuSans-30" x="127.246094"/>
      </g>
     </g>
    </g>
    <g id="ytick_6">
     <g id="line2d_12">
      <g>
       <use xlink:href="#mf3cc8e1079" x="33.2875" y="17.889482" style="stroke: #000000; stroke-width: 0.8"/>
      </g>
     </g>
     <g id="text_13">
      <!-- 250 -->
      <g transform="translate(7.2 21.688701)scale(0.1 -0.1)">
       <use xlink:href="#DejaVuSans-32"/>
       <use xlink:href="#DejaVuSans-35" x="63.623047"/>
       <use xlink:href="#DejaVuSans-30" x="127.246094"/>
      </g>
     </g>
    </g>
   </g>
   <g id="line2d_13">
    <path d="M 33.2875 17.083636 
L 34.6267 206.429232 
L 35.9659 207.390934 
L 37.3051 205.771281 
L 38.6443 206.960468 
L 39.9835 207.380634 
L 41.3227 206.775568 
L 42.6619 207.808418 
L 44.0011 207.668048 
L 45.3403 210.572399 
L 46.6795 203.713385 
L 48.0187 204.461723 
L 49.3579 206.770094 
L 52.0363 210.843893 
L 53.3755 204.90278 
L 54.7147 203.592656 
L 56.0539 205.442577 
L 57.3931 206.239097 
L 58.7323 203.611257 
L 60.0715 204.173727 
L 61.4107 207.862855 
L 62.7499 207.755713 
L 64.0891 203.823954 
L 65.4283 202.978476 
L 66.7675 202.819641 
L 68.1067 209.455742 
L 69.4459 209.062391 
L 70.7851 205.492117 
L 72.1243 208.339498 
L 73.4635 202.39254 
L 74.8027 207.071775 
L 76.1419 203.296436 
L 77.4811 207.900147 
L 78.8203 204.77006 
L 80.1595 208.830067 
L 81.4987 204.382839 
L 82.8379 204.189555 
L 84.1771 202.224974 
L 85.5163 208.454247 
L 86.8555 206.466011 
L 88.1947 206.342377 
L 89.5339 205.745502 
L 90.8731 208.02702 
L 92.2123 207.840489 
L 93.5515 208.077733 
L 94.8907 210.065205 
L 96.2299 207.788163 
L 97.5691 207.598216 
L 98.9083 205.156857 
L 100.2475 205.275112 
L 101.5867 207.259871 
L 102.9259 204.705147 
L 104.2651 207.333814 
L 105.6043 200.733138 
L 106.9435 208.459297 
L 108.2827 206.345234 
L 109.6219 205.850803 
L 110.9611 203.168404 
L 112.3003 208.688461 
L 113.6395 202.269279 
L 114.9787 201.702514 
L 116.3179 135.940874 
L 117.6571 214.756364 
L 120.3355 206.689644 
L 121.6747 208.830989 
L 123.0139 204.966161 
L 124.3531 208.939084 
L 125.6923 202.963952 
L 127.0315 209.197459 
L 128.3707 203.755625 
L 129.7099 206.987376 
L 131.0491 204.642596 
L 132.3883 211.57224 
L 133.7275 210.706186 
L 135.0667 208.636812 
L 136.4059 206.846452 
L 137.7451 201.946957 
L 139.0843 204.061808 
L 140.4235 203.979082 
L 141.7627 204.338191 
L 143.1019 207.17489 
L 144.4411 213.43637 
L 145.7803 207.125878 
L 147.1195 202.997373 
L 148.4587 206.449382 
L 149.7979 201.611503 
L 151.1371 205.107438 
L 152.4763 206.591662 
L 153.8155 202.664494 
L 155.1547 208.148922 
L 156.4939 206.572382 
L 157.8331 204.560241 
L 159.1723 209.529428 
L 160.5115 206.169518 
L 161.8507 207.521462 
L 163.1899 205.885407 
L 165.8683 209.348789 
L 167.2075 205.423075 
L 168.5467 207.473988 
L 169.8859 199.984872 
L 171.2251 207.186393 
L 172.5643 202.472526 
L 173.9035 207.574405 
L 175.2427 208.479321 
L 176.5819 203.77816 
L 177.9211 207.72892 
L 179.2603 205.983425 
L 180.5995 206.237848 
L 181.9387 203.115957 
L 183.2779 206.798342 
L 184.6171 202.654099 
L 185.9563 207.005229 
L 187.2955 203.214499 
L 188.6347 207.281221 
L 189.9739 207.481676 
L 191.3131 211.825353 
L 192.6523 204.949728 
L 195.3307 207.494269 
L 196.6699 206.165236 
L 198.0091 203.660607 
L 199.3483 205.007278 
L 200.6875 208.249874 
L 202.0267 205.728702 
L 203.3659 209.234726 
L 204.7051 205.325442 
L 206.0443 207.66824 
L 207.3835 205.758784 
L 208.7227 201.377921 
L 210.0619 204.528907 
L 211.4011 208.925994 
L 212.7403 207.389714 
L 214.0795 210.282969 
L 215.4187 208.199314 
L 216.7579 208.088549 
L 218.0971 210.140346 
L 219.4363 209.024689 
L 220.7755 205.658096 
L 222.1147 204.596756 
L 223.4539 205.751927 
L 224.7931 209.317226 
L 226.1323 203.338105 
L 227.4715 206.673834 
L 228.8107 205.775523 
L 230.1499 208.932665 
L 231.4891 205.125562 
L 232.8283 211.223121 
L 234.1675 207.505903 
L 235.5067 206.380704 
L 236.8459 205.104935 
L 238.1851 202.568902 
L 239.5243 208.261992 
L 240.8635 210.573494 
L 242.2027 206.569153 
L 243.5419 208.301509 
L 244.8811 202.080609 
L 246.2203 204.523731 
L 247.5595 205.542598 
L 248.8987 205.035441 
L 250.2379 202.82208 
L 251.5771 204.362961 
L 252.9163 208.376518 
L 254.2555 205.742286 
L 255.5947 207.461026 
L 256.9339 209.369901 
L 258.2731 202.828734 
L 259.6123 204.367001 
L 260.9515 206.513931 
L 262.2907 205.056138 
L 263.6299 207.750735 
L 266.3083 205.18475 
L 267.6475 204.124526 
L 268.9867 209.497682 
L 270.3259 208.501686 
L 271.6651 202.672972 
L 273.0043 201.944021 
L 274.3435 205.286119 
L 275.6827 210.694252 
L 277.0219 201.390291 
L 278.3611 205.101153 
L 279.7003 206.127953 
L 281.0395 206.726528 
L 282.3787 207.10031 
L 283.7179 207.26764 
L 285.0571 209.686581 
L 286.3963 207.759312 
L 287.7355 209.530059 
L 289.0747 206.422887 
L 290.4139 201.469319 
L 291.7531 207.128991 
L 293.0923 203.326093 
L 294.4315 209.181062 
L 295.7707 211.0983 
L 297.1099 202.335616 
L 298.4491 207.022648 
L 299.7883 207.575551 
L 301.1275 206.027564 
L 302.4667 203.985372 
L 303.8059 199.94194 
L 305.1451 210.637785 
L 306.4843 208.414447 
L 307.8235 203.893774 
L 309.1627 202.814875 
L 310.5019 205.914066 
L 311.8411 205.219689 
L 313.1803 207.344292 
L 314.5195 206.547598 
L 315.8587 210.824596 
L 317.1979 205.062864 
L 318.5371 207.538414 
L 319.8763 204.236838 
L 321.2155 201.712257 
L 322.5547 206.978604 
L 325.2331 202.985604 
L 326.5723 207.050895 
L 327.9115 207.951998 
L 329.2507 203.022196 
L 330.5899 210.060743 
L 331.9291 204.478147 
L 333.2683 202.715043 
L 334.6075 205.164358 
L 335.9467 205.369407 
L 337.2859 206.803525 
L 338.6251 206.965381 
L 339.9643 209.492042 
L 341.3035 203.810875 
L 342.6427 202.18684 
L 343.9819 206.197626 
L 345.3211 207.289462 
L 346.6603 209.034696 
L 347.9995 206.981043 
L 349.3387 207.610339 
L 350.6779 204.618801 
L 352.0171 207.473009 
L 353.3563 207.525953 
L 354.6955 205.089997 
L 356.0347 203.638926 
L 357.3739 205.193995 
L 358.7131 210.751013 
L 360.0523 205.245216 
L 361.3915 210.115568 
L 362.7307 206.097872 
L 364.0699 203.413168 
L 365.4091 207.946549 
L 366.7483 207.205071 
L 368.0875 206.051096 
L 369.4267 203.226574 
L 370.7659 208.891663 
L 372.1051 204.443166 
L 373.4443 208.334716 
L 374.7835 203.910906 
L 376.1227 210.066512 
L 377.4619 206.492699 
L 378.8011 210.457817 
L 380.1403 202.122662 
L 381.4795 204.055906 
L 382.8187 210.083748 
L 384.1579 209.665566 
L 385.4971 203.617452 
L 385.83125 204.593078 
L 385.83125 204.593078 
" clip-path="url(#p1a38fb51c9)" style="fill: none; stroke: #1f77b4; stroke-width: 1.5; stroke-linecap: square"/>
   </g>
   <g id="patch_3">
    <path d="M 33.2875 224.64 
L 33.2875 7.2 
" style="fill: none; stroke: #000000; stroke-width: 0.8; stroke-linejoin: miter; stroke-linecap: square"/>
   </g>
   <g id="patch_4">
    <path d="M 368.0875 224.64 
L 368.0875 7.2 
" style="fill: none; stroke: #000000; stroke-width: 0.8; stroke-linejoin: miter; stroke-linecap: square"/>
   </g>
   <g id="patch_5">
    <path d="M 33.2875 224.64 
L 368.0875 224.64 
" style="fill: none; stroke: #000000; stroke-width: 0.8; stroke-linejoin: miter; stroke-linecap: square"/>
   </g>
   <g id="patch_6">
    <path d="M 33.2875 7.2 
L 368.0875 7.2 
" style="fill: none; stroke: #000000; stroke-width: 0.8; stroke-linejoin: miter; stroke-linecap: square"/>
   </g>
  </g>
 </g>
 <defs>
  <clipPath id="p1a38fb51c9">
   <rect x="33.2875" y="7.2" width="334.8" height="217.44"/>
  </clipPath>
 </defs>
</svg>
