<?xml version="1.0" encoding="utf-8" standalone="no"?>
<!DOCTYPE svg PUBLIC "-//W3C//DTD SVG 1.1//EN"
  "http://www.w3.org/Graphics/SVG/1.1/DTD/svg11.dtd">
<svg height="248.518125pt" version="1.1" viewBox="0 0 380.482813 248.518125" width="380.482813pt" xmlns="http://www.w3.org/2000/svg" xmlns:xlink="http://www.w3.org/1999/xlink">
 <metadata>
  <rdf:RDF xmlns:cc="http://creativecommons.org/ns#" xmlns:dc="http://purl.org/dc/elements/1.1/" xmlns:rdf="http://www.w3.org/1999/02/22-rdf-syntax-ns#">
   <cc:Work>
    <dc:type rdf:resource="http://purl.org/dc/dcmitype/StillImage"/>
    <dc:date>2022-05-19T18:59:57.624827</dc:date>
    <dc:format>image/svg+xml</dc:format>
    <dc:creator>
     <cc:Agent>
      <dc:title>Matplotlib v3.4.3, https://matplotlib.org/</dc:title>
     </cc:Agent>
    </dc:creator>
   </cc:Work>
  </rdf:RDF>
 </metadata>
 <defs>
  <style type="text/css">*{stroke-linecap:butt;stroke-linejoin:round;}</style>
 </defs>
 <g id="figure_1">
  <g id="patch_1">
   <path d="M -0 248.518125 
L 380.482813 248.518125 
L 380.482813 0 
L -0 0 
z
" style="fill:none;"/>
  </g>
  <g id="axes_1">
   <g id="patch_2">
    <path d="M 38.482813 224.64 
L 373.282813 224.64 
L 373.282813 7.2 
L 38.482813 7.2 
z
" style="fill:#ffffff;"/>
   </g>
   <g id="matplotlib.axis_1">
    <g id="xtick_1">
     <g id="line2d_1">
      <defs>
       <path d="M 0 0 
L 0 3.5 
" id="m9f1f2fe373" style="stroke:#000000;stroke-width:0.8;"/>
      </defs>
      <g>
       <use style="stroke:#000000;stroke-width:0.8;" x="53.700994" xlink:href="#m9f1f2fe373" y="224.64"/>
      </g>
     </g>
     <g id="text_1">
      <!-- 0 -->
      <g transform="translate(50.519744 239.238438)scale(0.1 -0.1)">
       <defs>
        <path d="M 2034 4250 
Q 1547 4250 1301 3770 
Q 1056 3291 1056 2328 
Q 1056 1369 1301 889 
Q 1547 409 2034 409 
Q 2525 409 2770 889 
Q 3016 1369 3016 2328 
Q 3016 3291 2770 3770 
Q 2525 4250 2034 4250 
z
M 2034 4750 
Q 2819 4750 3233 4129 
Q 3647 3509 3647 2328 
Q 3647 1150 3233 529 
Q 2819 -91 2034 -91 
Q 1250 -91 836 529 
Q 422 1150 422 2328 
Q 422 3509 836 4129 
Q 1250 4750 2034 4750 
z
" id="DejaVuSans-30" transform="scale(0.015625)"/>
       </defs>
       <use xlink:href="#DejaVuSans-30"/>
      </g>
     </g>
    </g>
    <g id="xtick_2">
     <g id="line2d_2">
      <g>
       <use style="stroke:#000000;stroke-width:0.8;" x="102.141972" xlink:href="#m9f1f2fe373" y="224.64"/>
      </g>
     </g>
     <g id="text_2">
      <!-- 5 -->
      <g transform="translate(98.960722 239.238438)scale(0.1 -0.1)">
       <defs>
        <path d="M 691 4666 
L 3169 4666 
L 3169 4134 
L 1269 4134 
L 1269 2991 
Q 1406 3038 1543 3061 
Q 1681 3084 1819 3084 
Q 2600 3084 3056 2656 
Q 3513 2228 3513 1497 
Q 3513 744 3044 326 
Q 2575 -91 1722 -91 
Q 1428 -91 1123 -41 
Q 819 9 494 109 
L 494 744 
Q 775 591 1075 516 
Q 1375 441 1709 441 
Q 2250 441 2565 725 
Q 2881 1009 2881 1497 
Q 2881 1984 2565 2268 
Q 2250 2553 1709 2553 
Q 1456 2553 1204 2497 
Q 953 2441 691 2322 
L 691 4666 
z
" id="DejaVuSans-35" transform="scale(0.015625)"/>
       </defs>
       <use xlink:href="#DejaVuSans-35"/>
      </g>
     </g>
    </g>
    <g id="xtick_3">
     <g id="line2d_3">
      <g>
       <use style="stroke:#000000;stroke-width:0.8;" x="150.582949" xlink:href="#m9f1f2fe373" y="224.64"/>
      </g>
     </g>
     <g id="text_3">
      <!-- 10 -->
      <g transform="translate(144.220449 239.238438)scale(0.1 -0.1)">
       <defs>
        <path d="M 794 531 
L 1825 531 
L 1825 4091 
L 703 3866 
L 703 4441 
L 1819 4666 
L 2450 4666 
L 2450 531 
L 3481 531 
L 3481 0 
L 794 0 
L 794 531 
z
" id="DejaVuSans-31" transform="scale(0.015625)"/>
       </defs>
       <use xlink:href="#DejaVuSans-31"/>
       <use x="63.623047" xlink:href="#DejaVuSans-30"/>
      </g>
     </g>
    </g>
    <g id="xtick_4">
     <g id="line2d_4">
      <g>
       <use style="stroke:#000000;stroke-width:0.8;" x="199.023926" xlink:href="#m9f1f2fe373" y="224.64"/>
      </g>
     </g>
     <g id="text_4">
      <!-- 15 -->
      <g transform="translate(192.661426 239.238438)scale(0.1 -0.1)">
       <use xlink:href="#DejaVuSans-31"/>
       <use x="63.623047" xlink:href="#DejaVuSans-35"/>
      </g>
     </g>
    </g>
    <g id="xtick_5">
     <g id="line2d_5">
      <g>
       <use style="stroke:#000000;stroke-width:0.8;" x="247.464903" xlink:href="#m9f1f2fe373" y="224.64"/>
      </g>
     </g>
     <g id="text_5">
      <!-- 20 -->
      <g transform="translate(241.102403 239.238438)scale(0.1 -0.1)">
       <defs>
        <path d="M 1228 531 
L 3431 531 
L 3431 0 
L 469 0 
L 469 531 
Q 828 903 1448 1529 
Q 2069 2156 2228 2338 
Q 2531 2678 2651 2914 
Q 2772 3150 2772 3378 
Q 2772 3750 2511 3984 
Q 2250 4219 1831 4219 
Q 1534 4219 1204 4116 
Q 875 4013 500 3803 
L 500 4441 
Q 881 4594 1212 4672 
Q 1544 4750 1819 4750 
Q 2544 4750 2975 4387 
Q 3406 4025 3406 3419 
Q 3406 3131 3298 2873 
Q 3191 2616 2906 2266 
Q 2828 2175 2409 1742 
Q 1991 1309 1228 531 
z
" id="DejaVuSans-32" transform="scale(0.015625)"/>
       </defs>
       <use xlink:href="#DejaVuSans-32"/>
       <use x="63.623047" xlink:href="#DejaVuSans-30"/>
      </g>
     </g>
    </g>
    <g id="xtick_6">
     <g id="line2d_6">
      <g>
       <use style="stroke:#000000;stroke-width:0.8;" x="295.90588" xlink:href="#m9f1f2fe373" y="224.64"/>
      </g>
     </g>
     <g id="text_6">
      <!-- 25 -->
      <g transform="translate(289.54338 239.238438)scale(0.1 -0.1)">
       <use xlink:href="#DejaVuSans-32"/>
       <use x="63.623047" xlink:href="#DejaVuSans-35"/>
      </g>
     </g>
    </g>
    <g id="xtick_7">
     <g id="line2d_7">
      <g>
       <use style="stroke:#000000;stroke-width:0.8;" x="344.346858" xlink:href="#m9f1f2fe373" y="224.64"/>
      </g>
     </g>
     <g id="text_7">
      <!-- 30 -->
      <g transform="translate(337.984358 239.238438)scale(0.1 -0.1)">
       <defs>
        <path d="M 2597 2516 
Q 3050 2419 3304 2112 
Q 3559 1806 3559 1356 
Q 3559 666 3084 287 
Q 2609 -91 1734 -91 
Q 1441 -91 1130 -33 
Q 819 25 488 141 
L 488 750 
Q 750 597 1062 519 
Q 1375 441 1716 441 
Q 2309 441 2620 675 
Q 2931 909 2931 1356 
Q 2931 1769 2642 2001 
Q 2353 2234 1838 2234 
L 1294 2234 
L 1294 2753 
L 1863 2753 
Q 2328 2753 2575 2939 
Q 2822 3125 2822 3475 
Q 2822 3834 2567 4026 
Q 2313 4219 1838 4219 
Q 1578 4219 1281 4162 
Q 984 4106 628 3988 
L 628 4550 
Q 988 4650 1302 4700 
Q 1616 4750 1894 4750 
Q 2613 4750 3031 4423 
Q 3450 4097 3450 3541 
Q 3450 3153 3228 2886 
Q 3006 2619 2597 2516 
z
" id="DejaVuSans-33" transform="scale(0.015625)"/>
       </defs>
       <use xlink:href="#DejaVuSans-33"/>
       <use x="63.623047" xlink:href="#DejaVuSans-30"/>
      </g>
     </g>
    </g>
   </g>
   <g id="matplotlib.axis_2">
    <g id="ytick_1">
     <g id="line2d_8">
      <defs>
       <path d="M 0 0 
L -3.5 0 
" id="m529b2ec37e" style="stroke:#000000;stroke-width:0.8;"/>
      </defs>
      <g>
       <use style="stroke:#000000;stroke-width:0.8;" x="38.482813" xlink:href="#m529b2ec37e" y="190.304993"/>
      </g>
     </g>
     <g id="text_8">
      <!-- −1.0 -->
      <g transform="translate(7.2 194.104212)scale(0.1 -0.1)">
       <defs>
        <path d="M 678 2272 
L 4684 2272 
L 4684 1741 
L 678 1741 
L 678 2272 
z
" id="DejaVuSans-2212" transform="scale(0.015625)"/>
        <path d="M 684 794 
L 1344 794 
L 1344 0 
L 684 0 
L 684 794 
z
" id="DejaVuSans-2e" transform="scale(0.015625)"/>
       </defs>
       <use xlink:href="#DejaVuSans-2212"/>
       <use x="83.789062" xlink:href="#DejaVuSans-31"/>
       <use x="147.412109" xlink:href="#DejaVuSans-2e"/>
       <use x="179.199219" xlink:href="#DejaVuSans-30"/>
      </g>
     </g>
    </g>
    <g id="ytick_2">
     <g id="line2d_9">
      <g>
       <use style="stroke:#000000;stroke-width:0.8;" x="38.482813" xlink:href="#m529b2ec37e" y="153.306316"/>
      </g>
     </g>
     <g id="text_9">
      <!-- −0.5 -->
      <g transform="translate(7.2 157.105535)scale(0.1 -0.1)">
       <use xlink:href="#DejaVuSans-2212"/>
       <use x="83.789062" xlink:href="#DejaVuSans-30"/>
       <use x="147.412109" xlink:href="#DejaVuSans-2e"/>
       <use x="179.199219" xlink:href="#DejaVuSans-35"/>
      </g>
     </g>
    </g>
    <g id="ytick_3">
     <g id="line2d_10">
      <g>
       <use style="stroke:#000000;stroke-width:0.8;" x="38.482813" xlink:href="#m529b2ec37e" y="116.307639"/>
      </g>
     </g>
     <g id="text_10">
      <!-- 0.0 -->
      <g transform="translate(15.579688 120.106857)scale(0.1 -0.1)">
       <use xlink:href="#DejaVuSans-30"/>
       <use x="63.623047" xlink:href="#DejaVuSans-2e"/>
       <use x="95.410156" xlink:href="#DejaVuSans-30"/>
      </g>
     </g>
    </g>
    <g id="ytick_4">
     <g id="line2d_11">
      <g>
       <use style="stroke:#000000;stroke-width:0.8;" x="38.482813" xlink:href="#m529b2ec37e" y="79.308961"/>
      </g>
     </g>
     <g id="text_11">
      <!-- 0.5 -->
      <g transform="translate(15.579688 83.10818)scale(0.1 -0.1)">
       <use xlink:href="#DejaVuSans-30"/>
       <use x="63.623047" xlink:href="#DejaVuSans-2e"/>
       <use x="95.410156" xlink:href="#DejaVuSans-35"/>
      </g>
     </g>
    </g>
    <g id="ytick_5">
     <g id="line2d_12">
      <g>
       <use style="stroke:#000000;stroke-width:0.8;" x="38.482813" xlink:href="#m529b2ec37e" y="42.310284"/>
      </g>
     </g>
     <g id="text_12">
      <!-- 1.0 -->
      <g transform="translate(15.579688 46.109503)scale(0.1 -0.1)">
       <use xlink:href="#DejaVuSans-31"/>
       <use x="63.623047" xlink:href="#DejaVuSans-2e"/>
       <use x="95.410156" xlink:href="#DejaVuSans-30"/>
      </g>
     </g>
    </g>
   </g>
   <g id="line2d_13">
    <path clip-path="url(#p12d749294c)" d="M 53.700994 97.90031 
L 54.005663 119.063633 
L 54.310331 119.770608 
L 54.614999 119.132597 
L 54.919668 125.833469 
L 55.224336 116.691024 
L 55.529004 103.631355 
L 55.833672 98.245415 
L 56.138341 117.845511 
L 56.443009 85.67666 
L 56.747677 85.396555 
L 57.052346 67.805199 
L 57.357014 102.259423 
L 57.661682 96.605819 
L 57.966351 99.717664 
L 58.271019 59.185076 
L 58.575687 83.477158 
L 58.880355 83.246354 
L 59.185024 75.473482 
L 59.489692 59.500924 
L 59.79436 76.432417 
L 60.099029 77.193872 
L 60.403697 73.310596 
L 60.708365 73.084909 
L 61.013034 61.178149 
L 61.317702 73.238933 
L 61.62237 72.178287 
L 61.927039 67.464899 
L 62.231707 40.533348 
L 62.536375 57.436863 
L 62.841043 63.820748 
L 63.145712 42.006238 
L 63.45038 34.652829 
L 63.755048 65.938857 
L 64.059717 62.855939 
L 64.364385 71.654712 
L 64.669053 48.738251 
L 64.973722 60.758323 
L 65.27839 36.795153 
L 65.583058 44.565814 
L 65.887727 43.792826 
L 66.192395 70.402487 
L 66.497063 28.784452 
L 67.1064 65.451815 
L 67.411068 23.75202 
L 67.715736 22.39429 
L 68.020405 39.894821 
L 68.325073 45.910717 
L 68.629741 47.76983 
L 68.93441 58.830019 
L 69.239078 57.343948 
L 69.543746 21.436081 
L 69.848414 68.034888 
L 70.153083 23.962631 
L 70.457751 53.09319 
L 70.762419 50.908076 
L 71.067088 45.87063 
L 71.371756 37.903355 
L 71.676424 21.375485 
L 71.981093 68.230082 
L 72.590429 40.960334 
L 72.895098 54.992994 
L 73.199766 74.295979 
L 73.504434 47.846053 
L 73.809102 71.454005 
L 74.113771 78.592755 
L 74.418439 42.556676 
L 74.723107 29.919389 
L 75.027776 55.998983 
L 75.637112 83.725983 
L 75.941781 40.220905 
L 76.246449 87.865077 
L 76.551117 72.74983 
L 76.855785 91.580369 
L 77.160454 88.607169 
L 77.465122 61.116551 
L 77.76979 93.781085 
L 78.074459 70.134976 
L 78.379127 67.405592 
L 78.683795 99.198044 
L 78.988464 68.356592 
L 79.293132 104.381403 
L 79.5978 85.062308 
L 79.902469 92.10941 
L 80.207137 71.075834 
L 80.511805 71.658726 
L 80.816473 75.849731 
L 81.121142 98.059513 
L 81.42581 75.85155 
L 81.730478 78.113107 
L 82.035147 122.440726 
L 82.339815 107.885111 
L 82.644483 81.362645 
L 82.949152 129.212835 
L 83.25382 104.397526 
L 83.558488 106.005702 
L 83.863156 90.858831 
L 84.167825 129.380053 
L 84.472493 134.277579 
L 84.777161 132.002838 
L 85.08183 100.797288 
L 85.386498 138.504777 
L 85.691166 114.578998 
L 85.995835 135.848043 
L 86.605171 150.947306 
L 86.90984 135.720356 
L 87.214508 160.26978 
L 87.519176 127.219582 
L 87.823844 127.607283 
L 88.128513 165.031607 
L 88.433181 132.423998 
L 88.737849 168.549306 
L 89.042518 139.575159 
L 89.347186 143.465598 
L 89.956523 139.746061 
L 90.565859 173.984579 
L 90.870527 173.198115 
L 91.175196 167.45172 
L 91.479864 169.458892 
L 91.784532 146.966117 
L 92.089201 146.897386 
L 92.393869 148.702786 
L 92.698537 158.574587 
L 93.003206 153.778406 
L 93.307874 185.194403 
L 93.612542 151.910547 
L 94.221879 172.33563 
L 94.526547 193.977442 
L 94.831215 184.722295 
L 95.135884 167.182774 
L 95.440552 196.52938 
L 95.74522 176.347178 
L 96.049889 194.364198 
L 96.354557 193.508509 
L 96.659225 176.623003 
L 96.963894 196.775366 
L 97.268562 175.370677 
L 97.57323 203.901923 
L 97.877898 193.646675 
L 98.182567 214.551889 
L 98.487235 174.717134 
L 98.791903 207.367872 
L 99.096572 176.32828 
L 99.40124 177.747445 
L 99.705908 212.080501 
L 100.010577 186.590707 
L 100.315245 207.586326 
L 100.619913 181.743856 
L 100.924582 171.228339 
L 101.22925 190.471073 
L 101.533918 194.587266 
L 101.838586 167.128394 
L 102.447923 201.863649 
L 102.752591 207.68851 
L 103.361928 161.283472 
L 103.666596 177.734931 
L 103.971265 176.538466 
L 104.275933 195.946525 
L 104.580601 193.592351 
L 104.88527 165.62677 
L 105.189938 199.633199 
L 105.494606 155.957224 
L 105.799274 188.444809 
L 106.103943 178.085326 
L 106.408611 155.259828 
L 106.713279 187.848 
L 107.017948 160.927085 
L 107.322616 189.494147 
L 107.627284 159.360193 
L 107.931953 155.324205 
L 108.236621 137.613293 
L 108.541289 174.905396 
L 108.845957 139.821085 
L 109.150626 158.33142 
L 109.455294 156.893809 
L 109.759962 141.865775 
L 110.064631 162.592561 
L 110.369299 123.087441 
L 110.673967 164.257477 
L 110.978636 147.38803 
L 111.587972 163.039767 
L 111.892641 128.186715 
L 112.197309 156.78203 
L 112.501977 150.235831 
L 112.806645 139.627888 
L 113.111314 104.813724 
L 113.415982 111.156003 
L 113.72065 100.078495 
L 114.025319 132.580846 
L 114.329987 101.442562 
L 114.634655 104.881039 
L 114.939324 139.172144 
L 115.243992 130.068183 
L 115.54866 99.169625 
L 115.853328 95.580299 
L 116.157997 110.221298 
L 116.462665 84.295615 
L 116.767333 122.341804 
L 117.072002 100.292047 
L 117.37667 90.411785 
L 117.681338 114.453474 
L 118.290675 69.309881 
L 118.595343 76.085212 
L 118.900012 70.738395 
L 119.20468 89.128059 
L 119.509348 68.826658 
L 120.423353 97.709814 
L 120.728021 86.545989 
L 121.03269 82.542569 
L 121.337358 84.307734 
L 121.642026 55.957171 
L 121.946695 57.614238 
L 122.251363 87.308604 
L 122.556031 56.41662 
L 122.860699 86.308734 
L 123.165368 40.093332 
L 123.470036 75.633152 
L 123.774704 73.39888 
L 124.079373 60.605516 
L 124.384041 67.563635 
L 124.688709 53.812912 
L 124.993378 51.583748 
L 125.298046 48.379958 
L 125.602714 30.833657 
L 125.907383 43.925066 
L 126.516719 32.815209 
L 126.821387 41.284118 
L 127.126056 29.754253 
L 127.430724 28.436421 
L 127.735392 61.392052 
L 128.040061 39.71537 
L 128.344729 42.121747 
L 128.649397 17.083636 
L 128.954066 31.366108 
L 129.258734 60.44964 
L 129.563402 63.842975 
L 129.86807 54.972112 
L 130.172739 55.66978 
L 130.477407 31.686557 
L 130.782075 45.062222 
L 131.086744 48.750121 
L 131.391412 65.737145 
L 132.000749 18.845292 
L 132.305417 37.920272 
L 132.610085 23.578337 
L 132.914754 68.661312 
L 133.219422 58.200403 
L 133.52409 58.913095 
L 133.828758 59.202011 
L 134.133427 57.750303 
L 134.438095 42.77999 
L 134.742763 48.814468 
L 135.047432 34.684168 
L 135.3521 78.142015 
L 135.961437 52.689719 
L 136.266105 32.796594 
L 136.570773 73.319777 
L 136.875441 71.552657 
L 137.18011 77.183486 
L 137.789446 59.210466 
L 138.398783 92.071498 
L 138.703451 88.436829 
L 139.00812 93.298221 
L 139.312788 66.428151 
L 139.617456 99.851842 
L 140.226793 67.265726 
L 140.531461 94.359791 
L 140.836129 59.646572 
L 141.445466 91.244495 
L 141.750134 78.700466 
L 142.054803 81.626012 
L 142.359471 93.055428 
L 142.664139 96.262157 
L 142.968808 104.660628 
L 143.273476 99.876873 
L 143.578144 87.960539 
L 143.882812 113.997487 
L 144.187481 115.148524 
L 144.492149 133.147287 
L 144.796817 104.209205 
L 145.406154 138.182065 
L 145.710822 101.69435 
L 146.015491 117.035232 
L 146.320159 140.384759 
L 146.624827 137.465987 
L 146.929496 113.634841 
L 147.234164 116.297627 
L 147.538832 111.755996 
L 147.8435 114.432957 
L 148.148169 140.488831 
L 148.452837 116.571681 
L 149.062174 171.132269 
L 149.366842 126.489304 
L 149.67151 152.414669 
L 149.976179 155.795817 
L 150.280847 133.658076 
L 150.585515 160.063895 
L 150.890184 164.470064 
L 151.194852 164.327576 
L 151.49952 185.306597 
L 151.804188 186.112576 
L 152.108857 182.85367 
L 152.413525 153.343804 
L 152.718193 166.148946 
L 153.022862 191.316336 
L 153.632198 193.916216 
L 153.936867 199.62601 
L 154.241535 194.188308 
L 154.546203 165.658266 
L 154.850871 189.777369 
L 155.15554 172.602622 
L 155.460208 200.441794 
L 156.069545 172.473578 
L 156.374213 161.791302 
L 156.678881 181.539021 
L 156.98355 193.035372 
L 157.288218 177.319735 
L 157.592886 198.104806 
L 157.897555 163.742604 
L 158.202223 184.623803 
L 158.506891 184.810928 
L 158.811559 205.512641 
L 159.116228 197.818828 
L 159.420896 173.1125 
L 159.725564 194.469643 
L 160.030233 192.98826 
L 160.334901 205.201888 
L 160.639569 168.408523 
L 160.944238 174.723095 
L 161.248906 168.512037 
L 161.553574 173.887991 
L 161.858242 210.059176 
L 162.162911 172.308299 
L 162.467579 192.450575 
L 162.772247 191.851641 
L 163.076916 212.871678 
L 163.686252 183.190848 
L 163.990921 196.921017 
L 164.295589 175.28162 
L 164.600257 167.489924 
L 164.904926 179.187705 
L 165.209594 159.019395 
L 165.514262 198.26825 
L 165.81893 167.679378 
L 166.123599 167.735866 
L 166.428267 169.208573 
L 166.732935 199.033092 
L 167.037604 194.44714 
L 167.342272 147.762527 
L 167.64694 180.272416 
L 167.951609 189.737034 
L 168.256277 167.253762 
L 168.560945 189.870824 
L 168.865613 150.885616 
L 169.170282 180.167281 
L 169.47495 140.209223 
L 169.779618 134.182271 
L 170.084287 178.064164 
L 170.388955 127.981937 
L 170.693623 148.703328 
L 170.998292 161.123966 
L 171.30296 132.332133 
L 171.607628 137.55356 
L 172.216965 122.147838 
L 172.521633 152.543755 
L 172.826301 154.475406 
L 173.435638 117.965674 
L 173.740306 111.270302 
L 174.044975 113.274191 
L 174.349643 112.359197 
L 174.654311 120.918687 
L 175.263648 96.468587 
L 175.568316 138.445913 
L 175.872984 115.888979 
L 176.177653 135.047591 
L 176.482321 124.609955 
L 176.786989 102.057549 
L 177.091658 119.799778 
L 177.396326 119.508528 
L 177.700994 121.184453 
L 178.005663 96.645865 
L 178.310331 117.345355 
L 178.614999 85.159093 
L 179.224336 102.18238 
L 179.529004 110.426215 
L 179.833672 63.633405 
L 180.138341 78.347485 
L 180.443009 73.696546 
L 180.747677 77.424227 
L 181.052346 50.317322 
L 181.357014 88.382952 
L 181.966351 44.668168 
L 182.271019 80.647423 
L 182.575687 71.739847 
L 182.880355 57.141248 
L 183.185024 70.318847 
L 183.489692 44.986759 
L 183.79436 72.763147 
L 184.099029 56.177231 
L 184.403697 51.147743 
L 184.708365 71.657363 
L 185.013034 57.068002 
L 185.317702 53.078081 
L 185.62237 56.00074 
L 185.927039 48.66479 
L 186.231707 53.070091 
L 186.536375 37.484051 
L 186.841043 29.749073 
L 187.145712 68.215839 
L 187.45038 34.529093 
L 187.755048 31.29458 
L 188.059717 34.37794 
L 188.364385 70.158697 
L 188.669053 57.213873 
L 188.973722 65.132692 
L 189.27839 33.547305 
L 189.583058 20.611787 
L 189.887727 32.174716 
L 190.192395 50.435643 
L 190.497063 50.282279 
L 190.801731 61.631976 
L 191.1064 30.7789 
L 191.411068 62.509324 
L 191.715736 27.629327 
L 192.629741 57.605193 
L 192.93441 19.10581 
L 193.543746 59.504245 
L 193.848414 37.446898 
L 194.153083 36.546055 
L 194.457751 38.38936 
L 194.762419 41.696104 
L 195.067088 27.910719 
L 195.371756 32.171728 
L 195.676424 66.04011 
L 195.981093 45.563518 
L 196.590429 58.51217 
L 196.895098 57.565388 
L 197.199766 33.701878 
L 197.504434 63.733706 
L 197.809102 48.859631 
L 198.113771 51.117136 
L 198.418439 48.354767 
L 199.027776 69.934489 
L 199.332444 55.747487 
L 199.637112 79.931759 
L 199.941781 79.332389 
L 200.246449 76.606027 
L 200.551117 59.717676 
L 200.855785 68.722254 
L 201.160454 101.635889 
L 201.465122 96.597617 
L 201.76979 83.724548 
L 202.379127 75.13145 
L 202.683795 102.520931 
L 202.988464 78.183527 
L 203.293132 94.545437 
L 203.5978 80.337677 
L 203.902469 97.485064 
L 204.207137 102.428228 
L 204.511805 92.850451 
L 204.816473 93.095441 
L 205.121142 100.523572 
L 205.42581 91.555459 
L 205.730478 112.278124 
L 206.035147 95.296679 
L 206.339815 145.692199 
L 206.644483 145.173956 
L 206.949152 130.145549 
L 207.25382 108.26173 
L 207.558488 153.889429 
L 207.863156 122.179173 
L 208.167825 148.079358 
L 208.472493 114.049015 
L 209.08183 143.458436 
L 209.386498 136.929851 
L 209.691166 124.121883 
L 209.995835 147.6608 
L 210.300503 144.338087 
L 210.605171 164.31763 
L 210.90984 127.927904 
L 211.214508 173.293271 
L 211.519176 167.196155 
L 211.823844 179.326272 
L 212.128513 180.416293 
L 212.433181 160.620506 
L 212.737849 168.208857 
L 213.042518 172.851637 
L 213.347186 160.68907 
L 213.651854 176.954566 
L 213.956523 186.178469 
L 214.261191 174.302652 
L 214.565859 186.090606 
L 214.870527 155.985222 
L 215.175196 190.142932 
L 215.479864 202.46367 
L 215.784532 199.426447 
L 216.089201 165.042128 
L 216.393869 159.442967 
L 216.698537 164.685065 
L 217.307874 185.201943 
L 217.612542 179.799386 
L 217.917211 209.287651 
L 218.221879 165.767709 
L 218.526547 195.919964 
L 218.831215 210.966957 
L 219.135884 179.754546 
L 219.440552 176.61948 
L 219.74522 214.478268 
L 220.049889 165.357446 
L 220.354557 205.365944 
L 220.659225 208.493869 
L 221.268562 174.037219 
L 221.57323 214.756364 
L 221.877898 185.994887 
L 222.182567 194.438855 
L 222.487235 193.325232 
L 222.791903 201.080423 
L 223.096572 164.353814 
L 223.705908 194.76258 
L 224.010577 164.528609 
L 224.315245 184.718316 
L 224.619913 171.831555 
L 224.924582 190.54956 
L 225.22925 195.15768 
L 225.533918 167.343948 
L 225.838586 192.957216 
L 226.143255 154.695495 
L 226.447923 184.54834 
L 226.752591 195.882256 
L 227.05726 179.707914 
L 227.361928 150.599574 
L 227.971265 159.588106 
L 228.275933 182.464476 
L 228.580601 159.144029 
L 228.88527 149.641985 
L 229.189938 160.031606 
L 229.494606 150.789503 
L 229.799274 162.306292 
L 230.103943 135.008658 
L 230.408611 166.630269 
L 230.713279 145.85748 
L 231.017948 176.757293 
L 231.627284 149.128834 
L 231.931953 140.877648 
L 232.236621 163.023873 
L 232.541289 161.164287 
L 232.845957 161.909761 
L 233.150626 136.486846 
L 233.455294 163.40445 
L 233.759962 115.119177 
L 234.064631 142.532384 
L 234.369299 147.818744 
L 234.673967 128.413386 
L 234.978636 149.104612 
L 235.283304 128.366327 
L 235.587972 121.494451 
L 235.892641 95.41753 
L 236.197309 105.700506 
L 236.501977 131.291123 
L 237.111314 104.063464 
L 237.415982 130.875932 
L 237.72065 89.050828 
L 238.025319 97.653596 
L 238.634655 85.946872 
L 238.939324 104.558564 
L 239.243992 103.376806 
L 239.54866 72.753886 
L 239.853328 89.056889 
L 240.157997 79.111773 
L 240.462665 59.803536 
L 240.767333 69.788695 
L 241.072002 61.834399 
L 241.37667 73.34108 
L 241.681338 92.811598 
L 241.986007 84.516207 
L 242.290675 82.272882 
L 242.595343 63.298644 
L 243.20468 46.420112 
L 243.509348 82.915552 
L 244.118685 55.838257 
L 244.423353 56.592775 
L 244.728021 67.155459 
L 245.03269 73.449532 
L 245.337358 33.997367 
L 245.642026 68.674543 
L 245.946695 31.933399 
L 246.251363 60.88523 
L 246.556031 57.690195 
L 246.860699 26.795371 
L 247.165368 62.627725 
L 247.470036 61.586808 
L 248.079373 58.052856 
L 248.384041 35.664979 
L 248.688709 26.062531 
L 248.993378 62.934691 
L 249.298046 20.433126 
L 249.602714 27.861341 
L 249.907383 49.27907 
L 250.212051 56.308781 
L 250.821387 59.426463 
L 251.126056 19.632188 
L 251.430724 33.373082 
L 251.735392 58.123323 
L 252.040061 41.518879 
L 252.344729 49.090237 
L 252.649397 64.774561 
L 252.954066 57.837854 
L 253.258734 44.790107 
L 253.563402 18.803503 
L 253.86807 52.800821 
L 254.172739 43.704782 
L 254.477407 24.034539 
L 254.782075 47.153536 
L 255.086744 57.916014 
L 255.391412 24.138155 
L 255.69608 34.06413 
L 256.000749 27.621098 
L 256.305417 69.813456 
L 256.610085 33.847427 
L 256.914754 64.948868 
L 257.219422 75.418282 
L 257.52409 65.176269 
L 257.828758 40.821041 
L 258.742763 74.037571 
L 259.047432 42.024055 
L 259.3521 78.233984 
L 259.656768 55.842177 
L 259.961437 64.846872 
L 260.266105 80.495395 
L 260.570773 46.541071 
L 260.875441 87.299369 
L 261.18011 100.562399 
L 261.484778 91.926346 
L 261.789446 103.32927 
L 262.094115 100.403626 
L 262.398783 108.634683 
L 262.703451 64.696128 
L 263.00812 89.105191 
L 263.312788 90.285268 
L 263.617456 86.351354 
L 263.922125 79.502476 
L 264.531461 123.660326 
L 264.836129 119.0203 
L 265.140798 122.818545 
L 265.445466 109.49814 
L 265.750134 84.015354 
L 266.054803 106.970274 
L 266.359471 110.364606 
L 266.664139 139.806486 
L 266.968808 142.453707 
L 267.273476 137.299383 
L 267.578144 123.418887 
L 267.882812 135.514945 
L 268.187481 137.838823 
L 268.492149 105.857982 
L 268.796817 138.970965 
L 269.101486 114.67777 
L 269.406154 131.169358 
L 269.710822 116.721004 
L 270.015491 153.758821 
L 270.320159 124.59249 
L 270.624827 146.695902 
L 270.929496 130.769944 
L 271.234164 135.311241 
L 271.538832 165.198128 
L 271.8435 162.515147 
L 272.148169 171.361867 
L 272.452837 144.289988 
L 272.757505 152.028463 
L 273.062174 164.434425 
L 273.366842 172.306221 
L 273.67151 159.003535 
L 273.976179 153.994333 
L 274.280847 143.58624 
L 274.585515 172.36113 
L 274.890184 175.043686 
L 275.194852 176.164297 
L 275.49952 195.315628 
L 275.804188 185.173186 
L 276.108857 152.89074 
L 276.413525 196.127301 
L 277.022862 159.667473 
L 277.32753 206.346026 
L 277.632198 167.916412 
L 277.936867 197.466778 
L 278.241535 197.592031 
L 278.546203 193.284496 
L 278.850871 193.35511 
L 279.15554 165.853796 
L 279.460208 212.788107 
L 279.764876 195.94098 
L 280.069545 198.231995 
L 280.374213 184.473089 
L 280.678881 205.991965 
L 280.98355 201.70073 
L 281.288218 165.537062 
L 281.592886 188.780953 
L 281.897555 202.749281 
L 282.202223 167.426825 
L 282.506891 204.699877 
L 282.811559 192.034037 
L 283.116228 170.625293 
L 283.420896 212.234886 
L 283.725564 184.319701 
L 284.030233 180.329915 
L 284.334901 200.549583 
L 284.639569 194.282419 
L 284.944238 206.331511 
L 285.553574 171.450557 
L 285.858242 165.082356 
L 286.162911 200.860892 
L 286.467579 168.314411 
L 286.772247 191.226459 
L 287.076916 173.853894 
L 287.381584 185.83989 
L 287.686252 171.037291 
L 287.990921 168.779163 
L 288.295589 187.498796 
L 288.600257 155.107194 
L 288.904926 192.49374 
L 289.209594 187.260221 
L 289.514262 194.754064 
L 289.81893 178.356286 
L 290.123599 175.791263 
L 290.428267 142.326795 
L 290.732935 183.517296 
L 291.037604 136.244524 
L 291.342272 163.596404 
L 291.64694 165.144628 
L 291.951609 155.617511 
L 292.256277 136.393679 
L 292.560945 167.734311 
L 293.170282 143.657924 
L 293.47495 120.828601 
L 293.779618 129.766944 
L 294.084287 129.710428 
L 294.693623 111.538725 
L 294.998292 120.899944 
L 295.30296 153.134241 
L 295.607628 148.677407 
L 295.912297 133.26112 
L 296.216965 110.89602 
L 296.521633 120.313215 
L 296.826301 95.748161 
L 297.13097 98.888832 
L 297.435638 88.969181 
L 297.740306 120.063393 
L 298.044975 96.717823 
L 298.349643 118.140926 
L 298.95898 85.429474 
L 299.263648 103.205122 
L 299.568316 76.701879 
L 299.872984 103.78974 
L 300.177653 92.253505 
L 300.482321 67.527497 
L 300.786989 103.520204 
L 301.091658 80.259861 
L 301.396326 94.666581 
L 301.700994 88.007747 
L 302.005663 91.583644 
L 302.310331 61.811509 
L 302.614999 76.40131 
L 302.919668 100.369588 
L 303.224336 69.536554 
L 303.529004 52.052615 
L 303.833672 75.687075 
L 304.138341 42.714782 
L 304.443009 76.254603 
L 304.747677 86.234317 
L 305.052346 54.852987 
L 305.357014 64.989167 
L 305.661682 57.810414 
L 305.966351 59.179932 
L 306.271019 78.759314 
L 306.575687 31.55507 
L 306.880355 33.086844 
L 307.185024 29.184226 
L 307.489692 70.388638 
L 307.79436 54.734228 
L 308.099029 62.058039 
L 308.403697 28.442841 
L 308.708365 70.470083 
L 309.013034 22.294478 
L 309.317702 36.053806 
L 309.62237 42.165132 
L 309.927039 53.093181 
L 310.231707 45.642261 
L 310.536375 61.830952 
L 310.841043 57.046244 
L 311.145712 46.483526 
L 311.45038 22.32139 
L 311.755048 35.816596 
L 312.059717 28.993585 
L 312.364385 45.990563 
L 312.669053 39.895742 
L 312.973722 49.924233 
L 313.583058 33.282103 
L 313.887727 18.359025 
L 314.192395 52.401915 
L 314.801731 22.085512 
L 315.1064 42.439501 
L 315.411068 33.438012 
L 315.715736 55.198056 
L 316.020405 42.34166 
L 316.325073 42.801606 
L 316.629741 54.617656 
L 316.93441 38.119199 
L 317.239078 43.948774 
L 317.543746 55.074959 
L 317.848414 75.5411 
L 318.153083 55.378354 
L 318.457751 48.641891 
L 318.762419 51.789387 
L 319.067088 38.462688 
L 319.676424 79.250547 
L 319.981093 53.528708 
L 320.590429 89.886266 
L 320.895098 48.009016 
L 321.199766 73.356565 
L 321.504434 64.881472 
L 322.113771 99.565881 
L 322.418439 54.492905 
L 322.723107 73.805776 
L 323.027776 107.157818 
L 323.332444 77.747468 
L 323.637112 82.89454 
L 323.941781 84.689204 
L 324.246449 96.531986 
L 324.551117 94.703614 
L 324.855785 86.487645 
L 325.160454 109.24348 
L 325.76979 117.641405 
L 326.074459 88.985173 
L 326.379127 116.909961 
L 326.683795 117.758199 
L 326.988464 90.414183 
L 327.293132 117.756265 
L 327.5978 98.322098 
L 328.207137 141.68704 
L 328.511805 110.956705 
L 328.816473 105.492874 
L 329.121142 102.826444 
L 329.42581 152.28083 
L 329.730478 157.727121 
L 330.035147 120.517762 
L 330.339815 125.351791 
L 330.644483 156.346651 
L 330.949152 156.998735 
L 331.25382 129.34024 
L 331.558488 145.364332 
L 331.863156 168.561427 
L 332.167825 131.39958 
L 332.472493 134.014006 
L 332.777161 147.026026 
L 333.08183 176.536889 
L 333.386498 180.686148 
L 333.691166 174.08386 
L 333.995835 135.81563 
L 334.300503 175.291642 
L 334.605171 158.605255 
L 334.90984 185.307381 
L 335.214508 183.273191 
L 335.519176 189.811671 
L 335.823844 172.819454 
L 336.128513 188.025391 
L 336.433181 158.917366 
L 337.042518 166.773546 
L 337.347186 156.636536 
L 337.651854 170.826074 
L 337.956523 174.675142 
L 338.261191 190.367107 
L 338.565859 172.89056 
L 338.870527 192.001035 
L 339.175196 171.233709 
L 339.479864 162.169015 
L 339.784532 211.373015 
L 340.089201 210.874557 
L 340.393869 195.652189 
L 340.698537 172.744483 
L 341.003206 191.852426 
L 341.307874 169.046591 
L 341.917211 202.257429 
L 342.221879 166.163718 
L 342.526547 170.630751 
L 342.831215 171.136946 
L 343.135884 184.776935 
L 343.440552 173.688098 
L 343.74522 198.607481 
L 344.049889 190.359915 
L 344.354557 192.297783 
L 344.659225 173.470259 
L 345.268562 203.306767 
L 345.57323 195.394554 
L 345.877898 183.935881 
L 346.182567 162.366713 
L 346.487235 178.941057 
L 346.791903 177.848922 
L 347.096572 196.10829 
L 347.40124 204.881867 
L 347.705908 201.630423 
L 348.010577 179.01736 
L 348.315245 176.069705 
L 348.619913 189.261729 
L 348.924582 166.282232 
L 349.22925 155.498616 
L 349.533918 193.760911 
L 349.838586 188.26491 
L 350.143255 167.85387 
L 350.447923 186.966468 
L 351.05726 140.20422 
L 351.361928 144.435415 
L 351.666596 178.133309 
L 351.971265 163.120884 
L 352.275933 170.955239 
L 352.580601 134.3202 
L 352.88527 173.453681 
L 353.189938 134.016356 
L 353.494606 126.455905 
L 354.103943 152.097899 
L 354.408611 141.115786 
L 354.713279 154.37118 
L 355.017948 139.761421 
L 355.322616 160.396955 
L 355.627284 152.944191 
L 356.845957 105.696666 
L 357.150626 107.88804 
L 357.455294 134.735769 
L 358.064631 119.261306 
L 358.064631 119.261306 
" style="fill:none;stroke:#1f77b4;stroke-linecap:square;stroke-width:1.5;"/>
   </g>
   <g id="patch_3">
    <path d="M 38.482813 224.64 
L 38.482813 7.2 
" style="fill:none;stroke:#000000;stroke-linecap:square;stroke-linejoin:miter;stroke-width:0.8;"/>
   </g>
   <g id="patch_4">
    <path d="M 373.282813 224.64 
L 373.282813 7.2 
" style="fill:none;stroke:#000000;stroke-linecap:square;stroke-linejoin:miter;stroke-width:0.8;"/>
   </g>
   <g id="patch_5">
    <path d="M 38.482813 224.64 
L 373.282813 224.64 
" style="fill:none;stroke:#000000;stroke-linecap:square;stroke-linejoin:miter;stroke-width:0.8;"/>
   </g>
   <g id="patch_6">
    <path d="M 38.482813 7.2 
L 373.282813 7.2 
" style="fill:none;stroke:#000000;stroke-linecap:square;stroke-linejoin:miter;stroke-width:0.8;"/>
   </g>
  </g>
 </g>
 <defs>
  <clipPath id="p12d749294c">
   <rect height="217.44" width="334.8" x="38.482813" y="7.2"/>
  </clipPath>
 </defs>
</svg>
