<?xml version="1.0" encoding="utf-8" standalone="no"?>
<!DOCTYPE svg PUBLIC "-//W3C//DTD SVG 1.1//EN"
  "http://www.w3.org/Graphics/SVG/1.1/DTD/svg11.dtd">
<svg xmlns:xlink="http://www.w3.org/1999/xlink" width="400.523437pt" height="251.025786pt" viewBox="0 0 400.523437 251.025786" xmlns="http://www.w3.org/2000/svg" version="1.1">
 <metadata>
  <rdf:RDF xmlns:dc="http://purl.org/dc/elements/1.1/" xmlns:cc="http://creativecommons.org/ns#" xmlns:rdf="http://www.w3.org/1999/02/22-rdf-syntax-ns#">
   <cc:Work>
    <dc:type rdf:resource="http://purl.org/dc/dcmitype/StillImage"/>
    <dc:date>2022-09-02T17:19:54.525920</dc:date>
    <dc:format>image/svg+xml</dc:format>
    <dc:creator>
     <cc:Agent>
      <dc:title>Matplotlib v3.5.2, https://matplotlib.org/</dc:title>
     </cc:Agent>
    </dc:creator>
   </cc:Work>
  </rdf:RDF>
 </metadata>
 <defs>
  <style type="text/css">*{stroke-linejoin: round; stroke-linecap: butt}</style>
 </defs>
 <g id="figure_1">
  <g id="patch_1">
   <path d="M 0 251.025786 
L 400.523437 251.025786 
L 400.523437 0 
L 0 0 
L 0 251.025786 
z
" style="fill: none"/>
  </g>
  <g id="axes_1">
   <g id="patch_2">
    <path d="M 58.523438 227.147661 
L 393.323438 227.147661 
L 393.323438 9.707661 
L 58.523438 9.707661 
z
" style="fill: #ffffff"/>
   </g>
   <g id="matplotlib.axis_1">
    <g id="xtick_1">
     <g id="line2d_1">
      <defs>
       <path id="m69031ec3aa" d="M 0 0 
L 0 3.5 
" style="stroke: #000000; stroke-width: 0.8"/>
      </defs>
      <g>
       <use xlink:href="#m69031ec3aa" x="73.589133" y="227.147661" style="stroke: #000000; stroke-width: 0.8"/>
      </g>
     </g>
     <g id="text_1">
      <!-- 0 -->
      <g transform="translate(70.407883 241.746098)scale(0.1 -0.1)">
       <defs>
        <path id="DejaVuSans-30" d="M 2034 4250 
Q 1547 4250 1301 3770 
Q 1056 3291 1056 2328 
Q 1056 1369 1301 889 
Q 1547 409 2034 409 
Q 2525 409 2770 889 
Q 3016 1369 3016 2328 
Q 3016 3291 2770 3770 
Q 2525 4250 2034 4250 
z
M 2034 4750 
Q 2819 4750 3233 4129 
Q 3647 3509 3647 2328 
Q 3647 1150 3233 529 
Q 2819 -91 2034 -91 
Q 1250 -91 836 529 
Q 422 1150 422 2328 
Q 422 3509 836 4129 
Q 1250 4750 2034 4750 
z
" transform="scale(0.015625)"/>
       </defs>
       <use xlink:href="#DejaVuSans-30"/>
      </g>
     </g>
    </g>
    <g id="xtick_2">
     <g id="line2d_2">
      <g>
       <use xlink:href="#m69031ec3aa" x="122.078648" y="227.147661" style="stroke: #000000; stroke-width: 0.8"/>
      </g>
     </g>
     <g id="text_2">
      <!-- 1 -->
      <g transform="translate(118.897398 241.746098)scale(0.1 -0.1)">
       <defs>
        <path id="DejaVuSans-31" d="M 794 531 
L 1825 531 
L 1825 4091 
L 703 3866 
L 703 4441 
L 1819 4666 
L 2450 4666 
L 2450 531 
L 3481 531 
L 3481 0 
L 794 0 
L 794 531 
z
" transform="scale(0.015625)"/>
       </defs>
       <use xlink:href="#DejaVuSans-31"/>
      </g>
     </g>
    </g>
    <g id="xtick_3">
     <g id="line2d_3">
      <g>
       <use xlink:href="#m69031ec3aa" x="170.568163" y="227.147661" style="stroke: #000000; stroke-width: 0.8"/>
      </g>
     </g>
     <g id="text_3">
      <!-- 2 -->
      <g transform="translate(167.386913 241.746098)scale(0.1 -0.1)">
       <defs>
        <path id="DejaVuSans-32" d="M 1228 531 
L 3431 531 
L 3431 0 
L 469 0 
L 469 531 
Q 828 903 1448 1529 
Q 2069 2156 2228 2338 
Q 2531 2678 2651 2914 
Q 2772 3150 2772 3378 
Q 2772 3750 2511 3984 
Q 2250 4219 1831 4219 
Q 1534 4219 1204 4116 
Q 875 4013 500 3803 
L 500 4441 
Q 881 4594 1212 4672 
Q 1544 4750 1819 4750 
Q 2544 4750 2975 4387 
Q 3406 4025 3406 3419 
Q 3406 3131 3298 2873 
Q 3191 2616 2906 2266 
Q 2828 2175 2409 1742 
Q 1991 1309 1228 531 
z
" transform="scale(0.015625)"/>
       </defs>
       <use xlink:href="#DejaVuSans-32"/>
      </g>
     </g>
    </g>
    <g id="xtick_4">
     <g id="line2d_4">
      <g>
       <use xlink:href="#m69031ec3aa" x="219.057678" y="227.147661" style="stroke: #000000; stroke-width: 0.8"/>
      </g>
     </g>
     <g id="text_4">
      <!-- 3 -->
      <g transform="translate(215.876428 241.746098)scale(0.1 -0.1)">
       <defs>
        <path id="DejaVuSans-33" d="M 2597 2516 
Q 3050 2419 3304 2112 
Q 3559 1806 3559 1356 
Q 3559 666 3084 287 
Q 2609 -91 1734 -91 
Q 1441 -91 1130 -33 
Q 819 25 488 141 
L 488 750 
Q 750 597 1062 519 
Q 1375 441 1716 441 
Q 2309 441 2620 675 
Q 2931 909 2931 1356 
Q 2931 1769 2642 2001 
Q 2353 2234 1838 2234 
L 1294 2234 
L 1294 2753 
L 1863 2753 
Q 2328 2753 2575 2939 
Q 2822 3125 2822 3475 
Q 2822 3834 2567 4026 
Q 2313 4219 1838 4219 
Q 1578 4219 1281 4162 
Q 984 4106 628 3988 
L 628 4550 
Q 988 4650 1302 4700 
Q 1616 4750 1894 4750 
Q 2613 4750 3031 4423 
Q 3450 4097 3450 3541 
Q 3450 3153 3228 2886 
Q 3006 2619 2597 2516 
z
" transform="scale(0.015625)"/>
       </defs>
       <use xlink:href="#DejaVuSans-33"/>
      </g>
     </g>
    </g>
    <g id="xtick_5">
     <g id="line2d_5">
      <g>
       <use xlink:href="#m69031ec3aa" x="267.547194" y="227.147661" style="stroke: #000000; stroke-width: 0.8"/>
      </g>
     </g>
     <g id="text_5">
      <!-- 4 -->
      <g transform="translate(264.365944 241.746098)scale(0.1 -0.1)">
       <defs>
        <path id="DejaVuSans-34" d="M 2419 4116 
L 825 1625 
L 2419 1625 
L 2419 4116 
z
M 2253 4666 
L 3047 4666 
L 3047 1625 
L 3713 1625 
L 3713 1100 
L 3047 1100 
L 3047 0 
L 2419 0 
L 2419 1100 
L 313 1100 
L 313 1709 
L 2253 4666 
z
" transform="scale(0.015625)"/>
       </defs>
       <use xlink:href="#DejaVuSans-34"/>
      </g>
     </g>
    </g>
    <g id="xtick_6">
     <g id="line2d_6">
      <g>
       <use xlink:href="#m69031ec3aa" x="316.036709" y="227.147661" style="stroke: #000000; stroke-width: 0.8"/>
      </g>
     </g>
     <g id="text_6">
      <!-- 5 -->
      <g transform="translate(312.855459 241.746098)scale(0.1 -0.1)">
       <defs>
        <path id="DejaVuSans-35" d="M 691 4666 
L 3169 4666 
L 3169 4134 
L 1269 4134 
L 1269 2991 
Q 1406 3038 1543 3061 
Q 1681 3084 1819 3084 
Q 2600 3084 3056 2656 
Q 3513 2228 3513 1497 
Q 3513 744 3044 326 
Q 2575 -91 1722 -91 
Q 1428 -91 1123 -41 
Q 819 9 494 109 
L 494 744 
Q 775 591 1075 516 
Q 1375 441 1709 441 
Q 2250 441 2565 725 
Q 2881 1009 2881 1497 
Q 2881 1984 2565 2268 
Q 2250 2553 1709 2553 
Q 1456 2553 1204 2497 
Q 953 2441 691 2322 
L 691 4666 
z
" transform="scale(0.015625)"/>
       </defs>
       <use xlink:href="#DejaVuSans-35"/>
      </g>
     </g>
    </g>
    <g id="xtick_7">
     <g id="line2d_7">
      <g>
       <use xlink:href="#m69031ec3aa" x="364.526224" y="227.147661" style="stroke: #000000; stroke-width: 0.8"/>
      </g>
     </g>
     <g id="text_7">
      <!-- 6 -->
      <g transform="translate(361.344974 241.746098)scale(0.1 -0.1)">
       <defs>
        <path id="DejaVuSans-36" d="M 2113 2584 
Q 1688 2584 1439 2293 
Q 1191 2003 1191 1497 
Q 1191 994 1439 701 
Q 1688 409 2113 409 
Q 2538 409 2786 701 
Q 3034 994 3034 1497 
Q 3034 2003 2786 2293 
Q 2538 2584 2113 2584 
z
M 3366 4563 
L 3366 3988 
Q 3128 4100 2886 4159 
Q 2644 4219 2406 4219 
Q 1781 4219 1451 3797 
Q 1122 3375 1075 2522 
Q 1259 2794 1537 2939 
Q 1816 3084 2150 3084 
Q 2853 3084 3261 2657 
Q 3669 2231 3669 1497 
Q 3669 778 3244 343 
Q 2819 -91 2113 -91 
Q 1303 -91 875 529 
Q 447 1150 447 2328 
Q 447 3434 972 4092 
Q 1497 4750 2381 4750 
Q 2619 4750 2861 4703 
Q 3103 4656 3366 4563 
z
" transform="scale(0.015625)"/>
       </defs>
       <use xlink:href="#DejaVuSans-36"/>
      </g>
     </g>
    </g>
   </g>
   <g id="matplotlib.axis_2">
    <g id="ytick_1">
     <g id="line2d_8">
      <defs>
       <path id="m16e098cbd5" d="M 0 0 
L -3.5 0 
" style="stroke: #000000; stroke-width: 0.8"/>
      </defs>
      <g>
       <use xlink:href="#m16e098cbd5" x="58.523438" y="203.36085" style="stroke: #000000; stroke-width: 0.8"/>
      </g>
     </g>
     <g id="text_8">
      <!-- −0.06 -->
      <g transform="translate(20.878125 207.160068)scale(0.1 -0.1)">
       <defs>
        <path id="DejaVuSans-2212" d="M 678 2272 
L 4684 2272 
L 4684 1741 
L 678 1741 
L 678 2272 
z
" transform="scale(0.015625)"/>
        <path id="DejaVuSans-2e" d="M 684 794 
L 1344 794 
L 1344 0 
L 684 0 
L 684 794 
z
" transform="scale(0.015625)"/>
       </defs>
       <use xlink:href="#DejaVuSans-2212"/>
       <use xlink:href="#DejaVuSans-30" x="83.789062"/>
       <use xlink:href="#DejaVuSans-2e" x="147.412109"/>
       <use xlink:href="#DejaVuSans-30" x="179.199219"/>
       <use xlink:href="#DejaVuSans-36" x="242.822266"/>
      </g>
     </g>
    </g>
    <g id="ytick_2">
     <g id="line2d_9">
      <g>
       <use xlink:href="#m16e098cbd5" x="58.523438" y="175.880617" style="stroke: #000000; stroke-width: 0.8"/>
      </g>
     </g>
     <g id="text_9">
      <!-- −0.04 -->
      <g transform="translate(20.878125 179.679835)scale(0.1 -0.1)">
       <use xlink:href="#DejaVuSans-2212"/>
       <use xlink:href="#DejaVuSans-30" x="83.789062"/>
       <use xlink:href="#DejaVuSans-2e" x="147.412109"/>
       <use xlink:href="#DejaVuSans-30" x="179.199219"/>
       <use xlink:href="#DejaVuSans-34" x="242.822266"/>
      </g>
     </g>
    </g>
    <g id="ytick_3">
     <g id="line2d_10">
      <g>
       <use xlink:href="#m16e098cbd5" x="58.523438" y="148.400384" style="stroke: #000000; stroke-width: 0.8"/>
      </g>
     </g>
     <g id="text_10">
      <!-- −0.02 -->
      <g transform="translate(20.878125 152.199602)scale(0.1 -0.1)">
       <use xlink:href="#DejaVuSans-2212"/>
       <use xlink:href="#DejaVuSans-30" x="83.789062"/>
       <use xlink:href="#DejaVuSans-2e" x="147.412109"/>
       <use xlink:href="#DejaVuSans-30" x="179.199219"/>
       <use xlink:href="#DejaVuSans-32" x="242.822266"/>
      </g>
     </g>
    </g>
    <g id="ytick_4">
     <g id="line2d_11">
      <g>
       <use xlink:href="#m16e098cbd5" x="58.523438" y="120.920151" style="stroke: #000000; stroke-width: 0.8"/>
      </g>
     </g>
     <g id="text_11">
      <!-- 0.00 -->
      <g transform="translate(29.257813 124.719369)scale(0.1 -0.1)">
       <use xlink:href="#DejaVuSans-30"/>
       <use xlink:href="#DejaVuSans-2e" x="63.623047"/>
       <use xlink:href="#DejaVuSans-30" x="95.410156"/>
       <use xlink:href="#DejaVuSans-30" x="159.033203"/>
      </g>
     </g>
    </g>
    <g id="ytick_5">
     <g id="line2d_12">
      <g>
       <use xlink:href="#m16e098cbd5" x="58.523438" y="93.439918" style="stroke: #000000; stroke-width: 0.8"/>
      </g>
     </g>
     <g id="text_12">
      <!-- 0.02 -->
      <g transform="translate(29.257813 97.239136)scale(0.1 -0.1)">
       <use xlink:href="#DejaVuSans-30"/>
       <use xlink:href="#DejaVuSans-2e" x="63.623047"/>
       <use xlink:href="#DejaVuSans-30" x="95.410156"/>
       <use xlink:href="#DejaVuSans-32" x="159.033203"/>
      </g>
     </g>
    </g>
    <g id="ytick_6">
     <g id="line2d_13">
      <g>
       <use xlink:href="#m16e098cbd5" x="58.523438" y="65.959685" style="stroke: #000000; stroke-width: 0.8"/>
      </g>
     </g>
     <g id="text_13">
      <!-- 0.04 -->
      <g transform="translate(29.257813 69.758903)scale(0.1 -0.1)">
       <use xlink:href="#DejaVuSans-30"/>
       <use xlink:href="#DejaVuSans-2e" x="63.623047"/>
       <use xlink:href="#DejaVuSans-30" x="95.410156"/>
       <use xlink:href="#DejaVuSans-34" x="159.033203"/>
      </g>
     </g>
    </g>
    <g id="ytick_7">
     <g id="line2d_14">
      <g>
       <use xlink:href="#m16e098cbd5" x="58.523438" y="38.479452" style="stroke: #000000; stroke-width: 0.8"/>
      </g>
     </g>
     <g id="text_14">
      <!-- 0.06 -->
      <g transform="translate(29.257813 42.27867)scale(0.1 -0.1)">
       <use xlink:href="#DejaVuSans-30"/>
       <use xlink:href="#DejaVuSans-2e" x="63.623047"/>
       <use xlink:href="#DejaVuSans-30" x="95.410156"/>
       <use xlink:href="#DejaVuSans-36" x="159.033203"/>
      </g>
     </g>
    </g>
    <g id="ytick_8">
     <g id="line2d_15">
      <g>
       <use xlink:href="#m16e098cbd5" x="58.523438" y="10.999219" style="stroke: #000000; stroke-width: 0.8"/>
      </g>
     </g>
     <g id="text_15">
      <!-- 0.08 -->
      <g transform="translate(29.257813 14.798437)scale(0.1 -0.1)">
       <defs>
        <path id="DejaVuSans-38" d="M 2034 2216 
Q 1584 2216 1326 1975 
Q 1069 1734 1069 1313 
Q 1069 891 1326 650 
Q 1584 409 2034 409 
Q 2484 409 2743 651 
Q 3003 894 3003 1313 
Q 3003 1734 2745 1975 
Q 2488 2216 2034 2216 
z
M 1403 2484 
Q 997 2584 770 2862 
Q 544 3141 544 3541 
Q 544 4100 942 4425 
Q 1341 4750 2034 4750 
Q 2731 4750 3128 4425 
Q 3525 4100 3525 3541 
Q 3525 3141 3298 2862 
Q 3072 2584 2669 2484 
Q 3125 2378 3379 2068 
Q 3634 1759 3634 1313 
Q 3634 634 3220 271 
Q 2806 -91 2034 -91 
Q 1263 -91 848 271 
Q 434 634 434 1313 
Q 434 1759 690 2068 
Q 947 2378 1403 2484 
z
M 1172 3481 
Q 1172 3119 1398 2916 
Q 1625 2713 2034 2713 
Q 2441 2713 2670 2916 
Q 2900 3119 2900 3481 
Q 2900 3844 2670 4047 
Q 2441 4250 2034 4250 
Q 1625 4250 1398 4047 
Q 1172 3844 1172 3481 
z
" transform="scale(0.015625)"/>
       </defs>
       <use xlink:href="#DejaVuSans-30"/>
       <use xlink:href="#DejaVuSans-2e" x="63.623047"/>
       <use xlink:href="#DejaVuSans-30" x="95.410156"/>
       <use xlink:href="#DejaVuSans-38" x="159.033203"/>
      </g>
     </g>
    </g>
    <g id="text_16">
     <!-- Slope, dx/dy -->
     <g transform="translate(14.798438 149.430786)rotate(-90)scale(0.1 -0.1)">
      <defs>
       <path id="DejaVuSans-53" d="M 3425 4513 
L 3425 3897 
Q 3066 4069 2747 4153 
Q 2428 4238 2131 4238 
Q 1616 4238 1336 4038 
Q 1056 3838 1056 3469 
Q 1056 3159 1242 3001 
Q 1428 2844 1947 2747 
L 2328 2669 
Q 3034 2534 3370 2195 
Q 3706 1856 3706 1288 
Q 3706 609 3251 259 
Q 2797 -91 1919 -91 
Q 1588 -91 1214 -16 
Q 841 59 441 206 
L 441 856 
Q 825 641 1194 531 
Q 1563 422 1919 422 
Q 2459 422 2753 634 
Q 3047 847 3047 1241 
Q 3047 1584 2836 1778 
Q 2625 1972 2144 2069 
L 1759 2144 
Q 1053 2284 737 2584 
Q 422 2884 422 3419 
Q 422 4038 858 4394 
Q 1294 4750 2059 4750 
Q 2388 4750 2728 4690 
Q 3069 4631 3425 4513 
z
" transform="scale(0.015625)"/>
       <path id="DejaVuSans-6c" d="M 603 4863 
L 1178 4863 
L 1178 0 
L 603 0 
L 603 4863 
z
" transform="scale(0.015625)"/>
       <path id="DejaVuSans-6f" d="M 1959 3097 
Q 1497 3097 1228 2736 
Q 959 2375 959 1747 
Q 959 1119 1226 758 
Q 1494 397 1959 397 
Q 2419 397 2687 759 
Q 2956 1122 2956 1747 
Q 2956 2369 2687 2733 
Q 2419 3097 1959 3097 
z
M 1959 3584 
Q 2709 3584 3137 3096 
Q 3566 2609 3566 1747 
Q 3566 888 3137 398 
Q 2709 -91 1959 -91 
Q 1206 -91 779 398 
Q 353 888 353 1747 
Q 353 2609 779 3096 
Q 1206 3584 1959 3584 
z
" transform="scale(0.015625)"/>
       <path id="DejaVuSans-70" d="M 1159 525 
L 1159 -1331 
L 581 -1331 
L 581 3500 
L 1159 3500 
L 1159 2969 
Q 1341 3281 1617 3432 
Q 1894 3584 2278 3584 
Q 2916 3584 3314 3078 
Q 3713 2572 3713 1747 
Q 3713 922 3314 415 
Q 2916 -91 2278 -91 
Q 1894 -91 1617 61 
Q 1341 213 1159 525 
z
M 3116 1747 
Q 3116 2381 2855 2742 
Q 2594 3103 2138 3103 
Q 1681 3103 1420 2742 
Q 1159 2381 1159 1747 
Q 1159 1113 1420 752 
Q 1681 391 2138 391 
Q 2594 391 2855 752 
Q 3116 1113 3116 1747 
z
" transform="scale(0.015625)"/>
       <path id="DejaVuSans-65" d="M 3597 1894 
L 3597 1613 
L 953 1613 
Q 991 1019 1311 708 
Q 1631 397 2203 397 
Q 2534 397 2845 478 
Q 3156 559 3463 722 
L 3463 178 
Q 3153 47 2828 -22 
Q 2503 -91 2169 -91 
Q 1331 -91 842 396 
Q 353 884 353 1716 
Q 353 2575 817 3079 
Q 1281 3584 2069 3584 
Q 2775 3584 3186 3129 
Q 3597 2675 3597 1894 
z
M 3022 2063 
Q 3016 2534 2758 2815 
Q 2500 3097 2075 3097 
Q 1594 3097 1305 2825 
Q 1016 2553 972 2059 
L 3022 2063 
z
" transform="scale(0.015625)"/>
       <path id="DejaVuSans-2c" d="M 750 794 
L 1409 794 
L 1409 256 
L 897 -744 
L 494 -744 
L 750 256 
L 750 794 
z
" transform="scale(0.015625)"/>
       <path id="DejaVuSans-20" transform="scale(0.015625)"/>
       <path id="DejaVuSans-64" d="M 2906 2969 
L 2906 4863 
L 3481 4863 
L 3481 0 
L 2906 0 
L 2906 525 
Q 2725 213 2448 61 
Q 2172 -91 1784 -91 
Q 1150 -91 751 415 
Q 353 922 353 1747 
Q 353 2572 751 3078 
Q 1150 3584 1784 3584 
Q 2172 3584 2448 3432 
Q 2725 3281 2906 2969 
z
M 947 1747 
Q 947 1113 1208 752 
Q 1469 391 1925 391 
Q 2381 391 2643 752 
Q 2906 1113 2906 1747 
Q 2906 2381 2643 2742 
Q 2381 3103 1925 3103 
Q 1469 3103 1208 2742 
Q 947 2381 947 1747 
z
" transform="scale(0.015625)"/>
       <path id="DejaVuSans-78" d="M 3513 3500 
L 2247 1797 
L 3578 0 
L 2900 0 
L 1881 1375 
L 863 0 
L 184 0 
L 1544 1831 
L 300 3500 
L 978 3500 
L 1906 2253 
L 2834 3500 
L 3513 3500 
z
" transform="scale(0.015625)"/>
       <path id="DejaVuSans-2f" d="M 1625 4666 
L 2156 4666 
L 531 -594 
L 0 -594 
L 1625 4666 
z
" transform="scale(0.015625)"/>
       <path id="DejaVuSans-79" d="M 2059 -325 
Q 1816 -950 1584 -1140 
Q 1353 -1331 966 -1331 
L 506 -1331 
L 506 -850 
L 844 -850 
Q 1081 -850 1212 -737 
Q 1344 -625 1503 -206 
L 1606 56 
L 191 3500 
L 800 3500 
L 1894 763 
L 2988 3500 
L 3597 3500 
L 2059 -325 
z
" transform="scale(0.015625)"/>
      </defs>
      <use xlink:href="#DejaVuSans-53"/>
      <use xlink:href="#DejaVuSans-6c" x="63.476562"/>
      <use xlink:href="#DejaVuSans-6f" x="91.259766"/>
      <use xlink:href="#DejaVuSans-70" x="152.441406"/>
      <use xlink:href="#DejaVuSans-65" x="215.917969"/>
      <use xlink:href="#DejaVuSans-2c" x="277.441406"/>
      <use xlink:href="#DejaVuSans-20" x="309.228516"/>
      <use xlink:href="#DejaVuSans-64" x="341.015625"/>
      <use xlink:href="#DejaVuSans-78" x="404.492188"/>
      <use xlink:href="#DejaVuSans-2f" x="463.671875"/>
      <use xlink:href="#DejaVuSans-64" x="497.363281"/>
      <use xlink:href="#DejaVuSans-79" x="560.839844"/>
     </g>
    </g>
   </g>
   <g id="line2d_16">
    <path d="M 73.741619 177.168897 
L 74.046593 107.136517 
L 74.351566 112.96404 
L 74.65654 134.1189 
L 74.961514 62.889935 
L 75.266487 72.150108 
L 75.571461 128.468548 
L 75.876434 129.062329 
L 76.181408 113.010862 
L 76.486382 124.092521 
L 76.791355 94.857543 
L 77.401302 110.903456 
L 77.706276 129.671914 
L 78.011249 76.370773 
L 78.316223 121.89362 
L 78.621197 103.946504 
L 78.92617 196.171268 
L 79.231144 58.041392 
L 79.536117 105.949057 
L 79.841091 128.971732 
L 80.146065 108.630451 
L 80.451038 157.773436 
L 80.756012 104.771981 
L 81.060985 73.580248 
L 81.365959 161.612435 
L 81.670932 61.173034 
L 81.975906 119.589601 
L 82.28088 102.120404 
L 82.585853 124.192352 
L 82.890827 81.518802 
L 83.1958 105.765553 
L 83.500774 173.700596 
L 83.805748 100.77543 
L 84.110721 101.538365 
L 84.415695 118.560358 
L 84.720668 111.853135 
L 85.025642 95.867076 
L 85.330615 90.820013 
L 85.635589 146.799272 
L 85.940563 75.28009 
L 86.245536 141.00332 
L 86.55051 142.724369 
L 86.855483 60.19509 
L 87.160457 117.348862 
L 87.465431 137.275047 
L 87.770404 98.162819 
L 88.075378 84.81989 
L 88.380351 138.951638 
L 88.685325 82.640874 
L 88.990298 174.745027 
L 89.295272 50.026483 
L 89.600246 160.945078 
L 90.210193 65.126987 
L 90.515166 116.898285 
L 90.82014 198.71715 
L 91.125114 108.247586 
L 91.735061 96.387588 
L 92.040034 108.895734 
L 92.345008 82.314776 
L 92.649981 117.116889 
L 92.954955 169.20909 
L 93.259929 88.038679 
L 93.564902 64.433783 
L 93.869876 158.429292 
L 94.174849 106.115758 
L 94.479823 143.828903 
L 94.784797 40.965897 
L 95.394744 147.667349 
L 95.699717 127.510432 
L 96.004691 140.013073 
L 96.309664 103.634319 
L 96.614638 110.176921 
L 96.919612 88.197457 
L 97.224585 86.709884 
L 97.529559 139.586928 
L 97.834532 150.672238 
L 98.139506 56.400187 
L 98.44448 170.448299 
L 98.749453 118.435348 
L 99.054427 109.058545 
L 99.3594 114.505269 
L 99.664374 103.393124 
L 99.969348 134.129494 
L 100.274321 106.269176 
L 100.884268 95.030388 
L 101.189242 111.933055 
L 101.494215 77.874895 
L 101.799189 127.935709 
L 102.104163 137.857262 
L 102.409136 73.944037 
L 102.71411 150.720044 
L 103.019083 153.464506 
L 103.324057 54.745082 
L 103.629031 125.26406 
L 103.934004 96.157942 
L 104.238978 127.451964 
L 104.543951 139.583726 
L 104.848925 129.999002 
L 105.153898 92.954352 
L 105.458872 83.545898 
L 106.068819 110.109708 
L 106.373793 139.187947 
L 106.678766 101.662499 
L 106.98374 186.460733 
L 107.288714 93.747366 
L 107.593687 89.026712 
L 107.898661 126.153492 
L 108.203634 78.114232 
L 108.508608 151.826881 
L 108.813581 127.220179 
L 109.118555 69.799928 
L 109.423529 89.114722 
L 110.033476 186.933725 
L 110.338449 72.049825 
L 110.643423 133.696677 
L 110.948397 68.27104 
L 111.25337 125.873345 
L 111.558344 88.472792 
L 111.863317 114.102441 
L 112.168291 167.938741 
L 112.473264 66.695942 
L 112.778238 178.377764 
L 113.083212 90.742587 
L 113.388185 79.28088 
L 113.693159 188.592858 
L 113.998132 100.648734 
L 114.303106 87.578458 
L 114.60808 116.81602 
L 114.913053 123.364404 
L 115.218027 113.672954 
L 115.523 131.01954 
L 116.132947 64.06742 
L 116.437921 116.689967 
L 116.742895 123.904889 
L 117.047868 120.213603 
L 117.352842 182.728642 
L 117.657815 43.552592 
L 117.962789 140.600979 
L 118.267763 154.629611 
L 118.572736 89.475004 
L 118.87771 91.995782 
L 119.182683 141.897219 
L 119.487657 73.979566 
L 119.79263 179.14151 
L 120.097604 90.621977 
L 120.402578 154.807442 
L 120.707551 60.681604 
L 121.012525 149.248486 
L 121.317498 83.705159 
L 121.622472 140.674449 
L 121.927446 83.729503 
L 122.232419 144.116407 
L 122.537393 107.14912 
L 122.842366 131.071153 
L 123.14734 78.411848 
L 123.452313 137.026822 
L 123.757287 93.057038 
L 124.062261 140.281302 
L 124.367234 167.360075 
L 124.672208 37.211639 
L 124.977181 128.058102 
L 125.282155 143.074736 
L 125.587129 96.522482 
L 125.892102 179.672645 
L 126.197076 97.213635 
L 126.502049 54.789784 
L 126.807023 195.356091 
L 127.111996 75.29043 
L 127.41697 74.098206 
L 127.721944 182.923208 
L 128.026917 137.02455 
L 128.331891 47.071195 
L 128.636864 156.022748 
L 128.941838 72.280209 
L 129.551785 129.310333 
L 129.856759 199.080186 
L 130.161732 102.266098 
L 130.466706 98.249899 
L 130.771679 85.45519 
L 131.076653 105.424966 
L 131.381627 199.108229 
L 131.6866 29.077949 
L 131.991574 193.916756 
L 132.296547 87.551343 
L 132.601521 90.378751 
L 132.906495 107.233638 
L 133.211468 145.821566 
L 133.516442 95.598476 
L 133.821415 141.68071 
L 134.126389 105.421472 
L 134.431362 121.17662 
L 134.736336 166.452544 
L 135.04131 59.021147 
L 135.346283 149.379959 
L 135.651257 129.201646 
L 135.95623 88.306677 
L 136.261204 87.087916 
L 136.566178 125.450203 
L 136.871151 201.814648 
L 137.176125 110.366062 
L 137.481098 97.667384 
L 137.786072 139.246998 
L 138.091045 96.163164 
L 138.396019 134.206664 
L 138.700993 83.96931 
L 139.005966 132.991627 
L 139.31094 143.372516 
L 139.615913 99.820584 
L 139.920887 93.817701 
L 140.225861 179.931737 
L 140.530834 33.144265 
L 140.835808 126.783493 
L 141.140781 183.524745 
L 141.445755 133.722982 
L 141.750728 32.397512 
L 142.055702 167.452363 
L 142.360676 110.626754 
L 142.665649 78.923648 
L 142.970623 157.648386 
L 143.58057 102.051663 
L 143.885544 108.840412 
L 144.190517 133.383727 
L 144.495491 95.819229 
L 144.800464 170.826751 
L 145.105438 120.022294 
L 145.410411 110.135899 
L 145.715385 72.7528 
L 146.020359 166.799487 
L 146.325332 95.393179 
L 146.630306 172.210552 
L 146.935279 94.605551 
L 147.240253 105.713632 
L 147.545227 82.670938 
L 147.8502 140.497738 
L 148.155174 102.020476 
L 148.460147 190.669932 
L 148.765121 81.90822 
L 149.070094 165.623076 
L 149.375068 129.833849 
L 149.680042 49.106931 
L 149.985015 167.426504 
L 150.289989 106.208202 
L 150.594962 160.162836 
L 150.899936 87.749032 
L 151.509883 146.170736 
L 151.814857 124.755895 
L 152.11983 80.6833 
L 152.424804 142.849865 
L 152.729777 66.581795 
L 153.034751 121.776645 
L 153.339725 134.727682 
L 153.644698 112.160431 
L 153.949672 163.823078 
L 154.254645 150.079638 
L 154.559619 75.296556 
L 155.169566 153.985975 
L 155.47454 108.567694 
L 155.779513 99.053404 
L 156.084487 138.532253 
L 156.38946 114.389873 
L 156.694434 165.185442 
L 156.999408 76.672834 
L 157.304381 145.922135 
L 157.609355 87.29128 
L 157.914328 170.694816 
L 158.219302 155.305828 
L 158.524276 67.089367 
L 158.829249 130.05165 
L 159.134223 152.185782 
L 159.439196 51.785254 
L 159.74417 178.168643 
L 160.049143 75.027518 
L 160.354117 178.721169 
L 160.659091 115.086403 
L 160.964064 74.855971 
L 161.269038 176.422499 
L 161.574011 100.288514 
L 161.878985 156.011034 
L 162.183959 138.851664 
L 162.488932 75.646038 
L 162.793906 136.519479 
L 163.098879 81.178195 
L 163.403853 189.932843 
L 163.708826 97.161992 
L 164.0138 88.214504 
L 164.318774 109.779685 
L 164.623747 196.318077 
L 164.928721 113.745074 
L 165.233694 139.29801 
L 165.538668 97.823688 
L 165.843642 110.700347 
L 166.148615 117.265098 
L 166.453589 161.674323 
L 166.758562 87.884501 
L 167.063536 157.416352 
L 167.368509 120.937686 
L 167.673483 123.425529 
L 167.978457 77.769177 
L 168.28343 151.720516 
L 168.588404 89.328628 
L 168.893377 112.25169 
L 169.198351 122.551843 
L 169.503325 152.30545 
L 169.808298 109.93258 
L 170.113272 134.229193 
L 170.418245 189.501554 
L 170.723219 51.348485 
L 171.028192 148.932844 
L 171.333166 96.134982 
L 171.63814 175.356677 
L 171.943113 61.500902 
L 172.248087 188.11151 
L 172.55306 64.339934 
L 172.858034 172.850694 
L 173.163008 117.266961 
L 173.467981 120.078303 
L 173.772955 160.580044 
L 174.077928 57.605245 
L 174.382902 193.019707 
L 174.687875 136.632461 
L 174.992849 124.43951 
L 175.297823 82.66072 
L 175.602796 87.732571 
L 175.90777 189.765303 
L 176.212743 139.277348 
L 176.822691 87.322111 
L 177.127664 176.907413 
L 177.432638 52.446525 
L 177.737611 204.592123 
L 178.042585 79.607437 
L 178.347558 120.151153 
L 178.652532 134.100417 
L 178.957506 162.799463 
L 179.262479 65.885006 
L 179.567453 163.80814 
L 179.872426 88.299537 
L 180.1774 151.226273 
L 180.482374 94.404014 
L 181.092321 181.24802 
L 181.397294 83.553012 
L 181.702268 142.161575 
L 182.007241 104.646806 
L 182.312215 138.521475 
L 182.617189 85.878815 
L 182.922162 152.951571 
L 183.227136 153.321937 
L 183.532109 137.995907 
L 183.837083 140.793448 
L 184.142057 98.113854 
L 184.44703 87.765767 
L 184.752004 124.858776 
L 185.056977 192.306654 
L 185.361951 117.628199 
L 185.666924 101.028928 
L 185.971898 141.077107 
L 186.581845 92.503192 
L 186.886819 195.827018 
L 187.191792 97.290605 
L 187.496766 169.281062 
L 187.80174 115.493648 
L 188.106713 124.39577 
L 188.411687 83.576857 
L 188.71666 183.862558 
L 189.021634 109.539278 
L 189.326607 68.927114 
L 189.631581 143.20624 
L 190.241528 107.572228 
L 190.546502 197.284336 
L 190.851475 133.318327 
L 191.156449 125.092357 
L 191.461423 59.459193 
L 191.766396 168.173608 
L 192.07137 70.875502 
L 192.376343 166.131213 
L 192.681317 154.728611 
L 192.98629 115.943594 
L 193.291264 108.973767 
L 193.596238 166.794962 
L 193.901211 111.33733 
L 194.206185 127.07628 
L 194.511158 92.859615 
L 194.816132 194.600387 
L 195.121106 92.102086 
L 195.426079 116.378533 
L 195.731053 130.916596 
L 196.036026 172.092401 
L 196.341 111.407643 
L 196.645973 108.397196 
L 196.950947 147.281289 
L 197.255921 62.212349 
L 197.560894 168.085692 
L 197.865868 89.828393 
L 198.170841 136.258959 
L 198.475815 151.651708 
L 198.780789 107.3286 
L 199.085762 112.44305 
L 199.390736 161.240212 
L 199.695709 176.427098 
L 200.000683 93.650631 
L 200.305656 170.008467 
L 200.61063 39.450662 
L 200.915604 217.264025 
L 201.220577 46.524908 
L 201.525551 145.081628 
L 201.830524 182.8944 
L 202.135498 90.131734 
L 202.440472 147.184758 
L 202.745445 141.028903 
L 203.050419 105.373192 
L 203.355392 125.550071 
L 203.660366 81.638981 
L 204.270313 182.136606 
L 204.575287 100.521417 
L 204.88026 142.208455 
L 205.185234 104.09898 
L 205.490207 161.794601 
L 205.795181 152.010785 
L 206.100155 98.567078 
L 206.405128 120.566178 
L 206.710102 95.420841 
L 207.015075 139.692928 
L 207.320049 136.862672 
L 207.625022 170.602235 
L 207.929996 73.781507 
L 208.23497 163.459082 
L 208.539943 163.916563 
L 208.844917 58.629848 
L 209.14989 213.401789 
L 209.454864 44.802464 
L 209.759838 200.014449 
L 210.064811 101.50668 
L 210.369785 169.054289 
L 210.674758 83.638151 
L 210.979732 104.592157 
L 211.284705 146.112968 
L 211.589679 104.838809 
L 211.894653 119.198215 
L 212.199626 150.865143 
L 212.5046 113.18437 
L 212.809573 209.446882 
L 213.114547 113.276197 
L 213.419521 72.527405 
L 213.724494 118.571882 
L 214.029468 130.169299 
L 214.334441 162.102605 
L 214.639415 166.444239 
L 214.944388 78.307908 
L 215.249362 163.714363 
L 215.554336 143.802852 
L 215.859309 105.949387 
L 216.164283 149.140254 
L 216.469256 128.309594 
L 216.77423 139.267751 
L 217.079204 141.406559 
L 217.384177 78.470745 
L 217.689151 179.25841 
L 217.994124 74.528986 
L 218.299098 183.988976 
L 218.604071 100.75684 
L 218.909045 68.891863 
L 219.214019 154.73052 
L 219.518992 160.45523 
L 219.823966 143.000307 
L 220.128939 68.077393 
L 220.433913 126.313405 
L 220.738887 135.811977 
L 221.04386 151.506738 
L 221.348834 112.503589 
L 221.653807 185.362479 
L 221.958781 81.106155 
L 222.263754 139.880189 
L 222.568728 103.918255 
L 222.873702 162.844561 
L 223.178675 96.233459 
L 223.483649 163.705366 
L 223.788622 90.688308 
L 224.39857 165.014162 
L 224.703543 116.784143 
L 225.008517 181.079491 
L 225.31349 64.381018 
L 225.618464 169.738338 
L 226.228411 77.545954 
L 226.838358 186.194454 
L 227.143332 84.686072 
L 227.448305 157.098304 
L 227.753279 159.890531 
L 228.058253 141.104099 
L 228.363226 81.755097 
L 228.6682 146.291387 
L 228.973173 96.399773 
L 229.583121 176.57453 
L 229.888094 66.931985 
L 230.193068 211.612306 
L 230.498041 102.463011 
L 230.803015 154.428828 
L 231.107988 58.130852 
L 231.412962 111.855732 
L 231.717936 215.255501 
L 232.022909 84.287286 
L 232.327883 152.422419 
L 232.632856 134.899132 
L 232.93783 85.972582 
L 233.242804 118.816174 
L 233.547777 120.767877 
L 233.852751 186.555622 
L 234.157724 102.726521 
L 234.462698 173.419797 
L 234.767671 93.987903 
L 235.072645 85.125138 
L 235.377619 201.599307 
L 235.682592 96.79982 
L 235.987566 137.209905 
L 236.292539 86.553944 
L 236.597513 144.912191 
L 236.902487 111.706454 
L 237.20746 171.93116 
L 237.512434 157.457721 
L 237.817407 128.054984 
L 238.122381 135.131862 
L 238.427354 131.24558 
L 238.732328 55.199445 
L 239.037302 158.292075 
L 239.342275 120.969482 
L 239.647249 190.93343 
L 239.952222 41.647394 
L 240.56217 190.292204 
L 240.867143 157.806042 
L 241.172117 100.325544 
L 241.47709 135.029241 
L 241.782064 65.381539 
L 242.087037 170.68918 
L 242.392011 104.04316 
L 242.696985 172.918421 
L 243.001958 104.637013 
L 243.306932 118.59821 
L 243.611905 115.922308 
L 244.221853 160.782794 
L 244.526826 94.816381 
L 244.8318 133.951988 
L 245.136773 105.869054 
L 245.441747 185.90087 
L 245.74672 78.279564 
L 246.051694 160.790117 
L 246.356668 136.734596 
L 246.661641 148.51049 
L 246.966615 108.341962 
L 247.271588 85.978261 
L 247.881536 194.950304 
L 248.491483 67.884817 
L 249.10143 200.831604 
L 249.406403 59.606557 
L 249.711377 160.619114 
L 250.016351 144.761616 
L 250.321324 110.317547 
L 250.626298 114.046303 
L 250.931271 164.717309 
L 251.236245 134.796795 
L 251.541219 144.024105 
L 251.846192 116.572309 
L 252.151166 54.497806 
L 252.456139 196.321936 
L 252.761113 91.716939 
L 253.066086 110.141394 
L 253.37106 167.988754 
L 253.676034 98.683763 
L 253.981007 161.084982 
L 254.285981 88.976504 
L 254.590954 192.549687 
L 254.895928 77.857782 
L 255.810849 172.904913 
L 256.420796 123.58811 
L 256.725769 85.582682 
L 257.030743 168.304821 
L 257.335717 64.82986 
L 257.64069 163.557693 
L 257.945664 149.585162 
L 258.250637 129.236964 
L 258.555611 124.196888 
L 258.860585 127.079967 
L 259.165558 117.166128 
L 259.470532 102.94517 
L 259.775505 106.352972 
L 260.080479 170.518281 
L 260.385452 156.163775 
L 260.690426 69.700495 
L 260.9954 108.298554 
L 261.300373 204.688717 
L 261.605347 115.720654 
L 261.91032 106.012109 
L 262.215294 143.633882 
L 262.520268 104.052545 
L 263.130215 144.688027 
L 263.740162 87.218673 
L 264.045135 185.279789 
L 264.350109 138.815823 
L 264.655083 115.171198 
L 264.960056 71.800084 
L 265.26503 180.532138 
L 265.570003 124.8954 
L 266.179951 131.818253 
L 266.484924 85.20348 
L 267.094871 164.490652 
L 267.399845 83.31337 
L 267.704818 198.525673 
L 268.009792 127.462455 
L 268.314766 89.314285 
L 268.619739 131.814395 
L 268.924713 96.627167 
L 269.53466 163.780582 
L 269.839634 64.963917 
L 270.144607 204.444723 
L 270.754554 59.788931 
L 271.059528 194.208081 
L 271.364501 86.4326 
L 271.669475 100.743218 
L 271.974449 109.467035 
L 272.279422 169.444431 
L 272.584396 144.557744 
L 272.889369 60.577838 
L 273.194343 147.062419 
L 273.499317 164.334893 
L 273.80429 78.319545 
L 274.109264 141.191987 
L 274.414237 94.667924 
L 274.719211 194.509042 
L 275.024184 109.343962 
L 275.329158 159.098826 
L 275.634132 88.671208 
L 275.939105 133.878202 
L 276.244079 66.870915 
L 276.854026 189.228798 
L 277.159 84.425383 
L 277.463973 174.797519 
L 277.768947 98.591908 
L 278.07392 149.517417 
L 278.683867 97.088911 
L 278.988841 117.638348 
L 279.293815 111.997263 
L 279.598788 123.320754 
L 279.903762 164.230793 
L 280.208735 123.800078 
L 280.513709 100.447259 
L 280.818683 88.890568 
L 281.123656 174.443053 
L 281.42863 141.778406 
L 281.733603 57.812177 
L 282.038577 162.486271 
L 282.34355 144.79295 
L 282.648524 92.871311 
L 282.953498 103.80042 
L 283.258471 154.228241 
L 283.563445 166.606508 
L 283.868418 112.427473 
L 284.173392 79.565618 
L 284.478366 116.846232 
L 284.783339 119.61848 
L 285.088313 200.15717 
L 285.393286 84.631982 
L 285.69826 95.668452 
L 286.003233 186.150926 
L 286.308207 65.78435 
L 286.613181 144.990716 
L 286.918154 74.456537 
L 287.223128 190.044261 
L 287.528101 132.795388 
L 287.833075 105.775696 
L 288.138049 102.276472 
L 288.443022 121.226862 
L 288.747996 102.153578 
L 289.052969 160.187656 
L 289.357943 90.8505 
L 289.662916 142.394284 
L 289.96789 93.301529 
L 290.272864 181.44298 
L 290.577837 93.052709 
L 291.187784 154.180779 
L 291.492758 129.82682 
L 291.797732 93.459655 
L 292.102705 127.240364 
L 292.407679 91.421455 
L 292.712652 146.447075 
L 293.017626 80.22495 
L 293.322599 162.045854 
L 293.627573 102.139928 
L 293.932547 114.762683 
L 294.23752 189.349712 
L 294.542494 41.270583 
L 294.847467 139.55404 
L 295.152441 118.690846 
L 295.457415 133.613433 
L 295.762388 176.636189 
L 296.067362 95.171349 
L 296.372335 114.523962 
L 296.677309 76.799284 
L 296.982282 194.7365 
L 297.59223 69.113003 
L 298.202177 172.888944 
L 298.50715 55.964842 
L 298.812124 183.979015 
L 299.117098 106.456862 
L 299.422071 84.573233 
L 299.727045 98.910461 
L 300.032018 179.843444 
L 300.336992 56.585399 
L 300.641965 146.879482 
L 301.251913 106.907349 
L 301.556886 126.212598 
L 301.86186 168.76808 
L 302.166833 104.873473 
L 302.471807 77.248204 
L 302.776781 135.01488 
L 303.081754 140.638937 
L 303.386728 104.416415 
L 303.691701 151.977476 
L 303.996675 102.072078 
L 304.301648 164.348697 
L 304.606622 100.40518 
L 304.911596 148.120752 
L 305.216569 116.587843 
L 305.521543 70.991075 
L 305.826516 106.507418 
L 306.13149 118.273245 
L 306.436464 179.883399 
L 306.741437 62.123682 
L 307.046411 162.053884 
L 307.351384 62.907329 
L 307.656358 125.698987 
L 307.961331 107.360857 
L 308.571279 132.571736 
L 308.876252 123.873024 
L 309.181226 169.758462 
L 309.486199 97.22303 
L 309.791173 157.624736 
L 310.096147 72.829376 
L 310.40112 157.016404 
L 310.706094 86.919417 
L 311.011067 109.381885 
L 311.316041 172.788179 
L 311.621014 52.886794 
L 311.925988 179.332999 
L 312.230962 105.7747 
L 312.535935 95.459637 
L 312.840909 133.480046 
L 313.145882 125.586714 
L 313.450856 77.839451 
L 313.75583 121.050873 
L 314.060803 183.510701 
L 314.365777 30.696731 
L 314.67075 159.379935 
L 314.975724 102.019997 
L 315.585671 146.226803 
L 315.890645 142.060989 
L 316.195618 92.981281 
L 316.500592 110.168895 
L 316.805565 114.184526 
L 317.110539 140.299165 
L 317.415513 124.271176 
L 317.720486 128.624407 
L 318.02546 76.09842 
L 318.330433 118.276486 
L 318.635407 81.169141 
L 318.94038 171.567438 
L 319.245354 115.671997 
L 319.550328 144.645244 
L 320.160275 58.509055 
L 320.770222 175.527554 
L 321.075196 68.032012 
L 321.380169 188.073501 
L 321.685143 57.684968 
L 321.990116 143.774647 
L 322.600063 128.781235 
L 322.905037 61.749006 
L 323.210011 164.508427 
L 323.514984 51.85846 
L 323.819958 175.9369 
L 324.124931 69.039674 
L 324.429905 186.417499 
L 324.734879 40.014337 
L 325.039852 197.828669 
L 325.344826 59.984902 
L 325.649799 123.431289 
L 325.954773 96.841797 
L 326.259746 182.786618 
L 326.56472 83.170686 
L 326.869694 125.346425 
L 327.174667 82.956141 
L 327.479641 160.488386 
L 327.784614 111.865972 
L 328.089588 128.651764 
L 328.394562 92.385681 
L 328.699535 116.677975 
L 329.004509 84.35414 
L 329.309482 132.452858 
L 329.614456 97.967615 
L 329.919429 145.278037 
L 330.529377 104.691223 
L 330.83435 69.726281 
L 331.444297 196.0017 
L 331.749271 70.533324 
L 332.054245 122.130415 
L 332.359218 134.33981 
L 332.664192 56.933021 
L 332.969165 144.330531 
L 333.274139 128.180621 
L 333.579112 104.50819 
L 333.884086 117.494204 
L 334.18906 114.901729 
L 334.494033 141.389403 
L 335.10398 83.125824 
L 335.408954 178.713211 
L 335.713928 83.997833 
L 336.018901 66.724612 
L 336.323875 128.45148 
L 336.628848 114.72759 
L 336.933822 127.271598 
L 337.238795 79.783526 
L 337.543769 114.848013 
L 337.848743 171.032271 
L 338.153716 148.79641 
L 338.45869 90.375867 
L 338.763663 95.868552 
L 339.068637 91.227893 
L 339.373611 108.232243 
L 339.678584 162.085509 
L 339.983558 59.192377 
L 340.288531 125.571462 
L 340.593505 149.199705 
L 341.203452 97.667797 
L 341.508426 89.067169 
L 341.813399 133.608056 
L 342.118373 161.468531 
L 342.423346 50.079547 
L 342.72832 163.890115 
L 343.033294 129.072338 
L 343.338267 117.52907 
L 343.643241 100.558637 
L 343.948214 101.553426 
L 344.253188 87.321132 
L 344.558161 144.769873 
L 344.863135 100.745958 
L 345.168109 147.105603 
L 345.473082 34.468232 
L 345.778056 203.122575 
L 346.083029 103.355589 
L 346.388003 65.802863 
L 346.692977 137.923026 
L 346.99795 87.684843 
L 347.607897 167.32588 
L 347.912871 59.199199 
L 348.217844 105.208883 
L 348.522818 85.709385 
L 348.827792 178.914858 
L 349.437739 49.483566 
L 349.742712 161.989981 
L 350.047686 75.400485 
L 350.35266 192.368635 
L 350.657633 93.208334 
L 351.26758 133.098704 
L 351.572554 65.660668 
L 351.877527 136.471517 
L 352.182501 84.036613 
L 352.487475 171.200316 
L 352.792448 44.547691 
L 353.097422 161.406612 
L 353.402395 85.217944 
L 353.707369 157.843154 
L 354.012343 78.05367 
L 354.317316 152.966932 
L 354.62229 35.471729 
L 354.927263 124.103953 
L 355.232237 175.882239 
L 355.537211 113.687834 
L 355.842184 84.028276 
L 356.147158 129.547216 
L 356.452131 122.290352 
L 357.062078 79.191365 
L 357.367052 114.201985 
L 357.672026 167.51888 
L 357.976999 88.367893 
L 358.281973 94.834774 
L 358.586946 90.254247 
L 358.89192 174.724303 
L 359.196894 102.643922 
L 359.501867 76.273288 
L 359.806841 75.739297 
L 360.416788 174.626289 
L 360.721761 74.107137 
L 361.026735 100.992749 
L 361.331709 150.993428 
L 362.246629 94.098671 
L 362.551603 113.786443 
L 362.856577 67.630202 
L 363.466524 167.915973 
L 363.771497 62.939691 
L 364.076471 113.154962 
L 364.381444 184.49142 
L 364.991392 19.591297 
L 365.296365 143.150633 
L 365.601339 123.098767 
L 365.906312 132.140775 
L 366.211286 80.845344 
L 366.51626 147.719383 
L 366.821233 80.055301 
L 367.126207 137.459925 
L 367.43118 86.443476 
L 367.736154 167.143855 
L 368.041127 68.343655 
L 368.346101 147.103836 
L 368.651075 117.212257 
L 368.956048 72.919761 
L 369.261022 89.186493 
L 369.565995 147.647818 
L 370.175943 117.415462 
L 370.480916 84.117005 
L 370.78589 118.694713 
L 371.090863 97.757618 
L 371.395837 85.927285 
L 371.70081 162.857811 
L 372.005784 83.393886 
L 372.310758 99.328855 
L 372.615731 173.497228 
L 372.920705 60.44043 
L 373.225678 167.380588 
L 373.530652 68.775217 
L 373.835626 159.882895 
L 374.140599 30.988471 
L 374.445573 145.482408 
L 374.750546 125.004762 
L 375.05552 69.350557 
L 375.360493 156.981027 
L 375.665467 62.110748 
L 375.970441 108.256976 
L 376.275414 114.990336 
L 376.580388 129.079819 
L 376.885361 125.115895 
L 377.190335 131.899242 
L 377.495309 132.24301 
L 377.800282 121.886791 
L 378.105256 61.045304 
L 378.105256 61.045304 
" clip-path="url(#pe5bba287a9)" style="fill: none; stroke: #1f77b4; stroke-width: 1.5; stroke-linecap: square"/>
   </g>
   <g id="line2d_17">
    <path d="M 73.741619 112.278396 
L 81.670932 112.398107 
L 89.600246 112.745197 
L 97.834532 113.336315 
L 106.373793 114.179484 
L 115.523 115.313437 
L 125.587129 116.788882 
L 138.091045 118.861168 
L 178.347558 125.725512 
L 188.411687 127.102459 
L 197.255921 128.095146 
L 205.795181 128.828033 
L 213.724494 129.289909 
L 221.653807 129.528469 
L 229.583121 129.537347 
L 237.512434 129.316307 
L 245.441747 128.871246 
L 253.676034 128.184746 
L 262.520268 127.215283 
L 271.974449 125.948972 
L 282.953498 124.242909 
L 297.59223 121.720699 
L 323.819958 117.175863 
L 334.799007 115.522977 
L 344.253188 114.317651 
L 353.097422 113.415836 
L 361.331709 112.799517 
L 369.261022 112.426674 
L 377.190335 112.280447 
L 378.105256 112.278396 
L 378.105256 112.278396 
" clip-path="url(#pe5bba287a9)" style="fill: none; stroke: #ff7f0e; stroke-width: 1.5; stroke-linecap: square"/>
   </g>
   <g id="patch_3">
    <path d="M 58.523438 227.147661 
L 58.523438 9.707661 
" style="fill: none; stroke: #000000; stroke-width: 0.8; stroke-linejoin: miter; stroke-linecap: square"/>
   </g>
   <g id="patch_4">
    <path d="M 393.323438 227.147661 
L 393.323438 9.707661 
" style="fill: none; stroke: #000000; stroke-width: 0.8; stroke-linejoin: miter; stroke-linecap: square"/>
   </g>
   <g id="patch_5">
    <path d="M 58.523438 227.147661 
L 393.323438 227.147661 
" style="fill: none; stroke: #000000; stroke-width: 0.8; stroke-linejoin: miter; stroke-linecap: square"/>
   </g>
   <g id="patch_6">
    <path d="M 58.523438 9.707661 
L 393.323438 9.707661 
" style="fill: none; stroke: #000000; stroke-width: 0.8; stroke-linejoin: miter; stroke-linecap: square"/>
   </g>
   <g id="legend_1">
    <g id="patch_7">
     <path d="M 177.103906 47.063911 
L 274.742969 47.063911 
Q 276.742969 47.063911 276.742969 45.063911 
L 276.742969 16.707661 
Q 276.742969 14.707661 274.742969 14.707661 
L 177.103906 14.707661 
Q 175.103906 14.707661 175.103906 16.707661 
L 175.103906 45.063911 
Q 175.103906 47.063911 177.103906 47.063911 
z
" style="fill: #ffffff; opacity: 0.8; stroke: #cccccc; stroke-linejoin: miter"/>
    </g>
    <g id="line2d_18">
     <path d="M 179.103906 22.806098 
L 189.103906 22.806098 
L 199.103906 22.806098 
" style="fill: none; stroke: #1f77b4; stroke-width: 1.5; stroke-linecap: square"/>
    </g>
    <g id="text_17">
     <!-- Noisy Data -->
     <g transform="translate(207.103906 26.306098)scale(0.1 -0.1)">
      <defs>
       <path id="DejaVuSans-4e" d="M 628 4666 
L 1478 4666 
L 3547 763 
L 3547 4666 
L 4159 4666 
L 4159 0 
L 3309 0 
L 1241 3903 
L 1241 0 
L 628 0 
L 628 4666 
z
" transform="scale(0.015625)"/>
       <path id="DejaVuSans-69" d="M 603 3500 
L 1178 3500 
L 1178 0 
L 603 0 
L 603 3500 
z
M 603 4863 
L 1178 4863 
L 1178 4134 
L 603 4134 
L 603 4863 
z
" transform="scale(0.015625)"/>
       <path id="DejaVuSans-73" d="M 2834 3397 
L 2834 2853 
Q 2591 2978 2328 3040 
Q 2066 3103 1784 3103 
Q 1356 3103 1142 2972 
Q 928 2841 928 2578 
Q 928 2378 1081 2264 
Q 1234 2150 1697 2047 
L 1894 2003 
Q 2506 1872 2764 1633 
Q 3022 1394 3022 966 
Q 3022 478 2636 193 
Q 2250 -91 1575 -91 
Q 1294 -91 989 -36 
Q 684 19 347 128 
L 347 722 
Q 666 556 975 473 
Q 1284 391 1588 391 
Q 1994 391 2212 530 
Q 2431 669 2431 922 
Q 2431 1156 2273 1281 
Q 2116 1406 1581 1522 
L 1381 1569 
Q 847 1681 609 1914 
Q 372 2147 372 2553 
Q 372 3047 722 3315 
Q 1072 3584 1716 3584 
Q 2034 3584 2315 3537 
Q 2597 3491 2834 3397 
z
" transform="scale(0.015625)"/>
       <path id="DejaVuSans-44" d="M 1259 4147 
L 1259 519 
L 2022 519 
Q 2988 519 3436 956 
Q 3884 1394 3884 2338 
Q 3884 3275 3436 3711 
Q 2988 4147 2022 4147 
L 1259 4147 
z
M 628 4666 
L 1925 4666 
Q 3281 4666 3915 4102 
Q 4550 3538 4550 2338 
Q 4550 1131 3912 565 
Q 3275 0 1925 0 
L 628 0 
L 628 4666 
z
" transform="scale(0.015625)"/>
       <path id="DejaVuSans-61" d="M 2194 1759 
Q 1497 1759 1228 1600 
Q 959 1441 959 1056 
Q 959 750 1161 570 
Q 1363 391 1709 391 
Q 2188 391 2477 730 
Q 2766 1069 2766 1631 
L 2766 1759 
L 2194 1759 
z
M 3341 1997 
L 3341 0 
L 2766 0 
L 2766 531 
Q 2569 213 2275 61 
Q 1981 -91 1556 -91 
Q 1019 -91 701 211 
Q 384 513 384 1019 
Q 384 1609 779 1909 
Q 1175 2209 1959 2209 
L 2766 2209 
L 2766 2266 
Q 2766 2663 2505 2880 
Q 2244 3097 1772 3097 
Q 1472 3097 1187 3025 
Q 903 2953 641 2809 
L 641 3341 
Q 956 3463 1253 3523 
Q 1550 3584 1831 3584 
Q 2591 3584 2966 3190 
Q 3341 2797 3341 1997 
z
" transform="scale(0.015625)"/>
       <path id="DejaVuSans-74" d="M 1172 4494 
L 1172 3500 
L 2356 3500 
L 2356 3053 
L 1172 3053 
L 1172 1153 
Q 1172 725 1289 603 
Q 1406 481 1766 481 
L 2356 481 
L 2356 0 
L 1766 0 
Q 1100 0 847 248 
Q 594 497 594 1153 
L 594 3053 
L 172 3053 
L 172 3500 
L 594 3500 
L 594 4494 
L 1172 4494 
z
" transform="scale(0.015625)"/>
      </defs>
      <use xlink:href="#DejaVuSans-4e"/>
      <use xlink:href="#DejaVuSans-6f" x="74.804688"/>
      <use xlink:href="#DejaVuSans-69" x="135.986328"/>
      <use xlink:href="#DejaVuSans-73" x="163.769531"/>
      <use xlink:href="#DejaVuSans-79" x="215.869141"/>
      <use xlink:href="#DejaVuSans-20" x="275.048828"/>
      <use xlink:href="#DejaVuSans-44" x="306.835938"/>
      <use xlink:href="#DejaVuSans-61" x="383.837891"/>
      <use xlink:href="#DejaVuSans-74" x="445.117188"/>
      <use xlink:href="#DejaVuSans-61" x="484.326172"/>
     </g>
    </g>
    <g id="line2d_19">
     <path d="M 179.103906 37.484223 
L 189.103906 37.484223 
L 199.103906 37.484223 
" style="fill: none; stroke: #ff7f0e; stroke-width: 1.5; stroke-linecap: square"/>
    </g>
    <g id="text_18">
     <!-- Smooth Data -->
     <g transform="translate(207.103906 40.984223)scale(0.1 -0.1)">
      <defs>
       <path id="DejaVuSans-6d" d="M 3328 2828 
Q 3544 3216 3844 3400 
Q 4144 3584 4550 3584 
Q 5097 3584 5394 3201 
Q 5691 2819 5691 2113 
L 5691 0 
L 5113 0 
L 5113 2094 
Q 5113 2597 4934 2840 
Q 4756 3084 4391 3084 
Q 3944 3084 3684 2787 
Q 3425 2491 3425 1978 
L 3425 0 
L 2847 0 
L 2847 2094 
Q 2847 2600 2669 2842 
Q 2491 3084 2119 3084 
Q 1678 3084 1418 2786 
Q 1159 2488 1159 1978 
L 1159 0 
L 581 0 
L 581 3500 
L 1159 3500 
L 1159 2956 
Q 1356 3278 1631 3431 
Q 1906 3584 2284 3584 
Q 2666 3584 2933 3390 
Q 3200 3197 3328 2828 
z
" transform="scale(0.015625)"/>
       <path id="DejaVuSans-68" d="M 3513 2113 
L 3513 0 
L 2938 0 
L 2938 2094 
Q 2938 2591 2744 2837 
Q 2550 3084 2163 3084 
Q 1697 3084 1428 2787 
Q 1159 2491 1159 1978 
L 1159 0 
L 581 0 
L 581 4863 
L 1159 4863 
L 1159 2956 
Q 1366 3272 1645 3428 
Q 1925 3584 2291 3584 
Q 2894 3584 3203 3211 
Q 3513 2838 3513 2113 
z
" transform="scale(0.015625)"/>
      </defs>
      <use xlink:href="#DejaVuSans-53"/>
      <use xlink:href="#DejaVuSans-6d" x="63.476562"/>
      <use xlink:href="#DejaVuSans-6f" x="160.888672"/>
      <use xlink:href="#DejaVuSans-6f" x="222.070312"/>
      <use xlink:href="#DejaVuSans-74" x="283.251953"/>
      <use xlink:href="#DejaVuSans-68" x="322.460938"/>
      <use xlink:href="#DejaVuSans-20" x="385.839844"/>
      <use xlink:href="#DejaVuSans-44" x="417.626953"/>
      <use xlink:href="#DejaVuSans-61" x="494.628906"/>
      <use xlink:href="#DejaVuSans-74" x="555.908203"/>
      <use xlink:href="#DejaVuSans-61" x="595.117188"/>
     </g>
    </g>
   </g>
  </g>
 </g>
 <defs>
  <clipPath id="pe5bba287a9">
   <rect x="58.523438" y="9.707661" width="334.8" height="217.44"/>
  </clipPath>
 </defs>
</svg>
