<?xml version="1.0" encoding="utf-8" standalone="no"?>
<!DOCTYPE svg PUBLIC "-//W3C//DTD SVG 1.1//EN"
  "http://www.w3.org/Graphics/SVG/1.1/DTD/svg11.dtd">
<svg height="248.518125pt" version="1.1" viewBox="0 0 380.482813 248.518125" width="380.482813pt" xmlns="http://www.w3.org/2000/svg" xmlns:xlink="http://www.w3.org/1999/xlink">
 <metadata>
  <rdf:RDF xmlns:cc="http://creativecommons.org/ns#" xmlns:dc="http://purl.org/dc/elements/1.1/" xmlns:rdf="http://www.w3.org/1999/02/22-rdf-syntax-ns#">
   <cc:Work>
    <dc:type rdf:resource="http://purl.org/dc/dcmitype/StillImage"/>
    <dc:date>2022-05-22T18:03:05.823364</dc:date>
    <dc:format>image/svg+xml</dc:format>
    <dc:creator>
     <cc:Agent>
      <dc:title>Matplotlib v3.4.3, https://matplotlib.org/</dc:title>
     </cc:Agent>
    </dc:creator>
   </cc:Work>
  </rdf:RDF>
 </metadata>
 <defs>
  <style type="text/css">*{stroke-linecap:butt;stroke-linejoin:round;}</style>
 </defs>
 <g id="figure_1">
  <g id="patch_1">
   <path d="M -0 248.518125 
L 380.482813 248.518125 
L 380.482813 0 
L -0 0 
z
" style="fill:none;"/>
  </g>
  <g id="axes_1">
   <g id="patch_2">
    <path d="M 38.482813 224.64 
L 373.282813 224.64 
L 373.282813 7.2 
L 38.482813 7.2 
z
" style="fill:#ffffff;"/>
   </g>
   <g id="matplotlib.axis_1">
    <g id="xtick_1">
     <g id="line2d_1">
      <defs>
       <path d="M 0 0 
L 0 3.5 
" id="mc37d267980" style="stroke:#000000;stroke-width:0.8;"/>
      </defs>
      <g>
       <use style="stroke:#000000;stroke-width:0.8;" x="53.395715" xlink:href="#mc37d267980" y="224.64"/>
      </g>
     </g>
     <g id="text_1">
      <!-- 0 -->
      <g transform="translate(50.214465 239.238437)scale(0.1 -0.1)">
       <defs>
        <path d="M 2034 4250 
Q 1547 4250 1301 3770 
Q 1056 3291 1056 2328 
Q 1056 1369 1301 889 
Q 1547 409 2034 409 
Q 2525 409 2770 889 
Q 3016 1369 3016 2328 
Q 3016 3291 2770 3770 
Q 2525 4250 2034 4250 
z
M 2034 4750 
Q 2819 4750 3233 4129 
Q 3647 3509 3647 2328 
Q 3647 1150 3233 529 
Q 2819 -91 2034 -91 
Q 1250 -91 836 529 
Q 422 1150 422 2328 
Q 422 3509 836 4129 
Q 1250 4750 2034 4750 
z
" id="DejaVuSans-30" transform="scale(0.015625)"/>
       </defs>
       <use xlink:href="#DejaVuSans-30"/>
      </g>
     </g>
    </g>
    <g id="xtick_2">
     <g id="line2d_2">
      <g>
       <use style="stroke:#000000;stroke-width:0.8;" x="101.933866" xlink:href="#mc37d267980" y="224.64"/>
      </g>
     </g>
     <g id="text_2">
      <!-- 5 -->
      <g transform="translate(98.752616 239.238437)scale(0.1 -0.1)">
       <defs>
        <path d="M 691 4666 
L 3169 4666 
L 3169 4134 
L 1269 4134 
L 1269 2991 
Q 1406 3038 1543 3061 
Q 1681 3084 1819 3084 
Q 2600 3084 3056 2656 
Q 3513 2228 3513 1497 
Q 3513 744 3044 326 
Q 2575 -91 1722 -91 
Q 1428 -91 1123 -41 
Q 819 9 494 109 
L 494 744 
Q 775 591 1075 516 
Q 1375 441 1709 441 
Q 2250 441 2565 725 
Q 2881 1009 2881 1497 
Q 2881 1984 2565 2268 
Q 2250 2553 1709 2553 
Q 1456 2553 1204 2497 
Q 953 2441 691 2322 
L 691 4666 
z
" id="DejaVuSans-35" transform="scale(0.015625)"/>
       </defs>
       <use xlink:href="#DejaVuSans-35"/>
      </g>
     </g>
    </g>
    <g id="xtick_3">
     <g id="line2d_3">
      <g>
       <use style="stroke:#000000;stroke-width:0.8;" x="150.472016" xlink:href="#mc37d267980" y="224.64"/>
      </g>
     </g>
     <g id="text_3">
      <!-- 10 -->
      <g transform="translate(144.109516 239.238437)scale(0.1 -0.1)">
       <defs>
        <path d="M 794 531 
L 1825 531 
L 1825 4091 
L 703 3866 
L 703 4441 
L 1819 4666 
L 2450 4666 
L 2450 531 
L 3481 531 
L 3481 0 
L 794 0 
L 794 531 
z
" id="DejaVuSans-31" transform="scale(0.015625)"/>
       </defs>
       <use xlink:href="#DejaVuSans-31"/>
       <use x="63.623047" xlink:href="#DejaVuSans-30"/>
      </g>
     </g>
    </g>
    <g id="xtick_4">
     <g id="line2d_4">
      <g>
       <use style="stroke:#000000;stroke-width:0.8;" x="199.010167" xlink:href="#mc37d267980" y="224.64"/>
      </g>
     </g>
     <g id="text_4">
      <!-- 15 -->
      <g transform="translate(192.647667 239.238437)scale(0.1 -0.1)">
       <use xlink:href="#DejaVuSans-31"/>
       <use x="63.623047" xlink:href="#DejaVuSans-35"/>
      </g>
     </g>
    </g>
    <g id="xtick_5">
     <g id="line2d_5">
      <g>
       <use style="stroke:#000000;stroke-width:0.8;" x="247.548318" xlink:href="#mc37d267980" y="224.64"/>
      </g>
     </g>
     <g id="text_5">
      <!-- 20 -->
      <g transform="translate(241.185818 239.238437)scale(0.1 -0.1)">
       <defs>
        <path d="M 1228 531 
L 3431 531 
L 3431 0 
L 469 0 
L 469 531 
Q 828 903 1448 1529 
Q 2069 2156 2228 2338 
Q 2531 2678 2651 2914 
Q 2772 3150 2772 3378 
Q 2772 3750 2511 3984 
Q 2250 4219 1831 4219 
Q 1534 4219 1204 4116 
Q 875 4013 500 3803 
L 500 4441 
Q 881 4594 1212 4672 
Q 1544 4750 1819 4750 
Q 2544 4750 2975 4387 
Q 3406 4025 3406 3419 
Q 3406 3131 3298 2873 
Q 3191 2616 2906 2266 
Q 2828 2175 2409 1742 
Q 1991 1309 1228 531 
z
" id="DejaVuSans-32" transform="scale(0.015625)"/>
       </defs>
       <use xlink:href="#DejaVuSans-32"/>
       <use x="63.623047" xlink:href="#DejaVuSans-30"/>
      </g>
     </g>
    </g>
    <g id="xtick_6">
     <g id="line2d_6">
      <g>
       <use style="stroke:#000000;stroke-width:0.8;" x="296.086468" xlink:href="#mc37d267980" y="224.64"/>
      </g>
     </g>
     <g id="text_6">
      <!-- 25 -->
      <g transform="translate(289.723968 239.238437)scale(0.1 -0.1)">
       <use xlink:href="#DejaVuSans-32"/>
       <use x="63.623047" xlink:href="#DejaVuSans-35"/>
      </g>
     </g>
    </g>
    <g id="xtick_7">
     <g id="line2d_7">
      <g>
       <use style="stroke:#000000;stroke-width:0.8;" x="344.624619" xlink:href="#mc37d267980" y="224.64"/>
      </g>
     </g>
     <g id="text_7">
      <!-- 30 -->
      <g transform="translate(338.262119 239.238437)scale(0.1 -0.1)">
       <defs>
        <path d="M 2597 2516 
Q 3050 2419 3304 2112 
Q 3559 1806 3559 1356 
Q 3559 666 3084 287 
Q 2609 -91 1734 -91 
Q 1441 -91 1130 -33 
Q 819 25 488 141 
L 488 750 
Q 750 597 1062 519 
Q 1375 441 1716 441 
Q 2309 441 2620 675 
Q 2931 909 2931 1356 
Q 2931 1769 2642 2001 
Q 2353 2234 1838 2234 
L 1294 2234 
L 1294 2753 
L 1863 2753 
Q 2328 2753 2575 2939 
Q 2822 3125 2822 3475 
Q 2822 3834 2567 4026 
Q 2313 4219 1838 4219 
Q 1578 4219 1281 4162 
Q 984 4106 628 3988 
L 628 4550 
Q 988 4650 1302 4700 
Q 1616 4750 1894 4750 
Q 2613 4750 3031 4423 
Q 3450 4097 3450 3541 
Q 3450 3153 3228 2886 
Q 3006 2619 2597 2516 
z
" id="DejaVuSans-33" transform="scale(0.015625)"/>
       </defs>
       <use xlink:href="#DejaVuSans-33"/>
       <use x="63.623047" xlink:href="#DejaVuSans-30"/>
      </g>
     </g>
    </g>
   </g>
   <g id="matplotlib.axis_2">
    <g id="ytick_1">
     <g id="line2d_8">
      <defs>
       <path d="M 0 0 
L -3.5 0 
" id="mbcec4ebcce" style="stroke:#000000;stroke-width:0.8;"/>
      </defs>
      <g>
       <use style="stroke:#000000;stroke-width:0.8;" x="38.482813" xlink:href="#mbcec4ebcce" y="198.082844"/>
      </g>
     </g>
     <g id="text_8">
      <!-- −1.0 -->
      <g transform="translate(7.2 201.882063)scale(0.1 -0.1)">
       <defs>
        <path d="M 678 2272 
L 4684 2272 
L 4684 1741 
L 678 1741 
L 678 2272 
z
" id="DejaVuSans-2212" transform="scale(0.015625)"/>
        <path d="M 684 794 
L 1344 794 
L 1344 0 
L 684 0 
L 684 794 
z
" id="DejaVuSans-2e" transform="scale(0.015625)"/>
       </defs>
       <use xlink:href="#DejaVuSans-2212"/>
       <use x="83.789062" xlink:href="#DejaVuSans-31"/>
       <use x="147.412109" xlink:href="#DejaVuSans-2e"/>
       <use x="179.199219" xlink:href="#DejaVuSans-30"/>
      </g>
     </g>
    </g>
    <g id="ytick_2">
     <g id="line2d_9">
      <g>
       <use style="stroke:#000000;stroke-width:0.8;" x="38.482813" xlink:href="#mbcec4ebcce" y="157.404547"/>
      </g>
     </g>
     <g id="text_9">
      <!-- −0.5 -->
      <g transform="translate(7.2 161.203765)scale(0.1 -0.1)">
       <use xlink:href="#DejaVuSans-2212"/>
       <use x="83.789062" xlink:href="#DejaVuSans-30"/>
       <use x="147.412109" xlink:href="#DejaVuSans-2e"/>
       <use x="179.199219" xlink:href="#DejaVuSans-35"/>
      </g>
     </g>
    </g>
    <g id="ytick_3">
     <g id="line2d_10">
      <g>
       <use style="stroke:#000000;stroke-width:0.8;" x="38.482813" xlink:href="#mbcec4ebcce" y="116.726249"/>
      </g>
     </g>
     <g id="text_10">
      <!-- 0.0 -->
      <g transform="translate(15.579688 120.525468)scale(0.1 -0.1)">
       <use xlink:href="#DejaVuSans-30"/>
       <use x="63.623047" xlink:href="#DejaVuSans-2e"/>
       <use x="95.410156" xlink:href="#DejaVuSans-30"/>
      </g>
     </g>
    </g>
    <g id="ytick_4">
     <g id="line2d_11">
      <g>
       <use style="stroke:#000000;stroke-width:0.8;" x="38.482813" xlink:href="#mbcec4ebcce" y="76.047952"/>
      </g>
     </g>
     <g id="text_11">
      <!-- 0.5 -->
      <g transform="translate(15.579688 79.847171)scale(0.1 -0.1)">
       <use xlink:href="#DejaVuSans-30"/>
       <use x="63.623047" xlink:href="#DejaVuSans-2e"/>
       <use x="95.410156" xlink:href="#DejaVuSans-35"/>
      </g>
     </g>
    </g>
    <g id="ytick_5">
     <g id="line2d_12">
      <g>
       <use style="stroke:#000000;stroke-width:0.8;" x="38.482813" xlink:href="#mbcec4ebcce" y="35.369655"/>
      </g>
     </g>
     <g id="text_12">
      <!-- 1.0 -->
      <g transform="translate(15.579688 39.168874)scale(0.1 -0.1)">
       <use xlink:href="#DejaVuSans-31"/>
       <use x="63.623047" xlink:href="#DejaVuSans-2e"/>
       <use x="95.410156" xlink:href="#DejaVuSans-30"/>
      </g>
     </g>
    </g>
   </g>
   <g id="line2d_13">
    <path clip-path="url(#p482a58de24)" d="M 53.700994 114.959658 
L 54.006274 114.810499 
L 54.311553 104.167315 
L 54.616833 102.447978 
L 54.922112 99.794274 
L 55.227392 93.47449 
L 55.532671 83.792183 
L 55.837951 86.721972 
L 56.44851 105.016228 
L 57.059069 76.309085 
L 57.364348 79.020685 
L 57.974907 96.912843 
L 58.280186 87.639729 
L 58.890745 80.329756 
L 59.196025 74.108642 
L 59.501304 65.543325 
L 59.806584 52.618739 
L 60.111863 55.330915 
L 60.417143 62.952245 
L 60.722422 64.696969 
L 61.027702 56.94312 
L 61.332981 44.815766 
L 61.638261 40.427199 
L 61.94354 39.776145 
L 62.24882 49.95694 
L 62.554099 53.122439 
L 62.859379 52.544317 
L 63.164658 49.683652 
L 63.469938 40.844401 
L 63.775217 49.006273 
L 64.080496 39.452723 
L 64.385776 41.947253 
L 64.691055 29.214206 
L 65.301614 38.35385 
L 65.912173 28.460492 
L 66.217453 28.590439 
L 66.522732 33.573865 
L 66.828012 42.173936 
L 67.133291 41.082907 
L 67.438571 41.366623 
L 67.74385 29.191334 
L 68.04913 33.884667 
L 68.354409 42.751548 
L 68.659689 40.228245 
L 68.964968 42.528137 
L 69.270248 36.52771 
L 69.575527 39.416787 
L 70.186086 27.756781 
L 70.796645 49.954551 
L 71.101924 53.988687 
L 71.712483 26.568608 
L 72.017763 25.807399 
L 72.323042 32.280349 
L 72.628322 42.96777 
L 72.933601 37.310933 
L 73.238881 39.010054 
L 73.54416 29.68837 
L 74.459999 47.748628 
L 74.765278 44.336625 
L 75.070558 43.077417 
L 75.681117 61.432462 
L 75.986396 62.730921 
L 76.291675 57.744349 
L 76.596955 69.844206 
L 76.902234 62.764882 
L 77.207514 71.459952 
L 77.512793 54.830948 
L 77.818073 64.972297 
L 78.123352 65.562296 
L 78.428632 69.114742 
L 79.039191 70.408252 
L 79.34447 82.627484 
L 79.64975 82.401861 
L 79.955029 94.434596 
L 80.260309 99.413779 
L 80.565588 98.683758 
L 80.870868 85.019565 
L 81.176147 79.788843 
L 81.786706 103.056585 
L 82.091985 107.766087 
L 82.397265 101.755379 
L 82.702544 109.348054 
L 83.313103 106.472537 
L 83.618383 103.647673 
L 83.923662 102.073265 
L 84.228942 109.453264 
L 84.534221 111.454925 
L 84.839501 125.903755 
L 85.14478 128.225814 
L 85.45006 139.073668 
L 86.060619 137.891342 
L 86.365898 141.592297 
L 86.671178 134.825646 
L 86.976457 139.705998 
L 87.281737 141.406996 
L 87.892295 158.864307 
L 88.197575 160.895873 
L 88.502854 162.132835 
L 88.808134 161.497081 
L 89.113413 154.158043 
L 89.418693 163.651389 
L 89.723972 157.189263 
L 90.029252 166.32152 
L 90.334531 166.003934 
L 90.639811 167.208621 
L 90.94509 155.867462 
L 91.25037 150.7631 
L 91.555649 166.286848 
L 91.860929 170.003285 
L 92.166208 170.663039 
L 92.471488 168.971931 
L 92.776767 180.608811 
L 93.387326 186.747798 
L 93.692606 184.102115 
L 93.997885 188.388829 
L 94.303164 187.421516 
L 94.608444 191.329878 
L 94.913723 199.579173 
L 95.219003 193.797093 
L 95.829562 171.698076 
L 96.440121 196.453335 
L 96.7454 195.799936 
L 97.05068 196.123796 
L 97.355959 190.369876 
L 98.271798 201.186883 
L 98.577077 201.08908 
L 98.882357 189.978448 
L 99.187636 191.020406 
L 99.492916 203.718516 
L 99.798195 205.661578 
L 100.103474 213.105237 
L 100.408754 207.327217 
L 100.714033 208.891117 
L 101.324592 202.084505 
L 101.935151 184.74316 
L 102.240431 191.881222 
L 102.54571 204.382068 
L 102.85099 204.848774 
L 103.156269 199.601686 
L 103.461549 184.727259 
L 103.766828 181.951985 
L 104.377387 192.131893 
L 104.682667 196.861959 
L 104.987946 180.330471 
L 105.293226 177.059587 
L 105.598505 166.932662 
L 105.903785 181.518904 
L 106.514343 173.197533 
L 106.819623 158.268821 
L 107.124902 153.679984 
L 107.430182 163.783384 
L 107.735461 163.408467 
L 108.040741 166.520885 
L 108.34602 159.961951 
L 108.6513 163.344162 
L 108.956579 153.477519 
L 109.261859 150.3836 
L 109.872418 148.24205 
L 110.177697 145.668147 
L 110.482977 141.142696 
L 110.788256 138.477626 
L 111.093536 132.763679 
L 111.398815 122.544036 
L 111.704095 128.41408 
L 112.009374 140.369936 
L 112.619933 149.801002 
L 113.535771 115.771854 
L 113.841051 109.436441 
L 114.14633 116.981115 
L 114.45161 111.803865 
L 114.756889 119.23959 
L 115.062169 117.021722 
L 115.367448 123.044467 
L 115.672728 119.866719 
L 115.978007 113.459365 
L 116.283287 98.689303 
L 116.588566 94.179817 
L 116.893846 96.812411 
L 117.199125 93.682676 
L 117.504405 79.048068 
L 117.809684 74.490986 
L 118.114963 83.41792 
L 118.420243 83.394827 
L 118.725522 81.825666 
L 119.030802 70.60445 
L 119.336081 80.223721 
L 119.641361 68.367493 
L 119.94664 67.496147 
L 120.25192 59.911278 
L 120.557199 65.048897 
L 120.862479 66.351159 
L 121.167758 70.35473 
L 121.778317 54.346287 
L 122.083597 41.608756 
L 122.388876 49.943234 
L 122.694156 63.354681 
L 122.999435 68.909624 
L 123.304715 56.707901 
L 123.609994 39.445139 
L 123.915274 30.058378 
L 124.525832 44.545019 
L 124.831112 45.551972 
L 125.441671 53.488902 
L 125.74695 61.212847 
L 126.357509 47.2971 
L 126.662789 45.678817 
L 126.968068 50.068875 
L 127.273348 42.112638 
L 127.883907 40.828696 
L 128.189186 45.538822 
L 128.799745 24.410515 
L 129.105025 27.643231 
L 129.410304 41.06767 
L 130.020863 34.357117 
L 130.326142 23.356136 
L 130.631422 22.652498 
L 130.936701 28.073119 
L 131.241981 38.045916 
L 131.54726 43.200529 
L 131.85254 40.834591 
L 132.157819 33.386829 
L 132.463099 36.128556 
L 132.768378 33.20406 
L 133.073658 36.305975 
L 133.378937 41.385617 
L 133.684217 40.616367 
L 133.989496 44.829673 
L 134.294776 35.680235 
L 134.600055 40.770843 
L 134.905335 41.111728 
L 135.210614 57.068564 
L 135.515894 53.193581 
L 135.821173 61.442614 
L 136.126453 59.011118 
L 136.431732 71.193414 
L 136.737011 64.690673 
L 137.34757 70.902585 
L 137.65285 69.063519 
L 137.958129 56.913198 
L 138.263409 61.86687 
L 138.873968 85.146845 
L 139.179247 78.832905 
L 139.484527 75.963973 
L 139.789806 71.391284 
L 140.400365 79.088364 
L 140.705645 81.178356 
L 141.316204 66.938803 
L 141.621483 79.592951 
L 141.926763 82.625682 
L 142.232042 94.626938 
L 142.537321 89.548126 
L 142.842601 92.336869 
L 143.14788 85.244151 
L 143.45316 87.625847 
L 143.758439 96.559726 
L 144.368998 122.263568 
L 144.979557 126.559012 
L 145.284837 122.472547 
L 145.590116 135.713293 
L 145.895396 134.652583 
L 146.505955 120.874211 
L 146.811234 118.627546 
L 147.116514 133.647803 
L 147.421793 127.508251 
L 147.727073 142.28292 
L 148.032352 132.475534 
L 148.337632 149.293471 
L 148.642911 140.48887 
L 148.94819 153.159141 
L 149.25347 157.94009 
L 149.558749 166.376717 
L 149.864029 170.320887 
L 150.169308 160.818292 
L 150.474588 168.022618 
L 150.779867 168.465925 
L 151.085147 182.109566 
L 151.390426 180.12083 
L 151.695706 189.85987 
L 152.611544 152.876104 
L 153.222103 184.163128 
L 153.527383 187.537394 
L 154.137942 168.679519 
L 154.443221 173.810264 
L 155.05378 195.668424 
L 155.359059 195.661052 
L 155.969618 174.139739 
L 156.580177 200.246552 
L 156.885457 200.710874 
L 157.190736 186.657022 
L 157.496016 180.501711 
L 157.801295 180.834407 
L 158.106575 198.70896 
L 158.411854 203.528819 
L 158.717134 213.596167 
L 159.022413 201.625622 
L 159.327693 197.594328 
L 159.632972 188.167515 
L 159.938252 196.368497 
L 160.243531 193.039183 
L 160.54881 208.567102 
L 160.85409 207.656985 
L 161.159369 203.634552 
L 161.464649 201.568703 
L 161.769928 197.265033 
L 162.075208 209.405148 
L 162.380487 196.974849 
L 162.685767 194.461346 
L 162.991046 189.178701 
L 163.296326 191.640038 
L 163.601605 188.448731 
L 163.906885 188.906067 
L 164.212164 197.161182 
L 164.517444 202.093688 
L 164.822723 199.927341 
L 165.433282 190.931806 
L 166.043841 170.234425 
L 166.349121 164.634519 
L 166.6544 175.942687 
L 166.959679 169.127657 
L 167.570238 168.253869 
L 167.875518 171.341282 
L 168.180797 170.871011 
L 168.486077 161.249093 
L 168.791356 159.202077 
L 169.096636 158.04104 
L 169.401915 153.261031 
L 169.707195 146.295387 
L 170.012474 144.067762 
L 170.317754 139.010477 
L 170.623033 155.073334 
L 170.928313 154.497721 
L 171.233592 164.726629 
L 171.538872 147.364839 
L 171.844151 139.979535 
L 172.149431 127.713212 
L 172.45471 126.21534 
L 172.759989 136.125336 
L 173.065269 133.715913 
L 173.370548 142.133346 
L 173.675828 124.235541 
L 173.981107 127.493293 
L 174.286387 126.141133 
L 174.591666 133.043593 
L 175.202225 124.001835 
L 175.507505 125.880507 
L 176.118064 116.998155 
L 176.423343 106.326854 
L 176.728623 102.736701 
L 177.033902 90.681786 
L 177.339182 98.306767 
L 177.644461 99.175569 
L 177.949741 104.816639 
L 178.25502 97.995855 
L 178.5603 94.995633 
L 179.170858 70.235513 
L 179.476138 65.461535 
L 179.781417 67.790423 
L 180.086697 67.652267 
L 180.391976 62.992805 
L 180.697256 69.50938 
L 181.002535 73.189006 
L 181.307815 85.031831 
L 181.613094 84.648357 
L 181.918374 90.308895 
L 182.223653 85.096284 
L 182.528933 67.198747 
L 182.834212 63.63227 
L 183.139492 53.056374 
L 183.444771 69.096643 
L 183.750051 64.677575 
L 184.05533 70.07992 
L 184.36061 52.544057 
L 184.971168 40.066478 
L 185.276448 39.228208 
L 185.887007 35.099962 
L 186.192286 39.009817 
L 186.802845 33.244871 
L 187.108125 37.445266 
L 187.413404 40.060977 
L 187.718684 49.125347 
L 188.023963 39.983462 
L 188.329243 44.964332 
L 188.634522 34.593786 
L 188.939802 34.909806 
L 189.245081 23.240856 
L 189.550361 21.161674 
L 189.85564 30.468129 
L 190.16092 27.788525 
L 190.466199 31.470877 
L 190.771478 28.675564 
L 191.076758 39.395268 
L 191.382037 32.255304 
L 191.687317 33.046759 
L 191.992596 32.332486 
L 192.297876 50.445498 
L 192.603155 48.982938 
L 192.908435 44.435297 
L 193.213714 27.640732 
L 193.518994 25.492978 
L 194.129553 42.675618 
L 194.434832 43.301348 
L 195.045391 37.40607 
L 195.350671 45.627183 
L 195.65595 46.41669 
L 195.96123 59.976765 
L 196.571789 48.311467 
L 196.877068 50.74108 
L 197.487627 57.527036 
L 197.792906 60.120767 
L 198.098186 66.201006 
L 198.403465 66.546918 
L 198.708745 52.409706 
L 199.014024 45.846454 
L 199.929863 85.985715 
L 200.235142 86.578011 
L 200.540422 86.642016 
L 200.845701 83.449561 
L 201.150981 88.430053 
L 201.45626 90.137407 
L 201.76154 101.250287 
L 202.066819 93.419693 
L 202.372099 90.712436 
L 202.677378 79.111514 
L 202.982657 90.200741 
L 203.593216 102.169863 
L 204.203775 93.883399 
L 204.814334 107.549338 
L 205.119614 108.371606 
L 205.424893 114.201451 
L 205.730173 106.723107 
L 206.035452 110.385886 
L 206.340732 109.859121 
L 206.646011 110.968546 
L 206.951291 113.424446 
L 207.867129 135.334752 
L 208.172409 131.60051 
L 208.477688 130.079813 
L 209.088247 140.055101 
L 209.393526 156.371784 
L 209.698806 163.92997 
L 210.004085 165.611263 
L 210.309365 158.498405 
L 210.614644 156.270292 
L 210.919924 159.186962 
L 211.225203 168.999718 
L 211.530483 171.31128 
L 211.835762 162.887092 
L 212.141042 163.602834 
L 212.446321 160.766203 
L 212.751601 167.206315 
L 213.36216 182.717163 
L 213.667439 179.127221 
L 214.277998 168.375411 
L 214.583278 184.119599 
L 214.888557 193.145167 
L 215.193836 193.272963 
L 215.804395 187.917537 
L 216.109675 198.252248 
L 216.414954 190.430028 
L 216.720234 185.517352 
L 217.025513 183.609075 
L 217.330793 195.069279 
L 217.636072 197.229978 
L 218.551911 178.092071 
L 219.467749 214.214487 
L 219.773029 206.845306 
L 220.078308 192.778635 
L 220.383588 193.873321 
L 220.688867 190.734729 
L 220.994147 202.253447 
L 221.299426 186.137185 
L 221.604705 196.983021 
L 221.909985 186.594253 
L 222.215264 202.51013 
L 222.520544 193.152871 
L 222.825823 199.339081 
L 223.131103 199.471514 
L 223.436382 210.172044 
L 223.741662 214.756364 
L 224.352221 205.408211 
L 224.6575 209.367946 
L 224.96278 195.878707 
L 225.268059 195.272189 
L 225.573339 180.864416 
L 225.878618 193.183808 
L 226.183898 189.184175 
L 226.489177 197.342522 
L 226.794457 187.034089 
L 227.099736 191.274202 
L 227.405015 192.8725 
L 227.710295 195.673894 
L 228.320854 169.516001 
L 228.626133 173.190658 
L 228.931413 173.548208 
L 229.236692 180.02053 
L 229.541972 177.460365 
L 229.847251 172.522845 
L 230.152531 157.45618 
L 230.76309 148.540252 
L 231.068369 158.522186 
L 231.373649 162.949349 
L 231.678928 163.046768 
L 231.984208 163.307685 
L 232.289487 143.104117 
L 232.594767 149.340406 
L 232.900046 136.989334 
L 233.205325 141.579062 
L 233.510605 133.688587 
L 233.815884 130.937261 
L 234.121164 139.897372 
L 234.426443 133.233729 
L 234.731723 136.086548 
L 235.037002 127.926423 
L 235.342282 123.960243 
L 235.647561 124.91021 
L 236.25812 125.526852 
L 236.5634 118.778386 
L 236.868679 116.849737 
L 237.479238 99.413956 
L 237.784518 96.468704 
L 238.089797 109.156674 
L 238.395077 111.906667 
L 238.700356 101.200898 
L 239.005636 86.247359 
L 239.310915 91.927682 
L 239.616194 85.990384 
L 239.921474 99.15543 
L 240.226753 97.186947 
L 240.532033 98.635898 
L 240.837312 89.140429 
L 241.142592 85.542931 
L 241.447871 84.111711 
L 241.753151 87.201351 
L 242.05843 69.928588 
L 242.668989 59.130998 
L 242.974269 72.963683 
L 243.279548 71.513444 
L 243.584828 73.66165 
L 243.890107 56.652945 
L 244.195387 57.434857 
L 244.500666 43.827565 
L 244.805946 49.695264 
L 245.111225 52.196522 
L 245.416504 48.674781 
L 245.721784 39.292155 
L 246.027063 35.394951 
L 246.332343 32.996741 
L 246.637622 38.067143 
L 246.942902 34.083231 
L 247.248181 43.114658 
L 247.553461 44.524217 
L 247.85874 44.930611 
L 248.16402 39.150419 
L 248.469299 41.55997 
L 248.774579 39.041013 
L 249.079858 37.84159 
L 249.385138 40.179893 
L 249.690417 35.744705 
L 249.995697 34.46958 
L 250.300976 23.641665 
L 250.911535 48.437156 
L 251.216815 50.050922 
L 251.522094 43.80631 
L 251.827373 43.877836 
L 252.437932 34.470008 
L 252.743212 19.225123 
L 253.048491 17.861334 
L 253.353771 17.083636 
L 253.65905 32.082204 
L 253.96433 39.862621 
L 254.269609 42.915594 
L 254.574889 29.56544 
L 255.490727 59.906216 
L 256.101286 31.721266 
L 256.406566 31.079331 
L 256.711845 31.868577 
L 257.627683 42.348854 
L 257.932963 56.1482 
L 258.238242 63.750266 
L 258.543522 65.235385 
L 258.848801 61.382179 
L 259.154081 55.858892 
L 259.45936 58.054328 
L 259.76464 48.546748 
L 260.069919 57.386064 
L 260.375199 71.288861 
L 260.680478 79.804056 
L 260.985758 77.586408 
L 261.291037 71.031293 
L 261.596317 68.007086 
L 261.901596 74.956692 
L 262.206876 75.034827 
L 262.512155 78.960563 
L 262.817435 71.039327 
L 263.122714 78.520053 
L 263.427993 83.026791 
L 263.733273 79.214318 
L 264.038552 77.768974 
L 264.649111 109.948996 
L 264.954391 107.604407 
L 265.25967 106.763296 
L 265.56495 103.399184 
L 265.870229 123.577756 
L 266.175509 118.820463 
L 266.480788 123.294594 
L 266.786068 124.799886 
L 267.091347 137.668679 
L 267.396627 140.825508 
L 267.701906 132.447366 
L 268.007186 130.305261 
L 268.312465 134.117064 
L 268.617745 132.832725 
L 268.923024 127.885091 
L 269.228304 131.38288 
L 269.533583 149.264065 
L 269.838862 149.51989 
L 270.144142 139.689519 
L 270.449421 135.278043 
L 271.36526 161.111765 
L 271.670539 158.883848 
L 271.975819 154.057636 
L 272.281098 140.998793 
L 272.586378 139.547622 
L 273.196937 162.742809 
L 273.502216 168.071883 
L 273.807496 161.931568 
L 274.112775 161.710658 
L 274.418055 167.005415 
L 274.723334 174.318863 
L 275.028614 175.582481 
L 275.333893 171.821951 
L 275.639172 165.296958 
L 275.944452 169.97897 
L 276.249731 168.873146 
L 276.555011 174.007534 
L 276.86029 176.868131 
L 277.16557 189.741357 
L 277.470849 196.208355 
L 277.776129 188.159005 
L 278.081408 192.722044 
L 278.386688 194.986039 
L 278.691967 208.860187 
L 278.997247 198.930179 
L 279.302526 201.000898 
L 279.607806 193.752659 
L 279.913085 192.743397 
L 280.218365 192.513107 
L 280.523644 202.392816 
L 280.828924 206.539645 
L 281.134203 206.169533 
L 281.439483 194.669378 
L 282.050041 206.778236 
L 282.355321 208.885463 
L 282.6606 206.832521 
L 282.96588 191.365226 
L 283.271159 188.127328 
L 283.576439 190.902518 
L 283.881718 201.375107 
L 284.186998 207.806585 
L 284.492277 193.996458 
L 285.102836 176.515323 
L 285.408116 181.678267 
L 285.713395 177.615938 
L 286.018675 181.499502 
L 286.323954 191.457386 
L 286.629234 191.538531 
L 286.934513 185.212809 
L 287.239793 174.295128 
L 287.545072 173.534096 
L 287.850351 176.020411 
L 288.155631 176.879621 
L 288.46091 183.311249 
L 288.76619 186.779079 
L 289.071469 175.301739 
L 289.376749 174.589829 
L 289.682028 167.040625 
L 289.987308 175.910737 
L 290.292587 164.094671 
L 290.597867 173.770688 
L 290.903146 176.850107 
L 291.208426 186.760228 
L 291.513705 181.822632 
L 291.818985 181.662344 
L 292.124264 171.579453 
L 292.429544 165.959573 
L 292.734823 154.304377 
L 293.040103 161.752959 
L 293.345382 162.276774 
L 293.650662 162.231858 
L 293.955941 149.721822 
L 294.26122 145.684498 
L 294.5665 138.374836 
L 294.871779 134.425825 
L 295.177059 120.712453 
L 295.482338 120.880159 
L 295.787618 115.293926 
L 296.092897 127.168914 
L 296.398177 132.124687 
L 296.703456 126.791774 
L 297.314015 95.708872 
L 297.619295 96.240704 
L 297.924574 97.926846 
L 298.229854 110.13423 
L 298.535133 111.430904 
L 298.840413 111.715712 
L 299.145692 95.796253 
L 299.450972 92.949912 
L 299.756251 88.578757 
L 300.06153 89.151722 
L 300.36681 80.873148 
L 300.672089 83.24853 
L 300.977369 73.674739 
L 301.282648 74.719661 
L 301.587928 65.814922 
L 301.893207 72.178478 
L 302.198487 71.704878 
L 302.503766 70.849915 
L 302.809046 75.678708 
L 303.114325 74.643175 
L 303.419605 76.49617 
L 303.724884 59.799108 
L 304.030164 61.397725 
L 304.640723 56.556695 
L 304.946002 56.671335 
L 305.251282 50.431783 
L 305.556561 66.112336 
L 305.86184 53.472263 
L 306.16712 52.917212 
L 306.472399 41.219004 
L 306.777679 46.11675 
L 307.082958 42.219849 
L 307.693517 26.571492 
L 307.998797 29.50059 
L 308.304076 44.405693 
L 308.609356 46.948215 
L 308.914635 38.474591 
L 309.219915 22.009951 
L 309.525194 31.375217 
L 310.135753 41.24184 
L 310.441033 25.405981 
L 310.746312 30.648805 
L 311.051592 24.677284 
L 311.356871 27.060879 
L 311.662151 19.033446 
L 311.96743 34.35197 
L 312.272709 34.607913 
L 312.577989 32.113133 
L 312.883268 31.08077 
L 313.493827 34.327248 
L 313.799107 26.19646 
L 314.104386 28.141482 
L 314.409666 37.036527 
L 314.714945 41.513855 
L 315.020225 42.225645 
L 315.325504 34.92505 
L 315.630784 36.761827 
L 315.936063 30.208515 
L 316.241343 44.807025 
L 316.546622 49.493109 
L 316.851902 61.616575 
L 317.157181 53.005106 
L 317.462461 55.255922 
L 317.76774 52.943746 
L 318.073019 45.701317 
L 318.378299 35.51982 
L 318.683578 36.932764 
L 318.988858 55.393384 
L 319.294137 66.349932 
L 319.599417 67.027722 
L 319.904696 61.174914 
L 320.209976 50.453656 
L 320.515255 46.932822 
L 320.820535 45.93938 
L 321.125814 59.575842 
L 321.736373 71.443851 
L 322.041653 71.810532 
L 322.346932 76.073235 
L 322.652212 68.925476 
L 322.957491 69.118854 
L 323.262771 65.48839 
L 323.56805 75.012262 
L 323.87333 76.322233 
L 324.178609 91.743888 
L 324.483888 90.296043 
L 324.789168 89.406591 
L 325.094447 85.72394 
L 325.399727 91.304267 
L 325.705006 102.372564 
L 326.010286 106.941459 
L 326.315565 103.951497 
L 326.620845 102.54623 
L 326.926124 104.61017 
L 327.231404 115.626881 
L 327.536683 108.539149 
L 327.841963 111.573238 
L 328.147242 112.113957 
L 328.757801 138.636148 
L 329.063081 147.872269 
L 329.36836 149.754615 
L 329.67364 147.934227 
L 329.978919 147.362386 
L 330.284198 142.170114 
L 330.894757 124.880169 
L 331.505316 134.122551 
L 331.810596 143.972793 
L 332.115875 143.3238 
L 332.421155 149.488564 
L 332.726434 149.233025 
L 333.031714 154.703803 
L 333.336993 149.99009 
L 333.642273 161.324208 
L 333.947552 157.564022 
L 334.252832 172.093364 
L 334.558111 162.432945 
L 334.863391 169.766961 
L 335.16867 173.039771 
L 335.47395 170.915348 
L 336.084508 158.059285 
L 336.389788 164.943326 
L 336.695067 177.40821 
L 337.000347 175.786532 
L 337.305626 182.641573 
L 337.610906 186.536973 
L 338.221465 198.135781 
L 338.526744 202.33597 
L 338.832024 198.90459 
L 339.137303 197.828573 
L 339.442583 182.046271 
L 340.053142 175.874193 
L 340.96898 192.225042 
L 341.27426 193.41019 
L 341.579539 199.932473 
L 341.884819 193.445562 
L 342.190098 204.097291 
L 342.495377 208.867174 
L 342.800657 203.096476 
L 343.411216 178.705243 
L 343.716495 181.329523 
L 344.021775 185.733965 
L 344.327054 182.722607 
L 344.632334 176.277298 
L 344.937613 184.639836 
L 345.242893 186.081412 
L 345.548172 199.106014 
L 345.853452 198.69855 
L 346.158731 203.63906 
L 346.464011 191.820642 
L 346.76929 191.544167 
L 347.07457 189.446449 
L 347.685129 180.717838 
L 347.990408 179.971948 
L 348.295687 189.497205 
L 348.600967 188.380401 
L 348.906246 188.748044 
L 349.211526 177.595661 
L 349.822085 172.155531 
L 350.127364 172.855241 
L 350.432644 160.737409 
L 350.737923 159.745254 
L 351.043203 165.307134 
L 351.348482 176.368657 
L 351.653762 168.552071 
L 351.959041 167.9582 
L 352.264321 161.233447 
L 352.5696 164.771897 
L 352.87488 160.940331 
L 353.180159 153.437437 
L 353.485439 155.025115 
L 353.790718 142.931048 
L 354.095998 137.899973 
L 355.011836 144.313776 
L 355.317115 127.723168 
L 355.927674 117.016042 
L 356.232954 128.202611 
L 356.538233 130.005249 
L 356.843513 129.609556 
L 357.454072 105.969745 
L 357.759351 100.329562 
L 358.064631 98.224416 
L 358.064631 98.224416 
" style="fill:none;stroke:#1f77b4;stroke-linecap:square;stroke-width:1.5;"/>
   </g>
   <g id="patch_3">
    <path d="M 38.482813 224.64 
L 38.482813 7.2 
" style="fill:none;stroke:#000000;stroke-linecap:square;stroke-linejoin:miter;stroke-width:0.8;"/>
   </g>
   <g id="patch_4">
    <path d="M 373.282813 224.64 
L 373.282813 7.2 
" style="fill:none;stroke:#000000;stroke-linecap:square;stroke-linejoin:miter;stroke-width:0.8;"/>
   </g>
   <g id="patch_5">
    <path d="M 38.482813 224.64 
L 373.282813 224.64 
" style="fill:none;stroke:#000000;stroke-linecap:square;stroke-linejoin:miter;stroke-width:0.8;"/>
   </g>
   <g id="patch_6">
    <path d="M 38.482813 7.2 
L 373.282813 7.2 
" style="fill:none;stroke:#000000;stroke-linecap:square;stroke-linejoin:miter;stroke-width:0.8;"/>
   </g>
  </g>
 </g>
 <defs>
  <clipPath id="p482a58de24">
   <rect height="217.44" width="334.8" x="38.482813" y="7.2"/>
  </clipPath>
 </defs>
</svg>
