<?xml version="1.0" encoding="utf-8" standalone="no"?>
<!DOCTYPE svg PUBLIC "-//W3C//DTD SVG 1.1//EN"
  "http://www.w3.org/Graphics/SVG/1.1/DTD/svg11.dtd">
<svg xmlns:xlink="http://www.w3.org/1999/xlink" width="400.523437pt" height="248.518125pt" viewBox="0 0 400.523437 248.518125" xmlns="http://www.w3.org/2000/svg" version="1.1">
 <metadata>
  <rdf:RDF xmlns:dc="http://purl.org/dc/elements/1.1/" xmlns:cc="http://creativecommons.org/ns#" xmlns:rdf="http://www.w3.org/1999/02/22-rdf-syntax-ns#">
   <cc:Work>
    <dc:type rdf:resource="http://purl.org/dc/dcmitype/StillImage"/>
    <dc:date>2022-07-20T10:47:42.106969</dc:date>
    <dc:format>image/svg+xml</dc:format>
    <dc:creator>
     <cc:Agent>
      <dc:title>Matplotlib v3.5.2, https://matplotlib.org/</dc:title>
     </cc:Agent>
    </dc:creator>
   </cc:Work>
  </rdf:RDF>
 </metadata>
 <defs>
  <style type="text/css">*{stroke-linejoin: round; stroke-linecap: butt}</style>
 </defs>
 <g id="figure_1">
  <g id="patch_1">
   <path d="M 0 248.518125 
L 400.523437 248.518125 
L 400.523437 0 
L 0 0 
L 0 248.518125 
z
" style="fill: none"/>
  </g>
  <g id="axes_1">
   <g id="patch_2">
    <path d="M 58.523438 224.64 
L 393.323438 224.64 
L 393.323438 7.2 
L 58.523438 7.2 
z
" style="fill: #ffffff"/>
   </g>
   <g id="matplotlib.axis_1">
    <g id="xtick_1">
     <g id="line2d_1">
      <defs>
       <path id="m7d52c9faa9" d="M 0 0 
L 0 3.5 
" style="stroke: #000000; stroke-width: 0.8"/>
      </defs>
      <g>
       <use xlink:href="#m7d52c9faa9" x="73.589133" y="224.64" style="stroke: #000000; stroke-width: 0.8"/>
      </g>
     </g>
     <g id="text_1">
      <!-- 0 -->
      <g transform="translate(70.407883 239.238437)scale(0.1 -0.1)">
       <defs>
        <path id="DejaVuSans-30" d="M 2034 4250 
Q 1547 4250 1301 3770 
Q 1056 3291 1056 2328 
Q 1056 1369 1301 889 
Q 1547 409 2034 409 
Q 2525 409 2770 889 
Q 3016 1369 3016 2328 
Q 3016 3291 2770 3770 
Q 2525 4250 2034 4250 
z
M 2034 4750 
Q 2819 4750 3233 4129 
Q 3647 3509 3647 2328 
Q 3647 1150 3233 529 
Q 2819 -91 2034 -91 
Q 1250 -91 836 529 
Q 422 1150 422 2328 
Q 422 3509 836 4129 
Q 1250 4750 2034 4750 
z
" transform="scale(0.015625)"/>
       </defs>
       <use xlink:href="#DejaVuSans-30"/>
      </g>
     </g>
    </g>
    <g id="xtick_2">
     <g id="line2d_2">
      <g>
       <use xlink:href="#m7d52c9faa9" x="122.078648" y="224.64" style="stroke: #000000; stroke-width: 0.8"/>
      </g>
     </g>
     <g id="text_2">
      <!-- 1 -->
      <g transform="translate(118.897398 239.238437)scale(0.1 -0.1)">
       <defs>
        <path id="DejaVuSans-31" d="M 794 531 
L 1825 531 
L 1825 4091 
L 703 3866 
L 703 4441 
L 1819 4666 
L 2450 4666 
L 2450 531 
L 3481 531 
L 3481 0 
L 794 0 
L 794 531 
z
" transform="scale(0.015625)"/>
       </defs>
       <use xlink:href="#DejaVuSans-31"/>
      </g>
     </g>
    </g>
    <g id="xtick_3">
     <g id="line2d_3">
      <g>
       <use xlink:href="#m7d52c9faa9" x="170.568163" y="224.64" style="stroke: #000000; stroke-width: 0.8"/>
      </g>
     </g>
     <g id="text_3">
      <!-- 2 -->
      <g transform="translate(167.386913 239.238437)scale(0.1 -0.1)">
       <defs>
        <path id="DejaVuSans-32" d="M 1228 531 
L 3431 531 
L 3431 0 
L 469 0 
L 469 531 
Q 828 903 1448 1529 
Q 2069 2156 2228 2338 
Q 2531 2678 2651 2914 
Q 2772 3150 2772 3378 
Q 2772 3750 2511 3984 
Q 2250 4219 1831 4219 
Q 1534 4219 1204 4116 
Q 875 4013 500 3803 
L 500 4441 
Q 881 4594 1212 4672 
Q 1544 4750 1819 4750 
Q 2544 4750 2975 4387 
Q 3406 4025 3406 3419 
Q 3406 3131 3298 2873 
Q 3191 2616 2906 2266 
Q 2828 2175 2409 1742 
Q 1991 1309 1228 531 
z
" transform="scale(0.015625)"/>
       </defs>
       <use xlink:href="#DejaVuSans-32"/>
      </g>
     </g>
    </g>
    <g id="xtick_4">
     <g id="line2d_4">
      <g>
       <use xlink:href="#m7d52c9faa9" x="219.057678" y="224.64" style="stroke: #000000; stroke-width: 0.8"/>
      </g>
     </g>
     <g id="text_4">
      <!-- 3 -->
      <g transform="translate(215.876428 239.238437)scale(0.1 -0.1)">
       <defs>
        <path id="DejaVuSans-33" d="M 2597 2516 
Q 3050 2419 3304 2112 
Q 3559 1806 3559 1356 
Q 3559 666 3084 287 
Q 2609 -91 1734 -91 
Q 1441 -91 1130 -33 
Q 819 25 488 141 
L 488 750 
Q 750 597 1062 519 
Q 1375 441 1716 441 
Q 2309 441 2620 675 
Q 2931 909 2931 1356 
Q 2931 1769 2642 2001 
Q 2353 2234 1838 2234 
L 1294 2234 
L 1294 2753 
L 1863 2753 
Q 2328 2753 2575 2939 
Q 2822 3125 2822 3475 
Q 2822 3834 2567 4026 
Q 2313 4219 1838 4219 
Q 1578 4219 1281 4162 
Q 984 4106 628 3988 
L 628 4550 
Q 988 4650 1302 4700 
Q 1616 4750 1894 4750 
Q 2613 4750 3031 4423 
Q 3450 4097 3450 3541 
Q 3450 3153 3228 2886 
Q 3006 2619 2597 2516 
z
" transform="scale(0.015625)"/>
       </defs>
       <use xlink:href="#DejaVuSans-33"/>
      </g>
     </g>
    </g>
    <g id="xtick_5">
     <g id="line2d_5">
      <g>
       <use xlink:href="#m7d52c9faa9" x="267.547194" y="224.64" style="stroke: #000000; stroke-width: 0.8"/>
      </g>
     </g>
     <g id="text_5">
      <!-- 4 -->
      <g transform="translate(264.365944 239.238437)scale(0.1 -0.1)">
       <defs>
        <path id="DejaVuSans-34" d="M 2419 4116 
L 825 1625 
L 2419 1625 
L 2419 4116 
z
M 2253 4666 
L 3047 4666 
L 3047 1625 
L 3713 1625 
L 3713 1100 
L 3047 1100 
L 3047 0 
L 2419 0 
L 2419 1100 
L 313 1100 
L 313 1709 
L 2253 4666 
z
" transform="scale(0.015625)"/>
       </defs>
       <use xlink:href="#DejaVuSans-34"/>
      </g>
     </g>
    </g>
    <g id="xtick_6">
     <g id="line2d_6">
      <g>
       <use xlink:href="#m7d52c9faa9" x="316.036709" y="224.64" style="stroke: #000000; stroke-width: 0.8"/>
      </g>
     </g>
     <g id="text_6">
      <!-- 5 -->
      <g transform="translate(312.855459 239.238437)scale(0.1 -0.1)">
       <defs>
        <path id="DejaVuSans-35" d="M 691 4666 
L 3169 4666 
L 3169 4134 
L 1269 4134 
L 1269 2991 
Q 1406 3038 1543 3061 
Q 1681 3084 1819 3084 
Q 2600 3084 3056 2656 
Q 3513 2228 3513 1497 
Q 3513 744 3044 326 
Q 2575 -91 1722 -91 
Q 1428 -91 1123 -41 
Q 819 9 494 109 
L 494 744 
Q 775 591 1075 516 
Q 1375 441 1709 441 
Q 2250 441 2565 725 
Q 2881 1009 2881 1497 
Q 2881 1984 2565 2268 
Q 2250 2553 1709 2553 
Q 1456 2553 1204 2497 
Q 953 2441 691 2322 
L 691 4666 
z
" transform="scale(0.015625)"/>
       </defs>
       <use xlink:href="#DejaVuSans-35"/>
      </g>
     </g>
    </g>
    <g id="xtick_7">
     <g id="line2d_7">
      <g>
       <use xlink:href="#m7d52c9faa9" x="364.526224" y="224.64" style="stroke: #000000; stroke-width: 0.8"/>
      </g>
     </g>
     <g id="text_7">
      <!-- 6 -->
      <g transform="translate(361.344974 239.238437)scale(0.1 -0.1)">
       <defs>
        <path id="DejaVuSans-36" d="M 2113 2584 
Q 1688 2584 1439 2293 
Q 1191 2003 1191 1497 
Q 1191 994 1439 701 
Q 1688 409 2113 409 
Q 2538 409 2786 701 
Q 3034 994 3034 1497 
Q 3034 2003 2786 2293 
Q 2538 2584 2113 2584 
z
M 3366 4563 
L 3366 3988 
Q 3128 4100 2886 4159 
Q 2644 4219 2406 4219 
Q 1781 4219 1451 3797 
Q 1122 3375 1075 2522 
Q 1259 2794 1537 2939 
Q 1816 3084 2150 3084 
Q 2853 3084 3261 2657 
Q 3669 2231 3669 1497 
Q 3669 778 3244 343 
Q 2819 -91 2113 -91 
Q 1303 -91 875 529 
Q 447 1150 447 2328 
Q 447 3434 972 4092 
Q 1497 4750 2381 4750 
Q 2619 4750 2861 4703 
Q 3103 4656 3366 4563 
z
" transform="scale(0.015625)"/>
       </defs>
       <use xlink:href="#DejaVuSans-36"/>
      </g>
     </g>
    </g>
   </g>
   <g id="matplotlib.axis_2">
    <g id="ytick_1">
     <g id="line2d_8">
      <defs>
       <path id="m1aaeba130b" d="M 0 0 
L -3.5 0 
" style="stroke: #000000; stroke-width: 0.8"/>
      </defs>
      <g>
       <use xlink:href="#m1aaeba130b" x="58.523438" y="224.457612" style="stroke: #000000; stroke-width: 0.8"/>
      </g>
     </g>
     <g id="text_8">
      <!-- −0.08 -->
      <g transform="translate(20.878125 228.256831)scale(0.1 -0.1)">
       <defs>
        <path id="DejaVuSans-2212" d="M 678 2272 
L 4684 2272 
L 4684 1741 
L 678 1741 
L 678 2272 
z
" transform="scale(0.015625)"/>
        <path id="DejaVuSans-2e" d="M 684 794 
L 1344 794 
L 1344 0 
L 684 0 
L 684 794 
z
" transform="scale(0.015625)"/>
        <path id="DejaVuSans-38" d="M 2034 2216 
Q 1584 2216 1326 1975 
Q 1069 1734 1069 1313 
Q 1069 891 1326 650 
Q 1584 409 2034 409 
Q 2484 409 2743 651 
Q 3003 894 3003 1313 
Q 3003 1734 2745 1975 
Q 2488 2216 2034 2216 
z
M 1403 2484 
Q 997 2584 770 2862 
Q 544 3141 544 3541 
Q 544 4100 942 4425 
Q 1341 4750 2034 4750 
Q 2731 4750 3128 4425 
Q 3525 4100 3525 3541 
Q 3525 3141 3298 2862 
Q 3072 2584 2669 2484 
Q 3125 2378 3379 2068 
Q 3634 1759 3634 1313 
Q 3634 634 3220 271 
Q 2806 -91 2034 -91 
Q 1263 -91 848 271 
Q 434 634 434 1313 
Q 434 1759 690 2068 
Q 947 2378 1403 2484 
z
M 1172 3481 
Q 1172 3119 1398 2916 
Q 1625 2713 2034 2713 
Q 2441 2713 2670 2916 
Q 2900 3119 2900 3481 
Q 2900 3844 2670 4047 
Q 2441 4250 2034 4250 
Q 1625 4250 1398 4047 
Q 1172 3844 1172 3481 
z
" transform="scale(0.015625)"/>
       </defs>
       <use xlink:href="#DejaVuSans-2212"/>
       <use xlink:href="#DejaVuSans-30" x="83.789062"/>
       <use xlink:href="#DejaVuSans-2e" x="147.412109"/>
       <use xlink:href="#DejaVuSans-30" x="179.199219"/>
       <use xlink:href="#DejaVuSans-38" x="242.822266"/>
      </g>
     </g>
    </g>
    <g id="ytick_2">
     <g id="line2d_9">
      <g>
       <use xlink:href="#m1aaeba130b" x="58.523438" y="196.619011" style="stroke: #000000; stroke-width: 0.8"/>
      </g>
     </g>
     <g id="text_9">
      <!-- −0.06 -->
      <g transform="translate(20.878125 200.41823)scale(0.1 -0.1)">
       <use xlink:href="#DejaVuSans-2212"/>
       <use xlink:href="#DejaVuSans-30" x="83.789062"/>
       <use xlink:href="#DejaVuSans-2e" x="147.412109"/>
       <use xlink:href="#DejaVuSans-30" x="179.199219"/>
       <use xlink:href="#DejaVuSans-36" x="242.822266"/>
      </g>
     </g>
    </g>
    <g id="ytick_3">
     <g id="line2d_10">
      <g>
       <use xlink:href="#m1aaeba130b" x="58.523438" y="168.780411" style="stroke: #000000; stroke-width: 0.8"/>
      </g>
     </g>
     <g id="text_10">
      <!-- −0.04 -->
      <g transform="translate(20.878125 172.57963)scale(0.1 -0.1)">
       <use xlink:href="#DejaVuSans-2212"/>
       <use xlink:href="#DejaVuSans-30" x="83.789062"/>
       <use xlink:href="#DejaVuSans-2e" x="147.412109"/>
       <use xlink:href="#DejaVuSans-30" x="179.199219"/>
       <use xlink:href="#DejaVuSans-34" x="242.822266"/>
      </g>
     </g>
    </g>
    <g id="ytick_4">
     <g id="line2d_11">
      <g>
       <use xlink:href="#m1aaeba130b" x="58.523438" y="140.94181" style="stroke: #000000; stroke-width: 0.8"/>
      </g>
     </g>
     <g id="text_11">
      <!-- −0.02 -->
      <g transform="translate(20.878125 144.741029)scale(0.1 -0.1)">
       <use xlink:href="#DejaVuSans-2212"/>
       <use xlink:href="#DejaVuSans-30" x="83.789062"/>
       <use xlink:href="#DejaVuSans-2e" x="147.412109"/>
       <use xlink:href="#DejaVuSans-30" x="179.199219"/>
       <use xlink:href="#DejaVuSans-32" x="242.822266"/>
      </g>
     </g>
    </g>
    <g id="ytick_5">
     <g id="line2d_12">
      <g>
       <use xlink:href="#m1aaeba130b" x="58.523438" y="113.10321" style="stroke: #000000; stroke-width: 0.8"/>
      </g>
     </g>
     <g id="text_12">
      <!-- 0.00 -->
      <g transform="translate(29.257813 116.902428)scale(0.1 -0.1)">
       <use xlink:href="#DejaVuSans-30"/>
       <use xlink:href="#DejaVuSans-2e" x="63.623047"/>
       <use xlink:href="#DejaVuSans-30" x="95.410156"/>
       <use xlink:href="#DejaVuSans-30" x="159.033203"/>
      </g>
     </g>
    </g>
    <g id="ytick_6">
     <g id="line2d_13">
      <g>
       <use xlink:href="#m1aaeba130b" x="58.523438" y="85.264609" style="stroke: #000000; stroke-width: 0.8"/>
      </g>
     </g>
     <g id="text_13">
      <!-- 0.02 -->
      <g transform="translate(29.257813 89.063828)scale(0.1 -0.1)">
       <use xlink:href="#DejaVuSans-30"/>
       <use xlink:href="#DejaVuSans-2e" x="63.623047"/>
       <use xlink:href="#DejaVuSans-30" x="95.410156"/>
       <use xlink:href="#DejaVuSans-32" x="159.033203"/>
      </g>
     </g>
    </g>
    <g id="ytick_7">
     <g id="line2d_14">
      <g>
       <use xlink:href="#m1aaeba130b" x="58.523438" y="57.426008" style="stroke: #000000; stroke-width: 0.8"/>
      </g>
     </g>
     <g id="text_14">
      <!-- 0.04 -->
      <g transform="translate(29.257813 61.225227)scale(0.1 -0.1)">
       <use xlink:href="#DejaVuSans-30"/>
       <use xlink:href="#DejaVuSans-2e" x="63.623047"/>
       <use xlink:href="#DejaVuSans-30" x="95.410156"/>
       <use xlink:href="#DejaVuSans-34" x="159.033203"/>
      </g>
     </g>
    </g>
    <g id="ytick_8">
     <g id="line2d_15">
      <g>
       <use xlink:href="#m1aaeba130b" x="58.523438" y="29.587408" style="stroke: #000000; stroke-width: 0.8"/>
      </g>
     </g>
     <g id="text_15">
      <!-- 0.06 -->
      <g transform="translate(29.257813 33.386626)scale(0.1 -0.1)">
       <use xlink:href="#DejaVuSans-30"/>
       <use xlink:href="#DejaVuSans-2e" x="63.623047"/>
       <use xlink:href="#DejaVuSans-30" x="95.410156"/>
       <use xlink:href="#DejaVuSans-36" x="159.033203"/>
      </g>
     </g>
    </g>
    <g id="text_16">
     <!-- Slope, dx/dy -->
     <g transform="translate(14.798438 146.923125)rotate(-90)scale(0.1 -0.1)">
      <defs>
       <path id="DejaVuSans-53" d="M 3425 4513 
L 3425 3897 
Q 3066 4069 2747 4153 
Q 2428 4238 2131 4238 
Q 1616 4238 1336 4038 
Q 1056 3838 1056 3469 
Q 1056 3159 1242 3001 
Q 1428 2844 1947 2747 
L 2328 2669 
Q 3034 2534 3370 2195 
Q 3706 1856 3706 1288 
Q 3706 609 3251 259 
Q 2797 -91 1919 -91 
Q 1588 -91 1214 -16 
Q 841 59 441 206 
L 441 856 
Q 825 641 1194 531 
Q 1563 422 1919 422 
Q 2459 422 2753 634 
Q 3047 847 3047 1241 
Q 3047 1584 2836 1778 
Q 2625 1972 2144 2069 
L 1759 2144 
Q 1053 2284 737 2584 
Q 422 2884 422 3419 
Q 422 4038 858 4394 
Q 1294 4750 2059 4750 
Q 2388 4750 2728 4690 
Q 3069 4631 3425 4513 
z
" transform="scale(0.015625)"/>
       <path id="DejaVuSans-6c" d="M 603 4863 
L 1178 4863 
L 1178 0 
L 603 0 
L 603 4863 
z
" transform="scale(0.015625)"/>
       <path id="DejaVuSans-6f" d="M 1959 3097 
Q 1497 3097 1228 2736 
Q 959 2375 959 1747 
Q 959 1119 1226 758 
Q 1494 397 1959 397 
Q 2419 397 2687 759 
Q 2956 1122 2956 1747 
Q 2956 2369 2687 2733 
Q 2419 3097 1959 3097 
z
M 1959 3584 
Q 2709 3584 3137 3096 
Q 3566 2609 3566 1747 
Q 3566 888 3137 398 
Q 2709 -91 1959 -91 
Q 1206 -91 779 398 
Q 353 888 353 1747 
Q 353 2609 779 3096 
Q 1206 3584 1959 3584 
z
" transform="scale(0.015625)"/>
       <path id="DejaVuSans-70" d="M 1159 525 
L 1159 -1331 
L 581 -1331 
L 581 3500 
L 1159 3500 
L 1159 2969 
Q 1341 3281 1617 3432 
Q 1894 3584 2278 3584 
Q 2916 3584 3314 3078 
Q 3713 2572 3713 1747 
Q 3713 922 3314 415 
Q 2916 -91 2278 -91 
Q 1894 -91 1617 61 
Q 1341 213 1159 525 
z
M 3116 1747 
Q 3116 2381 2855 2742 
Q 2594 3103 2138 3103 
Q 1681 3103 1420 2742 
Q 1159 2381 1159 1747 
Q 1159 1113 1420 752 
Q 1681 391 2138 391 
Q 2594 391 2855 752 
Q 3116 1113 3116 1747 
z
" transform="scale(0.015625)"/>
       <path id="DejaVuSans-65" d="M 3597 1894 
L 3597 1613 
L 953 1613 
Q 991 1019 1311 708 
Q 1631 397 2203 397 
Q 2534 397 2845 478 
Q 3156 559 3463 722 
L 3463 178 
Q 3153 47 2828 -22 
Q 2503 -91 2169 -91 
Q 1331 -91 842 396 
Q 353 884 353 1716 
Q 353 2575 817 3079 
Q 1281 3584 2069 3584 
Q 2775 3584 3186 3129 
Q 3597 2675 3597 1894 
z
M 3022 2063 
Q 3016 2534 2758 2815 
Q 2500 3097 2075 3097 
Q 1594 3097 1305 2825 
Q 1016 2553 972 2059 
L 3022 2063 
z
" transform="scale(0.015625)"/>
       <path id="DejaVuSans-2c" d="M 750 794 
L 1409 794 
L 1409 256 
L 897 -744 
L 494 -744 
L 750 256 
L 750 794 
z
" transform="scale(0.015625)"/>
       <path id="DejaVuSans-20" transform="scale(0.015625)"/>
       <path id="DejaVuSans-64" d="M 2906 2969 
L 2906 4863 
L 3481 4863 
L 3481 0 
L 2906 0 
L 2906 525 
Q 2725 213 2448 61 
Q 2172 -91 1784 -91 
Q 1150 -91 751 415 
Q 353 922 353 1747 
Q 353 2572 751 3078 
Q 1150 3584 1784 3584 
Q 2172 3584 2448 3432 
Q 2725 3281 2906 2969 
z
M 947 1747 
Q 947 1113 1208 752 
Q 1469 391 1925 391 
Q 2381 391 2643 752 
Q 2906 1113 2906 1747 
Q 2906 2381 2643 2742 
Q 2381 3103 1925 3103 
Q 1469 3103 1208 2742 
Q 947 2381 947 1747 
z
" transform="scale(0.015625)"/>
       <path id="DejaVuSans-78" d="M 3513 3500 
L 2247 1797 
L 3578 0 
L 2900 0 
L 1881 1375 
L 863 0 
L 184 0 
L 1544 1831 
L 300 3500 
L 978 3500 
L 1906 2253 
L 2834 3500 
L 3513 3500 
z
" transform="scale(0.015625)"/>
       <path id="DejaVuSans-2f" d="M 1625 4666 
L 2156 4666 
L 531 -594 
L 0 -594 
L 1625 4666 
z
" transform="scale(0.015625)"/>
       <path id="DejaVuSans-79" d="M 2059 -325 
Q 1816 -950 1584 -1140 
Q 1353 -1331 966 -1331 
L 506 -1331 
L 506 -850 
L 844 -850 
Q 1081 -850 1212 -737 
Q 1344 -625 1503 -206 
L 1606 56 
L 191 3500 
L 800 3500 
L 1894 763 
L 2988 3500 
L 3597 3500 
L 2059 -325 
z
" transform="scale(0.015625)"/>
      </defs>
      <use xlink:href="#DejaVuSans-53"/>
      <use xlink:href="#DejaVuSans-6c" x="63.476562"/>
      <use xlink:href="#DejaVuSans-6f" x="91.259766"/>
      <use xlink:href="#DejaVuSans-70" x="152.441406"/>
      <use xlink:href="#DejaVuSans-65" x="215.917969"/>
      <use xlink:href="#DejaVuSans-2c" x="277.441406"/>
      <use xlink:href="#DejaVuSans-20" x="309.228516"/>
      <use xlink:href="#DejaVuSans-64" x="341.015625"/>
      <use xlink:href="#DejaVuSans-78" x="404.492188"/>
      <use xlink:href="#DejaVuSans-2f" x="463.671875"/>
      <use xlink:href="#DejaVuSans-64" x="497.363281"/>
      <use xlink:href="#DejaVuSans-79" x="560.839844"/>
     </g>
    </g>
   </g>
   <g id="line2d_16">
    <path d="M 73.741619 187.639586 
L 74.046593 52.870701 
L 74.351566 138.043913 
L 74.65654 96.447877 
L 74.961514 78.286589 
L 75.266487 146.432526 
L 75.571461 70.069397 
L 75.876434 84.102073 
L 76.181408 155.396956 
L 76.486382 67.018913 
L 76.791355 139.647288 
L 77.096329 86.702942 
L 77.401302 87.239245 
L 77.706276 158.308162 
L 78.011249 98.170771 
L 78.316223 101.699157 
L 78.621197 121.964266 
L 78.92617 17.083636 
L 79.231144 101.379831 
L 79.536117 120.245284 
L 79.841091 122.64082 
L 80.146065 96.442675 
L 80.451038 149.340458 
L 80.756012 63.302324 
L 81.060985 130.617313 
L 81.365959 129.445038 
L 81.670932 95.261359 
L 81.975906 83.563007 
L 82.28088 84.196106 
L 82.585853 97.990371 
L 82.890827 76.314927 
L 83.1958 182.154009 
L 83.500774 63.214884 
L 83.805748 159.332898 
L 84.110721 41.968611 
L 84.415695 131.79649 
L 84.720668 56.607543 
L 85.025642 107.452646 
L 85.330615 111.227902 
L 85.635589 163.000261 
L 85.940563 66.991674 
L 86.245536 139.095622 
L 86.55051 44.400598 
L 86.855483 180.109551 
L 87.160457 26.665864 
L 87.465431 146.656486 
L 87.770404 133.005961 
L 88.075378 62.798454 
L 88.380351 98.008564 
L 88.685325 116.048731 
L 88.990298 98.78487 
L 89.295272 139.94362 
L 89.600246 33.601208 
L 89.905219 149.843461 
L 90.210193 83.108857 
L 90.515166 93.494699 
L 90.82014 140.964798 
L 91.125114 69.900621 
L 91.430087 90.775423 
L 92.040034 174.282907 
L 92.649981 38.540989 
L 92.954955 137.69524 
L 93.259929 151.571933 
L 93.564902 47.896739 
L 93.869876 67.117235 
L 94.174849 147.354042 
L 94.479823 133.424091 
L 94.784797 72.554866 
L 95.394744 147.857563 
L 95.699717 22.88189 
L 96.004691 191.142788 
L 96.309664 98.720622 
L 96.614638 97.872861 
L 96.919612 110.411537 
L 97.224585 19.381431 
L 97.834532 184.103226 
L 98.139506 38.69765 
L 98.44448 158.099827 
L 98.749453 27.987314 
L 99.054427 156.882513 
L 99.3594 81.922936 
L 99.664374 173.055245 
L 99.969348 26.490208 
L 100.274321 186.782186 
L 100.579295 101.315434 
L 100.884268 59.158338 
L 101.189242 126.749589 
L 101.494215 85.151038 
L 101.799189 75.013131 
L 102.104163 179.34192 
L 102.409136 83.658718 
L 102.71411 96.349879 
L 103.019083 129.464233 
L 103.324057 55.403787 
L 103.629031 136.528829 
L 103.934004 117.023571 
L 104.238978 48.289298 
L 104.543951 170.766052 
L 104.848925 36.008531 
L 105.153898 176.392157 
L 105.458872 67.159274 
L 105.763846 117.30405 
L 106.068819 58.697956 
L 106.373793 168.944409 
L 106.678766 101.03767 
L 106.98374 71.153188 
L 107.288714 163.00999 
L 107.593687 82.419891 
L 107.898661 62.670499 
L 108.203634 151.676671 
L 108.813581 78.892122 
L 109.118555 99.945724 
L 109.423529 170.737458 
L 109.728502 50.309591 
L 110.033476 158.589677 
L 110.338449 81.582115 
L 110.643423 111.089645 
L 110.948397 65.403393 
L 111.25337 80.085771 
L 111.558344 149.848027 
L 111.863317 130.966191 
L 112.168291 79.648852 
L 112.473264 86.189796 
L 112.778238 88.344743 
L 113.083212 193.852475 
L 113.388185 113.421519 
L 113.693159 75.253014 
L 113.998132 58.801719 
L 114.303106 128.704506 
L 114.60808 79.382879 
L 114.913053 140.794447 
L 115.218027 156.881403 
L 115.523 106.787544 
L 115.827974 85.0363 
L 116.132947 107.217595 
L 116.437921 108.345974 
L 116.742895 112.20679 
L 117.047868 47.061073 
L 117.657815 144.028103 
L 117.962789 142.636143 
L 118.267763 52.58685 
L 118.572736 144.544037 
L 119.182683 58.536429 
L 119.487657 135.658244 
L 119.79263 157.032581 
L 120.097604 41.68133 
L 120.402578 145.014691 
L 120.707551 101.512617 
L 121.012525 102.335129 
L 121.317498 163.465816 
L 121.622472 67.689647 
L 121.927446 73.004329 
L 122.232419 93.572319 
L 122.537393 170.977428 
L 122.842366 88.592466 
L 123.14734 128.851971 
L 123.452313 133.394523 
L 123.757287 36.49308 
L 124.062261 182.267378 
L 124.367234 90.800857 
L 124.672208 81.349135 
L 124.977181 106.783368 
L 125.282155 148.458086 
L 125.587129 101.662322 
L 125.892102 74.663461 
L 126.197076 126.029854 
L 126.502049 99.433051 
L 126.807023 149.172402 
L 127.111996 61.673784 
L 127.41697 73.046292 
L 127.721944 183.189505 
L 128.026917 66.904135 
L 128.331891 116.663509 
L 128.941838 141.147709 
L 129.246812 76.337082 
L 129.551785 82.695664 
L 129.856759 84.555068 
L 130.161732 147.068006 
L 130.466706 104.052093 
L 130.771679 142.652447 
L 131.076653 89.49742 
L 131.381627 143.368767 
L 131.991574 73.287493 
L 132.296547 126.642738 
L 132.601521 130.402405 
L 132.906495 119.086286 
L 133.211468 40.471748 
L 133.516442 155.486986 
L 133.821415 84.47715 
L 134.126389 153.931958 
L 134.736336 43.289589 
L 135.04131 188.000655 
L 135.346283 79.298336 
L 135.651257 146.741995 
L 135.95623 52.107578 
L 136.261204 146.48912 
L 136.566178 58.756268 
L 136.871151 155.14209 
L 137.176125 129.515784 
L 137.481098 58.57038 
L 138.091045 143.7128 
L 138.396019 126.361262 
L 138.700993 98.563574 
L 139.005966 141.094205 
L 139.31094 111.268695 
L 139.615913 101.938098 
L 139.920887 38.829719 
L 140.225861 120.625003 
L 140.530834 96.760984 
L 140.835808 156.825959 
L 141.445755 89.371218 
L 141.750728 146.312574 
L 142.055702 72.010883 
L 142.360676 146.803456 
L 142.665649 50.936873 
L 142.970623 109.657574 
L 143.275596 131.354894 
L 143.58057 134.441034 
L 143.885544 99.559003 
L 144.190517 87.091089 
L 144.495491 203.230391 
L 144.800464 108.458497 
L 145.105438 105.363552 
L 145.410411 28.900426 
L 145.715385 194.975387 
L 146.020359 110.810339 
L 146.325332 123.016767 
L 146.630306 33.635789 
L 146.935279 187.158098 
L 147.240253 96.52871 
L 147.545227 88.425038 
L 147.8502 103.472931 
L 148.155174 142.694413 
L 148.460147 108.521153 
L 148.765121 112.140227 
L 149.070094 102.741172 
L 149.375068 138.633244 
L 149.680042 76.04589 
L 149.985015 72.152811 
L 150.289989 198.241047 
L 150.594962 53.266266 
L 150.899936 95.142082 
L 151.20491 158.043379 
L 151.814857 97.588442 
L 152.11983 135.27474 
L 152.424804 111.200039 
L 152.729777 72.076727 
L 153.339725 168.233824 
L 153.644698 88.908365 
L 153.949672 60.163564 
L 154.254645 110.543625 
L 154.559619 199.359615 
L 154.864593 30.465081 
L 155.169566 129.066712 
L 155.47454 165.85175 
L 155.779513 121.368627 
L 156.084487 51.041431 
L 156.38946 97.816455 
L 156.694434 178.42467 
L 156.999408 138.865166 
L 157.304381 64.329757 
L 157.609355 165.835043 
L 157.914328 26.213279 
L 158.219302 116.946805 
L 158.524276 105.283028 
L 158.829249 165.716908 
L 159.134223 76.318568 
L 159.439196 149.861594 
L 159.74417 94.696196 
L 160.049143 135.590923 
L 160.354117 140.37292 
L 160.659091 119.070891 
L 160.964064 84.711927 
L 161.269038 125.861772 
L 161.574011 142.806165 
L 161.878985 121.44146 
L 162.183959 51.976099 
L 162.488932 159.159992 
L 162.793906 100.921998 
L 163.098879 91.662517 
L 163.403853 95.020356 
L 163.708826 110.674549 
L 164.0138 119.421033 
L 164.318774 106.39025 
L 164.623747 134.247642 
L 164.928721 147.515948 
L 165.233694 147.200575 
L 165.538668 33.485923 
L 165.843642 146.871014 
L 166.148615 148.412201 
L 166.453589 94.103506 
L 166.758562 106.335685 
L 167.063536 139.62913 
L 167.368509 101.529585 
L 167.673483 105.325817 
L 167.978457 166.276476 
L 168.28343 71.582126 
L 168.588404 79.821991 
L 168.893377 195.513166 
L 169.198351 68.220096 
L 169.808298 166.801375 
L 170.113272 52.211693 
L 170.418245 138.006877 
L 170.723219 140.476022 
L 171.028192 65.026978 
L 171.333166 184.794103 
L 171.63814 120.367693 
L 171.943113 92.311733 
L 172.248087 112.702513 
L 172.55306 71.965116 
L 172.858034 134.623582 
L 173.163008 158.273726 
L 173.467981 141.898121 
L 173.772955 63.18767 
L 174.077928 154.655859 
L 174.382902 65.958064 
L 174.687875 187.119499 
L 174.992849 61.895413 
L 175.297823 167.463542 
L 175.602796 124.961565 
L 175.90777 32.164129 
L 176.212743 126.501965 
L 176.517717 160.236113 
L 176.822691 72.086185 
L 177.127664 120.853698 
L 177.432638 148.18326 
L 177.737611 100.73744 
L 178.042585 148.034057 
L 178.347558 102.820927 
L 178.652532 161.615437 
L 178.957506 56.154578 
L 179.262479 162.180826 
L 179.567453 99.236377 
L 179.872426 124.26594 
L 180.1774 93.925557 
L 180.482374 153.925333 
L 180.787347 100.317506 
L 181.092321 86.463095 
L 181.397294 151.449757 
L 181.702268 143.127685 
L 182.007241 103.002161 
L 182.312215 152.609069 
L 182.617189 120.153344 
L 182.922162 38.633785 
L 183.227136 175.957567 
L 183.532109 89.131633 
L 183.837083 150.36029 
L 184.44703 89.083842 
L 184.752004 97.185331 
L 185.056977 127.996767 
L 185.361951 91.854254 
L 185.666924 172.461716 
L 185.971898 141.54997 
L 186.276872 54.210081 
L 186.886819 165.984336 
L 187.191792 142.046231 
L 187.496766 69.954637 
L 188.106713 158.039242 
L 188.411687 116.949889 
L 188.71666 156.131906 
L 189.021634 59.752044 
L 189.631581 126.147609 
L 189.936555 130.748981 
L 190.241528 159.042444 
L 190.546502 91.667126 
L 190.851475 92.928429 
L 191.156449 161.06454 
L 191.461423 147.599499 
L 191.766396 101.615046 
L 192.07137 125.889934 
L 192.376343 98.558331 
L 192.98629 157.404858 
L 193.291264 66.421604 
L 193.596238 141.783841 
L 193.901211 98.575706 
L 194.206185 131.798945 
L 194.511158 132.684608 
L 194.816132 74.320402 
L 195.121106 141.105565 
L 195.426079 153.315573 
L 195.731053 59.727068 
L 196.036026 124.778797 
L 196.341 145.268059 
L 196.645973 102.819639 
L 196.950947 189.638751 
L 197.255921 90.004762 
L 197.560894 64.869347 
L 197.865868 131.447446 
L 198.170841 148.925299 
L 198.475815 147.566014 
L 198.780789 69.351254 
L 199.085762 114.740152 
L 199.390736 127.5082 
L 199.695709 184.447024 
L 200.000683 41.559884 
L 200.305656 214.756364 
L 200.61063 42.011081 
L 200.915604 162.649208 
L 201.220577 137.189327 
L 201.525551 98.134417 
L 201.830524 142.236082 
L 202.135498 105.195356 
L 202.440472 141.754933 
L 202.745445 57.410599 
L 203.050419 151.615963 
L 203.355392 112.587884 
L 203.660366 145.274317 
L 203.965339 58.163182 
L 204.270313 209.293583 
L 204.575287 110.441968 
L 204.88026 129.402771 
L 205.185234 88.916089 
L 205.490207 121.579234 
L 205.795181 120.155131 
L 206.100155 126.306966 
L 206.405128 143.449009 
L 207.015075 81.469508 
L 207.320049 176.789396 
L 207.929996 54.043092 
L 208.23497 181.550806 
L 208.539943 63.618251 
L 208.844917 122.635791 
L 209.14989 158.91623 
L 209.454864 78.771826 
L 209.759838 207.477014 
L 210.064811 75.12184 
L 210.369785 76.4437 
L 210.674758 168.816157 
L 210.979732 88.970743 
L 211.284705 187.113668 
L 211.589679 47.259089 
L 212.199626 177.605296 
L 212.5046 99.990585 
L 212.809573 149.690699 
L 213.114547 59.640012 
L 213.419521 116.445067 
L 213.724494 143.935845 
L 214.029468 103.95336 
L 214.334441 122.507892 
L 214.639415 186.846875 
L 214.944388 61.290763 
L 215.249362 164.719322 
L 215.554336 142.76699 
L 215.859309 76.407071 
L 216.164283 159.372645 
L 216.469256 56.786319 
L 216.77423 149.041393 
L 217.079204 163.266361 
L 217.384177 97.042925 
L 217.689151 139.206664 
L 217.994124 58.429991 
L 218.299098 145.431113 
L 218.604071 110.339004 
L 218.909045 147.643473 
L 219.214019 116.039957 
L 219.518992 97.02712 
L 219.823966 112.782375 
L 220.128939 180.947494 
L 220.433913 84.013362 
L 220.738887 148.141861 
L 221.04386 69.279125 
L 221.348834 165.339536 
L 221.653807 130.754157 
L 221.958781 110.050427 
L 222.263754 150.210046 
L 222.568728 134.915674 
L 222.873702 75.634386 
L 223.178675 139.473621 
L 223.483649 99.275663 
L 223.788622 132.791398 
L 224.093596 85.740514 
L 224.39857 169.692371 
L 224.703543 94.280603 
L 225.008517 133.987737 
L 225.31349 80.247002 
L 225.618464 150.584544 
L 225.923438 103.751465 
L 226.228411 167.890501 
L 226.533385 156.288928 
L 226.838358 79.116686 
L 227.143332 152.859424 
L 227.448305 56.269553 
L 227.753279 154.442154 
L 228.058253 75.230618 
L 228.363226 188.556102 
L 228.6682 107.732548 
L 228.973173 69.522693 
L 229.278147 131.518626 
L 229.583121 121.681242 
L 229.888094 197.886158 
L 230.193068 83.318009 
L 230.498041 95.348785 
L 230.803015 196.080358 
L 231.412962 56.001768 
L 231.717936 161.265392 
L 232.022909 64.305208 
L 232.327883 207.166108 
L 232.632856 69.228113 
L 232.93783 94.913715 
L 233.242804 184.805464 
L 233.547777 121.11992 
L 233.852751 123.416618 
L 234.157724 82.836072 
L 234.462698 99.70916 
L 234.767671 133.281193 
L 235.072645 111.500066 
L 235.377619 128.607285 
L 235.682592 168.256141 
L 235.987566 88.644238 
L 236.292539 159.03672 
L 236.597513 107.731529 
L 236.902487 142.466695 
L 237.20746 132.026575 
L 237.512434 113.945797 
L 237.817407 50.636354 
L 238.122381 148.814841 
L 238.427354 149.707734 
L 238.732328 115.607214 
L 239.037302 140.038474 
L 239.342275 99.513285 
L 239.647249 95.47954 
L 239.952222 152.868553 
L 240.257196 113.181844 
L 240.56217 148.270739 
L 240.867143 70.016785 
L 241.172117 158.274387 
L 241.782064 76.432226 
L 242.087037 99.175553 
L 242.392011 147.735748 
L 242.696985 155.167439 
L 243.001958 157.106498 
L 243.306932 90.663587 
L 243.611905 134.156431 
L 243.916879 138.600503 
L 244.221853 84.126903 
L 244.526826 127.388348 
L 244.8318 69.819468 
L 245.136773 138.454338 
L 245.441747 124.833475 
L 245.74672 117.935211 
L 246.051694 157.554089 
L 246.356668 114.937704 
L 246.661641 139.331373 
L 246.966615 51.336499 
L 247.271588 156.972898 
L 247.576562 151.121466 
L 247.881536 47.022476 
L 248.186509 204.918987 
L 248.491483 95.408105 
L 248.796456 69.606445 
L 249.10143 198.847007 
L 249.406403 61.782151 
L 249.711377 155.338608 
L 250.016351 152.881339 
L 250.321324 61.713365 
L 250.626298 128.216493 
L 250.931271 83.484737 
L 251.236245 196.484147 
L 251.541219 80.31259 
L 251.846192 98.41828 
L 252.151166 104.326312 
L 252.456139 205.164904 
L 252.761113 39.46236 
L 253.066086 176.87595 
L 253.37106 99.620573 
L 253.676034 142.179925 
L 253.981007 98.020866 
L 254.285981 173.862621 
L 254.590954 55.597838 
L 254.895928 179.300351 
L 255.200902 75.473763 
L 255.505875 150.974372 
L 255.810849 48.144516 
L 256.115822 195.970557 
L 256.420796 112.233302 
L 256.725769 113.986875 
L 257.030743 69.968919 
L 257.64069 177.30529 
L 258.250637 75.854081 
L 258.860585 139.634494 
L 259.165558 142.500034 
L 259.470532 101.472544 
L 259.775505 84.447672 
L 260.080479 185.381417 
L 260.690426 63.178717 
L 260.9954 135.444511 
L 261.300373 143.425926 
L 261.605347 62.860377 
L 261.91032 167.55541 
L 262.215294 77.95058 
L 262.520268 179.346458 
L 263.130215 64.811255 
L 263.435188 145.087852 
L 263.740162 100.824145 
L 264.045135 187.945472 
L 264.350109 107.332296 
L 264.655083 103.650264 
L 264.960056 71.298441 
L 265.26503 209.783317 
L 265.570003 56.862448 
L 265.874977 124.466133 
L 266.179951 96.004863 
L 266.484924 137.953107 
L 266.789898 100.891732 
L 267.094871 177.323652 
L 267.399845 77.360909 
L 267.704818 86.183545 
L 268.009792 158.096693 
L 268.314766 122.264729 
L 268.619739 165.338138 
L 268.924713 36.35697 
L 269.229686 143.771412 
L 269.53466 175.724903 
L 269.839634 32.276021 
L 270.144607 201.509649 
L 270.449581 78.136898 
L 270.754554 120.488101 
L 271.059528 97.936265 
L 271.364501 95.380795 
L 271.669475 125.88036 
L 271.974449 188.793361 
L 272.279422 103.98607 
L 272.584396 129.066126 
L 272.889369 70.693903 
L 273.194343 150.862827 
L 273.499317 76.18717 
L 273.80429 121.27498 
L 274.109264 123.660387 
L 274.414237 163.395802 
L 274.719211 38.142861 
L 275.024184 149.488957 
L 275.329158 101.124118 
L 275.634132 136.603223 
L 275.939105 117.81826 
L 276.244079 89.440867 
L 276.549052 179.374324 
L 276.854026 91.6253 
L 277.159 139.160884 
L 277.463973 64.824327 
L 278.07392 162.693536 
L 278.378894 112.42176 
L 278.683867 163.446584 
L 278.988841 58.604717 
L 279.293815 90.562933 
L 279.598788 144.854733 
L 279.903762 157.472324 
L 280.208735 69.993777 
L 280.513709 122.924845 
L 280.818683 126.928996 
L 281.123656 154.81529 
L 281.42863 72.674447 
L 281.733603 97.198771 
L 282.038577 143.196204 
L 282.34355 139.140886 
L 282.648524 91.264566 
L 282.953498 102.248395 
L 283.258471 85.051041 
L 283.563445 151.432666 
L 283.868418 166.21172 
L 284.173392 119.741317 
L 284.783339 92.477571 
L 285.088313 141.942013 
L 285.393286 130.964897 
L 285.69826 47.06915 
L 286.003233 154.401942 
L 286.308207 123.272477 
L 286.613181 134.779403 
L 286.918154 81.314403 
L 287.223128 95.790659 
L 287.528101 119.395006 
L 287.833075 169.224837 
L 288.138049 48.243853 
L 288.747996 164.584652 
L 289.052969 103.288615 
L 289.357943 151.447959 
L 289.662916 39.08001 
L 289.96789 164.919898 
L 290.272864 152.182426 
L 290.577837 69.22397 
L 290.882811 153.117838 
L 291.187784 71.297835 
L 291.492758 133.965003 
L 291.797732 131.51246 
L 292.102705 73.825166 
L 292.407679 94.859108 
L 292.712652 127.494266 
L 293.017626 124.876903 
L 293.322599 105.701577 
L 293.627573 150.964066 
L 293.932547 130.732109 
L 294.23752 49.25571 
L 294.542494 132.775647 
L 294.847467 102.306403 
L 295.152441 119.879905 
L 295.457415 113.456387 
L 295.762388 93.602148 
L 296.067362 199.624055 
L 296.372335 63.539743 
L 296.677309 148.801465 
L 296.982282 108.830419 
L 297.287256 97.17325 
L 297.59223 146.679328 
L 297.897203 85.768496 
L 298.202177 139.684275 
L 298.50715 34.332612 
L 298.812124 180.451312 
L 299.117098 64.977787 
L 299.422071 185.521366 
L 299.727045 69.64098 
L 300.032018 114.956493 
L 300.336992 73.380871 
L 300.641965 112.80633 
L 300.946939 193.239329 
L 301.251913 36.963333 
L 301.556886 118.886822 
L 301.86186 108.92063 
L 302.166833 105.279255 
L 302.471807 139.373608 
L 302.776781 133.436318 
L 303.081754 102.457599 
L 303.386728 152.460519 
L 303.691701 91.431785 
L 303.996675 118.484914 
L 304.301648 109.270599 
L 304.606622 115.343666 
L 304.911596 58.465678 
L 305.216569 152.714384 
L 305.521543 139.862226 
L 305.826516 57.453278 
L 306.13149 168.92076 
L 306.436464 55.911949 
L 306.741437 144.286015 
L 307.046411 125.61068 
L 307.351384 67.939568 
L 307.656358 114.910543 
L 307.961331 92.379854 
L 308.266305 160.590535 
L 308.571279 56.647119 
L 308.876252 112.182494 
L 309.181226 104.186543 
L 309.486199 136.757362 
L 309.791173 154.021143 
L 310.096147 45.076368 
L 310.40112 165.933905 
L 310.706094 117.498832 
L 311.011067 143.376002 
L 311.316041 19.765369 
L 311.621014 172.272155 
L 311.925988 86.935088 
L 312.230962 147.91217 
L 312.535935 132.682295 
L 312.840909 21.625837 
L 313.145882 182.794854 
L 313.450856 62.665615 
L 313.75583 164.284347 
L 314.060803 120.829408 
L 314.365777 24.964973 
L 314.67075 134.53138 
L 314.975724 84.097572 
L 315.280697 159.327777 
L 315.585671 94.603824 
L 315.890645 99.411316 
L 316.195618 156.66581 
L 316.500592 119.545625 
L 316.805565 47.264555 
L 317.415513 135.719209 
L 317.720486 158.098936 
L 318.02546 107.38211 
L 318.330433 114.717636 
L 318.635407 102.71649 
L 318.94038 138.914479 
L 319.245354 22.421834 
L 319.550328 143.247371 
L 319.855301 85.905086 
L 320.160275 150.065304 
L 320.465248 128.907092 
L 320.770222 91.574383 
L 321.075196 118.425493 
L 321.380169 115.115423 
L 321.685143 73.612905 
L 321.990116 117.174455 
L 322.29509 124.960609 
L 322.600063 69.262028 
L 322.905037 177.656068 
L 323.210011 34.612276 
L 323.514984 164.657109 
L 324.124931 97.731667 
L 324.429905 81.167131 
L 324.734879 96.662924 
L 325.039852 144.382638 
L 325.344826 79.11212 
L 325.649799 160.947767 
L 325.954773 49.864706 
L 326.259746 172.109902 
L 326.56472 40.297883 
L 326.869694 88.192071 
L 327.479641 126.683065 
L 327.784614 92.441099 
L 328.089588 199.821383 
L 328.394562 68.888407 
L 328.699535 65.019241 
L 329.004509 169.064236 
L 329.309482 126.649657 
L 329.614456 115.342273 
L 329.919429 109.02472 
L 330.224403 106.633933 
L 330.529377 48.686674 
L 330.83435 152.283984 
L 331.139324 41.052627 
L 331.444297 139.777105 
L 331.749271 115.561301 
L 332.054245 125.273436 
L 332.359218 111.254221 
L 332.969165 99.912447 
L 333.274139 122.945702 
L 333.579112 69.210308 
L 333.884086 74.999128 
L 334.18906 116.771491 
L 334.494033 188.404621 
L 334.799007 59.113929 
L 335.10398 91.139388 
L 335.408954 87.352997 
L 335.713928 109.973696 
L 336.018901 164.918565 
L 336.323875 74.892772 
L 336.628848 136.719094 
L 336.933822 89.061796 
L 337.238795 89.202909 
L 337.543769 80.16174 
L 337.848743 156.353091 
L 338.153716 89.154809 
L 338.45869 89.8038 
L 338.763663 105.37242 
L 339.068637 170.017499 
L 339.373611 87.127046 
L 339.678584 127.664884 
L 339.983558 68.207628 
L 340.288531 107.611813 
L 340.593505 109.258976 
L 340.898478 109.46957 
L 341.203452 157.884394 
L 341.508426 66.459087 
L 341.813399 103.983831 
L 342.118373 116.274316 
L 342.423346 108.316224 
L 342.72832 134.044016 
L 343.033294 77.533751 
L 343.338267 78.883974 
L 343.643241 95.619989 
L 343.948214 97.141743 
L 344.253188 147.171061 
L 344.863135 86.890522 
L 345.168109 97.533441 
L 345.473082 71.075433 
L 345.778056 122.81362 
L 346.083029 116.569391 
L 346.388003 113.903862 
L 346.692977 121.448896 
L 346.99795 109.893042 
L 347.302924 81.538085 
L 347.607897 165.066133 
L 347.912871 28.648576 
L 348.522818 173.721024 
L 348.827792 74.618531 
L 349.132765 74.43781 
L 349.742712 158.310376 
L 350.047686 30.363303 
L 350.35266 196.860914 
L 350.657633 74.363641 
L 350.962607 105.401377 
L 351.26758 114.295405 
L 351.572554 128.070826 
L 351.877527 77.732067 
L 352.182501 131.562092 
L 352.487475 52.031642 
L 352.792448 79.607621 
L 353.097422 169.170811 
L 353.402395 40.312413 
L 353.707369 112.672667 
L 354.012343 115.251106 
L 354.317316 84.693158 
L 354.62229 150.153044 
L 354.927263 120.442134 
L 355.232237 57.477794 
L 355.537211 133.80371 
L 355.842184 72.923898 
L 356.147158 184.436561 
L 356.452131 65.146471 
L 356.757105 97.794237 
L 357.062078 80.682147 
L 357.367052 138.928039 
L 357.672026 88.278508 
L 358.281973 142.822054 
L 358.586946 43.389435 
L 358.89192 137.267485 
L 359.196894 47.403519 
L 359.501867 182.670904 
L 359.806841 52.403585 
L 360.111814 169.664173 
L 360.416788 80.511717 
L 360.721761 128.05595 
L 361.026735 104.351968 
L 361.331709 90.33712 
L 361.636682 49.565218 
L 361.941656 86.923621 
L 362.246629 150.428064 
L 362.551603 97.576752 
L 362.856577 98.346567 
L 363.16155 125.742623 
L 363.466524 127.901017 
L 363.771497 24.449072 
L 364.076471 115.799785 
L 364.381444 143.579206 
L 364.686418 114.276282 
L 364.991392 101.019705 
L 365.296365 132.5969 
L 365.601339 112.354152 
L 365.906312 74.952801 
L 366.211286 63.350139 
L 366.51626 167.388672 
L 367.126207 52.310308 
L 367.736154 155.884654 
L 368.041127 95.634185 
L 368.346101 134.916372 
L 368.651075 94.1734 
L 368.956048 68.449224 
L 369.261022 86.135298 
L 369.565995 145.552006 
L 369.870969 41.452795 
L 370.175943 184.974648 
L 370.480916 72.692709 
L 370.78589 64.62538 
L 371.090863 126.906855 
L 371.395837 75.297539 
L 371.70081 143.799245 
L 372.005784 108.564302 
L 372.310758 111.749941 
L 372.615731 90.676769 
L 372.920705 139.100541 
L 373.225678 39.561105 
L 373.530652 93.348176 
L 373.835626 99.93022 
L 374.140599 190.049275 
L 374.445573 73.689208 
L 374.750546 107.37578 
L 375.05552 117.927844 
L 375.360493 47.88629 
L 375.665467 136.420079 
L 375.970441 63.50476 
L 376.275414 103.859506 
L 376.580388 173.263169 
L 376.885361 89.981632 
L 377.190335 62.625081 
L 377.800282 125.614856 
L 378.105256 101.424429 
L 378.105256 101.424429 
" clip-path="url(#p94c164b1c8)" style="fill: none; stroke: #1f77b4; stroke-width: 1.5; stroke-linecap: square"/>
   </g>
   <g id="line2d_17">
    <path d="M 73.741619 104.348758 
L 81.365959 104.461067 
L 89.295272 104.803959 
L 97.224585 105.368286 
L 105.458872 106.172493 
L 114.303106 107.257595 
L 124.367234 108.725962 
L 136.261204 110.698084 
L 158.829249 114.731738 
L 173.467981 117.215626 
L 184.142057 118.803961 
L 193.291264 119.948975 
L 201.830524 120.799107 
L 210.064811 121.393657 
L 217.994124 121.740913 
L 225.618464 121.857531 
L 233.242804 121.758157 
L 241.172117 121.428377 
L 249.10143 120.876471 
L 257.335717 120.084076 
L 266.179951 119.010044 
L 275.939105 117.599122 
L 287.528101 115.693036 
L 306.741437 112.264814 
L 323.514984 109.359792 
L 334.494033 107.678762 
L 343.948214 106.450264 
L 352.487475 105.556242 
L 360.721761 104.91499 
L 368.651075 104.519965 
L 376.275414 104.35603 
L 378.105256 104.348758 
L 378.105256 104.348758 
" clip-path="url(#p94c164b1c8)" style="fill: none; stroke: #ff7f0e; stroke-width: 1.5; stroke-linecap: square"/>
   </g>
   <g id="patch_3">
    <path d="M 58.523438 224.64 
L 58.523438 7.2 
" style="fill: none; stroke: #000000; stroke-width: 0.8; stroke-linejoin: miter; stroke-linecap: square"/>
   </g>
   <g id="patch_4">
    <path d="M 393.323438 224.64 
L 393.323438 7.2 
" style="fill: none; stroke: #000000; stroke-width: 0.8; stroke-linejoin: miter; stroke-linecap: square"/>
   </g>
   <g id="patch_5">
    <path d="M 58.523438 224.64 
L 393.323438 224.64 
" style="fill: none; stroke: #000000; stroke-width: 0.8; stroke-linejoin: miter; stroke-linecap: square"/>
   </g>
   <g id="patch_6">
    <path d="M 58.523438 7.2 
L 393.323438 7.2 
" style="fill: none; stroke: #000000; stroke-width: 0.8; stroke-linejoin: miter; stroke-linecap: square"/>
   </g>
   <g id="legend_1">
    <g id="patch_7">
     <path d="M 288.684375 219.64 
L 386.323438 219.64 
Q 388.323438 219.64 388.323438 217.64 
L 388.323438 189.28375 
Q 388.323438 187.28375 386.323438 187.28375 
L 288.684375 187.28375 
Q 286.684375 187.28375 286.684375 189.28375 
L 286.684375 217.64 
Q 286.684375 219.64 288.684375 219.64 
z
" style="fill: #ffffff; opacity: 0.8; stroke: #cccccc; stroke-linejoin: miter"/>
    </g>
    <g id="line2d_18">
     <path d="M 290.684375 195.382187 
L 300.684375 195.382187 
L 310.684375 195.382187 
" style="fill: none; stroke: #1f77b4; stroke-width: 1.5; stroke-linecap: square"/>
    </g>
    <g id="text_17">
     <!-- Noisy Data -->
     <g transform="translate(318.684375 198.882187)scale(0.1 -0.1)">
      <defs>
       <path id="DejaVuSans-4e" d="M 628 4666 
L 1478 4666 
L 3547 763 
L 3547 4666 
L 4159 4666 
L 4159 0 
L 3309 0 
L 1241 3903 
L 1241 0 
L 628 0 
L 628 4666 
z
" transform="scale(0.015625)"/>
       <path id="DejaVuSans-69" d="M 603 3500 
L 1178 3500 
L 1178 0 
L 603 0 
L 603 3500 
z
M 603 4863 
L 1178 4863 
L 1178 4134 
L 603 4134 
L 603 4863 
z
" transform="scale(0.015625)"/>
       <path id="DejaVuSans-73" d="M 2834 3397 
L 2834 2853 
Q 2591 2978 2328 3040 
Q 2066 3103 1784 3103 
Q 1356 3103 1142 2972 
Q 928 2841 928 2578 
Q 928 2378 1081 2264 
Q 1234 2150 1697 2047 
L 1894 2003 
Q 2506 1872 2764 1633 
Q 3022 1394 3022 966 
Q 3022 478 2636 193 
Q 2250 -91 1575 -91 
Q 1294 -91 989 -36 
Q 684 19 347 128 
L 347 722 
Q 666 556 975 473 
Q 1284 391 1588 391 
Q 1994 391 2212 530 
Q 2431 669 2431 922 
Q 2431 1156 2273 1281 
Q 2116 1406 1581 1522 
L 1381 1569 
Q 847 1681 609 1914 
Q 372 2147 372 2553 
Q 372 3047 722 3315 
Q 1072 3584 1716 3584 
Q 2034 3584 2315 3537 
Q 2597 3491 2834 3397 
z
" transform="scale(0.015625)"/>
       <path id="DejaVuSans-44" d="M 1259 4147 
L 1259 519 
L 2022 519 
Q 2988 519 3436 956 
Q 3884 1394 3884 2338 
Q 3884 3275 3436 3711 
Q 2988 4147 2022 4147 
L 1259 4147 
z
M 628 4666 
L 1925 4666 
Q 3281 4666 3915 4102 
Q 4550 3538 4550 2338 
Q 4550 1131 3912 565 
Q 3275 0 1925 0 
L 628 0 
L 628 4666 
z
" transform="scale(0.015625)"/>
       <path id="DejaVuSans-61" d="M 2194 1759 
Q 1497 1759 1228 1600 
Q 959 1441 959 1056 
Q 959 750 1161 570 
Q 1363 391 1709 391 
Q 2188 391 2477 730 
Q 2766 1069 2766 1631 
L 2766 1759 
L 2194 1759 
z
M 3341 1997 
L 3341 0 
L 2766 0 
L 2766 531 
Q 2569 213 2275 61 
Q 1981 -91 1556 -91 
Q 1019 -91 701 211 
Q 384 513 384 1019 
Q 384 1609 779 1909 
Q 1175 2209 1959 2209 
L 2766 2209 
L 2766 2266 
Q 2766 2663 2505 2880 
Q 2244 3097 1772 3097 
Q 1472 3097 1187 3025 
Q 903 2953 641 2809 
L 641 3341 
Q 956 3463 1253 3523 
Q 1550 3584 1831 3584 
Q 2591 3584 2966 3190 
Q 3341 2797 3341 1997 
z
" transform="scale(0.015625)"/>
       <path id="DejaVuSans-74" d="M 1172 4494 
L 1172 3500 
L 2356 3500 
L 2356 3053 
L 1172 3053 
L 1172 1153 
Q 1172 725 1289 603 
Q 1406 481 1766 481 
L 2356 481 
L 2356 0 
L 1766 0 
Q 1100 0 847 248 
Q 594 497 594 1153 
L 594 3053 
L 172 3053 
L 172 3500 
L 594 3500 
L 594 4494 
L 1172 4494 
z
" transform="scale(0.015625)"/>
      </defs>
      <use xlink:href="#DejaVuSans-4e"/>
      <use xlink:href="#DejaVuSans-6f" x="74.804688"/>
      <use xlink:href="#DejaVuSans-69" x="135.986328"/>
      <use xlink:href="#DejaVuSans-73" x="163.769531"/>
      <use xlink:href="#DejaVuSans-79" x="215.869141"/>
      <use xlink:href="#DejaVuSans-20" x="275.048828"/>
      <use xlink:href="#DejaVuSans-44" x="306.835938"/>
      <use xlink:href="#DejaVuSans-61" x="383.837891"/>
      <use xlink:href="#DejaVuSans-74" x="445.117188"/>
      <use xlink:href="#DejaVuSans-61" x="484.326172"/>
     </g>
    </g>
    <g id="line2d_19">
     <path d="M 290.684375 210.060312 
L 300.684375 210.060312 
L 310.684375 210.060312 
" style="fill: none; stroke: #ff7f0e; stroke-width: 1.5; stroke-linecap: square"/>
    </g>
    <g id="text_18">
     <!-- Smooth Data -->
     <g transform="translate(318.684375 213.560312)scale(0.1 -0.1)">
      <defs>
       <path id="DejaVuSans-6d" d="M 3328 2828 
Q 3544 3216 3844 3400 
Q 4144 3584 4550 3584 
Q 5097 3584 5394 3201 
Q 5691 2819 5691 2113 
L 5691 0 
L 5113 0 
L 5113 2094 
Q 5113 2597 4934 2840 
Q 4756 3084 4391 3084 
Q 3944 3084 3684 2787 
Q 3425 2491 3425 1978 
L 3425 0 
L 2847 0 
L 2847 2094 
Q 2847 2600 2669 2842 
Q 2491 3084 2119 3084 
Q 1678 3084 1418 2786 
Q 1159 2488 1159 1978 
L 1159 0 
L 581 0 
L 581 3500 
L 1159 3500 
L 1159 2956 
Q 1356 3278 1631 3431 
Q 1906 3584 2284 3584 
Q 2666 3584 2933 3390 
Q 3200 3197 3328 2828 
z
" transform="scale(0.015625)"/>
       <path id="DejaVuSans-68" d="M 3513 2113 
L 3513 0 
L 2938 0 
L 2938 2094 
Q 2938 2591 2744 2837 
Q 2550 3084 2163 3084 
Q 1697 3084 1428 2787 
Q 1159 2491 1159 1978 
L 1159 0 
L 581 0 
L 581 4863 
L 1159 4863 
L 1159 2956 
Q 1366 3272 1645 3428 
Q 1925 3584 2291 3584 
Q 2894 3584 3203 3211 
Q 3513 2838 3513 2113 
z
" transform="scale(0.015625)"/>
      </defs>
      <use xlink:href="#DejaVuSans-53"/>
      <use xlink:href="#DejaVuSans-6d" x="63.476562"/>
      <use xlink:href="#DejaVuSans-6f" x="160.888672"/>
      <use xlink:href="#DejaVuSans-6f" x="222.070312"/>
      <use xlink:href="#DejaVuSans-74" x="283.251953"/>
      <use xlink:href="#DejaVuSans-68" x="322.460938"/>
      <use xlink:href="#DejaVuSans-20" x="385.839844"/>
      <use xlink:href="#DejaVuSans-44" x="417.626953"/>
      <use xlink:href="#DejaVuSans-61" x="494.628906"/>
      <use xlink:href="#DejaVuSans-74" x="555.908203"/>
      <use xlink:href="#DejaVuSans-61" x="595.117188"/>
     </g>
    </g>
   </g>
  </g>
 </g>
 <defs>
  <clipPath id="p94c164b1c8">
   <rect x="58.523438" y="7.2" width="334.8" height="217.44"/>
  </clipPath>
 </defs>
</svg>
