<?xml version="1.0" encoding="utf-8" standalone="no"?>
<!DOCTYPE svg PUBLIC "-//W3C//DTD SVG 1.1//EN"
  "http://www.w3.org/Graphics/SVG/1.1/DTD/svg11.dtd">
<svg xmlns:xlink="http://www.w3.org/1999/xlink" width="532.7875pt" height="352.15625pt" viewBox="0 0 532.7875 352.15625" xmlns="http://www.w3.org/2000/svg" version="1.1">
 <metadata>
  <rdf:RDF xmlns:dc="http://purl.org/dc/elements/1.1/" xmlns:cc="http://creativecommons.org/ns#" xmlns:rdf="http://www.w3.org/1999/02/22-rdf-syntax-ns#">
   <cc:Work>
    <dc:type rdf:resource="http://purl.org/dc/dcmitype/StillImage"/>
    <dc:date>2022-06-01T12:59:32.485520</dc:date>
    <dc:format>image/svg+xml</dc:format>
    <dc:creator>
     <cc:Agent>
      <dc:title>Matplotlib v3.5.2, https://matplotlib.org/</dc:title>
     </cc:Agent>
    </dc:creator>
   </cc:Work>
  </rdf:RDF>
 </metadata>
 <defs>
  <style type="text/css">*{stroke-linejoin: round; stroke-linecap: butt}</style>
 </defs>
 <g id="figure_1">
  <g id="patch_1">
   <path d="M 0 352.15625 
L 532.7875 352.15625 
L 532.7875 0 
L 0 0 
L 0 352.15625 
z
" style="fill: none"/>
  </g>
  <g id="axes_1">
   <g id="patch_2">
    <path d="M 47.1875 314.6 
L 525.5875 314.6 
L 525.5875 7.2 
L 47.1875 7.2 
z
" style="fill: #ffffff"/>
   </g>
   <g id="PathCollection_1">
    <defs>
     <path id="mae790f100f" d="M 0 3 
C 0.795609 3 1.55874 2.683901 2.12132 2.12132 
C 2.683901 1.55874 3 0.795609 3 0 
C 3 -0.795609 2.683901 -1.55874 2.12132 -2.12132 
C 1.55874 -2.683901 0.795609 -3 0 -3 
C -0.795609 -3 -1.55874 -2.683901 -2.12132 -2.12132 
C -2.683901 -1.55874 -3 -0.795609 -3 0 
C -3 0.795609 -2.683901 1.55874 -2.12132 2.12132 
C -1.55874 2.683901 -0.795609 3 0 3 
z
" style="stroke: #1f77b4; stroke-opacity: 0.8"/>
    </defs>
    <g clip-path="url(#pf4ec4830a1)">
     <use xlink:href="#mae790f100f" x="68.932955" y="254.456511" style="fill: #1f77b4; fill-opacity: 0.8; stroke: #1f77b4; stroke-opacity: 0.8"/>
     <use xlink:href="#mae790f100f" x="113.052799" y="238.234352" style="fill: #1f77b4; fill-opacity: 0.8; stroke: #1f77b4; stroke-opacity: 0.8"/>
     <use xlink:href="#mae790f100f" x="157.172644" y="213.277183" style="fill: #1f77b4; fill-opacity: 0.8; stroke: #1f77b4; stroke-opacity: 0.8"/>
     <use xlink:href="#mae790f100f" x="201.261042" y="188.320015" style="fill: #1f77b4; fill-opacity: 0.8; stroke: #1f77b4; stroke-opacity: 0.8"/>
     <use xlink:href="#mae790f100f" x="245.380887" y="162.114988" style="fill: #1f77b4; fill-opacity: 0.8; stroke: #1f77b4; stroke-opacity: 0.8"/>
     <use xlink:href="#mae790f100f" x="289.500732" y="139.653537" style="fill: #1f77b4; fill-opacity: 0.8; stroke: #1f77b4; stroke-opacity: 0.8"/>
     <use xlink:href="#mae790f100f" x="333.58913" y="115.944227" style="fill: #1f77b4; fill-opacity: 0.8; stroke: #1f77b4; stroke-opacity: 0.8"/>
     <use xlink:href="#mae790f100f" x="377.708975" y="92.234917" style="fill: #1f77b4; fill-opacity: 0.8; stroke: #1f77b4; stroke-opacity: 0.8"/>
     <use xlink:href="#mae790f100f" x="421.797373" y="71.021324" style="fill: #1f77b4; fill-opacity: 0.8; stroke: #1f77b4; stroke-opacity: 0.8"/>
     <use xlink:href="#mae790f100f" x="465.917218" y="46.064155" style="fill: #1f77b4; fill-opacity: 0.8; stroke: #1f77b4; stroke-opacity: 0.8"/>
     <use xlink:href="#mae790f100f" x="201.261042" y="200.798599" style="fill: #1f77b4; fill-opacity: 0.8; stroke: #1f77b4; stroke-opacity: 0.8"/>
     <use xlink:href="#mae790f100f" x="201.261042" y="231.99506" style="fill: #1f77b4; fill-opacity: 0.8; stroke: #1f77b4; stroke-opacity: 0.8"/>
     <use xlink:href="#mae790f100f" x="245.380887" y="172.097855" style="fill: #1f77b4; fill-opacity: 0.8; stroke: #1f77b4; stroke-opacity: 0.8"/>
     <use xlink:href="#mae790f100f" x="289.500732" y="167.106422" style="fill: #1f77b4; fill-opacity: 0.8; stroke: #1f77b4; stroke-opacity: 0.8"/>
     <use xlink:href="#mae790f100f" x="333.58913" y="160.86713" style="fill: #1f77b4; fill-opacity: 0.8; stroke: #1f77b4; stroke-opacity: 0.8"/>
     <use xlink:href="#mae790f100f" x="264.123173" y="108.457076" style="fill: #1f77b4; fill-opacity: 0.8; stroke: #1f77b4; stroke-opacity: 0.8"/>
     <use xlink:href="#mae790f100f" x="308.243018" y="83.499908" style="fill: #1f77b4; fill-opacity: 0.8; stroke: #1f77b4; stroke-opacity: 0.8"/>
     <use xlink:href="#mae790f100f" x="396.451261" y="61.038456" style="fill: #1f77b4; fill-opacity: 0.8; stroke: #1f77b4; stroke-opacity: 0.8"/>
    </g>
   </g>
   <g id="PolyCollection_1">
    <path d="M 68.932955 251.677569 
L 68.932955 287.005404 
L 72.942897 284.460819 
L 76.952839 281.895684 
L 80.962781 279.554454 
L 84.972723 276.983077 
L 88.982665 274.096514 
L 92.992607 271.232669 
L 97.002549 268.781557 
L 101.012491 266.328382 
L 105.022433 263.843096 
L 109.032375 261.123094 
L 113.042317 258.498989 
L 117.052259 256.069273 
L 121.062201 253.639359 
L 125.072143 251.068471 
L 129.082085 248.424766 
L 133.092027 245.801381 
L 137.101969 243.277226 
L 141.111912 240.670086 
L 145.121854 238.090297 
L 149.131796 235.721761 
L 153.141738 233.04359 
L 157.15168 230.520085 
L 161.161622 228.026074 
L 165.171564 225.559259 
L 169.181506 223.155718 
L 173.191448 220.752545 
L 177.20139 218.443158 
L 181.211332 215.936181 
L 185.221274 213.268588 
L 189.231216 210.74901 
L 193.241158 208.325808 
L 197.2511 205.900208 
L 201.261042 203.359254 
L 205.270984 200.886495 
L 209.280926 198.548417 
L 213.290869 196.220942 
L 217.300811 194.045382 
L 221.310753 191.872529 
L 225.320695 189.546292 
L 229.330637 187.125878 
L 233.340579 184.657356 
L 237.350521 182.248219 
L 241.360463 179.97785 
L 245.370405 177.576619 
L 249.380347 175.276737 
L 253.390289 173.159252 
L 257.400231 170.781232 
L 261.410173 168.476558 
L 265.420115 166.298525 
L 269.430057 164.174018 
L 273.439999 161.927558 
L 277.449941 159.658452 
L 281.459883 157.306409 
L 285.469826 155.173931 
L 289.479768 152.863827 
L 293.48971 150.629463 
L 297.499652 148.502471 
L 301.509594 146.212627 
L 305.519536 144.518144 
L 309.529478 142.31595 
L 313.53942 140.061098 
L 317.549362 137.920988 
L 321.559304 135.894743 
L 325.569246 133.863185 
L 329.579188 131.640665 
L 333.58913 129.414645 
L 337.599072 127.430175 
L 341.609014 125.342068 
L 345.618956 123.214361 
L 349.628898 121.085428 
L 353.63884 118.952745 
L 357.648783 116.820062 
L 361.658725 114.687379 
L 365.668667 112.554696 
L 369.678609 110.422012 
L 373.688551 108.404984 
L 377.698493 106.410719 
L 381.708435 104.153394 
L 385.718377 102.052482 
L 389.728319 99.774168 
L 393.738261 97.646547 
L 397.748203 95.561756 
L 401.758145 93.488192 
L 405.768087 91.410954 
L 409.778029 89.333716 
L 413.787971 87.256478 
L 417.797913 85.17924 
L 421.807855 83.102002 
L 425.817797 81.024763 
L 429.82774 78.947525 
L 433.837682 76.870287 
L 437.847624 74.72981 
L 441.857566 72.636754 
L 445.867508 70.567685 
L 449.87745 68.504824 
L 453.887392 66.441536 
L 457.897334 64.378901 
L 461.907276 62.27959 
L 465.917218 60.195487 
L 465.917218 21.172727 
L 465.917218 21.172727 
L 461.907276 23.879767 
L 457.897334 26.549758 
L 453.887392 28.987385 
L 449.87745 31.426848 
L 445.867508 34.140432 
L 441.857566 36.864101 
L 437.847624 39.305367 
L 433.837682 41.746634 
L 429.82774 44.187901 
L 425.817797 46.664471 
L 421.807855 49.099098 
L 417.797913 51.560458 
L 413.787971 54.164492 
L 409.778029 56.773757 
L 405.768087 59.385015 
L 401.758145 61.972994 
L 397.748203 64.394954 
L 393.738261 66.816913 
L 389.728319 69.375756 
L 385.718377 72.106112 
L 381.708435 74.752978 
L 377.698493 77.29279 
L 373.688551 79.732146 
L 369.678609 82.055185 
L 365.668667 84.509459 
L 361.658725 86.843749 
L 357.648783 89.255852 
L 353.63884 91.68976 
L 349.628898 93.948523 
L 345.618956 96.280387 
L 341.609014 98.6812 
L 337.599072 101.136319 
L 333.58913 103.784612 
L 329.579188 106.290395 
L 325.569246 108.621116 
L 321.559304 111.042996 
L 317.549362 113.472428 
L 313.53942 115.849784 
L 309.529478 118.252034 
L 305.519536 120.639562 
L 301.509594 123.039518 
L 297.499652 125.436124 
L 293.48971 127.755109 
L 289.479768 130.218095 
L 285.469826 132.60908 
L 281.459883 135.004765 
L 277.449941 137.391051 
L 273.439999 139.783434 
L 269.430057 142.087966 
L 265.420115 144.355031 
L 261.410173 146.618881 
L 257.400231 149.020346 
L 253.390289 151.25214 
L 249.380347 153.512408 
L 245.370405 155.738106 
L 241.360463 158.047957 
L 237.350521 160.445486 
L 233.340579 162.707199 
L 229.330637 165.035456 
L 225.320695 167.188378 
L 221.310753 169.328673 
L 217.300811 171.512787 
L 213.290869 173.772752 
L 209.280926 176.03372 
L 205.270984 178.326698 
L 201.261042 180.597987 
L 197.2511 182.796902 
L 193.241158 185.05554 
L 189.231216 187.235347 
L 185.221274 189.414568 
L 181.211332 191.767733 
L 177.20139 193.902244 
L 173.191448 196.000268 
L 169.181506 198.255234 
L 165.171564 200.394572 
L 161.161622 202.588684 
L 157.15168 204.670192 
L 153.141738 206.845755 
L 149.131796 209.025416 
L 145.121854 211.213385 
L 141.111912 213.35225 
L 137.101969 215.484947 
L 133.092027 217.608023 
L 129.082085 219.720009 
L 125.072143 221.831994 
L 121.062201 223.94398 
L 117.052259 226.055966 
L 113.042317 228.18545 
L 109.032375 230.36382 
L 105.022433 232.629265 
L 101.012491 234.771155 
L 97.002549 236.913046 
L 92.992607 239.054936 
L 88.982665 241.196827 
L 84.972723 243.302794 
L 80.962781 245.36677 
L 76.952839 247.430746 
L 72.942897 249.562009 
L 68.932955 251.677569 
z
" clip-path="url(#pf4ec4830a1)" style="fill: #1f77b4; fill-opacity: 0.15"/>
   </g>
   <g id="PathCollection_2">
    <defs>
     <path id="m4bc668dc86" d="M 0 -3 
L -3 3 
L 3 3 
z
" style="stroke: #ff7f0e; stroke-opacity: 0.8"/>
    </defs>
    <g clip-path="url(#pf4ec4830a1)">
     <use xlink:href="#m4bc668dc86" x="195.066025" y="290.644405" style="fill: #ff7f0e; fill-opacity: 0.8; stroke: #ff7f0e; stroke-opacity: 0.8"/>
     <use xlink:href="#m4bc668dc86" x="239.18587" y="249.465078" style="fill: #ff7f0e; fill-opacity: 0.8; stroke: #ff7f0e; stroke-opacity: 0.8"/>
     <use xlink:href="#m4bc668dc86" x="283.305715" y="213.277183" style="fill: #ff7f0e; fill-opacity: 0.8; stroke: #ff7f0e; stroke-opacity: 0.8"/>
     <use xlink:href="#m4bc668dc86" x="327.394113" y="178.337148" style="fill: #ff7f0e; fill-opacity: 0.8; stroke: #ff7f0e; stroke-opacity: 0.8"/>
     <use xlink:href="#m4bc668dc86" x="371.513958" y="147.140687" style="fill: #ff7f0e; fill-opacity: 0.8; stroke: #ff7f0e; stroke-opacity: 0.8"/>
     <use xlink:href="#m4bc668dc86" x="415.633803" y="118.439943" style="fill: #ff7f0e; fill-opacity: 0.8; stroke: #ff7f0e; stroke-opacity: 0.8"/>
     <use xlink:href="#m4bc668dc86" x="459.722201" y="90.987058" style="fill: #ff7f0e; fill-opacity: 0.8; stroke: #ff7f0e; stroke-opacity: 0.8"/>
     <use xlink:href="#m4bc668dc86" x="503.842045" y="66.02989" style="fill: #ff7f0e; fill-opacity: 0.8; stroke: #ff7f0e; stroke-opacity: 0.8"/>
     <use xlink:href="#m4bc668dc86" x="239.18587" y="256.952228" style="fill: #ff7f0e; fill-opacity: 0.8; stroke: #ff7f0e; stroke-opacity: 0.8"/>
     <use xlink:href="#m4bc668dc86" x="327.394113" y="189.567873" style="fill: #ff7f0e; fill-opacity: 0.8; stroke: #ff7f0e; stroke-opacity: 0.8"/>
     <use xlink:href="#m4bc668dc86" x="195.066025" y="300.627273" style="fill: #ff7f0e; fill-opacity: 0.8; stroke: #ff7f0e; stroke-opacity: 0.8"/>
     <use xlink:href="#m4bc668dc86" x="283.305715" y="235.738635" style="fill: #ff7f0e; fill-opacity: 0.8; stroke: #ff7f0e; stroke-opacity: 0.8"/>
    </g>
   </g>
   <g id="PolyCollection_2">
    <path d="M 195.066025 280.138799 
L 195.066025 297.373392 
L 198.184975 294.782872 
L 201.303924 292.340757 
L 204.422874 289.796738 
L 207.541824 287.209355 
L 210.660773 284.719955 
L 213.779723 282.189437 
L 216.898673 279.67001 
L 220.017623 277.190174 
L 223.136572 274.651706 
L 226.255522 272.078801 
L 229.374472 269.619431 
L 232.493421 267.199569 
L 235.612371 264.710881 
L 238.731321 262.224478 
L 241.85027 259.738075 
L 244.96922 257.250739 
L 248.08817 254.759362 
L 251.20712 252.280959 
L 254.326069 249.842777 
L 257.445019 247.419535 
L 260.563969 245.016715 
L 263.682918 242.584768 
L 266.801868 240.11795 
L 269.920818 237.633609 
L 273.039767 235.211311 
L 276.158717 232.787774 
L 279.277667 230.3189 
L 282.396617 227.844456 
L 285.515566 225.503862 
L 288.634516 223.084243 
L 291.753466 220.619419 
L 294.872415 218.253919 
L 297.991365 215.870927 
L 301.110315 213.481891 
L 304.229265 211.059774 
L 307.348214 208.639509 
L 310.467164 206.299336 
L 313.586114 203.93956 
L 316.705063 201.565212 
L 319.824013 199.190054 
L 322.942963 196.813639 
L 326.061912 194.452626 
L 329.180862 192.063874 
L 332.299812 189.688462 
L 335.418762 187.290281 
L 338.537711 184.937697 
L 341.656661 182.55861 
L 344.775611 180.18694 
L 347.89456 177.789206 
L 351.01351 175.436768 
L 354.13246 173.096631 
L 357.251409 170.754458 
L 360.370359 168.448983 
L 363.489309 166.116319 
L 366.608259 163.776851 
L 369.727208 161.440471 
L 372.846158 159.093184 
L 375.965108 156.776749 
L 379.084057 154.460852 
L 382.203007 152.144685 
L 385.321957 149.828454 
L 388.440906 147.511531 
L 391.559856 145.188253 
L 394.678806 142.876846 
L 397.797756 140.533216 
L 400.916705 138.202904 
L 404.035655 135.848612 
L 407.154605 133.549769 
L 410.273554 131.197644 
L 413.392504 128.941146 
L 416.511454 126.663588 
L 419.630403 124.255403 
L 422.749353 121.899082 
L 425.868303 119.610932 
L 428.987253 117.322782 
L 432.106202 115.030396 
L 435.225152 112.695938 
L 438.344102 110.408634 
L 441.463051 108.131614 
L 444.582001 105.829576 
L 447.700951 103.56545 
L 450.819901 101.30302 
L 453.93885 99.015288 
L 457.0578 96.727279 
L 460.17675 94.438337 
L 463.295699 92.149394 
L 466.414649 89.864264 
L 469.533599 87.573198 
L 472.652548 85.284941 
L 475.771498 82.995796 
L 478.890448 80.700616 
L 482.009398 78.390406 
L 485.128347 76.130671 
L 488.247297 73.858686 
L 491.366247 71.646785 
L 494.485196 69.367941 
L 497.604146 67.137001 
L 500.723096 64.843482 
L 503.842045 62.555848 
L 503.842045 38.958038 
L 503.842045 38.958038 
L 500.723096 41.575402 
L 497.604146 44.192765 
L 494.485196 46.810128 
L 491.366247 49.366444 
L 488.247297 51.910535 
L 485.128347 54.45527 
L 482.009398 57.000005 
L 478.890448 59.54474 
L 475.771498 62.161439 
L 472.652548 64.824566 
L 469.533599 67.487693 
L 466.414649 70.152644 
L 463.295699 72.760654 
L 460.17675 75.315734 
L 457.0578 77.870813 
L 453.93885 80.425893 
L 450.819901 82.980972 
L 447.700951 85.536052 
L 444.582001 88.096824 
L 441.463051 90.658774 
L 438.344102 93.282166 
L 435.225152 95.939968 
L 432.106202 98.55435 
L 428.987253 101.169786 
L 425.868303 103.727699 
L 422.749353 106.278501 
L 419.630403 108.823483 
L 416.511454 111.341603 
L 413.392504 113.929512 
L 410.273554 116.503981 
L 407.154605 119.112851 
L 404.035655 121.699506 
L 400.916705 124.299495 
L 397.797756 126.900038 
L 394.678806 129.50058 
L 391.559856 132.101905 
L 388.440906 134.624468 
L 385.321957 137.221735 
L 382.203007 139.793982 
L 379.084057 142.287447 
L 375.965108 144.748385 
L 372.846158 147.212495 
L 369.727208 149.771778 
L 366.608259 152.185578 
L 363.489309 154.796376 
L 360.370359 157.270625 
L 357.251409 159.749089 
L 354.13246 162.182466 
L 351.01351 164.772417 
L 347.89456 167.362367 
L 344.775611 169.86212 
L 341.656661 172.354657 
L 338.537711 174.654202 
L 335.418762 177.168509 
L 332.299812 179.649819 
L 329.180862 181.929744 
L 326.061912 184.352582 
L 322.942963 186.781602 
L 319.824013 189.259975 
L 316.705063 191.728807 
L 313.586114 194.09205 
L 310.467164 196.633969 
L 307.348214 199.105417 
L 304.229265 201.339371 
L 301.110315 203.797607 
L 297.991365 206.180659 
L 294.872415 208.435424 
L 291.753466 210.61793 
L 288.634516 212.955876 
L 285.515566 215.186326 
L 282.396617 217.461968 
L 279.277667 219.712171 
L 276.158717 221.995618 
L 273.039767 224.249858 
L 269.920818 226.504099 
L 266.801868 228.75834 
L 263.682918 231.012622 
L 260.563969 233.267158 
L 257.445019 235.521694 
L 254.326069 237.774059 
L 251.20712 239.987511 
L 248.08817 242.200964 
L 244.96922 244.415298 
L 241.85027 246.629901 
L 238.731321 248.844504 
L 235.612371 251.059107 
L 232.493421 253.273709 
L 229.374472 255.488312 
L 226.255522 257.702915 
L 223.136572 259.917517 
L 220.017623 262.13212 
L 216.898673 264.346723 
L 213.779723 266.588099 
L 210.660773 268.846549 
L 207.541824 271.104999 
L 204.422874 273.363449 
L 201.303924 275.621899 
L 198.184975 277.880349 
L 195.066025 280.138799 
z
" clip-path="url(#pf4ec4830a1)" style="fill: #ff7f0e; fill-opacity: 0.15"/>
   </g>
   <g id="matplotlib.axis_1">
    <g id="xtick_1">
     <g id="line2d_1">
      <defs>
       <path id="m72e540a708" d="M 0 0 
L 0 3.5 
" style="stroke: #000000; stroke-width: 0.8"/>
      </defs>
      <g>
       <use xlink:href="#m72e540a708" x="93.964599" y="314.6" style="stroke: #000000; stroke-width: 0.8"/>
      </g>
     </g>
     <g id="text_1">
      <!-- 40 -->
      <g transform="translate(87.602099 329.198437)scale(0.1 -0.1)">
       <defs>
        <path id="DejaVuSans-34" d="M 2419 4116 
L 825 1625 
L 2419 1625 
L 2419 4116 
z
M 2253 4666 
L 3047 4666 
L 3047 1625 
L 3713 1625 
L 3713 1100 
L 3047 1100 
L 3047 0 
L 2419 0 
L 2419 1100 
L 313 1100 
L 313 1709 
L 2253 4666 
z
" transform="scale(0.015625)"/>
        <path id="DejaVuSans-30" d="M 2034 4250 
Q 1547 4250 1301 3770 
Q 1056 3291 1056 2328 
Q 1056 1369 1301 889 
Q 1547 409 2034 409 
Q 2525 409 2770 889 
Q 3016 1369 3016 2328 
Q 3016 3291 2770 3770 
Q 2525 4250 2034 4250 
z
M 2034 4750 
Q 2819 4750 3233 4129 
Q 3647 3509 3647 2328 
Q 3647 1150 3233 529 
Q 2819 -91 2034 -91 
Q 1250 -91 836 529 
Q 422 1150 422 2328 
Q 422 3509 836 4129 
Q 1250 4750 2034 4750 
z
" transform="scale(0.015625)"/>
       </defs>
       <use xlink:href="#DejaVuSans-34"/>
       <use xlink:href="#DejaVuSans-30" x="63.623047"/>
      </g>
     </g>
    </g>
    <g id="xtick_2">
     <g id="line2d_2">
      <g>
       <use xlink:href="#m72e540a708" x="156.858176" y="314.6" style="stroke: #000000; stroke-width: 0.8"/>
      </g>
     </g>
     <g id="text_2">
      <!-- 60 -->
      <g transform="translate(150.495676 329.198437)scale(0.1 -0.1)">
       <defs>
        <path id="DejaVuSans-36" d="M 2113 2584 
Q 1688 2584 1439 2293 
Q 1191 2003 1191 1497 
Q 1191 994 1439 701 
Q 1688 409 2113 409 
Q 2538 409 2786 701 
Q 3034 994 3034 1497 
Q 3034 2003 2786 2293 
Q 2538 2584 2113 2584 
z
M 3366 4563 
L 3366 3988 
Q 3128 4100 2886 4159 
Q 2644 4219 2406 4219 
Q 1781 4219 1451 3797 
Q 1122 3375 1075 2522 
Q 1259 2794 1537 2939 
Q 1816 3084 2150 3084 
Q 2853 3084 3261 2657 
Q 3669 2231 3669 1497 
Q 3669 778 3244 343 
Q 2819 -91 2113 -91 
Q 1303 -91 875 529 
Q 447 1150 447 2328 
Q 447 3434 972 4092 
Q 1497 4750 2381 4750 
Q 2619 4750 2861 4703 
Q 3103 4656 3366 4563 
z
" transform="scale(0.015625)"/>
       </defs>
       <use xlink:href="#DejaVuSans-36"/>
       <use xlink:href="#DejaVuSans-30" x="63.623047"/>
      </g>
     </g>
    </g>
    <g id="xtick_3">
     <g id="line2d_3">
      <g>
       <use xlink:href="#m72e540a708" x="219.751754" y="314.6" style="stroke: #000000; stroke-width: 0.8"/>
      </g>
     </g>
     <g id="text_3">
      <!-- 80 -->
      <g transform="translate(213.389254 329.198437)scale(0.1 -0.1)">
       <defs>
        <path id="DejaVuSans-38" d="M 2034 2216 
Q 1584 2216 1326 1975 
Q 1069 1734 1069 1313 
Q 1069 891 1326 650 
Q 1584 409 2034 409 
Q 2484 409 2743 651 
Q 3003 894 3003 1313 
Q 3003 1734 2745 1975 
Q 2488 2216 2034 2216 
z
M 1403 2484 
Q 997 2584 770 2862 
Q 544 3141 544 3541 
Q 544 4100 942 4425 
Q 1341 4750 2034 4750 
Q 2731 4750 3128 4425 
Q 3525 4100 3525 3541 
Q 3525 3141 3298 2862 
Q 3072 2584 2669 2484 
Q 3125 2378 3379 2068 
Q 3634 1759 3634 1313 
Q 3634 634 3220 271 
Q 2806 -91 2034 -91 
Q 1263 -91 848 271 
Q 434 634 434 1313 
Q 434 1759 690 2068 
Q 947 2378 1403 2484 
z
M 1172 3481 
Q 1172 3119 1398 2916 
Q 1625 2713 2034 2713 
Q 2441 2713 2670 2916 
Q 2900 3119 2900 3481 
Q 2900 3844 2670 4047 
Q 2441 4250 2034 4250 
Q 1625 4250 1398 4047 
Q 1172 3844 1172 3481 
z
" transform="scale(0.015625)"/>
       </defs>
       <use xlink:href="#DejaVuSans-38"/>
       <use xlink:href="#DejaVuSans-30" x="63.623047"/>
      </g>
     </g>
    </g>
    <g id="xtick_4">
     <g id="line2d_4">
      <g>
       <use xlink:href="#m72e540a708" x="282.645332" y="314.6" style="stroke: #000000; stroke-width: 0.8"/>
      </g>
     </g>
     <g id="text_4">
      <!-- 100 -->
      <g transform="translate(273.101582 329.198437)scale(0.1 -0.1)">
       <defs>
        <path id="DejaVuSans-31" d="M 794 531 
L 1825 531 
L 1825 4091 
L 703 3866 
L 703 4441 
L 1819 4666 
L 2450 4666 
L 2450 531 
L 3481 531 
L 3481 0 
L 794 0 
L 794 531 
z
" transform="scale(0.015625)"/>
       </defs>
       <use xlink:href="#DejaVuSans-31"/>
       <use xlink:href="#DejaVuSans-30" x="63.623047"/>
       <use xlink:href="#DejaVuSans-30" x="127.246094"/>
      </g>
     </g>
    </g>
    <g id="xtick_5">
     <g id="line2d_5">
      <g>
       <use xlink:href="#m72e540a708" x="345.53891" y="314.6" style="stroke: #000000; stroke-width: 0.8"/>
      </g>
     </g>
     <g id="text_5">
      <!-- 120 -->
      <g transform="translate(335.99516 329.198437)scale(0.1 -0.1)">
       <defs>
        <path id="DejaVuSans-32" d="M 1228 531 
L 3431 531 
L 3431 0 
L 469 0 
L 469 531 
Q 828 903 1448 1529 
Q 2069 2156 2228 2338 
Q 2531 2678 2651 2914 
Q 2772 3150 2772 3378 
Q 2772 3750 2511 3984 
Q 2250 4219 1831 4219 
Q 1534 4219 1204 4116 
Q 875 4013 500 3803 
L 500 4441 
Q 881 4594 1212 4672 
Q 1544 4750 1819 4750 
Q 2544 4750 2975 4387 
Q 3406 4025 3406 3419 
Q 3406 3131 3298 2873 
Q 3191 2616 2906 2266 
Q 2828 2175 2409 1742 
Q 1991 1309 1228 531 
z
" transform="scale(0.015625)"/>
       </defs>
       <use xlink:href="#DejaVuSans-31"/>
       <use xlink:href="#DejaVuSans-32" x="63.623047"/>
       <use xlink:href="#DejaVuSans-30" x="127.246094"/>
      </g>
     </g>
    </g>
    <g id="xtick_6">
     <g id="line2d_6">
      <g>
       <use xlink:href="#m72e540a708" x="408.432488" y="314.6" style="stroke: #000000; stroke-width: 0.8"/>
      </g>
     </g>
     <g id="text_6">
      <!-- 140 -->
      <g transform="translate(398.888738 329.198437)scale(0.1 -0.1)">
       <use xlink:href="#DejaVuSans-31"/>
       <use xlink:href="#DejaVuSans-34" x="63.623047"/>
       <use xlink:href="#DejaVuSans-30" x="127.246094"/>
      </g>
     </g>
    </g>
    <g id="xtick_7">
     <g id="line2d_7">
      <g>
       <use xlink:href="#m72e540a708" x="471.326066" y="314.6" style="stroke: #000000; stroke-width: 0.8"/>
      </g>
     </g>
     <g id="text_7">
      <!-- 160 -->
      <g transform="translate(461.782316 329.198437)scale(0.1 -0.1)">
       <use xlink:href="#DejaVuSans-31"/>
       <use xlink:href="#DejaVuSans-36" x="63.623047"/>
       <use xlink:href="#DejaVuSans-30" x="127.246094"/>
      </g>
     </g>
    </g>
    <g id="text_8">
     <!-- MW, g/mol -->
     <g transform="translate(259.774219 342.876562)scale(0.1 -0.1)">
      <defs>
       <path id="DejaVuSans-4d" d="M 628 4666 
L 1569 4666 
L 2759 1491 
L 3956 4666 
L 4897 4666 
L 4897 0 
L 4281 0 
L 4281 4097 
L 3078 897 
L 2444 897 
L 1241 4097 
L 1241 0 
L 628 0 
L 628 4666 
z
" transform="scale(0.015625)"/>
       <path id="DejaVuSans-57" d="M 213 4666 
L 850 4666 
L 1831 722 
L 2809 4666 
L 3519 4666 
L 4500 722 
L 5478 4666 
L 6119 4666 
L 4947 0 
L 4153 0 
L 3169 4050 
L 2175 0 
L 1381 0 
L 213 4666 
z
" transform="scale(0.015625)"/>
       <path id="DejaVuSans-2c" d="M 750 794 
L 1409 794 
L 1409 256 
L 897 -744 
L 494 -744 
L 750 256 
L 750 794 
z
" transform="scale(0.015625)"/>
       <path id="DejaVuSans-20" transform="scale(0.015625)"/>
       <path id="DejaVuSans-67" d="M 2906 1791 
Q 2906 2416 2648 2759 
Q 2391 3103 1925 3103 
Q 1463 3103 1205 2759 
Q 947 2416 947 1791 
Q 947 1169 1205 825 
Q 1463 481 1925 481 
Q 2391 481 2648 825 
Q 2906 1169 2906 1791 
z
M 3481 434 
Q 3481 -459 3084 -895 
Q 2688 -1331 1869 -1331 
Q 1566 -1331 1297 -1286 
Q 1028 -1241 775 -1147 
L 775 -588 
Q 1028 -725 1275 -790 
Q 1522 -856 1778 -856 
Q 2344 -856 2625 -561 
Q 2906 -266 2906 331 
L 2906 616 
Q 2728 306 2450 153 
Q 2172 0 1784 0 
Q 1141 0 747 490 
Q 353 981 353 1791 
Q 353 2603 747 3093 
Q 1141 3584 1784 3584 
Q 2172 3584 2450 3431 
Q 2728 3278 2906 2969 
L 2906 3500 
L 3481 3500 
L 3481 434 
z
" transform="scale(0.015625)"/>
       <path id="DejaVuSans-2f" d="M 1625 4666 
L 2156 4666 
L 531 -594 
L 0 -594 
L 1625 4666 
z
" transform="scale(0.015625)"/>
       <path id="DejaVuSans-6d" d="M 3328 2828 
Q 3544 3216 3844 3400 
Q 4144 3584 4550 3584 
Q 5097 3584 5394 3201 
Q 5691 2819 5691 2113 
L 5691 0 
L 5113 0 
L 5113 2094 
Q 5113 2597 4934 2840 
Q 4756 3084 4391 3084 
Q 3944 3084 3684 2787 
Q 3425 2491 3425 1978 
L 3425 0 
L 2847 0 
L 2847 2094 
Q 2847 2600 2669 2842 
Q 2491 3084 2119 3084 
Q 1678 3084 1418 2786 
Q 1159 2488 1159 1978 
L 1159 0 
L 581 0 
L 581 3500 
L 1159 3500 
L 1159 2956 
Q 1356 3278 1631 3431 
Q 1906 3584 2284 3584 
Q 2666 3584 2933 3390 
Q 3200 3197 3328 2828 
z
" transform="scale(0.015625)"/>
       <path id="DejaVuSans-6f" d="M 1959 3097 
Q 1497 3097 1228 2736 
Q 959 2375 959 1747 
Q 959 1119 1226 758 
Q 1494 397 1959 397 
Q 2419 397 2687 759 
Q 2956 1122 2956 1747 
Q 2956 2369 2687 2733 
Q 2419 3097 1959 3097 
z
M 1959 3584 
Q 2709 3584 3137 3096 
Q 3566 2609 3566 1747 
Q 3566 888 3137 398 
Q 2709 -91 1959 -91 
Q 1206 -91 779 398 
Q 353 888 353 1747 
Q 353 2609 779 3096 
Q 1206 3584 1959 3584 
z
" transform="scale(0.015625)"/>
       <path id="DejaVuSans-6c" d="M 603 4863 
L 1178 4863 
L 1178 0 
L 603 0 
L 603 4863 
z
" transform="scale(0.015625)"/>
      </defs>
      <use xlink:href="#DejaVuSans-4d"/>
      <use xlink:href="#DejaVuSans-57" x="86.279297"/>
      <use xlink:href="#DejaVuSans-2c" x="185.15625"/>
      <use xlink:href="#DejaVuSans-20" x="216.943359"/>
      <use xlink:href="#DejaVuSans-67" x="248.730469"/>
      <use xlink:href="#DejaVuSans-2f" x="312.207031"/>
      <use xlink:href="#DejaVuSans-6d" x="345.898438"/>
      <use xlink:href="#DejaVuSans-6f" x="443.310547"/>
      <use xlink:href="#DejaVuSans-6c" x="504.492188"/>
     </g>
    </g>
   </g>
   <g id="matplotlib.axis_2">
    <g id="ytick_1">
     <g id="line2d_8">
      <defs>
       <path id="m15b1f19990" d="M 0 0 
L -3.5 0 
" style="stroke: #000000; stroke-width: 0.8"/>
      </defs>
      <g>
       <use xlink:href="#m15b1f19990" x="47.1875" y="273.174387" style="stroke: #000000; stroke-width: 0.8"/>
      </g>
     </g>
     <g id="text_9">
      <!-- 50 -->
      <g transform="translate(27.4625 276.973606)scale(0.1 -0.1)">
       <defs>
        <path id="DejaVuSans-35" d="M 691 4666 
L 3169 4666 
L 3169 4134 
L 1269 4134 
L 1269 2991 
Q 1406 3038 1543 3061 
Q 1681 3084 1819 3084 
Q 2600 3084 3056 2656 
Q 3513 2228 3513 1497 
Q 3513 744 3044 326 
Q 2575 -91 1722 -91 
Q 1428 -91 1123 -41 
Q 819 9 494 109 
L 494 744 
Q 775 591 1075 516 
Q 1375 441 1709 441 
Q 2250 441 2565 725 
Q 2881 1009 2881 1497 
Q 2881 1984 2565 2268 
Q 2250 2553 1709 2553 
Q 1456 2553 1204 2497 
Q 953 2441 691 2322 
L 691 4666 
z
" transform="scale(0.015625)"/>
       </defs>
       <use xlink:href="#DejaVuSans-35"/>
       <use xlink:href="#DejaVuSans-30" x="63.623047"/>
      </g>
     </g>
    </g>
    <g id="ytick_2">
     <g id="line2d_9">
      <g>
       <use xlink:href="#m15b1f19990" x="47.1875" y="210.781467" style="stroke: #000000; stroke-width: 0.8"/>
      </g>
     </g>
     <g id="text_10">
      <!-- 100 -->
      <g transform="translate(21.1 214.580685)scale(0.1 -0.1)">
       <use xlink:href="#DejaVuSans-31"/>
       <use xlink:href="#DejaVuSans-30" x="63.623047"/>
       <use xlink:href="#DejaVuSans-30" x="127.246094"/>
      </g>
     </g>
    </g>
    <g id="ytick_3">
     <g id="line2d_10">
      <g>
       <use xlink:href="#m15b1f19990" x="47.1875" y="148.388546" style="stroke: #000000; stroke-width: 0.8"/>
      </g>
     </g>
     <g id="text_11">
      <!-- 150 -->
      <g transform="translate(21.1 152.187764)scale(0.1 -0.1)">
       <use xlink:href="#DejaVuSans-31"/>
       <use xlink:href="#DejaVuSans-35" x="63.623047"/>
       <use xlink:href="#DejaVuSans-30" x="127.246094"/>
      </g>
     </g>
    </g>
    <g id="ytick_4">
     <g id="line2d_11">
      <g>
       <use xlink:href="#m15b1f19990" x="47.1875" y="85.995625" style="stroke: #000000; stroke-width: 0.8"/>
      </g>
     </g>
     <g id="text_12">
      <!-- 200 -->
      <g transform="translate(21.1 89.794843)scale(0.1 -0.1)">
       <use xlink:href="#DejaVuSans-32"/>
       <use xlink:href="#DejaVuSans-30" x="63.623047"/>
       <use xlink:href="#DejaVuSans-30" x="127.246094"/>
      </g>
     </g>
    </g>
    <g id="ytick_5">
     <g id="line2d_12">
      <g>
       <use xlink:href="#m15b1f19990" x="47.1875" y="23.602704" style="stroke: #000000; stroke-width: 0.8"/>
      </g>
     </g>
     <g id="text_13">
      <!-- 250 -->
      <g transform="translate(21.1 27.401922)scale(0.1 -0.1)">
       <use xlink:href="#DejaVuSans-32"/>
       <use xlink:href="#DejaVuSans-35" x="63.623047"/>
       <use xlink:href="#DejaVuSans-30" x="127.246094"/>
      </g>
     </g>
    </g>
    <g id="text_14">
     <!-- bp, $^o$C -->
     <g transform="translate(15 176.25)rotate(-90)scale(0.1 -0.1)">
      <defs>
       <path id="DejaVuSans-62" d="M 3116 1747 
Q 3116 2381 2855 2742 
Q 2594 3103 2138 3103 
Q 1681 3103 1420 2742 
Q 1159 2381 1159 1747 
Q 1159 1113 1420 752 
Q 1681 391 2138 391 
Q 2594 391 2855 752 
Q 3116 1113 3116 1747 
z
M 1159 2969 
Q 1341 3281 1617 3432 
Q 1894 3584 2278 3584 
Q 2916 3584 3314 3078 
Q 3713 2572 3713 1747 
Q 3713 922 3314 415 
Q 2916 -91 2278 -91 
Q 1894 -91 1617 61 
Q 1341 213 1159 525 
L 1159 0 
L 581 0 
L 581 4863 
L 1159 4863 
L 1159 2969 
z
" transform="scale(0.015625)"/>
       <path id="DejaVuSans-70" d="M 1159 525 
L 1159 -1331 
L 581 -1331 
L 581 3500 
L 1159 3500 
L 1159 2969 
Q 1341 3281 1617 3432 
Q 1894 3584 2278 3584 
Q 2916 3584 3314 3078 
Q 3713 2572 3713 1747 
Q 3713 922 3314 415 
Q 2916 -91 2278 -91 
Q 1894 -91 1617 61 
Q 1341 213 1159 525 
z
M 3116 1747 
Q 3116 2381 2855 2742 
Q 2594 3103 2138 3103 
Q 1681 3103 1420 2742 
Q 1159 2381 1159 1747 
Q 1159 1113 1420 752 
Q 1681 391 2138 391 
Q 2594 391 2855 752 
Q 3116 1113 3116 1747 
z
" transform="scale(0.015625)"/>
       <path id="DejaVuSans-Oblique-6f" d="M 1625 -91 
Q 1009 -91 651 289 
Q 294 669 294 1325 
Q 294 1706 417 2101 
Q 541 2497 738 2766 
Q 1047 3184 1428 3384 
Q 1809 3584 2291 3584 
Q 2888 3584 3255 3212 
Q 3622 2841 3622 2241 
Q 3622 1825 3500 1412 
Q 3378 1000 3181 728 
Q 2875 309 2494 109 
Q 2113 -91 1625 -91 
z
M 891 1344 
Q 891 869 1089 633 
Q 1288 397 1691 397 
Q 2269 397 2648 901 
Q 3028 1406 3028 2181 
Q 3028 2634 2825 2865 
Q 2622 3097 2228 3097 
Q 1903 3097 1650 2945 
Q 1397 2794 1197 2484 
Q 1050 2253 970 1956 
Q 891 1659 891 1344 
z
" transform="scale(0.015625)"/>
       <path id="DejaVuSans-43" d="M 4122 4306 
L 4122 3641 
Q 3803 3938 3442 4084 
Q 3081 4231 2675 4231 
Q 1875 4231 1450 3742 
Q 1025 3253 1025 2328 
Q 1025 1406 1450 917 
Q 1875 428 2675 428 
Q 3081 428 3442 575 
Q 3803 722 4122 1019 
L 4122 359 
Q 3791 134 3420 21 
Q 3050 -91 2638 -91 
Q 1578 -91 968 557 
Q 359 1206 359 2328 
Q 359 3453 968 4101 
Q 1578 4750 2638 4750 
Q 3056 4750 3426 4639 
Q 3797 4528 4122 4306 
z
" transform="scale(0.015625)"/>
      </defs>
      <use xlink:href="#DejaVuSans-62" transform="translate(0 0.51875)"/>
      <use xlink:href="#DejaVuSans-70" transform="translate(63.476562 0.51875)"/>
      <use xlink:href="#DejaVuSans-2c" transform="translate(126.953125 0.51875)"/>
      <use xlink:href="#DejaVuSans-20" transform="translate(158.740234 0.51875)"/>
      <use xlink:href="#DejaVuSans-Oblique-6f" transform="translate(191.484375 38.8)scale(0.7)"/>
      <use xlink:href="#DejaVuSans-43" transform="translate(237.045898 0.51875)"/>
     </g>
    </g>
   </g>
   <g id="line2d_13">
    <path d="M 68.932955 265.051381 
L 72.942897 262.798524 
L 76.952839 260.545666 
L 80.962781 258.292809 
L 84.972723 256.039952 
L 88.982665 253.787094 
L 92.992607 251.534237 
L 97.002549 249.28138 
L 101.012491 247.028522 
L 105.022433 244.775665 
L 109.032375 242.522808 
L 113.042317 240.26995 
L 117.052259 238.017093 
L 121.062201 235.764235 
L 125.072143 233.511378 
L 129.082085 231.258521 
L 133.092027 229.005663 
L 137.101969 226.752806 
L 141.111912 224.499949 
L 145.121854 222.247091 
L 149.131796 219.994234 
L 153.141738 217.741377 
L 157.15168 215.488519 
L 161.161622 213.235662 
L 165.171564 210.982805 
L 169.181506 208.729947 
L 173.191448 206.47709 
L 177.20139 204.224233 
L 181.211332 201.971375 
L 185.221274 199.718518 
L 189.231216 197.465661 
L 193.241158 195.212803 
L 197.2511 192.959946 
L 201.261042 190.707089 
L 205.270984 188.454231 
L 209.280926 186.201374 
L 213.290869 183.948516 
L 217.300811 181.695659 
L 221.310753 179.442802 
L 225.320695 177.189944 
L 229.330637 174.937087 
L 233.340579 172.68423 
L 237.350521 170.431372 
L 241.360463 168.178515 
L 245.370405 165.925658 
L 249.380347 163.6728 
L 253.390289 161.419943 
L 257.400231 159.167086 
L 261.410173 156.914228 
L 265.420115 154.661371 
L 269.430057 152.408514 
L 273.439999 150.155656 
L 277.449941 147.902799 
L 281.459883 145.649942 
L 285.469826 143.397084 
L 289.479768 141.144227 
L 293.48971 138.891369 
L 297.499652 136.638512 
L 301.509594 134.385655 
L 305.519536 132.132797 
L 309.529478 129.87994 
L 313.53942 127.627083 
L 317.549362 125.374225 
L 321.559304 123.121368 
L 325.569246 120.868511 
L 329.579188 118.615653 
L 333.58913 116.362796 
L 337.599072 114.109939 
L 341.609014 111.857081 
L 345.618956 109.604224 
L 349.628898 107.351367 
L 353.63884 105.098509 
L 357.648783 102.845652 
L 361.658725 100.592795 
L 365.668667 98.339937 
L 369.678609 96.08708 
L 373.688551 93.834222 
L 377.698493 91.581365 
L 381.708435 89.328508 
L 385.718377 87.07565 
L 389.728319 84.822793 
L 393.738261 82.569936 
L 397.748203 80.317078 
L 401.758145 78.064221 
L 405.768087 75.811364 
L 409.778029 73.558506 
L 413.787971 71.305649 
L 417.797913 69.052792 
L 421.807855 66.799934 
L 425.817797 64.547077 
L 429.82774 62.29422 
L 433.837682 60.041362 
L 437.847624 57.788505 
L 441.857566 55.535648 
L 445.867508 53.28279 
L 449.87745 51.029933 
L 453.887392 48.777076 
L 457.897334 46.524218 
L 461.907276 44.271361 
L 465.917218 42.018503 
" clip-path="url(#pf4ec4830a1)" style="fill: none; stroke: #1f77b4; stroke-width: 2.25; stroke-linecap: square"/>
   </g>
   <g id="line2d_14">
    <path d="M 195.066025 289.355281 
L 198.184975 286.994881 
L 201.303924 284.634481 
L 204.422874 282.274081 
L 207.541824 279.913681 
L 210.660773 277.553282 
L 213.779723 275.192882 
L 216.898673 272.832482 
L 220.017623 270.472082 
L 223.136572 268.111682 
L 226.255522 265.751282 
L 229.374472 263.390882 
L 232.493421 261.030482 
L 235.612371 258.670082 
L 238.731321 256.309682 
L 241.85027 253.949282 
L 244.96922 251.588882 
L 248.08817 249.228482 
L 251.20712 246.868082 
L 254.326069 244.507682 
L 257.445019 242.147282 
L 260.563969 239.786882 
L 263.682918 237.426482 
L 266.801868 235.066082 
L 269.920818 232.705682 
L 273.039767 230.345283 
L 276.158717 227.984883 
L 279.277667 225.624483 
L 282.396617 223.264083 
L 285.515566 220.903683 
L 288.634516 218.543283 
L 291.753466 216.182883 
L 294.872415 213.822483 
L 297.991365 211.462083 
L 301.110315 209.101683 
L 304.229265 206.741283 
L 307.348214 204.380883 
L 310.467164 202.020483 
L 313.586114 199.660083 
L 316.705063 197.299683 
L 319.824013 194.939283 
L 322.942963 192.578883 
L 326.061912 190.218483 
L 329.180862 187.858083 
L 332.299812 185.497683 
L 335.418762 183.137284 
L 338.537711 180.776884 
L 341.656661 178.416484 
L 344.775611 176.056084 
L 347.89456 173.695684 
L 351.01351 171.335284 
L 354.13246 168.974884 
L 357.251409 166.614484 
L 360.370359 164.254084 
L 363.489309 161.893684 
L 366.608259 159.533284 
L 369.727208 157.172884 
L 372.846158 154.812484 
L 375.965108 152.452084 
L 379.084057 150.091684 
L 382.203007 147.731284 
L 385.321957 145.370884 
L 388.440906 143.010484 
L 391.559856 140.650084 
L 394.678806 138.289684 
L 397.797756 135.929285 
L 400.916705 133.568885 
L 404.035655 131.208485 
L 407.154605 128.848085 
L 410.273554 126.487685 
L 413.392504 124.127285 
L 416.511454 121.766885 
L 419.630403 119.406485 
L 422.749353 117.046085 
L 425.868303 114.685685 
L 428.987253 112.325285 
L 432.106202 109.964885 
L 435.225152 107.604485 
L 438.344102 105.244085 
L 441.463051 102.883685 
L 444.582001 100.523285 
L 447.700951 98.162885 
L 450.819901 95.802485 
L 453.93885 93.442085 
L 457.0578 91.081685 
L 460.17675 88.721286 
L 463.295699 86.360886 
L 466.414649 84.000486 
L 469.533599 81.640086 
L 472.652548 79.279686 
L 475.771498 76.919286 
L 478.890448 74.558886 
L 482.009398 72.198486 
L 485.128347 69.838086 
L 488.247297 67.477686 
L 491.366247 65.117286 
L 494.485196 62.756886 
L 497.604146 60.396486 
L 500.723096 58.036086 
L 503.842045 55.675686 
" clip-path="url(#pf4ec4830a1)" style="fill: none; stroke: #ff7f0e; stroke-width: 2.25; stroke-linecap: square"/>
   </g>
   <g id="patch_3">
    <path d="M 47.1875 314.6 
L 47.1875 7.2 
" style="fill: none; stroke: #000000; stroke-width: 0.8; stroke-linejoin: miter; stroke-linecap: square"/>
   </g>
   <g id="patch_4">
    <path d="M 47.1875 314.6 
L 525.5875 314.6 
" style="fill: none; stroke: #000000; stroke-width: 0.8; stroke-linejoin: miter; stroke-linecap: square"/>
   </g>
   <g id="legend_1">
    <g id="patch_5">
     <path d="M 54.1875 59.234375 
L 121.945312 59.234375 
Q 123.945312 59.234375 123.945312 57.234375 
L 123.945312 14.2 
Q 123.945312 12.2 121.945312 12.2 
L 54.1875 12.2 
Q 52.1875 12.2 52.1875 14.2 
L 52.1875 57.234375 
Q 52.1875 59.234375 54.1875 59.234375 
z
" style="fill: #ffffff; opacity: 0.8; stroke: #cccccc; stroke-linejoin: miter"/>
    </g>
    <g id="text_15">
     <!-- type -->
     <g transform="translate(76.896094 23.798438)scale(0.1 -0.1)">
      <defs>
       <path id="DejaVuSans-74" d="M 1172 4494 
L 1172 3500 
L 2356 3500 
L 2356 3053 
L 1172 3053 
L 1172 1153 
Q 1172 725 1289 603 
Q 1406 481 1766 481 
L 2356 481 
L 2356 0 
L 1766 0 
Q 1100 0 847 248 
Q 594 497 594 1153 
L 594 3053 
L 172 3053 
L 172 3500 
L 594 3500 
L 594 4494 
L 1172 4494 
z
" transform="scale(0.015625)"/>
       <path id="DejaVuSans-79" d="M 2059 -325 
Q 1816 -950 1584 -1140 
Q 1353 -1331 966 -1331 
L 506 -1331 
L 506 -850 
L 844 -850 
Q 1081 -850 1212 -737 
Q 1344 -625 1503 -206 
L 1606 56 
L 191 3500 
L 800 3500 
L 1894 763 
L 2988 3500 
L 3597 3500 
L 2059 -325 
z
" transform="scale(0.015625)"/>
       <path id="DejaVuSans-65" d="M 3597 1894 
L 3597 1613 
L 953 1613 
Q 991 1019 1311 708 
Q 1631 397 2203 397 
Q 2534 397 2845 478 
Q 3156 559 3463 722 
L 3463 178 
Q 3153 47 2828 -22 
Q 2503 -91 2169 -91 
Q 1331 -91 842 396 
Q 353 884 353 1716 
Q 353 2575 817 3079 
Q 1281 3584 2069 3584 
Q 2775 3584 3186 3129 
Q 3597 2675 3597 1894 
z
M 3022 2063 
Q 3016 2534 2758 2815 
Q 2500 3097 2075 3097 
Q 1594 3097 1305 2825 
Q 1016 2553 972 2059 
L 3022 2063 
z
" transform="scale(0.015625)"/>
      </defs>
      <use xlink:href="#DejaVuSans-74"/>
      <use xlink:href="#DejaVuSans-79" x="39.208984"/>
      <use xlink:href="#DejaVuSans-70" x="98.388672"/>
      <use xlink:href="#DejaVuSans-65" x="161.865234"/>
     </g>
    </g>
    <g id="PathCollection_3">
     <g>
      <use xlink:href="#mae790f100f" x="66.1875" y="35.851563" style="fill: #1f77b4; fill-opacity: 0.8; stroke: #1f77b4; stroke-opacity: 0.8"/>
     </g>
    </g>
    <g id="text_16">
     <!-- alcohol -->
     <g transform="translate(84.1875 38.476563)scale(0.1 -0.1)">
      <defs>
       <path id="DejaVuSans-61" d="M 2194 1759 
Q 1497 1759 1228 1600 
Q 959 1441 959 1056 
Q 959 750 1161 570 
Q 1363 391 1709 391 
Q 2188 391 2477 730 
Q 2766 1069 2766 1631 
L 2766 1759 
L 2194 1759 
z
M 3341 1997 
L 3341 0 
L 2766 0 
L 2766 531 
Q 2569 213 2275 61 
Q 1981 -91 1556 -91 
Q 1019 -91 701 211 
Q 384 513 384 1019 
Q 384 1609 779 1909 
Q 1175 2209 1959 2209 
L 2766 2209 
L 2766 2266 
Q 2766 2663 2505 2880 
Q 2244 3097 1772 3097 
Q 1472 3097 1187 3025 
Q 903 2953 641 2809 
L 641 3341 
Q 956 3463 1253 3523 
Q 1550 3584 1831 3584 
Q 2591 3584 2966 3190 
Q 3341 2797 3341 1997 
z
" transform="scale(0.015625)"/>
       <path id="DejaVuSans-63" d="M 3122 3366 
L 3122 2828 
Q 2878 2963 2633 3030 
Q 2388 3097 2138 3097 
Q 1578 3097 1268 2742 
Q 959 2388 959 1747 
Q 959 1106 1268 751 
Q 1578 397 2138 397 
Q 2388 397 2633 464 
Q 2878 531 3122 666 
L 3122 134 
Q 2881 22 2623 -34 
Q 2366 -91 2075 -91 
Q 1284 -91 818 406 
Q 353 903 353 1747 
Q 353 2603 823 3093 
Q 1294 3584 2113 3584 
Q 2378 3584 2631 3529 
Q 2884 3475 3122 3366 
z
" transform="scale(0.015625)"/>
       <path id="DejaVuSans-68" d="M 3513 2113 
L 3513 0 
L 2938 0 
L 2938 2094 
Q 2938 2591 2744 2837 
Q 2550 3084 2163 3084 
Q 1697 3084 1428 2787 
Q 1159 2491 1159 1978 
L 1159 0 
L 581 0 
L 581 4863 
L 1159 4863 
L 1159 2956 
Q 1366 3272 1645 3428 
Q 1925 3584 2291 3584 
Q 2894 3584 3203 3211 
Q 3513 2838 3513 2113 
z
" transform="scale(0.015625)"/>
      </defs>
      <use xlink:href="#DejaVuSans-61"/>
      <use xlink:href="#DejaVuSans-6c" x="61.279297"/>
      <use xlink:href="#DejaVuSans-63" x="89.0625"/>
      <use xlink:href="#DejaVuSans-6f" x="144.042969"/>
      <use xlink:href="#DejaVuSans-68" x="205.224609"/>
      <use xlink:href="#DejaVuSans-6f" x="268.603516"/>
      <use xlink:href="#DejaVuSans-6c" x="329.785156"/>
     </g>
    </g>
    <g id="PathCollection_4">
     <g>
      <use xlink:href="#m4bc668dc86" x="66.1875" y="50.529688" style="fill: #ff7f0e; fill-opacity: 0.8; stroke: #ff7f0e; stroke-opacity: 0.8"/>
     </g>
    </g>
    <g id="text_17">
     <!-- alkane -->
     <g transform="translate(84.1875 53.154688)scale(0.1 -0.1)">
      <defs>
       <path id="DejaVuSans-6b" d="M 581 4863 
L 1159 4863 
L 1159 1991 
L 2875 3500 
L 3609 3500 
L 1753 1863 
L 3688 0 
L 2938 0 
L 1159 1709 
L 1159 0 
L 581 0 
L 581 4863 
z
" transform="scale(0.015625)"/>
       <path id="DejaVuSans-6e" d="M 3513 2113 
L 3513 0 
L 2938 0 
L 2938 2094 
Q 2938 2591 2744 2837 
Q 2550 3084 2163 3084 
Q 1697 3084 1428 2787 
Q 1159 2491 1159 1978 
L 1159 0 
L 581 0 
L 581 3500 
L 1159 3500 
L 1159 2956 
Q 1366 3272 1645 3428 
Q 1925 3584 2291 3584 
Q 2894 3584 3203 3211 
Q 3513 2838 3513 2113 
z
" transform="scale(0.015625)"/>
      </defs>
      <use xlink:href="#DejaVuSans-61"/>
      <use xlink:href="#DejaVuSans-6c" x="61.279297"/>
      <use xlink:href="#DejaVuSans-6b" x="89.0625"/>
      <use xlink:href="#DejaVuSans-61" x="145.222656"/>
      <use xlink:href="#DejaVuSans-6e" x="206.501953"/>
      <use xlink:href="#DejaVuSans-65" x="269.880859"/>
     </g>
    </g>
   </g>
  </g>
 </g>
 <defs>
  <clipPath id="pf4ec4830a1">
   <rect x="47.1875" y="7.2" width="478.4" height="307.4"/>
  </clipPath>
 </defs>
</svg>
