<?xml version="1.0" encoding="utf-8" standalone="no"?>
<!DOCTYPE svg PUBLIC "-//W3C//DTD SVG 1.1//EN"
  "http://www.w3.org/Graphics/SVG/1.1/DTD/svg11.dtd">
<svg xmlns:xlink="http://www.w3.org/1999/xlink" width="380.482813pt" height="248.518125pt" viewBox="0 0 380.482813 248.518125" xmlns="http://www.w3.org/2000/svg" version="1.1">
 <metadata>
  <rdf:RDF xmlns:dc="http://purl.org/dc/elements/1.1/" xmlns:cc="http://creativecommons.org/ns#" xmlns:rdf="http://www.w3.org/1999/02/22-rdf-syntax-ns#">
   <cc:Work>
    <dc:type rdf:resource="http://purl.org/dc/dcmitype/StillImage"/>
    <dc:date>2022-08-20T16:36:23.042549</dc:date>
    <dc:format>image/svg+xml</dc:format>
    <dc:creator>
     <cc:Agent>
      <dc:title>Matplotlib v3.5.2, https://matplotlib.org/</dc:title>
     </cc:Agent>
    </dc:creator>
   </cc:Work>
  </rdf:RDF>
 </metadata>
 <defs>
  <style type="text/css">*{stroke-linejoin: round; stroke-linecap: butt}</style>
 </defs>
 <g id="figure_1">
  <g id="patch_1">
   <path d="M -0 248.518125 
L 380.482813 248.518125 
L 380.482813 0 
L -0 0 
L -0 248.518125 
z
" style="fill: none"/>
  </g>
  <g id="axes_1">
   <g id="patch_2">
    <path d="M 38.482813 224.64 
L 373.282813 224.64 
L 373.282813 7.2 
L 38.482813 7.2 
z
" style="fill: #ffffff"/>
   </g>
   <g id="matplotlib.axis_1">
    <g id="xtick_1">
     <g id="line2d_1">
      <defs>
       <path id="mab5b647084" d="M 0 0 
L 0 3.5 
" style="stroke: #000000; stroke-width: 0.8"/>
      </defs>
      <g>
       <use xlink:href="#mab5b647084" x="53.395715" y="224.64" style="stroke: #000000; stroke-width: 0.8"/>
      </g>
     </g>
     <g id="text_1">
      <!-- 0 -->
      <g transform="translate(50.214465 239.238438)scale(0.1 -0.1)">
       <defs>
        <path id="DejaVuSans-30" d="M 2034 4250 
Q 1547 4250 1301 3770 
Q 1056 3291 1056 2328 
Q 1056 1369 1301 889 
Q 1547 409 2034 409 
Q 2525 409 2770 889 
Q 3016 1369 3016 2328 
Q 3016 3291 2770 3770 
Q 2525 4250 2034 4250 
z
M 2034 4750 
Q 2819 4750 3233 4129 
Q 3647 3509 3647 2328 
Q 3647 1150 3233 529 
Q 2819 -91 2034 -91 
Q 1250 -91 836 529 
Q 422 1150 422 2328 
Q 422 3509 836 4129 
Q 1250 4750 2034 4750 
z
" transform="scale(0.015625)"/>
       </defs>
       <use xlink:href="#DejaVuSans-30"/>
      </g>
     </g>
    </g>
    <g id="xtick_2">
     <g id="line2d_2">
      <g>
       <use xlink:href="#mab5b647084" x="101.933866" y="224.64" style="stroke: #000000; stroke-width: 0.8"/>
      </g>
     </g>
     <g id="text_2">
      <!-- 5 -->
      <g transform="translate(98.752616 239.238438)scale(0.1 -0.1)">
       <defs>
        <path id="DejaVuSans-35" d="M 691 4666 
L 3169 4666 
L 3169 4134 
L 1269 4134 
L 1269 2991 
Q 1406 3038 1543 3061 
Q 1681 3084 1819 3084 
Q 2600 3084 3056 2656 
Q 3513 2228 3513 1497 
Q 3513 744 3044 326 
Q 2575 -91 1722 -91 
Q 1428 -91 1123 -41 
Q 819 9 494 109 
L 494 744 
Q 775 591 1075 516 
Q 1375 441 1709 441 
Q 2250 441 2565 725 
Q 2881 1009 2881 1497 
Q 2881 1984 2565 2268 
Q 2250 2553 1709 2553 
Q 1456 2553 1204 2497 
Q 953 2441 691 2322 
L 691 4666 
z
" transform="scale(0.015625)"/>
       </defs>
       <use xlink:href="#DejaVuSans-35"/>
      </g>
     </g>
    </g>
    <g id="xtick_3">
     <g id="line2d_3">
      <g>
       <use xlink:href="#mab5b647084" x="150.472016" y="224.64" style="stroke: #000000; stroke-width: 0.8"/>
      </g>
     </g>
     <g id="text_3">
      <!-- 10 -->
      <g transform="translate(144.109516 239.238438)scale(0.1 -0.1)">
       <defs>
        <path id="DejaVuSans-31" d="M 794 531 
L 1825 531 
L 1825 4091 
L 703 3866 
L 703 4441 
L 1819 4666 
L 2450 4666 
L 2450 531 
L 3481 531 
L 3481 0 
L 794 0 
L 794 531 
z
" transform="scale(0.015625)"/>
       </defs>
       <use xlink:href="#DejaVuSans-31"/>
       <use xlink:href="#DejaVuSans-30" x="63.623047"/>
      </g>
     </g>
    </g>
    <g id="xtick_4">
     <g id="line2d_4">
      <g>
       <use xlink:href="#mab5b647084" x="199.010167" y="224.64" style="stroke: #000000; stroke-width: 0.8"/>
      </g>
     </g>
     <g id="text_4">
      <!-- 15 -->
      <g transform="translate(192.647667 239.238438)scale(0.1 -0.1)">
       <use xlink:href="#DejaVuSans-31"/>
       <use xlink:href="#DejaVuSans-35" x="63.623047"/>
      </g>
     </g>
    </g>
    <g id="xtick_5">
     <g id="line2d_5">
      <g>
       <use xlink:href="#mab5b647084" x="247.548318" y="224.64" style="stroke: #000000; stroke-width: 0.8"/>
      </g>
     </g>
     <g id="text_5">
      <!-- 20 -->
      <g transform="translate(241.185818 239.238438)scale(0.1 -0.1)">
       <defs>
        <path id="DejaVuSans-32" d="M 1228 531 
L 3431 531 
L 3431 0 
L 469 0 
L 469 531 
Q 828 903 1448 1529 
Q 2069 2156 2228 2338 
Q 2531 2678 2651 2914 
Q 2772 3150 2772 3378 
Q 2772 3750 2511 3984 
Q 2250 4219 1831 4219 
Q 1534 4219 1204 4116 
Q 875 4013 500 3803 
L 500 4441 
Q 881 4594 1212 4672 
Q 1544 4750 1819 4750 
Q 2544 4750 2975 4387 
Q 3406 4025 3406 3419 
Q 3406 3131 3298 2873 
Q 3191 2616 2906 2266 
Q 2828 2175 2409 1742 
Q 1991 1309 1228 531 
z
" transform="scale(0.015625)"/>
       </defs>
       <use xlink:href="#DejaVuSans-32"/>
       <use xlink:href="#DejaVuSans-30" x="63.623047"/>
      </g>
     </g>
    </g>
    <g id="xtick_6">
     <g id="line2d_6">
      <g>
       <use xlink:href="#mab5b647084" x="296.086468" y="224.64" style="stroke: #000000; stroke-width: 0.8"/>
      </g>
     </g>
     <g id="text_6">
      <!-- 25 -->
      <g transform="translate(289.723968 239.238438)scale(0.1 -0.1)">
       <use xlink:href="#DejaVuSans-32"/>
       <use xlink:href="#DejaVuSans-35" x="63.623047"/>
      </g>
     </g>
    </g>
    <g id="xtick_7">
     <g id="line2d_7">
      <g>
       <use xlink:href="#mab5b647084" x="344.624619" y="224.64" style="stroke: #000000; stroke-width: 0.8"/>
      </g>
     </g>
     <g id="text_7">
      <!-- 30 -->
      <g transform="translate(338.262119 239.238438)scale(0.1 -0.1)">
       <defs>
        <path id="DejaVuSans-33" d="M 2597 2516 
Q 3050 2419 3304 2112 
Q 3559 1806 3559 1356 
Q 3559 666 3084 287 
Q 2609 -91 1734 -91 
Q 1441 -91 1130 -33 
Q 819 25 488 141 
L 488 750 
Q 750 597 1062 519 
Q 1375 441 1716 441 
Q 2309 441 2620 675 
Q 2931 909 2931 1356 
Q 2931 1769 2642 2001 
Q 2353 2234 1838 2234 
L 1294 2234 
L 1294 2753 
L 1863 2753 
Q 2328 2753 2575 2939 
Q 2822 3125 2822 3475 
Q 2822 3834 2567 4026 
Q 2313 4219 1838 4219 
Q 1578 4219 1281 4162 
Q 984 4106 628 3988 
L 628 4550 
Q 988 4650 1302 4700 
Q 1616 4750 1894 4750 
Q 2613 4750 3031 4423 
Q 3450 4097 3450 3541 
Q 3450 3153 3228 2886 
Q 3006 2619 2597 2516 
z
" transform="scale(0.015625)"/>
       </defs>
       <use xlink:href="#DejaVuSans-33"/>
       <use xlink:href="#DejaVuSans-30" x="63.623047"/>
      </g>
     </g>
    </g>
   </g>
   <g id="matplotlib.axis_2">
    <g id="ytick_1">
     <g id="line2d_8">
      <defs>
       <path id="ma9be622515" d="M 0 0 
L -3.5 0 
" style="stroke: #000000; stroke-width: 0.8"/>
      </defs>
      <g>
       <use xlink:href="#ma9be622515" x="38.482813" y="193.146935" style="stroke: #000000; stroke-width: 0.8"/>
      </g>
     </g>
     <g id="text_8">
      <!-- −1.0 -->
      <g transform="translate(7.2 196.946153)scale(0.1 -0.1)">
       <defs>
        <path id="DejaVuSans-2212" d="M 678 2272 
L 4684 2272 
L 4684 1741 
L 678 1741 
L 678 2272 
z
" transform="scale(0.015625)"/>
        <path id="DejaVuSans-2e" d="M 684 794 
L 1344 794 
L 1344 0 
L 684 0 
L 684 794 
z
" transform="scale(0.015625)"/>
       </defs>
       <use xlink:href="#DejaVuSans-2212"/>
       <use xlink:href="#DejaVuSans-31" x="83.789062"/>
       <use xlink:href="#DejaVuSans-2e" x="147.412109"/>
       <use xlink:href="#DejaVuSans-30" x="179.199219"/>
      </g>
     </g>
    </g>
    <g id="ytick_2">
     <g id="line2d_9">
      <g>
       <use xlink:href="#ma9be622515" x="38.482813" y="154.262272" style="stroke: #000000; stroke-width: 0.8"/>
      </g>
     </g>
     <g id="text_9">
      <!-- −0.5 -->
      <g transform="translate(7.2 158.06149)scale(0.1 -0.1)">
       <use xlink:href="#DejaVuSans-2212"/>
       <use xlink:href="#DejaVuSans-30" x="83.789062"/>
       <use xlink:href="#DejaVuSans-2e" x="147.412109"/>
       <use xlink:href="#DejaVuSans-35" x="179.199219"/>
      </g>
     </g>
    </g>
    <g id="ytick_3">
     <g id="line2d_10">
      <g>
       <use xlink:href="#ma9be622515" x="38.482813" y="115.377609" style="stroke: #000000; stroke-width: 0.8"/>
      </g>
     </g>
     <g id="text_10">
      <!-- 0.0 -->
      <g transform="translate(15.579688 119.176827)scale(0.1 -0.1)">
       <use xlink:href="#DejaVuSans-30"/>
       <use xlink:href="#DejaVuSans-2e" x="63.623047"/>
       <use xlink:href="#DejaVuSans-30" x="95.410156"/>
      </g>
     </g>
    </g>
    <g id="ytick_4">
     <g id="line2d_11">
      <g>
       <use xlink:href="#ma9be622515" x="38.482813" y="76.492946" style="stroke: #000000; stroke-width: 0.8"/>
      </g>
     </g>
     <g id="text_11">
      <!-- 0.5 -->
      <g transform="translate(15.579688 80.292164)scale(0.1 -0.1)">
       <use xlink:href="#DejaVuSans-30"/>
       <use xlink:href="#DejaVuSans-2e" x="63.623047"/>
       <use xlink:href="#DejaVuSans-35" x="95.410156"/>
      </g>
     </g>
    </g>
    <g id="ytick_5">
     <g id="line2d_12">
      <g>
       <use xlink:href="#ma9be622515" x="38.482813" y="37.608283" style="stroke: #000000; stroke-width: 0.8"/>
      </g>
     </g>
     <g id="text_12">
      <!-- 1.0 -->
      <g transform="translate(15.579688 41.407501)scale(0.1 -0.1)">
       <use xlink:href="#DejaVuSans-31"/>
       <use xlink:href="#DejaVuSans-2e" x="63.623047"/>
       <use xlink:href="#DejaVuSans-30" x="95.410156"/>
      </g>
     </g>
    </g>
   </g>
   <g id="line2d_13">
    <path d="M 53.700994 121.473654 
L 54.006274 120.964149 
L 54.311553 110.570774 
L 54.616833 109.949218 
L 55.227392 101.531864 
L 55.532671 106.335759 
L 55.837951 94.074505 
L 56.44851 86.069468 
L 56.753789 95.026237 
L 57.059069 92.328389 
L 57.364348 80.549512 
L 57.669627 64.236764 
L 57.974907 76.085769 
L 58.280186 77.591398 
L 58.585466 87.747448 
L 58.890745 81.409726 
L 59.196025 86.618215 
L 59.501304 83.493119 
L 59.806584 84.812043 
L 60.111863 77.236844 
L 60.722422 48.887513 
L 61.027702 43.153319 
L 61.332981 44.028904 
L 61.638261 46.395845 
L 61.94354 43.096382 
L 62.24882 46.953142 
L 62.554099 38.903361 
L 62.859379 34.294127 
L 63.775217 45.731047 
L 64.080496 42.53967 
L 64.385776 50.472593 
L 64.691055 49.203776 
L 65.301614 26.325653 
L 65.606894 32.715972 
L 65.912173 35.674132 
L 66.217453 47.804186 
L 66.522732 48.348861 
L 66.828012 55.196016 
L 67.133291 51.458828 
L 67.438571 42.011961 
L 67.74385 42.328343 
L 68.04913 31.318216 
L 68.354409 34.14747 
L 68.659689 34.139384 
L 68.964968 47.045689 
L 69.270248 40.00022 
L 69.575527 37.193678 
L 69.880806 27.634035 
L 70.186086 35.073819 
L 70.491365 33.944163 
L 70.796645 29.809767 
L 71.407204 49.661652 
L 71.712483 50.12248 
L 72.323042 27.345678 
L 72.628322 27.913745 
L 72.933601 32.575484 
L 73.238881 43.34782 
L 73.54416 59.264555 
L 74.154719 42.621008 
L 74.459999 30.400064 
L 74.765278 43.156927 
L 75.070558 49.557036 
L 75.375837 65.469758 
L 75.681117 71.973029 
L 75.986396 69.633983 
L 76.291675 59.470639 
L 76.596955 56.336711 
L 76.902234 69.766695 
L 77.207514 66.800419 
L 77.818073 53.560382 
L 78.733911 65.095077 
L 79.039191 66.393434 
L 79.34447 76.072727 
L 79.64975 73.513119 
L 79.955029 84.871772 
L 80.260309 84.636927 
L 80.565588 84.228889 
L 80.870868 77.389967 
L 81.176147 75.529175 
L 81.481427 81.361134 
L 82.091985 100.975969 
L 82.397265 99.503649 
L 83.007824 92.023615 
L 83.618383 124.887966 
L 83.923662 136.76936 
L 84.534221 123.251863 
L 84.839501 121.664064 
L 85.45006 137.618411 
L 85.755339 134.020088 
L 86.060619 124.980482 
L 86.671178 136.132424 
L 86.976457 154.404034 
L 87.281737 139.694313 
L 87.892295 130.724718 
L 88.197575 150.997297 
L 88.808134 171.426954 
L 89.113413 171.116489 
L 89.418693 164.567287 
L 90.029252 160.772417 
L 90.334531 176.642521 
L 90.639811 167.231335 
L 90.94509 162.398422 
L 91.25037 148.568902 
L 91.555649 150.475633 
L 91.860929 154.56498 
L 92.471488 186.152334 
L 92.776767 191.589654 
L 93.082047 179.479369 
L 93.387326 172.067036 
L 93.997885 173.996857 
L 94.303164 182.468345 
L 94.608444 183.100454 
L 94.913723 184.990256 
L 95.524282 177.730569 
L 95.829562 180.25743 
L 96.134841 173.909653 
L 96.440121 178.429062 
L 96.7454 176.779789 
L 97.05068 192.118435 
L 97.661239 205.04908 
L 97.966518 204.07139 
L 98.271798 190.084914 
L 98.882357 178.515567 
L 99.187636 183.713692 
L 99.492916 197.950086 
L 99.798195 194.736206 
L 100.103474 202.947495 
L 100.408754 189.051754 
L 100.714033 194.547912 
L 101.019313 184.109857 
L 101.324592 195.876224 
L 101.629872 186.534713 
L 101.935151 186.861816 
L 102.240431 184.010055 
L 102.85099 181.754904 
L 103.156269 170.196391 
L 103.461549 177.18788 
L 103.766828 176.169854 
L 104.072108 178.42255 
L 104.377387 168.298493 
L 104.682667 171.545072 
L 104.987946 177.339893 
L 105.293226 178.862269 
L 105.598505 176.883987 
L 105.903785 171.355672 
L 106.209064 172.012752 
L 106.514343 167.298893 
L 106.819623 169.066801 
L 107.124902 161.597388 
L 107.430182 161.657937 
L 107.735461 164.690153 
L 108.040741 166.496481 
L 108.34602 166.581366 
L 108.6513 156.526152 
L 108.956579 162.480092 
L 109.261859 163.774269 
L 109.567138 155.513371 
L 109.872418 155.321834 
L 110.177697 144.336394 
L 110.482977 156.417519 
L 110.788256 140.841955 
L 111.093536 144.267856 
L 111.398815 125.436143 
L 111.704095 127.782511 
L 112.009374 121.659587 
L 112.314653 132.760453 
L 112.619933 138.194169 
L 112.925212 146.729869 
L 113.230492 146.585612 
L 113.535771 131.530756 
L 113.841051 128.135352 
L 114.14633 116.510011 
L 114.45161 122.244386 
L 115.367448 92.316565 
L 115.672728 88.672327 
L 115.978007 99.084988 
L 116.283287 105.083002 
L 116.588566 97.97635 
L 116.893846 84.337786 
L 117.199125 78.267774 
L 117.504405 77.042654 
L 118.114963 87.524632 
L 118.420243 87.301377 
L 118.725522 80.654085 
L 119.030802 70.783764 
L 119.336081 66.953422 
L 120.25192 88.165332 
L 120.557199 82.458967 
L 120.862479 73.869833 
L 121.167758 70.320512 
L 121.473038 68.840154 
L 121.778317 76.016354 
L 122.083597 77.440981 
L 122.388876 70.586615 
L 122.999435 50.63181 
L 123.304715 54.820655 
L 123.609994 55.71036 
L 123.915274 55.30547 
L 124.220553 44.175318 
L 124.831112 54.726429 
L 125.136391 55.112563 
L 125.441671 56.386673 
L 125.74695 39.935165 
L 126.05223 35.220362 
L 126.357509 21.9441 
L 126.662789 27.991389 
L 126.968068 27.911371 
L 127.273348 35.922837 
L 127.578627 40.910821 
L 127.883907 41.832674 
L 128.189186 43.640177 
L 128.494466 41.205371 
L 128.799745 52.788687 
L 129.105025 40.999652 
L 129.410304 41.451052 
L 129.715584 37.689184 
L 130.020863 43.693665 
L 130.631422 22.028595 
L 130.936701 17.083636 
L 131.241981 33.705024 
L 131.85254 47.701993 
L 132.157819 40.78062 
L 132.463099 45.140177 
L 132.768378 41.100963 
L 133.073658 49.062041 
L 133.378937 44.884092 
L 133.684217 57.17425 
L 133.989496 59.555768 
L 134.294776 57.812471 
L 134.905335 30.331286 
L 135.210614 35.127757 
L 135.515894 36.120557 
L 135.821173 45.639521 
L 136.126453 48.981048 
L 136.431732 55.915978 
L 136.737011 56.788907 
L 137.042291 59.229816 
L 137.65285 79.18951 
L 137.958129 79.71411 
L 138.263409 72.87372 
L 138.568688 61.224556 
L 138.873968 70.200915 
L 139.179247 66.910849 
L 139.484527 76.668327 
L 139.789806 67.916798 
L 140.095086 73.419964 
L 140.400365 70.2935 
L 141.010924 90.201876 
L 141.316204 85.719827 
L 141.621483 86.681385 
L 141.926763 91.194087 
L 142.232042 108.610568 
L 142.537321 108.566378 
L 142.842601 95.050271 
L 143.14788 89.456761 
L 143.45316 91.215822 
L 144.368998 106.942284 
L 144.674278 108.633848 
L 144.979557 113.409399 
L 145.284837 116.273282 
L 145.590116 127.642678 
L 145.895396 116.721215 
L 146.200675 118.984301 
L 146.505955 110.571221 
L 146.811234 123.890928 
L 147.116514 122.534739 
L 147.421793 129.076777 
L 147.727073 120.204612 
L 148.337632 129.231673 
L 148.642911 137.294587 
L 148.94819 133.659809 
L 149.558749 153.152976 
L 149.864029 155.823239 
L 150.169308 144.711675 
L 150.474588 138.103106 
L 150.779867 145.124482 
L 151.390426 162.081357 
L 151.695706 163.793736 
L 152.306265 174.523311 
L 152.611544 179.08626 
L 153.222103 162.181351 
L 153.527383 170.118455 
L 153.832662 172.462293 
L 154.137942 183.3157 
L 154.443221 176.036458 
L 154.7485 175.356402 
L 155.05378 175.732419 
L 155.359059 181.110703 
L 155.664339 181.384988 
L 155.969618 181.902539 
L 156.274898 173.846715 
L 156.580177 177.13413 
L 156.885457 169.027278 
L 157.190736 177.340529 
L 157.496016 176.173401 
L 157.801295 191.301831 
L 158.106575 182.893673 
L 158.411854 195.06859 
L 158.717134 187.414047 
L 159.022413 204.051955 
L 159.327693 201.559 
L 159.632972 207.287123 
L 159.938252 209.168818 
L 160.54881 214.756364 
L 160.85409 207.907445 
L 161.464649 182.447316 
L 161.769928 188.234452 
L 162.075208 189.738618 
L 162.380487 197.012666 
L 162.685767 190.615683 
L 162.991046 192.825915 
L 163.296326 187.962925 
L 163.601605 175.370167 
L 163.906885 184.527878 
L 164.212164 177.559219 
L 164.517444 181.329567 
L 164.822723 172.479534 
L 165.128003 186.762413 
L 165.433282 194.686204 
L 165.738562 197.344497 
L 166.043841 191.948769 
L 166.349121 193.045932 
L 166.6544 187.245527 
L 167.264959 169.819037 
L 167.570238 163.191418 
L 167.875518 168.543799 
L 168.180797 168.425168 
L 168.486077 163.362815 
L 169.096636 140.531551 
L 169.401915 152.32543 
L 169.707195 152.665478 
L 170.012474 156.610965 
L 170.317754 140.217239 
L 170.623033 147.274972 
L 170.928313 147.340675 
L 171.233592 148.655301 
L 171.538872 136.508027 
L 171.844151 136.871632 
L 172.149431 147.132026 
L 172.45471 152.860361 
L 172.759989 150.361284 
L 173.370548 122.180773 
L 173.675828 117.813879 
L 173.981107 117.423642 
L 174.286387 128.061333 
L 174.591666 127.842213 
L 174.896946 132.469918 
L 175.202225 129.343604 
L 175.507505 123.492711 
L 175.812784 124.886574 
L 176.118064 122.453804 
L 176.423343 123.998954 
L 176.728623 122.780019 
L 177.033902 122.550329 
L 177.644461 113.963476 
L 178.25502 101.34562 
L 178.5603 98.445133 
L 178.865579 97.861838 
L 179.170858 90.731889 
L 179.476138 91.067465 
L 179.781417 89.528344 
L 180.086697 85.869293 
L 180.391976 79.785548 
L 180.697256 65.503197 
L 181.002535 66.888323 
L 181.307815 63.471499 
L 181.613094 63.975344 
L 181.918374 74.234505 
L 182.223653 72.241457 
L 182.528933 68.427858 
L 183.139492 55.871013 
L 183.444771 67.160894 
L 183.750051 63.635322 
L 184.05533 63.401018 
L 184.36061 60.873574 
L 184.665889 52.425199 
L 184.971168 60.239928 
L 185.276448 60.820671 
L 185.581727 72.186512 
L 185.887007 55.506735 
L 186.192286 47.789343 
L 186.497566 32.555601 
L 186.802845 36.733525 
L 187.108125 31.015054 
L 187.413404 30.876572 
L 187.718684 36.067317 
L 188.023963 35.404304 
L 188.329243 39.900152 
L 188.634522 30.276675 
L 188.939802 41.299602 
L 189.245081 33.313796 
L 189.550361 31.218087 
L 189.85564 20.20963 
L 190.16092 25.147263 
L 190.466199 32.64241 
L 190.771478 26.700548 
L 191.076758 29.710156 
L 191.382037 27.289775 
L 191.687317 36.561437 
L 191.992596 38.326786 
L 192.297876 38.03153 
L 192.603155 44.938084 
L 192.908435 48.964594 
L 193.213714 47.933876 
L 193.518994 42.710448 
L 193.824273 46.295288 
L 194.129553 45.733087 
L 194.434832 50.994325 
L 194.740112 52.577604 
L 195.045391 66.53598 
L 195.350671 64.606447 
L 195.96123 51.839457 
L 196.266509 52.34903 
L 196.571789 56.69192 
L 196.877068 63.503228 
L 197.182347 67.0399 
L 197.487627 61.296055 
L 197.792906 51.544162 
L 198.098186 55.017749 
L 198.403465 54.301138 
L 198.708745 57.73614 
L 199.014024 50.349966 
L 199.319304 52.357716 
L 199.624583 66.58432 
L 199.929863 67.595565 
L 200.235142 82.92953 
L 200.540422 76.632081 
L 200.845701 75.134167 
L 201.150981 79.435636 
L 201.76154 96.997393 
L 202.066819 93.396659 
L 202.372099 87.061141 
L 202.677378 96.762031 
L 202.982657 93.756641 
L 203.287937 101.256216 
L 203.593216 95.267046 
L 203.898496 104.648844 
L 204.203775 104.06405 
L 204.509055 117.839661 
L 204.814334 111.559979 
L 205.119614 107.843956 
L 205.424893 96.760811 
L 205.730173 97.166665 
L 206.035452 113.143712 
L 206.340732 119.471994 
L 206.646011 129.197731 
L 206.951291 120.422074 
L 207.56185 139.101344 
L 207.867129 135.733255 
L 208.172409 134.297562 
L 208.477688 138.077734 
L 208.782968 157.348198 
L 209.088247 164.866503 
L 209.393526 157.320363 
L 209.698806 154.218954 
L 210.004085 142.307458 
L 210.309365 154.245039 
L 210.614644 157.060394 
L 210.919924 167.038347 
L 211.225203 159.767401 
L 211.530483 160.974197 
L 211.835762 160.192926 
L 212.141042 171.728012 
L 212.446321 176.7894 
L 213.05688 167.849164 
L 213.36216 164.883889 
L 213.667439 167.362486 
L 213.972719 163.024384 
L 214.277998 160.748947 
L 214.583278 174.154081 
L 214.888557 170.665823 
L 215.193836 179.288141 
L 215.499116 178.986802 
L 215.804395 185.54916 
L 216.109675 178.622052 
L 216.414954 181.04089 
L 216.720234 188.548914 
L 217.025513 188.031877 
L 217.330793 186.742919 
L 217.636072 175.990379 
L 217.941352 182.303436 
L 218.246631 183.860859 
L 218.551911 188.599024 
L 218.85719 188.275345 
L 219.16247 179.012931 
L 219.467749 187.774668 
L 219.773029 188.682273 
L 220.078308 205.021808 
L 220.383588 197.763001 
L 220.688867 202.335992 
L 220.994147 189.674198 
L 221.299426 192.531574 
L 221.604705 179.757198 
L 221.909985 188.297096 
L 222.215264 192.217712 
L 222.825823 202.549035 
L 223.131103 201.381879 
L 223.436382 201.177613 
L 223.741662 191.552672 
L 224.046941 188.99024 
L 224.352221 196.846788 
L 224.6575 196.894035 
L 225.268059 179.753568 
L 225.878618 188.6995 
L 226.183898 189.408355 
L 226.489177 189.440193 
L 226.794457 187.290849 
L 227.099736 192.848986 
L 227.405015 177.549503 
L 227.710295 181.198273 
L 228.015574 175.761658 
L 228.320854 176.591694 
L 228.626133 175.865412 
L 228.931413 162.368511 
L 229.236692 156.772262 
L 229.541972 141.251455 
L 230.152531 164.18777 
L 230.45781 166.451607 
L 230.76309 167.644761 
L 231.068369 168.042069 
L 231.373649 174.027609 
L 231.984208 137.175449 
L 232.289487 133.785758 
L 232.594767 147.480279 
L 232.900046 155.527156 
L 233.815884 124.657214 
L 234.121164 128.260544 
L 234.426443 130.510387 
L 234.731723 143.095362 
L 235.037002 137.01388 
L 235.342282 124.36109 
L 235.647561 105.136094 
L 235.952841 98.791308 
L 236.25812 100.314702 
L 236.5634 104.712569 
L 236.868679 112.689263 
L 237.173959 114.237383 
L 237.479238 111.198702 
L 237.784518 104.325224 
L 238.089797 101.002203 
L 238.395077 95.817276 
L 238.700356 101.151704 
L 239.005636 90.441514 
L 239.310915 90.415404 
L 239.616194 85.630106 
L 239.921474 82.605423 
L 240.226753 89.091511 
L 240.532033 86.888261 
L 240.837312 90.78052 
L 241.142592 73.561688 
L 241.447871 71.559227 
L 241.753151 65.356055 
L 242.05843 77.526431 
L 242.36371 66.87482 
L 242.668989 70.727915 
L 242.974269 71.632141 
L 243.279548 69.411287 
L 243.890107 59.330313 
L 244.195387 69.267352 
L 244.500666 68.477342 
L 245.111225 41.948239 
L 245.416504 40.704488 
L 245.721784 55.731763 
L 246.027063 64.583617 
L 246.332343 69.252396 
L 246.942902 48.326805 
L 247.248181 47.990502 
L 247.553461 48.950786 
L 247.85874 41.886835 
L 248.16402 40.279741 
L 248.774579 55.927932 
L 249.079858 53.55898 
L 249.385138 40.579106 
L 249.690417 41.582247 
L 249.995697 32.724246 
L 250.300976 32.604853 
L 250.606256 35.552666 
L 251.216815 57.598653 
L 251.522094 41.762114 
L 251.827373 34.530558 
L 252.132653 33.456811 
L 252.437932 44.417125 
L 253.048491 54.726449 
L 253.353771 49.598993 
L 253.65905 48.349484 
L 253.96433 44.909562 
L 254.269609 48.240909 
L 254.574889 43.005898 
L 254.880168 35.397196 
L 255.185448 40.644042 
L 255.490727 40.459335 
L 255.796007 54.597712 
L 256.101286 58.648556 
L 256.406566 54.926242 
L 256.711845 42.898804 
L 257.017125 44.504647 
L 257.322404 55.797485 
L 257.627683 62.561622 
L 257.932963 50.644934 
L 258.238242 50.64239 
L 258.848801 72.314794 
L 259.154081 65.571315 
L 259.45936 62.334231 
L 259.76464 56.529385 
L 260.069919 59.101098 
L 260.375199 58.692802 
L 260.680478 69.894033 
L 260.985758 73.166242 
L 261.291037 73.18494 
L 261.596317 68.761778 
L 261.901596 74.027809 
L 262.206876 77.241634 
L 262.512155 85.771297 
L 262.817435 86.052856 
L 263.122714 86.620927 
L 263.427993 88.83557 
L 263.733273 95.768649 
L 264.038552 95.260706 
L 264.343832 86.994683 
L 264.649111 93.351909 
L 265.25967 98.957759 
L 265.56495 91.277442 
L 265.870229 101.606715 
L 266.175509 99.714178 
L 266.480788 116.584782 
L 266.786068 115.738208 
L 267.091347 127.822797 
L 267.396627 117.817234 
L 267.701906 122.78482 
L 268.007186 120.326518 
L 268.312465 122.102195 
L 268.617745 114.101377 
L 268.923024 120.974541 
L 269.533583 147.571269 
L 269.838862 148.538951 
L 270.144142 147.401362 
L 270.449421 139.618244 
L 270.754701 140.828928 
L 271.05998 138.560414 
L 271.36526 144.184357 
L 271.670539 145.085879 
L 271.975819 158.401999 
L 272.281098 158.438238 
L 272.586378 162.718266 
L 272.891657 155.583554 
L 273.196937 156.584525 
L 273.807496 168.124603 
L 274.112775 169.022607 
L 274.418055 169.497093 
L 274.723334 173.195053 
L 275.333893 187.485131 
L 275.944452 176.136384 
L 276.249731 167.883368 
L 276.555011 168.030092 
L 276.86029 171.150862 
L 277.16557 167.435106 
L 277.470849 173.571797 
L 278.081408 198.026011 
L 278.386688 200.678606 
L 278.691967 198.061458 
L 278.997247 193.306029 
L 279.302526 193.347939 
L 279.607806 185.573532 
L 279.913085 196.292399 
L 280.218365 199.892688 
L 280.523644 211.697349 
L 280.828924 199.324018 
L 281.134203 199.7276 
L 281.439483 198.202511 
L 281.744762 200.528421 
L 282.050041 185.286934 
L 282.355321 181.723177 
L 282.6606 186.148087 
L 282.96588 198.385178 
L 283.271159 200.763217 
L 283.576439 195.305822 
L 284.186998 173.608396 
L 284.797557 185.118229 
L 285.102836 187.384146 
L 285.713395 181.567723 
L 286.018675 190.582419 
L 286.323954 187.377795 
L 286.629234 188.93705 
L 286.934513 174.857669 
L 287.239793 169.324023 
L 287.545072 167.250827 
L 287.850351 168.261574 
L 288.155631 165.234812 
L 288.46091 171.872417 
L 288.76619 166.607949 
L 289.071469 168.775029 
L 289.376749 160.993344 
L 289.682028 161.69977 
L 290.292587 158.843127 
L 290.597867 160.403669 
L 290.903146 158.045445 
L 291.208426 162.385786 
L 291.818985 150.406449 
L 292.124264 145.086762 
L 292.734823 141.395068 
L 293.040103 141.168738 
L 293.345382 149.890724 
L 293.650662 161.944628 
L 293.955941 158.235503 
L 294.26122 146.71214 
L 294.5665 144.464116 
L 294.871779 135.363806 
L 295.177059 136.406811 
L 295.482338 131.632131 
L 295.787618 139.727291 
L 296.398177 136.356997 
L 296.703456 123.171898 
L 297.314015 121.565059 
L 297.619295 113.634069 
L 297.924574 115.750704 
L 298.229854 106.150859 
L 298.535133 119.618185 
L 298.840413 114.416926 
L 299.145692 107.269472 
L 299.450972 89.249454 
L 299.756251 86.362594 
L 300.06153 82.105805 
L 300.36681 92.256632 
L 300.672089 94.088778 
L 300.977369 103.176418 
L 301.282648 102.754204 
L 302.198487 61.167817 
L 302.503766 66.253718 
L 302.809046 80.049754 
L 303.419605 67.344165 
L 303.724884 50.772129 
L 304.030164 54.793114 
L 304.335443 56.956117 
L 304.640723 54.341507 
L 304.946002 46.130159 
L 305.251282 42.277316 
L 305.556561 50.355177 
L 305.86184 48.81741 
L 306.472399 53.321993 
L 306.777679 61.690841 
L 307.082958 63.817759 
L 307.998797 46.393955 
L 308.304076 35.964638 
L 308.609356 29.618437 
L 308.914635 34.445496 
L 309.525194 51.197584 
L 309.830474 36.557525 
L 310.135753 33.49327 
L 310.441033 38.112499 
L 310.746312 38.456139 
L 311.051592 37.095024 
L 311.356871 21.826843 
L 311.662151 19.269718 
L 311.96743 26.613808 
L 312.577989 51.989777 
L 313.188548 37.828868 
L 313.493827 26.64437 
L 313.799107 32.667202 
L 314.409666 54.776288 
L 314.714945 43.207528 
L 315.325504 48.232435 
L 315.630784 58.289352 
L 315.936063 52.180939 
L 316.241343 40.628139 
L 316.851902 32.158463 
L 317.157181 35.262997 
L 317.76774 53.439965 
L 318.073019 59.871089 
L 318.378299 54.016546 
L 318.683578 57.37695 
L 318.988858 51.944512 
L 319.294137 59.853404 
L 319.599417 59.175906 
L 319.904696 74.174064 
L 320.209976 76.109773 
L 320.515255 76.125934 
L 320.820535 74.719961 
L 321.125814 78.65695 
L 321.431094 71.639333 
L 321.736373 72.134379 
L 322.041653 69.152622 
L 322.346932 84.000855 
L 322.652212 79.703577 
L 323.262771 59.580937 
L 323.56805 63.849548 
L 323.87333 79.303979 
L 324.178609 82.6689 
L 324.483888 92.927156 
L 324.789168 91.343318 
L 325.094447 108.037549 
L 325.399727 107.963663 
L 325.705006 104.406507 
L 326.010286 92.261363 
L 326.315565 89.373871 
L 326.620845 100.192928 
L 327.231404 127.510457 
L 327.536683 123.494898 
L 327.841963 123.601857 
L 328.147242 127.246329 
L 328.452522 124.87641 
L 328.757801 118.253448 
L 329.36836 124.314977 
L 329.67364 129.374945 
L 329.978919 124.042761 
L 330.284198 127.243942 
L 330.589478 125.071919 
L 330.894757 126.242089 
L 331.200037 136.457966 
L 331.505316 142.760852 
L 331.810596 139.068821 
L 332.726434 162.629715 
L 333.031714 158.771926 
L 333.642273 172.532812 
L 333.947552 176.91048 
L 334.252832 168.949298 
L 335.16867 179.231964 
L 335.47395 182.359911 
L 335.779229 169.55217 
L 336.389788 168.253056 
L 336.695067 184.516853 
L 337.000347 194.087872 
L 337.610906 174.399306 
L 337.916185 170.84143 
L 338.221465 180.570041 
L 338.526744 177.793882 
L 338.832024 182.928176 
L 339.137303 183.655738 
L 339.442583 191.882359 
L 339.747862 183.870372 
L 340.053142 189.124986 
L 340.358421 190.379675 
L 340.663701 198.235616 
L 340.96898 195.431869 
L 341.27426 199.701155 
L 341.579539 201.226018 
L 341.884819 200.035685 
L 342.190098 202.025927 
L 342.495377 199.717092 
L 342.800657 188.365768 
L 343.105936 190.852582 
L 343.411216 188.64731 
L 343.716495 192.572547 
L 344.021775 180.241466 
L 344.327054 187.532873 
L 344.632334 200.273795 
L 344.937613 205.926497 
L 345.548172 182.40235 
L 345.853452 175.909624 
L 346.464011 184.885374 
L 346.76929 192.957768 
L 347.07457 187.074503 
L 347.379849 188.99823 
L 347.685129 186.656826 
L 347.990408 198.311311 
L 348.295687 198.231839 
L 348.600967 193.378272 
L 349.211526 164.588351 
L 349.516805 158.24447 
L 349.822085 161.82346 
L 350.127364 171.929437 
L 350.432644 168.042943 
L 351.043203 154.362689 
L 351.348482 158.670111 
L 351.653762 160.535242 
L 351.959041 151.067265 
L 352.264321 159.399483 
L 352.5696 161.558465 
L 352.87488 160.562542 
L 353.180159 146.50552 
L 353.485439 146.647658 
L 353.790718 148.850748 
L 354.095998 142.215616 
L 354.401277 138.193198 
L 354.706556 128.944831 
L 355.011836 130.274011 
L 355.317115 134.902554 
L 355.622395 144.375326 
L 356.232954 133.776392 
L 356.538233 130.057725 
L 356.843513 142.511557 
L 357.148792 140.961373 
L 357.454072 140.109937 
L 357.759351 122.281989 
L 358.064631 123.681029 
L 358.064631 123.681029 
" clip-path="url(#p4868a9de90)" style="fill: none; stroke: #1f77b4; stroke-width: 1.5; stroke-linecap: square"/>
   </g>
   <g id="patch_3">
    <path d="M 38.482813 224.64 
L 38.482813 7.2 
" style="fill: none; stroke: #000000; stroke-width: 0.8; stroke-linejoin: miter; stroke-linecap: square"/>
   </g>
   <g id="patch_4">
    <path d="M 373.282813 224.64 
L 373.282813 7.2 
" style="fill: none; stroke: #000000; stroke-width: 0.8; stroke-linejoin: miter; stroke-linecap: square"/>
   </g>
   <g id="patch_5">
    <path d="M 38.482813 224.64 
L 373.282813 224.64 
" style="fill: none; stroke: #000000; stroke-width: 0.8; stroke-linejoin: miter; stroke-linecap: square"/>
   </g>
   <g id="patch_6">
    <path d="M 38.482813 7.2 
L 373.282813 7.2 
" style="fill: none; stroke: #000000; stroke-width: 0.8; stroke-linejoin: miter; stroke-linecap: square"/>
   </g>
  </g>
 </g>
 <defs>
  <clipPath id="p4868a9de90">
   <rect x="38.482813" y="7.2" width="334.8" height="217.44"/>
  </clipPath>
 </defs>
</svg>
