<?xml version="1.0" encoding="utf-8" standalone="no"?>
<!DOCTYPE svg PUBLIC "-//W3C//DTD SVG 1.1//EN"
  "http://www.w3.org/Graphics/SVG/1.1/DTD/svg11.dtd">
<svg xmlns:xlink="http://www.w3.org/1999/xlink" width="532.7875pt" height="352.15625pt" viewBox="0 0 532.7875 352.15625" xmlns="http://www.w3.org/2000/svg" version="1.1">
 <metadata>
  <rdf:RDF xmlns:dc="http://purl.org/dc/elements/1.1/" xmlns:cc="http://creativecommons.org/ns#" xmlns:rdf="http://www.w3.org/1999/02/22-rdf-syntax-ns#">
   <cc:Work>
    <dc:type rdf:resource="http://purl.org/dc/dcmitype/StillImage"/>
    <dc:date>2022-07-20T10:48:32.841027</dc:date>
    <dc:format>image/svg+xml</dc:format>
    <dc:creator>
     <cc:Agent>
      <dc:title>Matplotlib v3.5.2, https://matplotlib.org/</dc:title>
     </cc:Agent>
    </dc:creator>
   </cc:Work>
  </rdf:RDF>
 </metadata>
 <defs>
  <style type="text/css">*{stroke-linejoin: round; stroke-linecap: butt}</style>
 </defs>
 <g id="figure_1">
  <g id="patch_1">
   <path d="M 0 352.15625 
L 532.7875 352.15625 
L 532.7875 0 
L 0 0 
L 0 352.15625 
z
" style="fill: none"/>
  </g>
  <g id="axes_1">
   <g id="patch_2">
    <path d="M 47.1875 314.6 
L 525.5875 314.6 
L 525.5875 7.2 
L 47.1875 7.2 
z
" style="fill: #ffffff"/>
   </g>
   <g id="PathCollection_1">
    <defs>
     <path id="m3152d53987" d="M 0 3 
C 0.795609 3 1.55874 2.683901 2.12132 2.12132 
C 2.683901 1.55874 3 0.795609 3 0 
C 3 -0.795609 2.683901 -1.55874 2.12132 -2.12132 
C 1.55874 -2.683901 0.795609 -3 0 -3 
C -0.795609 -3 -1.55874 -2.683901 -2.12132 -2.12132 
C -2.683901 -1.55874 -3 -0.795609 -3 0 
C -3 0.795609 -2.683901 1.55874 -2.12132 2.12132 
C -1.55874 2.683901 -0.795609 3 0 3 
z
" style="stroke: #1f77b4; stroke-opacity: 0.8"/>
    </defs>
    <g clip-path="url(#pbc8f6256cf)">
     <use xlink:href="#m3152d53987" x="68.932955" y="254.216911" style="fill: #1f77b4; fill-opacity: 0.8; stroke: #1f77b4; stroke-opacity: 0.8"/>
     <use xlink:href="#m3152d53987" x="113.052799" y="237.910568" style="fill: #1f77b4; fill-opacity: 0.8; stroke: #1f77b4; stroke-opacity: 0.8"/>
     <use xlink:href="#m3152d53987" x="157.172644" y="212.823886" style="fill: #1f77b4; fill-opacity: 0.8; stroke: #1f77b4; stroke-opacity: 0.8"/>
     <use xlink:href="#m3152d53987" x="201.261042" y="187.737205" style="fill: #1f77b4; fill-opacity: 0.8; stroke: #1f77b4; stroke-opacity: 0.8"/>
     <use xlink:href="#m3152d53987" x="245.380887" y="161.396189" style="fill: #1f77b4; fill-opacity: 0.8; stroke: #1f77b4; stroke-opacity: 0.8"/>
     <use xlink:href="#m3152d53987" x="289.500732" y="138.818175" style="fill: #1f77b4; fill-opacity: 0.8; stroke: #1f77b4; stroke-opacity: 0.8"/>
     <use xlink:href="#m3152d53987" x="333.58913" y="114.985827" style="fill: #1f77b4; fill-opacity: 0.8; stroke: #1f77b4; stroke-opacity: 0.8"/>
     <use xlink:href="#m3152d53987" x="377.708975" y="91.15348" style="fill: #1f77b4; fill-opacity: 0.8; stroke: #1f77b4; stroke-opacity: 0.8"/>
     <use xlink:href="#m3152d53987" x="421.797373" y="69.8298" style="fill: #1f77b4; fill-opacity: 0.8; stroke: #1f77b4; stroke-opacity: 0.8"/>
     <use xlink:href="#m3152d53987" x="465.917218" y="44.743118" style="fill: #1f77b4; fill-opacity: 0.8; stroke: #1f77b4; stroke-opacity: 0.8"/>
     <use xlink:href="#m3152d53987" x="201.261042" y="200.280545" style="fill: #1f77b4; fill-opacity: 0.8; stroke: #1f77b4; stroke-opacity: 0.8"/>
     <use xlink:href="#m3152d53987" x="201.261042" y="231.638898" style="fill: #1f77b4; fill-opacity: 0.8; stroke: #1f77b4; stroke-opacity: 0.8"/>
     <use xlink:href="#m3152d53987" x="245.380887" y="171.430861" style="fill: #1f77b4; fill-opacity: 0.8; stroke: #1f77b4; stroke-opacity: 0.8"/>
     <use xlink:href="#m3152d53987" x="289.500732" y="166.413525" style="fill: #1f77b4; fill-opacity: 0.8; stroke: #1f77b4; stroke-opacity: 0.8"/>
     <use xlink:href="#m3152d53987" x="333.58913" y="160.141855" style="fill: #1f77b4; fill-opacity: 0.8; stroke: #1f77b4; stroke-opacity: 0.8"/>
     <use xlink:href="#m3152d53987" x="264.123173" y="107.459823" style="fill: #1f77b4; fill-opacity: 0.8; stroke: #1f77b4; stroke-opacity: 0.8"/>
     <use xlink:href="#m3152d53987" x="308.243018" y="82.373141" style="fill: #1f77b4; fill-opacity: 0.8; stroke: #1f77b4; stroke-opacity: 0.8"/>
     <use xlink:href="#m3152d53987" x="396.451261" y="59.795127" style="fill: #1f77b4; fill-opacity: 0.8; stroke: #1f77b4; stroke-opacity: 0.8"/>
    </g>
   </g>
   <g id="PolyCollection_1">
    <path d="M 68.932955 250.788526 
L 68.932955 285.98997 
L 72.942897 283.306263 
L 76.952839 280.766407 
L 80.962781 278.302146 
L 84.972723 275.685559 
L 88.982665 273.068972 
L 92.992607 270.452385 
L 97.002549 267.835798 
L 101.012491 265.305689 
L 105.022433 262.959009 
L 109.032375 260.60977 
L 113.042317 258.259964 
L 117.052259 255.780354 
L 121.062201 253.145949 
L 125.072143 250.508955 
L 129.082085 247.871962 
L 133.092027 245.262173 
L 137.101969 242.779528 
L 141.111912 240.292329 
L 145.121854 237.705554 
L 149.131796 234.94932 
L 153.141738 232.291878 
L 157.15168 229.831805 
L 161.161622 227.440301 
L 165.171564 224.999393 
L 169.181506 222.528808 
L 173.191448 220.170403 
L 177.20139 217.744986 
L 181.211332 215.198339 
L 185.221274 212.649217 
L 189.231216 210.163666 
L 193.241158 207.704975 
L 197.2511 205.28344 
L 201.261042 202.797573 
L 205.270984 200.325992 
L 209.280926 197.863815 
L 213.290869 195.432521 
L 217.300811 193.077461 
L 221.310753 190.686323 
L 225.320695 188.369074 
L 229.330637 186.009585 
L 233.340579 183.48986 
L 237.350521 181.300064 
L 241.360463 178.750673 
L 245.370405 176.28322 
L 249.380347 173.873596 
L 253.390289 171.610995 
L 257.400231 169.159128 
L 261.410173 166.836856 
L 265.420115 164.522815 
L 269.430057 162.447802 
L 273.439999 160.36715 
L 277.449941 158.034075 
L 281.459883 155.758546 
L 285.469826 153.680691 
L 289.479768 151.601337 
L 293.48971 149.390522 
L 297.499652 147.135234 
L 301.509594 144.683719 
L 305.519536 142.427502 
L 309.529478 140.140982 
L 313.53942 138.09419 
L 317.549362 136.065633 
L 321.559304 133.880091 
L 325.569246 131.810422 
L 329.579188 129.736336 
L 333.58913 127.727323 
L 337.599072 125.593222 
L 341.609014 123.516241 
L 345.618956 121.445641 
L 349.628898 119.212222 
L 353.63884 117.147187 
L 357.648783 115.148769 
L 361.658725 113.031101 
L 365.668667 110.695615 
L 369.678609 108.40786 
L 373.688551 106.370013 
L 377.698493 104.346067 
L 381.708435 102.334297 
L 385.718377 100.479138 
L 389.728319 98.652122 
L 393.738261 96.583929 
L 397.748203 94.511759 
L 401.758145 92.439589 
L 405.768087 90.367418 
L 409.778029 88.295248 
L 413.787971 86.243849 
L 417.797913 84.231944 
L 421.807855 82.213358 
L 425.817797 80.161635 
L 429.82774 78.200295 
L 433.837682 76.19184 
L 437.847624 74.179524 
L 441.857566 72.034903 
L 445.867508 69.983416 
L 449.87745 68.033107 
L 453.887392 66.082798 
L 457.897334 64.128298 
L 461.907276 62.119609 
L 465.917218 60.108675 
L 465.917218 21.172727 
L 465.917218 21.172727 
L 461.907276 23.734563 
L 457.897334 26.299074 
L 453.887392 28.863902 
L 449.87745 31.421648 
L 445.867508 33.932068 
L 441.857566 36.394162 
L 437.847624 38.935393 
L 433.837682 41.581565 
L 429.82774 44.01797 
L 425.817797 46.451392 
L 421.807855 48.99388 
L 417.797913 51.536767 
L 413.787971 54.085171 
L 409.778029 56.636272 
L 405.768087 59.181979 
L 401.758145 61.785648 
L 397.748203 64.42224 
L 393.738261 67.001162 
L 389.728319 69.384672 
L 385.718377 71.913182 
L 381.708435 74.459351 
L 377.698493 76.918945 
L 373.688551 79.319616 
L 369.678609 81.45368 
L 365.668667 83.992545 
L 361.658725 86.5143 
L 357.648783 89.028625 
L 353.63884 91.614713 
L 349.628898 94.157842 
L 345.618956 96.698979 
L 341.609014 99.032248 
L 337.599072 101.356965 
L 333.58913 103.674088 
L 329.579188 106.022089 
L 325.569246 108.33141 
L 321.559304 110.65545 
L 317.549362 113.024144 
L 313.53942 115.414072 
L 309.529478 117.787029 
L 305.519536 120.06186 
L 301.509594 122.579903 
L 297.499652 124.954465 
L 293.48971 127.338655 
L 289.479768 129.592115 
L 285.469826 131.856782 
L 281.459883 133.998221 
L 277.449941 136.473667 
L 273.439999 138.785453 
L 269.430057 141.227044 
L 265.420115 143.558458 
L 261.410173 145.800595 
L 257.400231 148.084859 
L 253.390289 150.282404 
L 249.380347 152.566011 
L 245.370405 154.805282 
L 241.360463 157.045064 
L 237.350521 159.280491 
L 233.340579 161.517893 
L 229.330637 163.75455 
L 225.320695 165.991208 
L 221.310753 168.230174 
L 217.300811 170.63413 
L 213.290869 172.820533 
L 209.280926 174.949187 
L 205.270984 177.185059 
L 201.261042 179.420931 
L 197.2511 181.660987 
L 193.241158 183.884097 
L 189.231216 186.138921 
L 185.221274 188.375824 
L 181.211332 190.614153 
L 177.20139 192.853305 
L 173.191448 195.106549 
L 169.181506 197.331609 
L 165.171564 199.525911 
L 161.161622 201.6604 
L 157.15168 203.796405 
L 153.141738 205.932411 
L 149.131796 208.058745 
L 145.121854 210.184045 
L 141.111912 212.342898 
L 137.101969 214.479153 
L 133.092027 216.716569 
L 129.082085 218.834369 
L 125.072143 220.995862 
L 121.062201 223.228789 
L 117.052259 225.461715 
L 113.042317 227.694641 
L 109.032375 229.802035 
L 105.022433 231.869045 
L 101.012491 233.924809 
L 97.002549 236.16319 
L 92.992607 238.401114 
L 88.982665 240.580928 
L 84.972723 242.743811 
L 80.962781 244.600263 
L 76.952839 246.613603 
L 72.942897 248.799665 
L 68.932955 250.788526 
z
" clip-path="url(#pbc8f6256cf)" style="fill: #1f77b4; fill-opacity: 0.15"/>
   </g>
   <g id="PathCollection_2">
    <defs>
     <path id="m97da571caf" d="M 0 -3 
L -3 3 
L 3 3 
z
" style="stroke: #ff7f0e; stroke-opacity: 0.8"/>
    </defs>
    <g clip-path="url(#pbc8f6256cf)">
     <use xlink:href="#m97da571caf" x="195.066025" y="290.5926" style="fill: #ff7f0e; fill-opacity: 0.8; stroke: #ff7f0e; stroke-opacity: 0.8"/>
     <use xlink:href="#m97da571caf" x="239.18587" y="249.199575" style="fill: #ff7f0e; fill-opacity: 0.8; stroke: #ff7f0e; stroke-opacity: 0.8"/>
     <use xlink:href="#m97da571caf" x="283.305715" y="212.823886" style="fill: #ff7f0e; fill-opacity: 0.8; stroke: #ff7f0e; stroke-opacity: 0.8"/>
     <use xlink:href="#m97da571caf" x="327.394113" y="177.702532" style="fill: #ff7f0e; fill-opacity: 0.8; stroke: #ff7f0e; stroke-opacity: 0.8"/>
     <use xlink:href="#m97da571caf" x="371.513958" y="146.34418" style="fill: #ff7f0e; fill-opacity: 0.8; stroke: #ff7f0e; stroke-opacity: 0.8"/>
     <use xlink:href="#m97da571caf" x="415.633803" y="117.494495" style="fill: #ff7f0e; fill-opacity: 0.8; stroke: #ff7f0e; stroke-opacity: 0.8"/>
     <use xlink:href="#m97da571caf" x="459.722201" y="89.899145" style="fill: #ff7f0e; fill-opacity: 0.8; stroke: #ff7f0e; stroke-opacity: 0.8"/>
     <use xlink:href="#m97da571caf" x="503.842045" y="64.812464" style="fill: #ff7f0e; fill-opacity: 0.8; stroke: #ff7f0e; stroke-opacity: 0.8"/>
     <use xlink:href="#m97da571caf" x="239.18587" y="256.72558" style="fill: #ff7f0e; fill-opacity: 0.8; stroke: #ff7f0e; stroke-opacity: 0.8"/>
     <use xlink:href="#m97da571caf" x="327.394113" y="188.991539" style="fill: #ff7f0e; fill-opacity: 0.8; stroke: #ff7f0e; stroke-opacity: 0.8"/>
     <use xlink:href="#m97da571caf" x="195.066025" y="300.627273" style="fill: #ff7f0e; fill-opacity: 0.8; stroke: #ff7f0e; stroke-opacity: 0.8"/>
     <use xlink:href="#m97da571caf" x="283.305715" y="235.4019" style="fill: #ff7f0e; fill-opacity: 0.8; stroke: #ff7f0e; stroke-opacity: 0.8"/>
    </g>
   </g>
   <g id="PolyCollection_2">
    <path d="M 195.066025 279.649784 
L 195.066025 297.536512 
L 198.184975 294.960726 
L 201.303924 292.407009 
L 204.422874 289.858572 
L 207.541824 287.287675 
L 210.660773 284.731703 
L 213.779723 282.169856 
L 216.898673 279.615686 
L 220.017623 277.198968 
L 223.136572 274.639963 
L 226.255522 272.026277 
L 229.374472 269.555414 
L 232.493421 267.080713 
L 235.612371 264.532132 
L 238.731321 262.044897 
L 241.85027 259.555201 
L 244.96922 257.053474 
L 248.08817 254.581434 
L 251.20712 252.09394 
L 254.326069 249.615066 
L 257.445019 247.119448 
L 260.563969 244.657259 
L 263.682918 242.19306 
L 266.801868 239.798165 
L 269.920818 237.349158 
L 273.039767 234.8568 
L 276.158717 232.343181 
L 279.277667 229.860958 
L 282.396617 227.446038 
L 285.515566 225.055993 
L 288.634516 222.61073 
L 291.753466 220.184627 
L 294.872415 217.773598 
L 297.991365 215.388166 
L 301.110315 213.024739 
L 304.229265 210.686928 
L 307.348214 208.368803 
L 310.467164 206.011117 
L 313.586114 203.663749 
L 316.705063 201.278303 
L 319.824013 198.895195 
L 322.942963 196.54428 
L 326.061912 194.168439 
L 329.180862 191.810465 
L 332.299812 189.488139 
L 335.418762 187.143938 
L 338.537711 184.790341 
L 341.656661 182.405483 
L 344.775611 180.02748 
L 347.89456 177.607903 
L 351.01351 175.239307 
L 354.13246 172.84109 
L 357.251409 170.499196 
L 360.370359 168.155783 
L 363.489309 165.796835 
L 366.608259 163.441217 
L 369.727208 161.079892 
L 372.846158 158.683921 
L 375.965108 156.310764 
L 379.084057 153.992304 
L 382.203007 151.67383 
L 385.321957 149.354494 
L 388.440906 146.99973 
L 391.559856 144.699922 
L 394.678806 142.394672 
L 397.797756 140.062839 
L 400.916705 137.703276 
L 404.035655 135.381343 
L 407.154605 133.040401 
L 410.273554 130.708868 
L 413.392504 128.425103 
L 416.511454 126.092374 
L 419.630403 123.770635 
L 422.749353 121.459468 
L 425.868303 119.158801 
L 428.987253 116.836658 
L 432.106202 114.555062 
L 435.225152 112.238275 
L 438.344102 109.905548 
L 441.463051 107.615957 
L 444.582001 105.310799 
L 447.700951 103.038795 
L 450.819901 100.7509 
L 453.93885 98.460262 
L 457.0578 96.062197 
L 460.17675 93.749809 
L 463.295699 91.458823 
L 466.414649 89.144627 
L 469.533599 86.87816 
L 472.652548 84.579613 
L 475.771498 82.259887 
L 478.890448 80.009801 
L 482.009398 77.722031 
L 485.128347 75.431345 
L 488.247297 73.17163 
L 491.366247 70.980687 
L 494.485196 68.705544 
L 497.604146 66.414725 
L 500.723096 64.1774 
L 503.842045 61.943116 
L 503.842045 36.8147 
L 503.842045 36.8147 
L 500.723096 39.398468 
L 497.604146 41.982237 
L 494.485196 44.566006 
L 491.366247 47.149775 
L 488.247297 49.733544 
L 485.128347 52.33403 
L 482.009398 54.953852 
L 478.890448 57.573673 
L 475.771498 60.193495 
L 472.652548 62.814078 
L 469.533599 65.435971 
L 466.414649 68.057864 
L 463.295699 70.679758 
L 460.17675 73.34036 
L 457.0578 76.004932 
L 453.93885 78.658643 
L 450.819901 81.273947 
L 447.700951 83.868067 
L 444.582001 86.502302 
L 441.463051 89.116388 
L 438.344102 91.730969 
L 435.225152 94.345551 
L 432.106202 96.955474 
L 428.987253 99.564943 
L 425.868303 102.174412 
L 422.749353 104.783881 
L 419.630403 107.39335 
L 416.511454 110.002819 
L 413.392504 112.610043 
L 410.273554 115.216342 
L 407.154605 117.822539 
L 404.035655 120.428736 
L 400.916705 123.038428 
L 397.797756 125.609067 
L 394.678806 128.149555 
L 391.559856 130.690043 
L 388.440906 133.286957 
L 385.321957 135.949404 
L 382.203007 138.615059 
L 379.084057 141.281505 
L 375.965108 143.918159 
L 372.846158 146.515737 
L 369.727208 149.108214 
L 366.608259 151.660691 
L 363.489309 154.211037 
L 360.370359 156.760313 
L 357.251409 159.337749 
L 354.13246 161.959815 
L 351.01351 164.363523 
L 347.89456 166.663559 
L 344.775611 169.185425 
L 341.656661 171.735414 
L 338.537711 174.332461 
L 335.418762 176.791897 
L 332.299812 179.372868 
L 329.180862 181.770562 
L 326.061912 184.155874 
L 322.942963 186.564873 
L 319.824013 188.874661 
L 316.705063 191.372124 
L 313.586114 193.842725 
L 310.467164 196.264187 
L 307.348214 198.552943 
L 304.229265 200.785614 
L 301.110315 203.230272 
L 297.991365 205.520691 
L 294.872415 207.771956 
L 291.753466 210.11996 
L 288.634516 212.471639 
L 285.515566 214.695117 
L 282.396617 217.070141 
L 279.277667 219.282872 
L 276.158717 221.640272 
L 273.039767 223.87215 
L 269.920818 226.168229 
L 266.801868 228.436545 
L 263.682918 230.693415 
L 260.563969 232.950284 
L 257.445019 235.207154 
L 254.326069 237.462672 
L 251.20712 239.678586 
L 248.08817 241.872529 
L 244.96922 244.066472 
L 241.85027 246.260415 
L 238.731321 248.454358 
L 235.612371 250.648301 
L 232.493421 252.856323 
L 229.374472 255.085025 
L 226.255522 257.313848 
L 223.136572 259.542672 
L 220.017623 261.771632 
L 216.898673 264.001926 
L 213.779723 266.23222 
L 210.660773 268.462514 
L 207.541824 270.692807 
L 204.422874 272.937946 
L 201.303924 275.151506 
L 198.184975 277.381492 
L 195.066025 279.649784 
z
" clip-path="url(#pbc8f6256cf)" style="fill: #ff7f0e; fill-opacity: 0.15"/>
   </g>
   <g id="matplotlib.axis_1">
    <g id="xtick_1">
     <g id="line2d_1">
      <defs>
       <path id="m0166d8171f" d="M 0 0 
L 0 3.5 
" style="stroke: #000000; stroke-width: 0.8"/>
      </defs>
      <g>
       <use xlink:href="#m0166d8171f" x="93.964599" y="314.6" style="stroke: #000000; stroke-width: 0.8"/>
      </g>
     </g>
     <g id="text_1">
      <!-- 40 -->
      <g transform="translate(87.602099 329.198438)scale(0.1 -0.1)">
       <defs>
        <path id="DejaVuSans-34" d="M 2419 4116 
L 825 1625 
L 2419 1625 
L 2419 4116 
z
M 2253 4666 
L 3047 4666 
L 3047 1625 
L 3713 1625 
L 3713 1100 
L 3047 1100 
L 3047 0 
L 2419 0 
L 2419 1100 
L 313 1100 
L 313 1709 
L 2253 4666 
z
" transform="scale(0.015625)"/>
        <path id="DejaVuSans-30" d="M 2034 4250 
Q 1547 4250 1301 3770 
Q 1056 3291 1056 2328 
Q 1056 1369 1301 889 
Q 1547 409 2034 409 
Q 2525 409 2770 889 
Q 3016 1369 3016 2328 
Q 3016 3291 2770 3770 
Q 2525 4250 2034 4250 
z
M 2034 4750 
Q 2819 4750 3233 4129 
Q 3647 3509 3647 2328 
Q 3647 1150 3233 529 
Q 2819 -91 2034 -91 
Q 1250 -91 836 529 
Q 422 1150 422 2328 
Q 422 3509 836 4129 
Q 1250 4750 2034 4750 
z
" transform="scale(0.015625)"/>
       </defs>
       <use xlink:href="#DejaVuSans-34"/>
       <use xlink:href="#DejaVuSans-30" x="63.623047"/>
      </g>
     </g>
    </g>
    <g id="xtick_2">
     <g id="line2d_2">
      <g>
       <use xlink:href="#m0166d8171f" x="156.858176" y="314.6" style="stroke: #000000; stroke-width: 0.8"/>
      </g>
     </g>
     <g id="text_2">
      <!-- 60 -->
      <g transform="translate(150.495676 329.198438)scale(0.1 -0.1)">
       <defs>
        <path id="DejaVuSans-36" d="M 2113 2584 
Q 1688 2584 1439 2293 
Q 1191 2003 1191 1497 
Q 1191 994 1439 701 
Q 1688 409 2113 409 
Q 2538 409 2786 701 
Q 3034 994 3034 1497 
Q 3034 2003 2786 2293 
Q 2538 2584 2113 2584 
z
M 3366 4563 
L 3366 3988 
Q 3128 4100 2886 4159 
Q 2644 4219 2406 4219 
Q 1781 4219 1451 3797 
Q 1122 3375 1075 2522 
Q 1259 2794 1537 2939 
Q 1816 3084 2150 3084 
Q 2853 3084 3261 2657 
Q 3669 2231 3669 1497 
Q 3669 778 3244 343 
Q 2819 -91 2113 -91 
Q 1303 -91 875 529 
Q 447 1150 447 2328 
Q 447 3434 972 4092 
Q 1497 4750 2381 4750 
Q 2619 4750 2861 4703 
Q 3103 4656 3366 4563 
z
" transform="scale(0.015625)"/>
       </defs>
       <use xlink:href="#DejaVuSans-36"/>
       <use xlink:href="#DejaVuSans-30" x="63.623047"/>
      </g>
     </g>
    </g>
    <g id="xtick_3">
     <g id="line2d_3">
      <g>
       <use xlink:href="#m0166d8171f" x="219.751754" y="314.6" style="stroke: #000000; stroke-width: 0.8"/>
      </g>
     </g>
     <g id="text_3">
      <!-- 80 -->
      <g transform="translate(213.389254 329.198438)scale(0.1 -0.1)">
       <defs>
        <path id="DejaVuSans-38" d="M 2034 2216 
Q 1584 2216 1326 1975 
Q 1069 1734 1069 1313 
Q 1069 891 1326 650 
Q 1584 409 2034 409 
Q 2484 409 2743 651 
Q 3003 894 3003 1313 
Q 3003 1734 2745 1975 
Q 2488 2216 2034 2216 
z
M 1403 2484 
Q 997 2584 770 2862 
Q 544 3141 544 3541 
Q 544 4100 942 4425 
Q 1341 4750 2034 4750 
Q 2731 4750 3128 4425 
Q 3525 4100 3525 3541 
Q 3525 3141 3298 2862 
Q 3072 2584 2669 2484 
Q 3125 2378 3379 2068 
Q 3634 1759 3634 1313 
Q 3634 634 3220 271 
Q 2806 -91 2034 -91 
Q 1263 -91 848 271 
Q 434 634 434 1313 
Q 434 1759 690 2068 
Q 947 2378 1403 2484 
z
M 1172 3481 
Q 1172 3119 1398 2916 
Q 1625 2713 2034 2713 
Q 2441 2713 2670 2916 
Q 2900 3119 2900 3481 
Q 2900 3844 2670 4047 
Q 2441 4250 2034 4250 
Q 1625 4250 1398 4047 
Q 1172 3844 1172 3481 
z
" transform="scale(0.015625)"/>
       </defs>
       <use xlink:href="#DejaVuSans-38"/>
       <use xlink:href="#DejaVuSans-30" x="63.623047"/>
      </g>
     </g>
    </g>
    <g id="xtick_4">
     <g id="line2d_4">
      <g>
       <use xlink:href="#m0166d8171f" x="282.645332" y="314.6" style="stroke: #000000; stroke-width: 0.8"/>
      </g>
     </g>
     <g id="text_4">
      <!-- 100 -->
      <g transform="translate(273.101582 329.198438)scale(0.1 -0.1)">
       <defs>
        <path id="DejaVuSans-31" d="M 794 531 
L 1825 531 
L 1825 4091 
L 703 3866 
L 703 4441 
L 1819 4666 
L 2450 4666 
L 2450 531 
L 3481 531 
L 3481 0 
L 794 0 
L 794 531 
z
" transform="scale(0.015625)"/>
       </defs>
       <use xlink:href="#DejaVuSans-31"/>
       <use xlink:href="#DejaVuSans-30" x="63.623047"/>
       <use xlink:href="#DejaVuSans-30" x="127.246094"/>
      </g>
     </g>
    </g>
    <g id="xtick_5">
     <g id="line2d_5">
      <g>
       <use xlink:href="#m0166d8171f" x="345.53891" y="314.6" style="stroke: #000000; stroke-width: 0.8"/>
      </g>
     </g>
     <g id="text_5">
      <!-- 120 -->
      <g transform="translate(335.99516 329.198438)scale(0.1 -0.1)">
       <defs>
        <path id="DejaVuSans-32" d="M 1228 531 
L 3431 531 
L 3431 0 
L 469 0 
L 469 531 
Q 828 903 1448 1529 
Q 2069 2156 2228 2338 
Q 2531 2678 2651 2914 
Q 2772 3150 2772 3378 
Q 2772 3750 2511 3984 
Q 2250 4219 1831 4219 
Q 1534 4219 1204 4116 
Q 875 4013 500 3803 
L 500 4441 
Q 881 4594 1212 4672 
Q 1544 4750 1819 4750 
Q 2544 4750 2975 4387 
Q 3406 4025 3406 3419 
Q 3406 3131 3298 2873 
Q 3191 2616 2906 2266 
Q 2828 2175 2409 1742 
Q 1991 1309 1228 531 
z
" transform="scale(0.015625)"/>
       </defs>
       <use xlink:href="#DejaVuSans-31"/>
       <use xlink:href="#DejaVuSans-32" x="63.623047"/>
       <use xlink:href="#DejaVuSans-30" x="127.246094"/>
      </g>
     </g>
    </g>
    <g id="xtick_6">
     <g id="line2d_6">
      <g>
       <use xlink:href="#m0166d8171f" x="408.432488" y="314.6" style="stroke: #000000; stroke-width: 0.8"/>
      </g>
     </g>
     <g id="text_6">
      <!-- 140 -->
      <g transform="translate(398.888738 329.198438)scale(0.1 -0.1)">
       <use xlink:href="#DejaVuSans-31"/>
       <use xlink:href="#DejaVuSans-34" x="63.623047"/>
       <use xlink:href="#DejaVuSans-30" x="127.246094"/>
      </g>
     </g>
    </g>
    <g id="xtick_7">
     <g id="line2d_7">
      <g>
       <use xlink:href="#m0166d8171f" x="471.326066" y="314.6" style="stroke: #000000; stroke-width: 0.8"/>
      </g>
     </g>
     <g id="text_7">
      <!-- 160 -->
      <g transform="translate(461.782316 329.198438)scale(0.1 -0.1)">
       <use xlink:href="#DejaVuSans-31"/>
       <use xlink:href="#DejaVuSans-36" x="63.623047"/>
       <use xlink:href="#DejaVuSans-30" x="127.246094"/>
      </g>
     </g>
    </g>
    <g id="text_8">
     <!-- MW, g/mol -->
     <g transform="translate(259.774219 342.876563)scale(0.1 -0.1)">
      <defs>
       <path id="DejaVuSans-4d" d="M 628 4666 
L 1569 4666 
L 2759 1491 
L 3956 4666 
L 4897 4666 
L 4897 0 
L 4281 0 
L 4281 4097 
L 3078 897 
L 2444 897 
L 1241 4097 
L 1241 0 
L 628 0 
L 628 4666 
z
" transform="scale(0.015625)"/>
       <path id="DejaVuSans-57" d="M 213 4666 
L 850 4666 
L 1831 722 
L 2809 4666 
L 3519 4666 
L 4500 722 
L 5478 4666 
L 6119 4666 
L 4947 0 
L 4153 0 
L 3169 4050 
L 2175 0 
L 1381 0 
L 213 4666 
z
" transform="scale(0.015625)"/>
       <path id="DejaVuSans-2c" d="M 750 794 
L 1409 794 
L 1409 256 
L 897 -744 
L 494 -744 
L 750 256 
L 750 794 
z
" transform="scale(0.015625)"/>
       <path id="DejaVuSans-20" transform="scale(0.015625)"/>
       <path id="DejaVuSans-67" d="M 2906 1791 
Q 2906 2416 2648 2759 
Q 2391 3103 1925 3103 
Q 1463 3103 1205 2759 
Q 947 2416 947 1791 
Q 947 1169 1205 825 
Q 1463 481 1925 481 
Q 2391 481 2648 825 
Q 2906 1169 2906 1791 
z
M 3481 434 
Q 3481 -459 3084 -895 
Q 2688 -1331 1869 -1331 
Q 1566 -1331 1297 -1286 
Q 1028 -1241 775 -1147 
L 775 -588 
Q 1028 -725 1275 -790 
Q 1522 -856 1778 -856 
Q 2344 -856 2625 -561 
Q 2906 -266 2906 331 
L 2906 616 
Q 2728 306 2450 153 
Q 2172 0 1784 0 
Q 1141 0 747 490 
Q 353 981 353 1791 
Q 353 2603 747 3093 
Q 1141 3584 1784 3584 
Q 2172 3584 2450 3431 
Q 2728 3278 2906 2969 
L 2906 3500 
L 3481 3500 
L 3481 434 
z
" transform="scale(0.015625)"/>
       <path id="DejaVuSans-2f" d="M 1625 4666 
L 2156 4666 
L 531 -594 
L 0 -594 
L 1625 4666 
z
" transform="scale(0.015625)"/>
       <path id="DejaVuSans-6d" d="M 3328 2828 
Q 3544 3216 3844 3400 
Q 4144 3584 4550 3584 
Q 5097 3584 5394 3201 
Q 5691 2819 5691 2113 
L 5691 0 
L 5113 0 
L 5113 2094 
Q 5113 2597 4934 2840 
Q 4756 3084 4391 3084 
Q 3944 3084 3684 2787 
Q 3425 2491 3425 1978 
L 3425 0 
L 2847 0 
L 2847 2094 
Q 2847 2600 2669 2842 
Q 2491 3084 2119 3084 
Q 1678 3084 1418 2786 
Q 1159 2488 1159 1978 
L 1159 0 
L 581 0 
L 581 3500 
L 1159 3500 
L 1159 2956 
Q 1356 3278 1631 3431 
Q 1906 3584 2284 3584 
Q 2666 3584 2933 3390 
Q 3200 3197 3328 2828 
z
" transform="scale(0.015625)"/>
       <path id="DejaVuSans-6f" d="M 1959 3097 
Q 1497 3097 1228 2736 
Q 959 2375 959 1747 
Q 959 1119 1226 758 
Q 1494 397 1959 397 
Q 2419 397 2687 759 
Q 2956 1122 2956 1747 
Q 2956 2369 2687 2733 
Q 2419 3097 1959 3097 
z
M 1959 3584 
Q 2709 3584 3137 3096 
Q 3566 2609 3566 1747 
Q 3566 888 3137 398 
Q 2709 -91 1959 -91 
Q 1206 -91 779 398 
Q 353 888 353 1747 
Q 353 2609 779 3096 
Q 1206 3584 1959 3584 
z
" transform="scale(0.015625)"/>
       <path id="DejaVuSans-6c" d="M 603 4863 
L 1178 4863 
L 1178 0 
L 603 0 
L 603 4863 
z
" transform="scale(0.015625)"/>
      </defs>
      <use xlink:href="#DejaVuSans-4d"/>
      <use xlink:href="#DejaVuSans-57" x="86.279297"/>
      <use xlink:href="#DejaVuSans-2c" x="185.15625"/>
      <use xlink:href="#DejaVuSans-20" x="216.943359"/>
      <use xlink:href="#DejaVuSans-67" x="248.730469"/>
      <use xlink:href="#DejaVuSans-2f" x="312.207031"/>
      <use xlink:href="#DejaVuSans-6d" x="345.898438"/>
      <use xlink:href="#DejaVuSans-6f" x="443.310547"/>
      <use xlink:href="#DejaVuSans-6c" x="504.492188"/>
     </g>
    </g>
   </g>
   <g id="matplotlib.axis_2">
    <g id="ytick_1">
     <g id="line2d_8">
      <defs>
       <path id="m5ad3ed6d73" d="M 0 0 
L -3.5 0 
" style="stroke: #000000; stroke-width: 0.8"/>
      </defs>
      <g>
       <use xlink:href="#m5ad3ed6d73" x="47.1875" y="273.031923" style="stroke: #000000; stroke-width: 0.8"/>
      </g>
     </g>
     <g id="text_9">
      <!-- 50 -->
      <g transform="translate(27.4625 276.831141)scale(0.1 -0.1)">
       <defs>
        <path id="DejaVuSans-35" d="M 691 4666 
L 3169 4666 
L 3169 4134 
L 1269 4134 
L 1269 2991 
Q 1406 3038 1543 3061 
Q 1681 3084 1819 3084 
Q 2600 3084 3056 2656 
Q 3513 2228 3513 1497 
Q 3513 744 3044 326 
Q 2575 -91 1722 -91 
Q 1428 -91 1123 -41 
Q 819 9 494 109 
L 494 744 
Q 775 591 1075 516 
Q 1375 441 1709 441 
Q 2250 441 2565 725 
Q 2881 1009 2881 1497 
Q 2881 1984 2565 2268 
Q 2250 2553 1709 2553 
Q 1456 2553 1204 2497 
Q 953 2441 691 2322 
L 691 4666 
z
" transform="scale(0.015625)"/>
       </defs>
       <use xlink:href="#DejaVuSans-35"/>
       <use xlink:href="#DejaVuSans-30" x="63.623047"/>
      </g>
     </g>
    </g>
    <g id="ytick_2">
     <g id="line2d_9">
      <g>
       <use xlink:href="#m5ad3ed6d73" x="47.1875" y="210.315218" style="stroke: #000000; stroke-width: 0.8"/>
      </g>
     </g>
     <g id="text_10">
      <!-- 100 -->
      <g transform="translate(21.1 214.114437)scale(0.1 -0.1)">
       <use xlink:href="#DejaVuSans-31"/>
       <use xlink:href="#DejaVuSans-30" x="63.623047"/>
       <use xlink:href="#DejaVuSans-30" x="127.246094"/>
      </g>
     </g>
    </g>
    <g id="ytick_3">
     <g id="line2d_10">
      <g>
       <use xlink:href="#m5ad3ed6d73" x="47.1875" y="147.598514" style="stroke: #000000; stroke-width: 0.8"/>
      </g>
     </g>
     <g id="text_11">
      <!-- 150 -->
      <g transform="translate(21.1 151.397732)scale(0.1 -0.1)">
       <use xlink:href="#DejaVuSans-31"/>
       <use xlink:href="#DejaVuSans-35" x="63.623047"/>
       <use xlink:href="#DejaVuSans-30" x="127.246094"/>
      </g>
     </g>
    </g>
    <g id="ytick_4">
     <g id="line2d_11">
      <g>
       <use xlink:href="#m5ad3ed6d73" x="47.1875" y="84.881809" style="stroke: #000000; stroke-width: 0.8"/>
      </g>
     </g>
     <g id="text_12">
      <!-- 200 -->
      <g transform="translate(21.1 88.681028)scale(0.1 -0.1)">
       <use xlink:href="#DejaVuSans-32"/>
       <use xlink:href="#DejaVuSans-30" x="63.623047"/>
       <use xlink:href="#DejaVuSans-30" x="127.246094"/>
      </g>
     </g>
    </g>
    <g id="ytick_5">
     <g id="line2d_12">
      <g>
       <use xlink:href="#m5ad3ed6d73" x="47.1875" y="22.165105" style="stroke: #000000; stroke-width: 0.8"/>
      </g>
     </g>
     <g id="text_13">
      <!-- 250 -->
      <g transform="translate(21.1 25.964323)scale(0.1 -0.1)">
       <use xlink:href="#DejaVuSans-32"/>
       <use xlink:href="#DejaVuSans-35" x="63.623047"/>
       <use xlink:href="#DejaVuSans-30" x="127.246094"/>
      </g>
     </g>
    </g>
    <g id="text_14">
     <!-- bp, $^o$C -->
     <g transform="translate(15 176.25)rotate(-90)scale(0.1 -0.1)">
      <defs>
       <path id="DejaVuSans-62" d="M 3116 1747 
Q 3116 2381 2855 2742 
Q 2594 3103 2138 3103 
Q 1681 3103 1420 2742 
Q 1159 2381 1159 1747 
Q 1159 1113 1420 752 
Q 1681 391 2138 391 
Q 2594 391 2855 752 
Q 3116 1113 3116 1747 
z
M 1159 2969 
Q 1341 3281 1617 3432 
Q 1894 3584 2278 3584 
Q 2916 3584 3314 3078 
Q 3713 2572 3713 1747 
Q 3713 922 3314 415 
Q 2916 -91 2278 -91 
Q 1894 -91 1617 61 
Q 1341 213 1159 525 
L 1159 0 
L 581 0 
L 581 4863 
L 1159 4863 
L 1159 2969 
z
" transform="scale(0.015625)"/>
       <path id="DejaVuSans-70" d="M 1159 525 
L 1159 -1331 
L 581 -1331 
L 581 3500 
L 1159 3500 
L 1159 2969 
Q 1341 3281 1617 3432 
Q 1894 3584 2278 3584 
Q 2916 3584 3314 3078 
Q 3713 2572 3713 1747 
Q 3713 922 3314 415 
Q 2916 -91 2278 -91 
Q 1894 -91 1617 61 
Q 1341 213 1159 525 
z
M 3116 1747 
Q 3116 2381 2855 2742 
Q 2594 3103 2138 3103 
Q 1681 3103 1420 2742 
Q 1159 2381 1159 1747 
Q 1159 1113 1420 752 
Q 1681 391 2138 391 
Q 2594 391 2855 752 
Q 3116 1113 3116 1747 
z
" transform="scale(0.015625)"/>
       <path id="DejaVuSans-Oblique-6f" d="M 1625 -91 
Q 1009 -91 651 289 
Q 294 669 294 1325 
Q 294 1706 417 2101 
Q 541 2497 738 2766 
Q 1047 3184 1428 3384 
Q 1809 3584 2291 3584 
Q 2888 3584 3255 3212 
Q 3622 2841 3622 2241 
Q 3622 1825 3500 1412 
Q 3378 1000 3181 728 
Q 2875 309 2494 109 
Q 2113 -91 1625 -91 
z
M 891 1344 
Q 891 869 1089 633 
Q 1288 397 1691 397 
Q 2269 397 2648 901 
Q 3028 1406 3028 2181 
Q 3028 2634 2825 2865 
Q 2622 3097 2228 3097 
Q 1903 3097 1650 2945 
Q 1397 2794 1197 2484 
Q 1050 2253 970 1956 
Q 891 1659 891 1344 
z
" transform="scale(0.015625)"/>
       <path id="DejaVuSans-43" d="M 4122 4306 
L 4122 3641 
Q 3803 3938 3442 4084 
Q 3081 4231 2675 4231 
Q 1875 4231 1450 3742 
Q 1025 3253 1025 2328 
Q 1025 1406 1450 917 
Q 1875 428 2675 428 
Q 3081 428 3442 575 
Q 3803 722 4122 1019 
L 4122 359 
Q 3791 134 3420 21 
Q 3050 -91 2638 -91 
Q 1578 -91 968 557 
Q 359 1206 359 2328 
Q 359 3453 968 4101 
Q 1578 4750 2638 4750 
Q 3056 4750 3426 4639 
Q 3797 4528 4122 4306 
z
" transform="scale(0.015625)"/>
      </defs>
      <use xlink:href="#DejaVuSans-62" transform="translate(0 0.51875)"/>
      <use xlink:href="#DejaVuSans-70" transform="translate(63.476562 0.51875)"/>
      <use xlink:href="#DejaVuSans-2c" transform="translate(126.953125 0.51875)"/>
      <use xlink:href="#DejaVuSans-20" transform="translate(158.740234 0.51875)"/>
      <use xlink:href="#DejaVuSans-Oblique-6f" transform="translate(191.484375 38.8)scale(0.7)"/>
      <use xlink:href="#DejaVuSans-43" transform="translate(237.045898 0.51875)"/>
     </g>
    </g>
   </g>
   <g id="line2d_13">
    <path d="M 68.932955 264.866763 
L 72.942897 262.602214 
L 76.952839 260.337666 
L 80.962781 258.073117 
L 84.972723 255.808569 
L 88.982665 253.544021 
L 92.992607 251.279472 
L 97.002549 249.014924 
L 101.012491 246.750375 
L 105.022433 244.485827 
L 109.032375 242.221279 
L 113.042317 239.95673 
L 117.052259 237.692182 
L 121.062201 235.427633 
L 125.072143 233.163085 
L 129.082085 230.898537 
L 133.092027 228.633988 
L 137.101969 226.36944 
L 141.111912 224.104891 
L 145.121854 221.840343 
L 149.131796 219.575795 
L 153.141738 217.311246 
L 157.15168 215.046698 
L 161.161622 212.78215 
L 165.171564 210.517601 
L 169.181506 208.253053 
L 173.191448 205.988504 
L 177.20139 203.723956 
L 181.211332 201.459408 
L 185.221274 199.194859 
L 189.231216 196.930311 
L 193.241158 194.665762 
L 197.2511 192.401214 
L 201.261042 190.136666 
L 205.270984 187.872117 
L 209.280926 185.607569 
L 213.290869 183.34302 
L 217.300811 181.078472 
L 221.310753 178.813924 
L 225.320695 176.549375 
L 229.330637 174.284827 
L 233.340579 172.020279 
L 237.350521 169.75573 
L 241.360463 167.491182 
L 245.370405 165.226633 
L 249.380347 162.962085 
L 253.390289 160.697537 
L 257.400231 158.432988 
L 261.410173 156.16844 
L 265.420115 153.903891 
L 269.430057 151.639343 
L 273.439999 149.374795 
L 277.449941 147.110246 
L 281.459883 144.845698 
L 285.469826 142.581149 
L 289.479768 140.316601 
L 293.48971 138.052053 
L 297.499652 135.787504 
L 301.509594 133.522956 
L 305.519536 131.258408 
L 309.529478 128.993859 
L 313.53942 126.729311 
L 317.549362 124.464762 
L 321.559304 122.200214 
L 325.569246 119.935666 
L 329.579188 117.671117 
L 333.58913 115.406569 
L 337.599072 113.14202 
L 341.609014 110.877472 
L 345.618956 108.612924 
L 349.628898 106.348375 
L 353.63884 104.083827 
L 357.648783 101.819278 
L 361.658725 99.55473 
L 365.668667 97.290182 
L 369.678609 95.025633 
L 373.688551 92.761085 
L 377.698493 90.496536 
L 381.708435 88.231988 
L 385.718377 85.96744 
L 389.728319 83.702891 
L 393.738261 81.438343 
L 397.748203 79.173795 
L 401.758145 76.909246 
L 405.768087 74.644698 
L 409.778029 72.380149 
L 413.787971 70.115601 
L 417.797913 67.851053 
L 421.807855 65.586504 
L 425.817797 63.321956 
L 429.82774 61.057407 
L 433.837682 58.792859 
L 437.847624 56.528311 
L 441.857566 54.263762 
L 445.867508 51.999214 
L 449.87745 49.734665 
L 453.887392 47.470117 
L 457.897334 45.205569 
L 461.907276 42.94102 
L 465.917218 40.676472 
" clip-path="url(#pbc8f6256cf)" style="fill: none; stroke: #1f77b4; stroke-width: 2.25; stroke-linecap: square"/>
   </g>
   <g id="line2d_14">
    <path d="M 195.066025 289.296786 
L 198.184975 286.924137 
L 201.303924 284.551488 
L 204.422874 282.178839 
L 207.541824 279.80619 
L 210.660773 277.433541 
L 213.779723 275.060892 
L 216.898673 272.688243 
L 220.017623 270.315593 
L 223.136572 267.942944 
L 226.255522 265.570295 
L 229.374472 263.197646 
L 232.493421 260.824997 
L 235.612371 258.452348 
L 238.731321 256.079699 
L 241.85027 253.70705 
L 244.96922 251.334401 
L 248.08817 248.961752 
L 251.20712 246.589103 
L 254.326069 244.216454 
L 257.445019 241.843805 
L 260.563969 239.471156 
L 263.682918 237.098506 
L 266.801868 234.725857 
L 269.920818 232.353208 
L 273.039767 229.980559 
L 276.158717 227.60791 
L 279.277667 225.235261 
L 282.396617 222.862612 
L 285.515566 220.489963 
L 288.634516 218.117314 
L 291.753466 215.744665 
L 294.872415 213.372016 
L 297.991365 210.999367 
L 301.110315 208.626718 
L 304.229265 206.254068 
L 307.348214 203.881419 
L 310.467164 201.50877 
L 313.586114 199.136121 
L 316.705063 196.763472 
L 319.824013 194.390823 
L 322.942963 192.018174 
L 326.061912 189.645525 
L 329.180862 187.272876 
L 332.299812 184.900227 
L 335.418762 182.527578 
L 338.537711 180.154929 
L 341.656661 177.78228 
L 344.775611 175.40963 
L 347.89456 173.036981 
L 351.01351 170.664332 
L 354.13246 168.291683 
L 357.251409 165.919034 
L 360.370359 163.546385 
L 363.489309 161.173736 
L 366.608259 158.801087 
L 369.727208 156.428438 
L 372.846158 154.055789 
L 375.965108 151.68314 
L 379.084057 149.310491 
L 382.203007 146.937842 
L 385.321957 144.565192 
L 388.440906 142.192543 
L 391.559856 139.819894 
L 394.678806 137.447245 
L 397.797756 135.074596 
L 400.916705 132.701947 
L 404.035655 130.329298 
L 407.154605 127.956649 
L 410.273554 125.584 
L 413.392504 123.211351 
L 416.511454 120.838702 
L 419.630403 118.466053 
L 422.749353 116.093404 
L 425.868303 113.720754 
L 428.987253 111.348105 
L 432.106202 108.975456 
L 435.225152 106.602807 
L 438.344102 104.230158 
L 441.463051 101.857509 
L 444.582001 99.48486 
L 447.700951 97.112211 
L 450.819901 94.739562 
L 453.93885 92.366913 
L 457.0578 89.994264 
L 460.17675 87.621615 
L 463.295699 85.248966 
L 466.414649 82.876317 
L 469.533599 80.503667 
L 472.652548 78.131018 
L 475.771498 75.758369 
L 478.890448 73.38572 
L 482.009398 71.013071 
L 485.128347 68.640422 
L 488.247297 66.267773 
L 491.366247 63.895124 
L 494.485196 61.522475 
L 497.604146 59.149826 
L 500.723096 56.777177 
L 503.842045 54.404528 
" clip-path="url(#pbc8f6256cf)" style="fill: none; stroke: #ff7f0e; stroke-width: 2.25; stroke-linecap: square"/>
   </g>
   <g id="patch_3">
    <path d="M 47.1875 314.6 
L 47.1875 7.2 
" style="fill: none; stroke: #000000; stroke-width: 0.8; stroke-linejoin: miter; stroke-linecap: square"/>
   </g>
   <g id="patch_4">
    <path d="M 47.1875 314.6 
L 525.5875 314.6 
" style="fill: none; stroke: #000000; stroke-width: 0.8; stroke-linejoin: miter; stroke-linecap: square"/>
   </g>
   <g id="legend_1">
    <g id="patch_5">
     <path d="M 54.1875 59.234375 
L 121.945312 59.234375 
Q 123.945312 59.234375 123.945312 57.234375 
L 123.945312 14.2 
Q 123.945312 12.2 121.945312 12.2 
L 54.1875 12.2 
Q 52.1875 12.2 52.1875 14.2 
L 52.1875 57.234375 
Q 52.1875 59.234375 54.1875 59.234375 
z
" style="fill: #ffffff; opacity: 0.8; stroke: #cccccc; stroke-linejoin: miter"/>
    </g>
    <g id="text_15">
     <!-- type -->
     <g transform="translate(76.896094 23.798438)scale(0.1 -0.1)">
      <defs>
       <path id="DejaVuSans-74" d="M 1172 4494 
L 1172 3500 
L 2356 3500 
L 2356 3053 
L 1172 3053 
L 1172 1153 
Q 1172 725 1289 603 
Q 1406 481 1766 481 
L 2356 481 
L 2356 0 
L 1766 0 
Q 1100 0 847 248 
Q 594 497 594 1153 
L 594 3053 
L 172 3053 
L 172 3500 
L 594 3500 
L 594 4494 
L 1172 4494 
z
" transform="scale(0.015625)"/>
       <path id="DejaVuSans-79" d="M 2059 -325 
Q 1816 -950 1584 -1140 
Q 1353 -1331 966 -1331 
L 506 -1331 
L 506 -850 
L 844 -850 
Q 1081 -850 1212 -737 
Q 1344 -625 1503 -206 
L 1606 56 
L 191 3500 
L 800 3500 
L 1894 763 
L 2988 3500 
L 3597 3500 
L 2059 -325 
z
" transform="scale(0.015625)"/>
       <path id="DejaVuSans-65" d="M 3597 1894 
L 3597 1613 
L 953 1613 
Q 991 1019 1311 708 
Q 1631 397 2203 397 
Q 2534 397 2845 478 
Q 3156 559 3463 722 
L 3463 178 
Q 3153 47 2828 -22 
Q 2503 -91 2169 -91 
Q 1331 -91 842 396 
Q 353 884 353 1716 
Q 353 2575 817 3079 
Q 1281 3584 2069 3584 
Q 2775 3584 3186 3129 
Q 3597 2675 3597 1894 
z
M 3022 2063 
Q 3016 2534 2758 2815 
Q 2500 3097 2075 3097 
Q 1594 3097 1305 2825 
Q 1016 2553 972 2059 
L 3022 2063 
z
" transform="scale(0.015625)"/>
      </defs>
      <use xlink:href="#DejaVuSans-74"/>
      <use xlink:href="#DejaVuSans-79" x="39.208984"/>
      <use xlink:href="#DejaVuSans-70" x="98.388672"/>
      <use xlink:href="#DejaVuSans-65" x="161.865234"/>
     </g>
    </g>
    <g id="PathCollection_3">
     <g>
      <use xlink:href="#m3152d53987" x="66.1875" y="35.851563" style="fill: #1f77b4; fill-opacity: 0.8; stroke: #1f77b4; stroke-opacity: 0.8"/>
     </g>
    </g>
    <g id="text_16">
     <!-- alcohol -->
     <g transform="translate(84.1875 38.476563)scale(0.1 -0.1)">
      <defs>
       <path id="DejaVuSans-61" d="M 2194 1759 
Q 1497 1759 1228 1600 
Q 959 1441 959 1056 
Q 959 750 1161 570 
Q 1363 391 1709 391 
Q 2188 391 2477 730 
Q 2766 1069 2766 1631 
L 2766 1759 
L 2194 1759 
z
M 3341 1997 
L 3341 0 
L 2766 0 
L 2766 531 
Q 2569 213 2275 61 
Q 1981 -91 1556 -91 
Q 1019 -91 701 211 
Q 384 513 384 1019 
Q 384 1609 779 1909 
Q 1175 2209 1959 2209 
L 2766 2209 
L 2766 2266 
Q 2766 2663 2505 2880 
Q 2244 3097 1772 3097 
Q 1472 3097 1187 3025 
Q 903 2953 641 2809 
L 641 3341 
Q 956 3463 1253 3523 
Q 1550 3584 1831 3584 
Q 2591 3584 2966 3190 
Q 3341 2797 3341 1997 
z
" transform="scale(0.015625)"/>
       <path id="DejaVuSans-63" d="M 3122 3366 
L 3122 2828 
Q 2878 2963 2633 3030 
Q 2388 3097 2138 3097 
Q 1578 3097 1268 2742 
Q 959 2388 959 1747 
Q 959 1106 1268 751 
Q 1578 397 2138 397 
Q 2388 397 2633 464 
Q 2878 531 3122 666 
L 3122 134 
Q 2881 22 2623 -34 
Q 2366 -91 2075 -91 
Q 1284 -91 818 406 
Q 353 903 353 1747 
Q 353 2603 823 3093 
Q 1294 3584 2113 3584 
Q 2378 3584 2631 3529 
Q 2884 3475 3122 3366 
z
" transform="scale(0.015625)"/>
       <path id="DejaVuSans-68" d="M 3513 2113 
L 3513 0 
L 2938 0 
L 2938 2094 
Q 2938 2591 2744 2837 
Q 2550 3084 2163 3084 
Q 1697 3084 1428 2787 
Q 1159 2491 1159 1978 
L 1159 0 
L 581 0 
L 581 4863 
L 1159 4863 
L 1159 2956 
Q 1366 3272 1645 3428 
Q 1925 3584 2291 3584 
Q 2894 3584 3203 3211 
Q 3513 2838 3513 2113 
z
" transform="scale(0.015625)"/>
      </defs>
      <use xlink:href="#DejaVuSans-61"/>
      <use xlink:href="#DejaVuSans-6c" x="61.279297"/>
      <use xlink:href="#DejaVuSans-63" x="89.0625"/>
      <use xlink:href="#DejaVuSans-6f" x="144.042969"/>
      <use xlink:href="#DejaVuSans-68" x="205.224609"/>
      <use xlink:href="#DejaVuSans-6f" x="268.603516"/>
      <use xlink:href="#DejaVuSans-6c" x="329.785156"/>
     </g>
    </g>
    <g id="PathCollection_4">
     <g>
      <use xlink:href="#m97da571caf" x="66.1875" y="50.529688" style="fill: #ff7f0e; fill-opacity: 0.8; stroke: #ff7f0e; stroke-opacity: 0.8"/>
     </g>
    </g>
    <g id="text_17">
     <!-- alkane -->
     <g transform="translate(84.1875 53.154688)scale(0.1 -0.1)">
      <defs>
       <path id="DejaVuSans-6b" d="M 581 4863 
L 1159 4863 
L 1159 1991 
L 2875 3500 
L 3609 3500 
L 1753 1863 
L 3688 0 
L 2938 0 
L 1159 1709 
L 1159 0 
L 581 0 
L 581 4863 
z
" transform="scale(0.015625)"/>
       <path id="DejaVuSans-6e" d="M 3513 2113 
L 3513 0 
L 2938 0 
L 2938 2094 
Q 2938 2591 2744 2837 
Q 2550 3084 2163 3084 
Q 1697 3084 1428 2787 
Q 1159 2491 1159 1978 
L 1159 0 
L 581 0 
L 581 3500 
L 1159 3500 
L 1159 2956 
Q 1366 3272 1645 3428 
Q 1925 3584 2291 3584 
Q 2894 3584 3203 3211 
Q 3513 2838 3513 2113 
z
" transform="scale(0.015625)"/>
      </defs>
      <use xlink:href="#DejaVuSans-61"/>
      <use xlink:href="#DejaVuSans-6c" x="61.279297"/>
      <use xlink:href="#DejaVuSans-6b" x="89.0625"/>
      <use xlink:href="#DejaVuSans-61" x="145.222656"/>
      <use xlink:href="#DejaVuSans-6e" x="206.501953"/>
      <use xlink:href="#DejaVuSans-65" x="269.880859"/>
     </g>
    </g>
   </g>
  </g>
 </g>
 <defs>
  <clipPath id="pbc8f6256cf">
   <rect x="47.1875" y="7.2" width="478.4" height="307.4"/>
  </clipPath>
 </defs>
</svg>
