<?xml version="1.0" encoding="utf-8" standalone="no"?>
<!DOCTYPE svg PUBLIC "-//W3C//DTD SVG 1.1//EN"
  "http://www.w3.org/Graphics/SVG/1.1/DTD/svg11.dtd">
<svg xmlns:xlink="http://www.w3.org/1999/xlink" width="411.285625pt" height="310.86825pt" viewBox="0 0 411.285625 310.86825" xmlns="http://www.w3.org/2000/svg" version="1.1">
 <metadata>
  <rdf:RDF xmlns:dc="http://purl.org/dc/elements/1.1/" xmlns:cc="http://creativecommons.org/ns#" xmlns:rdf="http://www.w3.org/1999/02/22-rdf-syntax-ns#">
   <cc:Work>
    <dc:type rdf:resource="http://purl.org/dc/dcmitype/StillImage"/>
    <dc:date>2023-04-12T19:08:52.910254</dc:date>
    <dc:format>image/svg+xml</dc:format>
    <dc:creator>
     <cc:Agent>
      <dc:title>Matplotlib v3.7.1, https://matplotlib.org/</dc:title>
     </cc:Agent>
    </dc:creator>
   </cc:Work>
  </rdf:RDF>
 </metadata>
 <defs>
  <style type="text/css">*{stroke-linejoin: round; stroke-linecap: butt}</style>
 </defs>
 <g id="figure_1">
  <g id="patch_1">
   <path d="M 0 310.86825 
L 411.285625 310.86825 
L 411.285625 0 
L 0 0 
z
" style="fill: #ffffff"/>
  </g>
  <g id="axes_1">
   <g id="patch_2">
    <path d="M 46.965625 273.312 
L 404.085625 273.312 
L 404.085625 7.2 
L 46.965625 7.2 
z
" style="fill: #ffffff"/>
   </g>
   <g id="PathCollection_1">
    <defs>
     <path id="m5046dd702f" d="M 0 3 
C 0.795609 3 1.55874 2.683901 2.12132 2.12132 
C 2.683901 1.55874 3 0.795609 3 0 
C 3 -0.795609 2.683901 -1.55874 2.12132 -2.12132 
C 1.55874 -2.683901 0.795609 -3 0 -3 
C -0.795609 -3 -1.55874 -2.683901 -2.12132 -2.12132 
C -2.683901 -1.55874 -3 -0.795609 -3 0 
C -3 0.795609 -2.683901 1.55874 -2.12132 2.12132 
C -1.55874 2.683901 -0.795609 3 0 3 
z
" style="stroke: #1f77b4; stroke-opacity: 0.8"/>
    </defs>
    <g clip-path="url(#pcfc18e75be)">
     <use xlink:href="#m5046dd702f" x="63.198352" y="199.193808" style="fill: #1f77b4; fill-opacity: 0.8; stroke: #1f77b4; stroke-opacity: 0.8"/>
     <use xlink:href="#m5046dd702f" x="96.1333" y="186.844002" style="fill: #1f77b4; fill-opacity: 0.8; stroke: #1f77b4; stroke-opacity: 0.8"/>
     <use xlink:href="#m5046dd702f" x="129.068248" y="167.844301" style="fill: #1f77b4; fill-opacity: 0.8; stroke: #1f77b4; stroke-opacity: 0.8"/>
     <use xlink:href="#m5046dd702f" x="161.979721" y="148.844599" style="fill: #1f77b4; fill-opacity: 0.8; stroke: #1f77b4; stroke-opacity: 0.8"/>
     <use xlink:href="#m5046dd702f" x="194.914669" y="128.894912" style="fill: #1f77b4; fill-opacity: 0.8; stroke: #1f77b4; stroke-opacity: 0.8"/>
     <use xlink:href="#m5046dd702f" x="227.849616" y="111.795181" style="fill: #1f77b4; fill-opacity: 0.8; stroke: #1f77b4; stroke-opacity: 0.8"/>
     <use xlink:href="#m5046dd702f" x="260.761089" y="93.745464" style="fill: #1f77b4; fill-opacity: 0.8; stroke: #1f77b4; stroke-opacity: 0.8"/>
     <use xlink:href="#m5046dd702f" x="293.696037" y="75.695748" style="fill: #1f77b4; fill-opacity: 0.8; stroke: #1f77b4; stroke-opacity: 0.8"/>
     <use xlink:href="#m5046dd702f" x="326.60751" y="59.546001" style="fill: #1f77b4; fill-opacity: 0.8; stroke: #1f77b4; stroke-opacity: 0.8"/>
     <use xlink:href="#m5046dd702f" x="359.542458" y="40.5463" style="fill: #1f77b4; fill-opacity: 0.8; stroke: #1f77b4; stroke-opacity: 0.8"/>
     <use xlink:href="#m5046dd702f" x="157.355213" y="226.743376" style="fill: #1f77b4; fill-opacity: 0.8; stroke: #1f77b4; stroke-opacity: 0.8"/>
     <use xlink:href="#m5046dd702f" x="190.290161" y="195.393868" style="fill: #1f77b4; fill-opacity: 0.8; stroke: #1f77b4; stroke-opacity: 0.8"/>
     <use xlink:href="#m5046dd702f" x="223.225108" y="167.844301" style="fill: #1f77b4; fill-opacity: 0.8; stroke: #1f77b4; stroke-opacity: 0.8"/>
     <use xlink:href="#m5046dd702f" x="256.136581" y="141.244718" style="fill: #1f77b4; fill-opacity: 0.8; stroke: #1f77b4; stroke-opacity: 0.8"/>
     <use xlink:href="#m5046dd702f" x="289.071529" y="117.495091" style="fill: #1f77b4; fill-opacity: 0.8; stroke: #1f77b4; stroke-opacity: 0.8"/>
     <use xlink:href="#m5046dd702f" x="322.006477" y="95.645434" style="fill: #1f77b4; fill-opacity: 0.8; stroke: #1f77b4; stroke-opacity: 0.8"/>
     <use xlink:href="#m5046dd702f" x="354.91795" y="74.745763" style="fill: #1f77b4; fill-opacity: 0.8; stroke: #1f77b4; stroke-opacity: 0.8"/>
     <use xlink:href="#m5046dd702f" x="387.852898" y="55.746061" style="fill: #1f77b4; fill-opacity: 0.8; stroke: #1f77b4; stroke-opacity: 0.8"/>
     <use xlink:href="#m5046dd702f" x="190.290161" y="201.093778" style="fill: #1f77b4; fill-opacity: 0.8; stroke: #1f77b4; stroke-opacity: 0.8"/>
     <use xlink:href="#m5046dd702f" x="256.136581" y="149.794584" style="fill: #1f77b4; fill-opacity: 0.8; stroke: #1f77b4; stroke-opacity: 0.8"/>
     <use xlink:href="#m5046dd702f" x="157.355213" y="234.343256" style="fill: #1f77b4; fill-opacity: 0.8; stroke: #1f77b4; stroke-opacity: 0.8"/>
     <use xlink:href="#m5046dd702f" x="223.225108" y="184.944032" style="fill: #1f77b4; fill-opacity: 0.8; stroke: #1f77b4; stroke-opacity: 0.8"/>
     <use xlink:href="#m5046dd702f" x="161.979721" y="158.34445" style="fill: #1f77b4; fill-opacity: 0.8; stroke: #1f77b4; stroke-opacity: 0.8"/>
     <use xlink:href="#m5046dd702f" x="161.979721" y="182.094077" style="fill: #1f77b4; fill-opacity: 0.8; stroke: #1f77b4; stroke-opacity: 0.8"/>
     <use xlink:href="#m5046dd702f" x="194.914669" y="136.494793" style="fill: #1f77b4; fill-opacity: 0.8; stroke: #1f77b4; stroke-opacity: 0.8"/>
     <use xlink:href="#m5046dd702f" x="227.849616" y="132.694853" style="fill: #1f77b4; fill-opacity: 0.8; stroke: #1f77b4; stroke-opacity: 0.8"/>
     <use xlink:href="#m5046dd702f" x="260.761089" y="127.944927" style="fill: #1f77b4; fill-opacity: 0.8; stroke: #1f77b4; stroke-opacity: 0.8"/>
     <use xlink:href="#m5046dd702f" x="208.905566" y="88.045554" style="fill: #1f77b4; fill-opacity: 0.8; stroke: #1f77b4; stroke-opacity: 0.8"/>
     <use xlink:href="#m5046dd702f" x="241.840514" y="69.045852" style="fill: #1f77b4; fill-opacity: 0.8; stroke: #1f77b4; stroke-opacity: 0.8"/>
     <use xlink:href="#m5046dd702f" x="307.686934" y="51.946121" style="fill: #1f77b4; fill-opacity: 0.8; stroke: #1f77b4; stroke-opacity: 0.8"/>
    </g>
   </g>
   <g id="PolyCollection_1">
    <path d="M 63.198352 206.058307 
L 63.198352 261.216 
L 66.477691 258.823067 
L 69.75703 256.430133 
L 73.036369 254.0372 
L 76.315708 251.644266 
L 79.595046 249.247683 
L 82.874385 246.848627 
L 86.153724 244.449571 
L 89.433063 242.139717 
L 92.712402 239.872534 
L 95.991741 237.466378 
L 99.27108 234.935009 
L 102.550418 232.646968 
L 105.829757 230.361214 
L 109.109096 227.865948 
L 112.388435 225.282871 
L 115.667774 222.890319 
L 118.947113 220.497766 
L 122.226451 218.105214 
L 125.50579 215.712661 
L 128.785129 213.315352 
L 132.064468 210.917769 
L 135.343807 208.520186 
L 138.623146 206.291944 
L 141.902485 204.11937 
L 145.181823 201.79157 
L 148.461162 199.507296 
L 151.740501 197.278673 
L 155.01984 195.024365 
L 158.299179 192.51346 
L 161.578518 190.20344 
L 164.857856 187.977873 
L 168.137195 185.763746 
L 171.416534 183.549618 
L 174.695873 181.335491 
L 177.975212 179.181514 
L 181.254551 176.903512 
L 184.533889 174.827667 
L 187.813228 172.608262 
L 191.092567 170.401541 
L 194.371906 168.332578 
L 197.651245 165.883287 
L 200.930584 163.712045 
L 204.209923 161.421704 
L 207.489261 159.205862 
L 210.7686 156.98365 
L 214.047939 154.832111 
L 217.327278 152.702429 
L 220.606617 150.533941 
L 223.885956 148.394168 
L 227.165294 146.250711 
L 230.444633 144.221867 
L 233.723972 142.276416 
L 237.003311 140.398554 
L 240.28265 138.33316 
L 243.561989 136.678362 
L 246.841327 134.894833 
L 250.120666 132.89769 
L 253.400005 130.833756 
L 256.679344 128.922313 
L 259.958683 127.30317 
L 263.238022 125.415568 
L 266.517361 123.759982 
L 269.796699 121.724021 
L 273.076038 119.696829 
L 276.355377 117.893171 
L 279.634716 116.123557 
L 282.914055 114.424181 
L 286.193394 112.761729 
L 289.472732 110.997016 
L 292.752071 109.38442 
L 296.03141 107.714146 
L 299.310749 105.876976 
L 302.590088 104.196717 
L 305.869427 102.573518 
L 309.148765 100.829446 
L 312.428104 99.201988 
L 315.707443 97.660848 
L 318.986782 96.180052 
L 322.266121 94.492545 
L 325.54546 92.733952 
L 328.824799 91.223961 
L 332.104137 89.71397 
L 335.383476 88.205212 
L 338.662815 86.698714 
L 341.942154 85.065636 
L 345.221493 83.446328 
L 348.500832 81.930019 
L 351.78017 80.45828 
L 355.059509 78.986542 
L 358.338848 77.514804 
L 361.618187 75.978173 
L 364.897526 74.570564 
L 368.176865 73.092269 
L 371.456204 71.613749 
L 374.735542 70.112099 
L 378.014881 68.605095 
L 381.29422 67.05622 
L 384.573559 65.382769 
L 387.852898 63.709318 
L 387.852898 19.296 
L 387.852898 19.296 
L 384.573559 21.492362 
L 381.29422 23.688724 
L 378.014881 25.890954 
L 374.735542 28.26111 
L 371.456204 30.733488 
L 368.176865 33.205866 
L 364.897526 35.678244 
L 361.618187 38.150622 
L 358.338848 40.499824 
L 355.059509 42.723159 
L 351.78017 44.946495 
L 348.500832 47.169831 
L 345.221493 49.39719 
L 341.942154 51.987358 
L 338.662815 54.207441 
L 335.383476 56.326223 
L 332.104137 58.637134 
L 328.824799 60.87759 
L 325.54546 63.064103 
L 322.266121 65.273393 
L 318.986782 67.489293 
L 315.707443 69.706015 
L 312.428104 71.891046 
L 309.148765 74.1278 
L 305.869427 76.340434 
L 302.590088 78.555456 
L 299.310749 80.769449 
L 296.03141 82.982016 
L 292.752071 85.161472 
L 289.472732 87.40773 
L 286.193394 89.60865 
L 282.914055 91.545208 
L 279.634716 93.609177 
L 276.355377 95.535918 
L 273.076038 97.460603 
L 269.796699 99.449748 
L 266.517361 101.41507 
L 263.238022 103.237772 
L 259.958683 105.162205 
L 256.679344 107.227752 
L 253.400005 109.014413 
L 250.120666 110.937439 
L 246.841327 112.606056 
L 243.561989 114.405919 
L 240.28265 116.335869 
L 237.003311 118.367798 
L 233.723972 120.278035 
L 230.444633 121.969201 
L 227.165294 123.768568 
L 223.885956 125.567152 
L 220.606617 127.328711 
L 217.327278 129.021122 
L 214.047939 130.748059 
L 210.7686 132.766131 
L 207.489261 134.483763 
L 204.209923 136.228922 
L 200.930584 137.889824 
L 197.651245 139.724286 
L 194.371906 141.387903 
L 191.092567 143.165278 
L 187.813228 144.961427 
L 184.533889 146.856649 
L 181.254551 148.61652 
L 177.975212 150.299752 
L 174.695873 151.976412 
L 171.416534 153.56808 
L 168.137195 155.168882 
L 164.857856 156.889424 
L 161.578518 158.563549 
L 158.299179 160.17896 
L 155.01984 161.798535 
L 151.740501 163.426203 
L 148.461162 165.125539 
L 145.181823 166.780309 
L 141.902485 168.430224 
L 138.623146 170.13326 
L 135.343807 171.761639 
L 132.064468 173.379333 
L 128.785129 174.903716 
L 125.50579 176.499389 
L 122.226451 178.053685 
L 118.947113 179.742178 
L 115.667774 181.382601 
L 112.388435 182.992011 
L 109.109096 184.626502 
L 105.829757 186.403739 
L 102.550418 187.979222 
L 99.27108 189.474099 
L 95.991741 191.025501 
L 92.712402 192.620973 
L 89.433063 194.210721 
L 86.153724 195.714833 
L 82.874385 197.191043 
L 79.595046 198.667253 
L 76.315708 200.143463 
L 73.036369 201.619673 
L 69.75703 203.098346 
L 66.477691 204.578061 
L 63.198352 206.058307 
z
" clip-path="url(#pcfc18e75be)" style="fill: #1f77b4; fill-opacity: 0.15"/>
   </g>
   <g id="matplotlib.axis_1">
    <g id="xtick_1">
     <g id="line2d_1">
      <defs>
       <path id="m4de685b6bb" d="M 0 0 
L 0 3.5 
" style="stroke: #000000; stroke-width: 0.8"/>
      </defs>
      <g>
       <use xlink:href="#m4de685b6bb" x="81.884181" y="273.312" style="stroke: #000000; stroke-width: 0.8"/>
      </g>
     </g>
     <g id="text_1">
      <!-- 40 -->
      <g transform="translate(75.521681 287.910437) scale(0.1 -0.1)">
       <defs>
        <path id="DejaVuSans-34" d="M 2419 4116 
L 825 1625 
L 2419 1625 
L 2419 4116 
z
M 2253 4666 
L 3047 4666 
L 3047 1625 
L 3713 1625 
L 3713 1100 
L 3047 1100 
L 3047 0 
L 2419 0 
L 2419 1100 
L 313 1100 
L 313 1709 
L 2253 4666 
z
" transform="scale(0.015625)"/>
        <path id="DejaVuSans-30" d="M 2034 4250 
Q 1547 4250 1301 3770 
Q 1056 3291 1056 2328 
Q 1056 1369 1301 889 
Q 1547 409 2034 409 
Q 2525 409 2770 889 
Q 3016 1369 3016 2328 
Q 3016 3291 2770 3770 
Q 2525 4250 2034 4250 
z
M 2034 4750 
Q 2819 4750 3233 4129 
Q 3647 3509 3647 2328 
Q 3647 1150 3233 529 
Q 2819 -91 2034 -91 
Q 1250 -91 836 529 
Q 422 1150 422 2328 
Q 422 3509 836 4129 
Q 1250 4750 2034 4750 
z
" transform="scale(0.015625)"/>
       </defs>
       <use xlink:href="#DejaVuSans-34"/>
       <use xlink:href="#DejaVuSans-30" x="63.623047"/>
      </g>
     </g>
    </g>
    <g id="xtick_2">
     <g id="line2d_2">
      <g>
       <use xlink:href="#m4de685b6bb" x="128.833501" y="273.312" style="stroke: #000000; stroke-width: 0.8"/>
      </g>
     </g>
     <g id="text_2">
      <!-- 60 -->
      <g transform="translate(122.471001 287.910437) scale(0.1 -0.1)">
       <defs>
        <path id="DejaVuSans-36" d="M 2113 2584 
Q 1688 2584 1439 2293 
Q 1191 2003 1191 1497 
Q 1191 994 1439 701 
Q 1688 409 2113 409 
Q 2538 409 2786 701 
Q 3034 994 3034 1497 
Q 3034 2003 2786 2293 
Q 2538 2584 2113 2584 
z
M 3366 4563 
L 3366 3988 
Q 3128 4100 2886 4159 
Q 2644 4219 2406 4219 
Q 1781 4219 1451 3797 
Q 1122 3375 1075 2522 
Q 1259 2794 1537 2939 
Q 1816 3084 2150 3084 
Q 2853 3084 3261 2657 
Q 3669 2231 3669 1497 
Q 3669 778 3244 343 
Q 2819 -91 2113 -91 
Q 1303 -91 875 529 
Q 447 1150 447 2328 
Q 447 3434 972 4092 
Q 1497 4750 2381 4750 
Q 2619 4750 2861 4703 
Q 3103 4656 3366 4563 
z
" transform="scale(0.015625)"/>
       </defs>
       <use xlink:href="#DejaVuSans-36"/>
       <use xlink:href="#DejaVuSans-30" x="63.623047"/>
      </g>
     </g>
    </g>
    <g id="xtick_3">
     <g id="line2d_3">
      <g>
       <use xlink:href="#m4de685b6bb" x="175.782821" y="273.312" style="stroke: #000000; stroke-width: 0.8"/>
      </g>
     </g>
     <g id="text_3">
      <!-- 80 -->
      <g transform="translate(169.420321 287.910437) scale(0.1 -0.1)">
       <defs>
        <path id="DejaVuSans-38" d="M 2034 2216 
Q 1584 2216 1326 1975 
Q 1069 1734 1069 1313 
Q 1069 891 1326 650 
Q 1584 409 2034 409 
Q 2484 409 2743 651 
Q 3003 894 3003 1313 
Q 3003 1734 2745 1975 
Q 2488 2216 2034 2216 
z
M 1403 2484 
Q 997 2584 770 2862 
Q 544 3141 544 3541 
Q 544 4100 942 4425 
Q 1341 4750 2034 4750 
Q 2731 4750 3128 4425 
Q 3525 4100 3525 3541 
Q 3525 3141 3298 2862 
Q 3072 2584 2669 2484 
Q 3125 2378 3379 2068 
Q 3634 1759 3634 1313 
Q 3634 634 3220 271 
Q 2806 -91 2034 -91 
Q 1263 -91 848 271 
Q 434 634 434 1313 
Q 434 1759 690 2068 
Q 947 2378 1403 2484 
z
M 1172 3481 
Q 1172 3119 1398 2916 
Q 1625 2713 2034 2713 
Q 2441 2713 2670 2916 
Q 2900 3119 2900 3481 
Q 2900 3844 2670 4047 
Q 2441 4250 2034 4250 
Q 1625 4250 1398 4047 
Q 1172 3844 1172 3481 
z
" transform="scale(0.015625)"/>
       </defs>
       <use xlink:href="#DejaVuSans-38"/>
       <use xlink:href="#DejaVuSans-30" x="63.623047"/>
      </g>
     </g>
    </g>
    <g id="xtick_4">
     <g id="line2d_4">
      <g>
       <use xlink:href="#m4de685b6bb" x="222.73214" y="273.312" style="stroke: #000000; stroke-width: 0.8"/>
      </g>
     </g>
     <g id="text_4">
      <!-- 100 -->
      <g transform="translate(213.18839 287.910437) scale(0.1 -0.1)">
       <defs>
        <path id="DejaVuSans-31" d="M 794 531 
L 1825 531 
L 1825 4091 
L 703 3866 
L 703 4441 
L 1819 4666 
L 2450 4666 
L 2450 531 
L 3481 531 
L 3481 0 
L 794 0 
L 794 531 
z
" transform="scale(0.015625)"/>
       </defs>
       <use xlink:href="#DejaVuSans-31"/>
       <use xlink:href="#DejaVuSans-30" x="63.623047"/>
       <use xlink:href="#DejaVuSans-30" x="127.246094"/>
      </g>
     </g>
    </g>
    <g id="xtick_5">
     <g id="line2d_5">
      <g>
       <use xlink:href="#m4de685b6bb" x="269.68146" y="273.312" style="stroke: #000000; stroke-width: 0.8"/>
      </g>
     </g>
     <g id="text_5">
      <!-- 120 -->
      <g transform="translate(260.13771 287.910437) scale(0.1 -0.1)">
       <defs>
        <path id="DejaVuSans-32" d="M 1228 531 
L 3431 531 
L 3431 0 
L 469 0 
L 469 531 
Q 828 903 1448 1529 
Q 2069 2156 2228 2338 
Q 2531 2678 2651 2914 
Q 2772 3150 2772 3378 
Q 2772 3750 2511 3984 
Q 2250 4219 1831 4219 
Q 1534 4219 1204 4116 
Q 875 4013 500 3803 
L 500 4441 
Q 881 4594 1212 4672 
Q 1544 4750 1819 4750 
Q 2544 4750 2975 4387 
Q 3406 4025 3406 3419 
Q 3406 3131 3298 2873 
Q 3191 2616 2906 2266 
Q 2828 2175 2409 1742 
Q 1991 1309 1228 531 
z
" transform="scale(0.015625)"/>
       </defs>
       <use xlink:href="#DejaVuSans-31"/>
       <use xlink:href="#DejaVuSans-32" x="63.623047"/>
       <use xlink:href="#DejaVuSans-30" x="127.246094"/>
      </g>
     </g>
    </g>
    <g id="xtick_6">
     <g id="line2d_6">
      <g>
       <use xlink:href="#m4de685b6bb" x="316.63078" y="273.312" style="stroke: #000000; stroke-width: 0.8"/>
      </g>
     </g>
     <g id="text_6">
      <!-- 140 -->
      <g transform="translate(307.08703 287.910437) scale(0.1 -0.1)">
       <use xlink:href="#DejaVuSans-31"/>
       <use xlink:href="#DejaVuSans-34" x="63.623047"/>
       <use xlink:href="#DejaVuSans-30" x="127.246094"/>
      </g>
     </g>
    </g>
    <g id="xtick_7">
     <g id="line2d_7">
      <g>
       <use xlink:href="#m4de685b6bb" x="363.580099" y="273.312" style="stroke: #000000; stroke-width: 0.8"/>
      </g>
     </g>
     <g id="text_7">
      <!-- 160 -->
      <g transform="translate(354.036349 287.910437) scale(0.1 -0.1)">
       <use xlink:href="#DejaVuSans-31"/>
       <use xlink:href="#DejaVuSans-36" x="63.623047"/>
       <use xlink:href="#DejaVuSans-30" x="127.246094"/>
      </g>
     </g>
    </g>
    <g id="text_8">
     <!-- MW -->
     <g transform="translate(216.267813 301.588562) scale(0.1 -0.1)">
      <defs>
       <path id="DejaVuSans-4d" d="M 628 4666 
L 1569 4666 
L 2759 1491 
L 3956 4666 
L 4897 4666 
L 4897 0 
L 4281 0 
L 4281 4097 
L 3078 897 
L 2444 897 
L 1241 4097 
L 1241 0 
L 628 0 
L 628 4666 
z
" transform="scale(0.015625)"/>
       <path id="DejaVuSans-57" d="M 213 4666 
L 850 4666 
L 1831 722 
L 2809 4666 
L 3519 4666 
L 4500 722 
L 5478 4666 
L 6119 4666 
L 4947 0 
L 4153 0 
L 3169 4050 
L 2175 0 
L 1381 0 
L 213 4666 
z
" transform="scale(0.015625)"/>
      </defs>
      <use xlink:href="#DejaVuSans-4d"/>
      <use xlink:href="#DejaVuSans-57" x="86.279297"/>
     </g>
    </g>
   </g>
   <g id="matplotlib.axis_2">
    <g id="ytick_1">
     <g id="line2d_8">
      <defs>
       <path id="m9dd5a577a9" d="M 0 0 
L -3.5 0 
" style="stroke: #000000; stroke-width: 0.8"/>
      </defs>
      <g>
       <use xlink:href="#m9dd5a577a9" x="46.965625" y="260.942839" style="stroke: #000000; stroke-width: 0.8"/>
      </g>
     </g>
     <g id="text_9">
      <!-- 0 -->
      <g transform="translate(33.603125 264.742057) scale(0.1 -0.1)">
       <use xlink:href="#DejaVuSans-30"/>
      </g>
     </g>
    </g>
    <g id="ytick_2">
     <g id="line2d_9">
      <g>
       <use xlink:href="#m9dd5a577a9" x="46.965625" y="213.443584" style="stroke: #000000; stroke-width: 0.8"/>
      </g>
     </g>
     <g id="text_10">
      <!-- 50 -->
      <g transform="translate(27.240625 217.242803) scale(0.1 -0.1)">
       <defs>
        <path id="DejaVuSans-35" d="M 691 4666 
L 3169 4666 
L 3169 4134 
L 1269 4134 
L 1269 2991 
Q 1406 3038 1543 3061 
Q 1681 3084 1819 3084 
Q 2600 3084 3056 2656 
Q 3513 2228 3513 1497 
Q 3513 744 3044 326 
Q 2575 -91 1722 -91 
Q 1428 -91 1123 -41 
Q 819 9 494 109 
L 494 744 
Q 775 591 1075 516 
Q 1375 441 1709 441 
Q 2250 441 2565 725 
Q 2881 1009 2881 1497 
Q 2881 1984 2565 2268 
Q 2250 2553 1709 2553 
Q 1456 2553 1204 2497 
Q 953 2441 691 2322 
L 691 4666 
z
" transform="scale(0.015625)"/>
       </defs>
       <use xlink:href="#DejaVuSans-35"/>
       <use xlink:href="#DejaVuSans-30" x="63.623047"/>
      </g>
     </g>
    </g>
    <g id="ytick_3">
     <g id="line2d_10">
      <g>
       <use xlink:href="#m9dd5a577a9" x="46.965625" y="165.94433" style="stroke: #000000; stroke-width: 0.8"/>
      </g>
     </g>
     <g id="text_11">
      <!-- 100 -->
      <g transform="translate(20.878125 169.743549) scale(0.1 -0.1)">
       <use xlink:href="#DejaVuSans-31"/>
       <use xlink:href="#DejaVuSans-30" x="63.623047"/>
       <use xlink:href="#DejaVuSans-30" x="127.246094"/>
      </g>
     </g>
    </g>
    <g id="ytick_4">
     <g id="line2d_11">
      <g>
       <use xlink:href="#m9dd5a577a9" x="46.965625" y="118.445076" style="stroke: #000000; stroke-width: 0.8"/>
      </g>
     </g>
     <g id="text_12">
      <!-- 150 -->
      <g transform="translate(20.878125 122.244295) scale(0.1 -0.1)">
       <use xlink:href="#DejaVuSans-31"/>
       <use xlink:href="#DejaVuSans-35" x="63.623047"/>
       <use xlink:href="#DejaVuSans-30" x="127.246094"/>
      </g>
     </g>
    </g>
    <g id="ytick_5">
     <g id="line2d_12">
      <g>
       <use xlink:href="#m9dd5a577a9" x="46.965625" y="70.945822" style="stroke: #000000; stroke-width: 0.8"/>
      </g>
     </g>
     <g id="text_13">
      <!-- 200 -->
      <g transform="translate(20.878125 74.745041) scale(0.1 -0.1)">
       <use xlink:href="#DejaVuSans-32"/>
       <use xlink:href="#DejaVuSans-30" x="63.623047"/>
       <use xlink:href="#DejaVuSans-30" x="127.246094"/>
      </g>
     </g>
    </g>
    <g id="ytick_6">
     <g id="line2d_13">
      <g>
       <use xlink:href="#m9dd5a577a9" x="46.965625" y="23.446568" style="stroke: #000000; stroke-width: 0.8"/>
      </g>
     </g>
     <g id="text_14">
      <!-- 250 -->
      <g transform="translate(20.878125 27.245787) scale(0.1 -0.1)">
       <use xlink:href="#DejaVuSans-32"/>
       <use xlink:href="#DejaVuSans-35" x="63.623047"/>
       <use xlink:href="#DejaVuSans-30" x="127.246094"/>
      </g>
     </g>
    </g>
    <g id="text_15">
     <!-- bp -->
     <g transform="translate(14.798438 146.604437) rotate(-90) scale(0.1 -0.1)">
      <defs>
       <path id="DejaVuSans-62" d="M 3116 1747 
Q 3116 2381 2855 2742 
Q 2594 3103 2138 3103 
Q 1681 3103 1420 2742 
Q 1159 2381 1159 1747 
Q 1159 1113 1420 752 
Q 1681 391 2138 391 
Q 2594 391 2855 752 
Q 3116 1113 3116 1747 
z
M 1159 2969 
Q 1341 3281 1617 3432 
Q 1894 3584 2278 3584 
Q 2916 3584 3314 3078 
Q 3713 2572 3713 1747 
Q 3713 922 3314 415 
Q 2916 -91 2278 -91 
Q 1894 -91 1617 61 
Q 1341 213 1159 525 
L 1159 0 
L 581 0 
L 581 4863 
L 1159 4863 
L 1159 2969 
z
" transform="scale(0.015625)"/>
       <path id="DejaVuSans-70" d="M 1159 525 
L 1159 -1331 
L 581 -1331 
L 581 3500 
L 1159 3500 
L 1159 2969 
Q 1341 3281 1617 3432 
Q 1894 3584 2278 3584 
Q 2916 3584 3314 3078 
Q 3713 2572 3713 1747 
Q 3713 922 3314 415 
Q 2916 -91 2278 -91 
Q 1894 -91 1617 61 
Q 1341 213 1159 525 
z
M 3116 1747 
Q 3116 2381 2855 2742 
Q 2594 3103 2138 3103 
Q 1681 3103 1420 2742 
Q 1159 2381 1159 1747 
Q 1159 1113 1420 752 
Q 1681 391 2138 391 
Q 2594 391 2855 752 
Q 3116 1113 3116 1747 
z
" transform="scale(0.015625)"/>
      </defs>
      <use xlink:href="#DejaVuSans-62"/>
      <use xlink:href="#DejaVuSans-70" x="63.476562"/>
     </g>
    </g>
   </g>
   <g id="line2d_14">
    <path d="M 63.198352 227.704824 
L 66.477691 225.847855 
L 69.75703 223.990885 
L 73.036369 222.133916 
L 76.315708 220.276946 
L 79.595046 218.419977 
L 82.874385 216.563008 
L 86.153724 214.706038 
L 89.433063 212.849069 
L 92.712402 210.992099 
L 95.991741 209.13513 
L 99.27108 207.278161 
L 102.550418 205.421191 
L 105.829757 203.564222 
L 109.109096 201.707252 
L 112.388435 199.850283 
L 115.667774 197.993314 
L 118.947113 196.136344 
L 122.226451 194.279375 
L 125.50579 192.422405 
L 128.785129 190.565436 
L 132.064468 188.708467 
L 135.343807 186.851497 
L 138.623146 184.994528 
L 141.902485 183.137558 
L 145.181823 181.280589 
L 148.461162 179.42362 
L 151.740501 177.56665 
L 155.01984 175.709681 
L 158.299179 173.852711 
L 161.578518 171.995742 
L 164.857856 170.138773 
L 168.137195 168.281803 
L 171.416534 166.424834 
L 174.695873 164.567864 
L 177.975212 162.710895 
L 181.254551 160.853926 
L 184.533889 158.996956 
L 187.813228 157.139987 
L 191.092567 155.283017 
L 194.371906 153.426048 
L 197.651245 151.569079 
L 200.930584 149.712109 
L 204.209923 147.85514 
L 207.489261 145.99817 
L 210.7686 144.141201 
L 214.047939 142.284232 
L 217.327278 140.427262 
L 220.606617 138.570293 
L 223.885956 136.713323 
L 227.165294 134.856354 
L 230.444633 132.999385 
L 233.723972 131.142415 
L 237.003311 129.285446 
L 240.28265 127.428476 
L 243.561989 125.571507 
L 246.841327 123.714538 
L 250.120666 121.857568 
L 253.400005 120.000599 
L 256.679344 118.143629 
L 259.958683 116.28666 
L 263.238022 114.429691 
L 266.517361 112.572721 
L 269.796699 110.715752 
L 273.076038 108.858782 
L 276.355377 107.001813 
L 279.634716 105.144844 
L 282.914055 103.287874 
L 286.193394 101.430905 
L 289.472732 99.573935 
L 292.752071 97.716966 
L 296.03141 95.859997 
L 299.310749 94.003027 
L 302.590088 92.146058 
L 305.869427 90.289088 
L 309.148765 88.432119 
L 312.428104 86.57515 
L 315.707443 84.71818 
L 318.986782 82.861211 
L 322.266121 81.004241 
L 325.54546 79.147272 
L 328.824799 77.290303 
L 332.104137 75.433333 
L 335.383476 73.576364 
L 338.662815 71.719394 
L 341.942154 69.862425 
L 345.221493 68.005456 
L 348.500832 66.148486 
L 351.78017 64.291517 
L 355.059509 62.434547 
L 358.338848 60.577578 
L 361.618187 58.720609 
L 364.897526 56.863639 
L 368.176865 55.00667 
L 371.456204 53.1497 
L 374.735542 51.292731 
L 378.014881 49.435762 
L 381.29422 47.578792 
L 384.573559 45.721823 
L 387.852898 43.864853 
" clip-path="url(#pcfc18e75be)" style="fill: none; stroke: #1f77b4; stroke-width: 2.25; stroke-linecap: square"/>
   </g>
   <g id="patch_3">
    <path d="M 46.965625 273.312 
L 46.965625 7.2 
" style="fill: none; stroke: #000000; stroke-width: 0.8; stroke-linejoin: miter; stroke-linecap: square"/>
   </g>
   <g id="patch_4">
    <path d="M 404.085625 273.312 
L 404.085625 7.2 
" style="fill: none; stroke: #000000; stroke-width: 0.8; stroke-linejoin: miter; stroke-linecap: square"/>
   </g>
   <g id="patch_5">
    <path d="M 46.965625 273.312 
L 404.085625 273.312 
" style="fill: none; stroke: #000000; stroke-width: 0.8; stroke-linejoin: miter; stroke-linecap: square"/>
   </g>
   <g id="patch_6">
    <path d="M 46.965625 7.2 
L 404.085625 7.2 
" style="fill: none; stroke: #000000; stroke-width: 0.8; stroke-linejoin: miter; stroke-linecap: square"/>
   </g>
  </g>
 </g>
 <defs>
  <clipPath id="pcfc18e75be">
   <rect x="46.965625" y="7.2" width="357.12" height="266.112"/>
  </clipPath>
 </defs>
</svg>
