<?xml version="1.0" encoding="utf-8" standalone="no"?>
<!DOCTYPE svg PUBLIC "-//W3C//DTD SVG 1.1//EN"
  "http://www.w3.org/Graphics/SVG/1.1/DTD/svg11.dtd">
<svg xmlns:xlink="http://www.w3.org/1999/xlink" width="380.482813pt" height="262.19625pt" viewBox="0 0 380.482813 262.19625" xmlns="http://www.w3.org/2000/svg" version="1.1">
 <metadata>
  <rdf:RDF xmlns:dc="http://purl.org/dc/elements/1.1/" xmlns:cc="http://creativecommons.org/ns#" xmlns:rdf="http://www.w3.org/1999/02/22-rdf-syntax-ns#">
   <cc:Work>
    <dc:type rdf:resource="http://purl.org/dc/dcmitype/StillImage"/>
    <dc:date>2022-07-29T15:05:05.867702</dc:date>
    <dc:format>image/svg+xml</dc:format>
    <dc:creator>
     <cc:Agent>
      <dc:title>Matplotlib v3.5.2, https://matplotlib.org/</dc:title>
     </cc:Agent>
    </dc:creator>
   </cc:Work>
  </rdf:RDF>
 </metadata>
 <defs>
  <style type="text/css">*{stroke-linejoin: round; stroke-linecap: butt}</style>
 </defs>
 <g id="figure_1">
  <g id="patch_1">
   <path d="M -0 262.19625 
L 380.482813 262.19625 
L 380.482813 0 
L -0 0 
L -0 262.19625 
z
" style="fill: none"/>
  </g>
  <g id="axes_1">
   <g id="patch_2">
    <path d="M 38.482813 224.64 
L 373.282813 224.64 
L 373.282813 7.2 
L 38.482813 7.2 
z
" style="fill: #ffffff"/>
   </g>
   <g id="matplotlib.axis_1">
    <g id="xtick_1">
     <g id="line2d_1">
      <defs>
       <path id="m3b22f47a3f" d="M 0 0 
L 0 3.5 
" style="stroke: #000000; stroke-width: 0.8"/>
      </defs>
      <g>
       <use xlink:href="#m3b22f47a3f" x="53.700994" y="224.64" style="stroke: #000000; stroke-width: 0.8"/>
      </g>
     </g>
     <g id="text_1">
      <!-- 0.0 -->
      <g transform="translate(45.749432 239.238437)scale(0.1 -0.1)">
       <defs>
        <path id="DejaVuSans-30" d="M 2034 4250 
Q 1547 4250 1301 3770 
Q 1056 3291 1056 2328 
Q 1056 1369 1301 889 
Q 1547 409 2034 409 
Q 2525 409 2770 889 
Q 3016 1369 3016 2328 
Q 3016 3291 2770 3770 
Q 2525 4250 2034 4250 
z
M 2034 4750 
Q 2819 4750 3233 4129 
Q 3647 3509 3647 2328 
Q 3647 1150 3233 529 
Q 2819 -91 2034 -91 
Q 1250 -91 836 529 
Q 422 1150 422 2328 
Q 422 3509 836 4129 
Q 1250 4750 2034 4750 
z
" transform="scale(0.015625)"/>
        <path id="DejaVuSans-2e" d="M 684 794 
L 1344 794 
L 1344 0 
L 684 0 
L 684 794 
z
" transform="scale(0.015625)"/>
       </defs>
       <use xlink:href="#DejaVuSans-30"/>
       <use xlink:href="#DejaVuSans-2e" x="63.623047"/>
       <use xlink:href="#DejaVuSans-30" x="95.410156"/>
      </g>
     </g>
    </g>
    <g id="xtick_2">
     <g id="line2d_2">
      <g>
       <use xlink:href="#m3b22f47a3f" x="114.573722" y="224.64" style="stroke: #000000; stroke-width: 0.8"/>
      </g>
     </g>
     <g id="text_2">
      <!-- 0.2 -->
      <g transform="translate(106.622159 239.238437)scale(0.1 -0.1)">
       <defs>
        <path id="DejaVuSans-32" d="M 1228 531 
L 3431 531 
L 3431 0 
L 469 0 
L 469 531 
Q 828 903 1448 1529 
Q 2069 2156 2228 2338 
Q 2531 2678 2651 2914 
Q 2772 3150 2772 3378 
Q 2772 3750 2511 3984 
Q 2250 4219 1831 4219 
Q 1534 4219 1204 4116 
Q 875 4013 500 3803 
L 500 4441 
Q 881 4594 1212 4672 
Q 1544 4750 1819 4750 
Q 2544 4750 2975 4387 
Q 3406 4025 3406 3419 
Q 3406 3131 3298 2873 
Q 3191 2616 2906 2266 
Q 2828 2175 2409 1742 
Q 1991 1309 1228 531 
z
" transform="scale(0.015625)"/>
       </defs>
       <use xlink:href="#DejaVuSans-30"/>
       <use xlink:href="#DejaVuSans-2e" x="63.623047"/>
       <use xlink:href="#DejaVuSans-32" x="95.410156"/>
      </g>
     </g>
    </g>
    <g id="xtick_3">
     <g id="line2d_3">
      <g>
       <use xlink:href="#m3b22f47a3f" x="175.446449" y="224.64" style="stroke: #000000; stroke-width: 0.8"/>
      </g>
     </g>
     <g id="text_3">
      <!-- 0.4 -->
      <g transform="translate(167.494886 239.238437)scale(0.1 -0.1)">
       <defs>
        <path id="DejaVuSans-34" d="M 2419 4116 
L 825 1625 
L 2419 1625 
L 2419 4116 
z
M 2253 4666 
L 3047 4666 
L 3047 1625 
L 3713 1625 
L 3713 1100 
L 3047 1100 
L 3047 0 
L 2419 0 
L 2419 1100 
L 313 1100 
L 313 1709 
L 2253 4666 
z
" transform="scale(0.015625)"/>
       </defs>
       <use xlink:href="#DejaVuSans-30"/>
       <use xlink:href="#DejaVuSans-2e" x="63.623047"/>
       <use xlink:href="#DejaVuSans-34" x="95.410156"/>
      </g>
     </g>
    </g>
    <g id="xtick_4">
     <g id="line2d_4">
      <g>
       <use xlink:href="#m3b22f47a3f" x="236.319176" y="224.64" style="stroke: #000000; stroke-width: 0.8"/>
      </g>
     </g>
     <g id="text_4">
      <!-- 0.6 -->
      <g transform="translate(228.367614 239.238437)scale(0.1 -0.1)">
       <defs>
        <path id="DejaVuSans-36" d="M 2113 2584 
Q 1688 2584 1439 2293 
Q 1191 2003 1191 1497 
Q 1191 994 1439 701 
Q 1688 409 2113 409 
Q 2538 409 2786 701 
Q 3034 994 3034 1497 
Q 3034 2003 2786 2293 
Q 2538 2584 2113 2584 
z
M 3366 4563 
L 3366 3988 
Q 3128 4100 2886 4159 
Q 2644 4219 2406 4219 
Q 1781 4219 1451 3797 
Q 1122 3375 1075 2522 
Q 1259 2794 1537 2939 
Q 1816 3084 2150 3084 
Q 2853 3084 3261 2657 
Q 3669 2231 3669 1497 
Q 3669 778 3244 343 
Q 2819 -91 2113 -91 
Q 1303 -91 875 529 
Q 447 1150 447 2328 
Q 447 3434 972 4092 
Q 1497 4750 2381 4750 
Q 2619 4750 2861 4703 
Q 3103 4656 3366 4563 
z
" transform="scale(0.015625)"/>
       </defs>
       <use xlink:href="#DejaVuSans-30"/>
       <use xlink:href="#DejaVuSans-2e" x="63.623047"/>
       <use xlink:href="#DejaVuSans-36" x="95.410156"/>
      </g>
     </g>
    </g>
    <g id="xtick_5">
     <g id="line2d_5">
      <g>
       <use xlink:href="#m3b22f47a3f" x="297.191903" y="224.64" style="stroke: #000000; stroke-width: 0.8"/>
      </g>
     </g>
     <g id="text_5">
      <!-- 0.8 -->
      <g transform="translate(289.240341 239.238437)scale(0.1 -0.1)">
       <defs>
        <path id="DejaVuSans-38" d="M 2034 2216 
Q 1584 2216 1326 1975 
Q 1069 1734 1069 1313 
Q 1069 891 1326 650 
Q 1584 409 2034 409 
Q 2484 409 2743 651 
Q 3003 894 3003 1313 
Q 3003 1734 2745 1975 
Q 2488 2216 2034 2216 
z
M 1403 2484 
Q 997 2584 770 2862 
Q 544 3141 544 3541 
Q 544 4100 942 4425 
Q 1341 4750 2034 4750 
Q 2731 4750 3128 4425 
Q 3525 4100 3525 3541 
Q 3525 3141 3298 2862 
Q 3072 2584 2669 2484 
Q 3125 2378 3379 2068 
Q 3634 1759 3634 1313 
Q 3634 634 3220 271 
Q 2806 -91 2034 -91 
Q 1263 -91 848 271 
Q 434 634 434 1313 
Q 434 1759 690 2068 
Q 947 2378 1403 2484 
z
M 1172 3481 
Q 1172 3119 1398 2916 
Q 1625 2713 2034 2713 
Q 2441 2713 2670 2916 
Q 2900 3119 2900 3481 
Q 2900 3844 2670 4047 
Q 2441 4250 2034 4250 
Q 1625 4250 1398 4047 
Q 1172 3844 1172 3481 
z
" transform="scale(0.015625)"/>
       </defs>
       <use xlink:href="#DejaVuSans-30"/>
       <use xlink:href="#DejaVuSans-2e" x="63.623047"/>
       <use xlink:href="#DejaVuSans-38" x="95.410156"/>
      </g>
     </g>
    </g>
    <g id="xtick_6">
     <g id="line2d_6">
      <g>
       <use xlink:href="#m3b22f47a3f" x="358.064631" y="224.64" style="stroke: #000000; stroke-width: 0.8"/>
      </g>
     </g>
     <g id="text_6">
      <!-- 1.0 -->
      <g transform="translate(350.113068 239.238437)scale(0.1 -0.1)">
       <defs>
        <path id="DejaVuSans-31" d="M 794 531 
L 1825 531 
L 1825 4091 
L 703 3866 
L 703 4441 
L 1819 4666 
L 2450 4666 
L 2450 531 
L 3481 531 
L 3481 0 
L 794 0 
L 794 531 
z
" transform="scale(0.015625)"/>
       </defs>
       <use xlink:href="#DejaVuSans-31"/>
       <use xlink:href="#DejaVuSans-2e" x="63.623047"/>
       <use xlink:href="#DejaVuSans-30" x="95.410156"/>
      </g>
     </g>
    </g>
    <g id="text_7">
     <!-- Time, s -->
     <g transform="translate(187.866406 252.916562)scale(0.1 -0.1)">
      <defs>
       <path id="DejaVuSans-54" d="M -19 4666 
L 3928 4666 
L 3928 4134 
L 2272 4134 
L 2272 0 
L 1638 0 
L 1638 4134 
L -19 4134 
L -19 4666 
z
" transform="scale(0.015625)"/>
       <path id="DejaVuSans-69" d="M 603 3500 
L 1178 3500 
L 1178 0 
L 603 0 
L 603 3500 
z
M 603 4863 
L 1178 4863 
L 1178 4134 
L 603 4134 
L 603 4863 
z
" transform="scale(0.015625)"/>
       <path id="DejaVuSans-6d" d="M 3328 2828 
Q 3544 3216 3844 3400 
Q 4144 3584 4550 3584 
Q 5097 3584 5394 3201 
Q 5691 2819 5691 2113 
L 5691 0 
L 5113 0 
L 5113 2094 
Q 5113 2597 4934 2840 
Q 4756 3084 4391 3084 
Q 3944 3084 3684 2787 
Q 3425 2491 3425 1978 
L 3425 0 
L 2847 0 
L 2847 2094 
Q 2847 2600 2669 2842 
Q 2491 3084 2119 3084 
Q 1678 3084 1418 2786 
Q 1159 2488 1159 1978 
L 1159 0 
L 581 0 
L 581 3500 
L 1159 3500 
L 1159 2956 
Q 1356 3278 1631 3431 
Q 1906 3584 2284 3584 
Q 2666 3584 2933 3390 
Q 3200 3197 3328 2828 
z
" transform="scale(0.015625)"/>
       <path id="DejaVuSans-65" d="M 3597 1894 
L 3597 1613 
L 953 1613 
Q 991 1019 1311 708 
Q 1631 397 2203 397 
Q 2534 397 2845 478 
Q 3156 559 3463 722 
L 3463 178 
Q 3153 47 2828 -22 
Q 2503 -91 2169 -91 
Q 1331 -91 842 396 
Q 353 884 353 1716 
Q 353 2575 817 3079 
Q 1281 3584 2069 3584 
Q 2775 3584 3186 3129 
Q 3597 2675 3597 1894 
z
M 3022 2063 
Q 3016 2534 2758 2815 
Q 2500 3097 2075 3097 
Q 1594 3097 1305 2825 
Q 1016 2553 972 2059 
L 3022 2063 
z
" transform="scale(0.015625)"/>
       <path id="DejaVuSans-2c" d="M 750 794 
L 1409 794 
L 1409 256 
L 897 -744 
L 494 -744 
L 750 256 
L 750 794 
z
" transform="scale(0.015625)"/>
       <path id="DejaVuSans-20" transform="scale(0.015625)"/>
       <path id="DejaVuSans-73" d="M 2834 3397 
L 2834 2853 
Q 2591 2978 2328 3040 
Q 2066 3103 1784 3103 
Q 1356 3103 1142 2972 
Q 928 2841 928 2578 
Q 928 2378 1081 2264 
Q 1234 2150 1697 2047 
L 1894 2003 
Q 2506 1872 2764 1633 
Q 3022 1394 3022 966 
Q 3022 478 2636 193 
Q 2250 -91 1575 -91 
Q 1294 -91 989 -36 
Q 684 19 347 128 
L 347 722 
Q 666 556 975 473 
Q 1284 391 1588 391 
Q 1994 391 2212 530 
Q 2431 669 2431 922 
Q 2431 1156 2273 1281 
Q 2116 1406 1581 1522 
L 1381 1569 
Q 847 1681 609 1914 
Q 372 2147 372 2553 
Q 372 3047 722 3315 
Q 1072 3584 1716 3584 
Q 2034 3584 2315 3537 
Q 2597 3491 2834 3397 
z
" transform="scale(0.015625)"/>
      </defs>
      <use xlink:href="#DejaVuSans-54"/>
      <use xlink:href="#DejaVuSans-69" x="57.958984"/>
      <use xlink:href="#DejaVuSans-6d" x="85.742188"/>
      <use xlink:href="#DejaVuSans-65" x="183.154297"/>
      <use xlink:href="#DejaVuSans-2c" x="244.677734"/>
      <use xlink:href="#DejaVuSans-20" x="276.464844"/>
      <use xlink:href="#DejaVuSans-73" x="308.251953"/>
     </g>
    </g>
   </g>
   <g id="matplotlib.axis_2">
    <g id="ytick_1">
     <g id="line2d_7">
      <defs>
       <path id="mf68806edd3" d="M 0 0 
L -3.5 0 
" style="stroke: #000000; stroke-width: 0.8"/>
      </defs>
      <g>
       <use xlink:href="#mf68806edd3" x="38.482813" y="215.150364" style="stroke: #000000; stroke-width: 0.8"/>
      </g>
     </g>
     <g id="text_8">
      <!-- −1.0 -->
      <g transform="translate(7.2 218.949582)scale(0.1 -0.1)">
       <defs>
        <path id="DejaVuSans-2212" d="M 678 2272 
L 4684 2272 
L 4684 1741 
L 678 1741 
L 678 2272 
z
" transform="scale(0.015625)"/>
       </defs>
       <use xlink:href="#DejaVuSans-2212"/>
       <use xlink:href="#DejaVuSans-31" x="83.789062"/>
       <use xlink:href="#DejaVuSans-2e" x="147.412109"/>
       <use xlink:href="#DejaVuSans-30" x="179.199219"/>
      </g>
     </g>
    </g>
    <g id="ytick_2">
     <g id="line2d_8">
      <g>
       <use xlink:href="#mf68806edd3" x="38.482813" y="175.111885" style="stroke: #000000; stroke-width: 0.8"/>
      </g>
     </g>
     <g id="text_9">
      <!-- −0.5 -->
      <g transform="translate(7.2 178.911104)scale(0.1 -0.1)">
       <defs>
        <path id="DejaVuSans-35" d="M 691 4666 
L 3169 4666 
L 3169 4134 
L 1269 4134 
L 1269 2991 
Q 1406 3038 1543 3061 
Q 1681 3084 1819 3084 
Q 2600 3084 3056 2656 
Q 3513 2228 3513 1497 
Q 3513 744 3044 326 
Q 2575 -91 1722 -91 
Q 1428 -91 1123 -41 
Q 819 9 494 109 
L 494 744 
Q 775 591 1075 516 
Q 1375 441 1709 441 
Q 2250 441 2565 725 
Q 2881 1009 2881 1497 
Q 2881 1984 2565 2268 
Q 2250 2553 1709 2553 
Q 1456 2553 1204 2497 
Q 953 2441 691 2322 
L 691 4666 
z
" transform="scale(0.015625)"/>
       </defs>
       <use xlink:href="#DejaVuSans-2212"/>
       <use xlink:href="#DejaVuSans-30" x="83.789062"/>
       <use xlink:href="#DejaVuSans-2e" x="147.412109"/>
       <use xlink:href="#DejaVuSans-35" x="179.199219"/>
      </g>
     </g>
    </g>
    <g id="ytick_3">
     <g id="line2d_9">
      <g>
       <use xlink:href="#mf68806edd3" x="38.482813" y="135.073406" style="stroke: #000000; stroke-width: 0.8"/>
      </g>
     </g>
     <g id="text_10">
      <!-- 0.0 -->
      <g transform="translate(15.579688 138.872625)scale(0.1 -0.1)">
       <use xlink:href="#DejaVuSans-30"/>
       <use xlink:href="#DejaVuSans-2e" x="63.623047"/>
       <use xlink:href="#DejaVuSans-30" x="95.410156"/>
      </g>
     </g>
    </g>
    <g id="ytick_4">
     <g id="line2d_10">
      <g>
       <use xlink:href="#mf68806edd3" x="38.482813" y="95.034928" style="stroke: #000000; stroke-width: 0.8"/>
      </g>
     </g>
     <g id="text_11">
      <!-- 0.5 -->
      <g transform="translate(15.579688 98.834147)scale(0.1 -0.1)">
       <use xlink:href="#DejaVuSans-30"/>
       <use xlink:href="#DejaVuSans-2e" x="63.623047"/>
       <use xlink:href="#DejaVuSans-35" x="95.410156"/>
      </g>
     </g>
    </g>
    <g id="ytick_5">
     <g id="line2d_11">
      <g>
       <use xlink:href="#mf68806edd3" x="38.482813" y="54.996449" style="stroke: #000000; stroke-width: 0.8"/>
      </g>
     </g>
     <g id="text_12">
      <!-- 1.0 -->
      <g transform="translate(15.579688 58.795668)scale(0.1 -0.1)">
       <use xlink:href="#DejaVuSans-31"/>
       <use xlink:href="#DejaVuSans-2e" x="63.623047"/>
       <use xlink:href="#DejaVuSans-30" x="95.410156"/>
      </g>
     </g>
    </g>
    <g id="ytick_6">
     <g id="line2d_12">
      <g>
       <use xlink:href="#mf68806edd3" x="38.482813" y="14.957971" style="stroke: #000000; stroke-width: 0.8"/>
      </g>
     </g>
     <g id="text_13">
      <!-- 1.5 -->
      <g transform="translate(15.579688 18.757189)scale(0.1 -0.1)">
       <use xlink:href="#DejaVuSans-31"/>
       <use xlink:href="#DejaVuSans-2e" x="63.623047"/>
       <use xlink:href="#DejaVuSans-35" x="95.410156"/>
      </g>
     </g>
    </g>
   </g>
   <g id="line2d_13">
    <path d="M 53.700994 111.117071 
L 54.005663 98.139948 
L 54.310331 63.503901 
L 54.614999 51.755557 
L 55.224336 35.614269 
L 55.529004 52.516959 
L 55.833672 63.130852 
L 56.443009 157.774684 
L 57.661682 192.740757 
L 59.185024 64.520435 
L 59.489692 56.106069 
L 59.79436 30.767724 
L 60.099029 49.160726 
L 60.403697 41.93491 
L 61.013034 125.043752 
L 61.317702 135.973104 
L 61.62237 174.391273 
L 61.927039 179.284278 
L 62.231707 179.959528 
L 62.536375 185.202768 
L 62.841043 182.479247 
L 63.145712 166.454247 
L 63.45038 115.255524 
L 63.755048 100.228612 
L 64.364385 26.231617 
L 64.669053 55.064008 
L 64.973722 22.819821 
L 65.27839 36.678537 
L 65.583058 86.708669 
L 65.887727 99.270277 
L 66.497063 172.849942 
L 66.801731 177.785439 
L 67.1064 207.594912 
L 67.715736 181.673168 
L 68.325073 118.152122 
L 68.629741 111.305391 
L 68.93441 58.462177 
L 69.239078 30.845743 
L 69.543746 47.547355 
L 69.848414 29.137498 
L 70.153083 37.931314 
L 70.457751 61.276304 
L 70.762419 121.576056 
L 71.067088 121.636195 
L 71.371756 180.436855 
L 71.676424 179.503851 
L 71.981093 189.840564 
L 72.285761 189.756205 
L 72.590429 173.636167 
L 73.504434 85.24853 
L 73.809102 85.8597 
L 74.113771 34.249671 
L 74.418439 27.060773 
L 74.723107 24.042839 
L 75.027776 33.819095 
L 75.637112 87.278702 
L 76.246449 170.698028 
L 76.551117 163.422586 
L 76.855785 200.768333 
L 77.160454 191.89232 
L 77.465122 167.095809 
L 78.074459 145.028173 
L 78.379127 99.426547 
L 78.683795 84.781872 
L 78.988464 34.490243 
L 79.293132 34.24995 
L 79.5978 25.946524 
L 79.902469 35.917171 
L 80.207137 57.156319 
L 80.816473 143.481368 
L 81.121142 159.105526 
L 81.42581 195.785693 
L 81.730478 193.455418 
L 82.035147 194.783492 
L 82.339815 169.90957 
L 82.644483 169.8671 
L 82.949152 123.516232 
L 83.25382 119.889546 
L 83.558488 56.912803 
L 83.863156 37.226371 
L 84.167825 51.021249 
L 84.472493 24.856564 
L 85.08183 55.047968 
L 85.691166 135.383973 
L 85.995835 172.093956 
L 86.300503 187.825921 
L 86.605171 186.805469 
L 86.90984 176.101889 
L 87.214508 188.671316 
L 87.823844 124.871953 
L 88.128513 124.368212 
L 88.433181 59.455026 
L 88.737849 44.61677 
L 89.042518 45.428253 
L 89.347186 40.426139 
L 89.651854 40.46399 
L 89.956523 53.184672 
L 90.261191 96.46326 
L 90.565859 111.408943 
L 90.870527 145.184783 
L 91.175196 158.035579 
L 91.784532 211.756834 
L 92.089201 170.158761 
L 92.393869 184.422794 
L 93.307874 67.132213 
L 93.612542 38.525727 
L 93.917211 24.747505 
L 94.221879 49.869229 
L 94.526547 53.817534 
L 95.440552 112.975918 
L 95.74522 156.793205 
L 96.049889 164.569632 
L 96.354557 194.406373 
L 96.659225 208.965563 
L 96.963894 207.232359 
L 97.268562 165.435854 
L 97.57323 151.443326 
L 97.877898 130.58673 
L 98.182567 74.840048 
L 98.487235 39.792547 
L 98.791903 47.63814 
L 99.096572 18.982552 
L 99.40124 23.761452 
L 99.705908 70.44249 
L 100.010577 67.394992 
L 100.315245 132.598887 
L 100.619913 135.706681 
L 100.924582 154.857695 
L 101.22925 194.800045 
L 101.533918 191.505944 
L 101.838586 198.925299 
L 102.143255 169.173827 
L 102.447923 152.244147 
L 102.752591 101.959901 
L 103.05726 105.667061 
L 103.666596 39.915785 
L 103.971265 37.962413 
L 104.275933 44.676923 
L 104.580601 38.04316 
L 104.88527 97.633337 
L 105.189938 95.021694 
L 105.799274 155.096965 
L 106.103943 181.551221 
L 106.408611 184.061684 
L 106.713279 176.974084 
L 107.017948 177.451598 
L 107.322616 142.421699 
L 107.627284 121.315944 
L 107.931953 78.148584 
L 108.236621 78.92292 
L 108.541289 36.027764 
L 108.845957 51.384257 
L 109.150626 24.943838 
L 109.759962 63.299225 
L 110.064631 106.560415 
L 110.369299 122.222311 
L 110.673967 145.323448 
L 111.283304 206.43653 
L 111.587972 175.787924 
L 111.892641 161.692332 
L 112.197309 162.776124 
L 112.501977 140.786903 
L 113.415982 36.420066 
L 113.72065 52.188259 
L 114.025319 29.88996 
L 114.329987 44.458395 
L 114.634655 76.669863 
L 114.939324 94.503627 
L 115.243992 151.931058 
L 115.54866 157.218394 
L 115.853328 173.857633 
L 116.157997 207.931519 
L 116.462665 201.691872 
L 117.072002 151.475076 
L 117.37667 128.640959 
L 118.290675 34.806363 
L 118.595343 36.939734 
L 118.900012 31.660123 
L 119.20468 64.876422 
L 119.509348 85.146379 
L 119.814016 114.396831 
L 120.118685 128.075757 
L 120.423353 162.936902 
L 120.728021 169.133475 
L 121.03269 189.558222 
L 121.337358 178.619773 
L 121.642026 189.233258 
L 121.946695 143.090513 
L 122.251363 143.300116 
L 122.556031 86.436978 
L 122.860699 88.786278 
L 123.165368 56.686325 
L 123.470036 45.770269 
L 123.774704 43.835543 
L 124.079373 42.77128 
L 124.384041 57.155175 
L 124.688709 101.68686 
L 124.993378 107.790451 
L 125.298046 170.162222 
L 125.602714 163.367133 
L 126.212051 207.663715 
L 126.821387 151.412061 
L 127.126056 154.925027 
L 127.430724 92.963458 
L 127.735392 84.341722 
L 128.040061 41.280005 
L 128.344729 27.068798 
L 128.649397 23.250397 
L 128.954066 30.588059 
L 129.258734 81.809959 
L 129.563402 102.723269 
L 129.86807 138.356756 
L 130.172739 133.370573 
L 130.477407 184.339469 
L 130.782075 205.753517 
L 131.086744 214.756364 
L 131.69608 177.765002 
L 132.000749 145.993664 
L 132.610085 64.623514 
L 132.914754 61.297039 
L 133.219422 49.621983 
L 133.52409 48.289077 
L 133.828758 52.441944 
L 134.438095 94.310069 
L 134.742763 127.261879 
L 135.047432 137.899027 
L 135.3521 156.542693 
L 135.656768 207.821302 
L 135.961437 179.556976 
L 136.266105 193.609134 
L 136.570773 188.698532 
L 136.875441 139.082188 
L 137.18011 122.862931 
L 137.484778 97.47843 
L 137.789446 40.357693 
L 138.094115 42.089023 
L 138.398783 20.264798 
L 138.703451 32.730107 
L 139.00812 76.208556 
L 139.617456 114.065772 
L 140.226793 153.534981 
L 140.531461 191.887893 
L 140.836129 208.28365 
L 141.140798 178.380723 
L 141.445466 176.991371 
L 142.054803 100.751582 
L 142.664139 60.983027 
L 142.968808 26.6242 
L 143.273476 17.083636 
L 144.187481 99.851006 
L 144.492149 105.410131 
L 144.796817 159.533808 
L 145.101486 186.714516 
L 145.406154 176.214796 
L 145.710822 190.714661 
L 146.015491 190.846013 
L 146.320159 155.18714 
L 146.624827 148.295694 
L 146.929496 109.25795 
L 147.234164 85.166652 
L 147.538832 42.80098 
L 147.8435 51.241881 
L 148.148169 46.570838 
L 148.452837 31.084836 
L 148.757505 37.506987 
L 149.062174 92.235387 
L 150.280847 203.422399 
L 150.585515 213.498387 
L 150.890184 176.079853 
L 151.49952 143.189014 
L 151.804188 140.39311 
L 152.108857 84.871081 
L 152.413525 55.047083 
L 153.022862 31.905745 
L 153.32753 47.815958 
L 153.632198 39.890536 
L 153.936867 64.94152 
L 154.241535 118.092678 
L 154.850871 159.599145 
L 155.15554 173.198108 
L 155.460208 204.442079 
L 156.069545 182.769029 
L 156.374213 143.13199 
L 156.678881 133.180777 
L 157.288218 49.435008 
L 157.592886 63.893459 
L 157.897555 24.199298 
L 158.202223 55.132007 
L 158.506891 55.615074 
L 158.811559 60.878034 
L 159.420896 120.258939 
L 159.725564 171.321159 
L 160.030233 170.670164 
L 160.334901 198.868697 
L 160.639569 203.713635 
L 161.553574 148.95928 
L 162.162911 51.52064 
L 162.467579 60.609328 
L 163.076916 33.116308 
L 163.381584 47.072844 
L 163.686252 51.707726 
L 163.990921 79.220464 
L 164.295589 137.841892 
L 164.600257 173.81387 
L 164.904926 169.212196 
L 165.209594 212.16972 
L 165.514262 177.44672 
L 165.81893 173.052469 
L 166.123599 154.747968 
L 166.428267 128.658746 
L 167.037604 59.583435 
L 167.64694 19.563319 
L 167.951609 32.58218 
L 168.256277 34.390244 
L 168.865613 100.41637 
L 169.170282 136.804898 
L 169.47495 159.106495 
L 169.779618 172.348436 
L 170.084287 175.25453 
L 170.388955 192.681304 
L 170.693623 168.93375 
L 170.998292 159.496888 
L 171.30296 134.43134 
L 171.607628 120.186971 
L 171.912297 96.162896 
L 172.216965 39.017347 
L 172.521633 19.220226 
L 173.13097 62.115009 
L 174.349643 149.874624 
L 174.95898 205.636337 
L 175.263648 195.360549 
L 175.568316 168.137233 
L 175.872984 151.703767 
L 176.177653 158.04811 
L 176.786989 82.080179 
L 177.091658 72.099168 
L 177.396326 48.293354 
L 177.700994 47.707895 
L 178.005663 24.18605 
L 178.614999 74.452651 
L 179.224336 158.768291 
L 179.529004 180.400204 
L 179.833672 174.518823 
L 180.138341 205.914579 
L 180.443009 171.732125 
L 180.747677 181.574693 
L 181.357014 109.38543 
L 181.966351 72.261532 
L 182.271019 21.641605 
L 182.880355 43.884122 
L 183.185024 64.741235 
L 183.489692 73.269862 
L 184.403697 174.363251 
L 184.708365 204.806859 
L 185.013034 209.38654 
L 185.317702 189.521914 
L 185.62237 152.599995 
L 185.927039 135.479737 
L 186.231707 98.429715 
L 186.536375 100.160832 
L 187.145712 31.281591 
L 187.45038 26.664186 
L 187.755048 24.255288 
L 188.059717 38.268058 
L 188.669053 99.928984 
L 189.27839 181.184582 
L 189.583058 169.899389 
L 189.887727 201.098047 
L 190.192395 179.696668 
L 190.497063 183.673018 
L 191.1064 103.817178 
L 191.411068 104.267616 
L 192.020405 57.106777 
L 192.325073 50.442041 
L 192.629741 19.356133 
L 193.239078 59.533851 
L 193.543746 116.273024 
L 194.457751 205.179134 
L 194.762419 210.937737 
L 195.067088 196.373501 
L 195.371756 192.307137 
L 195.676424 140.307024 
L 195.981093 137.997781 
L 196.895098 51.490642 
L 197.199766 45.994053 
L 197.504434 32.944105 
L 198.113771 80.319559 
L 198.418439 100.276279 
L 198.723107 143.072057 
L 199.027776 143.866075 
L 199.637112 182.278123 
L 199.941781 193.632917 
L 200.246449 193.159104 
L 201.160454 105.819399 
L 201.76979 64.311425 
L 202.074459 55.915451 
L 202.379127 53.562269 
L 202.988464 63.028239 
L 203.293132 82.734804 
L 203.5978 133.885783 
L 203.902469 163.321574 
L 204.511805 180.50234 
L 204.816473 181.693663 
L 205.121142 170.697579 
L 205.42581 153.265568 
L 205.730478 144.220337 
L 206.035147 110.008881 
L 206.339815 52.29011 
L 206.644483 39.864142 
L 206.949152 33.966835 
L 207.25382 36.184765 
L 207.558488 30.617722 
L 207.863156 64.662086 
L 208.167825 115.086504 
L 208.777161 175.738811 
L 209.08183 179.795063 
L 209.386498 179.700961 
L 209.691166 206.624238 
L 209.995835 193.766283 
L 210.605171 140.547253 
L 210.90984 99.082139 
L 211.214508 88.812297 
L 211.519176 54.208136 
L 211.823844 37.385161 
L 212.128513 38.321302 
L 212.433181 39.908769 
L 213.042518 87.247318 
L 213.956523 186.345507 
L 214.261191 202.532654 
L 214.870527 189.02366 
L 215.175196 148.754283 
L 215.479864 131.004784 
L 216.089201 60.131815 
L 216.393869 72.960699 
L 216.698537 23.030509 
L 217.003206 53.328027 
L 217.307874 54.211737 
L 217.612542 56.300828 
L 217.917211 107.207387 
L 218.221879 136.305833 
L 218.526547 147.549539 
L 218.831215 185.796354 
L 219.135884 204.929429 
L 219.440552 178.466548 
L 219.74522 189.704424 
L 220.963894 82.842154 
L 221.877898 26.526243 
L 222.182567 24.840478 
L 222.487235 45.784381 
L 223.096572 136.16034 
L 223.40124 134.989779 
L 223.705908 166.983925 
L 224.315245 181.302801 
L 224.619913 176.345774 
L 225.533918 103.251838 
L 225.838586 63.233833 
L 226.752591 24.544708 
L 227.05726 52.341908 
L 227.361928 48.908935 
L 227.971265 120.341128 
L 228.275933 125.837204 
L 228.88527 189.000535 
L 229.189938 187.448204 
L 229.494606 194.581608 
L 229.799274 183.188501 
L 230.103943 127.626494 
L 230.408611 113.493258 
L 231.322616 27.490424 
L 231.931953 31.45327 
L 232.236621 69.980514 
L 232.541289 90.444313 
L 232.845957 97.793264 
L 233.455294 154.978571 
L 233.759962 206.32751 
L 234.064631 189.943835 
L 234.369299 203.300159 
L 234.673967 194.760163 
L 235.283304 122.467279 
L 235.587972 108.936963 
L 235.892641 44.73908 
L 236.197309 53.177128 
L 236.501977 37.136336 
L 236.806645 30.048245 
L 237.111314 65.136816 
L 237.415982 83.95231 
L 237.72065 123.939252 
L 238.025319 137.144906 
L 238.329987 167.766186 
L 238.634655 174.281178 
L 238.939324 193.533445 
L 239.243992 200.390773 
L 240.157997 137.236104 
L 240.462665 92.97255 
L 240.767333 71.893526 
L 241.072002 61.328091 
L 241.37667 27.580154 
L 241.681338 33.307154 
L 242.290675 73.48182 
L 242.595343 98.898408 
L 242.900012 149.339332 
L 243.20468 159.884954 
L 243.509348 178.825497 
L 243.814016 175.209671 
L 244.118685 180.588094 
L 244.728021 155.556222 
L 245.337358 76.66409 
L 245.642026 76.337903 
L 245.946695 42.135228 
L 246.251363 31.297159 
L 246.556031 24.527949 
L 246.860699 67.782056 
L 247.165368 63.021484 
L 247.470036 111.461815 
L 248.079373 144.721891 
L 248.688709 206.670859 
L 249.602714 160.779127 
L 250.212051 109.431278 
L 250.516719 71.907383 
L 250.821387 50.653647 
L 251.126056 54.190474 
L 251.430724 49.51865 
L 251.735392 27.601544 
L 252.649397 133.176312 
L 252.954066 176.588349 
L 253.258734 161.950727 
L 253.563402 201.833653 
L 253.86807 182.399359 
L 254.172739 181.083412 
L 254.477407 166.190985 
L 255.086744 117.240751 
L 255.391412 62.119637 
L 255.69608 48.22436 
L 256.000749 23.14088 
L 256.305417 30.898062 
L 256.914754 53.179778 
L 257.219422 74.10639 
L 257.828758 166.352752 
L 258.133427 174.364775 
L 258.438095 205.111713 
L 258.742763 174.650097 
L 259.047432 198.178274 
L 259.961437 106.685303 
L 261.18011 28.479733 
L 261.484778 31.573993 
L 261.789446 48.47241 
L 262.703451 157.449138 
L 263.00812 163.970674 
L 263.617456 188.243737 
L 263.922125 205.793908 
L 264.226793 183.253094 
L 264.836129 104.679055 
L 265.140798 88.423125 
L 265.445466 46.242217 
L 265.750134 53.616502 
L 266.359471 27.488689 
L 266.664139 65.894396 
L 266.968808 86.104349 
L 267.273476 131.035835 
L 267.882812 178.505896 
L 268.187481 187.970253 
L 268.492149 207.462957 
L 268.796817 197.370715 
L 269.101486 168.958251 
L 269.406154 129.133532 
L 270.320159 72.123546 
L 270.624827 24.753929 
L 270.929496 34.93739 
L 271.234164 57.255145 
L 271.538832 39.60688 
L 272.757505 173.295516 
L 273.062174 186.497433 
L 273.366842 191.393722 
L 273.67151 173.862964 
L 274.280847 157.926722 
L 274.585515 100.119904 
L 275.194852 48.170568 
L 275.804188 29.795465 
L 276.108857 36.679788 
L 276.413525 63.54979 
L 276.718193 72.252249 
L 277.022862 109.693918 
L 277.32753 160.994924 
L 277.632198 164.579431 
L 277.936867 176.715728 
L 278.241535 194.90484 
L 278.546203 191.486058 
L 278.850871 157.231677 
L 279.15554 146.245893 
L 279.460208 128.237265 
L 279.764876 75.866367 
L 280.069545 45.251174 
L 280.374213 57.687113 
L 280.678881 54.68212 
L 280.98355 58.406905 
L 281.288218 44.439226 
L 281.592886 93.250472 
L 281.897555 93.255119 
L 282.811559 200.524353 
L 283.116228 183.991167 
L 283.420896 185.90498 
L 283.725564 173.882908 
L 284.030233 136.441527 
L 284.334901 126.343059 
L 284.639569 83.910937 
L 284.944238 85.625439 
L 285.248906 39.208323 
L 285.553574 39.611691 
L 285.858242 26.201256 
L 286.162911 61.926096 
L 286.467579 58.267452 
L 286.772247 84.813778 
L 287.076916 145.290974 
L 287.381584 145.633958 
L 287.990921 211.396591 
L 288.295589 178.524016 
L 288.600257 169.136016 
L 288.904926 175.774096 
L 289.514262 90.696868 
L 289.81893 74.937633 
L 290.123599 41.069719 
L 290.428267 46.899717 
L 290.732935 55.803969 
L 291.037604 59.085547 
L 291.64694 98.82303 
L 291.951609 143.208801 
L 292.256277 157.256922 
L 292.560945 201.368351 
L 292.865613 202.732104 
L 293.779618 168.990799 
L 294.388955 104.907182 
L 295.30296 35.041248 
L 295.607628 41.313309 
L 295.912297 38.381206 
L 296.521633 108.061212 
L 296.826301 112.900539 
L 297.13097 165.682391 
L 297.435638 178.690821 
L 297.740306 206.055495 
L 298.044975 202.468193 
L 298.349643 182.859481 
L 298.654311 180.820976 
L 298.95898 117.530091 
L 299.263648 107.206893 
L 299.872984 48.861721 
L 300.177653 48.224573 
L 300.482321 27.62502 
L 300.786989 34.653736 
L 301.396326 84.150542 
L 302.005663 158.449209 
L 302.310331 170.953278 
L 302.614999 173.13756 
L 302.919668 189.881693 
L 303.224336 179.995969 
L 303.529004 177.123823 
L 303.833672 120.983159 
L 304.138341 94.871167 
L 304.443009 88.762225 
L 305.052346 47.635674 
L 305.357014 40.853058 
L 305.661682 28.666769 
L 305.966351 43.918638 
L 306.271019 90.878554 
L 307.489692 197.848206 
L 307.79436 201.593237 
L 309.927039 26.043661 
L 310.231707 34.064968 
L 310.536375 61.323415 
L 310.841043 61.82771 
L 311.145712 84.438548 
L 311.755048 146.354134 
L 312.059717 164.554703 
L 312.364385 206.026478 
L 312.669053 212.638392 
L 312.973722 197.366632 
L 313.27839 155.907611 
L 313.583058 146.473476 
L 313.887727 95.491282 
L 314.497063 57.64528 
L 314.801731 32.499024 
L 315.1064 34.988113 
L 315.411068 43.488294 
L 315.715736 74.093852 
L 316.020405 71.989644 
L 316.325073 95.221287 
L 316.93441 164.645469 
L 317.239078 182.256939 
L 317.543746 185.065397 
L 317.848414 174.657565 
L 318.153083 193.01328 
L 318.457751 135.810849 
L 318.762419 112.666301 
L 319.067088 76.267802 
L 319.371756 69.755713 
L 319.676424 50.639526 
L 319.981093 47.01587 
L 320.285761 26.21822 
L 320.895098 64.407887 
L 321.504434 156.629871 
L 321.809102 166.118252 
L 322.418439 202.490533 
L 322.723107 202.794911 
L 323.027776 181.193158 
L 323.332444 169.340743 
L 323.637112 106.661572 
L 323.941781 91.083393 
L 324.551117 28.830021 
L 324.855785 25.01096 
L 325.160454 30.170824 
L 325.465122 72.076658 
L 325.76979 81.109041 
L 326.074459 122.201753 
L 326.988464 187.6504 
L 327.293132 184.060541 
L 327.5978 199.516946 
L 327.902469 160.630741 
L 328.207137 169.147724 
L 328.511805 145.065144 
L 328.816473 104.016129 
L 329.121142 46.695461 
L 329.42581 62.843011 
L 329.730478 44.584895 
L 330.035147 51.002919 
L 330.339815 52.349114 
L 330.644483 73.116196 
L 331.25382 126.793061 
L 331.558488 154.778631 
L 331.863156 169.628528 
L 332.167825 191.548165 
L 332.472493 197.331037 
L 333.386498 138.110124 
L 333.691166 96.370845 
L 333.995835 74.162483 
L 334.300503 27.753702 
L 334.605171 53.085863 
L 334.90984 46.732976 
L 335.214508 62.074442 
L 335.519176 85.289988 
L 335.823844 92.719924 
L 336.128513 135.031306 
L 336.433181 145.976489 
L 336.737849 192.067318 
L 337.042518 188.306736 
L 337.347186 187.748406 
L 337.651854 188.961277 
L 338.261191 121.176786 
L 339.175196 32.758992 
L 339.479864 23.337965 
L 339.784532 21.584269 
L 340.089201 62.040828 
L 340.393869 87.412171 
L 340.698537 94.856716 
L 341.003206 139.752546 
L 341.307874 155.514942 
L 341.917211 210.991756 
L 342.221879 204.133936 
L 342.526547 171.229832 
L 342.831215 150.568912 
L 343.135884 146.027273 
L 343.440552 86.389347 
L 343.74522 61.707755 
L 344.049889 47.130044 
L 344.354557 25.178324 
L 344.659225 20.753149 
L 344.963894 63.771006 
L 345.268562 79.150654 
L 345.57323 88.104513 
L 345.877898 140.707219 
L 346.182567 138.474356 
L 346.791903 197.399026 
L 347.096572 205.522274 
L 347.40124 197.533692 
L 347.705908 169.279629 
L 348.315245 91.477912 
L 348.619913 92.714225 
L 348.924582 37.663431 
L 349.22925 25.885177 
L 349.533918 47.118446 
L 349.838586 46.527417 
L 350.143255 52.175393 
L 350.752591 140.287747 
L 351.05726 142.488866 
L 351.361928 157.95059 
L 351.971265 204.375989 
L 352.275933 167.395106 
L 352.580601 154.906314 
L 352.88527 159.010778 
L 353.189938 129.959744 
L 353.494606 73.053781 
L 353.799274 67.730056 
L 354.103943 24.33177 
L 354.408611 42.670018 
L 354.713279 25.611488 
L 355.627284 125.900583 
L 356.236621 179.284631 
L 356.541289 182.458443 
L 356.845957 180.897069 
L 357.150626 201.527 
L 357.455294 178.286749 
L 357.759962 140.800572 
L 358.064631 117.330086 
L 358.064631 117.330086 
" clip-path="url(#p7b1801643d)" style="fill: none; stroke: #1f77b4; stroke-width: 1.5; stroke-linecap: square"/>
   </g>
   <g id="patch_3">
    <path d="M 38.482813 224.64 
L 38.482813 7.2 
" style="fill: none; stroke: #000000; stroke-width: 0.8; stroke-linejoin: miter; stroke-linecap: square"/>
   </g>
   <g id="patch_4">
    <path d="M 373.282813 224.64 
L 373.282813 7.2 
" style="fill: none; stroke: #000000; stroke-width: 0.8; stroke-linejoin: miter; stroke-linecap: square"/>
   </g>
   <g id="patch_5">
    <path d="M 38.482813 224.64 
L 373.282813 224.64 
" style="fill: none; stroke: #000000; stroke-width: 0.8; stroke-linejoin: miter; stroke-linecap: square"/>
   </g>
   <g id="patch_6">
    <path d="M 38.482813 7.2 
L 373.282813 7.2 
" style="fill: none; stroke: #000000; stroke-width: 0.8; stroke-linejoin: miter; stroke-linecap: square"/>
   </g>
  </g>
 </g>
 <defs>
  <clipPath id="p7b1801643d">
   <rect x="38.482813" y="7.2" width="334.8" height="217.44"/>
  </clipPath>
 </defs>
</svg>
