<?xml version="1.0" encoding="utf-8" standalone="no"?>
<!DOCTYPE svg PUBLIC "-//W3C//DTD SVG 1.1//EN"
  "http://www.w3.org/Graphics/SVG/1.1/DTD/svg11.dtd">
<svg xmlns:xlink="http://www.w3.org/1999/xlink" width="388.965625pt" height="262.19625pt" viewBox="0 0 388.965625 262.19625" xmlns="http://www.w3.org/2000/svg" version="1.1">
 <metadata>
  <rdf:RDF xmlns:dc="http://purl.org/dc/elements/1.1/" xmlns:cc="http://creativecommons.org/ns#" xmlns:rdf="http://www.w3.org/1999/02/22-rdf-syntax-ns#">
   <cc:Work>
    <dc:type rdf:resource="http://purl.org/dc/dcmitype/StillImage"/>
    <dc:date>2022-08-27T11:33:12.029351</dc:date>
    <dc:format>image/svg+xml</dc:format>
    <dc:creator>
     <cc:Agent>
      <dc:title>Matplotlib v3.5.2, https://matplotlib.org/</dc:title>
     </cc:Agent>
    </dc:creator>
   </cc:Work>
  </rdf:RDF>
 </metadata>
 <defs>
  <style type="text/css">*{stroke-linejoin: round; stroke-linecap: butt}</style>
 </defs>
 <g id="figure_1">
  <g id="patch_1">
   <path d="M -0 262.19625 
L 388.965625 262.19625 
L 388.965625 0 
L -0 0 
L -0 262.19625 
z
" style="fill: none"/>
  </g>
  <g id="axes_1">
   <g id="patch_2">
    <path d="M 46.965625 224.64 
L 381.765625 224.64 
L 381.765625 7.2 
L 46.965625 7.2 
z
" style="fill: #ffffff"/>
   </g>
   <g id="PathCollection_1">
    <defs>
     <path id="md9d0482444" d="M 0 3 
C 0.795609 3 1.55874 2.683901 2.12132 2.12132 
C 2.683901 1.55874 3 0.795609 3 0 
C 3 -0.795609 2.683901 -1.55874 2.12132 -2.12132 
C 1.55874 -2.683901 0.795609 -3 0 -3 
C -0.795609 -3 -1.55874 -2.683901 -2.12132 -2.12132 
C -2.683901 -1.55874 -3 -0.795609 -3 0 
C -3 0.795609 -2.683901 1.55874 -2.12132 2.12132 
C -1.55874 2.683901 -0.795609 3 0 3 
z
" style="stroke: #1f77b4; stroke-opacity: 0.8"/>
    </defs>
    <g clip-path="url(#p62e2d48051)">
     <use xlink:href="#md9d0482444" x="62.183807" y="163.214579" style="fill: #1f77b4; fill-opacity: 0.8; stroke: #1f77b4; stroke-opacity: 0.8"/>
     <use xlink:href="#md9d0482444" x="93.06032" y="153.028174" style="fill: #1f77b4; fill-opacity: 0.8; stroke: #1f77b4; stroke-opacity: 0.8"/>
     <use xlink:href="#md9d0482444" x="123.936834" y="137.356783" style="fill: #1f77b4; fill-opacity: 0.8; stroke: #1f77b4; stroke-opacity: 0.8"/>
     <use xlink:href="#md9d0482444" x="154.79134" y="121.685391" style="fill: #1f77b4; fill-opacity: 0.8; stroke: #1f77b4; stroke-opacity: 0.8"/>
     <use xlink:href="#md9d0482444" x="185.667853" y="105.23043" style="fill: #1f77b4; fill-opacity: 0.8; stroke: #1f77b4; stroke-opacity: 0.8"/>
     <use xlink:href="#md9d0482444" x="216.544367" y="91.126178" style="fill: #1f77b4; fill-opacity: 0.8; stroke: #1f77b4; stroke-opacity: 0.8"/>
     <use xlink:href="#md9d0482444" x="247.398873" y="76.238356" style="fill: #1f77b4; fill-opacity: 0.8; stroke: #1f77b4; stroke-opacity: 0.8"/>
     <use xlink:href="#md9d0482444" x="278.275386" y="61.350534" style="fill: #1f77b4; fill-opacity: 0.8; stroke: #1f77b4; stroke-opacity: 0.8"/>
     <use xlink:href="#md9d0482444" x="309.129892" y="48.029851" style="fill: #1f77b4; fill-opacity: 0.8; stroke: #1f77b4; stroke-opacity: 0.8"/>
     <use xlink:href="#md9d0482444" x="340.006406" y="32.35846" style="fill: #1f77b4; fill-opacity: 0.8; stroke: #1f77b4; stroke-opacity: 0.8"/>
     <use xlink:href="#md9d0482444" x="150.455864" y="185.938096" style="fill: #1f77b4; fill-opacity: 0.8; stroke: #1f77b4; stroke-opacity: 0.8"/>
     <use xlink:href="#md9d0482444" x="181.332377" y="160.0803" style="fill: #1f77b4; fill-opacity: 0.8; stroke: #1f77b4; stroke-opacity: 0.8"/>
     <use xlink:href="#md9d0482444" x="212.208891" y="137.356783" style="fill: #1f77b4; fill-opacity: 0.8; stroke: #1f77b4; stroke-opacity: 0.8"/>
     <use xlink:href="#md9d0482444" x="243.063397" y="115.416835" style="fill: #1f77b4; fill-opacity: 0.8; stroke: #1f77b4; stroke-opacity: 0.8"/>
     <use xlink:href="#md9d0482444" x="273.93991" y="95.827595" style="fill: #1f77b4; fill-opacity: 0.8; stroke: #1f77b4; stroke-opacity: 0.8"/>
     <use xlink:href="#md9d0482444" x="304.816424" y="77.805495" style="fill: #1f77b4; fill-opacity: 0.8; stroke: #1f77b4; stroke-opacity: 0.8"/>
     <use xlink:href="#md9d0482444" x="335.67093" y="60.566964" style="fill: #1f77b4; fill-opacity: 0.8; stroke: #1f77b4; stroke-opacity: 0.8"/>
     <use xlink:href="#md9d0482444" x="366.547443" y="44.895573" style="fill: #1f77b4; fill-opacity: 0.8; stroke: #1f77b4; stroke-opacity: 0.8"/>
     <use xlink:href="#md9d0482444" x="181.332377" y="164.781718" style="fill: #1f77b4; fill-opacity: 0.8; stroke: #1f77b4; stroke-opacity: 0.8"/>
     <use xlink:href="#md9d0482444" x="243.063397" y="122.468961" style="fill: #1f77b4; fill-opacity: 0.8; stroke: #1f77b4; stroke-opacity: 0.8"/>
     <use xlink:href="#md9d0482444" x="150.455864" y="192.206653" style="fill: #1f77b4; fill-opacity: 0.8; stroke: #1f77b4; stroke-opacity: 0.8"/>
     <use xlink:href="#md9d0482444" x="212.208891" y="151.461035" style="fill: #1f77b4; fill-opacity: 0.8; stroke: #1f77b4; stroke-opacity: 0.8"/>
     <use xlink:href="#md9d0482444" x="154.79134" y="129.521087" style="fill: #1f77b4; fill-opacity: 0.8; stroke: #1f77b4; stroke-opacity: 0.8"/>
     <use xlink:href="#md9d0482444" x="154.79134" y="149.110326" style="fill: #1f77b4; fill-opacity: 0.8; stroke: #1f77b4; stroke-opacity: 0.8"/>
     <use xlink:href="#md9d0482444" x="185.667853" y="111.498987" style="fill: #1f77b4; fill-opacity: 0.8; stroke: #1f77b4; stroke-opacity: 0.8"/>
     <use xlink:href="#md9d0482444" x="216.544367" y="108.364708" style="fill: #1f77b4; fill-opacity: 0.8; stroke: #1f77b4; stroke-opacity: 0.8"/>
     <use xlink:href="#md9d0482444" x="247.398873" y="104.446861" style="fill: #1f77b4; fill-opacity: 0.8; stroke: #1f77b4; stroke-opacity: 0.8"/>
     <use xlink:href="#md9d0482444" x="198.78432" y="71.536938" style="fill: #1f77b4; fill-opacity: 0.8; stroke: #1f77b4; stroke-opacity: 0.8"/>
     <use xlink:href="#md9d0482444" x="229.660833" y="55.865547" style="fill: #1f77b4; fill-opacity: 0.8; stroke: #1f77b4; stroke-opacity: 0.8"/>
     <use xlink:href="#md9d0482444" x="291.391853" y="41.761295" style="fill: #1f77b4; fill-opacity: 0.8; stroke: #1f77b4; stroke-opacity: 0.8"/>
    </g>
   </g>
   <g id="PolyCollection_1">
    <path d="M 62.183807 168.64013 
L 62.183807 214.756364 
L 65.258187 212.888067 
L 68.332567 211.01977 
L 71.406947 209.151473 
L 74.481327 207.283177 
L 77.555708 205.41488 
L 80.630088 203.546583 
L 83.704468 201.602432 
L 86.778848 199.588764 
L 89.853228 197.575096 
L 92.927608 195.561428 
L 96.001989 193.54776 
L 99.076369 191.529997 
L 102.150749 189.607688 
L 105.225129 187.708544 
L 108.299509 185.760835 
L 111.373889 183.593103 
L 114.44827 181.429658 
L 117.52265 179.409591 
L 120.59703 177.394625 
L 123.67141 175.382064 
L 126.74579 173.369502 
L 129.82017 171.354134 
L 132.894551 169.49354 
L 135.968931 167.637923 
L 139.043311 165.594324 
L 142.117691 163.686879 
L 145.192071 161.828454 
L 148.266451 159.970028 
L 151.340832 158.111603 
L 154.415212 156.253177 
L 157.489592 154.515763 
L 160.563972 152.535876 
L 163.638352 150.677901 
L 166.712732 148.819476 
L 169.787113 147.030717 
L 172.861493 145.097771 
L 175.935873 143.450188 
L 179.010253 141.721271 
L 182.084633 139.908523 
L 185.159013 137.974729 
L 188.233394 135.979426 
L 191.307774 134.131606 
L 194.382154 132.369294 
L 197.456534 130.298105 
L 200.530914 128.63306 
L 203.605294 126.9688 
L 206.679675 125.202088 
L 209.754055 123.528542 
L 212.828435 121.670986 
L 215.902815 119.960197 
L 218.977195 118.163423 
L 222.051575 116.752013 
L 225.125956 114.988093 
L 228.200336 113.413852 
L 231.274716 111.816769 
L 234.349096 110.207345 
L 237.423476 108.688157 
L 240.497856 107.138076 
L 243.572237 105.561477 
L 246.646617 104.007349 
L 249.720997 102.451267 
L 252.795377 100.992684 
L 255.869757 99.529595 
L 258.944137 97.903262 
L 262.018518 96.50753 
L 265.092898 95.210634 
L 268.167278 93.69657 
L 271.241658 92.171615 
L 274.316038 90.780365 
L 277.390418 89.325273 
L 280.464799 87.917193 
L 283.539179 86.491022 
L 286.613559 85.007968 
L 289.687939 83.652651 
L 292.762319 82.319126 
L 295.836699 80.845283 
L 298.91108 79.372483 
L 301.98546 77.957104 
L 305.05984 76.547457 
L 308.13422 75.137413 
L 311.2086 73.725145 
L 314.28298 72.348564 
L 317.357361 71.055624 
L 320.431741 69.618126 
L 323.506121 68.215759 
L 326.580501 66.802265 
L 329.654881 65.464403 
L 332.729261 64.124189 
L 335.803642 62.77856 
L 338.878022 61.43293 
L 341.952402 60.022387 
L 345.026782 58.695072 
L 348.101162 57.367756 
L 351.175542 56.047713 
L 354.249923 54.730193 
L 357.324303 53.38581 
L 360.398683 52.048679 
L 363.473063 50.708541 
L 366.547443 49.404874 
L 366.547443 17.083636 
L 366.547443 17.083636 
L 363.473063 18.842922 
L 360.398683 20.602208 
L 357.324303 22.361494 
L 354.249923 24.20268 
L 351.175542 26.279396 
L 348.101162 28.356802 
L 345.026782 30.197471 
L 341.952402 32.127894 
L 338.878022 34.033036 
L 335.803642 35.901519 
L 332.729261 37.966932 
L 329.654881 40.032344 
L 326.580501 41.91067 
L 323.506121 43.636978 
L 320.431741 45.429137 
L 317.357361 47.173285 
L 314.28298 48.917433 
L 311.2086 50.664094 
L 308.13422 52.407436 
L 305.05984 54.154575 
L 301.98546 56.004695 
L 298.91108 57.670267 
L 295.836699 59.638987 
L 292.762319 61.364789 
L 289.687939 63.003004 
L 286.613559 64.677511 
L 283.539179 66.367884 
L 280.464799 68.111452 
L 277.390418 69.852158 
L 274.316038 71.602141 
L 271.241658 73.259709 
L 268.167278 75.091098 
L 265.092898 76.834271 
L 262.018518 78.469546 
L 258.944137 80.180064 
L 255.869757 81.765465 
L 252.795377 83.452671 
L 249.720997 84.933802 
L 246.646617 86.354467 
L 243.572237 87.92068 
L 240.497856 89.452665 
L 237.423476 91.111167 
L 234.349096 92.57874 
L 231.274716 94.132255 
L 228.200336 95.64293 
L 225.125956 97.00913 
L 222.051575 98.325101 
L 218.977195 99.62177 
L 215.902815 100.928072 
L 212.828435 102.233338 
L 209.754055 103.538703 
L 206.679675 104.846087 
L 203.605294 106.167568 
L 200.530914 107.527258 
L 197.456534 108.880467 
L 194.382154 110.097247 
L 191.307774 111.369333 
L 188.233394 112.680734 
L 185.159013 113.988715 
L 182.084633 115.360306 
L 179.010253 116.872262 
L 175.935873 118.261883 
L 172.861493 119.585813 
L 169.787113 121.071561 
L 166.712732 122.395796 
L 163.638352 123.825281 
L 160.563972 125.275912 
L 157.489592 126.702301 
L 154.415212 128.123196 
L 151.340832 129.457411 
L 148.266451 130.791625 
L 145.192071 132.151698 
L 142.117691 133.518797 
L 139.043311 134.885897 
L 135.968931 136.252996 
L 132.894551 137.621306 
L 129.82017 138.990183 
L 126.74579 140.339123 
L 123.67141 141.726415 
L 120.59703 143.084513 
L 117.52265 144.426992 
L 114.44827 145.809349 
L 111.373889 147.089391 
L 108.299509 148.384855 
L 105.225129 149.646528 
L 102.150749 150.973971 
L 99.076369 152.351272 
L 96.001989 153.731037 
L 92.927608 155.128088 
L 89.853228 156.488515 
L 86.778848 157.865734 
L 83.704468 159.242953 
L 80.630088 160.620173 
L 77.555708 161.997392 
L 74.481327 163.374611 
L 71.406947 164.699767 
L 68.332567 166.013094 
L 65.258187 167.326612 
L 62.183807 168.64013 
z
" clip-path="url(#p62e2d48051)" style="fill: #1f77b4; fill-opacity: 0.15"/>
   </g>
   <g id="matplotlib.axis_1">
    <g id="xtick_1">
     <g id="line2d_1">
      <defs>
       <path id="m8fd1d7975e" d="M 0 0 
L 0 3.5 
" style="stroke: #000000; stroke-width: 0.8"/>
      </defs>
      <g>
       <use xlink:href="#m8fd1d7975e" x="79.701772" y="224.64" style="stroke: #000000; stroke-width: 0.8"/>
      </g>
     </g>
     <g id="text_1">
      <!-- 40 -->
      <g transform="translate(73.339272 239.238437)scale(0.1 -0.1)">
       <defs>
        <path id="DejaVuSans-34" d="M 2419 4116 
L 825 1625 
L 2419 1625 
L 2419 4116 
z
M 2253 4666 
L 3047 4666 
L 3047 1625 
L 3713 1625 
L 3713 1100 
L 3047 1100 
L 3047 0 
L 2419 0 
L 2419 1100 
L 313 1100 
L 313 1709 
L 2253 4666 
z
" transform="scale(0.015625)"/>
        <path id="DejaVuSans-30" d="M 2034 4250 
Q 1547 4250 1301 3770 
Q 1056 3291 1056 2328 
Q 1056 1369 1301 889 
Q 1547 409 2034 409 
Q 2525 409 2770 889 
Q 3016 1369 3016 2328 
Q 3016 3291 2770 3770 
Q 2525 4250 2034 4250 
z
M 2034 4750 
Q 2819 4750 3233 4129 
Q 3647 3509 3647 2328 
Q 3647 1150 3233 529 
Q 2819 -91 2034 -91 
Q 1250 -91 836 529 
Q 422 1150 422 2328 
Q 422 3509 836 4129 
Q 1250 4750 2034 4750 
z
" transform="scale(0.015625)"/>
       </defs>
       <use xlink:href="#DejaVuSans-34"/>
       <use xlink:href="#DejaVuSans-30" x="63.623047"/>
      </g>
     </g>
    </g>
    <g id="xtick_2">
     <g id="line2d_2">
      <g>
       <use xlink:href="#m8fd1d7975e" x="123.716759" y="224.64" style="stroke: #000000; stroke-width: 0.8"/>
      </g>
     </g>
     <g id="text_2">
      <!-- 60 -->
      <g transform="translate(117.354259 239.238437)scale(0.1 -0.1)">
       <defs>
        <path id="DejaVuSans-36" d="M 2113 2584 
Q 1688 2584 1439 2293 
Q 1191 2003 1191 1497 
Q 1191 994 1439 701 
Q 1688 409 2113 409 
Q 2538 409 2786 701 
Q 3034 994 3034 1497 
Q 3034 2003 2786 2293 
Q 2538 2584 2113 2584 
z
M 3366 4563 
L 3366 3988 
Q 3128 4100 2886 4159 
Q 2644 4219 2406 4219 
Q 1781 4219 1451 3797 
Q 1122 3375 1075 2522 
Q 1259 2794 1537 2939 
Q 1816 3084 2150 3084 
Q 2853 3084 3261 2657 
Q 3669 2231 3669 1497 
Q 3669 778 3244 343 
Q 2819 -91 2113 -91 
Q 1303 -91 875 529 
Q 447 1150 447 2328 
Q 447 3434 972 4092 
Q 1497 4750 2381 4750 
Q 2619 4750 2861 4703 
Q 3103 4656 3366 4563 
z
" transform="scale(0.015625)"/>
       </defs>
       <use xlink:href="#DejaVuSans-36"/>
       <use xlink:href="#DejaVuSans-30" x="63.623047"/>
      </g>
     </g>
    </g>
    <g id="xtick_3">
     <g id="line2d_3">
      <g>
       <use xlink:href="#m8fd1d7975e" x="167.731746" y="224.64" style="stroke: #000000; stroke-width: 0.8"/>
      </g>
     </g>
     <g id="text_3">
      <!-- 80 -->
      <g transform="translate(161.369246 239.238437)scale(0.1 -0.1)">
       <defs>
        <path id="DejaVuSans-38" d="M 2034 2216 
Q 1584 2216 1326 1975 
Q 1069 1734 1069 1313 
Q 1069 891 1326 650 
Q 1584 409 2034 409 
Q 2484 409 2743 651 
Q 3003 894 3003 1313 
Q 3003 1734 2745 1975 
Q 2488 2216 2034 2216 
z
M 1403 2484 
Q 997 2584 770 2862 
Q 544 3141 544 3541 
Q 544 4100 942 4425 
Q 1341 4750 2034 4750 
Q 2731 4750 3128 4425 
Q 3525 4100 3525 3541 
Q 3525 3141 3298 2862 
Q 3072 2584 2669 2484 
Q 3125 2378 3379 2068 
Q 3634 1759 3634 1313 
Q 3634 634 3220 271 
Q 2806 -91 2034 -91 
Q 1263 -91 848 271 
Q 434 634 434 1313 
Q 434 1759 690 2068 
Q 947 2378 1403 2484 
z
M 1172 3481 
Q 1172 3119 1398 2916 
Q 1625 2713 2034 2713 
Q 2441 2713 2670 2916 
Q 2900 3119 2900 3481 
Q 2900 3844 2670 4047 
Q 2441 4250 2034 4250 
Q 1625 4250 1398 4047 
Q 1172 3844 1172 3481 
z
" transform="scale(0.015625)"/>
       </defs>
       <use xlink:href="#DejaVuSans-38"/>
       <use xlink:href="#DejaVuSans-30" x="63.623047"/>
      </g>
     </g>
    </g>
    <g id="xtick_4">
     <g id="line2d_4">
      <g>
       <use xlink:href="#m8fd1d7975e" x="211.746733" y="224.64" style="stroke: #000000; stroke-width: 0.8"/>
      </g>
     </g>
     <g id="text_4">
      <!-- 100 -->
      <g transform="translate(202.202983 239.238437)scale(0.1 -0.1)">
       <defs>
        <path id="DejaVuSans-31" d="M 794 531 
L 1825 531 
L 1825 4091 
L 703 3866 
L 703 4441 
L 1819 4666 
L 2450 4666 
L 2450 531 
L 3481 531 
L 3481 0 
L 794 0 
L 794 531 
z
" transform="scale(0.015625)"/>
       </defs>
       <use xlink:href="#DejaVuSans-31"/>
       <use xlink:href="#DejaVuSans-30" x="63.623047"/>
       <use xlink:href="#DejaVuSans-30" x="127.246094"/>
      </g>
     </g>
    </g>
    <g id="xtick_5">
     <g id="line2d_5">
      <g>
       <use xlink:href="#m8fd1d7975e" x="255.76172" y="224.64" style="stroke: #000000; stroke-width: 0.8"/>
      </g>
     </g>
     <g id="text_5">
      <!-- 120 -->
      <g transform="translate(246.21797 239.238437)scale(0.1 -0.1)">
       <defs>
        <path id="DejaVuSans-32" d="M 1228 531 
L 3431 531 
L 3431 0 
L 469 0 
L 469 531 
Q 828 903 1448 1529 
Q 2069 2156 2228 2338 
Q 2531 2678 2651 2914 
Q 2772 3150 2772 3378 
Q 2772 3750 2511 3984 
Q 2250 4219 1831 4219 
Q 1534 4219 1204 4116 
Q 875 4013 500 3803 
L 500 4441 
Q 881 4594 1212 4672 
Q 1544 4750 1819 4750 
Q 2544 4750 2975 4387 
Q 3406 4025 3406 3419 
Q 3406 3131 3298 2873 
Q 3191 2616 2906 2266 
Q 2828 2175 2409 1742 
Q 1991 1309 1228 531 
z
" transform="scale(0.015625)"/>
       </defs>
       <use xlink:href="#DejaVuSans-31"/>
       <use xlink:href="#DejaVuSans-32" x="63.623047"/>
       <use xlink:href="#DejaVuSans-30" x="127.246094"/>
      </g>
     </g>
    </g>
    <g id="xtick_6">
     <g id="line2d_6">
      <g>
       <use xlink:href="#m8fd1d7975e" x="299.776708" y="224.64" style="stroke: #000000; stroke-width: 0.8"/>
      </g>
     </g>
     <g id="text_6">
      <!-- 140 -->
      <g transform="translate(290.232958 239.238437)scale(0.1 -0.1)">
       <use xlink:href="#DejaVuSans-31"/>
       <use xlink:href="#DejaVuSans-34" x="63.623047"/>
       <use xlink:href="#DejaVuSans-30" x="127.246094"/>
      </g>
     </g>
    </g>
    <g id="xtick_7">
     <g id="line2d_7">
      <g>
       <use xlink:href="#m8fd1d7975e" x="343.791695" y="224.64" style="stroke: #000000; stroke-width: 0.8"/>
      </g>
     </g>
     <g id="text_7">
      <!-- 160 -->
      <g transform="translate(334.247945 239.238437)scale(0.1 -0.1)">
       <use xlink:href="#DejaVuSans-31"/>
       <use xlink:href="#DejaVuSans-36" x="63.623047"/>
       <use xlink:href="#DejaVuSans-30" x="127.246094"/>
      </g>
     </g>
    </g>
    <g id="text_8">
     <!-- MW -->
     <g transform="translate(205.107813 252.916562)scale(0.1 -0.1)">
      <defs>
       <path id="DejaVuSans-4d" d="M 628 4666 
L 1569 4666 
L 2759 1491 
L 3956 4666 
L 4897 4666 
L 4897 0 
L 4281 0 
L 4281 4097 
L 3078 897 
L 2444 897 
L 1241 4097 
L 1241 0 
L 628 0 
L 628 4666 
z
" transform="scale(0.015625)"/>
       <path id="DejaVuSans-57" d="M 213 4666 
L 850 4666 
L 1831 722 
L 2809 4666 
L 3519 4666 
L 4500 722 
L 5478 4666 
L 6119 4666 
L 4947 0 
L 4153 0 
L 3169 4050 
L 2175 0 
L 1381 0 
L 213 4666 
z
" transform="scale(0.015625)"/>
      </defs>
      <use xlink:href="#DejaVuSans-4d"/>
      <use xlink:href="#DejaVuSans-57" x="86.279297"/>
     </g>
    </g>
   </g>
   <g id="matplotlib.axis_2">
    <g id="ytick_1">
     <g id="line2d_8">
      <defs>
       <path id="mac7e4a6e0a" d="M 0 0 
L -3.5 0 
" style="stroke: #000000; stroke-width: 0.8"/>
      </defs>
      <g>
       <use xlink:href="#mac7e4a6e0a" x="46.965625" y="214.146601" style="stroke: #000000; stroke-width: 0.8"/>
      </g>
     </g>
     <g id="text_9">
      <!-- 0 -->
      <g transform="translate(33.603125 217.94582)scale(0.1 -0.1)">
       <use xlink:href="#DejaVuSans-30"/>
      </g>
     </g>
    </g>
    <g id="ytick_2">
     <g id="line2d_9">
      <g>
       <use xlink:href="#mac7e4a6e0a" x="46.965625" y="174.968122" style="stroke: #000000; stroke-width: 0.8"/>
      </g>
     </g>
     <g id="text_10">
      <!-- 50 -->
      <g transform="translate(27.240625 178.767341)scale(0.1 -0.1)">
       <defs>
        <path id="DejaVuSans-35" d="M 691 4666 
L 3169 4666 
L 3169 4134 
L 1269 4134 
L 1269 2991 
Q 1406 3038 1543 3061 
Q 1681 3084 1819 3084 
Q 2600 3084 3056 2656 
Q 3513 2228 3513 1497 
Q 3513 744 3044 326 
Q 2575 -91 1722 -91 
Q 1428 -91 1123 -41 
Q 819 9 494 109 
L 494 744 
Q 775 591 1075 516 
Q 1375 441 1709 441 
Q 2250 441 2565 725 
Q 2881 1009 2881 1497 
Q 2881 1984 2565 2268 
Q 2250 2553 1709 2553 
Q 1456 2553 1204 2497 
Q 953 2441 691 2322 
L 691 4666 
z
" transform="scale(0.015625)"/>
       </defs>
       <use xlink:href="#DejaVuSans-35"/>
       <use xlink:href="#DejaVuSans-30" x="63.623047"/>
      </g>
     </g>
    </g>
    <g id="ytick_3">
     <g id="line2d_10">
      <g>
       <use xlink:href="#mac7e4a6e0a" x="46.965625" y="135.789644" style="stroke: #000000; stroke-width: 0.8"/>
      </g>
     </g>
     <g id="text_11">
      <!-- 100 -->
      <g transform="translate(20.878125 139.588862)scale(0.1 -0.1)">
       <use xlink:href="#DejaVuSans-31"/>
       <use xlink:href="#DejaVuSans-30" x="63.623047"/>
       <use xlink:href="#DejaVuSans-30" x="127.246094"/>
      </g>
     </g>
    </g>
    <g id="ytick_4">
     <g id="line2d_11">
      <g>
       <use xlink:href="#mac7e4a6e0a" x="46.965625" y="96.611165" style="stroke: #000000; stroke-width: 0.8"/>
      </g>
     </g>
     <g id="text_12">
      <!-- 150 -->
      <g transform="translate(20.878125 100.410384)scale(0.1 -0.1)">
       <use xlink:href="#DejaVuSans-31"/>
       <use xlink:href="#DejaVuSans-35" x="63.623047"/>
       <use xlink:href="#DejaVuSans-30" x="127.246094"/>
      </g>
     </g>
    </g>
    <g id="ytick_5">
     <g id="line2d_12">
      <g>
       <use xlink:href="#mac7e4a6e0a" x="46.965625" y="57.432686" style="stroke: #000000; stroke-width: 0.8"/>
      </g>
     </g>
     <g id="text_13">
      <!-- 200 -->
      <g transform="translate(20.878125 61.231905)scale(0.1 -0.1)">
       <use xlink:href="#DejaVuSans-32"/>
       <use xlink:href="#DejaVuSans-30" x="63.623047"/>
       <use xlink:href="#DejaVuSans-30" x="127.246094"/>
      </g>
     </g>
    </g>
    <g id="ytick_6">
     <g id="line2d_13">
      <g>
       <use xlink:href="#mac7e4a6e0a" x="46.965625" y="18.254207" style="stroke: #000000; stroke-width: 0.8"/>
      </g>
     </g>
     <g id="text_14">
      <!-- 250 -->
      <g transform="translate(20.878125 22.053426)scale(0.1 -0.1)">
       <use xlink:href="#DejaVuSans-32"/>
       <use xlink:href="#DejaVuSans-35" x="63.623047"/>
       <use xlink:href="#DejaVuSans-30" x="127.246094"/>
      </g>
     </g>
    </g>
    <g id="text_15">
     <!-- bp -->
     <g transform="translate(14.798438 122.268437)rotate(-90)scale(0.1 -0.1)">
      <defs>
       <path id="DejaVuSans-62" d="M 3116 1747 
Q 3116 2381 2855 2742 
Q 2594 3103 2138 3103 
Q 1681 3103 1420 2742 
Q 1159 2381 1159 1747 
Q 1159 1113 1420 752 
Q 1681 391 2138 391 
Q 2594 391 2855 752 
Q 3116 1113 3116 1747 
z
M 1159 2969 
Q 1341 3281 1617 3432 
Q 1894 3584 2278 3584 
Q 2916 3584 3314 3078 
Q 3713 2572 3713 1747 
Q 3713 922 3314 415 
Q 2916 -91 2278 -91 
Q 1894 -91 1617 61 
Q 1341 213 1159 525 
L 1159 0 
L 581 0 
L 581 4863 
L 1159 4863 
L 1159 2969 
z
" transform="scale(0.015625)"/>
       <path id="DejaVuSans-70" d="M 1159 525 
L 1159 -1331 
L 581 -1331 
L 581 3500 
L 1159 3500 
L 1159 2969 
Q 1341 3281 1617 3432 
Q 1894 3584 2278 3584 
Q 2916 3584 3314 3078 
Q 3713 2572 3713 1747 
Q 3713 922 3314 415 
Q 2916 -91 2278 -91 
Q 1894 -91 1617 61 
Q 1341 213 1159 525 
z
M 3116 1747 
Q 3116 2381 2855 2742 
Q 2594 3103 2138 3103 
Q 1681 3103 1420 2742 
Q 1159 2381 1159 1747 
Q 1159 1113 1420 752 
Q 1681 391 2138 391 
Q 2594 391 2855 752 
Q 3116 1113 3116 1747 
z
" transform="scale(0.015625)"/>
      </defs>
      <use xlink:href="#DejaVuSans-62"/>
      <use xlink:href="#DejaVuSans-70" x="63.476562"/>
     </g>
    </g>
   </g>
   <g id="line2d_14">
    <path d="M 62.183807 186.731121 
L 65.258187 185.19945 
L 68.332567 183.667779 
L 71.406947 182.136108 
L 74.481327 180.604437 
L 77.555708 179.072766 
L 80.630088 177.541094 
L 83.704468 176.009423 
L 86.778848 174.477752 
L 89.853228 172.946081 
L 92.927608 171.41441 
L 96.001989 169.882739 
L 99.076369 168.351068 
L 102.150749 166.819397 
L 105.225129 165.287725 
L 108.299509 163.756054 
L 111.373889 162.224383 
L 114.44827 160.692712 
L 117.52265 159.161041 
L 120.59703 157.62937 
L 123.67141 156.097699 
L 126.74579 154.566027 
L 129.82017 153.034356 
L 132.894551 151.502685 
L 135.968931 149.971014 
L 139.043311 148.439343 
L 142.117691 146.907672 
L 145.192071 145.376001 
L 148.266451 143.84433 
L 151.340832 142.312658 
L 154.415212 140.780987 
L 157.489592 139.249316 
L 160.563972 137.717645 
L 163.638352 136.185974 
L 166.712732 134.654303 
L 169.787113 133.122632 
L 172.861493 131.590961 
L 175.935873 130.059289 
L 179.010253 128.527618 
L 182.084633 126.995947 
L 185.159013 125.464276 
L 188.233394 123.932605 
L 191.307774 122.400934 
L 194.382154 120.869263 
L 197.456534 119.337591 
L 200.530914 117.80592 
L 203.605294 116.274249 
L 206.679675 114.742578 
L 209.754055 113.210907 
L 212.828435 111.679236 
L 215.902815 110.147565 
L 218.977195 108.615894 
L 222.051575 107.084222 
L 225.125956 105.552551 
L 228.200336 104.02088 
L 231.274716 102.489209 
L 234.349096 100.957538 
L 237.423476 99.425867 
L 240.497856 97.894196 
L 243.572237 96.362524 
L 246.646617 94.830853 
L 249.720997 93.299182 
L 252.795377 91.767511 
L 255.869757 90.23584 
L 258.944137 88.704169 
L 262.018518 87.172498 
L 265.092898 85.640827 
L 268.167278 84.109155 
L 271.241658 82.577484 
L 274.316038 81.045813 
L 277.390418 79.514142 
L 280.464799 77.982471 
L 283.539179 76.4508 
L 286.613559 74.919129 
L 289.687939 73.387458 
L 292.762319 71.855786 
L 295.836699 70.324115 
L 298.91108 68.792444 
L 301.98546 67.260773 
L 305.05984 65.729102 
L 308.13422 64.197431 
L 311.2086 62.66576 
L 314.28298 61.134088 
L 317.357361 59.602417 
L 320.431741 58.070746 
L 323.506121 56.539075 
L 326.580501 55.007404 
L 329.654881 53.475733 
L 332.729261 51.944062 
L 335.803642 50.412391 
L 338.878022 48.880719 
L 341.952402 47.349048 
L 345.026782 45.817377 
L 348.101162 44.285706 
L 351.175542 42.754035 
L 354.249923 41.222364 
L 357.324303 39.690693 
L 360.398683 38.159022 
L 363.473063 36.62735 
L 366.547443 35.095679 
" clip-path="url(#p62e2d48051)" style="fill: none; stroke: #1f77b4; stroke-width: 2.25; stroke-linecap: square"/>
   </g>
   <g id="patch_3">
    <path d="M 46.965625 224.64 
L 46.965625 7.2 
" style="fill: none; stroke: #000000; stroke-width: 0.8; stroke-linejoin: miter; stroke-linecap: square"/>
   </g>
   <g id="patch_4">
    <path d="M 381.765625 224.64 
L 381.765625 7.2 
" style="fill: none; stroke: #000000; stroke-width: 0.8; stroke-linejoin: miter; stroke-linecap: square"/>
   </g>
   <g id="patch_5">
    <path d="M 46.965625 224.64 
L 381.765625 224.64 
" style="fill: none; stroke: #000000; stroke-width: 0.8; stroke-linejoin: miter; stroke-linecap: square"/>
   </g>
   <g id="patch_6">
    <path d="M 46.965625 7.2 
L 381.765625 7.2 
" style="fill: none; stroke: #000000; stroke-width: 0.8; stroke-linejoin: miter; stroke-linecap: square"/>
   </g>
  </g>
 </g>
 <defs>
  <clipPath id="p62e2d48051">
   <rect x="46.965625" y="7.2" width="334.8" height="217.44"/>
  </clipPath>
 </defs>
</svg>
