<?xml version="1.0" encoding="utf-8" standalone="no"?>
<!DOCTYPE svg PUBLIC "-//W3C//DTD SVG 1.1//EN"
  "http://www.w3.org/Graphics/SVG/1.1/DTD/svg11.dtd">
<svg xmlns:xlink="http://www.w3.org/1999/xlink" width="380.482813pt" height="248.518125pt" viewBox="0 0 380.482813 248.518125" xmlns="http://www.w3.org/2000/svg" version="1.1">
 <metadata>
  <rdf:RDF xmlns:dc="http://purl.org/dc/elements/1.1/" xmlns:cc="http://creativecommons.org/ns#" xmlns:rdf="http://www.w3.org/1999/02/22-rdf-syntax-ns#">
   <cc:Work>
    <dc:type rdf:resource="http://purl.org/dc/dcmitype/StillImage"/>
    <dc:date>2022-06-01T12:58:46.179012</dc:date>
    <dc:format>image/svg+xml</dc:format>
    <dc:creator>
     <cc:Agent>
      <dc:title>Matplotlib v3.5.2, https://matplotlib.org/</dc:title>
     </cc:Agent>
    </dc:creator>
   </cc:Work>
  </rdf:RDF>
 </metadata>
 <defs>
  <style type="text/css">*{stroke-linejoin: round; stroke-linecap: butt}</style>
 </defs>
 <g id="figure_1">
  <g id="patch_1">
   <path d="M -0 248.518125 
L 380.482813 248.518125 
L 380.482813 0 
L -0 0 
L -0 248.518125 
z
" style="fill: none"/>
  </g>
  <g id="axes_1">
   <g id="patch_2">
    <path d="M 38.482813 224.64 
L 373.282813 224.64 
L 373.282813 7.2 
L 38.482813 7.2 
z
" style="fill: #ffffff"/>
   </g>
   <g id="matplotlib.axis_1">
    <g id="xtick_1">
     <g id="line2d_1">
      <defs>
       <path id="mad84a43c25" d="M 0 0 
L 0 3.5 
" style="stroke: #000000; stroke-width: 0.8"/>
      </defs>
      <g>
       <use xlink:href="#mad84a43c25" x="53.700994" y="224.64" style="stroke: #000000; stroke-width: 0.8"/>
      </g>
     </g>
     <g id="text_1">
      <!-- 0 -->
      <g transform="translate(50.519744 239.238437)scale(0.1 -0.1)">
       <defs>
        <path id="DejaVuSans-30" d="M 2034 4250 
Q 1547 4250 1301 3770 
Q 1056 3291 1056 2328 
Q 1056 1369 1301 889 
Q 1547 409 2034 409 
Q 2525 409 2770 889 
Q 3016 1369 3016 2328 
Q 3016 3291 2770 3770 
Q 2525 4250 2034 4250 
z
M 2034 4750 
Q 2819 4750 3233 4129 
Q 3647 3509 3647 2328 
Q 3647 1150 3233 529 
Q 2819 -91 2034 -91 
Q 1250 -91 836 529 
Q 422 1150 422 2328 
Q 422 3509 836 4129 
Q 1250 4750 2034 4750 
z
" transform="scale(0.015625)"/>
       </defs>
       <use xlink:href="#DejaVuSans-30"/>
      </g>
     </g>
    </g>
    <g id="xtick_2">
     <g id="line2d_2">
      <g>
       <use xlink:href="#mad84a43c25" x="102.141972" y="224.64" style="stroke: #000000; stroke-width: 0.8"/>
      </g>
     </g>
     <g id="text_2">
      <!-- 5 -->
      <g transform="translate(98.960722 239.238437)scale(0.1 -0.1)">
       <defs>
        <path id="DejaVuSans-35" d="M 691 4666 
L 3169 4666 
L 3169 4134 
L 1269 4134 
L 1269 2991 
Q 1406 3038 1543 3061 
Q 1681 3084 1819 3084 
Q 2600 3084 3056 2656 
Q 3513 2228 3513 1497 
Q 3513 744 3044 326 
Q 2575 -91 1722 -91 
Q 1428 -91 1123 -41 
Q 819 9 494 109 
L 494 744 
Q 775 591 1075 516 
Q 1375 441 1709 441 
Q 2250 441 2565 725 
Q 2881 1009 2881 1497 
Q 2881 1984 2565 2268 
Q 2250 2553 1709 2553 
Q 1456 2553 1204 2497 
Q 953 2441 691 2322 
L 691 4666 
z
" transform="scale(0.015625)"/>
       </defs>
       <use xlink:href="#DejaVuSans-35"/>
      </g>
     </g>
    </g>
    <g id="xtick_3">
     <g id="line2d_3">
      <g>
       <use xlink:href="#mad84a43c25" x="150.582949" y="224.64" style="stroke: #000000; stroke-width: 0.8"/>
      </g>
     </g>
     <g id="text_3">
      <!-- 10 -->
      <g transform="translate(144.220449 239.238437)scale(0.1 -0.1)">
       <defs>
        <path id="DejaVuSans-31" d="M 794 531 
L 1825 531 
L 1825 4091 
L 703 3866 
L 703 4441 
L 1819 4666 
L 2450 4666 
L 2450 531 
L 3481 531 
L 3481 0 
L 794 0 
L 794 531 
z
" transform="scale(0.015625)"/>
       </defs>
       <use xlink:href="#DejaVuSans-31"/>
       <use xlink:href="#DejaVuSans-30" x="63.623047"/>
      </g>
     </g>
    </g>
    <g id="xtick_4">
     <g id="line2d_4">
      <g>
       <use xlink:href="#mad84a43c25" x="199.023926" y="224.64" style="stroke: #000000; stroke-width: 0.8"/>
      </g>
     </g>
     <g id="text_4">
      <!-- 15 -->
      <g transform="translate(192.661426 239.238437)scale(0.1 -0.1)">
       <use xlink:href="#DejaVuSans-31"/>
       <use xlink:href="#DejaVuSans-35" x="63.623047"/>
      </g>
     </g>
    </g>
    <g id="xtick_5">
     <g id="line2d_5">
      <g>
       <use xlink:href="#mad84a43c25" x="247.464903" y="224.64" style="stroke: #000000; stroke-width: 0.8"/>
      </g>
     </g>
     <g id="text_5">
      <!-- 20 -->
      <g transform="translate(241.102403 239.238437)scale(0.1 -0.1)">
       <defs>
        <path id="DejaVuSans-32" d="M 1228 531 
L 3431 531 
L 3431 0 
L 469 0 
L 469 531 
Q 828 903 1448 1529 
Q 2069 2156 2228 2338 
Q 2531 2678 2651 2914 
Q 2772 3150 2772 3378 
Q 2772 3750 2511 3984 
Q 2250 4219 1831 4219 
Q 1534 4219 1204 4116 
Q 875 4013 500 3803 
L 500 4441 
Q 881 4594 1212 4672 
Q 1544 4750 1819 4750 
Q 2544 4750 2975 4387 
Q 3406 4025 3406 3419 
Q 3406 3131 3298 2873 
Q 3191 2616 2906 2266 
Q 2828 2175 2409 1742 
Q 1991 1309 1228 531 
z
" transform="scale(0.015625)"/>
       </defs>
       <use xlink:href="#DejaVuSans-32"/>
       <use xlink:href="#DejaVuSans-30" x="63.623047"/>
      </g>
     </g>
    </g>
    <g id="xtick_6">
     <g id="line2d_6">
      <g>
       <use xlink:href="#mad84a43c25" x="295.90588" y="224.64" style="stroke: #000000; stroke-width: 0.8"/>
      </g>
     </g>
     <g id="text_6">
      <!-- 25 -->
      <g transform="translate(289.54338 239.238437)scale(0.1 -0.1)">
       <use xlink:href="#DejaVuSans-32"/>
       <use xlink:href="#DejaVuSans-35" x="63.623047"/>
      </g>
     </g>
    </g>
    <g id="xtick_7">
     <g id="line2d_7">
      <g>
       <use xlink:href="#mad84a43c25" x="344.346858" y="224.64" style="stroke: #000000; stroke-width: 0.8"/>
      </g>
     </g>
     <g id="text_7">
      <!-- 30 -->
      <g transform="translate(337.984358 239.238437)scale(0.1 -0.1)">
       <defs>
        <path id="DejaVuSans-33" d="M 2597 2516 
Q 3050 2419 3304 2112 
Q 3559 1806 3559 1356 
Q 3559 666 3084 287 
Q 2609 -91 1734 -91 
Q 1441 -91 1130 -33 
Q 819 25 488 141 
L 488 750 
Q 750 597 1062 519 
Q 1375 441 1716 441 
Q 2309 441 2620 675 
Q 2931 909 2931 1356 
Q 2931 1769 2642 2001 
Q 2353 2234 1838 2234 
L 1294 2234 
L 1294 2753 
L 1863 2753 
Q 2328 2753 2575 2939 
Q 2822 3125 2822 3475 
Q 2822 3834 2567 4026 
Q 2313 4219 1838 4219 
Q 1578 4219 1281 4162 
Q 984 4106 628 3988 
L 628 4550 
Q 988 4650 1302 4700 
Q 1616 4750 1894 4750 
Q 2613 4750 3031 4423 
Q 3450 4097 3450 3541 
Q 3450 3153 3228 2886 
Q 3006 2619 2597 2516 
z
" transform="scale(0.015625)"/>
       </defs>
       <use xlink:href="#DejaVuSans-33"/>
       <use xlink:href="#DejaVuSans-30" x="63.623047"/>
      </g>
     </g>
    </g>
   </g>
   <g id="matplotlib.axis_2">
    <g id="ytick_1">
     <g id="line2d_8">
      <defs>
       <path id="m49362a88dd" d="M 0 0 
L -3.5 0 
" style="stroke: #000000; stroke-width: 0.8"/>
      </defs>
      <g>
       <use xlink:href="#m49362a88dd" x="38.482813" y="189.949228" style="stroke: #000000; stroke-width: 0.8"/>
      </g>
     </g>
     <g id="text_8">
      <!-- −1.0 -->
      <g transform="translate(7.2 193.748446)scale(0.1 -0.1)">
       <defs>
        <path id="DejaVuSans-2212" d="M 678 2272 
L 4684 2272 
L 4684 1741 
L 678 1741 
L 678 2272 
z
" transform="scale(0.015625)"/>
        <path id="DejaVuSans-2e" d="M 684 794 
L 1344 794 
L 1344 0 
L 684 0 
L 684 794 
z
" transform="scale(0.015625)"/>
       </defs>
       <use xlink:href="#DejaVuSans-2212"/>
       <use xlink:href="#DejaVuSans-31" x="83.789062"/>
       <use xlink:href="#DejaVuSans-2e" x="147.412109"/>
       <use xlink:href="#DejaVuSans-30" x="179.199219"/>
      </g>
     </g>
    </g>
    <g id="ytick_2">
     <g id="line2d_9">
      <g>
       <use xlink:href="#m49362a88dd" x="38.482813" y="153.141603" style="stroke: #000000; stroke-width: 0.8"/>
      </g>
     </g>
     <g id="text_9">
      <!-- −0.5 -->
      <g transform="translate(7.2 156.940821)scale(0.1 -0.1)">
       <use xlink:href="#DejaVuSans-2212"/>
       <use xlink:href="#DejaVuSans-30" x="83.789062"/>
       <use xlink:href="#DejaVuSans-2e" x="147.412109"/>
       <use xlink:href="#DejaVuSans-35" x="179.199219"/>
      </g>
     </g>
    </g>
    <g id="ytick_3">
     <g id="line2d_10">
      <g>
       <use xlink:href="#m49362a88dd" x="38.482813" y="116.333978" style="stroke: #000000; stroke-width: 0.8"/>
      </g>
     </g>
     <g id="text_10">
      <!-- 0.0 -->
      <g transform="translate(15.579688 120.133197)scale(0.1 -0.1)">
       <use xlink:href="#DejaVuSans-30"/>
       <use xlink:href="#DejaVuSans-2e" x="63.623047"/>
       <use xlink:href="#DejaVuSans-30" x="95.410156"/>
      </g>
     </g>
    </g>
    <g id="ytick_4">
     <g id="line2d_11">
      <g>
       <use xlink:href="#m49362a88dd" x="38.482813" y="79.526353" style="stroke: #000000; stroke-width: 0.8"/>
      </g>
     </g>
     <g id="text_11">
      <!-- 0.5 -->
      <g transform="translate(15.579688 83.325572)scale(0.1 -0.1)">
       <use xlink:href="#DejaVuSans-30"/>
       <use xlink:href="#DejaVuSans-2e" x="63.623047"/>
       <use xlink:href="#DejaVuSans-35" x="95.410156"/>
      </g>
     </g>
    </g>
    <g id="ytick_5">
     <g id="line2d_12">
      <g>
       <use xlink:href="#m49362a88dd" x="38.482813" y="42.718728" style="stroke: #000000; stroke-width: 0.8"/>
      </g>
     </g>
     <g id="text_12">
      <!-- 1.0 -->
      <g transform="translate(15.579688 46.517947)scale(0.1 -0.1)">
       <use xlink:href="#DejaVuSans-31"/>
       <use xlink:href="#DejaVuSans-2e" x="63.623047"/>
       <use xlink:href="#DejaVuSans-30" x="95.410156"/>
      </g>
     </g>
    </g>
   </g>
   <g id="line2d_13">
    <path d="M 53.700994 106.893051 
L 54.005663 100.589311 
L 54.310331 135.780543 
L 54.614999 91.308882 
L 54.919668 89.808995 
L 55.224336 113.724987 
L 55.529004 96.904103 
L 55.833672 101.530647 
L 56.138341 83.780213 
L 56.443009 93.516157 
L 56.747677 112.171761 
L 57.052346 99.981263 
L 57.357014 105.100596 
L 57.661682 78.119761 
L 57.966351 62.603461 
L 58.271019 67.902782 
L 58.575687 93.15799 
L 58.880355 100.866048 
L 59.185024 84.43412 
L 59.489692 98.520503 
L 59.79436 80.875399 
L 60.099029 96.627717 
L 60.403697 44.605381 
L 60.708365 75.733523 
L 61.013034 55.302776 
L 61.317702 64.408783 
L 61.62237 53.524835 
L 61.927039 55.444995 
L 62.231707 66.761343 
L 62.536375 62.953515 
L 62.841043 81.117079 
L 63.145712 80.940146 
L 63.45038 37.936625 
L 63.755048 61.356016 
L 64.059717 74.285838 
L 64.364385 57.181498 
L 64.669053 55.216833 
L 64.973722 66.535797 
L 65.27839 60.351681 
L 65.583058 28.91879 
L 65.887727 50.03419 
L 66.192395 27.598945 
L 66.497063 20.474942 
L 66.801731 20.484595 
L 67.715736 60.860969 
L 68.020405 31.582686 
L 68.325073 64.13733 
L 68.629741 49.308811 
L 68.93441 60.124945 
L 69.239078 28.749637 
L 69.543746 27.753473 
L 69.848414 64.533473 
L 70.153083 22.899859 
L 70.457751 54.238318 
L 70.762419 49.639056 
L 71.067088 34.952269 
L 71.371756 70.270209 
L 71.676424 59.833332 
L 71.981093 59.432023 
L 72.285761 61.560629 
L 72.590429 26.785954 
L 72.895098 35.905606 
L 73.199766 49.522421 
L 73.504434 44.117959 
L 73.809102 64.723821 
L 74.113771 29.818633 
L 74.418439 74.662169 
L 74.723107 67.942529 
L 75.027776 39.240903 
L 75.332444 39.302 
L 75.637112 60.975915 
L 75.941781 45.6435 
L 76.246449 43.561487 
L 76.551117 51.330906 
L 76.855785 82.058013 
L 77.160454 79.437332 
L 77.465122 89.838216 
L 77.76979 60.765225 
L 78.379127 68.752904 
L 78.683795 63.641777 
L 78.988464 88.239189 
L 79.293132 90.04929 
L 79.5978 72.826668 
L 79.902469 78.326083 
L 80.207137 87.810365 
L 80.511805 70.071183 
L 80.816473 99.052494 
L 81.121142 77.028651 
L 81.42581 105.708416 
L 81.730478 102.625352 
L 82.035147 79.478004 
L 82.339815 113.802151 
L 82.644483 124.621792 
L 82.949152 129.776456 
L 83.25382 97.446682 
L 83.558488 107.432905 
L 83.863156 107.269643 
L 84.167825 130.364073 
L 84.472493 103.725635 
L 84.777161 113.472667 
L 85.08183 104.024798 
L 85.386498 150.4825 
L 85.691166 140.318105 
L 85.995835 111.01189 
L 86.300503 111.984874 
L 86.605171 113.361671 
L 86.90984 128.502248 
L 87.214508 119.804499 
L 87.519176 116.097401 
L 87.823844 146.874844 
L 88.128513 153.060265 
L 88.433181 134.293678 
L 88.737849 150.942663 
L 89.042518 137.810015 
L 89.347186 141.114951 
L 89.651854 167.231839 
L 89.956523 144.581992 
L 90.261191 155.67327 
L 90.565859 161.268974 
L 90.870527 155.038291 
L 91.175196 139.863929 
L 91.479864 157.204369 
L 91.784532 183.46918 
L 92.089201 161.301232 
L 92.698537 185.821436 
L 93.003206 170.473296 
L 93.307874 182.801718 
L 93.917211 159.269513 
L 94.221879 157.815425 
L 94.526547 171.128284 
L 94.831215 159.956051 
L 95.135884 179.267607 
L 95.440552 208.280504 
L 95.74522 193.039698 
L 96.354557 207.619512 
L 96.659225 162.647026 
L 96.963894 208.135336 
L 97.268562 201.825998 
L 97.57323 164.178818 
L 97.877898 202.231015 
L 98.182567 175.605323 
L 98.487235 183.097903 
L 98.791903 164.64652 
L 99.096572 214.054254 
L 99.40124 171.257315 
L 99.705908 170.652252 
L 100.010577 167.939975 
L 100.315245 174.38284 
L 100.619913 213.303127 
L 100.924582 197.017548 
L 101.22925 201.478841 
L 101.838586 188.270633 
L 102.143255 172.230146 
L 102.447923 171.120359 
L 102.752591 169.536065 
L 103.05726 182.841932 
L 103.361928 164.465246 
L 103.666596 180.505994 
L 103.971265 157.098455 
L 104.275933 190.852676 
L 104.580601 169.963323 
L 104.88527 185.795019 
L 105.189938 173.580918 
L 105.494606 150.217002 
L 105.799274 184.8545 
L 106.103943 175.577848 
L 106.408611 157.667801 
L 106.713279 179.191424 
L 107.017948 145.555617 
L 107.322616 186.646807 
L 107.627284 172.270221 
L 107.931953 175.42416 
L 108.236621 140.710126 
L 108.541289 181.192352 
L 108.845957 163.058323 
L 109.150626 166.297801 
L 109.455294 137.370612 
L 109.759962 157.530885 
L 110.064631 169.923937 
L 110.369299 149.628686 
L 110.673967 138.375261 
L 110.978636 156.55027 
L 111.283304 148.783594 
L 111.587972 150.748691 
L 111.892641 149.38336 
L 112.197309 132.180462 
L 112.501977 155.651492 
L 112.806645 154.749273 
L 113.111314 124.258085 
L 113.415982 142.266927 
L 113.72065 140.429068 
L 114.025319 102.427746 
L 114.329987 94.223453 
L 114.634655 125.031807 
L 114.939324 124.781361 
L 115.54866 92.52764 
L 115.853328 87.327573 
L 116.157997 78.668778 
L 116.462665 97.57006 
L 116.767333 79.693359 
L 117.072002 114.95997 
L 117.37667 73.384236 
L 117.681338 96.073626 
L 117.986007 86.889247 
L 118.290675 94.98897 
L 118.595343 97.877434 
L 118.900012 108.970115 
L 119.20468 64.732659 
L 119.509348 100.33528 
L 119.814016 65.722172 
L 120.118685 54.147686 
L 120.423353 72.583202 
L 120.728021 58.815131 
L 121.03269 73.423102 
L 121.337358 54.119327 
L 121.946695 64.610545 
L 122.251363 51.178174 
L 122.556031 64.643784 
L 122.860699 41.818336 
L 123.165368 70.661146 
L 123.470036 54.58709 
L 123.774704 82.166364 
L 124.384041 42.092497 
L 124.688709 63.688337 
L 124.993378 52.764234 
L 125.298046 47.497496 
L 125.602714 29.248084 
L 125.907383 49.678606 
L 126.212051 62.592602 
L 126.821387 32.187915 
L 127.126056 65.394604 
L 127.430724 20.271548 
L 127.735392 25.421737 
L 128.040061 61.18714 
L 128.344729 37.021853 
L 128.649397 65.808472 
L 128.954066 39.093978 
L 129.258734 38.219642 
L 129.563402 62.128016 
L 129.86807 24.357227 
L 130.172739 37.315087 
L 130.477407 58.867969 
L 130.782075 31.406623 
L 131.086744 46.811163 
L 131.391412 36.177608 
L 131.69608 39.623328 
L 132.000749 33.348557 
L 132.305417 35.467834 
L 132.610085 62.863794 
L 132.914754 56.246902 
L 133.219422 70.974662 
L 133.52409 39.474661 
L 133.828758 56.455785 
L 134.438095 39.076609 
L 134.742763 75.25116 
L 135.047432 67.4185 
L 135.3521 30.336155 
L 135.656768 36.731696 
L 136.266105 74.253594 
L 136.570773 53.446641 
L 136.875441 76.099019 
L 137.18011 79.222357 
L 137.484778 66.720444 
L 137.789446 48.701976 
L 138.094115 43.536402 
L 138.398783 75.120673 
L 138.703451 70.5924 
L 139.00812 95.726986 
L 139.312788 65.630441 
L 139.617456 99.537875 
L 139.922125 63.728828 
L 140.226793 76.195133 
L 140.531461 81.083542 
L 140.836129 72.271263 
L 141.140798 88.996395 
L 141.445466 114.651189 
L 141.750134 71.842464 
L 142.664139 100.941968 
L 142.968808 83.576643 
L 143.273476 79.526351 
L 143.578144 113.513598 
L 143.882812 84.077243 
L 144.492149 109.289676 
L 144.796817 108.161995 
L 145.101486 122.326638 
L 145.406154 100.42307 
L 145.710822 116.990321 
L 146.015491 111.661504 
L 146.320159 130.886081 
L 146.624827 130.183295 
L 146.929496 138.376634 
L 147.234164 151.587416 
L 147.538832 138.68418 
L 147.8435 141.687138 
L 148.148169 161.910572 
L 148.452837 150.443291 
L 148.757505 143.799499 
L 149.062174 142.61346 
L 149.366842 165.371365 
L 149.67151 150.27852 
L 150.280847 135.471983 
L 150.890184 157.178524 
L 151.194852 159.788335 
L 151.49952 156.512428 
L 151.804188 185.909605 
L 152.108857 160.978621 
L 152.413525 159.543381 
L 152.718193 151.162545 
L 153.022862 193.635897 
L 153.32753 164.690988 
L 153.632198 188.872819 
L 153.936867 169.823974 
L 154.241535 195.10915 
L 154.546203 167.923005 
L 154.850871 194.094924 
L 155.15554 183.837366 
L 155.460208 190.13802 
L 155.764876 202.718261 
L 156.069545 169.979254 
L 156.374213 171.286279 
L 156.678881 205.99137 
L 156.98355 162.218628 
L 157.288218 186.769941 
L 157.592886 176.470372 
L 157.897555 178.38745 
L 158.202223 183.762968 
L 158.506891 182.760021 
L 159.116228 199.714852 
L 159.420896 192.90256 
L 159.725564 180.192549 
L 160.030233 190.659394 
L 160.334901 213.510139 
L 160.639569 188.049561 
L 160.944238 180.489874 
L 161.248906 185.547964 
L 161.553574 172.192412 
L 161.858242 164.890651 
L 162.162911 198.306768 
L 162.467579 202.932835 
L 162.772247 176.012169 
L 163.076916 161.416068 
L 163.381584 211.778451 
L 163.686252 209.326194 
L 163.990921 208.247724 
L 164.295589 170.076928 
L 164.600257 200.648019 
L 164.904926 198.767924 
L 165.209594 158.276477 
L 165.514262 202.104293 
L 165.81893 172.847989 
L 166.123599 169.947383 
L 166.428267 198.367196 
L 166.732935 172.791786 
L 167.037604 171.872502 
L 167.342272 160.433322 
L 167.64694 164.646266 
L 167.951609 179.21204 
L 168.256277 173.583993 
L 168.560945 179.770306 
L 168.865613 156.889222 
L 169.170282 173.524027 
L 169.47495 162.914918 
L 169.779618 167.584519 
L 170.084287 176.872157 
L 170.693623 143.966558 
L 170.998292 159.426711 
L 171.607628 127.449396 
L 171.912297 140.868053 
L 172.216965 128.558737 
L 172.521633 132.23698 
L 172.826301 153.715025 
L 173.13097 156.685896 
L 173.740306 105.281277 
L 174.044975 106.820399 
L 174.654311 145.498066 
L 174.95898 106.781129 
L 175.263648 132.02331 
L 175.568316 89.993027 
L 175.872984 134.685027 
L 176.177653 135.119792 
L 176.482321 87.216934 
L 176.786989 82.519972 
L 177.091658 96.364605 
L 177.396326 96.715264 
L 177.700994 79.285483 
L 178.005663 120.217168 
L 178.310331 109.863748 
L 178.614999 72.510861 
L 178.919668 87.908524 
L 179.224336 95.782642 
L 179.529004 98.479185 
L 179.833672 75.877288 
L 180.443009 98.167009 
L 180.747677 73.390744 
L 181.052346 71.702392 
L 181.661682 82.696074 
L 181.966351 84.424453 
L 182.271019 76.895082 
L 182.575687 51.716901 
L 182.880355 41.901279 
L 183.489692 85.748757 
L 183.79436 50.103019 
L 184.099029 70.26383 
L 184.403697 47.958735 
L 184.708365 72.83462 
L 185.013034 48.135731 
L 185.317702 60.02471 
L 185.62237 48.457591 
L 185.927039 54.368379 
L 186.231707 62.62877 
L 186.536375 60.588155 
L 186.841043 64.388511 
L 187.145712 60.798692 
L 187.45038 62.545974 
L 187.755048 42.578083 
L 188.059717 43.681973 
L 188.364385 39.254475 
L 188.669053 66.677156 
L 188.973722 26.333667 
L 189.27839 65.512667 
L 189.887727 38.282034 
L 190.192395 26.339829 
L 190.497063 23.262668 
L 190.801731 32.121933 
L 191.1064 52.73115 
L 191.411068 31.655721 
L 191.715736 59.740366 
L 192.020405 48.814282 
L 192.325073 51.773749 
L 192.629741 31.566096 
L 192.93441 56.498616 
L 193.239078 63.22836 
L 193.543746 44.590607 
L 193.848414 61.606449 
L 194.153083 35.92764 
L 194.457751 32.172018 
L 194.762419 46.712068 
L 195.067088 33.371228 
L 195.371756 43.968732 
L 195.676424 74.818037 
L 195.981093 63.170071 
L 196.285761 32.643345 
L 196.590429 37.538163 
L 196.895098 77.132586 
L 197.199766 58.251325 
L 197.504434 51.873068 
L 197.809102 58.252948 
L 198.113771 42.656317 
L 198.418439 89.343574 
L 198.723107 65.945898 
L 199.027776 76.85948 
L 199.332444 56.332337 
L 199.637112 78.908997 
L 199.941781 89.422908 
L 200.855785 54.80517 
L 201.160454 85.495248 
L 201.465122 94.207032 
L 201.76979 83.102188 
L 202.074459 111.849146 
L 202.379127 67.377221 
L 202.683795 86.634635 
L 202.988464 70.90328 
L 203.293132 104.08656 
L 203.902469 78.74076 
L 204.207137 119.030943 
L 204.511805 83.115854 
L 204.816473 121.78843 
L 205.121142 97.177494 
L 205.42581 101.040423 
L 205.730478 120.824587 
L 206.035147 112.679278 
L 206.339815 119.616312 
L 206.644483 132.308376 
L 206.949152 105.621717 
L 207.25382 104.855424 
L 207.558488 148.742031 
L 207.863156 154.314743 
L 208.167825 154.95371 
L 208.472493 132.338532 
L 208.777161 151.524401 
L 209.08183 121.324945 
L 209.386498 131.920904 
L 209.691166 124.613774 
L 209.995835 158.757024 
L 210.300503 150.540868 
L 210.605171 130.975783 
L 210.90984 168.588449 
L 211.214508 157.244922 
L 211.519176 170.948798 
L 211.823844 155.938786 
L 212.128513 153.362284 
L 212.433181 158.839484 
L 212.737849 178.027384 
L 213.042518 171.712848 
L 213.651854 148.781703 
L 213.956523 162.242237 
L 214.261191 186.128641 
L 214.565859 162.400229 
L 214.870527 194.439994 
L 215.175196 176.811726 
L 215.479864 173.273892 
L 215.784532 160.124026 
L 216.089201 182.351053 
L 216.698537 195.036859 
L 217.003206 162.756049 
L 217.307874 159.600463 
L 217.612542 187.975633 
L 217.917211 169.745917 
L 218.221879 174.691469 
L 218.526547 175.77146 
L 218.831215 172.486877 
L 219.135884 208.884102 
L 219.74522 175.362655 
L 220.049889 177.400822 
L 220.354557 193.584949 
L 220.659225 177.786917 
L 220.963894 199.305589 
L 221.268562 200.626644 
L 221.57323 205.065481 
L 221.877898 212.855139 
L 222.182567 176.514465 
L 222.487235 171.361209 
L 222.791903 181.328388 
L 223.096572 183.980426 
L 223.40124 196.123958 
L 223.705908 193.69986 
L 224.010577 209.083085 
L 224.315245 205.229392 
L 224.619913 178.600129 
L 224.924582 191.605336 
L 225.22925 183.751145 
L 225.533918 187.741291 
L 225.838586 180.434889 
L 226.143255 203.709936 
L 226.447923 174.328625 
L 226.752591 165.98346 
L 227.05726 171.204277 
L 227.361928 156.815681 
L 227.666596 152.139591 
L 227.971265 177.351648 
L 228.275933 148.720761 
L 228.88527 173.273423 
L 229.189938 161.44366 
L 229.494606 169.963989 
L 229.799274 142.770169 
L 230.103943 162.500912 
L 230.408611 157.506457 
L 230.713279 159.342219 
L 231.627284 127.288877 
L 231.931953 123.493635 
L 232.236621 157.166998 
L 232.541289 145.148593 
L 232.845957 148.183861 
L 233.150626 114.664178 
L 233.455294 133.838936 
L 233.759962 119.739499 
L 234.064631 134.744182 
L 234.673967 150.772274 
L 234.978636 114.269033 
L 235.283304 133.348072 
L 235.587972 98.594864 
L 235.892641 135.879101 
L 236.197309 141.165159 
L 236.501977 140.638841 
L 237.111314 135.133421 
L 237.415982 95.020327 
L 237.72065 98.742234 
L 238.025319 125.854006 
L 238.329987 78.177347 
L 238.634655 81.343673 
L 238.939324 106.680304 
L 239.243992 100.047575 
L 239.54866 84.066169 
L 239.853328 114.034214 
L 240.157997 94.540019 
L 240.462665 93.941586 
L 240.767333 106.811657 
L 241.37667 69.224903 
L 241.681338 55.994858 
L 241.986007 98.456877 
L 242.290675 73.31747 
L 242.595343 63.648689 
L 242.900012 91.005435 
L 243.20468 56.054485 
L 243.509348 89.638628 
L 243.814016 39.690867 
L 244.118685 73.222344 
L 244.728021 85.485286 
L 245.03269 61.624842 
L 245.642026 74.891162 
L 245.946695 64.31192 
L 246.251363 41.456558 
L 246.556031 44.472672 
L 246.860699 27.382903 
L 247.470036 74.437015 
L 247.774704 41.890124 
L 248.079373 52.269401 
L 248.384041 25.384329 
L 248.688709 24.812207 
L 248.993378 43.164246 
L 249.298046 38.215375 
L 249.602714 23.598571 
L 249.907383 28.531671 
L 250.212051 58.524114 
L 250.821387 26.451845 
L 251.126056 44.854484 
L 251.430724 37.932158 
L 251.735392 58.571633 
L 252.040061 17.083636 
L 252.344729 21.522748 
L 252.649397 18.161975 
L 252.954066 39.916483 
L 253.258734 28.95121 
L 253.563402 60.238809 
L 253.86807 36.646954 
L 254.172739 42.2759 
L 254.477407 43.269195 
L 254.782075 58.361611 
L 255.086744 31.155917 
L 255.391412 49.167644 
L 255.69608 42.887498 
L 256.000749 73.984218 
L 256.305417 30.588532 
L 256.610085 39.41116 
L 256.914754 71.92647 
L 257.219422 42.485961 
L 257.828758 74.845024 
L 258.133427 79.826883 
L 258.438095 74.951395 
L 258.742763 51.656326 
L 259.047432 77.841079 
L 259.3521 42.773825 
L 259.656768 69.343605 
L 259.961437 45.495455 
L 260.266105 82.256702 
L 260.570773 73.732672 
L 260.875441 80.144535 
L 261.18011 98.897586 
L 261.484778 59.358476 
L 261.789446 68.382488 
L 262.094115 100.139517 
L 262.398783 78.351222 
L 262.703451 83.813282 
L 263.00812 65.423545 
L 263.312788 109.300706 
L 263.617456 105.672199 
L 263.922125 104.852643 
L 264.226793 83.488122 
L 264.531461 115.749295 
L 264.836129 79.438144 
L 265.140798 102.94877 
L 265.445466 90.310678 
L 265.750134 118.153073 
L 266.359471 126.394735 
L 266.664139 106.372622 
L 266.968808 105.517936 
L 267.273476 123.686828 
L 267.578144 113.486792 
L 267.882812 108.80497 
L 268.187481 128.182631 
L 268.492149 122.340492 
L 268.796817 107.861265 
L 269.101486 116.905165 
L 269.406154 147.491528 
L 269.710822 151.553028 
L 270.015491 150.940061 
L 270.320159 141.322036 
L 270.624827 166.149356 
L 270.929496 152.902587 
L 271.234164 132.702239 
L 271.538832 127.362771 
L 271.8435 141.127825 
L 272.148169 163.576515 
L 272.452837 140.682239 
L 272.757505 184.780955 
L 273.062174 175.14998 
L 273.366842 183.347827 
L 273.67151 175.999826 
L 273.976179 152.427068 
L 274.280847 168.004135 
L 274.585515 190.117446 
L 274.890184 187.54419 
L 275.194852 168.698359 
L 275.49952 170.697072 
L 275.804188 162.191301 
L 276.108857 196.009875 
L 276.413525 199.169589 
L 276.718193 166.999749 
L 277.022862 187.946367 
L 277.32753 200.680964 
L 277.632198 165.012723 
L 277.936867 204.680574 
L 278.241535 204.398413 
L 278.546203 165.022105 
L 278.850871 204.729839 
L 279.15554 177.526758 
L 279.460208 191.025284 
L 279.764876 173.38457 
L 280.069545 167.970449 
L 280.374213 190.488525 
L 280.678881 168.406897 
L 280.98355 214.756364 
L 281.288218 211.467067 
L 281.592886 199.266373 
L 281.897555 164.924903 
L 282.202223 197.714691 
L 282.506891 197.421149 
L 282.811559 168.839294 
L 283.116228 207.612262 
L 283.420896 179.98712 
L 283.725564 184.511723 
L 284.334901 206.647755 
L 284.639569 174.333579 
L 284.944238 182.704062 
L 285.248906 208.590084 
L 285.553574 179.851362 
L 285.858242 190.290044 
L 286.467579 171.608421 
L 286.772247 167.366676 
L 287.076916 190.783348 
L 287.381584 182.728386 
L 287.686252 193.325645 
L 287.990921 171.132202 
L 288.295589 195.384945 
L 288.600257 193.553637 
L 288.904926 183.416407 
L 289.209594 181.185563 
L 289.514262 154.276883 
L 289.81893 144.12552 
L 290.123599 180.159013 
L 290.428267 152.324512 
L 290.732935 162.526654 
L 291.037604 177.336921 
L 291.342272 162.206149 
L 291.64694 139.105185 
L 291.951609 139.144823 
L 292.256277 133.748634 
L 292.560945 152.089939 
L 292.865613 157.169148 
L 293.170282 140.324708 
L 293.47495 151.296483 
L 293.779618 129.222462 
L 294.084287 117.015439 
L 294.388955 133.951274 
L 294.693623 115.640226 
L 294.998292 128.580152 
L 295.30296 133.063833 
L 295.607628 141.310282 
L 295.912297 132.886975 
L 296.216965 141.499208 
L 296.521633 99.237864 
L 296.826301 124.365321 
L 297.13097 93.436773 
L 297.435638 109.470968 
L 297.740306 109.050102 
L 298.044975 96.855264 
L 298.349643 104.772411 
L 298.654311 101.724322 
L 298.95898 121.123297 
L 299.568316 82.686779 
L 299.872984 75.416944 
L 300.177653 102.883275 
L 300.482321 99.365934 
L 300.786989 97.733128 
L 301.091658 81.685357 
L 301.396326 102.540904 
L 301.700994 78.743123 
L 302.005663 75.446739 
L 302.310331 56.796832 
L 302.614999 98.358509 
L 302.919668 96.688334 
L 303.224336 64.550338 
L 303.529004 80.881023 
L 303.833672 49.629755 
L 304.138341 79.241592 
L 304.443009 69.486932 
L 304.747677 38.922886 
L 305.052346 63.811696 
L 305.357014 37.243638 
L 305.661682 80.187454 
L 305.966351 32.901296 
L 306.271019 32.576851 
L 306.575687 59.294838 
L 306.880355 71.871625 
L 307.185024 29.174895 
L 307.489692 27.786645 
L 307.79436 35.925068 
L 308.099029 53.949441 
L 308.403697 24.625353 
L 308.708365 73.703112 
L 309.013034 68.250631 
L 309.317702 43.530438 
L 309.62237 33.957492 
L 309.927039 36.013775 
L 310.231707 42.872952 
L 310.536375 28.528697 
L 310.841043 22.872538 
L 311.145712 49.061226 
L 311.755048 32.027023 
L 312.059717 27.99156 
L 312.364385 32.319352 
L 312.669053 65.944973 
L 312.973722 58.833625 
L 313.27839 45.690537 
L 313.583058 20.353763 
L 313.887727 67.219604 
L 314.192395 50.957468 
L 314.497063 66.368216 
L 314.801731 55.369776 
L 315.1064 65.88262 
L 315.411068 22.501945 
L 315.715736 53.142191 
L 316.020405 22.488552 
L 316.325073 54.846736 
L 316.629741 56.611729 
L 316.93441 29.616515 
L 317.239078 69.731383 
L 317.543746 62.237482 
L 317.848414 57.673381 
L 318.153083 68.061465 
L 318.457751 56.30428 
L 318.762419 83.014952 
L 319.067088 82.787197 
L 319.371756 68.470236 
L 319.676424 62.60723 
L 319.981093 80.84363 
L 320.285761 53.053446 
L 320.590429 73.251527 
L 320.895098 69.469506 
L 321.199766 46.254057 
L 321.504434 57.67706 
L 321.809102 91.26619 
L 322.113771 91.747179 
L 322.723107 69.478366 
L 323.027776 72.551353 
L 323.637112 110.741104 
L 323.941781 67.754656 
L 324.551117 111.766284 
L 324.855785 97.942155 
L 325.160454 92.76337 
L 325.465122 122.447095 
L 325.76979 86.758656 
L 326.074459 91.607068 
L 326.379127 107.022665 
L 326.683795 90.355599 
L 326.988464 112.751852 
L 327.293132 100.342171 
L 327.5978 117.199216 
L 327.902469 142.88286 
L 328.207137 143.428761 
L 328.511805 102.144508 
L 328.816473 147.461724 
L 329.121142 117.685477 
L 329.42581 131.068537 
L 330.035147 122.624737 
L 330.339815 140.426954 
L 330.644483 139.10627 
L 330.949152 130.761248 
L 331.25382 128.34809 
L 331.558488 158.228545 
L 331.863156 145.6336 
L 332.167825 146.332516 
L 332.472493 150.747022 
L 332.777161 134.204413 
L 333.386498 178.141368 
L 333.691166 157.043943 
L 333.995835 180.123404 
L 334.300503 142.023601 
L 334.605171 146.737965 
L 334.90984 175.247949 
L 335.214508 171.484122 
L 335.519176 146.751664 
L 335.823844 153.030556 
L 336.128513 193.412591 
L 336.433181 165.754484 
L 336.737849 189.751055 
L 337.042518 181.151842 
L 337.347186 163.195992 
L 337.651854 163.432643 
L 337.956523 182.121554 
L 338.261191 185.728781 
L 338.565859 192.559403 
L 338.870527 209.087453 
L 339.175196 206.981328 
L 339.479864 169.799931 
L 340.089201 205.142049 
L 340.393869 177.170033 
L 340.698537 198.421307 
L 341.003206 165.351408 
L 341.307874 176.931918 
L 341.612542 182.833285 
L 341.917211 182.330973 
L 342.221879 202.037998 
L 342.831215 213.931151 
L 343.135884 195.121773 
L 343.440552 194.421145 
L 343.74522 209.528091 
L 344.049889 187.73731 
L 344.354557 211.778108 
L 344.659225 201.370298 
L 344.963894 200.640892 
L 345.268562 208.503945 
L 345.877898 166.90282 
L 346.182567 210.833703 
L 346.487235 202.02872 
L 346.791903 180.085054 
L 347.096572 185.829669 
L 347.40124 200.124347 
L 347.705908 197.033222 
L 348.010577 165.7219 
L 348.315245 171.975065 
L 348.619913 158.979241 
L 348.924582 150.929749 
L 349.22925 181.431575 
L 349.533918 154.11937 
L 349.838586 194.35427 
L 350.143255 161.48186 
L 350.447923 165.76911 
L 350.752591 141.228413 
L 351.05726 157.268507 
L 351.666596 175.000981 
L 351.971265 139.235037 
L 352.275933 132.843567 
L 352.580601 130.88566 
L 352.88527 147.902002 
L 353.189938 136.952516 
L 353.799274 171.839213 
L 354.103943 138.140956 
L 354.408611 141.877435 
L 354.713279 121.000941 
L 355.017948 139.771647 
L 355.627284 132.216992 
L 355.931953 107.784799 
L 356.236621 136.132346 
L 356.541289 149.615691 
L 356.845957 129.608024 
L 357.150626 127.624188 
L 357.455294 128.467891 
L 357.759962 99.710192 
L 358.064631 120.371638 
L 358.064631 120.371638 
" clip-path="url(#p996d1bb768)" style="fill: none; stroke: #1f77b4; stroke-width: 1.5; stroke-linecap: square"/>
   </g>
   <g id="patch_3">
    <path d="M 38.482813 224.64 
L 38.482813 7.2 
" style="fill: none; stroke: #000000; stroke-width: 0.8; stroke-linejoin: miter; stroke-linecap: square"/>
   </g>
   <g id="patch_4">
    <path d="M 373.282813 224.64 
L 373.282813 7.2 
" style="fill: none; stroke: #000000; stroke-width: 0.8; stroke-linejoin: miter; stroke-linecap: square"/>
   </g>
   <g id="patch_5">
    <path d="M 38.482813 224.64 
L 373.282813 224.64 
" style="fill: none; stroke: #000000; stroke-width: 0.8; stroke-linejoin: miter; stroke-linecap: square"/>
   </g>
   <g id="patch_6">
    <path d="M 38.482813 7.2 
L 373.282813 7.2 
" style="fill: none; stroke: #000000; stroke-width: 0.8; stroke-linejoin: miter; stroke-linecap: square"/>
   </g>
  </g>
 </g>
 <defs>
  <clipPath id="p996d1bb768">
   <rect x="38.482813" y="7.2" width="334.8" height="217.44"/>
  </clipPath>
 </defs>
</svg>
