<?xml version="1.0" encoding="utf-8" standalone="no"?>
<!DOCTYPE svg PUBLIC "-//W3C//DTD SVG 1.1//EN"
  "http://www.w3.org/Graphics/SVG/1.1/DTD/svg11.dtd">
<svg xmlns:xlink="http://www.w3.org/1999/xlink" width="385.78125pt" height="262.19625pt" viewBox="0 0 385.78125 262.19625" xmlns="http://www.w3.org/2000/svg" version="1.1">
 <metadata>
  <rdf:RDF xmlns:dc="http://purl.org/dc/elements/1.1/" xmlns:cc="http://creativecommons.org/ns#" xmlns:rdf="http://www.w3.org/1999/02/22-rdf-syntax-ns#">
   <cc:Work>
    <dc:type rdf:resource="http://purl.org/dc/dcmitype/StillImage"/>
    <dc:date>2022-07-20T10:42:54.534818</dc:date>
    <dc:format>image/svg+xml</dc:format>
    <dc:creator>
     <cc:Agent>
      <dc:title>Matplotlib v3.5.2, https://matplotlib.org/</dc:title>
     </cc:Agent>
    </dc:creator>
   </cc:Work>
  </rdf:RDF>
 </metadata>
 <defs>
  <style type="text/css">*{stroke-linejoin: round; stroke-linecap: butt}</style>
 </defs>
 <g id="figure_1">
  <g id="patch_1">
   <path d="M 0 262.19625 
L 385.78125 262.19625 
L 385.78125 0 
L 0 0 
L 0 262.19625 
z
" style="fill: none"/>
  </g>
  <g id="axes_1">
   <g id="patch_2">
    <path d="M 43.78125 224.64 
L 378.58125 224.64 
L 378.58125 7.2 
L 43.78125 7.2 
z
" style="fill: #ffffff"/>
   </g>
   <g id="matplotlib.axis_1">
    <g id="xtick_1">
     <g id="line2d_1">
      <defs>
       <path id="mceea8a196c" d="M 0 0 
L 0 3.5 
" style="stroke: #000000; stroke-width: 0.8"/>
      </defs>
      <g>
       <use xlink:href="#mceea8a196c" x="58.999432" y="224.64" style="stroke: #000000; stroke-width: 0.8"/>
      </g>
     </g>
     <g id="text_1">
      <!-- 400 -->
      <g transform="translate(49.455682 239.238437)scale(0.1 -0.1)">
       <defs>
        <path id="DejaVuSans-34" d="M 2419 4116 
L 825 1625 
L 2419 1625 
L 2419 4116 
z
M 2253 4666 
L 3047 4666 
L 3047 1625 
L 3713 1625 
L 3713 1100 
L 3047 1100 
L 3047 0 
L 2419 0 
L 2419 1100 
L 313 1100 
L 313 1709 
L 2253 4666 
z
" transform="scale(0.015625)"/>
        <path id="DejaVuSans-30" d="M 2034 4250 
Q 1547 4250 1301 3770 
Q 1056 3291 1056 2328 
Q 1056 1369 1301 889 
Q 1547 409 2034 409 
Q 2525 409 2770 889 
Q 3016 1369 3016 2328 
Q 3016 3291 2770 3770 
Q 2525 4250 2034 4250 
z
M 2034 4750 
Q 2819 4750 3233 4129 
Q 3647 3509 3647 2328 
Q 3647 1150 3233 529 
Q 2819 -91 2034 -91 
Q 1250 -91 836 529 
Q 422 1150 422 2328 
Q 422 3509 836 4129 
Q 1250 4750 2034 4750 
z
" transform="scale(0.015625)"/>
       </defs>
       <use xlink:href="#DejaVuSans-34"/>
       <use xlink:href="#DejaVuSans-30" x="63.623047"/>
       <use xlink:href="#DejaVuSans-30" x="127.246094"/>
      </g>
     </g>
    </g>
    <g id="xtick_2">
     <g id="line2d_2">
      <g>
       <use xlink:href="#mceea8a196c" x="126.635795" y="224.64" style="stroke: #000000; stroke-width: 0.8"/>
      </g>
     </g>
     <g id="text_2">
      <!-- 500 -->
      <g transform="translate(117.092045 239.238437)scale(0.1 -0.1)">
       <defs>
        <path id="DejaVuSans-35" d="M 691 4666 
L 3169 4666 
L 3169 4134 
L 1269 4134 
L 1269 2991 
Q 1406 3038 1543 3061 
Q 1681 3084 1819 3084 
Q 2600 3084 3056 2656 
Q 3513 2228 3513 1497 
Q 3513 744 3044 326 
Q 2575 -91 1722 -91 
Q 1428 -91 1123 -41 
Q 819 9 494 109 
L 494 744 
Q 775 591 1075 516 
Q 1375 441 1709 441 
Q 2250 441 2565 725 
Q 2881 1009 2881 1497 
Q 2881 1984 2565 2268 
Q 2250 2553 1709 2553 
Q 1456 2553 1204 2497 
Q 953 2441 691 2322 
L 691 4666 
z
" transform="scale(0.015625)"/>
       </defs>
       <use xlink:href="#DejaVuSans-35"/>
       <use xlink:href="#DejaVuSans-30" x="63.623047"/>
       <use xlink:href="#DejaVuSans-30" x="127.246094"/>
      </g>
     </g>
    </g>
    <g id="xtick_3">
     <g id="line2d_3">
      <g>
       <use xlink:href="#mceea8a196c" x="194.272159" y="224.64" style="stroke: #000000; stroke-width: 0.8"/>
      </g>
     </g>
     <g id="text_3">
      <!-- 600 -->
      <g transform="translate(184.728409 239.238437)scale(0.1 -0.1)">
       <defs>
        <path id="DejaVuSans-36" d="M 2113 2584 
Q 1688 2584 1439 2293 
Q 1191 2003 1191 1497 
Q 1191 994 1439 701 
Q 1688 409 2113 409 
Q 2538 409 2786 701 
Q 3034 994 3034 1497 
Q 3034 2003 2786 2293 
Q 2538 2584 2113 2584 
z
M 3366 4563 
L 3366 3988 
Q 3128 4100 2886 4159 
Q 2644 4219 2406 4219 
Q 1781 4219 1451 3797 
Q 1122 3375 1075 2522 
Q 1259 2794 1537 2939 
Q 1816 3084 2150 3084 
Q 2853 3084 3261 2657 
Q 3669 2231 3669 1497 
Q 3669 778 3244 343 
Q 2819 -91 2113 -91 
Q 1303 -91 875 529 
Q 447 1150 447 2328 
Q 447 3434 972 4092 
Q 1497 4750 2381 4750 
Q 2619 4750 2861 4703 
Q 3103 4656 3366 4563 
z
" transform="scale(0.015625)"/>
       </defs>
       <use xlink:href="#DejaVuSans-36"/>
       <use xlink:href="#DejaVuSans-30" x="63.623047"/>
       <use xlink:href="#DejaVuSans-30" x="127.246094"/>
      </g>
     </g>
    </g>
    <g id="xtick_4">
     <g id="line2d_4">
      <g>
       <use xlink:href="#mceea8a196c" x="261.908523" y="224.64" style="stroke: #000000; stroke-width: 0.8"/>
      </g>
     </g>
     <g id="text_4">
      <!-- 700 -->
      <g transform="translate(252.364773 239.238437)scale(0.1 -0.1)">
       <defs>
        <path id="DejaVuSans-37" d="M 525 4666 
L 3525 4666 
L 3525 4397 
L 1831 0 
L 1172 0 
L 2766 4134 
L 525 4134 
L 525 4666 
z
" transform="scale(0.015625)"/>
       </defs>
       <use xlink:href="#DejaVuSans-37"/>
       <use xlink:href="#DejaVuSans-30" x="63.623047"/>
       <use xlink:href="#DejaVuSans-30" x="127.246094"/>
      </g>
     </g>
    </g>
    <g id="xtick_5">
     <g id="line2d_5">
      <g>
       <use xlink:href="#mceea8a196c" x="329.544886" y="224.64" style="stroke: #000000; stroke-width: 0.8"/>
      </g>
     </g>
     <g id="text_5">
      <!-- 800 -->
      <g transform="translate(320.001136 239.238437)scale(0.1 -0.1)">
       <defs>
        <path id="DejaVuSans-38" d="M 2034 2216 
Q 1584 2216 1326 1975 
Q 1069 1734 1069 1313 
Q 1069 891 1326 650 
Q 1584 409 2034 409 
Q 2484 409 2743 651 
Q 3003 894 3003 1313 
Q 3003 1734 2745 1975 
Q 2488 2216 2034 2216 
z
M 1403 2484 
Q 997 2584 770 2862 
Q 544 3141 544 3541 
Q 544 4100 942 4425 
Q 1341 4750 2034 4750 
Q 2731 4750 3128 4425 
Q 3525 4100 3525 3541 
Q 3525 3141 3298 2862 
Q 3072 2584 2669 2484 
Q 3125 2378 3379 2068 
Q 3634 1759 3634 1313 
Q 3634 634 3220 271 
Q 2806 -91 2034 -91 
Q 1263 -91 848 271 
Q 434 634 434 1313 
Q 434 1759 690 2068 
Q 947 2378 1403 2484 
z
M 1172 3481 
Q 1172 3119 1398 2916 
Q 1625 2713 2034 2713 
Q 2441 2713 2670 2916 
Q 2900 3119 2900 3481 
Q 2900 3844 2670 4047 
Q 2441 4250 2034 4250 
Q 1625 4250 1398 4047 
Q 1172 3844 1172 3481 
z
" transform="scale(0.015625)"/>
       </defs>
       <use xlink:href="#DejaVuSans-38"/>
       <use xlink:href="#DejaVuSans-30" x="63.623047"/>
       <use xlink:href="#DejaVuSans-30" x="127.246094"/>
      </g>
     </g>
    </g>
    <g id="text_6">
     <!-- Wavelength, nm -->
     <g transform="translate(170.301562 252.916562)scale(0.1 -0.1)">
      <defs>
       <path id="DejaVuSans-57" d="M 213 4666 
L 850 4666 
L 1831 722 
L 2809 4666 
L 3519 4666 
L 4500 722 
L 5478 4666 
L 6119 4666 
L 4947 0 
L 4153 0 
L 3169 4050 
L 2175 0 
L 1381 0 
L 213 4666 
z
" transform="scale(0.015625)"/>
       <path id="DejaVuSans-61" d="M 2194 1759 
Q 1497 1759 1228 1600 
Q 959 1441 959 1056 
Q 959 750 1161 570 
Q 1363 391 1709 391 
Q 2188 391 2477 730 
Q 2766 1069 2766 1631 
L 2766 1759 
L 2194 1759 
z
M 3341 1997 
L 3341 0 
L 2766 0 
L 2766 531 
Q 2569 213 2275 61 
Q 1981 -91 1556 -91 
Q 1019 -91 701 211 
Q 384 513 384 1019 
Q 384 1609 779 1909 
Q 1175 2209 1959 2209 
L 2766 2209 
L 2766 2266 
Q 2766 2663 2505 2880 
Q 2244 3097 1772 3097 
Q 1472 3097 1187 3025 
Q 903 2953 641 2809 
L 641 3341 
Q 956 3463 1253 3523 
Q 1550 3584 1831 3584 
Q 2591 3584 2966 3190 
Q 3341 2797 3341 1997 
z
" transform="scale(0.015625)"/>
       <path id="DejaVuSans-76" d="M 191 3500 
L 800 3500 
L 1894 563 
L 2988 3500 
L 3597 3500 
L 2284 0 
L 1503 0 
L 191 3500 
z
" transform="scale(0.015625)"/>
       <path id="DejaVuSans-65" d="M 3597 1894 
L 3597 1613 
L 953 1613 
Q 991 1019 1311 708 
Q 1631 397 2203 397 
Q 2534 397 2845 478 
Q 3156 559 3463 722 
L 3463 178 
Q 3153 47 2828 -22 
Q 2503 -91 2169 -91 
Q 1331 -91 842 396 
Q 353 884 353 1716 
Q 353 2575 817 3079 
Q 1281 3584 2069 3584 
Q 2775 3584 3186 3129 
Q 3597 2675 3597 1894 
z
M 3022 2063 
Q 3016 2534 2758 2815 
Q 2500 3097 2075 3097 
Q 1594 3097 1305 2825 
Q 1016 2553 972 2059 
L 3022 2063 
z
" transform="scale(0.015625)"/>
       <path id="DejaVuSans-6c" d="M 603 4863 
L 1178 4863 
L 1178 0 
L 603 0 
L 603 4863 
z
" transform="scale(0.015625)"/>
       <path id="DejaVuSans-6e" d="M 3513 2113 
L 3513 0 
L 2938 0 
L 2938 2094 
Q 2938 2591 2744 2837 
Q 2550 3084 2163 3084 
Q 1697 3084 1428 2787 
Q 1159 2491 1159 1978 
L 1159 0 
L 581 0 
L 581 3500 
L 1159 3500 
L 1159 2956 
Q 1366 3272 1645 3428 
Q 1925 3584 2291 3584 
Q 2894 3584 3203 3211 
Q 3513 2838 3513 2113 
z
" transform="scale(0.015625)"/>
       <path id="DejaVuSans-67" d="M 2906 1791 
Q 2906 2416 2648 2759 
Q 2391 3103 1925 3103 
Q 1463 3103 1205 2759 
Q 947 2416 947 1791 
Q 947 1169 1205 825 
Q 1463 481 1925 481 
Q 2391 481 2648 825 
Q 2906 1169 2906 1791 
z
M 3481 434 
Q 3481 -459 3084 -895 
Q 2688 -1331 1869 -1331 
Q 1566 -1331 1297 -1286 
Q 1028 -1241 775 -1147 
L 775 -588 
Q 1028 -725 1275 -790 
Q 1522 -856 1778 -856 
Q 2344 -856 2625 -561 
Q 2906 -266 2906 331 
L 2906 616 
Q 2728 306 2450 153 
Q 2172 0 1784 0 
Q 1141 0 747 490 
Q 353 981 353 1791 
Q 353 2603 747 3093 
Q 1141 3584 1784 3584 
Q 2172 3584 2450 3431 
Q 2728 3278 2906 2969 
L 2906 3500 
L 3481 3500 
L 3481 434 
z
" transform="scale(0.015625)"/>
       <path id="DejaVuSans-74" d="M 1172 4494 
L 1172 3500 
L 2356 3500 
L 2356 3053 
L 1172 3053 
L 1172 1153 
Q 1172 725 1289 603 
Q 1406 481 1766 481 
L 2356 481 
L 2356 0 
L 1766 0 
Q 1100 0 847 248 
Q 594 497 594 1153 
L 594 3053 
L 172 3053 
L 172 3500 
L 594 3500 
L 594 4494 
L 1172 4494 
z
" transform="scale(0.015625)"/>
       <path id="DejaVuSans-68" d="M 3513 2113 
L 3513 0 
L 2938 0 
L 2938 2094 
Q 2938 2591 2744 2837 
Q 2550 3084 2163 3084 
Q 1697 3084 1428 2787 
Q 1159 2491 1159 1978 
L 1159 0 
L 581 0 
L 581 4863 
L 1159 4863 
L 1159 2956 
Q 1366 3272 1645 3428 
Q 1925 3584 2291 3584 
Q 2894 3584 3203 3211 
Q 3513 2838 3513 2113 
z
" transform="scale(0.015625)"/>
       <path id="DejaVuSans-2c" d="M 750 794 
L 1409 794 
L 1409 256 
L 897 -744 
L 494 -744 
L 750 256 
L 750 794 
z
" transform="scale(0.015625)"/>
       <path id="DejaVuSans-20" transform="scale(0.015625)"/>
       <path id="DejaVuSans-6d" d="M 3328 2828 
Q 3544 3216 3844 3400 
Q 4144 3584 4550 3584 
Q 5097 3584 5394 3201 
Q 5691 2819 5691 2113 
L 5691 0 
L 5113 0 
L 5113 2094 
Q 5113 2597 4934 2840 
Q 4756 3084 4391 3084 
Q 3944 3084 3684 2787 
Q 3425 2491 3425 1978 
L 3425 0 
L 2847 0 
L 2847 2094 
Q 2847 2600 2669 2842 
Q 2491 3084 2119 3084 
Q 1678 3084 1418 2786 
Q 1159 2488 1159 1978 
L 1159 0 
L 581 0 
L 581 3500 
L 1159 3500 
L 1159 2956 
Q 1356 3278 1631 3431 
Q 1906 3584 2284 3584 
Q 2666 3584 2933 3390 
Q 3200 3197 3328 2828 
z
" transform="scale(0.015625)"/>
      </defs>
      <use xlink:href="#DejaVuSans-57"/>
      <use xlink:href="#DejaVuSans-61" x="92.501953"/>
      <use xlink:href="#DejaVuSans-76" x="153.78125"/>
      <use xlink:href="#DejaVuSans-65" x="212.960938"/>
      <use xlink:href="#DejaVuSans-6c" x="274.484375"/>
      <use xlink:href="#DejaVuSans-65" x="302.267578"/>
      <use xlink:href="#DejaVuSans-6e" x="363.791016"/>
      <use xlink:href="#DejaVuSans-67" x="427.169922"/>
      <use xlink:href="#DejaVuSans-74" x="490.646484"/>
      <use xlink:href="#DejaVuSans-68" x="529.855469"/>
      <use xlink:href="#DejaVuSans-2c" x="593.234375"/>
      <use xlink:href="#DejaVuSans-20" x="625.021484"/>
      <use xlink:href="#DejaVuSans-6e" x="656.808594"/>
      <use xlink:href="#DejaVuSans-6d" x="720.1875"/>
     </g>
    </g>
   </g>
   <g id="matplotlib.axis_2">
    <g id="ytick_1">
     <g id="line2d_6">
      <defs>
       <path id="m3bd7fd36ab" d="M 0 0 
L -3.5 0 
" style="stroke: #000000; stroke-width: 0.8"/>
      </defs>
      <g>
       <use xlink:href="#m3bd7fd36ab" x="43.78125" y="212.56" style="stroke: #000000; stroke-width: 0.8"/>
      </g>
     </g>
     <g id="text_7">
      <!-- 0.0 -->
      <g transform="translate(20.878125 216.359219)scale(0.1 -0.1)">
       <defs>
        <path id="DejaVuSans-2e" d="M 684 794 
L 1344 794 
L 1344 0 
L 684 0 
L 684 794 
z
" transform="scale(0.015625)"/>
       </defs>
       <use xlink:href="#DejaVuSans-30"/>
       <use xlink:href="#DejaVuSans-2e" x="63.623047"/>
       <use xlink:href="#DejaVuSans-30" x="95.410156"/>
      </g>
     </g>
    </g>
    <g id="ytick_2">
     <g id="line2d_7">
      <g>
       <use xlink:href="#m3bd7fd36ab" x="43.78125" y="168.632727" style="stroke: #000000; stroke-width: 0.8"/>
      </g>
     </g>
     <g id="text_8">
      <!-- 0.2 -->
      <g transform="translate(20.878125 172.431946)scale(0.1 -0.1)">
       <defs>
        <path id="DejaVuSans-32" d="M 1228 531 
L 3431 531 
L 3431 0 
L 469 0 
L 469 531 
Q 828 903 1448 1529 
Q 2069 2156 2228 2338 
Q 2531 2678 2651 2914 
Q 2772 3150 2772 3378 
Q 2772 3750 2511 3984 
Q 2250 4219 1831 4219 
Q 1534 4219 1204 4116 
Q 875 4013 500 3803 
L 500 4441 
Q 881 4594 1212 4672 
Q 1544 4750 1819 4750 
Q 2544 4750 2975 4387 
Q 3406 4025 3406 3419 
Q 3406 3131 3298 2873 
Q 3191 2616 2906 2266 
Q 2828 2175 2409 1742 
Q 1991 1309 1228 531 
z
" transform="scale(0.015625)"/>
       </defs>
       <use xlink:href="#DejaVuSans-30"/>
       <use xlink:href="#DejaVuSans-2e" x="63.623047"/>
       <use xlink:href="#DejaVuSans-32" x="95.410156"/>
      </g>
     </g>
    </g>
    <g id="ytick_3">
     <g id="line2d_8">
      <g>
       <use xlink:href="#m3bd7fd36ab" x="43.78125" y="124.705455" style="stroke: #000000; stroke-width: 0.8"/>
      </g>
     </g>
     <g id="text_9">
      <!-- 0.4 -->
      <g transform="translate(20.878125 128.504673)scale(0.1 -0.1)">
       <use xlink:href="#DejaVuSans-30"/>
       <use xlink:href="#DejaVuSans-2e" x="63.623047"/>
       <use xlink:href="#DejaVuSans-34" x="95.410156"/>
      </g>
     </g>
    </g>
    <g id="ytick_4">
     <g id="line2d_9">
      <g>
       <use xlink:href="#m3bd7fd36ab" x="43.78125" y="80.778182" style="stroke: #000000; stroke-width: 0.8"/>
      </g>
     </g>
     <g id="text_10">
      <!-- 0.6 -->
      <g transform="translate(20.878125 84.577401)scale(0.1 -0.1)">
       <use xlink:href="#DejaVuSans-30"/>
       <use xlink:href="#DejaVuSans-2e" x="63.623047"/>
       <use xlink:href="#DejaVuSans-36" x="95.410156"/>
      </g>
     </g>
    </g>
    <g id="ytick_5">
     <g id="line2d_10">
      <g>
       <use xlink:href="#m3bd7fd36ab" x="43.78125" y="36.850909" style="stroke: #000000; stroke-width: 0.8"/>
      </g>
     </g>
     <g id="text_11">
      <!-- 0.8 -->
      <g transform="translate(20.878125 40.650128)scale(0.1 -0.1)">
       <use xlink:href="#DejaVuSans-30"/>
       <use xlink:href="#DejaVuSans-2e" x="63.623047"/>
       <use xlink:href="#DejaVuSans-38" x="95.410156"/>
      </g>
     </g>
    </g>
    <g id="text_12">
     <!-- Absorbance -->
     <g transform="translate(14.798438 145.466875)rotate(-90)scale(0.1 -0.1)">
      <defs>
       <path id="DejaVuSans-41" d="M 2188 4044 
L 1331 1722 
L 3047 1722 
L 2188 4044 
z
M 1831 4666 
L 2547 4666 
L 4325 0 
L 3669 0 
L 3244 1197 
L 1141 1197 
L 716 0 
L 50 0 
L 1831 4666 
z
" transform="scale(0.015625)"/>
       <path id="DejaVuSans-62" d="M 3116 1747 
Q 3116 2381 2855 2742 
Q 2594 3103 2138 3103 
Q 1681 3103 1420 2742 
Q 1159 2381 1159 1747 
Q 1159 1113 1420 752 
Q 1681 391 2138 391 
Q 2594 391 2855 752 
Q 3116 1113 3116 1747 
z
M 1159 2969 
Q 1341 3281 1617 3432 
Q 1894 3584 2278 3584 
Q 2916 3584 3314 3078 
Q 3713 2572 3713 1747 
Q 3713 922 3314 415 
Q 2916 -91 2278 -91 
Q 1894 -91 1617 61 
Q 1341 213 1159 525 
L 1159 0 
L 581 0 
L 581 4863 
L 1159 4863 
L 1159 2969 
z
" transform="scale(0.015625)"/>
       <path id="DejaVuSans-73" d="M 2834 3397 
L 2834 2853 
Q 2591 2978 2328 3040 
Q 2066 3103 1784 3103 
Q 1356 3103 1142 2972 
Q 928 2841 928 2578 
Q 928 2378 1081 2264 
Q 1234 2150 1697 2047 
L 1894 2003 
Q 2506 1872 2764 1633 
Q 3022 1394 3022 966 
Q 3022 478 2636 193 
Q 2250 -91 1575 -91 
Q 1294 -91 989 -36 
Q 684 19 347 128 
L 347 722 
Q 666 556 975 473 
Q 1284 391 1588 391 
Q 1994 391 2212 530 
Q 2431 669 2431 922 
Q 2431 1156 2273 1281 
Q 2116 1406 1581 1522 
L 1381 1569 
Q 847 1681 609 1914 
Q 372 2147 372 2553 
Q 372 3047 722 3315 
Q 1072 3584 1716 3584 
Q 2034 3584 2315 3537 
Q 2597 3491 2834 3397 
z
" transform="scale(0.015625)"/>
       <path id="DejaVuSans-6f" d="M 1959 3097 
Q 1497 3097 1228 2736 
Q 959 2375 959 1747 
Q 959 1119 1226 758 
Q 1494 397 1959 397 
Q 2419 397 2687 759 
Q 2956 1122 2956 1747 
Q 2956 2369 2687 2733 
Q 2419 3097 1959 3097 
z
M 1959 3584 
Q 2709 3584 3137 3096 
Q 3566 2609 3566 1747 
Q 3566 888 3137 398 
Q 2709 -91 1959 -91 
Q 1206 -91 779 398 
Q 353 888 353 1747 
Q 353 2609 779 3096 
Q 1206 3584 1959 3584 
z
" transform="scale(0.015625)"/>
       <path id="DejaVuSans-72" d="M 2631 2963 
Q 2534 3019 2420 3045 
Q 2306 3072 2169 3072 
Q 1681 3072 1420 2755 
Q 1159 2438 1159 1844 
L 1159 0 
L 581 0 
L 581 3500 
L 1159 3500 
L 1159 2956 
Q 1341 3275 1631 3429 
Q 1922 3584 2338 3584 
Q 2397 3584 2469 3576 
Q 2541 3569 2628 3553 
L 2631 2963 
z
" transform="scale(0.015625)"/>
       <path id="DejaVuSans-63" d="M 3122 3366 
L 3122 2828 
Q 2878 2963 2633 3030 
Q 2388 3097 2138 3097 
Q 1578 3097 1268 2742 
Q 959 2388 959 1747 
Q 959 1106 1268 751 
Q 1578 397 2138 397 
Q 2388 397 2633 464 
Q 2878 531 3122 666 
L 3122 134 
Q 2881 22 2623 -34 
Q 2366 -91 2075 -91 
Q 1284 -91 818 406 
Q 353 903 353 1747 
Q 353 2603 823 3093 
Q 1294 3584 2113 3584 
Q 2378 3584 2631 3529 
Q 2884 3475 3122 3366 
z
" transform="scale(0.015625)"/>
      </defs>
      <use xlink:href="#DejaVuSans-41"/>
      <use xlink:href="#DejaVuSans-62" x="68.408203"/>
      <use xlink:href="#DejaVuSans-73" x="131.884766"/>
      <use xlink:href="#DejaVuSans-6f" x="183.984375"/>
      <use xlink:href="#DejaVuSans-72" x="245.166016"/>
      <use xlink:href="#DejaVuSans-62" x="286.279297"/>
      <use xlink:href="#DejaVuSans-61" x="349.755859"/>
      <use xlink:href="#DejaVuSans-6e" x="411.035156"/>
      <use xlink:href="#DejaVuSans-63" x="474.414062"/>
      <use xlink:href="#DejaVuSans-65" x="529.394531"/>
     </g>
    </g>
   </g>
   <g id="line2d_11">
    <path d="M 58.999432 192.792727 
L 60.352159 192.792727 
L 61.028523 190.596364 
L 61.704886 190.596364 
L 62.38125 188.4 
L 63.057614 188.4 
L 63.733977 190.596364 
L 64.410341 188.4 
L 65.086705 188.4 
L 65.763068 190.596364 
L 67.792159 190.596364 
L 68.468523 192.792727 
L 69.82125 192.792727 
L 71.850341 199.381818 
L 72.526705 197.185455 
L 73.203068 199.381818 
L 73.879432 199.381818 
L 74.555795 201.578182 
L 75.232159 201.578182 
L 75.908523 203.774545 
L 77.26125 203.774545 
L 77.937614 205.970909 
L 79.966705 205.970909 
L 81.319432 210.363636 
L 81.995795 205.970909 
L 82.672159 208.167273 
L 86.730341 208.167273 
L 87.406705 210.363636 
L 88.083068 208.167273 
L 88.759432 210.363636 
L 89.435795 210.363636 
L 90.112159 208.167273 
L 90.788523 210.363636 
L 91.464886 208.167273 
L 92.14125 210.363636 
L 92.817614 208.167273 
L 93.493977 208.167273 
L 94.170341 210.363636 
L 96.199432 210.363636 
L 96.875795 208.167273 
L 98.904886 208.167273 
L 99.58125 205.970909 
L 100.257614 210.363636 
L 100.933977 208.167273 
L 101.610341 210.363636 
L 102.286705 210.363636 
L 102.963068 208.167273 
L 103.639432 210.363636 
L 104.315795 208.167273 
L 104.992159 208.167273 
L 105.668523 210.363636 
L 106.344886 205.970909 
L 107.697614 210.363636 
L 108.373977 210.363636 
L 109.050341 208.167273 
L 110.403068 208.167273 
L 111.079432 210.363636 
L 111.755795 208.167273 
L 115.137614 208.167273 
L 115.813977 205.970909 
L 116.490341 208.167273 
L 117.166705 208.167273 
L 117.843068 205.970909 
L 118.519432 210.363636 
L 119.195795 205.970909 
L 119.872159 208.167273 
L 121.90125 208.167273 
L 122.577614 205.970909 
L 123.253977 205.970909 
L 123.930341 208.167273 
L 125.959432 208.167273 
L 126.635795 205.970909 
L 127.312159 208.167273 
L 127.988523 208.167273 
L 128.664886 205.970909 
L 130.693977 205.970909 
L 131.370341 208.167273 
L 132.046705 208.167273 
L 132.723068 205.970909 
L 134.075795 205.970909 
L 134.752159 203.774545 
L 135.428523 205.970909 
L 136.104886 205.970909 
L 136.78125 203.774545 
L 137.457614 203.774545 
L 138.133977 205.970909 
L 138.810341 205.970909 
L 139.486705 203.774545 
L 140.839432 203.774545 
L 141.515795 201.578182 
L 142.868523 201.578182 
L 143.544886 203.774545 
L 144.22125 203.774545 
L 144.897614 201.578182 
L 146.926705 201.578182 
L 147.603068 199.381818 
L 148.279432 201.578182 
L 148.955795 199.381818 
L 150.308523 199.381818 
L 150.984886 197.185455 
L 151.66125 197.185455 
L 152.337614 199.381818 
L 153.013977 199.381818 
L 153.690341 197.185455 
L 155.719432 197.185455 
L 157.072159 192.792727 
L 158.424886 192.792727 
L 159.10125 194.989091 
L 159.777614 190.596364 
L 161.130341 190.596364 
L 161.806705 188.4 
L 162.483068 190.596364 
L 163.159432 188.4 
L 164.512159 188.4 
L 165.864886 184.007273 
L 166.54125 184.007273 
L 167.217614 181.810909 
L 167.893977 181.810909 
L 168.570341 179.614545 
L 169.246705 179.614545 
L 170.599432 175.221818 
L 171.275795 175.221818 
L 172.628523 170.829091 
L 173.304886 170.829091 
L 174.657614 166.436364 
L 176.010341 166.436364 
L 176.686705 164.24 
L 177.363068 164.24 
L 178.039432 159.847273 
L 178.715795 157.650909 
L 179.392159 159.847273 
L 180.744886 155.454545 
L 181.42125 155.454545 
L 182.097614 153.258182 
L 182.773977 153.258182 
L 183.450341 151.061818 
L 184.126705 151.061818 
L 184.803068 148.865455 
L 185.479432 148.865455 
L 187.508523 142.276364 
L 188.184886 142.276364 
L 188.86125 140.08 
L 189.537614 140.08 
L 192.919432 129.098182 
L 193.595795 129.098182 
L 194.272159 126.901818 
L 194.948523 122.509091 
L 195.624886 120.312727 
L 196.30125 115.92 
L 196.977614 113.723636 
L 197.653977 109.330909 
L 198.330341 107.134545 
L 199.006705 102.741818 
L 199.683068 100.545455 
L 200.359432 91.76 
L 201.035795 91.76 
L 201.712159 82.974545 
L 203.74125 69.796364 
L 204.417614 67.6 
L 205.093977 61.010909 
L 206.446705 52.225455 
L 207.123068 45.636364 
L 207.799432 41.243636 
L 208.475795 39.047273 
L 210.504886 25.869091 
L 211.18125 23.672727 
L 211.857614 19.28 
L 212.533977 19.28 
L 213.210341 17.083636 
L 213.886705 19.28 
L 214.563068 19.28 
L 215.239432 21.476364 
L 215.915795 21.476364 
L 217.268523 25.869091 
L 219.297614 39.047273 
L 219.973977 47.832727 
L 221.326705 56.618182 
L 222.003068 63.207273 
L 223.355795 80.778182 
L 224.032159 85.170909 
L 224.708523 93.956364 
L 225.384886 100.545455 
L 226.06125 104.938182 
L 226.737614 113.723636 
L 228.766705 133.490909 
L 230.119432 142.276364 
L 230.795795 148.865455 
L 231.472159 153.258182 
L 232.148523 162.043636 
L 233.50125 166.436364 
L 234.177614 170.829091 
L 234.853977 173.025455 
L 235.530341 177.418182 
L 236.206705 179.614545 
L 236.883068 184.007273 
L 240.264886 194.989091 
L 241.617614 194.989091 
L 243.646705 201.578182 
L 244.999432 201.578182 
L 245.675795 203.774545 
L 247.028523 203.774545 
L 247.704886 205.970909 
L 249.057614 205.970909 
L 249.733977 208.167273 
L 250.410341 208.167273 
L 251.086705 205.970909 
L 251.763068 208.167273 
L 255.144886 208.167273 
L 255.82125 210.363636 
L 257.173977 210.363636 
L 257.850341 208.167273 
L 258.526705 210.363636 
L 265.290341 210.363636 
L 265.966705 212.56 
L 266.643068 210.363636 
L 271.377614 210.363636 
L 272.053977 212.56 
L 272.730341 212.56 
L 273.406705 210.363636 
L 274.083068 210.363636 
L 274.759432 212.56 
L 275.435795 210.363636 
L 276.788523 210.363636 
L 277.464886 212.56 
L 280.846705 212.56 
L 281.523068 210.363636 
L 282.199432 210.363636 
L 282.875795 212.56 
L 283.552159 210.363636 
L 284.228523 210.363636 
L 284.904886 212.56 
L 285.58125 210.363636 
L 286.257614 212.56 
L 286.933977 210.363636 
L 287.610341 212.56 
L 288.286705 210.363636 
L 288.963068 212.56 
L 289.639432 210.363636 
L 292.344886 210.363636 
L 293.02125 212.56 
L 293.697614 210.363636 
L 294.373977 212.56 
L 295.050341 212.56 
L 295.726705 210.363636 
L 296.403068 212.56 
L 297.755795 212.56 
L 298.432159 210.363636 
L 299.108523 210.363636 
L 299.784886 212.56 
L 301.137614 212.56 
L 301.813977 210.363636 
L 302.490341 210.363636 
L 303.166705 212.56 
L 311.283068 212.56 
L 311.959432 210.363636 
L 312.635795 212.56 
L 313.312159 210.363636 
L 313.988523 212.56 
L 316.017614 212.56 
L 316.693977 210.363636 
L 317.370341 212.56 
L 318.046705 210.363636 
L 318.723068 212.56 
L 319.399432 210.363636 
L 321.428523 210.363636 
L 322.104886 212.56 
L 322.78125 210.363636 
L 323.457614 210.363636 
L 324.133977 212.56 
L 324.810341 210.363636 
L 325.486705 210.363636 
L 326.163068 212.56 
L 326.839432 210.363636 
L 327.515795 210.363636 
L 328.192159 212.56 
L 328.868523 210.363636 
L 329.544886 212.56 
L 330.22125 212.56 
L 330.897614 210.363636 
L 331.573977 212.56 
L 332.250341 212.56 
L 332.926705 210.363636 
L 336.308523 210.363636 
L 336.984886 212.56 
L 337.66125 212.56 
L 338.337614 210.363636 
L 339.013977 210.363636 
L 339.690341 212.56 
L 340.366705 212.56 
L 341.043068 210.363636 
L 341.719432 210.363636 
L 342.395795 212.56 
L 343.072159 210.363636 
L 344.424886 210.363636 
L 345.10125 208.167273 
L 345.777614 212.56 
L 346.453977 210.363636 
L 347.130341 212.56 
L 347.806705 210.363636 
L 348.483068 212.56 
L 349.159432 210.363636 
L 351.188523 210.363636 
L 351.864886 212.56 
L 352.54125 212.56 
L 353.217614 210.363636 
L 353.893977 210.363636 
L 354.570341 212.56 
L 355.246705 210.363636 
L 355.923068 210.363636 
L 356.599432 212.56 
L 357.275795 210.363636 
L 358.628523 210.363636 
L 359.304886 212.56 
L 359.98125 210.363636 
L 360.657614 210.363636 
L 361.333977 212.56 
L 362.010341 210.363636 
L 363.363068 210.363636 
L 363.363068 210.363636 
" clip-path="url(#p000e4c4c64)" style="fill: none; stroke: #1f77b4; stroke-width: 1.5; stroke-linecap: square"/>
   </g>
   <g id="line2d_12">
    <path d="M 58.999432 157.650909 
L 63.733977 157.650909 
L 64.410341 155.454545 
L 68.468523 155.454545 
L 69.144886 153.258182 
L 71.173977 153.258182 
L 71.850341 155.454545 
L 72.526705 153.258182 
L 73.203068 153.258182 
L 73.879432 151.061818 
L 74.555795 153.258182 
L 75.232159 151.061818 
L 77.937614 151.061818 
L 78.613977 148.865455 
L 81.319432 148.865455 
L 81.995795 144.472727 
L 83.348523 144.472727 
L 85.377614 137.883636 
L 86.053977 137.883636 
L 86.730341 135.687273 
L 87.406705 135.687273 
L 90.112159 126.901818 
L 90.788523 126.901818 
L 91.464886 122.509091 
L 92.817614 122.509091 
L 93.493977 118.116364 
L 94.170341 120.312727 
L 94.846705 115.92 
L 96.875795 109.330909 
L 97.552159 109.330909 
L 98.904886 104.938182 
L 99.58125 100.545455 
L 100.257614 102.741818 
L 100.933977 98.349091 
L 102.963068 91.76 
L 103.639432 91.76 
L 104.315795 89.563636 
L 104.992159 85.170909 
L 105.668523 87.367273 
L 106.344886 82.974545 
L 107.02125 82.974545 
L 107.697614 80.778182 
L 108.373977 80.778182 
L 109.050341 78.581818 
L 109.726705 74.189091 
L 110.403068 74.189091 
L 111.079432 76.385455 
L 112.432159 71.992727 
L 113.108523 71.992727 
L 113.784886 74.189091 
L 114.46125 74.189091 
L 115.137614 71.992727 
L 115.813977 74.189091 
L 116.490341 71.992727 
L 117.166705 74.189091 
L 117.843068 74.189091 
L 118.519432 76.385455 
L 119.195795 74.189091 
L 120.548523 78.581818 
L 121.90125 78.581818 
L 122.577614 76.385455 
L 123.253977 76.385455 
L 123.930341 80.778182 
L 125.283068 80.778182 
L 125.959432 82.974545 
L 126.635795 80.778182 
L 127.312159 82.974545 
L 127.988523 82.974545 
L 129.34125 87.367273 
L 130.017614 87.367273 
L 130.693977 89.563636 
L 131.370341 93.956364 
L 132.046705 93.956364 
L 134.075795 100.545455 
L 134.752159 100.545455 
L 135.428523 107.134545 
L 136.78125 111.527273 
L 137.457614 118.116364 
L 138.810341 126.901818 
L 139.486705 129.098182 
L 142.868523 151.061818 
L 144.22125 164.24 
L 145.573977 168.632727 
L 146.926705 177.418182 
L 147.603068 177.418182 
L 148.279432 184.007273 
L 150.984886 192.792727 
L 151.66125 192.792727 
L 152.337614 197.185455 
L 153.013977 199.381818 
L 154.366705 199.381818 
L 155.719432 203.774545 
L 156.395795 203.774545 
L 157.072159 201.578182 
L 157.748523 203.774545 
L 158.424886 203.774545 
L 159.10125 205.970909 
L 160.453977 205.970909 
L 161.130341 208.167273 
L 161.806705 205.970909 
L 162.483068 208.167273 
L 163.835795 208.167273 
L 164.512159 210.363636 
L 165.188523 210.363636 
L 165.864886 208.167273 
L 167.217614 208.167273 
L 167.893977 210.363636 
L 171.275795 210.363636 
L 171.952159 208.167273 
L 172.628523 208.167273 
L 173.304886 210.363636 
L 173.98125 208.167273 
L 174.657614 208.167273 
L 176.010341 212.56 
L 176.686705 210.363636 
L 178.039432 210.363636 
L 178.715795 208.167273 
L 179.392159 210.363636 
L 186.155795 210.363636 
L 186.832159 208.167273 
L 187.508523 210.363636 
L 196.30125 210.363636 
L 196.977614 212.56 
L 197.653977 210.363636 
L 199.006705 210.363636 
L 199.683068 212.56 
L 200.359432 210.363636 
L 201.035795 212.56 
L 201.712159 210.363636 
L 203.74125 210.363636 
L 204.417614 212.56 
L 205.093977 210.363636 
L 205.770341 210.363636 
L 206.446705 212.56 
L 207.123068 210.363636 
L 209.152159 210.363636 
L 209.828523 212.56 
L 210.504886 210.363636 
L 213.886705 210.363636 
L 214.563068 212.56 
L 215.239432 210.363636 
L 217.268523 210.363636 
L 217.944886 212.56 
L 218.62125 210.363636 
L 222.679432 210.363636 
L 223.355795 212.56 
L 224.032159 212.56 
L 224.708523 210.363636 
L 228.090341 210.363636 
L 228.766705 212.56 
L 229.443068 210.363636 
L 231.472159 210.363636 
L 232.148523 212.56 
L 232.824886 212.56 
L 233.50125 210.363636 
L 236.206705 210.363636 
L 236.883068 212.56 
L 237.559432 212.56 
L 238.235795 210.363636 
L 238.912159 212.56 
L 240.94125 212.56 
L 241.617614 210.363636 
L 242.293977 210.363636 
L 242.970341 212.56 
L 243.646705 212.56 
L 244.323068 210.363636 
L 244.999432 212.56 
L 253.792159 212.56 
L 254.468523 210.363636 
L 255.144886 212.56 
L 257.173977 212.56 
L 257.850341 210.363636 
L 258.526705 212.56 
L 267.319432 212.56 
L 267.995795 210.363636 
L 268.672159 210.363636 
L 269.348523 212.56 
L 287.610341 212.56 
L 288.286705 210.363636 
L 288.963068 212.56 
L 297.755795 212.56 
L 298.432159 210.363636 
L 299.108523 210.363636 
L 299.784886 212.56 
L 319.399432 212.56 
L 320.075795 210.363636 
L 320.752159 212.56 
L 321.428523 210.363636 
L 322.104886 212.56 
L 322.78125 210.363636 
L 323.457614 210.363636 
L 324.133977 212.56 
L 328.192159 212.56 
L 328.868523 210.363636 
L 329.544886 212.56 
L 331.573977 212.56 
L 332.250341 214.756364 
L 333.603068 210.363636 
L 334.279432 210.363636 
L 334.955795 212.56 
L 335.632159 210.363636 
L 336.308523 210.363636 
L 336.984886 214.756364 
L 338.337614 210.363636 
L 339.013977 212.56 
L 339.690341 212.56 
L 340.366705 214.756364 
L 341.719432 210.363636 
L 342.395795 212.56 
L 343.072159 210.363636 
L 343.748523 212.56 
L 344.424886 212.56 
L 345.10125 210.363636 
L 345.777614 212.56 
L 346.453977 210.363636 
L 347.130341 212.56 
L 353.217614 212.56 
L 353.893977 210.363636 
L 354.570341 212.56 
L 357.275795 212.56 
L 357.952159 210.363636 
L 358.628523 212.56 
L 359.304886 212.56 
L 359.98125 210.363636 
L 360.657614 212.56 
L 363.363068 212.56 
L 363.363068 212.56 
" clip-path="url(#p000e4c4c64)" style="fill: none; stroke: #bcbd22; stroke-width: 1.5; stroke-linecap: square"/>
   </g>
   <g id="line2d_13">
    <path d="M 58.999432 212.56 
L 96.199432 212.56 
L 96.875795 203.774545 
L 98.228523 203.774545 
L 98.904886 201.578182 
L 99.58125 201.578182 
L 100.257614 205.970909 
L 100.933977 194.989091 
L 102.286705 194.989091 
L 102.963068 201.578182 
L 103.639432 197.185455 
L 104.315795 186.203636 
L 104.992159 184.007273 
L 106.344886 170.829091 
L 107.02125 166.436364 
L 109.050341 159.847273 
L 109.726705 159.847273 
L 110.403068 155.454545 
L 111.079432 146.669091 
L 112.432159 142.276364 
L 113.784886 142.276364 
L 114.46125 140.08 
L 115.137614 135.687273 
L 117.166705 142.276364 
L 117.843068 140.08 
L 118.519432 133.490909 
L 119.872159 129.098182 
L 121.90125 129.098182 
L 122.577614 131.294545 
L 123.253977 129.098182 
L 123.930341 137.883636 
L 124.606705 131.294545 
L 126.635795 124.705455 
L 127.312159 129.098182 
L 127.988523 126.901818 
L 128.664886 129.098182 
L 129.34125 126.901818 
L 130.017614 126.901818 
L 131.370341 122.509091 
L 132.046705 122.509091 
L 132.723068 120.312727 
L 133.399432 122.509091 
L 136.104886 122.509091 
L 136.78125 120.312727 
L 137.457614 124.705455 
L 138.810341 124.705455 
L 139.486705 129.098182 
L 140.163068 126.901818 
L 142.192159 133.490909 
L 142.868523 137.883636 
L 143.544886 137.883636 
L 144.22125 142.276364 
L 145.573977 146.669091 
L 146.250341 153.258182 
L 147.603068 157.650909 
L 148.279432 162.043636 
L 148.955795 168.632727 
L 149.632159 173.025455 
L 150.984886 177.418182 
L 151.66125 181.810909 
L 152.337614 188.4 
L 153.013977 192.792727 
L 153.690341 192.792727 
L 154.366705 197.185455 
L 155.719432 201.578182 
L 156.395795 208.167273 
L 157.748523 212.56 
L 363.363068 212.56 
L 363.363068 212.56 
" clip-path="url(#p000e4c4c64)" style="fill: none; stroke: #d62728; stroke-width: 1.5; stroke-linecap: square"/>
   </g>
   <g id="line2d_14">
    <path d="M 58.999432 173.025455 
L 60.352159 173.025455 
L 61.028523 170.829091 
L 61.704886 170.829091 
L 62.38125 168.632727 
L 63.057614 168.632727 
L 63.733977 170.829091 
L 64.410341 168.632727 
L 65.086705 168.632727 
L 65.763068 170.829091 
L 66.439432 170.829091 
L 67.115795 168.632727 
L 67.792159 170.829091 
L 69.144886 170.829091 
L 69.82125 168.632727 
L 70.497614 173.025455 
L 73.203068 173.025455 
L 73.879432 175.221818 
L 74.555795 175.221818 
L 75.232159 173.025455 
L 75.908523 175.221818 
L 77.26125 175.221818 
L 77.937614 177.418182 
L 78.613977 175.221818 
L 79.966705 175.221818 
L 80.643068 177.418182 
L 81.319432 177.418182 
L 81.995795 173.025455 
L 82.672159 175.221818 
L 84.70125 175.221818 
L 85.377614 173.025455 
L 86.053977 175.221818 
L 86.730341 173.025455 
L 88.759432 173.025455 
L 90.112159 168.632727 
L 90.788523 170.829091 
L 91.464886 166.436364 
L 92.14125 168.632727 
L 92.817614 166.436364 
L 94.170341 166.436364 
L 94.846705 164.24 
L 95.523068 164.24 
L 96.875795 159.847273 
L 98.228523 159.847273 
L 98.904886 155.454545 
L 100.257614 155.454545 
L 100.933977 153.258182 
L 102.286705 153.258182 
L 102.963068 151.061818 
L 103.639432 151.061818 
L 104.992159 146.669091 
L 105.668523 146.669091 
L 106.344886 144.472727 
L 107.697614 144.472727 
L 108.373977 142.276364 
L 109.050341 142.276364 
L 109.726705 137.883636 
L 110.403068 137.883636 
L 111.079432 140.08 
L 111.755795 135.687273 
L 113.784886 135.687273 
L 114.46125 133.490909 
L 115.137614 133.490909 
L 115.813977 131.294545 
L 116.490341 131.294545 
L 117.166705 133.490909 
L 117.843068 131.294545 
L 118.519432 131.294545 
L 119.195795 129.098182 
L 120.548523 129.098182 
L 121.224886 131.294545 
L 122.577614 126.901818 
L 123.253977 126.901818 
L 123.930341 129.098182 
L 124.606705 126.901818 
L 129.34125 126.901818 
L 130.017614 129.098182 
L 130.693977 129.098182 
L 131.370341 131.294545 
L 132.046705 129.098182 
L 134.752159 129.098182 
L 136.104886 133.490909 
L 137.457614 133.490909 
L 138.133977 135.687273 
L 138.810341 140.08 
L 139.486705 135.687273 
L 140.839432 140.08 
L 141.515795 140.08 
L 142.192159 142.276364 
L 142.868523 142.276364 
L 143.544886 146.669091 
L 144.22125 146.669091 
L 144.897614 148.865455 
L 146.250341 148.865455 
L 146.926705 151.061818 
L 147.603068 151.061818 
L 148.279432 153.258182 
L 148.955795 153.258182 
L 149.632159 155.454545 
L 150.308523 155.454545 
L 150.984886 157.650909 
L 151.66125 157.650909 
L 153.013977 162.043636 
L 154.366705 162.043636 
L 155.719432 166.436364 
L 156.395795 166.436364 
L 157.072159 164.24 
L 159.10125 170.829091 
L 160.453977 170.829091 
L 161.130341 173.025455 
L 161.806705 173.025455 
L 163.159432 177.418182 
L 163.835795 177.418182 
L 164.512159 179.614545 
L 168.570341 179.614545 
L 169.246705 181.810909 
L 169.923068 181.810909 
L 170.599432 179.614545 
L 171.275795 181.810909 
L 171.952159 179.614545 
L 175.333977 179.614545 
L 176.010341 181.810909 
L 176.686705 179.614545 
L 177.363068 179.614545 
L 178.039432 177.418182 
L 178.715795 177.418182 
L 179.392159 179.614545 
L 180.068523 177.418182 
L 182.773977 177.418182 
L 183.450341 175.221818 
L 186.155795 175.221818 
L 186.832159 170.829091 
L 187.508523 173.025455 
L 188.184886 170.829091 
L 190.213977 170.829091 
L 191.566705 166.436364 
L 192.243068 166.436364 
L 192.919432 164.24 
L 194.272159 164.24 
L 196.30125 157.650909 
L 196.977614 157.650909 
L 199.006705 151.061818 
L 199.683068 151.061818 
L 200.359432 146.669091 
L 201.035795 144.472727 
L 201.712159 140.08 
L 203.74125 133.490909 
L 204.417614 133.490909 
L 205.093977 126.901818 
L 210.504886 109.330909 
L 211.18125 109.330909 
L 211.857614 104.938182 
L 212.533977 107.134545 
L 213.210341 104.938182 
L 213.886705 104.938182 
L 214.563068 107.134545 
L 215.915795 107.134545 
L 216.592159 109.330909 
L 217.268523 109.330909 
L 217.944886 111.527273 
L 218.62125 115.92 
L 219.297614 115.92 
L 219.973977 120.312727 
L 220.650341 122.509091 
L 222.003068 131.294545 
L 222.679432 133.490909 
L 223.355795 140.08 
L 224.032159 142.276364 
L 224.708523 146.669091 
L 225.384886 148.865455 
L 226.737614 157.650909 
L 227.413977 159.847273 
L 228.090341 164.24 
L 228.766705 166.436364 
L 229.443068 170.829091 
L 231.472159 177.418182 
L 232.148523 184.007273 
L 232.824886 184.007273 
L 234.853977 190.596364 
L 235.530341 190.596364 
L 237.559432 197.185455 
L 238.235795 194.989091 
L 238.912159 199.381818 
L 239.588523 199.381818 
L 240.264886 201.578182 
L 242.293977 201.578182 
L 242.970341 203.774545 
L 244.323068 203.774545 
L 244.999432 205.970909 
L 249.057614 205.970909 
L 249.733977 208.167273 
L 250.410341 208.167273 
L 251.086705 205.970909 
L 251.763068 205.970909 
L 252.439432 208.167273 
L 253.792159 208.167273 
L 254.468523 205.970909 
L 255.82125 210.363636 
L 256.497614 208.167273 
L 257.850341 208.167273 
L 258.526705 210.363636 
L 259.203068 208.167273 
L 261.232159 208.167273 
L 261.908523 210.363636 
L 262.584886 208.167273 
L 264.613977 208.167273 
L 265.290341 210.363636 
L 267.319432 210.363636 
L 267.995795 208.167273 
L 268.672159 208.167273 
L 269.348523 210.363636 
L 270.70125 210.363636 
L 271.377614 208.167273 
L 272.053977 210.363636 
L 272.730341 210.363636 
L 273.406705 208.167273 
L 274.083068 210.363636 
L 276.112159 210.363636 
L 276.788523 208.167273 
L 277.464886 210.363636 
L 287.610341 210.363636 
L 288.286705 208.167273 
L 288.963068 210.363636 
L 293.02125 210.363636 
L 293.697614 208.167273 
L 294.373977 210.363636 
L 297.755795 210.363636 
L 298.432159 208.167273 
L 299.108523 208.167273 
L 299.784886 210.363636 
L 317.370341 210.363636 
L 318.046705 208.167273 
L 318.723068 210.363636 
L 320.752159 210.363636 
L 321.428523 208.167273 
L 322.104886 210.363636 
L 322.78125 208.167273 
L 323.457614 208.167273 
L 324.133977 210.363636 
L 326.163068 210.363636 
L 326.839432 208.167273 
L 327.515795 210.363636 
L 328.192159 210.363636 
L 328.868523 208.167273 
L 329.544886 210.363636 
L 332.926705 210.363636 
L 333.603068 208.167273 
L 334.279432 208.167273 
L 334.955795 210.363636 
L 335.632159 210.363636 
L 336.308523 208.167273 
L 336.984886 212.56 
L 338.337614 208.167273 
L 339.013977 210.363636 
L 339.690341 210.363636 
L 340.366705 212.56 
L 341.719432 208.167273 
L 342.395795 210.363636 
L 343.072159 208.167273 
L 343.748523 210.363636 
L 344.424886 210.363636 
L 345.10125 208.167273 
L 345.777614 210.363636 
L 346.453977 208.167273 
L 347.130341 210.363636 
L 348.483068 210.363636 
L 349.159432 208.167273 
L 349.835795 210.363636 
L 350.512159 208.167273 
L 351.188523 208.167273 
L 351.864886 210.363636 
L 355.246705 210.363636 
L 355.923068 208.167273 
L 356.599432 210.363636 
L 357.275795 208.167273 
L 357.952159 208.167273 
L 358.628523 210.363636 
L 359.304886 210.363636 
L 359.98125 208.167273 
L 360.657614 210.363636 
L 362.010341 210.363636 
L 362.686705 208.167273 
L 363.363068 210.363636 
L 363.363068 210.363636 
" clip-path="url(#p000e4c4c64)" style="fill: none; stroke: #000000; stroke-width: 1.5; stroke-linecap: square"/>
   </g>
   <g id="patch_3">
    <path d="M 43.78125 224.64 
L 43.78125 7.2 
" style="fill: none; stroke: #000000; stroke-width: 0.8; stroke-linejoin: miter; stroke-linecap: square"/>
   </g>
   <g id="patch_4">
    <path d="M 378.58125 224.64 
L 378.58125 7.2 
" style="fill: none; stroke: #000000; stroke-width: 0.8; stroke-linejoin: miter; stroke-linecap: square"/>
   </g>
   <g id="patch_5">
    <path d="M 43.78125 224.64 
L 378.58125 224.64 
" style="fill: none; stroke: #000000; stroke-width: 0.8; stroke-linejoin: miter; stroke-linecap: square"/>
   </g>
   <g id="patch_6">
    <path d="M 43.78125 7.2 
L 378.58125 7.2 
" style="fill: none; stroke: #000000; stroke-width: 0.8; stroke-linejoin: miter; stroke-linecap: square"/>
   </g>
   <g id="legend_1">
    <g id="patch_7">
     <path d="M 298.115625 73.9125 
L 371.58125 73.9125 
Q 373.58125 73.9125 373.58125 71.9125 
L 373.58125 14.2 
Q 373.58125 12.2 371.58125 12.2 
L 298.115625 12.2 
Q 296.115625 12.2 296.115625 14.2 
L 296.115625 71.9125 
Q 296.115625 73.9125 298.115625 73.9125 
z
" style="fill: #ffffff; opacity: 0.8; stroke: #cccccc; stroke-linejoin: miter"/>
    </g>
    <g id="line2d_15">
     <path d="M 300.115625 20.298437 
L 310.115625 20.298437 
L 320.115625 20.298437 
" style="fill: none; stroke: #1f77b4; stroke-width: 1.5; stroke-linecap: square"/>
    </g>
    <g id="text_13">
     <!-- blue 1 -->
     <g transform="translate(328.115625 23.798437)scale(0.1 -0.1)">
      <defs>
       <path id="DejaVuSans-75" d="M 544 1381 
L 544 3500 
L 1119 3500 
L 1119 1403 
Q 1119 906 1312 657 
Q 1506 409 1894 409 
Q 2359 409 2629 706 
Q 2900 1003 2900 1516 
L 2900 3500 
L 3475 3500 
L 3475 0 
L 2900 0 
L 2900 538 
Q 2691 219 2414 64 
Q 2138 -91 1772 -91 
Q 1169 -91 856 284 
Q 544 659 544 1381 
z
M 1991 3584 
L 1991 3584 
z
" transform="scale(0.015625)"/>
       <path id="DejaVuSans-31" d="M 794 531 
L 1825 531 
L 1825 4091 
L 703 3866 
L 703 4441 
L 1819 4666 
L 2450 4666 
L 2450 531 
L 3481 531 
L 3481 0 
L 794 0 
L 794 531 
z
" transform="scale(0.015625)"/>
      </defs>
      <use xlink:href="#DejaVuSans-62"/>
      <use xlink:href="#DejaVuSans-6c" x="63.476562"/>
      <use xlink:href="#DejaVuSans-75" x="91.259766"/>
      <use xlink:href="#DejaVuSans-65" x="154.638672"/>
      <use xlink:href="#DejaVuSans-20" x="216.162109"/>
      <use xlink:href="#DejaVuSans-31" x="247.949219"/>
     </g>
    </g>
    <g id="line2d_16">
     <path d="M 300.115625 34.976562 
L 310.115625 34.976562 
L 320.115625 34.976562 
" style="fill: none; stroke: #bcbd22; stroke-width: 1.5; stroke-linecap: square"/>
    </g>
    <g id="text_14">
     <!-- yellow 6 -->
     <g transform="translate(328.115625 38.476562)scale(0.1 -0.1)">
      <defs>
       <path id="DejaVuSans-79" d="M 2059 -325 
Q 1816 -950 1584 -1140 
Q 1353 -1331 966 -1331 
L 506 -1331 
L 506 -850 
L 844 -850 
Q 1081 -850 1212 -737 
Q 1344 -625 1503 -206 
L 1606 56 
L 191 3500 
L 800 3500 
L 1894 763 
L 2988 3500 
L 3597 3500 
L 2059 -325 
z
" transform="scale(0.015625)"/>
       <path id="DejaVuSans-77" d="M 269 3500 
L 844 3500 
L 1563 769 
L 2278 3500 
L 2956 3500 
L 3675 769 
L 4391 3500 
L 4966 3500 
L 4050 0 
L 3372 0 
L 2619 2869 
L 1863 0 
L 1184 0 
L 269 3500 
z
" transform="scale(0.015625)"/>
      </defs>
      <use xlink:href="#DejaVuSans-79"/>
      <use xlink:href="#DejaVuSans-65" x="59.179688"/>
      <use xlink:href="#DejaVuSans-6c" x="120.703125"/>
      <use xlink:href="#DejaVuSans-6c" x="148.486328"/>
      <use xlink:href="#DejaVuSans-6f" x="176.269531"/>
      <use xlink:href="#DejaVuSans-77" x="237.451172"/>
      <use xlink:href="#DejaVuSans-20" x="319.238281"/>
      <use xlink:href="#DejaVuSans-36" x="351.025391"/>
     </g>
    </g>
    <g id="line2d_17">
     <path d="M 300.115625 49.654687 
L 310.115625 49.654687 
L 320.115625 49.654687 
" style="fill: none; stroke: #d62728; stroke-width: 1.5; stroke-linecap: square"/>
    </g>
    <g id="text_15">
     <!-- red 40 -->
     <g transform="translate(328.115625 53.154687)scale(0.1 -0.1)">
      <defs>
       <path id="DejaVuSans-64" d="M 2906 2969 
L 2906 4863 
L 3481 4863 
L 3481 0 
L 2906 0 
L 2906 525 
Q 2725 213 2448 61 
Q 2172 -91 1784 -91 
Q 1150 -91 751 415 
Q 353 922 353 1747 
Q 353 2572 751 3078 
Q 1150 3584 1784 3584 
Q 2172 3584 2448 3432 
Q 2725 3281 2906 2969 
z
M 947 1747 
Q 947 1113 1208 752 
Q 1469 391 1925 391 
Q 2381 391 2643 752 
Q 2906 1113 2906 1747 
Q 2906 2381 2643 2742 
Q 2381 3103 1925 3103 
Q 1469 3103 1208 2742 
Q 947 2381 947 1747 
z
" transform="scale(0.015625)"/>
      </defs>
      <use xlink:href="#DejaVuSans-72"/>
      <use xlink:href="#DejaVuSans-65" x="38.863281"/>
      <use xlink:href="#DejaVuSans-64" x="100.386719"/>
      <use xlink:href="#DejaVuSans-20" x="163.863281"/>
      <use xlink:href="#DejaVuSans-34" x="195.650391"/>
      <use xlink:href="#DejaVuSans-30" x="259.273438"/>
     </g>
    </g>
    <g id="line2d_18">
     <path d="M 300.115625 64.332812 
L 310.115625 64.332812 
L 320.115625 64.332812 
" style="fill: none; stroke: #000000; stroke-width: 1.5; stroke-linecap: square"/>
    </g>
    <g id="text_16">
     <!-- mix -->
     <g transform="translate(328.115625 67.832812)scale(0.1 -0.1)">
      <defs>
       <path id="DejaVuSans-69" d="M 603 3500 
L 1178 3500 
L 1178 0 
L 603 0 
L 603 3500 
z
M 603 4863 
L 1178 4863 
L 1178 4134 
L 603 4134 
L 603 4863 
z
" transform="scale(0.015625)"/>
       <path id="DejaVuSans-78" d="M 3513 3500 
L 2247 1797 
L 3578 0 
L 2900 0 
L 1881 1375 
L 863 0 
L 184 0 
L 1544 1831 
L 300 3500 
L 978 3500 
L 1906 2253 
L 2834 3500 
L 3513 3500 
z
" transform="scale(0.015625)"/>
      </defs>
      <use xlink:href="#DejaVuSans-6d"/>
      <use xlink:href="#DejaVuSans-69" x="97.412109"/>
      <use xlink:href="#DejaVuSans-78" x="125.195312"/>
     </g>
    </g>
   </g>
  </g>
 </g>
 <defs>
  <clipPath id="p000e4c4c64">
   <rect x="43.78125" y="7.2" width="334.8" height="217.44"/>
  </clipPath>
 </defs>
</svg>
