<?xml version="1.0" encoding="utf-8" standalone="no"?>
<!DOCTYPE svg PUBLIC "-//W3C//DTD SVG 1.1//EN"
  "http://www.w3.org/Graphics/SVG/1.1/DTD/svg11.dtd">
<svg height="262.19625pt" version="1.1" viewBox="0 0 388.965625 262.19625" width="388.965625pt" xmlns="http://www.w3.org/2000/svg" xmlns:xlink="http://www.w3.org/1999/xlink">
 <metadata>
  <rdf:RDF xmlns:cc="http://creativecommons.org/ns#" xmlns:dc="http://purl.org/dc/elements/1.1/" xmlns:rdf="http://www.w3.org/1999/02/22-rdf-syntax-ns#">
   <cc:Work>
    <dc:type rdf:resource="http://purl.org/dc/dcmitype/StillImage"/>
    <dc:date>2022-05-20T12:49:09.263184</dc:date>
    <dc:format>image/svg+xml</dc:format>
    <dc:creator>
     <cc:Agent>
      <dc:title>Matplotlib v3.4.3, https://matplotlib.org/</dc:title>
     </cc:Agent>
    </dc:creator>
   </cc:Work>
  </rdf:RDF>
 </metadata>
 <defs>
  <style type="text/css">*{stroke-linecap:butt;stroke-linejoin:round;}</style>
 </defs>
 <g id="figure_1">
  <g id="patch_1">
   <path d="M -0 262.19625 
L 388.965625 262.19625 
L 388.965625 0 
L -0 0 
z
" style="fill:none;"/>
  </g>
  <g id="axes_1">
   <g id="patch_2">
    <path d="M 46.965625 224.64 
L 381.765625 224.64 
L 381.765625 7.2 
L 46.965625 7.2 
z
" style="fill:#ffffff;"/>
   </g>
   <g id="PathCollection_1">
    <defs>
     <path d="M 0 3 
C 0.795609 3 1.55874 2.683901 2.12132 2.12132 
C 2.683901 1.55874 3 0.795609 3 0 
C 3 -0.795609 2.683901 -1.55874 2.12132 -2.12132 
C 1.55874 -2.683901 0.795609 -3 0 -3 
C -0.795609 -3 -1.55874 -2.683901 -2.12132 -2.12132 
C -2.683901 -1.55874 -3 -0.795609 -3 0 
C -3 0.795609 -2.683901 1.55874 -2.12132 2.12132 
C -1.55874 2.683901 -0.795609 3 0 3 
z
" id="m57afec5db3" style="stroke:#1f77b4;stroke-opacity:0.8;"/>
    </defs>
    <g clip-path="url(#p6451e89bf6)">
     <use style="fill:#1f77b4;fill-opacity:0.8;stroke:#1f77b4;stroke-opacity:0.8;" x="62.183807" xlink:href="#m57afec5db3" y="164.067601"/>
     <use style="fill:#1f77b4;fill-opacity:0.8;stroke:#1f77b4;stroke-opacity:0.8;" x="93.06032" xlink:href="#m57afec5db3" y="153.859261"/>
     <use style="fill:#1f77b4;fill-opacity:0.8;stroke:#1f77b4;stroke-opacity:0.8;" x="123.936834" xlink:href="#m57afec5db3" y="138.154123"/>
     <use style="fill:#1f77b4;fill-opacity:0.8;stroke:#1f77b4;stroke-opacity:0.8;" x="154.79134" xlink:href="#m57afec5db3" y="122.448984"/>
     <use style="fill:#1f77b4;fill-opacity:0.8;stroke:#1f77b4;stroke-opacity:0.8;" x="185.667853" xlink:href="#m57afec5db3" y="105.958588"/>
     <use style="fill:#1f77b4;fill-opacity:0.8;stroke:#1f77b4;stroke-opacity:0.8;" x="216.544367" xlink:href="#m57afec5db3" y="91.823963"/>
     <use style="fill:#1f77b4;fill-opacity:0.8;stroke:#1f77b4;stroke-opacity:0.8;" x="247.398873" xlink:href="#m57afec5db3" y="76.904082"/>
     <use style="fill:#1f77b4;fill-opacity:0.8;stroke:#1f77b4;stroke-opacity:0.8;" x="278.275386" xlink:href="#m57afec5db3" y="61.9842"/>
     <use style="fill:#1f77b4;fill-opacity:0.8;stroke:#1f77b4;stroke-opacity:0.8;" x="309.129892" xlink:href="#m57afec5db3" y="48.634832"/>
     <use style="fill:#1f77b4;fill-opacity:0.8;stroke:#1f77b4;stroke-opacity:0.8;" x="340.006406" xlink:href="#m57afec5db3" y="32.929693"/>
     <use style="fill:#1f77b4;fill-opacity:0.8;stroke:#1f77b4;stroke-opacity:0.8;" x="150.455864" xlink:href="#m57afec5db3" y="186.840053"/>
     <use style="fill:#1f77b4;fill-opacity:0.8;stroke:#1f77b4;stroke-opacity:0.8;" x="181.332377" xlink:href="#m57afec5db3" y="160.926574"/>
     <use style="fill:#1f77b4;fill-opacity:0.8;stroke:#1f77b4;stroke-opacity:0.8;" x="212.208891" xlink:href="#m57afec5db3" y="138.154123"/>
     <use style="fill:#1f77b4;fill-opacity:0.8;stroke:#1f77b4;stroke-opacity:0.8;" x="243.063397" xlink:href="#m57afec5db3" y="116.166928"/>
     <use style="fill:#1f77b4;fill-opacity:0.8;stroke:#1f77b4;stroke-opacity:0.8;" x="273.93991" xlink:href="#m57afec5db3" y="96.535505"/>
     <use style="fill:#1f77b4;fill-opacity:0.8;stroke:#1f77b4;stroke-opacity:0.8;" x="304.816424" xlink:href="#m57afec5db3" y="78.474595"/>
     <use style="fill:#1f77b4;fill-opacity:0.8;stroke:#1f77b4;stroke-opacity:0.8;" x="335.67093" xlink:href="#m57afec5db3" y="61.198943"/>
     <use style="fill:#1f77b4;fill-opacity:0.8;stroke:#1f77b4;stroke-opacity:0.8;" x="366.547443" xlink:href="#m57afec5db3" y="45.493804"/>
     <use style="fill:#1f77b4;fill-opacity:0.8;stroke:#1f77b4;stroke-opacity:0.8;" x="181.332377" xlink:href="#m57afec5db3" y="165.638115"/>
     <use style="fill:#1f77b4;fill-opacity:0.8;stroke:#1f77b4;stroke-opacity:0.8;" x="243.063397" xlink:href="#m57afec5db3" y="123.234241"/>
     <use style="fill:#1f77b4;fill-opacity:0.8;stroke:#1f77b4;stroke-opacity:0.8;" x="150.455864" xlink:href="#m57afec5db3" y="193.122108"/>
     <use style="fill:#1f77b4;fill-opacity:0.8;stroke:#1f77b4;stroke-opacity:0.8;" x="212.208891" xlink:href="#m57afec5db3" y="152.288747"/>
     <use style="fill:#1f77b4;fill-opacity:0.8;stroke:#1f77b4;stroke-opacity:0.8;" x="154.79134" xlink:href="#m57afec5db3" y="130.301553"/>
     <use style="fill:#1f77b4;fill-opacity:0.8;stroke:#1f77b4;stroke-opacity:0.8;" x="154.79134" xlink:href="#m57afec5db3" y="149.932977"/>
     <use style="fill:#1f77b4;fill-opacity:0.8;stroke:#1f77b4;stroke-opacity:0.8;" x="185.667853" xlink:href="#m57afec5db3" y="112.240644"/>
     <use style="fill:#1f77b4;fill-opacity:0.8;stroke:#1f77b4;stroke-opacity:0.8;" x="216.544367" xlink:href="#m57afec5db3" y="109.099616"/>
     <use style="fill:#1f77b4;fill-opacity:0.8;stroke:#1f77b4;stroke-opacity:0.8;" x="247.398873" xlink:href="#m57afec5db3" y="105.173331"/>
     <use style="fill:#1f77b4;fill-opacity:0.8;stroke:#1f77b4;stroke-opacity:0.8;" x="198.78432" xlink:href="#m57afec5db3" y="72.19254"/>
     <use style="fill:#1f77b4;fill-opacity:0.8;stroke:#1f77b4;stroke-opacity:0.8;" x="229.660833" xlink:href="#m57afec5db3" y="56.487401"/>
     <use style="fill:#1f77b4;fill-opacity:0.8;stroke:#1f77b4;stroke-opacity:0.8;" x="291.391853" xlink:href="#m57afec5db3" y="42.352776"/>
    </g>
   </g>
   <g id="PolyCollection_1">
    <path clip-path="url(#p6451e89bf6)" d="M 62.183807 169.507416 
L 62.183807 214.756364 
L 65.258187 212.763075 
L 68.332567 210.722622 
L 71.406947 208.66265 
L 74.481327 206.633016 
L 77.555708 204.603382 
L 80.630088 202.573749 
L 83.704468 200.544115 
L 86.778848 198.514481 
L 89.853228 196.484847 
L 92.927608 194.518456 
L 96.001989 192.584523 
L 99.076369 190.65059 
L 102.150749 188.716657 
L 105.225129 186.782724 
L 108.299509 184.84879 
L 111.373889 182.994318 
L 114.44827 181.147667 
L 117.52265 179.301017 
L 120.59703 177.413699 
L 123.67141 175.507995 
L 126.74579 173.719874 
L 129.82017 171.924684 
L 132.894551 169.968723 
L 135.968931 168.123654 
L 139.043311 166.371215 
L 142.117691 164.55119 
L 145.192071 162.530245 
L 148.266451 160.459566 
L 151.340832 158.494238 
L 154.415212 156.676533 
L 157.489592 154.623473 
L 160.563972 152.934365 
L 163.638352 151.245328 
L 166.712732 149.506199 
L 169.787113 147.625108 
L 172.861493 145.811219 
L 175.935873 143.965204 
L 179.010253 142.005597 
L 182.084633 140.049459 
L 185.159013 138.080807 
L 188.233394 136.158079 
L 191.307774 134.490811 
L 194.382154 132.64856 
L 197.456534 130.914118 
L 200.530914 129.093737 
L 203.605294 127.338434 
L 206.679675 125.606761 
L 209.754055 123.856635 
L 212.828435 122.206038 
L 215.902815 120.461272 
L 218.977195 118.763485 
L 222.051575 117.073642 
L 225.125956 115.366931 
L 228.200336 113.738727 
L 231.274716 112.097068 
L 234.349096 110.584715 
L 237.423476 109.112524 
L 240.497856 107.535372 
L 243.572237 105.791847 
L 246.646617 104.369623 
L 249.720997 102.898548 
L 252.795377 101.53972 
L 255.869757 100.098351 
L 258.944137 98.515649 
L 262.018518 97.031778 
L 265.092898 95.591774 
L 268.167278 94.293463 
L 271.241658 92.865078 
L 274.316038 91.390609 
L 277.390418 89.916554 
L 280.464799 88.441916 
L 283.539179 86.967278 
L 286.613559 85.49264 
L 289.687939 84.016908 
L 292.762319 82.48315 
L 295.836699 81.047396 
L 298.91108 79.594088 
L 301.98546 78.150593 
L 305.05984 76.780042 
L 308.13422 75.460772 
L 311.2086 74.189231 
L 314.28298 72.9151 
L 317.357361 71.476237 
L 320.431741 70.096431 
L 323.506121 68.769843 
L 326.580501 67.366363 
L 329.654881 65.945631 
L 332.729261 64.641514 
L 335.803642 63.256106 
L 338.878022 61.80344 
L 341.952402 60.395048 
L 345.026782 59.006629 
L 348.101162 57.778666 
L 351.175542 56.550703 
L 354.249923 55.32274 
L 357.324303 54.083095 
L 360.398683 52.798482 
L 363.473063 51.511714 
L 366.547443 50.224659 
L 366.547443 17.083636 
L 366.547443 17.083636 
L 363.473063 19.053162 
L 360.398683 21.029723 
L 357.324303 22.999252 
L 354.249923 24.968776 
L 351.175542 26.984559 
L 348.101162 28.888286 
L 345.026782 30.739952 
L 341.952402 32.604694 
L 338.878022 34.413869 
L 335.803642 36.254138 
L 332.729261 38.029403 
L 329.654881 39.835109 
L 326.580501 41.644104 
L 323.506121 43.451132 
L 320.431741 45.261257 
L 317.357361 47.175618 
L 314.28298 49.034649 
L 311.2086 50.923532 
L 308.13422 52.81323 
L 305.05984 54.610768 
L 301.98546 56.481735 
L 298.91108 58.34794 
L 295.836699 60.187725 
L 292.762319 62.002834 
L 289.687939 63.810539 
L 286.613559 65.508696 
L 283.539179 67.1324 
L 280.464799 68.765597 
L 277.390418 70.569069 
L 274.316038 72.165753 
L 271.241658 73.969491 
L 268.167278 75.632539 
L 265.092898 77.051711 
L 262.018518 78.590178 
L 258.944137 80.238185 
L 255.869757 81.740505 
L 252.795377 83.178892 
L 249.720997 84.630478 
L 246.646617 86.462292 
L 243.572237 87.815991 
L 240.497856 89.423668 
L 237.423476 90.742481 
L 234.349096 92.119396 
L 231.274716 93.590309 
L 228.200336 94.864133 
L 225.125956 96.482488 
L 222.051575 98.040919 
L 218.977195 99.300823 
L 215.902815 100.707854 
L 212.828435 102.120076 
L 209.754055 103.463726 
L 206.679675 104.906168 
L 203.605294 106.352026 
L 200.530914 107.685508 
L 197.456534 109.130585 
L 194.382154 110.583546 
L 191.307774 112.328608 
L 188.233394 113.868484 
L 185.159013 115.142896 
L 182.084633 116.40638 
L 179.010253 117.669865 
L 175.935873 118.991262 
L 172.861493 120.240258 
L 169.787113 121.647501 
L 166.712732 122.917714 
L 163.638352 124.390974 
L 160.563972 125.866479 
L 157.489592 127.342164 
L 154.415212 128.81785 
L 151.340832 130.198997 
L 148.266451 131.42895 
L 145.192071 132.760889 
L 142.117691 134.179727 
L 139.043311 135.603001 
L 135.968931 136.990214 
L 132.894551 138.272761 
L 129.82017 139.555307 
L 126.74579 140.931827 
L 123.67141 142.341197 
L 120.59703 143.750567 
L 117.52265 145.159936 
L 114.44827 146.569306 
L 111.373889 147.978676 
L 108.299509 149.388046 
L 105.225129 150.797416 
L 102.150749 152.20772 
L 99.076369 153.625912 
L 96.001989 155.016598 
L 92.927608 156.375529 
L 89.853228 157.73446 
L 86.778848 158.966019 
L 83.704468 160.196556 
L 80.630088 161.427094 
L 77.555708 162.657631 
L 74.481327 164.02047 
L 71.406947 165.389078 
L 68.332567 166.757949 
L 65.258187 168.132682 
L 62.183807 169.507416 
z
" style="fill:#1f77b4;fill-opacity:0.15;"/>
   </g>
   <g id="matplotlib.axis_1">
    <g id="xtick_1">
     <g id="line2d_1">
      <defs>
       <path d="M 0 0 
L 0 3.5 
" id="m4e021c1485" style="stroke:#000000;stroke-width:0.8;"/>
      </defs>
      <g>
       <use style="stroke:#000000;stroke-width:0.8;" x="79.701772" xlink:href="#m4e021c1485" y="224.64"/>
      </g>
     </g>
     <g id="text_1">
      <!-- 40 -->
      <g transform="translate(73.339272 239.238437)scale(0.1 -0.1)">
       <defs>
        <path d="M 2419 4116 
L 825 1625 
L 2419 1625 
L 2419 4116 
z
M 2253 4666 
L 3047 4666 
L 3047 1625 
L 3713 1625 
L 3713 1100 
L 3047 1100 
L 3047 0 
L 2419 0 
L 2419 1100 
L 313 1100 
L 313 1709 
L 2253 4666 
z
" id="DejaVuSans-34" transform="scale(0.015625)"/>
        <path d="M 2034 4250 
Q 1547 4250 1301 3770 
Q 1056 3291 1056 2328 
Q 1056 1369 1301 889 
Q 1547 409 2034 409 
Q 2525 409 2770 889 
Q 3016 1369 3016 2328 
Q 3016 3291 2770 3770 
Q 2525 4250 2034 4250 
z
M 2034 4750 
Q 2819 4750 3233 4129 
Q 3647 3509 3647 2328 
Q 3647 1150 3233 529 
Q 2819 -91 2034 -91 
Q 1250 -91 836 529 
Q 422 1150 422 2328 
Q 422 3509 836 4129 
Q 1250 4750 2034 4750 
z
" id="DejaVuSans-30" transform="scale(0.015625)"/>
       </defs>
       <use xlink:href="#DejaVuSans-34"/>
       <use x="63.623047" xlink:href="#DejaVuSans-30"/>
      </g>
     </g>
    </g>
    <g id="xtick_2">
     <g id="line2d_2">
      <g>
       <use style="stroke:#000000;stroke-width:0.8;" x="123.716759" xlink:href="#m4e021c1485" y="224.64"/>
      </g>
     </g>
     <g id="text_2">
      <!-- 60 -->
      <g transform="translate(117.354259 239.238437)scale(0.1 -0.1)">
       <defs>
        <path d="M 2113 2584 
Q 1688 2584 1439 2293 
Q 1191 2003 1191 1497 
Q 1191 994 1439 701 
Q 1688 409 2113 409 
Q 2538 409 2786 701 
Q 3034 994 3034 1497 
Q 3034 2003 2786 2293 
Q 2538 2584 2113 2584 
z
M 3366 4563 
L 3366 3988 
Q 3128 4100 2886 4159 
Q 2644 4219 2406 4219 
Q 1781 4219 1451 3797 
Q 1122 3375 1075 2522 
Q 1259 2794 1537 2939 
Q 1816 3084 2150 3084 
Q 2853 3084 3261 2657 
Q 3669 2231 3669 1497 
Q 3669 778 3244 343 
Q 2819 -91 2113 -91 
Q 1303 -91 875 529 
Q 447 1150 447 2328 
Q 447 3434 972 4092 
Q 1497 4750 2381 4750 
Q 2619 4750 2861 4703 
Q 3103 4656 3366 4563 
z
" id="DejaVuSans-36" transform="scale(0.015625)"/>
       </defs>
       <use xlink:href="#DejaVuSans-36"/>
       <use x="63.623047" xlink:href="#DejaVuSans-30"/>
      </g>
     </g>
    </g>
    <g id="xtick_3">
     <g id="line2d_3">
      <g>
       <use style="stroke:#000000;stroke-width:0.8;" x="167.731746" xlink:href="#m4e021c1485" y="224.64"/>
      </g>
     </g>
     <g id="text_3">
      <!-- 80 -->
      <g transform="translate(161.369246 239.238437)scale(0.1 -0.1)">
       <defs>
        <path d="M 2034 2216 
Q 1584 2216 1326 1975 
Q 1069 1734 1069 1313 
Q 1069 891 1326 650 
Q 1584 409 2034 409 
Q 2484 409 2743 651 
Q 3003 894 3003 1313 
Q 3003 1734 2745 1975 
Q 2488 2216 2034 2216 
z
M 1403 2484 
Q 997 2584 770 2862 
Q 544 3141 544 3541 
Q 544 4100 942 4425 
Q 1341 4750 2034 4750 
Q 2731 4750 3128 4425 
Q 3525 4100 3525 3541 
Q 3525 3141 3298 2862 
Q 3072 2584 2669 2484 
Q 3125 2378 3379 2068 
Q 3634 1759 3634 1313 
Q 3634 634 3220 271 
Q 2806 -91 2034 -91 
Q 1263 -91 848 271 
Q 434 634 434 1313 
Q 434 1759 690 2068 
Q 947 2378 1403 2484 
z
M 1172 3481 
Q 1172 3119 1398 2916 
Q 1625 2713 2034 2713 
Q 2441 2713 2670 2916 
Q 2900 3119 2900 3481 
Q 2900 3844 2670 4047 
Q 2441 4250 2034 4250 
Q 1625 4250 1398 4047 
Q 1172 3844 1172 3481 
z
" id="DejaVuSans-38" transform="scale(0.015625)"/>
       </defs>
       <use xlink:href="#DejaVuSans-38"/>
       <use x="63.623047" xlink:href="#DejaVuSans-30"/>
      </g>
     </g>
    </g>
    <g id="xtick_4">
     <g id="line2d_4">
      <g>
       <use style="stroke:#000000;stroke-width:0.8;" x="211.746733" xlink:href="#m4e021c1485" y="224.64"/>
      </g>
     </g>
     <g id="text_4">
      <!-- 100 -->
      <g transform="translate(202.202983 239.238437)scale(0.1 -0.1)">
       <defs>
        <path d="M 794 531 
L 1825 531 
L 1825 4091 
L 703 3866 
L 703 4441 
L 1819 4666 
L 2450 4666 
L 2450 531 
L 3481 531 
L 3481 0 
L 794 0 
L 794 531 
z
" id="DejaVuSans-31" transform="scale(0.015625)"/>
       </defs>
       <use xlink:href="#DejaVuSans-31"/>
       <use x="63.623047" xlink:href="#DejaVuSans-30"/>
       <use x="127.246094" xlink:href="#DejaVuSans-30"/>
      </g>
     </g>
    </g>
    <g id="xtick_5">
     <g id="line2d_5">
      <g>
       <use style="stroke:#000000;stroke-width:0.8;" x="255.76172" xlink:href="#m4e021c1485" y="224.64"/>
      </g>
     </g>
     <g id="text_5">
      <!-- 120 -->
      <g transform="translate(246.21797 239.238437)scale(0.1 -0.1)">
       <defs>
        <path d="M 1228 531 
L 3431 531 
L 3431 0 
L 469 0 
L 469 531 
Q 828 903 1448 1529 
Q 2069 2156 2228 2338 
Q 2531 2678 2651 2914 
Q 2772 3150 2772 3378 
Q 2772 3750 2511 3984 
Q 2250 4219 1831 4219 
Q 1534 4219 1204 4116 
Q 875 4013 500 3803 
L 500 4441 
Q 881 4594 1212 4672 
Q 1544 4750 1819 4750 
Q 2544 4750 2975 4387 
Q 3406 4025 3406 3419 
Q 3406 3131 3298 2873 
Q 3191 2616 2906 2266 
Q 2828 2175 2409 1742 
Q 1991 1309 1228 531 
z
" id="DejaVuSans-32" transform="scale(0.015625)"/>
       </defs>
       <use xlink:href="#DejaVuSans-31"/>
       <use x="63.623047" xlink:href="#DejaVuSans-32"/>
       <use x="127.246094" xlink:href="#DejaVuSans-30"/>
      </g>
     </g>
    </g>
    <g id="xtick_6">
     <g id="line2d_6">
      <g>
       <use style="stroke:#000000;stroke-width:0.8;" x="299.776708" xlink:href="#m4e021c1485" y="224.64"/>
      </g>
     </g>
     <g id="text_6">
      <!-- 140 -->
      <g transform="translate(290.232958 239.238437)scale(0.1 -0.1)">
       <use xlink:href="#DejaVuSans-31"/>
       <use x="63.623047" xlink:href="#DejaVuSans-34"/>
       <use x="127.246094" xlink:href="#DejaVuSans-30"/>
      </g>
     </g>
    </g>
    <g id="xtick_7">
     <g id="line2d_7">
      <g>
       <use style="stroke:#000000;stroke-width:0.8;" x="343.791695" xlink:href="#m4e021c1485" y="224.64"/>
      </g>
     </g>
     <g id="text_7">
      <!-- 160 -->
      <g transform="translate(334.247945 239.238437)scale(0.1 -0.1)">
       <use xlink:href="#DejaVuSans-31"/>
       <use x="63.623047" xlink:href="#DejaVuSans-36"/>
       <use x="127.246094" xlink:href="#DejaVuSans-30"/>
      </g>
     </g>
    </g>
    <g id="text_8">
     <!-- MW -->
     <g transform="translate(205.107813 252.916562)scale(0.1 -0.1)">
      <defs>
       <path d="M 628 4666 
L 1569 4666 
L 2759 1491 
L 3956 4666 
L 4897 4666 
L 4897 0 
L 4281 0 
L 4281 4097 
L 3078 897 
L 2444 897 
L 1241 4097 
L 1241 0 
L 628 0 
L 628 4666 
z
" id="DejaVuSans-4d" transform="scale(0.015625)"/>
       <path d="M 213 4666 
L 850 4666 
L 1831 722 
L 2809 4666 
L 3519 4666 
L 4500 722 
L 5478 4666 
L 6119 4666 
L 4947 0 
L 4153 0 
L 3169 4050 
L 2175 0 
L 1381 0 
L 213 4666 
z
" id="DejaVuSans-57" transform="scale(0.015625)"/>
      </defs>
      <use xlink:href="#DejaVuSans-4d"/>
      <use x="86.279297" xlink:href="#DejaVuSans-57"/>
     </g>
    </g>
   </g>
   <g id="matplotlib.axis_2">
    <g id="ytick_1">
     <g id="line2d_8">
      <defs>
       <path d="M 0 0 
L -3.5 0 
" id="m2dd33dcef3" style="stroke:#000000;stroke-width:0.8;"/>
      </defs>
      <g>
       <use style="stroke:#000000;stroke-width:0.8;" x="46.965625" xlink:href="#m2dd33dcef3" y="215.109302"/>
      </g>
     </g>
     <g id="text_9">
      <!-- 0 -->
      <g transform="translate(33.603125 218.908521)scale(0.1 -0.1)">
       <use xlink:href="#DejaVuSans-30"/>
      </g>
     </g>
    </g>
    <g id="ytick_2">
     <g id="line2d_9">
      <g>
       <use style="stroke:#000000;stroke-width:0.8;" x="46.965625" xlink:href="#m2dd33dcef3" y="175.846455"/>
      </g>
     </g>
     <g id="text_10">
      <!-- 50 -->
      <g transform="translate(27.240625 179.645674)scale(0.1 -0.1)">
       <defs>
        <path d="M 691 4666 
L 3169 4666 
L 3169 4134 
L 1269 4134 
L 1269 2991 
Q 1406 3038 1543 3061 
Q 1681 3084 1819 3084 
Q 2600 3084 3056 2656 
Q 3513 2228 3513 1497 
Q 3513 744 3044 326 
Q 2575 -91 1722 -91 
Q 1428 -91 1123 -41 
Q 819 9 494 109 
L 494 744 
Q 775 591 1075 516 
Q 1375 441 1709 441 
Q 2250 441 2565 725 
Q 2881 1009 2881 1497 
Q 2881 1984 2565 2268 
Q 2250 2553 1709 2553 
Q 1456 2553 1204 2497 
Q 953 2441 691 2322 
L 691 4666 
z
" id="DejaVuSans-35" transform="scale(0.015625)"/>
       </defs>
       <use xlink:href="#DejaVuSans-35"/>
       <use x="63.623047" xlink:href="#DejaVuSans-30"/>
      </g>
     </g>
    </g>
    <g id="ytick_3">
     <g id="line2d_10">
      <g>
       <use style="stroke:#000000;stroke-width:0.8;" x="46.965625" xlink:href="#m2dd33dcef3" y="136.583609"/>
      </g>
     </g>
     <g id="text_11">
      <!-- 100 -->
      <g transform="translate(20.878125 140.382827)scale(0.1 -0.1)">
       <use xlink:href="#DejaVuSans-31"/>
       <use x="63.623047" xlink:href="#DejaVuSans-30"/>
       <use x="127.246094" xlink:href="#DejaVuSans-30"/>
      </g>
     </g>
    </g>
    <g id="ytick_4">
     <g id="line2d_11">
      <g>
       <use style="stroke:#000000;stroke-width:0.8;" x="46.965625" xlink:href="#m2dd33dcef3" y="97.320762"/>
      </g>
     </g>
     <g id="text_12">
      <!-- 150 -->
      <g transform="translate(20.878125 101.119981)scale(0.1 -0.1)">
       <use xlink:href="#DejaVuSans-31"/>
       <use x="63.623047" xlink:href="#DejaVuSans-35"/>
       <use x="127.246094" xlink:href="#DejaVuSans-30"/>
      </g>
     </g>
    </g>
    <g id="ytick_5">
     <g id="line2d_12">
      <g>
       <use style="stroke:#000000;stroke-width:0.8;" x="46.965625" xlink:href="#m2dd33dcef3" y="58.057915"/>
      </g>
     </g>
     <g id="text_13">
      <!-- 200 -->
      <g transform="translate(20.878125 61.857134)scale(0.1 -0.1)">
       <use xlink:href="#DejaVuSans-32"/>
       <use x="63.623047" xlink:href="#DejaVuSans-30"/>
       <use x="127.246094" xlink:href="#DejaVuSans-30"/>
      </g>
     </g>
    </g>
    <g id="ytick_6">
     <g id="line2d_13">
      <g>
       <use style="stroke:#000000;stroke-width:0.8;" x="46.965625" xlink:href="#m2dd33dcef3" y="18.795068"/>
      </g>
     </g>
     <g id="text_14">
      <!-- 250 -->
      <g transform="translate(20.878125 22.594287)scale(0.1 -0.1)">
       <use xlink:href="#DejaVuSans-32"/>
       <use x="63.623047" xlink:href="#DejaVuSans-35"/>
       <use x="127.246094" xlink:href="#DejaVuSans-30"/>
      </g>
     </g>
    </g>
    <g id="text_15">
     <!-- bp -->
     <g transform="translate(14.798438 122.268437)rotate(-90)scale(0.1 -0.1)">
      <defs>
       <path d="M 3116 1747 
Q 3116 2381 2855 2742 
Q 2594 3103 2138 3103 
Q 1681 3103 1420 2742 
Q 1159 2381 1159 1747 
Q 1159 1113 1420 752 
Q 1681 391 2138 391 
Q 2594 391 2855 752 
Q 3116 1113 3116 1747 
z
M 1159 2969 
Q 1341 3281 1617 3432 
Q 1894 3584 2278 3584 
Q 2916 3584 3314 3078 
Q 3713 2572 3713 1747 
Q 3713 922 3314 415 
Q 2916 -91 2278 -91 
Q 1894 -91 1617 61 
Q 1341 213 1159 525 
L 1159 0 
L 581 0 
L 581 4863 
L 1159 4863 
L 1159 2969 
z
" id="DejaVuSans-62" transform="scale(0.015625)"/>
       <path d="M 1159 525 
L 1159 -1331 
L 581 -1331 
L 581 3500 
L 1159 3500 
L 1159 2969 
Q 1341 3281 1617 3432 
Q 1894 3584 2278 3584 
Q 2916 3584 3314 3078 
Q 3713 2572 3713 1747 
Q 3713 922 3314 415 
Q 2916 -91 2278 -91 
Q 1894 -91 1617 61 
Q 1341 213 1159 525 
z
M 3116 1747 
Q 3116 2381 2855 2742 
Q 2594 3103 2138 3103 
Q 1681 3103 1420 2742 
Q 1159 2381 1159 1747 
Q 1159 1113 1420 752 
Q 1681 391 2138 391 
Q 2594 391 2855 752 
Q 3116 1113 3116 1747 
z
" id="DejaVuSans-70" transform="scale(0.015625)"/>
      </defs>
      <use xlink:href="#DejaVuSans-62"/>
      <use x="63.476562" xlink:href="#DejaVuSans-70"/>
     </g>
    </g>
   </g>
   <g id="line2d_14">
    <path clip-path="url(#p6451e89bf6)" d="M 62.183807 187.634785 
L 65.258187 186.099816 
L 68.332567 184.564846 
L 71.406947 183.029877 
L 74.481327 181.494907 
L 77.555708 179.959938 
L 80.630088 178.424968 
L 83.704468 176.889999 
L 86.778848 175.355029 
L 89.853228 173.82006 
L 92.927608 172.28509 
L 96.001989 170.750121 
L 99.076369 169.215151 
L 102.150749 167.680182 
L 105.225129 166.145212 
L 108.299509 164.610243 
L 111.373889 163.075274 
L 114.44827 161.540304 
L 117.52265 160.005335 
L 120.59703 158.470365 
L 123.67141 156.935396 
L 126.74579 155.400426 
L 129.82017 153.865457 
L 132.894551 152.330487 
L 135.968931 150.795518 
L 139.043311 149.260548 
L 142.117691 147.725579 
L 145.192071 146.190609 
L 148.266451 144.65564 
L 151.340832 143.12067 
L 154.415212 141.585701 
L 157.489592 140.050731 
L 160.563972 138.515762 
L 163.638352 136.980792 
L 166.712732 135.445823 
L 169.787113 133.910853 
L 172.861493 132.375884 
L 175.935873 130.840915 
L 179.010253 129.305945 
L 182.084633 127.770976 
L 185.159013 126.236006 
L 188.233394 124.701037 
L 191.307774 123.166067 
L 194.382154 121.631098 
L 197.456534 120.096128 
L 200.530914 118.561159 
L 203.605294 117.026189 
L 206.679675 115.49122 
L 209.754055 113.95625 
L 212.828435 112.421281 
L 215.902815 110.886311 
L 218.977195 109.351342 
L 222.051575 107.816372 
L 225.125956 106.281403 
L 228.200336 104.746433 
L 231.274716 103.211464 
L 234.349096 101.676495 
L 237.423476 100.141525 
L 240.497856 98.606556 
L 243.572237 97.071586 
L 246.646617 95.536617 
L 249.720997 94.001647 
L 252.795377 92.466678 
L 255.869757 90.931708 
L 258.944137 89.396739 
L 262.018518 87.861769 
L 265.092898 86.3268 
L 268.167278 84.79183 
L 271.241658 83.256861 
L 274.316038 81.721891 
L 277.390418 80.186922 
L 280.464799 78.651952 
L 283.539179 77.116983 
L 286.613559 75.582013 
L 289.687939 74.047044 
L 292.762319 72.512074 
L 295.836699 70.977105 
L 298.91108 69.442136 
L 301.98546 67.907166 
L 305.05984 66.372197 
L 308.13422 64.837227 
L 311.2086 63.302258 
L 314.28298 61.767288 
L 317.357361 60.232319 
L 320.431741 58.697349 
L 323.506121 57.16238 
L 326.580501 55.62741 
L 329.654881 54.092441 
L 332.729261 52.557471 
L 335.803642 51.022502 
L 338.878022 49.487532 
L 341.952402 47.952563 
L 345.026782 46.417593 
L 348.101162 44.882624 
L 351.175542 43.347654 
L 354.249923 41.812685 
L 357.324303 40.277716 
L 360.398683 38.742746 
L 363.473063 37.207777 
L 366.547443 35.672807 
" style="fill:none;stroke:#1f77b4;stroke-linecap:square;stroke-width:2.25;"/>
   </g>
   <g id="patch_3">
    <path d="M 46.965625 224.64 
L 46.965625 7.2 
" style="fill:none;stroke:#000000;stroke-linecap:square;stroke-linejoin:miter;stroke-width:0.8;"/>
   </g>
   <g id="patch_4">
    <path d="M 381.765625 224.64 
L 381.765625 7.2 
" style="fill:none;stroke:#000000;stroke-linecap:square;stroke-linejoin:miter;stroke-width:0.8;"/>
   </g>
   <g id="patch_5">
    <path d="M 46.965625 224.64 
L 381.765625 224.64 
" style="fill:none;stroke:#000000;stroke-linecap:square;stroke-linejoin:miter;stroke-width:0.8;"/>
   </g>
   <g id="patch_6">
    <path d="M 46.965625 7.2 
L 381.765625 7.2 
" style="fill:none;stroke:#000000;stroke-linecap:square;stroke-linejoin:miter;stroke-width:0.8;"/>
   </g>
  </g>
 </g>
 <defs>
  <clipPath id="p6451e89bf6">
   <rect height="217.44" width="334.8" x="46.965625" y="7.2"/>
  </clipPath>
 </defs>
</svg>
