<?xml version="1.0" encoding="utf-8" standalone="no"?>
<!DOCTYPE svg PUBLIC "-//W3C//DTD SVG 1.1//EN"
  "http://www.w3.org/Graphics/SVG/1.1/DTD/svg11.dtd">
<svg xmlns:xlink="http://www.w3.org/1999/xlink" width="380.482813pt" height="248.518125pt" viewBox="0 0 380.482813 248.518125" xmlns="http://www.w3.org/2000/svg" version="1.1">
 <metadata>
  <rdf:RDF xmlns:dc="http://purl.org/dc/elements/1.1/" xmlns:cc="http://creativecommons.org/ns#" xmlns:rdf="http://www.w3.org/1999/02/22-rdf-syntax-ns#">
   <cc:Work>
    <dc:type rdf:resource="http://purl.org/dc/dcmitype/StillImage"/>
    <dc:date>2022-06-01T12:58:46.423765</dc:date>
    <dc:format>image/svg+xml</dc:format>
    <dc:creator>
     <cc:Agent>
      <dc:title>Matplotlib v3.5.2, https://matplotlib.org/</dc:title>
     </cc:Agent>
    </dc:creator>
   </cc:Work>
  </rdf:RDF>
 </metadata>
 <defs>
  <style type="text/css">*{stroke-linejoin: round; stroke-linecap: butt}</style>
 </defs>
 <g id="figure_1">
  <g id="patch_1">
   <path d="M -0 248.518125 
L 380.482813 248.518125 
L 380.482813 0 
L -0 0 
L -0 248.518125 
z
" style="fill: none"/>
  </g>
  <g id="axes_1">
   <g id="patch_2">
    <path d="M 38.482813 224.64 
L 373.282813 224.64 
L 373.282813 7.2 
L 38.482813 7.2 
z
" style="fill: #ffffff"/>
   </g>
   <g id="matplotlib.axis_1">
    <g id="xtick_1">
     <g id="line2d_1">
      <defs>
       <path id="mbe4377eecf" d="M 0 0 
L 0 3.5 
" style="stroke: #000000; stroke-width: 0.8"/>
      </defs>
      <g>
       <use xlink:href="#mbe4377eecf" x="53.089208" y="224.64" style="stroke: #000000; stroke-width: 0.8"/>
      </g>
     </g>
     <g id="text_1">
      <!-- 0 -->
      <g transform="translate(49.907958 239.238437)scale(0.1 -0.1)">
       <defs>
        <path id="DejaVuSans-30" d="M 2034 4250 
Q 1547 4250 1301 3770 
Q 1056 3291 1056 2328 
Q 1056 1369 1301 889 
Q 1547 409 2034 409 
Q 2525 409 2770 889 
Q 3016 1369 3016 2328 
Q 3016 3291 2770 3770 
Q 2525 4250 2034 4250 
z
M 2034 4750 
Q 2819 4750 3233 4129 
Q 3647 3509 3647 2328 
Q 3647 1150 3233 529 
Q 2819 -91 2034 -91 
Q 1250 -91 836 529 
Q 422 1150 422 2328 
Q 422 3509 836 4129 
Q 1250 4750 2034 4750 
z
" transform="scale(0.015625)"/>
       </defs>
       <use xlink:href="#DejaVuSans-30"/>
      </g>
     </g>
    </g>
    <g id="xtick_2">
     <g id="line2d_2">
      <g>
       <use xlink:href="#mbe4377eecf" x="101.724923" y="224.64" style="stroke: #000000; stroke-width: 0.8"/>
      </g>
     </g>
     <g id="text_2">
      <!-- 5 -->
      <g transform="translate(98.543673 239.238437)scale(0.1 -0.1)">
       <defs>
        <path id="DejaVuSans-35" d="M 691 4666 
L 3169 4666 
L 3169 4134 
L 1269 4134 
L 1269 2991 
Q 1406 3038 1543 3061 
Q 1681 3084 1819 3084 
Q 2600 3084 3056 2656 
Q 3513 2228 3513 1497 
Q 3513 744 3044 326 
Q 2575 -91 1722 -91 
Q 1428 -91 1123 -41 
Q 819 9 494 109 
L 494 744 
Q 775 591 1075 516 
Q 1375 441 1709 441 
Q 2250 441 2565 725 
Q 2881 1009 2881 1497 
Q 2881 1984 2565 2268 
Q 2250 2553 1709 2553 
Q 1456 2553 1204 2497 
Q 953 2441 691 2322 
L 691 4666 
z
" transform="scale(0.015625)"/>
       </defs>
       <use xlink:href="#DejaVuSans-35"/>
      </g>
     </g>
    </g>
    <g id="xtick_3">
     <g id="line2d_3">
      <g>
       <use xlink:href="#mbe4377eecf" x="150.360638" y="224.64" style="stroke: #000000; stroke-width: 0.8"/>
      </g>
     </g>
     <g id="text_3">
      <!-- 10 -->
      <g transform="translate(143.998138 239.238437)scale(0.1 -0.1)">
       <defs>
        <path id="DejaVuSans-31" d="M 794 531 
L 1825 531 
L 1825 4091 
L 703 3866 
L 703 4441 
L 1819 4666 
L 2450 4666 
L 2450 531 
L 3481 531 
L 3481 0 
L 794 0 
L 794 531 
z
" transform="scale(0.015625)"/>
       </defs>
       <use xlink:href="#DejaVuSans-31"/>
       <use xlink:href="#DejaVuSans-30" x="63.623047"/>
      </g>
     </g>
    </g>
    <g id="xtick_4">
     <g id="line2d_4">
      <g>
       <use xlink:href="#mbe4377eecf" x="198.996353" y="224.64" style="stroke: #000000; stroke-width: 0.8"/>
      </g>
     </g>
     <g id="text_4">
      <!-- 15 -->
      <g transform="translate(192.633853 239.238437)scale(0.1 -0.1)">
       <use xlink:href="#DejaVuSans-31"/>
       <use xlink:href="#DejaVuSans-35" x="63.623047"/>
      </g>
     </g>
    </g>
    <g id="xtick_5">
     <g id="line2d_5">
      <g>
       <use xlink:href="#mbe4377eecf" x="247.632067" y="224.64" style="stroke: #000000; stroke-width: 0.8"/>
      </g>
     </g>
     <g id="text_5">
      <!-- 20 -->
      <g transform="translate(241.269567 239.238437)scale(0.1 -0.1)">
       <defs>
        <path id="DejaVuSans-32" d="M 1228 531 
L 3431 531 
L 3431 0 
L 469 0 
L 469 531 
Q 828 903 1448 1529 
Q 2069 2156 2228 2338 
Q 2531 2678 2651 2914 
Q 2772 3150 2772 3378 
Q 2772 3750 2511 3984 
Q 2250 4219 1831 4219 
Q 1534 4219 1204 4116 
Q 875 4013 500 3803 
L 500 4441 
Q 881 4594 1212 4672 
Q 1544 4750 1819 4750 
Q 2544 4750 2975 4387 
Q 3406 4025 3406 3419 
Q 3406 3131 3298 2873 
Q 3191 2616 2906 2266 
Q 2828 2175 2409 1742 
Q 1991 1309 1228 531 
z
" transform="scale(0.015625)"/>
       </defs>
       <use xlink:href="#DejaVuSans-32"/>
       <use xlink:href="#DejaVuSans-30" x="63.623047"/>
      </g>
     </g>
    </g>
    <g id="xtick_6">
     <g id="line2d_6">
      <g>
       <use xlink:href="#mbe4377eecf" x="296.267782" y="224.64" style="stroke: #000000; stroke-width: 0.8"/>
      </g>
     </g>
     <g id="text_6">
      <!-- 25 -->
      <g transform="translate(289.905282 239.238437)scale(0.1 -0.1)">
       <use xlink:href="#DejaVuSans-32"/>
       <use xlink:href="#DejaVuSans-35" x="63.623047"/>
      </g>
     </g>
    </g>
    <g id="xtick_7">
     <g id="line2d_7">
      <g>
       <use xlink:href="#mbe4377eecf" x="344.903497" y="224.64" style="stroke: #000000; stroke-width: 0.8"/>
      </g>
     </g>
     <g id="text_7">
      <!-- 30 -->
      <g transform="translate(338.540997 239.238437)scale(0.1 -0.1)">
       <defs>
        <path id="DejaVuSans-33" d="M 2597 2516 
Q 3050 2419 3304 2112 
Q 3559 1806 3559 1356 
Q 3559 666 3084 287 
Q 2609 -91 1734 -91 
Q 1441 -91 1130 -33 
Q 819 25 488 141 
L 488 750 
Q 750 597 1062 519 
Q 1375 441 1716 441 
Q 2309 441 2620 675 
Q 2931 909 2931 1356 
Q 2931 1769 2642 2001 
Q 2353 2234 1838 2234 
L 1294 2234 
L 1294 2753 
L 1863 2753 
Q 2328 2753 2575 2939 
Q 2822 3125 2822 3475 
Q 2822 3834 2567 4026 
Q 2313 4219 1838 4219 
Q 1578 4219 1281 4162 
Q 984 4106 628 3988 
L 628 4550 
Q 988 4650 1302 4700 
Q 1616 4750 1894 4750 
Q 2613 4750 3031 4423 
Q 3450 4097 3450 3541 
Q 3450 3153 3228 2886 
Q 3006 2619 2597 2516 
z
" transform="scale(0.015625)"/>
       </defs>
       <use xlink:href="#DejaVuSans-33"/>
       <use xlink:href="#DejaVuSans-30" x="63.623047"/>
      </g>
     </g>
    </g>
   </g>
   <g id="matplotlib.axis_2">
    <g id="ytick_1">
     <g id="line2d_8">
      <defs>
       <path id="mecbcc3fa94" d="M 0 0 
L -3.5 0 
" style="stroke: #000000; stroke-width: 0.8"/>
      </defs>
      <g>
       <use xlink:href="#mecbcc3fa94" x="38.482813" y="198.415941" style="stroke: #000000; stroke-width: 0.8"/>
      </g>
     </g>
     <g id="text_8">
      <!-- −1.0 -->
      <g transform="translate(7.2 202.21516)scale(0.1 -0.1)">
       <defs>
        <path id="DejaVuSans-2212" d="M 678 2272 
L 4684 2272 
L 4684 1741 
L 678 1741 
L 678 2272 
z
" transform="scale(0.015625)"/>
        <path id="DejaVuSans-2e" d="M 684 794 
L 1344 794 
L 1344 0 
L 684 0 
L 684 794 
z
" transform="scale(0.015625)"/>
       </defs>
       <use xlink:href="#DejaVuSans-2212"/>
       <use xlink:href="#DejaVuSans-31" x="83.789062"/>
       <use xlink:href="#DejaVuSans-2e" x="147.412109"/>
       <use xlink:href="#DejaVuSans-30" x="179.199219"/>
      </g>
     </g>
    </g>
    <g id="ytick_2">
     <g id="line2d_9">
      <g>
       <use xlink:href="#mecbcc3fa94" x="38.482813" y="157.996096" style="stroke: #000000; stroke-width: 0.8"/>
      </g>
     </g>
     <g id="text_9">
      <!-- −0.5 -->
      <g transform="translate(7.2 161.795314)scale(0.1 -0.1)">
       <use xlink:href="#DejaVuSans-2212"/>
       <use xlink:href="#DejaVuSans-30" x="83.789062"/>
       <use xlink:href="#DejaVuSans-2e" x="147.412109"/>
       <use xlink:href="#DejaVuSans-35" x="179.199219"/>
      </g>
     </g>
    </g>
    <g id="ytick_3">
     <g id="line2d_10">
      <g>
       <use xlink:href="#mecbcc3fa94" x="38.482813" y="117.576251" style="stroke: #000000; stroke-width: 0.8"/>
      </g>
     </g>
     <g id="text_10">
      <!-- 0.0 -->
      <g transform="translate(15.579688 121.375469)scale(0.1 -0.1)">
       <use xlink:href="#DejaVuSans-30"/>
       <use xlink:href="#DejaVuSans-2e" x="63.623047"/>
       <use xlink:href="#DejaVuSans-30" x="95.410156"/>
      </g>
     </g>
    </g>
    <g id="ytick_4">
     <g id="line2d_11">
      <g>
       <use xlink:href="#mecbcc3fa94" x="38.482813" y="77.156405" style="stroke: #000000; stroke-width: 0.8"/>
      </g>
     </g>
     <g id="text_11">
      <!-- 0.5 -->
      <g transform="translate(15.579688 80.955624)scale(0.1 -0.1)">
       <use xlink:href="#DejaVuSans-30"/>
       <use xlink:href="#DejaVuSans-2e" x="63.623047"/>
       <use xlink:href="#DejaVuSans-35" x="95.410156"/>
      </g>
     </g>
    </g>
    <g id="ytick_5">
     <g id="line2d_12">
      <g>
       <use xlink:href="#mecbcc3fa94" x="38.482813" y="36.73656" style="stroke: #000000; stroke-width: 0.8"/>
      </g>
     </g>
     <g id="text_12">
      <!-- 1.0 -->
      <g transform="translate(15.579688 40.535779)scale(0.1 -0.1)">
       <use xlink:href="#DejaVuSans-31"/>
       <use xlink:href="#DejaVuSans-2e" x="63.623047"/>
       <use xlink:href="#DejaVuSans-30" x="95.410156"/>
      </g>
     </g>
    </g>
   </g>
   <g id="line2d_13">
    <path d="M 53.700994 110.357124 
L 54.006887 104.449138 
L 54.312781 101.125361 
L 54.618674 100.54717 
L 54.924567 99.006372 
L 55.536353 93.600767 
L 55.842246 96.462541 
L 56.148139 101.151175 
L 56.454032 100.386565 
L 56.759925 93.084514 
L 57.065818 79.830281 
L 57.371712 72.565809 
L 57.677605 74.530621 
L 58.289391 90.39122 
L 58.595284 90.62344 
L 58.901177 90.326389 
L 59.512963 77.078506 
L 59.818856 64.830372 
L 60.124749 61.577027 
L 60.430643 56.24127 
L 60.736536 55.965141 
L 61.042429 53.559742 
L 61.348322 55.014587 
L 62.266001 67.407303 
L 62.571894 63.673738 
L 62.877787 57.398214 
L 63.18368 56.523304 
L 63.795467 57.963942 
L 64.10136 56.656055 
L 64.713146 48.053076 
L 65.630825 23.162348 
L 65.936718 19.331087 
L 66.242611 19.429077 
L 67.160291 42.602773 
L 67.466184 43.303296 
L 67.772077 47.804856 
L 68.07797 45.560068 
L 68.383863 42.094739 
L 68.689756 35.684725 
L 68.995649 32.878789 
L 69.301543 35.934491 
L 69.607436 36.634938 
L 69.913329 39.519726 
L 70.219222 41.129094 
L 71.136901 55.154626 
L 71.442794 53.046542 
L 72.05458 36.709256 
L 72.360474 34.484597 
L 73.278153 46.712616 
L 73.584046 48.428045 
L 73.889939 53.697299 
L 74.195832 50.92521 
L 74.807618 42.527055 
L 75.113511 42.977959 
L 75.419405 43.102057 
L 75.725298 46.888069 
L 76.031191 54.531761 
L 76.337084 68.050774 
L 76.642977 74.528611 
L 76.94887 74.771482 
L 77.254763 67.743139 
L 77.560656 63.663827 
L 77.866549 64.373605 
L 78.478336 76.90531 
L 78.784229 79.414942 
L 79.090122 79.052905 
L 79.396015 77.233959 
L 79.701908 79.153505 
L 80.007801 80.030699 
L 80.313694 85.592392 
L 80.619587 89.061089 
L 80.92548 94.144179 
L 81.231373 95.866541 
L 81.537267 99.836862 
L 82.149053 116.470972 
L 82.454946 118.515228 
L 82.760839 111.676127 
L 83.066732 110.84907 
L 83.372625 111.666976 
L 83.678518 115.987922 
L 83.984411 113.078647 
L 84.290305 116.32677 
L 84.596198 122.093583 
L 84.902091 131.926723 
L 85.207984 131.35751 
L 85.81977 118.371338 
L 86.125663 118.170446 
L 86.737449 125.122106 
L 87.655129 147.049306 
L 87.961022 147.905103 
L 88.266915 147.372975 
L 88.572808 148.332039 
L 89.490487 158.443367 
L 89.79638 160.767972 
L 90.408167 158.238161 
L 90.71406 159.282239 
L 91.019953 164.870978 
L 91.325846 172.983881 
L 91.937632 181.349154 
L 92.243525 183.850346 
L 92.549418 184.048626 
L 92.855311 181.760741 
L 93.467098 171.136465 
L 93.772991 168.394634 
L 94.078884 171.319009 
L 94.384777 178.553412 
L 94.996563 200.755045 
L 95.302456 207.155542 
L 95.608349 205.810956 
L 96.220135 199.762402 
L 96.526029 200.320275 
L 96.831922 199.079862 
L 97.137815 195.347023 
L 97.443708 193.735699 
L 97.749601 188.25891 
L 98.055494 190.672802 
L 98.361387 189.333544 
L 98.66728 193.31296 
L 99.279066 182.461875 
L 99.58496 182.420648 
L 100.502639 208.316239 
L 100.808532 208.405235 
L 101.420318 193.986199 
L 101.726211 185.134436 
L 102.032104 181.146261 
L 102.337998 179.343132 
L 102.643891 181.164406 
L 102.949784 178.549781 
L 103.255677 179.966853 
L 103.56157 178.759057 
L 103.867463 184.193781 
L 104.173356 184.301415 
L 104.479249 183.286063 
L 104.785142 178.654532 
L 105.091035 176.374077 
L 105.396929 177.412087 
L 105.702822 177.873872 
L 106.008715 174.42883 
L 106.620501 172.638776 
L 106.926394 178.974586 
L 107.232287 176.169535 
L 107.53818 175.297612 
L 107.844073 169.272449 
L 108.149966 171.974352 
L 109.067646 159.762517 
L 109.373539 161.026202 
L 109.679432 160.627039 
L 109.985325 158.15364 
L 110.291218 154.081454 
L 110.597111 153.856296 
L 110.903004 154.388457 
L 111.208897 152.997896 
L 111.514791 150.695803 
L 111.820684 149.922907 
L 112.126577 150.209196 
L 112.43247 148.264146 
L 112.738363 143.917089 
L 113.044256 137.873047 
L 113.656042 117.195711 
L 113.961935 112.182453 
L 114.267828 114.808447 
L 114.573722 115.347137 
L 114.879615 108.588408 
L 115.185508 96.377345 
L 115.491401 88.74754 
L 115.797294 84.756181 
L 116.103187 88.868023 
L 116.40908 89.413573 
L 116.714973 92.889256 
L 117.020866 88.511801 
L 117.32676 89.721495 
L 117.632653 89.152637 
L 117.938546 94.703042 
L 118.550332 93.22797 
L 119.468011 68.336057 
L 119.773904 62.815584 
L 120.079797 60.938537 
L 120.385691 60.194793 
L 120.691584 60.300376 
L 120.997477 56.978797 
L 121.30337 55.551228 
L 121.609263 54.821717 
L 121.915156 52.386474 
L 122.221049 52.687318 
L 122.526942 51.05647 
L 122.832835 57.129698 
L 123.444622 62.479008 
L 124.668194 44.977035 
L 125.27998 38.320897 
L 125.585873 41.840949 
L 125.891766 43.603362 
L 126.197659 43.865829 
L 127.115339 30.800982 
L 127.421232 31.505824 
L 128.033018 42.239932 
L 128.338911 44.618177 
L 128.950697 39.518517 
L 129.562484 34.854711 
L 129.868377 35.2067 
L 130.17427 36.827726 
L 130.786056 35.470614 
L 131.091949 32.061962 
L 131.397842 31.335279 
L 131.703735 32.441724 
L 132.009628 37.984762 
L 132.315521 47.946781 
L 132.621415 52.219274 
L 132.927308 53.723305 
L 133.233201 47.886327 
L 133.539094 44.854612 
L 133.844987 44.090734 
L 134.456773 52.711797 
L 134.762666 49.52009 
L 135.068559 42.15204 
L 135.374453 41.209059 
L 135.680346 47.005522 
L 135.986239 57.064374 
L 136.598025 67.257537 
L 136.903918 66.14055 
L 137.515704 53.39093 
L 137.821597 52.732621 
L 138.739277 79.419547 
L 139.04517 77.889119 
L 139.351063 78.805699 
L 139.656956 73.938777 
L 139.962849 74.018428 
L 140.268742 74.370975 
L 140.880528 86.676396 
L 141.186421 89.763755 
L 141.492315 85.543979 
L 141.798208 84.927108 
L 142.104101 85.56112 
L 142.409994 88.3321 
L 143.02178 89.607039 
L 143.327673 93.265547 
L 143.633566 94.87474 
L 144.857139 113.113448 
L 145.163032 111.807467 
L 145.774818 119.325691 
L 146.692497 142.130098 
L 147.304283 148.797902 
L 147.91607 154.848324 
L 148.221963 154.186313 
L 148.527856 153.910964 
L 148.833749 154.168414 
L 149.139642 156.709197 
L 149.445535 153.780344 
L 149.751428 149.64874 
L 150.057321 147.436718 
L 150.669108 157.828028 
L 150.975001 165.47347 
L 151.586787 174.317865 
L 151.89268 170.593248 
L 152.198573 170.708085 
L 152.504466 171.081186 
L 152.810359 180.295192 
L 153.116252 182.61909 
L 153.422146 188.026383 
L 153.728039 186.276247 
L 154.033932 190.392958 
L 154.339825 189.422858 
L 154.645718 193.719527 
L 155.257504 198.178797 
L 156.175183 188.800393 
L 156.481077 190.142091 
L 156.78697 187.482406 
L 157.092863 187.74248 
L 157.398756 185.746413 
L 158.010542 190.093644 
L 158.622328 199.137997 
L 158.928221 200.968853 
L 159.234114 199.74843 
L 159.540008 199.804902 
L 160.151794 204.405392 
L 160.457687 200.711417 
L 161.069473 186.873979 
L 161.375366 184.592589 
L 161.681259 187.996817 
L 161.987152 194.661384 
L 162.293045 195.267952 
L 162.598939 193.203018 
L 162.904832 193.845909 
L 163.210725 204.70421 
L 163.516618 209.394987 
L 163.822511 208.962071 
L 164.128404 201.658296 
L 165.046083 191.159303 
L 165.351977 189.598391 
L 165.65787 187.403808 
L 165.963763 188.364996 
L 166.269656 188.13705 
L 167.187335 173.622219 
L 167.493228 175.12846 
L 167.799121 179.473944 
L 168.105014 180.200167 
L 168.410908 179.314489 
L 168.716801 174.526831 
L 169.022694 173.767888 
L 169.328587 173.424786 
L 169.63448 174.636294 
L 169.940373 171.661059 
L 170.858052 153.541971 
L 171.775732 137.648362 
L 172.081625 137.836271 
L 172.693411 148.49987 
L 172.999304 146.102652 
L 173.61109 121.280139 
L 173.916983 119.187864 
L 174.222876 123.175152 
L 174.52877 128.885841 
L 174.834663 122.917 
L 175.446449 117.367711 
L 175.752342 120.811506 
L 176.058235 114.485663 
L 176.670021 93.118555 
L 176.975914 89.154113 
L 177.893594 100.6369 
L 178.199487 97.472459 
L 178.50538 90.985592 
L 178.811273 88.493865 
L 179.117166 88.476293 
L 179.423059 88.941115 
L 179.728952 86.199314 
L 180.340738 82.578181 
L 180.952525 75.166091 
L 181.258418 75.434169 
L 181.564311 77.945948 
L 181.870204 75.542399 
L 182.48199 55.814252 
L 182.787883 53.162758 
L 183.093776 56.70048 
L 183.39967 62.659934 
L 183.705563 59.85602 
L 184.011456 58.824971 
L 184.317349 54.287646 
L 184.623242 55.833516 
L 184.929135 51.631412 
L 185.235028 50.889753 
L 185.540921 48.993596 
L 186.458601 57.05181 
L 186.764494 58.290006 
L 187.070387 55.644386 
L 187.37628 51.133562 
L 187.682173 43.541935 
L 188.293959 39.533747 
L 188.599852 43.561345 
L 188.905745 42.528481 
L 189.211638 45.070261 
L 189.823425 33.129424 
L 190.129318 24.420885 
L 190.435211 23.712177 
L 190.741104 27.204776 
L 191.046997 34.818874 
L 191.35289 38.734909 
L 191.658783 44.081571 
L 191.964676 42.620668 
L 192.270569 42.575289 
L 192.576463 41.472841 
L 193.188249 49.007337 
L 193.494142 47.888655 
L 193.800035 43.665525 
L 194.105928 37.001819 
L 194.411821 33.357297 
L 194.717714 32.667413 
L 195.023607 37.224229 
L 195.635394 51.412286 
L 195.941287 49.117615 
L 196.24718 44.89067 
L 196.553073 45.17016 
L 196.858966 51.747445 
L 197.164859 54.317483 
L 197.470752 51.860127 
L 197.776645 52.225667 
L 198.082538 55.833471 
L 198.388432 65.517414 
L 198.694325 66.601505 
L 199.000218 68.328634 
L 199.306111 67.415385 
L 199.612004 73.011673 
L 199.917897 74.723373 
L 200.529683 65.228124 
L 200.835576 66.250377 
L 201.447363 85.786928 
L 201.753256 89.181528 
L 202.059149 89.554472 
L 202.365042 81.715814 
L 202.670935 81.629906 
L 202.976828 81.424222 
L 203.282721 87.170854 
L 203.894507 92.300981 
L 204.2004 98.636317 
L 204.506294 100.481754 
L 204.812187 105.254845 
L 205.11808 104.657858 
L 205.729866 112.659176 
L 206.035759 118.218372 
L 206.341652 121.024983 
L 206.647545 119.763996 
L 206.953438 119.106969 
L 207.259331 125.252367 
L 207.871118 149.364152 
L 208.177011 153.134968 
L 209.09469 134.757465 
L 209.400583 135.990286 
L 209.706476 139.545985 
L 210.012369 147.161455 
L 211.541835 168.109959 
L 211.847728 164.615244 
L 212.153621 165.359128 
L 212.459514 168.815804 
L 212.765407 174.136157 
L 213.0713 173.192943 
L 213.377193 168.855119 
L 213.683087 167.074677 
L 213.98898 170.524324 
L 214.294873 179.058151 
L 214.906659 187.630199 
L 215.212552 183.633072 
L 215.824338 179.92098 
L 216.130231 186.840299 
L 216.436125 190.692844 
L 216.742018 188.909951 
L 217.047911 182.005579 
L 217.353804 178.344969 
L 217.96559 181.382704 
L 218.271483 182.069381 
L 218.577376 185.086749 
L 219.189162 197.550567 
L 219.495056 195.777234 
L 220.106842 189.653632 
L 220.718628 196.906153 
L 221.330414 209.607317 
L 221.636307 211.646917 
L 221.9422 206.245677 
L 222.553987 188.296216 
L 222.85988 188.381866 
L 223.165773 193.823772 
L 223.777559 207.101044 
L 224.083452 209.432557 
L 224.389345 206.568608 
L 224.695238 199.972981 
L 225.307024 193.466836 
L 225.612918 195.65451 
L 225.918811 195.090272 
L 226.224704 194.125704 
L 227.142383 171.101139 
L 227.448276 168.025201 
L 227.754169 166.098406 
L 228.060062 167.249597 
L 228.365955 167.153108 
L 228.977742 171.437523 
L 229.283635 170.054075 
L 229.589528 167.24724 
L 229.895421 162.134367 
L 230.201314 162.765403 
L 230.507207 161.504792 
L 230.8131 159.154203 
L 231.73078 137.013473 
L 232.036673 138.764361 
L 232.342566 146.524675 
L 232.648459 146.530425 
L 232.954352 142.977064 
L 233.260245 132.94047 
L 233.566138 130.539939 
L 233.872031 130.474926 
L 234.177924 137.667035 
L 234.483818 139.910793 
L 234.789711 140.183526 
L 235.095604 130.303341 
L 235.401497 125.558198 
L 235.70739 122.782318 
L 236.319176 137.786994 
L 236.625069 142.381329 
L 236.930962 136.279497 
L 237.848642 105.896986 
L 238.460428 94.069285 
L 238.766321 92.275411 
L 239.072214 92.936615 
L 239.378107 96.834594 
L 239.684 97.392063 
L 239.989893 98.822299 
L 240.295786 98.473982 
L 240.60168 97.607611 
L 240.907573 92.520474 
L 241.519359 74.565907 
L 241.825252 70.532813 
L 242.131145 73.634031 
L 242.437038 74.158081 
L 242.742931 72.076427 
L 243.048824 72.232059 
L 243.354717 67.035718 
L 243.660611 66.040468 
L 243.966504 60.746736 
L 244.272397 67.301788 
L 244.884183 73.081099 
L 245.190076 68.934906 
L 245.495969 66.531651 
L 245.801862 62.253705 
L 246.107755 55.556881 
L 246.413648 44.026288 
L 246.719542 37.065554 
L 247.025435 37.47245 
L 247.637221 49.644206 
L 247.943114 45.49177 
L 248.5549 28.305549 
L 248.860793 26.676397 
L 249.166686 26.98293 
L 249.47258 26.615034 
L 249.778473 27.159531 
L 250.084366 29.842186 
L 250.390259 34.056469 
L 250.696152 34.124871 
L 251.002045 31.962037 
L 251.307938 33.972079 
L 251.613831 34.261557 
L 251.919724 32.789995 
L 252.225617 22.46873 
L 252.531511 18.32189 
L 252.837404 17.083636 
L 253.44919 31.55147 
L 253.755083 37.912371 
L 254.060976 37.068702 
L 254.366869 39.273486 
L 254.672762 38.495646 
L 254.978655 40.508059 
L 255.284548 37.982873 
L 255.590442 42.040204 
L 255.896335 43.110898 
L 256.202228 45.645504 
L 256.508121 42.703325 
L 256.814014 43.47975 
L 257.4258 51.407056 
L 258.037586 65.568055 
L 258.343479 69.171827 
L 258.649373 67.977136 
L 258.955266 60.979305 
L 259.261159 58.968969 
L 259.567052 53.25427 
L 259.872945 56.283243 
L 260.178838 57.689631 
L 260.790624 74.064093 
L 261.096517 78.568382 
L 261.40241 77.409802 
L 261.708304 74.372315 
L 262.014197 75.406105 
L 262.32009 79.757839 
L 262.625983 79.722158 
L 262.931876 81.145382 
L 263.237769 83.352936 
L 263.543662 94.607323 
L 264.155448 101.826852 
L 264.461342 96.805923 
L 264.767235 97.309022 
L 265.073128 93.478661 
L 265.684914 101.495319 
L 265.990807 113.024275 
L 266.2967 118.392021 
L 266.602593 119.268577 
L 266.908486 115.411919 
L 267.214379 113.860693 
L 267.520273 114.799393 
L 268.437952 120.160666 
L 268.743845 119.749783 
L 269.049738 121.327424 
L 269.355631 128.351276 
L 269.967417 149.635001 
L 270.27331 154.815982 
L 270.885097 157.05233 
L 271.802776 141.884354 
L 272.108669 145.839966 
L 273.026348 176.866645 
L 273.332241 182.413208 
L 273.638135 183.775088 
L 273.944028 178.058947 
L 274.249921 175.136804 
L 274.555814 179.272031 
L 274.861707 185.36413 
L 275.1676 187.364079 
L 275.473493 181.985761 
L 275.779386 179.855161 
L 276.085279 183.568227 
L 276.391172 190.961437 
L 276.697066 194.038353 
L 277.002959 193.825597 
L 277.308852 192.783689 
L 277.920638 197.020449 
L 278.226531 199.517009 
L 278.532424 199.97775 
L 278.838317 196.706153 
L 279.14421 196.606196 
L 279.450104 192.675626 
L 279.755997 190.857794 
L 280.06189 185.801682 
L 280.367783 183.96282 
L 280.673676 188.998573 
L 280.979569 196.659523 
L 281.285462 208.693153 
L 281.591355 208.937984 
L 281.897248 204.945111 
L 282.203141 196.961763 
L 282.509035 195.536233 
L 282.814928 196.996358 
L 283.120821 196.55441 
L 283.426714 197.547123 
L 283.732607 195.880837 
L 284.0385 199.594775 
L 284.650286 200.577825 
L 284.956179 197.985092 
L 285.262072 197.307502 
L 285.567966 199.143356 
L 285.873859 197.389084 
L 286.179752 193.955793 
L 286.485645 186.799894 
L 286.791538 184.177565 
L 287.097431 183.917807 
L 287.403324 189.622442 
L 288.01511 194.062844 
L 288.321003 193.237216 
L 288.626897 196.30819 
L 288.93279 196.102327 
L 289.238683 191.076281 
L 289.850469 170.045573 
L 290.156362 164.888009 
L 290.768148 168.432418 
L 291.074041 171.539011 
L 291.379934 169.542606 
L 291.685828 163.230518 
L 291.991721 152.240466 
L 292.297614 145.692531 
L 292.603507 146.003861 
L 292.9094 150.589826 
L 293.215293 153.494637 
L 293.521186 150.790281 
L 294.744759 127.088804 
L 295.050652 126.734354 
L 295.968331 139.405525 
L 296.274224 135.826789 
L 296.580117 130.682782 
L 296.88601 118.645177 
L 297.497797 106.505198 
L 297.80369 106.302211 
L 298.109583 104.277332 
L 298.415476 103.227287 
L 299.027262 106.489603 
L 299.333155 106.828986 
L 299.944941 90.798989 
L 300.250834 87.32554 
L 300.556728 92.151882 
L 300.862621 94.323439 
L 301.168514 94.84728 
L 301.474407 90.331133 
L 301.7803 87.640249 
L 302.086193 78.980494 
L 302.392086 75.031187 
L 302.697979 74.434887 
L 303.003872 80.366111 
L 303.309765 81.771436 
L 304.227445 63.421701 
L 304.533338 62.517604 
L 304.839231 57.938264 
L 305.145124 50.815003 
L 305.451017 50.033053 
L 305.75691 47.362245 
L 306.062803 48.056192 
L 306.368696 41.166011 
L 306.980483 44.593017 
L 307.286376 45.088421 
L 307.592269 36.442818 
L 307.898162 31.235179 
L 308.204055 29.486297 
L 309.121734 51.362857 
L 309.427627 50.564957 
L 309.733521 44.088702 
L 310.039414 35.225514 
L 310.345307 30.549504 
L 310.957093 26.692689 
L 311.262986 27.160429 
L 311.568879 30.348589 
L 311.874772 30.210862 
L 312.180665 27.903437 
L 312.486559 28.617535 
L 313.098345 45.198861 
L 313.404238 45.030729 
L 314.016024 38.225648 
L 314.62781 50.317234 
L 314.933703 56.306939 
L 315.54549 47.52676 
L 315.851383 36.607862 
L 316.157276 34.987882 
L 316.463169 34.063038 
L 316.769062 39.302655 
L 317.380848 45.784171 
L 317.992634 55.616161 
L 318.604421 60.276194 
L 318.910314 64.441077 
L 319.216207 70.814334 
L 319.5221 71.605477 
L 319.827993 70.362711 
L 320.133886 65.754427 
L 320.439779 64.934964 
L 320.745672 62.96483 
L 321.051565 62.04615 
L 321.357458 57.92838 
L 321.663352 57.857956 
L 321.969245 64.168019 
L 322.275138 75.103913 
L 322.581031 80.721829 
L 322.886924 78.446703 
L 323.192817 74.701398 
L 323.49871 78.649226 
L 324.110496 88.626111 
L 324.416389 87.988654 
L 325.028176 95.905736 
L 325.334069 101.369803 
L 325.639962 101.785974 
L 325.945855 101.583552 
L 326.251748 98.195891 
L 326.557641 96.611669 
L 326.863534 97.748522 
L 327.169427 99.952269 
L 327.781214 111.129121 
L 328.087107 123.338121 
L 328.393 130.434885 
L 328.698893 134.413895 
L 329.004786 129.994607 
L 329.310679 130.941398 
L 329.616572 128.8609 
L 329.922465 130.524143 
L 330.228358 129.800081 
L 330.840145 136.577474 
L 331.146038 137.54555 
L 331.451931 139.397733 
L 331.757824 142.071792 
L 332.063717 148.414032 
L 332.36961 151.510202 
L 332.675503 151.397181 
L 332.981396 150.725202 
L 333.287289 154.308612 
L 333.899076 170.690223 
L 334.204969 171.557663 
L 334.510862 168.380845 
L 334.816755 162.121557 
L 335.122648 163.863824 
L 335.428541 166.86525 
L 335.734434 167.750694 
L 336.040327 167.717113 
L 336.34622 170.000495 
L 336.652114 179.475202 
L 336.958007 184.778301 
L 337.2639 187.45059 
L 337.875686 179.026061 
L 338.181579 178.682477 
L 338.487472 185.104053 
L 339.099258 204.134861 
L 339.405151 207.241245 
L 339.711045 204.509439 
L 340.016938 198.960077 
L 340.322831 197.086984 
L 340.628724 199.008334 
L 341.24051 192.661421 
L 341.546403 185.875322 
L 341.852296 186.016058 
L 342.158189 189.249174 
L 343.075869 213.338411 
L 343.381762 214.756364 
L 343.993548 208.749244 
L 344.299441 209.428801 
L 344.605334 209.650223 
L 344.911227 212.347097 
L 345.21712 212.526658 
L 345.523014 211.540786 
L 346.1348 198.870814 
L 346.440693 197.279665 
L 346.746586 201.413512 
L 347.052479 202.212217 
L 347.664265 199.322112 
L 347.970158 198.70423 
L 348.276051 194.884067 
L 348.887838 174.470118 
L 349.193731 169.17592 
L 349.499624 167.931911 
L 349.805517 173.791228 
L 350.11141 176.062535 
L 350.417303 180.348268 
L 351.334982 160.35732 
L 351.640876 164.039017 
L 351.946769 166.034449 
L 352.252662 163.862419 
L 352.864448 143.76919 
L 353.170341 139.945302 
L 353.476234 144.121481 
L 354.08802 155.8439 
L 354.393913 157.633457 
L 355.311593 136.285336 
L 355.617486 137.123224 
L 356.229272 131.353525 
L 356.535165 129.602169 
L 357.146951 138.164017 
L 357.452844 137.208303 
L 358.064631 122.828558 
L 358.064631 122.828558 
" clip-path="url(#p534f35f653)" style="fill: none; stroke: #1f77b4; stroke-width: 1.5; stroke-linecap: square"/>
   </g>
   <g id="patch_3">
    <path d="M 38.482813 224.64 
L 38.482813 7.2 
" style="fill: none; stroke: #000000; stroke-width: 0.8; stroke-linejoin: miter; stroke-linecap: square"/>
   </g>
   <g id="patch_4">
    <path d="M 373.282813 224.64 
L 373.282813 7.2 
" style="fill: none; stroke: #000000; stroke-width: 0.8; stroke-linejoin: miter; stroke-linecap: square"/>
   </g>
   <g id="patch_5">
    <path d="M 38.482813 224.64 
L 373.282813 224.64 
" style="fill: none; stroke: #000000; stroke-width: 0.8; stroke-linejoin: miter; stroke-linecap: square"/>
   </g>
   <g id="patch_6">
    <path d="M 38.482813 7.2 
L 373.282813 7.2 
" style="fill: none; stroke: #000000; stroke-width: 0.8; stroke-linejoin: miter; stroke-linecap: square"/>
   </g>
  </g>
 </g>
 <defs>
  <clipPath id="p534f35f653">
   <rect x="38.482813" y="7.2" width="334.8" height="217.44"/>
  </clipPath>
 </defs>
</svg>
