<?xml version="1.0" encoding="utf-8" standalone="no"?>
<!DOCTYPE svg PUBLIC "-//W3C//DTD SVG 1.1//EN"
  "http://www.w3.org/Graphics/SVG/1.1/DTD/svg11.dtd">
<svg height="248.518125pt" version="1.1" viewBox="0 0 380.482813 248.518125" width="380.482813pt" xmlns="http://www.w3.org/2000/svg" xmlns:xlink="http://www.w3.org/1999/xlink">
 <metadata>
  <rdf:RDF xmlns:cc="http://creativecommons.org/ns#" xmlns:dc="http://purl.org/dc/elements/1.1/" xmlns:rdf="http://www.w3.org/1999/02/22-rdf-syntax-ns#">
   <cc:Work>
    <dc:type rdf:resource="http://purl.org/dc/dcmitype/StillImage"/>
    <dc:date>2022-05-19T18:59:58.607523</dc:date>
    <dc:format>image/svg+xml</dc:format>
    <dc:creator>
     <cc:Agent>
      <dc:title>Matplotlib v3.4.3, https://matplotlib.org/</dc:title>
     </cc:Agent>
    </dc:creator>
   </cc:Work>
  </rdf:RDF>
 </metadata>
 <defs>
  <style type="text/css">*{stroke-linecap:butt;stroke-linejoin:round;}</style>
 </defs>
 <g id="figure_1">
  <g id="patch_1">
   <path d="M -0 248.518125 
L 380.482813 248.518125 
L 380.482813 0 
L -0 0 
z
" style="fill:none;"/>
  </g>
  <g id="axes_1">
   <g id="patch_2">
    <path d="M 38.482813 224.64 
L 373.282813 224.64 
L 373.282813 7.2 
L 38.482813 7.2 
z
" style="fill:#ffffff;"/>
   </g>
   <g id="matplotlib.axis_1">
    <g id="xtick_1">
     <g id="line2d_1">
      <defs>
       <path d="M 0 0 
L 0 3.5 
" id="m5c4cb733b9" style="stroke:#000000;stroke-width:0.8;"/>
      </defs>
      <g>
       <use style="stroke:#000000;stroke-width:0.8;" x="53.700994" xlink:href="#m5c4cb733b9" y="224.64"/>
      </g>
     </g>
     <g id="text_1">
      <!-- 0 -->
      <g transform="translate(50.519744 239.238437)scale(0.1 -0.1)">
       <defs>
        <path d="M 2034 4250 
Q 1547 4250 1301 3770 
Q 1056 3291 1056 2328 
Q 1056 1369 1301 889 
Q 1547 409 2034 409 
Q 2525 409 2770 889 
Q 3016 1369 3016 2328 
Q 3016 3291 2770 3770 
Q 2525 4250 2034 4250 
z
M 2034 4750 
Q 2819 4750 3233 4129 
Q 3647 3509 3647 2328 
Q 3647 1150 3233 529 
Q 2819 -91 2034 -91 
Q 1250 -91 836 529 
Q 422 1150 422 2328 
Q 422 3509 836 4129 
Q 1250 4750 2034 4750 
z
" id="DejaVuSans-30" transform="scale(0.015625)"/>
       </defs>
       <use xlink:href="#DejaVuSans-30"/>
      </g>
     </g>
    </g>
    <g id="xtick_2">
     <g id="line2d_2">
      <g>
       <use style="stroke:#000000;stroke-width:0.8;" x="102.141972" xlink:href="#m5c4cb733b9" y="224.64"/>
      </g>
     </g>
     <g id="text_2">
      <!-- 5 -->
      <g transform="translate(98.960722 239.238437)scale(0.1 -0.1)">
       <defs>
        <path d="M 691 4666 
L 3169 4666 
L 3169 4134 
L 1269 4134 
L 1269 2991 
Q 1406 3038 1543 3061 
Q 1681 3084 1819 3084 
Q 2600 3084 3056 2656 
Q 3513 2228 3513 1497 
Q 3513 744 3044 326 
Q 2575 -91 1722 -91 
Q 1428 -91 1123 -41 
Q 819 9 494 109 
L 494 744 
Q 775 591 1075 516 
Q 1375 441 1709 441 
Q 2250 441 2565 725 
Q 2881 1009 2881 1497 
Q 2881 1984 2565 2268 
Q 2250 2553 1709 2553 
Q 1456 2553 1204 2497 
Q 953 2441 691 2322 
L 691 4666 
z
" id="DejaVuSans-35" transform="scale(0.015625)"/>
       </defs>
       <use xlink:href="#DejaVuSans-35"/>
      </g>
     </g>
    </g>
    <g id="xtick_3">
     <g id="line2d_3">
      <g>
       <use style="stroke:#000000;stroke-width:0.8;" x="150.582949" xlink:href="#m5c4cb733b9" y="224.64"/>
      </g>
     </g>
     <g id="text_3">
      <!-- 10 -->
      <g transform="translate(144.220449 239.238437)scale(0.1 -0.1)">
       <defs>
        <path d="M 794 531 
L 1825 531 
L 1825 4091 
L 703 3866 
L 703 4441 
L 1819 4666 
L 2450 4666 
L 2450 531 
L 3481 531 
L 3481 0 
L 794 0 
L 794 531 
z
" id="DejaVuSans-31" transform="scale(0.015625)"/>
       </defs>
       <use xlink:href="#DejaVuSans-31"/>
       <use x="63.623047" xlink:href="#DejaVuSans-30"/>
      </g>
     </g>
    </g>
    <g id="xtick_4">
     <g id="line2d_4">
      <g>
       <use style="stroke:#000000;stroke-width:0.8;" x="199.023926" xlink:href="#m5c4cb733b9" y="224.64"/>
      </g>
     </g>
     <g id="text_4">
      <!-- 15 -->
      <g transform="translate(192.661426 239.238437)scale(0.1 -0.1)">
       <use xlink:href="#DejaVuSans-31"/>
       <use x="63.623047" xlink:href="#DejaVuSans-35"/>
      </g>
     </g>
    </g>
    <g id="xtick_5">
     <g id="line2d_5">
      <g>
       <use style="stroke:#000000;stroke-width:0.8;" x="247.464903" xlink:href="#m5c4cb733b9" y="224.64"/>
      </g>
     </g>
     <g id="text_5">
      <!-- 20 -->
      <g transform="translate(241.102403 239.238437)scale(0.1 -0.1)">
       <defs>
        <path d="M 1228 531 
L 3431 531 
L 3431 0 
L 469 0 
L 469 531 
Q 828 903 1448 1529 
Q 2069 2156 2228 2338 
Q 2531 2678 2651 2914 
Q 2772 3150 2772 3378 
Q 2772 3750 2511 3984 
Q 2250 4219 1831 4219 
Q 1534 4219 1204 4116 
Q 875 4013 500 3803 
L 500 4441 
Q 881 4594 1212 4672 
Q 1544 4750 1819 4750 
Q 2544 4750 2975 4387 
Q 3406 4025 3406 3419 
Q 3406 3131 3298 2873 
Q 3191 2616 2906 2266 
Q 2828 2175 2409 1742 
Q 1991 1309 1228 531 
z
" id="DejaVuSans-32" transform="scale(0.015625)"/>
       </defs>
       <use xlink:href="#DejaVuSans-32"/>
       <use x="63.623047" xlink:href="#DejaVuSans-30"/>
      </g>
     </g>
    </g>
    <g id="xtick_6">
     <g id="line2d_6">
      <g>
       <use style="stroke:#000000;stroke-width:0.8;" x="295.90588" xlink:href="#m5c4cb733b9" y="224.64"/>
      </g>
     </g>
     <g id="text_6">
      <!-- 25 -->
      <g transform="translate(289.54338 239.238437)scale(0.1 -0.1)">
       <use xlink:href="#DejaVuSans-32"/>
       <use x="63.623047" xlink:href="#DejaVuSans-35"/>
      </g>
     </g>
    </g>
    <g id="xtick_7">
     <g id="line2d_7">
      <g>
       <use style="stroke:#000000;stroke-width:0.8;" x="344.346858" xlink:href="#m5c4cb733b9" y="224.64"/>
      </g>
     </g>
     <g id="text_7">
      <!-- 30 -->
      <g transform="translate(337.984358 239.238437)scale(0.1 -0.1)">
       <defs>
        <path d="M 2597 2516 
Q 3050 2419 3304 2112 
Q 3559 1806 3559 1356 
Q 3559 666 3084 287 
Q 2609 -91 1734 -91 
Q 1441 -91 1130 -33 
Q 819 25 488 141 
L 488 750 
Q 750 597 1062 519 
Q 1375 441 1716 441 
Q 2309 441 2620 675 
Q 2931 909 2931 1356 
Q 2931 1769 2642 2001 
Q 2353 2234 1838 2234 
L 1294 2234 
L 1294 2753 
L 1863 2753 
Q 2328 2753 2575 2939 
Q 2822 3125 2822 3475 
Q 2822 3834 2567 4026 
Q 2313 4219 1838 4219 
Q 1578 4219 1281 4162 
Q 984 4106 628 3988 
L 628 4550 
Q 988 4650 1302 4700 
Q 1616 4750 1894 4750 
Q 2613 4750 3031 4423 
Q 3450 4097 3450 3541 
Q 3450 3153 3228 2886 
Q 3006 2619 2597 2516 
z
" id="DejaVuSans-33" transform="scale(0.015625)"/>
       </defs>
       <use xlink:href="#DejaVuSans-33"/>
       <use x="63.623047" xlink:href="#DejaVuSans-30"/>
      </g>
     </g>
    </g>
   </g>
   <g id="matplotlib.axis_2">
    <g id="ytick_1">
     <g id="line2d_8">
      <defs>
       <path d="M 0 0 
L -3.5 0 
" id="m455e630c20" style="stroke:#000000;stroke-width:0.8;"/>
      </defs>
      <g>
       <use style="stroke:#000000;stroke-width:0.8;" x="38.482813" xlink:href="#m455e630c20" y="210.940745"/>
      </g>
     </g>
     <g id="text_8">
      <!-- −1.0 -->
      <g transform="translate(7.2 214.739964)scale(0.1 -0.1)">
       <defs>
        <path d="M 678 2272 
L 4684 2272 
L 4684 1741 
L 678 1741 
L 678 2272 
z
" id="DejaVuSans-2212" transform="scale(0.015625)"/>
        <path d="M 684 794 
L 1344 794 
L 1344 0 
L 684 0 
L 684 794 
z
" id="DejaVuSans-2e" transform="scale(0.015625)"/>
       </defs>
       <use xlink:href="#DejaVuSans-2212"/>
       <use x="83.789062" xlink:href="#DejaVuSans-31"/>
       <use x="147.412109" xlink:href="#DejaVuSans-2e"/>
       <use x="179.199219" xlink:href="#DejaVuSans-30"/>
      </g>
     </g>
    </g>
    <g id="ytick_2">
     <g id="line2d_9">
      <g>
       <use style="stroke:#000000;stroke-width:0.8;" x="38.482813" xlink:href="#m455e630c20" y="163.683396"/>
      </g>
     </g>
     <g id="text_9">
      <!-- −0.5 -->
      <g transform="translate(7.2 167.482615)scale(0.1 -0.1)">
       <use xlink:href="#DejaVuSans-2212"/>
       <use x="83.789062" xlink:href="#DejaVuSans-30"/>
       <use x="147.412109" xlink:href="#DejaVuSans-2e"/>
       <use x="179.199219" xlink:href="#DejaVuSans-35"/>
      </g>
     </g>
    </g>
    <g id="ytick_3">
     <g id="line2d_10">
      <g>
       <use style="stroke:#000000;stroke-width:0.8;" x="38.482813" xlink:href="#m455e630c20" y="116.426048"/>
      </g>
     </g>
     <g id="text_10">
      <!-- 0.0 -->
      <g transform="translate(15.579688 120.225266)scale(0.1 -0.1)">
       <use xlink:href="#DejaVuSans-30"/>
       <use x="63.623047" xlink:href="#DejaVuSans-2e"/>
       <use x="95.410156" xlink:href="#DejaVuSans-30"/>
      </g>
     </g>
    </g>
    <g id="ytick_4">
     <g id="line2d_11">
      <g>
       <use style="stroke:#000000;stroke-width:0.8;" x="38.482813" xlink:href="#m455e630c20" y="69.168699"/>
      </g>
     </g>
     <g id="text_11">
      <!-- 0.5 -->
      <g transform="translate(15.579688 72.967917)scale(0.1 -0.1)">
       <use xlink:href="#DejaVuSans-30"/>
       <use x="63.623047" xlink:href="#DejaVuSans-2e"/>
       <use x="95.410156" xlink:href="#DejaVuSans-35"/>
      </g>
     </g>
    </g>
    <g id="ytick_5">
     <g id="line2d_12">
      <g>
       <use style="stroke:#000000;stroke-width:0.8;" x="38.482813" xlink:href="#m455e630c20" y="21.91135"/>
      </g>
     </g>
     <g id="text_12">
      <!-- 1.0 -->
      <g transform="translate(15.579688 25.710568)scale(0.1 -0.1)">
       <use xlink:href="#DejaVuSans-31"/>
       <use x="63.623047" xlink:href="#DejaVuSans-2e"/>
       <use x="95.410156" xlink:href="#DejaVuSans-30"/>
      </g>
     </g>
    </g>
   </g>
   <g id="line2d_13">
    <path clip-path="url(#p811461a3b0)" d="M 53.700994 120.583966 
L 56.747677 89.379873 
L 58.880355 69.7478 
L 60.708365 55.012984 
L 61.317702 50.616743 
L 61.62237 47.220048 
L 61.927039 46.032758 
L 62.231707 43.320339 
L 62.536375 42.475951 
L 63.755048 36.969355 
L 64.059717 37.256354 
L 64.669053 33.007683 
L 64.973722 31.195789 
L 65.27839 30.295863 
L 65.583058 28.839506 
L 65.887727 28.8534 
L 66.192395 26.670385 
L 66.497063 25.40613 
L 66.801731 25.747602 
L 67.1064 26.330684 
L 67.715736 24.654057 
L 68.020405 23.85419 
L 68.325073 24.780114 
L 68.629741 24.142076 
L 69.239078 23.800343 
L 69.543746 24.152463 
L 69.848414 25.64205 
L 70.153083 25.06688 
L 70.457751 26.184463 
L 70.762419 27.794225 
L 71.067088 27.580143 
L 71.676424 29.073826 
L 72.285761 32.81152 
L 73.199766 39.291859 
L 73.504434 40.454463 
L 73.809102 42.499531 
L 74.113771 45.549375 
L 74.418439 45.558916 
L 74.723107 46.977246 
L 75.027776 50.274764 
L 75.332444 50.346714 
L 75.637112 51.350409 
L 75.941781 52.950769 
L 76.246449 55.364228 
L 76.551117 56.512391 
L 77.465122 62.131631 
L 78.074459 66.129964 
L 79.293132 73.532861 
L 79.5978 73.990303 
L 80.207137 80.622259 
L 80.511805 81.825727 
L 82.339815 100.306271 
L 82.949152 103.189009 
L 83.863156 110.430905 
L 85.08183 125.959953 
L 88.128513 152.653866 
L 88.737849 155.529125 
L 89.042518 158.364508 
L 89.347186 159.476552 
L 89.956523 163.53418 
L 90.261191 165.748772 
L 90.565859 166.122368 
L 90.870527 169.720573 
L 91.175196 171.114838 
L 91.479864 173.594034 
L 92.089201 176.676443 
L 92.698537 181.284265 
L 93.003206 182.804854 
L 93.307874 185.861178 
L 93.612542 187.080291 
L 93.917211 188.791407 
L 94.526547 194.120861 
L 94.831215 195.216771 
L 96.354557 203.981145 
L 96.659225 205.609121 
L 96.963894 206.190279 
L 97.268562 207.709839 
L 97.57323 207.624156 
L 97.877898 208.820351 
L 98.182567 209.29027 
L 98.487235 210.578478 
L 98.791903 212.53877 
L 99.096572 212.911475 
L 99.40124 214.234374 
L 99.705908 213.423983 
L 100.010577 213.43834 
L 100.315245 213.240687 
L 100.619913 213.61186 
L 100.924582 212.021482 
L 101.22925 212.664809 
L 101.838586 209.513799 
L 102.447923 207.498829 
L 102.752591 207.350976 
L 103.05726 204.710475 
L 103.361928 203.668261 
L 103.971265 199.51173 
L 104.275933 198.77686 
L 104.88527 194.469404 
L 105.189938 192.249497 
L 105.494606 192.161082 
L 105.799274 191.180451 
L 106.103943 191.185319 
L 106.408611 188.283956 
L 106.713279 187.6006 
L 107.017948 185.363867 
L 107.322616 181.68491 
L 107.931953 177.816015 
L 108.236621 176.705429 
L 109.759962 162.591031 
L 110.064631 158.959001 
L 110.369299 156.923183 
L 110.673967 155.835618 
L 110.978636 153.616405 
L 113.72065 124.52843 
L 114.025319 122.480395 
L 115.243992 110.999962 
L 115.54866 109.019017 
L 116.767333 95.576061 
L 118.900012 79.030042 
L 119.20468 76.941925 
L 119.509348 75.715185 
L 120.423353 69.214419 
L 121.03269 65.094351 
L 121.337358 62.406379 
L 121.946695 55.398495 
L 122.556031 48.767453 
L 122.860699 47.957471 
L 123.165368 46.577964 
L 124.079373 39.748764 
L 124.384041 38.22829 
L 124.993378 36.611229 
L 125.298046 33.845163 
L 125.602714 32.746112 
L 126.212051 28.737499 
L 126.821387 25.47739 
L 127.430724 23.676341 
L 127.735392 21.614992 
L 128.040061 20.765175 
L 128.344729 21.073077 
L 128.649397 21.930576 
L 128.954066 21.365015 
L 129.258734 21.326137 
L 129.563402 20.319122 
L 129.86807 19.935555 
L 130.172739 21.222308 
L 130.477407 21.071788 
L 130.782075 21.726382 
L 131.086744 21.147147 
L 131.391412 22.047952 
L 131.69608 24.237482 
L 132.000749 25.01453 
L 133.52409 34.859581 
L 135.047432 41.824106 
L 135.3521 42.431954 
L 135.961437 46.587378 
L 136.266105 47.756518 
L 136.875441 48.270289 
L 137.484778 53.205493 
L 137.789446 54.92951 
L 138.094115 58.269856 
L 139.00812 63.90711 
L 139.617456 70.502526 
L 140.226793 74.987471 
L 140.531461 75.832649 
L 140.836129 79.279132 
L 141.445466 82.705509 
L 142.054803 88.380899 
L 142.359471 90.148833 
L 142.664139 92.943392 
L 142.968808 94.134821 
L 143.578144 99.46563 
L 143.882812 100.887387 
L 144.187481 101.620074 
L 144.492149 104.118064 
L 145.101486 111.17874 
L 146.015491 118.010039 
L 146.624827 124.991905 
L 146.929496 130.012885 
L 147.234164 133.100017 
L 147.8435 141.509201 
L 148.148169 144.889045 
L 148.757505 153.186907 
L 150.890184 174.383501 
L 151.49952 177.962628 
L 152.413525 186.815062 
L 152.718193 188.318687 
L 153.632198 197.233175 
L 154.546203 203.368742 
L 155.15554 204.749194 
L 155.460208 204.170968 
L 155.764876 204.025701 
L 156.069545 205.136075 
L 156.374213 204.548776 
L 156.678881 205.695927 
L 156.98355 207.762213 
L 157.288218 207.422323 
L 157.592886 208.423676 
L 158.202223 207.328975 
L 158.506891 207.422962 
L 158.811559 207.367954 
L 159.116228 206.053026 
L 159.420896 205.732288 
L 159.725564 207.12118 
L 160.030233 207.029628 
L 160.334901 205.371446 
L 160.944238 204.302011 
L 161.248906 205.259587 
L 161.553574 205.106678 
L 162.162911 207.927769 
L 162.467579 206.329076 
L 162.772247 207.303398 
L 163.076916 206.558568 
L 163.381584 206.273662 
L 163.686252 206.345047 
L 163.990921 205.465653 
L 164.295589 204.084033 
L 164.600257 203.345447 
L 164.904926 201.711575 
L 165.209594 199.345039 
L 165.514262 198.399946 
L 166.123599 195.276173 
L 167.64694 187.010491 
L 167.951609 183.790458 
L 168.256277 181.915384 
L 169.170282 171.259281 
L 170.084287 161.164551 
L 172.826301 140.771449 
L 173.13097 137.357598 
L 173.435638 136.265156 
L 174.044975 129.424974 
L 174.95898 122.265005 
L 175.568316 116.000065 
L 175.872984 114.590868 
L 176.177653 111.367456 
L 176.482321 109.772704 
L 178.614999 89.899681 
L 178.919668 88.221618 
L 179.224336 85.705399 
L 179.833672 79.216533 
L 180.747677 71.161686 
L 182.880355 50.070252 
L 183.185024 45.817073 
L 183.489692 44.462637 
L 183.79436 41.319169 
L 184.099029 40.46309 
L 184.403697 39.091443 
L 185.013034 34.88351 
L 185.317702 34.663857 
L 185.62237 34.002664 
L 185.927039 31.907482 
L 186.231707 31.718414 
L 186.841043 29.681843 
L 187.145712 29.278961 
L 187.45038 29.964885 
L 187.755048 28.83009 
L 188.059717 27.108976 
L 188.669053 25.36035 
L 188.973722 23.425183 
L 189.27839 23.167485 
L 189.583058 23.261737 
L 189.887727 21.377948 
L 190.192395 21.569487 
L 190.497063 21.560067 
L 190.801731 21.241773 
L 191.1064 21.230994 
L 191.411068 19.996278 
L 191.715736 20.536181 
L 192.325073 19.199897 
L 192.629741 19.774548 
L 193.239078 21.289791 
L 193.543746 21.060462 
L 193.848414 21.125928 
L 194.457751 22.920093 
L 194.762419 23.591431 
L 195.371756 26.135097 
L 195.676424 26.691401 
L 195.981093 27.962633 
L 197.199766 36.662451 
L 197.504434 37.744577 
L 198.113771 41.489005 
L 198.418439 44.210556 
L 198.723107 45.80616 
L 199.027776 46.692041 
L 199.637112 52.374168 
L 199.941781 53.827043 
L 202.683795 81.231249 
L 202.988464 82.966513 
L 203.902469 91.536159 
L 204.511805 97.001318 
L 205.121142 103.393031 
L 206.035147 113.314842 
L 206.644483 118.957739 
L 208.472493 139.15611 
L 209.995835 158.596141 
L 210.300503 160.447998 
L 210.605171 164.872078 
L 211.519176 171.995136 
L 211.823844 175.181563 
L 212.128513 177.02841 
L 212.433181 180.177143 
L 213.347186 184.547875 
L 213.651854 187.145894 
L 213.956523 187.326283 
L 214.565859 193.090151 
L 214.870527 195.216574 
L 215.175196 196.039292 
L 215.479864 199.735601 
L 216.393869 204.696457 
L 216.698537 205.464931 
L 217.003206 207.038802 
L 217.307874 207.411453 
L 217.612542 206.877388 
L 217.917211 207.963408 
L 218.221879 207.702474 
L 218.526547 209.382884 
L 218.831215 208.221408 
L 219.135884 208.168176 
L 219.440552 208.440299 
L 220.049889 211.345247 
L 220.354557 211.418452 
L 220.659225 210.706231 
L 220.963894 210.879007 
L 221.57323 210.323939 
L 221.877898 210.517564 
L 222.182567 209.648241 
L 222.487235 210.017048 
L 222.791903 207.785357 
L 223.096572 207.40438 
L 223.40124 206.323573 
L 223.705908 205.795657 
L 224.315245 202.593861 
L 224.924582 197.673041 
L 225.533918 194.144868 
L 227.05726 186.963421 
L 227.361928 184.227511 
L 227.666596 183.667259 
L 227.971265 181.361141 
L 228.275933 181.252142 
L 228.580601 180.710925 
L 229.189938 175.947183 
L 229.494606 175.394019 
L 229.799274 172.75403 
L 230.103943 171.904334 
L 230.713279 169.52746 
L 232.845957 153.421585 
L 233.150626 151.589594 
L 233.759962 146.451609 
L 234.369299 138.681842 
L 235.283304 130.493089 
L 235.587972 127.335917 
L 236.197309 119.933274 
L 237.111314 108.66252 
L 237.415982 104.145774 
L 237.72065 101.4979 
L 238.025319 96.420923 
L 238.329987 93.857588 
L 238.939324 86.38077 
L 239.243992 84.065449 
L 240.157997 72.685751 
L 240.462665 69.879476 
L 241.072002 65.944466 
L 242.900012 52.314362 
L 243.20468 50.030259 
L 243.509348 49.151358 
L 244.118685 43.872914 
L 244.423353 42.844007 
L 244.728021 41.276219 
L 245.03269 38.923378 
L 245.337358 38.23069 
L 245.642026 36.732226 
L 245.946695 36.56391 
L 246.556031 33.681302 
L 246.860699 33.915963 
L 247.165368 33.435955 
L 247.470036 31.620918 
L 247.774704 31.786752 
L 248.079373 31.249719 
L 248.384041 30.191995 
L 248.688709 27.990952 
L 248.993378 26.947988 
L 249.298046 25.271047 
L 249.602714 24.308557 
L 249.907383 23.841575 
L 250.212051 24.469667 
L 250.516719 24.075362 
L 250.821387 23.048651 
L 251.126056 21.502729 
L 251.430724 22.704673 
L 251.735392 22.202347 
L 252.040061 22.343816 
L 252.649397 22.325632 
L 252.954066 24.116023 
L 253.258734 23.040767 
L 253.563402 23.098511 
L 253.86807 22.422041 
L 254.172739 22.697152 
L 254.477407 23.365891 
L 254.782075 22.844389 
L 255.391412 27.358103 
L 256.305417 33.67914 
L 256.610085 34.324308 
L 256.914754 35.922969 
L 257.219422 36.396848 
L 257.52409 37.149647 
L 257.828758 39.398309 
L 258.742763 49.056361 
L 259.047432 49.7619 
L 259.3521 51.077674 
L 260.266105 59.537647 
L 262.094115 81.55055 
L 262.398783 83.206771 
L 263.00812 90.021632 
L 263.617456 95.027399 
L 263.922125 96.069196 
L 264.226793 98.904195 
L 264.531461 100.16901 
L 265.445466 110.095837 
L 265.750134 111.768932 
L 266.359471 117.391489 
L 266.664139 121.13602 
L 266.968808 122.459003 
L 267.578144 126.678046 
L 267.882812 127.954671 
L 269.101486 137.32851 
L 270.015491 146.807836 
L 270.320159 149.782008 
L 270.624827 151.120081 
L 272.452837 164.880903 
L 273.062174 170.994493 
L 273.976179 178.182308 
L 274.280847 179.822494 
L 274.890184 186.396157 
L 276.108857 197.238101 
L 277.022862 201.823733 
L 277.632198 203.713376 
L 277.936867 206.405284 
L 278.241535 207.881128 
L 278.546203 208.555667 
L 278.850871 209.590435 
L 279.15554 209.577463 
L 279.460208 211.123014 
L 279.764876 211.96965 
L 280.069545 213.568008 
L 280.374213 213.96041 
L 280.678881 213.650825 
L 280.98355 214.756364 
L 281.288218 214.570521 
L 281.592886 213.994771 
L 282.202223 211.565653 
L 282.506891 211.251904 
L 282.811559 212.016699 
L 283.116228 211.037781 
L 283.420896 212.381408 
L 283.725564 212.105502 
L 284.030233 210.30458 
L 284.334901 210.251669 
L 284.639569 210.065298 
L 284.944238 207.62846 
L 285.248906 207.21093 
L 285.553574 205.66463 
L 285.858242 205.747814 
L 286.162911 205.233208 
L 286.772247 203.540016 
L 287.076916 201.615631 
L 287.381584 200.790221 
L 288.295589 193.253066 
L 288.600257 192.32578 
L 288.904926 190.761826 
L 289.514262 186.506972 
L 289.81893 185.186093 
L 290.123599 181.123313 
L 290.428267 179.158799 
L 291.037604 172.110242 
L 291.342272 170.450809 
L 292.256277 160.898855 
L 292.560945 157.875833 
L 292.865613 156.166449 
L 295.607628 123.887446 
L 296.826301 111.497819 
L 297.13097 108.101272 
L 297.435638 106.408165 
L 299.263648 91.464203 
L 299.568316 89.98022 
L 300.482321 81.266273 
L 300.786989 80.140326 
L 301.396326 75.027545 
L 302.005663 70.086628 
L 302.919668 60.026248 
L 303.529004 57.0892 
L 303.833672 56.454224 
L 305.052346 48.098792 
L 305.357014 45.004671 
L 305.966351 41.598967 
L 306.271019 41.127879 
L 306.880355 36.894534 
L 307.185024 36.085479 
L 307.489692 33.563692 
L 307.79436 32.511154 
L 308.403697 28.056103 
L 308.708365 27.162155 
L 309.013034 25.201211 
L 309.317702 24.619019 
L 309.927039 22.948485 
L 310.231707 20.530927 
L 310.536375 19.678326 
L 310.841043 20.287122 
L 311.755048 19.119319 
L 312.059717 17.125626 
L 312.669053 18.029574 
L 312.973722 17.083636 
L 313.27839 18.335681 
L 313.583058 18.552439 
L 313.887727 19.368092 
L 314.192395 20.671953 
L 314.497063 19.820675 
L 314.801731 20.798081 
L 315.1064 20.861186 
L 315.411068 21.500556 
L 316.629741 27.701325 
L 316.93441 28.285188 
L 318.153083 33.850944 
L 318.762419 39.80896 
L 320.895098 57.288362 
L 321.504434 64.004449 
L 321.809102 64.803729 
L 322.113771 66.935439 
L 322.723107 72.386739 
L 323.332444 76.086319 
L 323.941781 82.434923 
L 324.246449 84.348368 
L 324.855785 91.205237 
L 327.902469 117.793544 
L 330.339815 145.221429 
L 330.644483 147.264746 
L 330.949152 151.204347 
L 331.25382 153.295173 
L 331.863156 159.287941 
L 332.777161 164.373306 
L 333.691166 174.37988 
L 334.300503 178.275093 
L 334.605171 181.703968 
L 336.128513 191.042573 
L 336.433181 191.903362 
L 336.737849 192.227325 
L 337.042518 192.785645 
L 337.651854 195.696241 
L 337.956523 195.89357 
L 338.261191 196.452557 
L 338.870527 200.253035 
L 339.175196 200.558117 
L 339.479864 200.57361 
L 339.784532 201.15745 
L 340.089201 200.445246 
L 340.393869 200.424013 
L 340.698537 200.694586 
L 341.003206 201.456748 
L 341.612542 204.93714 
L 341.917211 203.558029 
L 342.526547 203.959683 
L 342.831215 204.344929 
L 343.135884 205.388129 
L 343.440552 207.52072 
L 343.74522 208.576834 
L 344.049889 208.801008 
L 344.354557 208.379542 
L 344.659225 207.554272 
L 344.963894 207.962242 
L 345.268562 206.193446 
L 345.877898 206.105423 
L 346.182567 205.818351 
L 346.487235 204.26718 
L 346.791903 203.67144 
L 347.40124 199.525594 
L 348.010577 197.688913 
L 348.315245 196.899881 
L 348.619913 195.461102 
L 348.924582 194.886683 
L 349.838586 191.061489 
L 356.541289 132.053768 
L 357.759962 123.536459 
L 358.064631 121.706571 
L 358.064631 121.706571 
" style="fill:none;stroke:#1f77b4;stroke-linecap:square;stroke-width:1.5;"/>
   </g>
   <g id="patch_3">
    <path d="M 38.482813 224.64 
L 38.482813 7.2 
" style="fill:none;stroke:#000000;stroke-linecap:square;stroke-linejoin:miter;stroke-width:0.8;"/>
   </g>
   <g id="patch_4">
    <path d="M 373.282813 224.64 
L 373.282813 7.2 
" style="fill:none;stroke:#000000;stroke-linecap:square;stroke-linejoin:miter;stroke-width:0.8;"/>
   </g>
   <g id="patch_5">
    <path d="M 38.482813 224.64 
L 373.282813 224.64 
" style="fill:none;stroke:#000000;stroke-linecap:square;stroke-linejoin:miter;stroke-width:0.8;"/>
   </g>
   <g id="patch_6">
    <path d="M 38.482813 7.2 
L 373.282813 7.2 
" style="fill:none;stroke:#000000;stroke-linecap:square;stroke-linejoin:miter;stroke-width:0.8;"/>
   </g>
  </g>
 </g>
 <defs>
  <clipPath id="p811461a3b0">
   <rect height="217.44" width="334.8" x="38.482813" y="7.2"/>
  </clipPath>
 </defs>
</svg>
