<?xml version="1.0" encoding="utf-8" standalone="no"?>
<!DOCTYPE svg PUBLIC "-//W3C//DTD SVG 1.1//EN"
  "http://www.w3.org/Graphics/SVG/1.1/DTD/svg11.dtd">
<svg xmlns:xlink="http://www.w3.org/1999/xlink" width="384.83125pt" height="262.19625pt" viewBox="0 0 384.83125 262.19625" xmlns="http://www.w3.org/2000/svg" version="1.1">
 <metadata>
  <rdf:RDF xmlns:dc="http://purl.org/dc/elements/1.1/" xmlns:cc="http://creativecommons.org/ns#" xmlns:rdf="http://www.w3.org/1999/02/22-rdf-syntax-ns#">
   <cc:Work>
    <dc:type rdf:resource="http://purl.org/dc/dcmitype/StillImage"/>
    <dc:date>2022-09-10T17:14:01.870888</dc:date>
    <dc:format>image/svg+xml</dc:format>
    <dc:creator>
     <cc:Agent>
      <dc:title>Matplotlib v3.5.2, https://matplotlib.org/</dc:title>
     </cc:Agent>
    </dc:creator>
   </cc:Work>
  </rdf:RDF>
 </metadata>
 <defs>
  <style type="text/css">*{stroke-linejoin: round; stroke-linecap: butt}</style>
 </defs>
 <g id="figure_1">
  <g id="patch_1">
   <path d="M 0 262.19625 
L 384.83125 262.19625 
L 384.83125 0 
L 0 0 
L 0 262.19625 
z
" style="fill: none"/>
  </g>
  <g id="axes_1">
   <g id="patch_2">
    <path d="M 33.2875 224.64 
L 368.0875 224.64 
L 368.0875 7.2 
L 33.2875 7.2 
z
" style="fill: #ffffff"/>
   </g>
   <g id="matplotlib.axis_1">
    <g id="xtick_1">
     <g id="line2d_1">
      <defs>
       <path id="ma3a2cb414b" d="M 0 0 
L 0 3.5 
" style="stroke: #000000; stroke-width: 0.8"/>
      </defs>
      <g>
       <use xlink:href="#ma3a2cb414b" x="33.2875" y="224.64" style="stroke: #000000; stroke-width: 0.8"/>
      </g>
     </g>
     <g id="text_1">
      <!-- 0 -->
      <g transform="translate(30.10625 239.238437)scale(0.1 -0.1)">
       <defs>
        <path id="DejaVuSans-30" d="M 2034 4250 
Q 1547 4250 1301 3770 
Q 1056 3291 1056 2328 
Q 1056 1369 1301 889 
Q 1547 409 2034 409 
Q 2525 409 2770 889 
Q 3016 1369 3016 2328 
Q 3016 3291 2770 3770 
Q 2525 4250 2034 4250 
z
M 2034 4750 
Q 2819 4750 3233 4129 
Q 3647 3509 3647 2328 
Q 3647 1150 3233 529 
Q 2819 -91 2034 -91 
Q 1250 -91 836 529 
Q 422 1150 422 2328 
Q 422 3509 836 4129 
Q 1250 4750 2034 4750 
z
" transform="scale(0.015625)"/>
       </defs>
       <use xlink:href="#DejaVuSans-30"/>
      </g>
     </g>
    </g>
    <g id="xtick_2">
     <g id="line2d_2">
      <g>
       <use xlink:href="#ma3a2cb414b" x="100.2475" y="224.64" style="stroke: #000000; stroke-width: 0.8"/>
      </g>
     </g>
     <g id="text_2">
      <!-- 50 -->
      <g transform="translate(93.885 239.238437)scale(0.1 -0.1)">
       <defs>
        <path id="DejaVuSans-35" d="M 691 4666 
L 3169 4666 
L 3169 4134 
L 1269 4134 
L 1269 2991 
Q 1406 3038 1543 3061 
Q 1681 3084 1819 3084 
Q 2600 3084 3056 2656 
Q 3513 2228 3513 1497 
Q 3513 744 3044 326 
Q 2575 -91 1722 -91 
Q 1428 -91 1123 -41 
Q 819 9 494 109 
L 494 744 
Q 775 591 1075 516 
Q 1375 441 1709 441 
Q 2250 441 2565 725 
Q 2881 1009 2881 1497 
Q 2881 1984 2565 2268 
Q 2250 2553 1709 2553 
Q 1456 2553 1204 2497 
Q 953 2441 691 2322 
L 691 4666 
z
" transform="scale(0.015625)"/>
       </defs>
       <use xlink:href="#DejaVuSans-35"/>
       <use xlink:href="#DejaVuSans-30" x="63.623047"/>
      </g>
     </g>
    </g>
    <g id="xtick_3">
     <g id="line2d_3">
      <g>
       <use xlink:href="#ma3a2cb414b" x="167.2075" y="224.64" style="stroke: #000000; stroke-width: 0.8"/>
      </g>
     </g>
     <g id="text_3">
      <!-- 100 -->
      <g transform="translate(157.66375 239.238437)scale(0.1 -0.1)">
       <defs>
        <path id="DejaVuSans-31" d="M 794 531 
L 1825 531 
L 1825 4091 
L 703 3866 
L 703 4441 
L 1819 4666 
L 2450 4666 
L 2450 531 
L 3481 531 
L 3481 0 
L 794 0 
L 794 531 
z
" transform="scale(0.015625)"/>
       </defs>
       <use xlink:href="#DejaVuSans-31"/>
       <use xlink:href="#DejaVuSans-30" x="63.623047"/>
       <use xlink:href="#DejaVuSans-30" x="127.246094"/>
      </g>
     </g>
    </g>
    <g id="xtick_4">
     <g id="line2d_4">
      <g>
       <use xlink:href="#ma3a2cb414b" x="234.1675" y="224.64" style="stroke: #000000; stroke-width: 0.8"/>
      </g>
     </g>
     <g id="text_4">
      <!-- 150 -->
      <g transform="translate(224.62375 239.238437)scale(0.1 -0.1)">
       <use xlink:href="#DejaVuSans-31"/>
       <use xlink:href="#DejaVuSans-35" x="63.623047"/>
       <use xlink:href="#DejaVuSans-30" x="127.246094"/>
      </g>
     </g>
    </g>
    <g id="xtick_5">
     <g id="line2d_5">
      <g>
       <use xlink:href="#ma3a2cb414b" x="301.1275" y="224.64" style="stroke: #000000; stroke-width: 0.8"/>
      </g>
     </g>
     <g id="text_5">
      <!-- 200 -->
      <g transform="translate(291.58375 239.238437)scale(0.1 -0.1)">
       <defs>
        <path id="DejaVuSans-32" d="M 1228 531 
L 3431 531 
L 3431 0 
L 469 0 
L 469 531 
Q 828 903 1448 1529 
Q 2069 2156 2228 2338 
Q 2531 2678 2651 2914 
Q 2772 3150 2772 3378 
Q 2772 3750 2511 3984 
Q 2250 4219 1831 4219 
Q 1534 4219 1204 4116 
Q 875 4013 500 3803 
L 500 4441 
Q 881 4594 1212 4672 
Q 1544 4750 1819 4750 
Q 2544 4750 2975 4387 
Q 3406 4025 3406 3419 
Q 3406 3131 3298 2873 
Q 3191 2616 2906 2266 
Q 2828 2175 2409 1742 
Q 1991 1309 1228 531 
z
" transform="scale(0.015625)"/>
       </defs>
       <use xlink:href="#DejaVuSans-32"/>
       <use xlink:href="#DejaVuSans-30" x="63.623047"/>
       <use xlink:href="#DejaVuSans-30" x="127.246094"/>
      </g>
     </g>
    </g>
    <g id="xtick_6">
     <g id="line2d_6">
      <g>
       <use xlink:href="#ma3a2cb414b" x="368.0875" y="224.64" style="stroke: #000000; stroke-width: 0.8"/>
      </g>
     </g>
     <g id="text_6">
      <!-- 250 -->
      <g transform="translate(358.54375 239.238437)scale(0.1 -0.1)">
       <use xlink:href="#DejaVuSans-32"/>
       <use xlink:href="#DejaVuSans-35" x="63.623047"/>
       <use xlink:href="#DejaVuSans-30" x="127.246094"/>
      </g>
     </g>
    </g>
    <g id="text_7">
     <!-- Frequency, Hz -->
     <g transform="translate(165.295312 252.916562)scale(0.1 -0.1)">
      <defs>
       <path id="DejaVuSans-46" d="M 628 4666 
L 3309 4666 
L 3309 4134 
L 1259 4134 
L 1259 2759 
L 3109 2759 
L 3109 2228 
L 1259 2228 
L 1259 0 
L 628 0 
L 628 4666 
z
" transform="scale(0.015625)"/>
       <path id="DejaVuSans-72" d="M 2631 2963 
Q 2534 3019 2420 3045 
Q 2306 3072 2169 3072 
Q 1681 3072 1420 2755 
Q 1159 2438 1159 1844 
L 1159 0 
L 581 0 
L 581 3500 
L 1159 3500 
L 1159 2956 
Q 1341 3275 1631 3429 
Q 1922 3584 2338 3584 
Q 2397 3584 2469 3576 
Q 2541 3569 2628 3553 
L 2631 2963 
z
" transform="scale(0.015625)"/>
       <path id="DejaVuSans-65" d="M 3597 1894 
L 3597 1613 
L 953 1613 
Q 991 1019 1311 708 
Q 1631 397 2203 397 
Q 2534 397 2845 478 
Q 3156 559 3463 722 
L 3463 178 
Q 3153 47 2828 -22 
Q 2503 -91 2169 -91 
Q 1331 -91 842 396 
Q 353 884 353 1716 
Q 353 2575 817 3079 
Q 1281 3584 2069 3584 
Q 2775 3584 3186 3129 
Q 3597 2675 3597 1894 
z
M 3022 2063 
Q 3016 2534 2758 2815 
Q 2500 3097 2075 3097 
Q 1594 3097 1305 2825 
Q 1016 2553 972 2059 
L 3022 2063 
z
" transform="scale(0.015625)"/>
       <path id="DejaVuSans-71" d="M 947 1747 
Q 947 1113 1208 752 
Q 1469 391 1925 391 
Q 2381 391 2643 752 
Q 2906 1113 2906 1747 
Q 2906 2381 2643 2742 
Q 2381 3103 1925 3103 
Q 1469 3103 1208 2742 
Q 947 2381 947 1747 
z
M 2906 525 
Q 2725 213 2448 61 
Q 2172 -91 1784 -91 
Q 1150 -91 751 415 
Q 353 922 353 1747 
Q 353 2572 751 3078 
Q 1150 3584 1784 3584 
Q 2172 3584 2448 3432 
Q 2725 3281 2906 2969 
L 2906 3500 
L 3481 3500 
L 3481 -1331 
L 2906 -1331 
L 2906 525 
z
" transform="scale(0.015625)"/>
       <path id="DejaVuSans-75" d="M 544 1381 
L 544 3500 
L 1119 3500 
L 1119 1403 
Q 1119 906 1312 657 
Q 1506 409 1894 409 
Q 2359 409 2629 706 
Q 2900 1003 2900 1516 
L 2900 3500 
L 3475 3500 
L 3475 0 
L 2900 0 
L 2900 538 
Q 2691 219 2414 64 
Q 2138 -91 1772 -91 
Q 1169 -91 856 284 
Q 544 659 544 1381 
z
M 1991 3584 
L 1991 3584 
z
" transform="scale(0.015625)"/>
       <path id="DejaVuSans-6e" d="M 3513 2113 
L 3513 0 
L 2938 0 
L 2938 2094 
Q 2938 2591 2744 2837 
Q 2550 3084 2163 3084 
Q 1697 3084 1428 2787 
Q 1159 2491 1159 1978 
L 1159 0 
L 581 0 
L 581 3500 
L 1159 3500 
L 1159 2956 
Q 1366 3272 1645 3428 
Q 1925 3584 2291 3584 
Q 2894 3584 3203 3211 
Q 3513 2838 3513 2113 
z
" transform="scale(0.015625)"/>
       <path id="DejaVuSans-63" d="M 3122 3366 
L 3122 2828 
Q 2878 2963 2633 3030 
Q 2388 3097 2138 3097 
Q 1578 3097 1268 2742 
Q 959 2388 959 1747 
Q 959 1106 1268 751 
Q 1578 397 2138 397 
Q 2388 397 2633 464 
Q 2878 531 3122 666 
L 3122 134 
Q 2881 22 2623 -34 
Q 2366 -91 2075 -91 
Q 1284 -91 818 406 
Q 353 903 353 1747 
Q 353 2603 823 3093 
Q 1294 3584 2113 3584 
Q 2378 3584 2631 3529 
Q 2884 3475 3122 3366 
z
" transform="scale(0.015625)"/>
       <path id="DejaVuSans-79" d="M 2059 -325 
Q 1816 -950 1584 -1140 
Q 1353 -1331 966 -1331 
L 506 -1331 
L 506 -850 
L 844 -850 
Q 1081 -850 1212 -737 
Q 1344 -625 1503 -206 
L 1606 56 
L 191 3500 
L 800 3500 
L 1894 763 
L 2988 3500 
L 3597 3500 
L 2059 -325 
z
" transform="scale(0.015625)"/>
       <path id="DejaVuSans-2c" d="M 750 794 
L 1409 794 
L 1409 256 
L 897 -744 
L 494 -744 
L 750 256 
L 750 794 
z
" transform="scale(0.015625)"/>
       <path id="DejaVuSans-20" transform="scale(0.015625)"/>
       <path id="DejaVuSans-48" d="M 628 4666 
L 1259 4666 
L 1259 2753 
L 3553 2753 
L 3553 4666 
L 4184 4666 
L 4184 0 
L 3553 0 
L 3553 2222 
L 1259 2222 
L 1259 0 
L 628 0 
L 628 4666 
z
" transform="scale(0.015625)"/>
       <path id="DejaVuSans-7a" d="M 353 3500 
L 3084 3500 
L 3084 2975 
L 922 459 
L 3084 459 
L 3084 0 
L 275 0 
L 275 525 
L 2438 3041 
L 353 3041 
L 353 3500 
z
" transform="scale(0.015625)"/>
      </defs>
      <use xlink:href="#DejaVuSans-46"/>
      <use xlink:href="#DejaVuSans-72" x="50.269531"/>
      <use xlink:href="#DejaVuSans-65" x="89.132812"/>
      <use xlink:href="#DejaVuSans-71" x="150.65625"/>
      <use xlink:href="#DejaVuSans-75" x="214.132812"/>
      <use xlink:href="#DejaVuSans-65" x="277.511719"/>
      <use xlink:href="#DejaVuSans-6e" x="339.035156"/>
      <use xlink:href="#DejaVuSans-63" x="402.414062"/>
      <use xlink:href="#DejaVuSans-79" x="457.394531"/>
      <use xlink:href="#DejaVuSans-2c" x="516.574219"/>
      <use xlink:href="#DejaVuSans-20" x="548.361328"/>
      <use xlink:href="#DejaVuSans-48" x="580.148438"/>
      <use xlink:href="#DejaVuSans-7a" x="655.34375"/>
     </g>
    </g>
   </g>
   <g id="matplotlib.axis_2">
    <g id="ytick_1">
     <g id="line2d_7">
      <defs>
       <path id="m6bdca9db71" d="M 0 0 
L -3.5 0 
" style="stroke: #000000; stroke-width: 0.8"/>
      </defs>
      <g>
       <use xlink:href="#m6bdca9db71" x="33.2875" y="205.680533" style="stroke: #000000; stroke-width: 0.8"/>
      </g>
     </g>
     <g id="text_8">
      <!-- 0 -->
      <g transform="translate(19.925 209.479752)scale(0.1 -0.1)">
       <use xlink:href="#DejaVuSans-30"/>
      </g>
     </g>
    </g>
    <g id="ytick_2">
     <g id="line2d_8">
      <g>
       <use xlink:href="#m6bdca9db71" x="33.2875" y="168.102473" style="stroke: #000000; stroke-width: 0.8"/>
      </g>
     </g>
     <g id="text_9">
      <!-- 50 -->
      <g transform="translate(13.5625 171.901692)scale(0.1 -0.1)">
       <use xlink:href="#DejaVuSans-35"/>
       <use xlink:href="#DejaVuSans-30" x="63.623047"/>
      </g>
     </g>
    </g>
    <g id="ytick_3">
     <g id="line2d_9">
      <g>
       <use xlink:href="#m6bdca9db71" x="33.2875" y="130.524413" style="stroke: #000000; stroke-width: 0.8"/>
      </g>
     </g>
     <g id="text_10">
      <!-- 100 -->
      <g transform="translate(7.2 134.323631)scale(0.1 -0.1)">
       <use xlink:href="#DejaVuSans-31"/>
       <use xlink:href="#DejaVuSans-30" x="63.623047"/>
       <use xlink:href="#DejaVuSans-30" x="127.246094"/>
      </g>
     </g>
    </g>
    <g id="ytick_4">
     <g id="line2d_10">
      <g>
       <use xlink:href="#m6bdca9db71" x="33.2875" y="92.946352" style="stroke: #000000; stroke-width: 0.8"/>
      </g>
     </g>
     <g id="text_11">
      <!-- 150 -->
      <g transform="translate(7.2 96.745571)scale(0.1 -0.1)">
       <use xlink:href="#DejaVuSans-31"/>
       <use xlink:href="#DejaVuSans-35" x="63.623047"/>
       <use xlink:href="#DejaVuSans-30" x="127.246094"/>
      </g>
     </g>
    </g>
    <g id="ytick_5">
     <g id="line2d_11">
      <g>
       <use xlink:href="#m6bdca9db71" x="33.2875" y="55.368292" style="stroke: #000000; stroke-width: 0.8"/>
      </g>
     </g>
     <g id="text_12">
      <!-- 200 -->
      <g transform="translate(7.2 59.167511)scale(0.1 -0.1)">
       <use xlink:href="#DejaVuSans-32"/>
       <use xlink:href="#DejaVuSans-30" x="63.623047"/>
       <use xlink:href="#DejaVuSans-30" x="127.246094"/>
      </g>
     </g>
    </g>
    <g id="ytick_6">
     <g id="line2d_12">
      <g>
       <use xlink:href="#m6bdca9db71" x="33.2875" y="17.790232" style="stroke: #000000; stroke-width: 0.8"/>
      </g>
     </g>
     <g id="text_13">
      <!-- 250 -->
      <g transform="translate(7.2 21.589451)scale(0.1 -0.1)">
       <use xlink:href="#DejaVuSans-32"/>
       <use xlink:href="#DejaVuSans-35" x="63.623047"/>
       <use xlink:href="#DejaVuSans-30" x="127.246094"/>
      </g>
     </g>
    </g>
   </g>
   <g id="line2d_13">
    <path d="M 33.2875 17.083636 
L 34.6267 205.370156 
L 35.9659 205.454464 
L 37.3051 206.704845 
L 38.6443 211.726386 
L 39.9835 203.752936 
L 41.3227 205.360852 
L 42.6619 204.847197 
L 44.0011 202.87407 
L 45.3403 207.138859 
L 46.6795 200.404947 
L 48.0187 205.504095 
L 49.3579 208.486478 
L 50.6971 205.989915 
L 52.0363 204.480021 
L 53.3755 206.369044 
L 54.7147 206.902993 
L 56.0539 205.688619 
L 57.3931 203.600614 
L 58.7323 210.585088 
L 60.0715 203.70674 
L 61.4107 204.81296 
L 62.7499 202.220852 
L 64.0891 202.489991 
L 65.4283 202.377154 
L 66.7675 203.128671 
L 68.1067 206.508695 
L 69.4459 209.518903 
L 70.7851 204.019681 
L 72.1243 204.718733 
L 73.4635 205.241563 
L 74.8027 204.20087 
L 76.1419 205.918821 
L 77.4811 204.310766 
L 78.8203 206.050752 
L 80.1595 203.92095 
L 81.4987 203.33706 
L 82.8379 208.143612 
L 84.1771 204.555642 
L 85.5163 204.281517 
L 86.8555 200.704847 
L 88.1947 203.879742 
L 89.5339 202.089663 
L 92.2123 207.07269 
L 93.5515 200.638358 
L 94.8907 206.346211 
L 96.2299 206.276723 
L 97.5691 205.089415 
L 98.9083 208.377841 
L 100.2475 203.805206 
L 101.5867 206.427258 
L 102.9259 201.434258 
L 104.2651 200.344085 
L 105.6043 201.907893 
L 106.9435 201.479092 
L 108.2827 203.681958 
L 109.6219 208.062848 
L 110.9611 207.303446 
L 112.3003 201.973084 
L 113.6395 200.595291 
L 114.9787 203.484905 
L 116.3179 136.68923 
L 117.6571 211.770743 
L 118.9963 206.358054 
L 120.3355 206.823311 
L 121.6747 208.898774 
L 123.0139 210.059879 
L 124.3531 205.512117 
L 125.6923 206.79489 
L 127.0315 207.741714 
L 128.3707 202.333499 
L 129.7099 206.702808 
L 131.0491 205.57648 
L 132.3883 202.348211 
L 133.7275 206.139623 
L 135.0667 207.787243 
L 136.4059 207.447605 
L 137.7451 210.114509 
L 139.0843 206.161502 
L 140.4235 205.128044 
L 141.7627 208.216087 
L 143.1019 208.287697 
L 144.4411 203.347856 
L 145.7803 202.585794 
L 147.1195 212.093391 
L 148.4587 207.390524 
L 149.7979 203.896117 
L 151.1371 204.321507 
L 152.4763 201.82435 
L 153.8155 205.510799 
L 155.1547 206.398697 
L 156.4939 203.596973 
L 157.8331 205.400088 
L 159.1723 206.805074 
L 160.5115 202.581407 
L 161.8507 208.228199 
L 163.1899 207.676203 
L 164.5291 203.69809 
L 165.8683 202.30308 
L 167.2075 211.702916 
L 168.5467 206.388886 
L 169.8859 207.661815 
L 171.2251 206.802553 
L 172.5643 204.148362 
L 173.9035 205.952352 
L 175.2427 206.014072 
L 176.5819 205.771397 
L 177.9211 207.929002 
L 179.2603 207.709388 
L 180.5995 207.093769 
L 181.9387 208.137184 
L 183.2779 203.341687 
L 184.6171 207.198453 
L 185.9563 206.182003 
L 187.2955 205.589805 
L 188.6347 206.584669 
L 189.9739 202.916648 
L 191.3131 205.345592 
L 192.6523 205.593256 
L 193.9915 208.748466 
L 195.3307 207.957096 
L 196.6699 204.81386 
L 198.0091 205.393087 
L 199.3483 201.924394 
L 202.0267 209.624543 
L 203.3659 202.440869 
L 204.7051 208.163183 
L 206.0443 204.228301 
L 207.3835 201.389883 
L 208.7227 207.610495 
L 210.0619 207.430636 
L 211.4011 203.365105 
L 212.7403 208.458052 
L 214.0795 203.379775 
L 215.4187 204.493043 
L 216.7579 209.871891 
L 218.0971 205.305357 
L 219.4363 205.510696 
L 220.7755 200.732804 
L 222.1147 207.286591 
L 223.4539 205.442862 
L 224.7931 207.752155 
L 226.1323 205.468189 
L 227.4715 207.9183 
L 228.8107 209.557229 
L 230.1499 204.09597 
L 231.4891 201.564902 
L 232.8283 206.756217 
L 234.1675 204.280159 
L 235.5067 206.017004 
L 236.8459 199.197313 
L 238.1851 206.419153 
L 239.5243 208.245011 
L 240.8635 202.918558 
L 242.2027 204.922288 
L 243.5419 206.177088 
L 244.8811 206.005193 
L 246.2203 207.467207 
L 247.5595 206.013639 
L 248.8987 205.276943 
L 250.2379 203.995045 
L 251.5771 208.712078 
L 252.9163 206.292091 
L 254.2555 207.97044 
L 255.5947 201.185096 
L 256.9339 202.725955 
L 258.2731 202.781948 
L 259.6123 206.455282 
L 260.9515 206.130409 
L 262.2907 209.828486 
L 263.6299 206.904499 
L 264.9691 205.235019 
L 266.3083 202.817876 
L 267.6475 204.100623 
L 268.9867 208.395521 
L 270.3259 207.471857 
L 271.6651 205.14137 
L 273.0043 204.29252 
L 274.3435 207.296205 
L 275.6827 211.097484 
L 277.0219 206.401529 
L 278.3611 204.278553 
L 279.7003 204.663801 
L 281.0395 208.597995 
L 282.3787 207.172611 
L 283.7179 206.577017 
L 285.0571 209.488525 
L 286.3963 207.441296 
L 287.7355 206.10908 
L 289.0747 205.862007 
L 290.4139 204.996995 
L 291.7531 208.521384 
L 293.0923 203.066621 
L 294.4315 206.659334 
L 297.1099 204.841264 
L 298.4491 205.917964 
L 299.7883 200.718959 
L 301.1275 206.65646 
L 302.4667 205.526871 
L 303.8059 210.103189 
L 305.1451 205.284317 
L 306.4843 207.4786 
L 307.8235 202.500526 
L 309.1627 207.131244 
L 310.5019 206.639528 
L 311.8411 206.295023 
L 313.1803 202.367091 
L 314.5195 205.167838 
L 315.8587 205.146066 
L 317.1979 204.315579 
L 318.5371 210.05564 
L 319.8763 211.058618 
L 321.2155 205.373013 
L 322.5547 204.766148 
L 323.8939 206.925657 
L 325.2331 200.947522 
L 326.5723 204.121324 
L 327.9115 205.673532 
L 329.2507 207.702783 
L 330.5899 208.300722 
L 331.9291 205.996893 
L 333.2683 206.386876 
L 334.6075 202.303682 
L 335.9467 200.086834 
L 337.2859 203.640374 
L 338.6251 205.376122 
L 339.9643 203.330022 
L 341.3035 203.90327 
L 342.6427 207.047356 
L 343.9819 202.568082 
L 345.3211 209.673434 
L 346.6603 203.641576 
L 347.9995 203.597959 
L 349.3387 206.622175 
L 350.6779 203.479817 
L 352.0171 205.730423 
L 353.3563 201.388844 
L 354.6955 207.048644 
L 356.0347 206.401059 
L 357.3739 203.161443 
L 358.7131 208.357314 
L 360.0523 206.600982 
L 361.3915 199.424802 
L 362.7307 204.957165 
L 364.0699 207.913641 
L 365.4091 202.878592 
L 366.7483 205.199226 
L 368.0875 205.626549 
L 369.4267 206.892824 
L 370.7659 205.862544 
L 372.1051 205.145088 
L 373.4443 203.040719 
L 374.7835 205.704662 
L 376.1227 207.948325 
L 377.4619 204.815502 
L 378.8011 202.973672 
L 380.1403 204.562165 
L 381.4795 206.728733 
L 382.8187 207.889866 
L 384.1579 200.677451 
L 385.4971 204.481374 
L 385.83125 205.801436 
L 385.83125 205.801436 
" clip-path="url(#pef402c7084)" style="fill: none; stroke: #1f77b4; stroke-width: 1.5; stroke-linecap: square"/>
   </g>
   <g id="patch_3">
    <path d="M 33.2875 224.64 
L 33.2875 7.2 
" style="fill: none; stroke: #000000; stroke-width: 0.8; stroke-linejoin: miter; stroke-linecap: square"/>
   </g>
   <g id="patch_4">
    <path d="M 368.0875 224.64 
L 368.0875 7.2 
" style="fill: none; stroke: #000000; stroke-width: 0.8; stroke-linejoin: miter; stroke-linecap: square"/>
   </g>
   <g id="patch_5">
    <path d="M 33.2875 224.64 
L 368.0875 224.64 
" style="fill: none; stroke: #000000; stroke-width: 0.8; stroke-linejoin: miter; stroke-linecap: square"/>
   </g>
   <g id="patch_6">
    <path d="M 33.2875 7.2 
L 368.0875 7.2 
" style="fill: none; stroke: #000000; stroke-width: 0.8; stroke-linejoin: miter; stroke-linecap: square"/>
   </g>
  </g>
 </g>
 <defs>
  <clipPath id="pef402c7084">
   <rect x="33.2875" y="7.2" width="334.8" height="217.44"/>
  </clipPath>
 </defs>
</svg>
