<?xml version="1.0" encoding="utf-8" standalone="no"?>
<!DOCTYPE svg PUBLIC "-//W3C//DTD SVG 1.1//EN"
  "http://www.w3.org/Graphics/SVG/1.1/DTD/svg11.dtd">
<svg xmlns:xlink="http://www.w3.org/1999/xlink" width="729.277116pt" height="386.55625pt" viewBox="0 0 729.277116 386.55625" xmlns="http://www.w3.org/2000/svg" version="1.1">
 <metadata>
  <rdf:RDF xmlns:dc="http://purl.org/dc/elements/1.1/" xmlns:cc="http://creativecommons.org/ns#" xmlns:rdf="http://www.w3.org/1999/02/22-rdf-syntax-ns#">
   <cc:Work>
    <dc:type rdf:resource="http://purl.org/dc/dcmitype/StillImage"/>
    <dc:date>2022-07-20T10:49:05.672971</dc:date>
    <dc:format>image/svg+xml</dc:format>
    <dc:creator>
     <cc:Agent>
      <dc:title>Matplotlib v3.5.2, https://matplotlib.org/</dc:title>
     </cc:Agent>
    </dc:creator>
   </cc:Work>
  </rdf:RDF>
 </metadata>
 <defs>
  <style type="text/css">*{stroke-linejoin: round; stroke-linecap: butt}</style>
 </defs>
 <g id="figure_1">
  <g id="patch_1">
   <path d="M 0 386.55625 
L 729.277116 386.55625 
L 729.277116 0 
L 0 0 
L 0 386.55625 
z
" style="fill: none"/>
  </g>
  <g id="axes_1">
   <g id="patch_2">
    <path d="M 44.845313 348.478125 
L 349.208949 348.478125 
L 349.208949 22.318125 
L 44.845313 22.318125 
z
" style="fill: #ffffff"/>
   </g>
   <g id="matplotlib.axis_1">
    <g id="xtick_1">
     <g id="line2d_1">
      <defs>
       <path id="m0ad8534da0" d="M 0 0 
L 0 3.5 
" style="stroke: #000000; stroke-width: 0.8"/>
      </defs>
      <g>
       <use xlink:href="#m0ad8534da0" x="347.297002" y="348.478125" style="stroke: #000000; stroke-width: 0.8"/>
      </g>
     </g>
     <g id="text_1">
      <!-- 500 -->
      <g transform="translate(337.753252 363.076562)scale(0.1 -0.1)">
       <defs>
        <path id="DejaVuSans-35" d="M 691 4666 
L 3169 4666 
L 3169 4134 
L 1269 4134 
L 1269 2991 
Q 1406 3038 1543 3061 
Q 1681 3084 1819 3084 
Q 2600 3084 3056 2656 
Q 3513 2228 3513 1497 
Q 3513 744 3044 326 
Q 2575 -91 1722 -91 
Q 1428 -91 1123 -41 
Q 819 9 494 109 
L 494 744 
Q 775 591 1075 516 
Q 1375 441 1709 441 
Q 2250 441 2565 725 
Q 2881 1009 2881 1497 
Q 2881 1984 2565 2268 
Q 2250 2553 1709 2553 
Q 1456 2553 1204 2497 
Q 953 2441 691 2322 
L 691 4666 
z
" transform="scale(0.015625)"/>
        <path id="DejaVuSans-30" d="M 2034 4250 
Q 1547 4250 1301 3770 
Q 1056 3291 1056 2328 
Q 1056 1369 1301 889 
Q 1547 409 2034 409 
Q 2525 409 2770 889 
Q 3016 1369 3016 2328 
Q 3016 3291 2770 3770 
Q 2525 4250 2034 4250 
z
M 2034 4750 
Q 2819 4750 3233 4129 
Q 3647 3509 3647 2328 
Q 3647 1150 3233 529 
Q 2819 -91 2034 -91 
Q 1250 -91 836 529 
Q 422 1150 422 2328 
Q 422 3509 836 4129 
Q 1250 4750 2034 4750 
z
" transform="scale(0.015625)"/>
       </defs>
       <use xlink:href="#DejaVuSans-35"/>
       <use xlink:href="#DejaVuSans-30" x="63.623047"/>
       <use xlink:href="#DejaVuSans-30" x="127.246094"/>
      </g>
     </g>
    </g>
    <g id="xtick_2">
     <g id="line2d_2">
      <g>
       <use xlink:href="#m0ad8534da0" x="306.067442" y="348.478125" style="stroke: #000000; stroke-width: 0.8"/>
      </g>
     </g>
     <g id="text_2">
      <!-- 1000 -->
      <g transform="translate(293.342442 363.076562)scale(0.1 -0.1)">
       <defs>
        <path id="DejaVuSans-31" d="M 794 531 
L 1825 531 
L 1825 4091 
L 703 3866 
L 703 4441 
L 1819 4666 
L 2450 4666 
L 2450 531 
L 3481 531 
L 3481 0 
L 794 0 
L 794 531 
z
" transform="scale(0.015625)"/>
       </defs>
       <use xlink:href="#DejaVuSans-31"/>
       <use xlink:href="#DejaVuSans-30" x="63.623047"/>
       <use xlink:href="#DejaVuSans-30" x="127.246094"/>
       <use xlink:href="#DejaVuSans-30" x="190.869141"/>
      </g>
     </g>
    </g>
    <g id="xtick_3">
     <g id="line2d_3">
      <g>
       <use xlink:href="#m0ad8534da0" x="264.837883" y="348.478125" style="stroke: #000000; stroke-width: 0.8"/>
      </g>
     </g>
     <g id="text_3">
      <!-- 1500 -->
      <g transform="translate(252.112883 363.076562)scale(0.1 -0.1)">
       <use xlink:href="#DejaVuSans-31"/>
       <use xlink:href="#DejaVuSans-35" x="63.623047"/>
       <use xlink:href="#DejaVuSans-30" x="127.246094"/>
       <use xlink:href="#DejaVuSans-30" x="190.869141"/>
      </g>
     </g>
    </g>
    <g id="xtick_4">
     <g id="line2d_4">
      <g>
       <use xlink:href="#m0ad8534da0" x="223.608323" y="348.478125" style="stroke: #000000; stroke-width: 0.8"/>
      </g>
     </g>
     <g id="text_4">
      <!-- 2000 -->
      <g transform="translate(210.883323 363.076562)scale(0.1 -0.1)">
       <defs>
        <path id="DejaVuSans-32" d="M 1228 531 
L 3431 531 
L 3431 0 
L 469 0 
L 469 531 
Q 828 903 1448 1529 
Q 2069 2156 2228 2338 
Q 2531 2678 2651 2914 
Q 2772 3150 2772 3378 
Q 2772 3750 2511 3984 
Q 2250 4219 1831 4219 
Q 1534 4219 1204 4116 
Q 875 4013 500 3803 
L 500 4441 
Q 881 4594 1212 4672 
Q 1544 4750 1819 4750 
Q 2544 4750 2975 4387 
Q 3406 4025 3406 3419 
Q 3406 3131 3298 2873 
Q 3191 2616 2906 2266 
Q 2828 2175 2409 1742 
Q 1991 1309 1228 531 
z
" transform="scale(0.015625)"/>
       </defs>
       <use xlink:href="#DejaVuSans-32"/>
       <use xlink:href="#DejaVuSans-30" x="63.623047"/>
       <use xlink:href="#DejaVuSans-30" x="127.246094"/>
       <use xlink:href="#DejaVuSans-30" x="190.869141"/>
      </g>
     </g>
    </g>
    <g id="xtick_5">
     <g id="line2d_5">
      <g>
       <use xlink:href="#m0ad8534da0" x="182.378763" y="348.478125" style="stroke: #000000; stroke-width: 0.8"/>
      </g>
     </g>
     <g id="text_5">
      <!-- 2500 -->
      <g transform="translate(169.653763 363.076562)scale(0.1 -0.1)">
       <use xlink:href="#DejaVuSans-32"/>
       <use xlink:href="#DejaVuSans-35" x="63.623047"/>
       <use xlink:href="#DejaVuSans-30" x="127.246094"/>
       <use xlink:href="#DejaVuSans-30" x="190.869141"/>
      </g>
     </g>
    </g>
    <g id="xtick_6">
     <g id="line2d_6">
      <g>
       <use xlink:href="#m0ad8534da0" x="141.149203" y="348.478125" style="stroke: #000000; stroke-width: 0.8"/>
      </g>
     </g>
     <g id="text_6">
      <!-- 3000 -->
      <g transform="translate(128.424203 363.076562)scale(0.1 -0.1)">
       <defs>
        <path id="DejaVuSans-33" d="M 2597 2516 
Q 3050 2419 3304 2112 
Q 3559 1806 3559 1356 
Q 3559 666 3084 287 
Q 2609 -91 1734 -91 
Q 1441 -91 1130 -33 
Q 819 25 488 141 
L 488 750 
Q 750 597 1062 519 
Q 1375 441 1716 441 
Q 2309 441 2620 675 
Q 2931 909 2931 1356 
Q 2931 1769 2642 2001 
Q 2353 2234 1838 2234 
L 1294 2234 
L 1294 2753 
L 1863 2753 
Q 2328 2753 2575 2939 
Q 2822 3125 2822 3475 
Q 2822 3834 2567 4026 
Q 2313 4219 1838 4219 
Q 1578 4219 1281 4162 
Q 984 4106 628 3988 
L 628 4550 
Q 988 4650 1302 4700 
Q 1616 4750 1894 4750 
Q 2613 4750 3031 4423 
Q 3450 4097 3450 3541 
Q 3450 3153 3228 2886 
Q 3006 2619 2597 2516 
z
" transform="scale(0.015625)"/>
       </defs>
       <use xlink:href="#DejaVuSans-33"/>
       <use xlink:href="#DejaVuSans-30" x="63.623047"/>
       <use xlink:href="#DejaVuSans-30" x="127.246094"/>
       <use xlink:href="#DejaVuSans-30" x="190.869141"/>
      </g>
     </g>
    </g>
    <g id="xtick_7">
     <g id="line2d_7">
      <g>
       <use xlink:href="#m0ad8534da0" x="99.919643" y="348.478125" style="stroke: #000000; stroke-width: 0.8"/>
      </g>
     </g>
     <g id="text_7">
      <!-- 3500 -->
      <g transform="translate(87.194643 363.076562)scale(0.1 -0.1)">
       <use xlink:href="#DejaVuSans-33"/>
       <use xlink:href="#DejaVuSans-35" x="63.623047"/>
       <use xlink:href="#DejaVuSans-30" x="127.246094"/>
       <use xlink:href="#DejaVuSans-30" x="190.869141"/>
      </g>
     </g>
    </g>
    <g id="xtick_8">
     <g id="line2d_8">
      <g>
       <use xlink:href="#m0ad8534da0" x="58.690083" y="348.478125" style="stroke: #000000; stroke-width: 0.8"/>
      </g>
     </g>
     <g id="text_8">
      <!-- 4000 -->
      <g transform="translate(45.965083 363.076562)scale(0.1 -0.1)">
       <defs>
        <path id="DejaVuSans-34" d="M 2419 4116 
L 825 1625 
L 2419 1625 
L 2419 4116 
z
M 2253 4666 
L 3047 4666 
L 3047 1625 
L 3713 1625 
L 3713 1100 
L 3047 1100 
L 3047 0 
L 2419 0 
L 2419 1100 
L 313 1100 
L 313 1709 
L 2253 4666 
z
" transform="scale(0.015625)"/>
       </defs>
       <use xlink:href="#DejaVuSans-34"/>
       <use xlink:href="#DejaVuSans-30" x="63.623047"/>
       <use xlink:href="#DejaVuSans-30" x="127.246094"/>
       <use xlink:href="#DejaVuSans-30" x="190.869141"/>
      </g>
     </g>
    </g>
    <g id="text_9">
     <!-- Wavenumbers, cm$^{-1}$ -->
     <g transform="translate(144.677131 377.276562)scale(0.1 -0.1)">
      <defs>
       <path id="DejaVuSans-57" d="M 213 4666 
L 850 4666 
L 1831 722 
L 2809 4666 
L 3519 4666 
L 4500 722 
L 5478 4666 
L 6119 4666 
L 4947 0 
L 4153 0 
L 3169 4050 
L 2175 0 
L 1381 0 
L 213 4666 
z
" transform="scale(0.015625)"/>
       <path id="DejaVuSans-61" d="M 2194 1759 
Q 1497 1759 1228 1600 
Q 959 1441 959 1056 
Q 959 750 1161 570 
Q 1363 391 1709 391 
Q 2188 391 2477 730 
Q 2766 1069 2766 1631 
L 2766 1759 
L 2194 1759 
z
M 3341 1997 
L 3341 0 
L 2766 0 
L 2766 531 
Q 2569 213 2275 61 
Q 1981 -91 1556 -91 
Q 1019 -91 701 211 
Q 384 513 384 1019 
Q 384 1609 779 1909 
Q 1175 2209 1959 2209 
L 2766 2209 
L 2766 2266 
Q 2766 2663 2505 2880 
Q 2244 3097 1772 3097 
Q 1472 3097 1187 3025 
Q 903 2953 641 2809 
L 641 3341 
Q 956 3463 1253 3523 
Q 1550 3584 1831 3584 
Q 2591 3584 2966 3190 
Q 3341 2797 3341 1997 
z
" transform="scale(0.015625)"/>
       <path id="DejaVuSans-76" d="M 191 3500 
L 800 3500 
L 1894 563 
L 2988 3500 
L 3597 3500 
L 2284 0 
L 1503 0 
L 191 3500 
z
" transform="scale(0.015625)"/>
       <path id="DejaVuSans-65" d="M 3597 1894 
L 3597 1613 
L 953 1613 
Q 991 1019 1311 708 
Q 1631 397 2203 397 
Q 2534 397 2845 478 
Q 3156 559 3463 722 
L 3463 178 
Q 3153 47 2828 -22 
Q 2503 -91 2169 -91 
Q 1331 -91 842 396 
Q 353 884 353 1716 
Q 353 2575 817 3079 
Q 1281 3584 2069 3584 
Q 2775 3584 3186 3129 
Q 3597 2675 3597 1894 
z
M 3022 2063 
Q 3016 2534 2758 2815 
Q 2500 3097 2075 3097 
Q 1594 3097 1305 2825 
Q 1016 2553 972 2059 
L 3022 2063 
z
" transform="scale(0.015625)"/>
       <path id="DejaVuSans-6e" d="M 3513 2113 
L 3513 0 
L 2938 0 
L 2938 2094 
Q 2938 2591 2744 2837 
Q 2550 3084 2163 3084 
Q 1697 3084 1428 2787 
Q 1159 2491 1159 1978 
L 1159 0 
L 581 0 
L 581 3500 
L 1159 3500 
L 1159 2956 
Q 1366 3272 1645 3428 
Q 1925 3584 2291 3584 
Q 2894 3584 3203 3211 
Q 3513 2838 3513 2113 
z
" transform="scale(0.015625)"/>
       <path id="DejaVuSans-75" d="M 544 1381 
L 544 3500 
L 1119 3500 
L 1119 1403 
Q 1119 906 1312 657 
Q 1506 409 1894 409 
Q 2359 409 2629 706 
Q 2900 1003 2900 1516 
L 2900 3500 
L 3475 3500 
L 3475 0 
L 2900 0 
L 2900 538 
Q 2691 219 2414 64 
Q 2138 -91 1772 -91 
Q 1169 -91 856 284 
Q 544 659 544 1381 
z
M 1991 3584 
L 1991 3584 
z
" transform="scale(0.015625)"/>
       <path id="DejaVuSans-6d" d="M 3328 2828 
Q 3544 3216 3844 3400 
Q 4144 3584 4550 3584 
Q 5097 3584 5394 3201 
Q 5691 2819 5691 2113 
L 5691 0 
L 5113 0 
L 5113 2094 
Q 5113 2597 4934 2840 
Q 4756 3084 4391 3084 
Q 3944 3084 3684 2787 
Q 3425 2491 3425 1978 
L 3425 0 
L 2847 0 
L 2847 2094 
Q 2847 2600 2669 2842 
Q 2491 3084 2119 3084 
Q 1678 3084 1418 2786 
Q 1159 2488 1159 1978 
L 1159 0 
L 581 0 
L 581 3500 
L 1159 3500 
L 1159 2956 
Q 1356 3278 1631 3431 
Q 1906 3584 2284 3584 
Q 2666 3584 2933 3390 
Q 3200 3197 3328 2828 
z
" transform="scale(0.015625)"/>
       <path id="DejaVuSans-62" d="M 3116 1747 
Q 3116 2381 2855 2742 
Q 2594 3103 2138 3103 
Q 1681 3103 1420 2742 
Q 1159 2381 1159 1747 
Q 1159 1113 1420 752 
Q 1681 391 2138 391 
Q 2594 391 2855 752 
Q 3116 1113 3116 1747 
z
M 1159 2969 
Q 1341 3281 1617 3432 
Q 1894 3584 2278 3584 
Q 2916 3584 3314 3078 
Q 3713 2572 3713 1747 
Q 3713 922 3314 415 
Q 2916 -91 2278 -91 
Q 1894 -91 1617 61 
Q 1341 213 1159 525 
L 1159 0 
L 581 0 
L 581 4863 
L 1159 4863 
L 1159 2969 
z
" transform="scale(0.015625)"/>
       <path id="DejaVuSans-72" d="M 2631 2963 
Q 2534 3019 2420 3045 
Q 2306 3072 2169 3072 
Q 1681 3072 1420 2755 
Q 1159 2438 1159 1844 
L 1159 0 
L 581 0 
L 581 3500 
L 1159 3500 
L 1159 2956 
Q 1341 3275 1631 3429 
Q 1922 3584 2338 3584 
Q 2397 3584 2469 3576 
Q 2541 3569 2628 3553 
L 2631 2963 
z
" transform="scale(0.015625)"/>
       <path id="DejaVuSans-73" d="M 2834 3397 
L 2834 2853 
Q 2591 2978 2328 3040 
Q 2066 3103 1784 3103 
Q 1356 3103 1142 2972 
Q 928 2841 928 2578 
Q 928 2378 1081 2264 
Q 1234 2150 1697 2047 
L 1894 2003 
Q 2506 1872 2764 1633 
Q 3022 1394 3022 966 
Q 3022 478 2636 193 
Q 2250 -91 1575 -91 
Q 1294 -91 989 -36 
Q 684 19 347 128 
L 347 722 
Q 666 556 975 473 
Q 1284 391 1588 391 
Q 1994 391 2212 530 
Q 2431 669 2431 922 
Q 2431 1156 2273 1281 
Q 2116 1406 1581 1522 
L 1381 1569 
Q 847 1681 609 1914 
Q 372 2147 372 2553 
Q 372 3047 722 3315 
Q 1072 3584 1716 3584 
Q 2034 3584 2315 3537 
Q 2597 3491 2834 3397 
z
" transform="scale(0.015625)"/>
       <path id="DejaVuSans-2c" d="M 750 794 
L 1409 794 
L 1409 256 
L 897 -744 
L 494 -744 
L 750 256 
L 750 794 
z
" transform="scale(0.015625)"/>
       <path id="DejaVuSans-20" transform="scale(0.015625)"/>
       <path id="DejaVuSans-63" d="M 3122 3366 
L 3122 2828 
Q 2878 2963 2633 3030 
Q 2388 3097 2138 3097 
Q 1578 3097 1268 2742 
Q 959 2388 959 1747 
Q 959 1106 1268 751 
Q 1578 397 2138 397 
Q 2388 397 2633 464 
Q 2878 531 3122 666 
L 3122 134 
Q 2881 22 2623 -34 
Q 2366 -91 2075 -91 
Q 1284 -91 818 406 
Q 353 903 353 1747 
Q 353 2603 823 3093 
Q 1294 3584 2113 3584 
Q 2378 3584 2631 3529 
Q 2884 3475 3122 3366 
z
" transform="scale(0.015625)"/>
       <path id="DejaVuSans-2212" d="M 678 2272 
L 4684 2272 
L 4684 1741 
L 678 1741 
L 678 2272 
z
" transform="scale(0.015625)"/>
      </defs>
      <use xlink:href="#DejaVuSans-57" transform="translate(0 0.684375)"/>
      <use xlink:href="#DejaVuSans-61" transform="translate(98.876953 0.684375)"/>
      <use xlink:href="#DejaVuSans-76" transform="translate(160.15625 0.684375)"/>
      <use xlink:href="#DejaVuSans-65" transform="translate(219.335938 0.684375)"/>
      <use xlink:href="#DejaVuSans-6e" transform="translate(280.859375 0.684375)"/>
      <use xlink:href="#DejaVuSans-75" transform="translate(344.238281 0.684375)"/>
      <use xlink:href="#DejaVuSans-6d" transform="translate(407.617188 0.684375)"/>
      <use xlink:href="#DejaVuSans-62" transform="translate(505.029297 0.684375)"/>
      <use xlink:href="#DejaVuSans-65" transform="translate(568.505859 0.684375)"/>
      <use xlink:href="#DejaVuSans-72" transform="translate(630.029297 0.684375)"/>
      <use xlink:href="#DejaVuSans-73" transform="translate(671.142578 0.684375)"/>
      <use xlink:href="#DejaVuSans-2c" transform="translate(723.242188 0.684375)"/>
      <use xlink:href="#DejaVuSans-20" transform="translate(755.029297 0.684375)"/>
      <use xlink:href="#DejaVuSans-63" transform="translate(786.816406 0.684375)"/>
      <use xlink:href="#DejaVuSans-6d" transform="translate(841.796875 0.684375)"/>
      <use xlink:href="#DejaVuSans-2212" transform="translate(940.166016 38.965625)scale(0.7)"/>
      <use xlink:href="#DejaVuSans-31" transform="translate(998.818359 38.965625)scale(0.7)"/>
     </g>
    </g>
   </g>
   <g id="matplotlib.axis_2">
    <g id="ytick_1">
     <g id="line2d_9">
      <defs>
       <path id="m97e5bfefa5" d="M 0 0 
L -3.5 0 
" style="stroke: #000000; stroke-width: 0.8"/>
      </defs>
      <g>
       <use xlink:href="#m97e5bfefa5" x="44.845313" y="305.025793" style="stroke: #000000; stroke-width: 0.8"/>
      </g>
     </g>
     <g id="text_10">
      <!-- −0.08 -->
      <g transform="translate(7.2 308.825011)scale(0.1 -0.1)">
       <defs>
        <path id="DejaVuSans-2e" d="M 684 794 
L 1344 794 
L 1344 0 
L 684 0 
L 684 794 
z
" transform="scale(0.015625)"/>
        <path id="DejaVuSans-38" d="M 2034 2216 
Q 1584 2216 1326 1975 
Q 1069 1734 1069 1313 
Q 1069 891 1326 650 
Q 1584 409 2034 409 
Q 2484 409 2743 651 
Q 3003 894 3003 1313 
Q 3003 1734 2745 1975 
Q 2488 2216 2034 2216 
z
M 1403 2484 
Q 997 2584 770 2862 
Q 544 3141 544 3541 
Q 544 4100 942 4425 
Q 1341 4750 2034 4750 
Q 2731 4750 3128 4425 
Q 3525 4100 3525 3541 
Q 3525 3141 3298 2862 
Q 3072 2584 2669 2484 
Q 3125 2378 3379 2068 
Q 3634 1759 3634 1313 
Q 3634 634 3220 271 
Q 2806 -91 2034 -91 
Q 1263 -91 848 271 
Q 434 634 434 1313 
Q 434 1759 690 2068 
Q 947 2378 1403 2484 
z
M 1172 3481 
Q 1172 3119 1398 2916 
Q 1625 2713 2034 2713 
Q 2441 2713 2670 2916 
Q 2900 3119 2900 3481 
Q 2900 3844 2670 4047 
Q 2441 4250 2034 4250 
Q 1625 4250 1398 4047 
Q 1172 3844 1172 3481 
z
" transform="scale(0.015625)"/>
       </defs>
       <use xlink:href="#DejaVuSans-2212"/>
       <use xlink:href="#DejaVuSans-30" x="83.789062"/>
       <use xlink:href="#DejaVuSans-2e" x="147.412109"/>
       <use xlink:href="#DejaVuSans-30" x="179.199219"/>
       <use xlink:href="#DejaVuSans-38" x="242.822266"/>
      </g>
     </g>
    </g>
    <g id="ytick_2">
     <g id="line2d_10">
      <g>
       <use xlink:href="#m97e5bfefa5" x="44.845313" y="252.898558" style="stroke: #000000; stroke-width: 0.8"/>
      </g>
     </g>
     <g id="text_11">
      <!-- −0.06 -->
      <g transform="translate(7.2 256.697776)scale(0.1 -0.1)">
       <defs>
        <path id="DejaVuSans-36" d="M 2113 2584 
Q 1688 2584 1439 2293 
Q 1191 2003 1191 1497 
Q 1191 994 1439 701 
Q 1688 409 2113 409 
Q 2538 409 2786 701 
Q 3034 994 3034 1497 
Q 3034 2003 2786 2293 
Q 2538 2584 2113 2584 
z
M 3366 4563 
L 3366 3988 
Q 3128 4100 2886 4159 
Q 2644 4219 2406 4219 
Q 1781 4219 1451 3797 
Q 1122 3375 1075 2522 
Q 1259 2794 1537 2939 
Q 1816 3084 2150 3084 
Q 2853 3084 3261 2657 
Q 3669 2231 3669 1497 
Q 3669 778 3244 343 
Q 2819 -91 2113 -91 
Q 1303 -91 875 529 
Q 447 1150 447 2328 
Q 447 3434 972 4092 
Q 1497 4750 2381 4750 
Q 2619 4750 2861 4703 
Q 3103 4656 3366 4563 
z
" transform="scale(0.015625)"/>
       </defs>
       <use xlink:href="#DejaVuSans-2212"/>
       <use xlink:href="#DejaVuSans-30" x="83.789062"/>
       <use xlink:href="#DejaVuSans-2e" x="147.412109"/>
       <use xlink:href="#DejaVuSans-30" x="179.199219"/>
       <use xlink:href="#DejaVuSans-36" x="242.822266"/>
      </g>
     </g>
    </g>
    <g id="ytick_3">
     <g id="line2d_11">
      <g>
       <use xlink:href="#m97e5bfefa5" x="44.845313" y="200.771323" style="stroke: #000000; stroke-width: 0.8"/>
      </g>
     </g>
     <g id="text_12">
      <!-- −0.04 -->
      <g transform="translate(7.2 204.570542)scale(0.1 -0.1)">
       <use xlink:href="#DejaVuSans-2212"/>
       <use xlink:href="#DejaVuSans-30" x="83.789062"/>
       <use xlink:href="#DejaVuSans-2e" x="147.412109"/>
       <use xlink:href="#DejaVuSans-30" x="179.199219"/>
       <use xlink:href="#DejaVuSans-34" x="242.822266"/>
      </g>
     </g>
    </g>
    <g id="ytick_4">
     <g id="line2d_12">
      <g>
       <use xlink:href="#m97e5bfefa5" x="44.845313" y="148.644088" style="stroke: #000000; stroke-width: 0.8"/>
      </g>
     </g>
     <g id="text_13">
      <!-- −0.02 -->
      <g transform="translate(7.2 152.443307)scale(0.1 -0.1)">
       <use xlink:href="#DejaVuSans-2212"/>
       <use xlink:href="#DejaVuSans-30" x="83.789062"/>
       <use xlink:href="#DejaVuSans-2e" x="147.412109"/>
       <use xlink:href="#DejaVuSans-30" x="179.199219"/>
       <use xlink:href="#DejaVuSans-32" x="242.822266"/>
      </g>
     </g>
    </g>
    <g id="ytick_5">
     <g id="line2d_13">
      <g>
       <use xlink:href="#m97e5bfefa5" x="44.845313" y="96.516853" style="stroke: #000000; stroke-width: 0.8"/>
      </g>
     </g>
     <g id="text_14">
      <!-- 0.00 -->
      <g transform="translate(15.579688 100.316072)scale(0.1 -0.1)">
       <use xlink:href="#DejaVuSans-30"/>
       <use xlink:href="#DejaVuSans-2e" x="63.623047"/>
       <use xlink:href="#DejaVuSans-30" x="95.410156"/>
       <use xlink:href="#DejaVuSans-30" x="159.033203"/>
      </g>
     </g>
    </g>
    <g id="ytick_6">
     <g id="line2d_14">
      <g>
       <use xlink:href="#m97e5bfefa5" x="44.845313" y="44.389619" style="stroke: #000000; stroke-width: 0.8"/>
      </g>
     </g>
     <g id="text_15">
      <!-- 0.02 -->
      <g transform="translate(15.579688 48.188837)scale(0.1 -0.1)">
       <use xlink:href="#DejaVuSans-30"/>
       <use xlink:href="#DejaVuSans-2e" x="63.623047"/>
       <use xlink:href="#DejaVuSans-30" x="95.410156"/>
       <use xlink:href="#DejaVuSans-32" x="159.033203"/>
      </g>
     </g>
    </g>
   </g>
   <g id="line2d_15">
    <path d="M 335.374238 153.800549 
L 335.294723 154.025178 
L 334.817664 156.860658 
L 334.459874 158.010366 
L 334.221344 158.02748 
L 334.102075 157.767275 
L 333.784039 156.765963 
L 333.744285 156.784376 
L 333.625016 157.614558 
L 333.466002 158.843272 
L 333.426249 158.639718 
L 332.71066 152.370678 
L 332.154086 149.351852 
L 331.915556 144.214177 
L 331.71678 134.721029 
L 331.478251 109.658016 
L 331.279483 95.012456 
L 331.160214 104.694085 
L 330.842178 136.720433 
L 330.563895 141.779247 
L 330.365119 142.91516 
L 330.24585 142.880147 
L 330.126589 142.586491 
L 329.967567 141.412273 
L 329.609777 136.459071 
L 329.331485 129.437337 
L 329.092956 116.174645 
L 328.854426 84.518263 
L 328.53639 37.14358 
L 328.456883 41.068041 
L 328.218353 83.854377 
L 327.900308 122.689969 
L 327.661779 129.760007 
L 327.423249 131.511473 
L 327.18472 131.905077 
L 327.025706 131.846781 
L 326.866683 131.464307 
L 326.548647 130.608152 
L 326.310117 130.036079 
L 325.872812 128.28939 
L 324.998201 124.923241 
L 324.680164 123.674929 
L 324.322366 121.869254 
L 324.083836 120.993577 
L 323.368248 117.778198 
L 321.897317 111.428975 
L 321.102222 108.23077 
L 320.903446 107.605603 
L 320.426387 105.502279 
L 320.187857 104.666439 
L 319.353 101.141091 
L 318.677173 98.794504 
L 318.438644 97.552652 
L 318.001338 94.208224 
L 317.524279 88.435116 
L 317.484526 88.485947 
L 317.365257 89.389659 
L 316.927952 93.448901 
L 316.768937 93.716286 
L 316.411139 93.617862 
L 316.17261 93.601399 
L 315.93408 93.263781 
L 315.218492 91.70433 
L 314.661926 89.748813 
L 314.542657 89.622641 
L 314.423396 88.995575 
L 314.065598 85.460346 
L 314.025844 85.69 
L 313.827068 89.094957 
L 313.588539 91.862279 
L 313.350009 92.542088 
L 313.031973 92.753267 
L 312.276631 93.072716 
L 311.083983 94.669375 
L 309.772067 98.511274 
L 308.897464 103.455669 
L 308.261383 108.737782 
L 307.625301 116.667623 
L 307.148242 125.972323 
L 306.671183 140.235681 
L 306.233886 161.163097 
L 305.796564 194.177279 
L 304.206423 333.65267 
L 304.166595 333.566205 
L 304.047359 330.14465 
L 303.84855 314.220845 
L 302.019854 127.292087 
L 301.622319 111.703293 
L 301.185038 102.97109 
L 300.707929 97.767028 
L 300.07184 93.592368 
L 299.634559 90.524777 
L 299.396005 89.209976 
L 299.316514 89.585933 
L 299.07796 92.764025 
L 298.680425 96.788542 
L 298.163653 100.736756 
L 297.130028 106.216248 
L 296.692665 108.345202 
L 296.533684 108.416379 
L 296.37462 108.102448 
L 296.136148 106.885048 
L 295.698868 103.123132 
L 294.386943 90.104642 
L 293.830344 87.50878 
L 293.353318 86.119449 
L 292.995528 85.628288 
L 292.438929 85.277546 
L 292.24012 85.198245 
L 291.683603 84.425509 
L 291.405304 83.681397 
L 291.365559 83.699697 
L 291.206495 84.147415 
L 290.88845 84.929758 
L 290.570405 85.246308 
L 290.371679 85.459805 
L 289.377799 87.027261 
L 289.218735 87.030284 
L 289.020009 86.639279 
L 288.503155 85.578112 
L 288.383919 85.410789 
L 288.344174 85.432845 
L 288.224938 85.921579 
L 288.026129 88.452266 
L 287.668339 93.041254 
L 287.509358 93.143787 
L 287.429785 93.268761 
L 287.270804 94.192055 
L 287.032249 95.493022 
L 286.952759 95.300911 
L 286.793695 93.828102 
L 286.157688 86.817876 
L 285.76007 84.95098 
L 284.885509 81.944008 
L 284.845763 82.009367 
L 284.646954 82.875608 
L 284.32891 83.900974 
L 283.494093 85.250271 
L 283.215794 85.492015 
L 282.460468 86.435022 
L 282.102678 86.707042 
L 281.307525 87.34213 
L 280.63169 88.152823 
L 280.393218 88.40157 
L 279.717383 89.492483 
L 279.518574 89.594338 
L 278.802994 90.859599 
L 278.405459 92.137237 
L 278.007923 93.758064 
L 277.84886 93.73624 
L 277.689878 94.259792 
L 276.93447 98.285264 
L 276.377954 103.136986 
L 275.980418 106.883143 
L 275.622628 108.246566 
L 275.384074 108.397371 
L 275.304584 108.431235 
L 275.264838 108.367719 
L 275.105775 107.426216 
L 274.827475 106.063161 
L 274.747984 106.142144 
L 274.589003 106.940195 
L 273.15776 116.628988 
L 272.959034 116.769019 
L 272.640989 118.046426 
L 272.561498 117.977518 
L 272.44218 117.95494 
L 271.885663 119.08669 
L 271.7266 120.137144 
L 271.567619 121.20073 
L 271.527873 121.148276 
L 271.36881 119.775995 
L 271.09051 118.21414 
L 270.335185 113.978123 
L 270.255694 113.949516 
L 270.176203 114.039888 
L 270.136376 113.973982 
L 270.01714 112.755718 
L 269.540114 106.566012 
L 269.222069 99.866207 
L 269.02326 96.676169 
L 268.943769 97.449561 
L 268.744961 104.324161 
L 268.426998 113.487925 
L 268.38717 113.533508 
L 268.267935 112.119776 
L 267.989635 109.056025 
L 267.711335 108.364436 
L 267.433118 106.723468 
L 267.353545 106.999831 
L 267.154819 108.346505 
L 267.115074 108.317987 
L 266.995755 107.431281 
L 265.922385 97.39202 
L 265.763404 95.740032 
L 265.60434 91.324279 
L 265.206805 76.867063 
L 265.167059 77.352722 
L 264.570715 90.133616 
L 264.292415 94.32739 
L 264.25267 94.105748 
L 263.735899 88.83057 
L 263.656408 88.950399 
L 263.457599 89.685322 
L 263.417854 89.657979 
L 263.298618 89.488368 
L 263.25879 89.530852 
L 263.139554 89.764046 
L 263.099809 89.662824 
L 262.423974 85.760553 
L 262.344484 85.689063 
L 262.225165 86.241071 
L 262.105929 86.659695 
L 261.986694 85.837677 
L 261.867375 85.168057 
L 261.82763 85.2859 
L 261.668649 87.400351 
L 261.54933 88.726932 
L 261.509585 88.711803 
L 261.350604 87.31715 
L 260.873495 83.844951 
L 260.75426 83.851008 
L 260.595278 83.528581 
L 260.555451 83.549709 
L 260.396469 84.16534 
L 260.237406 85.178303 
L 259.998934 88.157855 
L 259.959189 87.719071 
L 259.561653 81.576157 
L 259.362844 81.271907 
L 259.243608 81.680234 
L 259.12429 81.967858 
L 259.005054 81.271196 
L 258.845991 80.540152 
L 258.726755 81.131987 
L 258.607519 81.848914 
L 258.567774 81.839162 
L 258.448455 80.978264 
L 258.209983 79.464908 
L 257.77262 78.80308 
L 257.573894 78.739624 
L 257.41483 78.706525 
L 257.096785 78.112555 
L 256.818486 77.173645 
L 256.580014 75.709003 
L 256.222224 72.233646 
L 256.182479 72.343024 
L 256.023415 74.376281 
L 255.745115 77.345948 
L 255.427071 78.474888 
L 255.228344 79.455665 
L 255.109026 78.800444 
L 254.950045 78.142253 
L 254.870554 78.351988 
L 254.671745 79.113953 
L 254.632 79.075244 
L 254.433191 78.718441 
L 254.393446 78.746137 
L 254.27421 78.80204 
L 254.234464 78.755122 
L 254.075401 78.525183 
L 254.035655 78.577459 
L 253.91642 79.257162 
L 253.63812 81.83632 
L 253.598375 81.627991 
L 253.240585 79.287403 
L 253.161094 79.246648 
L 253.121349 79.314387 
L 253.00203 79.987996 
L 252.723731 82.310463 
L 252.683985 82.160317 
L 252.525004 81.211086 
L 252.485259 81.272749 
L 252.365941 82.746171 
L 252.206959 84.708719 
L 252.047896 82.100342 
L 251.809424 79.896516 
L 251.729851 79.9803 
L 251.451634 81.047319 
L 251.372143 80.871661 
L 251.21308 80.437271 
L 251.093844 81.064414 
L 250.895035 82.482235 
L 250.85529 82.475008 
L 250.616735 81.407249 
L 250.537245 81.602692 
L 250.418009 81.997017 
L 250.378264 81.9231 
L 250.139709 80.839374 
L 250.099964 80.892202 
L 249.980646 81.453059 
L 249.781919 83.928992 
L 249.662601 84.83396 
L 249.622856 84.602674 
L 249.384384 82.702423 
L 249.344556 82.768301 
L 249.026594 84.118307 
L 248.86753 86.438661 
L 248.191695 99.012046 
L 248.072459 99.436074 
L 247.953141 99.882926 
L 247.913396 99.721914 
L 247.79416 97.876158 
L 247.078579 83.333055 
L 246.840025 80.109422 
L 246.601553 77.402355 
L 246.52198 77.527544 
L 246.283509 77.965984 
L 246.16419 78.12176 
L 245.885891 79.327244 
L 245.687164 80.801414 
L 245.567846 81.676099 
L 245.528101 81.585633 
L 245.289629 79.566679 
L 245.210056 79.670658 
L 245.09082 79.967322 
L 245.051075 79.940372 
L 244.653539 79.150344 
L 244.534221 79.449318 
L 244.216258 80.698775 
L 244.176431 80.604911 
L 243.977704 79.015084 
L 243.818641 78.510322 
L 243.699405 78.51012 
L 243.46085 77.908341 
L 243.421105 77.961656 
L 243.301869 78.145773 
L 243.262124 78.08485 
L 242.983824 76.726108 
L 242.904334 76.85844 
L 242.466971 78.03256 
L 242.427225 78.037933 
L 242.30799 77.405033 
L 241.989945 75.428627 
L 241.870709 75.307604 
L 241.830964 75.330319 
L 241.711645 75.33043 
L 241.473091 75.109462 
L 241.31411 75.115446 
L 241.115301 74.80002 
L 241.075556 74.872022 
L 240.797256 76.157663 
L 240.717765 75.934277 
L 240.359975 74.296647 
L 240.240739 74.379991 
L 240.04193 74.745037 
L 240.002185 74.706472 
L 239.803376 73.981923 
L 239.60465 73.660576 
L 239.445586 73.963751 
L 239.207114 74.307008 
L 239.008305 74.069634 
L 238.769751 73.917094 
L 238.372216 73.903778 
L 238.25298 74.097759 
L 238.014426 74.755349 
L 237.97468 74.732453 
L 237.855444 74.672458 
L 237.656636 75.020728 
L 237.61689 74.943084 
L 237.219355 73.673384 
L 236.980801 73.614899 
L 236.821819 73.606274 
L 236.702501 74.0639 
L 236.503775 75.181531 
L 236.464029 75.167491 
L 236.304966 74.344588 
L 235.90743 72.765868 
L 235.668876 72.584354 
L 235.509895 72.63133 
L 235.112359 73.017429 
L 234.873805 72.974241 
L 234.714824 73.331145 
L 234.436524 74.293179 
L 234.396779 74.224064 
L 233.999161 72.649531 
L 233.919671 72.736753 
L 233.561881 73.234166 
L 233.045109 73.136571 
L 232.727064 73.997639 
L 232.647491 73.924188 
L 232.448765 73.742042 
L 232.170465 73.839336 
L 231.812675 73.366664 
L 231.613866 73.13217 
L 231.216331 73.531299 
L 231.017604 73.669467 
L 230.69956 73.58255 
L 230.381515 74.012001 
L 230.302024 73.933776 
L 230.142961 73.920942 
L 230.023725 74.005878 
L 229.983979 73.966784 
L 229.78517 73.321179 
L 229.506871 72.737291 
L 229.308144 72.785151 
L 229.06959 72.849186 
L 228.751545 72.394779 
L 228.672055 72.514897 
L 228.35401 73.503893 
L 228.274519 73.421834 
L 227.956475 73.016239 
L 227.797411 73.159662 
L 227.63843 73.257116 
L 226.922849 72.691433 
L 226.883104 72.746848 
L 226.64455 73.660058 
L 226.36625 74.364418 
L 226.247015 74.174823 
L 225.889224 73.061719 
L 225.849479 73.136454 
L 225.57118 73.800366 
L 225.531434 73.762632 
L 225.173644 73.387131 
L 224.617045 73.294253 
L 224.457981 73.687949 
L 224.338746 73.920633 
L 224.299 73.891143 
L 224.060446 73.528815 
L 224.020701 73.575457 
L 223.782229 73.763317 
L 223.384611 73.665079 
L 222.907585 73.99113 
L 222.748521 74.07107 
L 222.430559 74.425603 
L 222.112514 74.499071 
L 221.754724 74.501384 
L 221.51617 74.320006 
L 221.317361 74.479613 
L 220.840335 75.188474 
L 220.681271 75.20946 
L 220.243991 75.862313 
L 219.925946 76.010893 
L 219.687392 75.975577 
L 219.44892 75.913221 
L 219.051384 75.492993 
L 218.534531 74.437765 
L 218.494785 74.46076 
L 218.295976 74.54744 
L 217.898441 74.225503 
L 217.659969 74.311189 
L 217.222606 73.930055 
L 216.984134 74.230612 
L 216.825071 74.380217 
L 216.785325 74.347341 
L 216.38779 73.921508 
L 216.03 74.032133 
L 215.910681 74.029689 
L 215.552891 73.712983 
L 215.075865 73.963162 
L 214.916802 73.862816 
L 214.439776 73.458606 
L 214.32054 73.631087 
L 213.922922 74.37594 
L 213.763941 74.326293 
L 213.525386 74.211649 
L 213.207342 74.42993 
L 213.167596 74.370893 
L 212.770061 73.741631 
L 212.213462 74.061313 
L 211.895499 73.917048 
L 211.736436 74.180067 
L 211.378646 75.150518 
L 211.3389 75.130115 
L 211.219665 74.892086 
L 210.941365 74.010218 
L 210.90162 74.04176 
L 210.464257 74.760827 
L 210.424511 74.724836 
L 210.225785 74.409923 
L 210.186039 74.447806 
L 209.90774 74.858931 
L 209.867995 74.835327 
L 209.470377 74.543495 
L 209.19216 75.057399 
L 209.112669 74.89575 
L 208.91386 74.453999 
L 208.874115 74.487198 
L 208.635561 74.779109 
L 208.317516 74.278449 
L 208.238025 74.340192 
L 207.880235 74.70102 
L 207.641681 75.0918 
L 207.4827 74.628515 
L 207.363381 74.434286 
L 207.323636 74.481137 
L 207.085082 74.883409 
L 207.045337 74.857393 
L 206.727374 74.514517 
L 206.687546 74.560441 
L 206.409329 74.821052 
L 206.250266 74.927828 
L 206.051457 75.136513 
L 206.011711 75.111973 
L 205.693667 74.901595 
L 205.13715 75.280761 
L 204.938341 75.296286 
L 204.739615 75.306479 
L 204.461315 75.145362 
L 204.183016 75.34288 
L 203.626416 74.703698 
L 203.030155 75.060204 
L 202.831346 74.892593 
L 202.553046 74.512508 
L 201.956784 74.629244 
L 201.757975 74.549288 
L 201.43993 74.88172 
L 201.400185 74.825833 
L 201.121886 74.467677 
L 200.962904 74.459166 
L 200.684605 74.247944 
L 200.525541 74.208102 
L 200.286987 74.04674 
L 199.929197 74.211227 
L 199.611152 74.474777 
L 199.253444 74.363695 
L 199.01489 74.605679 
L 198.776336 74.813447 
L 198.537782 74.819746 
L 198.339055 75.20867 
L 197.94152 75.95685 
L 196.629595 78.298522 
L 196.351296 78.491221 
L 195.993506 78.28109 
L 195.794697 78.640732 
L 195.516397 78.973344 
L 195.317671 78.849526 
L 195.158607 78.485235 
L 194.88039 77.368544 
L 194.840562 77.405782 
L 194.681581 78.212108 
L 194.284046 80.260989 
L 194.124982 80.349742 
L 193.88651 80.307291 
L 193.687701 80.199802 
L 193.250421 79.800297 
L 192.81314 78.155379 
L 192.09756 75.07075 
L 191.859005 74.66216 
L 191.421725 74.559041 
L 191.18317 74.51276 
L 190.944616 74.521481 
L 190.507335 74.743392 
L 190.268781 74.724788 
L 189.235156 75.435516 
L 188.996602 75.61726 
L 188.638812 75.557007 
L 188.320767 75.415447 
L 188.082295 75.700179 
L 187.76425 76.033627 
L 187.525696 75.949415 
L 187.128161 76.26988 
L 186.929352 76.289175 
L 186.69088 76.347614 
L 186.492071 76.365934 
L 186.174026 76.62689 
L 185.935472 76.562283 
L 185.617427 76.84303 
L 185.259637 76.75309 
L 185.021165 76.906297 
L 184.544057 77.51919 
L 184.464566 77.449651 
L 184.26584 77.36932 
L 184.067031 77.611279 
L 183.669495 78.166661 
L 183.510432 78.232496 
L 182.516552 79.317073 
L 181.880545 79.837838 
L 181.5625 79.858562 
L 180.807092 80.390397 
L 180.608366 80.37173 
L 180.091512 80.095119 
L 179.733722 80.102833 
L 179.415677 79.661732 
L 179.375932 79.692404 
L 179.097632 79.902162 
L 178.898906 79.683011 
L 178.700097 79.528859 
L 178.382052 79.516901 
L 177.86528 79.325296 
L 177.586981 79.432676 
L 176.871401 78.978622 
L 176.593101 78.833639 
L 176.394375 79.020936 
L 176.116075 79.198364 
L 175.837776 79.161201 
L 175.360667 79.125218 
L 175.042622 79.144526 
L 174.247551 78.529573 
L 173.492226 78.525302 
L 172.975372 78.031231 
L 172.7369 78.05532 
L 172.538091 77.969926 
L 172.180301 77.785294 
L 171.862257 77.780756 
L 171.544212 77.624753 
L 171.30574 77.471851 
L 170.749141 76.962314 
L 170.351605 76.905693 
L 170.152797 76.58321 
L 169.397471 74.962809 
L 169.198662 74.844113 
L 169.079426 75.106724 
L 168.562572 76.708896 
L 168.045801 76.942729 
L 167.648266 76.96787 
L 167.369966 76.949363 
L 167.131412 76.970093 
L 166.972431 76.915175 
L 166.773622 76.812188 
L 166.018296 77.454081 
L 165.421952 78.221549 
L 165.103907 78.308453 
L 164.865435 78.415517 
L 163.672747 79.720495 
L 163.394447 79.868354 
L 162.718612 80.91488 
L 160.889916 85.797185 
L 160.293572 87.804612 
L 159.41901 91.263049 
L 158.186576 97.060443 
L 156.834907 109.425922 
L 156.278307 117.559646 
L 155.204937 135.861158 
L 155.125447 135.57638 
L 154.966383 133.483924 
L 154.727911 126.375403 
L 154.171312 100.064082 
L 153.495477 68.816659 
L 153.415987 69.516056 
L 153.256923 74.771456 
L 152.740152 93.075153 
L 152.422107 96.447186 
L 152.064317 97.809423 
L 151.587291 99.103675 
L 150.871628 101.804027 
L 150.513838 102.096819 
L 150.394602 102.008177 
L 150.195793 101.481091 
L 149.838085 99.777707 
L 149.559786 97.142279 
L 149.122423 92.948196 
L 148.804378 91.937835 
L 148.724887 91.974591 
L 148.605651 92.446869 
L 148.367097 93.715811 
L 148.327352 93.626623 
L 148.208116 92.329773 
L 147.969562 85.617262 
L 147.572026 75.487806 
L 147.532281 75.49463 
L 147.412963 76.894034 
L 147.174491 84.430027 
L 146.061293 126.46514 
L 145.783076 129.729462 
L 145.624012 130.110107 
L 145.504776 129.892056 
L 145.305967 128.683546 
L 143.914552 117.37982 
L 143.556762 116.745292 
L 142.642373 114.876434 
L 142.284583 112.884619 
L 141.529257 106.388957 
L 140.853422 101.103593 
L 140.137842 96.829009 
L 138.865663 89.93619 
L 138.746427 90.012781 
L 138.468127 90.565056 
L 137.673056 93.308328 
L 137.474247 93.429115 
L 136.520113 92.956498 
L 136.202068 92.65591 
L 135.923851 92.745584 
L 135.645551 92.993266 
L 134.731162 95.226974 
L 134.452863 95.274412 
L 134.214391 95.395731 
L 134.015582 95.402057 
L 133.856601 95.801225 
L 133.419238 97.798942 
L 133.061448 99.05655 
L 132.544676 100.102657 
L 131.868841 102.158908 
L 129.284737 110.561246 
L 128.807711 112.459078 
L 128.131876 115.491899 
L 125.150237 130.466859 
L 124.514148 134.4401 
L 123.639504 139.437681 
L 122.407152 146.761955 
L 121.810808 149.268154 
L 121.373527 151.719163 
L 120.657947 155.329473 
L 119.107468 161.654727 
L 118.948487 161.93825 
L 118.352142 163.626713 
L 118.113588 164.305968 
L 117.676307 165.632116 
L 117.437753 166.106828 
L 117.159536 166.612942 
L 117.000473 166.938014 
L 116.761918 167.293226 
L 116.602937 167.497162 
L 116.205402 168.112155 
L 115.847612 168.172896 
L 115.012713 168.896764 
L 114.813987 168.840782 
L 114.336878 168.6154 
L 114.177897 168.673661 
L 113.740616 168.21073 
L 113.541807 167.893118 
L 113.184017 167.365706 
L 113.024953 167.249552 
L 112.428692 165.540995 
L 112.110647 164.706177 
L 111.872093 164.275619 
L 111.395067 163.031078 
L 111.236003 162.578768 
L 108.214618 148.117207 
L 107.220738 142.538507 
L 105.392043 132.598459 
L 105.073998 131.232376 
L 104.676462 129.341601 
L 104.278927 127.42349 
L 104.080118 126.779165 
L 103.125984 121.637476 
L 102.847766 119.910705 
L 102.410403 117.584021 
L 102.171932 116.570541 
L 101.615332 113.952048 
L 101.178052 111.612559 
L 99.389019 103.748872 
L 99.190292 103.248259 
L 98.156667 98.563772 
L 97.719386 97.510808 
L 97.480832 96.413503 
L 97.043551 94.302769 
L 96.765252 93.330338 
L 96.288143 91.841735 
L 95.731627 90.252311 
L 95.135283 87.78309 
L 94.936474 87.461443 
L 94.658257 87.501193 
L 94.459448 87.86838 
L 94.419702 87.794304 
L 94.260639 86.647643 
L 93.982422 84.932475 
L 93.624549 83.852508 
L 93.346332 83.286032 
L 93.028287 83.180847 
L 92.908969 83.36225 
L 92.749988 83.733907 
L 92.710242 83.697932 
L 92.591006 83.050724 
L 92.312707 81.680752 
L 92.153643 81.632567 
L 91.358572 80.057611 
L 91.279082 80.1647 
L 91.040528 80.725089 
L 91.000782 80.67651 
L 90.682737 80.212763 
L 90.563502 80.023652 
L 90.324947 79.433102 
L 90.086393 79.87971 
L 90.046648 79.817138 
L 89.649112 78.504338 
L 89.569622 78.62692 
L 89.331068 79.926151 
L 89.251577 79.719988 
L 88.893787 77.927573 
L 88.496251 76.826711 
L 88.456424 76.862199 
L 88.019143 77.563783 
L 87.701098 79.795355 
L 87.661353 79.66391 
L 87.263817 77.191147 
L 87.184327 77.254792 
L 87.104754 77.336628 
L 87.065008 77.307353 
L 86.945773 76.832305 
L 86.707218 75.947366 
L 86.587982 76.016267 
L 86.230192 76.65216 
L 85.912148 77.940224 
L 85.872402 77.874296 
L 85.753084 77.71907 
L 85.713339 77.782123 
L 85.514612 78.491566 
L 85.474867 78.415688 
L 85.276058 76.768111 
L 85.037504 75.635027 
L 84.878522 75.45086 
L 84.759204 75.669835 
L 84.520732 76.685263 
L 84.361669 77.234349 
L 84.321923 77.207708 
L 84.162942 76.60456 
L 83.765407 75.101092 
L 83.646088 75.097227 
L 83.526853 75.403832 
L 83.288298 76.349 
L 83.248553 76.325605 
L 83.009999 75.697819 
L 82.930508 75.871076 
L 82.572718 77.737269 
L 82.493228 77.555324 
L 82.135437 75.785137 
L 82.095692 75.802961 
L 81.896883 76.184806 
L 81.539093 77.093725 
L 81.499348 77.037814 
L 81.101812 76.087691 
L 81.062067 76.156913 
L 80.903003 77.053378 
L 80.584959 79.186517 
L 80.505468 79.001595 
L 80.187423 76.959896 
L 80.147678 77.013822 
L 79.988614 77.895897 
L 79.829633 78.994223 
L 79.789888 78.985496 
L 79.511588 77.455022 
L 79.432098 77.721437 
L 79.273116 78.127316 
L 79.153798 77.804067 
L 78.796008 76.634261 
L 78.597199 76.503943 
L 78.239409 75.849469 
L 78.199664 75.890312 
L 77.921364 76.197316 
L 77.682892 76.175681 
L 77.285357 75.300984 
L 76.927484 75.473059 
L 76.768503 75.542274 
L 76.490204 75.414511 
L 76.370968 75.320816 
L 76.013178 74.852315 
L 75.854114 74.96015 
L 75.695133 75.373709 
L 75.098788 77.562042 
L 75.059043 77.585291 
L 75.019298 77.50232 
L 74.701253 76.552298 
L 74.621762 76.430733 
L 74.303718 75.218637 
L 74.263972 75.267224 
L 74.104909 75.828339 
L 73.826609 77.096421 
L 73.786864 77.086162 
L 73.667628 77.139903 
L 73.508647 77.55778 
L 73.468819 77.52372 
L 72.912302 75.987005 
L 72.792984 76.011174 
L 72.594258 76.47083 
L 72.156894 78.063935 
L 72.077404 77.962632 
L 71.83885 76.969479 
L 71.520887 75.991768 
L 71.401569 75.918988 
L 71.361824 75.9564 
L 71.242588 76.331139 
L 71.004033 78.103693 
L 70.805307 79.242341 
L 70.685989 78.439025 
L 70.367944 76.139811 
L 70.288453 76.006261 
L 70.248708 76.038142 
L 69.612618 77.78303 
L 69.453555 78.371446 
L 69.413892 78.281217 
L 68.936783 76.428992 
L 68.857293 76.351987 
L 68.817547 76.416806 
L 68.539248 77.433232 
L 68.459757 77.346935 
L 68.340439 77.255417 
L 68.141712 77.593288 
L 68.101967 77.542411 
L 67.863413 76.930633 
L 67.823668 76.993458 
L 67.624859 77.340095 
L 67.465878 76.85747 
L 67.306814 76.522674 
L 67.267069 76.54085 
L 67.147833 76.832562 
L 66.790043 77.989027 
L 66.670724 77.835383 
L 66.471998 77.02977 
L 66.193698 76.057898 
L 65.835908 76.003621 
L 65.557609 76.831015 
L 65.478118 76.749902 
L 65.239564 76.495584 
L 64.842028 76.571073 
L 64.643302 76.313619 
L 64.603474 76.341377 
L 64.365002 76.735328 
L 64.285429 76.632387 
L 63.927639 75.909172 
L 63.728913 75.892167 
L 63.371123 76.292521 
L 63.132568 76.252856 
L 62.973587 76.277444 
L 62.456733 75.832006 
L 61.860389 76.495434 
L 61.780898 76.359034 
L 61.542344 75.751639 
L 61.502599 75.773501 
L 60.667783 76.456985 
L 60.468974 76.086968 
L 60.111184 75.676559 
L 59.991948 75.71262 
L 59.514839 76.692013 
L 58.759514 76.19066 
L 58.680023 76.206476 
L 58.680023 76.206476 
" clip-path="url(#pf675802243)" style="fill: none; stroke: #1f77b4; stroke-width: 1.5; stroke-linecap: square"/>
   </g>
   <g id="patch_3">
    <path d="M 44.845313 348.478125 
L 44.845313 22.318125 
" style="fill: none; stroke: #000000; stroke-width: 0.8; stroke-linejoin: miter; stroke-linecap: square"/>
   </g>
   <g id="patch_4">
    <path d="M 349.208949 348.478125 
L 349.208949 22.318125 
" style="fill: none; stroke: #000000; stroke-width: 0.8; stroke-linejoin: miter; stroke-linecap: square"/>
   </g>
   <g id="patch_5">
    <path d="M 44.845313 348.478125 
L 349.208949 348.478125 
" style="fill: none; stroke: #000000; stroke-width: 0.8; stroke-linejoin: miter; stroke-linecap: square"/>
   </g>
   <g id="patch_6">
    <path d="M 44.845313 22.318125 
L 349.208949 22.318125 
" style="fill: none; stroke: #000000; stroke-width: 0.8; stroke-linejoin: miter; stroke-linecap: square"/>
   </g>
   <g id="text_16">
    <!-- Extracted Methanol Spectrum -->
    <g transform="translate(107.307443 16.318125)scale(0.12 -0.12)">
     <defs>
      <path id="DejaVuSans-45" d="M 628 4666 
L 3578 4666 
L 3578 4134 
L 1259 4134 
L 1259 2753 
L 3481 2753 
L 3481 2222 
L 1259 2222 
L 1259 531 
L 3634 531 
L 3634 0 
L 628 0 
L 628 4666 
z
" transform="scale(0.015625)"/>
      <path id="DejaVuSans-78" d="M 3513 3500 
L 2247 1797 
L 3578 0 
L 2900 0 
L 1881 1375 
L 863 0 
L 184 0 
L 1544 1831 
L 300 3500 
L 978 3500 
L 1906 2253 
L 2834 3500 
L 3513 3500 
z
" transform="scale(0.015625)"/>
      <path id="DejaVuSans-74" d="M 1172 4494 
L 1172 3500 
L 2356 3500 
L 2356 3053 
L 1172 3053 
L 1172 1153 
Q 1172 725 1289 603 
Q 1406 481 1766 481 
L 2356 481 
L 2356 0 
L 1766 0 
Q 1100 0 847 248 
Q 594 497 594 1153 
L 594 3053 
L 172 3053 
L 172 3500 
L 594 3500 
L 594 4494 
L 1172 4494 
z
" transform="scale(0.015625)"/>
      <path id="DejaVuSans-64" d="M 2906 2969 
L 2906 4863 
L 3481 4863 
L 3481 0 
L 2906 0 
L 2906 525 
Q 2725 213 2448 61 
Q 2172 -91 1784 -91 
Q 1150 -91 751 415 
Q 353 922 353 1747 
Q 353 2572 751 3078 
Q 1150 3584 1784 3584 
Q 2172 3584 2448 3432 
Q 2725 3281 2906 2969 
z
M 947 1747 
Q 947 1113 1208 752 
Q 1469 391 1925 391 
Q 2381 391 2643 752 
Q 2906 1113 2906 1747 
Q 2906 2381 2643 2742 
Q 2381 3103 1925 3103 
Q 1469 3103 1208 2742 
Q 947 2381 947 1747 
z
" transform="scale(0.015625)"/>
      <path id="DejaVuSans-4d" d="M 628 4666 
L 1569 4666 
L 2759 1491 
L 3956 4666 
L 4897 4666 
L 4897 0 
L 4281 0 
L 4281 4097 
L 3078 897 
L 2444 897 
L 1241 4097 
L 1241 0 
L 628 0 
L 628 4666 
z
" transform="scale(0.015625)"/>
      <path id="DejaVuSans-68" d="M 3513 2113 
L 3513 0 
L 2938 0 
L 2938 2094 
Q 2938 2591 2744 2837 
Q 2550 3084 2163 3084 
Q 1697 3084 1428 2787 
Q 1159 2491 1159 1978 
L 1159 0 
L 581 0 
L 581 4863 
L 1159 4863 
L 1159 2956 
Q 1366 3272 1645 3428 
Q 1925 3584 2291 3584 
Q 2894 3584 3203 3211 
Q 3513 2838 3513 2113 
z
" transform="scale(0.015625)"/>
      <path id="DejaVuSans-6f" d="M 1959 3097 
Q 1497 3097 1228 2736 
Q 959 2375 959 1747 
Q 959 1119 1226 758 
Q 1494 397 1959 397 
Q 2419 397 2687 759 
Q 2956 1122 2956 1747 
Q 2956 2369 2687 2733 
Q 2419 3097 1959 3097 
z
M 1959 3584 
Q 2709 3584 3137 3096 
Q 3566 2609 3566 1747 
Q 3566 888 3137 398 
Q 2709 -91 1959 -91 
Q 1206 -91 779 398 
Q 353 888 353 1747 
Q 353 2609 779 3096 
Q 1206 3584 1959 3584 
z
" transform="scale(0.015625)"/>
      <path id="DejaVuSans-6c" d="M 603 4863 
L 1178 4863 
L 1178 0 
L 603 0 
L 603 4863 
z
" transform="scale(0.015625)"/>
      <path id="DejaVuSans-53" d="M 3425 4513 
L 3425 3897 
Q 3066 4069 2747 4153 
Q 2428 4238 2131 4238 
Q 1616 4238 1336 4038 
Q 1056 3838 1056 3469 
Q 1056 3159 1242 3001 
Q 1428 2844 1947 2747 
L 2328 2669 
Q 3034 2534 3370 2195 
Q 3706 1856 3706 1288 
Q 3706 609 3251 259 
Q 2797 -91 1919 -91 
Q 1588 -91 1214 -16 
Q 841 59 441 206 
L 441 856 
Q 825 641 1194 531 
Q 1563 422 1919 422 
Q 2459 422 2753 634 
Q 3047 847 3047 1241 
Q 3047 1584 2836 1778 
Q 2625 1972 2144 2069 
L 1759 2144 
Q 1053 2284 737 2584 
Q 422 2884 422 3419 
Q 422 4038 858 4394 
Q 1294 4750 2059 4750 
Q 2388 4750 2728 4690 
Q 3069 4631 3425 4513 
z
" transform="scale(0.015625)"/>
      <path id="DejaVuSans-70" d="M 1159 525 
L 1159 -1331 
L 581 -1331 
L 581 3500 
L 1159 3500 
L 1159 2969 
Q 1341 3281 1617 3432 
Q 1894 3584 2278 3584 
Q 2916 3584 3314 3078 
Q 3713 2572 3713 1747 
Q 3713 922 3314 415 
Q 2916 -91 2278 -91 
Q 1894 -91 1617 61 
Q 1341 213 1159 525 
z
M 3116 1747 
Q 3116 2381 2855 2742 
Q 2594 3103 2138 3103 
Q 1681 3103 1420 2742 
Q 1159 2381 1159 1747 
Q 1159 1113 1420 752 
Q 1681 391 2138 391 
Q 2594 391 2855 752 
Q 3116 1113 3116 1747 
z
" transform="scale(0.015625)"/>
     </defs>
     <use xlink:href="#DejaVuSans-45"/>
     <use xlink:href="#DejaVuSans-78" x="63.183594"/>
     <use xlink:href="#DejaVuSans-74" x="122.363281"/>
     <use xlink:href="#DejaVuSans-72" x="161.572266"/>
     <use xlink:href="#DejaVuSans-61" x="202.685547"/>
     <use xlink:href="#DejaVuSans-63" x="263.964844"/>
     <use xlink:href="#DejaVuSans-74" x="318.945312"/>
     <use xlink:href="#DejaVuSans-65" x="358.154297"/>
     <use xlink:href="#DejaVuSans-64" x="419.677734"/>
     <use xlink:href="#DejaVuSans-20" x="483.154297"/>
     <use xlink:href="#DejaVuSans-4d" x="514.941406"/>
     <use xlink:href="#DejaVuSans-65" x="601.220703"/>
     <use xlink:href="#DejaVuSans-74" x="662.744141"/>
     <use xlink:href="#DejaVuSans-68" x="701.953125"/>
     <use xlink:href="#DejaVuSans-61" x="765.332031"/>
     <use xlink:href="#DejaVuSans-6e" x="826.611328"/>
     <use xlink:href="#DejaVuSans-6f" x="889.990234"/>
     <use xlink:href="#DejaVuSans-6c" x="951.171875"/>
     <use xlink:href="#DejaVuSans-20" x="978.955078"/>
     <use xlink:href="#DejaVuSans-53" x="1010.742188"/>
     <use xlink:href="#DejaVuSans-70" x="1074.21875"/>
     <use xlink:href="#DejaVuSans-65" x="1137.695312"/>
     <use xlink:href="#DejaVuSans-63" x="1199.21875"/>
     <use xlink:href="#DejaVuSans-74" x="1254.199219"/>
     <use xlink:href="#DejaVuSans-72" x="1293.408203"/>
     <use xlink:href="#DejaVuSans-75" x="1334.521484"/>
     <use xlink:href="#DejaVuSans-6d" x="1397.900391"/>
    </g>
   </g>
  </g>
  <g id="axes_2">
   <g id="patch_7">
    <path d="M 410.081676 348.478125 
L 714.445312 348.478125 
L 714.445312 22.318125 
L 410.081676 22.318125 
z
" style="fill: #ffffff"/>
   </g>
   <g id="matplotlib.axis_3">
    <g id="xtick_9">
     <g id="line2d_16">
      <g>
       <use xlink:href="#m0ad8534da0" x="712.533366" y="348.478125" style="stroke: #000000; stroke-width: 0.8"/>
      </g>
     </g>
     <g id="text_17">
      <!-- 500 -->
      <g transform="translate(702.989616 363.076562)scale(0.1 -0.1)">
       <use xlink:href="#DejaVuSans-35"/>
       <use xlink:href="#DejaVuSans-30" x="63.623047"/>
       <use xlink:href="#DejaVuSans-30" x="127.246094"/>
      </g>
     </g>
    </g>
    <g id="xtick_10">
     <g id="line2d_17">
      <g>
       <use xlink:href="#m0ad8534da0" x="671.303806" y="348.478125" style="stroke: #000000; stroke-width: 0.8"/>
      </g>
     </g>
     <g id="text_18">
      <!-- 1000 -->
      <g transform="translate(658.578806 363.076562)scale(0.1 -0.1)">
       <use xlink:href="#DejaVuSans-31"/>
       <use xlink:href="#DejaVuSans-30" x="63.623047"/>
       <use xlink:href="#DejaVuSans-30" x="127.246094"/>
       <use xlink:href="#DejaVuSans-30" x="190.869141"/>
      </g>
     </g>
    </g>
    <g id="xtick_11">
     <g id="line2d_18">
      <g>
       <use xlink:href="#m0ad8534da0" x="630.074246" y="348.478125" style="stroke: #000000; stroke-width: 0.8"/>
      </g>
     </g>
     <g id="text_19">
      <!-- 1500 -->
      <g transform="translate(617.349246 363.076562)scale(0.1 -0.1)">
       <use xlink:href="#DejaVuSans-31"/>
       <use xlink:href="#DejaVuSans-35" x="63.623047"/>
       <use xlink:href="#DejaVuSans-30" x="127.246094"/>
       <use xlink:href="#DejaVuSans-30" x="190.869141"/>
      </g>
     </g>
    </g>
    <g id="xtick_12">
     <g id="line2d_19">
      <g>
       <use xlink:href="#m0ad8534da0" x="588.844686" y="348.478125" style="stroke: #000000; stroke-width: 0.8"/>
      </g>
     </g>
     <g id="text_20">
      <!-- 2000 -->
      <g transform="translate(576.119686 363.076562)scale(0.1 -0.1)">
       <use xlink:href="#DejaVuSans-32"/>
       <use xlink:href="#DejaVuSans-30" x="63.623047"/>
       <use xlink:href="#DejaVuSans-30" x="127.246094"/>
       <use xlink:href="#DejaVuSans-30" x="190.869141"/>
      </g>
     </g>
    </g>
    <g id="xtick_13">
     <g id="line2d_20">
      <g>
       <use xlink:href="#m0ad8534da0" x="547.615126" y="348.478125" style="stroke: #000000; stroke-width: 0.8"/>
      </g>
     </g>
     <g id="text_21">
      <!-- 2500 -->
      <g transform="translate(534.890126 363.076562)scale(0.1 -0.1)">
       <use xlink:href="#DejaVuSans-32"/>
       <use xlink:href="#DejaVuSans-35" x="63.623047"/>
       <use xlink:href="#DejaVuSans-30" x="127.246094"/>
       <use xlink:href="#DejaVuSans-30" x="190.869141"/>
      </g>
     </g>
    </g>
    <g id="xtick_14">
     <g id="line2d_21">
      <g>
       <use xlink:href="#m0ad8534da0" x="506.385567" y="348.478125" style="stroke: #000000; stroke-width: 0.8"/>
      </g>
     </g>
     <g id="text_22">
      <!-- 3000 -->
      <g transform="translate(493.660567 363.076562)scale(0.1 -0.1)">
       <use xlink:href="#DejaVuSans-33"/>
       <use xlink:href="#DejaVuSans-30" x="63.623047"/>
       <use xlink:href="#DejaVuSans-30" x="127.246094"/>
       <use xlink:href="#DejaVuSans-30" x="190.869141"/>
      </g>
     </g>
    </g>
    <g id="xtick_15">
     <g id="line2d_22">
      <g>
       <use xlink:href="#m0ad8534da0" x="465.156007" y="348.478125" style="stroke: #000000; stroke-width: 0.8"/>
      </g>
     </g>
     <g id="text_23">
      <!-- 3500 -->
      <g transform="translate(452.431007 363.076562)scale(0.1 -0.1)">
       <use xlink:href="#DejaVuSans-33"/>
       <use xlink:href="#DejaVuSans-35" x="63.623047"/>
       <use xlink:href="#DejaVuSans-30" x="127.246094"/>
       <use xlink:href="#DejaVuSans-30" x="190.869141"/>
      </g>
     </g>
    </g>
    <g id="xtick_16">
     <g id="line2d_23">
      <g>
       <use xlink:href="#m0ad8534da0" x="423.926447" y="348.478125" style="stroke: #000000; stroke-width: 0.8"/>
      </g>
     </g>
     <g id="text_24">
      <!-- 4000 -->
      <g transform="translate(411.201447 363.076562)scale(0.1 -0.1)">
       <use xlink:href="#DejaVuSans-34"/>
       <use xlink:href="#DejaVuSans-30" x="63.623047"/>
       <use xlink:href="#DejaVuSans-30" x="127.246094"/>
       <use xlink:href="#DejaVuSans-30" x="190.869141"/>
      </g>
     </g>
    </g>
    <g id="text_25">
     <!-- Wavenumbers, cm$^{-1}$ -->
     <g transform="translate(509.913494 377.276562)scale(0.1 -0.1)">
      <use xlink:href="#DejaVuSans-57" transform="translate(0 0.684375)"/>
      <use xlink:href="#DejaVuSans-61" transform="translate(98.876953 0.684375)"/>
      <use xlink:href="#DejaVuSans-76" transform="translate(160.15625 0.684375)"/>
      <use xlink:href="#DejaVuSans-65" transform="translate(219.335938 0.684375)"/>
      <use xlink:href="#DejaVuSans-6e" transform="translate(280.859375 0.684375)"/>
      <use xlink:href="#DejaVuSans-75" transform="translate(344.238281 0.684375)"/>
      <use xlink:href="#DejaVuSans-6d" transform="translate(407.617188 0.684375)"/>
      <use xlink:href="#DejaVuSans-62" transform="translate(505.029297 0.684375)"/>
      <use xlink:href="#DejaVuSans-65" transform="translate(568.505859 0.684375)"/>
      <use xlink:href="#DejaVuSans-72" transform="translate(630.029297 0.684375)"/>
      <use xlink:href="#DejaVuSans-73" transform="translate(671.142578 0.684375)"/>
      <use xlink:href="#DejaVuSans-2c" transform="translate(723.242188 0.684375)"/>
      <use xlink:href="#DejaVuSans-20" transform="translate(755.029297 0.684375)"/>
      <use xlink:href="#DejaVuSans-63" transform="translate(786.816406 0.684375)"/>
      <use xlink:href="#DejaVuSans-6d" transform="translate(841.796875 0.684375)"/>
      <use xlink:href="#DejaVuSans-2212" transform="translate(940.166016 38.965625)scale(0.7)"/>
      <use xlink:href="#DejaVuSans-31" transform="translate(998.818359 38.965625)scale(0.7)"/>
     </g>
    </g>
   </g>
   <g id="matplotlib.axis_4">
    <g id="ytick_7">
     <g id="line2d_24">
      <g>
       <use xlink:href="#m97e5bfefa5" x="410.081676" y="330.037359" style="stroke: #000000; stroke-width: 0.8"/>
      </g>
     </g>
     <g id="text_26">
      <!-- 30 -->
      <g transform="translate(390.356676 333.836578)scale(0.1 -0.1)">
       <use xlink:href="#DejaVuSans-33"/>
       <use xlink:href="#DejaVuSans-30" x="63.623047"/>
      </g>
     </g>
    </g>
    <g id="ytick_8">
     <g id="line2d_25">
      <g>
       <use xlink:href="#m97e5bfefa5" x="410.081676" y="287.972447" style="stroke: #000000; stroke-width: 0.8"/>
      </g>
     </g>
     <g id="text_27">
      <!-- 40 -->
      <g transform="translate(390.356676 291.771666)scale(0.1 -0.1)">
       <use xlink:href="#DejaVuSans-34"/>
       <use xlink:href="#DejaVuSans-30" x="63.623047"/>
      </g>
     </g>
    </g>
    <g id="ytick_9">
     <g id="line2d_26">
      <g>
       <use xlink:href="#m97e5bfefa5" x="410.081676" y="245.907534" style="stroke: #000000; stroke-width: 0.8"/>
      </g>
     </g>
     <g id="text_28">
      <!-- 50 -->
      <g transform="translate(390.356676 249.706753)scale(0.1 -0.1)">
       <use xlink:href="#DejaVuSans-35"/>
       <use xlink:href="#DejaVuSans-30" x="63.623047"/>
      </g>
     </g>
    </g>
    <g id="ytick_10">
     <g id="line2d_27">
      <g>
       <use xlink:href="#m97e5bfefa5" x="410.081676" y="203.842622" style="stroke: #000000; stroke-width: 0.8"/>
      </g>
     </g>
     <g id="text_29">
      <!-- 60 -->
      <g transform="translate(390.356676 207.64184)scale(0.1 -0.1)">
       <use xlink:href="#DejaVuSans-36"/>
       <use xlink:href="#DejaVuSans-30" x="63.623047"/>
      </g>
     </g>
    </g>
    <g id="ytick_11">
     <g id="line2d_28">
      <g>
       <use xlink:href="#m97e5bfefa5" x="410.081676" y="161.777709" style="stroke: #000000; stroke-width: 0.8"/>
      </g>
     </g>
     <g id="text_30">
      <!-- 70 -->
      <g transform="translate(390.356676 165.576928)scale(0.1 -0.1)">
       <defs>
        <path id="DejaVuSans-37" d="M 525 4666 
L 3525 4666 
L 3525 4397 
L 1831 0 
L 1172 0 
L 2766 4134 
L 525 4134 
L 525 4666 
z
" transform="scale(0.015625)"/>
       </defs>
       <use xlink:href="#DejaVuSans-37"/>
       <use xlink:href="#DejaVuSans-30" x="63.623047"/>
      </g>
     </g>
    </g>
    <g id="ytick_12">
     <g id="line2d_29">
      <g>
       <use xlink:href="#m97e5bfefa5" x="410.081676" y="119.712796" style="stroke: #000000; stroke-width: 0.8"/>
      </g>
     </g>
     <g id="text_31">
      <!-- 80 -->
      <g transform="translate(390.356676 123.512015)scale(0.1 -0.1)">
       <use xlink:href="#DejaVuSans-38"/>
       <use xlink:href="#DejaVuSans-30" x="63.623047"/>
      </g>
     </g>
    </g>
    <g id="ytick_13">
     <g id="line2d_30">
      <g>
       <use xlink:href="#m97e5bfefa5" x="410.081676" y="77.647884" style="stroke: #000000; stroke-width: 0.8"/>
      </g>
     </g>
     <g id="text_32">
      <!-- 90 -->
      <g transform="translate(390.356676 81.447103)scale(0.1 -0.1)">
       <defs>
        <path id="DejaVuSans-39" d="M 703 97 
L 703 672 
Q 941 559 1184 500 
Q 1428 441 1663 441 
Q 2288 441 2617 861 
Q 2947 1281 2994 2138 
Q 2813 1869 2534 1725 
Q 2256 1581 1919 1581 
Q 1219 1581 811 2004 
Q 403 2428 403 3163 
Q 403 3881 828 4315 
Q 1253 4750 1959 4750 
Q 2769 4750 3195 4129 
Q 3622 3509 3622 2328 
Q 3622 1225 3098 567 
Q 2575 -91 1691 -91 
Q 1453 -91 1209 -44 
Q 966 3 703 97 
z
M 1959 2075 
Q 2384 2075 2632 2365 
Q 2881 2656 2881 3163 
Q 2881 3666 2632 3958 
Q 2384 4250 1959 4250 
Q 1534 4250 1286 3958 
Q 1038 3666 1038 3163 
Q 1038 2656 1286 2365 
Q 1534 2075 1959 2075 
z
" transform="scale(0.015625)"/>
       </defs>
       <use xlink:href="#DejaVuSans-39"/>
       <use xlink:href="#DejaVuSans-30" x="63.623047"/>
      </g>
     </g>
    </g>
    <g id="ytick_14">
     <g id="line2d_31">
      <g>
       <use xlink:href="#m97e5bfefa5" x="410.081676" y="35.582971" style="stroke: #000000; stroke-width: 0.8"/>
      </g>
     </g>
     <g id="text_33">
      <!-- 100 -->
      <g transform="translate(383.994176 39.38219)scale(0.1 -0.1)">
       <use xlink:href="#DejaVuSans-31"/>
       <use xlink:href="#DejaVuSans-30" x="63.623047"/>
       <use xlink:href="#DejaVuSans-30" x="127.246094"/>
      </g>
     </g>
    </g>
    <g id="text_34">
     <!-- Transmittance, % -->
     <g transform="translate(377.914489 228.774687)rotate(-90)scale(0.1 -0.1)">
      <defs>
       <path id="DejaVuSans-54" d="M -19 4666 
L 3928 4666 
L 3928 4134 
L 2272 4134 
L 2272 0 
L 1638 0 
L 1638 4134 
L -19 4134 
L -19 4666 
z
" transform="scale(0.015625)"/>
       <path id="DejaVuSans-69" d="M 603 3500 
L 1178 3500 
L 1178 0 
L 603 0 
L 603 3500 
z
M 603 4863 
L 1178 4863 
L 1178 4134 
L 603 4134 
L 603 4863 
z
" transform="scale(0.015625)"/>
       <path id="DejaVuSans-25" d="M 4653 2053 
Q 4381 2053 4226 1822 
Q 4072 1591 4072 1178 
Q 4072 772 4226 539 
Q 4381 306 4653 306 
Q 4919 306 5073 539 
Q 5228 772 5228 1178 
Q 5228 1588 5073 1820 
Q 4919 2053 4653 2053 
z
M 4653 2450 
Q 5147 2450 5437 2106 
Q 5728 1763 5728 1178 
Q 5728 594 5436 251 
Q 5144 -91 4653 -91 
Q 4153 -91 3862 251 
Q 3572 594 3572 1178 
Q 3572 1766 3864 2108 
Q 4156 2450 4653 2450 
z
M 1428 4353 
Q 1159 4353 1004 4120 
Q 850 3888 850 3481 
Q 850 3069 1003 2837 
Q 1156 2606 1428 2606 
Q 1700 2606 1854 2837 
Q 2009 3069 2009 3481 
Q 2009 3884 1853 4118 
Q 1697 4353 1428 4353 
z
M 4250 4750 
L 4750 4750 
L 1831 -91 
L 1331 -91 
L 4250 4750 
z
M 1428 4750 
Q 1922 4750 2215 4408 
Q 2509 4066 2509 3481 
Q 2509 2891 2217 2550 
Q 1925 2209 1428 2209 
Q 931 2209 642 2551 
Q 353 2894 353 3481 
Q 353 4063 643 4406 
Q 934 4750 1428 4750 
z
" transform="scale(0.015625)"/>
      </defs>
      <use xlink:href="#DejaVuSans-54"/>
      <use xlink:href="#DejaVuSans-72" x="46.333984"/>
      <use xlink:href="#DejaVuSans-61" x="87.447266"/>
      <use xlink:href="#DejaVuSans-6e" x="148.726562"/>
      <use xlink:href="#DejaVuSans-73" x="212.105469"/>
      <use xlink:href="#DejaVuSans-6d" x="264.205078"/>
      <use xlink:href="#DejaVuSans-69" x="361.617188"/>
      <use xlink:href="#DejaVuSans-74" x="389.400391"/>
      <use xlink:href="#DejaVuSans-74" x="428.609375"/>
      <use xlink:href="#DejaVuSans-61" x="467.818359"/>
      <use xlink:href="#DejaVuSans-6e" x="529.097656"/>
      <use xlink:href="#DejaVuSans-63" x="592.476562"/>
      <use xlink:href="#DejaVuSans-65" x="647.457031"/>
      <use xlink:href="#DejaVuSans-2c" x="708.980469"/>
      <use xlink:href="#DejaVuSans-20" x="740.767578"/>
      <use xlink:href="#DejaVuSans-25" x="772.554688"/>
     </g>
    </g>
   </g>
   <g id="line2d_32">
    <path d="M 700.610602 148.200712 
L 700.531086 148.220398 
L 700.372072 148.920989 
L 700.173296 149.420552 
L 700.054027 149.335749 
L 699.934767 149.191425 
L 699.895013 149.232101 
L 699.576968 149.75337 
L 699.099909 149.96504 
L 698.980649 150.140241 
L 698.821626 151.310613 
L 698.702366 151.801679 
L 698.543343 150.558576 
L 698.304814 149.319849 
L 698.066284 149.013784 
L 697.072413 145.49068 
L 695.362953 136.277833 
L 694.766625 133.560061 
L 693.057165 124.620888 
L 691.864518 117.94994 
L 689.081671 103.696581 
L 688.405836 100.043159 
L 686.855398 92.334091 
L 684.032798 80.145236 
L 682.283584 74.666617 
L 681.13069 72.039748 
L 680.375348 71.127864 
L 679.65976 70.524149 
L 678.427359 70.14872 
L 677.910538 70.317147 
L 677.552748 70.661996 
L 676.916666 71.509183 
L 675.684265 74.703172 
L 675.167453 77.025534 
L 674.531371 80.744198 
L 673.895298 86.176124 
L 673.338724 93.113343 
L 672.861665 101.646043 
L 672.344852 115.586229 
L 671.907547 133.659124 
L 671.47025 161.148797 
L 670.993183 206.393943 
L 669.959557 309.498914 
L 669.562022 332.353327 
L 669.442786 333.65267 
L 669.363213 332.454409 
L 669.204232 324.961513 
L 668.886187 295.191838 
L 667.812817 161.158051 
L 667.295963 110.498015 
L 666.898428 91.395244 
L 666.500892 81.600892 
L 666.063611 75.90993 
L 665.665994 73.212265 
L 665.228713 71.650689 
L 664.910668 71.305925 
L 664.711942 71.317367 
L 664.473387 71.612621 
L 664.234833 72.297858 
L 663.718062 74.796135 
L 663.201208 78.119053 
L 662.167583 85.694229 
L 661.929029 86.302613 
L 661.770048 86.273883 
L 661.610984 85.922389 
L 661.372512 84.656529 
L 661.014722 81.208805 
L 659.503988 64.21845 
L 659.066708 62.021147 
L 658.510109 60.457511 
L 658.033083 59.638507 
L 657.317502 58.902581 
L 656.800649 58.638035 
L 656.283877 58.656712 
L 655.806769 59.181471 
L 655.488807 60.006743 
L 655.011698 61.709783 
L 654.534672 63.257225 
L 654.296118 63.514536 
L 654.137137 63.395618 
L 653.898582 63.230514 
L 653.779347 63.426452 
L 653.580538 64.496331 
L 653.421474 65.147328 
L 653.381729 65.078678 
L 653.222747 63.817656 
L 652.984193 62.427789 
L 652.864957 62.766958 
L 652.546913 63.740635 
L 652.387849 63.703155 
L 652.228868 63.336265 
L 651.910823 61.745033 
L 651.354224 59.219498 
L 650.916943 58.474444 
L 650.559153 58.443485 
L 650.201363 58.474571 
L 649.724337 58.534429 
L 649.088247 59.058516 
L 648.770202 59.234978 
L 648.531648 59.391544 
L 648.014877 59.855141 
L 646.623462 61.251822 
L 645.709072 62.369571 
L 644.198339 64.804793 
L 643.641822 66.492858 
L 642.767178 70.734642 
L 642.091344 74.30183 
L 641.654063 76.416181 
L 641.017973 80.455717 
L 640.699928 82.138061 
L 639.904857 86.220503 
L 639.427749 88.49327 
L 638.831487 92.171089 
L 638.235143 95.706014 
L 637.678544 98.029344 
L 637.281008 98.994902 
L 636.843728 99.694273 
L 636.764237 99.556973 
L 636.088402 97.755501 
L 635.810103 96.830578 
L 635.571548 96.324873 
L 635.332994 96.329543 
L 635.213758 96.233046 
L 635.174013 96.292399 
L 635.054777 96.871465 
L 634.816223 99.459256 
L 634.378942 104.660204 
L 634.299369 104.588946 
L 634.140388 103.567652 
L 633.583789 97.885313 
L 633.225999 93.973571 
L 632.112883 85.504558 
L 630.562404 70.100723 
L 629.648097 65.311255 
L 629.528779 64.841894 
L 629.012008 61.795385 
L 628.455409 60.574409 
L 628.296428 60.207939 
L 627.580847 57.762285 
L 627.302548 57.444022 
L 627.103739 56.994727 
L 626.944758 57.184103 
L 626.825439 57.262722 
L 626.706203 56.96057 
L 626.109859 54.995676 
L 625.911133 54.897959 
L 625.593088 54.74396 
L 625.473769 54.863845 
L 625.275043 55.235951 
L 625.235298 55.136005 
L 624.718444 52.943834 
L 624.479972 52.855413 
L 624.360654 52.702087 
L 624.042609 52.096815 
L 623.883628 52.148555 
L 623.724564 51.69459 
L 623.406519 50.917272 
L 623.008984 50.548616 
L 622.213913 49.812311 
L 621.895868 49.457746 
L 621.379097 49.275437 
L 621.061052 49.127032 
L 620.822498 49.054638 
L 620.464708 49.274722 
L 620.146663 48.991373 
L 619.908109 49.110374 
L 619.629809 49.063219 
L 619.391337 49.02738 
L 619.272019 49.04917 
L 619.113038 49.398098 
L 618.914229 49.853745 
L 618.874484 49.821481 
L 618.476948 49.100068 
L 618.437203 49.119965 
L 618.278139 49.361081 
L 617.960094 50.134234 
L 617.920349 50.101339 
L 617.761368 49.964418 
L 617.721623 50.010605 
L 617.483068 50.590638 
L 617.443323 50.524218 
L 617.006042 49.350523 
L 616.846979 49.446641 
L 616.608507 49.627352 
L 616.369953 49.584656 
L 616.091653 49.79048 
L 615.256837 48.761488 
L 615.097773 48.980099 
L 614.978538 49.205819 
L 614.938792 49.18832 
L 614.779729 48.57615 
L 614.501429 47.879008 
L 614.223212 47.60832 
L 613.785849 48.103761 
L 613.587122 48.574173 
L 613.547295 48.547798 
L 613.308823 48.237443 
L 613.269078 48.269917 
L 612.831714 48.964872 
L 612.553497 50.13966 
L 612.116134 52.135094 
L 611.758344 52.323166 
L 611.480045 52.609039 
L 611.241573 52.889065 
L 611.003019 53.322628 
L 610.486247 55.230735 
L 610.366929 55.190479 
L 610.168202 54.705302 
L 609.651349 53.620826 
L 609.452622 53.160047 
L 608.140698 47.949929 
L 607.663589 46.963002 
L 607.107072 45.391752 
L 606.550473 44.890674 
L 606.192683 44.703654 
L 605.954129 44.815757 
L 605.318039 44.012107 
L 605.079568 43.790929 
L 604.761523 43.469427 
L 604.363987 43.520284 
L 604.006115 43.135432 
L 603.449598 43.150155 
L 603.012318 43.373688 
L 602.853254 43.339699 
L 602.455718 43.056771 
L 602.058183 42.9604 
L 601.660648 43.277737 
L 601.183539 42.746668 
L 600.945067 42.752852 
L 600.467959 42.780993 
L 600.229405 42.694381 
L 600.030678 42.646974 
L 599.633143 42.966205 
L 599.593397 42.923299 
L 599.235525 42.637383 
L 598.162155 42.807578 
L 597.963428 42.84897 
L 597.605638 42.777964 
L 597.367084 42.753567 
L 596.969548 42.542275 
L 596.333459 42.724542 
L 596.015414 42.77809 
L 595.697369 42.817968 
L 595.458815 42.866511 
L 594.862553 42.839968 
L 594.623999 42.848717 
L 594.107145 42.757983 
L 593.749355 42.911562 
L 593.113265 42.751001 
L 592.437513 43.062744 
L 592.198958 42.92006 
L 591.960404 43.058958 
L 591.642359 42.966247 
L 591.36406 43.202231 
L 591.046015 43.66444 
L 590.489498 43.448605 
L 590.01239 43.535511 
L 589.773918 43.282154 
L 589.734173 43.311431 
L 589.455873 43.473339 
L 588.740293 43.647867 
L 588.501739 43.787817 
L 588.223439 43.737297 
L 587.94514 43.790088 
L 587.666923 43.743396 
L 587.22956 44.108814 
L 587.030833 44.436962 
L 586.673043 44.842973 
L 585.87789 45.481939 
L 585.758654 45.635518 
L 585.5201 46.006236 
L 585.2418 45.896489 
L 584.844265 46.075222 
L 584.327493 45.182942 
L 583.890213 44.598912 
L 583.691404 44.12463 
L 583.413104 43.591247 
L 582.578288 42.976595 
L 582.021689 43.009658 
L 581.82288 42.905715 
L 581.345854 43.02152 
L 580.630274 42.523808 
L 580.431465 42.519812 
L 579.954439 42.745785 
L 579.556903 42.787765 
L 579.358094 42.796389 
L 579.000304 42.633429 
L 578.523278 43.052396 
L 578.284724 43.189443 
L 577.926934 43.121971 
L 577.648634 43.138208 
L 577.41008 42.988373 
L 576.972799 43.501313 
L 576.773991 43.458196 
L 576.257219 43.885954 
L 575.97892 44.289272 
L 575.939174 44.264959 
L 575.501894 43.778058 
L 575.303085 43.829251 
L 575.104358 43.844899 
L 574.786313 44.101873 
L 574.110479 44.012864 
L 573.832179 44.291081 
L 573.792434 44.25032 
L 573.355153 43.46316 
L 573.27558 43.548341 
L 572.91779 43.857266 
L 572.758809 43.842038 
L 572.401018 43.690268 
L 572.162464 43.78626 
L 571.963738 43.74693 
L 571.645693 43.557343 
L 571.20833 44.135904 
L 571.049349 44.018753 
L 570.731304 43.770402 
L 570.333768 43.842669 
L 570.055469 43.707725 
L 569.657933 43.814864 
L 569.339889 43.650727 
L 568.544735 43.426773 
L 567.709919 43.097363 
L 567.272638 42.966079 
L 566.914848 42.662244 
L 566.596804 42.749024 
L 565.72216 42.278191 
L 565.44386 42.090119 
L 565.046325 42.191495 
L 564.807853 42.307594 
L 564.37049 42.23234 
L 564.171763 42.31668 
L 563.853718 42.455284 
L 563.615164 42.684244 
L 562.581539 44.556427 
L 562.064685 45.529556 
L 561.587659 46.02811 
L 561.150379 46.290847 
L 560.514289 46.497049 
L 560.355225 45.887613 
L 560.116754 44.738189 
L 560.076926 44.756698 
L 559.95769 45.286253 
L 559.480664 48.016939 
L 559.202364 48.28628 
L 558.924065 48.19765 
L 558.725338 47.916362 
L 558.287975 46.543321 
L 557.96993 45.117951 
L 557.453159 42.809513 
L 557.095369 42.13496 
L 556.856815 42.070643 
L 555.107609 42.664431 
L 553.914921 43.34399 
L 552.324779 44.048956 
L 551.966989 44.184573 
L 551.450135 44.315016 
L 551.0526 44.463758 
L 550.7743 44.612247 
L 550.33702 44.86594 
L 550.098465 44.940101 
L 549.78042 45.169228 
L 549.581694 45.331389 
L 549.184159 45.758053 
L 548.866114 46.202932 
L 548.62756 46.436981 
L 548.428751 46.544372 
L 547.593934 47.771869 
L 547.077081 48.157436 
L 546.600055 48.52807 
L 545.844729 48.683499 
L 545.606175 48.634241 
L 545.089404 48.653465 
L 544.453314 48.178889 
L 543.658161 47.650806 
L 543.340116 47.528607 
L 542.982326 47.394168 
L 542.465554 47.20395 
L 541.988446 47.086842 
L 541.789719 46.998463 
L 541.471675 47.067323 
L 541.272866 47.079396 
L 540.676604 47.325728 
L 540.318814 47.344321 
L 540.040514 47.271885 
L 539.603151 47.287617 
L 538.927399 46.964811 
L 538.132245 46.358109 
L 537.535901 45.808783 
L 537.257684 45.586975 
L 536.820321 45.277209 
L 535.945759 44.763218 
L 535.071115 44.490553 
L 534.792816 44.50313 
L 534.435026 44.520461 
L 533.838764 44.444113 
L 533.401401 44.470404 
L 533.04361 44.497746 
L 532.447266 44.707734 
L 531.294405 45.262234 
L 530.061971 46.219884 
L 528.670556 48.085967 
L 528.153785 49.052072 
L 526.76237 52.725811 
L 525.808235 56.728793 
L 524.575801 63.249317 
L 523.104895 73.751874 
L 522.42906 80.324264 
L 521.792971 88.952366 
L 521.276199 99.223693 
L 520.401555 118.172632 
L 520.322065 118.36428 
L 520.28232 118.253523 
L 520.163084 117.072382 
L 519.924529 111.39547 
L 518.970395 84.523941 
L 518.612605 80.875483 
L 518.215069 78.962034 
L 517.976515 78.644864 
L 517.698216 78.683564 
L 517.419916 78.992909 
L 516.982635 80.00924 
L 516.386291 82.261269 
L 515.829775 85.221167 
L 514.955131 91.823465 
L 514.358786 98.079737 
L 513.484225 106.979916 
L 513.205925 107.978158 
L 512.649326 109.34388 
L 512.371109 110.661605 
L 512.013319 113.306352 
L 511.138675 120.872779 
L 511.059185 120.798492 
L 510.900121 119.990846 
L 510.621904 116.716723 
L 509.190661 96.68192 
L 508.832871 95.329155 
L 508.196781 92.528473 
L 507.68001 90.040544 
L 507.163156 85.76902 
L 506.05004 74.880307 
L 505.453696 71.274587 
L 504.97667 69.576847 
L 504.579135 68.539947 
L 503.744236 67.350646 
L 503.466019 67.018585 
L 502.949165 66.455673 
L 502.670866 66.321486 
L 502.392566 66.259187 
L 502.114267 66.221581 
L 500.84217 66.84675 
L 500.643361 67.175151 
L 500.245825 67.920373 
L 499.888035 68.323523 
L 499.569991 68.920214 
L 499.371182 69.151865 
L 498.059339 72.400623 
L 497.14495 75.079695 
L 495.912516 79.559103 
L 494.481356 85.886507 
L 493.527221 90.793169 
L 492.533342 96.208522 
L 491.619035 101.643561 
L 490.466091 108.981743 
L 489.551785 114.669887 
L 487.325471 128.401136 
L 484.900431 140.508427 
L 483.74757 144.297046 
L 482.912671 146.364662 
L 482.47539 147.165831 
L 481.561001 148.162685 
L 481.362275 148.117255 
L 480.805676 148.597426 
L 479.970777 148.520279 
L 479.772051 148.165125 
L 479.493751 147.720751 
L 479.096216 147.568939 
L 478.221572 145.56505 
L 477.307265 142.865661 
L 476.353131 138.944117 
L 474.325626 128.073703 
L 472.894465 119.209195 
L 471.821095 112.439647 
L 471.463305 110.489223 
L 471.14526 108.560084 
L 469.952571 101.526747 
L 469.475545 98.605254 
L 467.44804 86.47916 
L 466.970932 83.714822 
L 465.897562 77.800033 
L 461.763061 57.852052 
L 461.365526 56.248832 
L 460.530627 53.296548 
L 458.423632 46.834284 
L 458.224905 46.725714 
L 458.026097 46.616261 
L 457.82737 46.088683 
L 457.54907 45.539189 
L 457.390007 45.313721 
L 456.674427 43.645006 
L 455.998592 42.828652 
L 455.680547 42.373552 
L 455.402247 42.359418 
L 455.004712 41.469157 
L 454.925221 41.515891 
L 454.567431 41.72651 
L 454.368622 41.045311 
L 454.010832 40.200395 
L 453.812106 40.073148 
L 453.613297 40.001974 
L 453.255507 39.795394 
L 453.05678 40.143523 
L 452.857971 40.369916 
L 452.738735 40.065535 
L 452.42069 39.165345 
L 452.142391 39.023418 
L 451.585792 38.500594 
L 451.387065 38.898317 
L 451.188256 39.177082 
L 450.949702 39.028845 
L 450.750976 39.237066 
L 450.71123 39.191762 
L 450.154631 38.137658 
L 449.916077 38.026228 
L 449.637778 38.418693 
L 449.439051 38.5822 
L 449.28007 38.270709 
L 449.041516 37.963214 
L 448.64398 37.877107 
L 448.365681 37.987991 
L 448.047636 38.092438 
L 447.769336 38.207527 
L 447.212737 37.738546 
L 445.980386 38.763205 
L 445.781577 38.904964 
L 445.58285 38.603442 
L 445.304551 38.208705 
L 445.145487 38.546024 
L 445.026251 38.681978 
L 444.708207 38.200839 
L 444.628716 38.32228 
L 444.469652 38.475986 
L 444.310671 38.212785 
L 444.072117 37.864698 
L 443.754072 37.85435 
L 443.436027 37.578657 
L 442.919256 37.744056 
L 442.402402 37.271331 
L 441.726567 37.321178 
L 441.567586 37.425961 
L 441.170051 37.201419 
L 440.613452 37.498734 
L 440.454388 37.64554 
L 440.255661 37.91993 
L 440.215916 37.889475 
L 439.897871 37.612772 
L 439.738808 37.48502 
L 439.540081 37.30574 
L 439.222036 37.585808 
L 438.824501 38.034346 
L 438.665437 37.900874 
L 438.347393 37.414183 
L 438.029348 37.574366 
L 437.870366 37.681464 
L 437.552322 37.975035 
L 436.677678 37.54429 
L 436.518697 37.70645 
L 436.041671 38.375703 
L 435.922352 38.170384 
L 435.644053 37.540462 
L 435.524817 37.697659 
L 435.246517 38.189776 
L 434.809237 38.147459 
L 434.650255 38.18721 
L 434.252638 37.898098 
L 433.97442 37.824821 
L 433.497312 37.736232 
L 433.298503 37.678477 
L 433.099777 37.518757 
L 432.861222 37.722309 
L 432.821477 37.669223 
L 432.582923 37.299388 
L 432.543178 37.32509 
L 432.344451 37.765551 
L 432.026406 38.334605 
L 431.907088 38.276051 
L 431.628871 37.523426 
L 431.390317 37.153212 
L 431.151762 37.209453 
L 430.953036 37.507525 
L 430.714482 37.743005 
L 429.959156 37.649578 
L 429.680857 37.708974 
L 429.482048 37.727314 
L 429.164003 37.967421 
L 428.845958 37.884301 
L 428.686977 37.8024 
L 428.488168 37.672335 
L 428.209951 37.923379 
L 428.170123 37.877192 
L 427.931651 37.678225 
L 427.613606 37.81523 
L 427.255816 37.807238 
L 427.057007 37.839291 
L 426.858281 37.781746 
L 426.381172 38.071027 
L 425.983637 37.970281 
L 425.784828 38.148847 
L 425.466783 38.095845 
L 425.268057 38.059922 
L 424.711458 37.794829 
L 424.274177 37.842362 
L 424.035623 37.719953 
L 423.916387 37.677047 
L 423.916387 37.677047 
" clip-path="url(#pcd1bc8fb80)" style="fill: none; stroke: #1f77b4; stroke-width: 1.5; stroke-linecap: square"/>
   </g>
   <g id="patch_8">
    <path d="M 410.081676 348.478125 
L 410.081676 22.318125 
" style="fill: none; stroke: #000000; stroke-width: 0.8; stroke-linejoin: miter; stroke-linecap: square"/>
   </g>
   <g id="patch_9">
    <path d="M 714.445312 348.478125 
L 714.445312 22.318125 
" style="fill: none; stroke: #000000; stroke-width: 0.8; stroke-linejoin: miter; stroke-linecap: square"/>
   </g>
   <g id="patch_10">
    <path d="M 410.081676 348.478125 
L 714.445312 348.478125 
" style="fill: none; stroke: #000000; stroke-width: 0.8; stroke-linejoin: miter; stroke-linecap: square"/>
   </g>
   <g id="patch_11">
    <path d="M 410.081676 22.318125 
L 714.445312 22.318125 
" style="fill: none; stroke: #000000; stroke-width: 0.8; stroke-linejoin: miter; stroke-linecap: square"/>
   </g>
   <g id="text_35">
    <!-- Pure Methanol Spectrum -->
    <g transform="translate(488.195369 16.318125)scale(0.12 -0.12)">
     <defs>
      <path id="DejaVuSans-50" d="M 1259 4147 
L 1259 2394 
L 2053 2394 
Q 2494 2394 2734 2622 
Q 2975 2850 2975 3272 
Q 2975 3691 2734 3919 
Q 2494 4147 2053 4147 
L 1259 4147 
z
M 628 4666 
L 2053 4666 
Q 2838 4666 3239 4311 
Q 3641 3956 3641 3272 
Q 3641 2581 3239 2228 
Q 2838 1875 2053 1875 
L 1259 1875 
L 1259 0 
L 628 0 
L 628 4666 
z
" transform="scale(0.015625)"/>
     </defs>
     <use xlink:href="#DejaVuSans-50"/>
     <use xlink:href="#DejaVuSans-75" x="58.552734"/>
     <use xlink:href="#DejaVuSans-72" x="121.931641"/>
     <use xlink:href="#DejaVuSans-65" x="160.794922"/>
     <use xlink:href="#DejaVuSans-20" x="222.318359"/>
     <use xlink:href="#DejaVuSans-4d" x="254.105469"/>
     <use xlink:href="#DejaVuSans-65" x="340.384766"/>
     <use xlink:href="#DejaVuSans-74" x="401.908203"/>
     <use xlink:href="#DejaVuSans-68" x="441.117188"/>
     <use xlink:href="#DejaVuSans-61" x="504.496094"/>
     <use xlink:href="#DejaVuSans-6e" x="565.775391"/>
     <use xlink:href="#DejaVuSans-6f" x="629.154297"/>
     <use xlink:href="#DejaVuSans-6c" x="690.335938"/>
     <use xlink:href="#DejaVuSans-20" x="718.119141"/>
     <use xlink:href="#DejaVuSans-53" x="749.90625"/>
     <use xlink:href="#DejaVuSans-70" x="813.382812"/>
     <use xlink:href="#DejaVuSans-65" x="876.859375"/>
     <use xlink:href="#DejaVuSans-63" x="938.382812"/>
     <use xlink:href="#DejaVuSans-74" x="993.363281"/>
     <use xlink:href="#DejaVuSans-72" x="1032.572266"/>
     <use xlink:href="#DejaVuSans-75" x="1073.685547"/>
     <use xlink:href="#DejaVuSans-6d" x="1137.064453"/>
    </g>
   </g>
  </g>
 </g>
 <defs>
  <clipPath id="pf675802243">
   <rect x="44.845313" y="22.318125" width="304.363636" height="326.16"/>
  </clipPath>
  <clipPath id="pcd1bc8fb80">
   <rect x="410.081676" y="22.318125" width="304.363636" height="326.16"/>
  </clipPath>
 </defs>
</svg>
