<?xml version="1.0" encoding="utf-8" standalone="no"?>
<!DOCTYPE svg PUBLIC "-//W3C//DTD SVG 1.1//EN"
  "http://www.w3.org/Graphics/SVG/1.1/DTD/svg11.dtd">
<svg xmlns:xlink="http://www.w3.org/1999/xlink" width="380.482813pt" height="248.518125pt" viewBox="0 0 380.482813 248.518125" xmlns="http://www.w3.org/2000/svg" version="1.1">
 <metadata>
  <rdf:RDF xmlns:dc="http://purl.org/dc/elements/1.1/" xmlns:cc="http://creativecommons.org/ns#" xmlns:rdf="http://www.w3.org/1999/02/22-rdf-syntax-ns#">
   <cc:Work>
    <dc:type rdf:resource="http://purl.org/dc/dcmitype/StillImage"/>
    <dc:date>2022-06-02T14:36:51.423870</dc:date>
    <dc:format>image/svg+xml</dc:format>
    <dc:creator>
     <cc:Agent>
      <dc:title>Matplotlib v3.5.2, https://matplotlib.org/</dc:title>
     </cc:Agent>
    </dc:creator>
   </cc:Work>
  </rdf:RDF>
 </metadata>
 <defs>
  <style type="text/css">*{stroke-linejoin: round; stroke-linecap: butt}</style>
 </defs>
 <g id="figure_1">
  <g id="patch_1">
   <path d="M -0 248.518125 
L 380.482813 248.518125 
L 380.482813 0 
L -0 0 
L -0 248.518125 
z
" style="fill: none"/>
  </g>
  <g id="axes_1">
   <g id="patch_2">
    <path d="M 38.482813 224.64 
L 373.282813 224.64 
L 373.282813 7.2 
L 38.482813 7.2 
z
" style="fill: #ffffff"/>
   </g>
   <g id="matplotlib.axis_1">
    <g id="xtick_1">
     <g id="line2d_1">
      <defs>
       <path id="m0e2fef2151" d="M 0 0 
L 0 3.5 
" style="stroke: #000000; stroke-width: 0.8"/>
      </defs>
      <g>
       <use xlink:href="#m0e2fef2151" x="53.089208" y="224.64" style="stroke: #000000; stroke-width: 0.8"/>
      </g>
     </g>
     <g id="text_1">
      <!-- 0 -->
      <g transform="translate(49.907958 239.238437)scale(0.1 -0.1)">
       <defs>
        <path id="DejaVuSans-30" d="M 2034 4250 
Q 1547 4250 1301 3770 
Q 1056 3291 1056 2328 
Q 1056 1369 1301 889 
Q 1547 409 2034 409 
Q 2525 409 2770 889 
Q 3016 1369 3016 2328 
Q 3016 3291 2770 3770 
Q 2525 4250 2034 4250 
z
M 2034 4750 
Q 2819 4750 3233 4129 
Q 3647 3509 3647 2328 
Q 3647 1150 3233 529 
Q 2819 -91 2034 -91 
Q 1250 -91 836 529 
Q 422 1150 422 2328 
Q 422 3509 836 4129 
Q 1250 4750 2034 4750 
z
" transform="scale(0.015625)"/>
       </defs>
       <use xlink:href="#DejaVuSans-30"/>
      </g>
     </g>
    </g>
    <g id="xtick_2">
     <g id="line2d_2">
      <g>
       <use xlink:href="#m0e2fef2151" x="101.724923" y="224.64" style="stroke: #000000; stroke-width: 0.8"/>
      </g>
     </g>
     <g id="text_2">
      <!-- 5 -->
      <g transform="translate(98.543673 239.238437)scale(0.1 -0.1)">
       <defs>
        <path id="DejaVuSans-35" d="M 691 4666 
L 3169 4666 
L 3169 4134 
L 1269 4134 
L 1269 2991 
Q 1406 3038 1543 3061 
Q 1681 3084 1819 3084 
Q 2600 3084 3056 2656 
Q 3513 2228 3513 1497 
Q 3513 744 3044 326 
Q 2575 -91 1722 -91 
Q 1428 -91 1123 -41 
Q 819 9 494 109 
L 494 744 
Q 775 591 1075 516 
Q 1375 441 1709 441 
Q 2250 441 2565 725 
Q 2881 1009 2881 1497 
Q 2881 1984 2565 2268 
Q 2250 2553 1709 2553 
Q 1456 2553 1204 2497 
Q 953 2441 691 2322 
L 691 4666 
z
" transform="scale(0.015625)"/>
       </defs>
       <use xlink:href="#DejaVuSans-35"/>
      </g>
     </g>
    </g>
    <g id="xtick_3">
     <g id="line2d_3">
      <g>
       <use xlink:href="#m0e2fef2151" x="150.360638" y="224.64" style="stroke: #000000; stroke-width: 0.8"/>
      </g>
     </g>
     <g id="text_3">
      <!-- 10 -->
      <g transform="translate(143.998138 239.238437)scale(0.1 -0.1)">
       <defs>
        <path id="DejaVuSans-31" d="M 794 531 
L 1825 531 
L 1825 4091 
L 703 3866 
L 703 4441 
L 1819 4666 
L 2450 4666 
L 2450 531 
L 3481 531 
L 3481 0 
L 794 0 
L 794 531 
z
" transform="scale(0.015625)"/>
       </defs>
       <use xlink:href="#DejaVuSans-31"/>
       <use xlink:href="#DejaVuSans-30" x="63.623047"/>
      </g>
     </g>
    </g>
    <g id="xtick_4">
     <g id="line2d_4">
      <g>
       <use xlink:href="#m0e2fef2151" x="198.996353" y="224.64" style="stroke: #000000; stroke-width: 0.8"/>
      </g>
     </g>
     <g id="text_4">
      <!-- 15 -->
      <g transform="translate(192.633853 239.238437)scale(0.1 -0.1)">
       <use xlink:href="#DejaVuSans-31"/>
       <use xlink:href="#DejaVuSans-35" x="63.623047"/>
      </g>
     </g>
    </g>
    <g id="xtick_5">
     <g id="line2d_5">
      <g>
       <use xlink:href="#m0e2fef2151" x="247.632067" y="224.64" style="stroke: #000000; stroke-width: 0.8"/>
      </g>
     </g>
     <g id="text_5">
      <!-- 20 -->
      <g transform="translate(241.269567 239.238437)scale(0.1 -0.1)">
       <defs>
        <path id="DejaVuSans-32" d="M 1228 531 
L 3431 531 
L 3431 0 
L 469 0 
L 469 531 
Q 828 903 1448 1529 
Q 2069 2156 2228 2338 
Q 2531 2678 2651 2914 
Q 2772 3150 2772 3378 
Q 2772 3750 2511 3984 
Q 2250 4219 1831 4219 
Q 1534 4219 1204 4116 
Q 875 4013 500 3803 
L 500 4441 
Q 881 4594 1212 4672 
Q 1544 4750 1819 4750 
Q 2544 4750 2975 4387 
Q 3406 4025 3406 3419 
Q 3406 3131 3298 2873 
Q 3191 2616 2906 2266 
Q 2828 2175 2409 1742 
Q 1991 1309 1228 531 
z
" transform="scale(0.015625)"/>
       </defs>
       <use xlink:href="#DejaVuSans-32"/>
       <use xlink:href="#DejaVuSans-30" x="63.623047"/>
      </g>
     </g>
    </g>
    <g id="xtick_6">
     <g id="line2d_6">
      <g>
       <use xlink:href="#m0e2fef2151" x="296.267782" y="224.64" style="stroke: #000000; stroke-width: 0.8"/>
      </g>
     </g>
     <g id="text_6">
      <!-- 25 -->
      <g transform="translate(289.905282 239.238437)scale(0.1 -0.1)">
       <use xlink:href="#DejaVuSans-32"/>
       <use xlink:href="#DejaVuSans-35" x="63.623047"/>
      </g>
     </g>
    </g>
    <g id="xtick_7">
     <g id="line2d_7">
      <g>
       <use xlink:href="#m0e2fef2151" x="344.903497" y="224.64" style="stroke: #000000; stroke-width: 0.8"/>
      </g>
     </g>
     <g id="text_7">
      <!-- 30 -->
      <g transform="translate(338.540997 239.238437)scale(0.1 -0.1)">
       <defs>
        <path id="DejaVuSans-33" d="M 2597 2516 
Q 3050 2419 3304 2112 
Q 3559 1806 3559 1356 
Q 3559 666 3084 287 
Q 2609 -91 1734 -91 
Q 1441 -91 1130 -33 
Q 819 25 488 141 
L 488 750 
Q 750 597 1062 519 
Q 1375 441 1716 441 
Q 2309 441 2620 675 
Q 2931 909 2931 1356 
Q 2931 1769 2642 2001 
Q 2353 2234 1838 2234 
L 1294 2234 
L 1294 2753 
L 1863 2753 
Q 2328 2753 2575 2939 
Q 2822 3125 2822 3475 
Q 2822 3834 2567 4026 
Q 2313 4219 1838 4219 
Q 1578 4219 1281 4162 
Q 984 4106 628 3988 
L 628 4550 
Q 988 4650 1302 4700 
Q 1616 4750 1894 4750 
Q 2613 4750 3031 4423 
Q 3450 4097 3450 3541 
Q 3450 3153 3228 2886 
Q 3006 2619 2597 2516 
z
" transform="scale(0.015625)"/>
       </defs>
       <use xlink:href="#DejaVuSans-33"/>
       <use xlink:href="#DejaVuSans-30" x="63.623047"/>
      </g>
     </g>
    </g>
   </g>
   <g id="matplotlib.axis_2">
    <g id="ytick_1">
     <g id="line2d_8">
      <defs>
       <path id="m8011ce5b6e" d="M 0 0 
L -3.5 0 
" style="stroke: #000000; stroke-width: 0.8"/>
      </defs>
      <g>
       <use xlink:href="#m8011ce5b6e" x="38.482813" y="198.576913" style="stroke: #000000; stroke-width: 0.8"/>
      </g>
     </g>
     <g id="text_8">
      <!-- −1.0 -->
      <g transform="translate(7.2 202.376132)scale(0.1 -0.1)">
       <defs>
        <path id="DejaVuSans-2212" d="M 678 2272 
L 4684 2272 
L 4684 1741 
L 678 1741 
L 678 2272 
z
" transform="scale(0.015625)"/>
        <path id="DejaVuSans-2e" d="M 684 794 
L 1344 794 
L 1344 0 
L 684 0 
L 684 794 
z
" transform="scale(0.015625)"/>
       </defs>
       <use xlink:href="#DejaVuSans-2212"/>
       <use xlink:href="#DejaVuSans-31" x="83.789062"/>
       <use xlink:href="#DejaVuSans-2e" x="147.412109"/>
       <use xlink:href="#DejaVuSans-30" x="179.199219"/>
      </g>
     </g>
    </g>
    <g id="ytick_2">
     <g id="line2d_9">
      <g>
       <use xlink:href="#m8011ce5b6e" x="38.482813" y="157.660246" style="stroke: #000000; stroke-width: 0.8"/>
      </g>
     </g>
     <g id="text_9">
      <!-- −0.5 -->
      <g transform="translate(7.2 161.459465)scale(0.1 -0.1)">
       <use xlink:href="#DejaVuSans-2212"/>
       <use xlink:href="#DejaVuSans-30" x="83.789062"/>
       <use xlink:href="#DejaVuSans-2e" x="147.412109"/>
       <use xlink:href="#DejaVuSans-35" x="179.199219"/>
      </g>
     </g>
    </g>
    <g id="ytick_3">
     <g id="line2d_10">
      <g>
       <use xlink:href="#m8011ce5b6e" x="38.482813" y="116.743579" style="stroke: #000000; stroke-width: 0.8"/>
      </g>
     </g>
     <g id="text_10">
      <!-- 0.0 -->
      <g transform="translate(15.579688 120.542798)scale(0.1 -0.1)">
       <use xlink:href="#DejaVuSans-30"/>
       <use xlink:href="#DejaVuSans-2e" x="63.623047"/>
       <use xlink:href="#DejaVuSans-30" x="95.410156"/>
      </g>
     </g>
    </g>
    <g id="ytick_4">
     <g id="line2d_11">
      <g>
       <use xlink:href="#m8011ce5b6e" x="38.482813" y="75.826912" style="stroke: #000000; stroke-width: 0.8"/>
      </g>
     </g>
     <g id="text_11">
      <!-- 0.5 -->
      <g transform="translate(15.579688 79.62613)scale(0.1 -0.1)">
       <use xlink:href="#DejaVuSans-30"/>
       <use xlink:href="#DejaVuSans-2e" x="63.623047"/>
       <use xlink:href="#DejaVuSans-35" x="95.410156"/>
      </g>
     </g>
    </g>
    <g id="ytick_5">
     <g id="line2d_12">
      <g>
       <use xlink:href="#m8011ce5b6e" x="38.482813" y="34.910244" style="stroke: #000000; stroke-width: 0.8"/>
      </g>
     </g>
     <g id="text_12">
      <!-- 1.0 -->
      <g transform="translate(15.579688 38.709463)scale(0.1 -0.1)">
       <use xlink:href="#DejaVuSans-31"/>
       <use xlink:href="#DejaVuSans-2e" x="63.623047"/>
       <use xlink:href="#DejaVuSans-30" x="95.410156"/>
      </g>
     </g>
    </g>
   </g>
   <g id="line2d_13">
    <path d="M 53.700994 117.832379 
L 54.006887 117.390524 
L 54.618674 110.130314 
L 54.924567 102.351811 
L 55.23046 101.740376 
L 55.536353 98.160251 
L 55.842246 103.317806 
L 56.148139 101.127714 
L 56.454032 100.902824 
L 56.759925 94.096184 
L 57.065818 90.708971 
L 57.677605 79.104983 
L 58.289391 66.29197 
L 58.595284 67.715242 
L 58.901177 64.290552 
L 59.20707 66.670805 
L 59.512963 62.127321 
L 59.818856 61.03881 
L 60.124749 55.949358 
L 60.430643 53.534059 
L 60.736536 56.211251 
L 61.042429 52.693854 
L 61.348322 51.056436 
L 61.654215 44.809012 
L 61.960108 45.69579 
L 62.266001 44.02166 
L 62.571894 41.279983 
L 62.877787 36.582667 
L 63.18368 35.396402 
L 63.489574 36.518008 
L 63.795467 42.162519 
L 64.10136 45.058614 
L 64.407253 51.423193 
L 64.713146 50.286193 
L 65.019039 47.761893 
L 65.630825 30.238453 
L 65.936718 23.22836 
L 66.242611 21.852186 
L 66.548505 26.170699 
L 66.854398 34.201547 
L 67.160291 37.306753 
L 67.772077 23.994963 
L 68.07797 22.488409 
L 68.689756 27.686493 
L 68.995649 24.031012 
L 69.301543 23.456493 
L 69.607436 24.732465 
L 70.219222 36.524344 
L 70.525115 41.012954 
L 70.831008 42.503947 
L 71.136901 42.723586 
L 71.442794 41.163191 
L 72.05458 43.712368 
L 72.360474 43.897288 
L 72.666367 42.131899 
L 72.97226 34.132093 
L 73.584046 25.702093 
L 74.195832 32.562912 
L 75.113511 51.290449 
L 75.419405 55.745032 
L 75.725298 55.636082 
L 76.031191 54.278131 
L 76.337084 49.746747 
L 76.642977 48.768941 
L 76.94887 51.901519 
L 77.560656 68.221924 
L 77.866549 71.484058 
L 78.172442 70.359404 
L 79.090122 80.280306 
L 79.396015 77.765156 
L 79.701908 80.031223 
L 80.007801 83.473304 
L 80.619587 102.883291 
L 80.92548 111.376618 
L 81.231373 115.576531 
L 81.537267 114.983487 
L 82.454946 100.406802 
L 82.760839 104.018661 
L 83.372625 118.592802 
L 83.678518 122.35636 
L 83.984411 119.987072 
L 84.596198 111.184752 
L 84.902091 113.436492 
L 85.513877 124.573418 
L 85.81977 126.484672 
L 86.431556 131.716873 
L 86.737449 140.787011 
L 87.349236 148.861967 
L 87.655129 146.737516 
L 87.961022 149.044357 
L 88.572808 160.305817 
L 88.878701 166.151647 
L 89.184594 163.412542 
L 89.490487 166.744253 
L 89.79638 165.797463 
L 90.102273 173.181016 
L 90.408167 173.206383 
L 90.71406 176.970688 
L 91.019953 176.336507 
L 91.325846 183.465187 
L 91.631739 183.264396 
L 91.937632 186.3878 
L 92.243525 185.093123 
L 92.549418 189.022912 
L 92.855311 185.751912 
L 93.161204 178.192078 
L 93.467098 174.112422 
L 93.772991 176.61952 
L 94.078884 184.087835 
L 94.69067 187.110336 
L 94.996563 187.239879 
L 95.608349 193.206606 
L 96.220135 204.661756 
L 96.526029 208.76616 
L 96.831922 207.185093 
L 97.137815 201.51518 
L 97.749601 185.399627 
L 98.055494 183.7621 
L 98.66728 191.539872 
L 99.279066 203.762438 
L 99.58496 208.320259 
L 99.890853 206.205674 
L 100.808532 182.273319 
L 101.114425 185.459935 
L 101.420318 193.028797 
L 101.726211 203.605763 
L 102.032104 206.112267 
L 102.949784 197.140425 
L 103.255677 197.658073 
L 103.56157 190.653799 
L 103.867463 191.980299 
L 104.173356 187.084481 
L 104.479249 188.125004 
L 104.785142 183.493665 
L 105.091035 184.407676 
L 105.396929 184.442169 
L 105.702822 181.12225 
L 106.008715 173.564337 
L 106.314608 162.698415 
L 106.620501 159.10073 
L 106.926394 157.62445 
L 107.232287 162.289946 
L 107.844073 159.173965 
L 108.149966 152.856843 
L 108.45586 153.340499 
L 109.067646 164.078727 
L 109.373539 165.174732 
L 109.985325 154.092642 
L 110.291218 152.45416 
L 110.597111 153.921582 
L 110.903004 148.978428 
L 111.514791 127.467326 
L 111.820684 128.03573 
L 112.126577 135.085105 
L 112.43247 139.142097 
L 112.738363 137.643859 
L 113.044256 139.171101 
L 113.656042 133.535473 
L 114.267828 121.574914 
L 114.573722 117.423233 
L 114.879615 107.44311 
L 115.185508 102.678641 
L 115.491401 102.179292 
L 115.797294 107.464214 
L 116.103187 107.061175 
L 116.714973 93.451698 
L 117.020866 89.57933 
L 117.32676 90.083307 
L 118.244439 81.450972 
L 118.550332 81.45853 
L 118.856225 79.491364 
L 119.773904 53.657637 
L 120.079797 54.686318 
L 120.385691 62.643558 
L 120.997477 72.625367 
L 121.30337 72.102708 
L 121.609263 75.186064 
L 121.915156 72.686842 
L 122.221049 68.862836 
L 122.526942 62.518573 
L 123.138728 57.074182 
L 123.750515 44.038493 
L 124.056408 38.712666 
L 124.362301 43.623378 
L 124.668194 41.691432 
L 124.974087 45.226854 
L 125.27998 41.857955 
L 125.585873 49.880139 
L 125.891766 48.657922 
L 126.197659 52.086997 
L 126.503553 45.584053 
L 126.809446 43.850385 
L 127.421232 25.151649 
L 127.727125 17.543096 
L 128.033018 17.083636 
L 128.644804 27.126893 
L 128.950697 35.451628 
L 129.25659 39.27231 
L 129.562484 46.004205 
L 129.868377 49.337759 
L 130.17427 49.181193 
L 130.480163 42.740827 
L 130.786056 30.215264 
L 131.091949 25.213462 
L 131.397842 25.615312 
L 131.703735 34.457412 
L 132.009628 36.159783 
L 132.315521 39.791738 
L 132.621415 39.111481 
L 132.927308 43.367729 
L 133.233201 43.677482 
L 134.15088 60.711478 
L 134.456773 56.201194 
L 134.762666 45.563319 
L 135.068559 39.454611 
L 135.374453 40.905446 
L 135.680346 43.390836 
L 135.986239 44.42089 
L 136.292132 47.196213 
L 136.903918 65.437946 
L 137.209811 64.244916 
L 137.515704 57.549413 
L 137.821597 56.084759 
L 138.12749 61.115006 
L 138.433384 63.612939 
L 139.04517 57.765435 
L 139.351063 60.038577 
L 139.656956 64.724613 
L 139.962849 71.469056 
L 140.268742 74.578622 
L 140.574635 79.591474 
L 140.880528 82.779823 
L 141.798208 99.329827 
L 142.104101 100.603092 
L 142.409994 99.177 
L 142.715887 99.36733 
L 143.327673 107.663736 
L 143.633566 112.292324 
L 143.939459 113.122396 
L 144.551246 118.37138 
L 144.857139 119.356366 
L 145.163032 114.089179 
L 145.468925 113.101212 
L 145.774818 118.633398 
L 146.386604 142.451792 
L 146.692497 145.355885 
L 146.99839 144.137362 
L 147.304283 138.882785 
L 147.610177 139.65032 
L 147.91607 136.092489 
L 148.221963 139.830164 
L 148.527856 138.228681 
L 148.833749 143.898904 
L 149.139642 145.828033 
L 149.445535 154.068388 
L 149.751428 155.791586 
L 150.057321 163.969786 
L 150.363215 167.755798 
L 150.669108 176.171005 
L 150.975001 174.828471 
L 151.280894 172.329018 
L 151.586787 164.217161 
L 151.89268 162.261175 
L 152.198573 162.491193 
L 152.504466 168.435044 
L 152.810359 170.221694 
L 153.116252 174.995884 
L 153.422146 177.029367 
L 153.728039 181.777092 
L 154.033932 182.178525 
L 154.339825 184.559552 
L 154.645718 189.250727 
L 154.951611 190.048844 
L 155.257504 190.0319 
L 155.563397 186.253261 
L 155.86929 190.49467 
L 156.481077 195.618487 
L 156.78697 194.967076 
L 157.092863 191.443875 
L 157.398756 193.270445 
L 157.704649 190.211239 
L 158.010542 194.634581 
L 158.316435 193.46428 
L 158.622328 198.308605 
L 158.928221 199.225164 
L 159.234114 202.908862 
L 159.540008 204.938295 
L 159.845901 208.325244 
L 160.151794 207.706702 
L 160.457687 206.808021 
L 161.069473 195.550353 
L 161.375366 192.900857 
L 161.681259 193.404144 
L 161.987152 198.773877 
L 162.293045 200.357439 
L 162.598939 207.624109 
L 163.210725 212.457245 
L 163.516618 209.025006 
L 163.822511 207.073861 
L 164.128404 206.134104 
L 164.434297 203.373912 
L 165.046083 191.606166 
L 165.351977 190.423185 
L 165.65787 193.398507 
L 165.963763 194.535082 
L 166.269656 189.123644 
L 167.187335 156.847737 
L 167.493228 157.411789 
L 168.410908 174.266613 
L 168.716801 175.202436 
L 169.022694 174.065309 
L 169.328587 171.294522 
L 169.63448 167.292688 
L 169.940373 159.082263 
L 170.246266 155.461585 
L 170.552159 156.645533 
L 170.858052 160.65648 
L 171.163945 160.991357 
L 172.081625 144.766157 
L 172.693411 130.864476 
L 172.999304 129.63693 
L 173.305197 133.17435 
L 174.222876 119.945128 
L 174.52877 120.48954 
L 174.834663 119.603051 
L 175.140556 119.232187 
L 175.446449 120.304379 
L 175.752342 118.110712 
L 176.058235 112.500055 
L 176.670021 94.738783 
L 176.975914 93.912377 
L 177.281807 98.221059 
L 177.587701 104.339157 
L 177.893594 104.408367 
L 178.199487 99.063997 
L 178.50538 90.199647 
L 178.811273 84.66197 
L 179.117166 82.403294 
L 179.423059 84.847101 
L 180.340738 81.417784 
L 180.646632 83.453824 
L 180.952525 83.112855 
L 181.258418 77.288327 
L 181.870204 62.556311 
L 182.176097 65.443193 
L 182.787883 78.327694 
L 183.093776 74.883178 
L 183.705563 55.171489 
L 184.011456 49.5437 
L 184.317349 50.350398 
L 184.929135 43.947534 
L 185.235028 36.892741 
L 185.540921 34.755514 
L 185.846814 35.874206 
L 186.458601 50.10398 
L 186.764494 51.086689 
L 187.682173 29.979707 
L 187.988066 28.50603 
L 188.905745 47.626809 
L 189.211638 48.751778 
L 189.823425 39.439181 
L 190.129318 32.212597 
L 190.435211 28.429594 
L 191.046997 25.153121 
L 191.35289 24.456124 
L 191.658783 29.066459 
L 192.270569 44.571936 
L 192.576463 44.967943 
L 192.882356 46.009819 
L 193.188249 43.44304 
L 193.494142 46.956922 
L 193.800035 45.598475 
L 194.105928 45.816702 
L 194.411821 41.707031 
L 194.717714 46.557922 
L 195.023607 47.809337 
L 195.3295 53.079878 
L 195.635394 48.747192 
L 195.941287 50.772385 
L 196.24718 47.308376 
L 196.553073 49.428796 
L 196.858966 48.367251 
L 197.164859 51.218339 
L 197.470752 52.951205 
L 197.776645 53.684461 
L 198.082538 56.998708 
L 198.388432 58.992804 
L 198.694325 60.221378 
L 199.000218 55.166864 
L 199.306111 55.019323 
L 199.612004 60.089128 
L 200.22379 73.386485 
L 200.529683 74.969935 
L 201.447363 85.047509 
L 201.753256 90.159731 
L 202.059149 91.338046 
L 202.365042 91.10187 
L 202.670935 83.239933 
L 202.976828 81.567516 
L 203.282721 83.115131 
L 203.894507 100.473406 
L 204.2004 107.263759 
L 204.506294 108.247748 
L 204.812187 109.826228 
L 205.11808 107.179925 
L 205.423973 109.980681 
L 206.035759 119.122264 
L 206.341652 122.227222 
L 206.647545 120.333565 
L 206.953438 124.584086 
L 207.259331 127.212535 
L 207.871118 135.482142 
L 208.177011 136.771836 
L 208.482904 140.89221 
L 208.788797 141.426216 
L 209.09469 143.824519 
L 209.706476 140.183844 
L 210.012369 139.308557 
L 210.318262 143.824347 
L 210.624156 150.295068 
L 210.930049 154.088532 
L 211.235942 152.66324 
L 211.541835 152.196856 
L 211.847728 152.678404 
L 212.153621 156.696372 
L 212.459514 158.031189 
L 212.765407 162.376576 
L 213.683087 168.137671 
L 213.98898 168.656085 
L 214.294873 173.146387 
L 214.600766 172.646812 
L 214.906659 174.094325 
L 215.212552 172.43265 
L 215.518445 172.122412 
L 216.436125 175.859782 
L 216.742018 178.985241 
L 217.047911 183.289878 
L 217.353804 192.488275 
L 217.659697 192.480727 
L 217.96559 192.921228 
L 218.271483 190.44541 
L 218.577376 196.523892 
L 218.883269 199.848127 
L 219.189162 204.401595 
L 220.106842 197.599649 
L 220.412735 198.84551 
L 220.718628 203.028089 
L 221.330414 206.946342 
L 221.636307 201.303394 
L 221.9422 199.375778 
L 222.248093 194.454686 
L 222.553987 194.554387 
L 223.165773 187.113573 
L 223.471666 184.908395 
L 224.389345 200.165951 
L 225.001131 200.138001 
L 225.612918 188.984031 
L 226.224704 187.659369 
L 226.530597 189.922261 
L 227.142383 181.133985 
L 227.754169 162.59258 
L 228.060062 157.037794 
L 228.365955 157.671718 
L 228.671849 161.717566 
L 228.977742 161.734464 
L 229.283635 162.118572 
L 229.589528 158.718235 
L 229.895421 160.547839 
L 230.201314 156.923828 
L 230.507207 159.597176 
L 230.8131 160.786482 
L 231.118993 167.683767 
L 231.424887 165.220291 
L 231.73078 158.745395 
L 232.036673 149.496558 
L 232.342566 145.771376 
L 232.648459 147.289095 
L 232.954352 145.540918 
L 233.260245 145.099516 
L 233.566138 139.792509 
L 233.872031 138.24559 
L 234.177924 134.452427 
L 234.483818 128.359698 
L 234.789711 124.69148 
L 235.095604 119.237616 
L 235.401497 120.326179 
L 235.70739 120.816274 
L 236.013283 127.388168 
L 236.319176 130.720112 
L 236.625069 127.323151 
L 237.236855 104.56458 
L 237.542749 101.064243 
L 237.848642 101.579701 
L 238.154535 104.807282 
L 238.460428 102.569932 
L 238.766321 101.182484 
L 239.684 78.812145 
L 240.295786 71.496424 
L 240.60168 71.181055 
L 240.907573 73.095857 
L 241.213466 71.355561 
L 241.519359 71.991388 
L 241.825252 69.279859 
L 242.131145 68.41589 
L 242.437038 66.533102 
L 242.742931 66.305288 
L 243.048824 70.690399 
L 243.354717 73.334381 
L 243.660611 72.048624 
L 243.966504 67.055869 
L 244.272397 64.825242 
L 244.884183 70.221419 
L 245.190076 68.301149 
L 245.801862 55.329372 
L 246.107755 52.730668 
L 246.413648 54.876335 
L 246.719542 55.553845 
L 247.637221 52.900528 
L 247.943114 54.928499 
L 248.249007 55.9617 
L 248.5549 53.202025 
L 249.166686 37.785173 
L 249.47258 37.192542 
L 249.778473 44.052179 
L 250.084366 47.455496 
L 250.390259 46.378346 
L 250.696152 36.894662 
L 251.002045 34.193603 
L 251.307938 33.850674 
L 251.613831 42.439268 
L 251.919724 42.926705 
L 252.225617 41.681909 
L 252.531511 31.995785 
L 252.837404 27.539077 
L 253.143297 25.595381 
L 253.44919 30.523939 
L 253.755083 32.421653 
L 254.366869 25.194571 
L 254.672762 25.179069 
L 254.978655 30.239559 
L 255.284548 31.963641 
L 256.202228 50.257132 
L 256.508121 49.841713 
L 256.814014 51.085154 
L 257.119907 47.135158 
L 257.4258 46.57817 
L 257.731693 48.911721 
L 258.343479 60.835105 
L 258.955266 54.440717 
L 259.261159 54.243514 
L 259.567052 59.350418 
L 259.872945 62.205469 
L 260.178838 62.106553 
L 260.484731 61.285285 
L 260.790624 62.439769 
L 261.096517 62.604753 
L 262.014197 68.662657 
L 262.32009 67.169286 
L 262.625983 66.363399 
L 262.931876 69.358337 
L 263.543662 78.945536 
L 264.155448 78.462348 
L 265.073128 93.289147 
L 265.379021 94.281739 
L 265.684914 99.403347 
L 265.990807 102.147726 
L 266.2967 101.485513 
L 266.602593 101.487763 
L 266.908486 103.06761 
L 267.214379 108.7805 
L 267.520273 111.897804 
L 267.826166 113.200296 
L 268.132059 113.350917 
L 268.743845 121.702132 
L 269.049738 127.25486 
L 269.355631 128.641364 
L 269.967417 132.455285 
L 270.27331 132.534221 
L 270.579204 134.478709 
L 271.496883 157.269418 
L 272.108669 149.655519 
L 272.414562 147.180319 
L 272.720455 153.243716 
L 273.638135 178.076227 
L 273.944028 181.9757 
L 274.249921 182.124702 
L 274.555814 181.854583 
L 275.1676 174.407734 
L 275.473493 171.747271 
L 275.779386 172.455342 
L 276.697066 193.97498 
L 277.002959 195.253499 
L 277.308852 199.502867 
L 277.614745 199.047435 
L 277.920638 197.877737 
L 278.226531 199.524564 
L 278.532424 200.274984 
L 278.838317 200.155523 
L 279.14421 192.461447 
L 279.450104 189.386477 
L 279.755997 191.525201 
L 280.367783 208.843296 
L 280.673676 214.756364 
L 280.979569 211.324398 
L 281.285462 205.343082 
L 281.591355 195.499334 
L 281.897248 191.376476 
L 282.203141 193.250691 
L 282.814928 198.210446 
L 283.120821 197.855553 
L 284.0385 206.33122 
L 284.344393 204.481482 
L 284.650286 205.556357 
L 284.956179 204.908328 
L 285.262072 209.232429 
L 285.567966 206.040328 
L 286.179752 188.184532 
L 286.485645 184.793327 
L 286.791538 188.382173 
L 287.097431 189.898673 
L 287.403324 193.564954 
L 287.709217 195.140258 
L 288.01511 191.326676 
L 288.321003 181.807459 
L 288.626897 176.342476 
L 289.238683 182.672508 
L 289.544576 181.083784 
L 289.850469 173.039105 
L 290.156362 174.117775 
L 290.462255 174.608645 
L 290.768148 177.474309 
L 291.074041 171.311677 
L 291.685828 166.31507 
L 291.991721 165.596935 
L 292.297614 161.064572 
L 293.215293 136.486198 
L 293.521186 138.320593 
L 294.132972 146.396856 
L 294.438865 146.138176 
L 294.744759 149.818085 
L 295.050652 151.740444 
L 295.356545 152.263244 
L 296.274224 136.751644 
L 296.580117 133.740714 
L 296.88601 134.905511 
L 297.191903 134.008653 
L 297.497797 128.23017 
L 298.109583 105.849621 
L 298.415476 102.923194 
L 298.721369 105.612323 
L 299.027262 104.04673 
L 299.333155 103.562203 
L 299.639048 97.788915 
L 299.944941 97.772671 
L 300.250834 92.864185 
L 300.556728 95.127646 
L 300.862621 90.937829 
L 301.168514 89.285581 
L 301.474407 81.398245 
L 302.392086 69.994087 
L 302.697979 69.229663 
L 303.003872 67.593774 
L 303.309765 61.77905 
L 303.615659 61.06225 
L 303.921552 60.795782 
L 304.227445 63.990756 
L 304.533338 61.852976 
L 304.839231 63.341199 
L 305.145124 63.05793 
L 305.451017 63.127689 
L 306.368696 55.549791 
L 306.67459 52.178323 
L 306.980483 51.989837 
L 307.286376 52.408249 
L 307.592269 53.219024 
L 308.204055 50.222471 
L 308.815841 37.883058 
L 309.121734 36.794832 
L 309.427627 41.293785 
L 309.733521 42.921909 
L 310.039414 40.942631 
L 310.345307 41.369072 
L 310.6512 40.598208 
L 310.957093 38.882563 
L 311.262986 30.177604 
L 311.874772 22.933539 
L 312.180665 26.132202 
L 312.486559 26.722406 
L 313.404238 44.332418 
L 313.710131 41.8698 
L 314.321917 30.107491 
L 314.62781 33.28032 
L 314.933703 41.581616 
L 315.239596 44.375895 
L 315.54549 44.811201 
L 315.851383 39.008879 
L 316.157276 39.511505 
L 316.463169 37.176309 
L 316.769062 38.718803 
L 317.380848 34.436689 
L 317.686741 35.061864 
L 317.992634 37.126921 
L 318.298527 43.756523 
L 318.604421 43.500566 
L 318.910314 44.63833 
L 319.216207 46.291998 
L 319.827993 58.05989 
L 320.439779 63.730286 
L 320.745672 64.816222 
L 321.051565 60.934518 
L 321.663352 56.505256 
L 322.886924 73.727687 
L 323.192817 74.945716 
L 323.49871 77.311248 
L 323.804603 77.50928 
L 324.110496 78.377161 
L 324.416389 84.117148 
L 324.722283 86.899231 
L 325.028176 94.805593 
L 325.334069 94.42873 
L 325.639962 99.178257 
L 325.945855 99.935708 
L 326.557641 113.287951 
L 326.863534 116.456957 
L 327.169427 112.861954 
L 327.47532 113.31047 
L 328.087107 125.084855 
L 328.393 127.747681 
L 328.698893 125.082068 
L 329.004786 129.948791 
L 329.310679 129.063343 
L 329.616572 128.75709 
L 329.922465 123.662081 
L 330.228358 124.721786 
L 330.534252 129.857723 
L 331.146038 131.742916 
L 331.451931 131.213123 
L 332.981396 153.416064 
L 333.899076 168.949659 
L 334.204969 167.905646 
L 334.816755 154.411255 
L 335.122648 157.67723 
L 335.734434 175.20795 
L 336.958007 193.782926 
L 337.2639 194.667282 
L 337.569793 198.138126 
L 337.875686 197.365395 
L 338.487472 187.242056 
L 338.793365 184.999771 
L 339.711045 193.730974 
L 340.016938 194.5305 
L 340.322831 190.6418 
L 340.934617 178.51998 
L 341.24051 176.001919 
L 341.852296 183.454337 
L 342.158189 192.138931 
L 342.769976 203.860625 
L 343.075869 202.080073 
L 343.381762 193.466555 
L 343.687655 189.17214 
L 343.993548 192.385353 
L 344.299441 201.057081 
L 344.605334 199.063894 
L 344.911227 191.42462 
L 345.21712 189.104086 
L 345.828907 195.981192 
L 346.1348 191.645514 
L 346.440693 190.28165 
L 346.746586 188.287961 
L 347.052479 190.306641 
L 347.358372 191.358805 
L 347.664265 194.456273 
L 347.970158 195.508183 
L 348.276051 192.901014 
L 348.887838 196.313143 
L 349.193731 195.200998 
L 349.499624 188.841956 
L 349.805517 185.047562 
L 350.11141 190.4498 
L 350.417303 192.77233 
L 350.723196 193.144448 
L 351.029089 186.607596 
L 351.334982 188.214466 
L 351.946769 180.676375 
L 352.252662 171.375067 
L 352.558555 169.877009 
L 353.170341 164.336956 
L 353.476234 162.743725 
L 354.08802 154.041174 
L 354.393913 147.043413 
L 354.699807 143.798727 
L 355.0057 142.858912 
L 355.311593 136.708449 
L 355.617486 135.782075 
L 355.923379 133.004429 
L 356.229272 138.530202 
L 356.535165 139.44171 
L 356.841058 143.778669 
L 357.146951 144.369697 
L 357.452844 143.129822 
L 357.758738 139.876844 
L 358.064631 134.678199 
L 358.064631 134.678199 
" clip-path="url(#pd5bb4b90dd)" style="fill: none; stroke: #1f77b4; stroke-width: 1.5; stroke-linecap: square"/>
   </g>
   <g id="patch_3">
    <path d="M 38.482813 224.64 
L 38.482813 7.2 
" style="fill: none; stroke: #000000; stroke-width: 0.8; stroke-linejoin: miter; stroke-linecap: square"/>
   </g>
   <g id="patch_4">
    <path d="M 373.282813 224.64 
L 373.282813 7.2 
" style="fill: none; stroke: #000000; stroke-width: 0.8; stroke-linejoin: miter; stroke-linecap: square"/>
   </g>
   <g id="patch_5">
    <path d="M 38.482813 224.64 
L 373.282813 224.64 
" style="fill: none; stroke: #000000; stroke-width: 0.8; stroke-linejoin: miter; stroke-linecap: square"/>
   </g>
   <g id="patch_6">
    <path d="M 38.482813 7.2 
L 373.282813 7.2 
" style="fill: none; stroke: #000000; stroke-width: 0.8; stroke-linejoin: miter; stroke-linecap: square"/>
   </g>
  </g>
 </g>
 <defs>
  <clipPath id="pd5bb4b90dd">
   <rect x="38.482813" y="7.2" width="334.8" height="217.44"/>
  </clipPath>
 </defs>
</svg>
