<?xml version="1.0" encoding="utf-8" standalone="no"?>
<!DOCTYPE svg PUBLIC "-//W3C//DTD SVG 1.1//EN"
  "http://www.w3.org/Graphics/SVG/1.1/DTD/svg11.dtd">
<svg xmlns:xlink="http://www.w3.org/1999/xlink" width="380.482813pt" height="248.518125pt" viewBox="0 0 380.482813 248.518125" xmlns="http://www.w3.org/2000/svg" version="1.1">
 <metadata>
  <rdf:RDF xmlns:dc="http://purl.org/dc/elements/1.1/" xmlns:cc="http://creativecommons.org/ns#" xmlns:rdf="http://www.w3.org/1999/02/22-rdf-syntax-ns#">
   <cc:Work>
    <dc:type rdf:resource="http://purl.org/dc/dcmitype/StillImage"/>
    <dc:date>2022-08-20T16:36:22.928278</dc:date>
    <dc:format>image/svg+xml</dc:format>
    <dc:creator>
     <cc:Agent>
      <dc:title>Matplotlib v3.5.2, https://matplotlib.org/</dc:title>
     </cc:Agent>
    </dc:creator>
   </cc:Work>
  </rdf:RDF>
 </metadata>
 <defs>
  <style type="text/css">*{stroke-linejoin: round; stroke-linecap: butt}</style>
 </defs>
 <g id="figure_1">
  <g id="patch_1">
   <path d="M -0 248.518125 
L 380.482813 248.518125 
L 380.482813 0 
L -0 0 
L -0 248.518125 
z
" style="fill: none"/>
  </g>
  <g id="axes_1">
   <g id="patch_2">
    <path d="M 38.482813 224.64 
L 373.282813 224.64 
L 373.282813 7.2 
L 38.482813 7.2 
z
" style="fill: #ffffff"/>
   </g>
   <g id="matplotlib.axis_1">
    <g id="xtick_1">
     <g id="line2d_1">
      <defs>
       <path id="m207601ded0" d="M 0 0 
L 0 3.5 
" style="stroke: #000000; stroke-width: 0.8"/>
      </defs>
      <g>
       <use xlink:href="#m207601ded0" x="53.700994" y="224.64" style="stroke: #000000; stroke-width: 0.8"/>
      </g>
     </g>
     <g id="text_1">
      <!-- 0 -->
      <g transform="translate(50.519744 239.238437)scale(0.1 -0.1)">
       <defs>
        <path id="DejaVuSans-30" d="M 2034 4250 
Q 1547 4250 1301 3770 
Q 1056 3291 1056 2328 
Q 1056 1369 1301 889 
Q 1547 409 2034 409 
Q 2525 409 2770 889 
Q 3016 1369 3016 2328 
Q 3016 3291 2770 3770 
Q 2525 4250 2034 4250 
z
M 2034 4750 
Q 2819 4750 3233 4129 
Q 3647 3509 3647 2328 
Q 3647 1150 3233 529 
Q 2819 -91 2034 -91 
Q 1250 -91 836 529 
Q 422 1150 422 2328 
Q 422 3509 836 4129 
Q 1250 4750 2034 4750 
z
" transform="scale(0.015625)"/>
       </defs>
       <use xlink:href="#DejaVuSans-30"/>
      </g>
     </g>
    </g>
    <g id="xtick_2">
     <g id="line2d_2">
      <g>
       <use xlink:href="#m207601ded0" x="102.141972" y="224.64" style="stroke: #000000; stroke-width: 0.8"/>
      </g>
     </g>
     <g id="text_2">
      <!-- 5 -->
      <g transform="translate(98.960722 239.238437)scale(0.1 -0.1)">
       <defs>
        <path id="DejaVuSans-35" d="M 691 4666 
L 3169 4666 
L 3169 4134 
L 1269 4134 
L 1269 2991 
Q 1406 3038 1543 3061 
Q 1681 3084 1819 3084 
Q 2600 3084 3056 2656 
Q 3513 2228 3513 1497 
Q 3513 744 3044 326 
Q 2575 -91 1722 -91 
Q 1428 -91 1123 -41 
Q 819 9 494 109 
L 494 744 
Q 775 591 1075 516 
Q 1375 441 1709 441 
Q 2250 441 2565 725 
Q 2881 1009 2881 1497 
Q 2881 1984 2565 2268 
Q 2250 2553 1709 2553 
Q 1456 2553 1204 2497 
Q 953 2441 691 2322 
L 691 4666 
z
" transform="scale(0.015625)"/>
       </defs>
       <use xlink:href="#DejaVuSans-35"/>
      </g>
     </g>
    </g>
    <g id="xtick_3">
     <g id="line2d_3">
      <g>
       <use xlink:href="#m207601ded0" x="150.582949" y="224.64" style="stroke: #000000; stroke-width: 0.8"/>
      </g>
     </g>
     <g id="text_3">
      <!-- 10 -->
      <g transform="translate(144.220449 239.238437)scale(0.1 -0.1)">
       <defs>
        <path id="DejaVuSans-31" d="M 794 531 
L 1825 531 
L 1825 4091 
L 703 3866 
L 703 4441 
L 1819 4666 
L 2450 4666 
L 2450 531 
L 3481 531 
L 3481 0 
L 794 0 
L 794 531 
z
" transform="scale(0.015625)"/>
       </defs>
       <use xlink:href="#DejaVuSans-31"/>
       <use xlink:href="#DejaVuSans-30" x="63.623047"/>
      </g>
     </g>
    </g>
    <g id="xtick_4">
     <g id="line2d_4">
      <g>
       <use xlink:href="#m207601ded0" x="199.023926" y="224.64" style="stroke: #000000; stroke-width: 0.8"/>
      </g>
     </g>
     <g id="text_4">
      <!-- 15 -->
      <g transform="translate(192.661426 239.238437)scale(0.1 -0.1)">
       <use xlink:href="#DejaVuSans-31"/>
       <use xlink:href="#DejaVuSans-35" x="63.623047"/>
      </g>
     </g>
    </g>
    <g id="xtick_5">
     <g id="line2d_5">
      <g>
       <use xlink:href="#m207601ded0" x="247.464903" y="224.64" style="stroke: #000000; stroke-width: 0.8"/>
      </g>
     </g>
     <g id="text_5">
      <!-- 20 -->
      <g transform="translate(241.102403 239.238437)scale(0.1 -0.1)">
       <defs>
        <path id="DejaVuSans-32" d="M 1228 531 
L 3431 531 
L 3431 0 
L 469 0 
L 469 531 
Q 828 903 1448 1529 
Q 2069 2156 2228 2338 
Q 2531 2678 2651 2914 
Q 2772 3150 2772 3378 
Q 2772 3750 2511 3984 
Q 2250 4219 1831 4219 
Q 1534 4219 1204 4116 
Q 875 4013 500 3803 
L 500 4441 
Q 881 4594 1212 4672 
Q 1544 4750 1819 4750 
Q 2544 4750 2975 4387 
Q 3406 4025 3406 3419 
Q 3406 3131 3298 2873 
Q 3191 2616 2906 2266 
Q 2828 2175 2409 1742 
Q 1991 1309 1228 531 
z
" transform="scale(0.015625)"/>
       </defs>
       <use xlink:href="#DejaVuSans-32"/>
       <use xlink:href="#DejaVuSans-30" x="63.623047"/>
      </g>
     </g>
    </g>
    <g id="xtick_6">
     <g id="line2d_6">
      <g>
       <use xlink:href="#m207601ded0" x="295.90588" y="224.64" style="stroke: #000000; stroke-width: 0.8"/>
      </g>
     </g>
     <g id="text_6">
      <!-- 25 -->
      <g transform="translate(289.54338 239.238437)scale(0.1 -0.1)">
       <use xlink:href="#DejaVuSans-32"/>
       <use xlink:href="#DejaVuSans-35" x="63.623047"/>
      </g>
     </g>
    </g>
    <g id="xtick_7">
     <g id="line2d_7">
      <g>
       <use xlink:href="#m207601ded0" x="344.346858" y="224.64" style="stroke: #000000; stroke-width: 0.8"/>
      </g>
     </g>
     <g id="text_7">
      <!-- 30 -->
      <g transform="translate(337.984358 239.238437)scale(0.1 -0.1)">
       <defs>
        <path id="DejaVuSans-33" d="M 2597 2516 
Q 3050 2419 3304 2112 
Q 3559 1806 3559 1356 
Q 3559 666 3084 287 
Q 2609 -91 1734 -91 
Q 1441 -91 1130 -33 
Q 819 25 488 141 
L 488 750 
Q 750 597 1062 519 
Q 1375 441 1716 441 
Q 2309 441 2620 675 
Q 2931 909 2931 1356 
Q 2931 1769 2642 2001 
Q 2353 2234 1838 2234 
L 1294 2234 
L 1294 2753 
L 1863 2753 
Q 2328 2753 2575 2939 
Q 2822 3125 2822 3475 
Q 2822 3834 2567 4026 
Q 2313 4219 1838 4219 
Q 1578 4219 1281 4162 
Q 984 4106 628 3988 
L 628 4550 
Q 988 4650 1302 4700 
Q 1616 4750 1894 4750 
Q 2613 4750 3031 4423 
Q 3450 4097 3450 3541 
Q 3450 3153 3228 2886 
Q 3006 2619 2597 2516 
z
" transform="scale(0.015625)"/>
       </defs>
       <use xlink:href="#DejaVuSans-33"/>
       <use xlink:href="#DejaVuSans-30" x="63.623047"/>
      </g>
     </g>
    </g>
   </g>
   <g id="matplotlib.axis_2">
    <g id="ytick_1">
     <g id="line2d_8">
      <defs>
       <path id="ma47c414935" d="M 0 0 
L -3.5 0 
" style="stroke: #000000; stroke-width: 0.8"/>
      </defs>
      <g>
       <use xlink:href="#ma47c414935" x="38.482813" y="189.118137" style="stroke: #000000; stroke-width: 0.8"/>
      </g>
     </g>
     <g id="text_8">
      <!-- −1.0 -->
      <g transform="translate(7.2 192.917356)scale(0.1 -0.1)">
       <defs>
        <path id="DejaVuSans-2212" d="M 678 2272 
L 4684 2272 
L 4684 1741 
L 678 1741 
L 678 2272 
z
" transform="scale(0.015625)"/>
        <path id="DejaVuSans-2e" d="M 684 794 
L 1344 794 
L 1344 0 
L 684 0 
L 684 794 
z
" transform="scale(0.015625)"/>
       </defs>
       <use xlink:href="#DejaVuSans-2212"/>
       <use xlink:href="#DejaVuSans-31" x="83.789062"/>
       <use xlink:href="#DejaVuSans-2e" x="147.412109"/>
       <use xlink:href="#DejaVuSans-30" x="179.199219"/>
      </g>
     </g>
    </g>
    <g id="ytick_2">
     <g id="line2d_9">
      <g>
       <use xlink:href="#ma47c414935" x="38.482813" y="152.45376" style="stroke: #000000; stroke-width: 0.8"/>
      </g>
     </g>
     <g id="text_9">
      <!-- −0.5 -->
      <g transform="translate(7.2 156.252979)scale(0.1 -0.1)">
       <use xlink:href="#DejaVuSans-2212"/>
       <use xlink:href="#DejaVuSans-30" x="83.789062"/>
       <use xlink:href="#DejaVuSans-2e" x="147.412109"/>
       <use xlink:href="#DejaVuSans-35" x="179.199219"/>
      </g>
     </g>
    </g>
    <g id="ytick_3">
     <g id="line2d_10">
      <g>
       <use xlink:href="#ma47c414935" x="38.482813" y="115.789383" style="stroke: #000000; stroke-width: 0.8"/>
      </g>
     </g>
     <g id="text_10">
      <!-- 0.0 -->
      <g transform="translate(15.579688 119.588602)scale(0.1 -0.1)">
       <use xlink:href="#DejaVuSans-30"/>
       <use xlink:href="#DejaVuSans-2e" x="63.623047"/>
       <use xlink:href="#DejaVuSans-30" x="95.410156"/>
      </g>
     </g>
    </g>
    <g id="ytick_4">
     <g id="line2d_11">
      <g>
       <use xlink:href="#ma47c414935" x="38.482813" y="79.125007" style="stroke: #000000; stroke-width: 0.8"/>
      </g>
     </g>
     <g id="text_11">
      <!-- 0.5 -->
      <g transform="translate(15.579688 82.924225)scale(0.1 -0.1)">
       <use xlink:href="#DejaVuSans-30"/>
       <use xlink:href="#DejaVuSans-2e" x="63.623047"/>
       <use xlink:href="#DejaVuSans-35" x="95.410156"/>
      </g>
     </g>
    </g>
    <g id="ytick_5">
     <g id="line2d_12">
      <g>
       <use xlink:href="#ma47c414935" x="38.482813" y="42.46063" style="stroke: #000000; stroke-width: 0.8"/>
      </g>
     </g>
     <g id="text_12">
      <!-- 1.0 -->
      <g transform="translate(15.579688 46.259849)scale(0.1 -0.1)">
       <use xlink:href="#DejaVuSans-31"/>
       <use xlink:href="#DejaVuSans-2e" x="63.623047"/>
       <use xlink:href="#DejaVuSans-30" x="95.410156"/>
      </g>
     </g>
    </g>
   </g>
   <g id="line2d_13">
    <path d="M 53.700994 126.928876 
L 54.005663 129.240312 
L 54.310331 108.44286 
L 54.614999 125.487639 
L 54.919668 99.840549 
L 55.529004 113.120556 
L 55.833672 88.397446 
L 56.138341 120.273449 
L 56.443009 78.43712 
L 56.747677 77.118449 
L 57.052346 108.908581 
L 57.357014 103.773151 
L 57.661682 69.487042 
L 57.966351 75.589646 
L 58.271019 57.629245 
L 58.575687 103.004348 
L 58.880355 79.848622 
L 59.185024 86.357684 
L 59.489692 85.076821 
L 59.79436 94.581885 
L 60.099029 77.517718 
L 60.403697 88.807666 
L 60.708365 73.153903 
L 61.013034 40.239666 
L 61.317702 45.893904 
L 61.62237 56.933575 
L 61.927039 42.716436 
L 62.231707 52.589277 
L 62.536375 47.600375 
L 62.841043 53.626061 
L 63.145712 29.818845 
L 63.45038 34.562224 
L 63.755048 65.511773 
L 64.059717 44.317541 
L 64.364385 40.529457 
L 64.973722 66.757418 
L 65.27839 36.940353 
L 65.583058 24.742299 
L 65.887727 33.784039 
L 66.192395 55.016664 
L 66.497063 33.110051 
L 66.801731 68.096349 
L 67.1064 56.557388 
L 67.411068 52.478612 
L 67.715736 57.524958 
L 68.020405 29.835015 
L 68.325073 53.373563 
L 68.629741 26.380586 
L 69.543746 62.88868 
L 69.848414 17.908598 
L 70.153083 45.411818 
L 70.457751 35.847299 
L 71.067088 42.216358 
L 71.371756 24.152324 
L 71.676424 66.2108 
L 71.981093 71.114159 
L 72.285761 25.455869 
L 72.590429 36.366266 
L 72.895098 36.529903 
L 73.199766 27.062762 
L 73.809102 67.001631 
L 74.113771 72.086466 
L 74.418439 29.25441 
L 74.723107 40.22052 
L 75.027776 37.517057 
L 75.332444 65.339773 
L 75.637112 58.324523 
L 75.941781 82.529409 
L 76.246449 83.735591 
L 76.551117 51.708058 
L 76.855785 53.780336 
L 77.465122 89.697485 
L 77.76979 45.389623 
L 78.074459 54.070874 
L 78.379127 73.045131 
L 78.683795 56.701814 
L 78.988464 65.544694 
L 79.293132 82.887337 
L 79.5978 60.37448 
L 79.902469 92.92453 
L 80.207137 75.646968 
L 80.511805 92.504725 
L 80.816473 92.260224 
L 81.121142 74.492752 
L 81.42581 73.15945 
L 81.730478 86.996598 
L 82.035147 90.989627 
L 82.339815 100.965392 
L 82.644483 114.675182 
L 82.949152 86.824874 
L 83.25382 91.437203 
L 83.558488 103.044582 
L 83.863156 138.35306 
L 84.167825 132.872477 
L 84.472493 136.653508 
L 84.777161 115.071112 
L 85.08183 117.917452 
L 85.386498 132.162096 
L 85.691166 134.429601 
L 85.995835 143.689059 
L 86.300503 121.983512 
L 86.605171 108.859248 
L 86.90984 158.982342 
L 87.214508 138.235749 
L 87.519176 160.544194 
L 87.823844 117.372922 
L 88.128513 123.004068 
L 88.737849 174.71801 
L 89.042518 157.44143 
L 89.347186 173.755616 
L 89.651854 173.839796 
L 89.956523 138.915688 
L 90.261191 167.275084 
L 90.565859 169.585771 
L 90.870527 183.807487 
L 91.175196 140.65364 
L 91.479864 155.914901 
L 91.784532 144.687893 
L 92.089201 146.047212 
L 92.698537 188.758823 
L 93.003206 191.327497 
L 93.307874 182.863008 
L 93.612542 154.502435 
L 94.221879 185.292406 
L 94.526547 157.531924 
L 94.831215 194.323532 
L 95.135884 187.080452 
L 95.440552 162.877612 
L 95.74522 185.512414 
L 96.049889 175.356079 
L 96.354557 170.025347 
L 96.659225 167.556446 
L 96.963894 188.140139 
L 97.268562 165.360046 
L 97.57323 210.944905 
L 97.877898 203.977927 
L 98.182567 186.099203 
L 98.487235 208.179312 
L 98.791903 164.414351 
L 99.096572 168.99505 
L 99.40124 192.557229 
L 99.705908 179.118299 
L 100.010577 209.265567 
L 100.315245 183.466119 
L 100.619913 202.34559 
L 100.924582 169.958654 
L 101.22925 199.013114 
L 101.533918 172.81944 
L 101.838586 203.242202 
L 102.143255 172.588761 
L 102.447923 173.744718 
L 102.752591 195.175422 
L 103.05726 169.582644 
L 103.361928 170.371683 
L 103.666596 162.479831 
L 103.971265 189.359484 
L 104.275933 167.49199 
L 104.580601 168.852038 
L 104.88527 160.721542 
L 105.189938 176.675594 
L 105.494606 185.243861 
L 105.799274 165.02789 
L 106.103943 171.079624 
L 106.408611 169.605906 
L 106.713279 166.886573 
L 107.017948 157.74552 
L 107.322616 174.606793 
L 107.627284 145.757826 
L 107.931953 157.916796 
L 108.236621 183.184028 
L 108.541289 150.867391 
L 108.845957 158.156911 
L 109.150626 154.740823 
L 109.455294 167.709314 
L 109.759962 161.817753 
L 110.064631 131.373202 
L 110.369299 167.167512 
L 110.673967 130.743215 
L 110.978636 165.547108 
L 111.283304 123.10888 
L 111.587972 140.434067 
L 111.892641 112.277801 
L 112.197309 129.746057 
L 112.501977 123.114139 
L 112.806645 143.678843 
L 113.111314 145.116421 
L 113.415982 147.259094 
L 113.72065 143.270782 
L 114.025319 102.530717 
L 114.329987 137.654507 
L 114.634655 110.386155 
L 114.939324 118.751556 
L 115.853328 85.029842 
L 116.157997 96.23186 
L 116.462665 120.019478 
L 116.767333 101.996436 
L 117.072002 76.129258 
L 117.681338 84.826182 
L 117.986007 72.663758 
L 118.290675 94.426011 
L 118.595343 101.490606 
L 118.900012 72.032236 
L 119.20468 75.6228 
L 119.509348 73.570409 
L 119.814016 61.197338 
L 120.118685 94.771772 
L 120.423353 86.252458 
L 120.728021 89.368494 
L 121.03269 78.630167 
L 121.337358 61.956354 
L 121.642026 79.328522 
L 121.946695 74.442676 
L 122.251363 82.255685 
L 122.556031 83.358369 
L 122.860699 55.053715 
L 123.165368 49.204287 
L 123.774704 66.902713 
L 124.079373 51.720995 
L 124.384041 58.818255 
L 124.688709 35.418827 
L 124.993378 66.737577 
L 125.298046 73.647624 
L 125.602714 36.511085 
L 125.907383 70.341655 
L 126.212051 27.111207 
L 126.516719 23.174312 
L 127.126056 44.217188 
L 127.430724 22.947964 
L 127.735392 55.449113 
L 128.040061 58.326709 
L 128.344729 25.555613 
L 128.649397 60.562001 
L 128.954066 51.439366 
L 129.258734 58.321366 
L 129.563402 27.214331 
L 129.86807 52.716244 
L 130.477407 44.199218 
L 130.782075 18.805979 
L 131.086744 20.306395 
L 131.391412 30.211404 
L 131.69608 65.822934 
L 132.000749 39.846767 
L 132.305417 50.26429 
L 132.610085 46.244432 
L 132.914754 52.178655 
L 133.219422 38.838555 
L 133.52409 68.763952 
L 133.828758 40.36048 
L 134.133427 73.603753 
L 134.438095 75.500556 
L 134.742763 35.429212 
L 135.047432 30.991002 
L 135.656768 48.996999 
L 135.961437 33.799338 
L 136.266105 67.303533 
L 136.570773 58.449184 
L 136.875441 53.41619 
L 137.18011 69.77279 
L 137.484778 65.353788 
L 137.789446 86.406885 
L 138.094115 93.242126 
L 138.398783 66.837723 
L 138.703451 67.05746 
L 139.00812 60.29011 
L 139.312788 92.22917 
L 139.617456 57.750844 
L 139.922125 87.891108 
L 140.226793 67.4737 
L 140.836129 79.047272 
L 141.445466 103.635762 
L 141.750134 66.368892 
L 142.359471 116.400853 
L 142.664139 115.634929 
L 143.273476 78.167813 
L 143.578144 99.812555 
L 143.882812 101.041284 
L 144.187481 94.135388 
L 144.492149 120.547595 
L 145.101486 98.920319 
L 145.406154 134.056206 
L 145.710822 116.925218 
L 146.015491 131.080955 
L 146.320159 103.162639 
L 146.624827 123.326815 
L 146.929496 107.282858 
L 147.234164 140.840121 
L 147.538832 119.490563 
L 147.8435 125.788332 
L 148.148169 115.74341 
L 148.452837 133.467365 
L 148.757505 137.346397 
L 149.062174 138.550992 
L 149.366842 123.185661 
L 149.67151 169.081732 
L 149.976179 161.95602 
L 150.280847 130.739041 
L 151.194852 150.60042 
L 151.49952 165.422263 
L 151.804188 163.456462 
L 152.108857 155.444229 
L 152.413525 183.82569 
L 153.022862 168.351452 
L 153.32753 155.267109 
L 153.632198 156.143437 
L 153.936867 190.803155 
L 154.241535 161.897128 
L 154.546203 186.844492 
L 154.850871 170.212347 
L 155.15554 159.973452 
L 155.460208 187.908132 
L 155.764876 185.425912 
L 156.069545 160.749324 
L 156.374213 189.372129 
L 156.678881 162.638385 
L 156.98355 170.048443 
L 157.288218 166.44026 
L 157.592886 186.154095 
L 157.897555 166.746983 
L 158.202223 209.234083 
L 158.506891 162.369923 
L 158.811559 201.186197 
L 159.116228 187.581659 
L 159.420896 209.433609 
L 159.725564 194.13437 
L 160.334901 214.756364 
L 160.639569 202.395861 
L 160.944238 211.328824 
L 161.248906 195.382813 
L 161.553574 168.287391 
L 161.858242 173.418171 
L 162.162911 211.752898 
L 162.467579 172.542228 
L 162.772247 193.994287 
L 163.076916 193.65774 
L 163.381584 178.794314 
L 163.686252 180.238338 
L 163.990921 158.036577 
L 164.295589 204.698752 
L 164.600257 160.526078 
L 165.209594 179.664644 
L 165.514262 200.928089 
L 165.81893 191.115813 
L 166.123599 187.184164 
L 166.428267 185.665181 
L 166.732935 194.219361 
L 167.037604 170.776543 
L 167.342272 158.928218 
L 167.64694 171.661974 
L 167.951609 152.028984 
L 168.256277 174.068511 
L 168.560945 171.326401 
L 168.865613 137.709094 
L 169.170282 144.697588 
L 169.47495 136.114478 
L 169.779618 171.070466 
L 170.084287 145.659481 
L 170.388955 147.275087 
L 170.693623 124.697498 
L 170.998292 165.623706 
L 171.607628 128.416183 
L 171.912297 131.262685 
L 172.216965 148.489472 
L 172.521633 157.439783 
L 172.826301 147.466438 
L 173.13097 141.420328 
L 173.435638 113.941458 
L 173.740306 111.250492 
L 174.044975 129.067685 
L 174.349643 112.837592 
L 174.654311 141.341352 
L 174.95898 128.447859 
L 175.263648 125.927991 
L 175.568316 132.49794 
L 175.872984 111.897427 
L 176.177653 129.870814 
L 176.482321 125.616358 
L 176.786989 116.268196 
L 177.091658 126.422811 
L 177.396326 124.966634 
L 177.700994 103.541756 
L 178.005663 114.859601 
L 178.310331 105.542333 
L 178.614999 87.273902 
L 178.919668 106.654985 
L 179.224336 103.892365 
L 179.529004 67.105399 
L 179.833672 107.604229 
L 180.138341 99.538652 
L 180.443009 56.755033 
L 180.747677 90.395127 
L 181.052346 59.138136 
L 181.357014 60.67314 
L 181.661682 80.72995 
L 181.966351 60.563362 
L 182.271019 89.693252 
L 182.575687 75.092211 
L 182.880355 49.775826 
L 183.185024 73.323839 
L 183.489692 55.942051 
L 183.79436 81.711536 
L 184.099029 63.351046 
L 184.403697 55.279275 
L 184.708365 74.56215 
L 185.013034 39.453109 
L 185.317702 77.384815 
L 185.62237 76.2049 
L 185.927039 71.603686 
L 186.231707 30.202697 
L 186.536375 54.374695 
L 186.841043 28.511967 
L 187.145712 42.020799 
L 187.45038 38.198842 
L 187.755048 28.120243 
L 188.059717 56.703871 
L 188.364385 36.323378 
L 188.669053 40.837657 
L 188.973722 29.481921 
L 189.27839 67.503956 
L 189.583058 18.24819 
L 189.887727 23.553783 
L 190.192395 36.36431 
L 190.497063 32.215285 
L 190.801731 44.755319 
L 191.1064 19.556554 
L 191.411068 40.728568 
L 191.715736 37.908782 
L 192.020405 45.783326 
L 192.325073 45.722212 
L 192.629741 37.073592 
L 192.93441 65.31991 
L 193.239078 57.112011 
L 193.543746 34.157996 
L 194.153083 67.252456 
L 194.457751 32.567696 
L 194.762419 65.426864 
L 195.067088 71.73108 
L 195.371756 72.051785 
L 195.981093 51.881673 
L 196.285761 55.787183 
L 196.590429 61.410218 
L 196.895098 64.166415 
L 197.199766 75.054343 
L 197.504434 71.41441 
L 197.809102 47.91879 
L 198.113771 47.469143 
L 198.418439 81.240153 
L 198.723107 45.891709 
L 199.027776 57.185742 
L 199.332444 60.346866 
L 199.637112 51.571035 
L 199.941781 97.428569 
L 200.246449 63.207376 
L 200.551117 94.946254 
L 201.160454 58.970223 
L 201.465122 107.11383 
L 201.76979 107.586955 
L 202.074459 80.675209 
L 202.379127 96.928427 
L 202.683795 89.66566 
L 202.988464 108.116138 
L 203.293132 88.427075 
L 203.5978 110.879724 
L 203.902469 91.174561 
L 204.207137 114.965386 
L 204.511805 109.225516 
L 204.816473 130.141661 
L 205.121142 97.202038 
L 205.42581 98.713991 
L 205.730478 98.790745 
L 206.035147 98.350077 
L 206.339815 143.908299 
L 206.644483 116.691571 
L 206.949152 125.861291 
L 207.25382 119.084579 
L 207.558488 143.508238 
L 207.863156 151.882713 
L 208.167825 109.55726 
L 208.777161 162.575692 
L 209.08183 164.067664 
L 209.386498 160.714138 
L 209.691166 141.229908 
L 209.995835 155.294703 
L 210.300503 127.020061 
L 210.605171 174.997771 
L 211.214508 155.24472 
L 211.519176 154.43043 
L 211.823844 166.672169 
L 212.128513 153.034736 
L 212.433181 187.059755 
L 212.737849 180.989326 
L 213.042518 140.053258 
L 213.347186 174.751968 
L 213.651854 172.601446 
L 213.956523 147.064471 
L 214.261191 162.480769 
L 214.565859 166.164912 
L 214.870527 184.983603 
L 215.175196 152.613527 
L 215.479864 190.554883 
L 215.784532 184.131202 
L 216.089201 171.176486 
L 216.393869 170.960157 
L 216.698537 190.973372 
L 217.003206 192.414451 
L 217.307874 169.497613 
L 217.612542 187.327294 
L 217.917211 161.998718 
L 218.221879 187.35537 
L 218.526547 191.73278 
L 218.831215 175.401576 
L 219.135884 186.439777 
L 219.440552 165.532169 
L 219.74522 200.185922 
L 220.049889 189.007123 
L 220.354557 211.751845 
L 220.659225 179.652921 
L 220.963894 201.942752 
L 221.268562 175.9354 
L 221.57323 187.735587 
L 221.877898 165.807848 
L 222.182567 200.092225 
L 222.487235 198.825842 
L 222.791903 182.959538 
L 223.096572 212.164772 
L 223.705908 182.381731 
L 224.315245 188.27595 
L 224.619913 204.605564 
L 225.22925 163.157414 
L 225.838586 195.951952 
L 226.143255 177.583167 
L 226.447923 183.243965 
L 226.752591 196.042012 
L 227.05726 171.503311 
L 227.361928 198.96628 
L 227.666596 152.76433 
L 227.971265 181.824597 
L 228.275933 183.587715 
L 228.580601 155.112255 
L 228.88527 179.770159 
L 229.189938 145.409004 
L 229.494606 139.282133 
L 229.799274 135.866419 
L 230.103943 174.034989 
L 230.408611 175.53615 
L 230.713279 142.270141 
L 231.017948 177.410067 
L 231.322616 176.660016 
L 231.627284 159.20145 
L 231.931953 128.443759 
L 232.236621 121.38254 
L 232.541289 149.613023 
L 232.845957 167.181479 
L 233.455294 122.630535 
L 233.759962 135.380993 
L 234.064631 115.605862 
L 234.369299 132.823282 
L 234.978636 151.205009 
L 235.283304 115.62058 
L 235.892641 96.823222 
L 236.197309 97.673069 
L 236.501977 110.263383 
L 236.806645 109.263479 
L 237.111314 120.236759 
L 237.415982 114.642556 
L 237.72065 100.667954 
L 238.025319 100.793737 
L 238.329987 105.242719 
L 238.634655 86.00134 
L 238.939324 115.883245 
L 239.243992 74.946782 
L 239.54866 85.927481 
L 239.853328 102.347064 
L 240.157997 66.390853 
L 240.462665 104.274692 
L 240.767333 96.114726 
L 241.37667 55.567746 
L 241.681338 90.450361 
L 241.986007 59.853966 
L 242.290675 89.994114 
L 242.595343 60.320128 
L 242.900012 70.753224 
L 243.20468 92.551899 
L 243.509348 54.037995 
L 243.814016 53.849846 
L 244.118685 80.939204 
L 244.423353 82.146917 
L 244.728021 51.615143 
L 245.03269 35.535867 
L 245.337358 52.507324 
L 245.642026 48.096943 
L 245.946695 78.04355 
L 246.251363 77.546583 
L 246.860699 44.357772 
L 247.470036 60.352229 
L 248.079373 32.058282 
L 248.384041 55.80624 
L 248.688709 68.880701 
L 248.993378 54.51578 
L 249.298046 49.105182 
L 249.602714 32.164501 
L 249.907383 57.353369 
L 250.212051 24.048535 
L 250.516719 31.826772 
L 250.821387 65.691854 
L 251.430724 56.6386 
L 251.735392 20.895002 
L 252.040061 41.142323 
L 252.344729 53.60129 
L 252.649397 51.898463 
L 252.954066 56.877303 
L 253.258734 67.028318 
L 253.563402 37.394416 
L 253.86807 53.342814 
L 254.172739 57.297806 
L 254.782075 38.534527 
L 255.086744 35.775056 
L 255.391412 61.659566 
L 255.69608 38.012046 
L 256.000749 75.768313 
L 256.305417 73.118197 
L 256.610085 27.482729 
L 256.914754 41.746274 
L 257.219422 77.660647 
L 257.52409 59.426804 
L 257.828758 60.880004 
L 258.133427 43.951886 
L 258.438095 59.419607 
L 258.742763 86.821569 
L 259.047432 79.315097 
L 259.3521 40.344315 
L 259.656768 77.664821 
L 260.266105 47.618924 
L 260.570773 76.509873 
L 260.875441 94.579864 
L 261.18011 56.875028 
L 261.484778 76.562766 
L 261.789446 82.068054 
L 262.094115 71.771062 
L 262.398783 85.653722 
L 262.703451 106.195928 
L 263.00812 72.567509 
L 263.312788 87.260625 
L 263.617456 112.460496 
L 263.922125 92.179122 
L 264.226793 85.823807 
L 264.531461 89.078378 
L 264.836129 110.161821 
L 265.140798 95.146914 
L 265.445466 95.612551 
L 265.750134 88.436492 
L 266.054803 124.36535 
L 266.359471 90.259127 
L 266.664139 136.158405 
L 266.968808 121.970646 
L 267.273476 124.442832 
L 267.578144 107.855648 
L 267.882812 136.022466 
L 268.187481 117.489028 
L 268.492149 112.878509 
L 268.796817 113.390534 
L 269.101486 136.931164 
L 269.406154 149.419853 
L 269.710822 152.083412 
L 270.015491 139.668446 
L 270.320159 146.201953 
L 270.624827 130.067291 
L 270.929496 143.093109 
L 271.234164 139.785003 
L 271.538832 145.975751 
L 271.8435 145.643244 
L 272.148169 177.452343 
L 272.452837 146.078259 
L 272.757505 157.750168 
L 273.062174 157.270368 
L 273.366842 148.909706 
L 273.67151 172.056203 
L 273.976179 175.607777 
L 274.280847 151.449894 
L 274.585515 173.398382 
L 274.890184 186.068204 
L 275.194852 170.706466 
L 275.49952 194.564186 
L 276.108857 152.319868 
L 276.413525 171.218862 
L 276.718193 172.767614 
L 277.022862 161.147597 
L 277.32753 160.708094 
L 277.632198 190.126487 
L 277.936867 199.300571 
L 278.241535 191.728807 
L 278.546203 197.629886 
L 278.850871 191.897441 
L 279.15554 178.277114 
L 279.460208 197.748438 
L 279.764876 169.905959 
L 280.069545 208.597595 
L 280.374213 207.932585 
L 280.678881 203.297829 
L 280.98355 173.597127 
L 281.288218 209.074197 
L 281.592886 198.983806 
L 282.202223 165.960568 
L 282.506891 188.902998 
L 282.811559 192.693188 
L 283.116228 200.575655 
L 283.420896 195.629764 
L 284.030233 164.941019 
L 284.334901 169.888843 
L 284.639569 195.513168 
L 284.944238 179.241584 
L 285.248906 176.298447 
L 285.553574 187.383793 
L 285.858242 170.918029 
L 286.162911 201.798338 
L 286.467579 178.318865 
L 286.772247 175.328697 
L 287.076916 161.971963 
L 287.381584 162.66583 
L 287.686252 169.464243 
L 287.990921 164.831066 
L 288.295589 154.104021 
L 288.600257 188.24005 
L 288.904926 149.939454 
L 289.209594 160.234044 
L 289.514262 166.227981 
L 289.81893 151.937722 
L 290.123599 155.695067 
L 290.428267 162.686368 
L 291.037604 149.024353 
L 291.342272 174.963901 
L 291.64694 136.929072 
L 291.951609 134.561335 
L 292.256277 159.91609 
L 292.560945 130.582585 
L 292.865613 130.465119 
L 293.170282 159.27587 
L 293.47495 155.254486 
L 293.779618 164.562022 
L 294.084287 148.783862 
L 294.388955 122.658323 
L 294.693623 158.203032 
L 294.998292 123.041794 
L 295.30296 125.608675 
L 295.607628 144.696883 
L 295.912297 145.940593 
L 296.216965 120.552324 
L 296.521633 140.219673 
L 296.826301 108.643878 
L 297.13097 118.650379 
L 297.435638 137.576348 
L 297.740306 86.20947 
L 298.044975 124.637708 
L 298.349643 110.421246 
L 298.654311 124.304524 
L 298.95898 109.924895 
L 299.568316 73.331259 
L 299.872984 101.758828 
L 300.177653 78.162039 
L 300.482321 102.044928 
L 300.786989 106.941422 
L 301.396326 100.850612 
L 301.700994 62.853303 
L 302.005663 57.416847 
L 302.310331 73.754645 
L 302.614999 77.239801 
L 302.919668 96.441724 
L 303.224336 53.936918 
L 303.529004 61.117204 
L 303.833672 49.564369 
L 304.138341 65.311088 
L 304.443009 67.235694 
L 304.747677 42.168415 
L 305.052346 42.083632 
L 305.357014 56.337149 
L 305.661682 65.018277 
L 305.966351 37.733747 
L 306.271019 63.529555 
L 306.575687 70.567994 
L 306.880355 61.406728 
L 307.185024 69.54597 
L 307.489692 53.897337 
L 307.79436 47.233623 
L 308.099029 51.102979 
L 308.403697 24.395906 
L 308.708365 29.28211 
L 309.013034 64.757293 
L 309.317702 53.207278 
L 309.62237 47.857405 
L 309.927039 23.344926 
L 310.536375 60.923829 
L 310.841043 24.31698 
L 311.145712 40.689226 
L 311.45038 17.734692 
L 311.755048 17.083636 
L 312.059717 61.463468 
L 312.364385 54.088402 
L 312.669053 52.510983 
L 312.973722 40.503405 
L 313.27839 34.991471 
L 313.583058 20.87337 
L 313.887727 57.540202 
L 314.192395 61.569586 
L 314.497063 56.835277 
L 314.801731 24.815625 
L 315.1064 69.315935 
L 315.411068 63.302893 
L 315.715736 53.263646 
L 316.020405 52.037056 
L 316.325073 30.623463 
L 316.629741 42.055005 
L 316.93441 39.287505 
L 317.239078 39.405267 
L 317.543746 71.852252 
L 317.848414 60.907485 
L 318.457751 55.291493 
L 318.762419 70.413065 
L 319.067088 42.230254 
L 319.371756 77.663393 
L 319.676424 68.496625 
L 319.981093 84.655576 
L 320.285761 83.138938 
L 320.590429 68.542341 
L 321.199766 94.275507 
L 321.504434 48.691593 
L 321.809102 82.078835 
L 322.418439 90.692822 
L 322.723107 69.923115 
L 323.027776 60.349956 
L 323.332444 59.262913 
L 323.941781 104.065938 
L 324.246449 68.781273 
L 324.551117 111.015294 
L 324.855785 99.585734 
L 325.160454 116.004279 
L 325.465122 110.806293 
L 325.76979 89.523598 
L 326.074459 81.649284 
L 326.683795 120.127487 
L 327.293132 134.161375 
L 327.5978 108.768666 
L 328.207137 144.470503 
L 328.511805 102.064869 
L 328.816473 108.967671 
L 329.121142 152.645911 
L 329.42581 111.035723 
L 330.035147 137.56275 
L 330.339815 120.090913 
L 330.644483 117.136804 
L 330.949152 140.872813 
L 331.25382 148.988586 
L 331.558488 134.965792 
L 331.863156 130.429158 
L 332.167825 171.332649 
L 332.472493 150.934282 
L 332.777161 158.763355 
L 333.08183 160.420113 
L 333.386498 173.963085 
L 333.691166 174.659998 
L 333.995835 172.803233 
L 334.300503 151.443273 
L 334.605171 185.231549 
L 334.90984 183.411688 
L 335.214508 159.349868 
L 335.519176 194.079578 
L 335.823844 147.182402 
L 336.128513 157.69169 
L 336.433181 192.06295 
L 336.737849 193.187841 
L 337.042518 184.765251 
L 337.347186 164.931195 
L 337.651854 164.626506 
L 337.956523 174.701081 
L 338.261191 192.450537 
L 338.565859 156.773581 
L 338.870527 189.224467 
L 339.175196 194.508595 
L 339.784532 166.560944 
L 340.089201 209.372332 
L 340.393869 183.593382 
L 340.698537 188.78306 
L 341.003206 201.441367 
L 341.307874 195.669922 
L 341.612542 193.096443 
L 342.221879 201.299725 
L 342.526547 186.565436 
L 342.831215 165.964754 
L 343.135884 208.33418 
L 343.440552 180.327378 
L 344.049889 173.453226 
L 344.354557 200.952595 
L 344.659225 213.108354 
L 345.268562 164.490899 
L 345.57323 183.027245 
L 345.877898 171.077051 
L 346.182567 177.342413 
L 346.487235 195.565451 
L 346.791903 193.911449 
L 347.096572 160.700409 
L 347.40124 201.007103 
L 347.705908 187.288315 
L 348.315245 200.782299 
L 348.924582 152.20639 
L 349.22925 160.805271 
L 349.533918 155.614072 
L 349.838586 162.330288 
L 350.143255 189.392068 
L 350.447923 144.620338 
L 350.752591 141.754438 
L 351.05726 171.270554 
L 351.666596 147.03034 
L 351.971265 144.488466 
L 352.275933 180.374116 
L 352.580601 153.137456 
L 352.88527 141.671296 
L 353.189938 140.610987 
L 353.494606 153.539524 
L 353.799274 147.903182 
L 354.103943 121.842175 
L 354.408611 142.1613 
L 354.713279 121.742308 
L 355.017948 125.602029 
L 355.322616 155.254069 
L 355.627284 148.53796 
L 355.931953 109.998671 
L 356.236621 140.876198 
L 356.541289 138.018959 
L 356.845957 145.226853 
L 357.150626 136.491188 
L 357.455294 135.6105 
L 357.759962 94.796899 
L 358.064631 140.448655 
L 358.064631 140.448655 
" clip-path="url(#p3d9f7f79bc)" style="fill: none; stroke: #1f77b4; stroke-width: 1.5; stroke-linecap: square"/>
   </g>
   <g id="patch_3">
    <path d="M 38.482813 224.64 
L 38.482813 7.2 
" style="fill: none; stroke: #000000; stroke-width: 0.8; stroke-linejoin: miter; stroke-linecap: square"/>
   </g>
   <g id="patch_4">
    <path d="M 373.282813 224.64 
L 373.282813 7.2 
" style="fill: none; stroke: #000000; stroke-width: 0.8; stroke-linejoin: miter; stroke-linecap: square"/>
   </g>
   <g id="patch_5">
    <path d="M 38.482813 224.64 
L 373.282813 224.64 
" style="fill: none; stroke: #000000; stroke-width: 0.8; stroke-linejoin: miter; stroke-linecap: square"/>
   </g>
   <g id="patch_6">
    <path d="M 38.482813 7.2 
L 373.282813 7.2 
" style="fill: none; stroke: #000000; stroke-width: 0.8; stroke-linejoin: miter; stroke-linecap: square"/>
   </g>
  </g>
 </g>
 <defs>
  <clipPath id="p3d9f7f79bc">
   <rect x="38.482813" y="7.2" width="334.8" height="217.44"/>
  </clipPath>
 </defs>
</svg>
