<?xml version="1.0" encoding="utf-8" standalone="no"?>
<!DOCTYPE svg PUBLIC "-//W3C//DTD SVG 1.1//EN"
  "http://www.w3.org/Graphics/SVG/1.1/DTD/svg11.dtd">
<svg height="248.518125pt" version="1.1" viewBox="0 0 378.465625 248.518125" width="378.465625pt" xmlns="http://www.w3.org/2000/svg" xmlns:xlink="http://www.w3.org/1999/xlink">
 <metadata>
  <rdf:RDF xmlns:cc="http://creativecommons.org/ns#" xmlns:dc="http://purl.org/dc/elements/1.1/" xmlns:rdf="http://www.w3.org/1999/02/22-rdf-syntax-ns#">
   <cc:Work>
    <dc:type rdf:resource="http://purl.org/dc/dcmitype/StillImage"/>
    <dc:date>2022-05-22T18:03:34.387101</dc:date>
    <dc:format>image/svg+xml</dc:format>
    <dc:creator>
     <cc:Agent>
      <dc:title>Matplotlib v3.4.3, https://matplotlib.org/</dc:title>
     </cc:Agent>
    </dc:creator>
   </cc:Work>
  </rdf:RDF>
 </metadata>
 <defs>
  <style type="text/css">*{stroke-linecap:butt;stroke-linejoin:round;}</style>
 </defs>
 <g id="figure_1">
  <g id="patch_1">
   <path d="M 0 248.518125 
L 378.465625 248.518125 
L 378.465625 0 
L 0 0 
z
" style="fill:none;"/>
  </g>
  <g id="axes_1">
   <g id="patch_2">
    <path d="M 36.465625 224.64 
L 371.265625 224.64 
L 371.265625 7.2 
L 36.465625 7.2 
z
" style="fill:#ffffff;"/>
   </g>
   <g id="matplotlib.axis_1">
    <g id="xtick_1">
     <g id="line2d_1">
      <defs>
       <path d="M 0 0 
L 0 3.5 
" id="m96111c3cb2" style="stroke:#000000;stroke-width:0.8;"/>
      </defs>
      <g>
       <use style="stroke:#000000;stroke-width:0.8;" x="51.683807" xlink:href="#m96111c3cb2" y="224.64"/>
      </g>
     </g>
     <g id="text_1">
      <!-- 0 -->
      <g transform="translate(48.502557 239.238437)scale(0.1 -0.1)">
       <defs>
        <path d="M 2034 4250 
Q 1547 4250 1301 3770 
Q 1056 3291 1056 2328 
Q 1056 1369 1301 889 
Q 1547 409 2034 409 
Q 2525 409 2770 889 
Q 3016 1369 3016 2328 
Q 3016 3291 2770 3770 
Q 2525 4250 2034 4250 
z
M 2034 4750 
Q 2819 4750 3233 4129 
Q 3647 3509 3647 2328 
Q 3647 1150 3233 529 
Q 2819 -91 2034 -91 
Q 1250 -91 836 529 
Q 422 1150 422 2328 
Q 422 3509 836 4129 
Q 1250 4750 2034 4750 
z
" id="DejaVuSans-30" transform="scale(0.015625)"/>
       </defs>
       <use xlink:href="#DejaVuSans-30"/>
      </g>
     </g>
    </g>
    <g id="xtick_2">
     <g id="line2d_2">
      <g>
       <use style="stroke:#000000;stroke-width:0.8;" x="113.798835" xlink:href="#m96111c3cb2" y="224.64"/>
      </g>
     </g>
     <g id="text_2">
      <!-- 10 -->
      <g transform="translate(107.436335 239.238437)scale(0.1 -0.1)">
       <defs>
        <path d="M 794 531 
L 1825 531 
L 1825 4091 
L 703 3866 
L 703 4441 
L 1819 4666 
L 2450 4666 
L 2450 531 
L 3481 531 
L 3481 0 
L 794 0 
L 794 531 
z
" id="DejaVuSans-31" transform="scale(0.015625)"/>
       </defs>
       <use xlink:href="#DejaVuSans-31"/>
       <use x="63.623047" xlink:href="#DejaVuSans-30"/>
      </g>
     </g>
    </g>
    <g id="xtick_3">
     <g id="line2d_3">
      <g>
       <use style="stroke:#000000;stroke-width:0.8;" x="175.913862" xlink:href="#m96111c3cb2" y="224.64"/>
      </g>
     </g>
     <g id="text_3">
      <!-- 20 -->
      <g transform="translate(169.551362 239.238437)scale(0.1 -0.1)">
       <defs>
        <path d="M 1228 531 
L 3431 531 
L 3431 0 
L 469 0 
L 469 531 
Q 828 903 1448 1529 
Q 2069 2156 2228 2338 
Q 2531 2678 2651 2914 
Q 2772 3150 2772 3378 
Q 2772 3750 2511 3984 
Q 2250 4219 1831 4219 
Q 1534 4219 1204 4116 
Q 875 4013 500 3803 
L 500 4441 
Q 881 4594 1212 4672 
Q 1544 4750 1819 4750 
Q 2544 4750 2975 4387 
Q 3406 4025 3406 3419 
Q 3406 3131 3298 2873 
Q 3191 2616 2906 2266 
Q 2828 2175 2409 1742 
Q 1991 1309 1228 531 
z
" id="DejaVuSans-32" transform="scale(0.015625)"/>
       </defs>
       <use xlink:href="#DejaVuSans-32"/>
       <use x="63.623047" xlink:href="#DejaVuSans-30"/>
      </g>
     </g>
    </g>
    <g id="xtick_4">
     <g id="line2d_4">
      <g>
       <use style="stroke:#000000;stroke-width:0.8;" x="238.02889" xlink:href="#m96111c3cb2" y="224.64"/>
      </g>
     </g>
     <g id="text_4">
      <!-- 30 -->
      <g transform="translate(231.66639 239.238437)scale(0.1 -0.1)">
       <defs>
        <path d="M 2597 2516 
Q 3050 2419 3304 2112 
Q 3559 1806 3559 1356 
Q 3559 666 3084 287 
Q 2609 -91 1734 -91 
Q 1441 -91 1130 -33 
Q 819 25 488 141 
L 488 750 
Q 750 597 1062 519 
Q 1375 441 1716 441 
Q 2309 441 2620 675 
Q 2931 909 2931 1356 
Q 2931 1769 2642 2001 
Q 2353 2234 1838 2234 
L 1294 2234 
L 1294 2753 
L 1863 2753 
Q 2328 2753 2575 2939 
Q 2822 3125 2822 3475 
Q 2822 3834 2567 4026 
Q 2313 4219 1838 4219 
Q 1578 4219 1281 4162 
Q 984 4106 628 3988 
L 628 4550 
Q 988 4650 1302 4700 
Q 1616 4750 1894 4750 
Q 2613 4750 3031 4423 
Q 3450 4097 3450 3541 
Q 3450 3153 3228 2886 
Q 3006 2619 2597 2516 
z
" id="DejaVuSans-33" transform="scale(0.015625)"/>
       </defs>
       <use xlink:href="#DejaVuSans-33"/>
       <use x="63.623047" xlink:href="#DejaVuSans-30"/>
      </g>
     </g>
    </g>
    <g id="xtick_5">
     <g id="line2d_5">
      <g>
       <use style="stroke:#000000;stroke-width:0.8;" x="300.143918" xlink:href="#m96111c3cb2" y="224.64"/>
      </g>
     </g>
     <g id="text_5">
      <!-- 40 -->
      <g transform="translate(293.781418 239.238437)scale(0.1 -0.1)">
       <defs>
        <path d="M 2419 4116 
L 825 1625 
L 2419 1625 
L 2419 4116 
z
M 2253 4666 
L 3047 4666 
L 3047 1625 
L 3713 1625 
L 3713 1100 
L 3047 1100 
L 3047 0 
L 2419 0 
L 2419 1100 
L 313 1100 
L 313 1709 
L 2253 4666 
z
" id="DejaVuSans-34" transform="scale(0.015625)"/>
       </defs>
       <use xlink:href="#DejaVuSans-34"/>
       <use x="63.623047" xlink:href="#DejaVuSans-30"/>
      </g>
     </g>
    </g>
    <g id="xtick_6">
     <g id="line2d_6">
      <g>
       <use style="stroke:#000000;stroke-width:0.8;" x="362.258946" xlink:href="#m96111c3cb2" y="224.64"/>
      </g>
     </g>
     <g id="text_6">
      <!-- 50 -->
      <g transform="translate(355.896446 239.238437)scale(0.1 -0.1)">
       <defs>
        <path d="M 691 4666 
L 3169 4666 
L 3169 4134 
L 1269 4134 
L 1269 2991 
Q 1406 3038 1543 3061 
Q 1681 3084 1819 3084 
Q 2600 3084 3056 2656 
Q 3513 2228 3513 1497 
Q 3513 744 3044 326 
Q 2575 -91 1722 -91 
Q 1428 -91 1123 -41 
Q 819 9 494 109 
L 494 744 
Q 775 591 1075 516 
Q 1375 441 1709 441 
Q 2250 441 2565 725 
Q 2881 1009 2881 1497 
Q 2881 1984 2565 2268 
Q 2250 2553 1709 2553 
Q 1456 2553 1204 2497 
Q 953 2441 691 2322 
L 691 4666 
z
" id="DejaVuSans-35" transform="scale(0.015625)"/>
       </defs>
       <use xlink:href="#DejaVuSans-35"/>
       <use x="63.623047" xlink:href="#DejaVuSans-30"/>
      </g>
     </g>
    </g>
   </g>
   <g id="matplotlib.axis_2">
    <g id="ytick_1">
     <g id="line2d_7">
      <defs>
       <path d="M 0 0 
L -3.5 0 
" id="m0e12994992" style="stroke:#000000;stroke-width:0.8;"/>
      </defs>
      <g>
       <use style="stroke:#000000;stroke-width:0.8;" x="36.465625" xlink:href="#m0e12994992" y="216.908125"/>
      </g>
     </g>
     <g id="text_7">
      <!-- 0.00 -->
      <g transform="translate(7.2 220.707344)scale(0.1 -0.1)">
       <defs>
        <path d="M 684 794 
L 1344 794 
L 1344 0 
L 684 0 
L 684 794 
z
" id="DejaVuSans-2e" transform="scale(0.015625)"/>
       </defs>
       <use xlink:href="#DejaVuSans-30"/>
       <use x="63.623047" xlink:href="#DejaVuSans-2e"/>
       <use x="95.410156" xlink:href="#DejaVuSans-30"/>
       <use x="159.033203" xlink:href="#DejaVuSans-30"/>
      </g>
     </g>
    </g>
    <g id="ytick_2">
     <g id="line2d_8">
      <g>
       <use style="stroke:#000000;stroke-width:0.8;" x="36.465625" xlink:href="#m0e12994992" y="185.494696"/>
      </g>
     </g>
     <g id="text_8">
      <!-- 0.05 -->
      <g transform="translate(7.2 189.293915)scale(0.1 -0.1)">
       <use xlink:href="#DejaVuSans-30"/>
       <use x="63.623047" xlink:href="#DejaVuSans-2e"/>
       <use x="95.410156" xlink:href="#DejaVuSans-30"/>
       <use x="159.033203" xlink:href="#DejaVuSans-35"/>
      </g>
     </g>
    </g>
    <g id="ytick_3">
     <g id="line2d_9">
      <g>
       <use style="stroke:#000000;stroke-width:0.8;" x="36.465625" xlink:href="#m0e12994992" y="154.081268"/>
      </g>
     </g>
     <g id="text_9">
      <!-- 0.10 -->
      <g transform="translate(7.2 157.880486)scale(0.1 -0.1)">
       <use xlink:href="#DejaVuSans-30"/>
       <use x="63.623047" xlink:href="#DejaVuSans-2e"/>
       <use x="95.410156" xlink:href="#DejaVuSans-31"/>
       <use x="159.033203" xlink:href="#DejaVuSans-30"/>
      </g>
     </g>
    </g>
    <g id="ytick_4">
     <g id="line2d_10">
      <g>
       <use style="stroke:#000000;stroke-width:0.8;" x="36.465625" xlink:href="#m0e12994992" y="122.667839"/>
      </g>
     </g>
     <g id="text_10">
      <!-- 0.15 -->
      <g transform="translate(7.2 126.467058)scale(0.1 -0.1)">
       <use xlink:href="#DejaVuSans-30"/>
       <use x="63.623047" xlink:href="#DejaVuSans-2e"/>
       <use x="95.410156" xlink:href="#DejaVuSans-31"/>
       <use x="159.033203" xlink:href="#DejaVuSans-35"/>
      </g>
     </g>
    </g>
    <g id="ytick_5">
     <g id="line2d_11">
      <g>
       <use style="stroke:#000000;stroke-width:0.8;" x="36.465625" xlink:href="#m0e12994992" y="91.25441"/>
      </g>
     </g>
     <g id="text_11">
      <!-- 0.20 -->
      <g transform="translate(7.2 95.053629)scale(0.1 -0.1)">
       <use xlink:href="#DejaVuSans-30"/>
       <use x="63.623047" xlink:href="#DejaVuSans-2e"/>
       <use x="95.410156" xlink:href="#DejaVuSans-32"/>
       <use x="159.033203" xlink:href="#DejaVuSans-30"/>
      </g>
     </g>
    </g>
    <g id="ytick_6">
     <g id="line2d_12">
      <g>
       <use style="stroke:#000000;stroke-width:0.8;" x="36.465625" xlink:href="#m0e12994992" y="59.840982"/>
      </g>
     </g>
     <g id="text_12">
      <!-- 0.25 -->
      <g transform="translate(7.2 63.640201)scale(0.1 -0.1)">
       <use xlink:href="#DejaVuSans-30"/>
       <use x="63.623047" xlink:href="#DejaVuSans-2e"/>
       <use x="95.410156" xlink:href="#DejaVuSans-32"/>
       <use x="159.033203" xlink:href="#DejaVuSans-35"/>
      </g>
     </g>
    </g>
    <g id="ytick_7">
     <g id="line2d_13">
      <g>
       <use style="stroke:#000000;stroke-width:0.8;" x="36.465625" xlink:href="#m0e12994992" y="28.427553"/>
      </g>
     </g>
     <g id="text_13">
      <!-- 0.30 -->
      <g transform="translate(7.2 32.226772)scale(0.1 -0.1)">
       <use xlink:href="#DejaVuSans-30"/>
       <use x="63.623047" xlink:href="#DejaVuSans-2e"/>
       <use x="95.410156" xlink:href="#DejaVuSans-33"/>
       <use x="159.033203" xlink:href="#DejaVuSans-30"/>
      </g>
     </g>
    </g>
   </g>
   <g id="line2d_14">
    <path clip-path="url(#p8f42e176f4)" d="M 51.683807 214.756364 
L 57.89531 214.064831 
L 64.106812 212.715235 
L 70.318315 211.515004 
L 76.529818 209.124343 
L 82.741321 203.556346 
L 88.952824 184.359882 
L 95.164326 139.37776 
L 101.375829 169.805758 
L 107.587332 145.921617 
L 113.798835 61.422397 
L 120.010337 151.315902 
L 126.22184 165.521551 
L 132.433343 129.921853 
L 138.644846 185.238356 
L 144.856349 204.281018 
L 151.067851 208.190719 
L 157.279354 208.851137 
L 163.490857 207.17322 
L 169.70236 206.177098 
L 175.913862 202.165714 
L 182.125365 186.981749 
L 188.336868 147.610192 
L 194.548371 169.372546 
L 200.759874 144.596203 
L 206.971376 100.60779 
L 213.182879 17.083636 
L 219.394382 63.435796 
L 225.605885 126.12997 
L 231.817388 178.549807 
L 238.02889 167.050669 
L 244.240393 166.717357 
L 250.451896 198.988821 
L 256.663399 206.318781 
L 262.874901 207.563051 
L 269.086404 208.13359 
L 275.297907 208.830594 
L 281.50941 206.915962 
L 287.720913 202.804261 
L 293.932415 181.29986 
L 300.143918 176.778478 
L 306.355421 189.29058 
L 312.566924 147.860554 
L 318.778426 155.175831 
L 324.989929 192.317612 
L 331.201432 176.852858 
L 337.412935 188.293434 
L 343.624438 208.177965 
L 349.83594 212.256299 
L 356.047443 213.880139 
" style="fill:none;stroke:#1f77b4;stroke-linecap:square;stroke-width:1.5;"/>
    <defs>
     <path d="M 0 1.5 
C 0.397805 1.5 0.77937 1.341951 1.06066 1.06066 
C 1.341951 0.77937 1.5 0.397805 1.5 0 
C 1.5 -0.397805 1.341951 -0.77937 1.06066 -1.06066 
C 0.77937 -1.341951 0.397805 -1.5 0 -1.5 
C -0.397805 -1.5 -0.77937 -1.341951 -1.06066 -1.06066 
C -1.341951 -0.77937 -1.5 -0.397805 -1.5 0 
C -1.5 0.397805 -1.341951 0.77937 -1.06066 1.06066 
C -0.77937 1.341951 -0.397805 1.5 0 1.5 
z
" id="mff26087340" style="stroke:#1f77b4;"/>
    </defs>
    <g clip-path="url(#p8f42e176f4)">
     <use style="fill:#1f77b4;stroke:#1f77b4;" x="51.683807" xlink:href="#mff26087340" y="214.756364"/>
     <use style="fill:#1f77b4;stroke:#1f77b4;" x="57.89531" xlink:href="#mff26087340" y="214.064831"/>
     <use style="fill:#1f77b4;stroke:#1f77b4;" x="64.106812" xlink:href="#mff26087340" y="212.715235"/>
     <use style="fill:#1f77b4;stroke:#1f77b4;" x="70.318315" xlink:href="#mff26087340" y="211.515004"/>
     <use style="fill:#1f77b4;stroke:#1f77b4;" x="76.529818" xlink:href="#mff26087340" y="209.124343"/>
     <use style="fill:#1f77b4;stroke:#1f77b4;" x="82.741321" xlink:href="#mff26087340" y="203.556346"/>
     <use style="fill:#1f77b4;stroke:#1f77b4;" x="88.952824" xlink:href="#mff26087340" y="184.359882"/>
     <use style="fill:#1f77b4;stroke:#1f77b4;" x="95.164326" xlink:href="#mff26087340" y="139.37776"/>
     <use style="fill:#1f77b4;stroke:#1f77b4;" x="101.375829" xlink:href="#mff26087340" y="169.805758"/>
     <use style="fill:#1f77b4;stroke:#1f77b4;" x="107.587332" xlink:href="#mff26087340" y="145.921617"/>
     <use style="fill:#1f77b4;stroke:#1f77b4;" x="113.798835" xlink:href="#mff26087340" y="61.422397"/>
     <use style="fill:#1f77b4;stroke:#1f77b4;" x="120.010337" xlink:href="#mff26087340" y="151.315902"/>
     <use style="fill:#1f77b4;stroke:#1f77b4;" x="126.22184" xlink:href="#mff26087340" y="165.521551"/>
     <use style="fill:#1f77b4;stroke:#1f77b4;" x="132.433343" xlink:href="#mff26087340" y="129.921853"/>
     <use style="fill:#1f77b4;stroke:#1f77b4;" x="138.644846" xlink:href="#mff26087340" y="185.238356"/>
     <use style="fill:#1f77b4;stroke:#1f77b4;" x="144.856349" xlink:href="#mff26087340" y="204.281018"/>
     <use style="fill:#1f77b4;stroke:#1f77b4;" x="151.067851" xlink:href="#mff26087340" y="208.190719"/>
     <use style="fill:#1f77b4;stroke:#1f77b4;" x="157.279354" xlink:href="#mff26087340" y="208.851137"/>
     <use style="fill:#1f77b4;stroke:#1f77b4;" x="163.490857" xlink:href="#mff26087340" y="207.17322"/>
     <use style="fill:#1f77b4;stroke:#1f77b4;" x="169.70236" xlink:href="#mff26087340" y="206.177098"/>
     <use style="fill:#1f77b4;stroke:#1f77b4;" x="175.913862" xlink:href="#mff26087340" y="202.165714"/>
     <use style="fill:#1f77b4;stroke:#1f77b4;" x="182.125365" xlink:href="#mff26087340" y="186.981749"/>
     <use style="fill:#1f77b4;stroke:#1f77b4;" x="188.336868" xlink:href="#mff26087340" y="147.610192"/>
     <use style="fill:#1f77b4;stroke:#1f77b4;" x="194.548371" xlink:href="#mff26087340" y="169.372546"/>
     <use style="fill:#1f77b4;stroke:#1f77b4;" x="200.759874" xlink:href="#mff26087340" y="144.596203"/>
     <use style="fill:#1f77b4;stroke:#1f77b4;" x="206.971376" xlink:href="#mff26087340" y="100.60779"/>
     <use style="fill:#1f77b4;stroke:#1f77b4;" x="213.182879" xlink:href="#mff26087340" y="17.083636"/>
     <use style="fill:#1f77b4;stroke:#1f77b4;" x="219.394382" xlink:href="#mff26087340" y="63.435796"/>
     <use style="fill:#1f77b4;stroke:#1f77b4;" x="225.605885" xlink:href="#mff26087340" y="126.12997"/>
     <use style="fill:#1f77b4;stroke:#1f77b4;" x="231.817388" xlink:href="#mff26087340" y="178.549807"/>
     <use style="fill:#1f77b4;stroke:#1f77b4;" x="238.02889" xlink:href="#mff26087340" y="167.050669"/>
     <use style="fill:#1f77b4;stroke:#1f77b4;" x="244.240393" xlink:href="#mff26087340" y="166.717357"/>
     <use style="fill:#1f77b4;stroke:#1f77b4;" x="250.451896" xlink:href="#mff26087340" y="198.988821"/>
     <use style="fill:#1f77b4;stroke:#1f77b4;" x="256.663399" xlink:href="#mff26087340" y="206.318781"/>
     <use style="fill:#1f77b4;stroke:#1f77b4;" x="262.874901" xlink:href="#mff26087340" y="207.563051"/>
     <use style="fill:#1f77b4;stroke:#1f77b4;" x="269.086404" xlink:href="#mff26087340" y="208.13359"/>
     <use style="fill:#1f77b4;stroke:#1f77b4;" x="275.297907" xlink:href="#mff26087340" y="208.830594"/>
     <use style="fill:#1f77b4;stroke:#1f77b4;" x="281.50941" xlink:href="#mff26087340" y="206.915962"/>
     <use style="fill:#1f77b4;stroke:#1f77b4;" x="287.720913" xlink:href="#mff26087340" y="202.804261"/>
     <use style="fill:#1f77b4;stroke:#1f77b4;" x="293.932415" xlink:href="#mff26087340" y="181.29986"/>
     <use style="fill:#1f77b4;stroke:#1f77b4;" x="300.143918" xlink:href="#mff26087340" y="176.778478"/>
     <use style="fill:#1f77b4;stroke:#1f77b4;" x="306.355421" xlink:href="#mff26087340" y="189.29058"/>
     <use style="fill:#1f77b4;stroke:#1f77b4;" x="312.566924" xlink:href="#mff26087340" y="147.860554"/>
     <use style="fill:#1f77b4;stroke:#1f77b4;" x="318.778426" xlink:href="#mff26087340" y="155.175831"/>
     <use style="fill:#1f77b4;stroke:#1f77b4;" x="324.989929" xlink:href="#mff26087340" y="192.317612"/>
     <use style="fill:#1f77b4;stroke:#1f77b4;" x="331.201432" xlink:href="#mff26087340" y="176.852858"/>
     <use style="fill:#1f77b4;stroke:#1f77b4;" x="337.412935" xlink:href="#mff26087340" y="188.293434"/>
     <use style="fill:#1f77b4;stroke:#1f77b4;" x="343.624438" xlink:href="#mff26087340" y="208.177965"/>
     <use style="fill:#1f77b4;stroke:#1f77b4;" x="349.83594" xlink:href="#mff26087340" y="212.256299"/>
     <use style="fill:#1f77b4;stroke:#1f77b4;" x="356.047443" xlink:href="#mff26087340" y="213.880139"/>
    </g>
   </g>
   <g id="line2d_15">
    <defs>
     <path d="M -3 3 
L 3 3 
L 3 -3 
L -3 -3 
z
" id="mef6e78c79d" style="stroke:#ff7f0e;stroke-linejoin:miter;"/>
    </defs>
    <g clip-path="url(#p8f42e176f4)">
     <use style="fill:#ff7f0e;stroke:#ff7f0e;stroke-linejoin:miter;" x="76.529818" xlink:href="#mef6e78c79d" y="209.124343"/>
    </g>
   </g>
   <g id="line2d_16">
    <g clip-path="url(#p8f42e176f4)">
     <use style="fill:#ff7f0e;stroke:#ff7f0e;stroke-linejoin:miter;" x="157.279354" xlink:href="#mef6e78c79d" y="208.851137"/>
    </g>
   </g>
   <g id="line2d_17">
    <g clip-path="url(#p8f42e176f4)">
     <use style="fill:#ff7f0e;stroke:#ff7f0e;stroke-linejoin:miter;" x="169.70236" xlink:href="#mef6e78c79d" y="206.177098"/>
    </g>
   </g>
   <g id="line2d_18">
    <g clip-path="url(#p8f42e176f4)">
     <use style="fill:#ff7f0e;stroke:#ff7f0e;stroke-linejoin:miter;" x="262.874901" xlink:href="#mef6e78c79d" y="207.563051"/>
    </g>
   </g>
   <g id="line2d_19">
    <g clip-path="url(#p8f42e176f4)">
     <use style="fill:#ff7f0e;stroke:#ff7f0e;stroke-linejoin:miter;" x="275.297907" xlink:href="#mef6e78c79d" y="208.830594"/>
    </g>
   </g>
   <g id="line2d_20">
    <g clip-path="url(#p8f42e176f4)">
     <use style="fill:#ff7f0e;stroke:#ff7f0e;stroke-linejoin:miter;" x="356.047443" xlink:href="#mef6e78c79d" y="213.880139"/>
    </g>
   </g>
   <g id="patch_3">
    <path d="M 36.465625 224.64 
L 36.465625 7.2 
" style="fill:none;stroke:#000000;stroke-linecap:square;stroke-linejoin:miter;stroke-width:0.8;"/>
   </g>
   <g id="patch_4">
    <path d="M 371.265625 224.64 
L 371.265625 7.2 
" style="fill:none;stroke:#000000;stroke-linecap:square;stroke-linejoin:miter;stroke-width:0.8;"/>
   </g>
   <g id="patch_5">
    <path d="M 36.465625 224.64 
L 371.265625 224.64 
" style="fill:none;stroke:#000000;stroke-linecap:square;stroke-linejoin:miter;stroke-width:0.8;"/>
   </g>
   <g id="patch_6">
    <path d="M 36.465625 7.2 
L 371.265625 7.2 
" style="fill:none;stroke:#000000;stroke-linecap:square;stroke-linejoin:miter;stroke-width:0.8;"/>
   </g>
  </g>
 </g>
 <defs>
  <clipPath id="p8f42e176f4">
   <rect height="217.44" width="334.8" x="36.465625" y="7.2"/>
  </clipPath>
 </defs>
</svg>
