<?xml version="1.0" encoding="utf-8" standalone="no"?>
<!DOCTYPE svg PUBLIC "-//W3C//DTD SVG 1.1//EN"
  "http://www.w3.org/Graphics/SVG/1.1/DTD/svg11.dtd">
<svg xmlns:xlink="http://www.w3.org/1999/xlink" width="380.482813pt" height="248.518125pt" viewBox="0 0 380.482813 248.518125" xmlns="http://www.w3.org/2000/svg" version="1.1">
 <metadata>
  <rdf:RDF xmlns:dc="http://purl.org/dc/elements/1.1/" xmlns:cc="http://creativecommons.org/ns#" xmlns:rdf="http://www.w3.org/1999/02/22-rdf-syntax-ns#">
   <cc:Work>
    <dc:type rdf:resource="http://purl.org/dc/dcmitype/StillImage"/>
    <dc:date>2022-06-01T12:58:46.308404</dc:date>
    <dc:format>image/svg+xml</dc:format>
    <dc:creator>
     <cc:Agent>
      <dc:title>Matplotlib v3.5.2, https://matplotlib.org/</dc:title>
     </cc:Agent>
    </dc:creator>
   </cc:Work>
  </rdf:RDF>
 </metadata>
 <defs>
  <style type="text/css">*{stroke-linejoin: round; stroke-linecap: butt}</style>
 </defs>
 <g id="figure_1">
  <g id="patch_1">
   <path d="M -0 248.518125 
L 380.482813 248.518125 
L 380.482813 0 
L -0 0 
L -0 248.518125 
z
" style="fill: none"/>
  </g>
  <g id="axes_1">
   <g id="patch_2">
    <path d="M 38.482813 224.64 
L 373.282813 224.64 
L 373.282813 7.2 
L 38.482813 7.2 
z
" style="fill: #ffffff"/>
   </g>
   <g id="matplotlib.axis_1">
    <g id="xtick_1">
     <g id="line2d_1">
      <defs>
       <path id="md988268dc0" d="M 0 0 
L 0 3.5 
" style="stroke: #000000; stroke-width: 0.8"/>
      </defs>
      <g>
       <use xlink:href="#md988268dc0" x="53.395715" y="224.64" style="stroke: #000000; stroke-width: 0.8"/>
      </g>
     </g>
     <g id="text_1">
      <!-- 0 -->
      <g transform="translate(50.214465 239.238437)scale(0.1 -0.1)">
       <defs>
        <path id="DejaVuSans-30" d="M 2034 4250 
Q 1547 4250 1301 3770 
Q 1056 3291 1056 2328 
Q 1056 1369 1301 889 
Q 1547 409 2034 409 
Q 2525 409 2770 889 
Q 3016 1369 3016 2328 
Q 3016 3291 2770 3770 
Q 2525 4250 2034 4250 
z
M 2034 4750 
Q 2819 4750 3233 4129 
Q 3647 3509 3647 2328 
Q 3647 1150 3233 529 
Q 2819 -91 2034 -91 
Q 1250 -91 836 529 
Q 422 1150 422 2328 
Q 422 3509 836 4129 
Q 1250 4750 2034 4750 
z
" transform="scale(0.015625)"/>
       </defs>
       <use xlink:href="#DejaVuSans-30"/>
      </g>
     </g>
    </g>
    <g id="xtick_2">
     <g id="line2d_2">
      <g>
       <use xlink:href="#md988268dc0" x="101.933866" y="224.64" style="stroke: #000000; stroke-width: 0.8"/>
      </g>
     </g>
     <g id="text_2">
      <!-- 5 -->
      <g transform="translate(98.752616 239.238437)scale(0.1 -0.1)">
       <defs>
        <path id="DejaVuSans-35" d="M 691 4666 
L 3169 4666 
L 3169 4134 
L 1269 4134 
L 1269 2991 
Q 1406 3038 1543 3061 
Q 1681 3084 1819 3084 
Q 2600 3084 3056 2656 
Q 3513 2228 3513 1497 
Q 3513 744 3044 326 
Q 2575 -91 1722 -91 
Q 1428 -91 1123 -41 
Q 819 9 494 109 
L 494 744 
Q 775 591 1075 516 
Q 1375 441 1709 441 
Q 2250 441 2565 725 
Q 2881 1009 2881 1497 
Q 2881 1984 2565 2268 
Q 2250 2553 1709 2553 
Q 1456 2553 1204 2497 
Q 953 2441 691 2322 
L 691 4666 
z
" transform="scale(0.015625)"/>
       </defs>
       <use xlink:href="#DejaVuSans-35"/>
      </g>
     </g>
    </g>
    <g id="xtick_3">
     <g id="line2d_3">
      <g>
       <use xlink:href="#md988268dc0" x="150.472016" y="224.64" style="stroke: #000000; stroke-width: 0.8"/>
      </g>
     </g>
     <g id="text_3">
      <!-- 10 -->
      <g transform="translate(144.109516 239.238437)scale(0.1 -0.1)">
       <defs>
        <path id="DejaVuSans-31" d="M 794 531 
L 1825 531 
L 1825 4091 
L 703 3866 
L 703 4441 
L 1819 4666 
L 2450 4666 
L 2450 531 
L 3481 531 
L 3481 0 
L 794 0 
L 794 531 
z
" transform="scale(0.015625)"/>
       </defs>
       <use xlink:href="#DejaVuSans-31"/>
       <use xlink:href="#DejaVuSans-30" x="63.623047"/>
      </g>
     </g>
    </g>
    <g id="xtick_4">
     <g id="line2d_4">
      <g>
       <use xlink:href="#md988268dc0" x="199.010167" y="224.64" style="stroke: #000000; stroke-width: 0.8"/>
      </g>
     </g>
     <g id="text_4">
      <!-- 15 -->
      <g transform="translate(192.647667 239.238437)scale(0.1 -0.1)">
       <use xlink:href="#DejaVuSans-31"/>
       <use xlink:href="#DejaVuSans-35" x="63.623047"/>
      </g>
     </g>
    </g>
    <g id="xtick_5">
     <g id="line2d_5">
      <g>
       <use xlink:href="#md988268dc0" x="247.548318" y="224.64" style="stroke: #000000; stroke-width: 0.8"/>
      </g>
     </g>
     <g id="text_5">
      <!-- 20 -->
      <g transform="translate(241.185818 239.238437)scale(0.1 -0.1)">
       <defs>
        <path id="DejaVuSans-32" d="M 1228 531 
L 3431 531 
L 3431 0 
L 469 0 
L 469 531 
Q 828 903 1448 1529 
Q 2069 2156 2228 2338 
Q 2531 2678 2651 2914 
Q 2772 3150 2772 3378 
Q 2772 3750 2511 3984 
Q 2250 4219 1831 4219 
Q 1534 4219 1204 4116 
Q 875 4013 500 3803 
L 500 4441 
Q 881 4594 1212 4672 
Q 1544 4750 1819 4750 
Q 2544 4750 2975 4387 
Q 3406 4025 3406 3419 
Q 3406 3131 3298 2873 
Q 3191 2616 2906 2266 
Q 2828 2175 2409 1742 
Q 1991 1309 1228 531 
z
" transform="scale(0.015625)"/>
       </defs>
       <use xlink:href="#DejaVuSans-32"/>
       <use xlink:href="#DejaVuSans-30" x="63.623047"/>
      </g>
     </g>
    </g>
    <g id="xtick_6">
     <g id="line2d_6">
      <g>
       <use xlink:href="#md988268dc0" x="296.086468" y="224.64" style="stroke: #000000; stroke-width: 0.8"/>
      </g>
     </g>
     <g id="text_6">
      <!-- 25 -->
      <g transform="translate(289.723968 239.238437)scale(0.1 -0.1)">
       <use xlink:href="#DejaVuSans-32"/>
       <use xlink:href="#DejaVuSans-35" x="63.623047"/>
      </g>
     </g>
    </g>
    <g id="xtick_7">
     <g id="line2d_7">
      <g>
       <use xlink:href="#md988268dc0" x="344.624619" y="224.64" style="stroke: #000000; stroke-width: 0.8"/>
      </g>
     </g>
     <g id="text_7">
      <!-- 30 -->
      <g transform="translate(338.262119 239.238437)scale(0.1 -0.1)">
       <defs>
        <path id="DejaVuSans-33" d="M 2597 2516 
Q 3050 2419 3304 2112 
Q 3559 1806 3559 1356 
Q 3559 666 3084 287 
Q 2609 -91 1734 -91 
Q 1441 -91 1130 -33 
Q 819 25 488 141 
L 488 750 
Q 750 597 1062 519 
Q 1375 441 1716 441 
Q 2309 441 2620 675 
Q 2931 909 2931 1356 
Q 2931 1769 2642 2001 
Q 2353 2234 1838 2234 
L 1294 2234 
L 1294 2753 
L 1863 2753 
Q 2328 2753 2575 2939 
Q 2822 3125 2822 3475 
Q 2822 3834 2567 4026 
Q 2313 4219 1838 4219 
Q 1578 4219 1281 4162 
Q 984 4106 628 3988 
L 628 4550 
Q 988 4650 1302 4700 
Q 1616 4750 1894 4750 
Q 2613 4750 3031 4423 
Q 3450 4097 3450 3541 
Q 3450 3153 3228 2886 
Q 3006 2619 2597 2516 
z
" transform="scale(0.015625)"/>
       </defs>
       <use xlink:href="#DejaVuSans-33"/>
       <use xlink:href="#DejaVuSans-30" x="63.623047"/>
      </g>
     </g>
    </g>
   </g>
   <g id="matplotlib.axis_2">
    <g id="ytick_1">
     <g id="line2d_8">
      <defs>
       <path id="mddf84addd5" d="M 0 0 
L -3.5 0 
" style="stroke: #000000; stroke-width: 0.8"/>
      </defs>
      <g>
       <use xlink:href="#mddf84addd5" x="38.482813" y="194.213607" style="stroke: #000000; stroke-width: 0.8"/>
      </g>
     </g>
     <g id="text_8">
      <!-- −1.0 -->
      <g transform="translate(7.2 198.012826)scale(0.1 -0.1)">
       <defs>
        <path id="DejaVuSans-2212" d="M 678 2272 
L 4684 2272 
L 4684 1741 
L 678 1741 
L 678 2272 
z
" transform="scale(0.015625)"/>
        <path id="DejaVuSans-2e" d="M 684 794 
L 1344 794 
L 1344 0 
L 684 0 
L 684 794 
z
" transform="scale(0.015625)"/>
       </defs>
       <use xlink:href="#DejaVuSans-2212"/>
       <use xlink:href="#DejaVuSans-31" x="83.789062"/>
       <use xlink:href="#DejaVuSans-2e" x="147.412109"/>
       <use xlink:href="#DejaVuSans-30" x="179.199219"/>
      </g>
     </g>
    </g>
    <g id="ytick_2">
     <g id="line2d_9">
      <g>
       <use xlink:href="#mddf84addd5" x="38.482813" y="156.092405" style="stroke: #000000; stroke-width: 0.8"/>
      </g>
     </g>
     <g id="text_9">
      <!-- −0.5 -->
      <g transform="translate(7.2 159.891624)scale(0.1 -0.1)">
       <use xlink:href="#DejaVuSans-2212"/>
       <use xlink:href="#DejaVuSans-30" x="83.789062"/>
       <use xlink:href="#DejaVuSans-2e" x="147.412109"/>
       <use xlink:href="#DejaVuSans-35" x="179.199219"/>
      </g>
     </g>
    </g>
    <g id="ytick_3">
     <g id="line2d_10">
      <g>
       <use xlink:href="#mddf84addd5" x="38.482813" y="117.971203" style="stroke: #000000; stroke-width: 0.8"/>
      </g>
     </g>
     <g id="text_10">
      <!-- 0.0 -->
      <g transform="translate(15.579688 121.770422)scale(0.1 -0.1)">
       <use xlink:href="#DejaVuSans-30"/>
       <use xlink:href="#DejaVuSans-2e" x="63.623047"/>
       <use xlink:href="#DejaVuSans-30" x="95.410156"/>
      </g>
     </g>
    </g>
    <g id="ytick_4">
     <g id="line2d_11">
      <g>
       <use xlink:href="#mddf84addd5" x="38.482813" y="79.850001" style="stroke: #000000; stroke-width: 0.8"/>
      </g>
     </g>
     <g id="text_11">
      <!-- 0.5 -->
      <g transform="translate(15.579688 83.64922)scale(0.1 -0.1)">
       <use xlink:href="#DejaVuSans-30"/>
       <use xlink:href="#DejaVuSans-2e" x="63.623047"/>
       <use xlink:href="#DejaVuSans-35" x="95.410156"/>
      </g>
     </g>
    </g>
    <g id="ytick_5">
     <g id="line2d_12">
      <g>
       <use xlink:href="#mddf84addd5" x="38.482813" y="41.728799" style="stroke: #000000; stroke-width: 0.8"/>
      </g>
     </g>
     <g id="text_12">
      <!-- 1.0 -->
      <g transform="translate(15.579688 45.528018)scale(0.1 -0.1)">
       <use xlink:href="#DejaVuSans-31"/>
       <use xlink:href="#DejaVuSans-2e" x="63.623047"/>
       <use xlink:href="#DejaVuSans-30" x="95.410156"/>
      </g>
     </g>
    </g>
   </g>
   <g id="line2d_13">
    <path d="M 53.700994 115.989923 
L 54.616833 99.273911 
L 54.922112 101.205544 
L 55.227392 105.252201 
L 55.532671 94.91439 
L 55.837951 93.744772 
L 56.14323 97.418395 
L 56.753789 107.010758 
L 57.669627 69.509332 
L 57.974907 74.700968 
L 58.280186 87.91033 
L 58.585466 93.617431 
L 58.890745 95.468727 
L 59.196025 88.567371 
L 59.501304 92.776957 
L 59.806584 74.163882 
L 60.111863 72.388756 
L 60.417143 58.122179 
L 60.722422 64.958892 
L 61.027702 57.291804 
L 61.332981 57.340903 
L 61.638261 58.153075 
L 61.94354 61.408131 
L 62.24882 70.270884 
L 62.554099 75.165821 
L 63.164658 59.707164 
L 63.469938 57.409902 
L 63.775217 64.053795 
L 64.385776 59.258829 
L 64.691055 60.353268 
L 64.996335 51.274416 
L 65.301614 45.577579 
L 65.606894 34.270378 
L 65.912173 31.355315 
L 66.217453 21.153931 
L 66.522732 23.430236 
L 66.828012 31.632569 
L 67.133291 45.571673 
L 67.438571 44.670672 
L 67.74385 51.541871 
L 68.04913 47.553728 
L 68.354409 57.40735 
L 68.659689 45.190485 
L 68.964968 37.748952 
L 69.270248 39.270905 
L 69.575527 37.251391 
L 69.880806 46.394733 
L 70.186086 41.252745 
L 71.101924 54.467628 
L 71.407204 62.918754 
L 71.712483 59.911952 
L 72.323042 40.381026 
L 72.628322 36.225085 
L 72.933601 42.208599 
L 73.238881 52.157489 
L 73.54416 45.355166 
L 73.84944 55.899919 
L 74.154719 57.011111 
L 74.459999 60.263954 
L 74.765278 48.056591 
L 75.070558 45.651512 
L 75.681117 49.332375 
L 75.986396 46.002636 
L 76.902234 84.253228 
L 77.818073 64.367289 
L 78.123352 65.360359 
L 78.733911 81.006933 
L 79.039191 84.177825 
L 79.34447 80.755531 
L 79.955029 79.031315 
L 80.260309 86.186678 
L 80.565588 82.464515 
L 80.870868 94.767529 
L 81.481427 96.846572 
L 81.786706 99.640766 
L 82.091985 107.23458 
L 82.397265 124.599074 
L 83.007824 113.018583 
L 83.313103 105.248573 
L 83.618383 116.612618 
L 83.923662 115.33276 
L 84.228942 117.474226 
L 84.534221 108.381138 
L 84.839501 124.522974 
L 85.14478 133.790804 
L 85.45006 136.202952 
L 86.060619 113.606298 
L 86.365898 119.644481 
L 86.671178 122.344044 
L 86.976457 123.288497 
L 87.281737 129.631254 
L 87.587016 141.112116 
L 87.892295 147.394003 
L 88.197575 148.798333 
L 88.502854 143.533501 
L 88.808134 145.888404 
L 89.113413 151.511903 
L 89.418693 153.849787 
L 89.723972 158.875744 
L 90.029252 156.817189 
L 90.334531 160.427009 
L 90.639811 154.969163 
L 90.94509 153.565942 
L 91.555649 170.781899 
L 91.860929 176.520528 
L 92.166208 177.332595 
L 92.776767 183.597383 
L 93.692606 165.399736 
L 93.997885 166.031007 
L 94.303164 166.26802 
L 94.608444 173.67394 
L 95.219003 197.921413 
L 95.524282 204.837683 
L 95.829562 204.609489 
L 96.134841 194.117051 
L 96.440121 197.166764 
L 96.7454 195.166673 
L 97.05068 195.695493 
L 97.355959 193.657149 
L 97.661239 184.605006 
L 97.966518 191.136427 
L 98.271798 178.161162 
L 98.577077 191.434856 
L 98.882357 187.347139 
L 99.187636 189.420493 
L 99.492916 173.500496 
L 99.798195 174.579519 
L 100.408754 199.342275 
L 100.714033 208.696606 
L 101.019313 202.613771 
L 101.324592 199.59408 
L 101.935151 181.016688 
L 102.240431 174.548967 
L 102.54571 178.212466 
L 102.85099 175.914926 
L 103.156269 179.702066 
L 103.461549 170.814666 
L 103.766828 179.924378 
L 104.072108 176.28474 
L 104.377387 186.191632 
L 104.987946 173.41191 
L 105.293226 173.087215 
L 105.598505 173.776613 
L 105.903785 176.348847 
L 106.209064 174.393787 
L 106.514343 164.029236 
L 106.819623 174.033636 
L 107.124902 171.644235 
L 107.430182 181.955728 
L 107.735461 166.097044 
L 108.040741 169.177224 
L 108.34602 164.908176 
L 108.6513 173.741789 
L 108.956579 158.613244 
L 109.261859 156.705011 
L 109.567138 157.956859 
L 109.872418 162.188704 
L 110.482977 150.958643 
L 110.788256 150.666892 
L 111.093536 154.938562 
L 111.398815 152.464335 
L 111.704095 146.732449 
L 112.314653 150.277509 
L 112.619933 147.542473 
L 113.230492 137.977977 
L 113.535771 130.441507 
L 113.841051 113.855496 
L 114.14633 108.539911 
L 114.756889 121.285464 
L 115.672728 86.735574 
L 115.978007 88.476365 
L 116.283287 85.840811 
L 116.588566 98.369591 
L 116.893846 90.019938 
L 117.199125 95.674885 
L 117.504405 85.984051 
L 117.809684 93.442637 
L 118.114963 94.065364 
L 118.420243 101.688324 
L 118.725522 91.242962 
L 119.030802 92.091482 
L 119.336081 77.161029 
L 119.641361 73.506787 
L 119.94664 63.925959 
L 120.25192 61.541447 
L 120.557199 68.195883 
L 120.862479 61.821614 
L 121.167758 61.840184 
L 121.473038 58.797833 
L 121.778317 57.782461 
L 122.083597 59.776112 
L 122.388876 51.907575 
L 122.694156 58.633666 
L 122.999435 55.161802 
L 123.304715 69.09112 
L 123.609994 66.622133 
L 123.915274 62.308634 
L 124.220553 55.929479 
L 124.525832 52.219929 
L 124.831112 54.085893 
L 125.136391 42.196112 
L 125.441671 41.130863 
L 126.05223 52.15572 
L 126.357509 46.117422 
L 126.662789 47.084755 
L 126.968068 38.172207 
L 127.273348 35.836325 
L 127.578627 34.383786 
L 127.883907 40.16648 
L 128.189186 54.10916 
L 128.494466 46.481956 
L 128.799745 46.895468 
L 129.105025 45.624867 
L 129.410304 40.53731 
L 129.715584 40.225031 
L 130.020863 39.099568 
L 130.631422 44.811548 
L 130.936701 36.978172 
L 131.241981 39.814819 
L 131.54726 35.167134 
L 131.85254 34.922099 
L 132.463099 50.850565 
L 132.768378 63.108559 
L 133.073658 55.033947 
L 133.378937 55.106059 
L 133.684217 46.593456 
L 133.989496 46.456037 
L 134.600055 60.229662 
L 134.905335 57.212202 
L 135.210614 43.914158 
L 135.515894 39.382556 
L 135.821173 54.544139 
L 136.431732 67.842997 
L 136.737011 69.558359 
L 137.042291 74.140863 
L 137.65285 52.362769 
L 137.958129 55.262774 
L 138.263409 62.819988 
L 138.568688 80.837702 
L 138.873968 77.561397 
L 139.179247 87.55422 
L 139.484527 76.507522 
L 139.789806 80.154762 
L 140.095086 73.783787 
L 140.400365 76.732885 
L 140.705645 81.152255 
L 141.010924 92.740787 
L 141.316204 92.592753 
L 141.621483 89.887605 
L 141.926763 80.801383 
L 142.232042 90.847382 
L 142.537321 91.681473 
L 142.842601 88.641575 
L 143.14788 92.981669 
L 143.45316 93.154491 
L 143.758439 98.992929 
L 144.063719 97.534708 
L 144.674278 114.786939 
L 144.979557 111.725927 
L 145.284837 114.773723 
L 145.590116 111.091807 
L 145.895396 121.608528 
L 146.200675 126.163128 
L 146.811234 142.532677 
L 147.116514 145.467431 
L 147.421793 146.610314 
L 148.032352 154.233758 
L 148.337632 154.963007 
L 148.642911 148.30108 
L 148.94819 153.454687 
L 149.25347 155.691434 
L 149.558749 155.489952 
L 149.864029 145.167812 
L 150.169308 144.001506 
L 150.474588 149.231274 
L 150.779867 157.625989 
L 151.085147 160.944422 
L 151.390426 170.863231 
L 151.695706 171.274152 
L 152.000985 172.320526 
L 152.306265 160.324825 
L 152.611544 171.599071 
L 152.916824 173.376176 
L 153.222103 186.394864 
L 153.527383 178.174292 
L 153.832662 188.67553 
L 154.137942 181.443042 
L 154.443221 189.822083 
L 154.7485 185.930734 
L 155.05378 193.600006 
L 155.359059 196.577034 
L 155.969618 185.284637 
L 156.274898 186.41461 
L 156.580177 183.735416 
L 156.885457 189.080828 
L 157.190736 178.889317 
L 157.496016 184.471267 
L 157.801295 183.433172 
L 158.106575 185.604542 
L 159.022413 199.06462 
L 159.632972 192.110064 
L 159.938252 199.224402 
L 160.243531 201.936872 
L 160.54881 198.426057 
L 160.85409 188.772697 
L 161.464649 177.913038 
L 161.769928 182.31775 
L 162.075208 192.930242 
L 162.380487 196.769715 
L 162.685767 184.033968 
L 162.991046 187.087733 
L 163.296326 198.588708 
L 163.601605 214.756364 
L 163.906885 200.35978 
L 164.517444 194.091116 
L 164.822723 190.017256 
L 165.128003 190.520004 
L 165.433282 181.571685 
L 165.738562 185.600823 
L 166.043841 184.310667 
L 166.349121 184.291265 
L 166.6544 184.955872 
L 166.959679 171.859991 
L 167.264959 169.047919 
L 167.570238 171.581742 
L 168.180797 181.342999 
L 168.486077 173.63651 
L 168.791356 173.615808 
L 169.096636 167.796836 
L 169.401915 171.489164 
L 169.707195 172.645036 
L 170.012474 171.224667 
L 170.623033 157.04838 
L 171.233592 146.462081 
L 171.844151 134.498794 
L 172.149431 136.151608 
L 172.45471 140.586758 
L 172.759989 150.297074 
L 173.065269 150.524834 
L 173.675828 116.589063 
L 173.981107 114.000212 
L 174.286387 127.884222 
L 174.591666 127.870665 
L 174.896946 130.157992 
L 175.202225 110.996031 
L 175.507505 120.629271 
L 175.812784 121.698268 
L 176.118064 120.739879 
L 176.728623 89.351555 
L 177.033902 92.630656 
L 177.339182 91.514017 
L 177.644461 99.748618 
L 177.949741 104.287859 
L 178.25502 101.949061 
L 178.5603 90.795174 
L 178.865579 85.933965 
L 179.170858 94.898989 
L 179.781417 87.249129 
L 180.086697 87.141357 
L 180.391976 86.282929 
L 180.697256 81.466049 
L 181.002535 74.620051 
L 181.307815 77.832522 
L 181.613094 82.224549 
L 181.918374 81.726857 
L 182.223653 71.031941 
L 182.528933 56.3517 
L 182.834212 51.781033 
L 183.139492 63.529824 
L 183.750051 68.642669 
L 184.05533 55.596449 
L 184.36061 63.444062 
L 184.665889 55.804796 
L 184.971168 59.970323 
L 185.276448 51.55466 
L 185.581727 53.706352 
L 185.887007 54.60535 
L 186.497566 62.252418 
L 186.802845 61.620621 
L 187.108125 62.296517 
L 188.023963 40.816823 
L 188.329243 49.136527 
L 188.634522 43.147385 
L 188.939802 52.21248 
L 189.245081 46.214151 
L 189.550361 50.339076 
L 190.16092 27.825848 
L 190.466199 25.699201 
L 190.771478 34.810256 
L 191.076758 37.707783 
L 191.382037 47.242473 
L 191.687317 45.890256 
L 191.992596 52.835587 
L 192.297876 43.109006 
L 192.603155 45.761862 
L 193.213714 54.21277 
L 193.518994 55.976143 
L 193.824273 46.551137 
L 194.434832 37.121903 
L 194.740112 36.239354 
L 195.045391 40.311925 
L 195.65595 60.302357 
L 195.96123 56.392503 
L 196.266509 43.522401 
L 196.571789 48.342669 
L 196.877068 57.183292 
L 197.182347 62.13212 
L 197.792906 50.230465 
L 198.098186 63.166378 
L 198.403465 65.822209 
L 198.708745 77.63014 
L 199.014024 66.233697 
L 199.624583 75.0462 
L 199.929863 82.067791 
L 200.235142 75.552008 
L 200.540422 63.600954 
L 200.845701 66.647251 
L 201.45626 88.21332 
L 201.76154 97.311455 
L 202.066819 88.049021 
L 202.372099 89.268525 
L 202.677378 75.132816 
L 202.982657 87.805952 
L 203.287937 88.686565 
L 203.593216 91.392292 
L 203.898496 96.551529 
L 204.203775 94.456131 
L 204.509055 109.317444 
L 204.814334 101.772995 
L 205.119614 107.96108 
L 205.424893 107.628333 
L 206.340732 123.357481 
L 206.646011 120.921005 
L 206.951291 115.825115 
L 207.25657 121.498493 
L 207.867129 155.604139 
L 208.172409 149.941172 
L 208.477688 148.977865 
L 208.782968 137.368233 
L 209.088247 137.224055 
L 209.393526 127.93372 
L 209.698806 140.856368 
L 210.004085 147.284523 
L 210.309365 149.480875 
L 210.919924 155.189405 
L 211.225203 168.989257 
L 211.530483 164.622224 
L 211.835762 163.281824 
L 212.141042 159.101335 
L 212.751601 173.062116 
L 213.05688 174.154705 
L 213.36216 164.058241 
L 213.667439 160.788709 
L 213.972719 169.117134 
L 214.277998 173.818647 
L 214.583278 184.934254 
L 214.888557 181.717782 
L 215.193836 185.471689 
L 215.499116 173.624814 
L 215.804395 175.537151 
L 216.109675 181.149353 
L 216.414954 193.202283 
L 216.720234 186.437515 
L 217.025513 176.104847 
L 217.330793 173.667105 
L 217.636072 176.080212 
L 217.941352 181.290068 
L 218.246631 177.076831 
L 218.551911 178.02309 
L 218.85719 189.827386 
L 219.16247 194.686075 
L 219.467749 195.678878 
L 219.773029 184.80993 
L 220.383588 186.937904 
L 220.688867 194.500069 
L 220.994147 196.931068 
L 221.299426 206.348425 
L 221.604705 211.026125 
L 221.909985 202.701897 
L 222.520544 180.182242 
L 222.825823 182.75971 
L 223.131103 191.308535 
L 223.436382 195.579528 
L 223.741662 204.245699 
L 224.046941 207.389161 
L 224.6575 196.142463 
L 224.96278 188.727545 
L 225.268059 191.883341 
L 225.573339 188.026976 
L 225.878618 194.917334 
L 226.489177 185.297835 
L 226.794457 174.075932 
L 227.405015 163.250644 
L 227.710295 165.372896 
L 228.015574 162.578293 
L 228.320854 166.507814 
L 228.626133 165.099891 
L 228.931413 169.492207 
L 229.236692 171.716189 
L 229.541972 161.185575 
L 229.847251 161.55057 
L 230.152531 157.249866 
L 230.45781 162.971021 
L 230.76309 157.983809 
L 231.068369 150.599125 
L 231.678928 131.054136 
L 232.594767 153.011112 
L 232.900046 138.337897 
L 233.205325 134.433472 
L 233.510605 124.613648 
L 233.815884 131.545852 
L 234.121164 134.249526 
L 234.426443 144.962946 
L 234.731723 137.894326 
L 235.037002 135.021192 
L 235.342282 117.008026 
L 235.647561 124.468453 
L 235.952841 127.167139 
L 236.25812 141.681948 
L 236.5634 142.248647 
L 236.868679 140.166315 
L 237.479238 111.030041 
L 237.784518 107.826516 
L 238.700356 89.386014 
L 239.005636 96.936255 
L 239.310915 97.876141 
L 239.616194 100.414925 
L 239.921474 98.513556 
L 240.226753 101.922838 
L 240.837312 96.062251 
L 241.142592 87.52933 
L 241.447871 69.985887 
L 241.753151 74.70525 
L 242.05843 76.118124 
L 242.36371 78.76045 
L 242.668989 76.187994 
L 242.974269 70.228308 
L 243.279548 79.200794 
L 243.584828 61.485506 
L 243.890107 67.412353 
L 244.195387 64.22275 
L 244.500666 80.032321 
L 245.416504 68.301115 
L 245.721784 69.228773 
L 246.332343 49.353174 
L 246.637622 36.604199 
L 246.942902 40.159876 
L 247.248181 50.504443 
L 247.553461 55.512759 
L 247.85874 55.689992 
L 248.16402 38.755571 
L 248.469299 32.859775 
L 248.774579 29.71641 
L 249.079858 34.146061 
L 249.385138 33.727079 
L 249.690417 28.675487 
L 250.300976 41.317364 
L 250.606256 40.599347 
L 250.911535 35.880192 
L 251.216815 35.197857 
L 251.522094 46.286547 
L 251.827373 36.699239 
L 252.132653 31.034231 
L 252.437932 17.083636 
L 252.743212 24.966202 
L 253.048491 27.530724 
L 253.353771 42.056877 
L 253.65905 40.92814 
L 253.96433 45.528212 
L 254.269609 39.669806 
L 254.574889 47.166339 
L 254.880168 43.327396 
L 255.185448 45.363713 
L 255.490727 40.021597 
L 255.796007 54.807178 
L 256.101286 48.393126 
L 256.406566 47.192993 
L 256.711845 46.482598 
L 257.017125 50.589937 
L 257.322404 57.548741 
L 257.627683 58.556311 
L 257.932963 71.447488 
L 258.238242 76.758212 
L 258.543522 68.752797 
L 258.848801 68.067239 
L 259.154081 56.958602 
L 259.45936 63.064767 
L 259.76464 51.898113 
L 260.069919 65.528755 
L 260.375199 67.043989 
L 260.680478 79.005864 
L 260.985758 84.750784 
L 261.596317 75.727789 
L 261.901596 76.156539 
L 262.512155 88.040551 
L 262.817435 76.055584 
L 263.733273 107.898663 
L 264.038552 98.987405 
L 264.343832 102.466313 
L 264.649111 93.692485 
L 264.954391 100.410869 
L 265.25967 91.628716 
L 265.56495 104.99424 
L 265.870229 111.791387 
L 266.175509 124.248657 
L 266.480788 120.181702 
L 266.786068 114.271506 
L 267.091347 113.336658 
L 267.396627 115.792677 
L 268.007186 118.479539 
L 268.312465 121.536095 
L 268.617745 121.210301 
L 268.923024 117.31699 
L 269.228304 125.999862 
L 269.838862 152.833375 
L 270.144142 150.703487 
L 270.449421 155.742565 
L 270.754701 156.420087 
L 271.05998 153.444281 
L 271.36526 140.054019 
L 271.670539 135.989027 
L 271.975819 146.647729 
L 272.281098 151.245998 
L 272.586378 166.316334 
L 272.891657 170.311832 
L 273.196937 185.041239 
L 273.502216 182.009737 
L 274.112775 168.868034 
L 274.418055 173.741849 
L 274.723334 185.865305 
L 275.028614 186.104971 
L 275.639172 170.647933 
L 276.249731 189.906211 
L 276.555011 191.566228 
L 276.86029 188.782469 
L 277.16557 189.30424 
L 277.470849 188.61826 
L 277.776129 194.395397 
L 278.081408 195.678769 
L 278.691967 195.699016 
L 278.997247 186.422136 
L 279.302526 195.399193 
L 279.607806 184.57789 
L 279.913085 181.278773 
L 280.218365 181.093468 
L 280.523644 179.37503 
L 280.828924 195.526895 
L 281.134203 202.769301 
L 281.439483 213.422893 
L 281.744762 196.219617 
L 282.050041 191.471895 
L 282.355321 190.83487 
L 282.6606 192.186232 
L 282.96588 195.603163 
L 283.271159 189.584427 
L 283.576439 194.995007 
L 283.881718 190.888585 
L 284.186998 200.092615 
L 284.797557 192.086206 
L 285.102836 192.756754 
L 285.408116 194.661654 
L 285.713395 197.280557 
L 286.018675 187.79323 
L 286.323954 184.947526 
L 286.629234 177.03371 
L 287.239793 184.212568 
L 287.545072 193.174363 
L 287.850351 186.390213 
L 288.155631 190.759627 
L 288.46091 190.838337 
L 288.76619 195.079203 
L 289.071469 190.177162 
L 289.682028 163.053316 
L 289.987308 162.698921 
L 290.292587 162.024906 
L 290.597867 168.377515 
L 290.903146 167.403247 
L 291.208426 170.814676 
L 291.513705 162.728901 
L 292.124264 139.719507 
L 292.429544 144.202224 
L 292.734823 150.424747 
L 293.040103 152.695 
L 293.345382 152.421076 
L 293.955941 134.726023 
L 294.5665 124.048965 
L 294.871779 128.041442 
L 295.177059 127.735071 
L 295.482338 136.597125 
L 295.787618 138.083966 
L 296.092897 140.996104 
L 296.398177 126.471476 
L 296.703456 123.529552 
L 297.008736 106.936995 
L 297.314015 110.469762 
L 297.619295 105.182501 
L 297.924574 106.362664 
L 298.229854 104.740585 
L 298.535133 102.211512 
L 298.840413 110.589545 
L 299.145692 109.744076 
L 299.450972 103.17176 
L 299.756251 87.392591 
L 300.06153 87.585876 
L 300.672089 101.048207 
L 300.977369 93.730066 
L 301.282648 94.826158 
L 301.587928 88.270254 
L 301.893207 86.116501 
L 302.198487 70.324311 
L 302.809046 84.429334 
L 303.114325 87.106071 
L 303.419605 81.072332 
L 303.724884 64.826336 
L 304.030164 69.898186 
L 304.946002 56.941438 
L 305.251282 45.810111 
L 305.556561 60.055846 
L 305.86184 49.384673 
L 306.16712 47.773561 
L 306.472399 40.56082 
L 306.777679 54.014516 
L 307.082958 52.840061 
L 307.693517 29.552711 
L 307.998797 38.105608 
L 308.304076 37.014238 
L 308.609356 50.056322 
L 309.219915 61.520098 
L 309.830474 36.669645 
L 310.135753 36.442661 
L 310.441033 34.568482 
L 310.746312 30.031744 
L 311.051592 32.168117 
L 311.662151 39.052299 
L 311.96743 31.778434 
L 312.272709 29.363293 
L 312.883268 51.720342 
L 313.188548 56.336466 
L 313.493827 40.597048 
L 313.799107 43.492133 
L 314.104386 45.310431 
L 314.409666 61.195965 
L 314.714945 57.105058 
L 315.020225 62.257657 
L 315.325504 47.113739 
L 315.630784 46.344711 
L 315.936063 31.363811 
L 316.241343 42.530178 
L 316.546622 43.727964 
L 316.851902 46.188745 
L 317.157181 51.32736 
L 317.462461 53.269534 
L 317.76774 62.955584 
L 318.073019 62.379079 
L 318.378299 60.330765 
L 318.683578 69.079415 
L 319.294137 78.363212 
L 319.599417 71.31787 
L 319.904696 70.646894 
L 320.209976 65.324567 
L 320.515255 68.99929 
L 320.820535 65.07261 
L 321.125814 62.725262 
L 321.431094 57.348501 
L 321.736373 64.873353 
L 322.041653 80.578908 
L 322.346932 88.290436 
L 322.957491 74.141683 
L 323.262771 77.693497 
L 323.56805 91.9386 
L 323.87333 90.28264 
L 324.178609 89.781062 
L 324.483888 90.134984 
L 324.789168 100.556591 
L 325.094447 101.907645 
L 325.399727 105.594973 
L 325.705006 101.734103 
L 326.010286 101.334913 
L 326.315565 96.009949 
L 326.620845 97.251719 
L 326.926124 104.551516 
L 327.231404 102.245214 
L 327.841963 121.91452 
L 328.147242 136.789269 
L 328.452522 131.591944 
L 328.757801 133.172702 
L 329.063081 124.285368 
L 329.36836 134.270788 
L 329.67364 127.286157 
L 329.978919 128.991334 
L 330.894757 139.131178 
L 331.200037 134.961201 
L 332.115875 152.905889 
L 332.421155 150.323049 
L 332.726434 146.377359 
L 333.031714 151.004595 
L 333.642273 168.346797 
L 333.947552 175.385163 
L 334.252832 162.916254 
L 334.558111 159.35833 
L 334.863391 157.67518 
L 335.16867 167.845813 
L 335.47395 167.850542 
L 335.779229 160.180449 
L 336.389788 174.311126 
L 336.695067 186.988114 
L 337.000347 182.755346 
L 337.305626 181.87208 
L 337.610906 172.786195 
L 337.916185 173.120968 
L 338.526744 190.955353 
L 339.137303 207.601769 
L 339.747862 192.535417 
L 340.053142 191.900444 
L 340.358421 194.444819 
L 340.663701 197.971671 
L 340.96898 184.23478 
L 341.27426 184.152576 
L 341.579539 178.771135 
L 341.884819 184.632977 
L 342.800657 212.719778 
L 343.105936 210.332095 
L 343.411216 205.822418 
L 343.716495 204.302353 
L 344.021775 201.753021 
L 344.327054 207.745151 
L 344.632334 204.928843 
L 344.937613 209.383536 
L 345.242893 208.2532 
L 345.548172 202.139424 
L 345.853452 190.492056 
L 346.158731 191.296356 
L 346.76929 202.188331 
L 347.07457 193.556208 
L 347.379849 192.898763 
L 347.685129 198.749766 
L 347.990408 191.807977 
L 348.906246 163.845993 
L 349.211526 167.110657 
L 349.516805 165.432888 
L 349.822085 180.424301 
L 350.127364 173.537076 
L 350.432644 177.558907 
L 350.737923 159.218309 
L 351.043203 157.763737 
L 351.348482 157.976 
L 351.653762 169.635277 
L 351.959041 163.409596 
L 352.5696 136.600576 
L 352.87488 139.592666 
L 353.180159 141.011195 
L 353.790718 156.68045 
L 354.095998 157.090734 
L 354.401277 153.479985 
L 354.706556 135.929129 
L 355.011836 136.492091 
L 355.317115 134.427736 
L 355.622395 138.299844 
L 355.927674 127.25705 
L 356.232954 127.338033 
L 356.843513 140.878587 
L 357.148792 137.941322 
L 357.454072 130.640484 
L 357.759351 120.318879 
L 358.064631 117.815086 
L 358.064631 117.815086 
" clip-path="url(#pc6f9733c5e)" style="fill: none; stroke: #1f77b4; stroke-width: 1.5; stroke-linecap: square"/>
   </g>
   <g id="patch_3">
    <path d="M 38.482813 224.64 
L 38.482813 7.2 
" style="fill: none; stroke: #000000; stroke-width: 0.8; stroke-linejoin: miter; stroke-linecap: square"/>
   </g>
   <g id="patch_4">
    <path d="M 373.282813 224.64 
L 373.282813 7.2 
" style="fill: none; stroke: #000000; stroke-width: 0.8; stroke-linejoin: miter; stroke-linecap: square"/>
   </g>
   <g id="patch_5">
    <path d="M 38.482813 224.64 
L 373.282813 224.64 
" style="fill: none; stroke: #000000; stroke-width: 0.8; stroke-linejoin: miter; stroke-linecap: square"/>
   </g>
   <g id="patch_6">
    <path d="M 38.482813 7.2 
L 373.282813 7.2 
" style="fill: none; stroke: #000000; stroke-width: 0.8; stroke-linejoin: miter; stroke-linecap: square"/>
   </g>
  </g>
 </g>
 <defs>
  <clipPath id="pc6f9733c5e">
   <rect x="38.482813" y="7.2" width="334.8" height="217.44"/>
  </clipPath>
 </defs>
</svg>
