<?xml version="1.0" encoding="utf-8" standalone="no"?>
<!DOCTYPE svg PUBLIC "-//W3C//DTD SVG 1.1//EN"
  "http://www.w3.org/Graphics/SVG/1.1/DTD/svg11.dtd">
<svg xmlns:xlink="http://www.w3.org/1999/xlink" width="380.482813pt" height="248.518125pt" viewBox="0 0 380.482813 248.518125" xmlns="http://www.w3.org/2000/svg" version="1.1">
 <metadata>
  <rdf:RDF xmlns:dc="http://purl.org/dc/elements/1.1/" xmlns:cc="http://creativecommons.org/ns#" xmlns:rdf="http://www.w3.org/1999/02/22-rdf-syntax-ns#">
   <cc:Work>
    <dc:type rdf:resource="http://purl.org/dc/dcmitype/StillImage"/>
    <dc:date>2022-07-20T10:47:42.577539</dc:date>
    <dc:format>image/svg+xml</dc:format>
    <dc:creator>
     <cc:Agent>
      <dc:title>Matplotlib v3.5.2, https://matplotlib.org/</dc:title>
     </cc:Agent>
    </dc:creator>
   </cc:Work>
  </rdf:RDF>
 </metadata>
 <defs>
  <style type="text/css">*{stroke-linejoin: round; stroke-linecap: butt}</style>
 </defs>
 <g id="figure_1">
  <g id="patch_1">
   <path d="M -0 248.518125 
L 380.482813 248.518125 
L 380.482813 0 
L -0 0 
L -0 248.518125 
z
" style="fill: none"/>
  </g>
  <g id="axes_1">
   <g id="patch_2">
    <path d="M 38.482813 224.64 
L 373.282813 224.64 
L 373.282813 7.2 
L 38.482813 7.2 
z
" style="fill: #ffffff"/>
   </g>
   <g id="matplotlib.axis_1">
    <g id="xtick_1">
     <g id="line2d_1">
      <defs>
       <path id="maa4d7c53d2" d="M 0 0 
L 0 3.5 
" style="stroke: #000000; stroke-width: 0.8"/>
      </defs>
      <g>
       <use xlink:href="#maa4d7c53d2" x="53.089208" y="224.64" style="stroke: #000000; stroke-width: 0.8"/>
      </g>
     </g>
     <g id="text_1">
      <!-- 0 -->
      <g transform="translate(49.907958 239.238438)scale(0.1 -0.1)">
       <defs>
        <path id="DejaVuSans-30" d="M 2034 4250 
Q 1547 4250 1301 3770 
Q 1056 3291 1056 2328 
Q 1056 1369 1301 889 
Q 1547 409 2034 409 
Q 2525 409 2770 889 
Q 3016 1369 3016 2328 
Q 3016 3291 2770 3770 
Q 2525 4250 2034 4250 
z
M 2034 4750 
Q 2819 4750 3233 4129 
Q 3647 3509 3647 2328 
Q 3647 1150 3233 529 
Q 2819 -91 2034 -91 
Q 1250 -91 836 529 
Q 422 1150 422 2328 
Q 422 3509 836 4129 
Q 1250 4750 2034 4750 
z
" transform="scale(0.015625)"/>
       </defs>
       <use xlink:href="#DejaVuSans-30"/>
      </g>
     </g>
    </g>
    <g id="xtick_2">
     <g id="line2d_2">
      <g>
       <use xlink:href="#maa4d7c53d2" x="101.724923" y="224.64" style="stroke: #000000; stroke-width: 0.8"/>
      </g>
     </g>
     <g id="text_2">
      <!-- 5 -->
      <g transform="translate(98.543673 239.238438)scale(0.1 -0.1)">
       <defs>
        <path id="DejaVuSans-35" d="M 691 4666 
L 3169 4666 
L 3169 4134 
L 1269 4134 
L 1269 2991 
Q 1406 3038 1543 3061 
Q 1681 3084 1819 3084 
Q 2600 3084 3056 2656 
Q 3513 2228 3513 1497 
Q 3513 744 3044 326 
Q 2575 -91 1722 -91 
Q 1428 -91 1123 -41 
Q 819 9 494 109 
L 494 744 
Q 775 591 1075 516 
Q 1375 441 1709 441 
Q 2250 441 2565 725 
Q 2881 1009 2881 1497 
Q 2881 1984 2565 2268 
Q 2250 2553 1709 2553 
Q 1456 2553 1204 2497 
Q 953 2441 691 2322 
L 691 4666 
z
" transform="scale(0.015625)"/>
       </defs>
       <use xlink:href="#DejaVuSans-35"/>
      </g>
     </g>
    </g>
    <g id="xtick_3">
     <g id="line2d_3">
      <g>
       <use xlink:href="#maa4d7c53d2" x="150.360638" y="224.64" style="stroke: #000000; stroke-width: 0.8"/>
      </g>
     </g>
     <g id="text_3">
      <!-- 10 -->
      <g transform="translate(143.998138 239.238438)scale(0.1 -0.1)">
       <defs>
        <path id="DejaVuSans-31" d="M 794 531 
L 1825 531 
L 1825 4091 
L 703 3866 
L 703 4441 
L 1819 4666 
L 2450 4666 
L 2450 531 
L 3481 531 
L 3481 0 
L 794 0 
L 794 531 
z
" transform="scale(0.015625)"/>
       </defs>
       <use xlink:href="#DejaVuSans-31"/>
       <use xlink:href="#DejaVuSans-30" x="63.623047"/>
      </g>
     </g>
    </g>
    <g id="xtick_4">
     <g id="line2d_4">
      <g>
       <use xlink:href="#maa4d7c53d2" x="198.996353" y="224.64" style="stroke: #000000; stroke-width: 0.8"/>
      </g>
     </g>
     <g id="text_4">
      <!-- 15 -->
      <g transform="translate(192.633853 239.238438)scale(0.1 -0.1)">
       <use xlink:href="#DejaVuSans-31"/>
       <use xlink:href="#DejaVuSans-35" x="63.623047"/>
      </g>
     </g>
    </g>
    <g id="xtick_5">
     <g id="line2d_5">
      <g>
       <use xlink:href="#maa4d7c53d2" x="247.632067" y="224.64" style="stroke: #000000; stroke-width: 0.8"/>
      </g>
     </g>
     <g id="text_5">
      <!-- 20 -->
      <g transform="translate(241.269567 239.238438)scale(0.1 -0.1)">
       <defs>
        <path id="DejaVuSans-32" d="M 1228 531 
L 3431 531 
L 3431 0 
L 469 0 
L 469 531 
Q 828 903 1448 1529 
Q 2069 2156 2228 2338 
Q 2531 2678 2651 2914 
Q 2772 3150 2772 3378 
Q 2772 3750 2511 3984 
Q 2250 4219 1831 4219 
Q 1534 4219 1204 4116 
Q 875 4013 500 3803 
L 500 4441 
Q 881 4594 1212 4672 
Q 1544 4750 1819 4750 
Q 2544 4750 2975 4387 
Q 3406 4025 3406 3419 
Q 3406 3131 3298 2873 
Q 3191 2616 2906 2266 
Q 2828 2175 2409 1742 
Q 1991 1309 1228 531 
z
" transform="scale(0.015625)"/>
       </defs>
       <use xlink:href="#DejaVuSans-32"/>
       <use xlink:href="#DejaVuSans-30" x="63.623047"/>
      </g>
     </g>
    </g>
    <g id="xtick_6">
     <g id="line2d_6">
      <g>
       <use xlink:href="#maa4d7c53d2" x="296.267782" y="224.64" style="stroke: #000000; stroke-width: 0.8"/>
      </g>
     </g>
     <g id="text_6">
      <!-- 25 -->
      <g transform="translate(289.905282 239.238438)scale(0.1 -0.1)">
       <use xlink:href="#DejaVuSans-32"/>
       <use xlink:href="#DejaVuSans-35" x="63.623047"/>
      </g>
     </g>
    </g>
    <g id="xtick_7">
     <g id="line2d_7">
      <g>
       <use xlink:href="#maa4d7c53d2" x="344.903497" y="224.64" style="stroke: #000000; stroke-width: 0.8"/>
      </g>
     </g>
     <g id="text_7">
      <!-- 30 -->
      <g transform="translate(338.540997 239.238438)scale(0.1 -0.1)">
       <defs>
        <path id="DejaVuSans-33" d="M 2597 2516 
Q 3050 2419 3304 2112 
Q 3559 1806 3559 1356 
Q 3559 666 3084 287 
Q 2609 -91 1734 -91 
Q 1441 -91 1130 -33 
Q 819 25 488 141 
L 488 750 
Q 750 597 1062 519 
Q 1375 441 1716 441 
Q 2309 441 2620 675 
Q 2931 909 2931 1356 
Q 2931 1769 2642 2001 
Q 2353 2234 1838 2234 
L 1294 2234 
L 1294 2753 
L 1863 2753 
Q 2328 2753 2575 2939 
Q 2822 3125 2822 3475 
Q 2822 3834 2567 4026 
Q 2313 4219 1838 4219 
Q 1578 4219 1281 4162 
Q 984 4106 628 3988 
L 628 4550 
Q 988 4650 1302 4700 
Q 1616 4750 1894 4750 
Q 2613 4750 3031 4423 
Q 3450 4097 3450 3541 
Q 3450 3153 3228 2886 
Q 3006 2619 2597 2516 
z
" transform="scale(0.015625)"/>
       </defs>
       <use xlink:href="#DejaVuSans-33"/>
       <use xlink:href="#DejaVuSans-30" x="63.623047"/>
      </g>
     </g>
    </g>
   </g>
   <g id="matplotlib.axis_2">
    <g id="ytick_1">
     <g id="line2d_8">
      <defs>
       <path id="mdfe91638da" d="M 0 0 
L -3.5 0 
" style="stroke: #000000; stroke-width: 0.8"/>
      </defs>
      <g>
       <use xlink:href="#mdfe91638da" x="38.482813" y="198.136592" style="stroke: #000000; stroke-width: 0.8"/>
      </g>
     </g>
     <g id="text_8">
      <!-- −1.0 -->
      <g transform="translate(7.2 201.935811)scale(0.1 -0.1)">
       <defs>
        <path id="DejaVuSans-2212" d="M 678 2272 
L 4684 2272 
L 4684 1741 
L 678 1741 
L 678 2272 
z
" transform="scale(0.015625)"/>
        <path id="DejaVuSans-2e" d="M 684 794 
L 1344 794 
L 1344 0 
L 684 0 
L 684 794 
z
" transform="scale(0.015625)"/>
       </defs>
       <use xlink:href="#DejaVuSans-2212"/>
       <use xlink:href="#DejaVuSans-31" x="83.789062"/>
       <use xlink:href="#DejaVuSans-2e" x="147.412109"/>
       <use xlink:href="#DejaVuSans-30" x="179.199219"/>
      </g>
     </g>
    </g>
    <g id="ytick_2">
     <g id="line2d_9">
      <g>
       <use xlink:href="#mdfe91638da" x="38.482813" y="156.717843" style="stroke: #000000; stroke-width: 0.8"/>
      </g>
     </g>
     <g id="text_9">
      <!-- −0.5 -->
      <g transform="translate(7.2 160.517062)scale(0.1 -0.1)">
       <use xlink:href="#DejaVuSans-2212"/>
       <use xlink:href="#DejaVuSans-30" x="83.789062"/>
       <use xlink:href="#DejaVuSans-2e" x="147.412109"/>
       <use xlink:href="#DejaVuSans-35" x="179.199219"/>
      </g>
     </g>
    </g>
    <g id="ytick_3">
     <g id="line2d_10">
      <g>
       <use xlink:href="#mdfe91638da" x="38.482813" y="115.299095" style="stroke: #000000; stroke-width: 0.8"/>
      </g>
     </g>
     <g id="text_10">
      <!-- 0.0 -->
      <g transform="translate(15.579688 119.098314)scale(0.1 -0.1)">
       <use xlink:href="#DejaVuSans-30"/>
       <use xlink:href="#DejaVuSans-2e" x="63.623047"/>
       <use xlink:href="#DejaVuSans-30" x="95.410156"/>
      </g>
     </g>
    </g>
    <g id="ytick_4">
     <g id="line2d_11">
      <g>
       <use xlink:href="#mdfe91638da" x="38.482813" y="73.880346" style="stroke: #000000; stroke-width: 0.8"/>
      </g>
     </g>
     <g id="text_11">
      <!-- 0.5 -->
      <g transform="translate(15.579688 77.679565)scale(0.1 -0.1)">
       <use xlink:href="#DejaVuSans-30"/>
       <use xlink:href="#DejaVuSans-2e" x="63.623047"/>
       <use xlink:href="#DejaVuSans-35" x="95.410156"/>
      </g>
     </g>
    </g>
    <g id="ytick_5">
     <g id="line2d_12">
      <g>
       <use xlink:href="#mdfe91638da" x="38.482813" y="32.461598" style="stroke: #000000; stroke-width: 0.8"/>
      </g>
     </g>
     <g id="text_12">
      <!-- 1.0 -->
      <g transform="translate(15.579688 36.260817)scale(0.1 -0.1)">
       <use xlink:href="#DejaVuSans-31"/>
       <use xlink:href="#DejaVuSans-2e" x="63.623047"/>
       <use xlink:href="#DejaVuSans-30" x="95.410156"/>
      </g>
     </g>
    </g>
   </g>
   <g id="line2d_13">
    <path d="M 53.700994 102.193878 
L 54.006887 95.343463 
L 54.312781 91.899248 
L 54.618674 91.598288 
L 55.23046 84.573682 
L 55.536353 78.078391 
L 55.842246 77.64154 
L 56.148139 80.230128 
L 56.454032 87.873133 
L 56.759925 91.393563 
L 57.065818 89.465993 
L 57.677605 68.989468 
L 57.983498 59.135373 
L 58.289391 57.168359 
L 58.595284 58.059315 
L 58.901177 61.923325 
L 59.20707 60.886775 
L 59.512963 61.966737 
L 59.818856 61.39491 
L 60.124749 61.141848 
L 60.736536 65.858596 
L 61.042429 66.630932 
L 61.348322 60.15792 
L 61.654215 50.568595 
L 61.960108 45.823659 
L 62.266001 47.997177 
L 62.571894 51.443671 
L 62.877787 50.768601 
L 63.489574 37.119964 
L 63.795467 34.477913 
L 64.10136 34.669534 
L 64.407253 37.601718 
L 64.713146 35.646727 
L 65.019039 38.936053 
L 65.324932 38.59716 
L 65.630825 42.354467 
L 65.936718 40.00655 
L 66.242611 35.46986 
L 66.854398 20.86815 
L 67.160291 19.669383 
L 67.466184 24.027321 
L 68.07797 41.807571 
L 68.383863 42.564022 
L 68.689756 36.445883 
L 68.995649 33.4626 
L 69.301543 34.509643 
L 69.607436 37.051046 
L 69.913329 35.12861 
L 70.219222 38.868298 
L 70.831008 42.44617 
L 71.136901 35.933258 
L 71.442794 37.169262 
L 71.748687 42.786654 
L 72.05458 50.8915 
L 72.360474 53.346423 
L 72.666367 53.617854 
L 73.278153 58.505114 
L 73.584046 56.008645 
L 73.889939 49.203995 
L 74.195832 46.080206 
L 74.807618 48.732897 
L 75.113511 47.62322 
L 75.419405 52.281137 
L 76.031191 71.239365 
L 76.337084 69.584306 
L 76.642977 62.447077 
L 76.94887 60.106416 
L 77.254763 61.015361 
L 77.866549 66.172898 
L 79.090122 90.122402 
L 79.396015 93.910552 
L 79.701908 93.000503 
L 80.007801 89.824224 
L 80.313694 90.628296 
L 80.619587 98.087003 
L 80.92548 102.732681 
L 81.231373 104.097919 
L 81.537267 98.771672 
L 81.84316 95.89429 
L 82.149053 96.985263 
L 82.454946 102.948411 
L 83.066732 122.584447 
L 83.372625 128.918876 
L 83.678518 129.148751 
L 83.984411 126.649776 
L 84.290305 125.749694 
L 84.596198 128.428049 
L 84.902091 128.656464 
L 85.513877 122.119951 
L 85.81977 122.981004 
L 86.737449 141.582458 
L 87.043342 142.76706 
L 87.655129 148.269526 
L 87.961022 152.461934 
L 88.266915 148.712079 
L 88.878701 138.213167 
L 89.184594 144.2832 
L 89.79638 164.783623 
L 90.102273 169.010931 
L 90.408167 166.10313 
L 91.019953 173.229614 
L 91.325846 178.93595 
L 91.631739 173.979527 
L 91.937632 170.940743 
L 92.243525 172.296275 
L 92.549418 182.606376 
L 93.161204 189.044872 
L 93.467098 189.952812 
L 93.772991 197.291788 
L 94.078884 195.706303 
L 94.384777 192.566263 
L 94.69067 187.251767 
L 94.996563 192.958097 
L 95.302456 194.93175 
L 95.608349 195.70727 
L 95.914242 188.81433 
L 96.220135 186.16355 
L 96.526029 185.484367 
L 96.831922 188.488338 
L 97.137815 193.957098 
L 97.749601 210.539745 
L 98.055494 210.98682 
L 98.361387 208.178907 
L 98.66728 200.369603 
L 98.973173 199.562055 
L 99.279066 198.049622 
L 99.58496 197.320855 
L 99.890853 198.231988 
L 100.196746 200.207433 
L 100.502639 206.093222 
L 100.808532 204.029635 
L 101.114425 196.297999 
L 101.420318 184.664747 
L 101.726211 180.591704 
L 102.032104 185.883172 
L 102.643891 201.03495 
L 102.949784 204.079903 
L 103.255677 204.056723 
L 103.56157 202.1005 
L 103.867463 196.598154 
L 104.173356 195.048283 
L 104.479249 190.721014 
L 104.785142 188.5194 
L 105.091035 181.108312 
L 105.396929 181.74043 
L 105.702822 182.007198 
L 106.008715 183.381657 
L 106.314608 181.660411 
L 106.620501 179.053804 
L 106.926394 178.284971 
L 107.232287 175.026205 
L 107.53818 175.613771 
L 107.844073 173.781481 
L 108.149966 173.952615 
L 108.45586 170.986753 
L 108.761753 170.426277 
L 109.373539 167.297201 
L 109.679432 162.699849 
L 110.597111 140.831719 
L 110.903004 140.582823 
L 111.208897 138.564238 
L 111.820684 131.120742 
L 112.126577 129.945145 
L 112.43247 126.282604 
L 112.738363 125.374446 
L 113.044256 126.335043 
L 113.350149 131.144242 
L 113.656042 131.157519 
L 113.961935 130.633559 
L 114.573722 124.350386 
L 114.879615 120.536008 
L 115.491401 103.200507 
L 115.797294 89.575909 
L 116.40908 74.237185 
L 116.714973 75.137963 
L 117.020866 79.586263 
L 117.32676 87.229551 
L 117.632653 89.451499 
L 118.244439 83.171926 
L 118.856225 79.243683 
L 119.468011 59.845545 
L 119.773904 55.535399 
L 120.385691 63.065217 
L 120.691584 62.791571 
L 120.997477 59.51632 
L 121.30337 57.803781 
L 121.609263 57.782142 
L 121.915156 63.939097 
L 122.221049 63.897467 
L 122.526942 63.22125 
L 122.832835 57.282687 
L 123.138728 55.292138 
L 123.750515 46.681741 
L 124.668194 48.325573 
L 124.974087 43.031228 
L 125.27998 41.392016 
L 125.585873 38.52908 
L 125.891766 38.567491 
L 126.197659 38.918854 
L 126.503553 38.480182 
L 126.809446 33.755785 
L 127.115339 25.514164 
L 127.421232 22.602419 
L 127.727125 25.239643 
L 128.033018 36.127844 
L 128.338911 41.438481 
L 128.644804 39.00237 
L 128.950697 24.658212 
L 129.25659 17.083636 
L 129.562484 19.573381 
L 129.868377 31.872219 
L 130.17427 38.944826 
L 130.480163 37.977438 
L 130.786056 32.689828 
L 131.091949 32.282144 
L 131.397842 33.819063 
L 131.703735 37.279008 
L 132.009628 32.486393 
L 132.315521 31.388699 
L 132.621415 25.222767 
L 132.927308 25.316778 
L 133.233201 26.836684 
L 133.844987 45.828032 
L 134.15088 48.111815 
L 134.456773 41.853006 
L 134.762666 39.069407 
L 135.068559 39.368481 
L 135.374453 48.179888 
L 135.986239 55.34061 
L 136.292132 50.606428 
L 136.598025 51.606872 
L 136.903918 48.797292 
L 137.515704 54.533701 
L 137.821597 61.838641 
L 138.12749 63.070716 
L 138.433384 58.501864 
L 138.739277 51.129848 
L 139.04517 52.592002 
L 139.351063 57.753277 
L 139.656956 67.141307 
L 140.268742 75.224364 
L 140.574635 75.586497 
L 140.880528 75.194823 
L 141.186421 73.178915 
L 141.492315 74.70522 
L 141.798208 80.834544 
L 142.409994 105.300113 
L 142.715887 111.231263 
L 143.02178 108.382159 
L 143.633566 96.911277 
L 143.939459 100.425422 
L 144.245352 106.953968 
L 144.551246 117.999567 
L 145.163032 120.714923 
L 145.468925 120.675165 
L 145.774818 125.291164 
L 146.080711 125.840253 
L 146.386604 126.097632 
L 146.692497 129.131116 
L 146.99839 136.287149 
L 147.304283 146.264676 
L 147.91607 156.83239 
L 148.221963 154.627239 
L 148.527856 150.937147 
L 148.833749 144.720688 
L 149.139642 143.087736 
L 149.445535 146.947027 
L 149.751428 145.329252 
L 150.363215 155.292098 
L 150.669108 168.64489 
L 150.975001 174.591672 
L 151.280894 176.738738 
L 151.586787 177.042454 
L 151.89268 174.406196 
L 152.198573 174.565164 
L 152.504466 169.770171 
L 152.810359 172.413057 
L 153.116252 167.55744 
L 153.422146 167.76226 
L 153.728039 163.323801 
L 154.339825 166.316697 
L 154.645718 169.15408 
L 154.951611 173.736637 
L 155.563397 186.267959 
L 155.86929 191.556479 
L 156.175183 191.344188 
L 156.481077 197.07706 
L 156.78697 195.964284 
L 157.092863 195.803881 
L 157.398756 187.409005 
L 157.704649 183.933305 
L 158.010542 178.922769 
L 158.316435 180.524304 
L 158.622328 185.869784 
L 158.928221 197.653788 
L 159.234114 202.778081 
L 159.540008 202.702919 
L 159.845901 199.071828 
L 160.151794 198.431393 
L 160.457687 197.512516 
L 160.76358 192.931102 
L 161.069473 191.817516 
L 161.375366 193.510565 
L 161.987152 208.430684 
L 162.293045 208.233844 
L 162.904832 195.99328 
L 163.210725 197.244056 
L 163.516618 195.389557 
L 164.128404 182.417848 
L 164.434297 185.380111 
L 164.74019 193.339085 
L 165.046083 196.258969 
L 165.351977 193.367645 
L 165.65787 193.214397 
L 165.963763 197.972821 
L 166.269656 198.729804 
L 166.575549 190.951669 
L 167.187335 169.837283 
L 167.493228 168.818935 
L 168.105014 179.15846 
L 168.410908 179.906476 
L 168.716801 176.502581 
L 169.328587 167.074362 
L 169.63448 163.900113 
L 169.940373 165.983723 
L 170.552159 163.699329 
L 171.163945 155.939837 
L 171.469839 147.809543 
L 171.775732 135.236993 
L 172.081625 130.058919 
L 172.387518 134.138986 
L 172.693411 142.652131 
L 172.999304 141.484727 
L 173.61109 116.379707 
L 173.916983 110.487209 
L 174.222876 115.208713 
L 174.834663 131.076845 
L 175.140556 132.2503 
L 175.446449 126.206833 
L 175.752342 117.500791 
L 176.058235 104.537698 
L 176.364128 96.537497 
L 176.670021 93.934364 
L 177.281807 108.981511 
L 177.587701 109.456185 
L 178.199487 91.496438 
L 178.50538 86.066531 
L 178.811273 87.353613 
L 179.117166 82.546072 
L 179.423059 80.446887 
L 179.728952 76.808983 
L 180.034845 82.929406 
L 180.646632 88.99921 
L 182.176097 48.16008 
L 182.787883 41.94052 
L 183.093776 48.815975 
L 183.39967 51.639821 
L 183.705563 53.002362 
L 184.011456 50.910265 
L 184.317349 53.595896 
L 184.623242 58.106935 
L 185.235028 61.153948 
L 185.846814 53.140319 
L 186.152707 46.125747 
L 186.458601 45.302309 
L 186.764494 45.978137 
L 187.070387 42.305293 
L 187.682173 30.673641 
L 187.988066 32.113847 
L 188.293959 35.980911 
L 188.599852 37.505346 
L 188.905745 37.194716 
L 189.823425 23.311487 
L 190.129318 21.984944 
L 190.435211 26.334197 
L 190.741104 26.721857 
L 191.046997 30.101928 
L 191.35289 31.161854 
L 191.658783 34.282866 
L 191.964676 34.728244 
L 192.270569 29.580285 
L 192.576463 26.782427 
L 192.882356 26.526462 
L 193.188249 34.550277 
L 193.494142 39.04878 
L 193.800035 41.766463 
L 194.105928 42.269281 
L 194.717714 50.091479 
L 195.023607 48.797404 
L 195.3295 46.519841 
L 195.635394 42.644135 
L 195.941287 43.564902 
L 196.24718 45.055586 
L 197.470752 71.92791 
L 197.776645 71.358064 
L 198.082538 70.377188 
L 198.694325 63.688598 
L 199.306111 50.990038 
L 199.612004 49.949631 
L 199.917897 53.681395 
L 200.22379 60.756432 
L 200.529683 64.466396 
L 200.835576 74.137376 
L 201.141469 79.012608 
L 201.447363 86.601997 
L 201.753256 86.446248 
L 202.059149 91.998667 
L 202.670935 95.899495 
L 202.976828 94.507231 
L 203.282721 92.018518 
L 203.588614 95.079234 
L 203.894507 95.369791 
L 204.2004 103.943637 
L 204.506294 108.287293 
L 204.812187 115.865188 
L 205.11808 113.806568 
L 205.729866 103.542156 
L 206.035759 106.957932 
L 206.341652 113.621761 
L 206.647545 117.003706 
L 206.953438 111.80189 
L 207.259331 111.370565 
L 207.565225 117.433135 
L 208.177011 144.844154 
L 208.482904 151.352325 
L 208.788797 149.393288 
L 209.09469 150.101893 
L 209.400583 148.560328 
L 209.706476 148.17692 
L 210.012369 141.82823 
L 210.318262 138.485287 
L 210.624156 142.019197 
L 211.541835 177.560533 
L 211.847728 181.332017 
L 212.459514 174.571102 
L 212.765407 174.468756 
L 213.0713 178.287374 
L 213.377193 178.574907 
L 213.98898 172.905092 
L 214.294873 175.989613 
L 214.600766 181.261883 
L 214.906659 190.962515 
L 215.212552 192.396293 
L 215.518445 187.984037 
L 215.824338 178.235059 
L 216.130231 176.555345 
L 216.742018 190.519995 
L 217.047911 196.080977 
L 217.353804 194.303137 
L 217.659697 200.475884 
L 218.271483 204.642635 
L 218.577376 201.175385 
L 218.883269 199.773331 
L 219.189162 199.120774 
L 219.495056 201.268959 
L 219.800949 198.005341 
L 220.106842 198.189576 
L 220.412735 193.419589 
L 220.718628 197.587586 
L 221.024521 199.17333 
L 221.330414 205.762892 
L 221.636307 209.149636 
L 221.9422 213.772874 
L 222.248093 214.756364 
L 222.553987 214.487955 
L 222.85988 211.470178 
L 223.165773 211.74702 
L 223.471666 212.358325 
L 223.777559 213.256316 
L 224.695238 198.740738 
L 225.001131 198.427228 
L 225.307024 196.366658 
L 225.918811 178.258135 
L 226.224704 171.439404 
L 226.83649 174.210809 
L 227.142383 179.574162 
L 227.448276 178.242187 
L 227.754169 174.407971 
L 228.060062 165.138403 
L 228.365955 163.802459 
L 228.671849 166.582214 
L 228.977742 174.480862 
L 229.283635 175.454928 
L 229.589528 172.565898 
L 229.895421 165.871525 
L 230.201314 161.93248 
L 230.507207 155.888772 
L 231.118993 151.910595 
L 231.424887 155.310727 
L 231.73078 154.80408 
L 232.036673 152.26482 
L 232.648459 136.902806 
L 232.954352 132.480776 
L 233.566138 134.280684 
L 233.872031 130.564339 
L 234.177924 123.558136 
L 234.483818 119.238702 
L 234.789711 119.954226 
L 235.401497 124.403535 
L 235.70739 125.570604 
L 236.013283 128.297253 
L 236.319176 129.515765 
L 236.625069 126.252236 
L 237.542749 104.621944 
L 237.848642 102.767255 
L 238.154535 106.01513 
L 238.766321 96.871557 
L 239.072214 88.742425 
L 239.378107 86.047292 
L 239.684 79.018195 
L 239.989893 76.194888 
L 240.295786 76.302474 
L 240.907573 89.649667 
L 241.213466 92.958681 
L 241.519359 87.557206 
L 241.825252 79.740144 
L 242.131145 68.19418 
L 242.437038 61.836838 
L 242.742931 59.497846 
L 243.048824 60.830475 
L 243.354717 62.944569 
L 243.966504 57.877992 
L 244.272397 51.392895 
L 244.57829 50.544244 
L 244.884183 44.593787 
L 245.190076 42.482782 
L 245.495969 39.529138 
L 246.719542 43.978711 
L 247.025435 43.650439 
L 247.943114 27.954454 
L 248.249007 30.69456 
L 248.5549 36.650553 
L 248.860793 36.041713 
L 249.166686 35.715637 
L 249.47258 35.226854 
L 249.778473 41.247888 
L 250.084366 42.061181 
L 250.390259 38.96596 
L 250.696152 33.32742 
L 251.307938 38.038024 
L 251.613831 38.095701 
L 252.225617 25.848415 
L 252.531511 24.176672 
L 252.837404 24.448274 
L 253.143297 27.257594 
L 254.060976 20.588016 
L 254.366869 22.025065 
L 254.978655 32.214445 
L 255.284548 34.346146 
L 255.590442 33.672167 
L 255.896335 33.539324 
L 256.202228 38.909144 
L 256.508121 41.349429 
L 257.731693 63.873372 
L 258.037586 64.48844 
L 258.343479 62.822182 
L 258.649373 56.1388 
L 258.955266 55.650265 
L 259.261159 58.041587 
L 259.567052 68.723335 
L 259.872945 70.946473 
L 260.178838 68.821627 
L 260.484731 59.385243 
L 260.790624 54.856628 
L 261.096517 55.419567 
L 262.014197 79.834853 
L 262.625983 81.23756 
L 262.931876 80.490325 
L 263.543662 86.861049 
L 264.155448 84.675509 
L 264.461342 78.902262 
L 265.073128 81.27946 
L 265.684914 102.390439 
L 265.990807 117.450203 
L 266.2967 124.222841 
L 266.602593 127.886801 
L 266.908486 125.370116 
L 267.214379 124.617427 
L 267.520273 126.700955 
L 267.826166 127.084837 
L 268.132059 126.353951 
L 268.437952 123.555337 
L 268.743845 127.35973 
L 269.355631 141.030031 
L 269.661524 141.328219 
L 269.967417 145.340888 
L 270.27331 144.467468 
L 270.579204 150.341375 
L 270.885097 149.268876 
L 271.19099 155.21855 
L 271.496883 157.207386 
L 271.802776 158.020444 
L 272.108669 156.827649 
L 272.414562 159.176989 
L 272.720455 166.192649 
L 273.026348 166.687433 
L 273.638135 154.419319 
L 273.944028 154.765316 
L 274.249921 158.638565 
L 274.861707 157.756274 
L 275.1676 161.168648 
L 275.779386 179.045362 
L 276.085279 184.492287 
L 276.391172 183.664013 
L 277.308852 195.696733 
L 277.920638 192.318946 
L 278.226531 193.910286 
L 278.532424 192.126872 
L 278.838317 187.021313 
L 279.14421 177.669927 
L 279.450104 174.738244 
L 279.755997 180.020852 
L 280.673676 209.216571 
L 280.979569 213.236685 
L 281.285462 213.499473 
L 281.591355 211.928529 
L 282.509035 196.800071 
L 282.814928 196.570518 
L 283.426714 199.731361 
L 283.732607 207.177495 
L 284.0385 211.030122 
L 284.344393 211.412645 
L 284.650286 201.12992 
L 285.262072 190.29076 
L 285.567966 192.501954 
L 285.873859 192.004392 
L 286.179752 195.197034 
L 286.485645 189.637093 
L 287.097431 175.491877 
L 287.403324 174.703721 
L 287.709217 176.358714 
L 288.626897 159.120581 
L 288.93279 161.583755 
L 289.544576 169.126359 
L 289.850469 168.868551 
L 290.156362 170.867845 
L 290.462255 177.770094 
L 290.768148 181.680876 
L 291.074041 177.257281 
L 291.379934 168.258991 
L 291.685828 163.987146 
L 292.297614 173.006492 
L 292.603507 174.409913 
L 292.9094 167.434265 
L 293.521186 147.869023 
L 293.827079 144.368699 
L 294.132972 143.476065 
L 294.438865 143.938746 
L 294.744759 143.853978 
L 295.050652 142.568582 
L 295.356545 141.942417 
L 295.662438 138.768684 
L 296.274224 127.406307 
L 296.580117 120.751807 
L 296.88601 120.583455 
L 297.191903 115.222717 
L 297.497797 112.811965 
L 297.80369 104.894912 
L 298.415476 110.423333 
L 298.721369 116.493457 
L 299.027262 117.224254 
L 299.333155 114.060787 
L 300.556728 90.222542 
L 301.168514 72.530439 
L 301.474407 73.561501 
L 302.086193 91.471746 
L 302.392086 92.39684 
L 302.697979 87.108483 
L 303.615659 57.605362 
L 303.921552 58.156237 
L 304.227445 55.617111 
L 304.533338 61.354492 
L 304.839231 55.612944 
L 305.145124 53.397646 
L 305.451017 43.854205 
L 305.75691 39.295543 
L 306.062803 37.48041 
L 306.368696 42.678176 
L 306.980483 61.398435 
L 307.286376 60.11848 
L 308.204055 28.110411 
L 308.509948 25.852166 
L 308.815841 26.73987 
L 309.121734 31.273076 
L 309.733521 45.104068 
L 310.039414 44.009785 
L 310.6512 34.597153 
L 310.957093 30.812565 
L 311.262986 32.320441 
L 311.568879 32.416404 
L 311.874772 35.52583 
L 312.180665 33.283831 
L 312.486559 29.513467 
L 312.792452 29.621966 
L 313.098345 27.2398 
L 313.404238 29.258054 
L 313.710131 28.449302 
L 314.016024 32.922259 
L 314.321917 35.171166 
L 315.239596 26.237503 
L 315.54549 25.554073 
L 315.851383 24.150597 
L 316.157276 27.336211 
L 316.463169 34.947509 
L 317.074955 52.113339 
L 317.380848 60.014082 
L 317.686741 59.742967 
L 317.992634 53.449233 
L 318.298527 42.300369 
L 318.604421 38.678065 
L 319.216207 56.976689 
L 319.5221 65.33345 
L 319.827993 62.719521 
L 320.439779 45.803931 
L 320.745672 49.129178 
L 321.357458 68.451207 
L 321.663352 65.419913 
L 321.969245 58.243935 
L 322.275138 57.135504 
L 322.581031 63.279146 
L 322.886924 74.433356 
L 324.110496 93.047577 
L 324.416389 90.852748 
L 325.028176 82.276229 
L 325.334069 86.326022 
L 325.639962 91.983103 
L 325.945855 100.454472 
L 326.251748 102.898086 
L 326.557641 111.338401 
L 326.863534 113.807223 
L 327.169427 117.36006 
L 327.47532 115.645085 
L 327.781214 115.697309 
L 328.087107 118.228157 
L 328.393 115.921438 
L 328.698893 116.745597 
L 329.004786 112.902338 
L 329.616572 122.482969 
L 330.228358 143.244497 
L 330.534252 148.471145 
L 330.840145 148.924771 
L 331.451931 148.83038 
L 331.757824 151.767514 
L 332.36961 152.925665 
L 332.675503 150.556631 
L 332.981396 153.141357 
L 333.899076 171.36064 
L 334.204969 172.444488 
L 334.510862 174.539178 
L 334.816755 172.965931 
L 335.122648 177.289557 
L 335.428541 174.602754 
L 335.734434 174.547472 
L 336.040327 169.854819 
L 336.34622 172.032982 
L 337.2639 187.802983 
L 337.569793 187.639501 
L 337.875686 188.222533 
L 338.181579 191.769646 
L 338.487472 191.351993 
L 338.793365 187.079756 
L 339.099258 185.277933 
L 339.405151 187.069011 
L 339.711045 191.318109 
L 340.016938 188.054073 
L 340.322831 188.385953 
L 340.628724 191.575386 
L 340.934617 201.143381 
L 341.24051 204.73677 
L 341.546403 206.325232 
L 341.852296 204.684843 
L 342.158189 206.916867 
L 342.464082 204.543469 
L 342.769976 198.341968 
L 343.075869 189.104435 
L 343.381762 188.985124 
L 343.687655 191.430588 
L 343.993548 197.102288 
L 344.299441 191.450516 
L 344.605334 191.235159 
L 344.911227 187.388472 
L 345.21712 191.91233 
L 345.523014 190.85381 
L 345.828907 195.087128 
L 346.1348 195.070016 
L 346.440693 197.235173 
L 346.746586 193.762019 
L 347.052479 194.968334 
L 347.664265 192.101502 
L 348.276051 180.517072 
L 348.581945 179.452414 
L 348.887838 180.583825 
L 349.499624 172.052263 
L 349.805517 171.507926 
L 350.11141 180.393963 
L 350.417303 185.023696 
L 350.723196 180.654284 
L 351.029089 168.260111 
L 351.334982 161.033897 
L 351.640876 164.783371 
L 352.252662 175.744219 
L 353.476234 168.270666 
L 353.782127 165.327698 
L 354.08802 159.283253 
L 354.699807 144.886957 
L 355.0057 144.637359 
L 355.311593 146.187326 
L 355.617486 144.637575 
L 355.923379 142.34005 
L 356.229272 139.192735 
L 356.535165 134.779312 
L 356.841058 126.785701 
L 357.146951 125.132394 
L 357.452844 125.360755 
L 357.758738 127.176886 
L 358.064631 119.265725 
L 358.064631 119.265725 
" clip-path="url(#pe81e86b4ac)" style="fill: none; stroke: #1f77b4; stroke-width: 1.5; stroke-linecap: square"/>
   </g>
   <g id="patch_3">
    <path d="M 38.482813 224.64 
L 38.482813 7.2 
" style="fill: none; stroke: #000000; stroke-width: 0.8; stroke-linejoin: miter; stroke-linecap: square"/>
   </g>
   <g id="patch_4">
    <path d="M 373.282813 224.64 
L 373.282813 7.2 
" style="fill: none; stroke: #000000; stroke-width: 0.8; stroke-linejoin: miter; stroke-linecap: square"/>
   </g>
   <g id="patch_5">
    <path d="M 38.482813 224.64 
L 373.282813 224.64 
" style="fill: none; stroke: #000000; stroke-width: 0.8; stroke-linejoin: miter; stroke-linecap: square"/>
   </g>
   <g id="patch_6">
    <path d="M 38.482813 7.2 
L 373.282813 7.2 
" style="fill: none; stroke: #000000; stroke-width: 0.8; stroke-linejoin: miter; stroke-linecap: square"/>
   </g>
  </g>
 </g>
 <defs>
  <clipPath id="pe81e86b4ac">
   <rect x="38.482813" y="7.2" width="334.8" height="217.44"/>
  </clipPath>
 </defs>
</svg>
