<?xml version="1.0" encoding="utf-8" standalone="no"?>
<!DOCTYPE svg PUBLIC "-//W3C//DTD SVG 1.1//EN"
  "http://www.w3.org/Graphics/SVG/1.1/DTD/svg11.dtd">
<svg height="352.15625pt" version="1.1" viewBox="0 0 420.062865 352.15625" width="420.062865pt" xmlns="http://www.w3.org/2000/svg" xmlns:xlink="http://www.w3.org/1999/xlink">
 <metadata>
  <rdf:RDF xmlns:cc="http://creativecommons.org/ns#" xmlns:dc="http://purl.org/dc/elements/1.1/" xmlns:rdf="http://www.w3.org/1999/02/22-rdf-syntax-ns#">
   <cc:Work>
    <dc:type rdf:resource="http://purl.org/dc/dcmitype/StillImage"/>
    <dc:date>2022-05-20T12:49:10.282920</dc:date>
    <dc:format>image/svg+xml</dc:format>
    <dc:creator>
     <cc:Agent>
      <dc:title>Matplotlib v3.4.3, https://matplotlib.org/</dc:title>
     </cc:Agent>
    </dc:creator>
   </cc:Work>
  </rdf:RDF>
 </metadata>
 <defs>
  <style type="text/css">*{stroke-linecap:butt;stroke-linejoin:round;}</style>
 </defs>
 <g id="figure_1">
  <g id="patch_1">
   <path d="M 0 352.15625 
L 420.062865 352.15625 
L 420.062865 0 
L 0 0 
z
" style="fill:none;"/>
  </g>
  <g id="axes_1">
   <g id="patch_2">
    <path d="M 47.1875 314.6 
L 341.795365 314.6 
L 341.795365 7.2 
L 47.1875 7.2 
z
" style="fill:#ffffff;"/>
   </g>
   <g id="PathCollection_1">
    <defs>
     <path d="M 0 3 
C 0.795609 3 1.55874 2.683901 2.12132 2.12132 
C 2.683901 1.55874 3 0.795609 3 0 
C 3 -0.795609 2.683901 -1.55874 2.12132 -2.12132 
C 1.55874 -2.683901 0.795609 -3 0 -3 
C -0.795609 -3 -1.55874 -2.683901 -2.12132 -2.12132 
C -2.683901 -1.55874 -3 -0.795609 -3 0 
C -3 0.795609 -2.683901 1.55874 -2.12132 2.12132 
C -1.55874 2.683901 -0.795609 3 0 3 
z
" id="m465699730f" style="stroke:#1f77b4;stroke-opacity:0.8;"/>
    </defs>
    <g clip-path="url(#pf38830bda9)">
     <use style="fill:#1f77b4;fill-opacity:0.8;stroke:#1f77b4;stroke-opacity:0.8;" x="60.578767" xlink:href="#m465699730f" y="254.341566"/>
     <use style="fill:#1f77b4;fill-opacity:0.8;stroke:#1f77b4;stroke-opacity:0.8;" x="87.74861" xlink:href="#m465699730f" y="238.079021"/>
     <use style="fill:#1f77b4;fill-opacity:0.8;stroke:#1f77b4;stroke-opacity:0.8;" x="114.918454" xlink:href="#m465699730f" y="213.05972"/>
     <use style="fill:#1f77b4;fill-opacity:0.8;stroke:#1f77b4;stroke-opacity:0.8;" x="142.068932" xlink:href="#m465699730f" y="188.040419"/>
     <use style="fill:#1f77b4;fill-opacity:0.8;stroke:#1f77b4;stroke-opacity:0.8;" x="169.238776" xlink:href="#m465699730f" y="161.770154"/>
     <use style="fill:#1f77b4;fill-opacity:0.8;stroke:#1f77b4;stroke-opacity:0.8;" x="196.40862" xlink:href="#m465699730f" y="139.252783"/>
     <use style="fill:#1f77b4;fill-opacity:0.8;stroke:#1f77b4;stroke-opacity:0.8;" x="223.559098" xlink:href="#m465699730f" y="115.484447"/>
     <use style="fill:#1f77b4;fill-opacity:0.8;stroke:#1f77b4;stroke-opacity:0.8;" x="250.728942" xlink:href="#m465699730f" y="91.716112"/>
     <use style="fill:#1f77b4;fill-opacity:0.8;stroke:#1f77b4;stroke-opacity:0.8;" x="277.879421" xlink:href="#m465699730f" y="70.449706"/>
     <use style="fill:#1f77b4;fill-opacity:0.8;stroke:#1f77b4;stroke-opacity:0.8;" x="305.049264" xlink:href="#m465699730f" y="45.430405"/>
     <use style="fill:#1f77b4;fill-opacity:0.8;stroke:#1f77b4;stroke-opacity:0.8;" x="142.068932" xlink:href="#m465699730f" y="200.55007"/>
     <use style="fill:#1f77b4;fill-opacity:0.8;stroke:#1f77b4;stroke-opacity:0.8;" x="142.068932" xlink:href="#m465699730f" y="231.824196"/>
     <use style="fill:#1f77b4;fill-opacity:0.8;stroke:#1f77b4;stroke-opacity:0.8;" x="169.238776" xlink:href="#m465699730f" y="171.777874"/>
     <use style="fill:#1f77b4;fill-opacity:0.8;stroke:#1f77b4;stroke-opacity:0.8;" x="196.40862" xlink:href="#m465699730f" y="166.774014"/>
     <use style="fill:#1f77b4;fill-opacity:0.8;stroke:#1f77b4;stroke-opacity:0.8;" x="223.559098" xlink:href="#m465699730f" y="160.519189"/>
     <use style="fill:#1f77b4;fill-opacity:0.8;stroke:#1f77b4;stroke-opacity:0.8;" x="180.780634" xlink:href="#m465699730f" y="107.978657"/>
     <use style="fill:#1f77b4;fill-opacity:0.8;stroke:#1f77b4;stroke-opacity:0.8;" x="207.950478" xlink:href="#m465699730f" y="82.959356"/>
     <use style="fill:#1f77b4;fill-opacity:0.8;stroke:#1f77b4;stroke-opacity:0.8;" x="262.2708" xlink:href="#m465699730f" y="60.441986"/>
    </g>
   </g>
   <g id="PolyCollection_1">
    <path clip-path="url(#pf38830bda9)" d="M 60.578767 251.160924 
L 60.578767 282.331323 
L 63.048166 279.96921 
L 65.517565 277.606818 
L 67.986963 275.243211 
L 70.456362 272.879603 
L 72.925761 270.44411 
L 75.39516 267.913698 
L 77.864559 265.380412 
L 80.333958 262.847127 
L 82.803357 260.308359 
L 85.272756 257.725044 
L 87.742155 255.213243 
L 90.211554 252.787856 
L 92.680953 250.366595 
L 95.150352 247.945334 
L 97.619751 245.524014 
L 100.08915 243.117345 
L 102.558549 240.721064 
L 105.027948 238.249063 
L 107.497347 235.825483 
L 109.966746 233.400747 
L 112.436145 230.975153 
L 114.905544 228.451805 
L 117.374943 225.951506 
L 119.844342 223.536517 
L 122.313741 220.956978 
L 124.78314 218.659594 
L 127.252539 216.28174 
L 129.721938 213.885695 
L 132.191337 211.474555 
L 134.660736 209.062887 
L 137.130135 206.65 
L 139.599534 204.206962 
L 142.068932 201.823935 
L 144.538331 199.411084 
L 147.00773 196.998227 
L 149.477129 194.58557 
L 151.946528 192.075246 
L 154.415927 189.647373 
L 156.885326 187.32004 
L 159.354725 184.929162 
L 161.824124 182.525134 
L 164.293523 180.159102 
L 166.762922 178.020679 
L 169.232321 175.801448 
L 171.70172 173.789594 
L 174.171119 171.613713 
L 176.640518 169.177174 
L 179.109917 166.824277 
L 181.579316 164.570672 
L 184.048715 162.28789 
L 186.518114 160.0373 
L 188.987513 157.815919 
L 191.456912 155.706833 
L 193.926311 153.45907 
L 196.39571 151.135124 
L 198.865109 149.055984 
L 201.334508 146.902289 
L 203.803907 144.737428 
L 206.273306 142.676983 
L 208.742705 140.615674 
L 211.212104 138.401971 
L 213.681503 136.043334 
L 216.150902 133.793104 
L 218.6203 131.692618 
L 221.089699 129.595468 
L 223.559098 127.401295 
L 226.028497 125.210557 
L 228.497896 123.135663 
L 230.967295 121.056019 
L 233.436694 118.991108 
L 235.906093 116.916982 
L 238.375492 114.842855 
L 240.844891 112.768729 
L 243.31429 110.694602 
L 245.783689 108.620475 
L 248.253088 106.527453 
L 250.722487 104.473853 
L 253.191886 102.4031 
L 255.661285 100.332347 
L 258.130684 98.258815 
L 260.600083 96.182031 
L 263.069482 94.092703 
L 265.538881 92.044547 
L 268.00828 90.019262 
L 270.477679 87.971767 
L 272.947078 85.848211 
L 275.416477 83.77325 
L 277.885876 81.829182 
L 280.355275 79.885114 
L 282.824674 77.862443 
L 285.294073 75.835908 
L 287.763472 73.806153 
L 290.232871 71.707662 
L 292.70227 69.609171 
L 295.171668 67.593513 
L 297.641067 65.596543 
L 300.110466 63.599539 
L 302.579865 61.577188 
L 305.049264 59.560524 
L 305.049264 21.172727 
L 305.049264 21.172727 
L 302.579865 23.680413 
L 300.110466 26.188098 
L 297.641067 28.696987 
L 295.171668 31.213118 
L 292.70227 33.872434 
L 290.232871 36.23397 
L 287.763472 38.738606 
L 285.294073 41.117417 
L 282.824674 43.497879 
L 280.355275 45.881918 
L 277.885876 48.269299 
L 275.416477 50.794871 
L 272.947078 53.226914 
L 270.477679 55.723768 
L 268.00828 58.253567 
L 265.538881 60.783366 
L 263.069482 63.311806 
L 260.600083 65.695953 
L 258.130684 68.0801 
L 255.661285 70.464247 
L 253.191886 72.84445 
L 250.722487 75.10361 
L 248.253088 77.578838 
L 245.783689 80.002476 
L 243.31429 82.384981 
L 240.844891 84.769866 
L 238.375492 87.158059 
L 235.906093 89.546252 
L 233.436694 92.01593 
L 230.967295 94.516877 
L 228.497896 96.899636 
L 226.028497 99.452485 
L 223.559098 102.076515 
L 221.089699 104.443395 
L 218.6203 106.966267 
L 216.150902 109.300532 
L 213.681503 111.749306 
L 211.212104 114.233277 
L 208.742705 116.61975 
L 206.273306 118.999314 
L 203.803907 121.263516 
L 201.334508 123.715653 
L 198.865109 125.819108 
L 196.39571 128.121387 
L 193.926311 130.465064 
L 191.456912 132.831195 
L 188.987513 135.196577 
L 186.518114 137.560225 
L 184.048715 139.928807 
L 181.579316 142.293352 
L 179.109917 144.41906 
L 176.640518 146.759528 
L 174.171119 149.142189 
L 171.70172 151.493405 
L 169.232321 153.756947 
L 166.762922 156.165192 
L 164.293523 158.563984 
L 161.824124 160.853532 
L 159.354725 163.235746 
L 156.885326 165.412144 
L 154.415927 167.620791 
L 151.946528 170.008682 
L 149.477129 172.406905 
L 147.00773 174.636992 
L 144.538331 176.866053 
L 142.068932 179.096621 
L 139.599534 181.369506 
L 137.130135 183.597792 
L 134.660736 185.826078 
L 132.191337 188.054364 
L 129.721938 190.28265 
L 127.252539 192.52418 
L 124.78314 194.739895 
L 122.313741 196.976977 
L 119.844342 199.195794 
L 117.374943 201.400583 
L 114.905544 203.652366 
L 112.436145 205.876005 
L 109.966746 208.108939 
L 107.497347 210.337225 
L 105.027948 212.565511 
L 102.558549 214.794404 
L 100.08915 217.022844 
L 97.619751 219.250369 
L 95.150352 221.478655 
L 92.680953 223.674838 
L 90.211554 225.90206 
L 87.742155 228.001588 
L 85.272756 230.060458 
L 82.803357 232.163641 
L 80.333958 234.362277 
L 77.864559 236.440081 
L 75.39516 238.495288 
L 72.925761 240.471224 
L 70.456362 242.60778 
L 67.986963 244.665719 
L 65.517565 246.826736 
L 63.048166 249.001962 
L 60.578767 251.160924 
z
" style="fill:#1f77b4;fill-opacity:0.15;"/>
   </g>
   <g id="PathCollection_2">
    <defs>
     <path d="M 0 3 
C 0.795609 3 1.55874 2.683901 2.12132 2.12132 
C 2.683901 1.55874 3 0.795609 3 0 
C 3 -0.795609 2.683901 -1.55874 2.12132 -2.12132 
C 1.55874 -2.683901 0.795609 -3 0 -3 
C -0.795609 -3 -1.55874 -2.683901 -2.12132 -2.12132 
C -2.683901 -1.55874 -3 -0.795609 -3 0 
C -3 0.795609 -2.683901 1.55874 -2.12132 2.12132 
C -1.55874 2.683901 -0.795609 3 0 3 
z
" id="mb9ca123543" style="stroke:#ff7f0e;stroke-opacity:0.8;"/>
    </defs>
    <g clip-path="url(#pf38830bda9)">
     <use style="fill:#ff7f0e;fill-opacity:0.8;stroke:#ff7f0e;stroke-opacity:0.8;" x="138.253922" xlink:href="#mb9ca123543" y="290.619552"/>
     <use style="fill:#ff7f0e;fill-opacity:0.8;stroke:#ff7f0e;stroke-opacity:0.8;" x="165.423766" xlink:href="#mb9ca123543" y="249.337706"/>
     <use style="fill:#ff7f0e;fill-opacity:0.8;stroke:#ff7f0e;stroke-opacity:0.8;" x="192.59361" xlink:href="#mb9ca123543" y="213.05972"/>
     <use style="fill:#ff7f0e;fill-opacity:0.8;stroke:#ff7f0e;stroke-opacity:0.8;" x="219.744088" xlink:href="#mb9ca123543" y="178.032699"/>
     <use style="fill:#ff7f0e;fill-opacity:0.8;stroke:#ff7f0e;stroke-opacity:0.8;" x="246.913932" xlink:href="#mb9ca123543" y="146.758573"/>
     <use style="fill:#ff7f0e;fill-opacity:0.8;stroke:#ff7f0e;stroke-opacity:0.8;" x="274.083776" xlink:href="#mb9ca123543" y="117.986377"/>
     <use style="fill:#ff7f0e;fill-opacity:0.8;stroke:#ff7f0e;stroke-opacity:0.8;" x="301.234254" xlink:href="#mb9ca123543" y="90.465147"/>
     <use style="fill:#ff7f0e;fill-opacity:0.8;stroke:#ff7f0e;stroke-opacity:0.8;" x="328.404098" xlink:href="#mb9ca123543" y="65.445846"/>
     <use style="fill:#ff7f0e;fill-opacity:0.8;stroke:#ff7f0e;stroke-opacity:0.8;" x="165.423766" xlink:href="#mb9ca123543" y="256.843496"/>
     <use style="fill:#ff7f0e;fill-opacity:0.8;stroke:#ff7f0e;stroke-opacity:0.8;" x="219.744088" xlink:href="#mb9ca123543" y="189.291385"/>
     <use style="fill:#ff7f0e;fill-opacity:0.8;stroke:#ff7f0e;stroke-opacity:0.8;" x="138.253922" xlink:href="#mb9ca123543" y="300.627273"/>
     <use style="fill:#ff7f0e;fill-opacity:0.8;stroke:#ff7f0e;stroke-opacity:0.8;" x="192.59361" xlink:href="#mb9ca123543" y="235.577091"/>
    </g>
   </g>
   <g id="PolyCollection_2">
    <path clip-path="url(#pf38830bda9)" d="M 138.253922 280.169173 
L 138.253922 296.532355 
L 140.174631 294.055458 
L 142.09534 291.569465 
L 144.016049 289.083472 
L 145.936758 286.61929 
L 147.857467 284.169984 
L 149.778175 281.644914 
L 151.698884 279.106726 
L 153.619593 276.603527 
L 155.540302 274.080991 
L 157.461011 271.643859 
L 159.38172 269.113551 
L 161.302428 266.581664 
L 163.223137 264.051233 
L 165.143846 261.522295 
L 167.064555 259.099927 
L 168.985264 256.757125 
L 170.905973 254.291041 
L 172.826682 251.913959 
L 174.74739 249.481052 
L 176.668099 247.05744 
L 178.588808 244.658524 
L 180.509517 242.151037 
L 182.430226 239.76221 
L 184.350935 237.297978 
L 186.271643 234.876143 
L 188.192352 232.491337 
L 190.113061 230.108297 
L 192.03377 227.679208 
L 193.954479 225.247133 
L 195.875188 222.814555 
L 197.795897 220.380187 
L 199.716605 217.949619 
L 201.637314 215.552909 
L 203.558023 213.154362 
L 205.478732 210.757843 
L 207.399441 208.39164 
L 209.32015 206.025115 
L 211.240858 203.589112 
L 213.161567 201.172119 
L 215.082276 198.776081 
L 217.002985 196.416969 
L 218.923694 194.058651 
L 220.844403 191.700333 
L 222.765112 189.348539 
L 224.68582 186.988648 
L 226.606529 184.622022 
L 228.527238 182.260338 
L 230.447947 179.845574 
L 232.368656 177.483303 
L 234.289365 175.096461 
L 236.210073 172.752191 
L 238.130782 170.393635 
L 240.051491 167.971239 
L 241.9722 165.609869 
L 243.892909 163.300333 
L 245.813618 160.991212 
L 247.734327 158.625398 
L 249.655035 156.250265 
L 251.575744 153.938369 
L 253.496453 151.601539 
L 255.417162 149.284008 
L 257.337871 146.972686 
L 259.25858 144.631277 
L 261.179288 142.337571 
L 263.099997 140.070455 
L 265.020706 137.729691 
L 266.941415 135.393113 
L 268.862124 133.102702 
L 270.782833 130.797779 
L 272.703542 128.507134 
L 274.62425 126.20521 
L 276.544959 123.898308 
L 278.465668 121.586984 
L 280.386377 119.243963 
L 282.307086 116.924641 
L 284.227795 114.593301 
L 286.148503 112.304298 
L 288.069212 110.00793 
L 289.989921 107.755089 
L 291.91063 105.483526 
L 293.831339 103.221323 
L 295.752048 100.945175 
L 297.672756 98.641579 
L 299.593465 96.332393 
L 301.514174 94.031303 
L 303.434883 91.791308 
L 305.355592 89.497745 
L 307.276301 87.203133 
L 309.19701 84.908521 
L 311.117718 82.613909 
L 313.038427 80.341281 
L 314.959136 78.053054 
L 316.879845 75.801237 
L 318.800554 73.56575 
L 320.721263 71.276619 
L 322.641971 68.986174 
L 324.56268 66.697118 
L 326.483389 64.409044 
L 328.404098 62.127713 
L 328.404098 38.852793 
L 328.404098 38.852793 
L 326.483389 41.438889 
L 324.56268 44.039393 
L 322.641971 46.639897 
L 320.721263 49.240401 
L 318.800554 51.840905 
L 316.879845 54.44141 
L 314.959136 57.041914 
L 313.038427 59.642418 
L 311.117718 62.242922 
L 309.19701 64.843426 
L 307.276301 67.394545 
L 305.355592 69.942406 
L 303.434883 72.490267 
L 301.514174 75.038128 
L 299.593465 77.594085 
L 297.672756 80.176355 
L 295.752048 82.758624 
L 293.831339 85.341829 
L 291.91063 87.925393 
L 289.989921 90.483428 
L 288.069212 93.059479 
L 286.148503 95.656872 
L 284.227795 98.239193 
L 282.307086 100.804735 
L 280.386377 103.370277 
L 278.465668 105.935819 
L 276.544959 108.501362 
L 274.62425 111.066904 
L 272.703542 113.632446 
L 270.782833 116.197988 
L 268.862124 118.76353 
L 266.941415 121.329073 
L 265.020706 123.890471 
L 263.099997 126.43311 
L 261.179288 128.975749 
L 259.25858 131.533485 
L 257.337871 134.153373 
L 255.417162 136.674732 
L 253.496453 139.295156 
L 251.575744 141.86057 
L 249.655035 144.425984 
L 247.734327 146.991398 
L 245.813618 149.556811 
L 243.892909 152.054277 
L 241.9722 154.502682 
L 240.051491 156.951088 
L 238.130782 159.460426 
L 236.210073 162.001069 
L 234.289365 164.449685 
L 232.368656 166.923372 
L 230.447947 169.391142 
L 228.527238 171.870908 
L 226.606529 174.345661 
L 224.68582 176.915551 
L 222.765112 179.463833 
L 220.844403 182.00681 
L 218.923694 184.47815 
L 217.002985 186.928172 
L 215.082276 189.448378 
L 213.161567 191.869609 
L 211.240858 194.191423 
L 209.32015 196.45688 
L 207.399441 198.833662 
L 205.478732 201.164763 
L 203.558023 203.552917 
L 201.637314 205.810517 
L 199.716605 208.06116 
L 197.795897 210.310289 
L 195.875188 212.560253 
L 193.954479 214.812336 
L 192.03377 217.183199 
L 190.113061 219.432621 
L 188.192352 221.689812 
L 186.271643 224.001794 
L 184.350935 226.225106 
L 182.430226 228.469453 
L 180.509517 230.727528 
L 178.588808 232.985604 
L 176.668099 235.24368 
L 174.74739 237.501755 
L 172.826682 239.68333 
L 170.905973 241.859488 
L 168.985264 244.068095 
L 167.064555 246.323054 
L 165.143846 248.661461 
L 163.223137 250.874147 
L 161.302428 253.106031 
L 159.38172 255.378895 
L 157.461011 257.652159 
L 155.540302 259.925423 
L 153.619593 262.196652 
L 151.698884 264.429707 
L 149.778175 266.662761 
L 147.857467 268.916947 
L 145.936758 271.140674 
L 144.016049 273.388424 
L 142.09534 275.650814 
L 140.174631 277.909994 
L 138.253922 280.169173 
z
" style="fill:#ff7f0e;fill-opacity:0.15;"/>
   </g>
   <g id="matplotlib.axis_1">
    <g id="xtick_1">
     <g id="line2d_1">
      <defs>
       <path d="M 0 0 
L 0 3.5 
" id="mb83014c7a2" style="stroke:#000000;stroke-width:0.8;"/>
      </defs>
      <g>
       <use style="stroke:#000000;stroke-width:0.8;" x="75.993731" xlink:href="#mb83014c7a2" y="314.6"/>
      </g>
     </g>
     <g id="text_1">
      <!-- 40 -->
      <g transform="translate(69.631231 329.198438)scale(0.1 -0.1)">
       <defs>
        <path d="M 2419 4116 
L 825 1625 
L 2419 1625 
L 2419 4116 
z
M 2253 4666 
L 3047 4666 
L 3047 1625 
L 3713 1625 
L 3713 1100 
L 3047 1100 
L 3047 0 
L 2419 0 
L 2419 1100 
L 313 1100 
L 313 1709 
L 2253 4666 
z
" id="DejaVuSans-34" transform="scale(0.015625)"/>
        <path d="M 2034 4250 
Q 1547 4250 1301 3770 
Q 1056 3291 1056 2328 
Q 1056 1369 1301 889 
Q 1547 409 2034 409 
Q 2525 409 2770 889 
Q 3016 1369 3016 2328 
Q 3016 3291 2770 3770 
Q 2525 4250 2034 4250 
z
M 2034 4750 
Q 2819 4750 3233 4129 
Q 3647 3509 3647 2328 
Q 3647 1150 3233 529 
Q 2819 -91 2034 -91 
Q 1250 -91 836 529 
Q 422 1150 422 2328 
Q 422 3509 836 4129 
Q 1250 4750 2034 4750 
z
" id="DejaVuSans-30" transform="scale(0.015625)"/>
       </defs>
       <use xlink:href="#DejaVuSans-34"/>
       <use x="63.623047" xlink:href="#DejaVuSans-30"/>
      </g>
     </g>
    </g>
    <g id="xtick_2">
     <g id="line2d_2">
      <g>
       <use style="stroke:#000000;stroke-width:0.8;" x="114.724799" xlink:href="#mb83014c7a2" y="314.6"/>
      </g>
     </g>
     <g id="text_2">
      <!-- 60 -->
      <g transform="translate(108.362299 329.198438)scale(0.1 -0.1)">
       <defs>
        <path d="M 2113 2584 
Q 1688 2584 1439 2293 
Q 1191 2003 1191 1497 
Q 1191 994 1439 701 
Q 1688 409 2113 409 
Q 2538 409 2786 701 
Q 3034 994 3034 1497 
Q 3034 2003 2786 2293 
Q 2538 2584 2113 2584 
z
M 3366 4563 
L 3366 3988 
Q 3128 4100 2886 4159 
Q 2644 4219 2406 4219 
Q 1781 4219 1451 3797 
Q 1122 3375 1075 2522 
Q 1259 2794 1537 2939 
Q 1816 3084 2150 3084 
Q 2853 3084 3261 2657 
Q 3669 2231 3669 1497 
Q 3669 778 3244 343 
Q 2819 -91 2113 -91 
Q 1303 -91 875 529 
Q 447 1150 447 2328 
Q 447 3434 972 4092 
Q 1497 4750 2381 4750 
Q 2619 4750 2861 4703 
Q 3103 4656 3366 4563 
z
" id="DejaVuSans-36" transform="scale(0.015625)"/>
       </defs>
       <use xlink:href="#DejaVuSans-36"/>
       <use x="63.623047" xlink:href="#DejaVuSans-30"/>
      </g>
     </g>
    </g>
    <g id="xtick_3">
     <g id="line2d_3">
      <g>
       <use style="stroke:#000000;stroke-width:0.8;" x="153.455866" xlink:href="#mb83014c7a2" y="314.6"/>
      </g>
     </g>
     <g id="text_3">
      <!-- 80 -->
      <g transform="translate(147.093366 329.198438)scale(0.1 -0.1)">
       <defs>
        <path d="M 2034 2216 
Q 1584 2216 1326 1975 
Q 1069 1734 1069 1313 
Q 1069 891 1326 650 
Q 1584 409 2034 409 
Q 2484 409 2743 651 
Q 3003 894 3003 1313 
Q 3003 1734 2745 1975 
Q 2488 2216 2034 2216 
z
M 1403 2484 
Q 997 2584 770 2862 
Q 544 3141 544 3541 
Q 544 4100 942 4425 
Q 1341 4750 2034 4750 
Q 2731 4750 3128 4425 
Q 3525 4100 3525 3541 
Q 3525 3141 3298 2862 
Q 3072 2584 2669 2484 
Q 3125 2378 3379 2068 
Q 3634 1759 3634 1313 
Q 3634 634 3220 271 
Q 2806 -91 2034 -91 
Q 1263 -91 848 271 
Q 434 634 434 1313 
Q 434 1759 690 2068 
Q 947 2378 1403 2484 
z
M 1172 3481 
Q 1172 3119 1398 2916 
Q 1625 2713 2034 2713 
Q 2441 2713 2670 2916 
Q 2900 3119 2900 3481 
Q 2900 3844 2670 4047 
Q 2441 4250 2034 4250 
Q 1625 4250 1398 4047 
Q 1172 3844 1172 3481 
z
" id="DejaVuSans-38" transform="scale(0.015625)"/>
       </defs>
       <use xlink:href="#DejaVuSans-38"/>
       <use x="63.623047" xlink:href="#DejaVuSans-30"/>
      </g>
     </g>
    </g>
    <g id="xtick_4">
     <g id="line2d_4">
      <g>
       <use style="stroke:#000000;stroke-width:0.8;" x="192.186934" xlink:href="#mb83014c7a2" y="314.6"/>
      </g>
     </g>
     <g id="text_4">
      <!-- 100 -->
      <g transform="translate(182.643184 329.198438)scale(0.1 -0.1)">
       <defs>
        <path d="M 794 531 
L 1825 531 
L 1825 4091 
L 703 3866 
L 703 4441 
L 1819 4666 
L 2450 4666 
L 2450 531 
L 3481 531 
L 3481 0 
L 794 0 
L 794 531 
z
" id="DejaVuSans-31" transform="scale(0.015625)"/>
       </defs>
       <use xlink:href="#DejaVuSans-31"/>
       <use x="63.623047" xlink:href="#DejaVuSans-30"/>
       <use x="127.246094" xlink:href="#DejaVuSans-30"/>
      </g>
     </g>
    </g>
    <g id="xtick_5">
     <g id="line2d_5">
      <g>
       <use style="stroke:#000000;stroke-width:0.8;" x="230.918001" xlink:href="#mb83014c7a2" y="314.6"/>
      </g>
     </g>
     <g id="text_5">
      <!-- 120 -->
      <g transform="translate(221.374251 329.198438)scale(0.1 -0.1)">
       <defs>
        <path d="M 1228 531 
L 3431 531 
L 3431 0 
L 469 0 
L 469 531 
Q 828 903 1448 1529 
Q 2069 2156 2228 2338 
Q 2531 2678 2651 2914 
Q 2772 3150 2772 3378 
Q 2772 3750 2511 3984 
Q 2250 4219 1831 4219 
Q 1534 4219 1204 4116 
Q 875 4013 500 3803 
L 500 4441 
Q 881 4594 1212 4672 
Q 1544 4750 1819 4750 
Q 2544 4750 2975 4387 
Q 3406 4025 3406 3419 
Q 3406 3131 3298 2873 
Q 3191 2616 2906 2266 
Q 2828 2175 2409 1742 
Q 1991 1309 1228 531 
z
" id="DejaVuSans-32" transform="scale(0.015625)"/>
       </defs>
       <use xlink:href="#DejaVuSans-31"/>
       <use x="63.623047" xlink:href="#DejaVuSans-32"/>
       <use x="127.246094" xlink:href="#DejaVuSans-30"/>
      </g>
     </g>
    </g>
    <g id="xtick_6">
     <g id="line2d_6">
      <g>
       <use style="stroke:#000000;stroke-width:0.8;" x="269.649069" xlink:href="#mb83014c7a2" y="314.6"/>
      </g>
     </g>
     <g id="text_6">
      <!-- 140 -->
      <g transform="translate(260.105319 329.198438)scale(0.1 -0.1)">
       <use xlink:href="#DejaVuSans-31"/>
       <use x="63.623047" xlink:href="#DejaVuSans-34"/>
       <use x="127.246094" xlink:href="#DejaVuSans-30"/>
      </g>
     </g>
    </g>
    <g id="xtick_7">
     <g id="line2d_7">
      <g>
       <use style="stroke:#000000;stroke-width:0.8;" x="308.380136" xlink:href="#mb83014c7a2" y="314.6"/>
      </g>
     </g>
     <g id="text_7">
      <!-- 160 -->
      <g transform="translate(298.836386 329.198438)scale(0.1 -0.1)">
       <use xlink:href="#DejaVuSans-31"/>
       <use x="63.623047" xlink:href="#DejaVuSans-36"/>
       <use x="127.246094" xlink:href="#DejaVuSans-30"/>
      </g>
     </g>
    </g>
    <g id="text_8">
     <!-- MW, g/mol -->
     <g transform="translate(167.878151 342.876562)scale(0.1 -0.1)">
      <defs>
       <path d="M 628 4666 
L 1569 4666 
L 2759 1491 
L 3956 4666 
L 4897 4666 
L 4897 0 
L 4281 0 
L 4281 4097 
L 3078 897 
L 2444 897 
L 1241 4097 
L 1241 0 
L 628 0 
L 628 4666 
z
" id="DejaVuSans-4d" transform="scale(0.015625)"/>
       <path d="M 213 4666 
L 850 4666 
L 1831 722 
L 2809 4666 
L 3519 4666 
L 4500 722 
L 5478 4666 
L 6119 4666 
L 4947 0 
L 4153 0 
L 3169 4050 
L 2175 0 
L 1381 0 
L 213 4666 
z
" id="DejaVuSans-57" transform="scale(0.015625)"/>
       <path d="M 750 794 
L 1409 794 
L 1409 256 
L 897 -744 
L 494 -744 
L 750 256 
L 750 794 
z
" id="DejaVuSans-2c" transform="scale(0.015625)"/>
       <path id="DejaVuSans-20" transform="scale(0.015625)"/>
       <path d="M 2906 1791 
Q 2906 2416 2648 2759 
Q 2391 3103 1925 3103 
Q 1463 3103 1205 2759 
Q 947 2416 947 1791 
Q 947 1169 1205 825 
Q 1463 481 1925 481 
Q 2391 481 2648 825 
Q 2906 1169 2906 1791 
z
M 3481 434 
Q 3481 -459 3084 -895 
Q 2688 -1331 1869 -1331 
Q 1566 -1331 1297 -1286 
Q 1028 -1241 775 -1147 
L 775 -588 
Q 1028 -725 1275 -790 
Q 1522 -856 1778 -856 
Q 2344 -856 2625 -561 
Q 2906 -266 2906 331 
L 2906 616 
Q 2728 306 2450 153 
Q 2172 0 1784 0 
Q 1141 0 747 490 
Q 353 981 353 1791 
Q 353 2603 747 3093 
Q 1141 3584 1784 3584 
Q 2172 3584 2450 3431 
Q 2728 3278 2906 2969 
L 2906 3500 
L 3481 3500 
L 3481 434 
z
" id="DejaVuSans-67" transform="scale(0.015625)"/>
       <path d="M 1625 4666 
L 2156 4666 
L 531 -594 
L 0 -594 
L 1625 4666 
z
" id="DejaVuSans-2f" transform="scale(0.015625)"/>
       <path d="M 3328 2828 
Q 3544 3216 3844 3400 
Q 4144 3584 4550 3584 
Q 5097 3584 5394 3201 
Q 5691 2819 5691 2113 
L 5691 0 
L 5113 0 
L 5113 2094 
Q 5113 2597 4934 2840 
Q 4756 3084 4391 3084 
Q 3944 3084 3684 2787 
Q 3425 2491 3425 1978 
L 3425 0 
L 2847 0 
L 2847 2094 
Q 2847 2600 2669 2842 
Q 2491 3084 2119 3084 
Q 1678 3084 1418 2786 
Q 1159 2488 1159 1978 
L 1159 0 
L 581 0 
L 581 3500 
L 1159 3500 
L 1159 2956 
Q 1356 3278 1631 3431 
Q 1906 3584 2284 3584 
Q 2666 3584 2933 3390 
Q 3200 3197 3328 2828 
z
" id="DejaVuSans-6d" transform="scale(0.015625)"/>
       <path d="M 1959 3097 
Q 1497 3097 1228 2736 
Q 959 2375 959 1747 
Q 959 1119 1226 758 
Q 1494 397 1959 397 
Q 2419 397 2687 759 
Q 2956 1122 2956 1747 
Q 2956 2369 2687 2733 
Q 2419 3097 1959 3097 
z
M 1959 3584 
Q 2709 3584 3137 3096 
Q 3566 2609 3566 1747 
Q 3566 888 3137 398 
Q 2709 -91 1959 -91 
Q 1206 -91 779 398 
Q 353 888 353 1747 
Q 353 2609 779 3096 
Q 1206 3584 1959 3584 
z
" id="DejaVuSans-6f" transform="scale(0.015625)"/>
       <path d="M 603 4863 
L 1178 4863 
L 1178 0 
L 603 0 
L 603 4863 
z
" id="DejaVuSans-6c" transform="scale(0.015625)"/>
      </defs>
      <use xlink:href="#DejaVuSans-4d"/>
      <use x="86.279297" xlink:href="#DejaVuSans-57"/>
      <use x="185.15625" xlink:href="#DejaVuSans-2c"/>
      <use x="216.943359" xlink:href="#DejaVuSans-20"/>
      <use x="248.730469" xlink:href="#DejaVuSans-67"/>
      <use x="312.207031" xlink:href="#DejaVuSans-2f"/>
      <use x="345.898438" xlink:href="#DejaVuSans-6d"/>
      <use x="443.310547" xlink:href="#DejaVuSans-6f"/>
      <use x="504.492188" xlink:href="#DejaVuSans-6c"/>
     </g>
    </g>
   </g>
   <g id="matplotlib.axis_2">
    <g id="ytick_1">
     <g id="line2d_8">
      <defs>
       <path d="M 0 0 
L -3.5 0 
" id="m25a31f62b7" style="stroke:#000000;stroke-width:0.8;"/>
      </defs>
      <g>
       <use style="stroke:#000000;stroke-width:0.8;" x="47.1875" xlink:href="#m25a31f62b7" y="273.106042"/>
      </g>
     </g>
     <g id="text_9">
      <!-- 50 -->
      <g transform="translate(27.4625 276.905261)scale(0.1 -0.1)">
       <defs>
        <path d="M 691 4666 
L 3169 4666 
L 3169 4134 
L 1269 4134 
L 1269 2991 
Q 1406 3038 1543 3061 
Q 1681 3084 1819 3084 
Q 2600 3084 3056 2656 
Q 3513 2228 3513 1497 
Q 3513 744 3044 326 
Q 2575 -91 1722 -91 
Q 1428 -91 1123 -41 
Q 819 9 494 109 
L 494 744 
Q 775 591 1075 516 
Q 1375 441 1709 441 
Q 2250 441 2565 725 
Q 2881 1009 2881 1497 
Q 2881 1984 2565 2268 
Q 2250 2553 1709 2553 
Q 1456 2553 1204 2497 
Q 953 2441 691 2322 
L 691 4666 
z
" id="DejaVuSans-35" transform="scale(0.015625)"/>
       </defs>
       <use xlink:href="#DejaVuSans-35"/>
       <use x="63.623047" xlink:href="#DejaVuSans-30"/>
      </g>
     </g>
    </g>
    <g id="ytick_2">
     <g id="line2d_9">
      <g>
       <use style="stroke:#000000;stroke-width:0.8;" x="47.1875" xlink:href="#m25a31f62b7" y="210.55779"/>
      </g>
     </g>
     <g id="text_10">
      <!-- 100 -->
      <g transform="translate(21.1 214.357009)scale(0.1 -0.1)">
       <use xlink:href="#DejaVuSans-31"/>
       <use x="63.623047" xlink:href="#DejaVuSans-30"/>
       <use x="127.246094" xlink:href="#DejaVuSans-30"/>
      </g>
     </g>
    </g>
    <g id="ytick_3">
     <g id="line2d_10">
      <g>
       <use style="stroke:#000000;stroke-width:0.8;" x="47.1875" xlink:href="#m25a31f62b7" y="148.009538"/>
      </g>
     </g>
     <g id="text_11">
      <!-- 150 -->
      <g transform="translate(21.1 151.808757)scale(0.1 -0.1)">
       <use xlink:href="#DejaVuSans-31"/>
       <use x="63.623047" xlink:href="#DejaVuSans-35"/>
       <use x="127.246094" xlink:href="#DejaVuSans-30"/>
      </g>
     </g>
    </g>
    <g id="ytick_4">
     <g id="line2d_11">
      <g>
       <use style="stroke:#000000;stroke-width:0.8;" x="47.1875" xlink:href="#m25a31f62b7" y="85.461286"/>
      </g>
     </g>
     <g id="text_12">
      <!-- 200 -->
      <g transform="translate(21.1 89.260505)scale(0.1 -0.1)">
       <use xlink:href="#DejaVuSans-32"/>
       <use x="63.623047" xlink:href="#DejaVuSans-30"/>
       <use x="127.246094" xlink:href="#DejaVuSans-30"/>
      </g>
     </g>
    </g>
    <g id="ytick_5">
     <g id="line2d_12">
      <g>
       <use style="stroke:#000000;stroke-width:0.8;" x="47.1875" xlink:href="#m25a31f62b7" y="22.913035"/>
      </g>
     </g>
     <g id="text_13">
      <!-- 250 -->
      <g transform="translate(21.1 26.712253)scale(0.1 -0.1)">
       <use xlink:href="#DejaVuSans-32"/>
       <use x="63.623047" xlink:href="#DejaVuSans-35"/>
       <use x="127.246094" xlink:href="#DejaVuSans-30"/>
      </g>
     </g>
    </g>
    <g id="text_14">
     <!-- bp, $^o$C -->
     <g transform="translate(15 176.25)rotate(-90)scale(0.1 -0.1)">
      <defs>
       <path d="M 3116 1747 
Q 3116 2381 2855 2742 
Q 2594 3103 2138 3103 
Q 1681 3103 1420 2742 
Q 1159 2381 1159 1747 
Q 1159 1113 1420 752 
Q 1681 391 2138 391 
Q 2594 391 2855 752 
Q 3116 1113 3116 1747 
z
M 1159 2969 
Q 1341 3281 1617 3432 
Q 1894 3584 2278 3584 
Q 2916 3584 3314 3078 
Q 3713 2572 3713 1747 
Q 3713 922 3314 415 
Q 2916 -91 2278 -91 
Q 1894 -91 1617 61 
Q 1341 213 1159 525 
L 1159 0 
L 581 0 
L 581 4863 
L 1159 4863 
L 1159 2969 
z
" id="DejaVuSans-62" transform="scale(0.015625)"/>
       <path d="M 1159 525 
L 1159 -1331 
L 581 -1331 
L 581 3500 
L 1159 3500 
L 1159 2969 
Q 1341 3281 1617 3432 
Q 1894 3584 2278 3584 
Q 2916 3584 3314 3078 
Q 3713 2572 3713 1747 
Q 3713 922 3314 415 
Q 2916 -91 2278 -91 
Q 1894 -91 1617 61 
Q 1341 213 1159 525 
z
M 3116 1747 
Q 3116 2381 2855 2742 
Q 2594 3103 2138 3103 
Q 1681 3103 1420 2742 
Q 1159 2381 1159 1747 
Q 1159 1113 1420 752 
Q 1681 391 2138 391 
Q 2594 391 2855 752 
Q 3116 1113 3116 1747 
z
" id="DejaVuSans-70" transform="scale(0.015625)"/>
       <path d="M 1625 -91 
Q 1009 -91 651 289 
Q 294 669 294 1325 
Q 294 1706 417 2101 
Q 541 2497 738 2766 
Q 1047 3184 1428 3384 
Q 1809 3584 2291 3584 
Q 2888 3584 3255 3212 
Q 3622 2841 3622 2241 
Q 3622 1825 3500 1412 
Q 3378 1000 3181 728 
Q 2875 309 2494 109 
Q 2113 -91 1625 -91 
z
M 891 1344 
Q 891 869 1089 633 
Q 1288 397 1691 397 
Q 2269 397 2648 901 
Q 3028 1406 3028 2181 
Q 3028 2634 2825 2865 
Q 2622 3097 2228 3097 
Q 1903 3097 1650 2945 
Q 1397 2794 1197 2484 
Q 1050 2253 970 1956 
Q 891 1659 891 1344 
z
" id="DejaVuSans-Oblique-6f" transform="scale(0.015625)"/>
       <path d="M 4122 4306 
L 4122 3641 
Q 3803 3938 3442 4084 
Q 3081 4231 2675 4231 
Q 1875 4231 1450 3742 
Q 1025 3253 1025 2328 
Q 1025 1406 1450 917 
Q 1875 428 2675 428 
Q 3081 428 3442 575 
Q 3803 722 4122 1019 
L 4122 359 
Q 3791 134 3420 21 
Q 3050 -91 2638 -91 
Q 1578 -91 968 557 
Q 359 1206 359 2328 
Q 359 3453 968 4101 
Q 1578 4750 2638 4750 
Q 3056 4750 3426 4639 
Q 3797 4528 4122 4306 
z
" id="DejaVuSans-43" transform="scale(0.015625)"/>
      </defs>
      <use transform="translate(0 0.51875)" xlink:href="#DejaVuSans-62"/>
      <use transform="translate(63.476562 0.51875)" xlink:href="#DejaVuSans-70"/>
      <use transform="translate(126.953125 0.51875)" xlink:href="#DejaVuSans-2c"/>
      <use transform="translate(158.740234 0.51875)" xlink:href="#DejaVuSans-20"/>
      <use transform="translate(191.484375 38.8)scale(0.7)" xlink:href="#DejaVuSans-Oblique-6f"/>
      <use transform="translate(237.045898 0.51875)" xlink:href="#DejaVuSans-43"/>
     </g>
    </g>
   </g>
   <g id="line2d_13">
    <path clip-path="url(#pf38830bda9)" d="M 60.578767 264.962813 
L 63.048166 262.704347 
L 65.517565 260.445881 
L 67.986963 258.187415 
L 70.456362 255.928949 
L 72.925761 253.670483 
L 75.39516 251.412017 
L 77.864559 249.153551 
L 80.333958 246.895085 
L 82.803357 244.636619 
L 85.272756 242.378153 
L 87.742155 240.119687 
L 90.211554 237.861221 
L 92.680953 235.602755 
L 95.150352 233.344289 
L 97.619751 231.085823 
L 100.08915 228.827357 
L 102.558549 226.568891 
L 105.027948 224.310425 
L 107.497347 222.051959 
L 109.966746 219.793493 
L 112.436145 217.535027 
L 114.905544 215.276561 
L 117.374943 213.018095 
L 119.844342 210.75963 
L 122.313741 208.501164 
L 124.78314 206.242698 
L 127.252539 203.984232 
L 129.721938 201.725766 
L 132.191337 199.4673 
L 134.660736 197.208834 
L 137.130135 194.950368 
L 139.599534 192.691902 
L 142.068932 190.433436 
L 144.538331 188.17497 
L 147.00773 185.916504 
L 149.477129 183.658038 
L 151.946528 181.399572 
L 154.415927 179.141106 
L 156.885326 176.88264 
L 159.354725 174.624174 
L 161.824124 172.365708 
L 164.293523 170.107242 
L 166.762922 167.848776 
L 169.232321 165.59031 
L 171.70172 163.331844 
L 174.171119 161.073378 
L 176.640518 158.814912 
L 179.109917 156.556446 
L 181.579316 154.29798 
L 184.048715 152.039514 
L 186.518114 149.781048 
L 188.987513 147.522582 
L 191.456912 145.264116 
L 193.926311 143.00565 
L 196.39571 140.747184 
L 198.865109 138.488718 
L 201.334508 136.230253 
L 203.803907 133.971787 
L 206.273306 131.713321 
L 208.742705 129.454855 
L 211.212104 127.196389 
L 213.681503 124.937923 
L 216.150902 122.679457 
L 218.6203 120.420991 
L 221.089699 118.162525 
L 223.559098 115.904059 
L 226.028497 113.645593 
L 228.497896 111.387127 
L 230.967295 109.128661 
L 233.436694 106.870195 
L 235.906093 104.611729 
L 238.375492 102.353263 
L 240.844891 100.094797 
L 243.31429 97.836331 
L 245.783689 95.577865 
L 248.253088 93.319399 
L 250.722487 91.060933 
L 253.191886 88.802467 
L 255.661285 86.544001 
L 258.130684 84.285535 
L 260.600083 82.027069 
L 263.069482 79.768603 
L 265.538881 77.510137 
L 268.00828 75.251671 
L 270.477679 72.993205 
L 272.947078 70.734739 
L 275.416477 68.476273 
L 277.885876 66.217807 
L 280.355275 63.959341 
L 282.824674 61.700876 
L 285.294073 59.44241 
L 287.763472 57.183944 
L 290.232871 54.925478 
L 292.70227 52.667012 
L 295.171668 50.408546 
L 297.641067 48.15008 
L 300.110466 45.891614 
L 302.579865 43.633148 
L 305.049264 41.374682 
" style="fill:none;stroke:#1f77b4;stroke-linecap:square;stroke-width:2.25;"/>
   </g>
   <g id="line2d_14">
    <path clip-path="url(#pf38830bda9)" d="M 138.253922 289.327219 
L 140.174631 286.960943 
L 142.09534 284.594666 
L 144.016049 282.22839 
L 145.936758 279.862114 
L 147.857467 277.495837 
L 149.778175 275.129561 
L 151.698884 272.763285 
L 153.619593 270.397009 
L 155.540302 268.030732 
L 157.461011 265.664456 
L 159.38172 263.29818 
L 161.302428 260.931903 
L 163.223137 258.565627 
L 165.143846 256.199351 
L 167.064555 253.833074 
L 168.985264 251.466798 
L 170.905973 249.100522 
L 172.826682 246.734246 
L 174.74739 244.367969 
L 176.668099 242.001693 
L 178.588808 239.635417 
L 180.509517 237.26914 
L 182.430226 234.902864 
L 184.350935 232.536588 
L 186.271643 230.170311 
L 188.192352 227.804035 
L 190.113061 225.437759 
L 192.03377 223.071482 
L 193.954479 220.705206 
L 195.875188 218.33893 
L 197.795897 215.972654 
L 199.716605 213.606377 
L 201.637314 211.240101 
L 203.558023 208.873825 
L 205.478732 206.507548 
L 207.399441 204.141272 
L 209.32015 201.774996 
L 211.240858 199.408719 
L 213.161567 197.042443 
L 215.082276 194.676167 
L 217.002985 192.309891 
L 218.923694 189.943614 
L 220.844403 187.577338 
L 222.765112 185.211062 
L 224.68582 182.844785 
L 226.606529 180.478509 
L 228.527238 178.112233 
L 230.447947 175.745956 
L 232.368656 173.37968 
L 234.289365 171.013404 
L 236.210073 168.647127 
L 238.130782 166.280851 
L 240.051491 163.914575 
L 241.9722 161.548299 
L 243.892909 159.182022 
L 245.813618 156.815746 
L 247.734327 154.44947 
L 249.655035 152.083193 
L 251.575744 149.716917 
L 253.496453 147.350641 
L 255.417162 144.984364 
L 257.337871 142.618088 
L 259.25858 140.251812 
L 261.179288 137.885536 
L 263.099997 135.519259 
L 265.020706 133.152983 
L 266.941415 130.786707 
L 268.862124 128.42043 
L 270.782833 126.054154 
L 272.703542 123.687878 
L 274.62425 121.321601 
L 276.544959 118.955325 
L 278.465668 116.589049 
L 280.386377 114.222772 
L 282.307086 111.856496 
L 284.227795 109.49022 
L 286.148503 107.123944 
L 288.069212 104.757667 
L 289.989921 102.391391 
L 291.91063 100.025115 
L 293.831339 97.658838 
L 295.752048 95.292562 
L 297.672756 92.926286 
L 299.593465 90.560009 
L 301.514174 88.193733 
L 303.434883 85.827457 
L 305.355592 83.461181 
L 307.276301 81.094904 
L 309.19701 78.728628 
L 311.117718 76.362352 
L 313.038427 73.996075 
L 314.959136 71.629799 
L 316.879845 69.263523 
L 318.800554 66.897246 
L 320.721263 64.53097 
L 322.641971 62.164694 
L 324.56268 59.798417 
L 326.483389 57.432141 
L 328.404098 55.065865 
" style="fill:none;stroke:#ff7f0e;stroke-linecap:square;stroke-width:2.25;"/>
   </g>
   <g id="patch_3">
    <path d="M 47.1875 314.6 
L 47.1875 7.2 
" style="fill:none;stroke:#000000;stroke-linecap:square;stroke-linejoin:miter;stroke-width:0.8;"/>
   </g>
   <g id="patch_4">
    <path d="M 47.1875 314.6 
L 341.795365 314.6 
" style="fill:none;stroke:#000000;stroke-linecap:square;stroke-linejoin:miter;stroke-width:0.8;"/>
   </g>
  </g>
  <g id="legend_1">
   <g id="text_15">
    <!-- type -->
    <g transform="translate(368.013646 164.159375)scale(0.1 -0.1)">
     <defs>
      <path d="M 1172 4494 
L 1172 3500 
L 2356 3500 
L 2356 3053 
L 1172 3053 
L 1172 1153 
Q 1172 725 1289 603 
Q 1406 481 1766 481 
L 2356 481 
L 2356 0 
L 1766 0 
Q 1100 0 847 248 
Q 594 497 594 1153 
L 594 3053 
L 172 3053 
L 172 3500 
L 594 3500 
L 594 4494 
L 1172 4494 
z
" id="DejaVuSans-74" transform="scale(0.015625)"/>
      <path d="M 2059 -325 
Q 1816 -950 1584 -1140 
Q 1353 -1331 966 -1331 
L 506 -1331 
L 506 -850 
L 844 -850 
Q 1081 -850 1212 -737 
Q 1344 -625 1503 -206 
L 1606 56 
L 191 3500 
L 800 3500 
L 1894 763 
L 2988 3500 
L 3597 3500 
L 2059 -325 
z
" id="DejaVuSans-79" transform="scale(0.015625)"/>
      <path d="M 3597 1894 
L 3597 1613 
L 953 1613 
Q 991 1019 1311 708 
Q 1631 397 2203 397 
Q 2534 397 2845 478 
Q 3156 559 3463 722 
L 3463 178 
Q 3153 47 2828 -22 
Q 2503 -91 2169 -91 
Q 1331 -91 842 396 
Q 353 884 353 1716 
Q 353 2575 817 3079 
Q 1281 3584 2069 3584 
Q 2775 3584 3186 3129 
Q 3597 2675 3597 1894 
z
M 3022 2063 
Q 3016 2534 2758 2815 
Q 2500 3097 2075 3097 
Q 1594 3097 1305 2825 
Q 1016 2553 972 2059 
L 3022 2063 
z
" id="DejaVuSans-65" transform="scale(0.015625)"/>
     </defs>
     <use xlink:href="#DejaVuSans-74"/>
     <use x="39.208984" xlink:href="#DejaVuSans-79"/>
     <use x="98.388672" xlink:href="#DejaVuSans-70"/>
     <use x="161.865234" xlink:href="#DejaVuSans-65"/>
    </g>
   </g>
   <g id="PathCollection_3">
    <g>
     <use style="fill:#1f77b4;fill-opacity:0.8;stroke:#1f77b4;stroke-opacity:0.8;" x="357.305052" xlink:href="#m465699730f" y="176.2125"/>
    </g>
   </g>
   <g id="text_16">
    <!-- alcohol -->
    <g transform="translate(375.305052 178.8375)scale(0.1 -0.1)">
     <defs>
      <path d="M 2194 1759 
Q 1497 1759 1228 1600 
Q 959 1441 959 1056 
Q 959 750 1161 570 
Q 1363 391 1709 391 
Q 2188 391 2477 730 
Q 2766 1069 2766 1631 
L 2766 1759 
L 2194 1759 
z
M 3341 1997 
L 3341 0 
L 2766 0 
L 2766 531 
Q 2569 213 2275 61 
Q 1981 -91 1556 -91 
Q 1019 -91 701 211 
Q 384 513 384 1019 
Q 384 1609 779 1909 
Q 1175 2209 1959 2209 
L 2766 2209 
L 2766 2266 
Q 2766 2663 2505 2880 
Q 2244 3097 1772 3097 
Q 1472 3097 1187 3025 
Q 903 2953 641 2809 
L 641 3341 
Q 956 3463 1253 3523 
Q 1550 3584 1831 3584 
Q 2591 3584 2966 3190 
Q 3341 2797 3341 1997 
z
" id="DejaVuSans-61" transform="scale(0.015625)"/>
      <path d="M 3122 3366 
L 3122 2828 
Q 2878 2963 2633 3030 
Q 2388 3097 2138 3097 
Q 1578 3097 1268 2742 
Q 959 2388 959 1747 
Q 959 1106 1268 751 
Q 1578 397 2138 397 
Q 2388 397 2633 464 
Q 2878 531 3122 666 
L 3122 134 
Q 2881 22 2623 -34 
Q 2366 -91 2075 -91 
Q 1284 -91 818 406 
Q 353 903 353 1747 
Q 353 2603 823 3093 
Q 1294 3584 2113 3584 
Q 2378 3584 2631 3529 
Q 2884 3475 3122 3366 
z
" id="DejaVuSans-63" transform="scale(0.015625)"/>
      <path d="M 3513 2113 
L 3513 0 
L 2938 0 
L 2938 2094 
Q 2938 2591 2744 2837 
Q 2550 3084 2163 3084 
Q 1697 3084 1428 2787 
Q 1159 2491 1159 1978 
L 1159 0 
L 581 0 
L 581 4863 
L 1159 4863 
L 1159 2956 
Q 1366 3272 1645 3428 
Q 1925 3584 2291 3584 
Q 2894 3584 3203 3211 
Q 3513 2838 3513 2113 
z
" id="DejaVuSans-68" transform="scale(0.015625)"/>
     </defs>
     <use xlink:href="#DejaVuSans-61"/>
     <use x="61.279297" xlink:href="#DejaVuSans-6c"/>
     <use x="89.0625" xlink:href="#DejaVuSans-63"/>
     <use x="144.042969" xlink:href="#DejaVuSans-6f"/>
     <use x="205.224609" xlink:href="#DejaVuSans-68"/>
     <use x="268.603516" xlink:href="#DejaVuSans-6f"/>
     <use x="329.785156" xlink:href="#DejaVuSans-6c"/>
    </g>
   </g>
   <g id="PathCollection_4">
    <g>
     <use style="fill:#ff7f0e;fill-opacity:0.8;stroke:#ff7f0e;stroke-opacity:0.8;" x="357.305052" xlink:href="#mb9ca123543" y="190.890625"/>
    </g>
   </g>
   <g id="text_17">
    <!-- alkane -->
    <g transform="translate(375.305052 193.515625)scale(0.1 -0.1)">
     <defs>
      <path d="M 581 4863 
L 1159 4863 
L 1159 1991 
L 2875 3500 
L 3609 3500 
L 1753 1863 
L 3688 0 
L 2938 0 
L 1159 1709 
L 1159 0 
L 581 0 
L 581 4863 
z
" id="DejaVuSans-6b" transform="scale(0.015625)"/>
      <path d="M 3513 2113 
L 3513 0 
L 2938 0 
L 2938 2094 
Q 2938 2591 2744 2837 
Q 2550 3084 2163 3084 
Q 1697 3084 1428 2787 
Q 1159 2491 1159 1978 
L 1159 0 
L 581 0 
L 581 3500 
L 1159 3500 
L 1159 2956 
Q 1366 3272 1645 3428 
Q 1925 3584 2291 3584 
Q 2894 3584 3203 3211 
Q 3513 2838 3513 2113 
z
" id="DejaVuSans-6e" transform="scale(0.015625)"/>
     </defs>
     <use xlink:href="#DejaVuSans-61"/>
     <use x="61.279297" xlink:href="#DejaVuSans-6c"/>
     <use x="89.0625" xlink:href="#DejaVuSans-6b"/>
     <use x="145.222656" xlink:href="#DejaVuSans-61"/>
     <use x="206.501953" xlink:href="#DejaVuSans-6e"/>
     <use x="269.880859" xlink:href="#DejaVuSans-65"/>
    </g>
   </g>
  </g>
 </g>
 <defs>
  <clipPath id="pf38830bda9">
   <rect height="307.4" width="294.607865" x="47.1875" y="7.2"/>
  </clipPath>
 </defs>
</svg>
