<?xml version="1.0" encoding="utf-8" standalone="no"?>
<!DOCTYPE svg PUBLIC "-//W3C//DTD SVG 1.1//EN"
  "http://www.w3.org/Graphics/SVG/1.1/DTD/svg11.dtd">
<svg xmlns:xlink="http://www.w3.org/1999/xlink" width="407.15125pt" height="310.86825pt" viewBox="0 0 407.15125 310.86825" xmlns="http://www.w3.org/2000/svg" version="1.1">
 <metadata>
  <rdf:RDF xmlns:dc="http://purl.org/dc/elements/1.1/" xmlns:cc="http://creativecommons.org/ns#" xmlns:rdf="http://www.w3.org/1999/02/22-rdf-syntax-ns#">
   <cc:Work>
    <dc:type rdf:resource="http://purl.org/dc/dcmitype/StillImage"/>
    <dc:date>2023-04-12T19:08:36.201547</dc:date>
    <dc:format>image/svg+xml</dc:format>
    <dc:creator>
     <cc:Agent>
      <dc:title>Matplotlib v3.7.1, https://matplotlib.org/</dc:title>
     </cc:Agent>
    </dc:creator>
   </cc:Work>
  </rdf:RDF>
 </metadata>
 <defs>
  <style type="text/css">*{stroke-linejoin: round; stroke-linecap: butt}</style>
 </defs>
 <g id="figure_1">
  <g id="patch_1">
   <path d="M 0 310.86825 
L 407.15125 310.86825 
L 407.15125 0 
L 0 0 
z
" style="fill: #ffffff"/>
  </g>
  <g id="axes_1">
   <g id="patch_2">
    <path d="M 33.2875 273.312 
L 390.4075 273.312 
L 390.4075 7.2 
L 33.2875 7.2 
z
" style="fill: #ffffff"/>
   </g>
   <g id="matplotlib.axis_1">
    <g id="xtick_1">
     <g id="line2d_1">
      <defs>
       <path id="mee69bd35bf" d="M 0 0 
L 0 3.5 
" style="stroke: #000000; stroke-width: 0.8"/>
      </defs>
      <g>
       <use xlink:href="#mee69bd35bf" x="33.2875" y="273.312" style="stroke: #000000; stroke-width: 0.8"/>
      </g>
     </g>
     <g id="text_1">
      <!-- 0 -->
      <g transform="translate(30.10625 287.910437) scale(0.1 -0.1)">
       <defs>
        <path id="DejaVuSans-30" d="M 2034 4250 
Q 1547 4250 1301 3770 
Q 1056 3291 1056 2328 
Q 1056 1369 1301 889 
Q 1547 409 2034 409 
Q 2525 409 2770 889 
Q 3016 1369 3016 2328 
Q 3016 3291 2770 3770 
Q 2525 4250 2034 4250 
z
M 2034 4750 
Q 2819 4750 3233 4129 
Q 3647 3509 3647 2328 
Q 3647 1150 3233 529 
Q 2819 -91 2034 -91 
Q 1250 -91 836 529 
Q 422 1150 422 2328 
Q 422 3509 836 4129 
Q 1250 4750 2034 4750 
z
" transform="scale(0.015625)"/>
       </defs>
       <use xlink:href="#DejaVuSans-30"/>
      </g>
     </g>
    </g>
    <g id="xtick_2">
     <g id="line2d_2">
      <g>
       <use xlink:href="#mee69bd35bf" x="104.7115" y="273.312" style="stroke: #000000; stroke-width: 0.8"/>
      </g>
     </g>
     <g id="text_2">
      <!-- 50 -->
      <g transform="translate(98.349 287.910437) scale(0.1 -0.1)">
       <defs>
        <path id="DejaVuSans-35" d="M 691 4666 
L 3169 4666 
L 3169 4134 
L 1269 4134 
L 1269 2991 
Q 1406 3038 1543 3061 
Q 1681 3084 1819 3084 
Q 2600 3084 3056 2656 
Q 3513 2228 3513 1497 
Q 3513 744 3044 326 
Q 2575 -91 1722 -91 
Q 1428 -91 1123 -41 
Q 819 9 494 109 
L 494 744 
Q 775 591 1075 516 
Q 1375 441 1709 441 
Q 2250 441 2565 725 
Q 2881 1009 2881 1497 
Q 2881 1984 2565 2268 
Q 2250 2553 1709 2553 
Q 1456 2553 1204 2497 
Q 953 2441 691 2322 
L 691 4666 
z
" transform="scale(0.015625)"/>
       </defs>
       <use xlink:href="#DejaVuSans-35"/>
       <use xlink:href="#DejaVuSans-30" x="63.623047"/>
      </g>
     </g>
    </g>
    <g id="xtick_3">
     <g id="line2d_3">
      <g>
       <use xlink:href="#mee69bd35bf" x="176.1355" y="273.312" style="stroke: #000000; stroke-width: 0.8"/>
      </g>
     </g>
     <g id="text_3">
      <!-- 100 -->
      <g transform="translate(166.59175 287.910437) scale(0.1 -0.1)">
       <defs>
        <path id="DejaVuSans-31" d="M 794 531 
L 1825 531 
L 1825 4091 
L 703 3866 
L 703 4441 
L 1819 4666 
L 2450 4666 
L 2450 531 
L 3481 531 
L 3481 0 
L 794 0 
L 794 531 
z
" transform="scale(0.015625)"/>
       </defs>
       <use xlink:href="#DejaVuSans-31"/>
       <use xlink:href="#DejaVuSans-30" x="63.623047"/>
       <use xlink:href="#DejaVuSans-30" x="127.246094"/>
      </g>
     </g>
    </g>
    <g id="xtick_4">
     <g id="line2d_4">
      <g>
       <use xlink:href="#mee69bd35bf" x="247.5595" y="273.312" style="stroke: #000000; stroke-width: 0.8"/>
      </g>
     </g>
     <g id="text_4">
      <!-- 150 -->
      <g transform="translate(238.01575 287.910437) scale(0.1 -0.1)">
       <use xlink:href="#DejaVuSans-31"/>
       <use xlink:href="#DejaVuSans-35" x="63.623047"/>
       <use xlink:href="#DejaVuSans-30" x="127.246094"/>
      </g>
     </g>
    </g>
    <g id="xtick_5">
     <g id="line2d_5">
      <g>
       <use xlink:href="#mee69bd35bf" x="318.9835" y="273.312" style="stroke: #000000; stroke-width: 0.8"/>
      </g>
     </g>
     <g id="text_5">
      <!-- 200 -->
      <g transform="translate(309.43975 287.910437) scale(0.1 -0.1)">
       <defs>
        <path id="DejaVuSans-32" d="M 1228 531 
L 3431 531 
L 3431 0 
L 469 0 
L 469 531 
Q 828 903 1448 1529 
Q 2069 2156 2228 2338 
Q 2531 2678 2651 2914 
Q 2772 3150 2772 3378 
Q 2772 3750 2511 3984 
Q 2250 4219 1831 4219 
Q 1534 4219 1204 4116 
Q 875 4013 500 3803 
L 500 4441 
Q 881 4594 1212 4672 
Q 1544 4750 1819 4750 
Q 2544 4750 2975 4387 
Q 3406 4025 3406 3419 
Q 3406 3131 3298 2873 
Q 3191 2616 2906 2266 
Q 2828 2175 2409 1742 
Q 1991 1309 1228 531 
z
" transform="scale(0.015625)"/>
       </defs>
       <use xlink:href="#DejaVuSans-32"/>
       <use xlink:href="#DejaVuSans-30" x="63.623047"/>
       <use xlink:href="#DejaVuSans-30" x="127.246094"/>
      </g>
     </g>
    </g>
    <g id="xtick_6">
     <g id="line2d_6">
      <g>
       <use xlink:href="#mee69bd35bf" x="390.4075" y="273.312" style="stroke: #000000; stroke-width: 0.8"/>
      </g>
     </g>
     <g id="text_6">
      <!-- 250 -->
      <g transform="translate(380.86375 287.910437) scale(0.1 -0.1)">
       <use xlink:href="#DejaVuSans-32"/>
       <use xlink:href="#DejaVuSans-35" x="63.623047"/>
       <use xlink:href="#DejaVuSans-30" x="127.246094"/>
      </g>
     </g>
    </g>
    <g id="text_7">
     <!-- Frequency, Hz -->
     <g transform="translate(176.455313 301.588562) scale(0.1 -0.1)">
      <defs>
       <path id="DejaVuSans-46" d="M 628 4666 
L 3309 4666 
L 3309 4134 
L 1259 4134 
L 1259 2759 
L 3109 2759 
L 3109 2228 
L 1259 2228 
L 1259 0 
L 628 0 
L 628 4666 
z
" transform="scale(0.015625)"/>
       <path id="DejaVuSans-72" d="M 2631 2963 
Q 2534 3019 2420 3045 
Q 2306 3072 2169 3072 
Q 1681 3072 1420 2755 
Q 1159 2438 1159 1844 
L 1159 0 
L 581 0 
L 581 3500 
L 1159 3500 
L 1159 2956 
Q 1341 3275 1631 3429 
Q 1922 3584 2338 3584 
Q 2397 3584 2469 3576 
Q 2541 3569 2628 3553 
L 2631 2963 
z
" transform="scale(0.015625)"/>
       <path id="DejaVuSans-65" d="M 3597 1894 
L 3597 1613 
L 953 1613 
Q 991 1019 1311 708 
Q 1631 397 2203 397 
Q 2534 397 2845 478 
Q 3156 559 3463 722 
L 3463 178 
Q 3153 47 2828 -22 
Q 2503 -91 2169 -91 
Q 1331 -91 842 396 
Q 353 884 353 1716 
Q 353 2575 817 3079 
Q 1281 3584 2069 3584 
Q 2775 3584 3186 3129 
Q 3597 2675 3597 1894 
z
M 3022 2063 
Q 3016 2534 2758 2815 
Q 2500 3097 2075 3097 
Q 1594 3097 1305 2825 
Q 1016 2553 972 2059 
L 3022 2063 
z
" transform="scale(0.015625)"/>
       <path id="DejaVuSans-71" d="M 947 1747 
Q 947 1113 1208 752 
Q 1469 391 1925 391 
Q 2381 391 2643 752 
Q 2906 1113 2906 1747 
Q 2906 2381 2643 2742 
Q 2381 3103 1925 3103 
Q 1469 3103 1208 2742 
Q 947 2381 947 1747 
z
M 2906 525 
Q 2725 213 2448 61 
Q 2172 -91 1784 -91 
Q 1150 -91 751 415 
Q 353 922 353 1747 
Q 353 2572 751 3078 
Q 1150 3584 1784 3584 
Q 2172 3584 2448 3432 
Q 2725 3281 2906 2969 
L 2906 3500 
L 3481 3500 
L 3481 -1331 
L 2906 -1331 
L 2906 525 
z
" transform="scale(0.015625)"/>
       <path id="DejaVuSans-75" d="M 544 1381 
L 544 3500 
L 1119 3500 
L 1119 1403 
Q 1119 906 1312 657 
Q 1506 409 1894 409 
Q 2359 409 2629 706 
Q 2900 1003 2900 1516 
L 2900 3500 
L 3475 3500 
L 3475 0 
L 2900 0 
L 2900 538 
Q 2691 219 2414 64 
Q 2138 -91 1772 -91 
Q 1169 -91 856 284 
Q 544 659 544 1381 
z
M 1991 3584 
L 1991 3584 
z
" transform="scale(0.015625)"/>
       <path id="DejaVuSans-6e" d="M 3513 2113 
L 3513 0 
L 2938 0 
L 2938 2094 
Q 2938 2591 2744 2837 
Q 2550 3084 2163 3084 
Q 1697 3084 1428 2787 
Q 1159 2491 1159 1978 
L 1159 0 
L 581 0 
L 581 3500 
L 1159 3500 
L 1159 2956 
Q 1366 3272 1645 3428 
Q 1925 3584 2291 3584 
Q 2894 3584 3203 3211 
Q 3513 2838 3513 2113 
z
" transform="scale(0.015625)"/>
       <path id="DejaVuSans-63" d="M 3122 3366 
L 3122 2828 
Q 2878 2963 2633 3030 
Q 2388 3097 2138 3097 
Q 1578 3097 1268 2742 
Q 959 2388 959 1747 
Q 959 1106 1268 751 
Q 1578 397 2138 397 
Q 2388 397 2633 464 
Q 2878 531 3122 666 
L 3122 134 
Q 2881 22 2623 -34 
Q 2366 -91 2075 -91 
Q 1284 -91 818 406 
Q 353 903 353 1747 
Q 353 2603 823 3093 
Q 1294 3584 2113 3584 
Q 2378 3584 2631 3529 
Q 2884 3475 3122 3366 
z
" transform="scale(0.015625)"/>
       <path id="DejaVuSans-79" d="M 2059 -325 
Q 1816 -950 1584 -1140 
Q 1353 -1331 966 -1331 
L 506 -1331 
L 506 -850 
L 844 -850 
Q 1081 -850 1212 -737 
Q 1344 -625 1503 -206 
L 1606 56 
L 191 3500 
L 800 3500 
L 1894 763 
L 2988 3500 
L 3597 3500 
L 2059 -325 
z
" transform="scale(0.015625)"/>
       <path id="DejaVuSans-2c" d="M 750 794 
L 1409 794 
L 1409 256 
L 897 -744 
L 494 -744 
L 750 256 
L 750 794 
z
" transform="scale(0.015625)"/>
       <path id="DejaVuSans-20" transform="scale(0.015625)"/>
       <path id="DejaVuSans-48" d="M 628 4666 
L 1259 4666 
L 1259 2753 
L 3553 2753 
L 3553 4666 
L 4184 4666 
L 4184 0 
L 3553 0 
L 3553 2222 
L 1259 2222 
L 1259 0 
L 628 0 
L 628 4666 
z
" transform="scale(0.015625)"/>
       <path id="DejaVuSans-7a" d="M 353 3500 
L 3084 3500 
L 3084 2975 
L 922 459 
L 3084 459 
L 3084 0 
L 275 0 
L 275 525 
L 2438 3041 
L 353 3041 
L 353 3500 
z
" transform="scale(0.015625)"/>
      </defs>
      <use xlink:href="#DejaVuSans-46"/>
      <use xlink:href="#DejaVuSans-72" x="50.269531"/>
      <use xlink:href="#DejaVuSans-65" x="89.132812"/>
      <use xlink:href="#DejaVuSans-71" x="150.65625"/>
      <use xlink:href="#DejaVuSans-75" x="214.132812"/>
      <use xlink:href="#DejaVuSans-65" x="277.511719"/>
      <use xlink:href="#DejaVuSans-6e" x="339.035156"/>
      <use xlink:href="#DejaVuSans-63" x="402.414062"/>
      <use xlink:href="#DejaVuSans-79" x="457.394531"/>
      <use xlink:href="#DejaVuSans-2c" x="516.574219"/>
      <use xlink:href="#DejaVuSans-20" x="548.361328"/>
      <use xlink:href="#DejaVuSans-48" x="580.148438"/>
      <use xlink:href="#DejaVuSans-7a" x="655.34375"/>
     </g>
    </g>
   </g>
   <g id="matplotlib.axis_2">
    <g id="ytick_1">
     <g id="line2d_7">
      <defs>
       <path id="me3e9c6179a" d="M 0 0 
L -3.5 0 
" style="stroke: #000000; stroke-width: 0.8"/>
      </defs>
      <g>
       <use xlink:href="#me3e9c6179a" x="33.2875" y="251.685565" style="stroke: #000000; stroke-width: 0.8"/>
      </g>
     </g>
     <g id="text_8">
      <!-- 0 -->
      <g transform="translate(19.925 255.484784) scale(0.1 -0.1)">
       <use xlink:href="#DejaVuSans-30"/>
      </g>
     </g>
    </g>
    <g id="ytick_2">
     <g id="line2d_8">
      <g>
       <use xlink:href="#me3e9c6179a" x="33.2875" y="205.74936" style="stroke: #000000; stroke-width: 0.8"/>
      </g>
     </g>
     <g id="text_9">
      <!-- 50 -->
      <g transform="translate(13.5625 209.548578) scale(0.1 -0.1)">
       <use xlink:href="#DejaVuSans-35"/>
       <use xlink:href="#DejaVuSans-30" x="63.623047"/>
      </g>
     </g>
    </g>
    <g id="ytick_3">
     <g id="line2d_9">
      <g>
       <use xlink:href="#me3e9c6179a" x="33.2875" y="159.813154" style="stroke: #000000; stroke-width: 0.8"/>
      </g>
     </g>
     <g id="text_10">
      <!-- 100 -->
      <g transform="translate(7.2 163.612373) scale(0.1 -0.1)">
       <use xlink:href="#DejaVuSans-31"/>
       <use xlink:href="#DejaVuSans-30" x="63.623047"/>
       <use xlink:href="#DejaVuSans-30" x="127.246094"/>
      </g>
     </g>
    </g>
    <g id="ytick_4">
     <g id="line2d_10">
      <g>
       <use xlink:href="#me3e9c6179a" x="33.2875" y="113.876948" style="stroke: #000000; stroke-width: 0.8"/>
      </g>
     </g>
     <g id="text_11">
      <!-- 150 -->
      <g transform="translate(7.2 117.676167) scale(0.1 -0.1)">
       <use xlink:href="#DejaVuSans-31"/>
       <use xlink:href="#DejaVuSans-35" x="63.623047"/>
       <use xlink:href="#DejaVuSans-30" x="127.246094"/>
      </g>
     </g>
    </g>
    <g id="ytick_5">
     <g id="line2d_11">
      <g>
       <use xlink:href="#me3e9c6179a" x="33.2875" y="67.940743" style="stroke: #000000; stroke-width: 0.8"/>
      </g>
     </g>
     <g id="text_12">
      <!-- 200 -->
      <g transform="translate(7.2 71.739962) scale(0.1 -0.1)">
       <use xlink:href="#DejaVuSans-32"/>
       <use xlink:href="#DejaVuSans-30" x="63.623047"/>
       <use xlink:href="#DejaVuSans-30" x="127.246094"/>
      </g>
     </g>
    </g>
    <g id="ytick_6">
     <g id="line2d_12">
      <g>
       <use xlink:href="#me3e9c6179a" x="33.2875" y="22.004537" style="stroke: #000000; stroke-width: 0.8"/>
      </g>
     </g>
     <g id="text_13">
      <!-- 250 -->
      <g transform="translate(7.2 25.803756) scale(0.1 -0.1)">
       <use xlink:href="#DejaVuSans-32"/>
       <use xlink:href="#DejaVuSans-35" x="63.623047"/>
       <use xlink:href="#DejaVuSans-30" x="127.246094"/>
      </g>
     </g>
    </g>
   </g>
   <g id="line2d_13">
    <path d="M 33.2875 19.296 
L 34.71598 247.525559 
L 36.14446 249.811154 
L 37.57294 255.044348 
L 39.00142 251.898686 
L 40.4299 252.945723 
L 41.85838 248.672275 
L 43.28686 250.700161 
L 44.71534 249.577677 
L 46.14382 245.90784 
L 47.5723 256.48974 
L 49.00078 248.889798 
L 50.42926 250.248451 
L 51.85774 251.981616 
L 53.28622 254.366991 
L 54.7147 254.628726 
L 56.14318 254.639936 
L 57.57166 250.179909 
L 59.00014 253.248206 
L 60.42862 253.249065 
L 61.8571 254.024754 
L 63.28558 246.37491 
L 64.71406 247.314299 
L 66.14254 251.814724 
L 67.57102 250.734122 
L 68.9995 250.413042 
L 70.42798 249.298106 
L 71.85646 254.370995 
L 73.28494 247.424985 
L 74.71342 250.253713 
L 76.1419 249.822525 
L 77.57038 254.02717 
L 78.99886 246.528834 
L 80.42734 250.898136 
L 81.85582 251.403519 
L 83.2843 250.227355 
L 84.71278 252.677366 
L 86.14126 249.815096 
L 87.56974 249.671243 
L 88.99822 250.105898 
L 90.4267 249.166663 
L 91.85518 251.678302 
L 93.28366 252.253971 
L 94.71214 246.418453 
L 96.14062 247.014867 
L 97.5691 253.724467 
L 98.99758 246.471044 
L 100.42606 254.773796 
L 101.85454 250.463335 
L 104.7115 253.067067 
L 106.13998 254.858977 
L 107.56846 251.648762 
L 108.99694 251.545842 
L 110.42542 255.40624 
L 113.28238 248.541856 
L 114.71086 251.062065 
L 116.13934 252.608562 
L 117.56782 255.863453 
L 118.9963 245.207896 
L 120.42478 250.351433 
L 121.85326 164.561808 
L 123.28174 257.562338 
L 124.71022 256.232433 
L 126.1387 254.441456 
L 127.56718 251.914991 
L 130.42414 255.234927 
L 131.85262 251.16565 
L 133.2811 254.376942 
L 134.70958 249.283412 
L 136.13806 252.273446 
L 137.56654 254.910524 
L 138.99502 249.273324 
L 141.85198 259.138944 
L 143.28046 254.309796 
L 144.70894 247.189216 
L 146.13742 251.624439 
L 147.5659 252.904773 
L 148.99438 249.765915 
L 150.42286 250.048253 
L 151.85134 257.674179 
L 153.27982 257.536059 
L 154.7083 252.549289 
L 156.13678 246.238019 
L 157.56526 250.647991 
L 158.99374 252.786961 
L 160.42222 251.343271 
L 161.8507 261.216 
L 163.27918 248.307496 
L 164.70766 250.141366 
L 166.13614 258.3549 
L 167.56462 252.189397 
L 168.9931 248.915966 
L 170.42158 251.034537 
L 171.85006 248.572948 
L 173.27854 249.199426 
L 174.70702 251.16389 
L 177.56398 254.415666 
L 178.99246 246.550245 
L 180.42094 254.303817 
L 181.84942 249.872831 
L 183.2779 252.558641 
L 184.70638 251.797191 
L 186.13486 249.913823 
L 187.56334 252.165635 
L 188.99182 252.313739 
L 190.4203 245.422896 
L 191.84878 251.793305 
L 193.27726 251.654524 
L 194.70574 252.855106 
L 196.13422 254.399152 
L 197.5627 255.734762 
L 198.99118 256.731816 
L 200.41966 252.90087 
L 201.84814 255.208189 
L 203.27662 252.025002 
L 204.7051 253.869894 
L 206.13358 252.620097 
L 207.56206 251.741484 
L 208.99054 248.069739 
L 210.41902 249.913558 
L 211.8475 252.253192 
L 213.27598 253.861143 
L 214.70446 254.026207 
L 216.13294 251.032513 
L 217.56142 249.241082 
L 218.9899 254.699996 
L 220.41838 252.267199 
L 221.84686 259.930491 
L 223.27534 255.116768 
L 224.70382 251.490105 
L 226.1323 253.654141 
L 227.56078 255.195262 
L 228.98926 251.303656 
L 230.41774 255.401207 
L 231.84622 253.104382 
L 233.2747 251.290415 
L 234.70318 252.317236 
L 236.13166 245.612788 
L 237.56014 247.511207 
L 238.98862 252.845974 
L 240.4171 252.037772 
L 241.84558 251.838586 
L 243.27406 255.061556 
L 244.70254 250.815702 
L 246.13102 254.236297 
L 247.5595 253.58225 
L 248.98798 248.364737 
L 250.41646 250.116843 
L 251.84494 255.469504 
L 253.27342 249.624276 
L 254.7019 250.445293 
L 256.13038 253.26036 
L 257.55886 252.683395 
L 258.98734 255.682068 
L 260.41582 248.464421 
L 261.8443 250.445208 
L 263.27278 252.952263 
L 264.70126 255.986302 
L 266.12974 258.261459 
L 267.55822 249.401887 
L 268.9867 253.084594 
L 270.41518 253.509189 
L 271.84366 252.575353 
L 273.27214 254.643426 
L 276.1291 249.908155 
L 277.55758 246.876932 
L 278.98606 254.315671 
L 280.41454 248.721049 
L 281.84302 250.933694 
L 283.2715 243.315023 
L 284.69998 250.15761 
L 286.12846 251.81881 
L 287.55694 256.296513 
L 288.98542 251.925139 
L 290.4139 246.675933 
L 291.84238 254.508211 
L 293.27086 250.006279 
L 294.69934 252.015433 
L 296.12782 246.843346 
L 297.5563 246.894976 
L 298.98478 248.981884 
L 300.41326 254.217407 
L 301.84174 249.542802 
L 303.27022 252.700683 
L 304.6987 255.424038 
L 306.12718 252.472131 
L 307.55566 251.906864 
L 308.98414 250.329026 
L 310.41262 255.003758 
L 311.8411 252.42088 
L 313.26958 254.987077 
L 314.69806 251.557537 
L 316.12654 249.486942 
L 317.55502 250.612228 
L 318.9835 256.093539 
L 320.41198 255.042353 
L 321.84046 256.048245 
L 323.26894 252.15689 
L 326.1259 245.615753 
L 327.55438 248.102267 
L 328.98286 248.407655 
L 330.41134 250.231292 
L 331.83982 250.869534 
L 333.2683 250.076669 
L 334.69678 256.426871 
L 336.12526 253.40626 
L 337.55374 253.40067 
L 338.98222 250.871014 
L 340.4107 253.776386 
L 341.83918 254.023794 
L 343.26766 249.789915 
L 344.69614 257.481605 
L 346.12462 248.707618 
L 347.5531 254.44453 
L 348.98158 251.078805 
L 350.41006 255.844893 
L 351.83854 252.621829 
L 353.26702 252.360015 
L 354.6955 258.028934 
L 356.12398 252.066018 
L 357.55246 253.171454 
L 358.98094 251.179891 
L 360.40942 249.51615 
L 361.8379 252.720976 
L 363.26638 251.134519 
L 364.69486 245.102123 
L 366.12334 256.555725 
L 367.55182 251.086962 
L 368.9803 253.118019 
L 370.40878 249.619174 
L 371.83726 256.452709 
L 373.26574 247.746835 
L 374.69422 251.418726 
L 376.1227 252.954583 
L 377.55118 256.326067 
L 378.97966 249.4554 
L 380.40814 249.023012 
L 381.83662 251.717025 
L 383.2651 250.731608 
L 384.69358 248.832926 
L 386.12206 257.371555 
L 387.55054 251.592747 
L 388.97902 250.877873 
L 390.4075 248.678384 
L 391.83598 252.638295 
L 393.26446 258.891373 
L 394.69294 250.907325 
L 396.12142 251.588572 
L 397.5499 253.840932 
L 398.97838 251.59506 
L 400.40686 254.334762 
L 401.83534 254.828406 
L 403.26382 251.549776 
L 407.54926 250.670789 
L 408.15125 251.826049 
L 408.15125 251.826049 
" clip-path="url(#pa065707228)" style="fill: none; stroke: #1f77b4; stroke-width: 1.5; stroke-linecap: square"/>
   </g>
   <g id="patch_3">
    <path d="M 33.2875 273.312 
L 33.2875 7.2 
" style="fill: none; stroke: #000000; stroke-width: 0.8; stroke-linejoin: miter; stroke-linecap: square"/>
   </g>
   <g id="patch_4">
    <path d="M 390.4075 273.312 
L 390.4075 7.2 
" style="fill: none; stroke: #000000; stroke-width: 0.8; stroke-linejoin: miter; stroke-linecap: square"/>
   </g>
   <g id="patch_5">
    <path d="M 33.2875 273.312 
L 390.4075 273.312 
" style="fill: none; stroke: #000000; stroke-width: 0.8; stroke-linejoin: miter; stroke-linecap: square"/>
   </g>
   <g id="patch_6">
    <path d="M 33.2875 7.2 
L 390.4075 7.2 
" style="fill: none; stroke: #000000; stroke-width: 0.8; stroke-linejoin: miter; stroke-linecap: square"/>
   </g>
  </g>
 </g>
 <defs>
  <clipPath id="pa065707228">
   <rect x="33.2875" y="7.2" width="357.12" height="266.112"/>
  </clipPath>
 </defs>
</svg>
