<?xml version="1.0" encoding="utf-8" standalone="no"?>
<!DOCTYPE svg PUBLIC "-//W3C//DTD SVG 1.1//EN"
  "http://www.w3.org/Graphics/SVG/1.1/DTD/svg11.dtd">
<svg xmlns:xlink="http://www.w3.org/1999/xlink" width="380.482813pt" height="262.19625pt" viewBox="0 0 380.482813 262.19625" xmlns="http://www.w3.org/2000/svg" version="1.1">
 <metadata>
  <rdf:RDF xmlns:dc="http://purl.org/dc/elements/1.1/" xmlns:cc="http://creativecommons.org/ns#" xmlns:rdf="http://www.w3.org/1999/02/22-rdf-syntax-ns#">
   <cc:Work>
    <dc:type rdf:resource="http://purl.org/dc/dcmitype/StillImage"/>
    <dc:date>2022-08-12T09:19:41.973638</dc:date>
    <dc:format>image/svg+xml</dc:format>
    <dc:creator>
     <cc:Agent>
      <dc:title>Matplotlib v3.5.2, https://matplotlib.org/</dc:title>
     </cc:Agent>
    </dc:creator>
   </cc:Work>
  </rdf:RDF>
 </metadata>
 <defs>
  <style type="text/css">*{stroke-linejoin: round; stroke-linecap: butt}</style>
 </defs>
 <g id="figure_1">
  <g id="patch_1">
   <path d="M -0 262.19625 
L 380.482813 262.19625 
L 380.482813 0 
L -0 0 
L -0 262.19625 
z
" style="fill: none"/>
  </g>
  <g id="axes_1">
   <g id="patch_2">
    <path d="M 38.482813 224.64 
L 373.282813 224.64 
L 373.282813 7.2 
L 38.482813 7.2 
z
" style="fill: #ffffff"/>
   </g>
   <g id="matplotlib.axis_1">
    <g id="xtick_1">
     <g id="line2d_1">
      <defs>
       <path id="mbba0c2b8f1" d="M 0 0 
L 0 3.5 
" style="stroke: #000000; stroke-width: 0.8"/>
      </defs>
      <g>
       <use xlink:href="#mbba0c2b8f1" x="53.700994" y="224.64" style="stroke: #000000; stroke-width: 0.8"/>
      </g>
     </g>
     <g id="text_1">
      <!-- 0.0 -->
      <g transform="translate(45.749432 239.238437)scale(0.1 -0.1)">
       <defs>
        <path id="DejaVuSans-30" d="M 2034 4250 
Q 1547 4250 1301 3770 
Q 1056 3291 1056 2328 
Q 1056 1369 1301 889 
Q 1547 409 2034 409 
Q 2525 409 2770 889 
Q 3016 1369 3016 2328 
Q 3016 3291 2770 3770 
Q 2525 4250 2034 4250 
z
M 2034 4750 
Q 2819 4750 3233 4129 
Q 3647 3509 3647 2328 
Q 3647 1150 3233 529 
Q 2819 -91 2034 -91 
Q 1250 -91 836 529 
Q 422 1150 422 2328 
Q 422 3509 836 4129 
Q 1250 4750 2034 4750 
z
" transform="scale(0.015625)"/>
        <path id="DejaVuSans-2e" d="M 684 794 
L 1344 794 
L 1344 0 
L 684 0 
L 684 794 
z
" transform="scale(0.015625)"/>
       </defs>
       <use xlink:href="#DejaVuSans-30"/>
       <use xlink:href="#DejaVuSans-2e" x="63.623047"/>
       <use xlink:href="#DejaVuSans-30" x="95.410156"/>
      </g>
     </g>
    </g>
    <g id="xtick_2">
     <g id="line2d_2">
      <g>
       <use xlink:href="#mbba0c2b8f1" x="114.573722" y="224.64" style="stroke: #000000; stroke-width: 0.8"/>
      </g>
     </g>
     <g id="text_2">
      <!-- 0.2 -->
      <g transform="translate(106.622159 239.238437)scale(0.1 -0.1)">
       <defs>
        <path id="DejaVuSans-32" d="M 1228 531 
L 3431 531 
L 3431 0 
L 469 0 
L 469 531 
Q 828 903 1448 1529 
Q 2069 2156 2228 2338 
Q 2531 2678 2651 2914 
Q 2772 3150 2772 3378 
Q 2772 3750 2511 3984 
Q 2250 4219 1831 4219 
Q 1534 4219 1204 4116 
Q 875 4013 500 3803 
L 500 4441 
Q 881 4594 1212 4672 
Q 1544 4750 1819 4750 
Q 2544 4750 2975 4387 
Q 3406 4025 3406 3419 
Q 3406 3131 3298 2873 
Q 3191 2616 2906 2266 
Q 2828 2175 2409 1742 
Q 1991 1309 1228 531 
z
" transform="scale(0.015625)"/>
       </defs>
       <use xlink:href="#DejaVuSans-30"/>
       <use xlink:href="#DejaVuSans-2e" x="63.623047"/>
       <use xlink:href="#DejaVuSans-32" x="95.410156"/>
      </g>
     </g>
    </g>
    <g id="xtick_3">
     <g id="line2d_3">
      <g>
       <use xlink:href="#mbba0c2b8f1" x="175.446449" y="224.64" style="stroke: #000000; stroke-width: 0.8"/>
      </g>
     </g>
     <g id="text_3">
      <!-- 0.4 -->
      <g transform="translate(167.494886 239.238437)scale(0.1 -0.1)">
       <defs>
        <path id="DejaVuSans-34" d="M 2419 4116 
L 825 1625 
L 2419 1625 
L 2419 4116 
z
M 2253 4666 
L 3047 4666 
L 3047 1625 
L 3713 1625 
L 3713 1100 
L 3047 1100 
L 3047 0 
L 2419 0 
L 2419 1100 
L 313 1100 
L 313 1709 
L 2253 4666 
z
" transform="scale(0.015625)"/>
       </defs>
       <use xlink:href="#DejaVuSans-30"/>
       <use xlink:href="#DejaVuSans-2e" x="63.623047"/>
       <use xlink:href="#DejaVuSans-34" x="95.410156"/>
      </g>
     </g>
    </g>
    <g id="xtick_4">
     <g id="line2d_4">
      <g>
       <use xlink:href="#mbba0c2b8f1" x="236.319176" y="224.64" style="stroke: #000000; stroke-width: 0.8"/>
      </g>
     </g>
     <g id="text_4">
      <!-- 0.6 -->
      <g transform="translate(228.367614 239.238437)scale(0.1 -0.1)">
       <defs>
        <path id="DejaVuSans-36" d="M 2113 2584 
Q 1688 2584 1439 2293 
Q 1191 2003 1191 1497 
Q 1191 994 1439 701 
Q 1688 409 2113 409 
Q 2538 409 2786 701 
Q 3034 994 3034 1497 
Q 3034 2003 2786 2293 
Q 2538 2584 2113 2584 
z
M 3366 4563 
L 3366 3988 
Q 3128 4100 2886 4159 
Q 2644 4219 2406 4219 
Q 1781 4219 1451 3797 
Q 1122 3375 1075 2522 
Q 1259 2794 1537 2939 
Q 1816 3084 2150 3084 
Q 2853 3084 3261 2657 
Q 3669 2231 3669 1497 
Q 3669 778 3244 343 
Q 2819 -91 2113 -91 
Q 1303 -91 875 529 
Q 447 1150 447 2328 
Q 447 3434 972 4092 
Q 1497 4750 2381 4750 
Q 2619 4750 2861 4703 
Q 3103 4656 3366 4563 
z
" transform="scale(0.015625)"/>
       </defs>
       <use xlink:href="#DejaVuSans-30"/>
       <use xlink:href="#DejaVuSans-2e" x="63.623047"/>
       <use xlink:href="#DejaVuSans-36" x="95.410156"/>
      </g>
     </g>
    </g>
    <g id="xtick_5">
     <g id="line2d_5">
      <g>
       <use xlink:href="#mbba0c2b8f1" x="297.191903" y="224.64" style="stroke: #000000; stroke-width: 0.8"/>
      </g>
     </g>
     <g id="text_5">
      <!-- 0.8 -->
      <g transform="translate(289.240341 239.238437)scale(0.1 -0.1)">
       <defs>
        <path id="DejaVuSans-38" d="M 2034 2216 
Q 1584 2216 1326 1975 
Q 1069 1734 1069 1313 
Q 1069 891 1326 650 
Q 1584 409 2034 409 
Q 2484 409 2743 651 
Q 3003 894 3003 1313 
Q 3003 1734 2745 1975 
Q 2488 2216 2034 2216 
z
M 1403 2484 
Q 997 2584 770 2862 
Q 544 3141 544 3541 
Q 544 4100 942 4425 
Q 1341 4750 2034 4750 
Q 2731 4750 3128 4425 
Q 3525 4100 3525 3541 
Q 3525 3141 3298 2862 
Q 3072 2584 2669 2484 
Q 3125 2378 3379 2068 
Q 3634 1759 3634 1313 
Q 3634 634 3220 271 
Q 2806 -91 2034 -91 
Q 1263 -91 848 271 
Q 434 634 434 1313 
Q 434 1759 690 2068 
Q 947 2378 1403 2484 
z
M 1172 3481 
Q 1172 3119 1398 2916 
Q 1625 2713 2034 2713 
Q 2441 2713 2670 2916 
Q 2900 3119 2900 3481 
Q 2900 3844 2670 4047 
Q 2441 4250 2034 4250 
Q 1625 4250 1398 4047 
Q 1172 3844 1172 3481 
z
" transform="scale(0.015625)"/>
       </defs>
       <use xlink:href="#DejaVuSans-30"/>
       <use xlink:href="#DejaVuSans-2e" x="63.623047"/>
       <use xlink:href="#DejaVuSans-38" x="95.410156"/>
      </g>
     </g>
    </g>
    <g id="xtick_6">
     <g id="line2d_6">
      <g>
       <use xlink:href="#mbba0c2b8f1" x="358.064631" y="224.64" style="stroke: #000000; stroke-width: 0.8"/>
      </g>
     </g>
     <g id="text_6">
      <!-- 1.0 -->
      <g transform="translate(350.113068 239.238437)scale(0.1 -0.1)">
       <defs>
        <path id="DejaVuSans-31" d="M 794 531 
L 1825 531 
L 1825 4091 
L 703 3866 
L 703 4441 
L 1819 4666 
L 2450 4666 
L 2450 531 
L 3481 531 
L 3481 0 
L 794 0 
L 794 531 
z
" transform="scale(0.015625)"/>
       </defs>
       <use xlink:href="#DejaVuSans-31"/>
       <use xlink:href="#DejaVuSans-2e" x="63.623047"/>
       <use xlink:href="#DejaVuSans-30" x="95.410156"/>
      </g>
     </g>
    </g>
    <g id="text_7">
     <!-- Time, s -->
     <g transform="translate(187.866406 252.916562)scale(0.1 -0.1)">
      <defs>
       <path id="DejaVuSans-54" d="M -19 4666 
L 3928 4666 
L 3928 4134 
L 2272 4134 
L 2272 0 
L 1638 0 
L 1638 4134 
L -19 4134 
L -19 4666 
z
" transform="scale(0.015625)"/>
       <path id="DejaVuSans-69" d="M 603 3500 
L 1178 3500 
L 1178 0 
L 603 0 
L 603 3500 
z
M 603 4863 
L 1178 4863 
L 1178 4134 
L 603 4134 
L 603 4863 
z
" transform="scale(0.015625)"/>
       <path id="DejaVuSans-6d" d="M 3328 2828 
Q 3544 3216 3844 3400 
Q 4144 3584 4550 3584 
Q 5097 3584 5394 3201 
Q 5691 2819 5691 2113 
L 5691 0 
L 5113 0 
L 5113 2094 
Q 5113 2597 4934 2840 
Q 4756 3084 4391 3084 
Q 3944 3084 3684 2787 
Q 3425 2491 3425 1978 
L 3425 0 
L 2847 0 
L 2847 2094 
Q 2847 2600 2669 2842 
Q 2491 3084 2119 3084 
Q 1678 3084 1418 2786 
Q 1159 2488 1159 1978 
L 1159 0 
L 581 0 
L 581 3500 
L 1159 3500 
L 1159 2956 
Q 1356 3278 1631 3431 
Q 1906 3584 2284 3584 
Q 2666 3584 2933 3390 
Q 3200 3197 3328 2828 
z
" transform="scale(0.015625)"/>
       <path id="DejaVuSans-65" d="M 3597 1894 
L 3597 1613 
L 953 1613 
Q 991 1019 1311 708 
Q 1631 397 2203 397 
Q 2534 397 2845 478 
Q 3156 559 3463 722 
L 3463 178 
Q 3153 47 2828 -22 
Q 2503 -91 2169 -91 
Q 1331 -91 842 396 
Q 353 884 353 1716 
Q 353 2575 817 3079 
Q 1281 3584 2069 3584 
Q 2775 3584 3186 3129 
Q 3597 2675 3597 1894 
z
M 3022 2063 
Q 3016 2534 2758 2815 
Q 2500 3097 2075 3097 
Q 1594 3097 1305 2825 
Q 1016 2553 972 2059 
L 3022 2063 
z
" transform="scale(0.015625)"/>
       <path id="DejaVuSans-2c" d="M 750 794 
L 1409 794 
L 1409 256 
L 897 -744 
L 494 -744 
L 750 256 
L 750 794 
z
" transform="scale(0.015625)"/>
       <path id="DejaVuSans-20" transform="scale(0.015625)"/>
       <path id="DejaVuSans-73" d="M 2834 3397 
L 2834 2853 
Q 2591 2978 2328 3040 
Q 2066 3103 1784 3103 
Q 1356 3103 1142 2972 
Q 928 2841 928 2578 
Q 928 2378 1081 2264 
Q 1234 2150 1697 2047 
L 1894 2003 
Q 2506 1872 2764 1633 
Q 3022 1394 3022 966 
Q 3022 478 2636 193 
Q 2250 -91 1575 -91 
Q 1294 -91 989 -36 
Q 684 19 347 128 
L 347 722 
Q 666 556 975 473 
Q 1284 391 1588 391 
Q 1994 391 2212 530 
Q 2431 669 2431 922 
Q 2431 1156 2273 1281 
Q 2116 1406 1581 1522 
L 1381 1569 
Q 847 1681 609 1914 
Q 372 2147 372 2553 
Q 372 3047 722 3315 
Q 1072 3584 1716 3584 
Q 2034 3584 2315 3537 
Q 2597 3491 2834 3397 
z
" transform="scale(0.015625)"/>
      </defs>
      <use xlink:href="#DejaVuSans-54"/>
      <use xlink:href="#DejaVuSans-69" x="57.958984"/>
      <use xlink:href="#DejaVuSans-6d" x="85.742188"/>
      <use xlink:href="#DejaVuSans-65" x="183.154297"/>
      <use xlink:href="#DejaVuSans-2c" x="244.677734"/>
      <use xlink:href="#DejaVuSans-20" x="276.464844"/>
      <use xlink:href="#DejaVuSans-73" x="308.251953"/>
     </g>
    </g>
   </g>
   <g id="matplotlib.axis_2">
    <g id="ytick_1">
     <g id="line2d_7">
      <defs>
       <path id="m4ab7162b70" d="M 0 0 
L -3.5 0 
" style="stroke: #000000; stroke-width: 0.8"/>
      </defs>
      <g>
       <use xlink:href="#m4ab7162b70" x="38.482813" y="215.87415" style="stroke: #000000; stroke-width: 0.8"/>
      </g>
     </g>
     <g id="text_8">
      <!-- −1.0 -->
      <g transform="translate(7.2 219.673369)scale(0.1 -0.1)">
       <defs>
        <path id="DejaVuSans-2212" d="M 678 2272 
L 4684 2272 
L 4684 1741 
L 678 1741 
L 678 2272 
z
" transform="scale(0.015625)"/>
       </defs>
       <use xlink:href="#DejaVuSans-2212"/>
       <use xlink:href="#DejaVuSans-31" x="83.789062"/>
       <use xlink:href="#DejaVuSans-2e" x="147.412109"/>
       <use xlink:href="#DejaVuSans-30" x="179.199219"/>
      </g>
     </g>
    </g>
    <g id="ytick_2">
     <g id="line2d_8">
      <g>
       <use xlink:href="#m4ab7162b70" x="38.482813" y="175.672323" style="stroke: #000000; stroke-width: 0.8"/>
      </g>
     </g>
     <g id="text_9">
      <!-- −0.5 -->
      <g transform="translate(7.2 179.471541)scale(0.1 -0.1)">
       <defs>
        <path id="DejaVuSans-35" d="M 691 4666 
L 3169 4666 
L 3169 4134 
L 1269 4134 
L 1269 2991 
Q 1406 3038 1543 3061 
Q 1681 3084 1819 3084 
Q 2600 3084 3056 2656 
Q 3513 2228 3513 1497 
Q 3513 744 3044 326 
Q 2575 -91 1722 -91 
Q 1428 -91 1123 -41 
Q 819 9 494 109 
L 494 744 
Q 775 591 1075 516 
Q 1375 441 1709 441 
Q 2250 441 2565 725 
Q 2881 1009 2881 1497 
Q 2881 1984 2565 2268 
Q 2250 2553 1709 2553 
Q 1456 2553 1204 2497 
Q 953 2441 691 2322 
L 691 4666 
z
" transform="scale(0.015625)"/>
       </defs>
       <use xlink:href="#DejaVuSans-2212"/>
       <use xlink:href="#DejaVuSans-30" x="83.789062"/>
       <use xlink:href="#DejaVuSans-2e" x="147.412109"/>
       <use xlink:href="#DejaVuSans-35" x="179.199219"/>
      </g>
     </g>
    </g>
    <g id="ytick_3">
     <g id="line2d_9">
      <g>
       <use xlink:href="#m4ab7162b70" x="38.482813" y="135.470495" style="stroke: #000000; stroke-width: 0.8"/>
      </g>
     </g>
     <g id="text_10">
      <!-- 0.0 -->
      <g transform="translate(15.579688 139.269714)scale(0.1 -0.1)">
       <use xlink:href="#DejaVuSans-30"/>
       <use xlink:href="#DejaVuSans-2e" x="63.623047"/>
       <use xlink:href="#DejaVuSans-30" x="95.410156"/>
      </g>
     </g>
    </g>
    <g id="ytick_4">
     <g id="line2d_10">
      <g>
       <use xlink:href="#m4ab7162b70" x="38.482813" y="95.268668" style="stroke: #000000; stroke-width: 0.8"/>
      </g>
     </g>
     <g id="text_11">
      <!-- 0.5 -->
      <g transform="translate(15.579688 99.067887)scale(0.1 -0.1)">
       <use xlink:href="#DejaVuSans-30"/>
       <use xlink:href="#DejaVuSans-2e" x="63.623047"/>
       <use xlink:href="#DejaVuSans-35" x="95.410156"/>
      </g>
     </g>
    </g>
    <g id="ytick_5">
     <g id="line2d_11">
      <g>
       <use xlink:href="#m4ab7162b70" x="38.482813" y="55.066841" style="stroke: #000000; stroke-width: 0.8"/>
      </g>
     </g>
     <g id="text_12">
      <!-- 1.0 -->
      <g transform="translate(15.579688 58.866059)scale(0.1 -0.1)">
       <use xlink:href="#DejaVuSans-31"/>
       <use xlink:href="#DejaVuSans-2e" x="63.623047"/>
       <use xlink:href="#DejaVuSans-30" x="95.410156"/>
      </g>
     </g>
    </g>
    <g id="ytick_6">
     <g id="line2d_12">
      <g>
       <use xlink:href="#m4ab7162b70" x="38.482813" y="14.865013" style="stroke: #000000; stroke-width: 0.8"/>
      </g>
     </g>
     <g id="text_13">
      <!-- 1.5 -->
      <g transform="translate(15.579688 18.664232)scale(0.1 -0.1)">
       <use xlink:href="#DejaVuSans-31"/>
       <use xlink:href="#DejaVuSans-2e" x="63.623047"/>
       <use xlink:href="#DejaVuSans-35" x="95.410156"/>
      </g>
     </g>
    </g>
   </g>
   <g id="line2d_13">
    <path d="M 53.700994 99.842496 
L 54.005663 93.579476 
L 54.310331 49.215763 
L 54.614999 25.195471 
L 54.919668 22.011848 
L 55.224336 41.125583 
L 55.529004 70.273712 
L 55.833672 71.861132 
L 56.138341 106.385425 
L 56.443009 159.812225 
L 57.052346 202.06061 
L 57.357014 212.567972 
L 57.661682 185.934849 
L 57.966351 172.163514 
L 58.271019 133.863733 
L 58.575687 114.305656 
L 58.880355 68.465042 
L 59.185024 43.367983 
L 59.489692 38.766891 
L 59.79436 55.036275 
L 60.099029 24.907396 
L 60.403697 70.043318 
L 60.708365 82.12472 
L 61.317702 160.806414 
L 61.62237 160.491211 
L 62.231707 208.362204 
L 62.536375 179.344036 
L 62.841043 196.370793 
L 63.45038 125.979453 
L 63.755048 106.933873 
L 64.059717 46.880862 
L 64.364385 62.700394 
L 64.669053 40.42627 
L 64.973722 30.020981 
L 65.27839 37.455984 
L 65.583058 70.623933 
L 65.887727 121.42726 
L 66.801731 185.422693 
L 67.1064 193.817124 
L 67.715736 163.153482 
L 68.020405 171.052376 
L 68.325073 129.829171 
L 68.629741 113.659421 
L 68.93441 62.818136 
L 69.239078 52.96772 
L 69.543746 30.268749 
L 69.848414 44.115057 
L 70.153083 41.349118 
L 70.457751 60.878369 
L 70.762419 112.980613 
L 71.067088 135.637985 
L 71.371756 169.279176 
L 71.981093 186.899512 
L 72.285761 173.966283 
L 72.590429 171.933658 
L 72.895098 146.908616 
L 73.199766 139.829256 
L 73.504434 111.424337 
L 73.809102 61.51396 
L 74.113771 63.678171 
L 74.723107 17.407324 
L 75.027776 30.537011 
L 75.637112 101.793266 
L 75.941781 113.777959 
L 76.246449 162.804395 
L 76.551117 161.700689 
L 77.160454 196.598618 
L 77.465122 167.683709 
L 77.76979 150.483449 
L 78.074459 142.378195 
L 79.293132 22.276744 
L 79.5978 40.807826 
L 79.902469 41.299494 
L 80.511805 107.1092 
L 80.816473 119.925954 
L 81.121142 165.187694 
L 81.42581 183.434505 
L 81.730478 173.428404 
L 82.339815 199.103472 
L 82.949152 144.931399 
L 84.167825 20.231453 
L 84.472493 50.550741 
L 84.777161 34.605296 
L 85.08183 76.334574 
L 85.386498 102.831825 
L 85.995835 135.608935 
L 86.300503 182.535387 
L 86.605171 203.556514 
L 86.90984 203.237502 
L 87.214508 180.925693 
L 87.519176 169.084652 
L 87.823844 123.253293 
L 88.128513 111.003043 
L 88.433181 68.309594 
L 88.737849 44.454448 
L 89.042518 51.256561 
L 89.347186 50.964632 
L 89.651854 61.444293 
L 89.956523 54.726702 
L 90.261191 73.373264 
L 90.565859 112.847387 
L 90.870527 134.505472 
L 91.479864 200.252491 
L 91.784532 189.258065 
L 92.089201 172.449901 
L 92.393869 180.521753 
L 92.698537 138.202815 
L 93.003206 131.720837 
L 93.307874 64.570648 
L 93.612542 37.89797 
L 93.917211 23.198349 
L 94.221879 36.84123 
L 94.526547 28.512274 
L 94.831215 59.210849 
L 95.135884 69.767153 
L 95.74522 144.315223 
L 96.049889 163.923732 
L 96.354557 190.74959 
L 96.659225 191.537331 
L 96.963894 185.466626 
L 97.268562 155.041803 
L 97.57323 162.899199 
L 98.182567 85.958431 
L 98.487235 74.184229 
L 98.791903 27.97985 
L 99.096572 44.946852 
L 99.40124 31.544032 
L 99.705908 71.398821 
L 100.010577 75.116309 
L 100.619913 141.424506 
L 100.924582 176.604362 
L 101.22925 182.521847 
L 101.533918 208.298128 
L 101.838586 198.002338 
L 102.143255 158.44079 
L 102.447923 162.570423 
L 102.752591 126.295239 
L 103.05726 75.053601 
L 103.361928 49.484898 
L 103.971265 34.753849 
L 105.189938 96.736579 
L 105.494606 157.53638 
L 105.799274 160.96779 
L 106.103943 195.403108 
L 106.408611 193.379994 
L 106.713279 176.270618 
L 107.017948 167.148313 
L 107.627284 113.066881 
L 107.931953 100.804392 
L 108.236621 73.309013 
L 108.541289 55.847511 
L 108.845957 47.171054 
L 109.150626 47.157131 
L 109.455294 42.646361 
L 109.759962 62.194374 
L 110.064631 124.377881 
L 110.369299 120.56692 
L 110.673967 177.523351 
L 110.978636 184.730212 
L 111.283304 185.253509 
L 111.587972 195.609687 
L 111.892641 176.251255 
L 112.197309 144.453394 
L 112.501977 128.705946 
L 112.806645 96.274888 
L 113.111314 84.208942 
L 113.415982 28.469116 
L 113.72065 24.548391 
L 114.025319 43.737082 
L 114.329987 38.402613 
L 114.634655 74.779224 
L 114.939324 95.383927 
L 115.54866 173.03513 
L 115.853328 170.062469 
L 116.462665 202.66538 
L 116.767333 194.5056 
L 117.072002 176.291663 
L 117.37667 126.509049 
L 117.681338 117.30881 
L 117.986007 68.410879 
L 118.290675 39.068698 
L 118.595343 55.242653 
L 118.900012 51.681807 
L 119.20468 57.823062 
L 119.509348 58.23123 
L 119.814016 98.3256 
L 120.118685 117.614889 
L 120.423353 149.015481 
L 120.728021 192.646711 
L 121.03269 179.086384 
L 121.337358 207.106984 
L 121.642026 196.325328 
L 121.946695 167.569227 
L 122.251363 123.295129 
L 122.556031 103.847459 
L 122.860699 76.944037 
L 123.165368 69.500853 
L 123.470036 23.510791 
L 123.774704 43.189375 
L 124.079373 41.484982 
L 124.384041 68.363639 
L 124.688709 81.309037 
L 125.298046 160.734135 
L 125.602714 161.303724 
L 125.907383 183.557877 
L 126.212051 195.427983 
L 126.516719 195.341995 
L 126.821387 157.058101 
L 127.126056 152.009594 
L 127.430724 98.146671 
L 127.735392 81.966591 
L 128.040061 59.863237 
L 128.344729 20.630251 
L 128.649397 51.708749 
L 128.954066 56.765107 
L 129.258734 56.388416 
L 129.86807 103.220515 
L 130.477407 190.982703 
L 130.782075 199.339532 
L 131.086744 189.548631 
L 131.391412 174.06659 
L 131.69608 172.27703 
L 132.000749 157.429222 
L 132.305417 120.852405 
L 132.610085 66.562286 
L 132.914754 43.374401 
L 133.219422 40.995956 
L 133.52409 36.404899 
L 133.828758 34.064574 
L 134.438095 71.940387 
L 135.656768 192.573401 
L 135.961437 191.755275 
L 136.266105 194.807972 
L 136.875441 136.204808 
L 137.484778 80.957698 
L 138.094115 47.174018 
L 138.398783 24.434539 
L 139.617456 109.198615 
L 140.531461 199.577633 
L 140.836129 213.474022 
L 141.140798 174.967875 
L 141.445466 181.404693 
L 141.750134 134.386319 
L 142.054803 125.523652 
L 142.359471 78.632057 
L 142.968808 27.037041 
L 143.273476 18.18778 
L 145.101486 162.521061 
L 145.406154 184.875086 
L 145.710822 193.167386 
L 146.015491 183.501619 
L 146.320159 161.885713 
L 146.929496 135.48477 
L 147.538832 46.528728 
L 147.8435 24.740947 
L 148.148169 45.980046 
L 148.452837 36.492947 
L 148.757505 36.332382 
L 149.062174 94.222786 
L 149.366842 92.151016 
L 149.976179 177.919986 
L 150.280847 206.192675 
L 150.585515 199.182162 
L 150.890184 195.221103 
L 151.804188 110.823464 
L 152.108857 108.449142 
L 152.413525 45.341939 
L 152.718193 37.762035 
L 153.022862 42.360834 
L 153.32753 49.578977 
L 153.632198 62.558824 
L 153.936867 57.258628 
L 154.241535 109.175277 
L 154.546203 126.113835 
L 154.850871 165.593011 
L 155.15554 167.633375 
L 155.460208 182.814475 
L 156.069545 169.867526 
L 156.374213 148.274487 
L 156.678881 145.266096 
L 156.98355 84.905013 
L 157.288218 84.765277 
L 157.592886 30.378996 
L 157.897555 18.331582 
L 158.202223 39.632781 
L 158.506891 40.516664 
L 158.811559 61.292866 
L 159.725564 163.720267 
L 160.030233 164.36175 
L 160.639569 206.765776 
L 161.553574 125.95206 
L 161.858242 110.163996 
L 162.162911 67.441569 
L 162.467579 47.748021 
L 162.772247 48.754439 
L 163.076916 31.975871 
L 163.381584 43.674004 
L 163.686252 81.198243 
L 163.990921 85.299151 
L 164.295589 109.828637 
L 164.600257 175.446461 
L 164.904926 197.135615 
L 165.209594 208.903902 
L 165.514262 186.30955 
L 165.81893 203.311281 
L 166.123599 181.966753 
L 167.342272 34.480796 
L 167.64694 52.802502 
L 167.951609 44.888384 
L 168.256277 43.900978 
L 169.170282 142.060171 
L 169.47495 148.539118 
L 169.779618 197.901555 
L 170.084287 198.298681 
L 170.388955 209.201766 
L 170.693623 188.407145 
L 170.998292 183.208917 
L 171.607628 90.802012 
L 171.912297 85.542681 
L 172.216965 37.718681 
L 172.521633 48.423719 
L 172.826301 38.892432 
L 173.435638 79.253954 
L 173.740306 75.165315 
L 174.044975 135.810191 
L 174.349643 136.218863 
L 174.654311 178.362329 
L 174.95898 192.973743 
L 175.263648 194.213828 
L 175.568316 183.0438 
L 175.872984 186.777661 
L 176.177653 122.895535 
L 176.482321 97.577757 
L 176.786989 90.138813 
L 177.091658 43.834191 
L 177.396326 30.361726 
L 178.005663 53.236182 
L 178.310331 43.128696 
L 179.224336 129.644858 
L 179.529004 168.688969 
L 179.833672 185.978677 
L 180.138341 179.10953 
L 180.443009 201.042775 
L 181.052346 139.63563 
L 181.357014 131.161857 
L 181.661682 87.19929 
L 182.271019 55.540801 
L 182.575687 29.660643 
L 182.880355 24.134559 
L 183.185024 49.848311 
L 183.489692 95.219343 
L 183.79436 109.317325 
L 184.099029 155.284477 
L 184.403697 182.13747 
L 184.708365 187.456684 
L 185.013034 207.36531 
L 185.317702 180.392602 
L 185.62237 191.387404 
L 186.231707 133.92611 
L 186.536375 77.40016 
L 186.841043 72.840701 
L 187.45038 31.851789 
L 187.755048 45.881546 
L 188.059717 50.740404 
L 188.364385 75.537224 
L 188.973722 148.340063 
L 189.27839 158.514923 
L 189.583058 187.829642 
L 189.887727 179.833682 
L 190.192395 205.510565 
L 190.497063 187.835641 
L 190.801731 134.618448 
L 191.1064 129.342794 
L 191.715736 55.955757 
L 192.325073 33.372364 
L 192.629741 26.861803 
L 192.93441 38.500926 
L 193.543746 113.080123 
L 193.848414 138.850991 
L 194.457751 205.91418 
L 194.762419 193.808464 
L 195.067088 173.387091 
L 195.371756 180.023916 
L 195.676424 166.747316 
L 195.981093 139.471455 
L 196.590429 53.491046 
L 196.895098 59.750877 
L 197.199766 42.111779 
L 197.504434 56.885051 
L 197.809102 39.292779 
L 199.027776 177.999756 
L 199.332444 203.843105 
L 199.637112 194.789444 
L 199.941781 199.441745 
L 200.246449 189.680239 
L 200.551117 170.211122 
L 201.465122 58.142698 
L 201.76979 47.136039 
L 202.074459 46.093125 
L 202.379127 43.890794 
L 202.683795 62.812518 
L 202.988464 63.050312 
L 203.5978 151.320013 
L 203.902469 169.1431 
L 204.207137 166.653431 
L 204.511805 204.552851 
L 205.121142 184.15643 
L 205.42581 142.098515 
L 206.035147 93.614328 
L 206.339815 61.689988 
L 206.644483 55.88038 
L 207.25382 20.744056 
L 207.558488 62.177179 
L 207.863156 58.118258 
L 208.167825 106.274811 
L 208.472493 131.015135 
L 208.777161 145.224037 
L 209.08183 170.350745 
L 209.386498 175.107714 
L 209.691166 188.651424 
L 209.995835 172.174785 
L 210.300503 163.464989 
L 210.605171 119.137299 
L 210.90984 118.960979 
L 211.214508 69.716329 
L 211.519176 51.466335 
L 211.823844 43.458594 
L 212.128513 39.583646 
L 212.433181 65.603772 
L 212.737849 77.98822 
L 213.347186 111.671365 
L 213.651854 162.98219 
L 213.956523 172.794483 
L 214.261191 194.762819 
L 214.565859 203.650075 
L 214.870527 178.386769 
L 215.175196 171.789258 
L 215.479864 154.421598 
L 215.784532 92.911438 
L 216.089201 71.9783 
L 216.393869 69.035611 
L 216.698537 42.825288 
L 217.003206 30.165012 
L 217.612542 49.8865 
L 217.917211 97.787676 
L 218.526547 138.733075 
L 218.831215 173.551114 
L 219.135884 175.764474 
L 219.440552 206.623247 
L 219.74522 196.239875 
L 220.049889 156.141788 
L 220.659225 126.343108 
L 220.963894 99.602146 
L 221.268562 38.566212 
L 221.57323 36.798296 
L 221.877898 41.425407 
L 222.487235 80.807681 
L 222.791903 71.131669 
L 223.096572 138.373286 
L 223.40124 131.808099 
L 223.705908 173.27444 
L 224.010577 175.21875 
L 224.315245 208.100844 
L 224.619913 172.477497 
L 224.924582 167.151736 
L 225.533918 113.730616 
L 225.838586 80.19102 
L 226.143255 59.914121 
L 226.447923 48.64286 
L 226.752591 46.690992 
L 227.05726 24.904653 
L 227.666596 100.669684 
L 227.971265 96.263752 
L 228.275933 147.627074 
L 228.580601 177.045419 
L 229.189938 196.892217 
L 229.494606 179.726508 
L 229.799274 172.995027 
L 230.103943 159.513337 
L 230.713279 76.244716 
L 231.017948 42.579199 
L 231.322616 42.080129 
L 231.627284 17.083636 
L 231.931953 58.267025 
L 232.236621 42.282774 
L 233.150626 151.966691 
L 233.455294 157.283861 
L 233.759962 199.068559 
L 234.064631 206.291465 
L 234.369299 210.711448 
L 235.283304 103.968201 
L 235.587972 97.833256 
L 235.892641 70.442077 
L 236.197309 29.31704 
L 236.501977 24.830445 
L 236.806645 37.185424 
L 238.025319 119.659391 
L 238.329987 185.804673 
L 238.939324 196.034291 
L 239.243992 184.516204 
L 239.54866 188.598401 
L 240.157997 136.907211 
L 240.462665 95.709844 
L 241.37667 34.172161 
L 241.681338 31.707251 
L 241.986007 56.647333 
L 242.290675 59.708073 
L 243.20468 182.778538 
L 243.509348 180.318615 
L 243.814016 200.802001 
L 244.118685 180.274515 
L 244.423353 174.602847 
L 244.728021 165.363101 
L 245.337358 86.039525 
L 245.642026 50.230733 
L 245.946695 51.620138 
L 246.251363 55.06013 
L 246.556031 18.391119 
L 246.860699 43.591051 
L 247.470036 111.445306 
L 248.079373 152.913144 
L 248.688709 211.225798 
L 248.993378 209.129691 
L 249.602714 140.441336 
L 249.907383 146.810432 
L 250.212051 91.262063 
L 250.516719 81.63252 
L 250.821387 45.035302 
L 251.126056 44.018956 
L 251.430724 42.14686 
L 251.735392 35.573003 
L 252.344729 95.6044 
L 252.954066 150.913147 
L 253.563402 202.468889 
L 253.86807 185.0772 
L 254.172739 203.650093 
L 254.477407 176.983506 
L 254.782075 119.423898 
L 255.086744 113.689229 
L 255.391412 70.601355 
L 255.69608 48.083165 
L 256.000749 35.034926 
L 256.305417 53.963607 
L 256.610085 28.331635 
L 256.914754 46.646023 
L 257.828758 161.375976 
L 258.133427 170.088109 
L 258.438095 192.502941 
L 258.742763 189.281212 
L 259.047432 172.340673 
L 259.3521 169.87256 
L 259.961437 117.661187 
L 260.266105 88.840214 
L 260.570773 37.578692 
L 260.875441 43.405605 
L 261.18011 42.251729 
L 261.484778 24.646941 
L 261.789446 51.335973 
L 262.094115 107.219487 
L 262.398783 109.02335 
L 262.703451 161.219246 
L 263.00812 162.238269 
L 263.312788 196.309261 
L 263.617456 195.68316 
L 263.922125 167.45721 
L 264.226793 152.229089 
L 264.531461 160.933969 
L 264.836129 122.609758 
L 265.140798 68.007551 
L 265.445466 58.783213 
L 265.750134 54.345651 
L 266.054803 25.639405 
L 266.359471 27.786894 
L 266.664139 44.705582 
L 266.968808 104.723647 
L 267.273476 109.691814 
L 267.882812 170.225484 
L 268.187481 202.265906 
L 268.492149 212.658026 
L 268.796817 171.915855 
L 269.101486 169.795221 
L 269.406154 129.754323 
L 269.710822 128.840108 
L 270.320159 67.88057 
L 270.929496 22.637391 
L 271.234164 28.35269 
L 271.538832 72.485766 
L 271.8435 82.519561 
L 272.452837 146.431539 
L 272.757505 152.300361 
L 273.67151 209.259863 
L 274.280847 138.799331 
L 274.585515 130.130605 
L 274.890184 77.339764 
L 275.194852 76.203779 
L 275.49952 28.09065 
L 275.804188 39.583783 
L 276.108857 38.741374 
L 276.413525 46.691865 
L 276.718193 82.515731 
L 277.022862 102.945716 
L 277.32753 156.108658 
L 277.632198 153.722379 
L 277.936867 186.202648 
L 278.241535 178.307139 
L 278.546203 180.334108 
L 278.850871 159.173881 
L 279.15554 152.569971 
L 279.460208 122.72134 
L 279.764876 104.45227 
L 280.374213 32.619011 
L 280.678881 21.066453 
L 281.288218 58.306508 
L 281.592886 64.33712 
L 281.897555 116.973468 
L 282.202223 142.429527 
L 282.506891 155.281144 
L 283.116228 214.756364 
L 283.420896 189.267336 
L 283.725564 186.095413 
L 284.030233 167.032218 
L 284.334901 126.189129 
L 284.639569 100.671285 
L 284.944238 58.761975 
L 285.553574 19.860767 
L 285.858242 43.309732 
L 286.162911 47.766664 
L 286.467579 65.494571 
L 286.772247 93.834221 
L 287.076916 147.731917 
L 287.381584 152.380787 
L 287.686252 196.356486 
L 287.990921 200.246794 
L 288.295589 191.274466 
L 288.600257 169.089835 
L 288.904926 164.14674 
L 289.514262 116.742791 
L 289.81893 72.520356 
L 290.123599 49.097915 
L 290.428267 45.900956 
L 290.732935 48.228789 
L 291.037604 47.659766 
L 291.342272 78.0361 
L 291.64694 97.170177 
L 291.951609 128.413405 
L 292.256277 173.374331 
L 292.560945 171.252655 
L 292.865613 208.063142 
L 293.170282 179.281457 
L 293.779618 147.744672 
L 294.084287 122.856655 
L 294.388955 114.162746 
L 294.693623 64.731687 
L 294.998292 63.659098 
L 295.30296 30.150892 
L 295.912297 50.437944 
L 296.216965 83.37264 
L 296.521633 101.994016 
L 296.826301 129.359813 
L 297.13097 174.241168 
L 297.435638 162.749612 
L 297.740306 211.097835 
L 298.044975 214.106373 
L 298.349643 180.87611 
L 298.654311 177.615772 
L 299.568316 56.749708 
L 300.177653 24.683698 
L 300.482321 23.048632 
L 300.786989 39.677402 
L 301.396326 113.512171 
L 301.700994 117.108555 
L 302.005663 147.502052 
L 302.310331 159.996061 
L 302.919668 193.371014 
L 303.224336 191.74853 
L 303.529004 181.6741 
L 303.833672 119.166131 
L 304.138341 100.840196 
L 304.443009 67.061632 
L 305.052346 32.51045 
L 305.357014 32.175155 
L 305.661682 45.189756 
L 305.966351 71.859021 
L 306.271019 74.531156 
L 306.880355 161.183149 
L 307.185024 168.686617 
L 307.489692 193.241768 
L 307.79436 189.629423 
L 308.099029 170.476584 
L 308.403697 163.692983 
L 308.708365 147.823249 
L 309.317702 63.105221 
L 309.62237 61.562033 
L 309.927039 53.710003 
L 310.231707 36.213578 
L 310.536375 43.582956 
L 311.755048 165.305815 
L 312.059717 153.701988 
L 312.364385 200.473111 
L 312.973722 173.79665 
L 313.27839 175.425336 
L 313.583058 137.918895 
L 313.887727 134.578076 
L 314.497063 40.958431 
L 314.801731 21.640179 
L 315.1064 26.667021 
L 315.411068 25.042962 
L 316.020405 64.71046 
L 316.325073 130.798268 
L 316.629741 138.782389 
L 317.848414 207.279719 
L 318.153083 186.765388 
L 318.457751 139.526805 
L 318.762419 127.277586 
L 319.981093 28.517665 
L 320.285761 49.076558 
L 320.590429 41.348564 
L 320.895098 75.51412 
L 321.199766 96.021257 
L 321.504434 147.439691 
L 321.809102 157.306537 
L 322.418439 210.928388 
L 322.723107 181.976933 
L 323.027776 173.380653 
L 323.332444 170.818873 
L 323.637112 113.513099 
L 323.941781 79.016601 
L 324.246449 69.864796 
L 324.551117 46.005049 
L 324.855785 37.41916 
L 325.160454 40.46741 
L 325.465122 53.023715 
L 325.76979 74.044567 
L 326.379127 146.691799 
L 326.988464 201.686703 
L 327.293132 212.511165 
L 327.5978 203.299751 
L 327.902469 186.299943 
L 328.816473 112.560495 
L 329.121142 68.528467 
L 329.42581 59.179028 
L 329.730478 43.383795 
L 330.949152 87.886252 
L 331.25382 152.77341 
L 331.558488 158.802312 
L 331.863156 175.915624 
L 332.167825 210.052388 
L 332.472493 174.267765 
L 332.777161 197.230111 
L 333.08183 167.953175 
L 333.386498 118.567909 
L 333.691166 111.886422 
L 333.995835 87.064663 
L 334.605171 22.17057 
L 334.90984 44.490805 
L 335.214508 32.23437 
L 335.519176 69.490548 
L 335.823844 80.395714 
L 336.737849 201.964817 
L 337.042518 209.865968 
L 337.347186 181.693513 
L 337.651854 188.369179 
L 338.261191 150.123226 
L 339.175196 32.720287 
L 339.479864 55.743789 
L 339.784532 20.51204 
L 340.089201 45.150932 
L 340.393869 52.562521 
L 341.307874 169.54419 
L 341.612542 169.875863 
L 341.917211 203.292966 
L 342.221879 177.464218 
L 342.526547 196.689352 
L 343.135884 139.011129 
L 343.440552 119.804916 
L 343.74522 75.421618 
L 344.049889 59.014776 
L 344.354557 24.68113 
L 344.963894 59.910436 
L 345.268562 52.689452 
L 345.57323 109.309744 
L 346.182567 169.362775 
L 346.487235 164.752839 
L 346.791903 176.010034 
L 347.096572 210.461554 
L 347.40124 196.181378 
L 348.010577 141.703532 
L 348.315245 95.163564 
L 348.619913 93.665315 
L 348.924582 37.126274 
L 349.22925 22.5921 
L 349.533918 31.32081 
L 349.838586 35.072598 
L 350.143255 73.887646 
L 350.447923 75.869928 
L 351.05726 170.244232 
L 351.361928 169.186599 
L 351.666596 202.144557 
L 351.971265 186.448302 
L 352.275933 179.348338 
L 352.88527 133.277894 
L 353.189938 128.813625 
L 353.494606 78.437842 
L 353.799274 59.530503 
L 354.103943 55.445727 
L 354.408611 26.260722 
L 354.713279 60.590477 
L 355.017948 41.418594 
L 355.322616 70.269899 
L 355.627284 125.388626 
L 355.931953 132.653428 
L 356.236621 160.827532 
L 356.541289 201.242399 
L 356.845957 207.405879 
L 357.150626 205.347113 
L 357.455294 168.94582 
L 357.759962 158.743116 
L 358.064631 128.275335 
L 358.064631 128.275335 
" clip-path="url(#p63b97026ab)" style="fill: none; stroke: #1f77b4; stroke-width: 1.5; stroke-linecap: square"/>
   </g>
   <g id="patch_3">
    <path d="M 38.482813 224.64 
L 38.482813 7.2 
" style="fill: none; stroke: #000000; stroke-width: 0.8; stroke-linejoin: miter; stroke-linecap: square"/>
   </g>
   <g id="patch_4">
    <path d="M 373.282813 224.64 
L 373.282813 7.2 
" style="fill: none; stroke: #000000; stroke-width: 0.8; stroke-linejoin: miter; stroke-linecap: square"/>
   </g>
   <g id="patch_5">
    <path d="M 38.482813 224.64 
L 373.282813 224.64 
" style="fill: none; stroke: #000000; stroke-width: 0.8; stroke-linejoin: miter; stroke-linecap: square"/>
   </g>
   <g id="patch_6">
    <path d="M 38.482813 7.2 
L 373.282813 7.2 
" style="fill: none; stroke: #000000; stroke-width: 0.8; stroke-linejoin: miter; stroke-linecap: square"/>
   </g>
  </g>
 </g>
 <defs>
  <clipPath id="p63b97026ab">
   <rect x="38.482813" y="7.2" width="334.8" height="217.44"/>
  </clipPath>
 </defs>
</svg>
