<?xml version="1.0" encoding="utf-8" standalone="no"?>
<!DOCTYPE svg PUBLIC "-//W3C//DTD SVG 1.1//EN"
  "http://www.w3.org/Graphics/SVG/1.1/DTD/svg11.dtd">
<svg xmlns:xlink="http://www.w3.org/1999/xlink" width="378.465625pt" height="248.518125pt" viewBox="0 0 378.465625 248.518125" xmlns="http://www.w3.org/2000/svg" version="1.1">
 <metadata>
  <rdf:RDF xmlns:dc="http://purl.org/dc/elements/1.1/" xmlns:cc="http://creativecommons.org/ns#" xmlns:rdf="http://www.w3.org/1999/02/22-rdf-syntax-ns#">
   <cc:Work>
    <dc:type rdf:resource="http://purl.org/dc/dcmitype/StillImage"/>
    <dc:date>2022-08-12T09:20:29.281765</dc:date>
    <dc:format>image/svg+xml</dc:format>
    <dc:creator>
     <cc:Agent>
      <dc:title>Matplotlib v3.5.2, https://matplotlib.org/</dc:title>
     </cc:Agent>
    </dc:creator>
   </cc:Work>
  </rdf:RDF>
 </metadata>
 <defs>
  <style type="text/css">*{stroke-linejoin: round; stroke-linecap: butt}</style>
 </defs>
 <g id="figure_1">
  <g id="patch_1">
   <path d="M 0 248.518125 
L 378.465625 248.518125 
L 378.465625 0 
L 0 0 
L 0 248.518125 
z
" style="fill: none"/>
  </g>
  <g id="axes_1">
   <g id="patch_2">
    <path d="M 36.465625 224.64 
L 371.265625 224.64 
L 371.265625 7.2 
L 36.465625 7.2 
z
" style="fill: #ffffff"/>
   </g>
   <g id="PathCollection_1">
    <defs>
     <path id="m25c6543084" d="M 0 3 
C 0.795609 3 1.55874 2.683901 2.12132 2.12132 
C 2.683901 1.55874 3 0.795609 3 0 
C 3 -0.795609 2.683901 -1.55874 2.12132 -2.12132 
C 1.55874 -2.683901 0.795609 -3 0 -3 
C -0.795609 -3 -1.55874 -2.683901 -2.12132 -2.12132 
C -2.683901 -1.55874 -3 -0.795609 -3 0 
C -3 0.795609 -2.683901 1.55874 -2.12132 2.12132 
C -1.55874 2.683901 -0.795609 3 0 3 
z
" style="stroke: #1f77b4; stroke-opacity: 0.8"/>
    </defs>
    <g clip-path="url(#p18d22265cb)">
     <use xlink:href="#m25c6543084" x="51.683807" y="213.727221" style="fill: #1f77b4; fill-opacity: 0.8; stroke: #1f77b4; stroke-opacity: 0.8"/>
     <use xlink:href="#m25c6543084" x="85.501989" y="170.747119" style="fill: #1f77b4; fill-opacity: 0.8; stroke: #1f77b4; stroke-opacity: 0.8"/>
     <use xlink:href="#m25c6543084" x="119.32017" y="174.146137" style="fill: #1f77b4; fill-opacity: 0.8; stroke: #1f77b4; stroke-opacity: 0.8"/>
     <use xlink:href="#m25c6543084" x="153.138352" y="150.146529" style="fill: #1f77b4; fill-opacity: 0.8; stroke: #1f77b4; stroke-opacity: 0.8"/>
     <use xlink:href="#m25c6543084" x="186.956534" y="126.28525" style="fill: #1f77b4; fill-opacity: 0.8; stroke: #1f77b4; stroke-opacity: 0.8"/>
     <use xlink:href="#m25c6543084" x="220.774716" y="103.485058" style="fill: #1f77b4; fill-opacity: 0.8; stroke: #1f77b4; stroke-opacity: 0.8"/>
     <use xlink:href="#m25c6543084" x="254.592898" y="78.543392" style="fill: #1f77b4; fill-opacity: 0.8; stroke: #1f77b4; stroke-opacity: 0.8"/>
     <use xlink:href="#m25c6543084" x="288.41108" y="64.058946" style="fill: #1f77b4; fill-opacity: 0.8; stroke: #1f77b4; stroke-opacity: 0.8"/>
     <use xlink:href="#m25c6543084" x="322.229261" y="50.787135" style="fill: #1f77b4; fill-opacity: 0.8; stroke: #1f77b4; stroke-opacity: 0.8"/>
     <use xlink:href="#m25c6543084" x="356.047443" y="33.112358" style="fill: #1f77b4; fill-opacity: 0.8; stroke: #1f77b4; stroke-opacity: 0.8"/>
    </g>
   </g>
   <g id="PolyCollection_1">
    <path d="M 51.683807 192.484792 
L 51.683807 214.756364 
L 54.758187 212.739807 
L 57.832567 210.723251 
L 60.906947 208.706695 
L 63.981327 206.73231 
L 67.055708 204.758779 
L 70.130088 202.785248 
L 73.204468 200.874625 
L 76.278848 198.889623 
L 79.353228 196.972376 
L 82.427608 195.013746 
L 85.501989 193.057064 
L 88.576369 191.124318 
L 91.650749 189.176095 
L 94.725129 187.20448 
L 97.799509 185.219457 
L 100.873889 183.307299 
L 103.94827 181.404289 
L 107.02265 179.499005 
L 110.09703 177.59506 
L 113.17141 175.68035 
L 116.24579 173.730414 
L 119.32017 171.816205 
L 122.394551 169.902595 
L 125.468931 168.023513 
L 128.543311 166.086968 
L 131.617691 164.220653 
L 134.692071 162.35796 
L 137.766451 160.482973 
L 140.840832 158.607868 
L 143.915212 156.75 
L 146.989592 154.868024 
L 150.063972 153.002678 
L 153.138352 151.134226 
L 156.212732 149.265775 
L 159.287113 147.397324 
L 162.361493 145.528872 
L 165.435873 143.702434 
L 168.510253 141.837975 
L 171.584633 139.990749 
L 174.659013 138.160598 
L 177.733394 136.325046 
L 180.807774 134.46646 
L 183.882154 132.607435 
L 186.956534 130.748121 
L 190.030914 128.903634 
L 193.105294 127.08328 
L 196.179675 125.262925 
L 199.254055 123.415217 
L 202.328435 121.575331 
L 205.402815 119.725178 
L 208.477195 117.912073 
L 211.551575 116.050829 
L 214.625956 114.173582 
L 217.700336 112.306039 
L 220.774716 110.493448 
L 223.849096 108.695096 
L 226.923476 106.894503 
L 229.997856 105.067047 
L 233.072237 103.219394 
L 236.146617 101.37174 
L 239.220997 99.524086 
L 242.295377 97.676433 
L 245.369757 95.82795 
L 248.444137 93.990555 
L 251.518518 92.211246 
L 254.592898 90.431938 
L 257.667278 88.690236 
L 260.741658 86.874408 
L 263.816038 85.044647 
L 266.890418 83.256151 
L 269.964799 81.534899 
L 273.039179 79.764347 
L 276.113559 77.95478 
L 279.187939 76.178905 
L 282.262319 74.390563 
L 285.336699 72.640947 
L 288.41108 70.873382 
L 291.48546 69.104079 
L 294.55984 67.370092 
L 297.63422 65.575206 
L 300.7086 63.91433 
L 303.78298 62.104764 
L 306.857361 60.35475 
L 309.931741 58.607106 
L 313.006121 56.866024 
L 316.080501 55.114034 
L 319.154881 53.371471 
L 322.229261 51.636478 
L 325.303642 49.935339 
L 328.378022 48.200792 
L 331.452402 46.466245 
L 334.526782 44.731992 
L 337.601162 43.054459 
L 340.675542 41.455129 
L 343.749923 39.680158 
L 346.824303 37.993122 
L 349.898683 36.377175 
L 352.973063 34.744409 
L 356.047443 33.092053 
L 356.047443 17.083636 
L 356.047443 17.083636 
L 352.973063 19.075493 
L 349.898683 21.076808 
L 346.824303 23.078122 
L 343.749923 25.079436 
L 340.675542 27.081245 
L 337.601162 29.083306 
L 334.526782 31.085367 
L 331.452402 33.087428 
L 328.378022 35.089489 
L 325.303642 37.09155 
L 322.229261 39.093611 
L 319.154881 41.104405 
L 316.080501 43.115456 
L 313.006121 45.070015 
L 309.931741 46.973 
L 306.857361 48.888994 
L 303.78298 50.807757 
L 300.7086 52.788611 
L 297.63422 54.774465 
L 294.55984 56.758752 
L 291.48546 58.703611 
L 288.41108 60.70759 
L 285.336699 62.637647 
L 282.262319 64.62704 
L 279.187939 66.618126 
L 276.113559 68.583012 
L 273.039179 70.446536 
L 269.964799 72.185563 
L 266.890418 74.117663 
L 263.816038 76.049261 
L 260.741658 77.981026 
L 257.667278 79.917027 
L 254.592898 81.829461 
L 251.518518 83.713625 
L 248.444137 85.722839 
L 245.369757 87.6909 
L 242.295377 89.599571 
L 239.220997 91.539744 
L 236.146617 93.421558 
L 233.072237 95.246915 
L 229.997856 97.023412 
L 226.923476 98.832819 
L 223.849096 100.54766 
L 220.774716 102.347993 
L 217.700336 103.958668 
L 214.625956 105.583024 
L 211.551575 107.298129 
L 208.477195 108.989263 
L 205.402815 110.705178 
L 202.328435 112.476235 
L 199.254055 114.137714 
L 196.179675 115.765497 
L 193.105294 117.404158 
L 190.030914 119.046086 
L 186.956534 120.71546 
L 183.882154 122.453484 
L 180.807774 124.161201 
L 177.733394 125.734133 
L 174.659013 127.307065 
L 171.584633 128.90002 
L 168.510253 130.540541 
L 165.435873 132.181511 
L 162.361493 133.823439 
L 159.287113 135.465367 
L 156.212732 137.062767 
L 153.138352 138.656505 
L 150.063972 140.250244 
L 146.989592 141.843983 
L 143.915212 143.448151 
L 140.840832 145.099085 
L 137.766451 146.751705 
L 134.692071 148.47957 
L 131.617691 150.151816 
L 128.543311 151.754305 
L 125.468931 153.405888 
L 122.394551 155.009901 
L 119.32017 156.659982 
L 116.24579 158.310063 
L 113.17141 159.961297 
L 110.09703 161.578403 
L 107.02265 163.194936 
L 103.94827 164.811469 
L 100.873889 166.422136 
L 97.799509 168.019906 
L 94.725129 169.637351 
L 91.650749 171.275881 
L 88.576369 172.892769 
L 85.501989 174.50937 
L 82.427608 176.145921 
L 79.353228 177.787435 
L 76.278848 179.42895 
L 73.204468 181.070465 
L 70.130088 182.71198 
L 67.055708 184.353495 
L 63.981327 185.99579 
L 60.906947 187.638185 
L 57.832567 189.28058 
L 54.758187 190.886685 
L 51.683807 192.484792 
z
" clip-path="url(#p18d22265cb)" style="fill: #1f77b4; fill-opacity: 0.15"/>
   </g>
   <g id="matplotlib.axis_1">
    <g id="xtick_1">
     <g id="line2d_1">
      <defs>
       <path id="m315eeabcef" d="M 0 0 
L 0 3.5 
" style="stroke: #000000; stroke-width: 0.8"/>
      </defs>
      <g>
       <use xlink:href="#m315eeabcef" x="51.683807" y="224.64" style="stroke: #000000; stroke-width: 0.8"/>
      </g>
     </g>
     <g id="text_1">
      <!-- 0 -->
      <g transform="translate(48.502557 239.238437)scale(0.1 -0.1)">
       <defs>
        <path id="DejaVuSans-30" d="M 2034 4250 
Q 1547 4250 1301 3770 
Q 1056 3291 1056 2328 
Q 1056 1369 1301 889 
Q 1547 409 2034 409 
Q 2525 409 2770 889 
Q 3016 1369 3016 2328 
Q 3016 3291 2770 3770 
Q 2525 4250 2034 4250 
z
M 2034 4750 
Q 2819 4750 3233 4129 
Q 3647 3509 3647 2328 
Q 3647 1150 3233 529 
Q 2819 -91 2034 -91 
Q 1250 -91 836 529 
Q 422 1150 422 2328 
Q 422 3509 836 4129 
Q 1250 4750 2034 4750 
z
" transform="scale(0.015625)"/>
       </defs>
       <use xlink:href="#DejaVuSans-30"/>
      </g>
     </g>
    </g>
    <g id="xtick_2">
     <g id="line2d_2">
      <g>
       <use xlink:href="#m315eeabcef" x="119.32017" y="224.64" style="stroke: #000000; stroke-width: 0.8"/>
      </g>
     </g>
     <g id="text_2">
      <!-- 2 -->
      <g transform="translate(116.13892 239.238437)scale(0.1 -0.1)">
       <defs>
        <path id="DejaVuSans-32" d="M 1228 531 
L 3431 531 
L 3431 0 
L 469 0 
L 469 531 
Q 828 903 1448 1529 
Q 2069 2156 2228 2338 
Q 2531 2678 2651 2914 
Q 2772 3150 2772 3378 
Q 2772 3750 2511 3984 
Q 2250 4219 1831 4219 
Q 1534 4219 1204 4116 
Q 875 4013 500 3803 
L 500 4441 
Q 881 4594 1212 4672 
Q 1544 4750 1819 4750 
Q 2544 4750 2975 4387 
Q 3406 4025 3406 3419 
Q 3406 3131 3298 2873 
Q 3191 2616 2906 2266 
Q 2828 2175 2409 1742 
Q 1991 1309 1228 531 
z
" transform="scale(0.015625)"/>
       </defs>
       <use xlink:href="#DejaVuSans-32"/>
      </g>
     </g>
    </g>
    <g id="xtick_3">
     <g id="line2d_3">
      <g>
       <use xlink:href="#m315eeabcef" x="186.956534" y="224.64" style="stroke: #000000; stroke-width: 0.8"/>
      </g>
     </g>
     <g id="text_3">
      <!-- 4 -->
      <g transform="translate(183.775284 239.238437)scale(0.1 -0.1)">
       <defs>
        <path id="DejaVuSans-34" d="M 2419 4116 
L 825 1625 
L 2419 1625 
L 2419 4116 
z
M 2253 4666 
L 3047 4666 
L 3047 1625 
L 3713 1625 
L 3713 1100 
L 3047 1100 
L 3047 0 
L 2419 0 
L 2419 1100 
L 313 1100 
L 313 1709 
L 2253 4666 
z
" transform="scale(0.015625)"/>
       </defs>
       <use xlink:href="#DejaVuSans-34"/>
      </g>
     </g>
    </g>
    <g id="xtick_4">
     <g id="line2d_4">
      <g>
       <use xlink:href="#m315eeabcef" x="254.592898" y="224.64" style="stroke: #000000; stroke-width: 0.8"/>
      </g>
     </g>
     <g id="text_4">
      <!-- 6 -->
      <g transform="translate(251.411648 239.238437)scale(0.1 -0.1)">
       <defs>
        <path id="DejaVuSans-36" d="M 2113 2584 
Q 1688 2584 1439 2293 
Q 1191 2003 1191 1497 
Q 1191 994 1439 701 
Q 1688 409 2113 409 
Q 2538 409 2786 701 
Q 3034 994 3034 1497 
Q 3034 2003 2786 2293 
Q 2538 2584 2113 2584 
z
M 3366 4563 
L 3366 3988 
Q 3128 4100 2886 4159 
Q 2644 4219 2406 4219 
Q 1781 4219 1451 3797 
Q 1122 3375 1075 2522 
Q 1259 2794 1537 2939 
Q 1816 3084 2150 3084 
Q 2853 3084 3261 2657 
Q 3669 2231 3669 1497 
Q 3669 778 3244 343 
Q 2819 -91 2113 -91 
Q 1303 -91 875 529 
Q 447 1150 447 2328 
Q 447 3434 972 4092 
Q 1497 4750 2381 4750 
Q 2619 4750 2861 4703 
Q 3103 4656 3366 4563 
z
" transform="scale(0.015625)"/>
       </defs>
       <use xlink:href="#DejaVuSans-36"/>
      </g>
     </g>
    </g>
    <g id="xtick_5">
     <g id="line2d_5">
      <g>
       <use xlink:href="#m315eeabcef" x="322.229261" y="224.64" style="stroke: #000000; stroke-width: 0.8"/>
      </g>
     </g>
     <g id="text_5">
      <!-- 8 -->
      <g transform="translate(319.048011 239.238437)scale(0.1 -0.1)">
       <defs>
        <path id="DejaVuSans-38" d="M 2034 2216 
Q 1584 2216 1326 1975 
Q 1069 1734 1069 1313 
Q 1069 891 1326 650 
Q 1584 409 2034 409 
Q 2484 409 2743 651 
Q 3003 894 3003 1313 
Q 3003 1734 2745 1975 
Q 2488 2216 2034 2216 
z
M 1403 2484 
Q 997 2584 770 2862 
Q 544 3141 544 3541 
Q 544 4100 942 4425 
Q 1341 4750 2034 4750 
Q 2731 4750 3128 4425 
Q 3525 4100 3525 3541 
Q 3525 3141 3298 2862 
Q 3072 2584 2669 2484 
Q 3125 2378 3379 2068 
Q 3634 1759 3634 1313 
Q 3634 634 3220 271 
Q 2806 -91 2034 -91 
Q 1263 -91 848 271 
Q 434 634 434 1313 
Q 434 1759 690 2068 
Q 947 2378 1403 2484 
z
M 1172 3481 
Q 1172 3119 1398 2916 
Q 1625 2713 2034 2713 
Q 2441 2713 2670 2916 
Q 2900 3119 2900 3481 
Q 2900 3844 2670 4047 
Q 2441 4250 2034 4250 
Q 1625 4250 1398 4047 
Q 1172 3844 1172 3481 
z
" transform="scale(0.015625)"/>
       </defs>
       <use xlink:href="#DejaVuSans-38"/>
      </g>
     </g>
    </g>
   </g>
   <g id="matplotlib.axis_2">
    <g id="ytick_1">
     <g id="line2d_6">
      <defs>
       <path id="ma8623c99c2" d="M 0 0 
L -3.5 0 
" style="stroke: #000000; stroke-width: 0.8"/>
      </defs>
      <g>
       <use xlink:href="#ma8623c99c2" x="36.465625" y="214.557683" style="stroke: #000000; stroke-width: 0.8"/>
      </g>
     </g>
     <g id="text_6">
      <!-- 0.0 -->
      <g transform="translate(13.5625 218.356902)scale(0.1 -0.1)">
       <defs>
        <path id="DejaVuSans-2e" d="M 684 794 
L 1344 794 
L 1344 0 
L 684 0 
L 684 794 
z
" transform="scale(0.015625)"/>
       </defs>
       <use xlink:href="#DejaVuSans-30"/>
       <use xlink:href="#DejaVuSans-2e" x="63.623047"/>
       <use xlink:href="#DejaVuSans-30" x="95.410156"/>
      </g>
     </g>
    </g>
    <g id="ytick_2">
     <g id="line2d_7">
      <g>
       <use xlink:href="#ma8623c99c2" x="36.465625" y="188.418991" style="stroke: #000000; stroke-width: 0.8"/>
      </g>
     </g>
     <g id="text_7">
      <!-- 2.5 -->
      <g transform="translate(13.5625 192.218209)scale(0.1 -0.1)">
       <defs>
        <path id="DejaVuSans-35" d="M 691 4666 
L 3169 4666 
L 3169 4134 
L 1269 4134 
L 1269 2991 
Q 1406 3038 1543 3061 
Q 1681 3084 1819 3084 
Q 2600 3084 3056 2656 
Q 3513 2228 3513 1497 
Q 3513 744 3044 326 
Q 2575 -91 1722 -91 
Q 1428 -91 1123 -41 
Q 819 9 494 109 
L 494 744 
Q 775 591 1075 516 
Q 1375 441 1709 441 
Q 2250 441 2565 725 
Q 2881 1009 2881 1497 
Q 2881 1984 2565 2268 
Q 2250 2553 1709 2553 
Q 1456 2553 1204 2497 
Q 953 2441 691 2322 
L 691 4666 
z
" transform="scale(0.015625)"/>
       </defs>
       <use xlink:href="#DejaVuSans-32"/>
       <use xlink:href="#DejaVuSans-2e" x="63.623047"/>
       <use xlink:href="#DejaVuSans-35" x="95.410156"/>
      </g>
     </g>
    </g>
    <g id="ytick_3">
     <g id="line2d_8">
      <g>
       <use xlink:href="#ma8623c99c2" x="36.465625" y="162.280298" style="stroke: #000000; stroke-width: 0.8"/>
      </g>
     </g>
     <g id="text_8">
      <!-- 5.0 -->
      <g transform="translate(13.5625 166.079517)scale(0.1 -0.1)">
       <use xlink:href="#DejaVuSans-35"/>
       <use xlink:href="#DejaVuSans-2e" x="63.623047"/>
       <use xlink:href="#DejaVuSans-30" x="95.410156"/>
      </g>
     </g>
    </g>
    <g id="ytick_4">
     <g id="line2d_9">
      <g>
       <use xlink:href="#ma8623c99c2" x="36.465625" y="136.141606" style="stroke: #000000; stroke-width: 0.8"/>
      </g>
     </g>
     <g id="text_9">
      <!-- 7.5 -->
      <g transform="translate(13.5625 139.940825)scale(0.1 -0.1)">
       <defs>
        <path id="DejaVuSans-37" d="M 525 4666 
L 3525 4666 
L 3525 4397 
L 1831 0 
L 1172 0 
L 2766 4134 
L 525 4134 
L 525 4666 
z
" transform="scale(0.015625)"/>
       </defs>
       <use xlink:href="#DejaVuSans-37"/>
       <use xlink:href="#DejaVuSans-2e" x="63.623047"/>
       <use xlink:href="#DejaVuSans-35" x="95.410156"/>
      </g>
     </g>
    </g>
    <g id="ytick_5">
     <g id="line2d_10">
      <g>
       <use xlink:href="#ma8623c99c2" x="36.465625" y="110.002913" style="stroke: #000000; stroke-width: 0.8"/>
      </g>
     </g>
     <g id="text_10">
      <!-- 10.0 -->
      <g transform="translate(7.2 113.802132)scale(0.1 -0.1)">
       <defs>
        <path id="DejaVuSans-31" d="M 794 531 
L 1825 531 
L 1825 4091 
L 703 3866 
L 703 4441 
L 1819 4666 
L 2450 4666 
L 2450 531 
L 3481 531 
L 3481 0 
L 794 0 
L 794 531 
z
" transform="scale(0.015625)"/>
       </defs>
       <use xlink:href="#DejaVuSans-31"/>
       <use xlink:href="#DejaVuSans-30" x="63.623047"/>
       <use xlink:href="#DejaVuSans-2e" x="127.246094"/>
       <use xlink:href="#DejaVuSans-30" x="159.033203"/>
      </g>
     </g>
    </g>
    <g id="ytick_6">
     <g id="line2d_11">
      <g>
       <use xlink:href="#ma8623c99c2" x="36.465625" y="83.864221" style="stroke: #000000; stroke-width: 0.8"/>
      </g>
     </g>
     <g id="text_11">
      <!-- 12.5 -->
      <g transform="translate(7.2 87.66344)scale(0.1 -0.1)">
       <use xlink:href="#DejaVuSans-31"/>
       <use xlink:href="#DejaVuSans-32" x="63.623047"/>
       <use xlink:href="#DejaVuSans-2e" x="127.246094"/>
       <use xlink:href="#DejaVuSans-35" x="159.033203"/>
      </g>
     </g>
    </g>
    <g id="ytick_7">
     <g id="line2d_12">
      <g>
       <use xlink:href="#ma8623c99c2" x="36.465625" y="57.725528" style="stroke: #000000; stroke-width: 0.8"/>
      </g>
     </g>
     <g id="text_12">
      <!-- 15.0 -->
      <g transform="translate(7.2 61.524747)scale(0.1 -0.1)">
       <use xlink:href="#DejaVuSans-31"/>
       <use xlink:href="#DejaVuSans-35" x="63.623047"/>
       <use xlink:href="#DejaVuSans-2e" x="127.246094"/>
       <use xlink:href="#DejaVuSans-30" x="159.033203"/>
      </g>
     </g>
    </g>
    <g id="ytick_8">
     <g id="line2d_13">
      <g>
       <use xlink:href="#ma8623c99c2" x="36.465625" y="31.586836" style="stroke: #000000; stroke-width: 0.8"/>
      </g>
     </g>
     <g id="text_13">
      <!-- 17.5 -->
      <g transform="translate(7.2 35.386055)scale(0.1 -0.1)">
       <use xlink:href="#DejaVuSans-31"/>
       <use xlink:href="#DejaVuSans-37" x="63.623047"/>
       <use xlink:href="#DejaVuSans-2e" x="127.246094"/>
       <use xlink:href="#DejaVuSans-35" x="159.033203"/>
      </g>
     </g>
    </g>
   </g>
   <g id="line2d_14">
    <path d="M 51.683807 205.230257 
L 54.758187 203.437805 
L 57.832567 201.645354 
L 60.906947 199.852903 
L 63.981327 198.060451 
L 67.055708 196.268 
L 70.130088 194.475549 
L 73.204468 192.683097 
L 76.278848 190.890646 
L 79.353228 189.098195 
L 82.427608 187.305743 
L 85.501989 185.513292 
L 88.576369 183.72084 
L 91.650749 181.928389 
L 94.725129 180.135938 
L 97.799509 178.343486 
L 100.873889 176.551035 
L 103.94827 174.758584 
L 107.02265 172.966132 
L 110.09703 171.173681 
L 113.17141 169.38123 
L 116.24579 167.588778 
L 119.32017 165.796327 
L 122.394551 164.003876 
L 125.468931 162.211424 
L 128.543311 160.418973 
L 131.617691 158.626521 
L 134.692071 156.83407 
L 137.766451 155.041619 
L 140.840832 153.249167 
L 143.915212 151.456716 
L 146.989592 149.664265 
L 150.063972 147.871813 
L 153.138352 146.079362 
L 156.212732 144.286911 
L 159.287113 142.494459 
L 162.361493 140.702008 
L 165.435873 138.909557 
L 168.510253 137.117105 
L 171.584633 135.324654 
L 174.659013 133.532202 
L 177.733394 131.739751 
L 180.807774 129.9473 
L 183.882154 128.154848 
L 186.956534 126.362397 
L 190.030914 124.569946 
L 193.105294 122.777494 
L 196.179675 120.985043 
L 199.254055 119.192592 
L 202.328435 117.40014 
L 205.402815 115.607689 
L 208.477195 113.815237 
L 211.551575 112.022786 
L 214.625956 110.230335 
L 217.700336 108.437883 
L 220.774716 106.645432 
L 223.849096 104.852981 
L 226.923476 103.060529 
L 229.997856 101.268078 
L 233.072237 99.475627 
L 236.146617 97.683175 
L 239.220997 95.890724 
L 242.295377 94.098273 
L 245.369757 92.305821 
L 248.444137 90.51337 
L 251.518518 88.720918 
L 254.592898 86.928467 
L 257.667278 85.136016 
L 260.741658 83.343564 
L 263.816038 81.551113 
L 266.890418 79.758662 
L 269.964799 77.96621 
L 273.039179 76.173759 
L 276.113559 74.381308 
L 279.187939 72.588856 
L 282.262319 70.796405 
L 285.336699 69.003954 
L 288.41108 67.211502 
L 291.48546 65.419051 
L 294.55984 63.626599 
L 297.63422 61.834148 
L 300.7086 60.041697 
L 303.78298 58.249245 
L 306.857361 56.456794 
L 309.931741 54.664343 
L 313.006121 52.871891 
L 316.080501 51.07944 
L 319.154881 49.286989 
L 322.229261 47.494537 
L 325.303642 45.702086 
L 328.378022 43.909634 
L 331.452402 42.117183 
L 334.526782 40.324732 
L 337.601162 38.53228 
L 340.675542 36.739829 
L 343.749923 34.947378 
L 346.824303 33.154926 
L 349.898683 31.362475 
L 352.973063 29.570024 
L 356.047443 27.777572 
" clip-path="url(#p18d22265cb)" style="fill: none; stroke: #1f77b4; stroke-width: 2.25; stroke-linecap: square"/>
   </g>
   <g id="patch_3">
    <path d="M 36.465625 224.64 
L 36.465625 7.2 
" style="fill: none; stroke: #000000; stroke-width: 0.8; stroke-linejoin: miter; stroke-linecap: square"/>
   </g>
   <g id="patch_4">
    <path d="M 371.265625 224.64 
L 371.265625 7.2 
" style="fill: none; stroke: #000000; stroke-width: 0.8; stroke-linejoin: miter; stroke-linecap: square"/>
   </g>
   <g id="patch_5">
    <path d="M 36.465625 224.64 
L 371.265625 224.64 
" style="fill: none; stroke: #000000; stroke-width: 0.8; stroke-linejoin: miter; stroke-linecap: square"/>
   </g>
   <g id="patch_6">
    <path d="M 36.465625 7.2 
L 371.265625 7.2 
" style="fill: none; stroke: #000000; stroke-width: 0.8; stroke-linejoin: miter; stroke-linecap: square"/>
   </g>
  </g>
 </g>
 <defs>
  <clipPath id="p18d22265cb">
   <rect x="36.465625" y="7.2" width="334.8" height="217.44"/>
  </clipPath>
 </defs>
</svg>
