<?xml version="1.0" encoding="utf-8" standalone="no"?>
<!DOCTYPE svg PUBLIC "-//W3C//DTD SVG 1.1//EN"
  "http://www.w3.org/Graphics/SVG/1.1/DTD/svg11.dtd">
<svg xmlns:xlink="http://www.w3.org/1999/xlink" width="388.965625pt" height="262.19625pt" viewBox="0 0 388.965625 262.19625" xmlns="http://www.w3.org/2000/svg" version="1.1">
 <metadata>
  <rdf:RDF xmlns:dc="http://purl.org/dc/elements/1.1/" xmlns:cc="http://creativecommons.org/ns#" xmlns:rdf="http://www.w3.org/1999/02/22-rdf-syntax-ns#">
   <cc:Work>
    <dc:type rdf:resource="http://purl.org/dc/dcmitype/StillImage"/>
    <dc:date>2022-06-01T12:59:30.959245</dc:date>
    <dc:format>image/svg+xml</dc:format>
    <dc:creator>
     <cc:Agent>
      <dc:title>Matplotlib v3.5.2, https://matplotlib.org/</dc:title>
     </cc:Agent>
    </dc:creator>
   </cc:Work>
  </rdf:RDF>
 </metadata>
 <defs>
  <style type="text/css">*{stroke-linejoin: round; stroke-linecap: butt}</style>
 </defs>
 <g id="figure_1">
  <g id="patch_1">
   <path d="M -0 262.19625 
L 388.965625 262.19625 
L 388.965625 0 
L -0 0 
L -0 262.19625 
z
" style="fill: none"/>
  </g>
  <g id="axes_1">
   <g id="patch_2">
    <path d="M 46.965625 224.64 
L 381.765625 224.64 
L 381.765625 7.2 
L 46.965625 7.2 
z
" style="fill: #ffffff"/>
   </g>
   <g id="PathCollection_1">
    <defs>
     <path id="m5e366d3adb" d="M 0 3 
C 0.795609 3 1.55874 2.683901 2.12132 2.12132 
C 2.683901 1.55874 3 0.795609 3 0 
C 3 -0.795609 2.683901 -1.55874 2.12132 -2.12132 
C 1.55874 -2.683901 0.795609 -3 0 -3 
C -0.795609 -3 -1.55874 -2.683901 -2.12132 -2.12132 
C -2.683901 -1.55874 -3 -0.795609 -3 0 
C -3 0.795609 -2.683901 1.55874 -2.12132 2.12132 
C -1.55874 2.683901 -0.795609 3 0 3 
z
" style="stroke: #1f77b4; stroke-opacity: 0.8"/>
    </defs>
    <g clip-path="url(#p6d8e4a67d1)">
     <use xlink:href="#m5e366d3adb" x="62.183807" y="165.573088" style="fill: #1f77b4; fill-opacity: 0.8; stroke: #1f77b4; stroke-opacity: 0.8"/>
     <use xlink:href="#m5e366d3adb" x="93.06032" y="155.21235" style="fill: #1f77b4; fill-opacity: 0.8; stroke: #1f77b4; stroke-opacity: 0.8"/>
     <use xlink:href="#m5e366d3adb" x="123.936834" y="139.272752" style="fill: #1f77b4; fill-opacity: 0.8; stroke: #1f77b4; stroke-opacity: 0.8"/>
     <use xlink:href="#m5e366d3adb" x="154.79134" y="123.333154" style="fill: #1f77b4; fill-opacity: 0.8; stroke: #1f77b4; stroke-opacity: 0.8"/>
     <use xlink:href="#m5e366d3adb" x="185.667853" y="106.596577" style="fill: #1f77b4; fill-opacity: 0.8; stroke: #1f77b4; stroke-opacity: 0.8"/>
     <use xlink:href="#m5e366d3adb" x="216.544367" y="92.250939" style="fill: #1f77b4; fill-opacity: 0.8; stroke: #1f77b4; stroke-opacity: 0.8"/>
     <use xlink:href="#m5e366d3adb" x="247.398873" y="77.108321" style="fill: #1f77b4; fill-opacity: 0.8; stroke: #1f77b4; stroke-opacity: 0.8"/>
     <use xlink:href="#m5e366d3adb" x="278.275386" y="61.965703" style="fill: #1f77b4; fill-opacity: 0.8; stroke: #1f77b4; stroke-opacity: 0.8"/>
     <use xlink:href="#m5e366d3adb" x="309.129892" y="48.417045" style="fill: #1f77b4; fill-opacity: 0.8; stroke: #1f77b4; stroke-opacity: 0.8"/>
     <use xlink:href="#m5e366d3adb" x="340.006406" y="32.477447" style="fill: #1f77b4; fill-opacity: 0.8; stroke: #1f77b4; stroke-opacity: 0.8"/>
     <use xlink:href="#m5e366d3adb" x="150.455864" y="188.685505" style="fill: #1f77b4; fill-opacity: 0.8; stroke: #1f77b4; stroke-opacity: 0.8"/>
     <use xlink:href="#m5e366d3adb" x="181.332377" y="162.385169" style="fill: #1f77b4; fill-opacity: 0.8; stroke: #1f77b4; stroke-opacity: 0.8"/>
     <use xlink:href="#m5e366d3adb" x="212.208891" y="139.272752" style="fill: #1f77b4; fill-opacity: 0.8; stroke: #1f77b4; stroke-opacity: 0.8"/>
     <use xlink:href="#m5e366d3adb" x="243.063397" y="116.957315" style="fill: #1f77b4; fill-opacity: 0.8; stroke: #1f77b4; stroke-opacity: 0.8"/>
     <use xlink:href="#m5e366d3adb" x="273.93991" y="97.032818" style="fill: #1f77b4; fill-opacity: 0.8; stroke: #1f77b4; stroke-opacity: 0.8"/>
     <use xlink:href="#m5e366d3adb" x="304.816424" y="78.702281" style="fill: #1f77b4; fill-opacity: 0.8; stroke: #1f77b4; stroke-opacity: 0.8"/>
     <use xlink:href="#m5e366d3adb" x="335.67093" y="61.168723" style="fill: #1f77b4; fill-opacity: 0.8; stroke: #1f77b4; stroke-opacity: 0.8"/>
     <use xlink:href="#m5e366d3adb" x="366.547443" y="45.229125" style="fill: #1f77b4; fill-opacity: 0.8; stroke: #1f77b4; stroke-opacity: 0.8"/>
     <use xlink:href="#m5e366d3adb" x="181.332377" y="167.167048" style="fill: #1f77b4; fill-opacity: 0.8; stroke: #1f77b4; stroke-opacity: 0.8"/>
     <use xlink:href="#m5e366d3adb" x="243.063397" y="124.130134" style="fill: #1f77b4; fill-opacity: 0.8; stroke: #1f77b4; stroke-opacity: 0.8"/>
     <use xlink:href="#m5e366d3adb" x="150.455864" y="195.061344" style="fill: #1f77b4; fill-opacity: 0.8; stroke: #1f77b4; stroke-opacity: 0.8"/>
     <use xlink:href="#m5e366d3adb" x="212.208891" y="153.61839" style="fill: #1f77b4; fill-opacity: 0.8; stroke: #1f77b4; stroke-opacity: 0.8"/>
     <use xlink:href="#m5e366d3adb" x="154.79134" y="131.302953" style="fill: #1f77b4; fill-opacity: 0.8; stroke: #1f77b4; stroke-opacity: 0.8"/>
     <use xlink:href="#m5e366d3adb" x="154.79134" y="151.22745" style="fill: #1f77b4; fill-opacity: 0.8; stroke: #1f77b4; stroke-opacity: 0.8"/>
     <use xlink:href="#m5e366d3adb" x="185.667853" y="112.972416" style="fill: #1f77b4; fill-opacity: 0.8; stroke: #1f77b4; stroke-opacity: 0.8"/>
     <use xlink:href="#m5e366d3adb" x="216.544367" y="109.784496" style="fill: #1f77b4; fill-opacity: 0.8; stroke: #1f77b4; stroke-opacity: 0.8"/>
     <use xlink:href="#m5e366d3adb" x="247.398873" y="105.799597" style="fill: #1f77b4; fill-opacity: 0.8; stroke: #1f77b4; stroke-opacity: 0.8"/>
     <use xlink:href="#m5e366d3adb" x="198.78432" y="72.326442" style="fill: #1f77b4; fill-opacity: 0.8; stroke: #1f77b4; stroke-opacity: 0.8"/>
     <use xlink:href="#m5e366d3adb" x="229.660833" y="56.386844" style="fill: #1f77b4; fill-opacity: 0.8; stroke: #1f77b4; stroke-opacity: 0.8"/>
     <use xlink:href="#m5e366d3adb" x="291.391853" y="42.041206" style="fill: #1f77b4; fill-opacity: 0.8; stroke: #1f77b4; stroke-opacity: 0.8"/>
    </g>
   </g>
   <g id="PolyCollection_1">
    <path d="M 62.183807 171.515218 
L 62.183807 214.756364 
L 65.258187 212.861437 
L 68.332567 210.966511 
L 71.406947 209.071584 
L 74.481327 207.176657 
L 77.555708 205.184968 
L 80.630088 203.147301 
L 83.704468 201.109633 
L 86.778848 199.071965 
L 89.853228 197.067783 
L 92.927608 195.236567 
L 96.001989 193.403813 
L 99.076369 191.571058 
L 102.150749 189.738304 
L 105.225129 187.81529 
L 108.299509 185.836418 
L 111.373889 184.105612 
L 114.44827 182.374807 
L 117.52265 180.594705 
L 120.59703 178.765857 
L 123.67141 176.91721 
L 126.74579 175.054987 
L 129.82017 173.234107 
L 132.894551 171.411418 
L 135.968931 169.438084 
L 139.043311 167.583837 
L 142.117691 165.665373 
L 145.192071 163.745442 
L 148.266451 161.81939 
L 151.340832 159.896214 
L 154.415212 157.976395 
L 157.489592 156.055762 
L 160.563972 154.134619 
L 163.638352 152.212087 
L 166.712732 150.26854 
L 169.787113 148.36893 
L 172.861493 146.450151 
L 175.935873 144.528478 
L 179.010253 142.631611 
L 182.084633 140.690699 
L 185.159013 138.942085 
L 188.233394 137.012983 
L 191.307774 135.247809 
L 194.382154 133.446746 
L 197.456534 131.583937 
L 200.530914 129.890885 
L 203.605294 128.213379 
L 206.679675 126.356444 
L 209.754055 124.755986 
L 212.828435 122.808394 
L 215.902815 121.122351 
L 218.977195 119.419745 
L 222.051575 117.602987 
L 225.125956 115.826252 
L 228.200336 114.273481 
L 231.274716 112.862843 
L 234.349096 111.289387 
L 237.423476 109.644545 
L 240.497856 108.073181 
L 243.572237 106.436166 
L 246.646617 104.804379 
L 249.720997 103.283696 
L 252.795377 101.842301 
L 255.869757 100.300333 
L 258.944137 98.940617 
L 262.018518 97.607079 
L 265.092898 96.164941 
L 268.167278 94.887349 
L 271.241658 93.488734 
L 274.316038 92.067573 
L 277.390418 90.630144 
L 280.464799 89.045709 
L 283.539179 87.43454 
L 286.613559 86.020312 
L 289.687939 84.565774 
L 292.762319 83.070846 
L 295.836699 81.776536 
L 298.91108 80.440603 
L 301.98546 79.032393 
L 305.05984 77.625061 
L 308.13422 76.167508 
L 311.2086 74.737868 
L 314.28298 73.382738 
L 317.357361 71.95053 
L 320.431741 70.570923 
L 323.506121 69.195128 
L 326.580501 67.82121 
L 329.654881 66.447292 
L 332.729261 65.071981 
L 335.803642 63.695308 
L 338.878022 62.318367 
L 341.952402 60.943014 
L 345.026782 59.5839 
L 348.101162 58.251859 
L 351.175542 56.908253 
L 354.249923 55.526667 
L 357.324303 54.145081 
L 360.398683 52.763495 
L 363.473063 51.418583 
L 366.547443 50.216569 
L 366.547443 17.083636 
L 366.547443 17.083636 
L 363.473063 18.938956 
L 360.398683 20.795077 
L 357.324303 22.650887 
L 354.249923 24.560824 
L 351.175542 26.535883 
L 348.101162 28.511269 
L 345.026782 30.436473 
L 341.952402 32.35079 
L 338.878022 34.230076 
L 335.803642 36.192235 
L 332.729261 38.108831 
L 329.654881 40.02692 
L 326.580501 41.899639 
L 323.506121 43.850428 
L 320.431741 45.775794 
L 317.357361 47.694223 
L 314.28298 49.612652 
L 311.2086 51.531081 
L 308.13422 53.445847 
L 305.05984 55.075998 
L 301.98546 56.931344 
L 298.91108 58.878878 
L 295.836699 60.714166 
L 292.762319 62.614962 
L 289.687939 64.383806 
L 286.613559 66.1311 
L 283.539179 67.637527 
L 280.464799 69.216438 
L 277.390418 70.908681 
L 274.316038 72.673231 
L 271.241658 74.288632 
L 268.167278 75.979235 
L 265.092898 77.673294 
L 262.018518 79.3906 
L 258.944137 81.048203 
L 255.869757 82.613944 
L 252.795377 84.270812 
L 249.720997 85.900664 
L 246.646617 87.499687 
L 243.572237 89.003735 
L 240.497856 90.506547 
L 237.423476 91.949486 
L 234.349096 93.516153 
L 231.274716 95.042497 
L 228.200336 96.533328 
L 225.125956 98.030493 
L 222.051575 99.534345 
L 218.977195 101.038197 
L 215.902815 102.513602 
L 212.828435 103.935127 
L 209.754055 105.377208 
L 206.679675 106.895943 
L 203.605294 108.447666 
L 200.530914 109.930941 
L 197.456534 111.394729 
L 194.382154 112.818869 
L 191.307774 114.240544 
L 188.233394 115.575029 
L 185.159013 117.087333 
L 182.084633 118.532347 
L 179.010253 119.980765 
L 175.935873 121.300581 
L 172.861493 122.725517 
L 169.787113 124.141696 
L 166.712732 125.60154 
L 163.638352 127.043214 
L 160.563972 128.419959 
L 157.489592 129.682064 
L 154.415212 130.987958 
L 151.340832 132.368855 
L 148.266451 133.708222 
L 145.192071 135.023203 
L 142.117691 136.437382 
L 139.043311 137.89885 
L 135.968931 139.289882 
L 132.894551 140.675462 
L 129.82017 142.078668 
L 126.74579 143.56647 
L 123.67141 144.942846 
L 120.59703 146.370334 
L 117.52265 147.649713 
L 114.44827 148.980071 
L 111.373889 150.278911 
L 108.299509 151.533455 
L 105.225129 152.898083 
L 102.150749 154.280867 
L 99.076369 155.668782 
L 96.001989 157.05685 
L 92.927608 158.444917 
L 89.853228 159.831239 
L 86.778848 161.214673 
L 83.704468 162.597364 
L 80.630088 163.7571 
L 77.555708 164.93478 
L 74.481327 166.215526 
L 71.406947 167.518808 
L 68.332567 168.899294 
L 65.258187 170.241239 
L 62.183807 171.515218 
z
" clip-path="url(#p6d8e4a67d1)" style="fill: #1f77b4; fill-opacity: 0.15"/>
   </g>
   <g id="matplotlib.axis_1">
    <g id="xtick_1">
     <g id="line2d_1">
      <defs>
       <path id="m57ed6a617e" d="M 0 0 
L 0 3.5 
" style="stroke: #000000; stroke-width: 0.8"/>
      </defs>
      <g>
       <use xlink:href="#m57ed6a617e" x="79.701772" y="224.64" style="stroke: #000000; stroke-width: 0.8"/>
      </g>
     </g>
     <g id="text_1">
      <!-- 40 -->
      <g transform="translate(73.339272 239.238437)scale(0.1 -0.1)">
       <defs>
        <path id="DejaVuSans-34" d="M 2419 4116 
L 825 1625 
L 2419 1625 
L 2419 4116 
z
M 2253 4666 
L 3047 4666 
L 3047 1625 
L 3713 1625 
L 3713 1100 
L 3047 1100 
L 3047 0 
L 2419 0 
L 2419 1100 
L 313 1100 
L 313 1709 
L 2253 4666 
z
" transform="scale(0.015625)"/>
        <path id="DejaVuSans-30" d="M 2034 4250 
Q 1547 4250 1301 3770 
Q 1056 3291 1056 2328 
Q 1056 1369 1301 889 
Q 1547 409 2034 409 
Q 2525 409 2770 889 
Q 3016 1369 3016 2328 
Q 3016 3291 2770 3770 
Q 2525 4250 2034 4250 
z
M 2034 4750 
Q 2819 4750 3233 4129 
Q 3647 3509 3647 2328 
Q 3647 1150 3233 529 
Q 2819 -91 2034 -91 
Q 1250 -91 836 529 
Q 422 1150 422 2328 
Q 422 3509 836 4129 
Q 1250 4750 2034 4750 
z
" transform="scale(0.015625)"/>
       </defs>
       <use xlink:href="#DejaVuSans-34"/>
       <use xlink:href="#DejaVuSans-30" x="63.623047"/>
      </g>
     </g>
    </g>
    <g id="xtick_2">
     <g id="line2d_2">
      <g>
       <use xlink:href="#m57ed6a617e" x="123.716759" y="224.64" style="stroke: #000000; stroke-width: 0.8"/>
      </g>
     </g>
     <g id="text_2">
      <!-- 60 -->
      <g transform="translate(117.354259 239.238437)scale(0.1 -0.1)">
       <defs>
        <path id="DejaVuSans-36" d="M 2113 2584 
Q 1688 2584 1439 2293 
Q 1191 2003 1191 1497 
Q 1191 994 1439 701 
Q 1688 409 2113 409 
Q 2538 409 2786 701 
Q 3034 994 3034 1497 
Q 3034 2003 2786 2293 
Q 2538 2584 2113 2584 
z
M 3366 4563 
L 3366 3988 
Q 3128 4100 2886 4159 
Q 2644 4219 2406 4219 
Q 1781 4219 1451 3797 
Q 1122 3375 1075 2522 
Q 1259 2794 1537 2939 
Q 1816 3084 2150 3084 
Q 2853 3084 3261 2657 
Q 3669 2231 3669 1497 
Q 3669 778 3244 343 
Q 2819 -91 2113 -91 
Q 1303 -91 875 529 
Q 447 1150 447 2328 
Q 447 3434 972 4092 
Q 1497 4750 2381 4750 
Q 2619 4750 2861 4703 
Q 3103 4656 3366 4563 
z
" transform="scale(0.015625)"/>
       </defs>
       <use xlink:href="#DejaVuSans-36"/>
       <use xlink:href="#DejaVuSans-30" x="63.623047"/>
      </g>
     </g>
    </g>
    <g id="xtick_3">
     <g id="line2d_3">
      <g>
       <use xlink:href="#m57ed6a617e" x="167.731746" y="224.64" style="stroke: #000000; stroke-width: 0.8"/>
      </g>
     </g>
     <g id="text_3">
      <!-- 80 -->
      <g transform="translate(161.369246 239.238437)scale(0.1 -0.1)">
       <defs>
        <path id="DejaVuSans-38" d="M 2034 2216 
Q 1584 2216 1326 1975 
Q 1069 1734 1069 1313 
Q 1069 891 1326 650 
Q 1584 409 2034 409 
Q 2484 409 2743 651 
Q 3003 894 3003 1313 
Q 3003 1734 2745 1975 
Q 2488 2216 2034 2216 
z
M 1403 2484 
Q 997 2584 770 2862 
Q 544 3141 544 3541 
Q 544 4100 942 4425 
Q 1341 4750 2034 4750 
Q 2731 4750 3128 4425 
Q 3525 4100 3525 3541 
Q 3525 3141 3298 2862 
Q 3072 2584 2669 2484 
Q 3125 2378 3379 2068 
Q 3634 1759 3634 1313 
Q 3634 634 3220 271 
Q 2806 -91 2034 -91 
Q 1263 -91 848 271 
Q 434 634 434 1313 
Q 434 1759 690 2068 
Q 947 2378 1403 2484 
z
M 1172 3481 
Q 1172 3119 1398 2916 
Q 1625 2713 2034 2713 
Q 2441 2713 2670 2916 
Q 2900 3119 2900 3481 
Q 2900 3844 2670 4047 
Q 2441 4250 2034 4250 
Q 1625 4250 1398 4047 
Q 1172 3844 1172 3481 
z
" transform="scale(0.015625)"/>
       </defs>
       <use xlink:href="#DejaVuSans-38"/>
       <use xlink:href="#DejaVuSans-30" x="63.623047"/>
      </g>
     </g>
    </g>
    <g id="xtick_4">
     <g id="line2d_4">
      <g>
       <use xlink:href="#m57ed6a617e" x="211.746733" y="224.64" style="stroke: #000000; stroke-width: 0.8"/>
      </g>
     </g>
     <g id="text_4">
      <!-- 100 -->
      <g transform="translate(202.202983 239.238437)scale(0.1 -0.1)">
       <defs>
        <path id="DejaVuSans-31" d="M 794 531 
L 1825 531 
L 1825 4091 
L 703 3866 
L 703 4441 
L 1819 4666 
L 2450 4666 
L 2450 531 
L 3481 531 
L 3481 0 
L 794 0 
L 794 531 
z
" transform="scale(0.015625)"/>
       </defs>
       <use xlink:href="#DejaVuSans-31"/>
       <use xlink:href="#DejaVuSans-30" x="63.623047"/>
       <use xlink:href="#DejaVuSans-30" x="127.246094"/>
      </g>
     </g>
    </g>
    <g id="xtick_5">
     <g id="line2d_5">
      <g>
       <use xlink:href="#m57ed6a617e" x="255.76172" y="224.64" style="stroke: #000000; stroke-width: 0.8"/>
      </g>
     </g>
     <g id="text_5">
      <!-- 120 -->
      <g transform="translate(246.21797 239.238437)scale(0.1 -0.1)">
       <defs>
        <path id="DejaVuSans-32" d="M 1228 531 
L 3431 531 
L 3431 0 
L 469 0 
L 469 531 
Q 828 903 1448 1529 
Q 2069 2156 2228 2338 
Q 2531 2678 2651 2914 
Q 2772 3150 2772 3378 
Q 2772 3750 2511 3984 
Q 2250 4219 1831 4219 
Q 1534 4219 1204 4116 
Q 875 4013 500 3803 
L 500 4441 
Q 881 4594 1212 4672 
Q 1544 4750 1819 4750 
Q 2544 4750 2975 4387 
Q 3406 4025 3406 3419 
Q 3406 3131 3298 2873 
Q 3191 2616 2906 2266 
Q 2828 2175 2409 1742 
Q 1991 1309 1228 531 
z
" transform="scale(0.015625)"/>
       </defs>
       <use xlink:href="#DejaVuSans-31"/>
       <use xlink:href="#DejaVuSans-32" x="63.623047"/>
       <use xlink:href="#DejaVuSans-30" x="127.246094"/>
      </g>
     </g>
    </g>
    <g id="xtick_6">
     <g id="line2d_6">
      <g>
       <use xlink:href="#m57ed6a617e" x="299.776708" y="224.64" style="stroke: #000000; stroke-width: 0.8"/>
      </g>
     </g>
     <g id="text_6">
      <!-- 140 -->
      <g transform="translate(290.232958 239.238437)scale(0.1 -0.1)">
       <use xlink:href="#DejaVuSans-31"/>
       <use xlink:href="#DejaVuSans-34" x="63.623047"/>
       <use xlink:href="#DejaVuSans-30" x="127.246094"/>
      </g>
     </g>
    </g>
    <g id="xtick_7">
     <g id="line2d_7">
      <g>
       <use xlink:href="#m57ed6a617e" x="343.791695" y="224.64" style="stroke: #000000; stroke-width: 0.8"/>
      </g>
     </g>
     <g id="text_7">
      <!-- 160 -->
      <g transform="translate(334.247945 239.238437)scale(0.1 -0.1)">
       <use xlink:href="#DejaVuSans-31"/>
       <use xlink:href="#DejaVuSans-36" x="63.623047"/>
       <use xlink:href="#DejaVuSans-30" x="127.246094"/>
      </g>
     </g>
    </g>
    <g id="text_8">
     <!-- MW -->
     <g transform="translate(205.107813 252.916562)scale(0.1 -0.1)">
      <defs>
       <path id="DejaVuSans-4d" d="M 628 4666 
L 1569 4666 
L 2759 1491 
L 3956 4666 
L 4897 4666 
L 4897 0 
L 4281 0 
L 4281 4097 
L 3078 897 
L 2444 897 
L 1241 4097 
L 1241 0 
L 628 0 
L 628 4666 
z
" transform="scale(0.015625)"/>
       <path id="DejaVuSans-57" d="M 213 4666 
L 850 4666 
L 1831 722 
L 2809 4666 
L 3519 4666 
L 4500 722 
L 5478 4666 
L 6119 4666 
L 4947 0 
L 4153 0 
L 3169 4050 
L 2175 0 
L 1381 0 
L 213 4666 
z
" transform="scale(0.015625)"/>
      </defs>
      <use xlink:href="#DejaVuSans-4d"/>
      <use xlink:href="#DejaVuSans-57" x="86.279297"/>
     </g>
    </g>
   </g>
   <g id="matplotlib.axis_2">
    <g id="ytick_1">
     <g id="line2d_8">
      <defs>
       <path id="m1b53d49614" d="M 0 0 
L -3.5 0 
" style="stroke: #000000; stroke-width: 0.8"/>
      </defs>
      <g>
       <use xlink:href="#m1b53d49614" x="46.965625" y="217.376781" style="stroke: #000000; stroke-width: 0.8"/>
      </g>
     </g>
     <g id="text_9">
      <!-- 0 -->
      <g transform="translate(33.603125 221.176)scale(0.1 -0.1)">
       <use xlink:href="#DejaVuSans-30"/>
      </g>
     </g>
    </g>
    <g id="ytick_2">
     <g id="line2d_9">
      <g>
       <use xlink:href="#m1b53d49614" x="46.965625" y="177.527787" style="stroke: #000000; stroke-width: 0.8"/>
      </g>
     </g>
     <g id="text_10">
      <!-- 50 -->
      <g transform="translate(27.240625 181.327005)scale(0.1 -0.1)">
       <defs>
        <path id="DejaVuSans-35" d="M 691 4666 
L 3169 4666 
L 3169 4134 
L 1269 4134 
L 1269 2991 
Q 1406 3038 1543 3061 
Q 1681 3084 1819 3084 
Q 2600 3084 3056 2656 
Q 3513 2228 3513 1497 
Q 3513 744 3044 326 
Q 2575 -91 1722 -91 
Q 1428 -91 1123 -41 
Q 819 9 494 109 
L 494 744 
Q 775 591 1075 516 
Q 1375 441 1709 441 
Q 2250 441 2565 725 
Q 2881 1009 2881 1497 
Q 2881 1984 2565 2268 
Q 2250 2553 1709 2553 
Q 1456 2553 1204 2497 
Q 953 2441 691 2322 
L 691 4666 
z
" transform="scale(0.015625)"/>
       </defs>
       <use xlink:href="#DejaVuSans-35"/>
       <use xlink:href="#DejaVuSans-30" x="63.623047"/>
      </g>
     </g>
    </g>
    <g id="ytick_3">
     <g id="line2d_10">
      <g>
       <use xlink:href="#m1b53d49614" x="46.965625" y="137.678792" style="stroke: #000000; stroke-width: 0.8"/>
      </g>
     </g>
     <g id="text_11">
      <!-- 100 -->
      <g transform="translate(20.878125 141.478011)scale(0.1 -0.1)">
       <use xlink:href="#DejaVuSans-31"/>
       <use xlink:href="#DejaVuSans-30" x="63.623047"/>
       <use xlink:href="#DejaVuSans-30" x="127.246094"/>
      </g>
     </g>
    </g>
    <g id="ytick_4">
     <g id="line2d_11">
      <g>
       <use xlink:href="#m1b53d49614" x="46.965625" y="97.829798" style="stroke: #000000; stroke-width: 0.8"/>
      </g>
     </g>
     <g id="text_12">
      <!-- 150 -->
      <g transform="translate(20.878125 101.629017)scale(0.1 -0.1)">
       <use xlink:href="#DejaVuSans-31"/>
       <use xlink:href="#DejaVuSans-35" x="63.623047"/>
       <use xlink:href="#DejaVuSans-30" x="127.246094"/>
      </g>
     </g>
    </g>
    <g id="ytick_5">
     <g id="line2d_12">
      <g>
       <use xlink:href="#m1b53d49614" x="46.965625" y="57.980804" style="stroke: #000000; stroke-width: 0.8"/>
      </g>
     </g>
     <g id="text_13">
      <!-- 200 -->
      <g transform="translate(20.878125 61.780022)scale(0.1 -0.1)">
       <use xlink:href="#DejaVuSans-32"/>
       <use xlink:href="#DejaVuSans-30" x="63.623047"/>
       <use xlink:href="#DejaVuSans-30" x="127.246094"/>
      </g>
     </g>
    </g>
    <g id="ytick_6">
     <g id="line2d_13">
      <g>
       <use xlink:href="#m1b53d49614" x="46.965625" y="18.131809" style="stroke: #000000; stroke-width: 0.8"/>
      </g>
     </g>
     <g id="text_14">
      <!-- 250 -->
      <g transform="translate(20.878125 21.931028)scale(0.1 -0.1)">
       <use xlink:href="#DejaVuSans-32"/>
       <use xlink:href="#DejaVuSans-35" x="63.623047"/>
       <use xlink:href="#DejaVuSans-30" x="127.246094"/>
      </g>
     </g>
    </g>
    <g id="text_15">
     <!-- bp -->
     <g transform="translate(14.798438 122.268437)rotate(-90)scale(0.1 -0.1)">
      <defs>
       <path id="DejaVuSans-62" d="M 3116 1747 
Q 3116 2381 2855 2742 
Q 2594 3103 2138 3103 
Q 1681 3103 1420 2742 
Q 1159 2381 1159 1747 
Q 1159 1113 1420 752 
Q 1681 391 2138 391 
Q 2594 391 2855 752 
Q 3116 1113 3116 1747 
z
M 1159 2969 
Q 1341 3281 1617 3432 
Q 1894 3584 2278 3584 
Q 2916 3584 3314 3078 
Q 3713 2572 3713 1747 
Q 3713 922 3314 415 
Q 2916 -91 2278 -91 
Q 1894 -91 1617 61 
Q 1341 213 1159 525 
L 1159 0 
L 581 0 
L 581 4863 
L 1159 4863 
L 1159 2969 
z
" transform="scale(0.015625)"/>
       <path id="DejaVuSans-70" d="M 1159 525 
L 1159 -1331 
L 581 -1331 
L 581 3500 
L 1159 3500 
L 1159 2969 
Q 1341 3281 1617 3432 
Q 1894 3584 2278 3584 
Q 2916 3584 3314 3078 
Q 3713 2572 3713 1747 
Q 3713 922 3314 415 
Q 2916 -91 2278 -91 
Q 1894 -91 1617 61 
Q 1341 213 1159 525 
z
M 3116 1747 
Q 3116 2381 2855 2742 
Q 2594 3103 2138 3103 
Q 1681 3103 1420 2742 
Q 1159 2381 1159 1747 
Q 1159 1113 1420 752 
Q 1681 391 2138 391 
Q 2594 391 2855 752 
Q 3116 1113 3116 1747 
z
" transform="scale(0.015625)"/>
      </defs>
      <use xlink:href="#DejaVuSans-62"/>
      <use xlink:href="#DejaVuSans-70" x="63.476562"/>
     </g>
    </g>
   </g>
   <g id="line2d_14">
    <path d="M 62.183807 189.492102 
L 65.258187 187.934217 
L 68.332567 186.376333 
L 71.406947 184.818448 
L 74.481327 183.260563 
L 77.555708 181.702678 
L 80.630088 180.144794 
L 83.704468 178.586909 
L 86.778848 177.029024 
L 89.853228 175.471139 
L 92.927608 173.913255 
L 96.001989 172.35537 
L 99.076369 170.797485 
L 102.150749 169.2396 
L 105.225129 167.681716 
L 108.299509 166.123831 
L 111.373889 164.565946 
L 114.44827 163.008061 
L 117.52265 161.450177 
L 120.59703 159.892292 
L 123.67141 158.334407 
L 126.74579 156.776522 
L 129.82017 155.218638 
L 132.894551 153.660753 
L 135.968931 152.102868 
L 139.043311 150.544983 
L 142.117691 148.987099 
L 145.192071 147.429214 
L 148.266451 145.871329 
L 151.340832 144.313445 
L 154.415212 142.75556 
L 157.489592 141.197675 
L 160.563972 139.63979 
L 163.638352 138.081906 
L 166.712732 136.524021 
L 169.787113 134.966136 
L 172.861493 133.408251 
L 175.935873 131.850367 
L 179.010253 130.292482 
L 182.084633 128.734597 
L 185.159013 127.176712 
L 188.233394 125.618828 
L 191.307774 124.060943 
L 194.382154 122.503058 
L 197.456534 120.945173 
L 200.530914 119.387289 
L 203.605294 117.829404 
L 206.679675 116.271519 
L 209.754055 114.713634 
L 212.828435 113.15575 
L 215.902815 111.597865 
L 218.977195 110.03998 
L 222.051575 108.482095 
L 225.125956 106.924211 
L 228.200336 105.366326 
L 231.274716 103.808441 
L 234.349096 102.250556 
L 237.423476 100.692672 
L 240.497856 99.134787 
L 243.572237 97.576902 
L 246.646617 96.019017 
L 249.720997 94.461133 
L 252.795377 92.903248 
L 255.869757 91.345363 
L 258.944137 89.787479 
L 262.018518 88.229594 
L 265.092898 86.671709 
L 268.167278 85.113824 
L 271.241658 83.55594 
L 274.316038 81.998055 
L 277.390418 80.44017 
L 280.464799 78.882285 
L 283.539179 77.324401 
L 286.613559 75.766516 
L 289.687939 74.208631 
L 292.762319 72.650746 
L 295.836699 71.092862 
L 298.91108 69.534977 
L 301.98546 67.977092 
L 305.05984 66.419207 
L 308.13422 64.861323 
L 311.2086 63.303438 
L 314.28298 61.745553 
L 317.357361 60.187668 
L 320.431741 58.629784 
L 323.506121 57.071899 
L 326.580501 55.514014 
L 329.654881 53.956129 
L 332.729261 52.398245 
L 335.803642 50.84036 
L 338.878022 49.282475 
L 341.952402 47.72459 
L 345.026782 46.166706 
L 348.101162 44.608821 
L 351.175542 43.050936 
L 354.249923 41.493051 
L 357.324303 39.935167 
L 360.398683 38.377282 
L 363.473063 36.819397 
L 366.547443 35.261513 
" clip-path="url(#p6d8e4a67d1)" style="fill: none; stroke: #1f77b4; stroke-width: 2.25; stroke-linecap: square"/>
   </g>
   <g id="patch_3">
    <path d="M 46.965625 224.64 
L 46.965625 7.2 
" style="fill: none; stroke: #000000; stroke-width: 0.8; stroke-linejoin: miter; stroke-linecap: square"/>
   </g>
   <g id="patch_4">
    <path d="M 381.765625 224.64 
L 381.765625 7.2 
" style="fill: none; stroke: #000000; stroke-width: 0.8; stroke-linejoin: miter; stroke-linecap: square"/>
   </g>
   <g id="patch_5">
    <path d="M 46.965625 224.64 
L 381.765625 224.64 
" style="fill: none; stroke: #000000; stroke-width: 0.8; stroke-linejoin: miter; stroke-linecap: square"/>
   </g>
   <g id="patch_6">
    <path d="M 46.965625 7.2 
L 381.765625 7.2 
" style="fill: none; stroke: #000000; stroke-width: 0.8; stroke-linejoin: miter; stroke-linecap: square"/>
   </g>
  </g>
 </g>
 <defs>
  <clipPath id="p6d8e4a67d1">
   <rect x="46.965625" y="7.2" width="334.8" height="217.44"/>
  </clipPath>
 </defs>
</svg>
