<?xml version="1.0" encoding="utf-8" standalone="no"?>
<!DOCTYPE svg PUBLIC "-//W3C//DTD SVG 1.1//EN"
  "http://www.w3.org/Graphics/SVG/1.1/DTD/svg11.dtd">
<svg xmlns:xlink="http://www.w3.org/1999/xlink" width="420.188935pt" height="351.99625pt" viewBox="0 0 420.188935 351.99625" xmlns="http://www.w3.org/2000/svg" version="1.1">
 <metadata>
  <rdf:RDF xmlns:dc="http://purl.org/dc/elements/1.1/" xmlns:cc="http://creativecommons.org/ns#" xmlns:rdf="http://www.w3.org/1999/02/22-rdf-syntax-ns#">
   <cc:Work>
    <dc:type rdf:resource="http://purl.org/dc/dcmitype/StillImage"/>
    <dc:date>2023-04-12T19:08:53.190314</dc:date>
    <dc:format>image/svg+xml</dc:format>
    <dc:creator>
     <cc:Agent>
      <dc:title>Matplotlib v3.7.1, https://matplotlib.org/</dc:title>
     </cc:Agent>
    </dc:creator>
   </cc:Work>
  </rdf:RDF>
 </metadata>
 <defs>
  <style type="text/css">*{stroke-linejoin: round; stroke-linecap: butt}</style>
 </defs>
 <g id="figure_1">
  <g id="patch_1">
   <path d="M 0 351.99625 
L 420.188935 351.99625 
L 420.188935 0 
L 0 0 
z
" style="fill: #ffffff"/>
  </g>
  <g id="axes_1">
   <g id="patch_2">
    <path d="M 47.1875 314.44 
L 341.850735 314.44 
L 341.850735 7.2 
L 47.1875 7.2 
z
" style="fill: #ffffff"/>
   </g>
   <g id="PathCollection_1">
    <defs>
     <path id="meefb7c8eae" d="M 0 3 
C 0.795609 3 1.55874 2.683901 2.12132 2.12132 
C 2.683901 1.55874 3 0.795609 3 0 
C 3 -0.795609 2.683901 -1.55874 2.12132 -2.12132 
C 1.55874 -2.683901 0.795609 -3 0 -3 
C -0.795609 -3 -1.55874 -2.683901 -2.12132 -2.12132 
C -2.683901 -1.55874 -3 -0.795609 -3 0 
C -3 0.795609 -2.683901 1.55874 -2.12132 2.12132 
C -1.55874 2.683901 -0.795609 3 0 3 
z
" style="stroke: #1f77b4; stroke-opacity: 0.8"/>
    </defs>
    <g clip-path="url(#p83b16ffbf7)">
     <use xlink:href="#meefb7c8eae" x="60.581283" y="254.584764" style="fill: #1f77b4; fill-opacity: 0.8; stroke: #1f77b4; stroke-opacity: 0.8"/>
     <use xlink:href="#meefb7c8eae" x="87.756234" y="238.461327" style="fill: #1f77b4; fill-opacity: 0.8; stroke: #1f77b4; stroke-opacity: 0.8"/>
     <use xlink:href="#meefb7c8eae" x="114.931184" y="213.65604" style="fill: #1f77b4; fill-opacity: 0.8; stroke: #1f77b4; stroke-opacity: 0.8"/>
     <use xlink:href="#meefb7c8eae" x="142.086765" y="188.850753" style="fill: #1f77b4; fill-opacity: 0.8; stroke: #1f77b4; stroke-opacity: 0.8"/>
     <use xlink:href="#meefb7c8eae" x="169.261715" y="162.805201" style="fill: #1f77b4; fill-opacity: 0.8; stroke: #1f77b4; stroke-opacity: 0.8"/>
     <use xlink:href="#meefb7c8eae" x="196.436666" y="140.480442" style="fill: #1f77b4; fill-opacity: 0.8; stroke: #1f77b4; stroke-opacity: 0.8"/>
     <use xlink:href="#meefb7c8eae" x="223.592247" y="116.91542" style="fill: #1f77b4; fill-opacity: 0.8; stroke: #1f77b4; stroke-opacity: 0.8"/>
     <use xlink:href="#meefb7c8eae" x="250.767197" y="93.350397" style="fill: #1f77b4; fill-opacity: 0.8; stroke: #1f77b4; stroke-opacity: 0.8"/>
     <use xlink:href="#meefb7c8eae" x="277.922778" y="72.265902" style="fill: #1f77b4; fill-opacity: 0.8; stroke: #1f77b4; stroke-opacity: 0.8"/>
     <use xlink:href="#meefb7c8eae" x="305.097728" y="47.460615" style="fill: #1f77b4; fill-opacity: 0.8; stroke: #1f77b4; stroke-opacity: 0.8"/>
     <use xlink:href="#meefb7c8eae" x="142.086765" y="201.253396" style="fill: #1f77b4; fill-opacity: 0.8; stroke: #1f77b4; stroke-opacity: 0.8"/>
     <use xlink:href="#meefb7c8eae" x="142.086765" y="232.260005" style="fill: #1f77b4; fill-opacity: 0.8; stroke: #1f77b4; stroke-opacity: 0.8"/>
     <use xlink:href="#meefb7c8eae" x="169.261715" y="172.727316" style="fill: #1f77b4; fill-opacity: 0.8; stroke: #1f77b4; stroke-opacity: 0.8"/>
     <use xlink:href="#meefb7c8eae" x="196.436666" y="167.766259" style="fill: #1f77b4; fill-opacity: 0.8; stroke: #1f77b4; stroke-opacity: 0.8"/>
     <use xlink:href="#meefb7c8eae" x="223.592247" y="161.564937" style="fill: #1f77b4; fill-opacity: 0.8; stroke: #1f77b4; stroke-opacity: 0.8"/>
     <use xlink:href="#meefb7c8eae" x="180.805743" y="109.473833" style="fill: #1f77b4; fill-opacity: 0.8; stroke: #1f77b4; stroke-opacity: 0.8"/>
     <use xlink:href="#meefb7c8eae" x="207.980693" y="84.668546" style="fill: #1f77b4; fill-opacity: 0.8; stroke: #1f77b4; stroke-opacity: 0.8"/>
     <use xlink:href="#meefb7c8eae" x="262.311224" y="62.343788" style="fill: #1f77b4; fill-opacity: 0.8; stroke: #1f77b4; stroke-opacity: 0.8"/>
    </g>
   </g>
   <g id="PolyCollection_1">
    <path d="M 60.581283 251.001036 
L 60.581283 286.501524 
L 63.051146 284.090541 
L 65.52101 281.679558 
L 67.990873 279.268575 
L 70.460736 276.856917 
L 72.930599 274.444542 
L 75.400462 271.962477 
L 77.870325 269.426689 
L 80.340188 266.875764 
L 82.810051 264.150533 
L 85.279914 261.541169 
L 87.749777 259.10564 
L 90.21964 256.681162 
L 92.689503 254.100682 
L 95.159367 251.518023 
L 97.62923 249.067895 
L 100.099093 246.492495 
L 102.568956 243.842317 
L 105.038819 241.291061 
L 107.508682 238.763399 
L 109.978545 236.191784 
L 112.448408 233.615466 
L 114.918271 231.054424 
L 117.388134 228.478598 
L 119.857997 226.02458 
L 122.32786 223.572963 
L 124.797724 221.071891 
L 127.267587 218.490927 
L 129.73745 215.968266 
L 132.207313 213.493767 
L 134.677176 210.864389 
L 137.147039 208.31341 
L 139.616902 205.764386 
L 142.086765 203.465413 
L 144.556628 201.093289 
L 147.026491 198.62278 
L 149.496354 196.214914 
L 151.966217 193.613311 
L 154.436081 191.330993 
L 156.905944 188.999326 
L 159.375807 186.734114 
L 161.84567 184.358647 
L 164.315533 181.98057 
L 166.785396 179.601159 
L 169.255259 177.223007 
L 171.725122 174.775855 
L 174.194985 172.472254 
L 176.664848 170.418649 
L 179.134711 168.356453 
L 181.604574 166.223104 
L 184.074437 163.85026 
L 186.544301 161.65673 
L 189.014164 159.365331 
L 191.484027 157.269943 
L 193.95389 154.987601 
L 196.423753 152.71676 
L 198.893616 150.442806 
L 201.363479 148.399865 
L 203.833342 146.256778 
L 206.303205 144.095958 
L 208.773068 142.040436 
L 211.242931 139.863795 
L 213.712794 137.772821 
L 216.182658 135.636505 
L 218.652521 133.598576 
L 221.122384 131.523184 
L 223.592247 129.436946 
L 226.06211 127.133672 
L 228.531973 125.089506 
L 231.001836 123.05007 
L 233.471699 120.980398 
L 235.941562 118.841649 
L 238.411425 116.701753 
L 240.881288 114.660557 
L 243.351151 112.649741 
L 245.821015 110.629801 
L 248.290878 108.590063 
L 250.760741 106.507079 
L 253.230604 104.460989 
L 255.700467 102.459277 
L 258.17033 100.455868 
L 260.640193 98.425963 
L 263.110056 96.340018 
L 265.579919 94.297572 
L 268.049782 92.267038 
L 270.519645 90.236504 
L 272.989508 88.20597 
L 275.459371 86.186495 
L 277.929235 84.203785 
L 280.399098 82.186509 
L 282.868961 80.083834 
L 285.338824 78.0533 
L 287.808687 76.022766 
L 290.27855 73.992232 
L 292.748413 71.961698 
L 295.218276 69.929645 
L 297.688139 67.887158 
L 300.158002 65.84467 
L 302.627865 63.842069 
L 305.097728 61.814126 
L 305.097728 21.165455 
L 305.097728 21.165455 
L 302.627865 23.707379 
L 300.158002 26.249304 
L 297.688139 28.792839 
L 295.218276 31.326703 
L 292.748413 33.884113 
L 290.27855 36.57757 
L 287.808687 39.130872 
L 285.338824 41.68861 
L 282.868961 44.415936 
L 280.399098 47.143996 
L 277.929235 49.752076 
L 275.459371 52.098817 
L 272.989508 54.671665 
L 270.519645 57.234552 
L 268.049782 59.903874 
L 265.579919 62.519729 
L 263.110056 64.962276 
L 260.640193 67.509544 
L 258.17033 70.245609 
L 255.700467 72.841307 
L 253.230604 75.22941 
L 250.760741 77.655404 
L 248.290878 80.06895 
L 245.821015 82.444154 
L 243.351151 84.819359 
L 240.881288 87.27901 
L 238.411425 89.818347 
L 235.941562 92.057534 
L 233.471699 94.513617 
L 231.001836 97.060612 
L 228.531973 99.674823 
L 226.06211 102.142863 
L 223.592247 104.45919 
L 221.122384 106.786067 
L 218.652521 109.099849 
L 216.182658 111.391933 
L 213.712794 113.905028 
L 211.242931 116.405282 
L 208.773068 118.926674 
L 206.303205 121.19049 
L 203.833342 123.689484 
L 201.363479 126.341088 
L 198.893616 128.427375 
L 196.423753 130.738913 
L 193.95389 133.28632 
L 191.484027 135.360667 
L 189.014164 137.692494 
L 186.544301 139.920222 
L 184.074437 142.263629 
L 181.604574 144.618083 
L 179.134711 146.979113 
L 176.664848 149.328552 
L 174.194985 151.580807 
L 171.725122 153.739729 
L 169.255259 156.152996 
L 166.785396 158.511403 
L 164.315533 160.817933 
L 161.84567 163.089457 
L 159.375807 165.521202 
L 156.905944 167.940794 
L 154.436081 170.303949 
L 151.966217 172.472793 
L 149.496354 174.546655 
L 147.026491 176.681737 
L 144.556628 178.850549 
L 142.086765 181.01936 
L 139.616902 183.19233 
L 137.147039 185.375853 
L 134.677176 187.604264 
L 132.207313 189.716898 
L 129.73745 191.886747 
L 127.267587 194.056596 
L 124.797724 196.226445 
L 122.32786 198.396055 
L 119.857997 200.484152 
L 117.388134 202.572248 
L 114.918271 204.660345 
L 112.448408 206.753179 
L 109.978545 208.865905 
L 107.508682 211.014806 
L 105.038819 213.116183 
L 102.568956 215.217561 
L 100.099093 217.318938 
L 97.62923 219.420316 
L 95.159367 221.521693 
L 92.689503 223.623071 
L 90.21964 225.724449 
L 87.749777 227.825826 
L 85.279914 229.927204 
L 82.810051 232.028581 
L 80.340188 234.103451 
L 77.870325 236.098876 
L 75.400462 238.282531 
L 72.930599 240.436844 
L 70.460736 242.53962 
L 67.990873 244.642395 
L 65.52101 246.74517 
L 63.051146 248.857915 
L 60.581283 251.001036 
z
" clip-path="url(#p83b16ffbf7)" style="fill: #1f77b4; fill-opacity: 0.15"/>
   </g>
   <g id="PathCollection_2">
    <defs>
     <path id="mf09b87ef4c" d="M 0 3 
C 0.795609 3 1.55874 2.683901 2.12132 2.12132 
C 2.683901 1.55874 3 0.795609 3 0 
C 3 -0.795609 2.683901 -1.55874 2.12132 -2.12132 
C 1.55874 -2.683901 0.795609 -3 0 -3 
C -0.795609 -3 -1.55874 -2.683901 -2.12132 -2.12132 
C -2.683901 -1.55874 -3 -0.795609 -3 0 
C -3 0.795609 -2.683901 1.55874 -2.12132 2.12132 
C -1.55874 2.683901 -0.795609 3 0 3 
z
" style="stroke: #ff7f0e; stroke-opacity: 0.8"/>
    </defs>
    <g clip-path="url(#p83b16ffbf7)">
     <use xlink:href="#mf09b87ef4c" x="138.271038" y="290.552431" style="fill: #ff7f0e; fill-opacity: 0.8; stroke: #ff7f0e; stroke-opacity: 0.8"/>
     <use xlink:href="#mf09b87ef4c" x="165.445988" y="249.623707" style="fill: #ff7f0e; fill-opacity: 0.8; stroke: #ff7f0e; stroke-opacity: 0.8"/>
     <use xlink:href="#mf09b87ef4c" x="192.620939" y="213.65604" style="fill: #ff7f0e; fill-opacity: 0.8; stroke: #ff7f0e; stroke-opacity: 0.8"/>
     <use xlink:href="#mf09b87ef4c" x="219.77652" y="178.928638" style="fill: #ff7f0e; fill-opacity: 0.8; stroke: #ff7f0e; stroke-opacity: 0.8"/>
     <use xlink:href="#mf09b87ef4c" x="246.95147" y="147.922029" style="fill: #ff7f0e; fill-opacity: 0.8; stroke: #ff7f0e; stroke-opacity: 0.8"/>
     <use xlink:href="#mf09b87ef4c" x="274.12642" y="119.395948" style="fill: #ff7f0e; fill-opacity: 0.8; stroke: #ff7f0e; stroke-opacity: 0.8"/>
     <use xlink:href="#mf09b87ef4c" x="301.282001" y="92.110132" style="fill: #ff7f0e; fill-opacity: 0.8; stroke: #ff7f0e; stroke-opacity: 0.8"/>
     <use xlink:href="#mf09b87ef4c" x="328.456952" y="67.304845" style="fill: #ff7f0e; fill-opacity: 0.8; stroke: #ff7f0e; stroke-opacity: 0.8"/>
     <use xlink:href="#mf09b87ef4c" x="165.445988" y="257.065293" style="fill: #ff7f0e; fill-opacity: 0.8; stroke: #ff7f0e; stroke-opacity: 0.8"/>
     <use xlink:href="#mf09b87ef4c" x="219.77652" y="190.091017" style="fill: #ff7f0e; fill-opacity: 0.8; stroke: #ff7f0e; stroke-opacity: 0.8"/>
     <use xlink:href="#mf09b87ef4c" x="138.271038" y="300.474545" style="fill: #ff7f0e; fill-opacity: 0.8; stroke: #ff7f0e; stroke-opacity: 0.8"/>
     <use xlink:href="#mf09b87ef4c" x="192.620939" y="235.980799" style="fill: #ff7f0e; fill-opacity: 0.8; stroke: #ff7f0e; stroke-opacity: 0.8"/>
    </g>
   </g>
   <g id="PolyCollection_2">
    <path d="M 138.271038 281.399438 
L 138.271038 296.930085 
L 140.192108 294.484927 
L 142.113178 292.001365 
L 144.034247 289.42228 
L 145.955317 286.843195 
L 147.876387 284.463328 
L 149.797457 282.011528 
L 151.718527 279.496914 
L 153.639597 276.955712 
L 155.560666 274.549262 
L 157.481736 272.156896 
L 159.402806 269.712016 
L 161.323876 267.26612 
L 163.244946 264.762999 
L 165.166016 262.297508 
L 167.087085 259.846306 
L 169.008155 257.485912 
L 170.929225 255.020746 
L 172.850295 252.594761 
L 174.771365 250.151996 
L 176.692435 247.703173 
L 178.613504 245.222524 
L 180.534574 242.812097 
L 182.455644 240.410033 
L 184.376714 237.999751 
L 186.297784 235.649886 
L 188.218854 233.257096 
L 190.139923 230.82512 
L 192.060993 228.453663 
L 193.982063 226.119103 
L 195.903133 223.784543 
L 197.824203 221.449805 
L 199.745273 219.114385 
L 201.666342 216.777576 
L 203.587412 214.412395 
L 205.508482 212.097268 
L 207.429552 209.708602 
L 209.350622 207.279103 
L 211.271692 204.892343 
L 213.192761 202.486725 
L 215.113831 200.060077 
L 217.034901 197.612328 
L 218.955971 195.251027 
L 220.877041 192.916093 
L 222.798111 190.580963 
L 224.719181 188.247287 
L 226.64025 185.913807 
L 228.56132 183.562717 
L 230.48239 181.248199 
L 232.40346 178.916318 
L 234.32453 176.592724 
L 236.2456 174.300014 
L 238.166669 172.005709 
L 240.087739 169.709873 
L 242.008809 167.382012 
L 243.929879 165.040908 
L 245.850949 162.63855 
L 247.772019 160.253276 
L 249.693088 157.920093 
L 251.614158 155.586544 
L 253.535228 153.269491 
L 255.456298 150.974651 
L 257.377368 148.667613 
L 259.298438 146.396068 
L 261.219507 144.10567 
L 263.140577 141.820887 
L 265.061647 139.451583 
L 266.982717 137.146575 
L 268.903787 134.893794 
L 270.824857 132.608701 
L 272.745926 130.34451 
L 274.666996 128.016352 
L 276.588066 125.648912 
L 278.509136 123.300347 
L 280.430206 121.001624 
L 282.351276 118.701345 
L 284.272345 116.424623 
L 286.193415 114.10855 
L 288.114485 111.811476 
L 290.035555 109.521934 
L 291.956625 107.307557 
L 293.877695 104.973042 
L 295.798764 102.659309 
L 297.719834 100.403828 
L 299.640904 98.147488 
L 301.561974 95.886377 
L 303.483044 93.636112 
L 305.404114 91.378528 
L 307.325183 89.121693 
L 309.246253 86.869915 
L 311.167323 84.615227 
L 313.088393 82.359976 
L 315.009463 80.118819 
L 316.930533 77.851164 
L 318.851602 75.594606 
L 320.772672 73.339515 
L 322.693742 71.129153 
L 324.614812 68.838467 
L 326.535882 66.63119 
L 328.456952 64.324615 
L 328.456952 41.03409 
L 328.456952 41.03409 
L 326.535882 43.565035 
L 324.614812 46.095979 
L 322.693742 48.626924 
L 320.772672 51.157868 
L 318.851602 53.702129 
L 316.930533 56.24671 
L 315.009463 58.757116 
L 313.088393 61.352421 
L 311.167323 63.947726 
L 309.246253 66.543031 
L 307.325183 69.138336 
L 305.404114 71.733641 
L 303.483044 74.329423 
L 301.561974 76.922575 
L 299.640904 79.50327 
L 297.719834 82.083965 
L 295.798764 84.664659 
L 293.877695 87.245354 
L 291.956625 89.825937 
L 290.035555 92.404658 
L 288.114485 94.926091 
L 286.193415 97.435582 
L 284.272345 99.943719 
L 282.351276 102.451626 
L 280.430206 104.985588 
L 278.509136 107.570006 
L 276.588066 110.155595 
L 274.666996 112.7416 
L 272.745926 115.327605 
L 270.824857 117.913609 
L 268.903787 120.499614 
L 266.982717 123.085619 
L 265.061647 125.671623 
L 263.140577 128.257628 
L 261.219507 130.843632 
L 259.298438 133.255545 
L 257.377368 135.735952 
L 255.456298 138.303094 
L 253.535228 140.871635 
L 251.614158 143.401898 
L 249.693088 145.888816 
L 247.772019 148.375735 
L 245.850949 150.978791 
L 243.929879 153.446673 
L 242.008809 155.912811 
L 240.087739 158.402481 
L 238.166669 160.883526 
L 236.2456 163.333989 
L 234.32453 165.85408 
L 232.40346 168.285647 
L 230.48239 170.726272 
L 228.56132 173.248942 
L 226.64025 175.774347 
L 224.719181 178.220751 
L 222.798111 180.698536 
L 220.877041 183.074082 
L 218.955971 185.537678 
L 217.034901 187.889774 
L 215.113831 190.284166 
L 213.192761 192.734596 
L 211.271692 195.122972 
L 209.350622 197.559695 
L 207.429552 200.001204 
L 205.508482 202.282321 
L 203.587412 204.628029 
L 201.666342 206.944293 
L 199.745273 209.274172 
L 197.824203 211.641551 
L 195.903133 213.934824 
L 193.982063 216.266533 
L 192.060993 218.537676 
L 190.139923 220.79503 
L 188.218854 222.98572 
L 186.297784 225.257931 
L 184.376714 227.480381 
L 182.455644 229.728637 
L 180.534574 232.021221 
L 178.613504 234.301139 
L 176.692435 236.567261 
L 174.771365 238.775043 
L 172.850295 241.094465 
L 170.929225 243.335281 
L 169.008155 245.603536 
L 167.087085 247.867659 
L 165.166016 250.115438 
L 163.244946 252.388791 
L 161.323876 254.662145 
L 159.402806 256.935498 
L 157.481736 259.207792 
L 155.560666 261.426957 
L 153.639597 263.646121 
L 151.718527 265.865286 
L 149.797457 268.066851 
L 147.876387 270.255404 
L 145.955317 272.522779 
L 144.034247 274.741944 
L 142.113178 276.961109 
L 140.192108 279.180273 
L 138.271038 281.399438 
z
" clip-path="url(#p83b16ffbf7)" style="fill: #ff7f0e; fill-opacity: 0.15"/>
   </g>
   <g id="matplotlib.axis_1">
    <g id="xtick_1">
     <g id="line2d_1">
      <defs>
       <path id="me43c28dadc" d="M 0 0 
L 0 3.5 
" style="stroke: #000000; stroke-width: 0.8"/>
      </defs>
      <g>
       <use xlink:href="#me43c28dadc" x="75.999145" y="314.44" style="stroke: #000000; stroke-width: 0.8"/>
      </g>
     </g>
     <g id="text_1">
      <!-- 40 -->
      <g transform="translate(69.636645 329.038437) scale(0.1 -0.1)">
       <defs>
        <path id="DejaVuSans-34" d="M 2419 4116 
L 825 1625 
L 2419 1625 
L 2419 4116 
z
M 2253 4666 
L 3047 4666 
L 3047 1625 
L 3713 1625 
L 3713 1100 
L 3047 1100 
L 3047 0 
L 2419 0 
L 2419 1100 
L 313 1100 
L 313 1709 
L 2253 4666 
z
" transform="scale(0.015625)"/>
        <path id="DejaVuSans-30" d="M 2034 4250 
Q 1547 4250 1301 3770 
Q 1056 3291 1056 2328 
Q 1056 1369 1301 889 
Q 1547 409 2034 409 
Q 2525 409 2770 889 
Q 3016 1369 3016 2328 
Q 3016 3291 2770 3770 
Q 2525 4250 2034 4250 
z
M 2034 4750 
Q 2819 4750 3233 4129 
Q 3647 3509 3647 2328 
Q 3647 1150 3233 529 
Q 2819 -91 2034 -91 
Q 1250 -91 836 529 
Q 422 1150 422 2328 
Q 422 3509 836 4129 
Q 1250 4750 2034 4750 
z
" transform="scale(0.015625)"/>
       </defs>
       <use xlink:href="#DejaVuSans-34"/>
       <use xlink:href="#DejaVuSans-30" x="63.623047"/>
      </g>
     </g>
    </g>
    <g id="xtick_2">
     <g id="line2d_2">
      <g>
       <use xlink:href="#me43c28dadc" x="114.737492" y="314.44" style="stroke: #000000; stroke-width: 0.8"/>
      </g>
     </g>
     <g id="text_2">
      <!-- 60 -->
      <g transform="translate(108.374992 329.038437) scale(0.1 -0.1)">
       <defs>
        <path id="DejaVuSans-36" d="M 2113 2584 
Q 1688 2584 1439 2293 
Q 1191 2003 1191 1497 
Q 1191 994 1439 701 
Q 1688 409 2113 409 
Q 2538 409 2786 701 
Q 3034 994 3034 1497 
Q 3034 2003 2786 2293 
Q 2538 2584 2113 2584 
z
M 3366 4563 
L 3366 3988 
Q 3128 4100 2886 4159 
Q 2644 4219 2406 4219 
Q 1781 4219 1451 3797 
Q 1122 3375 1075 2522 
Q 1259 2794 1537 2939 
Q 1816 3084 2150 3084 
Q 2853 3084 3261 2657 
Q 3669 2231 3669 1497 
Q 3669 778 3244 343 
Q 2819 -91 2113 -91 
Q 1303 -91 875 529 
Q 447 1150 447 2328 
Q 447 3434 972 4092 
Q 1497 4750 2381 4750 
Q 2619 4750 2861 4703 
Q 3103 4656 3366 4563 
z
" transform="scale(0.015625)"/>
       </defs>
       <use xlink:href="#DejaVuSans-36"/>
       <use xlink:href="#DejaVuSans-30" x="63.623047"/>
      </g>
     </g>
    </g>
    <g id="xtick_3">
     <g id="line2d_3">
      <g>
       <use xlink:href="#me43c28dadc" x="153.475839" y="314.44" style="stroke: #000000; stroke-width: 0.8"/>
      </g>
     </g>
     <g id="text_3">
      <!-- 80 -->
      <g transform="translate(147.113339 329.038437) scale(0.1 -0.1)">
       <defs>
        <path id="DejaVuSans-38" d="M 2034 2216 
Q 1584 2216 1326 1975 
Q 1069 1734 1069 1313 
Q 1069 891 1326 650 
Q 1584 409 2034 409 
Q 2484 409 2743 651 
Q 3003 894 3003 1313 
Q 3003 1734 2745 1975 
Q 2488 2216 2034 2216 
z
M 1403 2484 
Q 997 2584 770 2862 
Q 544 3141 544 3541 
Q 544 4100 942 4425 
Q 1341 4750 2034 4750 
Q 2731 4750 3128 4425 
Q 3525 4100 3525 3541 
Q 3525 3141 3298 2862 
Q 3072 2584 2669 2484 
Q 3125 2378 3379 2068 
Q 3634 1759 3634 1313 
Q 3634 634 3220 271 
Q 2806 -91 2034 -91 
Q 1263 -91 848 271 
Q 434 634 434 1313 
Q 434 1759 690 2068 
Q 947 2378 1403 2484 
z
M 1172 3481 
Q 1172 3119 1398 2916 
Q 1625 2713 2034 2713 
Q 2441 2713 2670 2916 
Q 2900 3119 2900 3481 
Q 2900 3844 2670 4047 
Q 2441 4250 2034 4250 
Q 1625 4250 1398 4047 
Q 1172 3844 1172 3481 
z
" transform="scale(0.015625)"/>
       </defs>
       <use xlink:href="#DejaVuSans-38"/>
       <use xlink:href="#DejaVuSans-30" x="63.623047"/>
      </g>
     </g>
    </g>
    <g id="xtick_4">
     <g id="line2d_4">
      <g>
       <use xlink:href="#me43c28dadc" x="192.214186" y="314.44" style="stroke: #000000; stroke-width: 0.8"/>
      </g>
     </g>
     <g id="text_4">
      <!-- 100 -->
      <g transform="translate(182.670436 329.038437) scale(0.1 -0.1)">
       <defs>
        <path id="DejaVuSans-31" d="M 794 531 
L 1825 531 
L 1825 4091 
L 703 3866 
L 703 4441 
L 1819 4666 
L 2450 4666 
L 2450 531 
L 3481 531 
L 3481 0 
L 794 0 
L 794 531 
z
" transform="scale(0.015625)"/>
       </defs>
       <use xlink:href="#DejaVuSans-31"/>
       <use xlink:href="#DejaVuSans-30" x="63.623047"/>
       <use xlink:href="#DejaVuSans-30" x="127.246094"/>
      </g>
     </g>
    </g>
    <g id="xtick_5">
     <g id="line2d_5">
      <g>
       <use xlink:href="#me43c28dadc" x="230.952533" y="314.44" style="stroke: #000000; stroke-width: 0.8"/>
      </g>
     </g>
     <g id="text_5">
      <!-- 120 -->
      <g transform="translate(221.408783 329.038437) scale(0.1 -0.1)">
       <defs>
        <path id="DejaVuSans-32" d="M 1228 531 
L 3431 531 
L 3431 0 
L 469 0 
L 469 531 
Q 828 903 1448 1529 
Q 2069 2156 2228 2338 
Q 2531 2678 2651 2914 
Q 2772 3150 2772 3378 
Q 2772 3750 2511 3984 
Q 2250 4219 1831 4219 
Q 1534 4219 1204 4116 
Q 875 4013 500 3803 
L 500 4441 
Q 881 4594 1212 4672 
Q 1544 4750 1819 4750 
Q 2544 4750 2975 4387 
Q 3406 4025 3406 3419 
Q 3406 3131 3298 2873 
Q 3191 2616 2906 2266 
Q 2828 2175 2409 1742 
Q 1991 1309 1228 531 
z
" transform="scale(0.015625)"/>
       </defs>
       <use xlink:href="#DejaVuSans-31"/>
       <use xlink:href="#DejaVuSans-32" x="63.623047"/>
       <use xlink:href="#DejaVuSans-30" x="127.246094"/>
      </g>
     </g>
    </g>
    <g id="xtick_6">
     <g id="line2d_6">
      <g>
       <use xlink:href="#me43c28dadc" x="269.690879" y="314.44" style="stroke: #000000; stroke-width: 0.8"/>
      </g>
     </g>
     <g id="text_6">
      <!-- 140 -->
      <g transform="translate(260.147129 329.038437) scale(0.1 -0.1)">
       <use xlink:href="#DejaVuSans-31"/>
       <use xlink:href="#DejaVuSans-34" x="63.623047"/>
       <use xlink:href="#DejaVuSans-30" x="127.246094"/>
      </g>
     </g>
    </g>
    <g id="xtick_7">
     <g id="line2d_7">
      <g>
       <use xlink:href="#me43c28dadc" x="308.429226" y="314.44" style="stroke: #000000; stroke-width: 0.8"/>
      </g>
     </g>
     <g id="text_7">
      <!-- 160 -->
      <g transform="translate(298.885476 329.038437) scale(0.1 -0.1)">
       <use xlink:href="#DejaVuSans-31"/>
       <use xlink:href="#DejaVuSans-36" x="63.623047"/>
       <use xlink:href="#DejaVuSans-30" x="127.246094"/>
      </g>
     </g>
    </g>
    <g id="text_8">
     <!-- MW, g/mol -->
     <g transform="translate(167.905836 342.716562) scale(0.1 -0.1)">
      <defs>
       <path id="DejaVuSans-4d" d="M 628 4666 
L 1569 4666 
L 2759 1491 
L 3956 4666 
L 4897 4666 
L 4897 0 
L 4281 0 
L 4281 4097 
L 3078 897 
L 2444 897 
L 1241 4097 
L 1241 0 
L 628 0 
L 628 4666 
z
" transform="scale(0.015625)"/>
       <path id="DejaVuSans-57" d="M 213 4666 
L 850 4666 
L 1831 722 
L 2809 4666 
L 3519 4666 
L 4500 722 
L 5478 4666 
L 6119 4666 
L 4947 0 
L 4153 0 
L 3169 4050 
L 2175 0 
L 1381 0 
L 213 4666 
z
" transform="scale(0.015625)"/>
       <path id="DejaVuSans-2c" d="M 750 794 
L 1409 794 
L 1409 256 
L 897 -744 
L 494 -744 
L 750 256 
L 750 794 
z
" transform="scale(0.015625)"/>
       <path id="DejaVuSans-20" transform="scale(0.015625)"/>
       <path id="DejaVuSans-67" d="M 2906 1791 
Q 2906 2416 2648 2759 
Q 2391 3103 1925 3103 
Q 1463 3103 1205 2759 
Q 947 2416 947 1791 
Q 947 1169 1205 825 
Q 1463 481 1925 481 
Q 2391 481 2648 825 
Q 2906 1169 2906 1791 
z
M 3481 434 
Q 3481 -459 3084 -895 
Q 2688 -1331 1869 -1331 
Q 1566 -1331 1297 -1286 
Q 1028 -1241 775 -1147 
L 775 -588 
Q 1028 -725 1275 -790 
Q 1522 -856 1778 -856 
Q 2344 -856 2625 -561 
Q 2906 -266 2906 331 
L 2906 616 
Q 2728 306 2450 153 
Q 2172 0 1784 0 
Q 1141 0 747 490 
Q 353 981 353 1791 
Q 353 2603 747 3093 
Q 1141 3584 1784 3584 
Q 2172 3584 2450 3431 
Q 2728 3278 2906 2969 
L 2906 3500 
L 3481 3500 
L 3481 434 
z
" transform="scale(0.015625)"/>
       <path id="DejaVuSans-2f" d="M 1625 4666 
L 2156 4666 
L 531 -594 
L 0 -594 
L 1625 4666 
z
" transform="scale(0.015625)"/>
       <path id="DejaVuSans-6d" d="M 3328 2828 
Q 3544 3216 3844 3400 
Q 4144 3584 4550 3584 
Q 5097 3584 5394 3201 
Q 5691 2819 5691 2113 
L 5691 0 
L 5113 0 
L 5113 2094 
Q 5113 2597 4934 2840 
Q 4756 3084 4391 3084 
Q 3944 3084 3684 2787 
Q 3425 2491 3425 1978 
L 3425 0 
L 2847 0 
L 2847 2094 
Q 2847 2600 2669 2842 
Q 2491 3084 2119 3084 
Q 1678 3084 1418 2786 
Q 1159 2488 1159 1978 
L 1159 0 
L 581 0 
L 581 3500 
L 1159 3500 
L 1159 2956 
Q 1356 3278 1631 3431 
Q 1906 3584 2284 3584 
Q 2666 3584 2933 3390 
Q 3200 3197 3328 2828 
z
" transform="scale(0.015625)"/>
       <path id="DejaVuSans-6f" d="M 1959 3097 
Q 1497 3097 1228 2736 
Q 959 2375 959 1747 
Q 959 1119 1226 758 
Q 1494 397 1959 397 
Q 2419 397 2687 759 
Q 2956 1122 2956 1747 
Q 2956 2369 2687 2733 
Q 2419 3097 1959 3097 
z
M 1959 3584 
Q 2709 3584 3137 3096 
Q 3566 2609 3566 1747 
Q 3566 888 3137 398 
Q 2709 -91 1959 -91 
Q 1206 -91 779 398 
Q 353 888 353 1747 
Q 353 2609 779 3096 
Q 1206 3584 1959 3584 
z
" transform="scale(0.015625)"/>
       <path id="DejaVuSans-6c" d="M 603 4863 
L 1178 4863 
L 1178 0 
L 603 0 
L 603 4863 
z
" transform="scale(0.015625)"/>
      </defs>
      <use xlink:href="#DejaVuSans-4d"/>
      <use xlink:href="#DejaVuSans-57" x="86.279297"/>
      <use xlink:href="#DejaVuSans-2c" x="185.15625"/>
      <use xlink:href="#DejaVuSans-20" x="216.943359"/>
      <use xlink:href="#DejaVuSans-67" x="248.730469"/>
      <use xlink:href="#DejaVuSans-2f" x="312.207031"/>
      <use xlink:href="#DejaVuSans-6d" x="345.898438"/>
      <use xlink:href="#DejaVuSans-6f" x="443.310547"/>
      <use xlink:href="#DejaVuSans-6c" x="504.492188"/>
     </g>
    </g>
   </g>
   <g id="matplotlib.axis_2">
    <g id="ytick_1">
     <g id="line2d_8">
      <defs>
       <path id="mca091b9bd3" d="M 0 0 
L -3.5 0 
" style="stroke: #000000; stroke-width: 0.8"/>
      </defs>
      <g>
       <use xlink:href="#mca091b9bd3" x="47.1875" y="273.188729" style="stroke: #000000; stroke-width: 0.8"/>
      </g>
     </g>
     <g id="text_9">
      <!-- 50 -->
      <g transform="translate(27.4625 276.987948) scale(0.1 -0.1)">
       <defs>
        <path id="DejaVuSans-35" d="M 691 4666 
L 3169 4666 
L 3169 4134 
L 1269 4134 
L 1269 2991 
Q 1406 3038 1543 3061 
Q 1681 3084 1819 3084 
Q 2600 3084 3056 2656 
Q 3513 2228 3513 1497 
Q 3513 744 3044 326 
Q 2575 -91 1722 -91 
Q 1428 -91 1123 -41 
Q 819 9 494 109 
L 494 744 
Q 775 591 1075 516 
Q 1375 441 1709 441 
Q 2250 441 2565 725 
Q 2881 1009 2881 1497 
Q 2881 1984 2565 2268 
Q 2250 2553 1709 2553 
Q 1456 2553 1204 2497 
Q 953 2441 691 2322 
L 691 4666 
z
" transform="scale(0.015625)"/>
       </defs>
       <use xlink:href="#DejaVuSans-35"/>
       <use xlink:href="#DejaVuSans-30" x="63.623047"/>
      </g>
     </g>
    </g>
    <g id="ytick_2">
     <g id="line2d_9">
      <g>
       <use xlink:href="#mca091b9bd3" x="47.1875" y="211.175511" style="stroke: #000000; stroke-width: 0.8"/>
      </g>
     </g>
     <g id="text_10">
      <!-- 100 -->
      <g transform="translate(21.1 214.97473) scale(0.1 -0.1)">
       <use xlink:href="#DejaVuSans-31"/>
       <use xlink:href="#DejaVuSans-30" x="63.623047"/>
       <use xlink:href="#DejaVuSans-30" x="127.246094"/>
      </g>
     </g>
    </g>
    <g id="ytick_3">
     <g id="line2d_10">
      <g>
       <use xlink:href="#mca091b9bd3" x="47.1875" y="149.162293" style="stroke: #000000; stroke-width: 0.8"/>
      </g>
     </g>
     <g id="text_11">
      <!-- 150 -->
      <g transform="translate(21.1 152.961512) scale(0.1 -0.1)">
       <use xlink:href="#DejaVuSans-31"/>
       <use xlink:href="#DejaVuSans-35" x="63.623047"/>
       <use xlink:href="#DejaVuSans-30" x="127.246094"/>
      </g>
     </g>
    </g>
    <g id="ytick_4">
     <g id="line2d_11">
      <g>
       <use xlink:href="#mca091b9bd3" x="47.1875" y="87.149075" style="stroke: #000000; stroke-width: 0.8"/>
      </g>
     </g>
     <g id="text_12">
      <!-- 200 -->
      <g transform="translate(21.1 90.948294) scale(0.1 -0.1)">
       <use xlink:href="#DejaVuSans-32"/>
       <use xlink:href="#DejaVuSans-30" x="63.623047"/>
       <use xlink:href="#DejaVuSans-30" x="127.246094"/>
      </g>
     </g>
    </g>
    <g id="ytick_5">
     <g id="line2d_12">
      <g>
       <use xlink:href="#mca091b9bd3" x="47.1875" y="25.135857" style="stroke: #000000; stroke-width: 0.8"/>
      </g>
     </g>
     <g id="text_13">
      <!-- 250 -->
      <g transform="translate(21.1 28.935075) scale(0.1 -0.1)">
       <use xlink:href="#DejaVuSans-32"/>
       <use xlink:href="#DejaVuSans-35" x="63.623047"/>
       <use xlink:href="#DejaVuSans-30" x="127.246094"/>
      </g>
     </g>
    </g>
    <g id="text_14">
     <!-- bp, $^o$C -->
     <g transform="translate(15 176.17) rotate(-90) scale(0.1 -0.1)">
      <defs>
       <path id="DejaVuSans-62" d="M 3116 1747 
Q 3116 2381 2855 2742 
Q 2594 3103 2138 3103 
Q 1681 3103 1420 2742 
Q 1159 2381 1159 1747 
Q 1159 1113 1420 752 
Q 1681 391 2138 391 
Q 2594 391 2855 752 
Q 3116 1113 3116 1747 
z
M 1159 2969 
Q 1341 3281 1617 3432 
Q 1894 3584 2278 3584 
Q 2916 3584 3314 3078 
Q 3713 2572 3713 1747 
Q 3713 922 3314 415 
Q 2916 -91 2278 -91 
Q 1894 -91 1617 61 
Q 1341 213 1159 525 
L 1159 0 
L 581 0 
L 581 4863 
L 1159 4863 
L 1159 2969 
z
" transform="scale(0.015625)"/>
       <path id="DejaVuSans-70" d="M 1159 525 
L 1159 -1331 
L 581 -1331 
L 581 3500 
L 1159 3500 
L 1159 2969 
Q 1341 3281 1617 3432 
Q 1894 3584 2278 3584 
Q 2916 3584 3314 3078 
Q 3713 2572 3713 1747 
Q 3713 922 3314 415 
Q 2916 -91 2278 -91 
Q 1894 -91 1617 61 
Q 1341 213 1159 525 
z
M 3116 1747 
Q 3116 2381 2855 2742 
Q 2594 3103 2138 3103 
Q 1681 3103 1420 2742 
Q 1159 2381 1159 1747 
Q 1159 1113 1420 752 
Q 1681 391 2138 391 
Q 2594 391 2855 752 
Q 3116 1113 3116 1747 
z
" transform="scale(0.015625)"/>
       <path id="DejaVuSans-Oblique-6f" d="M 1625 -91 
Q 1009 -91 651 289 
Q 294 669 294 1325 
Q 294 1706 417 2101 
Q 541 2497 738 2766 
Q 1047 3184 1428 3384 
Q 1809 3584 2291 3584 
Q 2888 3584 3255 3212 
Q 3622 2841 3622 2241 
Q 3622 1825 3500 1412 
Q 3378 1000 3181 728 
Q 2875 309 2494 109 
Q 2113 -91 1625 -91 
z
M 891 1344 
Q 891 869 1089 633 
Q 1288 397 1691 397 
Q 2269 397 2648 901 
Q 3028 1406 3028 2181 
Q 3028 2634 2825 2865 
Q 2622 3097 2228 3097 
Q 1903 3097 1650 2945 
Q 1397 2794 1197 2484 
Q 1050 2253 970 1956 
Q 891 1659 891 1344 
z
" transform="scale(0.015625)"/>
       <path id="DejaVuSans-43" d="M 4122 4306 
L 4122 3641 
Q 3803 3938 3442 4084 
Q 3081 4231 2675 4231 
Q 1875 4231 1450 3742 
Q 1025 3253 1025 2328 
Q 1025 1406 1450 917 
Q 1875 428 2675 428 
Q 3081 428 3442 575 
Q 3803 722 4122 1019 
L 4122 359 
Q 3791 134 3420 21 
Q 3050 -91 2638 -91 
Q 1578 -91 968 557 
Q 359 1206 359 2328 
Q 359 3453 968 4101 
Q 1578 4750 2638 4750 
Q 3056 4750 3426 4639 
Q 3797 4528 4122 4306 
z
" transform="scale(0.015625)"/>
      </defs>
      <use xlink:href="#DejaVuSans-62" transform="translate(0 0.51875)"/>
      <use xlink:href="#DejaVuSans-70" transform="translate(63.476562 0.51875)"/>
      <use xlink:href="#DejaVuSans-2c" transform="translate(126.953125 0.51875)"/>
      <use xlink:href="#DejaVuSans-20" transform="translate(158.740234 0.51875)"/>
      <use xlink:href="#DejaVuSans-Oblique-6f" transform="translate(191.484375 38.8) scale(0.7)"/>
      <use xlink:href="#DejaVuSans-43" transform="translate(237.045898 0.51875)"/>
     </g>
    </g>
   </g>
   <g id="line2d_13">
    <path d="M 60.581283 265.115157 
L 63.051146 262.87601 
L 65.52101 260.636863 
L 67.990873 258.397715 
L 70.460736 256.158568 
L 72.930599 253.919421 
L 75.400462 251.680274 
L 77.870325 249.441127 
L 80.340188 247.201979 
L 82.810051 244.962832 
L 85.279914 242.723685 
L 87.749777 240.484538 
L 90.21964 238.245391 
L 92.689503 236.006243 
L 95.159367 233.767096 
L 97.62923 231.527949 
L 100.099093 229.288802 
L 102.568956 227.049655 
L 105.038819 224.810507 
L 107.508682 222.57136 
L 109.978545 220.332213 
L 112.448408 218.093066 
L 114.918271 215.853919 
L 117.388134 213.614771 
L 119.857997 211.375624 
L 122.32786 209.136477 
L 124.797724 206.89733 
L 127.267587 204.658183 
L 129.73745 202.419035 
L 132.207313 200.179888 
L 134.677176 197.940741 
L 137.147039 195.701594 
L 139.616902 193.462447 
L 142.086765 191.223299 
L 144.556628 188.984152 
L 147.026491 186.745005 
L 149.496354 184.505858 
L 151.966217 182.26671 
L 154.436081 180.027563 
L 156.905944 177.788416 
L 159.375807 175.549269 
L 161.84567 173.310122 
L 164.315533 171.070974 
L 166.785396 168.831827 
L 169.255259 166.59268 
L 171.725122 164.353533 
L 174.194985 162.114386 
L 176.664848 159.875238 
L 179.134711 157.636091 
L 181.604574 155.396944 
L 184.074437 153.157797 
L 186.544301 150.91865 
L 189.014164 148.679502 
L 191.484027 146.440355 
L 193.95389 144.201208 
L 196.423753 141.962061 
L 198.893616 139.722914 
L 201.363479 137.483766 
L 203.833342 135.244619 
L 206.303205 133.005472 
L 208.773068 130.766325 
L 211.242931 128.527178 
L 213.712794 126.28803 
L 216.182658 124.048883 
L 218.652521 121.809736 
L 221.122384 119.570589 
L 223.592247 117.331442 
L 226.06211 115.092294 
L 228.531973 112.853147 
L 231.001836 110.614 
L 233.471699 108.374853 
L 235.941562 106.135706 
L 238.411425 103.896558 
L 240.881288 101.657411 
L 243.351151 99.418264 
L 245.821015 97.179117 
L 248.290878 94.93997 
L 250.760741 92.700822 
L 253.230604 90.461675 
L 255.700467 88.222528 
L 258.17033 85.983381 
L 260.640193 83.744234 
L 263.110056 81.505086 
L 265.579919 79.265939 
L 268.049782 77.026792 
L 270.519645 74.787645 
L 272.989508 72.548498 
L 275.459371 70.30935 
L 277.929235 68.070203 
L 280.399098 65.831056 
L 282.868961 63.591909 
L 285.338824 61.352762 
L 287.808687 59.113614 
L 290.27855 56.874467 
L 292.748413 54.63532 
L 295.218276 52.396173 
L 297.688139 50.157026 
L 300.158002 47.917878 
L 302.627865 45.678731 
L 305.097728 43.439584 
" clip-path="url(#p83b16ffbf7)" style="fill: none; stroke: #1f77b4; stroke-width: 2.25; stroke-linecap: square"/>
   </g>
   <g id="line2d_14">
    <path d="M 138.271038 289.271152 
L 140.192108 286.925116 
L 142.113178 284.579081 
L 144.034247 282.233046 
L 145.955317 279.88701 
L 147.876387 277.540975 
L 149.797457 275.19494 
L 151.718527 272.848904 
L 153.639597 270.502869 
L 155.560666 268.156834 
L 157.481736 265.810798 
L 159.402806 263.464763 
L 161.323876 261.118728 
L 163.244946 258.772692 
L 165.166016 256.426657 
L 167.087085 254.080622 
L 169.008155 251.734586 
L 170.929225 249.388551 
L 172.850295 247.042516 
L 174.771365 244.69648 
L 176.692435 242.350445 
L 178.613504 240.00441 
L 180.534574 237.658374 
L 182.455644 235.312339 
L 184.376714 232.966304 
L 186.297784 230.620268 
L 188.218854 228.274233 
L 190.139923 225.928198 
L 192.060993 223.582162 
L 193.982063 221.236127 
L 195.903133 218.890092 
L 197.824203 216.544056 
L 199.745273 214.198021 
L 201.666342 211.851986 
L 203.587412 209.50595 
L 205.508482 207.159915 
L 207.429552 204.81388 
L 209.350622 202.467844 
L 211.271692 200.121809 
L 213.192761 197.775774 
L 215.113831 195.429738 
L 217.034901 193.083703 
L 218.955971 190.737668 
L 220.877041 188.391632 
L 222.798111 186.045597 
L 224.719181 183.699562 
L 226.64025 181.353526 
L 228.56132 179.007491 
L 230.48239 176.661456 
L 232.40346 174.31542 
L 234.32453 171.969385 
L 236.2456 169.62335 
L 238.166669 167.277314 
L 240.087739 164.931279 
L 242.008809 162.585244 
L 243.929879 160.239208 
L 245.850949 157.893173 
L 247.772019 155.547138 
L 249.693088 153.201102 
L 251.614158 150.855067 
L 253.535228 148.509032 
L 255.456298 146.162996 
L 257.377368 143.816961 
L 259.298438 141.470926 
L 261.219507 139.12489 
L 263.140577 136.778855 
L 265.061647 134.43282 
L 266.982717 132.086784 
L 268.903787 129.740749 
L 270.824857 127.394714 
L 272.745926 125.048678 
L 274.666996 122.702643 
L 276.588066 120.356608 
L 278.509136 118.010572 
L 280.430206 115.664537 
L 282.351276 113.318502 
L 284.272345 110.972466 
L 286.193415 108.626431 
L 288.114485 106.280396 
L 290.035555 103.93436 
L 291.956625 101.588325 
L 293.877695 99.24229 
L 295.798764 96.896254 
L 297.719834 94.550219 
L 299.640904 92.204184 
L 301.561974 89.858148 
L 303.483044 87.512113 
L 305.404114 85.166078 
L 307.325183 82.820042 
L 309.246253 80.474007 
L 311.167323 78.127972 
L 313.088393 75.781936 
L 315.009463 73.435901 
L 316.930533 71.089866 
L 318.851602 68.74383 
L 320.772672 66.397795 
L 322.693742 64.05176 
L 324.614812 61.705724 
L 326.535882 59.359689 
L 328.456952 57.013654 
" clip-path="url(#p83b16ffbf7)" style="fill: none; stroke: #ff7f0e; stroke-width: 2.25; stroke-linecap: square"/>
   </g>
   <g id="patch_3">
    <path d="M 47.1875 314.44 
L 47.1875 7.2 
" style="fill: none; stroke: #000000; stroke-width: 0.8; stroke-linejoin: miter; stroke-linecap: square"/>
   </g>
   <g id="patch_4">
    <path d="M 47.1875 314.44 
L 341.850735 314.44 
" style="fill: none; stroke: #000000; stroke-width: 0.8; stroke-linejoin: miter; stroke-linecap: square"/>
   </g>
  </g>
  <g id="legend_1">
   <g id="text_15">
    <!-- type -->
    <g transform="translate(368.139716 164.079375) scale(0.1 -0.1)">
     <defs>
      <path id="DejaVuSans-74" d="M 1172 4494 
L 1172 3500 
L 2356 3500 
L 2356 3053 
L 1172 3053 
L 1172 1153 
Q 1172 725 1289 603 
Q 1406 481 1766 481 
L 2356 481 
L 2356 0 
L 1766 0 
Q 1100 0 847 248 
Q 594 497 594 1153 
L 594 3053 
L 172 3053 
L 172 3500 
L 594 3500 
L 594 4494 
L 1172 4494 
z
" transform="scale(0.015625)"/>
      <path id="DejaVuSans-79" d="M 2059 -325 
Q 1816 -950 1584 -1140 
Q 1353 -1331 966 -1331 
L 506 -1331 
L 506 -850 
L 844 -850 
Q 1081 -850 1212 -737 
Q 1344 -625 1503 -206 
L 1606 56 
L 191 3500 
L 800 3500 
L 1894 763 
L 2988 3500 
L 3597 3500 
L 2059 -325 
z
" transform="scale(0.015625)"/>
      <path id="DejaVuSans-65" d="M 3597 1894 
L 3597 1613 
L 953 1613 
Q 991 1019 1311 708 
Q 1631 397 2203 397 
Q 2534 397 2845 478 
Q 3156 559 3463 722 
L 3463 178 
Q 3153 47 2828 -22 
Q 2503 -91 2169 -91 
Q 1331 -91 842 396 
Q 353 884 353 1716 
Q 353 2575 817 3079 
Q 1281 3584 2069 3584 
Q 2775 3584 3186 3129 
Q 3597 2675 3597 1894 
z
M 3022 2063 
Q 3016 2534 2758 2815 
Q 2500 3097 2075 3097 
Q 1594 3097 1305 2825 
Q 1016 2553 972 2059 
L 3022 2063 
z
" transform="scale(0.015625)"/>
     </defs>
     <use xlink:href="#DejaVuSans-74"/>
     <use xlink:href="#DejaVuSans-79" x="39.208984"/>
     <use xlink:href="#DejaVuSans-70" x="98.388672"/>
     <use xlink:href="#DejaVuSans-65" x="161.865234"/>
    </g>
   </g>
   <g id="PathCollection_3">
    <g>
     <use xlink:href="#meefb7c8eae" x="357.431122" y="176.1325" style="fill: #1f77b4; fill-opacity: 0.8; stroke: #1f77b4; stroke-opacity: 0.8"/>
    </g>
   </g>
   <g id="text_16">
    <!-- alcohol -->
    <g transform="translate(375.431122 178.7575) scale(0.1 -0.1)">
     <defs>
      <path id="DejaVuSans-61" d="M 2194 1759 
Q 1497 1759 1228 1600 
Q 959 1441 959 1056 
Q 959 750 1161 570 
Q 1363 391 1709 391 
Q 2188 391 2477 730 
Q 2766 1069 2766 1631 
L 2766 1759 
L 2194 1759 
z
M 3341 1997 
L 3341 0 
L 2766 0 
L 2766 531 
Q 2569 213 2275 61 
Q 1981 -91 1556 -91 
Q 1019 -91 701 211 
Q 384 513 384 1019 
Q 384 1609 779 1909 
Q 1175 2209 1959 2209 
L 2766 2209 
L 2766 2266 
Q 2766 2663 2505 2880 
Q 2244 3097 1772 3097 
Q 1472 3097 1187 3025 
Q 903 2953 641 2809 
L 641 3341 
Q 956 3463 1253 3523 
Q 1550 3584 1831 3584 
Q 2591 3584 2966 3190 
Q 3341 2797 3341 1997 
z
" transform="scale(0.015625)"/>
      <path id="DejaVuSans-63" d="M 3122 3366 
L 3122 2828 
Q 2878 2963 2633 3030 
Q 2388 3097 2138 3097 
Q 1578 3097 1268 2742 
Q 959 2388 959 1747 
Q 959 1106 1268 751 
Q 1578 397 2138 397 
Q 2388 397 2633 464 
Q 2878 531 3122 666 
L 3122 134 
Q 2881 22 2623 -34 
Q 2366 -91 2075 -91 
Q 1284 -91 818 406 
Q 353 903 353 1747 
Q 353 2603 823 3093 
Q 1294 3584 2113 3584 
Q 2378 3584 2631 3529 
Q 2884 3475 3122 3366 
z
" transform="scale(0.015625)"/>
      <path id="DejaVuSans-68" d="M 3513 2113 
L 3513 0 
L 2938 0 
L 2938 2094 
Q 2938 2591 2744 2837 
Q 2550 3084 2163 3084 
Q 1697 3084 1428 2787 
Q 1159 2491 1159 1978 
L 1159 0 
L 581 0 
L 581 4863 
L 1159 4863 
L 1159 2956 
Q 1366 3272 1645 3428 
Q 1925 3584 2291 3584 
Q 2894 3584 3203 3211 
Q 3513 2838 3513 2113 
z
" transform="scale(0.015625)"/>
     </defs>
     <use xlink:href="#DejaVuSans-61"/>
     <use xlink:href="#DejaVuSans-6c" x="61.279297"/>
     <use xlink:href="#DejaVuSans-63" x="89.0625"/>
     <use xlink:href="#DejaVuSans-6f" x="144.042969"/>
     <use xlink:href="#DejaVuSans-68" x="205.224609"/>
     <use xlink:href="#DejaVuSans-6f" x="268.603516"/>
     <use xlink:href="#DejaVuSans-6c" x="329.785156"/>
    </g>
   </g>
   <g id="PathCollection_4">
    <g>
     <use xlink:href="#mf09b87ef4c" x="357.431122" y="190.810625" style="fill: #ff7f0e; fill-opacity: 0.8; stroke: #ff7f0e; stroke-opacity: 0.8"/>
    </g>
   </g>
   <g id="text_17">
    <!-- alkane -->
    <g transform="translate(375.431122 193.435625) scale(0.1 -0.1)">
     <defs>
      <path id="DejaVuSans-6b" d="M 581 4863 
L 1159 4863 
L 1159 1991 
L 2875 3500 
L 3609 3500 
L 1753 1863 
L 3688 0 
L 2938 0 
L 1159 1709 
L 1159 0 
L 581 0 
L 581 4863 
z
" transform="scale(0.015625)"/>
      <path id="DejaVuSans-6e" d="M 3513 2113 
L 3513 0 
L 2938 0 
L 2938 2094 
Q 2938 2591 2744 2837 
Q 2550 3084 2163 3084 
Q 1697 3084 1428 2787 
Q 1159 2491 1159 1978 
L 1159 0 
L 581 0 
L 581 3500 
L 1159 3500 
L 1159 2956 
Q 1366 3272 1645 3428 
Q 1925 3584 2291 3584 
Q 2894 3584 3203 3211 
Q 3513 2838 3513 2113 
z
" transform="scale(0.015625)"/>
     </defs>
     <use xlink:href="#DejaVuSans-61"/>
     <use xlink:href="#DejaVuSans-6c" x="61.279297"/>
     <use xlink:href="#DejaVuSans-6b" x="89.0625"/>
     <use xlink:href="#DejaVuSans-61" x="145.222656"/>
     <use xlink:href="#DejaVuSans-6e" x="206.501953"/>
     <use xlink:href="#DejaVuSans-65" x="269.880859"/>
    </g>
   </g>
  </g>
 </g>
 <defs>
  <clipPath id="p83b16ffbf7">
   <rect x="47.1875" y="7.2" width="294.663235" height="307.24"/>
  </clipPath>
 </defs>
</svg>
