<?xml version="1.0" encoding="utf-8" standalone="no"?>
<!DOCTYPE svg PUBLIC "-//W3C//DTD SVG 1.1//EN"
  "http://www.w3.org/Graphics/SVG/1.1/DTD/svg11.dtd">
<svg xmlns:xlink="http://www.w3.org/1999/xlink" width="380.482813pt" height="248.518125pt" viewBox="0 0 380.482813 248.518125" xmlns="http://www.w3.org/2000/svg" version="1.1">
 <metadata>
  <rdf:RDF xmlns:dc="http://purl.org/dc/elements/1.1/" xmlns:cc="http://creativecommons.org/ns#" xmlns:rdf="http://www.w3.org/1999/02/22-rdf-syntax-ns#">
   <cc:Work>
    <dc:type rdf:resource="http://purl.org/dc/dcmitype/StillImage"/>
    <dc:date>2022-07-20T10:47:42.469556</dc:date>
    <dc:format>image/svg+xml</dc:format>
    <dc:creator>
     <cc:Agent>
      <dc:title>Matplotlib v3.5.2, https://matplotlib.org/</dc:title>
     </cc:Agent>
    </dc:creator>
   </cc:Work>
  </rdf:RDF>
 </metadata>
 <defs>
  <style type="text/css">*{stroke-linejoin: round; stroke-linecap: butt}</style>
 </defs>
 <g id="figure_1">
  <g id="patch_1">
   <path d="M -0 248.518125 
L 380.482813 248.518125 
L 380.482813 0 
L -0 0 
L -0 248.518125 
z
" style="fill: none"/>
  </g>
  <g id="axes_1">
   <g id="patch_2">
    <path d="M 38.482813 224.64 
L 373.282813 224.64 
L 373.282813 7.2 
L 38.482813 7.2 
z
" style="fill: #ffffff"/>
   </g>
   <g id="matplotlib.axis_1">
    <g id="xtick_1">
     <g id="line2d_1">
      <defs>
       <path id="m97f629012e" d="M 0 0 
L 0 3.5 
" style="stroke: #000000; stroke-width: 0.8"/>
      </defs>
      <g>
       <use xlink:href="#m97f629012e" x="53.395715" y="224.64" style="stroke: #000000; stroke-width: 0.8"/>
      </g>
     </g>
     <g id="text_1">
      <!-- 0 -->
      <g transform="translate(50.214465 239.238437)scale(0.1 -0.1)">
       <defs>
        <path id="DejaVuSans-30" d="M 2034 4250 
Q 1547 4250 1301 3770 
Q 1056 3291 1056 2328 
Q 1056 1369 1301 889 
Q 1547 409 2034 409 
Q 2525 409 2770 889 
Q 3016 1369 3016 2328 
Q 3016 3291 2770 3770 
Q 2525 4250 2034 4250 
z
M 2034 4750 
Q 2819 4750 3233 4129 
Q 3647 3509 3647 2328 
Q 3647 1150 3233 529 
Q 2819 -91 2034 -91 
Q 1250 -91 836 529 
Q 422 1150 422 2328 
Q 422 3509 836 4129 
Q 1250 4750 2034 4750 
z
" transform="scale(0.015625)"/>
       </defs>
       <use xlink:href="#DejaVuSans-30"/>
      </g>
     </g>
    </g>
    <g id="xtick_2">
     <g id="line2d_2">
      <g>
       <use xlink:href="#m97f629012e" x="101.933866" y="224.64" style="stroke: #000000; stroke-width: 0.8"/>
      </g>
     </g>
     <g id="text_2">
      <!-- 5 -->
      <g transform="translate(98.752616 239.238437)scale(0.1 -0.1)">
       <defs>
        <path id="DejaVuSans-35" d="M 691 4666 
L 3169 4666 
L 3169 4134 
L 1269 4134 
L 1269 2991 
Q 1406 3038 1543 3061 
Q 1681 3084 1819 3084 
Q 2600 3084 3056 2656 
Q 3513 2228 3513 1497 
Q 3513 744 3044 326 
Q 2575 -91 1722 -91 
Q 1428 -91 1123 -41 
Q 819 9 494 109 
L 494 744 
Q 775 591 1075 516 
Q 1375 441 1709 441 
Q 2250 441 2565 725 
Q 2881 1009 2881 1497 
Q 2881 1984 2565 2268 
Q 2250 2553 1709 2553 
Q 1456 2553 1204 2497 
Q 953 2441 691 2322 
L 691 4666 
z
" transform="scale(0.015625)"/>
       </defs>
       <use xlink:href="#DejaVuSans-35"/>
      </g>
     </g>
    </g>
    <g id="xtick_3">
     <g id="line2d_3">
      <g>
       <use xlink:href="#m97f629012e" x="150.472016" y="224.64" style="stroke: #000000; stroke-width: 0.8"/>
      </g>
     </g>
     <g id="text_3">
      <!-- 10 -->
      <g transform="translate(144.109516 239.238437)scale(0.1 -0.1)">
       <defs>
        <path id="DejaVuSans-31" d="M 794 531 
L 1825 531 
L 1825 4091 
L 703 3866 
L 703 4441 
L 1819 4666 
L 2450 4666 
L 2450 531 
L 3481 531 
L 3481 0 
L 794 0 
L 794 531 
z
" transform="scale(0.015625)"/>
       </defs>
       <use xlink:href="#DejaVuSans-31"/>
       <use xlink:href="#DejaVuSans-30" x="63.623047"/>
      </g>
     </g>
    </g>
    <g id="xtick_4">
     <g id="line2d_4">
      <g>
       <use xlink:href="#m97f629012e" x="199.010167" y="224.64" style="stroke: #000000; stroke-width: 0.8"/>
      </g>
     </g>
     <g id="text_4">
      <!-- 15 -->
      <g transform="translate(192.647667 239.238437)scale(0.1 -0.1)">
       <use xlink:href="#DejaVuSans-31"/>
       <use xlink:href="#DejaVuSans-35" x="63.623047"/>
      </g>
     </g>
    </g>
    <g id="xtick_5">
     <g id="line2d_5">
      <g>
       <use xlink:href="#m97f629012e" x="247.548318" y="224.64" style="stroke: #000000; stroke-width: 0.8"/>
      </g>
     </g>
     <g id="text_5">
      <!-- 20 -->
      <g transform="translate(241.185818 239.238437)scale(0.1 -0.1)">
       <defs>
        <path id="DejaVuSans-32" d="M 1228 531 
L 3431 531 
L 3431 0 
L 469 0 
L 469 531 
Q 828 903 1448 1529 
Q 2069 2156 2228 2338 
Q 2531 2678 2651 2914 
Q 2772 3150 2772 3378 
Q 2772 3750 2511 3984 
Q 2250 4219 1831 4219 
Q 1534 4219 1204 4116 
Q 875 4013 500 3803 
L 500 4441 
Q 881 4594 1212 4672 
Q 1544 4750 1819 4750 
Q 2544 4750 2975 4387 
Q 3406 4025 3406 3419 
Q 3406 3131 3298 2873 
Q 3191 2616 2906 2266 
Q 2828 2175 2409 1742 
Q 1991 1309 1228 531 
z
" transform="scale(0.015625)"/>
       </defs>
       <use xlink:href="#DejaVuSans-32"/>
       <use xlink:href="#DejaVuSans-30" x="63.623047"/>
      </g>
     </g>
    </g>
    <g id="xtick_6">
     <g id="line2d_6">
      <g>
       <use xlink:href="#m97f629012e" x="296.086468" y="224.64" style="stroke: #000000; stroke-width: 0.8"/>
      </g>
     </g>
     <g id="text_6">
      <!-- 25 -->
      <g transform="translate(289.723968 239.238437)scale(0.1 -0.1)">
       <use xlink:href="#DejaVuSans-32"/>
       <use xlink:href="#DejaVuSans-35" x="63.623047"/>
      </g>
     </g>
    </g>
    <g id="xtick_7">
     <g id="line2d_7">
      <g>
       <use xlink:href="#m97f629012e" x="344.624619" y="224.64" style="stroke: #000000; stroke-width: 0.8"/>
      </g>
     </g>
     <g id="text_7">
      <!-- 30 -->
      <g transform="translate(338.262119 239.238437)scale(0.1 -0.1)">
       <defs>
        <path id="DejaVuSans-33" d="M 2597 2516 
Q 3050 2419 3304 2112 
Q 3559 1806 3559 1356 
Q 3559 666 3084 287 
Q 2609 -91 1734 -91 
Q 1441 -91 1130 -33 
Q 819 25 488 141 
L 488 750 
Q 750 597 1062 519 
Q 1375 441 1716 441 
Q 2309 441 2620 675 
Q 2931 909 2931 1356 
Q 2931 1769 2642 2001 
Q 2353 2234 1838 2234 
L 1294 2234 
L 1294 2753 
L 1863 2753 
Q 2328 2753 2575 2939 
Q 2822 3125 2822 3475 
Q 2822 3834 2567 4026 
Q 2313 4219 1838 4219 
Q 1578 4219 1281 4162 
Q 984 4106 628 3988 
L 628 4550 
Q 988 4650 1302 4700 
Q 1616 4750 1894 4750 
Q 2613 4750 3031 4423 
Q 3450 4097 3450 3541 
Q 3450 3153 3228 2886 
Q 3006 2619 2597 2516 
z
" transform="scale(0.015625)"/>
       </defs>
       <use xlink:href="#DejaVuSans-33"/>
       <use xlink:href="#DejaVuSans-30" x="63.623047"/>
      </g>
     </g>
    </g>
   </g>
   <g id="matplotlib.axis_2">
    <g id="ytick_1">
     <g id="line2d_8">
      <defs>
       <path id="m7973af4e70" d="M 0 0 
L -3.5 0 
" style="stroke: #000000; stroke-width: 0.8"/>
      </defs>
      <g>
       <use xlink:href="#m7973af4e70" x="38.482813" y="194.580022" style="stroke: #000000; stroke-width: 0.8"/>
      </g>
     </g>
     <g id="text_8">
      <!-- −1.0 -->
      <g transform="translate(7.2 198.37924)scale(0.1 -0.1)">
       <defs>
        <path id="DejaVuSans-2212" d="M 678 2272 
L 4684 2272 
L 4684 1741 
L 678 1741 
L 678 2272 
z
" transform="scale(0.015625)"/>
        <path id="DejaVuSans-2e" d="M 684 794 
L 1344 794 
L 1344 0 
L 684 0 
L 684 794 
z
" transform="scale(0.015625)"/>
       </defs>
       <use xlink:href="#DejaVuSans-2212"/>
       <use xlink:href="#DejaVuSans-31" x="83.789062"/>
       <use xlink:href="#DejaVuSans-2e" x="147.412109"/>
       <use xlink:href="#DejaVuSans-30" x="179.199219"/>
      </g>
     </g>
    </g>
    <g id="ytick_2">
     <g id="line2d_9">
      <g>
       <use xlink:href="#m7973af4e70" x="38.482813" y="156.059945" style="stroke: #000000; stroke-width: 0.8"/>
      </g>
     </g>
     <g id="text_9">
      <!-- −0.5 -->
      <g transform="translate(7.2 159.859163)scale(0.1 -0.1)">
       <use xlink:href="#DejaVuSans-2212"/>
       <use xlink:href="#DejaVuSans-30" x="83.789062"/>
       <use xlink:href="#DejaVuSans-2e" x="147.412109"/>
       <use xlink:href="#DejaVuSans-35" x="179.199219"/>
      </g>
     </g>
    </g>
    <g id="ytick_3">
     <g id="line2d_10">
      <g>
       <use xlink:href="#m7973af4e70" x="38.482813" y="117.539868" style="stroke: #000000; stroke-width: 0.8"/>
      </g>
     </g>
     <g id="text_10">
      <!-- 0.0 -->
      <g transform="translate(15.579688 121.339087)scale(0.1 -0.1)">
       <use xlink:href="#DejaVuSans-30"/>
       <use xlink:href="#DejaVuSans-2e" x="63.623047"/>
       <use xlink:href="#DejaVuSans-30" x="95.410156"/>
      </g>
     </g>
    </g>
    <g id="ytick_4">
     <g id="line2d_11">
      <g>
       <use xlink:href="#m7973af4e70" x="38.482813" y="79.019791" style="stroke: #000000; stroke-width: 0.8"/>
      </g>
     </g>
     <g id="text_11">
      <!-- 0.5 -->
      <g transform="translate(15.579688 82.81901)scale(0.1 -0.1)">
       <use xlink:href="#DejaVuSans-30"/>
       <use xlink:href="#DejaVuSans-2e" x="63.623047"/>
       <use xlink:href="#DejaVuSans-35" x="95.410156"/>
      </g>
     </g>
    </g>
    <g id="ytick_5">
     <g id="line2d_12">
      <g>
       <use xlink:href="#m7973af4e70" x="38.482813" y="40.499714" style="stroke: #000000; stroke-width: 0.8"/>
      </g>
     </g>
     <g id="text_12">
      <!-- 1.0 -->
      <g transform="translate(15.579688 44.298933)scale(0.1 -0.1)">
       <use xlink:href="#DejaVuSans-31"/>
       <use xlink:href="#DejaVuSans-2e" x="63.623047"/>
       <use xlink:href="#DejaVuSans-30" x="95.410156"/>
      </g>
     </g>
    </g>
   </g>
   <g id="line2d_13">
    <path d="M 53.700994 116.585429 
L 54.006274 102.745752 
L 54.311553 96.724259 
L 54.616833 97.472454 
L 54.922112 93.136233 
L 55.227392 95.884565 
L 55.532671 86.696304 
L 55.837951 84.313407 
L 56.14323 77.7624 
L 57.059069 99.086739 
L 57.364348 95.299634 
L 57.974907 74.595478 
L 58.280186 62.66044 
L 58.585466 58.664293 
L 58.890745 69.107418 
L 59.196025 65.14625 
L 59.501304 69.445061 
L 59.806584 66.215395 
L 60.111863 68.159394 
L 60.417143 67.849635 
L 60.722422 65.509341 
L 61.027702 74.354469 
L 61.332981 74.814505 
L 61.638261 67.664195 
L 62.24882 48.059843 
L 62.859379 62.358681 
L 63.469938 52.542127 
L 63.775217 40.631048 
L 64.080496 41.323025 
L 64.385776 45.17068 
L 64.691055 41.16568 
L 64.996335 49.503956 
L 65.301614 39.716164 
L 65.606894 50.343052 
L 65.912173 48.558428 
L 66.217453 50.199225 
L 66.828012 35.900852 
L 67.133291 28.255233 
L 67.438571 24.996799 
L 68.04913 40.414083 
L 68.354409 54.453906 
L 68.659689 52.706851 
L 68.964968 42.524616 
L 69.270248 37.384016 
L 69.575527 44.383352 
L 69.880806 45.445916 
L 70.186086 44.474647 
L 70.491365 39.019667 
L 70.796645 55.879819 
L 71.101924 48.933303 
L 71.407204 44.543438 
L 71.712483 37.708495 
L 72.017763 52.381809 
L 72.323042 60.216223 
L 72.628322 60.321393 
L 72.933601 59.231157 
L 73.238881 60.973527 
L 73.54416 68.198907 
L 73.84944 64.989326 
L 74.154719 54.008264 
L 74.459999 49.213616 
L 74.765278 56.27381 
L 75.070558 57.125508 
L 75.375837 53.497502 
L 75.681117 53.17776 
L 76.291675 84.281518 
L 76.902234 65.503621 
L 77.207514 64.368319 
L 77.512793 68.757527 
L 77.818073 68.039618 
L 78.123352 73.114637 
L 78.428632 74.400979 
L 78.733911 84.927574 
L 79.039191 86.197211 
L 79.64975 101.987095 
L 80.260309 91.652074 
L 80.565588 93.125129 
L 80.870868 99.009726 
L 81.176147 112.462213 
L 81.481427 106.086785 
L 81.786706 102.818804 
L 82.091985 97.601737 
L 82.397265 98.058755 
L 83.007824 114.239197 
L 83.618383 133.077864 
L 83.923662 131.912549 
L 84.228942 126.270374 
L 84.534221 126.105608 
L 85.14478 133.743109 
L 85.755339 119.226471 
L 86.060619 125.680741 
L 86.365898 129.145273 
L 86.671178 138.663834 
L 87.281737 145.448227 
L 87.587016 141.968929 
L 88.197575 153.765384 
L 88.502854 153.665942 
L 88.808134 138.412054 
L 89.113413 136.267936 
L 89.418693 141.870939 
L 90.029252 167.977083 
L 90.334531 167.358922 
L 90.639811 167.142115 
L 90.94509 159.864183 
L 91.25037 175.908003 
L 91.555649 178.476255 
L 91.860929 175.785123 
L 92.166208 162.079354 
L 92.776767 179.567119 
L 93.082047 190.845015 
L 93.387326 179.54738 
L 93.997885 193.378209 
L 94.303164 200.023466 
L 94.608444 183.557771 
L 94.913723 184.617351 
L 95.219003 185.195776 
L 95.524282 199.478696 
L 95.829562 190.123936 
L 96.134841 187.359513 
L 96.440121 180.247074 
L 97.05068 185.46456 
L 97.355959 188.628293 
L 98.271798 213.344612 
L 98.577077 199.233589 
L 98.882357 199.180389 
L 99.187636 191.556292 
L 99.492916 196.980491 
L 99.798195 194.960631 
L 100.103474 189.522999 
L 100.408754 199.522593 
L 100.714033 200.472214 
L 101.019313 205.944626 
L 101.935151 173.487313 
L 102.85099 198.633886 
L 103.156269 199.528695 
L 103.461549 202.159598 
L 104.072108 194.070743 
L 104.377387 186.807796 
L 104.682667 194.244999 
L 104.987946 181.997461 
L 105.293226 180.665191 
L 105.598505 173.567721 
L 105.903785 183.761098 
L 106.209064 181.409487 
L 106.514343 177.402526 
L 106.819623 178.958742 
L 107.124902 174.136932 
L 107.430182 175.257447 
L 107.735461 169.866633 
L 108.040741 175.776268 
L 108.34602 170.145274 
L 108.6513 170.344104 
L 108.956579 167.501376 
L 109.261859 168.581519 
L 109.567138 165.068333 
L 109.872418 164.046879 
L 110.177697 155.754694 
L 110.482977 142.455839 
L 110.788256 137.83906 
L 111.093536 143.561911 
L 111.398815 141.761408 
L 111.704095 132.207114 
L 112.009374 132.00532 
L 112.314653 132.550299 
L 112.619933 128.927142 
L 112.925212 121.786662 
L 113.230492 130.016495 
L 113.535771 131.607252 
L 113.841051 135.20455 
L 114.14633 130.053539 
L 114.45161 130.145379 
L 114.756889 127.647148 
L 115.062169 120.080598 
L 115.367448 119.503088 
L 115.672728 103.593958 
L 115.978007 95.766934 
L 116.283287 81.489827 
L 116.588566 80.227186 
L 116.893846 76.337954 
L 117.809684 97.663084 
L 118.420243 83.504152 
L 118.725522 89.276779 
L 119.336081 78.592707 
L 119.641361 60.878953 
L 119.94664 58.429965 
L 120.25192 66.5672 
L 120.557199 69.989597 
L 120.862479 70.327862 
L 121.473038 60.851494 
L 121.778317 65.549799 
L 122.083597 65.743343 
L 122.388876 78.029683 
L 122.694156 65.43365 
L 122.999435 63.856665 
L 123.609994 59.879926 
L 123.915274 51.223216 
L 124.220553 50.070858 
L 124.525832 61.421226 
L 124.831112 53.313574 
L 125.136391 51.025569 
L 125.441671 46.649758 
L 125.74695 48.740096 
L 126.05223 43.037845 
L 126.662789 49.720417 
L 127.578627 26.725914 
L 128.189186 40.933613 
L 128.494466 57.104502 
L 128.799745 48.506946 
L 129.410304 17.083636 
L 130.326142 51.397964 
L 130.631422 47.106432 
L 130.936701 38.384196 
L 131.241981 36.645286 
L 131.54726 45.968974 
L 131.85254 42.672272 
L 132.157819 46.298695 
L 132.463099 32.597356 
L 132.768378 39.609652 
L 133.073658 29.09546 
L 133.378937 32.859652 
L 133.989496 58.511381 
L 134.294776 56.430473 
L 134.600055 50.22212 
L 134.905335 41.049014 
L 135.210614 48.664103 
L 135.515894 51.056551 
L 135.821173 65.633246 
L 136.126453 58.505265 
L 136.431732 61.194137 
L 136.737011 52.424657 
L 137.042291 61.296551 
L 137.34757 53.355278 
L 138.263409 73.7364 
L 138.873968 56.260177 
L 139.179247 53.168131 
L 139.484527 68.235595 
L 139.789806 70.660375 
L 140.095086 79.361169 
L 140.400365 79.715777 
L 140.705645 81.732299 
L 141.316204 78.622988 
L 141.621483 76.107823 
L 142.232042 95.724088 
L 142.537321 111.382634 
L 142.842601 117.615258 
L 143.14788 112.272271 
L 143.45316 103.433503 
L 143.758439 101.789327 
L 144.063719 96.093907 
L 144.368998 113.238133 
L 144.979557 126.911641 
L 145.284837 117.742311 
L 145.895396 126.800715 
L 146.200675 130.621162 
L 146.505955 124.608046 
L 146.811234 127.518815 
L 147.116514 139.084722 
L 147.421793 144.573712 
L 147.727073 155.356578 
L 148.032352 152.125666 
L 148.337632 161.01718 
L 148.642911 149.204106 
L 148.94819 141.830137 
L 149.25347 143.672969 
L 149.558749 144.648094 
L 149.864029 152.597739 
L 150.169308 139.159301 
L 150.474588 157.809288 
L 151.085147 176.414211 
L 151.390426 174.401086 
L 151.695706 173.223762 
L 152.000985 177.261592 
L 152.306265 167.045804 
L 152.611544 173.667291 
L 152.916824 163.88334 
L 153.222103 174.419578 
L 153.527383 160.119895 
L 153.832662 164.454797 
L 154.137942 162.036071 
L 155.05378 169.952499 
L 155.359059 177.455586 
L 155.664339 188.257799 
L 155.969618 184.912643 
L 156.274898 192.210801 
L 156.580177 187.665499 
L 156.885457 200.90762 
L 157.190736 189.106106 
L 157.496016 187.217967 
L 157.801295 177.485527 
L 158.106575 179.408742 
L 158.411854 173.238338 
L 158.717134 181.953884 
L 159.327693 206.116255 
L 159.632972 196.2509 
L 159.938252 194.113174 
L 160.243531 195.985344 
L 160.54881 194.464056 
L 160.85409 191.549463 
L 161.159369 183.202988 
L 161.464649 191.357099 
L 161.769928 196.273148 
L 162.075208 207.181237 
L 162.380487 209.006674 
L 162.685767 195.723955 
L 162.991046 191.17952 
L 163.296326 190.85665 
L 163.601605 199.213679 
L 164.212164 174.985507 
L 164.517444 178.893152 
L 164.822723 194.270233 
L 165.128003 197.191414 
L 165.433282 187.039764 
L 165.738562 186.203302 
L 166.043841 196.763847 
L 166.349121 200.315987 
L 167.264959 166.466428 
L 167.570238 163.254763 
L 168.180797 179.957718 
L 168.486077 178.611228 
L 169.096636 170.460693 
L 169.401915 163.519537 
L 169.707195 163.094771 
L 170.012474 161.604392 
L 170.317754 169.332906 
L 170.623033 159.877643 
L 170.928313 158.447954 
L 171.233592 158.100632 
L 171.538872 149.460575 
L 172.149431 123.022635 
L 172.759989 147.147631 
L 173.065269 146.774704 
L 173.675828 113.809699 
L 173.981107 110.068465 
L 174.286387 115.316055 
L 174.896946 134.996068 
L 175.202225 134.661275 
L 175.507505 130.25691 
L 176.423343 94.089278 
L 176.728623 95.813583 
L 177.033902 103.108152 
L 177.339182 116.315879 
L 177.644461 115.56922 
L 178.25502 89.469376 
L 178.5603 92.307197 
L 178.865579 89.28282 
L 179.170858 93.060394 
L 179.476138 78.893936 
L 179.781417 83.425994 
L 180.086697 82.910472 
L 180.391976 95.970203 
L 181.002535 90.131482 
L 181.307815 72.086026 
L 181.613094 71.178728 
L 181.918374 59.903852 
L 182.223653 60.327968 
L 182.528933 45.066815 
L 183.139492 53.071394 
L 183.444771 64.249653 
L 183.750051 57.686229 
L 184.05533 56.872945 
L 184.36061 58.412606 
L 184.665889 65.179263 
L 184.971168 69.458952 
L 185.276448 62.816612 
L 185.581727 69.276567 
L 185.887007 58.031518 
L 186.192286 51.885647 
L 186.497566 49.705585 
L 186.802845 55.73409 
L 187.108125 53.771238 
L 187.413404 39.458179 
L 187.718684 37.071335 
L 188.329243 43.476423 
L 188.634522 47.860622 
L 188.939802 44.234386 
L 189.245081 42.609753 
L 189.85564 28.243884 
L 190.16092 33.20276 
L 190.466199 30.822146 
L 190.771478 40.378504 
L 191.076758 34.28435 
L 191.382037 40.2527 
L 191.687317 43.335747 
L 191.992596 42.992117 
L 192.297876 41.495327 
L 192.603155 28.9727 
L 193.213714 40.781172 
L 193.518994 51.359517 
L 193.824273 47.736998 
L 194.129553 48.363632 
L 194.434832 52.762403 
L 194.740112 59.229477 
L 195.045391 58.695449 
L 195.350671 49.151873 
L 195.65595 52.874971 
L 195.96123 47.882049 
L 196.266509 51.720856 
L 196.571789 57.034049 
L 197.182347 75.929168 
L 197.487627 76.985688 
L 197.792906 78.697128 
L 198.098186 74.339273 
L 198.403465 74.248998 
L 198.708745 68.491322 
L 199.014024 65.883601 
L 199.319304 53.913818 
L 199.624583 53.39693 
L 199.929863 62.980818 
L 200.235142 64.325612 
L 200.540422 73.136611 
L 200.845701 73.331791 
L 201.150981 91.308094 
L 201.45626 86.738736 
L 201.76154 94.506539 
L 202.066819 90.873547 
L 202.372099 102.230242 
L 202.982657 96.796304 
L 203.287937 98.345759 
L 203.593216 92.52365 
L 203.898496 105.335843 
L 204.203775 99.156428 
L 204.509055 116.445078 
L 204.814334 117.454845 
L 205.119614 120.299106 
L 205.730173 102.259593 
L 206.035452 106.856171 
L 206.340732 120.231606 
L 206.646011 120.851987 
L 206.951291 116.291953 
L 207.25657 105.7183 
L 208.172409 150.795434 
L 208.782968 151.364906 
L 209.088247 145.329631 
L 209.393526 153.026488 
L 209.698806 147.06387 
L 210.004085 144.259904 
L 210.309365 135.313349 
L 210.614644 137.736903 
L 211.225203 167.14461 
L 211.530483 179.363224 
L 211.835762 179.82407 
L 212.141042 177.667227 
L 212.446321 168.894157 
L 212.751601 171.42987 
L 213.05688 177.381676 
L 213.36216 179.54828 
L 213.667439 172.232101 
L 213.972719 169.665412 
L 214.277998 171.445496 
L 214.583278 180.838057 
L 214.888557 184.375289 
L 215.193836 198.510711 
L 215.804395 172.064892 
L 216.109675 171.310611 
L 216.414954 180.151883 
L 216.720234 195.406904 
L 217.025513 186.930619 
L 217.330793 195.667281 
L 217.636072 190.446647 
L 217.941352 204.152871 
L 218.85719 194.479082 
L 219.16247 196.816992 
L 219.467749 195.189903 
L 219.773029 200.47262 
L 220.078308 187.711346 
L 220.383588 195.703928 
L 220.688867 187.164134 
L 220.994147 199.340252 
L 221.299426 200.128226 
L 221.604705 205.549319 
L 222.215264 213.027274 
L 222.520544 208.293301 
L 222.825823 208.040552 
L 223.131103 204.607536 
L 223.436382 209.065704 
L 223.741662 209.74612 
L 224.046941 207.112974 
L 224.352221 195.669825 
L 224.6575 191.630271 
L 224.96278 198.125563 
L 225.268059 194.795118 
L 225.573339 185.881186 
L 225.878618 170.597069 
L 226.183898 171.799992 
L 226.489177 166.856611 
L 226.794457 173.872441 
L 227.099736 176.256966 
L 227.405015 181.820615 
L 227.710295 170.156171 
L 228.015574 165.559326 
L 228.320854 155.958089 
L 228.931413 173.314972 
L 229.236692 177.995683 
L 229.541972 169.146515 
L 229.847251 165.254443 
L 230.152531 159.318071 
L 230.45781 158.156399 
L 230.76309 148.392216 
L 231.068369 152.989474 
L 231.373649 153.385698 
L 231.678928 157.878742 
L 232.289487 146.301045 
L 232.594767 135.947554 
L 232.900046 130.64636 
L 233.510605 138.195986 
L 233.815884 133.419756 
L 234.121164 123.594601 
L 234.426443 118.648353 
L 234.731723 121.368337 
L 235.037002 125.590947 
L 235.647561 126.46881 
L 235.952841 128.847124 
L 236.25812 133.569134 
L 236.5634 129.868513 
L 237.479238 102.140544 
L 237.784518 108.695635 
L 238.089797 106.81901 
L 238.395077 111.202267 
L 238.700356 94.647147 
L 239.005636 95.356503 
L 239.310915 88.521612 
L 239.616194 87.1276 
L 239.921474 75.744995 
L 240.226753 80.644456 
L 240.532033 87.427769 
L 240.837312 97.180581 
L 241.142592 96.448158 
L 241.447871 96.660072 
L 241.753151 82.110214 
L 242.36371 64.446297 
L 242.668989 64.372937 
L 242.974269 68.112296 
L 243.279548 68.164392 
L 243.584828 70.271357 
L 243.890107 59.900156 
L 244.195387 62.240547 
L 244.500666 52.177636 
L 244.805946 57.532381 
L 245.111225 45.638494 
L 245.416504 46.287834 
L 245.721784 49.291578 
L 246.027063 48.929086 
L 246.332343 49.991333 
L 246.637622 52.138046 
L 246.942902 51.503043 
L 247.248181 49.075438 
L 247.553461 35.624653 
L 247.85874 32.635729 
L 248.16402 40.66362 
L 248.469299 43.269675 
L 248.774579 49.253225 
L 249.079858 38.964928 
L 249.385138 42.35991 
L 249.690417 47.889497 
L 249.995697 55.763892 
L 250.300976 44.629035 
L 250.606256 39.253686 
L 250.911535 40.032104 
L 251.216815 50.20047 
L 251.522094 46.825055 
L 252.437932 28.792208 
L 252.743212 35.528784 
L 253.048491 34.820604 
L 253.353771 36.630342 
L 253.65905 29.000345 
L 253.96433 27.364995 
L 254.269609 32.005956 
L 254.574889 33.00978 
L 254.880168 43.868723 
L 255.185448 43.931071 
L 255.490727 38.957322 
L 255.796007 41.988293 
L 256.101286 43.560433 
L 256.406566 53.939368 
L 256.711845 48.796801 
L 257.017125 59.014763 
L 257.627683 70.816744 
L 257.932963 72.821187 
L 258.238242 67.217588 
L 258.543522 66.167807 
L 258.848801 54.174242 
L 259.154081 65.854552 
L 259.45936 72.839705 
L 259.76464 83.976814 
L 260.069919 72.05721 
L 260.375199 66.911286 
L 260.680478 57.648865 
L 260.985758 59.422164 
L 261.901596 84.37411 
L 262.206876 88.954045 
L 262.512155 82.261229 
L 262.817435 86.371067 
L 263.122714 86.869225 
L 263.427993 90.511272 
L 263.733273 95.895639 
L 264.038552 83.853805 
L 264.343832 87.428932 
L 264.649111 79.788013 
L 264.954391 87.563681 
L 265.25967 90.351548 
L 265.56495 108.974762 
L 265.870229 117.277543 
L 266.175509 132.36899 
L 266.480788 127.870735 
L 266.786068 127.500162 
L 267.091347 125.347321 
L 267.396627 125.770699 
L 267.701906 133.313302 
L 268.007186 126.41837 
L 268.312465 123.731492 
L 268.617745 125.505039 
L 268.923024 137.032803 
L 269.533583 146.031277 
L 269.838862 137.864763 
L 270.144142 152.541561 
L 270.449421 143.594395 
L 270.754701 154.253236 
L 271.05998 149.549238 
L 271.36526 160.194263 
L 271.670539 159.80218 
L 271.975819 151.817708 
L 272.281098 156.866308 
L 272.586378 166.356948 
L 272.891657 171.391726 
L 273.502216 147.77709 
L 273.807496 155.742977 
L 274.112775 159.212124 
L 274.418055 158.583635 
L 274.723334 154.402701 
L 275.028614 158.090767 
L 275.639172 180.996621 
L 275.944452 181.373707 
L 276.249731 183.301492 
L 276.555011 178.6857 
L 276.86029 193.229184 
L 277.16557 193.260444 
L 277.776129 187.939673 
L 278.081408 189.125771 
L 278.386688 194.883031 
L 278.997247 174.881024 
L 279.302526 168.792231 
L 279.607806 174.784334 
L 279.913085 189.619744 
L 280.523644 207.957883 
L 280.828924 208.903972 
L 281.134203 209.00817 
L 281.439483 208.691074 
L 281.744762 204.520965 
L 282.050041 194.621768 
L 282.355321 191.340331 
L 282.6606 194.049009 
L 282.96588 193.981305 
L 283.576439 198.214166 
L 283.881718 214.756364 
L 284.492277 199.281422 
L 284.797557 186.067085 
L 285.102836 192.664122 
L 285.408116 183.118622 
L 285.713395 192.236419 
L 286.018675 191.275901 
L 286.323954 192.026243 
L 286.629234 176.723923 
L 286.934513 167.988972 
L 287.239793 175.847364 
L 287.545072 174.524931 
L 287.850351 172.606478 
L 288.155631 160.251339 
L 288.76619 156.472108 
L 289.071469 167.123709 
L 289.376749 169.701285 
L 289.682028 165.975176 
L 289.987308 166.404412 
L 290.597867 185.232773 
L 290.903146 177.315676 
L 291.208426 162.937371 
L 291.513705 160.127125 
L 291.818985 165.39703 
L 292.124264 173.993906 
L 292.429544 174.234982 
L 292.734823 169.31264 
L 293.040103 154.531527 
L 293.345382 146.765042 
L 293.650662 142.194647 
L 293.955941 144.76546 
L 294.26122 144.27455 
L 294.5665 143.485549 
L 294.871779 144.528954 
L 295.177059 140.688235 
L 295.482338 141.738519 
L 295.787618 135.674092 
L 296.092897 126.418635 
L 296.398177 124.306558 
L 296.703456 117.107729 
L 297.008736 125.948927 
L 297.314015 109.349849 
L 297.619295 110.38162 
L 297.924574 103.859979 
L 298.229854 116.351142 
L 298.840413 120.795907 
L 299.145692 118.390099 
L 299.756251 103.726856 
L 300.06153 99.782754 
L 300.36681 97.589796 
L 300.977369 69.809918 
L 301.587928 88.159018 
L 301.893207 99.415397 
L 302.198487 98.565777 
L 302.809046 84.660637 
L 303.114325 68.802812 
L 303.419605 67.570886 
L 303.724884 55.277712 
L 304.030164 70.339779 
L 304.335443 60.486608 
L 304.640723 71.28527 
L 304.946002 54.320594 
L 305.251282 54.305824 
L 305.556561 44.658627 
L 305.86184 41.601714 
L 306.472399 59.160636 
L 306.777679 73.136869 
L 307.082958 69.936754 
L 307.693517 39.308239 
L 307.998797 34.843929 
L 308.304076 35.20696 
L 308.609356 33.007632 
L 308.914635 37.320662 
L 309.525194 56.175266 
L 309.830474 52.742138 
L 310.135753 44.801715 
L 310.441033 40.559518 
L 310.746312 42.096206 
L 311.051592 34.24254 
L 311.356871 44.766561 
L 311.662151 42.363947 
L 311.96743 42.917984 
L 312.272709 38.51128 
L 312.577989 31.844454 
L 312.883268 43.220703 
L 313.188548 31.864927 
L 313.493827 37.475475 
L 314.104386 44.344683 
L 314.409666 43.750032 
L 314.714945 32.460169 
L 315.020225 36.425135 
L 315.325504 35.248323 
L 315.630784 30.55337 
L 315.936063 32.509372 
L 316.546622 51.789244 
L 316.851902 61.591328 
L 317.157181 62.94784 
L 317.462461 73.832683 
L 318.073019 45.388032 
L 318.378299 42.726833 
L 318.683578 50.728508 
L 318.988858 67.347817 
L 319.294137 71.821058 
L 319.599417 74.044261 
L 320.209976 46.257596 
L 320.515255 52.41244 
L 320.820535 69.332427 
L 321.125814 79.182962 
L 321.431094 73.396432 
L 321.736373 60.874976 
L 322.041653 59.16165 
L 322.957491 90.282413 
L 323.262771 83.945192 
L 323.56805 95.296644 
L 323.87333 96.299617 
L 324.178609 98.940574 
L 324.483888 89.17297 
L 324.789168 84.436587 
L 325.094447 86.874718 
L 325.399727 100.472079 
L 325.705006 100.220106 
L 326.010286 110.510231 
L 326.315565 107.289876 
L 326.620845 123.768976 
L 326.926124 117.398358 
L 327.231404 117.202457 
L 327.536683 118.984116 
L 327.841963 117.544065 
L 328.147242 124.26364 
L 328.452522 112.548263 
L 328.757801 119.843507 
L 329.063081 113.54077 
L 329.978919 146.48476 
L 330.284198 149.570242 
L 330.589478 149.116162 
L 330.894757 147.750397 
L 331.200037 149.575298 
L 331.505316 148.84775 
L 331.810596 155.945138 
L 332.115875 150.951777 
L 332.421155 150.702565 
L 332.726434 149.335423 
L 333.336993 165.974264 
L 333.947552 173.643949 
L 334.252832 168.998252 
L 334.558111 175.259983 
L 334.863391 169.254519 
L 335.16867 181.061367 
L 335.47395 167.763679 
L 335.779229 169.10028 
L 336.084508 167.968646 
L 336.389788 173.840855 
L 336.695067 185.106738 
L 337.000347 186.31344 
L 337.305626 183.488637 
L 337.610906 184.650617 
L 337.916185 187.940126 
L 338.221465 193.385247 
L 338.832024 176.020388 
L 339.137303 188.358076 
L 339.442583 188.482535 
L 339.747862 187.875569 
L 340.053142 179.251264 
L 340.663701 196.774235 
L 340.96898 205.946414 
L 341.27426 199.434219 
L 341.579539 201.206118 
L 341.884819 201.369651 
L 342.190098 205.66167 
L 342.800657 184.067175 
L 343.105936 179.888525 
L 343.411216 194.251345 
L 343.716495 190.890134 
L 344.021775 195.71283 
L 344.327054 178.482639 
L 344.632334 190.289277 
L 344.937613 184.980396 
L 345.242893 191.104413 
L 345.548172 187.335955 
L 345.853452 196.791552 
L 346.158731 191.056669 
L 346.464011 193.376843 
L 346.76929 187.10129 
L 347.07457 194.422345 
L 347.379849 189.57338 
L 347.990408 175.168117 
L 348.295687 176.506511 
L 348.600967 179.935713 
L 348.906246 178.324805 
L 349.211526 165.292737 
L 349.516805 167.346034 
L 349.822085 176.80608 
L 350.127364 190.085192 
L 350.432644 180.263203 
L 350.737923 164.615219 
L 351.043203 155.504875 
L 351.348482 160.10173 
L 351.653762 175.076427 
L 352.264321 172.3222 
L 352.5696 170.212063 
L 352.87488 169.472367 
L 353.790718 161.261349 
L 354.401277 140.794349 
L 354.706556 144.372215 
L 355.011836 149.308159 
L 355.622395 140.048339 
L 355.927674 142.897957 
L 356.538233 127.734685 
L 356.843513 120.595411 
L 357.148792 131.724869 
L 357.759351 125.662502 
L 358.064631 109.652363 
L 358.064631 109.652363 
" clip-path="url(#pb0e5b12c69)" style="fill: none; stroke: #1f77b4; stroke-width: 1.5; stroke-linecap: square"/>
   </g>
   <g id="patch_3">
    <path d="M 38.482813 224.64 
L 38.482813 7.2 
" style="fill: none; stroke: #000000; stroke-width: 0.8; stroke-linejoin: miter; stroke-linecap: square"/>
   </g>
   <g id="patch_4">
    <path d="M 373.282813 224.64 
L 373.282813 7.2 
" style="fill: none; stroke: #000000; stroke-width: 0.8; stroke-linejoin: miter; stroke-linecap: square"/>
   </g>
   <g id="patch_5">
    <path d="M 38.482813 224.64 
L 373.282813 224.64 
" style="fill: none; stroke: #000000; stroke-width: 0.8; stroke-linejoin: miter; stroke-linecap: square"/>
   </g>
   <g id="patch_6">
    <path d="M 38.482813 7.2 
L 373.282813 7.2 
" style="fill: none; stroke: #000000; stroke-width: 0.8; stroke-linejoin: miter; stroke-linecap: square"/>
   </g>
  </g>
 </g>
 <defs>
  <clipPath id="pb0e5b12c69">
   <rect x="38.482813" y="7.2" width="334.8" height="217.44"/>
  </clipPath>
 </defs>
</svg>
