<?xml version="1.0" encoding="utf-8" standalone="no"?>
<!DOCTYPE svg PUBLIC "-//W3C//DTD SVG 1.1//EN"
  "http://www.w3.org/Graphics/SVG/1.1/DTD/svg11.dtd">
<svg height="251.720988pt" version="1.1" viewBox="0 0 400.523437 251.720988" width="400.523437pt" xmlns="http://www.w3.org/2000/svg" xmlns:xlink="http://www.w3.org/1999/xlink">
 <metadata>
  <rdf:RDF xmlns:cc="http://creativecommons.org/ns#" xmlns:dc="http://purl.org/dc/elements/1.1/" xmlns:rdf="http://www.w3.org/1999/02/22-rdf-syntax-ns#">
   <cc:Work>
    <dc:type rdf:resource="http://purl.org/dc/dcmitype/StillImage"/>
    <dc:date>2022-05-22T18:03:05.404901</dc:date>
    <dc:format>image/svg+xml</dc:format>
    <dc:creator>
     <cc:Agent>
      <dc:title>Matplotlib v3.4.3, https://matplotlib.org/</dc:title>
     </cc:Agent>
    </dc:creator>
   </cc:Work>
  </rdf:RDF>
 </metadata>
 <defs>
  <style type="text/css">*{stroke-linecap:butt;stroke-linejoin:round;}</style>
 </defs>
 <g id="figure_1">
  <g id="patch_1">
   <path d="M 0 251.720988 
L 400.523437 251.720988 
L 400.523437 0 
L 0 0 
z
" style="fill:none;"/>
  </g>
  <g id="axes_1">
   <g id="patch_2">
    <path d="M 58.523438 227.842863 
L 393.323438 227.842863 
L 393.323438 10.402863 
L 58.523438 10.402863 
z
" style="fill:#ffffff;"/>
   </g>
   <g id="matplotlib.axis_1">
    <g id="xtick_1">
     <g id="line2d_1">
      <defs>
       <path d="M 0 0 
L 0 3.5 
" id="m3c3280df8d" style="stroke:#000000;stroke-width:0.8;"/>
      </defs>
      <g>
       <use style="stroke:#000000;stroke-width:0.8;" x="73.589133" xlink:href="#m3c3280df8d" y="227.842863"/>
      </g>
     </g>
     <g id="text_1">
      <!-- 0 -->
      <g transform="translate(70.407883 242.4413)scale(0.1 -0.1)">
       <defs>
        <path d="M 2034 4250 
Q 1547 4250 1301 3770 
Q 1056 3291 1056 2328 
Q 1056 1369 1301 889 
Q 1547 409 2034 409 
Q 2525 409 2770 889 
Q 3016 1369 3016 2328 
Q 3016 3291 2770 3770 
Q 2525 4250 2034 4250 
z
M 2034 4750 
Q 2819 4750 3233 4129 
Q 3647 3509 3647 2328 
Q 3647 1150 3233 529 
Q 2819 -91 2034 -91 
Q 1250 -91 836 529 
Q 422 1150 422 2328 
Q 422 3509 836 4129 
Q 1250 4750 2034 4750 
z
" id="DejaVuSans-30" transform="scale(0.015625)"/>
       </defs>
       <use xlink:href="#DejaVuSans-30"/>
      </g>
     </g>
    </g>
    <g id="xtick_2">
     <g id="line2d_2">
      <g>
       <use style="stroke:#000000;stroke-width:0.8;" x="122.078648" xlink:href="#m3c3280df8d" y="227.842863"/>
      </g>
     </g>
     <g id="text_2">
      <!-- 1 -->
      <g transform="translate(118.897398 242.4413)scale(0.1 -0.1)">
       <defs>
        <path d="M 794 531 
L 1825 531 
L 1825 4091 
L 703 3866 
L 703 4441 
L 1819 4666 
L 2450 4666 
L 2450 531 
L 3481 531 
L 3481 0 
L 794 0 
L 794 531 
z
" id="DejaVuSans-31" transform="scale(0.015625)"/>
       </defs>
       <use xlink:href="#DejaVuSans-31"/>
      </g>
     </g>
    </g>
    <g id="xtick_3">
     <g id="line2d_3">
      <g>
       <use style="stroke:#000000;stroke-width:0.8;" x="170.568163" xlink:href="#m3c3280df8d" y="227.842863"/>
      </g>
     </g>
     <g id="text_3">
      <!-- 2 -->
      <g transform="translate(167.386913 242.4413)scale(0.1 -0.1)">
       <defs>
        <path d="M 1228 531 
L 3431 531 
L 3431 0 
L 469 0 
L 469 531 
Q 828 903 1448 1529 
Q 2069 2156 2228 2338 
Q 2531 2678 2651 2914 
Q 2772 3150 2772 3378 
Q 2772 3750 2511 3984 
Q 2250 4219 1831 4219 
Q 1534 4219 1204 4116 
Q 875 4013 500 3803 
L 500 4441 
Q 881 4594 1212 4672 
Q 1544 4750 1819 4750 
Q 2544 4750 2975 4387 
Q 3406 4025 3406 3419 
Q 3406 3131 3298 2873 
Q 3191 2616 2906 2266 
Q 2828 2175 2409 1742 
Q 1991 1309 1228 531 
z
" id="DejaVuSans-32" transform="scale(0.015625)"/>
       </defs>
       <use xlink:href="#DejaVuSans-32"/>
      </g>
     </g>
    </g>
    <g id="xtick_4">
     <g id="line2d_4">
      <g>
       <use style="stroke:#000000;stroke-width:0.8;" x="219.057678" xlink:href="#m3c3280df8d" y="227.842863"/>
      </g>
     </g>
     <g id="text_4">
      <!-- 3 -->
      <g transform="translate(215.876428 242.4413)scale(0.1 -0.1)">
       <defs>
        <path d="M 2597 2516 
Q 3050 2419 3304 2112 
Q 3559 1806 3559 1356 
Q 3559 666 3084 287 
Q 2609 -91 1734 -91 
Q 1441 -91 1130 -33 
Q 819 25 488 141 
L 488 750 
Q 750 597 1062 519 
Q 1375 441 1716 441 
Q 2309 441 2620 675 
Q 2931 909 2931 1356 
Q 2931 1769 2642 2001 
Q 2353 2234 1838 2234 
L 1294 2234 
L 1294 2753 
L 1863 2753 
Q 2328 2753 2575 2939 
Q 2822 3125 2822 3475 
Q 2822 3834 2567 4026 
Q 2313 4219 1838 4219 
Q 1578 4219 1281 4162 
Q 984 4106 628 3988 
L 628 4550 
Q 988 4650 1302 4700 
Q 1616 4750 1894 4750 
Q 2613 4750 3031 4423 
Q 3450 4097 3450 3541 
Q 3450 3153 3228 2886 
Q 3006 2619 2597 2516 
z
" id="DejaVuSans-33" transform="scale(0.015625)"/>
       </defs>
       <use xlink:href="#DejaVuSans-33"/>
      </g>
     </g>
    </g>
    <g id="xtick_5">
     <g id="line2d_5">
      <g>
       <use style="stroke:#000000;stroke-width:0.8;" x="267.547194" xlink:href="#m3c3280df8d" y="227.842863"/>
      </g>
     </g>
     <g id="text_5">
      <!-- 4 -->
      <g transform="translate(264.365944 242.4413)scale(0.1 -0.1)">
       <defs>
        <path d="M 2419 4116 
L 825 1625 
L 2419 1625 
L 2419 4116 
z
M 2253 4666 
L 3047 4666 
L 3047 1625 
L 3713 1625 
L 3713 1100 
L 3047 1100 
L 3047 0 
L 2419 0 
L 2419 1100 
L 313 1100 
L 313 1709 
L 2253 4666 
z
" id="DejaVuSans-34" transform="scale(0.015625)"/>
       </defs>
       <use xlink:href="#DejaVuSans-34"/>
      </g>
     </g>
    </g>
    <g id="xtick_6">
     <g id="line2d_6">
      <g>
       <use style="stroke:#000000;stroke-width:0.8;" x="316.036709" xlink:href="#m3c3280df8d" y="227.842863"/>
      </g>
     </g>
     <g id="text_6">
      <!-- 5 -->
      <g transform="translate(312.855459 242.4413)scale(0.1 -0.1)">
       <defs>
        <path d="M 691 4666 
L 3169 4666 
L 3169 4134 
L 1269 4134 
L 1269 2991 
Q 1406 3038 1543 3061 
Q 1681 3084 1819 3084 
Q 2600 3084 3056 2656 
Q 3513 2228 3513 1497 
Q 3513 744 3044 326 
Q 2575 -91 1722 -91 
Q 1428 -91 1123 -41 
Q 819 9 494 109 
L 494 744 
Q 775 591 1075 516 
Q 1375 441 1709 441 
Q 2250 441 2565 725 
Q 2881 1009 2881 1497 
Q 2881 1984 2565 2268 
Q 2250 2553 1709 2553 
Q 1456 2553 1204 2497 
Q 953 2441 691 2322 
L 691 4666 
z
" id="DejaVuSans-35" transform="scale(0.015625)"/>
       </defs>
       <use xlink:href="#DejaVuSans-35"/>
      </g>
     </g>
    </g>
    <g id="xtick_7">
     <g id="line2d_7">
      <g>
       <use style="stroke:#000000;stroke-width:0.8;" x="364.526224" xlink:href="#m3c3280df8d" y="227.842863"/>
      </g>
     </g>
     <g id="text_7">
      <!-- 6 -->
      <g transform="translate(361.344974 242.4413)scale(0.1 -0.1)">
       <defs>
        <path d="M 2113 2584 
Q 1688 2584 1439 2293 
Q 1191 2003 1191 1497 
Q 1191 994 1439 701 
Q 1688 409 2113 409 
Q 2538 409 2786 701 
Q 3034 994 3034 1497 
Q 3034 2003 2786 2293 
Q 2538 2584 2113 2584 
z
M 3366 4563 
L 3366 3988 
Q 3128 4100 2886 4159 
Q 2644 4219 2406 4219 
Q 1781 4219 1451 3797 
Q 1122 3375 1075 2522 
Q 1259 2794 1537 2939 
Q 1816 3084 2150 3084 
Q 2853 3084 3261 2657 
Q 3669 2231 3669 1497 
Q 3669 778 3244 343 
Q 2819 -91 2113 -91 
Q 1303 -91 875 529 
Q 447 1150 447 2328 
Q 447 3434 972 4092 
Q 1497 4750 2381 4750 
Q 2619 4750 2861 4703 
Q 3103 4656 3366 4563 
z
" id="DejaVuSans-36" transform="scale(0.015625)"/>
       </defs>
       <use xlink:href="#DejaVuSans-36"/>
      </g>
     </g>
    </g>
   </g>
   <g id="matplotlib.axis_2">
    <g id="ytick_1">
     <g id="line2d_8">
      <defs>
       <path d="M 0 0 
L -3.5 0 
" id="me3289e94ae" style="stroke:#000000;stroke-width:0.8;"/>
      </defs>
      <g>
       <use style="stroke:#000000;stroke-width:0.8;" x="58.523438" xlink:href="#me3289e94ae" y="201.074624"/>
      </g>
     </g>
     <g id="text_8">
      <!-- −0.06 -->
      <g transform="translate(20.878125 204.873842)scale(0.1 -0.1)">
       <defs>
        <path d="M 678 2272 
L 4684 2272 
L 4684 1741 
L 678 1741 
L 678 2272 
z
" id="DejaVuSans-2212" transform="scale(0.015625)"/>
        <path d="M 684 794 
L 1344 794 
L 1344 0 
L 684 0 
L 684 794 
z
" id="DejaVuSans-2e" transform="scale(0.015625)"/>
       </defs>
       <use xlink:href="#DejaVuSans-2212"/>
       <use x="83.789062" xlink:href="#DejaVuSans-30"/>
       <use x="147.412109" xlink:href="#DejaVuSans-2e"/>
       <use x="179.199219" xlink:href="#DejaVuSans-30"/>
       <use x="242.822266" xlink:href="#DejaVuSans-36"/>
      </g>
     </g>
    </g>
    <g id="ytick_2">
     <g id="line2d_9">
      <g>
       <use style="stroke:#000000;stroke-width:0.8;" x="58.523438" xlink:href="#me3289e94ae" y="173.920994"/>
      </g>
     </g>
     <g id="text_9">
      <!-- −0.04 -->
      <g transform="translate(20.878125 177.720213)scale(0.1 -0.1)">
       <use xlink:href="#DejaVuSans-2212"/>
       <use x="83.789062" xlink:href="#DejaVuSans-30"/>
       <use x="147.412109" xlink:href="#DejaVuSans-2e"/>
       <use x="179.199219" xlink:href="#DejaVuSans-30"/>
       <use x="242.822266" xlink:href="#DejaVuSans-34"/>
      </g>
     </g>
    </g>
    <g id="ytick_3">
     <g id="line2d_10">
      <g>
       <use style="stroke:#000000;stroke-width:0.8;" x="58.523438" xlink:href="#me3289e94ae" y="146.767365"/>
      </g>
     </g>
     <g id="text_10">
      <!-- −0.02 -->
      <g transform="translate(20.878125 150.566584)scale(0.1 -0.1)">
       <use xlink:href="#DejaVuSans-2212"/>
       <use x="83.789062" xlink:href="#DejaVuSans-30"/>
       <use x="147.412109" xlink:href="#DejaVuSans-2e"/>
       <use x="179.199219" xlink:href="#DejaVuSans-30"/>
       <use x="242.822266" xlink:href="#DejaVuSans-32"/>
      </g>
     </g>
    </g>
    <g id="ytick_4">
     <g id="line2d_11">
      <g>
       <use style="stroke:#000000;stroke-width:0.8;" x="58.523438" xlink:href="#me3289e94ae" y="119.613736"/>
      </g>
     </g>
     <g id="text_11">
      <!-- 0.00 -->
      <g transform="translate(29.257813 123.412955)scale(0.1 -0.1)">
       <use xlink:href="#DejaVuSans-30"/>
       <use x="63.623047" xlink:href="#DejaVuSans-2e"/>
       <use x="95.410156" xlink:href="#DejaVuSans-30"/>
       <use x="159.033203" xlink:href="#DejaVuSans-30"/>
      </g>
     </g>
    </g>
    <g id="ytick_5">
     <g id="line2d_12">
      <g>
       <use style="stroke:#000000;stroke-width:0.8;" x="58.523438" xlink:href="#me3289e94ae" y="92.460107"/>
      </g>
     </g>
     <g id="text_12">
      <!-- 0.02 -->
      <g transform="translate(29.257813 96.259325)scale(0.1 -0.1)">
       <use xlink:href="#DejaVuSans-30"/>
       <use x="63.623047" xlink:href="#DejaVuSans-2e"/>
       <use x="95.410156" xlink:href="#DejaVuSans-30"/>
       <use x="159.033203" xlink:href="#DejaVuSans-32"/>
      </g>
     </g>
    </g>
    <g id="ytick_6">
     <g id="line2d_13">
      <g>
       <use style="stroke:#000000;stroke-width:0.8;" x="58.523438" xlink:href="#me3289e94ae" y="65.306477"/>
      </g>
     </g>
     <g id="text_13">
      <!-- 0.04 -->
      <g transform="translate(29.257813 69.105696)scale(0.1 -0.1)">
       <use xlink:href="#DejaVuSans-30"/>
       <use x="63.623047" xlink:href="#DejaVuSans-2e"/>
       <use x="95.410156" xlink:href="#DejaVuSans-30"/>
       <use x="159.033203" xlink:href="#DejaVuSans-34"/>
      </g>
     </g>
    </g>
    <g id="ytick_7">
     <g id="line2d_14">
      <g>
       <use style="stroke:#000000;stroke-width:0.8;" x="58.523438" xlink:href="#me3289e94ae" y="38.152848"/>
      </g>
     </g>
     <g id="text_14">
      <!-- 0.06 -->
      <g transform="translate(29.257813 41.952067)scale(0.1 -0.1)">
       <use xlink:href="#DejaVuSans-30"/>
       <use x="63.623047" xlink:href="#DejaVuSans-2e"/>
       <use x="95.410156" xlink:href="#DejaVuSans-30"/>
       <use x="159.033203" xlink:href="#DejaVuSans-36"/>
      </g>
     </g>
    </g>
    <g id="ytick_8">
     <g id="line2d_15">
      <g>
       <use style="stroke:#000000;stroke-width:0.8;" x="58.523438" xlink:href="#me3289e94ae" y="10.999219"/>
      </g>
     </g>
     <g id="text_15">
      <!-- 0.08 -->
      <g transform="translate(29.257813 14.798438)scale(0.1 -0.1)">
       <defs>
        <path d="M 2034 2216 
Q 1584 2216 1326 1975 
Q 1069 1734 1069 1313 
Q 1069 891 1326 650 
Q 1584 409 2034 409 
Q 2484 409 2743 651 
Q 3003 894 3003 1313 
Q 3003 1734 2745 1975 
Q 2488 2216 2034 2216 
z
M 1403 2484 
Q 997 2584 770 2862 
Q 544 3141 544 3541 
Q 544 4100 942 4425 
Q 1341 4750 2034 4750 
Q 2731 4750 3128 4425 
Q 3525 4100 3525 3541 
Q 3525 3141 3298 2862 
Q 3072 2584 2669 2484 
Q 3125 2378 3379 2068 
Q 3634 1759 3634 1313 
Q 3634 634 3220 271 
Q 2806 -91 2034 -91 
Q 1263 -91 848 271 
Q 434 634 434 1313 
Q 434 1759 690 2068 
Q 947 2378 1403 2484 
z
M 1172 3481 
Q 1172 3119 1398 2916 
Q 1625 2713 2034 2713 
Q 2441 2713 2670 2916 
Q 2900 3119 2900 3481 
Q 2900 3844 2670 4047 
Q 2441 4250 2034 4250 
Q 1625 4250 1398 4047 
Q 1172 3844 1172 3481 
z
" id="DejaVuSans-38" transform="scale(0.015625)"/>
       </defs>
       <use xlink:href="#DejaVuSans-30"/>
       <use x="63.623047" xlink:href="#DejaVuSans-2e"/>
       <use x="95.410156" xlink:href="#DejaVuSans-30"/>
       <use x="159.033203" xlink:href="#DejaVuSans-38"/>
      </g>
     </g>
    </g>
    <g id="text_16">
     <!-- Slope, dx/dy -->
     <g transform="translate(14.798438 150.125988)rotate(-90)scale(0.1 -0.1)">
      <defs>
       <path d="M 3425 4513 
L 3425 3897 
Q 3066 4069 2747 4153 
Q 2428 4238 2131 4238 
Q 1616 4238 1336 4038 
Q 1056 3838 1056 3469 
Q 1056 3159 1242 3001 
Q 1428 2844 1947 2747 
L 2328 2669 
Q 3034 2534 3370 2195 
Q 3706 1856 3706 1288 
Q 3706 609 3251 259 
Q 2797 -91 1919 -91 
Q 1588 -91 1214 -16 
Q 841 59 441 206 
L 441 856 
Q 825 641 1194 531 
Q 1563 422 1919 422 
Q 2459 422 2753 634 
Q 3047 847 3047 1241 
Q 3047 1584 2836 1778 
Q 2625 1972 2144 2069 
L 1759 2144 
Q 1053 2284 737 2584 
Q 422 2884 422 3419 
Q 422 4038 858 4394 
Q 1294 4750 2059 4750 
Q 2388 4750 2728 4690 
Q 3069 4631 3425 4513 
z
" id="DejaVuSans-53" transform="scale(0.015625)"/>
       <path d="M 603 4863 
L 1178 4863 
L 1178 0 
L 603 0 
L 603 4863 
z
" id="DejaVuSans-6c" transform="scale(0.015625)"/>
       <path d="M 1959 3097 
Q 1497 3097 1228 2736 
Q 959 2375 959 1747 
Q 959 1119 1226 758 
Q 1494 397 1959 397 
Q 2419 397 2687 759 
Q 2956 1122 2956 1747 
Q 2956 2369 2687 2733 
Q 2419 3097 1959 3097 
z
M 1959 3584 
Q 2709 3584 3137 3096 
Q 3566 2609 3566 1747 
Q 3566 888 3137 398 
Q 2709 -91 1959 -91 
Q 1206 -91 779 398 
Q 353 888 353 1747 
Q 353 2609 779 3096 
Q 1206 3584 1959 3584 
z
" id="DejaVuSans-6f" transform="scale(0.015625)"/>
       <path d="M 1159 525 
L 1159 -1331 
L 581 -1331 
L 581 3500 
L 1159 3500 
L 1159 2969 
Q 1341 3281 1617 3432 
Q 1894 3584 2278 3584 
Q 2916 3584 3314 3078 
Q 3713 2572 3713 1747 
Q 3713 922 3314 415 
Q 2916 -91 2278 -91 
Q 1894 -91 1617 61 
Q 1341 213 1159 525 
z
M 3116 1747 
Q 3116 2381 2855 2742 
Q 2594 3103 2138 3103 
Q 1681 3103 1420 2742 
Q 1159 2381 1159 1747 
Q 1159 1113 1420 752 
Q 1681 391 2138 391 
Q 2594 391 2855 752 
Q 3116 1113 3116 1747 
z
" id="DejaVuSans-70" transform="scale(0.015625)"/>
       <path d="M 3597 1894 
L 3597 1613 
L 953 1613 
Q 991 1019 1311 708 
Q 1631 397 2203 397 
Q 2534 397 2845 478 
Q 3156 559 3463 722 
L 3463 178 
Q 3153 47 2828 -22 
Q 2503 -91 2169 -91 
Q 1331 -91 842 396 
Q 353 884 353 1716 
Q 353 2575 817 3079 
Q 1281 3584 2069 3584 
Q 2775 3584 3186 3129 
Q 3597 2675 3597 1894 
z
M 3022 2063 
Q 3016 2534 2758 2815 
Q 2500 3097 2075 3097 
Q 1594 3097 1305 2825 
Q 1016 2553 972 2059 
L 3022 2063 
z
" id="DejaVuSans-65" transform="scale(0.015625)"/>
       <path d="M 750 794 
L 1409 794 
L 1409 256 
L 897 -744 
L 494 -744 
L 750 256 
L 750 794 
z
" id="DejaVuSans-2c" transform="scale(0.015625)"/>
       <path id="DejaVuSans-20" transform="scale(0.015625)"/>
       <path d="M 2906 2969 
L 2906 4863 
L 3481 4863 
L 3481 0 
L 2906 0 
L 2906 525 
Q 2725 213 2448 61 
Q 2172 -91 1784 -91 
Q 1150 -91 751 415 
Q 353 922 353 1747 
Q 353 2572 751 3078 
Q 1150 3584 1784 3584 
Q 2172 3584 2448 3432 
Q 2725 3281 2906 2969 
z
M 947 1747 
Q 947 1113 1208 752 
Q 1469 391 1925 391 
Q 2381 391 2643 752 
Q 2906 1113 2906 1747 
Q 2906 2381 2643 2742 
Q 2381 3103 1925 3103 
Q 1469 3103 1208 2742 
Q 947 2381 947 1747 
z
" id="DejaVuSans-64" transform="scale(0.015625)"/>
       <path d="M 3513 3500 
L 2247 1797 
L 3578 0 
L 2900 0 
L 1881 1375 
L 863 0 
L 184 0 
L 1544 1831 
L 300 3500 
L 978 3500 
L 1906 2253 
L 2834 3500 
L 3513 3500 
z
" id="DejaVuSans-78" transform="scale(0.015625)"/>
       <path d="M 1625 4666 
L 2156 4666 
L 531 -594 
L 0 -594 
L 1625 4666 
z
" id="DejaVuSans-2f" transform="scale(0.015625)"/>
       <path d="M 2059 -325 
Q 1816 -950 1584 -1140 
Q 1353 -1331 966 -1331 
L 506 -1331 
L 506 -850 
L 844 -850 
Q 1081 -850 1212 -737 
Q 1344 -625 1503 -206 
L 1606 56 
L 191 3500 
L 800 3500 
L 1894 763 
L 2988 3500 
L 3597 3500 
L 2059 -325 
z
" id="DejaVuSans-79" transform="scale(0.015625)"/>
      </defs>
      <use xlink:href="#DejaVuSans-53"/>
      <use x="63.476562" xlink:href="#DejaVuSans-6c"/>
      <use x="91.259766" xlink:href="#DejaVuSans-6f"/>
      <use x="152.441406" xlink:href="#DejaVuSans-70"/>
      <use x="215.917969" xlink:href="#DejaVuSans-65"/>
      <use x="277.441406" xlink:href="#DejaVuSans-2c"/>
      <use x="309.228516" xlink:href="#DejaVuSans-20"/>
      <use x="341.015625" xlink:href="#DejaVuSans-64"/>
      <use x="404.492188" xlink:href="#DejaVuSans-78"/>
      <use x="463.671875" xlink:href="#DejaVuSans-2f"/>
      <use x="497.363281" xlink:href="#DejaVuSans-64"/>
      <use x="560.839844" xlink:href="#DejaVuSans-79"/>
     </g>
    </g>
   </g>
   <g id="line2d_16">
    <path clip-path="url(#p3b7d5f18fe)" d="M 73.741619 170.013223 
L 74.046593 65.117528 
L 74.351566 116.778866 
L 74.961514 98.102168 
L 75.266487 109.144269 
L 75.571461 184.939673 
L 75.876434 70.987891 
L 76.181408 146.810005 
L 76.486382 41.496375 
L 76.791355 117.872513 
L 77.096329 141.601938 
L 77.401302 116.981042 
L 77.706276 142.869613 
L 78.011249 72.914496 
L 78.316223 87.782496 
L 78.621197 139.049536 
L 78.92617 107.424346 
L 79.231144 134.788601 
L 79.536117 119.610531 
L 79.841091 115.020102 
L 80.146065 85.30834 
L 80.451038 88.182612 
L 80.756012 137.887493 
L 81.060985 75.113119 
L 81.365959 177.886876 
L 81.670932 43.258371 
L 81.975906 86.343737 
L 82.28088 172.135198 
L 82.585853 70.511238 
L 82.890827 113.870758 
L 83.1958 120.67909 
L 83.500774 142.148538 
L 83.805748 121.145623 
L 84.110721 47.725382 
L 84.415695 126.46462 
L 84.720668 152.832276 
L 85.025642 108.021973 
L 85.330615 92.905712 
L 85.635589 149.42231 
L 85.940563 44.443862 
L 86.245536 126.613605 
L 86.55051 149.135135 
L 87.160457 83.456385 
L 87.465431 116.876551 
L 87.770404 126.605251 
L 88.075378 43.195884 
L 88.380351 195.321326 
L 88.685325 38.787923 
L 88.990298 186.601668 
L 89.295272 54.400304 
L 89.600246 118.874559 
L 89.905219 148.286828 
L 90.210193 73.974377 
L 90.515166 76.235927 
L 90.82014 193.034399 
L 91.125114 48.089835 
L 91.430087 166.160431 
L 91.735061 128.673164 
L 92.040034 75.967776 
L 92.345008 59.840539 
L 92.649981 124.441482 
L 92.954955 131.321985 
L 93.259929 90.01133 
L 93.564902 140.945148 
L 93.869876 112.302138 
L 94.174849 117.970765 
L 94.479823 143.887593 
L 94.784797 111.27996 
L 95.08977 44.737974 
L 95.394744 191.917084 
L 95.699717 61.267635 
L 96.004691 86.867111 
L 96.309664 97.726235 
L 96.919612 173.362811 
L 97.224585 32.320725 
L 97.529559 146.915303 
L 97.834532 128.983275 
L 98.139506 84.182191 
L 98.44448 81.979425 
L 98.749453 181.526791 
L 99.054427 89.548985 
L 99.3594 121.345115 
L 99.664374 65.059145 
L 99.969348 150.321323 
L 100.274321 69.192168 
L 100.579295 142.543751 
L 100.884268 98.516616 
L 101.189242 113.217834 
L 101.494215 110.826476 
L 101.799189 134.063862 
L 102.104163 69.282594 
L 102.409136 112.584301 
L 102.71411 176.461616 
L 103.019083 104.236034 
L 103.324057 102.991198 
L 103.629031 68.027856 
L 103.934004 176.035611 
L 104.238978 104.144495 
L 104.543951 84.948446 
L 104.848925 159.123106 
L 105.153898 100.75559 
L 105.458872 115.209508 
L 105.763846 73.517 
L 106.068819 139.55341 
L 106.373793 138.455136 
L 106.678766 108.463729 
L 106.98374 41.753383 
L 107.288714 126.222693 
L 107.593687 140.429828 
L 107.898661 92.97616 
L 108.203634 157.982404 
L 108.508608 47.414741 
L 108.813581 109.400352 
L 109.118555 115.891728 
L 109.423529 130.244584 
L 109.728502 126.345537 
L 110.033476 91.238768 
L 110.338449 183.834922 
L 110.643423 66.882741 
L 111.25337 137.499248 
L 111.558344 93.309145 
L 111.863317 144.145657 
L 112.168291 54.96225 
L 112.473264 179.49671 
L 112.778238 81.496602 
L 113.083212 150.582152 
L 113.388185 82.721779 
L 113.693159 107.842781 
L 113.998132 107.245546 
L 114.303106 174.728352 
L 114.60808 90.049179 
L 114.913053 138.360138 
L 115.218027 80.704237 
L 115.523 101.681498 
L 115.827974 74.326533 
L 116.132947 120.451091 
L 116.437921 148.54988 
L 116.742895 141.102476 
L 117.047868 70.601851 
L 117.352842 145.775727 
L 117.657815 137.628953 
L 117.962789 99.072845 
L 118.267763 79.807732 
L 118.572736 88.098778 
L 118.87771 177.738337 
L 119.182683 63.302526 
L 119.487657 180.011642 
L 119.79263 42.241273 
L 120.402578 180.285123 
L 120.707551 87.554912 
L 121.012525 74.74502 
L 121.317498 138.356937 
L 121.622472 77.985356 
L 121.927446 142.504859 
L 122.232419 151.920234 
L 122.537393 53.691408 
L 122.842366 150.888467 
L 123.14734 112.498786 
L 123.452313 139.195484 
L 123.757287 57.359364 
L 124.367234 190.182239 
L 124.672208 78.146489 
L 124.977181 97.202091 
L 125.282155 173.947928 
L 125.587129 47.023239 
L 125.892102 190.064459 
L 126.197076 79.632279 
L 126.502049 153.069512 
L 126.807023 104.406309 
L 127.111996 104.732658 
L 127.41697 103.063839 
L 127.721944 62.77224 
L 128.026917 142.866638 
L 128.331891 120.346089 
L 128.636864 128.550444 
L 128.941838 145.883715 
L 129.246812 125.415866 
L 129.551785 116.457404 
L 129.856759 121.676475 
L 130.161732 71.086749 
L 130.466706 91.691551 
L 130.771679 140.279493 
L 131.076653 122.103528 
L 131.381627 67.46796 
L 131.6866 195.232622 
L 131.991574 94.721655 
L 132.296547 134.592147 
L 132.601521 97.54203 
L 132.906495 101.825279 
L 133.211468 92.466626 
L 133.516442 162.53296 
L 133.821415 139.826239 
L 134.126389 58.482041 
L 134.431362 140.140151 
L 134.736336 78.174228 
L 135.04131 144.645622 
L 135.346283 96.550194 
L 135.651257 98.531969 
L 135.95623 129.077045 
L 136.261204 106.780876 
L 136.566178 190.84122 
L 136.871151 91.466268 
L 137.176125 113.537076 
L 137.481098 83.817917 
L 137.786072 151.820114 
L 138.091045 157.343672 
L 138.396019 50.105507 
L 138.700993 167.142836 
L 139.005966 99.193873 
L 139.31094 97.395322 
L 139.615913 172.230284 
L 140.225861 81.322291 
L 140.530834 139.924334 
L 140.835808 132.835029 
L 141.140781 62.282559 
L 141.445755 160.889256 
L 141.750728 50.184813 
L 142.360676 188.546907 
L 142.665649 89.128242 
L 142.970623 113.727886 
L 143.275596 112.901653 
L 143.58057 97.234522 
L 143.885544 181.522368 
L 144.190517 115.582336 
L 144.495491 110.336832 
L 144.800464 97.66415 
L 145.105438 116.286303 
L 145.410411 168.033536 
L 145.715385 100.732278 
L 146.020359 111.117987 
L 146.325332 126.928992 
L 146.630306 85.518862 
L 146.935279 172.472449 
L 147.240253 52.762661 
L 147.545227 168.317463 
L 147.8502 47.907808 
L 148.155174 206.75326 
L 148.460147 117.412597 
L 148.765121 77.619426 
L 149.070094 119.415216 
L 149.375068 145.495961 
L 149.680042 88.516851 
L 149.985015 163.851835 
L 150.289989 74.969948 
L 150.594962 170.000173 
L 150.899936 55.73133 
L 151.509883 181.449751 
L 151.814857 51.614443 
L 152.11983 168.432748 
L 152.424804 83.419176 
L 152.729777 105.089602 
L 153.034751 177.728781 
L 153.339725 78.113677 
L 153.644698 180.153007 
L 153.949672 82.629636 
L 154.254645 154.140942 
L 154.559619 100.21188 
L 154.864593 139.087019 
L 155.169566 72.122022 
L 155.47454 123.968296 
L 155.779513 93.138166 
L 156.084487 197.648095 
L 156.38946 75.855409 
L 156.694434 104.964316 
L 156.999408 162.314448 
L 157.304381 120.625205 
L 157.609355 95.350114 
L 157.914328 90.478323 
L 158.219302 198.113759 
L 158.524276 103.011646 
L 158.829249 136.995444 
L 159.134223 85.505828 
L 159.439196 151.739647 
L 159.74417 135.47463 
L 160.049143 36.092324 
L 160.354117 175.924633 
L 160.659091 119.764691 
L 160.964064 128.637372 
L 161.269038 153.401297 
L 161.574011 48.381666 
L 161.878985 170.252049 
L 162.183959 56.427742 
L 162.488932 193.928609 
L 162.793906 98.087945 
L 163.098879 104.718102 
L 163.403853 155.07251 
L 163.708826 96.901378 
L 164.0138 102.888253 
L 164.318774 137.254487 
L 164.623747 155.565886 
L 164.928721 133.526847 
L 165.233694 57.701252 
L 165.538668 111.621038 
L 165.843642 189.398427 
L 166.148615 101.059249 
L 166.453589 155.007984 
L 166.758562 126.463595 
L 167.063536 64.423531 
L 167.368509 105.573705 
L 167.673483 123.949638 
L 167.978457 157.540959 
L 168.28343 137.972131 
L 168.588404 80.324572 
L 168.893377 167.860459 
L 169.198351 74.230404 
L 169.808298 146.53619 
L 170.113272 129.310367 
L 170.418245 120.436612 
L 170.723219 118.635399 
L 171.028192 171.945346 
L 171.333166 82.128618 
L 171.63814 97.638494 
L 171.943113 180.038203 
L 172.248087 67.019694 
L 172.55306 171.290145 
L 172.858034 80.954045 
L 173.163008 191.146823 
L 173.467981 74.498951 
L 173.772955 176.606947 
L 174.077928 67.875407 
L 174.382902 127.914306 
L 174.687875 93.304777 
L 175.297823 166.830171 
L 175.602796 103.491537 
L 175.90777 166.152473 
L 176.212743 93.418482 
L 176.517717 145.070495 
L 176.822691 149.819644 
L 177.127664 63.722274 
L 177.432638 134.212328 
L 177.737611 164.276381 
L 178.347558 83.748775 
L 178.652532 110.692779 
L 178.957506 182.634062 
L 179.262479 73.15131 
L 179.872426 159.46766 
L 180.1774 109.06303 
L 180.482374 106.087222 
L 180.787347 162.797108 
L 181.092321 105.40494 
L 181.397294 143.602105 
L 181.702268 91.000875 
L 182.007241 161.45402 
L 182.312215 61.1674 
L 182.617189 186.260179 
L 182.922162 64.675482 
L 183.227136 177.232009 
L 183.532109 74.563152 
L 183.837083 136.689945 
L 184.142057 114.894532 
L 184.44703 155.465563 
L 184.752004 90.264474 
L 185.056977 157.059699 
L 185.361951 158.767289 
L 185.666924 88.952276 
L 185.971898 136.072028 
L 186.276872 95.453452 
L 186.886819 163.78917 
L 187.191792 76.49742 
L 187.496766 187.792546 
L 187.80174 60.214619 
L 188.106713 136.632494 
L 188.411687 159.457069 
L 188.71666 150.989824 
L 189.021634 128.886627 
L 189.326607 45.922331 
L 189.631581 198.003963 
L 189.936555 88.130892 
L 190.546502 164.348289 
L 190.851475 50.690662 
L 191.156449 140.978651 
L 191.461423 178.621243 
L 191.766396 47.315303 
L 192.07137 166.80676 
L 192.376343 85.844083 
L 192.681317 202.208767 
L 193.291264 57.166721 
L 193.596238 120.240269 
L 193.901211 156.671985 
L 194.206185 166.42091 
L 194.511158 47.30714 
L 194.816132 154.617859 
L 195.121106 101.492354 
L 195.426079 138.206855 
L 195.731053 122.759083 
L 196.036026 131.794421 
L 196.341 163.041791 
L 196.645973 161.305809 
L 196.950947 75.199219 
L 197.255921 117.838605 
L 197.560894 101.246256 
L 197.865868 123.580462 
L 198.170841 215.950606 
L 198.475815 57.024271 
L 198.780789 183.586084 
L 199.085762 136.916885 
L 199.695709 107.295381 
L 200.000683 65.654642 
L 200.305656 206.204414 
L 200.61063 109.529089 
L 200.915604 65.238864 
L 201.220577 131.599593 
L 201.525551 166.399796 
L 201.830524 163.479187 
L 202.135498 47.42331 
L 202.440472 183.37595 
L 202.745445 154.379149 
L 203.050419 69.886483 
L 203.355392 154.64265 
L 203.660366 78.472258 
L 203.965339 146.405066 
L 204.270313 134.495978 
L 204.575287 153.124775 
L 204.88026 100.942772 
L 205.185234 128.717316 
L 205.490207 138.221754 
L 205.795181 94.656168 
L 206.100155 130.348147 
L 206.405128 201.141023 
L 206.710102 84.23064 
L 207.625022 167.717156 
L 207.929996 113.385865 
L 208.23497 82.278184 
L 208.844917 135.973505 
L 209.14989 163.375275 
L 209.454864 163.259384 
L 209.759838 98.416054 
L 210.064811 129.337466 
L 210.369785 89.162973 
L 210.674758 143.812857 
L 210.979732 118.423897 
L 211.284705 129.797996 
L 211.589679 170.425574 
L 211.894653 84.650327 
L 212.199626 161.570049 
L 212.5046 115.622898 
L 212.809573 122.670153 
L 213.114547 104.809725 
L 213.419521 128.689522 
L 213.724494 195.812794 
L 214.029468 114.026692 
L 214.334441 104.722255 
L 214.639415 121.339513 
L 214.944388 123.365363 
L 215.249362 111.844191 
L 215.554336 190.709224 
L 215.859309 102.370014 
L 216.164283 84.978657 
L 216.469256 177.930799 
L 216.77423 63.101012 
L 217.079204 176.693187 
L 217.384177 94.383966 
L 217.689151 123.924794 
L 217.994124 197.445281 
L 218.299098 65.928686 
L 218.604071 160.16086 
L 218.909045 151.312789 
L 219.214019 138.69657 
L 219.518992 66.521643 
L 219.823966 143.99739 
L 220.128939 142.674302 
L 220.433913 71.313518 
L 220.738887 177.722199 
L 221.04386 162.386119 
L 221.348834 101.022121 
L 221.653807 93.022498 
L 221.958781 137.698087 
L 222.263754 105.933993 
L 222.568728 155.716235 
L 222.873702 111.2675 
L 223.178675 179.465396 
L 223.483649 149.963056 
L 223.788622 99.041289 
L 224.093596 139.970422 
L 224.39857 135.977512 
L 224.703543 94.69316 
L 225.618464 159.830113 
L 225.923438 120.741409 
L 226.228411 53.059479 
L 226.533385 186.431776 
L 226.838358 69.607154 
L 227.143332 217.959226 
L 227.448305 110.483946 
L 227.753279 77.156076 
L 228.058253 155.57085 
L 228.6682 88.357869 
L 228.973173 140.360971 
L 229.278147 164.23682 
L 229.583121 87.488477 
L 230.193068 173.069618 
L 230.498041 146.787569 
L 230.803015 46.813449 
L 231.412962 186.544885 
L 231.717936 94.874018 
L 232.022909 180.964431 
L 232.327883 92.670369 
L 232.632856 137.059663 
L 232.93783 110.093022 
L 233.547777 132.535502 
L 233.852751 131.568267 
L 234.157724 166.091575 
L 234.767671 71.942018 
L 235.072645 114.499193 
L 235.377619 138.42363 
L 235.682592 176.596513 
L 235.987566 133.389262 
L 236.292539 68.022258 
L 236.597513 128.050999 
L 236.902487 142.915663 
L 237.20746 165.548527 
L 237.512434 119.536062 
L 237.817407 97.422842 
L 238.122381 132.642481 
L 238.427354 181.870849 
L 238.732328 98.76548 
L 239.037302 87.643503 
L 239.342275 190.148427 
L 239.647249 112.476238 
L 239.952222 122.043547 
L 240.257196 152.400878 
L 240.56217 53.101504 
L 240.867143 183.803709 
L 241.172117 108.553919 
L 241.47709 146.996425 
L 241.782064 160.521201 
L 242.087037 77.049719 
L 242.392011 120.99382 
L 242.696985 118.107831 
L 243.001958 109.926678 
L 243.306932 177.805675 
L 243.916879 80.546289 
L 244.221853 173.793697 
L 244.526826 82.186514 
L 244.8318 204.724484 
L 245.136773 118.671117 
L 245.441747 77.984012 
L 245.74672 121.900413 
L 246.051694 184.254087 
L 246.356668 134.490664 
L 246.661641 109.690463 
L 246.966615 128.89612 
L 247.271588 137.203277 
L 247.576562 138.972434 
L 247.881536 87.835295 
L 248.186509 84.990672 
L 248.796456 139.914255 
L 249.10143 201.478008 
L 249.406403 104.996212 
L 249.711377 66.873899 
L 250.016351 163.420057 
L 250.321324 144.76993 
L 250.626298 87.539148 
L 250.931271 124.130605 
L 251.236245 200.346668 
L 251.541219 104.31477 
L 251.846192 61.43017 
L 252.151166 140.714632 
L 252.456139 140.70867 
L 252.761113 176.795839 
L 253.066086 103.417134 
L 253.37106 72.081345 
L 253.676034 175.10227 
L 253.981007 117.670893 
L 254.285981 153.100691 
L 254.590954 68.456612 
L 254.895928 141.925718 
L 255.200902 115.332091 
L 255.505875 155.999286 
L 255.810849 101.077408 
L 256.115822 189.279279 
L 256.420796 78.328914 
L 256.725769 161.399027 
L 257.030743 75.342733 
L 257.335717 151.931389 
L 257.64069 105.718359 
L 257.945664 125.500159 
L 258.250637 123.695157 
L 258.555611 119.795976 
L 258.860585 135.53955 
L 259.165558 193.117736 
L 259.470532 101.456254 
L 259.775505 111.594185 
L 260.080479 129.871322 
L 260.385452 131.980597 
L 260.690426 97.261636 
L 260.9954 148.917597 
L 261.300373 142.982262 
L 261.91032 121.616884 
L 262.215294 75.861667 
L 262.520268 181.87546 
L 262.825241 86.744785 
L 263.130215 173.033884 
L 263.435188 40.474353 
L 263.740162 158.594817 
L 264.045135 153.577752 
L 264.350109 145.094099 
L 264.655083 92.356992 
L 264.960056 161.98858 
L 265.26503 112.08297 
L 265.874977 123.291157 
L 266.179951 95.857954 
L 266.484924 113.354662 
L 266.789898 155.91114 
L 267.094871 102.224837 
L 267.399845 114.39654 
L 267.704818 189.260596 
L 268.009792 101.675495 
L 268.314766 160.64448 
L 268.619739 32.207484 
L 268.924713 132.274306 
L 269.229686 127.179674 
L 269.53466 173.654616 
L 269.839634 151.936902 
L 270.144607 70.702886 
L 270.449581 103.99344 
L 270.754554 184.364157 
L 271.059528 111.967393 
L 271.364501 106.758371 
L 271.669475 179.015703 
L 271.974449 95.232289 
L 272.279422 73.053856 
L 272.889369 193.740421 
L 273.194343 40.841542 
L 273.80429 202.957985 
L 274.109264 102.37603 
L 274.414237 72.735463 
L 274.719211 181.936113 
L 275.024184 86.641854 
L 275.329158 161.835824 
L 275.634132 58.51883 
L 276.244079 191.335949 
L 276.549052 85.144492 
L 277.159 116.356799 
L 277.463973 204.503126 
L 278.07392 68.269536 
L 278.683867 164.490201 
L 278.988841 78.925061 
L 279.293815 177.088947 
L 279.598788 81.300382 
L 279.903762 121.907182 
L 280.208735 143.690259 
L 280.513709 127.563446 
L 280.818683 123.809429 
L 281.123656 128.816457 
L 281.42863 145.915421 
L 281.733603 88.296035 
L 282.34355 129.689316 
L 282.648524 152.46573 
L 282.953498 92.652912 
L 283.258471 163.6187 
L 283.563445 62.172759 
L 283.868418 158.348301 
L 284.173392 134.394542 
L 284.478366 89.326315 
L 284.783339 117.531325 
L 285.088313 124.225505 
L 285.393286 108.958248 
L 285.69826 156.649619 
L 286.003233 84.57972 
L 286.308207 148.33205 
L 286.613181 104.018337 
L 286.918154 193.874857 
L 287.223128 40.894965 
L 287.528101 112.132309 
L 287.833075 121.611155 
L 288.138049 156.977361 
L 288.443022 176.463009 
L 288.747996 87.762078 
L 289.052969 136.396903 
L 289.357943 79.424695 
L 289.662916 139.596996 
L 289.96789 99.344411 
L 290.272864 105.644037 
L 290.577837 165.901505 
L 290.882811 101.398871 
L 291.187784 160.747107 
L 291.492758 96.454556 
L 292.102705 126.425195 
L 292.407679 128.552279 
L 292.712652 112.936381 
L 293.017626 141.366678 
L 293.322599 139.34468 
L 293.627573 45.861754 
L 294.23752 208.924595 
L 294.542494 98.255644 
L 294.847467 139.436384 
L 295.152441 42.025214 
L 295.457415 187.311719 
L 296.067362 58.42619 
L 296.372335 178.257886 
L 296.677309 67.408893 
L 296.982282 159.130267 
L 297.287256 96.958367 
L 297.59223 135.973069 
L 297.897203 152.197239 
L 298.202177 110.716332 
L 298.812124 99.925251 
L 299.117098 90.492233 
L 299.422071 176.456979 
L 299.727045 139.820084 
L 300.032018 88.047224 
L 300.336992 69.917717 
L 300.641965 152.168989 
L 300.946939 90.155783 
L 301.251913 176.270466 
L 301.556886 87.586624 
L 301.86186 93.799816 
L 302.166833 196.098836 
L 302.471807 79.572169 
L 302.776781 125.462255 
L 303.081754 113.667267 
L 303.386728 110.117002 
L 303.691701 112.795561 
L 303.996675 173.98513 
L 304.301648 55.845026 
L 304.911596 155.858205 
L 305.216569 72.604204 
L 305.521543 203.722845 
L 305.826516 124.109411 
L 306.13149 102.179985 
L 306.436464 123.775186 
L 306.741437 116.310459 
L 307.046411 66.68312 
L 307.351384 138.773367 
L 307.656358 105.08144 
L 307.961331 174.517717 
L 308.266305 54.208477 
L 308.571279 121.823586 
L 308.876252 136.888534 
L 309.181226 143.889984 
L 309.486199 130.928522 
L 309.791173 126.339798 
L 310.096147 61.039621 
L 310.40112 155.381383 
L 310.706094 75.606516 
L 311.011067 155.415164 
L 311.316041 105.627194 
L 311.621014 119.689926 
L 311.925988 70.290942 
L 312.230962 175.22368 
L 312.535935 101.966611 
L 312.840909 144.890722 
L 313.145882 77.235706 
L 313.450856 160.395501 
L 313.75583 55.01273 
L 314.060803 190.562042 
L 314.365777 44.422895 
L 314.67075 138.250526 
L 314.975724 80.921024 
L 315.280697 154.315489 
L 315.585671 87.213624 
L 315.890645 183.610078 
L 316.195618 132.825391 
L 316.500592 48.123454 
L 316.805565 131.359395 
L 317.110539 90.776973 
L 317.415513 159.590427 
L 317.720486 102.834683 
L 318.02546 165.932481 
L 318.330433 71.496922 
L 318.635407 135.905023 
L 318.94038 117.820067 
L 319.245354 77.85569 
L 319.550328 133.432517 
L 319.855301 164.377269 
L 320.160275 107.072503 
L 320.465248 98.315772 
L 320.770222 136.107993 
L 321.075196 126.558077 
L 321.380169 82.843849 
L 321.685143 64.211259 
L 321.990116 184.9523 
L 322.29509 89.227538 
L 322.600063 124.684082 
L 322.905037 100.343787 
L 323.210011 115.087423 
L 323.514984 163.965474 
L 323.819958 42.189225 
L 324.124931 115.21707 
L 324.429905 128.307452 
L 324.734879 176.662607 
L 325.039852 96.828865 
L 325.344826 125.458019 
L 325.649799 66.675398 
L 325.954773 97.819587 
L 326.259746 187.459416 
L 326.56472 65.645303 
L 326.869694 176.306734 
L 327.174667 80.679879 
L 327.479641 151.996075 
L 327.784614 25.099346 
L 328.089588 157.775919 
L 328.394562 107.842769 
L 328.699535 140.319015 
L 329.004509 77.975741 
L 329.309482 112.787687 
L 329.614456 168.555138 
L 329.919429 57.102577 
L 330.224403 167.635825 
L 330.529377 99.980315 
L 330.83435 99.447161 
L 331.139324 126.796721 
L 331.444297 109.297254 
L 331.749271 113.981749 
L 332.359218 128.413752 
L 332.664192 70.951487 
L 332.969165 143.567359 
L 333.274139 147.888241 
L 333.579112 71.648468 
L 334.18906 162.8783 
L 334.494033 20.286499 
L 334.799007 160.423074 
L 335.10398 97.988359 
L 335.408954 101.625797 
L 335.713928 114.469785 
L 336.018901 147.640616 
L 336.323875 133.237761 
L 336.628848 70.355799 
L 336.933822 143.140248 
L 338.153716 77.368765 
L 338.45869 123.329747 
L 338.763663 134.644076 
L 339.068637 156.252209 
L 339.373611 114.676809 
L 339.678584 31.576319 
L 339.983558 152.246608 
L 340.288531 162.131185 
L 340.898478 33.888834 
L 341.203452 132.057991 
L 341.508426 137.380348 
L 341.813399 162.783652 
L 342.118373 40.248168 
L 342.423346 166.879022 
L 343.033294 67.528618 
L 343.338267 133.611078 
L 343.643241 139.064295 
L 343.948214 100.959092 
L 344.253188 78.166113 
L 344.558161 95.366731 
L 344.863135 189.54196 
L 345.168109 80.630926 
L 345.473082 62.557627 
L 345.778056 161.474507 
L 346.388003 105.652589 
L 346.692977 70.034012 
L 347.302924 119.528572 
L 347.607897 124.168207 
L 347.912871 169.077033 
L 348.217844 116.879021 
L 348.522818 42.611598 
L 348.827792 132.396341 
L 349.132765 82.843627 
L 349.742712 138.243738 
L 350.047686 100.628862 
L 350.35266 99.256239 
L 350.657633 147.692757 
L 350.962607 146.498927 
L 351.26758 65.912185 
L 351.572554 75.349645 
L 351.877527 199.996183 
L 352.182501 60.151302 
L 352.487475 103.221691 
L 352.792448 164.89073 
L 353.097422 55.284122 
L 353.707369 157.767807 
L 354.012343 51.635431 
L 354.317316 122.465195 
L 354.62229 101.969066 
L 354.927263 168.181083 
L 355.232237 91.236311 
L 355.537211 138.697757 
L 355.842184 61.02195 
L 356.147158 170.954541 
L 356.452131 41.590549 
L 356.757105 106.532253 
L 357.062078 118.465059 
L 357.367052 150.480487 
L 357.672026 116.405451 
L 357.976999 112.890886 
L 358.281973 60.649699 
L 358.586946 200.347189 
L 358.89192 104.614063 
L 359.196894 71.6078 
L 359.501867 136.640388 
L 359.806841 126.171633 
L 360.111814 40.928792 
L 360.416788 167.760117 
L 360.721761 100.714089 
L 361.026735 123.372081 
L 361.331709 122.645184 
L 361.636682 35.549968 
L 361.941656 201.080577 
L 362.246629 91.975197 
L 362.551603 66.431897 
L 362.856577 142.234082 
L 363.16155 109.913567 
L 363.466524 128.970784 
L 363.771497 116.0448 
L 364.076471 90.582504 
L 364.381444 104.020987 
L 364.686418 130.212158 
L 364.991392 96.467861 
L 365.296365 92.436288 
L 365.601339 79.948313 
L 365.906312 163.132896 
L 366.211286 55.541507 
L 366.51626 131.663039 
L 366.821233 107.296519 
L 367.126207 102.941036 
L 367.43118 168.627872 
L 367.736154 109.882424 
L 368.041127 76.963655 
L 368.346101 150.053875 
L 368.651075 95.735913 
L 368.956048 77.63256 
L 369.261022 184.332589 
L 369.565995 46.202373 
L 370.175943 163.846206 
L 370.480916 67.411298 
L 371.090863 123.313177 
L 371.395837 152.007869 
L 371.70081 68.359299 
L 372.005784 162.108203 
L 372.310758 40.0302 
L 372.615731 111.07592 
L 372.920705 143.281081 
L 373.225678 135.401773 
L 373.530652 80.022163 
L 373.835626 128.818201 
L 374.140599 130.601004 
L 374.445573 137.302513 
L 374.750546 93.969456 
L 375.05552 88.407506 
L 375.360493 128.73233 
L 375.665467 112.406643 
L 375.970441 75.008688 
L 376.275414 143.613207 
L 376.580388 58.09264 
L 376.885361 134.848198 
L 377.190335 141.285156 
L 377.495309 51.734842 
L 377.800282 180.112026 
L 378.105256 77.904021 
L 378.105256 77.904021 
" style="fill:none;stroke:#1f77b4;stroke-linecap:square;stroke-width:1.5;"/>
   </g>
   <g id="line2d_17">
    <path clip-path="url(#p3b7d5f18fe)" d="M 73.741619 111.074689 
L 81.670932 111.192977 
L 89.600246 111.535942 
L 97.834532 112.120034 
L 106.373793 112.953182 
L 115.523 114.073658 
L 125.892102 115.578819 
L 138.396019 117.631424 
L 178.042585 124.317254 
L 188.106713 125.684921 
L 197.255921 126.703456 
L 205.795181 127.427633 
L 214.029468 127.897225 
L 221.958781 128.124298 
L 229.888094 128.124298 
L 237.817407 127.897225 
L 245.74672 127.449137 
L 253.981007 126.762762 
L 262.825241 125.797134 
L 272.279422 124.539014 
L 283.258471 122.847361 
L 298.202177 120.297759 
L 323.514984 115.962425 
L 334.799007 114.280708 
L 344.253188 113.089707 
L 353.097422 112.19861 
L 361.331709 111.589617 
L 369.261022 111.221204 
L 377.190335 111.076715 
L 378.105256 111.074689 
L 378.105256 111.074689 
" style="fill:none;stroke:#ff7f0e;stroke-linecap:square;stroke-width:1.5;"/>
   </g>
   <g id="patch_3">
    <path d="M 58.523438 227.842863 
L 58.523438 10.402863 
" style="fill:none;stroke:#000000;stroke-linecap:square;stroke-linejoin:miter;stroke-width:0.8;"/>
   </g>
   <g id="patch_4">
    <path d="M 393.323438 227.842863 
L 393.323438 10.402863 
" style="fill:none;stroke:#000000;stroke-linecap:square;stroke-linejoin:miter;stroke-width:0.8;"/>
   </g>
   <g id="patch_5">
    <path d="M 58.523438 227.842863 
L 393.323438 227.842863 
" style="fill:none;stroke:#000000;stroke-linecap:square;stroke-linejoin:miter;stroke-width:0.8;"/>
   </g>
   <g id="patch_6">
    <path d="M 58.523438 10.402863 
L 393.323438 10.402863 
" style="fill:none;stroke:#000000;stroke-linecap:square;stroke-linejoin:miter;stroke-width:0.8;"/>
   </g>
   <g id="legend_1">
    <g id="patch_7">
     <path d="M 288.684375 222.842863 
L 386.323438 222.842863 
Q 388.323438 222.842863 388.323438 220.842863 
L 388.323438 192.486613 
Q 388.323438 190.486613 386.323438 190.486613 
L 288.684375 190.486613 
Q 286.684375 190.486613 286.684375 192.486613 
L 286.684375 220.842863 
Q 286.684375 222.842863 288.684375 222.842863 
z
" style="fill:#ffffff;opacity:0.8;stroke:#cccccc;stroke-linejoin:miter;"/>
    </g>
    <g id="line2d_18">
     <path d="M 290.684375 198.58505 
L 310.684375 198.58505 
" style="fill:none;stroke:#1f77b4;stroke-linecap:square;stroke-width:1.5;"/>
    </g>
    <g id="line2d_19"/>
    <g id="text_17">
     <!-- Noisy Data -->
     <g transform="translate(318.684375 202.08505)scale(0.1 -0.1)">
      <defs>
       <path d="M 628 4666 
L 1478 4666 
L 3547 763 
L 3547 4666 
L 4159 4666 
L 4159 0 
L 3309 0 
L 1241 3903 
L 1241 0 
L 628 0 
L 628 4666 
z
" id="DejaVuSans-4e" transform="scale(0.015625)"/>
       <path d="M 603 3500 
L 1178 3500 
L 1178 0 
L 603 0 
L 603 3500 
z
M 603 4863 
L 1178 4863 
L 1178 4134 
L 603 4134 
L 603 4863 
z
" id="DejaVuSans-69" transform="scale(0.015625)"/>
       <path d="M 2834 3397 
L 2834 2853 
Q 2591 2978 2328 3040 
Q 2066 3103 1784 3103 
Q 1356 3103 1142 2972 
Q 928 2841 928 2578 
Q 928 2378 1081 2264 
Q 1234 2150 1697 2047 
L 1894 2003 
Q 2506 1872 2764 1633 
Q 3022 1394 3022 966 
Q 3022 478 2636 193 
Q 2250 -91 1575 -91 
Q 1294 -91 989 -36 
Q 684 19 347 128 
L 347 722 
Q 666 556 975 473 
Q 1284 391 1588 391 
Q 1994 391 2212 530 
Q 2431 669 2431 922 
Q 2431 1156 2273 1281 
Q 2116 1406 1581 1522 
L 1381 1569 
Q 847 1681 609 1914 
Q 372 2147 372 2553 
Q 372 3047 722 3315 
Q 1072 3584 1716 3584 
Q 2034 3584 2315 3537 
Q 2597 3491 2834 3397 
z
" id="DejaVuSans-73" transform="scale(0.015625)"/>
       <path d="M 1259 4147 
L 1259 519 
L 2022 519 
Q 2988 519 3436 956 
Q 3884 1394 3884 2338 
Q 3884 3275 3436 3711 
Q 2988 4147 2022 4147 
L 1259 4147 
z
M 628 4666 
L 1925 4666 
Q 3281 4666 3915 4102 
Q 4550 3538 4550 2338 
Q 4550 1131 3912 565 
Q 3275 0 1925 0 
L 628 0 
L 628 4666 
z
" id="DejaVuSans-44" transform="scale(0.015625)"/>
       <path d="M 2194 1759 
Q 1497 1759 1228 1600 
Q 959 1441 959 1056 
Q 959 750 1161 570 
Q 1363 391 1709 391 
Q 2188 391 2477 730 
Q 2766 1069 2766 1631 
L 2766 1759 
L 2194 1759 
z
M 3341 1997 
L 3341 0 
L 2766 0 
L 2766 531 
Q 2569 213 2275 61 
Q 1981 -91 1556 -91 
Q 1019 -91 701 211 
Q 384 513 384 1019 
Q 384 1609 779 1909 
Q 1175 2209 1959 2209 
L 2766 2209 
L 2766 2266 
Q 2766 2663 2505 2880 
Q 2244 3097 1772 3097 
Q 1472 3097 1187 3025 
Q 903 2953 641 2809 
L 641 3341 
Q 956 3463 1253 3523 
Q 1550 3584 1831 3584 
Q 2591 3584 2966 3190 
Q 3341 2797 3341 1997 
z
" id="DejaVuSans-61" transform="scale(0.015625)"/>
       <path d="M 1172 4494 
L 1172 3500 
L 2356 3500 
L 2356 3053 
L 1172 3053 
L 1172 1153 
Q 1172 725 1289 603 
Q 1406 481 1766 481 
L 2356 481 
L 2356 0 
L 1766 0 
Q 1100 0 847 248 
Q 594 497 594 1153 
L 594 3053 
L 172 3053 
L 172 3500 
L 594 3500 
L 594 4494 
L 1172 4494 
z
" id="DejaVuSans-74" transform="scale(0.015625)"/>
      </defs>
      <use xlink:href="#DejaVuSans-4e"/>
      <use x="74.804688" xlink:href="#DejaVuSans-6f"/>
      <use x="135.986328" xlink:href="#DejaVuSans-69"/>
      <use x="163.769531" xlink:href="#DejaVuSans-73"/>
      <use x="215.869141" xlink:href="#DejaVuSans-79"/>
      <use x="275.048828" xlink:href="#DejaVuSans-20"/>
      <use x="306.835938" xlink:href="#DejaVuSans-44"/>
      <use x="383.837891" xlink:href="#DejaVuSans-61"/>
      <use x="445.117188" xlink:href="#DejaVuSans-74"/>
      <use x="484.326172" xlink:href="#DejaVuSans-61"/>
     </g>
    </g>
    <g id="line2d_20">
     <path d="M 290.684375 213.263175 
L 310.684375 213.263175 
" style="fill:none;stroke:#ff7f0e;stroke-linecap:square;stroke-width:1.5;"/>
    </g>
    <g id="line2d_21"/>
    <g id="text_18">
     <!-- Smooth Data -->
     <g transform="translate(318.684375 216.763175)scale(0.1 -0.1)">
      <defs>
       <path d="M 3328 2828 
Q 3544 3216 3844 3400 
Q 4144 3584 4550 3584 
Q 5097 3584 5394 3201 
Q 5691 2819 5691 2113 
L 5691 0 
L 5113 0 
L 5113 2094 
Q 5113 2597 4934 2840 
Q 4756 3084 4391 3084 
Q 3944 3084 3684 2787 
Q 3425 2491 3425 1978 
L 3425 0 
L 2847 0 
L 2847 2094 
Q 2847 2600 2669 2842 
Q 2491 3084 2119 3084 
Q 1678 3084 1418 2786 
Q 1159 2488 1159 1978 
L 1159 0 
L 581 0 
L 581 3500 
L 1159 3500 
L 1159 2956 
Q 1356 3278 1631 3431 
Q 1906 3584 2284 3584 
Q 2666 3584 2933 3390 
Q 3200 3197 3328 2828 
z
" id="DejaVuSans-6d" transform="scale(0.015625)"/>
       <path d="M 3513 2113 
L 3513 0 
L 2938 0 
L 2938 2094 
Q 2938 2591 2744 2837 
Q 2550 3084 2163 3084 
Q 1697 3084 1428 2787 
Q 1159 2491 1159 1978 
L 1159 0 
L 581 0 
L 581 4863 
L 1159 4863 
L 1159 2956 
Q 1366 3272 1645 3428 
Q 1925 3584 2291 3584 
Q 2894 3584 3203 3211 
Q 3513 2838 3513 2113 
z
" id="DejaVuSans-68" transform="scale(0.015625)"/>
      </defs>
      <use xlink:href="#DejaVuSans-53"/>
      <use x="63.476562" xlink:href="#DejaVuSans-6d"/>
      <use x="160.888672" xlink:href="#DejaVuSans-6f"/>
      <use x="222.070312" xlink:href="#DejaVuSans-6f"/>
      <use x="283.251953" xlink:href="#DejaVuSans-74"/>
      <use x="322.460938" xlink:href="#DejaVuSans-68"/>
      <use x="385.839844" xlink:href="#DejaVuSans-20"/>
      <use x="417.626953" xlink:href="#DejaVuSans-44"/>
      <use x="494.628906" xlink:href="#DejaVuSans-61"/>
      <use x="555.908203" xlink:href="#DejaVuSans-74"/>
      <use x="595.117188" xlink:href="#DejaVuSans-61"/>
     </g>
    </g>
   </g>
  </g>
 </g>
 <defs>
  <clipPath id="p3b7d5f18fe">
   <rect height="217.44" width="334.8" x="58.523438" y="10.402863"/>
  </clipPath>
 </defs>
</svg>
