<?xml version="1.0" encoding="utf-8" standalone="no"?>
<!DOCTYPE svg PUBLIC "-//W3C//DTD SVG 1.1//EN"
  "http://www.w3.org/Graphics/SVG/1.1/DTD/svg11.dtd">
<svg xmlns:xlink="http://www.w3.org/1999/xlink" width="375.2875pt" height="248.518125pt" viewBox="0 0 375.2875 248.518125" xmlns="http://www.w3.org/2000/svg" version="1.1">
 <metadata>
  <rdf:RDF xmlns:dc="http://purl.org/dc/elements/1.1/" xmlns:cc="http://creativecommons.org/ns#" xmlns:rdf="http://www.w3.org/1999/02/22-rdf-syntax-ns#">
   <cc:Work>
    <dc:type rdf:resource="http://purl.org/dc/dcmitype/StillImage"/>
    <dc:date>2022-07-19T10:16:22.319102</dc:date>
    <dc:format>image/svg+xml</dc:format>
    <dc:creator>
     <cc:Agent>
      <dc:title>Matplotlib v3.5.2, https://matplotlib.org/</dc:title>
     </cc:Agent>
    </dc:creator>
   </cc:Work>
  </rdf:RDF>
 </metadata>
 <defs>
  <style type="text/css">*{stroke-linejoin: round; stroke-linecap: butt}</style>
 </defs>
 <g id="figure_1">
  <g id="patch_1">
   <path d="M 0 248.518125 
L 375.2875 248.518125 
L 375.2875 0 
L 0 0 
L 0 248.518125 
z
" style="fill: none"/>
  </g>
  <g id="axes_1">
   <g id="patch_2">
    <path d="M 33.2875 224.64 
L 368.0875 224.64 
L 368.0875 7.2 
L 33.2875 7.2 
z
" style="fill: #ffffff"/>
   </g>
   <g id="PathCollection_1">
    <defs>
     <path id="m2b5cad28d8" d="M 0 3 
C 0.795609 3 1.55874 2.683901 2.12132 2.12132 
C 2.683901 1.55874 3 0.795609 3 0 
C 3 -0.795609 2.683901 -1.55874 2.12132 -2.12132 
C 1.55874 -2.683901 0.795609 -3 0 -3 
C -0.795609 -3 -1.55874 -2.683901 -2.12132 -2.12132 
C -2.683901 -1.55874 -3 -0.795609 -3 0 
C -3 0.795609 -2.683901 1.55874 -2.12132 2.12132 
C -1.55874 2.683901 -0.795609 3 0 3 
z
" style="stroke: #1f77b4"/>
    </defs>
    <g clip-path="url(#p67ccd0ec22)">
     <use xlink:href="#m2b5cad28d8" x="48.505682" y="214.623015" style="fill: #1f77b4; stroke: #1f77b4"/>
     <use xlink:href="#m2b5cad28d8" x="51.580062" y="214.620949" style="fill: #1f77b4; stroke: #1f77b4"/>
     <use xlink:href="#m2b5cad28d8" x="54.654442" y="213.773559" style="fill: #1f77b4; stroke: #1f77b4"/>
     <use xlink:href="#m2b5cad28d8" x="57.728822" y="214.561197" style="fill: #1f77b4; stroke: #1f77b4"/>
     <use xlink:href="#m2b5cad28d8" x="60.803202" y="213.177277" style="fill: #1f77b4; stroke: #1f77b4"/>
     <use xlink:href="#m2b5cad28d8" x="63.877583" y="212.963829" style="fill: #1f77b4; stroke: #1f77b4"/>
     <use xlink:href="#m2b5cad28d8" x="66.951963" y="212.686045" style="fill: #1f77b4; stroke: #1f77b4"/>
     <use xlink:href="#m2b5cad28d8" x="70.026343" y="211.738252" style="fill: #1f77b4; stroke: #1f77b4"/>
     <use xlink:href="#m2b5cad28d8" x="73.100723" y="212.398639" style="fill: #1f77b4; stroke: #1f77b4"/>
     <use xlink:href="#m2b5cad28d8" x="76.175103" y="212.238389" style="fill: #1f77b4; stroke: #1f77b4"/>
     <use xlink:href="#m2b5cad28d8" x="79.249483" y="210.736101" style="fill: #1f77b4; stroke: #1f77b4"/>
     <use xlink:href="#m2b5cad28d8" x="82.323864" y="209.815944" style="fill: #1f77b4; stroke: #1f77b4"/>
     <use xlink:href="#m2b5cad28d8" x="85.398244" y="209.363755" style="fill: #1f77b4; stroke: #1f77b4"/>
     <use xlink:href="#m2b5cad28d8" x="88.472624" y="209.819223" style="fill: #1f77b4; stroke: #1f77b4"/>
     <use xlink:href="#m2b5cad28d8" x="91.547004" y="208.979376" style="fill: #1f77b4; stroke: #1f77b4"/>
     <use xlink:href="#m2b5cad28d8" x="94.621384" y="207.954513" style="fill: #1f77b4; stroke: #1f77b4"/>
     <use xlink:href="#m2b5cad28d8" x="97.695764" y="206.576253" style="fill: #1f77b4; stroke: #1f77b4"/>
     <use xlink:href="#m2b5cad28d8" x="100.770145" y="205.497051" style="fill: #1f77b4; stroke: #1f77b4"/>
     <use xlink:href="#m2b5cad28d8" x="103.844525" y="205.690095" style="fill: #1f77b4; stroke: #1f77b4"/>
     <use xlink:href="#m2b5cad28d8" x="106.918905" y="204.095209" style="fill: #1f77b4; stroke: #1f77b4"/>
     <use xlink:href="#m2b5cad28d8" x="109.993285" y="203.114111" style="fill: #1f77b4; stroke: #1f77b4"/>
     <use xlink:href="#m2b5cad28d8" x="113.067665" y="202.705631" style="fill: #1f77b4; stroke: #1f77b4"/>
     <use xlink:href="#m2b5cad28d8" x="116.142045" y="201.035155" style="fill: #1f77b4; stroke: #1f77b4"/>
     <use xlink:href="#m2b5cad28d8" x="119.216426" y="199.974396" style="fill: #1f77b4; stroke: #1f77b4"/>
     <use xlink:href="#m2b5cad28d8" x="122.290806" y="199.87828" style="fill: #1f77b4; stroke: #1f77b4"/>
     <use xlink:href="#m2b5cad28d8" x="125.365186" y="197.608253" style="fill: #1f77b4; stroke: #1f77b4"/>
     <use xlink:href="#m2b5cad28d8" x="128.439566" y="197.215326" style="fill: #1f77b4; stroke: #1f77b4"/>
     <use xlink:href="#m2b5cad28d8" x="131.513946" y="195.750925" style="fill: #1f77b4; stroke: #1f77b4"/>
     <use xlink:href="#m2b5cad28d8" x="134.588326" y="195.258313" style="fill: #1f77b4; stroke: #1f77b4"/>
     <use xlink:href="#m2b5cad28d8" x="137.662707" y="193.087177" style="fill: #1f77b4; stroke: #1f77b4"/>
     <use xlink:href="#m2b5cad28d8" x="140.737087" y="192.573163" style="fill: #1f77b4; stroke: #1f77b4"/>
     <use xlink:href="#m2b5cad28d8" x="143.811467" y="191.301262" style="fill: #1f77b4; stroke: #1f77b4"/>
     <use xlink:href="#m2b5cad28d8" x="146.885847" y="189.940549" style="fill: #1f77b4; stroke: #1f77b4"/>
     <use xlink:href="#m2b5cad28d8" x="149.960227" y="187.734637" style="fill: #1f77b4; stroke: #1f77b4"/>
     <use xlink:href="#m2b5cad28d8" x="153.034607" y="186.744239" style="fill: #1f77b4; stroke: #1f77b4"/>
     <use xlink:href="#m2b5cad28d8" x="156.108988" y="185.851266" style="fill: #1f77b4; stroke: #1f77b4"/>
     <use xlink:href="#m2b5cad28d8" x="159.183368" y="183.542282" style="fill: #1f77b4; stroke: #1f77b4"/>
     <use xlink:href="#m2b5cad28d8" x="162.257748" y="182.129609" style="fill: #1f77b4; stroke: #1f77b4"/>
     <use xlink:href="#m2b5cad28d8" x="165.332128" y="180.731233" style="fill: #1f77b4; stroke: #1f77b4"/>
     <use xlink:href="#m2b5cad28d8" x="168.406508" y="179.068703" style="fill: #1f77b4; stroke: #1f77b4"/>
     <use xlink:href="#m2b5cad28d8" x="171.480888" y="178.306473" style="fill: #1f77b4; stroke: #1f77b4"/>
     <use xlink:href="#m2b5cad28d8" x="174.555269" y="175.566451" style="fill: #1f77b4; stroke: #1f77b4"/>
     <use xlink:href="#m2b5cad28d8" x="177.629649" y="174.107791" style="fill: #1f77b4; stroke: #1f77b4"/>
     <use xlink:href="#m2b5cad28d8" x="180.704029" y="173.0737" style="fill: #1f77b4; stroke: #1f77b4"/>
     <use xlink:href="#m2b5cad28d8" x="183.778409" y="171.39428" style="fill: #1f77b4; stroke: #1f77b4"/>
     <use xlink:href="#m2b5cad28d8" x="186.852789" y="169.163741" style="fill: #1f77b4; stroke: #1f77b4"/>
     <use xlink:href="#m2b5cad28d8" x="189.927169" y="166.185893" style="fill: #1f77b4; stroke: #1f77b4"/>
     <use xlink:href="#m2b5cad28d8" x="193.00155" y="165.501294" style="fill: #1f77b4; stroke: #1f77b4"/>
     <use xlink:href="#m2b5cad28d8" x="196.07593" y="163.763426" style="fill: #1f77b4; stroke: #1f77b4"/>
     <use xlink:href="#m2b5cad28d8" x="199.15031" y="161.939655" style="fill: #1f77b4; stroke: #1f77b4"/>
     <use xlink:href="#m2b5cad28d8" x="202.22469" y="159.433047" style="fill: #1f77b4; stroke: #1f77b4"/>
     <use xlink:href="#m2b5cad28d8" x="205.29907" y="156.669698" style="fill: #1f77b4; stroke: #1f77b4"/>
     <use xlink:href="#m2b5cad28d8" x="208.37345" y="155.521915" style="fill: #1f77b4; stroke: #1f77b4"/>
     <use xlink:href="#m2b5cad28d8" x="211.447831" y="152.294715" style="fill: #1f77b4; stroke: #1f77b4"/>
     <use xlink:href="#m2b5cad28d8" x="214.522211" y="150.067581" style="fill: #1f77b4; stroke: #1f77b4"/>
     <use xlink:href="#m2b5cad28d8" x="217.596591" y="149.415285" style="fill: #1f77b4; stroke: #1f77b4"/>
     <use xlink:href="#m2b5cad28d8" x="220.670971" y="145.991307" style="fill: #1f77b4; stroke: #1f77b4"/>
     <use xlink:href="#m2b5cad28d8" x="223.745351" y="143.895458" style="fill: #1f77b4; stroke: #1f77b4"/>
     <use xlink:href="#m2b5cad28d8" x="226.819731" y="141.873105" style="fill: #1f77b4; stroke: #1f77b4"/>
     <use xlink:href="#m2b5cad28d8" x="229.894112" y="139.934604" style="fill: #1f77b4; stroke: #1f77b4"/>
     <use xlink:href="#m2b5cad28d8" x="232.968492" y="136.956892" style="fill: #1f77b4; stroke: #1f77b4"/>
     <use xlink:href="#m2b5cad28d8" x="236.042872" y="134.3856" style="fill: #1f77b4; stroke: #1f77b4"/>
     <use xlink:href="#m2b5cad28d8" x="239.117252" y="132.424524" style="fill: #1f77b4; stroke: #1f77b4"/>
     <use xlink:href="#m2b5cad28d8" x="242.191632" y="129.15655" style="fill: #1f77b4; stroke: #1f77b4"/>
     <use xlink:href="#m2b5cad28d8" x="245.266012" y="127.420128" style="fill: #1f77b4; stroke: #1f77b4"/>
     <use xlink:href="#m2b5cad28d8" x="248.340393" y="124.606043" style="fill: #1f77b4; stroke: #1f77b4"/>
     <use xlink:href="#m2b5cad28d8" x="251.414773" y="122.406452" style="fill: #1f77b4; stroke: #1f77b4"/>
     <use xlink:href="#m2b5cad28d8" x="254.489153" y="120.058305" style="fill: #1f77b4; stroke: #1f77b4"/>
     <use xlink:href="#m2b5cad28d8" x="257.563533" y="116.342467" style="fill: #1f77b4; stroke: #1f77b4"/>
     <use xlink:href="#m2b5cad28d8" x="260.637913" y="114.059188" style="fill: #1f77b4; stroke: #1f77b4"/>
     <use xlink:href="#m2b5cad28d8" x="263.712293" y="111.381178" style="fill: #1f77b4; stroke: #1f77b4"/>
     <use xlink:href="#m2b5cad28d8" x="266.786674" y="109.599237" style="fill: #1f77b4; stroke: #1f77b4"/>
     <use xlink:href="#m2b5cad28d8" x="269.861054" y="105.445865" style="fill: #1f77b4; stroke: #1f77b4"/>
     <use xlink:href="#m2b5cad28d8" x="272.935434" y="103.37795" style="fill: #1f77b4; stroke: #1f77b4"/>
     <use xlink:href="#m2b5cad28d8" x="276.009814" y="100.42319" style="fill: #1f77b4; stroke: #1f77b4"/>
     <use xlink:href="#m2b5cad28d8" x="279.084194" y="98.053197" style="fill: #1f77b4; stroke: #1f77b4"/>
     <use xlink:href="#m2b5cad28d8" x="282.158574" y="94.761577" style="fill: #1f77b4; stroke: #1f77b4"/>
     <use xlink:href="#m2b5cad28d8" x="285.232955" y="91.844143" style="fill: #1f77b4; stroke: #1f77b4"/>
     <use xlink:href="#m2b5cad28d8" x="288.307335" y="89.112487" style="fill: #1f77b4; stroke: #1f77b4"/>
     <use xlink:href="#m2b5cad28d8" x="291.381715" y="85.05451" style="fill: #1f77b4; stroke: #1f77b4"/>
     <use xlink:href="#m2b5cad28d8" x="294.456095" y="82.398209" style="fill: #1f77b4; stroke: #1f77b4"/>
     <use xlink:href="#m2b5cad28d8" x="297.530475" y="78.700547" style="fill: #1f77b4; stroke: #1f77b4"/>
     <use xlink:href="#m2b5cad28d8" x="300.604855" y="75.701961" style="fill: #1f77b4; stroke: #1f77b4"/>
     <use xlink:href="#m2b5cad28d8" x="303.679236" y="72.769254" style="fill: #1f77b4; stroke: #1f77b4"/>
     <use xlink:href="#m2b5cad28d8" x="306.753616" y="70.420775" style="fill: #1f77b4; stroke: #1f77b4"/>
     <use xlink:href="#m2b5cad28d8" x="309.827996" y="66.033169" style="fill: #1f77b4; stroke: #1f77b4"/>
     <use xlink:href="#m2b5cad28d8" x="312.902376" y="63.372087" style="fill: #1f77b4; stroke: #1f77b4"/>
     <use xlink:href="#m2b5cad28d8" x="315.976756" y="59.89384" style="fill: #1f77b4; stroke: #1f77b4"/>
     <use xlink:href="#m2b5cad28d8" x="319.051136" y="57.134236" style="fill: #1f77b4; stroke: #1f77b4"/>
     <use xlink:href="#m2b5cad28d8" x="322.125517" y="53.610891" style="fill: #1f77b4; stroke: #1f77b4"/>
     <use xlink:href="#m2b5cad28d8" x="325.199897" y="49.817985" style="fill: #1f77b4; stroke: #1f77b4"/>
     <use xlink:href="#m2b5cad28d8" x="328.274277" y="46.378974" style="fill: #1f77b4; stroke: #1f77b4"/>
     <use xlink:href="#m2b5cad28d8" x="331.348657" y="43.337779" style="fill: #1f77b4; stroke: #1f77b4"/>
     <use xlink:href="#m2b5cad28d8" x="334.423037" y="39.489528" style="fill: #1f77b4; stroke: #1f77b4"/>
     <use xlink:href="#m2b5cad28d8" x="337.497417" y="35.965498" style="fill: #1f77b4; stroke: #1f77b4"/>
     <use xlink:href="#m2b5cad28d8" x="340.571798" y="32.044711" style="fill: #1f77b4; stroke: #1f77b4"/>
     <use xlink:href="#m2b5cad28d8" x="343.646178" y="27.685856" style="fill: #1f77b4; stroke: #1f77b4"/>
     <use xlink:href="#m2b5cad28d8" x="346.720558" y="24.081516" style="fill: #1f77b4; stroke: #1f77b4"/>
     <use xlink:href="#m2b5cad28d8" x="349.794938" y="20.304487" style="fill: #1f77b4; stroke: #1f77b4"/>
     <use xlink:href="#m2b5cad28d8" x="352.869318" y="17.491985" style="fill: #1f77b4; stroke: #1f77b4"/>
    </g>
   </g>
   <g id="matplotlib.axis_1">
    <g id="xtick_1">
     <g id="line2d_1">
      <defs>
       <path id="mb8f3ffd0bf" d="M 0 0 
L 0 3.5 
" style="stroke: #000000; stroke-width: 0.8"/>
      </defs>
      <g>
       <use xlink:href="#mb8f3ffd0bf" x="48.505682" y="224.64" style="stroke: #000000; stroke-width: 0.8"/>
      </g>
     </g>
     <g id="text_1">
      <!-- 0 -->
      <g transform="translate(45.324432 239.238437)scale(0.1 -0.1)">
       <defs>
        <path id="DejaVuSans-30" d="M 2034 4250 
Q 1547 4250 1301 3770 
Q 1056 3291 1056 2328 
Q 1056 1369 1301 889 
Q 1547 409 2034 409 
Q 2525 409 2770 889 
Q 3016 1369 3016 2328 
Q 3016 3291 2770 3770 
Q 2525 4250 2034 4250 
z
M 2034 4750 
Q 2819 4750 3233 4129 
Q 3647 3509 3647 2328 
Q 3647 1150 3233 529 
Q 2819 -91 2034 -91 
Q 1250 -91 836 529 
Q 422 1150 422 2328 
Q 422 3509 836 4129 
Q 1250 4750 2034 4750 
z
" transform="scale(0.015625)"/>
       </defs>
       <use xlink:href="#DejaVuSans-30"/>
      </g>
     </g>
    </g>
    <g id="xtick_2">
     <g id="line2d_2">
      <g>
       <use xlink:href="#mb8f3ffd0bf" x="109.378409" y="224.64" style="stroke: #000000; stroke-width: 0.8"/>
      </g>
     </g>
     <g id="text_2">
      <!-- 2 -->
      <g transform="translate(106.197159 239.238437)scale(0.1 -0.1)">
       <defs>
        <path id="DejaVuSans-32" d="M 1228 531 
L 3431 531 
L 3431 0 
L 469 0 
L 469 531 
Q 828 903 1448 1529 
Q 2069 2156 2228 2338 
Q 2531 2678 2651 2914 
Q 2772 3150 2772 3378 
Q 2772 3750 2511 3984 
Q 2250 4219 1831 4219 
Q 1534 4219 1204 4116 
Q 875 4013 500 3803 
L 500 4441 
Q 881 4594 1212 4672 
Q 1544 4750 1819 4750 
Q 2544 4750 2975 4387 
Q 3406 4025 3406 3419 
Q 3406 3131 3298 2873 
Q 3191 2616 2906 2266 
Q 2828 2175 2409 1742 
Q 1991 1309 1228 531 
z
" transform="scale(0.015625)"/>
       </defs>
       <use xlink:href="#DejaVuSans-32"/>
      </g>
     </g>
    </g>
    <g id="xtick_3">
     <g id="line2d_3">
      <g>
       <use xlink:href="#mb8f3ffd0bf" x="170.251136" y="224.64" style="stroke: #000000; stroke-width: 0.8"/>
      </g>
     </g>
     <g id="text_3">
      <!-- 4 -->
      <g transform="translate(167.069886 239.238437)scale(0.1 -0.1)">
       <defs>
        <path id="DejaVuSans-34" d="M 2419 4116 
L 825 1625 
L 2419 1625 
L 2419 4116 
z
M 2253 4666 
L 3047 4666 
L 3047 1625 
L 3713 1625 
L 3713 1100 
L 3047 1100 
L 3047 0 
L 2419 0 
L 2419 1100 
L 313 1100 
L 313 1709 
L 2253 4666 
z
" transform="scale(0.015625)"/>
       </defs>
       <use xlink:href="#DejaVuSans-34"/>
      </g>
     </g>
    </g>
    <g id="xtick_4">
     <g id="line2d_4">
      <g>
       <use xlink:href="#mb8f3ffd0bf" x="231.123864" y="224.64" style="stroke: #000000; stroke-width: 0.8"/>
      </g>
     </g>
     <g id="text_4">
      <!-- 6 -->
      <g transform="translate(227.942614 239.238437)scale(0.1 -0.1)">
       <defs>
        <path id="DejaVuSans-36" d="M 2113 2584 
Q 1688 2584 1439 2293 
Q 1191 2003 1191 1497 
Q 1191 994 1439 701 
Q 1688 409 2113 409 
Q 2538 409 2786 701 
Q 3034 994 3034 1497 
Q 3034 2003 2786 2293 
Q 2538 2584 2113 2584 
z
M 3366 4563 
L 3366 3988 
Q 3128 4100 2886 4159 
Q 2644 4219 2406 4219 
Q 1781 4219 1451 3797 
Q 1122 3375 1075 2522 
Q 1259 2794 1537 2939 
Q 1816 3084 2150 3084 
Q 2853 3084 3261 2657 
Q 3669 2231 3669 1497 
Q 3669 778 3244 343 
Q 2819 -91 2113 -91 
Q 1303 -91 875 529 
Q 447 1150 447 2328 
Q 447 3434 972 4092 
Q 1497 4750 2381 4750 
Q 2619 4750 2861 4703 
Q 3103 4656 3366 4563 
z
" transform="scale(0.015625)"/>
       </defs>
       <use xlink:href="#DejaVuSans-36"/>
      </g>
     </g>
    </g>
    <g id="xtick_5">
     <g id="line2d_5">
      <g>
       <use xlink:href="#mb8f3ffd0bf" x="291.996591" y="224.64" style="stroke: #000000; stroke-width: 0.8"/>
      </g>
     </g>
     <g id="text_5">
      <!-- 8 -->
      <g transform="translate(288.815341 239.238437)scale(0.1 -0.1)">
       <defs>
        <path id="DejaVuSans-38" d="M 2034 2216 
Q 1584 2216 1326 1975 
Q 1069 1734 1069 1313 
Q 1069 891 1326 650 
Q 1584 409 2034 409 
Q 2484 409 2743 651 
Q 3003 894 3003 1313 
Q 3003 1734 2745 1975 
Q 2488 2216 2034 2216 
z
M 1403 2484 
Q 997 2584 770 2862 
Q 544 3141 544 3541 
Q 544 4100 942 4425 
Q 1341 4750 2034 4750 
Q 2731 4750 3128 4425 
Q 3525 4100 3525 3541 
Q 3525 3141 3298 2862 
Q 3072 2584 2669 2484 
Q 3125 2378 3379 2068 
Q 3634 1759 3634 1313 
Q 3634 634 3220 271 
Q 2806 -91 2034 -91 
Q 1263 -91 848 271 
Q 434 634 434 1313 
Q 434 1759 690 2068 
Q 947 2378 1403 2484 
z
M 1172 3481 
Q 1172 3119 1398 2916 
Q 1625 2713 2034 2713 
Q 2441 2713 2670 2916 
Q 2900 3119 2900 3481 
Q 2900 3844 2670 4047 
Q 2441 4250 2034 4250 
Q 1625 4250 1398 4047 
Q 1172 3844 1172 3481 
z
" transform="scale(0.015625)"/>
       </defs>
       <use xlink:href="#DejaVuSans-38"/>
      </g>
     </g>
    </g>
    <g id="xtick_6">
     <g id="line2d_6">
      <g>
       <use xlink:href="#mb8f3ffd0bf" x="352.869318" y="224.64" style="stroke: #000000; stroke-width: 0.8"/>
      </g>
     </g>
     <g id="text_6">
      <!-- 10 -->
      <g transform="translate(346.506818 239.238437)scale(0.1 -0.1)">
       <defs>
        <path id="DejaVuSans-31" d="M 794 531 
L 1825 531 
L 1825 4091 
L 703 3866 
L 703 4441 
L 1819 4666 
L 2450 4666 
L 2450 531 
L 3481 531 
L 3481 0 
L 794 0 
L 794 531 
z
" transform="scale(0.015625)"/>
       </defs>
       <use xlink:href="#DejaVuSans-31"/>
       <use xlink:href="#DejaVuSans-30" x="63.623047"/>
      </g>
     </g>
    </g>
   </g>
   <g id="matplotlib.axis_2">
    <g id="ytick_1">
     <g id="line2d_7">
      <defs>
       <path id="m095e2f4932" d="M 0 0 
L -3.5 0 
" style="stroke: #000000; stroke-width: 0.8"/>
      </defs>
      <g>
       <use xlink:href="#m095e2f4932" x="33.2875" y="219.283436" style="stroke: #000000; stroke-width: 0.8"/>
      </g>
     </g>
     <g id="text_7">
      <!-- 0 -->
      <g transform="translate(19.925 223.082654)scale(0.1 -0.1)">
       <use xlink:href="#DejaVuSans-30"/>
      </g>
     </g>
    </g>
    <g id="ytick_2">
     <g id="line2d_8">
      <g>
       <use xlink:href="#m095e2f4932" x="33.2875" y="193.250831" style="stroke: #000000; stroke-width: 0.8"/>
      </g>
     </g>
     <g id="text_8">
      <!-- 50 -->
      <g transform="translate(13.5625 197.050049)scale(0.1 -0.1)">
       <defs>
        <path id="DejaVuSans-35" d="M 691 4666 
L 3169 4666 
L 3169 4134 
L 1269 4134 
L 1269 2991 
Q 1406 3038 1543 3061 
Q 1681 3084 1819 3084 
Q 2600 3084 3056 2656 
Q 3513 2228 3513 1497 
Q 3513 744 3044 326 
Q 2575 -91 1722 -91 
Q 1428 -91 1123 -41 
Q 819 9 494 109 
L 494 744 
Q 775 591 1075 516 
Q 1375 441 1709 441 
Q 2250 441 2565 725 
Q 2881 1009 2881 1497 
Q 2881 1984 2565 2268 
Q 2250 2553 1709 2553 
Q 1456 2553 1204 2497 
Q 953 2441 691 2322 
L 691 4666 
z
" transform="scale(0.015625)"/>
       </defs>
       <use xlink:href="#DejaVuSans-35"/>
       <use xlink:href="#DejaVuSans-30" x="63.623047"/>
      </g>
     </g>
    </g>
    <g id="ytick_3">
     <g id="line2d_9">
      <g>
       <use xlink:href="#m095e2f4932" x="33.2875" y="167.218226" style="stroke: #000000; stroke-width: 0.8"/>
      </g>
     </g>
     <g id="text_9">
      <!-- 100 -->
      <g transform="translate(7.2 171.017444)scale(0.1 -0.1)">
       <use xlink:href="#DejaVuSans-31"/>
       <use xlink:href="#DejaVuSans-30" x="63.623047"/>
       <use xlink:href="#DejaVuSans-30" x="127.246094"/>
      </g>
     </g>
    </g>
    <g id="ytick_4">
     <g id="line2d_10">
      <g>
       <use xlink:href="#m095e2f4932" x="33.2875" y="141.185621" style="stroke: #000000; stroke-width: 0.8"/>
      </g>
     </g>
     <g id="text_10">
      <!-- 150 -->
      <g transform="translate(7.2 144.984839)scale(0.1 -0.1)">
       <use xlink:href="#DejaVuSans-31"/>
       <use xlink:href="#DejaVuSans-35" x="63.623047"/>
       <use xlink:href="#DejaVuSans-30" x="127.246094"/>
      </g>
     </g>
    </g>
    <g id="ytick_5">
     <g id="line2d_11">
      <g>
       <use xlink:href="#m095e2f4932" x="33.2875" y="115.153016" style="stroke: #000000; stroke-width: 0.8"/>
      </g>
     </g>
     <g id="text_11">
      <!-- 200 -->
      <g transform="translate(7.2 118.952235)scale(0.1 -0.1)">
       <use xlink:href="#DejaVuSans-32"/>
       <use xlink:href="#DejaVuSans-30" x="63.623047"/>
       <use xlink:href="#DejaVuSans-30" x="127.246094"/>
      </g>
     </g>
    </g>
    <g id="ytick_6">
     <g id="line2d_12">
      <g>
       <use xlink:href="#m095e2f4932" x="33.2875" y="89.120411" style="stroke: #000000; stroke-width: 0.8"/>
      </g>
     </g>
     <g id="text_12">
      <!-- 250 -->
      <g transform="translate(7.2 92.91963)scale(0.1 -0.1)">
       <use xlink:href="#DejaVuSans-32"/>
       <use xlink:href="#DejaVuSans-35" x="63.623047"/>
       <use xlink:href="#DejaVuSans-30" x="127.246094"/>
      </g>
     </g>
    </g>
    <g id="ytick_7">
     <g id="line2d_13">
      <g>
       <use xlink:href="#m095e2f4932" x="33.2875" y="63.087806" style="stroke: #000000; stroke-width: 0.8"/>
      </g>
     </g>
     <g id="text_13">
      <!-- 300 -->
      <g transform="translate(7.2 66.887025)scale(0.1 -0.1)">
       <defs>
        <path id="DejaVuSans-33" d="M 2597 2516 
Q 3050 2419 3304 2112 
Q 3559 1806 3559 1356 
Q 3559 666 3084 287 
Q 2609 -91 1734 -91 
Q 1441 -91 1130 -33 
Q 819 25 488 141 
L 488 750 
Q 750 597 1062 519 
Q 1375 441 1716 441 
Q 2309 441 2620 675 
Q 2931 909 2931 1356 
Q 2931 1769 2642 2001 
Q 2353 2234 1838 2234 
L 1294 2234 
L 1294 2753 
L 1863 2753 
Q 2328 2753 2575 2939 
Q 2822 3125 2822 3475 
Q 2822 3834 2567 4026 
Q 2313 4219 1838 4219 
Q 1578 4219 1281 4162 
Q 984 4106 628 3988 
L 628 4550 
Q 988 4650 1302 4700 
Q 1616 4750 1894 4750 
Q 2613 4750 3031 4423 
Q 3450 4097 3450 3541 
Q 3450 3153 3228 2886 
Q 3006 2619 2597 2516 
z
" transform="scale(0.015625)"/>
       </defs>
       <use xlink:href="#DejaVuSans-33"/>
       <use xlink:href="#DejaVuSans-30" x="63.623047"/>
       <use xlink:href="#DejaVuSans-30" x="127.246094"/>
      </g>
     </g>
    </g>
    <g id="ytick_8">
     <g id="line2d_14">
      <g>
       <use xlink:href="#m095e2f4932" x="33.2875" y="37.055201" style="stroke: #000000; stroke-width: 0.8"/>
      </g>
     </g>
     <g id="text_14">
      <!-- 350 -->
      <g transform="translate(7.2 40.85442)scale(0.1 -0.1)">
       <use xlink:href="#DejaVuSans-33"/>
       <use xlink:href="#DejaVuSans-35" x="63.623047"/>
       <use xlink:href="#DejaVuSans-30" x="127.246094"/>
      </g>
     </g>
    </g>
    <g id="ytick_9">
     <g id="line2d_15">
      <g>
       <use xlink:href="#m095e2f4932" x="33.2875" y="11.022596" style="stroke: #000000; stroke-width: 0.8"/>
      </g>
     </g>
     <g id="text_15">
      <!-- 400 -->
      <g transform="translate(7.2 14.821815)scale(0.1 -0.1)">
       <use xlink:href="#DejaVuSans-34"/>
       <use xlink:href="#DejaVuSans-30" x="63.623047"/>
       <use xlink:href="#DejaVuSans-30" x="127.246094"/>
      </g>
     </g>
    </g>
   </g>
   <g id="line2d_16">
    <path d="M 48.505682 214.756364 
L 51.580062 214.530673 
L 54.654442 214.268839 
L 57.728822 213.970862 
L 60.803202 213.636742 
L 63.877583 213.26648 
L 66.951963 212.860074 
L 70.026343 212.417526 
L 73.100723 211.938834 
L 76.175103 211.424 
L 79.249483 210.873022 
L 82.323864 210.285902 
L 85.398244 209.662639 
L 88.472624 209.003233 
L 91.547004 208.307684 
L 94.621384 207.575992 
L 97.695764 206.808157 
L 100.770145 206.00418 
L 103.844525 205.164059 
L 106.918905 204.287795 
L 109.993285 203.375389 
L 113.067665 202.42684 
L 116.142045 201.442147 
L 119.216426 200.421312 
L 122.290806 199.364334 
L 125.365186 198.271213 
L 128.439566 197.141949 
L 131.513946 195.976542 
L 134.588326 194.774992 
L 137.662707 193.537299 
L 140.737087 192.263463 
L 143.811467 190.953484 
L 146.885847 189.607363 
L 149.960227 188.225098 
L 153.034607 186.806691 
L 156.108988 185.352141 
L 159.183368 183.861447 
L 162.257748 182.334611 
L 165.332128 180.771632 
L 168.406508 179.17251 
L 171.480888 177.537245 
L 174.555269 175.865837 
L 177.629649 174.158286 
L 180.704029 172.414592 
L 183.778409 170.634756 
L 186.852789 168.818776 
L 189.927169 166.966654 
L 193.00155 165.078388 
L 196.07593 163.15398 
L 199.15031 161.193428 
L 202.22469 159.196734 
L 205.29907 157.163897 
L 208.37345 155.094917 
L 211.447831 152.989794 
L 214.522211 150.848528 
L 217.596591 148.671119 
L 220.670971 146.457568 
L 223.745351 144.207873 
L 226.819731 141.922035 
L 229.894112 139.600055 
L 232.968492 137.241931 
L 236.042872 134.847665 
L 239.117252 132.417256 
L 242.191632 129.950703 
L 245.266012 127.448008 
L 248.340393 124.90917 
L 251.414773 122.334189 
L 254.489153 119.723065 
L 257.563533 117.075798 
L 260.637913 114.392389 
L 263.712293 111.672836 
L 266.786674 108.91714 
L 269.861054 106.125302 
L 272.935434 103.29732 
L 276.009814 100.433196 
L 279.084194 97.532929 
L 282.158574 94.596519 
L 285.232955 91.623965 
L 288.307335 88.615269 
L 291.381715 85.57043 
L 294.456095 82.489448 
L 297.530475 79.372324 
L 300.604855 76.219056 
L 303.679236 73.029645 
L 306.753616 69.804091 
L 309.827996 66.542395 
L 312.902376 63.244555 
L 315.976756 59.910573 
L 319.051136 56.540448 
L 322.125517 53.134179 
L 325.199897 49.691768 
L 328.274277 46.213214 
L 331.348657 42.698517 
L 334.423037 39.147677 
L 337.497417 35.560694 
L 340.571798 31.937569 
L 343.646178 28.2783 
L 346.720558 24.582888 
L 349.794938 20.851334 
L 352.869318 17.083636 
" clip-path="url(#p67ccd0ec22)" style="fill: none; stroke: #ff7f0e; stroke-width: 1.5; stroke-linecap: square"/>
   </g>
   <g id="patch_3">
    <path d="M 33.2875 224.64 
L 33.2875 7.2 
" style="fill: none; stroke: #000000; stroke-width: 0.8; stroke-linejoin: miter; stroke-linecap: square"/>
   </g>
   <g id="patch_4">
    <path d="M 368.0875 224.64 
L 368.0875 7.2 
" style="fill: none; stroke: #000000; stroke-width: 0.8; stroke-linejoin: miter; stroke-linecap: square"/>
   </g>
   <g id="patch_5">
    <path d="M 33.2875 224.64 
L 368.0875 224.64 
" style="fill: none; stroke: #000000; stroke-width: 0.8; stroke-linejoin: miter; stroke-linecap: square"/>
   </g>
   <g id="patch_6">
    <path d="M 33.2875 7.2 
L 368.0875 7.2 
" style="fill: none; stroke: #000000; stroke-width: 0.8; stroke-linejoin: miter; stroke-linecap: square"/>
   </g>
   <g id="legend_1">
    <g id="patch_7">
     <path d="M 40.2875 44.55625 
L 126.009375 44.55625 
Q 128.009375 44.55625 128.009375 42.55625 
L 128.009375 14.2 
Q 128.009375 12.2 126.009375 12.2 
L 40.2875 12.2 
Q 38.2875 12.2 38.2875 14.2 
L 38.2875 42.55625 
Q 38.2875 44.55625 40.2875 44.55625 
z
" style="fill: #ffffff; opacity: 0.8; stroke: #cccccc; stroke-linejoin: miter"/>
    </g>
    <g id="PathCollection_2">
     <g>
      <use xlink:href="#m2b5cad28d8" x="52.2875" y="21.173437" style="fill: #1f77b4; stroke: #1f77b4"/>
     </g>
    </g>
    <g id="text_16">
     <!-- curve data -->
     <g transform="translate(70.2875 23.798437)scale(0.1 -0.1)">
      <defs>
       <path id="DejaVuSans-63" d="M 3122 3366 
L 3122 2828 
Q 2878 2963 2633 3030 
Q 2388 3097 2138 3097 
Q 1578 3097 1268 2742 
Q 959 2388 959 1747 
Q 959 1106 1268 751 
Q 1578 397 2138 397 
Q 2388 397 2633 464 
Q 2878 531 3122 666 
L 3122 134 
Q 2881 22 2623 -34 
Q 2366 -91 2075 -91 
Q 1284 -91 818 406 
Q 353 903 353 1747 
Q 353 2603 823 3093 
Q 1294 3584 2113 3584 
Q 2378 3584 2631 3529 
Q 2884 3475 3122 3366 
z
" transform="scale(0.015625)"/>
       <path id="DejaVuSans-75" d="M 544 1381 
L 544 3500 
L 1119 3500 
L 1119 1403 
Q 1119 906 1312 657 
Q 1506 409 1894 409 
Q 2359 409 2629 706 
Q 2900 1003 2900 1516 
L 2900 3500 
L 3475 3500 
L 3475 0 
L 2900 0 
L 2900 538 
Q 2691 219 2414 64 
Q 2138 -91 1772 -91 
Q 1169 -91 856 284 
Q 544 659 544 1381 
z
M 1991 3584 
L 1991 3584 
z
" transform="scale(0.015625)"/>
       <path id="DejaVuSans-72" d="M 2631 2963 
Q 2534 3019 2420 3045 
Q 2306 3072 2169 3072 
Q 1681 3072 1420 2755 
Q 1159 2438 1159 1844 
L 1159 0 
L 581 0 
L 581 3500 
L 1159 3500 
L 1159 2956 
Q 1341 3275 1631 3429 
Q 1922 3584 2338 3584 
Q 2397 3584 2469 3576 
Q 2541 3569 2628 3553 
L 2631 2963 
z
" transform="scale(0.015625)"/>
       <path id="DejaVuSans-76" d="M 191 3500 
L 800 3500 
L 1894 563 
L 2988 3500 
L 3597 3500 
L 2284 0 
L 1503 0 
L 191 3500 
z
" transform="scale(0.015625)"/>
       <path id="DejaVuSans-65" d="M 3597 1894 
L 3597 1613 
L 953 1613 
Q 991 1019 1311 708 
Q 1631 397 2203 397 
Q 2534 397 2845 478 
Q 3156 559 3463 722 
L 3463 178 
Q 3153 47 2828 -22 
Q 2503 -91 2169 -91 
Q 1331 -91 842 396 
Q 353 884 353 1716 
Q 353 2575 817 3079 
Q 1281 3584 2069 3584 
Q 2775 3584 3186 3129 
Q 3597 2675 3597 1894 
z
M 3022 2063 
Q 3016 2534 2758 2815 
Q 2500 3097 2075 3097 
Q 1594 3097 1305 2825 
Q 1016 2553 972 2059 
L 3022 2063 
z
" transform="scale(0.015625)"/>
       <path id="DejaVuSans-20" transform="scale(0.015625)"/>
       <path id="DejaVuSans-64" d="M 2906 2969 
L 2906 4863 
L 3481 4863 
L 3481 0 
L 2906 0 
L 2906 525 
Q 2725 213 2448 61 
Q 2172 -91 1784 -91 
Q 1150 -91 751 415 
Q 353 922 353 1747 
Q 353 2572 751 3078 
Q 1150 3584 1784 3584 
Q 2172 3584 2448 3432 
Q 2725 3281 2906 2969 
z
M 947 1747 
Q 947 1113 1208 752 
Q 1469 391 1925 391 
Q 2381 391 2643 752 
Q 2906 1113 2906 1747 
Q 2906 2381 2643 2742 
Q 2381 3103 1925 3103 
Q 1469 3103 1208 2742 
Q 947 2381 947 1747 
z
" transform="scale(0.015625)"/>
       <path id="DejaVuSans-61" d="M 2194 1759 
Q 1497 1759 1228 1600 
Q 959 1441 959 1056 
Q 959 750 1161 570 
Q 1363 391 1709 391 
Q 2188 391 2477 730 
Q 2766 1069 2766 1631 
L 2766 1759 
L 2194 1759 
z
M 3341 1997 
L 3341 0 
L 2766 0 
L 2766 531 
Q 2569 213 2275 61 
Q 1981 -91 1556 -91 
Q 1019 -91 701 211 
Q 384 513 384 1019 
Q 384 1609 779 1909 
Q 1175 2209 1959 2209 
L 2766 2209 
L 2766 2266 
Q 2766 2663 2505 2880 
Q 2244 3097 1772 3097 
Q 1472 3097 1187 3025 
Q 903 2953 641 2809 
L 641 3341 
Q 956 3463 1253 3523 
Q 1550 3584 1831 3584 
Q 2591 3584 2966 3190 
Q 3341 2797 3341 1997 
z
" transform="scale(0.015625)"/>
       <path id="DejaVuSans-74" d="M 1172 4494 
L 1172 3500 
L 2356 3500 
L 2356 3053 
L 1172 3053 
L 1172 1153 
Q 1172 725 1289 603 
Q 1406 481 1766 481 
L 2356 481 
L 2356 0 
L 1766 0 
Q 1100 0 847 248 
Q 594 497 594 1153 
L 594 3053 
L 172 3053 
L 172 3500 
L 594 3500 
L 594 4494 
L 1172 4494 
z
" transform="scale(0.015625)"/>
      </defs>
      <use xlink:href="#DejaVuSans-63"/>
      <use xlink:href="#DejaVuSans-75" x="54.980469"/>
      <use xlink:href="#DejaVuSans-72" x="118.359375"/>
      <use xlink:href="#DejaVuSans-76" x="159.472656"/>
      <use xlink:href="#DejaVuSans-65" x="218.652344"/>
      <use xlink:href="#DejaVuSans-20" x="280.175781"/>
      <use xlink:href="#DejaVuSans-64" x="311.962891"/>
      <use xlink:href="#DejaVuSans-61" x="375.439453"/>
      <use xlink:href="#DejaVuSans-74" x="436.71875"/>
      <use xlink:href="#DejaVuSans-61" x="475.927734"/>
     </g>
    </g>
    <g id="line2d_17">
     <path d="M 42.2875 34.976562 
L 52.2875 34.976562 
L 62.2875 34.976562 
" style="fill: none; stroke: #ff7f0e; stroke-width: 1.5; stroke-linecap: square"/>
    </g>
    <g id="text_17">
     <!-- curve fit -->
     <g transform="translate(70.2875 38.476562)scale(0.1 -0.1)">
      <defs>
       <path id="DejaVuSans-66" d="M 2375 4863 
L 2375 4384 
L 1825 4384 
Q 1516 4384 1395 4259 
Q 1275 4134 1275 3809 
L 1275 3500 
L 2222 3500 
L 2222 3053 
L 1275 3053 
L 1275 0 
L 697 0 
L 697 3053 
L 147 3053 
L 147 3500 
L 697 3500 
L 697 3744 
Q 697 4328 969 4595 
Q 1241 4863 1831 4863 
L 2375 4863 
z
" transform="scale(0.015625)"/>
       <path id="DejaVuSans-69" d="M 603 3500 
L 1178 3500 
L 1178 0 
L 603 0 
L 603 3500 
z
M 603 4863 
L 1178 4863 
L 1178 4134 
L 603 4134 
L 603 4863 
z
" transform="scale(0.015625)"/>
      </defs>
      <use xlink:href="#DejaVuSans-63"/>
      <use xlink:href="#DejaVuSans-75" x="54.980469"/>
      <use xlink:href="#DejaVuSans-72" x="118.359375"/>
      <use xlink:href="#DejaVuSans-76" x="159.472656"/>
      <use xlink:href="#DejaVuSans-65" x="218.652344"/>
      <use xlink:href="#DejaVuSans-20" x="280.175781"/>
      <use xlink:href="#DejaVuSans-66" x="311.962891"/>
      <use xlink:href="#DejaVuSans-69" x="347.167969"/>
      <use xlink:href="#DejaVuSans-74" x="374.951172"/>
     </g>
    </g>
   </g>
  </g>
 </g>
 <defs>
  <clipPath id="p67ccd0ec22">
   <rect x="33.2875" y="7.2" width="334.8" height="217.44"/>
  </clipPath>
 </defs>
</svg>
