<?xml version="1.0" encoding="utf-8" standalone="no"?>
<!DOCTYPE svg PUBLIC "-//W3C//DTD SVG 1.1//EN"
  "http://www.w3.org/Graphics/SVG/1.1/DTD/svg11.dtd">
<svg xmlns:xlink="http://www.w3.org/1999/xlink" width="378.465625pt" height="248.518125pt" viewBox="0 0 378.465625 248.518125" xmlns="http://www.w3.org/2000/svg" version="1.1">
 <metadata>
  <rdf:RDF xmlns:dc="http://purl.org/dc/elements/1.1/" xmlns:cc="http://creativecommons.org/ns#" xmlns:rdf="http://www.w3.org/1999/02/22-rdf-syntax-ns#">
   <cc:Work>
    <dc:type rdf:resource="http://purl.org/dc/dcmitype/StillImage"/>
    <dc:date>2022-07-29T15:05:54.009214</dc:date>
    <dc:format>image/svg+xml</dc:format>
    <dc:creator>
     <cc:Agent>
      <dc:title>Matplotlib v3.5.2, https://matplotlib.org/</dc:title>
     </cc:Agent>
    </dc:creator>
   </cc:Work>
  </rdf:RDF>
 </metadata>
 <defs>
  <style type="text/css">*{stroke-linejoin: round; stroke-linecap: butt}</style>
 </defs>
 <g id="figure_1">
  <g id="patch_1">
   <path d="M 0 248.518125 
L 378.465625 248.518125 
L 378.465625 0 
L 0 0 
L 0 248.518125 
z
" style="fill: none"/>
  </g>
  <g id="axes_1">
   <g id="patch_2">
    <path d="M 36.465625 224.64 
L 371.265625 224.64 
L 371.265625 7.2 
L 36.465625 7.2 
z
" style="fill: #ffffff"/>
   </g>
   <g id="PathCollection_1">
    <defs>
     <path id="m6a1884e21d" d="M 0 3 
C 0.795609 3 1.55874 2.683901 2.12132 2.12132 
C 2.683901 1.55874 3 0.795609 3 0 
C 3 -0.795609 2.683901 -1.55874 2.12132 -2.12132 
C 1.55874 -2.683901 0.795609 -3 0 -3 
C -0.795609 -3 -1.55874 -2.683901 -2.12132 -2.12132 
C -2.683901 -1.55874 -3 -0.795609 -3 0 
C -3 0.795609 -2.683901 1.55874 -2.12132 2.12132 
C -1.55874 2.683901 -0.795609 3 0 3 
z
" style="stroke: #1f77b4; stroke-opacity: 0.8"/>
    </defs>
    <g clip-path="url(#pb244d96aec)">
     <use xlink:href="#m6a1884e21d" x="51.683807" y="213.462911" style="fill: #1f77b4; fill-opacity: 0.8; stroke: #1f77b4; stroke-opacity: 0.8"/>
     <use xlink:href="#m6a1884e21d" x="85.501989" y="170.642819" style="fill: #1f77b4; fill-opacity: 0.8; stroke: #1f77b4; stroke-opacity: 0.8"/>
     <use xlink:href="#m6a1884e21d" x="119.32017" y="174.029182" style="fill: #1f77b4; fill-opacity: 0.8; stroke: #1f77b4; stroke-opacity: 0.8"/>
     <use xlink:href="#m6a1884e21d" x="153.138352" y="150.118922" style="fill: #1f77b4; fill-opacity: 0.8; stroke: #1f77b4; stroke-opacity: 0.8"/>
     <use xlink:href="#m6a1884e21d" x="186.956534" y="126.346476" style="fill: #1f77b4; fill-opacity: 0.8; stroke: #1f77b4; stroke-opacity: 0.8"/>
     <use xlink:href="#m6a1884e21d" x="220.774716" y="103.631167" style="fill: #1f77b4; fill-opacity: 0.8; stroke: #1f77b4; stroke-opacity: 0.8"/>
     <use xlink:href="#m6a1884e21d" x="254.592898" y="78.782356" style="fill: #1f77b4; fill-opacity: 0.8; stroke: #1f77b4; stroke-opacity: 0.8"/>
     <use xlink:href="#m6a1884e21d" x="288.41108" y="64.351834" style="fill: #1f77b4; fill-opacity: 0.8; stroke: #1f77b4; stroke-opacity: 0.8"/>
     <use xlink:href="#m6a1884e21d" x="322.229261" y="51.129432" style="fill: #1f77b4; fill-opacity: 0.8; stroke: #1f77b4; stroke-opacity: 0.8"/>
     <use xlink:href="#m6a1884e21d" x="356.047443" y="33.520456" style="fill: #1f77b4; fill-opacity: 0.8; stroke: #1f77b4; stroke-opacity: 0.8"/>
    </g>
   </g>
   <g id="PolyCollection_1">
    <path d="M 51.683807 191.35413 
L 51.683807 214.756364 
L 54.758187 212.786794 
L 57.832567 210.796846 
L 60.906947 208.8061 
L 63.981327 206.804106 
L 67.055708 204.773242 
L 70.130088 202.792723 
L 73.204468 200.843389 
L 76.278848 198.941936 
L 79.353228 196.965014 
L 82.427608 195.096997 
L 85.501989 193.121732 
L 88.576369 191.15262 
L 91.650749 189.240226 
L 94.725129 187.281555 
L 97.799509 185.358129 
L 100.873889 183.428263 
L 103.94827 181.467063 
L 107.02265 179.520804 
L 110.09703 177.535785 
L 113.17141 175.645852 
L 116.24579 173.72834 
L 119.32017 171.82905 
L 122.394551 169.88942 
L 125.468931 167.990861 
L 128.543311 166.122476 
L 131.617691 164.22045 
L 134.692071 162.332062 
L 137.766451 160.447027 
L 140.840832 158.564001 
L 143.915212 156.684129 
L 146.989592 154.709593 
L 150.063972 152.840934 
L 153.138352 150.983819 
L 156.212732 149.151668 
L 159.287113 147.319516 
L 162.361493 145.485356 
L 165.435873 143.636218 
L 168.510253 141.811221 
L 171.584633 139.986225 
L 174.659013 138.11946 
L 177.733394 136.301455 
L 180.807774 134.451407 
L 183.882154 132.600457 
L 186.956534 130.746941 
L 190.030914 128.894284 
L 193.105294 127.041628 
L 196.179675 125.188972 
L 199.254055 123.353054 
L 202.328435 121.536753 
L 205.402815 119.694278 
L 208.477195 117.844985 
L 211.551575 116.006928 
L 214.625956 114.21798 
L 217.700336 112.422685 
L 220.774716 110.592261 
L 223.849096 108.751677 
L 226.923476 106.907424 
L 229.997856 105.103518 
L 233.072237 103.28111 
L 236.146617 101.476375 
L 239.220997 99.671472 
L 242.295377 97.866333 
L 245.369757 96.061699 
L 248.444137 94.255923 
L 251.518518 92.451034 
L 254.592898 90.646513 
L 257.667278 88.891745 
L 260.741658 87.043924 
L 263.816038 85.244169 
L 266.890418 83.539746 
L 269.964799 81.769799 
L 273.039179 80.009712 
L 276.113559 78.245319 
L 279.187939 76.44293 
L 282.262319 74.652629 
L 285.336699 72.85063 
L 288.41108 71.062098 
L 291.48546 69.317378 
L 294.55984 67.58005 
L 297.63422 65.827645 
L 300.7086 64.081763 
L 303.78298 62.381426 
L 306.857361 60.605577 
L 309.931741 58.86782 
L 313.006121 57.147132 
L 316.080501 55.360089 
L 319.154881 53.6933 
L 322.229261 52.026937 
L 325.303642 50.396621 
L 328.378022 48.748348 
L 331.452402 47.079377 
L 334.526782 45.414554 
L 337.601162 43.769291 
L 340.675542 42.124029 
L 343.749923 40.478766 
L 346.824303 38.833504 
L 349.898683 37.188241 
L 352.973063 35.578112 
L 356.047443 33.91974 
L 356.047443 17.083636 
L 356.047443 17.083636 
L 352.973063 19.011837 
L 349.898683 20.970606 
L 346.824303 22.964464 
L 343.749923 24.961176 
L 340.675542 26.958377 
L 337.601162 28.955578 
L 334.526782 30.952779 
L 331.452402 32.94998 
L 328.378022 34.930724 
L 325.303642 36.937136 
L 322.229261 38.940778 
L 319.154881 40.938172 
L 316.080501 42.943171 
L 313.006121 44.931526 
L 309.931741 46.926773 
L 306.857361 48.922019 
L 303.78298 50.917266 
L 300.7086 52.858719 
L 297.63422 54.696015 
L 294.55984 56.566761 
L 291.48546 58.566916 
L 288.41108 60.562911 
L 285.336699 62.489678 
L 282.262319 64.414658 
L 279.187939 66.339618 
L 276.113559 68.333742 
L 273.039179 70.296378 
L 269.964799 72.331448 
L 266.890418 74.350182 
L 263.816038 76.277388 
L 260.741658 78.245158 
L 257.667278 80.127016 
L 254.592898 82.050252 
L 251.518518 83.956638 
L 248.444137 85.68765 
L 245.369757 87.573441 
L 242.295377 89.451952 
L 239.220997 91.30903 
L 236.146617 93.016272 
L 233.072237 94.919018 
L 229.997856 96.853811 
L 226.923476 98.664222 
L 223.849096 100.448393 
L 220.774716 102.19012 
L 217.700336 103.81087 
L 214.625956 105.554381 
L 211.551575 107.237421 
L 208.477195 108.883589 
L 205.402815 110.570345 
L 202.328435 112.143501 
L 199.254055 113.80751 
L 196.179675 115.410499 
L 193.105294 117.044194 
L 190.030914 118.677888 
L 186.956534 120.288724 
L 183.882154 121.885428 
L 180.807774 123.482343 
L 177.733394 125.079257 
L 174.659013 126.688311 
L 171.584633 128.310044 
L 168.510253 129.932161 
L 165.435873 131.554277 
L 162.361493 133.176394 
L 159.287113 134.798511 
L 156.212732 136.420627 
L 153.138352 138.042744 
L 150.063972 139.658879 
L 146.989592 141.283429 
L 143.915212 142.907669 
L 140.840832 144.532327 
L 137.766451 146.153126 
L 134.692071 147.778725 
L 131.617691 149.405183 
L 128.543311 151.029469 
L 125.468931 152.653754 
L 122.394551 154.278039 
L 119.32017 155.890988 
L 116.24579 157.503077 
L 113.17141 159.114728 
L 110.09703 160.727246 
L 107.02265 162.338764 
L 103.94827 163.950282 
L 100.873889 165.561801 
L 97.799509 167.173319 
L 94.725129 168.784838 
L 91.650749 170.396356 
L 88.576369 172.008219 
L 85.501989 173.621175 
L 82.427608 175.23413 
L 79.353228 176.839287 
L 76.278848 178.431525 
L 73.204468 180.039605 
L 70.130088 181.681463 
L 67.055708 183.29588 
L 63.981327 184.90753 
L 60.906947 186.51918 
L 57.832567 188.13083 
L 54.758187 189.74248 
L 51.683807 191.35413 
z
" clip-path="url(#pb244d96aec)" style="fill: #1f77b4; fill-opacity: 0.15"/>
   </g>
   <g id="matplotlib.axis_1">
    <g id="xtick_1">
     <g id="line2d_1">
      <defs>
       <path id="m4d7f1fbc98" d="M 0 0 
L 0 3.5 
" style="stroke: #000000; stroke-width: 0.8"/>
      </defs>
      <g>
       <use xlink:href="#m4d7f1fbc98" x="51.683807" y="224.64" style="stroke: #000000; stroke-width: 0.8"/>
      </g>
     </g>
     <g id="text_1">
      <!-- 0 -->
      <g transform="translate(48.502557 239.238437)scale(0.1 -0.1)">
       <defs>
        <path id="DejaVuSans-30" d="M 2034 4250 
Q 1547 4250 1301 3770 
Q 1056 3291 1056 2328 
Q 1056 1369 1301 889 
Q 1547 409 2034 409 
Q 2525 409 2770 889 
Q 3016 1369 3016 2328 
Q 3016 3291 2770 3770 
Q 2525 4250 2034 4250 
z
M 2034 4750 
Q 2819 4750 3233 4129 
Q 3647 3509 3647 2328 
Q 3647 1150 3233 529 
Q 2819 -91 2034 -91 
Q 1250 -91 836 529 
Q 422 1150 422 2328 
Q 422 3509 836 4129 
Q 1250 4750 2034 4750 
z
" transform="scale(0.015625)"/>
       </defs>
       <use xlink:href="#DejaVuSans-30"/>
      </g>
     </g>
    </g>
    <g id="xtick_2">
     <g id="line2d_2">
      <g>
       <use xlink:href="#m4d7f1fbc98" x="119.32017" y="224.64" style="stroke: #000000; stroke-width: 0.8"/>
      </g>
     </g>
     <g id="text_2">
      <!-- 2 -->
      <g transform="translate(116.13892 239.238437)scale(0.1 -0.1)">
       <defs>
        <path id="DejaVuSans-32" d="M 1228 531 
L 3431 531 
L 3431 0 
L 469 0 
L 469 531 
Q 828 903 1448 1529 
Q 2069 2156 2228 2338 
Q 2531 2678 2651 2914 
Q 2772 3150 2772 3378 
Q 2772 3750 2511 3984 
Q 2250 4219 1831 4219 
Q 1534 4219 1204 4116 
Q 875 4013 500 3803 
L 500 4441 
Q 881 4594 1212 4672 
Q 1544 4750 1819 4750 
Q 2544 4750 2975 4387 
Q 3406 4025 3406 3419 
Q 3406 3131 3298 2873 
Q 3191 2616 2906 2266 
Q 2828 2175 2409 1742 
Q 1991 1309 1228 531 
z
" transform="scale(0.015625)"/>
       </defs>
       <use xlink:href="#DejaVuSans-32"/>
      </g>
     </g>
    </g>
    <g id="xtick_3">
     <g id="line2d_3">
      <g>
       <use xlink:href="#m4d7f1fbc98" x="186.956534" y="224.64" style="stroke: #000000; stroke-width: 0.8"/>
      </g>
     </g>
     <g id="text_3">
      <!-- 4 -->
      <g transform="translate(183.775284 239.238437)scale(0.1 -0.1)">
       <defs>
        <path id="DejaVuSans-34" d="M 2419 4116 
L 825 1625 
L 2419 1625 
L 2419 4116 
z
M 2253 4666 
L 3047 4666 
L 3047 1625 
L 3713 1625 
L 3713 1100 
L 3047 1100 
L 3047 0 
L 2419 0 
L 2419 1100 
L 313 1100 
L 313 1709 
L 2253 4666 
z
" transform="scale(0.015625)"/>
       </defs>
       <use xlink:href="#DejaVuSans-34"/>
      </g>
     </g>
    </g>
    <g id="xtick_4">
     <g id="line2d_4">
      <g>
       <use xlink:href="#m4d7f1fbc98" x="254.592898" y="224.64" style="stroke: #000000; stroke-width: 0.8"/>
      </g>
     </g>
     <g id="text_4">
      <!-- 6 -->
      <g transform="translate(251.411648 239.238437)scale(0.1 -0.1)">
       <defs>
        <path id="DejaVuSans-36" d="M 2113 2584 
Q 1688 2584 1439 2293 
Q 1191 2003 1191 1497 
Q 1191 994 1439 701 
Q 1688 409 2113 409 
Q 2538 409 2786 701 
Q 3034 994 3034 1497 
Q 3034 2003 2786 2293 
Q 2538 2584 2113 2584 
z
M 3366 4563 
L 3366 3988 
Q 3128 4100 2886 4159 
Q 2644 4219 2406 4219 
Q 1781 4219 1451 3797 
Q 1122 3375 1075 2522 
Q 1259 2794 1537 2939 
Q 1816 3084 2150 3084 
Q 2853 3084 3261 2657 
Q 3669 2231 3669 1497 
Q 3669 778 3244 343 
Q 2819 -91 2113 -91 
Q 1303 -91 875 529 
Q 447 1150 447 2328 
Q 447 3434 972 4092 
Q 1497 4750 2381 4750 
Q 2619 4750 2861 4703 
Q 3103 4656 3366 4563 
z
" transform="scale(0.015625)"/>
       </defs>
       <use xlink:href="#DejaVuSans-36"/>
      </g>
     </g>
    </g>
    <g id="xtick_5">
     <g id="line2d_5">
      <g>
       <use xlink:href="#m4d7f1fbc98" x="322.229261" y="224.64" style="stroke: #000000; stroke-width: 0.8"/>
      </g>
     </g>
     <g id="text_5">
      <!-- 8 -->
      <g transform="translate(319.048011 239.238437)scale(0.1 -0.1)">
       <defs>
        <path id="DejaVuSans-38" d="M 2034 2216 
Q 1584 2216 1326 1975 
Q 1069 1734 1069 1313 
Q 1069 891 1326 650 
Q 1584 409 2034 409 
Q 2484 409 2743 651 
Q 3003 894 3003 1313 
Q 3003 1734 2745 1975 
Q 2488 2216 2034 2216 
z
M 1403 2484 
Q 997 2584 770 2862 
Q 544 3141 544 3541 
Q 544 4100 942 4425 
Q 1341 4750 2034 4750 
Q 2731 4750 3128 4425 
Q 3525 4100 3525 3541 
Q 3525 3141 3298 2862 
Q 3072 2584 2669 2484 
Q 3125 2378 3379 2068 
Q 3634 1759 3634 1313 
Q 3634 634 3220 271 
Q 2806 -91 2034 -91 
Q 1263 -91 848 271 
Q 434 634 434 1313 
Q 434 1759 690 2068 
Q 947 2378 1403 2484 
z
M 1172 3481 
Q 1172 3119 1398 2916 
Q 1625 2713 2034 2713 
Q 2441 2713 2670 2916 
Q 2900 3119 2900 3481 
Q 2900 3844 2670 4047 
Q 2441 4250 2034 4250 
Q 1625 4250 1398 4047 
Q 1172 3844 1172 3481 
z
" transform="scale(0.015625)"/>
       </defs>
       <use xlink:href="#DejaVuSans-38"/>
      </g>
     </g>
    </g>
   </g>
   <g id="matplotlib.axis_2">
    <g id="ytick_1">
     <g id="line2d_6">
      <defs>
       <path id="med5cea8bc2" d="M 0 0 
L -3.5 0 
" style="stroke: #000000; stroke-width: 0.8"/>
      </defs>
      <g>
       <use xlink:href="#med5cea8bc2" x="36.465625" y="214.290281" style="stroke: #000000; stroke-width: 0.8"/>
      </g>
     </g>
     <g id="text_6">
      <!-- 0.0 -->
      <g transform="translate(13.5625 218.0895)scale(0.1 -0.1)">
       <defs>
        <path id="DejaVuSans-2e" d="M 684 794 
L 1344 794 
L 1344 0 
L 684 0 
L 684 794 
z
" transform="scale(0.015625)"/>
       </defs>
       <use xlink:href="#DejaVuSans-30"/>
       <use xlink:href="#DejaVuSans-2e" x="63.623047"/>
       <use xlink:href="#DejaVuSans-30" x="95.410156"/>
      </g>
     </g>
    </g>
    <g id="ytick_2">
     <g id="line2d_7">
      <g>
       <use xlink:href="#med5cea8bc2" x="36.465625" y="188.2489" style="stroke: #000000; stroke-width: 0.8"/>
      </g>
     </g>
     <g id="text_7">
      <!-- 2.5 -->
      <g transform="translate(13.5625 192.048119)scale(0.1 -0.1)">
       <defs>
        <path id="DejaVuSans-35" d="M 691 4666 
L 3169 4666 
L 3169 4134 
L 1269 4134 
L 1269 2991 
Q 1406 3038 1543 3061 
Q 1681 3084 1819 3084 
Q 2600 3084 3056 2656 
Q 3513 2228 3513 1497 
Q 3513 744 3044 326 
Q 2575 -91 1722 -91 
Q 1428 -91 1123 -41 
Q 819 9 494 109 
L 494 744 
Q 775 591 1075 516 
Q 1375 441 1709 441 
Q 2250 441 2565 725 
Q 2881 1009 2881 1497 
Q 2881 1984 2565 2268 
Q 2250 2553 1709 2553 
Q 1456 2553 1204 2497 
Q 953 2441 691 2322 
L 691 4666 
z
" transform="scale(0.015625)"/>
       </defs>
       <use xlink:href="#DejaVuSans-32"/>
       <use xlink:href="#DejaVuSans-2e" x="63.623047"/>
       <use xlink:href="#DejaVuSans-35" x="95.410156"/>
      </g>
     </g>
    </g>
    <g id="ytick_3">
     <g id="line2d_8">
      <g>
       <use xlink:href="#med5cea8bc2" x="36.465625" y="162.207519" style="stroke: #000000; stroke-width: 0.8"/>
      </g>
     </g>
     <g id="text_8">
      <!-- 5.0 -->
      <g transform="translate(13.5625 166.006738)scale(0.1 -0.1)">
       <use xlink:href="#DejaVuSans-35"/>
       <use xlink:href="#DejaVuSans-2e" x="63.623047"/>
       <use xlink:href="#DejaVuSans-30" x="95.410156"/>
      </g>
     </g>
    </g>
    <g id="ytick_4">
     <g id="line2d_9">
      <g>
       <use xlink:href="#med5cea8bc2" x="36.465625" y="136.166138" style="stroke: #000000; stroke-width: 0.8"/>
      </g>
     </g>
     <g id="text_9">
      <!-- 7.5 -->
      <g transform="translate(13.5625 139.965357)scale(0.1 -0.1)">
       <defs>
        <path id="DejaVuSans-37" d="M 525 4666 
L 3525 4666 
L 3525 4397 
L 1831 0 
L 1172 0 
L 2766 4134 
L 525 4134 
L 525 4666 
z
" transform="scale(0.015625)"/>
       </defs>
       <use xlink:href="#DejaVuSans-37"/>
       <use xlink:href="#DejaVuSans-2e" x="63.623047"/>
       <use xlink:href="#DejaVuSans-35" x="95.410156"/>
      </g>
     </g>
    </g>
    <g id="ytick_5">
     <g id="line2d_10">
      <g>
       <use xlink:href="#med5cea8bc2" x="36.465625" y="110.124757" style="stroke: #000000; stroke-width: 0.8"/>
      </g>
     </g>
     <g id="text_10">
      <!-- 10.0 -->
      <g transform="translate(7.2 113.923975)scale(0.1 -0.1)">
       <defs>
        <path id="DejaVuSans-31" d="M 794 531 
L 1825 531 
L 1825 4091 
L 703 3866 
L 703 4441 
L 1819 4666 
L 2450 4666 
L 2450 531 
L 3481 531 
L 3481 0 
L 794 0 
L 794 531 
z
" transform="scale(0.015625)"/>
       </defs>
       <use xlink:href="#DejaVuSans-31"/>
       <use xlink:href="#DejaVuSans-30" x="63.623047"/>
       <use xlink:href="#DejaVuSans-2e" x="127.246094"/>
       <use xlink:href="#DejaVuSans-30" x="159.033203"/>
      </g>
     </g>
    </g>
    <g id="ytick_6">
     <g id="line2d_11">
      <g>
       <use xlink:href="#med5cea8bc2" x="36.465625" y="84.083376" style="stroke: #000000; stroke-width: 0.8"/>
      </g>
     </g>
     <g id="text_11">
      <!-- 12.5 -->
      <g transform="translate(7.2 87.882594)scale(0.1 -0.1)">
       <use xlink:href="#DejaVuSans-31"/>
       <use xlink:href="#DejaVuSans-32" x="63.623047"/>
       <use xlink:href="#DejaVuSans-2e" x="127.246094"/>
       <use xlink:href="#DejaVuSans-35" x="159.033203"/>
      </g>
     </g>
    </g>
    <g id="ytick_7">
     <g id="line2d_12">
      <g>
       <use xlink:href="#med5cea8bc2" x="36.465625" y="58.041995" style="stroke: #000000; stroke-width: 0.8"/>
      </g>
     </g>
     <g id="text_12">
      <!-- 15.0 -->
      <g transform="translate(7.2 61.841213)scale(0.1 -0.1)">
       <use xlink:href="#DejaVuSans-31"/>
       <use xlink:href="#DejaVuSans-35" x="63.623047"/>
       <use xlink:href="#DejaVuSans-2e" x="127.246094"/>
       <use xlink:href="#DejaVuSans-30" x="159.033203"/>
      </g>
     </g>
    </g>
    <g id="ytick_8">
     <g id="line2d_13">
      <g>
       <use xlink:href="#med5cea8bc2" x="36.465625" y="32.000613" style="stroke: #000000; stroke-width: 0.8"/>
      </g>
     </g>
     <g id="text_13">
      <!-- 17.5 -->
      <g transform="translate(7.2 35.799832)scale(0.1 -0.1)">
       <use xlink:href="#DejaVuSans-31"/>
       <use xlink:href="#DejaVuSans-37" x="63.623047"/>
       <use xlink:href="#DejaVuSans-2e" x="127.246094"/>
       <use xlink:href="#DejaVuSans-35" x="159.033203"/>
      </g>
     </g>
    </g>
   </g>
   <g id="line2d_14">
    <path d="M 51.683807 204.99758 
L 54.758187 203.211801 
L 57.832567 201.426023 
L 60.906947 199.640245 
L 63.981327 197.854467 
L 67.055708 196.068688 
L 70.130088 194.28291 
L 73.204468 192.497132 
L 76.278848 190.711353 
L 79.353228 188.925575 
L 82.427608 187.139797 
L 85.501989 185.354019 
L 88.576369 183.56824 
L 91.650749 181.782462 
L 94.725129 179.996684 
L 97.799509 178.210906 
L 100.873889 176.425127 
L 103.94827 174.639349 
L 107.02265 172.853571 
L 110.09703 171.067793 
L 113.17141 169.282014 
L 116.24579 167.496236 
L 119.32017 165.710458 
L 122.394551 163.92468 
L 125.468931 162.138901 
L 128.543311 160.353123 
L 131.617691 158.567345 
L 134.692071 156.781566 
L 137.766451 154.995788 
L 140.840832 153.21001 
L 143.915212 151.424232 
L 146.989592 149.638453 
L 150.063972 147.852675 
L 153.138352 146.066897 
L 156.212732 144.281119 
L 159.287113 142.49534 
L 162.361493 140.709562 
L 165.435873 138.923784 
L 168.510253 137.138006 
L 171.584633 135.352227 
L 174.659013 133.566449 
L 177.733394 131.780671 
L 180.807774 129.994892 
L 183.882154 128.209114 
L 186.956534 126.423336 
L 190.030914 124.637558 
L 193.105294 122.851779 
L 196.179675 121.066001 
L 199.254055 119.280223 
L 202.328435 117.494445 
L 205.402815 115.708666 
L 208.477195 113.922888 
L 211.551575 112.13711 
L 214.625956 110.351332 
L 217.700336 108.565553 
L 220.774716 106.779775 
L 223.849096 104.993997 
L 226.923476 103.208218 
L 229.997856 101.42244 
L 233.072237 99.636662 
L 236.146617 97.850884 
L 239.220997 96.065105 
L 242.295377 94.279327 
L 245.369757 92.493549 
L 248.444137 90.707771 
L 251.518518 88.921992 
L 254.592898 87.136214 
L 257.667278 85.350436 
L 260.741658 83.564658 
L 263.816038 81.778879 
L 266.890418 79.993101 
L 269.964799 78.207323 
L 273.039179 76.421545 
L 276.113559 74.635766 
L 279.187939 72.849988 
L 282.262319 71.06421 
L 285.336699 69.278431 
L 288.41108 67.492653 
L 291.48546 65.706875 
L 294.55984 63.921097 
L 297.63422 62.135318 
L 300.7086 60.34954 
L 303.78298 58.563762 
L 306.857361 56.777984 
L 309.931741 54.992205 
L 313.006121 53.206427 
L 316.080501 51.420649 
L 319.154881 49.634871 
L 322.229261 47.849092 
L 325.303642 46.063314 
L 328.378022 44.277536 
L 331.452402 42.491757 
L 334.526782 40.705979 
L 337.601162 38.920201 
L 340.675542 37.134423 
L 343.749923 35.348644 
L 346.824303 33.562866 
L 349.898683 31.777088 
L 352.973063 29.99131 
L 356.047443 28.205531 
" clip-path="url(#pb244d96aec)" style="fill: none; stroke: #1f77b4; stroke-width: 2.25; stroke-linecap: square"/>
   </g>
   <g id="patch_3">
    <path d="M 36.465625 224.64 
L 36.465625 7.2 
" style="fill: none; stroke: #000000; stroke-width: 0.8; stroke-linejoin: miter; stroke-linecap: square"/>
   </g>
   <g id="patch_4">
    <path d="M 371.265625 224.64 
L 371.265625 7.2 
" style="fill: none; stroke: #000000; stroke-width: 0.8; stroke-linejoin: miter; stroke-linecap: square"/>
   </g>
   <g id="patch_5">
    <path d="M 36.465625 224.64 
L 371.265625 224.64 
" style="fill: none; stroke: #000000; stroke-width: 0.8; stroke-linejoin: miter; stroke-linecap: square"/>
   </g>
   <g id="patch_6">
    <path d="M 36.465625 7.2 
L 371.265625 7.2 
" style="fill: none; stroke: #000000; stroke-width: 0.8; stroke-linejoin: miter; stroke-linecap: square"/>
   </g>
  </g>
 </g>
 <defs>
  <clipPath id="pb244d96aec">
   <rect x="36.465625" y="7.2" width="334.8" height="217.44"/>
  </clipPath>
 </defs>
</svg>
