<?xml version="1.0" encoding="utf-8" standalone="no"?>
<!DOCTYPE svg PUBLIC "-//W3C//DTD SVG 1.1//EN"
  "http://www.w3.org/Graphics/SVG/1.1/DTD/svg11.dtd">
<svg height="248.518125pt" version="1.1" viewBox="0 0 380.482813 248.518125" width="380.482813pt" xmlns="http://www.w3.org/2000/svg" xmlns:xlink="http://www.w3.org/1999/xlink">
 <metadata>
  <rdf:RDF xmlns:cc="http://creativecommons.org/ns#" xmlns:dc="http://purl.org/dc/elements/1.1/" xmlns:rdf="http://www.w3.org/1999/02/22-rdf-syntax-ns#">
   <cc:Work>
    <dc:type rdf:resource="http://purl.org/dc/dcmitype/StillImage"/>
    <dc:date>2022-05-22T18:03:05.956666</dc:date>
    <dc:format>image/svg+xml</dc:format>
    <dc:creator>
     <cc:Agent>
      <dc:title>Matplotlib v3.4.3, https://matplotlib.org/</dc:title>
     </cc:Agent>
    </dc:creator>
   </cc:Work>
  </rdf:RDF>
 </metadata>
 <defs>
  <style type="text/css">*{stroke-linecap:butt;stroke-linejoin:round;}</style>
 </defs>
 <g id="figure_1">
  <g id="patch_1">
   <path d="M -0 248.518125 
L 380.482813 248.518125 
L 380.482813 0 
L -0 0 
z
" style="fill:none;"/>
  </g>
  <g id="axes_1">
   <g id="patch_2">
    <path d="M 38.482813 224.64 
L 373.282813 224.64 
L 373.282813 7.2 
L 38.482813 7.2 
z
" style="fill:#ffffff;"/>
   </g>
   <g id="matplotlib.axis_1">
    <g id="xtick_1">
     <g id="line2d_1">
      <defs>
       <path d="M 0 0 
L 0 3.5 
" id="mcea19a6fbf" style="stroke:#000000;stroke-width:0.8;"/>
      </defs>
      <g>
       <use style="stroke:#000000;stroke-width:0.8;" x="53.089208" xlink:href="#mcea19a6fbf" y="224.64"/>
      </g>
     </g>
     <g id="text_1">
      <!-- 0 -->
      <g transform="translate(49.907958 239.238437)scale(0.1 -0.1)">
       <defs>
        <path d="M 2034 4250 
Q 1547 4250 1301 3770 
Q 1056 3291 1056 2328 
Q 1056 1369 1301 889 
Q 1547 409 2034 409 
Q 2525 409 2770 889 
Q 3016 1369 3016 2328 
Q 3016 3291 2770 3770 
Q 2525 4250 2034 4250 
z
M 2034 4750 
Q 2819 4750 3233 4129 
Q 3647 3509 3647 2328 
Q 3647 1150 3233 529 
Q 2819 -91 2034 -91 
Q 1250 -91 836 529 
Q 422 1150 422 2328 
Q 422 3509 836 4129 
Q 1250 4750 2034 4750 
z
" id="DejaVuSans-30" transform="scale(0.015625)"/>
       </defs>
       <use xlink:href="#DejaVuSans-30"/>
      </g>
     </g>
    </g>
    <g id="xtick_2">
     <g id="line2d_2">
      <g>
       <use style="stroke:#000000;stroke-width:0.8;" x="101.724923" xlink:href="#mcea19a6fbf" y="224.64"/>
      </g>
     </g>
     <g id="text_2">
      <!-- 5 -->
      <g transform="translate(98.543673 239.238437)scale(0.1 -0.1)">
       <defs>
        <path d="M 691 4666 
L 3169 4666 
L 3169 4134 
L 1269 4134 
L 1269 2991 
Q 1406 3038 1543 3061 
Q 1681 3084 1819 3084 
Q 2600 3084 3056 2656 
Q 3513 2228 3513 1497 
Q 3513 744 3044 326 
Q 2575 -91 1722 -91 
Q 1428 -91 1123 -41 
Q 819 9 494 109 
L 494 744 
Q 775 591 1075 516 
Q 1375 441 1709 441 
Q 2250 441 2565 725 
Q 2881 1009 2881 1497 
Q 2881 1984 2565 2268 
Q 2250 2553 1709 2553 
Q 1456 2553 1204 2497 
Q 953 2441 691 2322 
L 691 4666 
z
" id="DejaVuSans-35" transform="scale(0.015625)"/>
       </defs>
       <use xlink:href="#DejaVuSans-35"/>
      </g>
     </g>
    </g>
    <g id="xtick_3">
     <g id="line2d_3">
      <g>
       <use style="stroke:#000000;stroke-width:0.8;" x="150.360638" xlink:href="#mcea19a6fbf" y="224.64"/>
      </g>
     </g>
     <g id="text_3">
      <!-- 10 -->
      <g transform="translate(143.998138 239.238437)scale(0.1 -0.1)">
       <defs>
        <path d="M 794 531 
L 1825 531 
L 1825 4091 
L 703 3866 
L 703 4441 
L 1819 4666 
L 2450 4666 
L 2450 531 
L 3481 531 
L 3481 0 
L 794 0 
L 794 531 
z
" id="DejaVuSans-31" transform="scale(0.015625)"/>
       </defs>
       <use xlink:href="#DejaVuSans-31"/>
       <use x="63.623047" xlink:href="#DejaVuSans-30"/>
      </g>
     </g>
    </g>
    <g id="xtick_4">
     <g id="line2d_4">
      <g>
       <use style="stroke:#000000;stroke-width:0.8;" x="198.996353" xlink:href="#mcea19a6fbf" y="224.64"/>
      </g>
     </g>
     <g id="text_4">
      <!-- 15 -->
      <g transform="translate(192.633853 239.238437)scale(0.1 -0.1)">
       <use xlink:href="#DejaVuSans-31"/>
       <use x="63.623047" xlink:href="#DejaVuSans-35"/>
      </g>
     </g>
    </g>
    <g id="xtick_5">
     <g id="line2d_5">
      <g>
       <use style="stroke:#000000;stroke-width:0.8;" x="247.632067" xlink:href="#mcea19a6fbf" y="224.64"/>
      </g>
     </g>
     <g id="text_5">
      <!-- 20 -->
      <g transform="translate(241.269567 239.238437)scale(0.1 -0.1)">
       <defs>
        <path d="M 1228 531 
L 3431 531 
L 3431 0 
L 469 0 
L 469 531 
Q 828 903 1448 1529 
Q 2069 2156 2228 2338 
Q 2531 2678 2651 2914 
Q 2772 3150 2772 3378 
Q 2772 3750 2511 3984 
Q 2250 4219 1831 4219 
Q 1534 4219 1204 4116 
Q 875 4013 500 3803 
L 500 4441 
Q 881 4594 1212 4672 
Q 1544 4750 1819 4750 
Q 2544 4750 2975 4387 
Q 3406 4025 3406 3419 
Q 3406 3131 3298 2873 
Q 3191 2616 2906 2266 
Q 2828 2175 2409 1742 
Q 1991 1309 1228 531 
z
" id="DejaVuSans-32" transform="scale(0.015625)"/>
       </defs>
       <use xlink:href="#DejaVuSans-32"/>
       <use x="63.623047" xlink:href="#DejaVuSans-30"/>
      </g>
     </g>
    </g>
    <g id="xtick_6">
     <g id="line2d_6">
      <g>
       <use style="stroke:#000000;stroke-width:0.8;" x="296.267782" xlink:href="#mcea19a6fbf" y="224.64"/>
      </g>
     </g>
     <g id="text_6">
      <!-- 25 -->
      <g transform="translate(289.905282 239.238437)scale(0.1 -0.1)">
       <use xlink:href="#DejaVuSans-32"/>
       <use x="63.623047" xlink:href="#DejaVuSans-35"/>
      </g>
     </g>
    </g>
    <g id="xtick_7">
     <g id="line2d_7">
      <g>
       <use style="stroke:#000000;stroke-width:0.8;" x="344.903497" xlink:href="#mcea19a6fbf" y="224.64"/>
      </g>
     </g>
     <g id="text_7">
      <!-- 30 -->
      <g transform="translate(338.540997 239.238437)scale(0.1 -0.1)">
       <defs>
        <path d="M 2597 2516 
Q 3050 2419 3304 2112 
Q 3559 1806 3559 1356 
Q 3559 666 3084 287 
Q 2609 -91 1734 -91 
Q 1441 -91 1130 -33 
Q 819 25 488 141 
L 488 750 
Q 750 597 1062 519 
Q 1375 441 1716 441 
Q 2309 441 2620 675 
Q 2931 909 2931 1356 
Q 2931 1769 2642 2001 
Q 2353 2234 1838 2234 
L 1294 2234 
L 1294 2753 
L 1863 2753 
Q 2328 2753 2575 2939 
Q 2822 3125 2822 3475 
Q 2822 3834 2567 4026 
Q 2313 4219 1838 4219 
Q 1578 4219 1281 4162 
Q 984 4106 628 3988 
L 628 4550 
Q 988 4650 1302 4700 
Q 1616 4750 1894 4750 
Q 2613 4750 3031 4423 
Q 3450 4097 3450 3541 
Q 3450 3153 3228 2886 
Q 3006 2619 2597 2516 
z
" id="DejaVuSans-33" transform="scale(0.015625)"/>
       </defs>
       <use xlink:href="#DejaVuSans-33"/>
       <use x="63.623047" xlink:href="#DejaVuSans-30"/>
      </g>
     </g>
    </g>
   </g>
   <g id="matplotlib.axis_2">
    <g id="ytick_1">
     <g id="line2d_8">
      <defs>
       <path d="M 0 0 
L -3.5 0 
" id="mdbae804f12" style="stroke:#000000;stroke-width:0.8;"/>
      </defs>
      <g>
       <use style="stroke:#000000;stroke-width:0.8;" x="38.482813" xlink:href="#mdbae804f12" y="200.868785"/>
      </g>
     </g>
     <g id="text_8">
      <!-- −1.0 -->
      <g transform="translate(7.2 204.668004)scale(0.1 -0.1)">
       <defs>
        <path d="M 678 2272 
L 4684 2272 
L 4684 1741 
L 678 1741 
L 678 2272 
z
" id="DejaVuSans-2212" transform="scale(0.015625)"/>
        <path d="M 684 794 
L 1344 794 
L 1344 0 
L 684 0 
L 684 794 
z
" id="DejaVuSans-2e" transform="scale(0.015625)"/>
       </defs>
       <use xlink:href="#DejaVuSans-2212"/>
       <use x="83.789062" xlink:href="#DejaVuSans-31"/>
       <use x="147.412109" xlink:href="#DejaVuSans-2e"/>
       <use x="179.199219" xlink:href="#DejaVuSans-30"/>
      </g>
     </g>
    </g>
    <g id="ytick_2">
     <g id="line2d_9">
      <g>
       <use style="stroke:#000000;stroke-width:0.8;" x="38.482813" xlink:href="#mdbae804f12" y="159.341112"/>
      </g>
     </g>
     <g id="text_9">
      <!-- −0.5 -->
      <g transform="translate(7.2 163.140331)scale(0.1 -0.1)">
       <use xlink:href="#DejaVuSans-2212"/>
       <use x="83.789062" xlink:href="#DejaVuSans-30"/>
       <use x="147.412109" xlink:href="#DejaVuSans-2e"/>
       <use x="179.199219" xlink:href="#DejaVuSans-35"/>
      </g>
     </g>
    </g>
    <g id="ytick_3">
     <g id="line2d_10">
      <g>
       <use style="stroke:#000000;stroke-width:0.8;" x="38.482813" xlink:href="#mdbae804f12" y="117.813439"/>
      </g>
     </g>
     <g id="text_10">
      <!-- 0.0 -->
      <g transform="translate(15.579688 121.612658)scale(0.1 -0.1)">
       <use xlink:href="#DejaVuSans-30"/>
       <use x="63.623047" xlink:href="#DejaVuSans-2e"/>
       <use x="95.410156" xlink:href="#DejaVuSans-30"/>
      </g>
     </g>
    </g>
    <g id="ytick_4">
     <g id="line2d_11">
      <g>
       <use style="stroke:#000000;stroke-width:0.8;" x="38.482813" xlink:href="#mdbae804f12" y="76.285766"/>
      </g>
     </g>
     <g id="text_11">
      <!-- 0.5 -->
      <g transform="translate(15.579688 80.084985)scale(0.1 -0.1)">
       <use xlink:href="#DejaVuSans-30"/>
       <use x="63.623047" xlink:href="#DejaVuSans-2e"/>
       <use x="95.410156" xlink:href="#DejaVuSans-35"/>
      </g>
     </g>
    </g>
    <g id="ytick_5">
     <g id="line2d_12">
      <g>
       <use style="stroke:#000000;stroke-width:0.8;" x="38.482813" xlink:href="#mdbae804f12" y="34.758093"/>
      </g>
     </g>
     <g id="text_12">
      <!-- 1.0 -->
      <g transform="translate(15.579688 38.557312)scale(0.1 -0.1)">
       <use xlink:href="#DejaVuSans-31"/>
       <use x="63.623047" xlink:href="#DejaVuSans-2e"/>
       <use x="95.410156" xlink:href="#DejaVuSans-30"/>
      </g>
     </g>
    </g>
   </g>
   <g id="line2d_13">
    <path clip-path="url(#pa6beeafe67)" d="M 53.700994 112.286639 
L 54.618674 99.280376 
L 55.23046 88.483513 
L 55.536353 89.827904 
L 55.842246 97.050307 
L 56.148139 98.851336 
L 56.759925 82.819557 
L 57.065818 81.691432 
L 57.371712 88.702756 
L 57.677605 91.63576 
L 57.983498 90.059126 
L 58.901177 73.508246 
L 59.512963 57.688431 
L 59.818856 56.806704 
L 60.124749 60.916846 
L 60.430643 61.465469 
L 61.348322 41.193092 
L 61.654215 42.9426 
L 62.266001 51.607632 
L 62.571894 51.514634 
L 62.877787 47.336498 
L 63.18368 46.132525 
L 63.489574 42.651007 
L 63.795467 43.0263 
L 64.10136 36.291189 
L 64.713146 33.471295 
L 65.019039 34.771538 
L 65.324932 32.628037 
L 65.630825 29.305612 
L 65.936718 29.488932 
L 66.548505 38.406632 
L 66.854398 41.058457 
L 67.160291 36.640562 
L 67.466184 34.191048 
L 67.772077 34.662329 
L 68.383863 41.359434 
L 68.689756 39.241503 
L 68.995649 38.965369 
L 69.607436 32.516951 
L 69.913329 32.704763 
L 70.219222 38.695652 
L 70.525115 47.622197 
L 70.831008 48.154407 
L 71.442794 30.606416 
L 71.748687 27.457912 
L 72.360474 36.953016 
L 72.666367 39.24309 
L 72.97226 34.724198 
L 73.278153 34.261817 
L 73.584046 35.923371 
L 73.889939 42.069158 
L 74.195832 44.922336 
L 74.501725 44.644879 
L 74.807618 46.095928 
L 75.419405 58.601488 
L 75.725298 60.551917 
L 76.031191 63.414378 
L 76.337084 63.425935 
L 76.642977 68.093264 
L 76.94887 62.984351 
L 77.254763 63.73552 
L 77.560656 61.728586 
L 77.866549 66.589267 
L 78.478336 69.834385 
L 79.090122 78.767778 
L 79.701908 92.656052 
L 80.007801 98.196674 
L 80.313694 94.992801 
L 80.619587 88.314564 
L 80.92548 86.075401 
L 81.231373 92.21328 
L 81.537267 101.733753 
L 82.149053 107.159114 
L 82.454946 107.233186 
L 82.760839 108.838403 
L 83.372625 104.8873 
L 83.678518 105.901622 
L 83.984411 108.558379 
L 84.902091 132.454391 
L 85.513877 140.01081 
L 85.81977 140.867883 
L 86.125663 139.63664 
L 86.431556 140.254156 
L 86.737449 140.191099 
L 87.349236 152.191705 
L 87.655129 158.823642 
L 87.961022 162.63494 
L 88.266915 163.530856 
L 88.572808 161.238016 
L 88.878701 161.75477 
L 89.184594 160.288848 
L 89.490487 164.428 
L 89.79638 165.228555 
L 90.102273 168.638077 
L 90.408167 165.080629 
L 90.71406 159.894274 
L 91.019953 159.580601 
L 91.325846 164.390928 
L 91.631739 171.162747 
L 91.937632 172.076463 
L 92.549418 180.148551 
L 92.855311 186.197562 
L 93.467098 188.955184 
L 93.772991 189.184445 
L 94.078884 191.644006 
L 94.384777 195.452006 
L 94.69067 197.621573 
L 94.996563 194.994112 
L 95.302456 185.506358 
L 95.608349 182.617668 
L 95.914242 186.988608 
L 96.220135 195.190313 
L 96.526029 198.870764 
L 96.831922 196.800603 
L 97.137815 196.137633 
L 97.443708 196.615573 
L 98.055494 202.75936 
L 98.66728 196.730613 
L 98.973173 197.625393 
L 99.279066 202.96226 
L 99.58496 210.477583 
L 100.196746 212.804591 
L 100.808532 208.239498 
L 101.726211 192.699841 
L 102.032104 196.362592 
L 102.337998 203.2044 
L 102.643891 205.831624 
L 103.56157 186.838768 
L 103.867463 189.358516 
L 104.173356 194.432283 
L 104.479249 192.387241 
L 104.785142 187.258234 
L 105.091035 177.07349 
L 105.702822 177.715484 
L 106.008715 179.847379 
L 106.620501 163.742024 
L 106.926394 160.538451 
L 107.232287 162.287439 
L 107.53818 166.657114 
L 107.844073 165.356705 
L 108.149966 165.334823 
L 109.067646 152.913355 
L 109.679432 149.527121 
L 110.291218 143.372784 
L 110.597111 138.981479 
L 110.903004 132.652477 
L 111.208897 129.227918 
L 111.514791 131.816278 
L 112.126577 146.697596 
L 112.43247 146.043162 
L 112.738363 140.025568 
L 113.350149 118.573641 
L 113.656042 115.09472 
L 113.961935 113.744439 
L 114.267828 117.080386 
L 114.573722 117.094205 
L 114.879615 120.919308 
L 115.185508 121.132716 
L 115.491401 119.920469 
L 116.40908 97.226633 
L 116.714973 95.522911 
L 117.020866 90.373676 
L 117.32676 82.777842 
L 117.632653 79.284813 
L 117.938546 80.763986 
L 118.244439 83.25993 
L 118.550332 78.89959 
L 118.856225 77.820483 
L 119.162118 73.240755 
L 119.468011 72.18302 
L 119.773904 65.270829 
L 120.079797 64.141532 
L 120.385691 63.751901 
L 120.691584 67.305739 
L 120.997477 66.321653 
L 121.30337 62.236474 
L 121.609263 52.454408 
L 121.915156 48.298136 
L 122.221049 51.363633 
L 122.526942 60.653939 
L 122.832835 62.95591 
L 123.138728 54.81965 
L 123.444622 41.598826 
L 123.750515 35.300165 
L 124.056408 37.03562 
L 124.668194 45.961774 
L 124.974087 49.005319 
L 125.27998 54.334612 
L 125.585873 56.186331 
L 125.891766 54.079301 
L 126.197659 48.793172 
L 127.115339 44.081467 
L 127.421232 40.937094 
L 127.727125 42.103002 
L 128.033018 39.729279 
L 128.644804 28.052528 
L 128.950697 30.338516 
L 129.25659 34.927953 
L 129.562484 37.212644 
L 130.17427 25.997847 
L 130.480163 23.859443 
L 130.786056 28.858279 
L 131.091949 35.850639 
L 131.397842 40.193284 
L 131.703735 38.607827 
L 132.315521 33.604662 
L 132.621415 34.598028 
L 132.927308 36.386972 
L 133.539094 41.80989 
L 133.844987 39.868386 
L 134.15088 39.920953 
L 134.456773 38.655761 
L 134.762666 45.934069 
L 135.068559 50.161445 
L 135.374453 57.079912 
L 135.680346 57.74095 
L 135.986239 63.866175 
L 136.292132 64.971468 
L 136.598025 68.035516 
L 136.903918 67.936548 
L 137.209811 69.424599 
L 137.821597 62.57185 
L 138.12749 63.506024 
L 138.433384 73.113749 
L 138.739277 78.887179 
L 139.04517 80.301184 
L 139.351063 75.620256 
L 139.656956 74.679894 
L 139.962849 75.743104 
L 140.268742 79.073581 
L 140.574635 78.08025 
L 140.880528 73.945834 
L 141.186421 73.406331 
L 141.492315 76.630681 
L 141.798208 86.052771 
L 142.409994 92.745105 
L 142.715887 89.552204 
L 143.02178 88.898066 
L 143.327673 90.335076 
L 144.551246 125.794962 
L 144.857139 125.866077 
L 145.468925 132.330247 
L 145.774818 134.083471 
L 146.386604 123.580614 
L 146.99839 127.887776 
L 147.304283 135.937545 
L 147.610177 135.538629 
L 147.91607 142.951997 
L 148.221963 142.341493 
L 148.527856 149.379989 
L 148.833749 152.322376 
L 149.445535 166.97187 
L 149.751428 167.951304 
L 150.057321 168.511393 
L 150.363215 167.880162 
L 150.669108 175.125443 
L 150.975001 179.242385 
L 151.280894 186.522604 
L 151.586787 185.357604 
L 151.89268 181.494039 
L 152.198573 168.908706 
L 152.504466 165.490033 
L 152.810359 170.729166 
L 153.116252 182.524176 
L 153.422146 185.840377 
L 154.033932 175.900154 
L 154.339825 177.849847 
L 154.951611 194.469674 
L 155.257504 194.29675 
L 155.563397 186.97068 
L 155.86929 183.842737 
L 156.175183 189.505337 
L 156.481077 198.54732 
L 156.78697 198.61125 
L 157.398756 185.128378 
L 157.704649 189.229574 
L 158.010542 197.065548 
L 158.316435 208.21416 
L 158.622328 209.206681 
L 158.928221 207.187213 
L 159.234114 198.534009 
L 159.845901 195.194958 
L 160.151794 202.136804 
L 160.76358 209.583736 
L 161.069473 207.202227 
L 161.375366 203.665914 
L 161.681259 205.62961 
L 161.987152 204.066352 
L 162.293045 203.112275 
L 162.598939 196.229348 
L 163.210725 192.367894 
L 163.516618 192.275118 
L 163.822511 194.153927 
L 164.434297 202.547684 
L 164.74019 201.748916 
L 165.046083 197.9506 
L 165.65787 182.789696 
L 165.963763 173.840902 
L 166.269656 172.475755 
L 166.575549 172.099129 
L 166.881442 173.472213 
L 167.187335 170.855758 
L 167.799121 172.358194 
L 168.105014 169.974515 
L 169.940373 144.762937 
L 170.552159 151.299261 
L 170.858052 160.050299 
L 171.163945 157.427148 
L 171.469839 152.486705 
L 171.775732 139.891282 
L 172.081625 132.694246 
L 172.387518 131.382688 
L 172.693411 133.425368 
L 172.999304 138.842161 
L 173.305197 134.796141 
L 173.61109 132.678624 
L 173.916983 127.236579 
L 174.222876 130.233901 
L 174.52877 130.658043 
L 174.834663 129.930054 
L 175.752342 122.827014 
L 176.975914 97.922099 
L 177.281807 96.710269 
L 177.587701 101.520267 
L 177.893594 101.414466 
L 178.199487 99.992061 
L 178.811273 83.2737 
L 179.117166 73.22344 
L 179.423059 67.89536 
L 180.034845 66.176206 
L 180.340738 66.761156 
L 180.646632 68.645272 
L 181.258418 81.296702 
L 181.564311 87.122488 
L 181.870204 87.144421 
L 182.176097 81.206433 
L 182.787883 61.225582 
L 183.093776 61.871423 
L 183.39967 62.227134 
L 183.705563 68.020135 
L 184.317349 56.121875 
L 184.623242 45.908498 
L 185.235028 38.288908 
L 185.540921 36.598836 
L 185.846814 36.524518 
L 186.152707 36.202926 
L 186.764494 35.039244 
L 187.070387 36.337786 
L 187.37628 41.741808 
L 187.682173 42.605539 
L 187.988066 44.274119 
L 188.293959 39.329124 
L 188.599852 37.602593 
L 188.905745 30.210236 
L 189.211638 25.639377 
L 189.517532 24.127903 
L 189.823425 25.675445 
L 190.129318 29.183599 
L 190.435211 28.573601 
L 190.741104 32.523299 
L 191.046997 32.790235 
L 191.35289 34.277724 
L 191.658783 31.874306 
L 192.270569 43.487286 
L 192.576463 47.605793 
L 193.188249 31.852002 
L 193.494142 28.60035 
L 194.105928 39.776695 
L 194.411821 41.434377 
L 194.717714 39.641185 
L 195.023607 40.432651 
L 195.3295 42.700875 
L 195.635394 50.381535 
L 195.941287 52.987525 
L 196.24718 53.632306 
L 196.553073 50.489462 
L 196.858966 50.853143 
L 198.082538 64.281859 
L 198.388432 61.657836 
L 198.694325 54.731315 
L 199.000218 52.313331 
L 199.306111 59.718926 
L 199.917897 82.612487 
L 200.22379 86.855922 
L 200.529683 85.992886 
L 200.835576 86.623123 
L 201.141469 87.812582 
L 201.447363 93.870052 
L 201.753256 95.567994 
L 202.059149 95.763673 
L 202.365042 88.229994 
L 202.670935 87.134605 
L 202.976828 89.152217 
L 203.282721 96.998822 
L 203.588614 99.796115 
L 203.894507 98.857561 
L 204.2004 98.426656 
L 204.506294 101.532977 
L 205.11808 110.988394 
L 205.423973 110.707233 
L 205.729866 111.392679 
L 206.035759 109.915013 
L 206.647545 112.393709 
L 206.953438 116.188211 
L 207.259331 121.554723 
L 207.565225 129.010656 
L 207.871118 132.614607 
L 208.177011 133.751534 
L 208.482904 133.640319 
L 208.788797 136.517361 
L 209.706476 164.00292 
L 210.012369 164.726595 
L 210.624156 159.93391 
L 210.930049 163.507438 
L 211.235942 168.625787 
L 211.541835 169.884917 
L 211.847728 168.048393 
L 212.153621 164.459973 
L 212.459514 165.929776 
L 212.765407 170.149564 
L 213.0713 177.619331 
L 213.377193 181.675937 
L 213.683087 180.615213 
L 213.98898 175.734809 
L 214.294873 177.433683 
L 214.906659 192.800154 
L 215.212552 195.025871 
L 215.518445 193.246943 
L 215.824338 194.941361 
L 216.130231 194.863042 
L 216.436125 194.046275 
L 216.742018 189.063299 
L 217.047911 190.642006 
L 217.353804 194.627735 
L 217.659697 197.156172 
L 217.96559 193.204163 
L 218.271483 186.691659 
L 218.577376 186.379537 
L 218.883269 192.395524 
L 219.189162 204.687745 
L 219.495056 210.378567 
L 219.800949 207.535098 
L 220.412735 195.130809 
L 220.718628 198.355026 
L 221.024521 195.72247 
L 221.330414 197.848722 
L 221.636307 192.520001 
L 221.9422 198.091607 
L 222.248093 196.788232 
L 222.553987 201.125213 
L 222.85988 200.091192 
L 223.471666 211.129105 
L 223.777559 214.756364 
L 224.389345 211.30162 
L 225.001131 203.002531 
L 225.307024 193.302966 
L 225.612918 192.38591 
L 225.918811 190.314199 
L 226.224704 195.92159 
L 226.530597 193.828881 
L 226.83649 194.540104 
L 227.142383 193.018985 
L 227.448276 195.959053 
L 227.754169 193.187156 
L 228.365955 177.588195 
L 228.671849 174.328053 
L 228.977742 177.902675 
L 229.283635 179.355628 
L 229.589528 179.006704 
L 230.507207 154.709314 
L 230.8131 155.072068 
L 231.118993 158.591836 
L 231.424887 163.528309 
L 231.73078 165.156782 
L 232.648459 144.783433 
L 232.954352 144.264466 
L 233.260245 138.938255 
L 233.566138 136.878774 
L 233.872031 136.306507 
L 234.177924 136.151721 
L 234.483818 137.90399 
L 235.401497 126.871413 
L 235.70739 125.926708 
L 236.013283 126.459815 
L 236.625069 121.548577 
L 237.542749 102.272759 
L 237.848642 102.452793 
L 238.154535 106.70398 
L 238.460428 108.314315 
L 239.072214 93.719708 
L 239.378107 88.54367 
L 239.684 92.936201 
L 239.989893 94.725895 
L 240.295786 99.02908 
L 240.907573 91.658659 
L 241.213466 86.716173 
L 241.519359 86.056318 
L 242.131145 73.691622 
L 242.437038 64.139465 
L 242.742931 65.172288 
L 243.048824 67.936418 
L 243.354717 72.881103 
L 243.966504 62.539815 
L 244.272397 52.387472 
L 244.884183 48.237248 
L 245.190076 49.886724 
L 245.495969 46.346614 
L 246.107755 35.294016 
L 246.719542 34.430782 
L 247.637221 43.762435 
L 248.5549 39.400526 
L 249.166686 38.485509 
L 249.778473 36.216323 
L 250.084366 30.588473 
L 250.390259 31.428624 
L 250.696152 36.181699 
L 251.002045 45.168595 
L 251.307938 47.071755 
L 251.613831 45.520249 
L 252.225617 38.863161 
L 252.837404 23.000105 
L 253.143297 17.083636 
L 253.44919 21.458817 
L 254.060976 37.736156 
L 254.366869 36.879718 
L 254.672762 36.451624 
L 254.978655 39.089463 
L 255.284548 49.41423 
L 255.590442 51.723258 
L 255.896335 45.276062 
L 256.202228 35.466462 
L 256.508121 30.865208 
L 256.814014 32.136167 
L 257.4258 38.369066 
L 258.343479 61.649744 
L 258.649373 63.430832 
L 259.261159 58.301783 
L 259.567052 53.93397 
L 259.872945 54.453656 
L 260.178838 58.957281 
L 260.790624 76.467982 
L 261.096517 76.380334 
L 261.40241 72.365903 
L 261.708304 71.471027 
L 262.014197 72.833404 
L 262.32009 76.5608 
L 262.625983 75.227747 
L 263.237769 77.797457 
L 263.543662 80.579352 
L 263.849555 80.323765 
L 264.155448 83.24427 
L 264.767235 103.855882 
L 265.073128 109.012754 
L 265.379021 106.783896 
L 266.2967 123.092774 
L 266.602593 123.508657 
L 267.214379 135.888236 
L 267.520273 138.490623 
L 268.132059 133.702061 
L 268.437952 133.833196 
L 269.049738 132.079203 
L 269.967417 147.859555 
L 270.27331 143.100204 
L 270.579204 141.455662 
L 270.885097 146.500038 
L 271.19099 155.291084 
L 271.496883 160.122119 
L 271.802776 159.967119 
L 272.414562 146.542816 
L 272.720455 145.338429 
L 273.638135 166.328228 
L 274.249921 165.614082 
L 274.861707 174.549887 
L 275.1676 176.188923 
L 275.473493 173.118828 
L 275.779386 171.21199 
L 276.085279 170.208531 
L 276.697066 175.517019 
L 277.308852 190.173128 
L 277.614745 194.015338 
L 277.920638 195.029646 
L 278.226531 194.6137 
L 278.532424 201.658177 
L 279.14421 205.817581 
L 279.450104 200.676589 
L 279.755997 198.571267 
L 280.06189 195.682928 
L 280.367783 198.623116 
L 280.979569 207.965082 
L 281.591355 203.418469 
L 281.897248 203.625607 
L 282.203141 208.463247 
L 282.509035 210.481288 
L 283.120821 198.172485 
L 283.426714 192.751609 
L 283.732607 196.157906 
L 284.0385 202.854628 
L 284.344393 203.907476 
L 284.650286 198.509426 
L 284.956179 187.861215 
L 285.567966 180.982376 
L 285.873859 182.678459 
L 286.179752 186.006229 
L 286.485645 190.743996 
L 286.791538 192.00761 
L 287.403324 180.040615 
L 287.709217 176.912503 
L 288.01511 177.791989 
L 288.626897 184.780193 
L 288.93279 184.243251 
L 289.238683 181.275409 
L 289.544576 174.558543 
L 289.850469 174.76578 
L 290.156362 171.194347 
L 290.462255 173.484543 
L 290.768148 173.804205 
L 291.074041 181.517145 
L 291.379934 184.257169 
L 291.685828 185.894741 
L 292.297614 175.330728 
L 292.603507 166.020991 
L 292.9094 162.6771 
L 293.215293 161.423868 
L 293.521186 164.121538 
L 293.827079 160.027421 
L 294.132972 154.381178 
L 295.050652 132.55984 
L 295.662438 120.096056 
L 295.968331 122.293147 
L 296.580117 130.032229 
L 296.88601 124.37869 
L 297.497797 101.590298 
L 297.80369 97.292953 
L 298.721369 112.063194 
L 299.333155 100.895114 
L 299.639048 93.02176 
L 299.944941 90.76067 
L 300.250834 86.651027 
L 300.556728 84.837185 
L 300.862621 79.570469 
L 301.168514 77.476478 
L 301.474407 71.543936 
L 301.7803 71.034768 
L 302.086193 70.008857 
L 302.697979 72.913338 
L 303.003872 73.913221 
L 303.309765 75.834604 
L 304.227445 60.079803 
L 304.533338 58.976431 
L 304.839231 57.368072 
L 305.145124 54.342269 
L 305.451017 57.593991 
L 305.75691 56.505368 
L 306.062803 57.351143 
L 306.368696 48.880106 
L 306.67459 46.377073 
L 307.286376 40.202759 
L 307.898162 29.223356 
L 308.204055 32.841837 
L 308.509948 39.775902 
L 308.815841 42.829695 
L 309.427627 29.909182 
L 309.733521 29.204792 
L 310.039414 35.749277 
L 310.6512 31.759312 
L 310.957093 26.122503 
L 311.262986 26.685654 
L 311.568879 22.733023 
L 312.486559 33.044393 
L 312.792452 31.931225 
L 313.098345 31.379967 
L 313.404238 32.133416 
L 314.016024 28.822091 
L 314.321917 29.744041 
L 314.933703 39.749198 
L 315.239596 39.030677 
L 315.54549 37.413593 
L 315.851383 33.324243 
L 316.463169 41.019385 
L 316.769062 51.707342 
L 317.380848 56.458143 
L 317.992634 51.021404 
L 318.604421 38.856906 
L 318.910314 42.155053 
L 319.5221 62.887455 
L 319.827993 64.854871 
L 320.745672 47.422758 
L 321.051565 50.526978 
L 321.357458 56.854432 
L 321.663352 65.533437 
L 322.275138 73.285658 
L 322.886924 71.512711 
L 323.192817 67.910758 
L 323.804603 72.433314 
L 324.110496 81.367888 
L 324.722283 91.02138 
L 325.028176 88.972831 
L 325.334069 89.315923 
L 325.639962 93.728158 
L 325.945855 100.94834 
L 326.251748 105.25211 
L 326.557641 105.311207 
L 326.863534 104.517885 
L 327.169427 108.490942 
L 327.781214 112.899779 
L 328.087107 111.704354 
L 328.393 118.32954 
L 329.310679 147.107356 
L 329.616572 150.271432 
L 329.922465 150.097922 
L 330.228358 147.516966 
L 330.534252 142.221828 
L 330.840145 134.571277 
L 331.146038 130.060004 
L 331.451931 130.655119 
L 332.063717 142.056079 
L 332.36961 147.285032 
L 332.675503 149.075054 
L 332.981396 152.947594 
L 333.287289 153.11826 
L 333.593183 157.232811 
L 333.899076 158.206125 
L 334.204969 165.727724 
L 334.510862 166.10502 
L 334.816755 170.2576 
L 335.122648 170.579656 
L 335.428541 173.466162 
L 335.734434 172.002823 
L 336.040327 166.905062 
L 336.34622 164.872823 
L 336.652114 168.936428 
L 337.2639 180.991491 
L 337.569793 184.097949 
L 338.487472 200.576242 
L 338.793365 202.613745 
L 339.099258 202.509204 
L 340.016938 181.444239 
L 340.322831 181.057432 
L 340.628724 182.875918 
L 341.546403 197.914757 
L 341.852296 198.330092 
L 342.769976 208.291405 
L 343.075869 203.47424 
L 343.687655 185.803182 
L 343.993548 184.371427 
L 344.299441 185.73851 
L 344.605334 184.019271 
L 344.911227 183.646946 
L 345.21712 184.789925 
L 345.523014 192.558387 
L 346.1348 203.317228 
L 346.746586 198.403474 
L 347.052479 193.573822 
L 347.358372 191.501721 
L 347.970158 184.593482 
L 348.276051 185.874932 
L 348.887838 191.4689 
L 349.499624 182.904775 
L 349.805517 177.258452 
L 350.11141 175.645318 
L 350.723196 166.529561 
L 351.029089 163.96099 
L 351.334982 169.280201 
L 351.640876 172.277102 
L 351.946769 173.179243 
L 352.252662 168.02883 
L 352.558555 166.742462 
L 353.170341 161.701396 
L 353.476234 158.38463 
L 354.393913 141.945212 
L 354.699807 141.81791 
L 355.0057 144.000485 
L 355.311593 139.733492 
L 355.617486 133.126386 
L 355.923379 123.837146 
L 356.229272 124.000298 
L 356.535165 126.336141 
L 356.841058 130.621631 
L 357.146951 126.342653 
L 358.064631 102.277334 
L 358.064631 102.277334 
" style="fill:none;stroke:#1f77b4;stroke-linecap:square;stroke-width:1.5;"/>
   </g>
   <g id="patch_3">
    <path d="M 38.482813 224.64 
L 38.482813 7.2 
" style="fill:none;stroke:#000000;stroke-linecap:square;stroke-linejoin:miter;stroke-width:0.8;"/>
   </g>
   <g id="patch_4">
    <path d="M 373.282813 224.64 
L 373.282813 7.2 
" style="fill:none;stroke:#000000;stroke-linecap:square;stroke-linejoin:miter;stroke-width:0.8;"/>
   </g>
   <g id="patch_5">
    <path d="M 38.482813 224.64 
L 373.282813 224.64 
" style="fill:none;stroke:#000000;stroke-linecap:square;stroke-linejoin:miter;stroke-width:0.8;"/>
   </g>
   <g id="patch_6">
    <path d="M 38.482813 7.2 
L 373.282813 7.2 
" style="fill:none;stroke:#000000;stroke-linecap:square;stroke-linejoin:miter;stroke-width:0.8;"/>
   </g>
  </g>
 </g>
 <defs>
  <clipPath id="pa6beeafe67">
   <rect height="217.44" width="334.8" x="38.482813" y="7.2"/>
  </clipPath>
 </defs>
</svg>
