<?xml version="1.0" encoding="utf-8" standalone="no"?>
<!DOCTYPE svg PUBLIC "-//W3C//DTD SVG 1.1//EN"
  "http://www.w3.org/Graphics/SVG/1.1/DTD/svg11.dtd">
<svg height="248.518125pt" version="1.1" viewBox="0 0 378.465625 248.518125" width="378.465625pt" xmlns="http://www.w3.org/2000/svg" xmlns:xlink="http://www.w3.org/1999/xlink">
 <metadata>
  <rdf:RDF xmlns:cc="http://creativecommons.org/ns#" xmlns:dc="http://purl.org/dc/elements/1.1/" xmlns:rdf="http://www.w3.org/1999/02/22-rdf-syntax-ns#">
   <cc:Work>
    <dc:type rdf:resource="http://purl.org/dc/dcmitype/StillImage"/>
    <dc:date>2022-05-20T12:49:08.970794</dc:date>
    <dc:format>image/svg+xml</dc:format>
    <dc:creator>
     <cc:Agent>
      <dc:title>Matplotlib v3.4.3, https://matplotlib.org/</dc:title>
     </cc:Agent>
    </dc:creator>
   </cc:Work>
  </rdf:RDF>
 </metadata>
 <defs>
  <style type="text/css">*{stroke-linecap:butt;stroke-linejoin:round;}</style>
 </defs>
 <g id="figure_1">
  <g id="patch_1">
   <path d="M 0 248.518125 
L 378.465625 248.518125 
L 378.465625 0 
L 0 0 
z
" style="fill:none;"/>
  </g>
  <g id="axes_1">
   <g id="patch_2">
    <path d="M 36.465625 224.64 
L 371.265625 224.64 
L 371.265625 7.2 
L 36.465625 7.2 
z
" style="fill:#ffffff;"/>
   </g>
   <g id="PathCollection_1">
    <defs>
     <path d="M 0 3 
C 0.795609 3 1.55874 2.683901 2.12132 2.12132 
C 2.683901 1.55874 3 0.795609 3 0 
C 3 -0.795609 2.683901 -1.55874 2.12132 -2.12132 
C 1.55874 -2.683901 0.795609 -3 0 -3 
C -0.795609 -3 -1.55874 -2.683901 -2.12132 -2.12132 
C -2.683901 -1.55874 -3 -0.795609 -3 0 
C -3 0.795609 -2.683901 1.55874 -2.12132 2.12132 
C -1.55874 2.683901 -0.795609 3 0 3 
z
" id="m6ee0788ffa" style="stroke:#1f77b4;stroke-opacity:0.8;"/>
    </defs>
    <g clip-path="url(#p1451f165d1)">
     <use style="fill:#1f77b4;fill-opacity:0.8;stroke:#1f77b4;stroke-opacity:0.8;" x="51.683807" xlink:href="#m6ee0788ffa" y="213.754819"/>
     <use style="fill:#1f77b4;fill-opacity:0.8;stroke:#1f77b4;stroke-opacity:0.8;" x="85.501989" xlink:href="#m6ee0788ffa" y="170.747751"/>
     <use style="fill:#1f77b4;fill-opacity:0.8;stroke:#1f77b4;stroke-opacity:0.8;" x="119.32017" xlink:href="#m6ee0788ffa" y="174.148901"/>
     <use style="fill:#1f77b4;fill-opacity:0.8;stroke:#1f77b4;stroke-opacity:0.8;" x="153.138352" xlink:href="#m6ee0788ffa" y="150.134236"/>
     <use style="fill:#1f77b4;fill-opacity:0.8;stroke:#1f77b4;stroke-opacity:0.8;" x="186.956534" xlink:href="#m6ee0788ffa" y="126.257986"/>
     <use style="fill:#1f77b4;fill-opacity:0.8;stroke:#1f77b4;stroke-opacity:0.8;" x="220.774716" xlink:href="#m6ee0788ffa" y="103.443489"/>
     <use style="fill:#1f77b4;fill-opacity:0.8;stroke:#1f77b4;stroke-opacity:0.8;" x="254.592898" xlink:href="#m6ee0788ffa" y="78.486174"/>
     <use style="fill:#1f77b4;fill-opacity:0.8;stroke:#1f77b4;stroke-opacity:0.8;" x="288.41108" xlink:href="#m6ee0788ffa" y="63.992641"/>
     <use style="fill:#1f77b4;fill-opacity:0.8;stroke:#1f77b4;stroke-opacity:0.8;" x="322.229261" xlink:href="#m6ee0788ffa" y="50.712503"/>
     <use style="fill:#1f77b4;fill-opacity:0.8;stroke:#1f77b4;stroke-opacity:0.8;" x="356.047443" xlink:href="#m6ee0788ffa" y="33.026636"/>
    </g>
   </g>
   <g id="PolyCollection_1">
    <path clip-path="url(#p1451f165d1)" d="M 51.683807 191.893811 
L 51.683807 214.756364 
L 54.758187 212.798744 
L 57.832567 210.841093 
L 60.906947 208.87318 
L 63.981327 206.910396 
L 67.055708 204.959067 
L 70.130088 202.963781 
L 73.204468 200.924124 
L 76.278848 198.926736 
L 79.353228 196.950835 
L 82.427608 194.949858 
L 85.501989 192.959791 
L 88.576369 191.086131 
L 91.650749 189.076814 
L 94.725129 187.132835 
L 97.799509 185.231418 
L 100.873889 183.323606 
L 103.94827 181.41843 
L 107.02265 179.507411 
L 110.09703 177.607963 
L 113.17141 175.723393 
L 116.24579 173.785206 
L 119.32017 171.845573 
L 122.394551 169.963972 
L 125.468931 168.020257 
L 128.543311 166.152753 
L 131.617691 164.225243 
L 134.692071 162.327673 
L 137.766451 160.430018 
L 140.840832 158.533734 
L 143.915212 156.639015 
L 146.989592 154.738772 
L 150.063972 152.852336 
L 153.138352 150.972856 
L 156.212732 149.095235 
L 159.287113 147.219829 
L 162.361493 145.336423 
L 165.435873 143.453017 
L 168.510253 141.591118 
L 171.584633 139.738988 
L 174.659013 137.854856 
L 177.733394 136.021313 
L 180.807774 134.199891 
L 183.882154 132.356395 
L 186.956534 130.509067 
L 190.030914 128.646371 
L 193.105294 126.810661 
L 196.179675 124.984111 
L 199.254055 123.130854 
L 202.328435 121.295127 
L 205.402815 119.488238 
L 208.477195 117.647028 
L 211.551575 115.805824 
L 214.625956 113.963506 
L 217.700336 112.120826 
L 220.774716 110.253205 
L 223.849096 108.440651 
L 226.923476 106.669024 
L 229.997856 104.877585 
L 233.072237 103.046114 
L 236.146617 101.205116 
L 239.220997 99.360007 
L 242.295377 97.512609 
L 245.369757 95.682954 
L 248.444137 93.857211 
L 251.518518 92.067837 
L 254.592898 90.240683 
L 257.667278 88.40441 
L 260.741658 86.556794 
L 263.816038 84.734263 
L 266.890418 82.914948 
L 269.964799 81.166253 
L 273.039179 79.3195 
L 276.113559 77.465718 
L 279.187939 75.657136 
L 282.262319 73.863687 
L 285.336699 72.086646 
L 288.41108 70.349205 
L 291.48546 68.612568 
L 294.55984 66.842711 
L 297.63422 65.093247 
L 300.7086 63.358091 
L 303.78298 61.628973 
L 306.857361 59.87863 
L 309.931741 58.158756 
L 313.006121 56.455811 
L 316.080501 54.720367 
L 319.154881 52.983051 
L 322.229261 51.271592 
L 325.303642 49.545348 
L 328.378022 47.861088 
L 331.452402 46.14726 
L 334.526782 44.437658 
L 337.601162 42.784913 
L 340.675542 41.132302 
L 343.749923 39.415749 
L 346.824303 37.770661 
L 349.898683 36.134091 
L 352.973063 34.5045 
L 356.047443 32.87174 
L 356.047443 17.083636 
L 356.047443 17.083636 
L 352.973063 19.076829 
L 349.898683 21.049157 
L 346.824303 22.99966 
L 343.749923 24.950163 
L 340.675542 26.900666 
L 337.601162 28.851169 
L 334.526782 30.801672 
L 331.452402 32.752175 
L 328.378022 34.702678 
L 325.303642 36.68862 
L 322.229261 38.683622 
L 319.154881 40.678637 
L 316.080501 42.674637 
L 313.006121 44.670637 
L 309.931741 46.631493 
L 306.857361 48.585334 
L 303.78298 50.539176 
L 300.7086 52.493017 
L 297.63422 54.475733 
L 294.55984 56.465495 
L 291.48546 58.473607 
L 288.41108 60.482375 
L 285.336699 62.491143 
L 282.262319 64.488489 
L 279.187939 66.401752 
L 276.113559 68.256468 
L 273.039179 70.206331 
L 269.964799 72.170381 
L 266.890418 74.150882 
L 263.816038 75.986305 
L 260.741658 78.025994 
L 257.667278 79.910082 
L 254.592898 81.786948 
L 251.518518 83.657757 
L 248.444137 85.486829 
L 245.369757 87.366921 
L 242.295377 89.246255 
L 239.220997 91.067467 
L 236.146617 92.907946 
L 233.072237 94.782398 
L 229.997856 96.651367 
L 226.923476 98.436779 
L 223.849096 100.278319 
L 220.774716 102.123616 
L 217.700336 103.994846 
L 214.625956 105.662046 
L 211.551575 107.291151 
L 208.477195 108.974623 
L 205.402815 110.607531 
L 202.328435 112.233706 
L 199.254055 113.873129 
L 196.179675 115.51342 
L 193.105294 117.205746 
L 190.030914 118.868465 
L 186.956534 120.470791 
L 183.882154 122.072971 
L 180.807774 123.711752 
L 177.733394 125.308931 
L 174.659013 126.904006 
L 171.584633 128.499082 
L 168.510253 130.132903 
L 165.435873 131.794731 
L 162.361493 133.456819 
L 159.287113 135.118906 
L 156.212732 136.781022 
L 153.138352 138.443554 
L 150.063972 140.105574 
L 146.989592 141.746187 
L 143.915212 143.3868 
L 140.840832 145.005477 
L 137.766451 146.603854 
L 134.692071 148.240703 
L 131.617691 149.909449 
L 128.543311 151.525954 
L 125.468931 153.111144 
L 122.394551 154.698044 
L 119.32017 156.342698 
L 116.24579 158.028598 
L 113.17141 159.714498 
L 110.09703 161.370532 
L 107.02265 162.989351 
L 103.94827 164.608851 
L 100.873889 166.22891 
L 97.799509 167.850097 
L 94.725129 169.471284 
L 91.650749 171.09247 
L 88.576369 172.70455 
L 85.501989 174.304263 
L 82.427608 175.946801 
L 79.353228 177.574041 
L 76.278848 179.096771 
L 73.204468 180.691083 
L 70.130088 182.289481 
L 67.055708 183.887878 
L 63.981327 185.486276 
L 60.906947 187.084673 
L 57.832567 188.68307 
L 54.758187 190.281468 
L 51.683807 191.893811 
z
" style="fill:#1f77b4;fill-opacity:0.15;"/>
   </g>
   <g id="matplotlib.axis_1">
    <g id="xtick_1">
     <g id="line2d_1">
      <defs>
       <path d="M 0 0 
L 0 3.5 
" id="m91c732567b" style="stroke:#000000;stroke-width:0.8;"/>
      </defs>
      <g>
       <use style="stroke:#000000;stroke-width:0.8;" x="51.683807" xlink:href="#m91c732567b" y="224.64"/>
      </g>
     </g>
     <g id="text_1">
      <!-- 0 -->
      <g transform="translate(48.502557 239.238437)scale(0.1 -0.1)">
       <defs>
        <path d="M 2034 4250 
Q 1547 4250 1301 3770 
Q 1056 3291 1056 2328 
Q 1056 1369 1301 889 
Q 1547 409 2034 409 
Q 2525 409 2770 889 
Q 3016 1369 3016 2328 
Q 3016 3291 2770 3770 
Q 2525 4250 2034 4250 
z
M 2034 4750 
Q 2819 4750 3233 4129 
Q 3647 3509 3647 2328 
Q 3647 1150 3233 529 
Q 2819 -91 2034 -91 
Q 1250 -91 836 529 
Q 422 1150 422 2328 
Q 422 3509 836 4129 
Q 1250 4750 2034 4750 
z
" id="DejaVuSans-30" transform="scale(0.015625)"/>
       </defs>
       <use xlink:href="#DejaVuSans-30"/>
      </g>
     </g>
    </g>
    <g id="xtick_2">
     <g id="line2d_2">
      <g>
       <use style="stroke:#000000;stroke-width:0.8;" x="119.32017" xlink:href="#m91c732567b" y="224.64"/>
      </g>
     </g>
     <g id="text_2">
      <!-- 2 -->
      <g transform="translate(116.13892 239.238437)scale(0.1 -0.1)">
       <defs>
        <path d="M 1228 531 
L 3431 531 
L 3431 0 
L 469 0 
L 469 531 
Q 828 903 1448 1529 
Q 2069 2156 2228 2338 
Q 2531 2678 2651 2914 
Q 2772 3150 2772 3378 
Q 2772 3750 2511 3984 
Q 2250 4219 1831 4219 
Q 1534 4219 1204 4116 
Q 875 4013 500 3803 
L 500 4441 
Q 881 4594 1212 4672 
Q 1544 4750 1819 4750 
Q 2544 4750 2975 4387 
Q 3406 4025 3406 3419 
Q 3406 3131 3298 2873 
Q 3191 2616 2906 2266 
Q 2828 2175 2409 1742 
Q 1991 1309 1228 531 
z
" id="DejaVuSans-32" transform="scale(0.015625)"/>
       </defs>
       <use xlink:href="#DejaVuSans-32"/>
      </g>
     </g>
    </g>
    <g id="xtick_3">
     <g id="line2d_3">
      <g>
       <use style="stroke:#000000;stroke-width:0.8;" x="186.956534" xlink:href="#m91c732567b" y="224.64"/>
      </g>
     </g>
     <g id="text_3">
      <!-- 4 -->
      <g transform="translate(183.775284 239.238437)scale(0.1 -0.1)">
       <defs>
        <path d="M 2419 4116 
L 825 1625 
L 2419 1625 
L 2419 4116 
z
M 2253 4666 
L 3047 4666 
L 3047 1625 
L 3713 1625 
L 3713 1100 
L 3047 1100 
L 3047 0 
L 2419 0 
L 2419 1100 
L 313 1100 
L 313 1709 
L 2253 4666 
z
" id="DejaVuSans-34" transform="scale(0.015625)"/>
       </defs>
       <use xlink:href="#DejaVuSans-34"/>
      </g>
     </g>
    </g>
    <g id="xtick_4">
     <g id="line2d_4">
      <g>
       <use style="stroke:#000000;stroke-width:0.8;" x="254.592898" xlink:href="#m91c732567b" y="224.64"/>
      </g>
     </g>
     <g id="text_4">
      <!-- 6 -->
      <g transform="translate(251.411648 239.238437)scale(0.1 -0.1)">
       <defs>
        <path d="M 2113 2584 
Q 1688 2584 1439 2293 
Q 1191 2003 1191 1497 
Q 1191 994 1439 701 
Q 1688 409 2113 409 
Q 2538 409 2786 701 
Q 3034 994 3034 1497 
Q 3034 2003 2786 2293 
Q 2538 2584 2113 2584 
z
M 3366 4563 
L 3366 3988 
Q 3128 4100 2886 4159 
Q 2644 4219 2406 4219 
Q 1781 4219 1451 3797 
Q 1122 3375 1075 2522 
Q 1259 2794 1537 2939 
Q 1816 3084 2150 3084 
Q 2853 3084 3261 2657 
Q 3669 2231 3669 1497 
Q 3669 778 3244 343 
Q 2819 -91 2113 -91 
Q 1303 -91 875 529 
Q 447 1150 447 2328 
Q 447 3434 972 4092 
Q 1497 4750 2381 4750 
Q 2619 4750 2861 4703 
Q 3103 4656 3366 4563 
z
" id="DejaVuSans-36" transform="scale(0.015625)"/>
       </defs>
       <use xlink:href="#DejaVuSans-36"/>
      </g>
     </g>
    </g>
    <g id="xtick_5">
     <g id="line2d_5">
      <g>
       <use style="stroke:#000000;stroke-width:0.8;" x="322.229261" xlink:href="#m91c732567b" y="224.64"/>
      </g>
     </g>
     <g id="text_5">
      <!-- 8 -->
      <g transform="translate(319.048011 239.238437)scale(0.1 -0.1)">
       <defs>
        <path d="M 2034 2216 
Q 1584 2216 1326 1975 
Q 1069 1734 1069 1313 
Q 1069 891 1326 650 
Q 1584 409 2034 409 
Q 2484 409 2743 651 
Q 3003 894 3003 1313 
Q 3003 1734 2745 1975 
Q 2488 2216 2034 2216 
z
M 1403 2484 
Q 997 2584 770 2862 
Q 544 3141 544 3541 
Q 544 4100 942 4425 
Q 1341 4750 2034 4750 
Q 2731 4750 3128 4425 
Q 3525 4100 3525 3541 
Q 3525 3141 3298 2862 
Q 3072 2584 2669 2484 
Q 3125 2378 3379 2068 
Q 3634 1759 3634 1313 
Q 3634 634 3220 271 
Q 2806 -91 2034 -91 
Q 1263 -91 848 271 
Q 434 634 434 1313 
Q 434 1759 690 2068 
Q 947 2378 1403 2484 
z
M 1172 3481 
Q 1172 3119 1398 2916 
Q 1625 2713 2034 2713 
Q 2441 2713 2670 2916 
Q 2900 3119 2900 3481 
Q 2900 3844 2670 4047 
Q 2441 4250 2034 4250 
Q 1625 4250 1398 4047 
Q 1172 3844 1172 3481 
z
" id="DejaVuSans-38" transform="scale(0.015625)"/>
       </defs>
       <use xlink:href="#DejaVuSans-38"/>
      </g>
     </g>
    </g>
   </g>
   <g id="matplotlib.axis_2">
    <g id="ytick_1">
     <g id="line2d_6">
      <defs>
       <path d="M 0 0 
L -3.5 0 
" id="m4fa02962e5" style="stroke:#000000;stroke-width:0.8;"/>
      </defs>
      <g>
       <use style="stroke:#000000;stroke-width:0.8;" x="36.465625" xlink:href="#m4fa02962e5" y="214.585802"/>
      </g>
     </g>
     <g id="text_6">
      <!-- 0.0 -->
      <g transform="translate(13.5625 218.385021)scale(0.1 -0.1)">
       <defs>
        <path d="M 684 794 
L 1344 794 
L 1344 0 
L 684 0 
L 684 794 
z
" id="DejaVuSans-2e" transform="scale(0.015625)"/>
       </defs>
       <use xlink:href="#DejaVuSans-30"/>
       <use x="63.623047" xlink:href="#DejaVuSans-2e"/>
       <use x="95.410156" xlink:href="#DejaVuSans-30"/>
      </g>
     </g>
    </g>
    <g id="ytick_2">
     <g id="line2d_7">
      <g>
       <use style="stroke:#000000;stroke-width:0.8;" x="36.465625" xlink:href="#m4fa02962e5" y="188.43071"/>
      </g>
     </g>
     <g id="text_7">
      <!-- 2.5 -->
      <g transform="translate(13.5625 192.229929)scale(0.1 -0.1)">
       <defs>
        <path d="M 691 4666 
L 3169 4666 
L 3169 4134 
L 1269 4134 
L 1269 2991 
Q 1406 3038 1543 3061 
Q 1681 3084 1819 3084 
Q 2600 3084 3056 2656 
Q 3513 2228 3513 1497 
Q 3513 744 3044 326 
Q 2575 -91 1722 -91 
Q 1428 -91 1123 -41 
Q 819 9 494 109 
L 494 744 
Q 775 591 1075 516 
Q 1375 441 1709 441 
Q 2250 441 2565 725 
Q 2881 1009 2881 1497 
Q 2881 1984 2565 2268 
Q 2250 2553 1709 2553 
Q 1456 2553 1204 2497 
Q 953 2441 691 2322 
L 691 4666 
z
" id="DejaVuSans-35" transform="scale(0.015625)"/>
       </defs>
       <use xlink:href="#DejaVuSans-32"/>
       <use x="63.623047" xlink:href="#DejaVuSans-2e"/>
       <use x="95.410156" xlink:href="#DejaVuSans-35"/>
      </g>
     </g>
    </g>
    <g id="ytick_3">
     <g id="line2d_8">
      <g>
       <use style="stroke:#000000;stroke-width:0.8;" x="36.465625" xlink:href="#m4fa02962e5" y="162.275618"/>
      </g>
     </g>
     <g id="text_8">
      <!-- 5.0 -->
      <g transform="translate(13.5625 166.074837)scale(0.1 -0.1)">
       <use xlink:href="#DejaVuSans-35"/>
       <use x="63.623047" xlink:href="#DejaVuSans-2e"/>
       <use x="95.410156" xlink:href="#DejaVuSans-30"/>
      </g>
     </g>
    </g>
    <g id="ytick_4">
     <g id="line2d_9">
      <g>
       <use style="stroke:#000000;stroke-width:0.8;" x="36.465625" xlink:href="#m4fa02962e5" y="136.120526"/>
      </g>
     </g>
     <g id="text_9">
      <!-- 7.5 -->
      <g transform="translate(13.5625 139.919745)scale(0.1 -0.1)">
       <defs>
        <path d="M 525 4666 
L 3525 4666 
L 3525 4397 
L 1831 0 
L 1172 0 
L 2766 4134 
L 525 4134 
L 525 4666 
z
" id="DejaVuSans-37" transform="scale(0.015625)"/>
       </defs>
       <use xlink:href="#DejaVuSans-37"/>
       <use x="63.623047" xlink:href="#DejaVuSans-2e"/>
       <use x="95.410156" xlink:href="#DejaVuSans-35"/>
      </g>
     </g>
    </g>
    <g id="ytick_5">
     <g id="line2d_10">
      <g>
       <use style="stroke:#000000;stroke-width:0.8;" x="36.465625" xlink:href="#m4fa02962e5" y="109.965434"/>
      </g>
     </g>
     <g id="text_10">
      <!-- 10.0 -->
      <g transform="translate(7.2 113.764652)scale(0.1 -0.1)">
       <defs>
        <path d="M 794 531 
L 1825 531 
L 1825 4091 
L 703 3866 
L 703 4441 
L 1819 4666 
L 2450 4666 
L 2450 531 
L 3481 531 
L 3481 0 
L 794 0 
L 794 531 
z
" id="DejaVuSans-31" transform="scale(0.015625)"/>
       </defs>
       <use xlink:href="#DejaVuSans-31"/>
       <use x="63.623047" xlink:href="#DejaVuSans-30"/>
       <use x="127.246094" xlink:href="#DejaVuSans-2e"/>
       <use x="159.033203" xlink:href="#DejaVuSans-30"/>
      </g>
     </g>
    </g>
    <g id="ytick_6">
     <g id="line2d_11">
      <g>
       <use style="stroke:#000000;stroke-width:0.8;" x="36.465625" xlink:href="#m4fa02962e5" y="83.810342"/>
      </g>
     </g>
     <g id="text_11">
      <!-- 12.5 -->
      <g transform="translate(7.2 87.60956)scale(0.1 -0.1)">
       <use xlink:href="#DejaVuSans-31"/>
       <use x="63.623047" xlink:href="#DejaVuSans-32"/>
       <use x="127.246094" xlink:href="#DejaVuSans-2e"/>
       <use x="159.033203" xlink:href="#DejaVuSans-35"/>
      </g>
     </g>
    </g>
    <g id="ytick_7">
     <g id="line2d_12">
      <g>
       <use style="stroke:#000000;stroke-width:0.8;" x="36.465625" xlink:href="#m4fa02962e5" y="57.655249"/>
      </g>
     </g>
     <g id="text_12">
      <!-- 15.0 -->
      <g transform="translate(7.2 61.454468)scale(0.1 -0.1)">
       <use xlink:href="#DejaVuSans-31"/>
       <use x="63.623047" xlink:href="#DejaVuSans-35"/>
       <use x="127.246094" xlink:href="#DejaVuSans-2e"/>
       <use x="159.033203" xlink:href="#DejaVuSans-30"/>
      </g>
     </g>
    </g>
    <g id="ytick_8">
     <g id="line2d_13">
      <g>
       <use style="stroke:#000000;stroke-width:0.8;" x="36.465625" xlink:href="#m4fa02962e5" y="31.500157"/>
      </g>
     </g>
     <g id="text_13">
      <!-- 17.5 -->
      <g transform="translate(7.2 35.299376)scale(0.1 -0.1)">
       <use xlink:href="#DejaVuSans-31"/>
       <use x="63.623047" xlink:href="#DejaVuSans-37"/>
       <use x="127.246094" xlink:href="#DejaVuSans-2e"/>
       <use x="159.033203" xlink:href="#DejaVuSans-35"/>
      </g>
     </g>
    </g>
   </g>
   <g id="line2d_14">
    <path clip-path="url(#p1451f165d1)" d="M 51.683807 205.252524 
L 54.758187 203.458948 
L 57.832567 201.665372 
L 60.906947 199.871796 
L 63.981327 198.07822 
L 67.055708 196.284644 
L 70.130088 194.491068 
L 73.204468 192.697492 
L 76.278848 190.903916 
L 79.353228 189.11034 
L 82.427608 187.316764 
L 85.501989 185.523188 
L 88.576369 183.729612 
L 91.650749 181.936036 
L 94.725129 180.14246 
L 97.799509 178.348884 
L 100.873889 176.555308 
L 103.94827 174.761732 
L 107.02265 172.968156 
L 110.09703 171.17458 
L 113.17141 169.381004 
L 116.24579 167.587428 
L 119.32017 165.793853 
L 122.394551 164.000277 
L 125.468931 162.206701 
L 128.543311 160.413125 
L 131.617691 158.619549 
L 134.692071 156.825973 
L 137.766451 155.032397 
L 140.840832 153.238821 
L 143.915212 151.445245 
L 146.989592 149.651669 
L 150.063972 147.858093 
L 153.138352 146.064517 
L 156.212732 144.270941 
L 159.287113 142.477365 
L 162.361493 140.683789 
L 165.435873 138.890213 
L 168.510253 137.096637 
L 171.584633 135.303061 
L 174.659013 133.509485 
L 177.733394 131.715909 
L 180.807774 129.922333 
L 183.882154 128.128757 
L 186.956534 126.335181 
L 190.030914 124.541605 
L 193.105294 122.74803 
L 196.179675 120.954454 
L 199.254055 119.160878 
L 202.328435 117.367302 
L 205.402815 115.573726 
L 208.477195 113.78015 
L 211.551575 111.986574 
L 214.625956 110.192998 
L 217.700336 108.399422 
L 220.774716 106.605846 
L 223.849096 104.81227 
L 226.923476 103.018694 
L 229.997856 101.225118 
L 233.072237 99.431542 
L 236.146617 97.637966 
L 239.220997 95.84439 
L 242.295377 94.050814 
L 245.369757 92.257238 
L 248.444137 90.463662 
L 251.518518 88.670086 
L 254.592898 86.87651 
L 257.667278 85.082934 
L 260.741658 83.289358 
L 263.816038 81.495782 
L 266.890418 79.702206 
L 269.964799 77.908631 
L 273.039179 76.115055 
L 276.113559 74.321479 
L 279.187939 72.527903 
L 282.262319 70.734327 
L 285.336699 68.940751 
L 288.41108 67.147175 
L 291.48546 65.353599 
L 294.55984 63.560023 
L 297.63422 61.766447 
L 300.7086 59.972871 
L 303.78298 58.179295 
L 306.857361 56.385719 
L 309.931741 54.592143 
L 313.006121 52.798567 
L 316.080501 51.004991 
L 319.154881 49.211415 
L 322.229261 47.417839 
L 325.303642 45.624263 
L 328.378022 43.830687 
L 331.452402 42.037111 
L 334.526782 40.243535 
L 337.601162 38.449959 
L 340.675542 36.656383 
L 343.749923 34.862808 
L 346.824303 33.069232 
L 349.898683 31.275656 
L 352.973063 29.48208 
L 356.047443 27.688504 
" style="fill:none;stroke:#1f77b4;stroke-linecap:square;stroke-width:2.25;"/>
   </g>
   <g id="patch_3">
    <path d="M 36.465625 224.64 
L 36.465625 7.2 
" style="fill:none;stroke:#000000;stroke-linecap:square;stroke-linejoin:miter;stroke-width:0.8;"/>
   </g>
   <g id="patch_4">
    <path d="M 371.265625 224.64 
L 371.265625 7.2 
" style="fill:none;stroke:#000000;stroke-linecap:square;stroke-linejoin:miter;stroke-width:0.8;"/>
   </g>
   <g id="patch_5">
    <path d="M 36.465625 224.64 
L 371.265625 224.64 
" style="fill:none;stroke:#000000;stroke-linecap:square;stroke-linejoin:miter;stroke-width:0.8;"/>
   </g>
   <g id="patch_6">
    <path d="M 36.465625 7.2 
L 371.265625 7.2 
" style="fill:none;stroke:#000000;stroke-linecap:square;stroke-linejoin:miter;stroke-width:0.8;"/>
   </g>
  </g>
 </g>
 <defs>
  <clipPath id="p1451f165d1">
   <rect height="217.44" width="334.8" x="36.465625" y="7.2"/>
  </clipPath>
 </defs>
</svg>
