<?xml version="1.0" encoding="utf-8" standalone="no"?>
<!DOCTYPE svg PUBLIC "-//W3C//DTD SVG 1.1//EN"
  "http://www.w3.org/Graphics/SVG/1.1/DTD/svg11.dtd">
<svg height="262.19625pt" version="1.1" viewBox="0 0 384.83125 262.19625" width="384.83125pt" xmlns="http://www.w3.org/2000/svg" xmlns:xlink="http://www.w3.org/1999/xlink">
 <metadata>
  <rdf:RDF xmlns:cc="http://creativecommons.org/ns#" xmlns:dc="http://purl.org/dc/elements/1.1/" xmlns:rdf="http://www.w3.org/1999/02/22-rdf-syntax-ns#">
   <cc:Work>
    <dc:type rdf:resource="http://purl.org/dc/dcmitype/StillImage"/>
    <dc:date>2022-05-22T18:03:07.307265</dc:date>
    <dc:format>image/svg+xml</dc:format>
    <dc:creator>
     <cc:Agent>
      <dc:title>Matplotlib v3.4.3, https://matplotlib.org/</dc:title>
     </cc:Agent>
    </dc:creator>
   </cc:Work>
  </rdf:RDF>
 </metadata>
 <defs>
  <style type="text/css">*{stroke-linecap:butt;stroke-linejoin:round;}</style>
 </defs>
 <g id="figure_1">
  <g id="patch_1">
   <path d="M 0 262.19625 
L 384.83125 262.19625 
L 384.83125 0 
L 0 0 
z
" style="fill:none;"/>
  </g>
  <g id="axes_1">
   <g id="patch_2">
    <path d="M 33.2875 224.64 
L 368.0875 224.64 
L 368.0875 7.2 
L 33.2875 7.2 
z
" style="fill:#ffffff;"/>
   </g>
   <g id="matplotlib.axis_1">
    <g id="xtick_1">
     <g id="line2d_1">
      <defs>
       <path d="M 0 0 
L 0 3.5 
" id="m0a8a0ff95b" style="stroke:#000000;stroke-width:0.8;"/>
      </defs>
      <g>
       <use style="stroke:#000000;stroke-width:0.8;" x="33.2875" xlink:href="#m0a8a0ff95b" y="224.64"/>
      </g>
     </g>
     <g id="text_1">
      <!-- 0 -->
      <g transform="translate(30.10625 239.238437)scale(0.1 -0.1)">
       <defs>
        <path d="M 2034 4250 
Q 1547 4250 1301 3770 
Q 1056 3291 1056 2328 
Q 1056 1369 1301 889 
Q 1547 409 2034 409 
Q 2525 409 2770 889 
Q 3016 1369 3016 2328 
Q 3016 3291 2770 3770 
Q 2525 4250 2034 4250 
z
M 2034 4750 
Q 2819 4750 3233 4129 
Q 3647 3509 3647 2328 
Q 3647 1150 3233 529 
Q 2819 -91 2034 -91 
Q 1250 -91 836 529 
Q 422 1150 422 2328 
Q 422 3509 836 4129 
Q 1250 4750 2034 4750 
z
" id="DejaVuSans-30" transform="scale(0.015625)"/>
       </defs>
       <use xlink:href="#DejaVuSans-30"/>
      </g>
     </g>
    </g>
    <g id="xtick_2">
     <g id="line2d_2">
      <g>
       <use style="stroke:#000000;stroke-width:0.8;" x="100.2475" xlink:href="#m0a8a0ff95b" y="224.64"/>
      </g>
     </g>
     <g id="text_2">
      <!-- 50 -->
      <g transform="translate(93.885 239.238437)scale(0.1 -0.1)">
       <defs>
        <path d="M 691 4666 
L 3169 4666 
L 3169 4134 
L 1269 4134 
L 1269 2991 
Q 1406 3038 1543 3061 
Q 1681 3084 1819 3084 
Q 2600 3084 3056 2656 
Q 3513 2228 3513 1497 
Q 3513 744 3044 326 
Q 2575 -91 1722 -91 
Q 1428 -91 1123 -41 
Q 819 9 494 109 
L 494 744 
Q 775 591 1075 516 
Q 1375 441 1709 441 
Q 2250 441 2565 725 
Q 2881 1009 2881 1497 
Q 2881 1984 2565 2268 
Q 2250 2553 1709 2553 
Q 1456 2553 1204 2497 
Q 953 2441 691 2322 
L 691 4666 
z
" id="DejaVuSans-35" transform="scale(0.015625)"/>
       </defs>
       <use xlink:href="#DejaVuSans-35"/>
       <use x="63.623047" xlink:href="#DejaVuSans-30"/>
      </g>
     </g>
    </g>
    <g id="xtick_3">
     <g id="line2d_3">
      <g>
       <use style="stroke:#000000;stroke-width:0.8;" x="167.2075" xlink:href="#m0a8a0ff95b" y="224.64"/>
      </g>
     </g>
     <g id="text_3">
      <!-- 100 -->
      <g transform="translate(157.66375 239.238437)scale(0.1 -0.1)">
       <defs>
        <path d="M 794 531 
L 1825 531 
L 1825 4091 
L 703 3866 
L 703 4441 
L 1819 4666 
L 2450 4666 
L 2450 531 
L 3481 531 
L 3481 0 
L 794 0 
L 794 531 
z
" id="DejaVuSans-31" transform="scale(0.015625)"/>
       </defs>
       <use xlink:href="#DejaVuSans-31"/>
       <use x="63.623047" xlink:href="#DejaVuSans-30"/>
       <use x="127.246094" xlink:href="#DejaVuSans-30"/>
      </g>
     </g>
    </g>
    <g id="xtick_4">
     <g id="line2d_4">
      <g>
       <use style="stroke:#000000;stroke-width:0.8;" x="234.1675" xlink:href="#m0a8a0ff95b" y="224.64"/>
      </g>
     </g>
     <g id="text_4">
      <!-- 150 -->
      <g transform="translate(224.62375 239.238437)scale(0.1 -0.1)">
       <use xlink:href="#DejaVuSans-31"/>
       <use x="63.623047" xlink:href="#DejaVuSans-35"/>
       <use x="127.246094" xlink:href="#DejaVuSans-30"/>
      </g>
     </g>
    </g>
    <g id="xtick_5">
     <g id="line2d_5">
      <g>
       <use style="stroke:#000000;stroke-width:0.8;" x="301.1275" xlink:href="#m0a8a0ff95b" y="224.64"/>
      </g>
     </g>
     <g id="text_5">
      <!-- 200 -->
      <g transform="translate(291.58375 239.238437)scale(0.1 -0.1)">
       <defs>
        <path d="M 1228 531 
L 3431 531 
L 3431 0 
L 469 0 
L 469 531 
Q 828 903 1448 1529 
Q 2069 2156 2228 2338 
Q 2531 2678 2651 2914 
Q 2772 3150 2772 3378 
Q 2772 3750 2511 3984 
Q 2250 4219 1831 4219 
Q 1534 4219 1204 4116 
Q 875 4013 500 3803 
L 500 4441 
Q 881 4594 1212 4672 
Q 1544 4750 1819 4750 
Q 2544 4750 2975 4387 
Q 3406 4025 3406 3419 
Q 3406 3131 3298 2873 
Q 3191 2616 2906 2266 
Q 2828 2175 2409 1742 
Q 1991 1309 1228 531 
z
" id="DejaVuSans-32" transform="scale(0.015625)"/>
       </defs>
       <use xlink:href="#DejaVuSans-32"/>
       <use x="63.623047" xlink:href="#DejaVuSans-30"/>
       <use x="127.246094" xlink:href="#DejaVuSans-30"/>
      </g>
     </g>
    </g>
    <g id="xtick_6">
     <g id="line2d_6">
      <g>
       <use style="stroke:#000000;stroke-width:0.8;" x="368.0875" xlink:href="#m0a8a0ff95b" y="224.64"/>
      </g>
     </g>
     <g id="text_6">
      <!-- 250 -->
      <g transform="translate(358.54375 239.238437)scale(0.1 -0.1)">
       <use xlink:href="#DejaVuSans-32"/>
       <use x="63.623047" xlink:href="#DejaVuSans-35"/>
       <use x="127.246094" xlink:href="#DejaVuSans-30"/>
      </g>
     </g>
    </g>
    <g id="text_7">
     <!-- Frequency, Hz -->
     <g transform="translate(165.295312 252.916562)scale(0.1 -0.1)">
      <defs>
       <path d="M 628 4666 
L 3309 4666 
L 3309 4134 
L 1259 4134 
L 1259 2759 
L 3109 2759 
L 3109 2228 
L 1259 2228 
L 1259 0 
L 628 0 
L 628 4666 
z
" id="DejaVuSans-46" transform="scale(0.015625)"/>
       <path d="M 2631 2963 
Q 2534 3019 2420 3045 
Q 2306 3072 2169 3072 
Q 1681 3072 1420 2755 
Q 1159 2438 1159 1844 
L 1159 0 
L 581 0 
L 581 3500 
L 1159 3500 
L 1159 2956 
Q 1341 3275 1631 3429 
Q 1922 3584 2338 3584 
Q 2397 3584 2469 3576 
Q 2541 3569 2628 3553 
L 2631 2963 
z
" id="DejaVuSans-72" transform="scale(0.015625)"/>
       <path d="M 3597 1894 
L 3597 1613 
L 953 1613 
Q 991 1019 1311 708 
Q 1631 397 2203 397 
Q 2534 397 2845 478 
Q 3156 559 3463 722 
L 3463 178 
Q 3153 47 2828 -22 
Q 2503 -91 2169 -91 
Q 1331 -91 842 396 
Q 353 884 353 1716 
Q 353 2575 817 3079 
Q 1281 3584 2069 3584 
Q 2775 3584 3186 3129 
Q 3597 2675 3597 1894 
z
M 3022 2063 
Q 3016 2534 2758 2815 
Q 2500 3097 2075 3097 
Q 1594 3097 1305 2825 
Q 1016 2553 972 2059 
L 3022 2063 
z
" id="DejaVuSans-65" transform="scale(0.015625)"/>
       <path d="M 947 1747 
Q 947 1113 1208 752 
Q 1469 391 1925 391 
Q 2381 391 2643 752 
Q 2906 1113 2906 1747 
Q 2906 2381 2643 2742 
Q 2381 3103 1925 3103 
Q 1469 3103 1208 2742 
Q 947 2381 947 1747 
z
M 2906 525 
Q 2725 213 2448 61 
Q 2172 -91 1784 -91 
Q 1150 -91 751 415 
Q 353 922 353 1747 
Q 353 2572 751 3078 
Q 1150 3584 1784 3584 
Q 2172 3584 2448 3432 
Q 2725 3281 2906 2969 
L 2906 3500 
L 3481 3500 
L 3481 -1331 
L 2906 -1331 
L 2906 525 
z
" id="DejaVuSans-71" transform="scale(0.015625)"/>
       <path d="M 544 1381 
L 544 3500 
L 1119 3500 
L 1119 1403 
Q 1119 906 1312 657 
Q 1506 409 1894 409 
Q 2359 409 2629 706 
Q 2900 1003 2900 1516 
L 2900 3500 
L 3475 3500 
L 3475 0 
L 2900 0 
L 2900 538 
Q 2691 219 2414 64 
Q 2138 -91 1772 -91 
Q 1169 -91 856 284 
Q 544 659 544 1381 
z
M 1991 3584 
L 1991 3584 
z
" id="DejaVuSans-75" transform="scale(0.015625)"/>
       <path d="M 3513 2113 
L 3513 0 
L 2938 0 
L 2938 2094 
Q 2938 2591 2744 2837 
Q 2550 3084 2163 3084 
Q 1697 3084 1428 2787 
Q 1159 2491 1159 1978 
L 1159 0 
L 581 0 
L 581 3500 
L 1159 3500 
L 1159 2956 
Q 1366 3272 1645 3428 
Q 1925 3584 2291 3584 
Q 2894 3584 3203 3211 
Q 3513 2838 3513 2113 
z
" id="DejaVuSans-6e" transform="scale(0.015625)"/>
       <path d="M 3122 3366 
L 3122 2828 
Q 2878 2963 2633 3030 
Q 2388 3097 2138 3097 
Q 1578 3097 1268 2742 
Q 959 2388 959 1747 
Q 959 1106 1268 751 
Q 1578 397 2138 397 
Q 2388 397 2633 464 
Q 2878 531 3122 666 
L 3122 134 
Q 2881 22 2623 -34 
Q 2366 -91 2075 -91 
Q 1284 -91 818 406 
Q 353 903 353 1747 
Q 353 2603 823 3093 
Q 1294 3584 2113 3584 
Q 2378 3584 2631 3529 
Q 2884 3475 3122 3366 
z
" id="DejaVuSans-63" transform="scale(0.015625)"/>
       <path d="M 2059 -325 
Q 1816 -950 1584 -1140 
Q 1353 -1331 966 -1331 
L 506 -1331 
L 506 -850 
L 844 -850 
Q 1081 -850 1212 -737 
Q 1344 -625 1503 -206 
L 1606 56 
L 191 3500 
L 800 3500 
L 1894 763 
L 2988 3500 
L 3597 3500 
L 2059 -325 
z
" id="DejaVuSans-79" transform="scale(0.015625)"/>
       <path d="M 750 794 
L 1409 794 
L 1409 256 
L 897 -744 
L 494 -744 
L 750 256 
L 750 794 
z
" id="DejaVuSans-2c" transform="scale(0.015625)"/>
       <path id="DejaVuSans-20" transform="scale(0.015625)"/>
       <path d="M 628 4666 
L 1259 4666 
L 1259 2753 
L 3553 2753 
L 3553 4666 
L 4184 4666 
L 4184 0 
L 3553 0 
L 3553 2222 
L 1259 2222 
L 1259 0 
L 628 0 
L 628 4666 
z
" id="DejaVuSans-48" transform="scale(0.015625)"/>
       <path d="M 353 3500 
L 3084 3500 
L 3084 2975 
L 922 459 
L 3084 459 
L 3084 0 
L 275 0 
L 275 525 
L 2438 3041 
L 353 3041 
L 353 3500 
z
" id="DejaVuSans-7a" transform="scale(0.015625)"/>
      </defs>
      <use xlink:href="#DejaVuSans-46"/>
      <use x="50.269531" xlink:href="#DejaVuSans-72"/>
      <use x="89.132812" xlink:href="#DejaVuSans-65"/>
      <use x="150.65625" xlink:href="#DejaVuSans-71"/>
      <use x="214.132812" xlink:href="#DejaVuSans-75"/>
      <use x="277.511719" xlink:href="#DejaVuSans-65"/>
      <use x="339.035156" xlink:href="#DejaVuSans-6e"/>
      <use x="402.414062" xlink:href="#DejaVuSans-63"/>
      <use x="457.394531" xlink:href="#DejaVuSans-79"/>
      <use x="516.574219" xlink:href="#DejaVuSans-2c"/>
      <use x="548.361328" xlink:href="#DejaVuSans-20"/>
      <use x="580.148438" xlink:href="#DejaVuSans-48"/>
      <use x="655.34375" xlink:href="#DejaVuSans-7a"/>
     </g>
    </g>
   </g>
   <g id="matplotlib.axis_2">
    <g id="ytick_1">
     <g id="line2d_7">
      <defs>
       <path d="M 0 0 
L -3.5 0 
" id="m9e3c90b26a" style="stroke:#000000;stroke-width:0.8;"/>
      </defs>
      <g>
       <use style="stroke:#000000;stroke-width:0.8;" x="33.2875" xlink:href="#m9e3c90b26a" y="207.156116"/>
      </g>
     </g>
     <g id="text_8">
      <!-- 0 -->
      <g transform="translate(19.925 210.955335)scale(0.1 -0.1)">
       <use xlink:href="#DejaVuSans-30"/>
      </g>
     </g>
    </g>
    <g id="ytick_2">
     <g id="line2d_8">
      <g>
       <use style="stroke:#000000;stroke-width:0.8;" x="33.2875" xlink:href="#m9e3c90b26a" y="170.071205"/>
      </g>
     </g>
     <g id="text_9">
      <!-- 50 -->
      <g transform="translate(13.5625 173.870424)scale(0.1 -0.1)">
       <use xlink:href="#DejaVuSans-35"/>
       <use x="63.623047" xlink:href="#DejaVuSans-30"/>
      </g>
     </g>
    </g>
    <g id="ytick_3">
     <g id="line2d_9">
      <g>
       <use style="stroke:#000000;stroke-width:0.8;" x="33.2875" xlink:href="#m9e3c90b26a" y="132.986295"/>
      </g>
     </g>
     <g id="text_10">
      <!-- 100 -->
      <g transform="translate(7.2 136.785514)scale(0.1 -0.1)">
       <use xlink:href="#DejaVuSans-31"/>
       <use x="63.623047" xlink:href="#DejaVuSans-30"/>
       <use x="127.246094" xlink:href="#DejaVuSans-30"/>
      </g>
     </g>
    </g>
    <g id="ytick_4">
     <g id="line2d_10">
      <g>
       <use style="stroke:#000000;stroke-width:0.8;" x="33.2875" xlink:href="#m9e3c90b26a" y="95.901385"/>
      </g>
     </g>
     <g id="text_11">
      <!-- 150 -->
      <g transform="translate(7.2 99.700603)scale(0.1 -0.1)">
       <use xlink:href="#DejaVuSans-31"/>
       <use x="63.623047" xlink:href="#DejaVuSans-35"/>
       <use x="127.246094" xlink:href="#DejaVuSans-30"/>
      </g>
     </g>
    </g>
    <g id="ytick_5">
     <g id="line2d_11">
      <g>
       <use style="stroke:#000000;stroke-width:0.8;" x="33.2875" xlink:href="#m9e3c90b26a" y="58.816474"/>
      </g>
     </g>
     <g id="text_12">
      <!-- 200 -->
      <g transform="translate(7.2 62.615693)scale(0.1 -0.1)">
       <use xlink:href="#DejaVuSans-32"/>
       <use x="63.623047" xlink:href="#DejaVuSans-30"/>
       <use x="127.246094" xlink:href="#DejaVuSans-30"/>
      </g>
     </g>
    </g>
    <g id="ytick_6">
     <g id="line2d_12">
      <g>
       <use style="stroke:#000000;stroke-width:0.8;" x="33.2875" xlink:href="#m9e3c90b26a" y="21.731564"/>
      </g>
     </g>
     <g id="text_13">
      <!-- 250 -->
      <g transform="translate(7.2 25.530782)scale(0.1 -0.1)">
       <use xlink:href="#DejaVuSans-32"/>
       <use x="63.623047" xlink:href="#DejaVuSans-35"/>
       <use x="127.246094" xlink:href="#DejaVuSans-30"/>
      </g>
     </g>
    </g>
   </g>
   <g id="line2d_13">
    <path clip-path="url(#p655e82d3fd)" d="M 33.2875 17.083636 
L 34.6267 207.759544 
L 35.9659 206.422583 
L 37.3051 209.920527 
L 38.6443 207.797253 
L 39.9835 204.37704 
L 41.3227 203.151967 
L 42.6619 209.559767 
L 44.0011 207.837473 
L 45.3403 210.514727 
L 46.6795 209.396329 
L 48.0187 205.311722 
L 49.3579 202.75911 
L 50.6971 207.396934 
L 52.0363 208.210518 
L 53.3755 211.064107 
L 54.7147 203.431922 
L 56.0539 206.966526 
L 57.3931 201.148698 
L 58.7323 205.367499 
L 60.0715 208.105808 
L 61.4107 205.945297 
L 62.7499 202.745787 
L 64.0891 203.208542 
L 65.4283 212.19822 
L 66.7675 207.024415 
L 68.1067 206.454076 
L 69.4459 210.119746 
L 70.7851 207.354027 
L 72.1243 206.965612 
L 73.4635 207.280155 
L 74.8027 204.982708 
L 76.1419 205.114056 
L 77.4811 209.261964 
L 78.8203 204.121952 
L 80.1595 207.814368 
L 81.4987 209.487922 
L 82.8379 206.745568 
L 84.1771 207.173166 
L 85.5163 209.218686 
L 86.8555 208.852675 
L 88.1947 212.041531 
L 89.5339 206.099626 
L 90.8731 207.23288 
L 92.2123 206.619879 
L 93.5515 206.272551 
L 94.8907 207.368063 
L 96.2299 207.200019 
L 97.5691 204.651649 
L 98.9083 206.796543 
L 100.2475 205.515825 
L 101.5867 205.926171 
L 102.9259 212.055372 
L 104.2651 208.430295 
L 105.6043 204.056518 
L 106.9435 208.016158 
L 108.2827 207.333588 
L 109.6219 203.513137 
L 110.9611 205.285518 
L 112.3003 203.772721 
L 113.6395 205.969538 
L 114.9787 205.409825 
L 116.3179 135.729967 
L 117.6571 214.756364 
L 118.9963 210.297922 
L 120.3355 207.442201 
L 121.6747 211.603779 
L 123.0139 204.083394 
L 124.3531 210.802351 
L 125.6923 209.67074 
L 127.0315 207.299717 
L 128.3707 208.767095 
L 129.7099 209.71358 
L 131.0491 203.155828 
L 132.3883 208.428989 
L 133.7275 211.214813 
L 135.0667 203.383652 
L 137.7451 206.591274 
L 139.0843 204.836897 
L 140.4235 209.346732 
L 141.7627 205.972619 
L 143.1019 206.226106 
L 144.4411 209.785755 
L 145.7803 204.74724 
L 147.1195 204.807504 
L 148.4587 209.175868 
L 149.7979 203.131679 
L 151.1371 211.971013 
L 152.4763 203.277328 
L 153.8155 204.4037 
L 155.1547 209.725395 
L 156.4939 208.382711 
L 157.8331 207.272235 
L 159.1723 206.431241 
L 160.5115 209.423466 
L 161.8507 206.857209 
L 163.1899 208.054976 
L 164.5291 205.974321 
L 165.8683 209.691464 
L 167.2075 209.58456 
L 168.5467 210.259097 
L 169.8859 210.269426 
L 171.2251 203.97682 
L 172.5643 203.03041 
L 173.9035 207.942507 
L 175.2427 207.840953 
L 176.5819 207.884486 
L 179.2603 204.788975 
L 180.5995 206.676764 
L 181.9387 206.957467 
L 183.2779 202.734432 
L 184.6171 205.359104 
L 185.9563 210.253983 
L 187.2955 208.33671 
L 188.6347 207.964981 
L 189.9739 205.704207 
L 191.3131 204.641484 
L 192.6523 205.505334 
L 193.9915 208.346332 
L 195.3307 205.173167 
L 196.6699 209.60224 
L 198.0091 206.167792 
L 199.3483 208.33243 
L 200.6875 207.212388 
L 202.0267 205.65633 
L 203.3659 203.554811 
L 204.7051 204.981081 
L 206.0443 205.014865 
L 207.3835 205.615894 
L 208.7227 204.712923 
L 210.0619 207.996128 
L 211.4011 208.688689 
L 212.7403 205.716359 
L 214.0795 211.037506 
L 215.4187 209.135346 
L 216.7579 207.82698 
L 218.0971 204.952346 
L 219.4363 209.277909 
L 220.7755 211.721775 
L 222.1147 209.27679 
L 223.4539 205.407898 
L 224.7931 209.918412 
L 226.1323 207.319938 
L 227.4715 209.239206 
L 228.8107 207.375414 
L 230.1499 207.611819 
L 231.4891 208.969818 
L 232.8283 209.534337 
L 234.1675 209.079024 
L 235.5067 204.969973 
L 236.8459 203.202689 
L 238.1851 206.297782 
L 239.5243 212.423449 
L 240.8635 209.710505 
L 242.2027 205.103757 
L 243.5419 207.674516 
L 244.8811 207.565249 
L 246.2203 209.536175 
L 247.5595 207.602245 
L 248.8987 207.590115 
L 250.2379 209.087288 
L 251.5771 207.839228 
L 252.9163 205.202115 
L 254.2555 204.345676 
L 255.5947 208.680302 
L 256.9339 204.357171 
L 258.2731 206.109331 
L 259.6123 208.336816 
L 260.9515 206.059591 
L 262.2907 209.12618 
L 263.6299 210.956983 
L 264.9691 204.497896 
L 266.3083 207.43075 
L 267.6475 209.497911 
L 268.9867 208.430438 
L 270.3259 205.557922 
L 271.6651 206.700414 
L 273.0043 211.008044 
L 274.3435 203.182268 
L 277.0219 210.253087 
L 278.3611 207.141082 
L 279.7003 207.385712 
L 281.0395 211.255201 
L 282.3787 207.279915 
L 283.7179 206.204558 
L 285.0571 207.346741 
L 286.3963 205.944865 
L 287.7355 209.592807 
L 289.0747 211.188769 
L 290.4139 205.659989 
L 291.7531 205.288161 
L 293.0923 211.907233 
L 294.4315 205.97641 
L 295.7707 209.573054 
L 297.1099 207.499079 
L 298.4491 207.78392 
L 299.7883 210.855112 
L 301.1275 206.106023 
L 302.4667 207.092358 
L 303.8059 207.106964 
L 305.1451 205.213967 
L 306.4843 204.725526 
L 307.8235 208.955871 
L 309.1627 206.952882 
L 310.5019 202.701691 
L 311.8411 205.624623 
L 313.1803 209.393625 
L 314.5195 207.700537 
L 315.8587 210.88359 
L 317.1979 209.602579 
L 318.5371 203.149822 
L 319.8763 207.276752 
L 321.2155 208.546525 
L 322.5547 205.96552 
L 323.8939 212.690653 
L 325.2331 201.61169 
L 326.5723 207.967647 
L 327.9115 199.984884 
L 329.2507 205.343944 
L 330.5899 204.351302 
L 331.9291 203.532724 
L 333.2683 207.605428 
L 334.6075 205.585403 
L 335.9467 210.365365 
L 337.2859 204.871439 
L 338.6251 210.404534 
L 339.9643 206.700203 
L 341.3035 204.306155 
L 343.9819 210.029998 
L 345.3211 210.235522 
L 346.6603 200.362217 
L 347.9995 206.488428 
L 349.3387 203.478717 
L 350.6779 209.143622 
L 352.0171 208.64004 
L 353.3563 208.306183 
L 354.6955 209.344079 
L 356.0347 207.162534 
L 357.3739 205.290519 
L 358.7131 206.990432 
L 360.0523 201.874811 
L 362.7307 209.033959 
L 364.0699 209.627383 
L 365.4091 204.327307 
L 366.7483 204.702653 
L 368.0875 207.377988 
L 369.4267 206.092884 
L 370.7659 206.481718 
L 372.1051 210.325385 
L 373.4443 204.111817 
L 374.7835 206.534314 
L 376.1227 209.786671 
L 377.4619 203.262017 
L 378.8011 207.280295 
L 380.1403 208.293592 
L 381.4795 209.987312 
L 382.8187 211.258511 
L 384.1579 204.472765 
L 385.4971 206.104461 
L 385.83125 206.961629 
L 385.83125 206.961629 
" style="fill:none;stroke:#1f77b4;stroke-linecap:square;stroke-width:1.5;"/>
   </g>
   <g id="patch_3">
    <path d="M 33.2875 224.64 
L 33.2875 7.2 
" style="fill:none;stroke:#000000;stroke-linecap:square;stroke-linejoin:miter;stroke-width:0.8;"/>
   </g>
   <g id="patch_4">
    <path d="M 368.0875 224.64 
L 368.0875 7.2 
" style="fill:none;stroke:#000000;stroke-linecap:square;stroke-linejoin:miter;stroke-width:0.8;"/>
   </g>
   <g id="patch_5">
    <path d="M 33.2875 224.64 
L 368.0875 224.64 
" style="fill:none;stroke:#000000;stroke-linecap:square;stroke-linejoin:miter;stroke-width:0.8;"/>
   </g>
   <g id="patch_6">
    <path d="M 33.2875 7.2 
L 368.0875 7.2 
" style="fill:none;stroke:#000000;stroke-linecap:square;stroke-linejoin:miter;stroke-width:0.8;"/>
   </g>
  </g>
 </g>
 <defs>
  <clipPath id="p655e82d3fd">
   <rect height="217.44" width="334.8" x="33.2875" y="7.2"/>
  </clipPath>
 </defs>
</svg>
