<?xml version="1.0" encoding="utf-8" standalone="no"?>
<!DOCTYPE svg PUBLIC "-//W3C//DTD SVG 1.1//EN"
  "http://www.w3.org/Graphics/SVG/1.1/DTD/svg11.dtd">
<svg xmlns:xlink="http://www.w3.org/1999/xlink" width="400.523437pt" height="248.518125pt" viewBox="0 0 400.523437 248.518125" xmlns="http://www.w3.org/2000/svg" version="1.1">
 <metadata>
  <rdf:RDF xmlns:dc="http://purl.org/dc/elements/1.1/" xmlns:cc="http://creativecommons.org/ns#" xmlns:rdf="http://www.w3.org/1999/02/22-rdf-syntax-ns#">
   <cc:Work>
    <dc:type rdf:resource="http://purl.org/dc/dcmitype/StillImage"/>
    <dc:date>2022-06-23T15:06:09.259631</dc:date>
    <dc:format>image/svg+xml</dc:format>
    <dc:creator>
     <cc:Agent>
      <dc:title>Matplotlib v3.5.2, https://matplotlib.org/</dc:title>
     </cc:Agent>
    </dc:creator>
   </cc:Work>
  </rdf:RDF>
 </metadata>
 <defs>
  <style type="text/css">*{stroke-linejoin: round; stroke-linecap: butt}</style>
 </defs>
 <g id="figure_1">
  <g id="patch_1">
   <path d="M 0 248.518125 
L 400.523437 248.518125 
L 400.523437 0 
L 0 0 
L 0 248.518125 
z
" style="fill: none"/>
  </g>
  <g id="axes_1">
   <g id="patch_2">
    <path d="M 58.523438 224.64 
L 393.323438 224.64 
L 393.323438 7.2 
L 58.523438 7.2 
z
" style="fill: #ffffff"/>
   </g>
   <g id="matplotlib.axis_1">
    <g id="xtick_1">
     <g id="line2d_1">
      <defs>
       <path id="m7a2b9f9d20" d="M 0 0 
L 0 3.5 
" style="stroke: #000000; stroke-width: 0.8"/>
      </defs>
      <g>
       <use xlink:href="#m7a2b9f9d20" x="73.589133" y="224.64" style="stroke: #000000; stroke-width: 0.8"/>
      </g>
     </g>
     <g id="text_1">
      <!-- 0 -->
      <g transform="translate(70.407883 239.238437)scale(0.1 -0.1)">
       <defs>
        <path id="DejaVuSans-30" d="M 2034 4250 
Q 1547 4250 1301 3770 
Q 1056 3291 1056 2328 
Q 1056 1369 1301 889 
Q 1547 409 2034 409 
Q 2525 409 2770 889 
Q 3016 1369 3016 2328 
Q 3016 3291 2770 3770 
Q 2525 4250 2034 4250 
z
M 2034 4750 
Q 2819 4750 3233 4129 
Q 3647 3509 3647 2328 
Q 3647 1150 3233 529 
Q 2819 -91 2034 -91 
Q 1250 -91 836 529 
Q 422 1150 422 2328 
Q 422 3509 836 4129 
Q 1250 4750 2034 4750 
z
" transform="scale(0.015625)"/>
       </defs>
       <use xlink:href="#DejaVuSans-30"/>
      </g>
     </g>
    </g>
    <g id="xtick_2">
     <g id="line2d_2">
      <g>
       <use xlink:href="#m7a2b9f9d20" x="122.078648" y="224.64" style="stroke: #000000; stroke-width: 0.8"/>
      </g>
     </g>
     <g id="text_2">
      <!-- 1 -->
      <g transform="translate(118.897398 239.238437)scale(0.1 -0.1)">
       <defs>
        <path id="DejaVuSans-31" d="M 794 531 
L 1825 531 
L 1825 4091 
L 703 3866 
L 703 4441 
L 1819 4666 
L 2450 4666 
L 2450 531 
L 3481 531 
L 3481 0 
L 794 0 
L 794 531 
z
" transform="scale(0.015625)"/>
       </defs>
       <use xlink:href="#DejaVuSans-31"/>
      </g>
     </g>
    </g>
    <g id="xtick_3">
     <g id="line2d_3">
      <g>
       <use xlink:href="#m7a2b9f9d20" x="170.568163" y="224.64" style="stroke: #000000; stroke-width: 0.8"/>
      </g>
     </g>
     <g id="text_3">
      <!-- 2 -->
      <g transform="translate(167.386913 239.238437)scale(0.1 -0.1)">
       <defs>
        <path id="DejaVuSans-32" d="M 1228 531 
L 3431 531 
L 3431 0 
L 469 0 
L 469 531 
Q 828 903 1448 1529 
Q 2069 2156 2228 2338 
Q 2531 2678 2651 2914 
Q 2772 3150 2772 3378 
Q 2772 3750 2511 3984 
Q 2250 4219 1831 4219 
Q 1534 4219 1204 4116 
Q 875 4013 500 3803 
L 500 4441 
Q 881 4594 1212 4672 
Q 1544 4750 1819 4750 
Q 2544 4750 2975 4387 
Q 3406 4025 3406 3419 
Q 3406 3131 3298 2873 
Q 3191 2616 2906 2266 
Q 2828 2175 2409 1742 
Q 1991 1309 1228 531 
z
" transform="scale(0.015625)"/>
       </defs>
       <use xlink:href="#DejaVuSans-32"/>
      </g>
     </g>
    </g>
    <g id="xtick_4">
     <g id="line2d_4">
      <g>
       <use xlink:href="#m7a2b9f9d20" x="219.057678" y="224.64" style="stroke: #000000; stroke-width: 0.8"/>
      </g>
     </g>
     <g id="text_4">
      <!-- 3 -->
      <g transform="translate(215.876428 239.238437)scale(0.1 -0.1)">
       <defs>
        <path id="DejaVuSans-33" d="M 2597 2516 
Q 3050 2419 3304 2112 
Q 3559 1806 3559 1356 
Q 3559 666 3084 287 
Q 2609 -91 1734 -91 
Q 1441 -91 1130 -33 
Q 819 25 488 141 
L 488 750 
Q 750 597 1062 519 
Q 1375 441 1716 441 
Q 2309 441 2620 675 
Q 2931 909 2931 1356 
Q 2931 1769 2642 2001 
Q 2353 2234 1838 2234 
L 1294 2234 
L 1294 2753 
L 1863 2753 
Q 2328 2753 2575 2939 
Q 2822 3125 2822 3475 
Q 2822 3834 2567 4026 
Q 2313 4219 1838 4219 
Q 1578 4219 1281 4162 
Q 984 4106 628 3988 
L 628 4550 
Q 988 4650 1302 4700 
Q 1616 4750 1894 4750 
Q 2613 4750 3031 4423 
Q 3450 4097 3450 3541 
Q 3450 3153 3228 2886 
Q 3006 2619 2597 2516 
z
" transform="scale(0.015625)"/>
       </defs>
       <use xlink:href="#DejaVuSans-33"/>
      </g>
     </g>
    </g>
    <g id="xtick_5">
     <g id="line2d_5">
      <g>
       <use xlink:href="#m7a2b9f9d20" x="267.547194" y="224.64" style="stroke: #000000; stroke-width: 0.8"/>
      </g>
     </g>
     <g id="text_5">
      <!-- 4 -->
      <g transform="translate(264.365944 239.238437)scale(0.1 -0.1)">
       <defs>
        <path id="DejaVuSans-34" d="M 2419 4116 
L 825 1625 
L 2419 1625 
L 2419 4116 
z
M 2253 4666 
L 3047 4666 
L 3047 1625 
L 3713 1625 
L 3713 1100 
L 3047 1100 
L 3047 0 
L 2419 0 
L 2419 1100 
L 313 1100 
L 313 1709 
L 2253 4666 
z
" transform="scale(0.015625)"/>
       </defs>
       <use xlink:href="#DejaVuSans-34"/>
      </g>
     </g>
    </g>
    <g id="xtick_6">
     <g id="line2d_6">
      <g>
       <use xlink:href="#m7a2b9f9d20" x="316.036709" y="224.64" style="stroke: #000000; stroke-width: 0.8"/>
      </g>
     </g>
     <g id="text_6">
      <!-- 5 -->
      <g transform="translate(312.855459 239.238437)scale(0.1 -0.1)">
       <defs>
        <path id="DejaVuSans-35" d="M 691 4666 
L 3169 4666 
L 3169 4134 
L 1269 4134 
L 1269 2991 
Q 1406 3038 1543 3061 
Q 1681 3084 1819 3084 
Q 2600 3084 3056 2656 
Q 3513 2228 3513 1497 
Q 3513 744 3044 326 
Q 2575 -91 1722 -91 
Q 1428 -91 1123 -41 
Q 819 9 494 109 
L 494 744 
Q 775 591 1075 516 
Q 1375 441 1709 441 
Q 2250 441 2565 725 
Q 2881 1009 2881 1497 
Q 2881 1984 2565 2268 
Q 2250 2553 1709 2553 
Q 1456 2553 1204 2497 
Q 953 2441 691 2322 
L 691 4666 
z
" transform="scale(0.015625)"/>
       </defs>
       <use xlink:href="#DejaVuSans-35"/>
      </g>
     </g>
    </g>
    <g id="xtick_7">
     <g id="line2d_7">
      <g>
       <use xlink:href="#m7a2b9f9d20" x="364.526224" y="224.64" style="stroke: #000000; stroke-width: 0.8"/>
      </g>
     </g>
     <g id="text_7">
      <!-- 6 -->
      <g transform="translate(361.344974 239.238437)scale(0.1 -0.1)">
       <defs>
        <path id="DejaVuSans-36" d="M 2113 2584 
Q 1688 2584 1439 2293 
Q 1191 2003 1191 1497 
Q 1191 994 1439 701 
Q 1688 409 2113 409 
Q 2538 409 2786 701 
Q 3034 994 3034 1497 
Q 3034 2003 2786 2293 
Q 2538 2584 2113 2584 
z
M 3366 4563 
L 3366 3988 
Q 3128 4100 2886 4159 
Q 2644 4219 2406 4219 
Q 1781 4219 1451 3797 
Q 1122 3375 1075 2522 
Q 1259 2794 1537 2939 
Q 1816 3084 2150 3084 
Q 2853 3084 3261 2657 
Q 3669 2231 3669 1497 
Q 3669 778 3244 343 
Q 2819 -91 2113 -91 
Q 1303 -91 875 529 
Q 447 1150 447 2328 
Q 447 3434 972 4092 
Q 1497 4750 2381 4750 
Q 2619 4750 2861 4703 
Q 3103 4656 3366 4563 
z
" transform="scale(0.015625)"/>
       </defs>
       <use xlink:href="#DejaVuSans-36"/>
      </g>
     </g>
    </g>
   </g>
   <g id="matplotlib.axis_2">
    <g id="ytick_1">
     <g id="line2d_8">
      <defs>
       <path id="m5d0d7e24a5" d="M 0 0 
L -3.5 0 
" style="stroke: #000000; stroke-width: 0.8"/>
      </defs>
      <g>
       <use xlink:href="#m5d0d7e24a5" x="58.523438" y="201.848042" style="stroke: #000000; stroke-width: 0.8"/>
      </g>
     </g>
     <g id="text_8">
      <!-- −0.06 -->
      <g transform="translate(20.878125 205.647261)scale(0.1 -0.1)">
       <defs>
        <path id="DejaVuSans-2212" d="M 678 2272 
L 4684 2272 
L 4684 1741 
L 678 1741 
L 678 2272 
z
" transform="scale(0.015625)"/>
        <path id="DejaVuSans-2e" d="M 684 794 
L 1344 794 
L 1344 0 
L 684 0 
L 684 794 
z
" transform="scale(0.015625)"/>
       </defs>
       <use xlink:href="#DejaVuSans-2212"/>
       <use xlink:href="#DejaVuSans-30" x="83.789062"/>
       <use xlink:href="#DejaVuSans-2e" x="147.412109"/>
       <use xlink:href="#DejaVuSans-30" x="179.199219"/>
       <use xlink:href="#DejaVuSans-36" x="242.822266"/>
      </g>
     </g>
    </g>
    <g id="ytick_2">
     <g id="line2d_9">
      <g>
       <use xlink:href="#m5d0d7e24a5" x="58.523438" y="173.322094" style="stroke: #000000; stroke-width: 0.8"/>
      </g>
     </g>
     <g id="text_9">
      <!-- −0.04 -->
      <g transform="translate(20.878125 177.121313)scale(0.1 -0.1)">
       <use xlink:href="#DejaVuSans-2212"/>
       <use xlink:href="#DejaVuSans-30" x="83.789062"/>
       <use xlink:href="#DejaVuSans-2e" x="147.412109"/>
       <use xlink:href="#DejaVuSans-30" x="179.199219"/>
       <use xlink:href="#DejaVuSans-34" x="242.822266"/>
      </g>
     </g>
    </g>
    <g id="ytick_3">
     <g id="line2d_10">
      <g>
       <use xlink:href="#m5d0d7e24a5" x="58.523438" y="144.796146" style="stroke: #000000; stroke-width: 0.8"/>
      </g>
     </g>
     <g id="text_10">
      <!-- −0.02 -->
      <g transform="translate(20.878125 148.595365)scale(0.1 -0.1)">
       <use xlink:href="#DejaVuSans-2212"/>
       <use xlink:href="#DejaVuSans-30" x="83.789062"/>
       <use xlink:href="#DejaVuSans-2e" x="147.412109"/>
       <use xlink:href="#DejaVuSans-30" x="179.199219"/>
       <use xlink:href="#DejaVuSans-32" x="242.822266"/>
      </g>
     </g>
    </g>
    <g id="ytick_4">
     <g id="line2d_11">
      <g>
       <use xlink:href="#m5d0d7e24a5" x="58.523438" y="116.270199" style="stroke: #000000; stroke-width: 0.8"/>
      </g>
     </g>
     <g id="text_11">
      <!-- 0.00 -->
      <g transform="translate(29.257813 120.069417)scale(0.1 -0.1)">
       <use xlink:href="#DejaVuSans-30"/>
       <use xlink:href="#DejaVuSans-2e" x="63.623047"/>
       <use xlink:href="#DejaVuSans-30" x="95.410156"/>
       <use xlink:href="#DejaVuSans-30" x="159.033203"/>
      </g>
     </g>
    </g>
    <g id="ytick_5">
     <g id="line2d_12">
      <g>
       <use xlink:href="#m5d0d7e24a5" x="58.523438" y="87.744251" style="stroke: #000000; stroke-width: 0.8"/>
      </g>
     </g>
     <g id="text_12">
      <!-- 0.02 -->
      <g transform="translate(29.257813 91.543469)scale(0.1 -0.1)">
       <use xlink:href="#DejaVuSans-30"/>
       <use xlink:href="#DejaVuSans-2e" x="63.623047"/>
       <use xlink:href="#DejaVuSans-30" x="95.410156"/>
       <use xlink:href="#DejaVuSans-32" x="159.033203"/>
      </g>
     </g>
    </g>
    <g id="ytick_6">
     <g id="line2d_13">
      <g>
       <use xlink:href="#m5d0d7e24a5" x="58.523438" y="59.218303" style="stroke: #000000; stroke-width: 0.8"/>
      </g>
     </g>
     <g id="text_13">
      <!-- 0.04 -->
      <g transform="translate(29.257813 63.017521)scale(0.1 -0.1)">
       <use xlink:href="#DejaVuSans-30"/>
       <use xlink:href="#DejaVuSans-2e" x="63.623047"/>
       <use xlink:href="#DejaVuSans-30" x="95.410156"/>
       <use xlink:href="#DejaVuSans-34" x="159.033203"/>
      </g>
     </g>
    </g>
    <g id="ytick_7">
     <g id="line2d_14">
      <g>
       <use xlink:href="#m5d0d7e24a5" x="58.523438" y="30.692355" style="stroke: #000000; stroke-width: 0.8"/>
      </g>
     </g>
     <g id="text_14">
      <!-- 0.06 -->
      <g transform="translate(29.257813 34.491574)scale(0.1 -0.1)">
       <use xlink:href="#DejaVuSans-30"/>
       <use xlink:href="#DejaVuSans-2e" x="63.623047"/>
       <use xlink:href="#DejaVuSans-30" x="95.410156"/>
       <use xlink:href="#DejaVuSans-36" x="159.033203"/>
      </g>
     </g>
    </g>
    <g id="text_15">
     <!-- Slope, dx/dy -->
     <g transform="translate(14.798438 146.923125)rotate(-90)scale(0.1 -0.1)">
      <defs>
       <path id="DejaVuSans-53" d="M 3425 4513 
L 3425 3897 
Q 3066 4069 2747 4153 
Q 2428 4238 2131 4238 
Q 1616 4238 1336 4038 
Q 1056 3838 1056 3469 
Q 1056 3159 1242 3001 
Q 1428 2844 1947 2747 
L 2328 2669 
Q 3034 2534 3370 2195 
Q 3706 1856 3706 1288 
Q 3706 609 3251 259 
Q 2797 -91 1919 -91 
Q 1588 -91 1214 -16 
Q 841 59 441 206 
L 441 856 
Q 825 641 1194 531 
Q 1563 422 1919 422 
Q 2459 422 2753 634 
Q 3047 847 3047 1241 
Q 3047 1584 2836 1778 
Q 2625 1972 2144 2069 
L 1759 2144 
Q 1053 2284 737 2584 
Q 422 2884 422 3419 
Q 422 4038 858 4394 
Q 1294 4750 2059 4750 
Q 2388 4750 2728 4690 
Q 3069 4631 3425 4513 
z
" transform="scale(0.015625)"/>
       <path id="DejaVuSans-6c" d="M 603 4863 
L 1178 4863 
L 1178 0 
L 603 0 
L 603 4863 
z
" transform="scale(0.015625)"/>
       <path id="DejaVuSans-6f" d="M 1959 3097 
Q 1497 3097 1228 2736 
Q 959 2375 959 1747 
Q 959 1119 1226 758 
Q 1494 397 1959 397 
Q 2419 397 2687 759 
Q 2956 1122 2956 1747 
Q 2956 2369 2687 2733 
Q 2419 3097 1959 3097 
z
M 1959 3584 
Q 2709 3584 3137 3096 
Q 3566 2609 3566 1747 
Q 3566 888 3137 398 
Q 2709 -91 1959 -91 
Q 1206 -91 779 398 
Q 353 888 353 1747 
Q 353 2609 779 3096 
Q 1206 3584 1959 3584 
z
" transform="scale(0.015625)"/>
       <path id="DejaVuSans-70" d="M 1159 525 
L 1159 -1331 
L 581 -1331 
L 581 3500 
L 1159 3500 
L 1159 2969 
Q 1341 3281 1617 3432 
Q 1894 3584 2278 3584 
Q 2916 3584 3314 3078 
Q 3713 2572 3713 1747 
Q 3713 922 3314 415 
Q 2916 -91 2278 -91 
Q 1894 -91 1617 61 
Q 1341 213 1159 525 
z
M 3116 1747 
Q 3116 2381 2855 2742 
Q 2594 3103 2138 3103 
Q 1681 3103 1420 2742 
Q 1159 2381 1159 1747 
Q 1159 1113 1420 752 
Q 1681 391 2138 391 
Q 2594 391 2855 752 
Q 3116 1113 3116 1747 
z
" transform="scale(0.015625)"/>
       <path id="DejaVuSans-65" d="M 3597 1894 
L 3597 1613 
L 953 1613 
Q 991 1019 1311 708 
Q 1631 397 2203 397 
Q 2534 397 2845 478 
Q 3156 559 3463 722 
L 3463 178 
Q 3153 47 2828 -22 
Q 2503 -91 2169 -91 
Q 1331 -91 842 396 
Q 353 884 353 1716 
Q 353 2575 817 3079 
Q 1281 3584 2069 3584 
Q 2775 3584 3186 3129 
Q 3597 2675 3597 1894 
z
M 3022 2063 
Q 3016 2534 2758 2815 
Q 2500 3097 2075 3097 
Q 1594 3097 1305 2825 
Q 1016 2553 972 2059 
L 3022 2063 
z
" transform="scale(0.015625)"/>
       <path id="DejaVuSans-2c" d="M 750 794 
L 1409 794 
L 1409 256 
L 897 -744 
L 494 -744 
L 750 256 
L 750 794 
z
" transform="scale(0.015625)"/>
       <path id="DejaVuSans-20" transform="scale(0.015625)"/>
       <path id="DejaVuSans-64" d="M 2906 2969 
L 2906 4863 
L 3481 4863 
L 3481 0 
L 2906 0 
L 2906 525 
Q 2725 213 2448 61 
Q 2172 -91 1784 -91 
Q 1150 -91 751 415 
Q 353 922 353 1747 
Q 353 2572 751 3078 
Q 1150 3584 1784 3584 
Q 2172 3584 2448 3432 
Q 2725 3281 2906 2969 
z
M 947 1747 
Q 947 1113 1208 752 
Q 1469 391 1925 391 
Q 2381 391 2643 752 
Q 2906 1113 2906 1747 
Q 2906 2381 2643 2742 
Q 2381 3103 1925 3103 
Q 1469 3103 1208 2742 
Q 947 2381 947 1747 
z
" transform="scale(0.015625)"/>
       <path id="DejaVuSans-78" d="M 3513 3500 
L 2247 1797 
L 3578 0 
L 2900 0 
L 1881 1375 
L 863 0 
L 184 0 
L 1544 1831 
L 300 3500 
L 978 3500 
L 1906 2253 
L 2834 3500 
L 3513 3500 
z
" transform="scale(0.015625)"/>
       <path id="DejaVuSans-2f" d="M 1625 4666 
L 2156 4666 
L 531 -594 
L 0 -594 
L 1625 4666 
z
" transform="scale(0.015625)"/>
       <path id="DejaVuSans-79" d="M 2059 -325 
Q 1816 -950 1584 -1140 
Q 1353 -1331 966 -1331 
L 506 -1331 
L 506 -850 
L 844 -850 
Q 1081 -850 1212 -737 
Q 1344 -625 1503 -206 
L 1606 56 
L 191 3500 
L 800 3500 
L 1894 763 
L 2988 3500 
L 3597 3500 
L 2059 -325 
z
" transform="scale(0.015625)"/>
      </defs>
      <use xlink:href="#DejaVuSans-53"/>
      <use xlink:href="#DejaVuSans-6c" x="63.476562"/>
      <use xlink:href="#DejaVuSans-6f" x="91.259766"/>
      <use xlink:href="#DejaVuSans-70" x="152.441406"/>
      <use xlink:href="#DejaVuSans-65" x="215.917969"/>
      <use xlink:href="#DejaVuSans-2c" x="277.441406"/>
      <use xlink:href="#DejaVuSans-20" x="309.228516"/>
      <use xlink:href="#DejaVuSans-64" x="341.015625"/>
      <use xlink:href="#DejaVuSans-78" x="404.492188"/>
      <use xlink:href="#DejaVuSans-2f" x="463.671875"/>
      <use xlink:href="#DejaVuSans-64" x="497.363281"/>
      <use xlink:href="#DejaVuSans-79" x="560.839844"/>
     </g>
    </g>
   </g>
   <g id="line2d_15">
    <path d="M 73.741619 129.527186 
L 74.046593 73.938887 
L 74.351566 171.34688 
L 74.65654 87.944261 
L 74.961514 130.754329 
L 75.266487 51.286251 
L 75.571461 136.092048 
L 75.876434 128.714636 
L 76.181408 105.096967 
L 76.486382 56.027753 
L 76.791355 141.964624 
L 77.096329 106.468277 
L 77.401302 120.961993 
L 77.706276 103.10959 
L 78.011249 104.51408 
L 78.316223 45.22813 
L 78.621197 142.871076 
L 78.92617 149.136724 
L 79.231144 61.753883 
L 80.146065 160.492432 
L 80.451038 84.931886 
L 80.756012 132.84138 
L 81.060985 59.18927 
L 81.365959 131.764388 
L 81.670932 102.132005 
L 81.975906 101.195195 
L 82.28088 149.277981 
L 82.585853 119.429452 
L 82.890827 21.537624 
L 83.1958 158.961591 
L 83.500774 118.961722 
L 83.805748 62.992884 
L 84.110721 175.197346 
L 84.415695 35.475186 
L 84.720668 133.464 
L 85.025642 73.156984 
L 85.330615 172.505213 
L 85.635589 71.577891 
L 85.940563 112.51135 
L 86.245536 133.559726 
L 86.55051 57.375883 
L 86.855483 118.809453 
L 87.160457 135.441418 
L 87.465431 47.406064 
L 87.770404 198.699192 
L 88.075378 53.135685 
L 88.380351 161.829544 
L 88.685325 18.915236 
L 88.990298 138.323027 
L 89.905219 78.774697 
L 90.210193 123.925363 
L 90.515166 77.624486 
L 90.82014 173.42342 
L 91.125114 76.360684 
L 91.430087 131.871379 
L 92.040034 67.667073 
L 92.345008 139.155896 
L 92.649981 96.85313 
L 92.954955 140.084422 
L 93.564902 82.303759 
L 93.869876 107.344694 
L 94.174849 114.835092 
L 94.479823 65.043815 
L 94.784797 178.298955 
L 95.08977 73.169582 
L 95.394744 107.71466 
L 95.699717 88.684335 
L 96.004691 161.828136 
L 96.309664 72.698753 
L 96.614638 158.956498 
L 96.919612 68.275388 
L 97.224585 118.231667 
L 97.529559 100.567388 
L 97.834532 97.503786 
L 98.139506 81.682343 
L 98.44448 168.011361 
L 98.749453 66.997066 
L 99.054427 158.104522 
L 99.3594 60.45398 
L 99.664374 97.240921 
L 99.969348 183.332783 
L 100.274321 55.169588 
L 100.579295 147.620249 
L 100.884268 35.994489 
L 101.494215 178.241559 
L 101.799189 67.330137 
L 102.104163 87.645752 
L 102.71411 142.43957 
L 103.019083 104.975194 
L 103.324057 125.796501 
L 103.629031 48.69151 
L 103.934004 188.939498 
L 104.238978 65.314883 
L 104.543951 63.595956 
L 104.848925 177.852348 
L 105.153898 50.041133 
L 105.458872 149.161534 
L 105.763846 75.359147 
L 106.068819 107.153806 
L 106.373793 94.022973 
L 106.678766 115.510466 
L 106.98374 154.662657 
L 107.288714 90.6551 
L 107.593687 91.976292 
L 107.898661 128.657204 
L 108.203634 129.999133 
L 108.508608 76.546131 
L 108.813581 174.859493 
L 109.118555 26.404061 
L 109.423529 183.097105 
L 109.728502 32.345093 
L 110.033476 115.959262 
L 110.338449 148.834325 
L 110.643423 120.317369 
L 110.948397 49.09419 
L 111.25337 198.852535 
L 111.558344 50.963114 
L 111.863317 99.553162 
L 112.168291 113.495552 
L 112.473264 113.558647 
L 112.778238 120.371464 
L 113.083212 117.327654 
L 113.388185 161.709722 
L 113.693159 54.25563 
L 113.998132 152.578898 
L 114.303106 58.689813 
L 114.60808 130.542228 
L 114.913053 102.976604 
L 115.218027 110.437103 
L 115.523 65.58128 
L 115.827974 179.749307 
L 116.437921 78.730263 
L 116.742895 85.437499 
L 117.047868 123.795685 
L 117.352842 137.552172 
L 117.657815 48.422381 
L 117.962789 199.801586 
L 118.267763 43.601046 
L 118.572736 127.926528 
L 118.87771 79.785225 
L 119.182683 174.666856 
L 119.487657 79.150491 
L 119.79263 104.694418 
L 120.097604 171.794894 
L 120.402578 107.951853 
L 120.707551 84.970051 
L 121.012525 95.391251 
L 121.622472 134.981787 
L 121.927446 84.580825 
L 122.232419 143.211351 
L 122.537393 97.844963 
L 122.842366 130.622705 
L 123.14734 36.535472 
L 123.452313 109.504476 
L 123.757287 154.150294 
L 124.062261 140.230103 
L 124.367234 68.543857 
L 124.672208 112.974797 
L 124.977181 135.997009 
L 125.282155 58.399078 
L 125.587129 192.714828 
L 125.892102 46.000576 
L 126.197076 123.858569 
L 126.502049 120.107673 
L 126.807023 64.691882 
L 127.111996 168.557014 
L 127.41697 78.715788 
L 127.721944 97.494948 
L 128.026917 184.201274 
L 128.331891 51.32894 
L 128.636864 185.530918 
L 128.941838 111.473422 
L 129.246812 108.872502 
L 129.551785 72.876806 
L 129.856759 148.40116 
L 130.161732 111.431838 
L 130.466706 38.648999 
L 130.771679 179.346054 
L 131.076653 38.174524 
L 131.381627 210.465467 
L 131.6866 64.098889 
L 131.991574 124.320772 
L 132.296547 142.424267 
L 132.601521 52.493134 
L 132.906495 136.087535 
L 133.211468 101.769244 
L 133.516442 170.598534 
L 133.821415 31.046063 
L 134.126389 132.689448 
L 134.431362 117.699074 
L 134.736336 151.687015 
L 135.04131 48.882985 
L 135.346283 128.93407 
L 135.651257 173.954799 
L 135.95623 77.646917 
L 136.261204 115.374843 
L 136.566178 62.879847 
L 136.871151 184.767074 
L 137.176125 81.065853 
L 137.481098 161.003442 
L 137.786072 56.622349 
L 138.091045 178.937224 
L 138.396019 42.271195 
L 138.700993 169.292835 
L 139.005966 48.880181 
L 139.31094 170.041769 
L 139.615913 49.455699 
L 139.920887 199.264748 
L 140.225861 38.704177 
L 140.835808 190.489272 
L 141.140781 93.227272 
L 141.445755 118.169979 
L 141.750728 88.532213 
L 142.055702 157.293421 
L 142.665649 70.389715 
L 142.970623 101.575818 
L 143.275596 166.885432 
L 143.58057 66.585002 
L 143.885544 112.343527 
L 144.190517 121.457771 
L 144.495491 84.724133 
L 144.800464 117.511618 
L 145.105438 174.250351 
L 145.410411 111.763644 
L 145.715385 92.246565 
L 146.020359 158.720971 
L 146.325332 72.968426 
L 146.630306 81.248743 
L 147.240253 176.08525 
L 147.545227 53.402266 
L 147.8502 179.743714 
L 148.155174 93.408415 
L 148.460147 134.457753 
L 148.765121 94.129816 
L 149.070094 160.736147 
L 149.375068 79.686035 
L 149.680042 121.287461 
L 149.985015 69.498717 
L 150.289989 163.410678 
L 150.594962 145.591373 
L 150.899936 60.272432 
L 151.20491 148.637297 
L 151.509883 75.933201 
L 151.814857 98.933013 
L 152.11983 154.723674 
L 152.424804 81.148951 
L 152.729777 135.041754 
L 153.034751 91.809293 
L 153.339725 144.372262 
L 153.644698 159.898626 
L 153.949672 101.611205 
L 154.254645 153.521911 
L 154.559619 63.918583 
L 154.864593 99.846915 
L 155.169566 101.776727 
L 155.47454 150.191796 
L 155.779513 149.07772 
L 156.084487 75.578668 
L 156.694434 118.13258 
L 156.999408 157.162786 
L 157.304381 139.690574 
L 157.609355 75.074332 
L 158.219302 147.971765 
L 158.524276 105.079472 
L 158.829249 156.218029 
L 159.439196 95.679937 
L 159.74417 127.465653 
L 160.049143 106.00429 
L 160.354117 60.095652 
L 160.964064 170.295516 
L 161.269038 105.660733 
L 161.574011 164.000155 
L 162.183959 89.836323 
L 162.488932 156.477025 
L 163.098879 70.241919 
L 163.708826 164.085804 
L 164.0138 101.640555 
L 164.318774 90.581819 
L 164.623747 146.099247 
L 165.233694 89.735995 
L 165.538668 137.278674 
L 165.843642 149.963493 
L 166.148615 61.801748 
L 166.758562 188.805293 
L 167.063536 100.464996 
L 167.368509 84.350672 
L 167.673483 155.918255 
L 167.978457 69.998619 
L 168.28343 97.662439 
L 168.588404 184.525757 
L 168.893377 105.002758 
L 169.198351 72.133382 
L 169.503325 177.246329 
L 169.808298 62.81341 
L 170.113272 121.834395 
L 170.418245 123.070438 
L 170.723219 125.217447 
L 171.028192 146.583597 
L 171.333166 116.697748 
L 171.63814 136.70801 
L 171.943113 123.181883 
L 172.248087 151.575595 
L 172.55306 86.602621 
L 172.858034 154.865984 
L 173.163008 57.160733 
L 173.467981 137.167947 
L 173.772955 115.310156 
L 174.077928 147.824223 
L 174.687875 68.766489 
L 174.992849 203.558308 
L 175.297823 59.546455 
L 175.602796 160.817486 
L 175.90777 102.170272 
L 176.212743 89.175238 
L 176.517717 195.67206 
L 176.822691 76.192028 
L 177.127664 95.516804 
L 177.432638 191.593834 
L 177.737611 60.763315 
L 178.042585 119.916025 
L 178.347558 130.707877 
L 178.652532 126.173122 
L 178.957506 177.793087 
L 179.262479 73.149184 
L 179.567453 89.396271 
L 179.872426 118.270791 
L 180.1774 170.952928 
L 180.482374 159.341662 
L 180.787347 81.957559 
L 181.092321 126.159591 
L 181.397294 151.885136 
L 181.702268 72.935797 
L 182.007241 122.179344 
L 182.312215 82.98264 
L 182.617189 144.076754 
L 182.922162 117.437189 
L 183.227136 184.982755 
L 183.532109 60.364591 
L 183.837083 193.080145 
L 184.142057 31.011223 
L 184.44703 196.477684 
L 185.056977 64.190561 
L 185.361951 144.948864 
L 185.666924 74.01933 
L 185.971898 156.999252 
L 186.276872 127.576826 
L 186.581845 139.402481 
L 186.886819 128.553034 
L 187.191792 68.902356 
L 187.80174 165.54689 
L 188.106713 154.560441 
L 188.411687 119.319223 
L 188.71666 40.839812 
L 189.021634 177.064457 
L 189.326607 116.756871 
L 189.631581 101.658698 
L 189.936555 163.399419 
L 190.546502 72.051661 
L 190.851475 187.691517 
L 191.156449 72.486816 
L 191.461423 164.039645 
L 191.766396 145.788703 
L 192.07137 82.293189 
L 192.376343 150.24481 
L 192.681317 46.419084 
L 193.291264 190.359783 
L 193.596238 80.229953 
L 193.901211 113.57448 
L 194.206185 163.941599 
L 194.511158 142.29545 
L 194.816132 85.395645 
L 195.121106 133.395072 
L 195.426079 116.906154 
L 195.731053 122.741367 
L 196.036026 154.741553 
L 196.341 105.910952 
L 196.645973 116.593663 
L 196.950947 99.01679 
L 197.560894 167.257847 
L 197.865868 106.236496 
L 198.170841 92.757099 
L 198.475815 141.559599 
L 198.780789 125.606656 
L 199.085762 154.317212 
L 199.390736 72.586402 
L 199.695709 176.262292 
L 200.000683 79.352465 
L 200.305656 168.757224 
L 200.61063 78.93226 
L 200.915604 93.390036 
L 201.220577 168.293347 
L 201.525551 139.128401 
L 201.830524 137.536493 
L 202.135498 126.583686 
L 202.440472 41.200626 
L 202.745445 122.457701 
L 203.050419 140.403568 
L 203.355392 187.099355 
L 203.660366 112.464297 
L 203.965339 136.781759 
L 204.575287 68.571026 
L 204.88026 194.167967 
L 205.185234 55.886408 
L 205.490207 151.451929 
L 205.795181 152.001341 
L 206.100155 154.130026 
L 206.405128 86.89881 
L 206.710102 79.057135 
L 207.320049 185.28141 
L 207.625022 102.813674 
L 207.929996 121.294228 
L 208.23497 87.342193 
L 208.539943 188.106006 
L 208.844917 46.332675 
L 209.14989 208.961488 
L 209.454864 98.255591 
L 209.759838 127.792434 
L 210.064811 96.729077 
L 210.369785 144.868183 
L 210.674758 115.453567 
L 210.979732 141.598609 
L 211.284705 117.608783 
L 211.589679 73.469345 
L 211.894653 205.5066 
L 212.199626 78.204539 
L 212.5046 179.335274 
L 212.809573 107.550336 
L 213.114547 105.705102 
L 213.419521 85.06358 
L 214.029468 167.13097 
L 214.334441 154.246623 
L 214.639415 96.666315 
L 214.944388 135.517674 
L 215.249362 130.502173 
L 215.554336 120.804701 
L 215.859309 106.821747 
L 216.164283 111.923164 
L 216.469256 127.308749 
L 216.77423 100.332169 
L 217.079204 155.724429 
L 217.384177 179.806693 
L 217.689151 87.725721 
L 218.299098 152.008831 
L 218.604071 78.485244 
L 218.909045 164.84709 
L 219.214019 145.702051 
L 219.823966 81.725008 
L 220.128939 181.394689 
L 220.433913 29.887387 
L 220.738887 131.394794 
L 221.04386 175.996925 
L 221.348834 94.505151 
L 221.653807 169.275716 
L 221.958781 112.984768 
L 222.263754 156.944112 
L 222.568728 130.607425 
L 222.873702 85.518751 
L 223.178675 85.47661 
L 223.483649 178.597565 
L 223.788622 115.180298 
L 224.093596 144.383752 
L 224.39857 121.807871 
L 224.703543 134.429044 
L 225.008517 130.894324 
L 225.31349 62.161231 
L 225.618464 108.904687 
L 225.923438 116.918313 
L 226.228411 128.642811 
L 226.533385 166.429943 
L 226.838358 169.647995 
L 227.143332 81.081076 
L 227.448305 79.811697 
L 228.058253 187.776893 
L 228.363226 129.767226 
L 228.6682 43.63699 
L 228.973173 161.47505 
L 229.278147 138.99265 
L 229.583121 142.454942 
L 229.888094 127.925946 
L 230.193068 57.410842 
L 230.498041 190.845522 
L 230.803015 49.489252 
L 231.107988 154.747343 
L 231.412962 137.492914 
L 231.717936 166.501892 
L 232.327883 77.762692 
L 232.632856 195.196615 
L 232.93783 76.708104 
L 233.242804 103.554122 
L 233.547777 170.37474 
L 233.852751 131.868027 
L 234.157724 115.121469 
L 234.462698 83.514087 
L 234.767671 154.579585 
L 235.072645 128.112299 
L 235.377619 156.854008 
L 235.682592 121.744385 
L 235.987566 111.792817 
L 236.292539 74.005351 
L 236.597513 194.706618 
L 236.902487 103.400884 
L 237.20746 118.591999 
L 237.512434 147.682014 
L 237.817407 101.192389 
L 238.122381 95.654532 
L 238.427354 175.037072 
L 238.732328 65.552462 
L 239.037302 192.263814 
L 239.342275 95.025434 
L 239.647249 159.66938 
L 239.952222 68.404561 
L 240.56217 135.609324 
L 240.867143 143.554223 
L 241.172117 155.058449 
L 241.47709 95.166643 
L 241.782064 100.663919 
L 242.087037 174.64966 
L 242.392011 144.050933 
L 242.696985 40.038787 
L 243.001958 139.022501 
L 243.306932 190.495235 
L 243.611905 57.652892 
L 243.916879 198.568324 
L 244.221853 113.786882 
L 244.526826 121.82521 
L 244.8318 81.007987 
L 245.136773 100.197932 
L 245.441747 201.436801 
L 245.74672 55.77899 
L 246.051694 137.308985 
L 246.356668 135.109445 
L 246.661641 90.88422 
L 246.966615 142.281968 
L 247.271588 142.345959 
L 247.576562 156.266874 
L 247.881536 63.685001 
L 248.186509 182.676 
L 248.491483 80.166528 
L 248.796456 99.500397 
L 249.10143 165.671752 
L 249.406403 99.838928 
L 249.711377 137.339168 
L 250.016351 91.685747 
L 250.321324 201.755175 
L 250.626298 65.682175 
L 250.931271 121.28201 
L 251.236245 149.118991 
L 251.541219 87.312039 
L 252.151166 148.540154 
L 252.456139 131.17932 
L 252.761113 163.524445 
L 253.066086 50.812789 
L 253.37106 214.756364 
L 253.676034 35.637815 
L 253.981007 126.56345 
L 254.285981 152.935808 
L 254.590954 148.269682 
L 254.895928 96.046634 
L 255.200902 161.637029 
L 255.505875 70.302548 
L 255.810849 175.326436 
L 256.115822 116.768918 
L 256.420796 145.56421 
L 256.725769 124.732452 
L 257.030743 130.859139 
L 257.335717 123.566226 
L 257.64069 59.870595 
L 257.945664 169.367207 
L 258.250637 120.17167 
L 258.555611 108.858075 
L 258.860585 154.14627 
L 259.165558 31.793034 
L 259.470532 123.082544 
L 259.775505 137.445222 
L 260.080479 162.919397 
L 260.385452 161.716477 
L 260.690426 41.178779 
L 260.9954 195.42739 
L 261.300373 92.644705 
L 261.605347 160.585804 
L 261.91032 54.653835 
L 262.215294 191.039448 
L 262.520268 82.640159 
L 262.825241 130.458402 
L 263.130215 132.144575 
L 263.435188 87.059005 
L 263.740162 117.809023 
L 264.045135 164.532747 
L 264.350109 119.973914 
L 264.655083 124.959349 
L 264.960056 100.945433 
L 265.26503 148.113254 
L 265.570003 145.391492 
L 265.874977 100.46677 
L 266.179951 140.150181 
L 266.484924 54.422984 
L 266.789898 147.111034 
L 267.094871 91.105344 
L 267.399845 101.995678 
L 267.704818 211.295256 
L 268.009792 108.068887 
L 268.314766 131.254307 
L 268.619739 58.757653 
L 268.924713 133.818184 
L 269.229686 108.051838 
L 269.53466 147.955948 
L 269.839634 156.76189 
L 270.144607 44.868026 
L 270.449581 150.222476 
L 270.754554 89.815892 
L 271.059528 203.768881 
L 271.364501 96.087198 
L 271.974449 142.6316 
L 272.279422 93.980061 
L 272.584396 135.820242 
L 272.889369 84.480247 
L 273.194343 169.696996 
L 273.499317 102.573932 
L 273.80429 89.29185 
L 274.109264 132.992162 
L 274.414237 137.408576 
L 274.719211 76.950026 
L 275.024184 169.45855 
L 275.329158 143.706714 
L 275.634132 61.549382 
L 275.939105 189.438923 
L 276.244079 116.130827 
L 276.549052 125.189909 
L 276.854026 88.102448 
L 277.159 83.125342 
L 277.463973 169.510925 
L 277.768947 120.662169 
L 278.07392 134.097445 
L 278.378894 76.06889 
L 278.683867 138.210641 
L 278.988841 83.364011 
L 279.293815 139.829005 
L 279.598788 141.723412 
L 279.903762 156.285401 
L 280.208735 43.13094 
L 280.513709 126.796989 
L 280.818683 109.590405 
L 281.123656 199.178411 
L 281.733603 38.457386 
L 282.34355 192.066117 
L 282.648524 79.292957 
L 282.953498 88.865504 
L 283.258471 169.578871 
L 283.563445 113.511396 
L 283.868418 124.668582 
L 284.173392 148.311366 
L 284.478366 59.120592 
L 284.783339 139.628834 
L 285.088313 159.568515 
L 285.393286 86.111513 
L 285.69826 74.010715 
L 286.003233 143.245847 
L 286.308207 143.224574 
L 286.613181 99.009567 
L 286.918154 86.555841 
L 287.223128 165.453646 
L 287.528101 127.399518 
L 287.833075 70.096826 
L 288.138049 148.231234 
L 288.443022 101.921056 
L 288.747996 141.952759 
L 289.052969 136.726189 
L 289.357943 124.018617 
L 289.662916 142.310623 
L 289.96789 30.772302 
L 290.272864 142.623878 
L 290.577837 151.032545 
L 290.882811 90.719542 
L 291.187784 167.48303 
L 291.797732 65.920389 
L 292.102705 127.484447 
L 292.407679 93.237249 
L 292.712652 159.60476 
L 293.017626 69.948743 
L 293.322599 138.584037 
L 293.627573 160.468925 
L 293.932547 135.88474 
L 294.23752 45.025211 
L 294.542494 127.126753 
L 294.847467 105.016381 
L 295.152441 163.445875 
L 295.457415 116.193893 
L 295.762388 149.331104 
L 296.067362 74.940327 
L 296.372335 108.209448 
L 296.677309 110.11742 
L 296.982282 166.646757 
L 297.287256 88.135948 
L 297.897203 137.984152 
L 298.202177 85.840555 
L 298.50715 95.041794 
L 298.812124 140.410494 
L 299.117098 132.399697 
L 299.422071 132.725582 
L 299.727045 80.14047 
L 300.032018 105.61825 
L 300.336992 153.26855 
L 300.641965 131.29684 
L 300.946939 42.396411 
L 301.251913 177.652446 
L 301.556886 112.96118 
L 301.86186 131.900429 
L 302.166833 124.550632 
L 302.471807 100.493588 
L 302.776781 54.551947 
L 303.081754 159.172794 
L 303.386728 126.73903 
L 303.691701 77.921961 
L 303.996675 180.165964 
L 304.301648 108.497076 
L 304.606622 72.762589 
L 304.911596 157.265387 
L 305.216569 34.393642 
L 305.521543 179.958199 
L 305.826516 124.075187 
L 306.13149 112.643208 
L 306.436464 90.995298 
L 306.741437 129.583254 
L 307.046411 87.244461 
L 307.351384 108.812147 
L 307.656358 151.582195 
L 307.961331 90.679017 
L 308.266305 86.494184 
L 308.571279 183.677066 
L 308.876252 90.465048 
L 309.181226 124.312641 
L 309.486199 84.121349 
L 309.791173 107.841202 
L 310.096147 186.131248 
L 310.40112 98.944548 
L 310.706094 69.483801 
L 311.011067 166.611296 
L 311.316041 25.802996 
L 311.621014 136.382053 
L 311.925988 130.776538 
L 312.230962 164.560842 
L 312.535935 91.989228 
L 312.840909 72.858084 
L 313.145882 92.902303 
L 313.450856 153.616993 
L 313.75583 152.768784 
L 314.060803 56.267446 
L 314.365777 185.897898 
L 314.67075 97.299918 
L 314.975724 61.522108 
L 315.280697 97.830688 
L 315.585671 104.804924 
L 315.890645 155.568597 
L 316.195618 167.00795 
L 316.500592 105.613655 
L 316.805565 106.656936 
L 317.110539 60.344692 
L 317.720486 167.837889 
L 318.02546 51.836515 
L 318.330433 162.980504 
L 318.635407 66.648189 
L 319.245354 171.454906 
L 319.550328 32.423668 
L 319.855301 142.048884 
L 320.160275 75.62166 
L 320.465248 135.211818 
L 320.770222 116.027669 
L 321.075196 89.745753 
L 321.380169 143.776931 
L 321.685143 125.810997 
L 321.990116 65.552662 
L 322.600063 151.103087 
L 323.210011 129.8969 
L 323.514984 90.084151 
L 323.819958 86.448289 
L 324.124931 128.617251 
L 324.429905 114.167526 
L 324.734879 57.095143 
L 325.039852 126.246798 
L 325.344826 151.280184 
L 325.649799 82.460678 
L 325.954773 176.059891 
L 326.259746 68.361693 
L 326.56472 117.773271 
L 326.869694 127.297002 
L 327.174667 62.142184 
L 327.479641 152.697873 
L 327.784614 126.086023 
L 328.089588 77.541845 
L 328.394562 129.897578 
L 328.699535 50.060954 
L 329.004509 177.973652 
L 329.309482 63.039274 
L 329.614456 124.655046 
L 329.919429 88.634933 
L 330.529377 171.974777 
L 330.83435 117.280716 
L 331.139324 89.302698 
L 331.444297 75.087686 
L 331.749271 129.812771 
L 332.054245 76.035733 
L 332.359218 113.558412 
L 332.664192 94.394744 
L 332.969165 198.314376 
L 333.579112 24.303349 
L 333.884086 191.877746 
L 334.18906 96.327025 
L 334.494033 85.838018 
L 334.799007 103.276457 
L 335.10398 153.809195 
L 335.408954 62.46069 
L 335.713928 142.497134 
L 336.018901 131.111165 
L 336.628848 63.962193 
L 336.933822 130.716145 
L 337.238795 119.293365 
L 337.543769 134.482114 
L 337.848743 48.031758 
L 338.153716 185.527403 
L 338.45869 31.244043 
L 338.763663 160.611582 
L 339.373611 73.152789 
L 339.678584 134.042805 
L 339.983558 148.849456 
L 340.288531 48.239856 
L 340.593505 138.175067 
L 340.898478 111.859707 
L 341.203452 65.357511 
L 341.508426 181.223684 
L 341.813399 46.35466 
L 342.118373 184.312638 
L 342.423346 58.246132 
L 342.72832 130.058941 
L 343.033294 130.842979 
L 343.338267 92.964693 
L 343.643241 85.716512 
L 343.948214 109.554275 
L 344.253188 159.658626 
L 344.558161 37.166055 
L 344.863135 128.148926 
L 345.168109 155.323068 
L 345.473082 89.347387 
L 345.778056 76.399219 
L 346.083029 122.906057 
L 346.388003 75.676053 
L 346.692977 92.749698 
L 346.99795 174.124211 
L 347.302924 59.635502 
L 347.607897 157.286963 
L 347.912871 45.064985 
L 348.217844 189.316396 
L 348.522818 94.278327 
L 348.827792 132.09387 
L 349.132765 52.800218 
L 349.437739 144.052941 
L 349.742712 91.91315 
L 350.35266 111.700977 
L 350.657633 104.092294 
L 350.962607 143.155946 
L 351.572554 48.797041 
L 352.182501 135.629407 
L 352.487475 121.605013 
L 352.792448 139.328634 
L 353.097422 127.465253 
L 353.402395 104.753306 
L 353.707369 121.008034 
L 354.012343 50.257372 
L 354.317316 81.317969 
L 354.62229 171.782528 
L 354.927263 77.670315 
L 355.232237 116.867364 
L 355.537211 86.969329 
L 355.842184 81.353917 
L 356.147158 200.083799 
L 356.452131 33.172291 
L 356.757105 176.271518 
L 357.367052 69.068496 
L 357.672026 82.234471 
L 357.976999 79.297456 
L 358.281973 174.515717 
L 358.586946 41.18419 
L 358.89192 134.001851 
L 359.196894 133.843727 
L 359.501867 143.630993 
L 359.806841 107.983159 
L 360.111814 39.884524 
L 360.721761 161.707553 
L 361.026735 42.128667 
L 361.331709 168.831118 
L 361.941656 45.818963 
L 362.246629 174.109288 
L 362.856577 53.984329 
L 363.16155 124.010351 
L 363.466524 61.574437 
L 363.771497 139.232693 
L 364.076471 142.636397 
L 364.381444 78.714731 
L 364.686418 78.190671 
L 364.991392 115.295988 
L 365.296365 129.584323 
L 365.601339 97.089891 
L 365.906312 108.560193 
L 366.211286 100.151881 
L 366.51626 132.407214 
L 366.821233 149.908143 
L 367.126207 92.467153 
L 367.43118 125.58903 
L 367.736154 17.083636 
L 368.041127 133.837775 
L 368.346101 171.61974 
L 368.651075 67.052122 
L 368.956048 95.994761 
L 369.261022 94.970076 
L 369.565995 103.600913 
L 369.870969 169.177414 
L 370.175943 99.132436 
L 370.480916 92.765684 
L 371.090863 132.612943 
L 371.395837 43.702841 
L 371.70081 126.643458 
L 372.005784 118.583812 
L 372.310758 92.077889 
L 372.615731 131.362525 
L 372.920705 120.706712 
L 373.225678 82.360633 
L 373.530652 97.166002 
L 373.835626 58.855336 
L 374.140599 138.544758 
L 374.750546 88.165295 
L 375.05552 183.51929 
L 375.360493 18.294881 
L 375.665467 191.60538 
L 376.275414 37.488856 
L 376.580388 179.340436 
L 376.885361 76.495271 
L 377.190335 105.434507 
L 377.495309 73.000303 
L 377.800282 101.15319 
L 378.105256 159.856664 
L 378.105256 159.856664 
" clip-path="url(#p77fee7bef1)" style="fill: none; stroke: #1f77b4; stroke-width: 1.5; stroke-linecap: square"/>
   </g>
   <g id="line2d_16">
    <path d="M 73.741619 107.299596 
L 81.365959 107.414677 
L 88.990298 107.748247 
L 96.919612 108.318028 
L 105.153898 109.134031 
L 113.998132 110.238372 
L 123.757287 111.687509 
L 135.346283 113.643389 
L 154.559619 117.157371 
L 171.333166 120.131525 
L 182.312215 121.850693 
L 191.766396 123.10571 
L 200.305656 124.017762 
L 208.539943 124.670529 
L 216.469256 125.070876 
L 224.093596 125.234459 
L 231.717936 125.17687 
L 239.342275 124.899531 
L 247.271588 124.3854 
L 255.505875 123.622565 
L 264.045135 122.608415 
L 273.499317 121.25842 
L 284.478366 119.45732 
L 299.727045 116.707286 
L 322.905037 112.53666 
L 333.884086 110.800826 
L 343.338267 109.526872 
L 351.877527 108.594691 
L 360.111814 107.920395 
L 368.041127 107.497935 
L 375.665467 107.312368 
L 378.105256 107.299596 
L 378.105256 107.299596 
" clip-path="url(#p77fee7bef1)" style="fill: none; stroke: #ff7f0e; stroke-width: 1.5; stroke-linecap: square"/>
   </g>
   <g id="patch_3">
    <path d="M 58.523438 224.64 
L 58.523438 7.2 
" style="fill: none; stroke: #000000; stroke-width: 0.8; stroke-linejoin: miter; stroke-linecap: square"/>
   </g>
   <g id="patch_4">
    <path d="M 393.323438 224.64 
L 393.323438 7.2 
" style="fill: none; stroke: #000000; stroke-width: 0.8; stroke-linejoin: miter; stroke-linecap: square"/>
   </g>
   <g id="patch_5">
    <path d="M 58.523438 224.64 
L 393.323438 224.64 
" style="fill: none; stroke: #000000; stroke-width: 0.8; stroke-linejoin: miter; stroke-linecap: square"/>
   </g>
   <g id="patch_6">
    <path d="M 58.523438 7.2 
L 393.323438 7.2 
" style="fill: none; stroke: #000000; stroke-width: 0.8; stroke-linejoin: miter; stroke-linecap: square"/>
   </g>
   <g id="legend_1">
    <g id="patch_7">
     <path d="M 288.684375 219.64 
L 386.323438 219.64 
Q 388.323438 219.64 388.323438 217.64 
L 388.323438 189.28375 
Q 388.323438 187.28375 386.323438 187.28375 
L 288.684375 187.28375 
Q 286.684375 187.28375 286.684375 189.28375 
L 286.684375 217.64 
Q 286.684375 219.64 288.684375 219.64 
z
" style="fill: #ffffff; opacity: 0.8; stroke: #cccccc; stroke-linejoin: miter"/>
    </g>
    <g id="line2d_17">
     <path d="M 290.684375 195.382187 
L 300.684375 195.382187 
L 310.684375 195.382187 
" style="fill: none; stroke: #1f77b4; stroke-width: 1.5; stroke-linecap: square"/>
    </g>
    <g id="text_16">
     <!-- Noisy Data -->
     <g transform="translate(318.684375 198.882187)scale(0.1 -0.1)">
      <defs>
       <path id="DejaVuSans-4e" d="M 628 4666 
L 1478 4666 
L 3547 763 
L 3547 4666 
L 4159 4666 
L 4159 0 
L 3309 0 
L 1241 3903 
L 1241 0 
L 628 0 
L 628 4666 
z
" transform="scale(0.015625)"/>
       <path id="DejaVuSans-69" d="M 603 3500 
L 1178 3500 
L 1178 0 
L 603 0 
L 603 3500 
z
M 603 4863 
L 1178 4863 
L 1178 4134 
L 603 4134 
L 603 4863 
z
" transform="scale(0.015625)"/>
       <path id="DejaVuSans-73" d="M 2834 3397 
L 2834 2853 
Q 2591 2978 2328 3040 
Q 2066 3103 1784 3103 
Q 1356 3103 1142 2972 
Q 928 2841 928 2578 
Q 928 2378 1081 2264 
Q 1234 2150 1697 2047 
L 1894 2003 
Q 2506 1872 2764 1633 
Q 3022 1394 3022 966 
Q 3022 478 2636 193 
Q 2250 -91 1575 -91 
Q 1294 -91 989 -36 
Q 684 19 347 128 
L 347 722 
Q 666 556 975 473 
Q 1284 391 1588 391 
Q 1994 391 2212 530 
Q 2431 669 2431 922 
Q 2431 1156 2273 1281 
Q 2116 1406 1581 1522 
L 1381 1569 
Q 847 1681 609 1914 
Q 372 2147 372 2553 
Q 372 3047 722 3315 
Q 1072 3584 1716 3584 
Q 2034 3584 2315 3537 
Q 2597 3491 2834 3397 
z
" transform="scale(0.015625)"/>
       <path id="DejaVuSans-44" d="M 1259 4147 
L 1259 519 
L 2022 519 
Q 2988 519 3436 956 
Q 3884 1394 3884 2338 
Q 3884 3275 3436 3711 
Q 2988 4147 2022 4147 
L 1259 4147 
z
M 628 4666 
L 1925 4666 
Q 3281 4666 3915 4102 
Q 4550 3538 4550 2338 
Q 4550 1131 3912 565 
Q 3275 0 1925 0 
L 628 0 
L 628 4666 
z
" transform="scale(0.015625)"/>
       <path id="DejaVuSans-61" d="M 2194 1759 
Q 1497 1759 1228 1600 
Q 959 1441 959 1056 
Q 959 750 1161 570 
Q 1363 391 1709 391 
Q 2188 391 2477 730 
Q 2766 1069 2766 1631 
L 2766 1759 
L 2194 1759 
z
M 3341 1997 
L 3341 0 
L 2766 0 
L 2766 531 
Q 2569 213 2275 61 
Q 1981 -91 1556 -91 
Q 1019 -91 701 211 
Q 384 513 384 1019 
Q 384 1609 779 1909 
Q 1175 2209 1959 2209 
L 2766 2209 
L 2766 2266 
Q 2766 2663 2505 2880 
Q 2244 3097 1772 3097 
Q 1472 3097 1187 3025 
Q 903 2953 641 2809 
L 641 3341 
Q 956 3463 1253 3523 
Q 1550 3584 1831 3584 
Q 2591 3584 2966 3190 
Q 3341 2797 3341 1997 
z
" transform="scale(0.015625)"/>
       <path id="DejaVuSans-74" d="M 1172 4494 
L 1172 3500 
L 2356 3500 
L 2356 3053 
L 1172 3053 
L 1172 1153 
Q 1172 725 1289 603 
Q 1406 481 1766 481 
L 2356 481 
L 2356 0 
L 1766 0 
Q 1100 0 847 248 
Q 594 497 594 1153 
L 594 3053 
L 172 3053 
L 172 3500 
L 594 3500 
L 594 4494 
L 1172 4494 
z
" transform="scale(0.015625)"/>
      </defs>
      <use xlink:href="#DejaVuSans-4e"/>
      <use xlink:href="#DejaVuSans-6f" x="74.804688"/>
      <use xlink:href="#DejaVuSans-69" x="135.986328"/>
      <use xlink:href="#DejaVuSans-73" x="163.769531"/>
      <use xlink:href="#DejaVuSans-79" x="215.869141"/>
      <use xlink:href="#DejaVuSans-20" x="275.048828"/>
      <use xlink:href="#DejaVuSans-44" x="306.835938"/>
      <use xlink:href="#DejaVuSans-61" x="383.837891"/>
      <use xlink:href="#DejaVuSans-74" x="445.117188"/>
      <use xlink:href="#DejaVuSans-61" x="484.326172"/>
     </g>
    </g>
    <g id="line2d_18">
     <path d="M 290.684375 210.060312 
L 300.684375 210.060312 
L 310.684375 210.060312 
" style="fill: none; stroke: #ff7f0e; stroke-width: 1.5; stroke-linecap: square"/>
    </g>
    <g id="text_17">
     <!-- Smooth Data -->
     <g transform="translate(318.684375 213.560312)scale(0.1 -0.1)">
      <defs>
       <path id="DejaVuSans-6d" d="M 3328 2828 
Q 3544 3216 3844 3400 
Q 4144 3584 4550 3584 
Q 5097 3584 5394 3201 
Q 5691 2819 5691 2113 
L 5691 0 
L 5113 0 
L 5113 2094 
Q 5113 2597 4934 2840 
Q 4756 3084 4391 3084 
Q 3944 3084 3684 2787 
Q 3425 2491 3425 1978 
L 3425 0 
L 2847 0 
L 2847 2094 
Q 2847 2600 2669 2842 
Q 2491 3084 2119 3084 
Q 1678 3084 1418 2786 
Q 1159 2488 1159 1978 
L 1159 0 
L 581 0 
L 581 3500 
L 1159 3500 
L 1159 2956 
Q 1356 3278 1631 3431 
Q 1906 3584 2284 3584 
Q 2666 3584 2933 3390 
Q 3200 3197 3328 2828 
z
" transform="scale(0.015625)"/>
       <path id="DejaVuSans-68" d="M 3513 2113 
L 3513 0 
L 2938 0 
L 2938 2094 
Q 2938 2591 2744 2837 
Q 2550 3084 2163 3084 
Q 1697 3084 1428 2787 
Q 1159 2491 1159 1978 
L 1159 0 
L 581 0 
L 581 4863 
L 1159 4863 
L 1159 2956 
Q 1366 3272 1645 3428 
Q 1925 3584 2291 3584 
Q 2894 3584 3203 3211 
Q 3513 2838 3513 2113 
z
" transform="scale(0.015625)"/>
      </defs>
      <use xlink:href="#DejaVuSans-53"/>
      <use xlink:href="#DejaVuSans-6d" x="63.476562"/>
      <use xlink:href="#DejaVuSans-6f" x="160.888672"/>
      <use xlink:href="#DejaVuSans-6f" x="222.070312"/>
      <use xlink:href="#DejaVuSans-74" x="283.251953"/>
      <use xlink:href="#DejaVuSans-68" x="322.460938"/>
      <use xlink:href="#DejaVuSans-20" x="385.839844"/>
      <use xlink:href="#DejaVuSans-44" x="417.626953"/>
      <use xlink:href="#DejaVuSans-61" x="494.628906"/>
      <use xlink:href="#DejaVuSans-74" x="555.908203"/>
      <use xlink:href="#DejaVuSans-61" x="595.117188"/>
     </g>
    </g>
   </g>
  </g>
 </g>
 <defs>
  <clipPath id="p77fee7bef1">
   <rect x="58.523438" y="7.2" width="334.8" height="217.44"/>
  </clipPath>
 </defs>
</svg>
