<?xml version="1.0" encoding="utf-8" standalone="no"?>
<!DOCTYPE svg PUBLIC "-//W3C//DTD SVG 1.1//EN"
  "http://www.w3.org/Graphics/SVG/1.1/DTD/svg11.dtd">
<svg xmlns:xlink="http://www.w3.org/1999/xlink" width="380.482813pt" height="262.19625pt" viewBox="0 0 380.482813 262.19625" xmlns="http://www.w3.org/2000/svg" version="1.1">
 <metadata>
  <rdf:RDF xmlns:dc="http://purl.org/dc/elements/1.1/" xmlns:cc="http://creativecommons.org/ns#" xmlns:rdf="http://www.w3.org/1999/02/22-rdf-syntax-ns#">
   <cc:Work>
    <dc:type rdf:resource="http://purl.org/dc/dcmitype/StillImage"/>
    <dc:date>2022-07-20T10:47:42.919639</dc:date>
    <dc:format>image/svg+xml</dc:format>
    <dc:creator>
     <cc:Agent>
      <dc:title>Matplotlib v3.5.2, https://matplotlib.org/</dc:title>
     </cc:Agent>
    </dc:creator>
   </cc:Work>
  </rdf:RDF>
 </metadata>
 <defs>
  <style type="text/css">*{stroke-linejoin: round; stroke-linecap: butt}</style>
 </defs>
 <g id="figure_1">
  <g id="patch_1">
   <path d="M -0 262.19625 
L 380.482813 262.19625 
L 380.482813 0 
L -0 0 
L -0 262.19625 
z
" style="fill: none"/>
  </g>
  <g id="axes_1">
   <g id="patch_2">
    <path d="M 38.482813 224.64 
L 373.282813 224.64 
L 373.282813 7.2 
L 38.482813 7.2 
z
" style="fill: #ffffff"/>
   </g>
   <g id="matplotlib.axis_1">
    <g id="xtick_1">
     <g id="line2d_1">
      <defs>
       <path id="mb0e93c7628" d="M 0 0 
L 0 3.5 
" style="stroke: #000000; stroke-width: 0.8"/>
      </defs>
      <g>
       <use xlink:href="#mb0e93c7628" x="53.700994" y="224.64" style="stroke: #000000; stroke-width: 0.8"/>
      </g>
     </g>
     <g id="text_1">
      <!-- 0.0 -->
      <g transform="translate(45.749432 239.238437)scale(0.1 -0.1)">
       <defs>
        <path id="DejaVuSans-30" d="M 2034 4250 
Q 1547 4250 1301 3770 
Q 1056 3291 1056 2328 
Q 1056 1369 1301 889 
Q 1547 409 2034 409 
Q 2525 409 2770 889 
Q 3016 1369 3016 2328 
Q 3016 3291 2770 3770 
Q 2525 4250 2034 4250 
z
M 2034 4750 
Q 2819 4750 3233 4129 
Q 3647 3509 3647 2328 
Q 3647 1150 3233 529 
Q 2819 -91 2034 -91 
Q 1250 -91 836 529 
Q 422 1150 422 2328 
Q 422 3509 836 4129 
Q 1250 4750 2034 4750 
z
" transform="scale(0.015625)"/>
        <path id="DejaVuSans-2e" d="M 684 794 
L 1344 794 
L 1344 0 
L 684 0 
L 684 794 
z
" transform="scale(0.015625)"/>
       </defs>
       <use xlink:href="#DejaVuSans-30"/>
       <use xlink:href="#DejaVuSans-2e" x="63.623047"/>
       <use xlink:href="#DejaVuSans-30" x="95.410156"/>
      </g>
     </g>
    </g>
    <g id="xtick_2">
     <g id="line2d_2">
      <g>
       <use xlink:href="#mb0e93c7628" x="114.573722" y="224.64" style="stroke: #000000; stroke-width: 0.8"/>
      </g>
     </g>
     <g id="text_2">
      <!-- 0.2 -->
      <g transform="translate(106.622159 239.238437)scale(0.1 -0.1)">
       <defs>
        <path id="DejaVuSans-32" d="M 1228 531 
L 3431 531 
L 3431 0 
L 469 0 
L 469 531 
Q 828 903 1448 1529 
Q 2069 2156 2228 2338 
Q 2531 2678 2651 2914 
Q 2772 3150 2772 3378 
Q 2772 3750 2511 3984 
Q 2250 4219 1831 4219 
Q 1534 4219 1204 4116 
Q 875 4013 500 3803 
L 500 4441 
Q 881 4594 1212 4672 
Q 1544 4750 1819 4750 
Q 2544 4750 2975 4387 
Q 3406 4025 3406 3419 
Q 3406 3131 3298 2873 
Q 3191 2616 2906 2266 
Q 2828 2175 2409 1742 
Q 1991 1309 1228 531 
z
" transform="scale(0.015625)"/>
       </defs>
       <use xlink:href="#DejaVuSans-30"/>
       <use xlink:href="#DejaVuSans-2e" x="63.623047"/>
       <use xlink:href="#DejaVuSans-32" x="95.410156"/>
      </g>
     </g>
    </g>
    <g id="xtick_3">
     <g id="line2d_3">
      <g>
       <use xlink:href="#mb0e93c7628" x="175.446449" y="224.64" style="stroke: #000000; stroke-width: 0.8"/>
      </g>
     </g>
     <g id="text_3">
      <!-- 0.4 -->
      <g transform="translate(167.494886 239.238437)scale(0.1 -0.1)">
       <defs>
        <path id="DejaVuSans-34" d="M 2419 4116 
L 825 1625 
L 2419 1625 
L 2419 4116 
z
M 2253 4666 
L 3047 4666 
L 3047 1625 
L 3713 1625 
L 3713 1100 
L 3047 1100 
L 3047 0 
L 2419 0 
L 2419 1100 
L 313 1100 
L 313 1709 
L 2253 4666 
z
" transform="scale(0.015625)"/>
       </defs>
       <use xlink:href="#DejaVuSans-30"/>
       <use xlink:href="#DejaVuSans-2e" x="63.623047"/>
       <use xlink:href="#DejaVuSans-34" x="95.410156"/>
      </g>
     </g>
    </g>
    <g id="xtick_4">
     <g id="line2d_4">
      <g>
       <use xlink:href="#mb0e93c7628" x="236.319176" y="224.64" style="stroke: #000000; stroke-width: 0.8"/>
      </g>
     </g>
     <g id="text_4">
      <!-- 0.6 -->
      <g transform="translate(228.367614 239.238437)scale(0.1 -0.1)">
       <defs>
        <path id="DejaVuSans-36" d="M 2113 2584 
Q 1688 2584 1439 2293 
Q 1191 2003 1191 1497 
Q 1191 994 1439 701 
Q 1688 409 2113 409 
Q 2538 409 2786 701 
Q 3034 994 3034 1497 
Q 3034 2003 2786 2293 
Q 2538 2584 2113 2584 
z
M 3366 4563 
L 3366 3988 
Q 3128 4100 2886 4159 
Q 2644 4219 2406 4219 
Q 1781 4219 1451 3797 
Q 1122 3375 1075 2522 
Q 1259 2794 1537 2939 
Q 1816 3084 2150 3084 
Q 2853 3084 3261 2657 
Q 3669 2231 3669 1497 
Q 3669 778 3244 343 
Q 2819 -91 2113 -91 
Q 1303 -91 875 529 
Q 447 1150 447 2328 
Q 447 3434 972 4092 
Q 1497 4750 2381 4750 
Q 2619 4750 2861 4703 
Q 3103 4656 3366 4563 
z
" transform="scale(0.015625)"/>
       </defs>
       <use xlink:href="#DejaVuSans-30"/>
       <use xlink:href="#DejaVuSans-2e" x="63.623047"/>
       <use xlink:href="#DejaVuSans-36" x="95.410156"/>
      </g>
     </g>
    </g>
    <g id="xtick_5">
     <g id="line2d_5">
      <g>
       <use xlink:href="#mb0e93c7628" x="297.191903" y="224.64" style="stroke: #000000; stroke-width: 0.8"/>
      </g>
     </g>
     <g id="text_5">
      <!-- 0.8 -->
      <g transform="translate(289.240341 239.238437)scale(0.1 -0.1)">
       <defs>
        <path id="DejaVuSans-38" d="M 2034 2216 
Q 1584 2216 1326 1975 
Q 1069 1734 1069 1313 
Q 1069 891 1326 650 
Q 1584 409 2034 409 
Q 2484 409 2743 651 
Q 3003 894 3003 1313 
Q 3003 1734 2745 1975 
Q 2488 2216 2034 2216 
z
M 1403 2484 
Q 997 2584 770 2862 
Q 544 3141 544 3541 
Q 544 4100 942 4425 
Q 1341 4750 2034 4750 
Q 2731 4750 3128 4425 
Q 3525 4100 3525 3541 
Q 3525 3141 3298 2862 
Q 3072 2584 2669 2484 
Q 3125 2378 3379 2068 
Q 3634 1759 3634 1313 
Q 3634 634 3220 271 
Q 2806 -91 2034 -91 
Q 1263 -91 848 271 
Q 434 634 434 1313 
Q 434 1759 690 2068 
Q 947 2378 1403 2484 
z
M 1172 3481 
Q 1172 3119 1398 2916 
Q 1625 2713 2034 2713 
Q 2441 2713 2670 2916 
Q 2900 3119 2900 3481 
Q 2900 3844 2670 4047 
Q 2441 4250 2034 4250 
Q 1625 4250 1398 4047 
Q 1172 3844 1172 3481 
z
" transform="scale(0.015625)"/>
       </defs>
       <use xlink:href="#DejaVuSans-30"/>
       <use xlink:href="#DejaVuSans-2e" x="63.623047"/>
       <use xlink:href="#DejaVuSans-38" x="95.410156"/>
      </g>
     </g>
    </g>
    <g id="xtick_6">
     <g id="line2d_6">
      <g>
       <use xlink:href="#mb0e93c7628" x="358.064631" y="224.64" style="stroke: #000000; stroke-width: 0.8"/>
      </g>
     </g>
     <g id="text_6">
      <!-- 1.0 -->
      <g transform="translate(350.113068 239.238437)scale(0.1 -0.1)">
       <defs>
        <path id="DejaVuSans-31" d="M 794 531 
L 1825 531 
L 1825 4091 
L 703 3866 
L 703 4441 
L 1819 4666 
L 2450 4666 
L 2450 531 
L 3481 531 
L 3481 0 
L 794 0 
L 794 531 
z
" transform="scale(0.015625)"/>
       </defs>
       <use xlink:href="#DejaVuSans-31"/>
       <use xlink:href="#DejaVuSans-2e" x="63.623047"/>
       <use xlink:href="#DejaVuSans-30" x="95.410156"/>
      </g>
     </g>
    </g>
    <g id="text_7">
     <!-- Time, s -->
     <g transform="translate(187.866406 252.916562)scale(0.1 -0.1)">
      <defs>
       <path id="DejaVuSans-54" d="M -19 4666 
L 3928 4666 
L 3928 4134 
L 2272 4134 
L 2272 0 
L 1638 0 
L 1638 4134 
L -19 4134 
L -19 4666 
z
" transform="scale(0.015625)"/>
       <path id="DejaVuSans-69" d="M 603 3500 
L 1178 3500 
L 1178 0 
L 603 0 
L 603 3500 
z
M 603 4863 
L 1178 4863 
L 1178 4134 
L 603 4134 
L 603 4863 
z
" transform="scale(0.015625)"/>
       <path id="DejaVuSans-6d" d="M 3328 2828 
Q 3544 3216 3844 3400 
Q 4144 3584 4550 3584 
Q 5097 3584 5394 3201 
Q 5691 2819 5691 2113 
L 5691 0 
L 5113 0 
L 5113 2094 
Q 5113 2597 4934 2840 
Q 4756 3084 4391 3084 
Q 3944 3084 3684 2787 
Q 3425 2491 3425 1978 
L 3425 0 
L 2847 0 
L 2847 2094 
Q 2847 2600 2669 2842 
Q 2491 3084 2119 3084 
Q 1678 3084 1418 2786 
Q 1159 2488 1159 1978 
L 1159 0 
L 581 0 
L 581 3500 
L 1159 3500 
L 1159 2956 
Q 1356 3278 1631 3431 
Q 1906 3584 2284 3584 
Q 2666 3584 2933 3390 
Q 3200 3197 3328 2828 
z
" transform="scale(0.015625)"/>
       <path id="DejaVuSans-65" d="M 3597 1894 
L 3597 1613 
L 953 1613 
Q 991 1019 1311 708 
Q 1631 397 2203 397 
Q 2534 397 2845 478 
Q 3156 559 3463 722 
L 3463 178 
Q 3153 47 2828 -22 
Q 2503 -91 2169 -91 
Q 1331 -91 842 396 
Q 353 884 353 1716 
Q 353 2575 817 3079 
Q 1281 3584 2069 3584 
Q 2775 3584 3186 3129 
Q 3597 2675 3597 1894 
z
M 3022 2063 
Q 3016 2534 2758 2815 
Q 2500 3097 2075 3097 
Q 1594 3097 1305 2825 
Q 1016 2553 972 2059 
L 3022 2063 
z
" transform="scale(0.015625)"/>
       <path id="DejaVuSans-2c" d="M 750 794 
L 1409 794 
L 1409 256 
L 897 -744 
L 494 -744 
L 750 256 
L 750 794 
z
" transform="scale(0.015625)"/>
       <path id="DejaVuSans-20" transform="scale(0.015625)"/>
       <path id="DejaVuSans-73" d="M 2834 3397 
L 2834 2853 
Q 2591 2978 2328 3040 
Q 2066 3103 1784 3103 
Q 1356 3103 1142 2972 
Q 928 2841 928 2578 
Q 928 2378 1081 2264 
Q 1234 2150 1697 2047 
L 1894 2003 
Q 2506 1872 2764 1633 
Q 3022 1394 3022 966 
Q 3022 478 2636 193 
Q 2250 -91 1575 -91 
Q 1294 -91 989 -36 
Q 684 19 347 128 
L 347 722 
Q 666 556 975 473 
Q 1284 391 1588 391 
Q 1994 391 2212 530 
Q 2431 669 2431 922 
Q 2431 1156 2273 1281 
Q 2116 1406 1581 1522 
L 1381 1569 
Q 847 1681 609 1914 
Q 372 2147 372 2553 
Q 372 3047 722 3315 
Q 1072 3584 1716 3584 
Q 2034 3584 2315 3537 
Q 2597 3491 2834 3397 
z
" transform="scale(0.015625)"/>
      </defs>
      <use xlink:href="#DejaVuSans-54"/>
      <use xlink:href="#DejaVuSans-69" x="57.958984"/>
      <use xlink:href="#DejaVuSans-6d" x="85.742188"/>
      <use xlink:href="#DejaVuSans-65" x="183.154297"/>
      <use xlink:href="#DejaVuSans-2c" x="244.677734"/>
      <use xlink:href="#DejaVuSans-20" x="276.464844"/>
      <use xlink:href="#DejaVuSans-73" x="308.251953"/>
     </g>
    </g>
   </g>
   <g id="matplotlib.axis_2">
    <g id="ytick_1">
     <g id="line2d_7">
      <defs>
       <path id="meeb487ecfc" d="M 0 0 
L -3.5 0 
" style="stroke: #000000; stroke-width: 0.8"/>
      </defs>
      <g>
       <use xlink:href="#meeb487ecfc" x="38.482813" y="214.923829" style="stroke: #000000; stroke-width: 0.8"/>
      </g>
     </g>
     <g id="text_8">
      <!-- −1.0 -->
      <g transform="translate(7.2 218.723048)scale(0.1 -0.1)">
       <defs>
        <path id="DejaVuSans-2212" d="M 678 2272 
L 4684 2272 
L 4684 1741 
L 678 1741 
L 678 2272 
z
" transform="scale(0.015625)"/>
       </defs>
       <use xlink:href="#DejaVuSans-2212"/>
       <use xlink:href="#DejaVuSans-31" x="83.789062"/>
       <use xlink:href="#DejaVuSans-2e" x="147.412109"/>
       <use xlink:href="#DejaVuSans-30" x="179.199219"/>
      </g>
     </g>
    </g>
    <g id="ytick_2">
     <g id="line2d_8">
      <g>
       <use xlink:href="#meeb487ecfc" x="38.482813" y="175.100211" style="stroke: #000000; stroke-width: 0.8"/>
      </g>
     </g>
     <g id="text_9">
      <!-- −0.5 -->
      <g transform="translate(7.2 178.89943)scale(0.1 -0.1)">
       <defs>
        <path id="DejaVuSans-35" d="M 691 4666 
L 3169 4666 
L 3169 4134 
L 1269 4134 
L 1269 2991 
Q 1406 3038 1543 3061 
Q 1681 3084 1819 3084 
Q 2600 3084 3056 2656 
Q 3513 2228 3513 1497 
Q 3513 744 3044 326 
Q 2575 -91 1722 -91 
Q 1428 -91 1123 -41 
Q 819 9 494 109 
L 494 744 
Q 775 591 1075 516 
Q 1375 441 1709 441 
Q 2250 441 2565 725 
Q 2881 1009 2881 1497 
Q 2881 1984 2565 2268 
Q 2250 2553 1709 2553 
Q 1456 2553 1204 2497 
Q 953 2441 691 2322 
L 691 4666 
z
" transform="scale(0.015625)"/>
       </defs>
       <use xlink:href="#DejaVuSans-2212"/>
       <use xlink:href="#DejaVuSans-30" x="83.789062"/>
       <use xlink:href="#DejaVuSans-2e" x="147.412109"/>
       <use xlink:href="#DejaVuSans-35" x="179.199219"/>
      </g>
     </g>
    </g>
    <g id="ytick_3">
     <g id="line2d_9">
      <g>
       <use xlink:href="#meeb487ecfc" x="38.482813" y="135.276592" style="stroke: #000000; stroke-width: 0.8"/>
      </g>
     </g>
     <g id="text_10">
      <!-- 0.0 -->
      <g transform="translate(15.579688 139.075811)scale(0.1 -0.1)">
       <use xlink:href="#DejaVuSans-30"/>
       <use xlink:href="#DejaVuSans-2e" x="63.623047"/>
       <use xlink:href="#DejaVuSans-30" x="95.410156"/>
      </g>
     </g>
    </g>
    <g id="ytick_4">
     <g id="line2d_10">
      <g>
       <use xlink:href="#meeb487ecfc" x="38.482813" y="95.452973" style="stroke: #000000; stroke-width: 0.8"/>
      </g>
     </g>
     <g id="text_11">
      <!-- 0.5 -->
      <g transform="translate(15.579688 99.252192)scale(0.1 -0.1)">
       <use xlink:href="#DejaVuSans-30"/>
       <use xlink:href="#DejaVuSans-2e" x="63.623047"/>
       <use xlink:href="#DejaVuSans-35" x="95.410156"/>
      </g>
     </g>
    </g>
    <g id="ytick_5">
     <g id="line2d_11">
      <g>
       <use xlink:href="#meeb487ecfc" x="38.482813" y="55.629355" style="stroke: #000000; stroke-width: 0.8"/>
      </g>
     </g>
     <g id="text_12">
      <!-- 1.0 -->
      <g transform="translate(15.579688 59.428573)scale(0.1 -0.1)">
       <use xlink:href="#DejaVuSans-31"/>
       <use xlink:href="#DejaVuSans-2e" x="63.623047"/>
       <use xlink:href="#DejaVuSans-30" x="95.410156"/>
      </g>
     </g>
    </g>
    <g id="ytick_6">
     <g id="line2d_12">
      <g>
       <use xlink:href="#meeb487ecfc" x="38.482813" y="15.805736" style="stroke: #000000; stroke-width: 0.8"/>
      </g>
     </g>
     <g id="text_13">
      <!-- 1.5 -->
      <g transform="translate(15.579688 19.604955)scale(0.1 -0.1)">
       <use xlink:href="#DejaVuSans-31"/>
       <use xlink:href="#DejaVuSans-2e" x="63.623047"/>
       <use xlink:href="#DejaVuSans-35" x="95.410156"/>
      </g>
     </g>
    </g>
   </g>
   <g id="line2d_13">
    <path d="M 53.700994 114.611519 
L 54.310331 61.989821 
L 54.614999 51.253018 
L 54.919668 18.742922 
L 55.224336 53.760099 
L 55.529004 49.33631 
L 55.833672 63.682677 
L 56.138341 115.06354 
L 56.443009 136.476899 
L 56.747677 187.074292 
L 57.357014 201.023593 
L 57.966351 188.389779 
L 59.185024 44.378915 
L 59.489692 47.916669 
L 59.79436 40.939985 
L 60.099029 20.977264 
L 60.708365 81.663258 
L 61.317702 150.840662 
L 61.62237 153.681542 
L 61.927039 171.555001 
L 62.231707 196.536009 
L 62.536375 177.40655 
L 62.841043 177.612036 
L 63.45038 108.90882 
L 63.755048 77.249131 
L 64.059717 62.034115 
L 64.364385 28.874118 
L 64.669053 39.442409 
L 64.973722 43.322873 
L 65.27839 62.670564 
L 65.583058 91.330011 
L 65.887727 95.390866 
L 66.192395 149.935354 
L 66.497063 158.560408 
L 66.801731 181.902867 
L 67.411068 177.873458 
L 67.715736 188.345736 
L 68.020405 166.365337 
L 68.93441 74.40625 
L 69.543746 24.26063 
L 69.848414 55.160922 
L 70.153083 48.974454 
L 70.457751 60.393265 
L 71.067088 142.343544 
L 71.371756 160.068174 
L 71.676424 196.383575 
L 71.981093 182.604586 
L 72.285761 200.743147 
L 72.895098 139.81374 
L 73.199766 118.38691 
L 73.504434 116.12979 
L 73.809102 74.472494 
L 74.418439 38.059836 
L 74.723107 50.159907 
L 75.332444 86.491644 
L 75.637112 94.298862 
L 75.941781 141.207638 
L 76.246449 152.219965 
L 76.551117 190.054403 
L 76.855785 192.961877 
L 77.160454 205.277562 
L 77.465122 198.735147 
L 77.76979 160.379066 
L 78.074459 139.17068 
L 78.683795 83.41594 
L 78.988464 62.939736 
L 79.293132 26.334436 
L 79.5978 44.801637 
L 79.902469 32.110492 
L 80.207137 79.83723 
L 80.511805 89.746884 
L 81.121142 165.054475 
L 81.42581 162.068627 
L 81.730478 178.322646 
L 82.035147 210.817838 
L 82.339815 174.286409 
L 82.644483 168.498649 
L 83.863156 61.609654 
L 84.167825 45.667369 
L 84.472493 21.955218 
L 84.777161 50.550601 
L 85.08183 62.011206 
L 85.691166 104.60323 
L 85.995835 148.084474 
L 86.605171 191.406103 
L 86.90984 177.194143 
L 87.214508 196.654334 
L 87.823844 119.94597 
L 88.128513 102.103428 
L 88.433181 70.46529 
L 88.737849 61.907126 
L 89.042518 24.196022 
L 89.347186 38.482637 
L 89.651854 42.124664 
L 89.956523 62.025053 
L 90.261191 108.439608 
L 90.565859 121.547174 
L 91.175196 181.956284 
L 91.784532 199.193306 
L 92.089201 185.211327 
L 92.393869 185.557426 
L 92.698537 130.428364 
L 93.003206 119.965569 
L 93.307874 101.482803 
L 93.612542 74.277657 
L 93.917211 30.706843 
L 94.221879 34.263023 
L 94.526547 48.911556 
L 94.831215 57.147766 
L 95.135884 92.13037 
L 95.440552 111.281585 
L 96.049889 185.194276 
L 96.354557 178.705463 
L 96.659225 187.486526 
L 97.268562 159.413981 
L 97.57323 134.305621 
L 97.877898 134.080425 
L 98.182567 78.962759 
L 98.487235 77.097953 
L 98.791903 22.660012 
L 99.096572 26.873889 
L 99.40124 21.664108 
L 99.705908 65.505378 
L 100.010577 73.982103 
L 100.315245 130.694051 
L 100.619913 135.635257 
L 100.924582 172.319433 
L 101.22925 193.051518 
L 101.533918 205.144622 
L 101.838586 182.836149 
L 102.143255 185.233888 
L 102.447923 133.918731 
L 102.752591 110.34703 
L 103.361928 77.127196 
L 104.275933 20.778511 
L 104.88527 73.73041 
L 105.189938 128.155687 
L 105.494606 142.506795 
L 106.103943 182.908848 
L 106.408611 181.889103 
L 106.713279 205.079802 
L 107.017948 159.158239 
L 107.322616 148.6079 
L 107.627284 105.051146 
L 108.236621 60.761705 
L 108.845957 43.408775 
L 109.150626 48.908273 
L 109.455294 49.964679 
L 109.759962 95.287126 
L 110.064631 104.585814 
L 110.673967 175.812164 
L 110.978636 179.687552 
L 111.283304 207.706427 
L 111.892641 161.217703 
L 112.501977 143.718151 
L 112.806645 83.67098 
L 113.111314 77.46641 
L 113.415982 41.349034 
L 113.72065 39.307558 
L 114.025319 54.244672 
L 114.329987 51.56203 
L 114.634655 56.540196 
L 114.939324 122.185704 
L 115.853328 172.954032 
L 116.157997 176.048117 
L 116.462665 184.492937 
L 116.767333 170.400774 
L 117.37667 122.493344 
L 117.986007 53.39731 
L 118.290675 46.109387 
L 118.595343 53.461578 
L 118.900012 49.818608 
L 119.20468 58.219301 
L 119.509348 51.930372 
L 119.814016 105.896656 
L 120.118685 139.279475 
L 120.423353 154.437294 
L 121.03269 206.372978 
L 121.337358 204.794261 
L 122.251363 143.201302 
L 122.860699 83.888579 
L 123.165368 66.02016 
L 123.470036 31.170895 
L 123.774704 20.223745 
L 124.079373 42.810441 
L 124.688709 98.275676 
L 124.993378 113.092462 
L 125.298046 151.794105 
L 126.212051 211.643443 
L 126.821387 159.226749 
L 127.430724 111.265701 
L 127.735392 92.826735 
L 128.040061 51.329979 
L 128.344729 50.443571 
L 128.649397 17.593494 
L 128.954066 36.760872 
L 129.258734 47.497426 
L 129.563402 78.506295 
L 129.86807 136.286102 
L 130.172739 168.696013 
L 130.477407 186.722484 
L 130.782075 196.22492 
L 131.086744 195.663253 
L 132.000749 124.789594 
L 132.305417 123.213593 
L 132.914754 51.620935 
L 133.219422 48.651974 
L 133.52409 24.007922 
L 133.828758 53.83958 
L 134.133427 50.934122 
L 134.438095 70.790335 
L 135.047432 154.296197 
L 135.3521 174.36212 
L 135.656768 171.690599 
L 135.961437 209.125864 
L 136.266105 174.490763 
L 136.570773 163.950156 
L 136.875441 131.507935 
L 137.18011 117.241412 
L 137.484778 65.212673 
L 137.789446 45.951539 
L 138.094115 59.352446 
L 138.398783 41.639226 
L 138.703451 51.840793 
L 139.00812 52.274218 
L 139.312788 71.061125 
L 140.226793 164.429817 
L 140.531461 197.366654 
L 140.836129 214.756364 
L 141.140798 208.699478 
L 141.445466 162.180872 
L 141.750134 158.046046 
L 142.359471 90.350837 
L 142.968808 41.264388 
L 143.273476 43.893095 
L 143.578144 59.064872 
L 143.882812 58.175461 
L 144.187481 83.358677 
L 144.492149 94.598008 
L 144.796817 155.133523 
L 145.101486 174.733507 
L 145.406154 171.136753 
L 145.710822 213.893306 
L 146.929496 116.292309 
L 147.538832 55.561616 
L 147.8435 30.289621 
L 148.148169 38.066433 
L 148.452837 35.04245 
L 149.67151 139.754836 
L 149.976179 185.705135 
L 150.280847 194.757469 
L 150.585515 179.1635 
L 150.890184 172.964861 
L 151.194852 171.835284 
L 151.49952 149.0063 
L 151.804188 142.265325 
L 152.108857 86.510816 
L 152.718193 38.718898 
L 153.022862 42.400308 
L 153.32753 22.469517 
L 153.936867 94.52954 
L 154.546203 128.992943 
L 155.460208 213.564692 
L 155.764876 203.151193 
L 156.069545 170.958513 
L 156.374213 154.60067 
L 156.98355 85.496987 
L 157.288218 69.987226 
L 157.592886 44.506436 
L 157.897555 41.824799 
L 158.506891 69.19258 
L 159.420896 145.012056 
L 159.725564 146.85528 
L 160.334901 196.643394 
L 160.639569 196.603488 
L 161.858242 108.793707 
L 162.162911 64.283278 
L 162.467579 54.281491 
L 162.772247 38.001858 
L 163.076916 44.134138 
L 163.381584 53.830328 
L 163.686252 56.272614 
L 163.990921 107.166559 
L 164.295589 127.922954 
L 164.600257 163.18917 
L 164.904926 179.627293 
L 165.209594 211.140894 
L 165.514262 184.159304 
L 165.81893 195.830413 
L 166.123599 148.380927 
L 166.428267 146.70866 
L 166.732935 101.609543 
L 167.342272 50.149721 
L 167.64694 50.665939 
L 167.951609 42.060052 
L 168.256277 52.538792 
L 169.170282 126.695048 
L 169.779618 159.73424 
L 170.084287 207.20009 
L 170.388955 184.852951 
L 170.693623 189.225312 
L 170.998292 149.700934 
L 171.30296 128.527126 
L 171.607628 95.441266 
L 171.912297 94.162082 
L 172.216965 49.145784 
L 172.521633 27.005975 
L 172.826301 40.269005 
L 173.13097 64.466442 
L 173.435638 62.999496 
L 174.044975 116.594445 
L 174.349643 169.499126 
L 174.654311 159.501602 
L 175.263648 182.557565 
L 175.568316 176.711054 
L 176.177653 139.850396 
L 176.482321 126.798523 
L 177.091658 40.194611 
L 177.396326 49.777988 
L 177.700994 24.171049 
L 178.005663 31.897105 
L 178.614999 72.741122 
L 179.224336 160.342668 
L 179.529004 170.151441 
L 180.138341 194.22144 
L 180.443009 201.768757 
L 180.747677 171.694815 
L 181.052346 156.584462 
L 181.357014 99.636548 
L 181.966351 53.73691 
L 182.271019 57.03961 
L 182.575687 35.348644 
L 182.880355 37.761011 
L 183.185024 43.79538 
L 183.79436 101.201529 
L 184.099029 141.561548 
L 184.403697 166.524075 
L 184.708365 172.402596 
L 185.013034 201.73385 
L 185.317702 185.469572 
L 185.62237 189.96805 
L 185.927039 162.319871 
L 186.231707 107.806319 
L 186.536375 93.329159 
L 186.841043 40.842823 
L 187.145712 46.672122 
L 187.755048 30.008593 
L 188.669053 117.183091 
L 188.973722 133.076636 
L 189.27839 165.121594 
L 189.583058 173.792858 
L 189.887727 211.241904 
L 190.192395 177.812969 
L 190.497063 175.776075 
L 190.801731 133.466012 
L 191.411068 97.422033 
L 191.715736 50.460232 
L 192.020405 54.57742 
L 192.325073 27.006125 
L 192.629741 30.040716 
L 193.239078 98.73132 
L 193.543746 109.203665 
L 194.153083 168.002639 
L 194.457751 202.136416 
L 194.762419 183.169461 
L 195.067088 177.606794 
L 195.371756 164.967062 
L 195.676424 169.323375 
L 195.981093 105.012659 
L 196.285761 105.117306 
L 196.590429 66.968882 
L 196.895098 61.989046 
L 197.199766 38.432427 
L 197.504434 36.964306 
L 198.113771 93.975959 
L 198.418439 89.18628 
L 199.027776 161.941598 
L 199.332444 182.95204 
L 199.637112 191.418061 
L 199.941781 207.011895 
L 200.246449 169.101503 
L 200.551117 158.50198 
L 200.855785 135.564336 
L 201.160454 98.524898 
L 201.76979 50.216733 
L 202.074459 56.120145 
L 202.683795 30.89305 
L 202.988464 53.418777 
L 203.293132 100.844116 
L 203.5978 121.289443 
L 203.902469 169.548328 
L 204.207137 165.541646 
L 204.511805 181.372438 
L 204.816473 207.319627 
L 205.121142 170.105597 
L 206.339815 91.173626 
L 206.644483 53.68739 
L 207.25382 17.487217 
L 207.558488 54.382261 
L 207.863156 55.976905 
L 208.167825 83.623461 
L 208.472493 124.823826 
L 208.777161 139.434596 
L 209.08183 180.650621 
L 209.691166 198.691781 
L 209.995835 174.959295 
L 210.300503 175.210334 
L 210.90984 97.243506 
L 211.214508 59.887468 
L 211.519176 43.118738 
L 211.823844 18.949255 
L 212.128513 28.969057 
L 212.433181 61.056874 
L 212.737849 72.325982 
L 213.042518 101.727771 
L 213.347186 120.379654 
L 213.651854 172.638201 
L 213.956523 173.04316 
L 214.261191 201.689584 
L 214.565859 174.968044 
L 214.870527 189.860087 
L 215.175196 170.409823 
L 215.784532 96.291794 
L 216.393869 42.495462 
L 217.003206 26.757726 
L 217.307874 61.553544 
L 217.612542 75.92588 
L 217.917211 78.217166 
L 218.526547 162.687363 
L 218.831215 180.219893 
L 219.135884 205.113985 
L 219.74522 178.556997 
L 220.049889 159.133532 
L 220.659225 95.960318 
L 220.963894 65.715411 
L 221.268562 66.232293 
L 221.57323 36.073631 
L 221.877898 35.141341 
L 222.182567 40.277044 
L 222.487235 66.710856 
L 222.791903 71.782328 
L 223.096572 101.420718 
L 223.40124 158.050247 
L 224.010577 182.691193 
L 224.315245 200.96578 
L 224.924582 156.762504 
L 225.22925 151.702825 
L 226.143255 61.62233 
L 226.447923 50.936686 
L 226.752591 25.036968 
L 227.05726 38.591394 
L 227.666596 81.431673 
L 227.971265 133.336409 
L 228.580601 171.219613 
L 228.88527 171.27011 
L 229.189938 201.805556 
L 229.494606 197.887683 
L 230.103943 128.255192 
L 230.408611 125.758122 
L 230.713279 94.997057 
L 231.017948 48.412023 
L 231.322616 26.935025 
L 231.627284 46.815942 
L 231.931953 36.059834 
L 232.236621 41.745661 
L 232.541289 80.406873 
L 232.845957 95.571595 
L 233.455294 163.353649 
L 233.759962 171.793069 
L 234.064631 188.893183 
L 234.673967 166.260074 
L 234.978636 150.537734 
L 235.283304 120.845897 
L 235.587972 77.110088 
L 236.197309 26.712489 
L 236.501977 42.964778 
L 236.806645 38.739072 
L 237.111314 60.429632 
L 237.415982 62.923848 
L 237.72065 111.085349 
L 238.025319 133.094602 
L 238.329987 180.090484 
L 238.634655 167.00513 
L 238.939324 190.047717 
L 239.243992 187.112357 
L 239.54866 191.943897 
L 240.157997 136.986974 
L 240.462665 83.102349 
L 240.767333 71.528197 
L 241.072002 38.798194 
L 241.37667 48.380871 
L 241.681338 18.683626 
L 241.986007 71.627179 
L 242.290675 75.640584 
L 242.900012 134.426059 
L 243.20468 182.774265 
L 243.509348 179.107428 
L 243.814016 190.157304 
L 244.118685 196.515073 
L 244.423353 179.759397 
L 245.642026 71.448326 
L 245.946695 51.925223 
L 246.251363 50.045276 
L 246.556031 41.433456 
L 246.860699 48.115906 
L 247.165368 67.500012 
L 247.470036 105.622059 
L 248.688709 185.935805 
L 248.993378 182.148521 
L 249.298046 184.424131 
L 249.907383 150.468861 
L 250.212051 82.606243 
L 250.516719 56.470996 
L 251.126056 54.603528 
L 251.430724 35.567208 
L 252.040061 58.995431 
L 252.649397 143.974 
L 252.954066 150.303769 
L 253.258734 173.486039 
L 253.563402 205.475347 
L 253.86807 195.771764 
L 254.172739 199.828666 
L 254.477407 172.304491 
L 254.782075 114.820159 
L 255.086744 94.480075 
L 255.391412 91.8863 
L 256.000749 24.983704 
L 256.305417 17.806342 
L 256.610085 36.17745 
L 256.914754 83.426809 
L 257.219422 88.445035 
L 257.52409 113.344902 
L 257.828758 160.249815 
L 258.133427 169.428781 
L 258.438095 173.068167 
L 258.742763 181.062557 
L 259.047432 197.298196 
L 260.570773 51.789523 
L 260.875441 44.999613 
L 261.18011 32.334379 
L 261.484778 26.286518 
L 261.789446 65.778419 
L 262.094115 85.883865 
L 262.398783 136.476527 
L 263.00812 164.786254 
L 263.312788 179.431594 
L 263.617456 202.120107 
L 263.922125 203.932329 
L 264.226793 187.63768 
L 264.531461 129.964902 
L 264.836129 95.64691 
L 266.054803 19.551685 
L 266.359471 26.980243 
L 266.664139 57.574105 
L 266.968808 72.162721 
L 267.578144 152.457811 
L 268.187481 204.038872 
L 268.492149 196.495816 
L 268.796817 169.094729 
L 269.101486 166.117526 
L 269.406154 139.683298 
L 269.710822 128.865595 
L 270.015491 65.841541 
L 270.320159 54.958474 
L 270.624827 49.080828 
L 270.929496 28.766531 
L 271.234164 29.703642 
L 273.062174 193.905665 
L 273.366842 180.633961 
L 273.67151 209.203087 
L 273.976179 153.525302 
L 274.280847 150.484816 
L 274.585515 133.444889 
L 274.890184 98.829409 
L 275.194852 51.015419 
L 275.49952 26.544613 
L 275.804188 35.785241 
L 276.108857 36.963612 
L 276.413525 37.007401 
L 276.718193 92.509576 
L 277.32753 132.631631 
L 277.632198 180.22036 
L 278.241535 178.19068 
L 278.546203 172.990994 
L 278.850871 186.687196 
L 279.15554 159.48587 
L 279.460208 115.317191 
L 279.764876 98.516259 
L 280.069545 69.285552 
L 280.374213 59.843228 
L 280.678881 31.821612 
L 281.288218 67.81589 
L 281.897555 100.526583 
L 282.202223 136.871922 
L 282.506891 156.527864 
L 282.811559 194.41565 
L 283.116228 193.49947 
L 283.420896 200.133957 
L 283.725564 168.754576 
L 284.030233 151.435573 
L 284.334901 106.35637 
L 284.639569 101.41275 
L 284.944238 49.603183 
L 285.248906 62.046588 
L 285.553574 24.500365 
L 285.858242 54.040496 
L 286.162911 52.885781 
L 286.772247 98.616793 
L 287.076916 147.51141 
L 287.381584 176.466749 
L 287.686252 176.765357 
L 287.990921 180.151208 
L 288.295589 185.064382 
L 288.904926 157.580963 
L 289.209594 109.91396 
L 289.514262 97.358083 
L 289.81893 72.63532 
L 290.123599 37.168078 
L 290.428267 47.471519 
L 290.732935 46.274866 
L 291.342272 67.686783 
L 291.951609 140.13554 
L 292.560945 192.38847 
L 292.865613 193.038204 
L 293.170282 196.982863 
L 293.47495 181.45117 
L 293.779618 140.541223 
L 294.388955 107.399114 
L 294.693623 56.138024 
L 294.998292 66.226954 
L 295.30296 42.256914 
L 295.607628 36.094337 
L 295.912297 52.739541 
L 296.216965 59.02061 
L 296.826301 123.4158 
L 297.13097 140.032116 
L 297.435638 185.576817 
L 297.740306 209.228113 
L 298.044975 208.77398 
L 298.349643 182.611299 
L 298.654311 173.562149 
L 299.263648 112.860837 
L 299.872984 34.348222 
L 300.177653 26.756125 
L 300.482321 47.412619 
L 300.786989 41.812494 
L 301.396326 112.723296 
L 301.700994 107.031318 
L 302.005663 141.752701 
L 302.310331 160.400623 
L 302.614999 202.890262 
L 302.919668 200.241395 
L 303.224336 201.158707 
L 303.833672 128.800363 
L 304.138341 99.718759 
L 304.443009 89.738214 
L 304.747677 64.208847 
L 305.052346 21.764379 
L 305.357014 54.845573 
L 305.661682 36.290066 
L 305.966351 68.006918 
L 306.271019 74.608546 
L 306.575687 124.084922 
L 307.185024 171.279557 
L 307.489692 206.891559 
L 307.79436 197.581067 
L 308.099029 181.922125 
L 309.013034 92.804159 
L 309.317702 91.009882 
L 309.927039 51.269401 
L 310.231707 17.389913 
L 310.536375 50.72244 
L 310.841043 71.804385 
L 311.145712 82.637867 
L 311.45038 124.886414 
L 311.755048 146.999463 
L 312.059717 181.083172 
L 312.364385 172.23405 
L 312.669053 214.338432 
L 312.973722 197.573904 
L 313.27839 161.803743 
L 313.583058 153.229769 
L 313.887727 130.471272 
L 314.801731 23.965543 
L 315.1064 21.815636 
L 315.411068 49.311871 
L 315.715736 61.535379 
L 316.325073 110.936948 
L 317.239078 181.144087 
L 317.543746 175.757257 
L 317.848414 179.258902 
L 318.153083 188.203159 
L 318.762419 103.222919 
L 319.067088 94.341972 
L 319.371756 46.05325 
L 319.676424 34.532625 
L 319.981093 32.059986 
L 320.285761 38.889715 
L 320.590429 66.43967 
L 321.199766 99.586639 
L 321.504434 152.388139 
L 321.809102 150.512004 
L 322.113771 196.269752 
L 322.418439 204.486664 
L 322.723107 186.118833 
L 323.027776 194.820567 
L 323.332444 153.075268 
L 323.941781 96.62085 
L 324.246449 45.817962 
L 324.551117 50.21853 
L 324.855785 32.157216 
L 325.160454 50.522487 
L 325.465122 48.672335 
L 325.76979 62.877162 
L 326.379127 118.734803 
L 326.683795 179.983649 
L 326.988464 177.788169 
L 327.293132 184.844754 
L 327.5978 173.161481 
L 327.902469 179.342848 
L 328.511805 115.033532 
L 328.816473 97.537679 
L 329.42581 40.897183 
L 329.730478 23.63344 
L 330.035147 56.060455 
L 330.339815 63.135611 
L 331.25382 154.187331 
L 331.558488 157.381359 
L 331.863156 203.01524 
L 332.167825 185.89382 
L 332.472493 182.918916 
L 332.777161 166.855159 
L 333.386498 114.054092 
L 333.995835 88.753378 
L 334.300503 54.595254 
L 334.605171 54.484474 
L 334.90984 21.083235 
L 335.519176 53.888458 
L 335.823844 119.069041 
L 336.128513 146.623273 
L 336.433181 143.634091 
L 336.737849 181.23056 
L 337.042518 174.509259 
L 337.347186 198.666015 
L 337.651854 167.87623 
L 338.261191 146.954817 
L 338.565859 88.001209 
L 338.870527 58.967608 
L 339.175196 65.202479 
L 339.479864 18.117168 
L 339.784532 43.95785 
L 340.089201 51.308351 
L 340.393869 79.950255 
L 340.698537 78.609707 
L 341.003206 130.688683 
L 341.307874 146.206818 
L 341.917211 184.865024 
L 342.221879 186.859465 
L 342.526547 184.718142 
L 342.831215 145.404266 
L 343.135884 154.145894 
L 343.74522 57.369515 
L 344.049889 39.50834 
L 344.354557 56.688768 
L 344.659225 34.281469 
L 344.963894 49.237189 
L 345.57323 98.434034 
L 345.877898 142.71764 
L 346.487235 177.482061 
L 346.791903 186.238187 
L 347.096572 198.904033 
L 347.40124 186.977341 
L 348.315245 108.820783 
L 348.619913 65.304387 
L 348.924582 45.659467 
L 349.22925 51.791349 
L 349.533918 17.083636 
L 349.838586 40.070496 
L 350.143255 53.452897 
L 351.05726 166.345159 
L 351.361928 174.64079 
L 351.666596 204.9974 
L 352.88527 153.591239 
L 353.189938 105.220195 
L 353.494606 97.753316 
L 354.408611 37.737308 
L 355.017948 80.286971 
L 355.322616 102.117026 
L 355.627284 110.333267 
L 355.931953 166.179552 
L 356.541289 204.78286 
L 356.845957 214.151127 
L 357.759962 160.32501 
L 358.064631 101.634371 
L 358.064631 101.634371 
" clip-path="url(#p7d193d90cc)" style="fill: none; stroke: #1f77b4; stroke-width: 1.5; stroke-linecap: square"/>
   </g>
   <g id="patch_3">
    <path d="M 38.482813 224.64 
L 38.482813 7.2 
" style="fill: none; stroke: #000000; stroke-width: 0.8; stroke-linejoin: miter; stroke-linecap: square"/>
   </g>
   <g id="patch_4">
    <path d="M 373.282813 224.64 
L 373.282813 7.2 
" style="fill: none; stroke: #000000; stroke-width: 0.8; stroke-linejoin: miter; stroke-linecap: square"/>
   </g>
   <g id="patch_5">
    <path d="M 38.482813 224.64 
L 373.282813 224.64 
" style="fill: none; stroke: #000000; stroke-width: 0.8; stroke-linejoin: miter; stroke-linecap: square"/>
   </g>
   <g id="patch_6">
    <path d="M 38.482813 7.2 
L 373.282813 7.2 
" style="fill: none; stroke: #000000; stroke-width: 0.8; stroke-linejoin: miter; stroke-linecap: square"/>
   </g>
  </g>
 </g>
 <defs>
  <clipPath id="p7d193d90cc">
   <rect x="38.482813" y="7.2" width="334.8" height="217.44"/>
  </clipPath>
 </defs>
</svg>
