<?xml version="1.0" encoding="utf-8" standalone="no"?>
<!DOCTYPE svg PUBLIC "-//W3C//DTD SVG 1.1//EN"
  "http://www.w3.org/Graphics/SVG/1.1/DTD/svg11.dtd">
<svg xmlns:xlink="http://www.w3.org/1999/xlink" width="370.942187pt" height="259.116562pt" viewBox="0 0 370.942187 259.116562" xmlns="http://www.w3.org/2000/svg" version="1.1">
 <metadata>
  <rdf:RDF xmlns:dc="http://purl.org/dc/elements/1.1/" xmlns:cc="http://creativecommons.org/ns#" xmlns:rdf="http://www.w3.org/1999/02/22-rdf-syntax-ns#">
   <cc:Work>
    <dc:type rdf:resource="http://purl.org/dc/dcmitype/StillImage"/>
    <dc:date>2022-10-19T20:00:11.971570</dc:date>
    <dc:format>image/svg+xml</dc:format>
    <dc:creator>
     <cc:Agent>
      <dc:title>Matplotlib v3.5.2, https://matplotlib.org/</dc:title>
     </cc:Agent>
    </dc:creator>
   </cc:Work>
  </rdf:RDF>
 </metadata>
 <defs>
  <style type="text/css">*{stroke-linejoin: round; stroke-linecap: butt}</style>
 </defs>
 <g id="figure_1">
  <g id="patch_1">
   <path d="M 0 259.116562 
L 370.942187 259.116562 
L 370.942187 0 
L 0 0 
L 0 259.116562 
z
" style="fill: none"/>
  </g>
  <g id="axes_1">
   <g id="patch_2">
    <path d="M 28.942188 235.238437 
L 363.742188 235.238437 
L 363.742188 17.798437 
L 28.942188 17.798437 
z
" style="fill: #ffffff"/>
   </g>
   <g id="matplotlib.axis_1">
    <g id="xtick_1">
     <g id="line2d_1">
      <defs>
       <path id="m2b0b3930c0" d="M 0 0 
L 0 3.5 
" style="stroke: #000000; stroke-width: 0.8"/>
      </defs>
      <g>
       <use xlink:href="#m2b0b3930c0" x="63.296231" y="235.238437" style="stroke: #000000; stroke-width: 0.8"/>
      </g>
     </g>
     <g id="text_1">
      <!-- −2.0 -->
      <g transform="translate(51.154825 249.836875)scale(0.1 -0.1)">
       <defs>
        <path id="DejaVuSans-2212" d="M 678 2272 
L 4684 2272 
L 4684 1741 
L 678 1741 
L 678 2272 
z
" transform="scale(0.015625)"/>
        <path id="DejaVuSans-32" d="M 1228 531 
L 3431 531 
L 3431 0 
L 469 0 
L 469 531 
Q 828 903 1448 1529 
Q 2069 2156 2228 2338 
Q 2531 2678 2651 2914 
Q 2772 3150 2772 3378 
Q 2772 3750 2511 3984 
Q 2250 4219 1831 4219 
Q 1534 4219 1204 4116 
Q 875 4013 500 3803 
L 500 4441 
Q 881 4594 1212 4672 
Q 1544 4750 1819 4750 
Q 2544 4750 2975 4387 
Q 3406 4025 3406 3419 
Q 3406 3131 3298 2873 
Q 3191 2616 2906 2266 
Q 2828 2175 2409 1742 
Q 1991 1309 1228 531 
z
" transform="scale(0.015625)"/>
        <path id="DejaVuSans-2e" d="M 684 794 
L 1344 794 
L 1344 0 
L 684 0 
L 684 794 
z
" transform="scale(0.015625)"/>
        <path id="DejaVuSans-30" d="M 2034 4250 
Q 1547 4250 1301 3770 
Q 1056 3291 1056 2328 
Q 1056 1369 1301 889 
Q 1547 409 2034 409 
Q 2525 409 2770 889 
Q 3016 1369 3016 2328 
Q 3016 3291 2770 3770 
Q 2525 4250 2034 4250 
z
M 2034 4750 
Q 2819 4750 3233 4129 
Q 3647 3509 3647 2328 
Q 3647 1150 3233 529 
Q 2819 -91 2034 -91 
Q 1250 -91 836 529 
Q 422 1150 422 2328 
Q 422 3509 836 4129 
Q 1250 4750 2034 4750 
z
" transform="scale(0.015625)"/>
       </defs>
       <use xlink:href="#DejaVuSans-2212"/>
       <use xlink:href="#DejaVuSans-32" x="83.789062"/>
       <use xlink:href="#DejaVuSans-2e" x="147.412109"/>
       <use xlink:href="#DejaVuSans-30" x="179.199219"/>
      </g>
     </g>
    </g>
    <g id="xtick_2">
     <g id="line2d_2">
      <g>
       <use xlink:href="#m2b0b3930c0" x="127.944412" y="235.238437" style="stroke: #000000; stroke-width: 0.8"/>
      </g>
     </g>
     <g id="text_2">
      <!-- −1.5 -->
      <g transform="translate(115.803006 249.836875)scale(0.1 -0.1)">
       <defs>
        <path id="DejaVuSans-31" d="M 794 531 
L 1825 531 
L 1825 4091 
L 703 3866 
L 703 4441 
L 1819 4666 
L 2450 4666 
L 2450 531 
L 3481 531 
L 3481 0 
L 794 0 
L 794 531 
z
" transform="scale(0.015625)"/>
        <path id="DejaVuSans-35" d="M 691 4666 
L 3169 4666 
L 3169 4134 
L 1269 4134 
L 1269 2991 
Q 1406 3038 1543 3061 
Q 1681 3084 1819 3084 
Q 2600 3084 3056 2656 
Q 3513 2228 3513 1497 
Q 3513 744 3044 326 
Q 2575 -91 1722 -91 
Q 1428 -91 1123 -41 
Q 819 9 494 109 
L 494 744 
Q 775 591 1075 516 
Q 1375 441 1709 441 
Q 2250 441 2565 725 
Q 2881 1009 2881 1497 
Q 2881 1984 2565 2268 
Q 2250 2553 1709 2553 
Q 1456 2553 1204 2497 
Q 953 2441 691 2322 
L 691 4666 
z
" transform="scale(0.015625)"/>
       </defs>
       <use xlink:href="#DejaVuSans-2212"/>
       <use xlink:href="#DejaVuSans-31" x="83.789062"/>
       <use xlink:href="#DejaVuSans-2e" x="147.412109"/>
       <use xlink:href="#DejaVuSans-35" x="179.199219"/>
      </g>
     </g>
    </g>
    <g id="xtick_3">
     <g id="line2d_3">
      <g>
       <use xlink:href="#m2b0b3930c0" x="192.592593" y="235.238437" style="stroke: #000000; stroke-width: 0.8"/>
      </g>
     </g>
     <g id="text_3">
      <!-- −1.0 -->
      <g transform="translate(180.451187 249.836875)scale(0.1 -0.1)">
       <use xlink:href="#DejaVuSans-2212"/>
       <use xlink:href="#DejaVuSans-31" x="83.789062"/>
       <use xlink:href="#DejaVuSans-2e" x="147.412109"/>
       <use xlink:href="#DejaVuSans-30" x="179.199219"/>
      </g>
     </g>
    </g>
    <g id="xtick_4">
     <g id="line2d_4">
      <g>
       <use xlink:href="#m2b0b3930c0" x="257.240774" y="235.238437" style="stroke: #000000; stroke-width: 0.8"/>
      </g>
     </g>
     <g id="text_4">
      <!-- −0.5 -->
      <g transform="translate(245.099368 249.836875)scale(0.1 -0.1)">
       <use xlink:href="#DejaVuSans-2212"/>
       <use xlink:href="#DejaVuSans-30" x="83.789062"/>
       <use xlink:href="#DejaVuSans-2e" x="147.412109"/>
       <use xlink:href="#DejaVuSans-35" x="179.199219"/>
      </g>
     </g>
    </g>
    <g id="xtick_5">
     <g id="line2d_5">
      <g>
       <use xlink:href="#m2b0b3930c0" x="321.888955" y="235.238437" style="stroke: #000000; stroke-width: 0.8"/>
      </g>
     </g>
     <g id="text_5">
      <!-- 0.0 -->
      <g transform="translate(313.937393 249.836875)scale(0.1 -0.1)">
       <use xlink:href="#DejaVuSans-30"/>
       <use xlink:href="#DejaVuSans-2e" x="63.623047"/>
       <use xlink:href="#DejaVuSans-30" x="95.410156"/>
      </g>
     </g>
    </g>
   </g>
   <g id="matplotlib.axis_2">
    <g id="ytick_1">
     <g id="line2d_6">
      <defs>
       <path id="m758afa1178" d="M 0 0 
L -3.5 0 
" style="stroke: #000000; stroke-width: 0.8"/>
      </defs>
      <g>
       <use xlink:href="#m758afa1178" x="28.942188" y="217.097604" style="stroke: #000000; stroke-width: 0.8"/>
      </g>
     </g>
     <g id="text_6">
      <!-- −8 -->
      <g transform="translate(7.2 220.896823)scale(0.1 -0.1)">
       <defs>
        <path id="DejaVuSans-38" d="M 2034 2216 
Q 1584 2216 1326 1975 
Q 1069 1734 1069 1313 
Q 1069 891 1326 650 
Q 1584 409 2034 409 
Q 2484 409 2743 651 
Q 3003 894 3003 1313 
Q 3003 1734 2745 1975 
Q 2488 2216 2034 2216 
z
M 1403 2484 
Q 997 2584 770 2862 
Q 544 3141 544 3541 
Q 544 4100 942 4425 
Q 1341 4750 2034 4750 
Q 2731 4750 3128 4425 
Q 3525 4100 3525 3541 
Q 3525 3141 3298 2862 
Q 3072 2584 2669 2484 
Q 3125 2378 3379 2068 
Q 3634 1759 3634 1313 
Q 3634 634 3220 271 
Q 2806 -91 2034 -91 
Q 1263 -91 848 271 
Q 434 634 434 1313 
Q 434 1759 690 2068 
Q 947 2378 1403 2484 
z
M 1172 3481 
Q 1172 3119 1398 2916 
Q 1625 2713 2034 2713 
Q 2441 2713 2670 2916 
Q 2900 3119 2900 3481 
Q 2900 3844 2670 4047 
Q 2441 4250 2034 4250 
Q 1625 4250 1398 4047 
Q 1172 3844 1172 3481 
z
" transform="scale(0.015625)"/>
       </defs>
       <use xlink:href="#DejaVuSans-2212"/>
       <use xlink:href="#DejaVuSans-38" x="83.789062"/>
      </g>
     </g>
    </g>
    <g id="ytick_2">
     <g id="line2d_7">
      <g>
       <use xlink:href="#m758afa1178" x="28.942188" y="191.383149" style="stroke: #000000; stroke-width: 0.8"/>
      </g>
     </g>
     <g id="text_7">
      <!-- −6 -->
      <g transform="translate(7.2 195.182368)scale(0.1 -0.1)">
       <defs>
        <path id="DejaVuSans-36" d="M 2113 2584 
Q 1688 2584 1439 2293 
Q 1191 2003 1191 1497 
Q 1191 994 1439 701 
Q 1688 409 2113 409 
Q 2538 409 2786 701 
Q 3034 994 3034 1497 
Q 3034 2003 2786 2293 
Q 2538 2584 2113 2584 
z
M 3366 4563 
L 3366 3988 
Q 3128 4100 2886 4159 
Q 2644 4219 2406 4219 
Q 1781 4219 1451 3797 
Q 1122 3375 1075 2522 
Q 1259 2794 1537 2939 
Q 1816 3084 2150 3084 
Q 2853 3084 3261 2657 
Q 3669 2231 3669 1497 
Q 3669 778 3244 343 
Q 2819 -91 2113 -91 
Q 1303 -91 875 529 
Q 447 1150 447 2328 
Q 447 3434 972 4092 
Q 1497 4750 2381 4750 
Q 2619 4750 2861 4703 
Q 3103 4656 3366 4563 
z
" transform="scale(0.015625)"/>
       </defs>
       <use xlink:href="#DejaVuSans-2212"/>
       <use xlink:href="#DejaVuSans-36" x="83.789062"/>
      </g>
     </g>
    </g>
    <g id="ytick_3">
     <g id="line2d_8">
      <g>
       <use xlink:href="#m758afa1178" x="28.942188" y="165.668695" style="stroke: #000000; stroke-width: 0.8"/>
      </g>
     </g>
     <g id="text_8">
      <!-- −4 -->
      <g transform="translate(7.2 169.467913)scale(0.1 -0.1)">
       <defs>
        <path id="DejaVuSans-34" d="M 2419 4116 
L 825 1625 
L 2419 1625 
L 2419 4116 
z
M 2253 4666 
L 3047 4666 
L 3047 1625 
L 3713 1625 
L 3713 1100 
L 3047 1100 
L 3047 0 
L 2419 0 
L 2419 1100 
L 313 1100 
L 313 1709 
L 2253 4666 
z
" transform="scale(0.015625)"/>
       </defs>
       <use xlink:href="#DejaVuSans-2212"/>
       <use xlink:href="#DejaVuSans-34" x="83.789062"/>
      </g>
     </g>
    </g>
    <g id="ytick_4">
     <g id="line2d_9">
      <g>
       <use xlink:href="#m758afa1178" x="28.942188" y="139.95424" style="stroke: #000000; stroke-width: 0.8"/>
      </g>
     </g>
     <g id="text_9">
      <!-- −2 -->
      <g transform="translate(7.2 143.753459)scale(0.1 -0.1)">
       <use xlink:href="#DejaVuSans-2212"/>
       <use xlink:href="#DejaVuSans-32" x="83.789062"/>
      </g>
     </g>
    </g>
    <g id="ytick_5">
     <g id="line2d_10">
      <g>
       <use xlink:href="#m758afa1178" x="28.942188" y="114.239785" style="stroke: #000000; stroke-width: 0.8"/>
      </g>
     </g>
     <g id="text_10">
      <!-- 0 -->
      <g transform="translate(15.579688 118.039004)scale(0.1 -0.1)">
       <use xlink:href="#DejaVuSans-30"/>
      </g>
     </g>
    </g>
    <g id="ytick_6">
     <g id="line2d_11">
      <g>
       <use xlink:href="#m758afa1178" x="28.942188" y="88.525331" style="stroke: #000000; stroke-width: 0.8"/>
      </g>
     </g>
     <g id="text_11">
      <!-- 2 -->
      <g transform="translate(15.579688 92.324549)scale(0.1 -0.1)">
       <use xlink:href="#DejaVuSans-32"/>
      </g>
     </g>
    </g>
    <g id="ytick_7">
     <g id="line2d_12">
      <g>
       <use xlink:href="#m758afa1178" x="28.942188" y="62.810876" style="stroke: #000000; stroke-width: 0.8"/>
      </g>
     </g>
     <g id="text_12">
      <!-- 4 -->
      <g transform="translate(15.579688 66.610095)scale(0.1 -0.1)">
       <use xlink:href="#DejaVuSans-34"/>
      </g>
     </g>
    </g>
    <g id="ytick_8">
     <g id="line2d_13">
      <g>
       <use xlink:href="#m758afa1178" x="28.942188" y="37.096421" style="stroke: #000000; stroke-width: 0.8"/>
      </g>
     </g>
     <g id="text_13">
      <!-- 6 -->
      <g transform="translate(15.579688 40.89564)scale(0.1 -0.1)">
       <use xlink:href="#DejaVuSans-36"/>
      </g>
     </g>
    </g>
    <g id="text_14">
     <!-- 1e−6 -->
     <g transform="translate(28.942188 14.798437)scale(0.1 -0.1)">
      <defs>
       <path id="DejaVuSans-65" d="M 3597 1894 
L 3597 1613 
L 953 1613 
Q 991 1019 1311 708 
Q 1631 397 2203 397 
Q 2534 397 2845 478 
Q 3156 559 3463 722 
L 3463 178 
Q 3153 47 2828 -22 
Q 2503 -91 2169 -91 
Q 1331 -91 842 396 
Q 353 884 353 1716 
Q 353 2575 817 3079 
Q 1281 3584 2069 3584 
Q 2775 3584 3186 3129 
Q 3597 2675 3597 1894 
z
M 3022 2063 
Q 3016 2534 2758 2815 
Q 2500 3097 2075 3097 
Q 1594 3097 1305 2825 
Q 1016 2553 972 2059 
L 3022 2063 
z
" transform="scale(0.015625)"/>
      </defs>
      <use xlink:href="#DejaVuSans-31"/>
      <use xlink:href="#DejaVuSans-65" x="63.623047"/>
      <use xlink:href="#DejaVuSans-2212" x="125.146484"/>
      <use xlink:href="#DejaVuSans-36" x="208.935547"/>
     </g>
    </g>
   </g>
   <g id="line2d_14">
    <path d="M 246.767769 105.196869 
L 246.37988 113.425494 
L 246.250583 111.654054 
L 245.862694 98.796827 
L 245.733398 99.982549 
L 245.345509 108.996894 
L 245.216212 108.339747 
L 245.086916 103.439714 
L 244.95762 103.554001 
L 244.699027 107.06831 
L 244.569731 106.025446 
L 244.311138 101.868276 
L 244.052545 102.982569 
L 243.923249 101.782561 
L 243.664656 98.896827 
L 243.406063 100.682553 
L 243.018174 105.939731 
L 242.759581 104.054004 
L 242.630285 102.325421 
L 242.500989 102.182563 
L 242.242396 105.896873 
L 242.1131 108.254032 
L 241.983803 108.268318 
L 241.595914 101.868276 
L 241.466618 102.753996 
L 241.208025 106.596878 
L 240.949432 107.968316 
L 240.820136 107.668314 
L 240.432247 102.725424 
L 240.173654 104.754009 
L 240.044358 104.639722 
L 239.785765 99.211115 
L 239.656469 98.939685 
L 239.26858 113.582638 
L 239.139283 112.896919 
L 239.009987 110.668333 
L 238.880691 110.554047 
L 238.622098 114.139785 
L 238.492802 112.939777 
L 238.492802 110.382617 
L 238.363505 107.154025 
L 238.234209 107.125453 
L 237.717023 113.254065 
L 237.587727 113.539781 
L 237.458431 112.739776 
L 237.199838 107.125453 
L 237.070542 107.982601 
L 236.811949 111.611197 
L 236.553356 108.982608 
L 236.294763 114.382643 
L 236.165467 113.325494 
L 235.906874 108.111174 
L 235.648282 107.911172 
L 235.389689 108.411176 
L 235.260392 109.482611 
L 235.131096 109.125466 
L 234.613911 103.682573 
L 234.484614 101.95399 
L 234.355318 102.611138 
L 233.967429 111.311195 
L 233.838133 109.154038 
L 233.57954 101.211128 
L 233.450243 101.2397 
L 233.062354 107.839743 
L 232.933058 107.482598 
L 232.415873 100.768268 
L 232.286576 100.925412 
L 231.769391 111.068336 
L 231.769391 109.268324 
L 231.252205 100.096835 
L 231.122909 100.268265 
L 230.993613 101.196843 
L 230.73502 104.454007 
L 230.347131 107.311168 
L 230.217834 107.739743 
L 230.088538 108.725463 
L 229.959242 108.554034 
L 229.829945 107.111167 
L 229.442056 96.125381 
L 229.31276 97.79682 
L 228.666278 113.296922 
L 228.536982 111.811198 
L 228.149093 99.968263 
L 228.019796 100.79684 
L 227.631907 105.082582 
L 227.373314 105.939731 
L 227.244018 106.054017 
L 226.985425 105.111154 
L 226.856129 105.168297 
L 226.726833 104.825438 
L 226.597536 103.79686 
L 226.46824 101.868276 
L 226.338944 101.68256 
L 225.951054 105.354013 
L 225.692462 109.625469 
L 225.563165 109.11118 
L 225.304573 103.225427 
L 225.04598 108.239746 
L 225.04598 112.439774 
L 224.916684 112.325487 
L 224.787387 111.196908 
L 224.528794 107.496884 
L 224.399498 107.396883 
L 223.882313 103.025426 
L 223.753016 103.339714 
L 223.62372 105.096868 
L 223.235831 113.868354 
L 222.977238 112.754061 
L 222.847942 113.054063 
L 222.589349 112.154057 
L 222.460053 111.425481 
L 222.330756 111.725483 
L 222.20146 111.196908 
L 221.813571 104.68258 
L 221.554978 108.754035 
L 221.296385 115.796938 
L 221.167089 116.425514 
L 220.7792 108.954036 
L 220.391311 104.582579 
L 220.262014 105.439728 
L 220.003422 110.739762 
L 219.874125 109.739756 
L 219.486236 99.453974 
L 219.35694 99.925406 
L 219.098347 101.982562 
L 218.839755 100.811126 
L 218.710458 102.468279 
L 218.451865 110.625476 
L 218.451865 109.611184 
L 218.063976 96.19681 
L 217.93468 97.425389 
L 217.676087 101.68256 
L 217.417495 102.068277 
L 217.288198 101.439701 
L 217.158902 101.539702 
L 216.900309 102.468279 
L 216.771013 102.553994 
L 216.641716 102.211135 
L 216.51242 102.56828 
L 216.124531 106.382591 
L 215.865938 105.539728 
L 215.607345 103.025426 
L 215.219456 94.853944 
L 215.09016 96.839671 
L 214.831567 104.596865 
L 214.702271 106.311162 
L 214.572975 106.382591 
L 214.443678 106.296876 
L 214.314382 105.73973 
L 214.185085 106.18259 
L 213.926493 104.711151 
L 213.797196 102.453994 
L 213.6679 102.668281 
L 213.538604 102.525423 
L 213.409307 103.568287 
L 213.280011 102.882568 
L 213.021418 104.025433 
L 212.892122 105.896873 
L 212.762825 106.096875 
L 212.633529 104.625437 
L 212.374936 100.825412 
L 211.987047 107.296883 
L 211.857751 106.796879 
L 211.728455 107.396883 
L 211.728455 106.868308 
L 211.599158 106.596878 
L 211.469862 105.239726 
L 211.081973 108.711178 
L 210.82338 104.839724 
L 210.564787 100.668268 
L 210.435491 101.168271 
L 210.176898 105.868302 
L 209.789009 112.868348 
L 209.530416 110.568333 
L 209.013231 101.282557 
L 208.883935 100.225408 
L 208.754638 100.96827 
L 208.496046 104.054004 
L 208.366749 103.411143 
L 208.108156 98.296824 
L 207.97886 98.596825 
L 207.720267 104.939724 
L 207.590971 105.111154 
L 207.461675 103.411143 
L 207.332378 103.196856 
L 206.944489 110.282617 
L 206.685896 111.125479 
L 206.5566 111.096908 
L 206.298007 107.454027 
L 206.168711 106.868308 
L 206.039415 108.554034 
L 205.651526 103.411143 
L 205.13434 109.096894 
L 205.005044 111.011193 
L 205.005044 110.16833 
L 204.487858 102.796853 
L 204.358562 102.868282 
L 204.229266 105.22544 
L 204.099969 105.454013 
L 203.970673 104.196862 
L 203.71208 98.453967 
L 203.582784 97.18253 
L 203.453487 97.08253 
L 203.194895 103.282571 
L 202.936302 110.025472 
L 202.807006 109.639755 
L 202.419117 104.754009 
L 202.160524 103.89686 
L 202.031227 103.568287 
L 201.772635 106.939737 
L 201.643338 109.611184 
L 201.514042 109.596898 
L 201.384746 108.896893 
L 201.126153 105.939731 
L 200.996857 105.754015 
L 200.86756 106.482592 
L 200.738264 105.911159 
L 200.479671 102.753996 
L 200.350375 103.296856 
L 200.091782 108.968322 
L 199.962486 108.311175 
L 199.574597 99.311116 
L 199.186707 101.611131 
L 198.928115 98.768255 
L 198.798818 98.882542 
L 198.410929 104.625437 
L 198.410929 104.425435 
L 198.281633 103.668287 
L 197.505855 96.111095 
L 197.376558 96.268239 
L 196.988669 99.311116 
L 196.730077 93.268219 
L 196.60078 93.682507 
L 196.342188 101.868276 
L 196.212891 101.353986 
L 195.825002 87.153893 
L 195.307817 89.21105 
L 195.049224 95.85395 
L 194.919928 98.425396 
L 194.790631 96.782528 
L 194.532038 89.996769 
L 194.273446 93.082504 
L 194.144149 94.368226 
L 193.75626 90.725345 
L 193.626964 91.796781 
L 193.497668 91.568208 
L 193.109778 85.211023 
L 192.980482 85.839599 
L 192.851186 84.282446 
L 192.721889 84.239588 
L 192.592593 85.296738 
L 192.463297 88.311044 
L 192.334 87.453895 
L 191.946111 78.325264 
L 191.687518 72.139509 
L 191.687518 72.139509 
L 191.428926 76.05382 
L 191.170333 68.682343 
L 190.91174 64.225171 
L 190.782444 65.282321 
L 190.523851 69.225204 
L 190.394555 69.396634 
L 190.265258 68.025196 
L 190.006666 62.868019 
L 189.877369 61.553725 
L 189.748073 62.068014 
L 189.48948 59.08228 
L 189.230888 55.853688 
L 189.101591 56.939409 
L 188.842998 61.182294 
L 188.713702 61.382295 
L 188.584406 59.625141 
L 188.196517 51.38223 
L 187.937924 52.396522 
L 187.808628 50.725082 
L 187.420739 43.282176 
L 187.291442 42.839316 
L 187.162146 43.125032 
L 186.903553 40.639302 
L 186.774257 40.725017 
L 186.515664 44.482184 
L 186.386368 43.625036 
L 186.127775 39.753582 
L 185.998479 39.696439 
L 185.481293 42.89646 
L 185.2227 37.382138 
L 185.093404 34.610691 
L 185.093404 35.724984 
L 184.964108 36.582132 
L 184.834811 35.753555 
L 184.576219 32.253532 
L 183.80044 37.810712 
L 183.541848 36.424988 
L 183.412551 36.510703 
L 182.766069 33.967829 
L 182.636773 34.767835 
L 182.37818 37.153565 
L 182.119588 35.439268 
L 181.990291 35.496411 
L 181.860995 35.610697 
L 181.731699 35.39641 
L 181.214513 30.296377 
L 180.826624 34.696406 
L 180.697328 35.110694 
L 180.309439 37.982142 
L 180.180142 36.224987 
L 180.050846 36.110701 
L 179.92155 37.33928 
L 179.662957 41.182163 
L 179.275068 43.953609 
L 179.145771 43.61075 
L 178.887179 41.382164 
L 178.49929 45.153617 
L 178.240697 42.925031 
L 177.594215 47.196488 
L 177.464919 47.725063 
L 177.335622 47.76792 
L 177.206326 46.696485 
L 177.07703 47.125059 
L 176.818437 52.353665 
L 176.68914 52.682238 
L 176.430548 49.210787 
L 176.301251 48.625069 
L 176.171955 49.110786 
L 175.913362 50.967941 
L 175.784066 50.896512 
L 175.525473 50.410795 
L 175.396177 51.082228 
L 175.26688 50.696511 
L 174.878991 46.625055 
L 174.749695 47.76792 
L 174.361806 53.967961 
L 174.103213 56.125118 
L 173.715324 49.253644 
L 173.586028 49.853648 
L 173.456731 49.910791 
L 173.327435 49.182215 
L 173.198139 47.525061 
L 173.068842 47.525061 
L 172.939546 48.367924 
L 172.680953 51.910804 
L 172.551657 52.325093 
L 172.163768 46.253624 
L 172.034471 47.882207 
L 171.775879 54.125105 
L 171.646582 54.796538 
L 171.646582 54.239391 
L 171.517286 53.396529 
L 171.38799 53.453672 
L 171.258693 54.196534 
L 170.741508 62.882305 
L 170.353619 56.567978 
L 169.707137 62.996592 
L 169.448544 55.396542 
L 169.189951 50.482224 
L 169.060655 53.667959 
L 168.672766 67.839481 
L 168.155581 58.525134 
L 167.896988 60.58229 
L 167.767691 60.710862 
L 167.379802 58.396561 
L 167.250506 58.539419 
L 166.862617 63.23945 
L 166.733321 61.482296 
L 166.345431 53.4251 
L 166.216135 53.010812 
L 166.086839 54.025104 
L 165.311061 71.082359 
L 164.664579 59.839428 
L 164.535282 61.182294 
L 164.27669 65.425179 
L 163.759504 56.86798 
L 163.630208 57.053695 
L 163.500912 58.239417 
L 163.113022 67.91091 
L 162.983726 67.939481 
L 162.725133 63.868026 
L 162.595837 63.282308 
L 162.466541 65.239463 
L 162.207948 62.068014 
L 162.078652 59.52514 
L 161.690762 65.396607 
L 161.561466 64.496601 
L 161.43217 66.425186 
L 161.173577 72.853799 
L 161.044281 72.16808 
L 160.397799 61.482296 
L 160.139206 62.225158 
L 159.751317 59.882285 
L 159.622021 60.725148 
L 159.492724 62.368016 
L 159.104835 74.01095 
L 158.975539 74.382381 
L 158.716946 71.253789 
L 158.458353 65.982325 
L 158.329057 66.110898 
L 158.329057 68.839487 
L 158.199761 70.753785 
L 158.070464 70.253782 
L 157.811872 68.782344 
L 157.682575 70.010923 
L 157.553279 69.753779 
L 157.16539 63.982312 
L 157.036093 63.753739 
L 156.906797 64.225171 
L 156.777501 63.039449 
L 156.518908 62.982306 
L 156.001723 69.839494 
L 155.872426 72.025222 
L 155.613833 71.825221 
L 155.225944 64.46803 
L 154.838055 68.696629 
L 154.579463 67.396621 
L 154.062277 69.382348 
L 153.932981 70.410926 
L 153.674388 69.325205 
L 153.545092 69.639492 
L 153.157203 75.639532 
L 152.89861 70.825214 
L 152.640017 64.625174 
L 152.510721 65.568037 
L 152.122832 71.839507 
L 151.734943 76.925255 
L 151.605646 77.2824 
L 151.605646 76.482394 
L 151.217757 68.525199 
L 151.088461 68.239483 
L 150.571275 71.168074 
L 150.441979 70.968073 
L 150.05409 67.268048 
L 149.795497 68.825201 
L 149.666201 68.825201 
L 149.536904 69.396634 
L 148.890423 76.110963 
L 148.761126 79.110983 
L 148.63183 79.282413 
L 148.373237 74.710954 
L 148.114644 69.78235 
L 147.985348 69.468063 
L 147.726755 72.196652 
L 147.468163 74.839527 
L 147.338866 74.796669 
L 147.20957 74.11095 
L 147.080274 74.139522 
L 146.950977 75.1681 
L 146.821681 75.196672 
L 146.433792 67.968053 
L 146.304495 69.78235 
L 146.045903 76.339536 
L 145.916606 76.93954 
L 145.528717 71.89665 
L 145.270124 69.68235 
L 145.140828 70.553784 
L 144.882235 74.082379 
L 144.752939 72.68237 
L 144.623643 72.568083 
L 144.36505 66.910903 
L 144.235754 65.853753 
L 143.977161 71.382361 
L 143.718568 75.253815 
L 143.330679 68.810916 
L 142.94279 75.082385 
L 142.813494 75.010956 
L 142.684197 73.825234 
L 142.425605 68.339484 
L 142.296308 69.368062 
L 142.037715 76.610967 
L 141.908419 77.439544 
L 141.779123 77.025255 
L 141.649826 77.153827 
L 141.52053 76.282393 
L 141.132641 72.239509 
L 140.744752 75.410959 
L 140.615455 76.596681 
L 140.486159 76.710967 
L 140.227566 74.310952 
L 139.968974 72.410939 
L 139.839677 71.539505 
L 139.581085 72.253795 
L 139.451788 72.568083 
L 139.063899 67.46805 
L 138.805306 69.482348 
L 138.417417 75.482388 
L 138.288121 74.482381 
L 138.288121 73.382374 
L 138.158825 71.45379 
L 137.770935 73.625233 
L 137.512343 71.368075 
L 137.383046 69.996638 
L 136.995157 74.410952 
L 136.736565 69.368062 
L 136.607268 70.768071 
L 136.348675 75.996677 
L 136.219379 74.910956 
L 135.960786 71.310932 
L 135.83149 71.153788 
L 135.702194 71.953793 
L 135.314305 66.85376 
L 135.185008 66.968046 
L 135.055712 67.925195 
L 134.538526 76.182393 
L 134.279934 78.982411 
L 134.150637 78.368121 
L 133.892045 73.168087 
L 133.762748 72.968086 
L 133.633452 73.296659 
L 133.504156 73.068086 
L 133.245563 70.810929 
L 133.116266 70.8395 
L 132.857674 75.61096 
L 132.728377 78.325264 
L 132.599081 78.625266 
L 132.340488 76.196678 
L 132.081896 78.110977 
L 131.952599 77.353829 
L 131.694006 74.353809 
L 131.56471 76.039534 
L 131.56471 78.568122 
L 131.435414 78.010976 
L 131.176821 75.225243 
L 131.047525 75.825247 
L 130.788932 73.739519 
L 130.659636 73.210944 
L 130.271746 79.368128 
L 130.013154 78.953839 
L 129.754561 80.639565 
L 129.625265 80.55385 
L 129.366672 76.553824 
L 129.237376 76.068106 
L 129.108079 77.453829 
L 128.849486 74.596668 
L 128.72019 75.182386 
L 128.461597 80.768137 
L 128.332301 80.65385 
L 127.815116 73.825234 
L 127.556523 67.939481 
L 127.427227 67.710908 
L 126.910041 80.439563 
L 126.780745 81.868144 
L 126.522152 78.768124 
L 126.263559 72.668084 
L 126.134263 71.510933 
L 125.87567 72.553797 
L 125.487781 75.51096 
L 125.358485 74.868098 
L 125.229188 73.410946 
L 125.099892 73.239516 
L 124.970596 76.39668 
L 124.970596 81.139568 
L 124.841299 84.739592 
L 124.712003 84.182445 
L 124.324114 78.825267 
L 124.065521 74.99667 
L 123.936225 73.439517 
L 123.806928 73.253802 
L 123.677632 73.310945 
L 123.548336 72.996657 
L 123.289743 74.739526 
L 123.160447 74.153808 
L 122.901854 70.010923 
L 122.643261 71.682363 
L 122.384668 73.410946 
L 121.996779 82.753864 
L 121.867483 82.639578 
L 121.221001 71.868078 
L 121.091705 72.282367 
L 120.962408 72.16808 
L 120.703816 73.739519 
L 120.315927 80.610993 
L 120.057334 79.482414 
L 119.798741 80.910995 
L 119.669445 82.753864 
L 119.540148 81.925287 
L 119.410852 80.096704 
L 119.152259 72.425225 
L 119.022963 72.16808 
L 118.635074 78.26812 
L 118.505778 77.710974 
L 118.247185 75.539531 
L 117.988592 77.210971 
L 117.859296 77.310971 
L 117.471407 73.553804 
L 117.34211 73.968092 
L 117.212814 73.896663 
L 116.954221 71.596648 
L 116.824925 72.482368 
L 116.437036 81.182425 
L 116.307739 80.768137 
L 115.91985 70.582356 
L 115.531961 75.468102 
L 115.273368 71.668077 
L 115.144072 72.082366 
L 115.014776 72.296653 
L 114.49759 79.082412 
L 114.368294 77.953833 
L 113.980405 68.868059 
L 113.851108 70.382354 
L 113.592516 77.096684 
L 113.463219 77.953833 
L 113.07533 73.996664 
L 112.816738 73.83952 
L 112.687441 73.739519 
L 112.558145 73.082372 
L 112.170256 66.625187 
L 112.040959 66.525186 
L 111.911663 66.225184 
L 111.65307 68.639486 
L 111.65307 68.768058 
L 111.394478 67.496621 
L 111.135885 73.996664 
L 111.006589 73.982378 
L 110.618699 64.182314 
L 110.360107 66.939475 
L 110.23081 66.939475 
L 110.101514 64.996605 
L 109.972218 65.768038 
L 109.842921 68.396627 
L 109.584329 76.453823 
L 109.455032 76.753825 
L 109.067143 68.596628 
L 108.679254 65.982325 
L 108.549958 66.482329 
L 108.420661 66.496615 
L 108.291365 68.025196 
L 108.032772 67.596622 
L 107.903476 65.96804 
L 107.774179 66.425186 
L 107.515587 71.139502 
L 107.38629 70.910929 
L 106.998401 64.825175 
L 106.869105 64.268029 
L 106.610512 61.239437 
L 106.351919 58.267989 
L 106.222623 59.167995 
L 105.705438 71.45379 
L 105.576141 70.082352 
L 105.188252 63.796597 
L 105.058956 63.639453 
L 104.92966 61.682297 
L 104.92966 59.410854 
L 104.800363 58.839421 
L 104.412474 66.610901 
L 104.024585 57.096553 
L 103.895289 56.410834 
L 103.765992 56.996552 
L 103.378103 62.982306 
L 103.248807 63.596596 
L 103.11951 64.839461 
L 102.990214 64.725174 
L 102.602325 60.439432 
L 102.343732 62.139443 
L 102.214436 62.79659 
L 101.69725 54.710823 
L 101.567954 55.067968 
L 101.438658 54.839395 
L 101.180065 51.939376 
L 100.792176 50.196507 
L 100.66288 50.253651 
L 100.27499 54.03939 
L 100.145694 52.939383 
L 99.887101 53.167956 
L 99.628509 55.225112 
L 99.499212 55.710829 
L 99.369916 55.596543 
L 99.24062 55.310827 
L 98.85273 51.010799 
L 98.464841 46.782199 
L 98.335545 48.296495 
L 98.206249 52.382236 
L 98.076952 50.310794 
L 97.689063 40.539301 
L 97.559767 41.810738 
L 97.171878 51.296515 
L 96.525396 37.639282 
L 96.3961 37.296423 
L 96.266803 38.439287 
L 95.749618 45.72505 
L 95.620321 44.925044 
L 95.361729 42.310741 
L 95.232432 43.796465 
L 94.97384 50.510795 
L 94.844543 50.853655 
L 94.456654 43.182176 
L 94.198061 45.782193 
L 94.068765 45.325047 
L 93.810172 41.067876 
L 93.680876 40.967875 
L 93.55158 41.996454 
L 93.422283 40.710731 
L 93.163691 35.767841 
L 93.034394 37.139279 
L 92.775801 42.596458 
L 92.646505 41.196448 
L 92.387912 37.16785 
L 92.000023 41.796452 
L 91.870727 40.110727 
L 91.741431 40.925018 
L 91.612134 43.239319 
L 91.612134 46.067909 
L 91.482838 45.025045 
L 91.224245 40.967875 
L 90.965652 42.967889 
L 90.836356 42.696458 
L 90.448467 38.167857 
L 90.319171 38.525002 
L 90.060578 40.839303 
L 89.931281 40.910732 
L 89.801985 41.453593 
L 89.543392 43.096461 
L 89.414096 41.182163 
L 89.026207 32.29639 
L 88.896911 33.324968 
L 88.509022 40.896446 
L 88.379725 40.425015 
L 87.86254 33.496398 
L 87.603947 38.610717 
L 87.474651 37.853569 
L 87.216058 31.224954 
L 87.086762 32.524963 
L 86.828169 37.424995 
L 86.698872 36.239273 
L 86.310983 29.696373 
L 85.923094 40.410729 
L 85.793798 38.66786 
L 85.535205 30.024946 
L 85.405909 28.967797 
L 85.276612 29.753516 
L 85.147316 29.224941 
L 84.888723 27.682074 
L 84.888723 29.367799 
L 84.500834 35.182123 
L 84.371538 35.853556 
L 83.983649 42.425028 
L 83.854352 40.053584 
L 83.59576 31.639243 
L 83.466463 31.253526 
L 83.078574 39.11072 
L 82.690685 34.324975 
L 82.044203 40.425015 
L 81.914907 39.539295 
L 81.527018 33.982115 
L 81.397722 34.410689 
L 80.75124 41.425021 
L 80.492647 36.339274 
L 80.363351 36.296416 
L 80.104758 42.925031 
L 79.975462 43.896466 
L 79.458276 34.967836 
L 79.32898 36.224987 
L 78.941091 45.625049 
L 78.811794 46.296482 
L 78.553202 44.682186 
L 78.294609 41.482165 
L 78.165313 41.83931 
L 78.165313 43.896466 
L 78.036016 45.853622 
L 77.777423 42.253598 
L 77.648127 40.625016 
L 77.518831 41.025019 
L 77.260238 43.710751 
L 77.130942 43.425034 
L 76.872349 38.539288 
L 76.743053 38.810718 
L 76.48446 45.782193 
L 76.355163 46.525055 
L 76.225867 43.88218 
L 76.096571 43.810751 
L 75.967274 46.025052 
L 75.837978 50.467938 
L 75.708682 50.082221 
L 75.320793 44.439327 
L 75.191496 44.510756 
L 75.0622 44.753615 
L 74.803607 43.453606 
L 74.415718 39.953583 
L 74.286422 41.725023 
L 74.027829 48.21078 
L 73.898533 48.782212 
L 73.769236 48.796498 
L 73.63994 49.553646 
L 73.381347 54.167962 
L 73.252051 53.410814 
L 72.864162 42.89646 
L 72.734865 43.61075 
L 72.346976 50.125078 
L 72.21768 50.339366 
L 71.959087 46.925057 
L 71.829791 48.296495 
L 71.571198 52.182235 
L 71.571198 50.453652 
L 71.312605 48.65364 
L 71.054013 47.782206 
L 70.924716 48.153637 
L 70.666124 49.639361 
L 70.148938 52.253664 
L 70.019642 51.65366 
L 69.890345 52.110806 
L 69.761049 51.525088 
L 69.631753 51.996519 
L 69.37316 48.082208 
L 69.114567 43.896466 
L 68.468085 49.910791 
L 68.080196 58.853707 
L 67.9509 58.839421 
L 67.433714 51.682232 
L 66.916529 47.039344 
L 66.657936 52.639381 
L 66.399344 58.553705 
L 66.011455 60.810863 
L 65.882158 60.453718 
L 65.623565 56.882266 
L 65.494269 56.453691 
L 65.235676 54.196534 
L 65.10638 52.596523 
L 64.977084 52.71081 
L 64.847787 51.525088 
L 64.847787 48.839356 
L 64.589195 43.482178 
L 64.459898 43.353605 
L 64.330602 44.610757 
L 63.942713 53.382243 
L 63.554824 55.039396 
L 63.425527 54.739394 
L 63.296231 53.182241 
L 63.166935 53.182241 
L 62.908342 51.996519 
L 62.649749 47.239345 
L 62.520453 47.182202 
L 62.391156 47.253631 
L 62.26186 47.05363 
L 62.132564 45.496477 
L 62.003267 46.353625 
L 61.615378 56.667979 
L 61.486082 55.753687 
L 61.098193 49.153644 
L 60.968896 49.939363 
L 60.581007 59.25371 
L 60.451711 60.396575 
L 60.322415 60.539433 
L 59.934525 52.510808 
L 59.41734 54.110819 
L 59.158747 58.382276 
L 58.900155 62.725161 
L 58.770858 62.725161 
L 58.512266 59.52514 
L 58.382969 58.582277 
L 58.253673 58.682278 
L 58.253673 56.925123 
L 57.99508 52.796525 
L 57.865784 54.025104 
L 57.607191 57.867986 
L 57.348598 56.182261 
L 57.219302 56.125118 
L 57.090006 55.882259 
L 56.702116 49.153644 
L 56.184931 59.067994 
L 56.055635 59.439425 
L 55.667746 57.325126 
L 55.538449 58.182274 
L 55.409153 58.225132 
L 55.279856 58.667992 
L 54.762671 57.025124 
L 54.504078 59.325139 
L 54.374782 58.353704 
L 53.986893 51.410801 
L 53.857596 51.810804 
L 53.599004 54.239391 
L 53.469707 53.539387 
L 53.081818 46.382197 
L 52.823226 48.696498 
L 52.693929 48.239352 
L 52.564633 46.925057 
L 52.435336 47.510776 
L 52.047447 53.010812 
L 51.918151 52.939383 
L 51.659558 54.367963 
L 51.530262 53.653673 
L 51.530262 52.98224 
L 51.400966 54.167962 
L 51.142373 60.068001 
L 51.013077 59.539426 
L 50.495891 46.939343 
L 49.849409 50.76794 
L 49.590817 52.925097 
L 49.46152 52.796525 
L 49.332224 52.925097 
L 49.202927 54.325106 
L 49.073631 54.496536 
L 48.944335 54.410821 
L 48.815038 54.839395 
L 48.556446 59.482283 
L 48.427149 59.839428 
L 47.909964 55.225112 
L 47.780667 55.167969 
L 47.651371 55.596543 
L 47.263482 59.810856 
L 47.134186 59.353711 
L 46.875593 57.053695 
L 46.746297 57.367983 
L 46.617 58.439419 
L 46.487704 57.882272 
L 46.099815 53.196527 
L 45.970518 53.739388 
L 45.841222 55.410827 
L 45.582629 61.668011 
L 45.453333 62.053728 
L 44.677555 51.267943 
L 44.548258 50.667939 
L 44.289666 53.910818 
L 44.160369 56.625121 
L 44.289666 57.153696 
L 44.548258 59.053709 
L 44.677555 59.339425 
L 44.806851 57.425126 
L 44.806851 54.239391 
L 44.936147 52.896525 
L 45.065444 54.082247 
L 45.324037 57.010838 
L 45.453333 56.553692 
L 45.582629 55.667972 
L 45.841222 56.653693 
L 46.358407 64.796603 
L 46.487704 63.996598 
L 47.004889 56.382262 
L 47.392778 59.710856 
L 47.780667 63.939455 
L 47.909964 63.810883 
L 48.03926 64.853747 
L 48.168557 64.882318 
L 48.297853 64.196599 
L 48.944335 53.639387 
L 49.073631 53.382243 
L 49.590817 57.110839 
L 49.978706 64.868032 
L 50.108002 63.41088 
L 50.366595 59.039423 
L 50.495891 60.31086 
L 50.88378 66.525186 
L 51.013077 65.482322 
L 51.271669 62.025157 
L 51.530262 62.496588 
L 51.530262 61.63944 
L 51.788855 60.639433 
L 52.176744 63.982312 
L 52.30604 63.353737 
L 52.435336 63.625167 
L 52.823226 56.010831 
L 52.952522 56.025117 
L 53.211115 59.582283 
L 53.599004 68.082339 
L 53.7283 68.325198 
L 54.116189 57.810843 
L 54.245486 57.967987 
L 54.633375 68.239483 
L 54.762671 68.282341 
L 55.15056 73.553804 
L 55.279856 73.282373 
L 55.409153 72.453797 
L 55.538449 72.696655 
L 55.667746 73.510946 
L 55.797042 72.468082 
L 56.055635 66.568044 
L 56.184931 67.982339 
L 56.443524 73.696662 
L 56.702116 65.18232 
L 56.831413 61.039436 
L 56.960709 61.439439 
L 57.348598 68.253769 
L 57.477895 69.168061 
L 57.607191 69.039488 
L 57.736487 68.639486 
L 58.124376 63.425166 
L 58.253673 65.396607 
L 58.253673 68.996631 
L 58.382969 71.168074 
L 58.512266 70.382354 
L 58.900155 60.568004 
L 59.029451 62.79659 
L 59.41734 75.325244 
L 59.934525 65.682324 
L 60.063822 65.396607 
L 60.193118 64.168028 
L 60.451711 65.053748 
L 60.8396 69.253776 
L 61.098193 73.282373 
L 61.227489 74.125236 
L 61.486082 69.210918 
L 61.744675 63.725168 
L 61.873971 64.353743 
L 62.26186 68.339484 
L 62.391156 68.096625 
L 62.520453 66.710902 
L 62.908342 68.725201 
L 63.296231 64.91089 
L 63.425527 63.58231 
L 63.554824 63.525166 
L 63.813416 69.85378 
L 64.072009 75.525245 
L 64.201305 75.910962 
L 64.589195 69.568063 
L 64.718491 70.139496 
L 64.847787 71.368075 
L 64.847787 71.168074 
L 65.10638 68.853773 
L 65.235676 69.33949 
L 65.364973 70.382354 
L 65.623565 73.525232 
L 65.752862 73.310945 
L 66.140751 64.46803 
L 66.270047 64.682317 
L 66.399344 65.882325 
L 66.916529 77.839546 
L 67.045825 76.596681 
L 67.304418 68.982345 
L 67.433714 67.810909 
L 67.692307 69.925209 
L 67.821604 69.053774 
L 68.338789 62.925163 
L 68.468085 64.896604 
L 68.726678 73.339517 
L 68.855974 74.353809 
L 69.114567 70.810929 
L 69.243864 71.082359 
L 69.761049 77.3824 
L 70.019642 74.525239 
L 70.536827 67.46805 
L 70.666124 67.725194 
L 71.183309 77.482401 
L 71.441902 79.639558 
L 71.571198 79.32527 
L 71.571198 76.296679 
L 71.829791 70.539498 
L 72.346976 67.810909 
L 72.476273 68.068053 
L 73.122754 78.039548 
L 73.510644 74.953813 
L 73.898533 68.668057 
L 74.027829 68.168054 
L 74.545014 76.339536 
L 74.674311 75.968105 
L 74.932903 72.810942 
L 75.0622 73.282373 
L 75.320793 75.139529 
L 75.579385 74.153808 
L 75.837978 76.739539 
L 75.967274 77.182399 
L 76.225867 76.05382 
L 76.48446 76.125249 
L 77.130942 80.710994 
L 77.260238 80.496707 
L 77.389534 78.696695 
L 77.777423 69.725207 
L 78.165313 81.868144 
L 78.165313 82.553863 
L 78.294609 81.010996 
L 78.553202 75.768104 
L 78.682498 75.582389 
L 78.811794 76.810968 
L 79.199683 72.396653 
L 79.587573 83.111009 
L 79.716869 82.668149 
L 80.104758 76.268107 
L 80.234054 76.853825 
L 80.363351 76.253822 
L 80.492647 77.310971 
L 80.621943 75.853819 
L 81.009833 81.553856 
L 81.268425 80.753851 
L 81.527018 77.3824 
L 81.656314 76.768111 
L 81.914907 79.882417 
L 82.044203 79.968132 
L 82.302796 77.99669 
L 82.432092 78.425264 
L 82.690685 80.21099 
L 82.949278 80.739565 
L 83.078574 80.610993 
L 83.207871 79.925274 
L 83.59576 71.18236 
L 83.725056 71.482362 
L 84.242242 78.282406 
L 84.630131 78.953839 
L 84.888723 78.33955 
L 84.888723 77.096684 
L 85.01802 77.439544 
L 85.147316 78.496693 
L 85.405909 82.49672 
L 85.535205 83.55387 
L 85.793798 82.125289 
L 86.310983 75.982391 
L 86.44028 76.082392 
L 86.569576 76.753825 
L 87.086762 84.896735 
L 87.216058 84.668163 
L 87.474651 81.225283 
L 87.603947 79.339556 
L 87.733243 79.710987 
L 87.86254 80.782423 
L 88.121132 83.811014 
L 88.250429 85.396739 
L 88.379725 85.511025 
L 88.638318 86.025314 
L 88.767614 86.239601 
L 88.896911 86.125315 
L 89.026207 85.553883 
L 89.2848 90.682488 
L 89.414096 93.125361 
L 89.543392 92.711073 
L 90.189874 79.982417 
L 90.319171 80.025275 
L 90.448467 80.082418 
L 90.577763 81.582428 
L 90.965652 94.468227 
L 91.094949 94.111082 
L 91.612134 85.711027 
L 91.741431 86.796748 
L 91.870727 86.882463 
L 92.000023 86.053886 
L 92.12932 85.982457 
L 92.387912 87.653896 
L 92.905098 84.88245 
L 93.163691 83.639584 
L 93.422283 85.15388 
L 93.810172 94.768229 
L 93.939469 93.482506 
L 94.327358 86.625318 
L 94.456654 86.425317 
L 94.844543 83.939586 
L 95.103136 88.368187 
L 95.361729 92.182498 
L 95.620321 89.082477 
L 95.749618 89.853911 
L 96.137507 97.25396 
L 96.266803 97.896821 
L 96.3961 97.782534 
L 96.654692 94.553942 
L 96.783989 94.511084 
L 96.913285 95.511091 
L 97.042581 97.453961 
L 97.171878 96.696813 
L 97.301174 94.496799 
L 97.559767 88.139614 
L 97.689063 88.725332 
L 97.947656 93.539649 
L 98.076952 93.825366 
L 98.335545 88.653903 
L 98.464841 89.182478 
L 98.723434 88.525331 
L 98.85273 88.468188 
L 98.982027 89.596766 
L 99.369916 96.396811 
L 99.757805 94.268226 
L 100.016398 94.325369 
L 100.145694 92.782502 
L 100.404287 94.996802 
L 100.533583 97.853963 
L 100.921472 91.768209 
L 101.309361 102.225421 
L 101.438658 102.225421 
L 101.567954 101.196843 
L 101.69725 101.06827 
L 102.08514 105.325441 
L 102.343732 98.296824 
L 102.602325 92.825359 
L 102.731621 93.453935 
L 103.11951 99.496831 
L 103.248807 99.411117 
L 103.5074 98.696826 
L 103.895289 97.325389 
L 104.024585 97.925393 
L 104.153881 99.082543 
L 104.54177 105.854016 
L 104.671067 106.296876 
L 104.92966 104.054004 
L 104.92966 101.282557 
L 105.446845 95.796807 
L 105.705438 99.1254 
L 105.834734 99.768262 
L 106.351919 96.63967 
L 106.481216 96.696813 
L 106.610512 95.539663 
L 106.739809 95.639663 
L 106.869105 94.468227 
L 107.127698 95.339661 
L 107.38629 97.868249 
L 107.515587 97.882535 
L 107.644883 97.69682 
L 107.774179 97.168245 
L 107.903476 98.211109 
L 108.291365 106.168304 
L 108.549958 98.296824 
L 108.679254 98.896827 
L 108.937847 104.982582 
L 109.325736 97.739677 
L 109.455032 98.41111 
L 109.584329 98.282538 
L 109.713625 97.953964 
L 109.842921 98.568254 
L 110.101514 102.839711 
L 110.360107 103.039712 
L 110.618699 105.454013 
L 110.747996 105.096868 
L 110.877292 105.368299 
L 111.006589 104.082576 
L 111.135885 103.911146 
L 111.265181 102.639709 
L 111.394478 103.253999 
L 111.523774 102.939711 
L 111.65307 103.639716 
L 111.65307 102.882568 
L 111.782367 102.668281 
L 112.040959 99.111115 
L 112.170256 99.411117 
L 112.299552 102.168278 
L 112.428849 102.068277 
L 112.687441 98.068251 
L 112.816738 99.196829 
L 113.07533 105.196869 
L 113.333923 109.411182 
L 113.463219 108.868322 
L 113.851108 102.496851 
L 113.980405 102.253992 
L 114.49759 107.111167 
L 114.885479 101.539702 
L 115.273368 105.082582 
L 115.531961 102.725424 
L 115.790554 105.354013 
L 115.91985 106.668307 
L 116.049147 105.73973 
L 116.695628 97.511104 
L 116.824925 97.053958 
L 116.954221 97.396818 
L 117.083518 98.811113 
L 117.34211 97.582533 
L 117.471407 98.282538 
L 117.859296 107.411169 
L 118.247185 98.882542 
L 118.505778 101.282557 
L 118.76437 104.725437 
L 118.893667 104.51115 
L 119.022963 101.996848 
L 119.152259 102.111134 
L 119.281556 103.868289 
L 119.540148 110.139758 
L 119.669445 109.482611 
L 120.057334 101.039699 
L 120.445223 97.382532 
L 120.574519 97.496818 
L 120.833112 100.268265 
L 120.962408 100.811126 
L 121.091705 100.196836 
L 121.350297 102.053991 
L 121.60889 104.125433 
L 121.738187 103.854003 
L 122.126076 98.13968 
L 122.255372 98.482539 
L 122.384668 100.196836 
L 122.513965 99.982549 
L 122.643261 100.153979 
L 122.772557 99.453974 
L 122.901854 99.482546 
L 123.160447 98.082536 
L 123.289743 97.811106 
L 123.677632 99.239687 
L 123.806928 98.58254 
L 124.065521 99.625404 
L 124.324114 102.282564 
L 124.45341 103.196856 
L 124.712003 103.382571 
L 124.841299 103.825431 
L 124.970596 105.011153 
L 124.970596 106.554021 
L 125.099892 106.339733 
L 125.358485 103.739716 
L 125.746374 109.55404 
L 126.263559 99.668261 
L 126.651448 97.139673 
L 126.910041 97.925393 
L 127.039337 97.425389 
L 127.29793 99.1254 
L 127.556523 101.85399 
L 127.685819 101.396844 
L 128.203005 90.796774 
L 128.332301 91.925353 
L 128.72019 100.753983 
L 129.108079 95.539663 
L 129.237376 95.31109 
L 129.495968 91.925353 
L 129.625265 93.068218 
L 129.883857 99.282544 
L 130.14245 97.939678 
L 130.918228 93.825366 
L 131.047525 94.339655 
L 131.176821 94.211082 
L 131.694006 99.453974 
L 131.823303 98.839684 
L 132.340488 93.053932 
L 132.469785 93.582507 
L 133.116266 100.468266 
L 133.245563 100.853983 
L 133.374859 100.596839 
L 133.762748 105.311155 
L 133.892045 103.696859 
L 134.150637 98.025393 
L 134.279934 97.682534 
L 134.40923 97.011101 
L 134.538526 95.182517 
L 134.797119 90.139627 
L 134.926416 91.211063 
L 135.185008 95.053945 
L 135.443601 93.396791 
L 135.572897 94.982516 
L 135.960786 103.725431 
L 136.090083 105.011153 
L 136.219379 105.082582 
L 136.348675 103.596858 
L 136.736565 95.539663 
L 136.995157 95.039659 
L 137.383046 98.382538 
L 137.641639 98.253966 
L 137.770935 97.153959 
L 138.029528 98.13968 
L 138.288121 101.253986 
L 138.288121 103.282571 
L 138.417417 103.839717 
L 138.934603 100.52541 
L 139.193195 96.811099 
L 139.581085 103.539715 
L 139.839677 99.653975 
L 140.227566 94.311083 
L 140.356863 95.225375 
L 140.615455 98.311109 
L 140.874048 96.153952 
L 141.003345 96.753956 
L 141.261937 101.939705 
L 141.391234 102.182563 
L 141.649826 98.711112 
L 141.779123 98.439682 
L 142.037715 100.953984 
L 142.167012 99.382545 
L 142.554901 89.825339 
L 142.813494 94.996802 
L 142.94279 97.325389 
L 143.072086 97.568247 
L 143.330679 95.539663 
L 143.459975 95.682521 
L 143.718568 99.068257 
L 143.977161 102.625423 
L 144.106457 101.939705 
L 144.235754 100.125407 
L 144.494346 94.511084 
L 144.623643 93.511078 
L 145.011532 100.139693 
L 145.011532 101.41113 
L 145.140828 102.182563 
L 145.270124 101.296843 
L 145.399421 101.525416 
L 145.916606 97.69682 
L 146.045903 97.382532 
L 146.433792 94.653942 
L 146.692384 92.03964 
L 146.821681 92.153926 
L 147.080274 95.525377 
L 147.20957 95.182517 
L 147.338866 93.168218 
L 147.597459 93.725365 
L 147.726755 93.568221 
L 147.856052 94.396798 
L 147.985348 96.653956 
L 148.243941 103.01114 
L 148.373237 102.768281 
L 148.761126 93.396791 
L 149.019719 97.782534 
L 149.149015 100.511124 
L 149.278312 100.596839 
L 149.795497 95.268232 
L 150.05409 93.739651 
L 150.312683 95.639663 
L 150.441979 95.039659 
L 150.700572 96.396811 
L 150.829868 98.611111 
L 151.088461 97.111101 
L 151.217757 95.839665 
L 151.47635 98.625397 
L 151.605646 100.511124 
L 151.734943 99.853977 
L 152.122832 95.011088 
L 152.252128 95.696806 
L 152.510721 99.825405 
L 152.640017 100.153979 
L 153.286499 95.611092 
L 153.415795 95.725378 
L 153.545092 94.982516 
L 153.932981 95.253946 
L 154.062277 94.282511 
L 154.191573 94.553942 
L 154.32087 95.968237 
L 154.450166 99.182544 
L 154.579463 99.382545 
L 154.708759 97.711105 
L 154.967352 92.839645 
L 155.225944 93.082504 
L 155.484537 97.768249 
L 155.74313 104.282577 
L 155.872426 103.939718 
L 156.131019 100.039692 
L 156.389612 97.996822 
L 156.648204 93.36822 
L 156.906797 96.29681 
L 157.16539 91.853924 
L 157.294686 91.896781 
L 157.682575 105.925445 
L 157.811872 106.054017 
L 158.070464 99.839691 
L 158.199761 97.053958 
L 158.329057 97.653962 
L 158.329057 100.311122 
L 158.58765 103.825431 
L 158.846242 103.068283 
L 159.234132 97.939678 
L 159.363428 98.568254 
L 159.492724 98.368253 
L 159.751317 94.939659 
L 160.00991 100.925412 
L 160.139206 103.768288 
L 160.268502 102.725424 
L 160.527095 99.925406 
L 160.656392 100.339694 
L 161.044281 103.339714 
L 161.173577 103.239713 
L 161.302873 103.554001 
L 161.43217 102.768281 
L 161.690762 103.511143 
L 161.820059 103.939718 
L 162.207948 107.882601 
L 162.983726 99.725404 
L 163.242319 101.011127 
L 163.371615 101.225414 
L 163.630208 98.13968 
L 164.018097 95.682521 
L 164.147393 95.225375 
L 164.405986 97.568247 
L 164.664579 99.353973 
L 164.793875 100.125407 
L 164.923172 99.582546 
L 165.052468 99.811119 
L 165.052468 99.068257 
L 165.311061 100.996841 
L 165.69895 107.268311 
L 165.828246 106.396877 
L 166.086839 99.039686 
L 166.216135 97.69682 
L 166.474728 102.282564 
L 166.604024 103.382571 
L 166.991913 99.525403 
L 167.12121 99.325402 
L 167.250506 98.025393 
L 167.509099 95.025373 
L 167.896988 104.111147 
L 168.026284 102.282564 
L 168.414173 94.153939 
L 168.54347 94.35394 
L 168.931359 101.196843 
L 169.189951 102.982569 
L 169.577841 95.31109 
L 170.612211 106.782594 
L 171.129397 104.282577 
L 171.258693 101.68256 
L 171.38799 101.325415 
L 171.517286 103.554001 
L 171.646582 110.225473 
L 172.034471 102.925425 
L 172.163768 102.996854 
L 172.422361 102.525423 
L 172.551657 102.896854 
L 172.81025 104.568293 
L 172.939546 103.79686 
L 173.198139 100.911126 
L 173.327435 101.668274 
L 173.715324 109.968329 
L 173.84462 109.839756 
L 173.973917 108.096888 
L 174.23251 108.025459 
L 174.361806 108.311175 
L 174.620399 103.939718 
L 174.749695 103.939718 
L 175.008288 108.439747 
L 175.137584 108.254032 
L 175.65477 100.382552 
L 175.913362 104.211148 
L 176.042659 105.054011 
L 176.171955 104.911153 
L 176.430548 106.096875 
L 176.947733 101.753989 
L 177.07703 103.539715 
L 177.464919 113.725496 
L 177.594215 112.839776 
L 177.852808 106.439734 
L 177.982104 105.239726 
L 178.757882 109.925471 
L 178.887179 109.654041 
L 179.404364 104.639722 
L 179.53366 104.539722 
L 179.662957 104.225434 
L 179.792253 105.968302 
L 179.92155 105.496871 
L 180.180142 108.525462 
L 180.438735 118.611243 
L 180.568031 118.982674 
L 180.95592 107.025452 
L 181.085217 108.05403 
L 181.731699 121.354118 
L 181.860995 120.696971 
L 181.990291 119.09696 
L 182.119588 120.282682 
L 182.248884 120.282682 
L 182.37818 119.696964 
L 182.636773 116.911232 
L 182.766069 117.368377 
L 184.188329 142.554257 
L 184.576219 139.382808 
L 184.705515 140.56853 
L 185.093404 138.511373 
L 185.093404 140.454243 
L 185.2227 142.025682 
L 185.351997 141.425678 
L 185.610589 138.382801 
L 185.869182 140.011383 
L 185.998479 138.782804 
L 186.257071 135.568497 
L 186.515664 141.325678 
L 186.903553 150.425737 
L 187.162146 157.597213 
L 187.291442 161.782955 
L 187.420739 162.340101 
L 188.06722 149.182872 
L 188.196517 150.740025 
L 188.713702 165.840124 
L 189.101591 160.154373 
L 189.230888 161.068664 
L 189.48948 164.640117 
L 189.618777 163.540109 
L 189.877369 160.98295 
L 190.006666 161.640097 
L 190.135962 160.954378 
L 190.394555 157.997216 
L 190.653148 160.882949 
L 190.91174 165.982982 
L 191.041037 167.997281 
L 191.170333 167.282991 
L 191.558222 170.825871 
L 191.687518 170.097295 
L 191.946111 167.96871 
L 192.204704 164.882975 
L 192.334 164.768689 
L 192.851186 174.397323 
L 192.980482 173.268745 
L 193.109778 170.511584 
L 193.239075 170.440155 
L 193.368371 170.583013 
L 193.497668 170.540155 
L 193.885557 163.940112 
L 194.014853 164.040113 
L 194.273446 170.340154 
L 194.402742 171.68302 
L 194.790631 166.240127 
L 194.919928 167.325848 
L 195.049224 166.597272 
L 195.307817 162.482959 
L 195.566409 164.540116 
L 195.695706 164.040113 
L 195.954298 159.125795 
L 196.083595 158.86865 
L 196.212891 160.268659 
L 196.342188 160.011515 
L 196.730077 162.654389 
L 196.859373 163.354394 
L 196.988669 163.411537 
L 197.117966 163.125821 
L 197.635151 160.654376 
L 197.764447 160.240088 
L 198.152337 157.040067 
L 198.540226 152.482894 
L 198.669522 152.982897 
L 198.928115 155.982917 
L 199.186707 157.025781 
L 199.316004 155.311484 
L 199.574597 148.154294 
L 199.703893 147.840006 
L 200.350375 153.4829 
L 200.479671 152.897182 
L 200.996857 146.468569 
L 201.126153 146.525712 
L 201.514042 144.339983 
L 201.772635 148.697155 
L 202.031227 155.15434 
L 202.160524 152.954325 
L 202.419117 142.054254 
L 202.548413 140.768531 
L 202.677709 141.239963 
L 203.324191 146.425711 
L 203.71208 139.554237 
L 203.970673 141.097105 
L 204.099969 142.16854 
L 204.229266 142.039968 
L 204.617155 137.082793 
L 204.746451 138.125657 
L 205.005044 144.11141 
L 205.263636 143.311405 
L 205.392933 142.011396 
L 205.651526 138.825661 
L 205.780822 138.582802 
L 206.039415 140.854246 
L 206.298007 142.925688 
L 206.427304 143.297119 
L 206.815193 138.968519 
L 207.073786 140.468529 
L 207.203082 142.16854 
L 207.332378 141.668537 
L 207.461675 141.739966 
L 207.590971 140.654245 
L 207.720267 140.511387 
L 208.108156 135.125637 
L 208.625342 133.168481 
L 208.883935 131.868473 
L 209.013231 132.539906 
L 209.271824 137.56851 
L 209.40112 137.56851 
L 209.659713 132.597049 
L 209.789009 134.29706 
L 210.047602 140.211385 
L 210.694084 132.482762 
L 210.82338 132.282761 
L 211.081973 132.639906 
L 211.469862 135.468496 
L 211.728455 131.239897 
L 212.24564 138.211371 
L 212.374936 137.897084 
L 212.633529 134.668491 
L 212.762825 134.12563 
L 213.021418 136.325645 
L 213.409307 137.654225 
L 213.538604 137.239937 
L 213.797196 131.182754 
L 213.926493 130.239891 
L 214.185085 134.511347 
L 214.314382 135.754212 
L 214.960864 131.368469 
L 215.09016 132.125617 
L 215.478049 136.482789 
L 215.736642 135.054208 
L 216.124531 137.382795 
L 216.383124 136.654218 
L 216.51242 136.568504 
L 216.641716 135.311352 
L 217.029605 129.297027 
L 217.417495 136.154215 
L 217.676087 133.311339 
L 217.93468 130.797037 
L 218.322569 133.8542 
L 218.451865 133.282768 
L 218.451865 131.997045 
L 218.710458 129.182741 
L 219.098347 133.711342 
L 219.486236 124.725569 
L 219.744829 126.69701 
L 219.874125 126.368437 
L 220.132718 124.425567 
L 220.391311 130.239891 
L 220.649904 136.097072 
L 220.7792 136.668504 
L 221.554978 127.454158 
L 221.684274 127.75416 
L 221.813571 128.63988 
L 222.072164 127.397015 
L 222.20146 129.225598 
L 222.589349 138.325658 
L 222.718645 137.425652 
L 222.977238 132.582763 
L 223.106534 131.654186 
L 223.235831 132.682764 
L 223.494424 130.797037 
L 223.62372 128.697023 
L 223.753016 128.782738 
L 224.140905 135.168494 
L 224.270202 133.23991 
L 224.528794 126.625581 
L 224.658091 125.739861 
L 225.04598 132.439905 
L 225.04598 132.111331 
L 225.304573 127.011298 
L 225.563165 123.568418 
L 225.692462 123.768419 
L 225.951054 126.939869 
L 226.080351 125.682718 
L 226.209647 122.825556 
L 226.338944 123.111272 
L 226.985425 129.86846 
L 227.114722 129.711316 
L 227.373314 126.454151 
L 227.502611 128.397021 
L 227.761203 134.654205 
L 227.8905 133.468483 
L 228.149093 128.568451 
L 228.536982 131.597042 
L 228.666278 131.325612 
L 228.795574 132.125617 
L 228.924871 132.025617 
L 229.054167 132.382762 
L 229.571353 128.511308 
L 229.700649 127.211299 
L 229.959242 121.154117 
L 230.088538 121.368404 
L 230.605723 134.054201 
L 230.993613 126.782725 
L 231.122909 126.711296 
L 231.252205 126.897011 
L 231.381502 126.611295 
L 231.769391 123.611276 
L 231.769391 124.668425 
L 232.027983 125.882719 
L 232.286576 123.196987 
L 232.415873 123.896992 
L 232.545169 126.125578 
L 232.674465 125.925576 
L 232.803762 124.739854 
L 232.933058 122.168409 
L 233.062354 122.168409 
L 233.191651 122.011265 
L 233.320947 122.654126 
L 233.450243 122.682698 
L 233.708836 125.239858 
L 233.838133 125.125571 
L 233.967429 123.668419 
L 234.096725 123.811277 
L 234.484614 128.454165 
L 234.613911 127.797017 
L 234.743207 126.111292 
L 234.872503 125.954148 
L 235.131096 128.897025 
L 235.260392 127.339871 
L 235.648282 120.911258 
L 235.777578 120.8684 
L 236.165467 127.611302 
L 236.294763 126.482723 
L 236.553356 123.296988 
L 236.811949 124.882712 
L 236.941245 125.025571 
L 237.070542 124.31128 
L 237.199838 125.668432 
L 237.458431 125.997006 
L 237.587727 124.65414 
L 237.717023 124.568425 
L 237.84632 125.039856 
L 238.492802 129.297027 
L 238.492802 129.08274 
L 238.622098 128.754166 
L 238.880691 126.268436 
L 239.009987 126.397008 
L 239.26858 130.439892 
L 239.397876 129.782745 
L 239.785765 122.782699 
L 240.044358 121.896979 
L 240.173654 122.196981 
L 240.432247 125.297001 
L 240.561543 125.282715 
L 240.949432 116.325513 
L 241.078729 116.139798 
L 241.337322 122.339839 
L 241.595914 128.539879 
L 241.854507 130.782751 
L 241.983803 130.725608 
L 242.1131 129.882745 
L 242.371692 125.81129 
L 242.630285 119.325533 
L 242.759581 117.868381 
L 243.018174 119.211247 
L 243.147471 119.125532 
L 243.276767 118.054096 
L 243.406063 118.939816 
L 243.53536 120.59697 
L 243.793952 125.725575 
L 243.923249 127.254157 
L 244.311138 123.739848 
L 244.440434 124.339852 
L 244.569731 123.882706 
L 244.699027 121.882693 
L 244.95762 114.968362 
L 245.086916 114.439787 
L 245.086916 117.911238 
L 245.345509 124.13985 
L 245.733398 120.754114 
L 246.250583 124.639854 
L 246.767769 121.711263 
L 247.155658 127.168442 
L 247.543547 118.011239 
L 247.80214 124.48271 
L 247.931436 124.025564 
L 248.190029 118.911245 
L 248.319325 119.511249 
L 248.577918 122.325553 
L 248.836511 120.482684 
L 248.965807 120.668399 
L 249.2244 121.811264 
L 249.482992 118.711243 
L 249.870881 112.082628 
L 250.000178 114.482644 
L 250.388067 126.139864 
L 250.905252 121.996979 
L 251.293141 114.211214 
L 251.422438 114.654074 
L 251.810327 123.768419 
L 251.810327 123.325559 
L 252.06892 121.711263 
L 252.456809 126.997012 
L 252.586105 127.225585 
L 252.844698 125.468431 
L 253.10329 123.454132 
L 253.232587 123.296988 
L 253.620476 128.397021 
L 253.749772 127.054155 
L 254.137661 119.111246 
L 254.266958 118.954102 
L 254.52555 119.954109 
L 254.91344 126.754153 
L 255.301329 121.968408 
L 255.430625 122.9827 
L 255.818514 121.239831 
L 256.077107 123.296988 
L 256.206403 122.182695 
L 256.594292 109.968329 
L 256.723589 110.539761 
L 257.111478 120.939829 
L 257.240774 120.7684 
L 257.628663 125.482716 
L 257.757959 124.825569 
L 258.145849 118.439813 
L 258.275145 118.854101 
L 258.533738 121.539833 
L 258.663034 121.368404 
L 258.79233 121.582691 
L 259.180219 120.239825 
L 259.309516 120.411255 
L 259.826701 117.439806 
L 260.21459 119.71125 
L 260.343887 120.496969 
L 260.861072 126.125578 
L 261.507554 117.625522 
L 261.63685 117.782666 
L 261.895443 120.882686 
L 262.024739 120.211253 
L 262.671221 111.439767 
L 262.800518 112.411202 
L 263.188407 121.125545 
L 263.317703 119.468391 
L 263.446999 116.325513 
L 263.705592 117.839809 
L 263.834889 120.882686 
L 263.964185 120.954115 
L 264.093481 119.468391 
L 264.222778 115.854082 
L 264.352074 115.711224 
L 264.739963 122.739841 
L 264.869259 121.954122 
L 264.998556 123.111272 
L 265.127852 128.668452 
L 265.257148 127.511301 
L 265.645038 120.054109 
L 265.90363 117.93981 
L 266.032927 118.782672 
L 266.162223 118.839816 
L 266.550112 114.3255 
L 266.938001 118.38267 
L 267.067298 117.582665 
L 267.455187 121.511262 
L 267.584483 120.139824 
L 267.843076 114.025498 
L 267.972372 114.868361 
L 268.230965 119.682678 
L 268.360261 119.625535 
L 268.489558 120.096967 
L 268.618854 119.954109 
L 268.74815 121.296975 
L 268.877447 121.454119 
L 269.006743 120.654113 
L 269.394632 114.296929 
L 269.523928 113.854069 
L 269.782521 115.65408 
L 270.041114 118.882673 
L 270.17041 119.896965 
L 270.429003 120.15411 
L 270.558299 119.568392 
L 270.687596 119.996966 
L 270.946188 123.554132 
L 271.075485 122.654126 
L 271.334078 115.511222 
L 271.463374 114.368358 
L 271.59267 115.725509 
L 271.721967 115.539794 
L 271.851263 115.954082 
L 271.851263 116.411228 
L 271.980559 118.568385 
L 272.109856 118.468385 
L 272.239152 117.468378 
L 272.368448 117.439806 
L 272.627041 121.525548 
L 272.756337 121.325546 
L 272.885634 121.054116 
L 273.01493 120.211253 
L 273.144227 120.382683 
L 273.402819 121.954122 
L 273.532116 122.125551 
L 273.790708 117.282663 
L 273.920005 115.954082 
L 274.049301 117.168376 
L 274.178597 117.025518 
L 274.307894 117.182662 
L 274.43719 116.26837 
L 274.566487 117.025518 
L 274.695783 116.982661 
L 274.825079 117.711237 
L 275.212968 112.982634 
L 275.342265 114.111213 
L 275.730154 123.482703 
L 275.85945 124.096993 
L 275.988747 123.411274 
L 276.247339 117.711237 
L 276.635228 107.982601 
L 276.764525 108.511176 
L 277.152414 114.954076 
L 277.411007 121.254117 
L 277.540303 121.625548 
L 277.928192 115.796938 
L 278.316081 119.811251 
L 278.445377 118.48267 
L 278.574674 118.725529 
L 278.70397 117.525521 
L 279.091859 109.025465 
L 279.479748 115.482651 
L 279.609045 115.196935 
L 279.867637 113.768354 
L 280.12623 115.796938 
L 280.255526 116.768373 
L 280.514119 115.125506 
L 280.643416 115.611223 
L 281.031305 125.268429 
L 281.289897 123.268416 
L 281.677786 117.368377 
L 281.807083 118.311241 
L 281.936379 120.239825 
L 282.065676 120.296968 
L 282.194972 119.654107 
L 282.324268 117.639808 
L 282.582861 117.068375 
L 282.712157 117.682665 
L 282.841454 117.068375 
L 282.97075 117.468378 
L 283.100046 117.339806 
L 283.229343 118.911245 
L 283.358639 119.125532 
L 283.875825 122.939843 
L 284.134417 122.011265 
L 284.263714 121.882693 
L 284.39301 121.468404 
L 284.910196 114.511216 
L 285.168788 112.482631 
L 285.168788 114.368358 
L 285.427381 120.996973 
L 285.556677 120.296968 
L 285.81527 114.111213 
L 285.944566 115.38265 
L 286.203159 123.039843 
L 286.332456 122.668412 
L 286.849641 115.282649 
L 286.978937 115.468365 
L 287.108234 114.996933 
L 287.366826 115.568366 
L 287.625419 119.225532 
L 288.013308 127.082727 
L 288.142605 126.597009 
L 288.271901 124.325566 
L 288.65979 113.925498 
L 288.789086 113.26835 
L 288.918383 113.482638 
L 289.306272 120.739828 
L 289.435568 119.239818 
L 289.564865 119.26839 
L 289.694161 119.111246 
L 289.823457 120.468398 
L 289.952754 119.825536 
L 290.08205 120.011252 
L 290.211346 118.811244 
L 290.340643 118.854101 
L 290.469939 116.996946 
L 290.599235 117.05409 
L 290.728532 116.068369 
L 290.857828 116.782659 
L 291.245717 111.654054 
L 291.375014 112.525488 
L 291.633606 117.59695 
L 291.762903 118.068382 
L 291.892199 116.754088 
L 291.892199 114.025498 
L 292.150792 111.896913 
L 292.280088 113.739782 
L 292.667977 122.211266 
L 292.92657 116.739802 
L 293.055866 116.654087 
L 293.314459 122.354124 
L 293.443755 121.239831 
L 293.831645 110.839763 
L 293.960941 111.368338 
L 294.219534 114.725503 
L 294.607423 121.982693 
L 295.124608 115.039791 
L 295.253905 115.882653 
L 295.512497 118.225526 
L 295.900386 119.782679 
L 296.029683 119.71125 
L 296.417572 110.696905 
L 296.546868 113.154064 
L 296.805461 122.496983 
L 296.934757 124.054136 
L 297.064054 124.268423 
L 297.19335 124.768426 
L 297.322646 126.611295 
L 297.451943 126.582724 
L 297.839832 114.725503 
L 297.969128 116.011226 
L 298.227721 118.896959 
L 298.357017 118.196954 
L 298.61561 119.454105 
L 298.744906 118.525528 
L 299.003499 119.839822 
L 299.132795 122.039837 
L 299.262092 122.09698 
L 299.520684 118.239812 
L 299.649981 119.011245 
L 299.908574 122.225552 
L 300.425759 114.411215 
L 300.555055 114.796932 
L 300.813648 117.825523 
L 300.942944 117.954096 
L 301.072241 116.339799 
L 301.201537 116.668373 
L 301.718723 127.682731 
L 301.977315 121.896979 
L 302.235908 115.682652 
L 302.365204 114.139785 
L 302.494501 114.382643 
L 302.623797 114.268357 
L 302.753094 115.396936 
L 302.88239 115.225506 
L 303.011686 115.99694 
L 303.140983 118.582671 
L 303.399575 126.997012 
L 303.528872 125.939862 
L 303.787464 119.025531 
L 303.916761 119.09696 
L 304.30465 124.082707 
L 304.563243 122.9827 
L 304.692539 122.382696 
L 304.821835 123.354131 
L 304.951132 123.011272 
L 305.209724 119.668392 
L 305.209724 119.139818 
L 305.468317 125.068428 
L 305.597613 127.882732 
L 305.72691 127.897018 
L 306.114799 120.211253 
L 306.244095 119.511249 
L 306.373392 119.868394 
L 306.631984 122.039837 
L 306.761281 121.996979 
L 306.890577 121.21126 
L 307.019873 121.968408 
L 307.278466 126.782725 
L 307.407763 125.697004 
L 307.666355 118.296955 
L 307.795652 118.439813 
L 308.183541 130.468463 
L 308.57143 127.011298 
L 308.959319 134.068487 
L 309.347208 125.825576 
L 309.605801 127.739874 
L 309.864393 130.154176 
L 310.252283 136.882791 
L 310.510875 138.825661 
L 310.640172 138.382801 
L 311.028061 127.368443 
L 311.157357 127.554159 
L 311.674542 139.054234 
L 311.933135 140.211385 
L 311.933135 138.968519 
L 312.191728 135.282781 
L 312.579617 142.882831 
L 312.83821 140.825674 
L 313.355395 138.739946 
L 313.613988 141.939967 
L 314.001877 150.640025 
L 314.131173 150.854312 
L 314.519062 141.239963 
L 314.777655 147.340003 
L 315.165544 156.082917 
L 315.294841 157.568641 
L 315.424137 156.840065 
L 315.812026 151.2686 
L 315.941322 151.297172 
L 316.070619 152.311464 
L 316.458508 160.64009 
L 316.717101 156.997209 
L 316.846397 157.554356 
L 317.10499 163.482966 
L 317.234286 162.468674 
L 317.492879 156.997209 
L 317.622175 158.282932 
L 318.010064 166.511557 
L 318.139361 165.025833 
L 318.268657 165.397264 
L 318.397953 167.325848 
L 318.656546 177.225914 
L 318.915139 173.89732 
L 319.044435 174.411609 
L 319.173731 176.368765 
L 319.561621 189.640281 
L 319.690917 189.168849 
L 320.078806 181.954516 
L 320.208102 183.740242 
L 320.466695 191.397435 
L 320.595991 192.040297 
L 320.854584 188.083128 
L 320.983881 188.911705 
L 321.630362 202.026076 
L 322.018251 205.368956 
L 322.276844 202.711795 
L 322.406141 203.097512 
L 323.052622 217.169033 
L 323.311215 219.454762 
L 323.569808 216.526172 
L 323.699104 216.32617 
L 323.828401 216.740459 
L 324.21629 213.811868 
L 324.604179 217.797609 
L 324.992068 222.49764 
L 325.250661 223.054786 
L 325.250661 220.354768 
L 325.509253 218.397613 
L 326.026439 224.469081 
L 326.155735 223.0405 
L 326.285031 219.654764 
L 326.414328 219.340476 
L 326.67292 225.069085 
L 326.802217 223.769076 
L 327.06081 217.926181 
L 327.190106 217.82618 
L 327.448699 220.154767 
L 327.577995 219.05476 
L 327.965884 212.269001 
L 328.09518 212.769004 
L 328.48307 217.55475 
L 328.612366 218.097611 
L 328.741662 219.654764 
L 328.870959 219.340476 
L 329.388144 225.354801 
L 329.51744 224.111936 
L 329.90533 211.168994 
L 330.034626 212.197572 
L 330.293219 215.926168 
L 330.9397 207.954687 
L 331.068997 209.297553 
L 331.456886 220.169053 
L 331.844775 213.983298 
L 331.844775 211.097565 
L 332.36196 200.011777 
L 332.620553 198.740341 
L 333.008442 204.811809 
L 333.267035 204.054661 
L 333.396331 202.768938 
L 333.525628 202.983226 
L 333.78422 200.883212 
L 334.042813 196.52604 
L 334.172109 195.726035 
L 334.559999 203.754659 
L 334.689295 203.311799 
L 335.20648 194.511741 
L 335.335777 195.02603 
L 335.465073 195.054602 
L 335.723666 196.42604 
L 335.982259 198.654626 
L 336.111555 196.454611 
L 336.370148 188.854561 
L 336.499444 190.911718 
L 336.887333 200.254636 
L 337.016629 200.954641 
L 337.145926 200.340351 
L 337.275222 197.954621 
L 337.663111 186.411688 
L 337.792408 187.225979 
L 338.051 189.911711 
L 338.309593 193.497449 
L 338.568186 200.626067 
L 338.568186 200.097492 
L 339.085371 182.883094 
L 339.214668 183.354525 
L 339.602557 187.797412 
L 339.731853 187.883126 
L 339.861149 189.068848 
L 340.119742 194.168882 
L 340.249039 193.640307 
L 340.507631 191.783152 
L 340.636928 191.568865 
L 340.89552 187.268837 
L 341.154113 188.854561 
L 341.283409 190.054569 
L 341.412706 189.354565 
L 341.671298 191.31172 
L 341.929891 190.86886 
L 342.059188 191.283149 
L 342.188484 193.311733 
L 342.31778 193.497449 
L 342.447077 193.468877 
L 342.834966 188.340272 
L 343.093558 191.554579 
L 343.222855 193.15459 
L 343.610744 187.411695 
L 343.869337 188.840276 
L 343.998633 188.911705 
L 344.127929 187.925984 
L 344.515818 193.197447 
L 344.903708 186.011686 
L 345.291597 191.21172 
L 345.420893 190.940289 
L 345.679486 188.068842 
L 346.067375 192.626015 
L 346.196671 191.668866 
L 346.455264 188.38313 
L 346.58456 188.068842 
L 346.713857 188.997419 
L 347.101746 194.14031 
L 347.231042 193.097446 
L 347.618931 185.440253 
L 347.748228 185.840256 
L 347.877524 185.497396 
L 348.136117 185.868827 
L 348.265413 187.140264 
L 348.394709 186.740262 
L 348.524006 184.811678 
L 348.265413 182.397376 
L 348.00682 184.354532 
L 347.877524 184.040244 
L 347.489635 178.325921 
L 347.360338 178.911639 
L 347.231042 180.154504 
L 347.101746 180.297362 
L 346.58456 177.383057 
L 346.067375 171.911593 
L 345.938078 172.768741 
L 345.550189 181.025938 
L 345.420893 180.511649 
L 345.291597 178.39735 
L 345.291597 175.725904 
L 345.033004 171.883021 
L 344.645115 164.468687 
L 344.515818 163.840111 
L 344.257226 165.454408 
L 343.998633 168.925859 
L 343.869337 168.768715 
L 343.222855 160.954378 
L 343.093558 161.040093 
L 342.964262 160.625804 
L 342.834966 160.868663 
L 342.705669 161.882956 
L 342.447077 166.825845 
L 342.31778 167.154419 
L 341.542002 152.411465 
L 341.412706 152.840039 
L 340.89552 159.75437 
L 340.766224 158.711506 
L 340.636928 158.968651 
L 340.507631 160.068658 
L 340.378335 159.711513 
L 340.119742 156.04006 
L 339.731853 150.040021 
L 339.343964 154.740051 
L 339.214668 153.4829 
L 339.085371 155.254341 
L 338.826779 161.440096 
L 338.697482 159.611512 
L 338.568186 152.911468 
L 338.438889 153.582901 
L 338.309593 155.611486 
L 338.180297 155.411484 
L 337.921704 153.982904 
L 337.792408 155.082911 
L 337.663111 157.19721 
L 337.533815 157.140067 
L 337.145926 152.168606 
L 336.758037 157.011495 
L 336.370148 151.825747 
L 336.240851 152.911468 
L 336.111555 152.682895 
L 335.852962 149.540017 
L 335.723666 149.682875 
L 335.335777 155.368627 
L 334.947888 148.511439 
L 334.818591 148.740012 
L 334.559999 150.025735 
L 334.172109 145.868565 
L 333.913517 148.768584 
L 333.78422 148.525725 
L 333.525628 143.925695 
L 333.396331 144.797129 
L 333.137739 147.454289 
L 332.74985 140.139956 
L 332.491257 144.325697 
L 332.36196 144.154268 
L 332.103368 138.525659 
L 331.974071 139.054234 
L 331.715479 147.025715 
L 331.198293 136.025643 
L 331.068997 135.739927 
L 330.681108 138.511373 
L 330.422515 136.468503 
L 330.163922 137.282794 
L 330.034626 138.325658 
L 329.90533 138.282801 
L 329.776033 138.01137 
L 329.258848 132.097046 
L 329.129551 132.397048 
L 329.000255 133.768485 
L 328.870959 133.354197 
L 327.965884 122.196981 
L 327.707291 120.482684 
L 327.319402 114.296929 
L 327.06081 113.796925 
L 326.931513 113.982641 
L 326.67292 112.196915 
L 326.543624 112.211201 
L 326.285031 114.239785 
L 326.155735 111.982628 
L 325.897142 104.625437 
L 325.767846 104.439721 
L 325.509253 108.182603 
L 325.379957 108.411176 
L 325.250661 106.254019 
L 325.250661 102.596852 
L 325.121364 101.096842 
L 324.992068 101.211128 
L 324.862771 102.611138 
L 324.345586 98.511111 
L 323.957697 82.725293 
L 323.828401 82.896722 
L 323.569808 86.425317 
L 323.440511 85.253881 
L 323.181919 80.453849 
L 323.052622 79.4967 
L 322.923326 79.696701 
L 322.664733 77.196685 
L 322.535437 77.225257 
L 322.406141 77.439544 
L 322.147548 69.182347 
L 321.888955 62.225158 
L 321.759659 62.510874 
L 321.501066 67.239477 
L 321.242473 72.182366 
L 321.113177 71.668077 
L 320.854584 66.910903 
L 320.208102 54.325106 
L 320.078806 54.710823 
L 319.94951 54.625108 
L 319.820213 54.896538 
L 319.432324 49.139358 
L 319.303028 49.225073 
L 318.915139 54.425107 
L 318.656546 52.167949 
L 318.52725 52.439379 
L 318.52725 52.496523 
L 318.397953 52.53938 
L 318.268657 53.539387 
L 318.010064 56.182261 
L 317.622175 48.03935 
L 317.363582 48.882213 
L 317.234286 47.467918 
L 316.975693 49.925077 
L 316.458508 57.525127 
L 316.329212 57.725128 
L 316.070619 52.010805 
L 315.941322 52.71081 
L 315.68273 57.253697 
L 315.424137 56.467977 
L 315.294841 57.353697 
L 315.165544 56.239404 
L 314.906952 50.925084 
L 314.519062 58.167988 
L 314.389766 57.982273 
L 314.26047 57.210839 
L 314.001877 58.382276 
L 313.484692 68.339484 
L 313.355395 68.025196 
L 313.096802 64.925176 
L 312.967506 65.039462 
L 312.83821 64.868032 
L 312.708913 64.068027 
L 312.579617 62.139443 
L 312.450321 61.996585 
L 312.191728 63.896598 
L 312.062432 62.339444 
L 311.933135 58.696563 
L 311.803839 60.282288 
L 311.41595 70.253782 
L 311.286653 70.639499 
L 311.028061 69.425205 
L 310.769468 71.039502 
L 310.381579 65.668038 
L 310.252283 65.610894 
L 310.122986 66.039469 
L 309.99369 65.868039 
L 309.605801 68.753772 
L 309.476504 69.210918 
L 309.217912 72.896657 
L 309.088615 72.939514 
L 308.959319 70.596642 
L 308.830023 70.625213 
L 308.700726 71.210931 
L 308.57143 73.525232 
L 308.442133 73.12523 
L 308.312837 73.968092 
L 308.183541 73.268088 
L 308.054244 73.910949 
L 307.924948 73.968092 
L 307.537059 84.88245 
L 307.407763 83.839586 
L 307.14917 79.453843 
L 307.019873 79.382414 
L 306.890577 80.768137 
L 306.761281 79.925274 
L 306.631984 77.839546 
L 306.373392 72.753799 
L 305.985503 83.396726 
L 305.72691 81.43957 
L 305.597613 82.382433 
L 305.339021 86.668176 
L 305.209724 86.325316 
L 305.209724 85.439596 
L 305.080428 85.311024 
L 304.951132 86.011029 
L 304.563243 83.053866 
L 304.30465 85.996743 
L 304.046057 89.996769 
L 303.916761 89.368193 
L 303.658168 85.311024 
L 303.528872 86.682461 
L 303.270279 91.396778 
L 303.140983 89.92534 
L 302.88239 83.782442 
L 302.753094 83.225296 
L 302.623797 84.282446 
L 302.494501 84.139588 
L 302.235908 79.710987 
L 302.106612 79.896703 
L 301.718723 85.111023 
L 301.46013 84.153873 
L 301.201537 86.911034 
L 301.072241 87.382466 
L 300.942944 88.496759 
L 300.684352 92.225355 
L 300.555055 91.553922 
L 300.425759 90.282485 
L 300.296463 90.711059 
L 300.167166 90.125341 
L 299.779277 82.653864 
L 299.649981 83.539584 
L 299.262092 92.653929 
L 299.132795 92.239641 
L 298.744906 85.311024 
L 298.61561 85.368167 
L 298.486314 85.253881 
L 298.486314 86.496746 
L 298.357017 86.225316 
L 298.227721 85.625312 
L 298.098424 83.082438 
L 297.839832 84.682448 
L 297.581239 90.553916 
L 297.451943 92.5825 
L 297.064054 85.839599 
L 296.805461 89.296764 
L 296.676164 89.068191 
L 296.417572 86.253887 
L 296.288275 87.53961 
L 295.900386 95.13966 
L 295.512497 87.296751 
L 295.383201 88.411044 
L 295.253905 90.525344 
L 295.124608 90.725345 
L 294.866015 86.82532 
L 294.736719 86.582461 
L 294.478126 91.639637 
L 294.34883 92.282498 
L 294.219534 91.096776 
L 294.090237 91.25392 
L 293.960941 92.239641 
L 293.831645 92.03964 
L 293.443755 88.911048 
L 293.185163 91.439636 
L 293.055866 91.296778 
L 292.797274 88.139614 
L 292.538681 93.282505 
L 292.409385 95.511091 
L 292.280088 95.125374 
L 291.892199 88.768189 
L 291.892199 91.153919 
L 291.633606 97.08253 
L 291.245717 88.525331 
L 290.857828 91.825352 
L 290.728532 91.268206 
L 290.599235 92.011068 
L 290.340643 95.539663 
L 290.211346 95.225375 
L 289.952754 89.096763 
L 289.823457 88.553902 
L 289.564865 94.6968 
L 289.435568 96.011094 
L 289.176975 93.182504 
L 289.047679 93.182504 
L 288.789086 97.496818 
L 288.65979 97.296817 
L 288.401197 92.696787 
L 288.271901 93.553935 
L 288.013308 98.639683 
L 287.884012 98.182537 
L 287.625419 93.753937 
L 287.366826 94.882515 
L 287.23753 94.639657 
L 286.978937 91.668209 
L 286.591048 96.768242 
L 286.461752 95.739664 
L 286.332456 95.625377 
L 286.203159 95.082517 
L 285.944566 91.882496 
L 285.81527 92.196783 
L 285.556677 96.396811 
L 285.298085 92.268212 
L 285.168788 92.911074 
L 285.168788 95.953951 
L 285.039492 98.211109 
L 284.651603 94.125368 
L 284.522306 95.096802 
L 284.263714 93.825366 
L 284.005121 92.368213 
L 283.875825 93.482506 
L 283.746528 93.36822 
L 283.617232 93.525364 
L 283.487936 92.468214 
L 283.229343 94.96823 
L 283.100046 95.553948 
L 282.97075 93.211076 
L 282.841454 93.096789 
L 282.712157 94.468227 
L 282.582861 97.396818 
L 282.453565 97.468247 
L 282.065676 92.568214 
L 281.936379 93.282505 
L 281.289897 101.253986 
L 281.031305 103.62543 
L 280.902008 102.596852 
L 280.514119 93.225362 
L 280.384823 93.096789 
L 280.255526 92.739644 
L 279.996934 90.153913 
L 279.867637 90.625345 
L 279.479748 97.882535 
L 279.350452 99.0254 
L 278.962563 104.825438 
L 278.70397 104.325435 
L 278.445377 103.454 
L 278.445377 101.125414 
L 278.186785 98.41111 
L 278.057488 99.439688 
L 277.928192 98.782541 
L 277.798896 97.439675 
L 277.540303 93.011075 
L 277.411007 93.168218 
L 276.893821 102.053991 
L 276.635228 105.5683 
L 276.505932 105.682586 
L 276.376636 103.153998 
L 276.118043 93.796794 
L 275.988747 92.339642 
L 275.600857 99.625404 
L 275.471561 99.096829 
L 275.212968 96.096809 
L 275.083672 96.568241 
L 274.825079 98.653969 
L 274.695783 97.811106 
L 274.307894 100.239693 
L 273.920005 90.125341 
L 273.661412 92.711073 
L 273.532116 94.853944 
L 273.144227 93.068218 
L 272.756337 100.853983 
L 272.368448 97.682534 
L 271.980559 101.653988 
L 271.851263 101.553988 
L 271.851263 99.839691 
L 271.59267 95.525377 
L 271.463374 95.982523 
L 271.204781 98.525396 
L 271.075485 98.68254 
L 270.558299 94.911087 
L 270.299707 96.868243 
L 270.17041 96.725385 
L 269.911818 95.068231 
L 269.782521 94.653942 
L 269.653225 95.239661 
L 269.523928 94.996802 
L 269.136039 102.211135 
L 269.006743 102.182563 
L 268.877447 101.453987 
L 268.74815 98.311109 
L 268.489558 97.96825 
L 268.360261 99.168258 
L 268.230965 99.225401 
L 267.843076 104.411149 
L 267.584483 101.582559 
L 267.32589 99.696833 
L 267.067298 96.182524 
L 266.679408 100.139693 
L 266.420816 98.868256 
L 266.162223 101.711132 
L 266.032927 102.039705 
L 265.90363 101.496845 
L 265.774334 102.368279 
L 265.645038 102.39685 
L 265.515741 102.025419 
L 265.127852 94.596799 
L 265.127852 96.996815 
L 264.869259 103.811145 
L 264.739963 104.254006 
L 264.352074 102.653995 
L 264.222778 102.553994 
L 263.964185 100.35398 
L 263.576296 91.911067 
L 263.446999 91.86821 
L 263.317703 92.568214 
L 262.800518 100.62541 
L 262.541925 106.539735 
L 262.283332 101.153985 
L 262.024739 97.582533 
L 261.766147 97.425389 
L 261.378258 99.782548 
L 261.119665 105.22544 
L 260.990369 104.868295 
L 260.731776 97.725391 
L 260.602479 97.339674 
L 260.473183 98.739684 
L 260.343887 98.253966 
L 260.085294 96.168238 
L 259.309516 105.639729 
L 258.921627 102.73971 
L 258.79233 102.825425 
L 258.663034 102.411136 
L 258.533738 99.539689 
L 258.404441 100.925412 
L 258.145849 104.754009 
L 257.628663 103.18257 
L 257.37007 100.811126 
L 257.240774 101.896847 
L 256.982181 105.454013 
L 256.723589 103.982575 
L 256.594292 103.211142 
L 256.464996 104.68258 
L 256.3357 104.468293 
L 256.077107 106.796879 
L 255.94781 107.61117 
L 255.559921 101.525416 
L 255.301329 104.839724 
L 255.172032 104.925438 
L 254.784143 97.011101 
L 254.654847 98.325395 
L 254.266958 108.611177 
L 254.137661 107.282597 
L 253.879069 102.682567 
L 253.620476 106.596878 
L 253.49118 106.225447 
L 253.10329 93.568221 
L 252.973994 93.81108 
L 252.456809 102.91114 
L 252.06892 98.653969 
L 251.939623 98.939685 
L 251.810327 99.968263 
L 251.810327 101.653988 
L 251.68103 101.911133 
L 251.551734 101.196843 
L 251.163845 96.968243 
L 251.034549 98.41111 
L 250.775956 104.139719 
L 250.64666 103.739716 
L 250.25877 96.839671 
L 250.000178 94.096796 
L 249.870881 95.568234 
L 249.482992 104.768295 
L 249.2244 101.2397 
L 249.095103 101.311129 
L 248.965807 103.768288 
L 248.836511 104.011147 
L 248.707214 103.782574 
L 248.448621 101.425415 
L 248.190029 98.153965 
L 248.060732 98.896827 
L 247.672843 106.89688 
L 247.414251 102.968283 
L 247.414251 102.968283 
" clip-path="url(#p2b72b8739f)" style="fill: none; stroke: #1f77b4; stroke-width: 1.5; stroke-linecap: square"/>
   </g>
   <g id="patch_3">
    <path d="M 28.942188 235.238437 
L 28.942188 17.798437 
" style="fill: none; stroke: #000000; stroke-width: 0.8; stroke-linejoin: miter; stroke-linecap: square"/>
   </g>
   <g id="patch_4">
    <path d="M 363.742188 235.238437 
L 363.742188 17.798437 
" style="fill: none; stroke: #000000; stroke-width: 0.8; stroke-linejoin: miter; stroke-linecap: square"/>
   </g>
   <g id="patch_5">
    <path d="M 28.942187 235.238437 
L 363.742188 235.238437 
" style="fill: none; stroke: #000000; stroke-width: 0.8; stroke-linejoin: miter; stroke-linecap: square"/>
   </g>
   <g id="patch_6">
    <path d="M 28.942187 17.798437 
L 363.742188 17.798437 
" style="fill: none; stroke: #000000; stroke-width: 0.8; stroke-linejoin: miter; stroke-linecap: square"/>
   </g>
  </g>
 </g>
 <defs>
  <clipPath id="p2b72b8739f">
   <rect x="28.942188" y="17.798437" width="334.8" height="217.44"/>
  </clipPath>
 </defs>
</svg>
