<?xml version="1.0" encoding="utf-8" standalone="no"?>
<!DOCTYPE svg PUBLIC "-//W3C//DTD SVG 1.1//EN"
  "http://www.w3.org/Graphics/SVG/1.1/DTD/svg11.dtd">
<svg xmlns:xlink="http://www.w3.org/1999/xlink" width="380.482813pt" height="248.518125pt" viewBox="0 0 380.482813 248.518125" xmlns="http://www.w3.org/2000/svg" version="1.1">
 <metadata>
  <rdf:RDF xmlns:dc="http://purl.org/dc/elements/1.1/" xmlns:cc="http://creativecommons.org/ns#" xmlns:rdf="http://www.w3.org/1999/02/22-rdf-syntax-ns#">
   <cc:Work>
    <dc:type rdf:resource="http://purl.org/dc/dcmitype/StillImage"/>
    <dc:date>2022-09-03T11:38:43.802515</dc:date>
    <dc:format>image/svg+xml</dc:format>
    <dc:creator>
     <cc:Agent>
      <dc:title>Matplotlib v3.5.2, https://matplotlib.org/</dc:title>
     </cc:Agent>
    </dc:creator>
   </cc:Work>
  </rdf:RDF>
 </metadata>
 <defs>
  <style type="text/css">*{stroke-linejoin: round; stroke-linecap: butt}</style>
 </defs>
 <g id="figure_1">
  <g id="patch_1">
   <path d="M -0 248.518125 
L 380.482813 248.518125 
L 380.482813 0 
L -0 0 
L -0 248.518125 
z
" style="fill: none"/>
  </g>
  <g id="axes_1">
   <g id="patch_2">
    <path d="M 38.482813 224.64 
L 373.282813 224.64 
L 373.282813 7.2 
L 38.482813 7.2 
z
" style="fill: #ffffff"/>
   </g>
   <g id="matplotlib.axis_1">
    <g id="xtick_1">
     <g id="line2d_1">
      <defs>
       <path id="me993d7dc5d" d="M 0 0 
L 0 3.5 
" style="stroke: #000000; stroke-width: 0.8"/>
      </defs>
      <g>
       <use xlink:href="#me993d7dc5d" x="53.395715" y="224.64" style="stroke: #000000; stroke-width: 0.8"/>
      </g>
     </g>
     <g id="text_1">
      <!-- 0 -->
      <g transform="translate(50.214465 239.238437)scale(0.1 -0.1)">
       <defs>
        <path id="DejaVuSans-30" d="M 2034 4250 
Q 1547 4250 1301 3770 
Q 1056 3291 1056 2328 
Q 1056 1369 1301 889 
Q 1547 409 2034 409 
Q 2525 409 2770 889 
Q 3016 1369 3016 2328 
Q 3016 3291 2770 3770 
Q 2525 4250 2034 4250 
z
M 2034 4750 
Q 2819 4750 3233 4129 
Q 3647 3509 3647 2328 
Q 3647 1150 3233 529 
Q 2819 -91 2034 -91 
Q 1250 -91 836 529 
Q 422 1150 422 2328 
Q 422 3509 836 4129 
Q 1250 4750 2034 4750 
z
" transform="scale(0.015625)"/>
       </defs>
       <use xlink:href="#DejaVuSans-30"/>
      </g>
     </g>
    </g>
    <g id="xtick_2">
     <g id="line2d_2">
      <g>
       <use xlink:href="#me993d7dc5d" x="101.933866" y="224.64" style="stroke: #000000; stroke-width: 0.8"/>
      </g>
     </g>
     <g id="text_2">
      <!-- 5 -->
      <g transform="translate(98.752616 239.238437)scale(0.1 -0.1)">
       <defs>
        <path id="DejaVuSans-35" d="M 691 4666 
L 3169 4666 
L 3169 4134 
L 1269 4134 
L 1269 2991 
Q 1406 3038 1543 3061 
Q 1681 3084 1819 3084 
Q 2600 3084 3056 2656 
Q 3513 2228 3513 1497 
Q 3513 744 3044 326 
Q 2575 -91 1722 -91 
Q 1428 -91 1123 -41 
Q 819 9 494 109 
L 494 744 
Q 775 591 1075 516 
Q 1375 441 1709 441 
Q 2250 441 2565 725 
Q 2881 1009 2881 1497 
Q 2881 1984 2565 2268 
Q 2250 2553 1709 2553 
Q 1456 2553 1204 2497 
Q 953 2441 691 2322 
L 691 4666 
z
" transform="scale(0.015625)"/>
       </defs>
       <use xlink:href="#DejaVuSans-35"/>
      </g>
     </g>
    </g>
    <g id="xtick_3">
     <g id="line2d_3">
      <g>
       <use xlink:href="#me993d7dc5d" x="150.472016" y="224.64" style="stroke: #000000; stroke-width: 0.8"/>
      </g>
     </g>
     <g id="text_3">
      <!-- 10 -->
      <g transform="translate(144.109516 239.238437)scale(0.1 -0.1)">
       <defs>
        <path id="DejaVuSans-31" d="M 794 531 
L 1825 531 
L 1825 4091 
L 703 3866 
L 703 4441 
L 1819 4666 
L 2450 4666 
L 2450 531 
L 3481 531 
L 3481 0 
L 794 0 
L 794 531 
z
" transform="scale(0.015625)"/>
       </defs>
       <use xlink:href="#DejaVuSans-31"/>
       <use xlink:href="#DejaVuSans-30" x="63.623047"/>
      </g>
     </g>
    </g>
    <g id="xtick_4">
     <g id="line2d_4">
      <g>
       <use xlink:href="#me993d7dc5d" x="199.010167" y="224.64" style="stroke: #000000; stroke-width: 0.8"/>
      </g>
     </g>
     <g id="text_4">
      <!-- 15 -->
      <g transform="translate(192.647667 239.238437)scale(0.1 -0.1)">
       <use xlink:href="#DejaVuSans-31"/>
       <use xlink:href="#DejaVuSans-35" x="63.623047"/>
      </g>
     </g>
    </g>
    <g id="xtick_5">
     <g id="line2d_5">
      <g>
       <use xlink:href="#me993d7dc5d" x="247.548318" y="224.64" style="stroke: #000000; stroke-width: 0.8"/>
      </g>
     </g>
     <g id="text_5">
      <!-- 20 -->
      <g transform="translate(241.185818 239.238437)scale(0.1 -0.1)">
       <defs>
        <path id="DejaVuSans-32" d="M 1228 531 
L 3431 531 
L 3431 0 
L 469 0 
L 469 531 
Q 828 903 1448 1529 
Q 2069 2156 2228 2338 
Q 2531 2678 2651 2914 
Q 2772 3150 2772 3378 
Q 2772 3750 2511 3984 
Q 2250 4219 1831 4219 
Q 1534 4219 1204 4116 
Q 875 4013 500 3803 
L 500 4441 
Q 881 4594 1212 4672 
Q 1544 4750 1819 4750 
Q 2544 4750 2975 4387 
Q 3406 4025 3406 3419 
Q 3406 3131 3298 2873 
Q 3191 2616 2906 2266 
Q 2828 2175 2409 1742 
Q 1991 1309 1228 531 
z
" transform="scale(0.015625)"/>
       </defs>
       <use xlink:href="#DejaVuSans-32"/>
       <use xlink:href="#DejaVuSans-30" x="63.623047"/>
      </g>
     </g>
    </g>
    <g id="xtick_6">
     <g id="line2d_6">
      <g>
       <use xlink:href="#me993d7dc5d" x="296.086468" y="224.64" style="stroke: #000000; stroke-width: 0.8"/>
      </g>
     </g>
     <g id="text_6">
      <!-- 25 -->
      <g transform="translate(289.723968 239.238437)scale(0.1 -0.1)">
       <use xlink:href="#DejaVuSans-32"/>
       <use xlink:href="#DejaVuSans-35" x="63.623047"/>
      </g>
     </g>
    </g>
    <g id="xtick_7">
     <g id="line2d_7">
      <g>
       <use xlink:href="#me993d7dc5d" x="344.624619" y="224.64" style="stroke: #000000; stroke-width: 0.8"/>
      </g>
     </g>
     <g id="text_7">
      <!-- 30 -->
      <g transform="translate(338.262119 239.238437)scale(0.1 -0.1)">
       <defs>
        <path id="DejaVuSans-33" d="M 2597 2516 
Q 3050 2419 3304 2112 
Q 3559 1806 3559 1356 
Q 3559 666 3084 287 
Q 2609 -91 1734 -91 
Q 1441 -91 1130 -33 
Q 819 25 488 141 
L 488 750 
Q 750 597 1062 519 
Q 1375 441 1716 441 
Q 2309 441 2620 675 
Q 2931 909 2931 1356 
Q 2931 1769 2642 2001 
Q 2353 2234 1838 2234 
L 1294 2234 
L 1294 2753 
L 1863 2753 
Q 2328 2753 2575 2939 
Q 2822 3125 2822 3475 
Q 2822 3834 2567 4026 
Q 2313 4219 1838 4219 
Q 1578 4219 1281 4162 
Q 984 4106 628 3988 
L 628 4550 
Q 988 4650 1302 4700 
Q 1616 4750 1894 4750 
Q 2613 4750 3031 4423 
Q 3450 4097 3450 3541 
Q 3450 3153 3228 2886 
Q 3006 2619 2597 2516 
z
" transform="scale(0.015625)"/>
       </defs>
       <use xlink:href="#DejaVuSans-33"/>
       <use xlink:href="#DejaVuSans-30" x="63.623047"/>
      </g>
     </g>
    </g>
   </g>
   <g id="matplotlib.axis_2">
    <g id="ytick_1">
     <g id="line2d_8">
      <defs>
       <path id="mb2f4fc9cad" d="M 0 0 
L -3.5 0 
" style="stroke: #000000; stroke-width: 0.8"/>
      </defs>
      <g>
       <use xlink:href="#mb2f4fc9cad" x="38.482813" y="192.96664" style="stroke: #000000; stroke-width: 0.8"/>
      </g>
     </g>
     <g id="text_8">
      <!-- −1.0 -->
      <g transform="translate(7.2 196.765859)scale(0.1 -0.1)">
       <defs>
        <path id="DejaVuSans-2212" d="M 678 2272 
L 4684 2272 
L 4684 1741 
L 678 1741 
L 678 2272 
z
" transform="scale(0.015625)"/>
        <path id="DejaVuSans-2e" d="M 684 794 
L 1344 794 
L 1344 0 
L 684 0 
L 684 794 
z
" transform="scale(0.015625)"/>
       </defs>
       <use xlink:href="#DejaVuSans-2212"/>
       <use xlink:href="#DejaVuSans-31" x="83.789062"/>
       <use xlink:href="#DejaVuSans-2e" x="147.412109"/>
       <use xlink:href="#DejaVuSans-30" x="179.199219"/>
      </g>
     </g>
    </g>
    <g id="ytick_2">
     <g id="line2d_9">
      <g>
       <use xlink:href="#mb2f4fc9cad" x="38.482813" y="154.005274" style="stroke: #000000; stroke-width: 0.8"/>
      </g>
     </g>
     <g id="text_9">
      <!-- −0.5 -->
      <g transform="translate(7.2 157.804493)scale(0.1 -0.1)">
       <use xlink:href="#DejaVuSans-2212"/>
       <use xlink:href="#DejaVuSans-30" x="83.789062"/>
       <use xlink:href="#DejaVuSans-2e" x="147.412109"/>
       <use xlink:href="#DejaVuSans-35" x="179.199219"/>
      </g>
     </g>
    </g>
    <g id="ytick_3">
     <g id="line2d_10">
      <g>
       <use xlink:href="#mb2f4fc9cad" x="38.482813" y="115.043908" style="stroke: #000000; stroke-width: 0.8"/>
      </g>
     </g>
     <g id="text_10">
      <!-- 0.0 -->
      <g transform="translate(15.579688 118.843127)scale(0.1 -0.1)">
       <use xlink:href="#DejaVuSans-30"/>
       <use xlink:href="#DejaVuSans-2e" x="63.623047"/>
       <use xlink:href="#DejaVuSans-30" x="95.410156"/>
      </g>
     </g>
    </g>
    <g id="ytick_4">
     <g id="line2d_11">
      <g>
       <use xlink:href="#mb2f4fc9cad" x="38.482813" y="76.082543" style="stroke: #000000; stroke-width: 0.8"/>
      </g>
     </g>
     <g id="text_11">
      <!-- 0.5 -->
      <g transform="translate(15.579688 79.881761)scale(0.1 -0.1)">
       <use xlink:href="#DejaVuSans-30"/>
       <use xlink:href="#DejaVuSans-2e" x="63.623047"/>
       <use xlink:href="#DejaVuSans-35" x="95.410156"/>
      </g>
     </g>
    </g>
    <g id="ytick_5">
     <g id="line2d_12">
      <g>
       <use xlink:href="#mb2f4fc9cad" x="38.482813" y="37.121177" style="stroke: #000000; stroke-width: 0.8"/>
      </g>
     </g>
     <g id="text_12">
      <!-- 1.0 -->
      <g transform="translate(15.579688 40.920395)scale(0.1 -0.1)">
       <use xlink:href="#DejaVuSans-31"/>
       <use xlink:href="#DejaVuSans-2e" x="63.623047"/>
       <use xlink:href="#DejaVuSans-30" x="95.410156"/>
      </g>
     </g>
    </g>
   </g>
   <g id="line2d_13">
    <path d="M 53.700994 117.859612 
L 54.006274 89.088391 
L 54.311553 89.088391 
L 54.616833 113.050098 
L 54.922112 113.050098 
L 55.532671 88.464153 
L 55.837951 88.464153 
L 56.14323 73.834774 
L 56.44851 73.834774 
L 56.753789 103.450766 
L 57.059069 103.450766 
L 57.364348 101.010105 
L 57.669627 68.352925 
L 57.974907 90.03772 
L 58.280186 67.159942 
L 58.585466 90.03772 
L 58.890745 86.172351 
L 59.196025 91.254117 
L 59.501304 86.172351 
L 59.806584 70.228731 
L 60.417143 70.228731 
L 60.722422 69.85265 
L 61.027702 47.245579 
L 61.638261 47.245579 
L 61.94354 48.093457 
L 62.24882 48.093457 
L 62.859379 35.134515 
L 63.164658 34.993204 
L 63.469938 35.134515 
L 63.775217 56.222339 
L 64.080496 56.222339 
L 64.385776 67.909627 
L 64.691055 21.736712 
L 64.996335 25.634413 
L 65.301614 25.634413 
L 65.912173 35.371858 
L 66.217453 49.777875 
L 66.522732 49.777875 
L 66.828012 35.723639 
L 67.133291 35.723639 
L 67.438571 48.153848 
L 67.74385 55.763108 
L 68.04913 57.783294 
L 68.659689 57.783294 
L 68.964968 35.306925 
L 69.270248 47.902589 
L 69.575527 41.189178 
L 69.880806 47.902589 
L 70.186086 41.189178 
L 70.491365 40.550116 
L 70.796645 40.365481 
L 71.407204 40.365481 
L 71.712483 21.698429 
L 72.017763 20.692831 
L 72.323042 21.698429 
L 72.628322 51.690417 
L 72.933601 51.690417 
L 73.238881 37.350028 
L 73.54416 30.076376 
L 73.84944 30.076376 
L 74.154719 39.757326 
L 74.459999 55.30269 
L 74.765278 55.30269 
L 75.070558 32.933686 
L 75.375837 32.933686 
L 75.681117 35.7503 
L 75.986396 36.739347 
L 76.291675 74.828651 
L 76.596955 74.828651 
L 76.902234 70.636861 
L 77.207514 57.66024 
L 77.512793 57.66024 
L 77.818073 70.496533 
L 78.123352 92.466931 
L 78.428632 75.501304 
L 78.733911 87.639401 
L 79.34447 87.639401 
L 79.64975 93.509221 
L 79.955029 73.963287 
L 80.260309 82.662082 
L 80.565588 82.662082 
L 80.870868 105.351225 
L 81.176147 105.351225 
L 81.786706 94.936633 
L 82.091985 94.936633 
L 82.397265 119.863793 
L 82.702544 119.863793 
L 83.007824 120.582109 
L 83.313103 126.137832 
L 83.618383 126.137832 
L 83.923662 130.844169 
L 84.228942 122.581853 
L 84.534221 131.95812 
L 84.839501 137.129812 
L 85.45006 137.129812 
L 85.755339 132.92116 
L 86.060619 132.92116 
L 86.365898 129.367856 
L 86.671178 129.367856 
L 86.976457 122.337544 
L 87.281737 136.493446 
L 87.587016 136.493446 
L 87.892295 147.976386 
L 88.197575 147.976386 
L 88.502854 150.17929 
L 88.808134 140.686601 
L 89.113413 135.574497 
L 89.418693 135.574497 
L 89.723972 153.361562 
L 90.029252 153.361562 
L 90.334531 156.45407 
L 90.639811 156.45407 
L 90.94509 161.705881 
L 91.25037 163.693034 
L 91.860929 193.665952 
L 92.166208 187.887515 
L 92.471488 191.996799 
L 92.776767 187.887515 
L 93.082047 191.996799 
L 93.387326 163.593741 
L 93.692606 188.582632 
L 93.997885 170.147751 
L 94.303164 188.582632 
L 94.608444 196.634543 
L 94.913723 196.634543 
L 95.219003 183.425248 
L 95.829562 183.425248 
L 96.134841 171.349937 
L 96.7454 171.349937 
L 97.05068 201.260938 
L 97.355959 168.672158 
L 97.661239 183.271934 
L 97.966518 177.13141 
L 98.271798 183.271934 
L 98.577077 184.359156 
L 98.882357 195.196828 
L 99.187636 214.756364 
L 99.492916 214.756364 
L 99.798195 191.265949 
L 100.103474 185.717214 
L 100.408754 175.593764 
L 100.714033 175.593764 
L 101.019313 196.871182 
L 101.324592 203.645646 
L 101.935151 203.645646 
L 102.240431 205.529697 
L 102.54571 194.959393 
L 102.85099 201.585358 
L 103.156269 201.585358 
L 103.461549 205.021279 
L 103.766828 205.021279 
L 104.072108 190.014935 
L 104.377387 166.663168 
L 104.682667 166.663168 
L 104.987946 179.198362 
L 105.598505 179.198362 
L 105.903785 183.292387 
L 106.209064 183.292387 
L 106.514343 175.780056 
L 106.819623 155.795755 
L 107.124902 175.780056 
L 107.430182 184.246009 
L 107.735461 184.246009 
L 108.040741 176.164324 
L 108.34602 171.146943 
L 108.6513 160.791956 
L 109.261859 160.791956 
L 109.567138 164.832814 
L 109.872418 161.428706 
L 110.177697 161.428706 
L 110.482977 156.927215 
L 110.788256 155.29858 
L 111.093536 135.834081 
L 111.398815 130.411311 
L 111.704095 130.411311 
L 112.009374 142.939342 
L 112.314653 142.939342 
L 112.619933 134.049808 
L 112.925212 116.685255 
L 113.535771 116.685255 
L 113.841051 142.702092 
L 114.14633 111.687206 
L 114.45161 111.687206 
L 114.756889 101.236495 
L 115.062169 101.236495 
L 115.367448 102.253286 
L 115.672728 119.119401 
L 115.978007 105.701355 
L 116.283287 105.701355 
L 116.588566 76.046727 
L 116.893846 76.046727 
L 117.199125 102.756196 
L 117.504405 102.756196 
L 118.114963 76.674919 
L 118.420243 70.329815 
L 118.725522 70.329815 
L 119.030802 81.906294 
L 119.336081 81.906294 
L 119.641361 68.652563 
L 120.25192 68.652563 
L 120.557199 47.603843 
L 121.167758 47.603843 
L 121.473038 80.309526 
L 121.778317 84.740844 
L 122.083597 84.740844 
L 122.388876 45.449387 
L 122.694156 45.449387 
L 122.999435 70.272644 
L 123.304715 70.272644 
L 123.609994 46.031495 
L 124.220553 46.031495 
L 124.525832 54.99017 
L 124.831112 55.781703 
L 125.136391 61.88782 
L 125.441671 61.88782 
L 125.74695 29.002101 
L 126.05223 29.002101 
L 126.357509 25.266642 
L 126.662789 48.919119 
L 126.968068 27.432875 
L 127.578627 27.432875 
L 127.883907 19.121346 
L 128.189186 33.32228 
L 128.799745 33.32228 
L 129.105025 25.638711 
L 129.410304 25.638711 
L 130.020863 56.529261 
L 130.326142 56.529261 
L 130.631422 38.902528 
L 130.936701 38.902528 
L 131.241981 62.717852 
L 131.54726 62.717852 
L 131.85254 62.044314 
L 132.157819 59.457817 
L 132.463099 59.457817 
L 132.768378 32.079142 
L 133.073658 24.491847 
L 133.378937 24.491847 
L 133.684217 30.022071 
L 133.989496 41.991424 
L 134.294776 41.991424 
L 134.905335 60.857743 
L 135.210614 57.860889 
L 135.515894 60.857743 
L 136.126453 55.394348 
L 136.431732 55.394348 
L 136.737011 62.631947 
L 137.042291 62.631947 
L 137.34757 42.15514 
L 137.65285 42.15514 
L 137.958129 50.451221 
L 138.263409 52.568967 
L 138.568688 87.120722 
L 138.873968 90.324581 
L 139.179247 90.324581 
L 139.484527 86.063709 
L 139.789806 86.063709 
L 140.095086 61.814786 
L 140.400365 70.40533 
L 141.010924 70.40533 
L 141.316204 67.325907 
L 141.621483 67.325907 
L 141.926763 68.697554 
L 142.232042 103.888558 
L 142.537321 103.888558 
L 142.842601 109.981198 
L 143.14788 109.981198 
L 143.45316 117.826438 
L 143.758439 117.826438 
L 144.063719 113.631484 
L 144.674278 113.631484 
L 144.979557 99.003178 
L 145.284837 98.617941 
L 145.590116 98.617941 
L 145.895396 101.50257 
L 146.505955 112.482581 
L 146.811234 116.051172 
L 147.116514 127.38036 
L 147.421793 150.44843 
L 147.727073 142.893365 
L 148.032352 150.44843 
L 148.337632 145.379729 
L 148.642911 147.952665 
L 149.25347 147.952665 
L 149.558749 154.836301 
L 150.169308 154.836301 
L 150.474588 152.249547 
L 151.085147 152.249547 
L 151.390426 163.085838 
L 151.695706 178.000206 
L 152.306265 178.000206 
L 152.611544 190.229475 
L 152.916824 190.229475 
L 153.222103 167.680324 
L 153.527383 167.680324 
L 153.832662 192.809234 
L 154.137942 192.809234 
L 154.443221 194.231143 
L 154.7485 188.17796 
L 155.05378 192.937378 
L 155.359059 167.266955 
L 155.664339 192.937378 
L 155.969618 174.643882 
L 156.274898 193.501305 
L 156.580177 179.175919 
L 156.885457 193.501305 
L 157.190736 213.750876 
L 157.496016 213.750876 
L 157.801295 206.456073 
L 158.106575 206.456073 
L 158.411854 209.951002 
L 158.717134 209.951002 
L 159.022413 186.812136 
L 159.327693 186.812136 
L 159.938252 194.940961 
L 160.243531 191.359418 
L 160.54881 182.752944 
L 160.85409 170.445919 
L 161.159369 170.445919 
L 161.464649 178.566107 
L 161.769928 182.667844 
L 162.075208 182.667844 
L 162.380487 184.123108 
L 162.685767 196.539345 
L 162.991046 184.123108 
L 163.296326 180.112525 
L 163.601605 180.112525 
L 163.906885 186.500002 
L 164.212164 186.500002 
L 164.517444 203.447343 
L 164.822723 179.221009 
L 165.128003 170.153327 
L 165.738562 170.153327 
L 166.349121 163.779547 
L 166.6544 166.50653 
L 166.959679 157.908342 
L 167.264959 171.134555 
L 167.875518 171.134555 
L 168.180797 173.699293 
L 168.486077 146.678948 
L 168.791356 179.558628 
L 169.096636 166.007351 
L 169.401915 178.692009 
L 169.707195 166.871821 
L 170.012474 166.871821 
L 170.317754 154.42442 
L 170.623033 150.724079 
L 171.233592 150.724079 
L 171.538872 153.906906 
L 171.844151 142.964125 
L 172.149431 142.964125 
L 172.45471 136.248724 
L 172.759989 133.731348 
L 173.065269 133.731348 
L 173.370548 120.410929 
L 173.981107 120.410929 
L 174.286387 117.534088 
L 174.591666 109.826298 
L 174.896946 109.826298 
L 175.202225 115.609057 
L 175.507505 115.609057 
L 175.812784 114.607319 
L 176.423343 114.607319 
L 176.728623 105.431699 
L 177.033902 84.953322 
L 177.339182 73.948817 
L 177.644461 73.948817 
L 178.25502 82.578145 
L 178.5603 98.357863 
L 178.865579 98.357863 
L 179.476138 70.606537 
L 179.781417 74.437369 
L 180.086697 67.094036 
L 180.391976 70.326427 
L 180.697256 60.372583 
L 181.002535 66.549547 
L 181.307815 66.029872 
L 181.918374 66.029872 
L 182.223653 52.771512 
L 182.528933 70.193247 
L 182.834212 66.166071 
L 183.139492 66.166071 
L 183.444771 46.283472 
L 183.750051 46.283472 
L 184.05533 30.094184 
L 184.36061 53.744768 
L 184.665889 47.443833 
L 184.971168 53.744768 
L 185.276448 47.443833 
L 185.581727 46.896025 
L 185.887007 46.896025 
L 186.192286 40.287257 
L 186.497566 52.470843 
L 186.802845 45.63037 
L 187.108125 45.63037 
L 187.413404 31.298879 
L 187.718684 31.298879 
L 188.023963 41.392938 
L 188.329243 41.392938 
L 188.634522 63.282389 
L 188.939802 43.843105 
L 189.245081 54.727538 
L 189.550361 43.843105 
L 189.85564 39.262075 
L 190.466199 39.262075 
L 190.771478 46.614316 
L 191.076758 24.481296 
L 191.382037 26.394963 
L 191.687317 24.481296 
L 191.992596 26.394963 
L 192.297876 34.970084 
L 192.603155 37.006969 
L 192.908435 37.006969 
L 193.213714 48.635313 
L 193.518994 48.635313 
L 193.824273 25.263886 
L 194.129553 25.263886 
L 194.740112 45.251743 
L 195.045391 46.378288 
L 195.350671 46.653529 
L 195.65595 62.740979 
L 195.96123 62.740979 
L 196.266509 73.629421 
L 196.571789 72.388654 
L 196.877068 72.388654 
L 197.182347 52.730447 
L 197.487627 49.332403 
L 198.098186 49.332403 
L 198.708745 76.974357 
L 199.014024 76.974357 
L 199.319304 76.097206 
L 199.624583 74.105273 
L 199.929863 76.097206 
L 200.235142 82.936584 
L 200.540422 83.241695 
L 200.845701 99.56116 
L 201.150981 88.370599 
L 201.76154 88.370599 
L 202.372099 109.053146 
L 202.677378 103.134836 
L 202.982657 103.134836 
L 203.593216 95.555227 
L 203.898496 84.334808 
L 204.509055 105.419734 
L 204.814334 105.419734 
L 205.119614 132.514975 
L 205.424893 123.857212 
L 205.730173 123.857212 
L 206.340732 109.299271 
L 206.646011 116.942941 
L 206.951291 128.386226 
L 207.56185 133.428068 
L 207.867129 134.721473 
L 208.172409 133.428068 
L 208.477688 138.780943 
L 208.782968 161.058515 
L 209.088247 161.058515 
L 209.393526 150.414595 
L 210.004085 150.414595 
L 210.309365 161.939901 
L 210.614644 137.247536 
L 210.919924 151.45415 
L 211.225203 151.45415 
L 211.530483 154.997078 
L 211.835762 162.957227 
L 212.141042 187.931819 
L 212.446321 187.931819 
L 212.751601 175.709393 
L 213.05688 175.709393 
L 213.36216 176.428336 
L 213.667439 183.382686 
L 213.972719 183.382686 
L 214.277998 162.832044 
L 214.583278 162.832044 
L 214.888557 172.145717 
L 215.193836 197.70743 
L 215.499116 199.349421 
L 216.109675 199.349421 
L 216.414954 200.617359 
L 216.720234 200.617359 
L 217.025513 198.015441 
L 217.330793 187.104262 
L 217.636072 172.144826 
L 217.941352 174.068121 
L 218.246631 174.068121 
L 218.551911 180.72994 
L 218.85719 181.049689 
L 219.16247 197.794972 
L 219.773029 197.794972 
L 220.078308 196.932617 
L 220.383588 200.952561 
L 220.688867 189.669736 
L 220.994147 189.669736 
L 221.299426 183.999562 
L 221.909985 183.999562 
L 222.215264 190.026693 
L 222.825823 190.026693 
L 223.131103 176.900985 
L 223.436382 176.900985 
L 224.046941 179.430738 
L 224.352221 179.430738 
L 224.6575 191.190731 
L 224.96278 174.213269 
L 225.268059 167.730416 
L 225.573339 167.730416 
L 225.878618 174.129868 
L 226.183898 177.256073 
L 226.489177 174.129868 
L 226.794457 172.703959 
L 227.099736 172.703959 
L 227.405015 188.372152 
L 227.710295 188.372152 
L 228.015574 176.673894 
L 228.320854 158.202044 
L 228.626133 150.355449 
L 228.931413 147.521173 
L 229.236692 148.81101 
L 229.541972 148.81101 
L 229.847251 153.980545 
L 230.152531 153.980545 
L 230.45781 142.728702 
L 230.76309 140.108335 
L 231.068369 142.728702 
L 231.373649 137.452859 
L 231.678928 135.994132 
L 231.984208 135.994132 
L 232.289487 134.613653 
L 232.594767 162.521812 
L 232.900046 132.223217 
L 233.510605 132.223217 
L 233.815884 136.199032 
L 234.121164 136.199032 
L 234.426443 130.576351 
L 234.731723 128.159999 
L 235.037002 128.159999 
L 235.342282 110.989201 
L 235.647561 110.989201 
L 236.25812 127.757615 
L 236.868679 108.361852 
L 237.173959 105.745824 
L 237.479238 95.978145 
L 237.784518 95.978145 
L 238.089797 99.79717 
L 238.395077 99.79717 
L 238.700356 76.897682 
L 239.005636 76.897682 
L 239.310915 77.929886 
L 239.616194 77.929886 
L 239.921474 64.728047 
L 240.226753 61.806472 
L 240.837312 61.806472 
L 241.142592 78.743465 
L 241.447871 53.8516 
L 241.753151 89.111363 
L 242.05843 70.474801 
L 242.36371 70.474801 
L 242.668989 64.9654 
L 242.974269 64.9654 
L 243.279548 40.44556 
L 243.584828 65.333635 
L 243.890107 41.509088 
L 244.195387 70.637628 
L 244.500666 53.762372 
L 244.805946 56.143238 
L 245.111225 53.762372 
L 245.416504 44.863945 
L 245.721784 44.863945 
L 246.027063 45.015865 
L 246.332343 45.015865 
L 246.637622 64.167607 
L 246.942902 51.883727 
L 247.248181 51.883727 
L 247.553461 47.650712 
L 247.85874 47.650712 
L 248.16402 38.540959 
L 248.774579 28.75144 
L 249.079858 28.75144 
L 249.385138 40.706987 
L 249.690417 40.706987 
L 249.995697 39.596402 
L 250.300976 18.179532 
L 250.606256 39.596402 
L 250.911535 24.942275 
L 251.216815 24.942275 
L 251.522094 17.083636 
L 251.827373 17.083636 
L 252.437932 48.83421 
L 252.743212 48.83421 
L 253.048491 29.887426 
L 253.353771 29.887426 
L 253.65905 37.278075 
L 254.269609 37.278075 
L 254.574889 24.977001 
L 254.880168 53.118514 
L 255.185448 62.23868 
L 255.490727 62.23868 
L 255.796007 58.754328 
L 256.406566 58.754328 
L 257.017125 42.523295 
L 257.322404 42.523295 
L 257.627683 52.34955 
L 257.932963 53.707427 
L 258.238242 53.707427 
L 258.543522 54.025156 
L 258.848801 43.467675 
L 259.154081 71.204929 
L 259.45936 68.609968 
L 260.069919 68.609968 
L 260.375199 73.147715 
L 260.985758 73.147715 
L 261.291037 66.299137 
L 261.596317 77.867018 
L 261.901596 84.959393 
L 262.206876 84.959393 
L 262.512155 74.226902 
L 262.817435 74.226902 
L 263.122714 76.845048 
L 263.427993 90.210303 
L 264.038552 90.210303 
L 264.343832 117.174591 
L 264.649111 117.174591 
L 264.954391 98.537445 
L 265.25967 98.537445 
L 265.56495 87.353529 
L 265.870229 104.176249 
L 266.175509 99.24279 
L 266.480788 113.911938 
L 267.091347 122.657487 
L 267.396627 119.050707 
L 267.701906 117.842931 
L 268.007186 107.247141 
L 268.312465 106.99625 
L 268.617745 106.99625 
L 268.923024 140.743006 
L 269.228304 152.723844 
L 269.533583 152.723844 
L 269.838862 121.23656 
L 270.144142 121.23656 
L 270.449421 150.683494 
L 270.754701 152.367513 
L 271.05998 150.683494 
L 271.36526 137.721981 
L 271.670539 137.721981 
L 271.975819 138.822881 
L 272.281098 139.034359 
L 272.586378 141.770052 
L 272.891657 143.451197 
L 273.196937 172.774207 
L 273.502216 174.853249 
L 273.807496 188.349162 
L 274.112775 174.853249 
L 274.418055 171.166516 
L 274.723334 171.166516 
L 275.028614 168.485167 
L 275.639172 199.026624 
L 275.944452 199.026624 
L 276.249731 191.010986 
L 276.555011 158.393087 
L 276.86029 158.393087 
L 277.16557 164.19268 
L 277.470849 174.662577 
L 277.776129 192.882854 
L 278.081408 192.882854 
L 278.386688 171.805469 
L 278.691967 171.805469 
L 278.997247 195.425527 
L 279.302526 202.482343 
L 279.607806 204.05027 
L 279.913085 202.482343 
L 280.218365 210.344737 
L 280.523644 210.65376 
L 280.828924 214.522819 
L 281.134203 214.522819 
L 281.439483 210.027914 
L 282.050041 210.027914 
L 282.355321 212.582046 
L 282.6606 188.73638 
L 282.96588 212.582046 
L 283.271159 179.473091 
L 283.576439 184.33558 
L 283.881718 180.399966 
L 284.492277 187.078269 
L 284.797557 188.914211 
L 285.102836 195.003653 
L 285.408116 195.003653 
L 285.713395 196.591676 
L 286.323954 180.653406 
L 286.629234 180.653406 
L 286.934513 181.211442 
L 287.239793 190.204369 
L 287.545072 181.211442 
L 287.850351 190.204369 
L 288.155631 172.753221 
L 288.46091 186.070442 
L 288.76619 173.325782 
L 289.376749 173.325782 
L 289.682028 171.628193 
L 289.987308 180.743296 
L 290.292587 158.554265 
L 290.597867 155.190942 
L 290.903146 140.228597 
L 291.208426 140.228597 
L 291.513705 153.859898 
L 292.124264 153.859898 
L 292.429544 149.70019 
L 292.734823 150.531388 
L 293.040103 149.70019 
L 293.345382 143.916115 
L 293.650662 126.328035 
L 293.955941 117.542089 
L 294.26122 117.542089 
L 294.5665 114.914105 
L 294.871779 117.104416 
L 295.177059 117.104416 
L 295.482338 121.327476 
L 295.787618 121.327476 
L 296.092897 139.131982 
L 296.398177 119.493717 
L 296.703456 139.131982 
L 297.008736 102.79341 
L 297.314015 108.649246 
L 297.619295 98.018566 
L 297.924574 93.855791 
L 298.229854 93.855791 
L 298.535133 85.741276 
L 298.840413 121.646151 
L 299.145692 91.45895 
L 299.756251 91.45895 
L 300.06153 94.80261 
L 300.36681 94.80261 
L 300.672089 87.557243 
L 300.977369 87.557243 
L 301.282648 85.82263 
L 301.587928 63.079467 
L 301.893207 63.079467 
L 302.198487 66.312948 
L 302.503766 66.312948 
L 302.809046 64.429394 
L 303.419605 54.013623 
L 303.724884 57.908543 
L 304.030164 57.908543 
L 304.335443 63.080057 
L 304.640723 79.231289 
L 304.946002 63.080057 
L 305.251282 73.634858 
L 305.556561 69.598907 
L 305.86184 69.598907 
L 306.16712 43.126704 
L 306.472399 43.126704 
L 306.777679 54.947213 
L 307.082958 56.96606 
L 307.693517 56.96606 
L 307.998797 33.082669 
L 308.304076 33.082669 
L 308.609356 31.724575 
L 308.914635 20.845284 
L 309.219915 20.845284 
L 309.525194 36.66556 
L 310.135753 36.66556 
L 310.441033 30.79343 
L 310.746312 41.747212 
L 311.356871 41.747212 
L 311.662151 39.55603 
L 311.96743 39.55603 
L 312.272709 60.734345 
L 312.577989 61.406617 
L 312.883268 60.734345 
L 313.188548 22.306115 
L 313.493827 22.306115 
L 313.799107 59.496686 
L 314.104386 59.496686 
L 314.409666 56.461369 
L 314.714945 51.361743 
L 315.020225 55.190375 
L 315.630784 55.190375 
L 315.936063 52.918965 
L 316.241343 52.918965 
L 316.546622 43.995189 
L 316.851902 30.904224 
L 317.157181 30.217198 
L 317.462461 30.217198 
L 317.76774 44.020018 
L 318.073019 44.020018 
L 318.378299 45.449471 
L 318.683578 37.382916 
L 319.294137 37.382916 
L 319.599417 34.989861 
L 319.904696 74.824674 
L 320.209976 55.240028 
L 320.515255 55.240028 
L 320.820535 54.408416 
L 321.125814 54.408416 
L 321.431094 54.983781 
L 321.736373 54.983781 
L 322.041653 47.041859 
L 322.346932 47.041859 
L 322.652212 80.638941 
L 323.262771 95.100111 
L 323.56805 99.161661 
L 323.87333 106.660428 
L 324.178609 106.660428 
L 324.483888 109.103789 
L 324.789168 70.016304 
L 325.094447 77.600218 
L 325.399727 77.600218 
L 326.010286 101.815218 
L 326.315565 105.009109 
L 326.620845 101.815218 
L 326.926124 119.016812 
L 327.231404 115.810902 
L 327.536683 119.016812 
L 328.147242 113.142851 
L 328.452522 111.643481 
L 328.757801 111.643481 
L 329.063081 140.401105 
L 329.36836 140.401105 
L 329.67364 128.710467 
L 329.978919 128.710467 
L 330.284198 137.389262 
L 330.589478 137.389262 
L 330.894757 158.577029 
L 331.200037 133.072541 
L 331.505316 159.752892 
L 331.810596 133.072541 
L 332.115875 143.932045 
L 332.726434 143.932045 
L 333.031714 146.039632 
L 333.336993 164.843397 
L 333.642273 164.843397 
L 333.947552 155.950154 
L 334.252832 155.950154 
L 334.863391 148.31303 
L 335.16867 148.31303 
L 335.779229 191.408938 
L 336.084508 168.193758 
L 336.389788 170.993239 
L 336.695067 170.993239 
L 337.000347 184.512176 
L 337.305626 184.512176 
L 337.610906 170.584207 
L 337.916185 170.584207 
L 338.526744 188.174488 
L 338.832024 186.548488 
L 339.137303 188.174488 
L 339.442583 188.552138 
L 339.747862 188.552138 
L 340.053142 196.177645 
L 340.358421 180.166698 
L 340.663701 207.33375 
L 341.27426 207.33375 
L 341.579539 194.849907 
L 341.884819 193.444845 
L 342.190098 179.948213 
L 342.495377 178.805062 
L 342.800657 179.948213 
L 343.105936 199.504278 
L 343.411216 199.504278 
L 343.716495 179.654968 
L 344.021775 179.654968 
L 344.327054 174.732179 
L 344.632334 181.629586 
L 344.937613 182.544473 
L 345.242893 182.544473 
L 345.548172 193.540302 
L 345.853452 180.255833 
L 346.158731 180.255833 
L 346.464011 168.762084 
L 346.76929 168.762084 
L 347.07457 200.546623 
L 347.379849 203.01914 
L 347.685129 200.546623 
L 347.990408 199.268342 
L 348.295687 172.11026 
L 348.600967 189.430245 
L 348.906246 172.11026 
L 349.211526 189.430245 
L 349.516805 198.85327 
L 349.822085 200.662815 
L 350.127364 200.662815 
L 351.043203 163.630369 
L 351.348482 154.213836 
L 351.653762 152.259976 
L 351.959041 154.213836 
L 352.264321 158.921182 
L 352.5696 159.614511 
L 352.87488 166.085503 
L 353.180159 166.085503 
L 353.485439 152.743336 
L 353.790718 152.743336 
L 354.095998 128.903527 
L 354.401277 154.85812 
L 354.706556 129.092957 
L 355.317115 129.092957 
L 355.622395 147.762086 
L 355.927674 147.762086 
L 356.538233 128.846434 
L 356.843513 129.70179 
L 357.148792 129.70179 
L 357.454072 142.734129 
L 357.759351 142.734129 
L 358.064631 131.670179 
L 358.064631 131.670179 
" clip-path="url(#p2083a8cd81)" style="fill: none; stroke: #1f77b4; stroke-width: 1.5; stroke-linecap: square"/>
   </g>
   <g id="patch_3">
    <path d="M 38.482813 224.64 
L 38.482813 7.2 
" style="fill: none; stroke: #000000; stroke-width: 0.8; stroke-linejoin: miter; stroke-linecap: square"/>
   </g>
   <g id="patch_4">
    <path d="M 373.282813 224.64 
L 373.282813 7.2 
" style="fill: none; stroke: #000000; stroke-width: 0.8; stroke-linejoin: miter; stroke-linecap: square"/>
   </g>
   <g id="patch_5">
    <path d="M 38.482813 224.64 
L 373.282813 224.64 
" style="fill: none; stroke: #000000; stroke-width: 0.8; stroke-linejoin: miter; stroke-linecap: square"/>
   </g>
   <g id="patch_6">
    <path d="M 38.482813 7.2 
L 373.282813 7.2 
" style="fill: none; stroke: #000000; stroke-width: 0.8; stroke-linejoin: miter; stroke-linecap: square"/>
   </g>
  </g>
 </g>
 <defs>
  <clipPath id="p2083a8cd81">
   <rect x="38.482813" y="7.2" width="334.8" height="217.44"/>
  </clipPath>
 </defs>
</svg>
