<?xml version="1.0" encoding="utf-8" standalone="no"?>
<!DOCTYPE svg PUBLIC "-//W3C//DTD SVG 1.1//EN"
  "http://www.w3.org/Graphics/SVG/1.1/DTD/svg11.dtd">
<svg xmlns:xlink="http://www.w3.org/1999/xlink" width="532.7875pt" height="352.15625pt" viewBox="0 0 532.7875 352.15625" xmlns="http://www.w3.org/2000/svg" version="1.1">
 <metadata>
  <rdf:RDF xmlns:dc="http://purl.org/dc/elements/1.1/" xmlns:cc="http://creativecommons.org/ns#" xmlns:rdf="http://www.w3.org/1999/02/22-rdf-syntax-ns#">
   <cc:Work>
    <dc:type rdf:resource="http://purl.org/dc/dcmitype/StillImage"/>
    <dc:date>2022-06-02T14:37:45.909531</dc:date>
    <dc:format>image/svg+xml</dc:format>
    <dc:creator>
     <cc:Agent>
      <dc:title>Matplotlib v3.5.2, https://matplotlib.org/</dc:title>
     </cc:Agent>
    </dc:creator>
   </cc:Work>
  </rdf:RDF>
 </metadata>
 <defs>
  <style type="text/css">*{stroke-linejoin: round; stroke-linecap: butt}</style>
 </defs>
 <g id="figure_1">
  <g id="patch_1">
   <path d="M 0 352.15625 
L 532.7875 352.15625 
L 532.7875 0 
L 0 0 
L 0 352.15625 
z
" style="fill: none"/>
  </g>
  <g id="axes_1">
   <g id="patch_2">
    <path d="M 47.1875 314.6 
L 525.5875 314.6 
L 525.5875 7.2 
L 47.1875 7.2 
z
" style="fill: #ffffff"/>
   </g>
   <g id="PathCollection_1">
    <defs>
     <path id="m7480f4e7e6" d="M 0 3 
C 0.795609 3 1.55874 2.683901 2.12132 2.12132 
C 2.683901 1.55874 3 0.795609 3 0 
C 3 -0.795609 2.683901 -1.55874 2.12132 -2.12132 
C 1.55874 -2.683901 0.795609 -3 0 -3 
C -0.795609 -3 -1.55874 -2.683901 -2.12132 -2.12132 
C -2.683901 -1.55874 -3 -0.795609 -3 0 
C -3 0.795609 -2.683901 1.55874 -2.12132 2.12132 
C -1.55874 2.683901 -0.795609 3 0 3 
z
" style="stroke: #1f77b4; stroke-opacity: 0.8"/>
    </defs>
    <g clip-path="url(#p42e2490562)">
     <use xlink:href="#m7480f4e7e6" x="68.932955" y="254.583209" style="fill: #1f77b4; fill-opacity: 0.8; stroke: #1f77b4; stroke-opacity: 0.8"/>
     <use xlink:href="#m7480f4e7e6" x="113.052799" y="238.405565" style="fill: #1f77b4; fill-opacity: 0.8; stroke: #1f77b4; stroke-opacity: 0.8"/>
     <use xlink:href="#m7480f4e7e6" x="157.172644" y="213.516882" style="fill: #1f77b4; fill-opacity: 0.8; stroke: #1f77b4; stroke-opacity: 0.8"/>
     <use xlink:href="#m7480f4e7e6" x="201.261042" y="188.628199" style="fill: #1f77b4; fill-opacity: 0.8; stroke: #1f77b4; stroke-opacity: 0.8"/>
     <use xlink:href="#m7480f4e7e6" x="245.380887" y="162.495081" style="fill: #1f77b4; fill-opacity: 0.8; stroke: #1f77b4; stroke-opacity: 0.8"/>
     <use xlink:href="#m7480f4e7e6" x="289.500732" y="140.095267" style="fill: #1f77b4; fill-opacity: 0.8; stroke: #1f77b4; stroke-opacity: 0.8"/>
     <use xlink:href="#m7480f4e7e6" x="333.58913" y="116.451018" style="fill: #1f77b4; fill-opacity: 0.8; stroke: #1f77b4; stroke-opacity: 0.8"/>
     <use xlink:href="#m7480f4e7e6" x="377.708975" y="92.806769" style="fill: #1f77b4; fill-opacity: 0.8; stroke: #1f77b4; stroke-opacity: 0.8"/>
     <use xlink:href="#m7480f4e7e6" x="421.797373" y="71.651388" style="fill: #1f77b4; fill-opacity: 0.8; stroke: #1f77b4; stroke-opacity: 0.8"/>
     <use xlink:href="#m7480f4e7e6" x="465.917218" y="46.762705" style="fill: #1f77b4; fill-opacity: 0.8; stroke: #1f77b4; stroke-opacity: 0.8"/>
     <use xlink:href="#m7480f4e7e6" x="201.261042" y="201.07254" style="fill: #1f77b4; fill-opacity: 0.8; stroke: #1f77b4; stroke-opacity: 0.8"/>
     <use xlink:href="#m7480f4e7e6" x="201.261042" y="232.183394" style="fill: #1f77b4; fill-opacity: 0.8; stroke: #1f77b4; stroke-opacity: 0.8"/>
     <use xlink:href="#m7480f4e7e6" x="245.380887" y="172.450555" style="fill: #1f77b4; fill-opacity: 0.8; stroke: #1f77b4; stroke-opacity: 0.8"/>
     <use xlink:href="#m7480f4e7e6" x="289.500732" y="167.472818" style="fill: #1f77b4; fill-opacity: 0.8; stroke: #1f77b4; stroke-opacity: 0.8"/>
     <use xlink:href="#m7480f4e7e6" x="333.58913" y="161.250647" style="fill: #1f77b4; fill-opacity: 0.8; stroke: #1f77b4; stroke-opacity: 0.8"/>
     <use xlink:href="#m7480f4e7e6" x="264.123173" y="108.984413" style="fill: #1f77b4; fill-opacity: 0.8; stroke: #1f77b4; stroke-opacity: 0.8"/>
     <use xlink:href="#m7480f4e7e6" x="308.243018" y="84.09573" style="fill: #1f77b4; fill-opacity: 0.8; stroke: #1f77b4; stroke-opacity: 0.8"/>
     <use xlink:href="#m7480f4e7e6" x="396.451261" y="61.695915" style="fill: #1f77b4; fill-opacity: 0.8; stroke: #1f77b4; stroke-opacity: 0.8"/>
    </g>
   </g>
   <g id="PolyCollection_1">
    <path d="M 68.932955 251.754171 
L 68.932955 285.924036 
L 72.942897 283.423255 
L 76.952839 280.998865 
L 80.962781 278.336685 
L 84.972723 275.743148 
L 88.982665 273.095247 
L 92.992607 270.547818 
L 97.002549 268.13717 
L 101.012491 265.618445 
L 105.022433 263.082428 
L 109.032375 260.546412 
L 113.042317 258.042544 
L 117.052259 255.499258 
L 121.062201 253.088937 
L 125.072143 250.447298 
L 129.082085 247.941122 
L 133.092027 245.506986 
L 137.101969 243.114689 
L 141.111912 240.690666 
L 145.121854 238.143947 
L 149.131796 235.686702 
L 153.141738 233.180711 
L 157.15168 230.678407 
L 161.161622 228.29761 
L 165.171564 225.698905 
L 169.181506 223.250763 
L 173.191448 220.664917 
L 177.20139 218.163882 
L 181.211332 215.662847 
L 185.221274 213.161812 
L 189.231216 210.881121 
L 193.241158 208.641587 
L 197.2511 206.007828 
L 201.261042 203.799473 
L 205.270984 201.47638 
L 209.280926 199.01427 
L 213.290869 196.642807 
L 217.300811 194.381515 
L 221.310753 192.108265 
L 225.320695 189.716525 
L 229.330637 187.607358 
L 233.340579 185.220886 
L 237.350521 183.0968 
L 241.360463 180.842829 
L 245.370405 178.582501 
L 249.380347 176.14779 
L 253.390289 173.510142 
L 257.400231 171.2404 
L 261.410173 168.908302 
L 265.420115 166.645232 
L 269.430057 164.220908 
L 273.439999 161.910046 
L 277.449941 159.569552 
L 281.459883 157.170293 
L 285.469826 154.988515 
L 289.479768 152.6921 
L 293.48971 150.504951 
L 297.499652 148.10111 
L 301.509594 145.924248 
L 305.519536 143.727937 
L 309.529478 141.62945 
L 313.53942 139.529948 
L 317.549362 137.552667 
L 321.559304 135.470397 
L 325.569246 133.390863 
L 329.579188 131.211227 
L 333.58913 129.173252 
L 337.599072 127.164089 
L 341.609014 124.972661 
L 345.618956 122.795805 
L 349.628898 120.763936 
L 353.63884 118.731049 
L 357.648783 116.523238 
L 361.658725 114.298652 
L 365.668667 112.198821 
L 369.678609 110.138317 
L 373.688551 108.04391 
L 377.698493 105.998285 
L 381.708435 103.958345 
L 385.718377 101.89831 
L 389.728319 99.838208 
L 393.738261 97.836205 
L 397.748203 95.785371 
L 401.758145 93.730847 
L 405.768087 91.673424 
L 409.778029 89.537697 
L 413.787971 87.477595 
L 417.797913 85.417493 
L 421.807855 83.357391 
L 425.817797 81.297289 
L 429.82774 79.237186 
L 433.837682 77.220328 
L 437.847624 75.237809 
L 441.857566 73.189899 
L 445.867508 71.137853 
L 449.87745 69.085807 
L 453.887392 67.033761 
L 457.897334 64.979772 
L 461.907276 62.921909 
L 465.917218 60.86544 
L 465.917218 21.172727 
L 465.917218 21.172727 
L 461.907276 23.695377 
L 457.897334 26.293122 
L 453.887392 28.971751 
L 449.87745 31.509785 
L 445.867508 33.977614 
L 441.857566 36.372515 
L 437.847624 38.842401 
L 433.837682 41.369145 
L 429.82774 43.894105 
L 425.817797 46.41737 
L 421.807855 48.940634 
L 417.797913 51.463899 
L 413.787971 53.990671 
L 409.778029 56.599368 
L 405.768087 59.341686 
L 401.758145 62.084004 
L 397.748203 64.746732 
L 393.738261 67.293613 
L 389.728319 69.753665 
L 385.718377 72.213716 
L 381.708435 74.673767 
L 377.698493 77.133818 
L 373.688551 79.593869 
L 369.678609 81.91507 
L 365.668667 84.307968 
L 361.658725 86.809036 
L 357.648783 89.179269 
L 353.63884 91.686698 
L 349.628898 94.256086 
L 345.618956 96.628985 
L 341.609014 99.087032 
L 337.599072 101.543896 
L 333.58913 103.860024 
L 329.579188 106.224218 
L 325.569246 108.730488 
L 321.559304 111.221526 
L 317.549362 113.838413 
L 313.53942 116.233555 
L 309.529478 118.629605 
L 305.519536 121.05611 
L 301.509594 123.277837 
L 297.499652 125.497988 
L 293.48971 127.719329 
L 289.479768 130.170587 
L 285.469826 132.521438 
L 281.459883 134.67085 
L 277.449941 137.057241 
L 273.439999 139.443683 
L 269.430057 141.830125 
L 265.420115 144.216568 
L 261.410173 146.60301 
L 257.400231 148.989452 
L 253.390289 151.163027 
L 249.380347 153.5335 
L 245.370405 155.776235 
L 241.360463 157.999345 
L 237.350521 160.243992 
L 233.340579 162.48864 
L 229.330637 164.591407 
L 225.320695 166.806575 
L 221.310753 169.174199 
L 217.300811 171.377695 
L 213.290869 173.581309 
L 209.280926 175.696363 
L 205.270984 177.782256 
L 201.261042 179.870691 
L 197.2511 182.059097 
L 193.241158 184.251341 
L 189.231216 186.547681 
L 185.221274 188.831412 
L 181.211332 191.043205 
L 177.20139 193.200835 
L 173.191448 195.35903 
L 169.181506 197.456229 
L 165.171564 199.582836 
L 161.161622 201.804631 
L 157.15168 203.994737 
L 153.141738 206.184293 
L 149.131796 208.345435 
L 145.121854 210.534827 
L 141.111912 212.691146 
L 137.101969 214.833567 
L 133.092027 216.975988 
L 129.082085 219.118408 
L 125.072143 221.27582 
L 121.062201 223.418179 
L 117.052259 225.575896 
L 113.042317 227.733614 
L 109.032375 229.892679 
L 105.022433 232.102447 
L 101.012491 234.208964 
L 97.002549 236.364483 
L 92.992607 238.522201 
L 88.982665 240.692824 
L 84.972723 243.010541 
L 80.962781 245.308326 
L 76.952839 247.457618 
L 72.942897 249.606909 
L 68.932955 251.754171 
z
" clip-path="url(#p42e2490562)" style="fill: #1f77b4; fill-opacity: 0.15"/>
   </g>
   <g id="PathCollection_2">
    <defs>
     <path id="md37250cf0c" d="M 0 -3 
L -3 3 
L 3 3 
z
" style="stroke: #ff7f0e; stroke-opacity: 0.8"/>
    </defs>
    <g clip-path="url(#p42e2490562)">
     <use xlink:href="#md37250cf0c" x="195.066025" y="290.671799" style="fill: #ff7f0e; fill-opacity: 0.8; stroke: #ff7f0e; stroke-opacity: 0.8"/>
     <use xlink:href="#md37250cf0c" x="239.18587" y="249.605472" style="fill: #ff7f0e; fill-opacity: 0.8; stroke: #ff7f0e; stroke-opacity: 0.8"/>
     <use xlink:href="#md37250cf0c" x="283.305715" y="213.516882" style="fill: #ff7f0e; fill-opacity: 0.8; stroke: #ff7f0e; stroke-opacity: 0.8"/>
     <use xlink:href="#md37250cf0c" x="327.394113" y="178.672725" style="fill: #ff7f0e; fill-opacity: 0.8; stroke: #ff7f0e; stroke-opacity: 0.8"/>
     <use xlink:href="#md37250cf0c" x="371.513958" y="147.561872" style="fill: #ff7f0e; fill-opacity: 0.8; stroke: #ff7f0e; stroke-opacity: 0.8"/>
     <use xlink:href="#md37250cf0c" x="415.633803" y="118.939886" style="fill: #ff7f0e; fill-opacity: 0.8; stroke: #ff7f0e; stroke-opacity: 0.8"/>
     <use xlink:href="#md37250cf0c" x="459.722201" y="91.562334" style="fill: #ff7f0e; fill-opacity: 0.8; stroke: #ff7f0e; stroke-opacity: 0.8"/>
     <use xlink:href="#md37250cf0c" x="503.842045" y="66.673651" style="fill: #ff7f0e; fill-opacity: 0.8; stroke: #ff7f0e; stroke-opacity: 0.8"/>
     <use xlink:href="#md37250cf0c" x="239.18587" y="257.072077" style="fill: #ff7f0e; fill-opacity: 0.8; stroke: #ff7f0e; stroke-opacity: 0.8"/>
     <use xlink:href="#md37250cf0c" x="327.394113" y="189.872633" style="fill: #ff7f0e; fill-opacity: 0.8; stroke: #ff7f0e; stroke-opacity: 0.8"/>
     <use xlink:href="#md37250cf0c" x="195.066025" y="300.627273" style="fill: #ff7f0e; fill-opacity: 0.8; stroke: #ff7f0e; stroke-opacity: 0.8"/>
     <use xlink:href="#md37250cf0c" x="283.305715" y="235.916697" style="fill: #ff7f0e; fill-opacity: 0.8; stroke: #ff7f0e; stroke-opacity: 0.8"/>
    </g>
   </g>
   <g id="PolyCollection_2">
    <path d="M 195.066025 279.338176 
L 195.066025 296.745454 
L 198.184975 294.36472 
L 201.303924 291.755367 
L 204.422874 289.25529 
L 207.541824 286.67864 
L 210.660773 284.062676 
L 213.779723 281.450509 
L 216.898673 278.911761 
L 220.017623 276.535924 
L 223.136572 274.170709 
L 226.255522 271.789583 
L 229.374472 269.267457 
L 232.493421 266.848664 
L 235.612371 264.40508 
L 238.731321 261.950072 
L 241.85027 259.461397 
L 244.96922 257.061482 
L 248.08817 254.590598 
L 251.20712 252.218009 
L 254.326069 249.761968 
L 257.445019 247.363474 
L 260.563969 244.920499 
L 263.682918 242.422923 
L 266.801868 240.009793 
L 269.920818 237.558473 
L 273.039767 235.137771 
L 276.158717 232.745515 
L 279.277667 230.376079 
L 282.396617 227.980286 
L 285.515566 225.494177 
L 288.634516 223.152748 
L 291.753466 220.845765 
L 294.872415 218.429047 
L 297.991365 216.084023 
L 301.110315 213.737771 
L 304.229265 211.353051 
L 307.348214 209.003839 
L 310.467164 206.66972 
L 313.586114 204.312834 
L 316.705063 201.957046 
L 319.824013 199.597141 
L 322.942963 197.255067 
L 326.061912 194.914028 
L 329.180862 192.562009 
L 332.299812 190.213486 
L 335.418762 187.864963 
L 338.537711 185.51644 
L 341.656661 183.163204 
L 344.775611 180.774783 
L 347.89456 178.386362 
L 351.01351 176.065165 
L 354.13246 173.7485 
L 357.251409 171.42373 
L 360.370359 169.075856 
L 363.489309 166.727812 
L 366.608259 164.378594 
L 369.727208 162.039204 
L 372.846158 159.679055 
L 375.965108 157.306541 
L 379.084057 154.946221 
L 382.203007 152.577216 
L 385.321957 150.248986 
L 388.440906 147.936731 
L 391.559856 145.588788 
L 394.678806 143.277969 
L 397.797756 141.031479 
L 400.916705 138.70932 
L 404.035655 136.436228 
L 407.154605 134.129533 
L 410.273554 131.813416 
L 413.392504 129.497298 
L 416.511454 127.18077 
L 419.630403 124.864063 
L 422.749353 122.588232 
L 425.868303 120.294833 
L 428.987253 117.954064 
L 432.106202 115.635743 
L 435.225152 113.318409 
L 438.344102 111.015936 
L 441.463051 108.713115 
L 444.582001 106.410294 
L 447.700951 104.107285 
L 450.819901 101.789201 
L 453.93885 99.503677 
L 457.0578 97.229019 
L 460.17675 94.93685 
L 463.295699 92.673937 
L 466.414649 90.41152 
L 469.533599 88.156697 
L 472.652548 85.910045 
L 475.771498 83.649619 
L 478.890448 81.410001 
L 482.009398 79.128419 
L 485.128347 76.837983 
L 488.247297 74.575625 
L 491.366247 72.374746 
L 494.485196 70.203437 
L 497.604146 67.998712 
L 500.723096 65.731652 
L 503.842045 63.417593 
L 503.842045 40.296391 
L 503.842045 40.296391 
L 500.723096 42.889072 
L 497.604146 45.504464 
L 494.485196 48.1075 
L 491.366247 50.710536 
L 488.247297 53.313828 
L 485.128347 55.918485 
L 482.009398 58.523142 
L 478.890448 61.127799 
L 475.771498 63.732456 
L 472.652548 66.27957 
L 469.533599 68.814631 
L 466.414649 71.352543 
L 463.295699 73.9615 
L 460.17675 76.570456 
L 457.0578 79.162014 
L 453.93885 81.718768 
L 450.819901 84.275523 
L 447.700951 86.832277 
L 444.582001 89.389031 
L 441.463051 91.945785 
L 438.344102 94.502539 
L 435.225152 97.059293 
L 432.106202 99.615473 
L 428.987253 102.120103 
L 425.868303 104.621384 
L 422.749353 107.122666 
L 419.630403 109.623947 
L 416.511454 112.125229 
L 413.392504 114.62651 
L 410.273554 117.127792 
L 407.154605 119.629074 
L 404.035655 122.130355 
L 400.916705 124.631637 
L 397.797756 127.13341 
L 394.678806 129.666654 
L 391.559856 132.282189 
L 388.440906 134.897723 
L 385.321957 137.51334 
L 382.203007 140.130199 
L 379.084057 142.653954 
L 375.965108 145.205361 
L 372.846158 147.673377 
L 369.727208 150.2176 
L 366.608259 152.763385 
L 363.489309 155.315446 
L 360.370359 157.863479 
L 357.251409 160.427471 
L 354.13246 163.011992 
L 351.01351 165.619303 
L 347.89456 168.118881 
L 344.775611 170.609841 
L 341.656661 173.064998 
L 338.537711 175.469456 
L 335.418762 177.930645 
L 332.299812 180.272621 
L 329.180862 182.655418 
L 326.061912 184.967594 
L 322.942963 187.349413 
L 319.824013 189.728798 
L 316.705063 192.177874 
L 313.586114 194.49407 
L 310.467164 196.811556 
L 307.348214 199.028267 
L 304.229265 201.294719 
L 301.110315 203.607041 
L 297.991365 206.024821 
L 294.872415 208.264945 
L 291.753466 210.451165 
L 288.634516 212.767278 
L 285.515566 215.030821 
L 282.396617 217.243398 
L 279.277667 219.45633 
L 276.158717 221.669996 
L 273.039767 223.883661 
L 269.920818 226.082291 
L 266.801868 228.319619 
L 263.682918 230.559186 
L 260.563969 232.798721 
L 257.445019 235.007493 
L 254.326069 237.216266 
L 251.20712 239.423741 
L 248.08817 241.627719 
L 244.96922 243.831698 
L 241.85027 246.035676 
L 238.731321 248.239655 
L 235.612371 250.443634 
L 232.493421 252.653432 
L 229.374472 254.866185 
L 226.255522 257.078938 
L 223.136572 259.298994 
L 220.017623 261.512765 
L 216.898673 263.721538 
L 213.779723 265.931457 
L 210.660773 268.144368 
L 207.541824 270.387674 
L 204.422874 272.634879 
L 201.303924 274.882084 
L 198.184975 277.129289 
L 195.066025 279.338176 
z
" clip-path="url(#p42e2490562)" style="fill: #ff7f0e; fill-opacity: 0.15"/>
   </g>
   <g id="matplotlib.axis_1">
    <g id="xtick_1">
     <g id="line2d_1">
      <defs>
       <path id="m0d4fd7226a" d="M 0 0 
L 0 3.5 
" style="stroke: #000000; stroke-width: 0.8"/>
      </defs>
      <g>
       <use xlink:href="#m0d4fd7226a" x="93.964599" y="314.6" style="stroke: #000000; stroke-width: 0.8"/>
      </g>
     </g>
     <g id="text_1">
      <!-- 40 -->
      <g transform="translate(87.602099 329.198437)scale(0.1 -0.1)">
       <defs>
        <path id="DejaVuSans-34" d="M 2419 4116 
L 825 1625 
L 2419 1625 
L 2419 4116 
z
M 2253 4666 
L 3047 4666 
L 3047 1625 
L 3713 1625 
L 3713 1100 
L 3047 1100 
L 3047 0 
L 2419 0 
L 2419 1100 
L 313 1100 
L 313 1709 
L 2253 4666 
z
" transform="scale(0.015625)"/>
        <path id="DejaVuSans-30" d="M 2034 4250 
Q 1547 4250 1301 3770 
Q 1056 3291 1056 2328 
Q 1056 1369 1301 889 
Q 1547 409 2034 409 
Q 2525 409 2770 889 
Q 3016 1369 3016 2328 
Q 3016 3291 2770 3770 
Q 2525 4250 2034 4250 
z
M 2034 4750 
Q 2819 4750 3233 4129 
Q 3647 3509 3647 2328 
Q 3647 1150 3233 529 
Q 2819 -91 2034 -91 
Q 1250 -91 836 529 
Q 422 1150 422 2328 
Q 422 3509 836 4129 
Q 1250 4750 2034 4750 
z
" transform="scale(0.015625)"/>
       </defs>
       <use xlink:href="#DejaVuSans-34"/>
       <use xlink:href="#DejaVuSans-30" x="63.623047"/>
      </g>
     </g>
    </g>
    <g id="xtick_2">
     <g id="line2d_2">
      <g>
       <use xlink:href="#m0d4fd7226a" x="156.858176" y="314.6" style="stroke: #000000; stroke-width: 0.8"/>
      </g>
     </g>
     <g id="text_2">
      <!-- 60 -->
      <g transform="translate(150.495676 329.198437)scale(0.1 -0.1)">
       <defs>
        <path id="DejaVuSans-36" d="M 2113 2584 
Q 1688 2584 1439 2293 
Q 1191 2003 1191 1497 
Q 1191 994 1439 701 
Q 1688 409 2113 409 
Q 2538 409 2786 701 
Q 3034 994 3034 1497 
Q 3034 2003 2786 2293 
Q 2538 2584 2113 2584 
z
M 3366 4563 
L 3366 3988 
Q 3128 4100 2886 4159 
Q 2644 4219 2406 4219 
Q 1781 4219 1451 3797 
Q 1122 3375 1075 2522 
Q 1259 2794 1537 2939 
Q 1816 3084 2150 3084 
Q 2853 3084 3261 2657 
Q 3669 2231 3669 1497 
Q 3669 778 3244 343 
Q 2819 -91 2113 -91 
Q 1303 -91 875 529 
Q 447 1150 447 2328 
Q 447 3434 972 4092 
Q 1497 4750 2381 4750 
Q 2619 4750 2861 4703 
Q 3103 4656 3366 4563 
z
" transform="scale(0.015625)"/>
       </defs>
       <use xlink:href="#DejaVuSans-36"/>
       <use xlink:href="#DejaVuSans-30" x="63.623047"/>
      </g>
     </g>
    </g>
    <g id="xtick_3">
     <g id="line2d_3">
      <g>
       <use xlink:href="#m0d4fd7226a" x="219.751754" y="314.6" style="stroke: #000000; stroke-width: 0.8"/>
      </g>
     </g>
     <g id="text_3">
      <!-- 80 -->
      <g transform="translate(213.389254 329.198437)scale(0.1 -0.1)">
       <defs>
        <path id="DejaVuSans-38" d="M 2034 2216 
Q 1584 2216 1326 1975 
Q 1069 1734 1069 1313 
Q 1069 891 1326 650 
Q 1584 409 2034 409 
Q 2484 409 2743 651 
Q 3003 894 3003 1313 
Q 3003 1734 2745 1975 
Q 2488 2216 2034 2216 
z
M 1403 2484 
Q 997 2584 770 2862 
Q 544 3141 544 3541 
Q 544 4100 942 4425 
Q 1341 4750 2034 4750 
Q 2731 4750 3128 4425 
Q 3525 4100 3525 3541 
Q 3525 3141 3298 2862 
Q 3072 2584 2669 2484 
Q 3125 2378 3379 2068 
Q 3634 1759 3634 1313 
Q 3634 634 3220 271 
Q 2806 -91 2034 -91 
Q 1263 -91 848 271 
Q 434 634 434 1313 
Q 434 1759 690 2068 
Q 947 2378 1403 2484 
z
M 1172 3481 
Q 1172 3119 1398 2916 
Q 1625 2713 2034 2713 
Q 2441 2713 2670 2916 
Q 2900 3119 2900 3481 
Q 2900 3844 2670 4047 
Q 2441 4250 2034 4250 
Q 1625 4250 1398 4047 
Q 1172 3844 1172 3481 
z
" transform="scale(0.015625)"/>
       </defs>
       <use xlink:href="#DejaVuSans-38"/>
       <use xlink:href="#DejaVuSans-30" x="63.623047"/>
      </g>
     </g>
    </g>
    <g id="xtick_4">
     <g id="line2d_4">
      <g>
       <use xlink:href="#m0d4fd7226a" x="282.645332" y="314.6" style="stroke: #000000; stroke-width: 0.8"/>
      </g>
     </g>
     <g id="text_4">
      <!-- 100 -->
      <g transform="translate(273.101582 329.198437)scale(0.1 -0.1)">
       <defs>
        <path id="DejaVuSans-31" d="M 794 531 
L 1825 531 
L 1825 4091 
L 703 3866 
L 703 4441 
L 1819 4666 
L 2450 4666 
L 2450 531 
L 3481 531 
L 3481 0 
L 794 0 
L 794 531 
z
" transform="scale(0.015625)"/>
       </defs>
       <use xlink:href="#DejaVuSans-31"/>
       <use xlink:href="#DejaVuSans-30" x="63.623047"/>
       <use xlink:href="#DejaVuSans-30" x="127.246094"/>
      </g>
     </g>
    </g>
    <g id="xtick_5">
     <g id="line2d_5">
      <g>
       <use xlink:href="#m0d4fd7226a" x="345.53891" y="314.6" style="stroke: #000000; stroke-width: 0.8"/>
      </g>
     </g>
     <g id="text_5">
      <!-- 120 -->
      <g transform="translate(335.99516 329.198437)scale(0.1 -0.1)">
       <defs>
        <path id="DejaVuSans-32" d="M 1228 531 
L 3431 531 
L 3431 0 
L 469 0 
L 469 531 
Q 828 903 1448 1529 
Q 2069 2156 2228 2338 
Q 2531 2678 2651 2914 
Q 2772 3150 2772 3378 
Q 2772 3750 2511 3984 
Q 2250 4219 1831 4219 
Q 1534 4219 1204 4116 
Q 875 4013 500 3803 
L 500 4441 
Q 881 4594 1212 4672 
Q 1544 4750 1819 4750 
Q 2544 4750 2975 4387 
Q 3406 4025 3406 3419 
Q 3406 3131 3298 2873 
Q 3191 2616 2906 2266 
Q 2828 2175 2409 1742 
Q 1991 1309 1228 531 
z
" transform="scale(0.015625)"/>
       </defs>
       <use xlink:href="#DejaVuSans-31"/>
       <use xlink:href="#DejaVuSans-32" x="63.623047"/>
       <use xlink:href="#DejaVuSans-30" x="127.246094"/>
      </g>
     </g>
    </g>
    <g id="xtick_6">
     <g id="line2d_6">
      <g>
       <use xlink:href="#m0d4fd7226a" x="408.432488" y="314.6" style="stroke: #000000; stroke-width: 0.8"/>
      </g>
     </g>
     <g id="text_6">
      <!-- 140 -->
      <g transform="translate(398.888738 329.198437)scale(0.1 -0.1)">
       <use xlink:href="#DejaVuSans-31"/>
       <use xlink:href="#DejaVuSans-34" x="63.623047"/>
       <use xlink:href="#DejaVuSans-30" x="127.246094"/>
      </g>
     </g>
    </g>
    <g id="xtick_7">
     <g id="line2d_7">
      <g>
       <use xlink:href="#m0d4fd7226a" x="471.326066" y="314.6" style="stroke: #000000; stroke-width: 0.8"/>
      </g>
     </g>
     <g id="text_7">
      <!-- 160 -->
      <g transform="translate(461.782316 329.198437)scale(0.1 -0.1)">
       <use xlink:href="#DejaVuSans-31"/>
       <use xlink:href="#DejaVuSans-36" x="63.623047"/>
       <use xlink:href="#DejaVuSans-30" x="127.246094"/>
      </g>
     </g>
    </g>
    <g id="text_8">
     <!-- MW, g/mol -->
     <g transform="translate(259.774219 342.876562)scale(0.1 -0.1)">
      <defs>
       <path id="DejaVuSans-4d" d="M 628 4666 
L 1569 4666 
L 2759 1491 
L 3956 4666 
L 4897 4666 
L 4897 0 
L 4281 0 
L 4281 4097 
L 3078 897 
L 2444 897 
L 1241 4097 
L 1241 0 
L 628 0 
L 628 4666 
z
" transform="scale(0.015625)"/>
       <path id="DejaVuSans-57" d="M 213 4666 
L 850 4666 
L 1831 722 
L 2809 4666 
L 3519 4666 
L 4500 722 
L 5478 4666 
L 6119 4666 
L 4947 0 
L 4153 0 
L 3169 4050 
L 2175 0 
L 1381 0 
L 213 4666 
z
" transform="scale(0.015625)"/>
       <path id="DejaVuSans-2c" d="M 750 794 
L 1409 794 
L 1409 256 
L 897 -744 
L 494 -744 
L 750 256 
L 750 794 
z
" transform="scale(0.015625)"/>
       <path id="DejaVuSans-20" transform="scale(0.015625)"/>
       <path id="DejaVuSans-67" d="M 2906 1791 
Q 2906 2416 2648 2759 
Q 2391 3103 1925 3103 
Q 1463 3103 1205 2759 
Q 947 2416 947 1791 
Q 947 1169 1205 825 
Q 1463 481 1925 481 
Q 2391 481 2648 825 
Q 2906 1169 2906 1791 
z
M 3481 434 
Q 3481 -459 3084 -895 
Q 2688 -1331 1869 -1331 
Q 1566 -1331 1297 -1286 
Q 1028 -1241 775 -1147 
L 775 -588 
Q 1028 -725 1275 -790 
Q 1522 -856 1778 -856 
Q 2344 -856 2625 -561 
Q 2906 -266 2906 331 
L 2906 616 
Q 2728 306 2450 153 
Q 2172 0 1784 0 
Q 1141 0 747 490 
Q 353 981 353 1791 
Q 353 2603 747 3093 
Q 1141 3584 1784 3584 
Q 2172 3584 2450 3431 
Q 2728 3278 2906 2969 
L 2906 3500 
L 3481 3500 
L 3481 434 
z
" transform="scale(0.015625)"/>
       <path id="DejaVuSans-2f" d="M 1625 4666 
L 2156 4666 
L 531 -594 
L 0 -594 
L 1625 4666 
z
" transform="scale(0.015625)"/>
       <path id="DejaVuSans-6d" d="M 3328 2828 
Q 3544 3216 3844 3400 
Q 4144 3584 4550 3584 
Q 5097 3584 5394 3201 
Q 5691 2819 5691 2113 
L 5691 0 
L 5113 0 
L 5113 2094 
Q 5113 2597 4934 2840 
Q 4756 3084 4391 3084 
Q 3944 3084 3684 2787 
Q 3425 2491 3425 1978 
L 3425 0 
L 2847 0 
L 2847 2094 
Q 2847 2600 2669 2842 
Q 2491 3084 2119 3084 
Q 1678 3084 1418 2786 
Q 1159 2488 1159 1978 
L 1159 0 
L 581 0 
L 581 3500 
L 1159 3500 
L 1159 2956 
Q 1356 3278 1631 3431 
Q 1906 3584 2284 3584 
Q 2666 3584 2933 3390 
Q 3200 3197 3328 2828 
z
" transform="scale(0.015625)"/>
       <path id="DejaVuSans-6f" d="M 1959 3097 
Q 1497 3097 1228 2736 
Q 959 2375 959 1747 
Q 959 1119 1226 758 
Q 1494 397 1959 397 
Q 2419 397 2687 759 
Q 2956 1122 2956 1747 
Q 2956 2369 2687 2733 
Q 2419 3097 1959 3097 
z
M 1959 3584 
Q 2709 3584 3137 3096 
Q 3566 2609 3566 1747 
Q 3566 888 3137 398 
Q 2709 -91 1959 -91 
Q 1206 -91 779 398 
Q 353 888 353 1747 
Q 353 2609 779 3096 
Q 1206 3584 1959 3584 
z
" transform="scale(0.015625)"/>
       <path id="DejaVuSans-6c" d="M 603 4863 
L 1178 4863 
L 1178 0 
L 603 0 
L 603 4863 
z
" transform="scale(0.015625)"/>
      </defs>
      <use xlink:href="#DejaVuSans-4d"/>
      <use xlink:href="#DejaVuSans-57" x="86.279297"/>
      <use xlink:href="#DejaVuSans-2c" x="185.15625"/>
      <use xlink:href="#DejaVuSans-20" x="216.943359"/>
      <use xlink:href="#DejaVuSans-67" x="248.730469"/>
      <use xlink:href="#DejaVuSans-2f" x="312.207031"/>
      <use xlink:href="#DejaVuSans-6d" x="345.898438"/>
      <use xlink:href="#DejaVuSans-6f" x="443.310547"/>
      <use xlink:href="#DejaVuSans-6c" x="504.492188"/>
     </g>
    </g>
   </g>
   <g id="matplotlib.axis_2">
    <g id="ytick_1">
     <g id="line2d_8">
      <defs>
       <path id="me815ee62a8" d="M 0 0 
L -3.5 0 
" style="stroke: #000000; stroke-width: 0.8"/>
      </defs>
      <g>
       <use xlink:href="#me815ee62a8" x="47.1875" y="273.249721" style="stroke: #000000; stroke-width: 0.8"/>
      </g>
     </g>
     <g id="text_9">
      <!-- 50 -->
      <g transform="translate(27.4625 277.04894)scale(0.1 -0.1)">
       <defs>
        <path id="DejaVuSans-35" d="M 691 4666 
L 3169 4666 
L 3169 4134 
L 1269 4134 
L 1269 2991 
Q 1406 3038 1543 3061 
Q 1681 3084 1819 3084 
Q 2600 3084 3056 2656 
Q 3513 2228 3513 1497 
Q 3513 744 3044 326 
Q 2575 -91 1722 -91 
Q 1428 -91 1123 -41 
Q 819 9 494 109 
L 494 744 
Q 775 591 1075 516 
Q 1375 441 1709 441 
Q 2250 441 2565 725 
Q 2881 1009 2881 1497 
Q 2881 1984 2565 2268 
Q 2250 2553 1709 2553 
Q 1456 2553 1204 2497 
Q 953 2441 691 2322 
L 691 4666 
z
" transform="scale(0.015625)"/>
       </defs>
       <use xlink:href="#DejaVuSans-35"/>
       <use xlink:href="#DejaVuSans-30" x="63.623047"/>
      </g>
     </g>
    </g>
    <g id="ytick_2">
     <g id="line2d_9">
      <g>
       <use xlink:href="#me815ee62a8" x="47.1875" y="211.028013" style="stroke: #000000; stroke-width: 0.8"/>
      </g>
     </g>
     <g id="text_10">
      <!-- 100 -->
      <g transform="translate(21.1 214.827232)scale(0.1 -0.1)">
       <use xlink:href="#DejaVuSans-31"/>
       <use xlink:href="#DejaVuSans-30" x="63.623047"/>
       <use xlink:href="#DejaVuSans-30" x="127.246094"/>
      </g>
     </g>
    </g>
    <g id="ytick_3">
     <g id="line2d_10">
      <g>
       <use xlink:href="#me815ee62a8" x="47.1875" y="148.806306" style="stroke: #000000; stroke-width: 0.8"/>
      </g>
     </g>
     <g id="text_11">
      <!-- 150 -->
      <g transform="translate(21.1 152.605524)scale(0.1 -0.1)">
       <use xlink:href="#DejaVuSans-31"/>
       <use xlink:href="#DejaVuSans-35" x="63.623047"/>
       <use xlink:href="#DejaVuSans-30" x="127.246094"/>
      </g>
     </g>
    </g>
    <g id="ytick_4">
     <g id="line2d_11">
      <g>
       <use xlink:href="#me815ee62a8" x="47.1875" y="86.584598" style="stroke: #000000; stroke-width: 0.8"/>
      </g>
     </g>
     <g id="text_12">
      <!-- 200 -->
      <g transform="translate(21.1 90.383817)scale(0.1 -0.1)">
       <use xlink:href="#DejaVuSans-32"/>
       <use xlink:href="#DejaVuSans-30" x="63.623047"/>
       <use xlink:href="#DejaVuSans-30" x="127.246094"/>
      </g>
     </g>
    </g>
    <g id="ytick_5">
     <g id="line2d_12">
      <g>
       <use xlink:href="#me815ee62a8" x="47.1875" y="24.36289" style="stroke: #000000; stroke-width: 0.8"/>
      </g>
     </g>
     <g id="text_13">
      <!-- 250 -->
      <g transform="translate(21.1 28.162109)scale(0.1 -0.1)">
       <use xlink:href="#DejaVuSans-32"/>
       <use xlink:href="#DejaVuSans-35" x="63.623047"/>
       <use xlink:href="#DejaVuSans-30" x="127.246094"/>
      </g>
     </g>
    </g>
    <g id="text_14">
     <!-- bp, $^o$C -->
     <g transform="translate(15 176.25)rotate(-90)scale(0.1 -0.1)">
      <defs>
       <path id="DejaVuSans-62" d="M 3116 1747 
Q 3116 2381 2855 2742 
Q 2594 3103 2138 3103 
Q 1681 3103 1420 2742 
Q 1159 2381 1159 1747 
Q 1159 1113 1420 752 
Q 1681 391 2138 391 
Q 2594 391 2855 752 
Q 3116 1113 3116 1747 
z
M 1159 2969 
Q 1341 3281 1617 3432 
Q 1894 3584 2278 3584 
Q 2916 3584 3314 3078 
Q 3713 2572 3713 1747 
Q 3713 922 3314 415 
Q 2916 -91 2278 -91 
Q 1894 -91 1617 61 
Q 1341 213 1159 525 
L 1159 0 
L 581 0 
L 581 4863 
L 1159 4863 
L 1159 2969 
z
" transform="scale(0.015625)"/>
       <path id="DejaVuSans-70" d="M 1159 525 
L 1159 -1331 
L 581 -1331 
L 581 3500 
L 1159 3500 
L 1159 2969 
Q 1341 3281 1617 3432 
Q 1894 3584 2278 3584 
Q 2916 3584 3314 3078 
Q 3713 2572 3713 1747 
Q 3713 922 3314 415 
Q 2916 -91 2278 -91 
Q 1894 -91 1617 61 
Q 1341 213 1159 525 
z
M 3116 1747 
Q 3116 2381 2855 2742 
Q 2594 3103 2138 3103 
Q 1681 3103 1420 2742 
Q 1159 2381 1159 1747 
Q 1159 1113 1420 752 
Q 1681 391 2138 391 
Q 2594 391 2855 752 
Q 3116 1113 3116 1747 
z
" transform="scale(0.015625)"/>
       <path id="DejaVuSans-Oblique-6f" d="M 1625 -91 
Q 1009 -91 651 289 
Q 294 669 294 1325 
Q 294 1706 417 2101 
Q 541 2497 738 2766 
Q 1047 3184 1428 3384 
Q 1809 3584 2291 3584 
Q 2888 3584 3255 3212 
Q 3622 2841 3622 2241 
Q 3622 1825 3500 1412 
Q 3378 1000 3181 728 
Q 2875 309 2494 109 
Q 2113 -91 1625 -91 
z
M 891 1344 
Q 891 869 1089 633 
Q 1288 397 1691 397 
Q 2269 397 2648 901 
Q 3028 1406 3028 2181 
Q 3028 2634 2825 2865 
Q 2622 3097 2228 3097 
Q 1903 3097 1650 2945 
Q 1397 2794 1197 2484 
Q 1050 2253 970 1956 
Q 891 1659 891 1344 
z
" transform="scale(0.015625)"/>
       <path id="DejaVuSans-43" d="M 4122 4306 
L 4122 3641 
Q 3803 3938 3442 4084 
Q 3081 4231 2675 4231 
Q 1875 4231 1450 3742 
Q 1025 3253 1025 2328 
Q 1025 1406 1450 917 
Q 1875 428 2675 428 
Q 3081 428 3442 575 
Q 3803 722 4122 1019 
L 4122 359 
Q 3791 134 3420 21 
Q 3050 -91 2638 -91 
Q 1578 -91 968 557 
Q 359 1206 359 2328 
Q 359 3453 968 4101 
Q 1578 4750 2638 4750 
Q 3056 4750 3426 4639 
Q 3797 4528 4122 4306 
z
" transform="scale(0.015625)"/>
      </defs>
      <use xlink:href="#DejaVuSans-62" transform="translate(0 0.51875)"/>
      <use xlink:href="#DejaVuSans-70" transform="translate(63.476562 0.51875)"/>
      <use xlink:href="#DejaVuSans-2c" transform="translate(126.953125 0.51875)"/>
      <use xlink:href="#DejaVuSans-20" transform="translate(158.740234 0.51875)"/>
      <use xlink:href="#DejaVuSans-Oblique-6f" transform="translate(191.484375 38.8)scale(0.7)"/>
      <use xlink:href="#DejaVuSans-43" transform="translate(237.045898 0.51875)"/>
     </g>
    </g>
   </g>
   <g id="line2d_13">
    <path d="M 68.932955 265.149005 
L 72.942897 262.90233 
L 76.952839 260.655655 
L 80.962781 258.40898 
L 84.972723 256.162304 
L 88.982665 253.915629 
L 92.992607 251.668954 
L 97.002549 249.422278 
L 101.012491 247.175603 
L 105.022433 244.928928 
L 109.032375 242.682253 
L 113.042317 240.435577 
L 117.052259 238.188902 
L 121.062201 235.942227 
L 125.072143 233.695552 
L 129.082085 231.448876 
L 133.092027 229.202201 
L 137.101969 226.955526 
L 141.111912 224.708851 
L 145.121854 222.462175 
L 149.131796 220.2155 
L 153.141738 217.968825 
L 157.15168 215.72215 
L 161.161622 213.475474 
L 165.171564 211.228799 
L 169.181506 208.982124 
L 173.191448 206.735449 
L 177.20139 204.488773 
L 181.211332 202.242098 
L 185.221274 199.995423 
L 189.231216 197.748748 
L 193.241158 195.502072 
L 197.2511 193.255397 
L 201.261042 191.008722 
L 205.270984 188.762047 
L 209.280926 186.515371 
L 213.290869 184.268696 
L 217.300811 182.022021 
L 221.310753 179.775346 
L 225.320695 177.52867 
L 229.330637 175.281995 
L 233.340579 173.03532 
L 237.350521 170.788645 
L 241.360463 168.541969 
L 245.370405 166.295294 
L 249.380347 164.048619 
L 253.390289 161.801943 
L 257.400231 159.555268 
L 261.410173 157.308593 
L 265.420115 155.061918 
L 269.430057 152.815242 
L 273.439999 150.568567 
L 277.449941 148.321892 
L 281.459883 146.075217 
L 285.469826 143.828541 
L 289.479768 141.581866 
L 293.48971 139.335191 
L 297.499652 137.088516 
L 301.509594 134.84184 
L 305.519536 132.595165 
L 309.529478 130.34849 
L 313.53942 128.101815 
L 317.549362 125.855139 
L 321.559304 123.608464 
L 325.569246 121.361789 
L 329.579188 119.115114 
L 333.58913 116.868438 
L 337.599072 114.621763 
L 341.609014 112.375088 
L 345.618956 110.128413 
L 349.628898 107.881737 
L 353.63884 105.635062 
L 357.648783 103.388387 
L 361.658725 101.141712 
L 365.668667 98.895036 
L 369.678609 96.648361 
L 373.688551 94.401686 
L 377.698493 92.155011 
L 381.708435 89.908335 
L 385.718377 87.66166 
L 389.728319 85.414985 
L 393.738261 83.16831 
L 397.748203 80.921634 
L 401.758145 78.674959 
L 405.768087 76.428284 
L 409.778029 74.181609 
L 413.787971 71.934933 
L 417.797913 69.688258 
L 421.807855 67.441583 
L 425.817797 65.194907 
L 429.82774 62.948232 
L 433.837682 60.701557 
L 437.847624 58.454882 
L 441.857566 56.208206 
L 445.867508 53.961531 
L 449.87745 51.714856 
L 453.887392 49.468181 
L 457.897334 47.221505 
L 461.907276 44.97483 
L 465.917218 42.728155 
" clip-path="url(#p42e2490562)" style="fill: none; stroke: #1f77b4; stroke-width: 2.25; stroke-linecap: square"/>
   </g>
   <g id="line2d_14">
    <path d="M 195.066025 289.386213 
L 198.184975 287.03229 
L 201.303924 284.678367 
L 204.422874 282.324445 
L 207.541824 279.970522 
L 210.660773 277.616599 
L 213.779723 275.262676 
L 216.898673 272.908754 
L 220.017623 270.554831 
L 223.136572 268.200908 
L 226.255522 265.846985 
L 229.374472 263.493063 
L 232.493421 261.13914 
L 235.612371 258.785217 
L 238.731321 256.431294 
L 241.85027 254.077372 
L 244.96922 251.723449 
L 248.08817 249.369526 
L 251.20712 247.015603 
L 254.326069 244.661681 
L 257.445019 242.307758 
L 260.563969 239.953835 
L 263.682918 237.599912 
L 266.801868 235.24599 
L 269.920818 232.892067 
L 273.039767 230.538144 
L 276.158717 228.184221 
L 279.277667 225.830299 
L 282.396617 223.476376 
L 285.515566 221.122453 
L 288.634516 218.76853 
L 291.753466 216.414608 
L 294.872415 214.060685 
L 297.991365 211.706762 
L 301.110315 209.352839 
L 304.229265 206.998917 
L 307.348214 204.644994 
L 310.467164 202.291071 
L 313.586114 199.937148 
L 316.705063 197.583226 
L 319.824013 195.229303 
L 322.942963 192.87538 
L 326.061912 190.521457 
L 329.180862 188.167535 
L 332.299812 185.813612 
L 335.418762 183.459689 
L 338.537711 181.105766 
L 341.656661 178.751844 
L 344.775611 176.397921 
L 347.89456 174.043998 
L 351.01351 171.690075 
L 354.13246 169.336153 
L 357.251409 166.98223 
L 360.370359 164.628307 
L 363.489309 162.274384 
L 366.608259 159.920462 
L 369.727208 157.566539 
L 372.846158 155.212616 
L 375.965108 152.858693 
L 379.084057 150.504771 
L 382.203007 148.150848 
L 385.321957 145.796925 
L 388.440906 143.443003 
L 391.559856 141.08908 
L 394.678806 138.735157 
L 397.797756 136.381234 
L 400.916705 134.027312 
L 404.035655 131.673389 
L 407.154605 129.319466 
L 410.273554 126.965543 
L 413.392504 124.611621 
L 416.511454 122.257698 
L 419.630403 119.903775 
L 422.749353 117.549852 
L 425.868303 115.19593 
L 428.987253 112.842007 
L 432.106202 110.488084 
L 435.225152 108.134161 
L 438.344102 105.780239 
L 441.463051 103.426316 
L 444.582001 101.072393 
L 447.700951 98.71847 
L 450.819901 96.364548 
L 453.93885 94.010625 
L 457.0578 91.656702 
L 460.17675 89.302779 
L 463.295699 86.948857 
L 466.414649 84.594934 
L 469.533599 82.241011 
L 472.652548 79.887088 
L 475.771498 77.533166 
L 478.890448 75.179243 
L 482.009398 72.82532 
L 485.128347 70.471397 
L 488.247297 68.117475 
L 491.366247 65.763552 
L 494.485196 63.409629 
L 497.604146 61.055706 
L 500.723096 58.701784 
L 503.842045 56.347861 
" clip-path="url(#p42e2490562)" style="fill: none; stroke: #ff7f0e; stroke-width: 2.25; stroke-linecap: square"/>
   </g>
   <g id="patch_3">
    <path d="M 47.1875 314.6 
L 47.1875 7.2 
" style="fill: none; stroke: #000000; stroke-width: 0.8; stroke-linejoin: miter; stroke-linecap: square"/>
   </g>
   <g id="patch_4">
    <path d="M 47.1875 314.6 
L 525.5875 314.6 
" style="fill: none; stroke: #000000; stroke-width: 0.8; stroke-linejoin: miter; stroke-linecap: square"/>
   </g>
   <g id="legend_1">
    <g id="patch_5">
     <path d="M 54.1875 59.234375 
L 121.945312 59.234375 
Q 123.945312 59.234375 123.945312 57.234375 
L 123.945312 14.2 
Q 123.945312 12.2 121.945312 12.2 
L 54.1875 12.2 
Q 52.1875 12.2 52.1875 14.2 
L 52.1875 57.234375 
Q 52.1875 59.234375 54.1875 59.234375 
z
" style="fill: #ffffff; opacity: 0.8; stroke: #cccccc; stroke-linejoin: miter"/>
    </g>
    <g id="text_15">
     <!-- type -->
     <g transform="translate(76.896094 23.798437)scale(0.1 -0.1)">
      <defs>
       <path id="DejaVuSans-74" d="M 1172 4494 
L 1172 3500 
L 2356 3500 
L 2356 3053 
L 1172 3053 
L 1172 1153 
Q 1172 725 1289 603 
Q 1406 481 1766 481 
L 2356 481 
L 2356 0 
L 1766 0 
Q 1100 0 847 248 
Q 594 497 594 1153 
L 594 3053 
L 172 3053 
L 172 3500 
L 594 3500 
L 594 4494 
L 1172 4494 
z
" transform="scale(0.015625)"/>
       <path id="DejaVuSans-79" d="M 2059 -325 
Q 1816 -950 1584 -1140 
Q 1353 -1331 966 -1331 
L 506 -1331 
L 506 -850 
L 844 -850 
Q 1081 -850 1212 -737 
Q 1344 -625 1503 -206 
L 1606 56 
L 191 3500 
L 800 3500 
L 1894 763 
L 2988 3500 
L 3597 3500 
L 2059 -325 
z
" transform="scale(0.015625)"/>
       <path id="DejaVuSans-65" d="M 3597 1894 
L 3597 1613 
L 953 1613 
Q 991 1019 1311 708 
Q 1631 397 2203 397 
Q 2534 397 2845 478 
Q 3156 559 3463 722 
L 3463 178 
Q 3153 47 2828 -22 
Q 2503 -91 2169 -91 
Q 1331 -91 842 396 
Q 353 884 353 1716 
Q 353 2575 817 3079 
Q 1281 3584 2069 3584 
Q 2775 3584 3186 3129 
Q 3597 2675 3597 1894 
z
M 3022 2063 
Q 3016 2534 2758 2815 
Q 2500 3097 2075 3097 
Q 1594 3097 1305 2825 
Q 1016 2553 972 2059 
L 3022 2063 
z
" transform="scale(0.015625)"/>
      </defs>
      <use xlink:href="#DejaVuSans-74"/>
      <use xlink:href="#DejaVuSans-79" x="39.208984"/>
      <use xlink:href="#DejaVuSans-70" x="98.388672"/>
      <use xlink:href="#DejaVuSans-65" x="161.865234"/>
     </g>
    </g>
    <g id="PathCollection_3">
     <g>
      <use xlink:href="#m7480f4e7e6" x="66.1875" y="35.851562" style="fill: #1f77b4; fill-opacity: 0.8; stroke: #1f77b4; stroke-opacity: 0.8"/>
     </g>
    </g>
    <g id="text_16">
     <!-- alcohol -->
     <g transform="translate(84.1875 38.476562)scale(0.1 -0.1)">
      <defs>
       <path id="DejaVuSans-61" d="M 2194 1759 
Q 1497 1759 1228 1600 
Q 959 1441 959 1056 
Q 959 750 1161 570 
Q 1363 391 1709 391 
Q 2188 391 2477 730 
Q 2766 1069 2766 1631 
L 2766 1759 
L 2194 1759 
z
M 3341 1997 
L 3341 0 
L 2766 0 
L 2766 531 
Q 2569 213 2275 61 
Q 1981 -91 1556 -91 
Q 1019 -91 701 211 
Q 384 513 384 1019 
Q 384 1609 779 1909 
Q 1175 2209 1959 2209 
L 2766 2209 
L 2766 2266 
Q 2766 2663 2505 2880 
Q 2244 3097 1772 3097 
Q 1472 3097 1187 3025 
Q 903 2953 641 2809 
L 641 3341 
Q 956 3463 1253 3523 
Q 1550 3584 1831 3584 
Q 2591 3584 2966 3190 
Q 3341 2797 3341 1997 
z
" transform="scale(0.015625)"/>
       <path id="DejaVuSans-63" d="M 3122 3366 
L 3122 2828 
Q 2878 2963 2633 3030 
Q 2388 3097 2138 3097 
Q 1578 3097 1268 2742 
Q 959 2388 959 1747 
Q 959 1106 1268 751 
Q 1578 397 2138 397 
Q 2388 397 2633 464 
Q 2878 531 3122 666 
L 3122 134 
Q 2881 22 2623 -34 
Q 2366 -91 2075 -91 
Q 1284 -91 818 406 
Q 353 903 353 1747 
Q 353 2603 823 3093 
Q 1294 3584 2113 3584 
Q 2378 3584 2631 3529 
Q 2884 3475 3122 3366 
z
" transform="scale(0.015625)"/>
       <path id="DejaVuSans-68" d="M 3513 2113 
L 3513 0 
L 2938 0 
L 2938 2094 
Q 2938 2591 2744 2837 
Q 2550 3084 2163 3084 
Q 1697 3084 1428 2787 
Q 1159 2491 1159 1978 
L 1159 0 
L 581 0 
L 581 4863 
L 1159 4863 
L 1159 2956 
Q 1366 3272 1645 3428 
Q 1925 3584 2291 3584 
Q 2894 3584 3203 3211 
Q 3513 2838 3513 2113 
z
" transform="scale(0.015625)"/>
      </defs>
      <use xlink:href="#DejaVuSans-61"/>
      <use xlink:href="#DejaVuSans-6c" x="61.279297"/>
      <use xlink:href="#DejaVuSans-63" x="89.0625"/>
      <use xlink:href="#DejaVuSans-6f" x="144.042969"/>
      <use xlink:href="#DejaVuSans-68" x="205.224609"/>
      <use xlink:href="#DejaVuSans-6f" x="268.603516"/>
      <use xlink:href="#DejaVuSans-6c" x="329.785156"/>
     </g>
    </g>
    <g id="PathCollection_4">
     <g>
      <use xlink:href="#md37250cf0c" x="66.1875" y="50.529688" style="fill: #ff7f0e; fill-opacity: 0.8; stroke: #ff7f0e; stroke-opacity: 0.8"/>
     </g>
    </g>
    <g id="text_17">
     <!-- alkane -->
     <g transform="translate(84.1875 53.154688)scale(0.1 -0.1)">
      <defs>
       <path id="DejaVuSans-6b" d="M 581 4863 
L 1159 4863 
L 1159 1991 
L 2875 3500 
L 3609 3500 
L 1753 1863 
L 3688 0 
L 2938 0 
L 1159 1709 
L 1159 0 
L 581 0 
L 581 4863 
z
" transform="scale(0.015625)"/>
       <path id="DejaVuSans-6e" d="M 3513 2113 
L 3513 0 
L 2938 0 
L 2938 2094 
Q 2938 2591 2744 2837 
Q 2550 3084 2163 3084 
Q 1697 3084 1428 2787 
Q 1159 2491 1159 1978 
L 1159 0 
L 581 0 
L 581 3500 
L 1159 3500 
L 1159 2956 
Q 1366 3272 1645 3428 
Q 1925 3584 2291 3584 
Q 2894 3584 3203 3211 
Q 3513 2838 3513 2113 
z
" transform="scale(0.015625)"/>
      </defs>
      <use xlink:href="#DejaVuSans-61"/>
      <use xlink:href="#DejaVuSans-6c" x="61.279297"/>
      <use xlink:href="#DejaVuSans-6b" x="89.0625"/>
      <use xlink:href="#DejaVuSans-61" x="145.222656"/>
      <use xlink:href="#DejaVuSans-6e" x="206.501953"/>
      <use xlink:href="#DejaVuSans-65" x="269.880859"/>
     </g>
    </g>
   </g>
  </g>
 </g>
 <defs>
  <clipPath id="p42e2490562">
   <rect x="47.1875" y="7.2" width="478.4" height="307.4"/>
  </clipPath>
 </defs>
</svg>
