<?xml version="1.0" encoding="utf-8" standalone="no"?>
<!DOCTYPE svg PUBLIC "-//W3C//DTD SVG 1.1//EN"
  "http://www.w3.org/Graphics/SVG/1.1/DTD/svg11.dtd">
<svg height="249.416372pt" version="1.1" viewBox="0 0 368.925 249.416372" width="368.925pt" xmlns="http://www.w3.org/2000/svg" xmlns:xlink="http://www.w3.org/1999/xlink">
 <metadata>
  <rdf:RDF xmlns:cc="http://creativecommons.org/ns#" xmlns:dc="http://purl.org/dc/elements/1.1/" xmlns:rdf="http://www.w3.org/1999/02/22-rdf-syntax-ns#">
   <cc:Work>
    <dc:type rdf:resource="http://purl.org/dc/dcmitype/StillImage"/>
    <dc:date>2022-05-22T18:03:07.448285</dc:date>
    <dc:format>image/svg+xml</dc:format>
    <dc:creator>
     <cc:Agent>
      <dc:title>Matplotlib v3.4.3, https://matplotlib.org/</dc:title>
     </cc:Agent>
    </dc:creator>
   </cc:Work>
  </rdf:RDF>
 </metadata>
 <defs>
  <style type="text/css">*{stroke-linecap:butt;stroke-linejoin:round;}</style>
 </defs>
 <g id="figure_1">
  <g id="patch_1">
   <path d="M -0 249.416372 
L 368.925 249.416372 
L 368.925 0 
L -0 0 
z
" style="fill:none;"/>
  </g>
  <g id="axes_1">
   <g id="patch_2">
    <path d="M 26.925 225.538247 
L 361.725 225.538247 
L 361.725 8.098247 
L 26.925 8.098247 
z
" style="fill:#ffffff;"/>
   </g>
   <g id="PathCollection_1">
    <defs>
     <path d="M 0 3 
C 0.795609 3 1.55874 2.683901 2.12132 2.12132 
C 2.683901 1.55874 3 0.795609 3 0 
C 3 -0.795609 2.683901 -1.55874 2.12132 -2.12132 
C 1.55874 -2.683901 0.795609 -3 0 -3 
C -0.795609 -3 -1.55874 -2.683901 -2.12132 -2.12132 
C -2.683901 -1.55874 -3 -0.795609 -3 0 
C -3 0.795609 -2.683901 1.55874 -2.12132 2.12132 
C -1.55874 2.683901 -0.795609 3 0 3 
z
" id="mbf9a490614" style="stroke:#1f77b4;"/>
    </defs>
    <g clip-path="url(#pf4d903afdb)">
     <use style="fill:#1f77b4;stroke:#1f77b4;" x="42.143182" xlink:href="#mbf9a490614" y="209.297275"/>
     <use style="fill:#1f77b4;stroke:#1f77b4;" x="45.217562" xlink:href="#mbf9a490614" y="211.125838"/>
     <use style="fill:#1f77b4;stroke:#1f77b4;" x="48.291942" xlink:href="#mbf9a490614" y="199.582983"/>
     <use style="fill:#1f77b4;stroke:#1f77b4;" x="51.366322" xlink:href="#mbf9a490614" y="215.65461"/>
     <use style="fill:#1f77b4;stroke:#1f77b4;" x="54.440702" xlink:href="#mbf9a490614" y="196.439834"/>
     <use style="fill:#1f77b4;stroke:#1f77b4;" x="57.515083" xlink:href="#mbf9a490614" y="197.163103"/>
     <use style="fill:#1f77b4;stroke:#1f77b4;" x="60.589463" xlink:href="#mbf9a490614" y="197.420186"/>
     <use style="fill:#1f77b4;stroke:#1f77b4;" x="63.663843" xlink:href="#mbf9a490614" y="187.202791"/>
     <use style="fill:#1f77b4;stroke:#1f77b4;" x="66.738223" xlink:href="#mbf9a490614" y="204.156241"/>
     <use style="fill:#1f77b4;stroke:#1f77b4;" x="69.812603" xlink:href="#mbf9a490614" y="208.146186"/>
     <use style="fill:#1f77b4;stroke:#1f77b4;" x="72.886983" xlink:href="#mbf9a490614" y="190.556922"/>
     <use style="fill:#1f77b4;stroke:#1f77b4;" x="75.961364" xlink:href="#mbf9a490614" y="183.183815"/>
     <use style="fill:#1f77b4;stroke:#1f77b4;" x="79.035744" xlink:href="#mbf9a490614" y="184.140433"/>
     <use style="fill:#1f77b4;stroke:#1f77b4;" x="82.110124" xlink:href="#mbf9a490614" y="200.69229"/>
     <use style="fill:#1f77b4;stroke:#1f77b4;" x="85.184504" xlink:href="#mbf9a490614" y="196.436974"/>
     <use style="fill:#1f77b4;stroke:#1f77b4;" x="88.258884" xlink:href="#mbf9a490614" y="189.721319"/>
     <use style="fill:#1f77b4;stroke:#1f77b4;" x="91.333264" xlink:href="#mbf9a490614" y="177.762963"/>
     <use style="fill:#1f77b4;stroke:#1f77b4;" x="94.407645" xlink:href="#mbf9a490614" y="171.343215"/>
     <use style="fill:#1f77b4;stroke:#1f77b4;" x="97.482025" xlink:href="#mbf9a490614" y="186.543246"/>
     <use style="fill:#1f77b4;stroke:#1f77b4;" x="100.556405" xlink:href="#mbf9a490614" y="172.796037"/>
     <use style="fill:#1f77b4;stroke:#1f77b4;" x="103.630785" xlink:href="#mbf9a490614" y="169.788109"/>
     <use style="fill:#1f77b4;stroke:#1f77b4;" x="106.705165" xlink:href="#mbf9a490614" y="176.839151"/>
     <use style="fill:#1f77b4;stroke:#1f77b4;" x="109.779545" xlink:href="#mbf9a490614" y="163.633608"/>
     <use style="fill:#1f77b4;stroke:#1f77b4;" x="112.853926" xlink:href="#mbf9a490614" y="161.10005"/>
     <use style="fill:#1f77b4;stroke:#1f77b4;" x="115.928306" xlink:href="#mbf9a490614" y="175.103394"/>
     <use style="fill:#1f77b4;stroke:#1f77b4;" x="119.002686" xlink:href="#mbf9a490614" y="153.78145"/>
     <use style="fill:#1f77b4;stroke:#1f77b4;" x="122.077066" xlink:href="#mbf9a490614" y="164.074029"/>
     <use style="fill:#1f77b4;stroke:#1f77b4;" x="125.151446" xlink:href="#mbf9a490614" y="157.258247"/>
     <use style="fill:#1f77b4;stroke:#1f77b4;" x="128.225826" xlink:href="#mbf9a490614" y="167.097431"/>
     <use style="fill:#1f77b4;stroke:#1f77b4;" x="131.300207" xlink:href="#mbf9a490614" y="149.797211"/>
     <use style="fill:#1f77b4;stroke:#1f77b4;" x="134.374587" xlink:href="#mbf9a490614" y="160.476562"/>
     <use style="fill:#1f77b4;stroke:#1f77b4;" x="137.448967" xlink:href="#mbf9a490614" y="159.229316"/>
     <use style="fill:#1f77b4;stroke:#1f77b4;" x="140.523347" xlink:href="#mbf9a490614" y="157.111434"/>
     <use style="fill:#1f77b4;stroke:#1f77b4;" x="143.597727" xlink:href="#mbf9a490614" y="141.624196"/>
     <use style="fill:#1f77b4;stroke:#1f77b4;" x="146.672107" xlink:href="#mbf9a490614" y="146.819299"/>
     <use style="fill:#1f77b4;stroke:#1f77b4;" x="149.746488" xlink:href="#mbf9a490614" y="154.22118"/>
     <use style="fill:#1f77b4;stroke:#1f77b4;" x="152.820868" xlink:href="#mbf9a490614" y="138.821487"/>
     <use style="fill:#1f77b4;stroke:#1f77b4;" x="155.895248" xlink:href="#mbf9a490614" y="138.829548"/>
     <use style="fill:#1f77b4;stroke:#1f77b4;" x="158.969628" xlink:href="#mbf9a490614" y="139.670763"/>
     <use style="fill:#1f77b4;stroke:#1f77b4;" x="162.044008" xlink:href="#mbf9a490614" y="136.743944"/>
     <use style="fill:#1f77b4;stroke:#1f77b4;" x="165.118388" xlink:href="#mbf9a490614" y="149.29079"/>
     <use style="fill:#1f77b4;stroke:#1f77b4;" x="168.192769" xlink:href="#mbf9a490614" y="129.753062"/>
     <use style="fill:#1f77b4;stroke:#1f77b4;" x="171.267149" xlink:href="#mbf9a490614" y="131.985758"/>
     <use style="fill:#1f77b4;stroke:#1f77b4;" x="174.341529" xlink:href="#mbf9a490614" y="141.831037"/>
     <use style="fill:#1f77b4;stroke:#1f77b4;" x="177.415909" xlink:href="#mbf9a490614" y="141.609667"/>
     <use style="fill:#1f77b4;stroke:#1f77b4;" x="180.490289" xlink:href="#mbf9a490614" y="132.878374"/>
     <use style="fill:#1f77b4;stroke:#1f77b4;" x="183.564669" xlink:href="#mbf9a490614" y="112.395304"/>
     <use style="fill:#1f77b4;stroke:#1f77b4;" x="186.63905" xlink:href="#mbf9a490614" y="130.403293"/>
     <use style="fill:#1f77b4;stroke:#1f77b4;" x="189.71343" xlink:href="#mbf9a490614" y="131.603753"/>
     <use style="fill:#1f77b4;stroke:#1f77b4;" x="192.78781" xlink:href="#mbf9a490614" y="131.981626"/>
     <use style="fill:#1f77b4;stroke:#1f77b4;" x="195.86219" xlink:href="#mbf9a490614" y="121.673047"/>
     <use style="fill:#1f77b4;stroke:#1f77b4;" x="198.93657" xlink:href="#mbf9a490614" y="107.718946"/>
     <use style="fill:#1f77b4;stroke:#1f77b4;" x="202.01095" xlink:href="#mbf9a490614" y="121.057726"/>
     <use style="fill:#1f77b4;stroke:#1f77b4;" x="205.085331" xlink:href="#mbf9a490614" y="100.632648"/>
     <use style="fill:#1f77b4;stroke:#1f77b4;" x="208.159711" xlink:href="#mbf9a490614" y="97.329806"/>
     <use style="fill:#1f77b4;stroke:#1f77b4;" x="211.234091" xlink:href="#mbf9a490614" y="120.646847"/>
     <use style="fill:#1f77b4;stroke:#1f77b4;" x="214.308471" xlink:href="#mbf9a490614" y="98.760899"/>
     <use style="fill:#1f77b4;stroke:#1f77b4;" x="217.382851" xlink:href="#mbf9a490614" y="99.418155"/>
     <use style="fill:#1f77b4;stroke:#1f77b4;" x="220.457231" xlink:href="#mbf9a490614" y="101.886777"/>
     <use style="fill:#1f77b4;stroke:#1f77b4;" x="223.531612" xlink:href="#mbf9a490614" y="106.337906"/>
     <use style="fill:#1f77b4;stroke:#1f77b4;" x="226.605992" xlink:href="#mbf9a490614" y="94.213801"/>
     <use style="fill:#1f77b4;stroke:#1f77b4;" x="229.680372" xlink:href="#mbf9a490614" y="89.402356"/>
     <use style="fill:#1f77b4;stroke:#1f77b4;" x="232.754752" xlink:href="#mbf9a490614" y="95.27118"/>
     <use style="fill:#1f77b4;stroke:#1f77b4;" x="235.829132" xlink:href="#mbf9a490614" y="80.14143"/>
     <use style="fill:#1f77b4;stroke:#1f77b4;" x="238.903512" xlink:href="#mbf9a490614" y="90.916295"/>
     <use style="fill:#1f77b4;stroke:#1f77b4;" x="241.977893" xlink:href="#mbf9a490614" y="84.480523"/>
     <use style="fill:#1f77b4;stroke:#1f77b4;" x="245.052273" xlink:href="#mbf9a490614" y="88.795684"/>
     <use style="fill:#1f77b4;stroke:#1f77b4;" x="248.126653" xlink:href="#mbf9a490614" y="91.252999"/>
     <use style="fill:#1f77b4;stroke:#1f77b4;" x="251.201033" xlink:href="#mbf9a490614" y="71.707188"/>
     <use style="fill:#1f77b4;stroke:#1f77b4;" x="254.275413" xlink:href="#mbf9a490614" y="76.430206"/>
     <use style="fill:#1f77b4;stroke:#1f77b4;" x="257.349793" xlink:href="#mbf9a490614" y="75.227502"/>
     <use style="fill:#1f77b4;stroke:#1f77b4;" x="260.424174" xlink:href="#mbf9a490614" y="89.428548"/>
     <use style="fill:#1f77b4;stroke:#1f77b4;" x="263.498554" xlink:href="#mbf9a490614" y="65.040469"/>
     <use style="fill:#1f77b4;stroke:#1f77b4;" x="266.572934" xlink:href="#mbf9a490614" y="75.709838"/>
     <use style="fill:#1f77b4;stroke:#1f77b4;" x="269.647314" xlink:href="#mbf9a490614" y="72.321686"/>
     <use style="fill:#1f77b4;stroke:#1f77b4;" x="272.721694" xlink:href="#mbf9a490614" y="79.19326"/>
     <use style="fill:#1f77b4;stroke:#1f77b4;" x="275.796074" xlink:href="#mbf9a490614" y="71.432592"/>
     <use style="fill:#1f77b4;stroke:#1f77b4;" x="278.870455" xlink:href="#mbf9a490614" y="70.451939"/>
     <use style="fill:#1f77b4;stroke:#1f77b4;" x="281.944835" xlink:href="#mbf9a490614" y="73.138043"/>
     <use style="fill:#1f77b4;stroke:#1f77b4;" x="285.019215" xlink:href="#mbf9a490614" y="54.504639"/>
     <use style="fill:#1f77b4;stroke:#1f77b4;" x="288.093595" xlink:href="#mbf9a490614" y="59.629741"/>
     <use style="fill:#1f77b4;stroke:#1f77b4;" x="291.167975" xlink:href="#mbf9a490614" y="48.144078"/>
     <use style="fill:#1f77b4;stroke:#1f77b4;" x="294.242355" xlink:href="#mbf9a490614" y="48.806998"/>
     <use style="fill:#1f77b4;stroke:#1f77b4;" x="297.316736" xlink:href="#mbf9a490614" y="51.155423"/>
     <use style="fill:#1f77b4;stroke:#1f77b4;" x="300.391116" xlink:href="#mbf9a490614" y="63.754684"/>
     <use style="fill:#1f77b4;stroke:#1f77b4;" x="303.465496" xlink:href="#mbf9a490614" y="43.255849"/>
     <use style="fill:#1f77b4;stroke:#1f77b4;" x="306.539876" xlink:href="#mbf9a490614" y="51.883394"/>
     <use style="fill:#1f77b4;stroke:#1f77b4;" x="309.614256" xlink:href="#mbf9a490614" y="47.60484"/>
     <use style="fill:#1f77b4;stroke:#1f77b4;" x="312.688636" xlink:href="#mbf9a490614" y="55.7982"/>
     <use style="fill:#1f77b4;stroke:#1f77b4;" x="315.763017" xlink:href="#mbf9a490614" y="51.968241"/>
     <use style="fill:#1f77b4;stroke:#1f77b4;" x="318.837397" xlink:href="#mbf9a490614" y="44.280909"/>
     <use style="fill:#1f77b4;stroke:#1f77b4;" x="321.911777" xlink:href="#mbf9a490614" y="43.038325"/>
     <use style="fill:#1f77b4;stroke:#1f77b4;" x="324.986157" xlink:href="#mbf9a490614" y="48.966244"/>
     <use style="fill:#1f77b4;stroke:#1f77b4;" x="328.060537" xlink:href="#mbf9a490614" y="42.155105"/>
     <use style="fill:#1f77b4;stroke:#1f77b4;" x="331.134917" xlink:href="#mbf9a490614" y="41.298369"/>
     <use style="fill:#1f77b4;stroke:#1f77b4;" x="334.209298" xlink:href="#mbf9a490614" y="34.482439"/>
     <use style="fill:#1f77b4;stroke:#1f77b4;" x="337.283678" xlink:href="#mbf9a490614" y="21.024678"/>
     <use style="fill:#1f77b4;stroke:#1f77b4;" x="340.358058" xlink:href="#mbf9a490614" y="20.631602"/>
     <use style="fill:#1f77b4;stroke:#1f77b4;" x="343.432438" xlink:href="#mbf9a490614" y="17.981883"/>
     <use style="fill:#1f77b4;stroke:#1f77b4;" x="346.506818" xlink:href="#mbf9a490614" y="31.867141"/>
    </g>
   </g>
   <g id="matplotlib.axis_1">
    <g id="xtick_1">
     <g id="line2d_1">
      <defs>
       <path d="M 0 0 
L 0 3.5 
" id="m1af4077eb0" style="stroke:#000000;stroke-width:0.8;"/>
      </defs>
      <g>
       <use style="stroke:#000000;stroke-width:0.8;" x="42.143182" xlink:href="#m1af4077eb0" y="225.538247"/>
      </g>
     </g>
     <g id="text_1">
      <!-- 0 -->
      <g transform="translate(38.961932 240.136684)scale(0.1 -0.1)">
       <defs>
        <path d="M 2034 4250 
Q 1547 4250 1301 3770 
Q 1056 3291 1056 2328 
Q 1056 1369 1301 889 
Q 1547 409 2034 409 
Q 2525 409 2770 889 
Q 3016 1369 3016 2328 
Q 3016 3291 2770 3770 
Q 2525 4250 2034 4250 
z
M 2034 4750 
Q 2819 4750 3233 4129 
Q 3647 3509 3647 2328 
Q 3647 1150 3233 529 
Q 2819 -91 2034 -91 
Q 1250 -91 836 529 
Q 422 1150 422 2328 
Q 422 3509 836 4129 
Q 1250 4750 2034 4750 
z
" id="DejaVuSans-30" transform="scale(0.015625)"/>
       </defs>
       <use xlink:href="#DejaVuSans-30"/>
      </g>
     </g>
    </g>
    <g id="xtick_2">
     <g id="line2d_2">
      <g>
       <use style="stroke:#000000;stroke-width:0.8;" x="103.015909" xlink:href="#m1af4077eb0" y="225.538247"/>
      </g>
     </g>
     <g id="text_2">
      <!-- 2 -->
      <g transform="translate(99.834659 240.136684)scale(0.1 -0.1)">
       <defs>
        <path d="M 1228 531 
L 3431 531 
L 3431 0 
L 469 0 
L 469 531 
Q 828 903 1448 1529 
Q 2069 2156 2228 2338 
Q 2531 2678 2651 2914 
Q 2772 3150 2772 3378 
Q 2772 3750 2511 3984 
Q 2250 4219 1831 4219 
Q 1534 4219 1204 4116 
Q 875 4013 500 3803 
L 500 4441 
Q 881 4594 1212 4672 
Q 1544 4750 1819 4750 
Q 2544 4750 2975 4387 
Q 3406 4025 3406 3419 
Q 3406 3131 3298 2873 
Q 3191 2616 2906 2266 
Q 2828 2175 2409 1742 
Q 1991 1309 1228 531 
z
" id="DejaVuSans-32" transform="scale(0.015625)"/>
       </defs>
       <use xlink:href="#DejaVuSans-32"/>
      </g>
     </g>
    </g>
    <g id="xtick_3">
     <g id="line2d_3">
      <g>
       <use style="stroke:#000000;stroke-width:0.8;" x="163.888636" xlink:href="#m1af4077eb0" y="225.538247"/>
      </g>
     </g>
     <g id="text_3">
      <!-- 4 -->
      <g transform="translate(160.707386 240.136684)scale(0.1 -0.1)">
       <defs>
        <path d="M 2419 4116 
L 825 1625 
L 2419 1625 
L 2419 4116 
z
M 2253 4666 
L 3047 4666 
L 3047 1625 
L 3713 1625 
L 3713 1100 
L 3047 1100 
L 3047 0 
L 2419 0 
L 2419 1100 
L 313 1100 
L 313 1709 
L 2253 4666 
z
" id="DejaVuSans-34" transform="scale(0.015625)"/>
       </defs>
       <use xlink:href="#DejaVuSans-34"/>
      </g>
     </g>
    </g>
    <g id="xtick_4">
     <g id="line2d_4">
      <g>
       <use style="stroke:#000000;stroke-width:0.8;" x="224.761364" xlink:href="#m1af4077eb0" y="225.538247"/>
      </g>
     </g>
     <g id="text_4">
      <!-- 6 -->
      <g transform="translate(221.580114 240.136684)scale(0.1 -0.1)">
       <defs>
        <path d="M 2113 2584 
Q 1688 2584 1439 2293 
Q 1191 2003 1191 1497 
Q 1191 994 1439 701 
Q 1688 409 2113 409 
Q 2538 409 2786 701 
Q 3034 994 3034 1497 
Q 3034 2003 2786 2293 
Q 2538 2584 2113 2584 
z
M 3366 4563 
L 3366 3988 
Q 3128 4100 2886 4159 
Q 2644 4219 2406 4219 
Q 1781 4219 1451 3797 
Q 1122 3375 1075 2522 
Q 1259 2794 1537 2939 
Q 1816 3084 2150 3084 
Q 2853 3084 3261 2657 
Q 3669 2231 3669 1497 
Q 3669 778 3244 343 
Q 2819 -91 2113 -91 
Q 1303 -91 875 529 
Q 447 1150 447 2328 
Q 447 3434 972 4092 
Q 1497 4750 2381 4750 
Q 2619 4750 2861 4703 
Q 3103 4656 3366 4563 
z
" id="DejaVuSans-36" transform="scale(0.015625)"/>
       </defs>
       <use xlink:href="#DejaVuSans-36"/>
      </g>
     </g>
    </g>
    <g id="xtick_5">
     <g id="line2d_5">
      <g>
       <use style="stroke:#000000;stroke-width:0.8;" x="285.634091" xlink:href="#m1af4077eb0" y="225.538247"/>
      </g>
     </g>
     <g id="text_5">
      <!-- 8 -->
      <g transform="translate(282.452841 240.136684)scale(0.1 -0.1)">
       <defs>
        <path d="M 2034 2216 
Q 1584 2216 1326 1975 
Q 1069 1734 1069 1313 
Q 1069 891 1326 650 
Q 1584 409 2034 409 
Q 2484 409 2743 651 
Q 3003 894 3003 1313 
Q 3003 1734 2745 1975 
Q 2488 2216 2034 2216 
z
M 1403 2484 
Q 997 2584 770 2862 
Q 544 3141 544 3541 
Q 544 4100 942 4425 
Q 1341 4750 2034 4750 
Q 2731 4750 3128 4425 
Q 3525 4100 3525 3541 
Q 3525 3141 3298 2862 
Q 3072 2584 2669 2484 
Q 3125 2378 3379 2068 
Q 3634 1759 3634 1313 
Q 3634 634 3220 271 
Q 2806 -91 2034 -91 
Q 1263 -91 848 271 
Q 434 634 434 1313 
Q 434 1759 690 2068 
Q 947 2378 1403 2484 
z
M 1172 3481 
Q 1172 3119 1398 2916 
Q 1625 2713 2034 2713 
Q 2441 2713 2670 2916 
Q 2900 3119 2900 3481 
Q 2900 3844 2670 4047 
Q 2441 4250 2034 4250 
Q 1625 4250 1398 4047 
Q 1172 3844 1172 3481 
z
" id="DejaVuSans-38" transform="scale(0.015625)"/>
       </defs>
       <use xlink:href="#DejaVuSans-38"/>
      </g>
     </g>
    </g>
    <g id="xtick_6">
     <g id="line2d_6">
      <g>
       <use style="stroke:#000000;stroke-width:0.8;" x="346.506818" xlink:href="#m1af4077eb0" y="225.538247"/>
      </g>
     </g>
     <g id="text_6">
      <!-- 10 -->
      <g transform="translate(340.144318 240.136684)scale(0.1 -0.1)">
       <defs>
        <path d="M 794 531 
L 1825 531 
L 1825 4091 
L 703 3866 
L 703 4441 
L 1819 4666 
L 2450 4666 
L 2450 531 
L 3481 531 
L 3481 0 
L 794 0 
L 794 531 
z
" id="DejaVuSans-31" transform="scale(0.015625)"/>
       </defs>
       <use xlink:href="#DejaVuSans-31"/>
       <use x="63.623047" xlink:href="#DejaVuSans-30"/>
      </g>
     </g>
    </g>
   </g>
   <g id="matplotlib.axis_2">
    <g id="ytick_1">
     <g id="line2d_7">
      <defs>
       <path d="M 0 0 
L -3.5 0 
" id="mf0f1333a8d" style="stroke:#000000;stroke-width:0.8;"/>
      </defs>
      <g>
       <use style="stroke:#000000;stroke-width:0.8;" x="26.925" xlink:href="#mf0f1333a8d" y="183.06665"/>
      </g>
     </g>
     <g id="text_7">
      <!-- 5 -->
      <g transform="translate(13.5625 186.865869)scale(0.1 -0.1)">
       <defs>
        <path d="M 691 4666 
L 3169 4666 
L 3169 4134 
L 1269 4134 
L 1269 2991 
Q 1406 3038 1543 3061 
Q 1681 3084 1819 3084 
Q 2600 3084 3056 2656 
Q 3513 2228 3513 1497 
Q 3513 744 3044 326 
Q 2575 -91 1722 -91 
Q 1428 -91 1123 -41 
Q 819 9 494 109 
L 494 744 
Q 775 591 1075 516 
Q 1375 441 1709 441 
Q 2250 441 2565 725 
Q 2881 1009 2881 1497 
Q 2881 1984 2565 2268 
Q 2250 2553 1709 2553 
Q 1456 2553 1204 2497 
Q 953 2441 691 2322 
L 691 4666 
z
" id="DejaVuSans-35" transform="scale(0.015625)"/>
       </defs>
       <use xlink:href="#DejaVuSans-35"/>
      </g>
     </g>
    </g>
    <g id="ytick_2">
     <g id="line2d_8">
      <g>
       <use style="stroke:#000000;stroke-width:0.8;" x="26.925" xlink:href="#mf0f1333a8d" y="140.049793"/>
      </g>
     </g>
     <g id="text_8">
      <!-- 10 -->
      <g transform="translate(7.2 143.849011)scale(0.1 -0.1)">
       <use xlink:href="#DejaVuSans-31"/>
       <use x="63.623047" xlink:href="#DejaVuSans-30"/>
      </g>
     </g>
    </g>
    <g id="ytick_3">
     <g id="line2d_9">
      <g>
       <use style="stroke:#000000;stroke-width:0.8;" x="26.925" xlink:href="#mf0f1333a8d" y="97.032935"/>
      </g>
     </g>
     <g id="text_9">
      <!-- 15 -->
      <g transform="translate(7.2 100.832153)scale(0.1 -0.1)">
       <use xlink:href="#DejaVuSans-31"/>
       <use x="63.623047" xlink:href="#DejaVuSans-35"/>
      </g>
     </g>
    </g>
    <g id="ytick_4">
     <g id="line2d_10">
      <g>
       <use style="stroke:#000000;stroke-width:0.8;" x="26.925" xlink:href="#mf0f1333a8d" y="54.016077"/>
      </g>
     </g>
     <g id="text_10">
      <!-- 20 -->
      <g transform="translate(7.2 57.815295)scale(0.1 -0.1)">
       <use xlink:href="#DejaVuSans-32"/>
       <use x="63.623047" xlink:href="#DejaVuSans-30"/>
      </g>
     </g>
    </g>
    <g id="ytick_5">
     <g id="line2d_11">
      <g>
       <use style="stroke:#000000;stroke-width:0.8;" x="26.925" xlink:href="#mf0f1333a8d" y="10.999219"/>
      </g>
     </g>
     <g id="text_11">
      <!-- 25 -->
      <g transform="translate(7.2 14.798437)scale(0.1 -0.1)">
       <use xlink:href="#DejaVuSans-32"/>
       <use x="63.623047" xlink:href="#DejaVuSans-35"/>
      </g>
     </g>
    </g>
   </g>
   <g id="patch_3">
    <path d="M 26.925 225.538247 
L 26.925 8.098247 
" style="fill:none;stroke:#000000;stroke-linecap:square;stroke-linejoin:miter;stroke-width:0.8;"/>
   </g>
   <g id="patch_4">
    <path d="M 361.725 225.538247 
L 361.725 8.098247 
" style="fill:none;stroke:#000000;stroke-linecap:square;stroke-linejoin:miter;stroke-width:0.8;"/>
   </g>
   <g id="patch_5">
    <path d="M 26.925 225.538247 
L 361.725 225.538247 
" style="fill:none;stroke:#000000;stroke-linecap:square;stroke-linejoin:miter;stroke-width:0.8;"/>
   </g>
   <g id="patch_6">
    <path d="M 26.925 8.098247 
L 361.725 8.098247 
" style="fill:none;stroke:#000000;stroke-linecap:square;stroke-linejoin:miter;stroke-width:0.8;"/>
   </g>
  </g>
 </g>
 <defs>
  <clipPath id="pf4d903afdb">
   <rect height="217.44" width="334.8" x="26.925" y="8.098247"/>
  </clipPath>
 </defs>
</svg>
