<?xml version="1.0" encoding="utf-8" standalone="no"?>
<!DOCTYPE svg PUBLIC "-//W3C//DTD SVG 1.1//EN"
  "http://www.w3.org/Graphics/SVG/1.1/DTD/svg11.dtd">
<svg xmlns:xlink="http://www.w3.org/1999/xlink" width="380.482813pt" height="248.518125pt" viewBox="0 0 380.482813 248.518125" xmlns="http://www.w3.org/2000/svg" version="1.1">
 <metadata>
  <rdf:RDF xmlns:dc="http://purl.org/dc/elements/1.1/" xmlns:cc="http://creativecommons.org/ns#" xmlns:rdf="http://www.w3.org/1999/02/22-rdf-syntax-ns#">
   <cc:Work>
    <dc:type rdf:resource="http://purl.org/dc/dcmitype/StillImage"/>
    <dc:date>2022-06-02T14:36:51.306370</dc:date>
    <dc:format>image/svg+xml</dc:format>
    <dc:creator>
     <cc:Agent>
      <dc:title>Matplotlib v3.5.2, https://matplotlib.org/</dc:title>
     </cc:Agent>
    </dc:creator>
   </cc:Work>
  </rdf:RDF>
 </metadata>
 <defs>
  <style type="text/css">*{stroke-linejoin: round; stroke-linecap: butt}</style>
 </defs>
 <g id="figure_1">
  <g id="patch_1">
   <path d="M -0 248.518125 
L 380.482813 248.518125 
L 380.482813 0 
L -0 0 
L -0 248.518125 
z
" style="fill: none"/>
  </g>
  <g id="axes_1">
   <g id="patch_2">
    <path d="M 38.482813 224.64 
L 373.282813 224.64 
L 373.282813 7.2 
L 38.482813 7.2 
z
" style="fill: #ffffff"/>
   </g>
   <g id="matplotlib.axis_1">
    <g id="xtick_1">
     <g id="line2d_1">
      <defs>
       <path id="mde53f443d4" d="M 0 0 
L 0 3.5 
" style="stroke: #000000; stroke-width: 0.8"/>
      </defs>
      <g>
       <use xlink:href="#mde53f443d4" x="53.395715" y="224.64" style="stroke: #000000; stroke-width: 0.8"/>
      </g>
     </g>
     <g id="text_1">
      <!-- 0 -->
      <g transform="translate(50.214465 239.238437)scale(0.1 -0.1)">
       <defs>
        <path id="DejaVuSans-30" d="M 2034 4250 
Q 1547 4250 1301 3770 
Q 1056 3291 1056 2328 
Q 1056 1369 1301 889 
Q 1547 409 2034 409 
Q 2525 409 2770 889 
Q 3016 1369 3016 2328 
Q 3016 3291 2770 3770 
Q 2525 4250 2034 4250 
z
M 2034 4750 
Q 2819 4750 3233 4129 
Q 3647 3509 3647 2328 
Q 3647 1150 3233 529 
Q 2819 -91 2034 -91 
Q 1250 -91 836 529 
Q 422 1150 422 2328 
Q 422 3509 836 4129 
Q 1250 4750 2034 4750 
z
" transform="scale(0.015625)"/>
       </defs>
       <use xlink:href="#DejaVuSans-30"/>
      </g>
     </g>
    </g>
    <g id="xtick_2">
     <g id="line2d_2">
      <g>
       <use xlink:href="#mde53f443d4" x="101.933866" y="224.64" style="stroke: #000000; stroke-width: 0.8"/>
      </g>
     </g>
     <g id="text_2">
      <!-- 5 -->
      <g transform="translate(98.752616 239.238437)scale(0.1 -0.1)">
       <defs>
        <path id="DejaVuSans-35" d="M 691 4666 
L 3169 4666 
L 3169 4134 
L 1269 4134 
L 1269 2991 
Q 1406 3038 1543 3061 
Q 1681 3084 1819 3084 
Q 2600 3084 3056 2656 
Q 3513 2228 3513 1497 
Q 3513 744 3044 326 
Q 2575 -91 1722 -91 
Q 1428 -91 1123 -41 
Q 819 9 494 109 
L 494 744 
Q 775 591 1075 516 
Q 1375 441 1709 441 
Q 2250 441 2565 725 
Q 2881 1009 2881 1497 
Q 2881 1984 2565 2268 
Q 2250 2553 1709 2553 
Q 1456 2553 1204 2497 
Q 953 2441 691 2322 
L 691 4666 
z
" transform="scale(0.015625)"/>
       </defs>
       <use xlink:href="#DejaVuSans-35"/>
      </g>
     </g>
    </g>
    <g id="xtick_3">
     <g id="line2d_3">
      <g>
       <use xlink:href="#mde53f443d4" x="150.472016" y="224.64" style="stroke: #000000; stroke-width: 0.8"/>
      </g>
     </g>
     <g id="text_3">
      <!-- 10 -->
      <g transform="translate(144.109516 239.238437)scale(0.1 -0.1)">
       <defs>
        <path id="DejaVuSans-31" d="M 794 531 
L 1825 531 
L 1825 4091 
L 703 3866 
L 703 4441 
L 1819 4666 
L 2450 4666 
L 2450 531 
L 3481 531 
L 3481 0 
L 794 0 
L 794 531 
z
" transform="scale(0.015625)"/>
       </defs>
       <use xlink:href="#DejaVuSans-31"/>
       <use xlink:href="#DejaVuSans-30" x="63.623047"/>
      </g>
     </g>
    </g>
    <g id="xtick_4">
     <g id="line2d_4">
      <g>
       <use xlink:href="#mde53f443d4" x="199.010167" y="224.64" style="stroke: #000000; stroke-width: 0.8"/>
      </g>
     </g>
     <g id="text_4">
      <!-- 15 -->
      <g transform="translate(192.647667 239.238437)scale(0.1 -0.1)">
       <use xlink:href="#DejaVuSans-31"/>
       <use xlink:href="#DejaVuSans-35" x="63.623047"/>
      </g>
     </g>
    </g>
    <g id="xtick_5">
     <g id="line2d_5">
      <g>
       <use xlink:href="#mde53f443d4" x="247.548318" y="224.64" style="stroke: #000000; stroke-width: 0.8"/>
      </g>
     </g>
     <g id="text_5">
      <!-- 20 -->
      <g transform="translate(241.185818 239.238437)scale(0.1 -0.1)">
       <defs>
        <path id="DejaVuSans-32" d="M 1228 531 
L 3431 531 
L 3431 0 
L 469 0 
L 469 531 
Q 828 903 1448 1529 
Q 2069 2156 2228 2338 
Q 2531 2678 2651 2914 
Q 2772 3150 2772 3378 
Q 2772 3750 2511 3984 
Q 2250 4219 1831 4219 
Q 1534 4219 1204 4116 
Q 875 4013 500 3803 
L 500 4441 
Q 881 4594 1212 4672 
Q 1544 4750 1819 4750 
Q 2544 4750 2975 4387 
Q 3406 4025 3406 3419 
Q 3406 3131 3298 2873 
Q 3191 2616 2906 2266 
Q 2828 2175 2409 1742 
Q 1991 1309 1228 531 
z
" transform="scale(0.015625)"/>
       </defs>
       <use xlink:href="#DejaVuSans-32"/>
       <use xlink:href="#DejaVuSans-30" x="63.623047"/>
      </g>
     </g>
    </g>
    <g id="xtick_6">
     <g id="line2d_6">
      <g>
       <use xlink:href="#mde53f443d4" x="296.086468" y="224.64" style="stroke: #000000; stroke-width: 0.8"/>
      </g>
     </g>
     <g id="text_6">
      <!-- 25 -->
      <g transform="translate(289.723968 239.238437)scale(0.1 -0.1)">
       <use xlink:href="#DejaVuSans-32"/>
       <use xlink:href="#DejaVuSans-35" x="63.623047"/>
      </g>
     </g>
    </g>
    <g id="xtick_7">
     <g id="line2d_7">
      <g>
       <use xlink:href="#mde53f443d4" x="344.624619" y="224.64" style="stroke: #000000; stroke-width: 0.8"/>
      </g>
     </g>
     <g id="text_7">
      <!-- 30 -->
      <g transform="translate(338.262119 239.238437)scale(0.1 -0.1)">
       <defs>
        <path id="DejaVuSans-33" d="M 2597 2516 
Q 3050 2419 3304 2112 
Q 3559 1806 3559 1356 
Q 3559 666 3084 287 
Q 2609 -91 1734 -91 
Q 1441 -91 1130 -33 
Q 819 25 488 141 
L 488 750 
Q 750 597 1062 519 
Q 1375 441 1716 441 
Q 2309 441 2620 675 
Q 2931 909 2931 1356 
Q 2931 1769 2642 2001 
Q 2353 2234 1838 2234 
L 1294 2234 
L 1294 2753 
L 1863 2753 
Q 2328 2753 2575 2939 
Q 2822 3125 2822 3475 
Q 2822 3834 2567 4026 
Q 2313 4219 1838 4219 
Q 1578 4219 1281 4162 
Q 984 4106 628 3988 
L 628 4550 
Q 988 4650 1302 4700 
Q 1616 4750 1894 4750 
Q 2613 4750 3031 4423 
Q 3450 4097 3450 3541 
Q 3450 3153 3228 2886 
Q 3006 2619 2597 2516 
z
" transform="scale(0.015625)"/>
       </defs>
       <use xlink:href="#DejaVuSans-33"/>
       <use xlink:href="#DejaVuSans-30" x="63.623047"/>
      </g>
     </g>
    </g>
   </g>
   <g id="matplotlib.axis_2">
    <g id="ytick_1">
     <g id="line2d_8">
      <defs>
       <path id="med186dc894" d="M 0 0 
L -3.5 0 
" style="stroke: #000000; stroke-width: 0.8"/>
      </defs>
      <g>
       <use xlink:href="#med186dc894" x="38.482813" y="195.707808" style="stroke: #000000; stroke-width: 0.8"/>
      </g>
     </g>
     <g id="text_8">
      <!-- −1.0 -->
      <g transform="translate(7.2 199.507027)scale(0.1 -0.1)">
       <defs>
        <path id="DejaVuSans-2212" d="M 678 2272 
L 4684 2272 
L 4684 1741 
L 678 1741 
L 678 2272 
z
" transform="scale(0.015625)"/>
        <path id="DejaVuSans-2e" d="M 684 794 
L 1344 794 
L 1344 0 
L 684 0 
L 684 794 
z
" transform="scale(0.015625)"/>
       </defs>
       <use xlink:href="#DejaVuSans-2212"/>
       <use xlink:href="#DejaVuSans-31" x="83.789062"/>
       <use xlink:href="#DejaVuSans-2e" x="147.412109"/>
       <use xlink:href="#DejaVuSans-30" x="179.199219"/>
      </g>
     </g>
    </g>
    <g id="ytick_2">
     <g id="line2d_9">
      <g>
       <use xlink:href="#med186dc894" x="38.482813" y="155.69234" style="stroke: #000000; stroke-width: 0.8"/>
      </g>
     </g>
     <g id="text_9">
      <!-- −0.5 -->
      <g transform="translate(7.2 159.491559)scale(0.1 -0.1)">
       <use xlink:href="#DejaVuSans-2212"/>
       <use xlink:href="#DejaVuSans-30" x="83.789062"/>
       <use xlink:href="#DejaVuSans-2e" x="147.412109"/>
       <use xlink:href="#DejaVuSans-35" x="179.199219"/>
      </g>
     </g>
    </g>
    <g id="ytick_3">
     <g id="line2d_10">
      <g>
       <use xlink:href="#med186dc894" x="38.482813" y="115.676871" style="stroke: #000000; stroke-width: 0.8"/>
      </g>
     </g>
     <g id="text_10">
      <!-- 0.0 -->
      <g transform="translate(15.579688 119.47609)scale(0.1 -0.1)">
       <use xlink:href="#DejaVuSans-30"/>
       <use xlink:href="#DejaVuSans-2e" x="63.623047"/>
       <use xlink:href="#DejaVuSans-30" x="95.410156"/>
      </g>
     </g>
    </g>
    <g id="ytick_4">
     <g id="line2d_11">
      <g>
       <use xlink:href="#med186dc894" x="38.482813" y="75.661403" style="stroke: #000000; stroke-width: 0.8"/>
      </g>
     </g>
     <g id="text_11">
      <!-- 0.5 -->
      <g transform="translate(15.579688 79.460622)scale(0.1 -0.1)">
       <use xlink:href="#DejaVuSans-30"/>
       <use xlink:href="#DejaVuSans-2e" x="63.623047"/>
       <use xlink:href="#DejaVuSans-35" x="95.410156"/>
      </g>
     </g>
    </g>
    <g id="ytick_5">
     <g id="line2d_12">
      <g>
       <use xlink:href="#med186dc894" x="38.482813" y="35.645934" style="stroke: #000000; stroke-width: 0.8"/>
      </g>
     </g>
     <g id="text_12">
      <!-- 1.0 -->
      <g transform="translate(15.579688 39.445153)scale(0.1 -0.1)">
       <use xlink:href="#DejaVuSans-31"/>
       <use xlink:href="#DejaVuSans-2e" x="63.623047"/>
       <use xlink:href="#DejaVuSans-30" x="95.410156"/>
      </g>
     </g>
    </g>
   </g>
   <g id="line2d_13">
    <path d="M 53.700994 115.830228 
L 54.006274 118.913895 
L 54.311553 115.48095 
L 54.616833 114.533856 
L 54.922112 106.525089 
L 55.227392 106.568851 
L 55.532671 91.712317 
L 55.837951 104.731184 
L 56.14323 96.065035 
L 56.44851 106.844194 
L 56.753789 98.30562 
L 57.059069 95.405223 
L 57.364348 86.874028 
L 57.669627 88.367794 
L 58.280186 68.467441 
L 58.585466 67.783954 
L 58.890745 62.758016 
L 59.196025 72.643212 
L 59.501304 57.736174 
L 59.806584 69.741498 
L 60.111863 59.312975 
L 60.417143 54.542565 
L 60.722422 54.809432 
L 61.027702 52.226668 
L 61.332981 62.397244 
L 61.638261 44.489656 
L 61.94354 47.422606 
L 62.24882 44.067776 
L 62.554099 47.091394 
L 62.859379 42.510836 
L 63.164658 36.023904 
L 63.469938 33.309824 
L 63.775217 39.030425 
L 64.080496 39.314611 
L 64.385776 49.870392 
L 64.691055 47.527349 
L 64.996335 57.987804 
L 65.301614 46.53452 
L 65.606894 40.121244 
L 65.912173 28.616237 
L 66.522732 19.554162 
L 66.828012 24.578644 
L 67.133291 37.16383 
L 67.438571 43.116065 
L 67.74385 33.689084 
L 68.04913 20.480608 
L 68.354409 20.7435 
L 68.659689 29.26897 
L 68.964968 28.244877 
L 69.270248 28.230015 
L 69.575527 18.544068 
L 70.186086 31.973619 
L 71.101924 45.142862 
L 71.407204 41.133461 
L 71.712483 43.585234 
L 72.017763 40.564781 
L 72.628322 47.641373 
L 72.933601 41.107322 
L 73.238881 39.376895 
L 73.54416 24.170547 
L 73.84944 28.359921 
L 74.154719 27.391315 
L 74.459999 35.228903 
L 74.765278 37.43069 
L 75.375837 53.709324 
L 75.681117 54.53891 
L 75.986396 59.817259 
L 76.291675 53.389672 
L 76.596955 50.554786 
L 76.902234 46.52252 
L 77.207514 50.520864 
L 77.512793 59.745531 
L 77.818073 73.461656 
L 78.428632 69.316386 
L 78.733911 70.162006 
L 79.039191 80.285287 
L 79.34447 80.105194 
L 79.64975 79.65965 
L 79.955029 72.906027 
L 80.260309 86.753664 
L 80.565588 89.758454 
L 80.870868 104.310368 
L 81.176147 112.296757 
L 81.786706 116.632596 
L 82.091985 110.556811 
L 82.397265 100.736036 
L 82.702544 98.05497 
L 83.007824 100.308741 
L 83.618383 119.423042 
L 83.923662 121.700094 
L 84.228942 122.374953 
L 84.534221 112.471731 
L 84.839501 106.447275 
L 86.060619 126.564341 
L 86.365898 124.685642 
L 86.671178 133.498531 
L 86.976457 132.776953 
L 87.281737 151.29674 
L 87.587016 144.960285 
L 88.197575 145.063764 
L 88.502854 151.72838 
L 88.808134 164.565458 
L 89.113413 158.545085 
L 89.418693 168.879605 
L 89.723972 156.529129 
L 90.029252 168.320076 
L 90.334531 166.101792 
L 90.639811 178.191918 
L 90.94509 168.394498 
L 91.25037 177.145979 
L 91.555649 176.331279 
L 91.860929 189.309504 
L 92.166208 176.556873 
L 92.471488 185.49511 
L 92.776767 185.511021 
L 93.082047 188.086577 
L 93.692606 163.33104 
L 93.997885 176.117177 
L 94.303164 183.253879 
L 94.608444 185.242511 
L 94.913723 180.955785 
L 95.219003 187.283059 
L 95.524282 185.622579 
L 96.134841 194.632733 
L 96.440121 205.138764 
L 96.7454 205.204395 
L 97.05068 206.674747 
L 97.355959 200.500032 
L 97.966518 178.346917 
L 98.577077 183.764918 
L 99.187636 193.21243 
L 99.492916 203.655683 
L 99.798195 205.469251 
L 100.103474 206.58473 
L 100.408754 197.451651 
L 100.714033 183.531581 
L 101.019313 179.115539 
L 101.324592 176.642794 
L 101.629872 192.880869 
L 102.240431 207.674812 
L 102.85099 193.044552 
L 103.156269 200.768381 
L 103.461549 189.095944 
L 103.766828 194.563293 
L 104.072108 180.218372 
L 104.377387 192.987793 
L 104.682667 180.199332 
L 104.987946 183.27119 
L 105.293226 179.399794 
L 105.598505 182.880971 
L 105.903785 183.372392 
L 106.514343 160.706626 
L 106.819623 151.492598 
L 107.124902 159.104066 
L 107.430182 156.375333 
L 107.735461 165.180809 
L 108.040741 154.937855 
L 108.6513 146.646851 
L 109.261859 165.140124 
L 109.567138 164.411369 
L 109.872418 159.57246 
L 110.177697 147.388194 
L 110.482977 149.649286 
L 110.788256 154.765278 
L 111.093536 151.693498 
L 111.704095 116.32515 
L 112.314653 136.814101 
L 112.619933 137.007483 
L 112.925212 138.924589 
L 113.230492 132.418384 
L 113.535771 141.488295 
L 114.14633 123.468048 
L 114.45161 122.537756 
L 114.756889 115.199581 
L 115.062169 111.287329 
L 115.367448 93.25683 
L 115.978007 109.822278 
L 116.283287 108.762391 
L 116.588566 100.038506 
L 116.893846 87.462211 
L 117.199125 91.193282 
L 117.504405 88.67727 
L 117.809684 88.940842 
L 118.114963 82.087479 
L 118.420243 78.485541 
L 118.725522 82.911757 
L 119.030802 82.109653 
L 119.336081 72.714024 
L 119.641361 57.292287 
L 119.94664 49.84635 
L 120.557199 60.310358 
L 120.862479 73.192291 
L 121.167758 69.023993 
L 121.473038 75.374835 
L 121.778317 71.658849 
L 122.083597 78.070324 
L 122.694156 60.439506 
L 123.304715 58.459767 
L 123.609994 54.048614 
L 123.915274 37.955572 
L 124.220553 41.71521 
L 124.525832 38.423038 
L 124.831112 52.363229 
L 125.136391 36.047025 
L 125.441671 48.7957 
L 125.74695 42.479136 
L 126.05223 59.583504 
L 126.357509 45.20981 
L 126.662789 52.539782 
L 126.968068 40.504358 
L 127.273348 40.123358 
L 127.578627 21.099827 
L 127.883907 17.083636 
L 128.189186 17.80044 
L 128.494466 19.751808 
L 128.799745 32.561174 
L 129.105025 31.789058 
L 129.410304 44.175948 
L 129.715584 43.770768 
L 130.020863 51.539929 
L 130.326142 53.956344 
L 130.936701 32.644383 
L 131.241981 17.20729 
L 131.54726 28.636505 
L 131.85254 33.82338 
L 132.157819 43.149343 
L 132.463099 33.63113 
L 132.768378 44.479264 
L 133.073658 41.15352 
L 133.378937 46.118637 
L 133.684217 45.388056 
L 134.294776 66.497238 
L 134.600055 59.028668 
L 134.905335 43.877932 
L 135.210614 35.286518 
L 135.821173 48.134572 
L 136.126453 42.578466 
L 136.431732 44.12828 
L 136.737011 56.27716 
L 137.042291 73.108502 
L 137.34757 67.118108 
L 137.65285 52.7769 
L 137.958129 53.464404 
L 138.263409 62.820924 
L 138.568688 67.535264 
L 139.179247 54.816087 
L 139.484527 58.383966 
L 139.789806 67.462376 
L 140.095086 68.564563 
L 140.400365 78.171651 
L 140.705645 76.585607 
L 141.316204 87.526024 
L 141.926763 102.09091 
L 142.537321 97.913088 
L 142.842601 97.906863 
L 143.14788 100.230064 
L 143.45316 108.584387 
L 144.063719 113.809991 
L 144.368998 111.019755 
L 144.674278 119.700069 
L 144.979557 121.086636 
L 145.590116 104.246542 
L 146.505955 146.465769 
L 146.811234 145.850156 
L 147.116514 138.661029 
L 147.421793 142.890716 
L 147.727073 130.433624 
L 148.032352 140.912918 
L 148.337632 132.452309 
L 148.642911 141.399682 
L 148.94819 136.214286 
L 149.25347 149.088314 
L 149.558749 147.059603 
L 149.864029 160.390864 
L 150.169308 154.144045 
L 150.474588 171.053822 
L 150.779867 171.498738 
L 151.085147 178.833627 
L 151.390426 167.114926 
L 151.695706 164.165533 
L 152.000985 155.034054 
L 152.306265 161.37621 
L 152.611544 164.840387 
L 152.916824 172.472866 
L 153.222103 166.618103 
L 153.527383 178.8475 
L 153.832662 178.43895 
L 154.137942 180.54757 
L 154.443221 180.025276 
L 154.7485 185.424701 
L 155.05378 194.311125 
L 155.359059 182.366889 
L 155.664339 185.374988 
L 155.969618 183.224885 
L 156.274898 194.810864 
L 156.580177 193.150984 
L 156.885457 190.481778 
L 157.190736 192.899675 
L 157.496016 182.814176 
L 157.801295 195.840797 
L 158.106575 183.924196 
L 158.411854 195.791929 
L 158.717134 192.407223 
L 159.022413 198.137079 
L 159.327693 198.481044 
L 159.632972 203.214911 
L 159.938252 204.091282 
L 160.243531 208.418099 
L 160.54881 201.400153 
L 160.85409 201.454619 
L 161.159369 190.05272 
L 161.464649 186.736387 
L 161.769928 193.6812 
L 162.075208 191.529324 
L 162.380487 202.490777 
L 162.685767 198.32725 
L 162.991046 212.849186 
L 163.906885 202.779255 
L 164.212164 203.879349 
L 164.517444 202.637047 
L 165.128003 185.255863 
L 165.433282 186.734855 
L 165.738562 191.210286 
L 166.043841 193.985233 
L 166.349121 190.06948 
L 167.264959 151.04081 
L 167.570238 151.854772 
L 167.875518 163.452482 
L 168.180797 168.272154 
L 168.486077 175.251894 
L 168.791356 172.274795 
L 169.096636 171.017789 
L 169.401915 171.915647 
L 169.707195 164.145516 
L 170.012474 159.276712 
L 170.317754 147.826882 
L 170.623033 153.522721 
L 170.928313 162.750325 
L 171.233592 159.594697 
L 171.538872 154.505226 
L 171.844151 147.543352 
L 172.149431 147.090973 
L 172.759989 123.661313 
L 173.065269 130.18653 
L 173.370548 131.010888 
L 173.675828 134.039836 
L 173.981107 116.362417 
L 174.286387 121.30289 
L 174.591666 118.758412 
L 174.896946 117.95968 
L 175.202225 118.701997 
L 175.507505 117.670326 
L 175.812784 121.105408 
L 177.033902 87.744356 
L 177.644461 106.158116 
L 177.949741 105.694392 
L 178.5603 90.478141 
L 178.865579 79.687058 
L 179.170858 82.740402 
L 179.476138 83.851357 
L 179.781417 86.857002 
L 180.086697 79.044543 
L 180.391976 80.497093 
L 180.697256 83.845769 
L 181.002535 85.01813 
L 181.307815 79.496715 
L 181.613094 66.757045 
L 181.918374 60.176454 
L 182.223653 61.115771 
L 182.528933 75.22694 
L 182.834212 82.216588 
L 183.139492 76.877788 
L 183.750051 49.221469 
L 184.05533 52.040301 
L 184.36061 48.609485 
L 184.665889 51.588258 
L 184.971168 41.356559 
L 185.276448 40.507709 
L 185.581727 30.890029 
L 185.887007 35.086097 
L 186.192286 43.789866 
L 186.497566 55.935053 
L 187.108125 46.673059 
L 187.718684 28.278709 
L 188.023963 26.677399 
L 188.329243 33.192216 
L 188.634522 46.143882 
L 188.939802 50.441009 
L 189.245081 47.662349 
L 189.550361 49.444457 
L 189.85564 38.74379 
L 190.16092 32.037111 
L 190.466199 28.242206 
L 190.771478 27.644746 
L 191.076758 27.296437 
L 191.382037 23.369956 
L 191.687317 25.59981 
L 191.992596 40.822811 
L 192.297876 43.083101 
L 192.603155 51.378561 
L 192.908435 41.984668 
L 193.213714 46.139885 
L 193.518994 43.847828 
L 193.824273 52.294131 
L 194.129553 42.154304 
L 194.434832 44.48809 
L 194.740112 40.236665 
L 195.045391 56.386452 
L 195.350671 48.159649 
L 195.65595 55.700033 
L 195.96123 43.674679 
L 196.266509 54.10141 
L 196.571789 45.536895 
L 196.877068 49.895829 
L 197.182347 50.986917 
L 197.487627 53.901774 
L 197.792906 54.979926 
L 198.098186 53.138234 
L 198.403465 63.625524 
L 198.708745 60.830453 
L 199.014024 56.742778 
L 199.319304 48.79596 
L 199.929863 71.617201 
L 200.235142 72.140012 
L 200.540422 76.066969 
L 200.845701 76.262923 
L 201.150981 81.987471 
L 201.45626 84.354747 
L 201.76154 87.694527 
L 202.066819 96.986341 
L 202.372099 87.811836 
L 202.677378 87.001602 
L 202.982657 73.920014 
L 203.898496 103.605049 
L 204.203775 104.14792 
L 204.509055 111.464571 
L 204.814334 106.491999 
L 205.119614 108.779061 
L 205.424893 103.700518 
L 206.035452 122.867042 
L 206.340732 116.43325 
L 206.646011 123.818917 
L 206.951291 117.311196 
L 207.25657 128.903958 
L 207.56185 131.530585 
L 207.867129 132.036179 
L 208.172409 138.441378 
L 208.477688 135.314447 
L 208.782968 144.125047 
L 209.088247 140.008109 
L 209.393526 142.350887 
L 209.698806 137.910324 
L 210.004085 135.541366 
L 210.309365 139.78286 
L 210.614644 151.159313 
L 210.919924 154.525972 
L 211.530483 146.977616 
L 211.835762 153.157635 
L 212.141042 152.325421 
L 212.446321 158.76603 
L 212.751601 157.073889 
L 213.05688 165.074456 
L 213.36216 164.752589 
L 213.667439 162.204315 
L 213.972719 170.860089 
L 214.277998 166.273576 
L 214.583278 175.378519 
L 214.888557 169.394375 
L 215.193836 170.520471 
L 215.499116 170.50329 
L 215.804395 168.484161 
L 216.109675 174.427284 
L 216.414954 175.151209 
L 216.720234 170.894587 
L 217.025513 183.597144 
L 217.330793 187.780689 
L 217.636072 197.881988 
L 217.941352 183.574999 
L 218.246631 189.073087 
L 218.551911 190.618124 
L 218.85719 201.408804 
L 219.16247 198.826141 
L 219.467749 203.977656 
L 219.773029 195.360236 
L 220.383588 194.15796 
L 220.688867 199.015499 
L 220.994147 207.009379 
L 221.299426 199.120948 
L 221.604705 205.548368 
L 221.909985 190.453398 
L 222.215264 193.465467 
L 222.520544 191.110257 
L 222.825823 190.745914 
L 223.131103 182.116638 
L 223.436382 180.6283 
L 223.741662 184.276091 
L 224.046941 197.060756 
L 224.352221 193.117591 
L 224.6575 201.607193 
L 225.268059 192.995339 
L 225.573339 185.078454 
L 225.878618 180.904841 
L 226.183898 190.961331 
L 226.489177 183.226004 
L 226.794457 187.543995 
L 227.099736 176.267975 
L 227.405015 172.135224 
L 227.710295 157.678343 
L 228.015574 151.734548 
L 228.931413 163.60476 
L 229.236692 155.887477 
L 229.541972 160.665172 
L 229.847251 153.628429 
L 230.152531 161.255398 
L 230.45781 150.032597 
L 230.76309 161.471832 
L 231.068369 164.744731 
L 231.373649 170.268708 
L 231.678928 154.24418 
L 231.984208 145.747876 
L 232.289487 143.13332 
L 232.594767 143.314778 
L 232.900046 150.200747 
L 233.205325 138.004303 
L 233.510605 142.019738 
L 233.815884 134.630391 
L 234.121164 133.465759 
L 234.426443 130.890883 
L 234.731723 116.754786 
L 235.037002 122.703486 
L 235.342282 114.889658 
L 235.952841 124.141388 
L 236.25812 134.171097 
L 236.5634 129.724219 
L 237.173959 99.928209 
L 237.479238 97.195181 
L 237.784518 103.905239 
L 238.089797 101.440523 
L 238.395077 106.664661 
L 238.700356 97.341022 
L 239.005636 97.369856 
L 239.310915 83.192351 
L 239.616194 81.44476 
L 239.921474 71.105547 
L 240.226753 71.076101 
L 240.532033 72.097238 
L 240.837312 70.180278 
L 241.142592 76.693984 
L 241.447871 66.991342 
L 241.753151 72.045745 
L 242.36371 64.456524 
L 242.974269 68.070176 
L 243.279548 77.322108 
L 243.584828 74.279029 
L 243.890107 64.297862 
L 244.195387 62.673743 
L 244.805946 73.477588 
L 245.111225 69.325992 
L 245.416504 62.100611 
L 245.721784 51.54835 
L 246.332343 54.476212 
L 246.637622 57.843573 
L 247.248181 51.622509 
L 247.553461 54.107936 
L 247.85874 53.989487 
L 248.16402 57.572423 
L 248.469299 57.139271 
L 249.079858 34.299338 
L 249.385138 35.180478 
L 249.995697 54.424995 
L 250.300976 45.165552 
L 250.606256 40.9938 
L 250.911535 26.600582 
L 251.216815 37.24085 
L 251.522094 39.98767 
L 251.827373 51.798867 
L 252.132653 38.670954 
L 252.437932 36.335533 
L 252.743212 23.380514 
L 253.048491 25.595309 
L 253.353771 30.632877 
L 253.65905 37.840529 
L 253.96433 31.163057 
L 254.269609 19.612704 
L 254.574889 27.656991 
L 255.185448 34.459799 
L 255.490727 32.715318 
L 255.796007 49.226953 
L 256.101286 48.428663 
L 256.406566 54.308794 
L 256.711845 48.008146 
L 257.017125 52.076822 
L 257.322404 42.719805 
L 257.627683 46.373986 
L 257.932963 58.923285 
L 258.238242 62.631916 
L 258.543522 61.444182 
L 258.848801 49.575525 
L 259.154081 53.219023 
L 259.45936 60.865605 
L 259.76464 64.558793 
L 260.069919 61.595529 
L 260.375199 60.575392 
L 260.680478 62.149255 
L 260.985758 64.982696 
L 261.291037 61.059442 
L 261.596317 68.030352 
L 261.901596 69.070381 
L 262.206876 68.864094 
L 262.512155 63.648916 
L 262.817435 66.705968 
L 263.122714 77.651015 
L 263.427993 80.277636 
L 264.038552 76.821584 
L 264.343832 79.689428 
L 264.649111 94.329368 
L 264.954391 87.927623 
L 265.25967 95.960094 
L 265.56495 97.241558 
L 265.870229 102.954033 
L 266.175509 104.011894 
L 266.480788 95.298675 
L 267.091347 108.647043 
L 267.396627 112.059864 
L 267.701906 112.106569 
L 268.007186 112.468456 
L 268.312465 112.501775 
L 268.617745 124.094463 
L 268.923024 124.982398 
L 269.228304 128.793057 
L 269.533583 128.162361 
L 270.144142 133.531825 
L 270.449421 128.393955 
L 270.754701 137.138363 
L 271.05998 155.606393 
L 271.36526 156.078049 
L 271.670539 154.245917 
L 271.975819 144.252991 
L 272.281098 145.092848 
L 272.586378 146.983868 
L 273.196937 171.778031 
L 273.502216 177.654092 
L 273.807496 177.543841 
L 274.112775 183.218789 
L 274.418055 178.091251 
L 274.723334 176.751333 
L 275.028614 170.534411 
L 275.333893 168.92714 
L 275.639172 168.945733 
L 275.944452 172.61184 
L 276.249731 191.164231 
L 276.555011 185.532768 
L 276.86029 196.924703 
L 277.16557 194.915309 
L 277.470849 198.000093 
L 277.776129 195.588497 
L 278.081408 191.483506 
L 278.386688 202.831757 
L 278.997247 191.133016 
L 279.302526 180.257921 
L 279.913085 197.407871 
L 280.218365 210.82982 
L 280.523644 209.006525 
L 280.828924 214.756364 
L 281.439483 191.457794 
L 281.744762 185.875551 
L 282.050041 188.664542 
L 282.355321 196.956599 
L 282.6606 194.260254 
L 282.96588 194.831386 
L 283.271159 195.91537 
L 283.576439 202.272673 
L 283.881718 201.843746 
L 284.186998 205.757555 
L 284.492277 196.845682 
L 284.797557 204.997349 
L 285.102836 203.856287 
L 285.408116 209.532268 
L 286.018675 178.057903 
L 286.323954 182.943098 
L 286.934513 188.587305 
L 287.239793 187.392393 
L 287.545072 196.439019 
L 287.850351 193.209128 
L 288.155631 176.203631 
L 288.46091 168.510356 
L 289.071469 187.534532 
L 289.376749 175.75129 
L 289.682028 172.514085 
L 289.987308 163.932054 
L 290.292587 178.916027 
L 290.597867 173.954258 
L 290.903146 172.339697 
L 291.208426 160.835331 
L 291.513705 165.305702 
L 291.818985 166.328586 
L 292.429544 152.008092 
L 292.734823 139.211008 
L 293.040103 134.344699 
L 293.345382 131.398259 
L 293.650662 144.592983 
L 293.955941 145.116928 
L 294.5665 143.834034 
L 294.871779 155.913503 
L 295.787618 139.445202 
L 296.092897 134.424525 
L 296.398177 131.863036 
L 296.703456 130.611362 
L 297.008736 137.841952 
L 297.314015 129.231722 
L 297.924574 100.230091 
L 298.229854 101.180746 
L 298.840413 108.11979 
L 299.145692 96.587417 
L 299.450972 103.650248 
L 299.756251 91.181399 
L 300.06153 96.539759 
L 300.36681 89.249122 
L 300.672089 97.822221 
L 300.977369 84.247153 
L 301.282648 84.401552 
L 301.587928 74.681373 
L 301.893207 71.742789 
L 302.198487 67.471543 
L 302.503766 70.656811 
L 302.809046 69.500026 
L 303.419605 53.596852 
L 303.724884 67.39699 
L 304.030164 61.890169 
L 304.335443 62.970665 
L 304.640723 61.124905 
L 304.946002 66.256502 
L 305.251282 62.139576 
L 305.556561 61.329573 
L 306.16712 57.587502 
L 306.472399 50.577985 
L 306.777679 49.435553 
L 307.082958 57.034496 
L 307.388238 51.805576 
L 307.693517 51.814304 
L 307.998797 52.90347 
L 308.304076 47.144944 
L 308.609356 32.945116 
L 308.914635 35.569754 
L 309.219915 43.95217 
L 309.525194 46.144703 
L 309.830474 40.346548 
L 310.135753 38.145119 
L 310.441033 47.395848 
L 310.746312 38.08489 
L 311.051592 33.111548 
L 311.356871 21.856156 
L 311.662151 26.349499 
L 311.96743 23.593398 
L 312.272709 31.240792 
L 312.577989 28.081114 
L 312.883268 40.785969 
L 313.188548 43.157901 
L 313.493827 50.637878 
L 313.799107 33.560835 
L 314.104386 27.650822 
L 314.409666 31.635231 
L 315.020225 52.006197 
L 315.325504 39.833435 
L 315.630784 44.14683 
L 315.936063 34.982621 
L 316.241343 41.308101 
L 316.546622 37.295542 
L 316.851902 39.508183 
L 317.157181 35.765141 
L 317.462461 30.275104 
L 317.76774 41.342397 
L 318.073019 41.823862 
L 318.378299 49.725855 
L 318.683578 40.59144 
L 318.988858 45.161976 
L 319.294137 54.577591 
L 320.209976 64.16686 
L 320.515255 65.122517 
L 320.820535 65.390301 
L 321.125814 52.778234 
L 321.431094 59.465032 
L 321.736373 58.052665 
L 322.041653 66.434219 
L 322.346932 71.482399 
L 322.652212 70.833929 
L 322.957491 78.508913 
L 323.262771 75.056005 
L 323.56805 77.774221 
L 323.87333 79.089925 
L 324.178609 77.602302 
L 324.483888 94.614908 
L 324.789168 87.252345 
L 325.094447 100.798972 
L 325.399727 93.509219 
L 325.705006 101.187097 
L 326.010286 103.021278 
L 326.315565 116.672678 
L 326.620845 117.198108 
L 327.231404 106.12521 
L 327.841963 129.28043 
L 328.147242 123.708838 
L 328.452522 126.326548 
L 328.757801 121.459723 
L 329.063081 137.987436 
L 329.36836 123.728711 
L 329.67364 120.561199 
L 329.978919 123.039066 
L 330.284198 126.837806 
L 330.589478 135.62965 
L 330.894757 125.823041 
L 331.505316 134.075277 
L 332.115875 141.499019 
L 332.421155 144.76259 
L 332.726434 155.500927 
L 333.031714 154.361394 
L 333.642273 167.900454 
L 333.947552 171.403696 
L 334.558111 144.445968 
L 335.47395 175.121859 
L 335.779229 176.024576 
L 336.084508 180.058933 
L 336.389788 191.257233 
L 336.695067 189.67649 
L 337.305626 193.851866 
L 337.610906 199.859685 
L 338.221465 179.88016 
L 338.526744 184.130279 
L 338.832024 183.27868 
L 339.442583 190.81849 
L 339.747862 194.257214 
L 340.053142 190.175853 
L 340.358421 179.409336 
L 340.96898 172.682215 
L 341.27426 172.021535 
L 341.579539 185.674335 
L 341.884819 185.059061 
L 342.190098 197.501476 
L 342.495377 201.494609 
L 342.800657 203.629352 
L 343.105936 192.27747 
L 343.411216 176.223199 
L 344.021775 201.704796 
L 344.327054 201.665391 
L 344.632334 185.182002 
L 344.937613 179.291746 
L 345.242893 194.857119 
L 345.548172 194.606812 
L 345.853452 190.043844 
L 346.158731 182.13657 
L 346.464011 190.605338 
L 346.76929 184.194509 
L 347.07457 188.059226 
L 347.379849 193.692306 
L 347.685129 193.282246 
L 347.990408 191.145451 
L 348.295687 186.043071 
L 348.600967 198.831717 
L 348.906246 195.606907 
L 349.211526 182.780123 
L 349.516805 180.174767 
L 349.822085 184.474444 
L 350.127364 198.62988 
L 350.432644 186.988893 
L 350.737923 185.566212 
L 351.043203 179.45125 
L 351.348482 191.703326 
L 351.653762 172.245065 
L 351.959041 170.65621 
L 352.264321 164.413993 
L 352.5696 167.849874 
L 353.180159 156.336138 
L 353.485439 163.175457 
L 353.790718 149.85426 
L 354.095998 143.429218 
L 354.401277 142.644556 
L 354.706556 140.334597 
L 355.011836 140.671871 
L 355.317115 124.599564 
L 355.622395 137.616686 
L 355.927674 132.522467 
L 356.232954 140.811765 
L 356.538233 140.290982 
L 356.843513 145.246775 
L 357.148792 142.545798 
L 357.454072 136.653282 
L 357.759351 135.702784 
L 358.064631 127.293367 
L 358.064631 127.293367 
" clip-path="url(#paedfdee9e8)" style="fill: none; stroke: #1f77b4; stroke-width: 1.5; stroke-linecap: square"/>
   </g>
   <g id="patch_3">
    <path d="M 38.482813 224.64 
L 38.482813 7.2 
" style="fill: none; stroke: #000000; stroke-width: 0.8; stroke-linejoin: miter; stroke-linecap: square"/>
   </g>
   <g id="patch_4">
    <path d="M 373.282813 224.64 
L 373.282813 7.2 
" style="fill: none; stroke: #000000; stroke-width: 0.8; stroke-linejoin: miter; stroke-linecap: square"/>
   </g>
   <g id="patch_5">
    <path d="M 38.482813 224.64 
L 373.282813 224.64 
" style="fill: none; stroke: #000000; stroke-width: 0.8; stroke-linejoin: miter; stroke-linecap: square"/>
   </g>
   <g id="patch_6">
    <path d="M 38.482813 7.2 
L 373.282813 7.2 
" style="fill: none; stroke: #000000; stroke-width: 0.8; stroke-linejoin: miter; stroke-linecap: square"/>
   </g>
  </g>
 </g>
 <defs>
  <clipPath id="paedfdee9e8">
   <rect x="38.482813" y="7.2" width="334.8" height="217.44"/>
  </clipPath>
 </defs>
</svg>
