<?xml version="1.0" encoding="utf-8" standalone="no"?>
<!DOCTYPE svg PUBLIC "-//W3C//DTD SVG 1.1//EN"
  "http://www.w3.org/Graphics/SVG/1.1/DTD/svg11.dtd">
<svg xmlns:xlink="http://www.w3.org/1999/xlink" width="420.212778pt" height="352.15625pt" viewBox="0 0 420.212778 352.15625" xmlns="http://www.w3.org/2000/svg" version="1.1">
 <metadata>
  <rdf:RDF xmlns:dc="http://purl.org/dc/elements/1.1/" xmlns:cc="http://creativecommons.org/ns#" xmlns:rdf="http://www.w3.org/1999/02/22-rdf-syntax-ns#">
   <cc:Work>
    <dc:type rdf:resource="http://purl.org/dc/dcmitype/StillImage"/>
    <dc:date>2022-08-20T16:37:04.296920</dc:date>
    <dc:format>image/svg+xml</dc:format>
    <dc:creator>
     <cc:Agent>
      <dc:title>Matplotlib v3.5.2, https://matplotlib.org/</dc:title>
     </cc:Agent>
    </dc:creator>
   </cc:Work>
  </rdf:RDF>
 </metadata>
 <defs>
  <style type="text/css">*{stroke-linejoin: round; stroke-linecap: butt}</style>
 </defs>
 <g id="figure_1">
  <g id="patch_1">
   <path d="M 0 352.15625 
L 420.212778 352.15625 
L 420.212778 0 
L 0 0 
L 0 352.15625 
z
" style="fill: none"/>
  </g>
  <g id="axes_1">
   <g id="patch_2">
    <path d="M 47.1875 314.6 
L 341.945278 314.6 
L 341.945278 7.2 
L 47.1875 7.2 
z
" style="fill: #ffffff"/>
   </g>
   <g id="PathCollection_1">
    <defs>
     <path id="m9d6907a31a" d="M 0 3 
C 0.795609 3 1.55874 2.683901 2.12132 2.12132 
C 2.683901 1.55874 3 0.795609 3 0 
C 3 -0.795609 2.683901 -1.55874 2.12132 -2.12132 
C 1.55874 -2.683901 0.795609 -3 0 -3 
C -0.795609 -3 -1.55874 -2.683901 -2.12132 -2.12132 
C -2.683901 -1.55874 -3 -0.795609 -3 0 
C -3 0.795609 -2.683901 1.55874 -2.12132 2.12132 
C -1.55874 2.683901 -0.795609 3 0 3 
z
" style="stroke: #1f77b4; stroke-opacity: 0.8"/>
    </defs>
    <g clip-path="url(#p89b92aa1eb)">
     <use xlink:href="#m9d6907a31a" x="60.585581" y="254.51533" style="fill: #1f77b4; fill-opacity: 0.8; stroke: #1f77b4; stroke-opacity: 0.8"/>
     <use xlink:href="#m9d6907a31a" x="87.76925" y="238.313836" style="fill: #1f77b4; fill-opacity: 0.8; stroke: #1f77b4; stroke-opacity: 0.8"/>
     <use xlink:href="#m9d6907a31a" x="114.95292" y="213.388462" style="fill: #1f77b4; fill-opacity: 0.8; stroke: #1f77b4; stroke-opacity: 0.8"/>
     <use xlink:href="#m9d6907a31a" x="142.117214" y="188.463087" style="fill: #1f77b4; fill-opacity: 0.8; stroke: #1f77b4; stroke-opacity: 0.8"/>
     <use xlink:href="#m9d6907a31a" x="169.300883" y="162.291444" style="fill: #1f77b4; fill-opacity: 0.8; stroke: #1f77b4; stroke-opacity: 0.8"/>
     <use xlink:href="#m9d6907a31a" x="196.484552" y="139.858607" style="fill: #1f77b4; fill-opacity: 0.8; stroke: #1f77b4; stroke-opacity: 0.8"/>
     <use xlink:href="#m9d6907a31a" x="223.648846" y="116.179501" style="fill: #1f77b4; fill-opacity: 0.8; stroke: #1f77b4; stroke-opacity: 0.8"/>
     <use xlink:href="#m9d6907a31a" x="250.832516" y="92.500395" style="fill: #1f77b4; fill-opacity: 0.8; stroke: #1f77b4; stroke-opacity: 0.8"/>
     <use xlink:href="#m9d6907a31a" x="277.99681" y="71.313826" style="fill: #1f77b4; fill-opacity: 0.8; stroke: #1f77b4; stroke-opacity: 0.8"/>
     <use xlink:href="#m9d6907a31a" x="305.180479" y="46.388452" style="fill: #1f77b4; fill-opacity: 0.8; stroke: #1f77b4; stroke-opacity: 0.8"/>
     <use xlink:href="#m9d6907a31a" x="142.117214" y="200.925774" style="fill: #1f77b4; fill-opacity: 0.8; stroke: #1f77b4; stroke-opacity: 0.8"/>
     <use xlink:href="#m9d6907a31a" x="142.117214" y="232.082493" style="fill: #1f77b4; fill-opacity: 0.8; stroke: #1f77b4; stroke-opacity: 0.8"/>
     <use xlink:href="#m9d6907a31a" x="169.300883" y="172.261594" style="fill: #1f77b4; fill-opacity: 0.8; stroke: #1f77b4; stroke-opacity: 0.8"/>
     <use xlink:href="#m9d6907a31a" x="196.484552" y="167.276519" style="fill: #1f77b4; fill-opacity: 0.8; stroke: #1f77b4; stroke-opacity: 0.8"/>
     <use xlink:href="#m9d6907a31a" x="223.648846" y="161.045175" style="fill: #1f77b4; fill-opacity: 0.8; stroke: #1f77b4; stroke-opacity: 0.8"/>
     <use xlink:href="#m9d6907a31a" x="180.848614" y="108.701888" style="fill: #1f77b4; fill-opacity: 0.8; stroke: #1f77b4; stroke-opacity: 0.8"/>
     <use xlink:href="#m9d6907a31a" x="208.032284" y="83.776514" style="fill: #1f77b4; fill-opacity: 0.8; stroke: #1f77b4; stroke-opacity: 0.8"/>
     <use xlink:href="#m9d6907a31a" x="262.380247" y="61.343677" style="fill: #1f77b4; fill-opacity: 0.8; stroke: #1f77b4; stroke-opacity: 0.8"/>
    </g>
   </g>
   <g id="PolyCollection_1">
    <path d="M 60.585581 250.040512 
L 60.585581 285.055834 
L 63.056236 282.68506 
L 65.526892 280.238018 
L 67.997547 277.696882 
L 70.468203 275.136699 
L 72.938858 272.572593 
L 75.409514 269.996337 
L 77.88017 267.272945 
L 80.350825 264.547009 
L 82.821481 261.821072 
L 85.292136 259.095135 
L 87.762792 256.369199 
L 90.233447 253.796155 
L 92.704103 251.344522 
L 95.174758 248.671838 
L 97.645414 245.999154 
L 100.116069 243.645181 
L 102.586725 241.448894 
L 105.05738 239.250489 
L 107.528036 236.705119 
L 109.998692 234.274772 
L 112.469347 231.816185 
L 114.940003 229.410882 
L 117.410658 226.834606 
L 119.881314 224.249124 
L 122.351969 221.628051 
L 124.822625 219.156797 
L 127.29328 216.814694 
L 129.763936 214.483505 
L 132.234591 212.334423 
L 134.705247 210.150942 
L 137.175902 207.682746 
L 139.646558 205.397286 
L 142.117214 202.824782 
L 144.587869 200.665821 
L 147.058525 198.314051 
L 149.52918 195.816806 
L 151.999836 193.554598 
L 154.470491 191.184657 
L 156.941147 188.916325 
L 159.411802 186.617546 
L 161.882458 184.31398 
L 164.353113 182.011693 
L 166.823769 179.686249 
L 169.294424 177.358205 
L 171.76508 175.106982 
L 174.235736 172.915207 
L 176.706391 170.736306 
L 179.177047 168.596178 
L 181.647702 166.373484 
L 184.118358 164.270277 
L 186.589013 162.107249 
L 189.059669 160.069356 
L 191.530324 157.967486 
L 194.00098 155.86528 
L 196.471635 153.553158 
L 198.942291 151.434505 
L 201.412946 149.300938 
L 203.883602 147.299289 
L 206.354258 145.20434 
L 208.824913 143.158216 
L 211.295569 141.049734 
L 213.766224 138.933018 
L 216.23688 136.672617 
L 218.707535 134.471452 
L 221.178191 132.331316 
L 223.648846 130.213591 
L 226.119502 128.280732 
L 228.590157 126.316773 
L 231.060813 124.312966 
L 233.531468 122.248087 
L 236.002124 120.147377 
L 238.47278 118.070058 
L 240.943435 116.041445 
L 243.414091 113.960704 
L 245.884746 111.879963 
L 248.355402 109.870982 
L 250.826057 107.979324 
L 253.296713 106.087666 
L 255.767368 104.196008 
L 258.238024 102.302959 
L 260.708679 100.271691 
L 263.179335 98.175957 
L 265.64999 96.078274 
L 268.120646 93.977806 
L 270.591302 91.995276 
L 273.061957 89.981845 
L 275.532613 87.840842 
L 278.003268 85.698142 
L 280.473924 83.550654 
L 282.944579 81.403167 
L 285.415235 79.282801 
L 287.88589 77.276399 
L 290.356546 75.205347 
L 292.827201 73.022737 
L 295.297857 70.95819 
L 297.768512 68.990382 
L 300.239168 66.712882 
L 302.709823 64.592478 
L 305.180479 62.49668 
L 305.180479 21.172727 
L 305.180479 21.172727 
L 302.709823 23.667227 
L 300.239168 26.161726 
L 297.768512 28.651182 
L 295.297857 31.138965 
L 292.827201 33.645007 
L 290.356546 36.271771 
L 287.88589 38.709492 
L 285.415235 41.111031 
L 282.944579 43.587894 
L 280.473924 46.075356 
L 278.003268 48.56525 
L 275.532613 51.347944 
L 273.061957 53.79072 
L 270.591302 56.152117 
L 268.120646 58.527835 
L 265.64999 61.096711 
L 263.179335 63.786145 
L 260.708679 66.149816 
L 258.238024 68.506745 
L 255.767368 70.965516 
L 253.296713 73.454291 
L 250.826057 75.798341 
L 248.355402 78.20342 
L 245.884746 80.723782 
L 243.414091 83.235657 
L 240.943435 85.756309 
L 238.47278 88.304878 
L 236.002124 90.835925 
L 233.531468 93.373824 
L 231.060813 95.770308 
L 228.590157 97.942443 
L 226.119502 100.223487 
L 223.648846 102.835991 
L 221.178191 105.230701 
L 218.707535 107.8524 
L 216.23688 110.170627 
L 213.766224 112.436797 
L 211.295569 114.702968 
L 208.824913 116.971933 
L 206.354258 119.242273 
L 203.883602 121.676725 
L 201.412946 124.251439 
L 198.942291 126.626753 
L 196.471635 128.760737 
L 194.00098 130.895603 
L 191.530324 133.310363 
L 189.059669 135.802927 
L 186.589013 138.303842 
L 184.118358 140.748567 
L 181.647702 143.096295 
L 179.177047 145.413476 
L 176.706391 147.704476 
L 174.235736 149.995477 
L 171.76508 152.286477 
L 169.294424 154.577478 
L 166.823769 156.868478 
L 164.353113 159.120238 
L 161.882458 161.302494 
L 159.411802 163.494216 
L 156.941147 165.870904 
L 154.470491 168.042336 
L 151.999836 170.286634 
L 149.52918 172.552808 
L 147.058525 174.81662 
L 144.587869 177.042448 
L 142.117214 179.311352 
L 139.646558 181.56801 
L 137.175902 183.769595 
L 134.705247 185.967836 
L 132.234591 188.329582 
L 129.763936 190.559159 
L 127.29328 192.913723 
L 124.822625 195.2003 
L 122.351969 197.467239 
L 119.881314 199.734178 
L 117.410658 201.995033 
L 114.940003 204.140867 
L 112.469347 206.341199 
L 109.998692 208.130213 
L 107.528036 210.144979 
L 105.05738 212.337853 
L 102.586725 214.537452 
L 100.116069 216.649557 
L 97.645414 218.908153 
L 95.174758 221.125423 
L 92.704103 223.236544 
L 90.233447 225.311371 
L 87.762792 227.386772 
L 85.292136 229.464026 
L 82.821481 231.541279 
L 80.350825 233.618533 
L 77.88017 235.660499 
L 75.409514 237.701063 
L 72.938858 239.733473 
L 70.468203 241.768449 
L 67.997547 243.809543 
L 65.526892 245.850637 
L 63.056236 247.891732 
L 60.585581 250.040512 
z
" clip-path="url(#p89b92aa1eb)" style="fill: #1f77b4; fill-opacity: 0.15"/>
   </g>
   <g id="PathCollection_2">
    <defs>
     <path id="ma90549024c" d="M 0 3 
C 0.795609 3 1.55874 2.683901 2.12132 2.12132 
C 2.683901 1.55874 3 0.795609 3 0 
C 3 -0.795609 2.683901 -1.55874 2.12132 -2.12132 
C 1.55874 -2.683901 0.795609 -3 0 -3 
C -0.795609 -3 -1.55874 -2.683901 -2.12132 -2.12132 
C -2.683901 -1.55874 -3 -0.795609 -3 0 
C -3 0.795609 -2.683901 1.55874 -2.12132 2.12132 
C -1.55874 2.683901 -0.795609 3 0 3 
z
" style="stroke: #ff7f0e; stroke-opacity: 0.8"/>
    </defs>
    <g clip-path="url(#p89b92aa1eb)">
     <use xlink:href="#ma90549024c" x="138.300262" y="290.657123" style="fill: #ff7f0e; fill-opacity: 0.8; stroke: #ff7f0e; stroke-opacity: 0.8"/>
     <use xlink:href="#ma90549024c" x="165.483931" y="249.530255" style="fill: #ff7f0e; fill-opacity: 0.8; stroke: #ff7f0e; stroke-opacity: 0.8"/>
     <use xlink:href="#ma90549024c" x="192.667601" y="213.388462" style="fill: #ff7f0e; fill-opacity: 0.8; stroke: #ff7f0e; stroke-opacity: 0.8"/>
     <use xlink:href="#ma90549024c" x="219.831895" y="178.492937" style="fill: #ff7f0e; fill-opacity: 0.8; stroke: #ff7f0e; stroke-opacity: 0.8"/>
     <use xlink:href="#ma90549024c" x="247.015564" y="147.336219" style="fill: #ff7f0e; fill-opacity: 0.8; stroke: #ff7f0e; stroke-opacity: 0.8"/>
     <use xlink:href="#ma90549024c" x="274.199234" y="118.672038" style="fill: #ff7f0e; fill-opacity: 0.8; stroke: #ff7f0e; stroke-opacity: 0.8"/>
     <use xlink:href="#ma90549024c" x="301.363528" y="91.254126" style="fill: #ff7f0e; fill-opacity: 0.8; stroke: #ff7f0e; stroke-opacity: 0.8"/>
     <use xlink:href="#ma90549024c" x="328.547197" y="66.328751" style="fill: #ff7f0e; fill-opacity: 0.8; stroke: #ff7f0e; stroke-opacity: 0.8"/>
     <use xlink:href="#ma90549024c" x="165.483931" y="257.007867" style="fill: #ff7f0e; fill-opacity: 0.8; stroke: #ff7f0e; stroke-opacity: 0.8"/>
     <use xlink:href="#ma90549024c" x="219.831895" y="189.709356" style="fill: #ff7f0e; fill-opacity: 0.8; stroke: #ff7f0e; stroke-opacity: 0.8"/>
     <use xlink:href="#ma90549024c" x="138.300262" y="300.627273" style="fill: #ff7f0e; fill-opacity: 0.8; stroke: #ff7f0e; stroke-opacity: 0.8"/>
     <use xlink:href="#ma90549024c" x="192.667601" y="235.821299" style="fill: #ff7f0e; fill-opacity: 0.8; stroke: #ff7f0e; stroke-opacity: 0.8"/>
    </g>
   </g>
   <g id="PolyCollection_2">
    <path d="M 138.300262 280.34684 
L 138.300262 296.498652 
L 140.221948 294.010629 
L 142.143635 291.486935 
L 144.065321 288.978012 
L 145.987007 286.530867 
L 147.908693 284.063395 
L 149.830379 281.607069 
L 151.752066 279.114848 
L 153.673752 276.670072 
L 155.595438 274.239466 
L 157.517124 271.769566 
L 159.43881 269.3274 
L 161.360497 266.869625 
L 163.282183 264.395505 
L 165.203869 261.840149 
L 167.125555 259.456562 
L 169.047241 257.049221 
L 170.968928 254.593969 
L 172.890614 252.224524 
L 174.8123 249.818228 
L 176.733986 247.382597 
L 178.655673 244.94415 
L 180.577359 242.460303 
L 182.499045 240.017966 
L 184.420731 237.610515 
L 186.342417 235.213878 
L 188.264104 232.801305 
L 190.18579 230.382794 
L 192.107476 227.953667 
L 194.029162 225.523548 
L 195.950848 223.13226 
L 197.872535 220.728337 
L 199.794221 218.323409 
L 201.715907 215.943681 
L 203.637593 213.587973 
L 205.559279 211.215616 
L 207.480966 208.838645 
L 209.402652 206.416182 
L 211.324338 204.028542 
L 213.246024 201.649266 
L 215.167711 199.317688 
L 217.089397 196.985178 
L 219.011083 194.652396 
L 220.932769 192.322956 
L 222.854455 189.910568 
L 224.776142 187.600263 
L 226.697828 185.256984 
L 228.619514 182.898909 
L 230.5412 180.540564 
L 232.462886 178.18222 
L 234.384573 175.856375 
L 236.306259 173.541801 
L 238.227945 171.205771 
L 240.149631 168.842997 
L 242.071317 166.464991 
L 243.993004 164.092537 
L 245.91469 161.67588 
L 247.836376 159.317424 
L 249.758062 156.980706 
L 251.679749 154.648297 
L 253.601435 152.340839 
L 255.523121 150.053075 
L 257.444807 147.760116 
L 259.366493 145.42136 
L 261.28818 143.062147 
L 263.209866 140.795262 
L 265.131552 138.526615 
L 267.053238 136.261585 
L 268.974924 133.912035 
L 270.896611 131.647226 
L 272.818297 129.29463 
L 274.739983 126.970964 
L 276.661669 124.657398 
L 278.583355 122.368213 
L 280.505042 120.064159 
L 282.426728 117.752032 
L 284.348414 115.444208 
L 286.2701 113.17413 
L 288.191787 110.916347 
L 290.113473 108.629248 
L 292.035159 106.374537 
L 293.956845 104.099878 
L 295.878531 101.814861 
L 297.800218 99.491583 
L 299.721904 97.171683 
L 301.64359 94.847208 
L 303.565276 92.524205 
L 305.486962 90.21204 
L 307.408649 87.965405 
L 309.330335 85.751393 
L 311.252021 83.471151 
L 313.173707 81.184051 
L 315.095393 78.896951 
L 317.01708 76.609851 
L 318.938766 74.360002 
L 320.860452 72.111035 
L 322.782138 69.837535 
L 324.703825 67.615348 
L 326.625511 65.367656 
L 328.547197 63.138082 
L 328.547197 38.963075 
L 328.547197 38.963075 
L 326.625511 41.527395 
L 324.703825 44.091716 
L 322.782138 46.656037 
L 320.860452 49.220358 
L 318.938766 51.784679 
L 317.01708 54.348999 
L 315.095393 56.91332 
L 313.173707 59.477641 
L 311.252021 62.041962 
L 309.330335 64.606282 
L 307.408649 67.170603 
L 305.486962 69.734924 
L 303.565276 72.300734 
L 301.64359 74.947818 
L 299.721904 77.603237 
L 297.800218 80.246524 
L 295.878531 82.807904 
L 293.956845 85.369283 
L 292.035159 87.930663 
L 290.113473 90.495958 
L 288.191787 93.103375 
L 286.2701 95.710904 
L 284.348414 98.318433 
L 282.426728 100.925962 
L 280.505042 103.515436 
L 278.583355 106.121218 
L 276.661669 108.727 
L 274.739983 111.309196 
L 272.818297 113.908929 
L 270.896611 116.477749 
L 268.974924 119.047397 
L 267.053238 121.618058 
L 265.131552 124.138856 
L 263.209866 126.738459 
L 261.28818 129.272275 
L 259.366493 131.808685 
L 257.444807 134.411326 
L 255.523121 137.034821 
L 253.601435 139.603701 
L 251.679749 142.17455 
L 249.758062 144.745968 
L 247.836376 147.317387 
L 245.91469 149.902792 
L 243.993004 152.429415 
L 242.071317 154.901023 
L 240.149631 157.398779 
L 238.227945 159.896535 
L 236.306259 162.398629 
L 234.384573 164.947181 
L 232.462886 167.429515 
L 230.5412 169.897201 
L 228.619514 172.397703 
L 226.697828 174.951652 
L 224.776142 177.422139 
L 222.854455 179.909937 
L 220.932769 182.373163 
L 219.011083 184.803958 
L 217.089397 187.184484 
L 215.167711 189.571254 
L 213.246024 192.026848 
L 211.324338 194.367596 
L 209.402652 196.773353 
L 207.480966 199.134479 
L 205.559279 201.462973 
L 203.637593 203.876737 
L 201.715907 206.295102 
L 199.794221 208.59214 
L 197.872535 210.96796 
L 195.950848 213.268712 
L 194.029162 215.561025 
L 192.107476 217.785764 
L 190.18579 220.068268 
L 188.264104 222.275291 
L 186.342417 224.66651 
L 184.420731 226.915193 
L 182.499045 229.088572 
L 180.577359 231.262217 
L 178.655673 233.528687 
L 176.733986 235.780815 
L 174.8123 237.99089 
L 172.890614 240.200965 
L 170.968928 242.41104 
L 169.047241 244.621116 
L 167.125555 246.84475 
L 165.203869 249.078222 
L 163.282183 251.311695 
L 161.360497 253.545168 
L 159.43881 255.77864 
L 157.517124 258.003619 
L 155.595438 260.19276 
L 153.673752 262.382264 
L 151.752066 264.593046 
L 149.830379 266.872732 
L 147.908693 269.152418 
L 145.987007 271.413041 
L 144.065321 273.646422 
L 142.143635 275.879895 
L 140.221948 278.113367 
L 138.300262 280.34684 
z
" clip-path="url(#p89b92aa1eb)" style="fill: #ff7f0e; fill-opacity: 0.15"/>
   </g>
   <g id="matplotlib.axis_1">
    <g id="xtick_1">
     <g id="line2d_1">
      <defs>
       <path id="m00b518cdae" d="M 0 0 
L 0 3.5 
" style="stroke: #000000; stroke-width: 0.8"/>
      </defs>
      <g>
       <use xlink:href="#m00b518cdae" x="76.00839" y="314.6" style="stroke: #000000; stroke-width: 0.8"/>
      </g>
     </g>
     <g id="text_1">
      <!-- 40 -->
      <g transform="translate(69.64589 329.198437)scale(0.1 -0.1)">
       <defs>
        <path id="DejaVuSans-34" d="M 2419 4116 
L 825 1625 
L 2419 1625 
L 2419 4116 
z
M 2253 4666 
L 3047 4666 
L 3047 1625 
L 3713 1625 
L 3713 1100 
L 3047 1100 
L 3047 0 
L 2419 0 
L 2419 1100 
L 313 1100 
L 313 1709 
L 2253 4666 
z
" transform="scale(0.015625)"/>
        <path id="DejaVuSans-30" d="M 2034 4250 
Q 1547 4250 1301 3770 
Q 1056 3291 1056 2328 
Q 1056 1369 1301 889 
Q 1547 409 2034 409 
Q 2525 409 2770 889 
Q 3016 1369 3016 2328 
Q 3016 3291 2770 3770 
Q 2525 4250 2034 4250 
z
M 2034 4750 
Q 2819 4750 3233 4129 
Q 3647 3509 3647 2328 
Q 3647 1150 3233 529 
Q 2819 -91 2034 -91 
Q 1250 -91 836 529 
Q 422 1150 422 2328 
Q 422 3509 836 4129 
Q 1250 4750 2034 4750 
z
" transform="scale(0.015625)"/>
       </defs>
       <use xlink:href="#DejaVuSans-34"/>
       <use xlink:href="#DejaVuSans-30" x="63.623047"/>
      </g>
     </g>
    </g>
    <g id="xtick_2">
     <g id="line2d_2">
      <g>
       <use xlink:href="#m00b518cdae" x="114.759166" y="314.6" style="stroke: #000000; stroke-width: 0.8"/>
      </g>
     </g>
     <g id="text_2">
      <!-- 60 -->
      <g transform="translate(108.396666 329.198437)scale(0.1 -0.1)">
       <defs>
        <path id="DejaVuSans-36" d="M 2113 2584 
Q 1688 2584 1439 2293 
Q 1191 2003 1191 1497 
Q 1191 994 1439 701 
Q 1688 409 2113 409 
Q 2538 409 2786 701 
Q 3034 994 3034 1497 
Q 3034 2003 2786 2293 
Q 2538 2584 2113 2584 
z
M 3366 4563 
L 3366 3988 
Q 3128 4100 2886 4159 
Q 2644 4219 2406 4219 
Q 1781 4219 1451 3797 
Q 1122 3375 1075 2522 
Q 1259 2794 1537 2939 
Q 1816 3084 2150 3084 
Q 2853 3084 3261 2657 
Q 3669 2231 3669 1497 
Q 3669 778 3244 343 
Q 2819 -91 2113 -91 
Q 1303 -91 875 529 
Q 447 1150 447 2328 
Q 447 3434 972 4092 
Q 1497 4750 2381 4750 
Q 2619 4750 2861 4703 
Q 3103 4656 3366 4563 
z
" transform="scale(0.015625)"/>
       </defs>
       <use xlink:href="#DejaVuSans-36"/>
       <use xlink:href="#DejaVuSans-30" x="63.623047"/>
      </g>
     </g>
    </g>
    <g id="xtick_3">
     <g id="line2d_3">
      <g>
       <use xlink:href="#m00b518cdae" x="153.509942" y="314.6" style="stroke: #000000; stroke-width: 0.8"/>
      </g>
     </g>
     <g id="text_3">
      <!-- 80 -->
      <g transform="translate(147.147442 329.198437)scale(0.1 -0.1)">
       <defs>
        <path id="DejaVuSans-38" d="M 2034 2216 
Q 1584 2216 1326 1975 
Q 1069 1734 1069 1313 
Q 1069 891 1326 650 
Q 1584 409 2034 409 
Q 2484 409 2743 651 
Q 3003 894 3003 1313 
Q 3003 1734 2745 1975 
Q 2488 2216 2034 2216 
z
M 1403 2484 
Q 997 2584 770 2862 
Q 544 3141 544 3541 
Q 544 4100 942 4425 
Q 1341 4750 2034 4750 
Q 2731 4750 3128 4425 
Q 3525 4100 3525 3541 
Q 3525 3141 3298 2862 
Q 3072 2584 2669 2484 
Q 3125 2378 3379 2068 
Q 3634 1759 3634 1313 
Q 3634 634 3220 271 
Q 2806 -91 2034 -91 
Q 1263 -91 848 271 
Q 434 634 434 1313 
Q 434 1759 690 2068 
Q 947 2378 1403 2484 
z
M 1172 3481 
Q 1172 3119 1398 2916 
Q 1625 2713 2034 2713 
Q 2441 2713 2670 2916 
Q 2900 3119 2900 3481 
Q 2900 3844 2670 4047 
Q 2441 4250 2034 4250 
Q 1625 4250 1398 4047 
Q 1172 3844 1172 3481 
z
" transform="scale(0.015625)"/>
       </defs>
       <use xlink:href="#DejaVuSans-38"/>
       <use xlink:href="#DejaVuSans-30" x="63.623047"/>
      </g>
     </g>
    </g>
    <g id="xtick_4">
     <g id="line2d_4">
      <g>
       <use xlink:href="#m00b518cdae" x="192.260718" y="314.6" style="stroke: #000000; stroke-width: 0.8"/>
      </g>
     </g>
     <g id="text_4">
      <!-- 100 -->
      <g transform="translate(182.716968 329.198437)scale(0.1 -0.1)">
       <defs>
        <path id="DejaVuSans-31" d="M 794 531 
L 1825 531 
L 1825 4091 
L 703 3866 
L 703 4441 
L 1819 4666 
L 2450 4666 
L 2450 531 
L 3481 531 
L 3481 0 
L 794 0 
L 794 531 
z
" transform="scale(0.015625)"/>
       </defs>
       <use xlink:href="#DejaVuSans-31"/>
       <use xlink:href="#DejaVuSans-30" x="63.623047"/>
       <use xlink:href="#DejaVuSans-30" x="127.246094"/>
      </g>
     </g>
    </g>
    <g id="xtick_5">
     <g id="line2d_5">
      <g>
       <use xlink:href="#m00b518cdae" x="231.011494" y="314.6" style="stroke: #000000; stroke-width: 0.8"/>
      </g>
     </g>
     <g id="text_5">
      <!-- 120 -->
      <g transform="translate(221.467744 329.198437)scale(0.1 -0.1)">
       <defs>
        <path id="DejaVuSans-32" d="M 1228 531 
L 3431 531 
L 3431 0 
L 469 0 
L 469 531 
Q 828 903 1448 1529 
Q 2069 2156 2228 2338 
Q 2531 2678 2651 2914 
Q 2772 3150 2772 3378 
Q 2772 3750 2511 3984 
Q 2250 4219 1831 4219 
Q 1534 4219 1204 4116 
Q 875 4013 500 3803 
L 500 4441 
Q 881 4594 1212 4672 
Q 1544 4750 1819 4750 
Q 2544 4750 2975 4387 
Q 3406 4025 3406 3419 
Q 3406 3131 3298 2873 
Q 3191 2616 2906 2266 
Q 2828 2175 2409 1742 
Q 1991 1309 1228 531 
z
" transform="scale(0.015625)"/>
       </defs>
       <use xlink:href="#DejaVuSans-31"/>
       <use xlink:href="#DejaVuSans-32" x="63.623047"/>
       <use xlink:href="#DejaVuSans-30" x="127.246094"/>
      </g>
     </g>
    </g>
    <g id="xtick_6">
     <g id="line2d_6">
      <g>
       <use xlink:href="#m00b518cdae" x="269.76227" y="314.6" style="stroke: #000000; stroke-width: 0.8"/>
      </g>
     </g>
     <g id="text_6">
      <!-- 140 -->
      <g transform="translate(260.21852 329.198437)scale(0.1 -0.1)">
       <use xlink:href="#DejaVuSans-31"/>
       <use xlink:href="#DejaVuSans-34" x="63.623047"/>
       <use xlink:href="#DejaVuSans-30" x="127.246094"/>
      </g>
     </g>
    </g>
    <g id="xtick_7">
     <g id="line2d_7">
      <g>
       <use xlink:href="#m00b518cdae" x="308.513046" y="314.6" style="stroke: #000000; stroke-width: 0.8"/>
      </g>
     </g>
     <g id="text_7">
      <!-- 160 -->
      <g transform="translate(298.969296 329.198437)scale(0.1 -0.1)">
       <use xlink:href="#DejaVuSans-31"/>
       <use xlink:href="#DejaVuSans-36" x="63.623047"/>
       <use xlink:href="#DejaVuSans-30" x="127.246094"/>
      </g>
     </g>
    </g>
    <g id="text_8">
     <!-- MW, g/mol -->
     <g transform="translate(167.953108 342.876562)scale(0.1 -0.1)">
      <defs>
       <path id="DejaVuSans-4d" d="M 628 4666 
L 1569 4666 
L 2759 1491 
L 3956 4666 
L 4897 4666 
L 4897 0 
L 4281 0 
L 4281 4097 
L 3078 897 
L 2444 897 
L 1241 4097 
L 1241 0 
L 628 0 
L 628 4666 
z
" transform="scale(0.015625)"/>
       <path id="DejaVuSans-57" d="M 213 4666 
L 850 4666 
L 1831 722 
L 2809 4666 
L 3519 4666 
L 4500 722 
L 5478 4666 
L 6119 4666 
L 4947 0 
L 4153 0 
L 3169 4050 
L 2175 0 
L 1381 0 
L 213 4666 
z
" transform="scale(0.015625)"/>
       <path id="DejaVuSans-2c" d="M 750 794 
L 1409 794 
L 1409 256 
L 897 -744 
L 494 -744 
L 750 256 
L 750 794 
z
" transform="scale(0.015625)"/>
       <path id="DejaVuSans-20" transform="scale(0.015625)"/>
       <path id="DejaVuSans-67" d="M 2906 1791 
Q 2906 2416 2648 2759 
Q 2391 3103 1925 3103 
Q 1463 3103 1205 2759 
Q 947 2416 947 1791 
Q 947 1169 1205 825 
Q 1463 481 1925 481 
Q 2391 481 2648 825 
Q 2906 1169 2906 1791 
z
M 3481 434 
Q 3481 -459 3084 -895 
Q 2688 -1331 1869 -1331 
Q 1566 -1331 1297 -1286 
Q 1028 -1241 775 -1147 
L 775 -588 
Q 1028 -725 1275 -790 
Q 1522 -856 1778 -856 
Q 2344 -856 2625 -561 
Q 2906 -266 2906 331 
L 2906 616 
Q 2728 306 2450 153 
Q 2172 0 1784 0 
Q 1141 0 747 490 
Q 353 981 353 1791 
Q 353 2603 747 3093 
Q 1141 3584 1784 3584 
Q 2172 3584 2450 3431 
Q 2728 3278 2906 2969 
L 2906 3500 
L 3481 3500 
L 3481 434 
z
" transform="scale(0.015625)"/>
       <path id="DejaVuSans-2f" d="M 1625 4666 
L 2156 4666 
L 531 -594 
L 0 -594 
L 1625 4666 
z
" transform="scale(0.015625)"/>
       <path id="DejaVuSans-6d" d="M 3328 2828 
Q 3544 3216 3844 3400 
Q 4144 3584 4550 3584 
Q 5097 3584 5394 3201 
Q 5691 2819 5691 2113 
L 5691 0 
L 5113 0 
L 5113 2094 
Q 5113 2597 4934 2840 
Q 4756 3084 4391 3084 
Q 3944 3084 3684 2787 
Q 3425 2491 3425 1978 
L 3425 0 
L 2847 0 
L 2847 2094 
Q 2847 2600 2669 2842 
Q 2491 3084 2119 3084 
Q 1678 3084 1418 2786 
Q 1159 2488 1159 1978 
L 1159 0 
L 581 0 
L 581 3500 
L 1159 3500 
L 1159 2956 
Q 1356 3278 1631 3431 
Q 1906 3584 2284 3584 
Q 2666 3584 2933 3390 
Q 3200 3197 3328 2828 
z
" transform="scale(0.015625)"/>
       <path id="DejaVuSans-6f" d="M 1959 3097 
Q 1497 3097 1228 2736 
Q 959 2375 959 1747 
Q 959 1119 1226 758 
Q 1494 397 1959 397 
Q 2419 397 2687 759 
Q 2956 1122 2956 1747 
Q 2956 2369 2687 2733 
Q 2419 3097 1959 3097 
z
M 1959 3584 
Q 2709 3584 3137 3096 
Q 3566 2609 3566 1747 
Q 3566 888 3137 398 
Q 2709 -91 1959 -91 
Q 1206 -91 779 398 
Q 353 888 353 1747 
Q 353 2609 779 3096 
Q 1206 3584 1959 3584 
z
" transform="scale(0.015625)"/>
       <path id="DejaVuSans-6c" d="M 603 4863 
L 1178 4863 
L 1178 0 
L 603 0 
L 603 4863 
z
" transform="scale(0.015625)"/>
      </defs>
      <use xlink:href="#DejaVuSans-4d"/>
      <use xlink:href="#DejaVuSans-57" x="86.279297"/>
      <use xlink:href="#DejaVuSans-2c" x="185.15625"/>
      <use xlink:href="#DejaVuSans-20" x="216.943359"/>
      <use xlink:href="#DejaVuSans-67" x="248.730469"/>
      <use xlink:href="#DejaVuSans-2f" x="312.207031"/>
      <use xlink:href="#DejaVuSans-6d" x="345.898438"/>
      <use xlink:href="#DejaVuSans-6f" x="443.310547"/>
      <use xlink:href="#DejaVuSans-6c" x="504.492188"/>
     </g>
    </g>
   </g>
   <g id="matplotlib.axis_2">
    <g id="ytick_1">
     <g id="line2d_8">
      <defs>
       <path id="m642b0deb48" d="M 0 0 
L -3.5 0 
" style="stroke: #000000; stroke-width: 0.8"/>
      </defs>
      <g>
       <use xlink:href="#m642b0deb48" x="47.1875" y="273.209361" style="stroke: #000000; stroke-width: 0.8"/>
      </g>
     </g>
     <g id="text_9">
      <!-- 50 -->
      <g transform="translate(27.4625 277.008579)scale(0.1 -0.1)">
       <defs>
        <path id="DejaVuSans-35" d="M 691 4666 
L 3169 4666 
L 3169 4134 
L 1269 4134 
L 1269 2991 
Q 1406 3038 1543 3061 
Q 1681 3084 1819 3084 
Q 2600 3084 3056 2656 
Q 3513 2228 3513 1497 
Q 3513 744 3044 326 
Q 2575 -91 1722 -91 
Q 1428 -91 1123 -41 
Q 819 9 494 109 
L 494 744 
Q 775 591 1075 516 
Q 1375 441 1709 441 
Q 2250 441 2565 725 
Q 2881 1009 2881 1497 
Q 2881 1984 2565 2268 
Q 2250 2553 1709 2553 
Q 1456 2553 1204 2497 
Q 953 2441 691 2322 
L 691 4666 
z
" transform="scale(0.015625)"/>
       </defs>
       <use xlink:href="#DejaVuSans-35"/>
       <use xlink:href="#DejaVuSans-30" x="63.623047"/>
      </g>
     </g>
    </g>
    <g id="ytick_2">
     <g id="line2d_9">
      <g>
       <use xlink:href="#m642b0deb48" x="47.1875" y="210.895924" style="stroke: #000000; stroke-width: 0.8"/>
      </g>
     </g>
     <g id="text_10">
      <!-- 100 -->
      <g transform="translate(21.1 214.695143)scale(0.1 -0.1)">
       <use xlink:href="#DejaVuSans-31"/>
       <use xlink:href="#DejaVuSans-30" x="63.623047"/>
       <use xlink:href="#DejaVuSans-30" x="127.246094"/>
      </g>
     </g>
    </g>
    <g id="ytick_3">
     <g id="line2d_10">
      <g>
       <use xlink:href="#m642b0deb48" x="47.1875" y="148.582488" style="stroke: #000000; stroke-width: 0.8"/>
      </g>
     </g>
     <g id="text_11">
      <!-- 150 -->
      <g transform="translate(21.1 152.381706)scale(0.1 -0.1)">
       <use xlink:href="#DejaVuSans-31"/>
       <use xlink:href="#DejaVuSans-35" x="63.623047"/>
       <use xlink:href="#DejaVuSans-30" x="127.246094"/>
      </g>
     </g>
    </g>
    <g id="ytick_4">
     <g id="line2d_11">
      <g>
       <use xlink:href="#m642b0deb48" x="47.1875" y="86.269051" style="stroke: #000000; stroke-width: 0.8"/>
      </g>
     </g>
     <g id="text_12">
      <!-- 200 -->
      <g transform="translate(21.1 90.06827)scale(0.1 -0.1)">
       <use xlink:href="#DejaVuSans-32"/>
       <use xlink:href="#DejaVuSans-30" x="63.623047"/>
       <use xlink:href="#DejaVuSans-30" x="127.246094"/>
      </g>
     </g>
    </g>
    <g id="ytick_5">
     <g id="line2d_12">
      <g>
       <use xlink:href="#m642b0deb48" x="47.1875" y="23.955615" style="stroke: #000000; stroke-width: 0.8"/>
      </g>
     </g>
     <g id="text_13">
      <!-- 250 -->
      <g transform="translate(21.1 27.754833)scale(0.1 -0.1)">
       <use xlink:href="#DejaVuSans-32"/>
       <use xlink:href="#DejaVuSans-35" x="63.623047"/>
       <use xlink:href="#DejaVuSans-30" x="127.246094"/>
      </g>
     </g>
    </g>
    <g id="text_14">
     <!-- bp, $^o$C -->
     <g transform="translate(15 176.25)rotate(-90)scale(0.1 -0.1)">
      <defs>
       <path id="DejaVuSans-62" d="M 3116 1747 
Q 3116 2381 2855 2742 
Q 2594 3103 2138 3103 
Q 1681 3103 1420 2742 
Q 1159 2381 1159 1747 
Q 1159 1113 1420 752 
Q 1681 391 2138 391 
Q 2594 391 2855 752 
Q 3116 1113 3116 1747 
z
M 1159 2969 
Q 1341 3281 1617 3432 
Q 1894 3584 2278 3584 
Q 2916 3584 3314 3078 
Q 3713 2572 3713 1747 
Q 3713 922 3314 415 
Q 2916 -91 2278 -91 
Q 1894 -91 1617 61 
Q 1341 213 1159 525 
L 1159 0 
L 581 0 
L 581 4863 
L 1159 4863 
L 1159 2969 
z
" transform="scale(0.015625)"/>
       <path id="DejaVuSans-70" d="M 1159 525 
L 1159 -1331 
L 581 -1331 
L 581 3500 
L 1159 3500 
L 1159 2969 
Q 1341 3281 1617 3432 
Q 1894 3584 2278 3584 
Q 2916 3584 3314 3078 
Q 3713 2572 3713 1747 
Q 3713 922 3314 415 
Q 2916 -91 2278 -91 
Q 1894 -91 1617 61 
Q 1341 213 1159 525 
z
M 3116 1747 
Q 3116 2381 2855 2742 
Q 2594 3103 2138 3103 
Q 1681 3103 1420 2742 
Q 1159 2381 1159 1747 
Q 1159 1113 1420 752 
Q 1681 391 2138 391 
Q 2594 391 2855 752 
Q 3116 1113 3116 1747 
z
" transform="scale(0.015625)"/>
       <path id="DejaVuSans-Oblique-6f" d="M 1625 -91 
Q 1009 -91 651 289 
Q 294 669 294 1325 
Q 294 1706 417 2101 
Q 541 2497 738 2766 
Q 1047 3184 1428 3384 
Q 1809 3584 2291 3584 
Q 2888 3584 3255 3212 
Q 3622 2841 3622 2241 
Q 3622 1825 3500 1412 
Q 3378 1000 3181 728 
Q 2875 309 2494 109 
Q 2113 -91 1625 -91 
z
M 891 1344 
Q 891 869 1089 633 
Q 1288 397 1691 397 
Q 2269 397 2648 901 
Q 3028 1406 3028 2181 
Q 3028 2634 2825 2865 
Q 2622 3097 2228 3097 
Q 1903 3097 1650 2945 
Q 1397 2794 1197 2484 
Q 1050 2253 970 1956 
Q 891 1659 891 1344 
z
" transform="scale(0.015625)"/>
       <path id="DejaVuSans-43" d="M 4122 4306 
L 4122 3641 
Q 3803 3938 3442 4084 
Q 3081 4231 2675 4231 
Q 1875 4231 1450 3742 
Q 1025 3253 1025 2328 
Q 1025 1406 1450 917 
Q 1875 428 2675 428 
Q 3081 428 3442 575 
Q 3803 722 4122 1019 
L 4122 359 
Q 3791 134 3420 21 
Q 3050 -91 2638 -91 
Q 1578 -91 968 557 
Q 359 1206 359 2328 
Q 359 3453 968 4101 
Q 1578 4750 2638 4750 
Q 3056 4750 3426 4639 
Q 3797 4528 4122 4306 
z
" transform="scale(0.015625)"/>
      </defs>
      <use xlink:href="#DejaVuSans-62" transform="translate(0 0.51875)"/>
      <use xlink:href="#DejaVuSans-70" transform="translate(63.476562 0.51875)"/>
      <use xlink:href="#DejaVuSans-2c" transform="translate(126.953125 0.51875)"/>
      <use xlink:href="#DejaVuSans-20" transform="translate(158.740234 0.51875)"/>
      <use xlink:href="#DejaVuSans-Oblique-6f" transform="translate(191.484375 38.8)scale(0.7)"/>
      <use xlink:href="#DejaVuSans-43" transform="translate(237.045898 0.51875)"/>
     </g>
    </g>
   </g>
   <g id="line2d_13">
    <path d="M 60.585581 265.096702 
L 63.056236 262.846715 
L 65.526892 260.596728 
L 67.997547 258.34674 
L 70.468203 256.096753 
L 72.938858 253.846766 
L 75.409514 251.596778 
L 77.88017 249.346791 
L 80.350825 247.096804 
L 82.821481 244.846816 
L 85.292136 242.596829 
L 87.762792 240.346841 
L 90.233447 238.096854 
L 92.704103 235.846867 
L 95.174758 233.596879 
L 97.645414 231.346892 
L 100.116069 229.096905 
L 102.586725 226.846917 
L 105.05738 224.59693 
L 107.528036 222.346943 
L 109.998692 220.096955 
L 112.469347 217.846968 
L 114.940003 215.596981 
L 117.410658 213.346993 
L 119.881314 211.097006 
L 122.351969 208.847018 
L 124.822625 206.597031 
L 127.29328 204.347044 
L 129.763936 202.097056 
L 132.234591 199.847069 
L 134.705247 197.597082 
L 137.175902 195.347094 
L 139.646558 193.097107 
L 142.117214 190.84712 
L 144.587869 188.597132 
L 147.058525 186.347145 
L 149.52918 184.097158 
L 151.999836 181.84717 
L 154.470491 179.597183 
L 156.941147 177.347195 
L 159.411802 175.097208 
L 161.882458 172.847221 
L 164.353113 170.597233 
L 166.823769 168.347246 
L 169.294424 166.097259 
L 171.76508 163.847271 
L 174.235736 161.597284 
L 176.706391 159.347297 
L 179.177047 157.097309 
L 181.647702 154.847322 
L 184.118358 152.597335 
L 186.589013 150.347347 
L 189.059669 148.09736 
L 191.530324 145.847372 
L 194.00098 143.597385 
L 196.471635 141.347398 
L 198.942291 139.09741 
L 201.412946 136.847423 
L 203.883602 134.597436 
L 206.354258 132.347448 
L 208.824913 130.097461 
L 211.295569 127.847474 
L 213.766224 125.597486 
L 216.23688 123.347499 
L 218.707535 121.097512 
L 221.178191 118.847524 
L 223.648846 116.597537 
L 226.119502 114.347549 
L 228.590157 112.097562 
L 231.060813 109.847575 
L 233.531468 107.597587 
L 236.002124 105.3476 
L 238.47278 103.097613 
L 240.943435 100.847625 
L 243.414091 98.597638 
L 245.884746 96.347651 
L 248.355402 94.097663 
L 250.826057 91.847676 
L 253.296713 89.597688 
L 255.767368 87.347701 
L 258.238024 85.097714 
L 260.708679 82.847726 
L 263.179335 80.597739 
L 265.64999 78.347752 
L 268.120646 76.097764 
L 270.591302 73.847777 
L 273.061957 71.59779 
L 275.532613 69.347802 
L 278.003268 67.097815 
L 280.473924 64.847828 
L 282.944579 62.59784 
L 285.415235 60.347853 
L 287.88589 58.097865 
L 290.356546 55.847878 
L 292.827201 53.597891 
L 295.297857 51.347903 
L 297.768512 49.097916 
L 300.239168 46.847929 
L 302.709823 44.597941 
L 305.180479 42.347954 
" clip-path="url(#p89b92aa1eb)" style="fill: none; stroke: #1f77b4; stroke-width: 2.25; stroke-linecap: square"/>
   </g>
   <g id="line2d_14">
    <path d="M 138.300262 289.369641 
L 140.221948 287.012248 
L 142.143635 284.654855 
L 144.065321 282.297462 
L 145.987007 279.940069 
L 147.908693 277.582676 
L 149.830379 275.225283 
L 151.752066 272.86789 
L 153.673752 270.510497 
L 155.595438 268.153104 
L 157.517124 265.795711 
L 159.43881 263.438319 
L 161.360497 261.080926 
L 163.282183 258.723533 
L 165.203869 256.36614 
L 167.125555 254.008747 
L 169.047241 251.651354 
L 170.968928 249.293961 
L 172.890614 246.936568 
L 174.8123 244.579175 
L 176.733986 242.221782 
L 178.655673 239.864389 
L 180.577359 237.506996 
L 182.499045 235.149603 
L 184.420731 232.79221 
L 186.342417 230.434817 
L 188.264104 228.077424 
L 190.18579 225.720031 
L 192.107476 223.362638 
L 194.029162 221.005245 
L 195.950848 218.647852 
L 197.872535 216.290459 
L 199.794221 213.933066 
L 201.715907 211.575673 
L 203.637593 209.218281 
L 205.559279 206.860888 
L 207.480966 204.503495 
L 209.402652 202.146102 
L 211.324338 199.788709 
L 213.246024 197.431316 
L 215.167711 195.073923 
L 217.089397 192.71653 
L 219.011083 190.359137 
L 220.932769 188.001744 
L 222.854455 185.644351 
L 224.776142 183.286958 
L 226.697828 180.929565 
L 228.619514 178.572172 
L 230.5412 176.214779 
L 232.462886 173.857386 
L 234.384573 171.499993 
L 236.306259 169.1426 
L 238.227945 166.785207 
L 240.149631 164.427814 
L 242.071317 162.070421 
L 243.993004 159.713028 
L 245.91469 157.355636 
L 247.836376 154.998243 
L 249.758062 152.64085 
L 251.679749 150.283457 
L 253.601435 147.926064 
L 255.523121 145.568671 
L 257.444807 143.211278 
L 259.366493 140.853885 
L 261.28818 138.496492 
L 263.209866 136.139099 
L 265.131552 133.781706 
L 267.053238 131.424313 
L 268.974924 129.06692 
L 270.896611 126.709527 
L 272.818297 124.352134 
L 274.739983 121.994741 
L 276.661669 119.637348 
L 278.583355 117.279955 
L 280.505042 114.922562 
L 282.426728 112.565169 
L 284.348414 110.207776 
L 286.2701 107.850383 
L 288.191787 105.49299 
L 290.113473 103.135598 
L 292.035159 100.778205 
L 293.956845 98.420812 
L 295.878531 96.063419 
L 297.800218 93.706026 
L 299.721904 91.348633 
L 301.64359 88.99124 
L 303.565276 86.633847 
L 305.486962 84.276454 
L 307.408649 81.919061 
L 309.330335 79.561668 
L 311.252021 77.204275 
L 313.173707 74.846882 
L 315.095393 72.489489 
L 317.01708 70.132096 
L 318.938766 67.774703 
L 320.860452 65.41731 
L 322.782138 63.059917 
L 324.703825 60.702524 
L 326.625511 58.345131 
L 328.547197 55.987738 
" clip-path="url(#p89b92aa1eb)" style="fill: none; stroke: #ff7f0e; stroke-width: 2.25; stroke-linecap: square"/>
   </g>
   <g id="patch_3">
    <path d="M 47.1875 314.6 
L 47.1875 7.2 
" style="fill: none; stroke: #000000; stroke-width: 0.8; stroke-linejoin: miter; stroke-linecap: square"/>
   </g>
   <g id="patch_4">
    <path d="M 47.1875 314.6 
L 341.945278 314.6 
" style="fill: none; stroke: #000000; stroke-width: 0.8; stroke-linejoin: miter; stroke-linecap: square"/>
   </g>
  </g>
  <g id="legend_1">
   <g id="text_15">
    <!-- type -->
    <g transform="translate(368.163559 164.159375)scale(0.1 -0.1)">
     <defs>
      <path id="DejaVuSans-74" d="M 1172 4494 
L 1172 3500 
L 2356 3500 
L 2356 3053 
L 1172 3053 
L 1172 1153 
Q 1172 725 1289 603 
Q 1406 481 1766 481 
L 2356 481 
L 2356 0 
L 1766 0 
Q 1100 0 847 248 
Q 594 497 594 1153 
L 594 3053 
L 172 3053 
L 172 3500 
L 594 3500 
L 594 4494 
L 1172 4494 
z
" transform="scale(0.015625)"/>
      <path id="DejaVuSans-79" d="M 2059 -325 
Q 1816 -950 1584 -1140 
Q 1353 -1331 966 -1331 
L 506 -1331 
L 506 -850 
L 844 -850 
Q 1081 -850 1212 -737 
Q 1344 -625 1503 -206 
L 1606 56 
L 191 3500 
L 800 3500 
L 1894 763 
L 2988 3500 
L 3597 3500 
L 2059 -325 
z
" transform="scale(0.015625)"/>
      <path id="DejaVuSans-65" d="M 3597 1894 
L 3597 1613 
L 953 1613 
Q 991 1019 1311 708 
Q 1631 397 2203 397 
Q 2534 397 2845 478 
Q 3156 559 3463 722 
L 3463 178 
Q 3153 47 2828 -22 
Q 2503 -91 2169 -91 
Q 1331 -91 842 396 
Q 353 884 353 1716 
Q 353 2575 817 3079 
Q 1281 3584 2069 3584 
Q 2775 3584 3186 3129 
Q 3597 2675 3597 1894 
z
M 3022 2063 
Q 3016 2534 2758 2815 
Q 2500 3097 2075 3097 
Q 1594 3097 1305 2825 
Q 1016 2553 972 2059 
L 3022 2063 
z
" transform="scale(0.015625)"/>
     </defs>
     <use xlink:href="#DejaVuSans-74"/>
     <use xlink:href="#DejaVuSans-79" x="39.208984"/>
     <use xlink:href="#DejaVuSans-70" x="98.388672"/>
     <use xlink:href="#DejaVuSans-65" x="161.865234"/>
    </g>
   </g>
   <g id="PathCollection_3">
    <g>
     <use xlink:href="#m9d6907a31a" x="357.454965" y="176.2125" style="fill: #1f77b4; fill-opacity: 0.8; stroke: #1f77b4; stroke-opacity: 0.8"/>
    </g>
   </g>
   <g id="text_16">
    <!-- alcohol -->
    <g transform="translate(375.454965 178.8375)scale(0.1 -0.1)">
     <defs>
      <path id="DejaVuSans-61" d="M 2194 1759 
Q 1497 1759 1228 1600 
Q 959 1441 959 1056 
Q 959 750 1161 570 
Q 1363 391 1709 391 
Q 2188 391 2477 730 
Q 2766 1069 2766 1631 
L 2766 1759 
L 2194 1759 
z
M 3341 1997 
L 3341 0 
L 2766 0 
L 2766 531 
Q 2569 213 2275 61 
Q 1981 -91 1556 -91 
Q 1019 -91 701 211 
Q 384 513 384 1019 
Q 384 1609 779 1909 
Q 1175 2209 1959 2209 
L 2766 2209 
L 2766 2266 
Q 2766 2663 2505 2880 
Q 2244 3097 1772 3097 
Q 1472 3097 1187 3025 
Q 903 2953 641 2809 
L 641 3341 
Q 956 3463 1253 3523 
Q 1550 3584 1831 3584 
Q 2591 3584 2966 3190 
Q 3341 2797 3341 1997 
z
" transform="scale(0.015625)"/>
      <path id="DejaVuSans-63" d="M 3122 3366 
L 3122 2828 
Q 2878 2963 2633 3030 
Q 2388 3097 2138 3097 
Q 1578 3097 1268 2742 
Q 959 2388 959 1747 
Q 959 1106 1268 751 
Q 1578 397 2138 397 
Q 2388 397 2633 464 
Q 2878 531 3122 666 
L 3122 134 
Q 2881 22 2623 -34 
Q 2366 -91 2075 -91 
Q 1284 -91 818 406 
Q 353 903 353 1747 
Q 353 2603 823 3093 
Q 1294 3584 2113 3584 
Q 2378 3584 2631 3529 
Q 2884 3475 3122 3366 
z
" transform="scale(0.015625)"/>
      <path id="DejaVuSans-68" d="M 3513 2113 
L 3513 0 
L 2938 0 
L 2938 2094 
Q 2938 2591 2744 2837 
Q 2550 3084 2163 3084 
Q 1697 3084 1428 2787 
Q 1159 2491 1159 1978 
L 1159 0 
L 581 0 
L 581 4863 
L 1159 4863 
L 1159 2956 
Q 1366 3272 1645 3428 
Q 1925 3584 2291 3584 
Q 2894 3584 3203 3211 
Q 3513 2838 3513 2113 
z
" transform="scale(0.015625)"/>
     </defs>
     <use xlink:href="#DejaVuSans-61"/>
     <use xlink:href="#DejaVuSans-6c" x="61.279297"/>
     <use xlink:href="#DejaVuSans-63" x="89.0625"/>
     <use xlink:href="#DejaVuSans-6f" x="144.042969"/>
     <use xlink:href="#DejaVuSans-68" x="205.224609"/>
     <use xlink:href="#DejaVuSans-6f" x="268.603516"/>
     <use xlink:href="#DejaVuSans-6c" x="329.785156"/>
    </g>
   </g>
   <g id="PathCollection_4">
    <g>
     <use xlink:href="#ma90549024c" x="357.454965" y="190.890625" style="fill: #ff7f0e; fill-opacity: 0.8; stroke: #ff7f0e; stroke-opacity: 0.8"/>
    </g>
   </g>
   <g id="text_17">
    <!-- alkane -->
    <g transform="translate(375.454965 193.515625)scale(0.1 -0.1)">
     <defs>
      <path id="DejaVuSans-6b" d="M 581 4863 
L 1159 4863 
L 1159 1991 
L 2875 3500 
L 3609 3500 
L 1753 1863 
L 3688 0 
L 2938 0 
L 1159 1709 
L 1159 0 
L 581 0 
L 581 4863 
z
" transform="scale(0.015625)"/>
      <path id="DejaVuSans-6e" d="M 3513 2113 
L 3513 0 
L 2938 0 
L 2938 2094 
Q 2938 2591 2744 2837 
Q 2550 3084 2163 3084 
Q 1697 3084 1428 2787 
Q 1159 2491 1159 1978 
L 1159 0 
L 581 0 
L 581 3500 
L 1159 3500 
L 1159 2956 
Q 1366 3272 1645 3428 
Q 1925 3584 2291 3584 
Q 2894 3584 3203 3211 
Q 3513 2838 3513 2113 
z
" transform="scale(0.015625)"/>
     </defs>
     <use xlink:href="#DejaVuSans-61"/>
     <use xlink:href="#DejaVuSans-6c" x="61.279297"/>
     <use xlink:href="#DejaVuSans-6b" x="89.0625"/>
     <use xlink:href="#DejaVuSans-61" x="145.222656"/>
     <use xlink:href="#DejaVuSans-6e" x="206.501953"/>
     <use xlink:href="#DejaVuSans-65" x="269.880859"/>
    </g>
   </g>
  </g>
 </g>
 <defs>
  <clipPath id="p89b92aa1eb">
   <rect x="47.1875" y="7.2" width="294.757778" height="307.4"/>
  </clipPath>
 </defs>
</svg>
