<?xml version="1.0" encoding="utf-8" standalone="no"?>
<!DOCTYPE svg PUBLIC "-//W3C//DTD SVG 1.1//EN"
  "http://www.w3.org/Graphics/SVG/1.1/DTD/svg11.dtd">
<svg xmlns:xlink="http://www.w3.org/1999/xlink" width="380.482813pt" height="248.518125pt" viewBox="0 0 380.482813 248.518125" xmlns="http://www.w3.org/2000/svg" version="1.1">
 <metadata>
  <rdf:RDF xmlns:dc="http://purl.org/dc/elements/1.1/" xmlns:cc="http://creativecommons.org/ns#" xmlns:rdf="http://www.w3.org/1999/02/22-rdf-syntax-ns#">
   <cc:Work>
    <dc:type rdf:resource="http://purl.org/dc/dcmitype/StillImage"/>
    <dc:date>2022-06-23T15:06:09.916106</dc:date>
    <dc:format>image/svg+xml</dc:format>
    <dc:creator>
     <cc:Agent>
      <dc:title>Matplotlib v3.5.2, https://matplotlib.org/</dc:title>
     </cc:Agent>
    </dc:creator>
   </cc:Work>
  </rdf:RDF>
 </metadata>
 <defs>
  <style type="text/css">*{stroke-linejoin: round; stroke-linecap: butt}</style>
 </defs>
 <g id="figure_1">
  <g id="patch_1">
   <path d="M -0 248.518125 
L 380.482813 248.518125 
L 380.482813 0 
L -0 0 
L -0 248.518125 
z
" style="fill: none"/>
  </g>
  <g id="axes_1">
   <g id="patch_2">
    <path d="M 38.482813 224.64 
L 373.282813 224.64 
L 373.282813 7.2 
L 38.482813 7.2 
z
" style="fill: #ffffff"/>
   </g>
   <g id="matplotlib.axis_1">
    <g id="xtick_1">
     <g id="line2d_1">
      <defs>
       <path id="md217bd9499" d="M 0 0 
L 0 3.5 
" style="stroke: #000000; stroke-width: 0.8"/>
      </defs>
      <g>
       <use xlink:href="#md217bd9499" x="53.395715" y="224.64" style="stroke: #000000; stroke-width: 0.8"/>
      </g>
     </g>
     <g id="text_1">
      <!-- 0 -->
      <g transform="translate(50.214465 239.238437)scale(0.1 -0.1)">
       <defs>
        <path id="DejaVuSans-30" d="M 2034 4250 
Q 1547 4250 1301 3770 
Q 1056 3291 1056 2328 
Q 1056 1369 1301 889 
Q 1547 409 2034 409 
Q 2525 409 2770 889 
Q 3016 1369 3016 2328 
Q 3016 3291 2770 3770 
Q 2525 4250 2034 4250 
z
M 2034 4750 
Q 2819 4750 3233 4129 
Q 3647 3509 3647 2328 
Q 3647 1150 3233 529 
Q 2819 -91 2034 -91 
Q 1250 -91 836 529 
Q 422 1150 422 2328 
Q 422 3509 836 4129 
Q 1250 4750 2034 4750 
z
" transform="scale(0.015625)"/>
       </defs>
       <use xlink:href="#DejaVuSans-30"/>
      </g>
     </g>
    </g>
    <g id="xtick_2">
     <g id="line2d_2">
      <g>
       <use xlink:href="#md217bd9499" x="101.933866" y="224.64" style="stroke: #000000; stroke-width: 0.8"/>
      </g>
     </g>
     <g id="text_2">
      <!-- 5 -->
      <g transform="translate(98.752616 239.238437)scale(0.1 -0.1)">
       <defs>
        <path id="DejaVuSans-35" d="M 691 4666 
L 3169 4666 
L 3169 4134 
L 1269 4134 
L 1269 2991 
Q 1406 3038 1543 3061 
Q 1681 3084 1819 3084 
Q 2600 3084 3056 2656 
Q 3513 2228 3513 1497 
Q 3513 744 3044 326 
Q 2575 -91 1722 -91 
Q 1428 -91 1123 -41 
Q 819 9 494 109 
L 494 744 
Q 775 591 1075 516 
Q 1375 441 1709 441 
Q 2250 441 2565 725 
Q 2881 1009 2881 1497 
Q 2881 1984 2565 2268 
Q 2250 2553 1709 2553 
Q 1456 2553 1204 2497 
Q 953 2441 691 2322 
L 691 4666 
z
" transform="scale(0.015625)"/>
       </defs>
       <use xlink:href="#DejaVuSans-35"/>
      </g>
     </g>
    </g>
    <g id="xtick_3">
     <g id="line2d_3">
      <g>
       <use xlink:href="#md217bd9499" x="150.472016" y="224.64" style="stroke: #000000; stroke-width: 0.8"/>
      </g>
     </g>
     <g id="text_3">
      <!-- 10 -->
      <g transform="translate(144.109516 239.238437)scale(0.1 -0.1)">
       <defs>
        <path id="DejaVuSans-31" d="M 794 531 
L 1825 531 
L 1825 4091 
L 703 3866 
L 703 4441 
L 1819 4666 
L 2450 4666 
L 2450 531 
L 3481 531 
L 3481 0 
L 794 0 
L 794 531 
z
" transform="scale(0.015625)"/>
       </defs>
       <use xlink:href="#DejaVuSans-31"/>
       <use xlink:href="#DejaVuSans-30" x="63.623047"/>
      </g>
     </g>
    </g>
    <g id="xtick_4">
     <g id="line2d_4">
      <g>
       <use xlink:href="#md217bd9499" x="199.010167" y="224.64" style="stroke: #000000; stroke-width: 0.8"/>
      </g>
     </g>
     <g id="text_4">
      <!-- 15 -->
      <g transform="translate(192.647667 239.238437)scale(0.1 -0.1)">
       <use xlink:href="#DejaVuSans-31"/>
       <use xlink:href="#DejaVuSans-35" x="63.623047"/>
      </g>
     </g>
    </g>
    <g id="xtick_5">
     <g id="line2d_5">
      <g>
       <use xlink:href="#md217bd9499" x="247.548318" y="224.64" style="stroke: #000000; stroke-width: 0.8"/>
      </g>
     </g>
     <g id="text_5">
      <!-- 20 -->
      <g transform="translate(241.185818 239.238437)scale(0.1 -0.1)">
       <defs>
        <path id="DejaVuSans-32" d="M 1228 531 
L 3431 531 
L 3431 0 
L 469 0 
L 469 531 
Q 828 903 1448 1529 
Q 2069 2156 2228 2338 
Q 2531 2678 2651 2914 
Q 2772 3150 2772 3378 
Q 2772 3750 2511 3984 
Q 2250 4219 1831 4219 
Q 1534 4219 1204 4116 
Q 875 4013 500 3803 
L 500 4441 
Q 881 4594 1212 4672 
Q 1544 4750 1819 4750 
Q 2544 4750 2975 4387 
Q 3406 4025 3406 3419 
Q 3406 3131 3298 2873 
Q 3191 2616 2906 2266 
Q 2828 2175 2409 1742 
Q 1991 1309 1228 531 
z
" transform="scale(0.015625)"/>
       </defs>
       <use xlink:href="#DejaVuSans-32"/>
       <use xlink:href="#DejaVuSans-30" x="63.623047"/>
      </g>
     </g>
    </g>
    <g id="xtick_6">
     <g id="line2d_6">
      <g>
       <use xlink:href="#md217bd9499" x="296.086468" y="224.64" style="stroke: #000000; stroke-width: 0.8"/>
      </g>
     </g>
     <g id="text_6">
      <!-- 25 -->
      <g transform="translate(289.723968 239.238437)scale(0.1 -0.1)">
       <use xlink:href="#DejaVuSans-32"/>
       <use xlink:href="#DejaVuSans-35" x="63.623047"/>
      </g>
     </g>
    </g>
    <g id="xtick_7">
     <g id="line2d_7">
      <g>
       <use xlink:href="#md217bd9499" x="344.624619" y="224.64" style="stroke: #000000; stroke-width: 0.8"/>
      </g>
     </g>
     <g id="text_7">
      <!-- 30 -->
      <g transform="translate(338.262119 239.238437)scale(0.1 -0.1)">
       <defs>
        <path id="DejaVuSans-33" d="M 2597 2516 
Q 3050 2419 3304 2112 
Q 3559 1806 3559 1356 
Q 3559 666 3084 287 
Q 2609 -91 1734 -91 
Q 1441 -91 1130 -33 
Q 819 25 488 141 
L 488 750 
Q 750 597 1062 519 
Q 1375 441 1716 441 
Q 2309 441 2620 675 
Q 2931 909 2931 1356 
Q 2931 1769 2642 2001 
Q 2353 2234 1838 2234 
L 1294 2234 
L 1294 2753 
L 1863 2753 
Q 2328 2753 2575 2939 
Q 2822 3125 2822 3475 
Q 2822 3834 2567 4026 
Q 2313 4219 1838 4219 
Q 1578 4219 1281 4162 
Q 984 4106 628 3988 
L 628 4550 
Q 988 4650 1302 4700 
Q 1616 4750 1894 4750 
Q 2613 4750 3031 4423 
Q 3450 4097 3450 3541 
Q 3450 3153 3228 2886 
Q 3006 2619 2597 2516 
z
" transform="scale(0.015625)"/>
       </defs>
       <use xlink:href="#DejaVuSans-33"/>
       <use xlink:href="#DejaVuSans-30" x="63.623047"/>
      </g>
     </g>
    </g>
   </g>
   <g id="matplotlib.axis_2">
    <g id="ytick_1">
     <g id="line2d_8">
      <defs>
       <path id="maa85d3cd5f" d="M 0 0 
L -3.5 0 
" style="stroke: #000000; stroke-width: 0.8"/>
      </defs>
      <g>
       <use xlink:href="#maa85d3cd5f" x="38.482813" y="193.108326" style="stroke: #000000; stroke-width: 0.8"/>
      </g>
     </g>
     <g id="text_8">
      <!-- −1.0 -->
      <g transform="translate(7.2 196.907545)scale(0.1 -0.1)">
       <defs>
        <path id="DejaVuSans-2212" d="M 678 2272 
L 4684 2272 
L 4684 1741 
L 678 1741 
L 678 2272 
z
" transform="scale(0.015625)"/>
        <path id="DejaVuSans-2e" d="M 684 794 
L 1344 794 
L 1344 0 
L 684 0 
L 684 794 
z
" transform="scale(0.015625)"/>
       </defs>
       <use xlink:href="#DejaVuSans-2212"/>
       <use xlink:href="#DejaVuSans-31" x="83.789062"/>
       <use xlink:href="#DejaVuSans-2e" x="147.412109"/>
       <use xlink:href="#DejaVuSans-30" x="179.199219"/>
      </g>
     </g>
    </g>
    <g id="ytick_2">
     <g id="line2d_9">
      <g>
       <use xlink:href="#maa85d3cd5f" x="38.482813" y="154.713965" style="stroke: #000000; stroke-width: 0.8"/>
      </g>
     </g>
     <g id="text_9">
      <!-- −0.5 -->
      <g transform="translate(7.2 158.513184)scale(0.1 -0.1)">
       <use xlink:href="#DejaVuSans-2212"/>
       <use xlink:href="#DejaVuSans-30" x="83.789062"/>
       <use xlink:href="#DejaVuSans-2e" x="147.412109"/>
       <use xlink:href="#DejaVuSans-35" x="179.199219"/>
      </g>
     </g>
    </g>
    <g id="ytick_3">
     <g id="line2d_10">
      <g>
       <use xlink:href="#maa85d3cd5f" x="38.482813" y="116.319605" style="stroke: #000000; stroke-width: 0.8"/>
      </g>
     </g>
     <g id="text_10">
      <!-- 0.0 -->
      <g transform="translate(15.579688 120.118823)scale(0.1 -0.1)">
       <use xlink:href="#DejaVuSans-30"/>
       <use xlink:href="#DejaVuSans-2e" x="63.623047"/>
       <use xlink:href="#DejaVuSans-30" x="95.410156"/>
      </g>
     </g>
    </g>
    <g id="ytick_4">
     <g id="line2d_11">
      <g>
       <use xlink:href="#maa85d3cd5f" x="38.482813" y="77.925244" style="stroke: #000000; stroke-width: 0.8"/>
      </g>
     </g>
     <g id="text_11">
      <!-- 0.5 -->
      <g transform="translate(15.579688 81.724463)scale(0.1 -0.1)">
       <use xlink:href="#DejaVuSans-30"/>
       <use xlink:href="#DejaVuSans-2e" x="63.623047"/>
       <use xlink:href="#DejaVuSans-35" x="95.410156"/>
      </g>
     </g>
    </g>
    <g id="ytick_5">
     <g id="line2d_12">
      <g>
       <use xlink:href="#maa85d3cd5f" x="38.482813" y="39.530883" style="stroke: #000000; stroke-width: 0.8"/>
      </g>
     </g>
     <g id="text_12">
      <!-- 1.0 -->
      <g transform="translate(15.579688 43.330102)scale(0.1 -0.1)">
       <use xlink:href="#DejaVuSans-31"/>
       <use xlink:href="#DejaVuSans-2e" x="63.623047"/>
       <use xlink:href="#DejaVuSans-30" x="95.410156"/>
      </g>
     </g>
    </g>
   </g>
   <g id="line2d_13">
    <path d="M 53.700994 110.210331 
L 54.006274 99.013892 
L 54.311553 107.672724 
L 54.616833 103.593952 
L 54.922112 104.717865 
L 55.227392 101.185181 
L 55.532671 108.007055 
L 55.837951 111.846274 
L 56.44851 102.011231 
L 57.364348 67.128425 
L 57.669627 74.229129 
L 57.974907 85.002859 
L 58.280186 80.834378 
L 58.585466 72.20787 
L 58.890745 67.245168 
L 59.196025 67.715512 
L 59.501304 74.021507 
L 59.806584 70.667504 
L 60.111863 69.126869 
L 60.417143 66.684007 
L 60.722422 61.154206 
L 61.027702 70.867282 
L 61.332981 55.157064 
L 61.638261 52.12777 
L 61.94354 37.253531 
L 62.24882 43.203285 
L 62.554099 46.96279 
L 62.859379 49.282886 
L 63.164658 53.502138 
L 63.775217 66.682043 
L 64.385776 40.786624 
L 64.691055 43.106387 
L 64.996335 51.816667 
L 65.301614 50.290518 
L 65.606894 36.921176 
L 65.912173 30.574103 
L 66.217453 31.918864 
L 66.522732 43.0533 
L 67.438571 34.916224 
L 67.74385 35.780445 
L 68.04913 41.367262 
L 68.354409 39.30069 
L 68.659689 45.667501 
L 68.964968 42.945396 
L 69.270248 45.026249 
L 69.575527 51.027197 
L 70.186086 31.366325 
L 70.491365 19.126983 
L 70.796645 22.315633 
L 71.101924 21.638408 
L 71.407204 23.512266 
L 72.017763 38.049205 
L 72.323042 37.479282 
L 72.628322 35.64392 
L 73.238881 57.602452 
L 73.54416 56.512863 
L 73.84944 43.659387 
L 74.154719 49.325745 
L 74.459999 62.379961 
L 74.765278 69.495138 
L 75.070558 67.342041 
L 75.375837 52.255228 
L 75.681117 45.37076 
L 75.986396 48.761077 
L 76.596955 58.396076 
L 76.902234 61.848825 
L 77.512793 88.013723 
L 77.818073 86.750315 
L 78.123352 74.832588 
L 78.428632 69.306323 
L 78.733911 66.22354 
L 79.039191 66.609606 
L 79.34447 64.367316 
L 80.260309 103.120168 
L 80.565588 98.313693 
L 80.870868 99.852079 
L 81.176147 105.634439 
L 81.481427 108.65699 
L 81.786706 99.726263 
L 82.091985 104.63215 
L 82.397265 97.733054 
L 82.702544 107.339817 
L 83.007824 97.931062 
L 83.313103 111.915389 
L 83.618383 104.35192 
L 83.923662 118.971607 
L 84.228942 110.76055 
L 84.534221 124.840809 
L 84.839501 123.393171 
L 85.14478 137.588773 
L 85.45006 130.276533 
L 85.755339 129.610706 
L 86.060619 120.837525 
L 86.365898 123.685466 
L 86.671178 123.659671 
L 86.976457 128.197365 
L 87.281737 143.347827 
L 87.587016 151.891271 
L 87.892295 156.070747 
L 88.197575 146.516413 
L 88.502854 144.657135 
L 88.808134 147.508646 
L 89.113413 148.186657 
L 89.418693 153.25549 
L 89.723972 148.830184 
L 90.029252 149.453257 
L 90.334531 154.670454 
L 90.639811 154.929172 
L 90.94509 160.726971 
L 91.25037 150.964296 
L 91.555649 155.713501 
L 91.860929 169.517843 
L 92.166208 175.014148 
L 92.471488 184.60656 
L 92.776767 182.549616 
L 93.082047 185.730429 
L 93.387326 182.651326 
L 93.692606 177.309056 
L 93.997885 183.448606 
L 94.303164 187.061574 
L 94.608444 196.512168 
L 94.913723 190.122797 
L 95.219003 194.546151 
L 95.524282 196.433656 
L 95.829562 196.331967 
L 96.134841 190.841631 
L 96.440121 178.815152 
L 97.05068 175.247479 
L 97.355959 176.645932 
L 97.661239 177.134196 
L 98.271798 197.149715 
L 98.577077 203.633473 
L 98.882357 190.437756 
L 99.187636 186.959158 
L 99.492916 185.897135 
L 99.798195 191.560508 
L 100.408754 187.029609 
L 100.714033 195.514903 
L 101.019313 200.553587 
L 101.324592 196.176414 
L 101.935151 170.142446 
L 102.240431 172.94922 
L 102.85099 196.325595 
L 103.156269 189.684171 
L 103.461549 180.059165 
L 103.766828 166.89676 
L 104.072108 178.488248 
L 104.377387 175.516452 
L 104.682667 181.722557 
L 104.987946 173.587765 
L 105.293226 182.935373 
L 105.598505 182.75715 
L 105.903785 190.347329 
L 106.819623 164.830546 
L 107.124902 165.859505 
L 107.430182 173.311865 
L 107.735461 175.582379 
L 108.6513 141.446849 
L 108.956579 152.47989 
L 109.261859 146.490455 
L 109.567138 147.401991 
L 109.872418 136.719 
L 110.177697 142.514001 
L 110.482977 139.387353 
L 110.788256 145.047222 
L 111.093536 147.582269 
L 111.398815 151.936825 
L 112.619933 120.267611 
L 112.925212 111.711259 
L 113.230492 118.827124 
L 113.535771 131.968396 
L 113.841051 134.868264 
L 114.45161 104.52022 
L 114.756889 102.731821 
L 115.062169 107.415303 
L 115.367448 115.315599 
L 115.672728 107.235986 
L 115.978007 110.457848 
L 116.283287 110.159917 
L 116.588566 122.543876 
L 116.893846 113.455527 
L 117.199125 99.39627 
L 117.504405 92.111198 
L 117.809684 96.086624 
L 118.114963 95.582696 
L 118.725522 72.412857 
L 119.030802 75.565804 
L 119.336081 76.64591 
L 119.641361 81.488128 
L 119.94664 76.154141 
L 120.25192 85.212291 
L 120.557199 76.332698 
L 120.862479 77.379683 
L 121.167758 63.150572 
L 121.473038 64.217854 
L 121.778317 60.047712 
L 122.083597 67.957943 
L 122.388876 56.463565 
L 122.694156 62.41918 
L 122.999435 47.577979 
L 123.304715 62.037257 
L 123.609994 57.095712 
L 123.915274 69.291744 
L 124.220553 63.662798 
L 125.136391 31.783523 
L 125.441671 31.377452 
L 125.74695 28.023885 
L 126.05223 37.281483 
L 126.662789 40.086834 
L 126.968068 37.389182 
L 127.273348 38.585972 
L 127.578627 49.251406 
L 127.883907 45.54599 
L 128.189186 45.116414 
L 128.494466 42.56493 
L 128.799745 38.96016 
L 129.105025 33.426997 
L 129.410304 18.735955 
L 129.715584 17.083636 
L 130.326142 34.224988 
L 130.936701 37.615194 
L 131.241981 32.160921 
L 131.54726 40.642861 
L 131.85254 41.288515 
L 132.157819 53.461549 
L 132.768378 45.312574 
L 133.073658 45.979782 
L 133.378937 45.324221 
L 133.684217 43.497261 
L 133.989496 40.024544 
L 134.600055 59.331595 
L 134.905335 54.773899 
L 135.210614 40.948794 
L 135.515894 35.009136 
L 135.821173 36.01833 
L 136.126453 40.492051 
L 136.431732 53.500121 
L 136.737011 60.740903 
L 137.042291 71.271006 
L 137.65285 61.732664 
L 137.958129 56.91768 
L 138.263409 61.311491 
L 138.568688 64.099207 
L 138.873968 64.549165 
L 139.179247 56.086584 
L 139.484527 64.982427 
L 139.789806 63.595717 
L 140.095086 77.543331 
L 140.400365 85.603165 
L 140.705645 99.787696 
L 141.010924 94.862184 
L 141.316204 86.851765 
L 141.621483 93.595524 
L 141.926763 89.865625 
L 142.232042 94.816122 
L 142.537321 87.855355 
L 142.842601 104.799975 
L 143.14788 108.89512 
L 143.45316 118.141463 
L 143.758439 108.475963 
L 144.063719 116.522504 
L 144.368998 111.63179 
L 144.674278 115.913349 
L 144.979557 114.639409 
L 145.284837 122.214769 
L 145.590116 124.498948 
L 145.895396 124.272338 
L 146.200675 116.161054 
L 146.811234 131.686708 
L 147.421793 147.327557 
L 147.727073 150.874615 
L 148.032352 160.109187 
L 148.337632 162.731111 
L 148.642911 150.036503 
L 148.94819 150.614679 
L 149.25347 151.562801 
L 149.558749 167.841353 
L 149.864029 162.226979 
L 150.169308 154.233394 
L 150.474588 150.249058 
L 150.779867 150.058592 
L 151.085147 162.163756 
L 151.390426 158.703187 
L 151.695706 173.717298 
L 152.000985 164.962259 
L 152.306265 168.712822 
L 152.611544 168.385092 
L 152.916824 168.616125 
L 153.222103 169.823506 
L 153.527383 168.753288 
L 153.832662 172.315036 
L 154.137942 173.504459 
L 154.443221 175.883536 
L 154.7485 186.385171 
L 155.05378 191.907926 
L 155.359059 191.272877 
L 155.664339 195.689695 
L 155.969618 197.628782 
L 156.274898 201.458959 
L 156.885457 197.285665 
L 157.190736 195.992225 
L 157.496016 189.664658 
L 157.801295 197.595786 
L 158.106575 192.990788 
L 158.411854 200.720108 
L 158.717134 196.628343 
L 159.022413 194.948093 
L 159.327693 196.440516 
L 159.632972 186.494436 
L 159.938252 184.97174 
L 160.243531 186.323049 
L 160.54881 186.483851 
L 160.85409 193.795649 
L 161.159369 189.09718 
L 161.769928 193.623812 
L 162.075208 198.98835 
L 162.380487 198.149831 
L 162.685767 199.47699 
L 162.991046 190.681424 
L 163.296326 200.370429 
L 163.601605 195.753375 
L 164.212164 174.801552 
L 164.517444 162.937206 
L 164.822723 168.63929 
L 165.128003 176.528703 
L 165.433282 177.207489 
L 165.738562 182.309404 
L 166.043841 168.895652 
L 166.349121 170.861081 
L 166.6544 166.553273 
L 166.959679 168.446429 
L 167.264959 168.3351 
L 167.570238 171.153421 
L 168.180797 171.980552 
L 168.791356 164.45549 
L 169.096636 166.934556 
L 169.401915 155.734009 
L 169.707195 158.046748 
L 170.012474 155.078457 
L 170.317754 149.98141 
L 170.623033 141.23711 
L 170.928313 139.697751 
L 171.233592 152.53959 
L 171.538872 149.676509 
L 171.844151 136.239124 
L 172.149431 131.405716 
L 172.45471 140.845368 
L 173.370548 130.825415 
L 173.675828 131.720329 
L 174.286387 109.375881 
L 174.591666 104.51645 
L 174.896946 108.562905 
L 175.507505 131.732684 
L 175.812784 127.034432 
L 176.118064 117.671303 
L 176.423343 100.548439 
L 177.033902 81.155276 
L 177.339182 83.299063 
L 177.644461 93.735329 
L 177.949741 90.748532 
L 178.25502 94.432528 
L 178.5603 84.851028 
L 178.865579 87.83085 
L 179.170858 89.142716 
L 179.476138 98.063531 
L 179.781417 95.054732 
L 180.086697 84.468739 
L 180.391976 66.422319 
L 181.002535 75.47178 
L 181.307815 73.581703 
L 181.613094 68.804554 
L 181.918374 53.604195 
L 182.223653 61.201922 
L 182.528933 62.961997 
L 182.834212 74.773847 
L 183.139492 71.66973 
L 183.444771 66.83699 
L 183.750051 57.61149 
L 184.36061 50.926839 
L 184.665889 53.058774 
L 184.971168 57.853257 
L 185.276448 50.45766 
L 185.581727 52.883981 
L 185.887007 50.406215 
L 186.192286 53.253403 
L 186.497566 51.814457 
L 186.802845 46.140247 
L 187.108125 46.805725 
L 187.413404 49.319791 
L 187.718684 43.829758 
L 188.023963 45.773547 
L 188.329243 30.871819 
L 188.634522 31.486755 
L 189.550361 46.4372 
L 189.85564 35.452794 
L 190.16092 42.721077 
L 190.466199 34.658959 
L 190.771478 30.568563 
L 191.076758 33.365298 
L 191.382037 37.763066 
L 191.687317 37.98297 
L 191.992596 24.529446 
L 192.297876 22.748537 
L 192.908435 34.239754 
L 193.518994 31.937162 
L 194.129553 38.835153 
L 194.434832 52.05305 
L 194.740112 57.859666 
L 195.045391 72.88364 
L 195.350671 65.143307 
L 195.65595 62.662846 
L 195.96123 52.595614 
L 196.266509 59.826996 
L 196.571789 51.074319 
L 196.877068 47.422697 
L 197.182347 37.432392 
L 197.487627 42.157335 
L 197.792906 42.872411 
L 198.403465 68.144657 
L 198.708745 76.320072 
L 199.014024 79.545588 
L 199.319304 81.405403 
L 199.624583 85.813945 
L 199.929863 79.160218 
L 200.235142 77.220656 
L 200.540422 82.84675 
L 200.845701 92.178752 
L 201.150981 90.13183 
L 201.45626 85.399629 
L 201.76154 86.017141 
L 202.066819 88.657087 
L 202.372099 96.849885 
L 202.677378 98.971647 
L 202.982657 107.940698 
L 203.593216 116.204981 
L 203.898496 107.819297 
L 204.203775 108.686312 
L 204.509055 105.833876 
L 204.814334 112.486983 
L 205.119614 108.0534 
L 205.424893 100.020839 
L 205.730173 106.871722 
L 206.035452 110.92301 
L 206.340732 123.599338 
L 206.646011 119.492856 
L 207.25657 136.381284 
L 207.56185 136.55212 
L 207.867129 129.72512 
L 208.172409 132.18576 
L 208.477688 133.083208 
L 208.782968 144.827079 
L 209.088247 136.101892 
L 209.393526 141.212702 
L 210.004085 144.65971 
L 210.309365 146.715461 
L 210.614644 134.942119 
L 210.919924 147.049359 
L 212.141042 168.938102 
L 212.446321 180.943354 
L 212.751601 166.672167 
L 213.05688 166.397004 
L 213.36216 161.651631 
L 213.972719 173.231653 
L 214.277998 165.478316 
L 214.583278 169.778422 
L 214.888557 170.043857 
L 215.499116 189.919398 
L 215.804395 185.888784 
L 216.109675 189.382099 
L 216.414954 175.981821 
L 216.720234 186.80999 
L 217.025513 176.870695 
L 217.330793 182.297941 
L 217.636072 182.936708 
L 217.941352 180.891692 
L 218.246631 177.324271 
L 218.551911 165.354254 
L 218.85719 174.56111 
L 219.16247 178.948568 
L 219.467749 189.183088 
L 219.773029 192.596123 
L 220.078308 204.165779 
L 220.688867 214.756364 
L 220.994147 214.570971 
L 221.604705 198.742462 
L 221.909985 184.396417 
L 222.215264 183.985439 
L 222.520544 188.302953 
L 222.825823 187.411535 
L 223.131103 178.360054 
L 223.436382 177.755086 
L 223.741662 184.791989 
L 224.046941 196.474597 
L 224.352221 200.576793 
L 224.6575 193.018896 
L 224.96278 194.481121 
L 225.268059 181.497873 
L 225.573339 186.365897 
L 225.878618 182.998332 
L 226.183898 190.935768 
L 226.489177 183.135215 
L 227.099736 156.449849 
L 227.405015 160.023665 
L 227.710295 166.208159 
L 228.015574 167.35723 
L 228.320854 171.997882 
L 228.626133 171.827715 
L 228.931413 177.947704 
L 229.236692 179.942867 
L 229.541972 172.99373 
L 229.847251 159.378513 
L 230.152531 157.487215 
L 230.45781 151.299438 
L 230.76309 152.1056 
L 231.068369 141.644318 
L 231.373649 155.666415 
L 231.678928 157.539618 
L 231.984208 160.30762 
L 232.289487 151.643382 
L 232.594767 148.72896 
L 232.900046 149.888372 
L 233.205325 143.574648 
L 233.510605 140.305817 
L 233.815884 125.272432 
L 234.121164 125.810919 
L 234.426443 117.700691 
L 234.731723 116.304113 
L 235.037002 110.685606 
L 235.342282 115.860221 
L 235.952841 119.186225 
L 236.25812 116.70426 
L 236.5634 122.837825 
L 236.868679 119.69214 
L 237.479238 107.962372 
L 237.784518 110.280359 
L 238.089797 106.993411 
L 238.395077 97.351967 
L 238.700356 82.189768 
L 239.005636 93.853831 
L 239.310915 95.40379 
L 239.616194 97.584955 
L 239.921474 81.274212 
L 240.532033 70.481197 
L 240.837312 82.577448 
L 241.142592 87.063069 
L 241.447871 96.135087 
L 241.753151 94.061002 
L 242.05843 96.049947 
L 242.36371 80.70616 
L 242.974269 66.405318 
L 243.279548 80.169028 
L 243.584828 81.854338 
L 244.500666 45.327337 
L 244.805946 52.054543 
L 245.416504 49.273399 
L 245.721784 47.112911 
L 246.027063 48.758899 
L 246.332343 58.838729 
L 246.942902 63.6111 
L 247.248181 53.225013 
L 247.553461 51.49775 
L 247.85874 43.380343 
L 248.16402 53.450546 
L 248.469299 39.827218 
L 248.774579 39.757282 
L 249.079858 38.44113 
L 249.385138 52.081546 
L 249.690417 48.234839 
L 249.995697 46.256408 
L 250.300976 33.145745 
L 250.606256 33.122727 
L 250.911535 20.518645 
L 251.216815 22.241902 
L 251.522094 19.037332 
L 252.132653 39.927027 
L 252.437932 40.747947 
L 252.743212 36.008612 
L 253.048491 36.076235 
L 253.353771 42.024693 
L 253.65905 43.06777 
L 253.96433 34.276916 
L 254.269609 31.068264 
L 254.574889 39.857831 
L 254.880168 40.861187 
L 255.185448 52.85077 
L 255.490727 53.250344 
L 255.796007 56.854201 
L 256.101286 53.923463 
L 256.406566 39.587334 
L 256.711845 36.977006 
L 257.017125 43.185733 
L 257.627683 49.240511 
L 257.932963 41.409867 
L 258.543522 42.392804 
L 258.848801 44.086404 
L 259.76464 83.470107 
L 260.069919 75.583011 
L 260.375199 73.838135 
L 260.680478 63.681405 
L 260.985758 73.189521 
L 261.291037 71.254257 
L 261.596317 79.500228 
L 262.206876 89.154719 
L 262.512155 85.368068 
L 263.122714 70.922454 
L 263.427993 73.893073 
L 263.733273 80.754829 
L 264.038552 93.558871 
L 264.343832 100.420195 
L 264.649111 95.216926 
L 264.954391 84.33825 
L 265.25967 80.857926 
L 265.56495 91.706861 
L 265.870229 95.748544 
L 266.175509 103.233305 
L 266.480788 100.185772 
L 266.786068 103.995538 
L 267.091347 112.335937 
L 267.396627 113.195133 
L 267.701906 114.791974 
L 268.007186 110.1683 
L 268.312465 126.970078 
L 268.617745 129.649444 
L 268.923024 128.654286 
L 269.228304 128.07351 
L 269.533583 130.338896 
L 269.838862 146.688946 
L 270.144142 151.698018 
L 270.449421 152.952227 
L 271.05998 147.075076 
L 271.36526 155.564442 
L 271.975819 164.665346 
L 272.281098 161.623701 
L 272.586378 151.930948 
L 272.891657 147.277741 
L 273.196937 153.489595 
L 273.502216 168.121352 
L 274.112775 159.31885 
L 274.418055 161.870697 
L 275.028614 187.812788 
L 275.333893 178.632384 
L 275.944452 168.971025 
L 276.555011 194.459283 
L 276.86029 191.315389 
L 277.16557 177.264521 
L 277.470849 178.055532 
L 277.776129 184.737062 
L 278.081408 197.745805 
L 278.386688 181.673992 
L 278.691967 182.423666 
L 278.997247 170.432621 
L 279.302526 185.305788 
L 279.607806 190.580499 
L 279.913085 205.095789 
L 280.218365 208.831235 
L 280.523644 201.128212 
L 280.828924 196.306149 
L 281.134203 184.269678 
L 281.744762 181.293599 
L 282.355321 187.233611 
L 282.6606 186.938121 
L 282.96588 189.080855 
L 283.271159 189.689191 
L 283.576439 182.647427 
L 283.881718 180.463129 
L 284.186998 190.337942 
L 284.492277 194.711717 
L 284.797557 196.408548 
L 285.408116 188.483101 
L 286.018675 172.945234 
L 286.323954 173.855798 
L 286.629234 171.80842 
L 286.934513 166.754275 
L 287.239793 173.645474 
L 287.545072 185.002453 
L 287.850351 190.041892 
L 288.155631 180.782848 
L 288.46091 175.847312 
L 288.76619 168.120253 
L 289.071469 171.569204 
L 289.376749 167.341353 
L 289.987308 175.073554 
L 290.292587 169.056463 
L 290.903146 164.782312 
L 291.208426 172.664385 
L 291.513705 172.593765 
L 291.818985 172.285873 
L 292.124264 158.635997 
L 292.429544 156.976843 
L 292.734823 153.169292 
L 293.040103 158.884602 
L 293.345382 160.321922 
L 293.650662 152.304314 
L 293.955941 153.660262 
L 294.5665 140.708815 
L 295.177059 130.263718 
L 295.482338 137.409717 
L 295.787618 129.571171 
L 296.092897 139.714238 
L 296.703456 117.772931 
L 297.008736 107.085594 
L 297.619295 101.786843 
L 297.924574 107.662334 
L 298.229854 117.254099 
L 298.535133 116.410613 
L 299.145692 102.333487 
L 299.450972 98.722679 
L 299.756251 87.14032 
L 300.06153 83.544078 
L 300.36681 96.554939 
L 300.977369 106.943828 
L 301.282648 93.448434 
L 301.587928 94.344653 
L 301.893207 92.113468 
L 302.198487 100.409257 
L 302.503766 101.06661 
L 302.809046 84.483761 
L 303.114325 82.775382 
L 303.419605 70.3382 
L 303.724884 77.446274 
L 304.030164 75.829091 
L 304.335443 72.76187 
L 304.640723 60.063126 
L 304.946002 55.422485 
L 305.251282 58.008675 
L 305.556561 61.86329 
L 305.86184 53.091861 
L 306.16712 59.527071 
L 306.472399 55.178339 
L 306.777679 54.745549 
L 307.082958 47.948001 
L 307.388238 55.477858 
L 307.693517 52.17736 
L 308.304076 57.013666 
L 308.609356 67.479402 
L 308.914635 61.377423 
L 309.219915 57.990437 
L 309.525194 48.236687 
L 310.135753 37.652513 
L 310.441033 35.125473 
L 310.746312 34.655939 
L 311.051592 33.272875 
L 311.356871 39.46815 
L 311.662151 36.947284 
L 311.96743 42.698134 
L 312.272709 33.475933 
L 312.577989 31.734007 
L 312.883268 18.674219 
L 313.188548 17.36715 
L 313.493827 18.974971 
L 314.104386 42.43465 
L 314.409666 41.463022 
L 314.714945 35.130023 
L 315.020225 31.622342 
L 315.630784 56.587624 
L 315.936063 64.641022 
L 316.241343 60.344972 
L 316.546622 52.081593 
L 316.851902 50.007411 
L 317.157181 49.656798 
L 317.462461 52.369357 
L 317.76774 57.54961 
L 318.073019 67.782424 
L 318.378299 64.447151 
L 318.683578 52.873254 
L 318.988858 51.336997 
L 319.599417 72.034362 
L 319.904696 73.729544 
L 320.515255 54.743243 
L 320.820535 57.815122 
L 321.125814 59.315677 
L 321.431094 71.547602 
L 321.736373 67.861067 
L 322.346932 76.554334 
L 322.957491 84.878797 
L 323.262771 76.913781 
L 323.56805 74.754191 
L 324.178609 80.478662 
L 324.483888 77.051783 
L 324.789168 82.681775 
L 325.094447 85.093366 
L 325.399727 93.784566 
L 325.705006 91.580848 
L 326.010286 97.23724 
L 326.620845 111.649165 
L 327.536683 99.818397 
L 327.841963 108.398887 
L 328.147242 101.586909 
L 328.452522 103.326468 
L 328.757801 112.069934 
L 329.063081 116.048528 
L 329.36836 123.088742 
L 329.67364 113.577862 
L 329.978919 119.781412 
L 330.284198 117.709006 
L 330.589478 130.505271 
L 330.894757 133.096218 
L 331.200037 134.252933 
L 331.505316 129.100166 
L 331.810596 134.382438 
L 332.115875 136.833823 
L 332.421155 147.833635 
L 332.726434 150.990257 
L 333.031714 166.318911 
L 333.947552 137.495392 
L 334.252832 140.230626 
L 334.558111 157.407673 
L 334.863391 163.672408 
L 335.16867 175.831067 
L 335.47395 160.929289 
L 335.779229 164.04464 
L 336.084508 158.326624 
L 336.389788 162.823786 
L 336.695067 169.383113 
L 337.000347 170.296923 
L 337.305626 184.021606 
L 337.610906 178.026902 
L 338.221465 179.284725 
L 338.832024 208.725123 
L 339.442583 189.19109 
L 339.747862 186.083131 
L 340.053142 185.719237 
L 340.358421 192.067342 
L 340.663701 192.411602 
L 340.96898 197.508288 
L 341.27426 193.080616 
L 341.579539 180.99282 
L 341.884819 181.947963 
L 342.495377 201.639376 
L 343.105936 191.936151 
L 343.411216 182.994373 
L 343.716495 183.527681 
L 344.021775 185.204495 
L 344.327054 201.367826 
L 344.632334 203.041909 
L 344.937613 199.379269 
L 345.242893 183.332395 
L 345.548172 181.568258 
L 346.158731 185.622415 
L 346.464011 183.317447 
L 346.76929 171.49267 
L 347.07457 174.751573 
L 347.379849 179.647456 
L 347.990408 198.256217 
L 348.600967 180.739138 
L 348.906246 163.801723 
L 349.211526 162.567165 
L 349.516805 168.935039 
L 349.822085 172.903948 
L 350.127364 181.3876 
L 350.432644 169.849151 
L 350.737923 165.316626 
L 351.348482 168.624831 
L 351.653762 167.079847 
L 351.959041 161.14868 
L 352.264321 163.745203 
L 352.5696 157.89282 
L 352.87488 157.639642 
L 353.180159 145.719966 
L 353.485439 146.667541 
L 354.095998 143.790798 
L 354.401277 144.101864 
L 354.706556 145.394014 
L 355.011836 142.398783 
L 355.317115 145.349086 
L 355.622395 139.361629 
L 355.927674 145.87307 
L 356.232954 144.578757 
L 356.538233 141.754594 
L 356.843513 134.005292 
L 357.148792 134.104407 
L 357.454072 129.971372 
L 357.759351 129.194381 
L 358.064631 112.367595 
L 358.064631 112.367595 
" clip-path="url(#p041b156ad4)" style="fill: none; stroke: #1f77b4; stroke-width: 1.5; stroke-linecap: square"/>
   </g>
   <g id="patch_3">
    <path d="M 38.482813 224.64 
L 38.482813 7.2 
" style="fill: none; stroke: #000000; stroke-width: 0.8; stroke-linejoin: miter; stroke-linecap: square"/>
   </g>
   <g id="patch_4">
    <path d="M 373.282813 224.64 
L 373.282813 7.2 
" style="fill: none; stroke: #000000; stroke-width: 0.8; stroke-linejoin: miter; stroke-linecap: square"/>
   </g>
   <g id="patch_5">
    <path d="M 38.482813 224.64 
L 373.282813 224.64 
" style="fill: none; stroke: #000000; stroke-width: 0.8; stroke-linejoin: miter; stroke-linecap: square"/>
   </g>
   <g id="patch_6">
    <path d="M 38.482813 7.2 
L 373.282813 7.2 
" style="fill: none; stroke: #000000; stroke-width: 0.8; stroke-linejoin: miter; stroke-linecap: square"/>
   </g>
  </g>
 </g>
 <defs>
  <clipPath id="p041b156ad4">
   <rect x="38.482813" y="7.2" width="334.8" height="217.44"/>
  </clipPath>
 </defs>
</svg>
