<?xml version="1.0" encoding="utf-8" standalone="no"?>
<!DOCTYPE svg PUBLIC "-//W3C//DTD SVG 1.1//EN"
  "http://www.w3.org/Graphics/SVG/1.1/DTD/svg11.dtd">
<svg xmlns:xlink="http://www.w3.org/1999/xlink" width="729.277116pt" height="386.55625pt" viewBox="0 0 729.277116 386.55625" xmlns="http://www.w3.org/2000/svg" version="1.1">
 <metadata>
  <rdf:RDF xmlns:dc="http://purl.org/dc/elements/1.1/" xmlns:cc="http://creativecommons.org/ns#" xmlns:rdf="http://www.w3.org/1999/02/22-rdf-syntax-ns#">
   <cc:Work>
    <dc:type rdf:resource="http://purl.org/dc/dcmitype/StillImage"/>
    <dc:date>2022-07-29T15:06:30.306430</dc:date>
    <dc:format>image/svg+xml</dc:format>
    <dc:creator>
     <cc:Agent>
      <dc:title>Matplotlib v3.5.2, https://matplotlib.org/</dc:title>
     </cc:Agent>
    </dc:creator>
   </cc:Work>
  </rdf:RDF>
 </metadata>
 <defs>
  <style type="text/css">*{stroke-linejoin: round; stroke-linecap: butt}</style>
 </defs>
 <g id="figure_1">
  <g id="patch_1">
   <path d="M 0 386.55625 
L 729.277116 386.55625 
L 729.277116 0 
L 0 0 
L 0 386.55625 
z
" style="fill: none"/>
  </g>
  <g id="axes_1">
   <g id="patch_2">
    <path d="M 44.845313 348.478125 
L 349.208949 348.478125 
L 349.208949 22.318125 
L 44.845313 22.318125 
z
" style="fill: #ffffff"/>
   </g>
   <g id="matplotlib.axis_1">
    <g id="xtick_1">
     <g id="line2d_1">
      <defs>
       <path id="mba25c068ff" d="M 0 0 
L 0 3.5 
" style="stroke: #000000; stroke-width: 0.8"/>
      </defs>
      <g>
       <use xlink:href="#mba25c068ff" x="347.297002" y="348.478125" style="stroke: #000000; stroke-width: 0.8"/>
      </g>
     </g>
     <g id="text_1">
      <!-- 500 -->
      <g transform="translate(337.753252 363.076562)scale(0.1 -0.1)">
       <defs>
        <path id="DejaVuSans-35" d="M 691 4666 
L 3169 4666 
L 3169 4134 
L 1269 4134 
L 1269 2991 
Q 1406 3038 1543 3061 
Q 1681 3084 1819 3084 
Q 2600 3084 3056 2656 
Q 3513 2228 3513 1497 
Q 3513 744 3044 326 
Q 2575 -91 1722 -91 
Q 1428 -91 1123 -41 
Q 819 9 494 109 
L 494 744 
Q 775 591 1075 516 
Q 1375 441 1709 441 
Q 2250 441 2565 725 
Q 2881 1009 2881 1497 
Q 2881 1984 2565 2268 
Q 2250 2553 1709 2553 
Q 1456 2553 1204 2497 
Q 953 2441 691 2322 
L 691 4666 
z
" transform="scale(0.015625)"/>
        <path id="DejaVuSans-30" d="M 2034 4250 
Q 1547 4250 1301 3770 
Q 1056 3291 1056 2328 
Q 1056 1369 1301 889 
Q 1547 409 2034 409 
Q 2525 409 2770 889 
Q 3016 1369 3016 2328 
Q 3016 3291 2770 3770 
Q 2525 4250 2034 4250 
z
M 2034 4750 
Q 2819 4750 3233 4129 
Q 3647 3509 3647 2328 
Q 3647 1150 3233 529 
Q 2819 -91 2034 -91 
Q 1250 -91 836 529 
Q 422 1150 422 2328 
Q 422 3509 836 4129 
Q 1250 4750 2034 4750 
z
" transform="scale(0.015625)"/>
       </defs>
       <use xlink:href="#DejaVuSans-35"/>
       <use xlink:href="#DejaVuSans-30" x="63.623047"/>
       <use xlink:href="#DejaVuSans-30" x="127.246094"/>
      </g>
     </g>
    </g>
    <g id="xtick_2">
     <g id="line2d_2">
      <g>
       <use xlink:href="#mba25c068ff" x="306.067442" y="348.478125" style="stroke: #000000; stroke-width: 0.8"/>
      </g>
     </g>
     <g id="text_2">
      <!-- 1000 -->
      <g transform="translate(293.342442 363.076562)scale(0.1 -0.1)">
       <defs>
        <path id="DejaVuSans-31" d="M 794 531 
L 1825 531 
L 1825 4091 
L 703 3866 
L 703 4441 
L 1819 4666 
L 2450 4666 
L 2450 531 
L 3481 531 
L 3481 0 
L 794 0 
L 794 531 
z
" transform="scale(0.015625)"/>
       </defs>
       <use xlink:href="#DejaVuSans-31"/>
       <use xlink:href="#DejaVuSans-30" x="63.623047"/>
       <use xlink:href="#DejaVuSans-30" x="127.246094"/>
       <use xlink:href="#DejaVuSans-30" x="190.869141"/>
      </g>
     </g>
    </g>
    <g id="xtick_3">
     <g id="line2d_3">
      <g>
       <use xlink:href="#mba25c068ff" x="264.837883" y="348.478125" style="stroke: #000000; stroke-width: 0.8"/>
      </g>
     </g>
     <g id="text_3">
      <!-- 1500 -->
      <g transform="translate(252.112883 363.076562)scale(0.1 -0.1)">
       <use xlink:href="#DejaVuSans-31"/>
       <use xlink:href="#DejaVuSans-35" x="63.623047"/>
       <use xlink:href="#DejaVuSans-30" x="127.246094"/>
       <use xlink:href="#DejaVuSans-30" x="190.869141"/>
      </g>
     </g>
    </g>
    <g id="xtick_4">
     <g id="line2d_4">
      <g>
       <use xlink:href="#mba25c068ff" x="223.608323" y="348.478125" style="stroke: #000000; stroke-width: 0.8"/>
      </g>
     </g>
     <g id="text_4">
      <!-- 2000 -->
      <g transform="translate(210.883323 363.076562)scale(0.1 -0.1)">
       <defs>
        <path id="DejaVuSans-32" d="M 1228 531 
L 3431 531 
L 3431 0 
L 469 0 
L 469 531 
Q 828 903 1448 1529 
Q 2069 2156 2228 2338 
Q 2531 2678 2651 2914 
Q 2772 3150 2772 3378 
Q 2772 3750 2511 3984 
Q 2250 4219 1831 4219 
Q 1534 4219 1204 4116 
Q 875 4013 500 3803 
L 500 4441 
Q 881 4594 1212 4672 
Q 1544 4750 1819 4750 
Q 2544 4750 2975 4387 
Q 3406 4025 3406 3419 
Q 3406 3131 3298 2873 
Q 3191 2616 2906 2266 
Q 2828 2175 2409 1742 
Q 1991 1309 1228 531 
z
" transform="scale(0.015625)"/>
       </defs>
       <use xlink:href="#DejaVuSans-32"/>
       <use xlink:href="#DejaVuSans-30" x="63.623047"/>
       <use xlink:href="#DejaVuSans-30" x="127.246094"/>
       <use xlink:href="#DejaVuSans-30" x="190.869141"/>
      </g>
     </g>
    </g>
    <g id="xtick_5">
     <g id="line2d_5">
      <g>
       <use xlink:href="#mba25c068ff" x="182.378763" y="348.478125" style="stroke: #000000; stroke-width: 0.8"/>
      </g>
     </g>
     <g id="text_5">
      <!-- 2500 -->
      <g transform="translate(169.653763 363.076562)scale(0.1 -0.1)">
       <use xlink:href="#DejaVuSans-32"/>
       <use xlink:href="#DejaVuSans-35" x="63.623047"/>
       <use xlink:href="#DejaVuSans-30" x="127.246094"/>
       <use xlink:href="#DejaVuSans-30" x="190.869141"/>
      </g>
     </g>
    </g>
    <g id="xtick_6">
     <g id="line2d_6">
      <g>
       <use xlink:href="#mba25c068ff" x="141.149203" y="348.478125" style="stroke: #000000; stroke-width: 0.8"/>
      </g>
     </g>
     <g id="text_6">
      <!-- 3000 -->
      <g transform="translate(128.424203 363.076562)scale(0.1 -0.1)">
       <defs>
        <path id="DejaVuSans-33" d="M 2597 2516 
Q 3050 2419 3304 2112 
Q 3559 1806 3559 1356 
Q 3559 666 3084 287 
Q 2609 -91 1734 -91 
Q 1441 -91 1130 -33 
Q 819 25 488 141 
L 488 750 
Q 750 597 1062 519 
Q 1375 441 1716 441 
Q 2309 441 2620 675 
Q 2931 909 2931 1356 
Q 2931 1769 2642 2001 
Q 2353 2234 1838 2234 
L 1294 2234 
L 1294 2753 
L 1863 2753 
Q 2328 2753 2575 2939 
Q 2822 3125 2822 3475 
Q 2822 3834 2567 4026 
Q 2313 4219 1838 4219 
Q 1578 4219 1281 4162 
Q 984 4106 628 3988 
L 628 4550 
Q 988 4650 1302 4700 
Q 1616 4750 1894 4750 
Q 2613 4750 3031 4423 
Q 3450 4097 3450 3541 
Q 3450 3153 3228 2886 
Q 3006 2619 2597 2516 
z
" transform="scale(0.015625)"/>
       </defs>
       <use xlink:href="#DejaVuSans-33"/>
       <use xlink:href="#DejaVuSans-30" x="63.623047"/>
       <use xlink:href="#DejaVuSans-30" x="127.246094"/>
       <use xlink:href="#DejaVuSans-30" x="190.869141"/>
      </g>
     </g>
    </g>
    <g id="xtick_7">
     <g id="line2d_7">
      <g>
       <use xlink:href="#mba25c068ff" x="99.919643" y="348.478125" style="stroke: #000000; stroke-width: 0.8"/>
      </g>
     </g>
     <g id="text_7">
      <!-- 3500 -->
      <g transform="translate(87.194643 363.076562)scale(0.1 -0.1)">
       <use xlink:href="#DejaVuSans-33"/>
       <use xlink:href="#DejaVuSans-35" x="63.623047"/>
       <use xlink:href="#DejaVuSans-30" x="127.246094"/>
       <use xlink:href="#DejaVuSans-30" x="190.869141"/>
      </g>
     </g>
    </g>
    <g id="xtick_8">
     <g id="line2d_8">
      <g>
       <use xlink:href="#mba25c068ff" x="58.690083" y="348.478125" style="stroke: #000000; stroke-width: 0.8"/>
      </g>
     </g>
     <g id="text_8">
      <!-- 4000 -->
      <g transform="translate(45.965083 363.076562)scale(0.1 -0.1)">
       <defs>
        <path id="DejaVuSans-34" d="M 2419 4116 
L 825 1625 
L 2419 1625 
L 2419 4116 
z
M 2253 4666 
L 3047 4666 
L 3047 1625 
L 3713 1625 
L 3713 1100 
L 3047 1100 
L 3047 0 
L 2419 0 
L 2419 1100 
L 313 1100 
L 313 1709 
L 2253 4666 
z
" transform="scale(0.015625)"/>
       </defs>
       <use xlink:href="#DejaVuSans-34"/>
       <use xlink:href="#DejaVuSans-30" x="63.623047"/>
       <use xlink:href="#DejaVuSans-30" x="127.246094"/>
       <use xlink:href="#DejaVuSans-30" x="190.869141"/>
      </g>
     </g>
    </g>
    <g id="text_9">
     <!-- Wavenumbers, cm$^{-1}$ -->
     <g transform="translate(144.677131 377.276562)scale(0.1 -0.1)">
      <defs>
       <path id="DejaVuSans-57" d="M 213 4666 
L 850 4666 
L 1831 722 
L 2809 4666 
L 3519 4666 
L 4500 722 
L 5478 4666 
L 6119 4666 
L 4947 0 
L 4153 0 
L 3169 4050 
L 2175 0 
L 1381 0 
L 213 4666 
z
" transform="scale(0.015625)"/>
       <path id="DejaVuSans-61" d="M 2194 1759 
Q 1497 1759 1228 1600 
Q 959 1441 959 1056 
Q 959 750 1161 570 
Q 1363 391 1709 391 
Q 2188 391 2477 730 
Q 2766 1069 2766 1631 
L 2766 1759 
L 2194 1759 
z
M 3341 1997 
L 3341 0 
L 2766 0 
L 2766 531 
Q 2569 213 2275 61 
Q 1981 -91 1556 -91 
Q 1019 -91 701 211 
Q 384 513 384 1019 
Q 384 1609 779 1909 
Q 1175 2209 1959 2209 
L 2766 2209 
L 2766 2266 
Q 2766 2663 2505 2880 
Q 2244 3097 1772 3097 
Q 1472 3097 1187 3025 
Q 903 2953 641 2809 
L 641 3341 
Q 956 3463 1253 3523 
Q 1550 3584 1831 3584 
Q 2591 3584 2966 3190 
Q 3341 2797 3341 1997 
z
" transform="scale(0.015625)"/>
       <path id="DejaVuSans-76" d="M 191 3500 
L 800 3500 
L 1894 563 
L 2988 3500 
L 3597 3500 
L 2284 0 
L 1503 0 
L 191 3500 
z
" transform="scale(0.015625)"/>
       <path id="DejaVuSans-65" d="M 3597 1894 
L 3597 1613 
L 953 1613 
Q 991 1019 1311 708 
Q 1631 397 2203 397 
Q 2534 397 2845 478 
Q 3156 559 3463 722 
L 3463 178 
Q 3153 47 2828 -22 
Q 2503 -91 2169 -91 
Q 1331 -91 842 396 
Q 353 884 353 1716 
Q 353 2575 817 3079 
Q 1281 3584 2069 3584 
Q 2775 3584 3186 3129 
Q 3597 2675 3597 1894 
z
M 3022 2063 
Q 3016 2534 2758 2815 
Q 2500 3097 2075 3097 
Q 1594 3097 1305 2825 
Q 1016 2553 972 2059 
L 3022 2063 
z
" transform="scale(0.015625)"/>
       <path id="DejaVuSans-6e" d="M 3513 2113 
L 3513 0 
L 2938 0 
L 2938 2094 
Q 2938 2591 2744 2837 
Q 2550 3084 2163 3084 
Q 1697 3084 1428 2787 
Q 1159 2491 1159 1978 
L 1159 0 
L 581 0 
L 581 3500 
L 1159 3500 
L 1159 2956 
Q 1366 3272 1645 3428 
Q 1925 3584 2291 3584 
Q 2894 3584 3203 3211 
Q 3513 2838 3513 2113 
z
" transform="scale(0.015625)"/>
       <path id="DejaVuSans-75" d="M 544 1381 
L 544 3500 
L 1119 3500 
L 1119 1403 
Q 1119 906 1312 657 
Q 1506 409 1894 409 
Q 2359 409 2629 706 
Q 2900 1003 2900 1516 
L 2900 3500 
L 3475 3500 
L 3475 0 
L 2900 0 
L 2900 538 
Q 2691 219 2414 64 
Q 2138 -91 1772 -91 
Q 1169 -91 856 284 
Q 544 659 544 1381 
z
M 1991 3584 
L 1991 3584 
z
" transform="scale(0.015625)"/>
       <path id="DejaVuSans-6d" d="M 3328 2828 
Q 3544 3216 3844 3400 
Q 4144 3584 4550 3584 
Q 5097 3584 5394 3201 
Q 5691 2819 5691 2113 
L 5691 0 
L 5113 0 
L 5113 2094 
Q 5113 2597 4934 2840 
Q 4756 3084 4391 3084 
Q 3944 3084 3684 2787 
Q 3425 2491 3425 1978 
L 3425 0 
L 2847 0 
L 2847 2094 
Q 2847 2600 2669 2842 
Q 2491 3084 2119 3084 
Q 1678 3084 1418 2786 
Q 1159 2488 1159 1978 
L 1159 0 
L 581 0 
L 581 3500 
L 1159 3500 
L 1159 2956 
Q 1356 3278 1631 3431 
Q 1906 3584 2284 3584 
Q 2666 3584 2933 3390 
Q 3200 3197 3328 2828 
z
" transform="scale(0.015625)"/>
       <path id="DejaVuSans-62" d="M 3116 1747 
Q 3116 2381 2855 2742 
Q 2594 3103 2138 3103 
Q 1681 3103 1420 2742 
Q 1159 2381 1159 1747 
Q 1159 1113 1420 752 
Q 1681 391 2138 391 
Q 2594 391 2855 752 
Q 3116 1113 3116 1747 
z
M 1159 2969 
Q 1341 3281 1617 3432 
Q 1894 3584 2278 3584 
Q 2916 3584 3314 3078 
Q 3713 2572 3713 1747 
Q 3713 922 3314 415 
Q 2916 -91 2278 -91 
Q 1894 -91 1617 61 
Q 1341 213 1159 525 
L 1159 0 
L 581 0 
L 581 4863 
L 1159 4863 
L 1159 2969 
z
" transform="scale(0.015625)"/>
       <path id="DejaVuSans-72" d="M 2631 2963 
Q 2534 3019 2420 3045 
Q 2306 3072 2169 3072 
Q 1681 3072 1420 2755 
Q 1159 2438 1159 1844 
L 1159 0 
L 581 0 
L 581 3500 
L 1159 3500 
L 1159 2956 
Q 1341 3275 1631 3429 
Q 1922 3584 2338 3584 
Q 2397 3584 2469 3576 
Q 2541 3569 2628 3553 
L 2631 2963 
z
" transform="scale(0.015625)"/>
       <path id="DejaVuSans-73" d="M 2834 3397 
L 2834 2853 
Q 2591 2978 2328 3040 
Q 2066 3103 1784 3103 
Q 1356 3103 1142 2972 
Q 928 2841 928 2578 
Q 928 2378 1081 2264 
Q 1234 2150 1697 2047 
L 1894 2003 
Q 2506 1872 2764 1633 
Q 3022 1394 3022 966 
Q 3022 478 2636 193 
Q 2250 -91 1575 -91 
Q 1294 -91 989 -36 
Q 684 19 347 128 
L 347 722 
Q 666 556 975 473 
Q 1284 391 1588 391 
Q 1994 391 2212 530 
Q 2431 669 2431 922 
Q 2431 1156 2273 1281 
Q 2116 1406 1581 1522 
L 1381 1569 
Q 847 1681 609 1914 
Q 372 2147 372 2553 
Q 372 3047 722 3315 
Q 1072 3584 1716 3584 
Q 2034 3584 2315 3537 
Q 2597 3491 2834 3397 
z
" transform="scale(0.015625)"/>
       <path id="DejaVuSans-2c" d="M 750 794 
L 1409 794 
L 1409 256 
L 897 -744 
L 494 -744 
L 750 256 
L 750 794 
z
" transform="scale(0.015625)"/>
       <path id="DejaVuSans-20" transform="scale(0.015625)"/>
       <path id="DejaVuSans-63" d="M 3122 3366 
L 3122 2828 
Q 2878 2963 2633 3030 
Q 2388 3097 2138 3097 
Q 1578 3097 1268 2742 
Q 959 2388 959 1747 
Q 959 1106 1268 751 
Q 1578 397 2138 397 
Q 2388 397 2633 464 
Q 2878 531 3122 666 
L 3122 134 
Q 2881 22 2623 -34 
Q 2366 -91 2075 -91 
Q 1284 -91 818 406 
Q 353 903 353 1747 
Q 353 2603 823 3093 
Q 1294 3584 2113 3584 
Q 2378 3584 2631 3529 
Q 2884 3475 3122 3366 
z
" transform="scale(0.015625)"/>
       <path id="DejaVuSans-2212" d="M 678 2272 
L 4684 2272 
L 4684 1741 
L 678 1741 
L 678 2272 
z
" transform="scale(0.015625)"/>
      </defs>
      <use xlink:href="#DejaVuSans-57" transform="translate(0 0.684375)"/>
      <use xlink:href="#DejaVuSans-61" transform="translate(98.876953 0.684375)"/>
      <use xlink:href="#DejaVuSans-76" transform="translate(160.15625 0.684375)"/>
      <use xlink:href="#DejaVuSans-65" transform="translate(219.335938 0.684375)"/>
      <use xlink:href="#DejaVuSans-6e" transform="translate(280.859375 0.684375)"/>
      <use xlink:href="#DejaVuSans-75" transform="translate(344.238281 0.684375)"/>
      <use xlink:href="#DejaVuSans-6d" transform="translate(407.617188 0.684375)"/>
      <use xlink:href="#DejaVuSans-62" transform="translate(505.029297 0.684375)"/>
      <use xlink:href="#DejaVuSans-65" transform="translate(568.505859 0.684375)"/>
      <use xlink:href="#DejaVuSans-72" transform="translate(630.029297 0.684375)"/>
      <use xlink:href="#DejaVuSans-73" transform="translate(671.142578 0.684375)"/>
      <use xlink:href="#DejaVuSans-2c" transform="translate(723.242188 0.684375)"/>
      <use xlink:href="#DejaVuSans-20" transform="translate(755.029297 0.684375)"/>
      <use xlink:href="#DejaVuSans-63" transform="translate(786.816406 0.684375)"/>
      <use xlink:href="#DejaVuSans-6d" transform="translate(841.796875 0.684375)"/>
      <use xlink:href="#DejaVuSans-2212" transform="translate(940.166016 38.965625)scale(0.7)"/>
      <use xlink:href="#DejaVuSans-31" transform="translate(998.818359 38.965625)scale(0.7)"/>
     </g>
    </g>
   </g>
   <g id="matplotlib.axis_2">
    <g id="ytick_1">
     <g id="line2d_9">
      <defs>
       <path id="m09a206bc78" d="M 0 0 
L -3.5 0 
" style="stroke: #000000; stroke-width: 0.8"/>
      </defs>
      <g>
       <use xlink:href="#m09a206bc78" x="44.845313" y="341.312549" style="stroke: #000000; stroke-width: 0.8"/>
      </g>
     </g>
     <g id="text_10">
      <!-- −0.20 -->
      <g transform="translate(7.2 345.111768)scale(0.1 -0.1)">
       <defs>
        <path id="DejaVuSans-2e" d="M 684 794 
L 1344 794 
L 1344 0 
L 684 0 
L 684 794 
z
" transform="scale(0.015625)"/>
       </defs>
       <use xlink:href="#DejaVuSans-2212"/>
       <use xlink:href="#DejaVuSans-30" x="83.789062"/>
       <use xlink:href="#DejaVuSans-2e" x="147.412109"/>
       <use xlink:href="#DejaVuSans-32" x="179.199219"/>
       <use xlink:href="#DejaVuSans-30" x="242.822266"/>
      </g>
     </g>
    </g>
    <g id="ytick_2">
     <g id="line2d_10">
      <g>
       <use xlink:href="#m09a206bc78" x="44.845313" y="268.902155" style="stroke: #000000; stroke-width: 0.8"/>
      </g>
     </g>
     <g id="text_11">
      <!-- −0.15 -->
      <g transform="translate(7.2 272.701373)scale(0.1 -0.1)">
       <use xlink:href="#DejaVuSans-2212"/>
       <use xlink:href="#DejaVuSans-30" x="83.789062"/>
       <use xlink:href="#DejaVuSans-2e" x="147.412109"/>
       <use xlink:href="#DejaVuSans-31" x="179.199219"/>
       <use xlink:href="#DejaVuSans-35" x="242.822266"/>
      </g>
     </g>
    </g>
    <g id="ytick_3">
     <g id="line2d_11">
      <g>
       <use xlink:href="#m09a206bc78" x="44.845313" y="196.49176" style="stroke: #000000; stroke-width: 0.8"/>
      </g>
     </g>
     <g id="text_12">
      <!-- −0.10 -->
      <g transform="translate(7.2 200.290979)scale(0.1 -0.1)">
       <use xlink:href="#DejaVuSans-2212"/>
       <use xlink:href="#DejaVuSans-30" x="83.789062"/>
       <use xlink:href="#DejaVuSans-2e" x="147.412109"/>
       <use xlink:href="#DejaVuSans-31" x="179.199219"/>
       <use xlink:href="#DejaVuSans-30" x="242.822266"/>
      </g>
     </g>
    </g>
    <g id="ytick_4">
     <g id="line2d_12">
      <g>
       <use xlink:href="#m09a206bc78" x="44.845313" y="124.081365" style="stroke: #000000; stroke-width: 0.8"/>
      </g>
     </g>
     <g id="text_13">
      <!-- −0.05 -->
      <g transform="translate(7.2 127.880584)scale(0.1 -0.1)">
       <use xlink:href="#DejaVuSans-2212"/>
       <use xlink:href="#DejaVuSans-30" x="83.789062"/>
       <use xlink:href="#DejaVuSans-2e" x="147.412109"/>
       <use xlink:href="#DejaVuSans-30" x="179.199219"/>
       <use xlink:href="#DejaVuSans-35" x="242.822266"/>
      </g>
     </g>
    </g>
    <g id="ytick_5">
     <g id="line2d_13">
      <g>
       <use xlink:href="#m09a206bc78" x="44.845313" y="51.67097" style="stroke: #000000; stroke-width: 0.8"/>
      </g>
     </g>
     <g id="text_14">
      <!-- 0.00 -->
      <g transform="translate(15.579688 55.470189)scale(0.1 -0.1)">
       <use xlink:href="#DejaVuSans-30"/>
       <use xlink:href="#DejaVuSans-2e" x="63.623047"/>
       <use xlink:href="#DejaVuSans-30" x="95.410156"/>
       <use xlink:href="#DejaVuSans-30" x="159.033203"/>
      </g>
     </g>
    </g>
   </g>
   <g id="line2d_14">
    <path d="M 335.374238 66.277861 
L 335.334485 66.450318 
L 335.294723 66.416973 
L 334.65865 63.318119 
L 334.618896 63.341624 
L 334.42012 63.613062 
L 334.141837 64.246125 
L 334.102075 64.225516 
L 334.022568 64.290449 
L 333.863546 65.084344 
L 333.505756 66.7943 
L 333.426249 67.021744 
L 333.30698 68.25298 
L 332.591391 78.16512 
L 332.352862 78.677863 
L 332.233601 80.124769 
L 332.074579 85.154803 
L 331.836049 101.171435 
L 331.637273 132.554785 
L 331.279483 221.512058 
L 331.199968 214.773677 
L 330.524133 78.272495 
L 330.285603 73.309011 
L 330.206096 73.034454 
L 330.166343 73.069804 
L 330.047074 74.076606 
L 329.808544 79.209393 
L 329.530261 89.930646 
L 329.291732 107.285939 
L 329.053202 144.033244 
L 328.814673 225.45244 
L 328.496636 333.65267 
L 328.456883 333.453291 
L 328.337614 312.377071 
L 327.502765 92.55861 
L 327.18472 69.887689 
L 326.866683 60.540504 
L 326.310117 53.402879 
L 325.952319 51.812554 
L 325.674036 51.32592 
L 325.47526 51.254263 
L 325.355999 51.173217 
L 325.11747 50.799843 
L 324.87894 51.161808 
L 324.839179 51.104531 
L 324.680164 50.858303 
L 324.640411 50.912309 
L 324.36212 51.56323 
L 324.322366 51.522729 
L 324.163352 51.43775 
L 324.044083 51.821382 
L 323.7658 53.141516 
L 323.726046 53.074593 
L 323.487517 51.81105 
L 323.248987 51.077555 
L 322.811682 50.593815 
L 322.65266 50.413999 
L 322.41413 50.702226 
L 321.937071 51.183048 
L 321.81781 51.311032 
L 321.658788 51.503745 
L 321.619034 51.47821 
L 321.499766 51.421054 
L 321.380505 51.72487 
L 321.221483 52.117955 
L 321.181729 52.085848 
L 320.9432 51.647854 
L 320.903446 51.707667 
L 320.664916 52.172853 
L 320.625163 52.154031 
L 320.187857 51.834912 
L 320.148104 51.903308 
L 319.909574 52.274081 
L 319.710798 52.282635 
L 319.472269 52.758397 
L 319.313247 52.968728 
L 319.273493 52.942429 
L 318.836188 52.503738 
L 318.716927 52.415851 
L 318.319375 51.58877 
L 318.001338 50.42267 
L 317.802563 50.104774 
L 317.484526 49.278122 
L 317.405011 49.339703 
L 317.28575 49.76038 
L 316.848445 51.705665 
L 316.411139 52.689216 
L 316.053349 52.832839 
L 315.93408 52.8725 
L 315.417268 53.844428 
L 315.178738 54.802851 
L 314.741433 57.804302 
L 314.701679 57.724788 
L 314.542657 56.627664 
L 313.986091 50.614419 
L 313.906584 50.826706 
L 313.350009 52.981294 
L 313.11148 52.990709 
L 312.395891 53.783626 
L 312.236877 53.767194 
L 312.077855 53.784007 
L 311.799572 54.266286 
L 311.759818 54.232137 
L 311.561042 54.000393 
L 311.521289 54.03039 
L 311.282759 54.336491 
L 311.242997 54.304514 
L 310.8057 53.617768 
L 310.765938 53.657876 
L 310.487655 54.095204 
L 310.447902 54.058351 
L 310.209372 53.842797 
L 309.81182 53.977049 
L 309.69256 53.867206 
L 309.493784 53.562488 
L 309.45403 53.591957 
L 309.175747 53.999118 
L 309.135994 53.967444 
L 308.738442 53.34609 
L 308.658935 53.408492 
L 308.499912 53.449876 
L 308.34089 53.130874 
L 308.10236 52.637313 
L 307.863831 52.597931 
L 307.148242 51.271606 
L 306.035118 46.508907 
L 305.438774 43.650691 
L 305.319538 43.761397 
L 305.160475 44.514344 
L 304.961748 46.683944 
L 304.683449 52.991041 
L 304.325658 65.576785 
L 303.649823 96.279623 
L 303.610078 96.078984 
L 303.49076 92.858966 
L 303.093224 81.406517 
L 302.13909 62.326486 
L 301.701809 58.411931 
L 301.42351 57.248808 
L 300.986229 56.660764 
L 300.827248 56.663405 
L 300.628439 57.069607 
L 300.389885 58.094169 
L 300.07184 60.714681 
L 299.793623 64.560956 
L 299.35626 72.962708 
L 299.316514 72.601364 
L 299.157533 68.023185 
L 298.799743 57.822241 
L 298.481698 54.559974 
L 298.243144 53.640897 
L 298.084163 53.652371 
L 297.925099 53.840979 
L 297.607054 54.947462 
L 297.328755 55.591867 
L 297.209519 55.521032 
L 297.050538 55.062668 
L 296.454193 52.738333 
L 296.255384 52.647055 
L 296.016913 52.692044 
L 295.579549 52.340342 
L 295.261505 52.395928 
L 294.426688 53.101817 
L 294.267625 53.165934 
L 293.94958 53.431763 
L 293.790599 53.653125 
L 293.472554 54.131431 
L 293.194254 54.146301 
L 292.637738 53.576414 
L 292.319693 53.188363 
L 292.160629 53.288432 
L 291.763094 54.038714 
L 291.365559 56.671491 
L 291.286068 56.430008 
L 290.689724 52.919945 
L 290.490915 52.798021 
L 290.17287 52.720423 
L 289.616353 53.01617 
L 289.45729 52.962038 
L 288.860945 52.075683 
L 288.662219 50.06724 
L 288.344174 46.859767 
L 288.026129 45.985552 
L 287.82732 44.947308 
L 287.787575 44.953373 
L 287.668339 45.548245 
L 287.231058 48.512797 
L 286.75395 49.466329 
L 286.39616 50.639839 
L 286.197433 51.249592 
L 285.919134 51.959618 
L 285.601089 52.087738 
L 285.362535 51.827723 
L 284.726445 51.093968 
L 284.6867 51.135577 
L 284.010865 52.074003 
L 283.772393 51.979567 
L 283.533839 52.0179 
L 283.05673 52.177035 
L 282.579704 51.77343 
L 282.301405 51.872276 
L 281.98336 51.953254 
L 281.784633 51.909567 
L 281.387098 52.23565 
L 280.949735 52.003132 
L 280.154664 52.059057 
L 279.9956 51.879184 
L 279.757129 51.574346 
L 279.28002 51.932836 
L 278.92223 52.047559 
L 278.64393 51.968712 
L 278.484949 51.962787 
L 278.325968 51.607696 
L 278.127159 51.190843 
L 278.087414 51.218505 
L 277.84886 51.700619 
L 277.809114 51.651457 
L 277.292261 50.087363 
L 276.894725 48.247892 
L 276.298463 45.478223 
L 276.21889 45.388062 
L 276.179145 45.438935 
L 276.020164 46.269801 
L 275.185265 52.098501 
L 274.747984 58.248575 
L 274.668494 57.992664 
L 274.390194 55.07613 
L 274.07215 52.708747 
L 273.79385 52.348882 
L 273.356569 51.203494 
L 273.197588 51.203094 
L 273.038524 51.677992 
L 272.919289 51.871 
L 272.879543 51.817185 
L 272.680734 51.457012 
L 272.640989 51.523244 
L 272.402435 52.035527 
L 272.362689 52.007104 
L 272.163881 51.912216 
L 272.004899 51.887214 
L 271.845918 51.54326 
L 271.527873 50.019737 
L 271.4483 50.390526 
L 271.170083 51.874758 
L 270.971274 52.305469 
L 270.852038 52.422048 
L 270.812293 52.380749 
L 270.653229 52.283307 
L 270.494248 52.699346 
L 270.295439 53.168691 
L 270.09663 52.744013 
L 270.056885 52.886016 
L 269.222069 59.721413 
L 268.943769 62.339226 
L 268.904024 62.267403 
L 268.506489 60.525674 
L 268.466743 60.612511 
L 268.347425 61.945207 
L 268.02938 66.35363 
L 267.94989 66.463176 
L 267.910144 66.377156 
L 267.67159 65.751425 
L 267.631845 65.774649 
L 267.552354 65.773414 
L 267.433118 65.346878 
L 267.234309 63.154251 
L 266.995755 61.043394 
L 266.797029 60.926671 
L 266.478984 60.924834 
L 266.359666 61.069406 
L 266.081449 62.198942 
L 265.88264 64.271819 
L 265.723658 68.455439 
L 265.524849 82.413342 
L 265.206805 113.756861 
L 265.167059 113.030363 
L 265.047823 100.649749 
L 264.729779 65.793701 
L 264.371989 54.509613 
L 264.212925 52.71588 
L 263.815389 54.241375 
L 263.735899 54.208032 
L 263.616581 53.702968 
L 263.417854 52.841701 
L 263.378109 52.855616 
L 263.099809 53.178362 
L 262.861255 54.906595 
L 262.82151 54.822126 
L 262.46372 53.584501 
L 262.344484 53.417079 
L 262.066184 52.491603 
L 262.026439 52.590597 
L 261.867375 53.238316 
L 261.82763 53.194343 
L 261.708394 52.148272 
L 261.509585 50.062026 
L 261.46984 50.092402 
L 261.072304 51.986212 
L 260.913323 52.450927 
L 260.873495 52.438746 
L 260.75426 52.434341 
L 260.595278 52.735021 
L 260.555451 52.69397 
L 260.277234 51.543059 
L 260.157915 50.512382 
L 259.998934 48.764712 
L 259.959189 48.961851 
L 259.521826 53.57874 
L 259.323099 53.947669 
L 259.12429 53.422957 
L 259.0448 53.585383 
L 258.845991 54.315942 
L 258.806245 54.254756 
L 258.647264 53.254726 
L 258.567774 52.873111 
L 258.528028 52.880161 
L 258.368965 53.77136 
L 258.170156 54.3632 
L 257.891939 54.732892 
L 257.69313 55.004621 
L 257.653384 54.978875 
L 257.454575 54.753571 
L 257.41483 54.798011 
L 257.216104 55.490394 
L 256.898059 57.355523 
L 256.659505 60.990575 
L 256.381205 70.395442 
L 256.222224 73.887702 
L 256.182479 73.558185 
L 256.06316 69.502466 
L 255.70537 56.242804 
L 255.427071 53.992166 
L 255.188599 52.846589 
L 254.950045 53.572886 
L 254.870554 53.458517 
L 254.592254 52.750046 
L 254.473019 52.733225 
L 253.876674 51.37627 
L 253.63812 49.184339 
L 253.558629 49.336976 
L 253.240585 50.501332 
L 253.161094 50.520409 
L 253.121349 50.458056 
L 253.00203 49.906627 
L 252.723731 48.068718 
L 252.683985 48.156569 
L 252.485259 48.919105 
L 252.445514 48.757398 
L 252.206959 46.155682 
L 252.127469 46.892323 
L 251.849169 49.649526 
L 251.769679 49.649979 
L 251.451634 49.031878 
L 251.372143 49.16344 
L 251.252825 49.32456 
L 251.21308 49.276712 
L 251.054099 48.515019 
L 250.895035 47.832822 
L 250.85529 47.860731 
L 250.616735 48.567076 
L 250.57699 48.473491 
L 250.378264 47.79988 
L 250.338436 47.909156 
L 250.139709 48.601216 
L 250.099964 48.55175 
L 249.9409 47.790442 
L 249.662601 45.464014 
L 249.622856 45.668006 
L 249.344556 47.478829 
L 248.907275 46.690137 
L 248.589231 44.754268 
L 248.50974 44.423938 
L 248.271186 42.383044 
L 248.23144 42.45915 
L 248.15195 42.641649 
L 248.112205 42.61275 
L 247.953141 41.720742 
L 247.754414 41.112352 
L 247.555605 40.624147 
L 247.356879 39.462642 
L 246.999089 37.194548 
L 246.959261 37.14358 
L 246.919516 37.192487 
L 246.80028 38.061103 
L 246.402745 44.021858 
L 246.044954 49.038007 
L 245.72691 50.478018 
L 245.607674 50.642658 
L 245.488355 51.841774 
L 245.249884 54.069207 
L 244.971584 53.362371 
L 244.892011 53.415583 
L 244.73303 53.369623 
L 244.613794 53.172847 
L 244.216258 51.700316 
L 244.136685 51.950771 
L 243.858386 53.192613 
L 243.659659 52.924676 
L 243.619914 52.957475 
L 243.500596 53.033256 
L 243.46085 52.984617 
L 243.222379 52.485208 
L 243.182551 52.548352 
L 243.02357 52.880743 
L 242.983824 52.856054 
L 242.824761 52.292097 
L 242.38748 50.96856 
L 242.268244 51.283074 
L 241.950199 52.143885 
L 241.632155 52.409416 
L 241.512919 52.382969 
L 241.31411 52.241055 
L 241.115301 52.479884 
L 240.996065 52.111318 
L 240.837084 51.602717 
L 240.797256 51.634037 
L 240.638275 52.391647 
L 240.32023 53.670113 
L 240.200994 53.738453 
L 240.002185 53.561933 
L 239.96244 53.61396 
L 239.644395 54.280829 
L 239.60465 54.239833 
L 239.008305 53.226036 
L 238.133744 52.364155 
L 237.97468 52.170629 
L 237.815699 52.211841 
L 237.61689 51.975741 
L 237.17961 52.624427 
L 236.90131 52.904046 
L 236.782074 52.889771 
L 236.62301 52.227962 
L 236.503775 51.798837 
L 236.464029 51.820432 
L 236.225475 52.750601 
L 235.509895 55.225004 
L 235.47015 55.206852 
L 235.311086 54.894683 
L 234.993041 54.308931 
L 234.83406 54.190981 
L 234.635251 53.637131 
L 234.436524 52.959663 
L 234.396779 53.015691 
L 234.078734 54.317238 
L 233.999161 54.191587 
L 233.601626 53.397764 
L 233.283581 53.372641 
L 233.1246 53.540886 
L 233.084855 53.49562 
L 232.925791 52.815244 
L 232.727064 52.236505 
L 232.48851 52.427574 
L 232.448765 52.378179 
L 232.249956 52.163729 
L 231.295904 52.769346 
L 231.13684 52.532191 
L 230.858541 52.184671 
L 230.500751 52.157439 
L 230.222451 52.319715 
L 230.023725 52.081261 
L 229.983979 52.131123 
L 229.78517 52.867956 
L 229.34789 54.442007 
L 229.188826 54.185935 
L 229.109335 54.107574 
L 229.06959 54.152891 
L 228.7118 55.250382 
L 228.632309 55.198371 
L 228.473246 54.845423 
L 228.274519 54.522951 
L 227.876901 54.945204 
L 227.797411 54.809289 
L 227.678175 54.690041 
L 227.479366 55.088227 
L 227.399875 54.983501 
L 227.28064 54.783614 
L 227.240894 54.801509 
L 227.00234 55.343524 
L 226.922849 55.181785 
L 226.36625 52.558588 
L 226.326505 52.637189 
L 225.968715 54.255796 
L 225.889224 54.061064 
L 225.531434 52.466347 
L 225.491607 52.506592 
L 225.213389 52.818566 
L 225.094071 53.015767 
L 224.815854 53.852644 
L 224.776026 53.8404 
L 224.617045 53.59769 
L 224.338746 52.623027 
L 224.259255 52.721821 
L 224.100191 53.064356 
L 224.060446 53.013336 
L 223.782229 52.242781 
L 223.702656 52.310761 
L 223.384611 53.155674 
L 223.30512 53.054288 
L 222.86784 52.193749 
L 222.828094 52.244824 
L 222.748521 52.326735 
L 222.708776 52.293924 
L 222.430559 51.521214 
L 222.350986 51.683455 
L 222.112514 52.040099 
L 221.87396 52.166093 
L 221.51617 53.267917 
L 221.436679 53.201846 
L 221.039061 53.024229 
L 220.840335 52.920557 
L 220.721017 52.722324 
L 220.4428 51.450144 
L 220.323481 51.600865 
L 220.243991 51.535552 
L 220.085009 51.252115 
L 219.925946 51.830232 
L 219.727219 52.189026 
L 219.607901 52.111961 
L 219.329601 51.562222 
L 219.289856 51.582984 
L 218.892321 51.723794 
L 218.773085 51.837317 
L 218.614021 52.158108 
L 218.574276 52.116615 
L 218.335804 51.469001 
L 218.295976 51.531956 
L 218.057505 52.153132 
L 218.017759 52.137436 
L 217.858696 51.79686 
L 217.620141 51.3261 
L 217.500906 51.629761 
L 217.302097 52.232331 
L 217.262351 52.19335 
L 216.904561 51.261164 
L 216.825071 51.353995 
L 216.507026 51.971121 
L 216.348045 52.085154 
L 216.228726 52.118787 
L 216.069745 51.714968 
L 215.831191 51.275513 
L 214.916802 51.259635 
L 214.67833 51.023088 
L 214.638585 51.088853 
L 214.40003 51.842594 
L 214.360285 51.799035 
L 214.121731 51.146434 
L 214.04224 51.230824 
L 213.883259 51.399431 
L 213.763941 51.187948 
L 213.525386 50.780079 
L 213.167596 51.098982 
L 212.849551 52.102865 
L 212.730316 51.948725 
L 212.25329 51.281776 
L 212.173717 51.393737 
L 211.895499 52.060363 
L 211.855672 52.020998 
L 211.736436 51.512162 
L 211.458136 50.264115 
L 211.3389 50.487636 
L 211.179919 51.305623 
L 210.941365 52.482453 
L 210.702811 52.328567 
L 210.583575 52.263104 
L 210.464257 52.109086 
L 210.424511 52.165992 
L 210.26553 52.555232 
L 210.225785 52.486258 
L 209.987231 51.533152 
L 209.947485 51.637101 
L 209.708931 52.508077 
L 209.669186 52.459319 
L 209.430631 51.534299 
L 209.152332 50.762408 
L 209.033096 51.253893 
L 208.794624 52.450401 
L 208.55607 52.325739 
L 208.397006 52.441834 
L 207.880235 51.68616 
L 207.681426 50.78944 
L 207.641681 50.847663 
L 207.363381 52.11782 
L 207.283891 51.915983 
L 207.085082 51.477997 
L 206.84661 51.727056 
L 206.806865 51.679336 
L 206.528565 51.20552 
L 206.48882 51.242346 
L 206.290011 51.540678 
L 206.250266 51.475236 
L 206.091284 51.141693 
L 206.051457 51.186288 
L 205.85273 51.664274 
L 205.812985 51.619821 
L 205.41545 50.890416 
L 204.938341 50.2997 
L 204.819105 50.224354 
L 204.540806 50.713746 
L 204.50106 50.674905 
L 204.183016 50.250451 
L 204.14327 50.292443 
L 203.78548 50.942688 
L 203.745735 50.899346 
L 203.586671 50.474764 
L 203.348199 49.73149 
L 203.308372 49.76619 
L 203.109645 50.134683 
L 203.0699 50.083342 
L 202.910836 49.828663 
L 202.7916 50.294878 
L 202.592791 51.073048 
L 202.553046 51.056692 
L 202.314492 50.90044 
L 201.956784 51.085703 
L 201.797721 51.028655 
L 201.598912 50.371386 
L 201.43993 49.976477 
L 201.400185 49.994573 
L 201.121886 50.54325 
L 201.00265 50.465035 
L 200.883331 50.632772 
L 200.72435 50.813735 
L 200.525541 50.758542 
L 200.36656 50.787004 
L 200.128006 50.714596 
L 199.969025 50.67483 
L 199.37268 50.159697 
L 199.332935 50.209095 
L 199.134126 50.324485 
L 198.776336 50.171935 
L 198.498036 50.369179 
L 198.339055 50.362744 
L 198.060756 50.118982 
L 197.861947 50.131398 
L 197.543902 49.868478 
L 197.30543 50.108018 
L 197.146367 50.152662 
L 196.828322 49.830513 
L 196.788576 49.890895 
L 196.629595 50.061264 
L 196.58985 50.032593 
L 196.430786 49.940136 
L 196.271805 50.391254 
L 196.072996 50.842014 
L 195.95376 50.695609 
L 195.476652 49.782359 
L 195.357416 49.870953 
L 195.039371 50.238819 
L 194.800899 49.943868 
L 194.562345 49.725746 
L 194.403281 49.595056 
L 194.2443 49.508009 
L 193.80702 50.053791 
L 193.687701 49.956244 
L 193.409402 49.373068 
L 193.369656 49.40348 
L 193.051612 49.716224 
L 192.852885 49.642934 
L 192.614331 49.478538 
L 192.137305 49.91885 
L 191.859005 50.178665 
L 191.699942 50.269268 
L 191.501215 50.405262 
L 191.222916 50.223542 
L 191.024107 50.12292 
L 190.547081 50.009913 
L 190.189291 50.434676 
L 190.149545 50.405768 
L 189.592946 49.925545 
L 189.274901 50.121795 
L 188.718385 50.002476 
L 188.440085 50.749426 
L 188.281022 50.946406 
L 188.122041 50.723281 
L 187.843741 50.408482 
L 187.605187 50.55839 
L 187.287142 49.946568 
L 187.207651 50.065937 
L 187.008925 50.290936 
L 186.69088 50.134484 
L 186.492071 50.208589 
L 186.293262 49.817002 
L 186.134281 49.697414 
L 185.855981 49.819342 
L 185.657255 49.704025 
L 185.259637 50.105756 
L 184.742866 49.748961 
L 184.504312 49.387263 
L 184.027286 49.86609 
L 183.98754 49.810026 
L 183.709241 49.394891 
L 183.669495 49.424227 
L 183.391196 49.615062 
L 182.953915 49.411178 
L 182.794852 49.34856 
L 182.55638 49.281135 
L 182.397316 49.479638 
L 182.238335 49.627525 
L 182.039526 49.355258 
L 181.761226 49.13925 
L 181.443182 49.273488 
L 181.005901 49.175246 
L 180.886665 49.20051 
L 180.648111 48.709914 
L 180.528875 48.653304 
L 180.369811 49.068126 
L 180.171085 49.39034 
L 179.932531 49.298257 
L 179.49525 49.548452 
L 179.415677 49.493289 
L 179.097632 48.851117 
L 179.057887 48.900118 
L 178.739842 49.445032 
L 178.700097 49.421819 
L 178.262816 49.092182 
L 177.984516 49.368038 
L 177.944771 49.331413 
L 177.586981 49.043865 
L 177.388172 49.022348 
L 177.189445 48.97986 
L 176.831655 49.238449 
L 176.513611 49.145957 
L 176.275056 48.757052 
L 176.235311 48.793513 
L 175.758285 49.295812 
L 175.320922 49.177937 
L 175.08245 48.996401 
L 174.72466 48.987914 
L 174.565596 48.964116 
L 174.327042 49.149671 
L 174.287297 49.103401 
L 174.00908 48.712089 
L 173.810271 48.837556 
L 173.452481 48.638571 
L 173.094691 48.736215 
L 172.577837 48.991732 
L 172.37911 49.121284 
L 172.180301 48.884338 
L 171.981492 48.729639 
L 171.583957 49.070416 
L 171.186422 48.963076 
L 170.947867 49.153492 
L 170.629905 48.94979 
L 170.391351 48.68371 
L 170.152797 48.386241 
L 169.993815 48.703449 
L 169.795006 48.9042 
L 169.516707 48.563394 
L 169.198662 48.113635 
L 168.999936 48.205465 
L 168.681891 48.4636 
L 168.483082 48.590316 
L 168.204782 48.732187 
L 167.846992 48.773475 
L 167.449457 48.531702 
L 167.171157 48.675528 
L 166.892858 48.487597 
L 166.694131 48.45828 
L 166.455577 48.393133 
L 165.978551 48.486089 
L 165.819487 48.491009 
L 165.660506 48.535 
L 165.382207 48.432853 
L 165.064162 48.566124 
L 164.865435 48.532711 
L 164.666626 48.43416 
L 164.348582 48.764017 
L 164.149855 48.88631 
L 163.83181 48.759027 
L 162.877676 49.73647 
L 162.83793 49.698963 
L 162.599376 49.216963 
L 162.082605 48.1323 
L 161.923541 48.167753 
L 161.724732 48.182378 
L 161.366942 47.913611 
L 161.088725 47.595602 
L 160.730853 47.722805 
L 160.41289 47.667549 
L 159.935782 47.352569 
L 159.69731 47.567591 
L 159.657482 47.533036 
L 158.743176 46.50007 
L 158.385385 46.356271 
L 157.789041 45.325808 
L 157.590232 45.338744 
L 157.113206 45.687192 
L 156.954142 45.605878 
L 156.238562 44.599259 
L 155.880772 44.384441 
L 155.682046 44.444205 
L 155.522982 43.929851 
L 155.204937 42.939183 
L 154.807402 42.311504 
L 154.688166 42.355457 
L 154.091821 43.23772 
L 153.853267 43.822697 
L 153.694286 43.667914 
L 153.415987 43.089678 
L 153.177432 42.680242 
L 153.058196 42.931188 
L 152.779897 44.386832 
L 152.064317 48.643263 
L 151.706527 49.232307 
L 151.547545 49.148977 
L 151.269246 49.023822 
L 151.149927 48.899442 
L 150.593411 47.458069 
L 149.758512 44.010865 
L 149.360977 42.510185 
L 149.241741 42.559634 
L 149.082677 43.099344 
L 148.804378 44.004381 
L 148.645397 43.968176 
L 148.367097 43.697991 
L 148.247861 44.14867 
L 148.009307 46.667 
L 147.651517 53.034367 
L 147.373217 56.500838 
L 147.253981 56.765428 
L 147.214236 56.720412 
L 147.055172 56.217759 
L 146.816701 54.45833 
L 146.260102 50.733855 
L 145.783076 48.706452 
L 145.266222 48.25335 
L 145.107241 48.369785 
L 144.749451 48.692221 
L 144.630132 48.653774 
L 144.431406 48.531979 
L 144.033788 48.812859 
L 143.914552 48.882215 
L 143.437526 49.835381 
L 143.397781 49.812693 
L 143.159226 49.69624 
L 142.761691 49.993146 
L 142.562882 49.925003 
L 142.284583 49.461037 
L 142.205092 49.545947 
L 141.887047 50.043411 
L 141.648493 49.924276 
L 141.131722 51.086054 
L 140.773932 52.26617 
L 140.376396 53.220832 
L 140.137842 54.432939 
L 139.700561 57.96408 
L 139.462007 60.881949 
L 138.945153 68.250475 
L 138.865663 68.325589 
L 138.825917 68.251665 
L 138.666936 67.349163 
L 138.428382 64.53228 
L 137.752547 55.240575 
L 137.474247 53.958974 
L 137.275521 53.882511 
L 137.076712 53.954305 
L 136.440622 55.212321 
L 136.162323 55.651359 
L 135.804533 55.730955 
L 135.645551 54.999727 
L 134.969717 51.068672 
L 134.770908 50.83008 
L 134.651672 51.023783 
L 133.975837 53.352926 
L 133.896346 53.15235 
L 133.697537 51.665428 
L 133.180766 47.542958 
L 132.743403 46.678257 
L 132.385613 46.630876 
L 131.829096 45.574011 
L 131.630287 45.451264 
L 130.954452 44.35454 
L 130.835216 44.215558 
L 130.556917 43.747792 
L 130.079891 44.018113 
L 129.841337 43.769144 
L 129.563037 43.366953 
L 129.523292 43.408804 
L 129.364228 43.510181 
L 129.046183 42.941682 
L 128.847457 42.615787 
L 128.807711 42.651841 
L 128.529412 42.926473 
L 128.251112 42.748525 
L 127.893322 42.284756 
L 127.535532 42.356908 
L 127.416296 42.317642 
L 127.257233 41.749144 
L 127.018678 41.094339 
L 126.621143 41.229973 
L 126.263353 41.243155 
L 125.945308 40.700778 
L 125.905563 40.734539 
L 125.746582 40.752081 
L 125.547773 40.613611 
L 125.269473 41.035111 
L 125.189982 40.93606 
L 124.871938 40.064953 
L 124.673211 39.730324 
L 124.434657 39.808588 
L 124.235848 40.0754 
L 124.196103 40.037027 
L 123.838313 39.537917 
L 123.639504 39.391164 
L 123.480522 39.289848 
L 123.281796 39.554692 
L 123.241968 39.519113 
L 122.844433 38.929833 
L 122.645706 38.838523 
L 122.407152 38.353751 
L 122.367407 38.387251 
L 121.850553 39.292561 
L 121.810808 39.241959 
L 121.453018 38.745909 
L 121.333782 38.640972 
L 121.174718 38.484054 
L 120.936246 38.665027 
L 120.697692 38.490568 
L 120.459138 38.506505 
L 120.101348 38.479789 
L 119.783303 39.045256 
L 119.743558 38.990051 
L 119.266532 38.012081 
L 119.147213 38.209521 
L 118.948487 38.696426 
L 118.908741 38.670766 
L 118.709933 38.485818 
L 118.670187 38.516094 
L 118.113588 39.212151 
L 118.073843 39.171374 
L 117.755798 38.906821 
L 117.477499 39.055287 
L 117.199281 38.692614 
L 117.159536 38.75982 
L 116.960727 38.964692 
L 116.801664 38.997812 
L 116.563192 39.249315 
L 116.364383 39.014743 
L 116.165656 38.706095 
L 116.125911 38.744817 
L 115.927102 39.394212 
L 115.609057 40.108841 
L 115.489821 39.978703 
L 115.052458 39.233132 
L 114.933222 39.247488 
L 114.575432 39.64447 
L 114.416369 39.491691 
L 114.257387 39.28051 
L 114.217642 39.303346 
L 113.541807 40.146278 
L 113.263508 40.076991 
L 112.985208 40.003141 
L 112.349119 40.86191 
L 112.190137 40.625364 
L 111.872093 40.242551 
L 111.593793 40.420814 
L 111.554048 40.358791 
L 111.315493 39.893639 
L 111.275748 39.930237 
L 111.037276 40.615753 
L 110.798722 41.041492 
L 110.639659 40.922813 
L 110.440932 40.807975 
L 110.003651 41.353885 
L 109.963824 41.314162 
L 109.725352 40.671362 
L 109.645779 40.825661 
L 109.407307 41.555762 
L 108.890453 41.285214 
L 108.294191 41.170674 
L 108.135128 41.429342 
L 108.095382 41.393269 
L 107.817083 41.119107 
L 107.538783 41.325766 
L 107.340057 41.449738 
L 107.220738 41.443404 
L 106.982267 41.909937 
L 106.902776 41.800681 
L 106.703967 41.521984 
L 106.505158 41.765011 
L 106.306432 42.161445 
L 106.067878 42.854868 
L 106.028132 42.799889 
L 105.789578 42.225205 
L 105.749833 42.242743 
L 105.590852 42.244343 
L 105.431788 42.252481 
L 105.233061 42.518159 
L 105.193234 42.487904 
L 104.755953 41.894886 
L 104.716208 41.983588 
L 104.437908 42.921581 
L 104.398163 42.853327 
L 104.080118 41.843065 
L 104.040373 41.890367 
L 103.762073 42.581309 
L 103.682583 42.525517 
L 103.563347 42.496341 
L 103.404283 42.939087 
L 103.285047 43.156131 
L 103.245302 43.105508 
L 103.006748 42.531095 
L 102.967002 42.58447 
L 102.609212 43.633229 
L 102.529722 43.508312 
L 102.330913 43.017737 
L 102.171932 43.508456 
L 102.012868 43.771363 
L 101.853887 43.51499 
L 101.655078 43.356972 
L 101.535842 43.357097 
L 101.297288 43.069564 
L 101.257542 43.102219 
L 101.098479 43.203003 
L 100.860007 42.843406 
L 100.780434 42.976443 
L 100.581707 43.491476 
L 100.541962 43.419762 
L 100.343153 42.844548 
L 100.303408 42.897196 
L 100.025108 43.76983 
L 99.945618 43.69146 
L 99.746891 43.22319 
L 99.707064 43.239871 
L 99.468592 43.87836 
L 99.389019 43.706889 
L 99.150547 43.059358 
L 99.031229 43.298891 
L 98.713184 44.211562 
L 98.673438 44.174527 
L 98.474712 44.008116 
L 98.236158 44.113097 
L 97.679559 43.562812 
L 97.560323 43.796749 
L 97.282023 44.441321 
L 97.043551 44.318604 
L 96.725507 44.057991 
L 96.526698 44.057831 
L 96.288143 44.23465 
L 96.049672 43.852404 
L 95.850863 43.560643 
L 95.254518 44.683453 
L 95.095537 45.12436 
L 95.055792 45.104126 
L 94.896728 44.928938 
L 94.856983 44.958984 
L 94.658257 45.321586 
L 94.618429 45.268307 
L 94.459448 44.415329 
L 94.340212 44.024547 
L 94.300384 44.105557 
L 93.942594 45.905632 
L 93.823358 45.793999 
L 93.704122 45.789056 
L 93.306587 46.374453 
L 93.147523 46.540561 
L 92.948797 46.81208 
L 92.908969 46.780195 
L 92.789733 46.348646 
L 92.591006 45.656494 
L 92.431943 46.06268 
L 92.074153 46.877276 
L 91.954917 46.68848 
L 91.716363 46.376141 
L 91.557299 46.437792 
L 91.318827 46.982441 
L 91.279082 46.93502 
L 91.080273 46.473748 
L 91.040528 46.529013 
L 90.801973 47.128686 
L 90.762228 47.110866 
L 90.603247 47.051162 
L 90.324947 47.57407 
L 90.245457 47.411542 
L 89.927412 46.041916 
L 89.847839 46.121224 
L 89.529794 47.289141 
L 89.450303 47.037684 
L 89.211832 45.981102 
L 89.172004 46.027264 
L 88.734723 47.106982 
L 88.535997 47.828628 
L 88.496251 47.818086 
L 88.376933 47.464624 
L 88.098634 46.620762 
L 87.979398 46.489058 
L 87.701098 45.360402 
L 87.621608 45.620476 
L 87.383053 46.545969 
L 87.263817 46.425633 
L 87.065008 46.246984 
L 86.945773 46.554334 
L 86.627728 47.623022 
L 86.190447 46.952329 
L 85.912148 45.811135 
L 85.713339 46.023641 
L 85.594103 45.604135 
L 85.435122 45.080344 
L 85.395294 45.161205 
L 84.838777 47.15795 
L 84.719459 47.032813 
L 84.520732 46.370413 
L 84.401414 46.083276 
L 84.361669 46.109432 
L 83.805152 47.266764 
L 83.725662 47.185999 
L 83.447362 46.681646 
L 83.288298 46.287755 
L 83.248553 46.306752 
L 83.089572 46.926848 
L 82.970254 47.200169 
L 82.930508 47.112141 
L 82.572718 45.291839 
L 82.493228 45.414713 
L 82.175183 46.341525 
L 82.135437 46.311259 
L 81.539093 45.745853 
L 81.499348 45.802927 
L 81.062067 46.734873 
L 81.022322 46.686542 
L 80.823513 45.997363 
L 80.505468 45.241831 
L 80.425977 45.310775 
L 80.187423 45.808103 
L 80.147678 45.742791 
L 79.988614 45.019093 
L 79.789888 44.083308 
L 79.750142 44.1819 
L 79.471843 45.724199 
L 79.392352 45.63993 
L 79.153798 45.275481 
L 79.034562 45.446809 
L 78.756263 45.946921 
L 78.597199 46.124201 
L 78.199664 46.895676 
L 78.159918 46.839246 
L 77.722638 45.908476 
L 77.603319 46.181581 
L 77.325102 46.920056 
L 77.046803 47.099195 
L 76.927484 46.778311 
L 76.689013 46.116447 
L 76.569777 46.353134 
L 76.251732 47.42543 
L 76.172159 47.355708 
L 75.893942 47.052832 
L 75.655387 46.84789 
L 75.337343 46.223791 
L 75.257852 46.084699 
L 75.019298 44.991086 
L 74.939807 45.123251 
L 74.542189 46.441146 
L 74.303718 47.284113 
L 74.184482 47.148108 
L 73.985673 46.351605 
L 73.866437 45.984038 
L 73.826609 46.020616 
L 73.667628 46.370136 
L 73.627883 46.33791 
L 73.429074 46.020885 
L 73.389328 46.076296 
L 73.270093 46.183155 
L 73.230347 46.148161 
L 72.991793 45.979568 
L 72.832729 46.184456 
L 72.594258 46.630253 
L 72.474939 46.274104 
L 72.156894 44.979135 
L 72.117149 45.038663 
L 71.918423 46.107111 
L 71.719614 46.666863 
L 71.282333 46.507639 
L 70.765479 45.00684 
L 70.685989 45.2001 
L 70.208963 46.993689 
L 70.169217 46.955446 
L 69.811427 46.443942 
L 69.453555 44.503133 
L 69.374064 44.739494 
L 69.016274 46.478765 
L 68.897038 46.696413 
L 68.857293 46.65734 
L 68.698229 45.836809 
L 68.578993 45.382015 
L 68.539248 45.399931 
L 68.300694 45.995962 
L 68.260948 45.945706 
L 68.022394 45.318306 
L 67.982649 45.383449 
L 67.783922 45.791638 
L 67.744177 45.744444 
L 67.465878 45.022004 
L 67.386304 45.125087 
L 67.108087 46.102996 
L 67.028597 46.00754 
L 66.670724 45.156245 
L 66.511743 45.237583 
L 65.875653 46.616337 
L 65.835908 46.554189 
L 65.637099 46.002338 
L 65.597354 46.031339 
L 65.358882 46.440389 
L 65.319054 46.385374 
L 64.921519 45.745791 
L 64.802283 45.895326 
L 64.563729 46.15871 
L 64.365002 46.08608 
L 63.689167 47.122579 
L 63.132568 46.637988 
L 63.013332 46.621414 
L 62.735033 47.135117 
L 62.655542 47.019975 
L 62.138689 46.125235 
L 62.019453 46.249321 
L 61.582172 47.007172 
L 61.502599 46.942467 
L 61.105063 46.703656 
L 60.906255 46.625457 
L 60.707528 46.065654 
L 60.667783 46.137891 
L 60.389483 47.551822 
L 60.309993 47.398314 
L 60.190674 47.144192 
L 60.150929 47.160616 
L 59.991948 47.30715 
L 59.832884 46.805923 
L 59.554667 46.277457 
L 59.435349 46.238686 
L 59.236622 46.717671 
L 58.998068 47.42452 
L 58.958323 47.39563 
L 58.799259 46.783456 
L 58.680023 46.350659 
L 58.680023 46.350659 
" clip-path="url(#pe774f268e8)" style="fill: none; stroke: #1f77b4; stroke-width: 1.5; stroke-linecap: square"/>
   </g>
   <g id="patch_3">
    <path d="M 44.845313 348.478125 
L 44.845313 22.318125 
" style="fill: none; stroke: #000000; stroke-width: 0.8; stroke-linejoin: miter; stroke-linecap: square"/>
   </g>
   <g id="patch_4">
    <path d="M 349.208949 348.478125 
L 349.208949 22.318125 
" style="fill: none; stroke: #000000; stroke-width: 0.8; stroke-linejoin: miter; stroke-linecap: square"/>
   </g>
   <g id="patch_5">
    <path d="M 44.845313 348.478125 
L 349.208949 348.478125 
" style="fill: none; stroke: #000000; stroke-width: 0.8; stroke-linejoin: miter; stroke-linecap: square"/>
   </g>
   <g id="patch_6">
    <path d="M 44.845313 22.318125 
L 349.208949 22.318125 
" style="fill: none; stroke: #000000; stroke-width: 0.8; stroke-linejoin: miter; stroke-linecap: square"/>
   </g>
   <g id="text_15">
    <!-- Extracted Toluene Spectrum -->
    <g transform="translate(112.176818 16.318125)scale(0.12 -0.12)">
     <defs>
      <path id="DejaVuSans-45" d="M 628 4666 
L 3578 4666 
L 3578 4134 
L 1259 4134 
L 1259 2753 
L 3481 2753 
L 3481 2222 
L 1259 2222 
L 1259 531 
L 3634 531 
L 3634 0 
L 628 0 
L 628 4666 
z
" transform="scale(0.015625)"/>
      <path id="DejaVuSans-78" d="M 3513 3500 
L 2247 1797 
L 3578 0 
L 2900 0 
L 1881 1375 
L 863 0 
L 184 0 
L 1544 1831 
L 300 3500 
L 978 3500 
L 1906 2253 
L 2834 3500 
L 3513 3500 
z
" transform="scale(0.015625)"/>
      <path id="DejaVuSans-74" d="M 1172 4494 
L 1172 3500 
L 2356 3500 
L 2356 3053 
L 1172 3053 
L 1172 1153 
Q 1172 725 1289 603 
Q 1406 481 1766 481 
L 2356 481 
L 2356 0 
L 1766 0 
Q 1100 0 847 248 
Q 594 497 594 1153 
L 594 3053 
L 172 3053 
L 172 3500 
L 594 3500 
L 594 4494 
L 1172 4494 
z
" transform="scale(0.015625)"/>
      <path id="DejaVuSans-64" d="M 2906 2969 
L 2906 4863 
L 3481 4863 
L 3481 0 
L 2906 0 
L 2906 525 
Q 2725 213 2448 61 
Q 2172 -91 1784 -91 
Q 1150 -91 751 415 
Q 353 922 353 1747 
Q 353 2572 751 3078 
Q 1150 3584 1784 3584 
Q 2172 3584 2448 3432 
Q 2725 3281 2906 2969 
z
M 947 1747 
Q 947 1113 1208 752 
Q 1469 391 1925 391 
Q 2381 391 2643 752 
Q 2906 1113 2906 1747 
Q 2906 2381 2643 2742 
Q 2381 3103 1925 3103 
Q 1469 3103 1208 2742 
Q 947 2381 947 1747 
z
" transform="scale(0.015625)"/>
      <path id="DejaVuSans-54" d="M -19 4666 
L 3928 4666 
L 3928 4134 
L 2272 4134 
L 2272 0 
L 1638 0 
L 1638 4134 
L -19 4134 
L -19 4666 
z
" transform="scale(0.015625)"/>
      <path id="DejaVuSans-6f" d="M 1959 3097 
Q 1497 3097 1228 2736 
Q 959 2375 959 1747 
Q 959 1119 1226 758 
Q 1494 397 1959 397 
Q 2419 397 2687 759 
Q 2956 1122 2956 1747 
Q 2956 2369 2687 2733 
Q 2419 3097 1959 3097 
z
M 1959 3584 
Q 2709 3584 3137 3096 
Q 3566 2609 3566 1747 
Q 3566 888 3137 398 
Q 2709 -91 1959 -91 
Q 1206 -91 779 398 
Q 353 888 353 1747 
Q 353 2609 779 3096 
Q 1206 3584 1959 3584 
z
" transform="scale(0.015625)"/>
      <path id="DejaVuSans-6c" d="M 603 4863 
L 1178 4863 
L 1178 0 
L 603 0 
L 603 4863 
z
" transform="scale(0.015625)"/>
      <path id="DejaVuSans-53" d="M 3425 4513 
L 3425 3897 
Q 3066 4069 2747 4153 
Q 2428 4238 2131 4238 
Q 1616 4238 1336 4038 
Q 1056 3838 1056 3469 
Q 1056 3159 1242 3001 
Q 1428 2844 1947 2747 
L 2328 2669 
Q 3034 2534 3370 2195 
Q 3706 1856 3706 1288 
Q 3706 609 3251 259 
Q 2797 -91 1919 -91 
Q 1588 -91 1214 -16 
Q 841 59 441 206 
L 441 856 
Q 825 641 1194 531 
Q 1563 422 1919 422 
Q 2459 422 2753 634 
Q 3047 847 3047 1241 
Q 3047 1584 2836 1778 
Q 2625 1972 2144 2069 
L 1759 2144 
Q 1053 2284 737 2584 
Q 422 2884 422 3419 
Q 422 4038 858 4394 
Q 1294 4750 2059 4750 
Q 2388 4750 2728 4690 
Q 3069 4631 3425 4513 
z
" transform="scale(0.015625)"/>
      <path id="DejaVuSans-70" d="M 1159 525 
L 1159 -1331 
L 581 -1331 
L 581 3500 
L 1159 3500 
L 1159 2969 
Q 1341 3281 1617 3432 
Q 1894 3584 2278 3584 
Q 2916 3584 3314 3078 
Q 3713 2572 3713 1747 
Q 3713 922 3314 415 
Q 2916 -91 2278 -91 
Q 1894 -91 1617 61 
Q 1341 213 1159 525 
z
M 3116 1747 
Q 3116 2381 2855 2742 
Q 2594 3103 2138 3103 
Q 1681 3103 1420 2742 
Q 1159 2381 1159 1747 
Q 1159 1113 1420 752 
Q 1681 391 2138 391 
Q 2594 391 2855 752 
Q 3116 1113 3116 1747 
z
" transform="scale(0.015625)"/>
     </defs>
     <use xlink:href="#DejaVuSans-45"/>
     <use xlink:href="#DejaVuSans-78" x="63.183594"/>
     <use xlink:href="#DejaVuSans-74" x="122.363281"/>
     <use xlink:href="#DejaVuSans-72" x="161.572266"/>
     <use xlink:href="#DejaVuSans-61" x="202.685547"/>
     <use xlink:href="#DejaVuSans-63" x="263.964844"/>
     <use xlink:href="#DejaVuSans-74" x="318.945312"/>
     <use xlink:href="#DejaVuSans-65" x="358.154297"/>
     <use xlink:href="#DejaVuSans-64" x="419.677734"/>
     <use xlink:href="#DejaVuSans-20" x="483.154297"/>
     <use xlink:href="#DejaVuSans-54" x="514.941406"/>
     <use xlink:href="#DejaVuSans-6f" x="559.025391"/>
     <use xlink:href="#DejaVuSans-6c" x="620.207031"/>
     <use xlink:href="#DejaVuSans-75" x="647.990234"/>
     <use xlink:href="#DejaVuSans-65" x="711.369141"/>
     <use xlink:href="#DejaVuSans-6e" x="772.892578"/>
     <use xlink:href="#DejaVuSans-65" x="836.271484"/>
     <use xlink:href="#DejaVuSans-20" x="897.794922"/>
     <use xlink:href="#DejaVuSans-53" x="929.582031"/>
     <use xlink:href="#DejaVuSans-70" x="993.058594"/>
     <use xlink:href="#DejaVuSans-65" x="1056.535156"/>
     <use xlink:href="#DejaVuSans-63" x="1118.058594"/>
     <use xlink:href="#DejaVuSans-74" x="1173.039062"/>
     <use xlink:href="#DejaVuSans-72" x="1212.248047"/>
     <use xlink:href="#DejaVuSans-75" x="1253.361328"/>
     <use xlink:href="#DejaVuSans-6d" x="1316.740234"/>
    </g>
   </g>
  </g>
  <g id="axes_2">
   <g id="patch_7">
    <path d="M 410.081676 348.478125 
L 714.445312 348.478125 
L 714.445312 22.318125 
L 410.081676 22.318125 
z
" style="fill: #ffffff"/>
   </g>
   <g id="matplotlib.axis_3">
    <g id="xtick_9">
     <g id="line2d_15">
      <g>
       <use xlink:href="#mba25c068ff" x="712.533366" y="348.478125" style="stroke: #000000; stroke-width: 0.8"/>
      </g>
     </g>
     <g id="text_16">
      <!-- 500 -->
      <g transform="translate(702.989616 363.076562)scale(0.1 -0.1)">
       <use xlink:href="#DejaVuSans-35"/>
       <use xlink:href="#DejaVuSans-30" x="63.623047"/>
       <use xlink:href="#DejaVuSans-30" x="127.246094"/>
      </g>
     </g>
    </g>
    <g id="xtick_10">
     <g id="line2d_16">
      <g>
       <use xlink:href="#mba25c068ff" x="671.303806" y="348.478125" style="stroke: #000000; stroke-width: 0.8"/>
      </g>
     </g>
     <g id="text_17">
      <!-- 1000 -->
      <g transform="translate(658.578806 363.076562)scale(0.1 -0.1)">
       <use xlink:href="#DejaVuSans-31"/>
       <use xlink:href="#DejaVuSans-30" x="63.623047"/>
       <use xlink:href="#DejaVuSans-30" x="127.246094"/>
       <use xlink:href="#DejaVuSans-30" x="190.869141"/>
      </g>
     </g>
    </g>
    <g id="xtick_11">
     <g id="line2d_17">
      <g>
       <use xlink:href="#mba25c068ff" x="630.074246" y="348.478125" style="stroke: #000000; stroke-width: 0.8"/>
      </g>
     </g>
     <g id="text_18">
      <!-- 1500 -->
      <g transform="translate(617.349246 363.076562)scale(0.1 -0.1)">
       <use xlink:href="#DejaVuSans-31"/>
       <use xlink:href="#DejaVuSans-35" x="63.623047"/>
       <use xlink:href="#DejaVuSans-30" x="127.246094"/>
       <use xlink:href="#DejaVuSans-30" x="190.869141"/>
      </g>
     </g>
    </g>
    <g id="xtick_12">
     <g id="line2d_18">
      <g>
       <use xlink:href="#mba25c068ff" x="588.844686" y="348.478125" style="stroke: #000000; stroke-width: 0.8"/>
      </g>
     </g>
     <g id="text_19">
      <!-- 2000 -->
      <g transform="translate(576.119686 363.076562)scale(0.1 -0.1)">
       <use xlink:href="#DejaVuSans-32"/>
       <use xlink:href="#DejaVuSans-30" x="63.623047"/>
       <use xlink:href="#DejaVuSans-30" x="127.246094"/>
       <use xlink:href="#DejaVuSans-30" x="190.869141"/>
      </g>
     </g>
    </g>
    <g id="xtick_13">
     <g id="line2d_19">
      <g>
       <use xlink:href="#mba25c068ff" x="547.615126" y="348.478125" style="stroke: #000000; stroke-width: 0.8"/>
      </g>
     </g>
     <g id="text_20">
      <!-- 2500 -->
      <g transform="translate(534.890126 363.076562)scale(0.1 -0.1)">
       <use xlink:href="#DejaVuSans-32"/>
       <use xlink:href="#DejaVuSans-35" x="63.623047"/>
       <use xlink:href="#DejaVuSans-30" x="127.246094"/>
       <use xlink:href="#DejaVuSans-30" x="190.869141"/>
      </g>
     </g>
    </g>
    <g id="xtick_14">
     <g id="line2d_20">
      <g>
       <use xlink:href="#mba25c068ff" x="506.385567" y="348.478125" style="stroke: #000000; stroke-width: 0.8"/>
      </g>
     </g>
     <g id="text_21">
      <!-- 3000 -->
      <g transform="translate(493.660567 363.076562)scale(0.1 -0.1)">
       <use xlink:href="#DejaVuSans-33"/>
       <use xlink:href="#DejaVuSans-30" x="63.623047"/>
       <use xlink:href="#DejaVuSans-30" x="127.246094"/>
       <use xlink:href="#DejaVuSans-30" x="190.869141"/>
      </g>
     </g>
    </g>
    <g id="xtick_15">
     <g id="line2d_21">
      <g>
       <use xlink:href="#mba25c068ff" x="465.156007" y="348.478125" style="stroke: #000000; stroke-width: 0.8"/>
      </g>
     </g>
     <g id="text_22">
      <!-- 3500 -->
      <g transform="translate(452.431007 363.076562)scale(0.1 -0.1)">
       <use xlink:href="#DejaVuSans-33"/>
       <use xlink:href="#DejaVuSans-35" x="63.623047"/>
       <use xlink:href="#DejaVuSans-30" x="127.246094"/>
       <use xlink:href="#DejaVuSans-30" x="190.869141"/>
      </g>
     </g>
    </g>
    <g id="xtick_16">
     <g id="line2d_22">
      <g>
       <use xlink:href="#mba25c068ff" x="423.926447" y="348.478125" style="stroke: #000000; stroke-width: 0.8"/>
      </g>
     </g>
     <g id="text_23">
      <!-- 4000 -->
      <g transform="translate(411.201447 363.076562)scale(0.1 -0.1)">
       <use xlink:href="#DejaVuSans-34"/>
       <use xlink:href="#DejaVuSans-30" x="63.623047"/>
       <use xlink:href="#DejaVuSans-30" x="127.246094"/>
       <use xlink:href="#DejaVuSans-30" x="190.869141"/>
      </g>
     </g>
    </g>
    <g id="text_24">
     <!-- Wavenumbers, cm$^{-1}$ -->
     <g transform="translate(509.913494 377.276562)scale(0.1 -0.1)">
      <use xlink:href="#DejaVuSans-57" transform="translate(0 0.684375)"/>
      <use xlink:href="#DejaVuSans-61" transform="translate(98.876953 0.684375)"/>
      <use xlink:href="#DejaVuSans-76" transform="translate(160.15625 0.684375)"/>
      <use xlink:href="#DejaVuSans-65" transform="translate(219.335938 0.684375)"/>
      <use xlink:href="#DejaVuSans-6e" transform="translate(280.859375 0.684375)"/>
      <use xlink:href="#DejaVuSans-75" transform="translate(344.238281 0.684375)"/>
      <use xlink:href="#DejaVuSans-6d" transform="translate(407.617188 0.684375)"/>
      <use xlink:href="#DejaVuSans-62" transform="translate(505.029297 0.684375)"/>
      <use xlink:href="#DejaVuSans-65" transform="translate(568.505859 0.684375)"/>
      <use xlink:href="#DejaVuSans-72" transform="translate(630.029297 0.684375)"/>
      <use xlink:href="#DejaVuSans-73" transform="translate(671.142578 0.684375)"/>
      <use xlink:href="#DejaVuSans-2c" transform="translate(723.242188 0.684375)"/>
      <use xlink:href="#DejaVuSans-20" transform="translate(755.029297 0.684375)"/>
      <use xlink:href="#DejaVuSans-63" transform="translate(786.816406 0.684375)"/>
      <use xlink:href="#DejaVuSans-6d" transform="translate(841.796875 0.684375)"/>
      <use xlink:href="#DejaVuSans-2212" transform="translate(940.166016 38.965625)scale(0.7)"/>
      <use xlink:href="#DejaVuSans-31" transform="translate(998.818359 38.965625)scale(0.7)"/>
     </g>
    </g>
   </g>
   <g id="matplotlib.axis_4">
    <g id="ytick_6">
     <g id="line2d_23">
      <g>
       <use xlink:href="#m09a206bc78" x="410.081676" y="327.674008" style="stroke: #000000; stroke-width: 0.8"/>
      </g>
     </g>
     <g id="text_25">
      <!-- 30 -->
      <g transform="translate(390.356676 331.473226)scale(0.1 -0.1)">
       <use xlink:href="#DejaVuSans-33"/>
       <use xlink:href="#DejaVuSans-30" x="63.623047"/>
      </g>
     </g>
    </g>
    <g id="ytick_7">
     <g id="line2d_24">
      <g>
       <use xlink:href="#m09a206bc78" x="410.081676" y="285.094579" style="stroke: #000000; stroke-width: 0.8"/>
      </g>
     </g>
     <g id="text_26">
      <!-- 40 -->
      <g transform="translate(390.356676 288.893798)scale(0.1 -0.1)">
       <use xlink:href="#DejaVuSans-34"/>
       <use xlink:href="#DejaVuSans-30" x="63.623047"/>
      </g>
     </g>
    </g>
    <g id="ytick_8">
     <g id="line2d_25">
      <g>
       <use xlink:href="#m09a206bc78" x="410.081676" y="242.51515" style="stroke: #000000; stroke-width: 0.8"/>
      </g>
     </g>
     <g id="text_27">
      <!-- 50 -->
      <g transform="translate(390.356676 246.314369)scale(0.1 -0.1)">
       <use xlink:href="#DejaVuSans-35"/>
       <use xlink:href="#DejaVuSans-30" x="63.623047"/>
      </g>
     </g>
    </g>
    <g id="ytick_9">
     <g id="line2d_26">
      <g>
       <use xlink:href="#m09a206bc78" x="410.081676" y="199.935721" style="stroke: #000000; stroke-width: 0.8"/>
      </g>
     </g>
     <g id="text_28">
      <!-- 60 -->
      <g transform="translate(390.356676 203.73494)scale(0.1 -0.1)">
       <defs>
        <path id="DejaVuSans-36" d="M 2113 2584 
Q 1688 2584 1439 2293 
Q 1191 2003 1191 1497 
Q 1191 994 1439 701 
Q 1688 409 2113 409 
Q 2538 409 2786 701 
Q 3034 994 3034 1497 
Q 3034 2003 2786 2293 
Q 2538 2584 2113 2584 
z
M 3366 4563 
L 3366 3988 
Q 3128 4100 2886 4159 
Q 2644 4219 2406 4219 
Q 1781 4219 1451 3797 
Q 1122 3375 1075 2522 
Q 1259 2794 1537 2939 
Q 1816 3084 2150 3084 
Q 2853 3084 3261 2657 
Q 3669 2231 3669 1497 
Q 3669 778 3244 343 
Q 2819 -91 2113 -91 
Q 1303 -91 875 529 
Q 447 1150 447 2328 
Q 447 3434 972 4092 
Q 1497 4750 2381 4750 
Q 2619 4750 2861 4703 
Q 3103 4656 3366 4563 
z
" transform="scale(0.015625)"/>
       </defs>
       <use xlink:href="#DejaVuSans-36"/>
       <use xlink:href="#DejaVuSans-30" x="63.623047"/>
      </g>
     </g>
    </g>
    <g id="ytick_10">
     <g id="line2d_27">
      <g>
       <use xlink:href="#m09a206bc78" x="410.081676" y="157.356293" style="stroke: #000000; stroke-width: 0.8"/>
      </g>
     </g>
     <g id="text_29">
      <!-- 70 -->
      <g transform="translate(390.356676 161.155511)scale(0.1 -0.1)">
       <defs>
        <path id="DejaVuSans-37" d="M 525 4666 
L 3525 4666 
L 3525 4397 
L 1831 0 
L 1172 0 
L 2766 4134 
L 525 4134 
L 525 4666 
z
" transform="scale(0.015625)"/>
       </defs>
       <use xlink:href="#DejaVuSans-37"/>
       <use xlink:href="#DejaVuSans-30" x="63.623047"/>
      </g>
     </g>
    </g>
    <g id="ytick_11">
     <g id="line2d_28">
      <g>
       <use xlink:href="#m09a206bc78" x="410.081676" y="114.776864" style="stroke: #000000; stroke-width: 0.8"/>
      </g>
     </g>
     <g id="text_30">
      <!-- 80 -->
      <g transform="translate(390.356676 118.576082)scale(0.1 -0.1)">
       <defs>
        <path id="DejaVuSans-38" d="M 2034 2216 
Q 1584 2216 1326 1975 
Q 1069 1734 1069 1313 
Q 1069 891 1326 650 
Q 1584 409 2034 409 
Q 2484 409 2743 651 
Q 3003 894 3003 1313 
Q 3003 1734 2745 1975 
Q 2488 2216 2034 2216 
z
M 1403 2484 
Q 997 2584 770 2862 
Q 544 3141 544 3541 
Q 544 4100 942 4425 
Q 1341 4750 2034 4750 
Q 2731 4750 3128 4425 
Q 3525 4100 3525 3541 
Q 3525 3141 3298 2862 
Q 3072 2584 2669 2484 
Q 3125 2378 3379 2068 
Q 3634 1759 3634 1313 
Q 3634 634 3220 271 
Q 2806 -91 2034 -91 
Q 1263 -91 848 271 
Q 434 634 434 1313 
Q 434 1759 690 2068 
Q 947 2378 1403 2484 
z
M 1172 3481 
Q 1172 3119 1398 2916 
Q 1625 2713 2034 2713 
Q 2441 2713 2670 2916 
Q 2900 3119 2900 3481 
Q 2900 3844 2670 4047 
Q 2441 4250 2034 4250 
Q 1625 4250 1398 4047 
Q 1172 3844 1172 3481 
z
" transform="scale(0.015625)"/>
       </defs>
       <use xlink:href="#DejaVuSans-38"/>
       <use xlink:href="#DejaVuSans-30" x="63.623047"/>
      </g>
     </g>
    </g>
    <g id="ytick_12">
     <g id="line2d_29">
      <g>
       <use xlink:href="#m09a206bc78" x="410.081676" y="72.197435" style="stroke: #000000; stroke-width: 0.8"/>
      </g>
     </g>
     <g id="text_31">
      <!-- 90 -->
      <g transform="translate(390.356676 75.996654)scale(0.1 -0.1)">
       <defs>
        <path id="DejaVuSans-39" d="M 703 97 
L 703 672 
Q 941 559 1184 500 
Q 1428 441 1663 441 
Q 2288 441 2617 861 
Q 2947 1281 2994 2138 
Q 2813 1869 2534 1725 
Q 2256 1581 1919 1581 
Q 1219 1581 811 2004 
Q 403 2428 403 3163 
Q 403 3881 828 4315 
Q 1253 4750 1959 4750 
Q 2769 4750 3195 4129 
Q 3622 3509 3622 2328 
Q 3622 1225 3098 567 
Q 2575 -91 1691 -91 
Q 1453 -91 1209 -44 
Q 966 3 703 97 
z
M 1959 2075 
Q 2384 2075 2632 2365 
Q 2881 2656 2881 3163 
Q 2881 3666 2632 3958 
Q 2384 4250 1959 4250 
Q 1534 4250 1286 3958 
Q 1038 3666 1038 3163 
Q 1038 2656 1286 2365 
Q 1534 2075 1959 2075 
z
" transform="scale(0.015625)"/>
       </defs>
       <use xlink:href="#DejaVuSans-39"/>
       <use xlink:href="#DejaVuSans-30" x="63.623047"/>
      </g>
     </g>
    </g>
    <g id="ytick_13">
     <g id="line2d_30">
      <g>
       <use xlink:href="#m09a206bc78" x="410.081676" y="29.618006" style="stroke: #000000; stroke-width: 0.8"/>
      </g>
     </g>
     <g id="text_32">
      <!-- 100 -->
      <g transform="translate(383.994176 33.417225)scale(0.1 -0.1)">
       <use xlink:href="#DejaVuSans-31"/>
       <use xlink:href="#DejaVuSans-30" x="63.623047"/>
       <use xlink:href="#DejaVuSans-30" x="127.246094"/>
      </g>
     </g>
    </g>
    <g id="text_33">
     <!-- Transmittance, % -->
     <g transform="translate(377.914489 228.774687)rotate(-90)scale(0.1 -0.1)">
      <defs>
       <path id="DejaVuSans-69" d="M 603 3500 
L 1178 3500 
L 1178 0 
L 603 0 
L 603 3500 
z
M 603 4863 
L 1178 4863 
L 1178 4134 
L 603 4134 
L 603 4863 
z
" transform="scale(0.015625)"/>
       <path id="DejaVuSans-25" d="M 4653 2053 
Q 4381 2053 4226 1822 
Q 4072 1591 4072 1178 
Q 4072 772 4226 539 
Q 4381 306 4653 306 
Q 4919 306 5073 539 
Q 5228 772 5228 1178 
Q 5228 1588 5073 1820 
Q 4919 2053 4653 2053 
z
M 4653 2450 
Q 5147 2450 5437 2106 
Q 5728 1763 5728 1178 
Q 5728 594 5436 251 
Q 5144 -91 4653 -91 
Q 4153 -91 3862 251 
Q 3572 594 3572 1178 
Q 3572 1766 3864 2108 
Q 4156 2450 4653 2450 
z
M 1428 4353 
Q 1159 4353 1004 4120 
Q 850 3888 850 3481 
Q 850 3069 1003 2837 
Q 1156 2606 1428 2606 
Q 1700 2606 1854 2837 
Q 2009 3069 2009 3481 
Q 2009 3884 1853 4118 
Q 1697 4353 1428 4353 
z
M 4250 4750 
L 4750 4750 
L 1831 -91 
L 1331 -91 
L 4250 4750 
z
M 1428 4750 
Q 1922 4750 2215 4408 
Q 2509 4066 2509 3481 
Q 2509 2891 2217 2550 
Q 1925 2209 1428 2209 
Q 931 2209 642 2551 
Q 353 2894 353 3481 
Q 353 4063 643 4406 
Q 934 4750 1428 4750 
z
" transform="scale(0.015625)"/>
      </defs>
      <use xlink:href="#DejaVuSans-54"/>
      <use xlink:href="#DejaVuSans-72" x="46.333984"/>
      <use xlink:href="#DejaVuSans-61" x="87.447266"/>
      <use xlink:href="#DejaVuSans-6e" x="148.726562"/>
      <use xlink:href="#DejaVuSans-73" x="212.105469"/>
      <use xlink:href="#DejaVuSans-6d" x="264.205078"/>
      <use xlink:href="#DejaVuSans-69" x="361.617188"/>
      <use xlink:href="#DejaVuSans-74" x="389.400391"/>
      <use xlink:href="#DejaVuSans-74" x="428.609375"/>
      <use xlink:href="#DejaVuSans-61" x="467.818359"/>
      <use xlink:href="#DejaVuSans-6e" x="529.097656"/>
      <use xlink:href="#DejaVuSans-63" x="592.476562"/>
      <use xlink:href="#DejaVuSans-65" x="647.457031"/>
      <use xlink:href="#DejaVuSans-2c" x="708.980469"/>
      <use xlink:href="#DejaVuSans-20" x="740.767578"/>
      <use xlink:href="#DejaVuSans-25" x="772.554688"/>
     </g>
    </g>
   </g>
   <g id="line2d_31">
    <path d="M 700.610602 73.69325 
L 699.417954 80.96488 
L 698.980649 85.660369 
L 698.781873 89.947181 
L 697.708494 117.50348 
L 697.509718 123.342823 
L 697.310942 136.447494 
L 697.072413 170.677778 
L 696.595354 280.529255 
L 696.515847 270.388283 
L 695.840012 113.329589 
L 695.561729 102.902142 
L 695.521967 102.647688 
L 695.482213 102.68405 
L 695.362953 104.423335 
L 695.164177 112.175857 
L 694.885894 132.438172 
L 694.607611 167.757084 
L 694.32932 232.968459 
L 693.892022 333.65267 
L 693.812507 328.543693 
L 693.653493 293.464162 
L 692.977658 115.881076 
L 692.659613 87.157462 
L 692.301823 73.978107 
L 691.78501 64.930404 
L 691.347705 60.255225 
L 691.109175 59.222418 
L 690.473094 58.235853 
L 689.876774 58.624646 
L 689.598483 59.299232 
L 689.399715 60.351284 
L 689.041917 64.172405 
L 688.96241 63.852676 
L 688.366082 57.971222 
L 688.008292 57.662223 
L 687.690247 57.613384 
L 687.411964 57.792431 
L 687.133681 57.885595 
L 686.895152 57.971094 
L 686.696376 58.049611 
L 686.338586 57.8913 
L 686.100056 58.014525 
L 685.90128 58.052421 
L 685.662751 58.475703 
L 684.589364 61.029404 
L 684.311081 61.492839 
L 684.19182 61.38243 
L 683.754515 60.209452 
L 683.197949 58.88553 
L 682.800397 58.660115 
L 682.641374 58.820937 
L 681.886032 59.981695 
L 681.72701 59.961214 
L 681.289713 59.672824 
L 681.13069 59.87069 
L 680.812654 60.705205 
L 680.574124 62.191099 
L 680.335595 65.224798 
L 679.977796 70.831317 
L 679.938043 70.810623 
L 679.818774 69.585357 
L 679.262208 61.784082 
L 678.983925 60.834603 
L 678.586373 60.242835 
L 678.06956 59.679466 
L 677.751524 59.77395 
L 677.512994 60.081544 
L 677.075689 60.790236 
L 676.837159 60.436103 
L 676.59863 60.297506 
L 676.320347 60.398462 
L 675.286713 61.505272 
L 674.968677 61.79758 
L 674.571125 62.481831 
L 674.173581 63.202786 
L 673.974805 63.190523 
L 673.776029 63.1984 
L 673.338724 63.616701 
L 672.742404 64.319857 
L 672.18583 64.07328 
L 671.907547 64.276341 
L 671.549757 64.760086 
L 671.112418 65.809626 
L 671.072673 65.791956 
L 670.675138 65.448681 
L 670.476411 65.784036 
L 670.237857 66.599347 
L 669.919812 68.430646 
L 669.641513 71.515142 
L 669.363213 76.696335 
L 669.204232 83.799691 
L 668.846442 108.937947 
L 668.806696 107.573702 
L 668.329588 80.274625 
L 668.289843 80.344668 
L 667.932053 82.009779 
L 667.892307 81.928154 
L 667.733244 80.825943 
L 667.375454 75.69938 
L 666.898428 69.839897 
L 666.580383 68.020691 
L 666.302083 67.369864 
L 666.143102 67.417724 
L 665.984038 67.743882 
L 665.785312 68.714097 
L 665.507012 71.572795 
L 665.228713 77.168966 
L 664.950413 87.444149 
L 664.632368 98.479587 
L 664.552878 96.596001 
L 664.274578 78.454652 
L 663.996279 67.380467 
L 663.718062 63.949927 
L 663.439762 62.674971 
L 663.280699 62.584916 
L 663.121717 62.889529 
L 662.883163 64.02393 
L 662.565118 65.733622 
L 662.485628 65.462689 
L 662.286901 63.340275 
L 661.889283 59.555092 
L 661.571239 58.531099 
L 661.213448 57.983272 
L 660.060588 57.534698 
L 659.663052 57.752279 
L 659.185944 58.340811 
L 658.828154 59.459118 
L 658.470363 60.418049 
L 658.351127 60.301466 
L 657.476484 58.651982 
L 657.317502 58.782232 
L 657.158439 59.230211 
L 656.999458 60.491243 
L 656.721158 65.544186 
L 656.601922 66.57678 
L 656.562177 66.355793 
L 656.403113 63.225907 
L 656.124814 58.505807 
L 655.886342 57.626329 
L 655.727278 57.673464 
L 655.488807 58.153675 
L 654.494927 60.80748 
L 654.216627 62.486387 
L 654.017818 63.387155 
L 653.938328 63.144452 
L 653.620283 61.150202 
L 653.540792 61.218116 
L 653.461302 61.259035 
L 653.381729 61.013139 
L 652.984193 58.163213 
L 652.904703 58.303384 
L 652.467422 59.385157 
L 652.308358 59.206494 
L 652.069804 58.349711 
L 651.433797 55.719026 
L 651.076007 55.404832 
L 650.678389 55.243669 
L 649.923063 54.132261 
L 649.446037 53.982381 
L 648.094367 54.142522 
L 647.418532 54.238028 
L 647.060742 54.445177 
L 646.186098 55.202495 
L 645.987372 55.446304 
L 645.470518 56.626862 
L 645.430773 56.588923 
L 644.834429 55.913486 
L 644.397148 56.196426 
L 644.118848 56.697245 
L 643.800804 57.123678 
L 643.562332 57.317968 
L 643.124969 58.241899 
L 641.375763 64.211748 
L 641.057718 65.417129 
L 640.898737 65.900789 
L 640.660183 67.745245 
L 640.421629 71.609328 
L 640.103584 77.018278 
L 640.024093 76.392147 
L 639.745794 69.607115 
L 639.427749 64.71376 
L 639.109704 62.064297 
L 638.791742 61.222076 
L 638.553188 60.899026 
L 638.155652 60.769031 
L 637.241263 62.512701 
L 636.923218 63.974794 
L 636.446192 65.669199 
L 635.810103 67.735622 
L 635.611294 68.693872 
L 635.174013 72.685778 
L 634.776477 79.326168 
L 633.862088 93.423919 
L 633.623534 95.339227 
L 633.464553 95.293582 
L 633.345317 94.993354 
L 633.146508 93.645502 
L 632.907954 89.579039 
L 632.152628 77.37041 
L 631.794838 74.345695 
L 631.675602 74.05773 
L 631.635775 74.078977 
L 631.516539 74.591761 
L 631.357557 76.82667 
L 631.158749 83.533441 
L 630.920277 100.182765 
L 630.681723 139.324245 
L 630.522659 161.495737 
L 630.482914 161.477002 
L 630.363678 143.256328 
L 630.005888 75.749368 
L 629.767333 65.92276 
L 629.369798 59.700032 
L 629.051753 58.232191 
L 628.932517 58.146394 
L 628.892772 58.177945 
L 628.654218 58.591136 
L 628.455409 59.672568 
L 628.177109 61.628965 
L 628.137364 61.592262 
L 628.018128 60.752212 
L 627.620593 56.75311 
L 627.501274 56.730457 
L 627.382038 56.775805 
L 627.342293 56.723645 
L 627.143484 56.439981 
L 626.905012 56.70112 
L 626.865267 56.61545 
L 626.189432 54.560056 
L 625.911133 54.67353 
L 625.632833 54.763799 
L 625.513597 54.972779 
L 625.314788 55.575576 
L 625.275043 55.551987 
L 625.036489 54.992323 
L 624.996743 55.055596 
L 624.718444 56.043098 
L 624.281163 57.625988 
L 623.923373 57.777826 
L 623.406519 56.353672 
L 623.287283 56.500997 
L 622.770512 57.526395 
L 622.611448 57.826111 
L 622.452467 58.599439 
L 622.213913 61.312898 
L 621.975359 66.840262 
L 621.736887 79.668209 
L 621.498333 90.589491 
L 621.418842 88.239405 
L 620.782753 55.397381 
L 620.504453 54.556522 
L 620.305644 54.203666 
L 620.146663 54.557587 
L 619.947854 54.839931 
L 619.788873 54.519478 
L 619.590064 53.599848 
L 619.192528 51.559484 
L 618.953974 51.165539 
L 618.596184 50.038547 
L 618.357712 49.822584 
L 618.039667 50.294151 
L 617.960094 50.196729 
L 617.840859 50.086661 
L 617.801113 50.11651 
L 617.562559 50.718455 
L 617.483068 50.582839 
L 617.204769 49.780813 
L 616.966215 49.73866 
L 616.767488 49.830716 
L 616.608507 49.473901 
L 616.449443 49.274842 
L 616.091653 49.695229 
L 616.012163 49.619097 
L 615.892844 49.627868 
L 615.654373 49.818794 
L 615.614627 49.779281 
L 615.376073 49.58844 
L 615.217009 49.716178 
L 615.018283 50.078529 
L 614.978538 50.044508 
L 614.700238 49.164263 
L 614.620747 49.229921 
L 614.382193 49.353869 
L 614.262957 49.468323 
L 613.666613 50.738467 
L 613.626868 50.719605 
L 613.428059 50.33524 
L 613.388313 50.375265 
L 612.911287 51.476326 
L 612.593243 52.688733 
L 612.116134 54.80442 
L 611.877662 55.40347 
L 611.003019 58.918955 
L 610.605483 60.728368 
L 610.446419 60.885401 
L 610.327184 60.56763 
L 609.134577 55.59959 
L 608.140698 52.915511 
L 607.584098 52.102627 
L 607.345544 51.646942 
L 606.629964 51.028774 
L 606.431238 51.156853 
L 605.795148 52.372708 
L 605.198804 54.60502 
L 605.159058 54.582155 
L 604.999995 54.218484 
L 604.602459 52.318334 
L 604.165178 50.7291 
L 603.847134 50.335538 
L 603.489344 50.135457 
L 603.290535 50.102842 
L 602.495464 49.28289 
L 602.097928 49.41561 
L 601.938865 49.714219 
L 601.581075 50.493423 
L 601.382348 51.101925 
L 601.064303 52.819026 
L 600.666768 54.747619 
L 600.587195 54.816171 
L 600.547449 54.772698 
L 600.388468 54.179481 
L 599.951188 52.245651 
L 599.633143 52.125875 
L 598.837989 50.656374 
L 598.321218 49.258577 
L 598.122409 49.188491 
L 597.923683 49.013149 
L 597.526065 48.632872 
L 597.247848 48.763633 
L 597.088784 48.730592 
L 596.691249 48.441563 
L 596.412949 48.52455 
L 596.094904 48.603705 
L 595.896178 48.756906 
L 595.299834 49.69029 
L 595.061279 50.009678 
L 594.862553 50.22398 
L 594.504763 51.086682 
L 593.987909 53.920726 
L 593.630119 55.395507 
L 593.510883 55.17188 
L 593.232583 53.916468 
L 592.835048 52.565849 
L 592.517003 52.019512 
L 592.278449 51.800143 
L 591.682105 50.818006 
L 591.324314 49.788222 
L 590.847288 49.21621 
L 590.608734 48.915599 
L 589.455873 49.529084 
L 589.018593 48.887284 
L 588.620975 49.134074 
L 588.104203 48.66668 
L 587.706668 48.831973 
L 587.547604 48.904231 
L 587.189814 48.48972 
L 587.150069 48.544392 
L 586.95126 48.681413 
L 586.315253 48.462128 
L 586.116444 48.560657 
L 585.361118 47.840469 
L 584.844265 47.848601 
L 584.645538 47.856947 
L 584.16843 47.477394 
L 583.929875 47.380909 
L 583.691404 47.323512 
L 583.492595 47.324321 
L 583.214295 47.47667 
L 582.856505 47.326535 
L 582.697524 47.27693 
L 582.339734 47.044191 
L 581.981944 47.150554 
L 581.703644 47.048789 
L 581.147045 47.168693 
L 580.908573 47.030778 
L 580.073675 47.223025 
L 579.835203 47.197179 
L 579.517158 47.096266 
L 579.278604 47.353914 
L 579.238859 47.319552 
L 578.920814 47.015067 
L 578.284724 47.243079 
L 577.966679 47.127349 
L 577.68838 47.294813 
L 577.41008 47.18334 
L 576.972799 47.706812 
L 576.575264 47.631276 
L 576.376455 47.47122 
L 576.217474 47.763145 
L 575.939174 48.155131 
L 575.541639 47.907361 
L 575.223594 47.649117 
L 575.024785 47.814879 
L 574.905549 47.814836 
L 574.468269 47.441202 
L 574.070733 47.666872 
L 573.792434 47.819435 
L 573.63337 47.786393 
L 573.355153 47.471518 
L 573.315325 47.519675 
L 573.076853 47.769744 
L 572.082974 46.860674 
L 571.963738 46.902103 
L 571.725184 47.096947 
L 571.049349 46.724334 
L 570.810794 46.52898 
L 570.611985 46.59089 
L 570.254195 46.738513 
L 569.737424 46.659017 
L 569.49887 46.429344 
L 569.14108 46.553633 
L 568.78329 46.37646 
L 568.346009 46.280359 
L 568.107455 46.510458 
L 567.908646 46.57586 
L 567.630429 46.599491 
L 567.232811 46.644242 
L 566.596804 46.124858 
L 566.239013 46.204141 
L 565.682414 45.979322 
L 565.205388 45.928141 
L 565.006579 45.868615 
L 564.768025 45.907618 
L 564.251254 45.778006 
L 563.456101 46.648713 
L 563.01882 47.498897 
L 562.780266 47.53956 
L 562.621284 47.596616 
L 561.706895 48.840063 
L 561.30936 49.506261 
L 561.070806 49.446182 
L 560.59378 49.084257 
L 560.394971 48.435814 
L 560.116754 47.380526 
L 560.037263 47.550247 
L 559.24211 50.626781 
L 559.083129 50.607961 
L 558.88432 50.183444 
L 558.168739 48.032758 
L 557.453159 45.567664 
L 557.055624 45.123007 
L 556.817069 45.2226 
L 556.618261 45.152302 
L 556.220725 44.965719 
L 555.505145 44.969636 
L 554.869055 45.181128 
L 553.557131 44.739537 
L 552.205461 44.513057 
L 551.966989 44.537029 
L 551.41039 44.385872 
L 550.098465 44.50948 
L 549.502203 44.278529 
L 549.223904 44.348147 
L 547.872234 44.386809 
L 547.673425 44.36339 
L 547.196399 44.157476 
L 546.878354 44.233523 
L 546.600055 44.245402 
L 546.202519 44.213383 
L 546.00371 44.255834 
L 545.685666 44.18132 
L 545.407448 44.178127 
L 544.970085 44.078108 
L 544.771359 43.956373 
L 544.333996 44.124264 
L 543.499179 43.996696 
L 543.101644 43.935169 
L 542.823345 43.934232 
L 542.545045 43.894633 
L 541.590911 43.979707 
L 540.835585 44.559681 
L 540.597031 44.797785 
L 540.43805 44.682055 
L 539.841705 43.922948 
L 539.285106 43.829316 
L 539.006889 43.925333 
L 537.893691 43.438182 
L 537.535901 43.385766 
L 537.297429 43.372098 
L 536.820321 43.411144 
L 535.587969 43.203612 
L 535.30967 43.171123 
L 534.951879 43.026524 
L 533.242419 42.901383 
L 532.884629 42.827252 
L 532.646075 42.834491 
L 532.367776 42.735493 
L 531.97024 42.836875 
L 531.61245 42.859314 
L 531.175169 42.876304 
L 530.380016 42.819715 
L 529.62469 43.096993 
L 529.107919 43.575202 
L 528.869365 44.043874 
L 528.392339 45.17572 
L 528.233275 45.103719 
L 527.994721 44.500794 
L 527.47795 43.238058 
L 527.19965 43.054286 
L 526.325089 42.849649 
L 525.450445 42.946006 
L 525.1324 43.015623 
L 524.734865 43.100953 
L 524.337329 43.139019 
L 523.144641 43.430688 
L 521.594244 44.093436 
L 521.037645 44.404948 
L 520.7196 44.644201 
L 520.401555 44.806088 
L 520.163084 45.200587 
L 519.28844 47.408628 
L 518.811331 49.7938 
L 517.897025 55.100006 
L 517.618725 55.550794 
L 517.22119 55.746447 
L 516.823654 55.639402 
L 516.5851 55.184994 
L 516.267055 54.045441 
L 515.59122 51.559484 
L 515.273175 51.020301 
L 514.994876 51.008038 
L 514.835895 51.223021 
L 514.59734 52.194003 
L 514.199805 54.887279 
L 513.842015 59.379792 
L 513.16618 68.637837 
L 513.086689 68.832042 
L 513.046862 68.814116 
L 512.927626 68.359964 
L 512.689154 66.214514 
L 512.013319 59.728773 
L 511.695274 58.445812 
L 511.496465 58.381688 
L 511.218166 58.497461 
L 510.860376 58.674634 
L 510.423095 58.443854 
L 510.144795 57.835223 
L 509.628024 56.077715 
L 509.270152 55.043248 
L 509.150916 55.102603 
L 508.793126 56.002307 
L 508.713635 55.907397 
L 508.39559 55.583623 
L 507.998055 55.428208 
L 507.7595 54.922663 
L 507.40171 54.252803 
L 507.163156 54.266173 
L 506.924684 54.578451 
L 506.725875 55.207604 
L 505.890977 58.597693 
L 505.69225 59.395802 
L 505.453696 61.509104 
L 505.135651 66.72138 
L 504.777861 76.499448 
L 504.34058 87.910777 
L 504.26109 88.249667 
L 504.221345 88.169106 
L 504.102026 87.027552 
L 503.863554 81.764649 
L 503.028656 60.624048 
L 502.750356 58.617961 
L 502.511885 58.249351 
L 502.392566 58.280987 
L 502.233585 58.655175 
L 501.358941 61.60065 
L 501.239705 61.451537 
L 501.080724 60.663434 
L 500.84217 57.887511 
L 500.404807 53.027026 
L 500.12659 51.852473 
L 500.047017 51.897522 
L 499.927781 52.407922 
L 499.649481 55.075565 
L 499.331436 57.581237 
L 499.251946 57.373151 
L 499.092965 55.400872 
L 498.49662 46.276612 
L 498.258066 45.515078 
L 498.059339 45.518102 
L 497.820785 45.549994 
L 497.661722 45.1833 
L 496.906396 42.860379 
L 496.508861 42.157818 
L 496.07158 41.302738 
L 495.594471 40.991823 
L 495.196936 40.900448 
L 494.878891 40.772198 
L 494.521101 40.856293 
L 494.242802 40.741584 
L 493.964502 40.708031 
L 493.487476 40.674266 
L 493.28875 40.642502 
L 493.01045 40.569137 
L 492.692405 40.723445 
L 492.215297 40.465456 
L 492.01657 40.425091 
L 491.817761 40.383874 
L 491.579207 40.375571 
L 491.380481 40.286665 
L 491.141926 40.237145 
L 490.704646 40.457111 
L 490.545664 40.537841 
L 489.790256 39.94471 
L 489.511957 40.062442 
L 489.074676 39.895871 
L 488.796377 39.998913 
L 488.279605 40.04013 
L 487.88207 40.002149 
L 487.683261 39.956504 
L 487.444707 40.006237 
L 487.206235 39.925592 
L 486.570145 40.126567 
L 486.291846 39.99061 
L 485.934056 39.922058 
L 485.496775 39.925847 
L 485.059412 39.919545 
L 484.701622 39.771199 
L 484.46315 39.816759 
L 484.105277 39.665772 
L 483.866806 39.585127 
L 483.628251 39.851333 
L 483.46927 39.888377 
L 482.912671 39.600711 
L 482.236836 39.671776 
L 481.75981 39.576738 
L 480.646612 39.504609 
L 480.447886 39.531264 
L 479.931032 39.68357 
L 479.334687 39.400034 
L 479.05647 39.572097 
L 478.301145 39.37653 
L 478.062591 39.31347 
L 476.90973 39.151114 
L 476.671175 39.245598 
L 476.392876 39.15929 
L 476.035086 39.325222 
L 475.876022 39.227161 
L 475.557977 38.918333 
L 475.041206 39.087032 
L 474.882142 39.090098 
L 474.564098 39.29235 
L 472.13914 38.901854 
L 471.86084 38.91037 
L 471.622286 38.688404 
L 471.14526 39.045816 
L 470.787387 38.850972 
L 470.111552 38.944093 
L 469.714017 39.129016 
L 469.515291 38.870771 
L 469.276736 38.66737 
L 468.998437 38.706202 
L 468.759965 38.682826 
L 468.44192 38.766452 
L 467.964812 38.674012 
L 467.72634 38.778374 
L 467.44804 38.734858 
L 467.129996 38.852547 
L 466.414415 38.592217 
L 465.420536 38.519108 
L 465.181981 38.428201 
L 464.863937 38.451194 
L 464.227847 38.368717 
L 463.989375 38.546998 
L 463.512267 38.342531 
L 463.035241 38.454472 
L 462.756941 38.389326 
L 462.438896 38.129847 
L 461.922043 38.50148 
L 461.047481 38.404953 
L 460.769182 38.546699 
L 460.530627 38.38626 
L 460.292156 38.220711 
L 460.053601 38.463372 
L 459.735557 38.625769 
L 459.019976 38.238935 
L 458.701931 38.344319 
L 458.503205 38.370335 
L 457.906861 38.607631 
L 457.588816 38.38775 
L 457.19128 38.65813 
L 456.594936 38.397161 
L 456.316636 38.422836 
L 455.521566 38.702923 
L 455.362502 38.679207 
L 455.12403 38.547338 
L 454.567431 38.876137 
L 454.13015 38.373231 
L 453.891596 38.32188 
L 453.05678 39.175725 
L 452.579672 38.915054 
L 452.142391 38.424369 
L 451.625537 38.406145 
L 451.188256 38.879756 
L 450.989448 38.83492 
L 450.830466 38.900449 
L 450.114886 38.2334 
L 449.876332 38.489217 
L 449.558287 38.804475 
L 449.399306 38.560155 
L 449.160752 38.157949 
L 448.763216 38.173022 
L 448.405426 38.218753 
L 447.928318 38.622917 
L 447.809082 38.503098 
L 447.491037 38.023398 
L 447.133247 38.222415 
L 446.775457 38.566627 
L 446.57673 38.489345 
L 445.781577 39.080645 
L 445.741832 39.001831 
L 445.463532 38.553172 
L 445.105742 38.86464 
L 444.787697 38.407848 
L 444.747952 38.455537 
L 444.588971 38.637692 
L 444.549143 38.610654 
L 444.191435 38.15152 
L 443.754072 38.328608 
L 443.555346 38.252816 
L 443.316791 38.123332 
L 443.038492 38.181027 
L 442.839683 37.990484 
L 442.561466 37.734923 
L 442.163848 37.967449 
L 441.885631 37.896554 
L 440.573706 38.191374 
L 440.374897 38.336229 
L 439.659317 37.950587 
L 439.341272 38.238893 
L 439.182291 38.24298 
L 438.864246 38.500799 
L 438.267902 38.310724 
L 437.790876 38.417599 
L 437.552322 38.647187 
L 437.393258 38.348152 
L 437.194532 38.121374 
L 436.955977 38.020673 
L 436.717506 37.95608 
L 436.558442 38.106002 
L 436.200652 38.857018 
L 436.160906 38.810096 
L 435.723626 38.087225 
L 435.524817 38.072024 
L 435.167027 38.306253 
L 434.968218 38.259331 
L 434.689918 38.269039 
L 434.252638 38.0845 
L 433.815357 38.063678 
L 433.457567 38.290669 
L 433.139522 38.042091 
L 432.940713 38.023569 
L 432.662496 37.738329 
L 432.423942 38.129421 
L 432.066152 38.576037 
L 431.946916 38.413639 
L 431.549298 37.688298 
L 431.231253 37.589258 
L 431.032526 37.804753 
L 430.793972 38.049457 
L 429.164003 37.659131 
L 428.686977 37.5741 
L 428.527913 37.554301 
L 428.289441 37.667775 
L 427.891906 37.152649 
L 427.454543 37.34498 
L 427.017262 37.523431 
L 426.540236 37.254456 
L 425.625847 37.727131 
L 425.188566 37.571801 
L 424.989757 37.606248 
L 424.751203 37.388028 
L 424.711458 37.42141 
L 424.472986 37.65994 
L 424.433241 37.624046 
L 424.115196 37.331397 
L 423.916387 37.439123 
L 423.916387 37.439123 
" clip-path="url(#p385ceb3654)" style="fill: none; stroke: #1f77b4; stroke-width: 1.5; stroke-linecap: square"/>
   </g>
   <g id="patch_8">
    <path d="M 410.081676 348.478125 
L 410.081676 22.318125 
" style="fill: none; stroke: #000000; stroke-width: 0.8; stroke-linejoin: miter; stroke-linecap: square"/>
   </g>
   <g id="patch_9">
    <path d="M 714.445312 348.478125 
L 714.445312 22.318125 
" style="fill: none; stroke: #000000; stroke-width: 0.8; stroke-linejoin: miter; stroke-linecap: square"/>
   </g>
   <g id="patch_10">
    <path d="M 410.081676 348.478125 
L 714.445312 348.478125 
" style="fill: none; stroke: #000000; stroke-width: 0.8; stroke-linejoin: miter; stroke-linecap: square"/>
   </g>
   <g id="patch_11">
    <path d="M 410.081676 22.318125 
L 714.445312 22.318125 
" style="fill: none; stroke: #000000; stroke-width: 0.8; stroke-linejoin: miter; stroke-linecap: square"/>
   </g>
   <g id="text_34">
    <!-- Pure Toluene Spectrum -->
    <g transform="translate(493.064744 16.318125)scale(0.12 -0.12)">
     <defs>
      <path id="DejaVuSans-50" d="M 1259 4147 
L 1259 2394 
L 2053 2394 
Q 2494 2394 2734 2622 
Q 2975 2850 2975 3272 
Q 2975 3691 2734 3919 
Q 2494 4147 2053 4147 
L 1259 4147 
z
M 628 4666 
L 2053 4666 
Q 2838 4666 3239 4311 
Q 3641 3956 3641 3272 
Q 3641 2581 3239 2228 
Q 2838 1875 2053 1875 
L 1259 1875 
L 1259 0 
L 628 0 
L 628 4666 
z
" transform="scale(0.015625)"/>
     </defs>
     <use xlink:href="#DejaVuSans-50"/>
     <use xlink:href="#DejaVuSans-75" x="58.552734"/>
     <use xlink:href="#DejaVuSans-72" x="121.931641"/>
     <use xlink:href="#DejaVuSans-65" x="160.794922"/>
     <use xlink:href="#DejaVuSans-20" x="222.318359"/>
     <use xlink:href="#DejaVuSans-54" x="254.105469"/>
     <use xlink:href="#DejaVuSans-6f" x="298.189453"/>
     <use xlink:href="#DejaVuSans-6c" x="359.371094"/>
     <use xlink:href="#DejaVuSans-75" x="387.154297"/>
     <use xlink:href="#DejaVuSans-65" x="450.533203"/>
     <use xlink:href="#DejaVuSans-6e" x="512.056641"/>
     <use xlink:href="#DejaVuSans-65" x="575.435547"/>
     <use xlink:href="#DejaVuSans-20" x="636.958984"/>
     <use xlink:href="#DejaVuSans-53" x="668.746094"/>
     <use xlink:href="#DejaVuSans-70" x="732.222656"/>
     <use xlink:href="#DejaVuSans-65" x="795.699219"/>
     <use xlink:href="#DejaVuSans-63" x="857.222656"/>
     <use xlink:href="#DejaVuSans-74" x="912.203125"/>
     <use xlink:href="#DejaVuSans-72" x="951.412109"/>
     <use xlink:href="#DejaVuSans-75" x="992.525391"/>
     <use xlink:href="#DejaVuSans-6d" x="1055.904297"/>
    </g>
   </g>
  </g>
 </g>
 <defs>
  <clipPath id="pe774f268e8">
   <rect x="44.845313" y="22.318125" width="304.363636" height="326.16"/>
  </clipPath>
  <clipPath id="p385ceb3654">
   <rect x="410.081676" y="22.318125" width="304.363636" height="326.16"/>
  </clipPath>
 </defs>
</svg>
