<?xml version="1.0" encoding="utf-8" standalone="no"?>
<!DOCTYPE svg PUBLIC "-//W3C//DTD SVG 1.1//EN"
  "http://www.w3.org/Graphics/SVG/1.1/DTD/svg11.dtd">
<svg xmlns:xlink="http://www.w3.org/1999/xlink" width="400.523437pt" height="248.518125pt" viewBox="0 0 400.523437 248.518125" xmlns="http://www.w3.org/2000/svg" version="1.1">
 <metadata>
  <rdf:RDF xmlns:dc="http://purl.org/dc/elements/1.1/" xmlns:cc="http://creativecommons.org/ns#" xmlns:rdf="http://www.w3.org/1999/02/22-rdf-syntax-ns#">
   <cc:Work>
    <dc:type rdf:resource="http://purl.org/dc/dcmitype/StillImage"/>
    <dc:date>2022-09-10T17:14:00.245816</dc:date>
    <dc:format>image/svg+xml</dc:format>
    <dc:creator>
     <cc:Agent>
      <dc:title>Matplotlib v3.5.2, https://matplotlib.org/</dc:title>
     </cc:Agent>
    </dc:creator>
   </cc:Work>
  </rdf:RDF>
 </metadata>
 <defs>
  <style type="text/css">*{stroke-linejoin: round; stroke-linecap: butt}</style>
 </defs>
 <g id="figure_1">
  <g id="patch_1">
   <path d="M 0 248.518125 
L 400.523437 248.518125 
L 400.523437 0 
L 0 0 
L 0 248.518125 
z
" style="fill: none"/>
  </g>
  <g id="axes_1">
   <g id="patch_2">
    <path d="M 58.523438 224.64 
L 393.323438 224.64 
L 393.323438 7.2 
L 58.523438 7.2 
z
" style="fill: #ffffff"/>
   </g>
   <g id="matplotlib.axis_1">
    <g id="xtick_1">
     <g id="line2d_1">
      <defs>
       <path id="mad107c08b7" d="M 0 0 
L 0 3.5 
" style="stroke: #000000; stroke-width: 0.8"/>
      </defs>
      <g>
       <use xlink:href="#mad107c08b7" x="73.589133" y="224.64" style="stroke: #000000; stroke-width: 0.8"/>
      </g>
     </g>
     <g id="text_1">
      <!-- 0 -->
      <g transform="translate(70.407883 239.238437)scale(0.1 -0.1)">
       <defs>
        <path id="DejaVuSans-30" d="M 2034 4250 
Q 1547 4250 1301 3770 
Q 1056 3291 1056 2328 
Q 1056 1369 1301 889 
Q 1547 409 2034 409 
Q 2525 409 2770 889 
Q 3016 1369 3016 2328 
Q 3016 3291 2770 3770 
Q 2525 4250 2034 4250 
z
M 2034 4750 
Q 2819 4750 3233 4129 
Q 3647 3509 3647 2328 
Q 3647 1150 3233 529 
Q 2819 -91 2034 -91 
Q 1250 -91 836 529 
Q 422 1150 422 2328 
Q 422 3509 836 4129 
Q 1250 4750 2034 4750 
z
" transform="scale(0.015625)"/>
       </defs>
       <use xlink:href="#DejaVuSans-30"/>
      </g>
     </g>
    </g>
    <g id="xtick_2">
     <g id="line2d_2">
      <g>
       <use xlink:href="#mad107c08b7" x="122.078648" y="224.64" style="stroke: #000000; stroke-width: 0.8"/>
      </g>
     </g>
     <g id="text_2">
      <!-- 1 -->
      <g transform="translate(118.897398 239.238437)scale(0.1 -0.1)">
       <defs>
        <path id="DejaVuSans-31" d="M 794 531 
L 1825 531 
L 1825 4091 
L 703 3866 
L 703 4441 
L 1819 4666 
L 2450 4666 
L 2450 531 
L 3481 531 
L 3481 0 
L 794 0 
L 794 531 
z
" transform="scale(0.015625)"/>
       </defs>
       <use xlink:href="#DejaVuSans-31"/>
      </g>
     </g>
    </g>
    <g id="xtick_3">
     <g id="line2d_3">
      <g>
       <use xlink:href="#mad107c08b7" x="170.568163" y="224.64" style="stroke: #000000; stroke-width: 0.8"/>
      </g>
     </g>
     <g id="text_3">
      <!-- 2 -->
      <g transform="translate(167.386913 239.238437)scale(0.1 -0.1)">
       <defs>
        <path id="DejaVuSans-32" d="M 1228 531 
L 3431 531 
L 3431 0 
L 469 0 
L 469 531 
Q 828 903 1448 1529 
Q 2069 2156 2228 2338 
Q 2531 2678 2651 2914 
Q 2772 3150 2772 3378 
Q 2772 3750 2511 3984 
Q 2250 4219 1831 4219 
Q 1534 4219 1204 4116 
Q 875 4013 500 3803 
L 500 4441 
Q 881 4594 1212 4672 
Q 1544 4750 1819 4750 
Q 2544 4750 2975 4387 
Q 3406 4025 3406 3419 
Q 3406 3131 3298 2873 
Q 3191 2616 2906 2266 
Q 2828 2175 2409 1742 
Q 1991 1309 1228 531 
z
" transform="scale(0.015625)"/>
       </defs>
       <use xlink:href="#DejaVuSans-32"/>
      </g>
     </g>
    </g>
    <g id="xtick_4">
     <g id="line2d_4">
      <g>
       <use xlink:href="#mad107c08b7" x="219.057678" y="224.64" style="stroke: #000000; stroke-width: 0.8"/>
      </g>
     </g>
     <g id="text_4">
      <!-- 3 -->
      <g transform="translate(215.876428 239.238437)scale(0.1 -0.1)">
       <defs>
        <path id="DejaVuSans-33" d="M 2597 2516 
Q 3050 2419 3304 2112 
Q 3559 1806 3559 1356 
Q 3559 666 3084 287 
Q 2609 -91 1734 -91 
Q 1441 -91 1130 -33 
Q 819 25 488 141 
L 488 750 
Q 750 597 1062 519 
Q 1375 441 1716 441 
Q 2309 441 2620 675 
Q 2931 909 2931 1356 
Q 2931 1769 2642 2001 
Q 2353 2234 1838 2234 
L 1294 2234 
L 1294 2753 
L 1863 2753 
Q 2328 2753 2575 2939 
Q 2822 3125 2822 3475 
Q 2822 3834 2567 4026 
Q 2313 4219 1838 4219 
Q 1578 4219 1281 4162 
Q 984 4106 628 3988 
L 628 4550 
Q 988 4650 1302 4700 
Q 1616 4750 1894 4750 
Q 2613 4750 3031 4423 
Q 3450 4097 3450 3541 
Q 3450 3153 3228 2886 
Q 3006 2619 2597 2516 
z
" transform="scale(0.015625)"/>
       </defs>
       <use xlink:href="#DejaVuSans-33"/>
      </g>
     </g>
    </g>
    <g id="xtick_5">
     <g id="line2d_5">
      <g>
       <use xlink:href="#mad107c08b7" x="267.547194" y="224.64" style="stroke: #000000; stroke-width: 0.8"/>
      </g>
     </g>
     <g id="text_5">
      <!-- 4 -->
      <g transform="translate(264.365944 239.238437)scale(0.1 -0.1)">
       <defs>
        <path id="DejaVuSans-34" d="M 2419 4116 
L 825 1625 
L 2419 1625 
L 2419 4116 
z
M 2253 4666 
L 3047 4666 
L 3047 1625 
L 3713 1625 
L 3713 1100 
L 3047 1100 
L 3047 0 
L 2419 0 
L 2419 1100 
L 313 1100 
L 313 1709 
L 2253 4666 
z
" transform="scale(0.015625)"/>
       </defs>
       <use xlink:href="#DejaVuSans-34"/>
      </g>
     </g>
    </g>
    <g id="xtick_6">
     <g id="line2d_6">
      <g>
       <use xlink:href="#mad107c08b7" x="316.036709" y="224.64" style="stroke: #000000; stroke-width: 0.8"/>
      </g>
     </g>
     <g id="text_6">
      <!-- 5 -->
      <g transform="translate(312.855459 239.238437)scale(0.1 -0.1)">
       <defs>
        <path id="DejaVuSans-35" d="M 691 4666 
L 3169 4666 
L 3169 4134 
L 1269 4134 
L 1269 2991 
Q 1406 3038 1543 3061 
Q 1681 3084 1819 3084 
Q 2600 3084 3056 2656 
Q 3513 2228 3513 1497 
Q 3513 744 3044 326 
Q 2575 -91 1722 -91 
Q 1428 -91 1123 -41 
Q 819 9 494 109 
L 494 744 
Q 775 591 1075 516 
Q 1375 441 1709 441 
Q 2250 441 2565 725 
Q 2881 1009 2881 1497 
Q 2881 1984 2565 2268 
Q 2250 2553 1709 2553 
Q 1456 2553 1204 2497 
Q 953 2441 691 2322 
L 691 4666 
z
" transform="scale(0.015625)"/>
       </defs>
       <use xlink:href="#DejaVuSans-35"/>
      </g>
     </g>
    </g>
    <g id="xtick_7">
     <g id="line2d_7">
      <g>
       <use xlink:href="#mad107c08b7" x="364.526224" y="224.64" style="stroke: #000000; stroke-width: 0.8"/>
      </g>
     </g>
     <g id="text_7">
      <!-- 6 -->
      <g transform="translate(361.344974 239.238437)scale(0.1 -0.1)">
       <defs>
        <path id="DejaVuSans-36" d="M 2113 2584 
Q 1688 2584 1439 2293 
Q 1191 2003 1191 1497 
Q 1191 994 1439 701 
Q 1688 409 2113 409 
Q 2538 409 2786 701 
Q 3034 994 3034 1497 
Q 3034 2003 2786 2293 
Q 2538 2584 2113 2584 
z
M 3366 4563 
L 3366 3988 
Q 3128 4100 2886 4159 
Q 2644 4219 2406 4219 
Q 1781 4219 1451 3797 
Q 1122 3375 1075 2522 
Q 1259 2794 1537 2939 
Q 1816 3084 2150 3084 
Q 2853 3084 3261 2657 
Q 3669 2231 3669 1497 
Q 3669 778 3244 343 
Q 2819 -91 2113 -91 
Q 1303 -91 875 529 
Q 447 1150 447 2328 
Q 447 3434 972 4092 
Q 1497 4750 2381 4750 
Q 2619 4750 2861 4703 
Q 3103 4656 3366 4563 
z
" transform="scale(0.015625)"/>
       </defs>
       <use xlink:href="#DejaVuSans-36"/>
      </g>
     </g>
    </g>
   </g>
   <g id="matplotlib.axis_2">
    <g id="ytick_1">
     <g id="line2d_8">
      <defs>
       <path id="mfb784dd38a" d="M 0 0 
L -3.5 0 
" style="stroke: #000000; stroke-width: 0.8"/>
      </defs>
      <g>
       <use xlink:href="#mfb784dd38a" x="58.523438" y="201.289988" style="stroke: #000000; stroke-width: 0.8"/>
      </g>
     </g>
     <g id="text_8">
      <!-- −0.06 -->
      <g transform="translate(20.878125 205.089206)scale(0.1 -0.1)">
       <defs>
        <path id="DejaVuSans-2212" d="M 678 2272 
L 4684 2272 
L 4684 1741 
L 678 1741 
L 678 2272 
z
" transform="scale(0.015625)"/>
        <path id="DejaVuSans-2e" d="M 684 794 
L 1344 794 
L 1344 0 
L 684 0 
L 684 794 
z
" transform="scale(0.015625)"/>
       </defs>
       <use xlink:href="#DejaVuSans-2212"/>
       <use xlink:href="#DejaVuSans-30" x="83.789062"/>
       <use xlink:href="#DejaVuSans-2e" x="147.412109"/>
       <use xlink:href="#DejaVuSans-30" x="179.199219"/>
       <use xlink:href="#DejaVuSans-36" x="242.822266"/>
      </g>
     </g>
    </g>
    <g id="ytick_2">
     <g id="line2d_9">
      <g>
       <use xlink:href="#mfb784dd38a" x="58.523438" y="172.185562" style="stroke: #000000; stroke-width: 0.8"/>
      </g>
     </g>
     <g id="text_9">
      <!-- −0.04 -->
      <g transform="translate(20.878125 175.984781)scale(0.1 -0.1)">
       <use xlink:href="#DejaVuSans-2212"/>
       <use xlink:href="#DejaVuSans-30" x="83.789062"/>
       <use xlink:href="#DejaVuSans-2e" x="147.412109"/>
       <use xlink:href="#DejaVuSans-30" x="179.199219"/>
       <use xlink:href="#DejaVuSans-34" x="242.822266"/>
      </g>
     </g>
    </g>
    <g id="ytick_3">
     <g id="line2d_10">
      <g>
       <use xlink:href="#mfb784dd38a" x="58.523438" y="143.081136" style="stroke: #000000; stroke-width: 0.8"/>
      </g>
     </g>
     <g id="text_10">
      <!-- −0.02 -->
      <g transform="translate(20.878125 146.880355)scale(0.1 -0.1)">
       <use xlink:href="#DejaVuSans-2212"/>
       <use xlink:href="#DejaVuSans-30" x="83.789062"/>
       <use xlink:href="#DejaVuSans-2e" x="147.412109"/>
       <use xlink:href="#DejaVuSans-30" x="179.199219"/>
       <use xlink:href="#DejaVuSans-32" x="242.822266"/>
      </g>
     </g>
    </g>
    <g id="ytick_4">
     <g id="line2d_11">
      <g>
       <use xlink:href="#mfb784dd38a" x="58.523438" y="113.976711" style="stroke: #000000; stroke-width: 0.8"/>
      </g>
     </g>
     <g id="text_11">
      <!-- 0.00 -->
      <g transform="translate(29.257813 117.77593)scale(0.1 -0.1)">
       <use xlink:href="#DejaVuSans-30"/>
       <use xlink:href="#DejaVuSans-2e" x="63.623047"/>
       <use xlink:href="#DejaVuSans-30" x="95.410156"/>
       <use xlink:href="#DejaVuSans-30" x="159.033203"/>
      </g>
     </g>
    </g>
    <g id="ytick_5">
     <g id="line2d_12">
      <g>
       <use xlink:href="#mfb784dd38a" x="58.523438" y="84.872285" style="stroke: #000000; stroke-width: 0.8"/>
      </g>
     </g>
     <g id="text_12">
      <!-- 0.02 -->
      <g transform="translate(29.257813 88.671504)scale(0.1 -0.1)">
       <use xlink:href="#DejaVuSans-30"/>
       <use xlink:href="#DejaVuSans-2e" x="63.623047"/>
       <use xlink:href="#DejaVuSans-30" x="95.410156"/>
       <use xlink:href="#DejaVuSans-32" x="159.033203"/>
      </g>
     </g>
    </g>
    <g id="ytick_6">
     <g id="line2d_13">
      <g>
       <use xlink:href="#mfb784dd38a" x="58.523438" y="55.76786" style="stroke: #000000; stroke-width: 0.8"/>
      </g>
     </g>
     <g id="text_13">
      <!-- 0.04 -->
      <g transform="translate(29.257813 59.567079)scale(0.1 -0.1)">
       <use xlink:href="#DejaVuSans-30"/>
       <use xlink:href="#DejaVuSans-2e" x="63.623047"/>
       <use xlink:href="#DejaVuSans-30" x="95.410156"/>
       <use xlink:href="#DejaVuSans-34" x="159.033203"/>
      </g>
     </g>
    </g>
    <g id="ytick_7">
     <g id="line2d_14">
      <g>
       <use xlink:href="#mfb784dd38a" x="58.523438" y="26.663434" style="stroke: #000000; stroke-width: 0.8"/>
      </g>
     </g>
     <g id="text_14">
      <!-- 0.06 -->
      <g transform="translate(29.257813 30.462653)scale(0.1 -0.1)">
       <use xlink:href="#DejaVuSans-30"/>
       <use xlink:href="#DejaVuSans-2e" x="63.623047"/>
       <use xlink:href="#DejaVuSans-30" x="95.410156"/>
       <use xlink:href="#DejaVuSans-36" x="159.033203"/>
      </g>
     </g>
    </g>
    <g id="text_15">
     <!-- Slope, dx/dy -->
     <g transform="translate(14.798438 146.923125)rotate(-90)scale(0.1 -0.1)">
      <defs>
       <path id="DejaVuSans-53" d="M 3425 4513 
L 3425 3897 
Q 3066 4069 2747 4153 
Q 2428 4238 2131 4238 
Q 1616 4238 1336 4038 
Q 1056 3838 1056 3469 
Q 1056 3159 1242 3001 
Q 1428 2844 1947 2747 
L 2328 2669 
Q 3034 2534 3370 2195 
Q 3706 1856 3706 1288 
Q 3706 609 3251 259 
Q 2797 -91 1919 -91 
Q 1588 -91 1214 -16 
Q 841 59 441 206 
L 441 856 
Q 825 641 1194 531 
Q 1563 422 1919 422 
Q 2459 422 2753 634 
Q 3047 847 3047 1241 
Q 3047 1584 2836 1778 
Q 2625 1972 2144 2069 
L 1759 2144 
Q 1053 2284 737 2584 
Q 422 2884 422 3419 
Q 422 4038 858 4394 
Q 1294 4750 2059 4750 
Q 2388 4750 2728 4690 
Q 3069 4631 3425 4513 
z
" transform="scale(0.015625)"/>
       <path id="DejaVuSans-6c" d="M 603 4863 
L 1178 4863 
L 1178 0 
L 603 0 
L 603 4863 
z
" transform="scale(0.015625)"/>
       <path id="DejaVuSans-6f" d="M 1959 3097 
Q 1497 3097 1228 2736 
Q 959 2375 959 1747 
Q 959 1119 1226 758 
Q 1494 397 1959 397 
Q 2419 397 2687 759 
Q 2956 1122 2956 1747 
Q 2956 2369 2687 2733 
Q 2419 3097 1959 3097 
z
M 1959 3584 
Q 2709 3584 3137 3096 
Q 3566 2609 3566 1747 
Q 3566 888 3137 398 
Q 2709 -91 1959 -91 
Q 1206 -91 779 398 
Q 353 888 353 1747 
Q 353 2609 779 3096 
Q 1206 3584 1959 3584 
z
" transform="scale(0.015625)"/>
       <path id="DejaVuSans-70" d="M 1159 525 
L 1159 -1331 
L 581 -1331 
L 581 3500 
L 1159 3500 
L 1159 2969 
Q 1341 3281 1617 3432 
Q 1894 3584 2278 3584 
Q 2916 3584 3314 3078 
Q 3713 2572 3713 1747 
Q 3713 922 3314 415 
Q 2916 -91 2278 -91 
Q 1894 -91 1617 61 
Q 1341 213 1159 525 
z
M 3116 1747 
Q 3116 2381 2855 2742 
Q 2594 3103 2138 3103 
Q 1681 3103 1420 2742 
Q 1159 2381 1159 1747 
Q 1159 1113 1420 752 
Q 1681 391 2138 391 
Q 2594 391 2855 752 
Q 3116 1113 3116 1747 
z
" transform="scale(0.015625)"/>
       <path id="DejaVuSans-65" d="M 3597 1894 
L 3597 1613 
L 953 1613 
Q 991 1019 1311 708 
Q 1631 397 2203 397 
Q 2534 397 2845 478 
Q 3156 559 3463 722 
L 3463 178 
Q 3153 47 2828 -22 
Q 2503 -91 2169 -91 
Q 1331 -91 842 396 
Q 353 884 353 1716 
Q 353 2575 817 3079 
Q 1281 3584 2069 3584 
Q 2775 3584 3186 3129 
Q 3597 2675 3597 1894 
z
M 3022 2063 
Q 3016 2534 2758 2815 
Q 2500 3097 2075 3097 
Q 1594 3097 1305 2825 
Q 1016 2553 972 2059 
L 3022 2063 
z
" transform="scale(0.015625)"/>
       <path id="DejaVuSans-2c" d="M 750 794 
L 1409 794 
L 1409 256 
L 897 -744 
L 494 -744 
L 750 256 
L 750 794 
z
" transform="scale(0.015625)"/>
       <path id="DejaVuSans-20" transform="scale(0.015625)"/>
       <path id="DejaVuSans-64" d="M 2906 2969 
L 2906 4863 
L 3481 4863 
L 3481 0 
L 2906 0 
L 2906 525 
Q 2725 213 2448 61 
Q 2172 -91 1784 -91 
Q 1150 -91 751 415 
Q 353 922 353 1747 
Q 353 2572 751 3078 
Q 1150 3584 1784 3584 
Q 2172 3584 2448 3432 
Q 2725 3281 2906 2969 
z
M 947 1747 
Q 947 1113 1208 752 
Q 1469 391 1925 391 
Q 2381 391 2643 752 
Q 2906 1113 2906 1747 
Q 2906 2381 2643 2742 
Q 2381 3103 1925 3103 
Q 1469 3103 1208 2742 
Q 947 2381 947 1747 
z
" transform="scale(0.015625)"/>
       <path id="DejaVuSans-78" d="M 3513 3500 
L 2247 1797 
L 3578 0 
L 2900 0 
L 1881 1375 
L 863 0 
L 184 0 
L 1544 1831 
L 300 3500 
L 978 3500 
L 1906 2253 
L 2834 3500 
L 3513 3500 
z
" transform="scale(0.015625)"/>
       <path id="DejaVuSans-2f" d="M 1625 4666 
L 2156 4666 
L 531 -594 
L 0 -594 
L 1625 4666 
z
" transform="scale(0.015625)"/>
       <path id="DejaVuSans-79" d="M 2059 -325 
Q 1816 -950 1584 -1140 
Q 1353 -1331 966 -1331 
L 506 -1331 
L 506 -850 
L 844 -850 
Q 1081 -850 1212 -737 
Q 1344 -625 1503 -206 
L 1606 56 
L 191 3500 
L 800 3500 
L 1894 763 
L 2988 3500 
L 3597 3500 
L 2059 -325 
z
" transform="scale(0.015625)"/>
      </defs>
      <use xlink:href="#DejaVuSans-53"/>
      <use xlink:href="#DejaVuSans-6c" x="63.476562"/>
      <use xlink:href="#DejaVuSans-6f" x="91.259766"/>
      <use xlink:href="#DejaVuSans-70" x="152.441406"/>
      <use xlink:href="#DejaVuSans-65" x="215.917969"/>
      <use xlink:href="#DejaVuSans-2c" x="277.441406"/>
      <use xlink:href="#DejaVuSans-20" x="309.228516"/>
      <use xlink:href="#DejaVuSans-64" x="341.015625"/>
      <use xlink:href="#DejaVuSans-78" x="404.492188"/>
      <use xlink:href="#DejaVuSans-2f" x="463.671875"/>
      <use xlink:href="#DejaVuSans-64" x="497.363281"/>
      <use xlink:href="#DejaVuSans-79" x="560.839844"/>
     </g>
    </g>
   </g>
   <g id="line2d_15">
    <path d="M 73.741619 113.257762 
L 74.046593 139.669942 
L 74.351566 51.302151 
L 74.65654 93.734202 
L 74.961514 103.125088 
L 75.266487 191.795396 
L 75.571461 34.605433 
L 75.876434 118.840871 
L 76.181408 61.206171 
L 76.486382 115.97284 
L 76.791355 115.788462 
L 77.096329 132.759361 
L 77.401302 109.515598 
L 77.706276 96.164308 
L 78.011249 105.744205 
L 78.316223 152.922575 
L 78.621197 89.131555 
L 78.92617 82.667877 
L 79.231144 135.985777 
L 79.841091 93.086119 
L 80.146065 88.089305 
L 80.451038 86.881012 
L 80.756012 120.43943 
L 81.060985 47.808576 
L 81.365959 198.388395 
L 81.670932 52.299057 
L 81.975906 108.321584 
L 82.28088 138.247739 
L 82.585853 88.318695 
L 82.890827 104.010324 
L 83.1958 62.452838 
L 83.500774 80.686804 
L 83.805748 109.249012 
L 84.110721 188.45004 
L 84.415695 59.465373 
L 84.720668 133.307438 
L 85.025642 37.012564 
L 85.330615 157.458341 
L 85.635589 78.245462 
L 85.940563 102.436129 
L 86.245536 154.641046 
L 86.55051 40.241362 
L 86.855483 134.036866 
L 87.160457 142.251024 
L 87.465431 116.87093 
L 87.770404 72.951405 
L 88.075378 133.683611 
L 88.380351 66.089562 
L 88.685325 62.945861 
L 88.990298 165.854664 
L 89.600246 99.528648 
L 89.905219 90.121587 
L 90.210193 134.892846 
L 90.515166 48.070456 
L 91.125114 143.427132 
L 91.430087 35.425483 
L 92.040034 179.924268 
L 92.345008 64.904165 
L 92.649981 76.004843 
L 92.954955 117.455025 
L 93.564902 133.259471 
L 93.869876 106.792455 
L 94.174849 97.033627 
L 94.479823 74.48412 
L 94.784797 117.994878 
L 95.08977 142.733953 
L 95.394744 57.791736 
L 95.699717 108.375791 
L 96.004691 140.146675 
L 96.309664 113.134188 
L 96.614638 46.599453 
L 96.919612 133.819386 
L 97.224585 60.416423 
L 97.529559 106.557884 
L 97.834532 170.70249 
L 98.139506 91.060833 
L 98.44448 67.909722 
L 98.749453 163.252835 
L 99.054427 113.549929 
L 99.3594 94.759662 
L 99.664374 110.456067 
L 99.969348 90.753906 
L 100.274321 87.470855 
L 100.884268 140.831546 
L 101.189242 37.927519 
L 101.494215 180.469795 
L 101.799189 66.539485 
L 102.104163 67.417536 
L 102.409136 101.868684 
L 102.71411 175.363173 
L 103.019083 52.558682 
L 103.324057 141.849336 
L 103.629031 137.386927 
L 103.934004 67.661715 
L 104.543951 117.578325 
L 104.848925 67.389731 
L 105.153898 129.791888 
L 105.458872 138.488883 
L 105.763846 118.729347 
L 106.068819 58.499293 
L 106.373793 105.363067 
L 106.678766 107.418525 
L 106.98374 92.556712 
L 107.288714 135.02292 
L 107.593687 151.968708 
L 107.898661 33.040131 
L 108.203634 131.747127 
L 108.508608 92.955363 
L 108.813581 85.40789 
L 109.118555 142.557763 
L 109.423529 78.033823 
L 109.728502 155.545083 
L 110.033476 143.197146 
L 110.338449 91.415436 
L 110.643423 109.470941 
L 110.948397 33.790354 
L 111.25337 135.945732 
L 111.558344 82.856816 
L 112.168291 156.956599 
L 112.473264 53.069728 
L 113.083212 157.537258 
L 113.388185 37.821079 
L 113.998132 164.666326 
L 114.303106 118.99242 
L 114.60808 126.14189 
L 114.913053 23.086817 
L 115.218027 174.318906 
L 115.523 74.923662 
L 115.827974 123.879336 
L 116.132947 132.997998 
L 116.437921 57.621199 
L 116.742895 133.416851 
L 117.047868 91.352715 
L 117.352842 154.933548 
L 117.657815 110.756984 
L 117.962789 34.966384 
L 118.267763 164.100286 
L 118.572736 126.420497 
L 118.87771 104.899067 
L 119.182683 91.340428 
L 119.487657 127.878641 
L 119.79263 35.847236 
L 120.097604 194.647772 
L 120.402578 87.859969 
L 120.707551 87.332944 
L 121.012525 116.268318 
L 121.317498 84.451518 
L 121.622472 102.858334 
L 121.927446 142.899041 
L 122.232419 43.279511 
L 122.537393 107.86507 
L 122.842366 122.088057 
L 123.14734 182.509774 
L 123.452313 37.149207 
L 123.757287 120.365642 
L 124.062261 135.329518 
L 124.367234 72.159808 
L 124.672208 109.756323 
L 124.977181 111.534593 
L 125.282155 171.632839 
L 125.892102 39.144888 
L 126.197076 131.507477 
L 126.502049 127.121384 
L 126.807023 81.398825 
L 127.111996 171.861925 
L 127.41697 108.916117 
L 127.721944 106.617165 
L 128.026917 137.89087 
L 128.331891 85.976531 
L 128.636864 67.718836 
L 128.941838 148.624682 
L 129.551785 68.981006 
L 129.856759 175.687114 
L 130.161732 42.713507 
L 130.466706 158.567958 
L 130.771679 71.442958 
L 131.076653 83.306611 
L 131.381627 189.188412 
L 131.6866 25.809215 
L 131.991574 136.79276 
L 132.296547 121.464848 
L 132.601521 142.154506 
L 132.906495 128.808205 
L 133.211468 93.798725 
L 133.516442 44.843294 
L 133.821415 168.051373 
L 134.431362 119.656512 
L 134.736336 38.604037 
L 135.04131 108.209113 
L 135.346283 127.928683 
L 135.651257 117.682672 
L 135.95623 78.938804 
L 136.261204 157.343554 
L 136.566178 84.921201 
L 136.871151 140.958331 
L 137.176125 135.376491 
L 137.481098 66.69451 
L 137.786072 152.25142 
L 138.091045 119.762712 
L 138.700993 115.615291 
L 139.005966 71.077099 
L 139.31094 70.16038 
L 139.615913 94.631074 
L 139.920887 154.294671 
L 140.225861 144.865628 
L 140.530834 48.216586 
L 140.835808 142.65395 
L 141.140781 146.669525 
L 141.445755 63.190943 
L 141.750728 96.880456 
L 142.055702 150.943077 
L 142.360676 75.060924 
L 142.665649 184.106559 
L 142.970623 84.370951 
L 143.275596 98.908586 
L 143.58057 167.074877 
L 143.885544 66.976996 
L 144.190517 134.587904 
L 144.495491 76.811563 
L 144.800464 84.321276 
L 145.105438 111.85829 
L 145.410411 166.463506 
L 145.715385 63.946884 
L 146.020359 180.017081 
L 146.325332 62.720219 
L 146.630306 159.54457 
L 146.935279 124.47318 
L 147.240253 106.414808 
L 147.545227 132.980582 
L 147.8502 73.239597 
L 148.155174 109.539803 
L 148.460147 127.449821 
L 148.765121 101.720444 
L 149.070094 149.219799 
L 149.375068 56.974201 
L 149.985015 159.862264 
L 150.289989 72.109693 
L 150.594962 131.298906 
L 150.899936 66.543991 
L 151.20491 167.445423 
L 151.509883 139.591731 
L 151.814857 72.784822 
L 152.11983 155.492266 
L 152.424804 128.844413 
L 152.729777 26.275385 
L 153.034751 197.276907 
L 153.339725 112.471913 
L 153.949672 65.994369 
L 154.254645 160.049131 
L 154.559619 138.639839 
L 154.864593 127.43143 
L 155.169566 101.494096 
L 155.47454 121.071687 
L 155.779513 60.599204 
L 156.084487 167.152638 
L 156.38946 47.179237 
L 156.999408 195.335341 
L 157.304381 64.171387 
L 157.609355 133.887635 
L 157.914328 96.546496 
L 158.219302 126.459056 
L 158.524276 74.060669 
L 158.829249 151.044966 
L 159.134223 82.499573 
L 159.439196 187.770376 
L 159.74417 86.392948 
L 160.049143 122.516651 
L 160.354117 84.086685 
L 160.659091 168.575267 
L 160.964064 97.479066 
L 161.269038 55.841372 
L 161.574011 131.556849 
L 161.878985 120.204424 
L 162.183959 115.918377 
L 162.793906 138.248363 
L 163.098879 132.172148 
L 163.403853 92.261483 
L 163.708826 98.935698 
L 164.0138 85.193089 
L 164.318774 136.051681 
L 164.623747 158.337449 
L 164.928721 134.512662 
L 165.233694 60.900714 
L 165.538668 150.391467 
L 165.843642 79.619283 
L 166.148615 174.094617 
L 166.453589 73.601446 
L 166.758562 102.225246 
L 167.063536 146.997596 
L 167.368509 162.438797 
L 167.673483 67.459811 
L 167.978457 83.577725 
L 168.28343 172.727657 
L 168.588404 139.537247 
L 168.893377 64.130042 
L 169.198351 156.3157 
L 169.503325 54.212016 
L 169.808298 125.720908 
L 170.113272 113.250102 
L 170.418245 172.9673 
L 170.723219 71.633327 
L 171.028192 174.959327 
L 171.333166 105.170957 
L 171.63814 62.197878 
L 171.943113 141.70077 
L 172.248087 124.982588 
L 172.55306 130.590476 
L 172.858034 119.405719 
L 173.163008 67.644398 
L 173.772955 178.624868 
L 174.077928 152.949531 
L 174.382902 97.694317 
L 174.687875 124.452193 
L 174.992849 126.674081 
L 175.297823 67.303933 
L 175.602796 91.711779 
L 175.90777 139.949254 
L 176.212743 92.760481 
L 176.517717 190.881946 
L 176.822691 101.962634 
L 177.127664 153.17976 
L 177.432638 121.580965 
L 177.737611 20.748773 
L 178.042585 187.660977 
L 178.347558 105.219686 
L 178.652532 69.083781 
L 178.957506 170.837861 
L 179.262479 102.967383 
L 179.567453 124.838774 
L 179.872426 119.535403 
L 180.1774 107.930292 
L 180.482374 143.150253 
L 180.787347 158.069365 
L 181.092321 83.116533 
L 181.397294 87.283013 
L 181.702268 168.318751 
L 182.007241 105.859646 
L 182.312215 89.589104 
L 182.617189 143.621929 
L 182.922162 111.362054 
L 183.227136 108.242103 
L 183.532109 166.332958 
L 183.837083 63.901893 
L 184.142057 170.045433 
L 184.44703 114.857918 
L 184.752004 132.496674 
L 185.056977 39.809638 
L 185.361951 160.991547 
L 185.666924 144.63852 
L 185.971898 142.419423 
L 186.276872 47.798977 
L 186.581845 156.016787 
L 186.886819 161.061365 
L 187.191792 54.425058 
L 187.496766 93.548475 
L 187.80174 158.045542 
L 188.106713 140.25353 
L 188.71666 78.051066 
L 189.021634 146.367656 
L 189.326607 136.310282 
L 189.631581 95.099809 
L 189.936555 158.096676 
L 190.241528 111.052149 
L 190.546502 131.593378 
L 190.851475 87.264511 
L 191.156449 94.760094 
L 191.461423 166.755659 
L 191.766396 138.049167 
L 192.07137 76.969903 
L 192.376343 142.921026 
L 192.681317 173.945586 
L 192.98629 64.530587 
L 193.291264 178.76587 
L 193.596238 52.83927 
L 193.901211 188.181614 
L 194.206185 90.712401 
L 194.511158 134.031824 
L 194.816132 57.612411 
L 195.426079 156.322402 
L 195.731053 86.646995 
L 196.036026 142.672127 
L 196.341 174.925823 
L 196.645973 103.972272 
L 196.950947 130.5872 
L 197.255921 87.551787 
L 197.865868 164.711556 
L 198.170841 27.063153 
L 198.475815 171.354529 
L 198.780789 112.135818 
L 199.085762 155.382993 
L 199.390736 122.719079 
L 199.695709 49.458925 
L 200.000683 144.714107 
L 200.305656 138.102041 
L 200.61063 97.341905 
L 200.915604 119.831942 
L 201.220577 117.110139 
L 201.525551 128.933035 
L 201.830524 156.044826 
L 202.135498 120.664436 
L 202.440472 163.305386 
L 202.745445 128.477383 
L 203.050419 45.568447 
L 203.660366 187.292887 
L 203.965339 69.020579 
L 204.270313 193.286235 
L 204.88026 60.036304 
L 205.185234 182.545296 
L 205.490207 104.453905 
L 205.795181 94.157408 
L 206.100155 184.769358 
L 206.405128 98.800177 
L 206.710102 144.147501 
L 207.015075 65.159397 
L 207.320049 133.861934 
L 207.625022 100.219214 
L 207.929996 112.252072 
L 208.23497 192.830812 
L 208.539943 69.335799 
L 208.844917 180.14145 
L 209.14989 127.130524 
L 209.454864 32.263439 
L 209.759838 138.936596 
L 210.064811 130.524024 
L 210.369785 148.993317 
L 210.674758 103.259905 
L 210.979732 148.814401 
L 211.284705 156.010539 
L 211.589679 105.871113 
L 211.894653 96.624326 
L 212.199626 139.850749 
L 212.5046 151.7852 
L 213.114547 61.670282 
L 213.419521 121.869991 
L 213.724494 147.840672 
L 214.029468 108.633268 
L 214.334441 117.981491 
L 214.639415 152.94662 
L 214.944388 130.609265 
L 215.249362 151.982982 
L 215.554336 114.642555 
L 215.859309 106.344362 
L 216.164283 89.76892 
L 216.469256 99.854114 
L 216.77423 171.27895 
L 217.079204 78.288375 
L 217.384177 172.964186 
L 217.689151 167.031676 
L 217.994124 81.198623 
L 218.299098 72.257 
L 218.604071 159.032527 
L 218.909045 114.216333 
L 219.214019 183.906115 
L 219.518992 103.917043 
L 219.823966 127.834668 
L 220.128939 56.904016 
L 220.433913 149.624054 
L 220.738887 120.873718 
L 221.04386 120.421159 
L 221.348834 94.325451 
L 221.958781 156.651759 
L 222.263754 164.291562 
L 222.568728 37.484681 
L 222.873702 179.006656 
L 223.178675 100.174912 
L 223.483649 174.230737 
L 223.788622 43.892184 
L 224.093596 210.349273 
L 224.39857 56.960324 
L 224.703543 143.003962 
L 225.008517 124.139439 
L 225.31349 169.875033 
L 225.618464 37.71363 
L 225.923438 162.963665 
L 226.228411 157.90433 
L 226.533385 110.707993 
L 226.838358 122.996256 
L 227.143332 113.53707 
L 227.448305 116.175156 
L 227.753279 116.620644 
L 228.058253 169.697899 
L 228.6682 72.339197 
L 228.973173 99.171349 
L 229.278147 138.161375 
L 229.583121 142.126195 
L 229.888094 103.037309 
L 230.193068 135.737564 
L 230.498041 95.861602 
L 230.803015 163.395604 
L 231.107988 80.214595 
L 231.412962 127.269047 
L 231.717936 138.520627 
L 232.022909 141.5719 
L 232.632856 96.893059 
L 232.93783 158.501023 
L 233.242804 60.648994 
L 233.547777 214.756364 
L 234.157724 39.924383 
L 234.767671 202.212897 
L 235.072645 75.798284 
L 235.682592 168.28141 
L 235.987566 32.140703 
L 236.292539 186.2472 
L 236.597513 102.240507 
L 236.902487 150.47836 
L 237.20746 88.174727 
L 237.512434 135.904676 
L 237.817407 145.551811 
L 238.122381 58.115786 
L 238.427354 193.106025 
L 238.732328 104.982876 
L 239.037302 148.421069 
L 239.342275 79.199524 
L 239.647249 116.012847 
L 239.952222 178.156536 
L 240.257196 85.354734 
L 240.56217 71.119768 
L 240.867143 195.177847 
L 241.172117 125.984502 
L 241.47709 100.020476 
L 241.782064 149.742926 
L 242.087037 41.536296 
L 242.392011 210.014856 
L 242.696985 85.21632 
L 243.001958 138.112596 
L 243.306932 89.101479 
L 243.611905 132.118213 
L 243.916879 124.727859 
L 244.221853 136.195201 
L 244.526826 85.124748 
L 244.8318 153.947367 
L 245.136773 130.151066 
L 245.441747 129.629028 
L 245.74672 82.684648 
L 246.356668 136.226029 
L 246.661641 166.26659 
L 246.966615 65.761598 
L 247.271588 143.934964 
L 247.576562 126.271455 
L 247.881536 73.466279 
L 248.186509 202.38114 
L 248.491483 117.194227 
L 248.796456 123.545534 
L 249.10143 89.321238 
L 249.406403 85.606205 
L 249.711377 139.231296 
L 250.016351 139.628075 
L 250.321324 98.363197 
L 250.626298 199.400766 
L 250.931271 42.200385 
L 251.236245 172.817008 
L 251.541219 141.257885 
L 251.846192 57.516324 
L 252.151166 165.192766 
L 252.456139 69.51508 
L 252.761113 198.517242 
L 253.066086 32.707577 
L 253.37106 122.045842 
L 253.676034 133.893876 
L 253.981007 197.489223 
L 254.285981 94.556209 
L 254.590954 89.301141 
L 254.895928 137.551441 
L 255.200902 167.163132 
L 255.505875 54.700514 
L 255.810849 157.75394 
L 256.115822 105.889344 
L 256.420796 170.032213 
L 257.030743 88.96883 
L 257.335717 96.750177 
L 257.64069 127.796527 
L 257.945664 100.210818 
L 258.250637 153.261509 
L 258.555611 99.32456 
L 258.860585 133.405145 
L 259.165558 125.911446 
L 259.470532 161.34969 
L 259.775505 31.91004 
L 260.080479 197.95099 
L 260.385452 77.679338 
L 260.690426 122.882481 
L 260.9954 136.330042 
L 261.300373 113.097522 
L 261.605347 166.546301 
L 261.91032 91.040887 
L 262.215294 128.912999 
L 262.520268 70.437548 
L 262.825241 154.818329 
L 263.130215 139.437074 
L 263.435188 81.41276 
L 264.045135 149.519441 
L 264.350109 154.441782 
L 264.960056 89.913321 
L 265.26503 112.838734 
L 265.570003 159.519655 
L 265.874977 55.856666 
L 266.179951 182.311167 
L 266.484924 50.893055 
L 266.789898 158.392876 
L 267.094871 65.193979 
L 267.399845 119.95902 
L 268.009792 134.102695 
L 268.314766 128.24481 
L 268.619739 175.048284 
L 268.924713 69.651356 
L 269.229686 100.672243 
L 269.53466 153.540099 
L 269.839634 111.120662 
L 270.449581 135.874662 
L 270.754554 62.881471 
L 271.059528 107.409379 
L 271.364501 117.440115 
L 271.669475 170.603579 
L 271.974449 117.974586 
L 272.279422 118.685612 
L 272.584396 151.015636 
L 273.194343 112.929866 
L 273.499317 81.464018 
L 273.80429 111.692518 
L 274.109264 176.679021 
L 274.414237 53.0726 
L 274.719211 177.741277 
L 275.024184 77.566837 
L 275.329158 68.648082 
L 275.634132 176.060428 
L 275.939105 152.21115 
L 276.244079 118.52439 
L 276.549052 38.897105 
L 277.159 209.67723 
L 277.463973 35.661668 
L 277.768947 147.03234 
L 278.07392 73.400281 
L 278.378894 199.428967 
L 278.988841 69.309714 
L 279.293815 171.941978 
L 279.598788 76.2865 
L 279.903762 158.88248 
L 280.208735 35.286767 
L 280.513709 179.172969 
L 280.818683 72.03458 
L 281.123656 188.908541 
L 281.42863 102.342321 
L 281.733603 114.125774 
L 282.038577 85.313606 
L 282.34355 169.211744 
L 282.953498 53.664156 
L 283.563445 170.936471 
L 283.868418 85.802228 
L 284.173392 92.342671 
L 284.478366 121.81432 
L 284.783339 182.152854 
L 285.088313 77.322289 
L 285.393286 127.888011 
L 285.69826 138.836568 
L 286.003233 85.484925 
L 286.308207 93.663268 
L 286.613181 145.402768 
L 286.918154 88.805594 
L 287.223128 169.584211 
L 287.528101 80.941251 
L 287.833075 124.900842 
L 288.138049 106.119596 
L 288.443022 161.786849 
L 288.747996 20.921237 
L 289.052969 140.154913 
L 289.357943 184.769847 
L 289.662916 84.330389 
L 289.96789 101.419589 
L 290.272864 161.539242 
L 290.577837 76.15622 
L 290.882811 105.383475 
L 291.492758 136.312151 
L 291.797732 112.921564 
L 292.407679 98.520253 
L 292.712652 175.045434 
L 293.322599 69.544733 
L 293.627573 157.680336 
L 293.932547 117.453972 
L 294.23752 41.240192 
L 294.542494 115.673084 
L 294.847467 155.462425 
L 295.152441 156.568195 
L 295.457415 20.308902 
L 295.762388 165.351777 
L 296.372335 91.519199 
L 296.677309 115.084236 
L 296.982282 88.641825 
L 297.287256 122.353266 
L 297.59223 185.171822 
L 297.897203 101.153333 
L 298.202177 51.765982 
L 298.50715 174.391894 
L 298.812124 83.974011 
L 299.422071 153.086031 
L 299.727045 74.631614 
L 300.032018 119.351238 
L 300.336992 73.951127 
L 300.641965 172.850122 
L 301.251913 59.16383 
L 301.556886 141.091441 
L 301.86186 96.738249 
L 302.166833 147.256803 
L 302.471807 144.708392 
L 302.776781 123.492094 
L 303.081754 64.590748 
L 303.386728 101.392236 
L 303.691701 89.824679 
L 303.996675 207.052399 
L 304.301648 113.574468 
L 304.606622 62.031268 
L 304.911596 133.55819 
L 305.216569 123.187871 
L 305.521543 68.199777 
L 305.826516 181.352242 
L 306.13149 68.467034 
L 306.436464 128.690098 
L 306.741437 92.28229 
L 307.046411 69.509663 
L 307.351384 148.179797 
L 307.656358 134.850082 
L 307.961331 89.556146 
L 308.266305 161.56832 
L 308.571279 48.939652 
L 308.876252 177.347625 
L 309.181226 63.343202 
L 309.486199 92.262702 
L 309.791173 169.100384 
L 310.096147 41.567435 
L 310.40112 156.249355 
L 310.706094 76.163855 
L 311.011067 173.372476 
L 311.316041 102.715674 
L 311.621014 148.095008 
L 311.925988 101.710809 
L 312.230962 92.33909 
L 312.535935 105.064232 
L 312.840909 84.149995 
L 313.145882 178.80561 
L 313.450856 83.923975 
L 313.75583 81.40337 
L 314.060803 129.279235 
L 314.365777 150.397585 
L 314.67075 68.572978 
L 314.975724 139.663672 
L 315.280697 111.526987 
L 315.585671 37.747744 
L 316.195618 177.612137 
L 316.500592 47.246505 
L 317.110539 198.8812 
L 317.415513 82.564603 
L 317.720486 140.793396 
L 318.02546 50.852322 
L 318.330433 78.703861 
L 318.635407 175.55807 
L 318.94038 134.572706 
L 319.245354 72.235372 
L 319.550328 152.870149 
L 319.855301 100.70722 
L 320.160275 95.863197 
L 320.465248 46.428848 
L 320.770222 161.183471 
L 321.075196 73.897389 
L 321.380169 140.487034 
L 321.685143 100.425219 
L 321.990116 119.873352 
L 322.29509 65.440328 
L 322.600063 123.976273 
L 322.905037 156.26609 
L 323.210011 66.695799 
L 323.514984 164.106669 
L 323.819958 54.725203 
L 324.124931 91.278625 
L 324.429905 105.838151 
L 324.734879 194.710412 
L 325.344826 46.379697 
L 325.649799 85.349224 
L 325.954773 182.356269 
L 326.259746 108.631505 
L 326.56472 135.428455 
L 326.869694 110.45994 
L 327.174667 65.201237 
L 327.479641 61.183085 
L 327.784614 159.97758 
L 328.089588 90.152427 
L 328.394562 82.858023 
L 328.699535 162.810646 
L 329.004509 117.361031 
L 329.309482 96.82092 
L 329.614456 48.918123 
L 329.919429 166.522949 
L 330.529377 74.853098 
L 330.83435 114.316645 
L 331.139324 110.647629 
L 331.444297 146.303431 
L 331.749271 70.588645 
L 332.054245 168.728926 
L 332.359218 27.223335 
L 332.664192 159.938255 
L 332.969165 58.638997 
L 333.579112 150.375319 
L 333.884086 59.18976 
L 334.18906 173.461027 
L 334.494033 105.787302 
L 334.799007 94.022735 
L 335.10398 147.226256 
L 335.408954 58.546962 
L 335.713928 64.322925 
L 336.018901 106.32551 
L 336.323875 111.854818 
L 336.628848 176.039898 
L 336.933822 74.602932 
L 337.238795 119.741932 
L 337.543769 122.046259 
L 337.848743 74.837529 
L 338.153716 158.82964 
L 338.45869 52.517601 
L 338.763663 131.24332 
L 339.068637 67.289315 
L 339.373611 175.562375 
L 339.678584 32.020947 
L 339.983558 168.863938 
L 340.898478 71.25855 
L 341.203452 70.024896 
L 341.508426 112.95618 
L 341.813399 96.124394 
L 342.118373 146.81819 
L 342.423346 68.813575 
L 342.72832 149.255906 
L 343.033294 62.564211 
L 343.338267 108.76079 
L 343.643241 194.606365 
L 343.948214 57.114097 
L 344.253188 69.395441 
L 344.558161 191.552678 
L 344.863135 49.10497 
L 345.168109 143.419864 
L 345.473082 37.315987 
L 345.778056 162.82687 
L 346.083029 81.270048 
L 346.388003 81.817085 
L 346.692977 132.514148 
L 346.99795 113.424416 
L 347.302924 71.026276 
L 347.607897 173.041609 
L 347.912871 107.590985 
L 348.217844 107.069914 
L 348.522818 117.356084 
L 348.827792 114.028506 
L 349.132765 69.299001 
L 349.742712 119.635312 
L 350.047686 133.245805 
L 350.35266 54.756268 
L 350.657633 158.14572 
L 350.962607 86.778017 
L 351.26758 84.873239 
L 351.572554 160.931675 
L 351.877527 17.083636 
L 352.182501 181.962864 
L 352.487475 91.284309 
L 352.792448 66.813877 
L 353.097422 170.708829 
L 353.402395 69.326932 
L 353.707369 99.887521 
L 354.012343 87.202537 
L 354.317316 111.221046 
L 354.62229 107.673032 
L 354.927263 143.799857 
L 355.232237 85.876579 
L 355.537211 63.03101 
L 355.842184 158.679594 
L 356.147158 100.591746 
L 356.452131 87.578094 
L 356.757105 101.030162 
L 357.062078 63.414955 
L 357.367052 164.755082 
L 357.672026 139.304228 
L 357.976999 86.034441 
L 358.281973 61.696845 
L 358.586946 118.338796 
L 359.501867 79.755693 
L 359.806841 145.407156 
L 360.111814 114.838971 
L 360.721761 106.572041 
L 361.026735 131.008113 
L 361.331709 17.095485 
L 361.636682 153.176262 
L 362.246629 68.414677 
L 362.551603 106.204417 
L 362.856577 118.624721 
L 363.16155 136.723963 
L 363.466524 47.424482 
L 363.771497 172.88853 
L 364.076471 89.93449 
L 364.381444 100.305667 
L 364.686418 57.278134 
L 364.991392 191.984444 
L 365.296365 73.811711 
L 365.601339 55.858369 
L 365.906312 175.735353 
L 366.211286 66.524115 
L 366.821233 159.068818 
L 367.126207 50.526386 
L 367.43118 119.822363 
L 367.736154 75.893697 
L 368.041127 83.676887 
L 368.346101 177.920665 
L 368.651075 68.840792 
L 368.956048 60.161022 
L 369.261022 127.520329 
L 369.565995 82.56726 
L 369.870969 204.196108 
L 370.175943 39.603749 
L 370.480916 164.741423 
L 370.78589 56.368413 
L 371.090863 144.100115 
L 371.395837 105.245164 
L 371.70081 101.179187 
L 372.005784 107.945596 
L 372.310758 104.231522 
L 372.615731 32.648116 
L 372.920705 146.260803 
L 373.225678 103.837583 
L 373.530652 138.031636 
L 373.835626 50.947 
L 374.140599 106.201542 
L 374.445573 78.480572 
L 374.750546 194.305498 
L 375.05552 40.098254 
L 375.360493 99.675909 
L 375.665467 106.310227 
L 375.970441 125.927295 
L 376.275414 63.757864 
L 376.580388 113.525857 
L 376.885361 106.747494 
L 377.190335 114.206994 
L 377.495309 171.062595 
L 377.800282 22.362205 
L 378.105256 166.588174 
L 378.105256 166.588174 
" clip-path="url(#p146018dd9f)" style="fill: none; stroke: #1f77b4; stroke-width: 1.5; stroke-linecap: square"/>
   </g>
   <g id="line2d_16">
    <path d="M 73.741619 104.824194 
L 81.365959 104.941609 
L 88.990298 105.281942 
L 96.919612 105.863278 
L 105.153898 106.695829 
L 113.998132 107.822565 
L 123.757287 109.301089 
L 135.346283 111.296632 
L 154.254645 114.824574 
L 171.028192 117.864304 
L 182.007241 119.625189 
L 191.156449 120.875733 
L 199.695709 121.822729 
L 207.625022 122.485276 
L 215.249362 122.90841 
L 222.873702 123.111177 
L 230.498041 123.088573 
L 238.122381 122.841156 
L 245.74672 122.375031 
L 253.676034 121.670673 
L 262.215294 120.683217 
L 271.364501 119.39596 
L 281.733603 117.70728 
L 295.152441 115.281846 
L 325.039852 109.804874 
L 335.713928 108.126695 
L 344.863135 106.910251 
L 353.402395 106.000471 
L 361.331709 105.376116 
L 368.956048 104.992032 
L 376.580388 104.829624 
L 378.105256 104.824194 
L 378.105256 104.824194 
" clip-path="url(#p146018dd9f)" style="fill: none; stroke: #ff7f0e; stroke-width: 1.5; stroke-linecap: square"/>
   </g>
   <g id="patch_3">
    <path d="M 58.523438 224.64 
L 58.523438 7.2 
" style="fill: none; stroke: #000000; stroke-width: 0.8; stroke-linejoin: miter; stroke-linecap: square"/>
   </g>
   <g id="patch_4">
    <path d="M 393.323438 224.64 
L 393.323438 7.2 
" style="fill: none; stroke: #000000; stroke-width: 0.8; stroke-linejoin: miter; stroke-linecap: square"/>
   </g>
   <g id="patch_5">
    <path d="M 58.523438 224.64 
L 393.323438 224.64 
" style="fill: none; stroke: #000000; stroke-width: 0.8; stroke-linejoin: miter; stroke-linecap: square"/>
   </g>
   <g id="patch_6">
    <path d="M 58.523438 7.2 
L 393.323438 7.2 
" style="fill: none; stroke: #000000; stroke-width: 0.8; stroke-linejoin: miter; stroke-linecap: square"/>
   </g>
   <g id="legend_1">
    <g id="patch_7">
     <path d="M 65.523438 219.64 
L 163.1625 219.64 
Q 165.1625 219.64 165.1625 217.64 
L 165.1625 189.28375 
Q 165.1625 187.28375 163.1625 187.28375 
L 65.523438 187.28375 
Q 63.523438 187.28375 63.523438 189.28375 
L 63.523438 217.64 
Q 63.523438 219.64 65.523438 219.64 
z
" style="fill: #ffffff; opacity: 0.8; stroke: #cccccc; stroke-linejoin: miter"/>
    </g>
    <g id="line2d_17">
     <path d="M 67.523438 195.382187 
L 77.523438 195.382187 
L 87.523438 195.382187 
" style="fill: none; stroke: #1f77b4; stroke-width: 1.5; stroke-linecap: square"/>
    </g>
    <g id="text_16">
     <!-- Noisy Data -->
     <g transform="translate(95.523438 198.882187)scale(0.1 -0.1)">
      <defs>
       <path id="DejaVuSans-4e" d="M 628 4666 
L 1478 4666 
L 3547 763 
L 3547 4666 
L 4159 4666 
L 4159 0 
L 3309 0 
L 1241 3903 
L 1241 0 
L 628 0 
L 628 4666 
z
" transform="scale(0.015625)"/>
       <path id="DejaVuSans-69" d="M 603 3500 
L 1178 3500 
L 1178 0 
L 603 0 
L 603 3500 
z
M 603 4863 
L 1178 4863 
L 1178 4134 
L 603 4134 
L 603 4863 
z
" transform="scale(0.015625)"/>
       <path id="DejaVuSans-73" d="M 2834 3397 
L 2834 2853 
Q 2591 2978 2328 3040 
Q 2066 3103 1784 3103 
Q 1356 3103 1142 2972 
Q 928 2841 928 2578 
Q 928 2378 1081 2264 
Q 1234 2150 1697 2047 
L 1894 2003 
Q 2506 1872 2764 1633 
Q 3022 1394 3022 966 
Q 3022 478 2636 193 
Q 2250 -91 1575 -91 
Q 1294 -91 989 -36 
Q 684 19 347 128 
L 347 722 
Q 666 556 975 473 
Q 1284 391 1588 391 
Q 1994 391 2212 530 
Q 2431 669 2431 922 
Q 2431 1156 2273 1281 
Q 2116 1406 1581 1522 
L 1381 1569 
Q 847 1681 609 1914 
Q 372 2147 372 2553 
Q 372 3047 722 3315 
Q 1072 3584 1716 3584 
Q 2034 3584 2315 3537 
Q 2597 3491 2834 3397 
z
" transform="scale(0.015625)"/>
       <path id="DejaVuSans-44" d="M 1259 4147 
L 1259 519 
L 2022 519 
Q 2988 519 3436 956 
Q 3884 1394 3884 2338 
Q 3884 3275 3436 3711 
Q 2988 4147 2022 4147 
L 1259 4147 
z
M 628 4666 
L 1925 4666 
Q 3281 4666 3915 4102 
Q 4550 3538 4550 2338 
Q 4550 1131 3912 565 
Q 3275 0 1925 0 
L 628 0 
L 628 4666 
z
" transform="scale(0.015625)"/>
       <path id="DejaVuSans-61" d="M 2194 1759 
Q 1497 1759 1228 1600 
Q 959 1441 959 1056 
Q 959 750 1161 570 
Q 1363 391 1709 391 
Q 2188 391 2477 730 
Q 2766 1069 2766 1631 
L 2766 1759 
L 2194 1759 
z
M 3341 1997 
L 3341 0 
L 2766 0 
L 2766 531 
Q 2569 213 2275 61 
Q 1981 -91 1556 -91 
Q 1019 -91 701 211 
Q 384 513 384 1019 
Q 384 1609 779 1909 
Q 1175 2209 1959 2209 
L 2766 2209 
L 2766 2266 
Q 2766 2663 2505 2880 
Q 2244 3097 1772 3097 
Q 1472 3097 1187 3025 
Q 903 2953 641 2809 
L 641 3341 
Q 956 3463 1253 3523 
Q 1550 3584 1831 3584 
Q 2591 3584 2966 3190 
Q 3341 2797 3341 1997 
z
" transform="scale(0.015625)"/>
       <path id="DejaVuSans-74" d="M 1172 4494 
L 1172 3500 
L 2356 3500 
L 2356 3053 
L 1172 3053 
L 1172 1153 
Q 1172 725 1289 603 
Q 1406 481 1766 481 
L 2356 481 
L 2356 0 
L 1766 0 
Q 1100 0 847 248 
Q 594 497 594 1153 
L 594 3053 
L 172 3053 
L 172 3500 
L 594 3500 
L 594 4494 
L 1172 4494 
z
" transform="scale(0.015625)"/>
      </defs>
      <use xlink:href="#DejaVuSans-4e"/>
      <use xlink:href="#DejaVuSans-6f" x="74.804688"/>
      <use xlink:href="#DejaVuSans-69" x="135.986328"/>
      <use xlink:href="#DejaVuSans-73" x="163.769531"/>
      <use xlink:href="#DejaVuSans-79" x="215.869141"/>
      <use xlink:href="#DejaVuSans-20" x="275.048828"/>
      <use xlink:href="#DejaVuSans-44" x="306.835938"/>
      <use xlink:href="#DejaVuSans-61" x="383.837891"/>
      <use xlink:href="#DejaVuSans-74" x="445.117188"/>
      <use xlink:href="#DejaVuSans-61" x="484.326172"/>
     </g>
    </g>
    <g id="line2d_18">
     <path d="M 67.523438 210.060312 
L 77.523438 210.060312 
L 87.523438 210.060312 
" style="fill: none; stroke: #ff7f0e; stroke-width: 1.5; stroke-linecap: square"/>
    </g>
    <g id="text_17">
     <!-- Smooth Data -->
     <g transform="translate(95.523438 213.560312)scale(0.1 -0.1)">
      <defs>
       <path id="DejaVuSans-6d" d="M 3328 2828 
Q 3544 3216 3844 3400 
Q 4144 3584 4550 3584 
Q 5097 3584 5394 3201 
Q 5691 2819 5691 2113 
L 5691 0 
L 5113 0 
L 5113 2094 
Q 5113 2597 4934 2840 
Q 4756 3084 4391 3084 
Q 3944 3084 3684 2787 
Q 3425 2491 3425 1978 
L 3425 0 
L 2847 0 
L 2847 2094 
Q 2847 2600 2669 2842 
Q 2491 3084 2119 3084 
Q 1678 3084 1418 2786 
Q 1159 2488 1159 1978 
L 1159 0 
L 581 0 
L 581 3500 
L 1159 3500 
L 1159 2956 
Q 1356 3278 1631 3431 
Q 1906 3584 2284 3584 
Q 2666 3584 2933 3390 
Q 3200 3197 3328 2828 
z
" transform="scale(0.015625)"/>
       <path id="DejaVuSans-68" d="M 3513 2113 
L 3513 0 
L 2938 0 
L 2938 2094 
Q 2938 2591 2744 2837 
Q 2550 3084 2163 3084 
Q 1697 3084 1428 2787 
Q 1159 2491 1159 1978 
L 1159 0 
L 581 0 
L 581 4863 
L 1159 4863 
L 1159 2956 
Q 1366 3272 1645 3428 
Q 1925 3584 2291 3584 
Q 2894 3584 3203 3211 
Q 3513 2838 3513 2113 
z
" transform="scale(0.015625)"/>
      </defs>
      <use xlink:href="#DejaVuSans-53"/>
      <use xlink:href="#DejaVuSans-6d" x="63.476562"/>
      <use xlink:href="#DejaVuSans-6f" x="160.888672"/>
      <use xlink:href="#DejaVuSans-6f" x="222.070312"/>
      <use xlink:href="#DejaVuSans-74" x="283.251953"/>
      <use xlink:href="#DejaVuSans-68" x="322.460938"/>
      <use xlink:href="#DejaVuSans-20" x="385.839844"/>
      <use xlink:href="#DejaVuSans-44" x="417.626953"/>
      <use xlink:href="#DejaVuSans-61" x="494.628906"/>
      <use xlink:href="#DejaVuSans-74" x="555.908203"/>
      <use xlink:href="#DejaVuSans-61" x="595.117188"/>
     </g>
    </g>
   </g>
  </g>
 </g>
 <defs>
  <clipPath id="p146018dd9f">
   <rect x="58.523438" y="7.2" width="334.8" height="217.44"/>
  </clipPath>
 </defs>
</svg>
