<?xml version="1.0" encoding="utf-8" standalone="no"?>
<!DOCTYPE svg PUBLIC "-//W3C//DTD SVG 1.1//EN"
  "http://www.w3.org/Graphics/SVG/1.1/DTD/svg11.dtd">
<svg xmlns:xlink="http://www.w3.org/1999/xlink" width="400.523437pt" height="249.083348pt" viewBox="0 0 400.523437 249.083348" xmlns="http://www.w3.org/2000/svg" version="1.1">
 <metadata>
  <rdf:RDF xmlns:dc="http://purl.org/dc/elements/1.1/" xmlns:cc="http://creativecommons.org/ns#" xmlns:rdf="http://www.w3.org/1999/02/22-rdf-syntax-ns#">
   <cc:Work>
    <dc:type rdf:resource="http://purl.org/dc/dcmitype/StillImage"/>
    <dc:date>2022-09-03T11:38:41.639544</dc:date>
    <dc:format>image/svg+xml</dc:format>
    <dc:creator>
     <cc:Agent>
      <dc:title>Matplotlib v3.5.2, https://matplotlib.org/</dc:title>
     </cc:Agent>
    </dc:creator>
   </cc:Work>
  </rdf:RDF>
 </metadata>
 <defs>
  <style type="text/css">*{stroke-linejoin: round; stroke-linecap: butt}</style>
 </defs>
 <g id="figure_1">
  <g id="patch_1">
   <path d="M 0 249.083348 
L 400.523437 249.083348 
L 400.523437 0 
L 0 0 
L 0 249.083348 
z
" style="fill: none"/>
  </g>
  <g id="axes_1">
   <g id="patch_2">
    <path d="M 58.523438 225.205223 
L 393.323438 225.205223 
L 393.323438 7.765223 
L 58.523438 7.765223 
z
" style="fill: #ffffff"/>
   </g>
   <g id="matplotlib.axis_1">
    <g id="xtick_1">
     <g id="line2d_1">
      <defs>
       <path id="m76c974c46f" d="M 0 0 
L 0 3.5 
" style="stroke: #000000; stroke-width: 0.8"/>
      </defs>
      <g>
       <use xlink:href="#m76c974c46f" x="73.589133" y="225.205223" style="stroke: #000000; stroke-width: 0.8"/>
      </g>
     </g>
     <g id="text_1">
      <!-- 0 -->
      <g transform="translate(70.407883 239.80366)scale(0.1 -0.1)">
       <defs>
        <path id="DejaVuSans-30" d="M 2034 4250 
Q 1547 4250 1301 3770 
Q 1056 3291 1056 2328 
Q 1056 1369 1301 889 
Q 1547 409 2034 409 
Q 2525 409 2770 889 
Q 3016 1369 3016 2328 
Q 3016 3291 2770 3770 
Q 2525 4250 2034 4250 
z
M 2034 4750 
Q 2819 4750 3233 4129 
Q 3647 3509 3647 2328 
Q 3647 1150 3233 529 
Q 2819 -91 2034 -91 
Q 1250 -91 836 529 
Q 422 1150 422 2328 
Q 422 3509 836 4129 
Q 1250 4750 2034 4750 
z
" transform="scale(0.015625)"/>
       </defs>
       <use xlink:href="#DejaVuSans-30"/>
      </g>
     </g>
    </g>
    <g id="xtick_2">
     <g id="line2d_2">
      <g>
       <use xlink:href="#m76c974c46f" x="122.078648" y="225.205223" style="stroke: #000000; stroke-width: 0.8"/>
      </g>
     </g>
     <g id="text_2">
      <!-- 1 -->
      <g transform="translate(118.897398 239.80366)scale(0.1 -0.1)">
       <defs>
        <path id="DejaVuSans-31" d="M 794 531 
L 1825 531 
L 1825 4091 
L 703 3866 
L 703 4441 
L 1819 4666 
L 2450 4666 
L 2450 531 
L 3481 531 
L 3481 0 
L 794 0 
L 794 531 
z
" transform="scale(0.015625)"/>
       </defs>
       <use xlink:href="#DejaVuSans-31"/>
      </g>
     </g>
    </g>
    <g id="xtick_3">
     <g id="line2d_3">
      <g>
       <use xlink:href="#m76c974c46f" x="170.568163" y="225.205223" style="stroke: #000000; stroke-width: 0.8"/>
      </g>
     </g>
     <g id="text_3">
      <!-- 2 -->
      <g transform="translate(167.386913 239.80366)scale(0.1 -0.1)">
       <defs>
        <path id="DejaVuSans-32" d="M 1228 531 
L 3431 531 
L 3431 0 
L 469 0 
L 469 531 
Q 828 903 1448 1529 
Q 2069 2156 2228 2338 
Q 2531 2678 2651 2914 
Q 2772 3150 2772 3378 
Q 2772 3750 2511 3984 
Q 2250 4219 1831 4219 
Q 1534 4219 1204 4116 
Q 875 4013 500 3803 
L 500 4441 
Q 881 4594 1212 4672 
Q 1544 4750 1819 4750 
Q 2544 4750 2975 4387 
Q 3406 4025 3406 3419 
Q 3406 3131 3298 2873 
Q 3191 2616 2906 2266 
Q 2828 2175 2409 1742 
Q 1991 1309 1228 531 
z
" transform="scale(0.015625)"/>
       </defs>
       <use xlink:href="#DejaVuSans-32"/>
      </g>
     </g>
    </g>
    <g id="xtick_4">
     <g id="line2d_4">
      <g>
       <use xlink:href="#m76c974c46f" x="219.057678" y="225.205223" style="stroke: #000000; stroke-width: 0.8"/>
      </g>
     </g>
     <g id="text_4">
      <!-- 3 -->
      <g transform="translate(215.876428 239.80366)scale(0.1 -0.1)">
       <defs>
        <path id="DejaVuSans-33" d="M 2597 2516 
Q 3050 2419 3304 2112 
Q 3559 1806 3559 1356 
Q 3559 666 3084 287 
Q 2609 -91 1734 -91 
Q 1441 -91 1130 -33 
Q 819 25 488 141 
L 488 750 
Q 750 597 1062 519 
Q 1375 441 1716 441 
Q 2309 441 2620 675 
Q 2931 909 2931 1356 
Q 2931 1769 2642 2001 
Q 2353 2234 1838 2234 
L 1294 2234 
L 1294 2753 
L 1863 2753 
Q 2328 2753 2575 2939 
Q 2822 3125 2822 3475 
Q 2822 3834 2567 4026 
Q 2313 4219 1838 4219 
Q 1578 4219 1281 4162 
Q 984 4106 628 3988 
L 628 4550 
Q 988 4650 1302 4700 
Q 1616 4750 1894 4750 
Q 2613 4750 3031 4423 
Q 3450 4097 3450 3541 
Q 3450 3153 3228 2886 
Q 3006 2619 2597 2516 
z
" transform="scale(0.015625)"/>
       </defs>
       <use xlink:href="#DejaVuSans-33"/>
      </g>
     </g>
    </g>
    <g id="xtick_5">
     <g id="line2d_5">
      <g>
       <use xlink:href="#m76c974c46f" x="267.547194" y="225.205223" style="stroke: #000000; stroke-width: 0.8"/>
      </g>
     </g>
     <g id="text_5">
      <!-- 4 -->
      <g transform="translate(264.365944 239.80366)scale(0.1 -0.1)">
       <defs>
        <path id="DejaVuSans-34" d="M 2419 4116 
L 825 1625 
L 2419 1625 
L 2419 4116 
z
M 2253 4666 
L 3047 4666 
L 3047 1625 
L 3713 1625 
L 3713 1100 
L 3047 1100 
L 3047 0 
L 2419 0 
L 2419 1100 
L 313 1100 
L 313 1709 
L 2253 4666 
z
" transform="scale(0.015625)"/>
       </defs>
       <use xlink:href="#DejaVuSans-34"/>
      </g>
     </g>
    </g>
    <g id="xtick_6">
     <g id="line2d_6">
      <g>
       <use xlink:href="#m76c974c46f" x="316.036709" y="225.205223" style="stroke: #000000; stroke-width: 0.8"/>
      </g>
     </g>
     <g id="text_6">
      <!-- 5 -->
      <g transform="translate(312.855459 239.80366)scale(0.1 -0.1)">
       <defs>
        <path id="DejaVuSans-35" d="M 691 4666 
L 3169 4666 
L 3169 4134 
L 1269 4134 
L 1269 2991 
Q 1406 3038 1543 3061 
Q 1681 3084 1819 3084 
Q 2600 3084 3056 2656 
Q 3513 2228 3513 1497 
Q 3513 744 3044 326 
Q 2575 -91 1722 -91 
Q 1428 -91 1123 -41 
Q 819 9 494 109 
L 494 744 
Q 775 591 1075 516 
Q 1375 441 1709 441 
Q 2250 441 2565 725 
Q 2881 1009 2881 1497 
Q 2881 1984 2565 2268 
Q 2250 2553 1709 2553 
Q 1456 2553 1204 2497 
Q 953 2441 691 2322 
L 691 4666 
z
" transform="scale(0.015625)"/>
       </defs>
       <use xlink:href="#DejaVuSans-35"/>
      </g>
     </g>
    </g>
    <g id="xtick_7">
     <g id="line2d_7">
      <g>
       <use xlink:href="#m76c974c46f" x="364.526224" y="225.205223" style="stroke: #000000; stroke-width: 0.8"/>
      </g>
     </g>
     <g id="text_7">
      <!-- 6 -->
      <g transform="translate(361.344974 239.80366)scale(0.1 -0.1)">
       <defs>
        <path id="DejaVuSans-36" d="M 2113 2584 
Q 1688 2584 1439 2293 
Q 1191 2003 1191 1497 
Q 1191 994 1439 701 
Q 1688 409 2113 409 
Q 2538 409 2786 701 
Q 3034 994 3034 1497 
Q 3034 2003 2786 2293 
Q 2538 2584 2113 2584 
z
M 3366 4563 
L 3366 3988 
Q 3128 4100 2886 4159 
Q 2644 4219 2406 4219 
Q 1781 4219 1451 3797 
Q 1122 3375 1075 2522 
Q 1259 2794 1537 2939 
Q 1816 3084 2150 3084 
Q 2853 3084 3261 2657 
Q 3669 2231 3669 1497 
Q 3669 778 3244 343 
Q 2819 -91 2113 -91 
Q 1303 -91 875 529 
Q 447 1150 447 2328 
Q 447 3434 972 4092 
Q 1497 4750 2381 4750 
Q 2619 4750 2861 4703 
Q 3103 4656 3366 4563 
z
" transform="scale(0.015625)"/>
       </defs>
       <use xlink:href="#DejaVuSans-36"/>
      </g>
     </g>
    </g>
   </g>
   <g id="matplotlib.axis_2">
    <g id="ytick_1">
     <g id="line2d_8">
      <defs>
       <path id="mc5c846391f" d="M 0 0 
L -3.5 0 
" style="stroke: #000000; stroke-width: 0.8"/>
      </defs>
      <g>
       <use xlink:href="#mc5c846391f" x="58.523438" y="221.747036" style="stroke: #000000; stroke-width: 0.8"/>
      </g>
     </g>
     <g id="text_8">
      <!-- −0.08 -->
      <g transform="translate(20.878125 225.546255)scale(0.1 -0.1)">
       <defs>
        <path id="DejaVuSans-2212" d="M 678 2272 
L 4684 2272 
L 4684 1741 
L 678 1741 
L 678 2272 
z
" transform="scale(0.015625)"/>
        <path id="DejaVuSans-2e" d="M 684 794 
L 1344 794 
L 1344 0 
L 684 0 
L 684 794 
z
" transform="scale(0.015625)"/>
        <path id="DejaVuSans-38" d="M 2034 2216 
Q 1584 2216 1326 1975 
Q 1069 1734 1069 1313 
Q 1069 891 1326 650 
Q 1584 409 2034 409 
Q 2484 409 2743 651 
Q 3003 894 3003 1313 
Q 3003 1734 2745 1975 
Q 2488 2216 2034 2216 
z
M 1403 2484 
Q 997 2584 770 2862 
Q 544 3141 544 3541 
Q 544 4100 942 4425 
Q 1341 4750 2034 4750 
Q 2731 4750 3128 4425 
Q 3525 4100 3525 3541 
Q 3525 3141 3298 2862 
Q 3072 2584 2669 2484 
Q 3125 2378 3379 2068 
Q 3634 1759 3634 1313 
Q 3634 634 3220 271 
Q 2806 -91 2034 -91 
Q 1263 -91 848 271 
Q 434 634 434 1313 
Q 434 1759 690 2068 
Q 947 2378 1403 2484 
z
M 1172 3481 
Q 1172 3119 1398 2916 
Q 1625 2713 2034 2713 
Q 2441 2713 2670 2916 
Q 2900 3119 2900 3481 
Q 2900 3844 2670 4047 
Q 2441 4250 2034 4250 
Q 1625 4250 1398 4047 
Q 1172 3844 1172 3481 
z
" transform="scale(0.015625)"/>
       </defs>
       <use xlink:href="#DejaVuSans-2212"/>
       <use xlink:href="#DejaVuSans-30" x="83.789062"/>
       <use xlink:href="#DejaVuSans-2e" x="147.412109"/>
       <use xlink:href="#DejaVuSans-30" x="179.199219"/>
       <use xlink:href="#DejaVuSans-38" x="242.822266"/>
      </g>
     </g>
    </g>
    <g id="ytick_2">
     <g id="line2d_9">
      <g>
       <use xlink:href="#mc5c846391f" x="58.523438" y="195.403559" style="stroke: #000000; stroke-width: 0.8"/>
      </g>
     </g>
     <g id="text_9">
      <!-- −0.06 -->
      <g transform="translate(20.878125 199.202778)scale(0.1 -0.1)">
       <use xlink:href="#DejaVuSans-2212"/>
       <use xlink:href="#DejaVuSans-30" x="83.789062"/>
       <use xlink:href="#DejaVuSans-2e" x="147.412109"/>
       <use xlink:href="#DejaVuSans-30" x="179.199219"/>
       <use xlink:href="#DejaVuSans-36" x="242.822266"/>
      </g>
     </g>
    </g>
    <g id="ytick_3">
     <g id="line2d_10">
      <g>
       <use xlink:href="#mc5c846391f" x="58.523438" y="169.060082" style="stroke: #000000; stroke-width: 0.8"/>
      </g>
     </g>
     <g id="text_10">
      <!-- −0.04 -->
      <g transform="translate(20.878125 172.8593)scale(0.1 -0.1)">
       <use xlink:href="#DejaVuSans-2212"/>
       <use xlink:href="#DejaVuSans-30" x="83.789062"/>
       <use xlink:href="#DejaVuSans-2e" x="147.412109"/>
       <use xlink:href="#DejaVuSans-30" x="179.199219"/>
       <use xlink:href="#DejaVuSans-34" x="242.822266"/>
      </g>
     </g>
    </g>
    <g id="ytick_4">
     <g id="line2d_11">
      <g>
       <use xlink:href="#mc5c846391f" x="58.523438" y="142.716605" style="stroke: #000000; stroke-width: 0.8"/>
      </g>
     </g>
     <g id="text_11">
      <!-- −0.02 -->
      <g transform="translate(20.878125 146.515823)scale(0.1 -0.1)">
       <use xlink:href="#DejaVuSans-2212"/>
       <use xlink:href="#DejaVuSans-30" x="83.789062"/>
       <use xlink:href="#DejaVuSans-2e" x="147.412109"/>
       <use xlink:href="#DejaVuSans-30" x="179.199219"/>
       <use xlink:href="#DejaVuSans-32" x="242.822266"/>
      </g>
     </g>
    </g>
    <g id="ytick_5">
     <g id="line2d_12">
      <g>
       <use xlink:href="#mc5c846391f" x="58.523438" y="116.373127" style="stroke: #000000; stroke-width: 0.8"/>
      </g>
     </g>
     <g id="text_12">
      <!-- 0.00 -->
      <g transform="translate(29.257813 120.172346)scale(0.1 -0.1)">
       <use xlink:href="#DejaVuSans-30"/>
       <use xlink:href="#DejaVuSans-2e" x="63.623047"/>
       <use xlink:href="#DejaVuSans-30" x="95.410156"/>
       <use xlink:href="#DejaVuSans-30" x="159.033203"/>
      </g>
     </g>
    </g>
    <g id="ytick_6">
     <g id="line2d_13">
      <g>
       <use xlink:href="#mc5c846391f" x="58.523438" y="90.02965" style="stroke: #000000; stroke-width: 0.8"/>
      </g>
     </g>
     <g id="text_13">
      <!-- 0.02 -->
      <g transform="translate(29.257813 93.828869)scale(0.1 -0.1)">
       <use xlink:href="#DejaVuSans-30"/>
       <use xlink:href="#DejaVuSans-2e" x="63.623047"/>
       <use xlink:href="#DejaVuSans-30" x="95.410156"/>
       <use xlink:href="#DejaVuSans-32" x="159.033203"/>
      </g>
     </g>
    </g>
    <g id="ytick_7">
     <g id="line2d_14">
      <g>
       <use xlink:href="#mc5c846391f" x="58.523438" y="63.686173" style="stroke: #000000; stroke-width: 0.8"/>
      </g>
     </g>
     <g id="text_14">
      <!-- 0.04 -->
      <g transform="translate(29.257813 67.485392)scale(0.1 -0.1)">
       <use xlink:href="#DejaVuSans-30"/>
       <use xlink:href="#DejaVuSans-2e" x="63.623047"/>
       <use xlink:href="#DejaVuSans-30" x="95.410156"/>
       <use xlink:href="#DejaVuSans-34" x="159.033203"/>
      </g>
     </g>
    </g>
    <g id="ytick_8">
     <g id="line2d_15">
      <g>
       <use xlink:href="#mc5c846391f" x="58.523438" y="37.342696" style="stroke: #000000; stroke-width: 0.8"/>
      </g>
     </g>
     <g id="text_15">
      <!-- 0.06 -->
      <g transform="translate(29.257813 41.141915)scale(0.1 -0.1)">
       <use xlink:href="#DejaVuSans-30"/>
       <use xlink:href="#DejaVuSans-2e" x="63.623047"/>
       <use xlink:href="#DejaVuSans-30" x="95.410156"/>
       <use xlink:href="#DejaVuSans-36" x="159.033203"/>
      </g>
     </g>
    </g>
    <g id="ytick_9">
     <g id="line2d_16">
      <g>
       <use xlink:href="#mc5c846391f" x="58.523438" y="10.999219" style="stroke: #000000; stroke-width: 0.8"/>
      </g>
     </g>
     <g id="text_16">
      <!-- 0.08 -->
      <g transform="translate(29.257813 14.798437)scale(0.1 -0.1)">
       <use xlink:href="#DejaVuSans-30"/>
       <use xlink:href="#DejaVuSans-2e" x="63.623047"/>
       <use xlink:href="#DejaVuSans-30" x="95.410156"/>
       <use xlink:href="#DejaVuSans-38" x="159.033203"/>
      </g>
     </g>
    </g>
    <g id="text_17">
     <!-- Slope, dx/dy -->
     <g transform="translate(14.798438 147.488348)rotate(-90)scale(0.1 -0.1)">
      <defs>
       <path id="DejaVuSans-53" d="M 3425 4513 
L 3425 3897 
Q 3066 4069 2747 4153 
Q 2428 4238 2131 4238 
Q 1616 4238 1336 4038 
Q 1056 3838 1056 3469 
Q 1056 3159 1242 3001 
Q 1428 2844 1947 2747 
L 2328 2669 
Q 3034 2534 3370 2195 
Q 3706 1856 3706 1288 
Q 3706 609 3251 259 
Q 2797 -91 1919 -91 
Q 1588 -91 1214 -16 
Q 841 59 441 206 
L 441 856 
Q 825 641 1194 531 
Q 1563 422 1919 422 
Q 2459 422 2753 634 
Q 3047 847 3047 1241 
Q 3047 1584 2836 1778 
Q 2625 1972 2144 2069 
L 1759 2144 
Q 1053 2284 737 2584 
Q 422 2884 422 3419 
Q 422 4038 858 4394 
Q 1294 4750 2059 4750 
Q 2388 4750 2728 4690 
Q 3069 4631 3425 4513 
z
" transform="scale(0.015625)"/>
       <path id="DejaVuSans-6c" d="M 603 4863 
L 1178 4863 
L 1178 0 
L 603 0 
L 603 4863 
z
" transform="scale(0.015625)"/>
       <path id="DejaVuSans-6f" d="M 1959 3097 
Q 1497 3097 1228 2736 
Q 959 2375 959 1747 
Q 959 1119 1226 758 
Q 1494 397 1959 397 
Q 2419 397 2687 759 
Q 2956 1122 2956 1747 
Q 2956 2369 2687 2733 
Q 2419 3097 1959 3097 
z
M 1959 3584 
Q 2709 3584 3137 3096 
Q 3566 2609 3566 1747 
Q 3566 888 3137 398 
Q 2709 -91 1959 -91 
Q 1206 -91 779 398 
Q 353 888 353 1747 
Q 353 2609 779 3096 
Q 1206 3584 1959 3584 
z
" transform="scale(0.015625)"/>
       <path id="DejaVuSans-70" d="M 1159 525 
L 1159 -1331 
L 581 -1331 
L 581 3500 
L 1159 3500 
L 1159 2969 
Q 1341 3281 1617 3432 
Q 1894 3584 2278 3584 
Q 2916 3584 3314 3078 
Q 3713 2572 3713 1747 
Q 3713 922 3314 415 
Q 2916 -91 2278 -91 
Q 1894 -91 1617 61 
Q 1341 213 1159 525 
z
M 3116 1747 
Q 3116 2381 2855 2742 
Q 2594 3103 2138 3103 
Q 1681 3103 1420 2742 
Q 1159 2381 1159 1747 
Q 1159 1113 1420 752 
Q 1681 391 2138 391 
Q 2594 391 2855 752 
Q 3116 1113 3116 1747 
z
" transform="scale(0.015625)"/>
       <path id="DejaVuSans-65" d="M 3597 1894 
L 3597 1613 
L 953 1613 
Q 991 1019 1311 708 
Q 1631 397 2203 397 
Q 2534 397 2845 478 
Q 3156 559 3463 722 
L 3463 178 
Q 3153 47 2828 -22 
Q 2503 -91 2169 -91 
Q 1331 -91 842 396 
Q 353 884 353 1716 
Q 353 2575 817 3079 
Q 1281 3584 2069 3584 
Q 2775 3584 3186 3129 
Q 3597 2675 3597 1894 
z
M 3022 2063 
Q 3016 2534 2758 2815 
Q 2500 3097 2075 3097 
Q 1594 3097 1305 2825 
Q 1016 2553 972 2059 
L 3022 2063 
z
" transform="scale(0.015625)"/>
       <path id="DejaVuSans-2c" d="M 750 794 
L 1409 794 
L 1409 256 
L 897 -744 
L 494 -744 
L 750 256 
L 750 794 
z
" transform="scale(0.015625)"/>
       <path id="DejaVuSans-20" transform="scale(0.015625)"/>
       <path id="DejaVuSans-64" d="M 2906 2969 
L 2906 4863 
L 3481 4863 
L 3481 0 
L 2906 0 
L 2906 525 
Q 2725 213 2448 61 
Q 2172 -91 1784 -91 
Q 1150 -91 751 415 
Q 353 922 353 1747 
Q 353 2572 751 3078 
Q 1150 3584 1784 3584 
Q 2172 3584 2448 3432 
Q 2725 3281 2906 2969 
z
M 947 1747 
Q 947 1113 1208 752 
Q 1469 391 1925 391 
Q 2381 391 2643 752 
Q 2906 1113 2906 1747 
Q 2906 2381 2643 2742 
Q 2381 3103 1925 3103 
Q 1469 3103 1208 2742 
Q 947 2381 947 1747 
z
" transform="scale(0.015625)"/>
       <path id="DejaVuSans-78" d="M 3513 3500 
L 2247 1797 
L 3578 0 
L 2900 0 
L 1881 1375 
L 863 0 
L 184 0 
L 1544 1831 
L 300 3500 
L 978 3500 
L 1906 2253 
L 2834 3500 
L 3513 3500 
z
" transform="scale(0.015625)"/>
       <path id="DejaVuSans-2f" d="M 1625 4666 
L 2156 4666 
L 531 -594 
L 0 -594 
L 1625 4666 
z
" transform="scale(0.015625)"/>
       <path id="DejaVuSans-79" d="M 2059 -325 
Q 1816 -950 1584 -1140 
Q 1353 -1331 966 -1331 
L 506 -1331 
L 506 -850 
L 844 -850 
Q 1081 -850 1212 -737 
Q 1344 -625 1503 -206 
L 1606 56 
L 191 3500 
L 800 3500 
L 1894 763 
L 2988 3500 
L 3597 3500 
L 2059 -325 
z
" transform="scale(0.015625)"/>
      </defs>
      <use xlink:href="#DejaVuSans-53"/>
      <use xlink:href="#DejaVuSans-6c" x="63.476562"/>
      <use xlink:href="#DejaVuSans-6f" x="91.259766"/>
      <use xlink:href="#DejaVuSans-70" x="152.441406"/>
      <use xlink:href="#DejaVuSans-65" x="215.917969"/>
      <use xlink:href="#DejaVuSans-2c" x="277.441406"/>
      <use xlink:href="#DejaVuSans-20" x="309.228516"/>
      <use xlink:href="#DejaVuSans-64" x="341.015625"/>
      <use xlink:href="#DejaVuSans-78" x="404.492188"/>
      <use xlink:href="#DejaVuSans-2f" x="463.671875"/>
      <use xlink:href="#DejaVuSans-64" x="497.363281"/>
      <use xlink:href="#DejaVuSans-79" x="560.839844"/>
     </g>
    </g>
   </g>
   <g id="line2d_17">
    <path d="M 73.741619 156.71822 
L 74.046593 135.967241 
L 74.351566 75.523761 
L 74.961514 109.160416 
L 75.266487 104.970556 
L 75.571461 145.62142 
L 75.876434 76.953815 
L 76.181408 120.422235 
L 76.486382 93.696928 
L 76.791355 105.617381 
L 77.096329 82.78147 
L 77.401302 136.019285 
L 77.706276 147.393125 
L 78.011249 86.159397 
L 78.316223 72.274992 
L 78.621197 116.265808 
L 78.92617 104.485468 
L 79.231144 130.024856 
L 79.536117 83.984616 
L 79.841091 166.22801 
L 80.146065 48.812754 
L 80.451038 156.060121 
L 80.756012 78.662873 
L 81.060985 139.943281 
L 81.365959 72.347088 
L 81.975906 121.079558 
L 82.28088 125.927034 
L 82.585853 84.643322 
L 82.890827 96.123216 
L 83.1958 164.605639 
L 83.500774 108.566238 
L 83.805748 89.489673 
L 84.110721 86.398516 
L 84.415695 152.875281 
L 84.720668 61.357812 
L 85.330615 106.12526 
L 85.635589 177.927755 
L 85.940563 50.563077 
L 86.245536 153.07518 
L 86.55051 64.691577 
L 86.855483 110.20027 
L 87.160457 136.216302 
L 87.465431 119.980073 
L 87.770404 76.274359 
L 88.075378 128.001144 
L 88.380351 85.884 
L 88.685325 176.517351 
L 88.990298 36.359798 
L 89.600246 170.827164 
L 89.905219 50.552035 
L 90.210193 117.97952 
L 90.515166 113.653112 
L 90.82014 104.244712 
L 91.125114 137.497537 
L 91.430087 141.562146 
L 91.735061 59.696997 
L 92.040034 162.200352 
L 92.345008 91.902556 
L 92.649981 52.101317 
L 92.954955 144.475433 
L 93.259929 109.783022 
L 93.564902 99.235132 
L 93.869876 151.491736 
L 94.174849 31.778598 
L 94.784797 179.996569 
L 95.08977 105.181137 
L 95.394744 97.65324 
L 95.699717 69.769849 
L 96.004691 122.310764 
L 96.309664 149.666425 
L 96.614638 82.034464 
L 96.919612 96.692235 
L 97.224585 148.111464 
L 97.529559 32.0887 
L 97.834532 153.517948 
L 98.139506 71.460805 
L 98.44448 139.854332 
L 98.749453 126.345789 
L 99.3594 116.199677 
L 99.664374 76.220245 
L 99.969348 101.847296 
L 100.274321 107.219649 
L 100.579295 102.169826 
L 100.884268 94.450919 
L 101.189242 159.1295 
L 101.494215 75.761241 
L 101.799189 91.16885 
L 102.104163 130.701363 
L 102.409136 85.641421 
L 102.71411 122.100619 
L 103.019083 96.008084 
L 103.324057 161.142258 
L 103.629031 73.184293 
L 103.934004 143.754998 
L 104.238978 124.208084 
L 104.543951 52.81822 
L 104.848925 175.746846 
L 105.153898 91.364708 
L 105.458872 103.406346 
L 105.763846 105.310564 
L 106.068819 70.531517 
L 106.373793 158.558999 
L 107.288714 76.699373 
L 107.593687 125.033261 
L 107.898661 115.656423 
L 108.203634 102.198127 
L 108.508608 105.319341 
L 108.813581 83.347014 
L 109.118555 140.380634 
L 109.423529 80.835797 
L 109.728502 117.515305 
L 110.033476 98.174113 
L 110.338449 123.299307 
L 110.643423 115.34026 
L 110.948397 130.522311 
L 111.25337 125.502289 
L 111.558344 111.746023 
L 111.863317 103.233556 
L 112.168291 74.963346 
L 112.473264 133.163707 
L 112.778238 92.268311 
L 113.083212 114.85252 
L 113.388185 156.638419 
L 113.693159 53.678484 
L 113.998132 121.366738 
L 114.303106 79.712587 
L 114.60808 137.72002 
L 114.913053 148.501917 
L 115.218027 74.389298 
L 115.523 156.839344 
L 115.827974 38.79205 
L 116.132947 149.096208 
L 116.437921 153.475451 
L 116.742895 70.928208 
L 117.047868 78.08427 
L 117.352842 186.277828 
L 117.657815 111.653154 
L 117.962789 102.786106 
L 118.267763 89.568991 
L 118.572736 125.231062 
L 118.87771 105.51359 
L 119.182683 110.887999 
L 119.487657 101.173095 
L 119.79263 112.621764 
L 120.097604 109.815144 
L 120.402578 128.248218 
L 120.707551 82.261801 
L 121.012525 103.458223 
L 121.317498 97.387593 
L 121.622472 149.733661 
L 121.927446 56.710079 
L 122.232419 140.60669 
L 122.537393 156.02334 
L 122.842366 116.854092 
L 123.14734 93.491978 
L 123.452313 79.713501 
L 123.757287 165.48911 
L 124.062261 104.362083 
L 124.367234 107.273366 
L 124.672208 73.619799 
L 124.977181 87.194531 
L 125.282155 135.267399 
L 125.587129 123.273996 
L 125.892102 121.720554 
L 126.197076 151.697299 
L 126.502049 97.974579 
L 126.807023 75.676234 
L 127.111996 80.014338 
L 127.41697 108.488216 
L 127.721944 115.206927 
L 128.026917 199.972364 
L 128.331891 99.379516 
L 128.636864 40.792589 
L 128.941838 114.91347 
L 129.246812 158.484068 
L 129.551785 70.516984 
L 129.856759 189.132546 
L 130.161732 44.065218 
L 130.466706 143.389438 
L 130.771679 107.423517 
L 131.076653 104.895955 
L 131.381627 106.290323 
L 131.6866 160.937927 
L 131.991574 108.200309 
L 132.296547 88.029356 
L 132.601521 120.751059 
L 132.906495 133.113651 
L 133.211468 83.624088 
L 133.516442 159.926894 
L 133.821415 82.764443 
L 134.126389 143.668142 
L 134.431362 51.490945 
L 134.736336 91.459095 
L 135.04131 166.775677 
L 135.346283 94.361936 
L 135.651257 120.126554 
L 135.95623 106.785312 
L 136.261204 111.782286 
L 136.566178 141.15529 
L 136.871151 78.864937 
L 137.176125 109.946151 
L 137.481098 98.365619 
L 137.786072 131.522678 
L 138.091045 113.776533 
L 138.396019 139.337485 
L 138.700993 140.901527 
L 139.005966 77.270427 
L 139.31094 127.73236 
L 139.615913 145.281904 
L 139.920887 64.885521 
L 140.225861 115.920956 
L 140.530834 121.661621 
L 140.835808 167.676226 
L 141.445755 63.219949 
L 141.750728 121.732763 
L 142.055702 158.571762 
L 142.360676 79.004658 
L 142.665649 89.552285 
L 142.970623 155.606586 
L 143.275596 80.253417 
L 143.885544 161.264762 
L 144.190517 123.541986 
L 144.495491 47.042727 
L 144.800464 136.924012 
L 145.105438 108.157914 
L 145.410411 131.355973 
L 145.715385 125.642666 
L 146.020359 72.83 
L 146.630306 158.789778 
L 146.935279 116.989306 
L 147.240253 118.568817 
L 147.545227 129.719746 
L 147.8502 86.751431 
L 148.155174 108.726144 
L 148.460147 146.695876 
L 148.765121 65.789412 
L 149.070094 151.73142 
L 149.375068 94.346243 
L 149.680042 115.730322 
L 149.985015 87.094852 
L 150.289989 193.46849 
L 150.594962 83.945725 
L 150.899936 65.101007 
L 151.20491 198.958308 
L 151.509883 99.602516 
L 151.814857 130.87614 
L 152.11983 44.429927 
L 152.424804 138.585526 
L 152.729777 154.708099 
L 153.034751 99.802814 
L 153.339725 133.683645 
L 153.644698 81.154597 
L 153.949672 97.952457 
L 154.254645 171.765938 
L 154.559619 57.837423 
L 154.864593 159.931421 
L 155.169566 101.354292 
L 155.47454 80.987567 
L 155.779513 201.600887 
L 156.084487 37.840855 
L 156.38946 201.284123 
L 156.694434 52.261512 
L 156.999408 124.150871 
L 157.304381 92.344813 
L 157.609355 175.579788 
L 158.219302 74.940234 
L 158.524276 148.866915 
L 158.829249 122.190623 
L 159.134223 119.903824 
L 159.439196 126.380342 
L 159.74417 101.889718 
L 160.049143 144.24839 
L 160.354117 42.165812 
L 160.659091 175.110342 
L 160.964064 123.043473 
L 161.269038 91.419694 
L 161.574011 152.638752 
L 161.878985 93.688467 
L 162.183959 162.374294 
L 162.488932 60.193214 
L 162.793906 138.144973 
L 163.098879 74.663131 
L 163.403853 173.235573 
L 163.708826 138.7432 
L 164.0138 62.797633 
L 164.623747 164.753206 
L 164.928721 82.82825 
L 165.538668 151.679951 
L 165.843642 134.070203 
L 166.148615 79.36128 
L 166.453589 91.430933 
L 167.063536 153.824802 
L 167.368509 98.06541 
L 167.673483 185.223865 
L 167.978457 81.880514 
L 168.28343 144.866964 
L 168.588404 133.130531 
L 168.893377 76.590139 
L 169.198351 94.407556 
L 169.808298 145.018389 
L 170.113272 107.687733 
L 170.418245 138.57927 
L 170.723219 135.382728 
L 171.028192 104.428004 
L 171.333166 90.527043 
L 171.63814 184.097314 
L 171.943113 61.258346 
L 172.248087 144.37155 
L 172.55306 83.543056 
L 172.858034 175.989024 
L 173.163008 88.046163 
L 173.467981 154.312433 
L 173.772955 73.346659 
L 174.077928 113.06953 
L 174.382902 113.705708 
L 174.687875 129.361683 
L 174.992849 176.551598 
L 175.297823 91.282085 
L 175.602796 73.273796 
L 175.90777 135.802571 
L 176.212743 169.905936 
L 176.517717 87.018912 
L 176.822691 124.128999 
L 177.127664 126.862489 
L 177.432638 109.997355 
L 177.737611 125.624788 
L 178.042585 131.925205 
L 178.347558 100.640075 
L 178.652532 135.547763 
L 178.957506 134.322135 
L 179.262479 121.210172 
L 179.567453 153.082428 
L 179.872426 113.044269 
L 180.1774 105.351022 
L 180.482374 73.350903 
L 180.787347 159.706169 
L 181.092321 147.92477 
L 181.397294 115.351859 
L 181.702268 69.352201 
L 182.007241 186.97258 
L 182.312215 95.012313 
L 182.617189 127.851359 
L 182.922162 116.076249 
L 183.227136 114.59812 
L 183.532109 90.264918 
L 183.837083 144.132879 
L 184.142057 137.098837 
L 184.44703 111.069054 
L 184.752004 157.713495 
L 185.056977 91.747333 
L 185.361951 125.342994 
L 185.666924 142.029811 
L 185.971898 76.07996 
L 186.276872 141.938012 
L 186.581845 136.341306 
L 186.886819 56.024224 
L 187.191792 171.491806 
L 187.496766 150.224974 
L 187.80174 87.204173 
L 188.106713 168.122828 
L 188.411687 39.671491 
L 188.71666 204.030025 
L 189.021634 41.949394 
L 189.326607 146.54209 
L 189.631581 177.584305 
L 189.936555 58.926273 
L 190.241528 154.335673 
L 190.546502 116.397851 
L 190.851475 125.103345 
L 191.156449 86.926312 
L 191.461423 137.949315 
L 191.766396 127.714209 
L 192.07137 108.496292 
L 192.376343 161.814778 
L 192.681317 85.154488 
L 192.98629 149.904626 
L 193.291264 158.104856 
L 193.596238 73.994872 
L 193.901211 121.575844 
L 194.206185 118.987634 
L 194.511158 155.159999 
L 194.816132 113.385009 
L 195.121106 106.711725 
L 195.426079 135.859294 
L 195.731053 87.982938 
L 196.036026 150.318831 
L 196.341 85.215186 
L 196.950947 183.988595 
L 197.255921 80.369842 
L 197.560894 94.099835 
L 197.865868 157.630136 
L 198.170841 158.946017 
L 198.780789 111.375508 
L 199.085762 49.020367 
L 199.390736 190.19796 
L 199.695709 122.804432 
L 200.305656 100.022325 
L 200.61063 152.840352 
L 200.915604 102.185151 
L 201.220577 156.053962 
L 201.525551 125.793836 
L 201.830524 120.94857 
L 202.135498 122.395276 
L 202.440472 94.341488 
L 202.745445 103.524516 
L 203.050419 117.130132 
L 203.355392 139.953059 
L 203.660366 176.395699 
L 203.965339 90.662761 
L 204.270313 83.508303 
L 204.575287 114.95372 
L 204.88026 215.321587 
L 205.185234 119.384513 
L 205.490207 99.713084 
L 205.795181 92.540753 
L 206.100155 95.537107 
L 207.015075 182.897956 
L 207.625022 53.842936 
L 207.929996 196.013051 
L 208.23497 64.775899 
L 208.539943 180.649273 
L 208.844917 52.807565 
L 209.14989 141.978971 
L 209.454864 160.879071 
L 209.759838 139.782049 
L 210.064811 136.921856 
L 210.369785 107.186648 
L 210.674758 130.165017 
L 210.979732 100.773783 
L 211.284705 155.462828 
L 211.589679 80.747613 
L 211.894653 98.013194 
L 212.199626 196.415677 
L 212.5046 84.363619 
L 212.809573 110.836541 
L 213.114547 180.49097 
L 213.419521 58.201109 
L 213.724494 121.75471 
L 214.029468 118.879796 
L 214.334441 168.684177 
L 214.639415 67.560916 
L 214.944388 191.15696 
L 215.249362 90.776254 
L 215.554336 180.724085 
L 215.859309 114.312724 
L 216.164283 86.606175 
L 216.469256 98.313856 
L 216.77423 135.634353 
L 217.079204 104.782448 
L 217.384177 158.315725 
L 217.689151 160.112121 
L 217.994124 75.981364 
L 218.604071 143.325201 
L 218.909045 140.460941 
L 219.214019 160.386759 
L 219.518992 62.815715 
L 219.823966 149.858042 
L 220.128939 120.565096 
L 220.433913 164.720749 
L 220.738887 107.903094 
L 221.04386 140.354693 
L 221.348834 126.598248 
L 221.653807 91.992849 
L 221.958781 84.375284 
L 222.263754 173.923194 
L 222.568728 143.692955 
L 222.873702 94.361698 
L 223.178675 134.689111 
L 223.483649 151.810273 
L 223.788622 126.087024 
L 224.093596 49.933086 
L 224.39857 184.118704 
L 224.703543 64.132442 
L 225.008517 137.25188 
L 225.31349 118.84328 
L 225.618464 140.594502 
L 225.923438 114.875785 
L 226.228411 130.890676 
L 226.533385 93.755729 
L 226.838358 184.688107 
L 227.143332 81.36106 
L 227.448305 177.038811 
L 227.753279 82.150042 
L 228.058253 144.62332 
L 228.363226 105.655437 
L 228.6682 96.712309 
L 229.278147 165.401096 
L 229.583121 155.533033 
L 229.888094 75.334752 
L 230.193068 141.015085 
L 230.498041 163.59939 
L 230.803015 109.955837 
L 231.107988 126.612533 
L 231.412962 80.909436 
L 231.717936 176.428474 
L 232.022909 89.117042 
L 232.327883 94.123772 
L 232.632856 197.392009 
L 232.93783 56.509914 
L 233.242804 133.516969 
L 233.547777 125.114347 
L 233.852751 109.555837 
L 234.157724 130.842166 
L 234.462698 112.356258 
L 234.767671 119.313402 
L 235.072645 202.209633 
L 235.377619 48.443909 
L 235.682592 181.614664 
L 235.987566 99.319039 
L 236.292539 165.72738 
L 236.597513 124.053976 
L 236.902487 66.343102 
L 237.20746 178.870678 
L 237.512434 112.34457 
L 237.817407 145.897668 
L 238.122381 96.679341 
L 238.427354 126.368 
L 238.732328 131.457868 
L 239.037302 75.18876 
L 239.342275 122.89434 
L 239.647249 111.555454 
L 239.952222 134.380079 
L 240.257196 182.290261 
L 240.56217 122.624858 
L 240.867143 99.039782 
L 241.172117 145.131042 
L 241.47709 100.103954 
L 241.782064 147.475209 
L 242.087037 151.884389 
L 242.392011 74.833101 
L 242.696985 140.165027 
L 243.001958 124.003624 
L 243.306932 91.639044 
L 243.611905 158.739586 
L 243.916879 132.126267 
L 244.526826 111.689008 
L 244.8318 85.969195 
L 245.136773 117.536654 
L 245.441747 169.695313 
L 246.356668 93.04054 
L 246.966615 164.667241 
L 247.271588 72.871403 
L 247.576562 172.829795 
L 247.881536 106.398929 
L 248.186509 107.139744 
L 248.491483 155.584988 
L 248.796456 58.155195 
L 249.10143 163.954178 
L 249.406403 159.517563 
L 249.711377 84.315325 
L 250.016351 87.592185 
L 250.321324 180.269768 
L 250.626298 82.424971 
L 250.931271 120.575398 
L 251.236245 185.525853 
L 251.541219 74.040861 
L 251.846192 162.775013 
L 252.151166 68.308841 
L 252.456139 150.416813 
L 252.761113 132.133265 
L 253.066086 103.940637 
L 253.37106 152.229607 
L 253.981007 94.25833 
L 254.285981 106.91562 
L 254.590954 153.855301 
L 254.895928 140.538259 
L 255.200902 69.824642 
L 255.505875 123.236955 
L 255.810849 144.330407 
L 256.115822 146.410423 
L 256.420796 143.221758 
L 256.725769 84.647779 
L 257.030743 166.226609 
L 257.335717 59.650962 
L 257.64069 137.206894 
L 257.945664 120.121514 
L 258.250637 156.531004 
L 258.555611 148.995565 
L 258.860585 76.031771 
L 259.165558 163.351001 
L 259.470532 110.831487 
L 259.775505 130.800404 
L 260.690426 107.273226 
L 260.9954 92.005019 
L 261.300373 171.56512 
L 261.605347 53.777051 
L 261.91032 211.798113 
L 262.215294 74.571532 
L 262.520268 105.136051 
L 262.825241 167.306515 
L 263.130215 77.760601 
L 263.435188 140.108111 
L 263.740162 94.475668 
L 264.045135 120.294412 
L 264.350109 121.571705 
L 264.655083 127.074838 
L 264.960056 134.781476 
L 265.26503 171.081938 
L 265.570003 96.142539 
L 265.874977 98.102844 
L 266.179951 108.137115 
L 266.484924 196.406603 
L 267.094871 61.239649 
L 267.399845 182.836969 
L 267.704818 35.944604 
L 268.009792 147.676479 
L 268.314766 180.641414 
L 268.619739 61.962856 
L 268.924713 143.965831 
L 269.229686 84.930803 
L 269.53466 139.144869 
L 269.839634 136.615647 
L 270.144607 115.228492 
L 270.449581 85.465046 
L 270.754554 174.0604 
L 271.059528 93.382119 
L 271.364501 129.590389 
L 271.669475 143.334495 
L 271.974449 74.740279 
L 272.279422 164.889878 
L 272.584396 78.025192 
L 272.889369 157.221905 
L 273.194343 119.729342 
L 273.499317 132.582504 
L 273.80429 135.747245 
L 274.109264 115.665067 
L 274.414237 83.594519 
L 274.719211 144.661597 
L 275.024184 66.970081 
L 275.329158 154.732348 
L 275.634132 117.249988 
L 275.939105 98.63886 
L 276.244079 160.035137 
L 276.549052 137.001218 
L 276.854026 102.03726 
L 277.159 140.3744 
L 277.463973 115.734261 
L 277.768947 116.587989 
L 278.07392 122.114014 
L 278.378894 70.213477 
L 278.683867 176.620949 
L 278.988841 65.416898 
L 279.293815 164.241223 
L 279.598788 100.085422 
L 279.903762 151.081197 
L 280.208735 126.412569 
L 280.513709 46.82591 
L 280.818683 208.297873 
L 281.123656 58.771029 
L 281.42863 91.614291 
L 281.733603 172.821224 
L 282.038577 142.853159 
L 282.34355 49.960483 
L 282.648524 196.709954 
L 282.953498 117.655485 
L 283.258471 80.913844 
L 283.563445 164.544109 
L 283.868418 86.673613 
L 284.173392 82.734481 
L 284.478366 187.944862 
L 284.783339 88.010236 
L 285.088313 120.632594 
L 285.393286 131.715394 
L 285.69826 74.711341 
L 286.003233 174.492173 
L 286.308207 96.982322 
L 286.613181 93.352902 
L 286.918154 128.822892 
L 287.223128 103.250914 
L 287.528101 168.919088 
L 287.833075 47.933217 
L 288.138049 153.274019 
L 288.443022 105.857402 
L 288.747996 174.992033 
L 289.052969 65.886129 
L 289.357943 156.809179 
L 289.662916 88.598525 
L 289.96789 109.638437 
L 290.272864 94.781347 
L 290.577837 190.700679 
L 290.882811 99.882532 
L 291.187784 100.552479 
L 291.492758 125.71991 
L 291.797732 136.598205 
L 292.102705 74.028538 
L 292.407679 132.037531 
L 292.712652 153.212808 
L 293.017626 128.020659 
L 293.322599 41.520145 
L 293.627573 143.673831 
L 293.932547 125.75904 
L 294.23752 79.99646 
L 294.847467 184.486282 
L 295.152441 64.467744 
L 295.457415 175.571084 
L 295.762388 42.874915 
L 296.067362 178.973849 
L 296.372335 74.662649 
L 297.287256 163.515572 
L 297.59223 68.676431 
L 297.897203 91.982844 
L 298.202177 179.09779 
L 298.50715 85.20588 
L 298.812124 95.734591 
L 299.117098 119.602231 
L 299.422071 113.75463 
L 299.727045 161.181388 
L 300.032018 109.521123 
L 300.336992 137.414347 
L 300.641965 69.409128 
L 300.946939 138.882212 
L 301.251913 149.193926 
L 301.556886 47.401436 
L 301.86186 155.809246 
L 302.166833 73.273418 
L 302.471807 120.815219 
L 302.776781 137.633027 
L 303.081754 127.078906 
L 303.386728 144.532358 
L 303.691701 90.640155 
L 303.996675 85.015942 
L 304.301648 159.735094 
L 304.606622 122.170818 
L 304.911596 102.29972 
L 305.216569 127.854208 
L 305.521543 74.304764 
L 305.826516 174.582152 
L 306.13149 105.440444 
L 306.436464 103.392065 
L 306.741437 107.453532 
L 307.046411 92.038347 
L 307.351384 166.132774 
L 307.656358 63.772322 
L 307.961331 154.346378 
L 308.266305 55.024154 
L 308.571279 156.094887 
L 308.876252 156.531399 
L 309.181226 74.628818 
L 310.096147 127.333666 
L 310.40112 113.067993 
L 310.706094 120.272003 
L 311.011067 121.650062 
L 311.316041 118.131175 
L 311.621014 86.404382 
L 311.925988 133.226762 
L 312.230962 118.284387 
L 312.535935 111.785082 
L 312.840909 132.289076 
L 313.145882 125.221753 
L 313.450856 46.301188 
L 313.75583 144.956719 
L 314.060803 151.416128 
L 314.365777 37.662563 
L 314.67075 144.836619 
L 314.975724 141.606551 
L 315.280697 62.021002 
L 315.585671 181.575484 
L 315.890645 65.301368 
L 316.195618 164.18715 
L 316.500592 54.498789 
L 317.110539 169.305126 
L 317.415513 68.600701 
L 317.720486 144.570892 
L 318.02546 68.501893 
L 318.635407 163.55788 
L 319.245354 56.301237 
L 319.550328 124.540442 
L 319.855301 93.404148 
L 320.160275 144.043848 
L 320.465248 150.041298 
L 320.770222 98.379081 
L 321.075196 133.089353 
L 321.380169 94.930941 
L 321.685143 78.269643 
L 321.990116 132.826623 
L 322.29509 103.803243 
L 322.600063 141.760325 
L 322.905037 125.307571 
L 323.210011 54.469637 
L 323.514984 169.716311 
L 323.819958 76.149781 
L 324.124931 104.565002 
L 324.429905 168.211221 
L 324.734879 86.154262 
L 325.039852 71.695491 
L 325.344826 125.181748 
L 325.649799 111.761897 
L 325.954773 170.691008 
L 326.259746 66.835675 
L 326.56472 69.830355 
L 326.869694 141.763004 
L 327.174667 113.733874 
L 327.479641 158.565429 
L 327.784614 76.452649 
L 328.089588 108.083765 
L 328.394562 163.033363 
L 328.699535 57.928719 
L 329.004509 85.802538 
L 329.309482 177.148109 
L 329.614456 47.203285 
L 329.919429 172.778974 
L 330.224403 94.74891 
L 330.529377 140.999526 
L 330.83435 116.766397 
L 331.139324 42.957331 
L 331.444297 112.248946 
L 331.749271 101.333941 
L 332.054245 107.47933 
L 332.359218 187.65254 
L 332.664192 88.545782 
L 332.969165 90.507941 
L 333.274139 161.541563 
L 333.579112 75.202974 
L 333.884086 64.822979 
L 334.18906 176.767826 
L 334.494033 102.945319 
L 334.799007 111.088301 
L 335.10398 132.117489 
L 335.408954 109.107137 
L 335.713928 109.911799 
L 336.018901 39.865898 
L 336.323875 135.021695 
L 336.628848 79.844324 
L 336.933822 180.990216 
L 337.543769 68.4278 
L 337.848743 143.050023 
L 338.153716 54.606667 
L 338.45869 138.523319 
L 338.763663 86.991062 
L 339.373611 126.435875 
L 339.678584 129.16245 
L 340.288531 62.575144 
L 340.593505 129.142544 
L 340.898478 157.152479 
L 341.203452 122.037256 
L 341.508426 45.42945 
L 341.813399 169.287114 
L 342.118373 98.389141 
L 342.423346 110.969696 
L 342.72832 64.532833 
L 343.033294 99.441593 
L 343.338267 178.385259 
L 343.643241 116.657194 
L 344.253188 83.665992 
L 344.558161 150.879242 
L 345.168109 75.239152 
L 345.473082 77.575628 
L 345.778056 93.126235 
L 346.083029 174.22853 
L 346.388003 127.963583 
L 346.692977 24.400915 
L 346.99795 179.638448 
L 347.607897 51.713966 
L 347.912871 159.24617 
L 348.217844 83.754017 
L 348.522818 159.106842 
L 348.827792 44.2983 
L 349.132765 148.90389 
L 349.437739 88.304216 
L 349.742712 127.464334 
L 350.047686 137.411361 
L 350.35266 70.969766 
L 350.657633 64.646452 
L 350.962607 167.220184 
L 351.26758 137.216887 
L 351.572554 62.600234 
L 351.877527 89.757027 
L 352.182501 89.037013 
L 352.487475 126.185444 
L 353.097422 144.975424 
L 353.707369 46.544967 
L 354.012343 166.151195 
L 354.62229 57.660021 
L 354.927263 89.301369 
L 355.232237 171.088952 
L 355.537211 98.2196 
L 355.842184 56.0335 
L 356.147158 189.455811 
L 356.452131 59.331714 
L 356.757105 148.804089 
L 357.062078 51.057045 
L 357.367052 108.721486 
L 357.976999 127.693333 
L 358.281973 152.197084 
L 358.586946 104.8879 
L 358.89192 37.146966 
L 359.196894 133.847029 
L 359.501867 69.85912 
L 359.806841 112.798499 
L 360.416788 133.084485 
L 361.026735 84.701565 
L 361.331709 175.729647 
L 361.636682 80.788107 
L 361.941656 138.616842 
L 362.246629 75.969288 
L 362.551603 66.083911 
L 362.856577 99.724388 
L 363.16155 102.819024 
L 363.466524 138.914458 
L 363.771497 147.611495 
L 364.076471 72.26174 
L 364.381444 119.53262 
L 364.686418 103.092069 
L 364.991392 96.863645 
L 365.296365 86.268529 
L 365.601339 104.356181 
L 365.906312 144.041714 
L 366.211286 110.238793 
L 366.51626 100.115217 
L 366.821233 141.594103 
L 367.126207 72.726187 
L 367.43118 147.636516 
L 367.736154 84.608246 
L 368.041127 152.747721 
L 368.346101 35.031458 
L 368.651075 176.840301 
L 368.956048 108.520881 
L 369.261022 112.590851 
L 369.870969 77.664457 
L 370.175943 103.87673 
L 370.480916 75.900268 
L 371.090863 146.77527 
L 371.395837 85.434145 
L 371.70081 91.0227 
L 372.005784 167.809991 
L 372.615731 63.521898 
L 372.920705 150.946333 
L 373.225678 68.32624 
L 373.530652 123.187372 
L 373.835626 84.078407 
L 374.140599 130.978378 
L 374.445573 101.887863 
L 375.05552 131.894486 
L 375.360493 52.088432 
L 375.665467 163.130182 
L 375.970441 121.986912 
L 376.275414 17.648859 
L 376.580388 147.596593 
L 376.885361 71.924241 
L 377.190335 172.628116 
L 377.495309 117.806475 
L 377.800282 95.982348 
L 378.105256 45.895051 
L 378.105256 45.895051 
" clip-path="url(#pc60bae17fd)" style="fill: none; stroke: #1f77b4; stroke-width: 1.5; stroke-linecap: square"/>
   </g>
   <g id="line2d_18">
    <path d="M 73.741619 108.08885 
L 81.670932 108.203609 
L 89.600246 108.536342 
L 97.834532 109.103007 
L 106.373793 109.911297 
L 115.523 110.998343 
L 125.892102 112.458596 
L 138.700993 114.500678 
L 177.737611 120.892735 
L 188.106713 122.263174 
L 197.255921 123.251319 
L 205.795181 123.95389 
L 214.029468 124.409471 
L 221.958781 124.62977 
L 229.888094 124.62977 
L 237.817407 124.409471 
L 246.051694 123.95389 
L 254.590954 123.251319 
L 263.435188 122.299697 
L 273.194343 121.022923 
L 284.478366 119.316408 
L 300.641965 116.620585 
L 323.210011 112.877927 
L 334.494033 111.24001 
L 344.253188 110.043749 
L 353.097422 109.179238 
L 361.636682 108.570748 
L 369.870969 108.212415 
L 377.800282 108.089178 
L 378.105256 108.08885 
L 378.105256 108.08885 
" clip-path="url(#pc60bae17fd)" style="fill: none; stroke: #ff7f0e; stroke-width: 1.5; stroke-linecap: square"/>
   </g>
   <g id="patch_3">
    <path d="M 58.523438 225.205223 
L 58.523438 7.765223 
" style="fill: none; stroke: #000000; stroke-width: 0.8; stroke-linejoin: miter; stroke-linecap: square"/>
   </g>
   <g id="patch_4">
    <path d="M 393.323438 225.205223 
L 393.323438 7.765223 
" style="fill: none; stroke: #000000; stroke-width: 0.8; stroke-linejoin: miter; stroke-linecap: square"/>
   </g>
   <g id="patch_5">
    <path d="M 58.523438 225.205223 
L 393.323438 225.205223 
" style="fill: none; stroke: #000000; stroke-width: 0.8; stroke-linejoin: miter; stroke-linecap: square"/>
   </g>
   <g id="patch_6">
    <path d="M 58.523438 7.765223 
L 393.323438 7.765223 
" style="fill: none; stroke: #000000; stroke-width: 0.8; stroke-linejoin: miter; stroke-linecap: square"/>
   </g>
   <g id="legend_1">
    <g id="patch_7">
     <path d="M 288.684375 220.205223 
L 386.323438 220.205223 
Q 388.323438 220.205223 388.323438 218.205223 
L 388.323438 189.848973 
Q 388.323438 187.848973 386.323438 187.848973 
L 288.684375 187.848973 
Q 286.684375 187.848973 286.684375 189.848973 
L 286.684375 218.205223 
Q 286.684375 220.205223 288.684375 220.205223 
z
" style="fill: #ffffff; opacity: 0.8; stroke: #cccccc; stroke-linejoin: miter"/>
    </g>
    <g id="line2d_19">
     <path d="M 290.684375 195.94741 
L 300.684375 195.94741 
L 310.684375 195.94741 
" style="fill: none; stroke: #1f77b4; stroke-width: 1.5; stroke-linecap: square"/>
    </g>
    <g id="text_18">
     <!-- Noisy Data -->
     <g transform="translate(318.684375 199.44741)scale(0.1 -0.1)">
      <defs>
       <path id="DejaVuSans-4e" d="M 628 4666 
L 1478 4666 
L 3547 763 
L 3547 4666 
L 4159 4666 
L 4159 0 
L 3309 0 
L 1241 3903 
L 1241 0 
L 628 0 
L 628 4666 
z
" transform="scale(0.015625)"/>
       <path id="DejaVuSans-69" d="M 603 3500 
L 1178 3500 
L 1178 0 
L 603 0 
L 603 3500 
z
M 603 4863 
L 1178 4863 
L 1178 4134 
L 603 4134 
L 603 4863 
z
" transform="scale(0.015625)"/>
       <path id="DejaVuSans-73" d="M 2834 3397 
L 2834 2853 
Q 2591 2978 2328 3040 
Q 2066 3103 1784 3103 
Q 1356 3103 1142 2972 
Q 928 2841 928 2578 
Q 928 2378 1081 2264 
Q 1234 2150 1697 2047 
L 1894 2003 
Q 2506 1872 2764 1633 
Q 3022 1394 3022 966 
Q 3022 478 2636 193 
Q 2250 -91 1575 -91 
Q 1294 -91 989 -36 
Q 684 19 347 128 
L 347 722 
Q 666 556 975 473 
Q 1284 391 1588 391 
Q 1994 391 2212 530 
Q 2431 669 2431 922 
Q 2431 1156 2273 1281 
Q 2116 1406 1581 1522 
L 1381 1569 
Q 847 1681 609 1914 
Q 372 2147 372 2553 
Q 372 3047 722 3315 
Q 1072 3584 1716 3584 
Q 2034 3584 2315 3537 
Q 2597 3491 2834 3397 
z
" transform="scale(0.015625)"/>
       <path id="DejaVuSans-44" d="M 1259 4147 
L 1259 519 
L 2022 519 
Q 2988 519 3436 956 
Q 3884 1394 3884 2338 
Q 3884 3275 3436 3711 
Q 2988 4147 2022 4147 
L 1259 4147 
z
M 628 4666 
L 1925 4666 
Q 3281 4666 3915 4102 
Q 4550 3538 4550 2338 
Q 4550 1131 3912 565 
Q 3275 0 1925 0 
L 628 0 
L 628 4666 
z
" transform="scale(0.015625)"/>
       <path id="DejaVuSans-61" d="M 2194 1759 
Q 1497 1759 1228 1600 
Q 959 1441 959 1056 
Q 959 750 1161 570 
Q 1363 391 1709 391 
Q 2188 391 2477 730 
Q 2766 1069 2766 1631 
L 2766 1759 
L 2194 1759 
z
M 3341 1997 
L 3341 0 
L 2766 0 
L 2766 531 
Q 2569 213 2275 61 
Q 1981 -91 1556 -91 
Q 1019 -91 701 211 
Q 384 513 384 1019 
Q 384 1609 779 1909 
Q 1175 2209 1959 2209 
L 2766 2209 
L 2766 2266 
Q 2766 2663 2505 2880 
Q 2244 3097 1772 3097 
Q 1472 3097 1187 3025 
Q 903 2953 641 2809 
L 641 3341 
Q 956 3463 1253 3523 
Q 1550 3584 1831 3584 
Q 2591 3584 2966 3190 
Q 3341 2797 3341 1997 
z
" transform="scale(0.015625)"/>
       <path id="DejaVuSans-74" d="M 1172 4494 
L 1172 3500 
L 2356 3500 
L 2356 3053 
L 1172 3053 
L 1172 1153 
Q 1172 725 1289 603 
Q 1406 481 1766 481 
L 2356 481 
L 2356 0 
L 1766 0 
Q 1100 0 847 248 
Q 594 497 594 1153 
L 594 3053 
L 172 3053 
L 172 3500 
L 594 3500 
L 594 4494 
L 1172 4494 
z
" transform="scale(0.015625)"/>
      </defs>
      <use xlink:href="#DejaVuSans-4e"/>
      <use xlink:href="#DejaVuSans-6f" x="74.804688"/>
      <use xlink:href="#DejaVuSans-69" x="135.986328"/>
      <use xlink:href="#DejaVuSans-73" x="163.769531"/>
      <use xlink:href="#DejaVuSans-79" x="215.869141"/>
      <use xlink:href="#DejaVuSans-20" x="275.048828"/>
      <use xlink:href="#DejaVuSans-44" x="306.835938"/>
      <use xlink:href="#DejaVuSans-61" x="383.837891"/>
      <use xlink:href="#DejaVuSans-74" x="445.117188"/>
      <use xlink:href="#DejaVuSans-61" x="484.326172"/>
     </g>
    </g>
    <g id="line2d_20">
     <path d="M 290.684375 210.625535 
L 300.684375 210.625535 
L 310.684375 210.625535 
" style="fill: none; stroke: #ff7f0e; stroke-width: 1.5; stroke-linecap: square"/>
    </g>
    <g id="text_19">
     <!-- Smooth Data -->
     <g transform="translate(318.684375 214.125535)scale(0.1 -0.1)">
      <defs>
       <path id="DejaVuSans-6d" d="M 3328 2828 
Q 3544 3216 3844 3400 
Q 4144 3584 4550 3584 
Q 5097 3584 5394 3201 
Q 5691 2819 5691 2113 
L 5691 0 
L 5113 0 
L 5113 2094 
Q 5113 2597 4934 2840 
Q 4756 3084 4391 3084 
Q 3944 3084 3684 2787 
Q 3425 2491 3425 1978 
L 3425 0 
L 2847 0 
L 2847 2094 
Q 2847 2600 2669 2842 
Q 2491 3084 2119 3084 
Q 1678 3084 1418 2786 
Q 1159 2488 1159 1978 
L 1159 0 
L 581 0 
L 581 3500 
L 1159 3500 
L 1159 2956 
Q 1356 3278 1631 3431 
Q 1906 3584 2284 3584 
Q 2666 3584 2933 3390 
Q 3200 3197 3328 2828 
z
" transform="scale(0.015625)"/>
       <path id="DejaVuSans-68" d="M 3513 2113 
L 3513 0 
L 2938 0 
L 2938 2094 
Q 2938 2591 2744 2837 
Q 2550 3084 2163 3084 
Q 1697 3084 1428 2787 
Q 1159 2491 1159 1978 
L 1159 0 
L 581 0 
L 581 4863 
L 1159 4863 
L 1159 2956 
Q 1366 3272 1645 3428 
Q 1925 3584 2291 3584 
Q 2894 3584 3203 3211 
Q 3513 2838 3513 2113 
z
" transform="scale(0.015625)"/>
      </defs>
      <use xlink:href="#DejaVuSans-53"/>
      <use xlink:href="#DejaVuSans-6d" x="63.476562"/>
      <use xlink:href="#DejaVuSans-6f" x="160.888672"/>
      <use xlink:href="#DejaVuSans-6f" x="222.070312"/>
      <use xlink:href="#DejaVuSans-74" x="283.251953"/>
      <use xlink:href="#DejaVuSans-68" x="322.460938"/>
      <use xlink:href="#DejaVuSans-20" x="385.839844"/>
      <use xlink:href="#DejaVuSans-44" x="417.626953"/>
      <use xlink:href="#DejaVuSans-61" x="494.628906"/>
      <use xlink:href="#DejaVuSans-74" x="555.908203"/>
      <use xlink:href="#DejaVuSans-61" x="595.117188"/>
     </g>
    </g>
   </g>
  </g>
 </g>
 <defs>
  <clipPath id="pc60bae17fd">
   <rect x="58.523438" y="7.765223" width="334.8" height="217.44"/>
  </clipPath>
 </defs>
</svg>
