<?xml version="1.0" encoding="utf-8" standalone="no"?>
<!DOCTYPE svg PUBLIC "-//W3C//DTD SVG 1.1//EN"
  "http://www.w3.org/Graphics/SVG/1.1/DTD/svg11.dtd">
<svg xmlns:xlink="http://www.w3.org/1999/xlink" width="400.523437pt" height="262.19625pt" viewBox="0 0 400.523437 262.19625" xmlns="http://www.w3.org/2000/svg" version="1.1">
 <metadata>
  <rdf:RDF xmlns:dc="http://purl.org/dc/elements/1.1/" xmlns:cc="http://creativecommons.org/ns#" xmlns:rdf="http://www.w3.org/1999/02/22-rdf-syntax-ns#">
   <cc:Work>
    <dc:type rdf:resource="http://purl.org/dc/dcmitype/StillImage"/>
    <dc:date>2022-08-12T09:19:11.876483</dc:date>
    <dc:format>image/svg+xml</dc:format>
    <dc:creator>
     <cc:Agent>
      <dc:title>Matplotlib v3.5.2, https://matplotlib.org/</dc:title>
     </cc:Agent>
    </dc:creator>
   </cc:Work>
  </rdf:RDF>
 </metadata>
 <defs>
  <style type="text/css">*{stroke-linejoin: round; stroke-linecap: butt}</style>
 </defs>
 <g id="figure_1">
  <g id="patch_1">
   <path d="M 0 262.19625 
L 400.523437 262.19625 
L 400.523437 0 
L 0 0 
L 0 262.19625 
z
" style="fill: none"/>
  </g>
  <g id="axes_1">
   <g id="patch_2">
    <path d="M 58.523438 224.64 
L 393.323438 224.64 
L 393.323438 7.2 
L 58.523438 7.2 
z
" style="fill: #ffffff"/>
   </g>
   <g id="matplotlib.axis_1">
    <g id="xtick_1">
     <g id="line2d_1">
      <defs>
       <path id="mb3ff554372" d="M 0 0 
L 0 3.5 
" style="stroke: #000000; stroke-width: 0.8"/>
      </defs>
      <g>
       <use xlink:href="#mb3ff554372" x="71.671118" y="224.64" style="stroke: #000000; stroke-width: 0.8"/>
      </g>
     </g>
     <g id="text_1">
      <!-- 0 -->
      <g transform="translate(68.489868 239.238437)scale(0.1 -0.1)">
       <defs>
        <path id="DejaVuSans-30" d="M 2034 4250 
Q 1547 4250 1301 3770 
Q 1056 3291 1056 2328 
Q 1056 1369 1301 889 
Q 1547 409 2034 409 
Q 2525 409 2770 889 
Q 3016 1369 3016 2328 
Q 3016 3291 2770 3770 
Q 2525 4250 2034 4250 
z
M 2034 4750 
Q 2819 4750 3233 4129 
Q 3647 3509 3647 2328 
Q 3647 1150 3233 529 
Q 2819 -91 2034 -91 
Q 1250 -91 836 529 
Q 422 1150 422 2328 
Q 422 3509 836 4129 
Q 1250 4750 2034 4750 
z
" transform="scale(0.015625)"/>
       </defs>
       <use xlink:href="#DejaVuSans-30"/>
      </g>
     </g>
    </g>
    <g id="xtick_2">
     <g id="line2d_2">
      <g>
       <use xlink:href="#mb3ff554372" x="113.081137" y="224.64" style="stroke: #000000; stroke-width: 0.8"/>
      </g>
     </g>
     <g id="text_2">
      <!-- 5 -->
      <g transform="translate(109.899887 239.238437)scale(0.1 -0.1)">
       <defs>
        <path id="DejaVuSans-35" d="M 691 4666 
L 3169 4666 
L 3169 4134 
L 1269 4134 
L 1269 2991 
Q 1406 3038 1543 3061 
Q 1681 3084 1819 3084 
Q 2600 3084 3056 2656 
Q 3513 2228 3513 1497 
Q 3513 744 3044 326 
Q 2575 -91 1722 -91 
Q 1428 -91 1123 -41 
Q 819 9 494 109 
L 494 744 
Q 775 591 1075 516 
Q 1375 441 1709 441 
Q 2250 441 2565 725 
Q 2881 1009 2881 1497 
Q 2881 1984 2565 2268 
Q 2250 2553 1709 2553 
Q 1456 2553 1204 2497 
Q 953 2441 691 2322 
L 691 4666 
z
" transform="scale(0.015625)"/>
       </defs>
       <use xlink:href="#DejaVuSans-35"/>
      </g>
     </g>
    </g>
    <g id="xtick_3">
     <g id="line2d_3">
      <g>
       <use xlink:href="#mb3ff554372" x="154.491155" y="224.64" style="stroke: #000000; stroke-width: 0.8"/>
      </g>
     </g>
     <g id="text_3">
      <!-- 10 -->
      <g transform="translate(148.128655 239.238437)scale(0.1 -0.1)">
       <defs>
        <path id="DejaVuSans-31" d="M 794 531 
L 1825 531 
L 1825 4091 
L 703 3866 
L 703 4441 
L 1819 4666 
L 2450 4666 
L 2450 531 
L 3481 531 
L 3481 0 
L 794 0 
L 794 531 
z
" transform="scale(0.015625)"/>
       </defs>
       <use xlink:href="#DejaVuSans-31"/>
       <use xlink:href="#DejaVuSans-30" x="63.623047"/>
      </g>
     </g>
    </g>
    <g id="xtick_4">
     <g id="line2d_4">
      <g>
       <use xlink:href="#mb3ff554372" x="195.901174" y="224.64" style="stroke: #000000; stroke-width: 0.8"/>
      </g>
     </g>
     <g id="text_4">
      <!-- 15 -->
      <g transform="translate(189.538674 239.238437)scale(0.1 -0.1)">
       <use xlink:href="#DejaVuSans-31"/>
       <use xlink:href="#DejaVuSans-35" x="63.623047"/>
      </g>
     </g>
    </g>
    <g id="xtick_5">
     <g id="line2d_5">
      <g>
       <use xlink:href="#mb3ff554372" x="237.311193" y="224.64" style="stroke: #000000; stroke-width: 0.8"/>
      </g>
     </g>
     <g id="text_5">
      <!-- 20 -->
      <g transform="translate(230.948693 239.238437)scale(0.1 -0.1)">
       <defs>
        <path id="DejaVuSans-32" d="M 1228 531 
L 3431 531 
L 3431 0 
L 469 0 
L 469 531 
Q 828 903 1448 1529 
Q 2069 2156 2228 2338 
Q 2531 2678 2651 2914 
Q 2772 3150 2772 3378 
Q 2772 3750 2511 3984 
Q 2250 4219 1831 4219 
Q 1534 4219 1204 4116 
Q 875 4013 500 3803 
L 500 4441 
Q 881 4594 1212 4672 
Q 1544 4750 1819 4750 
Q 2544 4750 2975 4387 
Q 3406 4025 3406 3419 
Q 3406 3131 3298 2873 
Q 3191 2616 2906 2266 
Q 2828 2175 2409 1742 
Q 1991 1309 1228 531 
z
" transform="scale(0.015625)"/>
       </defs>
       <use xlink:href="#DejaVuSans-32"/>
       <use xlink:href="#DejaVuSans-30" x="63.623047"/>
      </g>
     </g>
    </g>
    <g id="xtick_6">
     <g id="line2d_6">
      <g>
       <use xlink:href="#mb3ff554372" x="278.721211" y="224.64" style="stroke: #000000; stroke-width: 0.8"/>
      </g>
     </g>
     <g id="text_6">
      <!-- 25 -->
      <g transform="translate(272.358711 239.238437)scale(0.1 -0.1)">
       <use xlink:href="#DejaVuSans-32"/>
       <use xlink:href="#DejaVuSans-35" x="63.623047"/>
      </g>
     </g>
    </g>
    <g id="xtick_7">
     <g id="line2d_7">
      <g>
       <use xlink:href="#mb3ff554372" x="320.13123" y="224.64" style="stroke: #000000; stroke-width: 0.8"/>
      </g>
     </g>
     <g id="text_7">
      <!-- 30 -->
      <g transform="translate(313.76873 239.238437)scale(0.1 -0.1)">
       <defs>
        <path id="DejaVuSans-33" d="M 2597 2516 
Q 3050 2419 3304 2112 
Q 3559 1806 3559 1356 
Q 3559 666 3084 287 
Q 2609 -91 1734 -91 
Q 1441 -91 1130 -33 
Q 819 25 488 141 
L 488 750 
Q 750 597 1062 519 
Q 1375 441 1716 441 
Q 2309 441 2620 675 
Q 2931 909 2931 1356 
Q 2931 1769 2642 2001 
Q 2353 2234 1838 2234 
L 1294 2234 
L 1294 2753 
L 1863 2753 
Q 2328 2753 2575 2939 
Q 2822 3125 2822 3475 
Q 2822 3834 2567 4026 
Q 2313 4219 1838 4219 
Q 1578 4219 1281 4162 
Q 984 4106 628 3988 
L 628 4550 
Q 988 4650 1302 4700 
Q 1616 4750 1894 4750 
Q 2613 4750 3031 4423 
Q 3450 4097 3450 3541 
Q 3450 3153 3228 2886 
Q 3006 2619 2597 2516 
z
" transform="scale(0.015625)"/>
       </defs>
       <use xlink:href="#DejaVuSans-33"/>
       <use xlink:href="#DejaVuSans-30" x="63.623047"/>
      </g>
     </g>
    </g>
    <g id="xtick_8">
     <g id="line2d_8">
      <g>
       <use xlink:href="#mb3ff554372" x="361.541248" y="224.64" style="stroke: #000000; stroke-width: 0.8"/>
      </g>
     </g>
     <g id="text_8">
      <!-- 35 -->
      <g transform="translate(355.178748 239.238437)scale(0.1 -0.1)">
       <use xlink:href="#DejaVuSans-33"/>
       <use xlink:href="#DejaVuSans-35" x="63.623047"/>
      </g>
     </g>
    </g>
    <g id="text_9">
     <!-- X Values -->
     <g transform="translate(204.573438 252.916562)scale(0.1 -0.1)">
      <defs>
       <path id="DejaVuSans-58" d="M 403 4666 
L 1081 4666 
L 2241 2931 
L 3406 4666 
L 4084 4666 
L 2584 2425 
L 4184 0 
L 3506 0 
L 2194 1984 
L 872 0 
L 191 0 
L 1856 2491 
L 403 4666 
z
" transform="scale(0.015625)"/>
       <path id="DejaVuSans-20" transform="scale(0.015625)"/>
       <path id="DejaVuSans-56" d="M 1831 0 
L 50 4666 
L 709 4666 
L 2188 738 
L 3669 4666 
L 4325 4666 
L 2547 0 
L 1831 0 
z
" transform="scale(0.015625)"/>
       <path id="DejaVuSans-61" d="M 2194 1759 
Q 1497 1759 1228 1600 
Q 959 1441 959 1056 
Q 959 750 1161 570 
Q 1363 391 1709 391 
Q 2188 391 2477 730 
Q 2766 1069 2766 1631 
L 2766 1759 
L 2194 1759 
z
M 3341 1997 
L 3341 0 
L 2766 0 
L 2766 531 
Q 2569 213 2275 61 
Q 1981 -91 1556 -91 
Q 1019 -91 701 211 
Q 384 513 384 1019 
Q 384 1609 779 1909 
Q 1175 2209 1959 2209 
L 2766 2209 
L 2766 2266 
Q 2766 2663 2505 2880 
Q 2244 3097 1772 3097 
Q 1472 3097 1187 3025 
Q 903 2953 641 2809 
L 641 3341 
Q 956 3463 1253 3523 
Q 1550 3584 1831 3584 
Q 2591 3584 2966 3190 
Q 3341 2797 3341 1997 
z
" transform="scale(0.015625)"/>
       <path id="DejaVuSans-6c" d="M 603 4863 
L 1178 4863 
L 1178 0 
L 603 0 
L 603 4863 
z
" transform="scale(0.015625)"/>
       <path id="DejaVuSans-75" d="M 544 1381 
L 544 3500 
L 1119 3500 
L 1119 1403 
Q 1119 906 1312 657 
Q 1506 409 1894 409 
Q 2359 409 2629 706 
Q 2900 1003 2900 1516 
L 2900 3500 
L 3475 3500 
L 3475 0 
L 2900 0 
L 2900 538 
Q 2691 219 2414 64 
Q 2138 -91 1772 -91 
Q 1169 -91 856 284 
Q 544 659 544 1381 
z
M 1991 3584 
L 1991 3584 
z
" transform="scale(0.015625)"/>
       <path id="DejaVuSans-65" d="M 3597 1894 
L 3597 1613 
L 953 1613 
Q 991 1019 1311 708 
Q 1631 397 2203 397 
Q 2534 397 2845 478 
Q 3156 559 3463 722 
L 3463 178 
Q 3153 47 2828 -22 
Q 2503 -91 2169 -91 
Q 1331 -91 842 396 
Q 353 884 353 1716 
Q 353 2575 817 3079 
Q 1281 3584 2069 3584 
Q 2775 3584 3186 3129 
Q 3597 2675 3597 1894 
z
M 3022 2063 
Q 3016 2534 2758 2815 
Q 2500 3097 2075 3097 
Q 1594 3097 1305 2825 
Q 1016 2553 972 2059 
L 3022 2063 
z
" transform="scale(0.015625)"/>
       <path id="DejaVuSans-73" d="M 2834 3397 
L 2834 2853 
Q 2591 2978 2328 3040 
Q 2066 3103 1784 3103 
Q 1356 3103 1142 2972 
Q 928 2841 928 2578 
Q 928 2378 1081 2264 
Q 1234 2150 1697 2047 
L 1894 2003 
Q 2506 1872 2764 1633 
Q 3022 1394 3022 966 
Q 3022 478 2636 193 
Q 2250 -91 1575 -91 
Q 1294 -91 989 -36 
Q 684 19 347 128 
L 347 722 
Q 666 556 975 473 
Q 1284 391 1588 391 
Q 1994 391 2212 530 
Q 2431 669 2431 922 
Q 2431 1156 2273 1281 
Q 2116 1406 1581 1522 
L 1381 1569 
Q 847 1681 609 1914 
Q 372 2147 372 2553 
Q 372 3047 722 3315 
Q 1072 3584 1716 3584 
Q 2034 3584 2315 3537 
Q 2597 3491 2834 3397 
z
" transform="scale(0.015625)"/>
      </defs>
      <use xlink:href="#DejaVuSans-58"/>
      <use xlink:href="#DejaVuSans-20" x="68.505859"/>
      <use xlink:href="#DejaVuSans-56" x="100.292969"/>
      <use xlink:href="#DejaVuSans-61" x="160.951172"/>
      <use xlink:href="#DejaVuSans-6c" x="222.230469"/>
      <use xlink:href="#DejaVuSans-75" x="250.013672"/>
      <use xlink:href="#DejaVuSans-65" x="313.392578"/>
      <use xlink:href="#DejaVuSans-73" x="374.916016"/>
     </g>
    </g>
   </g>
   <g id="matplotlib.axis_2">
    <g id="ytick_1">
     <g id="line2d_9">
      <defs>
       <path id="m2c18bb1d62" d="M 0 0 
L -3.5 0 
" style="stroke: #000000; stroke-width: 0.8"/>
      </defs>
      <g>
       <use xlink:href="#m2c18bb1d62" x="58.523438" y="214.722433" style="stroke: #000000; stroke-width: 0.8"/>
      </g>
     </g>
     <g id="text_10">
      <!-- −0.05 -->
      <g transform="translate(20.878125 218.521651)scale(0.1 -0.1)">
       <defs>
        <path id="DejaVuSans-2212" d="M 678 2272 
L 4684 2272 
L 4684 1741 
L 678 1741 
L 678 2272 
z
" transform="scale(0.015625)"/>
        <path id="DejaVuSans-2e" d="M 684 794 
L 1344 794 
L 1344 0 
L 684 0 
L 684 794 
z
" transform="scale(0.015625)"/>
       </defs>
       <use xlink:href="#DejaVuSans-2212"/>
       <use xlink:href="#DejaVuSans-30" x="83.789062"/>
       <use xlink:href="#DejaVuSans-2e" x="147.412109"/>
       <use xlink:href="#DejaVuSans-30" x="179.199219"/>
       <use xlink:href="#DejaVuSans-35" x="242.822266"/>
      </g>
     </g>
    </g>
    <g id="ytick_2">
     <g id="line2d_10">
      <g>
       <use xlink:href="#m2c18bb1d62" x="58.523438" y="186.223182" style="stroke: #000000; stroke-width: 0.8"/>
      </g>
     </g>
     <g id="text_11">
      <!-- 0.00 -->
      <g transform="translate(29.257813 190.022401)scale(0.1 -0.1)">
       <use xlink:href="#DejaVuSans-30"/>
       <use xlink:href="#DejaVuSans-2e" x="63.623047"/>
       <use xlink:href="#DejaVuSans-30" x="95.410156"/>
       <use xlink:href="#DejaVuSans-30" x="159.033203"/>
      </g>
     </g>
    </g>
    <g id="ytick_3">
     <g id="line2d_11">
      <g>
       <use xlink:href="#m2c18bb1d62" x="58.523438" y="157.723932" style="stroke: #000000; stroke-width: 0.8"/>
      </g>
     </g>
     <g id="text_12">
      <!-- 0.05 -->
      <g transform="translate(29.257813 161.523151)scale(0.1 -0.1)">
       <use xlink:href="#DejaVuSans-30"/>
       <use xlink:href="#DejaVuSans-2e" x="63.623047"/>
       <use xlink:href="#DejaVuSans-30" x="95.410156"/>
       <use xlink:href="#DejaVuSans-35" x="159.033203"/>
      </g>
     </g>
    </g>
    <g id="ytick_4">
     <g id="line2d_12">
      <g>
       <use xlink:href="#m2c18bb1d62" x="58.523438" y="129.224682" style="stroke: #000000; stroke-width: 0.8"/>
      </g>
     </g>
     <g id="text_13">
      <!-- 0.10 -->
      <g transform="translate(29.257813 133.023901)scale(0.1 -0.1)">
       <use xlink:href="#DejaVuSans-30"/>
       <use xlink:href="#DejaVuSans-2e" x="63.623047"/>
       <use xlink:href="#DejaVuSans-31" x="95.410156"/>
       <use xlink:href="#DejaVuSans-30" x="159.033203"/>
      </g>
     </g>
    </g>
    <g id="ytick_5">
     <g id="line2d_13">
      <g>
       <use xlink:href="#m2c18bb1d62" x="58.523438" y="100.725432" style="stroke: #000000; stroke-width: 0.8"/>
      </g>
     </g>
     <g id="text_14">
      <!-- 0.15 -->
      <g transform="translate(29.257813 104.52465)scale(0.1 -0.1)">
       <use xlink:href="#DejaVuSans-30"/>
       <use xlink:href="#DejaVuSans-2e" x="63.623047"/>
       <use xlink:href="#DejaVuSans-31" x="95.410156"/>
       <use xlink:href="#DejaVuSans-35" x="159.033203"/>
      </g>
     </g>
    </g>
    <g id="ytick_6">
     <g id="line2d_14">
      <g>
       <use xlink:href="#m2c18bb1d62" x="58.523438" y="72.226181" style="stroke: #000000; stroke-width: 0.8"/>
      </g>
     </g>
     <g id="text_15">
      <!-- 0.20 -->
      <g transform="translate(29.257813 76.0254)scale(0.1 -0.1)">
       <use xlink:href="#DejaVuSans-30"/>
       <use xlink:href="#DejaVuSans-2e" x="63.623047"/>
       <use xlink:href="#DejaVuSans-32" x="95.410156"/>
       <use xlink:href="#DejaVuSans-30" x="159.033203"/>
      </g>
     </g>
    </g>
    <g id="ytick_7">
     <g id="line2d_15">
      <g>
       <use xlink:href="#m2c18bb1d62" x="58.523438" y="43.726931" style="stroke: #000000; stroke-width: 0.8"/>
      </g>
     </g>
     <g id="text_16">
      <!-- 0.25 -->
      <g transform="translate(29.257813 47.52615)scale(0.1 -0.1)">
       <use xlink:href="#DejaVuSans-30"/>
       <use xlink:href="#DejaVuSans-2e" x="63.623047"/>
       <use xlink:href="#DejaVuSans-32" x="95.410156"/>
       <use xlink:href="#DejaVuSans-35" x="159.033203"/>
      </g>
     </g>
    </g>
    <g id="ytick_8">
     <g id="line2d_16">
      <g>
       <use xlink:href="#m2c18bb1d62" x="58.523438" y="15.227681" style="stroke: #000000; stroke-width: 0.8"/>
      </g>
     </g>
     <g id="text_17">
      <!-- 0.30 -->
      <g transform="translate(29.257813 19.0269)scale(0.1 -0.1)">
       <use xlink:href="#DejaVuSans-30"/>
       <use xlink:href="#DejaVuSans-2e" x="63.623047"/>
       <use xlink:href="#DejaVuSans-33" x="95.410156"/>
       <use xlink:href="#DejaVuSans-30" x="159.033203"/>
      </g>
     </g>
    </g>
    <g id="text_18">
     <!-- Y Values -->
     <g transform="translate(14.798438 136.898906)rotate(-90)scale(0.1 -0.1)">
      <defs>
       <path id="DejaVuSans-59" d="M -13 4666 
L 666 4666 
L 1959 2747 
L 3244 4666 
L 3922 4666 
L 2272 2222 
L 2272 0 
L 1638 0 
L 1638 2222 
L -13 4666 
z
" transform="scale(0.015625)"/>
      </defs>
      <use xlink:href="#DejaVuSans-59"/>
      <use xlink:href="#DejaVuSans-20" x="61.083984"/>
      <use xlink:href="#DejaVuSans-56" x="92.871094"/>
      <use xlink:href="#DejaVuSans-61" x="153.529297"/>
      <use xlink:href="#DejaVuSans-6c" x="214.808594"/>
      <use xlink:href="#DejaVuSans-75" x="242.591797"/>
      <use xlink:href="#DejaVuSans-65" x="305.970703"/>
      <use xlink:href="#DejaVuSans-73" x="367.494141"/>
     </g>
    </g>
   </g>
   <g id="line2d_17">
    <path d="M 73.741619 17.083636 
L 79.953122 122.179597 
L 86.164625 178.85496 
L 92.376128 205.645381 
L 98.58763 214.756364 
L 104.799133 214.067195 
L 111.010636 208.533648 
L 117.222139 201.162786 
L 123.433642 193.684742 
L 129.645144 187.011124 
L 135.856647 181.544105 
L 142.06815 177.381835 
L 148.279653 174.452445 
L 154.491155 172.59941 
L 160.702658 171.634151 
L 166.914161 171.36694 
L 173.125664 171.623692 
L 179.337167 172.253828 
L 185.548669 173.132674 
L 191.760172 174.160702 
L 197.971675 175.261103 
L 204.183178 176.376628 
L 210.394681 177.46627 
L 216.606183 178.502103 
L 222.817686 179.466459 
L 229.029189 180.3495 
L 235.240692 181.147196 
L 241.452194 181.859692 
L 247.663697 182.490006 
L 253.8752 183.043026 
L 260.086703 183.524749 
L 266.298206 183.941715 
L 272.509708 184.300606 
L 278.721211 184.607959 
L 284.932714 184.869987 
L 291.144217 185.09246 
L 297.35572 185.280647 
L 303.567222 185.439288 
L 309.778725 185.572605 
L 315.990228 185.684318 
L 322.201731 185.777677 
L 328.413233 185.855506 
L 334.624736 185.920239 
L 340.836239 185.973963 
L 347.047742 186.018462 
L 353.259245 186.055249 
L 359.470747 186.085609 
L 365.68225 186.110621 
L 371.893753 186.131196 
L 378.105256 186.148096 
" clip-path="url(#p9cb9788096)" style="fill: none; stroke: #008000; stroke-width: 1.5; stroke-linecap: square"/>
    <defs>
     <path id="m67e950c9a8" d="M 0 3 
C 0.795609 3 1.55874 2.683901 2.12132 2.12132 
C 2.683901 1.55874 3 0.795609 3 0 
C 3 -0.795609 2.683901 -1.55874 2.12132 -2.12132 
C 1.55874 -2.683901 0.795609 -3 0 -3 
C -0.795609 -3 -1.55874 -2.683901 -2.12132 -2.12132 
C -2.683901 -1.55874 -3 -0.795609 -3 0 
C -3 0.795609 -2.683901 1.55874 -2.12132 2.12132 
C -1.55874 2.683901 -0.795609 3 0 3 
z
" style="stroke: #008000"/>
    </defs>
    <g clip-path="url(#p9cb9788096)">
     <use xlink:href="#m67e950c9a8" x="73.741619" y="17.083636" style="fill: #008000; stroke: #008000"/>
     <use xlink:href="#m67e950c9a8" x="79.953122" y="122.179597" style="fill: #008000; stroke: #008000"/>
     <use xlink:href="#m67e950c9a8" x="86.164625" y="178.85496" style="fill: #008000; stroke: #008000"/>
     <use xlink:href="#m67e950c9a8" x="92.376128" y="205.645381" style="fill: #008000; stroke: #008000"/>
     <use xlink:href="#m67e950c9a8" x="98.58763" y="214.756364" style="fill: #008000; stroke: #008000"/>
     <use xlink:href="#m67e950c9a8" x="104.799133" y="214.067195" style="fill: #008000; stroke: #008000"/>
     <use xlink:href="#m67e950c9a8" x="111.010636" y="208.533648" style="fill: #008000; stroke: #008000"/>
     <use xlink:href="#m67e950c9a8" x="117.222139" y="201.162786" style="fill: #008000; stroke: #008000"/>
     <use xlink:href="#m67e950c9a8" x="123.433642" y="193.684742" style="fill: #008000; stroke: #008000"/>
     <use xlink:href="#m67e950c9a8" x="129.645144" y="187.011124" style="fill: #008000; stroke: #008000"/>
     <use xlink:href="#m67e950c9a8" x="135.856647" y="181.544105" style="fill: #008000; stroke: #008000"/>
     <use xlink:href="#m67e950c9a8" x="142.06815" y="177.381835" style="fill: #008000; stroke: #008000"/>
     <use xlink:href="#m67e950c9a8" x="148.279653" y="174.452445" style="fill: #008000; stroke: #008000"/>
     <use xlink:href="#m67e950c9a8" x="154.491155" y="172.59941" style="fill: #008000; stroke: #008000"/>
     <use xlink:href="#m67e950c9a8" x="160.702658" y="171.634151" style="fill: #008000; stroke: #008000"/>
     <use xlink:href="#m67e950c9a8" x="166.914161" y="171.36694" style="fill: #008000; stroke: #008000"/>
     <use xlink:href="#m67e950c9a8" x="173.125664" y="171.623692" style="fill: #008000; stroke: #008000"/>
     <use xlink:href="#m67e950c9a8" x="179.337167" y="172.253828" style="fill: #008000; stroke: #008000"/>
     <use xlink:href="#m67e950c9a8" x="185.548669" y="173.132674" style="fill: #008000; stroke: #008000"/>
     <use xlink:href="#m67e950c9a8" x="191.760172" y="174.160702" style="fill: #008000; stroke: #008000"/>
     <use xlink:href="#m67e950c9a8" x="197.971675" y="175.261103" style="fill: #008000; stroke: #008000"/>
     <use xlink:href="#m67e950c9a8" x="204.183178" y="176.376628" style="fill: #008000; stroke: #008000"/>
     <use xlink:href="#m67e950c9a8" x="210.394681" y="177.46627" style="fill: #008000; stroke: #008000"/>
     <use xlink:href="#m67e950c9a8" x="216.606183" y="178.502103" style="fill: #008000; stroke: #008000"/>
     <use xlink:href="#m67e950c9a8" x="222.817686" y="179.466459" style="fill: #008000; stroke: #008000"/>
     <use xlink:href="#m67e950c9a8" x="229.029189" y="180.3495" style="fill: #008000; stroke: #008000"/>
     <use xlink:href="#m67e950c9a8" x="235.240692" y="181.147196" style="fill: #008000; stroke: #008000"/>
     <use xlink:href="#m67e950c9a8" x="241.452194" y="181.859692" style="fill: #008000; stroke: #008000"/>
     <use xlink:href="#m67e950c9a8" x="247.663697" y="182.490006" style="fill: #008000; stroke: #008000"/>
     <use xlink:href="#m67e950c9a8" x="253.8752" y="183.043026" style="fill: #008000; stroke: #008000"/>
     <use xlink:href="#m67e950c9a8" x="260.086703" y="183.524749" style="fill: #008000; stroke: #008000"/>
     <use xlink:href="#m67e950c9a8" x="266.298206" y="183.941715" style="fill: #008000; stroke: #008000"/>
     <use xlink:href="#m67e950c9a8" x="272.509708" y="184.300606" style="fill: #008000; stroke: #008000"/>
     <use xlink:href="#m67e950c9a8" x="278.721211" y="184.607959" style="fill: #008000; stroke: #008000"/>
     <use xlink:href="#m67e950c9a8" x="284.932714" y="184.869987" style="fill: #008000; stroke: #008000"/>
     <use xlink:href="#m67e950c9a8" x="291.144217" y="185.09246" style="fill: #008000; stroke: #008000"/>
     <use xlink:href="#m67e950c9a8" x="297.35572" y="185.280647" style="fill: #008000; stroke: #008000"/>
     <use xlink:href="#m67e950c9a8" x="303.567222" y="185.439288" style="fill: #008000; stroke: #008000"/>
     <use xlink:href="#m67e950c9a8" x="309.778725" y="185.572605" style="fill: #008000; stroke: #008000"/>
     <use xlink:href="#m67e950c9a8" x="315.990228" y="185.684318" style="fill: #008000; stroke: #008000"/>
     <use xlink:href="#m67e950c9a8" x="322.201731" y="185.777677" style="fill: #008000; stroke: #008000"/>
     <use xlink:href="#m67e950c9a8" x="328.413233" y="185.855506" style="fill: #008000; stroke: #008000"/>
     <use xlink:href="#m67e950c9a8" x="334.624736" y="185.920239" style="fill: #008000; stroke: #008000"/>
     <use xlink:href="#m67e950c9a8" x="340.836239" y="185.973963" style="fill: #008000; stroke: #008000"/>
     <use xlink:href="#m67e950c9a8" x="347.047742" y="186.018462" style="fill: #008000; stroke: #008000"/>
     <use xlink:href="#m67e950c9a8" x="353.259245" y="186.055249" style="fill: #008000; stroke: #008000"/>
     <use xlink:href="#m67e950c9a8" x="359.470747" y="186.085609" style="fill: #008000; stroke: #008000"/>
     <use xlink:href="#m67e950c9a8" x="365.68225" y="186.110621" style="fill: #008000; stroke: #008000"/>
     <use xlink:href="#m67e950c9a8" x="371.893753" y="186.131196" style="fill: #008000; stroke: #008000"/>
     <use xlink:href="#m67e950c9a8" x="378.105256" y="186.148096" style="fill: #008000; stroke: #008000"/>
    </g>
   </g>
   <g id="patch_3">
    <path d="M 58.523438 224.64 
L 58.523438 7.2 
" style="fill: none; stroke: #000000; stroke-width: 0.8; stroke-linejoin: miter; stroke-linecap: square"/>
   </g>
   <g id="patch_4">
    <path d="M 393.323438 224.64 
L 393.323438 7.2 
" style="fill: none; stroke: #000000; stroke-width: 0.8; stroke-linejoin: miter; stroke-linecap: square"/>
   </g>
   <g id="patch_5">
    <path d="M 58.523438 224.64 
L 393.323438 224.64 
" style="fill: none; stroke: #000000; stroke-width: 0.8; stroke-linejoin: miter; stroke-linecap: square"/>
   </g>
   <g id="patch_6">
    <path d="M 58.523438 7.2 
L 393.323438 7.2 
" style="fill: none; stroke: #000000; stroke-width: 0.8; stroke-linejoin: miter; stroke-linecap: square"/>
   </g>
  </g>
 </g>
 <defs>
  <clipPath id="p9cb9788096">
   <rect x="58.523438" y="7.2" width="334.8" height="217.44"/>
  </clipPath>
 </defs>
</svg>
