<?xml version="1.0" encoding="utf-8" standalone="no"?>
<!DOCTYPE svg PUBLIC "-//W3C//DTD SVG 1.1//EN"
  "http://www.w3.org/Graphics/SVG/1.1/DTD/svg11.dtd">
<svg xmlns:xlink="http://www.w3.org/1999/xlink" width="384.83125pt" height="262.19625pt" viewBox="0 0 384.83125 262.19625" xmlns="http://www.w3.org/2000/svg" version="1.1">
 <metadata>
  <rdf:RDF xmlns:dc="http://purl.org/dc/elements/1.1/" xmlns:cc="http://creativecommons.org/ns#" xmlns:rdf="http://www.w3.org/1999/02/22-rdf-syntax-ns#">
   <cc:Work>
    <dc:type rdf:resource="http://purl.org/dc/dcmitype/StillImage"/>
    <dc:date>2022-09-03T11:38:44.550440</dc:date>
    <dc:format>image/svg+xml</dc:format>
    <dc:creator>
     <cc:Agent>
      <dc:title>Matplotlib v3.5.2, https://matplotlib.org/</dc:title>
     </cc:Agent>
    </dc:creator>
   </cc:Work>
  </rdf:RDF>
 </metadata>
 <defs>
  <style type="text/css">*{stroke-linejoin: round; stroke-linecap: butt}</style>
 </defs>
 <g id="figure_1">
  <g id="patch_1">
   <path d="M 0 262.19625 
L 384.83125 262.19625 
L 384.83125 0 
L 0 0 
L 0 262.19625 
z
" style="fill: none"/>
  </g>
  <g id="axes_1">
   <g id="patch_2">
    <path d="M 33.2875 224.64 
L 368.0875 224.64 
L 368.0875 7.2 
L 33.2875 7.2 
z
" style="fill: #ffffff"/>
   </g>
   <g id="matplotlib.axis_1">
    <g id="xtick_1">
     <g id="line2d_1">
      <defs>
       <path id="m3578a3af03" d="M 0 0 
L 0 3.5 
" style="stroke: #000000; stroke-width: 0.8"/>
      </defs>
      <g>
       <use xlink:href="#m3578a3af03" x="33.2875" y="224.64" style="stroke: #000000; stroke-width: 0.8"/>
      </g>
     </g>
     <g id="text_1">
      <!-- 0 -->
      <g transform="translate(30.10625 239.238437)scale(0.1 -0.1)">
       <defs>
        <path id="DejaVuSans-30" d="M 2034 4250 
Q 1547 4250 1301 3770 
Q 1056 3291 1056 2328 
Q 1056 1369 1301 889 
Q 1547 409 2034 409 
Q 2525 409 2770 889 
Q 3016 1369 3016 2328 
Q 3016 3291 2770 3770 
Q 2525 4250 2034 4250 
z
M 2034 4750 
Q 2819 4750 3233 4129 
Q 3647 3509 3647 2328 
Q 3647 1150 3233 529 
Q 2819 -91 2034 -91 
Q 1250 -91 836 529 
Q 422 1150 422 2328 
Q 422 3509 836 4129 
Q 1250 4750 2034 4750 
z
" transform="scale(0.015625)"/>
       </defs>
       <use xlink:href="#DejaVuSans-30"/>
      </g>
     </g>
    </g>
    <g id="xtick_2">
     <g id="line2d_2">
      <g>
       <use xlink:href="#m3578a3af03" x="100.2475" y="224.64" style="stroke: #000000; stroke-width: 0.8"/>
      </g>
     </g>
     <g id="text_2">
      <!-- 50 -->
      <g transform="translate(93.885 239.238437)scale(0.1 -0.1)">
       <defs>
        <path id="DejaVuSans-35" d="M 691 4666 
L 3169 4666 
L 3169 4134 
L 1269 4134 
L 1269 2991 
Q 1406 3038 1543 3061 
Q 1681 3084 1819 3084 
Q 2600 3084 3056 2656 
Q 3513 2228 3513 1497 
Q 3513 744 3044 326 
Q 2575 -91 1722 -91 
Q 1428 -91 1123 -41 
Q 819 9 494 109 
L 494 744 
Q 775 591 1075 516 
Q 1375 441 1709 441 
Q 2250 441 2565 725 
Q 2881 1009 2881 1497 
Q 2881 1984 2565 2268 
Q 2250 2553 1709 2553 
Q 1456 2553 1204 2497 
Q 953 2441 691 2322 
L 691 4666 
z
" transform="scale(0.015625)"/>
       </defs>
       <use xlink:href="#DejaVuSans-35"/>
       <use xlink:href="#DejaVuSans-30" x="63.623047"/>
      </g>
     </g>
    </g>
    <g id="xtick_3">
     <g id="line2d_3">
      <g>
       <use xlink:href="#m3578a3af03" x="167.2075" y="224.64" style="stroke: #000000; stroke-width: 0.8"/>
      </g>
     </g>
     <g id="text_3">
      <!-- 100 -->
      <g transform="translate(157.66375 239.238437)scale(0.1 -0.1)">
       <defs>
        <path id="DejaVuSans-31" d="M 794 531 
L 1825 531 
L 1825 4091 
L 703 3866 
L 703 4441 
L 1819 4666 
L 2450 4666 
L 2450 531 
L 3481 531 
L 3481 0 
L 794 0 
L 794 531 
z
" transform="scale(0.015625)"/>
       </defs>
       <use xlink:href="#DejaVuSans-31"/>
       <use xlink:href="#DejaVuSans-30" x="63.623047"/>
       <use xlink:href="#DejaVuSans-30" x="127.246094"/>
      </g>
     </g>
    </g>
    <g id="xtick_4">
     <g id="line2d_4">
      <g>
       <use xlink:href="#m3578a3af03" x="234.1675" y="224.64" style="stroke: #000000; stroke-width: 0.8"/>
      </g>
     </g>
     <g id="text_4">
      <!-- 150 -->
      <g transform="translate(224.62375 239.238437)scale(0.1 -0.1)">
       <use xlink:href="#DejaVuSans-31"/>
       <use xlink:href="#DejaVuSans-35" x="63.623047"/>
       <use xlink:href="#DejaVuSans-30" x="127.246094"/>
      </g>
     </g>
    </g>
    <g id="xtick_5">
     <g id="line2d_5">
      <g>
       <use xlink:href="#m3578a3af03" x="301.1275" y="224.64" style="stroke: #000000; stroke-width: 0.8"/>
      </g>
     </g>
     <g id="text_5">
      <!-- 200 -->
      <g transform="translate(291.58375 239.238437)scale(0.1 -0.1)">
       <defs>
        <path id="DejaVuSans-32" d="M 1228 531 
L 3431 531 
L 3431 0 
L 469 0 
L 469 531 
Q 828 903 1448 1529 
Q 2069 2156 2228 2338 
Q 2531 2678 2651 2914 
Q 2772 3150 2772 3378 
Q 2772 3750 2511 3984 
Q 2250 4219 1831 4219 
Q 1534 4219 1204 4116 
Q 875 4013 500 3803 
L 500 4441 
Q 881 4594 1212 4672 
Q 1544 4750 1819 4750 
Q 2544 4750 2975 4387 
Q 3406 4025 3406 3419 
Q 3406 3131 3298 2873 
Q 3191 2616 2906 2266 
Q 2828 2175 2409 1742 
Q 1991 1309 1228 531 
z
" transform="scale(0.015625)"/>
       </defs>
       <use xlink:href="#DejaVuSans-32"/>
       <use xlink:href="#DejaVuSans-30" x="63.623047"/>
       <use xlink:href="#DejaVuSans-30" x="127.246094"/>
      </g>
     </g>
    </g>
    <g id="xtick_6">
     <g id="line2d_6">
      <g>
       <use xlink:href="#m3578a3af03" x="368.0875" y="224.64" style="stroke: #000000; stroke-width: 0.8"/>
      </g>
     </g>
     <g id="text_6">
      <!-- 250 -->
      <g transform="translate(358.54375 239.238437)scale(0.1 -0.1)">
       <use xlink:href="#DejaVuSans-32"/>
       <use xlink:href="#DejaVuSans-35" x="63.623047"/>
       <use xlink:href="#DejaVuSans-30" x="127.246094"/>
      </g>
     </g>
    </g>
    <g id="text_7">
     <!-- Frequency, Hz -->
     <g transform="translate(165.295312 252.916562)scale(0.1 -0.1)">
      <defs>
       <path id="DejaVuSans-46" d="M 628 4666 
L 3309 4666 
L 3309 4134 
L 1259 4134 
L 1259 2759 
L 3109 2759 
L 3109 2228 
L 1259 2228 
L 1259 0 
L 628 0 
L 628 4666 
z
" transform="scale(0.015625)"/>
       <path id="DejaVuSans-72" d="M 2631 2963 
Q 2534 3019 2420 3045 
Q 2306 3072 2169 3072 
Q 1681 3072 1420 2755 
Q 1159 2438 1159 1844 
L 1159 0 
L 581 0 
L 581 3500 
L 1159 3500 
L 1159 2956 
Q 1341 3275 1631 3429 
Q 1922 3584 2338 3584 
Q 2397 3584 2469 3576 
Q 2541 3569 2628 3553 
L 2631 2963 
z
" transform="scale(0.015625)"/>
       <path id="DejaVuSans-65" d="M 3597 1894 
L 3597 1613 
L 953 1613 
Q 991 1019 1311 708 
Q 1631 397 2203 397 
Q 2534 397 2845 478 
Q 3156 559 3463 722 
L 3463 178 
Q 3153 47 2828 -22 
Q 2503 -91 2169 -91 
Q 1331 -91 842 396 
Q 353 884 353 1716 
Q 353 2575 817 3079 
Q 1281 3584 2069 3584 
Q 2775 3584 3186 3129 
Q 3597 2675 3597 1894 
z
M 3022 2063 
Q 3016 2534 2758 2815 
Q 2500 3097 2075 3097 
Q 1594 3097 1305 2825 
Q 1016 2553 972 2059 
L 3022 2063 
z
" transform="scale(0.015625)"/>
       <path id="DejaVuSans-71" d="M 947 1747 
Q 947 1113 1208 752 
Q 1469 391 1925 391 
Q 2381 391 2643 752 
Q 2906 1113 2906 1747 
Q 2906 2381 2643 2742 
Q 2381 3103 1925 3103 
Q 1469 3103 1208 2742 
Q 947 2381 947 1747 
z
M 2906 525 
Q 2725 213 2448 61 
Q 2172 -91 1784 -91 
Q 1150 -91 751 415 
Q 353 922 353 1747 
Q 353 2572 751 3078 
Q 1150 3584 1784 3584 
Q 2172 3584 2448 3432 
Q 2725 3281 2906 2969 
L 2906 3500 
L 3481 3500 
L 3481 -1331 
L 2906 -1331 
L 2906 525 
z
" transform="scale(0.015625)"/>
       <path id="DejaVuSans-75" d="M 544 1381 
L 544 3500 
L 1119 3500 
L 1119 1403 
Q 1119 906 1312 657 
Q 1506 409 1894 409 
Q 2359 409 2629 706 
Q 2900 1003 2900 1516 
L 2900 3500 
L 3475 3500 
L 3475 0 
L 2900 0 
L 2900 538 
Q 2691 219 2414 64 
Q 2138 -91 1772 -91 
Q 1169 -91 856 284 
Q 544 659 544 1381 
z
M 1991 3584 
L 1991 3584 
z
" transform="scale(0.015625)"/>
       <path id="DejaVuSans-6e" d="M 3513 2113 
L 3513 0 
L 2938 0 
L 2938 2094 
Q 2938 2591 2744 2837 
Q 2550 3084 2163 3084 
Q 1697 3084 1428 2787 
Q 1159 2491 1159 1978 
L 1159 0 
L 581 0 
L 581 3500 
L 1159 3500 
L 1159 2956 
Q 1366 3272 1645 3428 
Q 1925 3584 2291 3584 
Q 2894 3584 3203 3211 
Q 3513 2838 3513 2113 
z
" transform="scale(0.015625)"/>
       <path id="DejaVuSans-63" d="M 3122 3366 
L 3122 2828 
Q 2878 2963 2633 3030 
Q 2388 3097 2138 3097 
Q 1578 3097 1268 2742 
Q 959 2388 959 1747 
Q 959 1106 1268 751 
Q 1578 397 2138 397 
Q 2388 397 2633 464 
Q 2878 531 3122 666 
L 3122 134 
Q 2881 22 2623 -34 
Q 2366 -91 2075 -91 
Q 1284 -91 818 406 
Q 353 903 353 1747 
Q 353 2603 823 3093 
Q 1294 3584 2113 3584 
Q 2378 3584 2631 3529 
Q 2884 3475 3122 3366 
z
" transform="scale(0.015625)"/>
       <path id="DejaVuSans-79" d="M 2059 -325 
Q 1816 -950 1584 -1140 
Q 1353 -1331 966 -1331 
L 506 -1331 
L 506 -850 
L 844 -850 
Q 1081 -850 1212 -737 
Q 1344 -625 1503 -206 
L 1606 56 
L 191 3500 
L 800 3500 
L 1894 763 
L 2988 3500 
L 3597 3500 
L 2059 -325 
z
" transform="scale(0.015625)"/>
       <path id="DejaVuSans-2c" d="M 750 794 
L 1409 794 
L 1409 256 
L 897 -744 
L 494 -744 
L 750 256 
L 750 794 
z
" transform="scale(0.015625)"/>
       <path id="DejaVuSans-20" transform="scale(0.015625)"/>
       <path id="DejaVuSans-48" d="M 628 4666 
L 1259 4666 
L 1259 2753 
L 3553 2753 
L 3553 4666 
L 4184 4666 
L 4184 0 
L 3553 0 
L 3553 2222 
L 1259 2222 
L 1259 0 
L 628 0 
L 628 4666 
z
" transform="scale(0.015625)"/>
       <path id="DejaVuSans-7a" d="M 353 3500 
L 3084 3500 
L 3084 2975 
L 922 459 
L 3084 459 
L 3084 0 
L 275 0 
L 275 525 
L 2438 3041 
L 353 3041 
L 353 3500 
z
" transform="scale(0.015625)"/>
      </defs>
      <use xlink:href="#DejaVuSans-46"/>
      <use xlink:href="#DejaVuSans-72" x="50.269531"/>
      <use xlink:href="#DejaVuSans-65" x="89.132812"/>
      <use xlink:href="#DejaVuSans-71" x="150.65625"/>
      <use xlink:href="#DejaVuSans-75" x="214.132812"/>
      <use xlink:href="#DejaVuSans-65" x="277.511719"/>
      <use xlink:href="#DejaVuSans-6e" x="339.035156"/>
      <use xlink:href="#DejaVuSans-63" x="402.414062"/>
      <use xlink:href="#DejaVuSans-79" x="457.394531"/>
      <use xlink:href="#DejaVuSans-2c" x="516.574219"/>
      <use xlink:href="#DejaVuSans-20" x="548.361328"/>
      <use xlink:href="#DejaVuSans-48" x="580.148438"/>
      <use xlink:href="#DejaVuSans-7a" x="655.34375"/>
     </g>
    </g>
   </g>
   <g id="matplotlib.axis_2">
    <g id="ytick_1">
     <g id="line2d_7">
      <defs>
       <path id="m3465861e9a" d="M 0 0 
L -3.5 0 
" style="stroke: #000000; stroke-width: 0.8"/>
      </defs>
      <g>
       <use xlink:href="#m3465861e9a" x="33.2875" y="205.746425" style="stroke: #000000; stroke-width: 0.8"/>
      </g>
     </g>
     <g id="text_8">
      <!-- 0 -->
      <g transform="translate(19.925 209.545643)scale(0.1 -0.1)">
       <use xlink:href="#DejaVuSans-30"/>
      </g>
     </g>
    </g>
    <g id="ytick_2">
     <g id="line2d_8">
      <g>
       <use xlink:href="#m3465861e9a" x="33.2875" y="167.342746" style="stroke: #000000; stroke-width: 0.8"/>
      </g>
     </g>
     <g id="text_9">
      <!-- 50 -->
      <g transform="translate(13.5625 171.141965)scale(0.1 -0.1)">
       <use xlink:href="#DejaVuSans-35"/>
       <use xlink:href="#DejaVuSans-30" x="63.623047"/>
      </g>
     </g>
    </g>
    <g id="ytick_3">
     <g id="line2d_9">
      <g>
       <use xlink:href="#m3465861e9a" x="33.2875" y="128.939068" style="stroke: #000000; stroke-width: 0.8"/>
      </g>
     </g>
     <g id="text_10">
      <!-- 100 -->
      <g transform="translate(7.2 132.738287)scale(0.1 -0.1)">
       <use xlink:href="#DejaVuSans-31"/>
       <use xlink:href="#DejaVuSans-30" x="63.623047"/>
       <use xlink:href="#DejaVuSans-30" x="127.246094"/>
      </g>
     </g>
    </g>
    <g id="ytick_4">
     <g id="line2d_10">
      <g>
       <use xlink:href="#m3465861e9a" x="33.2875" y="90.535389" style="stroke: #000000; stroke-width: 0.8"/>
      </g>
     </g>
     <g id="text_11">
      <!-- 150 -->
      <g transform="translate(7.2 94.334608)scale(0.1 -0.1)">
       <use xlink:href="#DejaVuSans-31"/>
       <use xlink:href="#DejaVuSans-35" x="63.623047"/>
       <use xlink:href="#DejaVuSans-30" x="127.246094"/>
      </g>
     </g>
    </g>
    <g id="ytick_5">
     <g id="line2d_11">
      <g>
       <use xlink:href="#m3465861e9a" x="33.2875" y="52.131711" style="stroke: #000000; stroke-width: 0.8"/>
      </g>
     </g>
     <g id="text_12">
      <!-- 200 -->
      <g transform="translate(7.2 55.93093)scale(0.1 -0.1)">
       <use xlink:href="#DejaVuSans-32"/>
       <use xlink:href="#DejaVuSans-30" x="63.623047"/>
       <use xlink:href="#DejaVuSans-30" x="127.246094"/>
      </g>
     </g>
    </g>
    <g id="ytick_6">
     <g id="line2d_12">
      <g>
       <use xlink:href="#m3465861e9a" x="33.2875" y="13.728033" style="stroke: #000000; stroke-width: 0.8"/>
      </g>
     </g>
     <g id="text_13">
      <!-- 250 -->
      <g transform="translate(7.2 17.527251)scale(0.1 -0.1)">
       <use xlink:href="#DejaVuSans-32"/>
       <use xlink:href="#DejaVuSans-35" x="63.623047"/>
       <use xlink:href="#DejaVuSans-30" x="127.246094"/>
      </g>
     </g>
    </g>
   </g>
   <g id="line2d_13">
    <path d="M 33.2875 17.083636 
L 34.6267 205.049904 
L 35.9659 202.820229 
L 37.3051 204.288323 
L 38.6443 204.305932 
L 39.9835 211.130908 
L 41.3227 207.327798 
L 42.6619 205.085531 
L 44.0011 203.734002 
L 45.3403 204.643822 
L 46.6795 203.248633 
L 48.0187 205.542775 
L 49.3579 206.353414 
L 50.6971 205.836648 
L 52.0363 202.199371 
L 53.3755 203.628419 
L 54.7147 203.786575 
L 56.0539 204.713178 
L 57.3931 208.709752 
L 58.7323 208.857283 
L 60.0715 207.281056 
L 61.4107 206.769872 
L 62.7499 202.112796 
L 64.0891 203.813203 
L 65.4283 206.448703 
L 66.7675 210.697566 
L 68.1067 201.481991 
L 69.4459 209.621433 
L 70.7851 210.482664 
L 72.1243 209.539109 
L 73.4635 207.038923 
L 74.8027 205.514366 
L 76.1419 205.264854 
L 77.4811 207.618521 
L 78.8203 210.881075 
L 80.1595 203.815815 
L 81.4987 206.282156 
L 82.8379 201.933515 
L 84.1771 205.261774 
L 85.5163 207.848713 
L 86.8555 209.081887 
L 88.1947 202.81079 
L 89.5339 203.512944 
L 90.8731 204.364388 
L 92.2123 202.426245 
L 93.5515 203.464275 
L 94.8907 204.22111 
L 96.2299 207.201553 
L 97.5691 208.776859 
L 98.9083 207.043838 
L 100.2475 201.481522 
L 101.5867 201.397331 
L 102.9259 209.21472 
L 104.2651 208.729673 
L 105.6043 200.059701 
L 106.9435 201.631454 
L 108.2827 206.459958 
L 109.6219 204.85745 
L 110.9611 201.783502 
L 112.3003 202.950363 
L 113.6395 204.520614 
L 114.9787 197.814372 
L 116.3179 132.050399 
L 117.6571 214.756364 
L 118.9963 209.391241 
L 120.3355 206.72094 
L 121.6747 209.41957 
L 123.0139 208.021743 
L 124.3531 209.584934 
L 125.6923 201.911369 
L 127.0315 207.207049 
L 128.3707 210.633495 
L 129.7099 207.374 
L 131.0491 206.564521 
L 132.3883 202.958303 
L 133.7275 206.658194 
L 135.0667 205.843966 
L 136.4059 210.116873 
L 137.7451 206.209284 
L 139.0843 207.095825 
L 140.4235 208.385709 
L 141.7627 203.376202 
L 143.1019 208.364674 
L 144.4411 205.173125 
L 145.7803 206.09421 
L 147.1195 207.751992 
L 148.4587 204.031276 
L 149.7979 205.460783 
L 151.1371 207.568343 
L 152.4763 203.581664 
L 153.8155 203.144648 
L 155.1547 207.476393 
L 156.4939 201.438129 
L 157.8331 208.02344 
L 159.1723 201.803695 
L 161.8507 209.724591 
L 163.1899 203.970499 
L 164.5291 202.519233 
L 165.8683 209.804711 
L 167.2075 205.58318 
L 168.5467 202.012795 
L 169.8859 210.819311 
L 171.2251 208.642134 
L 172.5643 201.601679 
L 173.9035 207.657806 
L 175.2427 205.121021 
L 176.5819 208.078367 
L 177.9211 205.559562 
L 179.2603 208.033278 
L 180.5995 198.848507 
L 181.9387 202.909633 
L 183.2779 203.299344 
L 184.6171 202.886852 
L 185.9563 205.418523 
L 187.2955 206.534788 
L 188.6347 206.598149 
L 189.9739 205.064988 
L 191.3131 204.672275 
L 192.6523 203.849757 
L 193.9915 206.151552 
L 195.3307 205.199512 
L 196.6699 206.327744 
L 198.0091 210.173558 
L 199.3483 205.608882 
L 200.6875 207.821196 
L 202.0267 204.294437 
L 203.3659 207.999156 
L 204.7051 206.592729 
L 206.0443 205.459316 
L 207.3835 205.836171 
L 208.7227 206.421541 
L 210.0619 202.165907 
L 211.4011 203.115713 
L 212.7403 202.374511 
L 214.0795 206.944773 
L 215.4187 206.716004 
L 216.7579 200.026119 
L 218.0971 208.423358 
L 219.4363 203.977649 
L 223.4539 207.827385 
L 224.7931 203.815794 
L 226.1323 206.047642 
L 227.4715 208.974772 
L 228.8107 204.752352 
L 230.1499 212.077916 
L 231.4891 206.449696 
L 232.8283 207.292747 
L 234.1675 204.419418 
L 235.5067 204.978696 
L 236.8459 204.765833 
L 238.1851 209.071858 
L 239.5243 202.307156 
L 240.8635 203.517055 
L 242.2027 207.954055 
L 243.5419 207.385957 
L 244.8811 205.55844 
L 246.2203 209.707341 
L 247.5595 204.006069 
L 248.8987 204.259766 
L 250.2379 207.622205 
L 251.5771 202.713195 
L 252.9163 204.169116 
L 254.2555 204.893987 
L 255.5947 202.219033 
L 256.9339 205.853161 
L 258.2731 201.664858 
L 259.6123 207.34466 
L 262.2907 207.487127 
L 263.6299 205.2445 
L 264.9691 207.392658 
L 266.3083 208.791923 
L 267.6475 207.297323 
L 268.9867 202.287437 
L 270.3259 207.601182 
L 271.6651 206.911956 
L 273.0043 206.472906 
L 274.3435 200.251344 
L 275.6827 206.885458 
L 277.0219 208.567732 
L 278.3611 205.970408 
L 279.7003 204.362385 
L 281.0395 208.221748 
L 282.3787 210.681731 
L 283.7179 203.411428 
L 285.0571 205.294876 
L 286.3963 202.295505 
L 287.7355 206.568852 
L 289.0747 200.827964 
L 290.4139 206.207649 
L 291.7531 205.758559 
L 293.0923 208.608719 
L 294.4315 202.221056 
L 295.7707 205.550754 
L 297.1099 204.028499 
L 298.4491 203.542345 
L 299.7883 204.416299 
L 301.1275 205.842355 
L 302.4667 202.960931 
L 303.8059 208.483486 
L 305.1451 203.118144 
L 306.4843 208.260609 
L 307.8235 207.769363 
L 309.1627 208.110064 
L 310.5019 207.735479 
L 311.8411 203.293626 
L 313.1803 205.438923 
L 314.5195 200.805448 
L 315.8587 206.526657 
L 317.1979 203.84829 
L 318.5371 207.936699 
L 319.8763 204.328163 
L 321.2155 204.935797 
L 322.5547 204.540425 
L 323.8939 207.680096 
L 325.2331 207.994092 
L 326.5723 205.221881 
L 327.9115 207.051898 
L 329.2507 209.902296 
L 330.5899 205.26845 
L 331.9291 208.302714 
L 333.2683 207.007844 
L 334.6075 204.769872 
L 335.9467 206.440903 
L 337.2859 200.985459 
L 338.6251 205.439261 
L 339.9643 205.968113 
L 341.3035 202.22326 
L 342.6427 203.873386 
L 343.9819 210.011197 
L 345.3211 203.296512 
L 346.6603 209.504104 
L 347.9995 204.150555 
L 349.3387 203.330675 
L 350.6779 207.321515 
L 352.0171 206.51453 
L 353.3563 203.971938 
L 354.6955 207.835538 
L 356.0347 202.733261 
L 357.3739 208.323333 
L 358.7131 208.444894 
L 360.0523 205.502727 
L 361.3915 204.854733 
L 362.7307 207.836744 
L 364.0699 207.66493 
L 365.4091 212.403039 
L 366.7483 205.437305 
L 368.0875 202.138786 
L 369.4267 205.698494 
L 370.7659 204.788775 
L 372.1051 202.963287 
L 373.4443 206.153177 
L 374.7835 208.315921 
L 376.1227 207.875175 
L 377.4619 203.324979 
L 378.8011 205.557235 
L 380.1403 208.883986 
L 381.4795 206.2233 
L 382.8187 210.740545 
L 384.1579 203.91841 
L 385.4971 203.263383 
L 385.83125 203.351229 
L 385.83125 203.351229 
" clip-path="url(#p1bc6133e52)" style="fill: none; stroke: #1f77b4; stroke-width: 1.5; stroke-linecap: square"/>
   </g>
   <g id="patch_3">
    <path d="M 33.2875 224.64 
L 33.2875 7.2 
" style="fill: none; stroke: #000000; stroke-width: 0.8; stroke-linejoin: miter; stroke-linecap: square"/>
   </g>
   <g id="patch_4">
    <path d="M 368.0875 224.64 
L 368.0875 7.2 
" style="fill: none; stroke: #000000; stroke-width: 0.8; stroke-linejoin: miter; stroke-linecap: square"/>
   </g>
   <g id="patch_5">
    <path d="M 33.2875 224.64 
L 368.0875 224.64 
" style="fill: none; stroke: #000000; stroke-width: 0.8; stroke-linejoin: miter; stroke-linecap: square"/>
   </g>
   <g id="patch_6">
    <path d="M 33.2875 7.2 
L 368.0875 7.2 
" style="fill: none; stroke: #000000; stroke-width: 0.8; stroke-linejoin: miter; stroke-linecap: square"/>
   </g>
  </g>
 </g>
 <defs>
  <clipPath id="p1bc6133e52">
   <rect x="33.2875" y="7.2" width="334.8" height="217.44"/>
  </clipPath>
 </defs>
</svg>
