<?xml version="1.0" encoding="utf-8" standalone="no"?>
<!DOCTYPE svg PUBLIC "-//W3C//DTD SVG 1.1//EN"
  "http://www.w3.org/Graphics/SVG/1.1/DTD/svg11.dtd">
<svg xmlns:xlink="http://www.w3.org/1999/xlink" width="532.7175pt" height="351.99625pt" viewBox="0 0 532.7175 351.99625" xmlns="http://www.w3.org/2000/svg" version="1.1">
 <metadata>
  <rdf:RDF xmlns:dc="http://purl.org/dc/elements/1.1/" xmlns:cc="http://creativecommons.org/ns#" xmlns:rdf="http://www.w3.org/1999/02/22-rdf-syntax-ns#">
   <cc:Work>
    <dc:type rdf:resource="http://purl.org/dc/dcmitype/StillImage"/>
    <dc:date>2026-09-05T10:10:10.068565</dc:date>
    <dc:format>image/svg+xml</dc:format>
    <dc:creator>
     <cc:Agent>
      <dc:title>Matplotlib v3.10.5, https://matplotlib.org/</dc:title>
     </cc:Agent>
    </dc:creator>
   </cc:Work>
  </rdf:RDF>
 </metadata>
 <defs>
  <style type="text/css">*{stroke-linejoin: round; stroke-linecap: butt}</style>
 </defs>
 <g id="figure_1">
  <g id="patch_1">
   <path d="M 0 351.99625 
L 532.7175 351.99625 
L 532.7175 0 
L 0 0 
z
" style="fill: #ffffff"/>
  </g>
  <g id="axes_1">
   <g id="patch_2">
    <path d="M 47.1875 314.44 
L 525.5175 314.44 
L 525.5175 7.2 
L 47.1875 7.2 
z
" style="fill: #ffffff"/>
   </g>
   <g id="PathCollection_1">
    <defs>
     <path id="m4a022a6ca0" d="M 0 3 
C 0.795609 3 1.55874 2.683901 2.12132 2.12132 
C 2.683901 1.55874 3 0.795609 3 0 
C 3 -0.795609 2.683901 -1.55874 2.12132 -2.12132 
C 1.55874 -2.683901 0.795609 -3 0 -3 
C -0.795609 -3 -1.55874 -2.683901 -2.12132 -2.12132 
C -2.683901 -1.55874 -3 -0.795609 -3 0 
C -3 0.795609 -2.683901 1.55874 -2.12132 2.12132 
C -1.55874 2.683901 -0.795609 3 0 3 
z
" style="stroke: #1f77b4; stroke-opacity: 0.8"/>
    </defs>
    <g clip-path="url(#pb6491b0b12)">
     <use xlink:href="#m4a022a6ca0" x="68.929773" y="254.151691" style="fill: #1f77b4; fill-opacity: 0.8; stroke: #1f77b4; stroke-opacity: 0.8"/>
     <use xlink:href="#m4a022a6ca0" x="113.043162" y="237.876093" style="fill: #1f77b4; fill-opacity: 0.8; stroke: #1f77b4; stroke-opacity: 0.8"/>
     <use xlink:href="#m4a022a6ca0" x="157.156551" y="212.836712" style="fill: #1f77b4; fill-opacity: 0.8; stroke: #1f77b4; stroke-opacity: 0.8"/>
     <use xlink:href="#m4a022a6ca0" x="201.238498" y="187.797331" style="fill: #1f77b4; fill-opacity: 0.8; stroke: #1f77b4; stroke-opacity: 0.8"/>
     <use xlink:href="#m4a022a6ca0" x="245.351887" y="161.505981" style="fill: #1f77b4; fill-opacity: 0.8; stroke: #1f77b4; stroke-opacity: 0.8"/>
     <use xlink:href="#m4a022a6ca0" x="289.465277" y="138.970538" style="fill: #1f77b4; fill-opacity: 0.8; stroke: #1f77b4; stroke-opacity: 0.8"/>
     <use xlink:href="#m4a022a6ca0" x="333.547224" y="115.183126" style="fill: #1f77b4; fill-opacity: 0.8; stroke: #1f77b4; stroke-opacity: 0.8"/>
     <use xlink:href="#m4a022a6ca0" x="377.660613" y="91.395714" style="fill: #1f77b4; fill-opacity: 0.8; stroke: #1f77b4; stroke-opacity: 0.8"/>
     <use xlink:href="#m4a022a6ca0" x="421.74256" y="70.11224" style="fill: #1f77b4; fill-opacity: 0.8; stroke: #1f77b4; stroke-opacity: 0.8"/>
     <use xlink:href="#m4a022a6ca0" x="465.855949" y="45.07286" style="fill: #1f77b4; fill-opacity: 0.8; stroke: #1f77b4; stroke-opacity: 0.8"/>
     <use xlink:href="#m4a022a6ca0" x="201.238498" y="200.317022" style="fill: #1f77b4; fill-opacity: 0.8; stroke: #1f77b4; stroke-opacity: 0.8"/>
     <use xlink:href="#m4a022a6ca0" x="201.238498" y="231.616248" style="fill: #1f77b4; fill-opacity: 0.8; stroke: #1f77b4; stroke-opacity: 0.8"/>
     <use xlink:href="#m4a022a6ca0" x="245.351887" y="171.521733" style="fill: #1f77b4; fill-opacity: 0.8; stroke: #1f77b4; stroke-opacity: 0.8"/>
     <use xlink:href="#m4a022a6ca0" x="289.465277" y="166.513857" style="fill: #1f77b4; fill-opacity: 0.8; stroke: #1f77b4; stroke-opacity: 0.8"/>
     <use xlink:href="#m4a022a6ca0" x="333.547224" y="160.254012" style="fill: #1f77b4; fill-opacity: 0.8; stroke: #1f77b4; stroke-opacity: 0.8"/>
     <use xlink:href="#m4a022a6ca0" x="264.091431" y="107.671312" style="fill: #1f77b4; fill-opacity: 0.8; stroke: #1f77b4; stroke-opacity: 0.8"/>
     <use xlink:href="#m4a022a6ca0" x="308.20482" y="82.631931" style="fill: #1f77b4; fill-opacity: 0.8; stroke: #1f77b4; stroke-opacity: 0.8"/>
     <use xlink:href="#m4a022a6ca0" x="396.400157" y="60.096488" style="fill: #1f77b4; fill-opacity: 0.8; stroke: #1f77b4; stroke-opacity: 0.8"/>
    </g>
   </g>
   <g id="FillBetweenPolyCollection_1">
    <path d="M 68.929773 250.621807 
L 68.929773 284.054822 
L 72.939128 281.585007 
L 76.948483 278.813633 
L 80.957839 276.258781 
L 84.967194 273.70393 
L 88.976549 271.235543 
L 92.985905 268.842279 
L 96.99526 266.449014 
L 101.004615 264.05575 
L 105.013971 261.654395 
L 109.023326 259.134982 
L 113.032681 256.432897 
L 117.042037 253.953744 
L 121.051392 251.532458 
L 125.060747 249.111171 
L 129.070102 246.689885 
L 133.079458 244.169612 
L 137.088813 241.62614 
L 141.098168 239.082668 
L 145.107524 236.539195 
L 149.116879 233.995723 
L 153.126234 231.452251 
L 157.13559 229.067558 
L 161.144945 226.723237 
L 165.1543 224.141869 
L 169.163656 221.620564 
L 173.173011 219.068821 
L 177.182366 216.7512 
L 181.191722 214.323248 
L 185.201077 211.830875 
L 189.210432 209.357429 
L 193.219788 206.850616 
L 197.229143 204.50234 
L 201.238498 202.070183 
L 205.247853 199.701815 
L 209.257209 197.352982 
L 213.266564 195.056518 
L 217.275919 192.86829 
L 221.285275 190.41649 
L 225.29463 188.009766 
L 229.303985 185.654882 
L 233.313341 183.26066 
L 237.322696 181.072924 
L 241.332051 178.845756 
L 245.341407 176.535588 
L 249.350762 174.296249 
L 253.360117 171.957214 
L 257.369473 169.623798 
L 261.378828 167.482871 
L 265.388183 165.122294 
L 269.397539 163.009135 
L 273.406894 160.853419 
L 277.416249 158.601893 
L 281.425604 156.434767 
L 285.43496 154.247597 
L 289.444315 152.106669 
L 293.45367 150.042436 
L 297.463026 147.793403 
L 301.472381 145.679591 
L 305.481736 143.532609 
L 309.491092 141.356199 
L 313.500447 139.152921 
L 317.509802 136.948367 
L 321.519158 134.743813 
L 325.528513 132.539258 
L 329.537868 130.506077 
L 333.547224 128.473079 
L 337.556579 126.478785 
L 341.565934 124.484492 
L 345.57529 122.486845 
L 349.584645 120.283887 
L 353.594 118.227443 
L 357.603355 116.07959 
L 361.612711 114.100815 
L 365.622066 111.925752 
L 369.631421 109.874912 
L 373.640777 107.886084 
L 377.650132 105.824767 
L 381.659487 103.670344 
L 385.668843 101.521554 
L 389.678198 99.384304 
L 393.687553 97.343594 
L 397.696909 95.317112 
L 401.706264 93.282911 
L 405.715619 91.231058 
L 409.724975 89.183808 
L 413.73433 87.070348 
L 417.743685 84.940332 
L 421.753041 82.956994 
L 425.762396 80.992681 
L 429.771751 79.028294 
L 433.781106 77.021997 
L 437.790462 74.989699 
L 441.799817 72.957402 
L 445.809172 70.925104 
L 449.818528 68.892807 
L 453.827883 66.86051 
L 457.837238 64.828212 
L 461.846594 62.795915 
L 465.855949 60.763617 
L 465.855949 21.165455 
L 465.855949 21.165455 
L 461.846594 23.679943 
L 457.837238 26.189117 
L 453.827883 28.530031 
L 449.818528 31.035687 
L 445.809172 33.537874 
L 441.799817 36.040061 
L 437.790462 38.49843 
L 433.781106 40.942716 
L 429.771751 43.389417 
L 425.762396 45.836118 
L 421.753041 48.373433 
L 417.743685 50.939569 
L 413.73433 53.51064 
L 409.724975 56.083374 
L 405.715619 58.651349 
L 401.706264 61.219016 
L 397.696909 63.655896 
L 393.687553 66.069013 
L 389.678198 68.605276 
L 385.668843 71.065866 
L 381.659487 73.473966 
L 377.650132 75.925034 
L 373.640777 78.517922 
L 369.631421 81.110809 
L 365.622066 83.624411 
L 361.612711 85.952627 
L 357.603355 88.231508 
L 353.594 90.506593 
L 349.584645 93.001228 
L 345.57529 95.44232 
L 341.565934 97.859083 
L 337.556579 100.196039 
L 333.547224 102.53069 
L 329.537868 104.857689 
L 325.528513 107.188719 
L 321.519158 109.577937 
L 317.509802 111.849057 
L 313.500447 114.254508 
L 309.491092 116.696142 
L 305.481736 118.945835 
L 301.472381 121.30736 
L 297.463026 123.675443 
L 293.45367 125.93292 
L 289.444315 128.350263 
L 285.43496 130.635356 
L 281.425604 133.082729 
L 277.416249 135.530102 
L 273.406894 137.81263 
L 269.397539 140.027716 
L 265.388183 142.346839 
L 261.378828 144.840624 
L 257.369473 147.231819 
L 253.360117 149.655839 
L 249.350762 152.129537 
L 245.341407 154.309154 
L 241.332051 156.921053 
L 237.322696 159.171283 
L 233.313341 161.265877 
L 229.303985 163.436304 
L 225.29463 165.839223 
L 221.285275 168.108119 
L 217.275919 170.315671 
L 213.266564 172.58337 
L 209.257209 174.764152 
L 205.247853 176.902645 
L 201.238498 179.219102 
L 197.229143 181.42565 
L 193.219788 183.638335 
L 189.210432 185.85102 
L 185.201077 188.067241 
L 181.191722 190.268959 
L 177.182366 192.384526 
L 173.173011 194.477818 
L 169.163656 196.703972 
L 165.1543 198.979296 
L 161.144945 201.25462 
L 157.13559 203.509893 
L 153.126234 205.608576 
L 149.116879 207.708355 
L 145.107524 209.808135 
L 141.098168 211.907914 
L 137.088813 214.055989 
L 133.079458 216.161997 
L 129.070102 218.307032 
L 125.060747 220.556406 
L 121.051392 222.859526 
L 117.042037 225.066339 
L 113.032681 227.316364 
L 109.023326 229.497816 
L 105.013971 231.457764 
L 101.004615 233.634399 
L 96.99526 235.702691 
L 92.985905 237.895696 
L 88.976549 239.96567 
L 84.967194 242.15474 
L 80.957839 244.225237 
L 76.948483 246.35683 
L 72.939128 248.522758 
L 68.929773 250.621807 
z
" clip-path="url(#pb6491b0b12)" style="fill: #1f77b4; fill-opacity: 0.15"/>
   </g>
   <g id="PathCollection_2">
    <defs>
     <path id="m12021c680c" d="M 0 -3 
L -3 3 
L 3 3 
z
" style="stroke: #ff7f0e; stroke-opacity: 0.8"/>
    </defs>
    <g clip-path="url(#pb6491b0b12)">
     <use xlink:href="#m12021c680c" x="195.044387" y="290.458793" style="fill: #ff7f0e; fill-opacity: 0.8; stroke: #ff7f0e; stroke-opacity: 0.8"/>
     <use xlink:href="#m12021c680c" x="239.157776" y="249.143814" style="fill: #ff7f0e; fill-opacity: 0.8; stroke: #ff7f0e; stroke-opacity: 0.8"/>
     <use xlink:href="#m12021c680c" x="283.271166" y="212.836712" style="fill: #ff7f0e; fill-opacity: 0.8; stroke: #ff7f0e; stroke-opacity: 0.8"/>
     <use xlink:href="#m12021c680c" x="327.353113" y="177.781579" style="fill: #ff7f0e; fill-opacity: 0.8; stroke: #ff7f0e; stroke-opacity: 0.8"/>
     <use xlink:href="#m12021c680c" x="371.466502" y="146.482352" style="fill: #ff7f0e; fill-opacity: 0.8; stroke: #ff7f0e; stroke-opacity: 0.8"/>
     <use xlink:href="#m12021c680c" x="415.579891" y="117.687064" style="fill: #ff7f0e; fill-opacity: 0.8; stroke: #ff7f0e; stroke-opacity: 0.8"/>
     <use xlink:href="#m12021c680c" x="459.661838" y="90.143745" style="fill: #ff7f0e; fill-opacity: 0.8; stroke: #ff7f0e; stroke-opacity: 0.8"/>
     <use xlink:href="#m12021c680c" x="503.775227" y="65.104364" style="fill: #ff7f0e; fill-opacity: 0.8; stroke: #ff7f0e; stroke-opacity: 0.8"/>
     <use xlink:href="#m12021c680c" x="239.157776" y="256.655629" style="fill: #ff7f0e; fill-opacity: 0.8; stroke: #ff7f0e; stroke-opacity: 0.8"/>
     <use xlink:href="#m12021c680c" x="327.353113" y="189.0493" style="fill: #ff7f0e; fill-opacity: 0.8; stroke: #ff7f0e; stroke-opacity: 0.8"/>
     <use xlink:href="#m12021c680c" x="195.044387" y="300.474545" style="fill: #ff7f0e; fill-opacity: 0.8; stroke: #ff7f0e; stroke-opacity: 0.8"/>
     <use xlink:href="#m12021c680c" x="283.271166" y="235.372155" style="fill: #ff7f0e; fill-opacity: 0.8; stroke: #ff7f0e; stroke-opacity: 0.8"/>
    </g>
   </g>
   <g id="FillBetweenPolyCollection_2">
    <path d="M 195.044387 279.982125 
L 195.044387 296.860487 
L 198.162881 294.324288 
L 201.281374 291.755274 
L 204.399867 289.199975 
L 207.518361 286.719258 
L 210.636854 284.307837 
L 213.755347 281.769019 
L 216.873841 279.285495 
L 219.992334 276.857041 
L 223.110827 274.428766 
L 226.229321 271.895107 
L 229.347814 269.373377 
L 232.466307 266.828998 
L 235.584801 264.329243 
L 238.703294 261.81255 
L 241.821787 259.285565 
L 244.940281 256.776085 
L 248.058774 254.246348 
L 251.177267 251.724271 
L 254.295761 249.255882 
L 257.414254 246.9203 
L 260.532747 244.379762 
L 263.651241 241.864544 
L 266.769734 239.504847 
L 269.888227 236.973673 
L 273.006721 234.574193 
L 276.125214 232.11465 
L 279.243707 229.722055 
L 282.362201 227.355794 
L 285.480694 224.990538 
L 288.599187 222.622608 
L 291.717681 220.185283 
L 294.836174 217.595754 
L 297.954667 215.216579 
L 301.073161 212.883226 
L 304.191654 210.547042 
L 307.310147 208.123362 
L 310.428641 205.752741 
L 313.547134 203.343503 
L 316.665627 200.935136 
L 319.784121 198.571327 
L 322.902614 196.180908 
L 326.021107 193.819635 
L 329.139601 191.418381 
L 332.258094 189.117372 
L 335.376587 186.75617 
L 338.495081 184.394202 
L 341.613574 182.086183 
L 344.732067 179.771085 
L 347.850561 177.392787 
L 350.969054 175.062726 
L 354.087547 172.654468 
L 357.206041 170.316488 
L 360.324534 167.978507 
L 363.443027 165.640527 
L 366.561521 163.287729 
L 369.680014 160.93792 
L 372.798507 158.585948 
L 375.917001 156.272728 
L 379.035494 153.953421 
L 382.153987 151.615805 
L 385.272481 149.27822 
L 388.390974 146.981515 
L 391.509467 144.604575 
L 394.627961 142.267753 
L 397.746454 139.928404 
L 400.864947 137.543119 
L 403.983441 135.205027 
L 407.101934 132.866935 
L 410.220427 130.529801 
L 413.338921 128.240861 
L 416.457414 125.9048 
L 419.575907 123.603623 
L 422.694401 121.235377 
L 425.812894 118.924859 
L 428.931387 116.630328 
L 432.049881 114.335031 
L 435.168374 112.018811 
L 438.286867 109.68165 
L 441.405361 107.425265 
L 444.523854 105.159132 
L 447.642347 102.866288 
L 450.760841 100.571594 
L 453.879334 98.245778 
L 456.997827 95.96283 
L 460.116321 93.672653 
L 463.234814 91.391542 
L 466.353307 89.102455 
L 469.471801 86.808971 
L 472.590294 84.515487 
L 475.708787 82.221438 
L 478.827281 79.933356 
L 481.945774 77.695632 
L 485.064267 75.41842 
L 488.182761 73.135791 
L 491.301254 70.834767 
L 494.419747 68.570534 
L 497.538241 66.287906 
L 500.656734 64.019955 
L 503.775227 61.738649 
L 503.775227 39.150449 
L 503.775227 39.150449 
L 500.656734 41.745095 
L 497.538241 44.330101 
L 494.419747 46.876099 
L 491.301254 49.441634 
L 488.182761 52.026044 
L 485.064267 54.540438 
L 481.945774 57.054749 
L 478.827281 59.598071 
L 475.708787 62.141393 
L 472.590294 64.68567 
L 469.471801 67.231695 
L 466.353307 69.77772 
L 463.234814 72.372977 
L 460.116321 74.975395 
L 456.997827 77.577812 
L 453.879334 80.131958 
L 450.760841 82.671274 
L 447.642347 85.188749 
L 444.523854 87.700432 
L 441.405361 90.213693 
L 438.286867 92.809472 
L 435.168374 95.369394 
L 432.049881 97.909329 
L 428.931387 100.449263 
L 425.812894 102.992582 
L 422.694401 105.56109 
L 419.575907 108.129598 
L 416.457414 110.698106 
L 413.338921 113.266613 
L 410.220427 115.835121 
L 407.101934 118.403629 
L 403.983441 120.972622 
L 400.864947 123.544034 
L 397.746454 126.115447 
L 394.627961 128.747323 
L 391.509467 131.319386 
L 388.390974 133.85075 
L 385.272481 136.392767 
L 382.153987 138.912606 
L 379.035494 141.441808 
L 375.917001 143.972542 
L 372.798507 146.555618 
L 369.680014 149.030529 
L 366.561521 151.497797 
L 363.443027 153.923733 
L 360.324534 156.549043 
L 357.206041 159.028164 
L 354.087547 161.578346 
L 350.969054 164.071113 
L 347.850561 166.659944 
L 344.732067 169.15838 
L 341.613574 171.652909 
L 338.495081 174.146621 
L 335.376587 176.65875 
L 332.258094 179.192446 
L 329.139601 181.701788 
L 326.021107 184.122141 
L 322.902614 186.500219 
L 319.784121 188.865118 
L 316.665627 191.196223 
L 313.547134 193.431421 
L 310.428641 195.851126 
L 307.310147 198.327328 
L 304.191654 200.746548 
L 301.073161 203.079786 
L 297.954667 205.459982 
L 294.836174 207.779039 
L 291.717681 209.989363 
L 288.599187 212.184728 
L 285.480694 214.450997 
L 282.362201 216.873797 
L 279.243707 219.188925 
L 276.125214 221.395591 
L 273.006721 223.602256 
L 269.888227 225.829381 
L 266.769734 228.090119 
L 263.651241 230.384628 
L 260.532747 232.634255 
L 257.414254 234.870739 
L 254.295761 237.160116 
L 251.177267 239.464532 
L 248.058774 241.770243 
L 244.940281 244.053223 
L 241.821787 246.287012 
L 238.703294 248.520801 
L 235.584801 250.806528 
L 232.466307 253.097332 
L 229.347814 255.366931 
L 226.229321 257.604676 
L 223.110827 259.842421 
L 219.992334 262.080166 
L 216.873841 264.317911 
L 213.755347 266.555656 
L 210.636854 268.793401 
L 207.518361 271.031146 
L 204.399867 273.268891 
L 201.281374 275.506636 
L 198.162881 277.74438 
L 195.044387 279.982125 
z
" clip-path="url(#pb6491b0b12)" style="fill: #ff7f0e; fill-opacity: 0.15"/>
   </g>
   <g id="matplotlib.axis_1">
    <g id="xtick_1">
     <g id="line2d_1">
      <defs>
       <path id="mbaef820a48" d="M 0 0 
L 0 3.5 
" style="stroke: #000000; stroke-width: 0.8"/>
      </defs>
      <g>
       <use xlink:href="#mbaef820a48" x="93.957754" y="314.44" style="stroke: #000000; stroke-width: 0.8"/>
      </g>
     </g>
     <g id="text_1">
      <!-- 40 -->
      <g transform="translate(87.595254 329.038437) scale(0.1 -0.1)">
       <defs>
        <path id="DejaVuSans-34" d="M 2419 4116 
L 825 1625 
L 2419 1625 
L 2419 4116 
z
M 2253 4666 
L 3047 4666 
L 3047 1625 
L 3713 1625 
L 3713 1100 
L 3047 1100 
L 3047 0 
L 2419 0 
L 2419 1100 
L 313 1100 
L 313 1709 
L 2253 4666 
z
" transform="scale(0.015625)"/>
        <path id="DejaVuSans-30" d="M 2034 4250 
Q 1547 4250 1301 3770 
Q 1056 3291 1056 2328 
Q 1056 1369 1301 889 
Q 1547 409 2034 409 
Q 2525 409 2770 889 
Q 3016 1369 3016 2328 
Q 3016 3291 2770 3770 
Q 2525 4250 2034 4250 
z
M 2034 4750 
Q 2819 4750 3233 4129 
Q 3647 3509 3647 2328 
Q 3647 1150 3233 529 
Q 2819 -91 2034 -91 
Q 1250 -91 836 529 
Q 422 1150 422 2328 
Q 422 3509 836 4129 
Q 1250 4750 2034 4750 
z
" transform="scale(0.015625)"/>
       </defs>
       <use xlink:href="#DejaVuSans-34"/>
       <use xlink:href="#DejaVuSans-30" transform="translate(63.623047 0)"/>
      </g>
     </g>
    </g>
    <g id="xtick_2">
     <g id="line2d_2">
      <g>
       <use xlink:href="#mbaef820a48" x="156.842129" y="314.44" style="stroke: #000000; stroke-width: 0.8"/>
      </g>
     </g>
     <g id="text_2">
      <!-- 60 -->
      <g transform="translate(150.479629 329.038437) scale(0.1 -0.1)">
       <defs>
        <path id="DejaVuSans-36" d="M 2113 2584 
Q 1688 2584 1439 2293 
Q 1191 2003 1191 1497 
Q 1191 994 1439 701 
Q 1688 409 2113 409 
Q 2538 409 2786 701 
Q 3034 994 3034 1497 
Q 3034 2003 2786 2293 
Q 2538 2584 2113 2584 
z
M 3366 4563 
L 3366 3988 
Q 3128 4100 2886 4159 
Q 2644 4219 2406 4219 
Q 1781 4219 1451 3797 
Q 1122 3375 1075 2522 
Q 1259 2794 1537 2939 
Q 1816 3084 2150 3084 
Q 2853 3084 3261 2657 
Q 3669 2231 3669 1497 
Q 3669 778 3244 343 
Q 2819 -91 2113 -91 
Q 1303 -91 875 529 
Q 447 1150 447 2328 
Q 447 3434 972 4092 
Q 1497 4750 2381 4750 
Q 2619 4750 2861 4703 
Q 3103 4656 3366 4563 
z
" transform="scale(0.015625)"/>
       </defs>
       <use xlink:href="#DejaVuSans-36"/>
       <use xlink:href="#DejaVuSans-30" transform="translate(63.623047 0)"/>
      </g>
     </g>
    </g>
    <g id="xtick_3">
     <g id="line2d_3">
      <g>
       <use xlink:href="#mbaef820a48" x="219.726504" y="314.44" style="stroke: #000000; stroke-width: 0.8"/>
      </g>
     </g>
     <g id="text_3">
      <!-- 80 -->
      <g transform="translate(213.364004 329.038437) scale(0.1 -0.1)">
       <defs>
        <path id="DejaVuSans-38" d="M 2034 2216 
Q 1584 2216 1326 1975 
Q 1069 1734 1069 1313 
Q 1069 891 1326 650 
Q 1584 409 2034 409 
Q 2484 409 2743 651 
Q 3003 894 3003 1313 
Q 3003 1734 2745 1975 
Q 2488 2216 2034 2216 
z
M 1403 2484 
Q 997 2584 770 2862 
Q 544 3141 544 3541 
Q 544 4100 942 4425 
Q 1341 4750 2034 4750 
Q 2731 4750 3128 4425 
Q 3525 4100 3525 3541 
Q 3525 3141 3298 2862 
Q 3072 2584 2669 2484 
Q 3125 2378 3379 2068 
Q 3634 1759 3634 1313 
Q 3634 634 3220 271 
Q 2806 -91 2034 -91 
Q 1263 -91 848 271 
Q 434 634 434 1313 
Q 434 1759 690 2068 
Q 947 2378 1403 2484 
z
M 1172 3481 
Q 1172 3119 1398 2916 
Q 1625 2713 2034 2713 
Q 2441 2713 2670 2916 
Q 2900 3119 2900 3481 
Q 2900 3844 2670 4047 
Q 2441 4250 2034 4250 
Q 1625 4250 1398 4047 
Q 1172 3844 1172 3481 
z
" transform="scale(0.015625)"/>
       </defs>
       <use xlink:href="#DejaVuSans-38"/>
       <use xlink:href="#DejaVuSans-30" transform="translate(63.623047 0)"/>
      </g>
     </g>
    </g>
    <g id="xtick_4">
     <g id="line2d_4">
      <g>
       <use xlink:href="#mbaef820a48" x="282.61088" y="314.44" style="stroke: #000000; stroke-width: 0.8"/>
      </g>
     </g>
     <g id="text_4">
      <!-- 100 -->
      <g transform="translate(273.06713 329.038437) scale(0.1 -0.1)">
       <defs>
        <path id="DejaVuSans-31" d="M 794 531 
L 1825 531 
L 1825 4091 
L 703 3866 
L 703 4441 
L 1819 4666 
L 2450 4666 
L 2450 531 
L 3481 531 
L 3481 0 
L 794 0 
L 794 531 
z
" transform="scale(0.015625)"/>
       </defs>
       <use xlink:href="#DejaVuSans-31"/>
       <use xlink:href="#DejaVuSans-30" transform="translate(63.623047 0)"/>
       <use xlink:href="#DejaVuSans-30" transform="translate(127.246094 0)"/>
      </g>
     </g>
    </g>
    <g id="xtick_5">
     <g id="line2d_5">
      <g>
       <use xlink:href="#mbaef820a48" x="345.495255" y="314.44" style="stroke: #000000; stroke-width: 0.8"/>
      </g>
     </g>
     <g id="text_5">
      <!-- 120 -->
      <g transform="translate(335.951505 329.038437) scale(0.1 -0.1)">
       <defs>
        <path id="DejaVuSans-32" d="M 1228 531 
L 3431 531 
L 3431 0 
L 469 0 
L 469 531 
Q 828 903 1448 1529 
Q 2069 2156 2228 2338 
Q 2531 2678 2651 2914 
Q 2772 3150 2772 3378 
Q 2772 3750 2511 3984 
Q 2250 4219 1831 4219 
Q 1534 4219 1204 4116 
Q 875 4013 500 3803 
L 500 4441 
Q 881 4594 1212 4672 
Q 1544 4750 1819 4750 
Q 2544 4750 2975 4387 
Q 3406 4025 3406 3419 
Q 3406 3131 3298 2873 
Q 3191 2616 2906 2266 
Q 2828 2175 2409 1742 
Q 1991 1309 1228 531 
z
" transform="scale(0.015625)"/>
       </defs>
       <use xlink:href="#DejaVuSans-31"/>
       <use xlink:href="#DejaVuSans-32" transform="translate(63.623047 0)"/>
       <use xlink:href="#DejaVuSans-30" transform="translate(127.246094 0)"/>
      </g>
     </g>
    </g>
    <g id="xtick_6">
     <g id="line2d_6">
      <g>
       <use xlink:href="#mbaef820a48" x="408.37963" y="314.44" style="stroke: #000000; stroke-width: 0.8"/>
      </g>
     </g>
     <g id="text_6">
      <!-- 140 -->
      <g transform="translate(398.83588 329.038437) scale(0.1 -0.1)">
       <use xlink:href="#DejaVuSans-31"/>
       <use xlink:href="#DejaVuSans-34" transform="translate(63.623047 0)"/>
       <use xlink:href="#DejaVuSans-30" transform="translate(127.246094 0)"/>
      </g>
     </g>
    </g>
    <g id="xtick_7">
     <g id="line2d_7">
      <g>
       <use xlink:href="#mbaef820a48" x="471.264005" y="314.44" style="stroke: #000000; stroke-width: 0.8"/>
      </g>
     </g>
     <g id="text_7">
      <!-- 160 -->
      <g transform="translate(461.720255 329.038437) scale(0.1 -0.1)">
       <use xlink:href="#DejaVuSans-31"/>
       <use xlink:href="#DejaVuSans-36" transform="translate(63.623047 0)"/>
       <use xlink:href="#DejaVuSans-30" transform="translate(127.246094 0)"/>
      </g>
     </g>
    </g>
    <g id="text_8">
     <!-- MW, g/mol -->
     <g transform="translate(259.739219 342.716562) scale(0.1 -0.1)">
      <defs>
       <path id="DejaVuSans-4d" d="M 628 4666 
L 1569 4666 
L 2759 1491 
L 3956 4666 
L 4897 4666 
L 4897 0 
L 4281 0 
L 4281 4097 
L 3078 897 
L 2444 897 
L 1241 4097 
L 1241 0 
L 628 0 
L 628 4666 
z
" transform="scale(0.015625)"/>
       <path id="DejaVuSans-57" d="M 213 4666 
L 850 4666 
L 1831 722 
L 2809 4666 
L 3519 4666 
L 4500 722 
L 5478 4666 
L 6119 4666 
L 4947 0 
L 4153 0 
L 3169 4050 
L 2175 0 
L 1381 0 
L 213 4666 
z
" transform="scale(0.015625)"/>
       <path id="DejaVuSans-2c" d="M 750 794 
L 1409 794 
L 1409 256 
L 897 -744 
L 494 -744 
L 750 256 
L 750 794 
z
" transform="scale(0.015625)"/>
       <path id="DejaVuSans-20" transform="scale(0.015625)"/>
       <path id="DejaVuSans-67" d="M 2906 1791 
Q 2906 2416 2648 2759 
Q 2391 3103 1925 3103 
Q 1463 3103 1205 2759 
Q 947 2416 947 1791 
Q 947 1169 1205 825 
Q 1463 481 1925 481 
Q 2391 481 2648 825 
Q 2906 1169 2906 1791 
z
M 3481 434 
Q 3481 -459 3084 -895 
Q 2688 -1331 1869 -1331 
Q 1566 -1331 1297 -1286 
Q 1028 -1241 775 -1147 
L 775 -588 
Q 1028 -725 1275 -790 
Q 1522 -856 1778 -856 
Q 2344 -856 2625 -561 
Q 2906 -266 2906 331 
L 2906 616 
Q 2728 306 2450 153 
Q 2172 0 1784 0 
Q 1141 0 747 490 
Q 353 981 353 1791 
Q 353 2603 747 3093 
Q 1141 3584 1784 3584 
Q 2172 3584 2450 3431 
Q 2728 3278 2906 2969 
L 2906 3500 
L 3481 3500 
L 3481 434 
z
" transform="scale(0.015625)"/>
       <path id="DejaVuSans-2f" d="M 1625 4666 
L 2156 4666 
L 531 -594 
L 0 -594 
L 1625 4666 
z
" transform="scale(0.015625)"/>
       <path id="DejaVuSans-6d" d="M 3328 2828 
Q 3544 3216 3844 3400 
Q 4144 3584 4550 3584 
Q 5097 3584 5394 3201 
Q 5691 2819 5691 2113 
L 5691 0 
L 5113 0 
L 5113 2094 
Q 5113 2597 4934 2840 
Q 4756 3084 4391 3084 
Q 3944 3084 3684 2787 
Q 3425 2491 3425 1978 
L 3425 0 
L 2847 0 
L 2847 2094 
Q 2847 2600 2669 2842 
Q 2491 3084 2119 3084 
Q 1678 3084 1418 2786 
Q 1159 2488 1159 1978 
L 1159 0 
L 581 0 
L 581 3500 
L 1159 3500 
L 1159 2956 
Q 1356 3278 1631 3431 
Q 1906 3584 2284 3584 
Q 2666 3584 2933 3390 
Q 3200 3197 3328 2828 
z
" transform="scale(0.015625)"/>
       <path id="DejaVuSans-6f" d="M 1959 3097 
Q 1497 3097 1228 2736 
Q 959 2375 959 1747 
Q 959 1119 1226 758 
Q 1494 397 1959 397 
Q 2419 397 2687 759 
Q 2956 1122 2956 1747 
Q 2956 2369 2687 2733 
Q 2419 3097 1959 3097 
z
M 1959 3584 
Q 2709 3584 3137 3096 
Q 3566 2609 3566 1747 
Q 3566 888 3137 398 
Q 2709 -91 1959 -91 
Q 1206 -91 779 398 
Q 353 888 353 1747 
Q 353 2609 779 3096 
Q 1206 3584 1959 3584 
z
" transform="scale(0.015625)"/>
       <path id="DejaVuSans-6c" d="M 603 4863 
L 1178 4863 
L 1178 0 
L 603 0 
L 603 4863 
z
" transform="scale(0.015625)"/>
      </defs>
      <use xlink:href="#DejaVuSans-4d"/>
      <use xlink:href="#DejaVuSans-57" transform="translate(86.279297 0)"/>
      <use xlink:href="#DejaVuSans-2c" transform="translate(185.15625 0)"/>
      <use xlink:href="#DejaVuSans-20" transform="translate(216.943359 0)"/>
      <use xlink:href="#DejaVuSans-67" transform="translate(248.730469 0)"/>
      <use xlink:href="#DejaVuSans-2f" transform="translate(312.207031 0)"/>
      <use xlink:href="#DejaVuSans-6d" transform="translate(345.898438 0)"/>
      <use xlink:href="#DejaVuSans-6f" transform="translate(443.310547 0)"/>
      <use xlink:href="#DejaVuSans-6c" transform="translate(504.492188 0)"/>
     </g>
    </g>
   </g>
   <g id="matplotlib.axis_2">
    <g id="ytick_1">
     <g id="line2d_8">
      <defs>
       <path id="mede950bf5f" d="M 0 0 
L -3.5 0 
" style="stroke: #000000; stroke-width: 0.8"/>
      </defs>
      <g>
       <use xlink:href="#mede950bf5f" x="47.1875" y="272.931226" style="stroke: #000000; stroke-width: 0.8"/>
      </g>
     </g>
     <g id="text_9">
      <!-- 50 -->
      <g transform="translate(27.4625 276.730445) scale(0.1 -0.1)">
       <defs>
        <path id="DejaVuSans-35" d="M 691 4666 
L 3169 4666 
L 3169 4134 
L 1269 4134 
L 1269 2991 
Q 1406 3038 1543 3061 
Q 1681 3084 1819 3084 
Q 2600 3084 3056 2656 
Q 3513 2228 3513 1497 
Q 3513 744 3044 326 
Q 2575 -91 1722 -91 
Q 1428 -91 1123 -41 
Q 819 9 494 109 
L 494 744 
Q 775 591 1075 516 
Q 1375 441 1709 441 
Q 2250 441 2565 725 
Q 2881 1009 2881 1497 
Q 2881 1984 2565 2268 
Q 2250 2553 1709 2553 
Q 1456 2553 1204 2497 
Q 953 2441 691 2322 
L 691 4666 
z
" transform="scale(0.015625)"/>
       </defs>
       <use xlink:href="#DejaVuSans-35"/>
       <use xlink:href="#DejaVuSans-30" transform="translate(63.623047 0)"/>
      </g>
     </g>
    </g>
    <g id="ytick_2">
     <g id="line2d_9">
      <g>
       <use xlink:href="#mede950bf5f" x="47.1875" y="210.332774" style="stroke: #000000; stroke-width: 0.8"/>
      </g>
     </g>
     <g id="text_10">
      <!-- 100 -->
      <g transform="translate(21.1 214.131993) scale(0.1 -0.1)">
       <use xlink:href="#DejaVuSans-31"/>
       <use xlink:href="#DejaVuSans-30" transform="translate(63.623047 0)"/>
       <use xlink:href="#DejaVuSans-30" transform="translate(127.246094 0)"/>
      </g>
     </g>
    </g>
    <g id="ytick_3">
     <g id="line2d_10">
      <g>
       <use xlink:href="#mede950bf5f" x="47.1875" y="147.734322" style="stroke: #000000; stroke-width: 0.8"/>
      </g>
     </g>
     <g id="text_11">
      <!-- 150 -->
      <g transform="translate(21.1 151.53354) scale(0.1 -0.1)">
       <use xlink:href="#DejaVuSans-31"/>
       <use xlink:href="#DejaVuSans-35" transform="translate(63.623047 0)"/>
       <use xlink:href="#DejaVuSans-30" transform="translate(127.246094 0)"/>
      </g>
     </g>
    </g>
    <g id="ytick_4">
     <g id="line2d_11">
      <g>
       <use xlink:href="#mede950bf5f" x="47.1875" y="85.135869" style="stroke: #000000; stroke-width: 0.8"/>
      </g>
     </g>
     <g id="text_12">
      <!-- 200 -->
      <g transform="translate(21.1 88.935088) scale(0.1 -0.1)">
       <use xlink:href="#DejaVuSans-32"/>
       <use xlink:href="#DejaVuSans-30" transform="translate(63.623047 0)"/>
       <use xlink:href="#DejaVuSans-30" transform="translate(127.246094 0)"/>
      </g>
     </g>
    </g>
    <g id="ytick_5">
     <g id="line2d_12">
      <g>
       <use xlink:href="#mede950bf5f" x="47.1875" y="22.537417" style="stroke: #000000; stroke-width: 0.8"/>
      </g>
     </g>
     <g id="text_13">
      <!-- 250 -->
      <g transform="translate(21.1 26.336635) scale(0.1 -0.1)">
       <use xlink:href="#DejaVuSans-32"/>
       <use xlink:href="#DejaVuSans-35" transform="translate(63.623047 0)"/>
       <use xlink:href="#DejaVuSans-30" transform="translate(127.246094 0)"/>
      </g>
     </g>
    </g>
    <g id="text_14">
     <!-- bp, $^o$C -->
     <g transform="translate(15 176.17) rotate(-90) scale(0.1 -0.1)">
      <defs>
       <path id="DejaVuSans-62" d="M 3116 1747 
Q 3116 2381 2855 2742 
Q 2594 3103 2138 3103 
Q 1681 3103 1420 2742 
Q 1159 2381 1159 1747 
Q 1159 1113 1420 752 
Q 1681 391 2138 391 
Q 2594 391 2855 752 
Q 3116 1113 3116 1747 
z
M 1159 2969 
Q 1341 3281 1617 3432 
Q 1894 3584 2278 3584 
Q 2916 3584 3314 3078 
Q 3713 2572 3713 1747 
Q 3713 922 3314 415 
Q 2916 -91 2278 -91 
Q 1894 -91 1617 61 
Q 1341 213 1159 525 
L 1159 0 
L 581 0 
L 581 4863 
L 1159 4863 
L 1159 2969 
z
" transform="scale(0.015625)"/>
       <path id="DejaVuSans-70" d="M 1159 525 
L 1159 -1331 
L 581 -1331 
L 581 3500 
L 1159 3500 
L 1159 2969 
Q 1341 3281 1617 3432 
Q 1894 3584 2278 3584 
Q 2916 3584 3314 3078 
Q 3713 2572 3713 1747 
Q 3713 922 3314 415 
Q 2916 -91 2278 -91 
Q 1894 -91 1617 61 
Q 1341 213 1159 525 
z
M 3116 1747 
Q 3116 2381 2855 2742 
Q 2594 3103 2138 3103 
Q 1681 3103 1420 2742 
Q 1159 2381 1159 1747 
Q 1159 1113 1420 752 
Q 1681 391 2138 391 
Q 2594 391 2855 752 
Q 3116 1113 3116 1747 
z
" transform="scale(0.015625)"/>
       <path id="DejaVuSans-Oblique-6f" d="M 1625 -91 
Q 1009 -91 651 289 
Q 294 669 294 1325 
Q 294 1706 417 2101 
Q 541 2497 738 2766 
Q 1047 3184 1428 3384 
Q 1809 3584 2291 3584 
Q 2888 3584 3255 3212 
Q 3622 2841 3622 2241 
Q 3622 1825 3500 1412 
Q 3378 1000 3181 728 
Q 2875 309 2494 109 
Q 2113 -91 1625 -91 
z
M 891 1344 
Q 891 869 1089 633 
Q 1288 397 1691 397 
Q 2269 397 2648 901 
Q 3028 1406 3028 2181 
Q 3028 2634 2825 2865 
Q 2622 3097 2228 3097 
Q 1903 3097 1650 2945 
Q 1397 2794 1197 2484 
Q 1050 2253 970 1956 
Q 891 1659 891 1344 
z
" transform="scale(0.015625)"/>
       <path id="DejaVuSans-43" d="M 4122 4306 
L 4122 3641 
Q 3803 3938 3442 4084 
Q 3081 4231 2675 4231 
Q 1875 4231 1450 3742 
Q 1025 3253 1025 2328 
Q 1025 1406 1450 917 
Q 1875 428 2675 428 
Q 3081 428 3442 575 
Q 3803 722 4122 1019 
L 4122 359 
Q 3791 134 3420 21 
Q 3050 -91 2638 -91 
Q 1578 -91 968 557 
Q 359 1206 359 2328 
Q 359 3453 968 4101 
Q 1578 4750 2638 4750 
Q 3056 4750 3426 4639 
Q 3797 4528 4122 4306 
z
" transform="scale(0.015625)"/>
      </defs>
      <use xlink:href="#DejaVuSans-62" transform="translate(0 0.51875)"/>
      <use xlink:href="#DejaVuSans-70" transform="translate(63.476562 0.51875)"/>
      <use xlink:href="#DejaVuSans-2c" transform="translate(126.953125 0.51875)"/>
      <use xlink:href="#DejaVuSans-20" transform="translate(158.740234 0.51875)"/>
      <use xlink:href="#DejaVuSans-Oblique-6f" transform="translate(191.484375 38.8) scale(0.7)"/>
      <use xlink:href="#DejaVuSans-43" transform="translate(237.045898 0.51875)"/>
     </g>
    </g>
   </g>
   <g id="line2d_13">
    <path d="M 68.929773 264.781462 
L 72.939128 262.521183 
L 76.948483 260.260904 
L 80.957839 258.000626 
L 84.967194 255.740347 
L 88.976549 253.480069 
L 92.985905 251.21979 
L 96.99526 248.959511 
L 101.004615 246.699233 
L 105.013971 244.438954 
L 109.023326 242.178676 
L 113.032681 239.918397 
L 117.042037 237.658118 
L 121.051392 235.39784 
L 125.060747 233.137561 
L 129.070102 230.877283 
L 133.079458 228.617004 
L 137.088813 226.356725 
L 141.098168 224.096447 
L 145.107524 221.836168 
L 149.116879 219.57589 
L 153.126234 217.315611 
L 157.13559 215.055333 
L 161.144945 212.795054 
L 165.1543 210.534775 
L 169.163656 208.274497 
L 173.173011 206.014218 
L 177.182366 203.75394 
L 181.191722 201.493661 
L 185.201077 199.233382 
L 189.210432 196.973104 
L 193.219788 194.712825 
L 197.229143 192.452547 
L 201.238498 190.192268 
L 205.247853 187.931989 
L 209.257209 185.671711 
L 213.266564 183.411432 
L 217.275919 181.151154 
L 221.285275 178.890875 
L 225.29463 176.630596 
L 229.303985 174.370318 
L 233.313341 172.110039 
L 237.322696 169.849761 
L 241.332051 167.589482 
L 245.341407 165.329203 
L 249.350762 163.068925 
L 253.360117 160.808646 
L 257.369473 158.548368 
L 261.378828 156.288089 
L 265.388183 154.027811 
L 269.397539 151.767532 
L 273.406894 149.507253 
L 277.416249 147.246975 
L 281.425604 144.986696 
L 285.43496 142.726418 
L 289.444315 140.466139 
L 293.45367 138.20586 
L 297.463026 135.945582 
L 301.472381 133.685303 
L 305.481736 131.425025 
L 309.491092 129.164746 
L 313.500447 126.904467 
L 317.509802 124.644189 
L 321.519158 122.38391 
L 325.528513 120.123632 
L 329.537868 117.863353 
L 333.547224 115.603074 
L 337.556579 113.342796 
L 341.565934 111.082517 
L 345.57529 108.822239 
L 349.584645 106.56196 
L 353.594 104.301681 
L 357.603355 102.041403 
L 361.612711 99.781124 
L 365.622066 97.520846 
L 369.631421 95.260567 
L 373.640777 93.000289 
L 377.650132 90.74001 
L 381.659487 88.479731 
L 385.668843 86.219453 
L 389.678198 83.959174 
L 393.687553 81.698896 
L 397.696909 79.438617 
L 401.706264 77.178338 
L 405.715619 74.91806 
L 409.724975 72.657781 
L 413.73433 70.397503 
L 417.743685 68.137224 
L 421.753041 65.876945 
L 425.762396 63.616667 
L 429.771751 61.356388 
L 433.781106 59.09611 
L 437.790462 56.835831 
L 441.799817 54.575552 
L 445.809172 52.315274 
L 449.818528 50.054995 
L 453.827883 47.794717 
L 457.837238 45.534438 
L 461.846594 43.274159 
L 465.855949 41.013881 
" clip-path="url(#pb6491b0b12)" style="fill: none; stroke: #1f77b4; stroke-width: 2.25; stroke-linecap: square"/>
   </g>
   <g id="line2d_14">
    <path d="M 195.044387 289.165422 
L 198.162881 286.797247 
L 201.281374 284.429072 
L 204.399867 282.060896 
L 207.518361 279.692721 
L 210.636854 277.324545 
L 213.755347 274.95637 
L 216.873841 272.588194 
L 219.992334 270.220019 
L 223.110827 267.851843 
L 226.229321 265.483668 
L 229.347814 263.115492 
L 232.466307 260.747317 
L 235.584801 258.379142 
L 238.703294 256.010966 
L 241.821787 253.642791 
L 244.940281 251.274615 
L 248.058774 248.90644 
L 251.177267 246.538264 
L 254.295761 244.170089 
L 257.414254 241.801913 
L 260.532747 239.433738 
L 263.651241 237.065562 
L 266.769734 234.697387 
L 269.888227 232.329212 
L 273.006721 229.961036 
L 276.125214 227.592861 
L 279.243707 225.224685 
L 282.362201 222.85651 
L 285.480694 220.488334 
L 288.599187 218.120159 
L 291.717681 215.751983 
L 294.836174 213.383808 
L 297.954667 211.015632 
L 301.073161 208.647457 
L 304.191654 206.279281 
L 307.310147 203.911106 
L 310.428641 201.542931 
L 313.547134 199.174755 
L 316.665627 196.80658 
L 319.784121 194.438404 
L 322.902614 192.070229 
L 326.021107 189.702053 
L 329.139601 187.333878 
L 332.258094 184.965702 
L 335.376587 182.597527 
L 338.495081 180.229351 
L 341.613574 177.861176 
L 344.732067 175.493001 
L 347.850561 173.124825 
L 350.969054 170.75665 
L 354.087547 168.388474 
L 357.206041 166.020299 
L 360.324534 163.652123 
L 363.443027 161.283948 
L 366.561521 158.915772 
L 369.680014 156.547597 
L 372.798507 154.179421 
L 375.917001 151.811246 
L 379.035494 149.443071 
L 382.153987 147.074895 
L 385.272481 144.70672 
L 388.390974 142.338544 
L 391.509467 139.970369 
L 394.627961 137.602193 
L 397.746454 135.234018 
L 400.864947 132.865842 
L 403.983441 130.497667 
L 407.101934 128.129491 
L 410.220427 125.761316 
L 413.338921 123.393141 
L 416.457414 121.024965 
L 419.575907 118.65679 
L 422.694401 116.288614 
L 425.812894 113.920439 
L 428.931387 111.552263 
L 432.049881 109.184088 
L 435.168374 106.815912 
L 438.286867 104.447737 
L 441.405361 102.079561 
L 444.523854 99.711386 
L 447.642347 97.343211 
L 450.760841 94.975035 
L 453.879334 92.60686 
L 456.997827 90.238684 
L 460.116321 87.870509 
L 463.234814 85.502333 
L 466.353307 83.134158 
L 469.471801 80.765982 
L 472.590294 78.397807 
L 475.708787 76.029631 
L 478.827281 73.661456 
L 481.945774 71.293281 
L 485.064267 68.925105 
L 488.182761 66.55693 
L 491.301254 64.188754 
L 494.419747 61.820579 
L 497.538241 59.452403 
L 500.656734 57.084228 
L 503.775227 54.716052 
" clip-path="url(#pb6491b0b12)" style="fill: none; stroke: #ff7f0e; stroke-width: 2.25; stroke-linecap: square"/>
   </g>
   <g id="patch_3">
    <path d="M 47.1875 314.44 
L 47.1875 7.2 
" style="fill: none; stroke: #000000; stroke-width: 0.8; stroke-linejoin: miter; stroke-linecap: square"/>
   </g>
   <g id="patch_4">
    <path d="M 47.1875 314.44 
L 525.5175 314.44 
" style="fill: none; stroke: #000000; stroke-width: 0.8; stroke-linejoin: miter; stroke-linecap: square"/>
   </g>
   <g id="legend_1">
    <g id="patch_5">
     <path d="M 54.1875 59.234375 
L 121.945312 59.234375 
Q 123.945312 59.234375 123.945312 57.234375 
L 123.945312 14.2 
Q 123.945312 12.2 121.945312 12.2 
L 54.1875 12.2 
Q 52.1875 12.2 52.1875 14.2 
L 52.1875 57.234375 
Q 52.1875 59.234375 54.1875 59.234375 
z
" style="fill: #ffffff; opacity: 0.8; stroke: #cccccc; stroke-linejoin: miter"/>
    </g>
    <g id="text_15">
     <!-- type -->
     <g transform="translate(76.896094 23.798437) scale(0.1 -0.1)">
      <defs>
       <path id="DejaVuSans-74" d="M 1172 4494 
L 1172 3500 
L 2356 3500 
L 2356 3053 
L 1172 3053 
L 1172 1153 
Q 1172 725 1289 603 
Q 1406 481 1766 481 
L 2356 481 
L 2356 0 
L 1766 0 
Q 1100 0 847 248 
Q 594 497 594 1153 
L 594 3053 
L 172 3053 
L 172 3500 
L 594 3500 
L 594 4494 
L 1172 4494 
z
" transform="scale(0.015625)"/>
       <path id="DejaVuSans-79" d="M 2059 -325 
Q 1816 -950 1584 -1140 
Q 1353 -1331 966 -1331 
L 506 -1331 
L 506 -850 
L 844 -850 
Q 1081 -850 1212 -737 
Q 1344 -625 1503 -206 
L 1606 56 
L 191 3500 
L 800 3500 
L 1894 763 
L 2988 3500 
L 3597 3500 
L 2059 -325 
z
" transform="scale(0.015625)"/>
       <path id="DejaVuSans-65" d="M 3597 1894 
L 3597 1613 
L 953 1613 
Q 991 1019 1311 708 
Q 1631 397 2203 397 
Q 2534 397 2845 478 
Q 3156 559 3463 722 
L 3463 178 
Q 3153 47 2828 -22 
Q 2503 -91 2169 -91 
Q 1331 -91 842 396 
Q 353 884 353 1716 
Q 353 2575 817 3079 
Q 1281 3584 2069 3584 
Q 2775 3584 3186 3129 
Q 3597 2675 3597 1894 
z
M 3022 2063 
Q 3016 2534 2758 2815 
Q 2500 3097 2075 3097 
Q 1594 3097 1305 2825 
Q 1016 2553 972 2059 
L 3022 2063 
z
" transform="scale(0.015625)"/>
      </defs>
      <use xlink:href="#DejaVuSans-74"/>
      <use xlink:href="#DejaVuSans-79" transform="translate(39.208984 0)"/>
      <use xlink:href="#DejaVuSans-70" transform="translate(98.388672 0)"/>
      <use xlink:href="#DejaVuSans-65" transform="translate(161.865234 0)"/>
     </g>
    </g>
    <g id="PathCollection_3">
     <g>
      <use xlink:href="#m4a022a6ca0" x="66.1875" y="35.851562" style="fill: #1f77b4; fill-opacity: 0.8; stroke: #1f77b4; stroke-opacity: 0.8"/>
     </g>
    </g>
    <g id="text_16">
     <!-- alcohol -->
     <g transform="translate(84.1875 38.476562) scale(0.1 -0.1)">
      <defs>
       <path id="DejaVuSans-61" d="M 2194 1759 
Q 1497 1759 1228 1600 
Q 959 1441 959 1056 
Q 959 750 1161 570 
Q 1363 391 1709 391 
Q 2188 391 2477 730 
Q 2766 1069 2766 1631 
L 2766 1759 
L 2194 1759 
z
M 3341 1997 
L 3341 0 
L 2766 0 
L 2766 531 
Q 2569 213 2275 61 
Q 1981 -91 1556 -91 
Q 1019 -91 701 211 
Q 384 513 384 1019 
Q 384 1609 779 1909 
Q 1175 2209 1959 2209 
L 2766 2209 
L 2766 2266 
Q 2766 2663 2505 2880 
Q 2244 3097 1772 3097 
Q 1472 3097 1187 3025 
Q 903 2953 641 2809 
L 641 3341 
Q 956 3463 1253 3523 
Q 1550 3584 1831 3584 
Q 2591 3584 2966 3190 
Q 3341 2797 3341 1997 
z
" transform="scale(0.015625)"/>
       <path id="DejaVuSans-63" d="M 3122 3366 
L 3122 2828 
Q 2878 2963 2633 3030 
Q 2388 3097 2138 3097 
Q 1578 3097 1268 2742 
Q 959 2388 959 1747 
Q 959 1106 1268 751 
Q 1578 397 2138 397 
Q 2388 397 2633 464 
Q 2878 531 3122 666 
L 3122 134 
Q 2881 22 2623 -34 
Q 2366 -91 2075 -91 
Q 1284 -91 818 406 
Q 353 903 353 1747 
Q 353 2603 823 3093 
Q 1294 3584 2113 3584 
Q 2378 3584 2631 3529 
Q 2884 3475 3122 3366 
z
" transform="scale(0.015625)"/>
       <path id="DejaVuSans-68" d="M 3513 2113 
L 3513 0 
L 2938 0 
L 2938 2094 
Q 2938 2591 2744 2837 
Q 2550 3084 2163 3084 
Q 1697 3084 1428 2787 
Q 1159 2491 1159 1978 
L 1159 0 
L 581 0 
L 581 4863 
L 1159 4863 
L 1159 2956 
Q 1366 3272 1645 3428 
Q 1925 3584 2291 3584 
Q 2894 3584 3203 3211 
Q 3513 2838 3513 2113 
z
" transform="scale(0.015625)"/>
      </defs>
      <use xlink:href="#DejaVuSans-61"/>
      <use xlink:href="#DejaVuSans-6c" transform="translate(61.279297 0)"/>
      <use xlink:href="#DejaVuSans-63" transform="translate(89.0625 0)"/>
      <use xlink:href="#DejaVuSans-6f" transform="translate(144.042969 0)"/>
      <use xlink:href="#DejaVuSans-68" transform="translate(205.224609 0)"/>
      <use xlink:href="#DejaVuSans-6f" transform="translate(268.603516 0)"/>
      <use xlink:href="#DejaVuSans-6c" transform="translate(329.785156 0)"/>
     </g>
    </g>
    <g id="PathCollection_4">
     <g>
      <use xlink:href="#m12021c680c" x="66.1875" y="50.529688" style="fill: #ff7f0e; fill-opacity: 0.8; stroke: #ff7f0e; stroke-opacity: 0.8"/>
     </g>
    </g>
    <g id="text_17">
     <!-- alkane -->
     <g transform="translate(84.1875 53.154688) scale(0.1 -0.1)">
      <defs>
       <path id="DejaVuSans-6b" d="M 581 4863 
L 1159 4863 
L 1159 1991 
L 2875 3500 
L 3609 3500 
L 1753 1863 
L 3688 0 
L 2938 0 
L 1159 1709 
L 1159 0 
L 581 0 
L 581 4863 
z
" transform="scale(0.015625)"/>
       <path id="DejaVuSans-6e" d="M 3513 2113 
L 3513 0 
L 2938 0 
L 2938 2094 
Q 2938 2591 2744 2837 
Q 2550 3084 2163 3084 
Q 1697 3084 1428 2787 
Q 1159 2491 1159 1978 
L 1159 0 
L 581 0 
L 581 3500 
L 1159 3500 
L 1159 2956 
Q 1366 3272 1645 3428 
Q 1925 3584 2291 3584 
Q 2894 3584 3203 3211 
Q 3513 2838 3513 2113 
z
" transform="scale(0.015625)"/>
      </defs>
      <use xlink:href="#DejaVuSans-61"/>
      <use xlink:href="#DejaVuSans-6c" transform="translate(61.279297 0)"/>
      <use xlink:href="#DejaVuSans-6b" transform="translate(89.0625 0)"/>
      <use xlink:href="#DejaVuSans-61" transform="translate(145.222656 0)"/>
      <use xlink:href="#DejaVuSans-6e" transform="translate(206.501953 0)"/>
      <use xlink:href="#DejaVuSans-65" transform="translate(269.880859 0)"/>
     </g>
    </g>
   </g>
  </g>
 </g>
 <defs>
  <clipPath id="pb6491b0b12">
   <rect x="47.1875" y="7.2" width="478.33" height="307.24"/>
  </clipPath>
 </defs>
</svg>