<?xml version="1.0" encoding="utf-8" standalone="no"?>
<!DOCTYPE svg PUBLIC "-//W3C//DTD SVG 1.1//EN"
  "http://www.w3.org/Graphics/SVG/1.1/DTD/svg11.dtd">
<svg xmlns:xlink="http://www.w3.org/1999/xlink" width="413.302812pt" height="297.190125pt" viewBox="0 0 413.302812 297.190125" xmlns="http://www.w3.org/2000/svg" version="1.1">
 <metadata>
  <rdf:RDF xmlns:dc="http://purl.org/dc/elements/1.1/" xmlns:cc="http://creativecommons.org/ns#" xmlns:rdf="http://www.w3.org/1999/02/22-rdf-syntax-ns#">
   <cc:Work>
    <dc:type rdf:resource="http://purl.org/dc/dcmitype/StillImage"/>
    <dc:date>2023-05-06T16:40:02.146145</dc:date>
    <dc:format>image/svg+xml</dc:format>
    <dc:creator>
     <cc:Agent>
      <dc:title>Matplotlib v3.7.1, https://matplotlib.org/</dc:title>
     </cc:Agent>
    </dc:creator>
   </cc:Work>
  </rdf:RDF>
 </metadata>
 <defs>
  <style type="text/css">*{stroke-linejoin: round; stroke-linecap: butt}</style>
 </defs>
 <g id="figure_1">
  <g id="patch_1">
   <path d="M 0 297.190125 
L 413.302812 297.190125 
L 413.302812 0 
L 0 0 
z
" style="fill: #ffffff"/>
  </g>
  <g id="axes_1">
   <g id="patch_2">
    <path d="M 48.982813 273.312 
L 406.102813 273.312 
L 406.102813 7.2 
L 48.982813 7.2 
z
" style="fill: #ffffff"/>
   </g>
   <g id="matplotlib.axis_1">
    <g id="xtick_1">
     <g id="line2d_1">
      <defs>
       <path id="m58de698284" d="M 0 0 
L 0 3.5 
" style="stroke: #000000; stroke-width: 0.8"/>
      </defs>
      <g>
       <use xlink:href="#m58de698284" x="65.052887" y="273.312" style="stroke: #000000; stroke-width: 0.8"/>
      </g>
     </g>
     <g id="text_1">
      <!-- 0 -->
      <g transform="translate(61.871637 287.910437) scale(0.1 -0.1)">
       <defs>
        <path id="DejaVuSans-30" d="M 2034 4250 
Q 1547 4250 1301 3770 
Q 1056 3291 1056 2328 
Q 1056 1369 1301 889 
Q 1547 409 2034 409 
Q 2525 409 2770 889 
Q 3016 1369 3016 2328 
Q 3016 3291 2770 3770 
Q 2525 4250 2034 4250 
z
M 2034 4750 
Q 2819 4750 3233 4129 
Q 3647 3509 3647 2328 
Q 3647 1150 3233 529 
Q 2819 -91 2034 -91 
Q 1250 -91 836 529 
Q 422 1150 422 2328 
Q 422 3509 836 4129 
Q 1250 4750 2034 4750 
z
" transform="scale(0.015625)"/>
       </defs>
       <use xlink:href="#DejaVuSans-30"/>
      </g>
     </g>
    </g>
    <g id="xtick_2">
     <g id="line2d_2">
      <g>
       <use xlink:href="#m58de698284" x="116.775037" y="273.312" style="stroke: #000000; stroke-width: 0.8"/>
      </g>
     </g>
     <g id="text_2">
      <!-- 1 -->
      <g transform="translate(113.593787 287.910437) scale(0.1 -0.1)">
       <defs>
        <path id="DejaVuSans-31" d="M 794 531 
L 1825 531 
L 1825 4091 
L 703 3866 
L 703 4441 
L 1819 4666 
L 2450 4666 
L 2450 531 
L 3481 531 
L 3481 0 
L 794 0 
L 794 531 
z
" transform="scale(0.015625)"/>
       </defs>
       <use xlink:href="#DejaVuSans-31"/>
      </g>
     </g>
    </g>
    <g id="xtick_3">
     <g id="line2d_3">
      <g>
       <use xlink:href="#m58de698284" x="168.497186" y="273.312" style="stroke: #000000; stroke-width: 0.8"/>
      </g>
     </g>
     <g id="text_3">
      <!-- 2 -->
      <g transform="translate(165.315936 287.910437) scale(0.1 -0.1)">
       <defs>
        <path id="DejaVuSans-32" d="M 1228 531 
L 3431 531 
L 3431 0 
L 469 0 
L 469 531 
Q 828 903 1448 1529 
Q 2069 2156 2228 2338 
Q 2531 2678 2651 2914 
Q 2772 3150 2772 3378 
Q 2772 3750 2511 3984 
Q 2250 4219 1831 4219 
Q 1534 4219 1204 4116 
Q 875 4013 500 3803 
L 500 4441 
Q 881 4594 1212 4672 
Q 1544 4750 1819 4750 
Q 2544 4750 2975 4387 
Q 3406 4025 3406 3419 
Q 3406 3131 3298 2873 
Q 3191 2616 2906 2266 
Q 2828 2175 2409 1742 
Q 1991 1309 1228 531 
z
" transform="scale(0.015625)"/>
       </defs>
       <use xlink:href="#DejaVuSans-32"/>
      </g>
     </g>
    </g>
    <g id="xtick_4">
     <g id="line2d_4">
      <g>
       <use xlink:href="#m58de698284" x="220.219336" y="273.312" style="stroke: #000000; stroke-width: 0.8"/>
      </g>
     </g>
     <g id="text_4">
      <!-- 3 -->
      <g transform="translate(217.038086 287.910437) scale(0.1 -0.1)">
       <defs>
        <path id="DejaVuSans-33" d="M 2597 2516 
Q 3050 2419 3304 2112 
Q 3559 1806 3559 1356 
Q 3559 666 3084 287 
Q 2609 -91 1734 -91 
Q 1441 -91 1130 -33 
Q 819 25 488 141 
L 488 750 
Q 750 597 1062 519 
Q 1375 441 1716 441 
Q 2309 441 2620 675 
Q 2931 909 2931 1356 
Q 2931 1769 2642 2001 
Q 2353 2234 1838 2234 
L 1294 2234 
L 1294 2753 
L 1863 2753 
Q 2328 2753 2575 2939 
Q 2822 3125 2822 3475 
Q 2822 3834 2567 4026 
Q 2313 4219 1838 4219 
Q 1578 4219 1281 4162 
Q 984 4106 628 3988 
L 628 4550 
Q 988 4650 1302 4700 
Q 1616 4750 1894 4750 
Q 2613 4750 3031 4423 
Q 3450 4097 3450 3541 
Q 3450 3153 3228 2886 
Q 3006 2619 2597 2516 
z
" transform="scale(0.015625)"/>
       </defs>
       <use xlink:href="#DejaVuSans-33"/>
      </g>
     </g>
    </g>
    <g id="xtick_5">
     <g id="line2d_5">
      <g>
       <use xlink:href="#m58de698284" x="271.941486" y="273.312" style="stroke: #000000; stroke-width: 0.8"/>
      </g>
     </g>
     <g id="text_5">
      <!-- 4 -->
      <g transform="translate(268.760236 287.910437) scale(0.1 -0.1)">
       <defs>
        <path id="DejaVuSans-34" d="M 2419 4116 
L 825 1625 
L 2419 1625 
L 2419 4116 
z
M 2253 4666 
L 3047 4666 
L 3047 1625 
L 3713 1625 
L 3713 1100 
L 3047 1100 
L 3047 0 
L 2419 0 
L 2419 1100 
L 313 1100 
L 313 1709 
L 2253 4666 
z
" transform="scale(0.015625)"/>
       </defs>
       <use xlink:href="#DejaVuSans-34"/>
      </g>
     </g>
    </g>
    <g id="xtick_6">
     <g id="line2d_6">
      <g>
       <use xlink:href="#m58de698284" x="323.663635" y="273.312" style="stroke: #000000; stroke-width: 0.8"/>
      </g>
     </g>
     <g id="text_6">
      <!-- 5 -->
      <g transform="translate(320.482385 287.910437) scale(0.1 -0.1)">
       <defs>
        <path id="DejaVuSans-35" d="M 691 4666 
L 3169 4666 
L 3169 4134 
L 1269 4134 
L 1269 2991 
Q 1406 3038 1543 3061 
Q 1681 3084 1819 3084 
Q 2600 3084 3056 2656 
Q 3513 2228 3513 1497 
Q 3513 744 3044 326 
Q 2575 -91 1722 -91 
Q 1428 -91 1123 -41 
Q 819 9 494 109 
L 494 744 
Q 775 591 1075 516 
Q 1375 441 1709 441 
Q 2250 441 2565 725 
Q 2881 1009 2881 1497 
Q 2881 1984 2565 2268 
Q 2250 2553 1709 2553 
Q 1456 2553 1204 2497 
Q 953 2441 691 2322 
L 691 4666 
z
" transform="scale(0.015625)"/>
       </defs>
       <use xlink:href="#DejaVuSans-35"/>
      </g>
     </g>
    </g>
    <g id="xtick_7">
     <g id="line2d_7">
      <g>
       <use xlink:href="#m58de698284" x="375.385785" y="273.312" style="stroke: #000000; stroke-width: 0.8"/>
      </g>
     </g>
     <g id="text_7">
      <!-- 6 -->
      <g transform="translate(372.204535 287.910437) scale(0.1 -0.1)">
       <defs>
        <path id="DejaVuSans-36" d="M 2113 2584 
Q 1688 2584 1439 2293 
Q 1191 2003 1191 1497 
Q 1191 994 1439 701 
Q 1688 409 2113 409 
Q 2538 409 2786 701 
Q 3034 994 3034 1497 
Q 3034 2003 2786 2293 
Q 2538 2584 2113 2584 
z
M 3366 4563 
L 3366 3988 
Q 3128 4100 2886 4159 
Q 2644 4219 2406 4219 
Q 1781 4219 1451 3797 
Q 1122 3375 1075 2522 
Q 1259 2794 1537 2939 
Q 1816 3084 2150 3084 
Q 2853 3084 3261 2657 
Q 3669 2231 3669 1497 
Q 3669 778 3244 343 
Q 2819 -91 2113 -91 
Q 1303 -91 875 529 
Q 447 1150 447 2328 
Q 447 3434 972 4092 
Q 1497 4750 2381 4750 
Q 2619 4750 2861 4703 
Q 3103 4656 3366 4563 
z
" transform="scale(0.015625)"/>
       </defs>
       <use xlink:href="#DejaVuSans-36"/>
      </g>
     </g>
    </g>
   </g>
   <g id="matplotlib.axis_2">
    <g id="ytick_1">
     <g id="line2d_8">
      <defs>
       <path id="m2befb4e5ea" d="M 0 0 
L -3.5 0 
" style="stroke: #000000; stroke-width: 0.8"/>
      </defs>
      <g>
       <use xlink:href="#m2befb4e5ea" x="48.982813" y="250.315508" style="stroke: #000000; stroke-width: 0.8"/>
      </g>
     </g>
     <g id="text_8">
      <!-- −10 -->
      <g transform="translate(20.878125 254.114726) scale(0.1 -0.1)">
       <defs>
        <path id="DejaVuSans-2212" d="M 678 2272 
L 4684 2272 
L 4684 1741 
L 678 1741 
L 678 2272 
z
" transform="scale(0.015625)"/>
       </defs>
       <use xlink:href="#DejaVuSans-2212"/>
       <use xlink:href="#DejaVuSans-31" x="83.789062"/>
       <use xlink:href="#DejaVuSans-30" x="147.412109"/>
      </g>
     </g>
    </g>
    <g id="ytick_2">
     <g id="line2d_9">
      <g>
       <use xlink:href="#m2befb4e5ea" x="48.982813" y="195.780209" style="stroke: #000000; stroke-width: 0.8"/>
      </g>
     </g>
     <g id="text_9">
      <!-- −5 -->
      <g transform="translate(27.240625 199.579428) scale(0.1 -0.1)">
       <use xlink:href="#DejaVuSans-2212"/>
       <use xlink:href="#DejaVuSans-35" x="83.789062"/>
      </g>
     </g>
    </g>
    <g id="ytick_3">
     <g id="line2d_10">
      <g>
       <use xlink:href="#m2befb4e5ea" x="48.982813" y="141.244911" style="stroke: #000000; stroke-width: 0.8"/>
      </g>
     </g>
     <g id="text_10">
      <!-- 0 -->
      <g transform="translate(35.620313 145.04413) scale(0.1 -0.1)">
       <use xlink:href="#DejaVuSans-30"/>
      </g>
     </g>
    </g>
    <g id="ytick_4">
     <g id="line2d_11">
      <g>
       <use xlink:href="#m2befb4e5ea" x="48.982813" y="86.709612" style="stroke: #000000; stroke-width: 0.8"/>
      </g>
     </g>
     <g id="text_11">
      <!-- 5 -->
      <g transform="translate(35.620313 90.508831) scale(0.1 -0.1)">
       <use xlink:href="#DejaVuSans-35"/>
      </g>
     </g>
    </g>
    <g id="ytick_5">
     <g id="line2d_12">
      <g>
       <use xlink:href="#m2befb4e5ea" x="48.982813" y="32.174314" style="stroke: #000000; stroke-width: 0.8"/>
      </g>
     </g>
     <g id="text_12">
      <!-- 10 -->
      <g transform="translate(29.257813 35.973533) scale(0.1 -0.1)">
       <use xlink:href="#DejaVuSans-31"/>
       <use xlink:href="#DejaVuSans-30" x="63.623047"/>
      </g>
     </g>
    </g>
    <g id="text_13">
     <!-- Slope, dy/dx -->
     <g transform="translate(14.798438 171.259125) rotate(-90) scale(0.1 -0.1)">
      <defs>
       <path id="DejaVuSans-53" d="M 3425 4513 
L 3425 3897 
Q 3066 4069 2747 4153 
Q 2428 4238 2131 4238 
Q 1616 4238 1336 4038 
Q 1056 3838 1056 3469 
Q 1056 3159 1242 3001 
Q 1428 2844 1947 2747 
L 2328 2669 
Q 3034 2534 3370 2195 
Q 3706 1856 3706 1288 
Q 3706 609 3251 259 
Q 2797 -91 1919 -91 
Q 1588 -91 1214 -16 
Q 841 59 441 206 
L 441 856 
Q 825 641 1194 531 
Q 1563 422 1919 422 
Q 2459 422 2753 634 
Q 3047 847 3047 1241 
Q 3047 1584 2836 1778 
Q 2625 1972 2144 2069 
L 1759 2144 
Q 1053 2284 737 2584 
Q 422 2884 422 3419 
Q 422 4038 858 4394 
Q 1294 4750 2059 4750 
Q 2388 4750 2728 4690 
Q 3069 4631 3425 4513 
z
" transform="scale(0.015625)"/>
       <path id="DejaVuSans-6c" d="M 603 4863 
L 1178 4863 
L 1178 0 
L 603 0 
L 603 4863 
z
" transform="scale(0.015625)"/>
       <path id="DejaVuSans-6f" d="M 1959 3097 
Q 1497 3097 1228 2736 
Q 959 2375 959 1747 
Q 959 1119 1226 758 
Q 1494 397 1959 397 
Q 2419 397 2687 759 
Q 2956 1122 2956 1747 
Q 2956 2369 2687 2733 
Q 2419 3097 1959 3097 
z
M 1959 3584 
Q 2709 3584 3137 3096 
Q 3566 2609 3566 1747 
Q 3566 888 3137 398 
Q 2709 -91 1959 -91 
Q 1206 -91 779 398 
Q 353 888 353 1747 
Q 353 2609 779 3096 
Q 1206 3584 1959 3584 
z
" transform="scale(0.015625)"/>
       <path id="DejaVuSans-70" d="M 1159 525 
L 1159 -1331 
L 581 -1331 
L 581 3500 
L 1159 3500 
L 1159 2969 
Q 1341 3281 1617 3432 
Q 1894 3584 2278 3584 
Q 2916 3584 3314 3078 
Q 3713 2572 3713 1747 
Q 3713 922 3314 415 
Q 2916 -91 2278 -91 
Q 1894 -91 1617 61 
Q 1341 213 1159 525 
z
M 3116 1747 
Q 3116 2381 2855 2742 
Q 2594 3103 2138 3103 
Q 1681 3103 1420 2742 
Q 1159 2381 1159 1747 
Q 1159 1113 1420 752 
Q 1681 391 2138 391 
Q 2594 391 2855 752 
Q 3116 1113 3116 1747 
z
" transform="scale(0.015625)"/>
       <path id="DejaVuSans-65" d="M 3597 1894 
L 3597 1613 
L 953 1613 
Q 991 1019 1311 708 
Q 1631 397 2203 397 
Q 2534 397 2845 478 
Q 3156 559 3463 722 
L 3463 178 
Q 3153 47 2828 -22 
Q 2503 -91 2169 -91 
Q 1331 -91 842 396 
Q 353 884 353 1716 
Q 353 2575 817 3079 
Q 1281 3584 2069 3584 
Q 2775 3584 3186 3129 
Q 3597 2675 3597 1894 
z
M 3022 2063 
Q 3016 2534 2758 2815 
Q 2500 3097 2075 3097 
Q 1594 3097 1305 2825 
Q 1016 2553 972 2059 
L 3022 2063 
z
" transform="scale(0.015625)"/>
       <path id="DejaVuSans-2c" d="M 750 794 
L 1409 794 
L 1409 256 
L 897 -744 
L 494 -744 
L 750 256 
L 750 794 
z
" transform="scale(0.015625)"/>
       <path id="DejaVuSans-20" transform="scale(0.015625)"/>
       <path id="DejaVuSans-64" d="M 2906 2969 
L 2906 4863 
L 3481 4863 
L 3481 0 
L 2906 0 
L 2906 525 
Q 2725 213 2448 61 
Q 2172 -91 1784 -91 
Q 1150 -91 751 415 
Q 353 922 353 1747 
Q 353 2572 751 3078 
Q 1150 3584 1784 3584 
Q 2172 3584 2448 3432 
Q 2725 3281 2906 2969 
z
M 947 1747 
Q 947 1113 1208 752 
Q 1469 391 1925 391 
Q 2381 391 2643 752 
Q 2906 1113 2906 1747 
Q 2906 2381 2643 2742 
Q 2381 3103 1925 3103 
Q 1469 3103 1208 2742 
Q 947 2381 947 1747 
z
" transform="scale(0.015625)"/>
       <path id="DejaVuSans-79" d="M 2059 -325 
Q 1816 -950 1584 -1140 
Q 1353 -1331 966 -1331 
L 506 -1331 
L 506 -850 
L 844 -850 
Q 1081 -850 1212 -737 
Q 1344 -625 1503 -206 
L 1606 56 
L 191 3500 
L 800 3500 
L 1894 763 
L 2988 3500 
L 3597 3500 
L 2059 -325 
z
" transform="scale(0.015625)"/>
       <path id="DejaVuSans-2f" d="M 1625 4666 
L 2156 4666 
L 531 -594 
L 0 -594 
L 1625 4666 
z
" transform="scale(0.015625)"/>
       <path id="DejaVuSans-78" d="M 3513 3500 
L 2247 1797 
L 3578 0 
L 2900 0 
L 1881 1375 
L 863 0 
L 184 0 
L 1544 1831 
L 300 3500 
L 978 3500 
L 1906 2253 
L 2834 3500 
L 3513 3500 
z
" transform="scale(0.015625)"/>
      </defs>
      <use xlink:href="#DejaVuSans-53"/>
      <use xlink:href="#DejaVuSans-6c" x="63.476562"/>
      <use xlink:href="#DejaVuSans-6f" x="91.259766"/>
      <use xlink:href="#DejaVuSans-70" x="152.441406"/>
      <use xlink:href="#DejaVuSans-65" x="215.917969"/>
      <use xlink:href="#DejaVuSans-2c" x="277.441406"/>
      <use xlink:href="#DejaVuSans-20" x="309.228516"/>
      <use xlink:href="#DejaVuSans-64" x="341.015625"/>
      <use xlink:href="#DejaVuSans-79" x="404.492188"/>
      <use xlink:href="#DejaVuSans-2f" x="463.671875"/>
      <use xlink:href="#DejaVuSans-64" x="497.363281"/>
      <use xlink:href="#DejaVuSans-78" x="560.839844"/>
     </g>
    </g>
   </g>
   <g id="line2d_13">
    <path d="M 65.21554 118.836195 
L 65.540845 74.750152 
L 65.86615 224.527836 
L 66.191455 43.195128 
L 66.51676 139.66662 
L 66.842066 104.588572 
L 67.167371 147.817152 
L 67.492676 96.932559 
L 67.817981 219.331635 
L 68.143286 120.090108 
L 68.468591 110.866611 
L 68.793896 87.018768 
L 69.119202 167.23244 
L 69.769812 113.273608 
L 70.095117 106.443807 
L 70.420422 155.070778 
L 70.745727 175.952658 
L 71.071033 162.068556 
L 71.396338 75.110123 
L 71.721643 185.673556 
L 72.372253 65.484664 
L 72.697558 115.574201 
L 73.348169 124.151647 
L 73.673474 174.429885 
L 73.998779 173.790297 
L 74.324084 46.474891 
L 74.649389 171.010853 
L 74.974694 90.806284 
L 75.3 168.91879 
L 75.625305 169.377346 
L 75.95061 48.597012 
L 76.275915 223.463358 
L 76.60122 97.595945 
L 76.926525 113.221431 
L 77.251831 182.611461 
L 77.577136 138.25667 
L 77.902441 118.308655 
L 78.227746 83.886434 
L 78.553051 99.899165 
L 79.203661 180.785243 
L 79.528967 156.985439 
L 79.854272 34.543611 
L 80.179577 210.011639 
L 80.504882 48.018178 
L 80.830187 224.439407 
L 81.155492 112.579448 
L 81.480798 105.364493 
L 81.806103 116.800932 
L 82.131408 197.136966 
L 82.456713 126.131877 
L 82.782018 108.223944 
L 83.107323 140.02997 
L 83.432628 35.630431 
L 83.757934 176.041996 
L 84.083239 190.001174 
L 84.408544 59.242309 
L 84.733849 106.032272 
L 85.059154 206.656262 
L 85.384459 154.253398 
L 85.709765 82.494324 
L 86.03507 189.187482 
L 86.360375 55.972543 
L 86.68568 195.477249 
L 87.010985 105.709776 
L 87.33629 145.041972 
L 87.661596 135.830069 
L 87.986901 39.491607 
L 88.312206 148.762468 
L 88.637511 128.193865 
L 88.962816 192.461398 
L 89.288121 145.713852 
L 89.613426 41.742112 
L 89.938732 133.083638 
L 90.264037 172.147247 
L 90.589342 124.343976 
L 90.914647 131.243703 
L 91.239952 130.751662 
L 91.565257 141.709777 
L 91.890563 81.039759 
L 92.215868 228.369291 
L 92.541173 85.716261 
L 92.866478 162.40556 
L 93.191783 69.823117 
L 93.517088 142.1651 
L 93.842393 122.395598 
L 94.167699 200.753437 
L 94.493004 89.871082 
L 94.818309 123.441949 
L 95.143614 189.827025 
L 95.468919 38.59364 
L 96.11953 207.192136 
L 96.444835 89.18005 
L 96.77014 162.538939 
L 97.095445 69.764869 
L 97.42075 229.851305 
L 97.746055 98.752809 
L 98.071361 94.248355 
L 98.396666 174.904753 
L 98.721971 170.682984 
L 99.047276 29.172799 
L 99.372581 155.065587 
L 99.697886 181.671293 
L 100.023191 124.705078 
L 100.348497 152.483536 
L 100.673802 146.335183 
L 100.999107 112.998359 
L 101.324412 117.49638 
L 101.649717 183.572862 
L 101.975022 92.964689 
L 102.300328 164.931699 
L 102.625633 42.586336 
L 102.950938 172.696673 
L 103.276243 146.729189 
L 103.601548 161.200805 
L 103.926853 123.305737 
L 104.252158 123.305471 
L 104.577464 136.371593 
L 105.228074 94.605726 
L 106.203989 180.378948 
L 106.529295 57.62262 
L 106.8546 168.069023 
L 107.179905 130.274533 
L 107.50521 193.727731 
L 107.830515 74.724311 
L 108.15582 215.454089 
L 108.481125 75.510619 
L 109.131736 163.124868 
L 109.457041 160.950791 
L 109.782346 113.039137 
L 110.107651 145.171216 
L 110.432956 92.083716 
L 110.758262 132.007923 
L 111.083567 102.337918 
L 111.408872 181.525829 
L 111.734177 158.176387 
L 112.384787 85.039134 
L 112.710093 134.390827 
L 113.035398 206.714314 
L 113.360703 63.24264 
L 113.686008 149.677372 
L 114.011313 194.413726 
L 114.336618 48.446309 
L 114.661923 231.028759 
L 114.987229 92.910338 
L 115.312534 168.287584 
L 115.637839 138.099952 
L 115.963144 78.848154 
L 116.288449 153.837073 
L 116.613754 83.963586 
L 116.93906 215.279945 
L 117.264365 141.427853 
L 117.58967 112.989774 
L 117.914975 142.827709 
L 118.24028 62.956754 
L 118.565585 222.474176 
L 118.89089 97.594288 
L 119.216196 144.223155 
L 119.541501 92.643091 
L 119.866806 172.230821 
L 120.192111 153.658602 
L 120.517416 93.669272 
L 120.842721 157.208135 
L 121.168027 154.22728 
L 121.493332 184.955659 
L 121.818637 42.592377 
L 122.143942 187.581105 
L 122.469247 101.270698 
L 122.794552 212.798284 
L 123.119857 57.246232 
L 123.445163 174.653847 
L 123.770468 110.574602 
L 124.421078 183.473204 
L 124.746383 70.052563 
L 125.071688 121.080723 
L 125.396994 214.899189 
L 125.722299 45.715687 
L 126.047604 235.39886 
L 126.372909 64.761087 
L 126.698214 150.678001 
L 127.023519 109.379006 
L 127.348825 225.279729 
L 127.67413 86.586483 
L 127.999435 114.72768 
L 128.32474 128.471253 
L 128.650045 179.601169 
L 129.300655 107.46744 
L 129.625961 185.061088 
L 129.951266 107.798227 
L 130.276571 146.979175 
L 130.601876 103.310445 
L 130.927181 159.492707 
L 131.252486 81.488764 
L 131.577792 243.636739 
L 131.903097 134.087947 
L 132.228402 65.623355 
L 132.553707 145.095537 
L 132.879012 99.105705 
L 133.204317 195.798292 
L 133.529622 89.95576 
L 133.854928 194.756899 
L 134.180233 74.864395 
L 134.505538 138.229393 
L 134.830843 171.486116 
L 135.156148 164.30993 
L 135.481453 112.489407 
L 135.806759 148.145792 
L 136.132064 153.27029 
L 136.457369 173.48735 
L 136.782674 73.691111 
L 137.107979 124.375472 
L 137.433284 193.025167 
L 137.75859 123.442766 
L 138.083895 126.460414 
L 138.4092 178.356853 
L 138.734505 79.195019 
L 139.05981 204.667192 
L 139.385115 104.438521 
L 139.71042 201.527239 
L 140.035726 153.851853 
L 140.361031 70.586943 
L 140.686336 178.872723 
L 141.011641 104.585066 
L 141.336946 125.488681 
L 141.662251 123.178657 
L 141.987557 203.173671 
L 142.312862 174.81875 
L 142.638167 134.681767 
L 143.288777 90.719339 
L 143.614082 230.654798 
L 143.939387 35.936244 
L 144.264693 195.610328 
L 144.589998 120.991498 
L 144.915303 152.138743 
L 145.240608 140.989863 
L 145.565913 168.818885 
L 145.891218 63.596338 
L 146.216524 184.762237 
L 146.541829 129.042243 
L 146.867134 140.211471 
L 147.192439 220.649689 
L 147.517744 35.206886 
L 147.843049 224.338278 
L 148.168354 88.789466 
L 148.818965 160.1088 
L 149.14427 186.987512 
L 149.469575 117.173883 
L 149.79488 83.322332 
L 150.120185 192.707489 
L 150.445491 186.103962 
L 150.770796 42.316604 
L 151.096101 233.93663 
L 151.421406 97.23617 
L 151.746711 191.975897 
L 152.072016 49.486477 
L 152.397322 230.128681 
L 152.722627 92.735621 
L 153.047932 111.578379 
L 153.373237 184.703532 
L 153.698542 172.967793 
L 154.023847 123.18302 
L 154.349152 118.177771 
L 154.674458 153.216786 
L 154.999763 126.197403 
L 155.325068 177.56378 
L 155.650373 180.042853 
L 155.975678 63.444149 
L 156.300983 118.015932 
L 156.626289 197.881767 
L 156.951594 189.641155 
L 157.276899 74.724537 
L 157.602204 195.921301 
L 157.927509 65.78874 
L 158.252814 188.960081 
L 158.578119 153.683954 
L 158.903425 81.568434 
L 159.22873 171.562426 
L 159.554035 168.410462 
L 159.87934 203.953467 
L 160.204645 55.620781 
L 160.855256 228.000378 
L 161.180561 79.010541 
L 161.505866 215.135843 
L 161.831171 50.09209 
L 162.156476 164.746705 
L 162.481781 214.198342 
L 162.807087 95.212267 
L 163.132392 143.962107 
L 163.457697 128.302295 
L 163.783002 143.835924 
L 164.108307 142.189981 
L 164.433612 124.720096 
L 164.758917 194.418945 
L 165.084223 87.166689 
L 165.734833 203.567317 
L 166.060138 111.450279 
L 166.385443 217.709513 
L 167.036054 52.851657 
L 167.361359 214.884826 
L 167.686664 191.524018 
L 168.011969 139.437915 
L 168.337274 125.484574 
L 168.662579 161.594402 
L 168.987884 138.229621 
L 169.31319 73.207753 
L 169.638495 133.165664 
L 169.9638 142.11844 
L 170.289105 217.487186 
L 170.61441 182.866828 
L 170.939715 62.493141 
L 171.265021 198.600712 
L 171.590326 150.227498 
L 171.915631 122.854065 
L 172.240936 165.675016 
L 172.566241 72.36932 
L 172.891546 225.204631 
L 173.216851 142.041427 
L 173.542157 89.451732 
L 173.867462 212.208846 
L 174.192767 109.589564 
L 174.518072 102.001785 
L 174.843377 178.203152 
L 175.168682 138.559383 
L 175.493988 162.711505 
L 175.819293 151.592683 
L 176.144598 93.288854 
L 176.469903 230.681343 
L 176.795208 123.478932 
L 177.120513 116.80587 
L 177.445819 233.537713 
L 177.771124 78.830108 
L 178.096429 138.895211 
L 178.421734 112.692748 
L 178.747039 189.5384 
L 179.072344 205.429084 
L 179.397649 63.808977 
L 179.722955 204.974733 
L 180.04826 160.630202 
L 180.373565 66.166541 
L 180.69887 162.791105 
L 181.024175 160.640553 
L 181.34948 129.573519 
L 181.674786 142.435181 
L 182.000091 212.771187 
L 182.325396 126.007692 
L 182.650701 163.612438 
L 182.976006 105.557127 
L 183.301311 148.038527 
L 183.626616 205.709931 
L 183.951922 125.833421 
L 184.277227 192.885091 
L 184.602532 158.031677 
L 184.927837 83.020538 
L 185.253142 134.611758 
L 185.578447 155.206496 
L 185.903753 112.327457 
L 186.229058 227.234099 
L 186.554363 125.595564 
L 186.879668 175.853072 
L 187.530278 82.630563 
L 187.855583 217.219746 
L 188.180889 153.18556 
L 188.506194 179.748962 
L 188.831499 85.357269 
L 189.156804 177.847166 
L 189.482109 122.31386 
L 189.807414 145.818487 
L 190.13272 220.834157 
L 190.458025 147.014225 
L 190.78333 135.033712 
L 191.108635 63.501998 
L 191.43394 181.15645 
L 191.759245 204.8982 
L 192.084551 137.305972 
L 192.409856 131.973353 
L 192.735161 107.159498 
L 193.060466 230.403023 
L 193.385771 80.695294 
L 193.711076 200.286144 
L 194.036381 129.129874 
L 194.361687 165.253498 
L 194.686992 110.520307 
L 195.012297 111.233971 
L 195.337602 261.216 
L 195.662907 112.745799 
L 195.988212 95.228551 
L 196.313518 236.963802 
L 196.638823 149.033003 
L 196.964128 136.39328 
L 197.289433 58.582924 
L 197.614738 184.779606 
L 197.940043 195.655972 
L 198.265348 120.590102 
L 198.590654 124.482541 
L 198.915959 193.631942 
L 199.241264 120.763628 
L 199.566569 188.599096 
L 199.891874 80.689607 
L 200.217179 181.776023 
L 200.542485 232.347018 
L 200.86779 104.348313 
L 201.193095 89.225172 
L 201.5184 183.811004 
L 201.843705 225.11186 
L 202.16901 122.707433 
L 202.494316 120.409546 
L 202.819621 93.817866 
L 203.470231 239.57055 
L 203.795536 68.125632 
L 204.120841 234.368189 
L 204.771452 80.226237 
L 205.096757 129.465546 
L 205.422062 154.252578 
L 205.747367 220.510898 
L 206.072672 54.172559 
L 206.397977 163.179576 
L 206.723283 234.812664 
L 207.048588 90.236627 
L 207.373893 210.915767 
L 207.699198 115.292422 
L 208.024503 173.925344 
L 208.349808 83.377773 
L 208.675113 201.153704 
L 209.000419 191.977539 
L 209.325724 93.825633 
L 209.651029 152.199322 
L 209.976334 112.038928 
L 210.301639 248.535387 
L 210.95225 89.159489 
L 211.277555 110.572141 
L 211.60286 173.538637 
L 211.928165 190.108827 
L 212.578775 89.853621 
L 212.90408 189.810502 
L 213.229386 117.502971 
L 213.879996 223.440211 
L 214.205301 113.07709 
L 214.530606 116.266869 
L 214.855911 191.275636 
L 215.181217 101.111421 
L 215.506522 158.777811 
L 215.831827 196.392666 
L 216.157132 162.166453 
L 216.482437 172.15256 
L 217.133048 79.813041 
L 217.458353 197.736171 
L 217.783658 159.562057 
L 218.108963 134.47686 
L 218.434268 136.393628 
L 218.759573 214.009412 
L 219.084878 155.101106 
L 219.410184 133.56526 
L 219.735489 166.491488 
L 220.386099 96.282389 
L 221.036709 222.931292 
L 221.362015 68.973936 
L 222.012625 230.278876 
L 222.33793 77.840348 
L 222.98854 232.461416 
L 223.313845 115.184468 
L 223.639151 119.763115 
L 223.964456 146.727024 
L 224.289761 239.088359 
L 224.615066 155.19057 
L 224.940371 146.278717 
L 225.265676 103.071354 
L 225.590982 168.843552 
L 225.916287 79.279569 
L 226.241592 184.831749 
L 226.566897 164.532009 
L 226.892202 180.506494 
L 227.217507 190.121004 
L 227.542813 133.347979 
L 227.868118 123.464068 
L 228.193423 176.266941 
L 228.518728 172.997906 
L 228.844033 156.680216 
L 229.169338 53.114687 
L 229.494643 197.17749 
L 229.819949 187.137749 
L 230.145254 133.811668 
L 230.470559 161.983737 
L 230.795864 85.725088 
L 231.121169 175.154384 
L 231.446474 146.418444 
L 231.77178 198.193913 
L 232.097085 183.542452 
L 232.42239 83.131645 
L 232.747695 162.668465 
L 233.073 131.179006 
L 233.398305 191.657939 
L 233.72361 179.663576 
L 234.048916 162.590026 
L 234.374221 75.360278 
L 234.699526 181.868949 
L 235.024831 127.414256 
L 235.350136 117.46772 
L 236.000747 219.76827 
L 236.326052 77.824297 
L 236.651357 192.166272 
L 236.976662 142.869595 
L 237.301967 115.498529 
L 237.627272 213.920263 
L 237.952577 101.677147 
L 238.277883 214.788556 
L 238.603188 71.957831 
L 238.928493 232.517662 
L 239.579103 95.952726 
L 239.904408 145.000264 
L 240.229714 143.033032 
L 240.555019 132.322324 
L 240.880324 187.451775 
L 241.205629 126.371451 
L 241.530934 224.541568 
L 241.856239 97.282207 
L 242.181545 187.454445 
L 242.50685 177.18559 
L 242.832155 99.305699 
L 243.15746 210.363572 
L 243.482765 91.545576 
L 243.80807 195.910248 
L 244.133375 113.731041 
L 244.458681 172.160633 
L 244.783986 125.668082 
L 245.109291 151.583444 
L 245.434596 136.072387 
L 245.759901 155.65507 
L 246.085206 225.006813 
L 246.410512 77.664082 
L 246.735817 205.663472 
L 247.061122 111.32274 
L 247.386427 197.052351 
L 247.711732 88.374702 
L 248.037037 166.177807 
L 248.362342 146.790458 
L 248.687648 137.189806 
L 249.012953 183.211988 
L 249.338258 189.387345 
L 249.663563 95.51349 
L 249.988868 185.632292 
L 250.314173 141.484859 
L 250.639479 136.089072 
L 250.964784 109.966541 
L 251.290089 164.505898 
L 251.615394 132.351715 
L 251.940699 208.768714 
L 252.266004 88.366317 
L 252.916615 215.752825 
L 253.24192 73.782703 
L 253.567225 199.004499 
L 253.89253 161.242093 
L 254.217835 96.242672 
L 254.54314 198.008643 
L 254.868446 107.540117 
L 255.519056 207.919753 
L 255.844361 133.20524 
L 256.169666 198.76003 
L 256.494971 134.229258 
L 256.820277 131.496595 
L 257.145582 173.68111 
L 257.470887 55.460594 
L 257.796192 230.980891 
L 258.121497 133.684268 
L 258.446802 186.848969 
L 258.772107 68.74841 
L 259.097413 152.324028 
L 259.422718 189.94615 
L 259.748023 135.157207 
L 260.073328 136.732856 
L 260.398633 153.734391 
L 260.723938 179.813583 
L 261.049244 111.649674 
L 261.374549 221.469167 
L 261.699854 100.190941 
L 262.025159 203.522008 
L 262.350464 105.92081 
L 262.675769 137.909246 
L 263.001074 116.27985 
L 263.32638 153.326326 
L 263.651685 204.668654 
L 263.97699 166.6603 
L 264.302295 84.028686 
L 264.6276 208.428531 
L 264.952905 129.154294 
L 265.278211 152.090021 
L 265.603516 84.92638 
L 265.928821 147.898528 
L 266.254126 244.70124 
L 266.579431 124.804987 
L 266.904736 113.328463 
L 267.230042 192.927353 
L 267.555347 176.937542 
L 267.880652 115.308001 
L 268.205957 80.615434 
L 268.856567 201.269483 
L 269.181872 158.283135 
L 269.507178 156.723955 
L 269.832483 95.615347 
L 270.157788 188.636426 
L 270.483093 197.791861 
L 270.808398 43.564737 
L 271.133703 156.814644 
L 271.459009 216.571764 
L 271.784314 127.629677 
L 272.109619 94.127387 
L 272.434924 225.878881 
L 272.760229 67.230445 
L 273.085534 218.338613 
L 273.410839 143.333157 
L 273.736145 97.643086 
L 274.06145 153.269813 
L 274.386755 185.690423 
L 274.71206 114.56402 
L 275.037365 239.814078 
L 275.687976 47.244823 
L 276.013281 146.747598 
L 276.338586 190.130908 
L 276.663891 192.879662 
L 276.989196 57.500573 
L 277.314501 197.931169 
L 277.639806 207.330392 
L 277.965112 40.521095 
L 278.290417 189.954767 
L 278.615722 192.971841 
L 278.941027 119.961653 
L 279.266332 163.984161 
L 279.591637 161.383065 
L 279.916943 90.392384 
L 280.567553 155.863816 
L 280.892858 155.393657 
L 281.218163 213.789886 
L 281.543468 141.211024 
L 281.868774 158.924842 
L 282.194079 77.56388 
L 282.519384 105.980544 
L 282.844689 180.724917 
L 283.169994 218.77214 
L 283.495299 51.503845 
L 283.820604 198.464295 
L 284.14591 78.916316 
L 284.471215 164.917204 
L 284.79652 197.787773 
L 285.121825 90.577001 
L 285.44713 234.24679 
L 285.772435 131.019578 
L 286.097741 68.152243 
L 286.423046 157.267575 
L 286.748351 186.28093 
L 287.073656 94.181739 
L 287.398961 206.696904 
L 287.724266 138.649847 
L 288.049571 119.966995 
L 288.700182 195.877868 
L 289.025487 160.363 
L 289.350792 49.973963 
L 289.676097 181.812467 
L 290.001402 144.509671 
L 290.326708 121.83883 
L 290.652013 204.268621 
L 290.977318 104.566488 
L 291.302623 203.479324 
L 291.627928 144.944999 
L 291.953233 142.335514 
L 292.603844 110.253925 
L 292.929149 205.926452 
L 293.254454 129.004212 
L 293.579759 139.30239 
L 293.905064 78.463723 
L 294.230369 214.631793 
L 294.555675 150.803912 
L 294.88098 111.993577 
L 295.206285 101.771659 
L 295.53159 183.804413 
L 295.856895 96.345814 
L 296.1822 159.590114 
L 296.507506 182.699519 
L 297.158116 120.806102 
L 297.483421 104.982867 
L 297.808726 189.102152 
L 298.134031 116.612081 
L 298.459336 105.785224 
L 298.784642 234.298762 
L 299.109947 84.583547 
L 299.435252 152.463828 
L 299.760557 168.665917 
L 300.085862 167.890064 
L 300.411167 108.462626 
L 300.736473 108.909935 
L 301.387083 168.884187 
L 301.712388 124.72302 
L 302.037693 155.537182 
L 302.362998 114.431519 
L 302.688303 144.523129 
L 303.013609 226.405131 
L 303.338914 90.513493 
L 303.664219 130.427473 
L 303.989524 189.062199 
L 304.314829 115.673983 
L 304.640134 163.962725 
L 304.96544 65.785023 
L 305.290745 233.432908 
L 305.61605 75.54566 
L 305.941355 122.504629 
L 306.26666 204.269459 
L 306.591965 72.570897 
L 307.242576 211.889323 
L 307.567881 96.739695 
L 307.893186 140.183977 
L 308.543796 189.127824 
L 308.869101 48.828857 
L 309.194407 178.688806 
L 309.519712 154.506211 
L 309.845017 200.082465 
L 310.170322 41.697298 
L 310.495627 226.259152 
L 310.820932 46.592318 
L 311.146238 231.535734 
L 311.471543 102.051634 
L 311.796848 78.600892 
L 312.122153 190.111942 
L 312.447458 113.447659 
L 312.772763 148.789357 
L 313.098068 140.759855 
L 313.423374 156.9229 
L 313.748679 198.479329 
L 314.073984 81.558388 
L 314.399289 119.212508 
L 314.724594 113.433897 
L 315.049899 176.760903 
L 315.375205 115.22628 
L 315.70051 224.661182 
L 316.025815 116.671601 
L 316.35112 63.892314 
L 316.676425 172.728808 
L 317.00173 169.969323 
L 317.327035 121.323282 
L 317.652341 158.775888 
L 317.977646 118.503299 
L 318.302951 102.682388 
L 318.628256 134.899104 
L 318.953561 199.519623 
L 319.278866 131.526683 
L 319.929477 173.462339 
L 320.254782 98.059722 
L 320.580087 127.024754 
L 320.905392 136.509728 
L 321.230697 114.236202 
L 321.556003 177.276751 
L 321.881308 163.224065 
L 322.206613 126.193898 
L 322.531918 69.505676 
L 322.857223 231.399598 
L 323.182528 43.002039 
L 323.507833 240.519491 
L 323.833139 26.953813 
L 324.158444 194.41517 
L 324.483749 94.706439 
L 324.809054 142.396493 
L 325.134359 141.127249 
L 325.459664 181.701244 
L 325.78497 136.811498 
L 326.110275 140.004582 
L 326.43558 133.178983 
L 326.760885 176.334662 
L 327.08619 41.563454 
L 327.411495 185.344379 
L 327.7368 146.87762 
L 328.062106 79.738483 
L 328.387411 207.276892 
L 328.712716 103.371251 
L 329.363326 144.08274 
L 329.688631 212.221817 
L 330.013937 113.234188 
L 330.339242 151.653261 
L 330.664547 150.906139 
L 330.989852 96.34785 
L 331.315157 111.718372 
L 331.640462 186.733146 
L 331.965768 70.907249 
L 332.291073 118.617288 
L 332.616378 202.71678 
L 332.941683 165.461412 
L 333.266988 23.376833 
L 333.592293 155.922101 
L 333.917598 193.722448 
L 334.242904 130.173294 
L 334.568209 117.159538 
L 334.893514 82.210154 
L 335.218819 195.910423 
L 335.544124 108.527224 
L 335.869429 144.360044 
L 336.194735 113.991509 
L 336.52004 115.042112 
L 336.845345 178.793599 
L 337.17065 181.099693 
L 337.495955 82.141954 
L 337.82126 181.234792 
L 338.146565 140.731573 
L 338.471871 140.04498 
L 338.797176 74.162307 
L 339.447786 208.063414 
L 340.098396 48.620152 
L 340.423702 243.122346 
L 340.749007 111.930595 
L 341.074312 100.139755 
L 341.399617 198.921383 
L 342.050227 58.962513 
L 342.375532 162.590772 
L 342.700838 170.848501 
L 343.026143 124.803085 
L 343.676753 133.69444 
L 344.002058 177.455067 
L 344.327363 19.932754 
L 344.652669 239.547685 
L 344.977974 133.164812 
L 345.303279 86.937322 
L 345.628584 139.571228 
L 345.953889 103.734099 
L 346.279194 121.404453 
L 346.6045 169.16677 
L 346.929805 133.312148 
L 347.25511 82.586451 
L 347.580415 214.304651 
L 347.90572 73.330561 
L 348.231025 224.31919 
L 348.55633 19.296 
L 348.881636 152.071499 
L 349.532246 187.03029 
L 349.857551 130.021864 
L 350.182856 123.768237 
L 350.508161 124.138922 
L 350.833467 45.339782 
L 351.158772 226.737703 
L 351.484077 136.443781 
L 351.809382 77.681857 
L 352.134687 158.577929 
L 352.459992 111.777042 
L 352.785297 156.442333 
L 353.110603 155.310131 
L 353.435908 100.980891 
L 353.761213 185.559847 
L 354.086518 54.06522 
L 354.411823 195.748222 
L 354.737128 57.298327 
L 355.062434 150.212604 
L 355.387739 114.170726 
L 355.713044 182.005558 
L 356.038349 92.21256 
L 356.363654 120.363264 
L 356.688959 181.259071 
L 357.014264 91.745063 
L 357.33957 129.581292 
L 357.664875 120.201742 
L 357.99018 239.359742 
L 358.315485 79.805141 
L 358.64079 118.746549 
L 358.966095 84.353779 
L 359.291401 142.02365 
L 359.616706 150.998997 
L 359.942011 210.807164 
L 360.592621 54.82773 
L 360.917926 97.342707 
L 361.243232 187.716633 
L 361.568537 92.853414 
L 361.893842 187.21153 
L 362.219147 101.127291 
L 362.544452 106.156828 
L 362.869757 220.131164 
L 363.195062 50.714706 
L 363.520368 141.35586 
L 363.845673 138.769596 
L 364.170978 145.122278 
L 364.496283 162.409734 
L 364.821588 73.033733 
L 365.472199 133.043244 
L 365.797504 238.917135 
L 366.122809 42.680538 
L 366.448114 214.645973 
L 366.773419 95.575554 
L 367.098724 108.946438 
L 367.424029 113.676553 
L 367.749335 182.160994 
L 368.07464 153.271934 
L 368.399945 149.390861 
L 368.72525 58.480052 
L 369.050555 106.229575 
L 369.37586 118.018145 
L 369.701166 201.452985 
L 370.026471 105.09499 
L 370.351776 79.330764 
L 370.677081 230.784148 
L 371.002386 43.50481 
L 371.327691 211.725636 
L 371.978302 99.128266 
L 372.303607 74.672358 
L 372.628912 180.491458 
L 372.954217 120.101796 
L 373.279522 160.20189 
L 373.604827 144.900835 
L 373.930133 59.113215 
L 374.255438 200.596356 
L 374.906048 51.752499 
L 375.231353 164.394361 
L 375.556658 129.181468 
L 375.881964 158.304334 
L 376.207269 84.539206 
L 376.532574 162.681905 
L 376.857879 93.977409 
L 377.183184 148.33091 
L 377.508489 160.910326 
L 377.833794 138.782804 
L 378.1591 46.668062 
L 378.484405 157.279799 
L 378.80971 106.782486 
L 379.135015 130.863534 
L 379.46032 139.726031 
L 379.785625 116.364657 
L 380.436236 197.224822 
L 380.761541 130.761977 
L 381.086846 122.468121 
L 381.412151 127.451048 
L 381.737456 97.369848 
L 382.062761 167.206991 
L 382.388067 119.839572 
L 382.713372 150.923815 
L 383.038677 81.490544 
L 383.363982 155.239241 
L 383.689287 48.140067 
L 384.014592 192.725516 
L 384.339898 158.762509 
L 384.665203 54.855038 
L 385.315813 201.426037 
L 385.641118 126.217244 
L 385.966423 131.22996 
L 386.291729 106.025471 
L 386.617034 125.398824 
L 386.942339 83.018714 
L 387.267644 199.312591 
L 387.592949 163.517974 
L 387.918254 106.251142 
L 388.243559 127.205607 
L 388.568865 114.939572 
L 388.89417 139.745204 
L 389.54478 104.280151 
L 389.870085 212.793617 
L 389.870085 212.793617 
" clip-path="url(#p4fe5dd9ccd)" style="fill: none; stroke: #1f77b4; stroke-width: 1.5; stroke-linecap: square"/>
   </g>
   <g id="line2d_14">
    <path d="M 65.21554 130.337923 
L 72.697558 130.456788 
L 80.179577 130.801011 
L 87.661596 131.363401 
L 95.468919 132.170087 
L 103.601548 133.229516 
L 112.384787 134.594925 
L 122.469247 136.395871 
L 134.830843 138.846537 
L 174.518072 146.905025 
L 184.277227 148.553336 
L 193.060466 149.816497 
L 201.193095 150.766912 
L 209.000419 151.458528 
L 216.482437 151.90352 
L 223.964456 152.12586 
L 231.446474 152.120903 
L 238.928493 151.888752 
L 246.410512 151.434257 
L 254.217835 150.733268 
L 262.350464 149.773907 
L 270.808398 148.553336 
L 280.242248 146.963552 
L 291.302623 144.862306 
L 306.917271 141.639272 
L 329.363326 137.019527 
L 340.423702 134.981867 
L 349.857551 133.46606 
L 358.315485 132.325165 
L 366.448114 131.452276 
L 374.255438 130.841392 
L 381.737456 130.477846 
L 389.219475 130.339217 
L 389.870085 130.337923 
L 389.870085 130.337923 
" clip-path="url(#p4fe5dd9ccd)" style="fill: none; stroke: #ff7f0e; stroke-width: 1.5; stroke-linecap: square"/>
   </g>
   <g id="patch_3">
    <path d="M 48.982813 273.312 
L 48.982813 7.2 
" style="fill: none; stroke: #000000; stroke-width: 0.8; stroke-linejoin: miter; stroke-linecap: square"/>
   </g>
   <g id="patch_4">
    <path d="M 406.102813 273.312 
L 406.102813 7.2 
" style="fill: none; stroke: #000000; stroke-width: 0.8; stroke-linejoin: miter; stroke-linecap: square"/>
   </g>
   <g id="patch_5">
    <path d="M 48.982813 273.312 
L 406.102812 273.312 
" style="fill: none; stroke: #000000; stroke-width: 0.8; stroke-linejoin: miter; stroke-linecap: square"/>
   </g>
   <g id="patch_6">
    <path d="M 48.982813 7.2 
L 406.102812 7.2 
" style="fill: none; stroke: #000000; stroke-width: 0.8; stroke-linejoin: miter; stroke-linecap: square"/>
   </g>
   <g id="legend_1">
    <g id="patch_7">
     <path d="M 55.982813 268.312 
L 153.621875 268.312 
Q 155.621875 268.312 155.621875 266.312 
L 155.621875 237.95575 
Q 155.621875 235.95575 153.621875 235.95575 
L 55.982813 235.95575 
Q 53.982813 235.95575 53.982813 237.95575 
L 53.982813 266.312 
Q 53.982813 268.312 55.982813 268.312 
z
" style="fill: #ffffff; opacity: 0.8; stroke: #cccccc; stroke-linejoin: miter"/>
    </g>
    <g id="line2d_15">
     <path d="M 57.982813 244.054187 
L 67.982813 244.054187 
L 77.982813 244.054187 
" style="fill: none; stroke: #1f77b4; stroke-width: 1.5; stroke-linecap: square"/>
    </g>
    <g id="text_14">
     <!-- Noisy Data -->
     <g transform="translate(85.982813 247.554187) scale(0.1 -0.1)">
      <defs>
       <path id="DejaVuSans-4e" d="M 628 4666 
L 1478 4666 
L 3547 763 
L 3547 4666 
L 4159 4666 
L 4159 0 
L 3309 0 
L 1241 3903 
L 1241 0 
L 628 0 
L 628 4666 
z
" transform="scale(0.015625)"/>
       <path id="DejaVuSans-69" d="M 603 3500 
L 1178 3500 
L 1178 0 
L 603 0 
L 603 3500 
z
M 603 4863 
L 1178 4863 
L 1178 4134 
L 603 4134 
L 603 4863 
z
" transform="scale(0.015625)"/>
       <path id="DejaVuSans-73" d="M 2834 3397 
L 2834 2853 
Q 2591 2978 2328 3040 
Q 2066 3103 1784 3103 
Q 1356 3103 1142 2972 
Q 928 2841 928 2578 
Q 928 2378 1081 2264 
Q 1234 2150 1697 2047 
L 1894 2003 
Q 2506 1872 2764 1633 
Q 3022 1394 3022 966 
Q 3022 478 2636 193 
Q 2250 -91 1575 -91 
Q 1294 -91 989 -36 
Q 684 19 347 128 
L 347 722 
Q 666 556 975 473 
Q 1284 391 1588 391 
Q 1994 391 2212 530 
Q 2431 669 2431 922 
Q 2431 1156 2273 1281 
Q 2116 1406 1581 1522 
L 1381 1569 
Q 847 1681 609 1914 
Q 372 2147 372 2553 
Q 372 3047 722 3315 
Q 1072 3584 1716 3584 
Q 2034 3584 2315 3537 
Q 2597 3491 2834 3397 
z
" transform="scale(0.015625)"/>
       <path id="DejaVuSans-44" d="M 1259 4147 
L 1259 519 
L 2022 519 
Q 2988 519 3436 956 
Q 3884 1394 3884 2338 
Q 3884 3275 3436 3711 
Q 2988 4147 2022 4147 
L 1259 4147 
z
M 628 4666 
L 1925 4666 
Q 3281 4666 3915 4102 
Q 4550 3538 4550 2338 
Q 4550 1131 3912 565 
Q 3275 0 1925 0 
L 628 0 
L 628 4666 
z
" transform="scale(0.015625)"/>
       <path id="DejaVuSans-61" d="M 2194 1759 
Q 1497 1759 1228 1600 
Q 959 1441 959 1056 
Q 959 750 1161 570 
Q 1363 391 1709 391 
Q 2188 391 2477 730 
Q 2766 1069 2766 1631 
L 2766 1759 
L 2194 1759 
z
M 3341 1997 
L 3341 0 
L 2766 0 
L 2766 531 
Q 2569 213 2275 61 
Q 1981 -91 1556 -91 
Q 1019 -91 701 211 
Q 384 513 384 1019 
Q 384 1609 779 1909 
Q 1175 2209 1959 2209 
L 2766 2209 
L 2766 2266 
Q 2766 2663 2505 2880 
Q 2244 3097 1772 3097 
Q 1472 3097 1187 3025 
Q 903 2953 641 2809 
L 641 3341 
Q 956 3463 1253 3523 
Q 1550 3584 1831 3584 
Q 2591 3584 2966 3190 
Q 3341 2797 3341 1997 
z
" transform="scale(0.015625)"/>
       <path id="DejaVuSans-74" d="M 1172 4494 
L 1172 3500 
L 2356 3500 
L 2356 3053 
L 1172 3053 
L 1172 1153 
Q 1172 725 1289 603 
Q 1406 481 1766 481 
L 2356 481 
L 2356 0 
L 1766 0 
Q 1100 0 847 248 
Q 594 497 594 1153 
L 594 3053 
L 172 3053 
L 172 3500 
L 594 3500 
L 594 4494 
L 1172 4494 
z
" transform="scale(0.015625)"/>
      </defs>
      <use xlink:href="#DejaVuSans-4e"/>
      <use xlink:href="#DejaVuSans-6f" x="74.804688"/>
      <use xlink:href="#DejaVuSans-69" x="135.986328"/>
      <use xlink:href="#DejaVuSans-73" x="163.769531"/>
      <use xlink:href="#DejaVuSans-79" x="215.869141"/>
      <use xlink:href="#DejaVuSans-20" x="275.048828"/>
      <use xlink:href="#DejaVuSans-44" x="306.835938"/>
      <use xlink:href="#DejaVuSans-61" x="383.837891"/>
      <use xlink:href="#DejaVuSans-74" x="445.117188"/>
      <use xlink:href="#DejaVuSans-61" x="484.326172"/>
     </g>
    </g>
    <g id="line2d_16">
     <path d="M 57.982813 258.732312 
L 67.982813 258.732312 
L 77.982813 258.732312 
" style="fill: none; stroke: #ff7f0e; stroke-width: 1.5; stroke-linecap: square"/>
    </g>
    <g id="text_15">
     <!-- Smooth Data -->
     <g transform="translate(85.982813 262.232312) scale(0.1 -0.1)">
      <defs>
       <path id="DejaVuSans-6d" d="M 3328 2828 
Q 3544 3216 3844 3400 
Q 4144 3584 4550 3584 
Q 5097 3584 5394 3201 
Q 5691 2819 5691 2113 
L 5691 0 
L 5113 0 
L 5113 2094 
Q 5113 2597 4934 2840 
Q 4756 3084 4391 3084 
Q 3944 3084 3684 2787 
Q 3425 2491 3425 1978 
L 3425 0 
L 2847 0 
L 2847 2094 
Q 2847 2600 2669 2842 
Q 2491 3084 2119 3084 
Q 1678 3084 1418 2786 
Q 1159 2488 1159 1978 
L 1159 0 
L 581 0 
L 581 3500 
L 1159 3500 
L 1159 2956 
Q 1356 3278 1631 3431 
Q 1906 3584 2284 3584 
Q 2666 3584 2933 3390 
Q 3200 3197 3328 2828 
z
" transform="scale(0.015625)"/>
       <path id="DejaVuSans-68" d="M 3513 2113 
L 3513 0 
L 2938 0 
L 2938 2094 
Q 2938 2591 2744 2837 
Q 2550 3084 2163 3084 
Q 1697 3084 1428 2787 
Q 1159 2491 1159 1978 
L 1159 0 
L 581 0 
L 581 4863 
L 1159 4863 
L 1159 2956 
Q 1366 3272 1645 3428 
Q 1925 3584 2291 3584 
Q 2894 3584 3203 3211 
Q 3513 2838 3513 2113 
z
" transform="scale(0.015625)"/>
      </defs>
      <use xlink:href="#DejaVuSans-53"/>
      <use xlink:href="#DejaVuSans-6d" x="63.476562"/>
      <use xlink:href="#DejaVuSans-6f" x="160.888672"/>
      <use xlink:href="#DejaVuSans-6f" x="222.070312"/>
      <use xlink:href="#DejaVuSans-74" x="283.251953"/>
      <use xlink:href="#DejaVuSans-68" x="322.460938"/>
      <use xlink:href="#DejaVuSans-20" x="385.839844"/>
      <use xlink:href="#DejaVuSans-44" x="417.626953"/>
      <use xlink:href="#DejaVuSans-61" x="494.628906"/>
      <use xlink:href="#DejaVuSans-74" x="555.908203"/>
      <use xlink:href="#DejaVuSans-61" x="595.117188"/>
     </g>
    </g>
   </g>
  </g>
 </g>
 <defs>
  <clipPath id="p4fe5dd9ccd">
   <rect x="48.982813" y="7.2" width="357.12" height="266.112"/>
  </clipPath>
 </defs>
</svg>