<?xml version="1.0" encoding="utf-8" standalone="no"?>
<!DOCTYPE svg PUBLIC "-//W3C//DTD SVG 1.1//EN"
  "http://www.w3.org/Graphics/SVG/1.1/DTD/svg11.dtd">
<svg xmlns:xlink="http://www.w3.org/1999/xlink" width="391.245pt" height="297.190125pt" viewBox="0 0 391.245 297.190125" xmlns="http://www.w3.org/2000/svg" version="1.1">
 <metadata>
  <rdf:RDF xmlns:dc="http://purl.org/dc/elements/1.1/" xmlns:cc="http://creativecommons.org/ns#" xmlns:rdf="http://www.w3.org/1999/02/22-rdf-syntax-ns#">
   <cc:Work>
    <dc:type rdf:resource="http://purl.org/dc/dcmitype/StillImage"/>
    <dc:date>2024-08-25T13:17:41.172522</dc:date>
    <dc:format>image/svg+xml</dc:format>
    <dc:creator>
     <cc:Agent>
      <dc:title>Matplotlib v3.9.1, https://matplotlib.org/</dc:title>
     </cc:Agent>
    </dc:creator>
   </cc:Work>
  </rdf:RDF>
 </metadata>
 <defs>
  <style type="text/css">*{stroke-linejoin: round; stroke-linecap: butt}</style>
 </defs>
 <g id="figure_1">
  <g id="patch_1">
   <path d="M 0 297.190125 
L 391.245 297.190125 
L 391.245 0 
L 0 0 
z
" style="fill: #ffffff"/>
  </g>
  <g id="axes_1">
   <g id="patch_2">
    <path d="M 26.925 273.312 
L 384.045 273.312 
L 384.045 7.2 
L 26.925 7.2 
z
" style="fill: #ffffff"/>
   </g>
   <g id="PathCollection_1">
    <defs>
     <path id="m4bc3316cd8" d="M 0 3 
C 0.795609 3 1.55874 2.683901 2.12132 2.12132 
C 2.683901 1.55874 3 0.795609 3 0 
C 3 -0.795609 2.683901 -1.55874 2.12132 -2.12132 
C 1.55874 -2.683901 0.795609 -3 0 -3 
C -0.795609 -3 -1.55874 -2.683901 -2.12132 -2.12132 
C -2.683901 -1.55874 -3 -0.795609 -3 0 
C -3 0.795609 -2.683901 1.55874 -2.12132 2.12132 
C -1.55874 2.683901 -0.795609 3 0 3 
z
" style="stroke: #1f77b4; stroke-opacity: 0.8"/>
    </defs>
    <g clip-path="url(#pa2b73ae24d)">
     <use xlink:href="#m4bc3316cd8" x="43.157727" y="244.708492" style="fill: #1f77b4; fill-opacity: 0.8; stroke: #1f77b4; stroke-opacity: 0.8"/>
     <use xlink:href="#m4bc3316cd8" x="79.230455" y="230.90535" style="fill: #1f77b4; fill-opacity: 0.8; stroke: #1f77b4; stroke-opacity: 0.8"/>
     <use xlink:href="#m4bc3316cd8" x="115.303182" y="190.58544" style="fill: #1f77b4; fill-opacity: 0.8; stroke: #1f77b4; stroke-opacity: 0.8"/>
     <use xlink:href="#m4bc3316cd8" x="151.375909" y="188.271124" style="fill: #1f77b4; fill-opacity: 0.8; stroke: #1f77b4; stroke-opacity: 0.8"/>
     <use xlink:href="#m4bc3316cd8" x="187.448636" y="133.983285" style="fill: #1f77b4; fill-opacity: 0.8; stroke: #1f77b4; stroke-opacity: 0.8"/>
     <use xlink:href="#m4bc3316cd8" x="223.521364" y="124.335648" style="fill: #1f77b4; fill-opacity: 0.8; stroke: #1f77b4; stroke-opacity: 0.8"/>
     <use xlink:href="#m4bc3316cd8" x="259.594091" y="116.739772" style="fill: #1f77b4; fill-opacity: 0.8; stroke: #1f77b4; stroke-opacity: 0.8"/>
     <use xlink:href="#m4bc3316cd8" x="295.666818" y="85.68555" style="fill: #1f77b4; fill-opacity: 0.8; stroke: #1f77b4; stroke-opacity: 0.8"/>
     <use xlink:href="#m4bc3316cd8" x="331.739545" y="53.451657" style="fill: #1f77b4; fill-opacity: 0.8; stroke: #1f77b4; stroke-opacity: 0.8"/>
     <use xlink:href="#m4bc3316cd8" x="367.812273" y="19.296" style="fill: #1f77b4; fill-opacity: 0.8; stroke: #1f77b4; stroke-opacity: 0.8"/>
    </g>
   </g>
   <g id="PolyCollection_1">
    <path d="M 43.157727 238.238943 
L 43.157727 261.216 
L 46.437066 258.847021 
L 49.716405 256.478042 
L 52.995744 254.108481 
L 56.275083 251.738699 
L 59.554421 249.357974 
L 62.83376 246.97177 
L 66.113099 244.589714 
L 69.392438 242.261705 
L 72.671777 239.893948 
L 75.951116 237.523361 
L 79.230455 235.14036 
L 82.509793 232.722782 
L 85.789132 230.305203 
L 89.068471 228.030019 
L 92.34781 225.677775 
L 95.627149 223.310885 
L 98.906488 220.943361 
L 102.185826 218.574382 
L 105.465165 216.205403 
L 108.744504 213.836424 
L 112.023843 211.467445 
L 115.303182 209.097506 
L 118.582521 206.727261 
L 121.86186 204.356467 
L 125.141198 201.985674 
L 128.420537 199.61488 
L 131.699876 197.267714 
L 134.979215 194.977391 
L 138.258554 192.584596 
L 141.537893 190.23988 
L 144.817231 187.970899 
L 148.09657 185.703355 
L 151.375909 183.43529 
L 154.655248 181.068771 
L 157.934587 178.765191 
L 161.213926 176.460519 
L 164.493264 174.153487 
L 167.772603 171.943012 
L 171.051942 169.649455 
L 174.331281 167.378814 
L 177.61062 165.157651 
L 180.889959 162.933258 
L 184.169298 160.594548 
L 187.448636 158.40838 
L 190.727975 156.149217 
L 194.007314 153.89422 
L 197.286653 151.623092 
L 200.565992 149.3462 
L 203.845331 147.075061 
L 207.124669 144.669664 
L 210.404008 142.440158 
L 213.683347 140.165719 
L 216.962686 137.954605 
L 220.242025 135.731901 
L 223.521364 133.375231 
L 226.800702 131.14404 
L 230.080041 129.031098 
L 233.35938 126.855952 
L 236.638719 124.708487 
L 239.918058 122.409055 
L 243.197397 120.248222 
L 246.476736 118.095056 
L 249.756074 115.96288 
L 253.035413 113.908141 
L 256.314752 111.762485 
L 259.594091 109.579026 
L 262.87343 107.406075 
L 266.152769 105.196122 
L 269.432107 103.092426 
L 272.711446 100.903935 
L 275.990785 98.793265 
L 279.270124 96.682594 
L 282.549463 94.656539 
L 285.828802 92.460968 
L 289.10814 90.346994 
L 292.387479 88.243524 
L 295.666818 86.169461 
L 298.946157 84.083695 
L 302.225496 81.995779 
L 305.504835 79.907863 
L 308.784174 77.819947 
L 312.063512 75.732031 
L 315.342851 73.661594 
L 318.62219 71.66653 
L 321.901529 69.650443 
L 325.180868 67.578199 
L 328.460207 65.484837 
L 331.739545 63.463797 
L 335.018884 61.458554 
L 338.298223 59.416095 
L 341.577562 57.350062 
L 344.856901 55.226305 
L 348.13624 53.101396 
L 351.415579 50.979772 
L 354.694917 48.971891 
L 357.974256 46.967555 
L 361.253595 44.890245 
L 364.532934 42.787222 
L 367.812273 40.713363 
L 367.812273 19.666423 
L 367.812273 19.666423 
L 364.532934 21.965843 
L 361.253595 24.264709 
L 357.974256 26.518604 
L 354.694917 28.861715 
L 351.415579 31.158248 
L 348.13624 33.456398 
L 344.856901 35.731044 
L 341.577562 38.005637 
L 338.298223 40.281683 
L 335.018884 42.564973 
L 331.739545 44.951522 
L 328.460207 47.249344 
L 325.180868 49.489096 
L 321.901529 51.727546 
L 318.62219 53.965996 
L 315.342851 56.204789 
L 312.063512 58.502416 
L 308.784174 60.771274 
L 305.504835 63.070991 
L 302.225496 65.395463 
L 298.946157 67.694867 
L 295.666818 69.997797 
L 292.387479 72.353101 
L 289.10814 74.710518 
L 285.828802 77.067976 
L 282.549463 79.424107 
L 279.270124 81.727981 
L 275.990785 84.025879 
L 272.711446 86.323777 
L 269.432107 88.557146 
L 266.152769 90.78884 
L 262.87343 93.019281 
L 259.594091 95.275084 
L 256.314752 97.57168 
L 253.035413 99.859645 
L 249.756074 101.989763 
L 246.476736 104.171923 
L 243.197397 106.463447 
L 239.918058 108.697192 
L 236.638719 110.895539 
L 233.35938 113.094459 
L 230.080041 115.390788 
L 226.800702 117.637352 
L 223.521364 119.873546 
L 220.242025 122.21253 
L 216.962686 124.421741 
L 213.683347 126.712746 
L 210.404008 128.933407 
L 207.124669 131.20298 
L 203.845331 133.386381 
L 200.565992 135.611518 
L 197.286653 137.752792 
L 194.007314 139.96406 
L 190.727975 142.259831 
L 187.448636 144.465324 
L 184.169298 146.614363 
L 180.889959 148.782022 
L 177.61062 150.992594 
L 174.331281 153.132679 
L 171.051942 155.394775 
L 167.772603 157.62733 
L 164.493264 159.723144 
L 161.213926 161.925638 
L 157.934587 163.987221 
L 154.655248 166.126213 
L 151.375909 168.356881 
L 148.09657 170.563565 
L 144.817231 172.757139 
L 141.537893 174.962334 
L 138.258554 177.157415 
L 134.979215 179.268802 
L 131.699876 181.403238 
L 128.420537 183.583033 
L 125.141198 185.690569 
L 121.86186 187.775612 
L 118.582521 189.856662 
L 115.303182 191.942039 
L 112.023843 194.027417 
L 108.744504 196.164567 
L 105.465165 198.278781 
L 102.185826 200.412006 
L 98.906488 202.584241 
L 95.627149 204.669634 
L 92.34781 206.761278 
L 89.068471 208.893623 
L 85.789132 211.02285 
L 82.509793 213.1018 
L 79.230455 215.11158 
L 75.951116 217.266742 
L 72.671777 219.380538 
L 69.392438 221.537816 
L 66.113099 223.526161 
L 62.83376 225.593672 
L 59.554421 227.759394 
L 56.275083 229.922776 
L 52.995744 232.087972 
L 49.716405 234.223774 
L 46.437066 236.231358 
L 43.157727 238.238943 
z
" clip-path="url(#pa2b73ae24d)" style="fill: #1f77b4; fill-opacity: 0.15"/>
   </g>
   <g id="matplotlib.axis_1">
    <g id="xtick_1">
     <g id="line2d_1">
      <defs>
       <path id="mc3e755de55" d="M 0 0 
L 0 3.5 
" style="stroke: #000000; stroke-width: 0.8"/>
      </defs>
      <g>
       <use xlink:href="#mc3e755de55" x="43.157727" y="273.312" style="stroke: #000000; stroke-width: 0.8"/>
      </g>
     </g>
     <g id="text_1">
      <!-- 0 -->
      <g transform="translate(39.976477 287.910437) scale(0.1 -0.1)">
       <defs>
        <path id="DejaVuSans-30" d="M 2034 4250 
Q 1547 4250 1301 3770 
Q 1056 3291 1056 2328 
Q 1056 1369 1301 889 
Q 1547 409 2034 409 
Q 2525 409 2770 889 
Q 3016 1369 3016 2328 
Q 3016 3291 2770 3770 
Q 2525 4250 2034 4250 
z
M 2034 4750 
Q 2819 4750 3233 4129 
Q 3647 3509 3647 2328 
Q 3647 1150 3233 529 
Q 2819 -91 2034 -91 
Q 1250 -91 836 529 
Q 422 1150 422 2328 
Q 422 3509 836 4129 
Q 1250 4750 2034 4750 
z
" transform="scale(0.015625)"/>
       </defs>
       <use xlink:href="#DejaVuSans-30"/>
      </g>
     </g>
    </g>
    <g id="xtick_2">
     <g id="line2d_2">
      <g>
       <use xlink:href="#mc3e755de55" x="115.303182" y="273.312" style="stroke: #000000; stroke-width: 0.8"/>
      </g>
     </g>
     <g id="text_2">
      <!-- 2 -->
      <g transform="translate(112.121932 287.910437) scale(0.1 -0.1)">
       <defs>
        <path id="DejaVuSans-32" d="M 1228 531 
L 3431 531 
L 3431 0 
L 469 0 
L 469 531 
Q 828 903 1448 1529 
Q 2069 2156 2228 2338 
Q 2531 2678 2651 2914 
Q 2772 3150 2772 3378 
Q 2772 3750 2511 3984 
Q 2250 4219 1831 4219 
Q 1534 4219 1204 4116 
Q 875 4013 500 3803 
L 500 4441 
Q 881 4594 1212 4672 
Q 1544 4750 1819 4750 
Q 2544 4750 2975 4387 
Q 3406 4025 3406 3419 
Q 3406 3131 3298 2873 
Q 3191 2616 2906 2266 
Q 2828 2175 2409 1742 
Q 1991 1309 1228 531 
z
" transform="scale(0.015625)"/>
       </defs>
       <use xlink:href="#DejaVuSans-32"/>
      </g>
     </g>
    </g>
    <g id="xtick_3">
     <g id="line2d_3">
      <g>
       <use xlink:href="#mc3e755de55" x="187.448636" y="273.312" style="stroke: #000000; stroke-width: 0.8"/>
      </g>
     </g>
     <g id="text_3">
      <!-- 4 -->
      <g transform="translate(184.267386 287.910437) scale(0.1 -0.1)">
       <defs>
        <path id="DejaVuSans-34" d="M 2419 4116 
L 825 1625 
L 2419 1625 
L 2419 4116 
z
M 2253 4666 
L 3047 4666 
L 3047 1625 
L 3713 1625 
L 3713 1100 
L 3047 1100 
L 3047 0 
L 2419 0 
L 2419 1100 
L 313 1100 
L 313 1709 
L 2253 4666 
z
" transform="scale(0.015625)"/>
       </defs>
       <use xlink:href="#DejaVuSans-34"/>
      </g>
     </g>
    </g>
    <g id="xtick_4">
     <g id="line2d_4">
      <g>
       <use xlink:href="#mc3e755de55" x="259.594091" y="273.312" style="stroke: #000000; stroke-width: 0.8"/>
      </g>
     </g>
     <g id="text_4">
      <!-- 6 -->
      <g transform="translate(256.412841 287.910437) scale(0.1 -0.1)">
       <defs>
        <path id="DejaVuSans-36" d="M 2113 2584 
Q 1688 2584 1439 2293 
Q 1191 2003 1191 1497 
Q 1191 994 1439 701 
Q 1688 409 2113 409 
Q 2538 409 2786 701 
Q 3034 994 3034 1497 
Q 3034 2003 2786 2293 
Q 2538 2584 2113 2584 
z
M 3366 4563 
L 3366 3988 
Q 3128 4100 2886 4159 
Q 2644 4219 2406 4219 
Q 1781 4219 1451 3797 
Q 1122 3375 1075 2522 
Q 1259 2794 1537 2939 
Q 1816 3084 2150 3084 
Q 2853 3084 3261 2657 
Q 3669 2231 3669 1497 
Q 3669 778 3244 343 
Q 2819 -91 2113 -91 
Q 1303 -91 875 529 
Q 447 1150 447 2328 
Q 447 3434 972 4092 
Q 1497 4750 2381 4750 
Q 2619 4750 2861 4703 
Q 3103 4656 3366 4563 
z
" transform="scale(0.015625)"/>
       </defs>
       <use xlink:href="#DejaVuSans-36"/>
      </g>
     </g>
    </g>
    <g id="xtick_5">
     <g id="line2d_5">
      <g>
       <use xlink:href="#mc3e755de55" x="331.739545" y="273.312" style="stroke: #000000; stroke-width: 0.8"/>
      </g>
     </g>
     <g id="text_5">
      <!-- 8 -->
      <g transform="translate(328.558295 287.910437) scale(0.1 -0.1)">
       <defs>
        <path id="DejaVuSans-38" d="M 2034 2216 
Q 1584 2216 1326 1975 
Q 1069 1734 1069 1313 
Q 1069 891 1326 650 
Q 1584 409 2034 409 
Q 2484 409 2743 651 
Q 3003 894 3003 1313 
Q 3003 1734 2745 1975 
Q 2488 2216 2034 2216 
z
M 1403 2484 
Q 997 2584 770 2862 
Q 544 3141 544 3541 
Q 544 4100 942 4425 
Q 1341 4750 2034 4750 
Q 2731 4750 3128 4425 
Q 3525 4100 3525 3541 
Q 3525 3141 3298 2862 
Q 3072 2584 2669 2484 
Q 3125 2378 3379 2068 
Q 3634 1759 3634 1313 
Q 3634 634 3220 271 
Q 2806 -91 2034 -91 
Q 1263 -91 848 271 
Q 434 634 434 1313 
Q 434 1759 690 2068 
Q 947 2378 1403 2484 
z
M 1172 3481 
Q 1172 3119 1398 2916 
Q 1625 2713 2034 2713 
Q 2441 2713 2670 2916 
Q 2900 3119 2900 3481 
Q 2900 3844 2670 4047 
Q 2441 4250 2034 4250 
Q 1625 4250 1398 4047 
Q 1172 3844 1172 3481 
z
" transform="scale(0.015625)"/>
       </defs>
       <use xlink:href="#DejaVuSans-38"/>
      </g>
     </g>
    </g>
   </g>
   <g id="matplotlib.axis_2">
    <g id="ytick_1">
     <g id="line2d_6">
      <defs>
       <path id="m376e345650" d="M 0 0 
L -3.5 0 
" style="stroke: #000000; stroke-width: 0.8"/>
      </defs>
      <g>
       <use xlink:href="#m376e345650" x="26.925" y="240.125899" style="stroke: #000000; stroke-width: 0.8"/>
      </g>
     </g>
     <g id="text_6">
      <!-- 0 -->
      <g transform="translate(13.5625 243.925118) scale(0.1 -0.1)">
       <use xlink:href="#DejaVuSans-30"/>
      </g>
     </g>
    </g>
    <g id="ytick_2">
     <g id="line2d_7">
      <g>
       <use xlink:href="#m376e345650" x="26.925" y="187.128342" style="stroke: #000000; stroke-width: 0.8"/>
      </g>
     </g>
     <g id="text_7">
      <!-- 5 -->
      <g transform="translate(13.5625 190.92756) scale(0.1 -0.1)">
       <defs>
        <path id="DejaVuSans-35" d="M 691 4666 
L 3169 4666 
L 3169 4134 
L 1269 4134 
L 1269 2991 
Q 1406 3038 1543 3061 
Q 1681 3084 1819 3084 
Q 2600 3084 3056 2656 
Q 3513 2228 3513 1497 
Q 3513 744 3044 326 
Q 2575 -91 1722 -91 
Q 1428 -91 1123 -41 
Q 819 9 494 109 
L 494 744 
Q 775 591 1075 516 
Q 1375 441 1709 441 
Q 2250 441 2565 725 
Q 2881 1009 2881 1497 
Q 2881 1984 2565 2268 
Q 2250 2553 1709 2553 
Q 1456 2553 1204 2497 
Q 953 2441 691 2322 
L 691 4666 
z
" transform="scale(0.015625)"/>
       </defs>
       <use xlink:href="#DejaVuSans-35"/>
      </g>
     </g>
    </g>
    <g id="ytick_3">
     <g id="line2d_8">
      <g>
       <use xlink:href="#m376e345650" x="26.925" y="134.130784" style="stroke: #000000; stroke-width: 0.8"/>
      </g>
     </g>
     <g id="text_8">
      <!-- 10 -->
      <g transform="translate(7.2 137.930003) scale(0.1 -0.1)">
       <defs>
        <path id="DejaVuSans-31" d="M 794 531 
L 1825 531 
L 1825 4091 
L 703 3866 
L 703 4441 
L 1819 4666 
L 2450 4666 
L 2450 531 
L 3481 531 
L 3481 0 
L 794 0 
L 794 531 
z
" transform="scale(0.015625)"/>
       </defs>
       <use xlink:href="#DejaVuSans-31"/>
       <use xlink:href="#DejaVuSans-30" x="63.623047"/>
      </g>
     </g>
    </g>
    <g id="ytick_4">
     <g id="line2d_9">
      <g>
       <use xlink:href="#m376e345650" x="26.925" y="81.133226" style="stroke: #000000; stroke-width: 0.8"/>
      </g>
     </g>
     <g id="text_9">
      <!-- 15 -->
      <g transform="translate(7.2 84.932445) scale(0.1 -0.1)">
       <use xlink:href="#DejaVuSans-31"/>
       <use xlink:href="#DejaVuSans-35" x="63.623047"/>
      </g>
     </g>
    </g>
    <g id="ytick_5">
     <g id="line2d_10">
      <g>
       <use xlink:href="#m376e345650" x="26.925" y="28.135668" style="stroke: #000000; stroke-width: 0.8"/>
      </g>
     </g>
     <g id="text_10">
      <!-- 20 -->
      <g transform="translate(7.2 31.934887) scale(0.1 -0.1)">
       <use xlink:href="#DejaVuSans-32"/>
       <use xlink:href="#DejaVuSans-30" x="63.623047"/>
      </g>
     </g>
    </g>
   </g>
   <g id="line2d_11">
    <path d="M 43.157727 248.422489 
L 46.437066 246.207817 
L 49.716405 243.993145 
L 52.995744 241.778473 
L 56.275083 239.563801 
L 59.554421 237.349129 
L 62.83376 235.134458 
L 66.113099 232.919786 
L 69.392438 230.705114 
L 72.671777 228.490442 
L 75.951116 226.27577 
L 79.230455 224.061098 
L 82.509793 221.846426 
L 85.789132 219.631755 
L 89.068471 217.417083 
L 92.34781 215.202411 
L 95.627149 212.987739 
L 98.906488 210.773067 
L 102.185826 208.558395 
L 105.465165 206.343723 
L 108.744504 204.129052 
L 112.023843 201.91438 
L 115.303182 199.699708 
L 118.582521 197.485036 
L 121.86186 195.270364 
L 125.141198 193.055692 
L 128.420537 190.84102 
L 131.699876 188.626349 
L 134.979215 186.411677 
L 138.258554 184.197005 
L 141.537893 181.982333 
L 144.817231 179.767661 
L 148.09657 177.552989 
L 151.375909 175.338317 
L 154.655248 173.123646 
L 157.934587 170.908974 
L 161.213926 168.694302 
L 164.493264 166.47963 
L 167.772603 164.264958 
L 171.051942 162.050286 
L 174.331281 159.835614 
L 177.61062 157.620943 
L 180.889959 155.406271 
L 184.169298 153.191599 
L 187.448636 150.976927 
L 190.727975 148.762255 
L 194.007314 146.547583 
L 197.286653 144.332911 
L 200.565992 142.11824 
L 203.845331 139.903568 
L 207.124669 137.688896 
L 210.404008 135.474224 
L 213.683347 133.259552 
L 216.962686 131.04488 
L 220.242025 128.830208 
L 223.521364 126.615537 
L 226.800702 124.400865 
L 230.080041 122.186193 
L 233.35938 119.971521 
L 236.638719 117.756849 
L 239.918058 115.542177 
L 243.197397 113.327505 
L 246.476736 111.112834 
L 249.756074 108.898162 
L 253.035413 106.68349 
L 256.314752 104.468818 
L 259.594091 102.254146 
L 262.87343 100.039474 
L 266.152769 97.824802 
L 269.432107 95.610131 
L 272.711446 93.395459 
L 275.990785 91.180787 
L 279.270124 88.966115 
L 282.549463 86.751443 
L 285.828802 84.536771 
L 289.10814 82.322099 
L 292.387479 80.107428 
L 295.666818 77.892756 
L 298.946157 75.678084 
L 302.225496 73.463412 
L 305.504835 71.24874 
L 308.784174 69.034068 
L 312.063512 66.819396 
L 315.342851 64.604725 
L 318.62219 62.390053 
L 321.901529 60.175381 
L 325.180868 57.960709 
L 328.460207 55.746037 
L 331.739545 53.531365 
L 335.018884 51.316693 
L 338.298223 49.102022 
L 341.577562 46.88735 
L 344.856901 44.672678 
L 348.13624 42.458006 
L 351.415579 40.243334 
L 354.694917 38.028662 
L 357.974256 35.81399 
L 361.253595 33.599319 
L 364.532934 31.384647 
L 367.812273 29.169975 
" clip-path="url(#pa2b73ae24d)" style="fill: none; stroke: #1f77b4; stroke-width: 2.25; stroke-linecap: square"/>
   </g>
   <g id="patch_3">
    <path d="M 26.925 273.312 
L 26.925 7.2 
" style="fill: none; stroke: #000000; stroke-width: 0.8; stroke-linejoin: miter; stroke-linecap: square"/>
   </g>
   <g id="patch_4">
    <path d="M 384.045 273.312 
L 384.045 7.2 
" style="fill: none; stroke: #000000; stroke-width: 0.8; stroke-linejoin: miter; stroke-linecap: square"/>
   </g>
   <g id="patch_5">
    <path d="M 26.925 273.312 
L 384.045 273.312 
" style="fill: none; stroke: #000000; stroke-width: 0.8; stroke-linejoin: miter; stroke-linecap: square"/>
   </g>
   <g id="patch_6">
    <path d="M 26.925 7.2 
L 384.045 7.2 
" style="fill: none; stroke: #000000; stroke-width: 0.8; stroke-linejoin: miter; stroke-linecap: square"/>
   </g>
  </g>
 </g>
 <defs>
  <clipPath id="pa2b73ae24d">
   <rect x="26.925" y="7.2" width="357.12" height="266.112"/>
  </clipPath>
 </defs>
</svg>