<?xml version="1.0" encoding="utf-8" standalone="no"?>
<!DOCTYPE svg PUBLIC "-//W3C//DTD SVG 1.1//EN"
  "http://www.w3.org/Graphics/SVG/1.1/DTD/svg11.dtd">
<svg xmlns:xlink="http://www.w3.org/1999/xlink" width="391.245pt" height="297.190125pt" viewBox="0 0 391.245 297.190125" xmlns="http://www.w3.org/2000/svg" version="1.1">
 <metadata>
  <rdf:RDF xmlns:dc="http://purl.org/dc/elements/1.1/" xmlns:cc="http://creativecommons.org/ns#" xmlns:rdf="http://www.w3.org/1999/02/22-rdf-syntax-ns#">
   <cc:Work>
    <dc:type rdf:resource="http://purl.org/dc/dcmitype/StillImage"/>
    <dc:date>2026-02-15T10:05:15.148352</dc:date>
    <dc:format>image/svg+xml</dc:format>
    <dc:creator>
     <cc:Agent>
      <dc:title>Matplotlib v3.10.3, https://matplotlib.org/</dc:title>
     </cc:Agent>
    </dc:creator>
   </cc:Work>
  </rdf:RDF>
 </metadata>
 <defs>
  <style type="text/css">*{stroke-linejoin: round; stroke-linecap: butt}</style>
 </defs>
 <g id="figure_1">
  <g id="patch_1">
   <path d="M 0 297.190125 
L 391.245 297.190125 
L 391.245 0 
L 0 0 
z
" style="fill: #ffffff"/>
  </g>
  <g id="axes_1">
   <g id="patch_2">
    <path d="M 26.925 273.312 
L 384.045 273.312 
L 384.045 7.2 
L 26.925 7.2 
z
" style="fill: #ffffff"/>
   </g>
   <g id="PathCollection_1">
    <defs>
     <path id="mf708191f42" d="M 0 3 
C 0.795609 3 1.55874 2.683901 2.12132 2.12132 
C 2.683901 1.55874 3 0.795609 3 0 
C 3 -0.795609 2.683901 -1.55874 2.12132 -2.12132 
C 1.55874 -2.683901 0.795609 -3 0 -3 
C -0.795609 -3 -1.55874 -2.683901 -2.12132 -2.12132 
C -2.683901 -1.55874 -3 -0.795609 -3 0 
C -3 0.795609 -2.683901 1.55874 -2.12132 2.12132 
C -1.55874 2.683901 -0.795609 3 0 3 
z
" style="stroke: #1f77b4; stroke-opacity: 0.8"/>
    </defs>
    <g clip-path="url(#p429a11f975)">
     <use xlink:href="#mf708191f42" x="43.157727" y="246.631535" style="fill: #1f77b4; fill-opacity: 0.8; stroke: #1f77b4; stroke-opacity: 0.8"/>
     <use xlink:href="#mf708191f42" x="79.230455" y="232.710635" style="fill: #1f77b4; fill-opacity: 0.8; stroke: #1f77b4; stroke-opacity: 0.8"/>
     <use xlink:href="#mf708191f42" x="115.303182" y="192.046747" style="fill: #1f77b4; fill-opacity: 0.8; stroke: #1f77b4; stroke-opacity: 0.8"/>
     <use xlink:href="#mf708191f42" x="151.375909" y="189.712687" style="fill: #1f77b4; fill-opacity: 0.8; stroke: #1f77b4; stroke-opacity: 0.8"/>
     <use xlink:href="#mf708191f42" x="187.448636" y="134.961708" style="fill: #1f77b4; fill-opacity: 0.8; stroke: #1f77b4; stroke-opacity: 0.8"/>
     <use xlink:href="#mf708191f42" x="223.521364" y="125.231764" style="fill: #1f77b4; fill-opacity: 0.8; stroke: #1f77b4; stroke-opacity: 0.8"/>
     <use xlink:href="#mf708191f42" x="259.594091" y="117.571086" style="fill: #1f77b4; fill-opacity: 0.8; stroke: #1f77b4; stroke-opacity: 0.8"/>
     <use xlink:href="#mf708191f42" x="295.666818" y="86.251933" style="fill: #1f77b4; fill-opacity: 0.8; stroke: #1f77b4; stroke-opacity: 0.8"/>
     <use xlink:href="#mf708191f42" x="331.739545" y="53.743047" style="fill: #1f77b4; fill-opacity: 0.8; stroke: #1f77b4; stroke-opacity: 0.8"/>
     <use xlink:href="#mf708191f42" x="367.812273" y="19.296" style="fill: #1f77b4; fill-opacity: 0.8; stroke: #1f77b4; stroke-opacity: 0.8"/>
    </g>
   </g>
   <g id="FillBetweenPolyCollection_1">
    <path d="M 43.157727 239.140824 
L 43.157727 261.216 
L 46.437066 258.893413 
L 49.716405 256.519194 
L 52.995744 254.13101 
L 56.275083 251.745304 
L 59.554421 249.397667 
L 62.83376 247.049052 
L 66.113099 244.701551 
L 69.392438 242.355265 
L 72.671777 240.008978 
L 75.951116 237.662692 
L 79.230455 235.316406 
L 82.509793 232.97012 
L 85.789132 230.623834 
L 89.068471 228.277548 
L 92.34781 225.954768 
L 95.627149 223.612781 
L 98.906488 221.241457 
L 102.185826 218.906836 
L 105.465165 216.582217 
L 108.744504 214.259567 
L 112.023843 211.945555 
L 115.303182 209.650986 
L 118.582521 207.357131 
L 121.86186 205.017392 
L 125.141198 202.653933 
L 128.420537 200.279849 
L 131.699876 197.893465 
L 134.979215 195.572089 
L 138.258554 193.232372 
L 141.537893 190.895305 
L 144.817231 188.535624 
L 148.09657 186.139978 
L 151.375909 183.802656 
L 154.655248 181.465751 
L 157.934587 179.265913 
L 161.213926 176.900874 
L 164.493264 174.731203 
L 167.772603 172.461729 
L 171.051942 170.193495 
L 174.331281 167.926591 
L 177.61062 165.660194 
L 180.889959 163.383003 
L 184.169298 161.158812 
L 187.448636 158.922568 
L 190.727975 156.710475 
L 194.007314 154.498483 
L 197.286653 152.283743 
L 200.565992 150.071288 
L 203.845331 147.878399 
L 207.124669 145.714907 
L 210.404008 143.495872 
L 213.683347 141.301602 
L 216.962686 139.191324 
L 220.242025 137.003857 
L 223.521364 134.704952 
L 226.800702 132.405701 
L 230.080041 130.305426 
L 233.35938 128.12988 
L 236.638719 125.910094 
L 239.918058 123.802245 
L 243.197397 121.695148 
L 246.476736 119.583341 
L 249.756074 117.476565 
L 253.035413 115.414458 
L 256.314752 113.261368 
L 259.594091 111.154652 
L 262.87343 109.07812 
L 266.152769 106.941221 
L 269.432107 104.777199 
L 272.711446 102.627274 
L 275.990785 100.618222 
L 279.270124 98.513792 
L 282.549463 96.554942 
L 285.828802 94.469311 
L 289.10814 92.381639 
L 292.387479 90.427877 
L 295.666818 88.443553 
L 298.946157 86.363785 
L 302.225496 84.268602 
L 305.504835 82.122098 
L 308.784174 79.975593 
L 312.063512 77.828445 
L 315.342851 75.681166 
L 318.62219 73.660071 
L 321.901529 71.696213 
L 325.180868 69.601518 
L 328.460207 67.659151 
L 331.739545 65.585103 
L 335.018884 63.506263 
L 338.298223 61.42737 
L 341.577562 59.348478 
L 344.856901 57.388049 
L 348.13624 55.323727 
L 351.415579 53.310999 
L 354.694917 51.232057 
L 357.974256 49.153114 
L 361.253595 47.074172 
L 364.532934 44.995229 
L 367.812273 42.995048 
L 367.812273 20.155783 
L 367.812273 20.155783 
L 364.532934 22.510442 
L 361.253595 24.831332 
L 357.974256 27.152222 
L 354.694917 29.473112 
L 351.415579 31.790894 
L 348.13624 34.107723 
L 344.856901 36.387255 
L 341.577562 38.737567 
L 338.298223 41.05821 
L 335.018884 43.377285 
L 331.739545 45.696576 
L 328.460207 48.015867 
L 325.180868 50.335158 
L 321.901529 52.654449 
L 318.62219 54.97374 
L 315.342851 57.311553 
L 312.063512 59.634591 
L 308.784174 62.030746 
L 305.504835 64.316818 
L 302.225496 66.565048 
L 298.946157 68.899729 
L 295.666818 71.201377 
L 292.387479 73.540989 
L 289.10814 75.898942 
L 285.828802 78.199153 
L 282.549463 80.553302 
L 279.270124 82.917595 
L 275.990785 85.225956 
L 272.711446 87.534316 
L 269.432107 89.824779 
L 266.152769 92.080565 
L 262.87343 94.359405 
L 259.594091 96.663695 
L 256.314752 98.887186 
L 253.035413 101.217878 
L 249.756074 103.579838 
L 246.476736 105.882638 
L 243.197397 108.153433 
L 239.918058 110.369241 
L 236.638719 112.586261 
L 233.35938 114.80328 
L 230.080041 117.002281 
L 226.800702 119.15446 
L 223.521364 121.282711 
L 220.242025 123.415717 
L 216.962686 125.599255 
L 213.683347 127.79504 
L 210.404008 130.051021 
L 207.124669 132.303195 
L 203.845331 134.558349 
L 200.565992 136.750371 
L 197.286653 138.905861 
L 194.007314 141.059319 
L 190.727975 143.227767 
L 187.448636 145.467423 
L 184.169298 147.608068 
L 180.889959 149.821713 
L 177.61062 152.090996 
L 174.331281 154.296502 
L 171.051942 156.508762 
L 167.772603 158.714575 
L 164.493264 160.895392 
L 161.213926 163.108799 
L 157.934587 165.236207 
L 154.655248 167.497754 
L 151.375909 169.750195 
L 148.09657 171.858984 
L 144.817231 173.935291 
L 141.537893 176.050426 
L 138.258554 178.22023 
L 134.979215 180.387265 
L 131.699876 182.560589 
L 128.420537 184.72211 
L 125.141198 186.889038 
L 121.86186 188.977832 
L 118.582521 191.038861 
L 115.303182 193.129673 
L 112.023843 195.182304 
L 108.744504 197.256934 
L 105.465165 199.406903 
L 102.185826 201.508151 
L 98.906488 203.654298 
L 95.627149 205.757314 
L 92.34781 207.798708 
L 89.068471 209.892281 
L 85.789132 211.954023 
L 82.509793 214.018806 
L 79.230455 216.138016 
L 75.951116 218.245935 
L 72.671777 220.386439 
L 69.392438 222.440331 
L 66.113099 224.504996 
L 62.83376 226.596264 
L 59.554421 228.712495 
L 56.275083 230.802133 
L 52.995744 232.870331 
L 49.716405 234.960495 
L 46.437066 237.05066 
L 43.157727 239.140824 
z
" clip-path="url(#p429a11f975)" style="fill: #1f77b4; fill-opacity: 0.15"/>
   </g>
   <g id="matplotlib.axis_1">
    <g id="xtick_1">
     <g id="line2d_1">
      <defs>
       <path id="mf25c15995e" d="M 0 0 
L 0 3.5 
" style="stroke: #000000; stroke-width: 0.8"/>
      </defs>
      <g>
       <use xlink:href="#mf25c15995e" x="43.157727" y="273.312" style="stroke: #000000; stroke-width: 0.8"/>
      </g>
     </g>
     <g id="text_1">
      <!-- 0 -->
      <g transform="translate(39.976477 287.910437) scale(0.1 -0.1)">
       <defs>
        <path id="DejaVuSans-30" d="M 2034 4250 
Q 1547 4250 1301 3770 
Q 1056 3291 1056 2328 
Q 1056 1369 1301 889 
Q 1547 409 2034 409 
Q 2525 409 2770 889 
Q 3016 1369 3016 2328 
Q 3016 3291 2770 3770 
Q 2525 4250 2034 4250 
z
M 2034 4750 
Q 2819 4750 3233 4129 
Q 3647 3509 3647 2328 
Q 3647 1150 3233 529 
Q 2819 -91 2034 -91 
Q 1250 -91 836 529 
Q 422 1150 422 2328 
Q 422 3509 836 4129 
Q 1250 4750 2034 4750 
z
" transform="scale(0.015625)"/>
       </defs>
       <use xlink:href="#DejaVuSans-30"/>
      </g>
     </g>
    </g>
    <g id="xtick_2">
     <g id="line2d_2">
      <g>
       <use xlink:href="#mf25c15995e" x="115.303182" y="273.312" style="stroke: #000000; stroke-width: 0.8"/>
      </g>
     </g>
     <g id="text_2">
      <!-- 2 -->
      <g transform="translate(112.121932 287.910437) scale(0.1 -0.1)">
       <defs>
        <path id="DejaVuSans-32" d="M 1228 531 
L 3431 531 
L 3431 0 
L 469 0 
L 469 531 
Q 828 903 1448 1529 
Q 2069 2156 2228 2338 
Q 2531 2678 2651 2914 
Q 2772 3150 2772 3378 
Q 2772 3750 2511 3984 
Q 2250 4219 1831 4219 
Q 1534 4219 1204 4116 
Q 875 4013 500 3803 
L 500 4441 
Q 881 4594 1212 4672 
Q 1544 4750 1819 4750 
Q 2544 4750 2975 4387 
Q 3406 4025 3406 3419 
Q 3406 3131 3298 2873 
Q 3191 2616 2906 2266 
Q 2828 2175 2409 1742 
Q 1991 1309 1228 531 
z
" transform="scale(0.015625)"/>
       </defs>
       <use xlink:href="#DejaVuSans-32"/>
      </g>
     </g>
    </g>
    <g id="xtick_3">
     <g id="line2d_3">
      <g>
       <use xlink:href="#mf25c15995e" x="187.448636" y="273.312" style="stroke: #000000; stroke-width: 0.8"/>
      </g>
     </g>
     <g id="text_3">
      <!-- 4 -->
      <g transform="translate(184.267386 287.910437) scale(0.1 -0.1)">
       <defs>
        <path id="DejaVuSans-34" d="M 2419 4116 
L 825 1625 
L 2419 1625 
L 2419 4116 
z
M 2253 4666 
L 3047 4666 
L 3047 1625 
L 3713 1625 
L 3713 1100 
L 3047 1100 
L 3047 0 
L 2419 0 
L 2419 1100 
L 313 1100 
L 313 1709 
L 2253 4666 
z
" transform="scale(0.015625)"/>
       </defs>
       <use xlink:href="#DejaVuSans-34"/>
      </g>
     </g>
    </g>
    <g id="xtick_4">
     <g id="line2d_4">
      <g>
       <use xlink:href="#mf25c15995e" x="259.594091" y="273.312" style="stroke: #000000; stroke-width: 0.8"/>
      </g>
     </g>
     <g id="text_4">
      <!-- 6 -->
      <g transform="translate(256.412841 287.910437) scale(0.1 -0.1)">
       <defs>
        <path id="DejaVuSans-36" d="M 2113 2584 
Q 1688 2584 1439 2293 
Q 1191 2003 1191 1497 
Q 1191 994 1439 701 
Q 1688 409 2113 409 
Q 2538 409 2786 701 
Q 3034 994 3034 1497 
Q 3034 2003 2786 2293 
Q 2538 2584 2113 2584 
z
M 3366 4563 
L 3366 3988 
Q 3128 4100 2886 4159 
Q 2644 4219 2406 4219 
Q 1781 4219 1451 3797 
Q 1122 3375 1075 2522 
Q 1259 2794 1537 2939 
Q 1816 3084 2150 3084 
Q 2853 3084 3261 2657 
Q 3669 2231 3669 1497 
Q 3669 778 3244 343 
Q 2819 -91 2113 -91 
Q 1303 -91 875 529 
Q 447 1150 447 2328 
Q 447 3434 972 4092 
Q 1497 4750 2381 4750 
Q 2619 4750 2861 4703 
Q 3103 4656 3366 4563 
z
" transform="scale(0.015625)"/>
       </defs>
       <use xlink:href="#DejaVuSans-36"/>
      </g>
     </g>
    </g>
    <g id="xtick_5">
     <g id="line2d_5">
      <g>
       <use xlink:href="#mf25c15995e" x="331.739545" y="273.312" style="stroke: #000000; stroke-width: 0.8"/>
      </g>
     </g>
     <g id="text_5">
      <!-- 8 -->
      <g transform="translate(328.558295 287.910437) scale(0.1 -0.1)">
       <defs>
        <path id="DejaVuSans-38" d="M 2034 2216 
Q 1584 2216 1326 1975 
Q 1069 1734 1069 1313 
Q 1069 891 1326 650 
Q 1584 409 2034 409 
Q 2484 409 2743 651 
Q 3003 894 3003 1313 
Q 3003 1734 2745 1975 
Q 2488 2216 2034 2216 
z
M 1403 2484 
Q 997 2584 770 2862 
Q 544 3141 544 3541 
Q 544 4100 942 4425 
Q 1341 4750 2034 4750 
Q 2731 4750 3128 4425 
Q 3525 4100 3525 3541 
Q 3525 3141 3298 2862 
Q 3072 2584 2669 2484 
Q 3125 2378 3379 2068 
Q 3634 1759 3634 1313 
Q 3634 634 3220 271 
Q 2806 -91 2034 -91 
Q 1263 -91 848 271 
Q 434 634 434 1313 
Q 434 1759 690 2068 
Q 947 2378 1403 2484 
z
M 1172 3481 
Q 1172 3119 1398 2916 
Q 1625 2713 2034 2713 
Q 2441 2713 2670 2916 
Q 2900 3119 2900 3481 
Q 2900 3844 2670 4047 
Q 2441 4250 2034 4250 
Q 1625 4250 1398 4047 
Q 1172 3844 1172 3481 
z
" transform="scale(0.015625)"/>
       </defs>
       <use xlink:href="#DejaVuSans-38"/>
      </g>
     </g>
    </g>
   </g>
   <g id="matplotlib.axis_2">
    <g id="ytick_1">
     <g id="line2d_6">
      <defs>
       <path id="mf3c0410bee" d="M 0 0 
L -3.5 0 
" style="stroke: #000000; stroke-width: 0.8"/>
      </defs>
      <g>
       <use xlink:href="#mf3c0410bee" x="26.925" y="242.009847" style="stroke: #000000; stroke-width: 0.8"/>
      </g>
     </g>
     <g id="text_6">
      <!-- 0 -->
      <g transform="translate(13.5625 245.809066) scale(0.1 -0.1)">
       <use xlink:href="#DejaVuSans-30"/>
      </g>
     </g>
    </g>
    <g id="ytick_2">
     <g id="line2d_7">
      <g>
       <use xlink:href="#mf3c0410bee" x="26.925" y="188.560156" style="stroke: #000000; stroke-width: 0.8"/>
      </g>
     </g>
     <g id="text_7">
      <!-- 5 -->
      <g transform="translate(13.5625 192.359375) scale(0.1 -0.1)">
       <defs>
        <path id="DejaVuSans-35" d="M 691 4666 
L 3169 4666 
L 3169 4134 
L 1269 4134 
L 1269 2991 
Q 1406 3038 1543 3061 
Q 1681 3084 1819 3084 
Q 2600 3084 3056 2656 
Q 3513 2228 3513 1497 
Q 3513 744 3044 326 
Q 2575 -91 1722 -91 
Q 1428 -91 1123 -41 
Q 819 9 494 109 
L 494 744 
Q 775 591 1075 516 
Q 1375 441 1709 441 
Q 2250 441 2565 725 
Q 2881 1009 2881 1497 
Q 2881 1984 2565 2268 
Q 2250 2553 1709 2553 
Q 1456 2553 1204 2497 
Q 953 2441 691 2322 
L 691 4666 
z
" transform="scale(0.015625)"/>
       </defs>
       <use xlink:href="#DejaVuSans-35"/>
      </g>
     </g>
    </g>
    <g id="ytick_3">
     <g id="line2d_8">
      <g>
       <use xlink:href="#mf3c0410bee" x="26.925" y="135.110464" style="stroke: #000000; stroke-width: 0.8"/>
      </g>
     </g>
     <g id="text_8">
      <!-- 10 -->
      <g transform="translate(7.2 138.909683) scale(0.1 -0.1)">
       <defs>
        <path id="DejaVuSans-31" d="M 794 531 
L 1825 531 
L 1825 4091 
L 703 3866 
L 703 4441 
L 1819 4666 
L 2450 4666 
L 2450 531 
L 3481 531 
L 3481 0 
L 794 0 
L 794 531 
z
" transform="scale(0.015625)"/>
       </defs>
       <use xlink:href="#DejaVuSans-31"/>
       <use xlink:href="#DejaVuSans-30" transform="translate(63.623047 0)"/>
      </g>
     </g>
    </g>
    <g id="ytick_4">
     <g id="line2d_9">
      <g>
       <use xlink:href="#mf3c0410bee" x="26.925" y="81.660773" style="stroke: #000000; stroke-width: 0.8"/>
      </g>
     </g>
     <g id="text_9">
      <!-- 15 -->
      <g transform="translate(7.2 85.459992) scale(0.1 -0.1)">
       <use xlink:href="#DejaVuSans-31"/>
       <use xlink:href="#DejaVuSans-35" transform="translate(63.623047 0)"/>
      </g>
     </g>
    </g>
    <g id="ytick_5">
     <g id="line2d_10">
      <g>
       <use xlink:href="#mf3c0410bee" x="26.925" y="28.211081" style="stroke: #000000; stroke-width: 0.8"/>
      </g>
     </g>
     <g id="text_10">
      <!-- 20 -->
      <g transform="translate(7.2 32.0103) scale(0.1 -0.1)">
       <use xlink:href="#DejaVuSans-32"/>
       <use xlink:href="#DejaVuSans-30" transform="translate(63.623047 0)"/>
      </g>
     </g>
    </g>
   </g>
   <g id="line2d_11">
    <path d="M 43.157727 250.377217 
L 46.437066 248.143651 
L 49.716405 245.910085 
L 52.995744 243.67652 
L 56.275083 241.442954 
L 59.554421 239.209388 
L 62.83376 236.975822 
L 66.113099 234.742257 
L 69.392438 232.508691 
L 72.671777 230.275125 
L 75.951116 228.04156 
L 79.230455 225.807994 
L 82.509793 223.574428 
L 85.789132 221.340863 
L 89.068471 219.107297 
L 92.34781 216.873731 
L 95.627149 214.640165 
L 98.906488 212.4066 
L 102.185826 210.173034 
L 105.465165 207.939468 
L 108.744504 205.705903 
L 112.023843 203.472337 
L 115.303182 201.238771 
L 118.582521 199.005205 
L 121.86186 196.77164 
L 125.141198 194.538074 
L 128.420537 192.304508 
L 131.699876 190.070943 
L 134.979215 187.837377 
L 138.258554 185.603811 
L 141.537893 183.370246 
L 144.817231 181.13668 
L 148.09657 178.903114 
L 151.375909 176.669548 
L 154.655248 174.435983 
L 157.934587 172.202417 
L 161.213926 169.968851 
L 164.493264 167.735286 
L 167.772603 165.50172 
L 171.051942 163.268154 
L 174.331281 161.034588 
L 177.61062 158.801023 
L 180.889959 156.567457 
L 184.169298 154.333891 
L 187.448636 152.100326 
L 190.727975 149.86676 
L 194.007314 147.633194 
L 197.286653 145.399629 
L 200.565992 143.166063 
L 203.845331 140.932497 
L 207.124669 138.698931 
L 210.404008 136.465366 
L 213.683347 134.2318 
L 216.962686 131.998234 
L 220.242025 129.764669 
L 223.521364 127.531103 
L 226.800702 125.297537 
L 230.080041 123.063972 
L 233.35938 120.830406 
L 236.638719 118.59684 
L 239.918058 116.363274 
L 243.197397 114.129709 
L 246.476736 111.896143 
L 249.756074 109.662577 
L 253.035413 107.429012 
L 256.314752 105.195446 
L 259.594091 102.96188 
L 262.87343 100.728314 
L 266.152769 98.494749 
L 269.432107 96.261183 
L 272.711446 94.027617 
L 275.990785 91.794052 
L 279.270124 89.560486 
L 282.549463 87.32692 
L 285.828802 85.093355 
L 289.10814 82.859789 
L 292.387479 80.626223 
L 295.666818 78.392657 
L 298.946157 76.159092 
L 302.225496 73.925526 
L 305.504835 71.69196 
L 308.784174 69.458395 
L 312.063512 67.224829 
L 315.342851 64.991263 
L 318.62219 62.757697 
L 321.901529 60.524132 
L 325.180868 58.290566 
L 328.460207 56.057 
L 331.739545 53.823435 
L 335.018884 51.589869 
L 338.298223 49.356303 
L 341.577562 47.122738 
L 344.856901 44.889172 
L 348.13624 42.655606 
L 351.415579 40.42204 
L 354.694917 38.188475 
L 357.974256 35.954909 
L 361.253595 33.721343 
L 364.532934 31.487778 
L 367.812273 29.254212 
" clip-path="url(#p429a11f975)" style="fill: none; stroke: #1f77b4; stroke-width: 2.25; stroke-linecap: square"/>
   </g>
   <g id="patch_3">
    <path d="M 26.925 273.312 
L 26.925 7.2 
" style="fill: none; stroke: #000000; stroke-width: 0.8; stroke-linejoin: miter; stroke-linecap: square"/>
   </g>
   <g id="patch_4">
    <path d="M 384.045 273.312 
L 384.045 7.2 
" style="fill: none; stroke: #000000; stroke-width: 0.8; stroke-linejoin: miter; stroke-linecap: square"/>
   </g>
   <g id="patch_5">
    <path d="M 26.925 273.312 
L 384.045 273.312 
" style="fill: none; stroke: #000000; stroke-width: 0.8; stroke-linejoin: miter; stroke-linecap: square"/>
   </g>
   <g id="patch_6">
    <path d="M 26.925 7.2 
L 384.045 7.2 
" style="fill: none; stroke: #000000; stroke-width: 0.8; stroke-linejoin: miter; stroke-linecap: square"/>
   </g>
  </g>
 </g>
 <defs>
  <clipPath id="p429a11f975">
   <rect x="26.925" y="7.2" width="357.12" height="266.112"/>
  </clipPath>
 </defs>
</svg>