<?xml version="1.0" encoding="utf-8" standalone="no"?>
<!DOCTYPE svg PUBLIC "-//W3C//DTD SVG 1.1//EN"
  "http://www.w3.org/Graphics/SVG/1.1/DTD/svg11.dtd">
<svg xmlns:xlink="http://www.w3.org/1999/xlink" width="422.843437pt" height="310.86825pt" viewBox="0 0 422.843437 310.86825" xmlns="http://www.w3.org/2000/svg" version="1.1">
 <metadata>
  <rdf:RDF xmlns:dc="http://purl.org/dc/elements/1.1/" xmlns:cc="http://creativecommons.org/ns#" xmlns:rdf="http://www.w3.org/1999/02/22-rdf-syntax-ns#">
   <cc:Work>
    <dc:type rdf:resource="http://purl.org/dc/dcmitype/StillImage"/>
    <dc:date>2024-08-07T07:10:05.658810</dc:date>
    <dc:format>image/svg+xml</dc:format>
    <dc:creator>
     <cc:Agent>
      <dc:title>Matplotlib v3.9.1, https://matplotlib.org/</dc:title>
     </cc:Agent>
    </dc:creator>
   </cc:Work>
  </rdf:RDF>
 </metadata>
 <defs>
  <style type="text/css">*{stroke-linejoin: round; stroke-linecap: butt}</style>
 </defs>
 <g id="figure_1">
  <g id="patch_1">
   <path d="M 0 310.86825 
L 422.843437 310.86825 
L 422.843437 0 
L 0 0 
z
" style="fill: #ffffff"/>
  </g>
  <g id="axes_1">
   <g id="patch_2">
    <path d="M 58.523438 273.312 
L 415.643438 273.312 
L 415.643438 7.2 
L 58.523438 7.2 
z
" style="fill: #ffffff"/>
   </g>
   <g id="matplotlib.axis_1">
    <g id="xtick_1">
     <g id="line2d_1">
      <defs>
       <path id="ma17c9f5b41" d="M 0 0 
L 0 3.5 
" style="stroke: #000000; stroke-width: 0.8"/>
      </defs>
      <g>
       <use xlink:href="#ma17c9f5b41" x="72.54763" y="273.312" style="stroke: #000000; stroke-width: 0.8"/>
      </g>
     </g>
     <g id="text_1">
      <!-- 0 -->
      <g transform="translate(69.36638 287.910437) scale(0.1 -0.1)">
       <defs>
        <path id="DejaVuSans-30" d="M 2034 4250 
Q 1547 4250 1301 3770 
Q 1056 3291 1056 2328 
Q 1056 1369 1301 889 
Q 1547 409 2034 409 
Q 2525 409 2770 889 
Q 3016 1369 3016 2328 
Q 3016 3291 2770 3770 
Q 2525 4250 2034 4250 
z
M 2034 4750 
Q 2819 4750 3233 4129 
Q 3647 3509 3647 2328 
Q 3647 1150 3233 529 
Q 2819 -91 2034 -91 
Q 1250 -91 836 529 
Q 422 1150 422 2328 
Q 422 3509 836 4129 
Q 1250 4750 2034 4750 
z
" transform="scale(0.015625)"/>
       </defs>
       <use xlink:href="#DejaVuSans-30"/>
      </g>
     </g>
    </g>
    <g id="xtick_2">
     <g id="line2d_2">
      <g>
       <use xlink:href="#ma17c9f5b41" x="116.718317" y="273.312" style="stroke: #000000; stroke-width: 0.8"/>
      </g>
     </g>
     <g id="text_2">
      <!-- 5 -->
      <g transform="translate(113.537067 287.910437) scale(0.1 -0.1)">
       <defs>
        <path id="DejaVuSans-35" d="M 691 4666 
L 3169 4666 
L 3169 4134 
L 1269 4134 
L 1269 2991 
Q 1406 3038 1543 3061 
Q 1681 3084 1819 3084 
Q 2600 3084 3056 2656 
Q 3513 2228 3513 1497 
Q 3513 744 3044 326 
Q 2575 -91 1722 -91 
Q 1428 -91 1123 -41 
Q 819 9 494 109 
L 494 744 
Q 775 591 1075 516 
Q 1375 441 1709 441 
Q 2250 441 2565 725 
Q 2881 1009 2881 1497 
Q 2881 1984 2565 2268 
Q 2250 2553 1709 2553 
Q 1456 2553 1204 2497 
Q 953 2441 691 2322 
L 691 4666 
z
" transform="scale(0.015625)"/>
       </defs>
       <use xlink:href="#DejaVuSans-35"/>
      </g>
     </g>
    </g>
    <g id="xtick_3">
     <g id="line2d_3">
      <g>
       <use xlink:href="#ma17c9f5b41" x="160.889003" y="273.312" style="stroke: #000000; stroke-width: 0.8"/>
      </g>
     </g>
     <g id="text_3">
      <!-- 10 -->
      <g transform="translate(154.526503 287.910437) scale(0.1 -0.1)">
       <defs>
        <path id="DejaVuSans-31" d="M 794 531 
L 1825 531 
L 1825 4091 
L 703 3866 
L 703 4441 
L 1819 4666 
L 2450 4666 
L 2450 531 
L 3481 531 
L 3481 0 
L 794 0 
L 794 531 
z
" transform="scale(0.015625)"/>
       </defs>
       <use xlink:href="#DejaVuSans-31"/>
       <use xlink:href="#DejaVuSans-30" x="63.623047"/>
      </g>
     </g>
    </g>
    <g id="xtick_4">
     <g id="line2d_4">
      <g>
       <use xlink:href="#ma17c9f5b41" x="205.05969" y="273.312" style="stroke: #000000; stroke-width: 0.8"/>
      </g>
     </g>
     <g id="text_4">
      <!-- 15 -->
      <g transform="translate(198.69719 287.910437) scale(0.1 -0.1)">
       <use xlink:href="#DejaVuSans-31"/>
       <use xlink:href="#DejaVuSans-35" x="63.623047"/>
      </g>
     </g>
    </g>
    <g id="xtick_5">
     <g id="line2d_5">
      <g>
       <use xlink:href="#ma17c9f5b41" x="249.230376" y="273.312" style="stroke: #000000; stroke-width: 0.8"/>
      </g>
     </g>
     <g id="text_5">
      <!-- 20 -->
      <g transform="translate(242.867876 287.910437) scale(0.1 -0.1)">
       <defs>
        <path id="DejaVuSans-32" d="M 1228 531 
L 3431 531 
L 3431 0 
L 469 0 
L 469 531 
Q 828 903 1448 1529 
Q 2069 2156 2228 2338 
Q 2531 2678 2651 2914 
Q 2772 3150 2772 3378 
Q 2772 3750 2511 3984 
Q 2250 4219 1831 4219 
Q 1534 4219 1204 4116 
Q 875 4013 500 3803 
L 500 4441 
Q 881 4594 1212 4672 
Q 1544 4750 1819 4750 
Q 2544 4750 2975 4387 
Q 3406 4025 3406 3419 
Q 3406 3131 3298 2873 
Q 3191 2616 2906 2266 
Q 2828 2175 2409 1742 
Q 1991 1309 1228 531 
z
" transform="scale(0.015625)"/>
       </defs>
       <use xlink:href="#DejaVuSans-32"/>
       <use xlink:href="#DejaVuSans-30" x="63.623047"/>
      </g>
     </g>
    </g>
    <g id="xtick_6">
     <g id="line2d_6">
      <g>
       <use xlink:href="#ma17c9f5b41" x="293.401063" y="273.312" style="stroke: #000000; stroke-width: 0.8"/>
      </g>
     </g>
     <g id="text_6">
      <!-- 25 -->
      <g transform="translate(287.038563 287.910437) scale(0.1 -0.1)">
       <use xlink:href="#DejaVuSans-32"/>
       <use xlink:href="#DejaVuSans-35" x="63.623047"/>
      </g>
     </g>
    </g>
    <g id="xtick_7">
     <g id="line2d_7">
      <g>
       <use xlink:href="#ma17c9f5b41" x="337.571749" y="273.312" style="stroke: #000000; stroke-width: 0.8"/>
      </g>
     </g>
     <g id="text_7">
      <!-- 30 -->
      <g transform="translate(331.209249 287.910437) scale(0.1 -0.1)">
       <defs>
        <path id="DejaVuSans-33" d="M 2597 2516 
Q 3050 2419 3304 2112 
Q 3559 1806 3559 1356 
Q 3559 666 3084 287 
Q 2609 -91 1734 -91 
Q 1441 -91 1130 -33 
Q 819 25 488 141 
L 488 750 
Q 750 597 1062 519 
Q 1375 441 1716 441 
Q 2309 441 2620 675 
Q 2931 909 2931 1356 
Q 2931 1769 2642 2001 
Q 2353 2234 1838 2234 
L 1294 2234 
L 1294 2753 
L 1863 2753 
Q 2328 2753 2575 2939 
Q 2822 3125 2822 3475 
Q 2822 3834 2567 4026 
Q 2313 4219 1838 4219 
Q 1578 4219 1281 4162 
Q 984 4106 628 3988 
L 628 4550 
Q 988 4650 1302 4700 
Q 1616 4750 1894 4750 
Q 2613 4750 3031 4423 
Q 3450 4097 3450 3541 
Q 3450 3153 3228 2886 
Q 3006 2619 2597 2516 
z
" transform="scale(0.015625)"/>
       </defs>
       <use xlink:href="#DejaVuSans-33"/>
       <use xlink:href="#DejaVuSans-30" x="63.623047"/>
      </g>
     </g>
    </g>
    <g id="xtick_8">
     <g id="line2d_8">
      <g>
       <use xlink:href="#ma17c9f5b41" x="381.742436" y="273.312" style="stroke: #000000; stroke-width: 0.8"/>
      </g>
     </g>
     <g id="text_8">
      <!-- 35 -->
      <g transform="translate(375.379936 287.910437) scale(0.1 -0.1)">
       <use xlink:href="#DejaVuSans-33"/>
       <use xlink:href="#DejaVuSans-35" x="63.623047"/>
      </g>
     </g>
    </g>
    <g id="text_9">
     <!-- X Values -->
     <g transform="translate(215.733438 301.588562) scale(0.1 -0.1)">
      <defs>
       <path id="DejaVuSans-58" d="M 403 4666 
L 1081 4666 
L 2241 2931 
L 3406 4666 
L 4084 4666 
L 2584 2425 
L 4184 0 
L 3506 0 
L 2194 1984 
L 872 0 
L 191 0 
L 1856 2491 
L 403 4666 
z
" transform="scale(0.015625)"/>
       <path id="DejaVuSans-20" transform="scale(0.015625)"/>
       <path id="DejaVuSans-56" d="M 1831 0 
L 50 4666 
L 709 4666 
L 2188 738 
L 3669 4666 
L 4325 4666 
L 2547 0 
L 1831 0 
z
" transform="scale(0.015625)"/>
       <path id="DejaVuSans-61" d="M 2194 1759 
Q 1497 1759 1228 1600 
Q 959 1441 959 1056 
Q 959 750 1161 570 
Q 1363 391 1709 391 
Q 2188 391 2477 730 
Q 2766 1069 2766 1631 
L 2766 1759 
L 2194 1759 
z
M 3341 1997 
L 3341 0 
L 2766 0 
L 2766 531 
Q 2569 213 2275 61 
Q 1981 -91 1556 -91 
Q 1019 -91 701 211 
Q 384 513 384 1019 
Q 384 1609 779 1909 
Q 1175 2209 1959 2209 
L 2766 2209 
L 2766 2266 
Q 2766 2663 2505 2880 
Q 2244 3097 1772 3097 
Q 1472 3097 1187 3025 
Q 903 2953 641 2809 
L 641 3341 
Q 956 3463 1253 3523 
Q 1550 3584 1831 3584 
Q 2591 3584 2966 3190 
Q 3341 2797 3341 1997 
z
" transform="scale(0.015625)"/>
       <path id="DejaVuSans-6c" d="M 603 4863 
L 1178 4863 
L 1178 0 
L 603 0 
L 603 4863 
z
" transform="scale(0.015625)"/>
       <path id="DejaVuSans-75" d="M 544 1381 
L 544 3500 
L 1119 3500 
L 1119 1403 
Q 1119 906 1312 657 
Q 1506 409 1894 409 
Q 2359 409 2629 706 
Q 2900 1003 2900 1516 
L 2900 3500 
L 3475 3500 
L 3475 0 
L 2900 0 
L 2900 538 
Q 2691 219 2414 64 
Q 2138 -91 1772 -91 
Q 1169 -91 856 284 
Q 544 659 544 1381 
z
M 1991 3584 
L 1991 3584 
z
" transform="scale(0.015625)"/>
       <path id="DejaVuSans-65" d="M 3597 1894 
L 3597 1613 
L 953 1613 
Q 991 1019 1311 708 
Q 1631 397 2203 397 
Q 2534 397 2845 478 
Q 3156 559 3463 722 
L 3463 178 
Q 3153 47 2828 -22 
Q 2503 -91 2169 -91 
Q 1331 -91 842 396 
Q 353 884 353 1716 
Q 353 2575 817 3079 
Q 1281 3584 2069 3584 
Q 2775 3584 3186 3129 
Q 3597 2675 3597 1894 
z
M 3022 2063 
Q 3016 2534 2758 2815 
Q 2500 3097 2075 3097 
Q 1594 3097 1305 2825 
Q 1016 2553 972 2059 
L 3022 2063 
z
" transform="scale(0.015625)"/>
       <path id="DejaVuSans-73" d="M 2834 3397 
L 2834 2853 
Q 2591 2978 2328 3040 
Q 2066 3103 1784 3103 
Q 1356 3103 1142 2972 
Q 928 2841 928 2578 
Q 928 2378 1081 2264 
Q 1234 2150 1697 2047 
L 1894 2003 
Q 2506 1872 2764 1633 
Q 3022 1394 3022 966 
Q 3022 478 2636 193 
Q 2250 -91 1575 -91 
Q 1294 -91 989 -36 
Q 684 19 347 128 
L 347 722 
Q 666 556 975 473 
Q 1284 391 1588 391 
Q 1994 391 2212 530 
Q 2431 669 2431 922 
Q 2431 1156 2273 1281 
Q 2116 1406 1581 1522 
L 1381 1569 
Q 847 1681 609 1914 
Q 372 2147 372 2553 
Q 372 3047 722 3315 
Q 1072 3584 1716 3584 
Q 2034 3584 2315 3537 
Q 2597 3491 2834 3397 
z
" transform="scale(0.015625)"/>
      </defs>
      <use xlink:href="#DejaVuSans-58"/>
      <use xlink:href="#DejaVuSans-20" x="68.505859"/>
      <use xlink:href="#DejaVuSans-56" x="100.292969"/>
      <use xlink:href="#DejaVuSans-61" x="160.951172"/>
      <use xlink:href="#DejaVuSans-6c" x="222.230469"/>
      <use xlink:href="#DejaVuSans-75" x="250.013672"/>
      <use xlink:href="#DejaVuSans-65" x="313.392578"/>
      <use xlink:href="#DejaVuSans-73" x="374.916016"/>
     </g>
    </g>
   </g>
   <g id="matplotlib.axis_2">
    <g id="ytick_1">
     <g id="line2d_9">
      <defs>
       <path id="mba64032802" d="M 0 0 
L -3.5 0 
" style="stroke: #000000; stroke-width: 0.8"/>
      </defs>
      <g>
       <use xlink:href="#mba64032802" x="58.523438" y="261.174474" style="stroke: #000000; stroke-width: 0.8"/>
      </g>
     </g>
     <g id="text_10">
      <!-- −0.05 -->
      <g transform="translate(20.878125 264.973692) scale(0.1 -0.1)">
       <defs>
        <path id="DejaVuSans-2212" d="M 678 2272 
L 4684 2272 
L 4684 1741 
L 678 1741 
L 678 2272 
z
" transform="scale(0.015625)"/>
        <path id="DejaVuSans-2e" d="M 684 794 
L 1344 794 
L 1344 0 
L 684 0 
L 684 794 
z
" transform="scale(0.015625)"/>
       </defs>
       <use xlink:href="#DejaVuSans-2212"/>
       <use xlink:href="#DejaVuSans-30" x="83.789062"/>
       <use xlink:href="#DejaVuSans-2e" x="147.412109"/>
       <use xlink:href="#DejaVuSans-30" x="179.199219"/>
       <use xlink:href="#DejaVuSans-35" x="242.822266"/>
      </g>
     </g>
    </g>
    <g id="ytick_2">
     <g id="line2d_10">
      <g>
       <use xlink:href="#mba64032802" x="58.523438" y="226.295921" style="stroke: #000000; stroke-width: 0.8"/>
      </g>
     </g>
     <g id="text_11">
      <!-- 0.00 -->
      <g transform="translate(29.257813 230.09514) scale(0.1 -0.1)">
       <use xlink:href="#DejaVuSans-30"/>
       <use xlink:href="#DejaVuSans-2e" x="63.623047"/>
       <use xlink:href="#DejaVuSans-30" x="95.410156"/>
       <use xlink:href="#DejaVuSans-30" x="159.033203"/>
      </g>
     </g>
    </g>
    <g id="ytick_3">
     <g id="line2d_11">
      <g>
       <use xlink:href="#mba64032802" x="58.523438" y="191.417369" style="stroke: #000000; stroke-width: 0.8"/>
      </g>
     </g>
     <g id="text_12">
      <!-- 0.05 -->
      <g transform="translate(29.257813 195.216587) scale(0.1 -0.1)">
       <use xlink:href="#DejaVuSans-30"/>
       <use xlink:href="#DejaVuSans-2e" x="63.623047"/>
       <use xlink:href="#DejaVuSans-30" x="95.410156"/>
       <use xlink:href="#DejaVuSans-35" x="159.033203"/>
      </g>
     </g>
    </g>
    <g id="ytick_4">
     <g id="line2d_12">
      <g>
       <use xlink:href="#mba64032802" x="58.523438" y="156.538816" style="stroke: #000000; stroke-width: 0.8"/>
      </g>
     </g>
     <g id="text_13">
      <!-- 0.10 -->
      <g transform="translate(29.257813 160.338035) scale(0.1 -0.1)">
       <use xlink:href="#DejaVuSans-30"/>
       <use xlink:href="#DejaVuSans-2e" x="63.623047"/>
       <use xlink:href="#DejaVuSans-31" x="95.410156"/>
       <use xlink:href="#DejaVuSans-30" x="159.033203"/>
      </g>
     </g>
    </g>
    <g id="ytick_5">
     <g id="line2d_13">
      <g>
       <use xlink:href="#mba64032802" x="58.523438" y="121.660263" style="stroke: #000000; stroke-width: 0.8"/>
      </g>
     </g>
     <g id="text_14">
      <!-- 0.15 -->
      <g transform="translate(29.257813 125.459482) scale(0.1 -0.1)">
       <use xlink:href="#DejaVuSans-30"/>
       <use xlink:href="#DejaVuSans-2e" x="63.623047"/>
       <use xlink:href="#DejaVuSans-31" x="95.410156"/>
       <use xlink:href="#DejaVuSans-35" x="159.033203"/>
      </g>
     </g>
    </g>
    <g id="ytick_6">
     <g id="line2d_14">
      <g>
       <use xlink:href="#mba64032802" x="58.523438" y="86.781711" style="stroke: #000000; stroke-width: 0.8"/>
      </g>
     </g>
     <g id="text_15">
      <!-- 0.20 -->
      <g transform="translate(29.257813 90.58093) scale(0.1 -0.1)">
       <use xlink:href="#DejaVuSans-30"/>
       <use xlink:href="#DejaVuSans-2e" x="63.623047"/>
       <use xlink:href="#DejaVuSans-32" x="95.410156"/>
       <use xlink:href="#DejaVuSans-30" x="159.033203"/>
      </g>
     </g>
    </g>
    <g id="ytick_7">
     <g id="line2d_15">
      <g>
       <use xlink:href="#mba64032802" x="58.523438" y="51.903158" style="stroke: #000000; stroke-width: 0.8"/>
      </g>
     </g>
     <g id="text_16">
      <!-- 0.25 -->
      <g transform="translate(29.257813 55.702377) scale(0.1 -0.1)">
       <use xlink:href="#DejaVuSans-30"/>
       <use xlink:href="#DejaVuSans-2e" x="63.623047"/>
       <use xlink:href="#DejaVuSans-32" x="95.410156"/>
       <use xlink:href="#DejaVuSans-35" x="159.033203"/>
      </g>
     </g>
    </g>
    <g id="ytick_8">
     <g id="line2d_16">
      <g>
       <use xlink:href="#mba64032802" x="58.523438" y="17.024606" style="stroke: #000000; stroke-width: 0.8"/>
      </g>
     </g>
     <g id="text_17">
      <!-- 0.30 -->
      <g transform="translate(29.257813 20.823824) scale(0.1 -0.1)">
       <use xlink:href="#DejaVuSans-30"/>
       <use xlink:href="#DejaVuSans-2e" x="63.623047"/>
       <use xlink:href="#DejaVuSans-33" x="95.410156"/>
       <use xlink:href="#DejaVuSans-30" x="159.033203"/>
      </g>
     </g>
    </g>
    <g id="text_18">
     <!-- Y Values -->
     <g transform="translate(14.798438 161.234906) rotate(-90) scale(0.1 -0.1)">
      <defs>
       <path id="DejaVuSans-59" d="M -13 4666 
L 666 4666 
L 1959 2747 
L 3244 4666 
L 3922 4666 
L 2272 2222 
L 2272 0 
L 1638 0 
L 1638 2222 
L -13 4666 
z
" transform="scale(0.015625)"/>
      </defs>
      <use xlink:href="#DejaVuSans-59"/>
      <use xlink:href="#DejaVuSans-20" x="61.083984"/>
      <use xlink:href="#DejaVuSans-56" x="92.871094"/>
      <use xlink:href="#DejaVuSans-61" x="153.529297"/>
      <use xlink:href="#DejaVuSans-6c" x="214.808594"/>
      <use xlink:href="#DejaVuSans-75" x="242.591797"/>
      <use xlink:href="#DejaVuSans-65" x="305.970703"/>
      <use xlink:href="#DejaVuSans-73" x="367.494141"/>
     </g>
    </g>
   </g>
   <g id="line2d_17">
    <path d="M 74.756165 19.296 
L 81.381768 147.916752 
L 88.007371 217.278389 
L 94.632974 250.065606 
L 101.258577 261.216 
L 107.88418 260.372567 
L 114.509783 253.600385 
L 121.135386 244.579621 
L 127.760989 235.427685 
L 134.386591 227.260236 
L 141.012194 220.569474 
L 147.637797 215.475517 
L 154.2634 211.89041 
L 160.889003 209.62259 
L 167.514606 208.441266 
L 174.140209 208.114242 
L 180.765812 208.428466 
L 187.391415 209.199652 
L 194.017018 210.27522 
L 200.642621 211.533362 
L 207.268224 212.880078 
L 213.893827 214.245304 
L 220.51943 215.578853 
L 227.145033 216.846548 
L 233.770636 218.026766 
L 240.396239 219.107467 
L 247.021842 220.083721 
L 253.647445 220.955703 
L 260.273048 221.727107 
L 266.898651 222.403916 
L 273.524254 222.993468 
L 280.149857 223.503768 
L 286.77546 223.942993 
L 293.401063 224.319144 
L 300.026666 224.639825 
L 306.652269 224.912097 
L 313.277872 225.142407 
L 319.903475 225.336559 
L 326.529078 225.499718 
L 333.154681 225.636437 
L 339.780284 225.750694 
L 346.405886 225.845944 
L 353.031489 225.925166 
L 359.657092 225.990916 
L 366.282695 226.045376 
L 372.908298 226.090398 
L 379.533901 226.127553 
L 386.159504 226.158164 
L 392.785107 226.183345 
L 399.41071 226.204027 
" clip-path="url(#p3abc937c52)" style="fill: none; stroke: #008000; stroke-width: 1.5; stroke-linecap: square"/>
    <defs>
     <path id="me4e3df6aea" d="M 0 3 
C 0.795609 3 1.55874 2.683901 2.12132 2.12132 
C 2.683901 1.55874 3 0.795609 3 0 
C 3 -0.795609 2.683901 -1.55874 2.12132 -2.12132 
C 1.55874 -2.683901 0.795609 -3 0 -3 
C -0.795609 -3 -1.55874 -2.683901 -2.12132 -2.12132 
C -2.683901 -1.55874 -3 -0.795609 -3 0 
C -3 0.795609 -2.683901 1.55874 -2.12132 2.12132 
C -1.55874 2.683901 -0.795609 3 0 3 
z
" style="stroke: #008000"/>
    </defs>
    <g clip-path="url(#p3abc937c52)">
     <use xlink:href="#me4e3df6aea" x="74.756165" y="19.296" style="fill: #008000; stroke: #008000"/>
     <use xlink:href="#me4e3df6aea" x="81.381768" y="147.916752" style="fill: #008000; stroke: #008000"/>
     <use xlink:href="#me4e3df6aea" x="88.007371" y="217.278389" style="fill: #008000; stroke: #008000"/>
     <use xlink:href="#me4e3df6aea" x="94.632974" y="250.065606" style="fill: #008000; stroke: #008000"/>
     <use xlink:href="#me4e3df6aea" x="101.258577" y="261.216" style="fill: #008000; stroke: #008000"/>
     <use xlink:href="#me4e3df6aea" x="107.88418" y="260.372567" style="fill: #008000; stroke: #008000"/>
     <use xlink:href="#me4e3df6aea" x="114.509783" y="253.600385" style="fill: #008000; stroke: #008000"/>
     <use xlink:href="#me4e3df6aea" x="121.135386" y="244.579621" style="fill: #008000; stroke: #008000"/>
     <use xlink:href="#me4e3df6aea" x="127.760989" y="235.427685" style="fill: #008000; stroke: #008000"/>
     <use xlink:href="#me4e3df6aea" x="134.386591" y="227.260236" style="fill: #008000; stroke: #008000"/>
     <use xlink:href="#me4e3df6aea" x="141.012194" y="220.569474" style="fill: #008000; stroke: #008000"/>
     <use xlink:href="#me4e3df6aea" x="147.637797" y="215.475517" style="fill: #008000; stroke: #008000"/>
     <use xlink:href="#me4e3df6aea" x="154.2634" y="211.89041" style="fill: #008000; stroke: #008000"/>
     <use xlink:href="#me4e3df6aea" x="160.889003" y="209.62259" style="fill: #008000; stroke: #008000"/>
     <use xlink:href="#me4e3df6aea" x="167.514606" y="208.441266" style="fill: #008000; stroke: #008000"/>
     <use xlink:href="#me4e3df6aea" x="174.140209" y="208.114242" style="fill: #008000; stroke: #008000"/>
     <use xlink:href="#me4e3df6aea" x="180.765812" y="208.428466" style="fill: #008000; stroke: #008000"/>
     <use xlink:href="#me4e3df6aea" x="187.391415" y="209.199652" style="fill: #008000; stroke: #008000"/>
     <use xlink:href="#me4e3df6aea" x="194.017018" y="210.27522" style="fill: #008000; stroke: #008000"/>
     <use xlink:href="#me4e3df6aea" x="200.642621" y="211.533362" style="fill: #008000; stroke: #008000"/>
     <use xlink:href="#me4e3df6aea" x="207.268224" y="212.880078" style="fill: #008000; stroke: #008000"/>
     <use xlink:href="#me4e3df6aea" x="213.893827" y="214.245304" style="fill: #008000; stroke: #008000"/>
     <use xlink:href="#me4e3df6aea" x="220.51943" y="215.578853" style="fill: #008000; stroke: #008000"/>
     <use xlink:href="#me4e3df6aea" x="227.145033" y="216.846548" style="fill: #008000; stroke: #008000"/>
     <use xlink:href="#me4e3df6aea" x="233.770636" y="218.026766" style="fill: #008000; stroke: #008000"/>
     <use xlink:href="#me4e3df6aea" x="240.396239" y="219.107467" style="fill: #008000; stroke: #008000"/>
     <use xlink:href="#me4e3df6aea" x="247.021842" y="220.083721" style="fill: #008000; stroke: #008000"/>
     <use xlink:href="#me4e3df6aea" x="253.647445" y="220.955703" style="fill: #008000; stroke: #008000"/>
     <use xlink:href="#me4e3df6aea" x="260.273048" y="221.727107" style="fill: #008000; stroke: #008000"/>
     <use xlink:href="#me4e3df6aea" x="266.898651" y="222.403916" style="fill: #008000; stroke: #008000"/>
     <use xlink:href="#me4e3df6aea" x="273.524254" y="222.993468" style="fill: #008000; stroke: #008000"/>
     <use xlink:href="#me4e3df6aea" x="280.149857" y="223.503768" style="fill: #008000; stroke: #008000"/>
     <use xlink:href="#me4e3df6aea" x="286.77546" y="223.942993" style="fill: #008000; stroke: #008000"/>
     <use xlink:href="#me4e3df6aea" x="293.401063" y="224.319144" style="fill: #008000; stroke: #008000"/>
     <use xlink:href="#me4e3df6aea" x="300.026666" y="224.639825" style="fill: #008000; stroke: #008000"/>
     <use xlink:href="#me4e3df6aea" x="306.652269" y="224.912097" style="fill: #008000; stroke: #008000"/>
     <use xlink:href="#me4e3df6aea" x="313.277872" y="225.142407" style="fill: #008000; stroke: #008000"/>
     <use xlink:href="#me4e3df6aea" x="319.903475" y="225.336559" style="fill: #008000; stroke: #008000"/>
     <use xlink:href="#me4e3df6aea" x="326.529078" y="225.499718" style="fill: #008000; stroke: #008000"/>
     <use xlink:href="#me4e3df6aea" x="333.154681" y="225.636437" style="fill: #008000; stroke: #008000"/>
     <use xlink:href="#me4e3df6aea" x="339.780284" y="225.750694" style="fill: #008000; stroke: #008000"/>
     <use xlink:href="#me4e3df6aea" x="346.405886" y="225.845944" style="fill: #008000; stroke: #008000"/>
     <use xlink:href="#me4e3df6aea" x="353.031489" y="225.925166" style="fill: #008000; stroke: #008000"/>
     <use xlink:href="#me4e3df6aea" x="359.657092" y="225.990916" style="fill: #008000; stroke: #008000"/>
     <use xlink:href="#me4e3df6aea" x="366.282695" y="226.045376" style="fill: #008000; stroke: #008000"/>
     <use xlink:href="#me4e3df6aea" x="372.908298" y="226.090398" style="fill: #008000; stroke: #008000"/>
     <use xlink:href="#me4e3df6aea" x="379.533901" y="226.127553" style="fill: #008000; stroke: #008000"/>
     <use xlink:href="#me4e3df6aea" x="386.159504" y="226.158164" style="fill: #008000; stroke: #008000"/>
     <use xlink:href="#me4e3df6aea" x="392.785107" y="226.183345" style="fill: #008000; stroke: #008000"/>
     <use xlink:href="#me4e3df6aea" x="399.41071" y="226.204027" style="fill: #008000; stroke: #008000"/>
    </g>
   </g>
   <g id="patch_3">
    <path d="M 58.523438 273.312 
L 58.523438 7.2 
" style="fill: none; stroke: #000000; stroke-width: 0.8; stroke-linejoin: miter; stroke-linecap: square"/>
   </g>
   <g id="patch_4">
    <path d="M 415.643438 273.312 
L 415.643438 7.2 
" style="fill: none; stroke: #000000; stroke-width: 0.8; stroke-linejoin: miter; stroke-linecap: square"/>
   </g>
   <g id="patch_5">
    <path d="M 58.523438 273.312 
L 415.643438 273.312 
" style="fill: none; stroke: #000000; stroke-width: 0.8; stroke-linejoin: miter; stroke-linecap: square"/>
   </g>
   <g id="patch_6">
    <path d="M 58.523438 7.2 
L 415.643438 7.2 
" style="fill: none; stroke: #000000; stroke-width: 0.8; stroke-linejoin: miter; stroke-linecap: square"/>
   </g>
  </g>
 </g>
 <defs>
  <clipPath id="p3abc937c52">
   <rect x="58.523438" y="7.2" width="357.12" height="266.112"/>
  </clipPath>
 </defs>
</svg>