<?xml version="1.0" encoding="utf-8" standalone="no"?>
<!DOCTYPE svg PUBLIC "-//W3C//DTD SVG 1.1//EN"
  "http://www.w3.org/Graphics/SVG/1.1/DTD/svg11.dtd">
<svg xmlns:xlink="http://www.w3.org/1999/xlink" width="532.7175pt" height="351.99625pt" viewBox="0 0 532.7175 351.99625" xmlns="http://www.w3.org/2000/svg" version="1.1">
 <metadata>
  <rdf:RDF xmlns:dc="http://purl.org/dc/elements/1.1/" xmlns:cc="http://creativecommons.org/ns#" xmlns:rdf="http://www.w3.org/1999/02/22-rdf-syntax-ns#">
   <cc:Work>
    <dc:type rdf:resource="http://purl.org/dc/dcmitype/StillImage"/>
    <dc:date>2025-12-29T19:36:36.617069</dc:date>
    <dc:format>image/svg+xml</dc:format>
    <dc:creator>
     <cc:Agent>
      <dc:title>Matplotlib v3.10.3, https://matplotlib.org/</dc:title>
     </cc:Agent>
    </dc:creator>
   </cc:Work>
  </rdf:RDF>
 </metadata>
 <defs>
  <style type="text/css">*{stroke-linejoin: round; stroke-linecap: butt}</style>
 </defs>
 <g id="figure_1">
  <g id="patch_1">
   <path d="M 0 351.99625 
L 532.7175 351.99625 
L 532.7175 0 
L 0 0 
z
" style="fill: #ffffff"/>
  </g>
  <g id="axes_1">
   <g id="patch_2">
    <path d="M 47.1875 314.44 
L 525.5175 314.44 
L 525.5175 7.2 
L 47.1875 7.2 
z
" style="fill: #ffffff"/>
   </g>
   <g id="PathCollection_1">
    <defs>
     <path id="m0101638132" d="M 0 3 
C 0.795609 3 1.55874 2.683901 2.12132 2.12132 
C 2.683901 1.55874 3 0.795609 3 0 
C 3 -0.795609 2.683901 -1.55874 2.12132 -2.12132 
C 1.55874 -2.683901 0.795609 -3 0 -3 
C -0.795609 -3 -1.55874 -2.683901 -2.12132 -2.12132 
C -2.683901 -1.55874 -3 -0.795609 -3 0 
C -3 0.795609 -2.683901 1.55874 -2.12132 2.12132 
C -1.55874 2.683901 -0.795609 3 0 3 
z
" style="stroke: #1f77b4; stroke-opacity: 0.8"/>
    </defs>
    <g clip-path="url(#p35df418db3)">
     <use xlink:href="#m0101638132" x="68.929773" y="254.016012" style="fill: #1f77b4; fill-opacity: 0.8; stroke: #1f77b4; stroke-opacity: 0.8"/>
     <use xlink:href="#m0101638132" x="113.043162" y="237.692743" style="fill: #1f77b4; fill-opacity: 0.8; stroke: #1f77b4; stroke-opacity: 0.8"/>
     <use xlink:href="#m0101638132" x="157.156551" y="212.580022" style="fill: #1f77b4; fill-opacity: 0.8; stroke: #1f77b4; stroke-opacity: 0.8"/>
     <use xlink:href="#m0101638132" x="201.238498" y="187.467301" style="fill: #1f77b4; fill-opacity: 0.8; stroke: #1f77b4; stroke-opacity: 0.8"/>
     <use xlink:href="#m0101638132" x="245.351887" y="161.098944" style="fill: #1f77b4; fill-opacity: 0.8; stroke: #1f77b4; stroke-opacity: 0.8"/>
     <use xlink:href="#m0101638132" x="289.465277" y="138.497495" style="fill: #1f77b4; fill-opacity: 0.8; stroke: #1f77b4; stroke-opacity: 0.8"/>
     <use xlink:href="#m0101638132" x="333.547224" y="114.64041" style="fill: #1f77b4; fill-opacity: 0.8; stroke: #1f77b4; stroke-opacity: 0.8"/>
     <use xlink:href="#m0101638132" x="377.660613" y="90.783325" style="fill: #1f77b4; fill-opacity: 0.8; stroke: #1f77b4; stroke-opacity: 0.8"/>
     <use xlink:href="#m0101638132" x="421.74256" y="69.437512" style="fill: #1f77b4; fill-opacity: 0.8; stroke: #1f77b4; stroke-opacity: 0.8"/>
     <use xlink:href="#m0101638132" x="465.855949" y="44.324791" style="fill: #1f77b4; fill-opacity: 0.8; stroke: #1f77b4; stroke-opacity: 0.8"/>
     <use xlink:href="#m0101638132" x="201.238498" y="200.023662" style="fill: #1f77b4; fill-opacity: 0.8; stroke: #1f77b4; stroke-opacity: 0.8"/>
     <use xlink:href="#m0101638132" x="201.238498" y="231.414563" style="fill: #1f77b4; fill-opacity: 0.8; stroke: #1f77b4; stroke-opacity: 0.8"/>
     <use xlink:href="#m0101638132" x="245.351887" y="171.144032" style="fill: #1f77b4; fill-opacity: 0.8; stroke: #1f77b4; stroke-opacity: 0.8"/>
     <use xlink:href="#m0101638132" x="289.465277" y="166.121488" style="fill: #1f77b4; fill-opacity: 0.8; stroke: #1f77b4; stroke-opacity: 0.8"/>
     <use xlink:href="#m0101638132" x="333.547224" y="159.843308" style="fill: #1f77b4; fill-opacity: 0.8; stroke: #1f77b4; stroke-opacity: 0.8"/>
     <use xlink:href="#m0101638132" x="264.091431" y="107.106594" style="fill: #1f77b4; fill-opacity: 0.8; stroke: #1f77b4; stroke-opacity: 0.8"/>
     <use xlink:href="#m0101638132" x="308.20482" y="81.993873" style="fill: #1f77b4; fill-opacity: 0.8; stroke: #1f77b4; stroke-opacity: 0.8"/>
     <use xlink:href="#m0101638132" x="396.400157" y="59.392424" style="fill: #1f77b4; fill-opacity: 0.8; stroke: #1f77b4; stroke-opacity: 0.8"/>
    </g>
   </g>
   <g id="FillBetweenPolyCollection_1">
    <path d="M 68.929773 249.175944 
L 68.929773 285.001362 
L 72.939128 282.476819 
L 76.948483 279.931109 
L 80.957839 277.414191 
L 84.967194 274.955231 
L 88.976549 272.325932 
L 92.985905 269.741766 
L 96.99526 267.057994 
L 101.004615 264.374222 
L 105.013971 261.69045 
L 109.023326 259.006677 
L 113.032681 256.534599 
L 117.042037 254.159675 
L 121.051392 251.874105 
L 125.060747 249.395752 
L 129.070102 246.684642 
L 133.079458 244.238107 
L 137.088813 241.791572 
L 141.098168 239.344598 
L 145.107524 236.787331 
L 149.116879 234.198531 
L 153.126234 231.616834 
L 157.13559 229.240556 
L 161.144945 226.780853 
L 165.1543 224.510501 
L 169.163656 222.218731 
L 173.173011 219.772755 
L 177.182366 217.252762 
L 181.191722 214.643686 
L 185.201077 212.033227 
L 189.210432 209.526904 
L 193.219788 207.246711 
L 197.229143 204.75987 
L 201.238498 202.363414 
L 205.247853 199.864919 
L 209.257209 197.706249 
L 213.266564 195.268233 
L 217.275919 192.860867 
L 221.285275 190.458276 
L 225.29463 188.008711 
L 229.303985 185.560169 
L 233.313341 183.165205 
L 237.322696 181.001727 
L 241.332051 178.795443 
L 245.341407 176.608669 
L 249.350762 174.306844 
L 253.360117 171.835413 
L 257.369473 169.768259 
L 261.378828 167.373184 
L 265.388183 165.225418 
L 269.397539 162.954862 
L 273.406894 160.780576 
L 277.416249 158.629474 
L 281.425604 156.335986 
L 285.43496 154.126998 
L 289.444315 151.814894 
L 293.45367 149.582829 
L 297.463026 147.504448 
L 301.472381 145.297406 
L 305.481736 143.09245 
L 309.491092 140.678157 
L 313.500447 138.319514 
L 317.509802 136.007662 
L 321.519158 133.661318 
L 325.528513 131.551782 
L 329.537868 129.440745 
L 333.547224 127.327191 
L 337.556579 125.383079 
L 341.565934 123.315308 
L 345.57529 121.329134 
L 349.584645 119.317402 
L 353.594 117.209053 
L 357.603355 115.092625 
L 361.612711 112.847848 
L 365.622066 110.816135 
L 369.631421 108.777656 
L 373.640777 106.669355 
L 377.650132 104.523847 
L 381.659487 102.455531 
L 385.668843 100.350795 
L 389.678198 98.322163 
L 393.687553 96.206473 
L 397.696909 94.182865 
L 401.706264 92.055156 
L 405.715619 89.943463 
L 409.724975 87.791036 
L 413.73433 85.706225 
L 417.743685 83.697733 
L 421.753041 81.68924 
L 425.762396 79.680748 
L 429.771751 77.67301 
L 433.781106 75.672293 
L 437.790462 73.671576 
L 441.799817 71.67086 
L 445.809172 69.670143 
L 449.818528 67.669426 
L 453.827883 65.668709 
L 457.837238 63.667149 
L 461.846594 61.644842 
L 465.855949 59.593356 
L 465.855949 21.165455 
L 465.855949 21.165455 
L 461.846594 23.753055 
L 457.837238 26.340655 
L 453.827883 28.928256 
L 449.818528 31.515856 
L 445.809172 34.039947 
L 441.799817 36.514072 
L 437.790462 39.125256 
L 433.781106 41.751362 
L 429.771751 44.173029 
L 425.762396 46.667461 
L 421.753041 49.140428 
L 417.743685 51.590779 
L 413.73433 54.042602 
L 409.724975 56.494903 
L 405.715619 58.777108 
L 401.706264 61.211402 
L 397.696909 63.676571 
L 393.687553 66.144747 
L 389.678198 68.612922 
L 385.668843 70.853091 
L 381.659487 73.090546 
L 377.650132 75.651776 
L 373.640777 78.282932 
L 369.631421 80.726449 
L 365.622066 83.143853 
L 361.612711 85.614524 
L 357.603355 88.351616 
L 353.594 90.815123 
L 349.584645 93.119538 
L 345.57529 95.427843 
L 341.565934 98.02204 
L 337.556579 100.361827 
L 333.547224 102.526047 
L 329.537868 105.126951 
L 325.528513 107.295423 
L 321.519158 109.596365 
L 317.509802 111.809736 
L 313.500447 114.233431 
L 309.491092 116.691113 
L 305.481736 118.870629 
L 301.472381 121.016548 
L 297.463026 123.38527 
L 293.45367 126.254604 
L 289.444315 128.454227 
L 285.43496 130.645599 
L 281.425604 132.865484 
L 277.416249 135.236984 
L 273.406894 137.485285 
L 269.397539 139.856585 
L 265.388183 142.189748 
L 261.378828 144.359442 
L 257.369473 146.747908 
L 253.360117 149.111874 
L 249.350762 151.552492 
L 245.341407 153.728945 
L 241.332051 156.025424 
L 237.322696 158.148668 
L 233.313341 160.397176 
L 229.303985 162.493356 
L 225.29463 164.535605 
L 221.285275 166.625449 
L 217.275919 168.781557 
L 213.266564 170.994988 
L 209.257209 173.208418 
L 205.247853 175.437756 
L 201.238498 177.73428 
L 197.229143 180.043609 
L 193.219788 182.092536 
L 189.210432 184.214816 
L 185.201077 186.369033 
L 181.191722 188.602596 
L 177.182366 190.722749 
L 173.173011 192.848063 
L 169.163656 194.973377 
L 165.1543 197.098692 
L 161.144945 199.301811 
L 157.13559 201.642891 
L 153.126234 204.069282 
L 149.116879 206.441896 
L 145.107524 208.658608 
L 141.098168 210.841722 
L 137.088813 212.92408 
L 133.079458 215.056969 
L 129.070102 217.11641 
L 125.060747 219.160369 
L 121.051392 221.236733 
L 117.042037 223.31333 
L 113.032681 225.401053 
L 109.023326 227.638887 
L 105.013971 229.87672 
L 101.004615 232.114554 
L 96.99526 234.355057 
L 92.985905 236.478577 
L 88.976549 238.577229 
L 84.967194 240.675881 
L 80.957839 242.774533 
L 76.948483 244.873186 
L 72.939128 246.983486 
L 68.929773 249.175944 
z
" clip-path="url(#p35df418db3)" style="fill: #1f77b4; fill-opacity: 0.15"/>
   </g>
   <g id="PathCollection_2">
    <defs>
     <path id="mfc0cc16dfd" d="M 0 -3 
L -3 3 
L 3 3 
z
" style="stroke: #ff7f0e; stroke-opacity: 0.8"/>
    </defs>
    <g clip-path="url(#p35df418db3)">
     <use xlink:href="#mfc0cc16dfd" x="195.044387" y="290.429457" style="fill: #ff7f0e; fill-opacity: 0.8; stroke: #ff7f0e; stroke-opacity: 0.8"/>
     <use xlink:href="#mfc0cc16dfd" x="239.157776" y="248.993467" style="fill: #ff7f0e; fill-opacity: 0.8; stroke: #ff7f0e; stroke-opacity: 0.8"/>
     <use xlink:href="#mfc0cc16dfd" x="283.271166" y="212.580022" style="fill: #ff7f0e; fill-opacity: 0.8; stroke: #ff7f0e; stroke-opacity: 0.8"/>
     <use xlink:href="#mfc0cc16dfd" x="327.353113" y="177.422213" style="fill: #ff7f0e; fill-opacity: 0.8; stroke: #ff7f0e; stroke-opacity: 0.8"/>
     <use xlink:href="#mfc0cc16dfd" x="371.466502" y="146.031311" style="fill: #ff7f0e; fill-opacity: 0.8; stroke: #ff7f0e; stroke-opacity: 0.8"/>
     <use xlink:href="#mfc0cc16dfd" x="415.579891" y="117.151682" style="fill: #ff7f0e; fill-opacity: 0.8; stroke: #ff7f0e; stroke-opacity: 0.8"/>
     <use xlink:href="#mfc0cc16dfd" x="459.661838" y="89.527689" style="fill: #ff7f0e; fill-opacity: 0.8; stroke: #ff7f0e; stroke-opacity: 0.8"/>
     <use xlink:href="#mfc0cc16dfd" x="503.775227" y="64.414968" style="fill: #ff7f0e; fill-opacity: 0.8; stroke: #ff7f0e; stroke-opacity: 0.8"/>
     <use xlink:href="#mfc0cc16dfd" x="239.157776" y="256.527284" style="fill: #ff7f0e; fill-opacity: 0.8; stroke: #ff7f0e; stroke-opacity: 0.8"/>
     <use xlink:href="#mfc0cc16dfd" x="327.353113" y="188.722937" style="fill: #ff7f0e; fill-opacity: 0.8; stroke: #ff7f0e; stroke-opacity: 0.8"/>
     <use xlink:href="#mfc0cc16dfd" x="195.044387" y="300.474545" style="fill: #ff7f0e; fill-opacity: 0.8; stroke: #ff7f0e; stroke-opacity: 0.8"/>
     <use xlink:href="#mfc0cc16dfd" x="283.271166" y="235.181471" style="fill: #ff7f0e; fill-opacity: 0.8; stroke: #ff7f0e; stroke-opacity: 0.8"/>
    </g>
   </g>
   <g id="FillBetweenPolyCollection_2">
    <path d="M 195.044387 279.558957 
L 195.044387 296.256558 
L 198.162881 293.71915 
L 201.281374 291.181742 
L 204.399867 288.644157 
L 207.518361 286.123093 
L 210.636854 283.646595 
L 213.755347 281.056817 
L 216.873841 278.52884 
L 219.992334 276.020253 
L 223.110827 273.520523 
L 226.229321 270.981052 
L 229.347814 268.592991 
L 232.466307 266.059917 
L 235.584801 263.584176 
L 238.703294 261.10144 
L 241.821787 258.630343 
L 244.940281 256.210476 
L 248.058774 253.793332 
L 251.177267 251.358261 
L 254.295761 248.921272 
L 257.414254 246.4633 
L 260.532747 244.040984 
L 263.651241 241.60782 
L 266.769734 239.174656 
L 269.888227 236.741491 
L 273.006721 234.309266 
L 276.125214 231.878301 
L 279.243707 229.443159 
L 282.362201 227.011153 
L 285.480694 224.599893 
L 288.599187 222.256248 
L 291.717681 219.909994 
L 294.836174 217.571459 
L 297.954667 215.198717 
L 301.073161 212.819625 
L 304.191654 210.417396 
L 307.310147 208.007534 
L 310.428641 205.595651 
L 313.547134 203.185303 
L 316.665627 200.776583 
L 319.784121 198.432899 
L 322.902614 196.09702 
L 326.021107 193.703959 
L 329.139601 191.304177 
L 332.258094 188.917576 
L 335.376587 186.520202 
L 338.495081 184.17502 
L 341.613574 181.818777 
L 344.732067 179.455453 
L 347.850561 177.105385 
L 350.969054 174.770893 
L 354.087547 172.422342 
L 357.206041 170.068931 
L 360.324534 167.715521 
L 363.443027 165.360731 
L 366.561521 163.006021 
L 369.680014 160.655403 
L 372.798507 158.305699 
L 375.917001 155.955996 
L 379.035494 153.606292 
L 382.153987 151.256589 
L 385.272481 148.953566 
L 388.390974 146.603757 
L 391.509467 144.260359 
L 394.627961 141.957117 
L 397.746454 139.626515 
L 400.864947 137.278199 
L 403.983441 134.939504 
L 407.101934 132.600809 
L 410.220427 130.261291 
L 413.338921 127.92158 
L 416.457414 125.581252 
L 419.575907 123.240924 
L 422.694401 120.877707 
L 425.812894 118.503385 
L 428.931387 116.222867 
L 432.049881 113.883938 
L 435.168374 111.559362 
L 438.286867 109.231236 
L 441.405361 106.883718 
L 444.523854 104.537642 
L 447.642347 102.193297 
L 450.760841 99.859448 
L 453.879334 97.583868 
L 456.997827 95.295827 
L 460.116321 93.014474 
L 463.234814 90.677288 
L 466.353307 88.376363 
L 469.471801 86.03955 
L 472.590294 83.752607 
L 475.708787 81.466349 
L 478.827281 79.219716 
L 481.945774 76.890487 
L 485.064267 74.596259 
L 488.182761 72.27306 
L 491.301254 69.983211 
L 494.419747 67.636419 
L 497.538241 65.364729 
L 500.656734 63.099163 
L 503.775227 60.801842 
L 503.775227 36.81983 
L 503.775227 36.81983 
L 500.656734 39.417532 
L 497.538241 42.015233 
L 494.419747 44.612934 
L 491.301254 47.210635 
L 488.182761 49.808336 
L 485.064267 52.406038 
L 481.945774 55.003739 
L 478.827281 57.60144 
L 475.708787 60.199141 
L 472.590294 62.796842 
L 469.471801 65.394544 
L 466.353307 67.97869 
L 463.234814 70.559973 
L 460.116321 73.141257 
L 456.997827 75.722541 
L 453.879334 78.303825 
L 450.760841 80.885108 
L 447.642347 83.490189 
L 444.523854 86.095655 
L 441.405361 88.702296 
L 438.286867 91.307774 
L 435.168374 93.912879 
L 432.049881 96.517984 
L 428.931387 99.123089 
L 425.812894 101.728194 
L 422.694401 104.291482 
L 419.575907 106.836179 
L 416.457414 109.456451 
L 413.338921 112.077942 
L 410.220427 114.699432 
L 407.101934 117.320923 
L 403.983441 119.917685 
L 400.864947 122.495473 
L 397.746454 125.07326 
L 394.627961 127.606734 
L 391.509467 130.06283 
L 388.390974 132.553847 
L 385.272481 135.13225 
L 382.153987 137.711407 
L 379.035494 140.290921 
L 375.917001 142.880329 
L 372.798507 145.485873 
L 369.680014 148.118042 
L 366.561521 150.605634 
L 363.443027 153.186111 
L 360.324534 155.869242 
L 357.206041 158.510239 
L 354.087547 161.093375 
L 350.969054 163.703837 
L 347.850561 166.252299 
L 344.732067 168.752537 
L 341.613574 171.285293 
L 338.495081 173.785363 
L 335.376587 176.316763 
L 332.258094 178.872462 
L 329.139601 181.38899 
L 326.021107 183.811494 
L 322.902614 186.290889 
L 319.784121 188.601214 
L 316.665627 190.833435 
L 313.547134 193.309206 
L 310.428641 195.51804 
L 307.310147 197.832639 
L 304.191654 200.331312 
L 301.073161 202.722697 
L 297.954667 205.10437 
L 294.836174 207.402636 
L 291.717681 209.636285 
L 288.599187 211.880666 
L 285.480694 214.10693 
L 282.362201 216.700931 
L 279.243707 218.943375 
L 276.125214 221.18582 
L 273.006721 223.437776 
L 269.888227 225.75032 
L 266.769734 227.995518 
L 263.651241 230.225879 
L 260.532747 232.456241 
L 257.414254 234.686602 
L 254.295761 236.916964 
L 251.177267 239.147869 
L 248.058774 241.380646 
L 244.940281 243.660075 
L 241.821787 245.960244 
L 238.703294 248.207761 
L 235.584801 250.432925 
L 232.466307 252.65818 
L 229.347814 254.883524 
L 226.229321 257.110511 
L 223.110827 259.458842 
L 219.992334 261.73562 
L 216.873841 263.979312 
L 213.755347 266.20728 
L 210.636854 268.428092 
L 207.518361 270.650894 
L 204.399867 272.905107 
L 201.281374 275.123057 
L 198.162881 277.341007 
L 195.044387 279.558957 
z
" clip-path="url(#p35df418db3)" style="fill: #ff7f0e; fill-opacity: 0.15"/>
   </g>
   <g id="matplotlib.axis_1">
    <g id="xtick_1">
     <g id="line2d_1">
      <defs>
       <path id="meddca0bdd7" d="M 0 0 
L 0 3.5 
" style="stroke: #000000; stroke-width: 0.8"/>
      </defs>
      <g>
       <use xlink:href="#meddca0bdd7" x="93.957754" y="314.44" style="stroke: #000000; stroke-width: 0.8"/>
      </g>
     </g>
     <g id="text_1">
      <!-- 40 -->
      <g transform="translate(87.595254 329.038437) scale(0.1 -0.1)">
       <defs>
        <path id="DejaVuSans-34" d="M 2419 4116 
L 825 1625 
L 2419 1625 
L 2419 4116 
z
M 2253 4666 
L 3047 4666 
L 3047 1625 
L 3713 1625 
L 3713 1100 
L 3047 1100 
L 3047 0 
L 2419 0 
L 2419 1100 
L 313 1100 
L 313 1709 
L 2253 4666 
z
" transform="scale(0.015625)"/>
        <path id="DejaVuSans-30" d="M 2034 4250 
Q 1547 4250 1301 3770 
Q 1056 3291 1056 2328 
Q 1056 1369 1301 889 
Q 1547 409 2034 409 
Q 2525 409 2770 889 
Q 3016 1369 3016 2328 
Q 3016 3291 2770 3770 
Q 2525 4250 2034 4250 
z
M 2034 4750 
Q 2819 4750 3233 4129 
Q 3647 3509 3647 2328 
Q 3647 1150 3233 529 
Q 2819 -91 2034 -91 
Q 1250 -91 836 529 
Q 422 1150 422 2328 
Q 422 3509 836 4129 
Q 1250 4750 2034 4750 
z
" transform="scale(0.015625)"/>
       </defs>
       <use xlink:href="#DejaVuSans-34"/>
       <use xlink:href="#DejaVuSans-30" transform="translate(63.623047 0)"/>
      </g>
     </g>
    </g>
    <g id="xtick_2">
     <g id="line2d_2">
      <g>
       <use xlink:href="#meddca0bdd7" x="156.842129" y="314.44" style="stroke: #000000; stroke-width: 0.8"/>
      </g>
     </g>
     <g id="text_2">
      <!-- 60 -->
      <g transform="translate(150.479629 329.038437) scale(0.1 -0.1)">
       <defs>
        <path id="DejaVuSans-36" d="M 2113 2584 
Q 1688 2584 1439 2293 
Q 1191 2003 1191 1497 
Q 1191 994 1439 701 
Q 1688 409 2113 409 
Q 2538 409 2786 701 
Q 3034 994 3034 1497 
Q 3034 2003 2786 2293 
Q 2538 2584 2113 2584 
z
M 3366 4563 
L 3366 3988 
Q 3128 4100 2886 4159 
Q 2644 4219 2406 4219 
Q 1781 4219 1451 3797 
Q 1122 3375 1075 2522 
Q 1259 2794 1537 2939 
Q 1816 3084 2150 3084 
Q 2853 3084 3261 2657 
Q 3669 2231 3669 1497 
Q 3669 778 3244 343 
Q 2819 -91 2113 -91 
Q 1303 -91 875 529 
Q 447 1150 447 2328 
Q 447 3434 972 4092 
Q 1497 4750 2381 4750 
Q 2619 4750 2861 4703 
Q 3103 4656 3366 4563 
z
" transform="scale(0.015625)"/>
       </defs>
       <use xlink:href="#DejaVuSans-36"/>
       <use xlink:href="#DejaVuSans-30" transform="translate(63.623047 0)"/>
      </g>
     </g>
    </g>
    <g id="xtick_3">
     <g id="line2d_3">
      <g>
       <use xlink:href="#meddca0bdd7" x="219.726504" y="314.44" style="stroke: #000000; stroke-width: 0.8"/>
      </g>
     </g>
     <g id="text_3">
      <!-- 80 -->
      <g transform="translate(213.364004 329.038437) scale(0.1 -0.1)">
       <defs>
        <path id="DejaVuSans-38" d="M 2034 2216 
Q 1584 2216 1326 1975 
Q 1069 1734 1069 1313 
Q 1069 891 1326 650 
Q 1584 409 2034 409 
Q 2484 409 2743 651 
Q 3003 894 3003 1313 
Q 3003 1734 2745 1975 
Q 2488 2216 2034 2216 
z
M 1403 2484 
Q 997 2584 770 2862 
Q 544 3141 544 3541 
Q 544 4100 942 4425 
Q 1341 4750 2034 4750 
Q 2731 4750 3128 4425 
Q 3525 4100 3525 3541 
Q 3525 3141 3298 2862 
Q 3072 2584 2669 2484 
Q 3125 2378 3379 2068 
Q 3634 1759 3634 1313 
Q 3634 634 3220 271 
Q 2806 -91 2034 -91 
Q 1263 -91 848 271 
Q 434 634 434 1313 
Q 434 1759 690 2068 
Q 947 2378 1403 2484 
z
M 1172 3481 
Q 1172 3119 1398 2916 
Q 1625 2713 2034 2713 
Q 2441 2713 2670 2916 
Q 2900 3119 2900 3481 
Q 2900 3844 2670 4047 
Q 2441 4250 2034 4250 
Q 1625 4250 1398 4047 
Q 1172 3844 1172 3481 
z
" transform="scale(0.015625)"/>
       </defs>
       <use xlink:href="#DejaVuSans-38"/>
       <use xlink:href="#DejaVuSans-30" transform="translate(63.623047 0)"/>
      </g>
     </g>
    </g>
    <g id="xtick_4">
     <g id="line2d_4">
      <g>
       <use xlink:href="#meddca0bdd7" x="282.61088" y="314.44" style="stroke: #000000; stroke-width: 0.8"/>
      </g>
     </g>
     <g id="text_4">
      <!-- 100 -->
      <g transform="translate(273.06713 329.038437) scale(0.1 -0.1)">
       <defs>
        <path id="DejaVuSans-31" d="M 794 531 
L 1825 531 
L 1825 4091 
L 703 3866 
L 703 4441 
L 1819 4666 
L 2450 4666 
L 2450 531 
L 3481 531 
L 3481 0 
L 794 0 
L 794 531 
z
" transform="scale(0.015625)"/>
       </defs>
       <use xlink:href="#DejaVuSans-31"/>
       <use xlink:href="#DejaVuSans-30" transform="translate(63.623047 0)"/>
       <use xlink:href="#DejaVuSans-30" transform="translate(127.246094 0)"/>
      </g>
     </g>
    </g>
    <g id="xtick_5">
     <g id="line2d_5">
      <g>
       <use xlink:href="#meddca0bdd7" x="345.495255" y="314.44" style="stroke: #000000; stroke-width: 0.8"/>
      </g>
     </g>
     <g id="text_5">
      <!-- 120 -->
      <g transform="translate(335.951505 329.038437) scale(0.1 -0.1)">
       <defs>
        <path id="DejaVuSans-32" d="M 1228 531 
L 3431 531 
L 3431 0 
L 469 0 
L 469 531 
Q 828 903 1448 1529 
Q 2069 2156 2228 2338 
Q 2531 2678 2651 2914 
Q 2772 3150 2772 3378 
Q 2772 3750 2511 3984 
Q 2250 4219 1831 4219 
Q 1534 4219 1204 4116 
Q 875 4013 500 3803 
L 500 4441 
Q 881 4594 1212 4672 
Q 1544 4750 1819 4750 
Q 2544 4750 2975 4387 
Q 3406 4025 3406 3419 
Q 3406 3131 3298 2873 
Q 3191 2616 2906 2266 
Q 2828 2175 2409 1742 
Q 1991 1309 1228 531 
z
" transform="scale(0.015625)"/>
       </defs>
       <use xlink:href="#DejaVuSans-31"/>
       <use xlink:href="#DejaVuSans-32" transform="translate(63.623047 0)"/>
       <use xlink:href="#DejaVuSans-30" transform="translate(127.246094 0)"/>
      </g>
     </g>
    </g>
    <g id="xtick_6">
     <g id="line2d_6">
      <g>
       <use xlink:href="#meddca0bdd7" x="408.37963" y="314.44" style="stroke: #000000; stroke-width: 0.8"/>
      </g>
     </g>
     <g id="text_6">
      <!-- 140 -->
      <g transform="translate(398.83588 329.038437) scale(0.1 -0.1)">
       <use xlink:href="#DejaVuSans-31"/>
       <use xlink:href="#DejaVuSans-34" transform="translate(63.623047 0)"/>
       <use xlink:href="#DejaVuSans-30" transform="translate(127.246094 0)"/>
      </g>
     </g>
    </g>
    <g id="xtick_7">
     <g id="line2d_7">
      <g>
       <use xlink:href="#meddca0bdd7" x="471.264005" y="314.44" style="stroke: #000000; stroke-width: 0.8"/>
      </g>
     </g>
     <g id="text_7">
      <!-- 160 -->
      <g transform="translate(461.720255 329.038437) scale(0.1 -0.1)">
       <use xlink:href="#DejaVuSans-31"/>
       <use xlink:href="#DejaVuSans-36" transform="translate(63.623047 0)"/>
       <use xlink:href="#DejaVuSans-30" transform="translate(127.246094 0)"/>
      </g>
     </g>
    </g>
    <g id="text_8">
     <!-- MW, g/mol -->
     <g transform="translate(259.739219 342.716562) scale(0.1 -0.1)">
      <defs>
       <path id="DejaVuSans-4d" d="M 628 4666 
L 1569 4666 
L 2759 1491 
L 3956 4666 
L 4897 4666 
L 4897 0 
L 4281 0 
L 4281 4097 
L 3078 897 
L 2444 897 
L 1241 4097 
L 1241 0 
L 628 0 
L 628 4666 
z
" transform="scale(0.015625)"/>
       <path id="DejaVuSans-57" d="M 213 4666 
L 850 4666 
L 1831 722 
L 2809 4666 
L 3519 4666 
L 4500 722 
L 5478 4666 
L 6119 4666 
L 4947 0 
L 4153 0 
L 3169 4050 
L 2175 0 
L 1381 0 
L 213 4666 
z
" transform="scale(0.015625)"/>
       <path id="DejaVuSans-2c" d="M 750 794 
L 1409 794 
L 1409 256 
L 897 -744 
L 494 -744 
L 750 256 
L 750 794 
z
" transform="scale(0.015625)"/>
       <path id="DejaVuSans-20" transform="scale(0.015625)"/>
       <path id="DejaVuSans-67" d="M 2906 1791 
Q 2906 2416 2648 2759 
Q 2391 3103 1925 3103 
Q 1463 3103 1205 2759 
Q 947 2416 947 1791 
Q 947 1169 1205 825 
Q 1463 481 1925 481 
Q 2391 481 2648 825 
Q 2906 1169 2906 1791 
z
M 3481 434 
Q 3481 -459 3084 -895 
Q 2688 -1331 1869 -1331 
Q 1566 -1331 1297 -1286 
Q 1028 -1241 775 -1147 
L 775 -588 
Q 1028 -725 1275 -790 
Q 1522 -856 1778 -856 
Q 2344 -856 2625 -561 
Q 2906 -266 2906 331 
L 2906 616 
Q 2728 306 2450 153 
Q 2172 0 1784 0 
Q 1141 0 747 490 
Q 353 981 353 1791 
Q 353 2603 747 3093 
Q 1141 3584 1784 3584 
Q 2172 3584 2450 3431 
Q 2728 3278 2906 2969 
L 2906 3500 
L 3481 3500 
L 3481 434 
z
" transform="scale(0.015625)"/>
       <path id="DejaVuSans-2f" d="M 1625 4666 
L 2156 4666 
L 531 -594 
L 0 -594 
L 1625 4666 
z
" transform="scale(0.015625)"/>
       <path id="DejaVuSans-6d" d="M 3328 2828 
Q 3544 3216 3844 3400 
Q 4144 3584 4550 3584 
Q 5097 3584 5394 3201 
Q 5691 2819 5691 2113 
L 5691 0 
L 5113 0 
L 5113 2094 
Q 5113 2597 4934 2840 
Q 4756 3084 4391 3084 
Q 3944 3084 3684 2787 
Q 3425 2491 3425 1978 
L 3425 0 
L 2847 0 
L 2847 2094 
Q 2847 2600 2669 2842 
Q 2491 3084 2119 3084 
Q 1678 3084 1418 2786 
Q 1159 2488 1159 1978 
L 1159 0 
L 581 0 
L 581 3500 
L 1159 3500 
L 1159 2956 
Q 1356 3278 1631 3431 
Q 1906 3584 2284 3584 
Q 2666 3584 2933 3390 
Q 3200 3197 3328 2828 
z
" transform="scale(0.015625)"/>
       <path id="DejaVuSans-6f" d="M 1959 3097 
Q 1497 3097 1228 2736 
Q 959 2375 959 1747 
Q 959 1119 1226 758 
Q 1494 397 1959 397 
Q 2419 397 2687 759 
Q 2956 1122 2956 1747 
Q 2956 2369 2687 2733 
Q 2419 3097 1959 3097 
z
M 1959 3584 
Q 2709 3584 3137 3096 
Q 3566 2609 3566 1747 
Q 3566 888 3137 398 
Q 2709 -91 1959 -91 
Q 1206 -91 779 398 
Q 353 888 353 1747 
Q 353 2609 779 3096 
Q 1206 3584 1959 3584 
z
" transform="scale(0.015625)"/>
       <path id="DejaVuSans-6c" d="M 603 4863 
L 1178 4863 
L 1178 0 
L 603 0 
L 603 4863 
z
" transform="scale(0.015625)"/>
      </defs>
      <use xlink:href="#DejaVuSans-4d"/>
      <use xlink:href="#DejaVuSans-57" transform="translate(86.279297 0)"/>
      <use xlink:href="#DejaVuSans-2c" transform="translate(185.15625 0)"/>
      <use xlink:href="#DejaVuSans-20" transform="translate(216.943359 0)"/>
      <use xlink:href="#DejaVuSans-67" transform="translate(248.730469 0)"/>
      <use xlink:href="#DejaVuSans-2f" transform="translate(312.207031 0)"/>
      <use xlink:href="#DejaVuSans-6d" transform="translate(345.898438 0)"/>
      <use xlink:href="#DejaVuSans-6f" transform="translate(443.310547 0)"/>
      <use xlink:href="#DejaVuSans-6c" transform="translate(504.492188 0)"/>
     </g>
    </g>
   </g>
   <g id="matplotlib.axis_2">
    <g id="ytick_1">
     <g id="line2d_8">
      <defs>
       <path id="m09fdec7efc" d="M 0 0 
L -3.5 0 
" style="stroke: #000000; stroke-width: 0.8"/>
      </defs>
      <g>
       <use xlink:href="#m09fdec7efc" x="47.1875" y="272.850552" style="stroke: #000000; stroke-width: 0.8"/>
      </g>
     </g>
     <g id="text_9">
      <!-- 50 -->
      <g transform="translate(27.4625 276.649771) scale(0.1 -0.1)">
       <defs>
        <path id="DejaVuSans-35" d="M 691 4666 
L 3169 4666 
L 3169 4134 
L 1269 4134 
L 1269 2991 
Q 1406 3038 1543 3061 
Q 1681 3084 1819 3084 
Q 2600 3084 3056 2656 
Q 3513 2228 3513 1497 
Q 3513 744 3044 326 
Q 2575 -91 1722 -91 
Q 1428 -91 1123 -41 
Q 819 9 494 109 
L 494 744 
Q 775 591 1075 516 
Q 1375 441 1709 441 
Q 2250 441 2565 725 
Q 2881 1009 2881 1497 
Q 2881 1984 2565 2268 
Q 2250 2553 1709 2553 
Q 1456 2553 1204 2497 
Q 953 2441 691 2322 
L 691 4666 
z
" transform="scale(0.015625)"/>
       </defs>
       <use xlink:href="#DejaVuSans-35"/>
       <use xlink:href="#DejaVuSans-30" transform="translate(63.623047 0)"/>
      </g>
     </g>
    </g>
    <g id="ytick_2">
     <g id="line2d_9">
      <g>
       <use xlink:href="#m09fdec7efc" x="47.1875" y="210.06875" style="stroke: #000000; stroke-width: 0.8"/>
      </g>
     </g>
     <g id="text_10">
      <!-- 100 -->
      <g transform="translate(21.1 213.867969) scale(0.1 -0.1)">
       <use xlink:href="#DejaVuSans-31"/>
       <use xlink:href="#DejaVuSans-30" transform="translate(63.623047 0)"/>
       <use xlink:href="#DejaVuSans-30" transform="translate(127.246094 0)"/>
      </g>
     </g>
    </g>
    <g id="ytick_3">
     <g id="line2d_10">
      <g>
       <use xlink:href="#m09fdec7efc" x="47.1875" y="147.286947" style="stroke: #000000; stroke-width: 0.8"/>
      </g>
     </g>
     <g id="text_11">
      <!-- 150 -->
      <g transform="translate(21.1 151.086166) scale(0.1 -0.1)">
       <use xlink:href="#DejaVuSans-31"/>
       <use xlink:href="#DejaVuSans-35" transform="translate(63.623047 0)"/>
       <use xlink:href="#DejaVuSans-30" transform="translate(127.246094 0)"/>
      </g>
     </g>
    </g>
    <g id="ytick_4">
     <g id="line2d_11">
      <g>
       <use xlink:href="#m09fdec7efc" x="47.1875" y="84.505145" style="stroke: #000000; stroke-width: 0.8"/>
      </g>
     </g>
     <g id="text_12">
      <!-- 200 -->
      <g transform="translate(21.1 88.304364) scale(0.1 -0.1)">
       <use xlink:href="#DejaVuSans-32"/>
       <use xlink:href="#DejaVuSans-30" transform="translate(63.623047 0)"/>
       <use xlink:href="#DejaVuSans-30" transform="translate(127.246094 0)"/>
      </g>
     </g>
    </g>
    <g id="ytick_5">
     <g id="line2d_12">
      <g>
       <use xlink:href="#m09fdec7efc" x="47.1875" y="21.723343" style="stroke: #000000; stroke-width: 0.8"/>
      </g>
     </g>
     <g id="text_13">
      <!-- 250 -->
      <g transform="translate(21.1 25.522561) scale(0.1 -0.1)">
       <use xlink:href="#DejaVuSans-32"/>
       <use xlink:href="#DejaVuSans-35" transform="translate(63.623047 0)"/>
       <use xlink:href="#DejaVuSans-30" transform="translate(127.246094 0)"/>
      </g>
     </g>
    </g>
    <g id="text_14">
     <!-- bp, $^o$C -->
     <g transform="translate(15 176.17) rotate(-90) scale(0.1 -0.1)">
      <defs>
       <path id="DejaVuSans-62" d="M 3116 1747 
Q 3116 2381 2855 2742 
Q 2594 3103 2138 3103 
Q 1681 3103 1420 2742 
Q 1159 2381 1159 1747 
Q 1159 1113 1420 752 
Q 1681 391 2138 391 
Q 2594 391 2855 752 
Q 3116 1113 3116 1747 
z
M 1159 2969 
Q 1341 3281 1617 3432 
Q 1894 3584 2278 3584 
Q 2916 3584 3314 3078 
Q 3713 2572 3713 1747 
Q 3713 922 3314 415 
Q 2916 -91 2278 -91 
Q 1894 -91 1617 61 
Q 1341 213 1159 525 
L 1159 0 
L 581 0 
L 581 4863 
L 1159 4863 
L 1159 2969 
z
" transform="scale(0.015625)"/>
       <path id="DejaVuSans-70" d="M 1159 525 
L 1159 -1331 
L 581 -1331 
L 581 3500 
L 1159 3500 
L 1159 2969 
Q 1341 3281 1617 3432 
Q 1894 3584 2278 3584 
Q 2916 3584 3314 3078 
Q 3713 2572 3713 1747 
Q 3713 922 3314 415 
Q 2916 -91 2278 -91 
Q 1894 -91 1617 61 
Q 1341 213 1159 525 
z
M 3116 1747 
Q 3116 2381 2855 2742 
Q 2594 3103 2138 3103 
Q 1681 3103 1420 2742 
Q 1159 2381 1159 1747 
Q 1159 1113 1420 752 
Q 1681 391 2138 391 
Q 2594 391 2855 752 
Q 3116 1113 3116 1747 
z
" transform="scale(0.015625)"/>
       <path id="DejaVuSans-Oblique-6f" d="M 1625 -91 
Q 1009 -91 651 289 
Q 294 669 294 1325 
Q 294 1706 417 2101 
Q 541 2497 738 2766 
Q 1047 3184 1428 3384 
Q 1809 3584 2291 3584 
Q 2888 3584 3255 3212 
Q 3622 2841 3622 2241 
Q 3622 1825 3500 1412 
Q 3378 1000 3181 728 
Q 2875 309 2494 109 
Q 2113 -91 1625 -91 
z
M 891 1344 
Q 891 869 1089 633 
Q 1288 397 1691 397 
Q 2269 397 2648 901 
Q 3028 1406 3028 2181 
Q 3028 2634 2825 2865 
Q 2622 3097 2228 3097 
Q 1903 3097 1650 2945 
Q 1397 2794 1197 2484 
Q 1050 2253 970 1956 
Q 891 1659 891 1344 
z
" transform="scale(0.015625)"/>
       <path id="DejaVuSans-43" d="M 4122 4306 
L 4122 3641 
Q 3803 3938 3442 4084 
Q 3081 4231 2675 4231 
Q 1875 4231 1450 3742 
Q 1025 3253 1025 2328 
Q 1025 1406 1450 917 
Q 1875 428 2675 428 
Q 3081 428 3442 575 
Q 3803 722 4122 1019 
L 4122 359 
Q 3791 134 3420 21 
Q 3050 -91 2638 -91 
Q 1578 -91 968 557 
Q 359 1206 359 2328 
Q 359 3453 968 4101 
Q 1578 4750 2638 4750 
Q 3056 4750 3426 4639 
Q 3797 4528 4122 4306 
z
" transform="scale(0.015625)"/>
      </defs>
      <use xlink:href="#DejaVuSans-62" transform="translate(0 0.51875)"/>
      <use xlink:href="#DejaVuSans-70" transform="translate(63.476562 0.51875)"/>
      <use xlink:href="#DejaVuSans-2c" transform="translate(126.953125 0.51875)"/>
      <use xlink:href="#DejaVuSans-20" transform="translate(158.740234 0.51875)"/>
      <use xlink:href="#DejaVuSans-Oblique-6f" transform="translate(191.484375 38.8) scale(0.7)"/>
      <use xlink:href="#DejaVuSans-43" transform="translate(237.045898 0.51875)"/>
     </g>
    </g>
   </g>
   <g id="line2d_13">
    <path d="M 68.929773 264.676917 
L 72.939128 262.410018 
L 76.948483 260.143119 
L 80.957839 257.87622 
L 84.967194 255.609321 
L 88.976549 253.342422 
L 92.985905 251.075523 
L 96.99526 248.808625 
L 101.004615 246.541726 
L 105.013971 244.274827 
L 109.023326 242.007928 
L 113.032681 239.741029 
L 117.042037 237.47413 
L 121.051392 235.207231 
L 125.060747 232.940332 
L 129.070102 230.673433 
L 133.079458 228.406534 
L 137.088813 226.139635 
L 141.098168 223.872736 
L 145.107524 221.605838 
L 149.116879 219.338939 
L 153.126234 217.07204 
L 157.13559 214.805141 
L 161.144945 212.538242 
L 165.1543 210.271343 
L 169.163656 208.004444 
L 173.173011 205.737545 
L 177.182366 203.470646 
L 181.191722 201.203747 
L 185.201077 198.936848 
L 189.210432 196.669949 
L 193.219788 194.403051 
L 197.229143 192.136152 
L 201.238498 189.869253 
L 205.247853 187.602354 
L 209.257209 185.335455 
L 213.266564 183.068556 
L 217.275919 180.801657 
L 221.285275 178.534758 
L 225.29463 176.267859 
L 229.303985 174.00096 
L 233.313341 171.734061 
L 237.322696 169.467162 
L 241.332051 167.200264 
L 245.341407 164.933365 
L 249.350762 162.666466 
L 253.360117 160.399567 
L 257.369473 158.132668 
L 261.378828 155.865769 
L 265.388183 153.59887 
L 269.397539 151.331971 
L 273.406894 149.065072 
L 277.416249 146.798173 
L 281.425604 144.531274 
L 285.43496 142.264375 
L 289.444315 139.997476 
L 293.45367 137.730578 
L 297.463026 135.463679 
L 301.472381 133.19678 
L 305.481736 130.929881 
L 309.491092 128.662982 
L 313.500447 126.396083 
L 317.509802 124.129184 
L 321.519158 121.862285 
L 325.528513 119.595386 
L 329.537868 117.328487 
L 333.547224 115.061588 
L 337.556579 112.794689 
L 341.565934 110.527791 
L 345.57529 108.260892 
L 349.584645 105.993993 
L 353.594 103.727094 
L 357.603355 101.460195 
L 361.612711 99.193296 
L 365.622066 96.926397 
L 369.631421 94.659498 
L 373.640777 92.392599 
L 377.650132 90.1257 
L 381.659487 87.858801 
L 385.668843 85.591902 
L 389.678198 83.325004 
L 393.687553 81.058105 
L 397.696909 78.791206 
L 401.706264 76.524307 
L 405.715619 74.257408 
L 409.724975 71.990509 
L 413.73433 69.72361 
L 417.743685 67.456711 
L 421.753041 65.189812 
L 425.762396 62.922913 
L 429.771751 60.656014 
L 433.781106 58.389115 
L 437.790462 56.122217 
L 441.799817 53.855318 
L 445.809172 51.588419 
L 449.818528 49.32152 
L 453.827883 47.054621 
L 457.837238 44.787722 
L 461.846594 42.520823 
L 465.855949 40.253924 
" clip-path="url(#p35df418db3)" style="fill: none; stroke: #1f77b4; stroke-width: 2.25; stroke-linecap: square"/>
   </g>
   <g id="line2d_14">
    <path d="M 195.044387 289.132298 
L 198.162881 286.757186 
L 201.281374 284.382075 
L 204.399867 282.006963 
L 207.518361 279.631851 
L 210.636854 277.256739 
L 213.755347 274.881627 
L 216.873841 272.506515 
L 219.992334 270.131404 
L 223.110827 267.756292 
L 226.229321 265.38118 
L 229.347814 263.006068 
L 232.466307 260.630956 
L 235.584801 258.255845 
L 238.703294 255.880733 
L 241.821787 253.505621 
L 244.940281 251.130509 
L 248.058774 248.755397 
L 251.177267 246.380286 
L 254.295761 244.005174 
L 257.414254 241.630062 
L 260.532747 239.25495 
L 263.651241 236.879838 
L 266.769734 234.504727 
L 269.888227 232.129615 
L 273.006721 229.754503 
L 276.125214 227.379391 
L 279.243707 225.004279 
L 282.362201 222.629167 
L 285.480694 220.254056 
L 288.599187 217.878944 
L 291.717681 215.503832 
L 294.836174 213.12872 
L 297.954667 210.753608 
L 301.073161 208.378497 
L 304.191654 206.003385 
L 307.310147 203.628273 
L 310.428641 201.253161 
L 313.547134 198.878049 
L 316.665627 196.502938 
L 319.784121 194.127826 
L 322.902614 191.752714 
L 326.021107 189.377602 
L 329.139601 187.00249 
L 332.258094 184.627379 
L 335.376587 182.252267 
L 338.495081 179.877155 
L 341.613574 177.502043 
L 344.732067 175.126931 
L 347.850561 172.75182 
L 350.969054 170.376708 
L 354.087547 168.001596 
L 357.206041 165.626484 
L 360.324534 163.251372 
L 363.443027 160.87626 
L 366.561521 158.501149 
L 369.680014 156.126037 
L 372.798507 153.750925 
L 375.917001 151.375813 
L 379.035494 149.000701 
L 382.153987 146.62559 
L 385.272481 144.250478 
L 388.390974 141.875366 
L 391.509467 139.500254 
L 394.627961 137.125142 
L 397.746454 134.750031 
L 400.864947 132.374919 
L 403.983441 129.999807 
L 407.101934 127.624695 
L 410.220427 125.249583 
L 413.338921 122.874472 
L 416.457414 120.49936 
L 419.575907 118.124248 
L 422.694401 115.749136 
L 425.812894 113.374024 
L 428.931387 110.998912 
L 432.049881 108.623801 
L 435.168374 106.248689 
L 438.286867 103.873577 
L 441.405361 101.498465 
L 444.523854 99.123353 
L 447.642347 96.748242 
L 450.760841 94.37313 
L 453.879334 91.998018 
L 456.997827 89.622906 
L 460.116321 87.247794 
L 463.234814 84.872683 
L 466.353307 82.497571 
L 469.471801 80.122459 
L 472.590294 77.747347 
L 475.708787 75.372235 
L 478.827281 72.997124 
L 481.945774 70.622012 
L 485.064267 68.2469 
L 488.182761 65.871788 
L 491.301254 63.496676 
L 494.419747 61.121564 
L 497.538241 58.746453 
L 500.656734 56.371341 
L 503.775227 53.996229 
" clip-path="url(#p35df418db3)" style="fill: none; stroke: #ff7f0e; stroke-width: 2.25; stroke-linecap: square"/>
   </g>
   <g id="patch_3">
    <path d="M 47.1875 314.44 
L 47.1875 7.2 
" style="fill: none; stroke: #000000; stroke-width: 0.8; stroke-linejoin: miter; stroke-linecap: square"/>
   </g>
   <g id="patch_4">
    <path d="M 47.1875 314.44 
L 525.5175 314.44 
" style="fill: none; stroke: #000000; stroke-width: 0.8; stroke-linejoin: miter; stroke-linecap: square"/>
   </g>
   <g id="legend_1">
    <g id="patch_5">
     <path d="M 54.1875 59.234375 
L 121.945312 59.234375 
Q 123.945312 59.234375 123.945312 57.234375 
L 123.945312 14.2 
Q 123.945312 12.2 121.945312 12.2 
L 54.1875 12.2 
Q 52.1875 12.2 52.1875 14.2 
L 52.1875 57.234375 
Q 52.1875 59.234375 54.1875 59.234375 
z
" style="fill: #ffffff; opacity: 0.8; stroke: #cccccc; stroke-linejoin: miter"/>
    </g>
    <g id="text_15">
     <!-- type -->
     <g transform="translate(76.896094 23.798437) scale(0.1 -0.1)">
      <defs>
       <path id="DejaVuSans-74" d="M 1172 4494 
L 1172 3500 
L 2356 3500 
L 2356 3053 
L 1172 3053 
L 1172 1153 
Q 1172 725 1289 603 
Q 1406 481 1766 481 
L 2356 481 
L 2356 0 
L 1766 0 
Q 1100 0 847 248 
Q 594 497 594 1153 
L 594 3053 
L 172 3053 
L 172 3500 
L 594 3500 
L 594 4494 
L 1172 4494 
z
" transform="scale(0.015625)"/>
       <path id="DejaVuSans-79" d="M 2059 -325 
Q 1816 -950 1584 -1140 
Q 1353 -1331 966 -1331 
L 506 -1331 
L 506 -850 
L 844 -850 
Q 1081 -850 1212 -737 
Q 1344 -625 1503 -206 
L 1606 56 
L 191 3500 
L 800 3500 
L 1894 763 
L 2988 3500 
L 3597 3500 
L 2059 -325 
z
" transform="scale(0.015625)"/>
       <path id="DejaVuSans-65" d="M 3597 1894 
L 3597 1613 
L 953 1613 
Q 991 1019 1311 708 
Q 1631 397 2203 397 
Q 2534 397 2845 478 
Q 3156 559 3463 722 
L 3463 178 
Q 3153 47 2828 -22 
Q 2503 -91 2169 -91 
Q 1331 -91 842 396 
Q 353 884 353 1716 
Q 353 2575 817 3079 
Q 1281 3584 2069 3584 
Q 2775 3584 3186 3129 
Q 3597 2675 3597 1894 
z
M 3022 2063 
Q 3016 2534 2758 2815 
Q 2500 3097 2075 3097 
Q 1594 3097 1305 2825 
Q 1016 2553 972 2059 
L 3022 2063 
z
" transform="scale(0.015625)"/>
      </defs>
      <use xlink:href="#DejaVuSans-74"/>
      <use xlink:href="#DejaVuSans-79" transform="translate(39.208984 0)"/>
      <use xlink:href="#DejaVuSans-70" transform="translate(98.388672 0)"/>
      <use xlink:href="#DejaVuSans-65" transform="translate(161.865234 0)"/>
     </g>
    </g>
    <g id="PathCollection_3">
     <g>
      <use xlink:href="#m0101638132" x="66.1875" y="35.851562" style="fill: #1f77b4; fill-opacity: 0.8; stroke: #1f77b4; stroke-opacity: 0.8"/>
     </g>
    </g>
    <g id="text_16">
     <!-- alcohol -->
     <g transform="translate(84.1875 38.476562) scale(0.1 -0.1)">
      <defs>
       <path id="DejaVuSans-61" d="M 2194 1759 
Q 1497 1759 1228 1600 
Q 959 1441 959 1056 
Q 959 750 1161 570 
Q 1363 391 1709 391 
Q 2188 391 2477 730 
Q 2766 1069 2766 1631 
L 2766 1759 
L 2194 1759 
z
M 3341 1997 
L 3341 0 
L 2766 0 
L 2766 531 
Q 2569 213 2275 61 
Q 1981 -91 1556 -91 
Q 1019 -91 701 211 
Q 384 513 384 1019 
Q 384 1609 779 1909 
Q 1175 2209 1959 2209 
L 2766 2209 
L 2766 2266 
Q 2766 2663 2505 2880 
Q 2244 3097 1772 3097 
Q 1472 3097 1187 3025 
Q 903 2953 641 2809 
L 641 3341 
Q 956 3463 1253 3523 
Q 1550 3584 1831 3584 
Q 2591 3584 2966 3190 
Q 3341 2797 3341 1997 
z
" transform="scale(0.015625)"/>
       <path id="DejaVuSans-63" d="M 3122 3366 
L 3122 2828 
Q 2878 2963 2633 3030 
Q 2388 3097 2138 3097 
Q 1578 3097 1268 2742 
Q 959 2388 959 1747 
Q 959 1106 1268 751 
Q 1578 397 2138 397 
Q 2388 397 2633 464 
Q 2878 531 3122 666 
L 3122 134 
Q 2881 22 2623 -34 
Q 2366 -91 2075 -91 
Q 1284 -91 818 406 
Q 353 903 353 1747 
Q 353 2603 823 3093 
Q 1294 3584 2113 3584 
Q 2378 3584 2631 3529 
Q 2884 3475 3122 3366 
z
" transform="scale(0.015625)"/>
       <path id="DejaVuSans-68" d="M 3513 2113 
L 3513 0 
L 2938 0 
L 2938 2094 
Q 2938 2591 2744 2837 
Q 2550 3084 2163 3084 
Q 1697 3084 1428 2787 
Q 1159 2491 1159 1978 
L 1159 0 
L 581 0 
L 581 4863 
L 1159 4863 
L 1159 2956 
Q 1366 3272 1645 3428 
Q 1925 3584 2291 3584 
Q 2894 3584 3203 3211 
Q 3513 2838 3513 2113 
z
" transform="scale(0.015625)"/>
      </defs>
      <use xlink:href="#DejaVuSans-61"/>
      <use xlink:href="#DejaVuSans-6c" transform="translate(61.279297 0)"/>
      <use xlink:href="#DejaVuSans-63" transform="translate(89.0625 0)"/>
      <use xlink:href="#DejaVuSans-6f" transform="translate(144.042969 0)"/>
      <use xlink:href="#DejaVuSans-68" transform="translate(205.224609 0)"/>
      <use xlink:href="#DejaVuSans-6f" transform="translate(268.603516 0)"/>
      <use xlink:href="#DejaVuSans-6c" transform="translate(329.785156 0)"/>
     </g>
    </g>
    <g id="PathCollection_4">
     <g>
      <use xlink:href="#mfc0cc16dfd" x="66.1875" y="50.529688" style="fill: #ff7f0e; fill-opacity: 0.8; stroke: #ff7f0e; stroke-opacity: 0.8"/>
     </g>
    </g>
    <g id="text_17">
     <!-- alkane -->
     <g transform="translate(84.1875 53.154688) scale(0.1 -0.1)">
      <defs>
       <path id="DejaVuSans-6b" d="M 581 4863 
L 1159 4863 
L 1159 1991 
L 2875 3500 
L 3609 3500 
L 1753 1863 
L 3688 0 
L 2938 0 
L 1159 1709 
L 1159 0 
L 581 0 
L 581 4863 
z
" transform="scale(0.015625)"/>
       <path id="DejaVuSans-6e" d="M 3513 2113 
L 3513 0 
L 2938 0 
L 2938 2094 
Q 2938 2591 2744 2837 
Q 2550 3084 2163 3084 
Q 1697 3084 1428 2787 
Q 1159 2491 1159 1978 
L 1159 0 
L 581 0 
L 581 3500 
L 1159 3500 
L 1159 2956 
Q 1366 3272 1645 3428 
Q 1925 3584 2291 3584 
Q 2894 3584 3203 3211 
Q 3513 2838 3513 2113 
z
" transform="scale(0.015625)"/>
      </defs>
      <use xlink:href="#DejaVuSans-61"/>
      <use xlink:href="#DejaVuSans-6c" transform="translate(61.279297 0)"/>
      <use xlink:href="#DejaVuSans-6b" transform="translate(89.0625 0)"/>
      <use xlink:href="#DejaVuSans-61" transform="translate(145.222656 0)"/>
      <use xlink:href="#DejaVuSans-6e" transform="translate(206.501953 0)"/>
      <use xlink:href="#DejaVuSans-65" transform="translate(269.880859 0)"/>
     </g>
    </g>
   </g>
  </g>
 </g>
 <defs>
  <clipPath id="p35df418db3">
   <rect x="47.1875" y="7.2" width="478.33" height="307.24"/>
  </clipPath>
 </defs>
</svg>