<?xml version="1.0" encoding="utf-8" standalone="no"?>
<!DOCTYPE svg PUBLIC "-//W3C//DTD SVG 1.1//EN"
  "http://www.w3.org/Graphics/SVG/1.1/DTD/svg11.dtd">
<svg xmlns:xlink="http://www.w3.org/1999/xlink" width="411.285625pt" height="310.86825pt" viewBox="0 0 411.285625 310.86825" xmlns="http://www.w3.org/2000/svg" version="1.1">
 <metadata>
  <rdf:RDF xmlns:dc="http://purl.org/dc/elements/1.1/" xmlns:cc="http://creativecommons.org/ns#" xmlns:rdf="http://www.w3.org/1999/02/22-rdf-syntax-ns#">
   <cc:Work>
    <dc:type rdf:resource="http://purl.org/dc/dcmitype/StillImage"/>
    <dc:date>2025-12-27T13:14:03.299726</dc:date>
    <dc:format>image/svg+xml</dc:format>
    <dc:creator>
     <cc:Agent>
      <dc:title>Matplotlib v3.10.3, https://matplotlib.org/</dc:title>
     </cc:Agent>
    </dc:creator>
   </cc:Work>
  </rdf:RDF>
 </metadata>
 <defs>
  <style type="text/css">*{stroke-linejoin: round; stroke-linecap: butt}</style>
 </defs>
 <g id="figure_1">
  <g id="patch_1">
   <path d="M 0 310.86825 
L 411.285625 310.86825 
L 411.285625 0 
L 0 0 
z
" style="fill: #ffffff"/>
  </g>
  <g id="axes_1">
   <g id="patch_2">
    <path d="M 46.965625 273.312 
L 404.085625 273.312 
L 404.085625 7.2 
L 46.965625 7.2 
z
" style="fill: #ffffff"/>
   </g>
   <g id="PathCollection_1">
    <defs>
     <path id="maec5fac885" d="M 0 3 
C 0.795609 3 1.55874 2.683901 2.12132 2.12132 
C 2.683901 1.55874 3 0.795609 3 0 
C 3 -0.795609 2.683901 -1.55874 2.12132 -2.12132 
C 1.55874 -2.683901 0.795609 -3 0 -3 
C -0.795609 -3 -1.55874 -2.683901 -2.12132 -2.12132 
C -2.683901 -1.55874 -3 -0.795609 -3 0 
C -3 0.795609 -2.683901 1.55874 -2.12132 2.12132 
C -1.55874 2.683901 -0.795609 3 0 3 
z
" style="stroke: #1f77b4; stroke-opacity: 0.8"/>
    </defs>
    <g clip-path="url(#p595824124a)">
     <use xlink:href="#maec5fac885" x="63.198352" y="200.528107" style="fill: #1f77b4; fill-opacity: 0.8; stroke: #1f77b4; stroke-opacity: 0.8"/>
     <use xlink:href="#maec5fac885" x="96.1333" y="187.89529" style="fill: #1f77b4; fill-opacity: 0.8; stroke: #1f77b4; stroke-opacity: 0.8"/>
     <use xlink:href="#maec5fac885" x="129.068248" y="168.460187" style="fill: #1f77b4; fill-opacity: 0.8; stroke: #1f77b4; stroke-opacity: 0.8"/>
     <use xlink:href="#maec5fac885" x="161.979721" y="149.025084" style="fill: #1f77b4; fill-opacity: 0.8; stroke: #1f77b4; stroke-opacity: 0.8"/>
     <use xlink:href="#maec5fac885" x="194.914669" y="128.618225" style="fill: #1f77b4; fill-opacity: 0.8; stroke: #1f77b4; stroke-opacity: 0.8"/>
     <use xlink:href="#maec5fac885" x="227.849616" y="111.126633" style="fill: #1f77b4; fill-opacity: 0.8; stroke: #1f77b4; stroke-opacity: 0.8"/>
     <use xlink:href="#maec5fac885" x="260.761089" y="92.663285" style="fill: #1f77b4; fill-opacity: 0.8; stroke: #1f77b4; stroke-opacity: 0.8"/>
     <use xlink:href="#maec5fac885" x="293.696037" y="74.199937" style="fill: #1f77b4; fill-opacity: 0.8; stroke: #1f77b4; stroke-opacity: 0.8"/>
     <use xlink:href="#maec5fac885" x="326.60751" y="57.680099" style="fill: #1f77b4; fill-opacity: 0.8; stroke: #1f77b4; stroke-opacity: 0.8"/>
     <use xlink:href="#maec5fac885" x="359.542458" y="38.244996" style="fill: #1f77b4; fill-opacity: 0.8; stroke: #1f77b4; stroke-opacity: 0.8"/>
     <use xlink:href="#maec5fac885" x="157.355213" y="228.709007" style="fill: #1f77b4; fill-opacity: 0.8; stroke: #1f77b4; stroke-opacity: 0.8"/>
     <use xlink:href="#maec5fac885" x="190.290161" y="196.641086" style="fill: #1f77b4; fill-opacity: 0.8; stroke: #1f77b4; stroke-opacity: 0.8"/>
     <use xlink:href="#maec5fac885" x="223.225108" y="168.460187" style="fill: #1f77b4; fill-opacity: 0.8; stroke: #1f77b4; stroke-opacity: 0.8"/>
     <use xlink:href="#maec5fac885" x="256.136581" y="141.251042" style="fill: #1f77b4; fill-opacity: 0.8; stroke: #1f77b4; stroke-opacity: 0.8"/>
     <use xlink:href="#maec5fac885" x="289.071529" y="116.957164" style="fill: #1f77b4; fill-opacity: 0.8; stroke: #1f77b4; stroke-opacity: 0.8"/>
     <use xlink:href="#maec5fac885" x="322.006477" y="94.606795" style="fill: #1f77b4; fill-opacity: 0.8; stroke: #1f77b4; stroke-opacity: 0.8"/>
     <use xlink:href="#maec5fac885" x="354.91795" y="73.228181" style="fill: #1f77b4; fill-opacity: 0.8; stroke: #1f77b4; stroke-opacity: 0.8"/>
     <use xlink:href="#maec5fac885" x="387.852898" y="53.793078" style="fill: #1f77b4; fill-opacity: 0.8; stroke: #1f77b4; stroke-opacity: 0.8"/>
     <use xlink:href="#maec5fac885" x="190.290161" y="202.471617" style="fill: #1f77b4; fill-opacity: 0.8; stroke: #1f77b4; stroke-opacity: 0.8"/>
     <use xlink:href="#maec5fac885" x="256.136581" y="149.996839" style="fill: #1f77b4; fill-opacity: 0.8; stroke: #1f77b4; stroke-opacity: 0.8"/>
     <use xlink:href="#maec5fac885" x="157.355213" y="236.483048" style="fill: #1f77b4; fill-opacity: 0.8; stroke: #1f77b4; stroke-opacity: 0.8"/>
     <use xlink:href="#maec5fac885" x="223.225108" y="185.95178" style="fill: #1f77b4; fill-opacity: 0.8; stroke: #1f77b4; stroke-opacity: 0.8"/>
     <use xlink:href="#maec5fac885" x="161.979721" y="158.742635" style="fill: #1f77b4; fill-opacity: 0.8; stroke: #1f77b4; stroke-opacity: 0.8"/>
     <use xlink:href="#maec5fac885" x="161.979721" y="183.036514" style="fill: #1f77b4; fill-opacity: 0.8; stroke: #1f77b4; stroke-opacity: 0.8"/>
     <use xlink:href="#maec5fac885" x="194.914669" y="136.392267" style="fill: #1f77b4; fill-opacity: 0.8; stroke: #1f77b4; stroke-opacity: 0.8"/>
     <use xlink:href="#maec5fac885" x="227.849616" y="132.505246" style="fill: #1f77b4; fill-opacity: 0.8; stroke: #1f77b4; stroke-opacity: 0.8"/>
     <use xlink:href="#maec5fac885" x="260.761089" y="127.64647" style="fill: #1f77b4; fill-opacity: 0.8; stroke: #1f77b4; stroke-opacity: 0.8"/>
     <use xlink:href="#maec5fac885" x="208.905566" y="86.832754" style="fill: #1f77b4; fill-opacity: 0.8; stroke: #1f77b4; stroke-opacity: 0.8"/>
     <use xlink:href="#maec5fac885" x="241.840514" y="67.397651" style="fill: #1f77b4; fill-opacity: 0.8; stroke: #1f77b4; stroke-opacity: 0.8"/>
     <use xlink:href="#maec5fac885" x="307.686934" y="49.906058" style="fill: #1f77b4; fill-opacity: 0.8; stroke: #1f77b4; stroke-opacity: 0.8"/>
    </g>
   </g>
   <g id="FillBetweenPolyCollection_1">
    <path d="M 63.198352 206.716748 
L 63.198352 261.216 
L 66.477691 258.770695 
L 69.75703 256.357777 
L 73.036369 253.944859 
L 76.315708 251.531941 
L 79.595046 249.240761 
L 82.874385 247.14584 
L 86.153724 244.896596 
L 89.433063 242.501525 
L 92.712402 240.109599 
L 95.991741 237.831641 
L 99.27108 235.553684 
L 102.550418 233.283226 
L 105.829757 231.013488 
L 109.109096 228.74375 
L 112.388435 226.469326 
L 115.667774 224.190426 
L 118.947113 221.911527 
L 122.226451 219.632452 
L 125.50579 217.352359 
L 128.785129 215.072265 
L 132.064468 212.792171 
L 135.343807 210.568107 
L 138.623146 208.238131 
L 141.902485 205.959231 
L 145.181823 203.658895 
L 148.461162 201.435941 
L 151.740501 199.239726 
L 155.01984 197.040972 
L 158.299179 194.834908 
L 161.578518 192.40892 
L 164.857856 190.025388 
L 168.137195 187.745799 
L 171.416534 185.299424 
L 174.695873 182.95262 
L 177.975212 180.402473 
L 181.254551 177.907174 
L 184.533889 175.345629 
L 187.813228 172.993431 
L 191.092567 170.571777 
L 194.371906 168.380643 
L 197.651245 166.148081 
L 200.930584 163.738417 
L 204.209923 161.526873 
L 207.489261 159.472088 
L 210.7686 157.416219 
L 214.047939 155.355889 
L 217.327278 153.210624 
L 220.606617 151.274452 
L 223.885956 149.159699 
L 227.165294 146.887942 
L 230.444633 144.958442 
L 233.723972 142.82507 
L 237.003311 140.712268 
L 240.28265 138.560244 
L 243.561989 136.529352 
L 246.841327 134.500754 
L 250.120666 132.731597 
L 253.400005 130.621227 
L 256.679344 128.622498 
L 259.958683 126.648224 
L 263.238022 124.84395 
L 266.517361 122.838731 
L 269.796699 121.034038 
L 273.076038 119.312974 
L 276.355377 117.565155 
L 279.634716 115.870903 
L 282.914055 114.131725 
L 286.193394 112.235638 
L 289.472732 110.57388 
L 292.752071 108.823022 
L 296.03141 107.078565 
L 299.310749 105.333384 
L 302.590088 103.584298 
L 305.869427 101.840969 
L 309.148765 100.097639 
L 312.428104 98.379977 
L 315.707443 96.595785 
L 318.986782 94.860096 
L 322.266121 93.166465 
L 325.54546 91.545106 
L 328.824799 89.839972 
L 332.104137 88.133173 
L 335.383476 86.378367 
L 338.662815 84.70461 
L 341.942154 83.001502 
L 345.221493 81.293777 
L 348.500832 79.722744 
L 351.78017 78.195494 
L 355.059509 76.668244 
L 358.338848 75.140994 
L 361.618187 73.612887 
L 364.897526 71.978938 
L 368.176865 70.239751 
L 371.456204 68.500564 
L 374.735542 66.933123 
L 378.014881 65.347321 
L 381.29422 63.646263 
L 384.573559 61.99344 
L 387.852898 60.225534 
L 387.852898 19.296 
L 387.852898 19.296 
L 384.573559 21.700349 
L 381.29422 24.109106 
L 378.014881 26.379148 
L 374.735542 28.601325 
L 371.456204 30.829048 
L 368.176865 33.227028 
L 364.897526 35.821069 
L 361.618187 37.950576 
L 358.338848 40.122181 
L 355.059509 42.661078 
L 351.78017 45.067551 
L 348.500832 47.522869 
L 345.221493 49.93413 
L 341.942154 52.460249 
L 338.662815 54.444999 
L 335.383476 56.572335 
L 332.104137 58.573845 
L 328.824799 60.826655 
L 325.54546 62.879088 
L 322.266121 64.846362 
L 318.986782 66.984055 
L 315.707443 69.111605 
L 312.428104 71.136553 
L 309.148765 73.142728 
L 305.869427 75.25649 
L 302.590088 77.547541 
L 299.310749 79.670466 
L 296.03141 81.60543 
L 292.752071 83.69537 
L 289.472732 85.704621 
L 286.193394 87.721104 
L 282.914055 89.695144 
L 279.634716 91.748658 
L 276.355377 93.764505 
L 273.076038 95.728436 
L 269.796699 97.735954 
L 266.517361 99.646483 
L 263.238022 101.509562 
L 259.958683 103.407532 
L 256.679344 105.371505 
L 253.400005 107.402582 
L 250.120666 109.435169 
L 246.841327 111.224304 
L 243.561989 113.138486 
L 240.28265 114.858572 
L 237.003311 116.682719 
L 233.723972 118.578869 
L 230.444633 120.418547 
L 227.165294 122.371168 
L 223.885956 124.267318 
L 220.606617 126.108172 
L 217.327278 127.98023 
L 214.047939 129.820286 
L 210.7686 131.494465 
L 207.489261 133.333889 
L 204.209923 135.078364 
L 200.930584 136.83337 
L 197.651245 138.603673 
L 194.371906 140.35848 
L 191.092567 142.113287 
L 187.813228 143.873732 
L 184.533889 145.780913 
L 181.254551 147.529611 
L 177.975212 149.350658 
L 174.695873 150.863717 
L 171.416534 152.367714 
L 168.137195 153.995686 
L 164.857856 155.76547 
L 161.578518 157.55243 
L 158.299179 159.299403 
L 155.01984 160.939918 
L 151.740501 162.710853 
L 148.461162 164.233375 
L 145.181823 165.82555 
L 141.902485 167.509016 
L 138.623146 169.38343 
L 135.343807 171.024285 
L 132.064468 172.650299 
L 128.785129 174.309491 
L 125.50579 175.945145 
L 122.226451 177.561067 
L 118.947113 179.184509 
L 115.667774 180.803196 
L 112.388435 182.421884 
L 109.109096 184.223419 
L 105.829757 185.711095 
L 102.550418 187.277947 
L 99.27108 188.896789 
L 95.991741 190.515654 
L 92.712402 192.243859 
L 89.433063 193.956071 
L 86.153724 195.42025 
L 82.874385 196.992635 
L 79.595046 198.615358 
L 76.315708 200.23808 
L 73.036369 201.860802 
L 69.75703 203.483524 
L 66.477691 205.106246 
L 63.198352 206.716748 
z
" clip-path="url(#p595824124a)" style="fill: #1f77b4; fill-opacity: 0.15"/>
   </g>
   <g id="matplotlib.axis_1">
    <g id="xtick_1">
     <g id="line2d_1">
      <defs>
       <path id="m0a42e76355" d="M 0 0 
L 0 3.5 
" style="stroke: #000000; stroke-width: 0.8"/>
      </defs>
      <g>
       <use xlink:href="#m0a42e76355" x="81.884181" y="273.312" style="stroke: #000000; stroke-width: 0.8"/>
      </g>
     </g>
     <g id="text_1">
      <!-- 40 -->
      <g transform="translate(75.521681 287.910437) scale(0.1 -0.1)">
       <defs>
        <path id="DejaVuSans-34" d="M 2419 4116 
L 825 1625 
L 2419 1625 
L 2419 4116 
z
M 2253 4666 
L 3047 4666 
L 3047 1625 
L 3713 1625 
L 3713 1100 
L 3047 1100 
L 3047 0 
L 2419 0 
L 2419 1100 
L 313 1100 
L 313 1709 
L 2253 4666 
z
" transform="scale(0.015625)"/>
        <path id="DejaVuSans-30" d="M 2034 4250 
Q 1547 4250 1301 3770 
Q 1056 3291 1056 2328 
Q 1056 1369 1301 889 
Q 1547 409 2034 409 
Q 2525 409 2770 889 
Q 3016 1369 3016 2328 
Q 3016 3291 2770 3770 
Q 2525 4250 2034 4250 
z
M 2034 4750 
Q 2819 4750 3233 4129 
Q 3647 3509 3647 2328 
Q 3647 1150 3233 529 
Q 2819 -91 2034 -91 
Q 1250 -91 836 529 
Q 422 1150 422 2328 
Q 422 3509 836 4129 
Q 1250 4750 2034 4750 
z
" transform="scale(0.015625)"/>
       </defs>
       <use xlink:href="#DejaVuSans-34"/>
       <use xlink:href="#DejaVuSans-30" transform="translate(63.623047 0)"/>
      </g>
     </g>
    </g>
    <g id="xtick_2">
     <g id="line2d_2">
      <g>
       <use xlink:href="#m0a42e76355" x="128.833501" y="273.312" style="stroke: #000000; stroke-width: 0.8"/>
      </g>
     </g>
     <g id="text_2">
      <!-- 60 -->
      <g transform="translate(122.471001 287.910437) scale(0.1 -0.1)">
       <defs>
        <path id="DejaVuSans-36" d="M 2113 2584 
Q 1688 2584 1439 2293 
Q 1191 2003 1191 1497 
Q 1191 994 1439 701 
Q 1688 409 2113 409 
Q 2538 409 2786 701 
Q 3034 994 3034 1497 
Q 3034 2003 2786 2293 
Q 2538 2584 2113 2584 
z
M 3366 4563 
L 3366 3988 
Q 3128 4100 2886 4159 
Q 2644 4219 2406 4219 
Q 1781 4219 1451 3797 
Q 1122 3375 1075 2522 
Q 1259 2794 1537 2939 
Q 1816 3084 2150 3084 
Q 2853 3084 3261 2657 
Q 3669 2231 3669 1497 
Q 3669 778 3244 343 
Q 2819 -91 2113 -91 
Q 1303 -91 875 529 
Q 447 1150 447 2328 
Q 447 3434 972 4092 
Q 1497 4750 2381 4750 
Q 2619 4750 2861 4703 
Q 3103 4656 3366 4563 
z
" transform="scale(0.015625)"/>
       </defs>
       <use xlink:href="#DejaVuSans-36"/>
       <use xlink:href="#DejaVuSans-30" transform="translate(63.623047 0)"/>
      </g>
     </g>
    </g>
    <g id="xtick_3">
     <g id="line2d_3">
      <g>
       <use xlink:href="#m0a42e76355" x="175.782821" y="273.312" style="stroke: #000000; stroke-width: 0.8"/>
      </g>
     </g>
     <g id="text_3">
      <!-- 80 -->
      <g transform="translate(169.420321 287.910437) scale(0.1 -0.1)">
       <defs>
        <path id="DejaVuSans-38" d="M 2034 2216 
Q 1584 2216 1326 1975 
Q 1069 1734 1069 1313 
Q 1069 891 1326 650 
Q 1584 409 2034 409 
Q 2484 409 2743 651 
Q 3003 894 3003 1313 
Q 3003 1734 2745 1975 
Q 2488 2216 2034 2216 
z
M 1403 2484 
Q 997 2584 770 2862 
Q 544 3141 544 3541 
Q 544 4100 942 4425 
Q 1341 4750 2034 4750 
Q 2731 4750 3128 4425 
Q 3525 4100 3525 3541 
Q 3525 3141 3298 2862 
Q 3072 2584 2669 2484 
Q 3125 2378 3379 2068 
Q 3634 1759 3634 1313 
Q 3634 634 3220 271 
Q 2806 -91 2034 -91 
Q 1263 -91 848 271 
Q 434 634 434 1313 
Q 434 1759 690 2068 
Q 947 2378 1403 2484 
z
M 1172 3481 
Q 1172 3119 1398 2916 
Q 1625 2713 2034 2713 
Q 2441 2713 2670 2916 
Q 2900 3119 2900 3481 
Q 2900 3844 2670 4047 
Q 2441 4250 2034 4250 
Q 1625 4250 1398 4047 
Q 1172 3844 1172 3481 
z
" transform="scale(0.015625)"/>
       </defs>
       <use xlink:href="#DejaVuSans-38"/>
       <use xlink:href="#DejaVuSans-30" transform="translate(63.623047 0)"/>
      </g>
     </g>
    </g>
    <g id="xtick_4">
     <g id="line2d_4">
      <g>
       <use xlink:href="#m0a42e76355" x="222.73214" y="273.312" style="stroke: #000000; stroke-width: 0.8"/>
      </g>
     </g>
     <g id="text_4">
      <!-- 100 -->
      <g transform="translate(213.18839 287.910437) scale(0.1 -0.1)">
       <defs>
        <path id="DejaVuSans-31" d="M 794 531 
L 1825 531 
L 1825 4091 
L 703 3866 
L 703 4441 
L 1819 4666 
L 2450 4666 
L 2450 531 
L 3481 531 
L 3481 0 
L 794 0 
L 794 531 
z
" transform="scale(0.015625)"/>
       </defs>
       <use xlink:href="#DejaVuSans-31"/>
       <use xlink:href="#DejaVuSans-30" transform="translate(63.623047 0)"/>
       <use xlink:href="#DejaVuSans-30" transform="translate(127.246094 0)"/>
      </g>
     </g>
    </g>
    <g id="xtick_5">
     <g id="line2d_5">
      <g>
       <use xlink:href="#m0a42e76355" x="269.68146" y="273.312" style="stroke: #000000; stroke-width: 0.8"/>
      </g>
     </g>
     <g id="text_5">
      <!-- 120 -->
      <g transform="translate(260.13771 287.910437) scale(0.1 -0.1)">
       <defs>
        <path id="DejaVuSans-32" d="M 1228 531 
L 3431 531 
L 3431 0 
L 469 0 
L 469 531 
Q 828 903 1448 1529 
Q 2069 2156 2228 2338 
Q 2531 2678 2651 2914 
Q 2772 3150 2772 3378 
Q 2772 3750 2511 3984 
Q 2250 4219 1831 4219 
Q 1534 4219 1204 4116 
Q 875 4013 500 3803 
L 500 4441 
Q 881 4594 1212 4672 
Q 1544 4750 1819 4750 
Q 2544 4750 2975 4387 
Q 3406 4025 3406 3419 
Q 3406 3131 3298 2873 
Q 3191 2616 2906 2266 
Q 2828 2175 2409 1742 
Q 1991 1309 1228 531 
z
" transform="scale(0.015625)"/>
       </defs>
       <use xlink:href="#DejaVuSans-31"/>
       <use xlink:href="#DejaVuSans-32" transform="translate(63.623047 0)"/>
       <use xlink:href="#DejaVuSans-30" transform="translate(127.246094 0)"/>
      </g>
     </g>
    </g>
    <g id="xtick_6">
     <g id="line2d_6">
      <g>
       <use xlink:href="#m0a42e76355" x="316.63078" y="273.312" style="stroke: #000000; stroke-width: 0.8"/>
      </g>
     </g>
     <g id="text_6">
      <!-- 140 -->
      <g transform="translate(307.08703 287.910437) scale(0.1 -0.1)">
       <use xlink:href="#DejaVuSans-31"/>
       <use xlink:href="#DejaVuSans-34" transform="translate(63.623047 0)"/>
       <use xlink:href="#DejaVuSans-30" transform="translate(127.246094 0)"/>
      </g>
     </g>
    </g>
    <g id="xtick_7">
     <g id="line2d_7">
      <g>
       <use xlink:href="#m0a42e76355" x="363.580099" y="273.312" style="stroke: #000000; stroke-width: 0.8"/>
      </g>
     </g>
     <g id="text_7">
      <!-- 160 -->
      <g transform="translate(354.036349 287.910437) scale(0.1 -0.1)">
       <use xlink:href="#DejaVuSans-31"/>
       <use xlink:href="#DejaVuSans-36" transform="translate(63.623047 0)"/>
       <use xlink:href="#DejaVuSans-30" transform="translate(127.246094 0)"/>
      </g>
     </g>
    </g>
    <g id="text_8">
     <!-- MW -->
     <g transform="translate(216.267813 301.588562) scale(0.1 -0.1)">
      <defs>
       <path id="DejaVuSans-4d" d="M 628 4666 
L 1569 4666 
L 2759 1491 
L 3956 4666 
L 4897 4666 
L 4897 0 
L 4281 0 
L 4281 4097 
L 3078 897 
L 2444 897 
L 1241 4097 
L 1241 0 
L 628 0 
L 628 4666 
z
" transform="scale(0.015625)"/>
       <path id="DejaVuSans-57" d="M 213 4666 
L 850 4666 
L 1831 722 
L 2809 4666 
L 3519 4666 
L 4500 722 
L 5478 4666 
L 6119 4666 
L 4947 0 
L 4153 0 
L 3169 4050 
L 2175 0 
L 1381 0 
L 213 4666 
z
" transform="scale(0.015625)"/>
      </defs>
      <use xlink:href="#DejaVuSans-4d"/>
      <use xlink:href="#DejaVuSans-57" transform="translate(86.279297 0)"/>
     </g>
    </g>
   </g>
   <g id="matplotlib.axis_2">
    <g id="ytick_1">
     <g id="line2d_8">
      <defs>
       <path id="m0aead189e8" d="M 0 0 
L -3.5 0 
" style="stroke: #000000; stroke-width: 0.8"/>
      </defs>
      <g>
       <use xlink:href="#m0aead189e8" x="46.965625" y="263.692192" style="stroke: #000000; stroke-width: 0.8"/>
      </g>
     </g>
     <g id="text_9">
      <!-- 0 -->
      <g transform="translate(33.603125 267.491411) scale(0.1 -0.1)">
       <use xlink:href="#DejaVuSans-30"/>
      </g>
     </g>
    </g>
    <g id="ytick_2">
     <g id="line2d_9">
      <g>
       <use xlink:href="#m0aead189e8" x="46.965625" y="215.104434" style="stroke: #000000; stroke-width: 0.8"/>
      </g>
     </g>
     <g id="text_10">
      <!-- 50 -->
      <g transform="translate(27.240625 218.903653) scale(0.1 -0.1)">
       <defs>
        <path id="DejaVuSans-35" d="M 691 4666 
L 3169 4666 
L 3169 4134 
L 1269 4134 
L 1269 2991 
Q 1406 3038 1543 3061 
Q 1681 3084 1819 3084 
Q 2600 3084 3056 2656 
Q 3513 2228 3513 1497 
Q 3513 744 3044 326 
Q 2575 -91 1722 -91 
Q 1428 -91 1123 -41 
Q 819 9 494 109 
L 494 744 
Q 775 591 1075 516 
Q 1375 441 1709 441 
Q 2250 441 2565 725 
Q 2881 1009 2881 1497 
Q 2881 1984 2565 2268 
Q 2250 2553 1709 2553 
Q 1456 2553 1204 2497 
Q 953 2441 691 2322 
L 691 4666 
z
" transform="scale(0.015625)"/>
       </defs>
       <use xlink:href="#DejaVuSans-35"/>
       <use xlink:href="#DejaVuSans-30" transform="translate(63.623047 0)"/>
      </g>
     </g>
    </g>
    <g id="ytick_3">
     <g id="line2d_10">
      <g>
       <use xlink:href="#m0aead189e8" x="46.965625" y="166.516677" style="stroke: #000000; stroke-width: 0.8"/>
      </g>
     </g>
     <g id="text_11">
      <!-- 100 -->
      <g transform="translate(20.878125 170.315895) scale(0.1 -0.1)">
       <use xlink:href="#DejaVuSans-31"/>
       <use xlink:href="#DejaVuSans-30" transform="translate(63.623047 0)"/>
       <use xlink:href="#DejaVuSans-30" transform="translate(127.246094 0)"/>
      </g>
     </g>
    </g>
    <g id="ytick_4">
     <g id="line2d_11">
      <g>
       <use xlink:href="#m0aead189e8" x="46.965625" y="117.928919" style="stroke: #000000; stroke-width: 0.8"/>
      </g>
     </g>
     <g id="text_12">
      <!-- 150 -->
      <g transform="translate(20.878125 121.728137) scale(0.1 -0.1)">
       <use xlink:href="#DejaVuSans-31"/>
       <use xlink:href="#DejaVuSans-35" transform="translate(63.623047 0)"/>
       <use xlink:href="#DejaVuSans-30" transform="translate(127.246094 0)"/>
      </g>
     </g>
    </g>
    <g id="ytick_5">
     <g id="line2d_12">
      <g>
       <use xlink:href="#m0aead189e8" x="46.965625" y="69.341161" style="stroke: #000000; stroke-width: 0.8"/>
      </g>
     </g>
     <g id="text_13">
      <!-- 200 -->
      <g transform="translate(20.878125 73.14038) scale(0.1 -0.1)">
       <use xlink:href="#DejaVuSans-32"/>
       <use xlink:href="#DejaVuSans-30" transform="translate(63.623047 0)"/>
       <use xlink:href="#DejaVuSans-30" transform="translate(127.246094 0)"/>
      </g>
     </g>
    </g>
    <g id="ytick_6">
     <g id="line2d_13">
      <g>
       <use xlink:href="#m0aead189e8" x="46.965625" y="20.753403" style="stroke: #000000; stroke-width: 0.8"/>
      </g>
     </g>
     <g id="text_14">
      <!-- 250 -->
      <g transform="translate(20.878125 24.552622) scale(0.1 -0.1)">
       <use xlink:href="#DejaVuSans-32"/>
       <use xlink:href="#DejaVuSans-35" transform="translate(63.623047 0)"/>
       <use xlink:href="#DejaVuSans-30" transform="translate(127.246094 0)"/>
      </g>
     </g>
    </g>
    <g id="text_15">
     <!-- bp -->
     <g transform="translate(14.798438 146.604437) rotate(-90) scale(0.1 -0.1)">
      <defs>
       <path id="DejaVuSans-62" d="M 3116 1747 
Q 3116 2381 2855 2742 
Q 2594 3103 2138 3103 
Q 1681 3103 1420 2742 
Q 1159 2381 1159 1747 
Q 1159 1113 1420 752 
Q 1681 391 2138 391 
Q 2594 391 2855 752 
Q 3116 1113 3116 1747 
z
M 1159 2969 
Q 1341 3281 1617 3432 
Q 1894 3584 2278 3584 
Q 2916 3584 3314 3078 
Q 3713 2572 3713 1747 
Q 3713 922 3314 415 
Q 2916 -91 2278 -91 
Q 1894 -91 1617 61 
Q 1341 213 1159 525 
L 1159 0 
L 581 0 
L 581 4863 
L 1159 4863 
L 1159 2969 
z
" transform="scale(0.015625)"/>
       <path id="DejaVuSans-70" d="M 1159 525 
L 1159 -1331 
L 581 -1331 
L 581 3500 
L 1159 3500 
L 1159 2969 
Q 1341 3281 1617 3432 
Q 1894 3584 2278 3584 
Q 2916 3584 3314 3078 
Q 3713 2572 3713 1747 
Q 3713 922 3314 415 
Q 2916 -91 2278 -91 
Q 1894 -91 1617 61 
Q 1341 213 1159 525 
z
M 3116 1747 
Q 3116 2381 2855 2742 
Q 2594 3103 2138 3103 
Q 1681 3103 1420 2742 
Q 1159 2381 1159 1747 
Q 1159 1113 1420 752 
Q 1681 391 2138 391 
Q 2594 391 2855 752 
Q 3116 1113 3116 1747 
z
" transform="scale(0.015625)"/>
      </defs>
      <use xlink:href="#DejaVuSans-62"/>
      <use xlink:href="#DejaVuSans-70" transform="translate(63.476562 0)"/>
     </g>
    </g>
   </g>
   <g id="line2d_14">
    <path d="M 63.198352 229.692488 
L 66.477691 227.792964 
L 69.75703 225.89344 
L 73.036369 223.993916 
L 76.315708 222.094391 
L 79.595046 220.194867 
L 82.874385 218.295343 
L 86.153724 216.395819 
L 89.433063 214.496295 
L 92.712402 212.596771 
L 95.991741 210.697247 
L 99.27108 208.797722 
L 102.550418 206.898198 
L 105.829757 204.998674 
L 109.109096 203.09915 
L 112.388435 201.199626 
L 115.667774 199.300102 
L 118.947113 197.400578 
L 122.226451 195.501053 
L 125.50579 193.601529 
L 128.785129 191.702005 
L 132.064468 189.802481 
L 135.343807 187.902957 
L 138.623146 186.003433 
L 141.902485 184.103909 
L 145.181823 182.204384 
L 148.461162 180.30486 
L 151.740501 178.405336 
L 155.01984 176.505812 
L 158.299179 174.606288 
L 161.578518 172.706764 
L 164.857856 170.80724 
L 168.137195 168.907716 
L 171.416534 167.008191 
L 174.695873 165.108667 
L 177.975212 163.209143 
L 181.254551 161.309619 
L 184.533889 159.410095 
L 187.813228 157.510571 
L 191.092567 155.611047 
L 194.371906 153.711522 
L 197.651245 151.811998 
L 200.930584 149.912474 
L 204.209923 148.01295 
L 207.489261 146.113426 
L 210.7686 144.213902 
L 214.047939 142.314378 
L 217.327278 140.414853 
L 220.606617 138.515329 
L 223.885956 136.615805 
L 227.165294 134.716281 
L 230.444633 132.816757 
L 233.723972 130.917233 
L 237.003311 129.017709 
L 240.28265 127.118184 
L 243.561989 125.21866 
L 246.841327 123.319136 
L 250.120666 121.419612 
L 253.400005 119.520088 
L 256.679344 117.620564 
L 259.958683 115.72104 
L 263.238022 113.821515 
L 266.517361 111.921991 
L 269.796699 110.022467 
L 273.076038 108.122943 
L 276.355377 106.223419 
L 279.634716 104.323895 
L 282.914055 102.424371 
L 286.193394 100.524847 
L 289.472732 98.625322 
L 292.752071 96.725798 
L 296.03141 94.826274 
L 299.310749 92.92675 
L 302.590088 91.027226 
L 305.869427 89.127702 
L 309.148765 87.228178 
L 312.428104 85.328653 
L 315.707443 83.429129 
L 318.986782 81.529605 
L 322.266121 79.630081 
L 325.54546 77.730557 
L 328.824799 75.831033 
L 332.104137 73.931509 
L 335.383476 72.031984 
L 338.662815 70.13246 
L 341.942154 68.232936 
L 345.221493 66.333412 
L 348.500832 64.433888 
L 351.78017 62.534364 
L 355.059509 60.63484 
L 358.338848 58.735315 
L 361.618187 56.835791 
L 364.897526 54.936267 
L 368.176865 53.036743 
L 371.456204 51.137219 
L 374.735542 49.237695 
L 378.014881 47.338171 
L 381.29422 45.438647 
L 384.573559 43.539122 
L 387.852898 41.639598 
" clip-path="url(#p595824124a)" style="fill: none; stroke: #1f77b4; stroke-width: 2.25; stroke-linecap: square"/>
   </g>
   <g id="patch_3">
    <path d="M 46.965625 273.312 
L 46.965625 7.2 
" style="fill: none; stroke: #000000; stroke-width: 0.8; stroke-linejoin: miter; stroke-linecap: square"/>
   </g>
   <g id="patch_4">
    <path d="M 404.085625 273.312 
L 404.085625 7.2 
" style="fill: none; stroke: #000000; stroke-width: 0.8; stroke-linejoin: miter; stroke-linecap: square"/>
   </g>
   <g id="patch_5">
    <path d="M 46.965625 273.312 
L 404.085625 273.312 
" style="fill: none; stroke: #000000; stroke-width: 0.8; stroke-linejoin: miter; stroke-linecap: square"/>
   </g>
   <g id="patch_6">
    <path d="M 46.965625 7.2 
L 404.085625 7.2 
" style="fill: none; stroke: #000000; stroke-width: 0.8; stroke-linejoin: miter; stroke-linecap: square"/>
   </g>
  </g>
 </g>
 <defs>
  <clipPath id="p595824124a">
   <rect x="46.965625" y="7.2" width="357.12" height="266.112"/>
  </clipPath>
 </defs>
</svg>