<?xml version="1.0" encoding="utf-8" standalone="no"?>
<!DOCTYPE svg PUBLIC "-//W3C//DTD SVG 1.1//EN"
  "http://www.w3.org/Graphics/SVG/1.1/DTD/svg11.dtd">
<svg xmlns:xlink="http://www.w3.org/1999/xlink" width="391.245pt" height="297.190125pt" viewBox="0 0 391.245 297.190125" xmlns="http://www.w3.org/2000/svg" version="1.1">
 <metadata>
  <rdf:RDF xmlns:dc="http://purl.org/dc/elements/1.1/" xmlns:cc="http://creativecommons.org/ns#" xmlns:rdf="http://www.w3.org/1999/02/22-rdf-syntax-ns#">
   <cc:Work>
    <dc:type rdf:resource="http://purl.org/dc/dcmitype/StillImage"/>
    <dc:date>2025-07-03T14:19:34.955975</dc:date>
    <dc:format>image/svg+xml</dc:format>
    <dc:creator>
     <cc:Agent>
      <dc:title>Matplotlib v3.10.3, https://matplotlib.org/</dc:title>
     </cc:Agent>
    </dc:creator>
   </cc:Work>
  </rdf:RDF>
 </metadata>
 <defs>
  <style type="text/css">*{stroke-linejoin: round; stroke-linecap: butt}</style>
 </defs>
 <g id="figure_1">
  <g id="patch_1">
   <path d="M 0 297.190125 
L 391.245 297.190125 
L 391.245 0 
L 0 0 
z
" style="fill: #ffffff"/>
  </g>
  <g id="axes_1">
   <g id="patch_2">
    <path d="M 26.925 273.312 
L 384.045 273.312 
L 384.045 7.2 
L 26.925 7.2 
z
" style="fill: #ffffff"/>
   </g>
   <g id="PathCollection_1">
    <defs>
     <path id="m90a434af88" d="M 0 3 
C 0.795609 3 1.55874 2.683901 2.12132 2.12132 
C 2.683901 1.55874 3 0.795609 3 0 
C 3 -0.795609 2.683901 -1.55874 2.12132 -2.12132 
C 1.55874 -2.683901 0.795609 -3 0 -3 
C -0.795609 -3 -1.55874 -2.683901 -2.12132 -2.12132 
C -2.683901 -1.55874 -3 -0.795609 -3 0 
C -3 0.795609 -2.683901 1.55874 -2.12132 2.12132 
C -1.55874 2.683901 -0.795609 3 0 3 
z
" style="stroke: #1f77b4; stroke-opacity: 0.8"/>
    </defs>
    <g clip-path="url(#p3d07637abb)">
     <use xlink:href="#m90a434af88" x="43.157727" y="245.462555" style="fill: #1f77b4; fill-opacity: 0.8; stroke: #1f77b4; stroke-opacity: 0.8"/>
     <use xlink:href="#m90a434af88" x="79.230455" y="231.657968" style="fill: #1f77b4; fill-opacity: 0.8; stroke: #1f77b4; stroke-opacity: 0.8"/>
     <use xlink:href="#m90a434af88" x="115.303182" y="191.333837" style="fill: #1f77b4; fill-opacity: 0.8; stroke: #1f77b4; stroke-opacity: 0.8"/>
     <use xlink:href="#m90a434af88" x="151.375909" y="189.019278" style="fill: #1f77b4; fill-opacity: 0.8; stroke: #1f77b4; stroke-opacity: 0.8"/>
     <use xlink:href="#m90a434af88" x="187.448636" y="134.725757" style="fill: #1f77b4; fill-opacity: 0.8; stroke: #1f77b4; stroke-opacity: 0.8"/>
     <use xlink:href="#m90a434af88" x="223.521364" y="125.07711" style="fill: #1f77b4; fill-opacity: 0.8; stroke: #1f77b4; stroke-opacity: 0.8"/>
     <use xlink:href="#m90a434af88" x="259.594091" y="117.480439" style="fill: #1f77b4; fill-opacity: 0.8; stroke: #1f77b4; stroke-opacity: 0.8"/>
     <use xlink:href="#m90a434af88" x="295.666818" y="86.422966" style="fill: #1f77b4; fill-opacity: 0.8; stroke: #1f77b4; stroke-opacity: 0.8"/>
     <use xlink:href="#m90a434af88" x="331.739545" y="54.185699" style="fill: #1f77b4; fill-opacity: 0.8; stroke: #1f77b4; stroke-opacity: 0.8"/>
     <use xlink:href="#m90a434af88" x="367.812273" y="20.026467" style="fill: #1f77b4; fill-opacity: 0.8; stroke: #1f77b4; stroke-opacity: 0.8"/>
    </g>
   </g>
   <g id="FillBetweenPolyCollection_1">
    <path d="M 43.157727 238.114295 
L 43.157727 261.216 
L 46.437066 258.852475 
L 49.716405 256.48895 
L 52.995744 254.125425 
L 56.275083 251.7619 
L 59.554421 249.398159 
L 62.83376 247.034389 
L 66.113099 244.711794 
L 69.392438 242.400796 
L 72.671777 240.089799 
L 75.951116 237.778801 
L 79.230455 235.410178 
L 82.509793 233.038289 
L 85.789132 230.666228 
L 89.068471 228.294167 
L 92.34781 225.921085 
L 95.627149 223.548762 
L 98.906488 221.177985 
L 102.185826 218.805924 
L 105.465165 216.433222 
L 108.744504 214.05972 
L 112.023843 211.686219 
L 115.303182 209.314177 
L 118.582521 206.942947 
L 121.86186 204.571718 
L 125.141198 202.200489 
L 128.420537 199.829259 
L 131.699876 197.457378 
L 134.979215 195.085317 
L 138.258554 192.745078 
L 141.537893 190.501159 
L 144.817231 188.226869 
L 148.09657 185.864028 
L 151.375909 183.55511 
L 154.655248 181.255357 
L 157.934587 178.922437 
L 161.213926 176.62681 
L 164.493264 174.41072 
L 167.772603 172.107195 
L 171.051942 169.870957 
L 174.331281 167.631379 
L 177.61062 165.396023 
L 180.889959 163.168391 
L 184.169298 161.010768 
L 187.448636 158.747983 
L 190.727975 156.75208 
L 194.007314 154.599331 
L 197.286653 152.270139 
L 200.565992 150.022277 
L 203.845331 147.7976 
L 207.124669 145.682094 
L 210.404008 143.505073 
L 213.683347 141.352064 
L 216.962686 139.061753 
L 220.242025 136.912106 
L 223.521364 134.719325 
L 226.800702 132.556542 
L 230.080041 130.306446 
L 233.35938 128.224161 
L 236.638719 125.979423 
L 239.918058 123.820156 
L 243.197397 121.749454 
L 246.476736 119.518606 
L 249.756074 117.307995 
L 253.035413 115.171745 
L 256.314752 113.060764 
L 259.594091 110.917935 
L 262.87343 108.822585 
L 266.152769 106.76126 
L 269.432107 104.619803 
L 272.711446 102.499041 
L 275.990785 100.39567 
L 279.270124 98.249169 
L 282.549463 96.221485 
L 285.828802 94.196207 
L 289.10814 92.069205 
L 292.387479 89.980418 
L 295.666818 87.968133 
L 298.946157 85.872172 
L 302.225496 83.744838 
L 305.504835 81.642132 
L 308.784174 79.663843 
L 312.063512 77.702772 
L 315.342851 75.740563 
L 318.62219 73.628603 
L 321.901529 71.733307 
L 325.180868 69.677498 
L 328.460207 67.772116 
L 331.739545 65.886257 
L 335.018884 63.937706 
L 338.298223 61.919184 
L 341.577562 59.839787 
L 344.856901 57.835143 
L 348.13624 55.821675 
L 351.415579 53.759352 
L 354.694917 51.783254 
L 357.974256 49.813113 
L 361.253595 47.784836 
L 364.532934 45.702942 
L 367.812273 43.621048 
L 367.812273 19.296 
L 367.812273 19.296 
L 364.532934 21.626481 
L 361.253595 23.982306 
L 357.974256 26.33813 
L 354.694917 28.662747 
L 351.415579 30.955493 
L 348.13624 33.259966 
L 344.856901 35.587124 
L 341.577562 38.036436 
L 338.298223 40.339447 
L 335.018884 42.630088 
L 331.739545 44.920729 
L 328.460207 47.224195 
L 325.180868 49.550629 
L 321.901529 51.878892 
L 318.62219 54.251775 
L 315.342851 56.532389 
L 312.063512 58.858131 
L 308.784174 61.152786 
L 305.504835 63.410694 
L 302.225496 65.735038 
L 298.946157 68.069768 
L 295.666818 70.404904 
L 292.387479 72.74004 
L 289.10814 75.07622 
L 285.828802 77.413585 
L 282.549463 79.783394 
L 279.270124 82.037191 
L 275.990785 84.279084 
L 272.711446 86.526717 
L 269.432107 88.839814 
L 266.152769 91.155976 
L 262.87343 93.367298 
L 259.594091 95.620305 
L 256.314752 97.899016 
L 253.035413 100.230459 
L 249.756074 102.546064 
L 246.476736 104.808938 
L 243.197397 106.950053 
L 239.918058 109.154855 
L 236.638719 111.545654 
L 233.35938 113.976776 
L 230.080041 116.297436 
L 226.800702 118.562782 
L 223.521364 120.802316 
L 220.242025 123.030938 
L 216.962686 125.218846 
L 213.683347 127.43163 
L 210.404008 129.641927 
L 207.124669 131.85187 
L 203.845331 134.088998 
L 200.565992 136.378813 
L 197.286653 138.634503 
L 194.007314 140.758591 
L 190.727975 142.901096 
L 187.448636 145.035336 
L 184.169298 147.237086 
L 180.889959 149.411536 
L 177.61062 151.565675 
L 174.331281 153.719653 
L 171.051942 155.902871 
L 167.772603 158.156258 
L 164.493264 160.409646 
L 161.213926 162.519552 
L 157.934587 164.641014 
L 154.655248 166.697461 
L 151.375909 168.802219 
L 148.09657 170.884944 
L 144.817231 173.104477 
L 141.537893 175.152971 
L 138.258554 177.267672 
L 134.979215 179.352287 
L 131.699876 181.602236 
L 128.420537 183.713931 
L 125.141198 185.825789 
L 121.86186 187.983744 
L 118.582521 190.054672 
L 115.303182 192.152814 
L 112.023843 194.260208 
L 108.744504 196.360716 
L 105.465165 198.450419 
L 102.185826 200.541138 
L 98.906488 202.701822 
L 95.627149 204.811381 
L 92.34781 206.91878 
L 89.068471 209.027795 
L 85.789132 211.086652 
L 82.509793 213.097392 
L 79.230455 215.196618 
L 75.951116 217.341158 
L 72.671777 219.456563 
L 69.392438 221.490401 
L 66.113099 223.524239 
L 62.83376 225.589941 
L 59.554421 227.67753 
L 56.275083 229.809142 
L 52.995744 231.966432 
L 49.716405 234.008128 
L 46.437066 236.04147 
L 43.157727 238.114295 
z
" clip-path="url(#p3d07637abb)" style="fill: #1f77b4; fill-opacity: 0.15"/>
   </g>
   <g id="matplotlib.axis_1">
    <g id="xtick_1">
     <g id="line2d_1">
      <defs>
       <path id="md509fcb4d4" d="M 0 0 
L 0 3.5 
" style="stroke: #000000; stroke-width: 0.8"/>
      </defs>
      <g>
       <use xlink:href="#md509fcb4d4" x="43.157727" y="273.312" style="stroke: #000000; stroke-width: 0.8"/>
      </g>
     </g>
     <g id="text_1">
      <!-- 0 -->
      <g transform="translate(39.976477 287.910437) scale(0.1 -0.1)">
       <defs>
        <path id="DejaVuSans-30" d="M 2034 4250 
Q 1547 4250 1301 3770 
Q 1056 3291 1056 2328 
Q 1056 1369 1301 889 
Q 1547 409 2034 409 
Q 2525 409 2770 889 
Q 3016 1369 3016 2328 
Q 3016 3291 2770 3770 
Q 2525 4250 2034 4250 
z
M 2034 4750 
Q 2819 4750 3233 4129 
Q 3647 3509 3647 2328 
Q 3647 1150 3233 529 
Q 2819 -91 2034 -91 
Q 1250 -91 836 529 
Q 422 1150 422 2328 
Q 422 3509 836 4129 
Q 1250 4750 2034 4750 
z
" transform="scale(0.015625)"/>
       </defs>
       <use xlink:href="#DejaVuSans-30"/>
      </g>
     </g>
    </g>
    <g id="xtick_2">
     <g id="line2d_2">
      <g>
       <use xlink:href="#md509fcb4d4" x="115.303182" y="273.312" style="stroke: #000000; stroke-width: 0.8"/>
      </g>
     </g>
     <g id="text_2">
      <!-- 2 -->
      <g transform="translate(112.121932 287.910437) scale(0.1 -0.1)">
       <defs>
        <path id="DejaVuSans-32" d="M 1228 531 
L 3431 531 
L 3431 0 
L 469 0 
L 469 531 
Q 828 903 1448 1529 
Q 2069 2156 2228 2338 
Q 2531 2678 2651 2914 
Q 2772 3150 2772 3378 
Q 2772 3750 2511 3984 
Q 2250 4219 1831 4219 
Q 1534 4219 1204 4116 
Q 875 4013 500 3803 
L 500 4441 
Q 881 4594 1212 4672 
Q 1544 4750 1819 4750 
Q 2544 4750 2975 4387 
Q 3406 4025 3406 3419 
Q 3406 3131 3298 2873 
Q 3191 2616 2906 2266 
Q 2828 2175 2409 1742 
Q 1991 1309 1228 531 
z
" transform="scale(0.015625)"/>
       </defs>
       <use xlink:href="#DejaVuSans-32"/>
      </g>
     </g>
    </g>
    <g id="xtick_3">
     <g id="line2d_3">
      <g>
       <use xlink:href="#md509fcb4d4" x="187.448636" y="273.312" style="stroke: #000000; stroke-width: 0.8"/>
      </g>
     </g>
     <g id="text_3">
      <!-- 4 -->
      <g transform="translate(184.267386 287.910437) scale(0.1 -0.1)">
       <defs>
        <path id="DejaVuSans-34" d="M 2419 4116 
L 825 1625 
L 2419 1625 
L 2419 4116 
z
M 2253 4666 
L 3047 4666 
L 3047 1625 
L 3713 1625 
L 3713 1100 
L 3047 1100 
L 3047 0 
L 2419 0 
L 2419 1100 
L 313 1100 
L 313 1709 
L 2253 4666 
z
" transform="scale(0.015625)"/>
       </defs>
       <use xlink:href="#DejaVuSans-34"/>
      </g>
     </g>
    </g>
    <g id="xtick_4">
     <g id="line2d_4">
      <g>
       <use xlink:href="#md509fcb4d4" x="259.594091" y="273.312" style="stroke: #000000; stroke-width: 0.8"/>
      </g>
     </g>
     <g id="text_4">
      <!-- 6 -->
      <g transform="translate(256.412841 287.910437) scale(0.1 -0.1)">
       <defs>
        <path id="DejaVuSans-36" d="M 2113 2584 
Q 1688 2584 1439 2293 
Q 1191 2003 1191 1497 
Q 1191 994 1439 701 
Q 1688 409 2113 409 
Q 2538 409 2786 701 
Q 3034 994 3034 1497 
Q 3034 2003 2786 2293 
Q 2538 2584 2113 2584 
z
M 3366 4563 
L 3366 3988 
Q 3128 4100 2886 4159 
Q 2644 4219 2406 4219 
Q 1781 4219 1451 3797 
Q 1122 3375 1075 2522 
Q 1259 2794 1537 2939 
Q 1816 3084 2150 3084 
Q 2853 3084 3261 2657 
Q 3669 2231 3669 1497 
Q 3669 778 3244 343 
Q 2819 -91 2113 -91 
Q 1303 -91 875 529 
Q 447 1150 447 2328 
Q 447 3434 972 4092 
Q 1497 4750 2381 4750 
Q 2619 4750 2861 4703 
Q 3103 4656 3366 4563 
z
" transform="scale(0.015625)"/>
       </defs>
       <use xlink:href="#DejaVuSans-36"/>
      </g>
     </g>
    </g>
    <g id="xtick_5">
     <g id="line2d_5">
      <g>
       <use xlink:href="#md509fcb4d4" x="331.739545" y="273.312" style="stroke: #000000; stroke-width: 0.8"/>
      </g>
     </g>
     <g id="text_5">
      <!-- 8 -->
      <g transform="translate(328.558295 287.910437) scale(0.1 -0.1)">
       <defs>
        <path id="DejaVuSans-38" d="M 2034 2216 
Q 1584 2216 1326 1975 
Q 1069 1734 1069 1313 
Q 1069 891 1326 650 
Q 1584 409 2034 409 
Q 2484 409 2743 651 
Q 3003 894 3003 1313 
Q 3003 1734 2745 1975 
Q 2488 2216 2034 2216 
z
M 1403 2484 
Q 997 2584 770 2862 
Q 544 3141 544 3541 
Q 544 4100 942 4425 
Q 1341 4750 2034 4750 
Q 2731 4750 3128 4425 
Q 3525 4100 3525 3541 
Q 3525 3141 3298 2862 
Q 3072 2584 2669 2484 
Q 3125 2378 3379 2068 
Q 3634 1759 3634 1313 
Q 3634 634 3220 271 
Q 2806 -91 2034 -91 
Q 1263 -91 848 271 
Q 434 634 434 1313 
Q 434 1759 690 2068 
Q 947 2378 1403 2484 
z
M 1172 3481 
Q 1172 3119 1398 2916 
Q 1625 2713 2034 2713 
Q 2441 2713 2670 2916 
Q 2900 3119 2900 3481 
Q 2900 3844 2670 4047 
Q 2441 4250 2034 4250 
Q 1625 4250 1398 4047 
Q 1172 3844 1172 3481 
z
" transform="scale(0.015625)"/>
       </defs>
       <use xlink:href="#DejaVuSans-38"/>
      </g>
     </g>
    </g>
   </g>
   <g id="matplotlib.axis_2">
    <g id="ytick_1">
     <g id="line2d_6">
      <defs>
       <path id="m9ea4815d43" d="M 0 0 
L -3.5 0 
" style="stroke: #000000; stroke-width: 0.8"/>
      </defs>
      <g>
       <use xlink:href="#m9ea4815d43" x="26.925" y="240.879482" style="stroke: #000000; stroke-width: 0.8"/>
      </g>
     </g>
     <g id="text_6">
      <!-- 0 -->
      <g transform="translate(13.5625 244.678701) scale(0.1 -0.1)">
       <use xlink:href="#DejaVuSans-30"/>
      </g>
     </g>
    </g>
    <g id="ytick_2">
     <g id="line2d_7">
      <g>
       <use xlink:href="#m9ea4815d43" x="26.925" y="187.876377" style="stroke: #000000; stroke-width: 0.8"/>
      </g>
     </g>
     <g id="text_7">
      <!-- 5 -->
      <g transform="translate(13.5625 191.675596) scale(0.1 -0.1)">
       <defs>
        <path id="DejaVuSans-35" d="M 691 4666 
L 3169 4666 
L 3169 4134 
L 1269 4134 
L 1269 2991 
Q 1406 3038 1543 3061 
Q 1681 3084 1819 3084 
Q 2600 3084 3056 2656 
Q 3513 2228 3513 1497 
Q 3513 744 3044 326 
Q 2575 -91 1722 -91 
Q 1428 -91 1123 -41 
Q 819 9 494 109 
L 494 744 
Q 775 591 1075 516 
Q 1375 441 1709 441 
Q 2250 441 2565 725 
Q 2881 1009 2881 1497 
Q 2881 1984 2565 2268 
Q 2250 2553 1709 2553 
Q 1456 2553 1204 2497 
Q 953 2441 691 2322 
L 691 4666 
z
" transform="scale(0.015625)"/>
       </defs>
       <use xlink:href="#DejaVuSans-35"/>
      </g>
     </g>
    </g>
    <g id="ytick_3">
     <g id="line2d_8">
      <g>
       <use xlink:href="#m9ea4815d43" x="26.925" y="134.873271" style="stroke: #000000; stroke-width: 0.8"/>
      </g>
     </g>
     <g id="text_8">
      <!-- 10 -->
      <g transform="translate(7.2 138.67249) scale(0.1 -0.1)">
       <defs>
        <path id="DejaVuSans-31" d="M 794 531 
L 1825 531 
L 1825 4091 
L 703 3866 
L 703 4441 
L 1819 4666 
L 2450 4666 
L 2450 531 
L 3481 531 
L 3481 0 
L 794 0 
L 794 531 
z
" transform="scale(0.015625)"/>
       </defs>
       <use xlink:href="#DejaVuSans-31"/>
       <use xlink:href="#DejaVuSans-30" transform="translate(63.623047 0)"/>
      </g>
     </g>
    </g>
    <g id="ytick_4">
     <g id="line2d_9">
      <g>
       <use xlink:href="#m9ea4815d43" x="26.925" y="81.870166" style="stroke: #000000; stroke-width: 0.8"/>
      </g>
     </g>
     <g id="text_9">
      <!-- 15 -->
      <g transform="translate(7.2 85.669385) scale(0.1 -0.1)">
       <use xlink:href="#DejaVuSans-31"/>
       <use xlink:href="#DejaVuSans-35" transform="translate(63.623047 0)"/>
      </g>
     </g>
    </g>
    <g id="ytick_5">
     <g id="line2d_10">
      <g>
       <use xlink:href="#m9ea4815d43" x="26.925" y="28.86706" style="stroke: #000000; stroke-width: 0.8"/>
      </g>
     </g>
     <g id="text_10">
      <!-- 20 -->
      <g transform="translate(7.2 32.666279) scale(0.1 -0.1)">
       <use xlink:href="#DejaVuSans-32"/>
       <use xlink:href="#DejaVuSans-30" transform="translate(63.623047 0)"/>
      </g>
     </g>
    </g>
   </g>
   <g id="line2d_11">
    <path d="M 43.157727 249.17694 
L 46.437066 246.962036 
L 49.716405 244.747133 
L 52.995744 242.532229 
L 56.275083 240.317325 
L 59.554421 238.102422 
L 62.83376 235.887518 
L 66.113099 233.672614 
L 69.392438 231.457711 
L 72.671777 229.242807 
L 75.951116 227.027903 
L 79.230455 224.813 
L 82.509793 222.598096 
L 85.789132 220.383192 
L 89.068471 218.168288 
L 92.34781 215.953385 
L 95.627149 213.738481 
L 98.906488 211.523577 
L 102.185826 209.308674 
L 105.465165 207.09377 
L 108.744504 204.878866 
L 112.023843 202.663963 
L 115.303182 200.449059 
L 118.582521 198.234155 
L 121.86186 196.019252 
L 125.141198 193.804348 
L 128.420537 191.589444 
L 131.699876 189.374541 
L 134.979215 187.159637 
L 138.258554 184.944733 
L 141.537893 182.729829 
L 144.817231 180.514926 
L 148.09657 178.300022 
L 151.375909 176.085118 
L 154.655248 173.870215 
L 157.934587 171.655311 
L 161.213926 169.440407 
L 164.493264 167.225504 
L 167.772603 165.0106 
L 171.051942 162.795696 
L 174.331281 160.580793 
L 177.61062 158.365889 
L 180.889959 156.150985 
L 184.169298 153.936082 
L 187.448636 151.721178 
L 190.727975 149.506274 
L 194.007314 147.291371 
L 197.286653 145.076467 
L 200.565992 142.861563 
L 203.845331 140.646659 
L 207.124669 138.431756 
L 210.404008 136.216852 
L 213.683347 134.001948 
L 216.962686 131.787045 
L 220.242025 129.572141 
L 223.521364 127.357237 
L 226.800702 125.142334 
L 230.080041 122.92743 
L 233.35938 120.712526 
L 236.638719 118.497623 
L 239.918058 116.282719 
L 243.197397 114.067815 
L 246.476736 111.852912 
L 249.756074 109.638008 
L 253.035413 107.423104 
L 256.314752 105.2082 
L 259.594091 102.993297 
L 262.87343 100.778393 
L 266.152769 98.563489 
L 269.432107 96.348586 
L 272.711446 94.133682 
L 275.990785 91.918778 
L 279.270124 89.703875 
L 282.549463 87.488971 
L 285.828802 85.274067 
L 289.10814 83.059164 
L 292.387479 80.84426 
L 295.666818 78.629356 
L 298.946157 76.414453 
L 302.225496 74.199549 
L 305.504835 71.984645 
L 308.784174 69.769742 
L 312.063512 67.554838 
L 315.342851 65.339934 
L 318.62219 63.12503 
L 321.901529 60.910127 
L 325.180868 58.695223 
L 328.460207 56.480319 
L 331.739545 54.265416 
L 335.018884 52.050512 
L 338.298223 49.835608 
L 341.577562 47.620705 
L 344.856901 45.405801 
L 348.13624 43.190897 
L 351.415579 40.975994 
L 354.694917 38.76109 
L 357.974256 36.546186 
L 361.253595 34.331283 
L 364.532934 32.116379 
L 367.812273 29.901475 
" clip-path="url(#p3d07637abb)" style="fill: none; stroke: #1f77b4; stroke-width: 2.25; stroke-linecap: square"/>
   </g>
   <g id="patch_3">
    <path d="M 26.925 273.312 
L 26.925 7.2 
" style="fill: none; stroke: #000000; stroke-width: 0.8; stroke-linejoin: miter; stroke-linecap: square"/>
   </g>
   <g id="patch_4">
    <path d="M 384.045 273.312 
L 384.045 7.2 
" style="fill: none; stroke: #000000; stroke-width: 0.8; stroke-linejoin: miter; stroke-linecap: square"/>
   </g>
   <g id="patch_5">
    <path d="M 26.925 273.312 
L 384.045 273.312 
" style="fill: none; stroke: #000000; stroke-width: 0.8; stroke-linejoin: miter; stroke-linecap: square"/>
   </g>
   <g id="patch_6">
    <path d="M 26.925 7.2 
L 384.045 7.2 
" style="fill: none; stroke: #000000; stroke-width: 0.8; stroke-linejoin: miter; stroke-linecap: square"/>
   </g>
  </g>
 </g>
 <defs>
  <clipPath id="p3d07637abb">
   <rect x="26.925" y="7.2" width="357.12" height="266.112"/>
  </clipPath>
 </defs>
</svg>