<?xml version="1.0" encoding="utf-8" standalone="no"?>
<!DOCTYPE svg PUBLIC "-//W3C//DTD SVG 1.1//EN"
  "http://www.w3.org/Graphics/SVG/1.1/DTD/svg11.dtd">
<svg xmlns:xlink="http://www.w3.org/1999/xlink" width="411.285625pt" height="310.86825pt" viewBox="0 0 411.285625 310.86825" xmlns="http://www.w3.org/2000/svg" version="1.1">
 <metadata>
  <rdf:RDF xmlns:dc="http://purl.org/dc/elements/1.1/" xmlns:cc="http://creativecommons.org/ns#" xmlns:rdf="http://www.w3.org/1999/02/22-rdf-syntax-ns#">
   <cc:Work>
    <dc:type rdf:resource="http://purl.org/dc/dcmitype/StillImage"/>
    <dc:date>2023-04-26T06:06:40.754921</dc:date>
    <dc:format>image/svg+xml</dc:format>
    <dc:creator>
     <cc:Agent>
      <dc:title>Matplotlib v3.7.1, https://matplotlib.org/</dc:title>
     </cc:Agent>
    </dc:creator>
   </cc:Work>
  </rdf:RDF>
 </metadata>
 <defs>
  <style type="text/css">*{stroke-linejoin: round; stroke-linecap: butt}</style>
 </defs>
 <g id="figure_1">
  <g id="patch_1">
   <path d="M 0 310.86825 
L 411.285625 310.86825 
L 411.285625 0 
L 0 0 
z
" style="fill: #ffffff"/>
  </g>
  <g id="axes_1">
   <g id="patch_2">
    <path d="M 46.965625 273.312 
L 404.085625 273.312 
L 404.085625 7.2 
L 46.965625 7.2 
z
" style="fill: #ffffff"/>
   </g>
   <g id="PathCollection_1">
    <defs>
     <path id="m5cdf027500" d="M 0 3 
C 0.795609 3 1.55874 2.683901 2.12132 2.12132 
C 2.683901 1.55874 3 0.795609 3 0 
C 3 -0.795609 2.683901 -1.55874 2.12132 -2.12132 
C 1.55874 -2.683901 0.795609 -3 0 -3 
C -0.795609 -3 -1.55874 -2.683901 -2.12132 -2.12132 
C -2.683901 -1.55874 -3 -0.795609 -3 0 
C -3 0.795609 -2.683901 1.55874 -2.12132 2.12132 
C -1.55874 2.683901 -0.795609 3 0 3 
z
" style="stroke: #1f77b4; stroke-opacity: 0.8"/>
    </defs>
    <g clip-path="url(#p9c686610a4)">
     <use xlink:href="#m5cdf027500" x="63.198352" y="200.307294" style="fill: #1f77b4; fill-opacity: 0.8; stroke: #1f77b4; stroke-opacity: 0.8"/>
     <use xlink:href="#m5cdf027500" x="96.1333" y="187.682877" style="fill: #1f77b4; fill-opacity: 0.8; stroke: #1f77b4; stroke-opacity: 0.8"/>
     <use xlink:href="#m5cdf027500" x="129.068248" y="168.260696" style="fill: #1f77b4; fill-opacity: 0.8; stroke: #1f77b4; stroke-opacity: 0.8"/>
     <use xlink:href="#m5cdf027500" x="161.979721" y="148.838516" style="fill: #1f77b4; fill-opacity: 0.8; stroke: #1f77b4; stroke-opacity: 0.8"/>
     <use xlink:href="#m5cdf027500" x="194.914669" y="128.445227" style="fill: #1f77b4; fill-opacity: 0.8; stroke: #1f77b4; stroke-opacity: 0.8"/>
     <use xlink:href="#m5cdf027500" x="227.849616" y="110.965264" style="fill: #1f77b4; fill-opacity: 0.8; stroke: #1f77b4; stroke-opacity: 0.8"/>
     <use xlink:href="#m5cdf027500" x="260.761089" y="92.514193" style="fill: #1f77b4; fill-opacity: 0.8; stroke: #1f77b4; stroke-opacity: 0.8"/>
     <use xlink:href="#m5cdf027500" x="293.696037" y="74.063121" style="fill: #1f77b4; fill-opacity: 0.8; stroke: #1f77b4; stroke-opacity: 0.8"/>
     <use xlink:href="#m5cdf027500" x="326.60751" y="57.554268" style="fill: #1f77b4; fill-opacity: 0.8; stroke: #1f77b4; stroke-opacity: 0.8"/>
     <use xlink:href="#m5cdf027500" x="359.542458" y="38.132088" style="fill: #1f77b4; fill-opacity: 0.8; stroke: #1f77b4; stroke-opacity: 0.8"/>
     <use xlink:href="#m5cdf027500" x="157.355213" y="228.469455" style="fill: #1f77b4; fill-opacity: 0.8; stroke: #1f77b4; stroke-opacity: 0.8"/>
     <use xlink:href="#m5cdf027500" x="190.290161" y="196.422858" style="fill: #1f77b4; fill-opacity: 0.8; stroke: #1f77b4; stroke-opacity: 0.8"/>
     <use xlink:href="#m5cdf027500" x="223.225108" y="168.260696" style="fill: #1f77b4; fill-opacity: 0.8; stroke: #1f77b4; stroke-opacity: 0.8"/>
     <use xlink:href="#m5cdf027500" x="256.136581" y="141.069644" style="fill: #1f77b4; fill-opacity: 0.8; stroke: #1f77b4; stroke-opacity: 0.8"/>
     <use xlink:href="#m5cdf027500" x="289.071529" y="116.791918" style="fill: #1f77b4; fill-opacity: 0.8; stroke: #1f77b4; stroke-opacity: 0.8"/>
     <use xlink:href="#m5cdf027500" x="322.006477" y="94.456411" style="fill: #1f77b4; fill-opacity: 0.8; stroke: #1f77b4; stroke-opacity: 0.8"/>
     <use xlink:href="#m5cdf027500" x="354.91795" y="73.092012" style="fill: #1f77b4; fill-opacity: 0.8; stroke: #1f77b4; stroke-opacity: 0.8"/>
     <use xlink:href="#m5cdf027500" x="387.852898" y="53.669832" style="fill: #1f77b4; fill-opacity: 0.8; stroke: #1f77b4; stroke-opacity: 0.8"/>
     <use xlink:href="#m5cdf027500" x="190.290161" y="202.249512" style="fill: #1f77b4; fill-opacity: 0.8; stroke: #1f77b4; stroke-opacity: 0.8"/>
     <use xlink:href="#m5cdf027500" x="256.136581" y="149.809625" style="fill: #1f77b4; fill-opacity: 0.8; stroke: #1f77b4; stroke-opacity: 0.8"/>
     <use xlink:href="#m5cdf027500" x="157.355213" y="236.238328" style="fill: #1f77b4; fill-opacity: 0.8; stroke: #1f77b4; stroke-opacity: 0.8"/>
     <use xlink:href="#m5cdf027500" x="223.225108" y="185.740659" style="fill: #1f77b4; fill-opacity: 0.8; stroke: #1f77b4; stroke-opacity: 0.8"/>
     <use xlink:href="#m5cdf027500" x="161.979721" y="158.549606" style="fill: #1f77b4; fill-opacity: 0.8; stroke: #1f77b4; stroke-opacity: 0.8"/>
     <use xlink:href="#m5cdf027500" x="161.979721" y="182.827332" style="fill: #1f77b4; fill-opacity: 0.8; stroke: #1f77b4; stroke-opacity: 0.8"/>
     <use xlink:href="#m5cdf027500" x="194.914669" y="136.214099" style="fill: #1f77b4; fill-opacity: 0.8; stroke: #1f77b4; stroke-opacity: 0.8"/>
     <use xlink:href="#m5cdf027500" x="227.849616" y="132.329663" style="fill: #1f77b4; fill-opacity: 0.8; stroke: #1f77b4; stroke-opacity: 0.8"/>
     <use xlink:href="#m5cdf027500" x="260.761089" y="127.474117" style="fill: #1f77b4; fill-opacity: 0.8; stroke: #1f77b4; stroke-opacity: 0.8"/>
     <use xlink:href="#m5cdf027500" x="208.905566" y="86.687539" style="fill: #1f77b4; fill-opacity: 0.8; stroke: #1f77b4; stroke-opacity: 0.8"/>
     <use xlink:href="#m5cdf027500" x="241.840514" y="67.265358" style="fill: #1f77b4; fill-opacity: 0.8; stroke: #1f77b4; stroke-opacity: 0.8"/>
     <use xlink:href="#m5cdf027500" x="307.686934" y="49.785396" style="fill: #1f77b4; fill-opacity: 0.8; stroke: #1f77b4; stroke-opacity: 0.8"/>
    </g>
   </g>
   <g id="PolyCollection_1">
    <path d="M 63.198352 207.604924 
L 63.198352 261.216 
L 66.477691 258.829508 
L 69.75703 256.443016 
L 73.036369 254.065682 
L 76.315708 251.810737 
L 79.595046 249.555791 
L 82.874385 247.300466 
L 86.153724 245.043647 
L 89.433063 242.786828 
L 92.712402 240.414491 
L 95.991741 238.02201 
L 99.27108 235.629096 
L 102.550418 233.234918 
L 105.829757 230.835786 
L 109.109096 228.436436 
L 112.388435 226.037087 
L 115.667774 223.640141 
L 118.947113 221.246589 
L 122.226451 218.853038 
L 125.50579 216.497218 
L 128.785129 214.32247 
L 132.064468 212.147722 
L 135.343807 209.801191 
L 138.623146 207.328505 
L 141.902485 205.171124 
L 145.181823 203.017663 
L 148.461162 200.726425 
L 151.740501 198.435188 
L 155.01984 196.138828 
L 158.299179 193.851338 
L 161.578518 191.720569 
L 164.857856 189.248761 
L 168.137195 187.204626 
L 171.416534 184.730339 
L 174.695873 182.358695 
L 177.975212 180.132679 
L 181.254551 177.960675 
L 184.533889 175.663735 
L 187.813228 173.624552 
L 191.092567 171.688912 
L 194.371906 169.621518 
L 197.651245 167.251791 
L 200.930584 164.962207 
L 204.209923 162.616424 
L 207.489261 160.618996 
L 210.7686 158.448732 
L 214.047939 156.15279 
L 217.327278 153.929001 
L 220.606617 151.900447 
L 223.885956 149.77407 
L 227.165294 147.672696 
L 230.444633 145.762089 
L 233.723972 143.44391 
L 237.003311 141.332005 
L 240.28265 139.197709 
L 243.561989 137.225957 
L 246.841327 135.171876 
L 250.120666 133.056269 
L 253.400005 131.155214 
L 256.679344 129.361013 
L 259.958683 127.44322 
L 263.238022 125.286517 
L 266.517361 123.534676 
L 269.796699 121.851982 
L 273.076038 119.892 
L 276.355377 118.077983 
L 279.634716 116.303287 
L 282.914055 114.620675 
L 286.193394 112.759813 
L 289.472732 111.216483 
L 292.752071 109.666965 
L 296.03141 107.949054 
L 299.310749 106.160916 
L 302.590088 104.426557 
L 305.869427 102.79646 
L 309.148765 100.899974 
L 312.428104 99.119902 
L 315.707443 97.356438 
L 318.986782 95.754395 
L 322.266121 94.087808 
L 325.54546 92.442612 
L 328.824799 90.631114 
L 332.104137 88.819391 
L 335.383476 87.019451 
L 338.662815 85.448447 
L 341.942154 83.897988 
L 345.221493 82.219559 
L 348.500832 80.620789 
L 351.78017 78.780553 
L 355.059509 77.03576 
L 358.338848 75.431498 
L 361.618187 73.886976 
L 364.897526 72.342454 
L 368.176865 70.797932 
L 371.456204 69.25341 
L 374.735542 67.691147 
L 378.014881 65.870699 
L 381.29422 64.251469 
L 384.573559 62.670215 
L 387.852898 61.117028 
L 387.852898 19.296 
L 387.852898 19.296 
L 384.573559 21.52813 
L 381.29422 23.852852 
L 378.014881 26.208255 
L 374.735542 28.716296 
L 371.456204 31.224337 
L 368.176865 33.487427 
L 364.897526 35.721712 
L 361.618187 38.002233 
L 358.338848 40.168083 
L 355.059509 42.386441 
L 351.78017 44.604799 
L 348.500832 46.832458 
L 345.221493 48.899365 
L 341.942154 51.192235 
L 338.662815 53.517313 
L 335.383476 55.799451 
L 332.104137 58.173625 
L 328.824799 60.549202 
L 325.54546 62.931127 
L 322.266121 65.318167 
L 318.986782 67.756325 
L 315.707443 69.986574 
L 312.428104 72.21923 
L 309.148765 74.507163 
L 305.869427 76.879984 
L 302.590088 78.992717 
L 299.310749 81.177727 
L 296.03141 83.270698 
L 292.752071 85.226768 
L 289.472732 87.028582 
L 286.193394 89.207782 
L 282.914055 91.339555 
L 279.634716 93.139427 
L 276.355377 95.004422 
L 273.076038 96.834044 
L 269.796699 98.75083 
L 266.517361 100.800541 
L 263.238022 102.866203 
L 259.958683 104.844369 
L 256.679344 106.602962 
L 253.400005 108.519968 
L 250.120666 110.40679 
L 246.841327 112.39518 
L 243.561989 114.246912 
L 240.28265 116.003867 
L 237.003311 117.781138 
L 233.723972 119.638438 
L 230.444633 121.379031 
L 227.165294 123.182675 
L 223.885956 125.007719 
L 220.606617 126.805434 
L 217.327278 128.618647 
L 214.047939 130.451939 
L 210.7686 132.199555 
L 207.489261 134.096701 
L 204.209923 135.956056 
L 200.930584 137.780397 
L 197.651245 139.44888 
L 194.371906 141.094122 
L 191.092567 142.855499 
L 187.813228 144.636415 
L 184.533889 146.417647 
L 181.254551 148.136956 
L 177.975212 149.914071 
L 174.695873 151.656773 
L 171.416534 153.336037 
L 168.137195 154.979503 
L 164.857856 156.768393 
L 161.578518 158.64351 
L 158.299179 160.284628 
L 155.01984 161.914464 
L 151.740501 163.676934 
L 148.461162 165.320627 
L 145.181823 166.917987 
L 141.902485 168.515346 
L 138.623146 170.114758 
L 135.343807 171.78681 
L 132.064468 173.311893 
L 128.785129 174.915155 
L 125.50579 176.574713 
L 122.226451 178.234903 
L 118.947113 179.897648 
L 115.667774 181.58289 
L 112.388435 183.306975 
L 109.109096 184.982139 
L 105.829757 186.566006 
L 102.550418 188.202612 
L 99.27108 189.81858 
L 95.991741 191.429767 
L 92.712402 193.040953 
L 89.433063 194.652139 
L 86.153724 196.263325 
L 82.874385 197.874512 
L 79.595046 199.488505 
L 76.315708 201.10385 
L 73.036369 202.719194 
L 69.75703 204.40098 
L 66.477691 205.994279 
L 63.198352 207.604924 
z
" clip-path="url(#p9c686610a4)" style="fill: #1f77b4; fill-opacity: 0.15"/>
   </g>
   <g id="matplotlib.axis_1">
    <g id="xtick_1">
     <g id="line2d_1">
      <defs>
       <path id="medeca33a85" d="M 0 0 
L 0 3.5 
" style="stroke: #000000; stroke-width: 0.8"/>
      </defs>
      <g>
       <use xlink:href="#medeca33a85" x="81.884181" y="273.312" style="stroke: #000000; stroke-width: 0.8"/>
      </g>
     </g>
     <g id="text_1">
      <!-- 40 -->
      <g transform="translate(75.521681 287.910437) scale(0.1 -0.1)">
       <defs>
        <path id="DejaVuSans-34" d="M 2419 4116 
L 825 1625 
L 2419 1625 
L 2419 4116 
z
M 2253 4666 
L 3047 4666 
L 3047 1625 
L 3713 1625 
L 3713 1100 
L 3047 1100 
L 3047 0 
L 2419 0 
L 2419 1100 
L 313 1100 
L 313 1709 
L 2253 4666 
z
" transform="scale(0.015625)"/>
        <path id="DejaVuSans-30" d="M 2034 4250 
Q 1547 4250 1301 3770 
Q 1056 3291 1056 2328 
Q 1056 1369 1301 889 
Q 1547 409 2034 409 
Q 2525 409 2770 889 
Q 3016 1369 3016 2328 
Q 3016 3291 2770 3770 
Q 2525 4250 2034 4250 
z
M 2034 4750 
Q 2819 4750 3233 4129 
Q 3647 3509 3647 2328 
Q 3647 1150 3233 529 
Q 2819 -91 2034 -91 
Q 1250 -91 836 529 
Q 422 1150 422 2328 
Q 422 3509 836 4129 
Q 1250 4750 2034 4750 
z
" transform="scale(0.015625)"/>
       </defs>
       <use xlink:href="#DejaVuSans-34"/>
       <use xlink:href="#DejaVuSans-30" x="63.623047"/>
      </g>
     </g>
    </g>
    <g id="xtick_2">
     <g id="line2d_2">
      <g>
       <use xlink:href="#medeca33a85" x="128.833501" y="273.312" style="stroke: #000000; stroke-width: 0.8"/>
      </g>
     </g>
     <g id="text_2">
      <!-- 60 -->
      <g transform="translate(122.471001 287.910437) scale(0.1 -0.1)">
       <defs>
        <path id="DejaVuSans-36" d="M 2113 2584 
Q 1688 2584 1439 2293 
Q 1191 2003 1191 1497 
Q 1191 994 1439 701 
Q 1688 409 2113 409 
Q 2538 409 2786 701 
Q 3034 994 3034 1497 
Q 3034 2003 2786 2293 
Q 2538 2584 2113 2584 
z
M 3366 4563 
L 3366 3988 
Q 3128 4100 2886 4159 
Q 2644 4219 2406 4219 
Q 1781 4219 1451 3797 
Q 1122 3375 1075 2522 
Q 1259 2794 1537 2939 
Q 1816 3084 2150 3084 
Q 2853 3084 3261 2657 
Q 3669 2231 3669 1497 
Q 3669 778 3244 343 
Q 2819 -91 2113 -91 
Q 1303 -91 875 529 
Q 447 1150 447 2328 
Q 447 3434 972 4092 
Q 1497 4750 2381 4750 
Q 2619 4750 2861 4703 
Q 3103 4656 3366 4563 
z
" transform="scale(0.015625)"/>
       </defs>
       <use xlink:href="#DejaVuSans-36"/>
       <use xlink:href="#DejaVuSans-30" x="63.623047"/>
      </g>
     </g>
    </g>
    <g id="xtick_3">
     <g id="line2d_3">
      <g>
       <use xlink:href="#medeca33a85" x="175.782821" y="273.312" style="stroke: #000000; stroke-width: 0.8"/>
      </g>
     </g>
     <g id="text_3">
      <!-- 80 -->
      <g transform="translate(169.420321 287.910437) scale(0.1 -0.1)">
       <defs>
        <path id="DejaVuSans-38" d="M 2034 2216 
Q 1584 2216 1326 1975 
Q 1069 1734 1069 1313 
Q 1069 891 1326 650 
Q 1584 409 2034 409 
Q 2484 409 2743 651 
Q 3003 894 3003 1313 
Q 3003 1734 2745 1975 
Q 2488 2216 2034 2216 
z
M 1403 2484 
Q 997 2584 770 2862 
Q 544 3141 544 3541 
Q 544 4100 942 4425 
Q 1341 4750 2034 4750 
Q 2731 4750 3128 4425 
Q 3525 4100 3525 3541 
Q 3525 3141 3298 2862 
Q 3072 2584 2669 2484 
Q 3125 2378 3379 2068 
Q 3634 1759 3634 1313 
Q 3634 634 3220 271 
Q 2806 -91 2034 -91 
Q 1263 -91 848 271 
Q 434 634 434 1313 
Q 434 1759 690 2068 
Q 947 2378 1403 2484 
z
M 1172 3481 
Q 1172 3119 1398 2916 
Q 1625 2713 2034 2713 
Q 2441 2713 2670 2916 
Q 2900 3119 2900 3481 
Q 2900 3844 2670 4047 
Q 2441 4250 2034 4250 
Q 1625 4250 1398 4047 
Q 1172 3844 1172 3481 
z
" transform="scale(0.015625)"/>
       </defs>
       <use xlink:href="#DejaVuSans-38"/>
       <use xlink:href="#DejaVuSans-30" x="63.623047"/>
      </g>
     </g>
    </g>
    <g id="xtick_4">
     <g id="line2d_4">
      <g>
       <use xlink:href="#medeca33a85" x="222.73214" y="273.312" style="stroke: #000000; stroke-width: 0.8"/>
      </g>
     </g>
     <g id="text_4">
      <!-- 100 -->
      <g transform="translate(213.18839 287.910437) scale(0.1 -0.1)">
       <defs>
        <path id="DejaVuSans-31" d="M 794 531 
L 1825 531 
L 1825 4091 
L 703 3866 
L 703 4441 
L 1819 4666 
L 2450 4666 
L 2450 531 
L 3481 531 
L 3481 0 
L 794 0 
L 794 531 
z
" transform="scale(0.015625)"/>
       </defs>
       <use xlink:href="#DejaVuSans-31"/>
       <use xlink:href="#DejaVuSans-30" x="63.623047"/>
       <use xlink:href="#DejaVuSans-30" x="127.246094"/>
      </g>
     </g>
    </g>
    <g id="xtick_5">
     <g id="line2d_5">
      <g>
       <use xlink:href="#medeca33a85" x="269.68146" y="273.312" style="stroke: #000000; stroke-width: 0.8"/>
      </g>
     </g>
     <g id="text_5">
      <!-- 120 -->
      <g transform="translate(260.13771 287.910437) scale(0.1 -0.1)">
       <defs>
        <path id="DejaVuSans-32" d="M 1228 531 
L 3431 531 
L 3431 0 
L 469 0 
L 469 531 
Q 828 903 1448 1529 
Q 2069 2156 2228 2338 
Q 2531 2678 2651 2914 
Q 2772 3150 2772 3378 
Q 2772 3750 2511 3984 
Q 2250 4219 1831 4219 
Q 1534 4219 1204 4116 
Q 875 4013 500 3803 
L 500 4441 
Q 881 4594 1212 4672 
Q 1544 4750 1819 4750 
Q 2544 4750 2975 4387 
Q 3406 4025 3406 3419 
Q 3406 3131 3298 2873 
Q 3191 2616 2906 2266 
Q 2828 2175 2409 1742 
Q 1991 1309 1228 531 
z
" transform="scale(0.015625)"/>
       </defs>
       <use xlink:href="#DejaVuSans-31"/>
       <use xlink:href="#DejaVuSans-32" x="63.623047"/>
       <use xlink:href="#DejaVuSans-30" x="127.246094"/>
      </g>
     </g>
    </g>
    <g id="xtick_6">
     <g id="line2d_6">
      <g>
       <use xlink:href="#medeca33a85" x="316.63078" y="273.312" style="stroke: #000000; stroke-width: 0.8"/>
      </g>
     </g>
     <g id="text_6">
      <!-- 140 -->
      <g transform="translate(307.08703 287.910437) scale(0.1 -0.1)">
       <use xlink:href="#DejaVuSans-31"/>
       <use xlink:href="#DejaVuSans-34" x="63.623047"/>
       <use xlink:href="#DejaVuSans-30" x="127.246094"/>
      </g>
     </g>
    </g>
    <g id="xtick_7">
     <g id="line2d_7">
      <g>
       <use xlink:href="#medeca33a85" x="363.580099" y="273.312" style="stroke: #000000; stroke-width: 0.8"/>
      </g>
     </g>
     <g id="text_7">
      <!-- 160 -->
      <g transform="translate(354.036349 287.910437) scale(0.1 -0.1)">
       <use xlink:href="#DejaVuSans-31"/>
       <use xlink:href="#DejaVuSans-36" x="63.623047"/>
       <use xlink:href="#DejaVuSans-30" x="127.246094"/>
      </g>
     </g>
    </g>
    <g id="text_8">
     <!-- MW -->
     <g transform="translate(216.267813 301.588562) scale(0.1 -0.1)">
      <defs>
       <path id="DejaVuSans-4d" d="M 628 4666 
L 1569 4666 
L 2759 1491 
L 3956 4666 
L 4897 4666 
L 4897 0 
L 4281 0 
L 4281 4097 
L 3078 897 
L 2444 897 
L 1241 4097 
L 1241 0 
L 628 0 
L 628 4666 
z
" transform="scale(0.015625)"/>
       <path id="DejaVuSans-57" d="M 213 4666 
L 850 4666 
L 1831 722 
L 2809 4666 
L 3519 4666 
L 4500 722 
L 5478 4666 
L 6119 4666 
L 4947 0 
L 4153 0 
L 3169 4050 
L 2175 0 
L 1381 0 
L 213 4666 
z
" transform="scale(0.015625)"/>
      </defs>
      <use xlink:href="#DejaVuSans-4d"/>
      <use xlink:href="#DejaVuSans-57" x="86.279297"/>
     </g>
    </g>
   </g>
   <g id="matplotlib.axis_2">
    <g id="ytick_1">
     <g id="line2d_8">
      <defs>
       <path id="m6d550b2966" d="M 0 0 
L -3.5 0 
" style="stroke: #000000; stroke-width: 0.8"/>
      </defs>
      <g>
       <use xlink:href="#m6d550b2966" x="46.965625" y="263.42938" style="stroke: #000000; stroke-width: 0.8"/>
      </g>
     </g>
     <g id="text_9">
      <!-- 0 -->
      <g transform="translate(33.603125 267.228599) scale(0.1 -0.1)">
       <use xlink:href="#DejaVuSans-30"/>
      </g>
     </g>
    </g>
    <g id="ytick_2">
     <g id="line2d_9">
      <g>
       <use xlink:href="#m6d550b2966" x="46.965625" y="214.873929" style="stroke: #000000; stroke-width: 0.8"/>
      </g>
     </g>
     <g id="text_10">
      <!-- 50 -->
      <g transform="translate(27.240625 218.673148) scale(0.1 -0.1)">
       <defs>
        <path id="DejaVuSans-35" d="M 691 4666 
L 3169 4666 
L 3169 4134 
L 1269 4134 
L 1269 2991 
Q 1406 3038 1543 3061 
Q 1681 3084 1819 3084 
Q 2600 3084 3056 2656 
Q 3513 2228 3513 1497 
Q 3513 744 3044 326 
Q 2575 -91 1722 -91 
Q 1428 -91 1123 -41 
Q 819 9 494 109 
L 494 744 
Q 775 591 1075 516 
Q 1375 441 1709 441 
Q 2250 441 2565 725 
Q 2881 1009 2881 1497 
Q 2881 1984 2565 2268 
Q 2250 2553 1709 2553 
Q 1456 2553 1204 2497 
Q 953 2441 691 2322 
L 691 4666 
z
" transform="scale(0.015625)"/>
       </defs>
       <use xlink:href="#DejaVuSans-35"/>
       <use xlink:href="#DejaVuSans-30" x="63.623047"/>
      </g>
     </g>
    </g>
    <g id="ytick_3">
     <g id="line2d_10">
      <g>
       <use xlink:href="#m6d550b2966" x="46.965625" y="166.318478" style="stroke: #000000; stroke-width: 0.8"/>
      </g>
     </g>
     <g id="text_11">
      <!-- 100 -->
      <g transform="translate(20.878125 170.117697) scale(0.1 -0.1)">
       <use xlink:href="#DejaVuSans-31"/>
       <use xlink:href="#DejaVuSans-30" x="63.623047"/>
       <use xlink:href="#DejaVuSans-30" x="127.246094"/>
      </g>
     </g>
    </g>
    <g id="ytick_4">
     <g id="line2d_11">
      <g>
       <use xlink:href="#m6d550b2966" x="46.965625" y="117.763027" style="stroke: #000000; stroke-width: 0.8"/>
      </g>
     </g>
     <g id="text_12">
      <!-- 150 -->
      <g transform="translate(20.878125 121.562246) scale(0.1 -0.1)">
       <use xlink:href="#DejaVuSans-31"/>
       <use xlink:href="#DejaVuSans-35" x="63.623047"/>
       <use xlink:href="#DejaVuSans-30" x="127.246094"/>
      </g>
     </g>
    </g>
    <g id="ytick_5">
     <g id="line2d_12">
      <g>
       <use xlink:href="#m6d550b2966" x="46.965625" y="69.207576" style="stroke: #000000; stroke-width: 0.8"/>
      </g>
     </g>
     <g id="text_13">
      <!-- 200 -->
      <g transform="translate(20.878125 73.006795) scale(0.1 -0.1)">
       <use xlink:href="#DejaVuSans-32"/>
       <use xlink:href="#DejaVuSans-30" x="63.623047"/>
       <use xlink:href="#DejaVuSans-30" x="127.246094"/>
      </g>
     </g>
    </g>
    <g id="ytick_6">
     <g id="line2d_13">
      <g>
       <use xlink:href="#m6d550b2966" x="46.965625" y="20.652125" style="stroke: #000000; stroke-width: 0.8"/>
      </g>
     </g>
     <g id="text_14">
      <!-- 250 -->
      <g transform="translate(20.878125 24.451344) scale(0.1 -0.1)">
       <use xlink:href="#DejaVuSans-32"/>
       <use xlink:href="#DejaVuSans-35" x="63.623047"/>
       <use xlink:href="#DejaVuSans-30" x="127.246094"/>
      </g>
     </g>
    </g>
    <g id="text_15">
     <!-- bp -->
     <g transform="translate(14.798438 146.604437) rotate(-90) scale(0.1 -0.1)">
      <defs>
       <path id="DejaVuSans-62" d="M 3116 1747 
Q 3116 2381 2855 2742 
Q 2594 3103 2138 3103 
Q 1681 3103 1420 2742 
Q 1159 2381 1159 1747 
Q 1159 1113 1420 752 
Q 1681 391 2138 391 
Q 2594 391 2855 752 
Q 3116 1113 3116 1747 
z
M 1159 2969 
Q 1341 3281 1617 3432 
Q 1894 3584 2278 3584 
Q 2916 3584 3314 3078 
Q 3713 2572 3713 1747 
Q 3713 922 3314 415 
Q 2916 -91 2278 -91 
Q 1894 -91 1617 61 
Q 1341 213 1159 525 
L 1159 0 
L 581 0 
L 581 4863 
L 1159 4863 
L 1159 2969 
z
" transform="scale(0.015625)"/>
       <path id="DejaVuSans-70" d="M 1159 525 
L 1159 -1331 
L 581 -1331 
L 581 3500 
L 1159 3500 
L 1159 2969 
Q 1341 3281 1617 3432 
Q 1894 3584 2278 3584 
Q 2916 3584 3314 3078 
Q 3713 2572 3713 1747 
Q 3713 922 3314 415 
Q 2916 -91 2278 -91 
Q 1894 -91 1617 61 
Q 1341 213 1159 525 
z
M 3116 1747 
Q 3116 2381 2855 2742 
Q 2594 3103 2138 3103 
Q 1681 3103 1420 2742 
Q 1159 2381 1159 1747 
Q 1159 1113 1420 752 
Q 1681 391 2138 391 
Q 2594 391 2855 752 
Q 3116 1113 3116 1747 
z
" transform="scale(0.015625)"/>
      </defs>
      <use xlink:href="#DejaVuSans-62"/>
      <use xlink:href="#DejaVuSans-70" x="63.476562"/>
     </g>
    </g>
   </g>
   <g id="line2d_14">
    <path d="M 63.198352 229.452283 
L 66.477691 227.554022 
L 69.75703 225.655761 
L 73.036369 223.757499 
L 76.315708 221.859238 
L 79.595046 219.960977 
L 82.874385 218.062716 
L 86.153724 216.164455 
L 89.433063 214.266194 
L 92.712402 212.367933 
L 95.991741 210.469672 
L 99.27108 208.571411 
L 102.550418 206.67315 
L 105.829757 204.774888 
L 109.109096 202.876627 
L 112.388435 200.978366 
L 115.667774 199.080105 
L 118.947113 197.181844 
L 122.226451 195.283583 
L 125.50579 193.385322 
L 128.785129 191.487061 
L 132.064468 189.5888 
L 135.343807 187.690538 
L 138.623146 185.792277 
L 141.902485 183.894016 
L 145.181823 181.995755 
L 148.461162 180.097494 
L 151.740501 178.199233 
L 155.01984 176.300972 
L 158.299179 174.402711 
L 161.578518 172.50445 
L 164.857856 170.606188 
L 168.137195 168.707927 
L 171.416534 166.809666 
L 174.695873 164.911405 
L 177.975212 163.013144 
L 181.254551 161.114883 
L 184.533889 159.216622 
L 187.813228 157.318361 
L 191.092567 155.4201 
L 194.371906 153.521838 
L 197.651245 151.623577 
L 200.930584 149.725316 
L 204.209923 147.827055 
L 207.489261 145.928794 
L 210.7686 144.030533 
L 214.047939 142.132272 
L 217.327278 140.234011 
L 220.606617 138.33575 
L 223.885956 136.437488 
L 227.165294 134.539227 
L 230.444633 132.640966 
L 233.723972 130.742705 
L 237.003311 128.844444 
L 240.28265 126.946183 
L 243.561989 125.047922 
L 246.841327 123.149661 
L 250.120666 121.2514 
L 253.400005 119.353139 
L 256.679344 117.454877 
L 259.958683 115.556616 
L 263.238022 113.658355 
L 266.517361 111.760094 
L 269.796699 109.861833 
L 273.076038 107.963572 
L 276.355377 106.065311 
L 279.634716 104.16705 
L 282.914055 102.268789 
L 286.193394 100.370527 
L 289.472732 98.472266 
L 292.752071 96.574005 
L 296.03141 94.675744 
L 299.310749 92.777483 
L 302.590088 90.879222 
L 305.869427 88.980961 
L 309.148765 87.0827 
L 312.428104 85.184439 
L 315.707443 83.286177 
L 318.986782 81.387916 
L 322.266121 79.489655 
L 325.54546 77.591394 
L 328.824799 75.693133 
L 332.104137 73.794872 
L 335.383476 71.896611 
L 338.662815 69.99835 
L 341.942154 68.100089 
L 345.221493 66.201827 
L 348.500832 64.303566 
L 351.78017 62.405305 
L 355.059509 60.507044 
L 358.338848 58.608783 
L 361.618187 56.710522 
L 364.897526 54.812261 
L 368.176865 52.914 
L 371.456204 51.015739 
L 374.735542 49.117477 
L 378.014881 47.219216 
L 381.29422 45.320955 
L 384.573559 43.422694 
L 387.852898 41.524433 
" clip-path="url(#p9c686610a4)" style="fill: none; stroke: #1f77b4; stroke-width: 2.25; stroke-linecap: square"/>
   </g>
   <g id="patch_3">
    <path d="M 46.965625 273.312 
L 46.965625 7.2 
" style="fill: none; stroke: #000000; stroke-width: 0.8; stroke-linejoin: miter; stroke-linecap: square"/>
   </g>
   <g id="patch_4">
    <path d="M 404.085625 273.312 
L 404.085625 7.2 
" style="fill: none; stroke: #000000; stroke-width: 0.8; stroke-linejoin: miter; stroke-linecap: square"/>
   </g>
   <g id="patch_5">
    <path d="M 46.965625 273.312 
L 404.085625 273.312 
" style="fill: none; stroke: #000000; stroke-width: 0.8; stroke-linejoin: miter; stroke-linecap: square"/>
   </g>
   <g id="patch_6">
    <path d="M 46.965625 7.2 
L 404.085625 7.2 
" style="fill: none; stroke: #000000; stroke-width: 0.8; stroke-linejoin: miter; stroke-linecap: square"/>
   </g>
  </g>
 </g>
 <defs>
  <clipPath id="p9c686610a4">
   <rect x="46.965625" y="7.2" width="357.12" height="266.112"/>
  </clipPath>
 </defs>
</svg>