<?xml version="1.0" encoding="utf-8" standalone="no"?>
<!DOCTYPE svg PUBLIC "-//W3C//DTD SVG 1.1//EN"
  "http://www.w3.org/Graphics/SVG/1.1/DTD/svg11.dtd">
<svg xmlns:xlink="http://www.w3.org/1999/xlink" width="391.245pt" height="297.190125pt" viewBox="0 0 391.245 297.190125" xmlns="http://www.w3.org/2000/svg" version="1.1">
 <metadata>
  <rdf:RDF xmlns:dc="http://purl.org/dc/elements/1.1/" xmlns:cc="http://creativecommons.org/ns#" xmlns:rdf="http://www.w3.org/1999/02/22-rdf-syntax-ns#">
   <cc:Work>
    <dc:type rdf:resource="http://purl.org/dc/dcmitype/StillImage"/>
    <dc:date>2025-08-11T07:13:10.163282</dc:date>
    <dc:format>image/svg+xml</dc:format>
    <dc:creator>
     <cc:Agent>
      <dc:title>Matplotlib v3.10.3, https://matplotlib.org/</dc:title>
     </cc:Agent>
    </dc:creator>
   </cc:Work>
  </rdf:RDF>
 </metadata>
 <defs>
  <style type="text/css">*{stroke-linejoin: round; stroke-linecap: butt}</style>
 </defs>
 <g id="figure_1">
  <g id="patch_1">
   <path d="M 0 297.190125 
L 391.245 297.190125 
L 391.245 0 
L 0 0 
z
" style="fill: #ffffff"/>
  </g>
  <g id="axes_1">
   <g id="patch_2">
    <path d="M 26.925 273.312 
L 384.045 273.312 
L 384.045 7.2 
L 26.925 7.2 
z
" style="fill: #ffffff"/>
   </g>
   <g id="PathCollection_1">
    <defs>
     <path id="mdac624c0f8" d="M 0 3 
C 0.795609 3 1.55874 2.683901 2.12132 2.12132 
C 2.683901 1.55874 3 0.795609 3 0 
C 3 -0.795609 2.683901 -1.55874 2.12132 -2.12132 
C 1.55874 -2.683901 0.795609 -3 0 -3 
C -0.795609 -3 -1.55874 -2.683901 -2.12132 -2.12132 
C -2.683901 -1.55874 -3 -0.795609 -3 0 
C -3 0.795609 -2.683901 1.55874 -2.12132 2.12132 
C -1.55874 2.683901 -0.795609 3 0 3 
z
" style="stroke: #1f77b4; stroke-opacity: 0.8"/>
    </defs>
    <g clip-path="url(#p33c52e6649)">
     <use xlink:href="#mdac624c0f8" x="43.157727" y="246.056024" style="fill: #1f77b4; fill-opacity: 0.8; stroke: #1f77b4; stroke-opacity: 0.8"/>
     <use xlink:href="#mdac624c0f8" x="79.230455" y="232.170365" style="fill: #1f77b4; fill-opacity: 0.8; stroke: #1f77b4; stroke-opacity: 0.8"/>
     <use xlink:href="#mdac624c0f8" x="115.303182" y="191.60942" style="fill: #1f77b4; fill-opacity: 0.8; stroke: #1f77b4; stroke-opacity: 0.8"/>
     <use xlink:href="#mdac624c0f8" x="151.375909" y="189.281269" style="fill: #1f77b4; fill-opacity: 0.8; stroke: #1f77b4; stroke-opacity: 0.8"/>
     <use xlink:href="#mdac624c0f8" x="187.448636" y="134.668894" style="fill: #1f77b4; fill-opacity: 0.8; stroke: #1f77b4; stroke-opacity: 0.8"/>
     <use xlink:href="#mdac624c0f8" x="223.521364" y="124.963582" style="fill: #1f77b4; fill-opacity: 0.8; stroke: #1f77b4; stroke-opacity: 0.8"/>
     <use xlink:href="#mdac624c0f8" x="259.594091" y="117.322298" style="fill: #1f77b4; fill-opacity: 0.8; stroke: #1f77b4; stroke-opacity: 0.8"/>
     <use xlink:href="#mdac624c0f8" x="295.666818" y="86.082431" style="fill: #1f77b4; fill-opacity: 0.8; stroke: #1f77b4; stroke-opacity: 0.8"/>
     <use xlink:href="#mdac624c0f8" x="331.739545" y="53.655842" style="fill: #1f77b4; fill-opacity: 0.8; stroke: #1f77b4; stroke-opacity: 0.8"/>
     <use xlink:href="#mdac624c0f8" x="367.812273" y="19.296" style="fill: #1f77b4; fill-opacity: 0.8; stroke: #1f77b4; stroke-opacity: 0.8"/>
    </g>
   </g>
   <g id="FillBetweenPolyCollection_1">
    <path d="M 43.157727 238.234085 
L 43.157727 261.216 
L 46.437066 258.836469 
L 49.716405 256.456938 
L 52.995744 254.147873 
L 56.275083 251.855357 
L 59.554421 249.562841 
L 62.83376 247.220368 
L 66.113099 244.87715 
L 69.392438 242.533932 
L 72.671777 240.188993 
L 75.951116 237.867618 
L 79.230455 235.576771 
L 82.509793 233.198017 
L 85.789132 230.807594 
L 89.068471 228.447378 
L 92.34781 226.071722 
L 95.627149 223.696066 
L 98.906488 221.320409 
L 102.185826 218.944753 
L 105.465165 216.568158 
L 108.744504 214.191455 
L 112.023843 211.813812 
L 115.303182 209.425378 
L 118.582521 206.960833 
L 121.86186 204.672876 
L 125.141198 202.307944 
L 128.420537 199.931241 
L 131.699876 197.554539 
L 134.979215 195.229275 
L 138.258554 192.843329 
L 141.537893 190.515609 
L 144.817231 188.212061 
L 148.09657 185.913261 
L 151.375909 183.585133 
L 154.655248 181.232844 
L 157.934587 178.881955 
L 161.213926 176.566555 
L 164.493264 174.318889 
L 167.772603 172.106128 
L 171.051942 169.755095 
L 174.331281 167.503747 
L 177.61062 165.160803 
L 180.889959 162.872725 
L 184.169298 160.741184 
L 187.448636 158.573096 
L 190.727975 156.424217 
L 194.007314 154.318472 
L 197.286653 152.170459 
L 200.565992 149.955564 
L 203.845331 147.771598 
L 207.124669 145.663585 
L 210.404008 143.484302 
L 213.683347 141.323282 
L 216.962686 139.190574 
L 220.242025 136.823055 
L 223.521364 134.483995 
L 226.800702 132.321049 
L 230.080041 129.993716 
L 233.35938 127.79335 
L 236.638719 125.579201 
L 239.918058 123.451002 
L 243.197397 121.279923 
L 246.476736 119.062718 
L 249.756074 117.103413 
L 253.035413 115.012349 
L 256.314752 112.995619 
L 259.594091 110.830221 
L 262.87343 108.704887 
L 266.152769 106.693072 
L 269.432107 104.696242 
L 272.711446 102.61293 
L 275.990785 100.54202 
L 279.270124 98.49298 
L 282.549463 96.432496 
L 285.828802 94.345033 
L 289.10814 92.257449 
L 292.387479 90.16943 
L 295.666818 88.081411 
L 298.946157 85.993392 
L 302.225496 83.947274 
L 305.504835 81.949762 
L 308.784174 79.952251 
L 312.063512 77.95474 
L 315.342851 75.952257 
L 318.62219 73.817477 
L 321.901529 71.679577 
L 325.180868 69.636013 
L 328.460207 67.540913 
L 331.739545 65.499167 
L 335.018884 63.467668 
L 338.298223 61.436169 
L 341.577562 59.40467 
L 344.856901 57.313199 
L 348.13624 55.211374 
L 351.415579 53.109549 
L 354.694917 51.276183 
L 357.974256 49.175141 
L 361.253595 47.227252 
L 364.532934 45.199361 
L 367.812273 43.210576 
L 367.812273 20.206977 
L 367.812273 20.206977 
L 364.532934 22.495397 
L 361.253595 24.759995 
L 357.974256 27.128691 
L 354.694917 29.531082 
L 351.415579 31.936979 
L 348.13624 34.323387 
L 344.856901 36.6277 
L 341.577562 38.921223 
L 338.298223 41.219379 
L 335.018884 43.500376 
L 331.739545 45.76684 
L 328.460207 48.05088 
L 325.180868 50.376704 
L 321.901529 52.710307 
L 318.62219 55.008315 
L 315.342851 57.308468 
L 312.063512 59.69907 
L 308.784174 62.125949 
L 305.504835 64.518603 
L 302.225496 66.757191 
L 298.946157 68.97807 
L 295.666818 71.195246 
L 292.387479 73.397999 
L 289.10814 75.696156 
L 285.828802 77.977442 
L 282.549463 80.292975 
L 279.270124 82.592718 
L 275.990785 84.887001 
L 272.711446 87.182372 
L 269.432107 89.438537 
L 266.152769 91.694773 
L 262.87343 93.95101 
L 259.594091 96.207247 
L 256.314752 98.463484 
L 253.035413 100.720694 
L 249.756074 102.978144 
L 246.476736 105.236373 
L 243.197397 107.488432 
L 239.918058 109.744669 
L 236.638719 112.026812 
L 233.35938 114.254593 
L 230.080041 116.530089 
L 226.800702 118.766652 
L 223.521364 120.809949 
L 220.242025 123.002591 
L 216.962686 125.298635 
L 213.683347 127.417606 
L 210.404008 129.61102 
L 207.124669 131.910079 
L 203.845331 134.20908 
L 200.565992 136.516381 
L 197.286653 138.771186 
L 194.007314 140.958769 
L 190.727975 143.085771 
L 187.448636 145.336575 
L 184.169298 147.47133 
L 180.889959 149.626888 
L 177.61062 151.872948 
L 174.331281 154.079363 
L 171.051942 156.285098 
L 167.772603 158.472306 
L 164.493264 160.662981 
L 161.213926 162.802922 
L 157.934587 164.894402 
L 154.655248 167.070095 
L 151.375909 169.113384 
L 148.09657 171.162553 
L 144.817231 173.257713 
L 141.537893 175.436029 
L 138.258554 177.523567 
L 134.979215 179.612966 
L 131.699876 181.830098 
L 128.420537 184.061678 
L 125.141198 186.020687 
L 121.86186 187.979697 
L 118.582521 190.062894 
L 115.303182 192.153148 
L 112.023843 194.243403 
L 108.744504 196.334137 
L 105.465165 198.404754 
L 102.185826 200.515347 
L 98.906488 202.595748 
L 95.627149 204.696393 
L 92.34781 206.808456 
L 89.068471 208.948437 
L 85.789132 211.089963 
L 82.509793 213.231664 
L 79.230455 215.344669 
L 75.951116 217.496392 
L 72.671777 219.625255 
L 69.392438 221.754117 
L 66.113099 223.882979 
L 62.83376 226.011842 
L 59.554421 228.140704 
L 56.275083 230.141564 
L 52.995744 232.145506 
L 49.716405 234.232555 
L 46.437066 236.232194 
L 43.157727 238.234085 
z
" clip-path="url(#p33c52e6649)" style="fill: #1f77b4; fill-opacity: 0.15"/>
   </g>
   <g id="matplotlib.axis_1">
    <g id="xtick_1">
     <g id="line2d_1">
      <defs>
       <path id="m7fbe3329d4" d="M 0 0 
L 0 3.5 
" style="stroke: #000000; stroke-width: 0.8"/>
      </defs>
      <g>
       <use xlink:href="#m7fbe3329d4" x="43.157727" y="273.312" style="stroke: #000000; stroke-width: 0.8"/>
      </g>
     </g>
     <g id="text_1">
      <!-- 0 -->
      <g transform="translate(39.976477 287.910437) scale(0.1 -0.1)">
       <defs>
        <path id="DejaVuSans-30" d="M 2034 4250 
Q 1547 4250 1301 3770 
Q 1056 3291 1056 2328 
Q 1056 1369 1301 889 
Q 1547 409 2034 409 
Q 2525 409 2770 889 
Q 3016 1369 3016 2328 
Q 3016 3291 2770 3770 
Q 2525 4250 2034 4250 
z
M 2034 4750 
Q 2819 4750 3233 4129 
Q 3647 3509 3647 2328 
Q 3647 1150 3233 529 
Q 2819 -91 2034 -91 
Q 1250 -91 836 529 
Q 422 1150 422 2328 
Q 422 3509 836 4129 
Q 1250 4750 2034 4750 
z
" transform="scale(0.015625)"/>
       </defs>
       <use xlink:href="#DejaVuSans-30"/>
      </g>
     </g>
    </g>
    <g id="xtick_2">
     <g id="line2d_2">
      <g>
       <use xlink:href="#m7fbe3329d4" x="115.303182" y="273.312" style="stroke: #000000; stroke-width: 0.8"/>
      </g>
     </g>
     <g id="text_2">
      <!-- 2 -->
      <g transform="translate(112.121932 287.910437) scale(0.1 -0.1)">
       <defs>
        <path id="DejaVuSans-32" d="M 1228 531 
L 3431 531 
L 3431 0 
L 469 0 
L 469 531 
Q 828 903 1448 1529 
Q 2069 2156 2228 2338 
Q 2531 2678 2651 2914 
Q 2772 3150 2772 3378 
Q 2772 3750 2511 3984 
Q 2250 4219 1831 4219 
Q 1534 4219 1204 4116 
Q 875 4013 500 3803 
L 500 4441 
Q 881 4594 1212 4672 
Q 1544 4750 1819 4750 
Q 2544 4750 2975 4387 
Q 3406 4025 3406 3419 
Q 3406 3131 3298 2873 
Q 3191 2616 2906 2266 
Q 2828 2175 2409 1742 
Q 1991 1309 1228 531 
z
" transform="scale(0.015625)"/>
       </defs>
       <use xlink:href="#DejaVuSans-32"/>
      </g>
     </g>
    </g>
    <g id="xtick_3">
     <g id="line2d_3">
      <g>
       <use xlink:href="#m7fbe3329d4" x="187.448636" y="273.312" style="stroke: #000000; stroke-width: 0.8"/>
      </g>
     </g>
     <g id="text_3">
      <!-- 4 -->
      <g transform="translate(184.267386 287.910437) scale(0.1 -0.1)">
       <defs>
        <path id="DejaVuSans-34" d="M 2419 4116 
L 825 1625 
L 2419 1625 
L 2419 4116 
z
M 2253 4666 
L 3047 4666 
L 3047 1625 
L 3713 1625 
L 3713 1100 
L 3047 1100 
L 3047 0 
L 2419 0 
L 2419 1100 
L 313 1100 
L 313 1709 
L 2253 4666 
z
" transform="scale(0.015625)"/>
       </defs>
       <use xlink:href="#DejaVuSans-34"/>
      </g>
     </g>
    </g>
    <g id="xtick_4">
     <g id="line2d_4">
      <g>
       <use xlink:href="#m7fbe3329d4" x="259.594091" y="273.312" style="stroke: #000000; stroke-width: 0.8"/>
      </g>
     </g>
     <g id="text_4">
      <!-- 6 -->
      <g transform="translate(256.412841 287.910437) scale(0.1 -0.1)">
       <defs>
        <path id="DejaVuSans-36" d="M 2113 2584 
Q 1688 2584 1439 2293 
Q 1191 2003 1191 1497 
Q 1191 994 1439 701 
Q 1688 409 2113 409 
Q 2538 409 2786 701 
Q 3034 994 3034 1497 
Q 3034 2003 2786 2293 
Q 2538 2584 2113 2584 
z
M 3366 4563 
L 3366 3988 
Q 3128 4100 2886 4159 
Q 2644 4219 2406 4219 
Q 1781 4219 1451 3797 
Q 1122 3375 1075 2522 
Q 1259 2794 1537 2939 
Q 1816 3084 2150 3084 
Q 2853 3084 3261 2657 
Q 3669 2231 3669 1497 
Q 3669 778 3244 343 
Q 2819 -91 2113 -91 
Q 1303 -91 875 529 
Q 447 1150 447 2328 
Q 447 3434 972 4092 
Q 1497 4750 2381 4750 
Q 2619 4750 2861 4703 
Q 3103 4656 3366 4563 
z
" transform="scale(0.015625)"/>
       </defs>
       <use xlink:href="#DejaVuSans-36"/>
      </g>
     </g>
    </g>
    <g id="xtick_5">
     <g id="line2d_5">
      <g>
       <use xlink:href="#m7fbe3329d4" x="331.739545" y="273.312" style="stroke: #000000; stroke-width: 0.8"/>
      </g>
     </g>
     <g id="text_5">
      <!-- 8 -->
      <g transform="translate(328.558295 287.910437) scale(0.1 -0.1)">
       <defs>
        <path id="DejaVuSans-38" d="M 2034 2216 
Q 1584 2216 1326 1975 
Q 1069 1734 1069 1313 
Q 1069 891 1326 650 
Q 1584 409 2034 409 
Q 2484 409 2743 651 
Q 3003 894 3003 1313 
Q 3003 1734 2745 1975 
Q 2488 2216 2034 2216 
z
M 1403 2484 
Q 997 2584 770 2862 
Q 544 3141 544 3541 
Q 544 4100 942 4425 
Q 1341 4750 2034 4750 
Q 2731 4750 3128 4425 
Q 3525 4100 3525 3541 
Q 3525 3141 3298 2862 
Q 3072 2584 2669 2484 
Q 3125 2378 3379 2068 
Q 3634 1759 3634 1313 
Q 3634 634 3220 271 
Q 2806 -91 2034 -91 
Q 1263 -91 848 271 
Q 434 634 434 1313 
Q 434 1759 690 2068 
Q 947 2378 1403 2484 
z
M 1172 3481 
Q 1172 3119 1398 2916 
Q 1625 2713 2034 2713 
Q 2441 2713 2670 2916 
Q 2900 3119 2900 3481 
Q 2900 3844 2670 4047 
Q 2441 4250 2034 4250 
Q 1625 4250 1398 4047 
Q 1172 3844 1172 3481 
z
" transform="scale(0.015625)"/>
       </defs>
       <use xlink:href="#DejaVuSans-38"/>
      </g>
     </g>
    </g>
   </g>
   <g id="matplotlib.axis_2">
    <g id="ytick_1">
     <g id="line2d_6">
      <defs>
       <path id="m6d0d1922da" d="M 0 0 
L -3.5 0 
" style="stroke: #000000; stroke-width: 0.8"/>
      </defs>
      <g>
       <use xlink:href="#m6d0d1922da" x="26.925" y="241.446036" style="stroke: #000000; stroke-width: 0.8"/>
      </g>
     </g>
     <g id="text_6">
      <!-- 0 -->
      <g transform="translate(13.5625 245.245254) scale(0.1 -0.1)">
       <use xlink:href="#DejaVuSans-30"/>
      </g>
     </g>
    </g>
    <g id="ytick_2">
     <g id="line2d_7">
      <g>
       <use xlink:href="#m6d0d1922da" x="26.925" y="188.131655" style="stroke: #000000; stroke-width: 0.8"/>
      </g>
     </g>
     <g id="text_7">
      <!-- 5 -->
      <g transform="translate(13.5625 191.930874) scale(0.1 -0.1)">
       <defs>
        <path id="DejaVuSans-35" d="M 691 4666 
L 3169 4666 
L 3169 4134 
L 1269 4134 
L 1269 2991 
Q 1406 3038 1543 3061 
Q 1681 3084 1819 3084 
Q 2600 3084 3056 2656 
Q 3513 2228 3513 1497 
Q 3513 744 3044 326 
Q 2575 -91 1722 -91 
Q 1428 -91 1123 -41 
Q 819 9 494 109 
L 494 744 
Q 775 591 1075 516 
Q 1375 441 1709 441 
Q 2250 441 2565 725 
Q 2881 1009 2881 1497 
Q 2881 1984 2565 2268 
Q 2250 2553 1709 2553 
Q 1456 2553 1204 2497 
Q 953 2441 691 2322 
L 691 4666 
z
" transform="scale(0.015625)"/>
       </defs>
       <use xlink:href="#DejaVuSans-35"/>
      </g>
     </g>
    </g>
    <g id="ytick_3">
     <g id="line2d_8">
      <g>
       <use xlink:href="#m6d0d1922da" x="26.925" y="134.817274" style="stroke: #000000; stroke-width: 0.8"/>
      </g>
     </g>
     <g id="text_8">
      <!-- 10 -->
      <g transform="translate(7.2 138.616493) scale(0.1 -0.1)">
       <defs>
        <path id="DejaVuSans-31" d="M 794 531 
L 1825 531 
L 1825 4091 
L 703 3866 
L 703 4441 
L 1819 4666 
L 2450 4666 
L 2450 531 
L 3481 531 
L 3481 0 
L 794 0 
L 794 531 
z
" transform="scale(0.015625)"/>
       </defs>
       <use xlink:href="#DejaVuSans-31"/>
       <use xlink:href="#DejaVuSans-30" transform="translate(63.623047 0)"/>
      </g>
     </g>
    </g>
    <g id="ytick_4">
     <g id="line2d_9">
      <g>
       <use xlink:href="#m6d0d1922da" x="26.925" y="81.502893" style="stroke: #000000; stroke-width: 0.8"/>
      </g>
     </g>
     <g id="text_9">
      <!-- 15 -->
      <g transform="translate(7.2 85.302112) scale(0.1 -0.1)">
       <use xlink:href="#DejaVuSans-31"/>
       <use xlink:href="#DejaVuSans-35" transform="translate(63.623047 0)"/>
      </g>
     </g>
    </g>
    <g id="ytick_5">
     <g id="line2d_10">
      <g>
       <use xlink:href="#m6d0d1922da" x="26.925" y="28.188513" style="stroke: #000000; stroke-width: 0.8"/>
      </g>
     </g>
     <g id="text_10">
      <!-- 20 -->
      <g transform="translate(7.2 31.987731) scale(0.1 -0.1)">
       <use xlink:href="#DejaVuSans-32"/>
       <use xlink:href="#DejaVuSans-30" transform="translate(63.623047 0)"/>
      </g>
     </g>
    </g>
   </g>
   <g id="line2d_11">
    <path d="M 43.157727 249.792223 
L 46.437066 247.564311 
L 49.716405 245.3364 
L 52.995744 243.108489 
L 56.275083 240.880577 
L 59.554421 238.652666 
L 62.83376 236.424755 
L 66.113099 234.196843 
L 69.392438 231.968932 
L 72.671777 229.741021 
L 75.951116 227.513109 
L 79.230455 225.285198 
L 82.509793 223.057287 
L 85.789132 220.829376 
L 89.068471 218.601464 
L 92.34781 216.373553 
L 95.627149 214.145642 
L 98.906488 211.91773 
L 102.185826 209.689819 
L 105.465165 207.461908 
L 108.744504 205.233996 
L 112.023843 203.006085 
L 115.303182 200.778174 
L 118.582521 198.550262 
L 121.86186 196.322351 
L 125.141198 194.09444 
L 128.420537 191.866528 
L 131.699876 189.638617 
L 134.979215 187.410706 
L 138.258554 185.182794 
L 141.537893 182.954883 
L 144.817231 180.726972 
L 148.09657 178.49906 
L 151.375909 176.271149 
L 154.655248 174.043238 
L 157.934587 171.815327 
L 161.213926 169.587415 
L 164.493264 167.359504 
L 167.772603 165.131593 
L 171.051942 162.903681 
L 174.331281 160.67577 
L 177.61062 158.447859 
L 180.889959 156.219947 
L 184.169298 153.992036 
L 187.448636 151.764125 
L 190.727975 149.536213 
L 194.007314 147.308302 
L 197.286653 145.080391 
L 200.565992 142.852479 
L 203.845331 140.624568 
L 207.124669 138.396657 
L 210.404008 136.168745 
L 213.683347 133.940834 
L 216.962686 131.712923 
L 220.242025 129.485012 
L 223.521364 127.2571 
L 226.800702 125.029189 
L 230.080041 122.801278 
L 233.35938 120.573366 
L 236.638719 118.345455 
L 239.918058 116.117544 
L 243.197397 113.889632 
L 246.476736 111.661721 
L 249.756074 109.43381 
L 253.035413 107.205898 
L 256.314752 104.977987 
L 259.594091 102.750076 
L 262.87343 100.522164 
L 266.152769 98.294253 
L 269.432107 96.066342 
L 272.711446 93.83843 
L 275.990785 91.610519 
L 279.270124 89.382608 
L 282.549463 87.154696 
L 285.828802 84.926785 
L 289.10814 82.698874 
L 292.387479 80.470963 
L 295.666818 78.243051 
L 298.946157 76.01514 
L 302.225496 73.787229 
L 305.504835 71.559317 
L 308.784174 69.331406 
L 312.063512 67.103495 
L 315.342851 64.875583 
L 318.62219 62.647672 
L 321.901529 60.419761 
L 325.180868 58.191849 
L 328.460207 55.963938 
L 331.739545 53.736027 
L 335.018884 51.508115 
L 338.298223 49.280204 
L 341.577562 47.052293 
L 344.856901 44.824381 
L 348.13624 42.59647 
L 351.415579 40.368559 
L 354.694917 38.140647 
L 357.974256 35.912736 
L 361.253595 33.684825 
L 364.532934 31.456914 
L 367.812273 29.229002 
" clip-path="url(#p33c52e6649)" style="fill: none; stroke: #1f77b4; stroke-width: 2.25; stroke-linecap: square"/>
   </g>
   <g id="patch_3">
    <path d="M 26.925 273.312 
L 26.925 7.2 
" style="fill: none; stroke: #000000; stroke-width: 0.8; stroke-linejoin: miter; stroke-linecap: square"/>
   </g>
   <g id="patch_4">
    <path d="M 384.045 273.312 
L 384.045 7.2 
" style="fill: none; stroke: #000000; stroke-width: 0.8; stroke-linejoin: miter; stroke-linecap: square"/>
   </g>
   <g id="patch_5">
    <path d="M 26.925 273.312 
L 384.045 273.312 
" style="fill: none; stroke: #000000; stroke-width: 0.8; stroke-linejoin: miter; stroke-linecap: square"/>
   </g>
   <g id="patch_6">
    <path d="M 26.925 7.2 
L 384.045 7.2 
" style="fill: none; stroke: #000000; stroke-width: 0.8; stroke-linejoin: miter; stroke-linecap: square"/>
   </g>
  </g>
 </g>
 <defs>
  <clipPath id="p33c52e6649">
   <rect x="26.925" y="7.2" width="357.12" height="266.112"/>
  </clipPath>
 </defs>
</svg>