<?xml version="1.0" encoding="utf-8" standalone="no"?>
<!DOCTYPE svg PUBLIC "-//W3C//DTD SVG 1.1//EN"
  "http://www.w3.org/Graphics/SVG/1.1/DTD/svg11.dtd">
<svg xmlns:xlink="http://www.w3.org/1999/xlink" width="407.15125pt" height="310.86825pt" viewBox="0 0 407.15125 310.86825" xmlns="http://www.w3.org/2000/svg" version="1.1">
 <metadata>
  <rdf:RDF xmlns:dc="http://purl.org/dc/elements/1.1/" xmlns:cc="http://creativecommons.org/ns#" xmlns:rdf="http://www.w3.org/1999/02/22-rdf-syntax-ns#">
   <cc:Work>
    <dc:type rdf:resource="http://purl.org/dc/dcmitype/StillImage"/>
    <dc:date>2023-04-26T06:06:24.080849</dc:date>
    <dc:format>image/svg+xml</dc:format>
    <dc:creator>
     <cc:Agent>
      <dc:title>Matplotlib v3.7.1, https://matplotlib.org/</dc:title>
     </cc:Agent>
    </dc:creator>
   </cc:Work>
  </rdf:RDF>
 </metadata>
 <defs>
  <style type="text/css">*{stroke-linejoin: round; stroke-linecap: butt}</style>
 </defs>
 <g id="figure_1">
  <g id="patch_1">
   <path d="M 0 310.86825 
L 407.15125 310.86825 
L 407.15125 0 
L 0 0 
z
" style="fill: #ffffff"/>
  </g>
  <g id="axes_1">
   <g id="patch_2">
    <path d="M 33.2875 273.312 
L 390.4075 273.312 
L 390.4075 7.2 
L 33.2875 7.2 
z
" style="fill: #ffffff"/>
   </g>
   <g id="matplotlib.axis_1">
    <g id="xtick_1">
     <g id="line2d_1">
      <defs>
       <path id="mdc154aab6f" d="M 0 0 
L 0 3.5 
" style="stroke: #000000; stroke-width: 0.8"/>
      </defs>
      <g>
       <use xlink:href="#mdc154aab6f" x="33.2875" y="273.312" style="stroke: #000000; stroke-width: 0.8"/>
      </g>
     </g>
     <g id="text_1">
      <!-- 0 -->
      <g transform="translate(30.10625 287.910437) scale(0.1 -0.1)">
       <defs>
        <path id="DejaVuSans-30" d="M 2034 4250 
Q 1547 4250 1301 3770 
Q 1056 3291 1056 2328 
Q 1056 1369 1301 889 
Q 1547 409 2034 409 
Q 2525 409 2770 889 
Q 3016 1369 3016 2328 
Q 3016 3291 2770 3770 
Q 2525 4250 2034 4250 
z
M 2034 4750 
Q 2819 4750 3233 4129 
Q 3647 3509 3647 2328 
Q 3647 1150 3233 529 
Q 2819 -91 2034 -91 
Q 1250 -91 836 529 
Q 422 1150 422 2328 
Q 422 3509 836 4129 
Q 1250 4750 2034 4750 
z
" transform="scale(0.015625)"/>
       </defs>
       <use xlink:href="#DejaVuSans-30"/>
      </g>
     </g>
    </g>
    <g id="xtick_2">
     <g id="line2d_2">
      <g>
       <use xlink:href="#mdc154aab6f" x="104.7115" y="273.312" style="stroke: #000000; stroke-width: 0.8"/>
      </g>
     </g>
     <g id="text_2">
      <!-- 50 -->
      <g transform="translate(98.349 287.910437) scale(0.1 -0.1)">
       <defs>
        <path id="DejaVuSans-35" d="M 691 4666 
L 3169 4666 
L 3169 4134 
L 1269 4134 
L 1269 2991 
Q 1406 3038 1543 3061 
Q 1681 3084 1819 3084 
Q 2600 3084 3056 2656 
Q 3513 2228 3513 1497 
Q 3513 744 3044 326 
Q 2575 -91 1722 -91 
Q 1428 -91 1123 -41 
Q 819 9 494 109 
L 494 744 
Q 775 591 1075 516 
Q 1375 441 1709 441 
Q 2250 441 2565 725 
Q 2881 1009 2881 1497 
Q 2881 1984 2565 2268 
Q 2250 2553 1709 2553 
Q 1456 2553 1204 2497 
Q 953 2441 691 2322 
L 691 4666 
z
" transform="scale(0.015625)"/>
       </defs>
       <use xlink:href="#DejaVuSans-35"/>
       <use xlink:href="#DejaVuSans-30" x="63.623047"/>
      </g>
     </g>
    </g>
    <g id="xtick_3">
     <g id="line2d_3">
      <g>
       <use xlink:href="#mdc154aab6f" x="176.1355" y="273.312" style="stroke: #000000; stroke-width: 0.8"/>
      </g>
     </g>
     <g id="text_3">
      <!-- 100 -->
      <g transform="translate(166.59175 287.910437) scale(0.1 -0.1)">
       <defs>
        <path id="DejaVuSans-31" d="M 794 531 
L 1825 531 
L 1825 4091 
L 703 3866 
L 703 4441 
L 1819 4666 
L 2450 4666 
L 2450 531 
L 3481 531 
L 3481 0 
L 794 0 
L 794 531 
z
" transform="scale(0.015625)"/>
       </defs>
       <use xlink:href="#DejaVuSans-31"/>
       <use xlink:href="#DejaVuSans-30" x="63.623047"/>
       <use xlink:href="#DejaVuSans-30" x="127.246094"/>
      </g>
     </g>
    </g>
    <g id="xtick_4">
     <g id="line2d_4">
      <g>
       <use xlink:href="#mdc154aab6f" x="247.5595" y="273.312" style="stroke: #000000; stroke-width: 0.8"/>
      </g>
     </g>
     <g id="text_4">
      <!-- 150 -->
      <g transform="translate(238.01575 287.910437) scale(0.1 -0.1)">
       <use xlink:href="#DejaVuSans-31"/>
       <use xlink:href="#DejaVuSans-35" x="63.623047"/>
       <use xlink:href="#DejaVuSans-30" x="127.246094"/>
      </g>
     </g>
    </g>
    <g id="xtick_5">
     <g id="line2d_5">
      <g>
       <use xlink:href="#mdc154aab6f" x="318.9835" y="273.312" style="stroke: #000000; stroke-width: 0.8"/>
      </g>
     </g>
     <g id="text_5">
      <!-- 200 -->
      <g transform="translate(309.43975 287.910437) scale(0.1 -0.1)">
       <defs>
        <path id="DejaVuSans-32" d="M 1228 531 
L 3431 531 
L 3431 0 
L 469 0 
L 469 531 
Q 828 903 1448 1529 
Q 2069 2156 2228 2338 
Q 2531 2678 2651 2914 
Q 2772 3150 2772 3378 
Q 2772 3750 2511 3984 
Q 2250 4219 1831 4219 
Q 1534 4219 1204 4116 
Q 875 4013 500 3803 
L 500 4441 
Q 881 4594 1212 4672 
Q 1544 4750 1819 4750 
Q 2544 4750 2975 4387 
Q 3406 4025 3406 3419 
Q 3406 3131 3298 2873 
Q 3191 2616 2906 2266 
Q 2828 2175 2409 1742 
Q 1991 1309 1228 531 
z
" transform="scale(0.015625)"/>
       </defs>
       <use xlink:href="#DejaVuSans-32"/>
       <use xlink:href="#DejaVuSans-30" x="63.623047"/>
       <use xlink:href="#DejaVuSans-30" x="127.246094"/>
      </g>
     </g>
    </g>
    <g id="xtick_6">
     <g id="line2d_6">
      <g>
       <use xlink:href="#mdc154aab6f" x="390.4075" y="273.312" style="stroke: #000000; stroke-width: 0.8"/>
      </g>
     </g>
     <g id="text_6">
      <!-- 250 -->
      <g transform="translate(380.86375 287.910437) scale(0.1 -0.1)">
       <use xlink:href="#DejaVuSans-32"/>
       <use xlink:href="#DejaVuSans-35" x="63.623047"/>
       <use xlink:href="#DejaVuSans-30" x="127.246094"/>
      </g>
     </g>
    </g>
    <g id="text_7">
     <!-- Frequency, Hz -->
     <g transform="translate(176.455313 301.588562) scale(0.1 -0.1)">
      <defs>
       <path id="DejaVuSans-46" d="M 628 4666 
L 3309 4666 
L 3309 4134 
L 1259 4134 
L 1259 2759 
L 3109 2759 
L 3109 2228 
L 1259 2228 
L 1259 0 
L 628 0 
L 628 4666 
z
" transform="scale(0.015625)"/>
       <path id="DejaVuSans-72" d="M 2631 2963 
Q 2534 3019 2420 3045 
Q 2306 3072 2169 3072 
Q 1681 3072 1420 2755 
Q 1159 2438 1159 1844 
L 1159 0 
L 581 0 
L 581 3500 
L 1159 3500 
L 1159 2956 
Q 1341 3275 1631 3429 
Q 1922 3584 2338 3584 
Q 2397 3584 2469 3576 
Q 2541 3569 2628 3553 
L 2631 2963 
z
" transform="scale(0.015625)"/>
       <path id="DejaVuSans-65" d="M 3597 1894 
L 3597 1613 
L 953 1613 
Q 991 1019 1311 708 
Q 1631 397 2203 397 
Q 2534 397 2845 478 
Q 3156 559 3463 722 
L 3463 178 
Q 3153 47 2828 -22 
Q 2503 -91 2169 -91 
Q 1331 -91 842 396 
Q 353 884 353 1716 
Q 353 2575 817 3079 
Q 1281 3584 2069 3584 
Q 2775 3584 3186 3129 
Q 3597 2675 3597 1894 
z
M 3022 2063 
Q 3016 2534 2758 2815 
Q 2500 3097 2075 3097 
Q 1594 3097 1305 2825 
Q 1016 2553 972 2059 
L 3022 2063 
z
" transform="scale(0.015625)"/>
       <path id="DejaVuSans-71" d="M 947 1747 
Q 947 1113 1208 752 
Q 1469 391 1925 391 
Q 2381 391 2643 752 
Q 2906 1113 2906 1747 
Q 2906 2381 2643 2742 
Q 2381 3103 1925 3103 
Q 1469 3103 1208 2742 
Q 947 2381 947 1747 
z
M 2906 525 
Q 2725 213 2448 61 
Q 2172 -91 1784 -91 
Q 1150 -91 751 415 
Q 353 922 353 1747 
Q 353 2572 751 3078 
Q 1150 3584 1784 3584 
Q 2172 3584 2448 3432 
Q 2725 3281 2906 2969 
L 2906 3500 
L 3481 3500 
L 3481 -1331 
L 2906 -1331 
L 2906 525 
z
" transform="scale(0.015625)"/>
       <path id="DejaVuSans-75" d="M 544 1381 
L 544 3500 
L 1119 3500 
L 1119 1403 
Q 1119 906 1312 657 
Q 1506 409 1894 409 
Q 2359 409 2629 706 
Q 2900 1003 2900 1516 
L 2900 3500 
L 3475 3500 
L 3475 0 
L 2900 0 
L 2900 538 
Q 2691 219 2414 64 
Q 2138 -91 1772 -91 
Q 1169 -91 856 284 
Q 544 659 544 1381 
z
M 1991 3584 
L 1991 3584 
z
" transform="scale(0.015625)"/>
       <path id="DejaVuSans-6e" d="M 3513 2113 
L 3513 0 
L 2938 0 
L 2938 2094 
Q 2938 2591 2744 2837 
Q 2550 3084 2163 3084 
Q 1697 3084 1428 2787 
Q 1159 2491 1159 1978 
L 1159 0 
L 581 0 
L 581 3500 
L 1159 3500 
L 1159 2956 
Q 1366 3272 1645 3428 
Q 1925 3584 2291 3584 
Q 2894 3584 3203 3211 
Q 3513 2838 3513 2113 
z
" transform="scale(0.015625)"/>
       <path id="DejaVuSans-63" d="M 3122 3366 
L 3122 2828 
Q 2878 2963 2633 3030 
Q 2388 3097 2138 3097 
Q 1578 3097 1268 2742 
Q 959 2388 959 1747 
Q 959 1106 1268 751 
Q 1578 397 2138 397 
Q 2388 397 2633 464 
Q 2878 531 3122 666 
L 3122 134 
Q 2881 22 2623 -34 
Q 2366 -91 2075 -91 
Q 1284 -91 818 406 
Q 353 903 353 1747 
Q 353 2603 823 3093 
Q 1294 3584 2113 3584 
Q 2378 3584 2631 3529 
Q 2884 3475 3122 3366 
z
" transform="scale(0.015625)"/>
       <path id="DejaVuSans-79" d="M 2059 -325 
Q 1816 -950 1584 -1140 
Q 1353 -1331 966 -1331 
L 506 -1331 
L 506 -850 
L 844 -850 
Q 1081 -850 1212 -737 
Q 1344 -625 1503 -206 
L 1606 56 
L 191 3500 
L 800 3500 
L 1894 763 
L 2988 3500 
L 3597 3500 
L 2059 -325 
z
" transform="scale(0.015625)"/>
       <path id="DejaVuSans-2c" d="M 750 794 
L 1409 794 
L 1409 256 
L 897 -744 
L 494 -744 
L 750 256 
L 750 794 
z
" transform="scale(0.015625)"/>
       <path id="DejaVuSans-20" transform="scale(0.015625)"/>
       <path id="DejaVuSans-48" d="M 628 4666 
L 1259 4666 
L 1259 2753 
L 3553 2753 
L 3553 4666 
L 4184 4666 
L 4184 0 
L 3553 0 
L 3553 2222 
L 1259 2222 
L 1259 0 
L 628 0 
L 628 4666 
z
" transform="scale(0.015625)"/>
       <path id="DejaVuSans-7a" d="M 353 3500 
L 3084 3500 
L 3084 2975 
L 922 459 
L 3084 459 
L 3084 0 
L 275 0 
L 275 525 
L 2438 3041 
L 353 3041 
L 353 3500 
z
" transform="scale(0.015625)"/>
      </defs>
      <use xlink:href="#DejaVuSans-46"/>
      <use xlink:href="#DejaVuSans-72" x="50.269531"/>
      <use xlink:href="#DejaVuSans-65" x="89.132812"/>
      <use xlink:href="#DejaVuSans-71" x="150.65625"/>
      <use xlink:href="#DejaVuSans-75" x="214.132812"/>
      <use xlink:href="#DejaVuSans-65" x="277.511719"/>
      <use xlink:href="#DejaVuSans-6e" x="339.035156"/>
      <use xlink:href="#DejaVuSans-63" x="402.414062"/>
      <use xlink:href="#DejaVuSans-79" x="457.394531"/>
      <use xlink:href="#DejaVuSans-2c" x="516.574219"/>
      <use xlink:href="#DejaVuSans-20" x="548.361328"/>
      <use xlink:href="#DejaVuSans-48" x="580.148438"/>
      <use xlink:href="#DejaVuSans-7a" x="655.34375"/>
     </g>
    </g>
   </g>
   <g id="matplotlib.axis_2">
    <g id="ytick_1">
     <g id="line2d_7">
      <defs>
       <path id="m7106484103" d="M 0 0 
L -3.5 0 
" style="stroke: #000000; stroke-width: 0.8"/>
      </defs>
      <g>
       <use xlink:href="#m7106484103" x="33.2875" y="252.542968" style="stroke: #000000; stroke-width: 0.8"/>
      </g>
     </g>
     <g id="text_8">
      <!-- 0 -->
      <g transform="translate(19.925 256.342186) scale(0.1 -0.1)">
       <use xlink:href="#DejaVuSans-30"/>
      </g>
     </g>
    </g>
    <g id="ytick_2">
     <g id="line2d_8">
      <g>
       <use xlink:href="#m7106484103" x="33.2875" y="206.238416" style="stroke: #000000; stroke-width: 0.8"/>
      </g>
     </g>
     <g id="text_9">
      <!-- 50 -->
      <g transform="translate(13.5625 210.037635) scale(0.1 -0.1)">
       <use xlink:href="#DejaVuSans-35"/>
       <use xlink:href="#DejaVuSans-30" x="63.623047"/>
      </g>
     </g>
    </g>
    <g id="ytick_3">
     <g id="line2d_9">
      <g>
       <use xlink:href="#m7106484103" x="33.2875" y="159.933864" style="stroke: #000000; stroke-width: 0.8"/>
      </g>
     </g>
     <g id="text_10">
      <!-- 100 -->
      <g transform="translate(7.2 163.733083) scale(0.1 -0.1)">
       <use xlink:href="#DejaVuSans-31"/>
       <use xlink:href="#DejaVuSans-30" x="63.623047"/>
       <use xlink:href="#DejaVuSans-30" x="127.246094"/>
      </g>
     </g>
    </g>
    <g id="ytick_4">
     <g id="line2d_10">
      <g>
       <use xlink:href="#m7106484103" x="33.2875" y="113.629312" style="stroke: #000000; stroke-width: 0.8"/>
      </g>
     </g>
     <g id="text_11">
      <!-- 150 -->
      <g transform="translate(7.2 117.428531) scale(0.1 -0.1)">
       <use xlink:href="#DejaVuSans-31"/>
       <use xlink:href="#DejaVuSans-35" x="63.623047"/>
       <use xlink:href="#DejaVuSans-30" x="127.246094"/>
      </g>
     </g>
    </g>
    <g id="ytick_5">
     <g id="line2d_11">
      <g>
       <use xlink:href="#m7106484103" x="33.2875" y="67.324761" style="stroke: #000000; stroke-width: 0.8"/>
      </g>
     </g>
     <g id="text_12">
      <!-- 200 -->
      <g transform="translate(7.2 71.123979) scale(0.1 -0.1)">
       <use xlink:href="#DejaVuSans-32"/>
       <use xlink:href="#DejaVuSans-30" x="63.623047"/>
       <use xlink:href="#DejaVuSans-30" x="127.246094"/>
      </g>
     </g>
    </g>
    <g id="ytick_6">
     <g id="line2d_12">
      <g>
       <use xlink:href="#m7106484103" x="33.2875" y="21.020209" style="stroke: #000000; stroke-width: 0.8"/>
      </g>
     </g>
     <g id="text_13">
      <!-- 250 -->
      <g transform="translate(7.2 24.819428) scale(0.1 -0.1)">
       <use xlink:href="#DejaVuSans-32"/>
       <use xlink:href="#DejaVuSans-35" x="63.623047"/>
       <use xlink:href="#DejaVuSans-30" x="127.246094"/>
      </g>
     </g>
    </g>
   </g>
   <g id="line2d_13">
    <path d="M 33.2875 19.296 
L 34.71598 253.02172 
L 36.14446 256.131492 
L 37.57294 250.56623 
L 39.00142 256.304334 
L 40.4299 250.499863 
L 41.85838 254.611677 
L 43.28686 253.037926 
L 44.71534 255.655238 
L 46.14382 252.25499 
L 47.5723 251.587787 
L 49.00078 247.097031 
L 50.42926 253.251272 
L 51.85774 248.658925 
L 53.28622 251.656138 
L 54.7147 256.769261 
L 56.14318 253.798403 
L 57.57166 254.553593 
L 59.00014 256.072393 
L 60.42862 252.237927 
L 61.8571 248.964356 
L 63.28558 248.866628 
L 64.71406 254.161844 
L 66.14254 253.680882 
L 67.57102 252.862539 
L 68.9995 254.653108 
L 70.42798 248.52204 
L 71.85646 253.184396 
L 73.28494 252.810484 
L 74.71342 251.335579 
L 76.1419 254.869314 
L 77.57038 253.286688 
L 78.99886 247.447245 
L 80.42734 253.354306 
L 81.85582 249.463044 
L 83.2843 246.493401 
L 84.71278 254.605225 
L 86.14126 249.944761 
L 87.56974 253.834024 
L 88.99822 250.694237 
L 90.4267 251.568066 
L 91.85518 253.798926 
L 93.28366 250.867164 
L 94.71214 253.167303 
L 96.14062 253.014161 
L 97.5691 251.301316 
L 98.99758 261.216 
L 100.42606 249.560011 
L 101.85454 251.183449 
L 103.28302 257.094732 
L 104.7115 258.888388 
L 106.13998 246.766298 
L 107.56846 257.944865 
L 108.99694 250.620629 
L 110.42542 249.001444 
L 111.8539 256.31768 
L 113.28238 260.631669 
L 114.71086 251.748891 
L 116.13934 249.910695 
L 117.56782 252.73027 
L 118.9963 249.787001 
L 120.42478 239.823367 
L 121.85326 166.74081 
L 123.28174 260.445691 
L 124.71022 257.785852 
L 126.1387 251.122239 
L 127.56718 252.051826 
L 128.99566 256.694188 
L 130.42414 251.599132 
L 131.85262 252.850885 
L 133.2811 258.273031 
L 134.70958 257.558322 
L 136.13806 253.694085 
L 137.56654 252.830171 
L 138.99502 255.543352 
L 140.4235 249.842476 
L 141.85198 256.487621 
L 143.28046 246.714924 
L 144.70894 252.567835 
L 146.13742 251.003092 
L 147.5659 254.134599 
L 148.99438 253.173592 
L 150.42286 258.257442 
L 151.85134 250.733494 
L 153.27982 252.606978 
L 154.7083 252.883213 
L 156.13678 246.529249 
L 157.56526 254.335525 
L 158.99374 255.355591 
L 160.42222 248.383746 
L 161.8507 257.509222 
L 163.27918 249.741193 
L 164.70766 259.585302 
L 166.13614 253.666906 
L 167.56462 251.835553 
L 168.9931 253.333466 
L 170.42158 254.55687 
L 171.85006 250.640071 
L 173.27854 250.473971 
L 174.70702 256.190475 
L 176.1355 252.085938 
L 177.56398 252.732965 
L 178.99246 255.870708 
L 180.42094 252.69126 
L 181.84942 252.676124 
L 183.2779 252.925273 
L 184.70638 249.910473 
L 186.13486 251.224856 
L 187.56334 251.158375 
L 188.99182 252.845946 
L 190.4203 249.772304 
L 191.84878 254.117102 
L 193.27726 251.793039 
L 194.70574 248.57313 
L 197.5627 253.938294 
L 198.99118 246.253279 
L 200.41966 255.817692 
L 201.84814 254.023937 
L 204.7051 252.917514 
L 206.13358 251.321367 
L 207.56206 250.76848 
L 208.99054 255.797406 
L 210.41902 253.650415 
L 211.8475 251.935194 
L 213.27598 249.975571 
L 214.70446 254.720188 
L 216.13294 247.689169 
L 217.56142 254.039009 
L 218.9899 252.488589 
L 220.41838 254.144336 
L 221.84686 258.010817 
L 223.27534 249.891782 
L 224.70382 253.546559 
L 226.1323 251.765585 
L 227.56078 248.90805 
L 228.98926 251.83984 
L 230.41774 247.179708 
L 231.84622 252.661683 
L 233.2747 252.459065 
L 234.70318 258.602138 
L 236.13166 248.882154 
L 237.56014 252.357178 
L 238.98862 251.347053 
L 240.4171 253.95043 
L 241.84558 255.572011 
L 243.27406 255.667641 
L 244.70254 253.795442 
L 246.13102 249.797045 
L 247.5595 249.374884 
L 248.98798 253.659985 
L 250.41646 250.949348 
L 251.84494 252.602793 
L 253.27342 256.024351 
L 254.7019 255.951504 
L 256.13038 255.265749 
L 257.55886 246.886354 
L 258.98734 251.227483 
L 260.41582 252.521234 
L 261.8443 252.343452 
L 263.27278 252.3756 
L 264.70126 250.300981 
L 266.12974 254.615455 
L 267.55822 252.170726 
L 268.9867 253.889353 
L 270.41518 252.25111 
L 271.84366 254.240277 
L 273.27214 255.121496 
L 274.70062 246.329011 
L 276.1291 252.200935 
L 277.55758 248.254925 
L 278.98606 254.583876 
L 280.41454 257.331715 
L 281.84302 250.174808 
L 283.2715 254.65879 
L 284.69998 255.239095 
L 286.12846 254.067385 
L 287.55694 255.185062 
L 288.98542 249.419767 
L 290.4139 257.54123 
L 291.84238 251.117698 
L 293.27086 255.78899 
L 294.69934 254.220456 
L 296.12782 254.201449 
L 297.5563 255.300115 
L 298.98478 252.823387 
L 300.41326 252.714596 
L 301.84174 251.116313 
L 303.27022 255.434817 
L 304.6987 255.99649 
L 306.12718 253.138267 
L 307.55566 253.169252 
L 308.98414 254.603064 
L 310.41262 253.60913 
L 311.8411 254.327507 
L 313.26958 253.525731 
L 314.69806 250.198537 
L 316.12654 246.236494 
L 317.55502 252.458322 
L 318.9835 247.923196 
L 320.41198 255.315505 
L 321.84046 252.181988 
L 323.26894 255.785547 
L 324.69742 252.753444 
L 326.1259 251.05146 
L 327.55438 255.667097 
L 328.98286 249.975986 
L 330.41134 257.907937 
L 331.83982 248.585316 
L 333.2683 249.107464 
L 334.69678 252.992159 
L 336.12526 254.113447 
L 337.55374 248.282229 
L 338.98222 249.642403 
L 340.4107 253.648127 
L 341.83918 248.850544 
L 343.26766 249.910185 
L 344.69614 254.92806 
L 346.12462 254.496402 
L 347.5531 255.583107 
L 348.98158 254.345896 
L 350.41006 250.143983 
L 351.83854 252.365241 
L 353.26702 252.797779 
L 354.6955 253.647842 
L 356.12398 244.538469 
L 357.55246 250.664904 
L 358.98094 246.607856 
L 360.40942 247.605365 
L 363.26638 251.518314 
L 364.69486 257.639629 
L 366.12334 256.822693 
L 367.55182 250.373424 
L 368.9803 254.019886 
L 370.40878 256.50739 
L 371.83726 255.31637 
L 373.26574 257.233416 
L 374.69422 260.272273 
L 376.1227 252.957866 
L 377.55118 255.984598 
L 378.97966 255.00475 
L 380.40814 251.461384 
L 381.83662 249.640367 
L 383.2651 249.191664 
L 384.69358 250.378715 
L 386.12206 255.447386 
L 387.55054 255.955988 
L 388.97902 249.47965 
L 390.4075 249.213197 
L 391.83598 248.72072 
L 393.26446 256.288901 
L 394.69294 248.267183 
L 396.12142 251.239404 
L 397.5499 250.8814 
L 398.97838 249.081652 
L 400.40686 251.976758 
L 401.83534 256.083953 
L 403.26382 255.577886 
L 404.6923 250.96443 
L 406.12078 245.579359 
L 407.54926 249.543544 
L 408.15125 251.97676 
L 408.15125 251.97676 
" clip-path="url(#p4a6653e7c1)" style="fill: none; stroke: #1f77b4; stroke-width: 1.5; stroke-linecap: square"/>
   </g>
   <g id="patch_3">
    <path d="M 33.2875 273.312 
L 33.2875 7.2 
" style="fill: none; stroke: #000000; stroke-width: 0.8; stroke-linejoin: miter; stroke-linecap: square"/>
   </g>
   <g id="patch_4">
    <path d="M 390.4075 273.312 
L 390.4075 7.2 
" style="fill: none; stroke: #000000; stroke-width: 0.8; stroke-linejoin: miter; stroke-linecap: square"/>
   </g>
   <g id="patch_5">
    <path d="M 33.2875 273.312 
L 390.4075 273.312 
" style="fill: none; stroke: #000000; stroke-width: 0.8; stroke-linejoin: miter; stroke-linecap: square"/>
   </g>
   <g id="patch_6">
    <path d="M 33.2875 7.2 
L 390.4075 7.2 
" style="fill: none; stroke: #000000; stroke-width: 0.8; stroke-linejoin: miter; stroke-linecap: square"/>
   </g>
  </g>
 </g>
 <defs>
  <clipPath id="p4a6653e7c1">
   <rect x="33.2875" y="7.2" width="357.12" height="266.112"/>
  </clipPath>
 </defs>
</svg>