<?xml version="1.0" encoding="utf-8" standalone="no"?>
<!DOCTYPE svg PUBLIC "-//W3C//DTD SVG 1.1//EN"
  "http://www.w3.org/Graphics/SVG/1.1/DTD/svg11.dtd">
<svg xmlns:xlink="http://www.w3.org/1999/xlink" width="397.6075pt" height="297.190125pt" viewBox="0 0 397.6075 297.190125" xmlns="http://www.w3.org/2000/svg" version="1.1">
 <metadata>
  <rdf:RDF xmlns:dc="http://purl.org/dc/elements/1.1/" xmlns:cc="http://creativecommons.org/ns#" xmlns:rdf="http://www.w3.org/1999/02/22-rdf-syntax-ns#">
   <cc:Work>
    <dc:type rdf:resource="http://purl.org/dc/dcmitype/StillImage"/>
    <dc:date>2025-10-13T05:55:57.297058</dc:date>
    <dc:format>image/svg+xml</dc:format>
    <dc:creator>
     <cc:Agent>
      <dc:title>Matplotlib v3.10.3, https://matplotlib.org/</dc:title>
     </cc:Agent>
    </dc:creator>
   </cc:Work>
  </rdf:RDF>
 </metadata>
 <defs>
  <style type="text/css">*{stroke-linejoin: round; stroke-linecap: butt}</style>
 </defs>
 <g id="figure_1">
  <g id="patch_1">
   <path d="M 0 297.190125 
L 397.6075 297.190125 
L 397.6075 0 
L 0 0 
z
" style="fill: #ffffff"/>
  </g>
  <g id="axes_1">
   <g id="patch_2">
    <path d="M 33.2875 273.312 
L 390.4075 273.312 
L 390.4075 7.2 
L 33.2875 7.2 
z
" style="fill: #ffffff"/>
   </g>
   <g id="PathCollection_1">
    <defs>
     <path id="m387ed9acb9" d="M 0 3 
C 0.795609 3 1.55874 2.683901 2.12132 2.12132 
C 2.683901 1.55874 3 0.795609 3 0 
C 3 -0.795609 2.683901 -1.55874 2.12132 -2.12132 
C 1.55874 -2.683901 0.795609 -3 0 -3 
C -0.795609 -3 -1.55874 -2.683901 -2.12132 -2.12132 
C -2.683901 -1.55874 -3 -0.795609 -3 0 
C -3 0.795609 -2.683901 1.55874 -2.12132 2.12132 
C -1.55874 2.683901 -0.795609 3 0 3 
z
" style="stroke: #1f77b4"/>
    </defs>
    <g clip-path="url(#p4b84ccb664)">
     <use xlink:href="#m387ed9acb9" x="49.520227" y="261.216" style="fill: #1f77b4; stroke: #1f77b4"/>
     <use xlink:href="#m387ed9acb9" x="52.799566" y="260.082164" style="fill: #1f77b4; stroke: #1f77b4"/>
     <use xlink:href="#m387ed9acb9" x="56.078905" y="260.884234" style="fill: #1f77b4; stroke: #1f77b4"/>
     <use xlink:href="#m387ed9acb9" x="59.358244" y="259.504907" style="fill: #1f77b4; stroke: #1f77b4"/>
     <use xlink:href="#m387ed9acb9" x="62.637583" y="259.802557" style="fill: #1f77b4; stroke: #1f77b4"/>
     <use xlink:href="#m387ed9acb9" x="65.916921" y="257.934027" style="fill: #1f77b4; stroke: #1f77b4"/>
     <use xlink:href="#m387ed9acb9" x="69.19626" y="258.410293" style="fill: #1f77b4; stroke: #1f77b4"/>
     <use xlink:href="#m387ed9acb9" x="72.475599" y="257.807201" style="fill: #1f77b4; stroke: #1f77b4"/>
     <use xlink:href="#m387ed9acb9" x="75.754938" y="257.795416" style="fill: #1f77b4; stroke: #1f77b4"/>
     <use xlink:href="#m387ed9acb9" x="79.034277" y="256.615855" style="fill: #1f77b4; stroke: #1f77b4"/>
     <use xlink:href="#m387ed9acb9" x="82.313616" y="254.936812" style="fill: #1f77b4; stroke: #1f77b4"/>
     <use xlink:href="#m387ed9acb9" x="85.592955" y="255.524465" style="fill: #1f77b4; stroke: #1f77b4"/>
     <use xlink:href="#m387ed9acb9" x="88.872293" y="255.047923" style="fill: #1f77b4; stroke: #1f77b4"/>
     <use xlink:href="#m387ed9acb9" x="92.151632" y="253.135869" style="fill: #1f77b4; stroke: #1f77b4"/>
     <use xlink:href="#m387ed9acb9" x="95.430971" y="253.594906" style="fill: #1f77b4; stroke: #1f77b4"/>
     <use xlink:href="#m387ed9acb9" x="98.71031" y="252.196316" style="fill: #1f77b4; stroke: #1f77b4"/>
     <use xlink:href="#m387ed9acb9" x="101.989649" y="251.536812" style="fill: #1f77b4; stroke: #1f77b4"/>
     <use xlink:href="#m387ed9acb9" x="105.268988" y="249.342048" style="fill: #1f77b4; stroke: #1f77b4"/>
     <use xlink:href="#m387ed9acb9" x="108.548326" y="248.246984" style="fill: #1f77b4; stroke: #1f77b4"/>
     <use xlink:href="#m387ed9acb9" x="111.827665" y="248.645744" style="fill: #1f77b4; stroke: #1f77b4"/>
     <use xlink:href="#m387ed9acb9" x="115.107004" y="246.477402" style="fill: #1f77b4; stroke: #1f77b4"/>
     <use xlink:href="#m387ed9acb9" x="118.386343" y="244.841192" style="fill: #1f77b4; stroke: #1f77b4"/>
     <use xlink:href="#m387ed9acb9" x="121.665682" y="244.646957" style="fill: #1f77b4; stroke: #1f77b4"/>
     <use xlink:href="#m387ed9acb9" x="124.945021" y="243.892048" style="fill: #1f77b4; stroke: #1f77b4"/>
     <use xlink:href="#m387ed9acb9" x="128.22436" y="241.894652" style="fill: #1f77b4; stroke: #1f77b4"/>
     <use xlink:href="#m387ed9acb9" x="131.503698" y="240.010059" style="fill: #1f77b4; stroke: #1f77b4"/>
     <use xlink:href="#m387ed9acb9" x="134.783037" y="239.636717" style="fill: #1f77b4; stroke: #1f77b4"/>
     <use xlink:href="#m387ed9acb9" x="138.062376" y="238.367013" style="fill: #1f77b4; stroke: #1f77b4"/>
     <use xlink:href="#m387ed9acb9" x="141.341715" y="235.999846" style="fill: #1f77b4; stroke: #1f77b4"/>
     <use xlink:href="#m387ed9acb9" x="144.621054" y="234.048063" style="fill: #1f77b4; stroke: #1f77b4"/>
     <use xlink:href="#m387ed9acb9" x="147.900393" y="232.707153" style="fill: #1f77b4; stroke: #1f77b4"/>
     <use xlink:href="#m387ed9acb9" x="151.179731" y="231.998408" style="fill: #1f77b4; stroke: #1f77b4"/>
     <use xlink:href="#m387ed9acb9" x="154.45907" y="229.866463" style="fill: #1f77b4; stroke: #1f77b4"/>
     <use xlink:href="#m387ed9acb9" x="157.738409" y="227.891391" style="fill: #1f77b4; stroke: #1f77b4"/>
     <use xlink:href="#m387ed9acb9" x="161.017748" y="225.904125" style="fill: #1f77b4; stroke: #1f77b4"/>
     <use xlink:href="#m387ed9acb9" x="164.297087" y="224.404449" style="fill: #1f77b4; stroke: #1f77b4"/>
     <use xlink:href="#m387ed9acb9" x="167.576426" y="223.58151" style="fill: #1f77b4; stroke: #1f77b4"/>
     <use xlink:href="#m387ed9acb9" x="170.855764" y="221.058367" style="fill: #1f77b4; stroke: #1f77b4"/>
     <use xlink:href="#m387ed9acb9" x="174.135103" y="219.388888" style="fill: #1f77b4; stroke: #1f77b4"/>
     <use xlink:href="#m387ed9acb9" x="177.414442" y="217.446402" style="fill: #1f77b4; stroke: #1f77b4"/>
     <use xlink:href="#m387ed9acb9" x="180.693781" y="215.071641" style="fill: #1f77b4; stroke: #1f77b4"/>
     <use xlink:href="#m387ed9acb9" x="183.97312" y="212.71047" style="fill: #1f77b4; stroke: #1f77b4"/>
     <use xlink:href="#m387ed9acb9" x="187.252459" y="210.767242" style="fill: #1f77b4; stroke: #1f77b4"/>
     <use xlink:href="#m387ed9acb9" x="190.531798" y="209.530771" style="fill: #1f77b4; stroke: #1f77b4"/>
     <use xlink:href="#m387ed9acb9" x="193.811136" y="205.778111" style="fill: #1f77b4; stroke: #1f77b4"/>
     <use xlink:href="#m387ed9acb9" x="197.090475" y="204.789229" style="fill: #1f77b4; stroke: #1f77b4"/>
     <use xlink:href="#m387ed9acb9" x="200.369814" y="201.883104" style="fill: #1f77b4; stroke: #1f77b4"/>
     <use xlink:href="#m387ed9acb9" x="203.649153" y="199.811522" style="fill: #1f77b4; stroke: #1f77b4"/>
     <use xlink:href="#m387ed9acb9" x="206.928492" y="196.800302" style="fill: #1f77b4; stroke: #1f77b4"/>
     <use xlink:href="#m387ed9acb9" x="210.207831" y="195.16919" style="fill: #1f77b4; stroke: #1f77b4"/>
     <use xlink:href="#m387ed9acb9" x="213.487169" y="192.050732" style="fill: #1f77b4; stroke: #1f77b4"/>
     <use xlink:href="#m387ed9acb9" x="216.766508" y="190.195369" style="fill: #1f77b4; stroke: #1f77b4"/>
     <use xlink:href="#m387ed9acb9" x="220.045847" y="188.115537" style="fill: #1f77b4; stroke: #1f77b4"/>
     <use xlink:href="#m387ed9acb9" x="223.325186" y="185.345441" style="fill: #1f77b4; stroke: #1f77b4"/>
     <use xlink:href="#m387ed9acb9" x="226.604525" y="182.661961" style="fill: #1f77b4; stroke: #1f77b4"/>
     <use xlink:href="#m387ed9acb9" x="229.883864" y="179.953827" style="fill: #1f77b4; stroke: #1f77b4"/>
     <use xlink:href="#m387ed9acb9" x="233.163202" y="177.591661" style="fill: #1f77b4; stroke: #1f77b4"/>
     <use xlink:href="#m387ed9acb9" x="236.442541" y="174.475922" style="fill: #1f77b4; stroke: #1f77b4"/>
     <use xlink:href="#m387ed9acb9" x="239.72188" y="171.937928" style="fill: #1f77b4; stroke: #1f77b4"/>
     <use xlink:href="#m387ed9acb9" x="243.001219" y="168.96503" style="fill: #1f77b4; stroke: #1f77b4"/>
     <use xlink:href="#m387ed9acb9" x="246.280558" y="166.267354" style="fill: #1f77b4; stroke: #1f77b4"/>
     <use xlink:href="#m387ed9acb9" x="249.559897" y="163.420389" style="fill: #1f77b4; stroke: #1f77b4"/>
     <use xlink:href="#m387ed9acb9" x="252.839236" y="159.665915" style="fill: #1f77b4; stroke: #1f77b4"/>
     <use xlink:href="#m387ed9acb9" x="256.118574" y="158.009713" style="fill: #1f77b4; stroke: #1f77b4"/>
     <use xlink:href="#m387ed9acb9" x="259.397913" y="154.268577" style="fill: #1f77b4; stroke: #1f77b4"/>
     <use xlink:href="#m387ed9acb9" x="262.677252" y="150.233888" style="fill: #1f77b4; stroke: #1f77b4"/>
     <use xlink:href="#m387ed9acb9" x="265.956591" y="147.662759" style="fill: #1f77b4; stroke: #1f77b4"/>
     <use xlink:href="#m387ed9acb9" x="269.23593" y="145.173337" style="fill: #1f77b4; stroke: #1f77b4"/>
     <use xlink:href="#m387ed9acb9" x="272.515269" y="141.974359" style="fill: #1f77b4; stroke: #1f77b4"/>
     <use xlink:href="#m387ed9acb9" x="275.794607" y="137.55449" style="fill: #1f77b4; stroke: #1f77b4"/>
     <use xlink:href="#m387ed9acb9" x="279.073946" y="134.894141" style="fill: #1f77b4; stroke: #1f77b4"/>
     <use xlink:href="#m387ed9acb9" x="282.353285" y="132.27466" style="fill: #1f77b4; stroke: #1f77b4"/>
     <use xlink:href="#m387ed9acb9" x="285.632624" y="127.181636" style="fill: #1f77b4; stroke: #1f77b4"/>
     <use xlink:href="#m387ed9acb9" x="288.911963" y="124.255898" style="fill: #1f77b4; stroke: #1f77b4"/>
     <use xlink:href="#m387ed9acb9" x="292.191302" y="121.403162" style="fill: #1f77b4; stroke: #1f77b4"/>
     <use xlink:href="#m387ed9acb9" x="295.47064" y="117.687212" style="fill: #1f77b4; stroke: #1f77b4"/>
     <use xlink:href="#m387ed9acb9" x="298.749979" y="113.864951" style="fill: #1f77b4; stroke: #1f77b4"/>
     <use xlink:href="#m387ed9acb9" x="302.029318" y="109.73202" style="fill: #1f77b4; stroke: #1f77b4"/>
     <use xlink:href="#m387ed9acb9" x="305.308657" y="106.055069" style="fill: #1f77b4; stroke: #1f77b4"/>
     <use xlink:href="#m387ed9acb9" x="308.587996" y="103.168872" style="fill: #1f77b4; stroke: #1f77b4"/>
     <use xlink:href="#m387ed9acb9" x="311.867335" y="98.527562" style="fill: #1f77b4; stroke: #1f77b4"/>
     <use xlink:href="#m387ed9acb9" x="315.146674" y="94.467467" style="fill: #1f77b4; stroke: #1f77b4"/>
     <use xlink:href="#m387ed9acb9" x="318.426012" y="90.793153" style="fill: #1f77b4; stroke: #1f77b4"/>
     <use xlink:href="#m387ed9acb9" x="321.705351" y="87.927589" style="fill: #1f77b4; stroke: #1f77b4"/>
     <use xlink:href="#m387ed9acb9" x="324.98469" y="82.986192" style="fill: #1f77b4; stroke: #1f77b4"/>
     <use xlink:href="#m387ed9acb9" x="328.264029" y="79.766079" style="fill: #1f77b4; stroke: #1f77b4"/>
     <use xlink:href="#m387ed9acb9" x="331.543368" y="76.507335" style="fill: #1f77b4; stroke: #1f77b4"/>
     <use xlink:href="#m387ed9acb9" x="334.822707" y="72.393244" style="fill: #1f77b4; stroke: #1f77b4"/>
     <use xlink:href="#m387ed9acb9" x="338.102045" y="68.132088" style="fill: #1f77b4; stroke: #1f77b4"/>
     <use xlink:href="#m387ed9acb9" x="341.381384" y="63.166898" style="fill: #1f77b4; stroke: #1f77b4"/>
     <use xlink:href="#m387ed9acb9" x="344.660723" y="58.802569" style="fill: #1f77b4; stroke: #1f77b4"/>
     <use xlink:href="#m387ed9acb9" x="347.940062" y="54.396686" style="fill: #1f77b4; stroke: #1f77b4"/>
     <use xlink:href="#m387ed9acb9" x="351.219401" y="50.381524" style="fill: #1f77b4; stroke: #1f77b4"/>
     <use xlink:href="#m387ed9acb9" x="354.49874" y="46.373637" style="fill: #1f77b4; stroke: #1f77b4"/>
     <use xlink:href="#m387ed9acb9" x="357.778079" y="41.878753" style="fill: #1f77b4; stroke: #1f77b4"/>
     <use xlink:href="#m387ed9acb9" x="361.057417" y="38.022345" style="fill: #1f77b4; stroke: #1f77b4"/>
     <use xlink:href="#m387ed9acb9" x="364.336756" y="33.481293" style="fill: #1f77b4; stroke: #1f77b4"/>
     <use xlink:href="#m387ed9acb9" x="367.616095" y="28.287139" style="fill: #1f77b4; stroke: #1f77b4"/>
     <use xlink:href="#m387ed9acb9" x="370.895434" y="24.086389" style="fill: #1f77b4; stroke: #1f77b4"/>
     <use xlink:href="#m387ed9acb9" x="374.174773" y="19.296" style="fill: #1f77b4; stroke: #1f77b4"/>
    </g>
   </g>
   <g id="matplotlib.axis_1">
    <g id="xtick_1">
     <g id="line2d_1">
      <defs>
       <path id="m5d61ecd666" d="M 0 0 
L 0 3.5 
" style="stroke: #000000; stroke-width: 0.8"/>
      </defs>
      <g>
       <use xlink:href="#m5d61ecd666" x="49.520227" y="273.312" style="stroke: #000000; stroke-width: 0.8"/>
      </g>
     </g>
     <g id="text_1">
      <!-- 0 -->
      <g transform="translate(46.338977 287.910437) scale(0.1 -0.1)">
       <defs>
        <path id="DejaVuSans-30" d="M 2034 4250 
Q 1547 4250 1301 3770 
Q 1056 3291 1056 2328 
Q 1056 1369 1301 889 
Q 1547 409 2034 409 
Q 2525 409 2770 889 
Q 3016 1369 3016 2328 
Q 3016 3291 2770 3770 
Q 2525 4250 2034 4250 
z
M 2034 4750 
Q 2819 4750 3233 4129 
Q 3647 3509 3647 2328 
Q 3647 1150 3233 529 
Q 2819 -91 2034 -91 
Q 1250 -91 836 529 
Q 422 1150 422 2328 
Q 422 3509 836 4129 
Q 1250 4750 2034 4750 
z
" transform="scale(0.015625)"/>
       </defs>
       <use xlink:href="#DejaVuSans-30"/>
      </g>
     </g>
    </g>
    <g id="xtick_2">
     <g id="line2d_2">
      <g>
       <use xlink:href="#m5d61ecd666" x="114.451136" y="273.312" style="stroke: #000000; stroke-width: 0.8"/>
      </g>
     </g>
     <g id="text_2">
      <!-- 2 -->
      <g transform="translate(111.269886 287.910437) scale(0.1 -0.1)">
       <defs>
        <path id="DejaVuSans-32" d="M 1228 531 
L 3431 531 
L 3431 0 
L 469 0 
L 469 531 
Q 828 903 1448 1529 
Q 2069 2156 2228 2338 
Q 2531 2678 2651 2914 
Q 2772 3150 2772 3378 
Q 2772 3750 2511 3984 
Q 2250 4219 1831 4219 
Q 1534 4219 1204 4116 
Q 875 4013 500 3803 
L 500 4441 
Q 881 4594 1212 4672 
Q 1544 4750 1819 4750 
Q 2544 4750 2975 4387 
Q 3406 4025 3406 3419 
Q 3406 3131 3298 2873 
Q 3191 2616 2906 2266 
Q 2828 2175 2409 1742 
Q 1991 1309 1228 531 
z
" transform="scale(0.015625)"/>
       </defs>
       <use xlink:href="#DejaVuSans-32"/>
      </g>
     </g>
    </g>
    <g id="xtick_3">
     <g id="line2d_3">
      <g>
       <use xlink:href="#m5d61ecd666" x="179.382045" y="273.312" style="stroke: #000000; stroke-width: 0.8"/>
      </g>
     </g>
     <g id="text_3">
      <!-- 4 -->
      <g transform="translate(176.200795 287.910437) scale(0.1 -0.1)">
       <defs>
        <path id="DejaVuSans-34" d="M 2419 4116 
L 825 1625 
L 2419 1625 
L 2419 4116 
z
M 2253 4666 
L 3047 4666 
L 3047 1625 
L 3713 1625 
L 3713 1100 
L 3047 1100 
L 3047 0 
L 2419 0 
L 2419 1100 
L 313 1100 
L 313 1709 
L 2253 4666 
z
" transform="scale(0.015625)"/>
       </defs>
       <use xlink:href="#DejaVuSans-34"/>
      </g>
     </g>
    </g>
    <g id="xtick_4">
     <g id="line2d_4">
      <g>
       <use xlink:href="#m5d61ecd666" x="244.312955" y="273.312" style="stroke: #000000; stroke-width: 0.8"/>
      </g>
     </g>
     <g id="text_4">
      <!-- 6 -->
      <g transform="translate(241.131705 287.910437) scale(0.1 -0.1)">
       <defs>
        <path id="DejaVuSans-36" d="M 2113 2584 
Q 1688 2584 1439 2293 
Q 1191 2003 1191 1497 
Q 1191 994 1439 701 
Q 1688 409 2113 409 
Q 2538 409 2786 701 
Q 3034 994 3034 1497 
Q 3034 2003 2786 2293 
Q 2538 2584 2113 2584 
z
M 3366 4563 
L 3366 3988 
Q 3128 4100 2886 4159 
Q 2644 4219 2406 4219 
Q 1781 4219 1451 3797 
Q 1122 3375 1075 2522 
Q 1259 2794 1537 2939 
Q 1816 3084 2150 3084 
Q 2853 3084 3261 2657 
Q 3669 2231 3669 1497 
Q 3669 778 3244 343 
Q 2819 -91 2113 -91 
Q 1303 -91 875 529 
Q 447 1150 447 2328 
Q 447 3434 972 4092 
Q 1497 4750 2381 4750 
Q 2619 4750 2861 4703 
Q 3103 4656 3366 4563 
z
" transform="scale(0.015625)"/>
       </defs>
       <use xlink:href="#DejaVuSans-36"/>
      </g>
     </g>
    </g>
    <g id="xtick_5">
     <g id="line2d_5">
      <g>
       <use xlink:href="#m5d61ecd666" x="309.243864" y="273.312" style="stroke: #000000; stroke-width: 0.8"/>
      </g>
     </g>
     <g id="text_5">
      <!-- 8 -->
      <g transform="translate(306.062614 287.910437) scale(0.1 -0.1)">
       <defs>
        <path id="DejaVuSans-38" d="M 2034 2216 
Q 1584 2216 1326 1975 
Q 1069 1734 1069 1313 
Q 1069 891 1326 650 
Q 1584 409 2034 409 
Q 2484 409 2743 651 
Q 3003 894 3003 1313 
Q 3003 1734 2745 1975 
Q 2488 2216 2034 2216 
z
M 1403 2484 
Q 997 2584 770 2862 
Q 544 3141 544 3541 
Q 544 4100 942 4425 
Q 1341 4750 2034 4750 
Q 2731 4750 3128 4425 
Q 3525 4100 3525 3541 
Q 3525 3141 3298 2862 
Q 3072 2584 2669 2484 
Q 3125 2378 3379 2068 
Q 3634 1759 3634 1313 
Q 3634 634 3220 271 
Q 2806 -91 2034 -91 
Q 1263 -91 848 271 
Q 434 634 434 1313 
Q 434 1759 690 2068 
Q 947 2378 1403 2484 
z
M 1172 3481 
Q 1172 3119 1398 2916 
Q 1625 2713 2034 2713 
Q 2441 2713 2670 2916 
Q 2900 3119 2900 3481 
Q 2900 3844 2670 4047 
Q 2441 4250 2034 4250 
Q 1625 4250 1398 4047 
Q 1172 3844 1172 3481 
z
" transform="scale(0.015625)"/>
       </defs>
       <use xlink:href="#DejaVuSans-38"/>
      </g>
     </g>
    </g>
    <g id="xtick_6">
     <g id="line2d_6">
      <g>
       <use xlink:href="#m5d61ecd666" x="374.174773" y="273.312" style="stroke: #000000; stroke-width: 0.8"/>
      </g>
     </g>
     <g id="text_6">
      <!-- 10 -->
      <g transform="translate(367.812273 287.910437) scale(0.1 -0.1)">
       <defs>
        <path id="DejaVuSans-31" d="M 794 531 
L 1825 531 
L 1825 4091 
L 703 3866 
L 703 4441 
L 1819 4666 
L 2450 4666 
L 2450 531 
L 3481 531 
L 3481 0 
L 794 0 
L 794 531 
z
" transform="scale(0.015625)"/>
       </defs>
       <use xlink:href="#DejaVuSans-31"/>
       <use xlink:href="#DejaVuSans-30" transform="translate(63.623047 0)"/>
      </g>
     </g>
    </g>
   </g>
   <g id="matplotlib.axis_2">
    <g id="ytick_1">
     <g id="line2d_7">
      <defs>
       <path id="mb9dee465ba" d="M 0 0 
L -3.5 0 
" style="stroke: #000000; stroke-width: 0.8"/>
      </defs>
      <g>
       <use xlink:href="#mb9dee465ba" x="33.2875" y="265.997734" style="stroke: #000000; stroke-width: 0.8"/>
      </g>
     </g>
     <g id="text_7">
      <!-- 0 -->
      <g transform="translate(19.925 269.796953) scale(0.1 -0.1)">
       <use xlink:href="#DejaVuSans-30"/>
      </g>
     </g>
    </g>
    <g id="ytick_2">
     <g id="line2d_8">
      <g>
       <use xlink:href="#mb9dee465ba" x="33.2875" y="234.269799" style="stroke: #000000; stroke-width: 0.8"/>
      </g>
     </g>
     <g id="text_8">
      <!-- 50 -->
      <g transform="translate(13.5625 238.069017) scale(0.1 -0.1)">
       <defs>
        <path id="DejaVuSans-35" d="M 691 4666 
L 3169 4666 
L 3169 4134 
L 1269 4134 
L 1269 2991 
Q 1406 3038 1543 3061 
Q 1681 3084 1819 3084 
Q 2600 3084 3056 2656 
Q 3513 2228 3513 1497 
Q 3513 744 3044 326 
Q 2575 -91 1722 -91 
Q 1428 -91 1123 -41 
Q 819 9 494 109 
L 494 744 
Q 775 591 1075 516 
Q 1375 441 1709 441 
Q 2250 441 2565 725 
Q 2881 1009 2881 1497 
Q 2881 1984 2565 2268 
Q 2250 2553 1709 2553 
Q 1456 2553 1204 2497 
Q 953 2441 691 2322 
L 691 4666 
z
" transform="scale(0.015625)"/>
       </defs>
       <use xlink:href="#DejaVuSans-35"/>
       <use xlink:href="#DejaVuSans-30" transform="translate(63.623047 0)"/>
      </g>
     </g>
    </g>
    <g id="ytick_3">
     <g id="line2d_9">
      <g>
       <use xlink:href="#mb9dee465ba" x="33.2875" y="202.541863" style="stroke: #000000; stroke-width: 0.8"/>
      </g>
     </g>
     <g id="text_9">
      <!-- 100 -->
      <g transform="translate(7.2 206.341082) scale(0.1 -0.1)">
       <use xlink:href="#DejaVuSans-31"/>
       <use xlink:href="#DejaVuSans-30" transform="translate(63.623047 0)"/>
       <use xlink:href="#DejaVuSans-30" transform="translate(127.246094 0)"/>
      </g>
     </g>
    </g>
    <g id="ytick_4">
     <g id="line2d_10">
      <g>
       <use xlink:href="#mb9dee465ba" x="33.2875" y="170.813927" style="stroke: #000000; stroke-width: 0.8"/>
      </g>
     </g>
     <g id="text_10">
      <!-- 150 -->
      <g transform="translate(7.2 174.613146) scale(0.1 -0.1)">
       <use xlink:href="#DejaVuSans-31"/>
       <use xlink:href="#DejaVuSans-35" transform="translate(63.623047 0)"/>
       <use xlink:href="#DejaVuSans-30" transform="translate(127.246094 0)"/>
      </g>
     </g>
    </g>
    <g id="ytick_5">
     <g id="line2d_11">
      <g>
       <use xlink:href="#mb9dee465ba" x="33.2875" y="139.085991" style="stroke: #000000; stroke-width: 0.8"/>
      </g>
     </g>
     <g id="text_11">
      <!-- 200 -->
      <g transform="translate(7.2 142.88521) scale(0.1 -0.1)">
       <use xlink:href="#DejaVuSans-32"/>
       <use xlink:href="#DejaVuSans-30" transform="translate(63.623047 0)"/>
       <use xlink:href="#DejaVuSans-30" transform="translate(127.246094 0)"/>
      </g>
     </g>
    </g>
    <g id="ytick_6">
     <g id="line2d_12">
      <g>
       <use xlink:href="#mb9dee465ba" x="33.2875" y="107.358056" style="stroke: #000000; stroke-width: 0.8"/>
      </g>
     </g>
     <g id="text_12">
      <!-- 250 -->
      <g transform="translate(7.2 111.157274) scale(0.1 -0.1)">
       <use xlink:href="#DejaVuSans-32"/>
       <use xlink:href="#DejaVuSans-35" transform="translate(63.623047 0)"/>
       <use xlink:href="#DejaVuSans-30" transform="translate(127.246094 0)"/>
      </g>
     </g>
    </g>
    <g id="ytick_7">
     <g id="line2d_13">
      <g>
       <use xlink:href="#mb9dee465ba" x="33.2875" y="75.63012" style="stroke: #000000; stroke-width: 0.8"/>
      </g>
     </g>
     <g id="text_13">
      <!-- 300 -->
      <g transform="translate(7.2 79.429339) scale(0.1 -0.1)">
       <defs>
        <path id="DejaVuSans-33" d="M 2597 2516 
Q 3050 2419 3304 2112 
Q 3559 1806 3559 1356 
Q 3559 666 3084 287 
Q 2609 -91 1734 -91 
Q 1441 -91 1130 -33 
Q 819 25 488 141 
L 488 750 
Q 750 597 1062 519 
Q 1375 441 1716 441 
Q 2309 441 2620 675 
Q 2931 909 2931 1356 
Q 2931 1769 2642 2001 
Q 2353 2234 1838 2234 
L 1294 2234 
L 1294 2753 
L 1863 2753 
Q 2328 2753 2575 2939 
Q 2822 3125 2822 3475 
Q 2822 3834 2567 4026 
Q 2313 4219 1838 4219 
Q 1578 4219 1281 4162 
Q 984 4106 628 3988 
L 628 4550 
Q 988 4650 1302 4700 
Q 1616 4750 1894 4750 
Q 2613 4750 3031 4423 
Q 3450 4097 3450 3541 
Q 3450 3153 3228 2886 
Q 3006 2619 2597 2516 
z
" transform="scale(0.015625)"/>
       </defs>
       <use xlink:href="#DejaVuSans-33"/>
       <use xlink:href="#DejaVuSans-30" transform="translate(63.623047 0)"/>
       <use xlink:href="#DejaVuSans-30" transform="translate(127.246094 0)"/>
      </g>
     </g>
    </g>
    <g id="ytick_8">
     <g id="line2d_14">
      <g>
       <use xlink:href="#mb9dee465ba" x="33.2875" y="43.902184" style="stroke: #000000; stroke-width: 0.8"/>
      </g>
     </g>
     <g id="text_14">
      <!-- 350 -->
      <g transform="translate(7.2 47.701403) scale(0.1 -0.1)">
       <use xlink:href="#DejaVuSans-33"/>
       <use xlink:href="#DejaVuSans-35" transform="translate(63.623047 0)"/>
       <use xlink:href="#DejaVuSans-30" transform="translate(127.246094 0)"/>
      </g>
     </g>
    </g>
    <g id="ytick_9">
     <g id="line2d_15">
      <g>
       <use xlink:href="#mb9dee465ba" x="33.2875" y="12.174248" style="stroke: #000000; stroke-width: 0.8"/>
      </g>
     </g>
     <g id="text_15">
      <!-- 400 -->
      <g transform="translate(7.2 15.973467) scale(0.1 -0.1)">
       <use xlink:href="#DejaVuSans-34"/>
       <use xlink:href="#DejaVuSans-30" transform="translate(63.623047 0)"/>
       <use xlink:href="#DejaVuSans-30" transform="translate(127.246094 0)"/>
      </g>
     </g>
    </g>
   </g>
   <g id="patch_3">
    <path d="M 33.2875 273.312 
L 33.2875 7.2 
" style="fill: none; stroke: #000000; stroke-width: 0.8; stroke-linejoin: miter; stroke-linecap: square"/>
   </g>
   <g id="patch_4">
    <path d="M 390.4075 273.312 
L 390.4075 7.2 
" style="fill: none; stroke: #000000; stroke-width: 0.8; stroke-linejoin: miter; stroke-linecap: square"/>
   </g>
   <g id="patch_5">
    <path d="M 33.2875 273.312 
L 390.4075 273.312 
" style="fill: none; stroke: #000000; stroke-width: 0.8; stroke-linejoin: miter; stroke-linecap: square"/>
   </g>
   <g id="patch_6">
    <path d="M 33.2875 7.2 
L 390.4075 7.2 
" style="fill: none; stroke: #000000; stroke-width: 0.8; stroke-linejoin: miter; stroke-linecap: square"/>
   </g>
  </g>
 </g>
 <defs>
  <clipPath id="p4b84ccb664">
   <rect x="33.2875" y="7.2" width="357.12" height="266.112"/>
  </clipPath>
 </defs>
</svg>