<?xml version="1.0" encoding="UTF-8" standalone="no"?>
<svg
   enable-background="new"
   version="1.1"
   id="svg2"
   viewBox="0 0 637.7953 177.16534"
   height="50mm"
   width="180mm"
   sodipodi:docname="stack_test.svg"
   inkscape:version="1.2.2 (b0a84865, 2022-12-01)"
   inkscape:export-filename="stack.png"
   inkscape:export-xdpi="400"
   inkscape:export-ydpi="400"
   xmlns:inkscape="http://www.inkscape.org/namespaces/inkscape"
   xmlns:sodipodi="http://sodipodi.sourceforge.net/DTD/sodipodi-0.dtd"
   xmlns="http://www.w3.org/2000/svg"
   xmlns:svg="http://www.w3.org/2000/svg"
   xmlns:rdf="http://www.w3.org/1999/02/22-rdf-syntax-ns#"
   xmlns:cc="http://creativecommons.org/ns#"
   xmlns:dc="http://purl.org/dc/elements/1.1/">
  <sodipodi:namedview
     id="namedview139"
     pagecolor="#ffffff"
     bordercolor="#000000"
     borderopacity="0.25"
     inkscape:showpageshadow="2"
     inkscape:pageopacity="0.0"
     inkscape:pagecheckerboard="0"
     inkscape:deskcolor="#d1d1d1"
     inkscape:document-units="mm"
     showgrid="false"
     inkscape:zoom="0.92392724"
     inkscape:cx="359.87682"
     inkscape:cy="158.56227"
     inkscape:window-width="1367"
     inkscape:window-height="883"
     inkscape:window-x="90"
     inkscape:window-y="37"
     inkscape:window-maximized="0"
     inkscape:current-layer="g965" />
  <defs
     id="defs4">
    <marker
       style="overflow:visible"
       id="marker4923"
       refX="0"
       refY="0"
       orient="auto">
      <path
         transform="matrix(-0.4,0,0,-0.4,-4,0)"
         style="fill:#000000;fill-opacity:1;fill-rule:evenodd;stroke:#000000;stroke-width:1pt;stroke-opacity:1"
         d="M 0,0 5,-5 -12.5,0 5,5 Z"
         id="path4925" />
    </marker>
    <marker
       orient="auto"
       refY="0"
       refX="0"
       id="Arrow2Mend"
       style="overflow:visible">
      <path
         id="path4442"
         style="fill:#000000;fill-opacity:1;fill-rule:evenodd;stroke:#000000;stroke-width:0.625;stroke-linejoin:round;stroke-opacity:1"
         d="M 8.7185878,4.0337352 -2.2072895,0.01601326 8.7185884,-4.0017078 c -1.7454984,2.3720609 -1.7354408,5.6174519 -6e-7,8.035443 z"
         transform="scale(-0.6)" />
    </marker>
    <marker
       orient="auto"
       refY="0"
       refX="0"
       id="Arrow1Send"
       style="overflow:visible">
      <path
         id="path4430"
         d="M 0,0 5,-5 -12.5,0 5,5 Z"
         style="fill:#000000;fill-opacity:1;fill-rule:evenodd;stroke:#000000;stroke-width:1pt;stroke-opacity:1"
         transform="matrix(-0.2,0,0,-0.2,-1.2,0)" />
    </marker>
    <marker
       orient="auto"
       refY="0"
       refX="0"
       id="marker4323"
       style="overflow:visible">
      <path
         id="path4325"
         d="M 0,0 5,-5 -12.5,0 5,5 Z"
         style="fill:#000000;fill-opacity:1;fill-rule:evenodd;stroke:#000000;stroke-width:1pt;stroke-opacity:1"
         transform="matrix(-0.4,0,0,-0.4,-4,0)" />
    </marker>
    <marker
       style="overflow:visible"
       id="marker1243"
       refX="0"
       refY="0"
       orient="auto">
      <path
         transform="matrix(-0.4,0,0,-0.4,-4,0)"
         style="fill:#000000;fill-opacity:1;fill-rule:evenodd;stroke:#000000;stroke-width:1pt;stroke-opacity:1"
         d="M 0,0 5,-5 -12.5,0 5,5 Z"
         id="path989" />
    </marker>
    <marker
       orient="auto"
       refY="0"
       refX="0"
       id="marker7040"
       style="overflow:visible">
      <path
         id="path7042"
         d="M 0,0 5,-5 -12.5,0 5,5 Z"
         style="fill:#000000;fill-opacity:1;fill-rule:evenodd;stroke:#000000;stroke-width:1pt;stroke-opacity:1"
         transform="matrix(-0.4,0,0,-0.4,-4,0)" />
    </marker>
    <marker
       orient="auto"
       refY="0"
       refX="0"
       id="marker6608"
       style="overflow:visible">
      <path
         id="path6610"
         d="M 0,0 5,-5 -12.5,0 5,5 Z"
         style="fill:#000000;fill-opacity:1;fill-rule:evenodd;stroke:#000000;stroke-width:1pt;stroke-opacity:1"
         transform="matrix(-0.4,0,0,-0.4,-4,0)" />
    </marker>
    <marker
       style="overflow:visible"
       id="marker6154"
       refX="0"
       refY="0"
       orient="auto">
      <path
         transform="matrix(-0.4,0,0,-0.4,-4,0)"
         style="fill:#000000;fill-opacity:1;fill-rule:evenodd;stroke:#000000;stroke-width:1pt;stroke-opacity:1"
         d="M 0,0 5,-5 -12.5,0 5,5 Z"
         id="path6156" />
    </marker>
    <marker
       orient="auto"
       refY="0"
       refX="0"
       id="marker5680"
       style="overflow:visible">
      <path
         id="path5682"
         d="M 0,0 5,-5 -12.5,0 5,5 Z"
         style="fill:#000000;fill-opacity:1;fill-rule:evenodd;stroke:#000000;stroke-width:1pt;stroke-opacity:1"
         transform="matrix(-0.4,0,0,-0.4,-4,0)" />
    </marker>
    <marker
       style="overflow:visible"
       id="marker5224"
       refX="0"
       refY="0"
       orient="auto">
      <path
         transform="matrix(-0.4,0,0,-0.4,-4,0)"
         style="fill:#000000;fill-opacity:1;fill-rule:evenodd;stroke:#000000;stroke-width:1pt;stroke-opacity:1"
         d="M 0,0 5,-5 -12.5,0 5,5 Z"
         id="path5226" />
    </marker>
    <marker
       orient="auto"
       refY="0"
       refX="0"
       id="marker4192"
       style="overflow:visible">
      <path
         id="path4194"
         d="M 0,0 5,-5 -12.5,0 5,5 Z"
         style="fill:#000000;fill-opacity:1;fill-rule:evenodd;stroke:#000000;stroke-width:1pt;stroke-opacity:1"
         transform="matrix(-0.4,0,0,-0.4,-4,0)" />
    </marker>
    <filter
       id="filter4255"
       style="color-interpolation-filters:sRGB"
       x="-0.0083333361"
       y="-0.021875003"
       width="1.0166667"
       height="1.04375">
      <feBlend
         id="feBlend4257"
         in2="BackgroundImage"
         mode="lighten" />
    </filter>
    <filter
       id="filter4273"
       style="color-interpolation-filters:sRGB"
       height="1.72"
       y="-0.36000001"
       width="1.72"
       x="-0.36000001">
      <feGaussianBlur
         id="feGaussianBlur4275"
         stdDeviation="3.1821427" />
    </filter>
    <filter
       id="filter4279"
       style="color-interpolation-filters:sRGB"
       height="2.4400001"
       y="-0.72000003"
       width="2.4400001"
       x="-0.72000003">
      <feGaussianBlur
         id="feGaussianBlur4281"
         stdDeviation="6.3642854" />
    </filter>
    <filter
       id="filter4285"
       style="color-interpolation-filters:sRGB"
       height="3.1600001"
       y="-1.08"
       width="3.1600001"
       x="-1.08">
      <feGaussianBlur
         id="feGaussianBlur4287"
         stdDeviation="9.5464281" />
    </filter>
    <filter
       id="filter4291"
       style="color-interpolation-filters:sRGB"
       height="3.8800001"
       y="-1.4400001"
       width="3.8800001"
       x="-1.4400001">
      <feGaussianBlur
         id="feGaussianBlur4293"
         stdDeviation="12.728571" />
    </filter>
    <marker
       orient="auto"
       refY="0"
       refX="0"
       id="marker7040-9"
       style="overflow:visible">
      <path
         id="path7042-9"
         d="M 0,0 5,-5 -12.5,0 5,5 Z"
         style="fill:#000000;fill-opacity:1;fill-rule:evenodd;stroke:#000000;stroke-width:1pt;stroke-opacity:1"
         transform="matrix(-0.4,0,0,-0.4,-4,0)" />
    </marker>
  </defs>
  <metadata
     id="metadata7">
    <rdf:RDF>
      <cc:Work
         rdf:about="">
        <dc:format>image/svg+xml</dc:format>
        <dc:type
           rdf:resource="http://purl.org/dc/dcmitype/StillImage" />
      </cc:Work>
    </rdf:RDF>
  </metadata>
  <g
     style="display:inline"
     transform="translate(-72.549559,-402.26239)"
     id="layer1">
    <g
       style="filter:url(#filter4255)"
       transform="translate(-7.2206461,333.59385)"
       id="g4192" />
    <g
       transform="matrix(0.55210375,0,0,0.55210375,30.475037,174.82423)"
       id="g4592">
      <g
         id="g4479">
        <g
           id="g965"
           transform="translate(15.061528,12.420415)">
          <path
             id="path4921"
             d="m 1108.0313,564.84619 71.1332,-134.93101"
             style="fill:none;fill-rule:evenodd;stroke:#000000;stroke-width:3;stroke-linecap:butt;stroke-linejoin:miter;stroke-miterlimit:4;stroke-dasharray:none;stroke-opacity:1;marker-end:url(#marker4923)" />
          <path
             id="rect4205"
             style="fill:#d56449;fill-rule:evenodd;stroke:#000000;stroke-width:1px;filter:url(#filter4255)"
             d="m 142.03568,479.69946 h 60 v 22.85714 h -60 z" />
          <path
             id="use4307"
             style="opacity:0.85;fill:#d56449;fill-rule:evenodd;stroke:#000000;stroke-width:1px;filter:url(#filter4255)"
             d="m 203.03568,479.69946 h 60 v 22.85714 h -60 z" />
          <path
             id="use4309"
             style="opacity:0.7;fill:#d56449;fill-rule:evenodd;stroke:#000000;stroke-width:1px;filter:url(#filter4255)"
             d="m 264.03568,479.69946 h 60 v 22.85714 h -60 z" />
          <path
             id="use4311"
             style="opacity:0.55;fill:#d56449;fill-rule:evenodd;stroke:#000000;stroke-width:1px;filter:url(#filter4255)"
             d="m 325.03568,479.69946 h 60 v 22.85714 h -60 z" />
          <path
             id="use4313"
             style="opacity:0.4;fill:#d56449;fill-rule:evenodd;stroke:#000000;stroke-width:1px;filter:url(#filter4255)"
             d="m 386.03568,479.69946 h 60 v 22.85714 h -60 z" />
          <path
             id="rect4194"
             style="fill:#0064ff;fill-rule:evenodd;stroke:#000000;stroke-width:1px;filter:url(#filter4255)"
             d="m 142.03567,508.32263 h 60 v 22.85715 h -60 z" />
          <path
             id="use4317"
             style="opacity:0.85;fill:#0064ff;fill-rule:evenodd;stroke:#000000;stroke-width:1px;filter:url(#filter4255)"
             d="m 203.03567,508.32263 h 60 v 22.85715 h -60 z" />
          <path
             id="use4319"
             style="opacity:0.7;fill:#0064ff;fill-rule:evenodd;stroke:#000000;stroke-width:1px;filter:url(#filter4255)"
             d="m 264.03564,508.32263 h 60 v 22.85715 h -60 z" />
          <path
             id="use4321"
             style="opacity:0.55;fill:#0064ff;fill-rule:evenodd;stroke:#000000;stroke-width:1px;filter:url(#filter4255)"
             d="m 325.03564,508.32263 h 60 v 22.85715 h -60 z" />
          <path
             id="use4323"
             style="opacity:0.4;fill:#0064ff;fill-rule:evenodd;stroke:#000000;stroke-width:1px;filter:url(#filter4255)"
             d="m 386.03564,508.32263 h 60 v 22.85715 h -60 z" />
          <g
             id="g2250">
            <path
               id="rect4217"
               style="fill:#006426;fill-rule:evenodd;stroke:#000000;stroke-width:1px;filter:url(#filter4255)"
               d="m 142.03568,451.07631 h 60 v 22.85714 h -60 z" />
            <path
               id="use4356"
               style="opacity:0.85;fill:#006426;fill-rule:evenodd;stroke:#000000;stroke-width:1px;filter:url(#filter4255)"
               d="m 203.03568,451.07631 h 60 v 22.85714 h -60 z" />
            <path
               id="use4358"
               style="opacity:0.7;fill:#006426;fill-rule:evenodd;stroke:#000000;stroke-width:1px;filter:url(#filter4255)"
               d="m 264.03565,451.07631 h 60 v 22.85714 h -60 z" />
            <path
               id="use4360"
               style="opacity:0.55;fill:#006426;fill-rule:evenodd;stroke:#000000;stroke-width:1px;filter:url(#filter4255)"
               d="m 325.03565,451.07631 h 60 v 22.85714 h -60 z" />
            <path
               id="use4362"
               style="opacity:0.4;fill:#006426;fill-rule:evenodd;stroke:#000000;stroke-width:1px;filter:url(#filter4255)"
               d="m 386.03565,451.07631 h 60 v 22.85714 h -60 z" />
          </g>
          <path
             id="rect4205-8"
             style="fill:#d56449;fill-rule:evenodd;stroke:#000000;stroke-width:1px;filter:url(#filter4255)"
             transform="rotate(180,397.67402,-37.24645)"
             d="m 122.87753,-530.35736 h 60 v 22.85714 h -60 z" />
          <path
             id="use4307-0"
             style="opacity:0.85;fill:#d56449;fill-rule:evenodd;stroke:#000000;stroke-width:1px;filter:url(#filter4255)"
             transform="rotate(180,397.67402,-37.24645)"
             d="m 122.87753,-553.21448 h 60 v 22.85715 h -60 z" />
          <path
             id="use4309-2"
             style="opacity:0.7;fill:#d56449;fill-rule:evenodd;stroke:#000000;stroke-width:1px;filter:url(#filter4255)"
             transform="rotate(180,397.67402,-37.24645)"
             d="m 122.87753,-576.07166 h 60 v 22.85715 h -60 z" />
          <path
             id="use4311-4"
             style="opacity:0.55;fill:#d56449;fill-rule:evenodd;stroke:#000000;stroke-width:1px;filter:url(#filter4255)"
             transform="rotate(180,397.67402,-37.24645)"
             d="m 122.87753,-598.92877 h 60 v 22.85714 h -60 z" />
          <path
             id="use4313-8"
             style="opacity:0.4;fill:#d56449;fill-rule:evenodd;stroke:#000000;stroke-width:1px;filter:url(#filter4255)"
             transform="rotate(180,397.67402,-37.24645)"
             d="m 122.87753,-621.78595 h 60 v 22.85714 h -60 z" />
          <path
             id="rect4194-9"
             style="fill:#0064ff;fill-rule:evenodd;stroke:#000000;stroke-width:1px;filter:url(#filter4255)"
             transform="rotate(180,416.1762,-40.419475)"
             d="m 228.19933,-536.70343 h 60 v 22.85714 h -60 z" />
          <path
             id="use4317-0"
             style="opacity:0.85;fill:#0064ff;fill-rule:evenodd;stroke:#000000;stroke-width:1px;filter:url(#filter4255)"
             transform="rotate(180,416.1762,-40.419475)"
             d="m 228.19933,-559.56055 h 60 v 22.85715 h -60 z" />
          <path
             id="use4319-5"
             style="opacity:0.7;fill:#0064ff;fill-rule:evenodd;stroke:#000000;stroke-width:1px;filter:url(#filter4255)"
             transform="rotate(180,416.1762,-40.419475)"
             d="m 228.19933,-582.41772 h 60 v 22.85714 h -60 z" />
          <path
             id="use4321-2"
             style="opacity:0.55;fill:#0064ff;fill-rule:evenodd;stroke:#000000;stroke-width:1px;filter:url(#filter4255)"
             transform="rotate(180,416.1762,-40.419475)"
             d="m 228.19933,-605.27484 h 60 v 22.85714 h -60 z" />
          <path
             id="use4323-2"
             style="opacity:0.4;fill:#0064ff;fill-rule:evenodd;stroke:#000000;stroke-width:1px;filter:url(#filter4255)"
             transform="rotate(180,416.1762,-40.419475)"
             d="m 228.19933,-628.13202 h 60 v 22.85714 h -60 z" />
          <path
             id="rect4217-7"
             style="fill:#006426;fill-rule:evenodd;stroke:#000000;stroke-width:1px;filter:url(#filter4255)"
             transform="rotate(180,406.87064,3.960035)"
             d="m 72.953461,-447.9444 h 59.999999 v 22.85715 H 72.953461 Z" />
          <path
             id="use4356-9"
             style="opacity:0.85;fill:#006426;fill-rule:evenodd;stroke:#000000;stroke-width:1px;filter:url(#filter4255)"
             transform="rotate(180,406.87064,3.960035)"
             d="m 72.953461,-470.80154 h 59.999999 v 22.85714 H 72.953461 Z" />
          <path
             id="use4358-0"
             style="opacity:0.7;fill:#006426;fill-rule:evenodd;stroke:#000000;stroke-width:1px;filter:url(#filter4255)"
             transform="rotate(180,406.87064,3.960035)"
             d="m 72.953461,-493.65869 h 59.999999 v 22.85714 H 72.953461 Z" />
          <path
             id="use4360-2"
             style="opacity:0.55;fill:#006426;fill-rule:evenodd;stroke:#000000;stroke-width:1px;filter:url(#filter4255)"
             transform="rotate(180,406.87064,3.960035)"
             d="m 72.953461,-516.51581 h 59.999999 v 22.85715 H 72.953461 Z" />
          <path
             id="use4362-3"
             style="opacity:0.4;fill:#006426;fill-rule:evenodd;stroke:#000000;stroke-width:1px;filter:url(#filter4255)"
             transform="rotate(180,406.87064,3.960035)"
             d="m 72.953461,-539.37299 h 59.999999 v 22.85715 H 72.953461 Z" />
          <path
             id="rect4355"
             style="fill:#0064ff;fill-rule:evenodd;stroke:#000000;stroke-width:1px;filter:url(#filter4255)"
             d="m 799.6272,460.73011 h 60 v 22.85715 h -60 z" />
          <path
             id="use4357"
             style="opacity:0.85;fill:#0064ff;fill-rule:evenodd;stroke:#000000;stroke-width:1px;filter:url(#filter4255)"
             d="m 860.6272,460.73011 h 60 v 22.85715 h -60 z" />
          <path
             id="use4359"
             style="opacity:0.7;fill:#0064ff;fill-rule:evenodd;stroke:#000000;stroke-width:1px;filter:url(#filter4255)"
             d="m 921.62717,460.73011 h 60 v 22.85715 h -60 z" />
          <path
             id="use4361"
             style="opacity:0.55;fill:#0064ff;fill-rule:evenodd;stroke:#000000;stroke-width:1px;filter:url(#filter4255)"
             d="m 982.62717,460.73011 h 60.00003 v 22.85715 h -60.00003 z" />
          <path
             id="use4363"
             style="opacity:0.4;fill:#0064ff;fill-rule:evenodd;stroke:#000000;stroke-width:1px;filter:url(#filter4255)"
             d="m 1043.6272,460.73011 h 60 v 22.85715 h -60 z" />
          <path
             id="rect4343"
             style="fill:#d56449;fill-rule:evenodd;stroke:#000000;stroke-width:1px;filter:url(#filter4255)"
             d="m 790.84775,476.66067 h 60 v 22.85714 h -60 z" />
          <path
             id="use4345"
             style="opacity:0.85;fill:#d56449;fill-rule:evenodd;stroke:#000000;stroke-width:1px;filter:url(#filter4255)"
             d="m 851.84775,476.66067 h 60 v 22.85714 h -60 z" />
          <path
             id="use4347"
             style="opacity:0.7;fill:#d56449;fill-rule:evenodd;stroke:#000000;stroke-width:1px;filter:url(#filter4255)"
             d="m 912.84775,476.66067 h 60 v 22.85714 h -60 z" />
          <path
             id="use4349"
             style="opacity:0.55;fill:#d56449;fill-rule:evenodd;stroke:#000000;stroke-width:1px;filter:url(#filter4255)"
             d="m 973.84775,476.66067 h 60.00005 v 22.85714 h -60.00005 z" />
          <path
             id="use4351"
             style="opacity:0.4;fill:#d56449;fill-rule:evenodd;stroke:#000000;stroke-width:1px;filter:url(#filter4255)"
             d="m 1034.8478,476.66067 h 60 v 22.85714 h -60 z" />
          <g
             id="g2101">
            <path
               id="rect4330"
               style="fill:#006426;fill-rule:evenodd;stroke:#000000;stroke-width:1px;filter:url(#filter4255)"
               d="m 782.06831,492.59123 h 60 v 22.85714 h -60 z" />
            <path
               id="use4332"
               style="opacity:0.85;fill:#006426;fill-rule:evenodd;stroke:#000000;stroke-width:1px;filter:url(#filter4255)"
               d="m 843.06831,492.59123 h 60 v 22.85714 h -60 z" />
            <path
               id="use4334"
               style="opacity:0.7;fill:#006426;fill-rule:evenodd;stroke:#000000;stroke-width:1px;filter:url(#filter4255)"
               d="m 904.06828,492.59123 h 60 v 22.85714 h -60 z" />
            <path
               id="use4336"
               style="opacity:0.55;fill:#006426;fill-rule:evenodd;stroke:#000000;stroke-width:1px;filter:url(#filter4255)"
               d="m 965.06828,492.59123 h 60.00002 v 22.85714 h -60.00002 z" />
            <path
               id="use4338"
               style="opacity:0.4;fill:#006426;fill-rule:evenodd;stroke:#000000;stroke-width:1px;filter:url(#filter4255)"
               d="m 1026.0683,492.59123 h 60 v 22.85714 h -60 z" />
          </g>
          <path
             id="rect4375"
             style="fill:#006426;fill-rule:evenodd;stroke:#000000;stroke-width:1px;filter:url(#filter4255)"
             d="m 160.41433,613.45036 h 60 v 22.85714 h -60 z" />
          <path
             id="use4377"
             style="opacity:0.85;fill:#006426;fill-rule:evenodd;stroke:#000000;stroke-width:1px;filter:url(#filter4255)"
             d="m 221.41433,613.45036 h 60 v 22.85714 h -60 z" />
          <path
             id="use4379"
             style="opacity:0.7;fill:#006426;fill-rule:evenodd;stroke:#000000;stroke-width:1px;filter:url(#filter4255)"
             d="m 282.4143,613.45036 h 60 v 22.85714 h -60 z" />
          <path
             id="use4381"
             style="opacity:0.55;fill:#006426;fill-rule:evenodd;stroke:#000000;stroke-width:1px;filter:url(#filter4255)"
             d="m 343.4143,613.45036 h 60 v 22.85714 h -60 z" />
          <path
             id="use4383"
             style="opacity:0.4;fill:#006426;fill-rule:evenodd;stroke:#000000;stroke-width:1px;filter:url(#filter4255)"
             d="m 404.4143,613.45036 h 60 v 22.85714 h -60 z" />
          <path
             id="rect4387"
             style="fill:#d56449;fill-rule:evenodd;stroke:#000000;stroke-width:1px;filter:url(#filter4255)"
             d="m 470.28404,613.45035 h 60 v 22.85714 h -60 z" />
          <path
             id="use4389"
             style="opacity:0.85;fill:#d56449;fill-rule:evenodd;stroke:#000000;stroke-width:1px;filter:url(#filter4255)"
             d="m 531.28404,613.45035 h 60 v 22.85714 h -60 z" />
          <path
             id="use4391"
             style="opacity:0.7;fill:#d56449;fill-rule:evenodd;stroke:#000000;stroke-width:1px;filter:url(#filter4255)"
             d="m 592.28404,613.45035 h 60 v 22.85714 h -60 z" />
          <path
             id="use4393"
             style="opacity:0.55;fill:#d56449;fill-rule:evenodd;stroke:#000000;stroke-width:1px;filter:url(#filter4255)"
             d="m 653.28404,613.45035 h 60 v 22.85714 h -60 z" />
          <path
             id="use4395"
             style="opacity:0.4;fill:#d56449;fill-rule:evenodd;stroke:#000000;stroke-width:1px;filter:url(#filter4255)"
             d="m 714.28404,613.45035 h 60 v 22.85714 h -60 z" />
          <path
             id="rect4399"
             style="fill:#0064ff;fill-rule:evenodd;stroke:#000000;stroke-width:1px;filter:url(#filter4255)"
             d="m 780.15375,613.45035 h 60 v 22.85715 h -60 z" />
          <path
             id="use4401"
             style="opacity:0.85;fill:#0064ff;fill-rule:evenodd;stroke:#000000;stroke-width:1px;filter:url(#filter4255)"
             d="m 841.15375,613.45035 h 60 v 22.85715 h -60 z" />
          <path
             id="use4403"
             style="opacity:0.7;fill:#0064ff;fill-rule:evenodd;stroke:#000000;stroke-width:1px;filter:url(#filter4255)"
             d="m 902.15372,613.45035 h 60 v 22.85715 h -60 z" />
          <path
             id="use4405"
             style="opacity:0.55;fill:#0064ff;fill-rule:evenodd;stroke:#000000;stroke-width:1px;filter:url(#filter4255)"
             d="m 963.15372,613.45035 h 59.99998 v 22.85715 h -59.99998 z" />
          <path
             id="use4407"
             style="opacity:0.4;fill:#0064ff;fill-rule:evenodd;stroke:#000000;stroke-width:1px;filter:url(#filter4255)"
             d="m 1024.1537,613.45035 h 60 v 22.85715 h -60 z" />
          <path
             style="fill:none;fill-rule:evenodd;stroke:#000000;stroke-width:3;stroke-linecap:butt;stroke-linejoin:miter;stroke-miterlimit:4;stroke-dasharray:none;stroke-opacity:1;marker-end:url(#marker5680)"
             d="M 557.01597,676.9472 H 709.549"
             id="path5678" />
          <path
             d="m 571.9388,707.68042 v -19.44798 h 2.38788 v 6.97793 q 1.67152,-1.93684 4.2186,-1.93684 1.56539,0 2.71953,0.6235 1.15414,0.61024 1.64499,1.69805 0.5041,1.08781 0.5041,3.15731 v 8.92803 h -2.38788 v -8.92803 q 0,-1.79091 -0.78269,-2.60014 -0.76943,-0.82249 -2.1889,-0.82249 -1.06128,0 -2.00316,0.55717 -0.92863,0.54391 -1.32661,1.4858 -0.39798,0.94188 -0.39798,2.60013 v 7.70756 z"
             style="font-size:27.1688px;line-height:1.25;font-family:Arial;-inkscape-font-specification:Arial;letter-spacing:0px;word-spacing:0px;stroke-width:1px"
             id="path649" />
          <path
             d="m 586.15997,700.63617 q 0,-3.91348 2.17563,-5.79725 1.81744,-1.56539 4.43085,-1.56539 2.90525,0 4.74923,1.9103 1.84398,1.89704 1.84398,5.25335 0,2.71953 -0.8225,4.28492 -0.80922,1.55212 -2.37461,2.41441 -1.55213,0.86229 -3.3961,0.86229 -2.95833,0 -4.78904,-1.89704 -1.81744,-1.89704 -1.81744,-5.46559 z m 2.45421,0 q 0,2.70626 1.18068,4.0594 1.18067,1.33986 2.97159,1.33986 1.77764,0 2.95832,-1.35313 1.18067,-1.35313 1.18067,-4.12573 0,-2.61341 -1.19394,-3.95327 -1.18067,-1.35314 -2.94505,-1.35314 -1.79092,0 -2.97159,1.33987 -1.18068,1.33987 -1.18068,4.04614 z"
             style="font-size:27.1688px;line-height:1.25;font-family:Arial;-inkscape-font-specification:Arial;letter-spacing:0px;word-spacing:0px;stroke-width:1px"
             id="path651" />
          <path
             d="m 602.13225,707.68042 v -14.08851 h 2.1491 v 2.13583 q 0.82249,-1.49906 1.51232,-1.97664 0.7031,-0.47757 1.53886,-0.47757 1.20721,0 2.45421,0.76943 l -0.82249,2.21542 q -0.87556,-0.51737 -1.75111,-0.51737 -0.7827,0 -1.4062,0.47757 -0.6235,0.46431 -0.88882,1.30007 -0.39798,1.27354 -0.39798,2.78587 v 7.3759 z"
             style="font-size:27.1688px;line-height:1.25;font-family:Arial;-inkscape-font-specification:Arial;letter-spacing:0px;word-spacing:0px;stroke-width:1px"
             id="path653" />
          <path
             d="m 611.21947,690.97851 v -2.74607 h 2.38789 v 2.74607 z m 0,16.70191 v -14.08851 h 2.38789 v 14.08851 z"
             style="font-size:27.1688px;line-height:1.25;font-family:Arial;-inkscape-font-specification:Arial;letter-spacing:0px;word-spacing:0px;stroke-width:1px"
             id="path655" />
          <path
             d="m 615.98197,707.68042 v -1.93684 l 8.96783,-10.29443 q -1.52559,0.0796 -2.693,0.0796 h -5.74419 v -1.93684 h 11.51491 v 1.57866 l -7.62796,8.94129 -1.47253,1.63172 q 1.60519,-0.11939 3.01138,-0.11939 h 6.51362 v 2.05623 z"
             style="font-size:27.1688px;line-height:1.25;font-family:Arial;-inkscape-font-specification:Arial;letter-spacing:0px;word-spacing:0px;stroke-width:1px"
             id="path657" />
          <path
             d="m 629.93782,700.63617 q 0,-3.91348 2.17563,-5.79725 1.81744,-1.56539 4.43085,-1.56539 2.90525,0 4.74923,1.9103 1.84398,1.89704 1.84398,5.25335 0,2.71953 -0.8225,4.28492 -0.80922,1.55212 -2.37461,2.41441 -1.55213,0.86229 -3.3961,0.86229 -2.95832,0 -4.78903,-1.89704 -1.81745,-1.89704 -1.81745,-5.46559 z m 2.45421,0 q 0,2.70626 1.18068,4.0594 1.18068,1.33986 2.97159,1.33986 1.77764,0 2.95832,-1.35313 1.18067,-1.35313 1.18067,-4.12573 0,-2.61341 -1.19394,-3.95327 -1.18067,-1.35314 -2.94505,-1.35314 -1.79091,0 -2.97159,1.33987 -1.18068,1.33987 -1.18068,4.04614 z"
             style="font-size:27.1688px;line-height:1.25;font-family:Arial;-inkscape-font-specification:Arial;letter-spacing:0px;word-spacing:0px;stroke-width:1px"
             id="path659" />
          <path
             d="m 645.93663,707.68042 v -14.08851 h 2.1491 v 2.00317 q 1.55212,-2.32155 4.48391,-2.32155 1.27354,0 2.33482,0.46431 1.07455,0.45104 1.60519,1.19394 0.53064,0.7429 0.7429,1.76438 0.13266,0.6633 0.13266,2.32155 v 8.66271 h -2.38789 v -8.56985 q 0,-1.45926 -0.27858,-2.17562 -0.27859,-0.72963 -0.99496,-1.15415 -0.70309,-0.43777 -1.65825,-0.43777 -1.52559,0 -2.63993,0.96841 -1.10108,0.96842 -1.10108,3.67469 v 7.69429 z"
             style="font-size:27.1688px;line-height:1.25;font-family:Arial;-inkscape-font-specification:Arial;letter-spacing:0px;word-spacing:0px;stroke-width:1px"
             id="path661" />
          <path
             d="m 666.26017,705.54459 0.34492,2.1093 q -1.00822,0.21225 -1.80418,0.21225 -1.30007,0 -2.01644,-0.41124 -0.71636,-0.41125 -1.00821,-1.07455 -0.29185,-0.67657 -0.29185,-2.82566 v -8.10554 h -1.75112 v -1.85724 h 1.75112 v -3.48896 l 2.37461,-1.43273 v 4.92169 h 2.40115 v 1.85724 h -2.40115 v 8.2382 q 0,1.02148 0.1194,1.31333 0.13266,0.29186 0.41124,0.46432 0.29185,0.17245 0.8225,0.17245 0.39798,0 1.04801,-0.0929 z"
             style="font-size:27.1688px;line-height:1.25;font-family:Arial;-inkscape-font-specification:Arial;letter-spacing:0px;word-spacing:0px;stroke-width:1px"
             id="path663" />
          <path
             d="m 677.78834,705.94257 q -1.3266,1.12761 -2.56034,1.59192 -1.22048,0.46431 -2.62667,0.46431 -2.32156,0 -3.56856,-1.12761 -1.24701,-1.14087 -1.24701,-2.90525 0,-1.03475 0.46431,-1.88378 0.47758,-0.86229 1.23374,-1.37966 0.76943,-0.51738 1.72458,-0.7827 0.7031,-0.18572 2.12257,-0.35818 2.89199,-0.34492 4.25839,-0.82249 0.0133,-0.49085 0.0133,-0.62351 0,-1.45926 -0.67656,-2.05623 -0.91536,-0.80923 -2.71954,-0.80923 -1.68478,0 -2.49401,0.59697 -0.79596,0.58371 -1.18067,2.08277 l -2.33482,-0.31839 q 0.31838,-1.49906 1.04801,-2.41441 0.72963,-0.92862 2.1093,-1.41946 1.37967,-0.50411 3.19711,-0.50411 1.80418,0 2.93179,0.42451 1.12761,0.42451 1.65825,1.07455 0.53064,0.63677 0.7429,1.61845 0.11939,0.61024 0.11939,2.20216 v 3.18384 q 0,3.32977 0.14593,4.2186 0.15919,0.87555 0.61024,1.68478 h -2.49402 q -0.37144,-0.7429 -0.47757,-1.73785 z m -0.19899,-5.33294 q -1.30007,0.53064 -3.90021,0.90209 -1.47253,0.21226 -2.08277,0.47758 -0.61023,0.26532 -0.94188,0.78269 -0.33165,0.50411 -0.33165,1.12762 0,0.95515 0.71636,1.59192 0.72963,0.63677 2.12256,0.63677 1.37967,0 2.45422,-0.59697 1.07454,-0.61024 1.57865,-1.65826 0.38472,-0.80922 0.38472,-2.38788 z"
             style="font-size:27.1688px;line-height:1.25;font-family:Arial;-inkscape-font-specification:Arial;letter-spacing:0px;word-spacing:0px;stroke-width:1px"
             id="path665" />
          <path
             d="m 683.65192,707.68042 v -19.44798 h 2.38788 v 19.44798 z"
             style="font-size:27.1688px;line-height:1.25;font-family:Arial;-inkscape-font-specification:Arial;letter-spacing:0px;word-spacing:0px;stroke-width:1px"
             id="path667" />
          <path
             d="m 1147.7438,560.36262 -1.5908,-0.79352 q 1.2776,2.13462 0.117,4.46134 -0.7521,1.50762 -2.2166,2.36332 -1.4588,0.84378 -3.292,0.80399 -1.8392,-0.0576 -3.7742,-1.02283 -1.8875,-0.94154 -3.105,-2.33459 -1.2294,-1.39898 -1.4207,-3.06588 -0.1915,-1.66694 0.5842,-3.22205 0.5685,-1.13962 1.4993,-1.78716 0.919,-0.65348 1.9689,-0.82651 l -6.2441,-3.11477 1.0599,-2.12491 17.403,8.6811 z m -9.6611,3.61615 q 2.4218,1.20803 4.1299,0.78517 1.7083,-0.42281 2.4011,-1.81172 0.6988,-1.40078 0.045,-2.94267 -0.66,-1.55969 -3.0105,-2.73218 -2.5879,-1.29092 -4.2962,-0.89774 -1.7083,0.39313 -2.4366,1.85327 -0.7106,1.42452 -0.027,2.96641 0.6897,1.53002 3.1944,2.77946 z"
             style="font-size:27.1688px;line-height:1.25;font-family:Arial;-inkscape-font-specification:Arial;letter-spacing:0px;word-spacing:0px;stroke-width:1px"
             id="path670" />
          <path
             d="m 1150.6536,544.3652 1.3745,-2.07183 q 1.6744,1.48757 2.0381,3.43315 0.3638,1.94563 -0.7317,4.14177 -1.3798,2.76595 -3.8886,3.54547 -2.5148,0.76175 -5.5894,-0.77195 -3.1814,-1.587 -4.1211,-4.10157 -0.9398,-2.51462 0.363,-5.12625 1.2613,-2.52853 3.782,-3.27247 2.5207,-0.74399 5.6428,0.81341 0.19,0.0948 0.5639,0.29613 l -4.6899,9.40186 q 2.1366,0.91755 3.7677,0.41176 1.631,-0.50582 2.4186,-2.08467 0.5862,-1.17524 0.3835,-2.31412 -0.2029,-1.13893 -1.3134,-2.30069 z m -6.9541,5.2926 3.5115,-7.03953 q -1.6617,-0.65102 -2.7888,-0.38303 -1.7438,0.40509 -2.555,2.03142 -0.7343,1.47201 -0.2524,2.97251 0.4879,1.48867 2.0847,2.41863 z"
             style="font-size:27.1688px;line-height:1.25;font-family:Arial;-inkscape-font-specification:Arial;letter-spacing:0px;word-spacing:0px;stroke-width:1px"
             id="path672" />
          <path
             d="m 1161.9848,543.90965 -17.4386,-8.69887 0.9712,-1.94685 1.6382,0.81718 q -0.6182,-1.1682 -0.6607,-2.27163 -0.054,-1.10937 0.5614,-2.34396 0.8053,-1.61446 2.2521,-2.43454 1.4468,-0.82009 3.2802,-0.69126 1.8215,0.12288 3.6259,1.02295 1.935,0.96525 3.1407,2.44135 1.1998,1.45834 1.3675,3.2024 0.1619,1.7263 -0.5665,3.18643 -0.533,1.0684 -1.4104,1.69809 -0.8715,0.61783 -1.8325,0.82041 l 6.1374,3.06151 z m -10.0987,-7.45396 q 2.4337,1.21396 4.0885,0.80895 1.6548,-0.40496 2.3536,-1.80575 0.7106,-1.42452 0.015,-3.03166 -0.7015,-1.6249 -3.2301,-2.88622 -2.4098,-1.20209 -4.1062,-0.80298 -1.6905,0.3872 -2.3774,1.76424 -0.6809,1.36517 0.074,3.06122 0.7491,1.67828 3.1826,2.8922 z"
             style="font-size:27.1688px;line-height:1.25;font-family:Arial;-inkscape-font-specification:Arial;letter-spacing:0px;word-spacing:0px;stroke-width:1px"
             id="path674" />
          <path
             d="m 1164.314,522.35973 2.0414,0.6329 q -0.2601,0.99692 -0.6154,1.70918 -0.5804,1.16336 -1.2681,1.62085 -0.6878,0.45744 -1.4116,0.42252 -0.7357,-0.0408 -2.6588,-1.00011 l -7.2532,-3.61814 -0.7817,1.56697 -1.6619,-0.829 0.7817,-1.56698 -3.1222,-1.5574 -0.222,-2.76444 4.4041,2.19692 1.0718,-2.14865 1.6619,0.829 -1.0718,2.14866 7.3719,3.67733 q 0.9141,0.45597 1.2286,0.47943 0.3204,0.0115 0.5991,-0.16075 0.2845,-0.18421 0.5214,-0.65905 0.1776,-0.35613 0.3846,-0.97932 z"
             style="font-size:27.1688px;line-height:1.25;font-family:Arial;-inkscape-font-specification:Arial;letter-spacing:0px;word-spacing:0px;stroke-width:1px"
             id="path676" />
          <path
             d="m 1167.2674,521.2238 -17.403,-8.68111 1.0659,-2.13678 6.2441,3.11476 q -0.987,-2.36029 0.15,-4.63953 0.6987,-1.40078 1.7719,-2.15525 1.0612,-0.7604 2.2538,-0.71402 1.1984,0.0345 3.0503,0.95824 l 7.9892,3.98524 -1.0659,2.13679 -7.9892,-3.98524 q -1.6026,-0.79941 -2.6762,-0.46027 -1.0794,0.32137 -1.713,1.59157 -0.4738,0.94969 -0.3956,2.04125 0.072,1.07376 0.7374,1.85033 0.6652,0.77657 2.1491,1.51675 l 6.8971,3.44048 z"
             style="font-size:27.1688px;line-height:1.25;font-family:Arial;-inkscape-font-specification:Arial;letter-spacing:0px;word-spacing:0px;stroke-width:1px"
             id="path678" />
          <path
             d="m 1168.3743,505.92812 -2.1486,-1.07179 3.2746,-6.56469 2.1486,1.07179 z"
             style="font-size:27.1688px;line-height:1.25;font-family:Arial;-inkscape-font-specification:Arial;letter-spacing:0px;word-spacing:0px;stroke-width:1px"
             id="path680" />
          <path
             d="m 1179.2113,497.27991 -14.5316,-2.43066 1.1014,-2.20802 8.2777,1.62372 3.0797,0.60227 q -0.1781,-0.14813 -2.2741,-1.94976 l -6.383,-5.68942 1.0955,-2.19614 8.254,1.76019 2.7237,0.57292 -2.0723,-1.93805 -6.2111,-5.79639 1.0363,-2.07743 10.6411,10.22994 -1.1074,2.21989 -8.5507,-1.75995 -2.3914,-0.58508 8.4254,7.39022 z"
             style="font-size:27.1688px;line-height:1.25;font-family:Arial;-inkscape-font-specification:Arial;letter-spacing:0px;word-spacing:0px;stroke-width:1px"
             id="path682" />
          <path
             d="m 1171.869,474.58218 -2.4573,-1.22579 1.0659,-2.13678 2.4573,1.22579 z m 14.9456,7.45532 -12.607,-6.28876 1.0659,-2.13678 12.607,6.28876 z"
             style="font-size:27.1688px;line-height:1.25;font-family:Arial;-inkscape-font-specification:Arial;letter-spacing:0px;word-spacing:0px;stroke-width:1px"
             id="path684" />
          <path
             d="m 1185.3136,475.62562 0.7216,-2.27888 q 1.3591,0.45556 2.4383,-0.0142 1.0853,-0.48155 1.8137,-1.94169 0.7343,-1.47201 0.496,-2.48036 -0.2501,-1.01427 -1.0574,-1.41695 -0.7241,-0.36121 -1.4534,0.0607 -0.504,0.2971 -1.8137,1.82306 -1.766,2.05439 -2.6494,2.75527 -0.8892,0.68312 -1.8859,0.77894 -1.0026,0.0781 -1.9285,-0.3838 -0.8428,-0.42044 -1.3655,-1.15559 -0.5288,-0.75299 -0.672,-1.65461 -0.1194,-0.68219 0.058,-1.66122 0.1711,-0.99688 0.6626,-1.98218 0.7402,-1.48387 1.7242,-2.38656 0.9899,-0.91457 1.9923,-1.08166 0.9907,-0.17295 2.314,0.23517 l -0.7572,2.23143 q -1.0446,-0.34316 -1.9341,0.073 -0.8836,0.40426 -1.5053,1.65072 -0.7343,1.47201 -0.5614,2.34396 0.1728,0.87195 0.8257,1.19763 0.4155,0.20725 0.8782,0.11192 0.4745,-0.0894 0.9783,-0.5349 0.2787,-0.26128 1.4877,-1.61508 1.7364,-1.96538 2.5723,-2.6603 0.8299,-0.7127 1.8205,-0.85601 0.9906,-0.14332 2.0828,0.40148 1.0684,0.53293 1.7042,1.63584 0.6299,1.08509 0.566,2.52087 -0.076,1.42989 -0.816,2.91377 -1.2257,2.45731 -2.8921,3.24198 -1.6605,0.77281 -3.8443,0.12821 z"
             style="font-size:27.1688px;line-height:1.25;font-family:Arial;-inkscape-font-specification:Arial;letter-spacing:0px;word-spacing:0px;stroke-width:1px"
             id="path686" />
          <path
             d="m 1195.8119,453.83665 1.3744,-2.07183 q 1.6745,1.48758 2.0382,3.43315 0.3638,1.94563 -0.7317,4.14177 -1.3798,2.76595 -3.8887,3.54547 -2.5147,0.76175 -5.5893,-0.77195 -3.1815,-1.58699 -4.1211,-4.10157 -0.9398,-2.51461 0.363,-5.12625 1.2613,-2.52853 3.782,-3.27247 2.5207,-0.74398 5.6428,0.81342 0.19,0.0948 0.5639,0.29615 l -4.6899,9.40187 q 2.1366,0.91755 3.7677,0.41176 1.6309,-0.50582 2.4185,-2.08467 0.5863,-1.17524 0.3835,-2.31412 -0.2028,-1.13893 -1.3133,-2.3007 z m -6.9541,5.2926 3.5115,-7.03953 q -1.6618,-0.65102 -2.7888,-0.38303 -1.7438,0.4051 -2.555,2.03143 -0.7343,1.47201 -0.2524,2.9725 0.4879,1.48867 2.0847,2.41863 z"
             style="font-size:27.1688px;line-height:1.25;font-family:Arial;-inkscape-font-specification:Arial;letter-spacing:0px;word-spacing:0px;stroke-width:1px"
             id="path688" />
          <path
             d="m 95.655617,521.76607 -14.088509,5.35947 V 524.605 l 8.437186,-3.02465 q 1.3664,-0.49084 2.838927,-0.90209 -1.114345,-0.31839 -2.679735,-0.88882 l -8.596378,-3.13078 v -2.45422 l 14.088509,5.33294 z"
             style="font-size:27.1688px;line-height:1.25;font-family:arial;-inkscape-font-specification:arial;letter-spacing:0px;word-spacing:0px;stroke-width:1px"
             id="path691" />
          <path
             d="m 91.118639,502.45075 0.305119,-2.46748 q 2.16236,0.58371 3.356302,2.16236 1.193941,1.57866 1.193941,4.03287 0,3.09099 -1.89704,4.90843 -1.910306,1.80418 -5.346204,1.80418 -3.555293,0 -5.518663,-1.83071 -1.96337,-1.83071 -1.96337,-4.74924 0,-2.82566 1.923572,-4.61657 1.923572,-1.79091 5.412534,-1.79091 0.212257,0 0.636769,0.0133 v 10.50669 q 2.321553,-0.13266 3.555292,-1.31334 1.23374,-1.18067 1.23374,-2.94505 0,-1.31334 -0.689833,-2.24196 -0.689833,-0.92862 -2.202159,-1.47253 z m -3.86041,7.84022 v -7.86675 q -1.777646,0.15919 -2.666469,0.90209 -1.379666,1.14088 -1.379666,2.95832 0,1.64499 1.101079,2.7726 1.10108,1.11434 2.945056,1.23374 z"
             style="font-size:27.1688px;line-height:1.25;font-family:arial;-inkscape-font-specification:arial;letter-spacing:0px;word-spacing:0px;stroke-width:1px"
             id="path693" />
          <path
             d="M 95.655617,497.01169 H 81.567108 v -2.1491 h 2.135829 q -1.49906,-0.82249 -1.976637,-1.51232 -0.477576,-0.7031 -0.477576,-1.53886 0,-1.20721 0.769429,-2.45422 l 2.215424,0.8225 q -0.517374,0.87555 -0.517374,1.75111 0,0.7827 0.477576,1.4062 0.464311,0.6235 1.30007,0.88882 1.273537,0.39798 2.785863,0.39798 h 7.375905 z"
             style="font-size:27.1688px;line-height:1.25;font-family:arial;-inkscape-font-specification:arial;letter-spacing:0px;word-spacing:0px;stroke-width:1px"
             id="path695" />
          <path
             d="m 93.519788,482.72419 2.109297,-0.34492 q 0.212256,1.00822 0.212256,1.80418 0,1.30007 -0.411247,2.01644 -0.411246,0.71636 -1.074547,1.00821 -0.676567,0.29185 -2.825661,0.29185 H 83.42435 v 1.75112 h -1.857242 v -1.75112 h -3.488962 l -1.43273,-2.37461 h 4.921692 v -2.40115 h 1.857242 v 2.40115 h 8.238196 q 1.021483,0 1.313336,-0.1194 0.291852,-0.13266 0.46431,-0.41124 0.172458,-0.29186 0.172458,-0.8225 0,-0.39798 -0.09286,-1.04801 z"
             style="font-size:27.1688px;line-height:1.25;font-family:arial;-inkscape-font-specification:arial;letter-spacing:0px;word-spacing:0px;stroke-width:1px"
             id="path697" />
          <path
             d="m 78.953703,480.3761 h -2.746065 v -2.38788 h 2.746065 z m 16.701914,0 H 81.567108 v -2.38788 h 14.088509 z"
             style="font-size:27.1688px;line-height:1.25;font-family:arial;-inkscape-font-specification:arial;letter-spacing:0px;word-spacing:0px;stroke-width:1px"
             id="path699" />
          <path
             d="m 90.495137,465.15998 0.305118,-2.34808 q 2.427681,0.38471 3.807347,1.97664 1.366399,1.57865 1.366399,3.88694 0,2.89199 -1.883774,4.65637 -1.89704,1.75111 -5.425801,1.75111 -2.281754,0 -3.99307,-0.75616 -1.711316,-0.75616 -2.560341,-2.29502 -0.862291,-1.55212 -0.862291,-3.36957 0,-2.29502 1.167409,-3.75428 1.154143,-1.45926 3.289972,-1.87051 l 0.358182,2.32155 q -1.419463,0.33165 -2.135828,1.18068 -0.716365,0.83576 -0.716365,2.0297 0,1.80418 1.300069,2.93179 1.286804,1.12761 4.085933,1.12761 2.838928,0 4.125731,-1.08781 1.286804,-1.08782 1.286804,-2.83893 0,-1.4062 -0.862291,-2.34808 -0.862291,-0.94189 -2.653203,-1.19395 z"
             style="font-size:27.1688px;line-height:1.25;font-family:arial;-inkscape-font-specification:arial;letter-spacing:0px;word-spacing:0px;stroke-width:1px"
             id="path701" />
          <path
             d="m 93.917769,451.57558 q 1.127611,1.32661 1.591922,2.56034 0.46431,1.22048 0.46431,2.62668 0,2.32155 -1.127611,3.56855 -1.140878,1.24701 -2.905258,1.24701 -1.034749,0 -1.883774,-0.46431 -0.862291,-0.47758 -1.379666,-1.23374 -0.517374,-0.76943 -0.782694,-1.72458 -0.185725,-0.7031 -0.358183,-2.12256 -0.344916,-2.892 -0.822493,-4.2584 -0.490842,-0.0133 -0.623503,-0.0133 -1.459261,0 -2.056232,0.67656 -0.809227,0.91536 -0.809227,2.71954 0,1.68478 0.596971,2.49401 0.583704,0.79596 2.082764,1.18067 l -0.318384,2.33482 q -1.49906,-0.31838 -2.414415,-1.04801 -0.928621,-0.72963 -1.419464,-2.1093 -0.504108,-1.37966 -0.504108,-3.19711 0,-1.80418 0.424512,-2.93179 0.424513,-1.12761 1.074547,-1.65825 0.636769,-0.53064 1.618454,-0.7429 0.610237,-0.11939 2.202159,-0.11939 h 3.183844 q 3.32977,0 4.218593,-0.14593 0.875557,-0.15919 1.684784,-0.61023 v 2.49401 q -0.742897,0.37145 -1.737848,0.47757 z m -5.332939,0.19899 q 0.530641,1.30007 0.902089,3.90021 0.212257,1.47253 0.477577,2.08277 0.26532,0.61023 0.782695,0.94188 0.504109,0.33165 1.127611,0.33165 0.955153,0 1.591922,-0.71636 0.636769,-0.72963 0.636769,-2.12256 0,-1.37967 -0.596971,-2.45422 -0.610237,-1.07454 -1.658252,-1.57865 -0.809227,-0.38472 -2.387883,-0.38472 z"
             style="font-size:27.1688px;line-height:1.25;font-family:arial;-inkscape-font-specification:arial;letter-spacing:0px;word-spacing:0px;stroke-width:1px"
             id="path703" />
          <path
             d="M 95.655617,445.712 H 76.207638 v -2.38788 h 19.447979 z"
             style="font-size:27.1688px;line-height:1.25;font-family:arial;-inkscape-font-specification:arial;letter-spacing:0px;word-spacing:0px;stroke-width:1px"
             id="path705" />
          <path
             style="fill:none;fill-rule:evenodd;stroke:#000000;stroke-width:3;stroke-linecap:butt;stroke-linejoin:miter;stroke-miterlimit:4;stroke-dasharray:none;stroke-opacity:1;marker-end:url(#marker7040)"
             d="M 113.36821,411.94823 V 564.48126"
             id="path7038" />
          <path
             d="m 489.73494,522.82433 0.30511,-2.34808 q 2.42769,0.38471 3.80735,1.97663 1.3664,1.57866 1.3664,3.88695 0,2.89199 -1.88377,4.65637 -1.89704,1.75111 -5.4258,1.75111 -2.28176,0 -3.99307,-0.75616 -1.71132,-0.75616 -2.56035,-2.29502 -0.86229,-1.55212 -0.86229,-3.36957 0,-2.29502 1.16741,-3.75428 1.15415,-1.45926 3.28997,-1.87051 l 0.35819,2.32155 q -1.41947,0.33165 -2.13583,1.18068 -0.71637,0.83576 -0.71637,2.0297 0,1.80418 1.30007,2.93179 1.28681,1.12761 4.08594,1.12761 2.83892,0 4.12573,-1.08781 1.2868,-1.08782 1.2868,-2.83893 0,-1.4062 -0.86229,-2.34809 -0.86229,-0.94188 -2.6532,-1.19394 z"
             style="font-size:27.1688px;line-height:1.25;font-family:arial;-inkscape-font-specification:arial;letter-spacing:0px;word-spacing:0px;stroke-width:1px"
             id="path708" />
          <path
             d="m 487.85116,519.3221 q -3.91347,0 -5.79725,-2.17562 -1.56539,-1.81745 -1.56539,-4.43085 0,-2.90526 1.91031,-4.74924 1.89704,-1.84397 5.25334,-1.84397 2.71953,0 4.28492,0.82249 1.55213,0.80923 2.41442,2.37462 0.86229,1.55212 0.86229,3.3961 0,2.95832 -1.89704,4.78903 -1.89704,1.81744 -5.4656,1.81744 z m 0,-2.45421 q 2.70627,0 4.0594,-1.18067 1.33987,-1.18068 1.33987,-2.97159 0,-1.77765 -1.35313,-2.95832 -1.35314,-1.18068 -4.12573,-1.18068 -2.61341,0 -3.95328,1.19394 -1.35313,1.18068 -1.35313,2.94506 0,1.79091 1.33987,2.97159 1.33986,1.18067 4.04613,1.18067 z"
             style="font-size:27.1688px;line-height:1.25;font-family:arial;-inkscape-font-specification:arial;letter-spacing:0px;word-spacing:0px;stroke-width:1px"
             id="path710" />
          <path
             d="m 494.89542,503.37635 h -19.44798 v -2.38788 h 19.44798 z"
             style="font-size:27.1688px;line-height:1.25;font-family:arial;-inkscape-font-specification:arial;letter-spacing:0px;word-spacing:0px;stroke-width:1px"
             id="path712" />
          <path
             d="m 494.89542,488.0541 h -2.0695 q 2.38788,1.64499 2.38788,4.47065 0,1.24701 -0.47758,2.33482 -0.47757,1.07455 -1.19394,1.60519 -0.72963,0.51737 -1.77764,0.72963 -0.7031,0.14593 -2.22869,0.14593 h -8.72904 v -2.38789 h 7.81368 q 1.87051,0 2.52054,-0.14592 0.94189,-0.22553 1.4858,-0.95516 0.53064,-0.72963 0.53064,-1.80418 0,-1.07454 -0.54391,-2.01643 -0.55717,-0.94189 -1.49906,-1.3266 -0.95515,-0.39798 -2.75933,-0.39798 h -7.54836 v -2.38788 h 14.08851 z"
             style="font-size:27.1688px;line-height:1.25;font-family:arial;-inkscape-font-specification:arial;letter-spacing:0px;word-spacing:0px;stroke-width:1px"
             id="path714" />
          <path
             d="m 494.89542,482.17726 h -14.08851 v -2.13583 h 1.97663 q -1.03475,-0.6633 -1.65825,-1.76438 -0.63677,-1.10108 -0.63677,-2.50727 0,-1.56539 0.65004,-2.56034 0.65003,-1.00822 1.81744,-1.41947 -2.46748,-1.67152 -2.46748,-4.35125 0,-2.09603 1.16741,-3.22364 1.15415,-1.12761 3.56856,-1.12761 h 9.67093 v 2.37461 h -8.87497 q -1.43273,0 -2.05623,0.23879 -0.63677,0.22552 -1.02148,0.83576 -0.38472,0.61024 -0.38472,1.43273 0,1.48579 0.99495,2.46748 0.98169,0.98168 3.15731,0.98168 h 8.18514 v 2.38789 h -9.15355 q -1.59193,0 -2.38789,0.5837 -0.79596,0.58371 -0.79596,1.91031 0,1.00821 0.53064,1.87051 0.53064,0.84902 1.55213,1.23373 1.02148,0.38472 2.94505,0.38472 h 7.30958 z"
             style="font-size:27.1688px;line-height:1.25;font-family:arial;-inkscape-font-specification:arial;letter-spacing:0px;word-spacing:0px;stroke-width:1px"
             id="path716" />
          <path
             d="m 494.89542,459.54544 h -14.08851 v -2.1491 h 2.00317 q -2.32156,-1.55212 -2.32156,-4.48391 0,-1.27354 0.46431,-2.33482 0.45105,-1.07455 1.19395,-1.60519 0.74289,-0.53064 1.76438,-0.74289 0.6633,-0.13266 2.32155,-0.13266 h 8.66271 v 2.38788 h -8.56985 q -1.45926,0 -2.17563,0.27858 -0.72963,0.27859 -1.15414,0.99496 -0.43778,0.70309 -0.43778,1.65825 0,1.52559 0.96842,2.63994 0.96842,1.10107 3.67469,1.10107 h 7.69429 z"
             style="font-size:27.1688px;line-height:1.25;font-family:arial;-inkscape-font-specification:arial;letter-spacing:0px;word-spacing:0px;stroke-width:1px"
             id="path718" />
          <path
             style="display:inline;fill:none;fill-rule:evenodd;stroke:#000000;stroke-width:3;stroke-linecap:butt;stroke-linejoin:miter;stroke-miterlimit:4;stroke-dasharray:none;stroke-opacity:1;marker-end:url(#marker7040-9)"
             d="M 512.60804,414.08035 V 566.61338"
             id="path7038-3" />
        </g>
      </g>
    </g>
  </g>
</svg>
